<?xml version="1.0" encoding="UTF-8" standalone="no"?>
<!-- Created with Inkscape (http://www.inkscape.org/) -->

<svg
   xmlns:dc="http://purl.org/dc/elements/1.1/"
   xmlns:cc="http://creativecommons.org/ns#"
   xmlns:rdf="http://www.w3.org/1999/02/22-rdf-syntax-ns#"
   xmlns:svg="http://www.w3.org/2000/svg"
   xmlns="http://www.w3.org/2000/svg"
   xmlns:sodipodi="http://sodipodi.sourceforge.net/DTD/sodipodi-0.dtd"
   xmlns:inkscape="http://www.inkscape.org/namespaces/inkscape"
   width="744.09448819"
   height="1052.3622047"
   id="svg3009"
   version="1.1"
   inkscape:version="0.48.2 r9819"
   sodipodi:docname="Philosopher.svg">
  <defs
     id="defs3011" />
  <sodipodi:namedview
     id="base"
     pagecolor="#ffffff"
     bordercolor="#666666"
     borderopacity="1.0"
     inkscape:pageopacity="0.0"
     inkscape:pageshadow="2"
     inkscape:zoom="0.49497475"
     inkscape:cx="434.84901"
     inkscape:cy="669.69093"
     inkscape:document-units="px"
     inkscape:current-layer="layer1"
     showgrid="false"
     showguides="true"
     inkscape:guide-bbox="true"
     inkscape:window-width="1265"
     inkscape:window-height="743"
     inkscape:window-x="2"
     inkscape:window-y="0"
     inkscape:window-maximized="0" />
  <metadata
     id="metadata3014">
    <rdf:RDF>
      <cc:Work
         rdf:about="">
        <dc:format>image/svg+xml</dc:format>
        <dc:type
           rdf:resource="http://purl.org/dc/dcmitype/StillImage" />
        <dc:title />
      </cc:Work>
    </rdf:RDF>
  </metadata>
  <g
     inkscape:label="Layer 1"
     inkscape:groupmode="layer"
     id="layer1">
    <path
       style="fill:#889a48;fill-opacity:1;stroke:none"
       d="m 292.74119,197.18883 c -1.50914,-0.75457 -16.92969,15.37011 -18.18275,27.02158 -7.31741,1.17091 -11.52736,4.56144 -14.14213,9.09138 -6.99199,-3.18028 -13.46871,5.38748 -20.20306,8.08122 -12.51596,5.98902 -25.09736,12.46828 -38.38579,24.24366 -11.06949,0.31576 -12.78594,8.42571 -16.16244,15.15229 -7.84969,17.28373 -7.97344,38.27591 1.01015,63.63961 1.32538,12.37437 0.69772,42.98058 8.08122,50.76016 4.15304,4.37582 -1.17701,21.19444 11.61675,57.57869 6.06792,13.27799 3.49916,28.17535 19.1929,39.64849 8.35397,9.44628 2.29646,17.93179 1.51523,26.76905 -18.79551,28.02922 -11.29956,73.93662 -15.15229,112.12693 l 7.07107,55.55839 c -0.59587,14.47885 4.55345,28.95771 10.6066,43.43656 5.65493,16.77278 -7.63286,27.00911 22.72844,51.0127 13.385,7.35546 24.53548,23.20208 40.91117,19.1929 l 45.96194,23.73858 3.53554,13.63706 112.48407,11.85661 c 7.12835,-5.02819 14.14475,-14.71525 17.82561,-27.00889 6.55006,-0.85773 11.62587,-3.18969 14.14213,-8.08122 8.25885,0.69816 13.80101,-5.84819 20.20305,-10.10153 14.34831,-4.94993 26.32243,-13.25482 38.65103,-23.59065 5.68032,0.92998 11.64779,-6.92987 16.40229,-14.79515 10.64633,-23.63796 0.16705,-45.91298 -2.52538,-68.69037 -1.15739,-16.49659 0.19276,-35.18729 -8.08122,-45.45686 0.52916,-20.37141 -5.72297,-40.74282 -10.60661,-61.11423 -5.37805,-13.23823 -6.49826,-29.73245 -19.19289,-37.37565 l -5.55584,-9.59645 5.55584,-19.19289 c 25.97137,-50.48108 15.94883,-108.74554 5.93464,-167.18025 0.69633,-18.192 -5.18227,-28.30089 -10.6066,-45.20433 1.16386,-30.07122 -13.10656,-39.3275 -26.1377,-50.25509 -11.74266,-8.84082 -23.3018,-18.69103 -36.99683,-16.79379 l -45.58314,-22.34962 -3.78807,-12.87944 z"
       id="path4033"
       inkscape:connector-curvature="0"
       sodipodi:nodetypes="cccccccsccccccccccccccccccccccccccccc" />
    <path
       style="fill:#9a6948;fill-opacity:1;stroke:none"
       d="m 403.5625,659.96875 -4.40625,66.46875 c -13.23809,9.61905 -22.37682,29.85257 -28.1875,46.8125 -4.93337,5.84294 -7.53015,6.19021 -13.875,7.8125 -5.8478,5.4822 -4.15577,9.78011 3.15625,12.625 -6.08063,1.13518 -10.60288,14.49679 -12.25,27.53125 l -5.3125,15.53125 -4.28125,22.46875 c -4.29405,-6.34091 -9.33426,-1.7917 -12.84375,3.46875 -4.12023,6.0511 -7.31934,16.23219 -10.90625,23.6875 -5.56295,14.8485 2.99742,17.37126 9.09375,15.65625 0.137,18.01439 -4.35746,36.04811 3.03125,54.0625 16.11551,34.4038 45.54291,42.60757 81.8125,37.375 31.87227,-16.55748 49.94954,-41.60527 44.84375,-77.65625 5.8204,2.42883 7.38622,-4.75588 0.5625,-14.78125 0.64296,-11.84382 1.99338,-20.70904 4.59375,-29.8125 -0.73094,-6.89962 -10.91876,-47.81803 -16,-58.59375 7.51001,10.68552 19.57785,10.97152 7.34375,-5.125 -0.97299,-1.28017 0.89091,-7.12936 -7.5625,-18.65625 -1.50637,-2.53573 -0.81007,-11.63278 -6.21875,-15.59375 -1.92402,-2.40594 -1.46576,-4.3141 -4.96875,-7.34375 l 0.125,-17.65625 c 7.52231,-7.3348 10.49908,-24.54074 14.15625,-40.25 -3.29833,-23.7263 -23.83804,-35.22183 -41.90625,-48.03125 z m -24.25,224.71875 c 6.43478,-0.20161 10.75407,2.38139 13.875,5.65625 1.51136,7.55455 -23.87505,3.50867 -26.75,-2.25 3.70125,-2.75503 7.62723,-2.9721 11.5625,-3.3125 0.44796,-0.0388 0.88351,-0.0803 1.3125,-0.0937 z m 60.75,5.8125 c 3.85328,0.10874 7.23529,0.77546 9.59375,6.25 -9.92293,4.75472 -17.82181,0.80888 -25.78125,-2.78125 4.97211,-0.62425 11.23293,-3.60857 16.1875,-3.46875 z"
       id="path4013-4"
       inkscape:connector-curvature="0"
       sodipodi:nodetypes="cccccccccccccccccsccccccsccsssccs" />
    <path
       style="fill:#9a6948;fill-opacity:1;stroke:none"
       d="m 357.84375,52.03125 c -0.88482,-0.0027 -1.7604,0.01221 -2.65625,0.03125 -5.30876,0.112801 -10.80163,0.619913 -16.46875,1.4375 -31.87227,16.557481 -50.26204,41.417767 -45.15625,77.46875 1.03897,9.16862 -0.21725,5.9143 -0.28125,14.96875 -0.64296,11.84383 -1.99338,20.67779 -4.59375,29.78125 0.73217,6.91125 10.99005,47.96444 16.0625,58.65625 -7.508,-10.72338 -19.62381,-11.02212 -7.375,5.09375 0.97299,1.28017 -0.89091,7.12936 7.5625,18.65625 1.50637,2.53573 0.81007,11.63278 6.21875,15.59375 1.92402,2.40594 1.46576,4.28285 4.96875,7.3125 l -0.15625,17.6875 c -7.52231,7.3348 -10.49908,24.54074 -14.15625,40.25 3.29833,23.7263 23.86929,35.19058 41.9375,48 L 348.15625,320.5 c 13.23809,-9.61905 22.37682,-29.82132 28.1875,-46.78125 4.93337,-5.84294 7.53015,-6.22146 13.875,-7.84375 5.8478,-5.4822 4.15577,-9.78011 -3.15625,-12.625 6.08063,-1.13518 10.60288,-14.49679 12.25,-27.53125 l 5.3125,-15.53125 4.28125,-22.46875 c 4.29405,6.34091 9.30301,1.82295 12.8125,-3.4375 4.12023,-6.0511 7.35059,-16.26344 10.9375,-23.71875 5.56295,-14.84851 -2.99742,-17.37126 -9.09375,-15.65625 -0.137,-18.01439 4.35746,-36.01686 -3.03125,-54.03125 -13.17254,-28.121078 -35.2581,-38.760449 -62.6875,-38.84375 z m -51.9375,96.0625 c 6.80338,-0.17361 15.44607,2.53798 18.1001,5.15688 -5.52778,0.31826 -21.4984,7.78922 -26.32202,-2.78061 2.042,-0.94805 5.12947,-2.29736 8.22192,-2.37627 z m 58.5,5.125 c 6.37557,0.44063 16.42793,3.24184 17.03125,4.9375 -1.39636,4.33163 -20.30506,7.82677 -27.1875,-2 -1.38961,-3.55574 4.82532,-2.4895 10.15625,-2.9375 z"
       id="path4013"
       inkscape:connector-curvature="0"
       sodipodi:nodetypes="sscccccscccccccccccccccccssccscccc" />
    <path
       style="fill:#000000;fill-opacity:1;stroke:none"
       d="m 358.38393,49.830357 c -5.92044,0.10811 -12.73197,1.07083 -20.9375,3.34375 -32.22462,18.72582 -52.28112,42.600782 -44.32138,77.529983 0.75409,3.71233 1.46601,9.05024 0.895,5.04252 0.0603,-0.87136 0.35894,-4.45284 0.30138,-5.135 -3.5835,-32.118333 10.24138,-57.530743 43.875,-75.937503 15.82427,-3.66799 32.49034,-3.68241 51,4.0625 18.47712,11.3223 33.00244,25.360121 34.09375,48.718753 l 0,37.375 c -6.62663,2.96501 -12.72794,11.98613 -13.46875,12.53125 7.98349,-4.26953 15.71393,-21.42877 24.125,-7.3125 -1.14798,12.19728 -6.50395,23.14777 -12.34375,33.9375 -4.0219,3.34909 -7.58127,10.23232 -12.90625,3.15625 l -0.25,-0.40625 c 0.0599,3.39738 -3.00007,20.84509 -4.34375,22.75 -1.73769,9.11167 -12.6064,22.05354 -21,29.15625 -2.36278,-1.25972 -3.66867,-1.38011 -5.8125,-1.21875 -0.36851,-2.94222 -2.66237,-6.5991 -5.59375,-6.71875 -0.79689,-5.21492 -5.61248,-10.95345 -9.5625,-16.5625 -2.71642,-2.22946 -3.70383,-6.59678 -11.78125,-2.125 -1.23092,0.51208 -2.44486,1.07257 -3.65625,1.65625 -6.47546,-1.88789 -14.43086,-3.90097 -19.125,-1.40625 -4.14095,-2.46936 -22.89979,-0.62886 -23.21875,2.03125 3.19402,3.09055 6.59994,5.4321 11.125,3.53125 6.17972,0.0743 11.19498,1.89487 19.1875,-0.75 l 3.15625,1.5625 c -6.68086,4.30675 -13.0821,9.6874 -19.25,15.875 -0.60697,4.31839 -1.06534,8.61911 -1.4375,12.9375 -0.8402,1.17261 -0.60691,0.46028 -1.36485,1.63721 -2.95251,-4.60234 -6.48083,-7.73669 -8.9789,-12.79346 -4.10714,-4.03592 -8.20536,-12.42158 -12.3125,-10.53125 -7.18492,4.336 -0.0946,9.9795 2.3125,15.1875 1.35406,6.09627 2.03838,12.39792 7.5,17.125 1.21853,5.9028 2.12678,12.50206 6.625,15.96875 1.01767,2.11748 2.48285,4.27332 4.53125,6.4375 -0.21387,5.98405 -0.44477,11.9847 -0.8125,17.96875 -4.391,5.1703 -7.04256,12.24801 -9.125,20.03125 0.4535,-18.20792 -12.65895,-30.78833 -18.0625,-42.84375 5.63348,14.24808 15.85498,35.34967 15.78125,52.46875 -0.34168,1.51597 -0.68582,3.03807 -1.03125,4.5625 -18.7331,-21.86788 -18.22119,-40.42105 -22.84375,-60.03125 -1.38297,-18.71563 -9.24776,-38.65263 -1,-55.5625 2.23017,-7.05921 6.68108,-13.50633 13.625,-19.21875 -6.12956,2.89316 -10.51945,9.30882 -14.65625,16.1875 -1.51643,3.34589 -2.56255,6.76956 -3.25,10.28125 -3.93396,-1.1521 -9.17851,2.28011 -14.78125,6.96875 -6.54762,-0.0946 -13.10863,2.82665 -19.65625,10.34375 -8.73641,2.44469 -17.40954,5.04982 -24.28125,12.15625 l -14.28125,11.0625 c -13.58449,0.4254 -11.6613,10.83334 -16.78125,16.4375 -14.07074,26.31438 1.77217,49.88539 2.84375,78.21875 0.18664,14.2296 -0.21583,28.89385 7.34375,37.59375 2.16212,36.88816 7.69689,39.99046 11.59375,59.53125 2.52476,16.04975 8.04165,30.38987 20.0625,38.0625 0.86079,2.33294 1.74677,4.50543 2.625,6.5625 -0.63548,8.33607 -2.86328,16.70651 -5.9375,23.03125 -6.36171,7.4402 -13.74053,25.52848 -14.125,102.34375 l -0.6875,-0.1875 c 4.98713,21.64777 7.02614,44.60236 10.96875,65.96875 -2.40724,13.12473 4.50907,26.25027 9.71875,39.375 2.45322,17.02381 -1.66252,34.06994 23.21875,51.09375 13.21454,6.70997 18.76544,21.90949 39.90625,19.8125 l 46.59375,21.1875 -43.25,-22.9375 0.90625,-0.28125 c -0.43475,-22.67942 -17.19459,-37.20904 -33.34375,-52.03125 14.05855,18.27615 31.44721,37.45664 29.28125,51.40625 -18.67804,0.16536 -25.89996,-12.75897 -39,-18.96875 -12.64922,-9.56426 -20.1173,-23.17168 -21.78125,-41.3125 5.15016,-16.16326 20.03907,-24.713 31.0625,-35.46875 6.18162,-7.2719 4.21623,-15.22464 4.625,-22.84375 -1.71443,6.90476 -1.23018,14.92416 -6.40625,20.71875 -11.04609,10.28638 -25.54771,19.28381 -29.625,31.25 0.41392,-3.25135 -1.64195,-5.87206 -2.9375,-8.4375 -0.0567,-27.71654 19.02135,-38.55591 32.34375,-54.46875 -13.65754,15.69489 -37.78385,23.45359 -32.96875,53.1875 -14.37269,-34.11277 -4.0889,-52.69494 9.96875,-84.40625 -6.14687,12.21222 -13.13973,22.74584 -17.34375,38.84375 l -5.46875,-49.1875 0,-0.125 c 1.9137,-35.08534 -2.48606,-90.62835 14.40625,-105.9375 1.10257,0.68606 2.12952,-12.75467 2.4375,-16.0625 19.41588,39.10463 42.69547,16.79297 66.53125,-14.09375 20.1215,-2.9821 40.25158,-30.10279 60.375,-56.84375 -1.32432,6.14546 36.30303,79.15136 -15.25,88.25 32.27563,7.21218 34.98792,-29.91062 19.625,-94.15625 3.95624,-5.8063 6.60445,-12.37 8.53125,-19.375 7.58504,-4.4358 14.1135,-10.71673 18.5,-20.75 10.62345,2.43265 18.15614,20.5741 24.65625,-73.5625 9.75118,2.48399 13.68612,-7.7559 8.21875,-38.5625 -4.03784,-17.05859 -8.96723,-38.99006 -13.28125,-54.59375 -1.45584,-5.26574 -2.83304,-9.83203 -4.09375,-13.21875 l 4.15625,-21.28125 c 3.81457,7.15262 9.89946,-0.71294 12.6875,-3.25 5.82248,-10.74318 12.50101,-20.75288 12.84375,-36.0625 -2.36543,-6.22669 -8.34586,-5.85072 -9.75,-5.5 l -0.5,-37.625 c -1.22832,-20.604672 -12.77029,-37.226513 -34.875,-49.750003 -9.61773,-2.99008 -18.28753,-6.86283 -31.3125,-6.625 z m 50.84375,173.312503 43.25,22.9375 -0.90625,0.28125 c 0.43475,22.67942 17.19459,37.20904 33.34375,52.03125 -14.05855,-18.27615 -31.44721,-37.45664 -29.28125,-51.40625 18.67804,-0.16536 25.89996,12.75897 39,18.96875 12.64922,9.56426 20.1173,23.17168 21.78125,41.3125 -5.15016,16.16326 -20.03907,24.713 -31.0625,35.46875 -6.18162,7.2719 -4.21623,15.22464 -4.625,22.84375 1.71443,-6.90476 1.23018,-14.92416 6.40625,-20.71875 11.04609,-10.28638 25.54771,-19.28381 29.625,-31.25 -0.41392,3.25135 1.64195,5.87206 2.9375,8.4375 0.0567,27.71654 -19.02135,38.55591 -32.34375,54.46875 13.65754,-15.69489 37.78385,-23.45359 32.96875,-53.1875 14.37269,34.11276 4.0889,52.69494 -9.96875,84.40625 6.14687,-12.21222 13.13973,-22.74584 17.34375,-38.84375 l 5.46875,49.1875 0,0.125 c -1.9137,35.08535 3.91463,89.91406 -12.97768,105.22321 0.4635,1.78627 -3.55714,13.2808 -3.86607,16.77679 -19.41588,-39.10463 -42.69547,-16.79297 -66.53125,14.09375 -20.14413,2.98545 -40.29147,30.16736 -60.4375,56.9375 1.92432,-5.18305 -36.6236,-79.1775 15.3125,-88.34375 -32.27563,-7.21218 -34.98792,29.91063 -19.625,94.15625 -3.95624,5.8063 -6.60445,12.37 -8.53125,19.375 -7.58504,4.4358 -14.1135,10.71673 -18.5,20.75 -10.62345,-2.43265 -18.15614,-20.57411 -24.65625,73.5625 -9.75118,-2.48399 -13.68612,7.7559 -8.21875,38.5625 4.03784,17.05859 8.96723,38.99006 13.28125,54.59375 1.45584,5.26574 2.83304,9.83203 4.09375,13.21875 l -4.15625,21.28125 c -3.81457,-7.1526 -9.89946,0.713 -12.6875,3.25 -5.82248,10.7432 -12.50101,20.7529 -12.84375,36.0625 2.36543,6.2267 8.34586,5.8507 9.75,5.5 l 0.5,37.625 c 1.22832,20.6047 12.77029,37.2265 34.875,49.75 9.61773,2.9901 18.28753,6.8628 31.3125,6.625 5.92044,-0.10813 12.73197,-1.07085 20.9375,-3.34375 32.22462,-18.7259 51.39724,-42.72705 43.4375,-77.65625 11.31126,2.6674 4.59874,-6.66175 2.625,-11.71875 2.03738,6.1343 2.98973,11.19665 -2.59375,11.46875 -0.11302,-0.4925 -0.002,-1.3156 -0.125,-1.8125 -0.0603,0.8714 -0.27631,1.59905 -0.21875,2.28125 3.5835,32.1183 -10.24138,57.5307 -43.875,75.9375 -15.82427,3.668 -32.49034,3.6824 -51,-4.0625 -18.47712,-11.3223 -33.00244,-25.36015 -34.09375,-48.71875 l 0,-37.375 c 6.62663,-2.965 12.72794,-11.98615 13.46875,-12.53125 -7.98349,4.2695 -15.71393,21.4287 -24.125,7.3125 1.14798,-12.1973 6.50395,-23.1478 12.34375,-33.9375 4.0219,-3.3491 7.58127,-10.23225 12.90625,-3.15625 l 0.25,0.40625 c -0.0599,-3.3974 3.00007,-20.84509 4.34375,-22.75 1.73769,-9.11167 12.6064,-22.05354 21,-29.15625 2.36278,1.25972 3.66867,1.38011 5.8125,1.21875 0.36851,2.94222 2.66237,6.5991 5.59375,6.71875 0.79689,5.21492 5.61248,10.95345 9.5625,16.5625 2.71642,2.22946 3.70383,6.59678 11.78125,2.125 1.23092,-0.51208 2.44486,-1.07257 3.65625,-1.65625 6.47546,1.88789 14.43086,3.90097 19.125,1.40625 4.14095,2.46936 22.89979,0.62886 23.21875,-2.03125 -3.19402,-3.09055 -6.59994,-5.4321 -11.125,-3.53125 -6.17972,-0.0743 -11.19498,-1.89487 -19.1875,0.75 l -3.15625,-1.5625 c 6.68086,-4.30675 13.0821,-9.6874 19.25,-15.875 0.60697,-4.31839 1.06534,-8.61911 1.4375,-12.9375 0.8402,-1.17261 -1.41865,2.82425 -0.66071,1.64732 2.95251,4.60234 8.50639,4.45216 11.00446,9.50893 4.10714,4.03592 8.20536,12.42158 12.3125,10.53125 7.18492,-4.336 0.0946,-9.9795 -2.3125,-15.1875 -1.35406,-6.09627 -2.03838,-12.39792 -7.5,-17.125 -1.21853,-5.9028 -2.12678,-12.50206 -6.625,-15.96875 -1.01767,-2.11748 -2.48285,-4.27332 -4.53125,-6.4375 0.21387,-5.98405 0.44477,-11.9847 0.8125,-17.96875 4.391,-5.1703 7.04256,-12.24801 9.125,-20.03125 -0.4535,18.20792 12.65895,30.78833 18.0625,42.84375 -5.63348,-14.24808 -15.85498,-35.34967 -15.78125,-52.46875 0.34168,-1.51597 0.68582,-3.03807 1.03125,-4.5625 18.7331,21.86788 18.22119,40.42105 22.84375,60.03125 1.38297,18.71563 9.24776,38.65263 1,55.5625 -2.23017,7.05921 -6.68108,13.5063 -13.625,19.21875 6.12956,-2.89319 10.51945,-9.30882 14.65625,-16.1875 1.51643,-3.34589 2.56255,-6.76956 3.25,-10.28125 3.93396,1.1521 9.17851,-2.28011 14.78125,-6.96875 6.54762,0.0946 13.10863,-2.82665 19.65625,-10.34375 8.73641,-2.44469 17.40954,-5.04982 24.28125,-12.15625 l 14.28125,-11.0625 c 13.58449,-0.4254 11.6613,-10.83334 16.78125,-16.4375 14.07073,-26.31438 -1.77217,-49.88538 -2.84375,-78.21875 -0.18664,-14.2296 0.21583,-28.89385 -7.34375,-37.59375 -2.16212,-36.88816 -7.69689,-39.99046 -11.59375,-59.53125 -2.52476,-16.04975 -8.04165,-30.38987 -20.0625,-38.0625 -0.86079,-2.33294 -1.74677,-4.50543 -2.625,-6.5625 0.63478,-8.32686 2.86853,-16.70894 5.9375,-23.03125 6.36324,-7.4353 13.7404,-25.50138 14.125,-102.34375 l 0.6875,0.1875 c -4.98713,-21.64777 -7.02614,-44.60237 -10.96875,-65.96875 2.40724,-13.12473 -4.50907,-26.25027 -9.71875,-39.375 -2.45322,-17.02381 1.66252,-34.06994 -23.21875,-51.09375 -13.21454,-6.70997 -18.76544,-21.90949 -39.90625,-19.8125 z m -104.46875,-92.5625 c -4.03652,-0.0433 -7.59911,1.13711 -9.75,4.40625 -0.24414,2.69374 -1.57799,5.40001 0,8.09375 5.92533,-11.86436 20.04406,-1.7396 32.3125,6.5625 4.26778,-0.0401 5.33693,-2.49858 1.53125,-8.59375 -0.41607,-2.1903 -13.7782,-10.35804 -24.09375,-10.46875 z m -10.75,4.64727 c -1.2934,13.28989 -1.76622,24.53294 -5.5625,38.41523 0.39085,15.74155 7.03646,31.47721 10.59375,47.21875 3.84187,9.68795 7.60924,25.32455 16.16466,28.27887 -5.99821,-6.13983 -12.21162,-21.69817 -15.38341,-29.81012 -3.20721,-15.25498 -9.15249,-31.03571 -9.34375,-45.6875 3.93363,-13.63706 3.48865,-24.77817 3.53125,-38.41523 z m 62.28125,0.75898 c -3.81794,0.0242 -6.98022,0.49583 -8.4375,2.09375 -1.48395,4.62263 -3.10867,9.31435 3.9375,10 7.45235,-0.83333 9.48099,-1.66667 13.21875,-2.5 9.92209,-3.39942 19.3879,0.98897 25.53125,5.25 -4.71093,-4.53741 -4.34025,-12.14479 -18.40625,-14.1875 -4.93882,0.011 -10.93497,-0.6873 -15.84375,-0.65625 z m -47.96875,11.25 c -3.70376,0.005 -7.16828,1.11322 -10.40625,3.15625 l 3.28125,-0.375 c 1.53708,7.49675 11.16896,7.26728 11.875,0.25 l 10.84375,2.78125 c -5.67731,-3.99792 -10.83177,-5.81914 -15.59375,-5.8125 z m 120.28125,1.25 c -3.3243,-0.0136 -7.66283,5.23666 -11.8125,9.5 5.74616,-5.74164 11.53003,-11.62139 15.1875,-6.6875 -0.91651,-1.99671 -2.07419,-2.80719 -3.375,-2.8125 z m -66,0.90625 c -0.67832,0.0213 -1.36344,0.0745 -2.0625,0.125 8.75465,0.23353 17.5266,2.41347 26.28125,6.6875 -6.28632,-3.6694 -13.1164,-6.66312 -22.21875,-6.8125 -0.65017,-0.0106 -1.32168,-0.0213 -2,0 z m -1.0625,2.78125 c -2.30336,-0.31483 -4.89325,0.67956 -7.40179,2.19643 l 6.02679,-0.69643 c 1.53794,10.85397 11.95717,8.22829 13.125,2.28125 l 5.3125,0.375 c -5.32878,-1.93789 -10.43367,-3.2502 -17.0625,-4.15625 z m -61.71875,1.25 c 3.03044,4.3133 10.04434,4.94054 20.81631,0.50254 -8.59017,2.13722 -16.54145,2.96161 -20.81631,-0.50254 z m 132.15625,1.96875 c -3.30787,8.3354 -8.01622,14.93918 -13.21875,20.90625 1.38333,1.08214 13.71597,-15.0696 13.21875,-20.90625 z m -75.28125,3.25 c 5.60546,6.06667 21.04734,5.01549 24.3125,0.21875 -3.92696,3.54288 -19.01458,4.7322 -24.3125,-0.21875 z m 55.8125,3 c -0.0745,4.56442 5.77051,11.15257 -1.25,13.40625 0.11582,3.63956 1.8495,2.94252 4.09375,0.90625 -4.59264,1.79079 -3.07538,0.12188 -2.84375,-0.71875 6.43441,-3.56015 0.34946,-8.97501 0,-13.59375 z m -93.8125,16.0625 c -7.65168,0.60644 -16.45442,17.50731 2.8125,17.78125 5.63919,4.59964 11.59231,2.50545 17.53125,1.21875 16.10051,4.89535 20.65376,-1.07695 13.875,-17.75 -0.1186,8.95524 9.23675,24.19796 -13.40625,16.65625 4.08956,-1.56235 4.05298,-3.57429 2.875,-6.25 1.13416,5.05916 -3.61752,5.60513 -3.65625,6.09375 -4.36119,0.92773 -9.65384,3.60348 -15.90625,-1.0625 -1.09621,-2.63272 -2.16243,-5.36352 -2.4375,-9.65625 -1.48913,2.74568 -0.91965,5.79917 0.78125,9.03125 -17.1745,1.6598 -6.69614,-15.59957 -2.46875,-16.0625 z m 93.4375,3.5 c 1.94849,2.64661 3.6211,2.34972 5.09375,0 -1.69643,1.79666 -3.39732,1.27998 -5.09375,0 z m -116.625,27.78125 c -25.43718,15.2473 -8.60743,47.39111 5.0625,78.28125 -4.87404,-26.09561 -29.0966,-52.18564 -5.0625,-78.28125 z m 109.375,1.84375 c 4.78314,23.1819 9.32333,46.82391 15.84375,66.53125 -5.30275,10.88866 10.90654,32.755 -6.96875,38.625 2.9402,-8.33051 1.8103,-21.28912 -7.125,-43.09375 10.19842,32.91846 5.94871,49.31666 -6.34375,56.53125 3.94422,-1.91854 7.56115,-4.2196 10.25,-7.5625 -4.15465,27.93582 -0.31715,75.68824 -19.3125,66.875 -4.89568,-16.73235 -10.11136,-44.58015 -11.375,-61.3125 0.39055,16.29673 4.26802,44.09133 8.6875,59.8125 -5.71216,8.15763 -10.7991,16.02022 -17.0625,22.03125 1.49184,-5.7339 2.55035,-11.72199 3.4375,-17.8125 15.85675,-23.02453 -14.48245,-31.94357 -26.40625,-47.8125 l 0.0937,-22.53125 c 5.70614,-4.50204 10.14201,-9.77691 13.875,-15.625 4.2773,14.97736 14.44776,31.92058 -3.84375,39.375 8.08517,-3.03954 19.55379,3.22799 9.65625,-49.90625 4.81444,-7.2282 4.87598,-16.7268 10.15625,-22.21875 -6.8565,16.42228 3.53989,29.09762 10.71875,42.46875 0.7434,3.14531 1.93562,6.14621 3.6875,8.9375 -6.47499,-21.17031 7.43439,-56.04109 11.78125,-79.46875 -4.31872,19.79467 -19.69968,47.50299 -15.8125,68.8125 -4.82035,-12.72817 -13.14705,-23.19622 -9,-42.0625 2.80977,-2.47442 6.22717,-4.33366 11.0625,-4.78125 6.56652,-9.82541 1.84,-11.35751 -2.5,-13.0625 9.57397,-5.92123 9.40986,-19.81075 12.46875,-31.0625 2.42127,-3.45556 3.04403,-7.72363 4.03125,-11.6875 z m -49,1.3125 c 2.06665,-0.057 3.63792,1.08578 4.84375,3.09375 3.01394,5.13997 8.51635,10.89886 8.875,15.375 -3.50051,-0.17767 -7.01099,-0.22792 -10.5,-0.5625 l 1.625,-6.4375 -3.625,6.4375 -4.0625,-0.1875 c -11.25072,1.11214 -19.59555,4.25871 -24.65625,9.65625 7.24159,-3.26945 12.2025,-7.6001 25.1875,-8.21875 6.12269,-0.25378 12.33072,0 18.21875,0 2.15156,2.06123 4.10704,4.12627 4.65625,6.1875 l -17.6875,1.3125 c -10.98018,2.45914 -15.59335,4.26492 -15,8.9375 1.52289,-4.82705 8.6719,-6.43664 16.78125,-7.5 l 16.0625,-1.5 c -6.9e-4,0.0213 10e-4,0.0412 0,0.0625 0.0157,-0.0191 0.0161,-0.0434 0.0312,-0.0625 8.00949,-0.70295 13.51384,6.70621 9.875,12.4375 -0.31277,0.39144 -0.57818,0.71553 -0.6875,0.9375 -0.005,0.005 -0.026,-0.005 -0.0312,0 -0.17351,0.0878 -0.35367,0.17446 -0.53125,0.25 l -20.96875,0.71875 20.90625,0.375 c 11.37959,2.42774 8.50535,7.41989 4.4375,12.65625 -10.58866,1.30018 -10.2157,4.54501 -13.375,7.15625 -7.24838,17.92224 -14.04173,34.81385 -28.90625,47.5 l -5.5,64.15625 c -18.31578,-13.26747 -38.24006,-25.69761 -38.75,-48.15625 3.70695,-13.0809 6.77861,-28.62659 13.34375,-38.3125 1.54762,-20.71429 -0.36435,-41.44196 4.625,-62.15625 4.92237,-8.46432 23.52418,-19.91478 30.53125,-22.6875 1.62069,-0.96607 3.04126,-1.43455 4.28125,-1.46875 z m -46.40625,7 c -0.69824,5.98369 1.96903,9.87084 11.32773,13.95019 l 4.1415,-3.51015 c -8.88237,0.11894 -13.80604,-5.24985 -15.46923,-10.44004 z m -35.46875,5.59375 c -2.8376,15.10737 0.82696,31.50299 1.8125,47.375 7.06453,24.43198 11.37423,47.89349 25.96875,61.28125 -4.16649,0.34657 -8.33351,5.13157 -12.5,25.75 -8.67983,11.45621 -13.82323,23.31081 -13.9375,35.71875 -14.24653,12.61905 -16.36895,25.25595 -22.84375,37.875 7.33854,-11.0699 11.42723,-22.8082 22.6875,-33.09375 1.37272,21.96455 0.21845,46.8293 13.03125,55.59375 -14.10246,-21.07143 -7.38733,-42.14732 -9.65625,-63.21875 -2.28512,-2.89266 7.02072,-27.28885 9.15625,-25.53125 -2.0167,8.6426 -1.45386,16.53649 6.5625,22.3125 -7.96916,-10.50014 -6.14743,-19.72136 -2.09375,-28.53125 2.26583,-5.14042 2.87845,-17.63028 9.15625,-25 -0.77955,2.6082 -1.1309,3.95328 -0.0625,6.375 1.49852,25.28879 43.05198,41.68956 59.78125,63.59375 4.89914,-3.82595 8.63655,-7.37881 11.40625,-10.65625 -2.96668,12.00357 -6.24363,23.94055 -13.1875,35.28125 -20.52648,25.41258 -41.41464,55.50047 -60.40625,60.1875 14.30183,-21.62846 8.61925,-43.24654 1.6875,-64.875 2.41378,24.76119 5.79569,48.88429 -7.5625,69.65625 -35.10736,50.50336 -52.96327,30.78791 -65.875,-2.8125 -5.84263,-4.9166 -2.9995,-37.69666 -2.125,-43.9375 -1.77557,12.82404 -8.27519,21.59674 -2.8125,40.625 -10.90488,-9.11818 -9.15195,-23.10442 -13.96875,-34.5625 -7.79168,-20.53487 -11.00848,-40.41426 -12.15625,-60 -9.14244,-11.30991 -5.75376,-24.90929 -6.0625,-37.84375 -1.37197,-24.14169 -16.18418,-42.91085 -3.9375,-72.5 3.7027,-9.68228 9.11729,-19.11062 16.5625,-16.28125 4.66019,-3.97847 9.54476,-7.95995 14.15625,-11.9375 3.81392,-4.00908 12.941,-7.35799 23.1875,-10.5625 2.38441,51.6959 18.89478,67.23109 34.0625,86.96875 -27.62036,-41.48976 -28.36125,-64.11924 -30.78125,-87.96875 7.11409,-6.59228 7.13448,-8.55744 14.96875,-10.65625 1.31373,14.19563 -1.41487,28.82256 11.03125,41.78125 -14.88993,-22.56604 -6.64191,-43.42793 -7.34375,-43.34375 0.75056,-2.35655 4.74443,-4.70323 12.09375,-7.0625 z m 125.40625,0.53125 c -2.95998,8.42442 -5.45888,19.55517 -10.6875,22.75 1.29606,-3.39992 -0.50148,-6.52432 -5.5625,-9.34375 5.01364,-3.56217 11.64315,-5.58177 16.25,-13.40625 z m -104.0625,1.75 c 4.80657,1.55254 7.3663,6.86767 10.90625,10.53125 1.93695,4.49526 3.82155,7.2982 9.2914,11.79346 -4.69748,7.30448 -8.29228,16.36933 -4.94765,24.05029 -3.67387,-5.45628 -4.61718,-10.91873 -5.0625,-16.375 -4.07835,-2.55758 -5.94348,-9.555 -7.6875,-16.78125 -1.19211,-4.11453 -8.48762,-10.79357 -2.5,-13.21875 z m 21.875,20.78125 c -0.94085,10.9444 -1.35938,21.6181 -1.75,32.5625 -8.04522,-9.74433 -5.15149,-20.67904 1.75,-32.5625 z m 173.25,29.375 c 15.46098,17.20605 -18.33492,65.79151 -37.875,84.34375 10.09372,4.11226 66.29396,-71.68068 37.875,-84.34375 z m -300.84375,23.78125 c -3.08797,14.09007 27.53083,18.73093 46.125,26.75 -17.8012,-8.16568 -39.47904,-15.15194 -46.125,-26.75 z m 245.28125,13.59375 c -0.63885,23.36748 -7.63769,60.45038 -0.84375,81.34375 -2.66282,33.7063 -13.1642,67.4187 -1.21875,101.125 -6.81915,-35.07969 0.56838,-65.7642 2.34375,-99.125 1.70402,5.14044 3.19822,7.52874 6.90625,10.21875 -15.99465,-23.37552 -7.01341,-65.66995 -7.1875,-93.5625 z m -191.78125,3.875 -1,0.375 c 3.31482,8.30647 5.81282,15.95815 7.625,23.0625 -1.75439,-1.09716 -3.41599,-1.54374 -5.21875,-1.46875 -8.15395,0.63487 -15.3069,12.61317 8.0625,15.40625 2.43281,16.53806 0.98882,29.98048 -1.875,42.28125 12.96027,-36.99979 2.40342,-52.45526 -7.59375,-79.65625 z m 1.3125,23.53125 c 1.49506,-0.0592 3.31585,0.13529 5.46875,0.625 1.01443,4.04426 1.80708,7.78794 2.40625,11.5 -13.21569,0.43378 -18.34045,-11.71041 -7.875,-12.125 z m 159.15625,2.125 c -2.76836,11.47252 -3.65462,44.38988 -8.34375,34.09375 7.80945,22.17934 5.90624,-20.46012 8.34375,-34.09375 z m -4.03125,0.28125 c -1.93558,6.31701 -2.50871,21.51388 -5.8125,18.9375 4.23868,13.81557 4.01362,-11.42423 5.8125,-18.9375 z m -51.3125,0.53125 c 9.041,12.60296 26.80112,19.58154 28.4375,33.15625 1.18515,6.29472 -1.28364,8.00101 -2.8125,10.84375 -2.39941,3.87486 -6.38035,8.07886 -12.4375,12.75 -4.71974,-5.33605 -10.59187,-10.07905 -16.78125,-14.65625 z m 129.5625,37.875 c -0.79961,0.0308 -1.7247,0.13264 -2.8125,0.3125 10.03527,1.17284 -6.22041,15.48223 -11.4375,24.28125 7.24525,-9.48953 26.24413,-25.05562 14.25,-24.59375 z m 19.09375,13.71875 c -5.63417,0.27428 -17.76972,13.68832 -25.75,19.875 20.96715,-14.15738 37.0435,-28.85129 18.125,2.09375 2.87818,0.87932 16.86943,-22.28105 7.625,-21.96875 z m -87.25,0.90625 c -10.62953,29.69915 -6.62274,57.95248 8.875,64.1875 -10.55134,-5.66968 -16.43059,-35.15426 -8.875,-64.1875 z m -18.1875,15.65625 c 0.1515,17.10515 1.34255,53.46481 -1,60.59375 -10.12969,5.68704 -15.12462,-11.45681 -17.1875,-27.28125 0.45512,19.54998 7.9827,30.26212 19.1875,36.375 6.79948,3.39974 8.28116,-59.99615 -1,-69.6875 z m 59.59375,5.03125 c 7.21666,29.93444 59.11566,82.7503 32.34375,95.96875 31.69941,-6.34346 -2.32283,-52.27231 -32.34375,-95.96875 z m -51.5,40.40625 c 8.19019,19.50161 -5.02507,50.33275 34.34375,62.625 -32.07901,-19.06962 -26.27587,-43.50098 -34.34375,-62.625 z m -51.53125,20.21875 c 13.41059,23.51795 -9.79642,31.76139 -27.28125,42.40625 19.27059,-9.35192 51.15282,-12.75214 27.28125,-42.40625 z m 143.78125,42.8125 c 12.58202,0.0874 21.42465,14.59977 28.6875,33.5 5.84263,4.9166 2.9995,37.69666 2.125,43.9375 1.77557,-12.82404 8.27519,-21.59674 2.8125,-40.625 10.90488,9.11818 9.15195,23.10442 13.96875,34.5625 7.79168,20.53486 11.00848,40.41426 12.15625,60 9.14244,11.30991 5.75376,24.90929 6.0625,37.84375 1.37197,24.1417 16.18417,42.91085 3.9375,72.5 -3.7027,9.68228 -9.11729,19.11062 -16.5625,16.28125 -4.66019,3.97847 -9.54476,7.95995 -14.15625,11.9375 -3.81392,4.00908 -12.941,7.35799 -23.1875,10.5625 -2.38441,-51.6959 -18.89478,-67.23109 -34.0625,-86.96875 27.62036,41.48976 28.36125,64.11924 30.78125,87.96875 -7.11409,6.59228 -7.13448,8.55744 -14.96875,10.65625 -1.31373,-14.19563 1.41487,-28.82256 -11.03125,-41.78125 14.88993,22.56604 6.64191,43.42793 7.34375,43.34375 -0.75056,2.35655 -4.74443,4.70323 -12.09375,7.0625 2.8376,-15.10737 -0.82696,-31.50299 -1.8125,-47.375 -7.06453,-24.43198 -11.37423,-47.89349 -25.96875,-61.28125 4.16649,-0.34657 8.33351,-5.13156 12.5,-25.75 8.67983,-11.45621 13.82323,-23.31081 13.9375,-35.71875 14.24653,-12.61905 16.36895,-25.25595 22.84375,-37.875 -7.33854,11.0699 -11.42723,22.8082 -22.6875,33.09375 -1.37272,-21.96455 -0.21845,-46.8293 -13.03125,-55.59375 14.10246,21.07142 7.38733,42.14732 9.65625,63.21875 2.28512,2.89266 -7.02072,27.28885 -9.15625,25.53125 2.0167,-8.6426 1.45386,-16.53649 -6.5625,-22.3125 7.96916,10.50014 6.14743,19.72136 2.09375,28.53125 -2.26583,5.14042 -2.87845,17.63028 -9.15625,25 0.77955,-2.6082 1.1309,-3.95328 0.0625,-6.375 -1.49852,-25.2888 -43.05198,-41.68956 -59.78125,-63.59375 -4.89914,3.82595 -8.63655,7.37881 -11.40625,10.65625 2.96668,-12.00357 6.24363,-23.94055 13.1875,-35.28125 20.52648,-25.41257 41.41464,-55.50047 60.40625,-60.1875 -14.30183,21.62846 -8.61925,43.24655 -1.6875,64.875 -2.41378,-24.76118 -5.79569,-48.88429 7.5625,-69.65625 15.35947,-22.09522 27.40149,-30.75551 37.1875,-30.6875 z m -178.09375,4.40625 c 32.07901,19.06962 26.27587,43.50098 34.34375,62.625 -8.19019,-19.50161 5.02507,-50.33275 -34.34375,-62.625 z m 113.15625,0 c -19.27059,9.35192 -51.15282,12.75214 -27.28125,42.40625 -13.41059,-23.51795 9.79642,-31.76139 27.28125,-42.40625 z m -162.65625,7.0625 c -31.69941,6.34346 2.32283,52.27232 32.34375,95.96875 -7.21666,-29.93443 -59.11566,-82.7503 -32.34375,-95.96875 z m 50.5625,17.03125 c 6.81915,35.07969 -0.56838,65.7642 -2.34375,99.125 -1.70402,-5.14044 -3.19822,-7.52874 -6.90625,-10.21875 15.99465,23.37552 7.01341,65.66995 7.1875,93.5625 0.63885,-23.36748 7.63769,-60.45038 0.84375,-81.34375 2.66282,-33.7063 13.1642,-67.4187 1.21875,-101.125 z m 39.75,14.15625 c -6.25987,0.63677 -7.36612,60.424 1.625,69.8125 -0.1515,-17.10515 -1.34255,-53.46481 1,-60.59375 10.12969,-5.68704 15.12462,11.45681 17.1875,27.28125 -0.45512,-19.54998 -7.9827,-30.26212 -19.1875,-36.375 -0.21248,-0.10624 -0.42307,-0.14554 -0.625,-0.125 z m -25.4375,21.28125 c 10.55134,5.66968 16.43059,35.15426 8.875,64.1875 10.62953,-29.69915 6.62274,-57.95248 -8.875,-64.1875 z m -71.0625,43.09375 c -3.4286,0.55874 -16.26804,22.30254 -7.3125,22 5.63417,-0.27428 17.76972,-13.68832 25.75,-19.875 -20.96715,14.15738 -37.0435,28.85129 -18.125,-2.09375 -0.0899,-0.0275 -0.2019,-0.0493 -0.3125,-0.0312 z m 118.125,9.21875 c -1.49184,5.7339 -2.55035,11.72199 -3.4375,17.8125 -15.85675,23.02453 14.48245,31.94356 26.40625,47.8125 l -0.0937,22.53125 c -5.70614,4.50204 -10.14201,9.77691 -13.875,15.625 -4.2773,-14.97736 -14.44776,-31.92058 3.84375,-39.375 -8.08517,3.03954 -19.55379,-3.22799 -9.65625,49.90625 -4.81444,7.2282 -4.87598,16.7268 -10.15625,22.21875 6.8565,-16.42228 -3.53989,-29.09762 -10.71875,-42.46875 -0.7434,-3.14531 -1.93562,-6.14621 -3.6875,-8.9375 6.64712,21.73309 -8.24025,57.93787 -12.15625,81.34375 3.68925,-19.89187 20.20007,-48.69059 16.1875,-70.6875 4.82035,12.72817 13.14705,23.19622 9,42.0625 -2.80977,2.47442 -6.22717,4.33366 -11.0625,4.78125 -6.56652,9.82541 -1.84,11.35751 2.5,13.0625 -9.57397,5.92123 -9.40986,19.81075 -12.46875,31.0625 -2.42127,3.45556 -3.04403,7.72363 -4.03125,11.6875 -4.78314,-23.1819 -9.32333,-46.82391 -15.84375,-66.53125 5.30275,-10.88866 -10.90654,-32.755 6.96875,-38.625 -2.9402,8.33051 -1.8103,21.28912 7.125,43.09375 -10.19842,-32.91846 -5.94871,-49.31666 6.34375,-56.53125 -3.94422,1.91854 -7.56115,4.2196 -10.25,7.5625 4.15465,-27.93582 0.31715,-75.68824 19.3125,-66.875 4.89568,16.73235 10.11136,44.58015 11.375,61.3125 -0.39055,-16.29673 -4.26802,-44.09133 -8.6875,-59.8125 5.71216,-8.15763 10.7991,-16.02022 17.0625,-22.03125 z m -92.09375,1.90625 c -7.24525,9.48953 -26.24413,25.05562 -14.25,24.59375 0.79961,-0.0308 1.7247,-0.13264 2.8125,-0.3125 -10.03527,-1.17284 6.22041,-15.48223 11.4375,-24.28125 z m 102.125,5.71875 c 4.71974,5.33605 10.59187,10.07905 16.78125,14.65625 l -3.59375,42.09375 c -9.041,-12.60297 -26.80112,-19.58154 -28.4375,-33.15625 -1.18515,-6.29472 1.28364,-8.00101 2.8125,-10.84375 2.39941,-3.87486 6.38035,-8.07886 12.4375,-12.75 z m 110.71875,3.5625 c -12.96027,36.99979 -2.40342,52.45526 7.59375,79.65625 l 1,-0.375 c -3.31482,-8.30647 -5.81282,-15.95815 -7.625,-23.0625 1.75439,1.09716 3.41599,1.54374 5.21875,1.46875 8.15395,-0.63487 15.3069,-12.61316 -8.0625,-15.40625 -2.43281,-16.53806 -0.98882,-29.98048 1.875,-42.28125 z m -91.125,13.15625 c 18.31578,13.26747 38.24006,25.6976 38.75,48.15625 -3.70695,13.0809 -6.77861,28.62659 -13.34375,38.3125 -1.54762,20.71429 0.36435,41.44196 -4.625,62.15625 -4.92237,8.46432 -23.52418,19.91478 -30.53125,22.6875 -1.62069,0.96607 -3.04126,1.43455 -4.28125,1.46875 -2.06665,0.057 -3.63792,-1.08578 -4.84375,-3.09375 -3.01394,-5.13997 -8.51635,-10.89886 -8.875,-15.375 3.50051,0.17767 7.01099,0.22792 10.5,0.5625 l -1.625,6.4375 3.625,-6.4375 4.0625,0.1875 c 11.25072,-1.11214 19.59555,-4.25871 24.65625,-9.65625 -7.24159,3.26945 -12.2025,7.6001 -25.1875,8.21875 -6.12269,0.25378 -12.33072,0 -18.21875,0 -2.15156,-2.06123 -4.10704,-4.12627 -4.65625,-6.1875 l 17.6875,-1.3125 c 10.98018,-2.45914 15.59335,-4.26492 15,-8.9375 -1.52289,4.82705 -8.6719,6.43664 -16.78125,7.5 l -16.0625,1.5 c 6.9e-4,-0.0213 -0.001,-0.0412 0,-0.0625 -0.0157,0.0191 -0.0161,0.0434 -0.0312,0.0625 -8.00949,0.70295 -13.51384,-6.70621 -9.875,-12.4375 0.31277,-0.39144 0.57818,-0.71553 0.6875,-0.9375 0.005,-0.005 0.026,0.005 0.0312,0 0.17351,-0.0878 0.35367,-0.17446 0.53125,-0.25 l 20.96875,-0.71875 -20.90625,-0.375 c -11.37959,-2.42774 -8.50535,-7.41989 -4.4375,-12.65625 10.58866,-1.30018 10.2157,-4.54501 13.375,-7.15625 7.24838,-17.92224 14.04173,-34.81385 28.90625,-47.5 z m -57.09375,0.46875 c -3.54093,0.22481 -2.71386,29.51069 -4.65625,40.375 2.76836,-11.47253 3.65462,-44.38988 8.34375,-34.09375 -1.58629,-4.50518 -2.78491,-6.33855 -3.6875,-6.28125 z m 2.96875,17.09375 c -2.02831,0.43286 -2.18837,17.13026 -3.59375,23 1.93558,-6.31701 2.50871,-21.51388 5.8125,-18.9375 -0.92721,-3.02216 -1.65082,-4.1837 -2.21875,-4.0625 z m -57.71875,5.6875 c -12.44622,0.71894 -64.31212,72.23265 -36.78125,84.5 -15.46098,-17.20605 18.33492,-65.7915 37.875,-84.34375 -0.31543,-0.12851 -0.69226,-0.17944 -1.09375,-0.15625 z m 201.375,7.59375 c 15.10365,-0.49575 19.62948,15.41772 2.40625,11.5 -1.01443,-4.04426 -1.80708,-7.78794 -2.40625,-11.5 z m 16.5625,26.375 c 17.8012,8.16568 39.47904,15.15194 46.125,26.75 3.08797,-14.09007 -27.53083,-18.73093 -46.125,-26.75 z m -64.8125,40.4375 c 4.87404,26.09561 29.0966,52.18564 5.0625,78.28125 25.43718,-15.2473 8.60743,-47.39111 -5.0625,-78.28125 z m -14.90625,6.90625 c 8.04522,9.74433 5.15149,20.67904 -1.75,32.5625 0.94085,-10.9444 1.35938,-21.6181 1.75,-32.5625 z m 4.875,6.96875 c 3.67387,5.45628 4.61718,10.91873 5.0625,16.375 4.07835,2.55758 5.94348,9.555 7.6875,16.78125 1.19211,4.11453 8.48762,10.79357 2.5,13.21875 -4.80657,-1.55254 -7.3663,-6.86767 -10.90625,-10.53125 -1.93695,-4.49526 -4.0614,-5.62081 -9.53125,-10.11607 4.69748,-7.30448 8.53213,-18.04672 5.1875,-25.72768 z m -78.125,25.375 c -1.29606,3.39992 0.50148,6.52432 5.5625,9.34375 -5.01364,3.56217 -11.64315,5.58177 -16.25,13.40625 2.95998,-8.42442 5.45888,-19.55517 10.6875,-22.75 z m 74.46429,5.46875 c 9.21988,5.4239 11.27019,15.1068 14.44196,23.21875 3.20721,15.25498 9.15249,31.0357 9.34375,45.6875 -3.93363,13.6371 -3.48865,27.26915 -3.53125,40.90625 1.2934,-13.2899 1.76622,-27.02395 5.5625,-40.90625 -0.39085,-15.7415 -7.03646,-31.47721 -10.59375,-47.21875 -3.84187,-9.68795 -6.66779,-18.73318 -15.22321,-21.6875 z m -6.63393,9.82589 -2.5,2.5 c 1.30794,-1.30794 12.25645,5.89017 13.91964,11.08036 0.69824,-5.98369 -2.06094,-9.50101 -11.41964,-13.58036 z m -28.04911,34.36161 c -7.75525,0.39605 -9.05282,6.9015 -3.96875,19.40625 0.1186,-8.9552 -9.23675,-24.19799 13.40625,-16.65625 -4.08956,1.5623 -4.05298,3.5743 -2.875,6.25 -1.13416,-5.0592 3.61752,-5.60515 3.65625,-6.09375 4.36119,-0.9277 9.65384,-3.60346 15.90625,1.0625 1.09621,2.6327 2.16243,5.36345 2.4375,9.65625 1.48913,-2.7457 0.91965,-5.79915 -0.78125,-9.03125 17.1745,-1.6598 6.69614,15.5996 2.46875,16.0625 7.65168,-0.6064 16.45442,-17.50735 -2.8125,-17.78125 -5.63919,-4.59967 -11.59231,-2.50545 -17.53125,-1.21875 -4.02513,-1.22383 -7.32117,-1.78827 -9.90625,-1.65625 z m -65.90625,15.28125 c -0.8458,0.0371 -1.63867,0.70015 -2.375,1.875 1.69643,-1.7966 3.39732,-1.28 5.09375,0 -0.97424,-1.3233 -1.87295,-1.91211 -2.71875,-1.875 z m 2.34375,5.4375 c -0.72843,-0.0262 -1.72162,0.6694 -2.84375,1.6875 4.59264,-1.7908 3.07538,-0.12195 2.84375,0.71875 -6.43441,3.5601 -0.34946,8.97505 0,13.59375 0.0745,-4.5644 -5.77051,-11.15255 1.25,-13.40625 -0.0579,-1.8198 -0.52157,-2.5676 -1.25,-2.59375 z m -6.40625,1.28125 c -1.98055,-0.031 -13.54418,15.31454 -13.0625,20.96875 3.30787,-8.3354 8.01622,-14.93925 13.21875,-20.90625 -0.0432,-0.0338 -0.0924,-0.0615 -0.15625,-0.0625 z m 49.1875,13.53125 c -4.9693,0.10405 -9.64867,1.57035 -11.28125,3.96875 3.92696,-3.5429 19.01458,-4.73215 24.3125,0.21875 -2.80273,-3.0333 -8.06195,-4.29155 -13.03125,-4.1875 z m 2.84375,1.71875 c -2.94303,0.043 -5.82234,2.18275 -6.40625,5.15625 -2.21599,0.24563 -4.25976,-0.76587 -6.32265,-1.13261 3.70386,2.23154 11.34058,5.0214 18.07265,4.91386 2.244,-0.0359 5.0833,-0.13246 6.68115,-2.38769 -1.69076,0.76364 -3.44722,1.13308 -5.30615,0.88769 -0.76897,-5.427 -3.77572,-7.48055 -6.71875,-7.4375 z m -49.90625,3.125 c -5.74616,5.7416 -11.53003,11.6214 -15.1875,6.6875 0.91651,1.9967 2.07419,2.8072 3.375,2.8125 3.3243,0.014 7.66283,-5.2367 11.8125,-9.5 z m 108.34375,1.15625 c -3.17366,0.17246 -7.09976,1.21462 -11.8125,3.15625 8.98702,-2.931 16.16264,-3.2142 20.4375,0.25 -1.70462,-2.42623 -4.54458,-3.62799 -8.625,-3.40625 z m -78.375,0.625 c 6.28632,3.6694 13.1164,6.6631 22.21875,6.8125 1.30034,0.021 2.66438,-0.024 4.0625,-0.125 -8.75465,-0.2335 -17.5266,-2.4135 -26.28125,-6.6875 z m 79.375,0.625 c -2.68836,-0.003 -5.27198,1.80385 -5.625,5.3125 l -10.84375,-2.78125 c 5.67731,3.9979 10.83177,5.8191 15.59375,5.8125 3.70376,0 7.16828,-1.11325 10.40625,-3.15625 l -3.28125,0.375 c -0.76854,-3.74835 -3.56164,-5.55993 -6.25,-5.5625 z m -83.09375,4.75 c 4.71093,4.5374 4.34025,12.1448 18.40625,14.1875 4.93882,-0.011 10.93497,0.68725 15.84375,0.65625 3.81794,-0.024 6.98022,-0.49585 8.4375,-2.09375 1.48395,-4.6226 3.10867,-9.3143 -3.9375,-10 -7.45235,0.8333 -9.48099,1.6667 -13.21875,2.5 -9.92209,3.3994 -19.3879,-0.989 -25.53125,-5.25 z m 63.21875,1.1875 c -4.26778,0.04 -5.33693,2.49855 -1.53125,8.59375 0.41607,2.1903 13.7782,10.35805 24.09375,10.46875 4.03652,0.043 7.59911,-1.13715 9.75,-4.40625 0.24414,-2.6938 1.57799,-5.39995 0,-8.09375 -5.92533,11.8644 -20.04406,1.7396 -32.3125,-6.5625 z"
       id="path3028"
       inkscape:connector-curvature="0"
       sodipodi:nodetypes="scccccccccccccccccccccccccccccccccccccccccccccccccccccccccccccccccccccccccccccccccccccccccscccccccsccccccccccccccccccccccccccccscccccccsccccccccccccccccccccccccccccccccccccccccccccccccccccccccccccccccsccccsccccccccccccccccccccsccsscccssccccscccccccccccccccccccccccccccccccscccccccccccccccccccccccccsccccccccccccccccccccccccccccccscccccccccccccccccccccccccccccccccccccccccccccccccccccccccccccccccccscccccsccscccccccccccccccccccccccccccccccccccscscccccccccccccccccccccccccccccccccccsccccccccccsccccsccccsccccccccccccccccccccccccccccccccccccccccccccccccccccccccsccccccccccccccccccccccccccscccscccscccccccccccccccccccccccccccccccccccccsccccccccccsscccsccccsscccscccscccccsccccscccccccscccccscccccccccccccccc" />
  </g>
</svg>
