<?xml version="1.0" encoding="UTF-8" standalone="no"?>
<!-- Created with Inkscape (http://www.inkscape.org/) -->

<svg
   xmlns:dc="http://purl.org/dc/elements/1.1/"
   xmlns:cc="http://creativecommons.org/ns#"
   xmlns:rdf="http://www.w3.org/1999/02/22-rdf-syntax-ns#"
   xmlns:svg="http://www.w3.org/2000/svg"
   xmlns="http://www.w3.org/2000/svg"
   xmlns:sodipodi="http://sodipodi.sourceforge.net/DTD/sodipodi-0.dtd"
   xmlns:inkscape="http://www.inkscape.org/namespaces/inkscape"
   id="svg6400"
   version="1.1"
   inkscape:version="0.48.4 r9939"
   width="266"
   height="400"
   sodipodi:docname="RefRobust.jpg">
  <metadata
     id="metadata6406">
    <rdf:RDF>
      <cc:Work
         rdf:about="">
        <dc:format>image/svg+xml</dc:format>
        <dc:type
           rdf:resource="http://purl.org/dc/dcmitype/StillImage" />
        <dc:title></dc:title>
      </cc:Work>
    </rdf:RDF>
  </metadata>
  <defs
     id="defs6404" />
  <sodipodi:namedview
     pagecolor="#ffffff"
     bordercolor="#666666"
     borderopacity="1"
     objecttolerance="10"
     gridtolerance="10"
     guidetolerance="10"
     inkscape:pageopacity="0"
     inkscape:pageshadow="2"
     inkscape:window-width="1004"
     inkscape:window-height="737"
     id="namedview6402"
     showgrid="false"
     showguides="true"
     inkscape:guide-bbox="true"
     inkscape:zoom="1.125"
     inkscape:cx="115.31729"
     inkscape:cy="234.82962"
     inkscape:window-x="83"
     inkscape:window-y="22"
     inkscape:window-maximized="0"
     inkscape:current-layer="svg6400" />
  <path
     style="fill:#985a2f;fill-opacity:1;stroke:none"
     d="m 121.58561,14.38811 c -1.97336,0.01704 -3.76409,0.321466 -4.95423,1.513348 -8.62746,5.268058 -6.49552,9.005982 -6.6428,13.062585 l 0.23895,4.317025 c -1.23306,7.856477 -0.80062,14.767865 0.9558,20.916066 0.85035,1.793315 2.00043,3.547874 4.33296,5.129454 0.0191,2.766658 0.37816,5.591097 1.67264,8.57033 l -11.29435,8.076501 c -4.47832,1.182152 -9.41721,1.903686 -13.12631,3.855055 -10.80024,6.921238 -11.261154,17.504644 -12.090856,27.957126 -3.664927,6.91109 -10.114343,13.23113 -10.179258,20.90013 -1.320027,5.60166 -2.78737,11.35095 -2.246127,19.22749 1.165056,2.60916 1.101274,7.88203 8.01278,7.20035 7.771725,5.22234 15.273617,4.53672 22.748014,3.21786 1.809547,5.4685 0.854492,8.26849 0.875372,12.24644 4.423645,4.91003 10.919405,8.9387 16.902485,9.21124 9.92831,0.42013 19.75515,2.03192 29.9643,-0.6372 7.25043,-2.46848 10.71092,-11.14615 15.40429,-16.1717 -1.46009,-0.95626 -3.582,-1.83711 -3.85227,-3.09082 1.00413,-4.01118 0.59713,-6.33165 0.45918,-8.13705 1.46378,-3.92901 4.20163,-6.8033 6.8021,-10.08367 7.59899,-9.58578 7.09536,-19.33853 9.22346,-26.92167 2.95273,-3.51504 2.82442,-10.62121 4.15773,-16.025568 -1.30173,-5.000102 1.29306,-8.949438 -8.33138,-16.168931 -4.70842,-6.877404 -11.90114,-13.220483 -23.54452,-18.590289 l -3.60017,-5.320613 c 0.6199,-3.917829 -0.25774,-7.68617 -1.13103,-12.457246 0.93891,0.760576 4.0387,-3.010681 4.25331,-8.012781 -0.0538,-2.194357 1.04016,-5.472284 -3.04263,-3.839125 l -1.36997,0.557549 -1.19475,-11.453657 c -0.37072,-4.967803 -3.97575,-8.319011 -13.30154,-8.80928 -1.97035,0.02156 -4.12782,-0.255993 -6.10118,-0.238949 z m -6.89768,18.462848 c 0.63797,-0.03209 1.34309,0.07128 2.23019,0.50976 0.53525,0.154451 0.75826,0.665733 0.92394,1.242538 -0.34404,0.306979 -0.63819,0.415214 -0.90801,0.44604 -0.96111,0.08946 -1.85849,0.07342 -2.8196,-0.04779 -0.62752,-0.219087 -1.24313,-0.44769 -1.60893,-0.876149 0.12439,-0.634689 0.47827,-1.014391 1.08324,-1.115099 0.35593,-0.06998 0.71638,-0.140045 1.09917,-0.1593 z m 12.82363,0.1593 c 0.89401,-0.635845 2.34894,-0.262036 3.75948,0.03186 l 1.1474,0.46197 c 0.15429,0.167209 0.50625,0.309709 0.27037,0.525689 -0.22274,0.412644 -0.73681,0.582511 -1.2744,0.732779 -2.47093,0.538717 -4.40299,0.02813 -5.44806,-0.28674 -0.17982,-0.223019 0.17685,-0.446039 0.33453,-0.669059 0.044,-0.265499 0.72285,-0.530999 1.21068,-0.796499 z"
     id="path7100"
     inkscape:connector-curvature="0"
     sodipodi:nodetypes="scccccccccccccccccccscccccccccccssccccccscccccccc" />
  <path
     style="fill:#1b4359;fill-opacity:1;stroke:none"
     d="m 93.607803,200.48311 c -0.359557,-5.71266 2.115776,-30.22384 6.316187,-32.37332 l 8.82444,5.59763 c 12.23423,3.87337 24.46845,1.86257 36.70268,1.58592 6.4493,-3.21724 11.55136,-7.78173 16.08574,-12.9139 0.56761,-0.95255 2.33982,0.4815 2.61113,1.95894 l 0.10758,3.02537 c 2.53897,10.80297 7.84254,19.76286 5.75784,33.64827 z"
     id="path7138"
     inkscape:connector-curvature="0"
     sodipodi:nodetypes="ccccccccc" />
  <path
     style="fill:#000000;fill-opacity:1;stroke:none"
     d="m 125.47252,10.787933 c -2.88969,0.06326 -5.74751,0.917337 -8.37917,3.934706 -5.90578,3.381756 -7.08465,6.915024 -7.51895,10.163328 0.0642,2.863088 0.3759,6.851422 0.25488,8.85707 -0.89524,1.149419 -0.7241,14.65309 0.23895,17.85751 0.76998,3.392702 1.37345,4.751976 5.70294,8.47475 3.59469,1.532255 7.72696,0.397551 11.23063,-0.25488 3.73989,-1.381631 7.70413,-2.428333 11.00762,-4.508185 1.61897,-0.46508 2.05931,-5.931795 3.07449,-8.984509 -1.16972,2.810573 -2.41947,8.279117 -3.32937,8.53847 -2.56374,2.206065 -7.26548,3.194958 -11.24657,4.603765 -4.12307,1.175158 -7.7554,1.363056 -10.64122,0.06372 -4.90216,-4.787345 -4.67091,-6.317818 -5.28876,-8.140221 -1.01694,-6.489758 -1.2977,-15.762907 0.0159,-17.57077 -0.0147,-0.895554 -0.0411,-1.823716 -0.0797,-2.739957 0.40622,-0.575424 0.8039,-1.148964 1.87974,-1.306258 1.33864,-0.341585 2.36915,0.308094 3.44088,0.844289 4.16569,-0.367227 1.23412,-2.295392 0.33453,-2.819607 -1.16184,-0.323034 -2.29804,-0.341583 -3.40902,-0.11151 -0.86726,0.31974 -1.85275,0.527334 -2.35764,1.178819 -0.0655,-1.137108 -0.14086,-2.268079 -0.22302,-3.377156 0.889,-7.595777 4.81465,-6.946361 7.37558,-10.004029 4.83992,-1.202105 5.2286,-0.290835 14.40071,0.796499 3.21104,0.945245 6.04263,2.812737 8.04464,6.579083 0.77355,1.455268 1.34351,8.434106 1.49742,13.030725 0.3667,0.548207 1.03224,-0.716387 2.15054,-1.401839 1.32122,-0.80983 3.09165,-0.912134 2.91519,2.309848 -0.35885,2.296128 -0.4559,5.291873 -1.4337,5.973743 -1.65401,4.154469 -2.09549,2.461332 -3.02669,3.122276 0.59852,4.735613 1.32577,9.563412 0.62126,13.126305 1.75647,1.990809 0.94302,3.488564 6.75432,6.929542 7.35357,5.062039 15.9649,8.684409 20.7249,16.710551 3.67726,3.244053 7.98919,5.048881 8.18801,16.280441 -1.29055,5.230168 -1.96842,14.386948 -4.4126,15.483948 -1.69128,12.29079 -3.7644,21.15749 -9.33497,27.86154 -4.10813,5.9632 -8.33363,11.81421 -13.63607,16.58311 -4.1751,6.91598 -10.07564,7.40448 -17.07693,3.82319 -8.39798,-0.42493 -16.25544,-3.45216 -23.84719,-7.77383 -5.90752,-4.02199 -9.80329,-11.14747 -14.352887,-17.2681 -2.123554,-0.89828 -4.372684,-3.59384 -6.371993,-2.62845 2.437455,0.0313 3.998145,2.01588 5.957813,3.12228 4.382055,5.76232 6.523827,11.39068 14.544077,17.39554 6.88908,5.94971 15.63693,6.51917 24.0702,7.96499 5.41862,1.44598 10.23453,5.687 18.08053,-4.23737 2.56869,-2.43713 4.58945,-4.86813 6.43571,-7.31187 1.00375,4.08762 -0.0108,3.94033 -0.31541,8.02794 0.88126,1.10125 1.76312,2.0949 2.64438,2.0709 -0.3512,-0.65763 -0.70881,-1.27511 -1.74395,-2.72295 0.37497,-2.47382 1.04995,-3.46392 -0.0977,-7.70609 2.27129,-3.00768 3.80517,-5.71599 6.1714,-8.78175 3.89874,-3.77956 8.04698,-16.85035 9.74915,-27.63851 2.64506,-2.5507 3.07125,-10.44238 4.23738,-16.567187 -1.01744,-0.536624 2.80742,-8.162549 -8.17208,-16.264512 -4.36968,-7.282718 -12.77672,-11.992304 -20.78863,-16.93357 -3.80585,-1.929547 -5.05489,-4.648389 -6.81803,-7.216282 0.29085,-4.056798 -0.0814,-8.007906 -0.58941,-11.931556 0.81949,0.113008 1.64381,0.15228 3.12228,-3.424946 0.38808,-1.456905 0.70114,-0.361443 1.21067,-6.069323 -0.0381,-1.411585 0.31957,-3.104248 -1.51334,-3.233787 0.95324,-3.853619 0.0771,-7.850729 -0.81243,-11.835976 -1.71455,-4.879042 -6.96626,-7.662836 -12.52096,-10.290768 -2.21768,-0.272567 -4.49085,-0.702334 -6.73839,-0.65313 z m 2.75589,16.471602 c -0.73095,0.03418 -1.4184,0.197337 -2.58066,0.493829 -1.04718,0.501184 -1.58998,1.184305 -0.89207,2.341707 0.40796,0.02177 0.82957,0.03818 4.71527,-1.465558 1.13891,-0.197126 3.49285,0.667428 5.51177,1.258469 0.99273,-0.0044 0.3307,-0.423255 0.12744,-0.732779 -1.0366,-0.512025 -1.61687,-1.192091 -4.07807,-1.720438 -1.29548,-0.133318 -2.07273,-0.209409 -2.80368,-0.17523 z m 0.7965,3.743545 c -0.57758,0.0059 -1.13483,0.06607 -1.68858,0.19116 -1.1517,0.870286 -1.503,2.075542 -1.41777,2.373567 0.28358,-0.774388 0.66728,-1.704281 1.51335,-2.150547 1.15516,-0.217019 2.31758,-0.258046 3.47274,0.04779 l 1.03545,0.525689 c -0.24279,-0.260074 -0.44406,-0.506343 -1.14696,-0.812429 -0.60139,-0.11309 -1.19064,-0.181162 -1.76823,-0.17523 z m -13.82722,0.19116 c -1.40633,0.01529 -2.30336,0.30839 -2.67624,0.892079 0.80132,-0.295449 0.45118,-0.892829 3.32937,-0.669059 1.30717,0.193957 1.26296,1.030074 1.89566,1.545208 -0.32143,-0.835617 -0.85207,-1.502958 -1.91159,-1.768228 -0.22169,-0.0092 -0.4363,-0.0022 -0.6372,0 z m 13.71571,1.306259 c -1.36118,-0.02902 -1.94592,0.609007 -2.89926,1.385908 -0.12939,0.348168 -0.3133,0.736987 0.0637,0.716849 1.35817,0.42923 5.92899,1.013082 6.75432,-0.637199 0.0451,-0.143571 -0.13679,-0.350732 -0.39825,-0.573479 -1.61295,-0.609507 -2.70381,-0.874665 -3.52053,-0.892079 z m -14.03431,0.191159 c -0.45661,0.0075 -0.90388,0.0792 -1.36998,0.19116 -0.32477,0.215527 -0.71838,0.128836 -0.9558,0.955799 -0.0513,0.188746 -0.40266,0.146797 0.1593,0.573479 0.0971,0.202451 0.73788,0.402889 1.29033,0.60534 0.98715,0.171882 1.99301,0.285068 3.07448,0.07965 0.30117,-0.152516 0.73895,-0.200144 0.78057,-0.52569 -0.0994,-0.373748 -0.0201,-0.70494 -0.74871,-1.258468 -0.71758,-0.465126 -1.4692,-0.63371 -2.23019,-0.62127 z m -1.24254,0.36639 c 0.39903,2.905921 3.69677,1.782579 3.36122,0.39825 0.0205,0.01189 0.0611,0.01984 0.0797,0.03186 0.50215,0.381486 0.505,0.777864 0.57348,1.035448 -0.0287,0.224363 -0.42963,0.340928 -0.6372,0.44604 -0.74533,0.141572 -2.23485,0.03881 -2.91518,-0.07965 -0.38075,-0.139527 -1.11187,-0.386162 -1.17882,-0.525689 -0.51856,-0.245543 -0.29049,-0.294533 -0.25488,-0.43011 0.16363,-0.569935 0.68418,-0.71168 0.90801,-0.860219 0.0145,-0.0035 0.0481,-0.01243 0.0637,-0.01593 z m 13.82722,0.06372 c 0.004,-0.002 0.0122,0.002 0.0159,0 0.8869,2.790485 3.6495,1.267193 3.56832,0 0.44407,0.124758 0.85963,0.255685 1.19475,0.38232 0.18026,0.133166 0.44158,0.172768 0.44604,0.525689 -0.72278,1.299745 -5.76291,0.744207 -6.48351,0.430109 -0.51408,0.02059 -0.0694,-0.38123 0.11151,-0.621269 0.24325,-0.198232 0.69359,-0.474603 1.14696,-0.716849 z m 17.39554,2.134618 c -0.2716,0.0272 -0.61053,0.236143 -0.98766,0.637199 0.95613,-0.811759 1.62095,-0.593027 1.81602,1.354048 0.0711,-1.273934 -0.23084,-2.051093 -0.82836,-1.991247 z m -1.65672,2.405427 c -0.34208,0.01189 -0.4368,0.207782 -0.23895,0.605339 0.28631,0.452043 0.57391,0.793156 0.86022,1.624858 0.87202,0.665373 -0.50514,1.29148 -1.21068,2.309848 0.38372,0.129283 0.46518,0.924739 1.46556,-0.30267 0.39437,-0.251291 0.78524,-0.420435 1.21068,-2.166478 -0.28615,-1.158986 -0.70226,-2.067034 -1.65672,-2.023107 -0.1698,-0.03588 -0.31608,-0.05176 -0.43011,-0.04779 z m -18.74958,2.469147 c -0.0692,0.0158 -0.16002,0.04618 -0.3186,0.07965 0.87692,0.134617 1.35868,0.392385 1.87973,1.274398 2.63088,2.57764 -0.43674,2.615725 -1.41776,3.249717 l 0.65312,0.03186 c 0.67734,-0.0093 3.19128,-0.589452 1.30626,-3.217857 -0.59902,-0.656596 -0.82672,-0.924503 -1.30626,-1.162888 -0.41126,-0.152638 -0.54142,-0.232094 -0.63719,-0.25488 -0.0479,-0.01139 -0.0901,-0.0158 -0.1593,0 z m -0.58941,2.739957 c -0.2347,0.0052 -0.57212,0.05049 -1.03545,0.19116 -1.13759,0.317207 -1.47088,1.255845 -2.00718,2.039037 0.52596,-0.391723 1.74619,-1.574431 3.47274,-1.497418 0.11051,-0.277737 0.27398,-0.748254 -0.43011,-0.732779 z m -7.58268,0.669059 c -0.41074,0.0309 -0.63441,0.346391 -0.49382,0.908009 0.4119,-0.734687 1.27976,-0.311091 2.15054,-0.07965 -0.64491,-0.609441 -1.24597,-0.859262 -1.65672,-0.828359 z m 3.8232,2.724027 c -0.94182,-0.01467 -1.95766,0.04979 -2.83554,0.28674 -3.03422,1.301143 -2.93868,1.847096 -3.17006,2.230197 -0.0507,0.235929 -0.13061,0.885219 0.27081,0.669059 0.3906,-0.975483 2.65728,-2.272957 3.96656,-2.246127 1.30449,-0.239715 1.23202,-0.339676 2.46915,-0.17523 2.22086,0.1351 5.88221,1.252942 6.53129,1.975318 0.18421,0.02786 0.53705,-0.05951 0.44604,-0.38232 -1.33238,-1.127031 -3.78295,-1.846072 -6.77024,-2.325777 -0.29262,-0.02075 -0.59407,-0.02697 -0.90801,-0.03186 z m -1.73637,1.449628 c -1.45467,0.346983 -2.62938,0.717132 -3.42494,2.118688 l -0.22302,0.669059 c 0.51811,0.245024 1.62208,1.979722 2.43728,2.150547 2.2365,0.459046 4.31935,0.533163 5.38434,0.01593 1.00467,-0.257282 3.08483,-0.875839 4.87457,-2.325777 0.1065,-0.214485 0.0528,-0.464123 -0.50976,-0.812429 -1.56927,-0.760342 -3.4937,-1.394215 -6.40385,-1.752298 -0.96175,0.237562 -1.57021,0.09606 -2.13462,-0.06372 z m 2.10276,0.39825 c 1.68243,0.207014 5.05058,1.041918 5.95781,1.481488 0.32526,0.201366 0.63505,0.290181 0.57348,0.41418 -2.80417,-0.525786 -6.06906,-0.472572 -7.64639,-0.58941 -0.93186,0.04809 -3.48599,0.119252 -4.12586,0.60534 l 0.41418,-0.74871 c 0.45993,-0.810275 1.81932,-0.914496 2.6603,-1.115098 0.3263,0.09235 1.61047,0.08953 2.16648,-0.04779 z m -1.24254,1.624858 c 2.52949,0.187365 3.27757,-0.232908 7.23221,0.430109 0.88873,0.557689 -2.11663,1.453851 -4.04621,2.262058 -1.80048,0.609526 -3.61571,0.09077 -5.4162,-0.03186 -0.86373,-0.619273 -1.25508,-1.385799 -1.87973,-2.134618 1.10826,-0.560377 2.67981,-0.451892 4.10993,-0.525689 z m 20.75677,7.280001 c -5.93071,6.303466 -11.85807,7.974152 -16.98136,8.172081 5.71968,0.269755 11.75746,-0.581263 16.98136,-8.172081 z m -24.62775,2.883327 c -0.55712,3.048672 1.3116,6.095137 1.99124,9.14381 l -0.35046,5.352473 0.71685,-5.145384 c -0.5967,-3.024856 -2.12965,-6.055238 -1.78415,-9.080089 z m 5.12945,7.726041 c 0.10865,4.277968 1.84084,5.283886 5.06573,3.329366 -0.8082,0.449695 -4.09312,1.93156 -5.06573,-3.329366 z m -3.48867,0.4779 c -3.74382,2.574738 -8.24295,3.915977 -11.13505,7.853481 -5.47983,1.04519 -9.097274,1.230697 -13.09445,3.727615 -5.242309,2.797382 -8.49916,7.623728 -9.765078,11.358077 -1.863057,6.180257 -1.637527,10.968349 -2.437288,16.439749 -4.163665,6.00394 -9.493733,13.69352 -10.211118,19.14783 -0.841328,5.32081 -2.59498,6.98308 -2.437287,21.29839 1.512565,6.29498 4.181741,8.49402 7.789761,7.35965 11.524824,6.50332 15.184548,3.89094 23.082543,3.10635 1.383757,4.63188 0.933325,4.56892 1.245727,8.66513 0.23765,-4.23542 1.05112,-4.26687 -1.213867,-8.68106 0.106066,-0.0104 0.210971,-0.0222 0.3186,-0.0319 3.851197,-0.57891 7.021977,-1.8176 9.924377,-3.3453 l -0.92394,-0.43011 c -2.3902,1.67213 -5.54973,2.70295 -9.080087,3.42495 -15.238659,2.21348 -17.432359,-1.11756 -23.066613,-2.99484 -5.722086,0.79181 -6.130947,-3.73773 -7.503022,-7.29593 0.04014,-7.44314 1.007891,-14.36516 2.787747,-20.85235 1.19732,-7.24076 5.817902,-12.89722 9.717289,-18.87703 0.777681,-5.49212 0.59524,-9.264916 2.421357,-16.630899 3.083866,-6.262272 6.387009,-8.519212 9.653569,-11.310287 4.205156,-1.815437 8.6101,-2.59126 12.99887,-3.488666 2.58691,-2.954555 8.43386,-5.663269 10.92796,-8.44289 z m -7.77383,7.056982 c -0.41194,0.0073 -0.85003,0.03726 -1.32219,0.06372 0.53033,1.895402 5.522,-0.349221 8.3951,3.297506 -1.19424,-1.849754 -1.51675,-3.459075 -7.07291,-3.361226 z m 29.45454,1.449628 c -3.55529,0.439198 -4.68499,1.425379 -6.1649,2.325777 5.1102,-2.500507 9.91738,-1.061156 14.84673,-1.210678 l 2.64438,-0.812429 z m -6.24455,2.373567 c -0.34284,0.170637 -0.68974,0.349532 -1.03545,0.55755 0.38804,-0.177983 0.71428,-0.364703 1.03545,-0.55755 z m 23.3852,4.062145 c -6.57836,0.864965 -7.98225,2.711416 -10.91203,5.017945 3.56447,-1.666557 6.8085,-4.120753 11.26249,-3.647966 l 9.95624,-0.0159 c -3.46439,-0.442838 -8.98575,-0.280816 -10.3067,-1.354048 z m -62.110991,7.136632 c -1.422458,5.71474 -3.317082,10.753078 -0.700919,22.158608 0.927774,2.54603 1.844043,4.24154 2.771817,5.55956 l -0.669059,1.14696 c -2.372368,0.58148 -4.012148,1.69666 -5.448054,2.94705 -1.886189,2.68801 -5.029551,4.74815 -3.839126,10.37042 -2.538235,-0.59719 -5.28249,-3.86752 -7.93313,-5.92596 1.653912,2.08838 3.894755,4.15619 6.212692,6.24456 -2.693318,-1.01212 -5.437334,-2.2503 -7.216281,0.52569 2.616384,-1.58105 5.965653,-1.15018 10.465998,2.51693 l -0.11151,-0.23895 c 2.938471,4.60352 5.357731,3.4422 7.869411,3.26565 -6.713201,0.63253 -6.824586,-3.22038 -8.77742,-5.8463 -0.764623,-4.05027 0.407757,-6.99181 3.934705,-10.466 1.358666,-1.50993 2.88888,-2.67524 5.049804,-2.58066 4.210051,1.39355 4.780973,3.9443 6.674663,6.06932 l 0.89208,1.17882 c -2.74072,-1.20114 -5.40989,-3.24349 -8.172082,-4.33295 4.262225,2.05754 8.255322,6.42864 12.855492,5.78258 5.08196,1.55152 8.81631,6.53374 26.04552,4.58784 2.13085,2.00049 4.25708,1.87424 6.38793,2.69216 -0.13178,-0.1758 -6.56547,-2.25205 -4.97016,-3.64796 1.76654,-4.34142 4.44832,-15.93866 9.41462,-21.28246 1.37116,-1.13193 1.46527,-2.82538 1.13103,-4.71527 -3.59377,-2.45563 -1.77897,-7.188582 -2.13462,-11.007623 -0.49454,4.11019 -2.86647,8.709853 1.41777,11.581103 -0.36939,1.27181 0.30869,2.53545 -1.593,3.80726 -2.465,3.72989 -4.19067,7.66674 -5.65514,11.54924 -4.79414,0.4997 -9.58207,0.69286 -14.38477,-0.78057 -4.27093,0.11681 -6.5625,-4.28192 -8.50661,-6.84989 -0.42401,-3.77024 0.23591,-10.4442 3.56831,-19.163774 -1.20082,1.598208 -4.98755,8.863774 -5.00201,19.593884 -5.06032,3.99884 -8.73021,4.29307 -12.71213,5.41619 l -3.870984,-2.56473 c -0.359077,-0.36823 -0.652615,-0.71518 -0.908009,-1.03545 0.795487,-1.86 0.939468,-3.55584 -1.640788,-4.5719 -0.0074,-0.0371 -0.0078,-0.0741 -0.01593,-0.11151 -1.2529,-5.43934 -3.47036,-9.87089 0,-20.21515 z m 20.868281,25.440188 c 1.67649,2.81905 4.48011,5.83069 7.13663,6.37199 1.90848,0.0841 12.0384,2.56982 15.72289,0.57348 -1.17948,3.16847 -2.19238,6.31739 -3.28158,9.28718 -9.76665,1.44356 -18.46306,0.0138 -26.33226,-3.85506 -2.51523,-2.21659 -6.0087,-3.01865 -7.21628,-7.08884 l 0.54162,0.28674 c 6.22245,-1.05254 9.56285,-3.43543 13.42898,-5.57549 z m 10.95982,0.60534 c -0.85129,-0.0324 -1.13944,1.14893 -1.16288,1.30625 0.99484,3.71799 5.5315,3.52564 5.51177,1.62486 -0.0315,-3.02626 -2.97152,-2.87872 -4.34889,-2.93111 z m -22.58871,27.30398 c 6.4052,4.78915 10.22773,12.47694 21.01165,12.88736 2.2865,1.27998 4.35629,3.20626 6.6428,2.34171 l 2.93111,2.07089 -2.64437,-2.83553 c -4.39667,0.46647 -4.89403,-2.40427 -7.35965,-2.88333 -7.92384,0.39881 -13.8663,-7.14553 -20.58154,-11.5811 z m 41.89585,1.68858 c -2.51931,4.36824 -5.64377,4.858 -9.08009,3.26565 3.26567,1.6657 6.52559,3.12854 9.08009,-3.26565 z m -9.08009,3.26565 c -0.34543,-0.1762 -0.69044,-0.3543 -1.03545,-0.52569 0.34729,0.19737 0.6942,0.36756 1.03545,0.52569 z m -26.23668,12.58468 c -0.43463,0.0578 -0.83526,0.35733 -1.06731,1.03545 0.6063,-0.21554 1.20972,-0.92191 1.81602,-0.41418 0.28363,0.59751 0.68231,0.88543 0.71685,2.2302 0.49783,-0.43897 0.0492,-1.47904 -0.22302,-2.42136 -0.35357,-0.30283 -0.8079,-0.48786 -1.24254,-0.43011 z m 51.99865,0.70015 c -4.75084,5.26415 -13.36136,12.85906 -17.93716,13.20595 -12.69868,0.96271 -23.78284,1.06018 -31.54136,-0.6372 -5.80349,-1.26965 -7.73855,-4.04715 -11.13506,-5.70293 0.0608,0.0124 0.12681,0.0398 0.19116,0.0637 -0.34439,-0.18044 -0.87505,-0.49974 -0.90801,-0.71685 -4.197319,-2.28341 -5.95336,13.9862 -6.025071,24.64014 1.299995,-5.25292 3.539524,-21.72054 5.993211,-23.79585 1.83596,2.74594 5.09655,5.52691 11.50145,6.83396 9.89133,2.01852 20.90026,1.4878 32.05112,0.25488 5.67959,-0.74352 14.83738,-7.96032 18.01681,-13.34932 1.26959,0.60322 2.13089,2.18735 1.60716,3.60017 l 6.21092,21.27715 -5.30468,-21.88249 c 0.57258,-3.17459 -1.82748,-3.18153 -2.72049,-3.79133 z m -60.42242,6.92954 c 0.21001,0.11004 0.3675,0.1754 0.25488,0.11151 -0.0877,-0.0498 -0.17313,-0.0811 -0.25488,-0.11151 z m 3.13821,6.14897 c 8.68225,9.96238 14.39943,14.9009 22.36569,17.88937 7.67719,2.64739 13.04165,1.08593 19.56201,1.62486 -6.34613,-0.6019 -10.99668,0.79478 -19.56201,-2.43729 -12.77561,-6.42167 -14.90746,-11.38444 -22.36569,-17.07694 z m 3.56831,6.78618 c 2.40253,7.98797 4.30941,12.15302 7.74197,15.3565 3.35446,2.93123 6.38366,2.68715 9.57392,4.03028 -3.08957,-1.35911 -5.72768,-1.11487 -9.41462,-4.5719 -5.17967,-6.22987 -5.26544,-9.87459 -7.90127,-14.81488 z"
     id="path6410"
     inkscape:connector-curvature="0"
     sodipodi:nodetypes="sccccccccccccccccccccccscscccccccccccccccccccccccccccccccccccssscccccssccccccscsccccsccccsscccccccsccccccccccsccsccccsccscsccccccscccccccscsccssscscccccccccsccccccccccccccccccccccccccccccccccccccccccccccccccccccccccccccccccccccccccccccccccccccccccccccccccccccccccccccccccccccccccsccscccccccccccccscsccccsscccccscccccccscccccccccccccccccc" />
  <g
     id="g7268"
     transform="matrix(-1,0,0,-1,395.55556,537.77774)">
    <path
       sodipodi:nodetypes="scccccccccccccccccccscccccccccccssccccccscccccccc"
       inkscape:connector-curvature="0"
       id="path7100-8"
       d="m 253.19656,152.04014 c -1.97336,0.017 -3.76409,0.32146 -4.95423,1.51335 -8.62746,5.26805 -6.49552,9.00598 -6.6428,13.06258 l 0.23895,4.31703 c -1.23306,7.85647 -0.80062,14.76786 0.9558,20.91606 0.85035,1.79332 2.00043,3.54788 4.33296,5.12946 0.0191,2.76665 0.37816,5.59109 1.67264,8.57033 l -11.29435,8.0765 c -4.47832,1.18215 -9.41721,1.90368 -13.12631,3.85505 -10.80024,6.92124 -11.26115,17.50465 -12.09085,27.95713 -3.66493,6.91109 -10.11435,13.23113 -10.17926,20.90013 -1.32003,5.60166 -2.78737,11.35095 -2.24613,19.22749 1.16506,2.60916 1.10128,7.88203 8.01278,7.20035 7.77173,5.22234 15.27362,4.53672 22.74802,3.21786 1.80955,5.4685 0.85449,8.26849 0.87537,12.24644 4.42364,4.91003 10.9194,8.9387 16.90248,9.21124 9.92831,0.42013 19.75515,2.03192 29.9643,-0.6372 7.25043,-2.46848 10.71092,-11.14615 15.40429,-16.1717 -1.46009,-0.95626 -3.582,-1.83711 -3.85227,-3.09082 1.00413,-4.01118 0.59713,-6.33165 0.45918,-8.13705 1.46378,-3.92901 4.20163,-6.8033 6.8021,-10.08367 7.599,-9.58578 7.09537,-19.33853 9.22347,-26.92167 2.95273,-3.51504 2.82442,-10.62121 4.15773,-16.02557 -1.30173,-5.0001 1.29306,-8.94944 -8.33138,-16.16893 -4.70843,-6.8774 -11.90115,-13.22048 -23.54453,-18.59029 l -3.60017,-5.32061 c 0.6199,-3.91783 -0.25774,-7.68617 -1.13103,-12.45725 0.93891,0.76058 4.0387,-3.01068 4.25331,-8.01278 -0.0538,-2.19436 1.04016,-5.47228 -3.04263,-3.83912 l -1.36997,0.55754 -1.19475,-11.45365 c -0.37072,-4.96781 -3.97575,-8.31901 -13.30154,-8.80928 -1.97035,0.0216 -4.12782,-0.256 -6.10118,-0.23895 z m -6.89768,18.46285 c 0.63797,-0.0321 1.34309,0.0713 2.23019,0.50976 0.53525,0.15445 0.75826,0.66573 0.92394,1.24253 -0.34404,0.30698 -0.63819,0.41522 -0.90801,0.44604 -0.96111,0.0895 -1.85849,0.0734 -2.8196,-0.0478 -0.62752,-0.21908 -1.24313,-0.44769 -1.60893,-0.87614 0.12439,-0.63469 0.47827,-1.0144 1.08324,-1.1151 0.35593,-0.07 0.71638,-0.14005 1.09917,-0.1593 z m 12.82363,0.1593 c 0.89401,-0.63585 2.34894,-0.26204 3.75948,0.0319 l 1.1474,0.46197 c 0.15429,0.16721 0.50625,0.30971 0.27037,0.52569 -0.22274,0.41264 -0.73681,0.58251 -1.2744,0.73277 -2.47093,0.53872 -4.40299,0.0281 -5.44806,-0.28674 -0.17982,-0.22301 0.17685,-0.44603 0.33453,-0.66905 0.044,-0.2655 0.72285,-0.531 1.21068,-0.7965 z"
       style="fill:#985a2f;fill-opacity:1;stroke:none" />
    <path
       sodipodi:nodetypes="ccccccccc"
       inkscape:connector-curvature="0"
       id="path7138-2"
       d="m 225.21876,338.13514 c -0.35956,-5.71266 2.11577,-30.22384 6.31618,-32.37332 l 8.82444,5.59763 c 12.23423,3.87337 24.46845,1.86257 36.70268,1.58592 6.4493,-3.21724 11.55136,-7.78173 16.08574,-12.9139 0.56761,-0.95255 2.33982,0.4815 2.61113,1.95894 l 0.10758,3.02537 c 2.53897,10.80297 7.84255,19.76286 5.75785,33.64827 z"
       style="fill:#1b4359;fill-opacity:1;stroke:none" />
    <path
       sodipodi:nodetypes="sccccccccccccccccccccccscscccccccccccccccccccccccccccccccccccssscccccssccccccscsccccsccccsscccccccsccccccccccsccsccccsccscsccccccscccccccscsccssscscccccccccsccccccccccccccccccccccccccccccccccccccccccccccccccccccccccccccccccccccccccccccccccccccccccccccccccccccccccccccccccccccccccsccscccccccccccccscsccccsscccccscccccccscccccccccccccccccc"
       inkscape:connector-curvature="0"
       id="path6410-2"
       d="m 257.08347,148.43996 c -2.88969,0.0633 -5.74751,0.91734 -8.37917,3.93471 -5.90578,3.38175 -7.08465,6.91502 -7.51895,10.16333 0.0642,2.86308 0.3759,6.85142 0.25488,8.85707 -0.89524,1.14941 -0.7241,14.65309 0.23895,17.85751 0.76998,3.3927 1.37345,4.75197 5.70294,8.47475 3.59469,1.53225 7.72696,0.39755 11.23063,-0.25488 3.73989,-1.38164 7.70413,-2.42834 11.00762,-4.50819 1.61897,-0.46508 2.05931,-5.93179 3.07449,-8.98451 -1.16972,2.81057 -2.41947,8.27912 -3.32937,8.53847 -2.56374,2.20607 -7.26548,3.19496 -11.24657,4.60377 -4.12307,1.17515 -7.7554,1.36305 -10.64122,0.0637 -4.90216,-4.78735 -4.67091,-6.31782 -5.28876,-8.14022 -1.01694,-6.48976 -1.2977,-15.76291 0.0159,-17.57077 -0.0147,-0.89556 -0.0411,-1.82372 -0.0797,-2.73996 0.40622,-0.57543 0.8039,-1.14897 1.87974,-1.30626 1.33864,-0.34158 2.36915,0.30809 3.44088,0.84429 4.16569,-0.36723 1.23412,-2.29539 0.33453,-2.81961 -1.16184,-0.32303 -2.29804,-0.34158 -3.40902,-0.11151 -0.86726,0.31974 -1.85275,0.52734 -2.35764,1.17882 -0.0655,-1.13711 -0.14086,-2.26808 -0.22302,-3.37715 0.889,-7.59578 4.81465,-6.94637 7.37558,-10.00403 4.83992,-1.20211 5.2286,-0.29084 14.40071,0.7965 3.21104,0.94524 6.04263,2.81273 8.04464,6.57908 0.77355,1.45527 1.34351,8.4341 1.49742,13.03072 0.3667,0.54821 1.03224,-0.71638 2.15054,-1.40184 1.32122,-0.80983 3.09165,-0.91213 2.91519,2.30985 -0.35885,2.29613 -0.4559,5.29188 -1.4337,5.97375 -1.65401,4.15446 -2.09549,2.46133 -3.02669,3.12227 0.59852,4.73561 1.32577,9.56341 0.62126,13.12631 1.75647,1.99081 0.94302,3.48856 6.75432,6.92954 7.35357,5.06204 15.9649,8.68441 20.72491,16.71055 3.67726,3.24405 7.98919,5.04888 8.18801,16.28044 -1.29055,5.23017 -1.96842,14.38695 -4.4126,15.48395 -1.69128,12.29079 -3.7644,21.15749 -9.33498,27.86154 -4.10813,5.9632 -8.33363,11.81421 -13.63607,16.58311 -4.1751,6.91598 -10.07564,7.40448 -17.07693,3.82319 -8.39798,-0.42493 -16.25544,-3.45216 -23.84719,-7.77383 -5.90752,-4.02199 -9.80328,-11.14747 -14.35288,-17.2681 -2.12356,-0.89828 -4.37269,-3.59384 -6.372,-2.62845 2.43746,0.0313 3.99815,2.01588 5.95782,3.12228 4.38205,5.76232 6.52382,11.39068 14.54407,17.39554 6.88908,5.94971 15.63693,6.51917 24.0702,7.96499 5.41862,1.44598 10.23453,5.687 18.08053,-4.23737 2.56869,-2.43713 4.58945,-4.86813 6.43571,-7.31187 1.00375,4.08762 -0.0108,3.94033 -0.31541,8.02794 0.88126,1.10125 1.76312,2.0949 2.64438,2.0709 -0.3512,-0.65763 -0.70881,-1.27511 -1.74395,-2.72295 0.37497,-2.47382 1.04995,-3.46392 -0.0977,-7.70609 2.27129,-3.00768 3.80517,-5.71599 6.1714,-8.78175 3.89875,-3.77956 8.04699,-16.85035 9.74916,-27.63851 2.64506,-2.5507 3.07125,-10.44238 4.23738,-16.56719 -1.01744,-0.53662 2.80742,-8.16255 -8.17208,-16.26451 -4.36969,-7.28272 -12.77673,-11.9923 -20.78864,-16.93357 -3.80585,-1.92955 -5.05489,-4.64839 -6.81803,-7.21628 0.29085,-4.0568 -0.0814,-8.00791 -0.58941,-11.93156 0.81949,0.11301 1.64381,0.15228 3.12228,-3.42494 0.38808,-1.45691 0.70114,-0.36145 1.21067,-6.06933 -0.0381,-1.41158 0.31957,-3.10425 -1.51334,-3.23378 0.95324,-3.85362 0.0771,-7.85073 -0.81243,-11.83598 -1.71455,-4.87904 -6.96626,-7.66284 -12.52096,-10.29077 -2.21768,-0.27256 -4.49085,-0.70233 -6.73839,-0.65313 z m 2.75589,16.4716 c -0.73095,0.0342 -1.4184,0.19734 -2.58066,0.49383 -1.04718,0.50119 -1.58998,1.18431 -0.89207,2.34171 0.40796,0.0218 0.82957,0.0382 4.71527,-1.46556 1.13891,-0.19712 3.49285,0.66743 5.51177,1.25847 0.99273,-0.004 0.3307,-0.42325 0.12744,-0.73278 -1.0366,-0.51202 -1.61687,-1.19209 -4.07807,-1.72044 -1.29548,-0.13331 -2.07273,-0.20941 -2.80368,-0.17523 z m 0.7965,3.74355 c -0.57758,0.006 -1.13483,0.0661 -1.68858,0.19116 -1.1517,0.87028 -1.503,2.07554 -1.41777,2.37357 0.28358,-0.77439 0.66728,-1.70429 1.51335,-2.15055 1.15516,-0.21702 2.31758,-0.25805 3.47274,0.0478 l 1.03545,0.52569 c -0.24279,-0.26008 -0.44406,-0.50635 -1.14696,-0.81243 -0.60139,-0.11309 -1.19064,-0.18116 -1.76823,-0.17523 z m -13.82722,0.19116 c -1.40633,0.0153 -2.30336,0.30839 -2.67624,0.89208 0.80132,-0.29545 0.45118,-0.89283 3.32937,-0.66906 1.30717,0.19396 1.26296,1.03007 1.89566,1.54521 -0.32143,-0.83562 -0.85207,-1.50296 -1.91159,-1.76823 -0.22169,-0.009 -0.4363,-0.002 -0.6372,0 z m 13.71571,1.30626 c -1.36118,-0.029 -1.94592,0.609 -2.89926,1.38591 -0.12939,0.34816 -0.3133,0.73698 0.0637,0.71684 1.35817,0.42923 5.92899,1.01309 6.75432,-0.63719 0.0451,-0.14358 -0.13679,-0.35074 -0.39825,-0.57348 -1.61295,-0.60951 -2.70381,-0.87467 -3.52053,-0.89208 z m -14.03431,0.19116 c -0.45661,0.007 -0.90388,0.0792 -1.36998,0.19116 -0.32477,0.21552 -0.71838,0.12883 -0.9558,0.9558 -0.0513,0.18874 -0.40266,0.14679 0.1593,0.57347 0.0971,0.20246 0.73788,0.40289 1.29033,0.60534 0.98715,0.17189 1.99301,0.28507 3.07448,0.0797 0.30117,-0.15251 0.73895,-0.20014 0.78057,-0.52569 -0.0994,-0.37374 -0.0201,-0.70494 -0.74871,-1.25846 -0.71758,-0.46513 -1.4692,-0.63371 -2.23019,-0.62127 z m -1.24254,0.36639 c 0.39903,2.90592 3.69677,1.78258 3.36122,0.39825 0.0205,0.0119 0.0611,0.0198 0.0797,0.0319 0.50215,0.38148 0.505,0.77786 0.57348,1.03544 -0.0287,0.22437 -0.42963,0.34093 -0.6372,0.44604 -0.74533,0.14158 -2.23485,0.0388 -2.91518,-0.0796 -0.38075,-0.13952 -1.11187,-0.38616 -1.17882,-0.52568 -0.51856,-0.24555 -0.29049,-0.29454 -0.25488,-0.43011 0.16363,-0.56994 0.68418,-0.71168 0.90801,-0.86022 0.0145,-0.004 0.0481,-0.0124 0.0637,-0.0159 z m 13.82722,0.0637 c 0.004,-0.002 0.0122,0.002 0.0159,0 0.8869,2.79048 3.6495,1.26719 3.56832,0 0.44407,0.12475 0.85963,0.25568 1.19475,0.38232 0.18026,0.13316 0.44158,0.17276 0.44604,0.52569 -0.72278,1.29974 -5.76291,0.7442 -6.48351,0.4301 -0.51408,0.0206 -0.0694,-0.38123 0.11151,-0.62126 0.24325,-0.19824 0.69359,-0.47461 1.14696,-0.71685 z m 17.39554,2.13461 c -0.2716,0.0272 -0.61053,0.23615 -0.98766,0.6372 0.95613,-0.81176 1.62095,-0.59302 1.81602,1.35405 0.0711,-1.27393 -0.23084,-2.05109 -0.82836,-1.99125 z m -1.65672,2.40543 c -0.34208,0.0119 -0.4368,0.20778 -0.23895,0.60534 0.28631,0.45204 0.57391,0.79316 0.86022,1.62486 0.87202,0.66537 -0.50514,1.29148 -1.21068,2.30985 0.38372,0.12928 0.46518,0.92474 1.46556,-0.30267 0.39437,-0.25129 0.78524,-0.42044 1.21068,-2.16648 -0.28615,-1.15899 -0.70226,-2.06704 -1.65672,-2.02311 -0.1698,-0.0359 -0.31608,-0.0518 -0.43011,-0.0478 z m -18.74958,2.46915 c -0.0692,0.0158 -0.16002,0.0462 -0.3186,0.0796 0.87692,0.13462 1.35868,0.39238 1.87973,1.2744 2.63088,2.57764 -0.43674,2.61572 -1.41776,3.24971 l 0.65312,0.0319 c 0.67734,-0.009 3.19128,-0.58945 1.30626,-3.21785 -0.59902,-0.6566 -0.82672,-0.92451 -1.30626,-1.16289 -0.41126,-0.15264 -0.54142,-0.2321 -0.63719,-0.25488 -0.0479,-0.0114 -0.0901,-0.0158 -0.1593,0 z m -0.58941,2.73996 c -0.2347,0.005 -0.57212,0.0505 -1.03545,0.19116 -1.13759,0.3172 -1.47088,1.25584 -2.00718,2.03903 0.52596,-0.39172 1.74619,-1.57443 3.47274,-1.49742 0.11051,-0.27773 0.27398,-0.74825 -0.43011,-0.73277 z m -7.58268,0.66905 c -0.41074,0.0309 -0.63441,0.3464 -0.49382,0.90801 0.4119,-0.73468 1.27976,-0.31109 2.15054,-0.0796 -0.64491,-0.60944 -1.24597,-0.85926 -1.65672,-0.82836 z m 3.8232,2.72403 c -0.94182,-0.0147 -1.95766,0.0498 -2.83554,0.28674 -3.03422,1.30114 -2.93868,1.8471 -3.17006,2.2302 -0.0507,0.23593 -0.13061,0.88522 0.27081,0.66906 0.3906,-0.97549 2.65728,-2.27296 3.96656,-2.24613 1.30449,-0.23971 1.23202,-0.33968 2.46915,-0.17523 2.22086,0.1351 5.88221,1.25294 6.53129,1.97532 0.18421,0.0279 0.53705,-0.0595 0.44604,-0.38232 -1.33238,-1.12703 -3.78295,-1.84607 -6.77024,-2.32578 -0.29262,-0.0207 -0.59407,-0.027 -0.90801,-0.0319 z m -1.73637,1.44963 c -1.45467,0.34698 -2.62938,0.71713 -3.42494,2.11869 l -0.22302,0.66906 c 0.51811,0.24502 1.62208,1.97972 2.43728,2.15054 2.2365,0.45905 4.31935,0.53317 5.38434,0.0159 1.00467,-0.25728 3.08483,-0.87584 4.87457,-2.32577 0.1065,-0.21449 0.0528,-0.46413 -0.50976,-0.81243 -1.56927,-0.76034 -3.4937,-1.39422 -6.40385,-1.7523 -0.96175,0.23756 -1.57021,0.0961 -2.13462,-0.0637 z m 2.10276,0.39825 c 1.68243,0.20701 5.05058,1.04192 5.95781,1.48149 0.32526,0.20136 0.63505,0.29018 0.57348,0.41418 -2.80417,-0.52579 -6.06906,-0.47257 -7.64639,-0.58941 -0.93186,0.0481 -3.48599,0.11925 -4.12586,0.60534 l 0.41418,-0.74871 c 0.45993,-0.81028 1.81932,-0.9145 2.6603,-1.1151 0.3263,0.0924 1.61047,0.0895 2.16648,-0.0478 z m -1.24254,1.62486 c 2.52949,0.18736 3.27757,-0.23291 7.23221,0.43011 0.88873,0.55769 -2.11663,1.45385 -4.04621,2.26205 -1.80048,0.60953 -3.61571,0.0908 -5.4162,-0.0319 -0.86373,-0.61927 -1.25508,-1.38579 -1.87973,-2.13461 1.10826,-0.56038 2.67981,-0.4519 4.10993,-0.52569 z m 20.75677,7.28 c -5.93071,6.30346 -11.85807,7.97415 -16.98136,8.17208 5.71968,0.26975 11.75746,-0.58126 16.98136,-8.17208 z m -24.62775,2.88333 c -0.55712,3.04867 1.3116,6.09513 1.99124,9.14381 l -0.35046,5.35247 0.71685,-5.14539 c -0.5967,-3.02485 -2.12965,-6.05523 -1.78415,-9.08008 z m 5.12945,7.72604 c 0.10865,4.27796 1.84084,5.28388 5.06573,3.32936 -0.8082,0.4497 -4.09312,1.93156 -5.06573,-3.32936 z m -3.48867,0.4779 c -3.74382,2.57473 -8.24295,3.91597 -11.13505,7.85348 -5.47983,1.04519 -9.09727,1.23069 -13.09445,3.72761 -5.24231,2.79738 -8.49916,7.62373 -9.76507,11.35808 -1.86306,6.18026 -1.63753,10.96835 -2.43729,16.43975 -4.16367,6.00394 -9.49374,13.69352 -10.21112,19.14783 -0.84133,5.32081 -2.59498,6.98308 -2.43729,21.29839 1.51257,6.29498 4.18174,8.49402 7.78976,7.35965 11.52483,6.50332 15.18455,3.89094 23.08255,3.10635 1.38375,4.63188 0.93332,4.56892 1.24572,8.66513 0.23765,-4.23542 1.05112,-4.26687 -1.21386,-8.68106 0.10606,-0.0104 0.21097,-0.0222 0.3186,-0.0319 3.85119,-0.57891 7.02197,-1.8176 9.92437,-3.3453 l -0.92394,-0.43011 c -2.3902,1.67213 -5.54973,2.70295 -9.08008,3.42495 -15.23866,2.21348 -17.43236,-1.11756 -23.06662,-2.99484 -5.72208,0.79181 -6.13094,-3.73773 -7.50302,-7.29593 0.0401,-7.44314 1.00789,-14.36516 2.78775,-20.85235 1.19732,-7.24076 5.8179,-12.89722 9.71729,-18.87703 0.77768,-5.49212 0.59524,-9.26492 2.42135,-16.6309 3.08387,-6.26227 6.38701,-8.51921 9.65357,-11.31029 4.20516,-1.81543 8.6101,-2.59126 12.99887,-3.48866 2.58691,-2.95456 8.43386,-5.66327 10.92796,-8.44289 z m -7.77383,7.05698 c -0.41194,0.007 -0.85003,0.0373 -1.32219,0.0637 0.53033,1.8954 5.522,-0.34922 8.3951,3.2975 -1.19424,-1.84975 -1.51675,-3.45907 -7.07291,-3.36122 z m 29.45454,1.44963 c -3.55529,0.43919 -4.68499,1.42538 -6.1649,2.32577 5.1102,-2.5005 9.91738,-1.06115 14.84673,-1.21067 l 2.64438,-0.81243 z m -6.24455,2.37356 c -0.34284,0.17064 -0.68974,0.34954 -1.03545,0.55755 0.38804,-0.17798 0.71428,-0.3647 1.03545,-0.55755 z m 23.3852,4.06215 c -6.57836,0.86496 -7.98225,2.71141 -10.91203,5.01794 3.56447,-1.66655 6.8085,-4.12075 11.26249,-3.64796 l 9.95624,-0.0159 c -3.46439,-0.44284 -8.98575,-0.28082 -10.3067,-1.35405 z m -62.11099,7.13663 c -1.42246,5.71474 -3.31708,10.75307 -0.70092,22.15861 0.92778,2.54603 1.84405,4.24154 2.77182,5.55956 l -0.66906,1.14696 c -2.37237,0.58148 -4.01215,1.69666 -5.44805,2.94705 -1.88619,2.68801 -5.02955,4.74815 -3.83913,10.37042 -2.53823,-0.59719 -5.28249,-3.86752 -7.93313,-5.92596 1.65391,2.08838 3.89476,4.15619 6.21269,6.24456 -2.69331,-1.01212 -5.43733,-2.2503 -7.21628,0.52569 2.61639,-1.58105 5.96566,-1.15018 10.466,2.51693 l -0.11151,-0.23895 c 2.93847,4.60352 5.35773,3.4422 7.86941,3.26565 -6.7132,0.63253 -6.82458,-3.22038 -8.77742,-5.8463 -0.76462,-4.05027 0.40776,-6.99181 3.93471,-10.466 1.35866,-1.50993 2.88888,-2.67524 5.0498,-2.58066 4.21005,1.39355 4.78097,3.9443 6.67466,6.06932 l 0.89208,1.17882 c -2.74071,-1.20114 -5.40989,-3.24349 -8.17208,-4.33295 4.26223,2.05754 8.25532,6.42864 12.85549,5.78258 5.08196,1.55152 8.81631,6.53374 26.04552,4.58784 2.13085,2.00049 4.25708,1.87424 6.38793,2.69216 -0.13178,-0.1758 -6.56547,-2.25205 -4.97016,-3.64796 1.76654,-4.34142 4.44832,-15.93866 9.41462,-21.28246 1.37116,-1.13193 1.46527,-2.82538 1.13103,-4.71527 -3.59377,-2.45563 -1.77897,-7.18858 -2.13462,-11.00762 -0.49454,4.11019 -2.86647,8.70985 1.41777,11.5811 -0.36939,1.27181 0.30869,2.53545 -1.593,3.80726 -2.465,3.72989 -4.19067,7.66674 -5.65514,11.54924 -4.79414,0.4997 -9.58207,0.69286 -14.38477,-0.78057 -4.27093,0.11681 -6.5625,-4.28192 -8.50661,-6.84989 -0.42401,-3.77024 0.23591,-10.4442 3.56831,-19.16378 -1.20082,1.59821 -4.98755,8.86378 -5.00201,19.59389 -5.06032,3.99884 -8.73021,4.29307 -12.71213,5.41619 l -3.87098,-2.56473 c -0.35908,-0.36823 -0.65262,-0.71518 -0.90801,-1.03545 0.79549,-1.86 0.93947,-3.55584 -1.64079,-4.5719 -0.007,-0.0371 -0.008,-0.0741 -0.0159,-0.11151 -1.2529,-5.43934 -3.47036,-9.87089 0,-20.21515 z m 20.86828,25.44019 c 1.67649,2.81905 4.48011,5.83069 7.13663,6.37199 1.90848,0.0841 12.0384,2.56982 15.72289,0.57348 -1.17948,3.16847 -2.19238,6.31739 -3.28158,9.28718 -9.76665,1.44356 -18.46306,0.0138 -26.33226,-3.85506 -2.51523,-2.21659 -6.0087,-3.01865 -7.21628,-7.08884 l 0.54162,0.28674 c 6.22245,-1.05254 9.56285,-3.43543 13.42898,-5.57549 z m 10.95982,0.60534 c -0.85129,-0.0324 -1.13944,1.14893 -1.16288,1.30625 0.99484,3.71799 5.5315,3.52564 5.51177,1.62486 -0.0315,-3.02626 -2.97152,-2.87872 -4.34889,-2.93111 z m -22.58871,27.30398 c 6.4052,4.78915 10.22773,12.47694 21.01165,12.88736 2.2865,1.27998 4.35629,3.20626 6.6428,2.34171 l 2.93111,2.07089 -2.64437,-2.83553 c -4.39667,0.46647 -4.89403,-2.40427 -7.35965,-2.88333 -7.92384,0.39881 -13.8663,-7.14553 -20.58154,-11.5811 z m 41.89585,1.68858 c -2.51931,4.36824 -5.64377,4.858 -9.08009,3.26565 3.26567,1.6657 6.52559,3.12854 9.08009,-3.26565 z m -9.08009,3.26565 c -0.34543,-0.1762 -0.69044,-0.3543 -1.03545,-0.52569 0.34729,0.19737 0.6942,0.36756 1.03545,0.52569 z m -26.23668,12.58468 c -0.43463,0.0578 -0.83526,0.35733 -1.06731,1.03545 0.6063,-0.21554 1.20972,-0.92191 1.81602,-0.41418 0.28363,0.59751 0.68231,0.88543 0.71685,2.2302 0.49783,-0.43897 0.0492,-1.47904 -0.22302,-2.42136 -0.35357,-0.30283 -0.8079,-0.48786 -1.24254,-0.43011 z m 51.99865,0.70015 c -4.75084,5.26415 -13.36136,12.85906 -17.93716,13.20595 -12.69868,0.96271 -23.78284,1.06018 -31.54136,-0.6372 -5.80349,-1.26965 -7.73855,-4.04715 -11.13506,-5.70293 0.0608,0.0124 0.12681,0.0398 0.19116,0.0637 -0.34439,-0.18044 -0.87505,-0.49974 -0.90801,-0.71685 -4.19732,-2.28341 -5.95336,13.9862 -6.02507,24.64014 1.3,-5.25292 3.53953,-21.72054 5.99321,-23.79585 1.83596,2.74594 5.09655,5.52691 11.50145,6.83396 9.89133,2.01852 20.90026,1.4878 32.05112,0.25488 5.67959,-0.74352 14.83738,-7.96032 18.01681,-13.34932 1.26959,0.60322 2.13089,2.18735 1.60716,3.60017 l 6.21093,21.27715 -5.30469,-21.88249 c 0.57258,-3.17459 -1.82748,-3.18153 -2.72049,-3.79133 z m -60.42242,6.92954 c 0.21001,0.11004 0.3675,0.1754 0.25488,0.11151 -0.0877,-0.0498 -0.17313,-0.0811 -0.25488,-0.11151 z m 3.13821,6.14897 c 8.68225,9.96238 14.39943,14.9009 22.36569,17.88937 7.67719,2.64739 13.04165,1.08593 19.56201,1.62486 -6.34613,-0.6019 -10.99668,0.79478 -19.56201,-2.43729 -12.77561,-6.42167 -14.90746,-11.38444 -22.36569,-17.07694 z m 3.56831,6.78618 c 2.40253,7.98797 4.30941,12.15302 7.74197,15.3565 3.35446,2.93123 6.38366,2.68715 9.57392,4.03028 -3.08957,-1.35911 -5.72768,-1.11487 -9.41462,-4.5719 -5.17967,-6.22987 -5.26544,-9.87459 -7.90127,-14.81488 z"
       style="fill:#000000;fill-opacity:1;stroke:none" />
  </g>
</svg>
