<?xml version="1.0" encoding="UTF-8" standalone="no"?>
<!-- Created with Inkscape (http://www.inkscape.org/) -->

<svg
   xmlns:dc="http://purl.org/dc/elements/1.1/"
   xmlns:cc="http://creativecommons.org/ns#"
   xmlns:rdf="http://www.w3.org/1999/02/22-rdf-syntax-ns#"
   xmlns:svg="http://www.w3.org/2000/svg"
   xmlns="http://www.w3.org/2000/svg"
   xmlns:sodipodi="http://sodipodi.sourceforge.net/DTD/sodipodi-0.dtd"
   xmlns:inkscape="http://www.inkscape.org/namespaces/inkscape"
   width="480.02856"
   height="177.32687"
   id="svg10099"
   version="1.1"
   inkscape:version="0.48.2 r9819"
   sodipodi:docname="Sensory.svg">
  <defs
     id="defs10101" />
  <sodipodi:namedview
     id="base"
     pagecolor="#ffffff"
     bordercolor="#666666"
     borderopacity="1.0"
     inkscape:pageopacity="0.0"
     inkscape:pageshadow="2"
     inkscape:zoom="0.35"
     inkscape:cx="405.57087"
     inkscape:cy="84.636046"
     inkscape:document-units="px"
     inkscape:current-layer="layer1"
     showgrid="false"
     fit-margin-top="0"
     fit-margin-left="0"
     fit-margin-right="0"
     fit-margin-bottom="0"
     inkscape:window-width="1276"
     inkscape:window-height="756"
     inkscape:window-x="338"
     inkscape:window-y="0"
     inkscape:window-maximized="0" />
  <metadata
     id="metadata10104">
    <rdf:RDF>
      <cc:Work
         rdf:about="">
        <dc:format>image/svg+xml</dc:format>
        <dc:type
           rdf:resource="http://purl.org/dc/dcmitype/StillImage" />
        <dc:title></dc:title>
      </cc:Work>
    </rdf:RDF>
  </metadata>
  <g
     inkscape:label="Layer 1"
     inkscape:groupmode="layer"
     id="layer1"
     transform="translate(-88.914286,-354.29794)">
    <path
       style="fill:none;stroke:#000000;stroke-width:3.5999999;stroke-linecap:butt;stroke-linejoin:miter;stroke-miterlimit:4;stroke-opacity:1;stroke-dasharray:none"
       d="m 567.14286,450.21932 c -196.58163,123.11675 -285.93088,69.34489 -380,59.28572 -30.31985,-0.19411 -58.88447,-1.72133 -96.428574,3.57143 C 182.38013,288.24088 502.72773,340.34174 567.14286,450.21932 z"
       id="path10652"
       inkscape:connector-curvature="0"
       sodipodi:nodetypes="cccc" />
    <path
       style="fill:none;stroke:#000000;stroke-width:3.5999999;stroke-miterlimit:4;stroke-opacity:1;stroke-dasharray:none"
       d="m 342.82608,355.91176 c -35.1949,-1.4117 -71.9307,5.89264 -105.94916,18.07414 -88.76677,201.57581 283.90457,220.14391 187.618,-8.90309 -37.94652,-7.87 -60.54157,-8.32362 -81.66884,-9.17105 z"
       id="path10654"
       inkscape:connector-curvature="0"
       sodipodi:nodetypes="sccs" />
    <path
       style="fill:#000000;stroke:#000000;stroke-width:1px;stroke-linecap:butt;stroke-linejoin:miter;stroke-opacity:1;fill-opacity:1"
       d="M 69.700526,154.09337 C 20.842535,145.20546 34.691027,115.1399 35.355339,97.524823 L 23.738585,118.73803 c 0.786073,14.55255 0.598857,29.46367 26.263966,34.85026 z"
       id="path10935"
       inkscape:connector-curvature="0"
       transform="translate(88.914286,354.29794)"
       sodipodi:nodetypes="ccccc" />
    <path
       style="fill:none;stroke:#000000;stroke-width:3.5999999;stroke-linecap:butt;stroke-linejoin:miter;stroke-miterlimit:4;stroke-opacity:1;stroke-dasharray:none"
       d="M 11.364216,151.82052 20.455589,135.153 c -0.324935,7.33907 3.526541,12.02042 10.606602,14.64722 -7.023994,-0.70057 -13.323047,0.77367 -19.697975,2.0203 z"
       id="path10937"
       inkscape:connector-curvature="0"
       transform="translate(88.914286,354.29794)"
       sodipodi:nodetypes="cccc" />
    <path
       style="fill:#000000;fill-opacity:1;fill-rule:nonzero;stroke:#000000;stroke-width:3.5999999;stroke-linecap:square;stroke-miterlimit:4;stroke-opacity:1;stroke-dasharray:none;stroke-dashoffset:9.43999946"
       d="m 246.0625,22.6875 c -26.82526,0 -48.5625,19.734047 -48.5625,44.09375 0,24.359703 21.73724,44.125 48.5625,44.125 26.82526,0 48.59375,-19.765297 48.59375,-44.125 0,-24.359703 -21.76849,-44.09375 -48.59375,-44.09375 z m 0.20089,10.71875 c 8.18604,0 14.8125,6.003852 14.8125,13.4375 0,7.433648 -6.62646,13.46875 -14.8125,13.46875 -8.18604,0 -14.8125,-6.035102 -14.8125,-13.46875 0,-7.433648 6.62646,-13.4375 14.8125,-13.4375 z m 14.2634,24.991072 c 9.76242,0 17.68303,6.175609 17.68303,13.770049 0,7.594441 -7.92061,13.725487 -17.68303,13.725487 -9.76243,0 -17.68304,-6.131046 -17.68304,-13.725487 0,-7.59444 7.92061,-13.770049 17.68304,-13.770049 z"
       transform="translate(88.914286,354.29794)"
       id="path10939"
       inkscape:connector-curvature="0"
       sodipodi:nodetypes="sssssssssssssss" />
    <path
       style="fill:#000000;fill-opacity:1;stroke:none"
       d="m 202.5,86.969731 -3.23223,-24.311095 c -13.90676,15.974197 -42.97652,24.292828 -65.3392,31.811095 22.85741,-2.500168 64.85316,-17.087712 68.57143,-7.5 z"
       id="path10984"
       inkscape:connector-curvature="0"
       transform="translate(88.914286,354.29794)"
       sodipodi:nodetypes="cccc" />
    <path
       style="fill:#000000;fill-opacity:1;stroke:none"
       d="m 299.67022,454.29471 -11.93758,-18.89739 c -7.82668,19.68034 -31.6657,34.19454 -50.27285,48.69928 20.737,-9.93421 55.52477,-37.61544 62.21043,-29.80189 z"
       id="path10984-3"
       inkscape:connector-curvature="0"
       sodipodi:nodetypes="cccc" />
    <path
       style="fill:#000000;fill-opacity:1;stroke:none"
       d="m 318.53267,463.18204 -18.88277,-11.9607 c 1.35976,21.13585 -13.96214,44.46393 -24.56074,65.54196 14.48124,-17.86072 34.05494,-57.77701 43.44351,-53.58126 z"
       id="path10984-0"
       inkscape:connector-curvature="0"
       sodipodi:nodetypes="cccc" />
    <path
       style="fill:#000000;fill-opacity:1;stroke:none"
       d="m 337.77928,467.09981 -21.92857,-4.33068 c 8.90405,19.21695 3.04524,46.50495 0.77778,69.98839 7.05023,-21.88621 10.88051,-66.17807 21.15079,-65.65771 z"
       id="path10984-0-9"
       inkscape:connector-curvature="0"
       sodipodi:nodetypes="cccc" />
    <path
       style="fill:#000000;fill-opacity:1;stroke:none"
       d="m 358.17778,461.82578 -22.31084,1.35777 c 13.47598,16.33925 14.71119,44.22176 18.45842,67.51492 1.28402,-22.95784 -6.21543,-66.77791 3.85242,-68.87269 z"
       id="path10984-0-94"
       inkscape:connector-curvature="0"
       sodipodi:nodetypes="cccc" />
    <path
       style="fill:#000000;fill-opacity:1;stroke:none"
       d="M 375.92695,447.52282 356.553,458.67034 c 19.34057,8.63222 32.85857,33.04991 46.58303,52.23983 -9.06993,-21.12932 -35.29189,-57.02986 -27.20908,-63.38735 z"
       id="path10984-0-3"
       inkscape:connector-curvature="0"
       sodipodi:nodetypes="cccc" />
    <path
       style="fill:#000000;fill-opacity:1;stroke:none"
       d="m 384.65746,430.59479 -14.20799,17.25543 c 21.14148,1.26931 42.39156,19.36334 61.99411,32.49171 -15.929,-16.58249 -53.11271,-40.95074 -47.78612,-49.74714 z"
       id="path10984-0-3-8"
       inkscape:connector-curvature="0"
       sodipodi:nodetypes="cccc" />
    <path
       style="fill:#000000;fill-opacity:1;stroke:none"
       d="m 376.12875,411.87451 -0.97222,22.33096 c 17.65335,-11.7018 41.22723,-10.02765 64.78394,-11.32964 -22.69944,-3.66702 -62.77642,-0.77011 -63.81172,-11.00132 z"
       id="path10984-0-3-2"
       inkscape:connector-curvature="0"
       sodipodi:nodetypes="cccc" />
    <path
       style="fill:#000000;fill-opacity:1;stroke:none"
       d="m 374.02595,390.43177 4.29458,21.93567 c 14.41487,-15.51725 32.60381,-17.92671 55.1974,-24.71962 -22.92616,1.76147 -56.08496,12.48662 -59.49198,2.78395 z"
       id="path10984-0-3-2-7"
       inkscape:connector-curvature="0"
       sodipodi:nodetypes="cccc" />
    <path
       style="fill:#000000;fill-opacity:1;stroke:none"
       d="m 359.39747,382.01659 14.68262,16.85342 c 4.73045,-20.64451 16.0742,-31.12795 23.67745,-40.08903 -9.33446,6.55499 -30.55993,29.93692 -38.36007,23.23561 z"
       id="path10984-0-3-2-2"
       inkscape:connector-curvature="0"
       sodipodi:nodetypes="cccc" />
    <path
       style="fill:#000000;fill-opacity:1;stroke:none"
       d="m 341.43877,386.23042 22.23022,2.33111 c -5.69964,-9.85392 -4.14841,-25.16938 -4.72369,-30.90422 -0.49505,-4.93503 -3.39886,-0.82932 -4.16197,-2.65601 -1.47194,4.93382 -3.06928,30.81917 -13.34456,31.22912 z"
       id="path10984-0-3-2-4"
       inkscape:connector-curvature="0"
       sodipodi:nodetypes="ccscc" />
    <path
       style="fill:#000000;fill-opacity:1;stroke:none"
       d="m 322.30725,380.79046 22.1743,-2.81376 C 329.966,362.55362 330.1245,358.383 329.86216,355.38469 c -6.19184,-0.88395 -2.56264,-1.53545 -3.1325,1.10519 -1.41494,6.55653 2.64181,22.34113 -4.42241,24.30058 z"
       id="path10984-0-3-2-4-6"
       inkscape:connector-curvature="0"
       sodipodi:nodetypes="cccsc" />
    <path
       style="fill:#000000;fill-opacity:1;stroke:none"
       d="m 302.18914,389.20722 21.94191,-11.4879 c -16.76556,0.41253 -16.44612,-6.50872 -26.1519,-19.6726 -1.23449,-1.67434 -1.22572,2.17216 -2.89248,0.0897 8.68614,20.59524 8.42991,24.27596 7.10247,31.07083 z"
       id="path10984-0-3-2-4-2"
       inkscape:connector-curvature="0"
       sodipodi:nodetypes="ccscc" />
    <path
       style="fill:#000000;fill-opacity:1;stroke:none"
       d="m 290.61943,404.48932 14.00907,-17.41733 c -21.15463,-1.02663 -27.96805,-6.01851 -47.71995,-18.9211 16.1182,16.39864 38.93622,27.48149 33.71088,36.33843 z"
       id="path10984-0-3-2-4-2-3"
       inkscape:connector-curvature="0"
       sodipodi:nodetypes="cccc" />
    <path
       style="fill:#000000;fill-opacity:1;stroke:none"
       d="m 289.78589,422.17289 2.53757,-23.21776 c -18.4313,10.43358 -42.89033,8.53211 -66.48033,8.17709 22.38599,5.2516 63.62831,4.76202 63.94276,15.04067 z"
       id="path10984-0-3-2-4-2-3-4"
       inkscape:connector-curvature="0"
       sodipodi:nodetypes="cccc" />
    <path
       style="fill:none;stroke:#000000;stroke-width:3.5999999;stroke-linecap:butt;stroke-linejoin:miter;stroke-miterlimit:4;stroke-opacity:1;stroke-dasharray:none"
       d="m 271.42857,166.96973 c 11.42857,1.55249 23.57143,-6.45629 35.00001,-13.21429 -11.54762,-13.49631 -23.80953,-38.03221 -35.35715,-39.64285 -2.7605,4.75691 -1.63635,16.7239 0.35714,52.85714 z"
       id="path11161"
       inkscape:connector-curvature="0"
       transform="translate(88.914286,354.29794)"
       sodipodi:nodetypes="cccc" />
    <path
       style="fill:none;stroke:#000000;stroke-width:3.5999999;stroke-linecap:butt;stroke-linejoin:miter;stroke-miterlimit:4;stroke-opacity:1;stroke-dasharray:none"
       d="m 315.35714,144.82687 c 7.27048,-4.24523 13.6563,-9.59629 17.14286,-18.57143 -20.50748,-18.09348 -26.13165,-18.8912 -40.71429,-24.99999 5.21988,13.7703 11.74305,27.91298 23.57143,43.57142 z"
       id="path11163"
       inkscape:connector-curvature="0"
       transform="translate(88.914286,354.29794)"
       sodipodi:nodetypes="cccc" />
    <path
       style="color:#000000;fill:none;stroke:#000000;stroke-width:3.5999999;stroke-linecap:butt;stroke-linejoin:miter;stroke-miterlimit:4;stroke-opacity:1;stroke-dasharray:none;stroke-dashoffset:0;marker:none;visibility:visible;display:inline;overflow:visible;enable-background:accumulate"
       d="m 337.85715,114.46973 c 4.32292,-11.75382 9.41078,-23.668308 7.14285,-41.071428 -15.16111,1.830217 -39.5204,0.375368 -42.85714,6.428572 5.66792,12.639725 23.09794,22.871686 35.71429,34.642856 z"
       id="path11165"
       inkscape:connector-curvature="0"
       transform="translate(88.914286,354.29794)"
       sodipodi:nodetypes="cccc" />
    <path
       style="color:#000000;fill:none;stroke:#000000;stroke-width:3.5999999;stroke-linecap:butt;stroke-linejoin:miter;stroke-miterlimit:4;stroke-opacity:1;stroke-dasharray:none;stroke-dashoffset:0;marker:none;visibility:visible;display:inline;overflow:visible;enable-background:accumulate"
       d="m 301.42857,59.826874 -1.07143,-5.357143 c 11.226,-9.435003 25.64832,-10.879211 38.57143,-16.071429 3.40761,10.468559 4.01623,16.738624 5.71429,24.642857 z"
       id="path11167"
       inkscape:connector-curvature="0"
       transform="translate(88.914286,354.29794)"
       sodipodi:nodetypes="ccccc" />
    <path
       style="color:#000000;fill:none;stroke:#000000;stroke-width:3.5999999;stroke-linecap:butt;stroke-linejoin:miter;stroke-miterlimit:4;stroke-opacity:1;stroke-dasharray:none;stroke-dashoffset:0;marker:none;visibility:visible;display:inline;overflow:visible;enable-background:accumulate"
       d="m 293.57143,33.755445 c 2.78289,-7.411278 7.42648,-15.017903 14.28571,-22.857143 l 23.57143,3.928572 5.35714,15.714285 c -14.73194,1.082933 -38.84633,7.260081 -43.21428,3.214286 z"
       id="path11169"
       inkscape:connector-curvature="0"
       transform="translate(88.914286,354.29794)"
       sodipodi:nodetypes="ccccc" />
    <path
       style="color:#000000;fill:none;stroke:#000000;stroke-width:3.5999999;stroke-linecap:butt;stroke-linejoin:miter;stroke-miterlimit:4;stroke-opacity:1;stroke-dasharray:none;stroke-dashoffset:0;marker:none;visibility:visible;display:inline;overflow:visible;enable-background:accumulate"
       d="M 276.42857,23.755445 C 273.6454,19.034571 273.26552,13.712873 274.28571,8.0411592 l 21.07143,2.1428568 c -8.0679,8.265 -12.63573,9.744097 -18.92857,13.571429 z"
       id="path11171"
       inkscape:connector-curvature="0"
       transform="translate(88.914286,354.29794)"
       sodipodi:nodetypes="cccc" />
    <path
       style="color:#000000;fill:none;stroke:#000000;stroke-width:3.5999999;stroke-linecap:butt;stroke-linejoin:miter;stroke-miterlimit:4;stroke-opacity:1;stroke-dasharray:none;stroke-dashoffset:0;marker:none;visibility:visible;display:inline;overflow:visible;enable-background:accumulate"
       d="m 248.21429,6.6125878 c 1.3998,4.1486102 3.2022,8.2167022 9.28571,11.4285712 l 3.21429,-11.0714283 c -4.16667,0.1981252 -8.33333,1.1969184 -12.5,-0.3571429 z"
       id="path11173"
       inkscape:connector-curvature="0"
       transform="translate(88.914286,354.29794)"
       sodipodi:nodetypes="cccc" />
    <path
       style="color:#000000;fill:none;stroke:#000000;stroke-width:3.5999999;stroke-linecap:butt;stroke-linejoin:miter;stroke-miterlimit:4;stroke-opacity:1;stroke-dasharray:none;stroke-dashoffset:0;marker:none;visibility:visible;display:inline;overflow:visible;enable-background:accumulate"
       d="m 218.21429,9.4697307 c 2.65758,5.4376613 6.12357,10.0669083 15.35714,8.9285713 L 235,7.6840164 c -5.47619,1.6415868 -11.30952,2.1154985 -16.78571,1.7857143 z"
       id="path11175"
       inkscape:connector-curvature="0"
       transform="translate(88.914286,354.29794)"
       sodipodi:nodetypes="cccc" />
    <path
       style="color:#000000;fill:none;stroke:#000000;stroke-width:3.5999999;stroke-linecap:butt;stroke-linejoin:miter;stroke-miterlimit:4;stroke-opacity:1;stroke-dasharray:none;stroke-dashoffset:0;marker:none;visibility:visible;display:inline;overflow:visible;enable-background:accumulate"
       d="m 178.92857,16.612588 c 6.87168,-2.890221 17.30625,-3.288992 26.07143,-4.285714 3.28576,5.920669 4.16878,10.596647 4.64286,14.642857 -15.32188,0.17889 -21.48352,-6.185245 -30.71429,-10.357143 z"
       id="path11177"
       inkscape:connector-curvature="0"
       transform="translate(88.914286,354.29794)"
       sodipodi:nodetypes="cccc" />
    <path
       style="color:#000000;fill:none;stroke:#000000;stroke-width:3.5999999;stroke-linecap:butt;stroke-linejoin:miter;stroke-miterlimit:4;stroke-opacity:1;stroke-dasharray:none;stroke-dashoffset:0;marker:none;visibility:visible;display:inline;overflow:visible;enable-background:accumulate"
       d="m 144.64285,48.755445 c 18.17168,-0.616012 39.66643,3.04051 51.78572,-5.357142 C 183.64678,34.945921 177.15549,27.922112 167.85714,19.46973 L 152.5,23.755445 c -3.33857,7.970959 -6.37246,15.175159 -7.85715,25 z"
       id="path11179"
       inkscape:connector-curvature="0"
       transform="translate(88.914286,354.29794)"
       sodipodi:nodetypes="ccccc" />
    <path
       style="color:#000000;fill:none;stroke:#000000;stroke-width:3.5999999;stroke-linecap:butt;stroke-linejoin:miter;stroke-miterlimit:4;stroke-opacity:1;stroke-dasharray:none;stroke-dashoffset:0;marker:none;visibility:visible;display:inline;overflow:visible;enable-background:accumulate"
       d="m 141.42857,88.398302 c -3.72982,-9.761905 -0.55893,-19.523809 0,-29.285714 l 49.28572,6.071428 c -14.25665,14.232077 -31.53574,16.842222 -49.28572,23.214286 z"
       id="path11181"
       inkscape:connector-curvature="0"
       transform="translate(88.914286,354.29794)"
       sodipodi:nodetypes="cccc" />
    <path
       style="color:#000000;fill:none;stroke:#000000;stroke-width:3.5999999;stroke-linecap:butt;stroke-linejoin:miter;stroke-miterlimit:4;stroke-opacity:1;stroke-dasharray:none;stroke-dashoffset:0;marker:none;visibility:visible;display:inline;overflow:visible;enable-background:accumulate"
       d="m 141.42858,96.969731 c 2.11904,8.148809 4.16948,16.280469 10,25.357139 13.32416,-11.02561 23.05198,-15.93876 37.57921,-32.979691 -4.26748,-2.427258 -31.71947,5.081701 -47.57921,7.622552 z"
       id="path11183"
       inkscape:connector-curvature="0"
       transform="translate(88.914286,354.29794)"
       sodipodi:nodetypes="cccc" />
    <path
       style="color:#000000;fill:none;stroke:#000000;stroke-width:3.5999999;stroke-linecap:butt;stroke-linejoin:miter;stroke-miterlimit:4;stroke-opacity:1;stroke-dasharray:none;stroke-dashoffset:0;marker:none;visibility:visible;display:inline;overflow:visible;enable-background:accumulate"
       d="m 156.82618,129.8497 c 6.3791,8.50212 13.51277,15.74155 29.04189,24.24367 6.78711,-16.97258 19.70524,-30.26655 20.20305,-51.01271 -7.6255,1.48576 -32.82392,17.84091 -49.24494,26.76904 z"
       id="path11185"
       inkscape:connector-curvature="0"
       transform="translate(88.914286,354.29794)"
       sodipodi:nodetypes="cccc" />
    <path
       style="color:#000000;fill:none;stroke:#000000;stroke-width:3.5999999;stroke-linecap:butt;stroke-linejoin:miter;stroke-miterlimit:4;stroke-opacity:1;stroke-dasharray:none;stroke-dashoffset:0;marker:none;visibility:visible;display:inline;overflow:visible;enable-background:accumulate"
       d="m 194.45437,159.6492 c 10.10152,3.14072 20.20305,10.49453 30.30457,8.83884 0.51182,-17.30439 7.8449,-34.12155 0,-52.02286 -8.43532,4.95285 -20.07826,28.08225 -30.30457,43.18402 z"
       id="path11187"
       inkscape:connector-curvature="0"
       transform="translate(88.914286,354.29794)"
       sodipodi:nodetypes="cccc" />
    <path
       style="color:#000000;fill:none;stroke:#000000;stroke-width:3.5999999;stroke-linecap:butt;stroke-linejoin:miter;stroke-miterlimit:4;stroke-opacity:1;stroke-dasharray:none;stroke-dashoffset:0;marker:none;visibility:visible;display:inline;overflow:visible;enable-background:accumulate"
       d="m 233.59778,169.49819 c 7.82011,0.57831 16.40021,2.35245 26.76904,-0.25253 -1.02104,-17.65133 -4.76187,-34.77814 -12.37437,-51.77033 -7.85804,9.42421 -9.53137,33.61444 -14.39467,52.02286 z"
       id="path11189"
       inkscape:connector-curvature="0"
       transform="translate(88.914286,354.29794)"
       sodipodi:nodetypes="cccc" />
    <path
       style="color:#000000;fill:none;stroke:#000000;stroke-width:3.5999999;stroke-linecap:butt;stroke-linejoin:miter;stroke-miterlimit:4;stroke-opacity:1;stroke-dasharray:none;stroke-dashoffset:0;marker:none;visibility:visible;display:inline;overflow:visible;enable-background:accumulate"
       d="M 134.28572,30.184017 C 125.84792,75.033992 115.78654,123.02522 173.92857,162.32688 139.73295,157.58105 103.61758,139.7566 68.571429,149.46973 53.530538,143.14082 33.258313,145.37254 40,103.3983 69.22794,63.1742 102.3134,48.453149 134.28572,30.184017 z"
       id="path11191"
       inkscape:connector-curvature="0"
       transform="translate(88.914286,354.29794)"
       sodipodi:nodetypes="ccccc" />
    <path
       style="color:#000000;fill:none;stroke:#000000;stroke-width:3.5999999;stroke-linecap:butt;stroke-linejoin:miter;stroke-miterlimit:4;stroke-opacity:1;stroke-dasharray:none;stroke-dashoffset:0;marker:none;visibility:visible;display:inline;overflow:visible;enable-background:accumulate"
       d="M 311.63206,163.68981 C 348.42299,139.58218 378.09212,109.8912 344.46202,20.753229 389.4121,30.749912 432.30165,49.675586 469.21586,94.494365 417.99834,121.49074 366.7923,148.52157 311.63206,163.68981 z"
       id="path11193"
       inkscape:connector-curvature="0"
       transform="translate(88.914286,354.29794)"
       sodipodi:nodetypes="cccc" />
    <path
       style="color:#000000;fill:#000000;fill-opacity:1;stroke:none;stroke-width:3.5999999;marker:none;visibility:visible;display:inline;overflow:visible;enable-background:accumulate"
       d="m 200.51528,158.13397 c 2.14466,1.98013 5.35893,2.89066 8.83884,3.53554 5.04631,-12.07022 10.3292,-23.79782 13.63705,-38.3858 -7.49196,8.4778 -14.98392,23.21081 -22.47589,34.85026 z"
       id="path11745"
       inkscape:connector-curvature="0"
       transform="translate(88.914286,354.29794)"
       sodipodi:nodetypes="cccc" />
    <path
       style="color:#000000;fill:#000000;fill-opacity:1;stroke:none;stroke-width:3.5999999;marker:none;visibility:visible;display:inline;overflow:visible;enable-background:accumulate"
       d="m 211.37442,161.66951 c 2.92124,1.28773 4.70338,3.71456 10.10152,2.52538 1.44942,-12.99861 5.5188,-21.88905 2.77793,-37.88072 -3.4847,12.98112 -8.05612,25.05149 -12.87945,35.35534 z"
       id="path11747"
       inkscape:connector-curvature="0"
       transform="translate(88.914286,354.29794)"
       sodipodi:nodetypes="cccc" />
    <path
       style="color:#000000;fill:#000000;fill-opacity:1;stroke:none;stroke-width:3.5999999;marker:none;visibility:visible;display:inline;overflow:visible;enable-background:accumulate"
       d="m 236.96429,166.96973 c 3.5119,0.5765 7.02381,0.90643 10.53571,0.53572 l 0,-43.39286 c -4.32082,9.65785 -7.08316,28.23185 -10.53571,42.85714 z"
       id="path11749"
       inkscape:connector-curvature="0"
       transform="translate(88.914286,354.29794)"
       sodipodi:nodetypes="cccc" />
    <path
       style="color:#000000;fill:#000000;fill-opacity:1;stroke:none;stroke-width:3.5999999;marker:none;visibility:visible;display:inline;overflow:visible;enable-background:accumulate"
       d="m 248.57143,127.68402 c 5.64093,11.18137 5.70991,26.05692 8.39286,38.92857 -2.55953,1.20831 -5.11905,1.22943 -7.67857,0.53571 z"
       id="path11751"
       inkscape:connector-curvature="0"
       transform="translate(88.914286,354.29794)"
       sodipodi:nodetypes="cccc" />
    <path
       style="color:#000000;fill:#000000;fill-opacity:1;stroke:none;stroke-width:3.5999999;marker:none;visibility:visible;display:inline;overflow:visible;enable-background:accumulate"
       d="m 273.92857,118.57687 c 11.55989,7.56575 18.43028,22.50072 26.96429,34.82143 -3.22401,1.69015 -5.32475,5.2524 -9.82143,4.82143 z"
       id="path11753"
       inkscape:connector-curvature="0"
       transform="translate(88.914286,354.29794)"
       sodipodi:nodetypes="cccc" />
    <path
       style="color:#000000;fill:#000000;fill-opacity:1;stroke:none;stroke-width:3.5999999;marker:none;visibility:visible;display:inline;overflow:visible;enable-background:accumulate"
       d="m 272.67857,119.11259 16.78571,40 c -5.01777,2.58262 -10.08459,5.55769 -14.64285,4.46428 -0.799,-14.82143 -3.03442,-29.64285 -2.14286,-44.46428 z"
       id="path11755"
       inkscape:connector-curvature="0"
       transform="translate(88.914286,354.29794)"
       sodipodi:nodetypes="cccc" />
    <path
       style="color:#000000;fill:#000000;fill-opacity:1;stroke:none;stroke-width:3.5999999;marker:none;visibility:visible;display:inline;overflow:visible;enable-background:accumulate"
       d="m 297.61619,107.24754 24.87501,27.77919 c -1.67046,3.67223 -4.12966,4.18949 -6.43972,5.30331 -6.16413,-11.00609 -14.79624,-19.2357 -18.43529,-33.0825 z"
       id="path11757"
       inkscape:connector-curvature="0"
       transform="translate(88.914286,354.29794)"
       sodipodi:nodetypes="cccc" />
    <path
       style="color:#000000;fill:#000000;fill-opacity:1;stroke:none;stroke-width:3.5999999;marker:none;visibility:visible;display:inline;overflow:visible;enable-background:accumulate"
       d="m 300.14157,108.25769 c 9.78274,2.68026 18.94416,11.83758 27.77921,18.94037 -0.3967,4.60014 -2.67071,4.97632 -4.29316,6.81852 z"
       id="path11759"
       inkscape:connector-curvature="0"
       transform="translate(88.914286,354.29794)"
       sodipodi:nodetypes="cccc" />
    <path
       style="color:#000000;fill:#000000;fill-opacity:1;stroke:none;stroke-width:3.5999999;marker:none;visibility:visible;display:inline;overflow:visible;enable-background:accumulate"
       d="m 306.07622,80.731036 34.21892,13.131984 c -0.44552,5.187513 -1.78538,9.83842 -3.91434,14.01587 -10.90539,-8.781331 -24.03031,-16.822816 -30.30458,-27.147854 z"
       id="path11761"
       inkscape:connector-curvature="0"
       transform="translate(88.914286,354.29794)"
       sodipodi:nodetypes="cccc" />
    <path
       style="color:#000000;fill:#000000;fill-opacity:1;stroke:none;stroke-width:3.5999999;marker:none;visibility:visible;display:inline;overflow:visible;enable-background:accumulate"
       d="m 308.47533,80.478498 c 7.72123,-4.50049 21.4461,-1.905767 32.45115,-2.525381 0.46862,3.629257 0.19221,10.08946 -1.01015,13.384522 z"
       id="path11763"
       inkscape:connector-curvature="0"
       transform="translate(88.914286,354.29794)"
       sodipodi:nodetypes="cccc" />
    <path
       style="color:#000000;fill:#000000;fill-opacity:1;stroke:none;stroke-width:3.5999999;marker:none;visibility:visible;display:inline;overflow:visible;enable-background:accumulate"
       d="m 303.42457,56.487376 c 8.35371,-8.632004 22.00858,-9.862063 33.4613,-13.763329 1.14915,2.174959 1.9578,4.435046 1.76778,6.944799 z"
       id="path11765"
       inkscape:connector-curvature="0"
       transform="translate(88.914286,354.29794)"
       sodipodi:nodetypes="cccc" />
    <path
       style="color:#000000;fill:#000000;fill-opacity:1;stroke:none;stroke-width:3.5999999;marker:none;visibility:visible;display:inline;overflow:visible;enable-background:accumulate"
       d="m 304.05592,57.24499 c 11.55515,-1.975143 22.87039,-4.430123 34.72399,-5.808377 1.63921,3.416307 1.50368,5.767773 1.51523,8.207489 z"
       id="path11767"
       inkscape:connector-curvature="0"
       transform="translate(88.914286,354.29794)"
       sodipodi:nodetypes="cccc" />
    <path
       style="color:#000000;fill:#000000;fill-opacity:1;stroke:none;stroke-width:3.5999999;marker:none;visibility:visible;display:inline;overflow:visible;enable-background:accumulate"
       d="m 297.995,31.359831 c 2.84485,-5.988233 6.37755,-11.517906 11.23795,-16.162441 6.06091,-0.671128 12.12183,0.876607 18.18274,2.146574 z"
       id="path11769"
       inkscape:connector-curvature="0"
       transform="translate(88.914286,354.29794)"
       sodipodi:nodetypes="cccc" />
    <path
       style="color:#000000;fill:#000000;fill-opacity:1;stroke:none;stroke-width:3.5999999;marker:none;visibility:visible;display:inline;overflow:visible;enable-background:accumulate"
       d="m 297.86873,32.369983 29.7995,-13.637059 c 3.44979,2.904189 3.49077,5.808377 4.04061,8.712566 -10.20795,2.560237 -23.29662,4.377442 -33.84011,4.924493 z"
       id="path11771"
       inkscape:connector-curvature="0"
       transform="translate(88.914286,354.29794)"
       sodipodi:nodetypes="cccc" />
    <path
       style="color:#000000;fill:#000000;fill-opacity:1;stroke:none;stroke-width:3.5999999;marker:none;visibility:visible;display:inline;overflow:visible;enable-background:accumulate"
       d="m 277.53941,19.490538 c -1.41766,-2.962404 -1.31341,-5.707393 -0.3788,-8.333758 l 4.16687,0.252538 z"
       id="path11773"
       inkscape:connector-curvature="0"
       transform="translate(88.914286,354.29794)"
       sodipodi:nodetypes="cccc" />
    <path
       style="color:#000000;fill:#000000;fill-opacity:1;stroke:none;stroke-width:3.5999999;marker:none;visibility:visible;display:inline;overflow:visible;enable-background:accumulate"
       d="m 278.29703,19.869346 3.78807,-8.20749 7.19734,0.505076 c -3.42819,4.436375 -7.23498,5.843962 -10.98541,7.702414 z"
       id="path11775"
       inkscape:connector-curvature="0"
       transform="translate(88.914286,354.29794)"
       sodipodi:nodetypes="cccc" />
    <path
       style="color:#000000;fill:#000000;fill-opacity:1;stroke:none;stroke-width:3.5999999;marker:none;visibility:visible;display:inline;overflow:visible;enable-background:accumulate"
       d="m 252.79068,10.146627 4.16687,0.126269 c 0.007,1.296813 0.10366,2.616277 -0.88388,3.661803 -1.84908,-0.885317 -2.77638,-2.231521 -3.28299,-3.788072 z"
       id="path11777"
       inkscape:connector-curvature="0"
       transform="translate(88.914286,354.29794)"
       sodipodi:nodetypes="cccc" />
    <path
       style="color:#000000;fill:#000000;fill-opacity:1;stroke:none;stroke-width:3.5999999;marker:none;visibility:visible;display:inline;overflow:visible;enable-background:accumulate"
       d="m 222.61237,11.788125 c 2.75231,0.23553 6.61958,0.08682 8.71256,-0.505076 l -0.25253,4.545686 c -3.90259,0.0844 -7.58712,-1.768588 -8.46003,-4.04061 z"
       id="path11779"
       inkscape:connector-curvature="0"
       transform="translate(88.914286,354.29794)"
       sodipodi:nodetypes="cccc" />
    <path
       style="color:#000000;fill:#000000;fill-opacity:1;stroke:none;stroke-width:3.5999999;marker:none;visibility:visible;display:inline;overflow:visible;enable-background:accumulate"
       d="m 197.61109,16.081273 5.68211,-0.378807 c 1.29938,2.492789 3.06433,4.892465 2.77792,7.702413 z"
       id="path11781"
       inkscape:connector-curvature="0"
       transform="translate(88.914286,354.29794)"
       sodipodi:nodetypes="cccc" />
    <path
       style="color:#000000;fill:#000000;fill-opacity:1;stroke:none;stroke-width:3.5999999;marker:none;visibility:visible;display:inline;overflow:visible;enable-background:accumulate"
       d="m 187.13076,17.217695 c 2.84786,-0.266782 4.66842,-1.560856 8.71257,-0.631345 l 9.34391,7.449875 c -6.01883,-0.877581 -12.03765,-2.593616 -18.05648,-6.81853 z"
       id="path11783"
       inkscape:connector-curvature="0"
       transform="translate(88.914286,354.29794)"
       sodipodi:nodetypes="cccc" />
    <path
       style="color:#000000;fill:#000000;fill-opacity:1;stroke:none;stroke-width:3.5999999;marker:none;visibility:visible;display:inline;overflow:visible;enable-background:accumulate"
       d="m 155.05842,26.435337 c 4.05041,-0.679781 8.09768,-1.36426 11.49048,-3.030457 7.43726,7.136275 16.52686,14.992183 24.62247,19.824243 z"
       id="path11785"
       inkscape:connector-curvature="0"
       transform="translate(88.914286,354.29794)"
       sodipodi:nodetypes="cccc" />
    <path
       style="color:#000000;fill:#000000;fill-opacity:1;stroke:none;stroke-width:3.5999999;marker:none;visibility:visible;display:inline;overflow:visible;enable-background:accumulate"
       d="m 148.74497,44.870621 c -0.10697,-5.844032 3.60959,-11.42371 5.3033,-16.667517 l 36.23921,15.657364 c -8.03988,2.773093 -35.94195,3.810451 -41.54251,1.010153 z"
       id="path11787"
       inkscape:connector-curvature="0"
       transform="translate(88.914286,354.29794)"
       sodipodi:nodetypes="cccc" />
    <path
       style="color:#000000;fill:#000000;fill-opacity:1;stroke:none;stroke-width:3.5999999;marker:none;visibility:visible;display:inline;overflow:visible;enable-background:accumulate"
       d="m 144.32555,62.043214 -1.01016,8.965104 40.4061,-3.535534 z"
       id="path11789"
       inkscape:connector-curvature="0"
       transform="translate(88.914286,354.29794)"
       sodipodi:nodetypes="cccc" />
    <path
       style="color:#000000;fill:#000000;fill-opacity:1;stroke:none;stroke-width:3.5999999;marker:none;visibility:visible;display:inline;overflow:visible;enable-background:accumulate"
       d="m 143.6942,84.014032 c -1.49795,-0.796159 -1.31979,-11.374097 -0.50508,-11.490485 l 38.51207,-3.661803 c -10.41062,8.505848 -25.80165,10.535009 -38.00699,15.152288 z"
       id="path11791"
       inkscape:connector-curvature="0"
       transform="translate(88.914286,354.29794)"
       sodipodi:nodetypes="cccc" />
    <path
       style="color:#000000;fill:#000000;fill-opacity:1;stroke:none;stroke-width:3.5999999;marker:none;visibility:visible;display:inline;overflow:visible;enable-background:accumulate"
       d="m 145.3357,99.545128 c 0.38683,2.121192 0.77377,4.242412 2.14657,6.692262 l 35.22907,-14.142137 c -14.14652,2.061299 -24.91709,4.966583 -37.37564,7.449875 z"
       id="path11793"
       inkscape:connector-curvature="0"
       transform="translate(88.914286,354.29794)"
       sodipodi:nodetypes="cccc" />
    <path
       style="color:#000000;fill:#000000;fill-opacity:1;stroke:none;stroke-width:3.5999999;marker:none;visibility:visible;display:inline;overflow:visible;enable-background:accumulate"
       d="m 148.23989,107.87889 c 0.47562,3.13293 1.66882,6.28546 4.04061,9.47018 9.54125,-7.68068 20.88226,-14.01154 28.03173,-23.48605 z"
       id="path11795"
       inkscape:connector-curvature="0"
       transform="translate(88.914286,354.29794)"
       sodipodi:nodetypes="cccc" />
    <path
       style="color:#000000;fill:#000000;fill-opacity:1;stroke:none;stroke-width:3.5999999;marker:none;visibility:visible;display:inline;overflow:visible;enable-background:accumulate"
       d="m 161.75068,130.85986 c 0.88223,2.31517 2.94793,4.46127 6.18718,6.43972 l 34.85026,-29.7995 c -12.88275,5.38346 -27.35051,15.5497 -41.03744,23.35978 z"
       id="path11797"
       inkscape:connector-curvature="0"
       transform="translate(88.914286,354.29794)"
       sodipodi:nodetypes="cccc" />
    <path
       style="color:#000000;fill:#000000;fill-opacity:1;stroke:none;stroke-width:3.5999999;marker:none;visibility:visible;display:inline;overflow:visible;enable-background:accumulate"
       d="m 169.95817,138.436 c 3.42855,3.1389 6.91987,7.21423 14.14213,10.98541 6.36339,-13.32352 16.59442,-26.40532 18.18275,-40.02729 z"
       id="path11799"
       inkscape:connector-curvature="0"
       transform="translate(88.914286,354.29794)"
       sodipodi:nodetypes="cccc" />
    <path
       style="color:#000000;fill:#000000;fill-opacity:1;stroke:none;stroke-width:3.5999999;marker:none;visibility:visible;display:inline;overflow:visible;enable-background:accumulate"
       d="m 110.35917,53.078111 c 5.8647,-7.413808 9.08072,-7.054649 16.16769,-11.412803 -12.12496,44.860001 -8.37235,80.666212 25.24112,110.055862 -7.57366,-1.66918 -10.09657,-1.662 -17.67023,-6.46664 -22.2142,-22.98019 -31.80549,-42.13689 -23.73858,-92.176419 z"
       id="path11801"
       inkscape:connector-curvature="0"
       transform="translate(88.914286,354.29794)"
       sodipodi:nodetypes="ccccc" />
    <path
       style="color:#000000;fill:#000000;fill-opacity:1;stroke:none;stroke-width:3.5999999;marker:none;visibility:visible;display:inline;overflow:visible;enable-background:accumulate"
       d="m 112.5,142.77593 c 3.91466,1.24612 11.89345,4.41849 16.43601,3.15302 C 97.642359,119.74494 94.817159,85.62443 105.30855,53.015778 100.24903,53.594531 97.462351,58.177428 92.402829,61.94435 86.219904,94.937943 94.00756,122.00851 112.5,142.77593 z"
       id="path11803"
       inkscape:connector-curvature="0"
       transform="translate(88.914286,354.29794)"
       sodipodi:nodetypes="ccccc" />
    <path
       style="color:#000000;fill:none;stroke:#000000;stroke-width:3.5999999;stroke-linecap:butt;stroke-linejoin:miter;stroke-miterlimit:4;stroke-opacity:1;stroke-dasharray:none;stroke-dashoffset:0;marker:none;visibility:visible;display:inline;overflow:visible;enable-background:accumulate"
       d="M 109.85409,147.77992 C 86.076188,122.76371 78.634775,91.895448 83.085047,62.169484"
       id="path11805"
       inkscape:connector-curvature="0"
       transform="translate(88.914286,354.29794)"
       sodipodi:nodetypes="cc" />
    <path
       style="color:#000000;fill:#000000;fill-opacity:1;stroke:none;stroke-width:3.5999999;marker:none;visibility:visible;display:inline;overflow:visible;enable-background:accumulate"
       d="m 70.18022,78.22732 c 2.880702,-2.371209 2.263709,-5.881815 6.338835,-6.461387 -1.639085,24.75866 2.473934,48.372327 21.970819,70.205597 -4.819935,-0.37748 -4.707958,-1.30024 -10.188184,-0.35714 C 74.064211,119.08528 69.709953,98.930652 70.18022,78.22732 z"
       id="path11807"
       inkscape:connector-curvature="0"
       transform="translate(88.914286,354.29794)"
       sodipodi:nodetypes="ccccc" />
    <path
       style="color:#000000;fill:#000000;fill-opacity:1;stroke:none;stroke-width:3.5999999;marker:none;visibility:visible;display:inline;overflow:visible;enable-background:accumulate"
       d="m 59.259804,88.162965 c 1.533257,-4.509632 3.059944,-4.389545 5.895036,-6.295507 0.494567,18.687822 9.330289,42.426402 19.192897,61.114232 -4.03355,0.86838 -3.517069,-2.37028 -6.948515,-0.4797 C 69.6874,126.90031 61.074645,112.28251 59.259804,88.162965 z"
       id="path11809"
       inkscape:connector-curvature="0"
       transform="translate(88.914286,354.29794)"
       sodipodi:nodetypes="ccccc" />
    <path
       style="color:#000000;fill:#000000;fill-opacity:1;stroke:none;stroke-width:3.5999999;marker:none;visibility:visible;display:inline;overflow:visible;enable-background:accumulate"
       d="m 50.839389,100.13686 c 1.714431,-5.494152 2.246954,-6.209263 5.224078,-9.178029 1.634359,25.806519 9.29137,37.238689 15.805297,52.066189 l -3.936005,1.76776 C 57.511596,134.36201 54.057348,117.15361 50.839389,100.13686 z"
       id="path11811"
       inkscape:connector-curvature="0"
       transform="translate(88.914286,354.29794)"
       sodipodi:nodetypes="ccccc" />
    <path
       style="color:#000000;fill:none;stroke:#000000;stroke-width:3.5999999;stroke-linecap:butt;stroke-linejoin:miter;stroke-miterlimit:4;stroke-opacity:1;stroke-dasharray:none;stroke-dashoffset:0;marker:none;visibility:visible;display:inline;overflow:visible;enable-background:accumulate"
       d="m 44.951788,104.59589 c -4.674894,18.13191 0.498881,34.21838 15.909903,37.62819 -7.56896,-8.8346 -13.727161,-24.08065 -15.909903,-37.62819 z"
       id="path11813"
       inkscape:connector-curvature="0"
       transform="translate(88.914286,354.29794)"
       sodipodi:nodetypes="ccc" />
    <path
       style="color:#000000;fill:#000000;fill-opacity:1;stroke:none;stroke-width:3.5999999;marker:none;visibility:visible;display:inline;overflow:visible;enable-background:accumulate"
       d="m 339.19461,148.56291 c 16.3424,-16.89491 39.75502,-42.7538 14.89975,-119.414646 5.80838,-1.587343 5.26741,0.473688 11.07579,3.474258 16.30475,61.622901 8.63534,77.177608 -6.96647,107.902488 -7.46725,2.6196 -13.34832,10.83779 -19.00907,8.0379 z"
       id="path11815"
       inkscape:connector-curvature="0"
       transform="translate(88.914286,354.29794)"
       sodipodi:nodetypes="ccccc" />
    <path
       style="color:#000000;fill:#000000;fill-opacity:1;stroke:none;stroke-width:3.5999999;marker:none;visibility:visible;display:inline;overflow:visible;enable-background:accumulate"
       d="m 363.14984,140.96138 c 15.6567,-26.2744 25.09511,-62.112108 8.08122,-107.328706 5.21912,-1.010155 6.90272,0.420899 12.12184,4.798224 12.37021,34.495385 9.92253,66.002482 -7.57616,97.479722 -5.21912,2.77123 -7.40778,4.84257 -12.6269,5.05076 z"
       id="path11817"
       inkscape:connector-curvature="0"
       transform="translate(88.914286,354.29794)"
       sodipodi:nodetypes="ccccc" />
    <path
       style="color:#000000;fill:#000000;fill-opacity:1;stroke:none;stroke-width:3.5999999;marker:none;visibility:visible;display:inline;overflow:visible;enable-background:accumulate"
       d="m 384.86812,131.61747 c 8.13531,-27.90891 18.99436,-56.412073 4.54569,-91.418804 9.45777,1.486245 11.27566,4.740596 16.16244,8.838834 5.89341,28.245599 2.81097,54.80635 -8.5863,77.02414 -5.55584,3.9545 -6.56599,4.28582 -12.12183,5.55583 z"
       id="path11819"
       inkscape:connector-curvature="0"
       transform="translate(88.914286,354.29794)"
       sodipodi:nodetypes="ccccc" />
    <path
       style="color:#000000;fill:none;stroke:#000000;stroke-width:3.5999999;stroke-linecap:butt;stroke-linejoin:miter;stroke-miterlimit:4;stroke-opacity:1;stroke-dasharray:none;stroke-dashoffset:0;marker:none;visibility:visible;display:inline;overflow:visible;enable-background:accumulate"
       d="m 408.35417,126.06163 c 9.4305,-18.29338 15.57592,-39.471398 5.80837,-78.286821"
       id="path11821"
       inkscape:connector-curvature="0"
       transform="translate(88.914286,354.29794)"
       sodipodi:nodetypes="cc" />
    <path
       style="color:#000000;fill:#000000;fill-opacity:1;stroke:none;stroke-width:3.5999999;marker:none;visibility:visible;display:inline;overflow:visible;enable-background:accumulate"
       d="m 416.94046,116.71772 14.39468,-7.82868 c 6.18161,-15.089423 4.52961,-30.026017 1.26269,-44.446713 -3.09917,-4.178626 -7.00425,-7.01407 -12.12183,-7.828683 13.84261,33.350726 2.56095,49.896066 -3.53554,60.104076 z"
       id="path11823"
       inkscape:connector-curvature="0"
       transform="translate(88.914286,354.29794)"
       sodipodi:nodetypes="ccccc" />
    <path
       style="color:#000000;fill:none;stroke:#000000;stroke-width:3.5999999;stroke-linecap:butt;stroke-linejoin:miter;stroke-miterlimit:4;stroke-opacity:1;stroke-dasharray:none;stroke-dashoffset:0;marker:none;visibility:visible;display:inline;overflow:visible;enable-background:accumulate"
       d="m 438.40621,103.58574 c 3.90453,-10.94678 6.56601,-21.97643 0.50507,-33.587574 8.43448,5.909591 16.02931,13.641637 20.45559,22.223356 -7.57147,8.301058 -13.99234,7.285202 -20.96066,11.364218 z"
       id="path11825"
       inkscape:connector-curvature="0"
       transform="translate(88.914286,354.29794)"
       sodipodi:nodetypes="cccc" />
    <path
       style="color:#000000;fill:#000000;fill-opacity:1;stroke:none;stroke-width:3.5999999;marker:none;visibility:visible;display:inline;overflow:visible;enable-background:accumulate"
       d="m 443.7095,97.777361 c 1.43046,-4.742893 2.81837,-9.542524 2.27285,-16.920055 3.83492,3.324132 7.7748,6.627275 8.33376,10.606602 -3.10582,4.253039 -6.84057,5.361476 -10.60661,6.313453 z"
       id="path11827"
       inkscape:connector-curvature="0"
       transform="translate(88.914286,354.29794)"
       sodipodi:nodetypes="cccc" />
  </g>
</svg>
