<?xml version="1.0" encoding="UTF-8" standalone="no"?>
<!-- Created with Inkscape (http://www.inkscape.org/) -->

<svg
   xmlns:dc="http://purl.org/dc/elements/1.1/"
   xmlns:cc="http://creativecommons.org/ns#"
   xmlns:rdf="http://www.w3.org/1999/02/22-rdf-syntax-ns#"
   xmlns:svg="http://www.w3.org/2000/svg"
   xmlns="http://www.w3.org/2000/svg"
   xmlns:sodipodi="http://sodipodi.sourceforge.net/DTD/sodipodi-0.dtd"
   xmlns:inkscape="http://www.inkscape.org/namespaces/inkscape"
   width="744.09448819"
   height="1052.3622047"
   id="svg3036"
   version="1.1"
   inkscape:version="0.48.2 r9819"
   sodipodi:docname="Statistician.svg">
  <defs
     id="defs3038" />
  <sodipodi:namedview
     id="base"
     pagecolor="#ffffff"
     bordercolor="#666666"
     borderopacity="1.0"
     inkscape:pageopacity="0.0"
     inkscape:pageshadow="2"
     inkscape:zoom="1.4"
     inkscape:cx="397.37076"
     inkscape:cy="774.36069"
     inkscape:document-units="px"
     inkscape:current-layer="layer1"
     showgrid="false"
     inkscape:window-width="1275"
     inkscape:window-height="752"
     inkscape:window-x="0"
     inkscape:window-y="0"
     inkscape:window-maximized="0" />
  <metadata
     id="metadata3041">
    <rdf:RDF>
      <cc:Work
         rdf:about="">
        <dc:format>image/svg+xml</dc:format>
        <dc:type
           rdf:resource="http://purl.org/dc/dcmitype/StillImage" />
        <dc:title />
      </cc:Work>
    </rdf:RDF>
  </metadata>
  <g
     inkscape:label="Layer 1"
     inkscape:groupmode="layer"
     id="layer1">
    <g
       id="g4065"
       transform="translate(84.852814,4.0406102)">
      <path
         sodipodi:nodetypes="ccccccccccccccccccccccccccccc"
         inkscape:connector-curvature="0"
         id="path4063"
         d="m 501.78572,64.505035 c -6.30181,-4.11209 -43.23573,30.914663 -44.70414,38.044695 5.90502,-1.11369 12.85425,-6.665315 17.56128,-2.687552 -5.53821,10.420372 -18.94323,16.325522 -22.85714,27.500002 6.09013,2.9766 11.12343,-4.08668 16.61612,-6.78572 -3.35355,12.8443 -11.34481,15.89788 -17.3954,23.04841 l 12.92213,-4.83412 -24.28942,26.4719 c 6.07142,-3.90005 14.7945,-12.11292 20.86593,-11.82904 -7.30178,13.3104 -17.49178,25.42923 -21.17604,40.5484 8.15116,-10.00157 14.4676,-15.41633 21.38525,-22.33412 -2.74385,13.03476 -11.49694,25.06797 -17.85715,37.5 7.68759,-0.5772 12.32969,-7.24538 18.21429,-11.42857 -0.18852,4.73298 -0.67976,9.50921 3.70141,13.58937 -4.39078,5.95875 -6.59935,11.48105 -7.62998,16.76777 12.68708,-1.19769 16.87715,-15.42225 15.88017,-0.35714 L 565,215.21932 c -1.00703,-8.87409 -8.27692,-15.3996 -14.40826,-22.35206 9.80275,-4.32539 19.60551,-0.42736 29.40826,2.35206 -0.8849,-6.19646 -9.25149,-12.39292 -16.59445,-18.58937 l 20.88017,0.0179 c -0.16781,-3.95812 -7.7526,-9.15241 -11.68111,-13.73731 l 16.68111,5.16588 c -2.56917,-10.18166 -21.3668,-17.86664 -32.14286,-26.78571 1.78143,-3.71986 5.44339,-4.99502 13.92857,0 l -13.21428,-24.64286 11.42857,0.71429 c -8.76245,-23.718816 -34.69825,-59.42482 -67.5,-52.857145 z"
         style="fill:#e5c935;fill-opacity:1;stroke:none" />
      <path
         sodipodi:nodetypes="ccccccccccccccccccc"
         inkscape:connector-curvature="0"
         id="path4059"
         d="m 156.57365,383.38865 c 3.17042,-6.94123 3.12464,-16.31407 5.90289,-22.86815 8.75766,-30.10853 6.62959,-47.92063 18.33227,-58.18205 17.4331,-11.73481 45.77963,-18.60207 64.40572,-30.82419 l 8.5863,-20.70812 13.13198,33.58757 c 25.23721,-17.84813 28.60046,-7.83484 44.44671,-27.27412 4.77357,5.44894 11.77882,9.68059 20.19974,13.14006 -3.47117,10.96587 25.79533,9.29473 41.16703,12.36629 12.29019,8.90512 24.58038,21.73375 36.87057,33.84011 7.17042,-2.25694 12.49663,3.78505 18.43529,7.07107 8.95124,22.00133 -16.17303,38.50093 -27.02159,48.9924 -9.64914,0.52992 -14.01675,-4.0513 -16.31826,-10.63199 l -23.87601,-24.21564 c 4.92534,51.40807 -8.64797,102.81613 16.73143,154.2242 l -158.36462,0.83158 c 1.58738,-16.88366 1.48615,-33.93619 -6.35677,-51.76288 L 185.7418,395.63676 z"
         style="fill:#4bda56;fill-opacity:1;stroke:none" />
      <path
         sodipodi:nodetypes="ccccccccccccscccccccccccccccccccccccccccsccssccsccc"
         inkscape:connector-curvature="0"
         id="path4045"
         d="m 291.96875,137.1875 c -25.57852,24.01659 -83.75566,16.39666 -38.875,110.0625 l 13.875,36.71875 c -2.24774,8.23255 -9.34754,17.00025 -14.28125,25.53125 3.1458,18.06915 -2.74924,43.50402 -16.6875,49.96875 -13.82824,8.32778 -27.51819,14.21941 -50.8125,35.9375 l -25.90625,-10.375 -6.59375,55.71875 c 6.85798,27.04438 26.23387,41.33915 42.125,23.9375 21.48988,-24.04986 32.96984,-54.2357 48.53125,-81.875 11.07865,-13.34835 23.36818,-26.44363 37.375,-40.28125 4.85564,-12.85359 13.12186,-22.98316 21.25,-33.21875 -4.27954,-1.58913 -11.2311,1.53222 -16.28125,6 -4.03309,3.568 -5.71883,7.7264 -9.21875,9 l -8.0625,-7.65625 c 1.11095,-5.84036 1.73527,-11.80493 5.75,-17 6.24759,2.97797 9.28963,7.34536 13.375,11.25 2.08362,-1.90462 4.76217,-5.60998 5.5,-8.1875 3.68922,1.55519 5.12651,6.59039 12.125,3.03125 l -8.1875,-6.78125 c 10.61269,-8.79207 11.75517,-27.05882 13.9375,-44.28125 38.35621,-38.4501 66.53217,-77.06338 -18.9375,-117.5 z m 212.35977,51.61025 -2.01602,3.171 C 500.54027,188.2209 498.44564,187.37468 496,189.6875 l -1.2914,5.0625 c 4.40274,-1.56251 19.21571,15.19173 -13.36485,26.5 l -7.45733,7.84883 c -1.16698,-3.46003 -0.44271,-6.92005 -0.38642,-10.38008 l -9.57344,7.59962 -34.86406,95.71288 c 2.26076,18.84292 -11.0952,32.83281 -27.01602,50.75761 12.5884,8.07173 26.28273,10.61385 40.89102,8.58614 40.36451,-44.68354 19.17917,-110.96789 49.75,-150.28125 L 569.96875,219.75 c -7.30014,-10.98249 -30.28471,-2.87089 -45.43242,-4.29981 l 1.13388,-9.85644 -8.73779,-14.88515 -0.99492,6.82265 c -3.32721,-3.29863 -6.05419,-7.026 -11.60898,-8.7335 z m -237.42227,4.13975 c 4.02823,0.019 7.64846,2.35361 9.4375,6.65625 -6.67546,-1.3096 -13.45836,-0.4708 -17.15625,-4.28125 3.12625,-1.34556 5.30181,-2.38639 7.71875,-2.375 z m 37.02364,8.0249 c 3.68304,-0.0693 8.54332,2.08133 11.60136,5.50635 -3.57143,2.14499 -10.72321,0.89499 -17.6875,-1.78125 2.20982,-1.12355 3.87632,-3.6835 6.08614,-3.7251 z m -38.89864,34.31885 35.28125,7.4375 c -16.41095,7.91488 -27.9198,2.21249 -35.28125,-7.4375 z"
         style="fill:#eed8ae;fill-opacity:1;stroke:none" />
      <path
         id="path3055"
         d="m 506.15625,60.125 c -22.81886,5.505155 -45.59562,33.852257 -50.78125,44.78125 5.81658,-1.05561 17.65778,-8.354682 18.3125,-3.59375 -10.45764,12.87588 -15.51072,8.85413 -23.65625,28.8125 2.95598,-1.40375 8.8021,-0.32079 16.71875,-8.3125 -0.03,12.72861 -19.52082,19.46967 -23.59375,27.0625 5.8633,-2.36273 14.19669,-6.93588 17.75,-8.8125 -6.68796,11.67921 -20.55994,19.23571 -23.53125,29.40625 7.23128,-4.46541 15.27307,-15.01671 22.1875,-14.71875 -12.02825,14.36839 -19.04812,29.60052 -23.3125,45.34375 6.80363,-9.56064 14.04689,-19.2527 22.9375,-25.09375 -3.37038,13.38854 -13.64923,25.19099 -20.46875,37.96875 6.51792,-2.82465 12.63687,-3.59539 20.28125,-12.78125 -0.53892,2.98018 1.74331,8.5632 4.03125,12.78125 -4.01904,5.0952 -6.18465,11.25219 -8.03125,17.59375 2.50312,-1.26917 5.23193,-1.92512 7.875,-2.8125 -11.79121,31.32466 -22.33149,63.89697 -34.96875,94.375 -3.45838,-3.48615 -11.49264,-7.38403 -17.78125,-7.9375 -0.10637,0.48922 -0.20876,0.9789 -0.3125,1.46875 -12.49082,-11.2152 -21.09716,-24.40669 -34.09375,-31.15625 -12.66322,-9.83799 -30.35144,-2.17518 -43.40625,-9.8125 4.12729,-3.80842 7.73304,-10.27703 10.90625,-26.25 29.33438,-30.2512 28.87685,-62.07979 3.9375,-95.1875 1.05267,-14.9742 -27.09913,-35.34081 -52.96875,-35.28125 -7.91927,0.0182 -15.6293,1.94161 -22.21875,6.53125 -17.59647,15.69347 -41.01068,25.43939 -39.8125,60.375 1.06145,27.31443 4.17517,57.63693 -20.1875,64.8125 11.29264,5.73284 22.1595,5.92619 32.5,-0.71875 -3.93042,4.25618 -7.99366,8.51948 -8.21875,12.3125 1.72619,-2.94484 3.46131,-2.07976 5.1875,0.1875 -2.17184,5.64104 -7.3899,6.70383 -11.25,9.8125 5.80422,-3.18452 11.93584,-1.99737 17.3125,-5.875 -1.4033,1.96602 -1.68133,4.72123 -3.5625,5.84375 -16.9873,10.06639 -36.99673,16.87317 -55.90625,24.875 -20.50455,8.40491 -20.04004,37.72972 -24.875,63.5 l -1.375,0.0625 c -1.83302,2.85589 -2.90874,16.73971 -3.75,17.3125 -1.37498,2.32292 -1.90054,4.64583 -1.96875,6.96875 l 2.34375,1 c -2.79857,19.71583 -6.75858,53.45778 -6.15625,56.25 3.46946,12.26169 6.68832,24.68267 19.96875,30.8125 15.73955,4.96459 18.72053,-2.84825 24.25,-8.09375 5.48868,-5.75544 10.78962,-12.40898 15.875,-19.75 5.45925,19.58785 8.61488,33.06375 4.84375,48.09375 1.28239,-0.18547 1.93338,0.006 3.71875,-0.21875 0.92475,-14.15858 3.73431,-31.86546 -6.75,-50.71875 12.46895,-18.1121 23.21075,-51.93861 31.71875,-60.65625 l 24.09375,-26.03125 c -0.44952,4.46652 4.21358,8.65848 8.46875,13.125 -2.58762,0.63334 -5.08319,3.52784 -7.375,2.625 -0.60729,2.99169 -0.0897,5.90496 0.6875,8.78125 l -1.5625,1.21875 c 0.42308,9.06566 4.23759,16.91813 14.9375,21.3125 0.0919,29.61459 -0.40602,60.88541 -0.125,90.5 l 1.4375,0 c -0.56294,-51.56198 1.38168,-103.86158 -1.71875,-156.6875 1.04501,-2.3142 2.14744,-4.6386 3.1875,-6.49995 2.47112,2.87631 6.78442,-0.90624 2.90625,-4.625 0.84408,-1.18576 1.81151,-2.37214 2.875,-3.625 l 2.78125,4.78125 2.53125,166.875 1.78125,0 L 298,324.5625 l -3.21875,-5.09375 8.59375,-10.25 c -0.86032,-0.4603 -1.71908,-0.71184 -2.59375,-0.84375 l 10.3125,-1.34375 c 0.33277,5.77432 0.61951,11.54188 -0.5625,16.9375 -2.2558,4.44143 -5.15296,4.94978 -7.84375,6.78125 3.1182,-0.92135 6.16199,-1.98702 8.5,-4.46875 2.78167,6.61834 -1.52434,11.81438 -7.78125,16.625 5.42688,-4.343 12.82546,-6.50343 8.28125,-17 0.51099,-0.55272 0.56499,-0.88906 1,-1.59375 0.49122,-5.83763 0.25506,-11.66237 -0.0312,-17.5 l 5,-0.625 c 2.82078,4.60567 7.47792,9.3343 15.75,12.96875 -1.8266,-10.78784 -5.01526,-21.58716 -8.84375,-32.375 3.9437,-1.98788 8.03145,-5.30553 7.25,-11.75 5.01674,10.10844 28.71508,2.07495 42.5,10.90625 14.15499,7.09704 18.33984,19.30137 34.9375,32.4375 -3.13197,15.15843 -6.07208,30.3526 -22.53125,42.3125 -9.75799,-8.3816 -18.80519,-17.96029 -28.875,-25.8125 1.06361,0.96629 2.09941,1.96828 3.125,2.96875 7.93571,7.74138 14.87913,16.37221 22.9375,24 3.52675,9.99609 9.12507,11.00751 15.71875,11.96875 10.95677,6.28073 24.7041,10.07067 43.9375,8.90625 46.6721,-65.94991 24.07016,-133.1651 52.9375,-152.46875 5.88703,-0.52202 71.29112,-7.4329 74.5,-10 -1.11923,-2.42083 -2.89418,-4.15892 -5.15625,-5.375 -2.40981,-7.67107 -5.88113,-14.91904 -13.53125,-20.625 11.32427,-4.46481 17.96437,0.36837 29.78125,2 -4.82012,-11.52268 -2.87848,-11.18282 -14.40625,-17.34375 4.58084,0.59653 13.10413,-2.36741 18.96875,-1 -0.58337,-6.44059 -8.71704,-8.111 -10.78125,-12.8125 11.33334,3.47835 13.93436,4.16404 14.34375,4.21875 0.31587,0.14591 1.00196,0.44949 2.96875,1.1875 -9.40199,-14.92584 -19.42652,-21.16966 -34.46875,-28.6875 0.11881,0.0198 0.51529,-7.27519 14.53125,1.09375 -8.19103,-13.45335 -7.87208,-14.77696 -12.78125,-24.9375 l 11,1.3125 C 564.91746,101.49761 553.76202,86.839475 541.875,76.09375 529.63247,66.089407 516.64425,59.731558 506.15625,60.125 z m -145.1875,277.71875 c 2.94075,48.8208 -13.59525,108.36313 13.9375,154.28125 2.63879,-0.0626 2.54012,0.0107 3.5,0.28125 -22.72899,-50.01899 -14.0877,-104.53462 -17.4375,-154.5625 z M 509.75,64.75 c 10.35357,-0.327094 20.66823,8.045019 30.78125,15.125 9.03223,9.872161 21.76821,16.870154 26.53125,34.84375 l -11.59375,0.0625 14.28125,24.6875 c -11.29224,-5.09442 -8.45707,-1.56707 -15.0625,1.3125 13.96936,13.48681 26.6956,13.12624 32.71875,24.9375 -10.24994,-1.92301 -6.98952,-0.35603 -17.53125,-4.59375 2.17404,6.49181 12.35978,8.98469 13.59375,15.03125 -7.86146,-3.70835 -17.31937,0.79099 -24.65625,-0.96875 4.88448,2.18553 18.20514,12.39415 19.75,19.3125 C 561.58586,185.04705 548,192.21875 548,192.21875 c 5.30493,6.82516 14.05041,13.21387 12.8125,20.875 -9.97596,-2.22277 -24.97763,2.79303 -36,2.15625 0.69894,-2.14672 1.38075,-4.58776 1.75,-7.6875 1.60185,1.66057 3.37887,3.11065 5.40625,4.25 5.56658,-6.4683 2.4372,-16.82239 0.53125,-20.53125 -0.44233,5.30608 2.8902,13.26682 -1.09375,17.6875 -14.78155,-11.57919 -10.56343,-19.41106 -21.0625,-27.5 1.98281,2.67523 3.70536,5.78697 5.40625,9 0.27585,2.04169 0.31588,4.1239 0.0625,6.21875 -2.20768,-3.33038 -5.70709,-6.34948 -10.78125,-8.75 1.04432,-4.44786 -0.20264,-9.23129 -0.96875,-13.65625 0.21868,6.75935 1.1336,11.53907 -1.5625,16.0625 -1.70707,-2.65087 -4.08396,-2.83541 -6.5,-2.40625 -2.19723,6.97413 -2.54683,9.42571 -7.3125,13.71875 -1.75606,-3.79231 -4.73802,-6.23295 -8.875,-7.40625 -2.07552,4.40474 -6.12732,4.90179 -9.59375,6.5625 3.74444,-0.87586 7.88469,-0.88534 10.28125,-4.90625 3.84425,1.4065 6.69129,3.91378 8.15625,7.9375 2.82949,-2.60208 4.79283,-5.61069 6.1875,-8.875 0.43841,-0.0763 0.87522,-0.14885 1.34375,-0.25 13.42086,11.87925 -1.18977,18.17668 -13.15625,25.59375 0.38383,-0.33625 1.27047,-3.46492 1.65625,-3.78125 -2.41993,1.89493 -7.51249,7.92801 -10.5625,11.4375 -1.53776,-3.59845 1.72573,-7.91161 -0.1875,-11.6875 -2.67138,4.75209 -11.26715,10.6225 -15.59375,10.40625 2.25907,-8.89762 5.90097,-12.14032 9.15625,-18.25 -1.09778,0.88531 -2.08615,1.82282 -3,2.8125 -2.89722,-4.75588 -4.67484,-12.04655 -1.3125,-17.53125 -6.70099,6.28583 -13.18664,11.19364 -19.4375,14.9375 7.74006,-10.9568 16.5432,-26.63837 18.53125,-40.34375 -7.20396,6.83405 -14.71212,12.07018 -21.0625,23.125 3.64711,-13.01176 14.7676,-28.63225 21.875,-41.03125 -5.85007,-0.1377 -12.64604,5.0348 -19.6875,11.625 8.58842,-10.52259 26.31655,-25.09844 31.875,-37.40625 -5.36908,8.31154 -19.19491,16.87494 -21.125,17.09375 7.58513,-6.07234 16.00174,-16.66206 15.96875,-24.84375 -7.24812,8.52156 -16.03052,11.95489 -17.59375,10.25 6.94096,-14.34153 15.59484,-13.61669 23.40625,-26.59375 -4.38256,-9.155262 -11.25705,-0.15113 -17.0625,1.25 C 471.8768,82.801186 490.55205,65.35651 509.75,64.75 z m 15.46875,18.375 c -3.62305,2.0203 12.99443,15.38595 12.375,17.40625 1.73174,-1.62149 -9.8615,-13.68356 -12.375,-17.40625 z m -41.40625,2.03125 c -3.62305,2.0203 -4.94307,7.0422 -5.5625,9.0625 1.73174,-1.62149 8.076,-5.33981 5.5625,-9.0625 z m 21.71875,7.03125 c -3.62305,2.0203 2.11943,5.823454 1.5,7.84375 1.73174,-1.621486 1.0135,-4.12106 -1.5,-7.84375 z m -20.96875,23.25 c -3.62305,2.0203 -7.97432,13.13595 -8.59375,15.15625 1.73174,-1.62149 11.10725,-11.43356 8.59375,-15.15625 z m 43.6875,5.96875 c -0.23085,-0.009 -0.48242,0.0268 -0.75,0.0937 -1.09767,4.54568 2.65068,7.82345 2.03125,9.84375 1.62351,-1.52015 2.18156,-9.79554 -1.28125,-9.9375 z m 14.90625,0.34375 c -3.62305,2.0203 11.99443,7.82345 11.375,9.84375 3.70443,-4.25175 -6.79404,-8.87767 -11.375,-9.84375 z m -34.84375,2.78125 c -3.62305,2.0203 -0.91182,4.5422 -1.53125,6.5625 1.73174,-1.62149 4.04475,-2.83981 1.53125,-6.5625 z m -27.75,16.9375 c -3.62305,2.0203 -10.47432,8.82345 -11.09375,10.84375 1.73174,-1.62149 13.60725,-7.12106 11.09375,-10.84375 z m 32.28125,1 c -3.62305,2.0203 -2.16182,4.0422 -2.78125,6.0625 1.73174,-1.62149 5.29475,-2.33981 2.78125,-6.0625 z m -228.75,6.5 c 36.77278,8.24071 41.55231,35.82145 43.46429,58.44196 -15.14166,16.95921 -8.05902,34.34686 -20.99554,48.71429 -6.69923,5.7809 -13.72563,9.87888 -21.21875,10.71875 0.41859,-1.47432 0.85171,-3.14934 1.25,-5.15625 -0.32312,-2.8379 -1.05015,-4.88993 -4.25,-0.15625 L 279,266.75 c -7.0767,-1.00104 -14.57561,-5.07433 -22.5625,-13.46875 -5.9782,-15.42281 -12.50201,-25.48532 -11.09375,-38.0625 -10.73285,-6.86124 -2.9241,-13.68646 -5.875,-23.21875 11.92591,6.69132 12.37688,-43.21838 44.625,-43.03125 z m 245.6875,0.3125 c -3.62305,2.0203 -1.91182,8.8547 -2.53125,10.875 1.73174,-1.62149 5.04475,-7.15231 2.53125,-10.875 z m -35.125,3.78125 c -3.62305,2.0203 -3.94307,13.13595 -4.5625,15.15625 1.73174,-1.62149 7.076,-11.43356 4.5625,-15.15625 z m 55.5625,8.59375 c -3.62305,2.0203 3.65068,6.07345 3.03125,8.09375 1.73174,-1.62149 -0.51775,-4.37106 -3.03125,-8.09375 z m -67.6875,0.5 c -3.62305,2.0203 -2.66182,8.8547 -3.28125,10.875 1.73174,-1.62149 5.79475,-7.15231 3.28125,-10.875 z m 47,3.53125 c -3.62305,2.0203 1.36943,7.07345 0.75,9.09375 1.73174,-1.62149 1.7635,-5.37106 -0.75,-9.09375 z M 464.625,180.09375 c -3.62305,2.0203 0.86943,7.07345 0.25,9.09375 1.73174,-1.62149 2.2635,-5.37106 -0.25,-9.09375 z m -198.40625,3.59375 c -3.36019,-0.0604 -6.87562,0.86906 -9.96875,3.5 6.59467,-1.57543 13.51733,-0.79681 21.0625,4.28125 3.86216,1.55734 4.06045,-0.34465 1.78125,-2.6875 -2.11309,-2.1721 -7.27468,-4.99306 -12.875,-5.09375 z m 269.375,1.96875 c -5.55701,2.98729 8.64906,14.38676 12.59375,14.125 -8.7e-4,-0.75518 -13.60065,-8.64211 -12.59375,-14.125 z m -37.75,3.375 c 1.6502,-0.0489 3.16802,1.39576 4.90625,3.71875 0.77766,-1.01563 1.33774,-2.07803 1.75,-3.15625 15.42538,7.55431 16.6761,22.96875 1.5625,34.5625 -47.45102,5.19246 -18.39545,99.37376 -63.21875,156.0625 -15.98615,2.20329 -28.61181,-1.31628 -39.625,-7.59375 11.60425,-15.43986 28.50971,-29.18681 25.84375,-48.8125 15.01171,-32.25912 24.34321,-66.7889 35.46875,-96.6875 3.38263,-1.33569 6.51385,-3.34889 8.6875,-7.96875 -0.0772,3.92857 -2.56356,7.85268 0.34375,11.78125 1.70587,-2.73505 4.44973,-5.92714 7.40625,-8.6875 13.15003,-7.22484 32.75208,-12.60952 15.78125,-28.53125 -0.46554,0.0216 -0.95363,0.0557 -1.4375,0.0937 0.25056,-0.65867 0.47714,-1.32278 0.6875,-2 1.69299,0.88527 3.59943,1.76658 5.5,2.625 3.88984,1.7569 8.12332,10.9719 10,12.34375 -1.27189,-2.00673 -5.04032,-11.60709 -8.625,-13.46875 -2.22466,-1.15535 -4.48205,-2.20022 -6.40625,-3.15625 0.0738,-0.28142 0.15049,-0.55976 0.21875,-0.84375 0.40113,-0.17776 0.77543,-0.26995 1.15625,-0.28125 z m -193.40625,2.625 c -3.71121,0.13291 -6.79153,0.98962 -8,1.59375 -4.79456,3.70484 -0.27145,3.47829 2.84375,3.21875 7.7381,-0.92368 15.48065,-2.07707 23.21875,5.34375 -3.46377,-6.01689 -9.33642,-10.45741 -18.0625,-10.15625 z m 212.375,0.875 c 2.44064,4.65744 4.93437,9.39387 8.15625,13.28125 -0.0522,3.2796 -0.40365,6.49581 -1.15625,9.65625 13.22412,4.04615 40.26794,-4.87977 45.28125,4.03125 -30.55838,5.7953 -59.0543,6.83704 -72.125,10.4375 3.20253,-2.04361 7.00048,-3.53588 11.59375,-4.375 9.00572,-6.97037 13.53519,-18.96836 7.4375,-28.5625 0.69338,-1.1905 0.90189,-2.72218 0.8125,-4.46875 z m -249.84375,0.1875 c -3.22854,0.008 -6.47537,1.20586 -8.75,3.03125 8.70865,6.10076 14.30773,1.576 19.28125,4.8125 -2.15713,-5.01101 -5.60764,-7.91727 -10.53125,-7.84375 z m -3.4375,0.84375 c -0.22609,2.1252 0.40674,3.60947 1.46875,4.46875 -1.59386,-0.39848 -3.33616,-1.12802 -5.25,-2.46875 1.06081,-0.85131 2.3669,-1.55048 3.78125,-2 z m 9.75,1.71875 c 1.13535,1.03759 2.34351,2.19999 2.96875,4.09375 -1.77364,-1.15419 -3.91224,-0.8882 -6.03125,-0.875 1.37055,-0.58025 2.56052,-1.67541 3.0625,-3.21875 z m 8.15625,0.5625 c -0.056,3.01151 -0.0413,5.98054 -1.46875,9.5 3.11898,-2.96798 2.59667,-6.20126 1.46875,-9.5 z m 23.25,4.80489 c -2.55172,0.0902 -5.17956,1.77199 -7.53125,4.03886 3.29551,0.57801 12.99886,4.78963 18.75,2.125 -0.44412,-1.85912 -5.60496,-6.36241 -11.21875,-6.16386 z m -2.55996,1.78632 c 0.39519,2.04078 1.2382,3.4501 2.52871,3.97129 -2.49956,-0.6422 -4.71064,-1.4153 -5.90625,-1.625 0.99511,-0.95922 2.29469,-1.90033 3.37754,-2.34629 z m 8.99746,1.03379 c 1.9347,1.00603 3.2984,2.28111 3.5,3.125 -2.43358,1.12753 -5.70701,0.79886 -8.71875,0.125 2.25937,0.21659 4.6686,-1.1639 5.21875,-3.25 z m -40.32333,16.3686 c -1.73013,3.29496 -2.92667,6.38258 3.48394,6.40076 4.01316,4.19058 8.07341,6.76984 14.33258,4.15399 4.0246,-0.10401 11.91253,0.97435 6.67478,-6.41049 -0.85097,1.62634 5.74741,5.85122 -6.77731,5.69748 -9.29393,1.74058 -9.64968,-2.01069 -13.42313,-4.08267 -6.50798,-0.42165 -4.31311,-3.40977 -4.29086,-5.75907 z m -8.48917,13.9439 c 6.23221,24.89538 28.91533,25.11661 40.4375,8.90625 -12.47943,-4.77299 -29.4185,-6.53398 -40.4375,-8.90625 z m 0.8125,0.5625 c 1.35565,1.03695 1.16063,0.89226 2.0625,1.375 10.85489,16.25149 25.21832,12.8221 34.78125,7.09375 -9.13634,3.54429 -22.40226,6.85658 -34.0625,-7.03125 8.46197,4.08538 22.63195,7.39741 34.0625,7.03125 0.008,-0.005 0.0236,0.005 0.0312,0 0.57061,-0.0186 1.13165,-0.0251 1.6875,-0.0625 -12.69717,13.60006 -28.37764,13.64458 -38.5625,-8.40625 z m -6.6875,19.625 c 6.07805,6.99644 11.92153,11.1547 17.4375,13.25 -4.05478,5.60592 -5.3462,10.62038 -7,16.21875 -3.1027,-9.92225 -6.9119,-19.673 -10.4375,-29.46875 z M 254.90625,254.5 c 3.87973,11.38986 2.03822,3.27605 11.5625,30 -0.28829,0.97246 -0.62749,1.9343 -0.9375,2.90625 -10.6953,8.53629 -22.1711,23.42614 -31.96875,24.78125 4.06829,-16.08236 10.24809,-34.64627 16.09375,-48.6875 1.89059,-1.99307 3.65903,-4.83236 5.25,-9 z m 60.875,0 c -0.33037,1.64656 -1.26257,3.02612 -2.1875,4.25 -0.2117,-0.51356 -0.44436,-1.01769 -0.65625,-1.53125 0.94757,-0.7634 1.89582,-1.62927 2.84375,-2.71875 z m -4.09375,3.6875 c 0.25748,0.68635 0.52045,1.37615 0.78125,2.0625 -0.9371,1.29768 -1.54457,2.48018 -0.78125,3.6875 2.36023,3.73308 0.49091,5.85419 -2.4375,6.78125 0.6821,-4.11497 1.29145,-8.24002 2.09375,-12.3125 0.10948,-0.0773 0.23433,-0.13982 0.34375,-0.21875 z m -1.25,0.875 -0.625,0.96875 c -0.87408,3.69728 -1.45301,7.39647 -2.09375,11.09375 -0.88456,0.14624 -1.82395,0.18086 -2.71875,0.15625 0.30116,0.65456 1.20816,1.15029 2.4375,1.46875 -1.52234,8.46741 -4.01821,17.12241 -10.84375,25.59375 -4.83117,-3.14174 -9.66251,-5.12956 -14.46875,-5.59375 -1.20588,-0.10836 -2.32629,-0.12044 -3.40625,-0.0937 3.33385,-3.18977 6.2691,-5.49275 11.34375,-12.46875 4.1721,-4.13141 10.23561,-7.40416 8.09375,-14.34375 -7.64094,4.55847 -13.0785,9.62441 -18.5,14.6875 -0.0107,0.01 -0.0206,0.0213 -0.0312,0.0312 -2.30807,2.1555 -4.61072,4.32178 -7.09375,6.4375 7.63123,-6.05459 16.82376,-15.13251 24.96875,-19.5 0.74904,5.59028 -5.41076,8.01175 -8.28125,11.9375 -3.3757,5.07852 -7.50043,9.08153 -11.5,13.28125 -10.92176,0.68154 -15.64921,8.01766 -22.8125,13.59375 l 23.75,-37.75 c 1.32668,-1.68694 2.74101,-4.3587 3.8125,-6.0625 0.97128,-1.32464 2.04201,-2.74513 2.5625,-2.6875 0.31229,0.0346 0.77065,0.65304 0.6875,1.9375 -0.22836,1.90245 -0.95865,3.62014 -1.34375,5.1875 -0.97166,3.82031 -3.27331,9.35517 -4.71875,13.59375 1.60633,-4.37944 3.37725,-6.62709 5.0625,-11.65625 7.1243,-0.52476 13.50074,-4.11372 18.875,-8.59375 -0.94775,1.91919 -0.88659,3.34536 -0.0312,4.40625 2.32847,-2.67744 4.61468,-4.08897 6.875,-5.625 z m 9.96875,6.25 c 4.59772,1.90712 2.85894,5.71937 -0.28125,9.6875 -0.45211,-1.15717 -0.88319,-2.31158 -1.34375,-3.46875 2.27968,-1.26726 3.38962,-3.30608 1.625,-6.21875 z m -46.3125,2.5 c 2.36091,0.97404 1.63301,2.354 1.96875,3.59375 -3.79249,4.71002 -6.88101,10.07794 -9.90625,15.5 2.53277,-6.25062 4.31726,-13.76751 7.9375,-19.09375 z m 1.71875,0.0625 c 0.71742,0.2134 1.41932,0.41599 2.125,0.5625 -0.36361,0.61082 -0.77304,1.19623 -1.21875,1.75 -0.28776,-0.78829 -0.52979,-1.64544 -0.90625,-2.3125 z m 50.09375,3.46875 c 2.27814,4.33241 1.31506,9.01649 -2.125,13.28125 -0.92262,-2.54371 -1.89361,-5.08129 -2.875,-7.625 2.45492,-1.98334 4.06884,-3.77976 5,-5.65625 z m -8.8125,0.90625 c 0.56847,1.45717 1.12482,2.91783 1.6875,4.375 -1.47663,1.71134 -3.07903,3.40132 -4.4375,4.9375 1.94848,-1.20148 3.594,-2.31905 5.03125,-3.375 1.0239,2.66821 2.06224,5.33179 3.03125,8 -1.01019,1.03708 -2.17141,2.0404 -3.46875,3 0.92579,-0.43349 2.38334,-0.91109 3.96875,-1.59375 2.04071,5.69817 3.90734,11.39558 5.40625,17.09375 l -8.46875,0.65625 c -7.41028,-11.91717 -6.08933,-25.14173 -16.46875,-14.0625 2.90968,-5.71094 4.37844,-11.9382 5.5,-18.28125 2.49495,0.33003 5.68765,0.12077 8.21875,-0.75 z m -73.4375,1.0625 c -5.93704,13.60889 -9.03657,27.84488 -12.9375,41.90625 12.3683,0.27135 23.29573,-17.34603 34.8125,-27.71875 -0.0362,0.0655 0.0572,0.12656 0.15625,0.21875 -4.04559,7.26804 -8.02448,14.59116 -13.5,20.53125 1.1861,19.0585 1.00159,38.13765 -16.1875,50.90625 -8.7418,3.99338 -16.4845,8.58938 -24.125,13.6875 6.00718,-15.92734 3.16529,-32.96516 2.0625,-49.78125 -1.34925,4.9432 2.46001,41.41236 -4.8125,51.46875 -3.49651,2.36115 -6.79974,4.79423 -9.96875,7.3125 L 177.3125,371.125 169.53125,373.5 164.625,364.78125 c 5.7251,-25.08807 3.08007,-58.35932 25.46875,-67.21875 18.54792,-6.74507 36.19443,-15.02231 53.5625,-24.25 z M 309.0625,289.5 c 4.34974,-0.38098 3.3061,7.52663 8.21875,16.03125 L 312.625,305.875 c -0.0376,-0.7535 -0.0879,-1.4965 -0.125,-2.25 -1.22119,-3.53999 -6.06419,-7.76157 -0.34375,-10 l -1.09375,-3.0625 c -3.54086,3.92415 -5.59722,7.94852 -0.1875,12.34375 0.0494,1.03293 0.0964,2.05821 0.15625,3.09375 l -6.875,0.53125 c 0.50666,-0.25536 1.02798,-0.56143 1.59375,-0.9375 -2.64607,-2.44548 -5.29769,-4.58276 -7.9375,-6.40625 1.63605,-1.87886 3.54931,-4.25761 4.6875,-6.25 3.0715,-2.24938 5.11259,-3.31051 6.5625,-3.4375 z m -30.90625,4.53125 c 1.20433,-0.0332 2.47626,0.0261 3.84375,0.21875 4.87424,-0.76393 13.19161,3.15022 21.875,11.34375 -4.29972,3.33604 -9.1352,-3.06803 -13.1875,-5.15625 -4.94146,1.39398 -10.7539,-0.11768 -16.53125,-1.46875 -4.83395,6.35017 -5.06814,12.16964 -5.96875,18.0625 5.20197,5.02411 5.60317,5.41554 7.90625,8.3125 4.58013,-0.9497 6.79906,-6.37589 10.09375,-9.75 1.5092,-0.83826 10.45673,-8.07616 15.34375,-5.8125 -9.98913,9.69184 -17.23228,22.02597 -22.03125,33.375 l -10.71875,10.53125 -23.84375,25.53125 c -1.93865,0.0153 -35.28072,66.99204 -49.46875,82.71875 -11.27766,14.17344 -17.67452,8.68643 -20.71875,8.0625 -15.96416,-5.63479 -16.14507,-18.29236 -21.1875,-28.78125 2.69312,-18.41921 4.23154,-38.03298 6.75,-55.46875 l 23.59375,9.9375 c -7.50066,7.7815 -14.23096,16.33349 -20.78125,25.84375 31.80506,-35.8178 42.48029,-43.07385 73.40625,-61.78125 18.11987,-11.49708 18.38855,-31.94363 16.6875,-50.9375 8.69267,-4.3995 13.29566,-14.46067 24.9375,-14.78125 z m -3.5,5.65625 c 4.59777,1.75105 9.5414,3.05381 16.28125,2 0.59903,0.15846 1.138,0.42872 1.65625,0.75 -0.52656,1.7882 -1.4875,3.38318 -2.65625,4.875 -3.1173,0.15728 -4.33114,0.34723 -0.5625,0.65625 -0.59104,0.70125 -1.21394,1.39357 -1.875,2.0625 -2.19086,-3.79883 -6.26783,-6.47827 -10.21875,-9.21875 L 274.5,299.90625 c 0.0564,-0.0718 0.0984,-0.14685 0.15625,-0.21875 z m -0.21875,0.28125 c 4.80095,3.89998 10.73197,6.41045 13.15625,13.28125 -0.52355,0.31432 -1.03996,0.63559 -1.5625,0.9375 -1.87741,1.68839 -3.49586,4.22367 -5.28125,6.21875 l -7.75,-18.375 c 0.41291,-0.68783 0.89762,-1.36892 1.4375,-2.0625 z m 19.125,3.15625 c 1.60875,1.28609 3.01228,3.00265 4.84375,3.84375 -2.24243,0.10346 -4.77303,0.18943 -6.9375,0.28125 0.84293,-1.19056 1.58789,-2.5361 2.09375,-4.125 z m -21.15625,0.0312 7.125,18.5 c -1.12536,1.00046 -2.33971,1.68762 -3.75,1.75 -1.62937,-2.74559 -3.84028,-4.7502 -6.3125,-6.46875 0.57426,-4.82395 0.6234,-9.27741 2.9375,-13.78125 z m 55.90625,1.625 c 0.9605,3.66032 1.79104,7.30843 2.40625,10.96875 -4.84423,-2.60188 -8.15046,-6.16733 -10.5625,-9.90625 z m -37.46875,3.3125 c 1.65046,0.11101 3.72034,0.23183 6.6875,0.375 -2.92507,0.60158 -5.925,2.35921 -8.90625,4.15625 -0.15898,-0.53259 -0.36864,-1.03816 -0.59375,-1.53125 0.99086,-0.94395 1.94316,-1.91243 2.8125,-3 z m 120.28125,8.625 c 5.73614,-0.31223 10.5331,4.05981 15.65625,6.8125 11.08535,15.16494 -25.62594,47.38751 -25.96875,48.875 -7.91408,0.11531 -14.30392,-4.71926 -15.1875,-9.6875 16.24577,-5.62481 22.97662,-32.60012 25.5,-46 z M 283.5,338.28125 c 1.21558,21.02181 1.55944,42.04069 1.625,63.0625 -9.61401,-6.11986 -13.81389,-13.06908 -14.0625,-20.59375 l 7.5,-5.34375 -1.59375,-0.1875 -3.875,2.96875 c -1.2427,-1.41824 -1.62517,-3.34855 -1.125,-5.8125 3.92708,1.90701 7.85417,2.21955 11.78125,3.03125 -3.83412,-1.06517 -7.94403,-1.49996 -11,-4.34375 l 6.09375,-2.875 c 0.98334,1.03558 1.92441,2.05817 2.75,3.09375 -3.49738,-5.68886 -10.44516,-10.54273 -11.21875,-17.0625 3.42997,-3.33052 6.87379,-6.64715 10.3125,-9.96875 1.0648,-2.02903 1.95173,-4.00273 2.8125,-5.96875 z m 25.78125,0.875 c 1.82198,5.17787 0.7321,9.81492 -2.21875,14.125 -1.4436,-1.9712 -2.36636,-3.93506 -3.3125,-5.90625 0.26344,4.43882 2.66338,8.23938 7.6875,11.25 1.77178,5.37256 3.13205,10.72119 1.34375,16.09375 -3.09755,-2.58957 -6.36016,-3.79993 -9.5625,-5.5625 3.27696,2.48742 6.98299,3.22278 9.8125,7.5 -0.0985,2.85116 -4.59809,5.62825 -8.75,9.46875 1.70126,1.52065 4.14653,1.17237 5,4.8125 l -9.625,14.09375 11.40625,-14.625 c 1.06785,-2.57933 0.22913,-5.5111 -0.34375,-8.3125 1.87702,-1.71768 3.51136,-3.4609 4.09375,-5.4375 -0.43864,-0.48198 -0.86477,-0.93346 -1.3125,-1.34375 2.44794,-5.289 0.18567,-12.27777 -1.34375,-17.0625 -2.19953,-1.60105 -3.3956,-2.99269 -4.59375,-4.59375 4.98511,-5.62046 5.30653,-9.79532 1.71875,-14.5 z m -17.40625,14.75 c -1.82301,0.0337 -3.42718,2.56935 -2.46875,3.96875 2.49966,2.61006 7.07531,-1.77601 2.46875,-3.96875 z m -129.75,8.6875 6.0625,11.3125 -8.4375,2.125 c -0.11206,-4.21307 1.42302,-9.06862 2.375,-13.4375 z m 15.03125,10.125 20.625,10.21875 c -4.36839,3.55325 -8.46819,7.27441 -12.34375,11.1875 -9.29687,-3.20559 -19.58187,-7.3052 -27.9375,-10.5 -0.17737,-2.11888 0.70089,-4.08759 2.1875,-5.96875 1.65469,-0.83812 11.29722,-3.08728 17.46875,-4.9375 z m -0.84375,3.3125 c -2.68716,-0.0496 -3.87293,3.12343 -2.375,4.71875 0.29069,0.87816 8.08528,1.23245 4.46875,-4.09375 -0.76492,-0.41315 -1.47364,-0.61355 -2.09375,-0.625 z m 133.34375,7.15625 c 0.87372,1.2043 1.55295,5.1558 0.53125,6.25 -0.0108,0.0116 -2.75191,-3.37693 -3.9375,-3.3125 0.80226,-0.7711 2.53325,-2.18055 3.40625,-2.9375 z M 293,391.3125 c -3.25304,0.12964 -2.7311,3.67098 -0.6875,4.96875 3.46657,1.56942 5.9126,-4.2385 0.6875,-4.96875 z m 0.375,37.8125 c -2.79262,0.18539 -4.12237,4.60374 -1.40625,5.75 3.25799,0.56485 7.1327,-3.10499 2.6875,-5.5625 -0.45101,-0.16888 -0.8823,-0.21398 -1.28125,-0.1875 z m -0.15625,39.5 c -3.40212,1.04463 -3.36365,4.04034 -1.0625,5.53125 5.42507,0.60422 3.56985,-4.57889 1.0625,-5.53125 z"
         style="fill:#000000;fill-opacity:1;stroke:none"
         inkscape:connector-curvature="0"
         sodipodi:nodetypes="cccccccccccccccccccccccsccccccccccccccccccccccccccccccccccccccccccccccccccccccccccscccccccccccccccccccccccsccccccccccccccccccccccccccccccccccccccccccccccccccsccccccccccccccccccccccccccccccccccccccccccccccccccccccccccsccsscccccccccccccccccscscccccccccccccccccccccccccccccccccccccccccccccccccccccccccccccccccccccccccccccccsccccccccccccccccccccccccccccccccccccccccccccccccccccccccccccccccccccccccccscccccccccccscccccccccccccccccccccccccccccccccccccccccccccccccccccccccccccccccccccccccccccccccccccccccccccccccccccccsccscccccccccccccc" />
      <path
         sodipodi:nodetypes="ccsc"
         inkscape:connector-curvature="0"
         id="path4061"
         d="m 308.03572,316.82646 c 3.23148,-4.6048 4.54034,-10.39276 13.57142,-11.42857 5.80226,8.23145 6.95995,14.54974 3.21429,20.17857 -20.82123,31.28935 -0.50588,51.53198 19.24546,51.49856"
         style="fill:none;stroke:#ff0000;stroke-width:1px;stroke-linecap:butt;stroke-linejoin:miter;stroke-opacity:1" />
    </g>
  </g>
</svg>
