<?xml version="1.0" encoding="UTF-8" standalone="no"?>
<!-- Created with Inkscape (http://www.inkscape.org/) -->

<svg
   xmlns:dc="http://purl.org/dc/elements/1.1/"
   xmlns:cc="http://creativecommons.org/ns#"
   xmlns:rdf="http://www.w3.org/1999/02/22-rdf-syntax-ns#"
   xmlns:svg="http://www.w3.org/2000/svg"
   xmlns="http://www.w3.org/2000/svg"
   xmlns:sodipodi="http://sodipodi.sourceforge.net/DTD/sodipodi-0.dtd"
   xmlns:inkscape="http://www.inkscape.org/namespaces/inkscape"
   width="744.09448819"
   height="1052.3622047"
   id="svg3036"
   version="1.1"
   inkscape:version="0.48.2 r9819"
   sodipodi:docname="New document 4">
  <defs
     id="defs3038" />
  <sodipodi:namedview
     id="base"
     pagecolor="#ffffff"
     bordercolor="#666666"
     borderopacity="1.0"
     inkscape:pageopacity="0.0"
     inkscape:pageshadow="2"
     inkscape:zoom="0.98994949"
     inkscape:cx="255.96958"
     inkscape:cy="727.86554"
     inkscape:document-units="px"
     inkscape:current-layer="layer1"
     showgrid="false"
     inkscape:window-width="1275"
     inkscape:window-height="752"
     inkscape:window-x="0"
     inkscape:window-y="0"
     inkscape:window-maximized="0" />
  <metadata
     id="metadata3041">
    <rdf:RDF>
      <cc:Work
         rdf:about="">
        <dc:format>image/svg+xml</dc:format>
        <dc:type
           rdf:resource="http://purl.org/dc/dcmitype/StillImage" />
        <dc:title></dc:title>
      </cc:Work>
    </rdf:RDF>
  </metadata>
  <g
     inkscape:label="Layer 1"
     inkscape:groupmode="layer"
     id="layer1">
    <path
       style="fill:#000000;fill-opacity:1;stroke:none"
       d="m 294.1875,117.96875 c -7.91927,0.0182 -15.6293,1.94161 -22.21875,6.53125 -17.59647,15.69347 -41.01068,25.43939 -39.8125,60.375 2.0577,27.76727 12.53627,61.43743 -20.1875,64.8125 11.29264,5.73284 22.1595,5.92619 32.5,-0.71875 -3.93042,4.25618 -7.99366,8.51948 -8.21875,12.3125 1.72619,-2.94484 3.46131,-2.07976 5.1875,0.1875 -2.17184,5.64104 -7.3899,6.70383 -11.25,9.8125 8.72541,-4.78725 19.20485,0.15727 25.71875,-16.90625 -1.15981,8.45452 -5.83342,13.396 -11.96875,16.875 -16.9873,10.06639 -36.99673,16.87317 -55.90625,24.875 -23.22456,9.51986 -19.9099,48.45785 -27.40625,75.40625 -4.4801,22.73697 -6.59484,44.99139 -8.84375,67.28125 l -0.25,-0.125 c 0.0636,0.21856 0.12449,0.43735 0.1875,0.65625 -0.0631,0.6252 -0.12407,1.24973 -0.1875,1.875 l 0.71875,0 c 3.46946,12.26169 6.68832,24.68267 19.96875,30.8125 15.73955,4.96459 18.72053,-2.84825 24.25,-8.09375 5.48868,-5.75544 10.78962,-12.40898 15.875,-19.75 9.01617,18.20461 16.77816,36.42039 4.84375,54.625 16.69928,-15.83981 8.92214,-34.87805 -4.8125,-54.6875 12.46895,-18.11213 24.992,-54.71986 33.5,-63.4375 L 270.59375,354 280.6875,344.25 c 4.16678,-7.94003 5.5868,-15.03459 13.53125,-24.125 l 9.15625,-10.90625 c -0.86032,-0.4603 -1.71908,-0.71184 -2.59375,-0.84375 l 29.25,-3.8125 -25.875,1.96875 c 0.50666,-0.25536 1.02798,-0.56143 1.59375,-0.9375 -7.90458,-7.30537 -15.78292,-12.08636 -23.625,-12.84375 -1.20588,-0.10836 -2.32629,-0.11984 -3.40625,-0.0937 3.33385,-3.18977 6.2691,-5.49275 11.34375,-12.46875 4.1721,-4.13141 10.23561,-7.40416 8.09375,-14.34375 -7.65599,4.56745 -13.09913,9.64571 -18.53125,14.71875 -2.30807,2.1555 -4.61072,4.32178 -7.09375,6.4375 7.63123,-6.05459 16.82376,-15.13251 24.96875,-19.5 0.74904,5.59028 -5.41076,8.01175 -8.28125,11.9375 -3.3757,5.07852 -7.50043,9.08153 -11.5,13.28125 -10.92176,0.68154 -15.64921,8.01766 -22.8125,13.59375 l 23.75,-37.75 c 1.75783,0.31226 3.47711,0.43601 5.15625,0.375 -1.24866,4.20118 -2.8757,7.62196 -4.1875,11.68813 1.61579,-4.44379 3.39606,-6.68435 5.09375,-11.75063 7.1243,-0.52476 13.50074,-4.11372 18.875,-8.59375 -0.94775,1.91919 -0.88599,3.34536 -0.0312,4.40625 4.51419,-7.27714 8.0004,-7.57015 11.09375,-5.375 5.38718,6.3965 -3.84806,8.70695 -9.65625,11.96875 5.81584,-2.2106 19.42294,-3.06989 15.53125,-6.96875 7.19788,2.98566 -12.37206,18.72578 -17.3125,24.3125 6.48426,-3.99835 21.46865,-15.971 26.59375,-23.59375 3.86154,5.68904 -1.74757,10.99676 -7.21875,16.3125 3.0589,-2.32701 6.19129,-3.58475 9.21875,-6.3125 5.01674,10.10844 28.71508,2.07495 42.5,10.90625 17.83769,8.94347 19.78905,26.01093 50.78125,42.8125 -2.77534,6.45653 -5.63146,12.82417 -8.65625,19.03125 23.00905,-37.40549 34.11717,-83.70451 47.96875,-120.21875 5.02173,-18.02292 20.03104,-20.46493 35.625,-21.96875 -18.44466,-1.51947 -31.63424,4.07546 -36.625,20.71875 -12.6399,33.42633 -23.78048,68.34079 -37.5313,100.6562 -22.76037,-11.75299 -32.30103,-33.19594 -50.15625,-42.46875 -12.66322,-9.83799 -30.35144,-2.17518 -43.40625,-9.8125 4.12729,-3.80842 7.73304,-10.27703 10.90625,-26.25 29.33438,-30.2512 28.87685,-62.07979 3.9375,-95.1875 1.05267,-14.9742 -27.09913,-35.34081 -52.96875,-35.28125 z m -10.09375,31 c 33.37359,4.90457 42.67681,28.38166 46.8125,56.4375 0.21557,0.5887 0.40736,1.16012 0.59375,1.71875 0.11205,0.33585 0.24197,0.67474 0.34375,1 4.94519,15.80317 -2.1331,19.22173 -9.53125,22.28125 -1.32697,7.21367 -5.1081,14.1373 -10.71875,20.875 -2.08107,1.80765 -3.73843,3.41145 -5.03125,4.84375 -6.69923,5.7809 -13.72563,9.87888 -21.21875,10.71875 0.41859,-1.47432 0.85171,-3.14934 1.25,-5.15625 -0.32312,-2.8379 -1.05015,-4.88993 -4.25,-0.15625 L 279,266.75 c -7.0767,-1.00104 -14.57561,-5.07433 -22.5625,-13.46875 -5.9782,-15.42281 -12.50201,-25.48532 -11.09375,-38.0625 -10.73285,-6.86124 -2.9241,-13.68646 -5.875,-23.21875 11.92591,6.69132 12.37688,-43.21838 44.625,-43.03125 z m 231.5,19.25 c -3.69808,-0.003 -5.37578,1.98438 -3.4375,11.625 2.82719,5.25926 4.36622,10.97396 3.65625,16.84375 -3.62746,-5.47217 -10.76447,-10.10708 -22.59375,-12.53125 -2.96501,1.11153 -3.50969,2.38836 -2.625,3.75 -2.61854,0.83176 -5.84824,-0.16962 -7.25,4.3125 0.0139,0.74466 3.84552,5.92178 11.625,3.03125 15.58397,13.7939 -6.63325,20.7085 -18.21875,29.5625 12.37427,-8.70628 38.91451,-13.34849 20,-31.09375 -5.01946,0.23297 -11.47514,1.71678 -11.375,-1.25 -1.66695,-1.03617 2.70325,-2.70117 5.25,-4.53125 2.55148,3.81712 16.34936,8.24712 20.5,11.28125 -3.82816,-6.0399 -26.76504,-12.47572 -16.84375,-12.96875 24.58925,4.97088 29.74329,24.12744 11.78125,37.90625 -47.45102,5.19246 -18.39545,99.37376 -63.21875,156.0625 -40.46561,5.57718 -59.47262,-25.43807 -85,-45.34375 23.03925,20.93134 36.08359,50.84873 85.71875,47.84375 46.6721,-65.94991 24.07016,-133.1651 52.9375,-152.46875 5.88703,-0.52202 71.29112,-7.4329 74.5,-10 -5.91566,-12.7952 -30.32404,-6.18116 -46.48652,-7.44385 16.80128,1.95271 40.57522,-2.30589 44.59169,6.69385 -30.55838,5.7953 -59.06572,6.83704 -72.13642,10.4375 3.20253,-2.04361 7.00048,-3.53588 11.59375,-4.375 9.00572,-6.97037 13.53519,-18.96836 7.4375,-28.5625 2.21882,-3.80959 -0.53281,-11.14683 -2.09375,-17.65625 -2.90334,-10.65773 -0.34179,-11.78688 4.8125,-8.34375 4.07564,15.55151 8.57932,31.21262 5.28125,45.0625 2.42431,-8.61845 7.12298,-13.73125 -4.5211,-46.20479 -1.04696,-0.14114 -3.03175,-1.63837 -3.88515,-1.63896 z m -249.375,15.46875 c -3.36019,-0.0604 -6.87562,0.86906 -9.96875,3.5 6.59467,-1.57543 13.51733,-0.79681 21.0625,4.28125 3.86216,1.55734 4.06045,-0.34465 1.78125,-2.6875 -2.11309,-2.1721 -7.27468,-4.99306 -12.875,-5.09375 z m 39.40625,7.9375 c -0.39881,-0.003 -0.80092,0.0174 -1.1875,0.0312 -3.71121,0.13291 -6.79153,0.98962 -8,1.59375 -4.92849,3.83877 -0.27145,3.47829 2.84375,3.21875 7.7381,-0.92368 15.48065,-2.07707 23.21875,5.34375 -3.70119,-8.03243 -10.89285,-10.13981 -16.875,-10.1875 z m -38.65625,1.09375 c -3.22854,0.008 -6.47537,1.20586 -8.75,3.03125 8.70865,6.10076 14.30773,1.576 19.28125,4.8125 -2.15713,-5.01101 -5.60764,-7.91727 -10.53125,-7.84375 z m -3.4375,0.84375 c -0.22609,2.1252 0.40674,3.60947 1.46875,4.46875 -1.59386,-0.39848 -3.33616,-1.12802 -5.25,-2.46875 1.06081,-0.85131 2.3669,-1.55048 3.78125,-2 z m 9.75,1.71875 c 1.13535,1.03759 2.34351,2.19999 2.96875,4.09375 -1.77364,-1.15419 -3.91224,-0.8882 -6.03125,-0.875 1.37055,-0.58025 2.56052,-1.67541 3.0625,-3.21875 z m 31.40625,6.125 c -2.55172,0.0902 -5.17956,1.01438 -7.53125,3.28125 3.29551,0.57801 12.99886,4.78963 18.75,2.125 -0.44412,-1.85912 -5.60496,-5.6048 -11.21875,-5.40625 z m -2.8125,1.28125 c 0.39519,2.04078 1.49074,3.19756 2.78125,3.71875 -2.49956,-0.6422 -4.71064,-1.4153 -5.90625,-1.625 0.99511,-0.95922 2.04215,-1.64779 3.125,-2.09375 z m 9.25,0.78125 c 1.9347,1.00603 3.2984,2.28111 3.5,3.125 -2.43358,1.12753 -5.70701,0.79886 -8.71875,0.125 2.25937,0.21659 4.6686,-1.1639 5.21875,-3.25 z m -40.40625,16.5625 c -1.8427,3.64868 -3.10302,7.06037 3.9375,6.96875 4.48024,4.53229 8.98414,7.2942 15.8125,4.3125 4.41806,-0.18428 13.09944,0.8627 7.21875,-7.15625 -0.90624,1.80088 6.41371,6.32584 -7.34375,6.375 -10.17641,2.07329 -10.63239,-2.04021 -14.8125,-4.25 -7.15447,-0.34979 -4.79605,-3.66958 -4.8125,-6.25 z m -8.40625,13.75 c 8.39621,25.37627 32.71407,25.96077 40.4375,8.90625 -12.47943,-4.77299 -29.4185,-6.53398 -40.4375,-8.90625 z m 0.8125,0.5625 c 1.35565,1.03695 1.16063,0.89226 2.0625,1.375 10.85489,16.25149 25.21832,12.8221 34.78125,7.09375 -9.13634,3.54429 -22.40226,6.85658 -34.0625,-7.03125 8.46197,4.08538 22.63195,7.39741 34.0625,7.03125 0.008,-0.005 0.0236,0.005 0.0312,0 0.57061,-0.0186 1.13165,-0.0251 1.6875,-0.0625 -10.99225,14.16837 -28.28915,13.67408 -38.5625,-8.40625 z m -6.96875,19.3125 c 6.17939,7.19436 12.1175,11.4348 17.71875,13.5625 -5.09688,7.04667 -6.29049,14.09332 -8.625,21.125 2.76257,-6.54557 3.88441,-13.31671 8.84375,-20.53125 2.36091,0.97404 1.63301,2.354 1.96875,3.59375 l -10.8125,16.9375 c -3.8217,6.01029 -10.93727,17.75195 -13.0625,19.90625 1.1861,19.0585 1.43909,38.1689 -15.75,50.9375 -31.03255,14.17614 -54.87415,35.57341 -73.3125,62.34375 31.80506,-35.8178 42.4695,-43.06306 73.39546,-61.77046 18.11987,-11.49708 18.39934,-31.95442 16.69829,-50.94829 9.59191,-4.85462 14.19473,-16.61741 28.78125,-14.5625 4.87424,-0.76393 13.19161,3.15022 21.875,11.34375 -4.29972,3.33604 -9.1352,-3.06803 -13.1875,-5.15625 -4.94146,1.39398 -10.7539,-0.11768 -16.53125,-1.46875 -4.83395,6.35017 -5.06814,12.16964 -5.96875,18.0625 5.20197,5.02411 5.60317,5.41554 7.90625,8.3125 4.58013,-0.9497 6.79906,-6.37589 10.09375,-9.75 1.5092,-0.83826 10.45673,-8.07616 15.34375,-5.8125 l -8.15625,9.4375 c -6.94943,6.96554 -9.82045,15.70331 -13.875,23.9375 l -10.71875,10.53125 -23.84375,25.53125 c -1.93865,0.0153 -35.28072,66.99204 -49.46875,82.71875 -11.27766,14.17344 -17.67452,8.68643 -20.71875,8.0625 -15.96416,-5.63479 -16.14507,-18.29236 -21.1875,-28.78125 l 0.5,0 c 1.9781,-23.06515 3.80832,-46.12235 8.5625,-69.1875 8.51401,-25.44035 2.8372,-64.72179 27.46875,-74.46875 18.95747,-6.894 36.97973,-15.36883 54.71875,-24.84375 6.4665,-5.61233 12.18318,-6.58707 11.34375,-19.0625 z m 28.75,6.28125 c 0.31229,0.0346 0.4894,0.55929 0.40625,1.84375 -0.22836,1.90245 -0.5524,3.58889 -0.9375,5.15625 -1.53302,0.11321 -3.08386,0.11425 -4.65625,-0.0625 l 2.75,-4.375 c 0.97128,-1.32464 1.91701,-2.62013 2.4375,-2.5625 z m -9.09375,7.9375 c 0.71742,0.2134 1.41932,0.41599 2.125,0.5625 -0.36361,0.61082 -0.77304,1.19623 -1.21875,1.75 -0.28776,-0.78829 -0.52979,-1.64544 -0.90625,-2.3125 z m -1.15625,31.8125 c 4.59777,1.75105 9.5414,3.05381 16.28125,2 2.97204,0.78619 4.72805,4.02258 7.46875,5.28125 -8.13714,0.37543 -20.92766,0.53241 -0.875,1.5 -3.77915,0.77723 -7.65777,3.49879 -11.5,5.71875 -3.41541,3.07154 -5.95707,9.02886 -10.25,9.21875 -1.62937,-2.74559 -3.84028,-4.7502 -6.3125,-6.46875 0.72114,-6.05778 0.57971,-11.52304 5.1875,-17.25 z m 86.30804,38.01786 C 364.03377,388.09901 346.98521,446.53952 378.3125,493.25 355.56462,443.18944 364.33701,387.76592 360.96429,337.70536 z"
       id="path3055"
       inkscape:connector-curvature="0"
       sodipodi:nodetypes="sccccccccccccccccccccccccccccccccccscccccccccccccccccccccccccccccscccscccccccccccscccccccccccccccccccccccccccssccsscccccscccccccccccccccccccccccccccccccccccccccccccccccccccccccccccccccccccccccccsccccsccccccccccccccccc" />
    <path
       style="fill:none;stroke:#000000;stroke-width:1px;stroke-linecap:butt;stroke-linejoin:miter;stroke-opacity:1"
       d="m 208.57143,374.50504 c 6.68406,-15.04356 4.88978,-33.7207 5.35714,-51.42857 1.10793,16.89444 3.97542,34.00883 -2.14286,49.99999 z"
       id="path3974"
       inkscape:connector-curvature="0"
       sodipodi:nodetypes="cccc" />
  </g>
</svg>
