<?xml version="1.0" encoding="UTF-8" standalone="no"?>
<!-- Created with Inkscape (http://www.inkscape.org/) -->

<svg
   xmlns:dc="http://purl.org/dc/elements/1.1/"
   xmlns:cc="http://creativecommons.org/ns#"
   xmlns:rdf="http://www.w3.org/1999/02/22-rdf-syntax-ns#"
   xmlns:svg="http://www.w3.org/2000/svg"
   xmlns="http://www.w3.org/2000/svg"
   xmlns:xlink="http://www.w3.org/1999/xlink"
   xmlns:sodipodi="http://sodipodi.sourceforge.net/DTD/sodipodi-0.dtd"
   xmlns:inkscape="http://www.inkscape.org/namespaces/inkscape"
   id="svg15515"
   version="1.1"
   inkscape:version="0.48.4 r9939"
   width="212"
   height="326"
   sodipodi:docname="AquaVitae.png">
  <metadata
     id="metadata15521">
    <rdf:RDF>
      <cc:Work
         rdf:about="">
        <dc:format>image/svg+xml</dc:format>
        <dc:type
           rdf:resource="http://purl.org/dc/dcmitype/StillImage" />
        <dc:title></dc:title>
      </cc:Work>
    </rdf:RDF>
  </metadata>
  <defs
     id="defs15519">
    <linearGradient
       inkscape:collect="always"
       id="linearGradient16069">
      <stop
         style="stop-color:#ffffff;stop-opacity:1;"
         offset="0"
         id="stop16071" />
      <stop
         style="stop-color:#ffffff;stop-opacity:0;"
         offset="1"
         id="stop16073" />
    </linearGradient>
    <linearGradient
       inkscape:collect="always"
       xlink:href="#linearGradient16069"
       id="linearGradient16075"
       x1="9.6209051"
       y1="201.9507"
       x2="135.91725"
       y2="201.9507"
       gradientUnits="userSpaceOnUse" />
    <filter
       inkscape:collect="always"
       id="filter16077"
       x="-0.14379311"
       width="1.2875862"
       y="-0.058098223"
       height="1.1161964">
      <feGaussianBlur
         inkscape:collect="always"
         stdDeviation="4.6817412"
         id="feGaussianBlur16079" />
    </filter>
  </defs>
  <sodipodi:namedview
     pagecolor="#ffffff"
     bordercolor="#666666"
     borderopacity="1"
     objecttolerance="10"
     gridtolerance="10"
     guidetolerance="10"
     inkscape:pageopacity="0"
     inkscape:pageshadow="2"
     inkscape:window-width="1266"
     inkscape:window-height="750"
     id="namedview15517"
     showgrid="false"
     inkscape:zoom="1.0237865"
     inkscape:cx="145.07065"
     inkscape:cy="55.555724"
     inkscape:window-x="0"
     inkscape:window-y="22"
     inkscape:window-maximized="0"
     inkscape:current-layer="svg15515" />
  <path
     style="fill:#0eda4f;stroke:#000000;stroke-width:1px;stroke-linecap:butt;stroke-linejoin:miter;stroke-opacity:1;fill-opacity:0.6082474"
     d="m 83.226695,60.434322 -3.45339,-2.072034 -1.036017,-39.368644 48.002122,-3.798729 3.45339,31.771186 2.07203,11.396187 z"
     id="path16037"
     inkscape:connector-curvature="0" />
  <path
     style="fill:#000000"
     d="m 71,310.95698 c -10.741703,-1.74911 -21.535277,-4.21995 -24,-5.49403 -1.375,-0.71077 -3.955762,-2.80768 -5.735027,-4.65979 -2.879869,-2.99778 -3.848345,-5.72432 -8.821577,-24.83532 C 23.838794,242.90232 23.213296,240.23189 21.442046,229 20.531338,223.225 18.750611,214.9 17.484874,210.5 13.317731,196.01403 10.190937,179.70328 9.0051777,166.26613 6.7190363,140.35934 10.084823,129.20263 24.227489,115.80813 28.502501,111.75927 41.250275,105.2059 55.976617,99.486554 66.767853,95.295503 74.966394,90.221684 78.559734,85.510572 83.983919,78.399099 85.591435,63.616979 81.28346,60.464197 79.830538,59.400879 79.48719,57.615226 79.43088,50.829487 79.392864,46.248269 78.988442,37.022865 78.532166,30.328589 l -0.829594,-12.171412 3.898714,-1.03419 C 86.816377,15.739608 100.04526,14.213432 113.5,13.442929 c 15.18674,-0.869689 14.63746,-1.452508 15.71567,16.675375 0.47984,8.067549 1.51227,16.188969 2.35155,18.498112 0.82289,2.26403 1.66423,4.96403 1.86964,6 0.20541,1.035971 0.52865,2.558584 0.71831,3.383584 0.21727,0.945127 -0.395,1.505494 -1.65517,1.514851 -1.86677,0.01386 -1.99213,0.646725 -1.88182,9.5 0.0875,7.02511 0.60752,10.522577 2.00494,13.485149 2.13653,4.529528 8.49111,9.252868 16.63926,12.367909 13.00953,4.973554 33.78308,14.589551 39.37008,18.224271 10.55198,6.86477 14.92901,18.68833 13.92334,37.61074 -0.25715,4.83839 -0.74306,18.24708 -1.07979,29.79708 -0.61864,21.21933 -2.58008,48.12205 -4.49397,61.63849 -4.15647,29.35414 -7.62392,48.67658 -9.57581,53.36151 -0.68745,1.65 -2.76593,4.45953 -4.61887,6.2434 -3.70282,3.56482 -7.07417,4.36221 -33.28736,7.87311 -14.6994,1.96878 -68.952002,2.8952 -78.5,1.34047 z m 79,-3.88672 c 26.09554,-3.55832 27.06739,-3.77506 30.92411,-6.89656 2.53573,-2.05234 4.02622,-4.42691 5.19469,-8.27593 2.67822,-8.82218 8.22051,-43.05803 10.42508,-64.39777 1.40153,-13.56647 3.97863,-72.31082 3.20615,-73.0833 -0.21037,-0.21037 -1.92769,0.0845 -3.81626,0.65534 -2.99264,0.90451 -31.05849,5.76446 -42.43377,7.34794 -21.78434,3.03244 -52.54823,5.35849 -86,6.50243 -15.95,0.54544 -30.575,1.22304 -32.5,1.50578 -3.493772,0.51315 -3.492883,0.51167 0.5,-0.82862 l 4,-1.34269 -4.5,-0.60071 c -2.475,-0.33039 -8.895996,-0.87703 -14.26888,-1.21476 l -9.768881,-0.61404 0.596215,5.83631 c 0.944226,9.243 3.283156,20.83099 6.930471,34.33632 1.856696,6.875 4.283639,17.9 5.393207,24.5 1.109568,6.6 3.167383,16.275 4.572922,21.5 1.40554,5.225 4.365463,16.89867 6.577607,25.94149 6.164018,25.19732 7.840993,26.6472 35.467339,30.66417 14.006702,2.03663 59.78823,1.15244 79.5,-1.5354 z M 58,293.61762 c 0,-0.65757 17.091867,-5.85909 17.59601,-5.35494 C 76.24723,288.9139 62.370741,294 59.94279,294 58.874255,294 58,293.82793 58,293.61762 z m -5,-1.55023 c 0,-0.51294 1.0125,-1.26733 2.25,-1.67643 l 2.25,-0.74382 -2.5,-0.68 -2.5,-0.68 2.5,-0.52501 c 1.375,-0.28876 6.325,-1.29877 11,-2.24448 4.675,-0.94571 13,-2.64226 18.5,-3.77011 8.50437,-1.74393 13.963421,-2.06536 36.5,-2.14909 l 26.5,-0.0985 8.69665,2.85074 c 8.97214,2.94106 12.8073,4.97865 11.61499,6.17096 -0.37687,0.37687 -4.12866,-0.70513 -8.33731,-2.40445 -11.76485,-4.75026 -18.10995,-5.47222 -42.44161,-4.82908 -15.34187,0.40551 -24.709341,1.15777 -32.581492,2.61647 -11.209284,2.07706 -26.168294,6.45156 -27.901228,8.15922 -1.226231,1.20834 -3.55,1.21065 -3.55,0.004 z m 2.5,-9.85252 c 0.55,-0.5572 4.375,-1.27393 8.5,-1.59274 5.243648,-0.40528 6.642001,-0.30302 4.648055,0.33988 C 63.99862,282.46112 54.349329,283.38059 55.5,282.21487 z M 53,279.18062 c 0,-1.0962 12.22426,-3.61731 14.192727,-2.92708 0.719,0.25211 -1.392727,1.00419 -4.692727,1.67129 -3.3,0.6671 -6.7875,1.43724 -7.75,1.71143 -0.9625,0.27418 -1.75,0.0691 -1.75,-0.45564 z m 6.5,-7.21417 c 3.85,-1.02163 8.35,-1.84889 10,-1.83836 1.790648,0.0114 -0.02338,0.77877 -4.5,1.90354 -4.125,1.03641 -8.625,1.86368 -10,1.83836 -1.375,-0.0253 0.65,-0.88192 4.5,-1.90354 z m -2.936536,-5.92991 c 0.529906,-0.52991 3.657406,-1.2029 6.95,-1.49555 L 69.5,264.00892 l -5,1.47625 c -5.849871,1.72718 -9.355918,1.97075 -7.936536,0.55137 z M 54,262.04964 c 0,-0.38838 2.284331,-1.23343 5.07629,-1.87789 5.185299,-1.19691 9.635127,-1.54983 8.781789,-0.6965 C 66.980492,260.35284 54,262.7642 54,262.04964 z m -4.606746,-5.87692 c 0.855624,-1.38443 10.670553,-4.19573 14.260653,-4.08469 1.899777,0.0588 0.684865,0.66016 -3.653907,1.80875 -3.575,0.94641 -7.568853,2.08001 -8.875229,2.51911 -1.571613,0.52826 -2.157441,0.44599 -1.731517,-0.24317 z M 52.55,250.14743 c 1.31986,-1.18451 10.385696,-3.54507 11.052828,-2.87793 0.300012,0.30001 -1.919651,1.2621 -4.932584,2.13799 -6.213329,1.80626 -7.478913,1.95927 -6.120244,0.73994 z M 47,244.93397 c 0,-1.0772 11.040607,-4.50424 17,-5.27685 4.459268,-0.57812 4.46832,-0.57329 1,0.53419 -13.35038,4.26296 -18,5.48804 -18,4.74266 z m 3.061698,-8.84145 C 52.366875,234.64428 66,231.00871 66,231.84222 c 0,0.59416 -10.648049,3.8786 -16,4.93528 -1.260128,0.2488 -1.250261,0.13926 0.0617,-0.68498 z M 42,230.2189 c 0,-1.11599 17.229193,-5.6425 19.101488,-5.0184 0.659975,0.21999 -2.58037,1.34649 -7.200767,2.50333 C 49.280325,228.86068 44.7125,230.12371 43.75,230.51058 42.784519,230.89865 42,230.76789 42,230.2189 z m 1.55,-8.07795 c 1.095328,-0.99046 11.775035,-3.18356 14.866781,-3.05292 1.145771,0.0484 -1.066781,0.9239 -4.916781,1.94552 -7.687785,2.04001 -11.443618,2.45802 -9.95,1.1074 z m 3.45,-8.0384 c 0,-0.49359 -1.2375,-0.83109 -2.75,-0.75 -1.5125,0.0811 -2.8625,-0.30255 -3,-0.85255 -0.1375,-0.55 0.9875,-1.04963 2.5,-1.11029 1.5125,-0.0607 4.325,-0.40249 6.25,-0.75961 l 3.5,-0.6493 -3,1.46449 c -3.419954,1.66951 -1.12428,2.12276 2.9349,0.57946 C 54.845705,211.48836 56,211.39796 56,211.82386 56,212.64034 50.189521,215 48.179002,215 47.530551,215 47,214.59615 47,214.10255 z m -7,-8.01969 c 0,-0.92891 8.672895,-3.14257 11.799221,-3.01162 1.218255,0.051 -9.200606,3.56358 -11.549221,3.89363 -0.1375,0.0193 -0.25,-0.37758 -0.25,-0.88201 z m -1.45,-9.94776 c 1.184534,-1.07844 13.455048,-3.46339 14.165216,-2.75322 0.517896,0.5179 -0.115284,0.70575 -8.715216,2.58558 -5.696346,1.24515 -6.666302,1.27499 -5.45,0.16764 z m 4.385137,-9.72409 c 2.439325,-0.76518 6.714325,-1.61054 9.5,-1.87857 4.621555,-0.44468 4.408416,-0.31784 -2.435137,1.44912 -8.560159,2.21018 -13.746672,2.52546 -7.064863,0.42945 z M 32.55,179.13774 c 0.5225,-0.47425 3.918883,-1.58704 7.547517,-2.47288 3.628635,-0.88583 7.453635,-1.91404 8.5,-2.28491 1.314705,-0.46598 1.59353,-0.34869 0.902483,0.37962 C 48.471242,175.8438 35.339204,180 32.942187,180 32.122494,180 31.969821,179.66433 32.55,179.13774 z M 94,165.50644 c 7.425,-0.30673 16.875,-0.80461 21,-1.10641 27.39211,-2.00409 81.1093,-10.14984 82.57528,-12.52183 0.66329,-1.07324 -7.43732,-3.3706 -20.85086,-5.91339 -6.17343,-1.17028 -13.24942,-2.53474 -15.72442,-3.03213 -8.82294,-1.7731 -64.426934,0.15631 -89.5,3.10557 -10.201213,1.19994 -27.335671,5.30829 -31.828305,7.63152 -1.650673,0.8536 -4.748692,1.72031 -6.884487,1.92603 -3.544038,0.34137 -17.18296,5.6031 -19.086167,7.36323 -0.439427,0.40639 3.575057,1.04635 8.921077,1.42214 5.900734,0.41478 9.95273,0.30674 10.312238,-0.27496 0.829825,-1.34268 9.322125,-3.35809 12.187227,-2.8923 1.642468,0.26703 0.574665,0.78493 -3.450888,1.67375 -15.446725,3.41052 6.534707,4.51056 52.329305,2.61878 z m -59.383097,-7.31729 c -0.750479,-1.2143 6.479765,-3.27458 13.296598,-3.7889 l 5.586499,-0.4215 -7,1.83476 c -3.85,1.00912 -7.974629,2.1572 -9.165843,2.5513 -1.191214,0.3941 -2.413978,0.31505 -2.717254,-0.17566 z m 122.462047,-5.77248 c 0.048,-1.16495 0.28494,-1.4019 0.60416,-0.60417 0.28887,0.72187 0.25335,1.58437 -0.0789,1.91667 -0.3323,0.33229 -0.56864,-0.25834 -0.52522,-1.3125 z m -143.157691,8.25925 c 3.911185,-3.2803 22.814059,-9.7709 39.578741,-13.58998 13.323654,-3.0352 20.191035,-3.93198 39,-5.09284 9.35,-0.57707 21.725,-1.47898 27.5,-2.00426 21.29253,-1.93671 59.79169,2.14046 75.08589,7.9518 l 4.73999,1.80105 0.63171,-3.3673 C 201.12623,142.81022 199.67886,132.52692 197.80102,127.5 194.76826,119.38136 188.02899,114.05078 172.5,107.48756 128.96711,89.088679 129.23122,89.309863 128.25304,70.431998 l -0.52169,-10.068002 -9.11567,1.372082 C 113.45257,62.513223 104.25665,62.97631 97.407429,62.80408 86.299683,62.524764 85.352256,62.642521 85.774061,64.25 c 0.252561,0.9625 1.194218,1.763684 2.09257,1.780409 1.373095,0.02556 1.335391,0.203528 -0.236608,1.116833 -1.509893,0.877221 -1.606174,1.253539 -0.5,1.954278 C 88.257602,69.81582 88.234596,69.974793 87,70 c -1.333333,0.02722 -1.333333,0.140035 0,1.015313 1.333333,0.875277 1.333333,1.094097 0,1.969374 -1.249358,0.820152 -1.165811,0.993167 0.5,1.035436 1.947039,0.0494 1.944302,0.08291 -0.103349,1.265312 -1.156843,0.668011 -1.906843,1.777065 -1.666667,2.464565 0.240175,0.6875 -0.163317,1.256891 -0.896651,1.265313 -1.070895,0.0123 -1.080631,0.175656 -0.04946,0.829949 C 86.388901,80.863681 85.294422,84 83.333994,84 82.535379,84 82.160081,84.45 82.5,85 c 0.339919,0.55 -0.0694,1 -0.909598,1 -0.947053,0 -1.308873,0.570078 -0.952028,1.5 0.390499,1.017625 -0.05213,1.5 -1.376398,1.5 -1.0736,0 -2.808698,0.946639 -3.855771,2.103643 -2.915747,3.221864 -8.757921,6.328385 -22.42069,11.921987 -21.315534,8.72669 -26.872244,12.32809 -34.676383,22.47437 -4.359264,5.66754 -6.272181,10.81323 -7.435031,20 -0.954372,7.53974 -0.488205,16.5 0.858431,16.5 0.335493,0 1.32042,-0.59584 2.188727,-1.32408 z m 16.528288,-12.75755 c -0.316971,-0.51287 0.01471,-1.11896 0.737071,-1.34685 0.72236,-0.2279 5.065675,-1.62492 9.65181,-3.10451 6.11692,-1.97345 8.634572,-2.39401 9.45,-1.57858 0.815429,0.81543 0.533123,1.11157 -1.059636,1.11157 -1.194164,0 -5.778346,1.31644 -10.187071,2.92543 -4.512959,1.64702 -8.267709,2.51793 -8.592174,1.99294 z M 30.55,141.13107 c 1.529008,-1.39852 13.604397,-5.13625 16.394172,-5.07452 C 48.425064,136.08931 45.92505,137.32727 41,139 c -8.787372,2.98451 -12.12785,3.66574 -10.45,2.13107 z m 1,-5.96249 c 1.152072,-1.00827 8.640225,-3.19892 10.56602,-3.09108 C 42.877209,132.1201 41.25,132.98525 38.5,134 c -5.421705,2.0006 -8.490212,2.51654 -6.95,1.16858 z M 29,130.5918 c 0,-0.2245 2.7,-1.32 6,-2.43442 7.063639,-2.38543 8.199191,-1.3407 1.25,1.15002 -4.611757,1.65294 -7.25,2.12033 -7.25,1.2844 z m 91.5,-71.666215 c 10.20321,-1.651559 10.5,-1.772848 10.5,-4.290999 0,-1.28002 -0.64545,-3.633947 -1.43433,-5.230948 -0.87629,-1.773971 -1.79589,-8.653965 -2.36367,-17.683979 -0.51114,-8.129187 -1.25337,-15.104187 -1.64941,-15.5 -1.05485,-1.054271 -17.26453,-0.543122 -29.993582,0.945805 C 86.098593,18.272056 85.15048,18.535831 89,18.990249 l 4.5,0.531204 -3.375,0.739273 C 88.26875,20.667327 85.204692,21 83.315983,21 c -2.08966,0 -3.186116,0.401112 -2.800781,1.024597 0.389676,0.630509 2.585913,0.765566 5.710037,0.351136 3.708303,-0.491924 4.885404,-0.363774 4.366764,0.475403 -0.39052,0.631875 -1.695979,1.155009 -2.90102,1.162519 C 84.76312,24.031902 81,25.078099 81,25.873837 c 0,0.352316 2.082383,0.474956 4.627517,0.272533 3.213746,-0.255599 4.417771,-0.02867 3.940983,0.742794 C 89.190906,27.500124 87.108524,28 84.940983,28 82.222757,28 81,28.435978 81,29.405172 c 0,1.098233 1.36522,1.320757 6.25,1.018716 6.560275,-0.405641 6.43342,-0.339848 -4.060799,2.106136 -1.914387,0.446204 -2.257483,1.090244 -2,3.754288 L 81.5,39.5 88,39.268449 c 6.800705,-0.242262 5.658219,0.872281 -2.25,2.194971 -3.573988,0.597767 -3.744555,0.801091 -3.633999,4.331893 0.0638,2.037578 0.311852,2.968827 0.551225,2.069442 0.239372,-0.899385 1.709673,-1.890135 3.267335,-2.201667 1.557662,-0.311533 4.122111,-0.880554 5.698776,-1.264492 L 94.5,43.700527 92.595012,45.850263 c -1.047743,1.182356 -2.847743,2.156628 -4,2.16505 C 86.875917,48.027878 86.769152,48.204565 88,49 c 0.825,0.533156 1.05,1.007894 0.5,1.054972 -0.55,0.04708 -0.1,0.472342 1,0.945028 1.861074,0.799731 1.83308,0.864312 -0.40301,0.929715 L 86.693981,52 89,54 c 1.268311,1.1 3.163723,2 4.212027,2 1.048304,0 1.627892,0.45 1.287973,1 -0.354981,0.574371 0.556282,1 2.140983,1 3.497077,0 1.982703,1.659045 -2.140983,2.345517 -1.65,0.274677 2.175,0.286079 8.5,0.02534 6.325,-0.26074 14.2,-0.911112 17.5,-1.445272 z M 83.628916,43.9989 c 0.620903,-0.636202 3.095903,-1.374274 5.5,-1.640159 5.370493,-0.593959 3.313623,1.041925 -2.628916,2.090848 -3.020441,0.53314 -3.72354,0.422771 -2.871084,-0.450689 z M 83,38.196087 c 0,-0.570447 1.35,-1.297931 3,-1.616632 1.65,-0.3187 4.35,-0.84021 6,-1.15891 1.65,-0.318701 3,-0.151214 3,0.372192 0,0.523405 -1.6875,1.23392 -3.75,1.57892 -2.0625,0.345001 -4.7625,0.904999 -6,1.24444 C 83.966205,38.968237 83,38.787874 83,38.196087 z M 82,35.062129 C 82,34.615458 83.40625,33.96875 85.125,33.625 89.554042,32.739192 91.583004,32.832453 90.45,33.869763 89.149008,35.060874 82,36.069659 82,35.062129 z m 8.490694,23.952929 c 0.377416,-0.610672 -0.645135,-0.768676 -2.690983,-0.415808 -2.24572,0.387342 -2.868076,0.263826 -1.948399,-0.386689 1.000792,-0.70789 0.500845,-1.080645 -1.927377,-1.437033 l -3.27869,-0.481209 2.288162,1.85284 c 2.464754,1.995838 6.568885,2.467167 7.557287,0.867899 z m 0.238473,-2.619225 c -0.332292,-0.332291 -1.194792,-0.367818 -1.916667,-0.07895 -0.797733,0.319226 -0.560776,0.556183 0.604167,0.604167 1.054166,0.04342 1.644791,-0.192928 1.3125,-0.52522 z M 85.25,53.337719 c -0.6875,-0.277412 -1.8125,-0.277412 -2.5,0 -0.6875,0.277413 -0.125,0.504386 1.25,0.504386 1.375,0 1.9375,-0.226973 1.25,-0.504386 z"
     id="path15525"
     inkscape:connector-curvature="0" />
  <path
     style="fill:#268db4;fill-opacity:0.27319587;stroke:none"
     d="m 83.572034,62.161017 45.584746,-2.072034 c 0.68593,12.037341 -0.62206,21.261787 4.93661,27.083747 10.95364,11.47245 42.72792,17.24032 60.6778,30.9332 7.92556,6.69507 3.60413,29.37532 5.32007,57.9698 2.43926,40.64789 -6.20927,83.5185 -13.60821,115.39037 -2.85138,12.42472 -10.03289,10.99304 -15.88559,13.81356 C 133.35792,310.51 95.905848,312.55239 58.016949,308.04237 46.158905,306.40248 39.624977,299.86144 36.605932,290.08475 27.506087,241.27688 8.0473316,195.79012 9.3067984,143.66102 19.798786,102.46966 53.213584,106.27745 76.623357,90.192725 82.351308,82.79987 88.179386,74.451033 83.572034,62.161017 z"
     id="path15527"
     inkscape:connector-curvature="0"
     sodipodi:nodetypes="ccscsccccccc" />
  <path
     style="fill:url(#linearGradient16075);fill-opacity:1;stroke:none;filter:url(#filter16077)"
     d="m 33.698432,131.13515 c 19.535792,-4.06658 37.990953,-15.69757 56.652437,-25.8843 -14.37284,65.06869 3.489932,132.77175 21.488851,194.24358 -18.051682,4.14752 -35.089794,1.20004 -52.256985,-0.84388 C 50.954634,242.81208 23.443949,178.02923 33.698432,131.13515 z"
     id="path16039"
     inkscape:connector-curvature="0"
     sodipodi:nodetypes="ccccc" />
</svg>
