<?xml version="1.0" encoding="UTF-8" standalone="no"?>
<!-- Created with Inkscape (http://www.inkscape.org/) -->

<svg
   xmlns:dc="http://purl.org/dc/elements/1.1/"
   xmlns:cc="http://creativecommons.org/ns#"
   xmlns:rdf="http://www.w3.org/1999/02/22-rdf-syntax-ns#"
   xmlns:svg="http://www.w3.org/2000/svg"
   xmlns="http://www.w3.org/2000/svg"
   xmlns:sodipodi="http://sodipodi.sourceforge.net/DTD/sodipodi-0.dtd"
   xmlns:inkscape="http://www.inkscape.org/namespaces/inkscape"
   id="svg3036"
   version="1.1"
   inkscape:version="0.48.4 r9939"
   width="251"
   height="285"
   sodipodi:docname="BasicToolKit.png">
  <metadata
     id="metadata3042">
    <rdf:RDF>
      <cc:Work
         rdf:about="">
        <dc:format>image/svg+xml</dc:format>
        <dc:type
           rdf:resource="http://purl.org/dc/dcmitype/StillImage" />
        <dc:title></dc:title>
      </cc:Work>
    </rdf:RDF>
  </metadata>
  <defs
     id="defs3040" />
  <sodipodi:namedview
     pagecolor="#ffffff"
     bordercolor="#666666"
     borderopacity="1"
     objecttolerance="10"
     gridtolerance="10"
     guidetolerance="10"
     inkscape:pageopacity="0"
     inkscape:pageshadow="2"
     inkscape:window-width="1178"
     inkscape:window-height="727"
     id="namedview3038"
     showgrid="false"
     inkscape:zoom="1.6561404"
     inkscape:cx="187.77557"
     inkscape:cy="135.60363"
     inkscape:window-x="0"
     inkscape:window-y="22"
     inkscape:window-maximized="0"
     inkscape:current-layer="svg3036" />
  <path
     style="fill:#000000;fill-opacity:0.33505153;stroke:none"
     d="m 119.55508,11.472457 c 0.14101,-1.9287504 0.50127,-3.674793 3.01907,-3.6228809 28.80316,0.416799 57.94519,7.4417719 87.55297,23.5487289 2.81695,10.83082 7.92788,19.279417 21.13347,19.322034 l 12.22723,8.302437 -10.71769,18.869173 -13.43485,-8.604343 C 202.70627,45.952853 183.11607,64.846386 176.91737,80.15625 L 152.76483,66.419491 162.42585,32.002119 C 151.99743,21.297066 133.95788,18.203139 119.55508,11.472457 z"
     id="path3048"
     inkscape:connector-curvature="0"
     sodipodi:nodetypes="ccccccccccc" />
  <path
     style="fill:#000000;fill-opacity:0.33505153;stroke:none"
     d="m 14.491525,39.247881 7.245763,-8.151483 c 5.626588,6.861389 14.602675,10.708228 16.604873,20.831568 l 58.418962,83.779124 -5.736229,5.28337 C 74.17464,118.07746 57.313027,94.395168 41.255951,71.273202 37.673556,66.114603 33.995917,61.945885 30.190678,58.268008 22.027999,51.927966 19.724318,45.587923 14.491525,39.247881 z"
     id="path3818"
     inkscape:connector-curvature="0"
     sodipodi:nodetypes="cccccscc" />
  <path
     style="fill:#004bff;fill-opacity:0.78350513;stroke:none"
     d="m 156.69456,69.384865 16.65147,10.247057 c -13.30006,28.484458 -27.4057,55.803028 -41.49706,82.898808 -6.64981,12.7867 -14.45802,25.02597 -20.03565,38.23241 -10.65223,25.22181 -24.711341,49.45193 -40.083929,73.56284 C 58.328012,271.23285 45.637999,265.53138 33.943372,256.18016 73.547485,193.4227 112.69439,130.4938 156.69456,69.384865 z"
     id="path3820"
     inkscape:connector-curvature="0"
     sodipodi:nodetypes="ccssccc" />
  <path
     style="fill:#00daff;fill-opacity:1;stroke:none"
     d="m 80.911017,151.5572 c 7.521897,-10.49269 16.95283,-16.53097 26.869703,-21.43538 3.69221,15.42855 9.2182,29.02333 24.45445,32.90784 l 50.72034,72.15572 c 7.20194,20.99227 -4.81393,24.19026 -19.02013,25.36017 -23.02264,-20.10543 -38.98229,-49.03961 -57.66419,-74.57097 -4.01733,-25.37212 -15.711936,-26.68877 -25.360173,-34.41738 z"
     id="path3822"
     inkscape:connector-curvature="0"
     sodipodi:nodetypes="ccccccc" />
  <path
     style="fill:#000000"
     d="m 69.5,275.34525 c -11.196638,-2.29698 -18.20272,-5.40687 -28.675109,-12.72842 -3.671311,-2.56672 -7.046311,-4.60223 -7.5,-4.52337 -2.227377,0.38717 -1.774389,-0.75991 3.689801,-9.34346 3.238644,-5.0875 8.244243,-13.075 11.123554,-17.75 7.154729,-11.6168 26.161201,-41.27139 30.764567,-48 7.135988,-10.43048 12.969986,-19.5047 13.606545,-21.16367 0.498029,-1.29794 -0.806794,-2.35338 -5.935498,-4.80108 C 81.478384,154.6034 80,153.413 80,151.74193 80,147.47447 102.02609,129 107.11395,129 c 1.12374,0 1.89224,0.70732 1.90136,1.75 0.008,0.9625 0.39936,2.35598 0.86874,3.09663 0.61308,0.96739 2.22143,-0.86315 5.71103,-6.5 7.09983,-11.46854 31.90374,-48.217958 36.96204,-54.762874 2.20443,-2.852308 2.21219,-2.950968 0.35422,-4.5 -1.80026,-1.500918 -1.82002,-1.883833 -0.37767,-7.320861 0.83708,-3.155408 3.08444,-9.831509 4.99414,-14.835781 C 159.43752,40.922843 161,35.595481 161,34.088533 c 0,-3.70235 -3.09976,-6.284427 -11.5,-9.579426 -3.85,-1.510164 -8.35,-3.439454 -10,-4.287311 -1.65,-0.847858 -6.05479,-2.329189 -9.78843,-3.291847 -3.73363,-0.962658 -7.87413,-2.461671 -9.20111,-3.331138 -2.14311,-1.40422 -2.29548,-1.917047 -1.36375,-4.5898307 1.26426,-3.6266409 1.77204,-3.6620691 21.36016,-1.490301 16.51118,1.8306221 19.70473,2.4966127 34.48084,7.1907027 10.69811,3.398589 30.31562,12.58417 34.22464,16.025135 0.9418,0.829027 2.24753,3.140408 2.90163,5.136402 C 213.70365,40.72183 215.92202,44 217.61501,44 218.37675,44 219,44.456614 219,45.014698 c 0,1.901245 6.47934,4.977807 10.49134,4.981564 4.73207,0.0044 14.50866,6.097753 14.50866,9.04261 0,4.377236 -8.18143,18.326046 -11.49451,19.597393 C 230.025,79.588122 219.01071,71.9911 217.16675,68.056477 213.8808,61.04498 202.88036,58.043099 194.5,61.871013 c -4.6846,2.139794 -11.4787,9.20675 -14.44928,15.029574 -1.87359,3.67254 -2.98058,4.564994 -5.2519,4.234107 -0.79623,-0.115995 -20.42582,38.691136 -32.70851,64.663786 l -8.18061,17.29848 6.3472,8.20152 c 6.38816,8.25445 13.28773,18.072 28.25278,40.20152 4.46324,6.6 9.50875,14.02998 11.21225,16.51107 3.89307,5.67014 7.69354,17.10453 6.71247,20.19563 -3.34425,10.53677 -15.72231,16.7985 -24.36852,12.32737 -4.81001,-2.48735 -25.43993,-27.56192 -39.93107,-48.53407 -3.99035,-5.775 -7.77868,-10.5 -8.4185,-10.5 -0.63982,0 -2.30024,2.93138 -3.68981,6.51418 -1.38958,3.58279 -3.70947,8.53279 -5.15533,11 -1.44585,2.4672 -4.51838,8.258 -6.827838,12.86844 -2.309459,4.61045 -5.705543,10.68545 -7.546854,13.5 -1.841311,2.81456 -6.464792,10.72022 -10.274404,17.56813 -3.809611,6.84791 -7.330556,12.53041 -7.82432,12.62777 C 71.903989,275.67589 70.6,275.57092 69.5,275.34525 z m 9.186616,-13.85148 c 3.40264,-6.04657 7.82282,-13.55523 9.822623,-16.68591 1.999803,-3.13068 5.907728,-10.10568 8.684278,-15.5 C 99.970067,223.91354 103.06538,217.925 104.07198,216 106.89907,210.59356 112,198.88822 112,197.80719 c 0,-0.53254 -1.56113,-3.3202 -3.46918,-6.1948 -1.96743,-2.96405 -3.93645,-7.5827 -4.5486,-10.66946 -0.59368,-2.99361 -2.03688,-7.58558 -3.20711,-10.20436 -2.238398,-5.00917 -2.195939,-4.99548 -8.354953,-2.69448 C 90.794061,168.65159 83,179.80184 83,181.52064 c 0,0.20752 1.550927,-0.27071 3.446503,-1.06273 2.190205,-0.91513 3.670196,-1.0781 4.060175,-0.44711 0.597046,0.96605 -3.383106,2.9892 -5.880648,2.9892 -0.684074,0 -2.117279,0.6605 -3.1849,1.46777 -1.785063,1.34977 -1.679829,1.39558 1.30887,0.56981 3.740145,-1.03339 4.551932,0.50261 1,1.89212 -1.2375,0.48411 -3.54991,1.38556 -5.138688,2.00323 -4.058572,1.57784 -2.774861,2.23697 1.688688,0.86707 3.356746,-1.03021 5.850316,-0.61698 4.489361,0.74397 -0.558704,0.55871 -4.827033,1.55418 -8.174383,1.90647 C 74.826385,192.63867 72,195.5108 72,197.1401 c 0,0.41682 1.560547,0.10581 3.467881,-0.69113 C 79.489165,194.76877 80,194.70008 80,195.83948 80,196.97642 75.398497,199 72.81319,199 c -1.902596,0 -4.702848,2.46306 -4.781387,4.20564 -0.01749,0.3881 1.838392,0.0458 4.124186,-0.76068 2.285794,-0.80647 4.355855,-1.26645 4.600136,-1.02217 0.915477,0.91548 -0.808583,2.33778 -3.485316,2.87529 -4.094912,0.82229 -8.625511,2.68055 -8.017583,3.28848 0.291832,0.29183 2.209197,-0.17076 4.260812,-1.02798 3.857471,-1.61175 7.357292,-2.09658 6.106658,-0.84594 -1.182041,1.18204 -9.87841,4.24612 -10.667344,3.75853 -0.404021,-0.2497 -1.46918,0.66714 -2.367021,2.03742 -1.843019,2.8128 -1.220102,3.06866 2.413669,0.99141 3.000133,-1.71503 4,-1.83799 4,-0.4919 0,0.98826 -7.866677,4.64294 -9.155144,4.25327 -0.36033,-0.10897 -0.929518,0.51687 -1.264863,1.39077 -0.471206,1.22794 -0.151995,1.44793 1.405145,0.96838 1.108174,-0.34129 2.914862,-0.898 4.014862,-1.23715 1.1,-0.33915 2,-0.15573 2,0.40759 0,0.56332 -2.209051,1.59038 -4.909003,2.28236 -4.076007,1.04465 -5.274677,1.90876 -7.063985,5.09241 C 52.841772,227.27458 52.324266,229 52.876998,229 c 0.552733,0 1.283083,-0.45 1.623002,-1 0.339919,-0.55 1.518034,-1 2.618034,-1 3.023897,0 1.484651,1.48098 -3.118034,3 -2.255143,0.74426 -4.343537,1.74684 -4.640874,2.22794 -0.297338,0.4811 1.065393,0.2037 3.028289,-0.61645 2.076809,-0.86775 3.809101,-1.10254 4.143425,-0.56159 0.315987,0.51128 -1.460444,1.47387 -3.947625,2.13909 -2.487181,0.66522 -4.75076,1.80524 -5.030176,2.53339 -0.398278,1.0379 -0.06968,1.0893 1.521051,0.23797 1.115994,-0.59726 3.018366,-0.92443 4.227495,-0.72704 1.59511,0.26041 0.848145,0.76089 -2.721904,1.82375 -2.706175,0.80567 -5.098562,1.99958 -5.316414,2.65314 -0.289405,0.86822 0.429853,0.9514 2.670319,0.30885 C 49.717383,239.50746 51,239.5119 51,240.02966 c 0,0.48953 -1.805344,1.43095 -4.011875,2.09204 -2.206531,0.6611 -4.569031,1.87783 -5.25,2.70387 -1.080688,1.31089 -0.945356,1.34585 1.064282,0.27492 1.266325,-0.67482 3.066325,-1.07268 4,-0.88413 1.043001,0.21063 -0.132563,1.10261 -3.048659,2.31323 -2.610438,1.08373 -4.747938,2.32374 -4.75,2.75559 -0.0021,0.43185 0.868942,0.31814 1.935564,-0.2527 1.159645,-0.62062 2.168428,-0.66717 2.509208,-0.11578 0.313444,0.50717 -1.002979,1.44121 -2.925383,2.07566 -4.267194,1.40831 -6.088768,3.6174 -2.17229,2.63443 3.413228,-0.85666 3.373334,-0.10775 -0.100847,1.89318 l -2.75,1.58385 2.75,-0.57096 c 1.574466,-0.3269 2.75,-0.13535 2.75,0.44809 0,0.56048 0.701558,1.01905 1.559017,1.01905 0.857459,0 1.276365,0.45734 0.930902,1.01631 -0.345464,0.55897 -1.11655,0.71444 -1.713526,0.34549 -0.627143,-0.38759 -0.799426,-0.20809 -0.408055,0.42517 2.417846,3.91215 24.693734,13.62118 29.631662,12.91506 0.825,-0.11797 4.283977,-5.16169 7.686616,-11.20826 z M 56.58125,224.01875 c 0.539688,-0.53969 2.542188,-1.24193 4.45,-1.56055 L 64.5,221.8789 62,223.40402 c -2.823956,1.72274 -7.000577,2.19656 -5.41875,0.61473 z m 30.422649,-47.35586 c 0.827144,-0.87959 2.402144,-1.72608 3.5,-1.88107 2.322631,-0.32792 3.727505,1.38361 1.496101,1.82266 -0.825,0.16233 -2.625,0.60171 -4,0.9764 -2.260502,0.616 -2.355928,0.52805 -0.996101,-0.91799 z M 90,171.52568 c 0,-0.26088 1.35,-1.17243 3,-2.02568 1.65,-0.85325 3,-1.10564 3,-0.56086 0,0.54477 -0.870416,1.45633 -1.934259,2.02568 C 92.036574,172.05079 90,172.33174 90,171.52568 z M 165.28975,257 c -0.64512,-2.46692 0.53843,-2.59456 2.3182,-0.25 0.7708,1.0154 1.34179,1.23846 1.36025,0.53138 0.0175,-0.67023 0.7068,-0.95959 1.5318,-0.64301 0.825,0.31659 1.5,0.043 1.5,-0.608 0,-0.73602 1.28124,-1.07322 3.38813,-0.8917 3.80454,0.32778 6.04139,-1.13481 8.24105,-5.38849 1.3674,-2.64425 1.31062,-3.47337 -0.65448,-9.55602 -1.30378,-4.03563 -4.4988,-10.017 -8.10716,-15.17735 -3.27545,-4.68425 -8.8405,-12.79181 -12.36678,-18.01681 -14.10064,-20.89336 -16.1474,-23.84176 -22.7086,-32.71226 -5.78505,-7.82118 -7.90529,-9.84962 -14.04103,-13.43309 -3.97488,-2.32145 -8.01057,-5.15094 -8.9682,-6.28774 -2.21133,-2.62506 -8.75639,-15.26011 -8.19545,-15.82106 C 109.31171,138.02162 106.85601,132 105.83643,132 103.27826,132 88,143.25033 88,145.13407 c 0,0.52902 -1.2375,2.11659 -2.75,3.52792 l -2.75,2.56605 2.714817,-1.61402 c 3.710925,-2.20623 4.459652,-2.02453 2.190171,0.53149 -1.899136,2.13892 -1.897813,2.14174 0.430658,0.91898 1.284606,-0.67459 2.580258,-0.98192 2.879226,-0.68295 0.298969,0.29897 -0.625461,1.07623 -2.054289,1.72725 -1.428828,0.65101 -2.355527,1.57578 -2.059331,2.05504 0.296196,0.47925 1.692772,-0.0365 3.103502,-1.14623 1.41073,-1.10968 3.291777,-2.00563 4.180105,-1.99099 1.061726,0.0175 0.672877,0.61082 -1.134859,1.73162 -3.10228,1.92342 -3.801389,3.87482 -0.815741,2.27695 2.956861,-1.58246 4.899903,-1.22438 2.638742,0.48629 -2.415029,1.82708 -1.443551,3.0148 1.275611,1.55955 1.110948,-0.59456 2.836989,-1.07101 3.835647,-1.05878 1.527461,0.0187 1.418821,0.33271 -0.684259,1.97776 -1.375,1.07554 -1.964058,1.96553 -1.309017,1.97776 C 98.346024,159.98999 99.160081,159.55 99.5,159 c 0.77936,-1.26104 2.5,-1.30742 2.5,-0.0674 0,0.51294 -0.90653,1.22034 -2.014521,1.572 -2.931136,0.93031 -1.346977,2.60568 1.825811,1.93093 2.45178,-0.52141 2.5345,-0.44593 0.93871,0.85657 -2.59792,2.12045 -2.12833,2.94989 1.25,2.20789 3.31478,-0.72805 4.24713,0.94061 1,1.78975 -1.1,0.28766 -2,1.04546 -2,1.68402 0,0.7208 0.85311,0.92624 2.25,0.54184 2.13539,-0.58763 2.15576,-0.54351 0.39986,0.86608 -1.01757,0.81688 -1.52928,2.00439 -1.13713,2.63891 0.51343,0.83075 1.01729,0.84938 1.80014,0.0665 2.33636,-2.33636 2.89424,-0.93394 0.61144,1.53708 l -2.42431,2.62421 2.5,-0.67196 c 2.08362,-0.56004 2.20854,-0.48918 0.75,0.42548 -1.88652,1.1831 -2.40118,3.9981 -0.73095,3.9981 0.59887,0 0.74919,1.07522 0.36457,2.60766 -0.60972,2.42931 -0.5053,2.52783 1.52668,1.44035 2.03328,-1.08818 2.09501,-1.02937 0.91047,0.86737 -0.94804,1.51806 -0.98244,2.32295 -0.13545,3.16994 0.84699,0.84699 1.52873,0.40898 2.68492,-1.72504 1.4013,-2.58641 1.55352,-2.6505 1.58972,-0.6693 0.022,1.20504 -0.40996,2.4691 -0.95996,2.80902 -0.55,0.33992 -0.98198,1.60398 -0.95996,2.80902 0.0369,2.0174 0.15823,1.97311 1.53193,-0.55902 2.01689,-3.71769 3.88096,-3.52655 1.95371,0.20034 -0.83912,1.62269 -1.52568,3.42269 -1.52568,4 0,1.97376 1.67759,1.05268 2.87693,-1.57957 1.62837,-3.57388 2.39927,-2.46152 1.02539,1.47959 -0.60868,1.74606 -0.77825,3.95653 -0.37681,4.91215 0.58472,1.39195 0.90905,1.09114 1.63078,-1.51251 0.49549,-1.7875 1.26009,-3.25 1.69911,-3.25 1.03083,0 0.14091,6.32318 -0.99347,7.05897 -0.47398,0.30744 -0.20113,1.43244 0.60634,2.5 1.44861,1.91523 1.46875,1.91445 1.51524,-0.059 0.0259,-1.1 0.52438,-2.675 1.10769,-3.5 0.78858,-1.1153 0.94493,-0.28658 0.60964,3.23125 -0.31021,3.25471 -0.0218,5.08741 0.92411,5.87245 1.08311,0.8989 1.3783,0.74365 1.39036,-0.73126 0.008,-1.02984 0.44693,-2.54744 0.97447,-3.37244 0.64471,-1.00824 0.76319,0.17682 0.36141,3.61479 -0.38723,3.31341 -0.20214,5.3593 0.52553,5.80902 0.66414,0.41046 1.16614,-0.0452 1.22813,-1.11479 0.0577,-0.99496 0.69809,-0.009 1.42315,2.19098 0.91334,2.77128 1.3419,3.30885 1.39515,1.75 0.13139,-3.84677 2.07503,-2.46415 2.10865,1.5 0.0175,2.0625 0.6925,4.62351 1.5,5.69113 1.36328,1.80242 1.4682,1.62972 1.4682,-2.41667 0,-5.96444 1.45315,-4.08699 1.62865,2.10419 0.13501,4.76301 1.37135,8.45668 1.37135,4.09703 0,-4.06505 1.74947,-3.14071 2.23668,1.18176 0.27075,2.40213 1.27652,5.43064 2.23505,6.73003 1.73513,2.35218 1.74005,2.34391 1.1237,-1.88747 -0.34049,-2.3375 -0.22643,-4.25 0.25346,-4.25 0.47989,0 1.14825,2.32804 1.48524,5.17342 0.74237,6.26814 2.63535,8.88753 2.72926,3.77658 0.0607,-3.30221 0.10586,-3.34351 1.05498,-0.96426 0.54538,1.36716 0.7841,3.27921 0.53049,4.24901 -0.2536,0.96979 -0.0534,2.01526 0.44502,2.32327 0.49837,0.30801 0.90612,-0.36654 0.90612,-1.499 0,-1.13246 0.45,-2.05902 1,-2.05902 0.55,0 1.00689,1.4625 1.01531,3.25 0.0177,3.76321 1.88994,7.65325 2.04546,4.25 0.0648,-1.41896 0.43243,-1.06862 1.26531,1.20592 1.60313,4.37809 3.59381,6.32582 2.93317,2.8699 -0.2913,-1.52383 -0.0364,-2.57582 0.62417,-2.57582 0.9979,0 1.51851,2.16104 1.38523,5.75 -0.0255,0.6875 0.53644,1.25 1.24884,1.25 0.80294,0 1.09647,-0.7602 0.77226,-2 z m 9.68129,1.03906 c 0.80907,-0.51167 1.22622,-1.17513 0.927,-1.47435 -0.29922,-0.29923 -1.41119,0.11199 -2.47104,0.91382 -2.10837,1.59508 -0.82724,2.06017 1.54404,0.56053 z M 96,165 c 0.825,-0.53316 1.05,-0.96937 0.5,-0.96937 -0.55,0 -1.675,0.43621 -2.5,0.96937 -0.825,0.53316 -1.05,0.96937 -0.5,0.96937 0.55,0 1.675,-0.43621 2.5,-0.96937 z m 39.64122,-10.75 c 1.94009,-4.2625 10.9548,-22.74718 20.0327,-41.07707 9.0779,-18.329893 16.35245,-33.469965 16.16567,-33.644607 C 171.65282,79.353681 168.8,77.589521 165.5,75.607967 159.05151,71.735838 156.72168,71.111131 157.63837,73.5 c 0.41884,1.091469 -0.11834,1.5 -1.97236,1.5 -2.93029,0 -4.53671,1.843842 -2.63202,3.021009 0.90461,0.559078 0.59271,0.899258 -1.04355,1.138197 -1.28358,0.187437 -2.54293,0.975001 -2.79856,1.750144 -0.3193,0.968208 0.0474,1.212789 1.17167,0.781384 C 151.2636,81.345354 152,81.490073 152,82.012333 c 0,0.52226 -1.16776,1.242652 -2.59502,1.600872 -1.73536,0.435548 -2.18614,0.904015 -1.36073,1.414143 0.85705,0.529687 0.35124,1.272802 -1.65498,2.431396 -1.5891,0.917709 -2.10177,1.429042 -1.13927,1.136294 3.1573,-0.960302 1.83018,0.996301 -1.87381,2.76261 -1.99309,0.95044 -3.38163,1.970245 -3.08564,2.266233 0.29599,0.295988 1.44711,0.0517 2.55806,-0.542861 2.78132,-1.488514 3.6222,-1.353232 2.20474,0.354701 -0.65535,0.789647 -2.47286,1.717145 -4.03891,2.061107 -1.56605,0.343962 -3.08841,1.25356 -3.38303,2.021329 -0.42623,1.110723 -0.0213,1.200398 1.98156,0.438894 3.56732,-1.356295 5.19875,-1.130073 3.13703,0.434995 -0.9625,0.730642 -1.75,1.769094 -1.75,2.307684 0,0.53858 -1.125,1.49182 -2.5,2.11832 -1.375,0.62649 -2.5,1.81515 -2.5,2.64146 0,0.82631 -1.09188,1.77643 -2.4264,2.11137 -1.33453,0.33495 -3.24703,1.52808 -4.25,2.6514 -1.76064,1.97189 -1.67352,1.96638 2.52331,-0.1597 4.63536,-2.34824 5.56456,-2.29843 4.5882,0.24592 -0.58904,1.53503 -7.02384,4.35766 -8.79748,3.85903 -0.90134,-0.2534 -3.55076,2.76511 -3.60583,4.10815 -0.0175,0.42662 1.34841,0.062 3.03533,-0.8104 1.68693,-0.87234 3.82443,-1.41524 4.75,-1.20645 1.89052,0.42647 -4.90148,3.73666 -7.68925,3.74749 -0.89534,0.003 -2.39829,1.36016 -3.3399,3.01486 -1.65616,2.91038 -1.65015,2.97542 0.18426,1.99367 1.04295,-0.55817 2.48836,-1.00054 3.21202,-0.98305 1.99842,0.0483 -2.24771,2.9682 -4.31637,2.9682 -0.96242,0 -2.06853,0.51563 -2.45803,1.14584 -0.49838,0.80641 0.0766,0.94888 1.94099,0.48095 1.59851,-0.4012 2.64915,-0.25083 2.64915,0.37916 0,0.57423 -1.33991,1.31203 -2.97757,1.63956 -1.63767,0.32754 -3.48786,1.21038 -4.11155,1.96187 -0.94763,1.14182 -0.61427,1.18518 2.02862,0.26386 4.01719,-1.4004 5.31809,-0.31339 1.44919,1.21091 -2.65811,1.04727 -2.72905,1.20036 -0.88869,1.91785 1.84982,0.72118 1.78861,0.86309 -0.8151,1.88987 -4.17388,1.64596 -5.21623,1.35473 -3.1849,-0.88987 2.13267,-2.35657 1.35729,-2.71443 -0.92857,-0.42857 -2.25094,2.25094 -2.00836,4.35559 0.42857,3.71832 2.19885,-0.57501 2.6401,0.67015 0.86612,2.44413 -0.84517,0.84517 -0.3746,2.48746 1.84813,6.45 2.40087,4.28011 4.22961,6.02693 9.38388,8.96353 3.52103,2.00608 6.53997,3.69358 6.70876,3.75 0.16879,0.0564 1.89424,-3.38491 3.83433,-7.64741 z M 134.5,105 c 0.33992,-0.55 0.14148,-1 -0.44098,-1 -0.58246,0 -1.05902,0.45 -1.05902,1 0,0.55 0.19844,1 0.44098,1 0.24254,0 0.7191,-0.45 1.05902,-1 z m 2,-3 c 0.33992,-0.55 0.16803,-1 -0.38197,-1 -0.55,0 -1.27811,0.45 -1.61803,1 -0.33992,0.55 -0.16803,1 0.38197,1 0.55,0 1.27811,-0.45 1.61803,-1 z m 41.82346,-26.552112 c 2.56088,-5.370217 10.628,-13.504001 15.58747,-15.716267 9.29486,-4.146157 21.30626,-1.146547 25.08739,6.265086 C 220.7561,69.442241 229.10464,76 231.7333,76 c 1.26206,0 6.46615,-7.986837 8.61212,-13.217229 l 1.52514,-3.717229 -3.82918,-3.032771 C 235.35749,53.907095 233.11876,53 230.55644,53 223.26458,53 212.7462,45.363767 210.86588,38.704862 210.21283,36.392188 208.96335,33.734431 208.08926,32.798736 205.43969,29.962434 185.19224,20.535548 173.5,16.694531 160.20975,12.328552 148.41498,10.199387 132.75,9.3384325 122.44684,8.7721662 121,8.8867241 121,10.268771 c 0,1.563255 2.12389,2.489779 10.89345,4.752149 2.4164,0.623383 7.1414,2.379942 10.5,3.903465 3.3586,1.523524 8.18673,3.553042 10.72917,4.510042 6.04183,2.2742 10.87738,6.714641 10.87738,9.988599 0,1.394673 -1.77214,6.932539 -3.93808,12.306371 -5.58337,13.852657 -6.78007,18.700359 -5.11239,20.709787 1.19251,1.436885 19.75134,12.447897 21.11526,12.52775 0.31063,0.01819 1.32703,-1.565384 2.25867,-3.519046 z m 47.43925,-5.013205 c -1.51404,-0.821509 -3.02804,-2.70288 -3.38789,-4.209962 C 222.01699,64.726124 221.28117,62.9375 220.73967,62.25 220.04224,61.364546 220.20566,61 221.3,61 c 0.87203,0 2.0365,1.489567 2.6736,3.420006 0.79565,2.41083 2.02098,3.731058 4.15256,4.474128 1.66312,0.579767 2.73854,1.515764 2.38983,2.079994 -0.82009,1.326927 -1.44408,1.25611 -4.75328,-0.539445 z M 160.57108,65.74882 c -1.53539,-2.343291 -1.2358,-7.910292 0.57844,-10.74882 0.64968,-1.016469 0.76874,-0.02478 0.36936,3.076385 C 160.85031,63.267869 161.57031,66 163.60699,66 164.37314,66 165,66.45 165,67 c 0,1.850824 -2.94075,1.020055 -4.42892,-1.25118 z M 157.73111,20.397778 C 157.24709,19.913756 154.92858,19.29876 152.75,19.076511 152.3375,19.03443 152,18.514245 152,17.920545 c 0,-0.691654 1.16758,-0.833434 3.25,-0.394647 3.69588,0.77876 5.37077,1.972414 3.97661,2.834048 -0.52121,0.322124 -1.19418,0.339149 -1.4955,0.03783 z M 82.457953,130.48892 c -3.276874,-4.6811 -9.025,-12.6686 -12.773614,-17.75 C 65.935725,107.65751 61.899533,101.925 60.715022,100 58.638043,96.624611 48.294493,81.743728 38.309963,67.76667 c -3.186725,-4.461007 -6.258012,-7.498273 -9.100808,-9 C 26.021816,57.082935 23.77433,54.669291 20.470086,49.381517 18.023563,45.466351 15.341943,41.698751 14.510931,41.009072 12.321842,39.192289 12.531399,38.665707 17.462696,33.591776 22.052103,28.869623 24,27.927915 24,30.431327 c 0,0.78723 2.697627,3.777652 5.994727,6.645382 4.881053,4.245409 6.31139,6.218621 7.699266,10.621471 0.937496,2.974079 3.104358,7.071157 4.815249,9.104618 1.710892,2.033461 6.683722,9.095415 11.050735,15.693232 4.367013,6.597816 9.113546,13.347816 10.547851,15 1.434305,1.652183 6.571191,8.85397 11.415302,16.00397 4.844111,7.15 10.983088,16.20448 13.642172,20.12107 2.659084,3.91659 4.834698,7.40409 4.834698,7.75 0,2.1739 -2.490274,-0.61379 -8.574371,-9.59843 C 74.597854,105.78283 67.216917,95.260158 59.982847,85.5 56.313988,80.55 51.616667,73.8 49.544355,70.5 47.472042,67.2 44.020913,62.200804 41.875178,59.390675 39.729442,56.580546 37.192227,52.006757 36.23692,49.226699 34.90427,45.348523 32.96264,42.765788 27.894826,38.130139 l -6.605174,-6.041909 -2.644826,2.760604 c -1.454654,1.518332 -2.624033,3.18598 -2.598619,3.705885 0.02541,0.519904 2.415467,4.320281 5.31123,8.445281 3.453254,4.919144 6.683666,8.287478 9.387618,9.78842 3.80778,2.113669 11.95729,11.811783 15.267536,18.168738 0.703731,1.351437 3.727755,5.767676 6.720053,9.813865 2.992298,4.046189 8.53171,11.940468 12.309805,17.542837 3.778094,5.60238 8.801627,12.74007 11.163406,15.86155 6.099729,8.06177 12.840536,17.78191 13.471079,19.42508 1.46019,3.80519 -1.881337,0.51338 -7.218981,-7.11157 z M 25.310429,49.479344 C 22.637664,45.285085 23.789235,43.962972 26.539591,48.068148 27.617816,49.677504 29.2875,50.995543 30.25,50.997125 31.2125,50.998706 32,51.45 32,52 c 0,2.471099 -4.617292,0.731286 -6.689571,-2.520656 z"
     id="path3046"
     inkscape:connector-curvature="0" />
</svg>
