<?xml version="1.0" encoding="UTF-8" standalone="no"?>
<!-- Created with Inkscape (http://www.inkscape.org/) -->

<svg
   xmlns:dc="http://purl.org/dc/elements/1.1/"
   xmlns:cc="http://creativecommons.org/ns#"
   xmlns:rdf="http://www.w3.org/1999/02/22-rdf-syntax-ns#"
   xmlns:svg="http://www.w3.org/2000/svg"
   xmlns="http://www.w3.org/2000/svg"
   xmlns:sodipodi="http://sodipodi.sourceforge.net/DTD/sodipodi-0.dtd"
   xmlns:inkscape="http://www.inkscape.org/namespaces/inkscape"
   id="svg29391"
   version="1.1"
   inkscape:version="0.48.4 r9939"
   width="503"
   height="519"
   sodipodi:docname="Bow.png">
  <metadata
     id="metadata29397">
    <rdf:RDF>
      <cc:Work
         rdf:about="">
        <dc:format>image/svg+xml</dc:format>
        <dc:type
           rdf:resource="http://purl.org/dc/dcmitype/StillImage" />
        <dc:title></dc:title>
      </cc:Work>
    </rdf:RDF>
  </metadata>
  <defs
     id="defs29395" />
  <sodipodi:namedview
     pagecolor="#ffffff"
     bordercolor="#666666"
     borderopacity="1"
     objecttolerance="10"
     gridtolerance="10"
     guidetolerance="10"
     inkscape:pageopacity="0"
     inkscape:pageshadow="2"
     inkscape:window-width="664"
     inkscape:window-height="736"
     id="namedview29393"
     showgrid="false"
     inkscape:zoom="0.64307206"
     inkscape:cx="231.14395"
     inkscape:cy="28.521946"
     inkscape:window-x="2"
     inkscape:window-y="28"
     inkscape:window-maximized="0"
     inkscape:current-layer="svg29391" />
  <path
     style="fill:#562115;fill-opacity:1;stroke:none"
     d="m 295.45678,417.53392 5.44262,1.16628 c -10.37707,43.33128 -33.28854,57.26084 -33.0445,56.7588 -17.75317,14.29951 -39.58819,23.2606 -66.86654,27.66858 -13.73809,-0.30284 -25.47166,-2.95104 -37.04596,-7.24897 -13.86295,-7.67847 -27.10578,-15.97707 -43.03838,-21.58589 -6.56773,2.55662 -18.5446,-1.89625 -20.235,-3.91117 l -3.550036,2.57982 C 81.02624,475.1392 60.504169,462.97445 51.316177,487.51053 l -9.330214,0.38876 4.276348,11.08939 c -10.246647,2.4796 -22.039183,9.71407 -30.641208,7.13511 -3.68646,-8.11539 -1.2551,-15.5868 1.920213,-22.97989 4.084448,-6.96757 9.775675,-13.93513 18.613264,-20.9027 l 62.590186,-26.82437 2.721314,3.49883 c 13.55727,4.61218 21.99693,10.63222 25.29291,19.6421 4.51939,0.98531 5.51753,3.62028 7.58411,5.96452 10.2489,11.62591 20.45033,22.58911 38.49359,27.06045 16.73187,5.46299 35.42906,3.68892 50.83714,-0.91497 10.62607,-2.62103 21.1147,-8.52344 31.74078,-13.65372 11.29572,-10.47478 21.96613,-21.57487 30.71195,-34.59955 4.42039,-7.85675 8.18066,-15.93354 9.33022,-24.88057 z"
     id="path29919"
     inkscape:connector-curvature="0"
     sodipodi:nodetypes="cccccccccccccccccsccccc" />
  <path
     style="fill:#084a0d;fill-opacity:1;stroke:none"
     d="m 291.95795,393.43087 15.1616,3.11007 c 2.06918,-17.91636 2.81463,-36.16364 12.82904,-52.09369 11.86627,-19.3927 31.58418,-27.72172 54.81501,-31.10072 3.16041,-2.94692 2.0062,-8.77026 2.33255,-13.60656 -26.67982,-6.44509 -47.40365,5.67 -63.75646,16.52226 -12.26205,20.73479 -26.60132,39.4517 -21.38174,77.16864 z"
     id="path29911"
     inkscape:connector-curvature="0"
     sodipodi:nodetypes="ccccccc" />
  <path
     style="fill:#003b32;fill-opacity:1;stroke:none"
     d="m 291.66261,393.6483 c 4.53629,-1.59755 9.52424,1.77304 14.29449,2.74895 5.14246,6.5593 -3.09136,14.10944 -4.6732,21.16684 l -9.89619,-2.47405 c -1.29727,-8.69128 -2.73362,-17.77389 0.2749,-21.44174 z"
     id="path29913"
     inkscape:connector-curvature="0"
     sodipodi:nodetypes="ccccc" />
  <path
     style="fill:#003b32;fill-opacity:1;stroke:none"
     d="m 376.80458,299.73997 -0.77751,16.23068 14.77283,0.19438 5.53982,-3.20726 -0.29157,-8.94145 c -6.75285,-2.58542 -14.17429,-7.46315 -19.24357,-4.27635 z"
     id="path29915"
     inkscape:connector-curvature="0"
     sodipodi:nodetypes="cccccc" />
  <path
     style="fill:#562115;fill-opacity:1;stroke:none"
     d="m 395.84746,304.30773 0.54979,10.17108 c 19.15095,-5.76404 38.30191,-5.08586 57.45286,-25.01536 12.60841,-17.41832 28.24392,-33.46068 29.41366,-56.07839 1.30268,-16.38847 3.17722,-32.73882 -0.82468,-49.48093 -10.00689,-19.14937 -15.55823,-38.67003 -16.76854,-58.55244 l 2.19915,-8.52171 -6.04767,-24.465574 3.57363,-1.37447 c -4.96227,-9.814778 -1.23962,-20.610111 16.49364,-32.987288 l -3.57362,-10.171081 c 5.30983,-0.978582 10.70646,-0.828754 15.66896,-6.322564 L 490.96081,16.218749 C 483.60782,14.5016 477.51988,15.567551 471.99312,17.868114 463.7536,25.122987 458.06455,32.146 453.85011,39.034957 l -17.31833,63.225633 c 3.9951,10.84688 6.77471,22.45344 13.46981,31.61282 10.42387,17.72803 20.32774,35.51384 27.48941,53.60434 5.31874,39.86716 -4.82006,66.11073 -21.0294,87.00398 l -24.87791,22.40386 c -11.38652,6.15291 -23.6578,6.11256 -35.73623,7.42214 z"
     id="path29917"
     inkscape:connector-curvature="0"
     sodipodi:nodetypes="ccccccccccccccccccccc" />
  <path
     style="fill:#000000"
     d="m 14.02712,505.57133 c -1.60387,-4.2185 -1.209786,-13.06914 0.819743,-18.41043 2.851624,-7.50486 8.85212,-15.80835 14.755972,-20.41932 3.93126,-3.07035 5.755222,-5.34418 6.839533,-8.52646 0.813248,-2.38675 3.164682,-6.67405 5.22541,-9.52733 6.771531,-9.37586 16.750314,-22.00943 21.439588,-27.14345 C 65.641417,418.76995 75.05009,407.275 84.015529,396 100.15174,375.70698 103.15774,372.16927 115.9311,358.43898 119.54399,354.55542 130.375,342.87404 140,332.48035 173.41051,296.40154 289.21221,179.96129 317.50157,154 392.03505,77.590389 451.42918,39.542949 460.0754,28.805262 c 3.49583,-4.426249 8.26517,-9.098712 11.22807,-11 C 475.9304,14.83617 477.19769,14.5 483.76361,14.5 c 8.53525,0 9.19848,0.581387 9.22108,8.083219 0.008,2.79577 0.50593,7.526178 1.10557,10.512018 1.50227,7.480346 0.25647,11.987247 -3.6362,13.154608 -1.62473,0.487236 -4.63389,1.595228 -6.68701,2.462204 l -3.73295,1.576321 2.23295,3.991119 2.23295,3.991119 -2.93495,2.114696 c -5.61935,4.048872 -10.75311,9.027682 -13.64966,13.237676 -3.32765,4.836566 -3.88351,10.997169 -1.41868,15.723111 1.38389,2.653401 1.34962,2.881333 -0.50616,3.366631 -2.43181,0.635934 -2.43502,0.340235 0.0899,8.287278 2.95302,9.29447 3.97624,18.97728 2.26909,21.47251 -4.07456,5.95549 1.68274,32.70786 11.60719,53.93493 4.5136,9.65398 5.37262,15.21582 5.41998,35.09256 0.0445,18.67908 -0.82506,25.02807 -5.50152,40.16869 -1.91019,6.18449 -13.91352,25.35006 -22.29474,35.59775 -4.14553,5.06873 -16.58601,14.4043 -22.93107,17.20791 -9.2786,4.09982 -24.8859,8.62479 -31.58204,9.15647 -3.79538,0.30136 -8.20206,1.38967 -10.44034,2.57844 -3.20258,1.70091 -4.97591,1.95399 -10.24447,1.462 -3.50431,-0.32724 -7.33392,-1.11007 -8.51025,-1.73962 -2.68592,-1.43746 -7.87335,-0.67336 -18.82527,2.77293 -17.77454,5.59319 -32.37194,19.02082 -39.54844,36.37922 -2.96999,7.18377 -6.45262,26.24377 -6.48036,35.46621 -0.02,6.66528 -1.27158,8.91995 -4.10854,7.40165 -1.53589,-0.82198 -2.34889,0.17399 -5.8468,7.1626 -2.23457,4.46454 -4.06286,8.6566 -4.06286,9.31569 0,0.69335 1.34006,1.17132 3.17991,1.1342 2.86195,-0.0577 3.41278,-0.59554 5.50874,-5.37856 1.28085,-2.92293 1.87489,-5.03387 1.32009,-4.69098 -0.55481,0.34289 -1.00874,0.25512 -1.00874,-0.19504 0,-1.40505 3.8494,-3.35225 4.51095,-2.28184 0.7259,1.17453 -4.20176,12.48079 -6.141,14.09021 -0.75347,0.62533 -1.36995,2.80018 -1.36995,4.83301 0,12.37232 -13.24323,36.59548 -27.11907,49.60343 -2.95951,2.77441 -8.30593,6.79015 -11.88093,8.92388 -3.575,2.13373 -8.20931,5.20635 -10.29847,6.82804 -5.18053,4.02136 -20.55075,10.17509 -34.57797,13.84388 -10.84329,2.83604 -12.49623,3.00712 -24.62356,2.5486 -11.42683,-0.43203 -13.9076,-0.85339 -20.5,-3.48192 -9.45628,-3.77042 -22.08096,-10.38499 -28.2448,-14.79856 -2.60963,-1.86862 -6.81808,-3.86212 -9.35209,-4.43 -2.53402,-0.56789 -5.87834,-1.6898 -7.43182,-2.49314 -1.55349,-0.80334 -6.15418,-1.68135 -10.22376,-1.95115 -7.4475,-0.49373 -13.98555,-2.49208 -15.34383,-4.68982 -0.48944,-0.79192 -1.0118,-0.43261 -1.571776,1.08114 -0.76611,2.07099 -1.292876,2.21852 -6.085318,1.70431 C 90.860973,474.32001 83.93926,473.77 78.365021,473.40738 68.84898,472.78833 67.885029,472.90602 62.580509,475.33451 56.631963,478.05785 54,481.80156 54,487.53945 c 0,2.08745 -0.446107,2.56755 -2.25,2.42142 -4.42538,-0.35846 -7.75,0.0544 -7.75,0.9624 0,0.50781 1.211514,2.36308 2.692254,4.12284 2.616272,3.10926 2.63812,3.23915 0.774134,4.60213 -3.055557,2.23427 -20.423763,7.49628 -26.689268,8.08599 -5.507025,0.51831 -5.761622,0.43673 -6.75,-2.1629 z M 35.5,501.83963 c 4.95,-1.68704 9.152291,-3.20591 9.338424,-3.37525 0.186133,-0.16934 -1.019776,-3.1556 -2.679798,-6.63614 C 39.116904,485.45073 35,471.75775 35,468.01838 c 0,-2.72231 -0.46607,-2.58979 -5.553593,1.57905 -4.593468,3.764 -11.288174,13.49414 -13.280373,19.30179 -1.626664,4.74205 -1.453406,10.64438 0.418729,14.26469 1.489311,2.88001 1.835642,3.0248 5.75,2.40383 C 24.625643,505.20432 30.55,503.52667 35.5,501.83963 z m -14.849262,-1.30741 c -1.227712,-3.19936 0.928565,-3.82449 2.875254,-0.83357 1.39702,2.14641 1.45451,2.49935 0.2459,1.50961 -1.241716,-1.01684 -1.665444,-1.0276 -1.991126,-0.0506 -0.260183,0.78055 -0.67956,0.54842 -1.130028,-0.62548 z M 24.591957,498.5 c -0.900935,-1.375 -1.48384,-2.5 -1.295345,-2.5 0.188494,0 1.320892,1.125 2.516439,2.5 1.195547,1.375 1.778453,2.5 1.295346,2.5 -0.483108,0 -1.615505,-1.125 -2.51644,-2.5 z M 29,499 c -0.901292,-0.58246 -1.024633,-0.97549 -0.309017,-0.98469 0.655041,-0.008 1.469098,0.43469 1.809017,0.98469 0.767305,1.24153 0.421123,1.24153 -1.5,0 z M 32.404988,496.75 30.5,494.5 l 2.25,1.90499 C 34.864445,498.19521 35.455241,499 34.654988,499 c -0.189757,0 -1.202257,-1.0125 -2.25,-2.25 z m 1.519326,-1.5 L 31.5,492.5 l 2.75,2.42431 C 36.820289,497.1902 37.458588,498 36.674314,498 c -0.179127,0 -1.416627,-1.2375 -2.75,-2.75 z M 36.5,494 c -1.756774,-1.94121 -1.746633,-2 0.345012,-2 C 38.030256,492 39,492.1882 39,492.41821 c 0,0.23002 0.273145,1.13002 0.606989,2 C 40.456503,496.63201 38.663526,496.39067 36.5,494 z m 180.5,4.49022 c 13.19767,-3.15133 26.7317,-8.65182 34.5,-14.02147 3.3,-2.28104 8.79733,-5.81804 12.2163,-7.85998 12.78831,-7.63771 27.74079,-28.35766 33.16982,-45.96411 C 299.4031,422.48208 299.58666,419 297.5,419 c -0.825,0 -1.5,0.65335 -1.5,1.45188 0,3.39334 -6.07688,19.13323 -9.57517,24.80091 -4.57356,7.40976 -26.05429,29.49218 -32.93057,33.85299 -2.71034,1.71884 -8.86439,4.6274 -13.67568,6.46345 -4.8113,1.83606 -9.77623,3.9997 -11.03319,4.80809 -4.48891,2.88695 -19.4228,5.62332 -30.61435,5.60954 -15.26979,-0.0188 -27.34416,-2.70435 -39.06833,-8.68949 -7.9889,-4.0783 -10.57567,-6.07121 -17.25979,-13.29733 -5.79198,-6.26163 -8.08686,-8.14837 -8.71451,-7.16463 -0.46861,0.73448 -1.2235,1.2846 -1.67754,1.22251 -0.45404,-0.0621 -0.9322,0.61393 -1.06259,1.5023 -0.13038,0.88836 -0.95744,2.41121 -1.8379,3.38411 -1.4026,1.54985 -1.41895,1.91986 -0.13201,2.98792 0.80785,0.67046 3.77147,1.82644 6.58582,2.56885 4.15481,1.09602 4.91334,1.10446 4.03397,0.0449 -0.59565,-0.71773 -2.53542,-1.64305 -4.31059,-2.05628 -1.89291,-0.44063 -2.57472,-0.92067 -1.6488,-1.16086 2.51621,-0.65273 7.06822,1.51722 7.62156,3.6332 0.67017,2.56276 10.32099,8.7509 23.32179,14.95404 13.17214,6.28489 15.68215,6.85991 30.47788,6.98216 9.59842,0.0793 14.10138,-0.40261 22.5,-2.40804 z m -1.90026,-6.6685 c 5.0094,-1.04131 11.37901,-3.04411 14.1547,-4.45065 2.77569,-1.40655 6.98338,-3.14022 9.35044,-3.8526 9.78264,-2.94414 17.55366,-8.46132 30.16371,-21.41528 14.31482,-14.70523 18.10432,-20.38183 22.33881,-33.46313 l 3.1066,-9.59702 -2.607,-3.09824 C 289.20038,413.08468 289,412.12062 289,403.40184 c 0,-9.13251 0.0836,-9.4828 2.52868,-10.59686 2.35327,-1.07222 7.06618,-0.1326 14.13177,2.81747 0.77772,0.32472 1.15295,-0.93483 1.1377,-3.81897 -0.0405,-7.66182 3.24208,-27.57113 5.77636,-35.03433 3.74127,-11.01767 11.68498,-22.22771 20.54504,-28.99288 8.29873,-6.33656 16.12025,-10.53446 22.80517,-12.2398 3.43395,-0.876 4.6751,-1.73476 5.19404,-3.59377 0.59487,-2.13102 0.6946,-2.1777 0.78156,-0.36589 0.0827,1.72395 0.60939,2.002 3.09968,1.6365 1.88471,-0.27662 3.02935,-1.0487 3.07895,-2.07681 0.05,-1.03702 0.26371,-1.1786 0.58333,-0.3865 0.27741,0.6875 1.7644,1.25 3.30442,1.25 3.10972,0 3.99599,-1.80415 4.01965,-8.18261 0.01,-2.66419 -0.47997,-3.83928 -1.77129,-4.24913 -3.80349,-1.20718 -28.59729,1.19586 -33.71506,3.2677 -11.8957,4.81578 -21.81825,10.46106 -25.93031,14.75265 C 302.00263,330.70432 292,359.54742 292,382.66948 c 0,6.04439 -0.36028,9.22589 -1,8.83052 -0.55835,-0.34508 -1,-5.0162 -1,-10.57646 0,-23.68356 11.45063,-54.95067 24.38175,-66.57686 5.09036,-4.57667 21.93124,-13.34163 29.11825,-15.15481 10.10689,-2.54982 30.45751,-3.30195 32.96798,-1.21844 1.04426,0.86665 1.53202,0.9141 1.53202,0.14901 0,-2.39911 10.23367,0.24586 14.24282,3.68117 2.36713,2.02832 16.23732,1.10862 28.04659,-1.85969 7.24342,-1.82067 9.61796,-2.93757 13.5,-6.34993 2.59082,-2.27737 6.28559,-5.30671 8.21059,-6.73188 6.05067,-4.47959 17.04749,-16.42167 20.72959,-22.51147 10.3247,-17.07594 14.37533,-33.1115 14.61323,-57.85064 0.14758,-15.34618 0.0384,-16.29969 -2.67127,-23.33387 -3.34252,-8.67699 -10.13199,-21.73415 -16.72576,-32.16613 -8.07283,-12.77201 -16.31101,-29.67202 -18.55423,-38.06262 -0.94657,-3.54056 -2.34441,-6.95344 -3.1063,-7.58419 -1.16499,-0.96444 -0.99163,-2.11556 1.09022,-7.239027 1.36152,-3.350722 3.43959,-10.484659 4.61793,-15.853193 C 443.17176,76.892437 445.42551,67.775 447.00175,62 450.06034,50.794015 452.0823,40.762439 451.41796,40.089735 394.07693,82.859469 358.92584,113.80297 316.5,157.4918 c -11.55,10.61134 -32.025,30.47706 -45.5,44.14605 -13.475,13.66899 -42.09833,42.40483 -63.6074,63.85743 -21.50906,21.4526 -43.30173,43.72972 -48.42815,49.50472 -5.12641,5.775 -12.76637,14.1 -16.97769,18.5 -25.78652,26.94186 -37.05534,39.70077 -56.525552,64 -9.254654,11.55 -19.370386,23.925 -22.479406,27.5 -3.10902,3.575 -9.287372,11.28361 -13.729672,17.13024 -11.265675,14.82706 -13.778839,19.95958 -8.50213,17.36351 8.992536,-4.42422 33.128413,-15.00051 42.75,-18.73297 2.2,-0.85344 6.648146,-2.76468 9.88477,-4.2472 4.729585,-2.16636 6.051609,-2.43226 6.73469,-1.35453 0.46745,0.73752 0.85681,1.62837 0.86523,1.97966 0.008,0.35129 1.48154,0.91378 3.2736,1.24997 6.70885,1.25859 22.74171,14.30383 22.74171,18.50394 0,0.58081 1.29708,1.72677 2.8824,2.54657 1.58532,0.8198 6.64782,5.61092 11.25,10.64693 5.99044,6.55513 10.49828,10.40893 15.8676,13.56535 16.04437,9.43188 37.50941,12.45039 58.09974,8.17025 z M 301.87244,390.25 c -1.24387,-1.58606 -1.2085,-1.62143 0.37756,-0.37756 1.66575,1.30637 2.19548,2.12756 1.37244,2.12756 -0.20765,0 -0.99515,-0.7875 -1.75,-1.75 z m 1.63884,-2.87312 c -0.9453,-1.44272 -1.22448,-2.31766 -0.62038,-1.94431 1.15439,0.71346 3.48267,4.56743 2.75929,4.56743 -0.23109,0 -1.1936,-1.18041 -2.13891,-2.62312 z m 0.69239,-3.42236 C 303.53233,382.87953 303.38872,382 303.88454,382 c 0.89777,0 2.44391,3.00488 1.85114,3.59765 -0.17126,0.17127 -0.86067,-0.56814 -1.53201,-1.64313 z M 304,377 c -0.5887,-1.1 -0.84537,-2 -0.57037,-2 0.275,0 0.98167,0.9 1.57037,2 0.5887,1.1 0.84537,2 0.57037,2 -0.275,0 -0.98167,-0.9 -1.57037,-2 z m 1.59196,-4.5 c -0.90094,-1.375 -1.24992,-2.5 -0.77553,-2.5 0.4744,0 1.37512,1.125 2.00162,2.5 0.62649,1.375 0.97547,2.5 0.77552,2.5 -0.19995,0 -1.10068,-1.125 -2.00161,-2.5 z m 0.72246,-6.25 c -0.34254,-0.9625 -0.80498,-2.0875 -1.02763,-2.5 -0.22265,-0.4125 0.0193,-0.75 0.53762,-0.75 0.51834,0 1.15749,1.125 1.42034,2.5 0.54994,2.87681 -0.0122,3.32995 -0.93033,0.75 z m 1.25701,-5.82143 c -0.36782,-1.46551 -0.47591,-2.85742 -0.24019,-3.09314 0.23571,-0.23571 0.72951,0.77049 1.09733,2.236 0.36782,1.46551 0.47591,2.85742 0.24019,3.09314 -0.23571,0.23571 -0.72951,-0.77049 -1.09733,-2.236 z m 2.54457,-4.59678 c -0.0638,-0.91752 -0.37498,-2.49252 -0.69151,-3.5 -0.54548,-1.73622 -0.51588,-1.73885 0.56728,-0.0504 0.62853,0.97978 0.9397,2.55478 0.6915,3.5 -0.40654,1.54825 -0.46276,1.55325 -0.56727,0.0504 z m 0.50754,-8.37045 c -0.96498,-2.51469 -0.68031,-3.16355 0.49853,-1.13634 0.58369,1.00375 0.8506,2.03566 0.59313,2.29313 -0.25747,0.25747 -0.74872,-0.26309 -1.09166,-1.15679 z m 3.45541,-6.04467 c 0.048,-1.16495 0.28494,-1.4019 0.60416,-0.60417 0.28887,0.72187 0.25335,1.58438 -0.0789,1.91667 -0.33229,0.33229 -0.56864,-0.25834 -0.52522,-1.3125 z m 3,-5 c 0.048,-1.16495 0.28494,-1.4019 0.60416,-0.60417 0.28887,0.72187 0.25335,1.58438 -0.0789,1.91667 -0.33229,0.33229 -0.56864,-0.25834 -0.52522,-1.3125 z m 2.65226,-1.33651 c -0.43497,-1.66335 -0.30483,-2.05378 0.43724,-1.31171 0.5811,0.5811 0.85979,1.64682 0.61931,2.36826 -0.24965,0.74895 -0.70294,0.29565 -1.05655,-1.05655 z M 323,331 c 0,-1.1 0.17252,-2 0.38337,-2 0.21085,0 0.61872,0.9 0.90638,2 0.28766,1.1 0.11514,2 -0.38337,2 C 323.40787,333 323,332.1 323,331 z m 4.07895,-4.58333 c 0.048,-1.16495 0.28494,-1.4019 0.60416,-0.60417 0.28887,0.72187 0.25335,1.58438 -0.0789,1.91667 -0.33229,0.33229 -0.56864,-0.25834 -0.52522,-1.3125 z M 335.0856,323 c -0.0302,-0.825 0.38124,-2.175 0.9144,-3 1.18132,-1.82797 1.18132,-0.24909 0,2.5 -0.56668,1.31874 -0.87815,1.48906 -0.9144,0.5 z m 4,-3 c -0.0302,-0.825 0.38124,-2.175 0.9144,-3 1.18132,-1.82797 1.18132,-0.24909 0,2.5 -0.56668,1.31874 -0.87815,1.48906 -0.9144,0.5 z M 342,318.55902 c 0,-0.79254 0.40803,-1.69316 0.90674,-2.00138 0.49871,-0.30822 0.67122,0.34022 0.38337,1.44098 C 342.6795,320.33361 342,320.62877 342,318.55902 z m 4.07895,-3.14235 c 0.048,-1.16495 0.28494,-1.4019 0.60416,-0.60417 0.28887,0.72187 0.25335,1.58438 -0.0789,1.91667 -0.33229,0.33229 -0.56864,-0.25834 -0.52522,-1.3125 z M 349,315.05902 c 0,-0.51754 0.44485,-1.21592 0.98855,-1.55194 0.56686,-0.35034 0.7345,0.0511 0.39301,0.94098 C 349.71677,316.18048 349,316.49745 349,315.05902 z m 4.07895,-2.64235 c 0.048,-1.16495 0.28494,-1.4019 0.60416,-0.60417 0.28887,0.72187 0.25335,1.58438 -0.0789,1.91667 -0.33229,0.33229 -0.56864,-0.25834 -0.52522,-1.3125 z m 4,-1 c 0.048,-1.16495 0.28494,-1.4019 0.60416,-0.60417 0.28887,0.72187 0.25335,1.58438 -0.0789,1.91667 -0.33229,0.33229 -0.56864,-0.25834 -0.52522,-1.3125 z M 52.809153,482.42374 c 0.88587,-3.31217 2.186948,-5.13277 5.257858,-7.35732 6.170338,-4.46977 12.801379,-5.59119 24.915679,-4.21366 15.921417,1.81045 14.879361,2.15858 13.777416,-4.60276 -1.274498,-7.8201 -0.430917,-23.19896 1.482983,-27.03546 1.530895,-3.06876 1.527331,-3.07775 -0.859698,-2.17021 -1.318331,0.50123 -3.690297,1.58014 -5.271035,2.39757 -1.580738,0.81743 -8.890184,3.9427 -16.243213,6.94504 -12.76817,5.21341 -31.834997,13.76883 -36.619143,16.43127 -2.818289,1.56842 -2.849148,3.9825 -0.178324,13.95017 2.569504,9.58954 3.6672,10.90474 8.700736,10.42471 3.621887,-0.3454 3.932072,-0.63912 5.036741,-4.76935 z M 45.8125,481.31689 c 0.721875,-0.28887 1.584375,-0.25335 1.916667,0.0789 0.332291,0.33229 -0.258334,0.56864 -1.3125,0.52522 -1.164943,-0.048 -1.4019,-0.28494 -0.604167,-0.60416 z M 47,478.03138 c 0,-0.53273 0.675,-0.70959 1.5,-0.39301 0.825,0.31659 1.5,0.75246 1.5,0.96862 C 50,478.82314 49.325,479 48.5,479 47.675,479 47,478.56412 47,478.03138 z m 2.557298,-1.61314 c -1.066756,-0.78003 -1.516049,-1.41135 -0.998428,-1.40293 1.382257,0.0225 3.960956,1.7982 3.410597,2.34856 -0.259936,0.25993 -1.345412,-0.1656 -2.412169,-0.94563 z M 50.5,474 c -0.782182,-1.2656 0.541628,-1.2656 2.5,0 1.292687,0.8354 1.266292,0.97149 -0.190983,0.98469 C 51.878976,474.99311 50.839919,474.55 50.5,474 z m 2.3125,-2.68311 c 0.721875,-0.28887 1.584375,-0.25335 1.916667,0.0789 0.332291,0.33229 -0.258334,0.56864 -1.3125,0.52522 -1.164943,-0.048 -1.4019,-0.28494 -0.604167,-0.60416 z m 1.9375,-1.97917 c 0.6875,-0.27741 1.8125,-0.27741 2.5,0 0.6875,0.27741 0.125,0.50439 -1.25,0.50439 -1.375,0 -1.9375,-0.22698 -1.25,-0.50439 z M 59.5,468 c -0.339919,-0.55 -0.168034,-1 0.381966,-1 0.55,0 1.278115,0.45 1.618034,1 0.339919,0.55 0.168034,1 -0.381966,1 -0.55,0 -1.278115,-0.45 -1.618034,-1 z m 17.640341,-0.1472 c -5.122805,-1.4742 -3.112648,-2.04202 2.578479,-0.72835 2.76004,0.6371 6.202413,0.86115 7.649717,0.4979 2.299548,-0.57715 2.644499,-1.19412 2.734815,-4.8914 l 0.103353,-4.23095 1.034453,3.91265 c 0.891123,3.37053 0.781043,4.09795 -0.794482,5.25 -2.08579,1.52517 -8.355854,1.61477 -13.306335,0.19015 z M 64,467 c -1.292687,-0.8354 -1.266292,-0.97149 0.190983,-0.98469 0.930041,-0.008 1.969098,0.43469 2.309017,0.98469 0.782182,1.2656 -0.541628,1.2656 -2.5,0 z m 57.32015,3.25 C 123.49313,466.77544 126,460.71728 126,458.94057 c 0,-1.96963 -8.29507,-10.92142 -12.79737,-13.81054 -5.05926,-3.24652 -10.96165,-5.16717 -9.72369,-3.16411 0.8896,1.43941 -0.78157,1.29521 -2.50241,-0.21592 -0.7829,-0.6875 -0.57816,-0.2375 0.45499,1 1.16843,1.39954 1.41958,2.25 0.66445,2.25 -0.6677,0 -0.95511,0.41891 -0.63868,0.9309 0.31644,0.512 0.14909,1.19434 -0.37188,1.51631 -0.52097,0.32198 -1.272836,0.0585 -1.67082,-0.58541 -0.482405,-0.78054 -0.287268,-0.90114 0.58541,-0.3618 0.87268,0.53934 1.06781,0.41874 0.58541,-0.3618 -1.392635,-2.25333 -2.504086,-0.0299 -2.198932,4.39888 0.174442,2.53174 1.091198,5.33326 2.115662,6.46529 1.6764,1.8524 1.60233,2.36579 -0.25214,1.74763 -0.4125,-0.1375 -0.626351,-0.62095 -0.475223,-1.07433 0.151127,-0.45338 -0.180089,-0.54321 -0.736036,-0.19961 -1.052649,0.65057 -0.960306,3.25707 0.180011,5.08108 0.363491,0.58143 0.533892,1.92245 0.378669,2.98005 -0.550625,3.75164 7.317169,8.25605 14.640039,8.38159 4.42551,0.0759 4.89188,-0.1657 7.08269,-3.66878 z m -10.64753,1.77984 c -2.10506,-0.40709 -4.80506,-1.74745 -6,-2.97858 l -2.17262,-2.23842 3.98519,2.09358 c 2.19186,1.15147 5.48091,2.09358 7.30902,2.09358 1.96124,0 3.07046,0.40995 2.70579,1 -0.33992,0.55 -0.92898,0.94825 -1.30902,0.885 -0.38004,-0.0632 -2.4133,-0.44807 -4.51836,-0.85516 z M 100.33714,453.75 c -1.178392,-1.88628 -1.291611,-3.8399 -0.18282,-3.15463 0.53831,0.3327 0.72771,0.85594 0.42089,1.16276 -0.30682,0.30682 -0.0567,1.16176 0.55591,1.89986 0.61257,0.73811 0.86023,1.34201 0.55034,1.34201 -0.30988,0 -0.91483,-0.5625 -1.34432,-1.25 z m 28.23059,16.98948 c 0.13336,-0.90866 -0.50232,-2.23426 -1.41263,-2.94579 -1.51061,-1.18075 -1.52415,-1.12457 -0.1551,0.64354 1.35275,1.74706 1.33789,1.87657 -0.15135,1.31924 -1.52391,-0.5703 -1.6591,-0.12067 -0.92516,3.07686 0.23819,1.0377 2.44059,-0.70628 2.64424,-2.09385 z m 4.13007,-6.14607 c -0.16908,-0.50724 -1.38538,-1.63576 -2.7029,-2.50783 -2.22193,-1.47069 -2.34792,-1.4611 -1.73887,0.13239 0.36114,0.94489 0.20442,1.99745 -0.34826,2.33903 -0.65729,0.40623 -0.61269,1.09362 0.12895,1.98724 0.89979,1.08419 1.52961,1.11903 3.05117,0.1688 1.05453,-0.65856 1.77899,-1.6124 1.60991,-2.11963 z m -4.14501,1.492 c -0.32198,-0.52097 -0.15917,-1.21065 0.3618,-1.53262 0.52097,-0.32198 1.21065,-0.15917 1.53262,0.3618 0.32198,0.52097 0.15917,1.21065 -0.3618,1.53262 -0.52097,0.32198 -1.21065,0.15917 -1.53262,-0.3618 z m 169.27474,-60.70169 c 2.35028,-4.73896 4.1347,-8.75482 3.96539,-8.92413 -0.16932,-0.16932 -1.65449,-0.45449 -3.30038,-0.63372 -2.67157,-0.29092 -3.22945,0.15679 -5.20132,4.17413 -3.24717,6.61553 -2.68037,7.41521 0.70878,1 3.86504,-7.31601 3.80429,-5.47118 -0.0884,2.68528 -1.69864,3.55916 -2.8288,6.73083 -2.51149,7.04815 0.31732,0.31732 1.99396,-2.63123 3.72587,-6.55232 1.73191,-3.92109 3.56639,-6.87125 4.07662,-6.55591 0.51996,0.32135 0.29994,1.29889 -0.50058,2.22408 -0.78555,0.90789 -2.23162,3.80291 -3.21347,6.43338 -0.98185,2.63046 -2.16844,5.01951 -2.63686,5.30901 -1.06562,0.65859 -1.11977,2.40833 -0.0745,2.40833 0.42743,0 2.7001,-3.87733 5.05039,-8.61628 z M 293.50963,397 l 1.76398,-3.5 -2.13681,1.90499 c -1.17524,1.04774 -2.1368,2.81024 -2.1368,3.91666 0,2.4144 0.22985,2.20177 2.50963,-2.32165 z m 89.84173,-83.2405 c -0.28054,-0.45393 0.44392,-2.44223 1.60992,-4.41844 1.16599,-1.97622 1.9258,-3.78732 1.68845,-4.02467 -0.4623,-0.4623 -3.63055,3.77641 -5.50995,7.37161 -0.99358,1.90067 -0.88997,2.16888 0.78894,2.04242 1.063,-0.0801 1.70319,-0.51699 1.42264,-0.97092 z m 7.66293,-3.78751 c 2.23051,-4.37216 2.44909,-5.37641 0.97142,-4.46316 -0.99334,0.61392 -4.98571,7.82906 -4.98571,9.01035 0,1.49312 2.20972,-1.00993 4.01429,-4.54719 z m 1.94675,2.83945 c 1.12143,-1.20371 2.03354,-3.34121 2.02691,-4.75 -0.0107,-2.27492 -0.29034,-2.07463 -2.5,1.79063 -3.38871,5.92773 -3.22813,6.93217 0.47309,2.95937 z m -10.48557,-3.91018 c 5.05914,-7.04196 5.10509,-7.38752 1.14406,-8.60319 -3.49845,-1.07371 -5.66021,-0.24117 -5.58773,2.15193 0.0175,0.5775 0.6925,0.17649 1.5,-0.89113 1.86749,-2.46904 1.85564,-1.7304 -0.0452,2.81901 -1.94097,4.64539 -1.22702,4.60567 1.97737,-0.11001 1.39483,-2.05268 2.53605,-3.38081 2.53605,-2.95141 0,0.4294 -1.77886,3.45887 -3.95303,6.73214 -4.92288,7.41153 -2.81523,8.15155 2.4285,0.85266 z m 6.59373,-1.03691 c 1.66173,-3.25726 1.83549,-4.30522 0.81807,-4.93402 -1.4576,-0.90085 -2.88727,-0.31275 -2.88727,1.1877 0,0.55 0.49821,0.69209 1.10713,0.31576 0.76055,-0.47005 0.87607,0.0593 0.36901,1.69098 -0.40597,1.30638 -1.36365,2.74039 -2.12817,3.18669 -0.76452,0.4463 -1.12901,1.2338 -0.80999,1.75 0.93092,1.50625 1.30413,1.16835 3.53122,-3.19711 z m 25.76508,1.06078 c 18.22161,-4.88255 34.37183,-13.93643 41.15564,-23.07202 16.69684,-22.48525 20.82722,-29.76228 24.0393,-42.35311 3.41064,-13.36918 4.3907,-26.29221 3.20081,-42.20566 -1.0062,-13.45671 -1.26766,-14.60828 -5.5531,-24.45797 C 475.20347,171.15137 472.28403,164.25 471.18928,161.5 468.87933,155.69739 465,136.90746 465,131.52154 c 0,-2.02851 -0.3375,-3.5379 -0.75,-3.3542 -0.4125,0.1837 -3.32786,1.83372 -6.47858,3.66671 l -5.72859,3.33269 1.3392,3.20517 c 0.73656,1.76283 3.63363,6.86621 6.43794,11.34082 6.42471,10.25143 14.30551,25.83067 17.34431,34.28727 2.09266,5.82359 2.3242,8.11297 2.22503,22 -0.18271,25.58418 -3.86193,40.39646 -14.46882,58.2505 -4.83966,8.14636 -14.46483,18.52289 -23.54112,25.37878 -3.50866,2.65031 -6.37937,5.12349 -6.37937,5.49596 0,2.94426 -16.92964,8.14688 -30.75,9.44972 l -7.25,0.68346 0,3.43817 0,3.43817 5.25,-0.62219 c 2.8875,-0.34221 8.55042,-1.50656 12.58428,-2.58744 z M 459.61062,127.81317 C 462.04979,126.0615 464,123.84767 464,122.83048 464,121.82372 464.45,121 465,121 c 0.55594,0 1,-2.67369 1,-6.02108 0,-6.76457 -3.9246,-21.69852 -5.18201,-19.71867 -0.62446,0.983252 -0.79053,0.981131 -0.80268,-0.01025 -0.008,-0.6875 -0.51638,-1.25 -1.12881,-1.25 -0.65384,0 -0.94184,1.169604 -0.69765,2.833333 0.27498,1.873607 -0.0253,2.833334 -0.8865,2.833334 -0.71629,0 -1.30235,-1.05 -1.30235,-2.333334 C 456,95.925926 455.40476,95 454.5,95 c -0.825,0 -1.5,0.45 -1.5,1 0,0.55 -0.52266,0.8875 -1.16147,0.75 -0.63882,-0.1375 -1.49396,0.875 -1.90032,2.25 -0.45984,1.55594 -0.77649,1.85101 -0.83853,0.781385 -0.14567,-2.511566 -3.08381,-1.051188 -3.16997,1.575605 -0.0684,2.08423 -0.0938,2.08815 -0.92971,0.14301 -0.789,-1.836109 -0.86644,-1.795136 -0.94503,0.5 -0.0696,2.03399 -0.27917,2.22039 -1.12404,1 -0.85507,-1.23513 -0.97838,-1.14684 -0.69829,0.5 0.18709,1.1 -0.31953,2.50305 -1.12582,3.11789 -1.27282,0.9706 -1.16399,2.02469 0.82594,8 1.26056,3.78516 3.63856,9.44053 5.28446,12.56748 2.79622,5.31239 3.15693,5.62288 5.49828,4.7327 1.37816,-0.52398 4.48097,-2.37118 6.89512,-4.1049 z m -9.94731,-2.63271 C 447.74872,123.06486 443.88712,112 445.06337,112 c 0.43709,0 1.49119,2.39579 2.34244,5.32399 0.85125,2.92819 2.45818,6.14793 3.57096,7.15498 1.95283,1.7673 2.09282,1.76803 4.02323,0.021 2.11915,-1.9178 2.84245,-0.74245 0.8,1.3 -1.73013,1.73013 -4.23954,1.47678 -6.13669,-0.61954 z m 1.41564,-26.763793 c 0.048,-1.164943 0.28494,-1.4019 0.60416,-0.604167 0.28887,0.721875 0.25335,1.584375 -0.0789,1.916667 -0.33229,0.332293 -0.56864,-0.258334 -0.52522,-1.3125 z M 454,92.705692 c 2.475,-0.861842 5.6742,-1.815879 7.10933,-2.120084 2.55721,-0.542051 2.58976,-0.652021 1.63004,-5.50584 -0.84486,-4.272913 -0.68578,-5.559011 1.15888,-9.369583 2.33883,-4.831368 7.38641,-10.550407 13.58973,-15.397521 l 3.98798,-3.116102 -2.17636,-4.077345 c -1.2208,-2.287133 -1.76436,-4.331981 -1.23798,-4.657298 1.56601,-0.967849 1.05061,-4.333308 -0.81162,-5.299723 -2.70441,-1.403471 -19.77349,-4.282282 -21.48849,-3.624174 -0.93029,0.356987 -1.99012,3.000127 -2.71606,6.773701 C 452.39069,49.715275 450.78083,56.1 449.46799,60.5 c -1.31284,4.4 -3.58453,13.4 -5.04821,20 -1.46368,6.6 -3.4998,14.136121 -4.52471,16.746935 l -1.86347,4.746935 5.7342,-3.860597 C 446.91961,96.009946 451.525,93.567534 454,92.705692 z m -8.55565,-4.071404 c -0.60547,-2.412383 1.2722,-11.25107 2.19427,-10.329001 0.27894,0.278944 0.0269,2.236868 -0.56015,4.350942 C 445.6368,87.848159 445.72406,89 447.55902,89 c 0.85746,0 1.2809,0.45 0.94098,1 -1.06026,1.715532 -2.43671,1.10033 -3.05565,-1.365712 z m 16.01453,-19.700819 c -0.36253,-0.586592 -0.44468,-1.281 -0.18255,-1.543128 0.26212,-0.262129 0.74306,0.21781 1.06875,1.066531 0.67618,1.762107 0.0999,2.072058 -0.8862,0.476597 z m 3,-2 c -0.36253,-0.586592 -0.44468,-1.281 -0.18255,-1.543128 0.26212,-0.262129 0.74306,0.21781 1.06875,1.066531 0.67618,1.762107 0.0999,2.072058 -0.8862,0.476597 z m 4.62007,-5.516802 c 0.048,-1.164943 0.28494,-1.4019 0.60416,-0.604167 0.28887,0.721875 0.25335,1.584375 -0.0789,1.916667 -0.33229,0.332291 -0.56864,-0.258334 -0.52522,-1.3125 z M 471,58.059017 c 0,-0.517541 0.44485,-1.215913 0.98855,-1.551938 0.56686,-0.350339 0.7345,0.05106 0.39301,0.940983 C 471.71677,59.180479 471,59.497449 471,58.059017 z M 474.5,55 c -0.33992,-0.55 -0.14148,-1 0.44098,-1 0.58246,0 1.05902,0.45 1.05902,1 0,0.55 -0.19844,1 -0.44098,1 -0.24254,0 -0.7191,-0.45 -1.05902,-1 z m 17.77061,-13.519067 c 0.69361,-1.239409 0.65307,-3.771327 -0.12826,-8.011796 C 491.51406,30.059285 491,25.273789 491,22.834703 491,17.232289 489.73725,16 483.99634,16 476.77287,16 469.94831,19.988515 462.95376,28.298046 459.67919,32.188231 457,35.737611 457,36.185555 457,36.6335 458.00222,37 459.22715,37 c 3.5941,0 18.1511,3.248388 19.62703,4.379761 0.74479,0.570925 1.73311,2.034728 2.19626,3.252896 0.84074,2.211316 0.84956,2.212015 5.52408,0.437597 2.5751,-0.977491 5.13834,-2.592685 5.69609,-3.589321 z M 485,25 c -0.90129,-0.58246 -1.02463,-0.975486 -0.30902,-0.984687 0.65504,-0.0084 1.4691,0.434687 1.80902,0.984687 0.7673,1.241525 0.42112,1.241525 -1.5,0 z m -1.1875,-5.683114 c 0.72187,-0.288871 1.58438,-0.253344 1.91667,0.07895 0.33229,0.332292 -0.25834,0.568641 -1.3125,0.52522 -1.16495,-0.04798 -1.4019,-0.284941 -0.60417,-0.60417 z M 297,414.5088 c 0,-1.19514 6.33254,-14.50959 6.71775,-14.12438 0.23635,0.23634 -0.22145,1.70904 -1.01733,3.27265 -0.79588,1.56361 -1.7455,3.96793 -2.11027,5.34293 -0.61956,2.33543 -0.55692,2.31316 0.95158,-0.33841 0.88813,-1.56112 1.8151,-2.63809 2.05993,-2.39327 0.72582,0.72583 -3.9995,8.20972 -5.35532,8.48168 C 297.56085,414.8875 297,414.779 297,414.5088 z"
     id="path29909"
     inkscape:connector-curvature="0"
     sodipodi:nodetypes="sssssssssccsscssscccssssssssssssssssssssscssssssssssssssssssssssssssssssssssssscsscccsssssscssscsssscsssssssssssssssssssssscsssscssssssssssscssssssssscscsscssssssssssssssssssscsssccssssssssssscsssssssssssssssscssssssssssscssscsssssssssssssscsccccscccssssssssscsccccssccsscsssscscccsscscsccccscccsssssssssssscccccsssssscsssssscccccssssssssssssscsssscssssssssssccssssssssssssscssscsssscsssssssssssssssccccccssssscssssssccscssscsssccsssssssscscsssssccsssssscsssssssssscsssssssscccssssssscssssssssscccssssssscssssscccscccssssscsssssssscsssscsssccscccsccscccssssssssssssssssssssscssssssscssscss" />
</svg>
