<?xml version="1.0" encoding="UTF-8" standalone="no"?>
<!-- Created with Inkscape (http://www.inkscape.org/) -->

<svg
   xmlns:dc="http://purl.org/dc/elements/1.1/"
   xmlns:cc="http://creativecommons.org/ns#"
   xmlns:rdf="http://www.w3.org/1999/02/22-rdf-syntax-ns#"
   xmlns:svg="http://www.w3.org/2000/svg"
   xmlns="http://www.w3.org/2000/svg"
   xmlns:sodipodi="http://sodipodi.sourceforge.net/DTD/sodipodi-0.dtd"
   xmlns:inkscape="http://www.inkscape.org/namespaces/inkscape"
   id="svg6405"
   version="1.1"
   inkscape:version="0.48.4 r9939"
   width="355"
   height="216"
   sodipodi:docname="Box.png">
  <metadata
     id="metadata6411">
    <rdf:RDF>
      <cc:Work
         rdf:about="">
        <dc:format>image/svg+xml</dc:format>
        <dc:type
           rdf:resource="http://purl.org/dc/dcmitype/StillImage" />
        <dc:title></dc:title>
      </cc:Work>
    </rdf:RDF>
  </metadata>
  <defs
     id="defs6409" />
  <sodipodi:namedview
     pagecolor="#ffffff"
     bordercolor="#666666"
     borderopacity="1"
     objecttolerance="10"
     gridtolerance="10"
     guidetolerance="10"
     inkscape:pageopacity="0"
     inkscape:pageshadow="2"
     inkscape:window-width="1280"
     inkscape:window-height="756"
     id="namedview6407"
     showgrid="false"
     inkscape:zoom="1.8873239"
     inkscape:cx="207.04212"
     inkscape:cy="48.054231"
     inkscape:window-x="0"
     inkscape:window-y="22"
     inkscape:window-maximized="0"
     inkscape:current-layer="svg6405" />
  <path
     style="fill:#96610f;fill-opacity:1;stroke:none"
     d="m 25.497117,42.080392 -4.832938,89.673338 c 16.065516,24.30381 36.79023,47.67578 57.753731,71 33.21023,2.21061 85.62535,-7.12038 141.06676,-15.30518 32.5012,-4.79814 90.55861,-9.60073 124.91832,-24.43362 4.75663,-18.74713 0.81268,-37.45327 -2.11941,-56.16418 C 315.92714,69.887182 268.29565,23.918813 247.84158,13.350917 172.28943,19.616411 69.904223,31.116507 25.497117,42.080392 z"
     id="path6417"
     inkscape:connector-curvature="0"
     sodipodi:nodetypes="cccscccc" />
  <path
     style="fill:#f8d828;fill-opacity:1;stroke:none"
     d="m 185.45722,161.48682 c -6.48382,-12.61911 7.76333,-12.40475 21.73034,-12.36382 18.66781,-2.26756 25.98981,-5.91585 27.53759,4.8706 l -17.98373,2.80995 c -1.93214,5.74668 8.70506,4.4231 13.86246,6.18191 4.61357,4.47098 8.39324,8.8415 -7.30589,10.86517 -4.74571,-0.0832 -9.49141,-0.14712 -14.23712,3.18462 -6.18191,-2.7872 -12.36381,-0.35181 -18.54572,0.56199 -8.47941,-0.0393 -12.08452,-2.35332 -5.61992,-9.36652 5.29363,-3.01321 16.37456,-5.27966 14.79911,-9.1792 z"
     id="path6927"
     inkscape:connector-curvature="0"
     sodipodi:nodetypes="ccccccccccc" />
  <path
     style="fill:#000000"
     d="M 70.808035,196.25 C 56.11841,181.22277 45.905401,169.80086 39.735995,161.5 36.465807,157.1 33.387404,153.35 32.895099,153.16667 32.402795,152.98333 32,152.12968 32,151.26966 c 0,-0.86002 -1.542187,-3.44571 -3.427082,-5.74598 -7.192328,-8.77729 -8.052109,-11.59022 -7.954203,-26.02368 0.0485,-7.15 0.622521,-18.12111 1.275601,-24.380241 0.653079,-6.259133 1.361773,-18.278953 1.574874,-26.710713 0.213101,-8.431759 0.824805,-16.111969 1.359341,-17.067132 0.609377,-1.088896 0.625676,-2.647259 0.0437,-4.177976 -0.510503,-1.342723 -0.690596,-2.678905 -0.400208,-2.969293 0.728708,-0.728708 0.519684,-1.135013 6.587313,12.804566 5.32587,12.235486 8.36267,17.273851 21.397576,35.500789 11.945074,16.70301 24.461112,34.96395 28.101373,41 5.544034,9.19277 5.681526,9.50143 4.2269,9.48917 -0.706851,-0.006 -2.803928,-2.64923 -4.660171,-5.87394 C 78.26877,133.89053 73.68275,126.8079 69.933857,121.37607 66.184964,115.94423 59.415232,106.1 54.890008,99.5 50.364785,92.9 45.210516,85.7 43.436078,83.5 39.018624,78.023111 34.620711,70.350997 30.959089,61.73402 29.268411,57.755309 27.51912,54.130645 27.071775,53.679211 c -0.447344,-0.451434 -0.887153,3.148566 -0.977353,8 -0.0902,4.851434 -0.349478,12.558682 -0.576173,17.127219 -0.226694,4.568536 -0.09854,9.068536 0.28479,10 C 26.186368,89.737893 26.74336,83.75 27.040799,75.5 l 0.540799,-15 0.209201,16.25 C 27.919888,86.777199 28.382942,93 29,93 c 0.597314,0 1.047644,-4.328877 1.118315,-10.75 0.06507,-5.9125 0.4445,-12.1 0.843172,-13.75 0.398671,-1.65 0.503173,4.072853 0.232227,12.717451 -0.390638,12.463367 -0.206494,16.062224 0.889427,17.382728 1.263937,1.522951 1.439126,1.461631 2.049778,-0.717451 0.61722,-2.202519 0.676921,-2.155834 0.789363,0.617272 0.0669,1.65 1.124259,5.025 2.34968,7.5 L 39.5,110.5 40,97.5 c 0.332502,-8.645048 0.779558,-12.228185 1.334511,-10.696048 0.458982,1.267174 0.550341,7.567174 0.203021,13.999998 -0.582173,10.7826 -0.473362,11.8913 1.393252,14.19605 l 2.024744,2.5 0.08973,-7.5 c 0.102699,-8.58447 0.695565,-14.099107 1.604842,-14.927703 0.345412,-0.314763 0.354941,5.063813 0.02117,11.952393 -0.550543,11.36262 -0.424883,12.80075 1.354352,15.5 l 1.961201,2.97531 0.0066,-9.69098 c 0.0036,-5.33004 0.367127,-9.91381 0.807785,-10.18615 0.440658,-0.27234 0.814823,4.3136 0.831477,10.19098 0.02248,7.93336 0.449785,11.45896 1.658766,13.68615 l 1.628486,3 0.128898,-4 c 0.07089,-2.2 0.05797,-6.09182 -0.02871,-8.64849 -0.08669,-2.55667 0.323326,-4.94573 0.91114,-5.30902 C 56.66393,114.08967 57,117.21787 57,124.49064 c 0,8.21766 0.394421,11.32998 1.75,13.80902 L 60.5,141.5 61.054254,131 c 0.646793,-12.25308 0.983597,-11.47894 1.107503,2.54557 0.06993,7.91484 0.45344,10.49594 1.808106,12.16888 1.65502,2.04387 1.701853,1.85063 1.251655,-5.16441 -0.278271,-4.33605 -0.02514,-8.04963 0.624983,-9.16888 0.855944,-1.47359 1.131348,0.0688 1.27115,7.11884 0.241979,12.20277 0.08302,11.34574 3.21623,17.34021 3.586842,6.86237 10.700416,14.72233 11.76513,12.99959 0.422465,-0.68357 1.075883,-4.52716 1.452041,-8.54132 C 83.92721,156.28432 84.690149,153 85.246472,153 c 0.659222,0 0.766294,3.13443 0.307439,9 -0.387231,4.95 -0.332774,8.9964 0.121016,8.99201 1.95401,-0.0189 25.350173,-3.02097 30.825073,-3.95529 3.3,-0.56315 17.7,-1.93516 32,-3.04889 14.3,-1.11374 28.13363,-2.29908 30.7414,-2.63409 l 4.7414,-0.60912 -0.57687,-3.62231 c -0.48394,-3.03875 -0.15023,-4.02238 2.07139,-6.10561 2.80559,-2.63084 3.44809,-2.71715 24.52268,-3.29432 4.675,-0.12804 9.4,-0.73372 10.5,-1.34596 1.1,-0.61224 3.68755,-1.4178 5.75012,-1.79013 3.17648,-0.57341 4.13251,-0.29457 6.25,1.82292 1.37493,1.37493 2.49988,3.47282 2.49988,4.66197 0,1.75235 0.4264,2.04897 2.25,1.5652 2.46957,-0.65512 13.32154,-2.24647 42.25,-6.19561 10.45,-1.42657 23.5,-3.44903 29,-4.49436 13.86564,-2.63531 31.72336,-5.05639 32.38862,-4.39113 1.19454,1.19455 -2.57625,2.28239 -11.77579,3.39722 -5.28706,0.64071 -15.23783,2.237 -22.11283,3.54731 -6.875,1.31031 -14.975,2.67339 -18,3.02905 -3.025,0.35566 -9.325,1.25442 -14,1.99724 -4.675,0.74282 -11.425,1.60921 -15,1.92532 -3.575,0.3161 -11.61272,1.45211 -17.86161,2.52446 -6.24888,1.07234 -11.64888,1.89446 -12,1.82693 C 228.24975,155.43956 217,157.38096 217,158.07015 c 0,1.36335 2.10033,2.21482 6.3992,2.59423 5.93551,0.52386 10.47022,2.22311 11.60848,4.34996 2.86048,5.34486 -0.67752,8.57465 -10.34692,9.44556 -11.06181,0.99631 -12.67836,1.48463 -13.9174,4.20403 l -1.12855,2.47688 -1.63713,-2.17041 c -1.83444,-2.43197 -6.57775,-2.87575 -11.29278,-1.05655 -1.5483,0.59738 -5.0358,1.08615 -7.75,1.08615 -5.58302,0 -8.9349,-2.38029 -8.9349,-6.34501 0,-3.2588 2.39761,-5.10884 10.36912,-8.00102 3.77802,-1.37072 7.28244,-2.90553 7.7876,-3.41069 0.50515,-0.50515 -4.16095,-0.0993 -10.36913,0.90202 -6.20817,1.00126 -23.21259,2.71946 -37.78759,3.81821 -14.575,1.09876 -30.775,2.67282 -36,3.49792 -5.225,0.8251 -14,2.00039 -19.5,2.61177 -5.5,0.61137 -10.177112,1.28462 -10.393582,1.49611 -0.21647,0.21149 -0.66647,5.75809 -1,12.32579 -0.56876,11.19974 -1.233524,14.31113 -2.736517,12.80813 -0.346555,-0.34655 -0.203009,-6.26579 0.318991,-13.15387 l 0.949091,-12.52377 -5.405195,-5.58055 c -2.972858,-3.06931 -6.288746,-7.46257 -7.36864,-9.7628 C 67.784254,155.38201 62.855972,147.65 57.912411,140.5 52.968849,133.35 43.428691,119.22187 36.712059,109.10417 L 24.5,90.708332 23.86193,100.10417 C 23.510991,105.27187 23.239484,112.875 23.25858,117 l 0.03472,7.5 0.665961,-7.22928 c 0.366278,-3.9761 1.031625,-7.5761 1.478548,-8 0.446924,-0.42389 0.543915,1.70428 0.215536,4.72928 -0.328379,3.025 -0.703659,9.11989 -0.833956,13.54419 -0.200926,6.82257 0.100362,8.5899 1.983935,11.63758 4.149704,6.71437 4.666028,6.4337 5.02348,-2.73071 0.179742,-4.60827 0.694971,-9.63247 1.144953,-11.16487 0.467406,-1.59174 0.586138,2.41062 0.276957,9.33598 -0.444534,9.95713 -0.264458,12.51727 1.008254,14.33432 1.464771,2.09125 1.588502,1.72936 2.264124,-6.62217 0.393073,-4.85888 1.107519,-9.50932 1.587658,-10.33432 0.822539,-1.41333 0.641402,2.66123 -0.677348,15.23651 -0.356759,3.40197 0.0056,5.65603 1.285943,8 L 40.5,158.5 40.738989,153 c 0.373049,-8.58522 1.338457,-16.00015 2.082967,-15.99848 0.372924,8.4e-4 0.632194,5.84142 0.576154,12.97905 -0.08801,11.2092 0.138405,13.19499 1.661602,14.57347 1.666297,1.50798 1.714563,1.38512 0.875746,-2.22905 C 44.75354,157.23251 44.790549,147.87149 46,146 c 0.842368,-1.30347 1.631529,10.63372 1.289135,19.5 -0.04663,1.20738 3.462671,5.76494 8.854946,11.5 l 8.932181,9.5 -0.539282,-4.5 c -0.296605,-2.475 -0.134827,-6.075 0.359508,-8 0.80418,-3.13158 0.909564,-2.79569 1.001151,3.19098 0.05908,3.86171 0.589267,6.99191 1.253851,7.40265 0.832319,0.5144 0.753851,1.01582 -0.283094,1.80901 -1.179512,0.90225 -0.384915,2.16417 4.46901,7.09736 3.246977,3.3 5.623397,5.17316 5.280933,4.16258 -1.013914,-2.99197 -1.951811,-10.21303 -1.242201,-9.56395 0.359951,0.32925 1.33944,3.22846 2.176644,6.4427 0.837203,3.21424 2.056846,6.4883 2.710318,7.27569 1.603181,1.93171 18.51505,1.15839 36.7369,-1.67985 24.24428,-3.77631 42.41222,-6.14662 47.07593,-6.14185 4.62229,0.005 14.27683,-1.24803 38.92407,-5.0507 7.425,-1.14556 18.225,-2.70335 24,-3.46174 5.775,-0.7584 12.75,-1.84795 15.5,-2.42121 2.75,-0.57327 12.875,-2.17883 22.5,-3.56791 34.98962,-5.04969 65.12873,-11.02267 73.27978,-14.52261 2.62888,-1.1288 5.21638,-1.78254 5.75,-1.45274 1.23027,0.76035 1.21263,1.09275 0.98646,-18.58373 -0.10472,-9.11093 -0.78089,-19.68593 -1.50259,-23.5 -1.32135,-6.98317 -1.16072,-9.09969 0.48814,-6.43178 1.63856,2.65125 2.87795,14.32671 3.35991,31.65153 0.42827,15.3947 0.30596,17.21099 -1.19224,17.70583 -0.9182,0.30326 -4.14446,1.48281 -7.16946,2.62121 -9.77984,3.68046 -39.75547,9.73995 -69.5,14.04924 -7.7,1.11555 -19.4,2.89324 -26,3.95043 -6.6,1.05719 -19.65,3.07276 -29,4.47904 -9.35,1.40629 -21.11649,3.2353 -26.14775,4.06447 -5.03126,0.82917 -15.15626,1.95351 -22.5,2.49855 -7.34374,0.54503 -15.60225,1.43399 -18.35225,1.97545 -2.75,0.54146 -11.075,1.65463 -18.5,2.47371 -7.425,0.81908 -17.02709,2.17288 -21.33797,3.00844 C 103.35115,204.31636 95.219977,205 89.592761,205 l -10.231303,0 -8.553423,-8.75 z M 197.8216,175.31309 c 5.28162,-1.23538 7.78412,-1.42078 8.98163,-0.66541 1.22616,0.77344 2.71032,0.57001 5.6784,-0.77832 2.62529,-1.1926 6.44512,-1.83836 11.01837,-1.86271 7.44276,-0.0396 8.76706,-0.47986 9.79079,-3.25466 0.91847,-2.48949 -2.89865,-4.68791 -9.41431,-5.42204 C 217.1385,162.57076 215,161.49177 215,158.85127 c 0,-1.90896 -0.38715,-2.0225 -4.75,-1.39305 -7.78652,1.1234 -9.25,1.67126 -9.25,3.4628 0,1.68701 -5.05191,4.36261 -13.25768,7.02154 -4.8601,1.57483 -6.56307,4.49304 -4.16704,7.14063 2.14649,2.37183 4.89905,2.41625 14.24632,0.2299 z m 8.56793,-2.74036 c -0.30123,-0.785 -0.39961,-2.4725 -0.21861,-3.75 0.61745,-4.35807 7.82908,-3.19327 7.82908,1.26453 0,3.25232 -6.50142,5.37559 -7.61047,2.48547 z M 212,170 c 0,-0.55 -0.47656,-1 -1.05902,-1 -0.58246,0 -0.7809,0.45 -0.44098,1 0.33992,0.55 0.81648,1 1.05902,1 0.24254,0 0.44098,-0.45 0.44098,-1 z m -14.32762,-11.51948 c 0.64484,-0.19701 0.93194,-1.27762 0.63803,-2.40153 -0.67311,-2.57397 1.72756,-3.54792 11.02367,-4.47233 6.32873,-0.62934 6.87347,-0.529 7.36664,1.35688 0.37265,1.42504 1.32318,2.01536 3.16591,1.96617 2.74877,-0.0734 7.56465,-1.73678 5.38337,-1.85942 -1.79283,-0.10081 -1.54487,-3.01991 0.31722,-3.73446 2.36334,-0.9069 4.04552,1.22094 2.46795,3.12179 -1.51753,1.82851 -0.72585,1.96977 2.28057,0.40693 3.02558,-1.57281 2.97264,-1.45718 1.7301,-3.7789 C 231.18364,147.47461 229.96425,147 226.68732,147 c -2.33327,0 -5.15913,0.64217 -6.27969,1.42703 -1.94513,1.36243 -14.65552,2.54075 -27.04648,2.50737 -6.87699,-0.0185 -9.61534,2.63367 -7.74677,7.50308 0.49731,1.29596 1.59302,1.48674 5.75,1.00114 2.82459,-0.32996 5.66319,-0.7611 6.308,-0.9581 z m -10.04853,-2.01837 c -0.34197,-0.89117 0.0618,-1.78803 0.96023,-2.13279 1.86736,-0.71657 3.91072,1.06102 2.96977,2.58351 -0.98128,1.58774 -3.24751,1.32783 -3.93,-0.45072 z m 22.62615,-1.104 c 6.30333,-1.04187 4.16463,-2.08384 -2.42692,-1.18239 -3.39731,0.46461 -6.39731,1.06514 -6.66667,1.3345 -0.68099,0.68099 4.58641,0.59288 9.09359,-0.15211 z M 70.890373,191.45 c -0.688839,-5.96929 -0.726687,-8.33088 -0.167475,-10.45 0.500489,-1.89659 0.815904,-1.05181 1.306802,3.5 0.355894,3.3 0.269804,6.4275 -0.19131,6.95 -0.52951,0.6 -0.878779,0.6 -0.948017,0 z m -10.966884,-14.7 c -0.04208,-1.2375 -0.212545,-2.93721 -0.378807,-3.77714 -0.166263,-0.83992 0.04142,-3.31492 0.461512,-5.5 0.715524,-3.72172 0.771077,-3.58294 0.878807,2.19535 0.06325,3.39252 0.388144,6.88002 0.721988,7.75 0.333844,0.86999 0.108844,1.58179 -0.5,1.58179 -0.608844,0 -1.141419,-1.0125 -1.1835,-2.25 z m -4.773371,-7.25 c 0.04758,-3.3 0.466933,-7.35 0.931892,-9 0.577919,-2.05086 0.69378,-0.78535 0.366209,4 -0.332739,4.86084 -0.173527,6.54161 0.520992,5.5 0.880767,-1.32093 1.001991,-1.31391 1.015476,0.0589 0.0084,0.85738 -0.645375,2.43238 -1.452884,3.5 -1.341341,1.77341 -1.460722,1.42272 -1.381685,-4.05887 z m -4.502135,-3.75 c -0.346829,-2.8875 -0.605986,-7.5 -0.575905,-10.25 0.0836,-7.64217 1.569237,-2.58102 2.128149,7.25 0.519728,9.14179 -0.563147,11.23465 -1.552244,3 z m 27.463859,-7.2 c -0.07801,-4.15037 0.205304,-5.63285 0.936719,-4.90144 0.705873,0.70587 0.742425,2.65044 0.111842,5.95 L 78.223684,164.5 78.111842,158.55 z M 75.86258,156.79313 C 75.651107,156.08191 75.744866,152.8 76.070934,149.5 c 0.686564,-6.94844 1.25488,-5.51186 0.982441,2.4834 -0.19342,5.67633 -0.529498,7.03378 -1.190795,4.80973 z m -4.2231,-2.48698 c -0.351714,-0.35172 -0.580339,-4.72698 -0.508055,-9.72282 L 71.26285,135.5 l 0.802124,6.91717 c 0.441168,3.80444 1.058678,7.93936 1.372245,9.18871 0.56387,2.24664 -0.56131,3.9367 -1.797739,2.70027 z M 92.25,149.29429 c -3.22411,-1.18895 -0.40747,-1.83039 9,-2.04959 32.29239,-0.75242 72.59459,-5.76001 146.75,-18.2338 12.925,-2.17414 33.625,-5.57863 46,-7.56554 25.39747,-4.07779 45.03661,-8.09458 46.45,-9.50043 1.23198,-1.2254 2.55,-1.21021 2.55,0.0294 0,0.53588 -1.25477,1.62318 -2.78837,2.41624 -2.93393,1.51719 -5.4375,2.08048 -27.21163,6.12243 -12.33872,2.29044 -20.34715,3.59416 -49.5,8.05828 -5.5,0.8422 -13.6,2.16745 -18,2.94499 -20.25061,3.57858 -25.91022,4.51563 -39,6.45714 -7.7,1.14209 -16.475,2.50705 -19.5,3.03325 -12.9108,2.24582 -35.53299,5.00492 -49,5.97625 -7.975,0.57521 -16.075,1.27706 -18,1.55967 -4.95728,0.72776 -26.250784,1.30459 -27.75,0.75172 z m 15.00008,-8.87771 c 1.0065,-1.00649 33.86433,-4.4647 35.08717,-3.69283 0.63951,0.40366 -5.13725,1.49284 -12.83725,2.4204 -14.6746,1.76774 -23.23476,2.25728 -22.24992,1.27243 z M 27.015313,129.25 c 0.0084,-5.3625 0.37423,-10.31533 0.812908,-11.0063 0.438677,-0.69096 0.769286,3.69361 0.734687,9.74349 -0.0346,6.04988 -0.400408,11.00271 -0.812908,11.0063 -0.4125,0.004 -0.743109,-4.38099 -0.734687,-9.74349 z M 100,135.22991 c 0,-0.93107 34.75225,-6.25177 40.75,-6.23897 2.3375,0.005 4.25,0.45906 4.25,1.00906 0,0.55 -2.43766,1 -5.41702,1 -2.97936,0 -12.54186,1.12039 -21.25,2.48976 C 100.74616,136.25531 100,136.32613 100,135.22991 z M 93,129 c 0,-0.55 1.357387,-1 3.016416,-1 1.659029,0 8.670374,-1.125 15.580774,-2.5 11.70941,-2.32989 24.59004,-3.35389 23.07022,-1.83408 -0.36626,0.36626 -3.26097,0.80742 -6.4327,0.98036 -3.17173,0.17294 -11.33394,1.44827 -18.13826,2.83408 C 96.662282,130.21643 93,130.54196 93,129 z m 0.75,-10.71352 c -5.662639,-1.40152 2.078456,-2.16949 27.15803,-2.69425 2.42442,-0.0507 4.55923,0.35777 4.74403,0.90777 0.20875,0.62127 -4.30123,1.10033 -11.90803,1.26491 -6.73422,0.1457 -13.59403,0.42011 -15.24403,0.60981 -1.65,0.18969 -3.7875,0.14999 -4.75,-0.0882 z M 86,109.3097 c 0,-1.36004 20.69001,-5.34371 27,-5.1986 l 5.5,0.12649 -5.5,0.89634 c -7.34807,1.19751 -21.947672,3.87976 -24.75,4.54709 -1.2375,0.29469 -2.25,0.12759 -2.25,-0.37132 z m 255.27461,-1.95179 C 340.24772,104.41216 332.43587,93.714666 326.04369,86.500777 322.6892,82.71508 303.41284,63.427707 288.37846,48.814024 284.5953,45.136737 276.775,37.33206 271,31.470297 263.82014,24.18257 258.68183,19.88902 254.75,17.891878 251.5875,16.285511 249,14.527687 249,13.985605 c 0,-1.416891 0.35532,-1.309057 6.73538,2.044054 3.7924,1.993138 9.52799,6.815149 16.76462,14.094324 6.05,6.085566 14.15,14.044247 18,17.685957 14.99131,14.180258 38.57699,38.393316 43.91326,45.081343 7.77626,9.746117 9.95449,13.629167 8.8013,15.689807 -0.79382,1.41847 -1.08252,1.23644 -1.93995,-1.22318 z M 79,99.12383 c 0,-0.630638 1.645683,-1.127145 3.75,-1.131384 2.0625,-0.0042 6.45,-0.428533 9.75,-0.943063 10.29066,-1.604501 21.5,-2.311873 21.5,-1.356771 0,0.78081 -8.67174,1.957571 -29.75,4.037097 C 80.723763,100.0776 79,99.878667 79,99.12383 z M 35.1199,85.192326 C 35.214071,79.586547 35.6847,75 36.165744,75 c 0.815521,0 0.02691,18.965976 -0.829207,19.942326 -0.213321,0.24328 -0.310808,-4.14422 -0.216637,-9.75 z M 68.5,91.91722 c 4.191119,-1.272527 29.195878,-4.905239 33.80902,-4.911801 5.15802,-0.0073 3.90873,1.533452 -1.49487,1.843663 C 98.441369,88.985299 90.425,89.973917 83,91.046011 68.460107,93.145423 63.466744,93.445441 68.5,91.91722 z m 1.129063,-5.708391 C 69.305044,85.684555 70.943452,84.998233 73.269969,84.683668 75.596486,84.369104 81.2125,83.473933 85.75,82.6944 90.2875,81.914866 94,81.582199 94,81.95514 c 0,0.37294 -4.3875,1.480174 -9.75,2.46052 -5.3625,0.980345 -10.713407,1.999334 -11.890906,2.26442 -1.177498,0.265086 -2.406012,0.05302 -2.730031,-0.471251 z M 64.100837,77.003377 C 65.853319,75.978924 87.023325,73 92.551216,73 94.448047,73 96,73.498145 96,74.106989 c 0,0.608844 -0.719377,0.830938 -1.598615,0.493542 -0.879238,-0.337395 -7.673994,0.28946 -15.099458,1.393012 -7.425463,1.103551 -14.243586,1.992773 -15.151385,1.976048 -1.499095,-0.02762 -1.503656,-0.116274 -0.04971,-0.966214 z M 50,73 c 0,-0.55 1.0125,-1.005912 2.25,-1.013137 C 53.4875,71.979637 58.775,71.085549 64,70 c 10.494823,-2.180411 16,-2.524484 16,-1 0,0.55 -2.1375,1.00705 -4.75,1.015668 -2.6125,0.0086 -8.980805,0.908617 -14.151789,2 C 50.231481,74.309189 50,74.32972 50,73 z m -4.383461,-6.811436 c -0.64055,-1.036431 17.480003,-4.239725 23.088271,-4.081472 l 3.79519,0.107092 -4,0.794827 c -2.2,0.437154 -7.375,1.323037 -11.5,1.968627 -4.125,0.64559 -8.249629,1.383032 -9.165843,1.638759 -0.916214,0.255727 -1.914142,0.0632 -2.217618,-0.427833 z M 38.629032,61.295698 C 37.886664,60.553331 58.539574,56.160855 63.25,56.059293 c 4.47145,-0.09641 3.132908,1.597836 -1.402786,1.775562 -2.284032,0.0895 -7.944563,1.063268 -12.578957,2.163934 -9.471129,2.249388 -9.663319,2.272816 -10.639225,1.296909 z M 36,55.306134 c 0,-0.509861 5.2875,-1.951373 11.75,-3.203361 17.216585,-3.335389 17.004216,-3.309477 17.713817,-2.161319 0.400557,0.648115 -0.434926,1.062196 -2.1548,1.067959 C 61.003325,51.017139 49.619757,53.159461 38.25,55.725377 37.0125,56.004654 36,55.815995 36,55.306134 z M 32.5,49 c 0.339919,-0.55 1.523983,-1 2.631254,-1 1.10727,0 6.818213,-1.086272 12.690983,-2.413938 C 62.669122,42.229603 67,41.615515 67,42.866789 67,43.440211 65.3125,44.171626 63.25,44.492157 61.1875,44.812688 53.875,46.184995 47,47.541729 33.067018,50.291305 31.611458,50.437691 32.5,49 z m -5.491566,-4.75 c 0.0046,-0.4125 4.514409,-1.82773 10.021711,-3.144956 5.507302,-1.317226 9.818737,-2.589496 9.580966,-2.827266 -0.468387,-0.468387 -16.579729,2.389213 -19.251932,3.414634 -1.098965,0.421712 -1.484562,0.183736 -1.180469,-0.728542 0.248385,-0.745156 1.772288,-1.715974 3.38645,-2.157374 C 36.402131,36.936897 92.131119,28.67638 112.5,26.513349 c 3.3,-0.350437 13.425,-1.705725 22.5,-3.011751 21.8104,-3.138839 40.38002,-5.148101 69.5,-7.52001 13.2,-1.075179 27.96153,-2.461848 32.80341,-3.081487 8.17385,-1.046048 10.95742,-0.827598 9.3927,0.737126 -0.35048,0.350474 -4.45482,0.985183 -9.12077,1.410464 -4.66595,0.42528 -9.7417,1.030279 -11.27944,1.344442 -1.53775,0.314162 -12.0209,1.246835 -23.2959,2.072605 -26.81775,1.964106 -36.40237,2.972824 -67,7.051304 -57.106187,7.611913 -63.149389,8.535735 -65.374692,9.99381 -1.256728,0.82344 -2.504868,1.277255 -2.773645,1.008477 -0.788585,-0.788584 -15.445295,2.079426 -27.618341,5.40433 C 28.209035,45.206931 26.995271,45.420531 27.008434,44.25 z"
     id="path6415"
     inkscape:connector-curvature="0" />
</svg>
