<?xml version="1.0" encoding="UTF-8" standalone="no"?>
<!-- Created with Inkscape (http://www.inkscape.org/) -->

<svg
   xmlns:dc="http://purl.org/dc/elements/1.1/"
   xmlns:cc="http://creativecommons.org/ns#"
   xmlns:rdf="http://www.w3.org/1999/02/22-rdf-syntax-ns#"
   xmlns:svg="http://www.w3.org/2000/svg"
   xmlns="http://www.w3.org/2000/svg"
   xmlns:sodipodi="http://sodipodi.sourceforge.net/DTD/sodipodi-0.dtd"
   xmlns:inkscape="http://www.inkscape.org/namespaces/inkscape"
   id="svg4507"
   version="1.1"
   inkscape:version="0.48.4 r9939"
   width="292"
   height="193"
   sodipodi:docname="Bread.png">
  <metadata
     id="metadata4513">
    <rdf:RDF>
      <cc:Work
         rdf:about="">
        <dc:format>image/svg+xml</dc:format>
        <dc:type
           rdf:resource="http://purl.org/dc/dcmitype/StillImage" />
        <dc:title></dc:title>
      </cc:Work>
    </rdf:RDF>
  </metadata>
  <defs
     id="defs4511" />
  <sodipodi:namedview
     pagecolor="#ffffff"
     bordercolor="#666666"
     borderopacity="1"
     objecttolerance="10"
     gridtolerance="10"
     guidetolerance="10"
     inkscape:pageopacity="0"
     inkscape:pageshadow="2"
     inkscape:window-width="1270"
     inkscape:window-height="743"
     id="namedview4509"
     showgrid="false"
     inkscape:zoom="1.622471"
     inkscape:cx="283.09114"
     inkscape:cy="169.40378"
     inkscape:window-x="0"
     inkscape:window-y="22"
     inkscape:window-maximized="0"
     inkscape:current-layer="svg4507" />
  <path
     style="fill:#cc8823;fill-opacity:1;stroke:none"
     d="m 18.017106,39.349866 c 4.605699,8.79299 9.481904,17.593496 18.708225,24.653753 45.681955,31.848204 123.707989,76.325911 142.760079,90.088801 18.20221,13.14895 40.0958,22.43449 62.73771,31.51145 9.88813,-0.36004 20.1668,-0.0171 27.26227,-5.40395 6.20023,-6.93033 12.17311,-14.00275 13.81486,-23.78212 -0.93881,-6.75638 -4.65458,-12.69587 -8.41091,-18.88874 -2.95204,-1.23644 -6.92334,-3.14973 -7.25298,-13.37904 L 252.08462,103.63015 C 230.26711,102.30294 227.30991,90.198402 216.33668,82.674456 209.07523,73.500077 197.91891,68.220556 187.98487,61.718766 171.62647,58.816683 163.13156,53.293434 157.16767,46.926514 146.06876,41.175231 141.84596,33.590319 114.63995,32.134263 L 86.288135,21.040074 C 81.010251,13.993503 63.428995,14.629812 47.458474,14.260292 33.779347,20.755479 16.647613,26.72376 18.017106,39.349866 z"
     id="path4519"
     inkscape:connector-curvature="0"
     sodipodi:nodetypes="ccsccccccccccccc" />
  <path
     style="fill:#000000"
     d="m 240.74328,185.6962 c -10.06952,-2.12956 -46.28811,-20.74082 -64.72859,-33.26139 -4.62128,-3.13773 -12.98538,-8.56711 -18.58687,-12.06529 -5.60149,-3.49819 -14.31305,-9.01177 -19.35902,-12.25241 -5.04597,-3.24064 -9.96822,-6.19666 -10.93833,-6.56893 C 123.67359,120.22165 106.60194,110.17747 76.816228,91.94559 70.177203,88.534174 64.464797,84.008602 55.544088,78.512096 36.303328,66.721091 26.155508,56.870475 19.287738,43.317585 c -3.16373,-6.243337 -2.93149,-7.983583 1.91199,-14.326902 3.86739,-5.064963 10.7432,-9.420011 20.92039,-13.250695 5.69489,-2.143551 8.30846,-2.506567 17.89599,-2.485691 13.67329,0.02977 17.6861,0.890994 25.31448,5.432952 3.25198,1.936238 8.1627,4.60337 10.9127,5.926958 8.240322,2.500974 7.458632,3.248477 12.564292,4.441126 5.8058,0.207819 10.66686,3.141465 15.74132,3.174518 10.57705,0 30.57879,9.673536 38.38499,18.564311 1.60015,1.822468 4.57437,3.849698 6.60937,4.504956 2.03501,0.655258 4.15002,1.543003 4.70002,1.972767 0.55,0.429763 2.125,0.769368 3.5,0.754676 1.375,-0.01469 4.34526,0.674659 6.60058,1.531889 7.40397,1.90841 9.45711,4.930673 18.58127,9.75961 3.11543,2.623397 8.09698,5.532354 10.2711,7.796025 8.86097,6.408943 11.43461,14.6427 21.93558,20.134584 3.23869,1.628 8.56256,3.512311 11.83083,4.187361 4.13786,0.85466 6.26953,1.84477 7.01992,3.26059 0.59269,1.11828 4.33606,5.75768 8.3186,10.30979 5.12902,5.86255 7.09449,8.83678 6.73871,10.19728 -0.64221,2.45583 2.59509,11.02616 4.16495,11.02616 1.87659,0 5.25905,4.11411 7.44461,9.05494 4.9764,11.24996 3.36524,19.68753 -5.84974,30.63493 -6.31157,7.49815 -8.26592,8.64539 -17.49007,10.26699 -7.24934,1.27444 -8.379,1.24099 -16.56634,-0.49051 z m 5,-2.34391 c 0,-0.48265 -0.675,-1.43775 -1.5,-2.12244 -0.825,-0.68469 -1.48382,-1.75229 -1.46404,-2.37244 0.0198,-0.62016 1.15098,0.22244 2.51378,1.87244 2.07066,2.50705 2.63735,2.75352 3.44872,1.5 0.82989,-1.28213 0.97314,-1.24581 0.98623,0.25 0.0105,1.19592 0.80686,1.75 2.51531,1.75 3.12047,0 3.11186,-0.33125 -0.11869,-4.56672 -3.31664,-4.34835 -2.29536,-4.46405 1.61777,-0.18328 2.49075,2.72477 3.13244,3.00758 3.97059,1.75 0.85727,-1.28629 1.00189,-1.25067 1.01502,0.25 0.0327,3.73648 8.54834,0.6434 12.07758,-4.38686 1.48383,-2.11491 1.72671,-2.85553 0.65441,-1.99546 -0.93785,0.75222 -2.83277,1.15212 -4.21093,0.88867 -1.51969,-0.29051 -2.50575,-0.0185 -2.50575,0.69119 0,0.64361 -0.60088,1.99195 -1.33529,2.99632 -1.27634,1.74549 -1.43038,1.72403 -3.48944,-0.4861 -2.60306,-2.79406 -1.98508,-4.0006 0.77137,-1.50605 1.89366,1.71374 1.98081,1.68553 2.61642,-0.84694 0.53494,-2.13137 1.18524,-2.57952 3.4884,-2.40403 1.58986,0.12115 3.70582,-0.5761 4.8267,-1.59048 1.0977,-0.9934 2.37624,-1.57107 2.84121,-1.2837 0.46497,0.28737 1.94469,-1.08183 3.28827,-3.04266 3.57023,-5.21041 3.99581,-15.08055 0.95502,-22.14906 -1.23381,-2.86806 -2.97871,-5.60824 -3.87755,-6.08929 -0.89885,-0.48105 -4.77321,-0.69008 -8.60969,-0.46451 -15.12925,0.88955 -43.02996,3.6793 -45.25402,4.52488 -4.93862,1.87767 -5.73235,0.19888 -1.68112,-3.55567 5.16692,-4.78854 23.43989,-11.66544 34.72294,-13.06773 3.16976,-0.39395 6.00984,-1.11533 6.31128,-1.60306 0.30144,-0.48774 1.5845,-0.62667 2.85125,-0.30874 5.71797,1.43512 2.6219,-5.46072 -6.28953,-14.0086 l -4.10536,-3.93788 -18.51906,1.728 c -21.04521,1.96371 -48.29106,8.05816 -63.84483,14.28104 -4.85817,1.9437 -9.06551,3.30151 -9.34966,3.01736 -2.06894,-2.06893 7.38954,-16.47336 16.03496,-24.41984 6.41797,-5.899108 18.61621,-13.701161 25.37491,-16.229912 3.10293,-1.160957 6.1212,-2.410575 6.70726,-2.776929 0.58606,-0.366354 1.93824,-0.801792 3.00484,-0.967639 1.0666,-0.165848 2.09391,-0.456175 2.28291,-0.645171 0.57361,-0.573617 -18.44456,-14.385569 -22.37833,-16.252267 -3.49719,-1.659523 -4.18203,-1.657792 -14.25875,0.03604 -19.95742,3.354715 -48.85367,11.620545 -67.3797,19.274098 -3.18703,1.316639 -6.22118,2.130246 -6.74256,1.808016 -1.31808,-0.814617 2.22946,-7.404812 5.69558,-10.580581 11.81297,-10.823415 32.31001,-23.497538 45.69204,-28.25318 1.49265,-0.53045 0.81586,-1.234322 -3.49999,-3.640071 -10.65337,-5.938404 -16.49708,-8.253875 -24.35047,-9.648453 -7.15295,-1.270197 -8.7941,-1.245576 -15.5,0.232544 -4.125,0.909236 -11.1,2.911494 -15.500002,4.449462 -4.4,1.537968 -10.025,3.326859 -12.5,3.975314 -2.475,0.648454 -10.2585,3.399596 -17.29667,6.113648 -7.03816,2.714052 -13.22688,4.66875 -13.7527,4.343773 -1.57844,-0.975528 0.63226,-4.003127 9.09149,-12.450997 9.56608,-9.553231 19.11307,-17.615588 21.9109,-18.503585 3.14944,-0.999591 2.49511,-1.963062 -3.11992,-4.593972 -4.72603,-2.214372 -6.41119,-2.420937 -19.75,-2.420937 -14.3213,0 -14.72209,0.05996 -22.32498,3.339936 -8.5284,3.679253 -16.76563,10.349766 -18.77699,15.205621 -1.1111,2.682423 -1.03334,3.591108 0.5799,6.776145 l 1.86307,3.678298 0.63775,-4.5 c 0.45751,-3.228179 0.68021,-3.670661 0.78795,-1.565604 0.0826,1.613918 0.91357,5.663918 1.84659,9 1.48471,5.308717 2.62054,6.970284 9.10247,13.315604 4.07335,3.9875 7.76798,7.25 8.21031,7.25 0.44232,0 -0.49162,-3.0375 -2.07542,-6.75 -1.58381,-3.7125 -2.86136,-7.65 -2.83902,-8.75 0.0406,-2 0.0406,-2 0.89816,0 0.47165,1.1 2.08005,5.244046 3.57422,9.208991 1.49417,3.964946 3.66533,8.059091 4.82478,9.098101 2.16456,1.939695 18.93922,12.192908 19.94809,12.192908 0.30923,0 -0.30588,-1.9125 -1.36691,-4.25 -1.06103,-2.3375 -1.92287,-4.925 -1.91519,-5.75 0.008,-0.825 1.50856,1.684381 3.3353,5.576402 2.8467,6.065122 4.07186,7.538191 8.57299,10.307764 2.88839,1.77725 5.4157,3.067289 5.61624,2.866753 0.20054,-0.200536 -0.78847,-2.061526 -2.1978,-4.135534 -1.40932,-2.074009 -2.31421,-4.019119 -2.01087,-4.322468 0.30335,-0.303349 2.24808,2.171483 4.32161,5.499626 3.24623,5.210395 7.49003,9.207457 9.77583,9.207457 0.36442,0 -0.89059,-2.925 -2.78892,-6.5 -1.89834,-3.575 -3.05991,-6.5 -2.58129,-6.5 0.47863,0 2.27531,2.8125 3.99262,6.25 1.71731,3.4375 4.45864,7.493968 6.09185,9.014369 2.69214,2.5062 8.027022,5.80658 9.304082,5.75589 2.09304,-0.0831 2.51048,0.14238 2.51048,1.35587 0,0.75687 3.15,3.03141 7,5.05453 3.85,2.02312 7,3.41093 7,3.08403 0,-0.3269 -0.9,-2.35851 -2,-4.51469 -1.1,-2.15618 -1.97817,-4.50075 -1.95148,-5.21016 0.0267,-0.70941 1.49244,1.51627 3.25723,4.94597 3.2236,6.26474 3.8387,6.8863 11.19425,11.31198 l 4,2.40672 -1.67239,-2.57362 c -1.84334,-2.83671 -4.94449,-9.88089 -4.34997,-9.88089 0.20657,0 1.84316,2.56506 3.63687,5.70014 2.98487,5.21701 9.65326,12.86542 10.48861,12.03007 0.19218,-0.19218 -0.55902,-2.74024 -1.66934,-5.66236 -1.11031,-2.92211 -1.83571,-5.82029 -1.61199,-6.44039 0.22371,-0.6201 0.9184,0.67254 1.54374,2.87254 1.76034,6.193 5.3128,11.70004 8.8982,13.79402 l 3.2626,1.90547 -1.04115,-2.73843 c -1.45477,-3.82635 -0.53885,-4.21194 1.02674,-0.43225 1.11639,2.69519 4.61697,6.05235 8.74566,8.38737 1.00271,0.56709 1.01376,0.14098 0.0545,-2.10247 -0.66168,-1.54754 -1.49524,-3.26371 -1.85236,-3.81371 -0.35711,-0.55 -0.939,-1.81087 -1.29308,-2.80194 -1.24624,-3.48823 1.14602,-0.65475 3.83596,4.54344 3.12788,6.04451 4.81659,8.13279 8.97119,11.09391 l 2.97385,2.11956 -3.27941,-5.81079 c -4.93928,-8.75192 -3.33508,-8.79623 1.82084,-0.0503 2.46656,4.184 5.64836,8.43591 7.07066,9.44868 2.83328,2.01747 23.66712,13.95743 24.3541,13.95743 0.23457,0 -0.936,-2.72659 -2.60127,-6.05909 -1.66527,-3.3325 -2.80806,-6.27879 -2.53953,-6.54732 0.26853,-0.26853 1.96853,2.45763 3.77779,6.05814 3.51226,6.98956 4.83812,8.47417 9.24872,10.35606 l 2.79958,1.19452 -3.66456,-6.55285 c -2.01551,-3.60406 -3.4438,-6.77361 -3.17398,-7.04343 0.26983,-0.26982 2.45906,2.98269 4.86498,7.22779 3.41037,6.01741 5.311,8.23694 8.62439,10.07146 2.3375,1.2942 4.23848,2.00245 4.2244,1.5739 -0.0141,-0.42855 -1.58264,-3.22312 -3.48569,-6.21015 -1.90305,-2.98704 -3.24154,-5.64954 -2.9744,-5.91667 0.26713,-0.26713 0.62141,-0.29819 0.7873,-0.069 0.16588,0.22917 2.24374,3.45417 4.61746,7.16667 2.37371,3.7125 4.93799,6.75 5.69839,6.75 0.7604,0 1.38254,0.39752 1.38254,0.88337 0,0.48585 0.89324,1.11696 1.98499,1.40245 1.86287,0.48715 1.83211,0.25822 -0.5,-3.72122 -3.47812,-5.93496 -3.07835,-7.06987 0.48937,-1.38927 1.615,2.57143 3.74395,5.14524 4.731,5.71959 2.20615,1.28371 5.29464,1.41643 5.29464,0.22752 z m -50.32983,-24.87244 c -3.53319,-5.62627 -4.88381,-8.36969 -4.37234,-8.88117 0.25293,-0.25293 1.86824,2.03562 3.58957,5.08565 1.72133,3.05004 3.57585,5.54552 4.12115,5.54552 0.5453,0 0.99145,0.45 0.99145,1 0,2.14819 -2.08578,0.82345 -4.32983,-2.75 z m -8.82769,-3 c -3.0984,-3.69485 -7.57693,-12.25 -6.41275,-12.25 0.20912,0 1.60888,2.1375 3.11056,4.75 1.50168,2.6125 3.64788,5.7625 4.76934,7 1.12145,1.2375 1.5803,2.25 1.01967,2.25 -0.56063,0 -1.6797,-0.7875 -2.48682,-1.75 z m -74.66551,-48.89874 c -1.78446,-3.10681 -3.10599,-6.06417 -2.93674,-6.57192 0.16925,-0.507754 1.95148,2.03418 3.9605,5.64874 2.00903,3.61455 3.33056,6.57192 2.93674,6.57192 -0.39381,0 -2.17604,-2.54193 -3.9605,-5.64874 z m -10.39795,-5.55609 c -2.556782,-4.456944 -3.988432,-7.795169 -3.343092,-7.795169 0.69013,0 6.700252,11.197169 6.251172,11.646249 -0.24426,0.24425 -1.55289,-1.48873 -2.90808,-3.85108 z M 53.145888,69.605547 c -1.36803,-3.093367 -2.25586,-5.855776 -1.97295,-6.138688 0.28292,-0.282912 0.93781,0.560525 1.45532,1.874304 0.51752,1.313778 1.66114,4.076188 2.5414,6.138688 0.88026,2.0625 1.34466,3.75 1.03202,3.75 -0.31265,0 -1.68775,-2.530937 -3.05579,-5.624304 z M 35.296028,61.3152 c -1.32143,-2.138125 -4.55202,-12.469776 -4.53145,-14.491899 0.0117,-1.151398 1.31851,1.73155 2.904,6.40655 2.66063,7.84522 3.23132,10.680454 1.62745,8.085349 z M 224.8825,140.26312 c 3.10663,-2.58808 1.4198,-2.61815 -1.86635,-0.0333 -1.39842,1.1 -2.08175,2 -1.51851,2 0.56324,0 2.08642,-0.88503 3.38486,-1.96673 z m 7.86078,-2.53327 c 1.86578,-1.925 3.05671,-3.5 2.64651,-3.5 -1.80091,0 -6.68053,3.19504 -7.65205,5.01035 -1.77708,3.32051 1.19144,2.4248 5.00554,-1.51035 z m 6.5,-1.5 c 5.07045,-5.19261 2.70849,-5.21379 -2.78872,-0.025 -2.62376,2.47654 -3.62809,3.98442 -2.66423,4 0.85088,0.0138 3.30471,-1.775 5.45295,-3.975 z m 4.85793,1.098 c 2.65986,-2.28774 5.94731,-7.098 4.85095,-7.098 -1.25334,0 -10.20888,7.94209 -10.20888,9.0536 0,1.16088 3.01322,0.0611 5.35793,-1.9556 z m 8.64207,-3.34099 c 2.60706,-2.98534 3.72945,-4.85934 2.66821,-4.45498 -1.00748,0.38389 -2.19077,0.69797 -2.62954,0.69797 -0.43876,0 -2.45708,2.025 -4.48516,4.5 -5.43473,6.63237 -1.40652,5.95927 4.44649,-0.74299 z m 5.47495,-0.42083 c 3.36615,-4.027 3.53227,-4.47132 1.55964,-4.17161 -1.22859,0.18666 -3.73624,2.40443 -5.65401,5.00039 -2.74056,3.70975 -3.05992,4.56395 -1.55964,4.17161 1.03762,-0.27134 3.58193,-2.52152 5.65401,-5.00039 z m 5.27505,0.71305 c 5.89841,-7.10481 3.69486,-8.42525 -2.62264,-1.57157 -4.63821,5.03186 -4.85328,5.52982 -2.37736,5.50431 0.9625,-0.01 3.2125,-1.77964 5,-3.93274 z m 5,2.96442 c 0.6875,-0.008 1.25,-0.42152 1.25,-0.92003 0,-0.49851 -1.0125,-0.64547 -2.25,-0.32659 -2.00427,0.51648 -2.10011,0.39704 -0.87756,-1.09362 2.19173,-2.67236 0.71366,-1.93281 -1.94813,0.97474 l -2.42431,2.64816 2.5,-0.6345 c 1.375,-0.34898 3.0625,-0.64065 3.75,-0.64816 z m -97.53362,-21.74842 c 2.29178,-5.69764 2.40479,-6.37072 0.71614,-4.26523 -3.40096,4.24048 -7.56557,10.41666 -8.19656,12.15563 -0.54032,1.48904 -0.33112,1.51573 2.07923,0.26522 1.8851,-0.97799 3.48712,-3.397 5.40119,-8.15562 z m 2.49261,4.93578 c 0.66495,-0.42259 2.77984,-3.90829 4.69976,-7.74599 4.09277,-8.18095 10.25963,-15.796251 12.19148,-15.054932 0.73977,0.283877 1.99111,-0.406254 2.78075,-1.533626 0.78964,-1.127372 2.48946,-2.776317 3.77737,-3.664321 1.68451,-1.16146 1.38153,-0.509969 -1.07962,2.321517 -2.91317,3.35151 -8.10423,13.215542 -10.45654,19.869472 -0.3681,1.04122 -0.92796,1.63444 -1.24413,1.31826 -0.31618,-0.31617 1.03245,-4.29255 2.99694,-8.83639 1.96449,-4.54384 3.42747,-8.405861 3.25106,-8.582268 -0.1764,-0.176407 -1.44749,0.565569 -2.82464,1.648838 -2.57968,2.02917 -10.38446,16.80872 -9.39753,17.79565 0.48267,0.48267 11.42589,-2.18217 12.11026,-2.94904 0.14145,-0.1585 2.76574,-5.23818 5.83176,-11.28818 3.06602,-6.049999 6.48247,-12.124999 7.5921,-13.499999 3.28428,-4.069701 2.34933,-1.512051 -1.78626,4.886509 -3.91281,6.05388 -8.84981,17.74876 -7.89551,18.70306 0.28844,0.28845 1.97871,0.14761 3.75615,-0.31298 2.81882,-0.73042 3.51548,-1.62111 5.45274,-6.97129 2.28893,-6.32142 11.36065,-21.81285 12.25172,-20.921784 0.27573,0.275734 -0.39555,1.764743 -1.49175,3.30891 -5.18392,7.302396 -12.18147,21.689414 -11.08101,22.782664 0.85029,0.84473 10.38236,-2.12911 10.63185,-3.31694 0.34638,-1.64919 7.35641,-11.193171 9.57179,-13.03178 2.54581,-2.112834 1.957,-0.554722 -0.972,2.572109 -3.41304,3.643551 -7.66707,10.343521 -6.99449,11.016101 1.32846,1.32845 5.54791,-1.07064 10.11876,-5.75333 l 5,-5.122349 -4.5,-3.916745 c -2.475,-2.15421 -4.82704,-3.917962 -5.22675,-3.91945 -1.14829,-0.0043 -7.99565,9.259041 -11.08278,14.993124 -1.54524,2.87014 -3.05481,4.97316 -3.3546,4.67337 -0.73269,-0.73269 9.00532,-16.763013 11.62121,-19.130353 l 2.07396,-1.876908 -2.19857,-2.340261 c -2.23607,-2.380197 -3.07313,-2.383542 -8.83247,-0.0353 -1.375,0.560626 -3.30093,1.174764 -4.27985,1.364751 -5.8566,1.136638 -23.14528,12.328421 -26.65193,17.253061 -1.1343,1.59299 -3.39486,5.86622 -5.02347,9.49607 -2.80789,6.25826 -2.62118,7.88876 0.66424,5.80075 z m 55.29101,-14.26675 c 0,-1.13616 0.46583,-2.93616 1.03518,-4 1.50031,-2.803352 0.84604,-2.421036 -3.53518,2.06574 l -3.9059,4 3.20295,0 c 2.57026,0 3.20295,-0.40805 3.20295,-2.06574 z m 18.91667,0.0729 c 5.77251,-0.009 4.95922,-0.62106 -3.77412,-2.83891 -5.90532,-1.49968 -7.3776,-1.5899 -8.27616,-0.5072 -0.60115,0.72434 -1.43187,1.10755 -1.84605,0.85157 -0.41418,-0.25597 -1.60069,0.49071 -2.63669,1.6593 l -1.88365,2.1247 7,-0.64118 c 3.85,-0.35264 8.9875,-0.64437 11.41667,-0.64828 z m -12.91667,-5.61481 c 0,-0.827626 -1.94173,-1.29565 -2.38691,-0.57533 -0.28881,0.46731 0.13009,0.84965 0.9309,0.84965 0.8008,0 1.45601,-0.12345 1.45601,-0.27432 z M 112.76416,78.431972 c 1.03474,-2.311167 1.6704,-4.202121 1.41257,-4.202121 -1.09624,0 -7.43344,7.29218 -7.43344,8.553625 0,2.828335 4.14884,-0.170181 6.02087,-4.351504 z m 7.53442,-4.02342 c 1.59609,-3.123286 3.08666,-6.091393 3.31238,-6.595794 1.28978,-2.882233 -6.25154,4.249217 -7.89031,7.46147 -2.45206,4.806428 -2.48323,5.900671 -0.15071,5.290704 1.00466,-0.262724 3.13255,-3.033095 4.72864,-6.15638 z m 4.30789,-0.116388 c 0.62197,-2.07593 2.25719,-5.434179 3.63383,-7.462775 1.37665,-2.028596 2.50299,-3.909205 2.50299,-4.179131 0,-1.129862 -4.16538,1.849921 -4.74581,3.395008 -0.34806,0.926522 -1.89764,3.841888 -3.44352,6.478591 -3.30223,5.632441 -3.46797,6.690641 -0.9445,6.03074 1.09701,-0.286874 2.33226,-2.043683 2.99701,-4.262433 z m 5.74168,0.580364 c 0.60768,-0.628472 1.88275,-3.167677 2.8335,-5.642677 0.95075,-2.475 2.73545,-5.85 3.96599,-7.5 4.00573,-5.371154 3.98203,-5.737765 -0.23196,-3.587945 -2.22018,1.132651 -4.36175,2.585324 -4.75905,3.228164 -0.77809,2.726627 -4.05793,7.301649 -6.35268,13.177483 -0.99736,2.644599 -0.92435,2.776232 1.18835,2.142676 1.23804,-0.371263 2.74818,-1.189229 3.35585,-1.817701 z m 11.41647,-2.963687 c 4.13674,-1.276406 11.11173,-3.141017 15.49999,-4.14358 7.09442,-1.62082 8.22803,-2.202494 10.22867,-5.248466 1.2375,-1.884094 2.25,-3.844422 2.25,-4.356284 0,-2.131718 -4.04781,-0.698062 -6.54847,2.31934 l -2.69342,3.25 2.20596,-3.951251 c 2.12558,-3.807271 2.13909,-4.000245 0.37095,-5.295817 -1.59967,-1.172116 -2.07294,-1.051336 -3.69002,0.941708 -1.02025,1.257451 -2.94034,4.428069 -4.26685,7.045817 -1.32651,2.617749 -2.6353,4.759543 -2.90842,4.759543 -0.85383,0 2.26065,-6.709319 4.95533,-10.674908 2.89079,-4.254182 3.26504,-6.325092 1.14303,-6.325092 -1.80763,0 -4.43681,3.682716 -8.9504,12.536955 -1.95225,3.829675 -3.56487,6.277148 -3.58361,5.43883 -0.0187,-0.838318 1.99093,-5.077629 4.46593,-9.42069 2.47499,-4.343061 4.49999,-8.035016 4.49999,-8.204346 0,-0.761777 -5.62743,2.282369 -6.72349,3.637055 -0.67292,0.831708 -3.07446,5.260655 -5.33675,9.842105 -2.2623,4.58145 -4.31915,8.124024 -4.57079,7.872387 -0.25163,-0.251637 1.36433,-4.18567 3.59104,-8.742296 2.22671,-4.556626 3.87512,-8.458216 3.66313,-8.670202 -1.26053,-1.260532 -12.62313,16.055967 -12.62313,19.237537 0,0.805293 1.25334,0.548501 9.02133,-1.848345 z m 32.57822,-9.484257 c 1.47994,-2.023937 0.91426,-3.194733 -1.54357,-3.194733 -1.60265,0 -5.05599,3.806616 -5.05599,5.573225 0,1.226254 5.38205,-0.713445 6.59956,-2.378492 z m 8.79508,-0.269614 c 0.49206,-0.447925 -0.33638,-1.123377 -1.84098,-1.501006 -2.0615,-0.517405 -3.25292,-0.169298 -4.83486,1.412642 l -2.09924,2.099241 3.94022,-0.598235 c 2.16712,-0.329029 4.34281,-0.964718 4.83486,-1.412642 z M 60.272938,49.855623 c 0.43418,-1.841426 3.70741,-7.72204 4.08694,-7.342509 0.29198,0.291982 -0.19603,1.936558 -1.08447,3.654613 l -1.61535,3.123736 3.74025,-1.562774 c 4.50056,-1.880455 4.64569,-2.011997 5.03513,-4.563901 0.41452,-2.716181 3.82677,-9.290789 5.57497,-10.741665 0.77731,-0.645114 0.1352,1.360905 -1.42691,4.457819 -3.37407,6.68913 -3.56536,8.351301 -0.88032,7.649145 1.38068,-0.361054 2.4217,-2.1805 3.52246,-6.156381 0.85941,-3.10412 2.23509,-7.137631 3.05707,-8.963357 1.83388,-4.073302 1.16315,-3.740521 -7.27876,3.611329 -3.43163,2.988525 -6.950199,5.509566 -6.687129,5.935232 -2.551335,2.887521 -5.740627,5.428503 -8.821271,9.637928 l -2.05221,2.864987 2.39997,-0.739215 c 1.31999,-0.406568 2.41332,-0.795812 2.42963,-0.864987 z m 21.93401,-8.978792 c -0.21698,-0.630839 1.35239,-4.74698 3.48749,-9.14698 2.13509,-4.4 3.66901,-8.213015 3.40872,-8.473366 -0.2603,-0.260351 -1.68526,0.20523 -3.16657,1.034625 -2.65451,1.48627 -6.5142,9.293229 -7.81839,15.814187 -0.53094,2.65469 -0.37449,2.847128 1.95304,2.402194 1.39161,-0.266024 2.35268,-0.999822 2.13571,-1.63066 z m 5.00884,-0.274803 c 0.89985,-0.345303 2.95475,-3.382803 4.56645,-6.75 2.67889,-5.596788 2.78854,-6.227995 1.27775,-7.355231 -2.20509,-1.645267 -3.59855,-0.384022 -6.09263,5.514539 -3.86498,9.140776 -3.83556,10.157868 0.24843,8.590692 z m 7.01076,-2.365816 c 2.67258,-1.016113 6.106002,-7.243897 4.98953,-9.050379 -1.64115,-2.655445 -3.98189,-0.45998 -6.86409,6.438088 -1.68616,4.035566 -1.72534,3.980973 1.87456,2.612291 z m 12.919872,-4.07226 5.90312,-1.320897 -3.40312,-1.230524 c -5.64138,-2.039846 -8.43479,-1.705996 -9.742622,1.164373 -1.47401,3.235095 -1.45867,3.781296 0.0895,3.187435 0.687502,-0.26372 3.906412,-1.073894 7.153132,-1.800387 z"
     id="path4517"
     inkscape:connector-curvature="0"
     sodipodi:nodetypes="sssssccssssscccssssccccssssssssscscsscsssssssssssssssssssssssssscssssssscsssssssssssssssssssscsssssssssssscsssscsssssscsssscsscssssscsscsssccssscsssssssscscsscsccsssssssccssssssssssssssssssscsscssssscsscssccsssssscsssssscsssssssssscscsssscscssssscsssssscscsssssscsssssssssscscssscssssscssscsscsscscscssssssssssssssssssssssssccssssssscsssssssscsssscssssssssssscssssscsssssssscccsscscssscsssssssssccssscc" />
</svg>
