<?xml version="1.0" encoding="UTF-8" standalone="no"?>
<!-- Created with Inkscape (http://www.inkscape.org/) -->

<svg
   xmlns:dc="http://purl.org/dc/elements/1.1/"
   xmlns:cc="http://creativecommons.org/ns#"
   xmlns:rdf="http://www.w3.org/1999/02/22-rdf-syntax-ns#"
   xmlns:svg="http://www.w3.org/2000/svg"
   xmlns="http://www.w3.org/2000/svg"
   xmlns:sodipodi="http://sodipodi.sourceforge.net/DTD/sodipodi-0.dtd"
   xmlns:inkscape="http://www.inkscape.org/namespaces/inkscape"
   id="svg7639"
   version="1.1"
   inkscape:version="0.48.4 r9939"
   width="301"
   height="317"
   sodipodi:docname="Club.png">
  <metadata
     id="metadata7645">
    <rdf:RDF>
      <cc:Work
         rdf:about="">
        <dc:format>image/svg+xml</dc:format>
        <dc:type
           rdf:resource="http://purl.org/dc/dcmitype/StillImage" />
        <dc:title></dc:title>
      </cc:Work>
    </rdf:RDF>
  </metadata>
  <defs
     id="defs7643" />
  <sodipodi:namedview
     pagecolor="#ffffff"
     bordercolor="#666666"
     borderopacity="1"
     objecttolerance="10"
     gridtolerance="10"
     guidetolerance="10"
     inkscape:pageopacity="0"
     inkscape:pageshadow="2"
     inkscape:window-width="1268"
     inkscape:window-height="749"
     id="namedview7641"
     showgrid="false"
     inkscape:zoom="1.488959"
     inkscape:cx="247.30732"
     inkscape:cy="193.03511"
     inkscape:window-x="0"
     inkscape:window-y="22"
     inkscape:window-maximized="0"
     inkscape:current-layer="svg7639" />
  <path
     style="fill:#a2661e;fill-opacity:1;stroke:none"
     d="m 28.879237,281.40466 c 0.3479,13.09651 7.161594,17.57195 15.012874,20.66395 13.694156,-9.16376 24.899433,-23.50106 36.890241,-36.30516 32.912188,-35.1445 68.422358,-68.11772 101.224518,-102.03407 26.85578,-27.76799 55.80703,-53.78521 84.22579,-79.997768 3.43919,-3.172199 6.04337,-6.843589 9.48987,-10.008419 5.15494,-4.733639 10.31618,-9.460896 15.47809,-14.187338 L 290.13559,44.997881 C 275.6112,35.030038 266.40183,15.650683 246.56241,15.094353 208.93322,63.881383 172.40455,115.09545 133.30117,160.64113 c -25.35461,29.53178 -49.015956,61.43973 -77.24288,89.68818 -9.804701,9.81218 -18.008288,20.98456 -27.179053,31.07535 z"
     id="path7651"
     inkscape:connector-curvature="0"
     sodipodi:nodetypes="ccsssscccssc" />
  <path
     style="fill:#707070;fill-opacity:1;stroke:none"
     d="m 238.6373,63.403344 c 0.86255,5.496876 -3.47608,8.393161 -5.2239,12.584852 -4.45479,1.298621 -9.05687,10.521214 -10.9227,-4.986451 0.15438,-4.055138 8.37232,-14.218049 16.1466,-7.598401 z"
     id="path8161"
     inkscape:connector-curvature="0"
     sodipodi:nodetypes="cccc" />
  <path
     style="fill:#707070;fill-opacity:1;stroke:none"
     d="m 250.00689,48.691737 c -0.28219,5.275424 2.19068,6.693782 6.38029,5.708686 4.03337,-4.123302 10.07709,-6.601767 9.57045,-14.439618 -1.98238,-5.060819 -5.48328,-4.427179 -9.23464,-2.854344 z"
     id="path8163"
     inkscape:connector-curvature="0"
     sodipodi:nodetypes="ccccc" />
  <path
     style="fill:#707070;stroke:none;stroke-width:1px;stroke-linecap:butt;stroke-linejoin:miter;stroke-opacity:1;fill-opacity:1"
     d="m 204.8411,69.511652 -0.67161,-9.738347 9.06674,-9.23464 4.36547,1.679025 z"
     id="path8165"
     inkscape:connector-curvature="0" />
  <path
     style="fill:#707070;stroke:none;stroke-width:1px;stroke-linecap:butt;stroke-linejoin:miter;stroke-opacity:1;fill-opacity:1"
     d="m 227.00424,37.106461 0,-7.219809 7.0519,-6.548199 1.67903,4.365466 z"
     id="path8167"
     inkscape:connector-curvature="0" />
  <path
     style="fill:#707070;fill-opacity:1;stroke:none"
     d="m 274.85646,67.832627 c 0.97117,3.160176 0.0535,7.999303 4.70127,7.891419 3.59742,-5.011371 9.80224,-7.04285 10.57786,-15.279131 L 284.259,58.933792 c -4.78583,1.314629 -6.69981,5.501105 -9.40254,8.898835 z"
     id="path8169"
     inkscape:connector-curvature="0"
     sodipodi:nodetypes="ccccc" />
  <path
     style="fill:#707070;fill-opacity:1;stroke:none"
     d="m 245.97722,94.025423 c 0.24841,4.525436 -0.0598,9.653857 5.37289,8.563027 5.4268,-4.481491 11.01329,-8.643605 14.27171,-17.461861 l -8.56303,-0.671611 c -5.58198,0.04328 -8.05739,5.264169 -11.08157,9.570445 z"
     id="path8171"
     inkscape:connector-curvature="0"
     sodipodi:nodetypes="ccccc" />
  <path
     style="fill:#000000"
     d="m 43.135668,303.01977 c 0.009,-0.45833 2.95902,-3.30833 6.5548,-6.33333 3.59578,-3.025 11.35062,-10.66706 17.23298,-16.98236 28.14777,-30.21944 48.704192,-51.1475 70.605142,-71.88159 13.15047,-12.44983 29.64266,-28.93605 36.6493,-36.63605 15.19836,-16.70234 49.93873,-51.07704 62.18782,-61.53324 8.3852,-7.15785 10.48452,-9.56846 7.25293,-8.32839 -1.82266,0.69943 -1.96194,-0.7407 -0.25,-2.585074 1,-1.077364 1,-1.205561 0,-0.640983 -0.6875,0.388146 -1.25,0.251524 -1.25,-0.303606 0,-0.55513 0.7875,-1.468003 1.75,-2.028608 1.38486,-0.806605 1.43702,-1.032262 0.25,-1.081494 -1.22547,-0.05083 -1.18256,-0.303262 0.23446,-1.379285 0.95395,-0.724391 1.44145,-1.610079 1.08333,-1.968197 -0.35812,-0.358118 0.0723,-0.651123 0.95653,-0.651123 0.8842,0 1.88576,0.45 2.22568,1 0.33992,0.55 0.14148,1 -0.44098,1 -1.35703,0 -1.37236,4.545995 -0.0238,7.065741 1.40076,2.617329 3.21854,2.433089 6.94689,-0.704109 2.80616,-2.361227 8.98459,-11.696636 9.00855,-13.611632 0.005,-0.4125 -1.74248,-0.75 -3.88363,-0.75 -2.62743,0 -4.09034,-0.514226 -4.5,-1.581787 -0.86144,-2.244871 -0.78164,-2.422464 0.81344,-1.810373 0.92053,0.35324 1.57647,-0.273695 1.86382,-1.781385 0.39816,-2.08914 0.45728,-2.045935 0.57957,0.423545 0.0749,1.5125 0.6165,2.75 1.20357,2.75 0.61231,0 0.79675,-0.852689 0.43261,-2 -0.46086,-1.45205 -0.1797,-2 1.02623,-2 0.91356,0 1.89636,0.9 2.18402,2 0.78556,3.004 2.42684,2.454944 7.20009,-2.408648 3.13298,-3.192271 3.82179,-4.364875 2.49653,-4.25 -1.09464,0.09489 -1.99248,-0.632389 -2.23389,-1.80952 -0.3506,-1.709446 -0.19132,-1.79194 1.21168,-0.627555 1.36997,1.136976 1.61534,1.10313 1.61534,-0.222815 0,-0.859886 -0.47185,-1.855048 -1.04856,-2.211473 -0.72647,-0.448985 -0.72914,-1.032921 -0.009,-1.901026 0.57193,-0.68914 0.74378,-1.549077 0.38189,-1.910972 -0.36161,-0.361895 -0.29481,-0.657991 0.14872,-0.657991 0.92854,0 3.44781,3.105938 3.49511,4.309017 0.0175,0.444959 -0.37623,0.556838 -0.87494,0.24862 -1.44148,-0.890886 -0.0308,3.249305 1.55578,4.566056 1.15347,0.957295 2.07582,0.566074 4.72963,-2.006099 1.8132,-1.75742 4.29856,-4.977824 5.52301,-7.156452 2.08411,-3.708167 2.10869,-3.961142 0.38481,-3.961142 -2.24935,0 -6.28649,-2.704717 -6.28649,-4.211692 0,-0.604056 0.82293,-0.353539 1.82874,0.556704 1.00581,0.910244 2.56956,1.654988 3.475,1.654988 1.31387,0 1.51884,-0.637111 1.01516,-3.155491 -0.45115,-2.255753 -0.30145,-2.95176 0.525,-2.440983 2.34117,1.446919 1.14419,-5.062936 -1.5939,-8.66854 -7.37394,-9.710255 -30.58596,-27.734985 -35.71676,-27.734985 -0.84328,0 -1.53324,-0.45 -1.53324,-1 0,-6.0718434 26.39686,12.517243 38.25985,26.943192 3.62643,4.409902 3.65139,4.503985 3.33144,12.556864 -0.26176,6.588549 -0.7927,8.854861 -2.82457,12.056807 -3.7015,5.83305 -7.87734,9.647471 -9.96415,9.101758 -2.72089,-0.711529 -11.25963,7.542765 -14.93391,14.436421 -1.74178,3.267903 -4.95181,7.554229 -7.1334,9.525167 -3.25472,2.94045 -4.49444,3.47795 -6.90821,2.9952 -2.48687,-0.49737 -3.6672,0.0855 -7.63436,3.76996 -2.58098,2.39706 -8.61408,7.67846 -13.40689,11.73646 -4.79281,4.05799 -25.52839,24.70317 -46.07906,45.87817 -20.55067,21.175 -44.07928,44.78653 -52.2858,52.47007 -14.69476,13.7583 -43.710242,43.4074 -59.733832,61.03824 -8.00008,8.80253 -24.71626,24.66177 -26.69343,25.32502 -0.54652,0.18334 -0.98601,-0.0417 -0.97665,-0.5 z m -4.51702,-1.50214 c -5.59556,-3.08967 -10.2206,-9.934 -11.04055,-16.33828 -0.39415,-3.07859 0.37681,-4.27648 8.80669,-13.68343 5.08127,-5.67022 11.70587,-13.23448 14.72134,-16.80948 3.01547,-3.575 10.89844,-12.125 17.51772,-19 15.17244,-15.7586 26.60539,-29.10246 38.469552,-44.89939 5.12186,-6.81967 13.12215,-16.49467 17.77841,-21.5 4.65626,-5.00534 12.3175,-13.82561 17.02497,-19.60061 4.70747,-5.775 10.68446,-12.75 13.2822,-15.5 6.71807,-7.11184 18.94818,-23.08436 27.94793,-36.5 4.24307,-6.325 10.66657,-15.240821 14.27445,-19.812936 l 6.55978,-8.312936 -0.55052,-5.334104 c -0.54449,-5.275532 -0.49999,-5.384645 4.05243,-9.937063 3.6423,-3.642299 5.30354,-4.602961 7.95975,-4.602961 2.858,0 3.86492,-0.705817 6.77632,-4.75 2.93944,-4.083133 3.37222,-5.407384 3.08258,-9.432452 -0.32521,-4.519531 -0.15124,-4.858433 5,-9.740246 4.1052,-3.890483 5.54566,-4.746978 6.24129,-3.711076 0.69513,1.035158 1.89301,0.31489 5.17785,-3.113359 2.35043,-2.453042 4.72159,-4.183148 5.26924,-3.844679 0.54766,0.338469 -1.12341,2.791045 -3.71347,5.450168 -2.59007,2.659124 -7.49127,8.841316 -10.89156,13.738206 -11.40853,16.429865 -20.88645,29.293524 -27.26563,37.005569 -7.83036,9.466424 -12.77499,16.167874 -20.95323,28.397869 -8.10195,12.11592 -20.85597,28.66366 -28.08923,36.44447 -3.09617,3.33054 -7.31571,8.30553 -9.37677,11.05553 -2.06106,2.75 -9.49281,11.32189 -16.51499,19.04864 -7.02218,7.72675 -17.52427,20.32675 -23.33796,28 -5.8137,7.67325 -16.001462,20.12058 -22.639472,27.66074 -11.55552,13.12596 -13.57598,15.77581 -10.81912,14.18931 0.71427,-0.41104 0.89831,-0.33466 0.42942,0.17823 -0.45132,0.49366 -1.57632,0.90331 -2.5,0.91033 -1.04139,0.008 -1.56779,0.6776 -1.38559,1.76275 0.16161,0.9625 -0.17589,1.75 -0.75,1.75 -0.57411,0 -1.05072,-0.5625 -1.05915,-1.25 -0.0102,-0.83333 -0.33843,-0.75 -0.98468,0.25 -1.26104,1.95131 -1.26712,3.28312 -0.0114,2.50708 0.5703,-0.35247 0.73243,0.0564 0.38321,0.96651 -0.46527,1.21248 -0.92262,1.31412 -1.97671,0.43931 -1.06002,-0.87974 -1.52067,-0.7491 -2.02893,0.5754 -0.36781,0.95849 -0.10566,2.05464 0.59493,2.48762 0.78513,0.48524 0.8786,1.00515 0.2505,1.39334 -0.55109,0.34059 -1.27946,-0.10384 -1.6186,-0.98763 -0.4951,-1.29021 -0.90575,-1.36692 -2.08377,-0.38925 -1.08761,0.90264 -1.20479,1.70786 -0.45298,3.11263 0.69184,1.29273 0.68517,1.89499 -0.021,1.89499 -0.56935,0 -1.03518,-0.70156 -1.03518,-1.55902 0,-0.86799 -0.48186,-1.26121 -1.08712,-0.88714 -0.59792,0.36953 -0.87385,1.48742 -0.61319,2.4842 0.31076,1.18834 0.0313,1.64246 -0.81173,1.31897 -1.96879,-0.7555 -2.71927,1.33717 -1.3887,3.87232 l 1.19175,2.27067 -2.29818,-2 -2.29818,-2 0.63501,3.5 c 0.55006,3.03177 0.45881,3.27054 -0.68212,1.7848 -1.00259,-1.30559 -1.59541,-1.43694 -2.48234,-0.55 -0.64086,0.64086 -1.15831,1.8627 -1.14989,2.7152 0.0135,1.3658 0.13051,1.37174 0.98469,0.05 0.58246,-0.90129 0.97548,-1.02463 0.98468,-0.30902 0.0239,1.86093 -2.11552,2.71536 -3.04269,1.21516 -0.66659,-1.07856 -0.9673,-1.00376 -1.49519,0.37189 -0.36343,0.94708 -0.40176,2.39697 -0.0852,3.22197 0.31659,0.825 0.13973,1.5 -0.39301,1.5 -0.53274,0 -0.96861,-0.5051 -0.96861,-1.12244 0,-0.7826 -0.44781,-0.75081 -1.47899,0.105 -1.09811,0.91135 -1.21781,1.71546 -0.46482,3.12245 0.69185,1.29273 0.68518,1.89499 -0.021,1.89499 -0.56935,0 -1.03518,-0.45 -1.03518,-1 0,-0.55 -0.46584,-1 -1.03519,-1 -0.66507,0 -0.60653,0.80445 0.16372,2.25 1.05237,1.975 1.01178,2.09572 -0.33214,0.98767 -2.00771,-1.65534 -4.17708,0.5466 -2.7545,2.79587 0.51011,0.80655 0.91843,1.91646 0.90736,2.46646 -0.0111,0.55 -0.61505,-0.0733 -1.34218,-1.3851 -0.83459,-1.50568 -1.576,-1.97419 -2.0108,-1.27067 -0.37882,0.61294 -0.18149,2.06228 0.4385,3.22075 0.62,1.15847 0.86581,2.36777 0.54625,2.68733 -0.31956,0.31956 -0.58791,0.16852 -0.59634,-0.33564 -0.008,-0.50417 -0.41758,-1.55215 -0.90925,-2.32885 -1.572,-2.48334 -3.74588,0.86656 -3.51218,5.41218 0.34452,6.70073 6.25307,14.5 10.9849,14.5 0.89018,0 1.44039,0.53437 1.22268,1.1875 -0.56684,1.70052 -1.97303,1.91246 -4.27083,0.64369 z M 205.82437,61.43644 c -0.23835,-1.2375 -0.43337,-0.225 -0.43337,2.25 0,2.475 0.19502,3.4875 0.43337,2.25 0.23836,-1.2375 0.23836,-3.2625 0,-4.5 z m 3.33008,-2.75 -0.83109,-3.5 -0.10236,4.45 c -0.0636,2.765939 0.2509,4.090481 0.83109,3.5 0.54625,-0.555936 0.58871,-2.401816 0.10236,-4.45 z m 2.31353,-0.467975 c 0.30982,-0.807386 0.13297,-1.733944 -0.39301,-2.059017 -0.52598,-0.325073 -0.95633,0.335516 -0.95633,1.467975 0,2.414565 0.55611,2.658155 1.34934,0.591042 z m 2.65066,-4.032025 c 0,-1.375 -0.45,-2.5 -1,-2.5 -1.11717,0 -1.3707,3.295963 -0.33333,4.333333 1.10234,1.102341 1.33333,0.784727 1.33333,-1.833333 z m 16.96778,-22.5 c 0.56772,0 1.01791,-1.0125 1.00042,-2.25 -0.0293,-2.073527 -0.13511,-2.113962 -1.34888,-0.515544 -0.72439,0.953952 -1.61008,1.441452 -1.9682,1.083334 -0.35811,-0.358118 -0.6226,0.886377 -0.58773,2.765543 0.0566,3.051577 0.16002,3.176242 0.96777,1.166667 0.49742,-1.2375 1.36889,-2.25 1.93662,-2.25 z m 3.03222,-5.059017 c 0,-1.132459 -0.43035,-1.793048 -0.95633,-1.467975 -0.52598,0.325073 -0.70283,1.251631 -0.39301,2.059017 0.79323,2.067113 1.34934,1.823523 1.34934,-0.591042 z M 31.742188,288.14778 c -0.96498,-2.51469 -0.68032,-3.16355 0.49853,-1.13634 0.58369,1.00375 0.8506,2.03566 0.59313,2.29313 -0.25747,0.25747 -0.74872,-0.26309 -1.09166,-1.15679 z M 247.86864,89.891851 c -0.9625,-0.193633 -1.75,-0.799388 -1.75,-1.346123 0,-0.551738 1.00118,-0.712446 2.25,-0.361169 1.70852,0.480583 1.89598,0.389557 0.77896,-0.378239 -0.80907,-0.556124 -1.22622,-1.255952 -0.927,-1.555175 0.29922,-0.299222 1.27141,0.01381 2.16042,0.695627 1.96011,1.50329 0.25518,3.501848 -2.51238,2.945079 z m 3.87407,-5.004665 c -0.40816,-0.66041 -0.26555,-1.200746 0.31691,-1.200746 0.58246,0 1.06591,-0.7875 1.07433,-1.75 0.0131,-1.495547 0.15626,-1.531897 0.98469,-0.25 0.53316,0.825 0.96937,2.175 0.96937,3 0,1.227697 -0.15678,1.252539 -0.86363,0.136847 -0.70239,-1.108647 -0.94541,-1.117843 -1.3016,-0.04925 -0.33239,0.997151 -0.61687,1.02443 -1.18007,0.113153 z m -29.05978,-3.493874 c 0.37553,-0.986221 0.93469,-1.541221 1.24258,-1.233333 0.30789,0.307887 6.4e-4,1.114794 -0.68278,1.793128 -0.98762,0.980267 -1.10248,0.865403 -0.5598,-0.559795 z m 6.43571,-1.206872 c 0,-1.375 0.3876,-2.5 0.86133,-2.5 0.47373,0 0.64627,1.125 0.38342,2.5 -0.26285,1.375 -0.65044,2.5 -0.86133,2.5 -0.21088,0 -0.38342,-1.125 -0.38342,-2.5 z m -3.92971,0.785184 c -0.10785,-1.863941 -3.78978,-3.548073 -4.66411,-2.13338 -0.47384,0.766687 -0.27344,0.884193 0.59382,0.348196 0.89895,-0.555583 1.06863,-0.420059 0.54164,0.432624 -0.57974,0.938034 -1.04543,0.959353 -1.90451,0.08719 -0.8515,-0.864474 -0.70146,-1.476359 0.59733,-2.436009 0.95395,-0.704856 1.48118,-1.534825 1.17163,-1.844376 -0.9406,-0.940607 -1.187,-5.722057 -0.26552,-5.152549 0.47269,0.292134 0.85943,-0.395404 0.85943,-1.527863 0,-1.132459 0.45,-2.059017 1,-2.059017 0.55,0 1,-0.926558 1,-2.059017 0,-1.2046 0.44289,-1.785293 1.06731,-1.399384 0.59201,0.365883 1.32178,-0.313463 1.63874,-1.525518 0.42067,-1.608646 0.7851,-1.839414 1.38134,-0.874688 0.59502,0.962762 1.07204,0.653533 1.79787,-1.165465 0.69657,-1.745671 1.00666,-1.959778 1.05135,-0.725928 0.0349,0.9625 0.54371,1.75 1.13078,1.75 0.62778,0 0.80672,-0.926675 0.43449,-2.25 -0.48983,-1.741412 -0.40029,-1.910942 0.39614,-0.75 1.20184,1.751904 3.28804,2.008529 4.33667,0.533458 0.46573,-0.65513 0.74029,-0.554254 0.75,0.275559 0.009,0.743313 0.52091,0.996539 1.18525,0.585955 0.8025,-0.495975 0.95487,-0.162597 0.48514,1.061501 -0.54652,1.424188 -0.28143,1.679077 1.31271,1.262201 1.73949,-0.454887 1.85725,-0.26027 0.91162,1.506656 -0.82692,1.5451 -0.76315,2.233534 0.26734,2.886531 1.01598,0.643792 0.85478,0.865146 -0.64675,0.888139 -1.65895,0.0254 -1.74421,0.195928 -0.5,1 1.26165,0.815343 1.20247,0.971808 -0.37244,0.984687 -1.62374,0.01328 -1.69119,0.233712 -0.50785,1.659559 1.21947,1.469364 1.09954,1.570645 -1.12755,0.95225 -2.07178,-0.575269 -2.19697,-0.506879 -0.74216,0.405445 0.9625,0.603592 1.75,1.580179 1.75,2.170194 0,0.731728 -0.43609,0.710832 -1.37179,-0.06573 -1.10112,-0.913845 -1.51247,-0.494047 -2.08473,2.127556 -0.60967,2.792983 -0.82203,2.981638 -1.4662,1.302492 -0.66593,-1.735878 -0.84252,-1.61993 -1.523,1 l -0.76972,2.963547 -0.91387,-2.39547 c -0.74769,-1.959867 -0.27692,-3.323698 2.58884,-7.5 2.52366,-3.677749 3.33149,-5.749242 2.89017,-7.411088 -0.39433,-1.484878 -1.12922,-2.108291 -2.06291,-1.75 -0.7977,0.306107 -2.26597,0.556558 -3.26282,0.556558 -0.99685,0 -3.21005,1.305544 -4.91821,2.90121 -2.58943,2.418887 -3.10576,3.653563 -3.10576,7.426676 0,2.996443 0.46067,4.634707 1.36345,4.84879 0.93631,0.222033 1.11497,0.949884 0.57028,2.323324 -0.43624,1.1 -0.82479,1.453333 -0.86344,0.785184 z m 41.00866,-0.868517 c 0.048,-1.164943 0.28494,-1.4019 0.60416,-0.604167 0.28887,0.721875 0.25335,1.584375 -0.0789,1.916667 -0.3323,0.332291 -0.56864,-0.258334 -0.52522,-1.3125 z m 9.90205,-15.939559 c -1.05678,-1.273347 -0.99492,-1.419678 0.37756,-0.893011 0.90279,0.346434 1.64144,1.031736 1.64144,1.522892 0,1.285959 -0.57887,1.105364 -2.019,-0.629881 z m 2.269,-1.197346 c -0.6875,-0.245536 -1.25,-1.180357 -1.25,-2.077381 0,-1.484462 0.15184,-1.479116 1.69048,0.05952 1.80785,1.807855 1.60272,2.747572 -0.44048,2.017857 z m 2.75,-2.779762 c -0.70675,-0.851583 -1.06,-1.773332 -0.785,-2.048332 0.275,-0.275 1.07825,0.196749 1.785,1.048332 0.70675,0.851583 1.06,1.773332 0.785,2.048332 -0.275,0.275 -1.07825,-0.196749 -1.785,-1.048332 z m -25,-2.559017 c 0,-0.582459 -0.45,-0.780902 -1,-0.440983 -0.5629,0.34789 -0.96549,-0.391242 -0.92105,-1.690983 0.0434,-1.269959 0.29933,-1.766296 0.56868,-1.10297 0.58246,1.434404 8.8524,-7.55542 9.85429,-10.712093 1.1554,-3.640337 -0.24349,-6.993954 -2.91738,-6.993954 -2.74686,0 -8.09622,5.587031 -10.22306,10.677273 -1.26939,3.038098 -4.12141,4.960332 -3.0753,2.072727 0.24906,-0.6875 -0.27594,-2.113804 -1.16667,-3.169565 -1.49972,-1.777586 -1.49384,-1.873808 0.0796,-1.300928 1.29173,0.470323 1.54652,0.211294 1.06277,-1.080435 -0.54323,-1.450543 -0.40181,-1.508529 0.96683,-0.396422 1.36351,1.107935 1.70279,0.988656 2.26985,-0.797988 0.36935,-1.163712 0.12923,-2.748264 -0.53835,-3.55265 -1.47272,-1.774523 0.12738,-1.940099 1.95222,-0.202012 1.07325,1.022224 1.17452,0.795878 0.55576,-1.242158 -0.70419,-2.31941 -0.62969,-2.388727 1.07484,-1 1.66701,1.358165 1.76874,1.325014 1.1329,-0.369183 -0.54184,-1.44373 -0.33451,-1.721636 0.92411,-1.238659 1.08155,0.41503 1.45601,0.188336 1.12288,-0.679783 -0.74445,-1.939993 4.26832,-2.038153 6.38236,-0.124979 0.9728,0.880377 2.24709,1.305044 2.83175,0.943706 0.58461,-0.361338 1.06297,-0.18042 1.06297,0.402039 0,0.582459 -0.45,1.059017 -1,1.059017 -0.55,0 -1,0.502484 -1,1.116631 0,0.624117 0.8817,0.886061 1.999,0.59388 1.09946,-0.287513 2.21939,-0.166157 2.48876,0.269679 0.26936,0.435836 -0.49242,1.049272 -1.69285,1.36319 -2.07699,0.543148 -2.09947,0.6626 -0.46464,2.469072 2.22147,2.454693 1.23823,5.890033 -1.13428,3.963071 -1.30689,-1.061454 -1.47614,-1.022897 -1.00852,0.229741 0.63154,1.69172 -1.56191,4.251789 -2.72856,3.184625 -0.41482,-0.379439 -0.50006,0.341099 -0.18944,1.601195 0.48761,1.978043 0.26867,2.201796 -1.60235,1.637605 -1.72043,-0.518784 -1.92031,-0.393804 -0.96969,0.606347 0.9392,0.988134 0.68952,1.659348 -1.15773,3.112395 -2.68657,2.113257 -3.5397,2.304517 -3.5397,0.793552 z m -6.44125,-0.845931 c -0.36685,-0.593567 -0.2229,-1.870276 0.31988,-2.837132 0.93591,-1.667147 1.02302,-1.664085 1.6869,0.0593 0.80595,2.092174 -0.93832,4.50664 -2.00678,2.777835 z m 34.44125,-1.095052 c -0.7257,-1.355992 -0.73703,-2 -0.0352,-2 0.56935,0 1.3504,-0.03337 1.73567,-0.07417 0.38527,-0.04079 1.04577,0.859209 1.46778,2 1.02594,2.773335 -1.68968,2.836906 -3.16825,0.07417 z"
     id="path7649"
     inkscape:connector-curvature="0" />
</svg>
