<?xml version="1.0" encoding="UTF-8" standalone="no"?>
<!-- Created with Inkscape (http://www.inkscape.org/) -->

<svg
   xmlns:dc="http://purl.org/dc/elements/1.1/"
   xmlns:cc="http://creativecommons.org/ns#"
   xmlns:rdf="http://www.w3.org/1999/02/22-rdf-syntax-ns#"
   xmlns:svg="http://www.w3.org/2000/svg"
   xmlns="http://www.w3.org/2000/svg"
   xmlns:sodipodi="http://sodipodi.sourceforge.net/DTD/sodipodi-0.dtd"
   xmlns:inkscape="http://www.inkscape.org/namespaces/inkscape"
   id="svg14328"
   version="1.1"
   inkscape:version="0.48.4 r9939"
   width="273"
   height="207"
   sodipodi:docname="Earmuffs.png">
  <metadata
     id="metadata14334">
    <rdf:RDF>
      <cc:Work
         rdf:about="">
        <dc:format>image/svg+xml</dc:format>
        <dc:type
           rdf:resource="http://purl.org/dc/dcmitype/StillImage" />
        <dc:title></dc:title>
      </cc:Work>
    </rdf:RDF>
  </metadata>
  <defs
     id="defs14332" />
  <sodipodi:namedview
     pagecolor="#ffffff"
     bordercolor="#666666"
     borderopacity="1"
     objecttolerance="10"
     gridtolerance="10"
     guidetolerance="10"
     inkscape:pageopacity="0"
     inkscape:pageshadow="2"
     inkscape:window-width="1285"
     inkscape:window-height="741"
     id="namedview14330"
     showgrid="false"
     inkscape:zoom="2.2801932"
     inkscape:cx="183.8065"
     inkscape:cy="147.79671"
     inkscape:window-x="-3"
     inkscape:window-y="22"
     inkscape:window-maximized="0"
     inkscape:current-layer="svg14328" />
  <path
     style="fill:#cc4821;fill-opacity:1;stroke:none"
     d="M 28.944915,91.658898 C 31.95309,66.283511 53.251799,51.89563 73.239407,56.574152 113.8725,73.864651 104.44483,106.97279 96.044492,121.04237 79.646215,144.82356 60.137387,137.7213 48.519299,132.44529 35.608684,126.58232 25.629832,113.18239 28.944915,91.658898 z"
     id="path14340"
     inkscape:connector-curvature="0"
     sodipodi:nodetypes="cccsc" />
  <path
     style="fill:#cc4821;fill-opacity:1;stroke:none"
     d="m 102.62288,148.67161 c 4.4643,-3.95407 7.61156,-8.40202 8.77119,-13.59534 l 5.26271,-13.15678 7.89407,-7.45551 c 23.70694,17.4698 49.2691,21.2692 62.22603,24.53613 22.50548,5.67447 24.8425,5.67051 46.45687,4.3115 6.93768,-0.80437 10.37178,-5.11233 14.11371,-9.11246 -2.54315,-9.10057 -6.35129,-18.0014 -16.66526,-25.875 -26.83303,-15.155298 -60.73444,-27.397189 -98.23728,-38.154659 -2.34315,-9.063559 1.16807,-18.127119 1.75423,-27.190678 32.18996,8.813656 73.82812,20.410838 106.49011,41.508082 12.7552,13.144475 28.93967,24.283145 20.6921,49.712255 -6.73342,14.60733 -12.48424,29.38934 -37.27755,40.78602 -38.5362,4.93093 -80.71815,-15.6584 -121.48093,-26.31356 z"
     id="path14850"
     inkscape:connector-curvature="0"
     sodipodi:nodetypes="ccccsccccccccc" />
  <path
     style="fill:#000000"
     d="m 199.12288,176.32684 c -9.87697,-0.88652 -37.2666,-7.56467 -51,-12.43484 -40.12831,-14.23039 -44.46005,-15.56134 -46.74849,-14.36372 -1.23667,0.64719 -2.515991,0.90921 -2.842932,0.58227 -0.32694,-0.32694 0.743784,-1.28646 2.379372,-2.13226 3.65835,-1.8918 8.21205,-7.15706 8.21205,-9.49525 0,-1.93685 2.91816,-6.29299 2.9682,-4.43082 0.0175,0.65097 1.0443,1.37658 2.2818,1.61246 1.65135,0.31478 1.53992,0.38171 -0.41881,0.25154 -2.0976,-0.1394 -2.76798,0.34142 -3.13216,2.24649 -0.44274,2.31604 -0.27954,2.39873 3.66881,1.85905 2.27269,-0.31065 3.41679,-0.24718 2.54244,0.14103 -1.13475,0.50384 -1.56404,1.99319 -1.5,5.20401 l 0.0897,4.49815 11.5,4.10142 c 6.325,2.25578 13.15094,4.83487 15.16875,5.73132 6.19188,2.75083 24.31222,7.6795 24.64586,6.70357 0.17303,-0.50614 0.95795,-0.67339 1.74425,-0.37166 0.78631,0.30174 1.22266,0.88354 0.96966,1.29289 -0.25299,0.40935 5.48709,2.14961 12.75575,3.86723 16.81346,3.97312 31.73325,4.99232 40.21573,2.74721 7.02068,-1.8582 18.20228,-9.17395 22.84707,-14.94809 1.73411,-2.15575 4.3144,-5.3147 5.73397,-7.01988 1.41957,-1.70517 4.41675,-6.47532 6.6604,-10.60032 6.66111,-12.24658 6.64743,-23.40547 -0.0449,-36.61215 C 253.55216,96.335465 239.10003,83.433718 227.10554,77.33751 209.14895,68.211064 150.42193,46.47787 139.4399,44.894959 l -4.18299,-0.60292 -0.52989,4.288302 c -0.29144,2.358567 -0.7894,5.863303 -1.10658,7.788303 -1.56978,9.52742 -1.6027,13 -0.12322,13 0.80415,0 2.28639,0.294422 3.29387,0.654271 1.33059,0.475254 1.05692,-0.178765 -1.00021,-2.390306 -1.81958,-1.956167 -2.43936,-3.287239 -1.73369,-3.723369 0.60407,-0.373336 0.77959,-1.210198 0.39004,-1.859694 -0.40349,-0.672738 0.0198,-0.590314 0.98369,0.191543 0.93058,0.754844 1.69364,0.979844 1.6957,0.5 0.002,-0.479845 0.90205,0.600931 2,2.401725 2.86408,4.69753 2.46132,5.194368 -0.9631,1.188056 -1.62765,-1.904224 -2.97765,-2.983917 -3,-2.399317 -0.0577,1.509308 5.46005,6.603065 6.27256,5.790556 0.371,-0.370995 1.4648,0.01914 2.43067,0.866958 0.96587,0.847822 7.46026,3.396383 14.43198,5.663468 6.97172,2.267084 13.44022,4.415287 14.37445,4.773783 1.56999,0.602463 1.56535,0.448459 -0.0613,-2.03414 -0.96795,-1.477273 -1.56672,-2.879142 -1.33059,-3.115265 0.23612,-0.236123 1.20782,1.015421 2.15933,2.781208 1.11486,2.068913 3.2365,3.832794 5.96666,4.960523 5.48256,2.264651 6.00825,2.208675 4.69563,-0.5 -1.04704,-2.160626 -1.02858,-2.172895 0.46481,-0.30887 0.85535,1.067621 1.55517,2.221775 1.55517,2.564787 0,0.343012 1.58534,1.379655 3.52298,2.303651 l 3.52298,1.679992 -1.64103,-3.24478 c -0.90257,-1.784629 -2.75836,-4.736836 -4.12397,-6.560459 -1.36561,-1.823624 -2.27934,-3.519275 -2.0305,-3.768114 0.59534,-0.595339 5.13509,6.085697 7.36154,10.833793 0.96713,2.0625 2.09337,3.75 2.50274,3.75 0.40937,0 6.51353,2.451435 13.56479,5.447634 7.05126,2.996196 12.97357,5.011912 13.16068,4.479362 0.18712,-0.532549 -0.59316,-2.758976 -1.73395,-4.947631 -1.1408,-2.188651 -1.66861,-3.979365 -1.17293,-3.979365 0.49569,0 1.67799,2.1375 2.62735,4.75 1.73798,4.782666 5.57725,9.336176 6.22735,7.385876 0.19097,-0.57292 -0.55791,-3.08787 -1.66418,-5.588766 -1.10627,-2.500912 -1.63993,-4.54711 -1.18591,-4.54711 0.45402,0 1.89122,3.004897 3.19377,6.677546 1.30255,3.67265 2.90794,6.85254 3.56752,7.06641 1.31219,0.42549 0.49914,-3.45756 -1.64463,-7.854569 -1.12468,-2.306802 -1.10959,-2.320261 0.43652,-0.389387 0.88081,1.099997 2.07708,3.884786 2.65838,6.188406 1.07884,4.27535 4.85049,9.08786 4.85049,6.18908 0,-0.78786 -0.74256,-2.49262 -1.65012,-3.78836 -1.18799,-1.69609 -1.27551,-2.23101 -0.3125,-1.91 1.28371,0.4279 1.84258,1.72802 3.57682,8.32087 0.74472,2.8311 0.82525,2.7185 1.43037,-2 l 0.64122,-5 0.15711,5.66821 c 0.0864,3.11752 0.48225,6.49252 0.87965,7.5 0.59948,1.51976 0.83484,1.32076 1.38169,-1.16821 0.61948,-2.81955 0.66717,-2.7594 0.79276,1 0.18237,5.45902 2.00637,8.2955 2.25068,3.5 0.13623,-2.67387 0.3374,-2.20179 0.85232,2 0.6014,4.90751 0.69157,5.07206 0.837,1.52749 0.15214,-3.70788 0.25637,-3.8392 1.56463,-1.9714 1.18628,1.69366 1.19665,2.7649 0.0675,6.97251 -0.73377,2.73427 -1.3645,4.60377 -1.40163,4.15445 -0.0371,-0.44932 -1.97999,0.72869 -4.31749,2.61781 -6.72675,5.43641 -8.53729,6.03816 -18.75,6.23173 -12.97665,0.24596 -22.7932,-0.96238 -40.79673,-5.02176 -26.91794,-6.06937 -52.28336,-15.74477 -59.07045,-22.53186 -2.65391,-2.65391 -2.92312,-3.40032 -2.0524,-5.69049 0.5512,-1.44976 0.73739,-4.02025 0.41376,-5.7122 -0.55748,-2.91454 -0.50708,-2.97422 0.9587,-1.13515 1.74394,2.18808 1.9483,4.37645 0.60669,6.49673 -5.59559,8.84326 56.28239,30.21973 91.94043,31.7619 14.90472,0.64461 19.18021,-0.29169 24.91119,-5.45538 l 4.15574,-3.74438 -4.28347,-8.5 c -5.9612,-11.82923 -11.38297,-17.00684 -24.08096,-22.99646 -23.2617,-10.9725 -68.00404,-27.513707 -80.62845,-29.808267 l -5.07406,-0.922239 -0.15515,3.113485 c -0.55866,11.210754 -0.76606,12.136858 -3.16069,14.113485 -1.33262,1.1 -2.67119,2.675 -2.97461,3.5 -0.30519,0.829833 -0.58693,0.229532 -0.6306,-1.34362 -0.0555,-1.997292 0.48878,-2.992084 1.8286,-3.342454 1.04915,-0.274359 2.168,-1.46973 2.48634,-2.65638 0.85608,-3.191157 0.72775,-4.850759 -0.32479,-4.200251 -0.512,0.316431 -1.18441,0.165142 -1.49426,-0.336198 -0.30984,-0.50134 0.10906,-1.169557 0.9309,-1.484927 0.82184,-0.31537 1.49426,-1.782268 1.49426,-3.259773 0,-2.62303 -0.0472,-2.643695 -2,-0.876397 -1.40738,1.273658 -2,3.079967 -2,6.095971 0,2.357297 -0.36858,4.513787 -0.81906,4.792199 -0.45048,0.278413 -0.62852,-0.79197 -0.39565,-2.378629 0.23287,-1.586659 -0.27555,-4.285916 -1.12982,-5.99835 -1.49611,-2.999016 -1.47892,-3.089932 0.46732,-2.47222 3.43985,1.091766 5.68566,-1.931781 5.33194,-7.178426 -0.16855,-2.500082 -0.57035,-4.8095 -0.89289,-5.13204 -0.32254,-0.32254 -1.91268,0.394098 -3.53365,1.592529 -1.62096,1.198432 -3.27785,2.178966 -3.68198,2.178966 -0.40412,0 0.79008,-1.125 2.65379,-2.5 1.86371,-1.375 3.92735,-2.5 4.58587,-2.5 1.58297,0 2.66414,-4.168603 2.9321,-11.305109 0.1966,-5.236016 -0.0707,-6.093805 -2.72692,-8.75 -2.65631,-2.656301 -2.74623,-2.944891 -0.91766,-2.944891 1.11497,0 2.44902,0.753691 2.96453,1.674868 0.51552,0.921177 1.55038,1.765378 2.29969,1.876001 11.64604,1.719335 42.47462,12.169931 75.99683,25.762207 22.24289,9.018843 26.73844,11.722952 39.06007,23.494971 12.34177,11.791249 16.4577,21.256629 15.55249,35.765969 -0.4394,7.04297 -1.02169,9.0922 -4.19698,14.77014 -2.02773,3.62594 -5.11852,8.16429 -6.86841,10.08523 -1.74988,1.92094 -4.98161,5.59468 -7.18161,8.16387 -6.67794,7.79859 -14.69164,13.31015 -22.49803,15.47341 -7.29589,2.0218 -10.95551,2.15229 -25.00197,0.89153 z m -85,-27.92682 c 0,-0.53273 -0.675,-0.70959 -1.5,-0.39301 -0.825,0.31659 -1.5,0.75246 -1.5,0.96862 0,0.21615 0.675,0.39301 1.5,0.39301 0.825,0 1.5,-0.43588 1.5,-0.96862 z m -0.44615,-2.11851 c 0.36954,-0.59793 0.0661,-1.61043 -0.67432,-2.25 -0.74041,-0.63958 -1.00208,-0.73626 -0.5815,-0.21484 0.42058,0.52142 -0.26192,1.51797 -1.51667,2.21457 l -2.28136,1.26653 2.19098,0.0354 c 1.20504,0.0195 2.49333,-0.45377 2.86287,-1.05169 z m -3.16382,-2.33886 c -0.37628,-0.98056 0.33637,-1.5585 2.28138,-1.85017 l 2.82859,-0.42418 -3.00945,-0.14983 c -2.0378,-0.10145 -3.41273,0.49591 -4.25848,1.85017 -1.09087,1.74677 -0.99869,2 0.72807,2 1.30097,0 1.78996,-0.48766 1.42989,-1.42599 z m 51.16761,20.51925 c -0.30822,-0.49871 0.34022,-0.67122 1.44098,-0.38337 2.33499,0.61061 2.63015,1.29011 0.5604,1.29011 -0.79254,0 -1.69316,-0.40803 -2.00138,-0.90674 z m -85.557638,-3.24096 c -2.17462,-1.8103 -3.45826,-2.0198 -9.86264,-1.60969 -6.90721,0.44231 -7.16301,0.38753 -4.13519,-0.88557 4.63464,-1.94872 9.97612,-1.66762 13.91254,0.73217 4.129405,2.51743 5.966366,1.90514 12.58348,-4.19431 2.475996,-2.28229 4.50181,-3.73058 4.50181,-3.21843 0,1.82117 -11.299582,11.35247 -13.384859,11.29026 -0.613327,-0.0183 -2.240141,-0.96979 -3.615141,-2.11443 z m 77.872438,0.3977 c -1.19261,-1.5207 -1.1759,-1.60381 0.12756,-0.63427 0.825,0.61365 2.175,1.36562 3,1.67105 1.25475,0.46453 1.23389,0.56823 -0.12756,0.63427 -0.89515,0.0434 -2.24515,-0.70855 -3,-1.67105 z M 44.877132,160.29092 c -0.96608,-0.56274 -2.03076,-2.79929 -2.38392,-5.00782 -0.46411,-2.9024 -1.35171,-4.3787 -3.25425,-5.41265 -2.01942,-1.09748 -2.20196,-1.43087 -0.80034,-1.46177 3.03634,-0.0669 5.68349,1.90526 5.69791,4.24514 0.0311,5.03815 1.10508,6.71225 4.35298,6.78511 1.72335,0.0387 4.03337,0.45702 5.13337,0.92971 1.5184,0.65248 0.91641,0.86903 -2.5,0.89931 -2.475,0.0219 -5.28559,-0.41773 -6.24575,-0.97703 z m 103.590828,-0.46541 c -0.32569,-0.84872 -0.31156,-1.82372 0.0314,-2.16666 0.34295,-0.34295 0.62354,0.089 0.62354,0.95979 0,0.87083 0.5625,1.81031 1.25,2.08772 0.97906,0.39506 0.97226,0.5215 -0.0314,0.58333 -0.70477,0.0434 -1.54786,-0.61546 -1.87354,-1.46418 z m -6.67871,-2.70687 c -0.48391,-1.92063 -0.39119,-2.01757 0.63337,-0.66223 0.66014,0.87327 1.87526,1.85025 2.70026,2.17105 1.0493,0.40803 0.85899,0.60701 -0.63337,0.66223 -1.41447,0.0523 -2.3244,-0.67925 -2.70026,-2.17105 z m -3.9997,-0.41667 c -0.36667,-0.36666 -0.65299,-1.37916 -0.63626,-2.25 0.025,-1.3003 0.22011,-1.2571 1.09166,0.24167 1.07678,1.85169 0.76461,3.22835 -0.4554,2.00833 z m -4.67995,-4.36539 c -1.74324,-4.20854 -0.84661,-4.48615 1.13681,-0.35198 0.89295,1.86122 1.28504,3.38404 0.87132,3.38404 -0.41371,0 -1.31737,-1.36443 -2.00813,-3.03206 z m -10.01923,-3.52054 c -1.20759,-1.95393 -1.99933,-3.74889 -1.75941,-3.98881 0.23992,-0.23992 1.44504,1.35875 2.67805,3.5526 2.77886,4.94431 2.07429,5.27887 -0.91864,0.43621 z m 5.06041,2.08622 c -0.66934,-0.80651 -1.06194,-1.9168 -0.87244,-2.46731 0.1895,-0.55051 0.8647,0.10936 1.50045,1.46638 1.31782,2.81288 1.12751,3.1162 -0.62801,1.00093 z m -9.97773,-2.43987 c -0.57759,-1.07925 -1.02165,-2.77935 -0.98678,-3.77801 0.0475,-1.36085 0.31051,-1.19649 1.04981,0.65603 0.54254,1.35947 1.46205,2.76572 2.04338,3.125 0.7423,0.45877 0.74241,0.84763 3.6e-4,1.30624 -0.58113,0.35915 -1.52917,-0.23001 -2.10677,-1.30926 z m -90.154578,-1.42497 c -3.99196,-1.79147 -5.89559,-3.71164 -5.89559,-5.94683 0,-1.11824 -1.125,-3.50812 -2.5,-5.31084 -3.01196,-3.94888 -3.14932,-4.82898 -0.53535,-3.43003 1.08056,0.5783 2.76806,3.33881 3.75,6.13446 1.42568,4.059 2.54081,5.47002 5.53535,7.00406 5.34085,2.73601 5.05681,3.97757 -0.35441,1.54918 z m 29.60441,-10.07492 c -3.85,-1.25396 -8.55421,-3.08454 -10.45379,-4.06796 -4.30438,-2.22838 -16.88059,-14.96535 -18.21078,-18.44358 -1.69812,-4.44028 -2.21043,-19.493653 -0.89384,-26.263811 1.57288,-8.088038 6.25283,-17.946255 10.56814,-22.261564 1.85633,-1.856334 7.11355,-5.253118 11.68271,-7.548408 7.88679,-3.961881 8.68853,-4.15642 15.82927,-3.840894 6.05033,0.267345 8.821269,0.972195 14.165003,3.603178 8.765585,4.315729 15.735678,10.730184 19.659777,18.092552 2.833678,5.316533 3.261458,7.204849 3.812018,16.827394 0.49688,8.684273 0.27614,12.028593 -1.11044,16.824033 -3.659634,12.6567 -12.130643,22.38125 -23.880973,27.41487 -6.170045,2.64314 -12.320545,2.54556 -21.167095,-0.33581 z m 23.237538,-2.62057 c 7.54072,-3.76814 13.488987,-10.12058 17.597941,-18.79368 3.097749,-6.53867 3.159699,-6.95185 2.936139,-19.581844 C 101.1423,81.718895 100.29205,79.003735 93.458295,70.623179 86.012389,61.491917 73.267352,55.650548 63.107182,56.712497 c -6.37295,0.666105 -15.86659,4.846011 -21.9843,9.67936 -4.32432,3.416462 -12.79379,19.821476 -9.03348,17.497478 0.64944,-0.401373 0.24765,1.099347 -0.89287,3.334932 -2.46834,4.83835 -2.72056,7.308787 -0.46816,4.585507 1.44173,-1.743139 1.43999,-1.661568 -0.0171,0.799728 -1.91508,3.234999 -1.62783,17.893538 0.42863,21.873248 1.89793,3.67294 5.16137,6.89365 6.28281,6.20056 0.55503,-0.34303 0.70728,-0.13525 0.33833,0.46172 -0.36895,0.59698 -0.14836,1.40831 0.4902,1.80296 0.68972,0.42627 2.82752,-1.09305 5.26631,-3.74272 2.25791,-2.45315 3.44326,-3.53246 2.63411,-2.39845 -0.80915,1.134 -2.57793,3.29629 -3.93064,4.80509 l -2.45946,2.74326 2.43064,2.60572 c 2.34849,2.51765 10.83282,7.40775 12.85246,7.40775 0.54356,0 3.70853,-3.57345 7.03327,-7.941 3.32473,-4.36755 6.52357,-8.23679 7.10853,-8.59832 0.58496,-0.36152 -1.94138,3.23561 -5.61408,7.99362 -3.6727,4.75801 -6.51382,8.79065 -6.31359,8.96141 1.42579,1.21598 7.26182,2.43907 11.95433,2.50534 4.32734,0.0611 6.958648,-0.60483 11.647258,-2.94776 z m -10.743648,-3.26845 c 1.87551,-2.63734 4.087762,-5.33734 4.916123,-6 0.828361,-0.66266 -0.0284,0.95298 -1.903903,3.59032 -1.87551,2.63734 -4.08776,5.33734 -4.91612,6 -0.82836,0.66266 0.0284,-0.95298 1.9039,-3.59032 z m -1.03601,-2.64282 c 2.21783,-3.26589 4.49075,-6.22125 5.050936,-6.56747 0.560188,-0.34621 -1.047416,2.32588 -3.572466,5.93798 -2.52504,3.61211 -4.79796,6.56747 -5.05093,6.56747 -0.25297,0 1.35464,-2.67209 3.57246,-5.93798 z m 8.990797,1.49027 c 2.4008,-2.44623 4.856994,-4.35873 5.458207,-4.25 0.601214,0.10874 0.961852,-0.70229 0.801418,-1.80229 -0.21088,-1.44588 -0.04432,-1.63477 0.601184,-0.68177 0.668934,0.98759 2.077061,-0.0157 5.614203,-4 2.760109,-3.10907 3.980565,-4.07205 2.938064,-2.31823 l -1.783257,3 2.443519,-2 c 1.419448,-1.16181 1.930506,-1.33279 1.219428,-0.40799 -0.67325,0.8756 -0.927995,1.8881 -0.5661,2.25 0.361895,0.36189 0.106433,0.65799 -0.567693,0.65799 -0.674126,0 -1.01403,0.34246 -0.755343,0.76103 0.775139,1.2542 -2.128778,4.49515 -3.350915,3.73983 -0.791366,-0.48909 -0.612741,-1.27283 0.594001,-2.60627 0.949123,-1.04877 1.502027,-2.1305 1.228676,-2.40385 -0.273352,-0.27336 -2.172765,1.31417 -4.220919,3.52782 -2.048153,2.21366 -4.107234,3.78793 -4.575736,3.49838 -0.468502,-0.28955 -2.279143,1.27569 -4.023647,3.4783 -1.744504,2.20262 -3.677706,4.00476 -4.296004,4.00476 -0.618299,0 0.840113,-2.00147 3.240914,-4.44771 z m 14.178878,-7.30229 c 1.243871,-1.58606 1.208501,-1.62143 -0.377555,-0.37756 -0.9625,0.75485 -1.75,1.54235 -1.75,1.75 0,0.82304 0.821186,0.29331 2.127555,-1.37244 z m -26.695365,5.70437 c 5.68427,-7.94454 7.52583,-9.48615 2.70737,-2.26639 -2.27142,3.40339 -4.68787,6.53286 -5.3699,6.95438 -0.68203,0.42151 0.51611,-1.68808 2.66253,-4.68799 z m 11.636904,-1.95437 c 2.800253,-3.85 5.591274,-7 6.202268,-7 0.610993,0 0.410243,0.5625 -0.446112,1.25 -0.856354,0.6875 -3.431558,3.8375 -5.722673,7 -2.291116,3.1625 -4.381487,5.75 -4.645257,5.75 -0.26378,0 1.81152,-3.15 4.611774,-7 z m -21.362664,3.15167 c 0.98646,-1.84159 3.27511,-4.99159 5.08588,-7 l 3.29231,-3.65167 -3.29231,4.52545 c -1.81077,2.489 -4.09942,5.639 -5.08588,7 -1.72475,2.37961 -1.72475,2.34609 0,-0.87378 z m -6.70146,1.09833 c 0.003,-0.4125 1.13653,-2.1 2.51954,-3.75 l 2.51459,-3 -2.11833,3.75 c -2.05925,3.64542 -2.92598,4.53719 -2.9158,3 z m 0.13484,-7.79516 c 1.79525,-2.49984 3.93588,-5.08734 4.75696,-5.75 0.82107,-0.66266 -0.44887,1.38266 -2.8221,4.54516 -5.10649,6.80477 -6.64397,7.76216 -1.93486,1.20484 z m -2.29924,-2.24776 c 2.38732,-2.86055 4.86232,-5.51919 5.5,-5.90808 0.63769,-0.38889 -0.79383,1.63337 -3.18114,4.49392 -2.38732,2.86055 -4.86232,5.51919 -5.5,5.90808 -0.63769,0.38889 0.79383,-1.63337 3.18114,-4.49392 z m 7.15943,2.41536 c 0,-0.20765 0.7875,-0.99515 1.75,-1.75 1.58606,-1.24387 1.62143,-1.2085 0.37755,0.37756 -1.30636,1.66575 -2.12755,2.19548 -2.12755,1.37244 z m 24,-2.12244 c 1.291745,-1.375 2.573628,-2.5 2.848628,-2.5 0.275,0 -0.556883,1.125 -1.848628,2.5 -1.291745,1.375 -2.573628,2.5 -2.848628,2.5 -0.275,0 0.556883,-1.125 1.848628,-2.5 z m -36.57971,-5.75 c 2.10135,-2.6125 4.02207,-4.75 4.26827,-4.75 0.7918,0 -3.39669,5.43413 -5.78081,7.5 -1.26945,1.1 -0.58881,-0.1375 1.51254,-2.75 z m -6.42029,2.75761 c 0,-0.54483 3.00347,-4.21516 7.30839,-8.93109 1.54461,-1.69209 0.72493,-0.26402 -1.82153,3.17348 -4.27563,5.77174 -5.48686,7.04274 -5.48686,5.75761 z m -0.52146,-4.90828 c 0.71556,-2.36806 8.75159,-13.530519 9.76939,-13.570179 0.41136,-0.016 -1.16364,2.612129 -3.5,5.840369 -2.33636,3.22823 -4.83198,6.71573 -5.54582,7.75 -1.26649,1.83499 -1.284,1.8345 -0.72357,-0.0202 z m -0.8104,-5.61468 c 0.97966,-1.65844 2.82729,-4.24594 4.10583,-5.75 1.27854,-1.50406 0.66372,-0.14715 -1.36626,3.01535 -3.84663,5.99265 -5.83883,7.98127 -2.73957,2.73465 z m -2.15686,-3.36153 c 0.94531,-1.44271 1.90782,-2.62312 2.13891,-2.62312 0.72338,0 -1.6049,3.85397 -2.75929,4.56743 -0.6041,0.37335 -0.32492,-0.50159 0.62038,-1.94431 z m -1.51128,-3.88559 c 0,-0.982159 6.05747,-10.737526 6.66733,-10.737526 0.27269,0 -0.52167,1.6875 -1.76523,3.75 -3.38197,5.60914 -4.9021,7.775956 -4.9021,6.987526 z m 10,-2.115086 c 0,-0.20765 0.7875,-0.995151 1.75,-1.749995 1.58606,-1.243871 1.62143,-1.208501 0.37755,0.377555 -1.30636,1.66575 -2.12755,2.19548 -2.12755,1.37244 z m -0.91033,-4.87244 c 1.78715,-2.6125 3.41392,-4.75 3.61503,-4.75 0.67899,0 -1.58881,3.480581 -4.23511,6.5 -1.99007,2.270648 -1.83931,1.845193 0.62008,-1.75 z m -5.08967,-6.75 c 1.1749,-1.65 2.36119,-3 2.63619,-3 0.275,0 -0.46129,1.35 -1.63619,3 -1.1749,1.65 -2.36119,3 -2.63619,3 -0.275,0 0.46129,-1.35 1.63619,-3 z m 4.10039,0.295478 c 0.72815,-1.212486 1.53915,-1.989272 1.80223,-1.72619 0.26308,0.263082 -0.33267,1.255117 -1.3239,2.204522 -1.72194,1.649287 -1.74325,1.627977 -0.47833,-0.478332 z m 76.399608,44.704518 c -0.731,-1.18278 0.24752,-1.18278 3,0 1.92824,0.82859 1.92138,0.86195 -0.19098,0.92971 -1.20504,0.0387 -2.4691,-0.37971 -2.80902,-0.92971 z m -2.00575,-1.5 c 0.43373,-1.1 0.98996,-3.16199 1.23605,-4.5822 0.4872,-2.81162 6.98455,-10.53628 8.00443,-9.51641 0.34571,0.34571 -0.74774,2.08433 -2.42989,3.86359 -1.68216,1.77926 -3.27201,4.44908 -3.53302,5.93294 -0.40337,2.29315 -0.0843,2.75827 2.12681,3.10017 2.39498,0.37033 2.35938,0.41413 -0.44863,0.55208 -1.6775,0.0824 -3.65623,0.71233 -4.39718,1.39983 -1.10839,1.02844 -1.2074,0.8955 -0.55857,-0.75 z m -96.827578,-1.16667 c -0.36667,-0.36666 -0.66667,-1.13166 -0.66667,-1.7 0,-0.6266 0.46577,-0.56756 1.18333,0.15 0.65084,0.65084 0.95084,1.41584 0.66667,1.7 -0.28417,0.28417 -0.81667,0.21667 -1.18333,-0.15 z m 106.145828,-0.0164 c 0.72187,-0.28887 1.58437,-0.25335 1.91667,0.0789 0.33229,0.33229 -0.25834,0.56864 -1.3125,0.52522 -1.16495,-0.048 -1.4019,-0.28494 -0.60417,-0.60416 z m -3.8125,-3.25237 c 0,-0.79226 5.17122,-2.2113 5.80105,-1.59188 0.16557,0.16285 -1.07193,0.7747 -2.75,1.35968 -1.67808,0.58498 -3.05105,0.68947 -3.05105,0.2322 z M 9.7778715,121.5399 c -0.95571,-1.05604 -1.64852,-3.48559 -1.63968,-5.75 0.0113,-2.90005 0.26777,-3.53062 0.98469,-2.42126 0.53316,0.825 0.9762605,2.371 0.9846905,3.43555 0.008,1.06455 0.99375,2.97705 2.18962,4.25 1.67502,1.78297 1.82543,2.31445 0.65499,2.31445 -0.83563,0 -2.26407,-0.82293 -3.1743105,-1.82874 z m -4.81051,-21.42126 c -0.23882,-3.455005 0.21659,-7.173558 0.9734,-7.948077 0.37517,-0.383944 0.70592,1.753556 0.73502,4.75 0.0505,5.203977 -1.38414,7.889597 -1.70842,3.198077 z M 213.84371,92.959628 c -1.49646,-2.365384 -2.71554,-4.703513 -2.70907,-5.195841 0.006,-0.492329 1.4183,1.255533 3.13739,3.884137 1.71909,2.628604 2.93817,4.966733 2.70906,5.195842 -0.22911,0.229108 -1.64093,-1.518754 -3.13738,-3.884138 z m -6.20955,-2.214108 c -0.9453,-1.442718 -1.22448,-2.317655 -0.62038,-1.944306 1.15439,0.713455 3.48267,4.56743 2.75929,4.56743 -0.23109,0 -1.1936,-1.180406 -2.13891,-2.623124 z m -10.73855,-6.649603 c -2.03505,-3.923288 -3.55381,-7.279531 -3.37502,-7.458318 0.17879,-0.178787 2.00436,2.870638 4.05684,6.7765 2.05247,3.905861 3.57122,7.262104 3.37501,7.458317 -0.19621,0.196213 -2.02179,-2.853211 -4.05683,-6.776499 z M 9.7895515,88.701977 c -1.53712,-1.537117 -0.47947,-5.919289 2.0711905,-8.581606 2.70339,-2.821732 2.71595,-2.895883 0.9978,-5.889586 -1.23517,-2.152161 -1.45808,-3.51502 -0.76827,-4.697008 0.88648,-1.518956 0.97446,-1.507146 1.0022,0.134527 0.0167,0.989813 0.70759,3.109175 1.53525,4.709694 1.44441,2.793196 1.37988,3.05235 -1.60734,6.454606 -2.37836,2.708806 -2.96448,4.133034 -2.48579,6.040306 0.63832,2.543267 0.44464,3.018752 -0.7450405,1.829067 z M 203.61733,85.362513 c -0.99854,-1.103372 -1.63078,-2.184298 -1.40499,-2.402059 0.2258,-0.217761 1.21905,0.684998 2.20722,2.006131 2.18239,2.917718 1.69683,3.157357 -0.80223,0.395928 z m -23.49754,-8.243869 c -1.47225,-2.011104 -1.71373,-2.709553 -0.63346,-1.832244 1.63978,1.3317 4.1192,5.082244 3.35979,5.082244 -0.19092,0 -1.41777,-1.4625 -2.72633,-3.25 z m -5.43262,-1.456872 c -0.54268,-1.425198 -0.42782,-1.540062 0.5598,-0.559795 0.68342,0.678334 0.99067,1.485241 0.68278,1.793128 -0.30789,0.307888 -0.86705,-0.247112 -1.24258,-1.233333 z M 124.1543,72.618644 c 0.0173,-0.4125 1.25479,-1.613864 2.75,-2.669698 l 2.71858,-1.919698 -2.42431,2.669698 c -2.54755,2.8054 -3.09586,3.151166 -3.04427,1.919698 z m 47.46858,-2.25 c -0.85325,-1.65 -1.32636,-3 -1.05136,-3 0.275,0 1.19811,1.35 2.05136,3 0.85325,1.65 1.32636,3 1.05136,3 -0.275,0 -1.19811,-1.35 -2.05136,-3 z m -24.78441,-3.684421 c -1.42237,-3.143816 -2.2957,-6.185954 -1.94073,-6.760307 0.35497,-0.574354 0.92556,0.303247 1.26798,1.950224 0.34241,1.646977 1.40604,4.498823 2.3636,6.337434 0.95757,1.838612 1.55074,3.533223 1.31816,3.765804 -0.23258,0.23258 -1.58663,-2.14934 -3.00901,-5.293155 z m -25.21559,2.684421 c -0.33992,-0.55 -1.66411,-1 -2.94265,-1 -2.34997,0 -9.55735,-6.886235 -9.55735,-9.13149 0,-0.61915 1.6875,0.744843 3.75,3.031096 l 3.75,4.156824 5.87721,-5.067675 c 3.23246,-2.78722 6.15371,-4.791166 6.49167,-4.453211 0.33795,0.337954 -0.23092,1.087561 -1.26417,1.665794 -1.03324,0.578233 -3.66562,2.665773 -5.84972,4.638979 l -3.9711,3.587647 2.60806,0.869352 c 1.43443,0.478143 2.60805,1.281851 2.60805,1.786017 0,1.207006 -0.72751,1.166589 -1.5,-0.08333 z M 16.610232,65.443508 c 0.39712,-2.350529 0.1993,-4.791846 -0.49312,-6.085647 -0.63595,-1.18828 -0.90072,-2.416062 -0.58838,-2.728404 0.31234,-0.312341 1.19689,0.9637 1.96567,2.835647 1.46509,3.567448 1.09855,9.90354 -0.57292,9.90354 -0.57966,0 -0.70575,-1.590084 -0.31125,-3.925136 z M 140.69431,63.797215 c -0.36782,-1.465513 -0.47591,-2.857426 -0.24019,-3.09314 0.23571,-0.235714 0.72951,0.770485 1.09733,2.235998 0.36782,1.465513 0.47591,2.857426 0.24019,3.09314 -0.23571,0.235714 -0.72951,-0.770485 -1.09733,-2.235998 z m 10.92302,0.565298 c -0.99854,-1.103372 -1.63078,-2.184298 -1.40499,-2.402059 0.2258,-0.217761 1.21905,0.684998 2.20722,2.006131 2.18239,2.917718 1.69683,3.157357 -0.80223,0.395928 z m -34.17197,-2.706628 c 0.37598,-0.608352 3.04473,-3.035133 5.93056,-5.392847 4.40905,-3.60218 4.76787,-3.761747 2.24696,-0.999198 -3.14213,3.443314 -9.3579,8.301927 -8.17752,6.392045 z m 19.65746,-2.811407 c -0.69572,-0.838291 -1.07128,-1.717826 -0.83459,-1.954522 0.2367,-0.236695 0.97964,0.44918 1.65098,1.524166 1.45181,2.324723 0.96763,2.57996 -0.81639,0.430356 z m -23.97994,-0.762214 c 0,-0.559363 13.51372,-11.861978 15.53488,-12.993078 3.00415,-1.681209 1.28306,0.10366 -4.69503,4.868995 -9.97668,7.95275 -10.83985,8.599666 -10.83985,8.124083 z m -6.7931,-4.732224 c -1.2612,-1.029477 -4.2842,-2.17036 -6.717768,-2.535298 -2.433579,-0.364937 -4.953311,-1.300476 -5.599409,-2.078976 -1.775981,-2.139927 -0.508094,-2.602449 2.724836,-0.994014 1.586994,0.789556 4.765471,1.857421 7.063291,2.373034 3.84255,0.862241 4.44446,0.704034 7.5,-1.971294 7.14648,-6.257234 11.56019,-9.774848 12.26494,-9.774848 0.40524,0 -1.4411,1.742935 -4.10299,3.87319 -6.08007,4.865754 -10.04358,9.135551 -10.49256,11.303396 -0.31694,1.530293 -0.54733,1.513262 -2.64034,-0.19519 z m 35.07124,0.768604 c -1.49918,-1.938442 -2.44224,-3.75 -1.95217,-3.75 0.24421,0 1.18114,1.125 2.08207,2.5 1.68584,2.572906 1.59195,3.476346 -0.1299,1.25 z M 22.674742,53.45256 c -0.95128,-1.539204 1.1467,-5.701645 4.00832,-7.952593 4.25903,-3.350154 4.96234,-2.489818 1.01102,1.236754 -3.75874,3.544953 -4.89457,7.076978 -1.90716,5.930599 1.11889,-0.429357 1.42717,-0.255269 0.94099,0.531385 -0.86118,1.393415 -3.25617,1.543416 -4.05317,0.253855 z m 94.616488,-4.662221 c 6.23005,-5.349766 8.83165,-6.957234 8.83165,-5.456879 0,0.569351 -0.51398,1.035184 -1.14219,1.035184 -0.6282,0 -3.51247,2.025 -6.40949,4.5 -2.89702,2.475 -5.56978,4.5 -5.93947,4.5 -0.36969,0 1.72709,-2.060237 4.6595,-4.578305 z m -7.63076,-4.496866 c 2.72933,-2.791344 5.8606,-5.566414 6.95838,-6.166822 1.09778,-0.600409 -0.92034,1.683418 -4.48473,5.07517 -7.83356,7.454168 -9.34851,8.122731 -2.47365,1.091652 z m -10.537588,0.02485 c 5.786368,-4.642626 8.168348,-5.905567 3.999998,-2.120826 -2.475,2.247227 -4.949998,4.095049 -5.499998,4.10627 -0.55,0.01122 0.125,-0.882229 1.5,-1.985444 z m -64,-0.616313 c 0,-1.584821 3.77924,-5.234583 5.5,-5.311574 0.90366,-0.04043 2.40166,-2.891752 5.26516,-10.021796 0.55222,-1.375 2.71844,-3.4 4.81383,-4.5 2.09539,-1.1 4.85895,-3.044586 6.14125,-4.321303 1.92516,-1.916775 3.24186,-2.280894 7.55561,-2.089421 3.73849,0.165939 6.42145,-0.38255 9.434312,-1.928697 2.777036,-1.425125 5.840608,-2.115098 9,-2.026966 l 4.789838,0.133613 -4.5,0.668722 c -5.362004,0.79682 -10.39625,3.309554 -13.6374,6.806805 -2.29091,2.471938 -2.3626,2.484174 -2.3626,0.40327 0,-3.331533 -6.63519,-2.977769 -11.32818,0.603977 -1.98176,1.5125 -4.74364,3.558508 -6.13751,4.546685 -4.00668,2.84051 -2.88351,5.926904 1.22328,3.361488 2.46233,-1.538164 -0.95519,4.241281 -3.49014,5.902243 -1.41746,0.928752 -2.19514,2.185651 -1.87251,3.026388 0.4212,1.097652 -0.0276,1.292521 -1.89641,0.823471 -1.8754,-0.470695 -3.15598,0.09333 -5.47336,2.410711 -2.03391,2.03391 -3.02517,2.529473 -3.02517,1.512384 z M 86.965513,39.783289 C 84.291876,37.880968 81.653089,37.064417 76.977393,36.692545 69.846972,36.125442 64.651042,34.1874 63.713962,31.745383 c -0.79361,-2.068105 -6.93036,-1.284665 -9.72124,1.241049 -1.03516,0.936804 -2.21684,1.365702 -2.62597,0.953108 -1.12173,-1.131233 4.36554,-5.102358 7.39708,-5.353256 1.46125,-0.120937 3.27513,-0.733031 4.03083,-1.360208 1.08992,-0.904554 1.24377,-0.800944 0.74412,0.50112 -0.91602,2.387116 0.044,2.039191 4.2993,-1.558114 l 3.7848,-3.199559 -3.5,3.773309 -3.5,3.773308 2.36078,1.92625 c 1.69109,1.379818 3.91441,1.92625 7.837519,1.92625 4.398108,0 6.706702,0.687839 11.721933,3.492516 l 6.245202,3.492516 2.385538,-2.539289 C 98.051726,35.751028 107.50871,28.36864 108.55505,28.36864 c 0.41108,0 -1.43048,1.753154 -4.09237,3.895899 -2.66189,2.142744 -6.330071,5.292744 -8.151516,7 -4.01842,3.766499 -4.725877,3.805768 -9.345651,0.51875 z m 14.624337,-2.237798 c 2.18183,-2.31306 5.66933,-5.385302 7.75,-6.827206 2.35313,-1.630723 3.78444,-3.420685 3.78677,-4.735642 0.003,-1.801274 0.28512,-1.652552 1.90585,1.005355 1.04616,1.715645 3.2092,3.575008 4.80675,4.131917 3.60735,1.257527 6.29072,3.858929 6.26142,6.070158 -0.0176,1.327886 -0.40189,1.184909 -1.83949,-0.684369 -0.99949,-1.299616 -4.01575,-3.422518 -6.7028,-4.717559 -5.61146,-2.70448 -5.42281,-2.771611 -14.43547,5.136787 -5.352037,4.696289 -5.393279,4.712983 -1.53303,0.620559 z m -6.904059,-3.252428 c 1.6154,-1.69157 5.074591,-4.709039 7.687089,-6.705486 7.78848,-5.951879 6.01664,-10.218933 -4.243274,-10.218933 -3.161861,0 -4.888037,-0.383022 -4.506724,-1 0.812128,-1.31405 7.398718,-1.27987 11.237438,0.05832 3.80095,1.325019 5.47208,6.795564 2.57875,8.441684 -0.96672,0.55 -4.50906,3.5875 -7.871858,6.75 -6.416576,6.034373 -9.926494,7.957378 -4.881421,2.674419 z m -6.562909,0.409133 c 0,-1.025048 12.032068,-11.292017 14.823118,-12.648579 0.92229,-0.448265 0.32688,0.216486 -1.32312,1.477224 -1.649998,1.260737 -5.362498,4.505275 -8.249998,7.210084 -2.8875,2.704808 -5.25,4.487381 -5.25,3.961271 z m -4.35234,-2.105788 c 1.181213,-0.95027 4.556213,-3.683688 7.5,-6.074263 4.740137,-3.849344 4.608867,-3.651059 -1.14766,1.733553 -3.575,3.344028 -6.95,6.077446 -7.5,6.074263 -0.55,-0.0032 -0.03355,-0.783283 1.14766,-1.733553 z m -11.64766,-0.605319 c 0,-0.207656 0.7875,-0.995156 1.75,-1.75 1.586056,-1.243871 1.621426,-1.208501 0.377555,0.377555 -1.306365,1.665748 -2.127555,2.195479 -2.127555,1.372445 z m 0.5,-5.622445 c 2.708649,-2.75 5.149816,-5 5.424816,-5 0.275,0 -1.716167,2.25 -4.424816,5 -2.70865,2.75 -5.14982,5 -5.42482,5 -0.275,0 1.71617,-2.25 4.42482,-5 z m 8,2.485169 c 8.043844,-6.716333 10.388987,-8.206352 5,-3.17682 -3.3,3.079885 -6.45,5.618224 -7,5.640754 -0.55,0.02253 0.35,-1.086241 2,-2.463934 z m -1.5,-2.985169 c 1.865783,-1.925 3.617334,-3.5 3.892334,-3.5 0.275,0 -1.026551,1.575 -2.892334,3.5 -1.865783,1.925 -3.617334,3.5 -3.892334,3.5 -0.275,0 1.026551,-1.575 2.892334,-3.5 z"
     id="path14338"
     inkscape:connector-curvature="0" />
</svg>
