<?xml version="1.0" encoding="UTF-8" standalone="no"?>
<!-- Created with Inkscape (http://www.inkscape.org/) -->

<svg
   xmlns:dc="http://purl.org/dc/elements/1.1/"
   xmlns:cc="http://creativecommons.org/ns#"
   xmlns:rdf="http://www.w3.org/1999/02/22-rdf-syntax-ns#"
   xmlns:svg="http://www.w3.org/2000/svg"
   xmlns="http://www.w3.org/2000/svg"
   xmlns:sodipodi="http://sodipodi.sourceforge.net/DTD/sodipodi-0.dtd"
   xmlns:inkscape="http://www.inkscape.org/namespaces/inkscape"
   id="svg20089"
   version="1.1"
   inkscape:version="0.48.4 r9939"
   width="258"
   height="217"
   sodipodi:docname="FineCheese.png">
  <metadata
     id="metadata20095">
    <rdf:RDF>
      <cc:Work
         rdf:about="">
        <dc:format>image/svg+xml</dc:format>
        <dc:type
           rdf:resource="http://purl.org/dc/dcmitype/StillImage" />
        <dc:title></dc:title>
      </cc:Work>
    </rdf:RDF>
  </metadata>
  <defs
     id="defs20093">
    <filter
       id="filter20635"
       inkscape:label="Blue cheese"
       x="0"
       y="0"
       width="1"
       height="1"
       inkscape:menu="Overlays"
       inkscape:menu-tooltip="Marble-like bluish speckles"
       color-interpolation-filters="sRGB">
      <feTurbulence
         id="feTurbulence20637"
         numOctaves="2"
         baseFrequency="0.063" />
      <feColorMatrix
         id="feColorMatrix20639"
         values="0 0 0 0 0 0 0 0 0 0.5 0 0 0 0 0.5 0 0 0 -10 1" />
      <feGaussianBlur
         id="feGaussianBlur20641"
         stdDeviation="1"
         result="result1" />
      <feTurbulence
         id="feTurbulence20643"
         numOctaves="3"
         baseFrequency="0.031"
         type="fractalNoise"
         result="result0" />
      <feColorMatrix
         id="feColorMatrix20645"
         result="result2"
         values="1 0 0 0 0 0 1 0 0 0 0 0 1 0 0 0 0 0 2 -0.5" />
      <feComposite
         id="feComposite20647"
         in2="result2"
         operator="in"
         in="result1"
         result="result3" />
      <feComposite
         id="feComposite20649"
         in2="SourceGraphic"
         operator="atop" />
    </filter>
    <filter
       id="filter20651"
       inkscape:label="Blue cheese"
       x="0"
       y="0"
       width="1"
       height="1"
       inkscape:menu="Overlays"
       inkscape:menu-tooltip="Marble-like bluish speckles"
       color-interpolation-filters="sRGB">
      <feTurbulence
         id="feTurbulence20653"
         numOctaves="2"
         baseFrequency="0.027309236947791166"
         seed="0" />
      <feColorMatrix
         id="feColorMatrix20655"
         values="0 0 0 0 0 0 0 0 0 0.5 0 0 0 0 0.5 0 0 0 -10 1" />
      <feGaussianBlur
         id="feGaussianBlur20657"
         stdDeviation="1"
         result="result1" />
      <feTurbulence
         id="feTurbulence20659"
         numOctaves="3"
         baseFrequency="0.031"
         type="fractalNoise"
         result="result0" />
      <feColorMatrix
         id="feColorMatrix20661"
         result="result2"
         values="1 0 0 0 0 0 1 0 0 0 0 0 1 0 0 0 0 0 2 -0.5" />
      <feComposite
         id="feComposite20663"
         in2="result2"
         operator="in"
         in="result1"
         result="result3" />
      <feComposite
         id="feComposite20665"
         in2="SourceGraphic"
         operator="atop" />
    </filter>
  </defs>
  <sodipodi:namedview
     pagecolor="#ffffff"
     bordercolor="#666666"
     borderopacity="1"
     objecttolerance="10"
     gridtolerance="10"
     guidetolerance="10"
     inkscape:pageopacity="0"
     inkscape:pageshadow="2"
     inkscape:window-width="1161"
     inkscape:window-height="756"
     id="namedview20091"
     showgrid="false"
     inkscape:zoom="0.76901936"
     inkscape:cx="115.87811"
     inkscape:cy="108.5"
     inkscape:window-x="40"
     inkscape:window-y="22"
     inkscape:window-maximized="0"
     inkscape:current-layer="svg20089" />
  <path
     style="fill:#fffaa5;stroke:none;stroke-width:1px;stroke-linecap:butt;stroke-linejoin:miter;stroke-opacity:1;fill-opacity:0.58910887999999995;filter:url(#filter20651)"
     d="M 37.239407,121.83263 65.743644,81.375 l 5.516949,-12.872881 24.826271,-23.90678 5.516946,-3.21822 8.73517,-17.930085 13.33263,-13.332627 21.60805,6.43644 35.86017,4.597458 8.73517,6.896186 13.79237,2.758475 31.26271,23.447034 3.21823,22.527542 -2.29873,11.493644 -0.45975,51.951274 -8.73517,9.19491 -17.93008,6.43644 -119.074156,35.86017 -48.733051,8.73517 -12.872881,4.13771 -10.114407,0.45975 -4.597458,2.29873 11.493644,-8.73517 2.758475,-4.13771 8.735169,-2.29873 10.574153,-10.11441 5.057203,-1.37924 6.896187,-9.19491 0,-15.17161 -3.218221,-10.57415 -11.033898,-8.73517 -4.597458,-5.9767 z"
     id="path20101"
     inkscape:connector-curvature="0" />
  <path
     style="fill:#000000"
     d="m 12.724581,207.2355 c 0,-1.37569 3.90579,-4.51085 8.2908,-6.65499 2.67371,-1.30737 4.75084,-3.29869 5.99775,-5.75 1.41875,-2.78912 2.53337,-3.75 4.34998,-3.75 2.62278,0 7.46721,-3.0567 10.82204,-6.8284 1.13908,-1.28063 3.62848,-2.64694 5.53201,-3.03625 2.45495,-0.50209 4.41238,-1.95525 6.73418,-4.99933 2.51762,-3.30082 3.27324,-3.8283 3.27324,-2.28496 0,3.0318 -6.24137,9.14894 -9.33475,9.14894 -1.55853,0 -3.97717,1.30078 -6.04299,3.25 -5.386,5.08201 -6.38538,5.75262 -9.50158,6.37586 -2.01899,0.4038 -3.48917,1.67322 -4.76965,4.11833 -1.35152,2.58077 -3.30133,4.18307 -7.22534,5.93757 -2.95587,1.32163 -5.10424,2.67303 -4.77416,3.0031 0.33007,0.33008 1.28845,0.0289 2.12972,-0.6693 0.98214,-0.8151 2.90238,-1.04993 5.3652,-0.6561 2.97562,0.47582 5.0484,0.0186 9.24459,-2.03937 2.97492,-1.45898 7.20896,-2.71175 9.40896,-2.78392 2.2,-0.0722 5.125,-0.42602 6.5,-0.78634 1.375,-0.36032 5.67446,-0.85859 9.55437,-1.10728 4.51248,-0.28923 9.78273,-1.51158 14.62624,-3.39232 4.27629,-1.66049 8.82265,-2.77712 10.44563,-2.56554 4.05637,0.5288 23.992999,-5.1498 35.623759,-10.1468 0.9625,-0.41353 2.5375,-0.43113 3.5,-0.0391 1.6048,0.65361 1.58405,0.77765 -0.25,1.49488 -12.24691,4.78932 -35.162279,11.04292 -39.858389,10.87733 -1.72789,-0.0609 -6.2194,1.07538 -9.98114,2.52511 -4.32907,1.66838 -9.83484,2.85839 -15,3.24208 -4.48826,0.33341 -8.97437,1.03118 -9.96913,1.55059 -0.99475,0.51941 -3.03869,0.67422 -4.54209,0.34402 -1.9367,-0.42537 -4.47002,0.284 -8.69134,2.43371 -4.85086,2.4703 -6.72565,2.92331 -10.08968,2.43797 -2.54371,-0.36698 -4.39207,-0.17491 -4.80902,0.49973 -0.79016,1.27848 -6.55921,1.49907 -6.55921,0.25078 z M 127.91945,181.22692 c -1.75914,-1.12221 5.87504,-4.01205 12.74964,-4.82624 2.86808,-0.33969 6.64137,-1.58132 8.38509,-2.75918 5.51315,-3.72409 25.16324,-10.40148 26.5445,-9.02023 0.75034,0.75035 0.0721,1.04111 -10.3741,4.44732 -5.5,1.79339 -11.57088,4.21723 -13.49086,5.38631 -1.91997,1.16909 -7.09497,3.06255 -11.5,4.20771 -4.40502,1.14515 -8.68414,2.37792 -9.50914,2.73949 -0.825,0.36157 -2.08731,0.28274 -2.80513,-0.17518 z M 56.829711,163.08429 c 0.01,-4.39792 -0.2397,-8.41249 -0.55414,-8.92127 -0.31445,-0.50879 -0.73461,-2.32408 -0.9337,-4.03399 -0.42878,-3.68264 -2.68139,-6.41821 -6.63286,-8.05497 -1.65133,-0.684 -3.00128,-2.08606 -3.1777,-3.30038 -0.18782,-1.29274 -1.27202,-2.33747 -2.79671,-2.6949 -1.94996,-0.45711 -2.62307,-1.40248 -3.10362,-4.35889 -0.33751,-2.07636 -1.32926,-4.49081 -2.20391,-5.36546 -1.43193,-1.43193 -1.43917,-1.88246 -0.0726,-4.52502 0.83469,-1.61412 1.76516,-2.68722 2.06771,-2.38468 0.30254,0.30255 2.33414,-0.36007 4.51465,-1.47248 2.18051,-1.11241 5.83729,-2.17334 8.12617,-2.35761 10.19421,-0.8207 17.50662,-2.47832 21.98747,-4.98423 5.43672,-3.04049 12.35468,-4.99192 21.12291,-5.95839 7.852189,-0.86551 6.711789,0.009 -2.52053,1.93359 -12.82754,2.67358 -14.2845,3.1291 -20.27978,6.34049 -3.21835,1.72393 -7.24126,3.13441 -8.9398,3.13441 -8.3977,0 -24.75535,4.91987 -24.67322,7.42094 0.0195,0.59348 0.67854,2.20406 1.46457,3.57906 0.78602,1.375 1.44507,3.40579 1.46456,4.51287 0.0195,1.10708 1.04794,2.45708 2.28544,3 1.2375,0.54292 2.68876,1.98698 3.22502,3.20902 0.53626,1.22204 2.19123,2.72565 3.67771,3.34137 3.58547,1.48515 5.48689,3.78707 6.14286,7.43674 2.23453,12.43227 2.85091,17.78016 2.30155,19.96896 -1.27036,5.06153 -2.50917,2.34472 -2.49201,-5.46518 z M 184.72458,162.1918 c 0,-0.48879 1.60684,-1.19015 3.57076,-1.55859 1.96391,-0.36843 6.83353,-1.97635 10.82137,-3.57316 6.44931,-2.58243 21.34157,-5.41658 22.57891,-4.297 1.03379,0.9354 -2.53205,2.12247 -8.34347,2.77753 -3.37017,0.37989 -10.55862,2.23178 -15.97435,4.11532 -10.21801,3.55372 -12.65322,4.04177 -12.65322,2.5359 z m 40,-12.54915 c 0,-0.24083 2.00612,-1.87855 4.45804,-3.63939 3.9032,-2.80307 4.59967,-3.88377 5.59604,-8.68327 0.86682,-4.17542 0.85158,-6.50478 -0.0639,-9.7747 -0.89823,-3.20816 -0.92116,-5.14375 -0.0908,-7.65991 1.15749,-3.5072 1.75321,-18.30978 1.119,-27.804871 -0.36377,-5.446201 0.4639,-10 1.81752,-10 0.38562,0 0.76074,3.2625 0.83361,7.25 0.0729,3.9875 0.23609,9.05 0.36273,11.250001 0.12663,2.2 -0.30876,7.825 -0.96755,12.5 -1.39475,9.8977 -1.39918,10.04045 -0.5025,16.18728 0.90312,6.1909 -1.84956,13.97983 -6.33124,17.91481 -2.84841,2.50093 -6.23095,3.8364 -6.23095,2.46005 z M 39.756261,114.99486 c -0.0309,-1.54593 10.67552,-14.86954 20.82392,-25.914351 9.2778,-10.097312 5.26287,-3.666223 -5.6187,9 -5.90632,6.875001 -11.73659,13.850001 -12.95616,15.500001 -1.45682,1.971 -2.22825,2.45612 -2.24906,1.41435 z m 68.670449,-13.54555 c -0.94321,-0.94322 11.15625,-5.727705 26.29787,-10.398961 6.875,-2.120967 15.58164,-5.256345 19.34809,-6.967505 3.76645,-1.711161 7.59145,-2.949274 8.5,-2.751362 2.59976,0.566312 -13.11713,7.472496 -25.84236,11.355429 -6.32815,1.930953 -14.43073,4.592702 -18.00573,5.914999 -3.575,1.322299 -7.19851,2.65992 -8.05223,2.97249 -0.85373,0.31257 -1.86427,0.25628 -2.24564,-0.12509 z M 237.56806,79.389526 c -0.63712,-3.293018 -1.02155,-7.982855 -1.24607,-15.20101 l -0.26102,-8.391993 -3.66819,-1.881897 c -2.01751,-1.035043 -3.6682,-2.321146 -3.6682,-2.858007 0,-1.425149 0.62113,-1.240367 4.89085,1.454989 l 3.85111,2.431099 0.59228,8.318901 c 0.32575,4.575396 0.79619,10.003092 1.04542,12.061547 0.24924,2.058455 0.0408,3.997513 -0.46325,4.309017 -0.50403,0.311504 -0.98685,0.202313 -1.07293,-0.242646 z m -61.69151,-1.240481 c 0.90858,-0.582006 4.50858,-1.695473 8,-2.474372 13.21496,-2.94812 34.09463,-8.670328 36.8656,-10.103252 3.3743,-1.744915 3.98243,-1.827025 3.98243,-0.537706 0,1.736659 -8.40532,4.710313 -25.05385,8.863609 -17.98694,4.487187 -26.55065,6.017414 -23.79418,4.251721 z M 69.803521,73.3814 c -0.0504,-1.405075 1.21727,-3.187777 3.51096,-4.937265 1.97445,-1.505986 5.34163,-5.317673 7.48261,-8.470415 2.14099,-3.152742 5.21881,-6.676524 6.8396,-7.830627 1.62078,-1.154104 3.91531,-3.665318 5.09895,-5.580477 1.18363,-1.915159 2.7577,-3.482107 3.49792,-3.482107 1.92691,0 5.298669,-4.625963 6.643559,-9.114783 1.25021,-4.172826 10.72618,-15.428992 10.80207,-12.831384 0.025,0.854608 -1.51136,3.062695 -3.41406,4.90686 -1.90269,1.844164 -4.14645,5.369278 -4.98612,7.833585 -1.78592,5.241391 -6.061409,11.205722 -8.032739,11.205722 -0.75709,0 -2.30561,1.2375 -3.44114,2.75 -2.97767,3.966153 -10.70787,12.582349 -17.17569,19.144263 -3.07732,3.122095 -5.85429,6.335607 -6.17105,7.141137 -0.38194,0.971286 -0.60251,0.723884 -0.65487,-0.734509 z M 224.94495,48.408352 c -0.70379,-0.282844 -3.85379,-2.968248 -7,-5.967564 -3.1462,-2.999316 -8.36596,-6.775485 -11.59947,-8.391487 -3.2335,-1.616001 -6.3835,-3.336215 -7,-3.822696 -0.61649,-0.486481 -3.34353,-1.122686 -6.06009,-1.41379 -2.8634,-0.306841 -5.43134,-1.202345 -6.11024,-2.130793 -0.64408,-0.880832 -1.50198,-1.601513 -1.90644,-1.601513 -0.40446,0 -1.92986,-0.835201 -3.38976,-1.856002 -2.94055,-2.056102 -14.64134,-3.492661 -29.39712,-3.609214 -7.87149,-0.06218 -8.8986,-0.291573 -10.3067,-2.301921 -0.86018,-1.228076 -2.4063,-2.232864 -3.43583,-2.232864 -1.02952,0 -2.5416,-0.669735 -3.36016,-1.488301 -1.7987,-1.798698 -7.50958,-1.436366 -12.90456,0.818744 -5.39093,2.253414 -4.68259,-0.03038 0.75552,-2.43591 4.06547,-1.798352 5.10527,-1.875013 10.64613,-0.784915 4.17379,0.821143 7.19914,2.137492 9.44545,4.109778 2.96392,2.602361 3.66586,2.802005 6.80462,1.935352 2.11492,-0.583958 5.00315,-0.617906 7.29904,-0.08579 2.08958,0.484299 8.07424,1.183837 13.29924,1.554529 8.92921,0.633489 9.82522,0.905379 14.91279,4.525251 3.61781,2.574108 6.49401,3.851263 8.67322,3.851263 4.60025,0 17.544,7.179429 25.91399,14.373551 3.85,3.309129 7.4275,6.378815 7.95,6.821524 1.04306,0.883775 -1.13783,0.97343 -3.22963,0.132768 z"
     id="path20099"
     inkscape:connector-curvature="0" />
  <path
     style="fill:none;stroke:none;stroke-width:1px;stroke-linecap:butt;stroke-linejoin:miter;stroke-opacity:1;filter:url(#filter20635)"
     d="M 42.29661,118.61441 121.37288,8.7351694 234.93008,51.951271 231.25212,148.95763 18.389831,204.58686 59.307203,175.16314 53.330509,146.6589 z"
     id="path20633"
     inkscape:connector-curvature="0" />
</svg>
