<?xml version="1.0" encoding="UTF-8" standalone="no"?>
<!-- Created with Inkscape (http://www.inkscape.org/) -->

<svg
   xmlns:dc="http://purl.org/dc/elements/1.1/"
   xmlns:cc="http://creativecommons.org/ns#"
   xmlns:rdf="http://www.w3.org/1999/02/22-rdf-syntax-ns#"
   xmlns:svg="http://www.w3.org/2000/svg"
   xmlns="http://www.w3.org/2000/svg"
   xmlns:sodipodi="http://sodipodi.sourceforge.net/DTD/sodipodi-0.dtd"
   xmlns:inkscape="http://www.inkscape.org/namespaces/inkscape"
   id="svg9394"
   version="1.1"
   inkscape:version="0.48.4 r9939"
   width="294"
   height="389"
   sodipodi:docname="FishingPole.png">
  <metadata
     id="metadata9400">
    <rdf:RDF>
      <cc:Work
         rdf:about="">
        <dc:format>image/svg+xml</dc:format>
        <dc:type
           rdf:resource="http://purl.org/dc/dcmitype/StillImage" />
        <dc:title></dc:title>
      </cc:Work>
    </rdf:RDF>
  </metadata>
  <defs
     id="defs9398" />
  <sodipodi:namedview
     pagecolor="#ffffff"
     bordercolor="#666666"
     borderopacity="1"
     objecttolerance="10"
     gridtolerance="10"
     guidetolerance="10"
     inkscape:pageopacity="0"
     inkscape:pageshadow="2"
     inkscape:window-width="1275"
     inkscape:window-height="750"
     id="namedview9396"
     showgrid="false"
     inkscape:zoom="2.4267352"
     inkscape:cx="70.507525"
     inkscape:cy="95.197944"
     inkscape:window-x="-2"
     inkscape:window-y="22"
     inkscape:window-maximized="0"
     inkscape:current-layer="svg9394" />
  <path
     style="fill:#8e5f23;fill-opacity:1;stroke:none"
     d="m 17.71928,370.86864 c 2.048778,2.75008 4.734244,5.34098 11.126059,7.0053 11.950212,-19.77966 23.043976,-37.45179 35.850636,-57.07256 -3.021893,-5.12627 -6.043785,-17.88032 -9.065678,-17.10117 z"
     id="path9406"
     inkscape:connector-curvature="0"
     sodipodi:nodetypes="ccccc" />
  <path
     style="fill:#8e5f23;fill-opacity:1;stroke:none"
     d="m 59.957098,300.19756 8.653601,15.04079 17.513242,-29.87553 c -2.687858,-3.57238 -5.770194,-6.22431 -10.095869,-5.97511 -6.71983,4.11002 -12.358568,10.46228 -16.070974,20.80985 z"
     id="path9916"
     inkscape:connector-curvature="0"
     sodipodi:nodetypes="ccccc" />
  <path
     style="fill:#b6b6b6;fill-opacity:1;stroke:none"
     d="m 52.333687,295.25265 -4.326801,-1.44227 c -0.356703,-5.23052 0.154603,-9.75085 5.769067,-10.09587 2.402946,2.20049 5.396296,4.02008 3.708687,8.85964 3.437192,9.82505 9.232253,17.93529 14.010593,26.78496 l 17.71928,-4.94492 0,4.94492 -18.955509,8.85964 z"
     id="path9918"
     inkscape:connector-curvature="0"
     sodipodi:nodetypes="ccccccccc" />
  <path
     style="fill:#b1934f;fill-opacity:1;stroke:none"
     d="m 77.882415,278.97564 8.447564,5.9751 C 140.55502,196.87252 195.34431,108.84132 262.49259,21.840042 l -2.47246,-4.120763 C 193.95186,103.0195 135.90399,190.99319 77.882415,278.97564 z"
     id="path9920"
     inkscape:connector-curvature="0"
     sodipodi:nodetypes="ccccc" />
  <path
     style="fill:#cfb756;fill-opacity:1;stroke:none"
     d="m 70.5,258.46875 -24.15625,18.625 c -3.156637,4.7649 -6.312113,2.58959 -9.46875,18.53125 0,0 0.418518,5.95105 2.3125,9.15625 2.200758,4.66138 7.776004,3.85685 12.96875,3.65625 0.463607,-1.13486 6.647938,-7.62149 4.21875,-6.28125 l -3.9375,-6.09375 c -6.68593,-2.41897 -6.669124,-6.56369 -2.46875,-10.78125 9.526413,-1.82398 6.659992,1.403 8.3125,9.15625 l 1.5625,3.8125 9.78125,-12.96875 C 67.752601,276.1791 67.342638,267.184 70.5,258.46875 z"
     id="path9922"
     inkscape:connector-curvature="0"
     sodipodi:nodetypes="cccccccccccc" />
  <path
     style="fill:#000000"
     d="M 22.330682,377.06305 C 18.253955,375.21207 16,372.58515 16,369.68484 c 0,-1.51312 2.942567,-6.50705 22.157136,-37.60358 15.610129,-25.26316 14.558262,-22.64569 8.940617,-22.2479 -4.085679,0.28931 -5.12995,-0.061 -7.902758,-2.65121 -2.947342,-2.75323 -3.194238,-3.47668 -3.185226,-9.33336 0.01711,-11.11744 5.369135,-19.63155 18.490231,-29.4146 12.219385,-9.11073 19.367987,-15.93101 24.672889,-23.53969 2.835564,-4.06698 6.187868,-8.64419 7.449565,-10.17158 1.376173,-1.66597 2.0412,-3.43585 1.662162,-4.42361 -0.450275,-1.17339 -0.209852,-1.4846 0.836686,-1.083 1.012046,0.38835 3.319594,-2.12034 7.423609,-8.07072 3.275299,-4.74883 9.533419,-13.36179 13.906939,-19.13991 4.37352,-5.77812 12.72336,-16.80568 18.5552,-24.50568 5.83184,-7.7 13.01781,-17.6 15.96881,-22 2.951,-4.4 6.86366,-9.84635 8.6948,-12.10299 1.83114,-2.25665 3.32934,-4.5459 3.32934,-5.08724 0,-0.54133 1.71293,-2.7849 3.80651,-4.98571 2.09358,-2.20081 7.5718,-9.36155 12.17383,-15.91276 9.31771,-13.26422 21.76065,-29.797402 31.5426,-41.9113 3.57504,-4.427296 6.4638,-8.990807 6.46853,-10.218615 0.006,-1.441305 0.47792,-2.038493 1.34828,-1.704507 0.82546,0.316762 4.64753,-3.554119 9.95686,-10.084029 C 239.7457,32.03234 252.61077,17.935965 257.25,15.194088 c 1.5125,-0.893917 2.75,-2.20328 2.75,-2.909696 0,-1.596529 0.01,-1.59617 4.20748,0.157833 4.35808,1.820922 5.12173,2.813527 7.30114,9.490146 3.50991,10.75258 2.90767,13.771476 -6.72038,33.687733 C 260.03426,65.454047 255.5883,75.975 254.90835,79 c -3.11624,13.863546 -1.13159,34.06784 4.42032,45 1.25694,2.475 4.85313,9.54937 7.99155,15.72082 6.97103,13.70798 9.14995,21.33434 8.93677,31.27918 -0.30058,14.02189 -4.2813,25.07589 -14.52168,40.32502 C 257.37948,217.81136 253,227.10104 253,229.8542 c 0,1.9801 3.94111,6.1458 5.81445,6.1458 0.65205,0 1.19923,-1.2375 1.21596,-2.75 0.0483,-4.36771 1.65662,-0.73013 3.93681,8.90396 2.40326,10.15406 3.0918,33.053 1.1906,39.59604 -1.1413,3.92786 -1.49342,4.25 -4.64547,4.25 -3.83042,0 -7.13972,-3.46012 -10.0938,-10.55383 -0.90383,-2.17039 -2.15526,-4.29222 -2.78094,-4.71517 -0.80804,-0.54622 -6.96211,-1.22864 -5.83511,-2.10302 2.13445,-1.65601 1.53129,0.06 6.90089,-4.26563 0.96776,-0.77961 3.74661,-8.76198 4.29661,-8.76198 0.55,0 1,4.77921 1,6.46537 0,1.68616 0.49002,3.98135 1.08893,5.10043 4.09528,7.05179 8.64862,8.83182 -2.08893,4.33383 -1.34441,-0.83089 -1.26989,2.10615 0.12219,4.81574 1.80683,3.51688 6.11285,7.68426 7.9399,7.68426 1.09046,0 1.90913,-1.10612 2.31291,-3.125 1.04542,-5.22712 0.69804,-28.19397 -0.51364,-33.95822 -1.00128,-4.76335 -1.75522,-5.9051 -6.25,-9.46482 -3.32979,-2.6371 -5.2159,-4.93023 -5.41129,-6.57905 -0.43894,-3.70411 3.43096,-13.2373 7.57374,-18.6573 8.7765,-11.4823 14.09191,-24.79084 15.66643,-39.22506 0.86116,-7.89465 -2.21371,-18.79084 -9.10936,-32.28014 -9.71711,-19.00865 -10.3274,-20.42466 -12.47278,-28.94005 -1.72853,-6.8608 -1.9799,-10.0327 -1.47488,-18.610589 C 252.23603,78.674703 254.01588,72.704313 262.75911,55 c 6.9393,-14.05151 7.69012,-16.154157 8.03436,-22.5 0.47295,-8.718592 -2.10967,-16.821627 -5.51793,-17.312644 -1.94325,-0.279959 -2.11328,0.03767 -1.62637,3.038163 0.46555,2.868867 -0.0814,4.120966 -3.8027,8.705506 -2.39056,2.945084 -5.23073,6.52791 -6.3115,7.961836 C 252.4542,36.326788 248.61295,41.1 244.99886,45.5 c -3.61409,4.4 -9.14161,11.825 -12.28338,16.5 -3.14176,4.675 -7.93191,11.65 -10.64477,15.5 -6.05497,8.593007 -21.22174,31.21312 -30.84296,46 -3.93649,6.05 -9.8112,14.6 -13.0549,19 -5.66944,7.69044 -24.25798,35.71055 -29.18961,44 -1.30884,2.2 -5.05887,8.05 -8.33339,13 -3.27453,4.95 -8.7919,13.725 -12.26083,19.5 -3.46894,5.775 -10.17711,16.575 -14.90705,24 -16.819336,26.40276 -26.293512,41.83086 -26.941534,43.8726 -0.361432,1.13877 -4.230889,7.96167 -8.598793,15.16201 C 73.573739,309.23494 70,315.49264 70,315.94062 c 0,0.44797 0.65692,1.35969 1.459822,2.02604 1.17693,0.97676 2.957132,0.49136 9.186465,-2.50483 5.686685,-2.73518 8.139442,-3.45645 9.290178,-2.73191 4.750305,2.99093 -0.462956,9.55378 -10.939317,13.77123 -7.625843,3.06992 -9.301335,2.87331 -11.741107,-1.37774 l -1.670866,-2.91132 -5.554946,7.64395 C 54.050477,338.08456 52.094473,341.01955 49.147117,346.1862 35.96038,369.30225 29.758749,378.90557 28,378.93283 c -0.825,0.0128 -3.376193,-0.82861 -5.669318,-1.86978 z m 8.59427,-4.85538 C 32.258676,370.16845 37.817006,361.075 43.276795,352 c 5.45979,-9.075 12.155359,-19.56402 14.879044,-23.30892 2.723684,-3.74491 5.163815,-7.36051 5.422514,-8.03467 0.258698,-0.67416 -1.125858,-4.50561 -3.076792,-8.51435 l -3.547152,-7.28861 -8.120763,13.32328 c -22.028471,36.14085 -30.838183,51.36906 -30.391328,52.53355 0.628626,1.63817 6.595191,5.29414 8.557682,5.24366 0.825,-0.0212 2.591229,-1.70705 3.924952,-3.74627 z m -9.619188,-0.67607 c -1.54317,-1.35762 -2.243264,-2.48262 -1.555764,-2.5 0.6875,-0.0174 1.25,0.40403 1.25,0.93646 0,0.53244 1.2375,1.63942 2.75,2.45997 1.5125,0.82054 2.212594,1.50991 1.555764,1.53193 -0.65683,0.022 -2.45683,-1.07074 -4,-2.42836 z m 2.136938,-0.94984 c -1.066757,-0.78003 -1.675006,-1.68279 -1.351666,-2.00613 0.323341,-0.32334 1.404878,0.31487 2.403416,1.41824 2.124434,2.34747 1.688139,2.59135 -1.05175,0.58789 z M 24.404988,367.75 22.5,365.5 l 2.25,1.90499 C 26.864445,369.19521 27.455241,370 26.654988,370 c -0.189757,0 -1.202257,-1.0125 -2.25,-2.25 z m 1.455796,-2.80646 c -2.236622,-1.94831 -2.245378,-2.00062 -0.166478,-0.99463 1.206869,0.58402 2.470927,1.50943 2.809017,2.05647 0.983056,1.59061 -0.09474,1.15753 -2.642539,-1.06184 z M 27.55887,362.4682 C 26.491249,361.66069 26.098649,361 26.686426,361 c 0.587776,0 1.628885,0.675 2.313574,1.5 1.557204,1.87632 1.067337,1.86551 -1.44113,-0.0318 z m 2.313575,-4.2182 c -1.269516,-1.61876 -1.222451,-1.63998 0.627555,-0.28297 1.1,0.80687 2.1875,1.59437 2.416667,1.75 0.229166,0.15563 -0.05323,0.28297 -0.627556,0.28297 -0.574322,0 -1.661822,-0.7875 -2.416666,-1.75 z m 1,-4 c -1.243871,-1.58606 -1.208501,-1.62143 0.377555,-0.37756 0.9625,0.75485 1.75,1.54235 1.75,1.75 0,0.82304 -0.821186,0.29331 -2.127555,-1.37244 z m 3.568685,-3.7182 c -1.197218,-0.90553 -1.439467,-1.48038 -0.632113,-1.5 C 34.528976,349.01431 34.839919,348.55 34.5,348 c -0.985282,-1.59422 1.125607,-1.15604 2.518999,0.52289 1.073163,1.29308 0.978463,1.41573 -0.627555,0.81277 -1.670869,-0.62731 -1.731393,-0.51336 -0.518999,0.97711 1.689537,2.07705 1.136996,2.16161 -1.431315,0.21903 z m 2.538814,-6.05597 c -0.69572,-0.83829 -1.064293,-1.72481 -0.819051,-1.97006 0.245242,-0.24524 1.204963,0.44064 2.132714,1.52417 0.92775,1.08353 1.296323,1.97006 0.81905,1.97006 -0.477272,0 -1.436993,-0.68587 -2.132713,-1.52417 z M 38.5,342 c -0.339919,-0.55 -0.168034,-1 0.381966,-1 0.55,0 1.278115,0.45 1.618034,1 0.339919,0.55 0.168034,1 -0.381966,1 -0.55,0 -1.278115,-0.45 -1.618034,-1 z m 2.52896,-1.96094 c -0.809071,-0.51167 -1.210697,-1.19066 -0.8925,-1.50885 0.318196,-0.3182 1.147764,0.10733 1.843484,0.94562 1.442593,1.73822 1.165987,1.90204 -0.950984,0.56323 z M 42,335.94098 c 0,-0.58246 0.45,-0.7809 1,-0.44098 0.55,0.33992 1,0.81648 1,1.05902 C 44,336.80156 43.55,337 43,337 c -0.55,0 -1,-0.47656 -1,-1.05902 z M 43.5,334 c -0.339919,-0.55 -0.168034,-1 0.381966,-1 0.55,0 1.278115,0.45 1.618034,1 0.339919,0.55 0.168034,1 -0.381966,1 -0.55,0 -1.278115,-0.45 -1.618034,-1 z m 2.235568,-2.59777 c -0.328771,-0.32877 -0.351219,-1.24025 -0.04988,-2.02552 0.418154,-1.08969 0.872796,-1.1581 1.920089,-0.28893 0.754713,0.62636 1.125603,1.53785 0.8242,2.02553 -0.632624,1.0236 -1.8312,1.15213 -2.694409,0.28892 z M 49,327 c -0.901292,-0.58246 -1.024633,-0.97549 -0.309017,-0.98469 0.655041,-0.008 1.469098,0.43469 1.809017,0.98469 0.767305,1.24153 0.421123,1.24153 -1.5,0 z m 1.458881,-3.06653 c -1.07627,-1.74144 0.149522,-2.11024 1.521063,-0.45764 0.788749,0.95039 0.864611,1.52417 0.201518,1.52417 -0.584886,0 -1.360047,-0.47994 -1.722581,-1.06653 z m 2.193725,-4.34091 c -1.437944,-2.19458 -1.436879,-2.46136 0.01205,-3.01737 1.479083,-0.56758 4.741334,2.35216 3.743255,3.35024 -0.235714,0.23571 -1.08461,-0.43858 -1.886435,-1.49843 -1.690801,-2.23489 -2.000623,-1.19082 -0.486287,1.63874 1.463201,2.73402 0.50369,2.40563 -1.382583,-0.47318 z M 56,316 c -0.588702,-1.1 -0.845368,-2 -0.570368,-2 0.275,0 0.981666,0.9 1.570368,2 0.588702,1.1 0.845368,2 0.570368,2 -0.275,0 -0.981666,-0.9 -1.570368,-2 z m 1.565063,-1.92811 c -1.255283,-1.38707 -1.477905,-2.40521 -0.79337,-3.62841 1.123684,-2.00791 2.268662,-0.6802 2.685122,3.11365 0.322673,2.93948 0.306559,2.94387 -1.891752,0.51476 z m 16.005858,11.2043 c -1.427869,-0.36403 -0.135569,-1.37864 4.973868,-3.90508 3.796621,-1.8773 7.494241,-3.18637 8.216933,-2.90905 1.327536,0.50942 2.950577,-2.08309 1.938024,-3.09565 -0.301032,-0.30103 -4.256874,1.12758 -8.79076,3.17468 -9.359506,4.22594 -8.739212,4.436 -13.409752,-4.54109 -1.287677,-2.475 -3.488819,-6.03236 -4.891427,-7.90524 -1.402608,-1.87288 -3.272565,-5.58008 -4.155461,-8.23823 -1.522301,-4.58322 -3.010879,-6.63133 -4.058368,-5.58384 -0.397429,0.39743 3.07263,7.4573 15.04613,30.61149 1.240085,2.39806 2.238826,3.0891 4.335572,2.99982 2.002724,-0.0853 2.213361,-0.24627 0.795241,-0.60781 z m 6.95554,-3.08306 c -0.307887,-0.30789 -1.114794,-6.4e-4 -1.793128,0.68278 -0.980267,0.98762 -0.865403,1.10248 0.559795,0.5598 0.986221,-0.37553 1.541221,-0.93469 1.233333,-1.24258 z m -4.086859,-21.47947 c 3.597295,-5.93249 6.795494,-11.80218 7.10711,-13.04375 0.914498,-3.64365 -2.923175,-6.17654 -8.765168,-5.78506 -1.678994,0.11251 -7.778459,7.60585 -11.96026,14.69348 -1.606888,2.72347 -1.819952,3.823 -0.915981,4.72697 0.903971,0.90397 1.350742,0.89844 1.920702,-0.0238 0.529272,-0.85638 1.094521,-0.63843 1.966833,0.75836 0.733907,1.17517 0.82026,1.96011 0.215636,1.96011 -0.554661,0 -1.044,-0.5625 -1.087421,-1.25 -0.06193,-0.98056 -0.186532,-0.98397 -0.578058,-0.0158 -0.66011,1.63229 3.806232,10.51674 4.791369,9.531 0.420586,-0.42084 3.707943,-5.61902 7.305238,-11.55151 z M 66,299.5 c -0.694433,-0.83674 -0.802716,-1.5 -0.244889,-1.5 0.55,0 1.5602,0.675 2.244889,1.5 0.694433,0.83674 0.802716,1.5 0.244889,1.5 -0.55,0 -1.5602,-0.675 -2.244889,-1.5 z m 1.872445,-3.25 c -1.243871,-1.58606 -1.208501,-1.62143 0.377555,-0.37756 0.9625,0.75485 1.75,1.54235 1.75,1.75 0,0.82304 -0.821186,0.29331 -2.127555,-1.37244 z m 2.147611,-2.72583 C 69.231307,292.57378 69.155445,292 69.818538,292 c 1.208555,0 2.617596,1.8972 1.924098,2.5907 -0.251699,0.2517 -1.02686,-0.22824 -1.72258,-1.06653 z M 72,291.5 c -0.706751,-0.85158 -1.060001,-1.77333 -0.785001,-2.04833 0.275,-0.275 1.07825,0.19675 1.785001,1.04833 0.706751,0.85158 1.060001,1.77333 0.785001,2.04833 -0.275,0.275 -1.07825,-0.19675 -1.785001,-1.04833 z m 2,-2.5 c -1.292687,-0.8354 -1.266292,-0.97149 0.190983,-0.98469 0.930041,-0.008 1.969098,0.43469 2.309017,0.98469 0.782182,1.2656 -0.541628,1.2656 -2.5,0 z m 2.179647,-2.28354 c -0.589654,-0.71049 -0.703567,-1.86874 -0.255145,-2.5943 0.656334,-1.06197 1.404706,-1.00328 3.942797,0.30922 1.722986,0.89099 3.132701,2.08394 3.132701,2.651 0,0.56707 -1.000128,0.33051 -2.222506,-0.52568 C 77.950675,284.57672 76.377161,284.5446 78,286.5 c 0.694433,0.83674 0.802716,1.5 0.244889,1.5 -0.55,0 -1.479359,-0.57759 -2.065242,-1.28354 z m -22.032194,17.92551 c 0.972925,-2.34717 0.89899,-3.32888 -0.413625,-5.49218 -0.879069,-1.44878 -2.397544,-2.63767 -3.374389,-2.64197 -0.976844,-0.004 -2.454978,-1.21469 -3.284742,-2.68975 -1.934711,-3.43931 -0.644398,-7.33205 3.195485,-9.64046 2.513589,-1.51108 3.023035,-1.52286 5.5,-0.12717 2.357412,1.32832 2.729818,2.16862 2.729818,6.15959 0,4.06824 0.904907,6.91825 1.811914,5.70664 8.022295,-10.71649 7.964846,-10.57289 7.082685,-17.70391 -0.970032,-7.84135 -0.960208,-9.51564 0.08319,-14.17753 l 0.775465,-3.46477 -3.592897,3.1546 c -1.976094,1.73503 -6.195576,4.93156 -9.376628,7.10338 -9.139772,6.24007 -10.655503,8.31061 -10.829881,14.79397 -0.08242,3.06443 -0.555756,5.86551 -1.051853,6.22463 C 42.209367,292.71039 41.872558,298 43.010214,298 c 0.487708,0 2.118134,1.14122 3.623168,2.53603 1.505035,1.39482 3.32822,2.30895 4.051522,2.03139 C 51.408207,302.28986 52,302.46832 52,302.964 c 0,1.93286 -6.120187,2.31582 -8.960085,0.56067 -0.523912,-0.3238 -0.675522,-1.36181 -0.336912,-2.3067 0.338611,-0.94488 0.250952,-1.38746 -0.194797,-0.98351 -1.415151,1.28245 -3.289332,-2.51212 -2.80674,-5.68268 0.255482,-1.67848 1.332626,-5.03382 2.393652,-7.45632 1.061027,-2.42249 1.70414,-4.62954 1.42914,-4.90454 -1.300067,-1.30006 -4.910397,9.71106 -4.965296,15.14363 -0.05263,5.20775 0.246661,6.09765 2.785962,8.28368 2.250199,1.93715 3.761903,2.38983 7.231385,2.16545 3.760262,-0.24318 4.555583,-0.69168 5.571144,-3.14171 z m 8.717875,-24.13705 c 0.429894,-1.65938 0.337012,-4.15791 -0.208274,-5.60253 -0.541314,-1.4341 -0.675005,-3.41323 -0.297092,-4.39805 0.943235,-2.45803 1.266726,-1.80792 2.012263,4.04401 0.469518,3.68538 0.248176,5.57526 -0.819834,7 -1.362051,1.81699 -1.409457,1.74499 -0.687063,-1.04343 z M 51,293.62244 c 0,-0.20765 -0.7875,-0.99515 -1.75,-1.75 -1.586056,-1.24387 -1.621426,-1.2085 -0.377555,0.37756 C 50.178814,293.91575 51,294.44548 51,293.62244 z m 1.571429,-5.48053 c 0,-0.99472 -0.585092,-1.80858 -1.300204,-1.80858 -0.83596,0 -1.078251,0.69932 -0.678581,1.95857 0.449354,1.41578 0.271986,1.74247 -0.640019,1.17882 -0.802208,-0.49579 -1.011637,-0.37522 -0.575108,0.3311 0.992978,1.60667 3.193912,0.46282 3.193912,-1.65991 z m 3.002232,-0.91572 c -1.727753,-1.65022 -1.754575,-1.6234 -0.609456,0.60946 0.65881,1.2846 1.472091,2.06139 1.807291,1.72619 0.335201,-0.3352 -0.203825,-1.38624 -1.197835,-2.33565 z m 21.311198,-9.24999 c 0.888327,-0.0131 3.464251,-2.82559 5.724274,-6.25 C 88.408797,262.93849 101,242.9839 101,242.58029 c 0,-0.18554 -2.405045,-2.39204 -5.344544,-4.90333 l -5.344544,-4.56599 -6.405456,8.66326 c -3.523001,4.76479 -7.783894,10.25232 -9.468652,12.19451 -4.811945,5.54722 -6.489957,14.0274 -4.799322,24.25435 l 0.61547,3.7231 2.508383,-1.9731 c 1.37961,-1.0852 3.235196,-1.9838 4.123524,-1.99689 z m 9.601856,0.002 c 0.347226,0.56183 0.34639,1.584 -0.0019,2.2715 -0.348246,0.6875 0.04429,0.41876 0.872299,-0.5972 0.828011,-1.01596 1.234909,-2.55228 0.904219,-3.41404 -0.429085,-1.11818 -0.221998,-1.33246 0.723192,-0.7483 0.917401,0.56699 1.086989,0.43434 0.551804,-0.4316 -0.479947,-0.77658 0.313874,-2.30147 2.095492,-4.02534 1.577474,-1.52634 3.910707,-4.2958 5.184962,-6.15434 C 101.52896,258.00636 116.10269,235.12264 123.488,223 c 4.18836,-6.875 11.75448,-18.89932 16.8136,-26.72072 5.05912,-7.82139 12.3484,-19.19674 16.1984,-25.27855 7.20567,-11.38273 15.5563,-23.72768 21.98482,-32.50073 2.01508,-2.75 7.28833,-10.625 11.71832,-17.5 4.43,-6.875 9.61389,-14.75 11.51976,-17.5 C 210.61239,90.673268 218,79.070468 218,77.935596 c 0,-0.68709 -2.23828,1.858819 -4.97395,5.657575 C 210.29038,87.391927 206.59248,92.525 204.80848,95 c -1.78399,2.475 -5.77977,7.875 -8.87951,12 -3.09975,4.125 -14.23681,20.325 -24.74903,36 -10.51222,15.675 -24.52386,36.375 -31.13697,46 -19.82034,28.84737 -22.10058,32.40748 -21.59715,33.71941 0.26521,0.69113 -0.0292,1.1495 -0.6542,1.01859 -0.62503,-0.1309 -1.62133,1.37323 -2.21402,3.34251 -0.59268,1.96929 -1.85723,4.66929 -2.8101,6 l -1.7325,2.41949 0.97517,-3 c 0.92265,-2.83839 0.89118,-2.89226 -0.58405,-1 -0.85758,1.1 -4.16424,6.0875 -7.34813,11.08333 -4.245286,6.66125 -5.360809,9.09236 -4.183449,9.11718 0.882999,0.0186 2.470229,-0.69388 3.527169,-1.58333 1.71228,-1.44093 -3.987788,6.60178 -10.249105,14.46134 l -2.327394,2.92148 1.741201,-3 c 0.95766,-1.65 2.394242,-4.0125 3.192404,-5.25 0.976688,-1.51429 1.076355,-2.25 0.304809,-2.25 -0.630517,0 -1.436644,0.7875 -1.791393,1.75 -0.35475,0.9625 -1.740534,3.20791 -3.079521,4.98979 -1.338986,1.78189 -2.182175,3.8974 -1.873753,4.70114 0.308422,0.80373 -0.343378,2.49583 -1.448446,3.7602 l -2.009213,2.29887 1.668053,-3 1.668054,-3 -2.148622,2.41008 c -1.487399,1.6684 -1.828594,2.73011 -1.108703,3.45 1.530649,1.53065 1.267456,3.07365 -0.30209,1.77104 -1.604095,-1.33128 -2.73473,-0.49467 -1.982101,1.46665 C 84.004822,278.45495 83.566398,279 82.547972,279 c -1.011143,0 -1.383638,0.45688 -0.947646,1.16233 0.494232,0.79969 1.270086,0.48098 2.486715,-1.02149 1.039382,-1.28359 2.028606,-1.76274 2.399674,-1.16234 z m 13.075972,-24.20785 c 0.341317,-0.34132 -0.08263,-0.51737 -0.942111,-0.39123 -0.859478,0.12615 -1.841946,0.50862 -2.183263,0.84993 -0.341317,0.34132 0.08263,0.51737 0.942111,0.39123 0.859478,-0.12615 1.841946,-0.50862 2.183263,-0.84993 z M 110.57369,228.25 c 3.78245,-5.9125 8.91323,-13.59904 11.40174,-17.0812 5.85733,-8.19612 23.5378,-33.88089 35.51721,-51.59653 l 9.41801,-13.92773 -4.00507,-2.94537 c -4.59702,-3.38068 -3.42788,-4.11541 -11.61741,7.30083 -14.45075,20.14441 -23.47403,32.41997 -29.27082,39.82097 -7.23857,9.24178 -19.67572,26.17207 -26.054332,35.46694 l -4.156828,6.0573 2.346905,1.88978 c 3.036278,2.44489 8.177975,5.75648 8.945155,5.76127 0.32904,0.002 3.69299,-4.83376 7.47544,-10.74626 z m 66.68506,-98 c 8.58467,-12.84757 16.83994,-24.39484 30.5268,-42.700134 9.63156,-12.88161 10.00585,-13.728299 7.48532,-16.932644 l -1.98566,-2.524354 -2.46597,2.703566 C 209.46296,72.283395 206.81129,75.525 204.92664,78 203.04199,80.475 200.375,83.77905 199,85.342334 c -2.57477,2.927345 -10.6182,13.7887 -22,29.707456 -3.575,5.00005 -8.68373,12.02546 -11.35273,15.61202 l -4.85272,6.52102 3.35272,2.86794 c 1.844,1.57737 3.63157,2.88624 3.97236,2.90859 0.3408,0.0223 4.4534,-5.69686 9.13912,-12.70936 z M 228.19196,65 c 8.08854,-11.838712 8.75553,-13.03025 5.88032,-10.504866 -2.69036,2.363029 -13.41818,18.253963 -13.7224,20.326757 -0.2852,1.94314 0.3322,1.169881 7.84208,-9.821891 z m -5.04621,0.75 C 224.99058,62.8625 230.12802,56 234.56227,50.5 253.04825,27.571009 260.90155,17.05719 259.97166,16.482486 257.71712,15.089104 233.42074,41.583704 215.7702,64.683076 214.84718,65.891032 217.46807,71 219.01076,71 c 0.42941,0 2.29016,-2.3625 4.13499,-5.25 z M 239,49.5 c 1.29175,-1.375 2.12363,-2.5 1.84863,-2.5 -0.275,0 -1.55688,1.125 -2.84863,2.5 -1.29175,1.375 -2.12363,2.5 -1.84863,2.5 0.275,0 1.55688,-1.125 2.84863,-2.5 z m 4.5,-5.5 c 0.99549,-1.1 1.58498,-2 1.30998,-2 -0.275,0 -1.31449,0.9 -2.30998,2 -0.99549,1.1 -1.58498,2 -1.30998,2 0.275,0 1.31449,-0.9 2.30998,-2 z m 4.62756,-5.75 c 1.24387,-1.586056 1.2085,-1.621426 -0.37756,-0.377555 -0.9625,0.754844 -1.75,1.542344 -1.75,1.75 0,0.823034 0.82119,0.293303 2.12756,-1.372445 z m 9.99426,-12.403804 c 4.53304,-5.72343 2.86339,-4.652035 -2.18767,1.403804 -2.40841,2.8875 -3.58685,4.618288 -2.61875,3.846196 0.96809,-0.772092 3.13098,-3.134592 4.80642,-5.25 z"
     id="path9404"
     inkscape:connector-curvature="0"
     sodipodi:nodetypes="sssssssssscssssssssscsssscsssssssssssssssssssccsssssssssssssssssssssssssssssssssscsscsssssscsscsscsscsssssscsssssssssssssssssssssssssssscssssssssscsssssssssssssssssscssssssssssssssssssssssssssssssscsssssssssscssssssssssssssssssssssssscsssssssssssscssssssscsssssssssssssssssssssssssssssssssssssscssscssscscccssssscssssssssssssscsscssscsscssssssscccssssssscccccccssscsssscscsssscssssscscsssssssssssssssssssssssssssss" />
</svg>
