<?xml version="1.0" encoding="UTF-8" standalone="no"?>
<!-- Created with Inkscape (http://www.inkscape.org/) -->

<svg
   xmlns:dc="http://purl.org/dc/elements/1.1/"
   xmlns:cc="http://creativecommons.org/ns#"
   xmlns:rdf="http://www.w3.org/1999/02/22-rdf-syntax-ns#"
   xmlns:svg="http://www.w3.org/2000/svg"
   xmlns="http://www.w3.org/2000/svg"
   xmlns:sodipodi="http://sodipodi.sourceforge.net/DTD/sodipodi-0.dtd"
   xmlns:inkscape="http://www.inkscape.org/namespaces/inkscape"
   id="svg6740"
   version="1.1"
   inkscape:version="0.48.2 r9819"
   width="216"
   height="396"
   sodipodi:docname="GlassWhiskey.png">
  <metadata
     id="metadata6746">
    <rdf:RDF>
      <cc:Work
         rdf:about="">
        <dc:format>image/svg+xml</dc:format>
        <dc:type
           rdf:resource="http://purl.org/dc/dcmitype/StillImage" />
        <dc:title></dc:title>
      </cc:Work>
    </rdf:RDF>
  </metadata>
  <defs
     id="defs6744">
    <filter
       inkscape:collect="always"
       id="filter7288"
       x="-0.31369885"
       width="1.6273977"
       y="-0.071105083"
       height="1.1422102">
      <feGaussianBlur
         inkscape:collect="always"
         stdDeviation="5.592746"
         id="feGaussianBlur7290" />
    </filter>
    <filter
       inkscape:collect="always"
       id="filter7574"
       x="-0.080615382"
       width="1.1612308"
       y="-0.23462688"
       height="1.4692538">
      <feGaussianBlur
         inkscape:collect="always"
         stdDeviation="2.7476695"
         id="feGaussianBlur7576" />
    </filter>
  </defs>
  <sodipodi:namedview
     pagecolor="#ffffff"
     bordercolor="#666666"
     borderopacity="1"
     objecttolerance="10"
     gridtolerance="10"
     guidetolerance="10"
     inkscape:pageopacity="0"
     inkscape:pageshadow="2"
     inkscape:window-width="1277"
     inkscape:window-height="743"
     id="namedview6742"
     showgrid="false"
     inkscape:zoom="1.6856283"
     inkscape:cx="159.4035"
     inkscape:cy="113.75242"
     inkscape:window-x="2"
     inkscape:window-y="0"
     inkscape:window-maximized="0"
     inkscape:current-layer="svg6740" />
  <path
     style="fill:#1added;stroke:none;stroke-width:1px;stroke-linecap:butt;stroke-linejoin:miter;stroke-opacity:1;fill-opacity:0.08849557"
     d="m 81.381356,174.50847 -2.936441,29.7839 -1.677966,46.14407 0.838983,25.16949 3.355932,48.24153 2.51695,21.39407 7.550847,6.71186 18.038139,9.6483 29.3644,3.35594 15.1017,-0.41949 35.65678,-9.64831 13.84322,-9.6483 -0.41949,-157.72882 -3.77543,-26.00847 -9.6483,-9.64831 -22.65254,-10.48729 -2.51695,-3.77542 2.09745,-20.55508 1.67797,-16.77967 -8.38983,2.09746 -15.1017,3.35593 -18.87711,-2.09745 -13.00424,-2.93644 1.67797,15.52118 3.35593,22.65254 -3.77543,4.61441 -12.58474,7.13136 -12.584748,7.97034 z"
     id="path7268"
     inkscape:connector-curvature="0" />
  <path
     style="fill:#a81313;fill-opacity:1;stroke:none"
     d="m 113.90412,34.710381 -3.26288,14.238015 2.373,15.424516 4.15275,6.822382 2.96626,0 -4.17645,4.813452 -2.05268,7.348185 -2.07638,15.424516 5.04263,3.262883 27.28953,2.66962 21.95027,-4.15275 0.59325,-8.008885 -2.07638,-17.500892 2.66963,-3.262879 4.74601,-4.449379 1.1865,-15.721141 -6.52576,-22.246898 -12.16164,-3.262878 -14.23801,-0.593251 -21.35702,3.559504 z"
     id="path6754"
     inkscape:connector-curvature="0"
     sodipodi:nodetypes="ccccccccccccccccccccc" />
  <path
     style="fill:#ffad00;stroke:#000000;stroke-width:1px;stroke-linecap:butt;stroke-linejoin:miter;stroke-opacity:1;fill-opacity:1"
     d="m 80.682082,191.62517 26.992898,-10.08526 34.11191,-2.96626 40.04442,4.44938 19.8739,3.26288 -10.08526,7.11901 -33.51866,6.22913 -34.70516,2.07638 -29.069284,-3.85613 z"
     id="path7264"
     inkscape:connector-curvature="0" />
  <path
     style="fill:#ab6a09;stroke:#000000;stroke-width:1px;stroke-linecap:butt;stroke-linejoin:miter;stroke-opacity:1;fill-opacity:1"
     d="m 80.385457,193.40492 17.797518,5.9325 25.806405,2.96626 20.17052,-0.59325 24.32327,-2.66963 16.01777,-3.85613 13.05151,-4.746 4.44938,-3.26288 -0.29662,156.91478 -2.37301,5.33926 -12.45826,6.52575 -32.33216,9.19539 -17.50089,0.59325 -18.39077,-2.07638 -13.94139,-4.15275 -20.763769,-11.86501 -1.186502,-11.86502 -2.966253,-25.8064 -3.262878,-44.79042 1.186501,-25.8064 z"
     id="path7266"
     inkscape:connector-curvature="0" />
  <path
     style="fill:#dfb420;stroke:none;stroke-width:1px;stroke-linecap:butt;stroke-linejoin:miter;stroke-opacity:1;fill-opacity:0.65098041"
     d="m 25.169492,321.75 14.682203,-2.51695 35.65678,-2.93644 24.330508,2.09746 14.262717,2.93644 -14.682208,5.0339 -24.75,1.67796 -31.461865,-1.25847 z"
     id="path7292"
     inkscape:connector-curvature="0" />
  <path
     style="fill:#f4f1c1;stroke:none;stroke-width:1px;stroke-linecap:butt;stroke-linejoin:miter;stroke-opacity:1;fill-opacity:0.73451328;filter:url(#filter7288)"
     d="m 117.03814,166.95763 8.80932,-4.19492 18.87712,-1.25847 -11.32627,10.48729 -4.61441,7.97033 -2.51695,24.75 -1.67797,15.94068 0.41949,50.33899 2.09746,33.55932 0,15.94068 8.80932,24.3305 3.35594,3.35594 -9.22882,2.09745 -15.52118,-3.35593 -7.55085,-9.22881 -0.41949,-35.65678 -2.09746,-44.04661 -2.51695,-32.72034 4.61441,-31.88136 5.45339,-23.49152 z"
     id="path7270"
     inkscape:connector-curvature="0" />
  <path
     style="fill:#000000"
     d="m 58.785541,387.15652 c -7.73885,-0.3969 -15.16386,-1.0335 -16.5,-1.41466 -1.33614,-0.38117 -6.14185,-1.84004 -10.67935,-3.24193 -7.99992,-2.47164 -8.25209,-2.64385 -8.31896,-5.68129 -0.0379,-1.72281 -0.0623,-22.86997 -0.0543,-46.99369 0.0137,-40.85932 0.13819,-43.99785 1.81896,-45.85641 5.2072,-5.75798 21.07451,-10.13445 42.30426,-11.66819 l 8.5,-0.61409 0.0746,-6.5 c 0.0411,-3.575 0.38425,-18.425 0.76266,-33 1.3609,-52.41743 2.29589,-60.7253 7.75407,-68.89899 5.05414,-7.56863 5.79016,-8.15674 17.408619,-13.9102 10.20394,-5.05298 12.76299,-7.04514 13.91463,-10.83217 0.35815,-1.17775 -0.31083,-7.47775 -1.48663,-14 -1.1758,-6.52225 -2.36324,-15.4612 -2.63877,-19.86433 -0.66716,-10.661881 1.12376,-24.834221 3.68727,-29.179049 l 2.0163,-3.417384 -2.54875,-2.198939 c -3.07006,-2.648693 -4.39353,-7.816595 -4.40457,-17.198939 -0.0107,-9.066557 2.12109,-17.977563 5.04538,-21.090334 3.51619,-3.742809 17.28559,-7.6111 26.76805,-7.520052 8.8014,0.08451 14.84725,0.748593 20.9363,2.299667 3.63398,0.925689 4.57491,1.720313 6.15937,5.201659 7.23925,15.905855 6.22838,39.269527 -1.74922,40.428611 -2.70762,0.393397 -2.79869,2.562847 -0.72708,17.320517 1.06792,7.607639 1.2276,12.530453 0.58138,17.924073 -4.02493,33.59375 -4.31217,31.42632 4.562,34.42275 8.05849,2.721 19.1175,10.33828 23.61685,16.26694 7.20951,9.49975 7.02976,8.25903 7.85903,54.24617 0.58051,32.19208 0.58504,123.34214 0.007,133.16726 -0.13994,2.37707 -10.52431,9.00377 -17.59815,11.23012 -3.3,1.03861 -8.02568,2.68849 -10.50152,3.66641 -14.42314,5.69689 -27.02514,7.1263 -48.74848,5.52941 l -10.25,-0.75349 0,5.99125 c 0,5.41434 -0.28566,6.23162 -2.96664,8.48751 -5.57421,4.6904 -22.548069,8.81241 -35.033359,8.50767 -3.025,-0.0738 -11.83179,-0.45898 -19.57065,-0.85588 z m 23.98615,-7.58746 c 6.11858,-6.60193 5.76089,-8.83807 -0.58877,-3.68079 -3.23653,2.62875 -3.26548,2.63351 -1.06758,0.17581 4.34171,-4.85493 -0.51532,-5.38902 -5.70945,-0.62782 l -3.54551,3.25 2.935,-3.25 2.93499,-3.25 -2.48709,0 c -1.3679,0 -3.05375,0.5625 -3.74634,1.25 -1.00966,1.00225 -1.12719,0.90315 -0.59301,-0.5 1.20016,-3.15245 -1.28501,-1.84288 -6.71323,3.53755 -3.77265,3.73944 -4.09018,3.94897 -1.08451,0.71565 2.3375,-2.51455 4.25,-4.89394 4.25,-5.28755 0,-0.39361 -1.56894,-0.71565 -3.48654,-0.71565 -2.61689,0 -4.30056,0.8222 -6.75,3.2963 -1.7949,1.81296 -2.24466,2.11926 -0.99946,0.68066 1.2452,-1.43859 2.02616,-2.85346 1.73547,-3.14416 -0.29069,-0.29069 -3.69342,0.0143 -7.56161,0.67786 -5.30676,0.91027 -7.8153,1.91612 -10.21984,4.09786 -1.75271,1.59032 -2.40629,1.95605 -1.45239,0.81274 2.37395,-2.84531 2.17509,-3.72749 -0.51563,-2.28746 -1.2375,0.66229 -2.475,1.15763 -2.75,1.10076 -0.275,-0.0569 -0.37557,0.50815 -0.22348,1.25561 0.15209,0.74746 -0.18541,1.64451 -0.75,1.99344 -0.56459,0.34893 -1.02652,-0.12223 -1.02652,-1.04704 0,-1.45352 -0.22936,-1.49541 -1.69196,-0.30901 -1.14966,0.93255 -1.45126,0.9718 -0.94098,0.12244 0.8519,-1.418 0.51271,-1.52483 -1.90082,-0.59867 -1.24965,0.47953 -0.41402,1.14885 3.16822,2.53763 6.56224,2.5441 13.22009,3.80991 23.25527,4.42134 l 8.38972,0.51118 3.60818,-3.31074 3.60818,-3.31074 -2.935,3.25 -2.93499,3.25 3.37264,0 c 2.07317,0 4.35796,-0.86692 5.92993,-2.25 2.38779,-2.10086 2.43773,-2.10774 0.75333,-0.10371 -1.39352,1.65794 -1.50566,2.26569 -0.49285,2.67105 2.00703,0.80329 1.93183,0.85754 8.22663,-5.93454 z m -39.4155,-0.8828 c 1.29175,-1.375 2.57363,-2.5 2.84863,-2.5 0.275,0 -0.55688,1.125 -1.84863,2.5 -1.29174,1.375 -2.57363,2.5 -2.84863,2.5 -0.275,0 0.55689,-1.125 1.84863,-2.5 z m 13.5,0.5 c 0.99549,-1.1 2.03497,-2 2.30998,-2 0.27499,0 -0.31449,0.9 -1.30998,2 -0.99549,1.1 -2.03497,2 -2.30997,2 -0.275,0 0.31448,-0.9 1.30997,-2 z m 34.9218,0.87808 c 6.83823,-6.76323 4.84123,-7.50843 -2.19609,-0.81949 l -5.7248,5.44141 4.74954,-5.03435 c 5.2286,-5.54213 5.64308,-6.46565 2.90177,-6.46565 -1.6221,0 -13.15222,10.90362 -13.15222,12.43758 0,0.32233 1.9125,0.29856 4.25,-0.0528 3.29609,-0.49548 5.3547,-1.73145 9.1718,-5.50669 z m 2.8282,4.48007 c 2.0625,-0.34091 3.78249,-1.12346 3.8222,-1.73899 0.0397,-0.61554 1.727209,-2.46854 3.749999,-4.11778 2.02279,-1.64923 3.0602,-2.21173 2.30535,-1.25 -0.75484,0.96174 -0.95734,1.74862 -0.45,1.74862 1.02289,0 3.32245,-2.06752 3.32245,-2.9872 0,-1.07186 -4.3858,-0.93751 -5.72681,0.17543 -1.02213,0.84829 -1.17721,0.72523 -0.68909,-0.54679 1.36298,-3.55187 -3.221439,-1.27459 -7.984869,3.96643 -5.00384,5.50554 -4.89057,5.8315 1.65077,4.75028 z m 7.153909,-2.0954 c 0.40549,-0.40548 1.26799,-0.76699 1.91667,-0.80335 2.98189,-0.16714 6.5894,-1.78243 7.1306,-3.19278 0.99559,-2.59445 -0.15313,-2.59294 -3.6355,0.005 -1.82362,1.36036 -3.81064,2.29082 -4.41559,2.06768 -0.60496,-0.22313 -1.67256,0.28429 -2.37245,1.12761 -1.258929,1.51691 -0.0461,2.21843 1.37627,0.79605 z m -73.903909,-6.02806 c 0.55,-0.40408 1.03457,-1.63469 1.07683,-2.73469 0.0423,-1.1 0.37561,-3.125 0.74077,-4.5 0.36517,-1.375 0.40466,-1.9347 0.0878,-1.24377 -0.3169,0.69093 -0.98774,1.00187 -1.49077,0.69098 -1.20009,-0.7417 -1.1872,-3.52054 0.0148,-3.19721 0.51118,0.1375 1.66101,-0.65 2.55517,-1.75 1.58366,-1.94822 1.59663,-1.9401 0.50119,0.31392 -0.81347,1.6738 -0.82278,2.67755 -0.0337,3.62837 0.77272,0.93107 0.7848,2.1195 0.0414,4.07476 -0.57721,1.51818 -0.81189,2.99792 -0.5215,3.2883 0.29038,0.29039 0.52797,-0.0236 0.52797,-0.6977 0,-0.67413 0.43032,-0.95973 0.95626,-0.63468 0.52595,0.32505 4.01345,-0.11889 7.75,-0.98653 12.766,-2.96431 24.80324,-3.52912 41.92003,-1.96699 8.73054,0.79677 17.73301,1.72396 20.005479,2.06043 2.5588,0.37885 4.38959,0.19457 4.80901,-0.48407 0.37249,-0.60269 0.17414,-1.09581 -0.44078,-1.09581 -0.61492,0 -0.81023,-0.49804 -0.43402,-1.10676 0.49104,-0.79451 0.89162,-0.77086 1.41986,0.0838 0.53099,0.85916 0.90375,0.75303 1.33901,-0.38124 0.33174,-0.86452 0.28187,-1.52396 -0.11084,-1.46542 -1.99257,0.29699 -3.26317,-0.24186 -2.70393,-1.14673 0.34546,-0.55897 1.05466,-0.7527 1.57598,-0.4305 0.52133,0.3222 0.19118,-1.00097 -0.73365,-2.94038 -2.14484,-4.49773 -4.51995,-4.99938 -15.352409,-3.24255 -11.04819,1.79182 -28.11776,1.18735 -43.5,-1.54043 -15.72073,-2.7878 -16.7656,-2.80808 -16.98717,-0.32979 -0.65498,7.32621 -4.12702,8.14774 -4.15664,0.98351 -0.0169,-4.07737 0.0969,-4.28172 1.37064,-2.46312 0.76397,1.09071 1.07195,2.54483 0.6844,3.23136 -0.5342,0.94632 -0.40475,0.97175 0.53516,0.10515 0.98058,-0.90409 0.88267,-1.68816 -0.4683,-3.75 -2.20216,-3.36091 -3.45772,-3.31041 -3.55772,0.1431 -0.0438,1.5125 -0.19415,5.675 -0.33413,9.25 -0.37763,9.64445 0.33069,12.13244 2.91376,10.23469 z m 86.302259,-7.48469 c -0.22256,-3.86566 -0.69779,-5.25 -1.80226,-5.25 -0.825,0 -1.38297,0.57609 -1.23993,1.2802 0.14303,0.7041 -0.4619,2.67632 -1.34431,4.3827 -1.73866,3.3622 -0.88407,4.78975 2.8865,4.82179 1.5474,0.0131 1.75952,-0.72711 1.5,-5.23469 z m -3.71666,3.75 c 0.10413,-1.89422 1.77076,-5.08385 1.8288,-3.5 0.0302,0.825 -0.38124,2.175 -0.9144,3 -0.53316,0.825 -0.94464,1.05 -0.9144,0.5 z m -2.0856,-9.5 c -0.5887,-1.1 -1.29537,-2 -1.57037,-2 -0.275,0 -0.0183,0.9 0.57037,2 0.5887,1.1 1.29537,2 1.57037,2 0.275,0 0.0183,-0.9 -0.57037,-2 z m 55.41354,-1.66688 c 5.45245,-1.34799 11.1676,-3.0994 12.70034,-3.89201 1.53274,-0.79261 3.65315,-1.44111 4.71203,-1.44111 2.25378,0 11.43301,-4.03297 15.50033,-6.8102 1.55443,-1.06139 3.37255,-3.0008 4.04027,-4.3098 0.91894,-1.80148 1.16924,-17.20768 1.02971,-63.38 -0.10138,-33.55 -0.20669,-68.35471 -0.23401,-77.34381 l -0.0497,-16.3438 -3.30627,2.4681 c -6.92429,5.16894 -25.08013,9.35355 -46.34116,10.68084 -9.33081,0.58251 -19.1026,1.33748 -21.7151,1.67772 l -4.75,0.61861 -0.21622,12.12117 -0.21622,12.12117 -0.31401,-12.18182 -0.31401,-12.18182 -5.71977,-0.59807 c -3.14587,-0.32893 -7.35173,-0.80605 -9.34635,-1.06026 -3.4113,-0.43476 -3.66895,-0.26973 -4.34023,2.77989 -0.39251,1.78314 -0.92105,9.07758 -1.17454,16.20987 -0.46346,13.04004 -1.2821,18.10107 -1.44751,8.94888 -0.15025,-8.31311 0.17731,-14.63497 1.10802,-21.38514 0.97163,-7.04685 0.50549,-7.97806 -4.019159,-8.02912 -2.66524,-0.0301 -13.82468,-3.30303 -16.93187,-4.96595 -1.76459,-0.94438 -1.89617,-0.28401 -2.43739,12.23264 -0.31465,7.27699 -0.81807,24.54014 -1.11871,38.36255 l -0.54661,25.13165 6.76729,0.69794 c 6.34505,0.6544 13.57814,1.94917 17.465859,3.1265 1.43605,0.43489 1.75458,-0.38222 2.06092,-5.28667 l 0.36234,-5.80107 0.18909,6.12868 c 0.17534,5.68348 0.39123,6.21241 2.97195,7.28138 1.53057,0.63399 4.0742,2.52088 5.6525,4.19309 l 2.86965,3.0404 -0.70385,25.55491 c -0.64464,23.40508 -0.56647,25.5022 0.92927,24.92823 0.89825,-0.34468 4.26494,-0.62669 7.48156,-0.62669 l 5.84841,0 -0.9302,-3.2434 c -0.5116,-1.78387 -0.88699,-4.14637 -0.83419,-5.25 0.0528,-1.10363 0.61806,0.2434 1.25615,2.9934 l 1.16016,5 22.49384,0.28625 c 20.88116,0.26572 23.27565,0.48765 33.39845,3.09543 5.99753,1.54506 10.37405,3.13709 9.7256,3.53785 -0.64845,0.40077 -2.55485,0.42648 -4.23644,0.0571 -2.39522,-0.52608 -3.63379,-0.1631 -5.71844,1.6759 -2.56724,2.26471 -2.59394,2.26793 -0.75763,0.0913 1.04686,-1.24087 1.65151,-2.508 1.34366,-2.81585 -1.35287,-1.35288 -17.15444,-3.36123 -26.6969,-3.39313 -9.43173,-0.0315 -10.67932,0.18154 -12.96974,2.21511 -1.43357,1.2728 -1.94255,1.47946 -1.17195,0.47583 1.64737,-2.14551 0.69449,-3.48299 -1.30135,-1.82659 -1.01332,0.84098 -1.53339,0.86482 -1.79424,0.0823 -0.22367,-0.671 -2.418,-0.98064 -5.61091,-0.79173 l -5.24358,0.31023 2.12279,4 c 3.19578,6.02183 4.93883,7.71642 6.55632,6.37402 1.62299,-1.34695 1.81922,0.25497 0.22635,1.84784 -0.61702,0.61702 -1.74775,0.88167 -2.51273,0.58812 -0.76498,-0.29355 -2.06015,0.0217 -2.87814,0.70059 -0.818,0.67888 -1.48727,0.87578 -1.48727,0.43756 0,-0.43822 -1.23428,0.29418 -2.74285,1.62756 -2.18206,1.92866 -2.37433,1.98585 -0.94042,0.27974 1.79861,-2.14004 1.79226,-2.14543 -3.00716,-2.55482 -2.72064,-0.23206 -5.12866,0.0479 -5.54426,0.64457 -0.42827,0.61489 -0.74107,0.27631 -0.75,-0.81181 -0.011,-1.34727 -0.55096,-1.72656 -1.94049,-1.36319 -1.35055,0.35318 -1.76634,0.0895 -1.39301,-0.88336 0.31768,-0.82787 -0.11552,-1.38682 -1.07482,-1.38682 -1.05734,0 -1.60699,0.87528 -1.60699,2.55902 0,1.60613 0.40951,2.30592 1.09977,1.87932 0.76896,-0.47525 0.81567,-0.11701 0.15528,1.19098 -1.36841,2.7103 -0.37123,10.37068 1.34999,10.37068 0.76723,0 1.60973,0.0455 1.87222,0.10119 0.2625,0.0557 2.35304,0.52265 4.64565,1.03776 3.96168,0.89013 4.31351,0.77353 7.09489,-2.35119 1.85409,-2.08296 2.35039,-2.38171 1.35435,-0.81525 -0.86468,1.35987 -1.57215,2.80266 -1.57215,3.20619 0,0.86963 12.78537,1.55949 18.5,0.9982 2.2,-0.21608 8.46109,-1.49578 13.91354,-2.84378 z m 29.09774,-15.71 c 0.94531,-1.44271 1.90782,-2.62312 2.13891,-2.62312 0.72338,0 -1.6049,3.85397 -2.75929,4.56743 -0.6041,0.37335 -0.32492,-0.50159 0.62038,-1.94431 z m -48.11259,-3.87312 c -0.39564,-0.6875 -0.3511,-0.9164 0.099,-0.50868 0.45007,0.40773 1.53472,0.18273 2.41032,-0.5 1.40859,-1.0983 1.43388,-1.03969 0.21957,0.50868 -1.63578,2.08577 -1.79908,2.11569 -2.72887,0.5 z m 32.60131,0.87244 c 0,-0.20765 0.7875,-0.99515 1.75,-1.75 1.58606,-1.24387 1.62143,-1.2085 0.37756,0.37756 -1.30637,1.66575 -2.12756,2.19548 -2.12756,1.37244 z m -7.5,-2.62244 c 0.99549,-1.1 2.03498,-2 2.30998,-2 0.275,0 -0.31449,0.9 -1.30998,2 -0.99549,1.1 -2.03498,2 -2.30998,2 -0.275,0 0.31449,-0.9 1.30998,-2 z m -16.5,-1 c 0.5887,-1.1 1.29537,-2 1.57037,-2 0.275,0 0.0183,0.9 -0.57037,2 -0.5887,1.1 -1.29537,2 -1.57037,2 -0.275,0 -0.0183,-0.9 0.57037,-2 z m -25.67186,-22.5 c 0.004,-3.85 0.18518,-5.30246 0.40166,-3.2277 0.21647,2.07477 0.21284,5.22477 -0.008,7 -0.22091,1.77524 -0.39803,0.0777 -0.39359,-3.7723 z m -1.01827,-18 c 0.006,-3.3 0.1923,-4.52944 0.41486,-2.73209 0.22256,1.79735 0.21797,4.49735 -0.0102,6 -0.22818,1.50265 -0.41027,0.0321 -0.40466,-3.26791 z m -1.05769,-11 c 0.0111,-2.2 0.21589,-2.98225 0.45508,-1.73834 0.23919,1.24391 0.23011,3.04391 -0.0202,4 -0.25029,0.95609 -0.446,-0.0617 -0.4349,-2.26166 z m -1,-8 c 0.0111,-2.2 0.21589,-2.98225 0.45508,-1.73834 0.23919,1.24391 0.23011,3.04391 -0.0202,4 -0.25029,0.95609 -0.446,-0.0617 -0.4349,-2.26166 z m -1,-13 c 0.0111,-2.2 0.21589,-2.98225 0.45508,-1.73834 0.23919,1.24391 0.23011,3.04391 -0.0202,4 -0.25029,0.95609 -0.446,-0.0617 -0.4349,-2.26166 z m -19.90937,-13 c 0.004,-4.4 0.17944,-6.07561 0.39069,-3.72357 0.21124,2.35204 0.20827,5.95204 -0.007,8 -0.21488,2.04796 -0.38772,0.12357 -0.38409,-4.27643 z m 20.9432,-3 c 0.008,-2.75 0.20172,-3.75631 0.43157,-2.23625 0.22986,1.52006 0.22371,3.77006 -0.0136,5 -0.23736,1.22994 -0.42542,-0.0137 -0.41792,-2.76375 z m -22,-10 c 0.007,-2.75 0.20172,-3.75631 0.43157,-2.23625 0.22986,1.52006 0.22371,3.77006 -0.0137,5 -0.23736,1.22994 -0.42542,-0.0137 -0.41792,-2.76375 z m 10.98125,116.25 c -0.65907,-5.1639 -0.83616,-5.42403 -2.09332,-3.075 -1.25947,2.35334 -0.3449,7.325 1.34748,7.325 0.93403,0 1.13911,-1.16864 0.74584,-4.25 z m -23.517259,2.07069 c 6.83022,-1.29786 7.83902,-2.25289 3.33193,-3.1543 -3.36921,-0.67385 -9.69922,-5.88521 -10.60148,-8.72798 -0.56153,-1.76925 -1.59112,-1.93461 -11.79784,-1.89486 -10.24243,0.0399 -13.41983,0.38034 -22.18261,2.37677 l -3,0.6835 2.60182,-1.50621 c 3.57997,-2.07246 13.70242,-3.58103 24.08916,-3.59006 4.78004,-0.004 8.8758,-0.34505 9.10169,-0.75755 0.22589,-0.4125 0.20357,-3.73186 -0.0496,-7.37636 l -0.46031,-6.62635 -20.14138,-0.52563 c -11.14136,-0.29076 -21.90219,-1.06079 -24.08194,-1.72327 -3.50083,-1.06399 -4.09167,-0.99123 -5.2946,0.65199 -0.76466,1.04455 -1.10376,2.93777 -0.77905,4.34962 0.43711,1.90058 0.33159,2.14035 -0.44009,1 -0.83756,-1.23769 -1.01775,-1.25227 -1.03038,-0.0833 -0.008,0.77916 -0.23262,1.19936 -0.49821,0.93376 -0.2656,-0.26559 -0.0463,-2.00508 0.48723,-3.86554 0.71367,-2.48842 0.64306,-3.59037 -0.2671,-4.16845 -3.18191,-2.02098 -3.73723,-0.8705 -3.73723,7.74255 0,5.969 0.3328,8.35333 1.09977,7.87932 0.79969,-0.49424 0.79969,-0.11899 0,1.37524 -1.40518,2.6256 -1.4265,8.86645 -0.0332,9.72754 1.64202,1.01482 2.06626,-0.008 1.09376,-2.63685 -0.62878,-1.69974 -0.34731,-3.63507 0.97851,-6.72809 2.25893,-5.26987 2.29013,-5.84285 0.31816,-5.84285 -0.87501,0 -1.32152,0.57723 -1.03138,1.33334 0.28141,0.73333 0.0758,1.33333 -0.45696,1.33333 -1.23696,0 -1.22078,-2.06243 0.0314,-4 0.86167,-1.33333 0.97278,-1.33333 1,0 0.0236,1.15328 0.21815,1.20451 0.84187,0.22162 1.38088,-2.17601 3.40139,3.45533 2.10734,5.8733 -0.583,1.08934 -0.7806,2.97613 -0.4391,4.19285 0.44415,1.58246 0.3487,1.81877 -0.33528,0.8301 -0.76103,-1.10005 -1.09917,-0.93161 -1.65681,0.82536 -0.38534,1.21412 -0.43454,2.47358 -0.10932,2.7988 0.32521,0.32522 0.5913,0.0486 0.5913,-0.61479 0,-0.9036 0.34478,-0.88402 1.3747,0.0781 0.75609,0.70629 1.17524,1.80395 0.93145,2.43925 -0.24378,0.6353 1.0501,1.63094 2.8753,2.21254 4.32792,1.37909 24.1844,5.01444 29.31855,5.36769 11.60238,0.79828 20.65577,0.65891 26.25,-0.4041 z m 19.731979,-1.87746 c -0.54749,-1.725 -0.89195,-1.9054 -1.57599,-0.82536 -1.18296,1.86779 -1.13274,3.1403 0.094,2.38213 0.55,-0.33992 1,-0.0665 1,0.60765 0,0.67413 0.26609,0.9596 0.59131,0.63438 0.32521,-0.32522 0.27602,-1.58468 -0.10933,-2.7988 z m -1.80868,-4.08706 c 0.72969,-0.60558 1.3267,-1.6944 1.3267,-2.4196 0,-0.72519 0.52647,-1.64391 1.16994,-2.0416 0.80504,-0.49754 0.95385,-0.15994 0.47711,1.08243 -0.55345,1.44225 -0.41868,1.57796 0.66988,0.67454 1.56393,-1.29795 2.14297,-13.55421 0.59517,-12.59761 -0.5196,0.32113 -0.67364,1.02248 -0.34232,1.55857 0.33132,0.53609 0.17571,1.5175 -0.3458,2.1809 -0.52151,0.66341 -1.24845,2.4621 -1.61541,3.9971 -0.36696,1.53499 -1.06204,2.54687 -1.54463,2.24862 -0.48258,-0.29825 -0.66619,0.47084 -0.40801,1.7091 0.45973,2.20497 0.43995,2.20187 -0.95946,-0.15001 -1.07913,-1.8136 -1.58548,-2.05837 -2.06866,-1 -0.8006,1.75366 0.12082,-3.27998 1.03786,-5.66975 0.49985,-1.30257 0.32769,-1.54279 -0.66567,-0.92886 -0.97915,0.60515 -1.16796,0.38009 -0.70132,-0.83596 0.8077,-2.10484 0.32499,-2.08507 -6.058119,0.24803 -2.87717,1.05164 -5.44296,1.56946 -5.70176,1.15072 -0.60852,-0.98462 2.79228,-2.74746 8.461199,-4.38595 3.5723,-1.0325 4.48473,-1.74147 4.42594,-3.43902 -0.0407,-1.17611 0.22645,-1.95265 0.59375,-1.72565 0.75877,0.46895 3.15525,-6.67056 2.46931,-7.3565 -0.24532,-0.24532 -0.87718,0.6318 -1.40413,1.94915 -0.92026,2.30059 -0.9606,2.30951 -1.02148,0.22579 -0.0569,-1.94748 -0.39584,-2.08338 -3.31339,-1.32852 -1.7875,0.46248 -6.829379,1.11809 -11.204189,1.45691 -4.3748,0.33882 -8.1422,0.80405 -8.37199,1.03385 -0.2298,0.2298 -0.0898,4.35607 0.3112,9.16949 0.68183,8.18537 0.94889,8.97157 4.12704,12.14972 2.0436,2.0436 3.99392,3.16938 4.89299,2.82438 0.82222,-0.31552 1.49495,-0.13779 1.49495,0.39494 0,0.53274 0.6199,0.96862 1.37755,0.96862 0.75766,0 1.9273,0.66239 2.59919,1.47198 1.07514,1.29546 1.65022,1.2929 4.795749,-0.0214 1.96576,-0.82135 4.17113,-1.98884 4.90081,-2.59442 z m 27.69184,-4.44279 c 1.28076,-0.49148 1.02594,-1.5458 -1.57099,-6.5 -3.01726,-5.75609 -3.20869,-5.91309 -7.19693,-5.90237 -2.25347,0.006 -5.78472,0.28993 -7.84722,0.63084 -3.25999,0.53884 -3.75,0.97449 -3.75,3.334 0,2.93519 1.79956,4.99671 6.50223,7.44875 2.97222,1.54976 10.92317,2.11686 13.86291,0.98878 z m -26.36514,-9.72819 c 0,-2.28963 -1.81039,0.93084 -2.42557,4.31481 l -0.63628,3.5 1.53093,-3.36481 c 0.842,-1.85065 1.53092,-3.85315 1.53092,-4.45 z m 4,-9.76852 c 0,-4.41282 -0.34226,-5.96925 -1.24639,-5.66787 -0.68551,0.2285 -1.52117,1.9535 -1.85703,3.83333 -0.33586,1.87983 -0.72827,3.86787 -0.87203,4.41787 -0.53792,2.05793 0.0403,2.94706 0.97545,1.5 0.82843,-1.2819 0.9716,-1.24555 0.98469,0.25 0.008,0.9625 0.46531,1.75 1.01531,1.75 0.55708,0 1,-2.69444 1,-6.08333 z m -46.499999,-3.91667 c -0.36722,-0.59417 0.72487,-0.97148 2.69098,-0.92971 2.75722,0.0586 2.97551,0.2136 1.30902,0.92971 -1.90836,0.82005 -1.8969,0.86265 0.25,0.92971 1.2375,0.0387 2.25,-0.37971 2.25,-0.92971 0,-0.55 1.4625,-0.94676 3.25,-0.88169 l 3.25,0.11832 -3,0.76337 -3,0.76337 3.31037,0.11832 c 3.23135,0.11549 3.30295,0.0288 3,-3.63169 l -0.31037,-3.75 -5.59677,-0.29533 c -3.07822,-0.16243 -9.82822,0.20396 -15,0.81421 -5.17178,0.61025 -10.66412,1.13225 -12.20522,1.16001 -6.49101,0.11691 3.43575,3.72541 12.30199,4.47192 3.575,0.301 6.6875,0.72771 6.91667,0.94823 0.81052,0.77997 1.19291,0.38728 0.58333,-0.59904 z m 32.92759,-0.76426 c 0.562229,-0.34748 2.158529,-0.65518 3.547329,-0.68376 3.37608,-0.0695 3.28065,-2.70602 -0.13098,-3.61843 -1.46083,-0.39068 -7.035479,-1.02253 -12.388119,-1.40411 l -9.73206,-0.69378 0.62447,2.33217 c 0.34345,1.28269 0.63061,3.16637 0.63811,4.18594 0.0126,1.70816 0.65794,1.80114 8.21633,1.18376 4.51147,-0.3685 8.66268,-0.95431 9.22492,-1.30179 z m -50.77397,-0.36977 c -1.32326,-0.76916 -2.15905,-0.76054 -2.95,0.0304 -0.80483,0.80483 -0.30495,1.09539 1.84638,1.07321 2.58611,-0.0267 2.72225,-0.16279 1.10362,-1.10361 z m -6.15362,-0.86597 c 2.16836,-0.93178 2.06385,-0.96161 -5.25,-1.49841 -2.3375,-0.17157 -4.25,0.12195 -4.25,0.65225 0,0.53031 0.44644,0.68828 0.99208,0.35105 0.54564,-0.33722 1.78314,-0.15246 2.75,0.41058 2.08773,1.21577 3.09109,1.2305 5.75792,0.0845 z m 65.183109,-2.1875 c -0.31922,-0.79773 -0.55618,-0.56078 -0.60416,0.60417 -0.0434,1.05416 0.19292,1.64479 0.52522,1.3125 0.33229,-0.33229 0.36781,-1.1948 0.0789,-1.91667 z m -80.606329,-0.68827 c 0.48653,0.78723 0.69441,-1.00173 0.4984,-4.28906 -0.18495,-3.10177 -0.56556,-6.02109 -0.84581,-6.48738 -0.28024,-0.46628 -0.20228,-2.87279 0.17327,-5.34779 0.42155,-2.77824 0.24072,-5.3766 -0.47261,-6.79108 -1.01217,-2.00703 -1.21462,-1.44913 -1.63297,4.5 -0.51183,7.27855 0.19813,20.6867 0.97575,18.42793 0.39321,-1.14217 0.6046,-1.14422 1.30397,-0.0126 z m 26.42322,-3.04673 c 6.6,-0.57521 15.10353,-1.05297 18.89674,-1.06167 l 6.89673,-0.0158 -0.72744,-7.75 c -0.89681,-9.55454 -1.20788,-12.5339 -1.40951,-13.5 -0.0861,-0.4125 -3.19402,-0.7545 -6.90652,-0.75999 -13.2617,-0.0196 -38.74379,-3.57836 -43.37672,-6.05783 -1.25473,-0.67151 -1.87328,-0.66996 -1.87328,0.005 0,0.55399 2.3625,1.6457 5.25,2.42603 13.144,3.5521 12.88359,3.42059 7,3.535 -4.28815,0.0834 -5.25281,0.42271 -5.26531,1.85209 -0.0132,1.51273 -0.16161,1.54662 -1.09433,0.25 -0.90033,-1.25158 -0.98177,-1.19969 -0.49177,0.31335 0.32299,0.99734 -0.0605,3.06589 -0.85212,4.59678 -0.79165,1.53089 -1.18598,3.75238 -0.87629,4.93665 0.34064,1.30258 0.0986,2.15322 -0.61257,2.15322 -0.6466,0 -0.86181,0.50779 -0.47824,1.12842 0.99171,1.60463 2.68932,-1.69717 2.00444,-3.8986 -0.29598,-0.9514 -0.0689,-2.40482 0.50452,-3.22982 0.80045,-1.15152 0.88641,-0.94818 0.37004,0.87523 -0.43582,1.53899 -0.30548,2.14831 0.37022,1.7307 0.72165,-0.446 0.72857,0.36246 0.0224,2.62478 -0.56123,1.79811 -1.11875,5.1607 -1.23894,7.47241 l -0.21852,4.20313 6.05322,-0.39145 c 3.32926,-0.2153 11.45321,-0.86208 18.05321,-1.4373 z m 20.5,-17.78839 c 0,-0.57432 0.7875,-1.66182 1.75,-2.41667 1.61876,-1.26951 1.63998,-1.22245 0.28297,0.62756 -0.80687,1.1 -1.59437,2.1875 -1.75,2.41667 -0.15563,0.22916 -0.28297,-0.0532 -0.28297,-0.62756 z m -7,-1 c 0,-0.57432 0.7875,-1.66182 1.75,-2.41667 1.61876,-1.26951 1.63998,-1.22245 0.28297,0.62756 -0.80687,1.1 -1.59437,2.1875 -1.75,2.41667 -0.15563,0.22916 -0.28297,-0.0532 -0.28297,-0.62756 z m 46.364079,16.07132 c 0.34975,-2.55177 0.63592,-10.40033 0.63592,-17.44124 l 0,-12.80168 -4.07324,2.66683 c -2.41395,1.58046 -3.5342,2.8397 -2.75,3.09119 0.72778,0.2334 1.70319,0.91938 2.16757,1.52441 0.52395,0.68264 0.64277,0.46742 0.31314,-0.56718 -0.50929,-1.59851 2.01972,-3.4889 3.15232,-2.3563 0.28795,0.28795 -0.0765,0.52354 -0.80979,0.52354 -0.73333,0 -1.0858,0.24753 -0.78327,0.55006 0.30254,0.30254 0.1371,2.21504 -0.36764,4.25 -0.99585,4.01501 -1.22834,22.77729 -0.30083,24.27803 1.23496,1.9982 2.20856,0.71278 2.81582,-3.71766 z m -8.48751,-5.91009 c -0.12554,-5.25231 -0.61743,-9.79018 -1.09309,-10.08416 -0.47566,-0.29397 -0.55662,-1.50559 -0.17991,-2.69249 0.63106,-1.9883 0.54052,-2.04066 -1.15128,-0.66585 -1.065,0.86546 -1.5208,0.96716 -1.08523,0.24216 0.41304,-0.6875 0.27442,-1.25 -0.30804,-1.25 -2.084089,0 -1.01097,-1.79525 1.44098,-2.41064 1.375,-0.34511 2.5,-1.07493 2.5,-1.62183 0,-0.58488 -1.33838,-0.43576 -3.25,0.36211 -1.7875,0.74607 -6.399999,1.95193 -10.249999,2.6797 -3.85,0.72778 -7.62304,2.0359 -8.38453,2.90694 -1.25007,1.42991 -1.32596,1.41377 -0.78139,-0.16628 0.41135,-1.19351 0.0893,-1.75 -1.01275,-1.75 -1.43039,0 -1.53639,1.2297 -0.92335,10.71193 0.3809,5.89156 0.80629,10.82568 0.94532,10.9647 0.13903,0.13903 5.18116,0.54318 11.20474,0.89812 6.02358,0.35493 11.139459,0.82082 11.368629,1.03529 1.0489,0.98167 1.17382,-0.21029 0.9599,-9.1597 z m 3.03783,-2.95034 c 0.0302,-0.55 -0.38124,-0.325 -0.9144,0.5 -0.53316,0.825 -0.94464,2.175 -0.9144,3 0.058,1.58385 1.72467,-1.60578 1.8288,-3.5 z m 1.05895,-7.40706 c 0.5829,-2.03246 0.43877,-2.75961 -0.54697,-2.75961 -0.73612,0 -1.10664,0.375 -0.82337,0.83334 0.28326,0.45833 0.15097,0.83423 -0.29399,0.83533 -0.44496,10e-4 -0.91264,1.68861 -1.0393,3.75 -0.18895,3.07539 -0.038,3.42072 0.84096,1.92427 0.58917,-1.00305 1.42737,-3.06555 1.86267,-4.58333 z M 77.356191,287.32583 c 0,-2.67323 -0.28233,-6.92024 -0.6274,-9.4378 l -0.6274,-4.57736 -5.1226,0.4887 c -19.31433,1.84261 -29.1006,3.72057 -36.88279,7.07773 -5.06994,2.18711 -4.23449,2.56326 1.71578,0.77249 6.33415,-1.9063 7.94984,-1.80235 3.54441,0.22805 -2.44533,1.12701 -3.00359,1.73403 -1.85262,2.01442 0.90605,0.22073 1.88806,1.32173 2.18224,2.44667 0.44619,1.70622 0.17304,1.94832 -1.64737,1.4601 -1.20024,-0.32189 -2.99631,-0.59141 -3.99127,-0.59892 -1.11095,-0.008 -1.53368,-0.45915 -1.09549,-1.16816 0.47165,-0.76315 0.27075,-0.88085 -0.59268,-0.34722 -0.81294,0.50242 -1.77913,0.16053 -2.55851,-0.90534 -0.89346,-1.22186 -1.45979,-1.37688 -1.97642,-0.54097 -0.9577,1.54961 0.9633,2.6436 7.03212,4.00472 6.51821,1.4619 27.1564,3.66858 35.75,3.82245 l 6.75,0.12087 z m 20.7035,2.38638 c 2.861929,-0.8667 5.790949,-2.16326 6.508929,-2.88124 0.71799,-0.71798 1.76961,-1.1507 2.33694,-0.96159 0.56732,0.18911 1.91331,-0.31087 2.99107,-1.11107 4.6515,-3.45359 -2.88895,-7.33391 -19.817259,-10.19798 -5.8475,-0.98932 -10.89767,-1.53292 -11.2226,-1.20798 -0.32494,0.32493 -0.27644,4.75497 0.10777,9.84452 l 0.69856,9.25373 6.59655,-0.58129 c 3.6281,-0.31971 8.93812,-1.2904 11.80004,-2.1571 z m 2.112979,-4.39137 c 1.69881,-1.07722 2.21536,-4.4315 0.82084,-5.33021 -2.230919,-1.43773 0.2161,-1.79999 3.89117,-0.57606 5.18444,1.72661 5.32673,3.21234 0.49287,5.14647 -4.40804,1.76375 -7.499889,2.21509 -5.20488,0.7598 z m 25.947,-92.36197 c 0.46403,-7.41644 0.0401,-6.11359 2.23656,-10.87044 0,-0.8379 -2.01578,-0.96758 -7.25,-0.46641 -11.67145,1.11754 -12.90651,0.7146 -14.23991,7.9512 -0.64847,3.5194 0.20047,7.20373 -0.10744,8.00612 -0.65536,1.70786 1.83861,2.23297 11.66974,2.45709 l 6.5724,0.14983 1.11869,-7.22739 z m 24.23652,5.73776 c 13.56015,-0.50437 17.60301,-1.02523 30.45963,-3.92429 9.59532,-2.16367 13.64607,-3.57041 16.36291,-5.68249 l 2.32253,-1.80555 -5.32253,-1.51016 c -14.58369,-4.13782 -53.72113,-7.19002 -60.12969,-4.68931 -1.72544,0.67329 -2.56971,0.71121 -2.19098,0.0984 0.33889,-0.54834 0.18775,-0.99698 -0.33586,-0.99698 -0.52362,0 -1.21105,0.675 -1.52764,1.5 -0.41934,1.09279 0.16244,1.53212 2.14301,1.61831 l 2.71862,0.11832 -2.92851,0.63168 c -3.87898,1.64634 -5.44844,10.68585 -5.57149,13.81794 0,2.51035 0.11829,2.55422 5.25,1.94723 2.8875,-0.34155 11.325,-0.84694 18.75,-1.12311 z m -19.25,-2.17265 c 0.6875,-0.27741 1.8125,-0.27741 2.5,0 0.6875,0.27741 0.125,0.50439 -1.25,0.50439 -1.375,0 -1.9375,-0.22698 -1.25,-0.50439 z m -0.9375,-4.02083 c 0.72187,-0.28887 1.58437,-0.25335 1.91667,0.0789 0.33229,0.33229 -0.25834,0.56864 -1.3125,0.52522 -1.16495,-0.048 -1.4019,-0.28494 -0.60417,-0.60416 z m 6.1875,-2.7099 c 0,-0.21616 0.69837,-0.661 1.55194,-0.98855 0.88992,-0.34149 1.29132,-0.17385 0.94098,0.39301 -0.58726,0.95021 -2.49292,1.40545 -2.49292,0.59554 z m -30.28871,6.70298 c -1.15923,-3.15669 0.10265,-5.3574 0.81051,-8.55997 0.62469,-3.34281 0.47794,-3.75 -1.35149,-3.75 -2.93153,0 -3.62928,1.76151 -0.93514,2.36081 1.24566,0.27709 0.6089,0.40331 -1.41502,0.28049 -2.02392,-0.12283 -3.491479,0.0815 -3.261249,0.454 0.230229,0.37253 -0.47633,0.91135 -1.57015,1.19739 -2.98455,0.78048 -2.49332,3.03692 0.53512,2.458 1.388119,-0.26536 2.717599,-0.169 2.954389,0.21414 0.23679,0.38313 -2.100819,0.79902 -5.194689,0.92419 -4.97654,0.20133 -5.47714,0.0492 -4.34109,-1.31971 0.70627,-0.85101 1.75267,-1.25771 2.32533,-0.90379 0.61966,0.38297 0.74018,0.15642 0.29767,-0.55957 -0.52197,-0.84457 -1.11691,-0.89319 -1.99652,-0.16318 -0.68914,0.57193 -1.43657,0.85857 -1.66097,0.63696 -0.22439,-0.2216 -2.64109,0.16531 -5.37043,0.8598 -4.671,1.18856 -4.83041,1.33337 -2.7145,2.46578 3.01151,1.61171 15.98115,4.97079 19.458329,5.03963 1.72563,0.0342 3.02755,-0.58644 3.4299,-1.63497 z m -13.898789,-1.99308 c 0.72188,-0.28887 1.58437,-0.25335 1.91667,0.0789 0.33229,0.33229 -0.25834,0.56864 -1.3125,0.52522 -1.16495,-0.048 -1.4019,-0.28494 -0.60417,-0.60416 z m -6.3125,-1.31689 c -1.78583,-0.7674 -1.71184,-0.86696 0.69098,-0.92971 1.48004,-0.0387 2.9691,0.37971 3.30902,0.92971 0.73784,1.19384 -1.22177,1.19384 -4,0 z m 12.81244,-9.66148 c 9.592289,-2.38297 10.687559,-2.88346 10.687559,-4.88378 0,-3.58286 6.10848,-11.65554 11.18183,-14.77737 4.17311,-2.56788 5.80297,-2.92928 15,-3.32606 l 10.31817,-0.44514 -6.70411,6.29692 c -3.68726,3.4633 -7.15056,7.50006 -7.69623,8.97057 l -0.99211,2.67365 13.69623,0.1268 c 24.77966,0.22942 38.34713,1.86914 55.58646,6.71802 1.77185,0.49837 1.84613,0.0841 1.18608,-6.61435 -0.92446,-9.3818 -2.09331,-12.56624 -6.81899,-18.57778 -5.12948,-6.52521 -14.06683,-12.68053 -23.30279,-16.04907 -6.94774,-2.53399 -7.45195,-2.92022 -8.06278,-6.17621 -0.35837,-1.91025 -0.0842,-8.04103 0.60925,-13.62395 2.16895,-17.46212 2.59275,-21.72367 2.19947,-22.11696 -0.20972,-0.20971 -2.02822,0.19978 -4.04113,0.90997 -12.0308,4.24471 -35.4471,4.22039 -46.57131,-0.0484 -1.99612,-0.76598 -1.98394,-0.59987 1.5718,21.43265 2.24083,13.8849 1.8777,19.0786 -1.45629,20.82854 -1.21195,0.63612 -5.47093,2.77106 -9.46441,4.7443 -11.567829,5.71587 -14.999539,8.26901 -18.792119,13.98104 -3.00779,4.53006 -3.77833,6.89203 -4.97154,15.23951 -0.77663,5.4332 -1.42633,10.20883 -1.44377,10.6125 -0.0174,0.40367 1.68389,-0.16027 3.78073,-1.25321 2.09685,-1.09293 8.62184,-3.18193 14.5,-4.64222 z m 30.434689,-5.27202 c 0.13592,-0.0366 0.81092,-1.40329 1.5,-3.03714 0.68908,-1.63386 3.66216,-5.45886 6.60686,-8.5 2.94469,-3.04115 7.93962,-5.9743 7.29314,-5.9743 -8.91726,0.087 -24.13968,-1.09488 -26.84144,6.2866 -1.20687,0.643 -2.51389,1.6862 -2.9045,2.31823 0.20142,1.33835 1.46476,0.19643 -0.63343,2.47162 -1.50272,1.61747 -3.00295,4.29446 -3.33384,5.94889 l -0.60161,3.00805 9.33385,-1.22773 c 5.13361,-0.67525 9.44505,-1.25765 9.58097,-1.29422 z m 31.12059,-77.6197 5.36772,-1.594204 -0.60021,-5.676296 c -0.33012,-3.121966 -0.88341,-9.051301 -1.22955,-13.176301 l -0.62933,-7.5 3.10462,-1.802281 c 4.18144,-2.427388 5.03061,-4.333744 5.74528,-12.897947 0.66228,-7.936269 -1.27096,-18.104391 -4.75536,-25.011434 -2.21456,-4.389869 -5.07762,-5.408229 -17.99686,-6.40128 -5.98076,-0.459719 -8.80047,-0.315105 -9.28966,0.476436 -0.38632,0.625078 -2.58835,1.189748 -4.89339,1.254821 -3.95864,0.111755 -4.02466,0.160635 -1.19098,0.881685 2.84083,0.722868 2.77885,0.769648 -1.16821,0.881685 -2.29252,0.06507 -4.95384,0.419787 -5.91405,0.788254 -1.19028,0.456755 -1.51574,0.297649 -1.02277,-0.5 0.98811,-1.59879 -1.68426,-1.493733 -5.80549,0.228227 -5.1285,2.142826 -7.09238,8.275106 -7.07818,22.101834 0.0126,12.269573 0.94691,15.066567 5.57127,16.678627 l 2.9276,1.02057 -2.39131,2.841918 c -2.63787,3.13493 -4.18484,8.972788 -5.07756,19.1614 -0.53919,6.153822 -0.41068,6.797022 1.5699,7.856996 1.18644,0.63497 4.90928,1.36083 8.27298,1.61303 5.67476,0.42548 5.97583,0.34564 4.17469,-1.107 -1.85709,-1.497764 -1.80042,-1.565544 1.30902,-1.565544 1.91212,0 2.99571,0.41168 2.63211,1.000004 -0.39402,0.63753 2.93743,1.04772 9.19098,1.13164 7.49274,0.10056 8.98254,0.32516 6.30902,0.95115 -2.80868,0.65764 -2.41364,0.73445 2,0.38886 3.025,-0.23686 7.91547,-1.14804 10.86772,-2.02485 z m -18.36772,-0.47763 -9,-0.652904 10,-0.0961 c 12.63603,-0.12146 12.26862,-0.0808 10.55197,-1.16686 -0.93678,-0.59266 0.12241,-0.71521 3,-0.34711 5.41603,0.69282 6.39834,1.29382 2.1147,1.29382 -1.74167,0 -3.16667,0.45 -3.16667,1.000004 0,0.55 -1.0125,0.91497 -2.25,0.81103 -1.2375,-0.10393 -6.3,-0.48277 -11.25,-0.84186 z m -11.28783,-2.958524 c 1.49169,-0.44959 6.89169,-0.47504 12,-0.0566 l 9.28783,0.7609 -12,0.0566 c -7.67461,0.0362 -11.0224,-0.2381 -9.28783,-0.7609 z m 10.53783,-1.672928 c 0.6875,-0.277412 1.8125,-0.277412 2.5,0 0.6875,0.277413 0.125,0.504386 -1.25,0.504386 -1.375,0 -1.9375,-0.226973 -1.25,-0.504386 z m 5.0625,-0.02083 c 0.72187,-0.288871 1.58437,-0.253344 1.91667,0.07895 0.33229,0.332292 -0.25834,0.568641 -1.3125,0.52522 -1.16495,-0.04798 -1.4019,-0.284941 -0.60417,-0.60417 z m -14.81312,-1.566889 c 3.4e-4,-0.4125 3.48812,-0.682576 7.75062,-0.600168 7.88788,0.152498 6.95418,0.549946 -2.50062,1.064446 -2.88784,0.157147 -5.25034,-0.05178 -5.25,-0.464278 z m 21.00062,-1.75 c 0,-0.55 0.45,-1 1,-1 0.55,0 1,0.45 1,1 0,0.55 -0.45,1 -1,1 -0.55,0 -1,-0.45 -1,-1 z m -13.75,-0.716254 c 1.5125,-0.229125 3.9875,-0.229125 5.5,0 1.5125,0.229124 0.275,0.41659 -2.75,0.41659 -3.025,0 -4.2625,-0.187466 -2.75,-0.41659 z m 1.4777,-4.005478 c 1.77523,-0.220912 4.92523,-0.224542 7,-0.0081 2.07476,0.216475 0.6223,0.397221 -3.2277,0.401658 -3.85,0.0044 -5.54754,-0.17268 -3.7723,-0.393592 z m 0.7723,-3.247675 6,-0.633192 -5.5,-0.513718 c -5.29201,-0.494292 -5.21638,-0.520481 2,-0.69254 7.21711,-0.172077 7.39196,-0.122475 4.63569,1.315018 -1.63498,0.8527 -5.06848,1.421689 -8,1.325731 l -5.13569,-0.168107 z m -0.23625,-4.748174 c 1.52006,-0.229855 3.77006,-0.223712 5,0.01365 1.22994,0.237362 -0.0137,0.425424 -2.76375,0.417917 -2.75,-0.0075 -3.75631,-0.201713 -2.23625,-0.431567 z m -4.71698,-2.206737 c -0.31419,-0.508375 0.22175,-1.131174 1.19099,-1.383999 1.34105,-0.349814 1.22448,-0.487405 -0.48776,-0.575682 -1.2375,-0.0638 -2.25,-0.614146 -2.25,-1.22299 0,-0.608844 -0.675,-0.847967 -1.5,-0.531385 -0.825,0.316583 -1.5,0.168239 -1.5,-0.329652 0,-0.497892 -1.4625,-1.107087 -3.25,-1.353767 -2.48253,-0.342598 -2.18736,-0.445114 1.25,-0.434127 2.475,0.0079 5.175,-0.231186 6,-0.531326 0.825,-0.30014 2.7559,-0.821486 4.2909,-1.158548 1.53499,-0.337062 2.56684,-0.97537 2.29299,-1.418462 -0.27384,-0.443093 1.53382,-0.497285 4.01703,-0.120428 2.48321,0.376857 5.57377,0.482784 6.86792,0.235393 1.29414,-0.247392 3.18057,0.03131 4.19207,0.619336 1.50644,0.875752 1.02513,1.077408 -2.66091,1.114859 -2.475,0.02515 -5.175,0.525179 -6,1.111183 -1.11626,0.79289 -0.42819,0.91633 2.68964,0.48252 2.38363,-0.331653 4.45664,-0.150939 4.80902,0.419227 0.5948,0.962403 -4.45593,1.447691 -10.74866,1.032762 -1.5125,-0.09973 -2.75,0.26959 -2.75,0.820713 0,0.551124 -0.7875,1.228524 -1.75,1.505336 -0.9625,0.276811 0.275,0.493075 2.75,0.480587 7.08394,-0.03574 8,0.0974 8,1.162768 0,1.267904 -14.67198,1.33976 -15.45323,0.07568 z m 2.1824,-5.679849 c -0.3323,-0.332291 -1.1948,-0.367818 -1.91667,-0.07895 -0.79773,0.319226 -0.56078,0.556183 0.60417,0.604167 1.05416,0.04342 1.64479,-0.192928 1.3125,-0.525217 z m -12.47917,-2.112087 c 1.5125,-0.229125 3.9875,-0.229125 5.5,0 1.5125,0.229124 0.275,0.41659 -2.75,0.41659 -3.025,0 -4.2625,-0.187466 -2.75,-0.41659 z m 5.5,-2.007142 c 1.7875,-0.221826 4.7125,-0.221826 6.5,0 1.7875,0.221827 0.325,0.403322 -3.25,0.403322 -3.575,0 -5.0375,-0.181495 -3.25,-0.403322 z m 13.01166,-1.983865 c 1.24391,-0.239193 3.04391,-0.230112 4,0.02018 0.95609,0.250292 -0.0617,0.445996 -2.26166,0.434897 -2.2,-0.0111 -2.98225,-0.215885 -1.73834,-0.455077 z m -11.99375,-1.01747 c 1.79735,-0.222562 4.49735,-0.217969 6,0.0102 1.50265,0.228174 0.0321,0.41027 -3.26791,0.404657 -3.3,-0.0056 -4.52944,-0.192301 -2.73209,-0.414857 z m 5.23209,-2.167418 5.5,-0.522183 -7,-0.616247 -7,-0.616247 7.75,-0.176587 c 4.2625,-0.09712 7.75,0.225268 7.75,0.716424 0,1.430632 -2.81268,2.120894 -7.83179,1.922007 l -4.66821,-0.184983 z m 11.25,0.202823 c 0.9625,-0.251527 2.5375,-0.251527 3.5,0 0.9625,0.251528 0.175,0.457323 -1.75,0.457323 -1.925,0 -2.7125,-0.205795 -1.75,-0.457323 z m -0.98097,-2.003665 c 0.97297,-0.253543 2.32297,-0.236869 3,0.03705 0.67703,0.273923 -0.11903,0.481368 -1.76903,0.460988 -1.65,-0.02038 -2.20394,-0.244498 -1.23097,-0.498038 z m -9.4926,-3.040506 c 2.35204,-0.211245 5.95204,-0.208273 8,0.0066 2.04796,0.214878 0.12357,0.387715 -4.27643,0.384083 -4.4,-0.0036 -6.07561,-0.179441 -3.72357,-0.390683 z m 0.47357,-2.994971 c 2.0625,-0.215745 5.4375,-0.215745 7.5,0 2.0625,0.215744 0.375,0.392262 -3.75,0.392262 -4.125,0 -5.8125,-0.176518 -3.75,-0.392262 z m -1.25,-3.771532 c 0,-1.165746 1.16989,-1.459834 5.25,-1.319752 l 5.25,0.180248 -5,0.520522 -5,0.520521 6,0.631123 6,0.631123 -6.25,0.168107 c -4.9636,0.133507 -6.25,-0.140627 -6.25,-1.331892 z m 1.75,-3.223396 c 1.7875,-0.221826 4.7125,-0.221826 6.5,0 1.7875,0.221827 0.325,0.403322 -3.25,0.403322 -3.575,0 -5.0375,-0.181495 -3.25,-0.403322 z m -4.98834,-2.983865 c 1.24391,-0.239193 3.04391,-0.230112 4,0.02018 0.95609,0.250292 -0.0617,0.445996 -2.26166,0.434897 -2.2,-0.0111 -2.98225,-0.215885 -1.73834,-0.455077 z m 11,0 c 1.24391,-0.239193 3.04391,-0.230112 4,0.02018 0.95609,0.250292 -0.0617,0.445996 -2.26166,0.434897 -2.2,-0.0111 -2.98225,-0.215885 -1.73834,-0.455077 z m -6.51166,-3.021207 c 2.0625,-0.215745 5.4375,-0.215745 7.5,0 2.0625,0.215744 0.375,0.392262 -3.75,0.392262 -4.125,0 -5.8125,-0.176518 -3.75,-0.392262 z m -6.5223,-1.993264 c 1.77523,-0.220912 4.92523,-0.224542 7,-0.0081 2.07476,0.216475 0.6223,0.397221 -3.2277,0.401658 -3.85,0.0044 -5.54754,-0.17268 -3.7723,-0.393592 z m 4.55247,-3.01454 c 2.6291,-0.206676 6.6791,-0.204183 9,0.0055 2.32091,0.209724 0.16983,0.378823 -4.78017,0.375776 -4.95,-0.003 -6.84892,-0.17464 -4.21983,-0.381317 z m -7.03017,-1.953054 c 0.9625,-0.251527 2.5375,-0.251527 3.5,0 0.9625,0.251528 0.175,0.457323 -1.75,0.457323 -1.925,0 -2.7125,-0.205795 -1.75,-0.457323 z m 8.5,-0.972955 c 0.6875,-0.277412 1.8125,-0.277412 2.5,0 0.6875,0.277413 0.125,0.504386 -1.25,0.504386 -1.375,0 -1.9375,-0.226973 -1.25,-0.504386 z m -7,-2.043452 c 1.2375,-0.238353 3.2625,-0.238353 4.5,0 1.2375,0.238353 0.225,0.433369 -2.25,0.433369 -2.475,0 -3.4875,-0.195016 -2.25,-0.433369 z m 12,0.04345 c 0.6875,-0.277412 1.8125,-0.277412 2.5,0 0.6875,0.277413 0.125,0.504386 -1.25,0.504386 -1.375,0 -1.9375,-0.226973 -1.25,-0.504386 z m 0.25,-2.67105 c 0,-0.926469 0.77721,-1.659866 1.75,-1.651354 0.99868,0.0087 1.32068,0.335726 0.75,0.761633 -0.55,0.410477 -1.3375,1.153586 -1.75,1.651354 -0.4125,0.497768 -0.75,0.155033 -0.75,-0.761633 z"
     id="path6752"
     inkscape:connector-curvature="0"
     sodipodi:nodetypes="csscsssccssssssscsssssssssssscssscsscccsssscccsssssssssccssscsssssssscccccssssssssssssssscscssssccscsssssssscssccsccccscsssscscsssssssscscssssssccsssssccsscscsscsscscscssssssscssscccccsssssssssscssscssscscscssscssscssssssssscsssscssssccscssssscssssssssssccssccssssssssscscsccsccccssccsccccsccccsccccsccccsccccscccsssscsssscscsscssssscccsssssssscsscssssscsccsscccsssccccsssssssssssssssscsccsssssccssssssccsscsssssscssssssscssssscsscccsscsssscssssscscsscscccsscsccccccccsssssscccscscssssscsscsssscsscscsccssscsssscssscssssssssssscsssssssssssscscscsccssscssssscssssssscssscsscsssssscscsssssssccssssccccsscsssssscccsccsssscccccssssccssscsssscsssssscccccccscsscssscsscssssssscssssssscscccssccccscscscsscssssssssssssscsssssssssssccssssssccsccsssssssssssssssssssssssccsccccssssccsssssssssssssscsssssssssssssssssssssssssssssssssccccsssccsssssssssssssssssscccccssssssssssssssssssccsccccsccszssssssssssssssscsss" />
  <path
     style="fill:#6bf3f3;stroke:none;stroke-width:1px;stroke-linecap:butt;stroke-linejoin:miter;stroke-opacity:1;fill-opacity:0.17699115"
     d="m 24.75,286.30297 -0.209746,91.65889 10.90678,4.82416 14.262712,2.51695 26.008474,1.46822 11.745763,0.62923 23.491527,-6.29237 4.82415,-6.50212 -1.46822,-54.5339 1.67797,-27.0572 -0.62924,-9.6483 -12.375,-8.59958 -15.311441,-1.46822 -10.067797,-1.04873 -24.540254,2.93644 -21.603814,5.45339 -6.082627,4.40466 -0.838983,2.7267"
     id="path7296"
     inkscape:connector-curvature="0" />
  <path
     style="fill:#dfb420;stroke:none;stroke-width:1px;stroke-linecap:butt;stroke-linejoin:miter;stroke-opacity:1;fill-opacity:0.65098041"
     d="m 24.330509,322.79873 0,29.57415 9.648305,3.14619 20.135593,3.56568 22.442797,1.88771 23.701266,-2.7267 14.05297,-8.59957 0,-28.10594 -7.3411,4.19492 -23.281781,2.3072 -33.769067,-0.41949 -14.262712,-1.67796 z"
     id="path7294"
     inkscape:connector-curvature="0" />
  <path
     style="fill:#6bf3f3;stroke:#000000;stroke-width:1px;stroke-linecap:butt;stroke-linejoin:miter;stroke-opacity:1;fill-opacity:0.17699115"
     d="m 23.911017,287.56144 -0.209746,32.51059 2.516949,1.25848 7.341102,-2.09746 21.603814,-1.88771 23.491525,-1.25848 16.150424,1.46822 19.925845,2.93645 0.62924,-36.49577 -2.51695,-0.62923 -11.11652,5.66313 -19.086869,4.61441 -23.072034,-1.67797 -31.671611,-4.61441 z"
     id="path7302"
     inkscape:connector-curvature="0" />
  <path
     style="fill:#6bf3f3;stroke:#000000;stroke-width:1px;stroke-linecap:butt;stroke-linejoin:miter;stroke-opacity:1;fill-opacity:0.17699115"
     d="M 24.959746,377.33263 24.75,353.00212 l 9.858051,3.56568 16.779661,3.35593 16.989407,1.25847 17.618644,-0.41949 15.940677,-2.51695 12.375,-7.97034 0.62924,26.21822 -8.18009,6.08263 -12.584742,3.56568 -15.101695,1.46822 -14.682204,-0.83898 -21.184322,-2.09746 -19.29661,-6.50212 z"
     id="path7298"
     inkscape:connector-curvature="0" />
  <path
     style="fill:#6bf3f3;stroke:none;stroke-width:1px;stroke-linecap:butt;stroke-linejoin:miter;stroke-opacity:1;fill-opacity:0.17699115"
     d="m 25.379237,377.33263 13.213983,-3.77543 18.457628,-2.72669 30.832627,0.41949 17.828385,3.56568 8.59958,1.04873 -5.45339,4.19491 -8.59958,4.19492 -13.423724,2.09745 -19.925848,0.62924 -20.76483,-1.88771 z"
     id="path7300"
     inkscape:connector-curvature="0" />
  <path
     style="fill:#ab6a09;stroke:none;stroke-width:1px;stroke-linecap:butt;stroke-linejoin:miter;stroke-opacity:1;fill-opacity:0.50000000000000000;filter:url(#filter7574)"
     d="m 116.82839,333.07627 -0.62924,5.87288 14.05297,-0.83898 -1.88771,-6.29237 -2.30721,-8.18009 5.45339,0.62924 -0.20974,8.38983 2.3072,5.24364 10.69703,7.34111 40.27119,4.19491 10.0678,-0.83898 3.35593,-7.97034 -4.82415,-13.21398 -32.72034,2.51694 -36.49576,-8.59957 z"
     id="path7572"
     inkscape:connector-curvature="0" />
</svg>
