<?xml version="1.0" encoding="UTF-8" standalone="no"?>
<!-- Created with Inkscape (http://www.inkscape.org/) -->

<svg
   xmlns:dc="http://purl.org/dc/elements/1.1/"
   xmlns:cc="http://creativecommons.org/ns#"
   xmlns:rdf="http://www.w3.org/1999/02/22-rdf-syntax-ns#"
   xmlns:svg="http://www.w3.org/2000/svg"
   xmlns="http://www.w3.org/2000/svg"
   xmlns:sodipodi="http://sodipodi.sourceforge.net/DTD/sodipodi-0.dtd"
   xmlns:inkscape="http://www.inkscape.org/namespaces/inkscape"
   id="svg13727"
   version="1.1"
   inkscape:version="0.48.4 r9939"
   width="289"
   height="118"
   sodipodi:docname="Glasses.png">
  <metadata
     id="metadata13733">
    <rdf:RDF>
      <cc:Work
         rdf:about="">
        <dc:format>image/svg+xml</dc:format>
        <dc:type
           rdf:resource="http://purl.org/dc/dcmitype/StillImage" />
        <dc:title></dc:title>
      </cc:Work>
    </rdf:RDF>
  </metadata>
  <defs
     id="defs13731" />
  <sodipodi:namedview
     pagecolor="#ffffff"
     bordercolor="#666666"
     borderopacity="1"
     objecttolerance="10"
     gridtolerance="10"
     guidetolerance="10"
     inkscape:pageopacity="0"
     inkscape:pageshadow="2"
     inkscape:window-width="1278"
     inkscape:window-height="716"
     id="namedview13729"
     showgrid="false"
     inkscape:zoom="2.3183391"
     inkscape:cx="250.42216"
     inkscape:cy="41.006201"
     inkscape:window-x="1"
     inkscape:window-y="22"
     inkscape:window-maximized="0"
     inkscape:current-layer="svg13727" />
  <path
     style="fill:#ffaf00;fill-opacity:0.59793815;stroke:none"
     d="m 9.7601842,92.837024 c 0.7041708,3.284463 8.4697698,2.68918 14.6402768,1.52503 9.624499,-7.881108 18.237321,-17.601893 29.12805,-23.180438 l 43.615824,-7.93015 95.161795,-0.457509 53.98602,4.117578 c 11.11682,5.217669 17.41871,16.454001 25.62049,25.315478 l 2.44004,7.320138 c 4.40256,1.037749 6.53009,-3.232906 8.54016,-7.777646 -13.4858,-21.821272 -23.8645,-22.928543 -35.07566,-29.585559 l -39.65075,-1.830035 0.91502,-4.117578 45.14086,-4.880092 3.66006,-3.050057 c -33.37503,0.620365 -66.79187,4.626239 -100.19439,7.472641 -16.9026,1.412962 -32.92878,3.87762 -51.69848,3.050057 L 42.853309,53.491281 c -2.148165,1.406961 -5.501747,2.64172 -5.032595,4.422584 l 13.72526,1.525029 0.762514,7.625144 c -9.053127,0.449418 -16.64217,3.460986 -24.095455,6.710127 -6.043057,5.275361 -12.02031,9.892686 -18.4528488,19.062859 z"
     id="path14255"
     inkscape:connector-curvature="0"
     sodipodi:nodetypes="cccccccccccccccccccccc" />
  <path
     style="fill:#00e0ff;fill-opacity:0.29381445;stroke:none"
     d="m 170.95573,60.048905 c -5.41397,-35.080379 17.44246,-40.742594 40.71827,-45.140852 8.75676,2.076634 35.4829,-0.638031 34.77065,46.970887 -8.50843,21.978692 -19.06784,27.662628 -30.94764,28.560584 -23.32657,1.763178 -38.56268,-11.079584 -44.54128,-30.390619 z"
     id="path14249"
     inkscape:connector-curvature="0"
     sodipodi:nodetypes="cccsc" />
  <path
     style="fill:#00e0ff;fill-opacity:0.29381445;stroke:none"
     d="m 51.240968,53.338779 c 3.997504,-28.778134 19.966563,-37.741278 40.565766,-39.040738 34.064686,3.653418 29.373526,28.66797 34.000476,44.118 -3.18733,21.417604 -17.65315,32.835301 -33.480683,32.908213 -16.63321,0.07662 -41.895337,-7.980802 -41.085559,-37.985475 z"
     id="path13739"
     inkscape:connector-curvature="0"
     sodipodi:nodetypes="cccsc" />
  <path
     sodipodi:type="arc"
     style="fill:#ffaf00;fill-opacity:0.59793812;fill-rule:nonzero;stroke:none"
     id="path14251"
     sodipodi:cx="129.3987"
     sodipodi:cy="55.397568"
     sodipodi:rx="2.3637946"
     sodipodi:ry="2.5162976"
     d="m 131.76249,55.397568 a 2.3637946,2.5162976 0 1 1 -4.72759,0 2.3637946,2.5162976 0 1 1 4.72759,0 z" />
  <path
     sodipodi:type="arc"
     style="fill:#ffaf00;fill-opacity:0.59793815;fill-rule:nonzero;stroke:none"
     id="path14253"
     sodipodi:cx="167.44817"
     sodipodi:cy="51.966251"
     sodipodi:rx="2.1350403"
     sodipodi:ry="1.8300346"
     d="m 169.58321,51.966251 a 2.1350403,1.8300346 0 1 1 -4.27008,0 2.1350403,1.8300346 0 1 1 4.27008,0 z" />
  <path
     style="fill:#000000"
     d="m 273.11269,100.33772 c -0.6875,-0.27741 -1.25,-2.118359 -1.25,-4.090992 0,-3.012333 -1.00072,-4.668243 -6.25,-10.341946 -3.4375,-3.715437 -7.59437,-8.43557 -9.23749,-10.489184 -2.6791,-3.348415 -7.9613,-7.402037 -9.65826,-7.41186 -0.35517,-0.0021 -2.06117,2.201987 -3.79111,4.897874 -4.18086,6.515295 -12.0279,13.732568 -17.84591,16.413677 -3.89182,1.793461 -6.29204,2.136768 -13.71723,1.961999 -4.95,-0.11651 -11.16525,-0.865873 -13.81166,-1.665251 -9.43405,-2.849659 -20.96648,-12.836376 -25.28792,-21.898541 L 170.49227,64 l -22.06479,0.03406 -22.06479,0.03406 -3.79567,7.849019 c -5.53964,11.45534 -9.53677,15.350418 -18.70433,18.226784 C 92.416846,93.735109 82.699362,93.269631 72.674889,88.649993 64.471512,84.869582 57.666345,79.454777 55.252722,74.787346 l -1.480488,-2.862948 -4.886118,2.659359 c -2.687365,1.462647 -8.6271,6.482648 -13.199411,11.155558 -4.57231,4.67291 -9.3575,8.893207 -10.633755,9.378438 -1.276255,0.485232 -5.168024,0.882239 -8.648374,0.882239 -7.1431297,0 -8.2651597,-1.052002 -5.92761,-5.557635 1.86294,-3.590812 11.69524,-13.324931 16.88572,-16.717099 3.982481,-2.602697 16.960173,-6.725266 21.170884,-6.725266 2.842704,0 3.322071,-0.867982 2.498894,-4.524707 -0.664814,-2.953241 -0.72166,-2.975293 -7.669778,-2.975293 -6.328235,0 -7,-0.191514 -7,-1.995639 0,-2.363109 6.371586,-4.871258 10.773549,-4.240964 2.179311,0.312044 2.863355,-0.04857 3.19271,-1.683134 3.206442,-15.913326 5.338042,-20.332006 13.416172,-27.81093 6.201961,-5.741921 10.645362,-7.810034 20.934767,-9.743767 6.553629,-1.231652 17.709486,0.172662 22.978176,2.892524 8.62962,4.45487 16.33873,17.312802 17.73616,29.58191 l 0.68338,6 4.40013,0.203952 c 3.11346,0.144313 6.2255,-0.6596 10.64254,-2.749211 7.14785,-3.381506 9.33076,-3.563126 16.66118,-1.386226 2.90497,0.862683 6.02415,1.243524 6.9315,0.846313 0.90736,-0.397211 2.43724,-0.624757 3.39974,-0.505657 1.25341,0.155097 1.75,-0.485426 1.75,-2.257218 0,-3.815687 3.51411,-14.218783 5.77313,-17.090666 7.79304,-9.907241 20.8939,-15.561287 36.0567,-15.561287 7.84935,0 9.42744,0.337259 15.69838,3.354953 8.24027,3.965366 15.89574,11.541457 16.90334,16.728049 0.3651,1.879349 1.13724,5.554498 1.71587,8.166998 l 1.05206,4.75 4.31847,0 c 4.76838,0 7.48205,0.754872 7.48205,2.081309 0,1.328684 -5.58514,3.918691 -8.45034,3.918691 -2.34873,0 -2.54966,0.3487 -2.54966,4.424779 l 0,4.42478 4.96685,1.45599 c 6.52937,1.914028 17.01112,9.820297 24.78315,18.693656 6.32487,7.221136 7.15234,9.367846 5.13296,13.316536 -2.22782,4.356275 -6.17849,6.415887 -9.63296,5.021977 z m 6.29545,-3.792265 c 1.35,-1.35 2.45455,-3.174006 2.45455,-4.053347 0,-2.336851 -9.97476,-14.297717 -16.1618,-19.379823 -7.05232,-5.792855 -18.8382,-11.011931 -18.8382,-8.342013 0,0.542898 1.2375,1.510018 2.75,2.149156 3.56231,1.505327 9.77656,7.27852 11.63738,10.811419 0.8022,1.523034 3.96821,5.228781 7.03558,8.234993 4.4079,4.32001 5.57704,6.119375 5.57704,8.583333 0,5.148591 1.75968,5.782047 5.54545,1.996282 z M 23.605247,94.063836 c 0.683409,-0.03511 5.858409,-4.57367 11.5,-10.085689 5.641592,-5.512018 11.944939,-10.77362 14.007439,-11.692447 2.0625,-0.918828 3.75,-2.258994 3.75,-2.978148 0,-1.624685 -0.894783,-1.613914 -9,0.108345 -11.189749,2.377683 -16.736496,5.526835 -25.25,14.335625 -4.2625,4.410342 -7.75,8.490591 -7.75,9.067219 0,1.16223 3.89187,1.861268 8.5,1.526726 1.65,-0.119787 3.559153,-0.24652 4.242561,-0.281631 z m 75.86201,-4.62432 c 8.047253,-1.866283 11.028503,-3.323886 14.522173,-7.10024 2.98222,-3.223514 7.75563,-11.527748 8.9094,-15.499558 l 0.77279,-2.660281 -10.50645,-0.716121 c -7.84319,-0.534593 -11.55792,-0.368113 -14.654467,0.656757 -2.281409,0.755083 -4.373017,1.411154 -4.648017,1.457935 -0.275,0.04678 -1.625,0.362851 -3,0.702375 -1.375,0.339524 -5.460104,0.892863 -9.07801,1.229642 l -6.578009,0.612326 -3.766555,6.438824 C 69.368508,78.102529 67.484634,81 67.253727,81 c -0.230907,0 0.97156,-2.75633 2.672149,-6.125178 l 3.09198,-6.125179 -4.827585,0.698769 c -3.104253,0.449325 -5.485523,1.475695 -6.670672,2.875178 -1.409768,1.664725 -1.711028,1.764976 -1.281385,0.42641 0.393844,-1.227032 0.02321,-1.75 -1.240246,-1.75 -2.863874,0 -3.207119,1.067733 -1.358931,4.227239 2.19947,3.76003 9.057732,8.684769 16.723649,12.008815 9.477654,4.109639 14.851496,4.581308 25.104571,2.203462 z M 224.75776,87.038807 c 5.44876,-2.801997 10.96919,-8.187919 11.72363,-11.43796 0.51671,-2.225934 0.37324,-2.713899 -0.61785,-2.101375 -0.9596,0.59307 -1.15832,0.182297 -0.77443,-1.600847 0.28401,-1.319244 0.8323,-3.146769 1.21841,-4.061168 0.60041,-1.421902 -0.28561,-1.764898 -6.1214,-2.369702 -8.27599,-0.857699 -8.93975,-0.881577 -18.09524,-0.65094 L 204.81907,65 l -3.97819,6.155036 c -2.188,3.38527 -3.97819,5.723372 -3.97819,5.195781 0,-0.527591 1.37304,-3.124316 3.0512,-5.770501 1.67816,-2.646185 2.91566,-4.939582 2.75,-5.096437 -0.16566,-0.156855 -2.5512,-0.442396 -5.3012,-0.634535 -4.84472,-0.338494 -5.0543,-0.240645 -6.74845,3.150656 -1.40179,2.806074 -1.74875,3.065606 -1.75,1.309017 -8.5e-4,-1.205041 0.44845,-2.469098 0.99845,-2.809017 2.74247,-1.694938 0.158,-2.5 -8.02568,-2.5 l -9.02568,0 1.67329,3.25 c 2.91624,5.664182 8.2318,11.384101 14.47545,15.576604 10.25803,6.888095 26.80742,8.835411 35.79769,4.212203 z M 241.55225,71.593848 C 243.87352,68.009047 243.68001,67 240.67127,67 c -2.07063,0 -4.0841,4.118436 -3.17354,6.491316 0.8523,2.221057 1.62041,1.86159 4.05452,-1.897468 z M 62.862686,67.27221 c 1.324592,-1.300829 1.090714,-1.39113 -2,-0.77221 -1.925,0.385484 -4.168973,1.340727 -4.986607,2.122762 -1.293856,1.237522 -1.03454,1.337646 2,0.77221 1.917634,-0.357319 4.161607,-1.312562 4.986607,-2.122762 z M 73.751374,65.8233 c 1.313779,-0.483591 2.125569,-1.142377 1.803977,-1.463968 -0.836979,-0.836979 -10.692665,1.665878 -10.692665,2.715409 0,0.920591 4.838605,0.239363 8.888688,-1.251441 z M 56.827502,64.065741 C 58.295907,61.322003 58.156618,61 55.501358,61 c -1.979525,0 -2.284056,0.404225 -1.883423,2.5 0.5721,2.992749 1.795283,3.208356 3.209567,0.565741 z M 84.779353,64.36734 C 85.008519,64.165303 83.321019,64 81.029353,64 c -2.291667,0 -4.166667,0.470391 -4.166667,1.045313 0,0.938129 6.738079,0.361089 7.916667,-0.677973 z M 63.928427,63.964816 C 66.780755,62.438297 66.280809,61 62.89787,61 c -1.941361,0 -3.334308,0.690401 -4.035184,2 -0.912493,1.705009 -0.76049,2 1.030558,2 1.155509,0 2.971341,-0.465833 4.035183,-1.035184 z m 180.934263,0.03518 c 0,-0.55 -1.125,-1 -2.5,-1 -1.375,0 -2.5,0.45 -2.5,1 0,0.55 1.125,1 2.5,1 1.375,0 2.5,-0.45 2.5,-1 z m -171.3592,-1 c 1.912477,0 3.23704,-0.388636 2.943473,-0.863636 -0.933292,-1.510099 -8.421178,-1.003776 -9.040956,0.61134 -0.398622,1.038792 -0.09488,1.294189 1.027126,0.863637 0.87622,-0.336238 3.157881,-0.611341 5.070357,-0.611341 z m 16.215959,-0.109687 c -1.766006,-1.118997 -3.856763,-1.127298 -3.856763,-0.01531 0,0.48125 1.173043,0.875 2.606763,0.875 1.839672,0 2.207509,-0.25298 1.25,-0.85969 z m 148.143241,0.109687 c 0,-0.594159 -3.14526,-0.936241 -7.75,-0.842896 -7.29037,0.147786 -7.45347,0.197775 -2.75,0.842896 7.86065,1.078156 10.5,1.078156 10.5,0 z m -32.5,-1 c 0.38664,-0.625605 -1.55683,-0.973686 -5.19098,-0.929715 -4.17015,0.05046 -5.24477,0.312752 -3.80902,0.929715 2.7931,1.200235 8.25821,1.200235 9,0 z m 5.59068,0.07721 c -0.77512,-0.490691 -2.01262,-0.660656 -2.75,-0.377698 -2.11462,0.811459 -1.57691,1.301806 1.40932,1.285178 2.00139,-0.01114 2.36635,-0.258181 1.34068,-0.90748 z M 124.36269,61 c 0.39805,-0.644053 -2.69548,-0.934727 -8.69098,-0.81662 l -9.30902,0.183379 8,0.633241 c 4.4,0.348282 8.31094,0.715762 8.69098,0.81662 0.38004,0.100859 0.9691,-0.26662 1.30902,-0.81662 z m 45.5,-0.02735 c 0,-0.676624 -7.33988,-0.968512 -21.5,-0.854996 -11.825,0.09479 -21.5,0.557101 -21.5,1.02735 0,0.470248 9.675,0.854996 21.5,0.854996 14.04827,0 21.5,-0.356072 21.5,-1.02735 z m 18.75,0.292313 c -2.6125,-0.205999 -6.8875,-0.205999 -9.5,0 -2.6125,0.205998 -0.475,0.374543 4.75,0.374543 5.225,0 7.3625,-0.168545 4.75,-0.374543 z m -82.75,-1.11528 c 0,-0.467674 -2.8125,-0.881542 -6.250004,-0.919705 -4.54621,-0.05047 -5.568484,0.154155 -3.75,0.750636 3.383893,1.109952 10.000004,1.22181 10.000004,0.169069 z m 139.59698,-6.739063 -9.70521,0.920392 c -2.97026,0.281684 -9.89177,0.89593 -15.39177,1.261427 -9.01931,0.599371 -11.43669,1.363613 -11.48469,3.630828 -0.0172,0.810524 36.52624,1.531584 36.52624,1.531584 0,0 -0.52897,-4.979767 0.0554,-7.344231 z M 87.612686,59.310674 c -0.9625,-0.251527 -2.5375,-0.251527 -3.5,0 -0.9625,0.251528 -0.175,0.457323 1.75,0.457323 1.925,0 2.7125,-0.205795 1.75,-0.457323 z m -30,-0.94096 c 1.2375,-0.331637 2.25,-1.030383 2.25,-1.552768 0,-1.391895 -5.273475,-0.537091 -5.756214,0.933054 -0.456544,1.390368 0.198505,1.506146 3.506214,0.619714 z M 68.362686,58 c 0.350523,-0.567158 -0.489616,-1 -1.940983,-1 -1.407459,0 -2.885267,-0.03375 -3.284017,-0.075 -0.39875,-0.04125 -0.88625,0.40875 -1.083333,1 -0.454278,1.362834 5.468885,1.433255 6.308333,0.075 z m 7,-0.02087 c -2.245951,-0.444063 -4.416587,-0.393635 -4.95,0.114999 -0.573099,0.546475 1.013853,0.860242 4,0.790868 l 4.95,-0.114999 z m 118.750004,0.358585 c -0.6875,-0.277412 -1.8125,-0.277412 -2.5,0 -0.6875,0.277413 -0.125,0.504386 1.25,0.504386 1.375,0 1.9375,-0.226973 1.25,-0.504386 z m 13.46544,-0.969846 c 0.25744,-0.782136 -1.10941,-0.976325 -4.4214,-0.62815 -6.91674,0.727127 -8.05823,2.446498 -1.37264,2.067561 2.98177,-0.169006 5.58908,-0.816741 5.79404,-1.439411 z M 50.522857,56.522588 C 50.014664,55.05826 40.1209,55.338435 38.620405,56.859645 c -1.018013,1.032067 0.03018,1.218902 5.49981,0.980306 4.052109,-0.17676 6.615448,-0.704175 6.402642,-1.317363 z M 124.45199,54.75 c -0.27573,-1.7875 -0.78551,-5.5 -1.13284,-8.25 -1.02796,-8.138865 -6.96167,-20.767644 -11.45408,-24.377848 -5.10621,-4.10346 -7.17961,-4.898841 -15.637053,-5.998564 -19.348659,-2.515909 -35.394144,7.044102 -41.279925,24.594867 -2.199465,6.558565 -2.687878,11.791163 -1.187166,12.718654 0.494033,0.305329 2.389177,-1.805614 4.211432,-4.690983 5.126021,-8.11657 11.014594,-15.955194 11.569264,-15.400523 0.275566,0.275565 -2.464464,4.630946 -6.088954,9.678624 -3.62449,5.047678 -6.589982,9.582186 -6.589982,10.076684 0,0.494499 1.080551,0.899089 2.401224,0.899089 1.691596,0 3.02147,-1.051239 4.5,-3.55716 1.154327,-1.956438 2.098776,-4.179881 2.098776,-4.940983 0,-1.496907 1.818387,-3.016803 2.633764,-2.201426 0.275386,0.275386 -0.654553,2.780487 -2.066531,5.566891 -1.411978,2.786405 -2.567233,5.30615 -2.567233,5.599434 0,0.293284 1.58228,0.533244 3.516179,0.533244 3.033912,0 3.745097,-0.480048 5.185212,-3.5 0.917968,-1.925 2.035688,-3.5 2.483821,-3.5 1.153225,0 0.96146,1.119449 -0.685212,4 -2.078907,3.636667 -1.884545,4 2.139757,4 2.271199,0 4.161461,-0.658005 5.027255,-1.75 1.300506,-1.640281 1.370114,-1.624607 1.110243,0.25 -0.260453,1.878795 0.449974,2.033262 11.722745,2.548863 6.600004,0.301875 16.182894,0.639375 21.295314,0.75 L 124.95332,58 z m 44.4107,2.221865 c 0,-0.945394 -23.79666,-0.309998 -24.91667,0.665302 -0.22916,0.199558 5.28334,0.362833 12.25,0.362833 8.00886,0 12.66667,-0.378067 12.66667,-1.028135 z m 13.55887,-0.440062 c 1.8229,-1.37877 1.72033,-1.470133 -1.68387,-1.5 -4.87291,-0.04275 -9.875,1.017538 -9.875,2.093197 0,1.466482 9.47888,0.98003 11.55887,-0.593197 z M 130.86269,55.5 c 0,-0.825 -0.42344,-1.5 -0.94098,-1.5 -1.26098,0 -2.1641,1.561589 -1.36517,2.36052 1.12619,1.126184 2.30615,0.68589 2.30615,-0.86052 z m 21.17095,-0.309992 c 9.91479,-0.641113 14.04402,-1.613618 10.72218,-2.525257 -0.76622,-0.21028 -3.00008,-0.895872 -4.96413,-1.523539 -5.77854,-1.846695 -11.55498,-1.343489 -18.46772,1.608788 -7.42,3.168922 -8.34398,4.75467 -2.21128,3.795043 2.3375,-0.365765 9.05193,-0.975531 14.92095,-1.355035 z M 190.22432,55.5 c 0.60542,-1.577702 -1.00443,-1.958038 -3.77984,-0.893011 C 184.05073,55.525554 184.55057,57 187.2557,57 c 1.31616,0 2.65203,-0.675 2.96862,-1.5 z m 7.17949,-0.566531 c 0.36253,-0.586592 0.41005,-1.315636 0.10559,-1.620097 -0.85163,-0.851624 -5.64671,0.596808 -5.64671,1.70568 0,1.326261 4.71354,1.25346 5.54112,-0.08558 z m 16.78679,-0.956887 c 6.69465,-0.56288 13.97209,-1.215012 16.17209,-1.449183 2.2,-0.234171 5.6875,-0.448633 7.75,-0.476582 2.0625,-0.02795 3.75,-0.500817 3.75,-1.050817 0,-2.383693 -39.63651,0.236509 -42.18893,2.788933 -1.51387,1.513866 -1.29089,1.516748 14.51684,0.187649 z M 182.82083,53 c 2.00352,0 3.11203,-0.819457 4.39637,-3.25 1.60149,-3.03071 1.69031,-2.366073 0.18339,1.372422 -0.53034,1.315718 -0.15166,1.526399 2.00318,1.114476 1.8437,-0.352446 3.69473,-2.129941 6.04642,-5.806226 1.8641,-2.914053 3.89546,-5.611124 4.51414,-5.99349 0.61868,-0.382366 -0.4955,1.837846 -2.47596,4.933804 L 193.88753,51 l 2.65884,0 c 1.46236,0 3.50114,-0.76227 4.53061,-1.693933 1.51305,-1.369292 1.75999,-1.402623 1.28849,-0.173916 -0.50627,1.319332 0.31322,1.403705 6.20697,0.639049 3.73464,-0.484533 12.86525,-1.193771 20.29025,-1.576085 l 15.76455,-1.018622 -1.77573,-7.300064 c -1.9812,-8.144748 -2.69522,-11.645224 -8.47966,-16.199577 -7.27945,-5.731449 -12.03417,-7.178775 -23.50916,-7.15614 -12.3975,0.02445 -19.33445,2.192121 -27.73777,8.667528 -7.84201,6.042874 -10.15155,10.714755 -11.71854,23.70501 l -0.65058,5.393249 4.69302,-0.643249 C 178.02997,53.289462 181.34738,53 182.82083,53 z m 10.59423,-16.104266 c 2.51484,-5.007346 4.79717,-8.879525 5.07186,-8.604842 C 198.99366,28.797641 190.03265,46 189.26192,46 c -0.23061,0 1.6383,-4.09692 4.15314,-9.104266 z M 168.86269,51.5 c 0,-0.825 -0.675,-1.5 -1.5,-1.5 -0.825,0 -1.5,0.675 -1.5,1.5 0,0.825 0.675,1.5 1.5,1.5 0.825,0 1.5,-0.675 1.5,-1.5 z m 86,-1.5 c 1.09851,-0.709914 0.36246,-0.973473 -2.75,-0.984687 -2.3375,-0.0084 -4.25,0.434687 -4.25,0.984687 0,1.276013 5.02551,1.276013 7,0 z"
     id="path13737"
     inkscape:connector-curvature="0"
     sodipodi:nodetypes="cssscssssscccsssscsssssssssssssssscssssssssssscsssscsssccssssssssssssssssssssscssssscssscsssssssssssssscssssssssscssssssssssssssssssssssssssssssssssssssssssssssssssssssssscsssssssssssssssscsscccsssssssssssssssscssssscsscssssssssssssssssssssssssssssscsscssssssssssssssssssssssssssssssssssssscssssscssssscssscsssssssssss" />
</svg>
