<?xml version="1.0" encoding="UTF-8" standalone="no"?>
<!-- Created with Inkscape (http://www.inkscape.org/) -->

<svg
   xmlns:dc="http://purl.org/dc/elements/1.1/"
   xmlns:cc="http://creativecommons.org/ns#"
   xmlns:rdf="http://www.w3.org/1999/02/22-rdf-syntax-ns#"
   xmlns:svg="http://www.w3.org/2000/svg"
   xmlns="http://www.w3.org/2000/svg"
   xmlns:sodipodi="http://sodipodi.sourceforge.net/DTD/sodipodi-0.dtd"
   xmlns:inkscape="http://www.inkscape.org/namespaces/inkscape"
   id="svg7764"
   version="1.1"
   inkscape:version="0.48.4 r9939"
   width="198"
   height="128"
   sodipodi:docname="GoldBar.png">
  <metadata
     id="metadata7770">
    <rdf:RDF>
      <cc:Work
         rdf:about="">
        <dc:format>image/svg+xml</dc:format>
        <dc:type
           rdf:resource="http://purl.org/dc/dcmitype/StillImage" />
        <dc:title></dc:title>
      </cc:Work>
    </rdf:RDF>
  </metadata>
  <defs
     id="defs7768">
    <filter
       inkscape:collect="always"
       id="filter8498"
       x="-0.078305157"
       width="1.1566103"
       y="-0.1477872"
       height="1.2955744">
      <feGaussianBlur
         inkscape:collect="always"
         stdDeviation="1.2920351"
         id="feGaussianBlur8500" />
    </filter>
    <filter
       inkscape:collect="always"
       id="filter8508"
       x="-0.20444481"
       width="1.4088896"
       y="-0.2713012"
       height="1.5426024">
      <feGaussianBlur
         inkscape:collect="always"
         stdDeviation="7.0487693"
         id="feGaussianBlur8510" />
    </filter>
    <filter
       inkscape:collect="always"
       id="filter8524"
       x="-0.1682986"
       width="1.3365972"
       y="-0.10697435"
       height="1.2139487">
      <feGaussianBlur
         inkscape:collect="always"
         stdDeviation="0.52000361"
         id="feGaussianBlur8526" />
    </filter>
    <filter
       inkscape:collect="always"
       id="filter8538"
       x="-0.34659953"
       width="1.6931991"
       y="-0.23300808"
       height="1.4660162">
      <feGaussianBlur
         inkscape:collect="always"
         stdDeviation="4.8284984"
         id="feGaussianBlur8540" />
    </filter>
    <filter
       inkscape:collect="always"
       id="filter8552"
       x="-0.23417896"
       width="1.4683579"
       y="-0.34404075"
       height="1.6880815">
      <feGaussianBlur
         inkscape:collect="always"
         stdDeviation="3.4314213"
         id="feGaussianBlur8554" />
    </filter>
    <filter
       inkscape:collect="always"
       id="filter8562"
       x="-0.33075948"
       width="1.661519"
       y="-0.16048683"
       height="1.3209737">
      <feGaussianBlur
         inkscape:collect="always"
         stdDeviation="3.3396826"
         id="feGaussianBlur8564" />
    </filter>
    <filter
       inkscape:collect="always"
       id="filter8594"
       x="-0.45760928"
       width="1.9152186"
       y="-0.23760481"
       height="1.4752096">
      <feGaussianBlur
         inkscape:collect="always"
         stdDeviation="6.0855204"
         id="feGaussianBlur8596" />
    </filter>
    <filter
       inkscape:collect="always"
       id="filter8600"
       x="-0.12928299"
       width="1.258566"
       y="-0.22771434"
       height="1.4554287">
      <feGaussianBlur
         inkscape:collect="always"
         stdDeviation="1.744766"
         id="feGaussianBlur8602" />
    </filter>
    <filter
       inkscape:collect="always"
       id="filter8618"
       x="-0.36472269"
       width="1.7294454"
       y="-0.23301745"
       height="1.4660349">
      <feGaussianBlur
         inkscape:collect="always"
         stdDeviation="1.0329281"
         id="feGaussianBlur8620" />
    </filter>
    <filter
       inkscape:collect="always"
       id="filter8628"
       x="-0.18071091"
       width="1.3614218"
       y="-0.32856523"
       height="1.6571305">
      <feGaussianBlur
         inkscape:collect="always"
         stdDeviation="2.2028073"
         id="feGaussianBlur8630" />
    </filter>
    <filter
       inkscape:collect="always"
       id="filter8638"
       x="-0.23730059"
       width="1.4746012"
       y="-0.13318846"
       height="1.2663769">
      <feGaussianBlur
         inkscape:collect="always"
         stdDeviation="2.9339406"
         id="feGaussianBlur8640" />
    </filter>
    <filter
       inkscape:collect="always"
       id="filter8652"
       x="-0.36746568"
       width="1.7349314"
       y="-0.22444028"
       height="1.4488806">
      <feGaussianBlur
         inkscape:collect="always"
         stdDeviation="4.6558819"
         id="feGaussianBlur8654" />
    </filter>
  </defs>
  <sodipodi:namedview
     pagecolor="#ffffff"
     bordercolor="#666666"
     borderopacity="1"
     objecttolerance="10"
     gridtolerance="10"
     guidetolerance="10"
     inkscape:pageopacity="0"
     inkscape:pageshadow="2"
     inkscape:window-width="1276"
     inkscape:window-height="750"
     id="namedview7766"
     showgrid="false"
     inkscape:zoom="1.6919192"
     inkscape:cx="105.14428"
     inkscape:cy="56.235041"
     inkscape:window-x="0"
     inkscape:window-y="22"
     inkscape:window-maximized="0"
     inkscape:current-layer="svg7764" />
  <path
     style="fill:#ceb90c;fill-opacity:1;stroke:none"
     d="m 24.232836,41.41194 c 12.336186,-0.871582 23.624822,4.125306 35.610447,6.058209 9.196849,-6.630657 21.04447,-12.589857 38.861195,-12.559701 l 37.235822,3.841791 c 13.14352,-2.702381 25.60128,-7.11918 40.19104,-6.20597 8.34521,10.830462 -4.38986,46.298504 -9.9,69.447761 l -15.81044,12.70746 c -36.34944,3.58813 -70.825815,9.21854 -108.161198,-0.59104 l -8.717911,-7.9791 C 27.976195,87.356352 17.464862,65.527561 19.356717,52.789552 20.589366,48.778835 19.814641,43.65291 24.232836,41.41194 z"
     id="path7776"
     inkscape:connector-curvature="0"
     sodipodi:nodetypes="ccccccccccc" />
  <path
     style="fill:#fff200;fill-opacity:1;stroke:none;filter:url(#filter8524)"
     d="m 29.7,43.628358 c -3.67464,5.622377 0.147761,11.525373 0.147761,11.525373 -2.541059,-2.187299 -7.841842,-4.422337 -7.388059,-9.604477 2.413433,-1.42615 4.826865,-2.44876 7.240298,-1.920896 z"
     id="path8486"
     inkscape:connector-curvature="0"
     sodipodi:nodetypes="cccc"
     transform="matrix(2.1330168,0,0,1.2712661,-24.002178,-11.458087)" />
  <path
     style="fill:#fff200;fill-opacity:1;stroke:none;filter:url(#filter8508)"
     d="m 22.623496,60.271066 c 30.157361,11.668215 63.29142,16.787691 101.791434,10.102068 l 41.37313,-13.59403 5.61493,-5.614925 -4.23872,33.985075 -12.09542,22.033066 -23.99417,6.46564 c -29.30882,2.63613 -57.351101,10.54736 -91.241727,-5.14374 z"
     id="path8502"
     inkscape:connector-curvature="0"
     sodipodi:nodetypes="ccccccccc" />
  <path
     style="fill:#fff200;fill-opacity:1;stroke:none;filter:url(#filter8498)"
     d="m 119.14623,38.471567 c 9.52043,2.023657 20.23512,6.388493 32.70772,15.647836 C 138.00734,65.771193 72.123549,70.361969 49.953472,61.60887 71.228167,35.700982 88.484084,35.170119 119.14623,38.471567 z"
     id="path8496"
     inkscape:connector-curvature="0"
     sodipodi:nodetypes="cccc" />
  <path
     style="fill:#797300;fill-opacity:1;stroke:none;filter:url(#filter8538)"
     d="m 110.94964,70.253711 17.97106,3.761385 -5.43311,18.388998 5.01518,15.045546 8.77657,10.03036 -28.83729,-4.17932 4.17931,-20.896586 -6.6869,-14.20968 -2.08966,-10.448294 z"
     id="path8528"
     inkscape:connector-curvature="0" />
  <path
     style="fill:#797300;stroke:none;stroke-width:1px;stroke-linecap:butt;stroke-linejoin:miter;stroke-opacity:1;fill-opacity:1;filter:url(#filter8552)"
     d="m 95.453731,40.229851 8.570149,3.546268 5.3194,7.979105 3.25075,8.274627 -2.06866,4.137313 8.86567,-2.955224 11.22986,-1.182089 -5.61493,-8.865672 -8.57015,-5.319403 z"
     id="path8542"
     inkscape:connector-curvature="0" />
  <path
     style="fill:#878207;fill-opacity:0.90594058;stroke:none;filter:url(#filter8600)"
     d="m 154.84372,35.219147 -1.04483,4.59725 1.2538,6.06001 5.01518,1.462761 8.14967,-0.208965 -8.98554,6.477942 -22.56831,-13.373816 z"
     id="path8598"
     inkscape:connector-curvature="0"
     sodipodi:nodetypes="cccccccc" />
  <path
     style="fill:#fff77b;fill-opacity:1;stroke:none;filter:url(#filter8652)"
     d="m 72.99403,69.191045 16.844776,0 C 82.987519,83.350168 84.235847,108.35018 97.226866,117.95224 57.422728,129.94586 49.69145,87.89867 72.99403,69.191045 z"
     id="path8642"
     inkscape:connector-curvature="0"
     sodipodi:nodetypes="cccc" />
  <path
     style="fill:#000000"
     d="m 64.680596,120.36663 c -4.125,-0.40606 -9.75,-1.44704 -12.5,-2.31328 -2.75,-0.86624 -5.94914,-1.57985 -7.10921,-1.58581 -2.50497,-0.0129 -10.88901,-7.13084 -12.80969,-10.87533 -2.30122,-4.48636 -11.53716,-32.047512 -13.22258,-39.457739 -1.80447,-7.933652 -1.23295,-18.683089 1.19034,-22.388491 3.21421,-4.914787 15.40085,-4.657992 33.37159,0.703202 l 6.42045,1.915407 3.24759,-2.851422 c 4.00337,-3.51501 11.27703,-6.294579 22.41151,-8.564374 11.00947,-2.244313 30.008104,-1.620059 41.197824,1.353672 l 7.69782,2.045738 11.80218,-2.978383 c 12.23908,-3.088638 29.72394,-4.779686 32.14326,-3.108735 2.3371,1.61417 1.79317,16.205934 -1.14424,30.695631 -7.77038,38.329834 -7.95163,38.881674 -14.55409,44.311594 -8.67815,7.13701 -11.28502,8.50161 -18.7064,9.79215 -13.39115,2.32866 -66.789594,4.55112 -79.436354,3.30617 z m 45.615344,-2.94243 c 22.167,-1.09591 34.02364,-2.42297 35.95281,-4.02404 0.6481,-0.53787 1.88014,-0.70864 2.73789,-0.3795 0.94228,0.36159 3.66406,-0.97097 6.87675,-3.3668 8.76002,-6.53269 10.76634,-9.23265 12.87222,-17.32247 2.62549,-10.085878 8.62496,-40.178181 9.30815,-46.688024 l 0.55762,-5.313351 -2.79997,2.813351 c -5.12052,5.144981 -10.87715,9.246712 -17.78535,12.672452 -12.75814,6.326704 -13.8925,6.721384 -34.78546,12.103026 -7.15027,1.841778 -45.071534,2.194333 -58.550004,0.544342 -18.95918,-2.320922 -33.18091,-6.726728 -42.0121,-13.015088 l -2.9879,-2.12757 0.0151,3.318094 c 0.0334,7.332858 12.08349,43.444288 16.7477,50.189098 3.67533,5.3148 5.31187,6.19654 16.7591,9.02946 11.67526,2.88935 23.6814,3.21888 57.093434,1.56702 z m -52.050584,-3.8627 c -0.3043,-0.49236 0.14252,-1.16221 0.99292,-1.48854 0.85041,-0.32633 1.28928,-0.17763 0.97527,0.33044 -0.314,0.50807 0.90012,1.1059 2.69807,1.32851 l 3.26898,0.40474 -3.69098,0.16003 c -2.03004,0.088 -3.93996,-0.24281 -4.24426,-0.73518 z m -11.48143,-3.46114 c 0.22917,-0.196 1.99167,-0.64537 3.91667,-0.99861 2.46243,-0.45185 3.05533,-0.35074 2,0.34105 -1.35564,0.88866 -6.90843,1.50578 -5.91667,0.65756 z m -0.8143,-2.33664 c 0.97297,-0.25354 2.32297,-0.23686 3,0.0371 0.67703,0.27393 -0.11903,0.48138 -1.76903,0.461 -1.65,-0.0204 -2.20394,-0.2445 -1.23097,-0.49805 z m 1.78913,-1.04471 c -1.89301,-0.22969 -4.35564,-1.05768 -5.47251,-1.83996 -2.00953,-1.40754 -2.00692,-1.42233 0.25086,-1.42233 1.47371,0 2.02816,0.40995 1.56594,1.15783 -0.52269,0.84573 0.74179,1.01439 4.69099,0.62567 2.97361,-0.29268 4.55374,-0.31813 3.51141,-0.0566 -1.52215,0.382 -1.62056,0.64947 -0.5,1.35902 0.76733,0.48588 0.94515,0.81828 0.39515,0.73869 -0.55,-0.0796 -2.54883,-0.33266 -4.44184,-0.56236 z m 43.67999,-1.66758 c -3.16902,-0.68072 -5.94557,-1.05396 -6.1701,-0.82943 -0.22453,0.22453 -1.21712,-0.82626 -2.20575,-2.3351 -2.27354,-3.469859 -2.5201,-13.323581 -0.39747,-15.885103 1.30759,-1.577964 2.93081,-1.716904 15.12221,-1.294388 7.511564,0.260327 14.147464,0.776204 14.746444,1.146393 1.45339,0.898245 2.52278,6.905081 1.69411,9.515975 -0.608,1.915634 -1.37507,2.078754 -9.34498,1.987264 -9.327164,-0.10708 -13.326044,-0.83061 -13.886694,-2.512567 -0.38346,-1.15039 13.153524,-0.997066 17.029054,0.192877 1.19627,0.367301 1.83655,0.310936 1.42285,-0.125256 -0.4137,-0.436192 0.0363,-1.676899 1,-2.757128 1.69799,-1.903307 1.67486,-1.943001 -0.74782,-1.283402 -2.20034,0.599063 -2.27585,0.541056 -0.63002,-0.483933 1.51233,-0.94185 1.60796,-1.330563 0.5,-2.032436 -0.75349,-0.47732 -1.81998,-0.867854 -2.36998,-0.867854 -0.55,0 -0.325,0.436218 0.5,0.969374 1.22226,0.789887 1.09882,0.97221 -0.66667,0.984687 -1.19166,0.0084 -2.31851,-0.44024 -2.50411,-0.997027 -0.1856,-0.556788 -3.96502,-1.292079 -8.398734,-1.633982 -8.79571,-0.678276 -12.43049,0.374312 -12.43049,3.599718 0,3.018623 1.11614,5.089463 2.35479,4.368966 0.62986,-0.366383 0.38048,0.20898 -0.5542,1.278583 -2.23545,2.55816 -0.82994,5.498229 1.64609,3.44331 1.38806,-1.15199 1.50539,-1.07752 0.88898,0.564299 -0.62186,1.65636 -0.5048,1.7245 0.94186,0.54825 1.40836,-1.145099 2.08551,-1.034489 4.5916,0.75 2.48884,1.77221 4.4011,2.0932 12.470154,2.0932 14.63977,0 16.04347,-1.06517 16.18084,-12.278501 0.0546,-4.454467 -0.23793,-5.660027 -1.27659,-5.261455 -0.87933,0.337428 -1.07886,0.08679 -0.57439,-0.721502 0.42516,-0.6812 0.89451,-2.018199 1.043,-2.971107 0.2547,-1.634361 0.15715,-1.635935 -1.72107,-0.02776 -2.44235,2.091205 -2.48002,2.34958 -0.24106,1.653431 1.6162,-0.502519 1.6136,-0.456635 -0.034,0.600127 -1.45996,0.936382 -2.15502,0.723023 -3.82619,-1.174495 -1.12318,-1.275308 -1.75949,-1.761396 -1.41402,-1.080196 0.41368,0.815697 0.0983,1.035226 -0.92381,0.643011 -0.85361,-0.327544 -1.55198,-0.998887 -1.55198,-1.491874 0,-1.398925 -35.074814,-0.234872 -36.401054,1.208067 -0.82442,0.896975 -0.72424,1.015582 0.40105,0.474797 0.94642,-0.454827 0.86128,-0.196701 -0.23071,0.699431 -2.35961,1.936398 -2.14699,14.082227 0.23071,13.179207 1.20157,-0.456337 1.25131,-0.31915 0.25,0.68957 -1.38936,1.39964 -1.71457,3.264399 -0.43094,2.471079 0.45048,-0.278419 0.62154,0.83955 0.38013,2.48436 -1.12786,7.68461 -5.14568,-2.907029 -5.1799,-13.655064 -0.0308,-9.677294 -0.58714,-9.41934 23.02048,-10.673898 12.852164,-0.682991 22.319464,-0.745757 25.460234,-0.168796 l 5,0.918504 0.79467,7.291572 c 0.62763,5.75887 0.43134,8.515477 -0.9338,13.114093 l -1.72847,5.822509 -6.5662,0.62034 c -9.52955,0.90029 -17.763094,0.63944 -24.328054,-0.77074 z m -44.92565,-1.27783 c 0.72188,-0.28887 1.58438,-0.25334 1.91667,0.079 0.33229,0.33229 -0.25834,0.56864 -1.3125,0.52522 -1.16495,-0.048 -1.4019,-0.28494 -0.60417,-0.60417 z m -6.05084,-4.024149 c 1.24391,-0.23919 3.04391,-0.23011 4,0.0202 0.95609,0.250299 -0.0617,0.445999 -2.26166,0.434899 -2.2,-0.0111 -2.98225,-0.215879 -1.73834,-0.455079 z m 76.238344,-0.13222 c 0,-0.46172 1.125,-1.35207 2.5,-1.97856 2.8871,-1.315451 3.14474,-0.96956 0.92857,1.24662 -1.70537,1.705369 -3.42857,2.073239 -3.42857,0.73194 z m -78.000004,-3.16051 c -2.00973,-0.643634 -2.10778,-0.806409 -0.5,-0.83004 1.1,-0.01617 2.9,0.357349 4,0.83004 2.54823,1.09501 -0.0808,1.09501 -3.5,0 z m 80.548184,-2.609378 c 0.0572,-1.306889 0.47942,-2.716916 0.93825,-3.133394 0.45882,-0.416478 0.51052,-0.194733 0.11488,0.492767 -0.39564,0.6875 -0.31779,1.25 0.17301,1.25 1.28651,0 1.1008,2.833945 -0.2189,3.340361 -0.63788,0.244775 -1.06694,-0.585785 -1.00724,-1.949734 z m -76.048184,0.609373 -3,-0.76337 2.69098,-0.118315 c 1.48004,-0.06507 2.9691,0.331685 3.30902,0.881685 0.33992,0.55 0.47898,0.946758 0.30902,0.881685 -0.16996,-0.06507 -1.65902,-0.461831 -3.30902,-0.881685 z m -5.6875,-1.683114 c 0.72188,-0.288871 1.58438,-0.253344 1.91667,0.07895 0.33229,0.332292 -0.25834,0.568641 -1.3125,0.52522 -1.16495,-0.04798 -1.4019,-0.284941 -0.60417,-0.604167 z m 47.6875,-0.316886 c 0.33992,-0.55 1.06803,-1 1.61803,-1 0.55,0 0.72189,0.45 0.38197,1 -0.33992,0.55 -1.06803,1 -1.61803,1 -0.55,0 -0.72189,-0.45 -0.38197,-1 z m -49.23097,-1.692991 c 0.97297,-0.253543 2.32297,-0.236869 3,0.03705 0.67703,0.273927 -0.11903,0.481372 -1.76903,0.460992 -1.65,-0.02038 -2.20394,-0.244498 -1.23097,-0.498042 z m -2.26903,-2.106208 c 0,-0.43956 1.575,-0.615327 3.5,-0.390594 1.925,0.224733 3.5,0.584372 3.5,0.799199 0,0.214827 -1.575,0.390594 -3.5,0.390594 -1.925,0 -3.5,-0.35964 -3.5,-0.799199 z m 85.733334,-0.324889 c 0.67834,-0.683418 1.48524,-0.990671 1.79313,-0.682784 0.30789,0.307887 -0.24711,0.867048 -1.23333,1.242579 -1.4252,0.542685 -1.54006,0.427821 -0.5598,-0.559795 z M 37.180596,86.456716 c -1.63041,-0.70061 -1.68751,-0.872418 -0.30902,-0.929715 0.93004,-0.03866 1.9691,0.379715 2.30902,0.929715 0.71066,1.149879 0.67591,1.149879 -2,0 z m -2,-4 c -1.26064,-0.541715 -1.44548,-0.859429 -0.5,-0.859429 0.825,0 2.4,0.386743 3.5,0.859429 1.26064,0.541715 1.44548,0.859429 0.5,0.859429 -0.825,0 -2.4,-0.386743 -3.5,-0.859429 z m 4.25,-1.662281 c 0.6875,-0.277412 1.8125,-0.277412 2.5,0 0.6875,0.277413 0.125,0.504386 -1.25,0.504386 -1.375,0 -1.9375,-0.226973 -1.25,-0.504386 z m -3.75,-1.337719 c 3.41917,-1.09501 6.04823,-1.09501 3.5,0 -1.1,0.472686 -2.9,0.846202 -4,0.830035 -1.60778,-0.02363 -1.50973,-0.186406 0.5,-0.830035 z m -3.51359,-2.021997 c -0.948,-1.533893 1.28968,-2.964973 4.51359,-2.886612 2.23924,0.05443 2.13494,0.210622 -1,1.497517 -3.40387,1.397291 -3.41761,1.42459 -0.5,0.993953 1.65,-0.24354 3.9,-0.765544 5,-1.160009 1.39839,-0.50147 1.6992,-0.395541 1,0.352154 -1.60415,1.715423 -8.15643,2.589921 -9.01359,1.202997 z m -1.67391,-3.661117 c 0.72188,-0.288871 1.58438,-0.253344 1.91667,0.07895 0.33229,0.332292 -0.25834,0.568641 -1.3125,0.52522 -1.16495,-0.04798 -1.4019,-0.284941 -0.60417,-0.604167 z m 7,-1 c 0.72188,-0.288871 1.58438,-0.253344 1.91667,0.07895 0.33229,0.332292 -0.25834,0.568641 -1.3125,0.52522 -1.16495,-0.04798 -1.4019,-0.284941 -0.60417,-0.604167 z m -5.0625,-0.979167 c 0.6875,-0.277412 1.8125,-0.277412 2.5,0 0.6875,0.277413 0.125,0.504386 -1.25,0.504386 -1.375,0 -1.9375,-0.226973 -1.25,-0.504386 z m -4.25,-3.337719 c -1.31874,-0.566682 -1.48905,-0.878155 -0.5,-0.914402 0.825,-0.03024 2.175,0.381246 3,0.914402 1.82797,1.181322 0.24909,1.181322 -2.5,0 z m 5.5,-3 c 0,-0.55 0.47656,-1 1.05902,-1 0.58246,0 0.7809,0.45 0.44098,1 -0.33992,0.55 -0.81648,1 -1.05902,1 -0.24254,0 -0.44098,-0.45 -0.44098,-1 z m -6,-0.393011 c 0,-0.216156 0.69837,-0.661002 1.55194,-0.988546 0.88992,-0.341496 1.29132,-0.173849 0.94098,0.393011 -0.58726,0.950204 -2.49292,1.405448 -2.49292,0.595535 z m -4.1875,-3.290103 c 0.72188,-0.288871 1.58438,-0.253344 1.91667,0.07895 0.33229,0.332292 -0.25834,0.568641 -1.3125,0.52522 -1.16495,-0.04798 -1.4019,-0.284941 -0.60417,-0.604167 z m 105.292184,2.324181 c 15.67103,-4.186893 25.89532,-7.981159 25.89532,-9.609829 0,-0.838962 -6.50466,-5.123215 -17.90459,-11.792748 -8.68504,-5.081186 -28.62057,-8.173915 -43.625214,-6.767865 -7.23154,0.677651 -7.68201,0.845651 -5.45839,2.035693 2.22112,1.18871 2.00855,1.266589 -2.54409,0.932075 -2.73225,-0.200757 -4.06772,-0.112844 -2.96772,0.195362 4.40974,1.235551 3.03994,1.859415 -3.79914,1.730291 -4.9925,-0.09426 -8.1209,0.36576 -10.20086,1.5 l -3,1.635954 7.24818,0.293773 c 7.05927,0.286116 7.20224,0.343077 5.48568,2.185583 -1.13885,1.222416 -3.52661,2.027744 -6.74817,2.275979 -4.75904,0.366704 -4.69888,0.392363 1.32333,0.564417 7.65593,0.218729 7.54631,2.201739 -0.11804,2.135144 -5.28906,-0.04596 -13.60993,-2.702789 -9,-2.873677 1.20504,-0.04467 2.50339,-0.586694 2.88521,-1.204497 0.44375,-0.717997 2.44945,-0.915397 5.55902,-0.547115 2.67563,0.31689 4.86479,0.249548 4.86479,-0.149648 0,-0.399196 -2.96209,-0.858836 -6.58242,-1.021422 -6.32552,-0.284074 -6.71014,-0.164104 -9.85498,3.074042 -1.79991,1.853309 -5.17196,4.873997 -7.49343,6.712641 -3.13186,2.480479 -3.87879,3.559864 -2.89502,4.183572 0.72922,0.46232 6.72585,0.913633 13.32585,1.002916 10.42616,0.141044 11.21308,0.260043 6,0.907327 -6.78387,0.842321 -18.42197,0.147177 -20.13808,-1.202849 -0.68854,-0.541664 -2.21586,-0.404225 -3.86672,0.347954 l -2.72864,1.243254 2.36672,0.590026 c 1.3017,0.324514 8.29735,0.560216 15.54591,0.523782 7.24855,-0.03643 13.04819,0.06475 12.88809,0.224848 -0.1601,0.160101 -2.26573,0.678931 -4.67918,1.152955 l -4.3881,0.861864 3.70295,0.109565 c 2.03662,0.06026 4.74996,-0.367486 6.02964,-0.950549 1.56496,-0.71304 3.95397,-0.749656 7.29706,-0.111842 l 4.97035,0.948273 -4.5,0.288429 c -9.35045,0.599319 9.15958,1.726392 23.500004,1.430911 11.21824,-0.231149 15.90842,-0.798347 23.60468,-2.854589 z M 51.680596,58.570215 c 0,-0.843666 2.29848,-1.491444 9.88648,-2.786294 2.37063,-0.404534 3.17785,-0.240311 2.69098,0.547456 -0.38252,0.618936 -2.35644,1.214292 -4.38648,1.323012 -2.03004,0.108721 1.25902,0.469768 7.30902,0.802327 l 11,0.604653 -13.25,0.197674 c -7.2875,0.10872 -13.25,-0.201252 -13.25,-0.688828 z m 16.26375,-1.83108 c 1.52006,-0.229855 3.77006,-0.223712 5,0.01365 1.22994,0.237362 -0.0137,0.425424 -2.76375,0.417917 -2.75,-0.0075 -3.75631,-0.201713 -2.23625,-0.431567 z m -5.76375,-2.282419 c -3.2624,-0.584125 -2.52481,-0.739533 4,-0.842782 4.4,-0.06963 8.675,0.309626 9.5,0.842782 1.76664,1.14169 -7.12353,1.14169 -13.5,0 z m -1.73834,-2.707261 c 1.24391,-0.239193 3.04391,-0.230112 4,0.02018 0.95609,0.250293 -0.0617,0.445997 -2.26166,0.434898 -2.2,-0.0111 -2.98225,-0.215885 -1.73834,-0.455078 z m 9.98834,-8.998472 c 1.2375,-0.238353 3.2625,-0.238353 4.5,0 1.2375,0.238353 0.225,0.433369 -2.25,0.433369 -2.475,0 -3.4875,-0.195016 -2.25,-0.433369 z m 11.0625,0.02262 c 0.72188,-0.288871 1.58438,-0.253344 1.91667,0.07895 0.33229,0.332292 -0.25834,0.568641 -1.3125,0.52522 -1.16495,-0.04798 -1.4019,-0.284941 -0.60417,-0.604167 z M 41.807486,57.66568 c -0.94526,-0.315088 -0.48878,-1.202961 1.50893,-2.934953 l 2.86418,-2.483204 -2.71482,1.604596 c -3.4136,2.017617 -5.49483,2.1646 -3.92864,0.277454 0.84465,-1.017734 0.69834,-1.309158 -0.62755,-1.25 -0.95095,0.04243 -1.79649,-0.372857 -1.87899,-0.922857 -0.0825,-0.55 0.255,-0.8875 0.75,-0.75 0.495,0.1375 0.9,-0.248145 0.9,-0.856989 0,-0.608844 -0.69203,-0.84143 -1.53785,-0.516859 -0.85856,0.329459 -1.77855,-0.03711 -2.08276,-0.829868 -0.2997,-0.781 -1.15425,-1.186172 -1.89901,-0.900383 -0.74475,0.285789 -1.10936,1.157375 -0.81025,1.936858 0.66353,1.729136 -0.82713,1.860236 -2.47013,0.217241 -3.4869,-3.486901 1.49438,-6.497926 7.89746,-4.773758 4.15926,1.119972 4.64275,1.820858 2.65254,3.845187 -1.00237,1.019556 -0.95285,1.207752 0.25,0.95 0.82617,-0.177038 1.37657,0.273482 1.22522,1.002901 -0.15112,0.728381 0.19372,1.034787 0.76632,0.680901 0.57259,-0.353885 0.82766,-0.988753 0.56681,-1.410818 -0.26085,-0.422065 2.19736,-0.782707 5.46269,-0.801428 3.26532,-0.01872 5.69485,0.3577 5.39894,0.836489 -0.92713,1.500136 1.27127,0.947473 2.60008,-0.65364 1.58976,-1.915544 1.5951,-1.911494 -5.02006,-3.806621 -10.70761,-3.067545 -22.47329,-4.653429 -26.42624,-3.561967 -3.56591,0.984595 -3.67304,1.148657 -3.37823,5.173729 0.26397,3.603915 0.84626,4.519809 4.37732,6.885076 2.24006,1.500503 6.27032,3.591365 8.95613,4.646361 4.3901,1.724448 5.03831,1.763153 6.41823,0.383238 1.24733,-1.247329 1.281,-1.619582 0.17968,-1.986686 z m 120.188854,-6.3694 c 3.09348,-1.643481 13.67448,-10.95278 14.76501,-12.990439 0.50164,-0.937332 0.61718,-2.47273 0.25675,-3.411995 -1.12181,-2.923383 -17.06704,-0.997404 -36.8375,4.449497 l -3,0.826521 2.5,1.173511 c 1.375,0.645431 5.875,3.382318 10,6.081971 8.14133,5.328183 9.04071,5.610867 12.31574,3.870934 z m -7.71089,-2.556842 c -1.52272,-0.389912 -1.62098,-0.658879 -0.5,-1.368686 1.16815,-0.739675 1.15109,-0.893241 -0.10485,-0.943827 -0.825,-0.03323 -0.15,-0.69663 1.5,-1.474224 l 3,-1.413808 -3,0.624785 c -2.59034,0.539468 -2.83049,0.418877 -1.75868,-0.883097 0.68273,-0.829336 0.98169,-1.76752 0.66436,-2.084854 -0.98971,-0.989709 2.86946,-2.478376 8.33993,-3.21711 4.3264,-0.584239 5.3536,-0.42695 5.86187,0.8976 0.33895,0.883283 0.0608,2.275238 -0.61805,3.093234 -1.42125,1.712508 -3.44645,2.035749 -2.42777,0.387497 0.47771,-0.77295 0.0495,-0.762494 -1.44098,0.03518 -1.16638,0.624227 -2.12068,1.794123 -2.12068,2.599772 0,0.805649 -0.45,1.464816 -1,1.464816 -0.55,0 -1,0.675 -1,1.5 0,1.481414 -1.70215,1.728359 -5.39515,0.782722 z"
     id="path7774"
     inkscape:connector-curvature="0" />
  <path
     style="fill:#ffffff;fill-opacity:0.61386138;stroke:none;filter:url(#filter8562)"
     d="m 140.37313,67.41791 16.25374,-7.388059 2.06865,10.047761 -1.11908,26.499211 -11.29286,13.396307 -11.82089,-1.18209 3.54627,-23.050742 z"
     id="path8556"
     inkscape:connector-curvature="0"
     sodipodi:nodetypes="cccccccc" />
  <path
     style="fill:#878207;stroke:#000000;stroke-width:1px;stroke-linecap:butt;stroke-linejoin:miter;stroke-opacity:1;fill-opacity:0.74257426999999998;filter:url(#filter8594)"
     d="m 19.8,52.641791 c 6.364142,3.544536 12.667748,7.186918 18.913433,10.934328 -8.869629,3.422171 -8.225949,2.28064 -8.570149,11.229851 6.879933,20.739264 6.240631,26.04393 21.573134,39.30448 l -9.752239,-0.88657 C 27.012924,100.4785 20.639222,72.075336 19.8,52.641791 z"
     id="path8584"
     inkscape:connector-curvature="0"
     sodipodi:nodetypes="cccccc" />
  <path
     style="fill:#ffffff;stroke:none;stroke-width:1px;stroke-linecap:butt;stroke-linejoin:miter;stroke-opacity:1;fill-opacity:0.90594059000000005;filter:url(#filter8618)"
     d="m 171.10746,34.614925 2.6597,2.659702 0,6.20597 4.13732,-7.683582 -1.18209,-2.955224 z"
     id="path8604"
     inkscape:connector-curvature="0" />
  <path
     style="fill:#ffffff;stroke:none;stroke-width:1px;stroke-linecap:butt;stroke-linejoin:miter;stroke-opacity:1;fill-opacity:0.90594059000000005;filter:url(#filter8628)"
     d="m 134.99196,56.324702 11.28416,-4.179318 c -9.75174,-8.423867 -19.50348,-11.838106 -29.25522,-11.911056 7.71399,6.555721 11.6646,7.915338 17.97106,16.090374 z"
     id="path8622"
     inkscape:connector-curvature="0"
     sodipodi:nodetypes="cccc" />
  <path
     style="fill:#000000;fill-opacity:0.6831683;stroke:#000000;stroke-width:1px;stroke-linecap:butt;stroke-linejoin:miter;stroke-opacity:1;filter:url(#filter8638)"
     d="m 73.973923,67.435746 c -17.222703,13.398386 -8.801403,37.123414 2.089659,51.160794 -9.355583,3.14104 -16.78617,-0.45541 -24.657974,-2.5076 8.388094,-16.522772 1.187633,-38.540312 -5.015182,-50.951819 9.485434,0.007 19.384567,2.260288 27.583497,2.298625 z"
     id="path8632"
     inkscape:connector-curvature="0"
     sodipodi:nodetypes="ccccc" />
</svg>
