<?xml version="1.0" encoding="UTF-8" standalone="no"?>
<!-- Created with Inkscape (http://www.inkscape.org/) -->

<svg
   xmlns:dc="http://purl.org/dc/elements/1.1/"
   xmlns:cc="http://creativecommons.org/ns#"
   xmlns:rdf="http://www.w3.org/1999/02/22-rdf-syntax-ns#"
   xmlns:svg="http://www.w3.org/2000/svg"
   xmlns="http://www.w3.org/2000/svg"
   xmlns:sodipodi="http://sodipodi.sourceforge.net/DTD/sodipodi-0.dtd"
   xmlns:inkscape="http://www.inkscape.org/namespaces/inkscape"
   id="svg9650"
   version="1.1"
   inkscape:version="0.48.2 r9819"
   width="201"
   height="298"
   sodipodi:docname="HeavyArmor.png">
  <metadata
     id="metadata9656">
    <rdf:RDF>
      <cc:Work
         rdf:about="">
        <dc:format>image/svg+xml</dc:format>
        <dc:type
           rdf:resource="http://purl.org/dc/dcmitype/StillImage" />
        <dc:title></dc:title>
      </cc:Work>
    </rdf:RDF>
  </metadata>
  <defs
     id="defs9654" />
  <sodipodi:namedview
     pagecolor="#ffffff"
     bordercolor="#666666"
     borderopacity="1"
     objecttolerance="10"
     gridtolerance="10"
     guidetolerance="10"
     inkscape:pageopacity="0"
     inkscape:pageshadow="2"
     inkscape:window-width="1267"
     inkscape:window-height="748"
     id="namedview9652"
     showgrid="false"
     inkscape:zoom="1"
     inkscape:cx="98.197327"
     inkscape:cy="121.05362"
     inkscape:window-x="1"
     inkscape:window-y="0"
     inkscape:window-maximized="0"
     inkscape:current-layer="svg9650" />
  <path
     style="fill:#000000"
     d="m 102.57306,16.675195 c 1.26257,1.93059 4.5903,5.10829 7.39496,7.06155 15.63778,10.89074 20.33221,18.20354 20.37689,31.74237 0.0131,3.95504 -0.33453,7.41241 -0.77241,7.68303 -1.32586,0.81943 0.94864,15.62599 2.40039,15.62599 0.70275,0 1.57886,-0.48724 1.94691,-1.08276 0.95326,-1.54241 9.17174,-4.91724 11.97459,-4.91724 3.39038,0 8.9575,3.57042 10.35724,6.64253 0.65942,1.44726 2.07484,6.38787 3.14538,10.97911 1.07054,4.59125 4.12818,12.967115 6.79475,18.613035 6.44255,13.6408 8.64006,22.75781 7.82097,32.44758 -0.65185,7.71137 0.32492,11.38727 3.78998,14.26302 2.56809,2.13132 1.88783,4.05472 -1.43406,4.05472 -1.65,0 -3,0.38947 -3,0.86548 0,0.47601 3.375,3.65718 7.5,7.06926 7.83624,6.48192 8.00813,6.71474 6.59939,8.93869 -0.95521,1.50797 -10.83331,0.93863 -15.67893,-0.90367 -1.40286,-0.53337 -2.98292,-0.96976 -3.51124,-0.96976 -1.35842,0 1.64171,5.6016 6.20868,11.59237 4.31479,5.65995 4.58552,6.40763 2.32017,6.40763 -3.48715,0 -12.47874,-5.33914 -18.51348,-10.99317 -3.5262,-3.30376 -6.50639,-6.00683 -6.62262,-6.00683 -0.11624,0 -0.51148,1.59986 -0.87831,3.55525 -0.36684,1.95539 -2.65961,6.26205 -5.09505,9.57037 -2.43545,3.30831 -5.16405,7.55845 -6.06356,9.44475 -1.51505,3.1771 -1.5143,3.68374 0.0102,6.88068 0.90513,1.89808 2.78848,4.19984 4.18521,5.11501 1.39674,0.91518 2.54379,2.1747 2.54902,2.79895 0.005,0.62424 1.87476,4.05999 4.15453,7.63499 2.27977,3.575 8.62057,15.05 14.09066,25.5 5.4701,10.45 10.35056,19.15 10.84547,19.33333 0.49491,0.18334 0.89984,0.95768 0.89984,1.72077 0,0.76308 1.42923,3.4151 3.17608,5.89336 3.08717,4.37981 3.12535,4.56199 1.36397,6.50828 -3.62611,4.00681 -12.13741,6.26639 -25.61194,6.79948 l -12.57189,0.49737 -5.00863,-3.59834 c -9.09475,-6.53394 -16.2301,-17.63315 -28.38544,-44.15425 -5.70765,-12.45321 -6.82307,-15.30573 -6.22058,-15.90821 0.32548,-0.32549 -0.49572,-0.57431 -1.82488,-0.55295 -1.947094,0.0313 -3.452594,1.73149 -7.747964,8.75 -6.536217,10.67996 -11.201167,18.54268 -16.441027,27.71116 -4.19406,7.33859 -14.83379,22.04654 -17.60733,24.3397 -2.66316,2.2019 -13.95631,0.63897 -24.32927,-3.36707 -10.88938,-4.20548 -20.02142,-8.95871 -22.48525,-11.70358 -1.76833,-1.97004 -1.66767,-2.1391 4.84664,-8.14043 8.94691,-8.24238 20.15498,-21.69803 24.40707,-29.30147 1.91204,-3.41905 4.53185,-7.47887 5.82179,-9.02181 1.28995,-1.54294 3.30369,-4.69371 4.47498,-7.00171 1.17129,-2.30801 2.74209,-4.55801 3.49067,-5 2.00954,-1.18653 3.65366,-4.78621 3.64838,-7.98789 -0.003,-1.9911 -1.93744,-5.15869 -6.60421,-10.81574 -7.40283,-8.9737 -11.39115,-16.75932 -11.39115,-22.23672 l 0,-3.6797 -4.25,4.07367 c -6.90778,6.62117 -25.76733,18.34275 -29.5127396,18.34275 -1.25544,0 -1.22826,-0.34294 0.17831,-2.25 1.61098,-2.18421 7.5844296,-14.17771 7.5844296,-15.22804 0,-0.28708 -1.125,-0.52196 -2.5,-0.52196 -2.81735,0 -3.0871396,-1.34893 -1,-5 2.05745,-3.59913 1.82397,-5 -0.83333,-5 -3.8834096,0 -3.7954896,-1.12406 0.32117,-4.10615 5.28401,-3.82772 6.166,-7.63171 5.83602,-25.17053 -0.25732,-13.67649 -0.16233,-14.4504 2.47056,-20.12975 1.50599,-3.24854 5.95517,-9.88618 9.88707,-14.750295 3.9319,-4.86412 9.01621,-12.10623 11.29848,-16.09357 3.49124,-6.09951 4.52524,-7.20678 6.51737,-6.97914 3.67754,0.42021 8.56818,4.71447 12.1958,10.7086 1.81877,3.00526 3.59329,5.47688 3.94336,5.49248 0.35008,0.0156 0.88346,-1.20914 1.18531,-2.72164 0.30184,-1.5125 1.04708,-5 1.65607,-7.75 0.609,-2.75 1.26352,-11.525 1.4545,-19.5 0.19097,-7.975 0.53721,-15.29782 0.76943,-16.27293 0.93747,-3.93673 8.03988,-11.43334 14.90005,-15.72707 3.95435,-2.475 9.353607,-6.5527 11.998337,-9.06155 l 4.808624,-4.56155 2.29559,3.51016 z m -3.354284,1.89632 c 0.68839,0.22946 -0.56936,1.31815 -2.79499,2.4193 -2.22564,1.10116 -3.80512,2.39284 -3.50998,2.8704 0.29515,0.47756 -0.713687,1.1821 -2.241867,1.56565 -4.07153,1.02189 -13.50918,7.61599 -12.12477,8.4716 0.69516,0.42963 0.19716,0.88685 -1.26641,1.16269 -2.1409,0.4035 -2.07479,0.47857 0.58789,0.66765 2.94342,0.20902 2.92607,0.23534 -0.91985,1.39573 -5.33322,1.60915 -5.93171,3.69748 -0.89609,3.12681 l 3.81594,-0.43245 -3.98273,1.01735 c -6.30254,1.60992 -6.94287,3.28321 -1.01727,2.65832 l 5,-0.52728 -4.75,1.07803 c -2.891,0.65611 -4.75,1.62585 -4.75,2.47781 0,0.94471 0.65021,1.19342 2,0.76501 1.14731,-0.36414 2,-0.1797 2,0.43261 0,0.58707 -1.125,1.06739 -2.5,1.06739 -2.12545,0 -2.5,0.46137 -2.5,3.07946 0,2.91635 0.16244,3.04377 3.06716,2.40579 2.18566,-0.48005 3.59358,-0.19727 4.89879,0.98394 1.35175,1.22331 2.97163,1.51846 6.18284,1.12655 l 4.35121,-0.53106 -3.32498,1.24795 -3.32499,1.24795 6.32499,2.96971 c 3.47874,1.63334 6.620847,3.3789 6.982457,3.87903 0.95957,1.32711 -0.14324,3.841 -2.552457,5.81844 -2.09989,1.72356 -2.09791,1.72782 0.811647,1.75 1.60416,0.0122 2.6358,0.3031 2.29252,0.64638 -0.34328,0.34328 0.36922,1.43438 1.58333,2.42466 2.11135,1.72211 2.29457,1.72357 4.207484,0.0334 1.91933,-1.69581 9.07952,-4.73343 16.52693,-7.01133 1.9398,-0.59333 5.12741,-2.39803 7.08357,-4.01046 3.2907,-2.71248 3.57292,-3.38243 3.77418,-8.9595 0.11963,-3.3153 -0.34942,-7.92009 -1.04235,-10.23288 -1.62389,-5.42005 -10.0628,-14.56491 -18.15912,-19.6782 -3.40875,-2.15282 -6.82478,-5.08588 -7.59118,-6.51792 -0.7664,-1.43203 -1.865974,-2.31166 -2.443494,-1.95474 -0.69027,0.42661 -0.6212,0.7919 0.20159,1.06617 z m -15.850127,28.44019 c 0,0.42704 -1.8,0.77643 -4,0.77643 -2.2,0 -4,-0.17773 -4,-0.39496 0,-0.21724 1.8,-0.56663 4,-0.77643 2.2,-0.2098 4,-0.0321 4,0.39496 z m -4.5,3.77643 c -2.92429,0.7441 -2.89905,0.76835 1,0.96063 2.2,0.1085 3.40619,0.43468 2.68041,0.72485 -0.72577,0.29017 -3.87577,0.17914 -7,-0.24672 l -5.68041,-0.7743 4,-0.7746 c 5.18499,-1.00407 9.04466,-0.91905 5,0.11014 z m 8.6875,3.68311 c -0.72187,0.28887 -1.58437,0.25335 -1.91667,-0.0789 -0.33229,-0.33229 0.25834,-0.56864 1.3125,-0.52522 1.16495,0.048 1.4019,0.28494 0.60417,0.60416 z m -7.1875,0.31689 c 1.2819,0.82843 1.24555,0.9716 -0.25,0.98469 -0.9625,0.008 -1.75,-0.43469 -1.75,-0.98469 0,-1.21961 0.11279,-1.21961 2,0 z m 41.340401,1.75 c 0.25214,0.4125 0.6162,2.07239 0.80902,3.68863 0.44582,3.73696 -2.8376,5.82123 -13.24939,8.41054 -7.97891,1.98427 -9.406014,1.50304 -8.71581,-2.93906 0.24035,-1.5469 2.08184,-2.6254 7.70918,-4.51498 4.06637,-1.36543 8.329,-3.13793 9.47251,-3.93887 2.33143,-1.633 3.30254,-1.80556 3.97449,-0.70626 z m -9.3404,5.25906 c -3.025,1.20214 -6.5125,2.58224 -7.75,3.06689 -3.98647,1.56123 -2.65239,3.16561 2,2.40522 7.00866,-1.14549 13.75,-4.43591 13.75,-6.7113 0,-1.19703 -0.49577,-1.77814 -1.25,-1.46519 -0.6875,0.28526 -3.725,1.50223 -6.75,2.70438 z m -24.812501,-3.32595 c -0.72187,0.28887 -1.58437,0.25335 -1.91667,-0.0789 -0.33229,-0.33229 0.25834,-0.56864 1.3125,-0.52522 1.16495,0.048 1.4019,0.28494 0.60417,0.60416 z m -17.05994,-0.99115 c 0.93255,1.14966 0.9718,1.45126 0.12244,0.94098 -0.7062,-0.42427 -1.25,-0.25836 -1.25,0.38137 0,1.80043 3.44122,0.64869 3.81184,-1.27579 0.23595,-1.22517 -0.31356,-1.73852 -1.86096,-1.73852 -1.93662,0 -2.03379,0.19969 -0.82332,1.69196 z m 9.7992,7.04553 c 5.12699,2.97825 12.07324,4.39891 12.07324,2.46922 0,-0.4363 -3.14308,-2.29436 -6.98462,-4.12901 -3.84155,-1.83464 -7.54622,-4.01239 -8.2326,-4.83944 -1.07848,-1.29948 -1.3282,-1.18009 -1.83861,0.87901 -0.5127,2.06831 0.14479,2.80994 4.98259,5.62022 z m -9.06598,-0.65141 c 2.51245,2.03688 4.66777,2.57814 3.63922,0.91392 -0.33992,-0.55 -1.21833,-1 -1.95203,-1 -0.7337,0 -1.61773,-0.73941 -1.96452,-1.64313 -0.34679,-0.90372 -0.95743,-1.31498 -1.35699,-0.91392 -0.39955,0.40107 0.33589,1.59047 1.63432,2.64313 z m 51.038721,4.96519 c -2.21145,1.1282 -6.83441,2.9203 -10.27325,3.98245 -3.90865,1.20726 -7.7282,3.2731 -10.18934,5.51101 l -3.936914,3.57984 4.265014,-0.46914 c 2.34576,-0.25803 6.11231,-1.43201 8.37011,-2.60884 2.25781,-1.17684 4.35105,-1.89375 4.65166,-1.59315 0.3006,0.30061 -0.0534,0.54656 -0.78678,0.54656 -0.73333,0 -1.02,0.31334 -0.63703,0.6963 1.03163,1.03164 -6.26758,4.3037 -9.60055,4.3037 -1.94459,0 -2.64553,0.38011 -2.15739,1.16994 0.52214,0.84483 0.19118,0.91614 -1.19098,0.2566 -1.052734,-0.50234 -4.614054,-0.87146 -7.914054,-0.82028 -3.409947,0.0529 -4.943597,-0.17988 -3.552777,-0.53922 2.25161,-0.58175 2.13172,-0.72276 -1.5,-1.76414 -2.17097,-0.62251 -5.51562,-1.45434 -7.43255,-1.84851 -1.91694,-0.39417 -4.50669,-1.38589 -5.75501,-2.20382 -1.82186,-1.19373 -2.56464,-1.24235 -3.76467,-0.24642 -2.0795,1.72584 -1.86542,2.99585 0.50501,2.99585 1.1,0 2,0.42889 2,0.95308 0,1.32669 6.91836,4.47868 9.41719,4.29045 1.49521,-0.11263 1.68565,0.0749 0.69676,0.68605 -0.75125,0.46429 -2.91451,0.41205 -4.82928,-0.11665 -1.90764,-0.52672 -5.33959,-0.67354 -7.62655,-0.32626 -3.03549,0.46095 -3.75314,0.34963 -2.65812,-0.41231 0.91941,-0.63975 1.03902,-1.04966 0.30902,-1.05905 -0.65504,-0.008 -1.51129,0.50296 -1.90278,1.13639 -0.84936,1.37431 2.45212,4.05387 3.89559,3.16176 0.55395,-0.34236 0.71524,-0.1501 0.35842,0.42725 -0.35682,0.57734 0.009,1.30222 0.81347,1.61083 0.80423,0.30861 1.73274,0.12343 2.06335,-0.41153 0.33062,-0.53495 1.13253,-0.64363 1.78203,-0.24151 0.64949,0.40211 3.8809,1.26536 7.1809,1.91834 l 6,1.18722 -4.5,0.20697 -4.5,0.20696 6,1.31371 6,1.31371 -6,-0.55693 c -3.3,-0.30632 -8.24668,-1.13394 -10.99262,-1.83916 -3.78268,-0.97147 -5.17246,-0.99953 -5.73469,-0.11577 -0.49597,0.77961 -0.74714,0.62156 -0.75738,-0.47656 -0.0204,-2.18466 -2.67266,-3.17391 -2.71234,-1.01165 -0.0412,2.24543 1.68681,4.27901 2.96485,3.48914 0.58242,-0.35996 0.74455,-0.16352 0.36795,0.44583 -1.15814,1.873919 5.59516,5.884115 11.86423,7.045125 7.23637,1.34015 21.805901,2.42373 16.499997,1.22716 -3.25675,-0.73446 -3.11774,-0.79967 2,-0.93832 14.365084,-0.38918 29.941134,-6.691695 30.708574,-12.425575 l 0.37627,-2.8113 -2.94735,2.17907 c -1.62105,1.19849 -3.45429,1.86577 -4.07388,1.48284 -0.7057,-0.43614 0.0993,-1.5195 2.15493,-2.90007 2.24535,-1.50799 3.38469,-3.14088 3.60841,-5.17154 0.26394,-2.39583 0.0809,-2.72683 -0.95,-1.7177 -0.70232,0.6875 -2.19945,1.23382 -3.32695,1.21404 -1.86731,-0.0328 -1.80493,-0.23662 0.7,-2.28757 1.82379,-1.49326 2.75,-3.20639 2.75,-5.08648 0,-2.164 -0.29768,-2.58783 -1.25788,-1.79093 -0.69184,0.57417 -3.22385,1.72128 -5.62668,2.54912 -2.40284,0.82785 -3.97429,1.16824 -3.49212,0.75644 0.48217,-0.41181 2.78918,-2.21663 5.12668,-4.01071 2.3375,-1.79408 4.25,-3.89916 4.25,-4.67794 0,-1.84083 -0.32664,-1.80014 -5.1005,0.6353 z m -36.649501,13.61101 c -0.6875,0.27741 -1.8125,0.27741 -2.5,0 -0.6875,-0.27741 -0.125,-0.50439 1.25,-0.50439 1.375,0 1.9375,0.22698 1.25,0.50439 z m 35.937501,1.02083 c -0.72187,0.28887 -1.58437,0.25335 -1.91667,-0.0789 -0.33229,-0.33229 0.25834,-0.56864 1.3125,-0.52522 1.16495,0.048 1.4019,0.28494 0.60417,0.60416 z m -10.6875,0.28211 c -1.51097,0.75242 -0.77743,0.88916 3,0.55922 3.88661,-0.33948 4.33197,-0.25016 2,0.4011 -4.26124,1.19007 -11.12054,1.29018 -9.95,0.14522 0.5225,-0.51108 2.3,-1.19299 3.95,-1.51537 2.44699,-0.47808 2.63132,-0.40253 1,0.40983 z m -13.769034,0.72777 c -0.97297,0.25354 -2.32297,0.23687 -3,-0.0371 -0.67703,-0.27393 0.11903,-0.48137 1.76903,-0.46099 1.65,0.0204 2.20394,0.2445 1.23097,0.49804 z m 5.769034,2.30701 c 0.731,1.18278 -0.24752,1.18278 -3.000004,0 -1.92824,-0.82859 -1.92138,-0.86195 0.190984,-0.92971 1.20504,-0.03866 2.4691,0.37971 2.80902,0.92971 z m -18.268451,1.16845 c -0.5811,0.5811 -1.64682,0.85979 -2.36826,0.61931 -0.74895,-0.24965 -0.29565,-0.70294 1.05655,-1.05655 1.66335,-0.43497 2.05378,-0.30483 1.31171,0.43724 z m -4.73863,-0.1799 c 0.35034,0.56686 -0.0511,0.7345 -0.94098,0.39301 -1.73242,-0.66479 -2.04939,-1.38156 -0.61096,-1.38156 0.51754,0 1.21592,0.44485 1.55194,0.98855 z m 20.207391,3.42469 c 0.43983,0.77728 2.14969,1.60986 3.79969,1.85017 2.00034,0.29133 1.30613,0.48685 -2.08333,0.58676 -5.525174,0.16285 -6.569654,-0.28794 -5.730994,-2.47346 0.44859,-1.16899 0.83337,-1.19658 2.12306,-0.15223 1.21771,0.98605 1.40475,0.99185 0.8242,0.0255 -0.41304,-0.6875 -0.52178,-1.25 -0.24165,-1.25 0.28013,0 0.86919,0.63596 1.309024,1.41324 z m -7.512811,1.26987 c -0.72187,0.28887 -1.58437,0.25335 -1.91667,-0.0789 -0.33229,-0.33229 0.25834,-0.56864 1.3125,-0.52522 1.164947,0.048 1.401897,0.28494 0.60417,0.60416 z m 3.999997,4.999999 c -0.72187,0.28887 -1.58437,0.25335 -1.91667,-0.0789 -0.33229,-0.33229 0.25834,-0.56864 1.3125,-0.52522 1.16495,0.048 1.4019,0.28494 0.60417,0.60416 z m -3.9375,-0.0208 c -0.687497,0.27741 -1.812497,0.27741 -2.499997,0 -0.6875,-0.27741 -0.125,-0.50439 1.25,-0.50439 1.374997,0 1.937497,0.22698 1.249997,0.50439 z m -15.999997,0 c -0.6875,0.27741 -1.8125,0.27741 -2.5,0 -0.6875,-0.27741 -0.125,-0.50439 1.25,-0.50439 1.375,0 1.9375,0.22698 1.25,0.50439 z m 6.83333,0.74304 c 0.22917,0.2229 3.11667,0.6716 6.41667,0.99709 3.299997,0.32549 6.449997,0.66286 6.999997,0.74971 0.55,0.0869 4.150004,-0.1148 8.000004,-0.44813 5.2416,-0.45381 6.1208,-0.37361 3.5,0.31925 -1.925,0.508906 -8.675004,1.109176 -15.000004,1.333926 -6.324997,0.22475 -9.699997,0.17133 -7.499997,-0.11872 l 4,-0.52736 -6,-1.227336 c -3.3,-0.67504 -4.8375,-1.28505 -3.41667,-1.35556 1.42084,-0.0705 2.77084,0.0542 3,0.2771 z m -12.7217,-29.905349 c 0.31658,0.825 0.11317,1.5 -0.45203,1.5 -0.5652,0 -0.76167,0.43035 -0.43659,0.95633 0.32507,0.52598 1.25163,0.70283 2.05902,0.39301 0.91533,-0.35125 1.46797,0.04166 1.46797,1.04367 0,0.88385 0.45,1.60699 1,1.60699 0.55,0 1.93221,0.93221 3.07158,2.07158 1.85603,1.85603 5.15116,2.82257 15.678417,4.59885 3.35874,0.56673 4.25985,-0.58744 1.95324,-2.50175 -3.073017,-2.55039 -20.171867,-10.27945 -24.560227,-11.10178 -0.19634,-0.0368 -0.098,0.6081 0.21862,1.4331 z m -21.77256,7.64411 c 0.3889,0.62926 0.67078,2.42144 0.62639,3.98263 -0.0444,1.56118 0.37559,3.12052 0.93329,3.4652 0.57744,0.35687 0.88208,-0.17382 0.70759,-1.23263 -0.16853,-1.02262 0.0886,-2.49008 0.57139,-3.26101 0.5933,-0.94739 0.28017,-1.83872 -0.96608,-2.75 -2.25526,-1.64909 -2.80246,-1.70875 -1.87258,-0.20419 z m 89.260831,1.61939 c -0.67712,-0.14492 -1.39492,0.48026 -1.59512,1.38931 -0.33702,1.53031 -0.10055,1.5334 3.19061,0.0417 1.95504,-0.88618 3.55461,-1.98328 3.55461,-2.43804 0,-0.45476 -0.88177,-0.35493 -1.95949,0.22185 -1.07772,0.57678 -2.51349,0.93011 -3.19061,0.78518 z m 11.23892,3.33437 c -2.50606,8.36449 -10.28549,19.418955 -17.12252,24.330865 l -4.82513,3.46651 3.39263,6.74307 c 1.86595,3.70868 4.1029,9.86588 4.97101,13.68265 1.77596,7.80831 5.38204,13.70216 11.73164,19.17445 7.93573,6.83928 12.00515,8.64172 20.88483,9.25035 l 8.12305,0.55676 -1.64367,-2.50855 c -1.43749,-2.19389 -2.56534,-2.57826 -8.99147,-3.06427 -14.05722,-1.06314 -20.7096,-6.94527 -25.1556,-22.24291 -2.57847,-8.87189 -5.1528,-14.38019 -8.50499,-18.19812 -3.10851,-3.5404 -3.11746,-5.28868 -0.0271,-5.28868 2.79329,0 9.198,-5.5722 13.21247,-11.495065 3.63963,-5.36983 8.19007,-16.84754 7.10826,-17.92936 -1.23795,-1.23795 -1.9733,-0.41659 -3.15342,3.5223 z M 46.368649,80.788135 c 0,1.58508 0.45734,3.16462 1.01631,3.51008 0.55897,0.34546 0.71444,1.11655 0.34549,1.71353 -0.42071,0.68072 -0.20042,0.79469 0.59083,0.30567 0.9016,-0.55723 1.09489,-0.24461 0.67733,1.09549 -0.32137,1.03138 -0.10554,2.55023 0.47962,3.37523 0.85229,1.20164 0.96588,1.05266 0.57105,-0.749 -0.27108,-1.23696 -0.0704,-2.51009 0.44587,-2.82918 0.5234,-0.32348 0.0342,-2.04382 -1.10576,-3.88825 -1.23351,-1.99587 -1.77404,-4.01288 -1.36268,-5.08487 0.46713,-1.21731 0.31343,-1.54911 -0.48812,-1.05373 -0.64347,0.39769 -1.16994,2.01995 -1.16994,3.60503 z m 95.000001,-1 c 0,0.55 0.42344,1 0.94098,1 0.51754,0 1.2191,-0.45 1.55902,-1 0.33992,-0.55 -0.0835,-1 -0.94098,-1 -0.85746,0 -1.55902,0.45 -1.55902,1 z m -88.795811,1.25 c 0.18881,1.2375 0.89511,2.1375 1.56955,2 0.67444,-0.1375 1.22626,0.62344 1.22626,1.69098 0,1.06754 0.45,2.2191 1,2.55902 1.59598,0.98637 1.15587,-3.33248 -0.61501,-6.03518 -2.01701,-3.07834 -3.63437,-3.18757 -3.1808,-0.21482 z m -9.71432,2.54771 c 0.74003,3.9447 6.51986,15.943859 9.84876,20.446445 1.17254,1.58593 3.60101,3.79149 5.39662,4.90124 2.30663,1.42557 3.26475,2.7668 3.26475,4.57019 0,2.94845 -6.94449,17.04248 -10.84721,22.01467 -3.61157,4.60128 -14.84029,11.36326 -25.34986,15.26579 -4.78339,1.77623 -9.46862,4.08205 -10.41162,5.12405 -1.65784,1.8319 -1.60173,1.87202 1.69708,1.21339 5.5616,-1.11041 23.7717,-8.99034 27.73796,-12.00284 9.61646,-7.30403 16.24072,-16.98512 20.14509,-29.44126 1.10152,-3.51416 2.00856,-6.44564 2.01566,-6.51439 0.007,-0.0687 -1.33435,-0.39445 -2.981,-0.72378 -7.10312,-1.42062 -19.0061,-17.919495 -19.0061,-26.344585 0,-2.21661 -0.38443,-3.18707 -1.08981,-2.75113 -0.67256,0.41567 -0.83348,2.03985 -0.42032,4.24221 z m 100.593461,-1.16226 c -1.37232,1.20066 1.88254,0.0856 3.47554,-1.19062 1.83031,-1.46637 1.7984,-1.48719 -0.55887,-0.36454 -1.375,0.65484 -2.6875,1.35466 -2.91667,1.55516 z m -11.14783,1.26019 c -0.362,-0.58573 -0.43262,1.28251 -0.15693,4.15165 0.39873,4.14969 0.16584,5.40431 -1.13866,6.13435 -1.76436,0.98739 -2.26488,3.818359 -0.67509,3.818359 0.53064,0 1.46516,-0.9349 2.07669,-2.077559 0.61153,-1.14266 1.71251,-1.84707 2.44663,-1.56536 1.03447,0.39696 1.14627,-0.145 0.49698,-2.40896 -0.48897,-1.70496 -0.45211,-3.15951 0.0885,-3.49365 0.50948,-0.31488 0.92633,-1.0225 0.92633,-1.5725 0,-0.55 -0.45,-0.72189 -1,-0.38197 -2.50783,1.54992 -0.65827,-1.22442 2,-3 1.64684,-1.1 2.99554,-2.35372 2.99712,-2.78605 0.002,-0.43233 -1.66354,0.34631 -3.70027,1.73031 -2.37499,1.61384 -3.93922,2.13439 -4.36135,1.45138 z m 1.0645,-1.89564 c 0,0.55 0.19844,1 0.44098,1 0.24254,0 0.7191,-0.45 1.05902,-1 0.33992,-0.55 0.14148,-1 -0.44098,-1 -0.58246,0 -1.05902,0.45 -1.05902,1 z m 19.99921,1.25 c -4.3e-4,0.6875 -1.3143,4.02651 -2.91971,7.42002 -2.82851,5.978909 -9.9649,14.271665 -15.0795,17.522965 l -2.5,1.58923 2.09242,2.35889 c 2.30126,2.59433 5.23246,9.60741 8.50861,20.35741 2.74301,9.00062 7.94296,14.54616 15.83821,16.89079 2.98307,0.88588 6.85821,1.61069 8.61142,1.61069 2.90665,0 3.2423,-0.33057 3.80749,-3.75 1.04198,-6.30398 0.69261,-15.47009 -0.80395,-21.09268 -0.78214,-2.93847 -3.88711,-10.58847 -6.89993,-17 -3.11579,-6.63066 -6.19211,-14.999135 -7.13427,-19.407315 -0.91103,-4.2625 -2.07573,-7.75 -2.58821,-7.75 -0.51249,0 -0.93215,0.5625 -0.93258,1.25 z m -14.67107,2.89679 c 0.30707,1.17427 -0.0603,2.19694 -0.90576,2.52137 -0.78231,0.3002 -1.42238,0.95805 -1.42238,1.46188 0,0.50384 1.125,0.17894 2.5,-0.722 2.30956,-1.51328 3.74452,-4.29523 1.5,-2.90804 -0.55,0.33992 -1,0.14148 -1,-0.44098 0,-0.58246 0.675,-1.05902 1.5,-1.05902 0.825,0 1.5,0.525 1.5,1.16667 0,0.64166 0.20715,0.95951 0.46034,0.70633 0.25318,-0.25319 0.20351,-1.44244 -0.11039,-2.64278 -0.47763,-1.82648 -0.89428,-2.00927 -2.55458,-1.12071 -1.31167,0.70199 -1.80881,1.7311 -1.46723,3.03728 z m -87.096551,3.86985 c -0.0775,5.27087 0.26169,6.39999 2.73646,9.109529 l 2.82493,3.092886 0.6776,-3.085126 c 0.37269,-1.69682 0.39271,-3.546109 0.0445,-4.109529 -0.34821,-0.56342 -0.10841,-1.0244 0.53289,-1.0244 0.6413,0 0.9345,-0.60331 0.65154,-1.34068 -0.28296,-0.73738 -0.11299,-1.97488 0.3777,-2.75 0.6408,-1.01224 0.89648,-0.57816 0.90748,1.54068 0.011,2.1209 0.32028,2.64503 1.10041,1.8649 0.78013,-0.78013 0.60747,-2.00872 -0.61432,-4.37141 -1.45633,-2.81623 -1.83385,-3.0461 -2.63922,-1.60698 -0.51689,0.92363 -0.66389,2.12577 -0.32667,2.67141 0.33723,0.54564 0.21159,0.99208 -0.27921,0.99208 -0.49079,0 -0.93946,0.5625 -0.99704,1.25 -0.3497,4.175259 -0.75358,5.416669 -1.76222,5.416669 -0.6232,0 -1.15449,-0.4875 -1.18064,-1.08334 -0.0262,-0.595829 -0.35724,-1.983329 -0.73574,-3.083329 -0.45925,-1.33469 -0.178,-1.16836 0.84545,0.5 l 1.53364,2.499999 0.0354,-2.749999 c 0.0195,-1.5125 -0.36208,-2.75 -0.84793,-2.75 -0.48585,0 -1.11872,-0.9 -1.40638,-2 -0.72285,-2.76417 0.89483,-2.5318 1.74042,0.25 0.38217,1.25728 0.90264,1.72539 1.17964,1.06098 0.52335,-1.25533 -2.34879,-6.31098 -3.58529,-6.31098 -0.39874,0 -0.76478,2.70749 -0.81343,6.01664 z m -12.86025,-2.76664 c -0.41989,1.2375 -0.65645,2.925 -0.52569,3.75 0.17914,1.13024 0.0262,1.18896 -0.62026,0.23821 -0.62731,-0.92254 -1.64677,-0.28915 -3.79169,2.35579 -1.61354,1.98966 -4.42365,5.445399 -6.24471,7.679415 -3.53833,4.34073 -7.43426,11.19365 -5.10324,8.97658 0.72284,-0.6875 2.01175,-1.21447 2.86425,-1.17105 1.03919,0.0529 1.13601,0.24585 0.29377,0.58541 -0.69093,0.27855 -0.9589,0.98755 -0.59549,1.57556 0.39053,0.6319 0.18861,0.77731 -0.49377,0.35557 -0.63498,-0.39244 -1.15451,-0.21041 -1.15451,0.40451 0,0.61492 -0.51953,0.79695 -1.15451,0.40451 -0.72104,-0.44563 -0.88282,-0.27393 -0.4309,0.45729 0.39798,0.64395 1.14251,0.91193 1.65451,0.59549 0.51199,-0.31643 0.9309,-0.12532 0.9309,0.42468 0,0.55 -0.45,1.27811 -1,1.61803 -0.55,0.33992 -0.97223,2.50398 -0.9383,4.80902 l 0.0617,4.19098 1.59711,-4.79118 c 0.87842,-2.63515 1.96091,-4.42739 2.40555,-3.98275 1.05969,1.05969 -0.0883,5.41529 -1.23976,4.70367 -0.95356,-0.58934 -1.30992,2.12827 -0.95646,7.29405 0.12132,1.77309 -0.0945,3.73363 -0.47964,4.35677 -1.09718,1.77528 -2.44865,-1.13164 -1.89323,-4.07225 0.40898,-2.16533 0.34875,-2.23483 -0.44041,-0.50831 -0.60357,1.32049 -0.75762,-0.71806 -0.45343,-6 0.34621,-6.01145 0.18998,-7.57494 -0.62853,-6.28995 -0.64955,1.01973 -1.18409,8.58555 -1.32415,18.74191 -0.26982,19.56639 -1.57693,18.03029 10.95728,12.87689 9.05888,-3.72453 15.4922,-7.97207 19.17483,-12.66 3.39308,-4.31934 10.15744,-17.15361 10.15744,-19.27208 0,-0.81029 -1.9125,-3.07446 -4.25,-5.03151 -4.21456,-3.52859 -13.75,-19.642485 -13.75,-23.236075 0,-2.39536 -1.7451,-1.98321 -2.62866,0.62082 z m -10.37134,24.690975 c 0,0.51754 -0.44485,1.21592 -0.98855,1.55194 -0.56686,0.35034 -0.7345,-0.0511 -0.39301,-0.94098 0.66479,-1.73242 1.38156,-2.04939 1.38156,-0.61096 z m -4.87238,23.80902 c 0.54863,3.22411 0.47226,5.12074 -0.18973,4.71162 -0.43259,-0.26736 -0.99338,0.3069 -1.24621,1.27614 -0.34981,1.34105 -0.4874,1.22448 -0.57568,-0.48776 -0.0638,-1.2375 0.36432,-2.25 0.95139,-2.25 0.61231,0 0.79675,-0.85269 0.43261,-2 -0.34913,-1.1 -0.37945,-2 -0.0674,-2 0.31207,0 0.62482,0.3375 0.69501,0.75 z M 139.84219,92.595005 c 0.30789,0.30789 1.11479,6.4e-4 1.79313,-0.68278 0.98026,-0.98762 0.8654,-1.10248 -0.5598,-0.5598 -0.98622,0.37553 -1.54122,0.93469 -1.23333,1.24258 z m -63.973541,-0.80687 c 2.74909,1.18132 4.32797,1.18132 2.5,0 -0.825,-0.53316 -2.175,-0.94464 -3,-0.9144 -0.98906,0.0362 -0.81874,0.34772 0.5,0.9144 z m -13.5,3 c 0,0.55 0.47656,1 1.05902,1 0.58246,0 0.7809,-0.45 0.44098,-1 -0.33992,-0.55 -0.81648,-1 -1.05902,-1 -0.24254,0 -0.44098,0.45 -0.44098,1 z m -3.33136,2.749999 c -0.34025,1.7875 -0.23235,3.249996 0.23978,3.249996 1.00761,0 2.14101,-5.110995 1.39947,-6.310825 -0.69569,-1.12566 -0.92321,-0.70083 -1.63925,3.060829 z m 76.831361,-0.75 c -0.33992,0.55 -0.14148,1 0.44098,1 0.58246,0 1.05902,-0.45 1.05902,-1 0,-0.55 -0.19844,-0.999999 -0.44098,-0.999999 -0.24254,0 -0.7191,0.449999 -1.05902,0.999999 z m -73.485301,4.499996 c -0.0415,-0.55 -0.56441,-0.15851 -1.16194,0.86998 -0.87722,1.50989 -1.25354,1.60617 -1.95428,0.5 -0.57441,-0.90675 -0.87303,-0.96728 -0.88317,-0.179 -0.0242,1.88142 2.11853,2.70697 3.08118,1.18714 0.72967,-1.15201 0.8754,-1.14021 0.8882,0.0719 0.0274,2.59899 1.72728,-0.30344 2.31336,-3.949996 l 0.56252,-3.5 -1.38518,3 c -0.76185,1.649996 -1.41916,2.549996 -1.46069,1.999996 z m -1.0147,-2.940976 c 0,0.85746 0.45,1.2809 1,0.94098 0.55,-0.33992 1,-1.04148 1,-1.55902 0,-0.51754 -0.45,-0.94098 -1,-0.94098 -0.55,0 -1,0.70156 -1,1.55902 z m 62.570031,0.32767 c -0.30141,0.48768 0.12204,1.442776 0.94098,2.122446 0.81894,0.67966 1.48899,1.70039 1.48899,2.26829 0,0.5679 -0.9,0.21806 -2,-0.77743 -1.58763,-1.43678 -2,-1.50998 -2,-0.35499 0,2.748 2.19767,3.98607 4.06916,2.2924 1.38892,-1.25695 1.4911,-1.97824 0.56366,-3.97855 -1.18887,-2.564136 -2.14606,-3.055476 -3.06279,-1.572166 z m -5.57003,3.913306 c 0,1.05167 2.17195,3.2 3.23518,3.2 0.45936,0 0.35352,-0.9 -0.23518,-2 -1.05696,-1.97494 -3,-2.75216 -3,-1.2 z m -48.781751,1.40218 c 1.30024,1.95827 6.59419,4.31872 7.5476,3.3653 0.57544,-0.57544 -3.99182,-4.54586 -4.71504,-4.09888 -0.35547,0.21969 -1.29982,-0.014 -2.09856,-0.51927 -2.19721,-1.38997 -2.33388,-1.1567 -0.734,1.25285 z m 4.28175,0.79782 c 0.33992,0.55 0.14148,1 -0.44098,1 -0.58246,0 -1.05902,-0.45 -1.05902,-1 0,-0.55 0.19844,-1 0.44098,-1 0.24254,0 0.7191,0.45 1.05902,1 z m -7.16667,-0.54303 c 0,0.80133 0.61042,1.6912 1.35648,1.97749 1.06401,0.4083 1.12829,0.0942 0.29815,-1.45697 -1.2607,-2.35563 -1.65463,-2.47956 -1.65463,-0.52052 z m 47.317501,1.7097 c 0.91253,1.00833 2.04321,1.83333 2.51263,1.83333 0.46942,0 0.33827,-0.825 -0.29145,-1.83333 -0.62971,-1.00834 -1.7604,-1.83334 -2.51263,-1.83334 -1.05094,0 -0.98345,0.42459 0.29145,1.83334 z m -2.65083,0.83333 c 1.1,1.1 2.29474,2 2.65499,2 0.36024,0 -0.1595,-0.9 -1.15499,-2 -0.99549,-1.1 -2.19023,-2 -2.65499,-2 -0.46475,0 0.055,0.9 1.15499,2 z m -32.484431,0.0172 c 1.40976,1.55777 2.69772,1.91207 5.65498,1.55562 2.1062,-0.25387 3.82945,-0.10788 3.82945,0.32441 0,0.4323 2.05604,0.81708 4.568987,0.85507 4.08919,0.0618 4.37797,-0.0757 2.75,-1.30981 -2.21974,-1.68267 -4.318987,-1.83823 -4.318987,-0.32005 0,0.80354 -0.36677,0.81806 -1.29089,0.0511 -1.97648,-1.64034 -8.03879,-2.51599 -7.11937,-1.02835 0.40809,0.66031 -0.33278,0.44776 -1.64638,-0.47232 -3.27857,-2.2964 -4.64255,-2.10295 -2.42779,0.34432 z m 24.841571,0.4828 c -1.53107,1.53108 -3.851014,2.10873 -3.01212,0.75 0.25469,-0.4125 -0.731264,-0.82173 -2.190984,-0.90941 l -2.65404,-0.1594 2.75307,1.44295 c 1.967564,1.03124 3.287174,1.1571 4.625034,0.4411 1.02959,-0.55102 3.39071,-0.81671 5.24694,-0.59043 3.13757,0.38248 3.23842,0.30991 1.43383,-1.0317 -2.48117,-1.84459 -4.31708,-1.82775 -6.20173,0.0569 z m 14.59417,1.90241 c -2.50177,0.75941 -8.86069,1.70404 -14.13092,2.09916 l -9.582254,0.71841 2.13093,3.34769 c 2.55811,4.01878 2.99389,4.1259 4.382894,1.07738 1.59491,-3.50045 7.89106,-4.32904 10.96332,-1.4428 3.08739,2.90044 3.13666,8.92614 0.0961,11.75879 l -2.1885,2.03896 4.12954,0 c 4.58703,0 5.99557,-1.13433 3.73657,-3.00914 -1.94938,-1.61784 -1.90959,-7.94535 0.0677,-10.76835 1.16375,-1.66147 2.55797,-2.22251 5.52307,-2.22251 l 3.96635,0 -1.63807,-2.5 c -1.91157,-2.91743 -1.60852,-2.87282 -7.45673,-1.09759 z m -49.221781,0.72712 c 0.60291,0.60291 1.66805,0.74279 2.36696,0.31084 0.9387,-0.58015 0.76548,-0.96881 -0.66287,-1.48735 -2.36753,-0.85949 -3.1795,-0.2989 -1.70409,1.17651 z m 6.30939,1.33185 c 1.39641,0.75972 3.16382,2.54892 3.92757,3.976 1.20945,2.25988 1.17315,3.04659 -0.28132,6.09663 -2.38971,5.01128 -5.86008,6.36514 -10.25245,3.99969 -1.888,-1.01675 -3.46435,-2.34028 -3.50301,-2.94117 -0.0386,-0.60089 -0.41872,-0.20047 -0.84458,0.88982 -0.64159,1.64257 -0.19688,2.18085 2.59456,3.14051 1.85288,0.63698 6.53268,1.20632 10.39956,1.26518 l 7.0307,0.10702 -1.55498,-2.22004 c -2.98443,-4.26087 -1.55938,-9.66093 3.20875,-12.15921 l 2.71344,-1.42171 -4.48858,-0.58369 c -2.46872,-0.32103 -5.61358,-0.75342 -6.98858,-0.96087 -4.38967,-0.66227 -4.5492,-0.59623 -1.96108,0.81184 z m -7.49473,2.46713 c -0.31562,0.51067 0.44532,1.12439 1.69098,1.36381 1.96444,0.37758 1.90092,0.45338 -0.4789,0.5715 -2.26279,0.11231 -2.67702,0.53057 -2.36318,2.38618 0.20929,1.2375 0.82853,2.15515 1.37608,2.03922 0.54754,-0.11594 0.93598,0.53639 0.86318,1.44961 -0.0785,0.98509 1.02868,2.0794 2.72232,2.69063 2.47045,0.89158 3.10977,0.71521 4.75,-1.31039 2.30271,-2.84374 2.39358,-4.9627 0.33863,-7.89656 -1.61453,-2.30506 -7.72511,-3.19358 -8.89911,-1.294 z m 51.655811,1.27149 c -1.55247,1.55247 -1.55247,8.04753 0,9.6 1.69902,1.69902 6.36891,1.48823 8.22857,-0.37143 3.45293,-3.45293 0.58653,-10.42857 -4.28527,-10.42857 -1.50882,0 -3.2833,0.54 -3.9433,1.2 z m -35.473151,1.99013 c -3.40238,4.00771 0.2631,9.11626 6.17381,8.60438 4.701597,-0.40718 7.843837,-4.51933 6.051647,-7.91963 -0.68844,-1.30619 -1.74685,-2.72192 -2.35201,-3.14607 -1.840747,-1.29018 -7.989967,0.24274 -9.873447,2.46132 z m 19.051651,-0.48968 c -0.97817,0.88524 -1.7785,2.85764 -1.7785,4.38311 0,5.30759 5.14955,7.60128 9.78159,4.35686 1.72832,-1.21056 2.08374,-2.16165 1.5882,-4.25 -1.31072,-5.52372 -6.01538,-7.72612 -9.59129,-4.48997 z m -10.249184,10.75876 c -2.991067,1.47637 -2.942137,1.49554 3.87567,1.51802 6.495754,0.0214 6.813914,-0.081 5.368284,-1.72723 -0.84519,-0.9625 -1.86803,-2.83423 -2.272974,-4.15941 l -0.73626,-2.40941 -1.6027,2.64139 c -0.88149,1.45276 -2.96589,3.31425 -4.63202,4.13664 z m 36.814764,-2.95141 c -1.16768,2.51757 -0.71972,2.95731 1.96362,1.92762 0.87697,-0.33653 1.26684,-1.34639 0.96516,-2.5 -0.67846,-2.59443 -1.53786,-2.42648 -2.92878,0.57238 z m -3.61022,5.0532 -3.76613,0.66764 0.602,6.13568 c 0.36267,3.69637 -0.0182,10.1113 -0.95796,16.13568 -0.85798,5.5 -2.21702,14.275 -3.02008,19.5 -2.55024,16.59282 -2.98234,30.5714 -1.20355,38.93471 0.86971,4.0891 1.92567,7.73574 2.34657,8.10366 0.42091,0.36791 3.24029,0.1638 6.26529,-0.45359 3.82846,-0.78138 5.40635,-1.5497 5.19186,-2.52806 -0.16947,-0.77304 -0.96937,-3.91455 -1.77754,-6.98112 -0.91208,-3.46085 -1.41205,-9.55811 -1.31817,-16.0756 0.15045,-10.44444 1.45061,-17.16619 6.95765,-35.97063 1.89092,-6.45673 2.03529,-8.13152 1.06379,-12.34027 -0.61822,-2.6783 -0.91446,-5.20875 -0.65831,-5.62322 0.4038,-0.65336 -0.63853,-5.78225 -2.00887,-9.88483 -0.24231,-0.72542 -1.23027,-1.08692 -2.19548,-0.80332 -0.96521,0.2836 -3.44969,0.81607 -5.52107,1.18327 z m 4.83731,7.189 c 0.91386,8.44601 -0.88968,26.45743 -3.57978,35.75 -1.32429,4.5746 -2.23235,11.50432 -2.62076,20 -0.58748,12.84985 -0.34716,14.61254 3.10166,22.75 0.42102,0.99339 0.31002,1.75 -0.25672,1.75 -0.54913,0 -1.72227,-1.80911 -2.60699,-4.02024 -2.14769,-5.36759 -2.17288,-26.74062 -0.043,-36.47976 3.86915,-17.6922 4.52203,-22.67143 4.49088,-34.25 -0.0181,-6.7375 0.15094,-12.25 0.3757,-12.25 0.22476,0 0.73732,3.0375 1.13901,6.75 z m -69.241301,-7.33276 c 0.29911,0.77948 -0.21524,1.72778 -1.14301,2.10734 -1.50729,0.61663 -1.47395,0.77764 0.31314,1.51247 1.90142,0.78184 1.88909,0.82584 -0.25,0.89266 -2.65292,0.0829 -3.04241,2.71656 -0.5,3.38096 1.43998,0.37631 1.38684,0.47788 -0.3,0.57333 -2.03332,0.11506 -4.45,1.86505 -4.45,3.22238 0,0.38851 0.7875,0.5881 1.75,0.44352 0.9625,-0.14457 1.28185,-0.0876 0.70966,0.12657 -1.89634,0.70985 -4.55145,6.85336 -4.4797,10.36533 0.0389,1.90201 0.0521,5.86082 0.0294,8.79737 -0.0594,7.67458 0.84911,14.07108 2.65036,18.66083 3.11692,7.94226 4.85522,11.47727 5.64934,11.48853 0.44496,0.006 0.55012,0.43038 0.23369,0.94237 -0.60265,0.9751 1.25116,2.60857 2.0518,1.80792 0.2538,-0.25379 -0.0381,-1.76135 -0.64866,-3.35013 -0.92979,-2.41949 -2.02121,-10.42304 -4.34855,-31.88869 -0.17889,-1.65 0.11953,-5.7 0.66316,-9 0.54363,-3.3 1.08582,-6.675 1.20487,-7.5 0.11904,-0.825 1.37643,-3.97107 2.79419,-6.99127 1.86075,-3.96388 2.2527,-5.69805 1.40912,-6.23469 -1.95847,-1.24586 -3.91876,-0.86822 -3.33877,0.6432 z m 12.58278,3.31251 c -3.23042,8.49664 -4.90962,19.93517 -5.14265,35.03119 -0.24781,16.05315 0.30389,20.17175 4.34776,32.45751 2.26382,6.87774 2.37752,10.92311 0.41373,14.72065 -1.40664,2.72014 -1.36649,2.85929 0.95298,3.30268 3.39511,0.64902 3.77173,-2.18396 2.18684,-16.44959 -1.63506,-14.71711 -1.29499,-33.33032 0.84576,-46.29219 2.84317,-17.21492 3.60627,-24.04332 2.77935,-24.87025 -0.34637,-0.34636 -1.69089,-0.62975 -2.98784,-0.62975 -1.64808,0 -2.67057,0.82191 -3.39593,2.72975 z m -8.69659,2.02025 c -3.71869,8.25234 -5.50454,17.09603 -4.89359,24.23356 1.4575,17.02765 3.04898,27.16728 5.39108,34.34764 2.52668,7.74626 2.7256,14.03586 0.67739,21.4188 -0.49404,1.7808 -0.21514,2.25 1.33744,2.25 3.78589,0 5.88307,-4.15406 5.42714,-10.75 -0.10929,-1.58116 -0.82436,-2.28448 -2.40552,-2.366 -1.69317,-0.0873 -1.81691,-0.22918 -0.5,-0.57333 0.9625,-0.25152 1.75,-1.09932 1.75,-1.88399 0,-0.78468 -0.7875,-1.46221 -1.75,-1.50563 -0.9625,-0.0434 -1.25311,-0.28405 -0.6458,-0.53473 0.76998,-0.31783 0.53612,-2.79108 -0.7726,-8.17105 -3.61176,-14.84747 -2.03595,-44.2514 3.08316,-57.53037 1.44929,-3.75945 1.48442,-3.6849 -1.7365,-3.6849 -2.39921,0 -3.14226,0.71128 -4.9622,4.75 z m 48.205871,9.00528 c -0.0491,8.01309 -0.78214,16.45734 -1.97449,22.74472 -2.22242,11.71903 -2.75022,42.22084 -0.77201,44.61507 0.62935,0.76171 1.55077,2.95924 2.0476,4.8834 1.09829,4.25362 4.27697,5.47244 4.27697,1.63995 0,-1.37952 -0.48169,-3.77502 -1.07042,-5.32332 -1.75667,-4.6199 -1.17017,-25.61099 1.12644,-40.3151 1.15969,-7.425 2.51246,-16.2 3.00615,-19.5 1.05772,-7.07021 1.22445,-19.88004 0.27116,-20.83333 -0.36666,-0.36667 -2.05416,-0.66429 -3.75,-0.66139 l -3.08333,0.005 -0.0781,12.74472 z m -7.98302,-11.85412 c 0.69191,1.11953 0.81141,47.57978 0.14173,55.09884 -1.38902,15.5955 -1.49736,20.03592 -0.63213,25.90783 0.98788,6.70428 2.02015,8.17463 5.16219,7.35297 2.35406,-0.6156 2.34847,-1.02184 -0.0996,-7.23264 -1.62606,-4.12534 -2.00258,-7.55271 -2.06389,-18.78702 -0.0412,-7.55763 0.41191,-17.11614 1.00701,-21.24114 3.86459,-26.78819 4.50335,-37.81561 2.38939,-41.25 -0.25391,-0.4125 -1.81165,-0.75 -3.46165,-0.75 -1.65,0 -2.74937,0.40552 -2.44305,0.90116 z m -17.694781,9.84884 c -0.95867,5.9125 -2.01249,17.275 -2.34183,25.25 -0.6951,16.83217 1.17926,52.12335 2.82227,53.1388 3.14277,1.94233 3.29345,-0.24187 3.01146,-43.6534 -0.1842,-28.35702 0.0636,-43.4854 0.71218,-43.4854 0.642607,0 1.002117,14.16675 1.015757,40.02727 0.0116,22.01499 0.30698,41.81499 0.65638,43.99999 l 0.63527,3.97274 4.72883,0 4.728844,0 -0.0373,-13.25 c -0.0205,-7.2875 0.27076,-26.3 0.64722,-42.25 0.37646,-15.95 0.42198,-30.2375 0.10115,-31.75 -0.57067,-2.69037 -0.73895,-2.75 -7.760294,-2.75 l -7.176967,0 -1.74302,10.75 z m 10.113797,34.1068 c -0.0548,25.43398 -0.47673,44.1432 -0.99547,44.1432 -0.92343,0 -0.33671,-86.85908 0.59299,-87.78879 0.27369,-0.27368 0.4548,19.36684 0.40248,43.64559 z M 82.368649,134.1628 c 0,1.85607 -0.99492,8.94357 -2.21092,15.75 -2.46228,13.78224 -3.00587,36.06025 -1.39173,57.03692 0.88314,11.47684 0.93859,11.66952 3.5,12.1617 1.43146,0.27505 2.71574,0.38925 2.85396,0.25376 0.13822,-0.13548 -0.13985,-8.08324 -0.61792,-17.66169 -1.17565,-23.55482 -0.43422,-45.84058 1.93954,-58.29808 2.46225,-12.92195 2.48816,-12.61728 -1.07293,-12.61728 -2.74068,0 -3,0.2917 -3,3.37467 z m 55.936901,11.28904 c 1.24287,4.93588 8.29811,18.85837 13.13813,25.92619 1.54041,2.24944 4.85727,6.11737 7.37079,8.59539 4.61629,4.55108 14.21041,10.49182 15.25576,9.44646 0.31161,-0.31161 -1.30012,-2.26873 -3.58162,-4.34916 -10.80783,-9.85532 -18.77041,-18.23758 -20.28614,-21.35535 -10.22163,-21.02533 -11.92378,-24.17062 -12.67433,-23.42007 -0.22891,0.22892 0.12092,2.54936 0.77742,5.15654 z m -90.936901,0.82818 c 0,3.51112 -16.0735,13.10154 -29.17001,17.40458 -3.62073,1.18964 -7.17782,4.10353 -5.00933,4.10353 2.31515,0 19.12084,-6.1081 23.42588,-8.51423 4.45896,-2.49216 14.75608,-13.23562 16.04949,-16.74517 0.55074,-1.49437 0.20069,-1.42839 -2.32381,0.43806 -1.63472,1.2086 -2.97222,2.69956 -2.97222,3.31323 z m -28.47893,12.50811 c -1.52215,0 -4.88074,2.97366 -4.16593,3.68847 0.95964,0.95964 25.25251,-10.07669 28.05956,-12.74755 0.50309,-0.47868 -4.35707,1.36379 -10.80036,4.09438 -6.44329,2.73058 -12.33526,4.9647 -13.09327,4.9647 z m 127.192031,-7.25 c 1.32194,3.55727 8.52339,12.40877 12.35203,15.18222 5.48626,3.97423 15.80718,7.92617 22.66887,8.68004 5.54443,0.60916 5.69968,0.56383 4.0402,-1.17947 -1.09379,-1.14903 -3.47418,-1.9132 -6.5,-2.08668 -5.72554,-0.32826 -12.49615,-2.75219 -17.2742,-6.1843 -5.09926,-3.66284 -11.93359,-10.85695 -13.01429,-13.69938 -0.51491,-1.35434 -1.38322,-2.46243 -1.92957,-2.46243 -0.54636,0 -0.70072,0.7875 -0.34304,1.75 z m -104.769961,8.96821 c -4.1195,5.4294 -11.0555,10.65961 -21.96202,16.56085 -3.51812,1.90356 -7.07338,4.48032 -7.90057,5.72614 l -1.5039796,2.26513 3.4617096,-1.78416 c 8.72097,-4.49476 17.01441,-10.33055 23.29475,-16.39166 6.49399,-6.26732 12.69285,-14.00057 12.64473,-15.77469 -0.024,-0.88644 -1.865,1.26701 -8.03462,9.39839 z m 94.712351,-0.44252 c -1.41913,4.55163 -3.30931,11.41413 -4.2004,15.25 -3.51886,15.14754 -1.08794,41.97558 3.69022,40.72606 1.70954,-0.44706 1.70792,-0.62201 -0.038,-4.10934 -1.00294,-2.00333 -2.121,-4.88006 -2.48457,-6.39275 -1.04655,-4.35432 1.01355,-14.42253 5.27435,-25.77707 5.33561,-14.21878 5.73156,-17.30935 2.97517,-23.22259 -1.21779,-2.6125 -2.3092,-4.75 -2.42536,-4.75 -0.11617,0 -1.37231,3.72406 -2.79144,8.27569 z m 21.71663,0.27508 c 6.78784,6.38508 9.00921,7.49488 20.12788,10.05592 2.95309,0.68021 2.92181,0.60554 -2,-4.77486 -4.39962,-4.80956 -5.58984,-5.54453 -9.91224,-6.12095 -2.70174,-0.3603 -6.97674,-1.72877 -9.5,-3.04106 -2.52327,-1.31229 -4.81276,-2.43041 -5.08776,-2.4847 -0.275,-0.0543 2.59245,2.81025 6.37212,6.36565 z M 48.921439,156.70272 c -0.31089,0.50302 5e-5,1.1425 0.69098,1.42105 0.75786,0.30554 0.56198,0.53778 -0.49377,0.58541 -2.01815,0.091 -2.34526,1.67209 -0.5,2.41667 0.72518,0.29262 0.49048,0.53753 -0.55902,0.58333 -0.99496,0.0434 -1.585,0.44141 -1.3112,0.88443 0.27379,0.44301 0.72852,2.71953 1.0105,5.05893 0.28198,2.33941 1.91022,6.58944 3.6183,9.44453 1.70809,2.85508 2.83842,4.2221 2.51184,3.03782 -1.25604,-4.55485 -2.50908,-14.07077 -2.51463,-19.09676 -0.005,-4.80733 -1.03576,-6.62856 -2.453,-4.33541 z m -15.67684,6.51841 c -2.40677,1.33815 -6.52246,2.96884 -9.14598,3.62376 -3.16746,0.7907 -5.38056,2.07309 -6.58727,3.817 -2.00835,2.90242 -3.36154,6.12624 -2.57148,6.12624 2.4113,0 18.62766,-10.30776 21.83377,-13.87841 2.44706,-2.7253 1.83571,-2.67135 -3.52904,0.31141 z m 10.46653,4.81092 c 0.34159,2.88416 1.0315,5.38074 1.53314,5.54795 0.50163,0.16721 0.71118,1.07221 0.46566,2.01109 -0.24553,0.93889 0.36474,2.60481 1.35615,3.70206 0.99142,1.09724 2.91749,3.65506 4.28016,5.68406 1.36268,2.02899 2.63135,3.53531 2.81929,3.34737 0.42916,-0.42915 -2.00891,-4.82556 -3.13229,-5.64825 -0.45948,-0.3365 -0.75021,-0.91911 -0.64609,-1.29471 0.10413,-0.37559 -0.84074,-3.02528 -2.09972,-5.88819 -2.70935,-6.16106 -3.08653,-7.47395 -3.0037,-10.4553 0.0344,-1.2375 -0.44512,-2.25 -1.06557,-2.25 -0.773,0 -0.9326,1.65066 -0.50703,5.24392 z m 95.818421,13.14431 c -2.52544,5.68699 -5.27017,15.61324 -4.31597,15.60855 0.73103,-0.004 12.15507,-25.26533 12.15507,-26.87824 0,-0.56344 -0.54797,-2.22709 -1.2177,-3.697 -1.18442,-2.59952 -1.26188,-2.49833 -2.83419,3.70295 -0.88906,3.50653 -2.59331,8.57521 -3.78721,11.26374 z m 17.91479,-10.72253 c 3.63431,3.99617 8.33269,8.27185 9.12604,8.30499 2.04899,0.0856 -2.45046,-6.48432 -5.80078,-8.47007 -5.22854,-3.09896 -6.24772,-3.04836 -3.32526,0.16508 z m -17.52127,20.8343 c -1.49294,3.3 -2.31715,5.55 -1.83156,5 3.20802,-3.63358 9.13373,-12.49025 10.03603,-15 3.74029,-10.40372 2.04909,-12.9254 -2.22832,-3.32256 -1.79394,4.02741 -4.48321,10.02256 -5.97615,13.32256 z M 55.024939,185.5818 c 0.31734,1.21348 0.96484,2.20633 1.4389,2.20633 0.47406,0 0.34848,-1.1269 -0.27907,-2.50423 -1.35249,-2.96838 -1.97234,-2.80918 -1.15983,0.2979 z m 8.6878,11.69853 c 1.48946,3.21134 2.51386,3.21555 1.90066,0.008 -0.26285,-1.375 -1.05811,-2.5 -1.76724,-2.5 -1.01676,0 -1.04497,0.52687 -0.13342,2.4922 z m 1.25819,6.2692 c 0.30376,1.51878 -0.10486,4.66878 -0.90803,7 -1.1363,3.29812 -1.18118,4.2386 -0.20228,4.2386 0.69191,0 1.53928,-1.40625 1.88303,-3.125 0.94623,-4.73114 0.7485,-10.875 -0.35,-10.875 -0.53625,0 -0.72647,1.24263 -0.42272,2.7614 z m -4.10501,4.17781 c -1.84112,-0.41574 -2.8785,2.73709 -1.4158,4.30292 1.23636,1.32353 1.55691,1.14489 2.66207,-1.48352 0.69105,-1.64352 1.22483,-3.72406 1.18617,-4.62342 -0.0586,-1.36247 -0.19016,-1.33098 -0.78904,0.18881 -0.39532,1.0032 -1.13485,1.73004 -1.6434,1.61521 z m 77.134591,2.80551 c 1.05804,2.6935 2.08004,3.91933 2.9798,3.57406 1.04347,-0.40042 0.71709,-1.43315 -1.37111,-4.33853 -1.5073,-2.09716 -2.84821,-3.70549 -2.9798,-3.57406 -0.13158,0.13144 0.48541,2.08377 1.37111,4.33853 z m -83.131861,3.25528 c -0.33992,0.55 -0.0933,1 0.54797,1 0.6413,0 0.92244,0.63474 0.62474,1.41053 -0.72796,1.89704 9.94979,6.36697 11.50184,4.81492 0.74034,-0.74034 0.12569,-1.53595 -2.05965,-2.66603 -1.74829,-0.90408 -3.1149,-1.16078 -3.1149,-0.5851 0,0.56412 -0.47656,1.02568 -1.05902,1.02568 -0.58246,0 -0.77313,-0.46257 -0.42371,-1.02794 0.34941,-0.56536 -0.41153,-1.90039 -1.69099,-2.96673 -2.66648,-2.22233 -3.46015,-2.40676 -4.32628,-1.00533 z m 87.296411,2.5 c -0.13344,1.36241 -3.09013,3.4365 -4.05169,2.84223 -0.42754,-0.26424 -0.55845,-0.8346 -0.29091,-1.26749 0.87288,-1.41235 -16.6424,3.61406 -17.56089,5.03951 -0.75809,1.17649 -1.02707,1.1776 -1.78132,0.007 -0.68547,-1.06358 -2.37298,-1.21947 -7.38764,-0.68244 l -6.49923,0.69601 1.10687,2.93244 c 1.49004,3.94755 2.97715,4.00449 19.6684,0.75304 13.807,-2.6896 21.77191,-6.64545 20.4286,-10.14607 -0.70017,-1.82461 -3.45759,-1.95711 -3.63219,-0.17453 z m -9.29641,4.5 c -0.33992,0.55 -0.81648,1 -1.05902,1 -0.24254,0 -0.44098,-0.45 -0.44098,-1 0,-0.55 0.47656,-1 1.05902,-1 0.58246,0 0.7809,0.45 0.44098,1 z m -6,2 c -0.33992,0.55 -1.04148,1 -1.55902,1 -0.51754,0 -0.94098,-0.45 -0.94098,-1 0,-0.55 0.70156,-1 1.55902,-1 0.85746,0 1.2809,0.45 0.94098,1 z m -11.5,1 c 0,0.55 -0.45,1 -1,1 -0.55,0 -1,-0.45 -1,-1 0,-0.55 0.45,-1 1,-1 0.55,0 1,0.45 1,1 z m -6,1 c 0,0.55 -0.45,1 -1,1 -0.55,0 -1,-0.45 -1,-1 0,-0.55 0.45,-1 1,-1 0.55,0 1,0.45 1,1 z m -58.171261,-4.34501 c -1.00581,0.91024 -1.82874,2.06 -1.82874,2.55503 0,2.45052 24.97677,10.7502 34.09893,11.33093 5.18387,0.33001 5.88658,0.13011 7.33994,-2.088 1.59298,-2.43119 1.5782,-2.45307 -1.66582,-2.46661 -1.80018,-0.008 -4.35592,-0.30339 -5.67942,-0.65752 -1.68718,-0.45143 -2.19256,-0.29792 -1.69098,0.51366 0.42257,0.68374 0.0901,1.15752 -0.81225,1.15752 -0.94705,0 -1.30887,-0.57008 -0.95203,-1.5 0.36466,-0.95029 -0.014,-1.5 -1.03326,-1.5 -0.88487,0 -5.3555,-1.29819 -9.93473,-2.88486 -7.59585,-2.63191 -8.4304,-2.74152 -9.51809,-1.25 -1.03604,1.42068 -1.11926,1.35263 -0.63524,-0.51947 0.43742,-1.69183 -0.0413,-2.3726 -2.23003,-3.17105 -1.53286,-0.5592 -2.97659,-1.05225 -3.20828,-1.09567 -0.23169,-0.0434 -1.24419,0.66579 -2.25,1.57604 z m 3.17126,0.34501 c 0,0.55 -0.47656,1 -1.05902,1 -0.58246,0 -0.7809,-0.45 -0.44098,-1 0.33992,-0.55 0.81648,-1 1.05902,-1 0.24254,0 0.44098,0.45 0.44098,1 z m 13,5 c 0,0.55 -0.70156,1 -1.55902,1 -0.85746,0 -1.2809,-0.45 -0.94098,-1 0.33992,-0.55 1.04148,-1 1.55902,-1 0.51754,0 0.94098,0.45 0.94098,1 z m 6,3 c 0,0.55 -0.45,1 -1,1 -0.55,0 -1,-0.45 -1,-1 0,-0.55 0.45,-1 1,-1 0.55,0 1,0.45 1,1 z m 15,3 c 0,0.55 -0.45,1 -1,1 -0.55,0 -1,-0.45 -1,-1 0,-0.55 0.45,-1 1,-1 0.55,0 1,0.45 1,1 z m 55.498351,-9.75 c -1.91047,1.2375 -3.47916,3.06406 -3.48597,4.05902 -0.007,0.99496 -0.46972,1.52636 -1.02869,1.1809 -0.55897,-0.34547 -0.75742,-1.04702 -0.44099,-1.55902 0.31644,-0.51199 0.21128,-0.91495 -0.23368,-0.89547 -1.1425,0.05 -5.98354,2.88606 -5,2.92913 0.44496,0.0195 0.47983,0.56807 0.0775,1.21906 -0.52788,0.85412 -0.89229,0.75871 -1.30902,-0.34271 -0.50769,-1.34183 -1.30277,-1.36461 -6.5775,-0.18844 -3.3,0.73584 -8.5875,1.62756 -11.75,1.9816 -3.19718,0.35792 -5.73588,1.13701 -5.71819,1.75482 0.0646,2.25702 2.76445,4.61111 5.28837,4.61111 5.12716,0 23.30764,-5.30068 29.86699,-8.70799 6.34914,-3.29812 6.63168,-3.59549 5.58948,-5.88286 -0.60372,-1.32503 -1.25676,-2.40915 -1.45119,-2.40915 -0.19443,0 -1.91663,1.0125 -3.82711,2.25 z m 2.50165,1.75 c 0,0.55 -0.45,1 -1,1 -0.55,0 -1,-0.45 -1,-1 0,-0.55 0.45,-1 1,-1 0.55,0 1,0.45 1,1 z m -18.55279,5.91459 c 0.32198,0.52097 0.15917,1.21065 -0.3618,1.53262 -0.52097,0.32198 -1.21065,0.15917 -1.53262,-0.3618 -0.32198,-0.52097 -0.15917,-1.21065 0.3618,-1.53262 0.52097,-0.32198 1.21065,-0.15917 1.53262,0.3618 z m -7.44721,2.08541 c 0,0.55 -0.45,1 -1,1 -0.55,0 -1,-0.45 -1,-1 0,-0.55 0.45,-1 1,-1 0.55,0 1,0.45 1,1 z m -7,1.55902 c 0,0.85746 -0.45734,1.27636 -1.01631,0.9309 -0.55897,-0.34547 -0.75742,-1.04702 -0.44099,-1.55902 0.85725,-1.38704 1.4573,-1.12841 1.4573,0.62812 z M 69.868649,220.78813 c 0.33992,0.55 0.029,1.01802 -0.69098,1.04004 -2.68348,0.0821 4.05637,2.88506 10.56888,4.39541 9.54266,2.21309 13.168727,2.04991 15.079867,-0.67863 l 1.57118,-2.24317 -10.764467,-1.63099 c -13.22121,-2.00322 -16.57301,-2.19089 -15.76448,-0.88266 z m 8,2 c -0.33992,0.55 -1.04148,1 -1.55902,1 -0.51754,0 -0.94098,-0.45 -0.94098,-1 0,-0.55 0.70156,-1 1.55902,-1 0.85746,0 1.2809,0.45 0.94098,1 z m 5.5,1 c 0,0.55 -0.45,1 -1,1 -0.55,0 -1,-0.45 -1,-1 0,-0.55 0.45,-1 1,-1 0.55,0 1,0.45 1,1 z m 7,1 c 0,0.55 -0.45,1 -1,1 -0.55,0 -1,-0.45 -1,-1 0,-0.55 0.45,-1 1,-1 0.55,0 1,0.45 1,1 z m 42.000001,9.41353 c -3.575,0.94482 -8.78955,2.3633 -11.58789,3.15216 -2.79834,0.78887 -5.83584,1.43431 -6.75,1.43431 -1.9647,0 -2.07543,0.99876 -0.49522,4.46695 1.23328,2.70675 1.1718,2.70212 11.33311,0.85205 6.65716,-1.21208 17.58784,-5.35924 22.38828,-8.49425 5.46831,-3.57117 6.98573,-6.0667 5.08297,-8.3594 -1.01868,-1.22742 -2.09535,-0.94905 -7.33262,1.89582 -3.37625,1.83397 -9.06363,4.10753 -12.63863,5.05236 z m 19,-5.41353 c 0,0.55 -0.45,1 -1,1 -0.55,0 -1,-0.45 -1,-1 0,-0.55 0.45,-1 1,-1 0.55,0 1,0.45 1,1 z m -6.55279,2.91459 c 0.32198,0.52097 0.15917,1.21065 -0.3618,1.53262 -0.52097,0.32198 -1.21065,0.15917 -1.53262,-0.3618 -0.32198,-0.52097 -0.15917,-1.21065 0.3618,-1.53262 0.52097,-0.32198 1.21065,-0.15917 1.53262,0.3618 z m -6.44721,4.08541 c 0,0.55 -0.45,1 -1,1 -0.55,0 -1,-0.45 -1,-1 0,-0.55 0.45,-1 1,-1 0.55,0 1,0.45 1,1 z m -8,2.55902 c 0,0.85746 -0.45734,1.27636 -1.01631,0.9309 -0.55897,-0.34547 -0.75742,-1.04702 -0.44099,-1.55902 0.85724,-1.38704 1.4573,-1.12841 1.4573,0.62812 z m -6,1 c 0,0.85746 -0.45,1.2809 -1,0.94098 -0.55,-0.33992 -1,-1.04148 -1,-1.55902 0,-0.51754 0.45,-0.94098 1,-0.94098 0.55,0 1,0.70156 1,1.55902 z m -7,1.44098 c 0,0.55 -0.45,1 -1,1 -0.55,0 -1,-0.45 -1,-1 0,-0.55 0.45,-1 1,-1 0.55,0 1,0.45 1,1 z M 45.087429,228.9299 c -0.97968,1.72101 -1.65468,3.2239 -1.5,3.33976 0.15467,0.11585 4.55622,2.02017 9.78122,4.23182 10.8733,4.60247 18.33301,6.89089 25.51803,7.82817 l 5.01802,0.6546 1.7856,-3.74444 c 1.2147,-2.54725 1.45921,-4.07082 0.76476,-4.76527 -0.69446,-0.69446 -1.22539,-0.4878 -1.66062,0.64637 -0.35187,0.91697 -1.0275,1.66722 -1.50139,1.66722 -0.4739,0 -0.60261,-0.675 -0.28603,-1.5 0.44714,-1.16523 -0.24257,-1.5 -3.0904,-1.5 -2.0163,0 -3.40711,0.41891 -3.09068,0.9309 0.31644,0.512 0.11799,1.21355 -0.44098,1.55902 -0.55897,0.34546 -1.01631,-0.22908 -1.01631,-1.27677 0,-1.5086 -1.54617,-2.35414 -7.43233,-4.06443 -4.08779,-1.18776 -8.15619,-2.43733 -9.0409,-2.77682 -0.88471,-0.33949 -1.47766,-0.15706 -1.31766,0.40542 0.15999,0.56247 -0.15911,1.06768 -0.70911,1.12268 -0.55,0.055 -1,-0.4625 -1,-1.15 0,-1.39837 -5.18165,-4.64675 -7.5,-4.70176 -0.825,-0.0196 -2.30155,1.37251 -3.28122,3.09353 z m 5.78122,-0.14177 c 0.33992,0.55 -0.0835,1 -0.94098,1 -0.85746,0 -1.55902,-0.45 -1.55902,-1 0,-0.55 0.42344,-1 0.94098,-1 0.51754,0 1.2191,0.45 1.55902,1 z m 14,6 c -0.33992,0.55 -1.04148,1 -1.55902,1 -0.51754,0 -0.94098,-0.45 -0.94098,-1 0,-0.55 0.70156,-1 1.55902,-1 0.85746,0 1.2809,0.45 0.94098,1 z m 5.5,1.55902 c 0,0.85746 -0.45734,1.27636 -1.01631,0.9309 -0.55897,-0.34547 -0.75742,-1.04702 -0.44098,-1.55902 0.85723,-1.38704 1.45729,-1.12841 1.45729,0.62812 z m 83.000001,-3.60706 c 0,1.65489 -9.01118,7.23125 -15.37624,9.51522 -3.36807,1.20856 -8.89772,2.77616 -12.28811,3.48357 -4.77254,0.99578 -6.32051,1.76745 -6.856,3.41772 -0.60027,1.84993 -0.75338,1.90034 -1.15897,0.38153 -0.25703,-0.9625 -0.89589,-1.75 -1.41968,-1.75 -0.5238,0 -0.23637,1.38458 0.63874,3.07684 1.49628,2.89349 1.84047,3.03798 5.77568,2.42457 12.6067,-1.96509 23.39941,-5.74156 32.37602,-11.3287 l 4.19144,-2.60879 -2.12558,-3.78196 c -2.01859,-3.5916 -3.7573,-4.90119 -3.7573,-2.83 z m -3,5.98902 c 0,0.51754 -0.45,1.2191 -1,1.55902 -0.55,0.33992 -1,-0.0835 -1,-0.94098 0,-0.85746 0.45,-1.55902 1,-1.55902 0.55,0 1,0.42344 1,0.94098 z m -7.5,4.05902 c 0.33992,0.55 -0.11008,1 -1,1 -0.88992,0 -1.33992,-0.45 -1,-1 0.33992,-0.55 0.78992,-1 1,-1 0.21008,0 0.66008,0.45 1,1 z m -6.5,3 c 0,0.55 -0.45,1 -1,1 -0.55,0 -1,-0.45 -1,-1 0,-0.55 0.45,-1 1,-1 0.55,0 1,0.45 1,1 z m -7,2 c 0,0.55 -0.45,1 -1,1 -0.55,0 -1,-0.45 -1,-1 0,-0.55 0.45,-1 1,-1 0.55,0 1,0.45 1,1 z m -4.55279,0.91459 c 0.32198,0.52097 0.15917,1.21065 -0.3618,1.53262 -0.52097,0.32198 -1.21065,0.15917 -1.53262,-0.3618 -0.32198,-0.52097 -0.15917,-1.21065 0.3618,-1.53262 0.52097,-0.32198 1.21065,-0.15917 1.53262,0.3618 z M 40.129049,237.57401 c -1.37796,2.08223 -6.65599,8.414 -11.72896,14.0706 -5.07297,5.65659 -9.06785,10.41114 -8.87751,10.56566 1.26327,1.02555 7.26253,2.43851 8.11545,1.91138 0.61029,-0.37719 0.73917,-0.15637 0.31207,0.53469 -1.47649,2.38901 23.25319,11.13179 31.48721,11.13179 4.39091,0 9.45312,-4.42603 6.90514,-6.03736 -0.81059,-0.51261 -1.70882,-0.93891 -1.99606,-0.94733 -0.28724,-0.008 -5.79396,-1.10849 -12.23715,-2.4446 -10.39921,-2.15647 -22.00447,-6.60146 -25.17392,-9.642 -1.95317,-1.87373 0.26866,-1.85995 4.02197,0.025 9.46298,4.75227 13.8041,6.203 25.48731,8.51747 l 12.42405,2.46122 2.22053,-2.69564 c 1.2213,-1.4826 1.8963,-2.96339 1.5,-3.29065 -0.39629,-0.3273 -4.32053,-1.38997 -8.72053,-2.36154 -9.17604,-2.02617 -22.68559,-6.07834 -25.77258,-7.73045 -1.79159,-0.95883 -2.41667,-0.72748 -4.25141,1.5735 -2.11663,2.65452 -2.14828,2.66067 -1.98062,0.385 0.0937,-1.27194 0.69558,-2.36887 1.33749,-2.43762 2.48494,-0.26614 2.60919,-0.46954 0.89609,-1.46687 -0.97407,-0.56708 -1.4949,-1.47785 -1.1574,-2.02393 0.38446,-0.62207 1.41933,-0.46619 2.77103,0.41741 4.08547,2.67067 22.80387,8.47842 34.16938,10.60173 4.05546,0.75764 4.57096,0.61903 6.04082,-1.62427 0.88385,-1.34893 1.37043,-2.68918 1.08127,-2.97833 -0.28915,-0.28915 -4.4876,-1.32703 -9.3299,-2.3064 -4.84229,-0.97936 -11.27917,-2.7283 -14.30417,-3.88653 -3.22669,-1.23545 -5.63778,-1.69294 -5.83333,-1.10684 -0.18334,0.54947 -0.79398,0.99903 -1.35699,0.99903 -0.56301,0 -0.78613,-0.61899 -0.49581,-1.37555 0.31408,-0.81848 -0.49975,-1.84374 -2.0096,-2.53168 -2.12671,-0.96899 -2.74664,-0.87006 -3.82974,0.61118 -1.16671,1.59557 -1.27686,1.50154 -1.13341,-0.96761 0.19873,-3.42088 0.83038,-3.408 9.84267,0.2007 8.29006,3.3195 20.25831,6.64696 26.5178,7.37259 3.53916,0.41028 4.43079,0.13728 5.65527,-1.73151 1.44242,-2.20142 1.37703,-2.23588 -8.44715,-4.45142 -5.44546,-1.22806 -12.37783,-3.32828 -15.40527,-4.66716 -3.02744,-1.33887 -5.50444,-1.99 -5.50444,-1.44693 0,0.54306 -0.45,0.98739 -1,0.98739 -0.55,0 -1,-0.66063 -1,-1.46806 0,-1.25609 -4.24079,-4.37017 -6.11711,-4.4919 -0.33942,-0.022 -1.74454,1.66361 -3.12249,3.74584 z m 5.2396,-0.78588 c 0,0.55 -0.45,1 -1,1 -0.55,0 -1,-0.45 -1,-1 0,-0.55 0.45,-1 1,-1 0.55,0 1,0.45 1,1 z m 11,5 c 0,0.55 -0.45,1 -1,1 -0.55,0 -1,-0.45 -1,-1 0,-0.55 0.45,-1 1,-1 0.55,0 1,0.45 1,1 z m 5.5,2 c 0.33992,0.55 -0.11008,1 -1,1 -0.88992,0 -1.33992,-0.45 -1,-1 0.33992,-0.55 0.78992,-1 1,-1 0.21008,0 0.66008,0.45 1,1 z m 8.5,3 c 0,0.55 -0.45,1 -1,1 -0.55,0 -1,-0.45 -1,-1 0,-0.55 0.45,-1 1,-1 0.55,0 1,0.45 1,1 z m 7,1 c 0,0.55 -0.45,1 -1,1 -0.55,0 -1,-0.45 -1,-1 0,-0.55 0.45,-1 1,-1 0.55,0 1,0.45 1,1 z m -24,2 c 0,0.55 -0.45,1 -1,1 -0.55,0 -1,-0.45 -1,-1 0,-0.55 0.45,-1 1,-1 0.55,0 1,0.45 1,1 z m 7,2 c 0,0.55 -0.45,1 -1,1 -0.55,0 -1,-0.45 -1,-1 0,-0.55 0.45,-1 1,-1 0.55,0 1,0.45 1,1 z m 7.5,2 c 0.33992,0.55 -0.0835,1 -0.94098,1 -0.85746,0 -1.55902,-0.45 -1.55902,-1 0,-0.55 0.42344,-1 0.94098,-1 0.51754,0 1.2191,0.45 1.55902,1 z m -28.05279,-0.0854 c 0.32198,0.52097 0.15917,1.21065 -0.3618,1.53262 -0.52097,0.32198 -1.21065,0.15917 -1.53262,-0.3618 -0.32198,-0.52097 -0.15917,-1.21065 0.3618,-1.53262 0.52097,-0.32198 1.21065,-0.15917 1.53262,0.3618 z m 7.05279,3.0854 c 0.33992,0.55 -0.0835,1 -0.94098,1 -0.85746,0 -1.55902,-0.45 -1.55902,-1 0,-0.55 0.42344,-1 0.94098,-1 0.51754,0 1.2191,0.45 1.55902,1 z m 6.5,2 c 0,0.55 -0.45,1 -1,1 -0.55,0 -1,-0.45 -1,-1 0,-0.55 0.45,-1 1,-1 0.55,0 1,0.45 1,1 z m -25.54271,0.9309 c 0.68308,1.10523 -0.8944,2.29865 -1.81781,1.37525 -0.95079,-0.95079 -0.77359,-2.30615 0.3015,-2.30615 0.51754,0 1.19988,0.41891 1.51631,0.9309 z m 32.54271,1.12812 c 0,0.58246 -0.45,0.7809 -1,0.44098 -0.55,-0.33992 -1,-0.81648 -1,-1.05902 0,-0.24254 0.45,-0.44098 1,-0.44098 0.55,0 1,0.47656 1,1.05902 z m 8.5,1.94098 c -0.33992,0.55 -0.81648,1 -1.05902,1 -0.24254,0 -0.44098,-0.45 -0.44098,-1 0,-0.55 0.47656,-1 1.05902,-1 0.58246,0 0.7809,0.45 0.44098,1 z m -34.5,0 c 0,0.55 -0.45,1 -1,1 -0.55,0 -1,-0.45 -1,-1 0,-0.55 0.45,-1 1,-1 0.55,0 1,0.45 1,1 z m 8,3 c 0,0.55 -0.45,1 -1,1 -0.55,0 -1,-0.45 -1,-1 0,-0.55 0.45,-1 1,-1 0.55,0 1,0.45 1,1 z m 8.48992,3.01631 c -0.34546,0.55897 -1.04702,0.75742 -1.55902,0.44098 -1.38704,-0.85724 -1.12841,-1.45729 0.62812,-1.45729 0.85746,0 1.27636,0.45734 0.9309,1.01631 z m 7.01008,0.98369 c 0.33992,0.55 -0.0835,1 -0.94098,1 -0.85746,0 -1.55902,-0.45 -1.55902,-1 0,-0.55 0.42344,-1 0.94098,-1 0.51754,0 1.2191,0.45 1.55902,1 z m 5,1 c 0.33992,0.55 -0.11008,1 -1,1 -0.88992,0 -1.33992,-0.45 -1,-1 0.33992,-0.55 0.78992,-1 1,-1 0.21008,0 0.66008,0.45 1,1 z M 151.16982,246.1588 c -5.73438,2.99955 -12.02001,5.23652 -20.03647,7.13073 l -11.68085,2.76006 1.45096,2.80586 c 0.79803,1.54322 1.79167,3.00288 2.20808,3.24368 0.90927,0.52582 10.1294,-1.55108 19.75711,-4.45043 7.40782,-2.23084 13.22617,-4.87203 17.74303,-8.05429 2.64349,-1.86241 2.68792,-2.03912 1.22432,-4.86941 -0.83529,-1.61528 -1.69688,-2.93687 -1.91464,-2.93687 -0.21776,0 -4.15596,1.9668 -8.75154,4.37067 z m 7.19883,-0.37067 c 0,0.55 -0.45,1 -1,1 -0.55,0 -1,-0.45 -1,-1 0,-0.55 0.45,-1 1,-1 0.55,0 1,0.45 1,1 z m -6,3 c 0,0.55 -0.45,1 -1,1 -0.55,0 -1,-0.45 -1,-1 0,-0.55 0.45,-1 1,-1 0.55,0 1,0.45 1,1 z m -9,4 c 0,0.55 -0.45,1 -1,1 -0.55,0 -1,-0.45 -1,-1 0,-0.55 0.45,-1 1,-1 0.55,0 1,0.45 1,1 z m -6,0.94098 c 0,0.51754 -0.45,1.2191 -1,1.55902 -0.55,0.33992 -1,-0.0835 -1,-0.94098 0,-0.85746 0.45,-1.55902 1,-1.55902 0.55,0 1,0.42344 1,0.94098 z m -8,3.05902 c 0,0.55 -0.45,1 -1,1 -0.55,0 -1,-0.45 -1,-1 0,-0.55 0.45,-1 1,-1 0.55,0 1,0.45 1,1 z m -5.5,1 c -0.33992,0.55 -1.06803,1 -1.61803,1 -0.55,0 -0.72189,-0.45 -0.38197,-1 0.33992,-0.55 1.06803,-1 1.61803,-1 0.55,0 0.72189,0.45 0.38197,1 z m 33.82167,-4.54895 c -3.20192,1.89808 -9.63457,4.64937 -14.29478,6.11399 -4.6602,1.46461 -9.03339,3.39914 -9.71819,4.29895 -0.80193,1.0537 -1.25641,1.1911 -1.2769,0.38601 -0.0559,-2.19921 -4.0318,-1.45962 -4.0318,0.75 0,1.1 -0.45,2 -1,2 -0.55,0 -1,-0.675 -1,-1.5 0,-0.825 -0.45,-1.5 -1,-1.5 -1.27372,0 -1.25619,0.34362 0.17812,3.49158 0.79776,1.7509 1.6856,2.38609 2.75,1.96743 1.53922,-0.60541 11.65442,-2.44178 13.51301,-2.45322 0.51762,-0.003 0.0683,-0.644 -0.99843,-1.42403 -1.06676,-0.78003 -1.60552,-1.75227 -1.19726,-2.16054 0.40826,-0.40826 1.66389,0.0917 2.79028,1.11111 1.99419,1.80471 2.1979,1.80416 7.75613,-0.0211 6.79313,-2.23072 12.55193,-4.96898 15.17674,-7.21641 1.74243,-1.49192 1.78089,-1.87865 0.44387,-4.46415 -0.8051,-1.5569 -1.64501,-2.83072 -1.86647,-2.83072 -0.22146,0 -3.0224,1.55297 -6.22432,3.45105 z m 5.67833,0.54895 c 0,0.55 -0.45,1 -1,1 -0.55,0 -1,-0.45 -1,-1 0,-0.55 0.45,-1 1,-1 0.55,0 1,0.45 1,1 z m -7,3 c 0,0.55 -0.45,1 -1,1 -0.55,0 -1,-0.45 -1,-1 0,-0.55 0.45,-1 1,-1 0.55,0 1,0.45 1,1 z m -7,3 c 0,0.55 -0.45,1 -1,1 -0.55,0 -1,-0.45 -1,-1 0,-0.55 0.45,-1 1,-1 0.55,0 1,0.45 1,1 z m 17,-1.06349 c 0,0.51509 -4.95363,2.8352 -11.00806,5.15582 -8.0273,3.07681 -10.93817,4.64116 -10.75,5.77724 0.14193,0.85686 -0.49416,1.71294 -1.41355,1.9024 -1.20705,0.24875 -1.53606,-0.17385 -1.18386,-1.52066 0.42204,-1.61388 0.007,-1.80906 -3.07839,-1.44883 -3.387,0.39542 -4.0138,1.07502 -3.64079,3.94752 0.0893,0.6875 -0.3074,1.25 -0.88151,1.25 -0.57411,0 -1.04384,-0.9 -1.04384,-2 0,-2.08317 -0.7767,-2.40666 -3.37991,-1.40771 -1.32287,0.50763 -1.23307,1.01217 0.62828,3.52977 1.93818,2.62154 2.60629,2.88005 6.2117,2.40348 2.22196,-0.2937 6.28596,-0.77155 9.03111,-1.06189 2.74516,-0.29034 6.57016,-0.93687 8.5,-1.43674 1.92985,-0.49987 5.6039,-1.43202 8.16456,-2.07145 2.56066,-0.63943 6.05955,-2.01631 7.77532,-3.05973 l 3.11958,-1.89713 -1.6503,-3.2493 c -0.90767,-1.78711 -2.09916,-3.8118 -2.64777,-4.4993 -1.17342,-1.47051 -2.75257,-1.65036 -2.75257,-0.31349 z m 2.44721,1.97808 c 0.32198,0.52097 0.15917,1.21065 -0.3618,1.53262 -0.52097,0.32198 -1.21065,0.15917 -1.53262,-0.3618 -0.32198,-0.52097 -0.15917,-1.21065 0.3618,-1.53262 0.52097,-0.32198 1.21065,-0.15917 1.53262,0.3618 z m -5.44721,3.08541 c 0,0.55 -0.45,1 -1,1 -0.55,0 -1,-0.45 -1,-1 0,-0.55 0.45,-1 1,-1 0.55,0 1,0.45 1,1 z m -7,3 c 0,0.55 -0.45,1 -1,1 -0.55,0 -1,-0.45 -1,-1 0,-0.55 0.45,-1 1,-1 0.55,0 1,0.45 1,1 z m -6.99086,2.51101 c 1.00476,1.21067 0.94351,1.48899 -0.32768,1.48899 -1.8669,0 -3.08755,-1.63099 -1.81108,-2.41989 0.49665,-0.30695 1.45909,0.11196 2.13876,0.9309 z M 15.950439,264.39512 c -1.69809,0.65162 -2.2083,3.39301 -0.63148,3.39301 0.52267,0 1.39464,-0.7875 1.93772,-1.75 0.79087,-1.40166 1.23867,-1.50119 2.24969,-0.5 1.01486,1.00499 0.94063,1.25 -0.3787,1.25 -3.15095,0 -2.72777,1.82089 0.92391,3.97543 6.4785,3.82241 22.15833,9.90778 28.48473,11.05497 7.05641,1.27957 10.35208,0.7355 11.78713,-1.94592 0.92456,-1.72755 0.50486,-1.95082 -4.83131,-2.57015 -7.38095,-0.85665 -31.08527,-9.16831 -33.12348,-11.61439 -0.50803,-0.60969 -2.95168,-1.67726 -4.16821,-1.82099 -0.36752,-0.0434 -1.38002,0.19419 -2.25,0.52804 z m 9.91821,4.39301 c 0.33992,0.55 -0.0835,1 -0.94098,1 -0.85746,0 -1.55902,-0.45 -1.55902,-1 0,-0.55 0.42344,-1 0.94098,-1 0.51754,0 1.2191,0.45 1.55902,1 z m 5.94721,2.91459 c 0.32198,0.52097 0.15917,1.21065 -0.3618,1.53262 -0.52097,0.32198 -1.21065,0.15917 -1.53262,-0.3618 -0.32198,-0.52097 -0.15917,-1.21065 0.3618,-1.53262 0.52097,-0.32198 1.21065,-0.15917 1.53262,0.3618 z m 8.55279,4.08541 c 0,0.55 -0.45,1 -1,1 -0.55,0 -1,-0.45 -1,-1 0,-0.55 0.45,-1 1,-1 0.55,0 1,0.45 1,1 z m 9,2 c 0,0.55 -0.45,1 -1,1 -0.55,0 -1,-0.45 -1,-1 0,-0.55 0.45,-1 1,-1 0.55,0 1,0.45 1,1 z m 6.5,1 c 0.33992,0.55 -0.11008,1 -1,1 -0.88992,0 -1.33992,-0.45 -1,-1 0.33992,-0.55 0.78992,-1 1,-1 0.21008,0 0.66008,0.45 1,1 z M 168.8058,271.14949 c -5.59979,2.6783 -16.71151,5.28146 -26.71462,6.25849 -6.52731,0.63753 -6.71537,0.73059 -5.09501,2.52106 0.92535,1.0225 2.25021,1.85909 2.94413,1.85909 0.69393,0 1.44275,0.54319 1.66404,1.20708 0.57831,1.73494 12.9858,2.2229 21.78955,0.85695 8.20582,-1.27317 15.97476,-4.29036 15.97476,-6.20405 0,-1.01685 -4.82349,-8.85998 -5.44885,-8.85998 -0.0973,0 -2.39856,1.06261 -5.114,2.36136 z m 2.05277,3.65495 c -0.34547,0.55897 -1.04702,0.75742 -1.55902,0.44098 -1.38704,-0.85724 -1.12841,-1.45729 0.62812,-1.45729 0.85746,0 1.27636,0.45734 0.9309,1.01631 z m -5.98992,0.98369 c 0.33992,0.55 -0.30852,1 -1.44098,1 -1.13246,0 -2.05902,-0.45 -2.05902,-1 0,-0.55 0.64844,-1 1.44098,-1 0.79254,0 1.7191,0.45 2.05902,1 z m -6.5,2 c 0,0.55 -0.675,1 -1.5,1 -0.825,0 -1.5,-0.45 -1.5,-1 0,-0.55 0.675,-1 1.5,-1 0.825,0 1.5,0.45 1.5,1 z m -7.5,2 c -0.33992,0.55 -0.81648,1 -1.05902,1 -0.24254,0 -0.44098,-0.45 -0.44098,-1 0,-0.55 0.47656,-1 1.05902,-1 0.58246,0 0.7809,0.45 0.44098,1 z m -7,0 c 0.33992,0.55 -0.0835,1 -0.94098,1 -0.85746,0 -1.55902,-0.45 -1.55902,-1 0,-0.55 0.42344,-1 0.94098,-1 0.51754,0 1.2191,0.45 1.55902,1 z"
     id="path9660"
     inkscape:connector-curvature="0" />
  <path
     style="fill:#3a3a3a;stroke:none;stroke-width:1px;stroke-linecap:butt;stroke-linejoin:miter;stroke-opacity:1;fill-opacity:0.58823532"
     d="m 69.764831,43.563559 -2.209746,24.307203 -0.631356,11.995763 -3.15678,12.311441 4.73517,6.313559 9.154661,4.735165 12.942796,1.89407 6.629238,0.94704 12.311436,-2.52543 15.46822,-5.682201 6.62924,-5.050847 -1.89407,-20.519068 -0.94703,-9.154661 1.26271,-12.311441 -6.31356,-14.205508 -11.99576,-10.101695 -9.47034,-8.207627 -2.20974,-3.472458 -5.997886,5.997881 -18.625,13.574153 -5.366525,5.997881 -0.947034,5.050848"
     id="path9664"
     inkscape:connector-curvature="0" />
  <path
     style="fill:#393939;stroke:none;stroke-width:1px;stroke-linecap:butt;stroke-linejoin:miter;stroke-opacity:1;fill-opacity:0.58849555"
     d="m 101.96398,65.661017 0.31568,2.841101 5.36653,0 10.41737,-3.788135 3.47246,-2.525424 -0.63136,-4.103813 -0.94703,-1.894068 -7.57627,4.103813 z"
     id="path10174"
     inkscape:connector-curvature="0" />
  <path
     style="fill:#393939;stroke:none;stroke-width:1px;stroke-linecap:butt;stroke-linejoin:miter;stroke-opacity:1;fill-opacity:0.58849555"
     d="m 74.184322,57.769068 0,3.788135 4.419492,4.103814 8.838983,3.156779 4.103813,0 2.209746,-1.262711 L 92.493644,65.661017 88.389831,63.135593 77.65678,57.45339 z"
     id="path10176"
     inkscape:connector-curvature="0" />
  <path
     style="fill:#393939;stroke:#000000;stroke-width:1px;stroke-linecap:butt;stroke-linejoin:miter;stroke-opacity:1;fill-opacity:0.75221241"
     d="m 131.2522,80.585638 1.11609,10.937684 -0.66965,2.23218 -5.13402,3.125052 1.33931,5.803666 -0.89287,4.68758 6.02689,-3.57149 7.14297,-7.366192 6.91976,-12.276992 3.12505,-9.598375 -3.34827,-1.11609 -4.91079,1.11609 -6.69654,3.348271 -3.34827,1.562526"
     id="path10178"
     inkscape:connector-curvature="0" />
  <path
     style="fill:#393939;stroke:#000000;stroke-width:1px;stroke-linecap:butt;stroke-linejoin:miter;stroke-opacity:1;fill-opacity:0.79646015"
     d="m 44.866824,78.13024 0.892872,5.357232 2.678617,7.812631 4.241142,6.696541 4.910797,5.580456 6.473323,4.01792 2.678616,-10.26803 -2.678616,-3.571488 -1.11609,-2.678617 0.669654,-1.785744 -5.357233,-6.919759 -4.464361,-6.026887 -5.134014,-2.678616 -3.125053,0.892872 -1.339308,5.134015"
     id="path10180"
     inkscape:connector-curvature="0" />
  <path
     style="fill:#393939;stroke:none;stroke-width:1px;stroke-linecap:butt;stroke-linejoin:miter;stroke-opacity:1;fill-opacity:0.86725664"
     d="m 68.081499,100.67526 -2.455398,4.24114 2.678616,2.4554 6.696541,0.89287 13.839518,2.23218 15.625264,-0.44643 15.84848,-2.4554 6.69654,-1.56253 0.66965,-4.46436 -1.56252,-4.464358 -5.13402,2.678617 -7.36619,3.125051 -8.70551,2.90184 -6.696536,0.44643 -10.26803,-0.44643 -7.812631,-1.56253 z"
     id="path10182"
     inkscape:connector-curvature="0" />
  <path
     style="fill:#393939;stroke:none;stroke-width:1px;stroke-linecap:butt;stroke-linejoin:miter;stroke-opacity:1;fill-opacity:0.58849555"
     d="m 132.26907,108.75106 2.8411,3.78813 2.36758,3.78814 3.31462,9.3125 1.42055,4.89301 1.89407,5.36652 2.20975,4.10382 2.8411,3.78813 6.78708,4.41949 7.41843,2.68327 7.41843,0.47351 1.73623,-2.20974 0.47352,-12.1536 -0.7892,-8.99683 -2.52542,-5.99788 -2.52543,-6.78707 -3.78813,-9.3125 -3.47246,-8.049791 -2.52542,-9.154661 -2.52543,-7.73411 -1.26271,0.157839 -0.78919,2.209746 -2.36759,5.997881 -3.47246,5.997881 -5.20868,6.313555 -4.10382,4.10382 z"
     id="path10184"
     inkscape:connector-curvature="0" />
  <path
     style="fill:#393939;fill-opacity:0.58849553;stroke:none"
     d="m 41.518554,85.273217 4.017924,10.714465 4.687579,7.031368 6.80815,7.3662 3.013443,3.01344 -0.892872,3.79471 -9.598375,17.63422 -2.678617,2.4554 -8.482285,6.2501 -10.491247,4.68758 -8.035849,2.67862 -1.562526,-2.23218 0,-13.6163 0.892872,-19.64319 1.11609,-4.46436 4.687578,-7.81263 15.402045,-19.196752 z"
     id="path10186"
     inkscape:connector-curvature="0"
     sodipodi:nodetypes="cccccccccccccccccc" />
  <path
     style="fill:#393939;stroke:none;stroke-width:1px;stroke-linecap:butt;stroke-linejoin:miter;stroke-opacity:1;fill-opacity:0.58849555"
     d="m 16.741352,158.93517 -2.678616,3.12505 0.669654,1.56253 7.589413,-2.90184 14.062736,-6.47332 7.589413,-5.35723 -4.910797,1.3393 -6.250104,2.4554 -9.598376,3.57149 z"
     id="path10188"
     inkscape:connector-curvature="0" />
  <path
     style="fill:#393939;stroke:#000000;stroke-width:1px;stroke-linecap:butt;stroke-linejoin:miter;stroke-opacity:1;fill-opacity:0.58849555"
     d="m 16.96457,169.42641 -3.571488,8.03585 2.008962,0.89288 3.794707,-2.4554 14.509172,-8.92872 7.366195,-7.81264 -5.580451,2.23219 -6.919759,2.90183 z"
     id="path10190"
     inkscape:connector-curvature="0" />
  <path
     style="fill:#393939;stroke:none;stroke-width:1px;stroke-linecap:butt;stroke-linejoin:miter;stroke-opacity:1;fill-opacity:0.58849554999999998"
     d="m 150.67217,153.35472 4.24114,5.58045 4.68758,4.91079 6.02689,4.01793 10.93768,2.90183 5.35724,0.44644 -5.13402,-5.35723 -6.69654,-6.02689 -12.50021,-2.90184 z"
     id="path10192"
     inkscape:connector-curvature="0" />
  <path
     style="fill:#393939;stroke:none;stroke-width:1px;stroke-linecap:butt;stroke-linejoin:miter;stroke-opacity:1;fill-opacity:0.58849555"
     d="m 154.6901,167.19423 3.7947,5.58045 8.03585,6.69655 0.66966,-4.01793 -5.35724,-5.80367 -6.02688,-2.67861 z"
     id="path10194"
     inkscape:connector-curvature="0" />
  <path
     style="fill:#393939;stroke:#000000;stroke-width:1px;stroke-linecap:butt;stroke-linejoin:miter;stroke-opacity:1;fill-opacity:0.58849555"
     d="m 62.277831,126.79177 5.134014,1.56253 10.937684,1.56252 15.402044,0.22322 20.312837,-0.44644 18.97354,-2.67861 1.56252,2.00896 2.4554,9.15194 -0.22322,2.90183 1.56253,8.25907 6.47332,12.72343 4.01793,7.58941 2.90183,4.24114 -2.23218,6.47333 -2.00896,4.68758 -9.37516,12.94664 -0.66965,6.25011 5.58045,7.58941 0.44643,2.23218 -4.68757,1.56253 -8.70551,2.67861 -11.38412,2.23218 -14.50917,1.33931 -9.598375,0 -13.6163,-1.78574 -13.839518,-2.00897 -10.714465,-6.91975 4.46436,-7.58942 -1.11609,-6.91976 -6.919759,-7.14297 -4.910796,-6.25011 -3.794707,-6.47332 -2.455398,-12.27699 5.134014,-8.03585 5.357233,-7.58941 2.455399,-7.3662 1.562526,-6.02689 z"
     id="path10196"
     inkscape:connector-curvature="0" />
  <path
     style="fill:#393939;stroke:none;stroke-width:1px;stroke-linecap:butt;stroke-linejoin:miter;stroke-opacity:1;fill-opacity:0.58849554999999998"
     d="m 103.85805,223.81568 5.36653,12.62712 11.04873,22.72881 10.10169,16.41525 10.1017,9.15467 7.57627,1.57839 19.25635,-1.89407 13.25848,-5.05085 0.31567,-2.52542 -34.72457,-62.50424 -4.10382,0 -4.73516,2.20974 -14.52119,2.84111 -13.57415,1.89406 -5.68221,0.63136 z"
     id="path10198"
     inkscape:connector-curvature="0" />
  <path
     style="fill:#393939;fill-opacity:0.58849553;stroke:none"
     d="m 56.822034,212.13559 8.523305,6.31356 11.680085,1.57839 17.993644,1.57839 4.103813,0.63136 -6.629237,7.89195 -11.048729,19.88771 -13.258474,21.4661 -10.417373,11.68009 -11.364407,-0.83871 -30.620763,-12.10409 -3.472457,-2.8411 9.786017,-10.73305 15.46822,-17.04661 9.154661,-14.52119 7.891949,-13.25847 z"
     id="path10200"
     inkscape:connector-curvature="0"
     sodipodi:nodetypes="ccccccccccccccccc" />
  <path
     style="fill:#393939;stroke:#000000;stroke-width:1px;stroke-linecap:butt;stroke-linejoin:miter;stroke-opacity:1;fill-opacity:0.58849555"
     d="m 67.870763,108.9089 3.156779,2.52542 1.894068,-2.8411 z"
     id="path10202"
     inkscape:connector-curvature="0" />
  <path
     style="fill:#393939;fill-opacity:0.58849553;stroke:none"
     d="m 73.552966,110.64513 4.103814,3.78813 1.104873,2.99894 -0.315678,3.78814 -2.683263,3.6303 -3.314619,0.78919 -7.837787,-4.25372 -1.159035,3.30669 1.57839,2.36758 20.676907,1.57839 -3.15678,-4.57733 -0.947034,-4.57733 2.525424,-3.6303 6.15572,-3.94597 -7.102754,-1.42055 -10.101695,-1.42055 z"
     id="path10204"
     inkscape:connector-curvature="0"
     sodipodi:nodetypes="ccccccccccccccccc" />
  <path
     style="fill:#393939;stroke:none;stroke-width:1px;stroke-linecap:butt;stroke-linejoin:miter;stroke-opacity:1;fill-opacity:0.58849555"
     d="m 93.756356,111.75 4.261653,6.31356 2.525421,1.10487 2.05191,-3.15678 2.52542,-1.57839 5.20869,0 2.8411,2.68327 0,3.31461 0.31568,3.94598 -4.89301,5.20868 3.31462,0 9.15466,-0.94703 -1.10487,-1.89407 -2.68327,-2.68326 -0.15783,-4.89301 1.89406,-4.89301 2.36759,-0.78919 5.36652,0 2.05191,0.15784 -5.52436,-6.62924 -4.10382,1.26271 -5.99788,1.73623 -7.57627,0.63136 z"
     id="path10206"
     inkscape:connector-curvature="0" />
  <path
     style="fill:#393939;stroke:none;stroke-width:1px;stroke-linecap:butt;stroke-linejoin:miter;stroke-opacity:1;fill-opacity:0.58849555"
     d="m 131.1642,121.37818 -2.84111,5.05085 0.63136,1.57838 4.26165,-1.57838 0,-2.84111 z"
     id="path10208"
     inkscape:connector-curvature="0" />
  <path
     style="fill:#393939;fill-opacity:0.58849553;stroke:none"
     d="m 99.28072,119.96556 2.36759,6.14779 2.36758,2.8411 -1.57839,0.78919 -12.942796,-0.94703 2.841101,-2.52542 5.997882,-5.52437 z"
     id="path10210"
     inkscape:connector-curvature="0"
     sodipodi:nodetypes="cccccccc" />
  <path
     style="fill:#f8e330;stroke:none;stroke-width:1px;stroke-linecap:butt;stroke-linejoin:miter;stroke-opacity:1;fill-opacity:0.58849555"
     d="m 66.923729,113.48623 -1.736229,4.57733 1.262712,2.99894 1.736229,2.52542 2.367585,1.10488 2.367584,0.63135 2.841102,-0.78919 2.209746,-1.89407 0.947034,-2.36759 0.473517,-2.8411 -2.998941,-4.26165 -5.840042,-1.42055 z"
     id="path10212"
     inkscape:connector-curvature="0" />
  <path
     style="fill:#f8e330;stroke:none;stroke-width:1px;stroke-linecap:butt;stroke-linejoin:miter;stroke-opacity:1;fill-opacity:0.58849555"
     d="m 85.715724,115.63087 4.241142,-1.33931 3.571489,-0.66965 2.455398,2.67861 1.339308,3.57149 -1.11609,3.12505 -2.455398,1.56253 -4.910797,1.56253 -4.241142,-1.56253 -2.232181,-2.90183 0,-2.23218 1.785745,-3.57149 z"
     id="path10214"
     inkscape:connector-curvature="0" />
  <path
     style="fill:#f8e330;stroke:none;stroke-width:1px;stroke-linecap:butt;stroke-linejoin:miter;stroke-opacity:1;fill-opacity:0.58849555"
     d="m 101.17479,121.53602 c 0.94703,3.31462 2.68326,5.05084 2.68326,5.05084 l 4.10381,1.10488 3.78814,-2.05191 1.73623,-2.20975 -0.47352,-3.15678 -2.36758,-4.57733 -5.05085,-1.57839 -2.52542,1.89407 -2.05191,3.15678 z"
     id="path10216"
     inkscape:connector-curvature="0" />
  <path
     style="fill:#f8e330;stroke:none;stroke-width:1px;stroke-linecap:butt;stroke-linejoin:miter;stroke-opacity:1;fill-opacity:0.58849555"
     d="m 119.01059,115.3803 -1.10487,4.41949 0.63136,4.10381 1.42055,1.73623 3.78813,0.63136 4.10382,-0.94704 1.73623,-2.52542 0,-4.10382 -1.42056,-3.47245 -4.26165,-2.05191 -3.94597,1.26271 z"
     id="path10218"
     inkscape:connector-curvature="0" />
  <path
     style="fill:#f8e330;stroke:none;stroke-width:1px;stroke-linecap:butt;stroke-linejoin:miter;stroke-opacity:1;fill-opacity:0.58849555"
     d="m 42.300848,79.708686 0.947033,-1.262712 1.262712,0.473517 0.473517,2.998941 0.631356,4.57733 2.525424,5.682204 2.998941,4.893008 6.787076,7.734106 3.630296,2.36759 5.366526,1.57839 -1.104873,3.15678 -2.051907,7.41843 -3.472457,7.73411 -3.472458,5.84004 -3.788136,5.05085 -4.893008,4.89301 -3.630297,2.99894 -4.735169,2.8411 -8.049788,3.47246 -12.627119,4.89301 -6.15572,0.94703 0,-1.73623 4.261652,-3.15678 8.207627,-3.15678 9.154661,-3.94597 7.102755,-4.26165 6.944915,-5.36653 2.209746,-2.20974 10.101695,-19.72988 -0.157839,-3.15678 -3.15678,-2.0519 -3.945975,-3.15678 -5.682203,-8.681148 -4.577331,-10.259534 -1.578389,-6.15572 z"
     id="path10220"
     inkscape:connector-curvature="0" />
  <path
     style="fill:#f8e330;stroke:none;stroke-width:1px;stroke-linecap:butt;stroke-linejoin:miter;stroke-opacity:1;fill-opacity:0.58849555"
     d="m 14.955608,164.2924 -3.794706,3.34827 1.785744,1.33931 8.035849,-2.67862 17.187788,-6.47332 5.580451,-5.13402 9.151939,-10.04481 1.11609,-3.12505 -0.223218,-0.89287 -2.455398,0.89287 -3.794706,3.34827 -1.562527,3.12505 -6.026886,4.9108 -8.928722,4.9108 z"
     id="path10222"
     inkscape:connector-curvature="0" />
  <path
     style="fill:#f8e330;stroke:#000000;stroke-width:1px;stroke-linecap:butt;stroke-linejoin:miter;stroke-opacity:1;fill-opacity:0.58849555"
     d="m 13.839518,179.47123 -4.2411427,5.13401 0.2232181,1.78574 16.2949166,-10.04481 9.151939,-6.91976 8.482285,-8.92872 6.696541,-8.7055 0,-1.78574 -1.785744,0.44643 -3.571489,4.46436 -6.026887,6.91976 -7.589413,6.69654 z"
     id="path10224"
     inkscape:connector-curvature="0" />
  <path
     style="fill:#f8e330;stroke:#000000;stroke-width:1px;stroke-linecap:butt;stroke-linejoin:miter;stroke-opacity:1;fill-opacity:0.58849555"
     d="m 127.4575,107.81824 6.2501,-4.24114 5.13402,-5.580456 4.01792,-5.134014 4.24114,-7.366195 2.67862,-7.812631 1.78574,-1.339309 2.00897,1.562527 -0.66966,2.901834 -3.34827,8.482285 -3.79471,6.919759 -4.68757,5.13401 -4.46437,3.79471 -5.13401,2.67862 0,2.00896 2.23218,3.12505 2.67862,3.57149 2.67861,6.25011 2.67862,8.03584 2.4554,7.3662 4.24114,6.47332 4.9108,3.79471 8.92872,3.12505 10.93768,1.11609 4.68758,5.13402 0,1.11609 -7.58941,-0.66966 -11.38412,-1.11609 -8.70551,-5.35723 -9.15193,-8.92872 -3.79471,-8.03585 -2.90184,-8.48229 -1.3393,-5.58045 -6.47333,-12.05377 2.23218,-1.56253"
     id="path10226"
     inkscape:connector-curvature="0" />
  <path
     style="fill:#f8e330;stroke:none;stroke-width:1px;stroke-linecap:butt;stroke-linejoin:miter;stroke-opacity:1;fill-opacity:0.58849555"
     d="m 145.53816,149.78323 1.11609,-0.44644 2.00896,1.33931 2.23218,4.68758 6.2501,6.2501 5.80367,4.68758 9.15194,4.01793 11.38412,2.00896 3.79471,2.23218 0,1.78574 -4.24114,0 -4.9108,-0.22321 -12.05378,-4.68758 -10.04481,-5.35724 -6.2501,-6.91976 z"
     id="path10228"
     inkscape:connector-curvature="0" />
  <path
     style="fill:#f8e330;stroke:none;stroke-width:1px;stroke-linecap:butt;stroke-linejoin:miter;stroke-opacity:1;fill-opacity:0.58849555"
     d="m 137.27909,139.5152 1.78574,0.44643 5.13402,9.8216 7.14297,14.95561 7.58942,8.92872 14.95561,13.6163 2.45539,3.34827 -1.56252,0.89287 -8.92872,-4.46436 -11.38412,-10.04481 -9.15194,-13.39308 -6.02689,-13.83952 -2.67862,-8.25907 z"
     id="path10230"
     inkscape:connector-curvature="0" />
</svg>
