<?xml version="1.0" encoding="UTF-8" standalone="no"?>
<!-- Created with Inkscape (http://www.inkscape.org/) -->

<svg
   xmlns:dc="http://purl.org/dc/elements/1.1/"
   xmlns:cc="http://creativecommons.org/ns#"
   xmlns:rdf="http://www.w3.org/1999/02/22-rdf-syntax-ns#"
   xmlns:svg="http://www.w3.org/2000/svg"
   xmlns="http://www.w3.org/2000/svg"
   xmlns:sodipodi="http://sodipodi.sourceforge.net/DTD/sodipodi-0.dtd"
   xmlns:inkscape="http://www.inkscape.org/namespaces/inkscape"
   id="svg18739"
   version="1.1"
   inkscape:version="0.48.4 r9939"
   width="506"
   height="298"
   sodipodi:docname="Horn.png">
  <metadata
     id="metadata18745">
    <rdf:RDF>
      <cc:Work
         rdf:about="">
        <dc:format>image/svg+xml</dc:format>
        <dc:type
           rdf:resource="http://purl.org/dc/dcmitype/StillImage" />
        <dc:title></dc:title>
      </cc:Work>
    </rdf:RDF>
  </metadata>
  <defs
     id="defs18743">
    <filter
       inkscape:collect="always"
       id="filter19325"
       x="-0.12511849"
       width="1.250237"
       y="-0.15014218"
       height="1.3002844">
      <feGaussianBlur
         inkscape:collect="always"
         stdDeviation="4.0089756"
         id="feGaussianBlur19327" />
    </filter>
  </defs>
  <sodipodi:namedview
     pagecolor="#ffffff"
     bordercolor="#666666"
     borderopacity="1"
     objecttolerance="10"
     gridtolerance="10"
     guidetolerance="10"
     inkscape:pageopacity="0"
     inkscape:pageshadow="2"
     inkscape:window-width="1279"
     inkscape:window-height="756"
     id="namedview18741"
     showgrid="false"
     inkscape:zoom="0.66205534"
     inkscape:cx="463.00782"
     inkscape:cy="107.57385"
     inkscape:window-x="-1"
     inkscape:window-y="22"
     inkscape:window-maximized="0"
     inkscape:current-layer="svg18739" />
  <path
     style="fill:#564200;fill-opacity:0.69801983;stroke:none"
     d="m 16.614925,116.36866 -6.419403,-7.92985 C 19.15266,97.660749 25.33434,86.556163 42.292537,76.719403 L 54.753731,62.370149 92.892537,41.22388 141.22687,14.035821 c 13.06716,0.544021 27.72444,-1.668179 33.60746,11.328358 -10.91355,13.025828 -24.33597,25.110827 -39.27164,36.628358 l -18.8806,10.195522 C 106.07504,79.185768 104.25393,84.586034 98.556717,90.691045 81.340949,103.11016 62.64416,106.27289 43.425373,106.17313 z"
     id="path19261"
     inkscape:connector-curvature="0"
     sodipodi:nodetypes="cccccccccccc" />
  <path
     style="fill:#564200;fill-opacity:0.54455447;stroke:none"
     d="m 15.676453,115.99104 c 10.181277,-1.30828 19.343927,-6.69106 28.881756,-10.57313 50.583143,-1.618 53.031929,-17.369477 67.390311,-29.720743 13.03192,-6.288717 25.17811,-14.053654 36.07536,-23.900152 l 26.56241,-25.364788 c 4.01877,35.240734 6.70892,62.976661 10.2473,84.382253 7.01211,42.41994 14.22904,59.97923 19.83208,61.81836 22.65945,40.04958 54.97329,46.4144 83.06284,51.01219 38.40628,6.28647 76.41797,-1.75841 114.44719,-20.13964 46.11348,-22.96413 70.56263,-57.64144 95.51684,-92.04569 0.66579,36.4476 -26.09593,78.11948 -70.23582,123.10149 -38.26001,37.01298 -93.20242,49.1956 -151.04478,55.30674 -47.0284,-0.19469 -85.60648,-8.8397 -122.78867,-18.8806 -38.87893,-21.90997 -69.016355,-48.35257 -88.674016,-80.22912 z"
     id="path18751"
     inkscape:connector-curvature="0"
     sodipodi:nodetypes="cccccscsccccccc" />
  <path
     style="fill:#fff900;fill-opacity:0.69801983;stroke:none"
     d="m 35.495522,146.95522 8.685075,11.70597 c 16.740796,-2.11493 33.481592,-2.69856 50.222388,-7.55223 26.260125,-15.11514 48.650325,-18.45227 85.717915,-66.459706 l -2.26568,-16.992538 c -9.98043,21.888826 -28.55189,44.406264 -79.487309,69.291794 -23.935154,12.64086 -42.681087,9.06539 -62.872389,10.00671 z"
     id="path19263"
     inkscape:connector-curvature="0"
     sodipodi:nodetypes="ccccccc" />
  <path
     style="fill:#fff900;fill-opacity:0.69801983;stroke:none"
     d="m 63.816418,173.95448 -2.643284,-4.15373 c 6.443286,-2.91704 8.498911,3.08534 2.643284,4.15373 z"
     id="path19265"
     inkscape:connector-curvature="0"
     sodipodi:nodetypes="ccc" />
  <path
     style="fill:#fff900;fill-opacity:0.69801983;stroke:none"
     d="m 81.564179,164.89179 1.510448,-4.72015 c 3.921625,-0.74471 4.74888,1.26114 4.153731,4.53134 -1.88806,0.49756 -3.776119,1.79863 -5.664179,0.18881 z"
     id="path19267"
     inkscape:connector-curvature="0"
     sodipodi:nodetypes="cccc" />
  <path
     style="fill:#fff900;fill-opacity:0.69801983;stroke:none"
     d="m 106.01455,151.58097 c -2.22336,7.07262 4.00532,4.10831 4.90896,1.69925 -0.88867,-2.62515 -3.04839,-1.75033 -4.90896,-1.69925 z"
     id="path19269"
     inkscape:connector-curvature="0"
     sodipodi:nodetypes="ccc" />
  <path
     style="fill:#fff900;fill-opacity:0.69801983;stroke:none"
     d="m 131.97537,139.40298 c 2.03656,-0.5613 3.68925,0.125 4.72015,2.83209 -3.80597,2.90708 -9.5262,3.08307 -4.72015,-2.83209 z"
     id="path19271"
     inkscape:connector-curvature="0"
     sodipodi:nodetypes="ccc" />
  <path
     style="fill:#fff900;fill-opacity:0.69801983;stroke:none"
     d="m 155.0097,124.48731 c 2.79667,0.90785 2.49578,3.05473 2.92649,4.90896 -6.32597,4.29242 -6.63151,-2.9138 -2.92649,-4.90896 z"
     id="path19273"
     inkscape:connector-curvature="0"
     sodipodi:nodetypes="ccc" />
  <path
     style="fill:#fff900;fill-opacity:0.69801983;stroke:none"
     d="m 173.32388,105.88992 c 2.96912,-1.25873 4.36104,0.29171 4.72015,3.68172 -7.07767,7.32581 -8.0888,2.1835 -4.72015,-3.68172 z"
     id="path19275"
     inkscape:connector-curvature="0"
     sodipodi:nodetypes="ccc" />
  <path
     style="fill:#fff900;fill-opacity:0.69801983;stroke:none"
     d="m 65.684943,191.19521 7.476335,8.01036 c -4.852539,-0.0472 2.37096,-7.04045 8.199165,-14.85549 19.359117,-11.13242 44.376127,-20.00168 66.564187,-30.00252 12.35029,-3.3223 25.16714,-9.91054 39.51777,-27.23522 l -1.60207,-11.74852 c -10.2586,14.62792 -24.40781,26.09471 -42.72192,34.17753 -17.87789,11.21262 -38.80493,15.31058 -58.208605,22.96303 -9.522371,4.53169 -15.221465,11.14879 -19.224862,18.69083 z"
     id="path19277"
     inkscape:connector-curvature="0"
     sodipodi:nodetypes="ccccccccc" />
  <path
     style="fill:#fff900;fill-opacity:0.69801983;stroke:none"
     d="m 171.28125,174.3125 c -13.54569,0.2714 -23.71631,7.46215 -32.6875,17.1875 -3.92371,16.55896 -6.58678,30.40812 6.59375,51.9375 18.35103,14.02065 38.63356,17.37656 64,-7.1875 12.89727,-23.06604 6.27415,-39.96835 -9.4375,-54 -11.00124,-5.7764 -20.34134,-8.10034 -28.46875,-7.9375 z m -14.67049,64.69582 c -104.407173,39.32779 -52.20359,19.66389 0,0 z"
     id="path19279"
     inkscape:connector-curvature="0"
     sodipodi:nodetypes="sccccscc" />
  <path
     style="fill:#fff900;fill-opacity:0.69801983;stroke:none"
     d="m 104.40168,235.25219 c 16.25319,-4.91674 24.09574,0.82 33.10948,5.07323 15.63581,10.04004 16.46798,19.84509 16.55474,29.63832 -16.83448,-10.69134 -34.44523,-18.94297 -49.66422,-34.71155 z"
     id="path19289"
     inkscape:connector-curvature="0"
     sodipodi:nodetypes="cccc" />
  <path
     style="fill:#fff900;fill-opacity:0.69801983;stroke:none"
     d="m 198.24627,162.43731 15.8597,24.35597 c -3.83905,0.84276 -7.67811,-3.29977 -11.51716,-7.36343 -6.26587,-12.7311 -5.48083,-15.12088 -4.34254,-16.99254 z"
     id="path19291"
     inkscape:connector-curvature="0"
     sodipodi:nodetypes="cccc" />
  <path
     style="fill:#fff900;fill-opacity:0.69801983;stroke:none"
     d="m 242.42687,285.53881 12.08358,2.64328 c 14.13725,-8.04017 18.5384,-19.89012 24.92239,-30.96418 4.6786,-11.20249 7.03042,-22.40497 5.66418,-33.60746 l -7.17463,-1.13284 -13.21642,38.13881 c -7.15273,8.73746 -12.88856,19.70148 -22.2791,24.92239 z"
     id="path19293"
     inkscape:connector-curvature="0"
     sodipodi:nodetypes="ccccccc" />
  <path
     style="fill:#fff900;fill-opacity:0.69801983;stroke:none"
     d="m 274.22129,285.31693 c -0.18214,-1.96015 0.45188,-3.51223 2.4031,-4.4057 4.09684,2.81457 1.20451,6.44274 -2.4031,4.4057 z"
     id="path19295"
     inkscape:connector-curvature="0"
     sodipodi:nodetypes="ccc" />
  <path
     style="fill:#fff900;fill-opacity:0.69801983;stroke:none"
     d="m 282.76567,270.89829 c 1.69389,3.07004 3.79647,1.73523 5.87426,0.66753 1.56371,-2.16909 0.0816,-3.42444 -1.86908,-4.53921 -2.49534,0.36233 -3.24656,2.11997 -4.00518,3.87168 z"
     id="path19297"
     inkscape:connector-curvature="0"
     sodipodi:nodetypes="cccc" />
  <path
     style="fill:#fff900;fill-opacity:0.69801983;stroke:none"
     d="m 289.84149,251.1394 c 3.48324,6.78926 5.48098,4.96634 7.07581,-0.93454 -3.54663,-3.49017 -5.25495,-1.09774 -7.07581,0.93454 z"
     id="path19299"
     inkscape:connector-curvature="0"
     sodipodi:nodetypes="ccc" />
  <path
     style="fill:#fff900;fill-opacity:0.69801983;stroke:none"
     d="m 294.11368,235.38569 c 5.86258,3.36893 7.95633,-2.72029 3.60466,-4.80621 -2.73013,0.83778 -3.71935,2.54602 -3.60466,4.80621 z"
     id="path19301"
     inkscape:connector-curvature="0"
     sodipodi:nodetypes="ccc" />
  <path
     style="fill:#fff900;fill-opacity:0.69801983;stroke:none"
     d="m 312.404,225.90677 10.68048,0.80104 c -2.21939,35.30693 -13.91412,42.66161 -22.69602,58.60912 l -8.41088,2.40311 c 9.19777,-18.21546 20.07066,-34.7558 20.42642,-61.81327 z"
     id="path19303"
     inkscape:connector-curvature="0"
     sodipodi:nodetypes="ccccc" />
  <path
     style="fill:#b2641b;fill-opacity:0.80693072;stroke:none"
     d="m 402.53433,202.84179 c 2.63505,13.86596 8.02207,26.24128 22.65672,33.60746 25.15766,-22.11441 42.36911,-45.74239 57.0194,-69.85821 6.06219,-17.49602 14.40364,-34.99204 15.8597,-52.48806 -20.76649,25.60383 -41.80124,49.78468 -67.59254,71.36866 z"
     id="path19305"
     inkscape:connector-curvature="0"
     sodipodi:nodetypes="cccccc" />
  <path
     style="fill:#000000"
     d="m 250.5,288.88437 c -18.94457,-1.5927 -42.01509,-3.98355 -48.5,-5.02616 -9.14652,-1.47054 -44.62364,-10.61223 -48.03993,-12.37886 -1.56097,-0.80721 -10.36156,-6.23218 -19.55687,-12.0555 C 105.04299,240.83025 86.323124,223.43223 71.540504,201 c -2.718334,-4.125 -5.199339,-7.725 -5.513344,-8 -0.314005,-0.275 -2.586072,-3.65 -5.049039,-7.5 -6.614644,-10.33972 -22.697806,-33.33133 -26.931634,-38.5 -2.027355,-2.475 -5.385332,-7.65 -7.462172,-11.5 -2.076839,-3.85 -5.645426,-9.42007 -7.930193,-12.37794 -9.6671404,-12.51511 -9.7087461,-12.63059 -6.686515,-18.55852 1.082184,-2.12264 1.730626,-4.24279 1.440983,-4.711445 -0.289643,-0.468652 0.06243,-0.855988 0.782393,-0.860747 C 14.910942,98.98659 18.65,95.848427 22.5,92.017654 26.35,88.18688 32.3125,82.963027 35.75,80.409092 39.1875,77.855156 42,75.374306 42,74.896092 42,72.860101 53.954114,61.926981 58.521526,59.78566 66.631699,55.9834 82.799587,45.964651 83.415493,44.359626 c 0.31371,-0.817515 1.004346,-1.218185 1.534747,-0.89038 1.433799,0.886137 15.32339,-6.394912 29.78556,-15.613861 12.59035,-8.025747 20.93776,-12.444239 25.45429,-13.473591 6.94716,-1.583309 15.99447,-1.553816 21.99177,0.07169 9.54013,2.585753 13.81783,7.16201 13.81853,14.782948 5.6e-4,6.213738 4.5568,48.295512 7.55336,69.763569 5.79499,41.516569 11.33106,58.520479 26.3016,80.784869 14.04335,20.88547 29.43593,31.39854 55.64465,38.00511 13.88835,3.50091 15.00042,3.70535 31,5.69886 21.46773,2.67484 33.29856,1.88382 58.15635,-3.88837 6.13599,-1.42484 15.13599,-3.99219 20,-5.70523 8.05019,-2.83517 28.43924,-12.29874 35.84445,-16.63718 1.65044,-0.96693 5.25044,-3.06481 8,-4.66194 10.10469,-5.86951 21.64721,-15.93237 40.46886,-35.28107 C 469.57107,146.41677 480.59142,134.575 483.45933,131 488.98631,124.11032 496,112.99147 496,111.11919 496,110.50364 496.63925,110 497.42054,110 c 1.77532,0 2.89916,4.80255 2.01754,8.62165 -2.92723,12.68055 -12.16726,40.06895 -16.06583,47.62075 -2.34755,4.54737 -15.2762,24.75179 -18.74791,29.29856 -4.31115,5.64614 -22.59953,25.49161 -35.08631,38.0736 -21.20558,21.36727 -53.3148,37.55758 -93.03803,46.91221 -39.62822,9.33226 -55.75973,10.89994 -86,8.3576 z m 23.75,-1.54665 c -1.48921,-0.60091 -1.67574,-4.95656 -0.25,-5.83772 0.55,-0.33992 1,-1.46492 1,-2.5 0,-1.03508 0.40803,-2.13414 0.90674,-2.44236 0.49871,-0.30822 0.65727,0.45272 0.35235,1.69098 -0.30491,1.23826 -0.19185,1.91778 0.25125,1.51006 1.23829,-1.13944 3.48966,1.22426 3.48966,3.66376 0,1.19766 -0.5625,2.77465 -1.25,3.50442 -1.86289,1.97744 9.93711,0.66628 12.16725,-1.35197 2.73369,-2.47396 9.75919,-15.4561 12.48736,-23.07489 3.18898,-8.90566 7.59241,-27.0149 7.5941,-31.23095 10e-4,-3.63573 0.33191,-3.49562 -12.28956,-5.21051 -12.25029,-1.66445 -11.46202,-2.03343 -12.15889,5.69146 -1.41812,15.71981 -4.84615,25.68614 -13.1956,38.36369 -4.43704,6.73705 -13.22221,15.77972 -15.56182,16.01795 -0.71106,0.0724 0.28216,0.46317 2.20716,0.86836 3.93815,0.82894 16.18679,1.11923 14.25,0.33772 z m 15.5625,-8.02083 c 0.72187,-0.28887 1.58438,-0.25335 1.91667,0.0789 0.33229,0.33229 -0.25834,0.56864 -1.3125,0.52522 -1.16495,-0.048 -1.4019,-0.28494 -0.60417,-0.60416 z m 3.15769,-6.2612 c 0.57231,-1.06937 1.53482,-2.24977 2.13891,-2.62312 0.6041,-0.37335 0.32492,0.50159 -0.62038,1.94431 -2.00162,3.05486 -3.03812,3.51819 -1.51853,0.67881 z M 278,273.54406 c 0,-0.37263 1.21267,-2.33498 2.69483,-4.36078 3.01562,-4.12173 4.9899,-6.38021 3.93492,-4.50134 -0.42696,0.76039 0.32321,1.29538 2.1033,1.5 3.63859,0.41825 4.5209,5.0766 1.28911,6.8062 -2.64154,1.41371 -6.01165,0.40886 -6.05543,-1.80553 -0.0268,-1.3567 -0.41421,-1.22535 -2,0.67817 -1.0817,1.29844 -1.96673,2.05591 -1.96673,1.68328 z m 9.82332,-3.87693 C 288.01039,268.70256 287.50849,268 286.63234,268 c -1.85773,0 -2.97896,1.63015 -2.09972,3.05279 0.90454,1.46356 2.90118,0.62281 3.2907,-1.38566 z m 9.46323,-3.03742 c 0.6674,-1.43776 1.55095,-2.61762 1.96345,-2.62191 1.36502,-0.0142 0.77919,1.6558 -1.21345,3.45912 -1.91992,1.73751 -1.93654,1.71895 -0.75,-0.83721 z m -6.06404,-11.18641 c -2.48687,-1.74187 -2.84482,-4.22375 -0.97251,-6.74287 0.96155,-1.29373 1.94228,-1.49537 4.25,-0.87381 3.59933,0.96944 4.5097,4.40019 1.92537,7.25585 -2.09767,2.3179 -2.38072,2.33753 -5.20286,0.36083 z m 4.58933,-3.70478 C 296.05983,250.45082 295.47936,250 293.57332,250 c -2.44469,0 -3.44336,1.79662 -1.87208,3.3679 1.20411,1.20412 3.76003,0.19099 4.1106,-1.62938 z m -1.08766,-13.873 c -2.25915,-1.26428 -2.2032,-5.12204 0.10456,-7.21053 2.45533,-2.22205 4.86965,-2.08707 6.17126,0.34501 1.99518,3.72803 -2.70137,8.86588 -6.27582,6.86552 z m 3.99768,-2.98738 c 0.61702,-0.61702 0.88703,-1.73377 0.60003,-2.48168 -0.67988,-1.77175 -4.32189,0.0305 -4.32189,2.13872 0,1.73448 2.13372,1.9311 3.72186,0.34296 z m -41.52199,49.20223 c 5.84525,-3.96871 9.77172,-8.28819 15.07177,-16.58037 C 280.78006,254.18819 284,244.38424 284,231.7899 l 0,-7.7899 -2.79632,0 c -2.63857,0 -2.91612,0.43723 -4.91971,7.75 -2.84414,10.38062 -7.34801,21.92312 -11.30442,28.97091 -5.3062,9.45223 -15.04021,22.35013 -17.81636,23.60729 l -2.58767,1.1718 3.46224,0.61836 c 1.90423,0.3401 3.77718,0.6776 4.16211,0.75 0.38493,0.0724 2.63493,-1.18219 5,-2.78799 z M 264,272 c 0.5887,-1.1 1.29537,-2 1.57037,-2 0.275,0 0.0183,0.9 -0.57037,2 -0.5887,1.1 -1.29537,2 -1.57037,2 -0.275,0 -0.0183,-0.9 0.57037,-2 z m 5,-8 c 0,-0.55 0.47656,-1 1.05902,-1 0.58246,0 0.7809,0.45 0.44098,1 -0.33992,0.55 -0.81648,1 -1.05902,1 C 269.19844,265 269,264.55 269,264 z m 30.35415,19.99391 c 1.88306,-1.65334 4.22075,-4.69084 5.19486,-6.75 0.97411,-2.05915 3.46996,-6.04776 5.54632,-8.86359 4.7559,-6.44963 8.66759,-18.24468 9.90945,-29.88032 0.52831,-4.95 0.96836,-9.3375 0.97789,-9.75 C 320.9922,228.3375 319.2,228 317,228 c -3.84589,0 -4.00005,0.12522 -4.00129,3.25 -0.002,4.02417 -4.2051,21.60642 -7.66029,32.04124 -1.41891,4.28517 -4.73236,11.37267 -7.3632,15.75 -5.116,8.51222 -4.63653,10.23432 1.37893,4.95267 z m -55.43253,-0.31174 C 251.52185,279.79492 265.18408,258.87509 270.81667,242.5 273.21729,235.52092 276,225.66133 276,224.13464 c 0,-0.58165 -1.9125,-1.53691 -4.25,-2.12278 -18.04175,-4.52204 -30.96842,-9.76854 -39.94485,-16.21229 -5.51399,-3.95823 -21.60455,-17.70406 -26.89644,-22.97708 -4.77502,-4.75798 -8.73183,-13.0079 -9.26742,-19.32249 -0.23324,-2.75 -1.53466,-7.925 -2.89204,-11.5 -1.35738,-3.575 -3.27347,-9.9875 -4.25797,-14.25 -0.98451,-4.2625 -2.06652,-7.75 -2.40446,-7.75 -0.33795,0 -2.69742,2.18028 -5.24327,4.84508 -6.95273,7.27754 -12.58563,11.54621 -20.34355,15.41655 -10.77395,5.375 -46.10239,20.28504 -54.51568,23.00783 C 89.388107,178.64048 73,190.71894 73,197.57975 c 0,3.81117 13.983597,21.56052 25.079549,31.83341 l 5.923051,5.4837 3.46658,-1.44843 C 109.3758,232.65179 111.98522,232 113.26788,232 c 1.28267,0 2.93814,-0.5625 3.67882,-1.25 0.90066,-0.83598 1.1277,-0.85983 0.68548,-0.072 -0.67674,1.20565 0.29961,1.65521 6.15878,2.83579 2.13959,0.43112 3.88888,0.19484 5,-0.67534 1.51194,-1.18409 1.56245,-1.15071 0.43796,0.28941 -1.0804,1.38367 -0.93593,1.7155 0.96313,2.21211 1.37552,0.35971 3.01704,-0.0738 4.27107,-1.12786 2.00726,-1.68721 2.01081,-1.68119 0.24412,0.41388 -1.75815,2.08495 -1.72437,2.16635 1.75,4.21628 2.8892,1.70467 3.54276,1.8133 3.54276,0.58882 0,-0.8258 -0.70335,-2.5749 -1.56299,-3.88689 -1.94765,-2.97248 -4.43207,-17.88813 -4.42134,-26.5442 0.01,-7.85302 2.03505,-15.97772 4.88653,-19.60279 2.71974,-3.4576 12.48834,-11.0391 17.56621,-13.6333 3.28456,-1.67804 6.04172,-2.04778 16,-2.14566 16.45323,-0.16171 22.06532,1.91585 32.25337,11.93996 9.7104,9.55416 11.68097,13.99392 11.73613,26.44179 0.0232,5.225 -0.52657,11.37096 -1.2216,13.65768 -2.48104,8.16293 -11.90159,19.81776 -18.83378,23.30059 -1.59639,0.80206 -3.72908,2.37706 -4.73931,3.5 -1.01022,1.12295 -1.51637,1.43102 -1.12477,0.6846 0.54946,-1.04731 0.16976,-1.18329 -1.66322,-0.59562 -8.9796,2.87895 -23.12708,3.33364 -29.85598,0.95954 -5.18901,-1.83079 -6.40622,-1.20417 -5.55873,2.86163 1.55199,7.4457 1.77408,10.8946 0.65707,10.20426 C 153.50292,266.19279 153,264.98066 153,263.87906 c 0,-3.58591 -5.1061,-12.90676 -9.25384,-16.89228 -3.27866,-3.15043 -4.40447,-3.70483 -5.89906,-2.90495 -1.49805,0.80173 -1.8471,0.62568 -1.8471,-0.93164 0,-1.05609 -1.16768,-2.68527 -2.59485,-3.62038 -2.49131,-1.63237 -2.6895,-1.6113 -4.96659,0.52791 l -2.37173,2.22813 5.21658,3.11341 c 5.46376,3.26092 12.07355,11.6351 11.46363,14.52367 -0.39017,1.84786 8.39881,8.1172 14.63738,10.4411 6.62945,2.46951 38.42519,10.34234 46.91964,11.61761 4.29223,0.64439 13.74223,1.7604 21,2.48002 7.25777,0.71962 13.42094,1.34746 13.69594,1.3952 0.275,0.0477 2.48973,-0.93087 4.92162,-2.17469 z m -12.35733,-23.9753 c 0.37553,-0.98622 0.93469,-1.54122 1.24258,-1.23333 0.30789,0.30789 6.4e-4,1.11479 -0.68278,1.79313 -0.98762,0.98026 -1.10248,0.8654 -0.5598,-0.5598 z M 108,224.61869 c 0,-0.20972 1.6875,-1.63432 3.75,-3.16578 l 3.75,-2.78448 -2.93709,3.16579 C 109.9978,224.59906 108,225.81819 108,224.61869 z m -5.45,-4.47854 C 105.67844,217.3086 115.18446,210 115.73891,210 c 0.74132,0 0.86143,-0.11088 -6.84672,6.32082 -3.0843,2.57355 -5.9868,4.67918 -6.45,4.67918 -0.46321,0 -0.41469,-0.38693 0.10781,-0.85985 z m 13.53333,-2.40081 c 0.22917,-0.14336 1.54167,-1.15586 2.91667,-2.25 l 2.5,-1.98934 -1.90499,2.25 c -1.04774,1.2375 -2.36024,2.25 -2.91666,2.25 -0.55643,0 -0.82418,-0.1173 -0.59502,-0.26066 z m -20.075628,-3.48137 c 0.0042,-0.41688 1.691736,-1.75303 3.75,-2.96921 2.058268,-1.21619 5.204798,-3.17288 6.992298,-4.3482 1.7875,-1.17533 3.25,-1.93379 3.25,-1.68548 0,0.24832 -3.15,2.5461 -7,5.10617 -3.85,2.56008 -6.996534,4.3136 -6.992298,3.89672 z m -3.924369,-4.62342 C 93.467869,208.4202 101,204.06172 101,204.47491 101,205.08678 93.310783,210 92.353205,210 c -0.377596,0 -0.499038,-0.16445 -0.269872,-0.36545 z M 87.55,205.17359 C 89.859515,203.16453 99,196.87484 99,197.29469 99,197.96015 88.234021,206 87.342907,206 86.934308,206 87.0275,205.62812 87.55,205.17359 z m -3.30827,-3.7557 c 0.357763,-0.57887 3.487231,-3.00323 6.954374,-5.38747 3.467143,-2.38423 5.628896,-3.66677 4.803896,-2.85008 -2.322391,2.29901 -12.490728,9.42269 -11.75827,8.23755 z M 81,197.2837 c 0,-0.46887 1.35,-1.64995 3,-2.62463 1.65,-0.97468 3,-1.55234 3,-1.2837 0,0.26864 -1.35,1.44973 -3,2.62463 -1.65,1.1749 -3,1.75257 -3,1.2837 z m -2.564984,-4.17855 c 0.372004,-0.60192 1.605614,-1.59171 2.741355,-2.19954 1.479551,-0.79183 1.873229,-0.79488 1.388613,-0.0108 -0.372004,0.60192 -1.605614,1.59171 -2.741355,2.19954 -1.479551,0.79183 -1.873229,0.79488 -1.388613,0.0108 z M 88.43257,192.1091 C 89.146025,190.95471 93,188.62643 93,189.34981 c 0,0.23109 -1.180406,1.1936 -2.623124,2.13891 -1.442718,0.9453 -2.317655,1.22448 -1.944306,0.62038 z M 87,187.48793 c 0,-0.68045 8.126281,-5.69498 8.547067,-5.2742 0.196959,0.19696 -1.645557,1.56837 -4.09448,3.04757 C 89.003664,186.74051 87,187.74249 87,187.48793 z m 191,95.95305 c 0,-1.65007 -1.58044,-1.92885 -2.5,-0.44098 -0.81551,1.31952 0.38021,3.19207 1.5691,2.45729 0.51199,-0.31643 0.9309,-1.22377 0.9309,-2.01631 z m 50.56509,-3.46597 c 25.16757,-5.71668 45.40399,-12.365 59.72285,-19.62092 6.56118,-3.3248 25.04034,-14.80788 29.96206,-18.61863 4.27573,-3.31058 5.25951,-7.36347 1.55204,-6.39394 -1.20888,0.31613 -2.75512,0.11238 -3.43608,-0.45276 -1.42491,-1.18257 -4.20313,-0.006 -6.4482,2.73006 -1.28631,1.5678 -1.19401,1.67029 0.99563,1.10549 2.22052,-0.57277 2.28447,-0.4936 0.80019,0.99068 -1.30818,1.30818 -1.89785,1.37697 -3.11861,0.36383 -1.19523,-0.99195 -1.26488,-1.63452 -0.33804,-3.11862 1.37596,-2.20326 0.2394,-3.85653 -1.4736,-2.14353 -1.47114,1.47114 -3.13496,1.56129 -2.24521,0.12165 0.36089,-0.58393 1.76452,-1.48309 3.11919,-1.99813 1.35467,-0.51504 2.17987,-1.39463 1.83377,-1.95463 -0.3461,-0.56 -1.11771,-0.71631 -1.71469,-0.34736 -0.65322,0.40371 -0.79728,0.20462 -0.3618,-0.5 0.39798,-0.64395 1.25501,-0.87247 1.90451,-0.50781 0.86346,0.48479 0.85628,0.3124 -0.0267,-0.6413 -0.97826,-1.0566 -1.49847,-1.06294 -2.73899,-0.0334 -0.84225,0.69901 -1.31628,1.61895 -1.05339,2.04431 0.26289,0.42536 -0.30457,1.38687 -1.26101,2.13669 -1.57367,1.2337 -1.60851,1.19694 -0.36655,-0.38669 1.57575,-2.00923 0.22764,-2.36476 -1.89591,-0.5 -0.7829,0.6875 -0.67809,0.35 0.23292,-0.75 1.86929,-2.25709 8.47257,-6.41255 7.37952,-4.64395 -0.38885,0.62917 -0.23045,1.14395 0.35201,1.14395 1.4333,0 1.28409,-1.11849 -0.45599,-3.41817 -1.25326,-1.65629 -1.82913,-1.75647 -4.2182,-0.73375 -2.56301,1.09719 -2.62382,1.07274 -0.82566,-0.33183 1.06762,-0.83394 2.33168,-1.51625 2.80902,-1.51625 0.47733,0 0.60192,-0.43035 0.27684,-0.95633 -0.32507,-0.52598 -1.36413,-0.70853 -2.30902,-0.40566 -1.31807,0.42247 -1.40209,0.32498 -0.36096,-0.41883 0.84338,-0.60253 1.10175,-1.77376 0.68261,-3.09433 -0.75822,-2.38897 -1.69647,-2.59567 -4.85536,-1.06968 -2.10998,1.01928 -2.11825,1.00228 -0.24313,-0.5 1.06762,-0.85535 2.30512,-1.55517 2.75,-1.55517 0.44488,0 0.80887,-0.49878 0.80887,-1.10841 0,-0.68355 -1.05408,-0.88539 -2.75,-0.52658 -2.5958,0.5492 -2.62384,0.51868 -0.5,-0.5444 1.2375,-0.61943 2.25,-1.50747 2.25,-1.97342 0,-1.11278 -0.71744,-1.06878 -3.06574,0.18799 -1.06384,0.56935 -1.93426,0.80873 -1.93426,0.53194 0,-0.27678 1.15811,-1.11004 2.57357,-1.85168 2.4167,-1.26623 2.46596,-1.43581 0.80805,-2.78193 -1.10656,-0.89846 -1.48524,-0.96695 -1.01456,-0.18351 0.67997,1.13181 -0.43756,1.71427 -2.62221,1.3667 -0.41534,-0.0661 -5.36534,1.83214 -11,4.21826 -5.63467,2.38611 -13.84485,5.51943 -18.24485,6.96293 -9.29467,3.04927 -35.0513,8.69506 -39.76977,8.71742 -1.77663,0.008 -3.75212,0.34738 -4.38998,0.75324 -0.63786,0.40586 -1.48549,4.56147 -1.88362,9.23469 -0.81258,9.53798 -5.12093,24.77199 -9.04464,31.98113 -1.42989,2.62717 -4.82105,7.5219 -7.53592,10.87716 l -4.93613,6.10048 3.28003,-0.60109 c 1.80402,-0.33061 12.75932,-2.75427 24.34512,-5.38591 z M 321,273.5 c 0,-0.825 0.17686,-1.5 0.39301,-1.5 0.21616,0 0.65203,0.675 0.96862,1.5 0.31658,0.825 0.13972,1.5 -0.39301,1.5 C 321.43588,275 321,274.325 321,273.5 z m 20.74039,-13 c 1.13524,-1.65 3.33292,-4.125 4.88373,-5.5 1.87276,-1.66045 1.52249,-0.98881 -1.04303,2 -5.24154,6.10635 -6.29348,7.06498 -3.8407,3.5 z M 329,261.82732 c 0,-0.99232 4.01468,-5.14597 4.5024,-4.65825 0.26934,0.26934 -0.63351,1.54493 -2.00634,2.83463 C 330.12323,261.29341 329,262.11404 329,261.82732 z m 39,-2.88634 c 0,-0.58246 0.45,-0.7809 1,-0.44098 0.55,0.33992 1,0.81648 1,1.05902 0,0.24254 -0.45,0.44098 -1,0.44098 -0.55,0 -1,-0.47656 -1,-1.05902 z m 32,-15.88196 c 0,-0.51754 0.44485,-1.21592 0.98855,-1.55194 0.56686,-0.35034 0.7345,0.0511 0.39301,0.94098 C 400.71677,244.18048 400,244.49745 400,243.05902 z M 415.5,241 c 0.99549,-1.1 2.25998,-2 2.80998,-2 0.55,0 0.18551,0.9 -0.80998,2 -0.99549,1.1 -2.25998,2 -2.80998,2 -0.55,0 -0.18551,-0.9 0.80998,-2 z m -14.76667,-19.12409 c 0.67834,-0.68342 1.48524,-0.99067 1.79313,-0.68278 0.30789,0.30789 -0.24711,0.86705 -1.23333,1.24258 -1.4252,0.54268 -1.54006,0.42782 -0.5598,-0.5598 z M 398,220.5095 c 0,-0.68426 6.12291,-3.71992 6.58037,-3.26246 0.21698,0.21698 -1.17483,1.14288 -3.09293,2.05756 C 399.56935,220.21927 398,220.76148 398,220.5095 z m -259.63253,34.21735 c -3.92886,-5.57419 -10.91164,-9.67871 -17.542,-10.31129 l -5.32547,-0.5081 2.7924,2.29627 c 5.46069,4.49048 22.21364,14.57766 22.57507,13.59277 0.20211,-0.55074 -0.92289,-2.83208 -2.5,-5.06965 z m 15.0625,-3.84016 c -0.3014,-0.48768 -1.1483,-0.88669 -1.882,-0.88669 -0.7337,0 -1.61773,-0.73941 -1.96452,-1.64313 -0.34679,-0.90372 -0.85899,-1.41467 -1.13821,-1.13544 -0.27923,0.27923 0.28456,1.88809 1.25286,3.57525 1.30996,2.28248 2.08293,2.80001 3.02021,2.02214 0.69282,-0.57499 1.01307,-1.44445 0.71166,-1.93213 z m 38.3018,-1.84466 c 19.07627,-8.91644 28.44519,-33.11545 19.84102,-51.2474 -3.09075,-6.51327 -11.22188,-14.4963 -18.3371,-18.00314 -6.27973,-3.09505 -7.41539,-3.31137 -19.02845,-3.62457 -11.89342,-0.32076 -12.5582,-0.2283 -17.97624,2.5 -3.09435,1.5582 -8.41832,5.53308 -11.83105,8.83308 -5.34707,5.17046 -6.35668,6.73265 -7.30245,11.29922 -0.60362,2.91457 -1.0818,8.08957 -1.06261,11.5 0.04,7.11715 2.24176,20.53855 3.82513,23.31754 2.78852,4.89415 2.86344,4.93423 5.32893,2.85063 l 2.31105,-1.95308 -2.24147,2.54822 -2.24148,2.54822 3.74148,3.57639 c 4.35835,4.16606 7.86671,6.16251 9.28691,5.28477 0.55226,-0.34131 0.88046,-0.0571 0.72934,0.6316 -0.15113,0.6887 0.98922,1.71833 2.5341,2.28808 2.202,0.81209 3.0326,0.71965 3.84433,-0.42784 0.83434,-1.17945 0.91898,-1.10525 0.43576,0.38201 -0.56472,1.73811 0.0411,1.817 10.38744,1.35278 9.65816,-0.43334 11.80581,-0.87562 17.75536,-3.65651 z M 173.03063,250.5 c 0,-0.55 0.43621,-1.675 0.96937,-2.5 0.53316,-0.825 0.96937,-1.05 0.96937,-0.5 0,0.55 -0.43621,1.675 -0.96937,2.5 -0.53316,0.825 -0.96937,1.05 -0.96937,0.5 z m 9,-1 c 0,-0.55 0.43621,-1.675 0.96937,-2.5 0.53316,-0.825 0.96937,-1.05 0.96937,-0.5 0,0.55 -0.43621,1.675 -0.96937,2.5 -0.53316,0.825 -0.96937,1.05 -0.96937,0.5 z M 161,242.47059 c -4.60851,-1.42363 -11.3942,-7.01573 -13.91005,-11.46331 -2.48984,-4.40158 -3.015,-9.2829 -2.0684,-19.22573 1.11645,-11.72677 2.39452,-14.98874 8.04573,-20.53475 6.07258,-5.95953 13.45855,-8.61241 22.0487,-7.91939 6.95466,0.56108 9.89356,1.64511 18.88402,6.96548 4.81183,2.84754 5.96544,4.19023 9.21984,10.73095 5.60107,11.25705 4.942,19.91829 -2.28834,30.07236 -2.79049,3.91888 -11.51586,9.40592 -18.03621,11.34225 -6.38667,1.89664 -15.8148,1.91048 -21.89529,0.0321 z m 26.04563,-3.63141 c 14.58225,-6.68263 21.30489,-20.14869 16.1485,-32.34688 -3.72923,-8.82204 -6.25946,-11.9346 -12.85223,-15.81016 -7.96018,-4.6794 -16.40671,-6.34587 -23.51774,-4.63996 -4.79619,1.15059 -11.74531,5.48469 -15.03982,9.38018 -2.74126,3.24133 -4.78434,11.2802 -4.78434,18.82488 0,6.73126 0.90159,9.7972 3.70555,12.60117 2.49399,2.49399 0.35927,2.55942 -2.35539,0.0722 -2.42698,-2.22364 -2.36471,-1.98116 0.7652,2.97987 5.95024,9.43139 11.90073,12.31213 24.38464,11.80505 5.94274,-0.24139 9.4261,-0.97849 13.54563,-2.86635 z m -17.61919,-7.80507 c -1.14046,-0.46152 -4.14126,-2.90683 -6.66846,-5.43403 -5.32406,-5.32406 -7.02814,-10.77183 -5.66009,-18.09469 1.26665,-6.78004 2.54291,-8.45159 8.55413,-11.20362 6.82177,-3.12311 11.73798,-2.6198 19.42665,1.98884 6.06937,3.63801 9.92133,8.64277 9.92133,12.89052 0,3.33121 -3.79847,11.23503 -7.05629,14.68267 -4.58344,4.85048 -13.29609,7.28319 -18.51727,5.17031 z m 10.34203,-2.58184 c 4.97127,-2.07713 7.95117,-5.01259 10.83052,-10.66903 2.90725,-5.71125 2.96905,-7.33935 0.43631,-11.49322 -2.46217,-4.03812 -8.16563,-7.8275 -14.17512,-9.41794 -12.72469,-3.36765 -22.73418,9.49386 -16.84936,21.65028 1.18063,2.43884 3.79867,5.72863 5.81788,7.31066 5.87894,4.60606 8.15922,5.03452 13.93977,2.61925 z m -9.09643,-10.4956 C 166.03629,214.31019 166.23766,205 170.95228,205 c 3.37184,0 10.84892,3.79828 11.49706,5.84039 2.29498,7.23085 -5.58134,11.99002 -11.7773,7.11628 z m 9.5453,-2.53433 c 1.61171,-3.53732 0.11153,-5.59441 -5.20172,-7.13274 -5.27235,-1.52649 -6.39244,-0.92371 -5.60449,3.01606 1.332,6.66 8.41753,9.35927 10.80621,4.11668 z m -52.71788,24.39942 2.76919,-2.17824 -2.28117,-0.84385 c -1.59855,-0.59135 -2.78446,-0.38839 -3.96306,0.67823 -0.92505,0.83716 -2.32147,1.50615 -3.10316,1.48666 -0.78169,-0.0195 -0.34797,-0.63035 0.96384,-1.35748 2.87048,-1.5911 2.0903,-2.19153 -4.03968,-3.10894 -3.02012,-0.452 -5.93942,-0.232 -8.31357,0.6265 l -3.65899,1.32311 3.31357,2.74923 c 2.80586,2.32797 4.25055,2.75334 9.42871,2.77612 4.79476,0.0211 6.71307,-0.44343 8.88432,-2.15134 z M 414.919,230.4024 c -1.23492,-1.48798 -3.02676,-1.9115 -2.76024,-0.6524 0.30901,1.45982 -1.38104,4.23066 -2.25209,3.69232 -0.48607,-0.30041 -0.61687,0.14932 -0.29066,0.99939 0.51196,1.33416 0.99483,1.25952 3.52998,-0.54567 2.34219,-1.66778 2.70121,-2.37522 1.77301,-3.49364 z m 4.081,4.15662 c 0,-0.24254 -0.45,-0.7191 -1,-1.05902 -0.55,-0.33992 -1,-0.14148 -1,0.44098 0,0.58246 0.45,1.05902 1,1.05902 0.55,0 1,-0.19844 1,-0.44098 z M 433.38912,227.25 c 3.46806,-3.7125 11.11949,-11.925 17.00317,-18.25 10.45138,-11.2353 23.73468,-29.79313 30.42062,-42.5 5.49905,-10.45115 10.46875,-25.36342 9.89019,-29.67688 -0.28982,-2.16078 -0.11934,-3.58037 0.39203,-3.26433 0.49768,0.30758 0.94406,1.32019 0.99196,2.25023 0.0979,1.90095 4.57808,-13.39398 5.50952,-18.80902 0.51755,-3.0088 -0.23111,-2.22918 -5.33449,5.5551 -9.3701,14.29241 -47.34691,53.74464 -62.76212,65.20047 -3.85,2.86113 -10.51816,7.0969 -14.81813,9.41282 -11.6284,6.26293 -10.9556,5.37843 -9.20275,12.09841 2.00182,7.6745 5.82956,15.04424 9.18434,17.68312 l 2.72975,2.14722 1.38166,-2.63698 c 0.7599,-1.45034 1.61733,-2.40129 1.90539,-2.11324 0.28805,0.28806 -0.19716,1.55297 -1.07826,2.81092 -2.15169,3.07197 -2.05088,3.53476 1.148,5.27019 4.56142,2.47461 6.06625,1.8581 12.63912,-5.17803 z m -7.84411,-5.5 c 0.37388,-1.2375 1.09143,-2.68973 1.59456,-3.22717 0.50313,-0.53745 0.40853,0.47505 -0.21022,2.25 -1.26636,3.63269 -2.4361,4.45838 -1.38434,0.97717 z m 7.53924,-2.75 c 0.007,-1.84792 2.72164,-7.94273 2.83453,-6.36481 0.0447,0.62435 -0.57617,2.64935 -1.37964,4.5 -0.80347,1.85065 -1.45817,2.68981 -1.45489,1.86481 z M 442,209.69113 c 0,-0.71988 0.69982,-2.18238 1.55517,-3.25 1.49068,-1.86065 1.5095,-1.84699 0.45375,0.32954 -0.60577,1.24886 -0.82904,2.71136 -0.49615,3.25 C 443.84567,210.5593 443.64148,211 443.05902,211 442.47656,211 442,210.41101 442,209.69113 z m 10.01531,-9.27446 c 0.008,-1.05417 0.47209,-2.59167 1.03038,-3.41667 0.74131,-1.09546 0.83408,-0.69092 0.34401,1.5 -0.82247,3.67693 -1.39483,4.47511 -1.37439,1.91667 z m 10.21832,-12.03009 c 0.65492,-1.43738 1.36272,-2.09754 1.57289,-1.46701 0.53142,1.59426 -0.53709,4.08043 -1.7537,4.08043 -0.6338,0 -0.56646,-0.97333 0.18081,-2.61342 z M 468.15789,179 c 0,-1.375 0.22698,-1.9375 0.50439,-1.25 0.27741,0.6875 0.27741,1.8125 0,2.5 -0.27741,0.6875 -0.50439,0.125 -0.50439,-1.25 z M 473,169 c 0,-1.86667 0.26667,-2.13333 1.2,-1.2 0.93333,0.93333 0.93333,1.46667 0,2.4 -0.93333,0.93333 -1.2,0.66667 -1.2,-1.2 z m 5.232,-8 c 0,-1.925 0.2058,-2.7125 0.45733,-1.75 0.25152,0.9625 0.25152,2.5375 0,3.5 -0.25153,0.9625 -0.45733,0.175 -0.45733,-1.75 z m 4.92589,-11 c 0,-1.375 0.22698,-1.9375 0.50439,-1.25 0.27741,0.6875 0.27741,1.8125 0,2.5 -0.27741,0.6875 -0.50439,0.125 -0.50439,-1.25 z M 487.5,144 c -0.33992,-0.55 -0.14148,-1 0.44098,-1 0.58246,0 1.05902,0.45 1.05902,1 0,0.55 -0.19844,1 -0.44098,1 -0.24254,0 -0.7191,-0.45 -1.05902,-1 z M 76.719931,187.16117 c 2.063309,-1.73583 2.216921,-2.0581 0.59581,-1.25 -5.74044,2.86155 -2.664232,0.49369 6.44942,-4.96433 6.222848,-3.72677 14.839914,-7.7277 22.421119,-10.41021 14.43124,-5.10631 34.80842,-13.58934 50.35802,-20.96406 9.64687,-4.57523 12.21643,-6.36628 20.30804,-14.15528 l 9.26376,-8.91729 -0.82882,-3.88453 -0.82882,-3.88453 -2.84626,4.10716 c -1.56545,2.25894 -5.0156,6.13632 -7.66701,8.6164 -10.20617,9.54667 -37.87802,25.44397 -49.94519,28.69318 -14.12128,3.8023 -19.51136,5.64645 -30.203485,10.33372 -11.788515,5.16791 -19.818671,10.35005 -23.485375,15.15591 -2.202031,2.88616 -2.264552,3.26642 -0.78097,4.75 C 71.013753,191.8709 71.007253,192 69.44898,192 c -1.411237,0 -1.480789,0.25675 -0.416831,1.53874 1.120957,1.35067 1.498919,1.19789 3.092376,-1.25 0.998434,-1.53381 3.066365,-3.84121 4.595402,-5.12757 z m -6.110732,-5.09956 C 72.74914,179.62049 73.9375,177.95955 73.25,178.37063 72.5625,178.7817 72,178.64148 72,178.05902 72,177.47656 72.188196,177 72.418213,177 c 0.230016,0 1.203837,-0.30147 2.164044,-0.66994 1.318072,-0.50579 1.543847,-0.32203 0.921463,0.75 -0.453404,0.78097 -0.489724,1.11994 -0.08071,0.75327 0.409012,-0.36666 0.765109,-1.04166 0.791326,-1.5 0.06165,-1.07766 9.761497,-6.42396 11.99276,-6.61008 0.938902,-0.0783 1.499699,-0.34979 1.246215,-0.60327 -0.66336,-0.66336 17.169639,-6.74396 30.046689,-10.24516 10.03218,-2.72769 26.02813,-10.09572 34.48681,-15.88526 1.38226,-0.94608 5.21319,-3.45261 8.51319,-5.57007 3.3,-2.11746 7.98311,-5.66557 10.4069,-7.8847 5.42956,-4.97109 11.10483,-13.60769 10.61037,-16.14681 -0.20221,-1.03839 -0.91845,-6.61298 -1.59164,-12.38798 -0.67319,-5.775 -1.52634,-11.087679 -1.89587,-11.805953 -0.46707,-0.907837 -1.98903,0.159126 -4.99256,3.5 C 161.46617,107.78934 148.50546,119.92731 138,127.38014 c -32.02391,22.71858 -46.821169,28.29444 -83.270798,31.3779 l -8.770798,0.74196 6.063565,8.95943 c 5.453449,8.05794 8.500736,12.12938 6.579339,8.79057 C 58.20567,176.5625 58.358524,176 58.940983,176 59.523442,176 60,176.38931 60,176.86514 c 0,0.47583 0.945984,2.06777 2.102186,3.53764 1.682659,2.13915 2.385712,2.43719 3.522892,1.49341 1.154193,-0.95789 1.296746,-0.85604 0.759908,0.54293 -0.412081,1.07387 -1.362187,1.5386 -2.524272,1.23471 -1.214923,-0.31771 -1.634788,-0.0847 -1.206394,0.66943 1.499675,2.64007 2.70226,3.69481 3.362497,2.94912 0.38587,-0.43581 2.452442,-2.78966 4.592382,-5.23077 z M 61,174 c -2.162722,-2.16272 -2.366999,-2.91931 -1.234687,-4.57294 C 61.781536,166.48255 69,166.84122 69,169.8859 69,172.21439 66.178671,176 64.443296,176 63.649483,176 62.1,175.1 61,174 z m 6,-3.12244 c 0,-0.48266 -1.0125,-0.87067 -2.25,-0.86225 -1.819438,0.0124 -1.962959,0.20082 -0.75,0.98469 1.089966,0.70439 1.142172,0.97356 0.190983,0.98469 -0.719959,0.008 -1.017397,0.48716 -0.660972,1.06387 C 64.237447,174.19321 67,172.46482 67,170.87756 z m 13.217446,-5.11555 c -1.683496,-2.02849 0.751996,-6.20167 3.805725,-6.52106 4.007254,-0.41912 5.573596,1.15702 4.422523,4.45017 -0.745854,2.13384 -1.718902,2.88123 -4.048924,3.10995 -1.689073,0.16579 -3.566829,-0.30105 -4.179324,-1.03906 z m 6.107211,-1.42 C 87.099802,163.56687 85.174951,161 83.818538,161 c -0.515114,0 -0.658457,0.45 -0.318538,1 0.339919,0.55 0.141476,1 -0.440983,1 C 82.476558,163 82,163.45 82,164 c 0,1.1122 3.293968,1.3727 4.324657,0.34201 z m -26.241324,1.24615 c 0.803915,-0.79461 11.30153,-4.53663 11.676064,-4.1621 0.208233,0.20824 -2.144326,1.32256 -5.227909,2.47627 -5.464845,2.04467 -7.295381,2.52325 -6.448155,1.68583 z M 75,165.60699 c 0,-0.21616 0.698372,-0.661 1.551938,-0.98855 0.889925,-0.34149 1.291322,-0.17385 0.940983,0.39301 C 76.905663,165.96166 75,166.4169 75,165.60699 z m 7.733333,-8.73108 c 0.678334,-0.68342 1.485241,-0.99067 1.793128,-0.68278 0.307888,0.30789 -0.247112,0.86705 -1.233333,1.24258 -1.425198,0.54268 -1.540062,0.42782 -0.559795,-0.5598 z m 21.838097,-0.44734 C 101.71949,153.57663 103.39199,150 107.57756,150 c 3.58125,0 4.96598,2.5215 3.01768,5.49499 -1.88804,2.88151 -3.78231,3.17508 -6.02381,0.93358 z M 110,152.87756 C 110,152.3949 109.1,152 108,152 c -1.92166,0 -2.71105,1.95562 -1.34201,3.32466 0.75703,0.75703 3.34201,-1.13576 3.34201,-2.4471 z m 19.84559,-7.80151 c -1.63644,-1.32511 -1.9887,-2.36971 -1.48111,-4.3921 0.92707,-3.69377 5.09167,-4.67224 7.90633,-1.85758 4.18341,4.18341 -1.79528,9.99878 -6.42522,6.24968 z m 5.09011,-2.01515 c 1.16436,-0.73678 1.19779,-1.19513 0.17688,-2.42524 C 133.51895,138.71544 131,139.61663 131,142.10699 c 0,2.03116 1.61477,2.42254 3.9357,0.95391 z m 17.16201,-11.70502 c -2.92224,-2.04681 -2.37236,-5.36641 1.21292,-7.32246 2.65804,-1.45016 2.91515,-1.40622 4.73549,0.80944 1.46446,1.78249 1.68366,2.79353 0.91645,4.22708 -1.68571,3.14978 -4.36012,4.04034 -6.86486,2.28594 z M 156.5,127.4863 c 0,-2.79806 -2.92896,-2.48798 -3.33121,0.35266 -0.25684,1.81382 0.0799,2.25979 1.5,1.98631 1.04197,-0.20067 1.83121,-1.20874 1.83121,-2.33897 z m 14.03647,-14.44601 c -3.56044,-3.93424 0.67761,-9.95633 6.05667,-8.60627 2.87971,0.72276 3.29985,4.84605 0.85016,8.34347 -1.92253,2.7448 -4.56951,2.84552 -6.90683,0.2628 z m 5.99548,-3.14095 c 0.89812,-2.82975 -0.94082,-4.63482 -2.98957,-2.93451 -0.84831,0.70403 -1.54238,2.12496 -1.54238,3.15761 0,2.62574 3.68534,2.44431 4.53195,-0.2231 z m 30.34139,68.91414 c -2.31065,-3.40258 -5.247,-8.01508 -6.52522,-10.25 -3.03472,-5.3061 -3.00208,-2.50989 0.0472,4.03869 2.03595,4.37244 8.62266,12.39783 10.17532,12.39783 0.27716,0 -1.3866,-2.78393 -3.69725,-6.18652 z M 57.5,155.86527 c 3.85,-0.60231 8.125,-1.03051 9.5,-0.95156 4.431386,0.25445 16.282764,-1.98258 24.5,-4.62455 12.81094,-4.11892 25.80708,-11.06319 42.50768,-22.71327 15.11668,-10.54516 20.02915,-15.09651 37.85586,-35.072945 7.37074,-8.259583 7.59854,-8.852594 6.49458,-16.906815 l -0.64188,-4.683013 -3.10812,5.500105 c -3.50224,6.19753 -13.55491,18.572644 -21.21207,26.112618 -6.12991,6.03611 -20.51069,16.34329 -31.15331,22.32862 -4.25851,2.39495 -11.34274,6.47454 -15.74274,9.06576 -9.575299,5.63901 -18.338604,9.22536 -29.63222,12.12687 -6.943057,1.78378 -10.979129,2.12777 -23.704935,2.02034 l -15.337154,-0.12948 2.837154,3.99048 c 3.839176,5.39984 5.30092,5.74162 16.837155,3.93684 z M 42.5,152 c -1.026428,-1.13419 -1.309975,-2 -0.654988,-2 C 42.480256,150 43,150.4125 43,150.91667 c 0,0.50416 1.2375,1.36864 2.75,1.92105 2.293767,0.83775 2.402431,1.01748 0.654988,1.08333 C 45.252731,153.96447 43.495486,153.1 42.5,152 z m 9.583333,-0.35932 C 52.3125,151.44305 53.85,150.97938 55.5,150.6103 c 2.190916,-0.49007 2.595458,-0.3973 1.5,0.34401 -1.35037,0.91381 -5.920153,1.55175 -4.916667,0.68637 z M 47,145 c 0,-0.55 1.0125,-0.99311 2.25,-0.98469 1.808206,0.0123 1.955471,0.20154 0.75,0.96374 -2.667793,1.68679 21.031306,-0.0225 29.407732,-2.12106 9.788737,-2.45236 17.221523,-5.79079 33.445518,-15.02202 24.30522,-13.82933 37.28296,-23.44622 45.96826,-34.063827 11.59022,-14.168829 13.20344,-16.388297 15.66329,-21.549478 2.93454,-6.157194 2.97222,-7.682768 0.6964,-28.195266 l -1.71666,-15.4726 -7.49517,7.568487 c -4.12234,4.162668 -10.41436,9.964403 -13.98227,12.892746 -3.5679,2.928343 -9.04438,7.725731 -12.16994,10.660862 -3.12556,2.935131 -7.70328,6.202668 -10.17272,7.261192 -11.72521,5.026013 -16.06687,7.75088 -21.22221,13.319257 C 105.44,83.478504 102.98929,86.65085 102.9762,87.307 102.95,88.620166 92.801856,95.699748 86.5,98.801178 79.596452,102.19873 64.301635,105.62322 52.327852,106.45228 44.862985,106.96914 35.704823,109.62781 28,113.51479 c -2.475,1.2486 -5.951343,2.65607 -7.725206,3.1277 l -3.225205,0.85751 3.830058,5 c 2.106533,2.75 5.576327,8.33355 7.710656,12.40788 2.426371,4.63184 5.010277,8.09681 6.895147,9.24627 C 38.668746,146.09543 47,146.70744 47,145 z m 10.76845,-3.16845 c 0.581102,-0.5811 1.646819,-0.85979 2.36826,-0.61931 0.748946,0.24965 0.295653,0.70294 -1.056551,1.05655 -1.663345,0.43497 -2.053777,0.30483 -1.311709,-0.43724 z m 5.04405,-1.51466 c 0.721875,-0.28887 1.584375,-0.25335 1.916667,0.0789 0.332291,0.33229 -0.258334,0.56864 -1.3125,0.52522 -1.164943,-0.048 -1.4019,-0.28494 -0.604167,-0.60416 z M 46,138.04569 c 0.825,-0.55829 2.3625,-1.02196 3.416667,-1.03038 2.558447,-0.0204 1.760261,0.55192 -1.916667,1.37439 -2.190916,0.49007 -2.595458,0.3973 -1.5,-0.34401 z m 10.75,-2.70797 c 0.6875,-0.27741 1.8125,-0.27741 2.5,0 0.6875,0.27741 0.125,0.50439 -1.25,0.50439 -1.375,0 -1.9375,-0.22698 -1.25,-0.50439 z m -12.9375,-2.02083 c 0.721875,-0.28887 1.584375,-0.25335 1.916667,0.0789 0.332291,0.33229 -0.258334,0.56864 -1.3125,0.52522 -1.164943,-0.048 -1.4019,-0.28494 -0.604167,-0.60416 z m 7,-2 c 0.721875,-0.28887 1.584375,-0.25335 1.916667,0.0789 0.332291,0.33229 -0.258334,0.56864 -1.3125,0.52522 -1.164943,-0.048 -1.4019,-0.28494 -0.604167,-0.60416 z m -12,-2 c 0.721875,-0.28887 1.584375,-0.25335 1.916667,0.0789 0.332291,0.33229 -0.258334,0.56864 -1.3125,0.52522 -1.164943,-0.048 -1.4019,-0.28494 -0.604167,-0.60416 z M 33.5,124 c 1.1,-0.47269 2.675,-0.85943 3.5,-0.85943 0.945479,0 0.760639,0.31771 -0.5,0.85943 -1.1,0.47269 -2.675,0.85943 -3.5,0.85943 -0.945479,0 -0.760639,-0.31771 0.5,-0.85943 z M 29,118.04569 c 0.825,-0.55829 2.3625,-1.02196 3.416667,-1.03038 2.558447,-0.0204 1.760261,0.55192 -1.916667,1.37439 -2.190916,0.49007 -2.595458,0.3973 -1.5,-0.34401 z m -6.538245,-5.10757 c -0.247647,-0.4007 0.24552,-0.99555 1.095926,-1.32188 0.885397,-0.33976 1.28509,-0.17086 0.93524,0.39521 -0.750069,1.21364 0.526852,1.26214 2.376724,0.0903 0.995834,-0.63085 0.313522,-1.21711 -2.5,-2.14805 C 22.24134,109.24948 21.0625,108.48431 21.75,108.25333 22.4375,108.02234 23,107.1693 23,106.35767 c 0,-0.86081 -0.481053,-1.17838 -1.154508,-0.76216 -0.791265,0.48903 -0.877889,0.27162 -0.275321,-0.69098 0.483553,-0.77248 1.016883,-2.52951 1.185177,-3.90451 0.495386,-4.047404 1.077479,-5.006799 2.963267,-4.883999 1.669503,0.108716 1.671474,0.144724 0.03139,0.573325 -1.1738,0.306746 -1.75,1.440383 -1.75,3.443014 0,2.09827 0.37153,2.77594 1.25,2.27997 1,-0.56457 1,-0.43638 0,0.64099 -0.6875,0.74068 -1.25,2.33356 -1.25,3.53971 0,2.4352 2.938518,4.1245 4.049,2.32771 0.514492,-0.83247 0.8271,-0.79242 1.139919,0.14604 0.252287,0.75686 1.131836,1.02413 2.121051,0.64453 2.259015,-0.86686 2.201102,-3.10325 -0.05997,-2.31583 -1.666667,0.58043 -1.666667,0.54456 0,-0.75325 C 33.185983,105.13469 33.689745,99 31.877555,99 31.135616,99 31.207569,98.45482 32.089808,97.391787 33.224952,96.024023 33.131125,95.560022 31.462253,94.28836 29.585867,92.858575 29.609398,92.825556 32,93.5338 c 1.375,0.40736 3.0625,0.952048 3.75,1.210416 1.546676,0.581255 1.669639,-2.366831 0.138197,-3.313314 -0.611492,-0.377923 -1.504602,-0.06698 -1.984688,0.690983 -0.644071,1.016864 -0.876897,0.772844 -0.888196,-0.930902 -0.01031,-1.554472 -0.423791,-2.0784 -1.265313,-1.603296 -1,0.564578 -1,0.436381 0,-0.640983 0.6875,-0.740687 1.25,-2.019979 1.25,-2.842871 0,-0.970252 -1.216601,-0.31699 -3.461088,1.858452 -1.903599,1.845041 -3.22015,3.744465 -2.92567,4.220944 0.294479,0.476478 0.164469,0.748305 -0.288912,0.60406 -0.453382,-0.144246 -3.18683,2.00076 -6.07433,4.76668 -3.521153,3.372891 -5.255043,5.838551 -5.265313,7.487491 -0.01086,1.74363 -0.263187,2.06743 -0.867743,1.11352 -0.628239,-0.99128 -1.026762,-0.65043 -1.515282,1.29599 -0.364568,1.45255 -0.397526,3.07031 -0.07324,3.59502 C 13.549079,112.69745 15,112.08341 15,110 c 0,-1.23226 0.671771,-2.00588 1.75,-2.01531 1.115175,-0.01 1.336698,-0.28183 0.610665,-0.75 -0.833895,-0.53773 -0.790973,-1.05786 0.160105,-1.94014 1.02238,-0.94843 1.425908,-0.87589 1.89258,0.34024 C 20.156726,107.572 19.319765,109 17.440983,109 c -2.43288,0 -1.698676,3.82089 0.809017,4.21022 3.654213,0.56734 4.689233,0.50047 4.211755,-0.2721 z M 18,101.5 c 0,-0.8667 0.595452,-1.20873 1.5,-0.86163 0.825,0.31659 1.5,0.70432 1.5,0.86163 0,0.15731 -0.675,0.54504 -1.5,0.86163 -0.904548,0.3471 -1.5,0.005 -1.5,-0.86163 z M 28.5,100 c 0.339919,-0.55 0.816476,-1 1.059017,-1 C 29.801558,99 30,99.45 30,100 c 0,0.55 -0.476558,1 -1.059017,1 -0.582459,0 -0.780902,-0.45 -0.440983,-1 z M 28,92.5 c 0,-1.375 0.387598,-2.5 0.861328,-2.5 0.473731,0 0.646271,1.125 0.383423,2.5 C 28.981903,93.875 28.594305,95 28.383423,95 28.17254,95 28,93.875 28,92.5 z m 9,9.5 c 0,-3.899195 -0.434801,-5.952871 -1.333333,-6.29767 -1.61522,-0.619818 -1.847708,2.47434 -0.265413,3.532357 0.759073,0.507562 0.712314,0.739421 -0.151254,0.75 -0.81123,0.0099 -1.25,1.583873 -1.25,4.483933 0,3.56125 0.304576,4.35173 1.5,3.89301 C 36.594182,107.94175 37,106.22064 37,102 z m 3.802872,2.29895 c 0.169711,-1.14555 -0.379867,-2.30639 -1.25,-2.64029 C 38.358085,101.20018 38,101.76653 38,104.11472 c 0,3.4424 2.297807,3.59343 2.802872,0.18423 z m 30.958059,-3.1649 c 5.093513,-1.12757 11.256013,-2.932651 13.694445,-4.011286 l 4.433513,-1.961153 0,-7.691917 c 0,-4.230554 0.25,-7.941916 0.555555,-8.247472 0.305556,-0.305555 0.562447,2.106945 0.570869,5.361111 0.0201,7.765939 0.960014,9.318078 4.312479,7.121459 C 99.534242,88.94862 107.4931,79.034157 107.60116,76.415688 107.73101,73.269154 109,71.927658 109,74.936926 c 0,2.176972 0.15409,2.134589 3.75,-1.03147 2.0625,-1.81595 3.6191,-3.717773 3.45911,-4.226273 -0.16,-0.5085 0.39749,-0.660388 1.23884,-0.337529 0.84136,0.322859 3.73761,-0.521935 6.43612,-1.877319 C 126.58258,66.108951 129.29766,65 129.91757,65 c 0.61991,0 3.14206,-1.857312 5.60477,-4.12736 3.65903,-3.372771 4.49209,-4.789673 4.55661,-7.75 0.0434,-1.992452 0.30407,-2.94764 0.57923,-2.12264 0.27515,0.825 0.69901,2.123754 0.9419,2.886119 0.35683,1.11998 0.80593,1.056424 2.33903,-0.331013 2.37611,-2.15035 3.49362,-14.941567 1.2291,-14.068542 C 144.43573,39.768954 143.45039,40 142.97858,40 c -0.47182,0 -1.04974,1.4625 -1.28428,3.25 -0.23453,1.7875 -0.23085,0.55 0.008,-2.75 0.23904,-3.3 0.77791,-6.351638 1.19749,-6.781418 0.41958,-0.429781 0.54882,0.677007 0.2872,2.459527 l -0.47567,3.240945 2.78256,-1.823203 2.78256,-1.823202 -0.49964,2.613675 c -0.29234,1.529257 -0.0385,2.646431 0.61169,2.692623 0.67033,0.04762 0.6153,0.279101 -0.13867,0.583334 C 146.99205,42.169876 146.42576,50 147.64701,50 c 0.35585,0 2.51876,-1.533758 4.80645,-3.40835 3.54817,-2.907457 4.33363,-4.266845 5.34475,-9.25 0.65192,-3.212908 1.43505,-6.96665 1.7403,-8.34165 0.47031,-2.1185 -0.0546,-2.84335 -3.43987,-4.75 -2.19718,-1.2375 -4.19444,-2.25 -4.43835,-2.25 -1.15126,0 -1.62171,5.341561 -0.5809,6.595653 1.72065,2.073267 0.11918,1.7057 -2.89356,-0.664121 l -2.62963,-2.068468 -1.0281,2.921569 c -0.98424,2.796921 -1.10576,2.846748 -2.84837,1.167868 -1.76036,-1.695982 -1.76036,-1.748745 0,-1.603101 2.67093,0.22098 2.32911,-3.626159 -0.42973,-4.836528 -1.2375,-0.542921 -2.25,-1.330421 -2.25,-1.75 0,-1.265926 1.67513,-0.859239 2.99086,0.726118 1.81014,2.181088 2.96367,0.921407 2.81352,-3.072449 -0.0971,-2.58286 -0.50482,-3.361735 -1.54986,-2.960716 C 142.47457,16.755121 141.19823,17 140.41821,17 c -0.78001,0 -1.45374,0.7875 -1.49716,1.75 -0.0472,1.045438 -0.28201,1.246741 -0.58333,0.5 -0.87116,-2.158953 -3.34439,-1.362664 -4.40123,1.417031 -1.02834,2.704741 -0.0403,4.280857 2.70652,4.317656 0.62866,0.0084 1.40407,0.695619 1.72314,1.527103 0.51667,1.346423 0.26349,1.348048 -2.31463,0.01485 -2.23777,-1.157197 -3.02808,-1.216612 -3.48221,-0.26179 -0.32311,0.679331 -0.38667,-0.452353 -0.14126,-2.514853 0.51397,-4.319436 -0.54709,-4.721867 -3.8201,-1.448864 -1.26562,1.265625 -2.70767,2.176282 -3.20454,2.023683 -1.98271,-0.608929 -5.71042,3.572006 -6.49125,7.280482 L 118.09211,35.5 l 0.2495,-3.718754 0.24949,-3.718753 -3.04555,2.046542 c -1.67505,1.125599 -4.32432,2.799038 -5.88726,3.718754 -10.537863,6.201044 -11.658945,7.143498 -11.776605,9.900187 L 97.76337,46.5 97.131685,43.777583 c -0.79482,-3.425491 -2.596313,-2.413356 -3.441682,1.933644 -0.647246,3.328223 0.903955,5.563798 2.2968,3.310126 0.459368,-0.743274 0.75534,-0.0976 0.74346,1.621884 -0.01085,1.57122 -0.217105,2.294263 -0.458333,1.606763 -0.568523,-1.620289 -3.944218,-1.620289 -4.648912,0 -0.508579,1.169366 -0.104949,-1.765551 0.967428,-7.034455 L 93.055399,42.93109 88.7777,45.088464 C 86.424965,46.275021 84.275,47.452527 84,47.705146 c -0.275,0.252619 -0.768881,3.234805 -1.097513,6.62708 L 82.304974,60.5 82.152487,54.654542 82,48.809083 76.25,52.001304 c -3.1625,1.755722 -6.2,3.754425 -6.75,4.441563 -0.55,0.687138 -2.6875,1.858994 -4.75,2.604125 -3.080929,1.113066 -3.75,1.839607 -3.75,4.072109 0,1.494528 -0.273145,3.429128 -0.606989,4.299112 C 59.9947,68.456196 60.33849,69 61.393011,69 62.276855,69 63,69.476558 63,70.059017 c 0,0.582459 -0.436807,0.789055 -0.970683,0.459102 -1.224949,-0.75706 -2.404107,3.747238 -1.762306,6.731881 0.266105,1.2375 0.09766,3.375 -0.37433,4.75 -0.532793,1.552142 -0.706477,-1.951496 -0.458096,-9.240936 L 59.834646,61.018127 57.667323,62.13125 C 54.32881,63.845889 50,68.205854 50,69.853758 50,70.667524 49.699018,71.032352 49.331152,70.664485 48.572097,69.90543 45,72.83288 45,74.214005 c 0,0.497216 0.5625,0.631631 1.25,0.2987 0.6875,-0.332931 0.2375,0.145399 -1,1.062955 -2.151716,1.59541 -3.321758,6.204757 -1.25,4.92434 1.32605,-0.819544 1.264907,0.102955 -0.157821,2.381103 -1.456503,2.332233 -0.600658,4.687288 1.945354,5.353085 1.810405,0.473431 1.961235,-0.04971 2.01609,-6.992693 0.06513,-8.2433 1.1091,-10.401604 4.121336,-8.520432 C 53.624725,73.782585 53.8,73.563687 53.8,70.379356 c 0,-5.654655 0.975325,-5.010668 1.353389,0.893616 0.310229,4.844906 0.154041,5.362512 -1.488022,4.931292 -1.009049,-0.264985 -2.069694,-1.094347 -2.356989,-1.843027 -1.209929,-3.153025 -2.391032,-0.982132 -2.110638,3.879397 0.228645,3.964289 0.711944,5.318478 1.984407,5.560257 1.243065,0.236193 1.788598,-0.544438 2.089963,-2.990634 0.224299,-1.820641 0.520742,0.177243 0.658762,4.439743 0.455505,14.067415 0.335408,17.34961 -0.600582,16.41362 -0.368341,-0.36834 -0.597498,-4.268338 -0.509238,-8.666664 0.160891,-8.017828 -0.44392,-9.361224 -2.888443,-6.415755 -1.042319,1.255918 -1.061792,1.982298 -0.09466,3.530928 1.094939,1.753276 0.718166,1.696631 -3.739395,-0.562186 -2.726361,-1.381551 -5.291492,-3.053099 -5.700291,-3.714551 -0.520079,-0.841506 -0.970651,-0.622003 -1.500484,0.730984 -0.552787,1.4116 -0.776188,0.879388 -0.827498,-1.971364 C 38.001161,80.754542 37.966957,80.719929 36,82.5 c -2.199479,1.990501 -2.788526,5.063218 -0.75,3.912313 1,-0.564578 1,-0.436381 0,0.640983 -1.879346,2.024739 -1.627415,2.403704 3.201072,4.815166 3.18916,1.592744 4.281877,2.663886 3.854282,3.77818 -0.328233,0.855364 0.03128,1.952901 0.798929,2.43897 0.997642,0.631703 1.039202,0.88813 0.145717,0.899075 C 42.5625,98.993109 42,99.675 42,100.5 c 0,0.825 0.5625,1.50689 1.25,1.51531 0.845939,0.0104 0.765127,0.35479 -0.25,1.06551 -1.219641,0.85391 -1.126187,0.9528 0.5,0.52912 1.1,-0.28659 3.575,-0.18337 5.5,0.22938 4.023753,0.86276 9.680206,0.19046 22.760931,-2.70527 z M 47,100.01831 c 0,-1.684621 -0.740012,-3.394735 -1.75,-4.044125 -1.423768,-0.915439 -1.446484,-1.032479 -0.121855,-0.627835 0.89548,0.273548 2.078033,0.04747 2.627897,-0.502392 0.666336,-0.666336 0.872882,0.08989 0.61933,2.267567 -0.209233,1.797026 0.108444,3.569455 0.705948,3.938735 0.701988,0.43385 0.52597,0.88646 -0.497474,1.27919 C 47.361647,102.79845 47,102.27074 47,100.01831 z M 60.070285,99.75 C 60.02742,97.462942 59.512353,95.994026 58.75,95.984687 c -0.864752,-0.01059 -0.910965,-0.241742 -0.149944,-0.75 C 59.205087,94.830609 59.926499,93.825 60.203193,93 c 0.276695,-0.825 0.692278,0.399045 0.923519,2.720099 0.23124,2.321055 0.103957,5.021051 -0.282852,6.000001 -0.472044,1.19466 -0.7264,0.54688 -0.773575,-1.9701 z m 4.132141,-0.624894 c -1.032085,-0.637863 -0.976021,-1.068116 0.274406,-2.105878 1.889642,-1.568264 2.494692,-1.129682 1.647402,1.19415 -0.399603,1.095976 -1.09211,1.42451 -1.921808,0.911728 z m 5.947406,-1.434123 C 70.045371,95.732563 69.621488,95.109369 68.75,95.632941 c -0.854741,0.513512 -0.817531,0.217784 0.117676,-0.935236 0.752221,-0.927417 1.15007,-2.824538 0.884109,-4.215826 -0.265961,-1.391287 -0.09391,-2.770431 0.382324,-3.064763 C 70.610349,87.122783 71,88.285081 71,90 c 0,2.228281 0.356696,2.903738 1.25,2.367059 0.968353,-0.581768 0.98829,-0.426077 0.08849,0.690983 C 71.699652,93.851119 70.979577,95.85 70.738317,97.5 l -0.438653,3 -0.149832,-2.809017 z m 5.069377,-2.155269 c 1.527571,-1.168839 1.178722,-4.899683 -0.368716,-3.943314 -0.548978,0.339287 -0.402421,-0.35761 0.325682,-1.548661 1.155139,-1.889606 1.07648,-2.348921 -0.617305,-3.604643 C 73.491249,85.647593 73.16825,85 73.841095,85 c 0.672844,0 1.630329,-1.0125 2.127743,-2.25 0.825054,-2.052624 0.90995,-1.969261 0.967776,0.95031 0.03661,1.848639 0.743151,3.580725 1.672844,4.101008 1.479278,0.827845 1.479278,0.950653 0,1.518305 C 76.892202,89.978596 76.341586,94 77.968615,94 c 0.532739,0 0.746597,0.578571 0.475241,1.285714 -0.271357,0.707143 -1.412469,1.285715 -2.535805,1.285715 -1.613181,0 -1.757952,-0.217672 -0.688842,-1.035715 z m 6.916973,-0.344731 C 82.061282,93.921024 81.6625,93.091349 81.25,93.347261 80.411823,93.86726 80.623231,76.043435 81.465227,75.201439 c 0.294125,-0.294125 0.579116,1.902728 0.633313,4.881894 0.185521,10.198039 0.242521,10.4387 2.40146,10.139412 1.816644,-0.251836 1.848472,-0.156565 0.347177,1.039185 -0.909053,0.724042 -1.860271,2.423807 -2.113818,3.777255 -0.450193,2.403152 -0.464186,2.406709 -0.597177,0.151798 z M 64.281384,91.75 C 64.665205,90.725849 64.466349,90 63.801949,90 c -0.624405,0 -0.869034,-0.266249 -0.543619,-0.591664 0.325416,-0.325415 1.32885,-0.179114 2.229855,0.325114 1.503885,0.841616 1.494684,1.033596 -0.112228,2.341664 C 63.820323,93.34144 63.69852,93.305262 64.281384,91.75 z M 41.5,91 c 0.339919,-0.55 1.068034,-1 1.618034,-1 0.55,0 0.721885,0.45 0.381966,1 -0.339919,0.55 -1.068034,1 -1.618034,1 -0.55,0 -0.721885,-0.45 -0.381966,-1 z m 18.112107,-2.181393 c 0.476886,-0.771618 0.165175,-0.94712 -0.933429,-0.525546 -1.400508,0.537426 -1.470512,0.346474 -0.463894,-1.265378 0.652035,-1.044074 1.552791,-1.67133 2.001679,-1.393901 0.448889,0.277428 0.581017,0.884886 0.293618,1.349906 -0.287398,0.46502 0.02001,1.026342 0.683127,1.247381 0.747768,0.249256 0.540514,0.657134 -0.545707,1.073956 -1.187155,0.455554 -1.520716,0.29885 -1.035394,-0.486418 z M 94.606989,85.418213 C 93.74436,83.170238 93.85328,75.999422 94.75,76.002956 c 0.4125,0.0016 0.75,2.476717 0.75,5.500203 0,3.023486 -0.06436,5.497155 -0.143011,5.497044 -0.07866,-1.12e-4 -0.416156,-0.712007 -0.75,-1.58199 z M 70,84.440983 c 0,-0.857459 0.45734,-1.276365 1.016312,-0.930902 0.558971,0.345464 0.757414,1.047021 0.440983,1.559017 C 70.600055,86.456142 70,86.197509 70,84.440983 z m -4.921053,-3.222368 c 0.0464,-1.597818 0.314351,-2.100214 0.649944,-1.218615 0.314049,0.825 0.991253,1.774876 1.504899,2.110837 0.513646,0.33596 0.221171,0.884336 -0.649944,1.218615 -1.215142,0.466293 -1.565468,-0.02509 -1.504899,-2.110837 z m 36.000003,-0.801948 c 0.048,-1.164943 0.28494,-1.4019 0.60416,-0.604167 0.28887,0.721875 0.25335,1.584375 -0.0789,1.916667 -0.3323,0.332291 -0.56864,-0.258334 -0.52522,-1.3125 z M 71.017462,80.5 C 70.899464,79.95 70.734764,78.375 70.65146,77 c -0.103637,-1.710636 -0.700617,-2.456713 -1.890698,-2.362905 -0.956581,0.0754 -1.473563,-0.292776 -1.148849,-0.818173 0.324713,-0.525398 1.21987,-0.713714 1.989238,-0.41848 C 70.408291,73.71017 71,73.31601 71,72.468615 71,71.660877 71.35964,71 71.799199,71 c 0.43956,0 0.63862,1.6875 0.442357,3.75 -0.448312,4.711236 -0.945699,7.047634 -1.224094,5.75 z m 4.158713,-2.572749 c -0.728103,-1.175096 -0.872776,-1.857774 -0.321494,-1.517063 0.551282,0.340711 1.147558,-0.3997 1.325059,-1.645357 C 76.357242,73.519174 76.759138,72.95 77.072843,73.5 c 0.313705,0.55 0.313149,2.251852 -0.0012,3.781894 -0.564709,2.748316 -0.587587,2.756105 -1.895433,0.645357 z M 64.5,76 c 0.339919,-0.55 0.816476,-1 1.059017,-1 C 65.801558,75 66,75.45 66,76 66,76.55 65.523442,77 64.940983,77 64.358524,77 64.160081,76.55 64.5,76 z M 101,74 c 0,-1.65 0.37206,-3 0.82681,-3 0.45474,0 0.62867,1.35 0.3865,3 -0.24217,1.65 -0.61423,3 -0.82681,3 C 101.17393,77 101,75.65 101,74 z M 89.850946,71.065099 c -0.19302,-2.786488 0.01311,-5.066063 0.458071,-5.065721 0.444959,3.42e-4 0.485313,-0.561878 0.08967,-1.249378 -0.395639,-0.6875 -0.336695,-0.901999 0.130984,-0.476665 0.763437,0.694312 0.750537,10.770436 -0.01478,11.542386 -0.172154,0.173646 -0.470933,-1.964133 -0.663953,-4.750622 z M 66.157895,71 c 0,-1.375 0.226973,-1.9375 0.504386,-1.25 0.277412,0.6875 0.277412,1.8125 0,2.5 -0.277413,0.6875 -0.504386,0.125 -0.504386,-1.25 z M 81.191551,69.930815 C 81.068725,68.318867 81.147919,67 81.367538,67 c 0.725734,0 1.377784,5.039366 0.705788,5.454682 -0.36215,0.223821 -0.758948,-0.911919 -0.881775,-2.523867 z M 95,69.5 c 0,-0.866695 0.595452,-1.208734 1.5,-0.861626 0.825,0.316582 1.5,0.704314 1.5,0.861626 0,0.157312 -0.675,0.545044 -1.5,0.861626 C 95.595452,70.708734 95,70.366695 95,69.5 z M 76.929253,69.600861 C 76.047818,68.711795 77.960737,54.636595 79.116957,53.503806 79.813438,52.821439 79.946173,53.300551 79.531468,55 c -0.335532,1.375 -0.929875,5.352223 -1.320763,8.838274 -0.390888,3.486051 -0.967541,6.079215 -1.281452,5.762587 z m 31.149697,-2.184194 c 0.048,-1.164943 0.28494,-1.4019 0.60416,-0.604167 0.28887,0.721875 0.25335,1.584375 -0.0789,1.916667 -0.3323,0.332291 -0.56864,-0.258334 -0.52522,-1.3125 z M 72,66.122445 c 0,-1.032656 -0.709297,-2.46622 -1.576215,-3.185698 -1.306295,-1.084129 -1.731788,-1.062285 -2.484688,0.127555 -0.665845,1.052265 -0.912561,0.654699 -0.923784,-1.488616 L 67,58.651372 l 2.25,2.047033 c 1.2375,1.125868 2.736341,1.867196 3.330758,1.647395 0.680925,-0.25179 0.916402,0.720188 0.636501,2.627281 C 72.722779,68.342189 72,69.024653 72,66.122445 z M 116,61.5 c 0,-3.208333 0.28242,-5.55091 0.62761,-5.205726 0.75028,0.750279 0.67002,9.741433 -0.0938,10.505227 C 116.24022,67.093109 116,64.708333 116,61.5 z m 6.83659,-0.08677 c -0.20064,-2.522725 -0.0644,-4.772452 0.30283,-4.999394 0.3672,-0.226941 0.82355,1.837386 1.01411,4.587395 0.19056,2.750008 0.0543,4.999736 -0.30284,4.999394 -0.35711,-3.42e-4 -0.81346,-2.06467 -1.0141,-4.587395 z m -21.27895,2.680032 c -0.30822,-0.498708 0.34022,-0.671224 1.44098,-0.383369 2.33499,0.610613 2.63015,1.29011 0.5604,1.29011 -0.79254,0 -1.69316,-0.408034 -2.00138,-0.906741 z m -5.993347,-1.386387 c 0.375531,-0.986221 0.934692,-1.541221 1.242579,-1.233333 0.307887,0.307887 6.34e-4,1.114794 -0.682784,1.793128 -0.987616,0.980267 -1.10248,0.865403 -0.559795,-0.559795 z M 80.507079,62.011454 c -0.350339,-0.56686 0.05106,-0.734507 0.940983,-0.393011 C 83.180479,62.283234 83.497449,63 82.059017,63 81.541476,63 80.843104,62.555154 80.507079,62.011454 z M 108,60.083333 c 0,-1.604166 -0.5625,-3.14364 -1.25,-3.421052 -0.74674,-0.301317 -0.54544,-0.536171 0.5,-0.583334 1.34837,-0.06083 1.75,0.724311 1.75,3.421053 0,1.925 -0.225,3.5 -0.5,3.5 -0.275,0 -0.5,-1.3125 -0.5,-2.916667 z M 129,58 c 0,-2.679453 -0.37513,-3.886193 -1.07382,-3.454374 -0.59061,0.365013 -0.47811,-0.298571 0.25,-1.474631 1.19113,-1.923969 1.36047,-1.959516 1.6895,-0.354643 0.20113,0.981006 0.87613,2.114257 1.5,2.518335 0.83731,0.542316 0.83008,0.738697 -0.0276,0.75 -0.64617,0.0085 -1.03895,1.135832 -0.88485,2.539634 0.15241,1.388376 -0.11222,2.764934 -0.58805,3.059017 C 129.38932,61.877421 129,60.264919 129,58 z m -56.3897,0.5 c 0.822471,-3.676928 1.394827,-4.475114 1.374387,-1.916667 C 73.976265,57.6375 73.512596,59.175 72.95431,60 72.213004,61.095458 72.120226,60.690916 72.6103,58.5 z M 88.5,57.439512 c -2.713222,-2.306739 -2.74457,-2.395744 -0.327931,-0.931085 2.579343,1.563269 2.687399,1.53917 3.113818,-0.694479 0.334334,-1.751293 0.474863,-1.523684 0.577931,0.936052 0.0749,1.7875 0.02368,3.247765 -0.113818,3.245033 -0.1375,-0.0027 -1.6,-1.152716 -3.25,-2.555521 z M 111,59 c 0,-0.55 0.47656,-1 1.05902,-1 0.58246,0 0.7809,0.45 0.44098,1 -0.33992,0.55 -0.81648,1 -1.05902,1 C 111.19844,60 111,59.55 111,59 z M 96.078947,56.416667 c 0.04798,-1.164943 0.284941,-1.4019 0.604167,-0.604167 0.288871,0.721875 0.253344,1.584375 -0.07895,1.916667 -0.332292,0.332291 -0.568641,-0.258334 -0.52522,-1.3125 z M 134,51 c 0,-3.325167 -0.41871,-5.005129 -1.25,-5.015313 -0.86475,-0.01059 -0.91096,-0.241742 -0.14994,-0.75 0.60503,-0.404078 1.357,-1.409687 1.67105,-2.234687 0.31405,-0.825 0.61267,0.75 0.6636,3.5 0.0509,2.75 0.36394,6.0125 0.69558,7.25 0.36178,1.350005 0.15632,2.25 -0.51366,2.25 C 134.44334,56 134,54.014831 134,51 z m -32.83385,3.123851 c -1.08507,-0.687827 -1.05388,-0.952956 0.16725,-1.421545 0.82559,-0.316812 1.7492,0.07057 2.05246,0.860836 0.61835,1.611415 -0.22579,1.82465 -2.21971,0.560709 z M 116.37817,53.25 c 0.27719,-1.435079 -0.0534,-2.25 -0.91277,-2.25 -0.74105,0 -1.57805,-0.373259 -1.86,-0.829464 -0.55344,-0.895485 3.00047,-0.898 3.89571,-0.0028 0.29802,0.29802 0.0695,1.619687 -0.50784,2.937038 -0.99679,2.274485 -1.02779,2.281801 -0.6151,0.145184 z m 5.82714,0.124701 C 121.49902,52.618615 121.35589,52 121.88725,52 c 0.53136,0 1.1719,-0.7875 1.42342,-1.75 0.35695,-1.365899 0.48279,-1.274446 0.57333,0.416667 0.0638,1.191666 0.65575,2.346582 1.31544,2.566479 0.82382,0.274608 0.74388,0.574625 -0.25527,0.958034 -0.80008,0.307022 -2.03257,-0.06039 -2.73886,-0.816479 z m -13.71023,-5.382664 c -0.34263,-0.55438 -1.71918,-0.809179 -3.05902,-0.566221 C 103.38512,47.797724 103,47.47133 103,45.361199 l 0,-2.506359 2.61754,2.058955 c 1.43964,1.132425 2.96365,1.845041 3.38669,1.58359 0.42304,-0.26145 1.32524,0.194681 2.00491,1.013625 C 112.0139,48.721679 111.95265,49 110.68146,49 c -0.85988,0 -1.84376,-0.453583 -2.18638,-1.007963 z M 130.27236,44 c 0,-2.475 0.19502,-3.4875 0.43337,-2.25 0.23836,1.2375 0.23836,3.2625 0,4.5 -0.23835,1.2375 -0.43337,0.225 -0.43337,-2.25 z M 117,42.166667 C 117,39.875 116.8118,38 116.58179,38 c -0.23002,0 -1.13002,-0.273145 -2,-0.606989 C 113.55922,37.000616 113,37.333289 113,38.333994 c 0,0.851385 -0.38499,1.785912 -0.85554,2.076727 -0.47055,0.290815 -0.65184,-0.536849 -0.40287,-1.839253 0.36982,-1.934587 1.04444,-2.351233 3.68584,-2.27636 3.22528,0.09142 3.2321,0.102777 2.79223,4.64827 C 117.64926,46.837736 117,47.488932 117,42.166667 z M 123.81021,42.5 c 0.22473,-1.925 0.58437,-3.5 0.7992,-3.5 0.21482,0 0.39059,1.575 0.39059,3.5 0,1.925 -0.35964,3.5 -0.7992,3.5 -0.43956,0 -0.61533,-1.575 -0.39059,-3.5 z m 28.20908,0.309017 C 152.0299,40.989058 152.70369,37.25 153.5166,34.5 c 0.81292,-2.75 1.27861,-3.603125 1.03488,-1.895833 -0.24373,1.707291 0.095,3.685808 0.75269,4.396704 0.88736,0.959124 0.89196,1.121973 0.0178,0.631313 -1.46316,-0.821283 -2.68133,2.660301 -1.84871,5.283659 0.33444,1.053714 0.13976,2.205271 -0.43261,2.559017 -0.64202,0.396789 -1.03329,-0.624432 -1.02139,-2.665843 z m -47.94034,-2.39235 c 0.048,-1.164943 0.28494,-1.4019 0.60416,-0.604167 0.28887,0.721875 0.25335,1.584375 -0.0789,1.916667 -0.3323,0.332291 -0.56864,-0.258334 -0.52522,-1.3125 z m 5,0 c 0.048,-1.164943 0.28494,-1.4019 0.60416,-0.604167 0.28887,0.721875 0.25335,1.584375 -0.0789,1.916667 -0.3323,0.332291 -0.56864,-0.258334 -0.52522,-1.3125 z M 135,37.773655 c 0,-2.679454 -2.51736,-4.530079 -3.35644,-2.467478 -0.26712,0.656603 -0.52119,-0.467119 -0.56461,-2.49716 -0.0434,-2.030041 0.27368,-3.908919 0.70467,-4.175286 0.43099,-0.266367 0.76849,0.719575 0.75,2.190983 -0.047,3.738774 2.75958,3.488231 3.63742,-0.324714 0.38158,-1.657419 0.48197,-0.336245 0.22432,2.952167 C 135.91853,39.537984 135,42.382709 135,37.773655 z m -25.43571,-1.066783 c 0.37553,-0.986221 0.93469,-1.541221 1.24258,-1.233333 0.30789,0.307887 6.4e-4,1.114794 -0.68278,1.793128 -0.98762,0.980267 -1.10248,0.865403 -0.5598,-0.559795 z M 147.625,33.202254 c -0.27117,-0.43876 -0.13516,-1.376801 0.30225,-2.084534 0.57987,-0.938254 0.94292,-0.722179 1.34039,0.797745 0.52597,2.011297 -0.63351,2.919593 -1.64264,1.286789 z M 121,29.968615 C 121,29.435877 121.675,29 122.5,29 c 0.825,0 1.5,0.176855 1.5,0.393011 0,0.216156 -0.675,0.652033 -1.5,0.968615 -0.825,0.316583 -1.5,0.139728 -1.5,-0.393011 z M 125,28.5 c 0,-1.375 0.3876,-2.5 0.86133,-2.5 0.47373,0 0.64627,1.125 0.38342,2.5 -0.26285,1.375 -0.65044,2.5 -0.86133,2.5 C 125.17254,31 125,29.875 125,28.5 z m 30.07895,-1.083333 c 0.048,-1.164943 0.28494,-1.4019 0.60416,-0.604167 0.28887,0.721875 0.25335,1.584375 -0.0789,1.916667 -0.3323,0.332291 -0.56864,-0.258334 -0.52522,-1.3125 z m -18,-5 c 0.048,-1.164943 0.28494,-1.4019 0.60416,-0.604167 0.28887,0.721875 0.25335,1.584375 -0.0789,1.916667 -0.3323,0.332291 -0.56864,-0.258334 -0.52522,-1.3125 z M 41,97.5 C 41,95.055556 40.547619,94 39.5,94 37.970675,94 37.31517,98.981836 38.666667,100.33333 40.161148,101.82781 41,100.80921 41,97.5 z M 41.82042,81.928759 C 41.867772,78.49771 41.650438,78.045222 40.438304,79.051204 38.687202,80.504489 38.576442,83.176442 40.2,84.8 c 1.618276,1.618276 1.55696,1.726924 1.62042,-2.871241 z M 163.41736,31.023825 c 0.79673,-3.415261 1.22308,-6.797256 0.94744,-7.515545 -0.27563,-0.718288 0.0402,-1.640571 0.70192,-2.049517 0.90827,-0.561341 1.03354,0.455291 0.51122,4.14885 -0.38053,2.690813 -0.95614,5.788858 -1.27915,6.884545 -0.49822,1.690055 -0.35686,1.800926 0.93217,0.731121 0.83571,-0.69357 1.80038,-2.940041 2.14372,-4.992158 0.34334,-2.052116 0.92038,-4.813988 1.28231,-6.137493 0.45894,-1.678229 0.31127,-2.192045 -0.48801,-1.698062 -0.7202,0.44511 -0.94352,0.180462 -0.60097,-0.712207 0.33168,-0.864344 -0.23742,-1.625152 -1.45355,-1.943175 -2.51875,-0.658668 -3.1106,-0.05798 -3.12977,3.176483 C 162.97627,22.3375 162.53316,24.175 162,25 c -0.93477,1.446453 -1.07216,1.246844 -1.36535,-1.983642 C 160.45764,21.065928 157,20.388932 157,22.304704 c 0,0.798243 0.95218,2.083575 2.11595,2.856292 1.99526,1.324799 2.04843,1.730236 0.93209,7.107582 -0.65112,3.136453 -0.86603,6.216905 -0.47757,6.845448 1.01263,1.638465 2.12124,-0.693006 3.84689,-8.090201 z m 7.32873,-6.68686 c 0.67975,-6.322723 -0.58916,-5.092129 -1.64654,1.596818 -0.53154,3.362486 -0.47762,4.844283 0.15332,4.213348 0.53526,-0.53526 1.20721,-3.149835 1.49322,-5.810166 z m -20.66661,-2.071208 c 0.36245,-1.772191 0.27715,-2.986164 -0.18957,-2.697717 -0.46672,0.288446 -1.87038,-0.0014 -3.11924,-0.644203 -1.83468,-0.944257 -2.03964,-0.923721 -1.06747,0.106952 0.84198,0.892657 0.90315,1.836232 0.20375,3.143074 -1.21875,2.277266 -0.29293,4.047117 1.89653,3.625468 0.90471,-0.174233 1.90729,-1.730765 2.276,-3.533574 z m 22.60363,1.546743 c -0.31922,-0.797733 -0.55618,-0.560776 -0.60416,0.604167 -0.0434,1.054166 0.19292,1.644791 0.52522,1.3125 0.33229,-0.332292 0.36781,-1.194792 0.0789,-1.916667 z m -17.36735,-5.016079 c -0.87068,-0.962092 -1.97291,-1.508312 -2.44941,-1.213823 -1.45003,0.896168 -0.96954,3.260275 0.8721,4.290908 2.44886,1.37045 3.58914,-0.854047 1.57731,-3.077085 z M 161.64999,18.75 c -0.25516,-1.701285 -1.10718,-2.32642 -3.49372,-2.563358 C 156.23399,15.995795 155,16.330847 155,17.04363 c 0,0.643691 0.675,0.911326 1.5,0.594744 0.88847,-0.340938 1.5,-0.01084 1.5,0.809677 0,1.260965 1.32224,2.269033 3.24373,2.473002 0.40904,0.04342 0.59186,-0.933553 0.40626,-2.171053 z m -10.74691,-1.133217 c 0.87769,-1.057557 0.82631,-1.506648 -0.21824,-1.90748 -1.85065,-0.710163 -4.10608,0.800106 -3.25394,2.178894 0.92183,1.491554 2.08447,1.400673 3.47218,-0.271414 z"
     id="path18749"
     inkscape:connector-curvature="0" />
  <path
     style="fill:#ffffff;fill-opacity:0.80693072;stroke:none;filter:url(#filter19325)"
     d="m 414.66958,215.76031 39.51777,-34.44454 c 15.12018,-13.79667 20.82473,-28.5349 29.37131,-42.98893 -11.75463,14.39596 -23.00885,29.19225 -38.1827,40.85284 -12.69417,10.4801 -25.28569,20.34426 -36.58064,22.429 0.68863,4.71721 0.43048,9.43442 5.87426,14.15163 z"
     id="path19323"
     inkscape:connector-curvature="0"
     sodipodi:nodetypes="cccccc" />
</svg>
