<?xml version="1.0" encoding="UTF-8" standalone="no"?>
<!-- Created with Inkscape (http://www.inkscape.org/) -->

<svg
   xmlns:dc="http://purl.org/dc/elements/1.1/"
   xmlns:cc="http://creativecommons.org/ns#"
   xmlns:rdf="http://www.w3.org/1999/02/22-rdf-syntax-ns#"
   xmlns:svg="http://www.w3.org/2000/svg"
   xmlns="http://www.w3.org/2000/svg"
   xmlns:sodipodi="http://sodipodi.sourceforge.net/DTD/sodipodi-0.dtd"
   xmlns:inkscape="http://www.inkscape.org/namespaces/inkscape"
   id="svg6538"
   version="1.1"
   inkscape:version="0.48.4 r9939"
   width="310"
   height="276"
   sodipodi:docname="Map.png">
  <metadata
     id="metadata6544">
    <rdf:RDF>
      <cc:Work
         rdf:about="">
        <dc:format>image/svg+xml</dc:format>
        <dc:type
           rdf:resource="http://purl.org/dc/dcmitype/StillImage" />
        <dc:title></dc:title>
      </cc:Work>
    </rdf:RDF>
  </metadata>
  <defs
     id="defs6542">
    <filter
       id="filter7060"
       inkscape:label="Age"
       x="0"
       y="0"
       width="1"
       height="1"
       inkscape:menu="Image effects"
       inkscape:menu-tooltip="Imitate aged photograph"
       color-interpolation-filters="sRGB">
      <feColorMatrix
         id="feColorMatrix7062"
         type="saturate"
         in="SourceGraphic"
         values="0" />
      <feColorMatrix
         id="feColorMatrix7064"
         values="3 0 0 0 -0.3 0 3 0 0 -0.3 0 0 3 0 -0.3 0 0 0 1 0"
         result="result0" />
      <feTurbulence
         id="feTurbulence7066"
         baseFrequency="0.111"
         numOctaves="2"
         type="fractalNoise" />
      <feColorMatrix
         id="feColorMatrix7068"
         values="0 0 0 0 0 0 0 0 0 0 0 0 0 0 0 0 0 0 255 -200" />
      <feGaussianBlur
         id="feGaussianBlur7070"
         stdDeviation="1"
         result="result1" />
      <feComposite
         id="feComposite7072"
         in2="result0"
         operator="atop" />
    </filter>
  </defs>
  <sodipodi:namedview
     pagecolor="#ffffff"
     bordercolor="#666666"
     borderopacity="1"
     objecttolerance="10"
     gridtolerance="10"
     guidetolerance="10"
     inkscape:pageopacity="0"
     inkscape:pageshadow="2"
     inkscape:window-width="1197"
     inkscape:window-height="722"
     id="namedview6540"
     showgrid="false"
     inkscape:zoom="1.2092551"
     inkscape:cx="179.36684"
     inkscape:cy="94.058001"
     inkscape:window-x="0"
     inkscape:window-y="22"
     inkscape:window-maximized="0"
     inkscape:current-layer="svg6538" />
  <path
     style="fill:#d9cb00;fill-opacity:0.72277228;stroke:none;filter:url(#filter7060)"
     d="m 65.329476,249.95091 2.480866,8.26955 6.202165,4.54826 9.923465,0 14.058242,-3.30782 4.961736,-3.7213 14.05824,0 90.13813,3.30782 82.69554,0.82695 -6.61564,-16.5391 0.41347,-45.89603 3.7213,-38.45342 3.30783,-20.26041 -0.82696,-21.50084 -8.26955,-90.965098 -16.95259,0 -32.25126,3.307822 -32.25126,-0.413478 -47.96341,-4.961732 -34.31865,-1.240433 -14.47172,3.721299 -1.65391,-12.817809 -15.298672,-1.240433 -15.712152,4.134777 -8.683032,7.442599 1.653911,27.703005 -0.413478,88.070751 z"
     id="path6550"
     inkscape:connector-curvature="0" />
  <path
     style="fill:#0010d9;fill-opacity:0.52475251;stroke:none"
     d="m 7.0291209,120.94587 3.3078211,-4.13478 7.442599,-2.48086 13.231286,2.06738 18.193019,0.82696 12.404331,-3.30782 2.480866,10.33694 -6.202166,1.24043 -21.50084,-2.48086 -12.404331,-2.06739 -16.9525851,8.26955 7.4425981,-9.50998 z"
     id="path7084"
     inkscape:connector-curvature="0" />
  <path
     style="fill:#000000"
     d="m 75.289493,264.51566 c -5.365304,-1.037 -10.646883,-6.52309 -11.703272,-12.15645 -0.45084,-2.40418 -0.848189,-19.89623 -0.882998,-38.87123 -0.100993,-55.05234 -1.134073,-89.19427 -2.660541,-87.92741 -2.931779,2.43316 -11.808008,2.24421 -21.175573,-0.45076 -11.986972,-3.44856 -16.613936,-3.40551 -22.291185,0.20738 -2.44518,1.55606 -5.063381,3.58106 -5.818226,4.5 -0.754844,0.91893 -1.9689361,1.67079 -2.6979801,1.67079 -1.05303,0 -1.10082,-0.66814 -0.232463,-3.25 0.60119,-1.7875 1.5328815,-3.8125 2.0704255,-4.5 0.6482396,-0.82908 0.6192546,-1.25 -0.08608,-1.25 -0.584886,0 -1.3415435,0.45 -1.6814625,1 -1.123013,1.81707 -2.5,1.03984 -2.5,-1.41111 0,-3.14244 4.9557711,-7.30205 9.7794371,-8.20834 2.111774,-0.39677 6.531194,-0.13069 10.220563,0.61534 9.078683,1.83583 24.724931,2.39286 29.254042,1.0415 2.064724,-0.61605 4.375033,-2.11399 5.134022,-3.32874 3.303039,-5.28649 4.477031,-53.359001 1.998005,-81.814108 l -0.575466,-6.60545 4.414567,-3.617406 C 76.287052,11.611636 88.101033,8.7719553 97.880143,12.461979 l 5.749997,2.169691 0,5.4034 0,5.4034 2.70272,-1.027571 c 4.31535,-1.640696 25.93698,-2.756118 36.29728,-1.872515 26.62711,2.270958 45.73181,4.146218 57,5.59495 13.30879,1.711088 43.83935,1.403411 53,-0.534117 8.28367,-1.752042 29.12673,-3.38451 30.14985,-2.361393 0.87271,0.872708 1.82045,11.138228 3.25437,35.250148 0.27802,4.675 1.16242,13 1.96532,18.5 2.19625,15.044629 2.47034,18.378755 3.20606,39.000008 0.55436,15.53819 0.38342,20.45761 -0.93821,27 -4.02504,19.92499 -5.58103,40.00318 -5.46349,70.5 0.10107,26.22098 0.33166,30.2225 2.07457,36 1.07847,3.575 2.44733,7.0968 3.04189,7.82622 1.66502,2.04264 -0.88215,3.06154 -5.14192,2.05682 -2.00664,-0.47329 -24.57344,-0.89719 -50.14844,-0.942 -44.20151,-0.0774 -61.97247,-0.62711 -98.5,-3.04668 -8.8,-0.58291 -18.475,-1.21246 -21.5,-1.39901 -6.33237,-0.39052 -12.38392,0.93167 -15.990827,3.49379 -2.75377,1.95611 -15.246027,6.07895 -17.864505,5.89586 -0.904566,-0.0632 -3.372957,-0.44904 -5.485315,-0.85732 z m 11.726598,-4.59106 c 0.32996,-0.85986 1.002117,-1.31482 1.493682,-1.01101 0.491566,0.3038 1.507244,-0.20406 2.257063,-1.12858 1.154008,-1.42288 1.151487,-1.55335 -0.01642,-0.84979 -0.959242,0.57785 -1.225909,0.40778 -0.875,-0.55804 0.277603,-0.76406 0.948543,-1.29751 1.490978,-1.18545 0.542435,0.11206 0.936185,-0.6812 0.875,-1.7628 -0.139993,-2.47474 -1.994028,-2.65873 -2.45647,-0.24377 -0.189873,0.99155 -1.740648,3.26532 -3.446167,5.05282 -2.228627,2.33575 -2.653896,3.25 -1.511765,3.25 0.874048,0 1.859145,-0.70352 2.189104,-1.56338 z m -5.111611,-0.58344 c 3.052085,-1.63343 5.744203,-5.18877 4.721898,-6.23596 -1.34158,-1.37425 -3.996235,0.10642 -3.996235,2.22895 0,1.04992 -0.739911,2.52301 -1.644246,3.27354 -1.461635,1.21305 -1.565211,1.11559 -0.932612,-0.87755 0.525893,-1.65694 0.311719,-2.24216 -0.820571,-2.24216 -1.33293,0 -3.602571,2.79361 -3.602571,4.43426 0,0.98585 4.04679,0.61107 6.274337,-0.58108 z m 16.355853,-8.3745 c -0.5314,-1.3848 -0.93257,-1.47261 -2.14202,-0.46886 -0.818495,0.67929 -1.48817,1.97984 -1.48817,2.89012 0,0.91028 -0.737972,2.76768 -1.639937,4.12755 -1.100694,1.6595 -0.396354,1.26946 2.142026,-1.18618 2.619961,-2.53457 3.581071,-4.18223 3.128101,-5.36263 z m 186.291007,1.9354 c -1.94956,-5.5326 -2.08285,-8.01047 -2.06631,-38.41408 0.0179,-32.94754 1.14396,-48.55864 4.72455,-65.5 2.75388,-13.0298 1.89434,-44.13818 -2.00322,-72.500008 -0.86919,-6.325 -1.98577,-19.968844 -2.48127,-30.319653 -0.49551,-10.350809 -1.1348,-19.053534 -1.42066,-19.339389 -0.63653,-0.636534 -21.31846,1.368103 -28.07553,2.721277 -2.69569,0.539839 -12.30468,1.405173 -21.35332,1.922965 -14.07386,0.80535 -18.71388,0.665571 -32.09876,-0.966963 -8.60567,-1.049621 -19.02168,-2.177751 -23.14668,-2.506956 -4.125,-0.329205 -14.00197,-1.315521 -21.94882,-2.191814 -15.89164,-1.752357 -42.09262,-1.387465 -47.72101,0.664595 -3.81104,1.389474 -5.59909,4.472654 -2.07388,3.576058 l 2.24371,-0.570661 -2.25,1.158085 c -1.67191,0.860537 -2.25,2.040662 -2.25,4.593168 l 0,3.435084 4.25,-0.57654 4.25,-0.576541 -4,1.266737 c -2.93212,0.928556 -4.08787,1.879446 -4.32914,3.561782 -0.31282,2.181279 -0.0898,2.268798 4.5,1.765542 l 4.82914,-0.529504 -4.75,1.064543 c -4.04599,0.906766 -4.75,1.419041 -4.75,3.456365 0,1.567066 0.60344,2.43182 1.75,2.507821 1.66667,0.110478 1.66667,0.137779 0,0.573325 -0.9625,0.251527 -1.75,1.320683 -1.75,2.375901 0,1.841705 0.16194,1.853785 4.04149,0.301496 2.22282,-0.889395 4.25005,-1.408516 4.50496,-1.153602 0.25492,0.254915 -1.33875,1.058272 -3.54148,1.78524 -3.06328,1.010972 -4.00497,1.840378 -4.00497,3.527424 0,2.057204 0.28607,2.150326 4.25,1.383492 7.18017,-1.389024 11.77754,-1.144616 11.11163,0.590723 -0.31659,0.825 -0.0775,1.5 0.53138,1.5 0.60885,0 1.11388,-0.5625 1.1223,-1.25 0.0111,-0.905184 0.2561,-0.869843 0.8882,0.128115 0.48009,0.757964 1.37319,1.068906 1.98469,0.690983 0.6579,-0.406608 1.11805,0.0514 1.12711,1.121885 0.013,1.533808 0.16279,1.580819 0.98469,0.309017 0.80407,-1.244213 0.9746,-1.158951 1,0.5 0.0254,1.658951 0.19593,1.744213 1,0.5 0.82843,-1.281897 0.9716,-1.245547 0.98469,0.25 0.008,0.9625 0.46531,1.75 1.01531,1.75 0.55,0 1,-0.476558 1,-1.059017 0,-0.594126 0.54873,-0.718602 1.25,-0.283555 0.6875,0.426503 2.15,0.793693 3.25,0.815976 1.1,0.02228 2.63897,0.448704 3.41994,0.947601 1.0768,0.687882 1.26563,0.504957 0.78138,-0.75696 -0.7351,-1.915648 0.84081,-2.298094 1.70612,-0.414045 0.31575,0.6875 0.32293,0.2375 0.0159,-1 -0.58133,-2.343405 1.03217,-3.186252 1.91434,-1 0.27741,0.6875 0.57544,-0.1 0.66228,-1.75 0.0868,-1.65 0.37644,-2.46278 0.64356,-1.806177 0.26711,0.656603 1.129,0.946949 1.9153,0.645215 0.78631,-0.301734 1.15088,-0.999665 0.81017,-1.550957 -0.38349,-0.62049 0.18775,-0.746141 1.49945,-0.329824 1.66105,0.527196 1.98819,0.331804 1.51389,-0.904207 -0.46402,-1.209199 -0.17118,-1.413896 1.25629,-0.87816 1.65087,0.619582 1.70389,0.505059 0.46884,-1.012825 -0.76588,-0.941268 -1.04177,-2.038022 -0.6131,-2.437231 0.42868,-0.399209 0.9803,-0.163334 1.22584,0.524166 0.24553,0.6875 0.8448,1.25 1.33171,1.25 0.4869,0 0.59628,-0.753124 0.24306,-1.673609 -0.4935,-1.286019 -0.23949,-1.519065 1.09677,-1.006292 1.39114,0.533829 1.61282,0.26976 1.10822,-1.320099 -0.50356,-1.586584 -0.28198,-1.853568 1.09865,-1.323769 1.18116,0.453253 1.49871,0.290313 1.00164,-0.513963 -0.40029,-0.647685 -0.0228,-1.882593 0.83882,-2.74424 1.42218,-1.422174 1.62531,-1.413735 2.20293,0.09152 0.50798,1.323795 0.80678,1.389188 1.48181,0.324301 0.65672,-1.036006 0.84894,-0.96169 0.86084,0.332821 0.008,0.916666 0.57781,1.894907 1.26531,2.173869 0.80981,0.32859 0.89785,0.798126 0.25,1.333333 -0.55,0.454372 -1.14362,1.726131 -1.31915,2.826131 -0.17554,1.1 -0.98689,2.51705 -1.80301,3.148999 -1.17207,0.90758 -1.21007,1.258689 -0.18084,1.671053 0.82647,0.331128 0.64857,0.550926 -0.48643,0.601001 -1.48029,0.06531 -1.56667,0.320753 -0.5,1.478661 0.90184,0.978971 1.66517,1.092461 2.53943,0.377555 0.86468,-0.707068 1.25,-0.676154 1.25,0.100286 4e-5,0.617342 0.4766,1.122442 1.05906,1.122442 0.58246,0 0.7809,-0.45 0.44098,-1 -0.33992,-0.55 -0.14148,-1 0.44098,-1 0.58246,0 1.07333,0.5625 1.09082,1.25 0.0179,0.704115 0.67298,0.402293 1.5,-0.69113 1.36697,-1.807295 1.4682,-1.816491 1.4682,-0.133368 0,1.338326 0.53987,1.666582 2.07899,1.264093 1.51806,-0.396982 1.93124,-0.158641 1.53138,0.883368 -0.30118,0.78487 -0.0852,1.427037 0.48003,1.427037 0.5652,0 0.71842,0.500312 0.3405,1.111803 -0.37792,0.611492 -0.067,1.504602 0.69098,1.984688 0.99796,0.632096 1.0333,0.877108 0.12812,0.888196 -0.6875,0.0084 -1.25,0.690313 -1.25,1.515313 0,1.698169 1.56593,2.011355 2.5,0.5 0.33992,-0.55 1.09658,-1 1.68146,-1 0.67059,0 0.60356,0.554114 -0.18146,1.5 -1.04338,1.257195 -0.88331,1.5 0.98885,1.5 2.0331,0 2.17156,0.331396 1.54157,3.689566 -0.64522,3.439293 -0.57224,3.591916 1.07594,2.25 1.56371,-1.27315 1.6978,-1.251632 1.15995,0.186143 -0.79073,2.113788 2.45272,1.994339 3.4134,-0.125709 0.49051,-1.082449 0.69928,-0.873673 0.75,0.75 0.04,1.280058 0.70339,2.25 1.53891,2.25 0.89459,0 1.24363,-0.586289 0.89301,-1.5 -0.31659,-0.825 -0.0775,-1.5 0.53138,-1.5 0.60885,0 1.10699,0.45 1.10699,1 0,1.778914 1.99737,1.058344 2.07895,-0.75 0.0472,-1.045438 0.28201,-1.246741 0.58333,-0.5 0.84045,2.082841 2.51936,1.397652 1.83772,-0.75 -0.36414,-1.147311 -0.1797,-2 0.43261,-2 0.58707,0 1.06739,0.4875 1.06739,1.083333 0,0.595834 0.5625,0.886649 1.25,0.646257 0.6875,-0.240393 1.12524,-1.290393 0.97275,-2.333334 -0.26145,-1.78811 -0.19813,-1.796451 1.11024,-0.146256 1.76191,2.222237 2.64991,2.222237 2.7304,0 0.0486,-1.340808 0.27485,-1.223896 0.96777,0.5 1.08022,2.687432 2.64551,2.92608 3.27951,0.5 0.34415,-1.31691 0.48604,-1.19317 0.57333,0.5 0.13593,2.636622 2.06178,3.068038 2.232,0.5 0.11048,-1.666667 0.13778,-1.666667 0.57333,0 0.49347,1.888352 2.31067,2.431765 2.31067,0.690983 0,-0.582459 0.50031,-0.749807 1.1118,-0.371885 0.6115,0.377923 1.5046,0.06698 1.98469,-0.690983 0.64788,-1.022883 0.87683,-0.79814 0.8882,0.871885 0.0178,2.620279 2.00046,3.104857 2.04572,0.5 0.0273,-1.571958 0.14353,-1.555114 1.14235,0.16557 1.08081,1.861958 1.14993,1.863605 2.46959,0.05887 0.74671,-1.021184 1.35765,-1.320691 1.35765,-0.66557 0,0.655122 0.625,1.19113 1.38889,1.19113 0.76389,0 1.32639,-0.7875 1.25,-1.75 -0.0846,-1.066454 0.51377,-1.700898 1.53203,-1.624291 1.12017,0.08427 1.47496,-0.384959 1.07639,-1.423609 -0.44183,-1.151386 -0.15133,-1.379248 1.13102,-0.887163 1.03786,0.398263 1.47917,0.263504 1.10733,-0.338136 -0.34002,-0.55016 0.76883,-1.277699 2.46411,-1.616754 2.47086,-0.494173 2.85647,-0.888592 1.94383,-1.988255 -0.89426,-1.077512 -0.73681,-1.388728 0.73396,-1.450739 1.05364,-0.04443 1.32583,-0.299511 0.62244,-0.583334 -0.6875,-0.277412 -1.25,-0.965031 -1.25,-1.528041 0,-0.563011 0.73865,-0.740209 1.64144,-0.393775 1.37248,0.526667 1.43434,0.380336 0.37756,-0.893011 -1.06438,-1.282502 -0.92886,-1.522892 0.85856,-1.522892 1.16734,0 2.12244,-0.435877 2.12244,-0.968615 0,-0.532739 -0.7875,-0.691508 -1.75,-0.352822 -1.41292,0.497181 -1.51381,0.360886 -0.52379,-0.707591 0.96437,-1.040797 0.96604,-1.636862 0.008,-2.791424 -1.02787,-1.238507 -0.86878,-1.357085 1.0175,-0.758403 1.84341,0.585075 2.11938,0.406071 1.57222,-1.019799 -0.43432,-1.13183 -0.28061,-1.492708 0.44483,-1.044359 0.60966,0.376793 1.57245,-0.111887 2.13953,-1.085955 0.98093,-1.684945 1.03253,-1.683099 1.06146,0.03798 0.0167,0.994959 0.48041,1.530902 1.03041,1.190983 0.55,-0.339919 1,-0.09333 1,0.547972 0,0.641303 0.675,0.906984 1.5,0.590402 0.825,-0.316583 1.5,-0.139728 1.5,0.393011 0,0.532738 -0.7875,1.000243 -1.75,1.0389 -1.48991,0.05984 -1.45275,0.192857 0.25,0.894991 1.90549,0.785732 1.88186,0.87393 -0.5,1.866328 -1.375,0.572893 -1.88936,1.070147 -1.14301,1.10501 0.74634,0.03486 1.11901,0.683551 0.82814,1.441531 -0.29086,0.75798 -0.024,1.88298 0.59301,2.5 0.82899,0.829145 0.78068,1.12186 -0.18529,1.12186 -0.79106,0 -1.06291,0.636067 -0.68866,1.611341 0.44245,1.153001 0.18844,1.446374 -0.89301,1.031384 -0.83623,-0.320891 -1.51818,-0.0356 -1.52665,0.63866 -0.0107,0.854427 -0.27224,0.813141 -0.875,-0.138148 -0.5993,-0.945806 -1.06688,-1.02153 -1.54371,-0.25 -0.37621,0.60872 -0.37815,1.601659 -0.004,2.206531 0.49424,0.799691 0.11899,0.799691 -1.37524,0 -2.91635,-1.560783 -3.06685,-1.448152 -2.53914,1.900232 0.28806,1.827788 0.0356,3 -0.64625,3 -0.61549,0 -0.84095,0.45 -0.50103,1 0.33992,0.55 -0.36362,1 -1.56343,1 -1.92228,0 -2.0184,0.200457 -0.80901,1.687231 1.20186,1.477523 1.15493,1.605715 -0.37756,1.031385 -1.30491,-0.48904 -1.75,-0.143009 -1.75,1.360518 0,1.109 -1.16582,3.096806 -2.5907,4.417346 -1.42489,1.32054 -2.30152,2.868899 -1.94807,3.440797 0.39899,0.645572 -0.008,0.790152 -1.07334,0.38133 -1.26473,-0.485202 -1.49839,-0.305892 -0.88821,0.681393 0.61816,1.000206 0.37038,1.164238 -0.9774,0.647047 -1.5881,-0.609411 -1.6389,-0.492101 -0.42189,0.974306 1.24634,1.501743 1.13714,1.588913 -1.10071,0.878647 -2.23785,-0.710266 -2.34705,-0.623096 -1.10071,0.878647 1.21768,1.467216 1.16594,1.583614 -0.43146,0.970636 -1.4315,-0.549319 -1.67512,-0.331866 -1.15289,1.029046 0.39402,1.026819 0.26186,1.478152 -0.32639,1.114592 -0.5437,-0.336025 -0.98855,0.11716 -0.98855,1.007079 0,0.88992 -0.45,1.33992 -1,1 -0.55,-0.33992 -1,0.0835 -1,0.94098 0,0.857458 -0.5625,1.565918 -1.25,1.574338 -0.83333,0.0102 -0.75,0.33844 0.25,0.98469 1.2483,0.80672 1.1644,0.98519 -0.5,1.06363 -1.1,0.0519 -1.4347,0.32217 -0.74377,0.60073 0.69093,0.27855 1.00187,0.91803 0.69098,1.42105 -0.31088,0.50302 0.0238,0.92148 0.74377,0.9299 0.95119,0.0111 0.89899,0.2803 -0.19098,0.98469 -1.08997,0.70439 -1.14217,0.97356 -0.19098,0.98469 0.71996,0.008 1.0309,0.46531 0.69098,1.01531 -0.33992,0.55 -0.0933,1 0.54797,1 0.6413,0 0.90699,0.675 0.5904,1.5 -0.31658,0.825 -0.19221,1.5 0.27638,1.5 0.46859,0 1.07974,0.87094 1.35811,1.93542 0.51651,1.97515 -1.63258,3.57833 -3.3631,2.50881 -0.79691,-0.49252 -1.37121,1.63324 -1.02818,3.80577 0.0651,0.4125 -0.44408,0.75689 -1.13158,0.76531 -0.83333,0.0102 -0.75,0.33844 0.25,0.98469 1.33333,0.86167 1.33333,0.97278 0,1 -1.33333,0.0272 -1.33333,0.13833 0,1 0.825,0.53316 1.1074,0.97627 0.62756,0.98469 -0.47985,0.008 -0.31225,0.69031 0.37244,1.51531 0.99911,1.20386 0.98555,1.5 -0.0687,1.5 -0.80225,0 -0.57266,0.54177 0.5898,1.39179 1.61719,1.18252 1.7027,1.6336 0.56869,3 -1.15394,1.39041 -1.05151,1.60821 0.75636,1.60821 1.44788,0 1.91401,0.46138 1.51546,1.5 -0.31659,0.825 -0.0509,1.5 0.5904,1.5 0.6413,0 0.88789,0.45 0.54797,1 -0.33992,0.55 -0.029,1.01431 0.69098,1.0318 0.87509,0.0213 0.73406,0.4684 -0.42544,1.34888 -0.95395,0.72439 -1.40395,1.67338 -1,2.10887 0.40395,0.43549 -0.50304,0.49493 -2.01554,0.13207 -2.19978,-0.52772 -2.76406,-0.30577 -2.82029,1.10933 -0.061,1.5346 -0.18418,1.50399 -0.92971,-0.23095 -0.47269,-1.1 -0.92269,-1.55 -1,-1 -0.0773,0.55 -0.52731,0.1 -1,-1 -0.68266,-1.58863 -0.87389,-1.65825 -0.92971,-0.33848 -0.0735,1.73689 -1.52957,1.88487 -4.07029,0.41366 -1.20796,-0.69948 -1.26127,-0.61103 -0.27379,0.45432 0.89782,0.96863 0.93198,1.67743 0.12755,2.64671 -0.82061,0.98877 -0.75132,1.32767 0.2738,1.3391 1.07798,0.012 1.05062,0.22329 -0.12756,0.98469 -1,0.64625 -1.08333,0.97448 -0.25,0.98469 0.6875,0.008 1.25,0.49187 1.25,1.07433 0,0.58246 -0.45,0.7809 -1,0.44098 -0.55,-0.33992 -1,0.33508 -1,1.5 0,1.16728 -0.45205,1.83865 -1.00706,1.49563 -1.01229,-0.62562 -1.93831,0.92642 -2.39034,4.00625 -0.31351,2.13611 -2.3486,3.3773 -4.58051,2.79364 -1.47259,-0.38509 -1.70985,0.12893 -1.46777,3.1799 0.2569,3.23765 0.11071,3.49498 -1.32474,2.33191 -1.35274,-1.09605 -1.47516,-1.07785 -0.75749,0.11261 0.65304,1.08327 0.43506,1.25841 -0.91939,0.73866 -1.35826,-0.52122 -1.62909,-0.30004 -1.1527,0.9414 0.44686,1.16451 0.19594,1.45893 -0.88866,1.04273 -0.83124,-0.31898 -1.51134,-0.089 -1.51134,0.5111 0,0.71242 -0.5285,0.65244 -1.52289,-0.17283 -1.28737,-1.06842 -1.41575,-0.98466 -0.83006,0.5416 0.47674,1.24237 0.32793,1.57997 -0.47711,1.08243 -0.64347,-0.39769 -1.16994,-0.19141 -1.16994,0.4584 0,0.88042 -0.3822,0.86426 -1.5,-0.0634 -1.19672,-0.99319 -1.5,-0.99319 -1.5,0 0,0.99319 -0.30328,0.99319 -1.5,0 -1.2093,-1.00363 -1.50297,-0.97891 -1.51531,0.12756 -0.012,1.07798 -0.22329,1.05062 -0.98469,-0.12756 -0.53316,-0.825 -0.97627,-1.1074 -0.98469,-0.62756 -0.008,0.47985 -0.77669,0.25485 -1.70727,-0.5 -1.26711,-1.02782 -1.49596,-1.04655 -0.91139,-0.0746 0.42932,0.71383 0.50632,2.01259 0.17111,2.88612 -0.54225,1.41309 -0.85527,1.38317 -2.83861,-0.27136 -1.22603,-1.02277 -1.66665,-1.21902 -0.97915,-0.43612 1.49392,1.70123 1.66182,3.39602 0.25,2.52347 -0.55,-0.33992 -1,-0.17898 -1,0.35765 0,0.53663 0.5625,1.23818 1.25,1.55902 0.95103,0.44381 0.96447,0.71837 0.0562,1.14794 -0.65661,0.31053 -0.944,1.21564 -0.63866,2.01134 0.38934,1.01462 0.0739,1.26205 -1.05618,0.8284 -1.19285,-0.45774 -1.6278,-0.006 -1.67473,1.73866 l -0.0634,2.35701 -1.04163,-2.5 c -0.99239,-2.38186 -1.08059,-2.40549 -1.86632,-0.5 -0.78425,1.90187 -0.82816,1.8896 -0.89499,-0.25 -0.0387,-1.2375 -0.50617,-2.25 -1.03891,-2.25 -0.53273,0 -0.70959,0.675 -0.39301,1.5 0.31659,0.825 0.11496,1.5 -0.44805,1.5 -0.56301,0 -1.25063,-0.5625 -1.52804,-1.25 -0.27741,-0.6875 -0.5468,-0.35 -0.59865,0.75 -0.0784,1.6644 -0.25691,1.7483 -1.06363,0.5 -0.70439,-1.08997 -0.97356,-1.14217 -0.98469,-0.19098 -0.008,0.71996 -0.46531,1.0309 -1.01531,0.69098 -0.55,-0.33992 -1,-0.14148 -1,0.44098 0,0.58246 -0.45,1.05902 -1,1.05902 -0.55,0 -1,-0.98601 -1,-2.19113 0,-2.14132 -0.0334,-2.147 -1.4682,-0.25 -1.32847,1.7564 -1.47122,1.77459 -1.5,0.19113 -0.0175,-0.9625 -0.46768,-1.75 -1.00042,-1.75 -0.53273,0 -0.70959,0.675 -0.39301,1.5 0.31659,0.825 0.0775,1.5 -0.53138,1.5 -0.60885,0 -1.14252,-0.5625 -1.18594,-1.25 -0.056,-0.8875 -0.23615,-0.85469 -0.62105,0.11315 -0.45112,1.13438 -0.68099,1.13842 -1.3697,0.0241 -0.62039,-1.00381 -1.07495,-0.71917 -1.81556,1.13685 -0.96379,2.41535 -0.98952,2.42088 -1.05135,0.22593 -0.0741,-2.63133 -2.0161,-3.08022 -2.16307,-0.5 -0.0635,1.11494 -0.35814,0.84277 -0.81191,-0.75 l -0.71223,-2.5 -0.69828,2.7147 c -0.52643,2.04657 -1.12649,2.55425 -2.43809,2.06277 -1.57194,-0.58903 -1.59584,-0.47522 -0.24765,1.17954 1.37829,1.69172 1.32154,1.77733 -0.74371,1.12184 -1.87203,-0.59415 -2.12506,-0.41422 -1.55493,1.10576 0.59882,1.59646 0.47747,1.64988 -1.00629,0.44295 -1.49227,-1.21389 -1.68723,-1.10514 -1.68723,0.94109 0,2.24899 -0.041,2.25939 -1.4682,0.37245 -1.32847,-1.7564 -1.47122,-1.77459 -1.5,-0.19113 -0.0386,2.12617 -2.0318,2.37142 -2.0318,0.25 0,-0.825 -0.43588,-1.5 -0.96862,-1.5 -0.53273,0 -0.67348,0.7875 -0.31276,1.75 0.57749,1.54093 0.45154,1.58377 -1.05428,0.35856 -1.49592,-1.21716 -1.63068,-1.18442 -1.07589,0.26134 0.47113,1.22774 0.21985,1.49377 -0.97711,1.03445 -1.07199,-0.41136 -1.61134,-0.0776 -1.61134,0.99714 0,1.33686 -0.32771,1.4108 -1.90022,0.42875 -1.04512,-0.65269 -1.67198,-1.7815 -1.39301,-2.50847 0.27896,-0.72698 0.009,-1.32177 -0.59978,-1.32177 -0.60885,0 -1.10699,0.675 -1.10699,1.5 0,1.30257 -3.8323,2.15806 -7.25,1.61842 -0.4125,-0.0651 -0.75,0.37972 -0.75,0.98857 0,0.60884 -0.64696,0.85872 -1.43769,0.55529 -0.93957,-0.36054 -1.54607,0.20872 -1.75049,1.64301 -0.19877,1.39467 -0.96333,2.14195 -2.09739,2.04997 -1.50572,-0.12211 -1.58378,0.10248 -0.49951,1.43723 1.09456,1.34744 1.02563,1.48474 -0.46492,0.92613 -0.9625,-0.36072 -1.75,-0.20744 -1.75,0.34061 0,0.6163 2.57523,0.79266 6.75,0.46227 7.95816,-0.62982 7.269,0.0414 -1,0.97394 -5.20841,0.58739 -5.75,0.87273 -5.75,3.0294 0,2.25867 0.26959,2.35946 5.25,1.96276 l 5.25,-0.41817 -5.25,1.04156 -5.25,1.04156 0,5.42372 0,5.42373 4.25,0.17471 4.25,0.1747 -4.25,0.3828 c -4.13302,0.37225 -5.065887,1.43655 -3.46536,3.95358 0.41472,0.65218 2.99532,1.35857 5.73469,1.56975 l 4.98067,0.38396 -5.25,0.18025 c -5.01674,0.17224 -5.25003,0.30243 -5.25062,2.93025 -6.1e-4,2.68016 0.13273,2.74415 5.25,2.51959 6.05766,-0.26582 5.37436,0.28699 -1.49938,1.21303 -3.16912,0.42695 -4.75,1.11876 -4.75,2.07865 0,1.72648 -0.39011,1.72929 4.5,-0.0324 2.2,-0.79258 5.125,-1.42528 6.5,-1.406 2.84735,0.0399 2.61571,0.14283 -5.25,2.33241 -4.4835,1.24807 -5.75,2.02954 -5.75,3.54793 0,1.67712 0.35592,1.812 2.5651,0.97207 1.4108,-0.53639 4.2233,-0.91397 6.25,-0.83907 2.49952,0.0924 2.88068,0.25729 1.1849,0.51266 -6.85706,1.03262 -10,2.44944 -10,4.50793 0,1.6914 0.41727,1.94839 2.25,1.38574 1.2375,-0.37991 4.5,-0.86444 7.25,-1.07674 5.12173,-0.39539 4.8357,-0.28088 -4.27787,1.71257 -6.995567,1.53018 -6.196097,3.36662 1.37698,3.16301 l 5.90089,-0.15866 -5.67264,1.05883 c -4.1843,0.78102 -5.80238,1.55495 -6.16712,2.94974 -0.41274,1.57832 -0.13623,1.76013 1.67264,1.09982 1.19191,-0.43509 6.21712,-0.7856 11.16712,-0.77891 9.77686,0.0132 48.83051,2.26415 54.5,3.1412 1.925,0.29779 28.81129,0.6464 59.74732,0.77469 30.93603,0.12829 56.54853,0.53446 56.91667,0.9026 1.46437,1.46437 1.24647,-0.27132 -0.74279,-5.91658 z m -180.1712,-40.13748 c 1.7875,-0.22182 4.7125,-0.22182 6.5,0 1.7875,0.22183 0.325,0.40333 -3.25,0.40333 -3.575,0 -5.0375,-0.1815 -3.25,-0.40333 z m 98.25,-6.72691 c 0,-0.79767 -0.7875,-1.90899 -1.75,-2.46959 -1.07989,-0.62898 -1.24875,-1.03093 -0.44098,-1.04969 0.71996,-0.0167 1.10469,-0.36791 0.85496,-0.78041 -0.24973,-0.4125 0.0612,-1.2 0.69098,-1.75 1.64975,-1.44078 4.38976,-1.72207 5.12865,-0.52652 0.34893,0.56459 1.11297,1.02652 1.69785,1.02652 0.7503,0 0.74976,-0.37795 -0.002,-1.28354 -1.3385,-1.61279 0.14865,-4.24963 1.81568,-3.21935 0.87006,0.53773 1.03341,0.1688 0.57072,-1.289 -0.55302,-1.74241 -0.31174,-1.95563 1.64287,-1.45182 2.04365,0.52676 2.14286,0.40981 0.91864,-1.08288 -1.18174,-1.44088 -1.147,-1.67341 0.25,-1.67341 0.89234,0 1.62244,-0.40787 1.62244,-0.90638 0,-0.49851 -0.9,-0.67103 -2,-0.38337 -1.11819,0.29241 -2,0.0307 -2,-0.59362 0,-0.61415 0.675,-1.11663 1.5,-1.11663 0.825,0 1.5,-0.40787 1.5,-0.90638 0,-0.49851 -1.0125,-0.68447 -2.25,-0.41325 -1.65519,0.36276 -1.8865,0.23589 -0.875,-0.47989 0.75625,-0.53516 1.375,-2.1492 1.375,-3.58675 0,-1.43755 0.42031,-2.61373 0.93402,-2.61373 0.51371,0 0.60864,-0.52647 0.21095,-1.16994 -0.48618,-0.78665 -0.1779,-0.96074 0.94099,-0.53138 1.23992,0.4758 1.67179,0.0731 1.69445,-1.58006 0.0285,-2.07962 0.0985,-2.10146 1.11683,-0.34864 0.87722,1.50989 1.25354,1.60617 1.95428,0.5 0.67008,-1.05778 0.87134,-0.94328 0.88317,0.50246 0.0133,1.63207 0.23191,1.69626 1.70254,0.5 1.47234,-1.19764 1.60619,-1.15604 1.05093,0.32663 -0.48512,1.29538 -0.23261,1.54789 1.06277,1.06277 1.53096,-0.57335 1.55144,-0.45509 0.20691,1.19517 -1.37829,1.69172 -1.32154,1.77733 0.74371,1.12184 1.87203,-0.59415 2.12506,-0.41422 1.55493,1.10576 -0.62029,1.65369 -0.51398,1.68178 1.19352,0.31539 1.67555,-1.34083 1.81254,-1.33429 1.29092,0.0616 -0.47118,1.26089 0.0219,1.47272 2.56081,1.10009 2.56117,-0.3759 2.78609,-0.58716 1.21269,-1.13908 -1.19076,-0.4177 -1.51369,-0.93592 -0.84192,-1.35109 0.59936,-0.37043 0.8545,-1.57305 0.56699,-2.67251 -0.38133,-1.45821 -0.0178,-2.01801 1.34388,-2.06929 1.73064,-0.0652 1.72092,-0.13289 -0.13337,-0.92971 -1.90836,-0.82005 -1.8969,-0.86265 0.25,-0.92971 2.4209,-0.0756 3.04529,-1.58093 1,-2.41083 -0.97753,-0.39664 -0.95925,-0.71144 0.0839,-1.44417 1.08296,-0.76073 1.03594,-1.05128 -0.25,-1.54474 -0.87112,-0.33428 -1.58385,-1.127 -1.58385,-1.76161 0,-0.82317 0.43679,-0.79133 1.52417,0.11112 1.74544,1.44858 1.97183,1.3113 2.91899,-1.77006 0.41804,-1.36 0.2694,-2.25 -0.37577,-2.25 -0.58707,0 -1.07428,0.5625 -1.0827,1.25 -0.0102,0.83588 -0.34154,0.75305 -1,-0.25 -0.87528,-1.33333 -1.0941,-1.33333 -1.96938,0 -0.84299,1.28415 -0.98689,1.24817 -1,-0.25 -0.0172,-1.9718 -1.97643,-2.4415 -2.0856,-0.5 -0.0386,0.6875 -0.4414,0.35 -0.89499,-0.75 -0.78573,-1.90549 -0.87393,-1.88186 -1.86632,0.5 -0.81832,1.96405 -1.05522,2.09859 -1.10501,0.62756 -0.0501,-1.4788 -0.35419,-1.63111 -1.44661,-0.72448 -1.07435,0.89163 -1.52826,0.76999 -2.03278,-0.54477 -0.49508,-1.29017 -0.92716,-1.41515 -1.81678,-0.52553 -1.75362,1.75362 -3.20888,1.40432 -1.70397,-0.409 1.08413,-1.30629 1.06229,-1.73178 -0.12755,-2.48468 -1.15851,-0.73307 -1.07418,-0.91143 0.43674,-0.92379 1.63207,-0.0133 1.69626,-0.23191 0.5,-1.70254 -1.20186,-1.47752 -1.15493,-1.60572 0.37756,-1.03139 0.9625,0.36072 1.75,0.21997 1.75,-0.31276 0,-0.53274 -0.5625,-0.97551 -1.25,-0.98393 -0.83333,-0.0102 -0.75,-0.33844 0.25,-0.98469 1.2819,-0.82843 1.24555,-0.9716 -0.25,-0.98469 -0.96236,-0.008 -1.74986,-0.46532 -1.74986,-1.01532 0,-0.55 0.7301,-1 1.62244,-1 1.34861,0 1.4064,-0.26033 0.34239,-1.54238 -0.92413,-1.1135 -0.97687,-1.84558 -0.18967,-2.63278 1.47835,-1.47835 4.57349,-0.17578 3.87952,1.63266 -0.39412,1.02706 -0.0651,1.25797 1.14625,0.80434 1.49087,-0.55833 1.52857,-0.42675 0.30763,1.07382 -1.23002,1.51172 -1.18198,1.62975 0.41404,1.01729 1.24237,-0.47674 1.57997,-0.32793 1.08243,0.47711 -0.39769,0.64347 -0.28401,1.16994 0.25262,1.16994 0.53663,0 1.20266,-0.5625 1.48007,-1.25 0.27741,-0.6875 0.53991,-0.37649 0.58333,0.69113 0.0781,1.92151 0.0949,1.92151 1.66059,0 1.35047,-1.65743 1.50121,-1.68536 1.03138,-0.19113 -0.30264,0.9625 -0.11437,1.75 0.41836,1.75 0.53274,0 0.96862,-0.45 0.96862,-1 0,-0.55 0.43588,-1 0.96862,-1 0.53273,0 0.721,0.7875 0.41836,1.75 -0.46983,1.49423 -0.31909,1.4663 1.03138,-0.19113 1.54647,-1.89797 1.58164,-1.89003 1.58164,0.35699 0,1.63193 0.43483,2.13126 1.5,1.72251 0.825,-0.31658 1.5,-0.13972 1.5,0.39301 0,0.53274 0.66088,0.96862 1.46862,0.96862 0.89459,0 1.24363,0.58629 0.89301,1.5 -0.33636,0.87653 -0.0116,1.50636 0.78138,1.51531 1.08655,0.0123 1.07086,0.19637 -0.0787,0.92379 -1.2476,0.78944 -1.2476,1.13951 0,2.67192 1.27046,1.56048 1.24614,1.69251 -0.21128,1.14713 -1.18058,-0.44179 -1.77353,0.0457 -2.09388,1.72147 -0.3471,1.81574 -0.091,2.20471 1.14698,1.74185 1.37978,-0.51588 1.40953,-0.36929 0.22144,1.0913 -1.19602,1.47034 -1.13175,1.69132 0.5,1.71903 1.79994,0.0306 1.79728,0.0887 -0.0687,1.5 -1.92151,1.45336 -1.92151,1.46852 0,1.5 1.92151,0.0315 1.92151,0.0466 0,1.5 -1.92151,1.45336 -1.92151,1.46835 0,1.48351 1.60836,0.0127 1.68482,0.17735 0.446,0.96052 -1.2843,0.81192 -1.2138,1.17379 0.5,2.56632 1.83044,1.4873 1.84072,1.57188 0.12461,1.02462 -1.49701,-0.47738 -1.7653,-0.19416 -1.34362,1.41837 0.34375,1.31447 0.038,2.01486 -0.87948,2.01486 -0.77351,0 -1.40638,0.47656 -1.40638,1.05902 0,0.58246 -0.45,0.7809 -1,0.44098 -0.55,-0.33992 -1.01431,0.19602 -1.0318,1.19098 -0.0297,1.68776 -0.13022,1.67891 -1.5,-0.13211 -1.45336,-1.92151 -1.48389,-1.92151 -3.01998,0 -1.49197,1.86632 -1.52694,1.84478 -0.90741,-0.55887 l 0.64436,-2.5 -1.65052,2.25175 c -0.90778,1.23847 -1.37289,2.70097 -1.03357,3.25 0.33933,0.54904 0.11384,0.99825 -0.50108,0.99825 -0.61492,0 -0.83992,0.45 -0.5,1 0.33992,0.55 0.16803,1 -0.38197,1 -0.55,0 -1.29475,-0.47693 -1.65501,-1.05984 -0.41688,-0.67452 -1.11031,-0.43719 -1.90732,0.65277 -0.68876,0.94194 -1.72859,1.41825 -2.31074,1.05847 -0.66626,-0.41178 -0.86098,0.10092 -0.52553,1.38371 0.47528,1.81748 0.18179,1.97601 -2.71387,1.46587 -2.64292,-0.46562 -3.1372,-0.28641 -2.65756,0.96351 0.89531,2.33314 -0.29469,4.4932 -2.0948,3.80243 -0.97503,-0.37415 -1.3289,-0.19842 -0.92299,0.45836 0.92538,1.49729 -1.84661,2.35832 -3.20835,0.99658 -0.82915,-0.82915 -1.14246,-0.61307 -1.20081,0.82814 -0.0434,1.0725 -0.30592,1.3875 -0.58333,0.7 -0.27741,-0.6875 -1.42199,-1.25 -2.5435,-1.25 -1.54632,0 -1.78167,0.31019 -0.97387,1.28354 0.67529,0.81367 0.72572,1.82036 0.13776,2.75 -0.8097,1.28022 -0.93137,1.27596 -0.95811,-0.0335 -0.018,-0.88288 -0.33289,-1.08859 -0.76531,-0.5 -1.17576,1.60031 -3.23469,1.63194 -3.23469,0.0497 z m 3,-3.54969 c 0,-0.55 -0.19844,-1 -0.44098,-1 -0.24254,0 -0.7191,0.45 -1.05902,1 -0.33992,0.55 -0.14148,1 0.44098,1 0.58246,0 1.05902,-0.45 1.05902,-1 z m 9.41821,-3.60699 c 0.86999,-0.33384 1.58179,-1.25477 1.58179,-2.04651 0,-0.79174 1.32539,-2.20019 2.94532,-3.1299 1.61992,-0.92971 3.15279,-2.48378 3.40638,-3.45349 0.29091,-1.11244 1.41822,-1.76311 3.05468,-1.76311 1.42649,0 2.59362,-0.45 2.59362,-1 0,-0.55 -0.3375,-1.01044 -0.75,-1.0232 -0.4125,-0.0128 -2.50883,-1.60702 -4.65851,-3.5428 -4.17163,-3.75653 -7.2892,-4.16745 -6.79545,-0.89569 1.3467,8.92363 0.97695,10.74071 -3.09532,15.21169 -2.01993,2.21771 -1.3787,2.83113 1.71749,1.64301 z m 17.08179,-13.39301 c 0.33992,-0.55 0.14148,-1 -0.44098,-1 -0.58246,0 -1.05902,0.45 -1.05902,1 0,0.55 0.19844,1 0.44098,1 0.24254,0 0.7191,-0.45 1.05902,-1 z m 8.18321,-1.78305 c 1.6218,-1.03134 1.24176,-13.02476 -0.43321,-13.67152 -0.82078,-0.31692 -1.25,0.49745 -1.25,2.37165 0,1.56987 -0.64996,4.10711 -1.44436,5.63832 -2.07786,4.00508 -0.0474,7.68059 3.12757,5.66155 z m 0.34021,-24.1732 c -1.03416,-1.93233 -5.10899,-3.49694 -12.12939,-4.6573 -2.96474,-0.49002 -3.69222,-0.26618 -4.091,1.25877 -0.91203,3.48759 -0.29428,3.84498 7.15129,4.13737 4.09988,0.161 7.66238,0.50078 7.91667,0.75507 1.2658,1.26579 2.07085,0.22219 1.15243,-1.49391 z m -125.21092,40.27314 c 0.72187,-0.28887 1.58437,-0.25335 1.91667,0.0789 0.33229,0.33229 -0.25834,0.56864 -1.3125,0.52522 -1.16495,-0.048 -1.4019,-0.28494 -0.60417,-0.60416 z m -2.0625,-147.979179 c 0.6875,-0.277412 1.8125,-0.277412 2.5,0 0.6875,0.277413 0.125,0.504386 -1.25,0.504386 -1.375,0 -1.9375,-0.226973 -1.25,-0.504386 z m -6,-2 c 0.6875,-0.277412 1.8125,-0.277412 2.5,0 0.6875,0.277413 0.125,0.504386 -1.25,0.504386 -1.375,0 -1.9375,-0.226973 -1.25,-0.504386 z m 5,-1 c 0.6875,-0.277412 1.8125,-0.277412 2.5,0 0.6875,0.277413 0.125,0.504386 -1.25,0.504386 -1.375,0 -1.9375,-0.226973 -1.25,-0.504386 z m 1.51903,-6.03071 c 0.97297,-0.253543 2.32297,-0.236869 3,0.03705 0.67703,0.273923 -0.11903,0.481368 -1.76903,0.460988 -1.65,-0.02038 -2.20394,-0.244498 -1.23097,-0.498042 z m -9.26903,-8.138297 c 0.825,-0.509732 2.625,-1.227707 4,-1.595498 1.73748,-0.46475 2.04249,-0.386035 1,0.258074 -0.825,0.509732 -2.625,1.227707 -4,1.595498 -1.73748,0.46475 -2.04249,0.386035 -1,-0.258074 z m 15.8125,-3.851826 c 0.72187,-0.288871 1.58437,-0.253344 1.91667,0.07895 0.33229,0.332292 -0.25834,0.568641 -1.3125,0.52522 -1.16495,-0.04798 -1.4019,-0.284941 -0.60417,-0.604167 z m -11.8125,-2.316886 c 0.825,-0.533156 2.175,-0.944637 3,-0.914402 0.98906,0.03625 0.81874,0.34772 -0.5,0.914402 -2.74909,1.181322 -4.32797,1.181322 -2.5,0 z m 5.8125,-1.683114 c 0.72187,-0.288871 1.58437,-0.253344 1.91667,0.07895 0.33229,0.332292 -0.25834,0.568641 -1.3125,0.52522 -1.16495,-0.04798 -1.4019,-0.284941 -0.60417,-0.604167 z m 4.45653,-1.009877 c 0.97297,-0.253543 2.32297,-0.236869 3,0.03705 0.67703,0.273923 -0.11903,0.481368 -1.76903,0.460988 -1.65,-0.02038 -2.20394,-0.244498 -1.23097,-0.498042 z M 75.630143,257.48798 c 0,-0.55 -0.198442,-1 -0.440983,-1 -0.242541,0 -0.719098,0.45 -1.059017,1 -0.339919,0.55 -0.141476,1 0.440983,1 0.582459,0 1.059017,-0.45 1.059017,-1 z m 22.7715,-2.56184 c -0.3352,-0.3352 -1.14849,0.44159 -1.80729,1.72619 -1.145124,2.23286 -1.118302,2.25968 0.60945,0.60946 0.99401,-0.94941 1.53304,-2.00045 1.19784,-2.33565 z M 73.59418,251.17896 c 0.07185,-1.61643 -2.01615,0.51253 -3.552745,3.62243 l -1.574484,3.18659 2.545633,-3 c 1.400098,-1.65 2.561816,-3.36406 2.581596,-3.80902 z m 3.710299,1.65002 c -0.727432,-0.72743 -3.518059,0.80937 -4.066908,2.23964 -0.433559,1.12984 -0.02775,1.08565 1.953889,-0.21277 1.375605,-0.90133 2.326463,-1.81342 2.113019,-2.02687 z m 4.054831,0.0548 c -0.332292,-0.33229 -1.194792,-0.36781 -1.916667,-0.0789 -0.797733,0.31922 -0.560776,0.55618 0.604167,0.60416 1.054166,0.0434 1.644791,-0.19293 1.3125,-0.52522 z m 7.824684,-3.3087 c -0.826194,-1.33678 -4.553851,-1.44878 -4.553851,-0.13679 0,1.43775 3.378965,3.04445 4.362868,2.07454 0.474577,-0.46782 0.560519,-1.33979 0.190983,-1.93772 z m -10.553851,0.4129 c 1.012469,-1.21995 0.96484,-1.5 -0.255111,-1.5 -0.825,0 -2.0602,0.675 -2.744889,1.5 -1.012469,1.21995 -0.96484,1.5 0.255111,1.5 0.825,0 2.0602,-0.675 2.744889,-1.5 z m 5,-0.5 c 0,-0.55 -0.675,-1 -1.5,-1 -0.825,0 -1.5,0.45 -1.5,1 0,0.55 0.675,1 1.5,1 0.825,0 1.5,-0.45 1.5,-1 z m 11.903079,-0.38322 c 0.891731,-1.07447 0.769501,-1.52845 -0.547606,-2.03387 -1.724452,-0.66173 -3.629076,1.16537 -2.730473,2.61934 0.736132,1.19109 1.98944,0.96725 3.278079,-0.58547 z M 71.67534,245.92512 c 3.070418,-1.90854 4.844924,-2.18581 13.250337,-2.0704 5.65388,0.0776 9.880762,-0.28417 10.125856,-0.86674 0.231393,-0.55 0.456242,-0.26064 0.499663,0.64301 0.04342,0.90366 0.755807,1.90275 1.583087,2.2202 1.32055,0.50675 1.50381,-3.53841 1.50149,-33.14301 -0.001,-18.54611 0.21983,-39.3452 0.49172,-46.2202 0.2719,-6.875 0.79851,-20.15 1.170257,-29.5 0.37174,-9.35 0.71111,-40.289208 0.75414,-68.753786 l 0.0782,-51.753777 -3.407017,-1.617653 C 90.00172,11.19665 75.492777,14.63298 66.906459,22.161451 l -3.223684,2.826521 1.07548,11.5 c 0.656029,7.014863 0.844404,22.225327 0.482995,39 -0.768974,35.691748 -0.727908,161.949408 0.05488,168.725698 0.398168,3.44679 0.983285,5.00262 1.718839,4.5704 0.613347,-0.36041 2.710515,-1.64694 4.660373,-2.85895 z m 0.517863,-3.53917 c 0.666607,-1.0786 6.607937,-3.90975 8.154821,-3.88592 0.430166,0.007 -1.176314,1.13162 -3.569955,2.5 -4.849141,2.77211 -5.577687,2.99234 -4.584866,1.38592 z m -1.403932,-2.87535 c 0.425959,-1.27788 8.840872,-6.67679 8.840872,-5.6722 0,0.30442 -2.08301,1.98665 -4.628911,3.73827 -2.545902,1.75163 -4.441284,2.6219 -4.211961,1.93393 z m 1.840872,-5.66121 c 0,-1.2868 4.825592,-5.86915 5.485626,-5.20912 0.271432,0.27143 -0.851794,1.7824 -2.496057,3.3577 -1.644263,1.57531 -2.989569,2.40844 -2.989569,1.85142 z m -1,-4.13072 c 0,-0.99078 5.972548,-5.59147 6.532214,-5.03181 0.206246,0.20625 -1.179129,1.61506 -3.078611,3.13069 -1.899481,1.51563 -3.453603,2.37114 -3.453603,1.90112 z m 0,-5.06917 c 0,-1.52824 4.719442,-6.77162 5.444347,-6.04877 0.33797,0.33702 -0.748748,2.07211 -2.414928,3.85576 -1.666181,1.78365 -3.029419,2.7705 -3.029419,2.19301 z m 0,-7.93047 c 0,-1.3287 3.719391,-4.50059 4.788557,-4.08367 0.497357,0.19394 -0.376605,1.39935 -1.942136,2.67868 -1.565532,1.27933 -2.846421,1.91157 -2.846421,1.40499 z m 0,-6.90175 c 0,-1.27732 3.838331,-4.8243 4.502188,-4.16045 0.269459,0.26946 -0.6333,1.54515 -2.006131,2.83485 -1.372831,1.28971 -2.496057,1.88623 -2.496057,1.3256 z m 1,-7.8293 c 1.291745,-1.375 2.798628,-2.5 3.348628,-2.5 0.55,0 -0.05688,1.125 -1.348628,2.5 -1.291745,1.375 -2.798628,2.5 -3.348628,2.5 -0.55,0 0.05688,-1.125 1.348628,-2.5 z m -1,-4.22257 c 0,-1.25825 2.858364,-3.7524 3.530297,-3.08047 0.26508,0.26508 -0.420794,1.29895 -1.524166,2.29749 -1.103372,0.99854 -2.006131,1.35088 -2.006131,0.78298 z m 0.550695,-8.54894 c 0.268359,-0.69933 1.424392,-1.85635 2.568962,-2.57114 2.06633,-1.29045 2.06796,-1.28168 0.23069,1.24008 -1.954709,2.68296 -3.622747,3.47601 -2.799652,1.33106 z m -1.550695,-4.36708 c 0,-1.2868 4.825592,-5.86915 5.485626,-5.20912 0.271432,0.27143 -0.851794,1.7824 -2.496057,3.3577 -1.644263,1.57531 -2.989569,2.40844 -2.989569,1.85142 z m 0,-6.86141 c 1.291745,-1.375 2.505561,-2.5 2.697367,-2.5 0.191806,0 -0.388389,1.125 -1.289324,2.5 -0.900935,1.375 -2.11475,2.5 -2.697367,2.5 -0.582617,0 -0.0024,-1.125 1.289324,-2.5 z m 0.404988,-7.35449 c 1.047743,-1.18003 2.3118,-2.14551 2.809017,-2.14551 1.407738,0 -0.08897,1.86524 -2.519699,3.14013 -2.179069,1.1429 -2.181078,1.13599 -0.289318,-0.99462 z m -0.382752,-4.83975 c 0.03454,-1.25161 3.781284,-5.83579 4.3243,-5.29082 0.265826,0.26678 -0.603397,1.74765 -1.931608,3.29082 -1.32821,1.54317 -2.404922,2.44317 -2.392692,2 z m -0.02224,-8.95713 c 0,-0.55 1.125,-2.05688 2.5,-3.34863 1.375,-1.29175 2.5,-1.89863 2.5,-1.34863 0,0.55 -1.125,2.05688 -2.5,3.34863 -1.375,1.29175 -2.5,1.89863 -2.5,1.34863 z m 1,-8.84863 c 1.291745,-1.375 2.798628,-2.5 3.348628,-2.5 0.55,0 -0.05688,1.125 -1.348628,2.5 -1.291745,1.375 -2.798628,2.5 -3.348628,2.5 -0.55,0 0.05688,-1.125 1.348628,-2.5 z m -1,-4.15902 c 0,-1.18766 4.810483,-5.86383 5.412724,-5.26159 0.231335,0.23134 -0.891891,1.73311 -2.496057,3.33728 -1.604167,1.60416 -2.916667,2.4701 -2.916667,1.92431 z m 0.538267,-7.58011 c 0.575929,-1.50084 4.477563,-4.15989 4.430308,-3.01934 -0.01728,0.41716 -1.133753,1.56054 -2.481043,2.54086 -1.544039,1.12347 -2.264646,1.30035 -1.949265,0.47848 z m 0.390847,-6.62842 c 0.660943,-1.23498 1.866686,-2.5006 2.679429,-2.81248 2.588857,-0.99343 2.221511,0.10403 -0.876627,2.61897 -2.958026,2.4012 -2.985922,2.40419 -1.802802,0.19351 z m 0.793108,-8.18285 c 1.222222,-1.28617 2.415649,-2.13849 2.65206,-1.89404 0.23641,0.24444 -0.76359,1.29676 -2.222223,2.33849 l -2.652059,1.89405 2.222222,-2.3385 z m -1.722222,-3.83459 c 0,-0.48674 1.2375,-1.67664 2.75,-2.64421 l 2.75,-1.75922 -2.424314,2.64421 c -2.621235,2.85899 -3.075686,3.11893 -3.075686,1.75922 z m 1,-7.78571 c 0,-1.27732 3.838331,-4.8243 4.502188,-4.16045 0.269459,0.26946 -0.6333,1.54515 -2.006131,2.83485 -1.372831,1.28971 -2.496057,1.88623 -2.496057,1.3256 z m -1,-7.13823 c 0,-0.97924 4.942091,-4.622161 5.45498,-4.020978 0.154799,0.18144 -1.009244,1.376628 -2.586764,2.655968 -1.577519,1.27933 -2.868216,1.89359 -2.868216,1.36501 z m 0.722222,-6.241474 c 1.222222,-1.286171 2.415649,-2.138493 2.65206,-1.894048 0.23641,0.244444 -0.76359,1.296766 -2.222223,2.338492 l -2.652059,1.894052 2.222222,-2.338496 z m -1.722222,-6.41442 c 0,-0.255649 1.0125,-1.004323 2.25,-1.66372 2.040222,-1.087124 2.122041,-1.043787 0.877555,0.464816 -1.277825,1.549019 -3.127555,2.258087 -3.127555,1.198904 z m 0.596276,-5.92548 c 0.307099,-0.800286 1.262976,-1.725452 2.124171,-2.055924 2.436421,-0.934942 2.313571,-0.225728 -0.29943,1.728605 -1.794558,1.342198 -2.245206,1.423034 -1.824741,0.327319 z m 2.049557,-7.594613 c 1.180209,-1.238161 2.659457,-2.079994 3.28722,-1.87074 0.627762,0.209254 -0.337863,1.222295 -2.145834,2.251202 l -3.287219,1.87074 2.145833,-2.251202 z m -1.145833,-4.546087 c 1.65,-1.352488 3.372026,-2.461305 3.826725,-2.464037 0.454699,-0.0027 -0.510261,1.120033 -2.144356,2.495033 -1.634094,1.375 -3.356121,2.483817 -3.826725,2.464037 -0.470604,-0.01978 0.494356,-1.142544 2.144356,-2.495033 z M 70.134534,67.48086 c 0.342336,-0.553911 2.056394,-1.715629 3.809017,-2.581596 l 3.186588,-1.574484 -3,2.545633 c -3.059517,2.596136 -5.117421,3.425584 -3.995605,1.610447 z m 0.413361,-5.336554 c 1.431109,-1.782156 5.082244,-4.123893 5.082244,-3.259612 0,0.256899 -1.4625,1.492651 -3.25,2.746114 -2.305921,1.617 -2.838162,1.766164 -1.832244,0.513498 z m -0.421079,-5.650957 c 0.33809,-0.547042 1.602148,-1.512521 2.809017,-2.145509 2.179069,-1.142895 2.181078,-1.135988 0.289318,0.994623 -1.908515,2.149482 -4.253943,3.020699 -3.098335,1.150886 z m 0.503323,-6.005377 c 1.375,-1.075541 3.175,-1.963852 4,-1.974026 0.825,-0.01017 0.02662,0.87982 -1.77417,1.977764 -4.175392,2.545738 -5.482342,2.543543 -2.22583,-0.0037 z m -1,-4.855847 c 0,-0.554381 1.35,-1.969249 3,-3.144153 1.65,-1.174904 2.975102,-1.768046 2.944671,-1.318094 -0.08311,1.22883 -5.944671,5.628693 -5.944671,4.462247 z m -1,-4.045042 c 0,-1.101854 4.81387,-4.654307 5.399425,-3.984569 0.185354,0.212002 -0.953689,1.432184 -2.531209,2.711516 -1.577519,1.279333 -2.868216,1.852206 -2.868216,1.273053 z m 0,-6.017242 c 0,-1.011919 3.890791,-3.537361 4.487706,-2.912889 0.174027,0.182061 -0.764514,1.139528 -2.085647,2.127705 -1.321132,0.988177 -2.402059,1.341509 -2.402059,0.785184 z m 0,-4.912302 c 0,-0.835055 5.969557,-4.553444 6.448952,-4.017 0.170767,0.191088 -1.210388,1.339215 -3.069233,2.551393 -1.858846,1.212177 -3.379719,1.871701 -3.379719,1.465607 z m -1.502361,-4.125603 c 1.969051,-2.21654 7.379019,-5.500639 8.014493,-4.865165 0.179449,0.179449 -1.999869,1.853485 -4.84293,3.720079 -3.821618,2.50906 -4.648428,2.807578 -3.171563,1.145086 z M 91.630143,247.50703 c 0,-1.28829 -4.17368,-2.30313 -7.148287,-1.73811 -1.858363,0.35299 -1.682298,0.47526 0.83927,0.58288 1.755041,0.0749 3.469098,0.58618 3.809017,1.13618 0.793994,1.28471 2.5,1.29771 2.5,0.019 z m 12.501627,-55.02168 c 1.91915,-3.10526 15.49837,-6.60763 15.49837,-3.99737 0,1.52627 2.12915,1.19309 4.16825,-0.65227 1.00415,-0.90874 3.27634,-1.61102 5.04931,-1.56061 3.66033,0.10407 5.59757,-1.17067 6.87161,-4.52165 1.15198,-3.02994 3.51528,-3.85325 7.13683,-2.48627 2.1073,0.79542 3.59621,0.8033 5.29774,0.028 1.69356,-0.77164 3.57993,-0.77036 6.63256,0.004 3.20484,0.81348 4.62496,0.78501 5.70949,-0.11445 0.79398,-0.65849 3.28348,-1.19725 5.53221,-1.19725 4.06119,0 4.08667,-0.0235 3.79903,-3.5 -0.29922,-3.61651 0.24379,-4.22965 6.77331,-7.64799 2.08905,-1.09366 2.85291,-1.04262 4.94888,0.33072 1.72323,1.1291 2.5957,1.27252 2.86299,0.47063 0.21145,-0.63385 1.48779,-1.15286 2.83631,-1.15286 3.63259,0 7.06746,-2.67991 7.7391,-6.0381 0.47023,-2.35114 1.11698,-2.9619 3.13643,-2.9619 2.20229,0 2.46123,-0.33 1.92752,-2.45648 -0.51802,-2.06394 -0.1845,-2.56492 2.08716,-3.13507 2.50409,-0.62848 2.65818,-0.96316 2.08729,-4.53333 -0.99862,-6.24504 3.37068,-9.35908 9.73606,-6.93896 3.03566,1.15415 4.13918,0.25814 2.2846,-1.85501 -1.41995,-1.61792 -2.08803,-4.87977 -3.23174,-15.77879 -0.63825,-6.08227 -0.60135,-6.20994 1.98235,-6.85841 2.75913,-0.6925 3.1904,-1.41221 1.79406,-2.99395 -1.15402,-1.30725 -3.36563,-14.310468 -2.63501,-15.492632 0.32543,-0.526557 1.65981,-0.957376 2.96529,-0.957376 1.43617,0 2.60685,-0.73492 2.96421,-1.860856 0.32483,-1.02347 2.38992,-3.525642 4.58908,-5.560382 2.19916,-2.034739 3.73233,-4.130154 3.40705,-4.656477 -0.32529,-0.526323 1.2454,-3.0437 3.49041,-5.594171 4.78167,-5.432264 4.54694,-7.163955 -0.3303,-2.436746 -1.84688,1.790064 -3.97764,3.148501 -4.73502,3.01875 -0.75738,-0.129752 -2.64923,0.119877 -4.20411,0.554731 -1.66173,0.464737 -3.72274,0.3543 -5,-0.267919 -3.14516,-1.532176 -18.67295,-2.600494 -18.67295,-1.284706 0,0.57732 -1.2375,1.345295 -2.75,1.706611 -1.5125,0.361317 -3.32583,1.11105 -4.02961,1.666075 -0.8689,0.685233 -2.09093,0.639476 -3.80731,-0.142558 -1.39023,-0.633431 -3.57781,-0.888128 -4.86129,-0.565995 -2.61133,0.655402 -3.56139,-0.38821 -4.49093,-4.933159 -0.48767,-2.384427 -1.33149,-3.215753 -3.95383,-3.895268 -3.07568,-0.796992 -3.28606,-1.102785 -2.7168,-3.949068 0.87104,-4.35523 -0.59519,-5.6428 -5.76255,-5.060364 -4.34246,0.489459 -8.62768,-0.91543 -8.62768,-2.828546 0,-0.560824 0.9312,-3.063791 2.06933,-5.562149 2.01508,-4.423356 1.81,-7.670472 -0.25175,-3.986318 -1.77293,3.168048 -9.62856,10.638515 -11.18702,10.638515 -0.81697,0 -2.37288,1.128245 -3.45757,2.507211 -2.59295,3.296395 -7.31614,5.749643 -8.59927,4.466505 -0.53555,-0.535544 -2.76722,-0.973716 -4.95927,-0.973716 -2.70007,0 -4.72258,-0.692405 -6.27067,-2.146764 -1.97991,-1.860027 -3.32419,-2.120305 -10.06445,-1.948673 -5.45092,0.138801 -8.22829,0.655773 -9.27933,1.72723 -1.34374,1.369844 -0.87496,1.475334 4.5,1.012634 3.3,-0.284079 4.875,-0.290356 3.5,-0.01395 -8.70103,1.749103 -10,2.403749 -10,5.039736 0,2.468452 0.20183,2.566053 4.19803,2.030052 2.73165,-0.366391 3.69223,-0.243082 2.75,0.353018 -0.79642,0.50385 -2.46053,0.922982 -3.69803,0.931404 -1.83564,0.01249 -2.25,0.57413 -2.25,3.049756 l 0,3.034443 5.25,-0.51883 5.25,-0.518829 -5.5,1.234387 c -4.36962,0.980691 -5.5,1.636082 -5.5,3.188895 0,1.684639 0.69038,1.948405 5,1.910301 4.70259,-0.04158 4.74445,-0.02063 0.7037,0.352173 -3.4823,0.32128 -4.477,0.871641 -5.25,2.904799 -0.52454,1.379629 -0.9537,2.695514 -0.9537,2.924187 0,0.228674 2.1375,0.195301 4.75,-0.07416 5.32173,-0.548903 4.73561,0.0323 -1,0.991613 -5.27629,0.882485 -4.66725,2.510282 1,2.672762 2.6125,0.0749 3.625,0.31338 2.25,0.529955 -6.3379,0.998276 -6.8918,1.299406 -6.46516,3.514791 0.23007,1.194658 0.99135,2.535768 1.69173,2.980268 0.92815,0.58905 0.79893,0.81234 -0.47657,0.8235 -1.34039,0.0117 -1.75,0.85957 -1.75,3.6223 0,2.646 0.36557,3.4667 1.37215,3.08044 0.75468,-0.2896 3.56718,-0.78199 6.25,-1.09421 4.60523,-0.53595 4.52855,-0.48069 -1.37215,0.98867 -5.70682,1.42109 -6.25328,1.78934 -6.28777,4.23723 -0.0208,1.47448 -0.28361,4.37676 -0.58409,6.4495 l -0.54632,3.76862 5.83409,-0.47325 5.83409,-0.47324 -5.75,1.06814 c -5.13084,0.95312 -5.75,1.32999 -5.75,3.49994 0,2.23585 0.30215,2.3899 3.75,1.91179 l 3.75,-0.52 -3.75,1.07403 c -3.01264,0.86284 -3.75,1.55284 -3.75,3.50913 0,2.33509 0.21562,2.41435 5.25,1.92974 5.17197,-0.49785 5.18661,-0.49166 0.98464,0.41604 -5.78874,1.25047 -6.23464,1.6396 -6.23464,5.44079 0,3.02456 0.23129,3.27153 2.75,2.93638 l 2.75,-0.36592 -2.75,1.08793 c -1.5125,0.59836 -2.75,1.72543 -2.75,2.50459 0,0.84578 1.1082,1.47155 2.75,1.55285 2.70274,0.13384 2.70703,0.14417 0.25,0.60082 -2.68352,0.49874 -3.95937,1.86324 -3.98605,4.263 -0.0131,1.18054 1.2082,1.46433 5.73469,1.33252 5.45577,-0.15886 5.1394,-0.003 -2.49864,1.23249 -2.73531,0.44238 -3.25033,0.95394 -3.2521,3.2303 -0.002,2.68491 0.0473,2.70379 6.75,2.58136 3.71366,-0.0678 4.7271,0.0508 2.2521,0.26372 -7.84206,0.6745 -9,1.17353 -9,3.87866 0,2.01566 0.51575,2.49964 2.75,2.58063 l 2.75,0.0997 -2.5,0.68987 c -1.66777,0.46021 -2.59788,1.50893 -2.79403,3.15032 -0.28656,2.39792 -0.13406,2.45662 6,2.30959 3.46172,-0.083 4.94403,0.0358 3.29403,0.26406 -9.22342,1.27565 -9.5,1.39069 -9.5,3.95117 0,2.68019 -0.23703,2.67336 9.35094,0.26962 2.11802,-0.53099 4.05182,-0.76456 4.29735,-0.51904 0.24552,0.24553 -2.68237,1.21315 -6.50643,2.15028 -5.25428,1.28763 -7.07918,2.18708 -7.47006,3.68181 -0.45373,1.73507 -0.12769,1.91332 2.65548,1.45178 l 3.17272,-0.52615 -3.25,1.10833 c -2.43307,0.82973 -3.25,1.70037 -3.25,3.46366 0,2.38277 2.31283,3.27623 3.50163,1.35271 z m 13.24837,-30.65965 c 0.6875,-0.27741 1.8125,-0.27741 2.5,0 0.6875,0.27741 0.125,0.50439 -1.25,0.50439 -1.375,0 -1.9375,-0.22698 -1.25,-0.50439 z m -10.75,-44.33772 c 1.375,-0.44035 3.85,-0.79225 5.5,-0.78201 l 3,0.0186 -3,0.76337 c -1.65,0.41985 -4.125,0.77176 -5.5,0.78201 l -2.5,0.0186 2.5,-0.80057 z m 1.8125,-15.68311 c 0.72187,-0.28887 1.58437,-0.25335 1.91667,0.0789 0.33229,0.3323 -0.25834,0.56864 -1.3125,0.52522 -1.16495,-0.048 -1.4019,-0.28494 -0.60417,-0.60416 z m -86.171639,18.57665 c 4.503234,-1.03947 5.997963,-0.88178 14.497052,1.52941 6.626274,1.87987 11.234663,2.59645 15.323464,2.38271 5.315581,-0.27786 5.880574,-0.52587 6.21288,-2.72718 0.201051,-1.33183 0.831674,-2.98316 1.401384,-3.66962 0.763879,-0.92042 -0.488458,-0.84525 -4.7699,0.28629 -6.517857,1.7226 -21.75638,1.20902 -25.608041,-0.86306 -3.608543,-1.9413 -14.808818,-1.63274 -18.070128,0.49781 -3.5219641,2.30083 -2.9654541,3.00137 1.150209,1.44788 3.852564,-1.45418 5.425817,-0.24911 2.664063,2.04061 -1.115552,0.92489 -2.683829,2.56231 -3.485059,3.63872 -1.045698,1.40485 -0.452206,1.20061 2.103188,-0.72374 1.957983,-1.47447 5.819383,-3.2024 8.580888,-3.83983 z m 39.885603,-1.70041 c -0.307887,-0.30789 -1.114794,-6.4e-4 -1.793128,0.68278 -0.980267,0.98762 -0.865403,1.10248 0.559795,0.5598 0.986221,-0.37553 1.541221,-0.93469 1.233333,-1.24258 z M 245.26945,62.434499 c -0.29204,-1.460173 -0.0546,-3.131276 0.52772,-3.713561 0.58229,-0.582286 0.73971,-1.574839 0.34984,-2.205675 -0.49087,-0.79424 -1.11338,-0.593778 -2.0242,0.65184 -0.72342,0.989347 -1.10415,2.140485 -0.84606,2.558086 0.25809,0.417601 -0.23181,1.760192 -1.08868,2.983535 -2.47497,3.533514 -2.06151,4.965819 1.02721,3.558502 2.09204,-0.953197 2.48386,-1.684264 2.05417,-3.832727 z M 117.63014,60.987972 c 0,-0.825 -0.17686,-1.5 -0.39301,-1.5 -0.21616,0 -0.65203,0.675 -0.96862,1.5 -0.31658,0.825 -0.13972,1.5 0.39301,1.5 0.53274,0 0.96862,-0.675 0.96862,-1.5 z m -3,-0.5 c 0,-0.55 -0.45,-1 -1,-1 -0.55,0 -1,0.45 -1,1 0,0.55 0.45,1 1,1 0.55,0 1,-0.45 1,-1 z"
     id="path6548"
     inkscape:connector-curvature="0" />
  <path
     style="fill:#d9cb00;fill-opacity:0.11386138;stroke:none"
     d="m 61.121669,25.386277 3.508475,19.29661 -1.169492,85.957633 0.584746,111.10169 2.338983,13.44916 5.847457,8.18644 14.033899,1.75423 15.203393,-8.18644 9.94067,-1.75423 56.72034,2.92373 84.20339,2.33898 36.83898,-0.58475 -5.84746,-14.61864 0,-53.79661 4.67797,-36.83898 2.33898,-18.12712 -3.50847,-51.457635 -4.09322,-56.720339 -1.16949,-3.508475 -24.55932,2.923729 -36.83899,2.923729 -40.34746,-3.508475 -62.56779,-4.677966 -15.78813,4.677966 0,-11.694915 -15.203393,-5.262712 z"
     id="path7082"
     inkscape:connector-curvature="0" />
  <path
     style="fill:#ba00d9;stroke:none;stroke-width:1px;stroke-linecap:butt;stroke-linejoin:miter;stroke-opacity:1;fill-opacity:0.37128714"
     d="m 103.5,61.690678 9.94068,0.292373 10.81779,1.461864 3.50848,3.216102 11.11017,0.877118 9.35593,-7.309322 2.92373,-0.877118 9.94068,-11.694916 2.04661,2.338983 -4.09322,10.233051 2.04661,2.338983 11.11017,-0.292372 1.75423,5.847457 0,3.800848 6.72458,2.338983 0,5.262712 7.89407,1.461864 2.63135,0.292373 9.35594,-4.385593 6.13983,0 11.11017,2.338983 7.89406,0 10.23306,-7.309322 -0.29238,4.385593 -5.84746,7.894068 -8.47881,9.940678 -2.33898,3.508474 -3.50848,0.584746 0.58475,8.771182 2.92373,8.18645 -4.97034,2.63135 -0.29237,8.18644 3.80084,13.15678 0.58475,3.50848 -2.33898,0 -5.84746,-2.63136 -4.38559,2.92373 0,8.47881 -4.09322,2.33899 0,4.67796 -5.26272,0.87712 -1.75423,4.97034 -5.55509,3.2161 -5.84746,1.75424 -4.38559,-1.75424 -7.60169,3.80085 -0.58475,6.4322 -0.58475,2.04661 -7.01694,-1.16949 -4.67797,2.63136 -6.13983,-1.75424 -5.26271,1.16949 -7.6017,-1.16949 -4.38559,5.55508 -5.55509,2.92373 -5.26271,0.58475 -3.80085,2.63135 -2.04661,-2.33898 -4.97033,0 -13.156784,7.6017 0,-47.94916 2.923724,-85.372878 z"
     id="path7086"
     inkscape:connector-curvature="0" />
  <path
     style="fill:#ba00d9;stroke:none;stroke-width:1px;stroke-linecap:butt;stroke-linejoin:miter;stroke-opacity:1;fill-opacity:0.37128714000000002"
     d="m 211.38559,198.52119 3.80085,-4.67797 1.16949,-7.30932 -0.29237,-8.47882 4.38559,2.04661 6.72458,4.3856 2.33898,3.2161 -4.97034,2.33898 -5.26271,5.84746 -4.38559,4.67797 z"
     id="path7088"
     inkscape:connector-curvature="0" />
  <path
     style="fill:#ba00d9;stroke:none;stroke-width:1px;stroke-linecap:butt;stroke-linejoin:miter;stroke-opacity:1;fill-opacity:0.37128714"
     d="m 203.19915,201.44492 2.63136,-0.58475 0.58474,3.50847 -3.2161,0.29238 z"
     id="path7090"
     inkscape:connector-curvature="0" />
  <path
     style="fill:#ba00d9;fill-opacity:0.37128715;stroke:none"
     d="m 235.65254,183.02542 1.75424,2.92373 4.67797,-2.63135 -1.46187,-15.49577 c -3.3763,-0.0908 -3.77452,8.7527 -4.97034,15.20339 z"
     id="path7092"
     inkscape:connector-curvature="0"
     sodipodi:nodetypes="ccccc" />
  <path
     style="fill:#ba00d9;fill-opacity:0.37128715;stroke:none"
     d="m 224.25,153.78814 -0.58475,4.97033 c 3.02065,3.11905 12.5949,2.49238 18.41949,3.50848 l -1.46186,-4.97034 z"
     id="path7094"
     inkscape:connector-curvature="0"
     sodipodi:nodetypes="ccccc" />
  <path
     style="fill:#ba00d9;stroke:none;stroke-width:1px;stroke-linecap:butt;stroke-linejoin:miter;stroke-opacity:1;fill-opacity:0.37128714000000002"
     d="m 239.45339,66.076271 3.80085,-6.432203 0,-3.800848 2.63135,0 0.58475,2.631356 0,2.923729 -0.29237,5.555085 -5.84746,0.584745 z"
     id="path7096"
     inkscape:connector-curvature="0" />
  <path
     style="fill:#00add9;stroke:none;stroke-width:1px;stroke-linecap:butt;stroke-linejoin:miter;stroke-opacity:1;fill-opacity:0.37128714"
     d="m 98.821169,257.3935 4.134781,-182.343659 -0.82696,-48.790368 17.77954,-3.307822 89.72466,6.615643 23.15475,0.413478 49.61733,-3.307822 2.48086,22.741273 5.37521,69.877727 -0.82695,22.3278 -5.78869,32.66474 -0.41348,67.39686 4.96173,18.19302 -57.4734,-0.41348 -73.18555,-2.48086 -48.37689,-0.82696 z"
     id="path7098"
     inkscape:connector-curvature="0" />
</svg>
