<?xml version="1.0" encoding="UTF-8" standalone="no"?>
<!-- Created with Inkscape (http://www.inkscape.org/) -->

<svg
   xmlns:dc="http://purl.org/dc/elements/1.1/"
   xmlns:cc="http://creativecommons.org/ns#"
   xmlns:rdf="http://www.w3.org/1999/02/22-rdf-syntax-ns#"
   xmlns:svg="http://www.w3.org/2000/svg"
   xmlns="http://www.w3.org/2000/svg"
   xmlns:sodipodi="http://sodipodi.sourceforge.net/DTD/sodipodi-0.dtd"
   xmlns:inkscape="http://www.inkscape.org/namespaces/inkscape"
   id="svg10120"
   version="1.1"
   inkscape:version="0.48.4 r9939"
   width="223"
   height="232"
   sodipodi:docname="NeedleandThread.png">
  <metadata
     id="metadata10126">
    <rdf:RDF>
      <cc:Work
         rdf:about="">
        <dc:format>image/svg+xml</dc:format>
        <dc:type
           rdf:resource="http://purl.org/dc/dcmitype/StillImage" />
        <dc:title></dc:title>
      </cc:Work>
    </rdf:RDF>
  </metadata>
  <defs
     id="defs10124" />
  <sodipodi:namedview
     pagecolor="#ffffff"
     bordercolor="#666666"
     borderopacity="1"
     objecttolerance="10"
     gridtolerance="10"
     guidetolerance="10"
     inkscape:pageopacity="0"
     inkscape:pageshadow="2"
     inkscape:window-width="1259"
     inkscape:window-height="737"
     id="namedview10122"
     showgrid="false"
     inkscape:zoom="2.0344828"
     inkscape:cx="117.95721"
     inkscape:cy="121.04992"
     inkscape:window-x="0"
     inkscape:window-y="22"
     inkscape:window-maximized="0"
     inkscape:current-layer="svg10120" />
  <path
     style="fill:#005a15;stroke:#000000;stroke-width:1px;stroke-linecap:butt;stroke-linejoin:miter;stroke-opacity:1;fill-opacity:1"
     d="m 39.199153,44.728813 83.313557,-0.983051 1.59746,7.25 -25.190678,38.338984 3.932208,0.491525 20.64406,-27.894068 -0.6144,30.228814 -1.59746,72.131353 -82.207629,1.72034 z"
     id="path10651"
     inkscape:connector-curvature="0" />
  <path
     style="fill:#a2a2a2;fill-opacity:1;stroke:none"
     d="M 149.6875 10.5625 C 142.54703 10.422779 141.67569 23.60521 137.375 29.5 C 128.22966 49.753085 112.03088 68.816382 99.28125 88.46875 L 103.46875 89.71875 C 116.2895 71.368467 126.22468 53.006533 142.53125 34.65625 C 148.77269 25.945586 157.15273 16.642839 152.125 11.0625 C 151.24154 10.740374 150.42617 10.576954 149.6875 10.5625 z M 149.3125 16.09375 L 148.1875 22.625 L 143.78125 19.53125 L 149.3125 16.09375 z "
     id="path10646" />
  <path
     style="fill:#b48141;fill-opacity:1;stroke:none"
     d="m 32.67073,35.454277 c -3.16949,1.045745 0.678804,6.477606 1.042683,9.731707 30.034683,3.507975 60.936345,-0.786863 91.408537,-1.216464 3.52738,-3.128049 3.23122,-6.256097 1.21646,-9.384146 -33.218777,-2.105827 -62.517737,0.492128 -93.66768,0.868903 z"
     id="path10642"
     inkscape:connector-curvature="0"
     sodipodi:nodetypes="ccccc" />
  <path
     style="fill:#b48141;fill-opacity:1;stroke:none"
     d="m 30.585365,167.35366 c 31.048778,-1.08108 62.097557,-3.23023 93.146335,-1.7378 2.83084,1.56289 4.65572,3.67449 2.43293,7.9939 -1.42198,1.71876 -5.80387,1.66158 -9.38415,2.08536 -27.804876,-2.4284 -48.17137,3.78651 -83.414628,-0.17377 z"
     id="path10132"
     inkscape:connector-curvature="0"
     sodipodi:nodetypes="cccccc" />
  <path
     style="fill:#a2a2a2;stroke:none;stroke-width:1px;stroke-linecap:butt;stroke-linejoin:miter;stroke-opacity:1;fill-opacity:1"
     d="m 65.618644,134.92373 25.313559,-36.618645 5.40678,0.491525 -26.788135,37.35593 z"
     id="path10644"
     inkscape:connector-curvature="0" />
  <path
     style="fill:#000000"
     d="m 159.10565,220.38084 c -1.1537,-1.32664 -0.11013,-3.24044 2.35634,-4.3213 2.39207,-1.04825 2.50843,-1.31198 1.15084,-2.60835 -1.52589,-1.45709 -13.27528,-3.80627 -18.82401,-3.76369 -22.51876,0.1728 -25.27784,-0.0677 -27.28777,-2.37895 -2.56528,-2.9498 -2.35946,-4.47793 1.08199,-8.03331 3.79552,-3.92118 13.09992,-7.71151 21.08531,-8.58952 12.77979,-1.40518 14.39383,-1.96215 19.62844,-6.77333 7.02001,-6.45217 10.76035,-13.14626 11.24722,-20.12921 0.33733,-4.83814 -0.2653,-7.11256 -4.47945,-16.90617 -8.81536,-20.48677 -11.53225,-36.8345 -10.10459,-60.799946 0.84764,-14.228715 0.58965,-32.942205 -0.59483,-43.145863 -0.90821,-7.823841 -2.98947,-14.743636 -4.46538,-14.84654 -1.41177,-0.09843 -3.32001,2.710175 -2.67501,3.937188 1.30368,2.480086 1.21918,24.576362 -0.12604,32.957339 -2.62311,16.34253 -8.98021,30.027525 -17.9563,38.654712 l -5.16361,4.96291 -0.12365,11.20851 c -0.068,6.16469 -0.282,17.6635 -0.47555,25.55293 0.34969,11.03876 -1.27957,18.09628 0.21456,18.64014 1.43918,0.52247 3.30195,1.82214 4.13951,2.88815 1.75283,2.23095 1.22877,6.21711 -0.88812,6.75524 -0.99044,0.25179 -1.20655,-0.13164 -0.69407,-1.23161 0.40931,-0.87848 0.43201,-2.63005 0.0505,-3.89236 -0.69006,-2.28292 -0.77615,-2.29734 -16.16921,-2.70945 -8.51151,-0.22787 -22.90215,-0.024 -31.979214,0.45311 -9.077063,0.47709 -21.762579,0.98642 -28.190035,1.13186 -17.474675,0.39544 -18.222886,0.55355 -17.656773,3.73139 0.258606,1.45168 0.972432,3.01036 1.586278,3.46374 1.529775,1.12988 9.954368,1.65605 18.812195,1.17494 4.05242,-0.22011 12.11676,-0.57591 17.920754,-0.79068 5.803995,-0.21478 15.761069,-0.68867 22.126833,-1.05308 13.002112,-0.74434 28.067082,0.0129 27.969962,1.40582 -0.0955,1.37 -5.1097,1.85252 -9.59127,0.92295 -3.69492,-0.76639 -15.236173,-0.49334 -44.175836,1.04514 -6.640637,0.35302 -16.804588,0.55914 -22.586559,0.45803 -12.078142,-0.21121 -13.664612,-0.97789 -14.203289,-6.86378 l -0.341737,-3.73406 4.756689,-0.85115 4.75669,-0.85116 0.538264,-11.10499 c 0.296047,-6.10775 0.367279,-16.98113 0.158293,-24.16306 -0.208985,-7.18193 -0.332107,-20.49774 -0.273605,-29.59069 0.115718,-17.985745 -0.235431,-33.241377 -1.045193,-45.408269 -0.51272,-7.703749 -0.549552,-7.788732 -3.735718,-8.619475 -3.407544,-0.888463 -5.246887,-3.945402 -4.948547,-8.224351 0.2488,-3.56842 2.022014,-4.169228 12.320182,-4.174382 5.237867,-0.0026 14.953469,-0.248075 21.590225,-0.545452 6.636757,-0.297377 16.139564,-0.725731 21.11735,-0.951896 4.977786,-0.226167 16.269491,-0.209796 25.092671,0.03638 14.54632,0.405855 16.19518,0.623564 17.68338,2.334834 2.28774,2.630678 1.28885,8.722965 -1.62695,9.922808 -1.52676,0.628255 -2.00749,1.455294 -1.63502,2.812915 0.45871,1.671989 0.81744,1.498734 2.74806,-1.327244 1.22127,-1.787642 3.39512,-5.423823 4.83078,-8.080401 1.43565,-2.656578 3.08139,-5.580587 3.65717,-6.497797 0.57578,-0.91721 1.09484,-2.355543 1.15346,-3.196294 0.21496,-3.082982 6.17271,-15.554954 8.42814,-17.643499 6.41076,-5.936393 12.47694,2.277885 7.59915,10.290108 -1.59876,2.626126 -1.58755,3.151764 0.15421,7.228572 3.61892,8.470503 4.61886,24.221726 3.73386,58.816026 -0.7289,28.492777 1.42116,41.180787 10.02994,59.188757 7.34599,15.36649 6.17321,24.02869 -4.92795,36.39796 -5.54093,6.17387 -10.37106,8.44718 -19.02238,8.9529 -12.98272,0.75891 -26.36913,6.76132 -26.0122,11.66375 0.27998,3.8455 4.41088,5.22296 13.58081,4.52857 4.4664,-0.33822 13.18928,-0.0661 19.38418,0.60478 10.2889,1.11417 11.50931,1.45765 14.10464,3.96981 2.96731,2.87224 14.48929,6.41752 27.15222,8.35467 6.77384,1.03625 8.07906,0.58404 9.3242,-3.23052 1.07435,-3.2913 -0.52921,-3.68708 -2.92923,-0.72296 l -1.70751,2.10884 0.15682,-2.24927 c 0.15101,-2.16582 3.83087,-4.27383 5.48169,-3.14018 1.21139,0.83188 0.42435,5.87346 -1.22023,7.8165 -1.26342,1.4927 -2.64342,1.73006 -7.35581,1.26519 -5.04083,-0.49725 -20.45497,-3.9845 -25.11802,-5.68261 -0.98227,-0.35771 -1.82778,0.12704 -2.21296,1.26873 -0.58389,1.73064 -5.30851,3.15292 -6.38014,1.92065 z m 5.7248,-3.37052 c 0.0191,-0.27434 -0.89655,-0.0809 -2.03483,0.42988 -1.13829,0.51076 -2.08526,1.15312 -2.10438,1.42746 -0.0191,0.27433 0.89654,0.0808 2.03482,-0.42988 1.13829,-0.51077 2.08526,-1.15313 2.10439,-1.42746 z M 57.69108,164.9628 c 6.623006,-0.10016 16.983498,-0.50844 23.023313,-0.90726 6.039814,-0.39883 16.428421,-0.59215 23.085787,-0.4296 15.46548,0.37761 16.62098,0.2131 16.80263,-2.39216 0.12317,-1.76657 -0.28804,-2.02655 -2.64029,-1.6693 -8.37906,1.27256 -20.977575,2.23339 -28.46997,2.17128 -16.633466,-0.13789 -43.986878,1.24838 -46.275189,2.34523 -2.100783,1.00695 -0.449895,1.10754 14.473719,0.88181 z m -9.773287,-3.59982 c 4.583887,-0.70339 28.726235,-1.64275 42.010279,-1.6346 10.857918,0.007 28.921568,-2.06682 30.460818,-3.49652 1.29491,-1.20275 -2.19916,-1.14987 -16.99776,0.25727 -8.548222,0.8128 -27.763979,1.9032 -41.262784,2.34145 -14.909913,0.48406 -19.616852,0.99698 -19.696992,2.14639 -0.08028,1.15137 0.3166,1.17929 5.486471,0.38554 z m 18.879031,-4.79212 c 9.680029,-0.45412 21.273096,-0.99774 25.762373,-1.20806 7.959413,-0.37291 23.318683,-1.92211 26.887793,-2.71204 0.97996,-0.21689 1.82658,-1.03745 1.88139,-1.82348 0.0548,-0.78602 -0.0129,-1.43211 -0.15051,-1.43574 -0.13758,-0.004 -2.48896,0.50568 -5.22529,1.13179 -7.09682,1.62382 -20.456053,2.8194 -34.413637,3.07981 -25.559541,0.47689 -39.704319,1.5551 -39.80746,3.0344 -0.07427,1.06517 0.821275,1.3285 3.683584,1.08314 2.079938,-0.17828 11.701728,-0.6957 21.381757,-1.14982 z m -9.239844,-4.06207 c 5.540917,-0.39535 15.944327,-0.80101 23.118689,-0.90146 14.815554,-0.20747 28.870811,-1.47751 34.536751,-3.12078 4.47335,-1.29738 3.47775,-1.70187 -1.69232,-0.68755 -6.54492,1.28406 -24.567797,2.27637 -40.251631,2.21619 -18.280267,-0.0701 -31.12729,0.74628 -31.213559,1.98358 -0.08521,1.22206 3.752624,1.34833 15.50207,0.51002 z m 5.307548,-4.23693 c 35.527689,-0.35897 53.639672,-1.80024 57.589912,-4.58272 1.8644,-1.31328 1.83406,-1.36289 -0.56845,-0.9291 -6.52769,1.17859 -30.978516,2.64463 -52.773676,3.16423 -17.962629,0.42824 -24.163314,0.91083 -24.576769,1.91279 -0.434283,1.05244 0.288509,1.25704 3.367635,0.95331 2.15633,-0.2127 9.788937,-0.44603 16.961348,-0.51851 z m -9.985288,-4.15354 c 3.728758,-0.1039 6.811117,-0.64153 6.849689,-1.19476 0.04161,-0.59679 -1.467117,-0.88429 -3.709816,-0.70691 -2.07897,0.16441 -5.932311,0.43771 -8.562979,0.60732 -2.630668,0.16961 -4.812887,0.73657 -4.849376,1.25991 -0.03649,0.52335 0.734492,0.78769 1.713291,0.58743 0.978799,-0.20025 4.830435,-0.4491 8.559191,-0.55299 z m 24.33266,-0.34119 c 12.008285,-0.0797 36.76687,-1.85301 40.55021,-2.90435 4.04132,-1.12302 4.5275,-2.81868 0.66226,-2.30976 -6.61013,0.87034 -9.54309,1.01336 -21.877179,1.06675 -24.276909,0.10511 -32.083764,0.8933 -33.230745,3.35502 -0.51019,1.09501 0.05693,1.33884 2.610258,1.12227 1.794134,-0.15217 6.872472,-0.30064 11.285196,-0.32993 z m -25.109536,-3.25425 c 7.460108,-0.53263 12.848532,-2.19941 9.860454,-3.0501 -2.327479,-0.66263 -18.130142,2.17204 -19.537967,3.5047 -0.898082,0.85012 -0.716485,0.99043 0.753525,0.58216 1.065221,-0.29584 5.081016,-0.76239 8.923988,-1.03676 z m 3.087825,-4.38905 c 7.795471,-0.96084 12.882697,-2.48489 9.16074,-2.74439 -2.322297,-0.16192 -21.380907,3.33099 -22.140362,4.05771 -0.379945,0.36356 0.451277,0.45515 1.847156,0.20357 1.395883,-0.25163 6.405491,-0.93421 11.132463,-1.51684 z m 36.068208,1.68112 c 10.153893,-0.1163 20.911733,-0.5026 23.906313,-0.85845 2.99457,-0.35585 5.60786,-0.63562 5.8073,-0.62172 0.19945,0.0139 0.39064,-0.37635 0.42486,-0.86724 0.0362,-0.51859 -1.53009,-0.64292 -3.73841,-0.29673 -2.09036,0.32768 -11.4666,0.55817 -20.83609,0.51221 -22.478766,-0.11029 -24.954614,0.0426 -27.298286,1.68503 -1.885156,1.32115 -1.852298,1.37355 0.643002,1.02533 1.446324,-0.20183 10.937413,-0.46212 21.09131,-0.57842 z m -33.957551,-5.51151 c 5.21616,-0.96338 9.624029,-1.74182 9.795266,-1.72988 0.657726,0.0459 5.062352,-6.94033 4.664296,-7.39804 -0.230952,-0.26558 -5.127632,0.15187 -10.88151,0.92765 -17.637254,2.37799 -19.074801,2.7382 -19.219661,4.81586 -0.07197,1.0322 0.09866,1.89273 0.379169,1.91229 0.28051,0.0196 5.803053,-1.17422 12.272318,-2.65284 6.469265,-1.47862 12.185136,-2.65891 12.701937,-2.62288 2.135559,0.1489 0.594138,2.05491 -1.983477,2.45263 -7.882601,1.21626 -22.656891,5.06112 -22.716193,5.91166 -0.07495,1.075 1.102789,0.94798 14.987855,-1.61645 z m 20.204076,-8.52236 c 4.646165,-6.04615 14.322093,-19.50353 16.987009,-23.62571 0.255792,-0.395663 -0.172237,-0.763826 -0.951177,-0.818136 -0.778939,-0.05431 -3.039854,2.494946 -5.024253,5.665026 -1.984399,3.17006 -5.190579,7.57022 -7.124844,9.77812 -4.659592,5.31876 -16.128983,23.17515 -12.479062,19.42832 1.508752,-1.54881 5.375299,-6.24124 8.592327,-10.42762 z m 14.93055,10.12308 c 0.835553,-0.12263 -2.519574,-0.52518 -7.455837,-0.89455 -4.93626,-0.36943 -9.850442,-0.39666 -10.920397,-0.0606 -1.814164,0.56974 15.035095,1.44556 18.376234,0.95519 z m 13.803598,-0.29003 c -0.94267,-0.31785 -2.51386,-0.4274 -3.49152,-0.24344 -0.97766,0.18398 -0.20638,0.44406 1.71395,0.57795 1.92034,0.13389 2.72025,-0.0166 1.77757,-0.33451 z m 14.48229,-0.88918 c 0.49484,-0.26012 0.94262,-1.08847 0.99508,-1.8408 0.10303,-1.47772 -1.69786,-1.23218 -9.61446,1.31085 l -4.10157,1.31754 5.91062,-0.15732 c 3.25084,-0.0865 6.31549,-0.37016 6.81033,-0.63027 z m -7.48196,-2.85736 c 3.35863,-0.9412 6.60215,-2.17277 7.20781,-2.7368 0.67783,-0.63123 0.16391,-0.62222 -1.3367,0.0234 -1.34086,0.57691 -8.58905,1.0174 -16.10709,0.97888 -19.708558,-0.101 -26.163564,0.21376 -26.954616,1.31439 -0.468346,0.65164 4.536748,1.16279 15.192778,1.55158 12.734828,0.46464 17.104138,0.2399 21.997818,-1.13148 z m -52.852122,-7.39715 c 8.862537,-1.20891 14.13012,-2.39056 14.535533,-3.26069 0.349711,-0.75057 0.501368,-1.5193 0.337016,-1.70828 -0.647466,-0.74453 -14.813252,0.8485 -23.718038,2.66723 -6.449514,1.31727 -9.438767,2.38533 -9.509352,3.39769 -0.07061,1.0127 0.612933,1.37025 2.176099,1.13827 1.253474,-0.18601 8.533908,-1.19142 16.178742,-2.23422 z m 43.156202,3.73534 c 13.8161,0.0959 17.54737,-0.7265 17.76978,-3.91646 0.0752,-1.07803 0.0241,-1.96302 -0.11348,-1.96665 -0.13759,-0.004 -2.33499,0.4708 -4.88313,1.05428 -2.54813,0.58348 -11.38366,1.14603 -19.634497,1.25011 -8.250838,0.10408 -15.593926,0.59853 -16.317973,1.09877 -2.836011,1.95937 -1.361959,2.85263 4.328058,2.62276 3.179133,-0.12844 11.66219,-0.19269 18.851242,-0.14281 z m -55.488372,-7.66019 c -0.583214,-0.67064 -6.706483,0.45105 -6.761392,1.23858 -0.02989,0.42873 1.550066,0.40694 3.511019,-0.0484 1.960953,-0.45537 3.423621,-0.99094 3.250373,-1.19015 z m 10.475637,-1.56909 c 4.187097,-0.747 6.492507,-1.46337 5.123134,-1.59195 -2.333638,-0.21914 -15.881286,2.57471 -13.730191,2.83146 0.546783,0.0653 4.419961,-0.49252 8.607057,-1.23951 z m 49.676395,3.38188 c 8.6999,-0.51218 13.39861,-2.26397 13.59413,-5.06824 0.1291,-1.85166 -0.0652,-1.90799 -2.70207,-0.78321 -2.73128,1.16507 -16.78156,2.71491 -28.719921,3.16802 -3.297407,0.12515 -6.300608,0.83632 -7.109672,1.68358 -1.259287,1.31876 -0.441342,1.46515 8.098821,1.44939 5.224769,-0.01 12.802192,-0.21194 16.838712,-0.44957 z m -59.118358,-4.54505 c 3.946608,-1.0025 3.983015,-1.04778 1.097628,-1.36542 -1.641406,-0.18071 -3.589108,-0.77315 -4.328226,-1.31657 -1.892051,-1.39108 -4.066108,-0.49491 -4.221956,1.74035 -0.153742,2.20505 1.604287,2.42719 7.452554,0.94164 z m 22.358612,-4.37739 c 3.359127,-0.73312 7.217107,-1.38283 8.573288,-1.4438 1.356182,-0.061 2.69664,-0.67031 2.978795,-1.35408 0.364301,-0.88284 -0.32896,-1.1591 -2.391607,-0.95305 -1.597538,0.15959 -9.374516,0.9175 -17.282172,1.68424 -7.907656,0.76674 -14.405227,1.7636 -14.439048,2.21525 -0.103083,1.37638 16.061226,1.26995 22.560744,-0.14856 z m -28.497259,-1.03166 c 0.01687,-0.24195 -0.398894,-0.74865 -0.923919,-1.126 -0.525025,-0.37736 -0.987738,-0.2107 -1.02825,0.37035 -0.04051,0.58105 0.375251,1.08776 0.923919,1.12601 0.548668,0.0383 1.011381,-0.1284 1.02825,-0.37036 z m 37.475564,2.01235 c 0.468045,-0.65122 -0.275445,-0.827 -2.160684,-0.51085 -3.886153,0.6517 -4.281227,1.1043 -1.154241,1.32233 1.430734,0.0998 2.922451,-0.26542 3.314925,-0.81148 z m 23.024971,0.0866 c 9.54078,-1.01639 18.85166,-4.39964 19.02695,-6.91371 0.0638,-0.91456 -0.55965,-1.3097 -1.68,-1.06484 -0.97977,0.21413 -7.50715,1.6386 -14.5053,3.1655 -6.998154,1.52689 -13.500986,2.51453 -14.450742,2.19474 -1.017919,-0.34273 -2.183658,0.14561 -2.839614,1.18954 -2.127308,3.38553 -3.056497,3.29364 14.448706,1.42877 z m -44.297026,-4.46065 c 16.117514,-1.54676 26.659329,-3.28114 27.617607,-4.54374 1.394319,-1.83713 1.03376,-2.79887 -0.832292,-2.22003 -4.330477,1.3433 -25.677042,4.67172 -31.16344,4.85909 -8.325435,0.28434 -10.571815,0.66441 -10.651141,1.80215 -0.09493,1.36159 1.776578,1.37437 15.029266,0.10253 z m 59.354906,4.61458 c 1.95814,-0.66235 3.59571,-1.71269 3.63904,-2.3341 0.0469,-0.67278 -1.28786,-0.43167 -3.29945,0.59602 -1.85802,0.94924 -4.06867,1.92401 -4.91256,2.16617 -0.99241,0.28479 -1.08454,0.49961 -0.26082,0.60823 0.70044,0.0923 2.87564,-0.37398 4.83379,-1.03632 z m -53.972885,-9.40358 c 5.303761,-0.66388 12.378573,-1.85258 15.721805,-2.64155 6.046195,-1.426841 6.06163,-1.439679 2.895127,-2.407164 -2.269598,-0.693449 -3.628988,-0.585238 -4.735415,0.376956 -1.581319,1.375184 -19.484056,3.823298 -30.824167,4.215048 -3.897722,0.13466 -5.791949,0.56161 -5.01035,1.12931 1.566162,1.13756 9.412001,0.89718 21.953,-0.6726 z m 45.363715,1.85799 c 6.11088,-1.30314 11.33103,-2.90331 11.60033,-3.55593 0.3638,-0.88163 -0.77371,-0.89532 -4.426,-0.0533 -6.02141,1.38824 -18.154437,3.81451 -21.933078,4.38602 -1.532331,0.23176 -2.819247,0.89741 -2.859812,1.47922 -0.08952,1.2839 2.684215,0.92874 17.61856,-2.25602 z M 59.215766,99.962894 c 6.660067,-0.631706 13.484922,-1.470282 15.166343,-1.863485 2.874376,-0.672184 2.908372,-0.73005 0.568701,-0.967939 -1.368638,-0.139131 -7.713079,0.278911 -14.098763,0.929047 -6.385685,0.650135 -13.043007,1.085157 -14.794051,0.966728 -1.751045,-0.118429 -3.492457,0.214235 -3.869808,0.73926 -1.02548,1.426795 3.504638,1.479055 17.027578,0.196389 z m 45.455124,2.227926 6.61778,-1.46292 -6.52883,-0.53179 c -6.037648,-0.491848 -8.993623,0.31408 -9.145575,2.49346 -0.08426,1.20857 1.803507,1.10461 9.056625,-0.49875 z m 31.17585,-10.380324 c 6.97201,-11.936802 8.34867,-17.215745 9.64591,-36.98787 0.66581,-10.147467 0.7646,-18.293898 0.23556,-19.415923 -0.81758,-1.733977 -1.36218,-1.408439 -5.28683,3.16019 -2.40645,2.801314 -6.77898,8.694357 -9.71672,13.095651 l -5.34135,8.002353 -0.72691,19.642526 c -0.39982,10.803389 -0.52936,20.928457 -0.28789,22.500157 l 0.43902,2.85763 3.47635,-2.92909 c 1.91199,-1.61099 5.31528,-6.077525 7.56286,-9.925624 z m -79.189073,4.717023 7.858056,-0.692664 -4.950169,-0.888802 c -2.722593,-0.488841 -5.817933,-0.552254 -6.878534,-0.140919 -1.060601,0.411335 -4.030545,0.954101 -6.599876,1.206144 -4.5845,0.44974 -4.602743,0.465258 -0.979522,0.833589 2.030592,0.206436 7.228113,0.06362 11.550045,-0.317348 z m -7.525226,-2.906396 c 0.01479,-0.212061 -1.570797,-0.49696 -3.523515,-0.633108 -1.952719,-0.136149 -3.345295,0.142638 -3.094613,0.619527 0.431143,0.820194 6.561012,0.832773 6.618128,0.01358 z m 67.087549,4.671611 c 4.74838,-0.195061 5.80374,-0.570696 5.91063,-2.103764 0.15065,-2.160653 -0.65113,-2.29795 -8.03724,-1.376294 -8.90175,1.110789 -43.442345,-1.824003 -58.930947,-5.007145 -12.712728,-2.612657 -13.596261,-2.683755 -13.706479,-1.10296 -0.103853,1.48952 2.381844,2.036189 20.979886,4.614021 24.227057,3.358057 45.42675,5.319469 53.78414,4.976151 z m -0.95694,-5.500424 c 3.00628,-0.315463 5.70791,-0.783985 6.00363,-1.041158 1.5069,-1.310465 -1.53925,-1.680642 -11.35073,-1.379373 -20.426985,0.627225 -54.490414,-3.069653 -65.956035,-7.15816 -1.74302,-0.621541 -2.239234,-0.472553 -1.965463,0.590129 1.097708,4.260906 55.140437,10.890847 73.268598,8.988562 z M 98.092547,87.107593 c 0.870216,-1.031101 1.504317,-1.964298 1.409115,-2.073772 -0.350058,-0.40253 -18.872696,2.075103 -19.483333,2.606138 -0.347388,0.302105 3.2212,0.727724 7.930195,0.945822 7.241638,0.335397 8.805777,0.10747 10.144023,-1.478188 z m -22.488561,-1.01238 c 2.02081,-0.389697 8.677774,-1.304577 14.793254,-2.033067 6.11548,-0.728491 11.57503,-1.718083 12.13234,-2.199095 1.35395,-1.168594 0.33776,-1.193142 -13.960356,-0.337237 -13.725118,0.821604 -35.976598,-0.398375 -42.191285,-2.313217 -3.259406,-1.004273 -4.190385,-1.003013 -4.26072,0.0058 -0.105823,1.517773 6.241336,3.635328 16.653884,5.556108 10.576987,1.951116 12.700171,2.117705 16.832883,1.320742 z M 111.485,76.346001 c 4.61874,-6.937839 9.16305,-13.722129 10.09845,-15.076201 0.93541,-1.354072 3.6717,-5.482176 6.08064,-9.173564 5.22387,-8.004897 10.05812,-14.412335 13.29242,-17.61813 2.61616,-2.593098 7.61065,-9.493641 6.90684,-9.542712 -0.24617,-0.01716 -1.77279,1.696853 -3.39249,3.808925 -3.18473,4.152865 -4.853,4.092282 -4.66042,-0.169239 0.0834,-1.844025 -0.43492,-1.078636 -1.64919,2.435659 -2.00931,5.815284 -6.32468,13.38866 -10.95693,19.229197 -1.73211,2.183911 -3.17121,4.285161 -3.198,4.669445 -0.0268,0.384285 -1.6829,2.66855 -3.68024,5.076144 -1.99733,2.407595 -6.79571,9.228147 -10.66306,15.156781 -3.86736,5.928634 -7.46092,11.00504 -7.98572,11.2809 -1.39523,0.733419 -1.28732,2.366159 0.16247,2.458011 0.68614,0.04343 5.02649,-5.597376 9.64523,-12.535216 z m 5.10044,9.516474 c 5.69303,-0.842089 7.80534,-3.133423 2.22798,-2.416812 -6.60227,0.848297 -10.96702,1.955045 -11.02564,2.795715 -0.0631,0.904978 0.19217,0.893984 8.79766,-0.378903 z m 3.86932,1.714083 c -0.30838,-0.354599 -1.16632,-0.45003 -1.90653,-0.21207 -0.81801,0.262967 -0.59811,0.515831 0.56068,0.644726 1.04859,0.116636 1.65423,-0.07806 1.34585,-0.432656 z M 91.21784,79.481335 c 6.917538,-0.370725 12.92849,-0.858096 13.35768,-1.083047 1.50011,-0.786258 0.91174,-2.495473 -0.69036,-2.005502 -1.54274,0.471818 -20.142493,0.415741 -47.840024,-0.144237 -7.05397,-0.142614 -12.645231,-0.05212 -12.425021,0.201097 0.220209,0.253218 3.91064,1.102567 8.200958,1.887442 9.257067,1.693498 22.156948,2.068164 39.396767,1.144247 z m 28.16599,2.188597 c 1.5324,-0.232836 2.82827,-1.026868 2.8797,-1.764515 0.0749,-1.073646 -0.96377,-1.224209 -5.2068,-0.754799 -4.77601,0.528376 -6.81735,1.539299 -6.99592,3.464546 -0.0336,0.366718 1.42287,0.39927 3.2375,0.07241 1.81463,-0.326865 4.55311,-0.784803 6.08552,-1.017642 z m -45.402547,-8.818263 5.273876,-1.512086 -10.01705,-0.103655 c -5.509377,-0.05701 -11.148899,-0.04458 -12.532271,0.02761 -1.383372,0.0722 -4.762408,0.01258 -7.50897,-0.132491 -5.183903,-0.273804 -8.211679,0.626045 -7.386767,2.195333 0.825748,1.570877 26.350174,1.194243 32.171182,-0.474711 z M 93.94511,71.854408 c 15.5823,-3.529212 19.18232,-4.687635 19.28822,-6.206623 0.0347,-0.497746 -7.86219,1.159625 -17.548665,3.683045 -22.213769,5.786903 -21.123358,5.454041 -18.692145,5.706023 1.094759,0.11347 8.723425,-1.318634 16.95259,-3.182445 z m 26.25497,5.297011 c 1.23503,0.07859 2.2809,-0.364773 2.32416,-0.985229 0.0998,-1.431905 -6.8286,-0.906981 -8.47891,0.642394 -0.87711,0.823464 -0.53786,0.98343 1.37202,0.646958 1.39548,-0.24585 3.54771,-0.382704 4.78273,-0.304123 z m -18.31053,-3.418791 c 6.40789,-1.688791 9.73341,-3.27868 6.95199,-3.323664 -0.79854,-0.01291 -5.35581,0.975385 -10.127282,2.196221 -5.750844,1.471419 -7.754388,2.319299 -5.943314,2.51515 1.502647,0.162498 5.606018,-0.461971 9.118606,-1.387707 z M 62.869353,69.127246 c 9.095946,0.01556 18.794342,0.01688 21.55199,0.0029 2.757649,-0.01395 7.547313,-0.776877 10.643698,-1.695397 3.113004,-0.92345 4.27664,-1.544523 2.602934,-1.389275 -11.652804,1.080882 -19.503108,1.206745 -36.745973,0.589143 -17.746551,-0.635642 -19.583807,-0.538838 -19.290874,1.016427 0.203619,1.081075 1.135794,1.668677 2.511955,1.583428 1.203502,-0.07455 9.630323,-0.122821 18.72627,-0.107259 z m 59.814217,3.555616 c 0.24327,-0.194302 0.15972,-0.678224 -0.18567,-1.075386 -0.34539,-0.397161 -2.13513,-0.0678 -3.97721,0.731913 l -3.34922,1.454023 3.53489,-0.378637 c 1.9442,-0.208251 3.73394,-0.537611 3.97721,-0.731913 z M 49.223311,63.563113 c 0.01511,-0.216705 -1.768169,-0.519206 -3.962841,-0.672224 -2.194672,-0.153019 -4.014614,0.07033 -4.044316,0.49633 -0.0297,0.426 1.753577,0.7285 3.962841,0.672223 2.209265,-0.05628 4.029207,-0.279625 4.044316,-0.496329 z m 72.749519,5.717952 c 0.8427,-0.45416 1.24908,-1.151284 0.90307,-1.549166 -0.84924,-0.976526 -3.77236,-0.01357 -3.86201,1.272244 -0.0883,1.267029 0.94273,1.363526 2.95894,0.276922 z M 64.943753,64.535452 c -2.042499,-0.358678 -5.409325,-0.593422 -7.481836,-0.521654 -2.072511,0.07177 -0.401375,0.365229 3.713635,0.652139 4.11501,0.28691 5.8107,0.228191 3.768201,-0.130485 z m 19.786619,0.162466 4.04786,-0.547152 -3.487533,-0.30067 c -1.918144,-0.165364 -5.309071,-0.05445 -7.535393,0.246484 l -4.04786,0.547152 3.487533,0.300669 c 1.918144,0.165365 5.309071,0.05445 7.535393,-0.246483 z m -6.835674,-2.60058 c 15.620772,-0.597711 33.915422,-1.569957 36.902242,-1.961121 1.48923,-0.195035 3.49375,-1.389374 4.45449,-2.654086 1.73743,-2.287136 1.73164,-2.294877 -1.07876,-1.442355 -1.55405,0.471417 -10.08183,1.413555 -18.950615,2.093638 -14.667783,1.124768 -21.655888,1.425517 -46.250456,1.99049 l -8.032286,0.184513 5.948818,0.942987 c 7.22785,1.145734 13.795307,1.35145 27.006567,0.845934 z m 27.438722,1.836406 c 2.47622,0.06874 5.8925,-0.405842 7.59174,-1.054622 2.6382,-1.00728 2.71984,-1.128161 0.55891,-0.827483 -1.39184,0.193663 -7.05626,0.563074 -12.58759,0.820913 -5.531325,0.25784 -10.432436,0.757553 -10.891354,1.110475 -0.458918,0.352922 1.789211,0.458091 4.995844,0.233709 3.206631,-0.224382 7.85623,-0.351727 10.33245,-0.282992 z M 55.120469,58.058376 c 31.745144,-0.363144 64.502771,-2.789024 67.460861,-4.99584 1.54748,-1.15447 -0.73431,-1.080414 -16.08066,0.521891 -12.034447,1.256513 -23.384329,1.810339 -60.546712,2.95442 -2.900736,0.0893 -5.305864,0.618434 -5.344728,1.175848 -0.04217,0.604848 1.453285,0.894646 3.70899,0.718749 2.07881,-0.162104 6.939822,-0.330883 10.802249,-0.375068 z M 73.965155,53.75885 c 19.405876,-0.703061 46.984245,-2.963789 48.111295,-3.943905 1.45808,-1.268019 -0.56084,-1.405147 -9.69814,-0.658707 -17.274808,1.411205 -38.497375,2.664544 -55.109832,3.254615 -8.981441,0.31902 -16.352725,0.907528 -16.380633,1.307797 -0.06281,0.900857 9.016941,0.911891 33.07731,0.0402 z M 59.6656,50.379094 c 31.186071,-1.278976 60.34944,-3.456918 61.67028,-4.605583 0.85093,-0.739999 -14.36536,-0.633439 -25.274111,0.176996 -21.283215,1.581176 -42.546839,2.456349 -49.008988,2.017122 -5.31584,-0.361313 -6.75645,-0.142523 -6.838803,1.038631 -0.131507,1.886139 2.465743,2.069445 19.451622,1.372834 z m 12.892297,-5.191293 c 10.795705,-0.640659 24.611104,-1.459313 30.700883,-1.819232 6.08978,-0.359919 13.34039,-0.511604 16.11247,-0.337077 5.53298,0.348354 7.51846,-0.722537 7.7599,-4.185362 0.22108,-3.170887 -2.68276,-3.896509 -16.07367,-4.016546 -13.469581,-0.120742 -40.807435,0.466783 -49.881256,1.072011 -3.600423,0.24015 -11.612457,0.39819 -17.80452,0.3512 l -11.258297,-0.08544 0.386732,2.655521 c 0.678909,4.661781 0.889721,5.032821 3.207424,5.645205 5.800885,1.532713 18.854474,1.78766 36.850334,0.71972 z M 152.80789,15.633035 c 0.32277,-4.629268 -3.09727,-5.8892661 -6.53967,-2.409326 -3.03339,3.066477 -3.4489,5.343468 -0.56104,3.074503 3.16654,-2.487917 5.50138,-0.896557 4.47551,3.05037 -0.77283,2.973329 -0.72066,3.063038 0.78598,1.351411 0.88758,-1.008328 1.71522,-3.288459 1.83922,-5.066958 z m -4.87696,3.711732 c 1.1066,-2.375063 0.92605,-2.711663 -0.79221,-1.47689 -1.75431,1.260684 -2.19406,2.854307 -0.81418,2.950516 0.48997,0.03416 1.21285,-0.628969 1.60639,-1.473626 z"
     id="path10130"
     inkscape:connector-curvature="0"
     sodipodi:nodetypes="cssssssssssssssscsccscccsssssssscsssscccssssssssssssssssssssssssssssssscsssssscccccccssssssssccssssccsssccsssssssssssssssssssssssssssssssssssssscssccccsscsscsccsccsscsssssssssssscccccccsccsscsccscsssccsscsssssccssssscscccsscscsssscccsssssscssscsscscssscsscsssssssssssscsscsssssssscssssccsscsssssccssssssscsscssscssssscssccsssssccssssssssssscssssssccsssscscsscssscssssssssssssssssscscssscssssssssssscssssssssccsssssccssscssssssssccsssssscsscsssssssscssssssssssssssssssssssssssssssssssscsssssssssssss" />
</svg>
