<?xml version="1.0" encoding="UTF-8" standalone="no"?>
<!-- Created with Inkscape (http://www.inkscape.org/) -->

<svg
   xmlns:dc="http://purl.org/dc/elements/1.1/"
   xmlns:cc="http://creativecommons.org/ns#"
   xmlns:rdf="http://www.w3.org/1999/02/22-rdf-syntax-ns#"
   xmlns:svg="http://www.w3.org/2000/svg"
   xmlns="http://www.w3.org/2000/svg"
   xmlns:sodipodi="http://sodipodi.sourceforge.net/DTD/sodipodi-0.dtd"
   xmlns:inkscape="http://www.inkscape.org/namespaces/inkscape"
   id="svg5289"
   version="1.1"
   inkscape:version="0.48.4 r9939"
   width="119"
   height="326"
   sodipodi:docname="Pepper.png">
  <metadata
     id="metadata5295">
    <rdf:RDF>
      <cc:Work
         rdf:about="">
        <dc:format>image/svg+xml</dc:format>
        <dc:type
           rdf:resource="http://purl.org/dc/dcmitype/StillImage" />
        <dc:title></dc:title>
      </cc:Work>
    </rdf:RDF>
  </metadata>
  <defs
     id="defs5293" />
  <sodipodi:namedview
     pagecolor="#ffffff"
     bordercolor="#666666"
     borderopacity="1"
     objecttolerance="10"
     gridtolerance="10"
     guidetolerance="10"
     inkscape:pageopacity="0"
     inkscape:pageshadow="2"
     inkscape:window-width="1286"
     inkscape:window-height="731"
     id="namedview5291"
     showgrid="false"
     inkscape:zoom="1.0237865"
     inkscape:cx="76.837599"
     inkscape:cy="189.32861"
     inkscape:window-x="0"
     inkscape:window-y="22"
     inkscape:window-maximized="0"
     inkscape:current-layer="svg5289" />
  <path
     style="fill:#ff0003;stroke:none;stroke-width:1px;stroke-linecap:butt;stroke-linejoin:miter;stroke-opacity:1;fill-opacity:1"
     d="m 25.884303,84.250378 12.69796,-1.465149 -10.256045,13.674726 12.209577,0.976766 6.34898,7.814129 2.441915,2.44192 5.372214,-5.37222 10.256045,3.41868 8.790895,-6.348976 4.395448,2.441916 6.34898,0 -2.930299,-10.744429 4.883831,0 8.790895,12.209579 -0.976766,13.18634 -4.395447,47.37316 0.976766,40.04741 2.930298,47.86154 1.953532,32.72167 -6.837363,20.0237 -7.814129,9.76767 -7.814129,-1.46515 3.418682,-6.83737 -0.488383,-22.954 L 65.931715,263.97535 42.97771,228.81177 31.256517,206.83453 19.04694,166.78712 13.186343,129.67 15.628258,101.34379 z"
     id="path5301"
     inkscape:connector-curvature="0" />
  <path
     style="fill:#006007;stroke:none;stroke-width:1px;stroke-linecap:butt;stroke-linejoin:miter;stroke-opacity:1;fill-opacity:0.91089112"
     d="m 41.024178,77.168824 c 9.52347,3.662873 9.52347,3.662873 9.52347,3.662873 l -3.418681,8.302512 3.17449,3.662873 9.279278,1.709341 5.860597,-0.976766 6.837363,-4.639639 -1.220958,-6.837364 11.477003,0 7.814129,3.907065 -8.546704,3.17449 0,3.418682 3.17449,8.058319 -0.976766,1.95353 -11.721194,-1.46515 -4.883831,4.15126 -2.197724,1.70934 -11.477002,-4.39545 -5.860597,5.8606 -1.953532,-8.546703 -9.767662,-4.63964 -7.081554,0 9.767661,-11.23281 z"
     id="path5827"
     inkscape:connector-curvature="0" />
  <path
     style="fill:#2ea437;stroke:#000000;stroke-width:1px;stroke-linecap:butt;stroke-linejoin:miter;stroke-opacity:1;fill-opacity:1"
     d="m 47.311441,88.406779 3.108051,3.280721 11.223517,2.762711 7.770127,-2.590042 1.726695,-3.798729 -5.698094,-28.663135 -1.208686,-18.475636 -7.252119,-20.029661 -5.180084,-7.079449 -13.295551,-1.554026 -10.878178,1.899365 -9.324153,6.388771 3.28072,8.978814 6.043433,-3.108051 10.532839,-1.726695 6.73411,4.489407 5.007415,12.604872 3.108051,13.468221 -0.345339,15.194915 -1.554025,9.669492 z"
     id="path5829"
     inkscape:connector-curvature="0" />
  <path
     style="fill:#000000"
     d="m 74.571429,313.42857 c -1.917802,-1.9178 -1.919096,-1.96451 -0.130588,-4.71375 1.946985,-2.99285 1.888754,-18.52717 -0.0962,-25.66254 -2.040625,-7.33551 -6.058356,-15.02747 -12.572501,-24.0701 -2.978634,-4.1348 -6.701015,-9.7598 -8.271958,-12.5 -1.570943,-2.7402 -5.287414,-8.47717 -8.258826,-12.74882 C 31.867497,214.50732 24.070464,192.97601 15.100449,150.5 12.24682,136.98712 12.246724,120.00479 15.100196,105.88924 18.688276,88.139744 22.345385,83.439102 33.458823,82.292094 38.712718,81.749844 39,81.576233 39,78.94343 39,75.329092 40.647972,74.850206 45.210162,77.138811 47.250751,78.162465 49.125962,79 49.377298,79 c 0.842901,0 2.622717,-10.048273 2.621335,-14.799221 -0.0016,-5.516657 -2.480458,-20.34959 -3.830124,-22.918647 -0.514937,-0.980173 -1.251739,-3.686799 -1.637337,-6.014725 -0.773007,-4.666798 -5.045071,-9.187467 -8.857897,-9.37337 -5.434097,-0.26495 -8.422117,0.415586 -11.623963,2.647414 -3.202795,2.23249 -3.579547,2.288668 -5.244388,0.782007 -1.507424,-1.3642 -3.779747,-7.060646 -3.799347,-9.524517 -0.0031,-0.385582 3.031923,-2.410582 6.744423,-4.5 C 30.274142,11.627114 30.823785,11.5 40.17667,11.5 c 8.255747,0 10.091247,0.307468 12.5,2.093901 3.118342,2.312695 7.80762,10.961875 8.894804,16.406099 0.384412,1.925 1.538091,5.169573 2.563729,7.210162 1.268894,2.524566 1.867222,5.87988 1.872386,10.5 0.01014,9.071224 1.551601,21.642785 3.40745,27.789838 l 1.509544,5 6.43146,-0.330623 c 6.397624,-0.328885 9.292038,0.553123 14.042342,4.279088 1.569216,1.230836 1.67803,1.754534 0.627555,3.020279 -0.698956,0.842191 -2.678229,1.538147 -4.398385,1.546569 -5.208078,0.0255 -5.88578,1.05531 -3.619624,5.500244 C 85.103569,96.664587 86,99.452735 86,100.71144 86,102.88792 85.641225,103 78.674314,103 72.153216,103 71.090676,103.27458 69,105.5 c -2.867897,3.05274 -3.777756,3.08139 -10.194331,0.32105 l -5.065095,-2.17894 -2.620287,3.18796 c -3.197473,3.89019 -3.716999,3.93637 -4.425596,0.39339 C 45.403225,100.76612 39.555442,97.018672 30.75,97.005577 28.471329,97.002188 27,96.521895 27,95.781445 c 0,-0.670205 2.332194,-3.580083 5.182654,-6.466397 l 5.182654,-5.247842 -4.342616,0.523437 C 23.953191,85.683833 21.130271,89.189337 17.392684,104 c -3.024088,11.98333 -2.637952,34.67911 0.878632,51.64306 5.481486,26.44261 14.326969,53.60143 20.763071,63.75011 C 40.665474,221.96513 42,224.29328 42,224.56684 c 0,0.27357 2.418299,3.97044 5.373998,8.21528 2.955698,4.24483 6.127232,9.19967 7.047851,11.01076 0.92062,1.81108 4.314291,6.98608 7.54149,11.5 8.152121,11.40245 12.767152,19.87836 14.532073,26.68941 1.784665,6.88725 2.055593,26.0667 0.39172,27.73058 -1.311541,1.31154 -0.352838,3.28713 1.59516,3.28713 2.402579,0 7.544171,-5.11692 9.927896,-9.88026 1.271524,-2.54086 3.336093,-7.73237 4.58793,-11.53671 2.226557,-6.7665 2.249726,-7.27769 1.065088,-23.5 C 93.397166,258.96237 92.207515,247 91.419536,241.5 89.087627,225.22355 87.700658,182.71167 88.98894,167 c 0.608814,-7.425 1.257051,-17.775 1.440526,-23 0.183476,-5.225 1.134231,-16.0976 2.112791,-24.16134 l 1.779199,-14.66134 -2.768874,-5.659373 C 89.950773,96.243966 87.775556,93.399228 86.391854,92.768772 83.7799,91.578686 83.194494,90 85.365141,90 c 2.437212,0 6.841416,4.244373 8.738528,8.421401 C 96.340794,103.34707 96.442474,109.39624 94.5,122 c -0.80527,5.225 -1.505705,13.55 -1.556524,18.5 -0.05082,4.95 -0.658758,15.3 -1.350977,23 -0.69222,7.7 -1.128634,16.925 -0.969811,20.5 0.158824,3.575 0.51247,14.15 0.78588,23.5 0.27341,9.35 0.980335,21.05 1.570943,26 5.274794,44.20901 5.444524,50.12375 1.728711,60.24214 -3.853242,10.49262 -6.133741,14.54627 -10.184104,18.10254 -3.932809,3.45305 -7.513664,4.02292 -9.952689,1.58389 z M 54.125596,101 c 1.034909,0 3.560858,0.9 5.613219,2 5.145503,2.75782 6.40753,2.54856 10.154575,-1.6838 2.333801,-2.636071 3.482802,-3.325542 4.039879,-2.424173 0.42817,0.692794 2.643345,1.509753 4.922611,1.815473 C 82.358312,101.17727 83,100.99025 83,99.499703 c 0,-0.969999 -0.95011,-3.300946 -2.111356,-5.179881 -2.029166,-3.283259 -2.042064,-3.492814 -0.331335,-5.383148 0.979012,-1.081796 3.166622,-2.332679 4.861356,-2.779741 L 88.5,85.344092 l -3.263486,-1.7047 c -2.464488,-1.287339 -4.496501,-1.541134 -8.299711,-1.036621 -4.955316,0.657346 -5.025828,0.715414 -4.389084,3.614493 1.706783,7.77093 -12.522625,12.466914 -22.360673,7.379461 -5.000435,-2.585825 -5.516274,-3.924406 -3.094244,-8.02944 1.185324,-2.008975 1.986849,-3.811174 1.781166,-4.004887 -0.205682,-0.193714 -2.013794,-1.031618 -4.018026,-1.86201 l -3.644059,-1.509804 -0.557609,2.788044 c -0.306685,1.533425 -2.412386,4.931073 -4.679337,7.55033 -4.372714,5.052277 -4.15567,6.419988 1.025063,6.459467 2.93696,0.02238 8.820781,3.380963 9.633542,5.498985 0.42839,1.11636 1.029298,1.22822 2.466419,0.45909 C 50.414648,100.2429 51,100.25821 51,100.9962 c 0,0.58661 -0.672415,1.3246 -1.494256,1.63997 -0.821841,0.31537 -1.194303,1.05874 -0.827692,1.65192 0.414613,0.67086 1.214518,0.25327 2.116229,-1.10478 C 51.591596,101.98249 53.090688,101 54.125596,101 z M 39.5,94 l -3,-0.76337 3.190983,-0.118315 C 41.446024,93.053242 43.160081,93.45 43.5,94 c 0.683956,1.106664 0.349122,1.106664 -4,0 z M 38.967949,87.878205 C 40.684936,86.161218 42.29902,84.965686 42.554801,85.221468 43.230797,85.897463 38.300056,91 36.970826,91 c -0.61857,0 0.280136,-1.404808 1.997123,-3.121795 z M 42.5,82 c -0.339919,-0.55 -0.168034,-1 0.381966,-1 0.55,0 1.278115,0.45 1.618034,1 0.339919,0.55 0.168034,1 -0.381966,1 -0.55,0 -1.278115,-0.45 -1.618034,-1 z m 20.821437,9.25 c -0.502686,-1.428561 -0.368345,-1.520401 0.731384,-0.5 1.608112,1.492111 3.323127,1.667314 2.447179,0.25 -0.339919,-0.55 0.308524,-1 1.440983,-1 2.649318,0 2.608548,-1.203897 -0.418739,-12.36496 C 65.885199,71.599553 64.732761,63.749748 64.125764,54.5 63.573711,46.087512 62.597845,39.103122 61.680646,37 60.841129,35.075 59.154534,30.210815 57.932658,26.1907 56.158849,20.354664 55.010527,18.347075 52.235489,16.23045 45.704224,11.248811 29.880354,12.40037 22.642681,18.384023 c -2.482051,2.052004 -2.76159,2.798101 -2.128435,5.680837 l 0.728883,3.318585 1.297217,-2.941723 c 0.713469,-1.617947 1.333765,-2.352664 1.378435,-1.632705 0.04467,0.719959 0.526065,1.034087 1.069765,0.698062 0.577899,-0.357161 0.75169,0.137578 0.418365,1.190983 -0.513422,1.622563 -0.437623,1.643028 0.761454,0.205584 C 26.900764,24.025651 28.2875,23.423333 29.25,23.565162 30.2125,23.706991 31.006891,23.30035 31.015313,22.661516 31.023973,22.004618 31.451768,22.151672 32,23 c 0.70439,1.089966 0.97356,1.142172 0.984687,0.190983 0.0084,-0.719959 0.515625,-0.999807 1.127116,-0.621885 0.611492,0.377923 1.504602,0.06698 1.984688,-0.690983 0.685147,-1.081715 0.876177,-1.096577 0.888196,-0.0691 C 36.993109,22.528976 37.45,22.839919 38,22.5 c 0.55,-0.339919 1,-0.114919 1,0.5 0,0.614919 0.45,0.839919 1,0.5 0.55,-0.339919 1.006891,-0.02898 1.015313,0.690983 0.0124,1.059692 0.176357,1.054963 0.860836,-0.02483 0.675842,-1.066166 0.972376,-1.003275 1.477625,0.313382 0.347655,0.905976 1.085279,1.367149 1.639163,1.024829 C 45.546822,25.162046 46,25.43559 46,26.112242 c 0,0.676652 0.763594,2.074039 1.696876,3.105304 0.97691,1.079473 1.654641,3.365017 1.597333,5.38676 -0.09037,3.188197 0.02806,3.34516 1.285464,1.703713 1.239111,-1.617563 1.317754,-1.449286 0.746569,1.597472 -0.408009,2.17636 -0.275745,3.181334 0.366459,2.78443 0.585426,-0.361813 1.041901,0.68043 1.093546,2.496833 0.04876,1.714841 0.454297,3.386848 0.901201,3.71557 0.446904,0.328722 0.871973,1.947676 0.944599,3.597676 0.07263,1.65 0.481012,4.082867 0.907524,5.406372 0.449377,1.394456 0.393849,2.17071 -0.132047,1.845959 -0.499138,-0.308227 -0.973843,0.544257 -1.054899,1.89441 -0.136909,2.280494 -0.0504,2.326941 1.218197,0.65404 C 57.36946,57.928914 57.319937,59.816353 55.5,63 c -1.671334,2.923693 -1.966332,5.190846 -0.390355,3 0.908494,-1.262944 0.985093,-1.223434 0.484687,0.25 -0.326882,0.9625 -0.895804,2.49882 -1.264271,3.414045 -0.453174,1.125627 -0.291394,1.430091 0.5,0.940983 C 56.53674,69.550242 56.262953,71.536879 54.5,73 53.675,73.684689 53,74.919889 53,75.744889 c 0,1.230521 0.27382,1.27275 1.524166,0.235055 0.838291,-0.69572 1.761989,-1.027122 2.052662,-0.736449 0.290673,0.290673 -0.620201,1.432062 -2.024166,2.536421 C 53.148698,78.884274 52,80.115676 52,80.516365 52,80.917053 52.675,80.684689 53.5,80 54.523961,79.150188 55,79.10864 55,79.869081 c 0,0.612684 -0.9,1.676031 -2,2.362992 -1.1,0.686961 -2,1.617332 -2,2.067491 0,0.450158 0.408034,0.566291 0.906741,0.258073 1.114841,-0.68901 0.17512,3.468538 -1.173618,5.192363 -0.537907,0.6875 -0.635021,1.25 -0.21581,1.25 0.419211,0 1.291854,-0.724342 1.939206,-1.609649 1.055527,-1.443519 1.479741,-1.343571 4.110243,0.968399 3.477766,3.056638 7.713289,3.615497 6.754675,0.89125 z m -8.24249,-39.833333 c 0.04798,-1.164943 0.284941,-1.4019 0.604167,-0.604167 0.288871,0.721875 0.253344,1.584375 -0.07895,1.916667 -0.332292,0.332291 -0.568641,-0.258334 -0.52522,-1.3125 z m -34,-30 c 0.04798,-1.164943 0.284941,-1.4019 0.604167,-0.604167 0.288871,0.721875 0.253344,1.584375 -0.07895,1.916667 -0.332292,0.332291 -0.568641,-0.258334 -0.52522,-1.3125 z M 50.492921,88.011454 C 50.84326,87.444594 50.441863,87.276947 49.551938,87.618443 47.819521,88.283234 47.502551,89 48.940983,89 c 0.517541,0 1.215913,-0.444846 1.551938,-0.988546 z M 23.683114,24.8125 c -0.319226,-0.797733 -0.556183,-0.560776 -0.604167,0.604167 -0.04342,1.054166 0.192928,1.644791 0.52522,1.3125 0.332291,-0.332292 0.367818,-1.194792 0.07895,-1.916667 z M 79.769947,307.75 c 0.55816,-0.6875 1.272098,-2.15 1.586529,-3.25 0.320459,-1.12109 0.418466,-0.73803 0.223019,0.87168 l -0.348672,2.87168 2.348625,-2.87168 c 2.686458,-3.28475 3.21754,-2.51767 0.805542,1.1635 C 83.496735,307.89083 81.866634,309 80.762545,309 c -1.480527,0 -1.741062,-0.3281 -0.992598,-1.25 z m 1.492879,-9.91099 c -0.12125,-1.60963 0.122652,-1.85353 0.988093,-0.98809 0.756822,0.75682 0.811779,1.48638 0.160988,2.13717 -0.65079,0.65079 -1.043048,0.25853 -1.149081,-1.14908 z m -7.698533,-34.54588 c -0.542685,-1.4252 -0.427821,-1.54006 0.559795,-0.5598 0.683418,0.67834 0.990671,1.48524 0.682784,1.79313 -0.307887,0.30789 -0.867048,-0.24711 -1.242579,-1.23333 z m -3.485346,-8.87646 c 0.04798,-1.16495 0.284941,-1.4019 0.604167,-0.60417 0.288871,0.72187 0.253344,1.58437 -0.07895,1.91667 -0.332292,0.33229 -0.568641,-0.25834 -0.52522,-1.3125 z m -9.620066,-15.4832 c -0.362533,-0.58659 -0.444683,-1.281 -0.182555,-1.54313 0.262128,-0.26213 0.743066,0.21781 1.068751,1.06653 0.676184,1.76211 0.09985,2.07206 -0.886196,0.4766 z M 53.44113,228.5318 c -1.067622,-0.8075 -1.43373,-1.4825 -0.813575,-1.5 0.620156,-0.0175 1.687756,0.6432 2.372445,1.4682 1.580792,1.90474 0.934796,1.91792 -1.55887,0.0318 z m -5.806514,-11.11468 c -1.575961,-1.38583 -2.668155,-2.71691 -2.427097,-2.95797 0.241057,-0.24106 1.727171,0.90702 3.302475,2.55128 3.480541,3.6329 3.030989,3.84176 -0.875378,0.40669 z m -4.326279,-7.61158 c -1.205414,-0.58251 -2.430414,-1.68128 -2.722222,-2.44172 -0.316103,-0.82375 0.67084,-0.49439 2.441662,0.81484 4.004127,2.96038 4.091774,3.46861 0.28056,1.62688 z m -5.293397,-9.75938 c -1.366782,-1.05016 -2.266782,-2.12481 -2,-2.38813 0.266783,-0.26332 1.83506,0.60367 3.48506,1.92664 3.531025,2.83117 2.155449,3.25864 -1.48506,0.46149 z M 34.75,191.42803 C 33.2375,190.60748 32,189.7255 32,189.46806 c 0,-0.96593 1.580503,-0.36062 4,1.53194 2.971865,2.32463 2.52686,2.47701 -1.25,0.42803 z M 32.217604,181.25 c -2.391853,-2.3375 -2.43172,-2.45224 -0.265777,-0.76498 4.26786,3.32465 4.471669,3.51498 3.76395,3.51498 -0.376323,0 -1.950501,-1.2375 -3.498173,-2.75 z m -3.23766,-10.77417 c -0.69572,-0.83829 -1.071285,-1.71782 -0.83459,-1.95452 0.236696,-0.23669 0.979634,0.44918 1.650975,1.52417 1.451813,2.32472 0.967628,2.57996 -0.816385,0.43035 z m -2.05563,-9.13419 -2.424314,-2.65836 3.25,2.34642 c 3.380579,2.44069 3.812837,2.9703 2.424314,2.9703 -0.454127,0 -1.916627,-1.19626 -3.25,-2.65836 z m -0.857161,-7.77016 c -1.254811,-1.33568 -2.043778,-3.02318 -1.753261,-3.75 0.409856,-1.02537 0.545903,-0.99982 0.607161,0.11407 0.04342,0.78955 1.057388,2.47705 2.253261,3.75 1.195873,1.27295 1.949314,2.31445 1.674314,2.31445 -0.275,0 -1.526664,-1.09283 -2.781475,-2.42852 z m -4.087209,-23.09565 c -0.69572,-0.83829 -1.071285,-1.71782 -0.83459,-1.95452 0.236696,-0.23669 0.979634,0.44918 1.650975,1.52417 1.451813,2.32472 0.967628,2.57996 -0.816385,0.43035 z m 0.60895,-5.55256 C 21.165002,123.23108 20,121.35608 20,120.75661 c 0,-1.37268 0.308866,-1.05415 3.412598,3.51946 3.068799,4.52213 2.688355,4.82105 -0.823704,0.6472 z m 1.483686,-6.55813 c -1.139919,-1.44917 -2.058896,-3.13667 -2.042171,-3.75 0.01672,-0.61333 0.529717,-0.21514 1.139983,0.88486 0.610266,1.1 1.791327,2.7875 2.624579,3.75 0.833252,0.9625 1.252921,1.75 0.932597,1.75 -0.320324,0 -1.515069,-1.18569 -2.654988,-2.63486 z m -1.613699,-7.43167 c -0.362533,-0.58659 -0.444683,-1.281 -0.182555,-1.54313 0.262128,-0.26213 0.743066,0.21781 1.068751,1.06653 0.676184,1.76211 0.09985,2.07206 -0.886196,0.4766 z m 0,-6 c -0.362533,-0.58659 -0.444683,-1.281 -0.182555,-1.54313 0.262128,-0.26213 0.743066,0.21781 1.068751,1.06653 0.676184,1.76211 0.09985,2.07206 -0.886196,0.4766 z m 1.782998,-5.166746 c 0.111426,-1.589816 0.562602,-2.362243 1.078469,-1.846376 0.515868,0.515868 0.435726,1.659328 -0.191568,2.733272 -0.946323,1.62014 -1.054996,1.51147 -0.886901,-0.886896 z"
     id="path5299"
     inkscape:connector-curvature="0" />
</svg>
