<?xml version="1.0" encoding="UTF-8" standalone="no"?>
<!-- Created with Inkscape (http://www.inkscape.org/) -->

<svg
   xmlns:dc="http://purl.org/dc/elements/1.1/"
   xmlns:cc="http://creativecommons.org/ns#"
   xmlns:rdf="http://www.w3.org/1999/02/22-rdf-syntax-ns#"
   xmlns:svg="http://www.w3.org/2000/svg"
   xmlns="http://www.w3.org/2000/svg"
   xmlns:sodipodi="http://sodipodi.sourceforge.net/DTD/sodipodi-0.dtd"
   xmlns:inkscape="http://www.inkscape.org/namespaces/inkscape"
   id="svg6083"
   version="1.1"
   inkscape:version="0.48.2 r9819"
   width="234"
   height="455"
   sodipodi:docname="Pharmaceuticals.png">
  <metadata
     id="metadata6089">
    <rdf:RDF>
      <cc:Work
         rdf:about="">
        <dc:format>image/svg+xml</dc:format>
        <dc:type
           rdf:resource="http://purl.org/dc/dcmitype/StillImage" />
        <dc:title></dc:title>
      </cc:Work>
    </rdf:RDF>
  </metadata>
  <defs
     id="defs6087" />
  <sodipodi:namedview
     pagecolor="#ffffff"
     bordercolor="#666666"
     borderopacity="1"
     objecttolerance="10"
     gridtolerance="10"
     guidetolerance="10"
     inkscape:pageopacity="0"
     inkscape:pageshadow="2"
     inkscape:window-width="1214"
     inkscape:window-height="739"
     id="namedview6085"
     showgrid="false"
     inkscape:zoom="1.0373626"
     inkscape:cx="182.01369"
     inkscape:cy="248.25943"
     inkscape:window-x="1"
     inkscape:window-y="0"
     inkscape:window-maximized="0"
     inkscape:current-layer="svg6083" />
  <path
     style="fill:#000000"
     d="m 142.35593,30.821516 3,0.65047 -0.34763,9.97799 c -0.19119,5.48789 -0.97204,12.67799 -1.73522,15.97799 -0.76317,3.3 -1.39424,7.2375 -1.40237,8.75 -0.0128,2.37514 0.38301,2.75 2.90343,2.75 4.45592,0 6.08179,0.97754 6.08179,3.65665 0,3.24838 -2.70334,8.34335 -4.4269,8.34335 -0.75655,0 -2.33442,1.62516 -3.50636,3.61146 -2.44905,4.150827 -3.23796,13.574957 -3.12987,37.388534 0.0615,13.54518 0.32226,15.47262 3.96029,29.27038 3.11257,11.80489 4.75423,16.12149 8.17674,21.5 8.7413,13.73705 15.32804,18.82313 29.38573,22.69079 9.60194,2.64176 11.06473,3.50758 11.96131,7.07985 0.38034,1.5154 1.3348,2.45898 2.48733,2.45898 1.02859,0 2.78072,0.7875 3.89363,1.75 1.81754,1.57191 2.13359,3.68356 3.10565,20.75 3.35218,58.85455 3.44444,63.88149 2.00055,109 -0.77446,24.2 -1.28853,50.24184 -1.14238,57.87076 0.26362,13.76089 0.24538,13.88961 -2.30152,16.25 -1.41199,1.30858 -3.11893,2.37924 -3.79322,2.37924 -0.67428,0 -2.1136,0.59023 -3.19847,1.31162 -3.89943,2.59294 -17.11838,7.46439 -24.47251,9.01862 -12.74909,2.69439 -32.61692,4.67004 -53.5,5.32 -18.760178,0.58389 -20.991848,0.45424 -35.999998,-2.09137 -24.09512,-4.0869 -32.24731,-6.44639 -42.09999,-12.18506 l -4.09999,-2.38803 0.24485,-14.74289 c 1.06367,-64.04387 1.35239,-123.72863 0.64698,-133.74289 -1.25474,-17.81283 0.0653,-49.78134 2.1766,-52.71103 7.1994,-9.99024 8.50718,-11.33941 12.20673,-12.5932 11.58405,-3.92587 20.96587,-9.73564 30.19059,-18.69577 8.33539,-8.0963 9.60798,-9.83128 12.67374,-17.27871 4.93566,-11.98981 6.79271,-20.78541 9.970048,-47.22129 0.23124,-1.92401 -2.01414,-23.860557 -2.712488,-26.499994 -1.51367,-5.72091 -2.41714,-6.9213 -5.23885,-6.96051 -2.79577,-0.0389 -2.84283,-0.13686 -2.90005,-6.03949 l -0.0582,-6 4.80324,-0.30697 c 2.89432,-0.18497 5.010948,-0.84823 5.325868,-1.6689 0.58289,-1.51898 -2.235238,-25.17021 -3.613248,-30.32426 -0.79266,-2.96476 -0.63459,-3.39433 1.55546,-4.22699 4.157468,-1.58066 37.728918,-3.20677 42.928678,-2.07933 z m -26.97523,3.14653 c 0.41595,0.67303 -0.25861,0.81384 -1.91142,0.39901 -1.70299,-0.42742 -3.08779,-0.10751 -4.15522,0.95992 -0.88054,0.88055 -1.11884,1.60099 -0.52956,1.60099 0.58929,0 1.07143,0.45 1.07143,1 0,0.55 -2.0625,1 -4.58333,1 -3.17229,0 -4.45763,0.37713 -4.17501,1.22498 0.25609,0.76826 1.92696,1.11532 4.48159,0.93087 2.2403,-0.16175 4.37061,0.18701 4.73403,0.77503 0.42949,0.69492 -1.02242,1.12617 -4.14826,1.23212 l -4.80902,0.16299 5.5,0.67401 5.5,0.67401 -5.25,0.16299 c -2.8875,0.0897 -5.25,0.5918 -5.25,1.11589 0,0.53603 2.29669,0.76965 5.25,0.53404 4.06419,-0.32424 4.57239,-0.22739 2.25,0.4288 -2.87993,0.81371 -2.89994,0.85711 -0.5,1.08417 1.7685,0.16732 1.16402,0.51635 -2.06587,1.19286 -4.31507,0.90379 -4.54228,1.11701 -4.1365,3.88178 0.39102,2.66416 0.79883,2.93813 4.56587,3.06737 l 4.1365,0.1419 -4,0.66359 -4,0.6636 5.75,0.80972 c 3.1625,0.44535 5.75,1.16575 5.75,1.60088 0,0.43514 -0.7875,0.63633 -1.75,0.44709 -6.60686,-1.29897 -9.25,-1.27752 -9.25,0.0751 0,1.08772 1.10637,1.31388 4.75,0.971 3.79774,-0.35738 4.14857,-0.27703 1.75,0.40082 l -3,0.84781 3.5,0.26022 3.5,0.26022 -4,0.71619 -4,0.71619 3.80902,0.1419 c 2.09496,0.0781 3.56457,0.53743 3.2658,1.02085 -0.29877,0.48342 -2.68783,0.64855 -5.30902,0.36695 -4.82336,-0.51818 -5.53312,0.3381 -1.15111,1.38874 1.31192,0.31454 9.18988,0.80359 17.50657,1.08677 l 15.12127,0.51486 0.56885,-5.86813 c 0.31287,-3.22752 1.0262,-7.89318 1.58519,-10.36818 0.55898,-2.475 1.03593,-7.9875 1.05988,-12.25 l 0.0435,-7.75 -14.05902,0 c -9.47923,0 -13.84962,0.33881 -13.41621,1.04008 z m -7.02477,17.83405 c -3.86121,0.51926 -3.79181,0.55965 2,1.16379 l 6,0.62586 -6.25,0.16811 c -4.9636,0.13351 -6.25,-0.14063 -6.25,-1.33189 0,-1.12441 1.06418,-1.45791 4.25,-1.3319 l 4.25,0.16811 -4,0.53792 z m -6.75,-14.21185 c 0.6875,0.27741 1.8125,0.27741 2.5,0 0.6875,-0.27741 0.125,-0.50439 -1.25,-0.50439 -1.375,0 -1.9375,0.22698 -1.25,0.50439 z m -6.116608,33.92491 c -1.04239,0.4 -1.63339,1.78975 -1.63339,3.84095 l 0,3.21417 16.749998,0.13479 c 9.2125,0.0741 21.3625,-0.11369 27,-0.41739 l 10.25,-0.55217 0,-2.7371 c 0,-1.50541 -0.27503,-3.01214 -0.61118,-3.34829 -0.81204,-0.81203 -49.659068,-0.93941 -51.755428,-0.13496 z m 33.610378,11.69691 c -0.69093,-0.25021 -1.00187,-0.86649 -0.69098,-1.36951 0.83405,-1.34953 -0.9408,-1.11136 -2.49949,0.33541 -1.09524,1.01659 -1.1901,0.9699 -0.50805,-0.25 0.73812,-1.32017 0.62373,-1.32542 -0.95417,-0.0438 -2.59224,2.10545 -4.88693,2.25717 -4.12544,0.27277 0.50094,-1.30544 0.21869,-1.25323 -1.46564,0.27106 -1.45093,1.31307 -1.91324,1.43747 -1.51842,0.40859 0.6794,-1.77049 -3.06981,-2.38387 -4.12593,-0.67502 -0.43731,0.70757 -0.10234,0.8832 0.92938,0.4873 1.1327,-0.43466 1.44751,-0.18746 1.05705,0.83006 -0.34701,0.90431 -2.11357,1.50553 -4.69907,1.59926 l -4.14301,0.1502 4.5,0.5998 c 3.57204,0.47612 4.43877,0.96344 4.20309,2.36319 -0.1633,0.969857 0.5117,2.094857 1.5,2.499997 1.29423,0.53055 0.53804,0.90442 -2.70309,1.33643 l -4.5,0.5998 4.31739,0.1502 c 3.83348,0.13333 4.24624,0.37433 3.68261,2.15016 -0.59598,1.87777 -0.1797,2 6.81129,2 7.3481,0 7.46259,-0.0399 8.70199,-3.03206 1.32766,-3.20526 0.52816,-5.43811 -1.05234,-2.93898 -0.68655,1.08559 -0.93433,1.12805 -0.94563,0.16202 -0.008,-0.71996 -0.46531,-1.0309 -1.01531,-0.69098 -0.55,0.33992 -1,-0.0835 -1,-0.94098 0,-0.85746 0.675,-1.626517 1.5,-1.709017 0.825,-0.0825 2.0625,-0.195 2.75,-0.25 1.27489,-0.10199 3.65047,-3.33163 3.71456,-5.05 0.0195,-0.5225 -0.50456,-0.41 -1.16456,0.25 -0.66,0.66 -1.8401,1.2 -2.62244,1.2 -1.20432,0 -1.21463,-0.26836 -0.0672,-1.75 1.26982,-1.63973 1.23028,-1.64795 -0.62755,-0.13049 -1.09052,0.89073 -2.54807,1.4148 -3.239,1.16459 z m 8.77154,3.02492 c -0.008,0.44496 0.43469,0.5309 0.98469,0.19098 0.55,-0.33992 0.99311,-1.37898 0.98469,-2.30902 -0.0132,-1.45727 -0.14929,-1.48367 -0.98469,-0.19098 -0.53316,0.825 -0.97627,1.86406 -0.98469,2.30902 z m -37.01531,-1.30902 c 0,0.55 0.675,1 1.5,1 0.825,0 1.5,-0.45 1.5,-1 0,-0.55 -0.675,-1 -1.5,-1 -0.825,0 -1.5,0.45 -1.5,1 z m 34.24676,9.428987 c -2.49637,5.13828 -2.83537,5.2304 -17.49676,4.7546 -9.44418,-0.30649 -9.75,-0.38928 -9.75,-2.63922 0,-1.27754 -0.90654,-3.38515 -2.01453,-4.68359 l -2.01453,-2.36078 0.26453,15.499997 c 0.42391,24.83877 -2.97844,43.61727 -11.101918,61.27453 -2.02561,4.40288 -5.31886,8.7286 -11.24884,14.77545 -7.01958,7.15795 -10.01283,9.37519 -18.38471,13.61843 -5.5,2.78765 -11.34748,5.38883 -12.99441,5.78041 -3.59175,0.854 -5.50559,2.30482 -5.50559,4.17362 0,2.22663 4.76697,1.68714 5.5,-0.62244 0.34913,-1.1 1.10955,-2 1.68983,-2 0.63303,0 0.5318,0.63049 -0.25308,1.57622 -1.80138,2.17052 -0.26975,3.00161 9.06325,4.91794 4.125,0.84698 10.875,2.47165 15,3.61037 13.08232,3.61144 30.443428,5.03492 47.499998,3.89465 16.85336,-1.12668 28.89934,-2.57881 38.5,-4.64113 3.575,-0.76795 8.525,-1.80533 11,-2.30529 2.475,-0.49996 5.76679,-1.39136 7.3151,-1.98089 1.5483,-0.58953 4.0233,-1.07876 5.5,-1.08718 3.80305,-0.0217 5.51716,-1.36246 4.76631,-3.72818 -0.47241,-1.48844 -2.71533,-2.57447 -8.85701,-4.28861 -16.20145,-4.52179 -22.12371,-8.94654 -30.97356,-23.14156 -4.03801,-6.4769 -5.96768,-10.9091 -7.61905,-17.5 -1.21631,-4.85449 -2.94734,-11.7453 -3.84672,-15.31292 -1.72686,-6.84999 -2.21572,-33.05448 -0.85374,-45.763417 0.36839,-3.4375 0.28671,-6.25 -0.1815,-6.25 -0.46822,0 -1.8196,1.99305 -3.00307,4.42899 z m -26.24676,8.511987 c 0,0.51754 -0.44485,1.21592 -0.98855,1.55194 -0.56686,0.35034 -0.7345,-0.0511 -0.39301,-0.94098 0.66479,-1.73242 1.38156,-2.04939 1.38156,-0.61096 z m 0,4 c 0,0.51754 -0.44485,1.21592 -0.98855,1.55194 -0.56686,0.35034 -0.7345,-0.0511 -0.39301,-0.94098 0.66479,-1.73242 1.38156,-2.04939 1.38156,-0.61096 z m 1.09439,2.88265 c -0.60783,1.13574 -1.59762,2.36935 -2.19954,2.74135 -0.78412,0.48462 -0.78107,0.0909 0.0108,-1.38861 0.60783,-1.13574 1.59762,-2.36935 2.19954,-2.74135 0.78412,-0.48462 0.78107,-0.0909 -0.0108,1.38861 z m 0.8903,2.92637 c -0.008,0.4125 -0.43467,1.41312 -0.94722,2.22361 -0.51254,0.81048 -0.56051,1.71048 -0.10658,2 0.45392,0.28951 -0.0317,2.10139 -1.07913,4.02639 l -1.90445,3.5 0.43691,-3.5 c 0.47693,-3.82062 2.25578,-9 3.09103,-9 0.28861,0 0.51786,0.3375 0.50944,0.75 z m 0.0153,10.13922 c 0,0.48906 -0.92226,1.95156 -2.04946,3.25 l -2.04947,2.36078 1.57515,-3.25 c 1.54996,-3.19805 2.52378,-4.10897 2.52378,-2.36078 z m -1.04572,7.11078 c 0.008,0.825 -0.40426,2.16312 -0.91681,2.97361 -0.61491,0.97235 -0.52466,1.7254 0.26532,2.21383 0.89224,0.55167 0.79713,1.14043 -0.37338,2.31128 -1.42754,1.42794 -1.54513,1.24764 -1.29099,-1.9794 0.29112,-3.69661 2.28635,-8.45177 2.31586,-5.51932 z m -0.95428,11.53518 c 0,0.29435 -0.77103,1.71193 -1.7134,3.15017 -0.94237,1.43824 -1.81291,3.29294 -1.93452,4.12156 -0.12162,0.82862 -1.20176,2.44854 -2.40031,3.59983 l -2.17919,2.09326 1.32828,-2.5 c 0.73055,-1.375 1.34685,-2.725 1.36955,-3 0.0227,-0.275 1.08786,-2.1875 2.367,-4.25 2.16519,-3.49118 3.16259,-4.50505 3.16259,-3.21482 z m -5.59501,15.57263 c -1.04775,1.15929 -1.80021,2.84679 -1.67214,3.75 0.12807,0.9032 -0.99693,2.50605 -2.499998,3.56189 l -2.73285,1.9197 2.25,-2.48415 c 2.451608,-2.70674 2.989688,-4.4297 1,-3.202 -0.6875,0.42421 -0.125,-0.64934 1.249998,-2.38565 1.375,-1.73632 2.90724,-3.18184 3.40499,-3.21227 0.49774,-0.0304 0.0477,0.89318 -1,2.05248 z m -4.668988,10.46152 c -1.5202,1.68814 -2.42692,3.40641 -2.01494,3.8184 0.75556,0.75556 -3.46398,4.54877 -5.10592,4.59003 -0.48667,0.0122 0.30512,-0.91379 1.75953,-2.05783 1.45441,-1.14405 2.4311,-2.42518 2.17042,-2.84698 -0.26069,-0.4218 0.97252,-2.07326 2.74047,-3.66993 l 3.214438,-2.90302 -2.763998,3.06933 z m -4.736,10.92774 c 0,0.992 -5.29532,5.44121 -8.5,7.14184 -2.94434,1.56247 -2.96288,1.55739 -0.99919,-0.27345 3.15519,-2.94174 9.49919,-7.52877 9.49919,-6.86839 z m -3.75,8.16521 c -0.6875,0.27741 -1.8125,0.27741 -2.5,0 -0.6875,-0.27741 -0.125,-0.50439 1.25,-0.50439 1.375,0 1.9375,0.22698 1.25,0.50439 z m -3.75,2.33772 c 1.90836,0.82005 1.8969,0.86265 -0.25,0.92971 -1.2375,0.0387 -2.25,-0.37971 -2.25,-0.92971 0,-0.55 0.1125,-0.96837 0.25,-0.92971 0.1375,0.0387 1.15,0.45702 2.25,0.92971 z m -4.20731,2.01125 c 0.28604,1.09381 0.16034,1.98875 -0.27932,1.98875 -1.17493,0 -2.06766,-2.84841 -1.08339,-3.45673 0.46345,-0.28643 1.07667,0.37416 1.36271,1.46798 z m -3.29269,3.54777 c 0,0.85746 -0.45,1.2809 -1,0.94098 -0.55,-0.33992 -1,-1.04148 -1,-1.55902 0,-0.51754 0.45,-0.94098 1,-0.94098 0.55,0 1,0.70156 1,1.55902 z m -2.08169,1.13535 c 1.26268,2.93496 12.95949,12.76116 13.97805,11.74261 0.32284,-0.32284 -0.19677,-1.02559 -1.15469,-1.56167 -0.95792,-0.53608 -1.74167,-1.48652 -1.74167,-2.11209 0,-0.62557 1.3663,0.1716 3.03623,1.77149 2.35079,2.2522 3.87464,2.87075 6.75,2.73994 l 3.713768,-0.16896 -3.490458,0.87004 c -1.91975,0.47851 -3.94475,0.51607 -4.5,0.0835 -0.55525,-0.43262 -1.68454,-0.82406 -2.50954,-0.86988 -12.00024,-0.66644 -16.35405,-1.40833 -18.44404,-3.14287 -0.68199,-0.566 -1.49101,-0.77805 -1.79783,-0.47123 -0.30682,0.30682 -0.89745,0.008 -1.3125,-0.66319 -0.48223,-0.78026 -0.33789,-0.96347 0.39986,-0.50751 1.88495,1.16496 1.31749,-0.9276 -1.07708,-3.9718 -1.22737,-1.56035 -1.70503,-2.51157 -1.06146,-2.11382 0.66076,0.40837 1.61896,-0.0478 2.20118,-1.04786 0.89992,-1.54578 1.03492,-1.44098 1.06146,0.82398 0.0167,1.42722 0.93041,3.40946 2.03041,4.40495 1.1,0.99549 2,1.47523 2,1.06609 0,-0.40913 1.38453,0.42112 3.07673,1.84502 1.69219,1.42389 4.05469,2.56529 5.25,2.53644 2.13089,-0.0514 2.12562,-0.0856 -0.27037,-1.75 -1.344,-0.93365 -2.79972,-2.14755 -3.23492,-2.69755 -0.43521,-0.55 -1.98592,-2.48965 -3.44603,-4.31034 -1.76146,-2.19646 -2.31984,-3.64523 -1.65944,-4.30563 0.6604,-0.6604 1.40145,-0.0512 2.20234,1.81034 z m -3.09573,3.39314 c 0.7238,1.15899 1.12394,2.2993 0.88921,2.53403 -0.69377,0.69377 -2.93212,-2.46055 -2.55304,-3.59779 0.19131,-0.57392 0.94003,-0.0952 1.66383,1.06376 z m -5.92777,1.28574 c 0.62683,0.75529 0.87625,2.05977 0.55427,2.89885 -0.32199,0.83908 -0.10475,1.82267 0.48275,2.18577 0.58749,0.36309 1.06817,1.11425 1.06817,1.66924 0,0.55499 -1.30697,0.0784 -2.90437,-1.05902 -3.63855,-2.59087 -5.38797,-2.66223 -2.30811,-0.0941 2.12191,1.76931 2.14503,1.89667 0.31928,1.75914 -1.08253,-0.0815 -1.77937,-0.45386 -1.54853,-0.82737 0.23084,-0.37351 -0.20123,-1.19444 -0.96015,-1.82429 -1.08758,-0.90261 -1.1382,-1.66633 -0.23899,-3.6055 1.26114,-2.71969 3.77765,-3.22097 5.53568,-1.10268 z m -3.00731,2.91425 c 0.81667,0.81667 1.4449,0.75439 2.3625,-0.2342 0.75522,-0.81365 0.7967,-1.093 0.10478,-0.70575 -0.62986,0.35253 -1.46975,-0.14395 -1.86642,-1.10329 -0.5349,-1.29366 -0.84936,-1.39874 -1.21729,-0.40676 -0.27284,0.73563 0.005,1.83813 0.61643,2.45 z m -4.41834,-1.48951 c -0.36865,1.33537 -0.0762,2.97481 0.69822,3.91372 1.19199,1.44522 1.10106,1.49236 -0.86169,0.44663 -1.20687,-0.643 -2.50062,-1.66472 -2.875,-2.27048 -0.4719,-0.76355 -0.94438,-0.68522 -1.54038,0.25538 -0.63184,0.99718 -0.86374,0.77609 -0.875,-0.83422 -0.0192,-2.75524 1.56627,-3.84178 2.40742,-1.64978 0.56937,1.48374 0.78403,1.45828 2.15657,-0.25574 1.4637,-1.82788 1.49905,-1.8122 0.88986,0.39449 z m 44.030838,7.20201 c 0.33992,0.55 0.16803,1 -0.38197,1 -0.55,0 -1.27811,-0.45 -1.61803,-1 -0.33992,-0.55 -0.16803,-1 0.38197,-1 0.55,0 1.27811,0.45 1.61803,1 z m 79.17718,-0.078 c -4.49745,1.0571 -11.32718,2.62548 -15.17718,3.48529 -30.64161,6.84313 -68.863978,8.33976 -87.373018,3.42116 -19.90599,-5.28982 -36.62861,-8.16553 -39.26834,-6.7528 -4.24012,2.26925 -4.19663,1.23671 -4.34872,103.23588 l -0.14585,97.81153 2.64967,1.88672 c 6.80511,4.84567 17.5521,7.96359 41.48626,12.03602 16.81065,2.86036 19.090238,3.02187 34.499998,2.44438 18.51246,-0.69376 40.97315,-2.89374 51.5,-5.04433 10.3575,-2.11599 16.06258,-4.09681 25.31989,-8.7911 l 8.3199,-4.21894 0.43779,-28.34251 c 0.24079,-15.58838 0.69468,-29.74894 1.00865,-31.46791 1.03173,-5.64874 0.70875,-81.85615 -0.39893,-94.12539 -0.59585,-6.6 -1.37753,-19.48916 -1.73705,-28.64257 -0.61706,-15.71013 -0.77404,-16.70083 -2.80196,-17.68232 -3.08941,-1.49524 -4.82714,-1.40235 -13.97111,0.74689 z m -131.114268,10.328 2.93709,3.25 -3.25,-2.93709 c -1.7875,-1.6154 -3.25,-3.0779 -3.25,-3.25 0,-0.77256 0.82513,-0.0924 3.56291,2.93709 z m 2.93709,8.11765 c 3.08473,3.14138 3.85084,4.27517 2,2.95986 -3.53,-2.50863 -8.02265,-7.16174 -7.42061,-7.68565 0.23134,-0.20132 2.67061,1.92529 5.42061,4.72579 z m -3.5,0.39953 c 0,0.42194 2.0599,3.12194 4.57755,6 2.51765,2.87805 4.16309,5.23282 3.65653,5.23282 -0.50655,0 -2.70788,-2.1375 -4.89183,-4.75 -4.92285,-5.88884 -5.74917,-7.25 -4.40127,-7.25 0.58246,0 1.05902,0.34523 1.05902,0.76718 z m 3,11.39903 c 3.025,2.79148 4.6,4.60668 3.5,4.03377 -1.88497,-0.98175 -10.42474,-9.25198 -9.45295,-9.15459 0.24912,0.025 2.92795,2.32934 5.95295,5.12082 z m 114.768878,7.95542 c 2.52299,10.69407 3.56036,27.78623 2.62795,43.29892 -0.58935,9.80494 -1.29844,15.05309 -2.06819,15.30712 -0.88153,0.29092 -1.03697,-4.76155 -0.62823,-20.42055 0.56011,-21.45835 -0.85473,-36.37828 -3.78447,-39.90841 -1.0308,-1.24204 -3.51106,-1.39633 -14.82691,-0.92238 -18.7209,0.78412 -27.60126,1.34579 -41.63191,2.63315 -6.62358,0.60774 -16.152058,0.94422 -21.174388,0.74775 l -9.13152,-0.35723 -0.39596,6 c -0.47059,7.131 -0.0124,36.92783 0.62278,40.5 0.24449,1.375 0.7383,4.64603 1.09736,7.26896 0.84011,6.13696 2.51305,7.20743 14.53648,9.30155 7.254948,1.26359 13.018608,1.52326 24.488128,1.10325 19.6105,-0.71812 39.78768,-2.38443 45.80398,-3.78266 5.88083,-1.36675 7.29056,-0.45529 2.43421,1.57383 -5.62064,2.34845 -25.19097,3.8753 -50.73819,3.95852 -31.096918,0.1013 -36.967278,-1.39586 -39.104628,-9.9731 -1.36039,-5.4593 -2.26364,-46.71294 -1.1703,-53.45035 0.66887,-4.12172 1.2537,-5.3747 2.33374,-5 2.46481,0.85513 29.978148,0.26647 39.441188,-0.84386 4.95,-0.5808 18.225,-1.3613 29.5,-1.73444 l 20.5,-0.67844 1.26889,5.37837 z m -117.220688,0.33867 c 0.90311,1.90317 3.61417,5.27817 6.02457,7.5 2.41041,2.22184 3.99108,4.0397 3.51261,4.0397 -1.40693,0 -12.08537,-11.97875 -12.08537,-13.557 0,-2.31441 0.78909,-1.68972 2.54819,2.0173 z m 100.451808,1.5397 c 0,0.55 -0.42344,1 -0.94098,1 -0.51754,0 -1.2191,-0.45 -1.55902,-1 -0.33992,-0.55 0.0835,-1 0.94098,-1 0.85746,0 1.55902,0.45 1.55902,1 z m -49,2.90471 c 0,0.67473 -0.45182,2.071 -1.00404,3.10284 -0.9363,1.74949 -0.6158,1.85292 4.75,1.53293 3.16472,-0.18872 6.65404,0.15215 7.75404,0.7575 2.16947,1.19389 6.37791,1.01691 8.03354,-0.33785 0.56844,-0.46515 1.6274,-0.47869 2.35324,-0.0301 1.04981,0.64881 1.07422,1.27432 0.11936,3.0585 -0.9747,1.82124 -0.94711,2.16025 0.14675,1.80333 0.74091,-0.24175 1.93416,-1.64382 2.65168,-3.1157 1.38996,-2.85134 2.7728,-3.44406 3.43066,-1.47047 0.31139,0.93417 2.07,0.94749 7.80915,0.0591 4.074,-0.63059 7.53869,-1.0151 7.69933,-0.85447 0.16063,0.16064 -0.37404,1.57597 -1.18815,3.14519 -0.81412,1.56921 -1.29808,3.03525 -1.07547,3.25787 0.99038,0.99038 6.52732,-4.15443 6.59886,-6.13152 0.0434,-1.20005 0.29034,-1.66614 0.54871,-1.03576 0.72205,1.76167 9.45582,0.62195 10.95603,-1.42971 1.44835,-1.98074 1.90522,-1.67789 2.74019,1.81644 0.59991,2.51059 0.55247,2.53123 -5.38847,2.34402 -5.54751,-0.1748 -6.34704,0.0904 -10.74014,3.56298 -2.96817,2.34621 -4.81188,4.62054 -4.9211,6.07051 -0.0961,1.27527 -0.84585,2.98986 -1.66619,3.8102 -1.32205,1.32205 -1.56766,1.18824 -2.16143,-1.17751 -0.41621,-1.65831 -0.16779,-3.27405 0.65601,-4.26665 1.70681,-2.05658 2.24261,-6.04507 0.92174,-6.86141 -0.56337,-0.34813 -1.0243,-0.0266 -1.0243,0.71457 0,0.74117 -0.93246,3.13023 -2.07213,5.30902 -4.49953,8.60207 -4.76602,8.11958 4.41455,7.99299 9.75852,-0.13456 13.8032,-1.14704 13.5851,-3.40067 -0.36497,-3.77125 0.15893,-6.86685 1.46427,-8.652 1.18252,-1.61719 1.6336,-1.7027 3,-0.56869 2.15836,1.79128 2.0208,4.90084 -0.39186,8.85794 l -1.99258,3.26813 2.38723,-0.59916 c 1.31298,-0.32953 2.68788,-0.11269 3.05534,0.48187 0.3766,0.60935 -0.12121,1.14933 -1.1409,1.23755 -0.99496,0.0861 -3.15902,0.33134 -4.80902,0.545 -2.90181,0.37577 -19.98322,1.20715 -35.59429,1.73244 -4.17686,0.14055 -8.14465,0.59568 -8.81731,1.0114 -0.77777,0.48069 -1.42099,-10e-4 -1.76682,-1.32362 -0.49785,-1.9038 -0.72219,-1.95455 -2.65519,-0.60062 -1.16127,0.81338 -2.88837,1.47888 -3.838,1.47888 -2.45232,0 -6.5434,5.77643 -7.682878,10.84791 -1.05115,4.6783 -1.76024,5.87069 -2.8457,4.78523 -0.38511,-0.3851 0.0649,-3.57146 1,-7.0808 2.08132,-7.81095 2.10239,-8.64391 0.20019,-7.91397 -0.825,0.31659 -1.5,0.0509 -1.5,-0.5904 0,-2.21294 -1.96265,0.0603 -5.47565,6.34209 -1.93839,3.46618 -3.52435,7.24484 -3.52435,8.39702 0,2.03753 -1.65083,3.89542 -2.60947,2.93678 -0.87739,-0.87738 3.50019,-10.98574 7.1158,-16.43125 l 3.57671,-5.38691 -2.91441,1.5071 c -1.60293,0.82891 -3.15449,2.42513 -3.44791,3.54715 -0.63391,2.4241 -3.52533,2.7128 -4.39782,0.43913 -0.54745,-1.42663 0.5852,-2.80478 3.00777,-3.65971 0.45687,-0.16123 1.1983,-1.85605 1.64764,-3.76626 0.74552,-3.16938 0.82592,-3.23261 0.91933,-0.72311 0.0563,1.5125 0.45223,2.75 0.87985,2.75 1.17707,0 5.33643,-2.94057 8.95753,-6.33277 4.313198,-4.04055 5.355488,-2.67328 1.398058,1.83398 -3.161738,3.60102 -4.530478,7.90342 -1.791068,5.62991 1.970568,-1.63543 2.596358,-0.40302 1.585358,3.12214 l -0.889848,3.10271 3.231238,-3.10881 c 1.77718,-1.70985 4.58124,-3.43172 6.23124,-3.82638 3.36824,-0.80564 10.04735,-6.31363 12.8482,-10.59538 l 1.8482,-2.8254 -4.53918,0 c -2.49655,0 -4.80167,-0.4247 -5.12247,-0.94378 -0.72315,-1.17007 -13.37929,-0.1925 -18.484158,1.42772 -1.32566,0.42075 -3.10039,0.0582 -4.6339,-0.94657 -2.33541,-1.53022 -2.64232,-1.50505 -5.0859,0.41707 -4.93512,3.88196 -7.72288,1.63825 -4.85504,-3.90754 1.95356,-3.77778 5.99387,-5.97728 7.75138,-4.21977 0.89716,0.89716 0.69669,1.17287 -0.85282,1.17287 -2.16165,0 -6.37431,3.84266 -6.37431,5.81445 0,2.0096 1.619,1.34475 6.9102,-2.8377 2.86183,-2.26215 5.0898,-3.44403 5.0898,-2.7 0,0.72779 -0.46907,1.79232 -1.04238,2.36563 -1.46455,1.46455 1.10306,3.42257 3.59442,2.74104 1.07138,-0.29309 3.18546,-2.14672 4.697958,-4.11918 1.5125,-1.97246 2.75,-3.03425 2.75,-2.35953 z m 26.82834,8.97045 c -1.43875,0.54702 -5.58871,3.77548 -9.22213,7.17436 -6.50913,6.08898 -8.47282,9.01983 -4.68518,6.99274 1.09431,-0.58565 4.42957,-0.77086 7.75,-0.43035 5.24897,0.53827 6.04455,0.36343 7.99555,-1.75708 1.19161,-1.29516 3.2659,-4.85538 4.60952,-7.91161 l 2.44294,-5.55679 -3.13739,0.24708 c -1.72556,0.1359 -4.31455,0.69464 -5.75331,1.24165 z m 28.64696,6.10522 c -0.66383,3.14163 -0.57675,3.34871 0.89464,2.12756 0.89654,-0.74406 1.63006,-2.73773 1.63006,-4.43038 0,-3.8479 -1.51752,-2.46374 -2.5247,2.30282 z M 52.855922,253.38585 c 0,0.80184 1.73032,3.27684 3.84516,5.5 2.11484,2.22316 3.51721,4.04211 3.11637,4.04211 -1.29484,0 -7.96153,-7.95737 -7.96153,-9.50288 0,-0.82342 0.225,-1.49712 0.5,-1.49712 0.275,0 0.5,0.65605 0.5,1.45789 z m -1.17663,9.05379 c 0.68626,1.50619 2.90121,4.81973 4.92211,7.36342 3.59856,4.52949 3.60814,4.56431 0.46444,1.68781 -4.24903,-3.88788 -4.08111,-1.99147 0.33589,3.79329 4.41056,5.77634 3.83093,6.16988 -0.68654,0.46612 -1.81983,-2.29773 -3.35264,-5.17962 -3.40625,-6.40421 -0.0536,-1.22459 -0.88082,-3.42207 -1.83825,-4.88329 -0.95743,-1.46123 -1.58292,-3.13038 -1.38997,-3.70922 0.19295,-0.57884 0.9123,0.17989 1.59857,1.68608 z m 5.67663,20.68438 5,5.13216 -5.25,-4.25723 c -2.8875,-2.34147 -5.25,-4.66532 -5.25,-5.16411 0,-1.33805 0.0736,-1.28068 5.5,4.28918 z m 56.581898,2.87572 c 0.77995,0.49368 2.89174,0.90449 4.69285,0.91291 2.56565,0.012 3.48057,0.55665 4.22525,2.51531 1.12656,2.96308 1.31352,2.9959 4.64193,0.81505 2.37341,-1.55512 2.64205,-1.55899 3.48639,-0.0502 0.66194,1.18281 1.80729,1.49161 4.14326,1.11705 9.70374,-1.55594 11.10391,-1.01987 7.11169,2.72278 -1.4053,1.31745 -3.67516,4.76008 -5.04413,7.65029 -2.90473,6.13253 -6.33914,8.80365 -6.33914,4.93029 0,-1.31183 1.35,-4.24876 3,-6.52652 3.96938,-5.47958 3.86718,-6.56111 -0.55226,-5.84393 -2.59845,0.42167 -3.70383,0.18144 -4.11678,-0.89468 -0.36949,-0.96288 -0.95604,-1.14834 -1.69774,-0.53683 -0.62327,0.51387 -2.92776,0.86285 -5.12109,0.77552 -3.12585,-0.12446 -4.06953,-0.5911 -4.36568,-2.15878 -0.36834,-1.94985 -1.84942,-3.45383 -3.43163,-3.48469 -0.43185,-0.008 -0.34076,0.81512 0.20244,1.83008 2.14438,4.00682 -4.00549,8.16308 -6.90648,4.6676 -2.69889,-3.25197 2.60929,-10.6324 6.07112,-8.44121 z m 5.9181,4.92822 c 0,0.55 0.47656,1 1.05902,1 0.58246,0 0.7809,-0.45 0.44098,-1 -0.33992,-0.55 -0.81648,-1 -1.05902,-1 -0.24254,0 -0.44098,0.45 -0.44098,1 z m -10.5,0.93036 c 0,0.77164 0.45,1.54566 1,1.72005 1.64063,0.52021 3.81235,-1.336 3.03488,-2.59398 -0.96445,-1.56051 -4.03488,-0.89548 -4.03488,0.87393 z m -56.897958,-4.68036 c 1.07287,1.2375 2.82211,3.375 3.8872,4.75 l 1.93652,2.5 -2.44048,-2.5 c -1.34227,-1.375 -3.48816,-3.5125 -4.76865,-4.75 -1.28048,-1.2375 -1.93151,-2.25 -1.44671,-2.25 0.4848,0 1.75925,1.0125 2.83212,2.25 z m 0.89796,5.75 c 0.85325,1.65 1.32636,3 1.05136,3 -0.275,0 -1.19811,-1.35 -2.05136,-3 -0.85325,-1.65 -1.32636,-3 -1.05136,-3 0.275,0 1.19811,1.35 2.05136,3 z m 4.04112,7.06653 c 0.36253,0.58659 0.44468,1.281 0.18255,1.54313 -0.26212,0.26213 -0.74306,-0.21781 -1.06875,-1.06653 -0.67618,-1.76211 -0.0999,-2.07206 0.8862,-0.4766 z m -3.4015,2.68347 c 3.17175,3.82904 4.31386,5.606 3.15694,4.91172 -1.27795,-0.76691 -5.71972,-6.66172 -5.01964,-6.66172 0.22721,0 1.06542,0.7875 1.8627,1.75 z m 0.22823,10.22967 c 1.46329,2.21118 2.48255,4.02033 2.26503,4.02033 -0.7668,0 -5.82883,-7.13738 -5.38021,-7.58601 0.25006,-0.25005 1.65189,1.3545 3.11518,3.56568 z m 3.52119,9.28003 6.38903,7.2403 -6.09187,-6 c -5.05932,-4.98302 -7.94934,-8.53664 -6.90482,-8.4903 0.12024,0.005 3.09369,3.26783 6.60766,7.25 z m 2.18665,-1.5097 2.42431,2.75 -2.75,-2.42431 c -2.57029,-2.26589 -3.20859,-3.07569 -2.42431,-3.07569 0.17912,0 1.41662,1.2375 2.75,2.75 z m -4,6 2.42431,2.75 -2.75,-2.42431 c -2.57029,-2.26589 -3.20859,-3.07569 -2.42431,-3.07569 0.17912,0 1.41662,1.2375 2.75,2.75 z m 2.36869,10.18663 3.94438,4.56337 -4.39536,-4.21569 c -2.41745,-2.31862 -4.19242,-4.37214 -3.94438,-4.56337 0.24804,-0.19123 2.22595,1.70583 4.39536,4.21569 z m -3.03711,5.3996 c 2.87904,2.30372 7.59273,2.56741 7.59273,0.42475 0,-2.18482 2.90783,1.54752 3.55119,4.55812 0.37387,1.74949 1.13289,3.7434 1.68673,4.4309 0.55383,0.6875 0.75028,1.25 0.43654,1.25 -1.42689,0 1.70996,6.00902 3.17337,6.07895 1.03823,0.0496 1.18768,0.26637 0.40217,0.58333 -1.42889,0.57657 -1.63699,4.1786 -0.35803,6.19717 0.64171,1.01279 1.71371,0.12031 4.204,-3.5 5.69972,-8.28609 12.21981,-13.34905 17.19948,-13.35571 3.91507,-0.005 7.707128,4.0362 7.694778,8.2008 -0.0102,3.45488 -3.560508,11.97887 -7.002608,16.81285 l -2.02211,2.83978 9.267248,0.32175 c 5.09698,0.17696 9.45198,0.21185 9.67778,0.0775 0.22579,-0.13431 -0.29863,-1.03446 -1.16539,-2.00033 -0.86676,-0.96588 -1.88664,-3.43061 -2.2664,-5.4772 -0.60754,-3.27414 -0.32668,-4.08485 2.33846,-6.75 3.38271,-3.3827 4.80123,-3.63461 9.46491,-1.68088 3.33243,1.39605 15.84991,13.65332 18.96085,18.56671 1.61126,2.54481 2.44025,2.84823 9.17294,3.35743 7.99543,0.60469 10.58017,1.56949 14.83409,5.53709 7.71029,7.19133 -0.97796,13.56982 -20.25,14.86657 -9.10665,0.61276 -22.98881,-1.03971 -24.12074,-2.87122 -0.45011,-0.72829 -2.71352,-0.89782 -6.58472,-0.49321 -3.24436,0.33911 -11.252158,0.18023 -17.795098,-0.35306 l -11.89626,-0.96962 -2.74522,3.00563 c -2.90886,3.18479 -4.78285,3.65138 -7.92064,1.97209 -1.40601,-0.75248 -2.66404,-0.64957 -4.62603,0.37842 l -2.69483,1.41197 3.26327,0.71674 c 1.79481,0.3942 3.04921,0.9308 2.78757,1.19244 -0.83406,0.83407 -14.57293,-3.67805 -15.38611,-5.0531 -0.42965,-0.72649 -1.79369,-1.85245 -3.03119,-2.50209 -1.2375,-0.64964 -2.25,-1.68508 -2.25,-2.30097 0,-0.61589 0.9,-0.30532 2,0.69017 1.96479,1.77811 2,1.74663 2,-1.78785 0,-1.97881 0.9462,-5.20151 2.10266,-7.16157 l 2.10266,-3.56374 -2.35266,-2.10212 -2.35266,-2.10213 2.71482,1.60871 c 3.68443,2.18326 3.75623,2.12434 2.47975,-2.03482 -0.67088,-2.18594 -2.33364,-4.42876 -4.1564,-5.60639 -2.73808,-1.769 -2.17839,-1.82196 1.87296,-0.17721 1.16435,0.47271 1.24076,-0.0956 0.4369,-3.25 -0.53582,-2.10258 -1.45029,-5.81985 -2.03215,-8.26058 -0.58185,-2.44074 -2.01596,-5.23827 -3.1869,-6.21673 -1.17094,-0.97847 -1.59304,-1.794 -0.938,-1.8123 0.65504,-0.0183 1.54367,0.52923 1.97472,1.21673 0.49255,0.78557 1.03682,-0.23619 1.46489,-2.75 0.37463,-2.2 0.2735,-4.4275 -0.22472,-4.95 -1.36689,-1.43348 -1.09555,-3.13968 0.28048,-1.76365 0.91512,0.91512 1.61702,0.79659 3.07017,-0.51849 1.8293,-1.6555 1.78773,-1.78457 -1.43635,-4.45945 -4.02346,-3.3381 -3.51032,-3.75079 0.5871,-0.47218 z m 3.11524,5.82472 -2.74721,2.16096 2.36235,1.92582 c 1.29929,1.0592 1.847,1.66436 1.21713,1.34479 -1.37841,-0.69935 -2.35478,1.54185 -2.35478,5.40524 0,3.90898 6.45103,9.14117 9.75,7.90785 2.45591,-0.91814 2.53941,-1.20857 1.64017,-5.70479 -0.42483,-2.12412 -1.49316,-3.41505 -3.52146,-4.2552 -1.60139,-0.66332 -3.1765,-1.63461 -3.50023,-2.15842 -0.32374,-0.52382 0.87652,-0.19475 2.66722,0.73126 3.05075,1.57761 3.21516,1.57766 2.61007,8.1e-4 -0.35517,-0.92556 -0.64577,-2.07783 -0.64577,-2.56059 0,-0.48276 -1.01333,-1.90845 -2.25186,-3.16821 -1.23852,-1.25976 -1.82352,-1.95297 -1.3,-1.54047 1.56289,1.23145 2.52859,0.85294 1.91349,-0.75 -0.79844,-2.0807 -2.61509,-1.87507 -5.83912,0.66095 z m 26.87753,6.6862 c -4.08678,2.98348 -13.40004,15.7456 -13.40004,18.3623 0,3.41817 7.42408,9.87753 11.20034,9.74491 1.56102,-0.0548 9.71568,-10.77097 12.68119,-16.66452 2.33071,-4.63197 2.79266,-11.21565 0.91847,-13.08984 -2.10549,-2.10549 -7.28464,-1.35716 -11.39996,1.64715 z m -30.38473,-0.0381 c 0.0132,1.45724 0.14929,1.48364 0.98469,0.19095 1.2656,-1.95837 1.2656,-3.28218 0,-2.5 -0.55,0.33992 -0.99311,1.37898 -0.98469,2.30902 z m 56.813428,9.84594 c -4.32426,3.9134 -0.17052,12.72421 6.67126,14.15094 10.94348,2.28206 12.60412,-6.68605 2.51017,-13.55593 -3.92696,-2.67266 -6.68794,-2.85159 -9.18143,-0.59501 z m 1.17126,5.22635 c 0,0.48474 1.43543,2.28474 3.18984,4 2.45608,2.40127 2.79067,3.11866 1.45454,3.11866 -0.95441,0 -2.83983,-1.10455 -4.18983,-2.45455 -2.48503,-2.48502 -3.28776,-5.54545 -1.45455,-5.54545 0.55,0 1,0.3966 1,0.88134 z m -56.233708,-2.66705 c 0.31209,1.19344 1.42331,1.78571 3.35034,1.78571 3.10524,0 3.80818,-1.38307 1.39059,-2.73602 -2.69597,-1.50875 -5.2501,-0.99677 -4.74093,0.95031 z m 5.51464,4.05257 c -3.8258,1.02594 -4.16417,1.36918 -3.63006,3.68227 0.32395,1.40298 1.29605,3.11337 2.1602,3.80087 0.94816,0.75433 1.09887,1.25 0.38006,1.25 -0.65512,0 -1.17284,0.5625 -1.15049,1.25 0.0224,0.6875 1.38007,-0.31724 3.01715,-2.23276 l 2.9765,-3.48277 -2.26714,-1.83435 -2.26715,-1.83435 2.33319,1.14682 c 1.90605,0.93687 2.6841,0.82925 4.25,-0.58787 2.39609,-2.16844 2.4913,-3.8602 0.16681,-2.96398 -0.9625,0.3711 -3.64858,1.18385 -5.96907,1.80612 z m 2.71907,9.56718 c 0,0.24501 0.7875,1.08241 1.75,1.86088 1.59805,1.29252 1.56557,1.32659 -0.37413,0.39242 -1.68868,-0.81327 -2.49035,-0.61832 -3.91054,0.95097 -2.08474,2.30361 -2.2423,2.06442 3.53467,5.3659 2.475,1.41443 4.05,2.57481 3.5,2.57862 -0.55,0.004 -2.8,-1.10173 -5,-2.45674 -2.2,-1.35502 -4.32594,-2.47771 -4.72432,-2.49488 -1.0368,-0.0447 -3.95382,5.87153 -3.36486,6.8245 0.27091,0.43833 2.36586,1.64171 4.65545,2.67417 4.01038,1.80843 4.21133,1.81097 5.48494,0.0692 0.72712,-0.9944 1.80382,-1.64741 2.39265,-1.45113 0.58884,0.19628 -0.0994,1.61868 -1.52942,3.1609 -1.98391,2.13955 -3.34821,2.73141 -5.75724,2.49759 -1.73646,-0.16854 -3.01519,-0.75644 -2.84162,-1.30644 0.17356,-0.55 1.07356,-0.86431 2,-0.69847 0.92643,0.16584 0.35015,-0.60413 -1.28063,-1.71106 -2.20883,-1.49929 -3.16134,-1.70372 -3.73469,-0.80153 -1.18369,1.86259 -0.95029,3.41818 0.77117,5.13963 3.96411,3.96411 10.67504,0.70628 18.86135,-9.15625 l 5.46579,-6.58497 -4.55256,-2.88714 c -2.60527,-1.65222 -5.0189,-4.12264 -5.64283,-5.77562 l -1.09028,-2.88847 -2.30645,3.12622 c -1.26855,1.71942 -2.30645,3.32668 -2.30645,3.5717 z m 63.200128,-1.56814 c -1.39543,1.60128 -1.35995,1.9013 0.38049,3.2182 2.09525,1.58537 2.7288,1.64944 6.33602,0.64081 l 2.41665,-0.67572 -3.37636,-3.84546 c -2.24185,-2.55333 -3.51774,-3.38483 -3.79713,-2.47459 -0.23143,0.75397 -1.11328,2.16552 -1.95967,3.13676 z m -42.811118,5.52447 c -4.40488,4.95031 -5.04543,6.19048 -4.6365,8.97674 0.36456,2.4839 0.96947,3.23454 2.61099,3.24 1.17507,0.004 5.11003,0.28801 8.74435,0.63133 l 6.60785,0.62422 0.6923,-7.38133 c 0.38077,-4.05973 0.913438,-8.13223 1.183728,-9.05 0.54848,-1.86243 -1.128478,-2.54731 -6.591728,-2.69207 -3.04945,-0.0808 -4.15793,0.64666 -8.61099,5.65111 z m 18.136658,-3.04037 c -0.37857,0.9625 -0.94167,5.0125 -1.25133,9 l -0.56302,7.25 7.14797,0 c 7.71905,0 13.00454,-2.00809 16.46967,-6.25723 l 1.82896,-2.24277 -0.59133,2.72336 c -0.46275,2.13124 -0.27078,2.60036 0.88298,2.15762 1.88562,-0.72358 2.8919,-3.88432 2.16222,-6.79158 -1.34998,-5.37877 -24.25098,-10.50517 -26.08612,-5.8394 z m 42.80744,8.12559 c 0.30171,1.99343 -0.0468,5.31191 -0.77444,7.37441 l -1.32299,3.75 3.13216,-0.0997 c 1.72269,-0.0548 4.25716,-0.45995 5.63216,-0.9003 2.39841,-0.7681 2.40856,-0.80469 0.25,-0.90032 -2.88824,-0.12796 -2.96219,-2.09968 -0.0787,-2.09968 1.19419,0 2.99695,-0.74724 4.00613,-1.66054 1.00918,-0.91329 2.16961,-1.32456 2.57874,-0.91392 0.40913,0.41064 -0.31848,1.60788 -1.61691,2.66054 -1.29844,1.05266 -1.88603,1.91392 -1.30577,1.91392 0.58026,0 2.2657,-1.04138 3.74542,-2.31418 2.25737,-1.94171 2.51431,-2.6432 1.59637,-4.35838 -1.59052,-2.97191 -6.08888,-5.64574 -10.67524,-6.34537 -5.27443,-0.8046 -5.81617,-0.39637 -5.16689,3.89352 z m -11.9149,-3.87559 c -2.00517,0 -2.41821,0.49844 -2.41821,2.91821 0,1.60502 -0.2805,3.64919 -0.62333,4.5426 -0.75101,1.95709 -7.39767,5.49899 -10.58683,5.64155 -4.0344,0.18035 4.15494,1.7761 11.84807,2.30869 8.19675,0.56745 10.02318,-0.54772 11.02687,-6.73274 1.06667,-6.57314 -1.18965,-10.29202 -5.49657,-9.05945 -0.73248,0.20963 -2.41998,0.38114 -3.75,0.38114 z m -63.418208,15.3712 c 0,0.34584 1.11463,0.6288 2.47695,0.6288 3.01734,0 5.96726,-4.02506 5.05543,-6.89797 -0.57657,-1.81663 -0.9433,-1.65295 -4.08293,1.82224 -1.8972,2.09997 -3.44945,4.10109 -3.44945,4.44693 z"
     id="path6093"
     inkscape:connector-curvature="0" />
  <path
     style="fill:#f39b1d;stroke:none;stroke-width:1px;stroke-linecap:butt;stroke-linejoin:miter;stroke-opacity:1;fill-opacity:0.68141592"
     d="m 98.837648,34.087946 5.112292,34.763587 36.8085,1.363278 3.74902,-33.059489 -0.68164,-5.793931 -30.33293,1.022458 z"
     id="path6095"
     inkscape:connector-curvature="0" />
  <path
     style="fill:#f39b1d;fill-opacity:0.68141593;stroke:#000000;stroke-width:1px;stroke-linecap:butt;stroke-linejoin:miter;stroke-opacity:1"
     d="m 106.33568,91.345619 3.06737,6.816389 21.81245,-0.340819 7.82465,-17.639916 -34.75942,0.258122 0.31659,3.890187 c -0.41761,4.641056 1.30307,5.737197 1.73836,7.016037 z"
     id="path6605"
     inkscape:connector-curvature="0"
     sodipodi:nodetypes="ccccccc" />
  <path
     style="fill:#0bf7ff;stroke:none;stroke-width:1px;stroke-linecap:butt;stroke-linejoin:miter;stroke-opacity:1;fill-opacity:0.15486726000000001"
     d="m 41.920796,208.58752 7.157209,-0.68164 15.336876,3.40819 29.310475,5.79394 25.561464,0 35.78604,-3.4082 37.14932,-7.83885 8.17967,2.04492 2.38574,32.71867 1.36328,73.61701 -1.36328,56.23521 -0.68164,36.8085 -8.17967,6.81639 -15.67769,5.45311 -27.60638,5.45312 -35.44523,2.72655 -22.494082,-0.68164 -41.579977,-8.17966 -16.359334,-8.52049 2.044916,-126.44403 -1.022458,-61.3475 3.408195,-12.95114 z"
     id="path6629"
     inkscape:connector-curvature="0" />
  <path
     style="fill:#0bf7ff;stroke:none;stroke-width:1px;stroke-linecap:butt;stroke-linejoin:miter;stroke-opacity:1;fill-opacity:0.40265486"
     d="m 92.362078,70.89645 0.34082,9.202126 55.553572,-1.363278 0.68164,-8.861307 -54.531115,0.34082"
     id="path6625"
     inkscape:connector-curvature="0" />
  <path
     style="fill:#0bf7ff;stroke:none;stroke-width:1px;stroke-linecap:butt;stroke-linejoin:miter;stroke-opacity:1;fill-opacity:0.15486726"
     d="m 98.837648,80.439395 48.055542,-1.704097 -6.13475,7.157209 -3.06737,35.786043 5.45311,34.08195 11.24704,23.85736 9.20213,10.56541 17.38179,6.13475 7.83885,2.72655 3.06738,3.74902 0,2.72655 -24.87983,5.79393 -41.57997,6.13475 -25.561463,0 -29.992114,-4.43065 -20.789988,-5.11229 -9.542946,-0.34082 7.838848,-7.15721 21.471627,-9.88376 20.449169,-18.74508 11.928677,-33.05948 1.36328,-28.28802 -3.067373,-28.288017 4.430653,0 0.34082,6.816389 -0.68164,-7.498028 1.02246,-1.022459 42.60243,-0.340819"
     id="path6627"
     inkscape:connector-curvature="0" />
  <path
     style="fill:#ff360b;stroke:none;stroke-width:1px;stroke-linecap:butt;stroke-linejoin:miter;stroke-opacity:1;fill-opacity:0.82300884"
     d="m 70.890451,372.35128 3.067375,5.96434 7.327619,4.94188 2.726556,0.51123 8.350077,-10.22458 5.623522,-10.56541 0.340819,-8.17967 -3.408195,-4.08983 -9.883765,2.89697 -10.735813,12.95114 z"
     id="path6631"
     inkscape:connector-curvature="0" />
  <path
     style="fill:#ff360b;stroke:none;stroke-width:1px;stroke-linecap:butt;stroke-linejoin:miter;stroke-opacity:1;fill-opacity:0.82300884"
     d="m 103.60912,380.70135 -1.87451,9.03172 -0.51123,8.35008 4.94189,0.34082 8.8613,-0.34082 13.63278,-3.57861 2.21533,-5.11229 -2.21533,-4.43065 -11.92868,-4.60107 -10.22458,-1.02245 z"
     id="path6633"
     inkscape:connector-curvature="0" />
  <path
     style="fill:#ff360b;stroke:none;stroke-width:1px;stroke-linecap:butt;stroke-linejoin:miter;stroke-opacity:1;fill-opacity:0.82300884"
     d="m 56.576033,371.32882 14.655238,-4.43065 -3.578605,-13.46237 -4.430653,-9.71336 -5.964341,3.57861 -3.919424,6.13475 z"
     id="path6635"
     inkscape:connector-curvature="0" />
  <path
     style="fill:#ff360b;stroke:none;stroke-width:1px;stroke-linecap:butt;stroke-linejoin:miter;stroke-opacity:1;fill-opacity:0.82300883999999996"
     d="m 110.93674,374.05537 4.26024,4.43066 7.83885,1.53369 5.62352,-3.23779 -2.55614,-8.35008 -10.56541,-6.81639 -4.94188,3.4082 -1.19287,7.15721 z"
     id="path6637"
     inkscape:connector-curvature="0" />
  <path
     style="fill:#ff360b;stroke:none;stroke-width:1px;stroke-linecap:butt;stroke-linejoin:miter;stroke-opacity:1;fill-opacity:0.82300884"
     d="m 132.06755,385.30242 9.71335,-0.85205 2.89697,6.64598 -1.53369,7.83885 -3.40819,3.06737 -13.29196,-0.17041 -7.66844,-2.21532 1.19287,-1.7041 7.32761,-1.87451 4.08984,-3.23778 z"
     id="path6639"
     inkscape:connector-curvature="0" />
  <path
     style="fill:#0f0bff;stroke:none;stroke-width:1px;stroke-linecap:butt;stroke-linejoin:miter;stroke-opacity:1;fill-opacity:0.82300884"
     d="m 70.038402,373.71455 2.215327,5.28271 9.202126,6.9868 -7.327619,7.83884 -6.64598,7.49803 -7.327618,2.55615 -4.941883,-2.21533 -1.022458,-6.13475 5.112292,-9.54294 z"
     id="path6641"
     inkscape:connector-curvature="0" />
  <path
     style="fill:#0f0bff;stroke:none;stroke-width:1px;stroke-linecap:butt;stroke-linejoin:miter;stroke-opacity:1;fill-opacity:0.82300883999999996"
     d="m 56.754502,372.94094 3.494439,9.76033 11.688294,-14.45974 -1.445974,-0.241 -13.736759,4.45842 z"
     id="path6643"
     inkscape:connector-curvature="0" />
  <path
     style="fill:#0f0bff;stroke:none;stroke-width:1px;stroke-linecap:butt;stroke-linejoin:miter;stroke-opacity:1;fill-opacity:0.82300884"
     d="m 69.768273,400.53496 8.675848,-8.55535 1.084481,5.3019 -3.97643,5.42241 -5.663401,-1.32548 0,-1.32547"
     id="path6645"
     inkscape:connector-curvature="0" />
  <path
     style="fill:#0f0bff;stroke:none;stroke-width:1px;stroke-linecap:butt;stroke-linejoin:miter;stroke-opacity:1;fill-opacity:0.82300883999999996"
     d="m 91.57839,378.36335 10.00132,0.60249 -2.289456,19.76165 -18.556673,-1.44598 -0.722988,-6.38638 11.688295,-13.01377"
     id="path6647"
     inkscape:connector-curvature="0" />
  <path
     style="fill:#0f0bff;stroke:none;stroke-width:1px;stroke-linecap:butt;stroke-linejoin:miter;stroke-opacity:1;fill-opacity:0.82300884"
     d="m 126.16128,380.65281 3.61494,3.25344 6.02489,0 2.65096,-1.56647 -8.55535,-7.83236 z"
     id="path6649"
     inkscape:connector-curvature="0" />
  <path
     style="fill:#0f0bff;stroke:none;stroke-width:1px;stroke-linecap:butt;stroke-linejoin:miter;stroke-opacity:1;fill-opacity:0.82300883999999996"
     d="m 145.32045,386.07521 0.72298,7.59137 -2.65095,7.47087 3.01245,0.12049 9.03734,-1.32547 6.98887,-4.33793 0.72299,-2.28946 -6.62738,-7.71186 -11.3268,-0.72299 z"
     id="path6651"
     inkscape:connector-curvature="0" />
  <path
     style="fill:#f1f31d;stroke:none;stroke-width:1px;stroke-linecap:butt;stroke-linejoin:miter;stroke-opacity:1;fill-opacity:0.28761062"
     d="m 78.564619,247.74364 0,39.52331 1.927966,16.8697 2.409958,3.37394 13.977754,3.61494 16.387713,0.96398 35.66737,-1.44597 21.20763,-3.37394 0,-9.15784 -0.72299,-40.72829 -3.61493,-13.25476 -17.83369,0.24099 -36.63136,1.92797 z"
     id="path6607"
     inkscape:connector-curvature="0" />
</svg>
