<?xml version="1.0" encoding="UTF-8" standalone="no"?>
<!-- Created with Inkscape (http://www.inkscape.org/) -->

<svg
   xmlns:dc="http://purl.org/dc/elements/1.1/"
   xmlns:cc="http://creativecommons.org/ns#"
   xmlns:rdf="http://www.w3.org/1999/02/22-rdf-syntax-ns#"
   xmlns:svg="http://www.w3.org/2000/svg"
   xmlns="http://www.w3.org/2000/svg"
   xmlns:sodipodi="http://sodipodi.sourceforge.net/DTD/sodipodi-0.dtd"
   xmlns:inkscape="http://www.inkscape.org/namespaces/inkscape"
   id="svg10319"
   version="1.1"
   inkscape:version="0.48.2 r9819"
   width="200"
   height="417"
   sodipodi:docname="Placebo.png">
  <metadata
     id="metadata10325">
    <rdf:RDF>
      <cc:Work
         rdf:about="">
        <dc:format>image/svg+xml</dc:format>
        <dc:type
           rdf:resource="http://purl.org/dc/dcmitype/StillImage" />
        <dc:title></dc:title>
      </cc:Work>
    </rdf:RDF>
  </metadata>
  <defs
     id="defs10323">
    <filter
       id="filter10931"
       y="-0.15"
       height="1.3"
       x="-0.15"
       width="1.3"
       inkscape:menu-tooltip="Aquarelle paper effect which can be used for pictures as for objects"
       inkscape:menu="Textures"
       inkscape:label="Rough paper"
       color-interpolation-filters="sRGB">
      <feTurbulence
         id="feTurbulence10933"
         type="fractalNoise"
         baseFrequency="0.059515570934256058"
         numOctaves="3"
         seed="76"
         result="result4" />
      <feDisplacementMap
         id="feDisplacementMap10935"
         in2="result4"
         in="SourceGraphic"
         yChannelSelector="G"
         xChannelSelector="R"
         scale="10"
         result="result3" />
      <feDiffuseLighting
         id="feDiffuseLighting10937"
         lighting-color="rgb(233,230,215)"
         diffuseConstant="1"
         surfaceScale="2"
         result="result1"
         in="result4">
        <feDistantLight
           id="feDistantLight10939"
           azimuth="235"
           elevation="40" />
      </feDiffuseLighting>
      <feComposite
         id="feComposite10941"
         in2="result1"
         operator="in"
         in="result3"
         result="result2" />
      <feComposite
         id="feComposite10943"
         in2="result1"
         result="result5"
         operator="arithmetic"
         k1="1.7" />
      <feBlend
         id="feBlend10945"
         in2="result3"
         in="result5"
         mode="normal" />
    </filter>
  </defs>
  <sodipodi:namedview
     pagecolor="#ffffff"
     bordercolor="#666666"
     borderopacity="1"
     objecttolerance="10"
     gridtolerance="10"
     guidetolerance="10"
     inkscape:pageopacity="0"
     inkscape:pageshadow="2"
     inkscape:window-width="1274"
     inkscape:window-height="747"
     id="namedview10321"
     showgrid="false"
     inkscape:zoom="1.6007405"
     inkscape:cx="201.10359"
     inkscape:cy="215.34399"
     inkscape:window-x="3"
     inkscape:window-y="0"
     inkscape:window-maximized="0"
     inkscape:current-layer="svg10319" />
  <path
     style="fill:#fedb02;stroke:none;stroke-width:1px;stroke-linecap:butt;stroke-linejoin:miter;stroke-opacity:1;fill-opacity:1"
     d="m 95.268407,81.530266 6.559463,-2.811199 14.99306,0 7.18418,2.811199 -3.74827,3.435909 -9.05831,2.186488 -12.806569,-1.561777 z"
     id="path10849"
     inkscape:connector-curvature="0" />
  <path
     style="fill:#fedb02;stroke:#000000;stroke-width:1px;stroke-linecap:butt;stroke-linejoin:miter;stroke-opacity:1;fill-opacity:1"
     d="m 94.331341,83.404398 0.937066,10.620085 -2.498844,12.494217 -6.247108,15.93013 -7.184175,13.43128 0,6.87182 4.06062,11.86951 -4.06062,4.99768 -14.680706,9.68302 -19.678392,11.2448 -6.871819,9.37066 -4.685332,17.17955 -3.435909,20.61546 0,63.0958 2.186488,97.45489 0.937066,2.49884 9.995374,6.55947 24.988434,8.43359 24.676079,3.74827 21.240167,-0.31236 27.79964,-3.74826 21.24017,-4.37298 10.93244,-4.99768 10.93244,-7.18418 -0.93707,-79.96299 -0.93707,-52.16336 -2.49884,-44.35447 -3.74827,-21.55252 -5.62239,-9.68302 -18.42897,-11.2448 -11.55715,-5.62239 -4.37298,-4.68534 -1.87413,-8.12124 4.68533,-13.43128 4.68533,-14.68071 0,-5.31004 -1.87413,-7.80888 -9.68302,-12.806577 -6.55947,-14.055995 -0.31235,-0.937066 -5.6224,3.748265 -9.68302,1.249422 -12.181859,-0.937066 z"
     id="path10859"
     inkscape:connector-curvature="0" />
  <path
     style="fill:#c98800;stroke:none;stroke-width:1px;stroke-linecap:butt;stroke-linejoin:miter;stroke-opacity:1;fill-opacity:0.68141592"
     d="m 92.764831,22.528601 4.85911,18.994704 2.650419,26.945974 19.87818,0 4.85911,-28.271186 2.20869,-22.086865 -12.36864,-1.766949 -23.853819,5.300848"
     id="path10335"
     inkscape:connector-curvature="0" />
  <path
     style="fill:#00f4ff;stroke:none;stroke-width:1px;stroke-linecap:butt;stroke-linejoin:miter;stroke-opacity:1;fill-opacity:0.18584071"
     d="m 90.556144,42.406779 5.742585,-2.650423 49.032841,0.441737 1.32521,3.092161 -8.83475,8.393008 -9.71822,11.48517 -3.97563,12.368644 3.97563,12.368644 6.62606,13.25212 6.18433,7.0678 3.09216,7.06779 -0.88348,10.6017 -3.97563,12.36864 -2.20869,8.83475 -0.88348,8.83474 3.97564,7.50954 26.50424,14.57733 7.06779,6.62606 3.97564,10.15995 2.20869,19.87818 3.97563,86.13877 0.88348,49.91632 -0.44174,37.10593 -11.04343,8.39301 -15.01907,5.74258 -27.38771,4.41738 -28.27119,2.65042 -19.43644,-1.32521 -22.970339,-4.41738 -29.154661,-11.9269 -0.441737,-80.39619 -1.325212,-78.62924 5.742585,-32.68856 7.067796,-15.90254 23.412077,-14.57733 16.344279,-12.36864 2.208687,-3.09216 -5.742585,-14.1356 0,-10.15995 -3.975636,3.53389 7.067797,-2.65042 8.834746,-15.90254 4.85911,-15.460808 L 94.090042,79.954449 89.67267,56.98411 z"
     id="path10845"
     inkscape:connector-curvature="0" />
  <path
     style="fill:#fff4a0;stroke:none;stroke-width:1px;stroke-linecap:butt;stroke-linejoin:miter;stroke-opacity:1;fill-opacity:1;filter:url(#filter10931)"
     d="m 60.518009,213.80085 19.43644,-4.85911 22.086861,-1.32521 30.92161,0.44173 15.46081,5.30085 0.88347,121.47775 0,13.69386 -9.27648,4.85911 -22.08686,5.74259 -20.319919,0 -22.086865,-3.5339 -15.902542,-7.50954 -2.208686,-12.36864 -0.441738,-32.24682 0.441738,-30.47988 1.325211,-38.43114 z"
     id="path10861"
     inkscape:connector-curvature="0" />
  <path
     style="fill:#000000"
     d="m 125.03698,15.795307 c 3.68925,0.5408 4.01558,2.34945 2.30608,12.78135 -0.81036,4.94513 -1.48125,9.37641 -1.49085,9.8473 -0.01,0.47089 3.95848,0.54148 8.81797,0.15686 7.52547,-0.59561 9.08223,-0.4525 10.5,0.96527 3.06789,3.06788 1.90876,5.48063 -6.66366,13.87067 -10.08197,9.86746 -12.23687,13.87849 -11.96521,22.27144 0.27327,8.44276 4.05723,17.29812 11.25582,26.341293 9.499,11.93301 9.90841,17.92688 2.56391,37.53607 -1.93946,5.1782 -3.52461,11.12205 -3.52255,13.20857 0.005,4.89588 2.87625,9.54024 7.1282,11.5294 1.85243,0.86661 6.40058,2.99831 10.107,4.7371 8.07663,3.789 15.94256,9.52919 19.30689,14.08929 7.61435,10.32067 9.62296,27.04995 11.09858,92.43788 0.74182,32.87193 0.98094,109.37521 0.35257,112.80058 -0.70905,3.86516 -18.20666,13.21234 -28.39436,15.1682 -49.23785,9.45283 -89.170962,7.70086 -111.469762,-4.89048 -3.09807,-1.74937 -7.47435,-4.05764 -9.72505,-5.12949 l -4.0922,-1.94881 -0.79346,-36 c -0.4364,-19.8 -0.91032,-40.05 -1.05314,-45 -1.28641,-44.58363 -1.46386,-76.81977 -0.45964,-83.5 1.94249,-12.92184 4.09101,-23.20786 6.6034,-31.61364 3.29382,-11.02023 8.10484,-16.0123 22.38723,-23.2297 11.44979,-5.78599 18.56673,-10.91115 21.94302,-15.80197 2.03419,-2.94668 2.07721,-3.37052 0.68115,-6.71174 -0.81958,-1.96155 -1.79812,-5.62014 -2.17453,-8.1302 -0.97883,-6.52734 -2.8619,-7.51275 -14.35642,-7.51275 -11.40166,0 -16.43951,-1.98658 -21.09639,-8.31895 -3.44986,-4.69108 -6.99683,-15.06726 -6.99683,-20.46829 0,-1.96711 0.95829,-7.128043 2.12954,-11.468743 2.75285,-10.20219 7.26456,-16.06428 15.97033,-20.75032 6.11657,-3.29236 6.97152,-3.46822 19.29688,-3.96935 12.61686,-0.51297 12.94088,-0.58361 14.93068,-3.25484 1.94048,-2.60503 1.97474,-3.16163 0.74555,-12.11449 -1.4822,-10.79568 -0.76733,-13.36615 3.9814,-14.3159 1.62009,-0.32401 2.94562,-0.9008 2.94562,-1.28175 0,-1.02318 -3.63783,-14.28679 -4.44746,-16.21555 -0.56116,-1.33683 0.3353,-1.95713 4.62571,-3.20075 2.92696,-0.8484 8.471822,-1.80721 12.321822,-2.13068 3.85,-0.32347 8.57493,-0.72107 10.49993,-0.88356 1.925,-0.16249 4.716,-0.11718 6.20223,0.10068 z m -19.60304,3.42959 c -2.18468,0.11075 -1.6238,0.35946 1.90088,0.8429 l 5,0.68579 -6,0.3073 -6,0.3073 4.5,0.69961 c 4.2971,0.66807 4.19831,0.70638 -2.19098,0.84981 -3.680112,0.0826 -6.911602,0.50704 -7.181162,0.9432 -0.26956,0.43615 2.51638,0.69884 6.191052,0.58375 3.6746,-0.11509 5.33109,-0.0156 3.68109,0.22106 -7.472572,1.07181 -9.500162,1.54075 -9.501432,2.19749 -7.5e-4,0.38758 2.58675,0.62823 5.750072,0.53477 l 5.75136,-0.16992 -4.70797,0.71122 c -7.059492,1.06646 -6.928672,2.10546 0.2913,2.3136 l 6.41667,0.18498 -5.5,0.37231 c -8.071412,0.54635 -8.728062,2.22312 -0.95,2.42584 l 6.45,0.16811 -6,0.66378 -6.000072,0.66378 7.000072,0.3447 7,0.34469 -7,0.59591 -7.000072,0.59591 6.500072,0.74505 c 16.49116,1.89026 18.70116,1.93093 19.30582,0.35521 0.31938,-0.83228 1.08683,-5.20995 1.70546,-9.72816 0.91014,-6.64729 0.87326,-8.38826 -0.19328,-9.12328 -0.72494,-0.4996 -4.64846,-0.65759 -8.71895,-0.35109 -4.07041,0.3065 -8.79541,0.62798 -10.49993,0.71438 z m 19.97404,23.61216 c -0.42747,1.34686 -3.57323,23.28311 -3.57323,24.91716 0,0.17247 0.63486,0.31358 1.41079,0.31358 0.77594,0 2.35133,-1.9125 3.50088,-4.25 2.17291,-4.41844 9.33965,-12.43032 14.9831,-16.75 2.35481,-1.80244 3.07432,-2.98829 2.57869,-4.25 -0.58238,-1.48255 -2.03626,-1.75 -9.51306,-1.75 -7.56371,0 -8.90592,0.25298 -9.38717,1.76926 z m -15.60834,0.165 c 1.55796,2.91108 1.45625,2.96469 -4.46482,2.35358 -4.08071,-0.42116 -5.500072,-0.23951 -5.500072,0.70393 0,0.88547 1.138722,1.13021 3.750072,0.80601 2.0625,-0.25606 4.875,-0.13517 6.25,0.26865 2.05768,0.60431 1.70382,0.77399 -2,0.95906 l -4.5,0.22484 4.23143,0.6896 c 4.83976,0.78873 6.30801,1.79959 4.36149,3.00264 -0.74203,0.4586 -1.03994,1.33413 -0.66202,1.94563 0.47268,0.76481 -1.04784,1.1118 -4.87188,1.1118 -3.05746,0 -5.55902,0.34074 -5.55902,0.75721 0,0.41646 2.07904,0.59185 4.62008,0.38975 6.18567,-0.49196 5.57265,2.10239 -0.69773,2.95285 -3.84222,0.52112 -3.98664,0.61951 -1.10092,0.75 1.82678,0.0826 3.99643,0.82519 4.82143,1.65019 1.33333,1.33333 1.13095,1.51669 -1.82143,1.65019 -2.93123,0.13255 -2.79277,0.23239 1.17857,0.84981 2.475,0.38479 3.4875,0.7672 2.25,0.84981 -1.2375,0.0826 -2.25,0.60019 -2.25,1.15019 0,0.55556 2.66667,1 5.99993,1 5.04449,0 6.00131,-0.27869 6.00821,-1.75 0.0133,-2.82709 2.01116,-19.47899 2.63562,-21.96703 0.55661,-2.21771 0.36878,-2.28297 -6.57061,-2.28297 -6.75271,0 -7.08688,0.10582 -6.10833,1.93426 z m -8.72648,-1.24718 c 0.95609,0.25029 2.75609,0.25937 4,0.0202 1.24391,-0.23919 0.46166,-0.44398 -1.73834,-0.45508 -2.2,-0.0111 -3.21775,0.18461 -2.26166,0.4349 z m -9.629702,1.60977 c -1.6599,1.21375 -1.67801,1.77444 -0.28251,8.75 0.82008,4.09923 2.02254,11.34766 2.67215,16.10761 l 1.1811,8.65446 2.91028,-0.83465 c 3.830572,-1.09858 3.759402,-0.16622 -0.0897,1.17557 -1.65,0.5752 -3,1.65383 -3,2.39696 0,1.08929 0.72677,1.0396 3.75,-0.25637 2.337572,-1.00202 6.825942,-1.64196 11.916122,-1.69897 6.95926,-0.0779 8.61063,0.23727 11.17505,2.13312 l 3.00908,2.22458 -0.56318,-5.72458 c -0.30975,-3.14852 -0.61355,-5.79494 -0.67512,-5.88093 -0.46871,-0.65459 -22.65049,-0.51944 -24.611952,0.14996 -2.25575,0.76986 -2.36591,0.68973 -1.12756,-0.8202 0.76603,-0.934 0.91559,-1.67341 0.33849,-1.67341 -1.11275,0 -1.04863,-2.49563 0.0935,-3.63772 1.07125,-1.07126 0.83915,-2.07588 -0.87582,-3.79085 -0.86428,-0.86429 -1.08928,-1.57143 -0.5,-1.57143 1.2021,0 1.39178,-5.38363 0.43551,-12.36043 -0.67931,-4.95604 -2.27866,-5.88495 -5.75537,-3.34272 z m 4.39129,9.70315 c 1.2819,0.82843 1.24555,0.9716 -0.25,0.98469 -0.9625,0.008 -1.75,-0.43469 -1.75,-0.98469 0,-1.21961 0.11279,-1.21961 2,0 z m 4.270902,-4.39583 c 0.3323,0.33229 1.1948,0.36781 1.91667,0.0789 0.79773,-0.31922 0.56078,-0.55618 -0.60417,-0.60416 -1.05416,-0.0434 -1.644862,0.19293 -1.3125,0.52522 z m 3.96751,2.08291 c 0.95609,0.25029 2.75609,0.25937 4,0.0202 1.24391,-0.23919 0.46166,-0.44398 -1.73834,-0.45508 -2.2,-0.0111 -3.21775,0.18461 -2.26166,0.4349 z m -4.238412,1.2193 c 0,1.49282 0.488172,1.77276 2.250072,1.29044 1.84521,-0.50513 1.93296,-0.68181 0.48776,-0.98206 -0.96924,-0.20137 -1.50518,-0.78207 -1.19099,-1.29044 0.3142,-0.50838 0.0947,-0.92432 -0.48775,-0.92432 -0.58246,0 -1.059092,0.85787 -1.059092,1.90638 z m -29.40403,20.84362 c -1.96334,1.66667 -1.99697,1.66667 -0.70629,0 1.1919,-1.53912 1.10656,-1.75 -0.70822,-1.75 -1.13488,0 -2.36577,0.4892 -2.7353,1.08712 -0.36953,0.59791 -1.62467,0.83796 -2.78919,0.53343 -1.43841,-0.37616 -3.07336,0.31736 -5.09895,2.16288 -1.6399,1.49411 -2.38122,1.92907 -1.64738,0.96657 2.29355,-3.00822 -0.5585,-1.94685 -4.03071,1.5 -1.80066,1.7875 -2.93372,2.6875 -2.51791,2 1.68845,-2.7917 -1.3108,-1.00593 -3.80693,2.26666 -9.39317,12.31508 -10.03735,31.624243 -1.42169,42.614673 4.43019,5.6513 8.4303,7.04481 20.63277,7.18778 9.43894,0.11059 10.66705,-0.0792 11.6429,-1.79891 0.60001,-1.05739 1.99093,-2.71703 3.09093,-3.68809 1.1,-0.97107 1.59276,-1.78054 1.09501,-1.79884 -0.49774,-0.0183 -0.17195,-0.84327 0.72399,-1.83327 1.52393,-1.68392 1.48018,-1.8 -0.67834,-1.8 -1.26903,0 -2.30733,0.56521 -2.30733,1.25601 0,0.69081 0.375,1.02425 0.83334,0.74098 1.49498,-0.92395 0.87609,0.32344 -0.85863,1.73057 -0.96388,0.78185 -1.38718,0.86428 -0.98369,0.19154 0.38955,-0.6495 0.24359,-1.46809 -0.32435,-1.8191 -0.56794,-0.35101 -0.73856,-1.11401 -0.37914,-1.69555 0.44746,-0.72401 0.10591,-0.75092 -1.08338,-0.0854 -2.10294,1.17686 -11.46608,-0.78706 -15.09805,-3.16682 -7.28114,-4.77079 -10.48887,-16.61472 -6.57669,-24.283223 2.69571,-5.28402 6.15448,-7.92748 12.96186,-9.90644 6.07567,-1.76624 13.25363,-1.38601 17.87164,0.9467 3.56205,1.79932 5.24173,1.20597 4.54995,-1.60726 -1.0618,-4.31795 0.9424,-0.78197 2.24641,3.9633 1.64181,5.97453 1.85705,3.8549 0.42298,-4.16535 -0.59006,-3.3 -1.11246,-6.5375 -1.16088,-7.19444 -0.0484,-0.65695 -0.35053,-1.16616 -0.67137,-1.13158 -2.14595,0.23126 -4.11994,-0.30572 -3.68873,-1.00344 0.66838,-1.08146 -3.11852,-0.80347 -4.12423,0.30275 -0.4237,0.46605 -0.13834,0.48069 0.63414,0.0325 0.92398,-0.53606 1.16962,-0.43478 0.71797,0.296 -0.37759,0.61096 -1.31196,0.87083 -2.07636,0.5775 -0.76441,-0.29333 -2.36354,-0.0122 -3.55363,0.6247 -1.19008,0.63691 -2.39003,0.93178 -2.66654,0.65526 -0.27652,-0.27652 0.77452,-1.19496 2.33564,-2.04098 3.73073,-2.0218 1.16985,-2.07205 -2.96125,-0.0581 l -3.20034,1.5602 2.5,-2.03796 2.5,-2.03796 -2.42126,-0.0222 c -1.33169,-0.0122 -3.34894,0.76526 -4.48277,1.72776 z m -27.62777,26.94098 c 0.0175,0.655043 -0.4182,1.469103 -0.9682,1.809023 -0.55,0.33992 -1,1.06803 -1,1.61803 0,0.55 0.46804,0.71074 1.04008,0.3572 0.68219,-0.42162 0.80584,0.3323 0.35933,2.19098 -0.87183,3.62914 -1.39941,4.22565 -1.39941,1.58224 0,-1.14668 -0.23493,-2.69709 -0.52207,-3.44536 -0.28713,-0.74826 0.14856,-2.24757 0.9682,-3.33178 0.81965,-1.084223 1.50457,-1.435373 1.52207,-0.780333 z m 0.83244,7.809023 c 0,1.1 -0.36029,3.125 -0.80064,4.5 -0.63397,1.97958 -0.80064,2.08367 -0.80064,0.5 0,-1.1 0.36029,-3.125 0.80064,-4.5 0.63397,-1.97958 0.80064,-2.08367 0.80064,-0.5 z m 2.38915,7 c -0.22473,1.925 -0.58437,3.5 -0.7992,3.5 -0.21482,0 -0.39059,-1.575 -0.39059,-3.5 0,-1.925 0.35964,-3.5 0.7992,-3.5 0.43956,0 0.61533,1.575 0.39059,3.5 z m 2.05949,3.31628 c 0.39998,1.82395 1.15012,3.05491 1.66698,2.73547 0.51686,-0.31943 1.22747,0.32574 1.57913,1.43373 0.35166,1.10799 1.22896,2.01452 1.94955,2.01452 0.7206,0 1.87037,0.675 2.55506,1.5 2.51978,3.03615 -2.36597,0.72057 -6.71446,-3.18228 -1.72416,-1.54747 -2.3343,-3.00195 -2.09747,-5 l 0.33398,-2.81772 z m 13.76972,9.70661 c 1.05678,1.27335 0.99492,1.41968 -0.37756,0.89301 -0.90279,-0.34643 -1.64144,-1.03173 -1.64144,-1.52289 0,-1.28596 0.57887,-1.10536 2.019,0.62988 z m 36.82934,-45.772893 c -2.43522,2.43846 0.7436,3.62395 9.890062,3.68833 5.71876,0.0403 9.60559,-0.41816 11.19182,-1.31997 2.36746,-1.34595 2.38037,-1.41878 0.5,-2.82025 -2.44867,-1.82504 -19.66798,-1.46449 -21.581882,0.45189 z m 11.839602,6.04481 c -6.42919,0.33744 -9.06451,0.0618 -11.512872,-1.20428 l -3.17507,-1.64189 0,7.446 c 0,5.77751 -0.6979,9.424553 -3.11452,16.275683 -3.59658,10.19629 -6.48544,16.73814 -9.02168,20.42963 -4.27128,6.21683 -3.93204,13.73958 1.09079,24.18851 2.37821,4.94737 2.20956,6.92259 -0.40576,4.75207 -1.24954,-1.03703 -2.45428,-0.39349 -7.22735,3.86068 -3.15033,2.80784 -11.29994,8.10616 -18.11024,11.77404 -18.07339,9.73392 -20.50937,13.64539 -25.73621,41.32475 -2.32633,12.31936 -2.54929,15.80472 -2.54942,39.85341 -8e-5,14.49438 0.48968,44.64438 1.08836,67 0.59869,22.35563 1.19566,46.60266 1.3266,53.8823 0.21255,11.81621 0.44836,13.3947 2.19876,14.7182 1.07837,0.81536 2.31197,1.4968 2.74134,1.51429 0.42937,0.0175 3.9353,1.81941 7.79094,4.00427 9.42441,5.34047 17.92408,7.81161 32.89011,9.56228 16.00603,1.87233 32.559532,1.86291 47.076292,-0.0268 33.85834,-4.40744 35.66733,-4.78748 40.92816,-8.59841 2.26182,-1.63846 4.61426,-2.66885 5.22763,-2.28977 0.63528,0.39262 0.83724,0.23947 0.46929,-0.35588 -0.35525,-0.57482 0.58772,-1.83901 2.0955,-2.80931 l 2.74141,-1.76419 -2,2.38549 c -1.9329,2.30546 -1.88258,2.29797 1.5,-0.22336 1.925,-1.43487 3.55625,-3.11368 3.625,-3.73069 0.0687,-0.61701 0.18125,-1.57184 0.25,-2.12184 0.0687,-0.55 0.82546,-1 1.68158,-1 1.3948,0 1.49329,-4.7027 0.9477,-45.25 -1.32104,-98.17602 -3.27789,-135.61731 -7.71867,-147.6851 -3.05336,-8.29751 -9.337,-13.8716 -23.21686,-20.59522 -12.24,-5.92924 -15.74645,-8.99304 -17.68059,-15.44862 -1.02528,-3.4221 -0.84028,-4.88684 1.54152,-12.20493 1.48865,-4.57387 3.55725,-10.56613 4.59689,-13.31613 2.29892,-6.08098 2.50673,-14.587 0.46049,-18.84887 -0.83211,-1.73312 -3.97189,-6.04315 -6.97727,-9.57785 -3.75802,-4.419883 -6.1189,-8.393663 -7.5605,-12.725653 l -2.09615,-6.29893 -2.91377,2.15424 c -2.27347,1.68086 -4.74596,2.25041 -11.25143,2.59188 z m -4.50037,2.8883 c -0.72187,0.28887 -1.58437,0.25335 -1.91667,-0.0789 -0.33229,-0.33229 0.25834,-0.56864 1.3125,-0.52522 1.16495,0.048 1.4019,0.28494 0.60417,0.60416 z m 1.8125,4.42268 c 0,1.08056 -3.69127,1.20307 -4.34502,0.14421 -0.25469,-0.4125 0.61876,-0.8149 1.94098,-0.89421 1.32222,-0.0793 2.40404,0.25818 2.40404,0.75 z m -1.26903,3.5872 c -0.97297,0.25354 -2.32297,0.23687 -3,-0.0371 -0.67703,-0.27393 0.11903,-0.48137 1.76903,-0.46099 1.65,0.0204 2.20394,0.2445 1.23097,0.49804 z m -5.54347,6.990123 c -0.72187,0.28887 -1.584442,0.25335 -1.916742,-0.0789 -0.33229,-0.33229 0.25834,-0.56864 1.312572,-0.52522 1.16495,0.048 1.4019,0.28494 0.60417,0.60416 z m 3.54347,2.00988 c -0.97297,0.25354 -2.32297,0.23687 -3,-0.0371 -0.67703,-0.27393 0.11903,-0.48137 1.76903,-0.46099 1.65,0.0204 2.20394,0.2445 1.23097,0.49804 z m -2.73097,3.80701 c 1.01247,1.21995 0.96484,1.5 -0.25511,1.5 -0.825,0 -2.060272,-0.675 -2.744962,-1.5 -1.01247,-1.21995 -0.96484,-1.5 0.25511,-1.5 0.825,0 2.060272,0.675 2.744962,1.5 z m -0.5,3.11841 c 2.84085,2.4114 2.86985,2.50859 0.54664,1.8321 -2.394842,-0.69731 -5.046712,-2.73566 -5.046712,-3.87908 0,-1.15321 1.57266,-0.43783 4.500072,2.04698 z m -2.520132,3.85742 c 0.78875,0.95039 0.86462,1.52417 0.20152,1.52417 -1.20855,0 -2.61759,-1.8972 -1.9241,-2.5907 0.2517,-0.2517 1.02686,0.22824 1.72258,1.06653 z m 0.90816,3.60516 c 2.413522,0.47403 4.663522,1.15738 5.000072,1.51857 0.9479,1.0173 -9.263812,-0.64396 -10.338172,-1.68183 -1.09395,-1.05679 -0.83306,-1.04881 5.3381,0.16326 z m -1.46324,4.49766 c 5.399922,1.97804 5.859602,2.82504 1.07514,1.98107 -2.2,-0.38809 -4.65893,-1.34778 -5.46429,-2.13266 -1.79934,-1.7536 -0.70904,-1.71594 4.38915,0.15159 z m -5.10283,4.17135 c 2.01892,1.9996 2.58531,2.24073 2.07564,0.88367 -0.61468,-1.63668 -0.44302,-1.72831 1.39501,-0.74463 1.15276,0.61694 2.33982,1.51633 2.6379,1.99863 0.862852,1.39601 -4.97799,0.73284 -6.78992,-0.77094 -1.90524,-1.5812 -2.09867,-0.84105 -0.54089,2.06969 0.79969,1.49423 0.79969,1.86948 0,1.37524 -2.85845,-1.76662 -0.6128,2.24777 3.41779,6.10976 4.60998,4.41714 4.769442,5.91532 0.25121,2.36133 -1.37552,-1.08198 -2.71397,-1.75422 -2.97432,-1.49386 -0.26036,0.26035 -1.29202,-0.43122 -2.29258,-1.53682 -1.44726,-1.59921 -1.60456,-2.48128 -0.76937,-4.31431 0.5774,-1.26727 0.88259,-3.74044 0.67819,-5.49594 -0.2044,-1.7555 -0.25769,-3.19182 -0.11843,-3.19182 0.13926,0 1.50265,1.2375 3.02977,2.75 z m -2.44612,8.51667 c 0.98762,0.98026 1.10248,0.8654 0.5598,-0.5598 -0.37553,-0.98622 -0.93469,-1.54122 -1.24258,-1.23333 -0.30789,0.30789 -6.4e-4,1.11479 0.68278,1.79313 z m 7.7191,-2.12116 c 1.891832,2.13061 1.889822,2.13752 -0.28932,0.99462 -2.43073,-1.27489 -3.92743,-3.14013 -2.51969,-3.14013 0.49721,0 1.76127,0.96548 2.80901,2.14551 z m -5.73014,8.30513 c 2.8468,3.01007 5.92819,5.8938 6.84754,6.40829 1.149082,0.64302 -0.18596,0.84477 -4.27043,0.64539 -7.66605,-0.37422 -7.44198,-0.32715 -7.44198,-1.56334 0,-0.58246 0.5625,-0.72108 1.25,-0.30804 1.52836,0.91821 -1.10833,-2.61182 -3.25,-4.35114 -2.99494,-2.43228 0.40702,-1.21024 3.90561,1.40296 3.12612,2.335 3.33383,2.38646 1.59439,0.39501 -1.1,-1.25936 -1.775,-2.43 -1.5,-2.60142 0.275,-0.17143 0.0904,-0.68668 -0.41033,-1.14502 -0.54255,-0.49666 -0.566,-0.22733 -0.058,0.66667 0.73472,1.29308 0.61888,1.31067 -0.83967,0.12756 -1.83173,-1.48582 -2.31969,-2.63355 -0.69196,-1.62756 0.55,0.33992 1,0.17898 1,-0.35765 0,-0.53663 -0.5625,-1.17658 -1.25,-1.42211 -0.6875,-0.24554 -0.9825,-0.73804 -0.65556,-1.09444 0.32694,-0.35641 2.92364,1.81477 5.77043,4.82484 z m -6.86567,19.29936 c -4.5e-4,0.4125 -2.13795,0.82209 -4.75,0.91019 -4.03418,0.13608 -4.29753,0.041 -1.7492,-0.63168 4.07561,-1.0758 6.50016,-1.1797 6.4992,-0.27851 z m -4.39615,3.41673 c 0.28324,0.4583 -1.08657,0.83327 -3.04403,0.83327 -1.95746,0 -3.55902,-0.17393 -3.55902,-0.3865 0,-0.82118 6.1159,-1.23499 6.60305,-0.44677 z m -7.85305,3.54952 c -1.5125,0.22913 -3.9875,0.22913 -5.5,0 -1.5125,-0.22912 -0.275,-0.41659 2.75,-0.41659 3.025,0 4.2625,0.18747 2.75,0.41659 z m 3.99217,1.87491 c -0.32513,0.32514 -3.43763,0.73038 -6.91666,0.90055 -5.48931,0.26849 -5.79673,0.19796 -2.32551,-0.53353 4.72127,-0.99491 10.08299,-1.20784 9.24217,-0.36702 z m -5.74217,4.52399 c 0,0.48667 -0.7875,0.92259 -1.75,0.96872 -8.24748,0.39527 -13.03642,0.31345 -12.45039,-0.2127 1.14139,-1.02479 14.20039,-1.72003 14.20039,-0.75602 z m -8.5,3.93086 c -6.86855,1.06982 -12.57868,0.98456 -6.5,-0.097 2.475,-0.44039 6.075,-0.77394 8,-0.74122 2.86196,0.0486 2.58851,0.20146 -1.5,0.83827 z m -1.58333,3.31311 c -0.22917,0.19752 -2.66667,0.61915 -5.41667,0.93696 -3.21675,0.37175 -4.2867,0.26874 -3,-0.28884 1.91052,-0.82789 9.28402,-1.39569 8.41667,-0.64812 z m -0.92459,3.39088 c -0.004,0.4125 -3.04185,0.8156 -6.75,0.89577 -6.30386,0.1363 -6.44959,0.0924 -2.24208,-0.67588 5.87782,-1.07322 9.0019,-1.14961 8.99208,-0.21989 z m -2.99208,4.24504 c -2.46877,0.79554 -11.72372,1.34229 -10.91667,0.64492 0.22917,-0.19802 3.34167,-0.60539 6.91667,-0.90528 3.9003,-0.32717 5.50011,-0.22304 4,0.26036 z m -2,5.056 c -2.475,0.44039 -5.85,0.77774 -7.5,0.74967 -2.21284,-0.0377 -1.81925,-0.26114 1.5,-0.85175 2.475,-0.44039 5.85,-0.77774 7.5,-0.74967 2.21284,0.0377 1.81925,0.26114 -1.5,0.85175 z m -2.75,4.61124 c -0.6875,0.27741 -1.8125,0.27741 -2.5,0 -0.6875,-0.27741 -0.125,-0.50439 1.25,-0.50439 1.375,0 1.9375,0.22698 1.25,0.50439 z m -5.0625,1.02083 c -0.72187,0.28887 -1.58437,0.25335 -1.91667,-0.0789 -0.33229,-0.33229 0.25834,-0.56864 1.3125,-0.52522 1.16495,0.048 1.4019,0.28494 0.60417,0.60416 z m 75.312502,2.38144 c 11.85372,1.09576 18.60476,2.4168 22.99337,4.49933 l 3.21374,1.52502 1.62489,16.49331 0.10507,52.30317 c 0.0693,34.48811 -1.12535,59.15701 -0.79751,62.26437 0.54973,5.21036 0.40618,5.77417 -1.8458,7.24973 -4.20124,2.75276 -14.46471,6.56067 -24.91529,8.23377 -7.24722,1.16026 -17.84751,2.86911 -27.596427,2.49696 -12.09727,-0.46179 -13.003013,-1.1945 -22.185873,-4.3579 -14.95038,-5.15025 -17.10773,-8.08346 -17.933558,-17.81623 l -0.412056,-4.85627 -4.500578,-0.36082 -5.75,-0.36082 5.81872,-0.18909 4.725506,-0.34526 -0.61291,-7.28146 c -0.320234,-3.80443 -1.051278,-56.7436 0.879572,-82.46796 0.78437,-10.45 1.254578,-19.80182 2.029346,-23.57575 l 1.227936,-5.98134 5.278285,-2.80295 c 11.466828,-6.08927 40.464527,-6.35122 58.653567,-4.66981 z m -38.075932,4.21959 c -11.16484,1.53637 -20.69306,2.78021 -20.00347,3.46979 0.21173,0.21173 3.14246,-0.15754 6.51273,-0.8206 3.37028,-0.66306 6.36485,-0.96848 6.65461,-0.67872 0.45078,0.45077 -10.34585,2.96415 -15.73095,3.66206 -0.35366,0.0458 -0.87209,0.6803 -1.15208,1.40993 -0.40268,1.04938 0.4631,1.16633 4.14301,0.55961 4.74216,-0.78184 12.38373,-1.00342 8.65208,-0.25088 -1.1,0.22183 -4.5875,0.90612 -7.75,1.52064 -3.1625,0.61453 -5.75,1.55768 -5.75,2.0959 0,0.58501 2.31252,0.76917 5.75,0.4579 l 5.75,-0.52068 -5.75,1.06731 c -5.34309,0.99178 -5.75,1.26142 -5.75,3.8103 0,2.63323 0.17006,2.7244 4.25,2.27856 2.3375,-0.25544 5.0375,-0.62049 6,-0.81123 0.9625,-0.19073 1.75,0.0611 1.75,0.55959 0,0.49851 -1.29375,0.90638 -2.875,0.90638 -4.19116,0 -9.125,1.12199 -9.125,2.0751 0,0.4538 2.5875,0.98746 5.75,1.18591 l 5.75,0.36082 -6.25,0.18909 c -4.97334,0.15046 -6.25,0.51465 -6.25,1.78292 0,1.3228 0.89278,1.50446 5.25,1.06823 l 5.25,-0.5256 -5.2948,1.07987 c -3.99516,0.81481 -5.21716,1.47306 -4.9785,2.68176 0.23999,1.2154 1.39688,1.56148 4.7948,1.43436 l 4.4785,-0.16754 -4.71282,1.07819 c -5.23394,1.19742 -4.435015,-0.41873 -5.994815,14.4072 -0.66651,6.33515 -0.120675,7.57839 6.565495,6.67735 1.89205,-0.25498 3.73711,0.017 4.10013,0.60437 0.44029,0.71241 -1.377533,0.66307 -5.39897,1.06797 l -4.653421,0.46853 c 0.621313,2.08664 -1.079609,3.44417 -1.405599,5.53147 l 6.75,0.1681 c 4.13968,0.1031 5.20315,0.30285 2.75,0.51655 -8.69429,0.75735 -8.5,0.56445 -8.5,8.43944 l 0,7.08598 4,-0.38146 c 2.2,-0.2098 4,-0.0579 4,0.33747 0,0.39541 -1.9125,0.8573 -4.25,1.02642 l -4.25,0.3075 -0.2999,5.75 -0.29991,5.75 3.57466,0 c 3.68173,0 3.95114,-0.3089 6.00021,-6.87983 0.72738,-2.33255 0.6456,-2.3677 -4.11647,-1.76942 -3.28303,0.41247 -4.21002,0.31522 -2.85859,-0.29988 1.1,-0.50067 3.41075,-0.94193 5.13499,-0.98058 2.20882,-0.0495 3.62816,-0.82297 4.80433,-2.61803 4.02732,-6.14647 13.84289,-8.24261 23.06068,-4.92468 2.2,0.79188 6.700072,1.71588 10.000072,2.05333 5.72157,0.58506 6.13157,0.47474 8.83518,-2.37732 2.24639,-2.3698 2.94593,-4.21293 3.36877,-8.87615 0.74067,-8.16824 -0.24041,-8.87184 -10.0681,-7.22049 -12.963812,2.1783 -19.987512,-1.62881 -23.164062,-12.55575 -2.73122,-9.39508 -0.32788,-17.64164 6.64656,-22.80626 2.95117,-2.18537 11.384612,-2.6165 14.854632,-0.7594 2.30197,1.23198 2.45859,0.99744 3.49368,-5.2316 0.34237,-2.06033 1.65031,-4.94097 2.90653,-6.40142 3.32358,-3.86396 6.57703,-2.72923 9.65764,3.3684 2.03333,4.02469 2.44279,6.40135 2.59395,15.05619 0.1675,9.59073 0.0295,10.39027 -2.06688,11.97155 l -2.24637,1.69444 3.92113,2.84045 c 5.74392,4.16087 7.15479,8.24218 7.2158,20.87349 0.0496,10.26761 -0.0582,10.81249 -2.94853,14.91094 -4.72972,6.70659 -9.09592,8.44526 -20.99993,8.36248 -5.500072,-0.0382 -12.475072,-0.22732 -15.500072,-0.42015 -10.44358,-0.66572 -13.00246,1.10702 -13.31666,9.22554 -0.34541,8.92486 4.77726,15.20261 13.74326,16.84216 4.55724,0.83335 6.13672,0.22264 12.295042,-4.75386 2.32187,-1.8763 6.22023,-4.29556 8.66302,-5.37612 5.27844,-2.33494 7.58639,-1.7445 14.12537,3.6137 2.37483,1.946 5.5941,3.6282 7.15393,3.73823 2.4787,0.17483 2.87347,-0.18192 3.1331,-2.83144 0.21584,-2.20262 -0.39935,-3.68571 -2.25,-5.42431 -3.04993,-2.86526 -3.29279,-5.61593 -0.55895,-6.33085 4.3044,-1.12562 10.01189,6.48677 10.01189,13.35339 0,6.46698 -5.38162,12.93325 -10.76383,12.93325 -1.07538,0 -4.72856,-1.43031 -8.11818,-3.17847 l -6.16293,-3.17848 -2.72753,2.1878 c -6.05363,4.85577 -10.53897,7.28882 -15.01719,8.14605 -5.756522,1.1019 -21.464242,0.49277 -24.133702,-0.93588 -1.06984,-0.57256 -5.1513,-1.04102 -9.06992,-1.04102 -4.70135,0 -6.905,-0.35557 -6.47868,-1.04537 0.39338,-0.63651 2.96324,-0.84182 6.57052,-0.52494 l 5.92443,0.52043 -2.19955,-2.97506 c -1.75553,-2.37449 -3.01954,-3.00899 -6.2615,-3.14316 l -4.06194,-0.16811 3.69667,-0.38908 c 2.61919,-0.27568 3.54374,-0.78761 3.172,-1.75637 -0.35515,-0.9255 -1.71114,-1.23514 -4.19668,-0.9583 l -3.67199,0.40898 3.25,-1.12917 c 1.7875,-0.62104 3.25,-1.67398 3.25,-2.33985 0,-0.66587 -1.4625,-1.67984 -3.25,-2.25325 l -3.25,-1.04257 2.86663,-0.10209 c 2.46748,-0.0879 2.78267,-0.41538 2.26366,-2.35209 -0.33164,-1.2375 -0.60913,-2.8125 -0.61664,-3.5 -0.008,-0.6875 -0.80115,-1.3022 -1.76365,-1.366 -1.66667,-0.11048 -1.66667,-0.13778 0,-0.57333 0.9625,-0.25152 1.75,-1.32432 1.75,-2.38399 0,-1.14412 -0.7108,-1.95243 -1.75,-1.99007 -1.34081,-0.0486 -1.2239,-0.27485 0.5,-0.96777 3.38329,-1.35992 2.70587,-2.96884 -1.25,-2.96884 l -3.5,0 0,5.843 c 0,3.21365 0.29415,11.31365 0.65368,18 l 0.65367,12.157 8.59633,0.20564 8.59632,0.20563 -8.75,0.3333 c -7.21233,0.27472 -8.75,0.61425 -8.75,1.93204 0,1.33259 0.87402,1.50618 5.25,1.04272 2.8875,-0.30582 6.15,-0.17441 7.25,0.29203 1.37804,0.58434 -0.0991,0.86993 -4.75,0.91835 -5.4494,0.0567 -6.75,0.37407 -6.75,1.64691 0,1.14858 0.88234,1.52831 3.25,1.39868 6.15868,-0.33718 11.08153,0.0265 10.34387,0.76416 -0.40671,0.40671 -3.74421,0.61151 -7.41667,0.45511 -4.8144,-0.20502 -6.25873,0.003 -5.1772,0.74523 0.825,0.56626 5.5125,1.03646 10.41667,1.04489 4.90416,0.008 8.59157,0.34041 8.19423,0.73775 -0.39734,0.39734 -4.18484,0.6098 -8.41667,0.47213 -7.05896,-0.22963 -7.53396,-0.12415 -5.7531,1.27756 1.06762,0.84033 3.99262,1.5595 6.5,1.59815 2.50738,0.0387 5.45887,0.47805 6.55887,0.97642 1.46231,0.66251 0.92462,0.78353 -2,0.45013 -3.58131,-0.40825 -3.37196,-0.24114 2,1.59651 3.80685,1.30226 10.031527,3.45288 17.842707,3.986 14.488735,0.98886 25.260935,0.52059 38.254685,-4.37446 l 13.47107,-5.07487 -0.96896,-7.60137 0.68473,-60.1303 -0.28423,-67.73168 -5.5,-1.64691 c -11.50007,-3.44356 -39.06558,-3.64518 -56.575932,-1.23561 z m -16.42407,15.06793 c -3.575,0.69556 -6.6875,1.12588 -6.91667,0.95629 -0.99785,-0.73847 0.84742,-1.18825 6.92275,-1.68739 l 6.49392,-0.53354 z m 0.23209,26.37266 c -1.79735,0.22256 -4.49735,0.21797 -6,-0.0102 -1.50265,-0.22818 -0.0321,-0.41027 3.26791,-0.40466 3.3,0.006 4.52944,0.1923 2.73209,0.41486 z m -1,7 c -1.79735,0.22256 -4.49735,0.21797 -6,-0.0102 -1.50265,-0.22818 -0.0321,-0.41027 3.26791,-0.40466 3.3,0.006 4.52944,0.1923 2.73209,0.41486 z m 0,7 c -1.79735,0.22256 -4.49735,0.21797 -6,-0.0102 -1.50265,-0.22818 -0.0321,-0.41027 3.26791,-0.40466 3.3,0.006 4.52944,0.1923 2.73209,0.41486 z m 5.26791,7.78162 c -2.26669,0.78984 -13.3442,1.05058 -12.88231,0.30322 0.27519,-0.44527 3.51129,-0.77404 7.19133,-0.73062 3.68004,0.0434 6.24098,0.23575 5.69098,0.4274 z m -5,5.44695 c -1.91971,0.86975 -7.27585,1.43683 -6.41667,0.67936 0.22917,-0.20204 2.21667,-0.64142 4.41667,-0.97641 2.7878,-0.42449 3.3939,-0.33447 2,0.29705 z m -0.75,3.76295 c -1.5125,0.22913 -3.9875,0.22913 -5.5,0 -1.5125,-0.22912 -0.275,-0.41659 2.75,-0.41659 3.025,0 4.2625,0.18747 2.75,0.41659 z M 111.45304,219.3178 c -2.38153,3.7527 -3.02039,12.07161 -1.19774,15.59623 0.86874,1.67995 1.57952,3.5643 1.57952,4.18744 0,2.21643 -2.44361,0.26888 -4.51973,-3.60221 -1.15967,-2.1623 -2.97964,-4.06268 -4.04438,-4.22306 -8.816442,-1.328 -10.030932,-1.25843 -13.246142,0.75869 -8.82729,5.53797 -8.34807,22.60317 0.81018,28.8504 3.15952,2.15523 4.2296,2.33315 11.000072,1.82888 4.125,-0.30724 8.48711,-0.84921 9.69358,-1.20437 1.59671,-0.47005 2.92149,0.0822 4.86899,2.02973 2.43717,2.43717 2.61543,3.12825 2.00124,7.75826 -0.83409,6.28767 -2.58027,9.76457 -6.60462,13.15089 -3.8415,3.23241 -5.2164,3.24339 -16.466292,0.13154 -10.86067,-3.00421 -14.97907,-3.12316 -19.19208,-0.55433 -2.65832,1.62088 -8.30089,10.67656 -8.30089,13.32198 0,0.3229 1.2375,0.77455 2.75,1.00368 2.55956,0.38774 2.52493,0.42696 -0.5,0.56642 -2.53339,0.11679 -3.25,0.59082 -3.25,2.14983 0,1.54554 0.66667,2 2.9339,2 2.33355,0 3.51333,-0.86273 5.76551,-4.21615 3.65767,-5.44615 7.05012,-6.28549 20.57488,-5.09055 17.936552,1.58475 25.648122,-0.87522 29.871132,-9.52877 1.86742,-3.82662 2.03376,-5.34597 1.41719,-12.9448 -0.91116,-11.22954 -2.31895,-14.40659 -7.80957,-17.62431 -5.10388,-2.99107 -8.92849,-3.25568 -14.34508,-0.99249 -4.14776,1.73305 -10.467012,1.42288 -12.947182,-0.63548 -0.80343,-0.66679 -1.46078,-2.69958 -1.46078,-4.51731 0,-3.71975 3.71701,-7.45014 7.42342,-7.45014 2.256372,0 7.352942,2.32401 11.549162,5.26632 2.65483,1.86153 6.67916,2.24045 8.89381,0.83742 0.93938,-0.59512 1.2274,-2.23101 0.92164,-5.23469 -0.24462,-2.40298 -0.0918,-5.6471 0.33965,-7.20917 0.62817,-2.27446 0.49441,-2.72884 -0.67164,-2.28138 -0.97573,0.37442 -1.45604,-0.10126 -1.45604,-1.442 0,-1.10041 -0.65204,-3.56128 -1.44897,-5.46862 -1.58593,-3.79566 -0.52297,-4.84945 1.22848,-1.21788 0.59682,1.2375 1.1139,1.8 1.14907,1.25 0.0992,-1.55207 -3.77947,-7.5 -4.89083,-7.5 -0.54533,0 -1.63412,1.0125 -2.41946,2.25 z m 1.80232,7.5 c 1.15518,6.77591 1.09714,8.54866 -0.29554,9.02738 -0.83843,0.28819 -1.19441,-0.064 -0.91223,-0.90238 0.25452,-0.75625 -0.0749,-1.825 -0.73199,-2.375 -1.29716,-1.0857 -0.84115,-9.5 0.51485,-9.5 0.43206,0 1.07327,1.6875 1.42491,3.75 z m -22.943602,15.25 c -0.49879,0.825 -1.20385,3.3 -1.56679,5.5 l -0.65989,4 -0.12516,-4.12756 c -0.0845,-2.78579 0.42484,-4.5737 1.56679,-5.5 1.45997,-1.18426 1.56761,-1.16677 0.78505,0.12756 z m 30.405372,29.78212 c 0.1272,3.54955 -2.50946,10.92413 -3.53801,9.89559 -0.34615,-0.34616 -0.0816,-1.28934 0.58779,-2.09597 0.66944,-0.80663 1.58064,-3.63 2.02488,-6.27417 0.66667,-3.96802 0.82826,-4.23441 0.92534,-1.52545 z M 94.406178,244.63923 c -2.45028,2.45027 -1.89977,5.04993 1.35485,6.39803 2.86158,1.18531 4.766122,0.97243 10.311082,-1.15256 3.14155,-1.20394 2.81532,-2.2041 -1.5964,-4.89421 -3.81401,-2.32566 -7.950832,-2.46996 -10.069532,-0.35126 z m -21.39202,66.51264 c 0.36861,3.86529 -0.67027,4.18754 -1.3409,0.41593 -0.2347,-1.31999 -1.28365,-2.10719 -3.08511,-2.31527 -2.58778,-0.2989 -2.69775,-0.14313 -2.11788,3 0.3364,1.8234 1.25487,3.83232 2.04106,4.46427 1.06783,0.85834 1.11826,1.25272 0.19937,1.55902 -2.0468,0.68226 0.0571,2.78262 2.93307,2.92816 2.35689,0.11928 2.41164,0.18999 0.44098,0.56955 -3.78271,0.72859 -2.50432,2.28578 2,2.43617 l 4.25,0.14191 -3.82017,0.60809 -3.82018,0.6081 3.16123,3.22177 c 3.84974,3.92346 6.94675,4.57102 19.72556,4.12445 10.584142,-0.36988 11.565802,-0.76696 21.121592,-8.54363 l 3.36803,-2.74095 5.8112,3.21918 c 10.5633,5.85166 16.22634,3.56023 16.38177,-6.62852 0.0791,-5.1877 -3.28817,-11.17961 -6.24712,-11.11634 -1.27795,0.0273 -1.02641,0.57277 1.04728,2.27098 6.22888,5.101 3.54715,13.56756 -3.91394,12.35679 -1.95318,-0.31696 -5.12176,-2.06308 -7.27688,-4.0101 -7.04037,-6.36056 -9.25967,-6.15079 -20.5374,1.94114 -6.838892,4.90693 -8.456322,5.6397 -12.279002,5.56297 -8.96823,-0.18001 -17.06085,-8.47301 -17.33797,-17.76727 -0.0638,-2.13976 -0.33134,-3.05341 -0.59453,-2.03034 -0.2632,1.02307 -0.31272,3.59884 -0.11006,5.72394 z m 44.320592,4.91593 c 0.35206,0.56965 -0.51153,1 -2.00672,1 -1.44362,0 -3.49511,0.46583 -4.55895,1.03518 -1.34685,0.72082 -1.93426,0.7133 -1.93426,-0.0248 0,-1.10423 4.11963,-3.01043 6.50601,-3.01043 0.75674,0 1.654,0.45 1.99392,1 z m 21.5,5.83087 c 0,1.29662 -2.74049,3.4286 -3.87382,3.01367 -0.51759,-0.1895 0.14228,-1.15305 1.46638,-2.14122 1.32409,-0.98818 2.40744,-1.38078 2.40744,-0.87245 z M 65.834748,305.9543 c 0,1.3316 0.88243,2.01601 3,2.32681 2.59994,0.38159 3,0.13002 3,-1.8865 0,-1.91868 -0.52621,-2.32681 -3,-2.32681 -2.27317,0 -3,0.45706 -3,1.8865 z m -11.08333,-98.52738 c -0.22917,0.19752 -2.66667,0.61915 -5.41667,0.93696 -3.21675,0.37175 -4.2867,0.26874 -3,-0.28884 1.91052,-0.82789 9.28402,-1.39569 8.41667,-0.64812 z m -8.66667,18.30316 c -0.6875,0.27741 -1.8125,0.27741 -2.5,0 -0.6875,-0.27741 -0.125,-0.50439 1.25,-0.50439 1.375,0 1.9375,0.22698 1.25,0.50439 z m 1.9375,6.02083 c -0.72187,0.28887 -1.58437,0.25335 -1.91667,-0.0789 -0.33229,-0.33229 0.25834,-0.56864 1.3125,-0.52522 1.16495,0.048 1.4019,0.28494 0.60417,0.60416 z m 3.8125,5.87525 c -3.71578,0.80844 -8.81427,0.95014 -8.37084,0.23265 0.26888,-0.43506 2.59982,-0.73881 5.17986,-0.67501 2.58004,0.0638 4.01598,0.26286 3.19098,0.44236 z m -5.8125,4.12475 c -0.72187,0.28887 -1.58437,0.25335 -1.91667,-0.0789 -0.33229,-0.33229 0.25834,-0.56864 1.3125,-0.52522 1.16495,0.048 1.4019,0.28494 0.60417,0.60416 z m -0.45653,22.00988 c -0.97297,0.25354 -2.32297,0.23687 -3,-0.0371 -0.67703,-0.27393 0.11903,-0.48137 1.76903,-0.46099 1.65,0.0204 2.20394,0.2445 1.23097,0.49804 z m -3.48097,10.96929 c -0.6875,0.27741 -1.8125,0.27741 -2.5,0 -0.6875,-0.27741 -0.125,-0.50439 1.25,-0.50439 1.375,0 1.9375,0.22698 1.25,0.50439 z m 0.48097,6.03071 c -0.97297,0.25354 -2.32297,0.23687 -3,-0.0371 -0.67703,-0.27393 0.11903,-0.48137 1.76903,-0.46099 1.65,0.0204 2.20394,0.2445 1.23097,0.49804 z m -0.23097,4.30701 c -2.75248,1.18278 -3.731,1.18278 -3,0 0.33992,-0.55 1.60398,-0.96837 2.80902,-0.92971 2.11236,0.0678 2.11922,0.10112 0.19098,0.92971 z m 0.75,5.70573 c -1.2375,0.23836 -3.2625,0.23836 -4.5,0 -1.2375,-0.23835 -0.225,-0.43337 2.25,-0.43337 2.475,0 3.4875,0.19502 2.25,0.43337 z m 3.48625,4.01185 c -1.52006,0.22986 -3.77006,0.22371 -5,-0.0136 -1.22994,-0.23736 0.0137,-0.42542 2.76375,-0.41792 2.75,0.008 3.75631,0.20172 2.23625,0.43157 z m 3.50209,22.98968 c -1.24391,0.23919 -3.04391,0.23011 -4,-0.0202 -0.95609,-0.25029 0.0617,-0.446 2.26166,-0.4349 2.2,0.0111 2.98225,0.21589 1.73834,0.45508 z m -4.98834,6.95502 c -0.6875,0.27741 -1.8125,0.27741 -2.5,0 -0.6875,-0.27741 -0.125,-0.50439 1.25,-0.50439 1.375,0 1.9375,0.22698 1.25,0.50439 z m 8.48625,19.0553 c -1.52006,0.22986 -3.77006,0.22371 -5,-0.0136 -1.22994,-0.23736 0.0137,-0.42542 2.76375,-0.41792 2.75,0.008 3.75631,0.20172 2.23625,0.43157 z m 7.99472,12.97541 c -0.97297,0.25354 -2.32297,0.23687 -3,-0.0371 -0.67703,-0.27392 0.11903,-0.48137 1.76903,-0.46099 1.65,0.0204 2.20394,0.2445 1.23097,0.49804 z m -5.54347,-0.01 c -0.72187,0.28887 -1.58437,0.25334 -1.91667,-0.079 -0.33229,-0.33229 0.25834,-0.56864 1.3125,-0.52522 1.16495,0.048 1.4019,0.28494 0.60417,0.60417 z m 8.0625,3.05731 c -3.4375,0.19527 -9.0625,0.19527 -12.5,0 -3.4375,-0.19527 -0.625,-0.35504 6.25,-0.35504 6.875,0 9.6875,0.15977 6.25,0.35504 z m 7.98834,4.96686 c -1.24391,0.23919 -3.04391,0.23011 -4,-0.0202 -0.95609,-0.25029 0.0617,-0.446 2.26166,-0.4349 2.2,0.0111 2.98225,0.21589 1.73834,0.45508 z m -7.48834,-0.0178 c -0.9625,0.25153 -2.5375,0.25153 -3.5,0 -0.9625,-0.25153 -0.175,-0.45732 1.75,-0.45732 1.925,0 2.7125,0.20579 1.75,0.45732 z m -7.01903,1.00367 c -0.97297,0.25354 -2.32297,0.23686 -3,-0.0371 -0.67703,-0.27393 0.11903,-0.48137 1.76903,-0.46099 1.65,0.0204 2.20394,0.2445 1.23097,0.49804 z m -5.48097,-0.0307 c -0.6875,0.27741 -1.8125,0.27741 -2.5,0 -0.6875,-0.27742 -0.125,-0.50439 1.25,-0.50439 1.375,0 1.9375,0.22697 1.25,0.50439 z m 17.48625,5.0553 c -1.52006,0.22985 -3.77006,0.22371 -5,-0.0136 -1.22994,-0.23737 0.0137,-0.42543 2.76375,-0.41792 2.75,0.008 3.75631,0.20171 2.23625,0.43157 z m -9.00528,-0.0246 c -0.97297,0.25354 -2.32297,0.23686 -3,-0.0371 -0.67703,-0.27393 0.11903,-0.48137 1.76903,-0.46099 1.65,0.0204 2.20394,0.2445 1.23097,0.49804 z m -6,1 c -0.97297,0.25354 -2.32297,0.23686 -3,-0.0371 -0.67703,-0.27393 0.11903,-0.48137 1.76903,-0.46099 1.65,0.0204 2.20394,0.2445 1.23097,0.49804 z m 89.269032,0.96736 c 18.24234,3.12676 26,5.21287 26,6.99167 0,1.3059 -2.51029,1.40187 -4.5,0.17203 -2.39107,-1.47791 -21.4518,-4.92217 -26.06448,-4.70983 -2.78546,0.12823 -5.50158,-0.037 -6.03581,-0.36718 -0.53424,-0.33017 -5.65101,-0.6277 -11.3706,-0.66118 -8.5057,-0.0498 -10.76094,0.25551 -12.386,1.67665 -1.09276,0.95562 -1.66171,1.18114 -1.26435,0.50114 0.99172,-1.6971 -4.77381,-0.99972 -7.05842,0.85376 -1.455662,1.18091 -1.580642,1.17749 -0.85674,-0.0235 0.69081,-1.1462 0.21799,-1.27489 -2.558112,-0.69625 -1.87302,0.39041 -7.00549,0.9344 -11.40549,1.20886 -11.93157,0.74425 -20.64846,2.12628 -34.21199,5.4242 -6.7166,1.63311 -12.6791,2.96929 -13.25,2.96929 -1.99401,0 -1.01895,-1.96598 1.21199,-2.44369 1.2375,-0.26499 8.00113,-1.84349 15.03029,-3.50779 7.02916,-1.66429 18.05416,-3.52282 24.5,-4.13006 6.44584,-0.60725 15.76971,-1.69377 20.719782,-2.41448 8.41589,-1.22535 37.93304,-1.7978 43.49993,-0.84364 z m -94.083332,-0.30398 c -0.22917,0.196 -1.99167,0.64537 -3.91667,0.9986 -2.46242,0.45185 -3.05532,0.35075 -2,-0.34105 1.35564,-0.88865 6.90843,-1.50577 5.91667,-0.65755 z m 7.08333,11.0212 c 0,0.20765 -0.7875,0.99515 -1.75,1.75 -1.58606,1.24387 -1.62143,1.2085 -0.37756,-0.37756 1.30637,-1.66575 2.12756,-2.19548 2.12756,-1.37244 z m 119.844962,1.58755 c -0.20853,0.62558 -1.94645,2.05738 -3.86205,3.18178 -1.9156,1.12439 -2.58291,1.31778 -1.48291,0.42974 1.1,-0.88803 2.83792,-2.31983 3.86205,-3.18177 1.02413,-0.86194 1.69144,-1.05533 1.48291,-0.42975 z m -7.84496,5.48353 c 0,0.275 -1.35,1.19811 -3,2.05136 -1.65,0.85325 -3,1.32636 -3,1.05136 0,-0.275 1.35,-1.19811 3,-2.05136 1.65,-0.85325 3,-1.32636 3,-1.05136 z m -39.08599,5.16958 c -1.32771,1.71502 -2.61515,2.93888 -2.86098,2.71969 -0.24583,-0.21918 0.84047,-1.62238 2.41401,-3.11821 l 2.86098,-2.7197 z m 30.59402,0.39477 c 0.33677,0.54491 -0.60217,1.4525 -2.08654,2.01686 -3.5754,1.35936 -4.09628,0.64231 -1.00485,-1.38328 1.52139,-0.99684 2.71561,-1.2416 3.09139,-0.63358 z m -93.072322,0.28014 c -0.37553,0.98622 -0.93469,1.54122 -1.24258,1.23333 -0.30789,-0.30789 -6.4e-4,-1.11479 0.68278,-1.79313 0.98762,-0.98026 1.10248,-0.8654 0.5598,0.5598 z m 73.564292,3.70687 c -1.93876,1.25292 -3,1.25292 -3,0 0,-0.55 1.0125,-0.99311 2.25,-0.98469 1.81944,0.0124 1.96296,0.20082 0.75,0.98469 z M 64.112408,87.724587 c -9.17248,4.64085 -11.39709,12.964643 -6.02857,22.556993 2.95917,5.28738 7.33025,7.08089 16.11973,6.61411 10.52645,-0.55903 14.51895,-2.88137 16.82735,-9.78809 1.69528,-5.07228 1.71324,-5.79646 0.25281,-10.193413 -2.99659,-9.02189 -6.6678,-11.57048 -16.93463,-11.7562 -3.5457,-0.0641 -6.50224,0.67714 -10.23669,2.5666 z m 15.22942,41.331763 c -0.35034,0.56686 0.0511,0.7345 0.94098,0.39301 1.73242,-0.66479 2.04939,-1.38156 0.61096,-1.38156 -0.51754,0 -1.21592,0.44485 -1.55194,0.98855 z"
     id="path10331"
     inkscape:connector-curvature="0"
     sodipodi:nodetypes="sscsssssscsssssssscssssssssssssssssssssssssscccssssssscsscsscccccccsssssssssssssssssssscscsssssssssssscsssccscccsscsssssscscscscsssccscsscccccccsccsssssscsssssssssssssssssssssccsssssssccsscssscsscccsccsssssssssssssssssssscssssscssssscssscsscsssssssssssscssssscscssccsssssssssscsscccccscsscccccccccccccccsssssccscssssssssssssssscssssscsssssssssccscccsssssscccssscccccsscsssssssscsscsssscscccsssscsscssssscscssssscccccssccssssssscccccssscsssssscsssssscsssssssscssscssscsssssccssscssscccssssssssssssssssssscssssssssssssssssscsssssscsscssscsssccscssscsscsscccsssssssssccssscsssssccccssscscssscssscssscsssssssssssssssssssssssssssssssssssssssssssscsssscssscccsssscssssccsssssssssssssssscccssscsscsssssssscssssccssssssssssssssssscccccssssccccccccccsssscccccsscssssscccccccsccsssscccccccccccccccssssccsccsssscccccccsccccccccccccccccsssscsssccsssssssssssssssssssssssssssscscssssssssssscsssssscsscss" />
  <path
     style="fill:#00f4ff;stroke:#000000;stroke-width:1px;stroke-linecap:butt;stroke-linejoin:miter;stroke-opacity:1;fill-opacity:0.34513274"
     d="m 76.862288,133.40466 -13.693856,-0.88347 -10.159957,-0.44174 -8.393009,-4.85911 -6.626059,-13.69386 0,-13.25212 2.208686,-9.276479 5.742585,-11.043432 9.276483,-5.742585 9.276483,-3.533898 16.786017,0 10.601695,-0.441738 1.766949,9.718221 0.883475,15.019068 -1.325212,3.533898 -5.742585,-11.48517 -11.926907,-3.533898 -12.810381,3.975636 -9.276483,8.393008 2.208686,12.810379 3.533899,6.18432 7.509534,3.5339 16.786017,0 4.417372,-1.32521 -7.951271,18.11123 z"
     id="path10847"
     inkscape:connector-curvature="0" />
  <path
     style="fill:#04c01d;stroke:none;stroke-width:1px;stroke-linecap:butt;stroke-linejoin:miter;stroke-opacity:1;fill-opacity:0.46929824"
     d="m 82.149479,244.26745 1.249421,8.74595 3.43591,6.55946 7.808886,4.99769 9.995374,-0.62471 9.37066,-0.62471 3.43591,4.06062 -0.93706,10.62008 -5.93476,5.93476 -4.68533,1.56177 -20.927812,-4.37297 -9.683019,1.56177 -5.622398,6.55947 -4.372976,10.30773 -0.624711,12.18186 3.43591,11.24479 6.559464,10.30773 23.426658,1.24943 8.433594,-2.18649 11.55715,-9.05831 7.49653,3.74827 8.74596,3.43591 5.31004,-3.74827 2.18649,-7.18417 -2.18649,-9.37067 -5.6224,-4.68533 -1.87413,1.87413 3.12355,4.06062 2.18649,5.6224 -2.49884,3.74827 -5.93476,-1.24942 -8.43359,-6.24711 -5.31005,-1.24943 -5.31004,3.12356 -11.869504,6.24711 -5.934753,2.8112 -7.496531,-1.24943 -5.310042,-4.68533 -3.43591,-5.31004 -1.561777,-8.74595 2.186488,-6.24711 4.685331,-2.8112 5.622398,0 24.67608,-0.31235 7.80889,-0.93707 4.99768,-4.37298 3.74827,-5.93475 0,-10.93244 -0.62471,-11.2448 -3.74827,-6.2471 -6.55946,-5.31005 -7.18418,0 -6.87182,2.49885 -6.559461,0 -4.372976,-1.87414 0,-2.81119 1.874132,-4.99769 4.997687,-0.93707 9.370668,4.99769 7.80888,1.24942 4.99769,-2.18649 0.31235,-12.18186 -0.62471,-10.62008 -5.93475,-6.24711 -3.43591,0 -4.06062,7.18417 1.56178,7.80889 2.49884,6.55946 -7.18418,-8.12124 -10.932436,-1.56178 -5.622398,3.43591 -5.310042,7.18418 0,9.68302 2.811199,7.49653"
     id="path10947"
     inkscape:connector-curvature="0" />
</svg>
