<?xml version="1.0" encoding="UTF-8" standalone="no"?>
<!-- Created with Inkscape (http://www.inkscape.org/) -->

<svg
   xmlns:dc="http://purl.org/dc/elements/1.1/"
   xmlns:cc="http://creativecommons.org/ns#"
   xmlns:rdf="http://www.w3.org/1999/02/22-rdf-syntax-ns#"
   xmlns:svg="http://www.w3.org/2000/svg"
   xmlns="http://www.w3.org/2000/svg"
   xmlns:sodipodi="http://sodipodi.sourceforge.net/DTD/sodipodi-0.dtd"
   xmlns:inkscape="http://www.inkscape.org/namespaces/inkscape"
   id="svg4415"
   version="1.1"
   inkscape:version="0.48.4 r9939"
   width="234"
   height="355"
   sodipodi:docname="Poison.svg">
  <metadata
     id="metadata4421">
    <rdf:RDF>
      <cc:Work
         rdf:about="">
        <dc:format>image/svg+xml</dc:format>
        <dc:type
           rdf:resource="http://purl.org/dc/dcmitype/StillImage" />
        <dc:title />
      </cc:Work>
    </rdf:RDF>
  </metadata>
  <defs
     id="defs4419">
    <filter
       id="filter5097"
       y="-0.25"
       height="1.51"
       inkscape:menu-tooltip="Darkens the edge with an inner blur and adds a flexible glow"
       inkscape:menu="Shadows and Glows"
       inkscape:label="Dark and Glow"
       color-interpolation-filters="sRGB"
       width="2"
       x="-0.5">
      <feGaussianBlur
         id="feGaussianBlur5099"
         stdDeviation="14.923762711864407"
         result="result6" />
      <feComposite
         id="feComposite5101"
         in2="result6"
         result="result8"
         in="SourceGraphic"
         operator="atop" />
      <feComposite
         id="feComposite5103"
         in2="SourceAlpha"
         result="result9"
         operator="over"
         in="result8" />
      <feColorMatrix
         id="feColorMatrix5105"
         values="1 0 0 0 0 0 1 0 0 0 0 0 1 0 0 0 0 0 1 0 "
         result="result10" />
      <feBlend
         id="feBlend5107"
         in2="result6"
         in="result10"
         mode="normal" />
    </filter>
    <filter
       id="filter3856"
       inkscape:label="Peel off"
       inkscape:menu="Materials"
       inkscape:menu-tooltip="Peeling painting on a wall"
       height="0.5"
       width="0.5"
       y="-0.25"
       x="-0.25"
       color-interpolation-filters="sRGB">
      <feTurbulence
         id="feTurbulence3858"
         type="fractalNoise"
         numOctaves="3"
         baseFrequency="0.017557251908396947"
         result="result1" />
      <feGaussianBlur
         id="feGaussianBlur3860"
         stdDeviation="3"
         in="SourceAlpha"
         result="result2" />
      <feComposite
         id="feComposite3862"
         in2="result1"
         operator="in" />
      <feColorMatrix
         id="feColorMatrix3864"
         values="1 0 0 0 0 0 1 0 0 0 0 0 1 0 0 0 0 0 20 -9"
         result="result1" />
      <feComposite
         id="feComposite3866"
         in2="result1"
         in="SourceGraphic"
         operator="in"
         result="result1" />
      <feTurbulence
         id="feTurbulence3868"
         baseFrequency="0.04"
         numOctaves="5"
         result="result0"
         type="fractalNoise" />
      <feDisplacementMap
         id="feDisplacementMap3870"
         in2="result0"
         in="result1"
         xChannelSelector="R"
         yChannelSelector="G"
         scale="35"
         result="result2" />
      <feColorMatrix
         id="feColorMatrix3872"
         result="result3"
         values="4 0 0 0 0 0 1 0 0 0 0 0 2 0 0 0 0 0 0.7 0 " />
      <feGaussianBlur
         id="feGaussianBlur3874"
         stdDeviation="0.3"
         in="result1"
         result="result4" />
      <feComposite
         id="feComposite3876"
         in2="result3"
         in="result4"
         result="fbSourceGraphic"
         operator="xor" />
      <feDiffuseLighting
         id="feDiffuseLighting3878"
         in="fbSourceGraphic"
         diffuseConstant="2"
         result="result3"
         surfaceScale="5">
        <feDistantLight
           id="feDistantLight3880"
           azimuth="225"
           elevation="25" />
      </feDiffuseLighting>
      <feBlend
         id="feBlend3882"
         in2="fbSourceGraphic"
         in="result3"
         mode="darken"
         result="result7" />
      <feComposite
         id="feComposite3884"
         in2="fbSourceGraphic"
         operator="in"
         in="result7" />
    </filter>
  </defs>
  <sodipodi:namedview
     pagecolor="#ffffff"
     bordercolor="#666666"
     borderopacity="1"
     objecttolerance="10"
     gridtolerance="10"
     guidetolerance="10"
     inkscape:pageopacity="0"
     inkscape:pageshadow="2"
     inkscape:window-width="1366"
     inkscape:window-height="709"
     id="namedview4417"
     showgrid="false"
     inkscape:zoom="0.45254834"
     inkscape:cx="90.202938"
     inkscape:cy="155.6013"
     inkscape:window-x="0"
     inkscape:window-y="27"
     inkscape:window-maximized="1"
     inkscape:current-layer="svg4415" />
  <path
     style="fill:#2fdc00;fill-opacity:0.80395680999999986;stroke:none;"
     d="m 78.645003,211.46373 4.664105,-3.10214 9.716885,-3.10215 16.907377,0.88633 13.4093,0.44316 6.99616,1.99424 0.97169,3.10214 -8.35652,3.54532 -11.46592,2.21581 -10.49424,0.22159 -19.239435,-2.88056 -3.109402,-1.77266 z"
     id="path4939"
     inkscape:connector-curvature="0" />
  <path
     style="fill:#38e700;stroke:none;stroke-width:1px;stroke-linecap:butt;stroke-linejoin:miter;stroke-opacity:1;fill-opacity:0.84362137;filter:url(#filter5097)"
     d="m 78.444659,212.73596 7.977423,2.12731 11.966134,1.32957 11.966134,-0.26591 11.96613,-2.39323 7.97743,-2.92505 2.65914,7.17968 0.26591,21.80495 -6.91376,33.77109 -9.04108,26.85733 -10.63657,32.70743 -2.92505,4.25463 -3.988714,-1.32957 -17.816244,-50.52368 -10.37065,-30.31421 -2.925055,-17.28442 3.456883,-14.35936 z"
     id="path4429"
     inkscape:connector-curvature="0" />
  <path
     style="fill:#000000"
     d="m 101.26385,337.66614 c -3.302834,-0.38534 -3.331384,-0.4481 -11.524564,-25.33324 -2.89731,-8.8 -6.57028,-19.15 -8.16215,-23 -5.91846,-14.31405 -12.81056,-36.60041 -14.33664,-46.3591 -0.46512,-2.97427 -1.60249,-5.19808 -3.58014,-7 -2.65273,-2.41701 -4.31788,-7.22819 -5.30305,-15.3223 -0.11256,-0.92477 -2.10222,-3.74002 -4.42147,-6.25611 -2.31924,-2.51608 -4.47616,-5.87144 -4.79314,-7.45635 -0.31698,-1.58492 -1.88018,-3.84564 -3.47378,-5.02384 -1.59359,-1.1782 -2.89745,-2.6318 -2.89745,-3.23022 0,-0.59843 -1.35,-2.62562 -3,-4.50486 -1.65,-1.87925 -3,-4.26901 -3,-5.31059 0,-2.72533 2.70593,-5.03663 5.89658,-5.03663 l 2.75373,0 -0.15544,-14.25 c -0.0994,-9.11524 -0.64287,-15.58345 -1.50817,-17.9506 -1.04443,-2.85716 -1.09218,-4.27248 -0.2095,-6.20973 0.62878,-1.38003 1.45298,-4.8441 1.83156,-7.69794 0.37857,-2.85384 1.45634,-5.95683 2.39505,-6.89553 0.9387,-0.9387 2.02606,-2.97907 2.41636,-4.53414 3.04328,-12.12537 31.53555,-42.059221 45.97331,-48.299341 4.546154,-1.964885 16.658464,-4.276704 21.606524,-4.123933 2.475,0.07641 6.62625,0.09895 9.225,0.05008 l 4.725,-0.08886 -0.61585,-3.25 c -1.40189,-7.398109 -4.47374,-8.998286 -12.10161,-6.303923 -14.08163,4.974005 -13.89844,4.934952 -17.04179,3.632934 -7.066164,-2.926899 -3.884544,-13.995869 5.85278,-20.36202 2.70629,-1.769345 4.92862,-3.602031 4.9385,-4.072635 0.01,-0.470604 -1.10716,-2.192787 -2.48232,-3.827072 -1.37516,-1.634286 -2.79097,-4.12957 -3.14624,-5.545076 -1.56207,-6.223806 8.00898,-15.294034 16.09231,-15.250246 5.0123,0.02715 10.98818,2.6759 15.4159,6.832939 l 3.36168,3.156169 3.42312,-3.005535 c 3.9302,-3.450764 8.21417,-3.921983 10.69853,-1.176794 2.01542,2.227015 2.07115,3.910242 0.27478,8.299135 -3.20743,7.836388 -3.47715,7.454285 4.96094,7.02818 l 7.56896,-0.382215 4.68128,4.86308 c 3.15388,3.276353 5.31785,6.739189 6.63224,10.613079 1.7681,5.211058 2.21995,5.75 4.8208,5.75 1.83859,0 3.92021,1.050376 5.79291,2.923077 2.53427,2.534264 2.92308,3.667389 2.92308,8.518781 0,3.393937 -0.98369,8.411229 -2.5,12.751249 -2.86853,8.21036 -3.04202,10.5739 -1.11473,15.186537 1.49815,3.58559 7.04848,7.62035 10.48276,7.62035 3.08629,0.39021 3.00284,3.25124 3.2292,5.54875 0.39251,3.96061 -1.39148,5.90817 -4.31054,6.10702 -1.25768,0.0857 -4.08669,0.85343 -6.28669,1.70611 -8.63543,3.34695 -13.86487,1.39644 -15.03096,-5.60637 -1.40031,-8.40933 -3.35523,-11.66415 -8.60296,-14.32337 -2.68314,-1.359647 -6.99524,-2.762237 -9.58245,-3.116847 -4.78136,-0.65536 -9.28363,-3.86641 -9.28363,-6.62116 0,-0.76823 1.26909,-3.14695 2.8202,-5.28604 l 2.8202,-3.88926 -10.5359,-2.710375 c -5.79475,-1.490704 -10.72975,-2.516536 -10.96666,-2.279626 -0.23691,0.236911 0.57036,3.252341 1.79394,6.700961 9.44136,26.610187 14.34973,42.388597 15.567,50.041587 0.5773,3.62951 5.65212,10.72862 7.66937,10.72862 0.52853,0 2.09692,-1.35 3.4853,-3 1.38839,-1.65 3.35882,-3 4.37874,-3 2.46815,0 4.95933,3.72066 5.00325,7.47251 0.0195,1.66512 0.67854,4.15249 1.46456,5.52749 2.11693,3.70319 1.8343,6.7557 -0.75,8.10027 -1.2375,0.64385 -2.3673,1.26449 -2.51068,1.3792 -0.14337,0.1147 0.39121,2.05619 1.18796,4.31442 2.29605,6.50769 3.80161,19.18521 2.8153,23.70611 -0.71393,3.27242 -0.52666,4.47539 1.02954,6.61353 1.8758,2.57725 1.87323,2.67714 -0.18496,7.19514 -1.14794,2.51988 -2.10147,5.16879 -2.11896,5.88647 -0.0175,0.71767 -0.67476,2.15412 -1.4606,3.1921 -1.10677,1.46189 -2.22536,1.75797 -4.96314,1.31369 -3.1789,-0.51587 -4.21237,-0.0178 -10.27597,4.95244 -3.70789,3.0393 -6.74767,6.04814 -6.75505,6.68631 -0.007,0.63818 -1.67289,4.60591 -3.70112,8.81718 -3.13814,6.51583 -4.14038,7.75628 -6.7256,8.32409 -1.67086,0.36698 -3.47616,0.39639 -4.01179,0.0654 -0.53563,-0.33104 -1.26587,1.09812 -1.62274,3.1759 -1.99411,11.60993 -14.31223,54.95051 -19.4057,68.27779 -1.57651,4.125 -3.60404,10.0538 -4.50562,13.1751 -2.27896,10.06406 -6.56289,10.96002 -9.04849,10.6581 z m 3.34513,-3.13745 c 0.95486,-1.15054 3.27125,-7.33328 8.50307,-22.69579 4.47917,-13.15246 14.9598,-49.0619 17.14614,-58.74723 2.78993,-12.35923 3.40434,-28.89249 1.35804,-36.5434 l -1.15525,-4.31933 -8.09475,2.39851 c -5.64883,1.67376 -10.5839,2.40209 -16.33254,2.41037 -9.296494,0.0134 -25.127164,-2.01912 -26.999714,-3.46653 -1.30807,-1.01108 -3.56714,3.37393 -7.04122,13.66751 -2.62048,7.76438 -2.20473,20.1066 1.03077,30.6001 3.556,11.53297 8.15476,24.75296 10.08807,29 2.88666,6.34134 11.46529,30.46038 13.15924,36.99755 2.79622,10.79099 5.442894,14.1868 8.338144,10.69824 z M 99.271466,313.8329 c -0.37968,-1.72866 -0.48187,-3.35146 -0.22711,-3.60623 0.25477,-0.25477 0.75072,0.97429 1.102114,2.73123 0.83365,4.16825 0.0258,4.97614 -0.875004,0.875 z m -3.42105,-12.58333 c 0.048,-1.16495 0.28494,-1.4019 0.60416,-0.60417 0.28887,0.72187 0.25335,1.58438 -0.0789,1.91667 -0.3323,0.33229 -0.56864,-0.25834 -0.52522,-1.3125 z m -1.84695,-11.41667 c 0,-1.925 0.2058,-2.7125 0.45733,-1.75 0.25152,0.9625 0.25152,2.5375 0,3.5 -0.25153,0.9625 -0.45733,0.175 -0.45733,-1.75 z m -3.95963,-8 c 0,-2.475 0.19501,-3.4875 0.43337,-2.25 0.23835,1.2375 0.23835,3.2625 0,4.5 -0.23836,1.2375 -0.43337,0.225 -0.43337,-2.25 z m -3.27237,-8.44098 c 0,-1.89254 0.34579,-3.65469 0.76841,-3.91589 0.42262,-0.26119 0.60035,1.28725 0.39496,3.44099 -0.46113,4.83541 -1.16337,5.12208 -1.16337,0.4749 z m -1.92971,-9.14235 c 0.0387,-1.60417 0.46879,-3.81667 0.95585,-4.91667 0.59131,-1.33546 0.68786,-0.50479 0.29055,2.5 -0.70075,5.29973 -1.34603,6.55087 -1.2464,2.41667 z m -2.07029,-8.35765 c 0,-1.61754 0.35596,-3.16098 0.79101,-3.42986 0.43506,-0.26888 0.61083,1.05457 0.3906,2.94099 -0.49064,4.2027 -1.18161,4.48857 -1.18161,0.48887 z m -0.91971,-8.05902 c 1.45781,-3.06103 1.91971,-3.62834 1.91971,-2.3578 0,0.53655 -0.69982,1.84905 -1.55516,2.91667 -1.46638,1.83031 -1.48719,1.7984 -0.36455,-0.55887 z m -1.06497,-5.58333 c 0.008,-1.05417 0.47209,-2.59167 1.03037,-3.41667 0.74131,-1.09546 0.83409,-0.69092 0.34401,1.5 -0.82247,3.67693 -1.39482,4.47511 -1.37438,1.91667 z m -0.45102,-7.7098 c 0.37553,-0.98622 0.93469,-1.54122 1.24258,-1.23333 0.30788,0.30789 6.3e-4,1.11479 -0.68279,1.79313 -0.98761,0.98026 -1.10248,0.8654 -0.55979,-0.5598 z m -1.5643,-2.41776 c 0,-0.57432 0.7875,-1.66182 1.75,-2.41667 1.61876,-1.26951 1.63998,-1.22245 0.28297,0.62756 -0.80687,1.1 -1.59437,2.1875 -1.75,2.41667 -0.15563,0.22916 -0.28297,-0.0532 -0.28297,-0.62756 z m -0.19029,-4.78911 c 0.50602,-1.1 0.74086,-2.49496 0.52186,-3.09991 -0.219,-0.60496 0.29181,-1.67256 1.13513,-2.37245 1.04457,-0.86692 1.5333,-0.91476 1.5333,-0.15008 0,0.61734 -0.49814,1.12244 -1.10698,1.12244 -0.60885,0 -0.86476,0.63126 -0.56869,1.4028 0.29607,0.77154 -0.13061,2.23404 -0.94818,3.25 -1.42227,1.76741 -1.44674,1.76081 -0.56644,-0.1528 z m 64.572124,9.43077 c 2.32036,-3.92807 1.63109,-4.63788 -1.38553,-1.42683 -1.28971,1.37283 -3.39149,2.49606 -4.67061,2.49606 -1.27913,0 -2.32569,0.45 -2.32569,1 0,0.55 1.47798,1 3.28439,1 2.60531,0 3.65926,-0.63459 5.09744,-3.06923 z m -75.381834,-1.47258 c 0,-0.298 -0.9,-1.50785 -2,-2.68856 -1.1,-1.18072 -2,-2.7369 -2,-3.45819 0,-0.72129 -0.45,-1.31144 -1,-1.31144 -1.6471,0 -1.13579,2.55765 1.07258,5.36514 1.87508,2.38377 3.92742,3.47753 3.92742,2.09305 z m 71.861964,-0.79187 c 0.81334,-0.98001 0.77952,-2.03865 -0.12755,-3.99219 -0.67893,-1.46219 -1.54535,-2.66204 -1.92539,-2.66633 -1.16377,-0.0131 -2.1902,2.28517 -2.32703,5.21053 -0.14284,3.05409 2.36026,3.8816 4.37997,1.44799 z m -70.634164,-5.0776 c 0.39846,-2.08445 0.22448,-2.26361 -1.28365,-1.32177 -0.95952,0.59924 -1.51634,1.68431 -1.23738,2.41128 0.79714,2.07731 2.01638,1.55039 2.52103,-1.08951 z m 74.303604,-4.18114 c -1.20207,-1.83459 -2.37286,-2.44318 -4.2669,-2.21796 -3.82433,0.45474 -4.14538,2.81038 -0.38302,2.81038 2.13652,0 3.40786,0.67213 4.25089,2.24734 0.76972,1.43823 1.35628,1.78672 1.6292,0.96795 0.23455,-0.70366 -0.31902,-2.41713 -1.23017,-3.80771 z m 4.057,-1.15252 c -1.07549,-1.07549 -1.64645,0.43075 -0.89148,2.35181 0.7082,1.80207 0.76169,1.80519 1.11193,0.0649 0.20237,-1.00555 0.10317,-2.09305 -0.22045,-2.41667 z m -81.088404,0.74494 c 1.08086,-1.74886 -0.52194,-3.22667 -2.08902,-1.92611 -0.77604,0.64405 -1.41098,1.5659 -1.41098,2.04855 0,1.20559 2.73845,1.10978 3.5,-0.12244 z m -3.5,-3.5 c 1.01958,-1.22851 0.95124,-1.5 -0.37755,-1.5 -0.89235,0 -1.62245,0.675 -1.62245,1.5 0,0.825 0.1699,1.5 0.37756,1.5 0.20766,0 0.93776,-0.675 1.62244,-1.5 z m 93.852034,-5.56692 6.2651,-5.56692 -1.80857,-3.17926 c -0.99471,-1.7486 -3.38356,-3.88928 -5.30856,-4.75708 -1.925,-0.8678 -5.525,-2.62784 -8,-3.9112 -2.475,-1.28337 -7.3125,-3.46854 -10.75,-4.85595 l -6.25,-2.52256 0,2.35852 c 0,1.29718 -0.64857,3.00708 -1.44127,3.79978 -1.25502,1.25502 -1.12809,2.20112 0.98229,7.32143 1.33296,3.23409 2.95071,8.35516 3.59499,11.38016 l 1.17143,5.5 7.63975,0 7.63975,0 z m -83.306704,1.81692 c 0.37405,-1.2375 2.48729,-5.98435 4.69608,-10.54856 l 4.01598,-8.29856 -2.25099,-2.39608 c -1.55056,-1.65049 -2.07031,-3.11602 -1.67031,-4.70974 1.19841,-4.77483 -0.45919,-4.98862 -9.39075,-1.21123 -4.64494,1.96447 -9.68284,4.03033 -11.19534,4.59079 -1.5125,0.56047 -2.75,1.58932 -2.75,2.28635 0,0.69702 -0.94488,2.46854 -2.09974,3.9367 -1.46634,1.86416 -1.9086,3.43094 -1.46611,5.19397 0.81575,3.25022 7.87693,10.92855 10.24569,11.14116 1.00109,0.0899 3.62016,0.58454 5.82016,1.09929 2.2,0.51475 4.30718,0.98766 4.68262,1.05091 0.37543,0.0633 0.98865,-0.8975 1.36271,-2.135 z m 50.788184,-5.60623 c 2.65842,-0.91332 4.82898,-2.10679 4.82346,-2.65217 -0.0209,-2.06215 -9.95917,-3.67092 -23.65697,-3.82951 -11.568964,-0.13394 -14.998464,0.17775 -19.750004,1.795 -5.52824,1.88161 -7.23656,3.75848 -4.40865,4.84365 1.22945,0.47179 16.02449,2.35622 23.158654,2.9497 4.35292,0.36211 14.24852,-1.18791 19.83351,-3.10667 z m 46.19844,-2.24443 c 0.3667,-1.15537 0.17202,-2.59537 -0.43261,-3.2 -1.58211,-1.58211 -1.3528,-3.69934 0.40066,-3.69934 0.825,0 1.50277,0.7875 1.50616,1.75 0.004,1.15236 0.5312,0.74313 1.54357,-1.19828 2.7514,-5.27637 1.7128,-6.96974 -4.69743,-7.65889 -4.27564,-0.45966 -8.52711,-2.12965 -17.5,-6.87407 -6.51876,-3.44679 -13.11571,-7.16016 -14.65988,-8.25192 -1.54416,-1.09176 -2.949,-1.82343 -3.12186,-1.62593 -0.17287,0.1975 -0.61552,2.60909 -0.98368,5.35909 -0.47536,3.55073 -0.37201,4.56522 0.35655,3.5 0.8756,-1.28019 1.02819,-1.23368 1.04126,0.31739 0.0113,1.33657 0.5248,1.65568 1.94109,1.20617 1.26798,-0.40245 2.26709,-0.001 2.925,1.17428 0.54957,0.98202 1.32597,1.45874 1.72534,1.05937 0.39937,-0.39937 1.23295,-0.033 1.8524,0.81415 0.61945,0.84714 1.78894,1.64929 2.59888,1.78255 0.80993,0.13325 2.52768,0.82176 3.81723,1.53001 2.20105,1.20888 2.30566,1.1447 1.70828,-1.04809 l -0.63634,-2.33583 1.34368,2.28136 c 0.73903,1.25475 1.67565,1.94941 2.08138,1.54367 0.40573,-0.40573 1.00399,0.28061 1.32945,1.5252 0.36979,1.41407 1.11932,2.06044 1.9982,1.72319 0.77353,-0.29684 1.66155,0.12513 1.97336,0.9377 0.31181,0.81256 0.92039,1.25895 1.35239,0.99195 0.432,-0.26699 1.55912,1.14493 2.5047,3.13761 1.29309,2.72498 1.93619,3.28051 2.59445,2.24118 0.62157,-0.9814 0.87963,-0.56782 0.89051,1.42716 0.009,1.615 0.44037,2.54631 1.01531,2.19098 0.55,-0.33992 1,-0.14148 1,0.44098 0,1.88201 1.84492,1.12301 2.53195,-1.04164 z m -81.940884,-5.38852 c 6.05367,-1.83644 22.147374,-1.91607 32.158934,-0.15911 3.9875,0.69977 7.25,1.19906 7.25,1.10953 0,-0.0895 -0.49402,-1.57994 -1.09783,-3.31202 l -1.09782,-3.14922 -16.65218,-0.13989 c -9.158694,-0.0769 -18.287714,-0.23611 -20.286714,-0.35372 -3.23355,-0.19024 -3.81277,0.15992 -5.25,3.17381 -2.43964,5.11599 -2.48076,5.09259 4.97561,2.83062 z m -36.89663,-6.51082 c -0.25431,-1.11433 3.60039,-8 4.47852,-8 0.51979,0 0.68618,0.41891 0.36975,0.9309 -0.31643,0.512 -0.11799,1.21356 0.44098,1.55902 0.55897,0.34546 1.02321,-0.18594 1.03163,-1.1809 0.013,-1.53381 0.16278,-1.58082 0.98468,-0.30902 0.80408,1.24421 0.9746,1.15895 1,-0.5 0.0249,-1.62514 0.20511,-1.72411 0.96152,-0.52803 0.79788,1.26165 1.025,1.22675 1.58947,-0.24425 0.36222,-0.94393 1.06143,-1.46726 1.5538,-1.16296 0.49237,0.3043 0.89521,0.0767 0.89521,-0.50574 0,-0.58246 0.47656,-1.05902 1.05902,-1.05902 0.58246,0 0.78409,0.44485 0.44806,0.98855 -0.35034,0.56686 0.0511,0.7345 0.94099,0.39301 0.85356,-0.32755 1.55193,-0.98327 1.55193,-1.45716 0,-0.4739 0.675,-0.60261 1.5,-0.28603 0.825,0.31659 1.5,0.0509 1.5,-0.5904 0,-0.6413 0.4407,-0.89364 0.97934,-0.56074 1.95278,1.20688 5.02066,-1.49117 5.02066,-4.41542 0,-3.19674 1.42123,-4.07181 6.61318,-4.07181 3.26562,0 5.57445,-2.1457 4.00144,-3.71872 -0.85848,-0.85848 -17.82593,4.29275 -23.52224,7.14122 -7.37803,3.68944 -18.02669,6.75084 -21.11923,6.0716 -1.61775,-0.35532 -3.07134,-0.14424 -3.47209,0.50419 -1.20841,1.95525 0.35715,5.46284 2.97178,6.6582 1.39129,0.63608 2.28069,0.75373 1.97645,0.26146 -0.30424,-0.49227 0.17546,-0.61544 1.06599,-0.27371 1.02447,0.39312 1.26967,0.97081 0.66761,1.57287 -0.52335,0.52335 -0.71616,1.85164 -0.42848,2.95175 0.40057,1.53177 0.72119,1.68767 1.36902,0.66567 0.64412,-1.01613 0.8496,-0.9076 0.86126,0.4549 0.0127,1.4817 0.25681,1.56768 1.41959,0.5 0.77235,-0.70919 1.35292,-1.51443 1.29016,-1.78943 z m 76.428374,-4 c -0.20746,-0.825 -0.39496,-2.0625 -0.41667,-2.75 -0.0217,-0.6875 -0.32447,-1.25 -0.67281,-1.25 -0.34833,0 -1.23935,0.5625 -1.98003,1.25 -1.07737,1 -1.20556,1 -0.64099,0 0.38815,-0.6875 0.22917,-1.25 -0.35329,-1.25 -0.58246,0 -1.05902,0.45 -1.05902,1 0,0.55 -0.47656,1 -1.05902,1 -0.58246,0 -0.7301,-0.5625 -0.3281,-1.25 0.402,-0.6875 -0.29369,-0.35 -1.54597,0.75 -2.42466,2.12981 -2.91345,2.09212 -4.7087,-0.36302 -0.93095,-1.27316 -1.4223,-1.32868 -2.66097,-0.30067 -1.02562,0.85119 -1.72973,0.92014 -2.16723,0.21225 -0.85786,-1.38805 -5.22795,-1.34633 -6.09599,0.0582 -0.48171,0.77942 -0.92027,0.7245 -1.4828,-0.1857 -0.64454,-1.04287 -1.14023,-1.01521 -2.56696,0.14324 -1.068344,0.86746 -1.474284,0.94636 -1.025634,0.19934 0.53809,-0.89594 -0.075,-1.14117 -2.22661,-0.89065 -1.63303,0.19013 -3.5532,-0.0153 -4.26704,-0.45644 -0.72832,-0.45012 -1.94542,-0.27869 -2.7734,0.39065 -1.2032,0.97268 -1.31608,0.91599 -0.61164,-0.3072 0.61551,-1.06878 0.28871,-0.99691 -1.13678,0.25 -1.10035,0.9625 -2.61371,1.75 -3.36303,1.75 -0.88706,0 -0.68514,-0.51224 0.57874,-1.4682 1.47005,-1.11188 1.57711,-1.47052 0.44113,-1.47776 -2.7056,-0.0173 -6.04975,3.28193 -5.01337,4.94596 1.16852,1.87619 15.7552,2.72147 34.513374,2 10.89656,-0.4191 12.93897,-0.7427 12.62281,-2 z m 43.87975,-1.50308 c 1.62695,-1.96036 1.60752,-12.78301 -0.0353,-19.64163 -1.99527,-8.3302 -3.72864,-11.68052 -6.88868,-13.31464 -2.56437,-1.32608 -3.33237,-1.33257 -6.39245,-0.054 -1.91286,0.79925 -9.46408,3.25958 -16.78049,5.46742 -7.31641,2.20783 -13.92095,4.63263 -14.67676,5.38844 -1.48341,1.48341 -0.56525,2.18297 11.77109,8.96853 3.025,1.66389 7.26596,4.12976 9.42434,5.47971 6.31444,3.94931 17.83755,9.20924 20.175,9.20924 1.18568,0 2.71712,-0.67639 3.40322,-1.50308 z m -42.00256,-8.99692 c 0,-2.475 -0.3375,-4.55352 -0.75,-4.61894 -2.98245,-0.47297 -5.38256,0.0352 -9.65691,2.04458 -2.6988,1.26872 -6.5238,2.51006 -8.5,2.75853 -3.32355,0.41787 -14.275094,-1.47416 -18.343094,-3.16904 -1.28578,-0.5357 -1.78077,-0.23651 -1.866,1.12788 -0.10467,1.67558 -0.16067,1.68603 -0.57332,0.10699 -0.65283,-2.49811 -2.28559,-2.16447 -2.44686,0.5 l -0.13618,2.25 -0.43337,-2.25 c -0.6504,-3.37678 -2.27576,-2.70678 -2.42591,1 l -0.13164,3.25 -0.73672,-3.5 -0.73671,-3.5 -0.23132,3 c -0.22512,2.91947 -0.24993,2.93316 -0.92435,0.51008 -0.38522,-1.38403 -0.98574,-2.01629 -1.35208,-1.42354 -0.36248,0.58651 -0.40554,2.03583 -0.0957,3.22073 0.5519,2.11047 1.00407,2.16025 22.201754,2.44408 11.90112,0.15936 22.87589,0.393 24.38839,0.5192 2.62659,0.21915 2.75,0.0275 2.75,-4.27055 z m -37.435704,-1.20687 c -0.54269,-1.4252 -0.42782,-1.54006 0.55979,-0.5598 0.68342,0.67834 0.99067,1.48524 0.68279,1.79313 -0.30789,0.30789 -0.86705,-0.24711 -1.24258,-1.23333 z m -36.93094,-0.66843 c 3.84102,-1.30641 8.53234,-3.18158 10.42516,-4.16705 1.89281,-0.98546 7.4422,-2.9925 12.33195,-4.46008 l 8.89047,-2.66833 -6.39047,-3.53396 c -23.29051,-12.87979 -25.7667,-13.99199 -29.67973,-13.33088 l -3.78476,0.63943 0.2364,9.19808 c 0.13002,5.05895 0.25918,11.78559 0.28701,14.94809 0.0278,3.1625 0.1968,5.75 0.37546,5.75 0.17867,0 3.4675,-1.06888 7.30851,-2.3753 z m 63.508644,-2.8632 c 3.45618,-1.48913 3.70408,-1.9185 4.85885,-8.41535 0.66926,-3.76538 1.00414,-7.97115 0.74418,-9.34615 -0.33417,-1.76746 -0.51532,-1.32793 -0.61823,1.5 -0.0874,2.40016 -1.34979,6.0998 -3.15641,9.25 -2.76586,4.82282 -4.97039,6.70783 -4.97039,4.25 0,-0.55 -1.6875,-0.96447 -3.75,-0.92105 -2.0625,0.0434 -3.1875,0.30592 -2.5,0.58333 0.6875,0.27741 1.25,0.94344 1.25,1.48007 0,0.53663 -0.41891,0.71679 -0.9309,0.40036 -0.512,-0.31644 -1.17626,-0.17834 -1.47613,0.30687 -0.29988,0.48521 -1.79348,0.62647 -3.3191,0.31392 l -2.77387,-0.56829 3,-0.67929 c 2.24037,-0.50729 1.41744,-0.70929 -3.25,-0.79761 -1.85339,-0.0351 -6.43988,-2.61951 -8.443147,-5.48784 -1.42297,-2.03745 -1.587001,-5.34929 -2.491119,-6.50356 -0.666598,-0.85104 -1.328552,-0.16006 -1.328552,-6.6e-4 0,0.276 0.05008,3.1287 1.06728,6.13472 1.226681,3.62506 3.49298,7.47308 3.959607,7.29402 0.856277,-0.32859 3.826427,-0.10592 3.502227,0.41864 -1.77914,2.8787 14.343634,3.49457 20.625704,0.78787 z m -13.24535,-7.49878 c 1.15575,0.30224 2.37232,0.11109 2.7035,-0.42477 0.33119,-0.53587 1.19806,-0.74562 1.9264,-0.46613 2.00955,0.77113 8.80924,-1.31886 10.22345,-3.14234 0.6875,-0.88645 1.18872,-2.98823 1.11382,-4.67061 -0.12151,-2.72932 -0.18562,-2.78953 -0.59508,-0.55887 -0.46505,2.53347 -3.55738,6.16119 -4.98794,5.85151 -0.42944,-0.093 -1.4558,0.0966 -2.2808,0.42134 -0.825,0.3247 -3.1875,0.75578 -5.25,0.95795 -2.74719,0.2693 -3.75,-0.0126 -3.75,-1.05405 0,-1.14489 -0.28953,-1.18135 -1.48727,-0.18732 -0.81799,0.67888 -2.16799,0.9731 -3,0.65383 -0.832004,-0.31927 -1.512734,-0.14461 -1.512734,0.38812 0,0.53274 0.675,0.96862 1.500004,0.96862 0.825,0 1.50689,0.7875 1.51531,1.75 0.0122,1.39857 0.1925,1.47019 0.89764,0.3566 0.51675,-0.81606 1.753,-1.16571 2.9837,-0.84388 z m -12.203654,-6.99369 c -0.25355,-0.97297 -0.47767,-0.41903 -0.49805,1.23097 -0.0204,1.65 3.105617,3.84189 3.379537,3.16486 0.27392,-0.67703 2.765021,-0.50431 -2.881447,-4.39583 z m 14.307004,3.28999 c 0,-0.24254 -0.45,-0.7191 -1,-1.05902 -0.55,-0.33992 -1,-0.14148 -1,0.44098 0,0.58246 0.45,1.05902 1,1.05902 0.55,0 1,-0.19844 1,-0.44098 z m -21.796244,-7.91317 c -1.07206,-1.18022 -2.13106,-2.74461 -2.35333,-3.47642 -0.22228,-0.73181 -6.46705,-4.34554 -13.87728,-8.03051 l -13.47315,-6.69995 -0.30369,-4.1416 c -0.16703,-2.27788 -0.93293,-4.66383 -1.70201,-5.3021 -1.8544,-1.53902 -5.23675,-0.38209 -6.01053,2.05588 -0.66661,2.10031 0.33204,6.46638 1.26553,5.53289 0.79318,-0.79318 3.2507,1.39988 3.2507,2.90089 0,0.73071 -1.03147,1.12682 -2.51128,0.96437 -3.03288,-0.33292 -5.0492,2.53764 -3.19191,4.54421 0.8305,0.89725 0.84489,1.09915 0.0465,0.65181 -0.77766,-0.43569 -0.97545,0.0452 -0.60356,1.46731 0.48005,1.83569 0.67262,1.90198 1.45643,0.50138 0.49678,-0.88771 1.35744,-1.61401 1.91257,-1.61401 0.55513,0 0.79081,0.35357 0.52373,0.78571 -0.26708,0.43215 1.00524,0.78572 2.82737,0.78572 2.53266,0 3.19348,-0.36171 2.80567,-1.53572 -0.27902,-0.84464 0.6051,-0.3062 1.9647,1.19653 1.3596,1.50274 2.76402,2.44024 3.12092,2.08334 0.3569,-0.3569 0.6489,-0.0974 0.6489,0.57677 0,0.67413 0.40285,0.97671 0.89522,0.67241 0.49237,-0.3043 1.19158,0.21903 1.55379,1.16296 0.56448,1.471 0.7916,1.5059 1.58948,0.24425 0.75641,-1.19608 0.93663,-1.09711 0.96151,0.52803 0.0254,1.65895 0.19593,1.74421 1,0.5 0.83208,-1.28754 0.97155,-1.25658 0.98469,0.21862 0.01,1.11403 0.54299,1.51612 1.51531,1.14301 0.94985,-0.36449 1.5,0.0138 1.5,1.03138 0,1.87318 1.96923,2.21388 2.06339,0.35699 0.0349,-0.6875 0.50797,-0.13583 1.05135,1.22593 0.72547,1.81808 1.20304,2.12793 1.79745,1.16615 0.63511,-1.02762 0.94565,-0.95493 1.44159,0.33746 0.34765,0.90597 1.05762,1.38424 1.5777,1.06281 0.52008,-0.32143 1.40958,0.21255 1.97666,1.18662 0.56707,0.97407 1.04473,1.40801 1.06146,0.96433 0.0167,-0.44369 1.0429,-0.0929 2.2804,0.77956 2.15641,1.52029 2.26358,1.47672 2.57648,-1.04744 0.19645,-1.58484 -0.4498,-3.4883 -1.62272,-4.77957 z m 45.296244,5.35415 c -0.50963,0.90597 0.0844,0.70796 1.5,-0.5 1.28908,-1.1 2.01488,-1.4375 1.61288,-0.75 -1.14641,1.96057 0.84132,1.46717 3.95441,-0.98159 1.56035,-1.22737 2.49448,-1.67737 2.07584,-1 -1.35356,2.19011 1.18923,1.30423 2.92321,-1.01841 1.40311,-1.87945 1.57005,-1.92986 1.01367,-0.30607 -0.65967,1.92525 -0.64478,1.92525 1.54885,0 1.34012,-1.17616 1.87374,-1.35149 1.35108,-0.44393 -0.74484,1.29333 -0.63074,1.31091 0.8281,0.12756 0.93058,-0.75485 1.70627,-0.97985 1.72376,-0.5 0.0175,0.47984 0.6925,-0.001 1.5,-1.06869 1.05863,-1.39963 1.47707,-1.53911 1.5,-0.5 0.0229,1.03911 0.44138,0.89963 1.5,-0.5 0.95969,-1.26882 1.4682,-1.46821 1.4682,-0.57569 0,0.88867 0.92923,0.51894 2.66125,-1.05887 1.46369,-1.33337 2.27731,-1.74931 1.80804,-0.92431 -0.73552,1.2931 -0.61983,1.31069 0.83875,0.12756 0.93058,-0.75485 1.69885,-0.97985 1.70727,-0.5 0.008,0.47984 0.39034,0.28105 0.8487,-0.44177 0.66728,-1.05226 1.51133,-0.9259 4.23469,0.63398 1.87072,1.07151 3.27765,2.48385 3.12652,3.13854 -0.15112,0.65469 0.19372,0.90081 0.76632,0.54692 0.57259,-0.35388 0.78219,-1.06233 0.46575,-1.57433 -0.31643,-0.51199 -0.0872,-0.9309 0.50937,-0.9309 0.6759,0 0.50002,-1.13065 -0.46666,-3 -1.58142,-3.05814 -3.48766,-4.00711 -3.51531,-1.75 -0.0103,0.83859 -0.32426,0.76139 -0.95398,-0.23454 -0.6562,-1.03782 -0.38295,-2.09103 0.90807,-3.5 1.36449,-1.48916 1.62201,-2.60301 0.9862,-4.26546 -1.13426,-2.9657 -1.71538,-2.85476 -5.35398,1.02214 -2.52222,2.68742 -5.9923,4.25076 -19.41886,8.74859 -17.1162,5.73384 -18.88952,6.90516 -17.68995,11.68466 0.62265,2.4808 0.66457,2.49079 2.75693,0.65686 1.39236,-1.22039 1.83384,-1.34525 1.28088,-0.36225 z m -14.42431,-3.62888 c 1.33337,-1.44588 3.88681,-3.25192 5.67431,-4.01342 2.33485,-0.99468 3.25,-2.03779 3.25,-3.70445 0,-3.19806 -0.67213,-3.60328 -3.93425,-2.37197 -3.91492,1.47772 -8.66913,-0.56489 -9.55803,-4.10655 -0.36646,-1.46008 -1.14189,-2.94864 -1.72319,-3.3079 -1.62077,-1.00169 2.76067,-4.29142 6.48193,-4.86683 1.77845,-0.275 4.85108,-0.34691 6.82808,-0.15979 l 3.59454,0.34021 -0.45148,4.6986 c -0.32937,3.42784 -0.036,5.04338 1.08464,5.97345 1.33383,1.10698 1.63012,0.64804 2.24991,-3.48506 0.75992,-5.06751 -1.00579,-19.41877 -2.81069,-22.84464 -4.39185,-8.33615 -16.51057,-11.27248 -28.258544,-6.84696 -4.48476,1.68943 -5.98307,3.34541 -4.20013,4.64213 0.79091,0.57523 0.60849,0.68166 -0.53754,0.31363 -1.09434,-0.35144 -2.11807,0.15917 -2.77313,1.38316 -0.86954,1.62475 -0.75006,1.85758 0.73475,1.43183 0.97522,-0.27963 0.76063,0.0243 -0.47687,0.67532 -1.2375,0.65106 -2.25,1.7375 -2.25,2.4143 0,0.67681 -0.94527,1.47775 -2.10061,1.77988 -1.15669,0.30248 -1.8042,1.02893 -1.44098,1.61663 0.36279,0.58702 0.21104,1.06731 -0.33724,1.06731 -0.54828,0 -1.00892,0.7875 -1.02364,1.75 -0.0147,0.9625 -0.24597,3.69957 -0.51388,6.08239 -0.44535,3.96089 -0.34119,4.21961 1.21462,3.01723 1.57654,-1.2184 1.58616,-1.16928 0.13084,0.66761 -0.86399,1.09052 -1.64017,3.33277 -1.72485,4.98277 -0.12811,2.49652 0.0187,2.70498 0.87502,1.24208 0.56593,-0.96686 0.7822,-2.1572 0.48059,-2.64522 -0.30161,-0.48801 0.18438,-1.16848 1.07998,-1.51215 1.36943,-0.5255 1.53905,-0.0745 1.06673,2.83602 -0.46221,2.84826 -0.28691,3.35546 0.99035,2.86533 1.35597,-0.52033 1.34395,-0.27808 -0.0952,1.91829 -1.96664,3.00147 -1.18521,6.52476 1.03791,4.67973 1.13294,-0.94025 1.28069,-0.84013 0.76054,0.51537 -0.35507,0.92529 -0.25287,1.56833 0.22711,1.42899 0.47997,-0.13934 1.99767,0.32246 3.37267,1.02622 l 2.5,1.27957 -2.5,-2.01312 c -2.05898,-1.658 -2.26904,-2.24316 -1.19075,-3.31712 1.07769,-1.07336 1.18028,-0.96547 0.58006,0.61005 -0.48213,1.26556 -0.36205,1.68715 0.35443,1.24434 0.61756,-0.38167 1.65582,0.623 2.41405,2.33595 1.32971,3.00404 1.33509,3.00567 9.912014,3.00567 7.98441,0 8.75027,-0.18294 11.00589,-2.62888 z m -14.46718,-6.62112 c 0.70897,-4.76649 3.45082,-8.32495 5.73821,-7.44719 1.62587,0.6239 3.31878,8.81137 2.19716,10.62619 -0.36405,0.58905 -2.44067,1.071 -4.61471,1.071 l -3.95281,0 z m -9.993204,-4.83796 c -2.28982,-1.80118 -5.41814,-9.44254 -4.31664,-10.54404 0.23656,-0.23656 2.72595,-0.70202 5.53198,-1.03435 5.34797,-0.63339 11.209414,0.9676 11.121324,3.03767 -0.13023,3.06024 -3.72977,8.11339 -6.610774,9.28043 -2.80272,1.13532 -3.44819,1.05193 -5.72589,-0.73971 z M 124.97147,136.6329 c -0.66,-0.66 -1.15394,-2.5725 -1.09764,-4.25 l 0.10236,-3.05 0.73806,3.08729 c 0.40594,1.69801 1.06143,3.61051 1.45666,4.25 0.93143,1.50709 0.32612,1.48827 -1.19944,-0.0373 z m -35.903964,-3.16384 c 1.21218,-1.85011 2.35877,-2.96069 2.54798,-2.46796 0.4471,1.16433 -2.61106,5.8318 -3.82103,5.8318 -0.512,0 0.0609,-1.51373 1.27305,-3.36384 z m 54.942764,17.20312 c 6.74366,-2.28839 12.43359,-4.29828 12.64428,-4.46641 0.2107,-0.16813 -1.00461,-1.88619 -2.70067,-3.8179 -1.70234,-1.93886 -3.36942,-5.20166 -3.72144,-7.28359 -1.54473,-9.13587 -9.42519,-34.70408 -13.95323,-45.271381 -1.2962,-3.025 -2.66672,-7.19247 -3.0456,-9.26104 -0.37887,-2.068577 -1.02253,-3.967262 -1.43034,-4.219303 -0.40781,-0.252041 -7.26295,-0.07358 -15.23364,0.396572 -16.18818,0.954869 -19.863414,2.081966 -28.964874,8.882781 -8.6229,6.44322 -24.96227,23.141801 -30.04058,30.700991 -5.76543,8.58201 -6.80779,12.00129 -3.89105,12.76403 2.07431,0.54244 3.48574,3.01252 4.53636,7.93883 0.48113,2.25601 2.39166,3.61993 11.55631,8.25 6.03893,3.05093 11.16175,5.54714 11.38404,5.54714 0.22229,0 0.35527,-3.2625 0.29552,-7.25 -0.31817,-21.23242 15.12251,-34.83696 34.887444,-30.73877 4.79181,0.99357 6.72816,2.02869 10.02681,5.36007 3.65811,3.69441 4.2247,4.94082 5.38645,11.84947 1.25357,7.4546 1.00895,19.42194 -0.47073,23.02923 -0.39481,0.9625 -0.44973,1.75 -0.12204,1.75 0.32768,0 6.11333,-1.87232 12.85698,-4.16072 z m 50.29332,-32.28825 c 1.90733,-0.79694 3.46788,-1.96231 3.46788,-2.58971 0,-0.6274 1.0125,-1.96693 2.25,-2.97674 2.20118,-1.79616 2.2066,-1.85028 0.25,-2.49421 -4.19682,-1.3812 -9.07325,-4.44674 -10.88963,-6.84569 -2.94367,-3.887781 -3.19702,-11.212171 -0.59305,-17.144681 2.64909,-6.03527 3.72625,-16.242098 2.04552,-19.382578 -1.31128,-2.450142 -5.29261,-4.350214 -7.41152,-3.537111 -0.75133,0.288312 -1.91972,2.372173 -2.59642,4.630801 -2.97197,9.919553 -10.64932,16.345688 -18.66035,15.619188 -3.16632,-0.28714 -4.02993,0.14613 -6.60918,3.31581 -4.09075,5.02717 -2.82966,7.2894 4.96153,8.90035 7.38877,1.52775 13.78306,4.540521 16.22467,7.644521 1.05984,1.34738 2.23615,4.55561 2.61401,7.1294 1.23792,8.43215 1.80154,9.17962 6.92179,9.17962 2.50628,0 6.11741,-0.65204 8.02475,-1.44897 z M 170.98258,79.186993 c 2.89363,-1.457141 7.19631,-8.003705 8.35665,-12.714697 0.6546,-2.657706 0.53533,-2.810695 -1.68159,-2.156938 -1.31239,0.387018 -3.05497,1.674291 -3.8724,2.860606 -0.81742,1.186316 -3.85337,4.670993 -6.74654,7.743727 -2.89318,3.072735 -4.97007,5.877038 -4.61532,6.231788 0.80121,0.80121 4.96463,-0.15437 8.5592,-1.964486 z m -2.33668,-8.618349 c 1.30594,-1.551116 2.12449,-3.070154 1.81901,-3.37564 -0.30549,-0.305485 -2.78329,-0.07764 -5.50623,0.506329 -5.87019,1.25893 -9.92638,0.332628 -14.79097,-3.377775 -4.08749,-3.117679 -5.9338,-6.526062 -6.6744,-12.321243 -0.30452,-2.382924 -0.72501,-4.503921 -0.93442,-4.713328 -0.20941,-0.209408 -2.56876,0.277757 -5.24301,1.082587 -6.78861,2.04307 -10.45268,1.836086 -16.74306,-0.945822 l -5.44752,-2.409149 -4.49351,2.796835 c -8.09972,5.04139 -12.205204,11.640015 -9.91017,15.928323 1.55341,2.902563 7.08588,2.751062 14.85757,-0.406859 10.7864,-4.382905 15.30747,-2.830034 17.46856,6 l 1.22372,5 12,3.086588 12,3.086589 4,-3.558611 c 2.2,-1.957236 5.06849,-4.827707 6.37443,-6.378824 z m 0.62557,-6.089103 c 3.12608,-0.937557 4.0566,-1.740066 4.25905,-3.673149 0.51925,-4.957995 -0.92481,-5.525191 -7.99055,-3.138506 -7.62055,2.574091 -11.78431,2.725321 -15.93527,0.578777 -3.05497,-1.579785 -3.06133,-1.577512 -1.56509,0.558672 0.82629,1.179702 2.99142,3.243509 4.81139,4.586239 3.72704,2.749727 9.58546,3.137886 16.42047,1.087967 z m 10.5,-3.520912 c 0,-4.527882 -6.16749,-15.202736 -10.13893,-17.548721 -3.02327,-1.785889 -9.64249,-2.04328 -14.91052,-0.579801 -3.07592,0.854504 -3.79749,1.675852 -5.40876,6.156652 l -1.85932,5.170601 2.26955,1.837771 c 2.94526,2.384933 7.72584,2.329726 14.04798,-0.162229 8.40535,-3.313081 12,-2.134559 12,3.934259 0,1.399074 0.64545,2.065741 2,2.065741 1.1,0 2,-0.393423 2,-0.874273 z M 148.32995,45.058047 c -1.09315,-1.093152 -3.73194,0.880432 -3.16223,2.365072 0.33206,0.865347 0.62136,2.324054 0.64289,3.24157 0.0215,0.917517 0.70344,0.13762 1.51535,-1.733104 0.81192,-1.870724 1.26371,-3.613816 1.00399,-3.873538 z m -10.61448,1.198843 5.30701,-1.576011 -0.61774,-4.506918 c -0.86788,-6.331901 -1.4632,-6.867891 -4.49296,-4.045243 -3.73215,3.477013 -6.47844,4.704184 -10.52752,4.704184 -3.63472,0 -8.61279,1.764913 -8.61279,3.053561 0,1.176961 7.22245,3.838722 10.5685,3.894911 1.68767,0.02834 5.45665,-0.657677 8.3755,-1.524484 z m -10.075,-7.484044 c 4.30989,-0.701452 6.32899,-1.671265 8.96266,-4.304937 3.89932,-3.899317 3.68387,-4.867505 -2.10515,-9.460145 -7.53042,-5.974158 -18.34231,-4.736276 -23.6423,2.706869 -2.80952,3.945613 -2.63076,5.981065 0.95326,10.854583 l 3.03747,4.13032 3.61545,-1.510632 c 1.9885,-0.830847 6.11887,-1.918073 9.17861,-2.416058 z m 21.82148,3.272513 c 1.44886,-0.9212 6.28615,-11.104836 6.29975,-13.262457 0.03,-4.760762 -5.45301,-5.131225 -9.78556,-0.661168 l -3.18766,3.288833 1.19793,5.711167 c 1.18879,5.667581 2.47972,6.828394 5.47554,4.923625 z"
     id="path4427"
     inkscape:connector-curvature="0"
     sodipodi:nodetypes="csssssssssssscssssssssscsssscsssscsssscssssssscccsssssscssssssssssssssscssscsscssccsssscssssssssscsscscccssssssssscsscsscsssssssscsscscssssscssssssssssssssssssssssscsssssssssssscssccsssssssssccsssscssssccccsscssssssscscsscsssssssscsssscsscscssssscssscscsscssssssscsssssssscscssssssssssssssssssssssscssscsssssssssssssssscssssscssscsssssssscccssssssscsscccssscssccsscsssscsscssssssscsssssscscsssssssssssssssccsssssscssccsccsssssccscssssssscssssscsssscssscsscssssscssccsssssssssscccssssscsscsssscsssssssscssssssscssssssssscsscscsssscssssssssscssssssccsssscssssssscscssccssssscssssssssssssssssssssssssssssssssssssssssssscsssssscsssscccssssssssssssscssssssscssscssssssssssscssssscss" />
  <path
     style="fill:#d8dc00;stroke:none;stroke-width:1px;stroke-linecap:butt;stroke-linejoin:miter;stroke-opacity:1;fill-opacity:0.80395681"
     d="m 61.923961,227.85285 2.537867,0.25379 1.268934,3.8068 2.537867,3.29923 0,1.01514 -1.52272,0.25379 -3.299228,-1.77651 -2.791654,-5.83709 z"
     id="path5235"
     inkscape:connector-curvature="0" />
  <path
     style="fill:#d8dc00;stroke:none;stroke-width:1px;stroke-linecap:butt;stroke-linejoin:miter;stroke-opacity:1;fill-opacity:0.80395681"
     d="m 62.431535,224.80741 3.04544,1.52272 2.030294,-3.04544 -1.776507,-1.52272 z"
     id="path5237"
     inkscape:connector-curvature="0" />
  <path
     style="fill:#d8dc00;stroke:none;stroke-width:1px;stroke-linecap:butt;stroke-linejoin:miter;stroke-opacity:1;fill-opacity:0.80395680999999997"
     d="m 136.53726,225.82256 4.31437,1.26893 2.0303,2.28408 2.53786,0.50757 -1.52272,-5.32952 -3.04544,-2.28408 -4.82194,0.25379 -1.26894,2.53787 z"
     id="path5239"
     inkscape:connector-curvature="0" />
  <path
     style="fill:#d8dc00;stroke:none;stroke-width:1px;stroke-linecap:butt;stroke-linejoin:miter;stroke-opacity:1;fill-opacity:0.80395680999999997"
     d="m 135.52211,237.49675 3.8068,-0.25379 3.29923,-2.79165 1.77651,-2.0303 0.76136,2.0303 -2.28408,4.56816 -2.79166,2.03029 -4.56816,-0.50757 -1.26893,-1.01515 z"
     id="path5241"
     inkscape:connector-curvature="0" />
  <path
     style="fill:#d8dc00;stroke:none;stroke-width:1px;stroke-linecap:butt;stroke-linejoin:miter;stroke-opacity:1;fill-opacity:0.80395680999999997"
     d="m 80.196605,189.78484 0,4.06059 3.553015,2.03029 22.33323,0.50758 21.82566,-1.26894 1.26893,-2.03029 -1.52272,-3.55302 -7.35981,-0.50757 -38.321798,-0.25379 z"
     id="path5243"
     inkscape:connector-curvature="0" />
  <path
     style="fill:#dcde5c;stroke:none;stroke-width:1px;stroke-linecap:butt;stroke-linejoin:miter;stroke-opacity:1;fill-opacity:0.43722942"
     d="m 131.9691,187.24697 1.26893,-9.64389 5.58331,3.55301 13.70448,7.6136 10.91283,5.32953 8.37496,1.52272 3.29923,1.52272 0.50757,2.53786 -3.04544,6.34467 -1.52272,4.82195 -2.03029,2.03029 -4.31437,-2.53786 -2.53787,-4.82195 -4.56816,-4.31438 -8.12118,-3.8068 -17.51128,-7.86739 z"
     id="path5245"
     inkscape:connector-curvature="0" />
  <path
     style="fill:#dcde5c;stroke:none;stroke-width:1px;stroke-linecap:butt;stroke-linejoin:miter;stroke-opacity:1;fill-opacity:0.43722941999999998"
     d="m 127.14715,167.19782 -1.01515,-6.85224 3.29923,-2.79165 10.91283,-4.06059 19.54158,-6.34467 3.8068,-2.53787 3.55301,-3.8068 2.28408,0 1.01515,3.8068 -1.26893,3.55302 3.8068,4.06059 1.26893,4.56816 -2.53787,2.28408 -5.83709,-3.29923 -3.04544,0.76136 z"
     id="path5247"
     inkscape:connector-curvature="0" />
  <path
     style="fill:#dcde5c;stroke:none;stroke-width:1px;stroke-linecap:butt;stroke-linejoin:miter;stroke-opacity:1;fill-opacity:0.43722942"
     d="m 86.287487,172.78113 -18.272644,5.32952 -8.121176,3.55302 -10.151469,3.8068 -9.643895,0.25378 -1.268934,3.04544 3.553014,5.07574 2.791654,2.03029 0.76136,2.79166 3.299228,3.04544 3.553014,-3.29923 2.791654,-4.31437 18.018857,-6.85225 4.821948,-1.7765 -1.268933,-5.58331 1.52272,-2.28408 3.299227,-0.76136 3.806801,-0.25379 2.791654,-1.26893 1.015147,-2.0303 z"
     id="path5249"
     inkscape:connector-curvature="0" />
  <path
     style="fill:#dcde5c;stroke:none;stroke-width:1px;stroke-linecap:butt;stroke-linejoin:miter;stroke-opacity:1;fill-opacity:0.43722941999999998"
     d="m 86.541273,166.69025 -17.00371,-6.85224 -14.973417,-7.86739 -7.359815,0 -2.537867,-2.28408 1.268933,-7.35982 1.776507,-4.56816 -0.507573,-5.58331 5.075735,-2.03029 3.299227,2.03029 2.030294,8.12118 23.602165,12.43555 4.568161,4.82195 2.791654,4.56816 -0.76136,4.82195 z"
     id="path5251"
     inkscape:connector-curvature="0" />
  <path
     style="fill:#dcde5c;fill-opacity:0.43722941;stroke:none"
     d="m 83.495833,150.19411 0.507573,-18.27264 1.522721,-0.76136 3.299227,-7.10603 5.583308,-5.32952 8.628748,-4.31438 11.92798,0 10.15147,4.31438 3.55301,6.59845 2.28408,14.46585 -0.50757,9.89768 -3.55302,6.59845 -3.96822,3.85298 -1.57716,7.76377 -5.78529,5.07469 -14.37876,-0.18209 -6.259213,-3.46699 -2.756592,-4.5007 -3.342771,-4.48107 -3.806801,-4.82195 z"
     id="path5253"
     inkscape:connector-curvature="0"
     sodipodi:nodetypes="ccccccccccccccccccccc" />
  <path
     style="fill:#dcde5c;fill-opacity:0.43722941;stroke:none"
     d="m 88.86252,165.72425 0.506373,-2.70621 1.676179,0.64751 3.70638,6.76617 9.174208,4.63349 8.50186,-0.50757 3.61646,-0.76136 6.02744,-5.32952 1.7765,-8.88254 1.77651,0.76136 -1.52272,13.95827 -3.29923,5.07574 -6.85224,2.03029 -9.19268,-0.33092 -7.406136,-1.19492 -5.544076,-2.59819 z"
     id="path5255"
     inkscape:connector-curvature="0"
     sodipodi:nodetypes="ccccccccccccccccc" />
  <path
     style="fill:#634d01;stroke:none;stroke-width:1px;stroke-linecap:butt;stroke-linejoin:miter;stroke-opacity:1;fill-opacity:0.89177489"
     d="m 79.882813,179.80469 0.195312,5.66406 1.953125,1.17187 47.26563,1.66016 1.07421,-0.68359 -0.39062,-9.27735 -3.51563,-0.58593 -4.58984,1.5625 -5.76172,2.4414 -6.44531,1.5625 -9.863282,-1.66015 -9.179688,-2.14844 -5.761718,-1.17188 z"
     id="path5279"
     inkscape:connector-curvature="0" />
  <path
     style="fill:#c9ab44;fill-opacity:1;stroke:#000000;stroke-width:1px;stroke-linecap:butt;stroke-linejoin:miter;stroke-opacity:1"
     d="m 84.277344,197.96875 1.367187,4.29687 c 0,0 10.644532,3.32032 18.457029,3.125 7.8125,-0.19531 20.01953,-2.73437 20.01953,-2.73437 l 1.66016,-4.58984 c 0,0 -10.72231,-1.15663 -21.28906,-0.97657 -8.11508,0.13828 -20.214846,0.0368 -20.214846,0.87891 z"
     id="path3036"
     inkscape:connector-curvature="0"
     sodipodi:nodetypes="ccsccsc" />
  <path
     style="fill:#cd9337;fill-opacity:0.7596491;stroke:none;filter:url(#filter3856)"
     d="m 86.669922,199.34616 1.187039,2.68454 c 0,0 9.241964,2.07441 16.025029,1.95238 6.7831,-0.12202 17.38167,-1.70833 17.38167,-1.70833 l 1.44142,-2.86758 c 0,0 -9.30951,-0.72261 -18.48391,-0.61012 -7.045803,0.0864 -17.551248,0.023 -17.551248,0.54911 z"
     id="path3036-9"
     inkscape:connector-curvature="0"
     sodipodi:nodetypes="ccsccsc" />
  <path
     style="fill:#000000;fill-opacity:1;stroke:#000000;stroke-width:1px;stroke-linecap:butt;stroke-linejoin:miter;stroke-opacity:1"
     d="m 89.746093,141.32812 c 0,0 1.953125,8.30078 5.566407,7.91016 3.613281,-0.39063 7.61719,-6.64063 7.51953,-7.61719 -0.0977,-0.97656 -3.222655,-2.05078 -7.421874,-1.66016 -4.199219,0.39063 -5.664063,1.36719 -5.664063,1.36719 z"
     id="path3886"
     inkscape:connector-curvature="0" />
  <path
     style="fill:#000000;fill-opacity:1;stroke:#000000;stroke-width:0.94423604px;stroke-linecap:butt;stroke-linejoin:miter;stroke-opacity:1"
     d="m 124.47762,141.21564 c 0,0 1.65538,5.36246 -0.64375,6.93421 -2.29914,1.57175 -7.63315,1.10948 -9.01263,-0.27736 -1.37949,-1.38685 -2.66701,-3.51335 -3.03487,-4.34545 -0.36786,-0.83211 2.29913,-1.94158 2.29913,-1.94158 0,0 5.05812,-2.12649 6.89742,-1.84912 1.83933,0.27738 3.4947,1.4793 3.4947,1.4793 z"
     id="path3888"
     inkscape:connector-curvature="0" />
  <path
     style="fill:#000000;fill-opacity:1;stroke:#000000;stroke-width:0.9013468px;stroke-linecap:butt;stroke-linejoin:miter;stroke-opacity:1"
     d="m 103.56395,156.90479 c 0,0 3.08777,-9.30923 3.79354,-7.64059 0.70577,1.66863 1.67621,7.28931 1.67621,7.28931 z"
     id="path3892"
     inkscape:connector-curvature="0" />
</svg>
