<?xml version="1.0" encoding="UTF-8" standalone="no"?>
<!-- Created with Inkscape (http://www.inkscape.org/) -->

<svg
   xmlns:dc="http://purl.org/dc/elements/1.1/"
   xmlns:cc="http://creativecommons.org/ns#"
   xmlns:rdf="http://www.w3.org/1999/02/22-rdf-syntax-ns#"
   xmlns:svg="http://www.w3.org/2000/svg"
   xmlns="http://www.w3.org/2000/svg"
   xmlns:sodipodi="http://sodipodi.sourceforge.net/DTD/sodipodi-0.dtd"
   xmlns:inkscape="http://www.inkscape.org/namespaces/inkscape"
   id="svg8914"
   version="1.1"
   inkscape:version="0.48.4 r9939"
   width="380"
   height="173"
   sodipodi:docname="PropertyTitle.png">
  <metadata
     id="metadata8920">
    <rdf:RDF>
      <cc:Work
         rdf:about="">
        <dc:format>image/svg+xml</dc:format>
        <dc:type
           rdf:resource="http://purl.org/dc/dcmitype/StillImage" />
        <dc:title></dc:title>
      </cc:Work>
    </rdf:RDF>
  </metadata>
  <defs
     id="defs8918">
    <filter
       inkscape:collect="always"
       id="filter9444"
       x="-0.23673143"
       width="1.4734629"
       y="-0.31939939"
       height="1.6387988">
      <feGaussianBlur
         inkscape:collect="always"
         stdDeviation="1.6812302"
         id="feGaussianBlur9446" />
    </filter>
  </defs>
  <sodipodi:namedview
     pagecolor="#ffffff"
     bordercolor="#666666"
     borderopacity="1"
     objecttolerance="10"
     gridtolerance="10"
     guidetolerance="10"
     inkscape:pageopacity="0"
     inkscape:pageshadow="2"
     inkscape:window-width="1273"
     inkscape:window-height="756"
     id="namedview8916"
     showgrid="false"
     inkscape:zoom="0.88157895"
     inkscape:cx="202.03137"
     inkscape:cy="72.780809"
     inkscape:window-x="-1"
     inkscape:window-y="22"
     inkscape:window-maximized="0"
     inkscape:current-layer="svg8914" />
  <path
     style="fill:#ffed98;fill-opacity:0.48969074;stroke:none"
     d="m 15.146598,104.96403 c 2.51011,-5.833877 7.529552,-9.696137 15.33287,-11.371066 L 151.19421,57.097811 165.63185,70.332317 c -4.64832,4.718052 -12.14423,8.623597 -6.97973,18.047054 5.26711,0.871048 9.07188,9.386041 13.65571,13.331809 l 7.36062,-0.0973 -1.38941,18.14018 c -42.49563,15.63571 -85.697307,25.62308 -128.549381,38.40725 -7.273142,-3.04478 -7.582602,6.40739 -28.895439,-25.43199 -3.094637,-9.05531 -6.936761,-17.98603 -5.687622,-27.76529 z"
     id="path8926"
     inkscape:connector-curvature="0"
     sodipodi:nodetypes="ccccccccccc" />
  <path
     style="fill:#ffed98;stroke:none;stroke-width:1px;stroke-linecap:butt;stroke-linejoin:miter;stroke-opacity:1;fill-opacity:0.48969072000000002"
     d="m 183.90299,116.99254 2.55223,-9.92538 4.64303,4.67312 -0.90236,4.71229 -6.2162,2.30601 z"
     id="path9436"
     inkscape:connector-curvature="0" />
  <path
     style="fill:#ffed98;fill-opacity:0.48969074;stroke:none"
     d="m 165.03028,54.89206 103.6703,-24.664307 39.00169,-10.427187 c 18.17498,6.745616 25.44425,13.220054 34.7907,21.656465 l -8.823,2.406274 c 1.8598,10.22419 6.04352,20.650458 2.20575,30.379207 -25.5827,9.775585 -60.29053,18.247579 -90.43579,27.371368 l -42.51084,10.42718 c -1.65547,-12.500065 -4.79103,-15.379577 -8.02091,-17.646005 4.12792,-2.667808 4.15834,-8.83055 -0.80209,-19.250191 -7.08514,-9.311308 -14.17028,-5.630942 -21.25542,-6.41673 z"
     id="path9438"
     inkscape:connector-curvature="0"
     sodipodi:nodetypes="cccccccccccc" />
  <path
     style="fill:#ff0004;fill-opacity:1;stroke:none"
     d="m 157.95522,84.522388 15.02985,17.440302 22.68657,-7.65672 c 0.27543,-4.966333 4.73099,-3.785427 -0.70895,-17.156716 -4.97978,-9.654873 -15.56712,-8.094619 -25.23881,-8.365672 -4.87251,3.27397 -11.47085,2.963529 -11.76866,15.738806 z"
     id="path9440"
     inkscape:connector-curvature="0"
     sodipodi:nodetypes="cccccc" />
  <path
     style="fill:#5fc189;fill-opacity:0.62371132;stroke:none"
     d="m 179.16714,101.01231 9.52483,-4.912811 8.72275,-0.401046 c 4.85257,5.781747 5.0091,11.563487 4.31124,17.345227 l 9.32431,13.03398 c 2.76687,20.59582 -3.96926,20.82806 -6.21621,30.67999 l -0.10026,-6.81777 -5.2136,3.00784 c 1.80204,-5.3807 5.76577,-10.76139 4.21098,-16.14209 -1.28587,-5.27109 -1.31319,-10.62083 -6.61725,-15.64078 -2.23353,11.42156 -7.90682,17.68347 -13.23451,24.46379 l 1.3034,-8.42196 -4.4115,2.30601 c 3.93543,-8.94587 8.7939,-17.49615 11.02876,-27.17084 l -6.61726,-5.31386 -1.50392,10.22667 -4.21098,0 z"
     id="path9448"
     inkscape:connector-curvature="0"
     sodipodi:nodetypes="cccccccccccccccccc" />
  <path
     style="fill:#5fc189;fill-opacity:0.62371132;stroke:none"
     d="m 154.60309,57.699379 10.82824,12.031369 5.81516,-3.007842 c -1.30864,-3.676252 -3.47325,-7.352503 -9.02353,-11.028755 -4.03345,-0.398374 -7.29893,-0.24819 -7.61987,2.005228 z"
     id="path9450"
     inkscape:connector-curvature="0"
     sodipodi:nodetypes="ccccc" />
  <path
     style="fill:#000000"
     d="m 202.42806,159.5 c 0.3916,-1.1 0.97419,-3.35 1.29464,-5 0.56794,-2.92427 0.53263,-2.95583 -1.39877,-1.25 -1.08978,0.9625 -2.55662,1.75 -3.25966,1.75 -0.84011,0 -1.01786,-0.59984 -0.51858,-1.75 2.47978,-5.71252 4.39331,-12.16544 4.42166,-14.91102 0.0331,-3.20887 -3.73685,-14.33989 -4.85613,-14.33789 -0.33617,6e-4 -2.11191,3.33889 -3.9461,7.41841 -1.83418,4.07953 -4.68561,9.25404 -6.33651,11.49891 -3.20314,4.3556 -6.38987,5.58493 -5.396,2.08159 0.31207,-1.1 0.85663,-3.00684 1.21014,-4.23743 0.55944,-1.94746 0.0516,-1.75305 -3.9183,1.5 -4.19429,3.43691 -6.72445,4.62097 -6.72445,3.14692 0,-0.32478 1.96816,-2.91228 4.37369,-5.75 5.16573,-6.09383 10.26355,-15.59811 12.09962,-22.5583 1.17992,-4.4729 1.13813,-5.14286 -0.40812,-6.5422 -2.44156,-2.20958 -2.79503,-1.9988 -3.25498,1.94101 -0.28179,2.41369 -0.005,3.5 0.89059,3.5 2.40687,0 1.32398,1.95596 -1.4508,2.6205 -1.5125,0.36223 -9.17145,3.0769 -17.01989,6.0326 -7.84844,2.95571 -21.12344,7.11563 -29.5,9.24428 -19.6309,4.98861 -70.871158,19.53599 -81.26638,23.07196 -7.22658,2.45815 -8.495585,2.61694 -12.595028,1.57605 C 30.35012,154.85898 14.074503,129.09294 14.014781,109.70034 13.977772,97.682888 19.449876,94.31361 53.5,85.388551 81.305699,78.100251 84.629239,77.1442 93,74.025955 c 4.675,-1.741514 13.675,-4.518911 20,-6.171993 6.325,-1.653083 17.80023,-4.996687 25.50052,-7.430232 7.70028,-2.433545 17.49676,-5.093569 21.76995,-5.911164 10.60626,-2.029313 23.02088,-5.074442 36.72953,-9.009225 6.325,-1.81546 14.2,-3.607758 17.5,-3.982883 3.3,-0.375126 10.05,-1.748991 15,-3.053035 4.95,-1.304043 12.15,-2.841496 16,-3.41656 8.29096,-1.2384 16.67169,-3.400196 41.31564,-10.657304 C 296.88925,21.427102 306.06366,19 307.20322,19 c 1.13955,0 7.24726,2.52603 13.57267,5.613401 8.33322,4.067361 13.03246,7.096975 17.06211,11 3.05874,2.962629 6.034,5.417055 6.61168,5.454279 1.78348,0.114923 -2.75096,1.768618 -6.5218,2.378481 l -3.57212,0.577724 2.2963,6.738057 c 2.28737,6.711832 2.96562,16.824277 1.48305,22.11151 -1.02418,3.652476 -13.13628,7.882503 -47.63511,16.636068 -17.88395,4.537787 -39.04141,10.52171 -43.84616,12.40092 -5.23404,2.04712 -20.05982,5.9087 -29.06296,7.56986 -4.90001,0.9041 -10.21234,2.17839 -11.80517,2.83176 l -2.89604,1.18794 4.07851,5.46189 c 2.24318,3.00404 4.59496,7.18568 5.22619,9.29252 1.65738,5.53184 -0.21995,16.24135 -4.20979,24.01538 -3.3223,6.47333 -6.98268,11.23628 -5.55652,7.23021 z M 49.382601,156.04463 c 1.382041,-0.52545 3.1578,-1.98795 3.946133,-3.25 C 55.213588,149.77715 56.292172,145 55.088603,145 c -0.522226,0 -1.144517,1.0125 -1.38287,2.25 -0.248625,1.29083 -0.491423,0.54078 -0.569551,-1.75945 -0.09604,-2.82764 -0.725698,-4.37762 -2.136182,-5.25848 -1.696248,-1.05932 -2,-0.99869 -2,0.39921 0,0.90653 0.7875,2.29708 1.75,3.09011 1.666667,1.37322 1.666667,1.41568 0,0.89163 -2.220717,-0.69826 -2.460709,2.90028 -0.25,3.74861 1.753685,0.67295 2.049011,2.75654 0.338525,2.38837 -0.63881,-0.1375 -1.447028,0.875 -1.796039,2.25 -0.555583,2.18883 -0.722185,2.272 -1.338526,0.66821 C 47.316782,152.66073 47,151.02137 47,150.0252 c 0,-0.99617 -0.675,-2.07024 -1.5,-2.38683 -1.128816,-0.43316 -1.531271,0.22087 -1.626368,2.64301 l -0.126369,3.21862 -1.0394,-3.70662 C 41.563137,145.71115 39,143.80187 39,147.03138 39,148.11412 38.55,149 38,149 c -0.55,0 -1,-1.07686 -1,-2.39301 0,-2.16291 -1.820162,-3.78918 -4.5,-4.02062 -0.55,-0.0475 -1.147617,-1.63744 -1.328038,-3.53319 -0.180421,-1.89575 -1.080421,-4.06999 -2,-4.83164 -1.552679,-1.28601 -1.547112,-1.34555 0.07804,-0.83456 2.430763,0.7643 2.276897,-2.03463 -0.184259,-3.3518 -2.822081,-1.51033 -2.850706,-1.46751 -2.483431,3.71482 l 0.336635,4.75 -1.056181,-4.5 c -1.553003,-6.61678 -1.706292,-7 -2.799994,-7 -0.55,0 -0.722893,0.7875 -0.384207,1.75 0.468138,1.33038 0.325625,1.48313 -0.594344,0.63704 -1.18881,-1.09334 -3.476071,-15.52193 -4.103688,-25.88704 -0.244175,-4.032569 -1.835296,1.67778 -1.910246,6.85566 -0.221593,15.30879 12.899386,38.46031 25.266588,44.58203 4.80413,2.37803 4.729526,2.36776 8.045728,1.10694 z M 97.5,143.38054 c 3.3,-0.89204 9.39423,-2.66905 13.54274,-3.94891 4.1485,-1.27986 14.9485,-4.18948 24,-6.46582 18.5016,-4.65292 39.79563,-12.18023 41.75204,-14.75909 0.82401,-1.08617 1.2275,-4.26378 1.10976,-8.73955 l -0.18502,-7.03282 -3.27154,0.38193 c -2.63607,0.30775 -3.50622,-0.0744 -4.47975,-1.96717 -0.66452,-1.292012 -2.58596,-3.804869 -4.26987,-5.58413 -1.68391,-1.77926 -2.74724,-3.549429 -2.36296,-3.933709 0.79542,-0.795428 8.6646,7.042404 8.6646,8.630092 0,1.781037 3.50096,1.145597 8.58673,-1.558534 2.68653,-1.428444 6.49897,-2.665944 8.47207,-2.75 4.66705,-0.19882 7.0839,-2.739263 7.68574,-8.07876 0.4154,-3.68538 -0.0305,-5.117103 -3.07626,-9.878453 -1.95913,-3.062621 -4.59846,-6.150488 -5.86517,-6.861929 C 185.61997,69.607539 168.01537,68.866558 167.99593,70 c -0.005,0.275 -1.34634,1.26118 -2.98138,2.191512 -3.47324,1.976254 -7.00547,7.319948 -7.01081,10.606237 -0.002,1.263762 1.18697,3.401262 2.64228,4.75 C 163.21203,89.925841 163.22608,90 161.11084,90 159.23951,90 159.0817,90.284134 160,92 c 0.84709,1.582795 0.76049,2 -0.41513,2 -0.81702,0 -1.88151,-0.707648 -2.36553,-1.572552 -0.6999,-1.25065 -1.58005,-1.389152 -4.29969,-0.67661 -2.79782,0.733023 -3.35939,1.311614 -3.08827,3.181862 0.20942,1.444638 -0.0666,2.039958 -0.75,1.617594 C 148.48662,96.182713 148,95.233524 148,94.440983 148,93.648442 147.33625,93 146.525,93 c -1.09124,0 -1.35602,0.845574 -1.01771,3.25 l 0.4573,3.25 -1.17534,-2.75 c -1.3566,-3.174111 -2.8542,-3.714371 -2.079,-0.75 0.29241,1.118188 0.0307,2 -0.59362,2 C 141.50248,98 141,97.325 141,96.5 c 0,-0.825 -0.68357,-1.5 -1.51905,-1.5 -1.14379,0 -1.3548,0.654447 -0.85416,2.649153 0.46793,1.864386 0.32546,2.439367 -0.48095,1.940983 C 137.51563,99.200642 137,98.233524 137,97.440983 137,96.648442 136.49752,96 135.88337,96 c -0.62412,0 -0.88606,0.881705 -0.59388,1.999004 0.28751,1.099452 0.115,2.251006 -0.38337,2.559016 C 134.40775,100.86603 134,99.939919 134,98.5 c 0,-1.621533 -0.41147,-2.363731 -1.08103,-1.949923 -0.59456,0.367462 -0.81099,1.744019 -0.48095,3.059017 0.33005,1.314996 0.19399,2.390906 -0.30234,2.390906 -0.49633,0 -1.13777,-0.9 -1.42543,-2 C 129.89953,96.8998 128,97.642032 128,101.05902 c 0,1.7847 -0.41658,2.80156 -1,2.44098 -0.55,-0.33992 -1,-1.51803 -1,-2.61803 0,-1.16379 -0.44661,-1.723983 -1.06817,-1.339836 -0.5875,0.363092 -0.82662,1.289646 -0.53139,2.059016 C 124.69568,102.37052 124.50135,103 123.96862,103 123.43588,103 123,102.29844 123,101.44098 c 0,-0.86799 -0.48186,-1.26121 -1.08712,-0.88714 -0.59791,0.36953 -0.86516,1.52064 -0.59388,2.55802 0.70913,2.71172 -0.95976,3.30495 -1.76358,0.62689 -0.65365,-2.17772 -0.69572,-2.18423 -1.54341,-0.23875 -0.77866,1.78707 -0.87892,1.80741 -0.94172,0.19098 -0.0396,-1.01794 -0.53739,-1.52033 -1.13846,-1.14885 -0.5875,0.3631 -0.82662,1.28965 -0.53139,2.05902 0.61078,1.59166 -0.95956,1.92123 -1.90044,0.39885 -1.06181,-1.71804 -2.75171,-1.09911 -2.04774,0.75 0.53418,1.40315 0.41665,1.50225 -0.59301,0.5 -1.73092,-1.7182 -3.1966,-1.5715 -2.49762,0.25 0.31658,0.825 0.13972,1.5 -0.39301,1.5 C 107.43588,108 107,107.55 107,107 c 0,-0.55 -0.43588,-1 -0.96862,-1 -0.53273,0 -0.68126,0.74882 -0.33006,1.66404 0.42936,1.11889 0.25527,1.42717 -0.53138,0.94099 -0.66294,-0.40972 -1.18372,-0.15579 -1.20174,0.58595 -0.0201,0.82733 -0.5544,0.6189 -1.45196,-0.56641 -1.66225,-2.19513 -4.4833,-1.52221 -4.586525,1.09405 C 97.868191,111.27794 97.752295,111.25068 97,109.5 96.179951,107.59164 96.13735,107.6031 96.070285,109.75 95.99339,112.2116 94,112.93375 94,110.5 c 0,-0.825 -0.480324,-1.5 -1.067388,-1.5 -0.62371,0 -0.810021,0.93525 -0.448221,2.25 0.570643,2.07367 0.508507,2.11285 -0.792855,0.5 -1.892898,-2.34598 -2.677355,-2.20396 -2.761821,0.5 -0.06706,2.1469 -0.109666,2.15836 -0.929715,0.25 -0.859429,-2 -0.859429,-2 -0.961518,0 -0.09984,1.95603 -0.133762,1.95815 -1.542768,0.0965 -1.295706,-1.71195 -1.504306,-1.73768 -2.072981,-0.25574 -0.347767,0.90626 -1.060725,1.38297 -1.584353,1.05935 -0.523628,-0.32362 -2.061388,-0.30997 -3.417244,0.0303 -2.096221,0.52612 -2.306957,0.91439 -1.407981,2.59414 0.581467,1.08648 0.660146,1.97542 0.174843,1.97542 -0.485303,0 -1.37068,-1.0125 -1.967503,-2.25 -1.046205,-2.16928 -1.089836,-2.14238 -1.216201,0.75 -0.122892,2.81289 -0.187474,2.85967 -1.035456,0.75 -1.073927,-2.67179 -2.936029,-2.97727 -3.047785,-0.5 -0.04716,1.04544 -0.282017,1.24674 -0.583334,0.5 -0.822547,-2.03849 -2.328714,-1.42466 -2.45372,1 -0.08729,1.69317 -0.22918,1.81691 -0.573325,0.5 -0.643321,-2.46175 -2.09884,-2.1769 -2.554911,0.5 -0.326453,1.91611 -0.529087,1.74071 -1.365493,-1.18198 -1.194066,-4.17248 -4.035369,-5.77443 -3.012349,-1.6984 0.389426,1.5516 0.242245,2.63038 -0.358869,2.63038 -0.560479,0 -1.072294,-1.6875 -1.137367,-3.75 -0.116424,-3.69007 -0.129616,-3.70206 -0.825475,-0.75 -0.701082,2.97421 -0.716338,2.96131 -1.774593,-1.5 -0.937408,-3.95185 -1.089839,-4.13457 -1.251376,-1.5 -0.178548,2.912 -0.220318,2.88266 -1.423939,-1 l -1.239995,-4 -0.561336,3.5 c -0.324571,2.02374 -0.01053,4.58001 0.744553,6.06054 0.71824,1.4083 2.518605,6.77586 4.000811,11.92793 2.989607,10.39169 3.036918,19.04144 0.134844,24.65343 l -1.578006,3.05153 18.696413,-5.3455 C 83.086614,147.4079 94.2,144.27258 97.5,143.38054 z M 79.729167,117.39583 C 79.328125,116.99479 79,115.97667 79,115.13333 c 0,-1.12559 0.295833,-1.2375 1.1125,-0.42083 0.611875,0.61188 0.94,1.63 0.729167,2.2625 -0.210834,0.6325 -0.711459,0.82188 -1.1125,0.42083 z M 151.69692,95.606872 c -0.4092,-1.041221 -0.5084,-2.128721 -0.22046,-2.416667 0.91206,-0.91206 1.71456,0.582564 1.33239,2.481526 -0.35024,1.740325 -0.40373,1.737205 -1.11193,-0.06486 z M 155,93.440983 c 0,-0.857459 0.45,-1.280902 1,-0.940983 0.55,0.339919 1,1.041476 1,1.559017 C 157,94.576558 156.55,95 156,95 c -0.55,0 -1,-0.701558 -1,-1.559017 z m 20.33291,-2.543187 C 172.00539,89.939586 167,84.849137 167,82.423275 c 0,-2.248134 1.53378,-1.662937 3.04566,1.162039 C 171.58978,86.470526 175.78853,89 179.03367,89 c 1.20208,0 1.96024,0.518269 1.73716,1.1875 -0.54146,1.624405 -1.72617,1.779149 -5.43792,0.710296 z m 29.6582,55.123664 c 1.67253,-4.03785 3.40739,-3.89121 2.70397,0.22854 l -0.55492,3.25 1.56777,-3.5 c 1.93483,-4.31946 2.90797,-16.98528 1.50508,-19.58929 -1.47656,-2.74074 -9.74242,-13.72715 -16.60906,-22.07558 l -5.89314,-7.164867 -3.35541,1.600081 C 182.50993,99.650388 181,100.64461 181,100.97973 c 0,0.33511 2.35497,2.38927 5.23326,4.56478 7.3799,5.57799 9.23102,7.86091 13.91736,17.16372 4.85764,9.64285 5.83442,15.95261 3.52072,22.74294 -1.70951,5.01713 -0.70242,5.4523 1.31977,0.57029 z M 46.823324,144.33287 C 46.336773,141.8241 44,141.47962 44,143.91667 44,145.145 44.645689,146 45.573324,146 c 0.931239,0 1.441373,-0.68037 1.25,-1.66713 z m -5.19761,-2.86586 C 40.897602,139.56958 38,139.55623 38,141.45031 c 0,1.75796 3.335942,3.88789 3.84433,2.45452 0.189381,-0.53394 0.091,-1.63096 -0.218616,-2.43782 z M 192.61614,130.17943 C 195.02726,125.05312 197,120.75305 197,120.62371 c 0,-0.12933 -1.08386,-1.70424 -2.40858,-3.4998 l -2.40859,-3.26465 -1.6781,5.82037 c -0.92296,3.2012 -3.02212,8.18287 -4.66481,11.07037 -2.91489,5.12376 -2.57898,7.4739 0.4288,3 2.5076,-3.72992 3.04212,-1.24113 0.81484,3.79401 -4.93562,11.15778 -0.23842,4.90521 5.53258,-7.36458 z M 37,140.53518 c 0,-0.80565 -0.870416,-1.93065 -1.934259,-2.5 C 32.385826,136.60094 31.962855,136.7292 32.708443,138.75 33.84387,141.8274 37,143.14027 37,140.53518 z m 10,-0.97616 c 0,-1.59263 -1.814359,-3.07799 -2.69007,-2.20228 C 43.487291,138.17938 44.771449,141 45.968615,141 46.535877,141 47,140.35156 47,139.55902 z M 42,137 c 0,-1.1 -0.188196,-2 -0.418213,-2 -0.230016,0 -1.130016,-0.27314 -2,-0.60699 C 38.460539,133.96275 38,134.37521 38,135.80968 c 0,1.81781 1.116628,2.88681 3.25,3.11137 C 41.6625,138.96447 42,138.1 42,137 z m 10.757494,-2.45915 c -0.276435,-2.45253 -0.157671,-4.59003 0.263922,-4.75 C 53.443009,129.63088 52.892349,126.575 51.797728,123 49.395616,115.15477 40.263503,101.00009 35.753188,98.131117 L 32.5,96.061794 32.175817,99.176032 c -0.188699,1.812718 0.229227,3.465108 1,3.953788 2.007255,1.27263 2.825388,1.03689 2.185809,-0.62982 -0.316582,-0.825 -0.07746,-1.5 0.531385,-1.5 C 36.501855,101 37,101.88963 37,102.97695 c 0,1.08732 1.2375,2.75112 2.75,3.69734 1.5125,0.94621 2.953403,1.87249 3.202007,2.05839 0.248604,0.1859 0.348527,1.87453 0.222051,3.75252 -0.172714,2.56456 0.279994,3.68743 1.81866,4.5109 1.126739,0.60301 2.489315,0.82402 3.027949,0.49113 C 48.600384,117.12894 49,118.59527 49,121.08074 c 0,2.82609 0.572117,4.63307 1.75,5.52721 1.666667,1.26518 1.666667,1.32996 0,1.36025 -2.04062,0.0371 -2.340126,3.00627 -0.5,4.9568 1,1.06 1,1.41667 0,1.78333 -2.586362,0.94834 -1.081479,3.92462 2.130052,4.21272 0.484029,0.0434 0.653878,-1.92767 0.377442,-4.3802 z M 55.378376,135.25 C 54.436527,131.32401 54,131.19206 54,134.83333 54,136.575 54.458573,138 55.019052,138 c 0.604961,0 0.750972,-1.11746 0.359324,-2.75 z M 35.625714,133.46701 C 34.964632,131.74426 32,131.47667 32,133.13976 c 0,1.5421 3.405521,3.98473 3.84433,2.75736 0.189381,-0.5297 0.091,-1.62325 -0.218616,-2.43011 z M 47,134.62244 c 0,-0.75765 -0.675,-1.93775 -1.5,-2.62244 -1.246374,-1.0344 -1.5,-0.9142 -1.5,0.71089 0,1.07568 0.3,2.25578 0.666667,2.62244 C 45.783482,136.45015 47,136.07952 47,134.62244 z m -6.641259,-5.35646 c -1.615566,-1.18747 -1.905674,-1.13935 -2.217482,0.36781 -0.197307,0.95371 0.477693,2.34881 1.5,3.10023 1.615566,1.18747 1.905674,1.13935 2.217482,-0.36781 0.197307,-0.95371 -0.477693,-2.34881 -1.5,-3.10023 z m -4.53919,-0.50576 C 35.415637,125.92912 32,125.03468 32,127.76001 32,130.02495 32.823442,131 34.736218,131 c 0.881394,0 1.284098,-0.83259 1.083333,-2.23978 z m 10.796407,-2.31863 C 46.311705,125.64871 45.598646,125 45.031385,125 c -1.440536,0 -1.290282,3.33932 0.218615,4.8586 1.003721,1.01063 1.315919,0.94002 1.584574,-0.35841 0.184015,-0.88936 0.08564,-2.26573 -0.218616,-3.0586 z M 31,126.60699 C 31,124.44238 29.367758,123 26.918213,123 c -1.628801,0 -0.974924,3.86759 0.831787,4.9199 2.651672,1.54446 3.25,1.30275 3.25,-1.31291 z m 9.954319,-4.16203 C 39.168997,120.29378 38,120.69159 38,123.45031 c 0,3.20542 3.351462,5.33829 3.826764,2.43534 0.17972,-1.09765 -0.21288,-2.64597 -0.872445,-3.44069 z M 23.097369,120.65292 21,118.55556 l 0,2.15079 c 0,1.18294 0.7875,2.9383 1.75,3.90081 1.666675,1.6667 1.76654,1.66415 2.097369,-0.0534 0.191053,-0.9919 -0.596447,-2.74726 -1.75,-3.90082 z m 11.732707,-1.7791 C 32.656537,117.49592 32,117.86164 32,120.45031 c 0,1.34767 0.7875,2.89559 1.75,3.43983 1.448956,0.81929 1.806781,0.54546 2.080076,-1.59181 0.181542,-1.41972 -0.268458,-2.96075 -1,-3.42451 z m 11.795638,1.59319 C 46.316095,119.66015 45.598646,119 45.031385,119 c -1.472313,0 -1.280322,3.74704 0.218615,4.26667 1.504685,0.52162 2.147904,-0.78737 1.375714,-2.79966 z m -17.231056,-4.1677 C 26.742004,114.35965 26,114.69798 26,117.84719 c 0,1.98548 0.680961,3.15411 2.25,3.86131 1.984366,0.89441 2.289643,0.71166 2.585788,-1.54787 0.209782,-1.60061 -0.331005,-3.04957 -1.44113,-3.86132 z m 11.565473,0.15265 C 39.27927,114.42665 38,114.64202 38,116.95031 c 0,2.48797 3.346085,4.62042 3.832576,2.44249 0.182916,-0.81888 -0.209684,-2.14226 -0.872445,-2.94084 z M 24.36508,116.25 c -0.950103,-3.88215 -2.789901,-4.79325 -3.195156,-1.5823 -0.29834,2.36384 1.074873,4.27668 3.099128,4.31699 0.422979,0.008 0.466191,-1.22219 0.09603,-2.73469 z M 36,115.03518 C 36,113.95453 35.1,112.5887 34,112 c -1.74723,-0.93509 -2,-0.76049 -2,1.38148 0,2.19335 1.020613,3.3049 3.25,3.53957 0.4125,0.0434 0.75,-0.80522 0.75,-1.88587 z m 4.34497,-5.78219 c -1.63265,-1.20266 -1.882968,-1.11346 -2.175152,0.7751 -0.188084,1.2157 0.457462,2.71575 1.5,3.48554 1.614255,1.19193 1.870882,1.10048 2.175152,-0.7751 0.198907,-1.22611 -0.436204,-2.70191 -1.5,-3.48554 z m 40.548147,1.08778 C 87.826903,108.45229 95.975,106.24203 99,105.42909 c 3.025,-0.81294 13.825,-4.1548 24,-7.426347 10.175,-3.27155 21.9879,-6.666311 26.25088,-7.543914 l 7.75088,-1.595641 -0.6225,-3.89288 c -0.67506,-4.221592 1.977,-10.13069 5.72496,-12.75586 1.84953,-1.29546 1.83082,-1.433057 -0.63424,-4.664913 -1.39698,-1.831545 -4.36692,-4.539099 -6.59986,-6.016787 -3.872,-2.562366 -4.29846,-2.630598 -9.215,-1.474338 -2.83532,0.666802 -8.75512,2.474155 -13.15512,4.01634 -4.4,1.542185 -11.6,3.759295 -16,4.92691 -4.4,1.167616 -14.075,4.10321 -21.5,6.523543 -14.568213,4.748812 -21.142921,6.63325 -42,12.038013 -7.425,1.924065 -14.996482,3.980572 -16.825516,4.570016 l -3.325515,1.071717 4.825515,2.244932 c 5.781216,2.689545 16.247006,9.909809 22.380082,15.439849 3.052015,2.75192 5.03883,3.83222 6.338551,3.44649 1.041214,-0.30901 7.566214,-2.10696 14.5,-3.99545 z M 182.5606,105.62724 c -2.03308,-1.84774 -2.06498,-1.83611 -2.38868,0.87083 -0.43731,3.65697 0.64653,7.73217 1.8574,6.98381 0.53387,-0.32995 1.03454,-0.0109 1.11259,0.7091 0.078,0.71996 0.44282,-0.49098 0.8106,-2.69098 0.55051,-3.293 0.30449,-4.33101 -1.39191,-5.87276 z M 30,111.66052 c 0,-1.52504 -0.870335,-2.73604 -2.5,-3.47857 -2.293126,-1.04481 -2.5,-0.93808 -2.5,1.2898 0,2.15142 2.136144,4.41214 4.25,4.49784 0.4125,0.0167 0.75,-1.02236 0.75,-2.30907 z M 50,108.5 c 0,-1.925 -0.498145,-3.5 -1.106989,-3.5 -0.608844,0 -0.847967,0.675 -0.531385,1.5 0.316583,0.825 0.135914,1.5 -0.401485,1.5 -0.545475,0 -0.425353,0.88347 0.271932,2 C 49.895285,112.66323 50,112.57438 50,108.5 z m -26,0 c 0,-1.375 -0.188196,-2.5 -0.418213,-2.5 -0.230016,0 -1.130016,-0.27314 -2,-0.60699 -1.923351,-0.73806 -2.21064,2.57814 -0.381787,4.40699 1.864121,1.86412 2.8,1.42961 2.8,-1.3 z m 10.960131,-2.04804 C 33.27927,104.42665 32,104.64202 32,106.95031 c 0,2.48797 3.346085,4.62042 3.832576,2.44249 0.182916,-0.81888 -0.209684,-2.14226 -0.872445,-2.94084 z m 177.542779,2.24518 c 3.8484,-0.8554 9.69709,-2.08012 12.99709,-2.72161 3.3,-0.64149 12.075,-3.1144 19.5,-5.49536 17.00011,-5.451405 35.72741,-10.722202 48,-13.509594 11.50762,-2.61365 27.1191,-7.223764 36.19515,-10.688531 l 6.69515,-2.555861 0.65342,-5.229799 c 0.37243,-2.980878 0.13119,-7.759735 -0.561,-11.113092 -1.28142,-6.207856 -3.95568,-13.743669 -4.63588,-13.063468 -0.22154,0.221539 0.0487,1.590208 0.60043,3.041487 C 332.49905,48.81259 332.56042,50 332.08366,50 c -0.47677,0 -1.1492,-1.125 -1.4943,-2.5 -0.9667,-3.851636 -2.23769,-2.958967 -1.77976,1.25 0.49328,4.533984 -1.42309,3.383875 -2.08282,-1.25 l -0.42712,-3 -0.14983,3.309017 C 325.9927,51.279164 324,51.401484 324,47.940983 324,46.873442 323.51968,46 322.93261,46 c -0.61231,0 -0.79675,0.852689 -0.43261,2 0.36414,1.147311 0.1797,2 -0.43261,2 C 321.48032,50 321,49.114123 321,48.031385 c 0,-1.334868 -0.4806,-1.784193 -1.49288,-1.395742 -1.0107,0.38784 -1.29868,1.346679 -0.8916,2.968615 0.76059,3.030414 -0.38259,3.135573 -1.58436,0.145742 -0.61611,-1.532794 -0.92459,-1.72935 -0.96777,-0.616631 C 315.96844,51.579921 312,52.334871 312,49.90638 c 0,-2.074839 -0.7586,-2.34556 -2.85325,-1.018241 -1.03902,0.658402 -1.09707,1.336169 -0.25,2.918946 C 310.26557,54.364747 310.28119,55 308.97525,55 308.41164,55 307.52277,53.875 307,52.5 c -1.1827,-3.110738 -2.95449,-3.251975 -3.13618,-0.25 l -0.13618,2.25 -0.43337,-2.25 c -0.23836,-1.2375 -0.90453,-2.25 -1.4804,-2.25 -0.5776,0 -0.83276,1.120849 -0.56912,2.5 0.26285,1.375 0.0903,2.5 -0.38342,2.5 C 300.3876,55 300,54.067004 300,52.926676 c 0,-1.446713 -0.52889,-1.96322 -1.75,-1.709012 -1.12754,0.234729 -1.66527,1.150039 -1.51179,2.573324 C 296.86923,55.005945 296.53173,56 295.98821,56 295.44469,56 295,55.1 295,54 c 0,-1.1 -0.45,-2 -1,-2 -0.55,0 -1,1.125 -1,2.5 0,1.375 -0.45,2.5 -1,2.5 -0.55,0 -1,-0.9 -1,-2 0,-1.149328 -0.66667,-2 -1.56739,-2 -1.11231,0 -1.38308,0.580679 -0.93261,2 0.73019,2.300611 -0.99306,2.763444 -1.86163,0.5 C 285.89041,53.550833 283,53.550833 283,55.5 c 0,0.825 -0.45,1.5 -1,1.5 -0.55,0 -1,-0.45 -1,-1 0,-0.55 -0.40787,-1 -0.90638,-1 -0.49851,0 -0.69255,1.0125 -0.4312,2.25 0.41864,1.98224 0.34208,2.041742 -0.64331,0.5 -1.36631,-2.137734 -3.17814,-2.327994 -2.38074,-0.25 0.31659,0.825 0.0775,1.5 -0.53138,1.5 C 275.49814,59 275,58.339123 275,57.531385 c 0,-0.842682 -0.59221,-1.241363 -1.38949,-0.935417 -0.80334,0.308271 -1.17599,1.349644 -0.88337,2.468615 0.66169,2.530298 -0.57873,2.510836 -1.51635,-0.02379 -0.55335,-1.495854 -1.07786,-1.71435 -2.21777,-0.923869 -1.13037,0.78386 -1.18789,1.159043 -0.23679,1.54462 0.69093,0.280104 1.00187,0.920845 0.69098,1.423869 C 268.55709,62.525654 267,62.153173 267,60.5 c 0,-0.838051 -0.89101,-1.5 -2.01905,-1.5 -1.68463,0 -1.90892,0.438794 -1.35416,2.649153 0.46793,1.864386 0.32546,2.439369 -0.48095,1.940983 C 262.51563,63.200642 262,62.206966 262,61.381966 c 0,-0.831421 -0.48769,-1.198589 -1.09417,-0.823766 -0.60179,0.371929 -0.8892,1.748486 -0.63867,3.059017 0.55724,2.91504 -0.8797,3.178926 -1.78463,0.327736 -0.86678,-2.730978 -3.05571,-1.854107 -2.71387,1.087158 0.25424,2.187507 0.16946,2.221863 -1.57874,0.639768 -2.28066,-2.063973 -3.59044,-2.157992 -2.84058,-0.203904 0.30982,0.807386 0.12979,1.735908 -0.40008,2.063382 -0.52986,0.327474 -1.23335,-0.108115 -1.56331,-0.967975 C 248.46172,64.15488 245.72825,64.568429 246.5,67 c 0.76946,2.424348 -0.32895,2.61619 -1.98805,0.347225 -1.6978,-2.321874 -3.84499,-0.838034 -2.47947,1.713463 C 242.758,70.416329 242.74936,71 242.0038,71 c -0.58661,0 -1.32559,-0.675 -1.64217,-1.5 -0.31659,-0.825 -1.41334,-1.5 -2.43723,-1.5 -1.24394,0 -1.67064,0.497702 -1.28603,1.5 0.31659,0.825 0.0775,1.5 -0.53138,1.5 C 235.49814,71 235,70.55 235,70 c 0,-2.314843 -2.90239,-0.772185 -3.29249,1.75 -0.41016,2.651911 -0.45236,2.669746 -1.18305,0.5 -1.245,-3.696937 -3.1325,-2.607618 -2.59911,1.5 0.0893,0.6875 -0.3074,1.25 -0.88151,1.25 C 226.46973,75 226,74.073442 226,72.940983 c 0,-1.228036 -0.43874,-1.78786 -1.08712,-1.387141 -0.59791,0.369532 -0.86516,1.520641 -0.59388,2.558021 0.27128,1.03738 0.0855,2.138151 -0.41288,2.446158 C 223.40775,76.866028 223,76.008605 223,74.652637 c 0,-2.00249 -0.38947,-2.36355 -2.07426,-1.922966 -1.6046,0.419612 -1.93992,1.077685 -1.48095,2.90638 C 219.77111,76.936223 219.63201,78 219.13568,78 c -0.49633,0 -1.13777,-0.9 -1.42543,-2 -0.28766,-1.1 -1.28892,-2 -2.22504,-2 -1.31615,0 -1.55977,0.566788 -1.07457,2.5 0.34511,1.375 0.22137,2.5 -0.27496,2.5 -0.49633,0 -1.14961,-0.945277 -1.45174,-2.100616 -0.31616,-1.208997 -1.01961,-1.80996 -1.65731,-1.415843 -0.60939,0.376625 -0.83436,1.546902 -0.49992,2.600616 C 210.86663,79.155138 210.66407,80 210.06739,80 209.48032,80 209,79.1 209,78 c 0,-1.1 -0.375,-2 -0.83333,-2 -1.63025,0 -2.08185,1.289967 -1.0963,3.131483 C 207.7566,80.413726 207.73545,81 207.00296,81 c -0.58707,0 -1.4288,-0.976936 -1.8705,-2.170969 -0.5874,-1.587892 -1.01603,-1.826443 -1.59589,-0.888197 -0.46801,0.757256 -0.23165,1.629584 0.57696,2.129329 1.02693,0.634677 1.08385,1.132454 0.22745,1.988859 -0.85641,0.856406 -1.30918,0.616545 -1.80903,-0.958359 C 202.16525,79.945298 201.41522,79 200.86522,79 c -0.55,0 -0.71435,0.9 -0.36522,2 0.36414,1.147311 0.1797,2 -0.43261,2 C 199.48032,83 199,82.586804 199,82.081787 c 0,-0.505016 -0.2599,-1.595505 -0.57756,-2.423307 -0.84631,-2.205457 1.55975,-3.185196 22.90211,-9.325642 10.5465,-3.034353 22.77545,-6.552133 27.17545,-7.817291 4.4,-1.265157 11.15,-3.44254 15,-4.838629 3.85,-1.396088 12.4,-3.712954 19,-5.14859 6.6,-1.435636 15.825,-3.471657 20.5,-4.524491 12.73335,-2.867615 22.89734,-4.847698 28.62195,-5.575945 7.17505,-0.912763 8.29125,-1.761332 5.85619,-4.452051 C 334.41305,34.588963 326.99543,29.629108 321,26.957603 c -3.025,-1.347911 -6.07697,-2.997113 -6.78215,-3.664893 -2.56557,-2.429503 -8.20631,-2.619267 -15.57452,-0.523955 -3.92883,1.117249 -15.04732,4.311958 -24.70775,7.099353 -9.66043,2.787396 -21.81043,5.794004 -27,6.681352 -5.18957,0.887347 -12.45613,2.443358 -16.14791,3.457803 -3.69179,1.014444 -10.21679,2.365287 -14.5,3.001874 -4.28322,0.636586 -12.96267,2.647746 -19.28767,4.469244 -6.325,1.821498 -16.10706,4.348303 -21.73792,5.615122 -10.20385,2.295642 -10.23179,2.310136 -8.39527,4.354902 1.01345,1.128377 2.92052,4.018304 4.23792,6.422059 l 2.39527,4.370464 6.09459,-0.568326 c 5.37375,-0.501107 6.5272,-0.274364 9.75217,1.917061 6.23086,4.23398 10.60018,15.621766 8.62982,22.491993 -0.51785,1.805627 -0.44229,3.130522 0.20122,3.52823 1.78146,1.101005 4.77732,8.744504 4.80024,12.247104 0.0149,2.27275 0.42662,3.2017 1.27487,2.8762 0.6891,-0.26443 4.4016,-1.18066 8.25,-2.03605 z M 198.981,100.46076 c -2.3803,-4.917058 -2.45724,-4.957449 -5.8549,-3.073832 l -2.3739,1.316058 4.8739,5.405994 c 4.41113,4.8927 4.9043,5.18792 5.19411,3.10926 0.17611,-1.2632 -0.65153,-4.30407 -1.83921,-6.75748 z M 30,105.36024 c 0,-1.56025 -2.651466,-4.26065 -4.25,-4.32844 -1.509137,-0.064 -0.698422,3.89886 1,4.8881 2.48497,1.44736 3.25,1.31562 3.25,-0.55966 z m 16.975026,-1.78521 c -1.345063,-1.34507 -2.345429,0.0173 -1.54477,2.10382 0.574498,1.49711 0.814669,1.54289 1.581898,0.30148 0.545624,-0.88283 0.530891,-1.83728 -0.03713,-2.4053 z M 23,101.5 C 23,99.944444 22.433333,99 21.5,99 c -2.794112,0 -1.787785,3.96175 1.25,4.92105 C 22.8875,103.96447 23,102.875 23,101.5 z m 7,-3 C 30,96.5 29.5,96 27.5,96 24.579429,96 24.122265,98.389386 26.75,99.919901 29.419623,101.47481 30,101.22125 30,98.5 z M 168.43264,67.75 c 2.39652,-2.221914 -2.03189,-8.845719 -6.76163,-10.113733 -1.28361,-0.344127 -1.6657,-0.06482 -1.28138,0.936696 0.75966,1.979648 -0.40568,1.787347 -1.94763,-0.321391 -0.70316,-0.961635 -1.52021,-1.506698 -1.81565,-1.211251 C 155.96038,57.706287 165.0145,69 166.21437,69 c 0.47852,0 1.47675,-0.5625 2.21827,-1.25 z M 315,47.881966 c 0,-0.55 -0.45,-0.721885 -1,-0.381966 -0.55,0.339919 -1,1.068034 -1,1.618034 0,0.55 0.45,0.721885 1,0.381966 0.55,-0.339919 1,-1.068034 1,-1.618034 z"
     id="path8924"
     inkscape:connector-curvature="0" />
  <path
     style="fill:#ffffff;fill-opacity:0.62371132;stroke:none;filter:url(#filter9444)"
     d="m 174.65538,79.155321 c 4.68893,-2.18483 9.42327,-3.370664 14.63816,6.015684 2.79463,-0.05866 4.3956,-1.443604 2.40627,-6.817775 -3.47723,-4.542937 -7.91612,-7.643374 -15.64078,-5.815162 -3.49952,2.205751 -1.96285,4.411502 -1.40365,6.617253 z"
     id="path9442"
     inkscape:connector-curvature="0"
     sodipodi:nodetypes="ccccc"
     transform="matrix(0.95343078,0.30161192,-0.30161192,0.95343078,32.518584,-52.165859)" />
</svg>
