<?xml version="1.0" encoding="UTF-8" standalone="no"?>
<!-- Created with Inkscape (http://www.inkscape.org/) -->

<svg
   xmlns:dc="http://purl.org/dc/elements/1.1/"
   xmlns:cc="http://creativecommons.org/ns#"
   xmlns:rdf="http://www.w3.org/1999/02/22-rdf-syntax-ns#"
   xmlns:svg="http://www.w3.org/2000/svg"
   xmlns="http://www.w3.org/2000/svg"
   xmlns:sodipodi="http://sodipodi.sourceforge.net/DTD/sodipodi-0.dtd"
   xmlns:inkscape="http://www.inkscape.org/namespaces/inkscape"
   id="svg8315"
   version="1.1"
   inkscape:version="0.48.4 r9939"
   width="212"
   height="169"
   sodipodi:docname="Rice.png">
  <metadata
     id="metadata8321">
    <rdf:RDF>
      <cc:Work
         rdf:about="">
        <dc:format>image/svg+xml</dc:format>
        <dc:type
           rdf:resource="http://purl.org/dc/dcmitype/StillImage" />
        <dc:title></dc:title>
      </cc:Work>
    </rdf:RDF>
  </metadata>
  <defs
     id="defs8319" />
  <sodipodi:namedview
     pagecolor="#ffffff"
     bordercolor="#666666"
     borderopacity="1"
     objecttolerance="10"
     gridtolerance="10"
     guidetolerance="10"
     inkscape:pageopacity="0"
     inkscape:pageshadow="2"
     inkscape:window-width="1279"
     inkscape:window-height="756"
     id="namedview8317"
     showgrid="false"
     inkscape:zoom="1.9748781"
     inkscape:cx="153.13006"
     inkscape:cy="127.00084"
     inkscape:window-x="3"
     inkscape:window-y="22"
     inkscape:window-maximized="0"
     inkscape:current-layer="svg8315" />
  <path
     style="fill:#ff0000;fill-opacity:1;stroke:none"
     d="m 16.709892,56.081639 c 2.961922,7.876194 4.66931,16.362201 8.954383,24.447031 9.51879,17.959511 21.434643,37.55961 45.859126,54.41859 l -1.645671,8.73472 c 7.440283,7.41877 57.39154,11.34793 84.05582,2.02544 l -5.56996,-11.64629 c 13.4043,0.24195 23.93266,-13.97214 32.76504,-27.73816 7.87403,-12.272328 14.31724,-28.236475 16.85827,-51.254052 -16.4968,17.033023 -41.57041,29.114481 -90.6385,27.34346 C 63.353917,81.007044 31.688136,73.007287 16.709892,56.081639 z"
     id="path8327"
     inkscape:connector-curvature="0"
     sodipodi:nodetypes="csccccsccc" />
  <path
     style="fill:#ff0000;fill-opacity:1;stroke:none"
     d="m 167.98505,30.38385 c 8.04353,9.177302 20.20502,13.060083 30.38162,19.494874 4.78338,-4.050883 -3.91833,-8.101766 -8.8613,-12.152649 z"
     id="path8837"
     inkscape:connector-curvature="0"
     sodipodi:nodetypes="cccc" />
  <path
     style="fill:#ff0000;fill-opacity:1;stroke:none"
     d="m 116.96924,23.041625 c 13.75612,1.032141 27.51225,-0.382804 41.26837,3.164752 4.93098,1.618545 7.50157,3.630489 10.50698,5.569964 -5.94323,-3.135517 -9.08042,-1.460678 -12.7856,-0.759541 -4.61454,1.553145 -10.17091,1.668066 -16.33296,-0.351097 -5.54845,-1.818102 -12.5413,-0.401809 -18.6059,-1.294574 -3.20695,-2.953769 -4.55725,-5.063603 -4.05089,-6.329504 z"
     id="path8839"
     inkscape:connector-curvature="0"
     sodipodi:nodetypes="ccccscc" />
  <path
     style="fill:#ff0000;fill-opacity:1;stroke:none"
     d="m 33.166604,41.397188 c 5.905736,0.578849 13.944114,-2.91371 21.013955,-4.557243 l 7.595406,-5.823144 c -2.338949,-0.205677 -4.776944,0.65102 -8.224861,1.794784 -7.142804,2.369454 -20.957599,5.700244 -20.3845,8.585603 z"
     id="path8841"
     inkscape:connector-curvature="0"
     sodipodi:nodetypes="cccsc" />
  <path
     style="fill:#000000"
     d="m 94.423052,151.16774 c -9.458516,-0.76249 -21.586456,-3.46812 -24.177506,-5.39377 -1.38731,-1.03105 -1.52465,-1.95208 -0.77386,-5.18959 1.35856,-5.85821 1.44687,-5.69214 -5.43216,-10.21484 -8.0954,-5.32242 -18.7685,-16.71886 -26.20004,-27.97566 -3.17551,-4.810069 -7.07273,-10.663003 -8.66047,-13.006525 -10.553156,-17.360293 -16.83696,-34.329992 -9.34692,-43.549963 2.38123,-3.128602 4.06325,-4.315664 6.64424,-4.689087 1.90073,-0.275 5.25587,-1.450341 7.45587,-2.61187 5.60934,-2.961549 20.11293,-7.620989 22.23326,-7.14268 0.97171,0.2192 -1.60826,1.406826 -5.73326,2.63917 -11.26804,3.366323 -16.05301,5.425696 -17.11355,7.36538 -0.6498,1.188474 -2.16769,1.75 -4.73051,1.75 -4.37871,0 -6.03088,1.125501 -9.0183,6.143502 -2.67734,4.497169 -1.92453,7.080403 3.43465,11.785832 7.44232,6.534436 22.33034,12.120458 41.38684,15.52844 22.13784,3.959034 32.881122,4.774572 57.040864,4.330056 21.48505,-0.395304 23.03285,-0.557677 34.3125,-3.599594 18.43423,-4.971375 36.74856,-15.476199 40.79326,-23.398398 3.6639,-7.17633 2.08985,-10.219449 -7.86194,-15.199505 -4.93482,-2.469476 -20.00367,-9.026804 -20.00367,-7.684708 0,0.334469 8.00985,6.006703 10.75985,7.189721 2.75,1.183018 5,2.545527 5,3.027798 0,1.195476 -0.36893,1.130672 -4.71607,-0.828395 -5.81969,-3.055848 -10.41764,-7.569943 -14.05647,-10.320701 -3.5374,-2.674079 -8.6793,-3.878374 -14.06004,-4.385232 -2.56708,-0.252286 -11.35779,-0.782176 -19.5349,-1.177532 l -14.86748,-0.71883 1.14634,2.141965 c 0.63049,1.178081 2.14586,2.354759 3.36748,2.614839 1.22163,0.26008 3.12114,0.663193 4.22114,0.895806 1.1,0.232613 0.41263,0.475134 -1.52749,0.538935 -4.5579,0.149886 -7.97251,-2.243878 -7.97251,-5.589006 l 0,-2.591598 14.75,0.771315 c 8.1125,0.424223 16.58013,0.911664 18.81696,1.083203 3.56266,0.273214 25.44188,6.892199 30.93304,9.357982 1.1,0.49395 4.025,1.645502 6.5,2.559004 10.48898,3.871397 15.27666,9.83165 12.47081,15.525101 -0.67762,1.375 -1.269,4.620332 -1.31416,7.211849 -0.10294,5.90621 -2.11636,13.961645 -7.32045,29.288151 -5.08385,14.972395 -4.50447,13.908295 -14.49903,26.629065 -10.66761,13.57743 -15.62591,18.13188 -21.5433,19.78865 l -4.67532,1.30901 2.02069,5.12652 c 2.67258,6.78039 2.67731,6.8735 0.36076,7.10234 -1.1,0.10866 -3.575,0.69646 -5.5,1.30622 -8.80823,2.79007 -33.40796,3.83776 -53.009148,2.25763 z m 37.509148,-2.02778 c 4.95,-0.55149 11.3942,-1.5297 14.32045,-2.1738 4.6833,-1.03085 5.24925,-1.41938 4.72592,-3.24447 -0.32698,-1.14037 -0.86987,-3.33556 -1.20641,-4.8782 -0.45282,-2.07567 -1.03148,-2.63619 -2.22592,-2.15616 -0.88772,0.35676 -5.88904,1.7676 -11.11404,3.13519 -8.55765,2.23989 -10.69033,2.42246 -21.5,1.84055 -6.6,-0.3553 -15.265181,-1.36855 -19.499997,-1.68576 -3.474588,-0.26026 -21.090348,-3.46662 -21.793429,-3.31881 -0.766174,1.7278 -0.95468,4.16988 -1.774894,6.87262 -1.771589,1.99008 3.923521,1.40726 10.099252,3.90219 3.583862,1.44785 34.010328,3.48464 49.969068,1.70665 z m 0.99559,-10.50818 c 3.84758,-0.81498 11.80825,-3.08544 17.69039,-5.04545 11.50966,-3.83519 12.55411,-4.63209 21.64156,-16.5123 2.28265,-2.98415 5.94861,-7.67573 8.14658,-10.42573 4.04951,-5.06655 9.28917,-18.733867 13.99305,-36.499995 3.08747,-11.661056 2.88503,-11.939008 -4.09492,-5.622513 -7.12596,6.448628 -12.69064,8.831239 -33.37225,14.288895 -13.70294,3.616059 -14.46681,3.703324 -36,4.112591 -18.74382,0.356252 -39.859954,-0.668679 -48.999994,-2.378352 -14.49868,-2.712022 -24.41021,-4.914722 -31,-6.88932 -12.66069,-3.79371 -19.5,-5.317418 -19.5,-4.344341 0,0.49474 1.1236,3.116846 2.49689,5.826902 2.63538,5.200672 3.93875,5.895388 14.02356,7.47474 2.21125,0.346297 4.68625,1.050638 5.5,1.565202 2.71052,1.713957 -1.38376,1.250442 -13.75605,-1.55733 -2.05374,-0.466077 -2.1444,-0.307207 -1.11455,1.953078 1.40186,3.076751 1.96274,3.282765 12.90278,4.739333 4.92105,0.655193 8.94737,1.610309 8.94737,2.122479 0,0.51217 -1.4625,0.67993 -3.25,0.372802 -1.7875,-0.307129 -5.93087,-0.870727 -9.2075,-1.252439 l -5.95749,-0.694023 1.87827,2.891152 c 1.03305,1.59013 2.81392,4.33223 3.95749,6.09357 2.36092,3.636279 2.79298,3.788749 15.00796,5.296289 4.91081,0.60607 9.63581,1.51562 10.5,2.02121 0.8642,0.50559 1.10946,0.93294 0.54503,0.94966 -1.73086,0.0513 -17.82227,-1.95434 -20.4009,-2.54276 l -2.42714,-0.55385 2.48249,3.2191 c 1.69985,2.20423 3.41082,3.27226 5.42714,3.38773 5.79276,0.33174 19.44465,2.88057 19.44465,3.63034 0,0.83183 -3.92258,0.38022 -14,-1.61184 -3.575,-0.7067 -6.69981,-1.09561 -6.94401,-0.86426 -0.24421,0.23135 2.45252,3.34315 5.99273,6.91511 3.5402,3.57195 6.57029,6.09379 6.73353,5.60408 0.16324,-0.48971 1.96651,-0.29428 4.00727,0.43429 2.04076,0.72858 5.48798,1.34444 7.66048,1.36858 2.9641,0.0329 3.66455,0.32934 2.80635,1.18754 -0.8392,0.8392 -2.55628,0.86333 -6.45,0.0907 -2.9185,-0.57915 -5.428,-0.93465 -5.57668,-0.79 -0.14868,0.14466 1.61088,1.50794 3.91013,3.02951 7.82899,5.18098 32.145825,9.81882 54.360194,10.36787 2.75,0.068 8.14802,-0.54322 11.99559,-1.35821 z M 61.682206,119.9666 c -4.5375,-1.08262 -8.25,-2.41496 -8.25,-2.96074 0,-0.54578 0.7875,-0.7598 1.75,-0.47559 0.9625,0.28422 5.8,1.47836 10.75,2.65367 4.95,1.1753 9.1875,2.32309 9.41666,2.55064 0.96918,0.96233 -6.00432,0.0602 -13.66666,-1.76798 z M 44.458186,97.007391 c -5.13166,-0.85038 -8.001,-2.21741 -6.92103,-3.29737 0.25938,-0.25939 2.25438,0.16336 4.43333,0.93944 2.17894,0.77608 6.52266,1.43081 9.6527,1.45495 3.13004,0.0241 5.9691,0.49389 6.30902,1.04389 0.74813,1.2105 -5.72751,1.14278 -13.47402,-0.14091 z M 28.682206,76.657437 c -3.31291,-1.439925 -4.68709,-3.295772 -1.5,-2.025757 0.9625,0.383544 4.45,1.295914 7.75,2.027489 l 6,1.330136 -4.5,0.04036 c -2.475,0.0222 -5.9625,-0.595305 -7.75,-1.372228 z M 25.877986,66.06261 c -2.72018,-1.697132 -5.56882,-3.834632 -6.33032,-4.75 -1.27388,-1.531302 -1.33382,-1.517917 -0.75,0.167482 0.349,1.007484 0.63454,2.266985 0.63454,2.798892 0,1.07336 7.67262,4.812829 9.94578,4.847359 0.79518,0.01208 -0.77982,-1.366601 -3.5,-3.063733 z m 85.289784,8.487929 c -0.32877,-0.328771 -0.35505,-1.230276 -0.0584,-2.003345 0.36785,-0.958585 -0.4491,-1.603275 -2.5689,-2.027234 -2.81625,-0.56325 -4.4597,-2.371655 -2.15532,-2.371655 2.41875,0 6.04705,2.503446 6.04705,4.172333 0,1.594205 0.59021,1.777936 4.25,1.323011 3.117,-0.387455 3.71682,-0.276049 2.25,0.417897 -2.29301,1.084808 -6.87975,1.373675 -7.76443,0.488993 z m 15.76443,-2.402234 c 0.33992,-0.55 1.60398,-0.968372 2.80902,-0.929715 2.11236,0.06776 2.11922,0.101124 0.19098,0.929715 -2.75248,1.182783 -3.731,1.182783 -3,0 z M 91.982206,71.2607 c 0.5225,-0.488183 2.074997,-1.186484 3.449997,-1.551779 2.402597,-0.638297 2.424371,-0.603715 0.55887,0.887605 -2.045616,1.635308 -5.695467,2.240001 -4.008867,0.664174 z m -42.05,-10.112395 c 0.33992,-0.55 1.60397,-0.993109 2.80901,-0.984687 1.78124,0.01245 1.91046,0.196601 0.69099,0.984687 -1.97012,1.273187 -4.28688,1.273187 -3.5,0 z m -12.5,-3.939136 c 0,-0.995834 5.147,-4.090839 6.70034,-4.029061 0.87808,0.03492 -2.18225,2.555141 -4.95034,4.076655 -1.14622,0.630034 -1.75,0.613613 -1.75,-0.04759 z m 7.58923,-0.749768 c 2.08033,-1.521176 4.05707,-1.692402 4.84373,-0.419566 0.30305,0.490342 -1.06625,1.080335 -3.04288,1.311096 -3.16272,0.369229 -3.37877,0.26227 -1.80085,-0.89153 z m 80.022324,-4.74122 c 0.30183,-0.786568 1.92986,-1.911568 3.61784,-2.5 3.7505,-1.307431 3.7706,-1.307804 3.7706,-0.06988 0,0.55 -0.8449,1 -1.87756,1 -1.03265,0 -2.43775,0.675 -3.12244,1.5 -1.58097,1.904951 -3.10979,1.949678 -2.38844,0.06988 z m 16.38844,0.318833 c 0,-0.739999 -1.25291,-0.881055 -3.75,-0.422184 -2.36903,0.435338 -3.38174,0.34089 -2.75,-0.256472 1.63268,-1.54383 7.52033,-2.342481 7.24107,-0.982241 -0.1592,0.775441 1.07067,1.076659 3.62128,0.886917 2.58314,-0.192162 3.64,0.07246 3.19098,0.798974 -0.8841,1.430518 -7.55333,1.40845 -7.55333,-0.02499 z m 15,0.227922 c 0,-0.485852 0.9,-1.118724 2,-1.40638 2.36157,-0.617564 2.71429,0.801673 0.41821,1.68276 -2.09921,0.805545 -2.41821,0.769086 -2.41821,-0.27638 z m 33.10423,-6.208169 c -2.41767,-1.072645 -4.13532,-2.210708 -3.817,-2.529028 0.85884,-0.85884 7.3668,1.498771 8.75522,3.171718 1.56675,1.887818 0.43273,1.740229 -4.93822,-0.64269 z M 82.932206,45.148305 c 0.33992,-0.55 1.26647,-1 2.05901,-1 0.79255,0 1.44099,0.45 1.44099,1 0,0.55 -0.92656,1 -2.05902,1 -1.13246,0 -1.7809,-0.45 -1.44098,-1 z M 108.4322,43.207322 c 0,-0.517541 0.44485,-1.215913 0.98855,-1.551938 0.56686,-0.350339 0.7345,0.05106 0.39301,0.940983 -0.66479,1.732417 -1.38156,2.049387 -1.38156,0.610955 z M 80.203666,40.9324 c 1.46667,-1.466667 2.5406,-1.872032 3.20346,-1.209172 0.66286,0.66286 -0.0768,1.40251 -2.20632,2.206317 l -3.20346,1.209172 z m -42.77146,0.32094 c 0,-0.49223 1.6875,-1.123956 3.75,-1.403835 6.36639,-0.863913 15.65234,-4.70117 17.5834,-7.266041 1.00838,-1.339337 2.3159,-2.435159 2.90561,-2.435159 0.58971,0 2.46468,-1.056732 4.1666,-2.348293 3.13489,-2.379028 7.43781,-4.002252 13.34439,-5.034003 5.49024,-0.959026 3.59453,1.168976 -2.09326,2.349757 -5.43728,1.128773 -13.90509,5.801862 -18.94747,10.45644 -1.53491,1.416854 -3.60196,2.576099 -4.59345,2.576099 -0.9915,0 -4.41862,0.9 -7.61582,2 -6.37283,2.192575 -8.5,2.469116 -8.5,1.105035 z M 145.9322,33.387015 c -2.2,-0.2048 -4.41809,-0.782885 -4.9291,-1.284635 -0.56048,-0.550334 1.65173,-0.671272 5.57592,-0.304825 4.27706,0.399397 7.27897,0.19324 8.76475,-0.601921 1.24285,-0.665153 2.48472,-0.98437 2.75972,-0.70937 1.55034,1.55034 -6.37852,3.440003 -12.17129,2.900751 z m -17,-3.23871 c -0.38055,-0.615738 1.30328,-1 4.38197,-1 2.75,0 5.27811,0.45 5.61803,1 0.38055,0.615738 -1.30328,1 -4.38197,1 -2.75,0 -5.27811,-0.45 -5.61803,-1 z m -22.26952,-8.551117 c -3.1475,-2.2046 -12.449634,-5.236596 -14.230474,-4.638374 -0.825,0.277135 -3.1875,1.563788 -5.25,2.859231 -2.0625,1.295442 -3.74999,2.012204 -3.74997,1.592805 6e-5,-1.526923 6.95485,-6.262531 9.19654,-6.262041 2.49115,5.46e-4 10.884014,2.937595 17.303424,6.055267 3.47931,1.689771 3.67099,1.942755 1.47251,1.94344 -1.39013,4.34e-4 -3.52404,-0.697214 -4.74203,-1.550328 z"
     id="path8325"
     inkscape:connector-curvature="0"
     sodipodi:nodetypes="sssssccsssssssssssssssscscscssssscssssssssscssssssssssssccsscssssssssssssssssssscsssscscsssscssscsccscccsssscsscscssssscssssssssscssssssssssssssssssssssssssssssssssssscssssssssssssssssssssscsssssssssssssssssssssssssssssss" />
</svg>
