<?xml version="1.0" encoding="UTF-8" standalone="no"?>
<!-- Created with Inkscape (http://www.inkscape.org/) -->

<svg
   xmlns:dc="http://purl.org/dc/elements/1.1/"
   xmlns:cc="http://creativecommons.org/ns#"
   xmlns:rdf="http://www.w3.org/1999/02/22-rdf-syntax-ns#"
   xmlns:svg="http://www.w3.org/2000/svg"
   xmlns="http://www.w3.org/2000/svg"
   xmlns:sodipodi="http://sodipodi.sourceforge.net/DTD/sodipodi-0.dtd"
   xmlns:inkscape="http://www.inkscape.org/namespaces/inkscape"
   id="svg28738"
   version="1.1"
   inkscape:version="0.48.4 r9939"
   width="260"
   height="146"
   sodipodi:docname="Rock.png">
  <metadata
     id="metadata28744">
    <rdf:RDF>
      <cc:Work
         rdf:about="">
        <dc:format>image/svg+xml</dc:format>
        <dc:type
           rdf:resource="http://purl.org/dc/dcmitype/StillImage" />
        <dc:title></dc:title>
      </cc:Work>
    </rdf:RDF>
  </metadata>
  <defs
     id="defs28742">
    <filter
       inkscape:collect="always"
       id="filter29276"
       x="-0.39859722"
       width="1.7971944"
       y="-1.2856674"
       height="3.5713348">
      <feGaussianBlur
         inkscape:collect="always"
         stdDeviation="11.803379"
         id="feGaussianBlur29278" />
    </filter>
    <filter
       inkscape:collect="always"
       id="filter29280"
       x="-0.25396315"
       width="1.5079263"
       y="-0.71636779"
       height="2.4327356">
      <feGaussianBlur
         inkscape:collect="always"
         stdDeviation="24.55609"
         id="feGaussianBlur29282" />
    </filter>
  </defs>
  <sodipodi:namedview
     pagecolor="#ffffff"
     bordercolor="#666666"
     borderopacity="1"
     objecttolerance="10"
     gridtolerance="10"
     guidetolerance="10"
     inkscape:pageopacity="0"
     inkscape:pageshadow="2"
     inkscape:window-width="691"
     inkscape:window-height="727"
     id="namedview28740"
     showgrid="false"
     inkscape:zoom="0.91107989"
     inkscape:cx="133.68616"
     inkscape:cy="101.38156"
     inkscape:window-x="-4"
     inkscape:window-y="22"
     inkscape:window-maximized="0"
     inkscape:current-layer="svg28738" />
  <path
     style="fill:#000000"
     d="m 131.22388,132.37667 c -1.375,-0.77139 -4.975,-1.90852 -8,-2.52694 -3.025,-0.61843 -12.51999,-3.1135 -21.09998,-5.5446 -13.542141,-3.8371 -16.213373,-4.30558 -20.249997,-3.55146 -5.307738,0.99159 -11.501973,0.0626 -18.390138,-2.75817 -2.617936,-1.07207 -7.380689,-2.21933 -10.583896,-2.54949 -3.203207,-0.33015 -7.69159,-1.55305 -9.974186,-2.71754 -2.282595,-1.16449 -6.898652,-2.90325 -10.257904,-3.86391 -8.708656,-2.49046 -14.211056,-6.2574 -16.49792,-11.294474 -2.968972,-6.539497 -2.524738,-8.835875 3.054022,-15.787142 2.75,-3.426565 5,-6.611274 5,-7.077131 0,-2.76109 4.77821,-10.224497 8.118674,-12.681102 2.148495,-1.580021 5.64577,-5.521319 7.771721,-8.75844 7.233575,-11.014341 17.594545,-19.57589 34.323736,-28.362629 11.198917,-5.882051 11.829232,-6.080294 22.731944,-7.149525 6.167504,-0.604848 14.440204,-1.875282 18.383784,-2.823186 8.89858,-2.138921 11.63502,-1.601443 24.64464,4.840575 5.36748,2.657836 13.08151,6.087507 17.14228,7.621491 15.07287,5.693883 23.98946,10.897608 32.38322,18.898871 8.51807,8.11976 9.50242,8.586347 23.13545,10.966357 13.89167,2.425165 22.64705,8.742554 25.26701,18.231268 1.26711,4.58912 4.41274,8.983486 10.73238,14.992887 5.11838,4.867122 5.36516,5.336318 5.36516,10.20078 0,7.53251 -1.81683,14.67673 -4.33371,17.04122 -1.2209,1.14697 -7.15777,3.68774 -13.19305,5.64615 -12.27963,3.98467 -20.79651,4.63178 -32.80703,2.49269 -3.75858,-0.66941 -8.48358,-0.91041 -10.5,-0.53554 -2.01641,0.37486 -8.39121,1.05409 -14.16621,1.5094 -6.62603,0.52241 -13.5713,1.81473 -18.82445,3.5027 -10.07744,3.23815 -25.15765,4.29097 -29.17555,2.03689 z m 28.92042,-4.17229 c 13.49346,-3.9934 30.42272,-5.20334 53.16524,-3.79973 11.26225,0.69508 11.8624,0.62543 21.5,-2.49522 5.45289,-1.76565 10.95998,-3.71322 12.23799,-4.32795 3.32085,-1.59733 5.17635,-6.89385 5.17635,-14.77588 0,-6.733372 -0.0554,-6.875278 -3.8859,-9.95355 -4.50032,-3.616555 -10.55127,-12.021446 -12.25063,-17.016358 -2.03623,-5.985073 -6.36066,-10.4535 -13.07603,-13.511435 -5.54052,-2.522951 -7.41599,-2.85846 -15.78744,-2.82427 -5.225,0.02134 -11.60092,0.362794 -14.16872,0.758788 -5.03473,0.776435 -5.41031,0.259279 -2.998,-4.128178 1.36096,-2.475294 3.71823,-3.129605 2.81738,-0.782025 -0.30982,0.807386 -0.0205,1.779533 0.64301,2.160325 0.66348,0.380793 0.87273,0.324108 0.46501,-0.125965 -0.40773,-0.450074 -0.29967,-1.350477 0.24013,-2.000897 0.69642,-0.839145 -1.16678,-3.265598 -6.41572,-8.355219 -6.02035,-5.837599 -9.32231,-8.077793 -17.74013,-12.035673 -5.68863,-2.674668 -12.14296,-5.438926 -14.34296,-6.142795 -2.2,-0.703868 -8.87803,-3.671771 -14.84006,-6.595339 -13.56284,-6.650729 -15.91514,-7.092584 -26.61367,-4.999102 -4.70045,0.919782 -12.82127,2.106346 -18.046269,2.63681 -8.465254,0.859427 -10.629203,1.528684 -19.867207,6.144446 -16.209235,8.098932 -28.572045,18.240254 -35.568069,29.1768 -1.956676,3.058776 -5.163829,6.786548 -7.127008,8.283938 -3.504413,2.672946 -8.127648,10.028098 -7.007477,11.148268 0.313368,0.313369 0.569761,0.04476 0.569761,-0.596905 0,-0.641667 0.3375,-1.073658 0.75,-0.959981 2.037832,0.56159 11.266299,-3.614261 13.77561,-6.233417 3.722142,-3.885079 6.471828,-3.987826 5.97507,-0.223269 -0.199584,1.5125 -0.393885,3.039355 -0.43178,3.393011 -0.03789,0.353656 -0.710322,0.889148 -1.494281,1.189982 -1.547291,0.593751 -1.639125,-2.80157 -0.141323,-5.225063 0.646258,-1.045669 0.383429,-1.080212 -1.312619,-0.172514 -1.166372,0.624223 -2.120677,1.595676 -2.120677,2.158785 0,0.563108 0.5625,0.708885 1.25,0.323949 0.6875,-0.384936 0.575,-0.01969 -0.25,0.811664 -0.825,0.831352 -4.671365,2.699258 -8.547477,4.150904 -5.202277,1.948307 -8.248447,3.880393 -11.634407,7.379318 -5.761794,5.954026 -6.709443,7.870573 -6.052128,12.239964 1.02877,6.838574 6.207978,11.440753 15.734012,13.981043 2.75,0.73334 6.8,2.2437 9,3.35635 2.2,1.11265 7.375,2.58369 11.5,3.26898 4.125,0.68528 10.2,2.22944 13.5,3.43145 4.862262,1.77107 7.367471,2.08468 13.211527,1.65386 5.503494,-0.40572 8.700938,-0.0683 13.5,1.42453 3.45866,1.07589 13.443332,3.71723 22.188152,5.86966 8.74482,2.15242 16.38104,4.39485 16.96937,4.98318 1.71815,1.71815 18.13288,0.14213 27.55137,-2.64527 z M 125.99276,92.104807 c -0.3199,-1.223316 -0.17377,-2.22421 0.32474,-2.22421 0.49851,0 0.90638,-0.75 0.90638,-1.666667 0,-0.916666 0.2961,-1.370571 0.65799,-1.008676 0.3619,0.361895 1.2619,0.156795 2,-0.455778 0.73811,-0.612572 1.34201,-0.778568 1.34201,-0.368879 0,0.409689 0.69986,0.164059 1.55524,-0.545844 1.38252,-1.147393 1.42181,-0.997893 0.35377,1.346198 -0.66081,1.450313 -1.47813,2.465947 -1.81627,2.256965 -0.89126,-0.550829 -3.68587,1.693196 -4.25525,3.416891 -0.34505,1.044577 -0.65647,0.826003 -1.06861,-0.75 z m 4.35868,-3.97421 c 1.24387,-1.586056 1.2085,-1.621426 -0.37756,-0.377555 -1.66575,1.306369 -2.19548,2.127555 -1.37244,2.127555 0.20765,0 0.99515,-0.7875 1.75,-1.75 z m 4.92319,-1.25 c -0.024,-1.786181 1.64029,-4.642289 2.31305,-3.969533 0.2599,0.259901 -0.14969,1.596868 -0.91019,2.97104 -0.80164,1.448498 -1.3912,1.868116 -1.40286,0.998493 z m 65.40813,-1.066531 c -1.05993,-1.71501 -0.11074,-1.88329 1.98382,-0.351708 1.62209,1.186098 1.67241,1.418239 0.30745,1.418239 -0.89767,0 -1.92873,-0.479939 -2.29127,-1.066531 z m 7,0 c -1.07627,-1.741443 0.14952,-2.110241 1.52106,-0.457635 0.78875,0.950384 0.86462,1.524166 0.20152,1.524166 -0.58488,0 -1.36004,-0.479939 -1.72258,-1.066531 z m 6.04112,0.06653 c -0.33992,-0.55 -0.16803,-1 0.38197,-1 0.55,0 1.27811,0.45 1.61803,1 0.33992,0.55 0.16803,1 -0.38197,1 -0.55,0 -1.27811,-0.45 -1.61803,-1 z m -72.37244,-1.681701 c 3.23885,-3.968679 6.06786,-6.315556 6.95332,-5.768313 0.52346,0.323516 0.68831,1.014457 0.36633,1.535424 -0.32197,0.520968 -1.00431,0.688316 -1.51631,0.371885 -0.51199,-0.316431 -0.9309,-0.09877 -0.9309,0.483688 0,0.582459 -0.9,1.959017 -2,3.059017 -2.47795,2.477945 -4.8494,2.74073 -2.87244,0.318299 z m 40.87244,0.181701 c -0.70675,-0.851583 -1.06,-1.773332 -0.785,-2.048332 0.275,-0.275 1.07825,0.196749 1.785,1.048332 0.70675,0.851583 1.06,1.773332 0.785,2.048332 -0.275,0.275 -1.07825,-0.196749 -1.785,-1.048332 z m 4.97994,-0.02417 c -0.69572,-0.838291 -1.07128,-1.717826 -0.83459,-1.954522 0.2367,-0.236695 0.97964,0.44918 1.65098,1.524166 1.45181,2.324723 0.96763,2.57996 -0.81639,0.430356 z m 6.56173,0.732499 c -1.27733,-1.277324 -0.40249,-2.337711 0.98122,-1.189334 1.29235,1.072555 1.41807,0.977552 0.83044,-0.627555 -0.67615,-1.84688 -0.64134,-1.846561 1.4771,0.01354 1.19327,1.047743 2.16957,2.003993 2.16957,2.125 0,0.477915 -4.95049,0.186187 -5.45833,-0.321655 z m -23.40058,-2.571754 c 0.70581,-1.574881 1.46504,-2.318185 1.68717,-1.651786 0.22214,0.6664 -0.35535,1.954939 -1.28329,2.863421 -1.57938,1.546257 -1.60519,1.468848 -0.40388,-1.211635 z m 7.89409,0.429162 c -1.26687,-2.367163 -1.32568,-3.36331 -0.15589,-2.640338 0.88235,0.545323 2.25839,4.574601 1.56227,4.574601 -0.20415,0 -0.83703,-0.870416 -1.40638,-1.934259 z m -4.42819,-0.647528 c -0.85768,-2.235063 -0.79004,-2.418209 0.89301,-2.418209 0.83333,0 1.5,0.888889 1.5,2 0,2.384246 -1.53559,2.652613 -2.39301,0.418213 z m -7.69677,-1.250457 c 0.53932,-1.007735 1.76398,-2.470235 2.72147,-3.25 1.54002,-1.254177 1.52144,-1.042774 -0.16101,1.832244 -1.9717,3.369282 -4.29268,4.654436 -2.56046,1.417756 z m -81.894906,0.08225 c 0.0084,-0.4125 0.395798,-1.350231 0.860836,-2.083846 0.689192,-1.087225 0.950962,-1.059078 1.415787,0.152235 0.313644,0.817344 0.301267,1.755074 -0.0275,2.083845 -0.840925,0.840925 -2.267425,0.744371 -2.249119,-0.152234 z m 73.319836,-1.5 c 0.20529,-1.2375 0.18086,-1.6875 -0.0543,-1 -0.76644,2.240912 -2.43326,1.314218 -1.79868,-1 0.53837,-1.963351 0.29279,-1.867802 -1.92765,0.75 -1.39954,1.65 -2.54685,2.393044 -2.54958,1.65121 -0.005,-1.435579 5.63036,-7.15121 7.05113,-7.15121 2.00215,0 2.74683,3.480478 1.33062,6.219112 -1.73904,3.362933 -2.55644,3.574456 -2.05154,0.530888 z m 4.71069,0.164354 c 0.61391,-1.147106 1.31533,-1.886513 1.55872,-1.643128 0.6999,0.699897 -0.71897,3.728774 -1.74673,3.728774 -0.51083,0 -0.42629,-0.937815 0.18801,-2.085646 z M 79.274265,79.419704 c -1.347289,-0.727726 -3.034789,-1.098586 -3.75,-0.824133 -1.51807,0.582537 -1.773948,-1.304261 -0.300384,-2.214974 0.55,-0.339919 1,-1.091329 1,-1.669801 0,-0.578472 -0.885029,0.01059 -1.966731,1.309017 -1.081702,1.298431 -1.981702,1.876725 -2,1.285098 -0.0183,-0.591627 1.164294,-2.166627 2.627981,-3.5 1.463688,-1.333373 2.357154,-1.894212 1.98548,-1.24631 -0.618153,1.077563 2.800947,2.989798 4.54233,2.540435 1.093697,-0.282229 2.100418,3.894101 1.160277,4.813346 -0.467135,0.456753 -1.951664,0.235047 -3.298953,-0.492678 z m 0.949616,-2.432118 c 0,-0.491156 -0.73865,-1.176458 -1.641444,-1.522892 -1.372472,-0.526667 -1.434339,-0.380336 -0.377555,0.893011 1.440126,1.735245 2.018999,1.91584 2.018999,0.629881 z m 7.468963,2.842792 c -0.91846,-1.486099 -0.188001,-2.012205 1.41676,-1.020408 0.85973,0.531342 0.962008,1.0467 0.290138,1.461939 -0.570715,0.352721 -1.33882,0.154032 -1.706898,-0.441531 z M 68.539595,75.24891 c 2.041053,-7.255299 2.093614,-7.104455 -1.173663,-3.368313 -1.683423,1.925 -3.079058,3.025775 -3.10141,2.446167 -0.04325,-1.121484 6.094071,-7.446167 7.225581,-7.446167 0.369055,0 0.440767,0.6 0.15936,1.333333 -0.286252,0.745963 0.149226,1.333334 0.988536,1.333334 0.85391,0 1.784151,-1.292895 2.159352,-3.001175 0.501064,-2.281328 0.859616,-2.642995 1.494869,-1.50786 1.081553,1.932628 0.05768,5.842368 -1.529983,5.842368 -1.404565,0 -5.204177,3.893633 -4.713356,4.829988 0.17875,0.341006 -0.205972,0.797003 -0.854939,1.013325 -0.734818,0.244939 -0.981664,-0.31149 -0.654347,-1.475 z M 56.802449,71.943836 c -1.814146,-0.670055 -1.786252,-0.804363 0.49956,-2.405409 2.160285,-1.513122 2.54147,-1.530965 3.539784,-0.165689 0.997464,1.364114 1.254791,1.366169 2.372884,0.01895 0.689752,-0.831101 1.718738,-1.511091 2.286636,-1.511091 0.567899,0 0.203692,0.91587 -0.809348,2.035267 -1.013041,1.119397 -2.37795,1.829562 -3.033133,1.578145 -0.655182,-0.251417 -1.583576,-0.09338 -2.063096,0.351193 -0.47952,0.444574 -1.736499,0.488959 -2.793287,0.09863 z M 162.63417,70.054074 c 0.86652,-1.675659 2.06586,-3.349717 2.6652,-3.720129 0.59933,-0.370413 0.38074,0.697516 -0.48578,2.373175 -0.86652,1.675659 -2.06586,3.349717 -2.6652,3.720129 -0.59933,0.370413 -0.38074,-0.697516 0.48578,-2.373175 z M 48.827259,68.2894 c -0.265478,-0.691824 0.64809,-1.998777 2.030152,-2.904338 2.429652,-1.591969 2.477312,-1.580092 1.439655,0.358788 -1.710971,3.196979 -1.287947,3.415058 2.176815,1.122198 l 3.25,-2.150737 -2.8074,2.415976 c -3.093099,2.661843 -5.347643,3.090636 -6.089222,1.158113 z m 29.103932,-1.42005 c -0.286039,-1.093814 -0.08564,-1.988753 0.445327,-1.988753 0.530968,0 0.706499,-0.418906 0.390068,-0.930902 -0.316431,-0.511996 -0.117988,-1.213553 0.440983,-1.559017 0.60215,-0.372149 1.016312,0.594429 1.016312,2.371885 0,3.539621 -1.546395,4.960625 -2.29269,2.106787 z m 89.292689,1.66047 c 0,-2.369229 2.66793,-6.513037 5.07962,-7.889643 3.03316,-1.731335 3.04548,-1.728726 2.3605,0.5 -0.95039,3.092275 -1.40591,3.413804 -2.4479,1.727828 -0.69396,-1.122844 -1.25489,-0.602988 -2.45905,2.278961 -1.30908,3.133072 -2.53317,4.76775 -2.53317,3.382854 z M 82.239194,63.130597 c -0.0084,-1.7875 0.434687,-3.25 0.984687,-3.25 1.2702,0 1.2702,3.034506 0,5 -0.735598,1.138257 -0.973067,0.716223 -0.984687,-1.75 z m 3.354401,-2.5 c 0.331637,-1.2375 0.637645,-2.925 0.680018,-3.75 0.04457,-0.867815 0.458375,-0.551253 0.981842,0.751114 0.993747,2.472408 0.329793,5.248886 -1.255194,5.248886 -0.55903,0 -0.740529,-1.004196 -0.406666,-2.25 z m 91.923845,0.719177 c -0.86841,-0.929643 -0.53315,-1.494614 1.41319,-2.381424 3.22837,-1.470943 3.55603,-1.124164 1.42321,1.50623 -1.32046,1.628521 -1.95095,1.823064 -2.8364,0.875194 z m 6.92005,-2.664371 c 0.80166,-1.207357 2.04739,-2.391808 2.76831,-2.632113 0.81659,-0.272198 0.59583,0.543555 -0.58558,2.16377 -2.29697,3.150124 -4.24022,3.567082 -2.18273,0.468343 z M 90.574182,57.880597 c 0.342315,-1.375 0.628534,-3.0625 0.636044,-3.75 0.0075,-0.6875 0.472228,-1.25 1.032707,-1.25 1.202462,0 0.211784,5.014316 -1.284204,6.5 -0.674976,0.670327 -0.801751,0.175817 -0.384547,-1.5 z m 3.326129,-0.75 c -0.61843,-1.050314 1.075965,-5.25 2.118153,-5.25 0.472467,0 0.660893,1.35 0.418725,3 -0.418444,2.851041 -1.57763,3.879143 -2.536878,2.25 z M 124.22388,56.32158 c 0,-0.857459 -0.44644,-1.283104 -0.99208,-0.945878 -0.54564,0.337227 -1.78314,0.152468 -2.75,-0.410574 -2.01545,-1.173685 -2.01734,-1.172656 2.99208,-1.629204 2.06625,-0.188314 3.75,0.108237 3.75,0.66047 0,0.55123 -0.40803,0.750058 -0.90674,0.44184 -0.49871,-0.308218 -0.67122,0.340224 -0.38337,1.440983 0.29273,1.11942 0.0313,2.00138 -0.59326,2.00138 -0.61415,0 -1.11663,-0.701558 -1.11663,-1.559017 z m 3.5,0.559017 c -0.33992,-0.55 -0.14148,-1 0.44098,-1 0.58246,0 1.05902,0.45 1.05902,1 0,0.55 -0.19844,1 -0.44098,1 -0.24254,0 -0.7191,-0.45 -1.05902,-1 z m -23.68194,-2.514135 c -0.30388,-2.434463 -2.18172,-3.576563 -2.44306,-1.485865 -0.0687,0.55 -0.18125,1.45 -0.25,2 -0.0687,0.55 -0.83032,1 -1.692389,1 -1.16682,0 -1.387937,-0.575015 -0.865216,-2.25 0.821866,-2.633559 2.436345,-3.910638 4.150575,-3.283169 0.66989,0.245201 1.48395,0.01547 1.80902,-0.510505 1.25508,-2.030765 2.05362,-0.803953 1.66172,2.552942 -0.49911,4.275239 -1.93435,5.471911 -2.37065,1.976597 z m 12.06352,1.323152 c -0.0651,-0.719959 -0.0651,-1.646517 0,-2.059017 0.19587,-1.240515 -1.11239,-0.851099 -3.05897,0.910536 -1.00918,0.913295 -2.11116,1.384251 -2.44884,1.04657 -1.0745,-1.074504 0.54511,-5.461999 2.25904,-6.119697 1.2285,-0.471421 1.39811,-0.307986 0.66387,0.639699 -0.54242,0.700091 -1.29571,2.172892 -1.67399,3.272892 -0.48146,1.400042 0.0234,1.125227 1.68309,-0.916113 1.87399,-2.304979 2.552,-2.62302 3.2352,-1.517581 1.164,1.883393 1.32472,4.898665 0.29502,5.535051 -0.4598,0.284173 -0.88929,-0.07238 -0.95442,-0.79234 z m -8.86627,-2.5 c 0.008,-0.444959 0.45153,-1.484017 0.98469,-2.309017 0.8354,-1.292687 0.97149,-1.266292 0.98469,0.190983 0.008,0.930041 -0.43469,1.969098 -0.98469,2.309017 -0.55,0.339919 -0.99311,0.253976 -0.98469,-0.190983 z m 91.98469,4.307614 c 0,-0.210852 -0.90062,-0.618886 -2.00138,-0.906741 -1.10076,-0.287855 -1.7492,-0.115339 -1.44098,0.383369 0.53825,0.870908 3.44236,1.312446 3.44236,0.523372 z"
     id="path29256"
     inkscape:connector-curvature="0" />
  <path
     style="fill:#000000;fill-opacity:0.53960416;stroke:none"
     d="M 14.746269,89.731343 26,74.985075 C 25.799716,68.591827 32.240033,63.305346 38.029851,57.910448 41.779904,52.963133 42.639887,49.099595 50.059702,42.776119 60.073102,32.886855 72.678491,26.453577 85.761194,20.656716 L 124.1791,14.835821 c 20.81773,6.909092 35.70149,15.004975 53.55224,22.507463 l 20.95523,17.462686 c 10.03565,2.535865 21.72577,4.658111 27.9403,8.149254 4.48624,2.826438 8.76909,5.740041 9.70149,10.089552 2.20982,10.985411 10.56296,16.510096 17.07463,23.671642 0.34411,10.143562 -0.99131,17.407932 -4.26866,21.343282 l -29.49254,8.92537 c -25.13166,-2.59548 -18.39425,-1.69259 -27.35821,-2.32835 -19.03282,0.91501 -37.35006,6.71481 -54.91045,8.14925 l -49.283578,-13.58209 -15.522388,0.38806 -23.283582,-5.8209 -22.119403,-8.14925 C 19.21644,102.62337 15.379265,97.13861 14.746269,89.731343 z"
     id="path29258"
     inkscape:connector-curvature="0"
     sodipodi:nodetypes="cccccccccccccccccccc" />
  <path
     style="fill:#000000;fill-opacity:0.53960403999999995;stroke:none;filter:url(#filter29280)"
     d="m 20.179104,81.58209 30.268657,-15.910448 20.179105,8.149253 30.656714,-24.83582 26,6.597015 30.26866,18.238805 18.2388,-13.970149 18.62687,-4.268656 36.47761,8.925373 21.34329,31.044776 -3.8806,22.895521 -38.41791,7.7612 -71.79105,5.04477 -53.940295,-12.02985 -62.477612,-15.52239 z"
     id="path29260"
     inkscape:connector-curvature="0"
     transform="matrix(0.82602441,0,0,0.77902428,16.013843,30.890186)" />
  <path
     style="fill:#ffffff;fill-opacity:0.53960416000000000;stroke:none;filter:url(#filter29276)"
     d="M 71.069509,28.008152 C 79.080571,39.608124 135.20479,42.106376 142.13902,21.42256 L 124.57744,14.836969 84.515091,20.324962 z"
     id="path29266"
     inkscape:connector-curvature="0"
     sodipodi:nodetypes="ccccc" />
</svg>
