<?xml version="1.0" encoding="UTF-8" standalone="no"?>
<!-- Created with Inkscape (http://www.inkscape.org/) -->

<svg
   xmlns:dc="http://purl.org/dc/elements/1.1/"
   xmlns:cc="http://creativecommons.org/ns#"
   xmlns:rdf="http://www.w3.org/1999/02/22-rdf-syntax-ns#"
   xmlns:svg="http://www.w3.org/2000/svg"
   xmlns="http://www.w3.org/2000/svg"
   xmlns:sodipodi="http://sodipodi.sourceforge.net/DTD/sodipodi-0.dtd"
   xmlns:inkscape="http://www.inkscape.org/namespaces/inkscape"
   id="svg3969"
   version="1.1"
   inkscape:version="0.48.4 r9939"
   width="314"
   height="242"
   sodipodi:docname="SoftShoes 1.png">
  <metadata
     id="metadata3975">
    <rdf:RDF>
      <cc:Work
         rdf:about="">
        <dc:format>image/svg+xml</dc:format>
        <dc:type
           rdf:resource="http://purl.org/dc/dcmitype/StillImage" />
        <dc:title></dc:title>
      </cc:Work>
    </rdf:RDF>
  </metadata>
  <defs
     id="defs3973">
    <filter
       inkscape:collect="always"
       id="filter4517">
      <feGaussianBlur
         inkscape:collect="always"
         stdDeviation="2.4632581"
         id="feGaussianBlur4519" />
    </filter>
  </defs>
  <sodipodi:namedview
     pagecolor="#ffffff"
     bordercolor="#666666"
     borderopacity="1"
     objecttolerance="10"
     gridtolerance="10"
     guidetolerance="10"
     inkscape:pageopacity="0"
     inkscape:pageshadow="2"
     inkscape:window-width="1279"
     inkscape:window-height="756"
     id="namedview3971"
     showgrid="false"
     inkscape:zoom="1.9504132"
     inkscape:cx="172.35834"
     inkscape:cy="100.31025"
     inkscape:window-x="1"
     inkscape:window-y="22"
     inkscape:window-maximized="0"
     inkscape:current-layer="svg3969" />
  <path
     style="fill:#000000"
     d="m 176.55246,229.10652 c -0.71868,-0.99947 -3.44951,-2.40944 -6.0685,-3.13327 -4.25411,-1.17573 -5.24032,-2.03585 -9.25,-8.06727 -2.46851,-3.71317 -4.4882,-7.2532 -4.4882,-7.86673 0,-1.73272 -1.39127,-1.34319 -5.61045,1.57082 -2.88259,1.99087 -5.46712,2.79512 -9.98317,3.10654 -5.64837,0.38949 -6.24673,0.22554 -8.18921,-2.24393 l -2.0956,-2.66412 -1.6758,2.55759 c -2.88576,4.40422 -10.44577,2.39863 -10.44577,-2.77116 0,-2.45277 -0.51766,-2.16192 -5.7468,3.22889 -5.67549,5.85094 -11.31008,7.94783 -14.949307,5.56331 -3.28574,-2.1529 -5.40637,-5.80863 -6.019,-10.37609 l -0.53501,-3.98883 -5.62494,3.63808 c -16.45031,10.63968 -22.60146,12.67917 -36.12494,11.97773 -5.225,-0.27101 -11.28103,-1.03958 -13.45784,-1.70794 -5.14757,-1.58048 -16.33549,-12.77472 -19.49539,-19.50641 -2.11349,-4.50247 -2.34367,-6.36839 -2.31328,-18.75199 0.0315,-12.85181 0.20928,-14.11075 2.71525,-19.23277 4.4573,-9.11038 22.84022,-35.8167 31.88602,-46.32332 10.20115,-11.84855 36.32708,-36.196487 46.92395,-43.73056 2.67813,-1.904079 2.7679,-2.274935 3.07349,-12.698128 0.29801,-10.164406 0.51814,-11.137411 4.129497,-18.252348 2.09809,-4.13357 6.05543,-10.076171 8.79408,-13.205781 5.99807,-6.854335 16.70265,-15.308761 19.91683,-15.730222 1.28006,-0.167849 3.67739,-0.8536597 5.32739,-1.5240227 1.65,-0.670363 6.1915,-1.465629 10.09222,-1.767257 13.68595,-1.058282 27.59554,5.8168047 43.30112,21.4024367 5.71633,5.672678 10.72424,10.31396 11.12868,10.31396 0.40444,0 1.26961,-1.289841 1.92261,-2.866313 3.78005,-9.125852 16.72554,-4.641998 20.21399,7.0014 0.8873,2.961544 0.92417,4.807229 0.13766,6.890933 -1.15513,3.060298 0.18944,6.084859 3.90348,8.780684 0.99013,0.718687 1.80024,2.181187 1.80024,3.25 0,1.068813 0.60269,1.943296 1.33932,1.943296 1.89956,0 7.46659,6.378515 8.23334,9.433471 0.64323,2.562859 2.06385,4.144914 8.17734,9.106618 4.14841,3.366853 4.09649,4.157133 -0.23986,3.650893 -3.8068,-0.44443 -5.83514,1.88758 -3.58893,4.12624 0.91412,0.91104 1.61814,0.61185 3.06439,-1.30228 2.49828,-3.30652 3.42504,-2.14537 1.44907,1.81556 -1.81772,3.6437 -1.31678,6.13752 1.59856,7.95818 2.01082,1.25577 2.02195,1.2187 0.51117,-1.70282 -2.81176,-5.43735 -1.30853,-7.29466 1.66905,-2.06218 2.12401,3.73251 4.47038,4.72106 6.46687,2.72457 2.32683,-2.32683 0.74923,-5.35922 -3.71804,-7.14667 -2.17925,-0.87196 -3.96228,-2.03903 -3.96228,-2.59348 0,-3.13299 9.05235,2.42628 13,7.98361 1.925,2.70994 5.85245,6.80464 8.72767,9.09934 2.87522,2.2947 4.99432,4.54976 4.70911,5.01125 -0.28522,0.46149 0.64795,1.13185 2.0737,1.48969 4.66652,1.17122 16.999,21.58795 20.00043,33.1112 5.80953,22.30431 -6.75389,40.29681 -28.13759,40.29681 -13.1987,0 -38.83545,-12.49258 -55.35267,-26.97291 -3.58636,-3.1441 -8.61271,-7.12677 -11.16968,-8.85039 l -4.64903,-3.13384 -1.60097,2.44338 c -0.88053,1.34387 -1.60097,2.81783 -1.60097,3.27547 0,0.45764 -2.025,3.9152 -4.5,7.68345 -4.77016,7.2627 -5.48945,9.96117 -2.91821,10.94785 2.99788,1.1504 4.37144,0.59812 5.90946,-2.37608 2.5554,-4.94162 10.73255,-7.86205 13.31179,-4.75425 0.57636,0.69447 1.19396,3.0392 1.37245,5.21051 0.26826,3.26347 0.75788,4.04916 2.82451,4.5324 1.60734,0.37585 2.5,1.27772 2.5,2.5258 0,2.46324 -2.89657,3.07856 -4.65853,0.98962 -0.73781,-0.87473 -1.90397,-2.21766 -2.59147,-2.98429 -0.6875,-0.76662 -1.25,-2.32601 -1.25,-3.46529 0,-1.42222 -0.64308,-2.07143 -2.05188,-2.07143 -3.40441,0 -9.84056,4.28906 -10.87932,7.25 -0.80027,2.28114 -1.55212,2.75 -4.40979,2.75 -2.13976,0 -3.66312,-0.56833 -4.02064,-1.5 -0.68294,-1.77971 -0.18905,-1.86508 2.49129,-0.43061 1.45473,0.77855 2.38876,0.74525 3.43426,-0.12244 2.21207,-1.83586 1.74774,-2.68899 -2.16663,-3.98085 -3.34581,-1.10421 -3.55851,-1.4128 -2.98287,-4.32755 0.34091,-1.7262 2.15915,-5.38855 4.04053,-8.13855 1.88139,-2.75 4.31562,-7.09768 5.4094,-9.6615 2.17534,-5.09897 1.83695,-5.9272 -3.56151,-8.7169 -1.20843,-0.62447 -4.33059,-2.98188 -6.93813,-5.23869 l -4.74098,-4.10329 -2.16864,4.9139 c -1.19275,2.70265 -3.87494,7.13973 -5.96041,9.86019 -8.74081,11.40221 -9.78288,20.30218 -4.01633,34.30214 3.51241,8.52737 10.08888,18.15926 14.2688,20.89804 2.13959,1.40192 2.50564,1.3582 4.54004,-0.54216 2.79069,-2.60683 12.9735,-6.45571 15.95826,-6.03188 3.37954,0.4799 3.33496,3.8899 -0.0938,7.17486 -3.39751,3.25502 -9.05792,4.81895 -14.40165,3.97907 -2.46504,-0.38744 -3.75,-0.20295 -3.75,0.53841 0,0.6203 0.005,1.45772 0.0108,1.86093 0.006,0.40322 3.06858,0.59186 6.8059,0.41921 5.56127,-0.25692 7.46799,0.0831 10.50069,1.87241 4.49523,2.65225 7.26667,2.1574 12.20608,-2.17947 4.54876,-3.99389 14.47653,-9.99468 14.47653,-8.75029 0,0.52199 -2.1375,2.24985 -4.75,3.8397 -2.6125,1.58984 -6.1,3.9918 -7.75,5.33768 -1.65,1.34588 -4.4625,3.19675 -6.25,4.11303 -3.02349,1.54986 -3.47244,1.55094 -6.44158,0.0155 -5.69765,-2.94637 -8.85103,-3.34637 -18.67399,-2.36875 l -9.63443,0.95886 -4.73897,-5.24552 c -2.60643,-2.88504 -4.74393,-5.79945 -4.75,-6.47647 -0.006,-0.67702 1.15314,-1.52313 2.57602,-1.88025 3.0852,-0.77434 7.0274,1.80667 9.45709,6.19166 1.7857,3.22277 4.40883,4.28745 5.23822,2.12611 0.31272,-0.81494 -2.09078,-4.17602 -5.79997,-8.11076 -8.08519,-8.57683 -13.45544,-20.36821 -14.22532,-31.23431 -0.43452,-6.13279 -0.15701,-7.9003 1.96969,-12.54563 1.36151,-2.97392 3.94582,-7.08177 5.74292,-9.12855 1.7971,-2.04678 4.30201,-6.26691 5.56648,-9.37807 l 2.29903,-5.65664 -5.06756,-5.82631 c -2.78716,-3.20442 -5.16268,-5.82626 -5.27893,-5.82626 -0.11624,0 -0.002,1.09309 0.25299,2.42908 0.30005,1.56958 0.95866,2.2394 1.86133,1.89301 3.60385,-1.38292 0.63404,2.67349 -5.25514,7.17791 -3.59541,2.75 -14.48203,12.97044 -24.1925,22.71209 l -17.65538,17.7121 -0.64147,5.7879 c -0.3528,3.18335 -0.6903,10.62541 -0.75,16.53791 l -0.10853,10.75 3.37756,0 c 1.85765,0 3.93274,0.66897 4.61131,1.48659 1.06494,1.28317 1.61552,1.07792 4.02366,-1.5 2.79887,-2.9962 6.30537,-3.89926 7.51854,-1.93631 0.35701,0.57765 0.96115,3.16515 1.34253,5.75 l 0.69342,4.69972 1.85122,-2.78009 c 1.01817,-1.52905 2.23905,-4.8561 2.71308,-7.39343 0.98069,-5.24938 2.35176,-7.32648 4.83614,-7.32648 2.50715,0 4.86489,3.04265 5.78339,7.46345 0.75365,3.62734 1.22843,4.04113 7.7759,6.77722 10.72095,4.48011 17.24781,6.76307 19.98226,6.98938 3.22187,0.26666 3.25286,1.76995 0.0365,1.76995 -2.38972,0 -8.54267,-2.1108 -21.29549,-7.30552 l -6.25,-2.54586 0,2.25137 c 0,1.23826 1.08882,3.27427 2.41959,4.52447 1.33078,1.2502 2.92595,3.49554 3.54483,4.98964 1.14287,2.75914 5.65217,5.0859 9.85658,5.0859 1.23056,0 2.179,0.62721 2.179,1.44098 0,2.37663 2.20877,2.99399 3.6517,1.02067 1.0372,-1.41846 1.3483,-1.49986 1.3483,-0.35278 0,1.56714 -1.87735,3.89113 -3.1433,3.89113 -0.40881,0 -1.33131,-0.81775 -2.05,-1.81721 z M 62.647823,216.28611 c 8.80141,-2.20731 27.27458,-12.56365 29.18647,-16.36238 0.41522,-0.825 2.35611,-6 4.31309,-11.5 1.95697,-5.5 5.184447,-14.275 7.172167,-19.5 4.88209,-12.8333 6.55128,-20.42255 5.83699,-26.53883 -0.57979,-4.96459 -0.63503,-5.0335 -3.74962,-4.67763 -2.3787,0.27179 -4.69566,-0.63333 -9.360607,-3.65669 l -6.19945,-4.01789 -5.06134,5.53791 -5.06133,5.53791 3.23699,2.18141 c 5.03153,3.39074 8.05053,8.48761 7.40872,12.50784 -0.89319,5.59482 -3.29486,7.41207 -9.06327,6.8578 -3.98759,-0.38316 -5.50043,-1.09977 -7.83302,-3.71039 -2.03568,-2.27833 -2.72526,-3.89562 -2.33092,-5.46679 0.6212,-2.47508 -1.75687,-6.52804 -3.0636,-5.22132 -0.4566,0.45661 0.0136,1.44715 1.04479,2.20121 1.77993,1.30152 1.66084,1.61421 -2.34914,6.16824 -5.63961,6.40475 -7.31406,9.7803 -2.65441,5.35105 3.91477,-3.72119 5.13598,-2.29064 1.42064,1.66416 l -2.2048,2.3469 2.8157,2.61086 c 2.99657,2.77857 5.59389,7.98797 5.59389,11.21955 0,4.36161 -9.85504,8.78532 -16.70776,7.49975 -5.48652,-1.02928 -8.29224,-4.34603 -8.29224,-9.80259 0,-4.32694 -0.1394,-4.53694 -3.65615,-5.50796 -2.01088,-0.55523 -4.93588,-2.23558 -6.5,-3.7341 -2.03546,-1.9501 -2.84385,-2.28907 -2.84385,-1.19248 0,1.69624 2.54885,4.20077 5.25,5.1587 1.77945,0.63105 2.4598,2.68338 0.88955,2.68338 -0.47325,0 -2.51824,-1.125 -4.54441,-2.5 -2.02618,-1.375 -4.23897,-2.5 -4.91731,-2.5 -0.67834,0 -2.03108,-0.93168 -3.00608,-2.0704 -1.67312,-1.95406 -1.68016,-2.38884 -0.12532,-7.73732 3.32325,-11.43156 8.12159,-16.70707 11.49685,-12.64014 1.13361,1.36593 1.51344,1.19635 3.16582,-1.41341 1.98482,-3.13481 6.7909,-6.84236 6.7909,-5.23871 0,0.52038 -1.35,2.29613 -3,3.94613 -3.39023,3.39024 -3.82429,5.16883 -1.25,5.12205 1.98483,-0.0361 3.49299,-1.16532 7.6916,-5.75913 l 2.94161,-3.21849 -3.32281,-3.42826 -3.3228,-3.42826 1.93668,-3.31606 c 1.06518,-1.82383 3.76037,-4.54085 5.98932,-6.03783 2.22895,-1.49698 5.79168,-5.24681 7.91719,-8.33295 2.12551,-3.08614 4.02712,-5.12351 4.22579,-4.52747 0.19868,0.59603 -1.30538,3.35406 -3.34234,6.12897 -3.85275,5.24849 -4.04209,7.67279 -0.34066,4.36182 2.65289,-2.37306 6.87642,-8.92564 6.87642,-10.66843 0,-1.43298 -3.47278,-4.74211 -4.97663,-4.74211 -2.15367,0 -8.02337,6.29418 -8.02337,8.60359 0,1.31803 -0.45,2.39641 -1,2.39641 -0.55,0 -1,-1.19468 -1,-2.65484 0,-1.80106 1.2999,-3.8914 4.04211,-6.5 4.37926,-4.16589 8.1836,-4.97035 9.9082,-2.09516 0.99855,1.66473 1.10125,1.66399 2.10796,-0.0153 2.42286,-4.04164 6.04727,-6.34959 9.19173,-5.85309 1.23409,0.19486 0.85431,-1.10884 -0.88189,-3.02732 -1.39445,-1.54088 -1.44751,-2.2484 -0.36464,-4.86266 1.57597,-3.80474 5.5103,-6.99163 8.63139,-6.99163 1.45111,0 2.36514,-0.58833 2.36514,-1.52234 0,-0.837294 1.8372,-3.515473 4.08266,-5.951514 2.59621,-2.816552 3.91276,-5.083978 3.616,-6.227657 -0.33402,-1.287316 -0.50398,-1.087929 -0.59797,0.701509 -0.0984,1.873593 -0.35474,2.14707 -1.02301,1.091451 -1.2997,-2.053051 -12.46371,6.661468 -29.40451,22.952881 -17.08416,16.42926 -25.79748,26.70413 -36.85141,43.45567 -15.24895,23.10881 -15.5078,23.8614 -15.08461,43.8564 0.21973,10.3815 2.00083,14.91138 8.86476,22.54572 8.78409,9.77003 22.34788,13.21015 37.30015,9.46026 z m -17.44318,-6.42891 c -1.07627,-1.74144 0.14952,-2.11024 1.52106,-0.45764 0.78875,0.95039 0.86462,1.52417 0.20152,1.52417 -0.58488,0 -1.36004,-0.47994 -1.72258,-1.06653 z m 6.54112,-0.43347 c -0.69443,-0.83674 -0.80272,-1.5 -0.24489,-1.5 0.55,0 1.5602,0.675 2.24489,1.5 0.69443,0.83674 0.80272,1.5 0.24489,1.5 -0.55,0 -1.5602,-0.675 -2.24489,-1.5 z m 6.5,-0.5 c -0.78218,-1.2656 0.54163,-1.2656 2.5,0 1.29269,0.8354 1.26629,0.97149 -0.19098,0.98469 -0.93004,0.008 -1.9691,-0.43469 -2.30902,-0.98469 z m -17.83333,-0.66667 c -0.36667,-0.36666 -0.65299,-1.37916 -0.63626,-2.25 0.025,-1.3003 0.22011,-1.2571 1.09166,0.24167 1.07678,1.85169 0.76461,3.22835 -0.4554,2.00833 z m -5.35225,-3.08333 c -0.34254,-0.9625 -0.84795,-2.15703 -1.12312,-2.65451 -0.27517,-0.49748 -0.0351,-0.61699 0.53349,-0.26558 1.04171,0.64382 2.46443,4.67009 1.65021,4.67009 -0.24077,0 -0.71803,-0.7875 -1.06058,-1.75 z m 28.68558,0.75 c 0,-0.55 0.42344,-1 0.94098,-1 0.51754,0 1.2191,0.45 1.55902,1 0.33992,0.55 -0.0835,1 -0.94098,1 -0.85746,0 -1.55902,-0.45 -1.55902,-1 z m 4,-2.39301 c 0,-0.21616 0.675,-0.65203 1.5,-0.96862 0.825,-0.31658 1.5,-0.13972 1.5,0.39301 0,0.53274 -0.675,0.96862 -1.5,0.96862 -0.825,0 -1.5,-0.17686 -1.5,-0.39301 z m 4,-1 c 0,-0.21616 0.675,-0.65203 1.5,-0.96862 0.825,-0.31658 1.5,-0.13972 1.5,0.39301 0,0.53274 -0.675,0.96862 -1.5,0.96862 -0.825,0 -1.5,-0.17686 -1.5,-0.39301 z m -41.37646,-2.14565 c -0.34295,-0.8937 -0.59502,-2.15061 -0.56015,-2.79313 0.0349,-0.64251 0.49453,-0.0904 1.02148,1.22697 0.52695,1.31735 0.77902,2.57426 0.56015,2.79313 -0.21887,0.21887 -0.67853,-0.33327 -1.02148,-1.22697 z m -4,-4 c -0.34295,-0.8937 -0.58486,-2.37561 -0.53759,-3.29313 0.0473,-0.91751 0.4824,-0.34083 0.96694,1.28152 0.94266,3.15626 0.60928,4.71823 -0.42935,2.01161 z m -2.46564,-5.46134 c 0,-1.375 0.22697,-1.9375 0.50438,-1.25 0.27741,0.6875 0.27741,1.8125 0,2.5 -0.27741,0.6875 -0.50438,0.125 -0.50438,-1.25 z m -1.9259,-3 c 0,-1.925 0.2058,-2.7125 0.45733,-1.75 0.25152,0.9625 0.25152,2.5375 0,3.5 -0.25153,0.9625 -0.45733,0.175 -0.45733,-1.75 z m 50.76881,-14.49849 c -0.73544,-1.37417 -1.07757,-2.75809 -0.76029,-3.07536 0.31728,-0.31728 0.87328,0.35704 1.23556,1.49849 0.36228,1.14145 1.07837,2.07536 1.59131,2.07536 0.51293,0 0.93261,0.45 0.93261,1 0,1.84689 -1.65,1.02249 -2.99919,-1.49849 z m 19.66586,-23.16818 c -0.36667,-0.36666 -0.65299,-1.37916 -0.63626,-2.25 0.025,-1.3003 0.22011,-1.2571 1.09166,0.24167 1.07678,1.85169 0.76461,3.22835 -0.4554,2.00833 z m -4.09524,-5.90476 c -1.05899,-0.77435 -1.73257,-1.60076 -1.49686,-1.83648 0.23572,-0.23571 1.29502,0.20499 2.354,0.97934 1.05899,0.77435 1.73257,1.60076 1.49686,1.83648 -0.23572,0.23571 -1.29502,-0.20499 -2.354,-0.97934 z m 17.199517,72.02267 c 2.0387,-0.85183 6.1242,-4.08491 9.07891,-7.18463 l 5.37219,-5.63587 0.54486,-14.55603 0.54486,-14.55602 -5.51056,6.49065 c -3.0308,3.56986 -9.40095,10.02046 -14.15588,14.33465 -4.754927,4.31419 -8.642817,8.36419 -8.639747,9 0.0153,3.17852 2.42393,9.17642 4.53124,11.28374 2.798687,2.79869 3.370077,2.85584 8.234127,0.82351 z m 22.84255,-5.30983 c 2.34977,-3.35476 1.10498,-5.14141 -3.58212,-5.14141 -3.79756,0 -4.03138,0.17112 -4.03138,2.95031 0,4.9351 4.73672,6.29829 7.6135,2.1911 z m 12.3865,-3.08239 c 0,-5.50351 -0.5119,-6.19787 -3.68463,-4.99801 -5.5972,2.11674 -4.92539,9.93899 0.85361,9.93899 2.72605,0 2.83102,-0.18321 2.83102,-4.94098 z m 11.09485,1.69098 c 5.31377,-2.90087 5.88973,-3.51856 5.36151,-5.75 -0.83911,-3.54471 -3.25779,-7 -4.89996,-7 -0.7783,0 -1.68193,1.43998 -2.03947,3.25 -0.92497,4.68262 -2.62154,8.98606 -4.33661,11 -2.14125,2.5144 -0.82969,2.18177 5.91453,-1.5 z m 26.90515,-0.26987 c 0,-0.28593 -1.12528,-2.30243 -2.50062,-4.4811 -2.30064,-3.64446 -6.69463,-6.13712 -8.18722,-4.64452 -1.05347,1.05347 6.74514,9.64549 8.75479,9.64549 1.06318,0 1.93305,-0.23394 1.93305,-0.51987 z m 16.94188,-5.56109 c 3.40412,-0.73005 5.70582,-1.927 7.09039,-3.6872 3.103,-3.94481 0.51564,-4.74128 -6.6934,-2.06043 -7.02791,2.61349 -9.98828,4.7992 -8.1125,5.98965 1.63947,1.04049 1.75181,1.03697 7.71551,-0.24202 z m -88.36147,-17.09043 c 2.79423,-2.93074 7.25921,-7.94281 9.92218,-11.13795 l 4.84175,-5.80935 -1.17217,-8.80399 c -1.95995,-14.72092 -1.54809,-29.917 0.99065,-36.55115 2.10087,-5.48991 2.11439,-5.80545 0.47201,-11.01568 -1.3991,-4.43846 -2.16466,-5.46795 -4.43728,-5.9671 -2.28053,-0.50089 -3.54816,0.14334 -7.47201,3.7974 -2.59905,2.42035 -4.72554,5.02489 -4.72554,5.78788 0,0.76298 1.125,3.50055 2.5,6.08348 2.28288,4.28837 2.5,5.78188 2.5,17.19656 0,11.01544 -0.30653,13.30753 -2.58053,19.2958 -1.41929,3.73752 -3.90497,10.61188 -5.52373,15.27636 -1.61877,4.66448 -4.057527,11.26623 -5.419477,14.67055 -1.36194,3.40433 -2.47626,6.71325 -2.47626,7.35316 0,1.5285 6.211117,-3.49552 12.580407,-10.17597 z m 5.49854,-63.17223 c -0.0434,-1.01399 -0.97895,-2.07897 -2.07895,-2.36663 -1.1,-0.28766 -2,-1.16136 -2,-1.94157 0,-1.12166 0.4304,-1.1882 2.05649,-0.31795 2.3375,1.25099 3.37318,3.30383 2.61679,5.18678 -0.30977,0.77113 -0.54688,0.54746 -0.59433,-0.56063 z M 60.926813,184.575 c 0.69294,-0.74179 2.06068,-1.13931 3.03942,-0.88336 1.93379,0.50569 2.09247,0.21118 1.17475,-2.18038 -0.33264,-0.86682 -1.10308,-1.26808 -1.71211,-0.89168 -0.60902,0.37639 -2.64184,0.58101 -4.51738,0.4547 -2.889,-0.19456 -3.31462,0.0438 -2.78544,1.5599 0.59217,1.69657 0.55382,1.69863 -0.73808,0.0395 -0.74948,-0.9625 -1.98809,-1.78553 -2.75245,-1.82895 -1.06963,-0.0608 -1.09221,-0.19833 -0.098,-0.59724 0.85197,-0.34185 0.96603,-0.91075 0.33503,-1.67106 -0.52618,-0.63401 -1.06651,-1.60275 -1.20073,-2.15275 -0.92301,-3.78231 -1.25217,-4.41647 -2.03973,-3.92974 -1.33081,0.82249 -1.06602,7.82222 0.36369,9.61429 2.91355,3.65197 8.62077,4.93988 10.93104,2.46672 z m 7.86938,-7.99848 c -1.60438,-4.86129 -10.05043,-12.18241 -10.05043,-8.71181 0,0.51754 0.45734,1.22364 1.01631,1.5691 1.49428,0.92352 0.16871,2.49815 -1.54833,1.83926 -0.80739,-0.30983 -1.46798,-0.11017 -1.46798,0.44367 0,0.55385 1.54361,1.00699 3.43024,1.00699 2.52937,0 3.28915,-0.36768 2.89301,-1.4 -1.1803,-3.07582 0.87619,-1.16693 2.22778,2.06788 1.81905,4.35361 1.80903,4.60752 -0.15209,3.85497 -1.43642,-0.55121 -1.42717,-0.27811 0.09,2.6557 1.51376,2.92729 1.85052,3.11059 3.21254,1.74857 1.26355,-1.26355 1.32272,-2.12387 0.34898,-5.07433 z m 212.084737,4.62533 c 3.64662,-1.17041 6.81859,-3.17212 9.90397,-6.25 10.48764,-10.46219 10.3439,-27.44561 -0.38465,-45.4477 -4.99804,-8.38652 -9.77935,-15.58042 -10.35527,-15.58042 -0.29108,0 0.19751,1.10917 1.08577,2.46482 1.78186,2.71947 2.12067,6.10463 0.69893,6.98332 -1.51809,0.93822 -5.67716,-1.12459 -8.71942,-4.32466 l -2.8645,-3.01309 -3,2.51965 -3,2.51965 4.25,-0.66274 c 4.88585,-0.7619 5.61942,0.13971 1.33022,1.63493 -2.90094,1.01127 -2.91033,1.04049 -1.45442,4.52496 1.32595,3.17345 1.29454,3.85042 -0.33022,7.1156 -2.38563,4.79428 -6.09272,7.34766 -11.56276,7.96421 -9.16906,1.03348 -17.18327,-3.87919 -18.28212,-11.20687 -0.36247,-2.41712 -0.22836,-5.66039 0.29803,-7.20727 0.81942,-2.40799 0.54674,-3.28496 -1.89583,-6.09731 -4.04017,-4.6518 -3.55965,-6.37762 0.53197,-1.91062 2.94994,3.22059 6.61513,4.92335 6.61513,3.07323 0,-0.9625 -10.25803,-13.37781 -11.05329,-13.37781 -0.38724,0 -1.24136,1.29713 -1.89805,2.88252 -2.54326,6.13998 -8.87809,10.11748 -16.11376,10.11748 -7.07517,0 -10.21192,-6.69605 -6.49964,-13.87481 2.00877,-3.88452 9.16475,-10.12519 11.61025,-10.12519 1.91427,0 1.87,-0.21275 -0.71966,-3.45826 -1.62946,-2.04215 -3.02894,-3.02215 -3.41763,-2.39324 -0.4608,0.7456 -0.86337,0.73308 -1.34224,-0.0417 -0.37621,-0.60872 -0.44633,-1.49135 -0.15582,-1.9614 0.29051,-0.47005 -0.53546,-1.8539 -1.83548,-3.075208 -1.5144,-1.422697 -2.60245,-1.834235 -3.0282,-1.14536 -0.36548,0.591363 -0.30046,1.07805 0.1445,1.081528 1.15331,0.009 4.49647,6.14083 3.75061,6.87912 -0.34148,0.33801 -1.61185,-0.62535 -2.82306,-2.14079 l -2.20219,-2.75535 -3.95817,4.05553 c -2.17699,2.23054 -5.95338,5.22539 -8.39196,6.65521 -3.73146,2.18789 -4.87426,2.43343 -7.21444,1.55011 -3.50856,-1.32434 -3.44416,-1.51585 -5.82944,17.33525 l -1.84728,14.5992 3.16248,2.90729 c 1.73936,1.599 8.33747,6.33751 14.66247,10.53001 6.325,4.19249 14.425,10.18675 18,13.32056 7.4693,6.54752 16.29563,12.66978 23.5,16.30043 5.75862,2.90206 21.0466,9.28849 24,10.02581 4.3213,1.07881 11.5239,0.64991 16.63517,-0.99058 z m -15.13517,-4.63749 c 0,-0.67473 6.23416,-3.73981 6.6865,-3.28747 0.19901,0.19901 -0.21154,0.82089 -0.91233,1.38195 -1.50826,1.20753 -5.77417,2.61531 -5.77417,1.90552 z m 11.40499,-1.47391 c 1.04774,-1.1917 2.47992,-2.16672 3.18261,-2.16672 0.70269,0 1.57404,-0.93391 1.93632,-2.07536 0.36228,-1.14145 0.87906,-1.85499 1.14841,-1.58565 0.9845,0.98451 -1.58102,4.21024 -4.8338,6.07773 l -3.33853,1.91672 1.90499,-2.16672 z m -19.64333,-1.87398 c 1.24391,-0.23919 3.04391,-0.23011 4,0.0202 0.95609,0.25029 -0.0617,0.446 -2.26166,0.4349 -2.2,-0.0111 -2.98225,-0.21589 -1.73834,-0.45508 z m -9.26166,-3.94624 c -1.90881,-1.51741 -1.84612,-1.56155 1.375,-0.9682 1.85625,0.34194 4.02031,0.6217 4.80902,0.6217 0.78871,0 1.1559,0.45 0.81598,1 -0.92784,1.50128 -4.73671,1.1457 -7,-0.6535 z m 37.57895,-2.92983 c 0.048,-1.16495 0.28494,-1.4019 0.60416,-0.60417 0.28887,0.72187 0.25335,1.58437 -0.0789,1.91667 -0.33229,0.33229 -0.56864,-0.25834 -0.52522,-1.3125 z m -44.07895,-1.41667 c -0.90129,-0.58246 -1.02463,-0.97549 -0.30902,-0.98469 0.65504,-0.008 1.4691,0.43469 1.80902,0.98469 0.7673,1.24153 0.42112,1.24153 -1.5,0 z m 48.34508,-3.54313 c -0.32569,-0.84872 -0.36872,-1.76657 -0.0956,-2.03966 0.27309,-0.2731 0.73656,0.42131 1.02992,1.54313 0.62315,2.38293 -0.0692,2.75089 -0.9343,0.49653 z m -76.34508,-40.45687 c -1.2819,-0.82843 -1.24555,-0.9716 0.25,-0.98469 0.9625,-0.008 1.75,0.43469 1.75,0.98469 0,1.21961 -0.11279,1.21961 -2,0 z m 4,0.57037 c 0,-0.275 0.9,-0.98167 2,-1.57037 1.1,-0.5887 2,-0.84537 2,-0.57037 0,0.275 -0.9,0.98167 -2,1.57037 -1.1,0.5887 -2,0.84537 -2,0.57037 z m 8,-3.45234 c 0,-0.55 0.45,-1.27811 1,-1.61803 0.55,-0.33992 1,-0.16803 1,0.38197 0,0.55 -0.45,1.27811 -1,1.61803 -0.55,0.33992 -1,0.16803 -1,-0.38197 z M 197.47909,97.79964 c 0.67834,-0.68342 1.48524,-0.99067 1.79313,-0.68278 0.30789,0.30789 -0.24711,0.86705 -1.23333,1.24258 -1.4252,0.54268 -1.54006,0.42782 -0.5598,-0.5598 z m 4.26667,-2.59848 c 0,-1.25825 2.85836,-3.7524 3.5303,-3.08047 0.26508,0.26508 -0.4208,1.29895 -1.52417,2.29749 -1.10337,0.99854 -2.00613,1.35088 -2.00613,0.78298 z M 59.107393,178.42373 c -0.31659,-0.825 -1.00402,-1.5 -1.52764,-1.5 -0.52361,0 -0.72345,-0.36984 -0.44408,-0.82187 0.27937,-0.45203 2.10593,-0.69602 4.05902,-0.54221 1.95309,0.15381 3.55107,-0.0881 3.55107,-0.53762 0,-0.4495 -2.66958,-0.83803 -5.93239,-0.86339 -4.69763,-0.0365 -5.82013,0.24643 -5.39301,1.35948 0.29666,0.77309 0.92711,1.40561 1.401,1.40561 0.4739,0 0.60261,0.675 0.28603,1.5 -0.41983,1.09406 0.12141,1.5 2,1.5 1.87858,0 2.41983,-0.40594 2,-1.5 z m 4,0 c -0.60147,-1.56739 -3.36163,-2.11477 -3.36163,-0.66667 0,1.2217 1.14935,2.16667 2.63528,2.16667 0.74645,0 1.05636,-0.64001 0.72635,-1.5 z m 150.638367,-3.5 c -1.95837,-1.2656 -3.28218,-1.2656 -2.5,0 0.33992,0.55 1.37898,0.99311 2.30902,0.98469 1.45727,-0.0132 1.48367,-0.14929 0.19098,-0.98469 z m -157.999997,-3 c 0,-0.55 -0.9,-1 -2,-1 -1.1,0 -2,0.45 -2,1 0,0.55 0.9,1 2,1 1.1,0 2,-0.45 2,-1 z m -10.63837,-3.5 c -0.31659,-0.825 -1.42365,-1.5 -2.46014,-1.5 -1.0365,0 -2.4466,-0.9 -3.13356,-2 -1.45921,-2.33656 -2.76793,-2.60728 -2.76793,-0.57258 0,0.78508 1.18569,2.36008 2.63486,3.5 3.12998,2.46204 6.58436,2.80742 5.72677,0.57258 z m 8.63837,-0.0816 c 0,-0.65185 -0.9,-1.42053 -2,-1.70819 -1.38363,-0.36183 -2,-0.0307 -2,1.0745 0,1.30256 -0.26185,1.23941 -1.41824,-0.34205 -1.53579,-2.10031 -3.1777,-1.43808 -2.27392,0.91714 0.67872,1.76871 7.69216,1.82214 7.69216,0.0586 z m 3.54112,-0.35191 c -0.36253,-0.58659 -1.1377,-1.06653 -1.72258,-1.06653 -0.66309,0 -0.58723,0.57378 0.20152,1.52417 1.37154,1.6526 2.59733,1.2838 1.52106,-0.45764 z M 203.01665,166.7163 c 2.05067,-0.74217 3.18533,-0.65887 4.36534,0.32045 1.37578,1.1418 1.54322,1.05336 1.22092,-0.64489 -0.60564,-3.19119 -5.99242,-3.15415 -9.48805,0.0652 -2.98131,2.74569 -2.97057,2.74641 3.90179,0.2592 z M 31.745763,165.44801 c 0,-0.74671 0.3375,-1.5464 0.75,-1.77709 0.4125,-0.23069 0.1994,-0.28688 -0.47355,-0.12487 -0.67296,0.16202 -1.65024,-0.46788 -2.17175,-1.39976 -0.80928,-1.4461 -1.05275,-1.27778 -1.6618,1.14887 -0.48646,1.93822 -0.28784,3.10633 0.62401,3.66988 1.6221,1.00251 2.93309,0.32445 2.93309,-1.51703 z M 160.06795,120.65312 c -0.0566,-8.46356 0.082,-9.45259 0.80312,-5.72939 0.47936,2.475 0.72308,7.10228 0.54162,10.28285 l -0.32992,5.78284 3.39293,-3.28284 c 2.9759,-2.87935 3.31537,-3.71304 2.7619,-6.78285 -0.68268,-3.78647 -4.11646,-9.35927 -8.0354,-13.04092 l -2.45644,-2.30771 -0.006,4.92432 c -0.006,4.88534 -0.0175,4.90259 -1.43793,2.17965 -0.78747,-1.50956 -1.78307,-4.88456 -2.21244,-7.5 l -0.78083,-4.75534 -0.6395,4 -0.63949,4 -0.1419,-4.19098 c -0.078,-2.30504 -0.56525,-4.45263 -1.08268,-4.77241 -0.55048,-0.34022 -0.76307,0.98356 -0.51242,3.19098 0.42206,3.71719 0.40862,3.70654 -0.91871,-0.72759 l -1.34705,-4.5 -0.48049,3.5 c -0.47494,3.45958 -0.48233,3.4516 -0.64052,-0.69098 -0.20584,-5.39034 -2.11898,-6.74901 -2.27835,-1.61804 -0.11688,3.7628 -0.12758,3.77262 -0.88169,0.80902 -0.41985,-1.65 -0.81661,-2.31921 -0.88169,-1.48713 -0.0651,0.83208 -0.95882,1.95708 -1.98611,2.5 -1.02728,0.54292 -4.28978,2.44541 -7.25,4.22775 -2.96021,1.78233 -6.3947,3.24483 -7.6322,3.25 -2.6477,0.011 -2.67307,0.21128 -0.73251,5.7822 1.38053,3.96319 1.33584,4.72407 -0.61669,10.5 -2.24638,6.64519 -2.57436,15.63672 -1.26106,34.57144 l 0.64811,9.34425 18.55139,-18.61487 18.55138,-18.61486 -0.0684,-10.22939 z m 2.83491,-0.47939 0.15711,-5.75 0.64784,5 0.64784,5 0.52695,-4 0.52695,-4 0.16811,4.75 c 0.12847,3.63027 -0.1855,4.75 -1.3319,4.75 -1.17764,0 -1.46624,-1.23573 -1.3429,-5.75 z m -4.85744,-7.25 c 0,-3.025 0.18747,-4.2625 0.41659,-2.75 0.22913,1.5125 0.22913,3.9875 0,5.5 -0.22912,1.5125 -0.41659,0.275 -0.41659,-2.75 z M 43.745763,165.04617 c 0,-0.48265 -0.63494,-1.4045 -1.41097,-2.04855 -1.56708,-1.30056 -3.16989,0.17725 -2.08903,1.92611 0.76156,1.23222 3.5,1.32803 3.5,0.12244 z m 13.74876,-0.2712 c 1.32504,-1.32504 -1.00558,-6.85124 -2.88945,-6.85124 -0.64359,0 -0.42849,1.00857 0.52568,2.46482 2.11678,3.23061 2.1687,5.23959 0.0908,3.51512 -1.67672,-1.39155 -3.06164,-0.73682 -2.01695,0.95353 0.86291,1.39622 2.84951,1.35814 4.28987,-0.0822 z m -5.74876,-1.06782 c 0,-0.55911 -1.16047,-0.79474 -2.57882,-0.5236 -1.6614,0.3176 -2.72865,0.003 -3,-0.88343 -0.23165,-0.75701 -0.71415,-2.16389 -1.07222,-3.12639 -0.35807,-0.9625 -0.77799,-2.37885 -0.93316,-3.14744 -0.36006,-1.78354 -3.19831,-4.65338 -3.90412,-3.94757 -0.29477,0.29476 0.46304,2.74298 1.68401,5.44047 1.22097,2.6975 2.29518,5.24204 2.38713,5.65454 0.0919,0.4125 0.22343,0.93 0.29218,1.15 0.28424,0.90957 7.125,0.31759 7.125,-0.61658 z m -18.96482,-3.71768 c -1.54648,-2.88962 -1.27674,-3.64236 1.26532,-3.53108 3.12047,0.1366 4.71766,1.25443 4.09836,2.86832 -0.64642,1.68453 2.28636,2.91537 3.24617,1.36236 0.38999,-0.63102 0.1794,-1.32386 -0.46798,-1.53966 -0.64738,-0.21579 -1.17705,-1.28705 -1.17705,-2.38058 0,-1.57286 -0.56417,-1.92105 -2.70052,-1.66667 -2.1434,0.25523 -2.81614,-0.16438 -3.26098,-2.03398 -0.51602,-2.16875 -0.69971,-2.03995 -2.31635,1.62426 -1.85237,4.19849 -1.46651,7.23129 0.92002,7.23129 1.10214,0 1.19186,-0.44159 0.39301,-1.93426 z m 3.96482,-0.12476 c 0,-0.51754 -0.675,-0.94098 -1.5,-0.94098 -1.54641,0 -1.9867,1.17996 -0.86052,2.30615 0.79893,0.79893 2.36052,-0.10419 2.36052,-1.36517 z m 13,0.059 c -1.21545,-2.2711 -3,-2.66766 -3,-0.66667 0,1.70813 0.97118,2.66667 2.70185,2.66667 1.05864,0 1.12615,-0.45287 0.29815,-2 z m 3.98469,1.25 c -0.008,-0.4125 -0.43396,-1.41197 -0.94563,-2.22104 -1.15213,-1.82179 -2.5038,-0.68243 -1.69398,1.42791 0.59808,1.55857 2.66793,2.18051 2.63961,0.79313 z m 10.54019,-8.25 c -0.5097,-2.29363 -0.44023,-2.35312 0.84152,-0.72061 1.20866,1.53942 1.47621,1.57314 1.98395,0.25 0.32278,-0.84116 0.32786,-2.20439 0.0113,-3.02939 -0.69563,-1.81278 -3.32978,-2.00418 -3.44057,-0.25 -0.0632,1 -0.17983,1 -0.58334,0 -0.72846,-1.8053 -5.33772,-1.58942 -5.33772,0.25 0,0.93668 1.03275,1.55114 2.75,1.63618 2.35785,0.11676 2.42915,0.19798 0.5,0.56955 -3.15181,0.60707 -2.81042,2.26652 0.5,2.43045 2.35499,0.11662 2.42708,0.1984 0.50191,0.5693 -1.9226,0.37041 -2.0994,0.74886 -1.22112,2.61382 1.00122,2.12599 0.98556,2.12425 -0.62388,-0.0693 -0.90797,-1.2375 -2.27097,-2.25 -3.02888,-2.25 -2.03384,0 -1.67842,1.98645 0.37197,2.07895 1.03209,0.0466 1.24048,0.28477 0.50799,0.58067 -0.95162,0.38442 -0.97599,0.99879 -0.10421,2.62771 1.11375,2.08108 1.19894,2.05297 4.03223,-1.33067 2.11105,-2.52111 2.74407,-4.13329 2.33887,-5.95666 z m 23.04045,5.54064 c 2.25675,-3.44423 1.06013,-7.7843 -3.17038,-11.49873 -3.7598,-3.30115 -6.84607,-3.91466 -7.75658,-1.54191 -0.45188,1.1776 0.33113,1.52493 3.64302,1.616 2.32023,0.0638 3.43111,0.3218 2.46861,0.57333 -2.02284,0.52862 -2.27815,1.86622 -0.55902,2.9287 0.65504,0.40484 1.3738,0.18762 1.59725,-0.48272 0.55966,-1.67898 3.21177,0.53991 3.21177,2.68713 0,1.22699 -0.26667,1.31089 -1.2,0.37756 -1.66666,-1.66666 -2.8,-1.49805 -2.8,0.41658 0,1.18512 0.66723,1.48902 2.5,1.13867 1.375,-0.26285 2.5,-0.0903 2.5,0.38342 0,0.47373 -1.0125,0.86822 -2.25,0.87664 -1.2375,0.008 -1.8,0.34592 -1.25,0.75 0.55,0.40408 1.13789,1.37336 1.30642,2.15396 0.24516,1.13548 0.0143,1.17686 -1.15434,0.20694 -0.85332,-0.70819 -2.54487,-0.94024 -4.06773,-0.55802 -2.12728,0.53391 -2.49319,0.35783 -1.98866,-0.95694 0.448,-1.16749 0.038,-1.61125 -1.4887,-1.61125 -1.15884,0 -2.10699,-0.43588 -2.10699,-0.96862 0,-0.53273 0.675,-0.70959 1.5,-0.39301 0.94984,0.36449 1.5,-0.0138 1.5,-1.03138 0,-2.01304 -1.68124,-2.06861 -3.62987,-0.11998 -1.31602,1.31602 -1.18632,1.78771 1.12785,4.10188 1.67422,1.67422 3.31402,2.43203 4.55844,2.10661 1.06897,-0.27955 1.94358,-0.10039 1.94358,0.39812 0,1.91417 4.03049,0.78948 5.56533,-1.55298 z m -35.56533,-2.62594 c 0,-0.42951 -1.35,-0.74255 -3,-0.69564 -1.65,0.0469 -3,0.43672 -3,0.86624 0,0.42951 1.35,0.74255 3,0.69564 1.65,-0.0469 3,-0.43672 3,-0.86624 z m 3,0.0853 c 0,-0.55 -0.45,-1 -1,-1 -0.55,0 -1,0.45 -1,1 0,0.55 0.45,1 1,1 0.55,0 1,-0.45 1,-1 z m 27,-1.94098 c 0,-1.17986 -1.95035,-2.442 -2.66667,-1.72569 -0.71631,0.71632 0.54583,2.66667 1.72569,2.66667 0.51754,0 0.94098,-0.42344 0.94098,-0.94098 z m -43,-1 c 0,-0.51754 -0.45734,-1.22364 -1.01631,-1.5691 -0.55897,-0.34546 -0.81367,-0.95601 -0.56598,-1.35676 0.24768,-0.40076 0.10279,-1.29097 -0.32196,-1.97824 -1.30941,-2.11866 -3.02012,0.93684 -2.01281,3.59508 0.82581,2.17926 3.91706,3.21231 3.91706,1.30902 z m 8,-0.059 c 0,-0.55 -0.19844,-1 -0.44098,-1 -0.24254,0 -0.7191,0.45 -1.05902,1 -0.33992,0.55 -0.14148,1 0.44098,1 0.58246,0 1.05902,-0.45 1.05902,-1 z m 11,-0.18333 c 0,-0.50417 -1.8,-0.73667 -4,-0.51667 -2.2,0.22 -4,0.0175 -4,-0.45 0,-0.4675 0.45,-0.85 1,-0.85 0.55,0 1,-0.45381 1,-1.00847 0,-0.59779 -0.81448,-0.49983 -2,0.24054 -3.46463,2.1637 -2.31856,3.50126 3,3.50126 2.75,0 5,-0.4125 5,-0.91666 z m -1.01531,-3.06667 c -0.0259,-2.11072 -1.69949,-4.0443 -2.87289,-3.3191 -1.95235,1.20662 -1.29871,4.5691 0.8882,4.5691 1.1,0 1.99311,-0.5625 1.98469,-1.25 z m 19.37694,-0.25 c -0.60147,-1.56739 -3.36163,-2.11477 -3.36163,-0.66667 0,1.2217 1.14935,2.16667 2.63528,2.16667 0.74645,0 1.05636,-0.64001 0.72635,-1.5 z m 3.63837,0.55902 c 0,-1.17986 -1.95035,-2.442 -2.66667,-1.72569 -0.71631,0.71632 0.54583,2.66667 1.72569,2.66667 0.51754,0 0.94098,-0.42344 0.94098,-0.94098 z m -18.63837,-4.55902 c -0.31659,-0.825 -1.25061,-1.5 -2.07561,-1.5 -0.92249,0 -1.27839,-0.57751 -0.92439,-1.5 0.31658,-0.825 0.18787,-1.5 -0.28603,-1.5 -1.2378,0 -2.11277,2.73956 -1.43723,4.5 0.31659,0.825 1.63834,1.5 2.93723,1.5 1.68839,0 2.19754,-0.42762 1.78603,-1.5 z m 6.69749,0.0712 c -1.1003,-1.32574 -6.05912,-1.92048 -6.05912,-0.72667 0,1.47669 1.14494,2.01758 4.09326,1.93376 2.02809,-0.0577 2.61877,-0.42035 1.96586,-1.20705 z m 6.94088,1.04543 c 0,-0.21085 -0.90062,-0.61888 -2.00138,-0.90674 -1.10076,-0.28785 -1.7492,-0.11534 -1.44098,0.38337 0.53825,0.87091 3.44236,1.31244 3.44236,0.52337 z m -11,-4.61663 c 0,-0.55 -0.92656,-1 -2.05902,-1 -1.13246,0 -1.7809,0.45 -1.44098,1 0.33992,0.55 1.26648,1 2.05902,1 0.79254,0 1.44098,-0.45 1.44098,-1 z m 11.5,0 c -0.33992,-0.55 -1.26648,-1 -2.05902,-1 -0.79254,0 -1.44098,0.45 -1.44098,1 0,0.55 0.92656,1 2.05902,1 1.13246,0 1.7809,-0.45 1.44098,-1 z m -13.13837,-3.5 c -0.72046,-1.87747 -1.47225,-1.88357 -3.9205,-0.0318 -1.83737,1.38971 -1.76909,1.46989 1.27749,1.5 2.45732,0.0243 3.08247,-0.32299 2.64301,-1.4682 z m 6.88934,-0.28837 c -0.43804,-1.14152 -0.67507,-1.14936 -1.37482,-0.0455 -0.63309,0.99872 -0.84937,1.01979 -0.86084,0.0839 -0.008,-0.6875 -0.45119,-1.25 -0.98392,-1.25 -0.53274,0 -0.72138,0.64429 -0.4192,1.43176 0.30218,0.78747 1.36362,1.37044 2.35875,1.29548 1.09917,-0.0828 1.60158,-0.67767 1.28003,-1.51561 z m 4.11066,0.28837 c -0.31659,-0.825 -0.96334,-1.5 -1.43723,-1.5 -0.4739,0 -0.60261,0.675 -0.28603,1.5 0.31659,0.825 0.96334,1.5 1.43723,1.5 0.4739,0 0.60261,-0.675 0.28603,-1.5 z m 14.59508,-10.25 c 0.0715,-2.06412 -0.59259,-1.4904 -4.6129,3.98525 -5.88636,8.0172 -6.02211,8.79406 -0.48312,2.76475 2.779,-3.025 5.0722,-6.0625 5.09602,-6.75 z m 173.032247,10.25571 c 5.36122,-2.7724 8.20242,-9.50571 4.01104,-9.50571 -1.56181,0 -2.02984,0.71206 -2.13618,3.25 -0.0985,2.35026 -0.25616,2.6271 -0.56955,1 -0.30765,-1.59729 -1.13843,-2.25 -2.86382,-2.25 -2.4355,0 -3.53163,1.93045 -1.18045,2.07895 1,0.0632 1,0.17982 0,0.58333 -0.6875,0.27741 -1.25,1.2672 -1.25,2.19952 0,1.34825 -0.81853,1.64938 -4,1.47153 -2.2,-0.12298 -4,0.16421 -4,0.6382 0,2.29482 7.90329,2.64696 11.98896,0.53418 z M 76.140373,134.50967 c -0.64898,-1.69119 -4.39461,-2.23296 -4.39461,-0.63563 0,0.52267 0.7875,1.40899 1.75,1.96959 0.9625,0.56061 1.38594,1.03297 0.94098,1.04969 -0.44496,0.0167 -0.49518,0.5382 -0.11161,1.15883 0.99361,1.6077 2.59347,-1.51444 1.81524,-3.54248 z m 171.605387,1.41406 c 0,-1.1 -0.5625,-2.03553 -1.25,-2.07895 -1,-0.0632 -1,-0.17982 0,-0.58333 1.95961,-0.79072 1.46329,-2.33772 -0.75,-2.33772 -1.54286,0 -2,0.66667 -2,2.91667 0,2.60286 0.94016,3.76124 3.25,4.00438 0.4125,0.0434 0.75,-0.82105 0.75,-1.92105 z m -189.934257,-0.0352 c 2.9144,-1.55974 2.32852,-2.94664 -1.31574,-3.11465 -3.02493,-0.13946 -3.05956,-0.17868 -0.5,-0.56642 3.00109,-0.45463 3.39514,-1.23861 1.55,-3.08375 -0.73876,-0.73876 -0.7975,-1.2 -0.15281,-1.2 0.57595,0 1.49095,0.99452 2.03333,2.21004 0.90238,2.0223 0.98615,1.93736 0.98615,-1 0,-4.2779 -1.82768,-4.13222 -6.662,0.53103 -3.59538,3.46815 -3.76219,3.86939 -2.2865,5.5 1.81703,2.0078 3.57398,2.20813 6.34757,0.72375 z m 13.29589,-1.4648 c -0.31659,-0.825 -1.2202,-1.5 -2.00804,-1.5 -1.17804,0 -1.20344,0.25965 -0.14302,1.46196 1.68844,1.91436 2.87915,1.93542 2.15106,0.038 z m 36.454147,-1.22124 c 0.17368,-1.22169 -0.1853,-3.02169 -0.79775,-4 -0.97466,-1.55693 -1.03681,-1.49816 -0.49839,0.47124 0.44781,1.63797 0.18878,2.25 -0.95225,2.25 -0.86207,0 -1.56739,0.54 -1.56739,1.2 0,0.93333 -0.26667,0.93333 -1.2,0 -0.66,-0.66 -2.01,-1.2 -2.999997,-1.2 -0.99,0 -1.8,-0.43588 -1.8,-0.96862 0,-0.53273 0.7364,-0.68603 1.63645,-0.34065 1.126217,0.43217 1.488607,0.18854 1.162287,-0.78138 -0.26079,-0.77514 -1.334687,-1.47402 -2.386447,-1.55305 -1.05176,-0.079 -2.81229,-0.19843 -3.91229,-0.26531 -1.65222,-0.10047 -1.74062,-0.2856 -0.50836,-1.06466 1.09114,-0.68984 1.19422,-1.24047 0.38391,-2.05078 -0.8103,-0.8103 -1.25783,-0.53373 -1.66677,1.03007 -0.61311,2.34456 1.9735,5.16461 7.584177,8.26863 4.11606,2.27714 7.11397,1.88043 7.52282,-0.99549 z m 148.18422,1.72124 c 0,-0.55 -0.92656,-1 -2.05902,-1 -1.13246,0 -1.7809,0.45 -1.44098,1 0.33992,0.55 1.26648,1 2.05902,1 0.79254,0 1.44098,-0.45 1.44098,-1 z m -176.015307,-3.25 c 0.008,-0.4125 -0.90052,-0.75 -2.01987,-0.75 -1.76824,0 -1.8853,0.28006 -0.89252,2.1351 0.91296,1.70587 1.31902,1.85664 2.01987,0.75 0.48246,-0.76181 0.8841,-1.7226 0.89252,-2.1351 z m 163.355077,-2.05777 c 0.2238,-2.68657 -0.0313,-4.69223 -0.59689,-4.69223 -0.54327,0 -0.43542,-0.66554 0.23968,-1.47899 0.93501,-1.12662 1.69934,-1.22644 3.20809,-0.41898 1.08935,0.58301 2.18153,0.85912 2.42706,0.61359 0.24553,-0.24553 -0.98289,-1.03846 -2.72983,-1.76206 -2.9355,-1.21593 -3.32021,-1.13788 -5.07543,1.02973 -1.94258,2.39899 -1.80128,6.18008 0.38688,10.35236 1.30699,2.4921 1.68258,1.85278 2.14044,-3.64342 z m 7.73523,2.03277 c -0.12369,-1.1957 -1.49529,-0.96414 -1.925,0.325 -0.22,0.66 0.14,1.02 0.8,0.8 0.66,-0.22 1.16625,-0.72625 1.125,-1.125 z m 4.925,0.275 c 0,-0.55 -0.675,-1 -1.5,-1 -0.825,0 -1.5,0.45 -1.5,1 0,0.55 0.675,1 1.5,1 0.825,0 1.5,-0.45 1.5,-1 z M 62.741033,128.21141 c -1.08961,-1.69929 -1.11783,-1.69711 -0.57077,0.0441 0.31652,1.00748 0.61103,2.35748 0.65445,3 0.057,0.84316 0.2158,0.83088 0.57077,-0.0441 0.27051,-0.66678 -0.024,-2.01678 -0.65445,-3 z m 4.7339,2.10815 c -0.33229,-0.33229 -1.19479,-0.36781 -1.91667,-0.0789 -0.79773,0.31922 -0.56078,0.55618 0.60417,0.60416 1.05416,0.0434 1.64479,-0.19293 1.3125,-0.52522 z m 14.74268,-3.23423 c -2.19239,-0.4556 -2.86109,0.38533 -2.02397,2.54527 0.65371,1.6867 0.78273,1.67442 2.17366,-0.20687 1.31877,-1.7837 1.30258,-2.0366 -0.14969,-2.3384 z m 22.528147,2.3384 c 0,-0.82536 -0.8854,-1.5 -1.96862,-1.5 -1.33903,0 -1.78453,0.47971 -1.39301,1.5 0.31659,0.825 1.20246,1.5 1.96862,1.5 0.76615,0 1.39301,-0.675 1.39301,-1.5 z m -31.999997,-1.5 c -0.90009,-1.68184 -4,-2.90769 -4,-1.58179 0,1.82007 1.54549,3.58179 3.14217,3.58179 1.61832,0 1.75618,-0.32142 0.85783,-2 z m 6,1.58179 c 0,-1.80752 -1.53908,-3.58179 -3.10699,-3.58179 -2.09096,0 -2.16242,0.13436 -1.28602,2.41821 0.5172,1.34781 4.39301,2.37439 4.39301,1.16358 z m 176.999997,-0.58179 c 0,-0.55 -0.70156,-1 -1.55902,-1 -0.85746,0 -1.2809,0.45 -0.94098,1 0.33992,0.55 1.04148,1 1.55902,1 0.51754,0 0.94098,-0.45 0.94098,-1 z m 6,0 c 0,-0.55 -0.9,-1 -2,-1 -1.1,0 -2,0.45 -2,1 0,0.55 0.9,1 2,1 1.1,0 2,-0.45 2,-1 z m -193.999997,-2 c -0.5887,-1.1 -1.72953,-2 -2.53518,-2 -0.80565,0 -1.46482,0.9 -1.46482,2 0,1.47407 0.66667,2 2.53518,2 2.22531,0 2.40436,-0.24446 1.46482,-2 z m 179.729167,1.39583 c -0.33229,-0.33229 -1.1948,-0.36781 -1.91667,-0.0789 -0.79773,0.31922 -0.56078,0.55618 0.60417,0.60416 1.05416,0.0434 1.64479,-0.19293 1.3125,-0.52522 z m 4,0 c -0.33229,-0.33229 -1.1948,-0.36781 -1.91667,-0.0789 -0.79773,0.31922 -0.56078,0.55618 0.60417,0.60416 1.05416,0.0434 1.64479,-0.19293 1.3125,-0.52522 z m 13.82407,-3.22809 c -0.80471,-2.53543 -2.94626,-3.34719 -5.80213,-2.19931 -2.16462,0.87003 -2.14545,0.90723 0.49889,0.96818 1.67605,0.0386 2.75,0.61664 2.75,1.48006 0,0.77916 0.5625,1.61756 1.25,1.86309 1.74932,0.62476 2.02834,0.17258 1.30324,-2.11202 z m -166.802767,0.58226 c -0.22891,-0.6875 -1.16483,-1.39519 -2.07983,-1.57265 -1.16012,-0.225 -1.48098,0.15332 -1.06014,1.25 0.70939,1.84865 3.75217,2.16131 3.13997,0.32265 z m 5.249527,0.21862 c 0,-1.19717 -2.82062,-2.48133 -3.64326,-1.65869 -0.875707,0.87571 0.60965,2.69007 2.20228,2.69007 0.79254,0 1.44098,-0.46412 1.44098,-1.03138 z m 1.68311,-1.15612 c -0.31922,-0.79773 -0.55618,-0.56078 -0.60416,0.60417 -0.0434,1.05416 0.19292,1.64479 0.52522,1.3125 0.33229,-0.3323 0.36781,-1.1948 0.0789,-1.91667 z m 75.85715,-12.0625 c 1.02851,-7.8375 1.82902,-15.825 1.77893,-17.75 -0.21649,-8.31821 -1.14399,-16.820518 -2.29086,-21.000002 -0.67915,-2.475 -1.20662,-7.21214 -1.17215,-10.526979 l 0.0627,-6.026979 -7.70943,0.01692 C 161.98133,57.40857 158.41976,55.653258 148.74576,45.947978 140.56594,37.741711 136.6044,30.1935 134.47893,18.764351 c -0.62288,-3.349329 -1.60845,-5.840623 -2.31059,-5.840623 -2.01526,0 -13.09306,8.800606 -17.68419,14.048953 -9.22706,10.547924 -13.73839,21.392885 -13.73839,33.026287 0,4.192357 0.53184,6.331163 2.05619,8.269062 1.16659,1.483086 8.13862,5.637109 16.11502,9.601533 25.04293,12.446827 34.30449,19.674567 52.32757,40.836497 3.84934,4.51972 7.26264,8.21767 7.58512,8.21767 0.32249,0 1.42785,-6.4125 2.45636,-14.25 z M 124.24576,75.923728 c -0.78218,-1.265597 0.54163,-1.265597 2.5,0 1.29269,0.835399 1.26629,0.971491 -0.19098,0.984687 -0.93004,0.0084 -1.9691,-0.434687 -2.30902,-0.984687 z m -6.99292,-3.988546 c -0.35034,-0.56686 0.0511,-0.734507 0.94098,-0.393011 1.73242,0.664791 2.04939,1.381557 0.61096,1.381557 -0.51754,0 -1.21592,-0.444846 -1.55194,-0.988546 z m -7.25708,-5.042616 c -3.46256,-1.391781 -2.66481,-2.004743 1,-0.768362 1.7875,0.603041 3.4375,1.254632 3.66667,1.447981 0.8134,0.686273 -2.4514,0.210811 -4.66667,-0.679619 z m -1.75,-4.440836 c -2.20072,-0.725298 -3.10036,-1.345172 -2,-1.378045 1.1,-0.03286 3.35,0.558406 5,1.313928 3.81129,1.74516 2.20483,1.779493 -3,0.06412 z m -0.75,-5.190283 c 0.6875,-0.277412 1.8125,-0.277412 2.5,0 0.6875,0.277413 0.125,0.504386 -1.25,0.504386 -1.375,0 -1.9375,-0.226973 -1.25,-0.504386 z m -0.30887,-2.805916 c -2.4859,-1.880236 -0.71317,-1.902269 2.55887,-0.0318 1.60243,0.916032 1.94032,1.441851 0.94113,1.464565 -0.85738,0.01949 -2.43238,-0.625253 -3.5,-1.432762 z m 0.55887,-5.531803 c -1.33333,-0.861666 -1.33333,-0.963266 0,-0.914402 0.825,0.03024 2.4,0.441716 3.5,0.914402 2,0.859429 2,0.859429 0,0.914402 -1.1,0.03023 -2.675,-0.381246 -3.5,-0.914402 z m 2.44113,-3.468197 c -1.06762,-0.807508 -1.46464,-1.482508 -0.88226,-1.5 0.58238,-0.01749 1.93238,0.628885 3,1.436394 1.06762,0.807508 1.46464,1.482508 0.88226,1.5 -0.58238,0.01749 -1.93238,-0.628885 -3,-1.436394 z m 3.19557,-3.808184 c -1.08056,-0.790131 -1.49719,-1.923588 -1.09363,-2.975263 0.59326,-1.546016 0.91309,-1.563826 3.55443,-0.197939 3.62479,1.874453 3.78762,2.736602 0.26381,1.396854 -3.66652,-1.394009 -4.13745,-0.428584 -0.69972,1.434433 1.63139,0.884097 2.17551,1.555247 1.27954,1.578258 -0.85738,0.02202 -2.34437,-0.534334 -3.30443,-1.236343 z m 4.3633,-5.723619 c -1.29269,-0.835399 -1.26629,-0.971491 0.19098,-0.984687 0.93004,-0.0084 1.9691,0.434687 2.30902,0.984687 0.78218,1.265597 -0.54163,1.265597 -2.5,0 z m 1.45888,-4.066531 c -1.07627,-1.741443 0.14952,-2.110241 1.52106,-0.457635 0.78875,0.950384 0.86462,1.524166 0.20152,1.524166 -0.58488,0 -1.36004,-0.479939 -1.72258,-1.066531 z m 3.04667,-2.927338 c -0.99854,-1.103372 -1.35088,-2.006131 -0.78298,-2.006131 1.25825,0 3.7524,2.858364 3.08047,3.530297 -0.26508,0.26508 -1.29895,-0.420794 -2.29749,-1.524166 z m 2.36689,-3.756131 c -1.24387,-1.586056 -1.2085,-1.621426 0.37756,-0.377555 1.66575,1.306369 2.19548,2.127555 1.37244,2.127555 -0.20765,0 -0.99515,-0.7875 -1.75,-1.75 z m 1.72756,-1.85 c -0.35589,-0.927441 -0.42208,-1.911256 -0.14708,-2.186256 0.275,-0.275 0.79119,0.258815 1.14708,1.186256 0.35589,0.927441 0.42208,1.911256 0.14708,2.186256 -0.275,0.275 -0.79119,-0.258815 -1.14708,-1.186256 z m 3,-2 c -0.35589,-0.927441 -0.42208,-1.911256 -0.14708,-2.186256 0.275,-0.275 0.79119,0.258815 1.14708,1.186256 0.35589,0.927441 0.42208,1.911256 0.14708,2.186256 -0.275,0.275 -0.79119,-0.258815 -1.14708,-1.186256 z m 121.4,104.600002 c 0,-0.55 -0.47656,-1 -1.05902,-1 -0.58246,0 -0.7809,0.45 -0.44098,1 0.33992,0.55 0.81648,1 1.05902,1 0.24254,0 0.44098,-0.45 0.44098,-1 z m 5,0 c 0,-0.55 -0.70156,-1 -1.55902,-1 -0.85746,0 -1.2809,0.45 -0.94098,1 0.33992,0.55 1.04148,1 1.55902,1 0.51754,0 0.94098,-0.45 0.94098,-1 z m 6,0 c 0,-0.55 -0.9,-1 -2,-1 -1.1,0 -2,0.45 -2,1 0,0.55 0.9,1 2,1 1.1,0 2,-0.45 2,-1 z m -174.499997,-2 c 1.77364,-1.95985 1.74663,-2 -1.34501,-2 -3.40392,0 -3.45672,0.0501 -2.548,2.41821 0.80288,2.09227 1.70917,1.99491 3.89301,-0.41821 z m 160.229167,1.39583 c -0.33229,-0.33229 -1.1948,-0.36781 -1.91667,-0.0789 -0.79773,0.31922 -0.56078,0.55618 0.60417,0.60416 1.05416,0.0434 1.64479,-0.19293 1.3125,-0.52522 z M 70.745763,123.98275 c 0,-1.35037 -1.82294,-2.28649 -3.01631,-1.54894 -0.55897,0.34546 -0.75742,1.04702 -0.44098,1.55902 0.75067,1.21461 3.45729,1.20672 3.45729,-0.0101 z m 5.75501,-0.30902 c -0.47668,-1.44743 -4.75501,-2.33478 -4.75501,-0.98622 0,1.42806 1.17454,2.23622 3.25,2.23622 1.08622,0 1.7383,-0.5416 1.50501,-1.25 z m 5.60662,-0.25 c -0.31659,-0.825 -1.63834,-1.5 -2.93723,-1.5 -1.68838,0 -2.19754,0.42762 -1.78603,1.5 0.31659,0.825 1.63834,1.5 2.93723,1.5 1.68839,0 2.19754,-0.42762 1.78603,-1.5 z m 20.680027,-1.94981 c -1.384,-1.66761 -9.041657,-2.20416 -9.041657,-0.63352 0,1.19768 1.52218,1.66412 6.362737,1.94974 3.48069,0.20537 3.80818,0.0445 2.67892,-1.31622 z m -10.041657,-0.51501 c 0,-0.53065 -0.93406,-1.46471 -2.07569,-2.07569 -1.89908,-1.01635 -1.98117,-0.93426 -0.96482,0.96482 1.14203,2.13389 3.04051,2.82752 3.04051,1.11087 z m 164.189447,0.3328 c 2.0292,-0.33551 3.94838,-1.28479 4.26486,-2.10951 0.42362,-1.10395 0.0566,-1.36382 -1.3915,-0.98515 -1.0818,0.2829 -2.12257,0.0474 -2.31281,-0.52332 -0.52572,-1.57716 -9.75,0.0576 -9.75,1.72794 0,2.31556 2.94829,2.92195 9.18945,1.89004 z M 74.745763,119.92373 c 0,-0.55 -1.125,-1 -2.5,-1 -1.375,0 -2.5,0.45 -2.5,1 0,0.55 1.125,1 2.5,1 1.375,0 2.5,-0.45 2.5,-1 z m 5.75501,-0.25 c -0.47668,-1.44743 -4.75501,-2.33478 -4.75501,-0.98622 0,1.42806 1.17454,2.23622 3.25,2.23622 1.08622,0 1.7383,-0.5416 1.50501,-1.25 z m 6.00552,-0.76184 c -0.69103,-1.10652 -1.85665,-1.78152 -2.59026,-1.5 -0.73361,0.28151 -1.73292,0.51184 -2.22067,0.51184 -0.48776,0 -0.62781,0.675 -0.31123,1.5 0.32865,0.85643 1.82049,1.5 3.47709,1.5 2.65686,0 2.79556,-0.16962 1.64507,-2.01184 z m 193.239467,0.0118 c 0,-0.55 -1.0125,-0.99311 -2.25,-0.98469 -1.81944,0.0124 -1.96296,0.20082 -0.75,0.98469 1.93876,1.25292 3,1.25292 3,0 z m -205.999997,-2.5 c 0,-0.83333 0.88889,-1.5 2,-1.5 1.11111,0 2,-0.66667 2,-1.5 0,-2.60492 -3.42889,-1.61231 -5.20349,1.50632 -1.42474,2.50381 -1.46565,2.99368 -0.25,2.99368 0.79942,0 1.45349,-0.675 1.45349,-1.5 z m 21.5,0.5 c 0.33992,-0.55 -0.19602,-1.03553 -1.19098,-1.07895 -0.99496,-0.0434 -1.26973,-0.29818 -0.61059,-0.56614 1.60087,-0.6508 -0.47138,-5.35491 -2.35895,-5.35491 -1.66351,0 -1.66438,-0.0218 0.17394,4.37788 1.51635,3.62913 2.83015,4.49326 3.98658,2.62212 z m 7.107947,-0.75 c 2.40055,-3.16233 1.62033,-4.81309 -1.07713,-2.27895 -1.358047,1.27582 -2.231487,2.70426 -1.940977,3.17431 0.786777,1.27304 1.542177,1.04894 3.018107,-0.89536 z m 165.92245,-1.29918 c 0.35298,-0.57114 0.15694,-1.62262 -0.43563,-2.33663 -0.59258,-0.71402 -0.81778,-1.55785 -0.50045,-1.87518 0.31734,-0.31733 -0.36157,-1.07926 -1.50867,-1.69317 -1.69321,-0.90618 -2.08565,-0.82734 -2.08565,0.41898 0,0.84435 0.48214,1.53518 1.07143,1.53518 0.58928,0 0.36428,0.70714 -0.5,1.57143 -1.63165,1.63164 -2.0303,3.63637 -0.93995,4.72672 0.72886,0.72885 3.9523,-0.81567 4.89892,-2.34733 z m -190.280397,1.3869 c -0.6875,-0.27741 -1.8125,-0.27741 -2.5,0 -0.6875,0.27741 -0.125,0.50439 1.25,0.50439 1.375,0 1.9375,-0.22698 1.25,-0.50439 z m 6.75,-0.95435 c 0,-0.21085 -1.15156,-0.38337 -2.55902,-0.38337 -1.40746,0 -2.30701,0.40775 -1.999,0.90612 0.51233,0.82898 4.55802,0.36498 4.55802,-0.52275 z m 165.081787,0.61663 c 0.50501,0 0.91821,-0.675 0.91821,-1.5 0,-0.93333 -0.94444,-1.5 -2.5,-1.5 -1.87565,0 -2.5,0.5262 -2.5,2.10699 0,1.51045 0.44784,1.93514 1.58179,1.5 0.86998,-0.33385 1.99498,-0.60699 2.5,-0.60699 z m 11.7049,-2 c -0.24217,-1.65 -0.0682,-3 0.3865,-3 0.45475,0 0.82681,-0.9 0.82681,-2 0,-1.28768 -0.66667,-2 -1.87182,-2 -3.01995,0 -2.29404,9.85707 0.73532,9.98469 0.19992,0.008 0.16536,-1.33469 -0.0768,-2.98469 z m 16.71331,2 c -0.33992,-0.55 -1.74303,-1 -3.11803,-1 -1.41203,0 -2.23104,0.43519 -1.88197,1 0.33992,0.55 1.74303,1 3.11803,1 1.41203,0 2.23104,-0.43519 1.88197,-1 z m -54.69755,-2.70183 c 2.87135,-2.14377 6.80019,-7.0512 6.13058,-7.65758 -0.23817,-0.21567 -1.51141,-0.72427 -2.82944,-1.13022 -2.13134,-0.65644 -2.33058,-0.48639 -1.80134,1.53745 0.83286,3.18484 -0.92817,5.95218 -3.78774,5.95218 -1.32832,0 -2.92147,0.7875 -3.54033,1.75 -1.04367,1.62322 -1.08268,1.61515 -0.53834,-0.11134 0.46275,-1.46775 0.21439,-1.7164 -1.1745,-1.17591 -3.10051,1.20658 -3.76441,1.07595 -3.62245,-0.71275 0.0794,-1.00042 -0.5631,-1.76362 -1.5,-1.7818 -1.4652,-0.0284 -1.45343,-0.17259 0.11111,-1.36025 2.36687,-1.79671 2.21624,-3.54263 -0.25,-2.8977 -2.57102,0.67234 -2.72323,5.83311 -0.25256,8.56317 2.1959,2.42644 9.19958,1.90325 13.05501,-0.97525 z m 34.19755,1.20183 c 0,-1 -1,-1.5 -3,-1.5 -2,0 -3,0.5 -3,1.5 0,1 1,1.5 3,1.5 2,0 3,-0.5 3,-1.5 z M 97.745763,114.00548 c 0,-2.05149 -1.29673,-4.08179 -2.60699,-4.08179 -1.66527,0 -1.72494,0.51127 -0.35783,3.06574 1.06659,1.99294 2.96482,2.64347 2.96482,1.01605 z m -16,-1.08179 c -1.93876,-1.25292 -3,-1.25292 -3,0 0,0.55 1.0125,0.99311 2.25,0.98469 1.81944,-0.0124 1.96296,-0.20082 0.75,-0.98469 z m 8,0.58179 c 0,-1.68593 -1.48996,-3.59505 -2.85699,-3.66074 -1.03753,-0.0498 -1.18236,-0.26482 -0.39301,-0.58333 1.8975,-0.76566 1.49348,-2.33772 -0.60079,-2.33772 -1.65719,0 -1.7362,0.36612 -0.75531,3.5 0.70569,2.25464 1.72005,3.5 2.85079,3.5 0.96542,0 1.75531,-0.1882 1.75531,-0.41821 z m 186.999997,0.0332 c 0,-0.21174 -1.125,-1.12212 -2.5,-2.02305 -2.38263,-1.56116 -2.5,-1.54309 -2.5,0.38499 0,1.49125 0.65717,2.02305 2.5,2.02305 1.375,0 2.5,-0.17325 2.5,-0.38499 z m -176,-2.67401 c 0,-0.51754 -0.675,-0.94098 -1.499997,-0.94098 -1.54641,0 -1.9867,1.17996 -0.86052,2.30615 0.79893,0.79893 2.360517,-0.10419 2.360517,-1.36517 z m 8.89074,-1.32825 c 2.05184,-2.11697 2.87546,-3.63919 2.19617,-4.05902 -0.62275,-0.38487 -1.12062,0.1008 -1.16586,1.13727 -0.051,1.16896 -0.26603,1.34087 -0.60771,0.48589 -0.39366,-0.98507 -1.13999,-0.74891 -2.92105,0.92432 -2.32838,2.1874 -3.20757,4.89881 -1.58846,4.89881 0.44211,0 2.28122,-1.52427 4.08691,-3.38727 z m 135.10926,0.98089 c 0,-0.9114 -0.69995,-1.22334 -1.98875,-0.88631 -1.09382,0.28604 -1.74226,0.91891 -1.44099,1.40638 0.87315,1.41279 3.42974,1.02512 3.42974,-0.52007 z m 6,-0.59362 c 0,-2.40308 -1.2925,-2.56464 -3.42857,-0.42857 -2.11562,2.11561 -1.99596,2.42857 0.92857,2.42857 1.83333,0 2.5,-0.53333 2.5,-2 z m 7,-0.0664 c 0,-1.663 -0.53521,-2.00465 -2.74145,-1.75 -1.65345,0.19084 -2.87316,1.01094 -3.07332,2.06642 -0.25774,1.35905 0.35471,1.75 2.74145,1.75 2.43958,0 3.07332,-0.42611 3.07332,-2.06642 z m -103.07434,-6.31074 c -0.93542,-0.86091 -1.06905,-0.69553 -0.57284,0.70895 0.35595,1.00748 0.7192,3.03248 0.80722,4.5 0.13009,2.16896 0.23727,2.03632 0.57284,-0.70895 0.23176,-1.89607 -0.12225,-3.86959 -0.80722,-4.5 z m 63.07434,6.37714 c 0,-0.55 -0.9,-1 -2,-1 -1.1,0 -2,0.45 -2,1 0,0.55 0.9,1 2,1 1.1,0 2,-0.45 2,-1 z m 5.5,0 c 0.35052,-0.56716 -0.48962,-1 -1.94098,-1 -1.40746,0 -2.55902,0.45 -2.55902,1 0,0.55 0.87344,1 1.94098,1 1.06754,0 2.2191,-0.45 2.55902,-1 z M 80.745763,109.34675 c 0,-0.305 -0.46583,-1.42496 -1.03518,-2.4888 -0.62398,-1.16591 -0.65708,-1.93426 -0.0833,-1.93426 0.52352,0 1.39882,1.2375 1.94511,2.75 0.96361,2.66793 0.9911,2.63808 0.9213,-1 -0.0608,-3.16614 -0.41183,-3.75 -2.25493,-3.75 -2.58299,0 -5.94958,3.36769 -5.2331,5.23481 0.4801,1.25112 5.74014,2.33998 5.74014,1.18825 z m 189.999997,-0.42306 c 0,-0.55 -0.47656,-1 -1.05902,-1 -0.58246,0 -0.7809,0.45 -0.44098,1 0.33992,0.55 0.81648,1 1.05902,1 0.24254,0 0.44098,-0.45 0.44098,-1 z m -178.999997,-1 c 0,-0.55 -0.675,-1 -1.5,-1 -0.825,0 -1.5,0.45 -1.5,1 0,0.55 0.675,1 1.5,1 0.825,0 1.5,-0.45 1.5,-1 z m 3.5,0 c -0.33992,-0.55 -1.04148,-1 -1.55902,-1 -0.51754,0 -0.94098,0.45 -0.94098,1 0,0.55 0.70156,1 1.55902,1 0.85746,0 1.2809,-0.45 0.94098,-1 z m 4.5,0 c 0,-0.55 -0.675,-1 -1.5,-1 -0.825,0 -1.5,0.45 -1.5,1 0,0.55 0.675,1 1.5,1 0.825,0 1.5,-0.45 1.5,-1 z m 2.999997,0.55902 c 0,-0.24254 -0.45,-0.7191 -1,-1.05902 -0.55,-0.33992 -1,-0.14148 -1,0.44098 0,0.58246 0.45,1.05902 1,1.05902 0.55,0 1,-0.19844 1,-0.44098 z m 142.08179,-0.55902 c 0.50501,0 0.91821,-0.9 0.91821,-2 0,-1.46667 -0.66667,-2 -2.5,-2 -2.02736,0 -2.5,0.49287 -2.5,2.60699 0,1.96639 0.38868,2.45784 1.58179,2 0.86998,-0.33385 1.99498,-0.60699 2.5,-0.60699 z m -26.08179,-1.5 c 0,-0.93333 -0.94444,-1.5 -2.5,-1.5 -1.55556,0 -2.5,0.56667 -2.5,1.5 0,0.93333 0.94444,1.5 2.5,1.5 1.55556,0 2.5,-0.56667 2.5,-1.5 z m 5,-1.11663 c 0,-0.76085 -0.9,-1.38337 -2,-1.38337 -1.30059,0 -2,0.66667 -2,1.90638 0,1.41405 0.51651,1.77131 2,1.38337 1.1,-0.28766 2,-1.14553 2,-1.90638 z m 16,1.11663 c 0,-0.825 -0.7301,-1.5 -1.62244,-1.5 -1.3288,0 -1.39713,0.27149 -0.37756,1.5 0.68469,0.825 1.41479,1.5 1.62244,1.5 0.20766,0 0.37756,-0.675 0.37756,-1.5 z m 11.78183,-1.3455 c 0.22468,-0.67404 -0.69025,-1.1545 -2.1985,-1.1545 -1.90256,0 -2.58333,0.51855 -2.58333,1.96778 0,1.60694 0.40314,1.81864 2.1985,1.15449 1.20918,-0.4473 2.37168,-1.3328 2.58333,-1.96777 z m 4.21817,0.3455 c -0.68469,-0.825 -1.63979,-1.5 -2.12244,-1.5 -0.48266,0 -0.87756,0.675 -0.87756,1.5 0,0.86218 0.90249,1.5 2.12244,1.5 1.77324,0 1.91763,-0.2468 0.87756,-1.5 z m 14,0.69358 c 0,-1.34488 -3.91347,-3.13382 -6.91667,-3.16178 -3.88762,-0.0362 -3.40865,0.96475 1.22096,2.55153 3.34092,1.14509 5.69571,1.39738 5.69571,0.61025 z M 86.189103,102.74905 c -0.7065,-2.22228 -0.77099,-2.2367 -1.45481,-0.32536 -0.40588,1.13445 -0.24618,2.30105 0.369,2.69563 1.58095,1.01402 1.9238,0.2656 1.08581,-2.37027 z m 7.50314,1.07464 c -1.30479,-2.43803 -4.09687,-2.56411 -3.32201,-0.15 0.38175,1.18935 -0.13869,0.94907 -1.62447,-0.75 -1.60805,-1.83888 -2.02933,-2.01559 -1.59309,-0.66821 0.3262,1.00748 0.59309,2.19998 0.59309,2.65 0,0.45001 1.56675,0.81821 3.48167,0.81821 3.1107,0 3.37332,-0.20244 2.46481,-1.9 z m 5.05352,1.29113 c 0,-0.44488 -0.60673,-1.63863 -1.3483,-2.65278 -1.79794,-2.45883 -4.04951,-1.15018 -2.61922,1.52234 1.01401,1.89469 3.96752,2.73622 3.96752,1.13044 z m 2.999997,-1.69113 c 0,-1.55556 -0.56667,-2.5 -1.5,-2.5 -1.613957,0 -1.853237,0.91589 -0.893007,3.41821 0.934197,2.43449 2.393007,1.87474 2.393007,-0.91821 z m 5.74462,1.16619 c 1.84508,-1.15271 3.56979,-4.66619 2.29056,-4.66619 -0.56935,0 -1.03518,0.76101 -1.03518,1.69113 0,1.47139 -0.18428,1.43912 -1.41824,-0.24843 -1.6339,-2.23448 -3.06159,-1.31132 -3.12656,2.02168 -0.0448,2.29902 0.95088,2.6628 3.28942,1.20181 z m 20.09967,-0.23052 c 0.36064,-0.38999 -0.56091,-0.48896 -2.0479,-0.21992 -2.2809,0.41269 -2.86189,0.0351 -3.716,-2.41498 -0.92832,-2.66299 -1.32661,-2.86157 -4.79639,-2.39134 -2.0812,0.28205 -2.9716,0.26752 -1.97866,-0.0323 2.63904,-0.79683 1.49642,-2.82378 -1.8099,-3.21069 -2.78258,-0.32561 -2.81307,-0.27808 -1.28276,2.00001 0.99333,1.47869 2.52698,2.31884 4.18653,2.29341 1.92952,-0.0296 2.94562,0.69952 3.85987,2.76959 1.03044,2.33315 1.72335,2.73386 4.08521,2.3625 1.56436,-0.24596 3.13936,-0.76629 3.5,-1.15629 z m -9.34429,-0.43567 c -0.33992,-0.55 -1.29303,-1 -2.11803,-1 -0.825,0 -1.22189,0.45 -0.88197,1 0.33992,0.55 1.29303,1 2.11803,1 0.825,0 1.22189,-0.45 0.88197,-1 z m 94.5,-1 c 0,-0.55 -0.19844,-1 -0.44098,-1 -0.24254,0 -0.7191,0.45 -1.05902,1 -0.33992,0.55 -0.14148,1 0.44098,1 0.58246,0 1.05902,-0.45 1.05902,-1 z m 4.41821,0.39301 c 2.43449,-0.9342 1.87474,-2.39301 -0.91821,-2.39301 -2.42787,0 -3.19294,0.97373 -1.83333,2.33333 0.81166,0.81167 0.79296,0.81126 2.75154,0.0597 z m 20.88949,0.0424 c 0.89383,-0.343 1.26724,-1.34485 0.95141,-2.55259 -0.41648,-1.59262 -1.22442,-1.92783 -4.06219,-1.68542 -1.94828,0.16642 -3.72721,0.8654 -3.95318,1.55327 -0.24552,0.74738 0.16193,1.03088 1.01249,0.70449 0.78284,-0.3004 2.00054,0.14929 2.706,0.99932 1.46103,1.76043 1.37775,1.73601 3.34547,0.98093 z m -112.3077,-2.43541 c -0.5887,-1.1 -1.74537,-2 -2.57037,-2 -1.19012,0 -1.27888,0.41317 -0.42963,2 0.5887,1.1 1.74537,2 2.57037,2 1.19012,0 1.27888,-0.41317 0.42963,-2 z m 6,1.08179 c 0,-2.43039 -1.27247,-3.8233 -3.06458,-3.35465 -1.91618,0.50109 -2.55582,2.31913 -1.26875,3.60619 0.99739,0.9974 4.33333,0.80375 4.33333,-0.25154 z m 92,-0.58179 c 0,-0.83333 -0.88889,-1.5 -2,-1.5 -1.11111,0 -2,0.66667 -2,1.5 0,0.83333 0.88889,1.5 2,1.5 1.11111,0 2,-0.66667 2,-1.5 z m 4,0 c 0,-0.825 -0.45,-1.5 -1,-1.5 -0.55,0 -1,0.675 -1,1.5 0,0.825 0.45,1.5 1,1.5 0.55,0 1,-0.675 1,-1.5 z m 18,-0.5 c 0,-1.46667 -0.66667,-2 -2.5,-2 -1.83333,0 -2.5,0.53333 -2.5,2 0,1.46667 0.66667,2 2.5,2 1.83333,0 2.5,-0.53333 2.5,-2 z m 5,1.28678 c -0.825,-0.30543 -2.0625,-1 -2.75,-1.5435 -0.89241,-0.70548 -1.25,-0.52404 -1.25,0.63428 0,1.12241 0.84754,1.59811 2.75,1.54349 1.56739,-0.045 2.10494,-0.31776 1.25,-0.63427 z m 13.11005,-2.62117 -2.1151,-2.1151 -2.48061,2.48061 -2.48061,2.48061 4.59571,-0.36551 4.59571,-0.36551 -2.1151,-2.1151 z M 136.15904,97.61279 c -1.10336,-3.53723 -3.78569,-4.76697 -4.77491,-2.1891 -0.36992,0.96401 0.0206,1.5 1.09301,1.5 1.23324,0 1.37591,0.29271 0.54676,1.12186 -1.86643,1.86643 -0.42349,4.0263 1.86988,2.79892 1.42388,-0.76203 1.76435,-1.63165 1.26526,-3.23168 z m -44.413277,1.68846 c 0,-1.3288 -0.27149,-1.39713 -1.5,-0.37756 -0.825,0.68469 -1.5,1.41479 -1.5,1.62244 0,0.20766 0.675,0.37756 1.5,0.37756 0.825,0 1.5,-0.7301 1.5,-1.62244 z m 4,-0.37756 c 0,-0.55 -0.675,-1 -1.5,-1 -0.825,0 -1.5,0.45 -1.5,1 0,0.55 0.675,1 1.5,1 0.825,0 1.5,-0.45 1.5,-1 z m 5.755007,-0.25 c -0.47669,-1.44743 -4.755007,-2.33478 -4.755007,-0.98622 0,1.42806 1.17454,2.23622 3.25,2.23622 1.086217,0 1.738297,-0.5416 1.505007,-1.25 z m 119.01916,-0.24818 c 0.15079,-0.11925 -0.34341,-0.72935 -1.09821,-1.35579 -1.06167,-0.88111 -1.79679,-0.66999 -3.24701,0.93248 -1.86277,2.05834 -1.85582,2.06692 1.0982,1.3558 1.63507,-0.39362 3.09622,-0.81323 3.24702,-0.93249 z M 90.930273,95.77755 c 2.76793,-2.19224 3.82533,-3.70822 3.48753,-5 -0.57688,-2.20596 1.13724,-2.51444 1.96633,-0.35386 1.27909,3.33324 2.90066,0.25225 1.76754,-3.35834 -0.3515,-1.12004 -0.82955,-1.0941 -2.72502,0.14786 -1.26431,0.8284 -3.43078,1.28978 -4.8144,1.02529 -4.17113,-0.79736 -11.10445,6.18402 -8.02906,8.08472 0.46059,0.28465 2.37309,-0.7955 4.25,-2.40035 3.61738,-3.09302 4.91257,-3.62253 4.91257,-2.00837 0,0.54494 -1.56943,2.00744 -3.48762,3.25 -1.91819,1.24255 -3.49319,2.59669 -3.5,3.00919 -0.0257,1.55916 2.33561,0.64245 6.17213,-2.39614 z m 15.177117,1.64614 c -0.31659,-0.825 -0.75246,-1.5 -0.96862,-1.5 -0.21615,0 -0.39301,0.675 -0.39301,1.5 0,0.825 0.43588,1.5 0.96862,1.5 0.53273,0 0.70959,-0.675 0.39301,-1.5 z m 4.63837,0.46862 c 0,-1.19717 -2.82062,-2.48133 -3.64326,-1.65869 -0.87571,0.87571 0.60965,2.69007 2.20228,2.69007 0.79254,0 1.44098,-0.46412 1.44098,-1.03138 z m 9,-1.46862 c 0,-0.825 -0.675,-1.5 -1.5,-1.5 -1.56157,0 -1.98397,1.1827 -0.83333,2.33333 1.15063,1.15064 2.33333,0.72824 2.33333,-0.83333 z m 4,0 c 0,-0.825 -0.675,-1.5 -1.5,-1.5 -1.56157,0 -1.98397,1.1827 -0.83333,2.33333 1.15063,1.15064 2.33333,0.72824 2.33333,-0.83333 z m 15,1.14922 c 0,-0.19292 -0.49402,-1.76793 -1.09783,-3.5 -1.50544,-4.31851 -2.87038,-4.00107 -1.50827,0.35078 0.60251,1.925 1.43537,3.5 1.85079,3.5 0.41542,0 0.75531,-0.15785 0.75531,-0.35078 z m 91.60716,-1.39922 c 1.6667,-1.66668 1.66534,-1.76631 -0.0284,-2.09256 -2.55422,-0.49197 -8.57876,0.77529 -8.57876,1.80454 0,2.3803 6.30391,2.59125 8.60716,0.28802 z m 8.80951,0.5 c 0.46666,-1 0.7,-1 1.16666,0 0.32084,0.6875 1.62871,1.25 2.90638,1.25 1.78997,0 2.20903,-0.43601 1.82619,-1.9 -0.36322,-1.38897 -1.39655,-1.9 -3.84189,-1.9 -2.01636,0 -4.02802,0.7547 -5.06451,1.9 -1.63674,1.80857 -1.61979,1.9 0.35218,1.9 1.13941,0 2.33415,-0.5625 2.65499,-1.25 z M 130.02897,95.62803 c 0.32676,-0.85152 -0.49355,-1.37115 -2.39301,-1.51588 -2.01271,-0.15337 -2.8902,0.24 -2.8902,1.29565 0,1.87893 4.57355,2.06957 5.28321,0.22023 z m 9.66339,-3.06056 c -0.96285,-0.88745 -1.09592,-0.73326 -0.59378,0.68801 0.35595,1.00748 0.69938,2.35748 0.76318,3 0.0638,0.64251 0.331,0.33291 0.59378,-0.68801 0.26278,-1.02092 -0.0806,-2.37092 -0.76318,-3 z m -40.446597,2.35622 c 0.33992,-0.55 -0.30852,-1 -1.44098,-1 -1.13246,0 -2.05902,0.45 -2.05902,1 0,0.55 0.64844,1 1.44098,1 0.79254,0 1.7191,-0.45 2.05902,-1 z m 15.286357,-1.85494 c 0.33837,-1.01822 -0.13828,-1.16156 -1.91805,-0.5768 -1.30257,0.42798 -3.38081,0.70525 -4.61831,0.61614 -1.2375,-0.0891 -2.25,0.27786 -2.25,0.81546 0,1.51112 8.26741,0.70681 8.78636,-0.8548 z m 75.21364,0.85494 c 0,-0.55 -0.19844,-1 -0.44098,-1 -0.24254,0 -0.7191,0.45 -1.05902,1 -0.33992,0.55 -0.14148,1 0.44098,1 0.58246,0 1.05902,-0.45 1.05902,-1 z m 5,0 c 1.21296,-0.78388 1.06944,-0.97231 -0.75,-0.98469 -1.2375,-0.008 -2.25,0.43469 -2.25,0.98469 0,1.25292 1.06124,1.25292 3,0 z m -76,-1 c 0,-0.55 -0.675,-1 -1.5,-1 -0.825,0 -1.5,0.45 -1.5,1 0,0.55 0.675,1 1.5,1 0.825,0 1.5,-0.45 1.5,-1 z m 3.5,0 c -0.33992,-0.55 -1.04148,-1 -1.55902,-1 -0.51754,0 -0.94098,0.45 -0.94098,1 0,0.55 0.70156,1 1.55902,1 0.85746,0 1.2809,-0.45 0.94098,-1 z m 11.5,-1 c 0,-0.55 -0.675,-1 -1.5,-1 -0.825,0 -1.5,0.45 -1.5,1 0,0.55 0.675,1 1.5,1 0.825,0 1.5,-0.45 1.5,-1 z m 96.75,0.36971 c 1.32345,-0.35467 2.25,-1.37855 2.25,-2.48634 0,-2.85509 -5.33431,-2.57055 -6.87331,0.36663 l -1.17893,2.25 0.4325,-2.25 c 0.46678,-2.42836 -0.0699,-2.73214 -2.31596,-1.3109 -1.18984,0.7529 -1.21168,1.17839 -0.12755,2.48468 1.3669,1.64703 4.00524,1.96644 7.81325,0.94593 z M 108.13162,90.48683 c -0.30326,-0.79027 -1.18914,-1.19213 -1.96862,-0.89301 -2.08603,0.80049 -1.7241,2.32987 0.55138,2.32987 1.30058,0 1.78151,-0.48758 1.41724,-1.43686 z m 82.61414,0.43686 c 0,-0.55 -0.675,-1 -1.5,-1 -0.825,0 -1.5,0.45 -1.5,1 0,0.55 0.675,1 1.5,1 0.825,0 1.5,-0.45 1.5,-1 z m 5,-0.57333 c 0,-0.93123 -0.68037,-1.44137 -1.66713,-1.25 -2.50877,0.48656 -2.85325,2.82333 -0.4162,2.82333 1.22833,0 2.08333,-0.64569 2.08333,-1.57333 z m 4.22321,-0.17667 c 0.84325,-0.9625 1.73506,-3.2125 1.98179,-5 0.36501,-2.644343 0.10818,-3.250002 -1.37819,-3.250002 -2.07519,0 -2.46409,1.576184 -0.57681,2.337722 0.70533,0.2846 0.43664,0.53878 -0.61663,0.58333 -1.41824,0.06 -1.72856,0.60693 -1.29185,2.27691 0.31613,1.20888 0.0885,2.78388 -0.50582,3.5 -1.65782,1.99756 0.61929,1.57031 2.38751,-0.44796 z m 35.46978,-1.98097 c -0.25354,-0.97297 -0.47766,-0.41903 -0.49804,1.23097 -0.0204,1.65 0.18706,2.44606 0.46099,1.76903 0.27392,-0.67703 0.29059,-2.02703 0.0371,-3 z m 4.7002,1.46941 c 1.24401,-1.97217 0.28509,-3.2127 -1.85006,-2.39336 -1.78523,0.68505 -2.14218,5.02127 -0.36457,4.42873 0.6482,-0.21607 1.64479,-1.13198 2.21463,-2.03537 z m -126.37788,0.0116 c 0.0115,-0.93594 0.22775,-0.91487 0.86084,0.0838 0.68927,1.08735 0.95084,1.05938 1.41545,-0.15136 0.38651,-1.00724 0.029,-1.38066 -1.11084,-1.16035 -0.92442,0.17866 -2.71982,0.35927 -3.98978,0.40135 -1.27072,0.0421 -2.0311,0.52618 -1.69098,1.07651 0.8872,1.43553 4.49711,1.23565 4.51531,-0.25 z m 6.36625,-0.30194 c 0.34149,-0.88992 0.17385,-1.29132 -0.39301,-0.94098 -0.5437,0.33602 -0.98855,1.03439 -0.98855,1.55194 0,1.43843 0.71677,1.12146 1.38156,-0.61096 z m 5.61844,-0.38904 c 0,-1.35037 -1.82294,-2.28649 -3.01631,-1.54894 -0.55897,0.34546 -0.75742,1.04702 -0.44098,1.55902 0.75067,1.21461 3.45729,1.20672 3.45729,-0.0101 z m 2.68311,-1.24652 c -0.31922,-0.79773 -0.55618,-0.56078 -0.60416,0.60417 -0.0434,1.05416 0.19292,1.64479 0.52522,1.3125 0.33229,-0.3323 0.36781,-1.1948 0.0789,-1.91667 z m 2.91689,-0.4125 c -0.35589,-0.92744 -0.87208,-1.46126 -1.14708,-1.18626 -0.275,0.275 -0.20881,1.25882 0.14708,2.18626 0.35589,0.92744 0.87208,1.46125 1.14708,1.18625 0.275,-0.275 0.20881,-1.25881 -0.14708,-2.18625 z m -29.41667,-0.61667 c -0.71756,-0.71756 -1.18333,-0.7766 -1.18333,-0.15 0,1.33478 1.18261,2.51739 1.85,1.85 0.28417,-0.28416 -0.0158,-1.04916 -0.66667,-1.7 z m 4.63999,0.54953 c -0.48655,-2.50876 -2.82332,-2.85324 -2.82332,-0.41619 0,1.22833 0.64569,2.08333 1.57332,2.08333 0.93124,0 1.44138,-0.68037 1.25,-1.66714 z m 84,-0.66573 c 0.19138,-0.98676 -0.31876,-1.66713 -1.25,-1.66713 -0.92763,0 -1.57332,0.85499 -1.57332,2.08333 0,2.43705 2.33677,2.09257 2.82332,-0.4162 z m -78.82332,0.33287 c 0,-0.55 -0.9,-1 -2,-1 -1.1,0 -2,0.45 -2,1 0,0.55 0.9,1 2,1 1.1,0 2,-0.45 2,-1 z m 85,-0.56955 c 0,-1.04234 -0.72946,-1.46222 -2.17167,-1.25 -3.2015,0.47108 -3.54438,2.81955 -0.41166,2.81955 1.6805,0 2.58333,-0.54853 2.58333,-1.56955 z m 8.56533,-0.88981 c 1.09049,-1.6643 1.39553,-3.442343 0.9436,-5.500002 -0.83277,-3.791552 -2.44388,-3.988008 -2.38352,-0.29064 0.0247,1.5125 -0.27088,3.987502 -0.65683,5.500002 -0.86998,3.40933 -0.0236,3.52666 2.09675,0.29064 z m 15.43467,0.45936 c 0,-1.11111 -0.66667,-2 -1.5,-2 -1.80819,0 -1.93321,1.16679 -0.3,2.8 1.61379,1.61378 1.8,1.53102 1.8,-0.8 z m -102,0 c 0,-0.55 -0.47656,-1 -1.05902,-1 -0.58246,0 -0.7809,0.45 -0.44098,1 0.33992,0.55 0.81648,1 1.05902,1 0.24254,0 0.44098,-0.45 0.44098,-1 z m 107,-0.5 c 0,-0.825 -0.62686,-1.5 -1.39301,-1.5 -0.76616,0 -1.65203,0.675 -1.96862,1.5 -0.39152,1.02029 0.054,1.5 1.39301,1.5 1.08322,0 1.96862,-0.67464 1.96862,-1.5 z m 5.93333,-0.1409 c 0.23834,-0.21584 -0.0689,-0.89469 -0.68278,-1.50855 -1.46132,-1.461322 -4.25055,-0.355321 -4.25055,1.68545 0,1.19624 0.56649,1.42464 2.25,0.90716 1.2375,-0.38039 2.445,-0.86821 2.68333,-1.08406 z M 124.74576,84.53072 c 0,-0.76616 -0.675,-1.652036 -1.5,-1.968618 -1.02029,-0.391522 -1.5,0.05397 -1.5,1.393008 0,1.08322 0.67464,1.96862 1.5,1.96862 0.825,0 1.5,-0.62686 1.5,-1.39301 z m 110.60417,-1.336159 c -1.01652,-1.016515 -1.85525,0.513889 -1.02122,1.863379 0.63003,1.01942 0.86558,1.02021 1.2043,0.004 0.2316,-0.69478 0.14921,-1.535118 -0.18308,-1.86741 z m 5.21915,1.062029 c -0.48655,-2.508765 -2.82332,-2.85324 -2.82332,-0.41619 0,1.22833 0.64569,2.08333 1.57332,2.08333 0.93124,0 1.44138,-0.68037 1.25,-1.66714 z m 4.73555,-0.864665 c -2.4734,-1.870783 -3.55887,-1.861083 -3.55887,0.0318 0,0.977412 0.95809,1.488922 2.75,1.468202 2.63406,-0.0305 2.66816,-0.0937 0.80887,-1.500005 z M 97.025143,81.884065 c -0.29336,-1.121815 -0.75683,-1.816223 -1.02992,-1.543128 -0.541,0.540993 0.41459,3.582793 1.12554,3.582793 0.24077,0 0.19774,-0.91785 -0.0956,-2.039665 z m 8.720617,1.252467 c 0,-0.432957 -0.90973,-0.855723 -2.02161,-0.939479 -1.11189,-0.08376 -1.76033,0.270482 -1.44099,0.787196 0.7025,1.136661 3.4626,1.258051 3.4626,0.152283 z m 4.75,0.09787 c -0.9625,-0.251527 -1.75,-0.874326 -1.75,-1.383998 0,-0.509672 -0.375,-0.926676 -0.83333,-0.926676 -0.45834,0 -0.83334,0.675 -0.83334,1.5 0,0.976172 0.90215,1.459492 2.58334,1.384002 1.69455,-0.0761 1.98126,-0.273343 0.83333,-0.573328 z m 2.93311,-1.498174 c -0.31922,-0.797733 -0.55618,-0.560776 -0.60416,0.604167 -0.0434,1.054166 0.19292,1.644795 0.52522,1.312505 0.33229,-0.332297 0.36781,-1.194797 0.0789,-1.916672 z m 4.31689,0.1875 c 0,-1.949186 -1.06067,-2.605998 -2.26443,-1.402234 -0.80112,0.801115 0.24738,3.402236 1.37142,3.402236 0.49115,0 0.89301,-0.900002 0.89301,-2.000002 z m 2.12409,-0.266667 c -0.98762,-0.980267 -1.10248,-0.865403 -0.5598,0.559795 0.37553,0.986221 0.93469,1.541224 1.24258,1.233333 0.30789,-0.307887 6.4e-4,-1.114794 -0.68278,-1.793128 z m 66.55902,0.07917 c -0.31922,-0.797733 -0.55618,-0.560776 -0.60416,0.604167 -0.0434,1.054166 0.19292,1.644792 0.52522,1.312502 0.33229,-0.332294 0.36781,-1.194794 0.0789,-1.916669 z m 4.31689,1.218882 c 0,-0.532739 -0.675,-0.709594 -1.5,-0.393011 -0.825,0.316582 -1.5,0.752459 -1.5,0.968615 0,0.216153 0.675,0.393013 1.5,0.393013 0.825,0 1.5,-0.435879 1.5,-0.968617 z m 7,-0.03139 c 0,-0.55 -1.125,-1 -2.5,-1 -1.375,0 -2.5,0.45 -2.5,1 0,0.55 1.125,1.000002 2.5,1.000002 1.375,0 2.5,-0.450002 2.5,-1.000002 z m 23,-2.223566 c 0,-1.404152 -0.4659,-1.811628 -1.58179,-1.383423 -0.86998,0.333844 -1.99498,0.606989 -2.5,0.606989 -0.50501,0 -0.91821,0.837598 -0.91821,1.861328 0,1.446192 0.55758,1.75474 2.5,1.383423 1.66925,-0.319097 2.5,-1.139319 2.5,-2.468317 z m 5.82275,-0.490006 c -1.18221,-1.424475 -4.82275,-1.766502 -4.82275,-0.453095 0,1.466732 1.22519,2.125627 3.58878,1.93001 1.75424,-0.145186 2.04771,-0.496424 1.23397,-1.476915 z m 12.01558,0.381544 c 2.70848,0.708286 2.78514,-0.793765 0.16167,-3.167972 -1.29269,-1.169865 -2,-1.36978 -2,-0.56528 0,0.684582 -1.0125,2.129735 -2.25,3.21145 -2.08709,1.824354 -2.0988,1.89398 -0.16167,0.961634 1.14858,-0.552817 3.06108,-0.750741 4.25,-0.439832 z M 102.74576,79.757061 c 0,-0.458333 -0.675,-0.833333 -1.5,-0.833333 -0.825,0 -1.499997,0.375 -1.499997,0.833333 0,0.458334 0.674997,0.833334 1.499997,0.833334 0.825,0 1.5,-0.375 1.5,-0.833334 z m 88,0.166667 c 0,-0.55 -0.42344,-1 -0.94098,-1 -0.51754,0 -1.2191,0.45 -1.55902,1 -0.33992,0.55 0.0835,1 0.94098,1 0.85746,0 1.55902,-0.45 1.55902,-1 z m 6.75501,-0.75 c 0.25808,-0.783655 -0.55212,-1.25 -2.17168,-1.25 -1.6805,0 -2.58333,0.548528 -2.58333,1.569551 0,1.880616 4.12165,1.603629 4.75501,-0.319551 z m 5.24499,-0.323324 c 0,-1.397962 -0.54305,-1.968005 -1.66713,-1.75 -2.36056,0.457807 -2.79118,2.565247 -0.63821,3.123341 0.99294,0.257389 1.91784,0.520181 2.05534,0.583982 0.1375,0.0638 0.25,-0.816995 0.25,-1.957323 z m -9.47981,-5.285698 2.64509,-1.859022 -2.53739,-2.64847 c -1.39557,-1.456658 -3.82585,-5.004597 -5.40064,-7.884309 -2.60055,-4.755488 -3.03193,-5.112486 -4.70201,-3.891293 -2.52969,1.849753 -2.62199,11.500085 -0.17127,17.906722 l 1.8226,4.764606 2.84927,-2.264606 c 1.56709,-1.245533 4.03955,-3.101166 5.49435,-4.123628 z m 39.75757,4.347591 c 3.91097,-4.567679 0.71115,-11.988569 -5.16935,-11.988569 -2.26254,0 -3.03028,0.552581 -3.52911,2.540067 -0.50886,2.027467 -0.0262,3.054435 2.39159,5.088894 4.32501,3.639253 3.75378,5.004277 -0.72089,1.722671 l -3.75,-2.750151 3.44617,3.69926 c 3.95454,4.244975 4.94655,4.473349 7.33159,1.687828 z m -18.27776,-0.488569 c 0,-0.933333 -0.94444,-1.5 -2.5,-1.5 -2.61517,0 -3.40105,1.46975 -1.25,2.337719 2.38159,0.960994 3.75,0.655303 3.75,-0.837719 z m -113,-0.5 c 0,-0.55 -0.19844,-1 -0.44098,-1 -0.24254,0 -0.7191,0.45 -1.05902,1 -0.339917,0.55 -0.14148,1 0.44098,1 0.58246,0 1.05902,-0.45 1.05902,-1 z m 120.5,0 c -0.33992,-0.55 -1.94148,-1 -3.55902,-1 -1.61754,0 -2.94098,0.45 -2.94098,1 0,0.55 1.60156,1 3.55902,1 2.11803,0 3.30878,-0.404882 2.94098,-1 z m -115.81689,-2.1875 c -0.31922,-0.797733 -0.55618,-0.560776 -0.60416,0.604167 -0.0434,1.054166 0.19292,1.644791 0.52522,1.3125 0.33229,-0.332292 0.36781,-1.194792 0.0789,-1.916667 z m 90.81689,1.152655 c 1.72446,-0.771069 1.62634,-0.858443 -0.71219,-0.634194 -1.4917,0.143044 -3.0292,0.577097 -3.41666,0.96456 -0.9712,0.971198 1.6951,0.757856 4.12885,-0.330366 z m 6,-0.965155 c 0.33992,-0.55 -0.30852,-1 -1.44098,-1 -1.13246,0 -2.05902,0.45 -2.05902,1 0,0.55 0.64844,1 1.44098,1 0.79254,0 1.7191,-0.45 2.05902,-1 z m 4.5,-0.606989 c 0,-0.216156 -0.675,-0.393011 -1.5,-0.393011 -0.825,0 -1.5,0.435877 -1.5,0.968615 0,0.532739 0.675,0.709594 1.5,0.393011 0.825,-0.316582 1.5,-0.752459 1.5,-0.968615 z m 6.72917,0.0028 c -0.3323,-0.332291 -1.1948,-0.367818 -1.91667,-0.07895 -0.79773,0.319226 -0.56078,0.556183 0.60417,0.604167 1.05416,0.04342 1.64479,-0.192928 1.3125,-0.52522 z m 5.27083,-0.395811 c 0,-0.55 -0.675,-1 -1.5,-1 -0.825,0 -1.5,0.45 -1.5,1 0,0.55 0.675,1 1.5,1 0.825,0 1.5,-0.45 1.5,-1 z m -118.33772,-3.25 c -0.27741,-0.6875 -0.50439,-0.125 -0.50439,1.25 0,1.375 0.22698,1.9375 0.50439,1.25 0.27741,-0.6875 0.27741,-1.8125 0,-2.5 z m 98.47443,1.462237 c -0.72144,-0.240481 -1.78716,0.03821 -2.36826,0.619313 -0.74207,0.742068 -0.35164,0.872211 1.31171,0.437237 1.3522,-0.353609 1.8055,-0.806902 1.05655,-1.05655 z m 8.68661,-2.545103 c 0.21801,-1.124084 -0.35203,-1.667134 -1.75,-1.667134 -1.14032,0 -2.07332,0.6 -2.07332,1.333333 0,3.062743 3.23923,3.345548 3.82332,0.333801 z m 4.34794,0.677878 c 2.50799,-2.269701 2.2922,-3.345012 -0.67126,-3.345012 -2,0 -2.5,0.5 -2.5,2.5 0,2.928697 0.67119,3.107542 3.17126,0.845012 z m -14.17126,-1.222567 c 0,-0.482656 -0.62568,-1.396824 -1.3904,-2.031486 -0.76472,-0.634661 -2.35223,-3.389761 -3.5278,-6.122444 -1.52975,-3.555997 -2.69808,-4.968515 -4.1096,-4.968515 -2.48414,0 -2.46643,0.663106 0.1335,5 3.63765,6.067911 8.8943,10.868378 8.8943,8.122445 z m 23.81311,-1.372445 c 0.24772,-1.299707 -0.3286,-1.75 -2.23979,-1.75 -1.93548,0 -2.57332,0.512971 -2.57332,2.069551 0,1.571851 0.53864,1.992703 2.23978,1.75 1.23189,-0.175753 2.38988,-1.107051 2.57333,-2.069551 z M 202.37729,64.22192 c -0.2999,-0.299898 -1.35218,-0.232538 -2.3384,0.14969 -1.6867,0.653708 -1.67442,0.782728 0.20687,2.173653 1.7837,1.318772 2.0366,1.302583 2.3384,-0.14969 0.18612,-0.895611 0.093,-1.873755 -0.20687,-2.173653 z m 5.36011,1.728136 c 1.14212,-0.722071 1.21645,-1.218239 0.31722,-2.11747 -1.48579,-1.485784 -4.30886,-0.463863 -4.30886,1.559757 0,1.723814 1.75855,1.969519 3.99164,0.557713 z m 6.42657,-0.633317 c 0.86999,-0.333844 1.58179,-1.263734 1.58179,-2.066422 0,-2.158924 -5.39264,-1.30255 -5.81477,0.923411 -0.34193,1.802986 1.33389,2.255498 4.23298,1.143011 z m 8.58179,-3.428195 c 0,-0.530649 -0.9,-0.964816 -2,-0.964816 -1.34486,0 -2,0.666667 -2,2.035184 0,1.725306 0.30452,1.872209 2,0.964816 1.1,-0.588702 2,-1.504535 2,-2.035184 z m 5.42933,-0.07917 c -0.87027,-1.408121 -4.42933,-1.025904 -4.42933,0.475682 0,0.911158 0.82286,1.204029 2.48835,0.885651 1.36859,-0.261623 2.24203,-0.87422 1.94098,-1.361328 z m -30.84853,-3.638176 c -1.15374,-1.153742 -1.74564,0.653177 -0.95886,2.927169 l 0.80455,2.325361 0.36756,-2.335864 c 0.20215,-1.284725 0.10619,-2.597225 -0.21325,-2.916666 z m 5.4192,1.679206 c 0,-2.386737 -0.39095,-2.999183 -1.75,-2.74145 -1.05548,0.200164 -1.87558,1.419875 -2.06642,3.073325 -0.25465,2.20624 0.087,2.741449 1.75,2.741449 1.64031,0 2.06642,-0.633737 2.06642,-3.073324 z m 5,-0.426676 c 0,-1.833333 -0.53333,-2.5 -2,-2.5 -1.46667,0 -2,0.666667 -2,2.5 0,1.833333 0.53333,2.5 2,2.5 1.46667,0 2,-0.666667 2,-2.5 z m 3.44649,-3 c -3.97286,-4.848346 -7.44649,-5.960163 -7.44649,-2.383423 0,1.718457 0.47024,2.026685 2.5,1.638672 2.05242,-0.392345 2.5,-0.08499 2.5,1.716756 0,2.807043 0.76297,3.527995 3.73362,3.527995 2.34302,0 2.31232,-0.107346 -1.28713,-4.5 z m 6.55351,1.3 c 0,-1.615417 -0.29571,-1.904289 -1.11287,-1.087132 -0.61207,0.612077 -0.81052,1.602077 -0.44098,2.2 1.03439,1.67368 1.55385,1.301643 1.55385,-1.112868 z m 3.85701,1.309533 c 1.63706,-1.037284 0.55924,-5.411825 -1.19187,-4.837461 -1.32361,0.434144 -2.23462,5.736117 -0.98156,5.712615 0.44903,-0.0084 1.42708,-0.402241 2.17343,-0.875154 z m -23.85701,-4.109533 c 0,-2.171093 -0.73777,-2.452164 -2.87812,-1.096491 -1.61343,1.021932 -0.65059,3.096491 1.43714,3.096491 0.79254,0 1.44098,-0.9 1.44098,-2 z m 5,-0.90638 c 0,-1.414051 -0.51651,-1.771311 -2,-1.383369 -1.1,0.287656 -2,1.145528 -2,1.90638 0,0.760853 0.9,1.383369 2,1.383369 1.30059,0 2,-0.666667 2,-1.90638 z m 13.7559,-0.34362 2.10452,-2.25 -3.52602,-4.75 c -3.74697,-5.047645 -5.02505,-5.719737 -6.00762,-3.159182 -0.38197,0.995391 0.40286,2.530422 2.09686,4.101186 3.46574,3.213614 2.6034,4.175499 -1.27044,1.417087 -4.97358,-3.541503 -5.47286,-2.355606 -0.94139,2.235988 2.35851,2.389793 4.54725,4.414793 4.86388,4.5 0.31662,0.08521 1.52272,-0.857579 2.68021,-2.095079 z m -36.7559,-1.25 c 0,-2.521961 -2.27427,-3.483279 -3.51008,-1.483688 -0.34546,0.558971 -1.00926,0.780752 -1.4751,0.492846 -0.46584,-0.287906 -2.12225,-0.0015 -3.6809,0.636539 -1.55866,0.638002 -3.73392,1.310317 -4.83392,1.494032 -1.91428,0.31971 -1.92155,0.273773 -0.16982,-1.071724 2.51833,-1.934312 1.89963,-6.195704 -0.83018,-5.718055 -1.1,0.192472 -2.225,0.657528 -2.5,1.033457 -0.67771,0.926444 -6,0.808105 -6,-0.133407 0,-0.4125 0.9,-0.75 2,-0.75 1.45377,0 2,-0.666667 2,-2.440983 0,-2.902221 -1.30421,-3.914627 -3.95792,-3.072373 -1.17211,0.372014 -1.71996,1.189215 -1.38406,2.064548 0.30578,0.796844 0.0578,1.448808 -0.55103,1.448808 -0.60885,0 -1.10699,-0.632871 -1.10699,-1.40638 0,-0.914051 -0.70014,-1.223291 -2,-0.883369 -1.1,0.287656 -2,0.836337 -2,1.219289 0,0.902178 4.66792,5.181734 8.5,7.792814 3.89893,2.656629 5.54753,3.022404 14.25,3.161645 7.0976,0.113563 7.25,0.06345 7.25,-2.383999 z m 6,-2.800616 c 0.825,-0.297819 0.0375,-0.577016 -1.75,-0.620437 -2.90304,-0.07052 -3.24763,0.214638 -3.22776,2.671053 l 0.0222,2.75 1.72777,-2.129563 c 0.9503,-1.17126 2.40279,-2.373234 3.22779,-2.671053 z m 1,3.300616 c 0,-0.55 -0.42344,-1 -0.94098,-1 -0.51754,0 -1.2191,0.45 -1.55902,1 -0.33992,0.55 0.0835,1 0.94098,1 0.85746,0 1.55902,-0.45 1.55902,-1 z m 5,-2.5 c 0,-1.833333 -0.53333,-2.5 -2,-2.5 -2.43319,0 -2.51708,0.771147 -0.34501,3.171259 2.1468,2.372195 2.34501,2.315458 2.34501,-0.671259 z m 6,-1.073324 c 0,-3.282339 -3.34535,-2.990208 -3.81955,0.33354 -0.2427,1.701145 0.17815,2.239784 1.75,2.239784 1.55658,0 2.06955,-0.63784 2.06955,-2.573324 z m -24.93426,0.53814 c 2.23242,-1.194753 2.62428,-4.964816 0.51605,-4.964816 -2.9402,0 -4.58179,1.292333 -4.58179,3.606989 0,2.603329 1.07049,2.960838 4.06574,1.357827 z m 29.68426,0.31893 c -3.14914,-0.477055 -3.53868,-1.725004 -1,-3.203647 1.56287,-0.910287 1.5094,-1.022533 -0.5,-1.04969 -1.74144,-0.02354 -2.25,0.534655 -2.25,2.469591 0,2.184581 0.41004,2.481096 3.25,2.350168 3.02493,-0.139456 3.05956,-0.178682 0.5,-0.566422 z m 19.87255,-1.742505 c 0.8147,-2.12308 -1.41118,-8.136589 -4.26877,-11.532641 -1.50998,-1.794507 -3.88286,-3.20483 -6.08827,-3.618568 -3.01758,-0.566102 -3.91521,-0.305913 -5.43972,1.576779 -2.41985,2.988389 -2.30641,3.708158 0.67421,4.27794 1.375,0.262848 2.5,0.09031 2.5,-0.383423 0,-1.952669 1.74272,-0.460123 6,5.138672 4.74486,6.240018 5.71531,6.905477 6.62255,4.541241 z m -42.62255,-2.041241 c 0,-1.670095 -0.58093,-2.538508 -1.75,-2.616001 -1.66667,-0.110478 -1.66667,-0.137779 0,-0.573325 2.57616,-0.673221 2.35785,-5.310674 -0.25,-5.310674 -1.75758,0 -2,0.666667 -2,5.5 0,4.833333 0.24242,5.5 2,5.5 1.46667,0 2,-0.666667 2,-2.5 z m 6.81955,-1.25 c 0.24851,-1.749783 -0.19613,-2.280276 -2,-2.386182 l -2.31955,-0.136182 2.25,-0.433369 c 1.2375,-0.238353 2.24311,-0.964571 2.23469,-1.613818 -0.0288,-2.223041 -1.72416,-3.87727 -3.60452,-3.517145 -1.52509,0.292084 -1.91926,1.361134 -2.08716,5.660664 -0.20364,5.214896 -0.16323,5.295528 2.5,4.988304 1.92579,-0.222155 2.79921,-0.961589 3.02654,-2.562272 z m 6.18045,-0.75 c 0,-1.375 -0.5625,-2.506891 -1.25,-2.515313 -0.97314,-0.01192 -0.96564,-0.195744 0.0339,-0.829949 1.78539,-1.132879 0.41011,-4.154738 -1.89089,-4.154738 -1.35254,0 -1.89301,0.713765 -1.89301,2.5 0,1.375 0.5625,2.535526 1.25,2.578947 1,0.06316 1,0.179825 0,0.583334 -0.6875,0.277412 -1.25,1.366886 -1.25,2.421052 0,1.377778 0.7029,1.916667 2.5,1.916667 2,0 2.5,-0.5 2.5,-2.5 z m -26.18358,-1.75 c 0.2674,-2.323937 -0.0554,-2.75 -2.08333,-2.75 -3.11606,0 -3.54739,0.520593 -2.96323,3.57645 0.69339,3.62722 4.60787,2.986165 5.04656,-0.82645 z m 30.44801,2.652234 c 0.97315,-0.973145 -0.36299,-3.402234 -1.87142,-3.402234 -0.76615,0 -1.39301,0.9 -1.39301,2 0,1.882583 1.94753,2.719141 3.26443,1.402234 z m -24.133,-1.402234 c 1.85897,0 1.9377,-0.534625 1.42281,-9.662068 -0.29977,-5.314138 -0.77211,-9.889138 -1.04964,-10.166667 -0.27753,-0.277529 -0.51149,0.132902 -0.51991,0.912068 -0.013,1.206517 -0.14641,1.209624 -0.89908,0.02095 -1.09205,-1.724665 -4.08561,-0.725008 -4.08561,1.364332 0,0.992334 0.93867,1.531385 2.66667,1.531385 3.16943,0 2.85441,0.473689 -0.91667,1.378376 -2.44681,0.586992 -2.75,0.382 -2.75,-1.859324 0,-2.028651 -0.4928,-2.519052 -2.53138,-2.519052 -2.77699,0 -4.50571,2.741008 -2.50757,3.975925 0.8884,0.549067 0.93076,0.972905 0.14571,1.458092 -1.92766,1.191361 -1.19604,3.560579 1.14324,3.702165 l 2.25,0.136182 -2.25,0.433369 c -1.40665,0.270933 -2.25,1.156943 -2.25,2.363818 0,2.119412 3.32979,2.644214 6,0.945649 1.24028,-0.788962 1.2821,-1.305754 0.24153,-2.984687 -0.81811,-1.319988 -0.88494,-2.030513 -0.19099,-2.030513 0.58712,0 0.78938,-0.45 0.44946,-1 -0.33992,-0.55 -0.14148,-1 0.44098,-1 0.58246,0 1.05902,0.45 1.05902,1 0,0.55 1.0125,1.061282 2.25,1.136182 l 2.25,0.136182 -2.25,0.433369 c -1.40665,0.270933 -2.25,1.156943 -2.25,2.363818 0,1.305746 0.72811,1.962706 2.25,2.030129 2.13438,0.09456 2.12154,0.135129 -0.25,0.789546 -1.79362,0.494944 -2.59316,1.494581 -2.8297,3.537892 -0.26741,2.309978 -0.0158,2.727575 1.33179,2.210454 0.91382,-0.350665 2.54702,-0.637572 3.62934,-0.637572 z m 27.86857,-0.5 c 0,-0.825 -0.45,-1.5 -1,-1.5 -0.55,0 -1,0.675 -1,1.5 0,0.825 0.45,1.5 1,1.5 0.55,0 1,-0.675 1,-1.5 z m 6,-0.5 c 0,-0.55 -0.45,-1 -1,-1 -0.55,0 -1,0.45 -1,1 0,0.55 0.45,1 1,1 0.55,0 1,-0.45 1,-1 z m -58,-3.5 c 0,-2.55315 -1.36488,-3.33666 -2.5296,-1.452113 -0.83186,1.345987 0.1561,3.952113 1.49822,3.952113 0.56726,0 1.03138,-1.125 1.03138,-2.5 z m 3.41821,1.893011 c 0.86999,-0.333844 1.58179,-1.731989 1.58179,-3.106989 0,-1.86883 -0.39935,-2.346754 -1.58179,-1.893011 -0.86998,0.333844 -1.76998,0.606989 -2,0.606989 -0.23001,0 -0.41821,1.125 -0.41821,2.5 0,2.722072 0.0848,2.788435 2.41821,1.893011 z m 7.58179,-3.870916 c 0,-1.855176 -0.43387,-2.161811 -2.5,-1.766846 -1.78226,0.340701 -2.5,1.122363 -2.5,2.722656 0,1.855176 0.43387,2.161811 2.5,1.766846 1.78226,-0.340701 2.5,-1.122363 2.5,-2.722656 z m 35.96229,1.911529 c 0.40515,1.130927 0.96209,1.497751 1.34163,0.883646 0.3569,-0.577487 -0.24047,-1.854862 -1.3275,-2.838611 -1.92647,-1.743433 -1.97349,-1.715221 -1.86042,1.116353 0.0862,2.158605 0.2493,2.391125 0.63479,0.904988 0.50669,-1.953336 0.53496,-1.954885 1.2115,-0.06638 z m -52.8382,-4.700291 c -0.98762,-0.980267 -1.10248,-0.865403 -0.5598,0.559795 0.37553,0.986221 0.93469,1.541221 1.24258,1.233333 0.30789,-0.307887 6.4e-4,-1.114794 -0.68278,-1.793128 z m 4.87591,-0.340322 c 0,-0.766156 -0.675,-1.393011 -1.5,-1.393011 -0.82536,0 -1.5,0.885402 -1.5,1.968615 0,1.339038 0.47971,1.784533 1.5,1.393011 0.825,-0.316582 1.5,-1.202459 1.5,-1.968615 z m 32,0.606989 c 0,-1.1 -0.5625,-2.006891 -1.25,-2.015313 -0.89349,-0.01094 -0.85193,-0.267372 0.14572,-0.899075 1.72466,-1.092051 0.725,-4.085612 -1.36434,-4.085612 -1.1483,0 -1.53138,1.125678 -1.53138,4.5 0,3.833333 0.2963,4.5 2,4.5 1.33333,0 2,-0.666667 2,-2 z m -26,-1.689956 c 0,-1.999239 -3.39389,-1.218829 -3.79674,0.873047 -0.2384,1.23787 0.2038,1.523222 1.73851,1.121885 1.13203,-0.296031 2.05823,-1.19375 2.05823,-1.994932 z m 32.36163,1.189956 c 0.43198,-1.12574 -0.16509,-1.5 -2.39301,-1.5 -1.97211,0 -2.96862,0.503524 -2.96862,1.5 0,0.91545 0.93256,1.5 2.39301,1.5 1.31616,0 2.65203,-0.675 2.96862,-1.5 z m 2.45872,-2.216462 c -0.77668,-0.935847 -0.70314,-1.283538 0.27149,-1.283538 0.97614,0 0.88071,-0.456021 -0.35374,-1.690476 -2.41295,-2.412946 -3.13294,-1.043442 -1.63267,3.105498 0.82259,2.274838 1.55882,3.128234 2.0346,2.358405 0.41006,-0.663492 0.26621,-1.783942 -0.31968,-2.489889 z m 3.57334,2.132902 c 0.37373,-0.973914 0.15024,-1.431083 -0.58051,-1.1875 -1.49484,0.498279 -2.31789,2.77106 -1.0035,2.77106 0.53699,0 1.24979,-0.712602 1.58401,-1.58356 z m -33.97548,-0.02343 c 1.90041,-0.729254 2.12164,-3.39301 0.28179,-3.39301 -1.44095,0 -3.7,1.953777 -3.7,3.2 0,0.953945 1.25115,1.024592 3.41821,0.193011 z m -14.41821,-3.976343 c 0,-0.870834 -0.53438,-1.405209 -1.1875,-1.1875 -1.85422,0.618074 -2.16176,2.770833 -0.39583,2.770833 0.87083,0 1.58333,-0.7125 1.58333,-1.583333 z m 4.41655,-0.05979 c 0.34679,-0.903721 0.41434,-1.859313 0.15012,-2.123539 -0.93015,-0.930151 -3.56667,0.722194 -3.56667,2.235277 0,2.047306 2.62094,1.961585 3.41655,-0.111743 z m 5.76747,-0.736185 c 0.98378,-1.474493 0.003,-2.620692 -2.24304,-2.620692 -1.39713,0 -1.94098,0.691687 -1.94098,2.468615 0,1.930367 0.38156,2.327835 1.75,1.822942 0.9625,-0.355121 2.05781,-1.107012 2.43402,-1.67087 z m 29.429,0.629313 c -0.30264,0.9625 -0.0814,1.75 0.49169,1.75 1.73707,0 0.49967,-3.452508 -1.36619,-3.811841 -1.2381,-0.238435 -1.73852,0.317 -1.73852,1.929646 0,2.216323 0.0336,2.223195 1.58164,0.323325 1.35047,-1.657427 1.50121,-1.685362 1.03138,-0.19113 z m -23.61302,-2.366636 c 0,-1.216702 -0.70795,-1.883369 -2,-1.883369 -1.44592,0 -2,0.666667 -2,2.40638 0,1.914051 0.40919,2.299376 2,1.883369 1.10692,-0.289465 2,-1.364016 2,-2.40638 z m -20.31689,-2.070869 c -0.31922,-0.797733 -0.55618,-0.560776 -0.60416,0.604167 -0.0434,1.054166 0.19292,1.644791 0.52522,1.3125 0.33229,-0.332292 0.36781,-1.194792 0.0789,-1.916667 z m 4.31689,0.1875 c 0,-1.111111 -0.66667,-2 -1.5,-2 -0.83333,0 -1.5,0.888889 -1.5,2 0,1.111111 0.66667,2 1.5,2 0.83333,0 1.5,-0.888889 1.5,-2 z m 5,-1.073324 c 0,-1.431099 -0.53852,-1.969616 -1.73852,-1.738517 -2.60673,0.502012 -2.89745,3.811841 -0.3348,3.811841 1.43109,0 2.07332,-0.642225 2.07332,-2.073324 z m 30.8,0.873324 c 1.60048,-1.600483 1.5178,-2.8 -0.19301,-2.8 -0.76616,0 -1.69037,0.774889 -2.0538,1.721975 -0.56605,1.475114 -0.79423,1.510953 -1.59167,0.25 -0.51199,-0.809586 -0.93779,-0.984475 -0.94621,-0.388642 -0.0353,2.49801 2.78595,3.215408 4.78469,1.216667 z m 4.25282,-0.3 c -0.0784,-1.484289 -2.31562,-1.211605 -2.83465,0.345503 -0.28038,0.841121 0.17677,1.215987 1.21948,1 0.9174,-0.190026 1.64422,-0.795503 1.61517,-1.345503 z m -29.55282,-1.5 c 0,-2.168726 -3.90136,-1.869978 -4.32527,0.331209 -0.27348,1.420065 0.17249,1.756846 1.98631,1.5 1.28643,-0.182165 2.33896,-1.006209 2.33896,-1.831209 z m 5.5,-1 c 0,-1.193904 -0.70533,-2.046754 -1.75,-2.116001 -1.66667,-0.110478 -1.66667,-0.137779 0,-0.573325 2.41303,-0.63059 2.21065,-3.310674 -0.25,-3.310674 -1.66667,0 -2,0.666667 -2,4 0,3.333333 0.33333,4 2,4 1.33333,0 2,-0.666667 2,-2 z m -20,-0.559017 c 0,-0.857459 -0.45,-1.280902 -1,-0.940983 -0.55,0.339919 -1,1.041476 -1,1.559017 0,0.517541 0.45,0.940983 1,0.940983 0.55,0 1,-0.701558 1,-1.559017 z m 27,-0.440983 c 0,-2.084711 -1.45112,-2.697122 -2.47301,-1.043674 -0.32507,0.525979 -1.25163,0.702834 -2.05902,0.393011 -0.91533,-0.351245 -1.46797,0.04166 -1.46797,1.043674 0,1.118877 0.91123,1.606989 3,1.606989 2.33333,0 3,-0.444444 3,-2 z m -23,-0.583333 c 0,-0.870834 -0.53438,-1.405209 -1.1875,-1.1875 -1.85422,0.618074 -2.16176,2.770833 -0.39583,2.770833 0.87083,0 1.58333,-0.7125 1.58333,-1.583333 z m 26.39369,-2.27e-4 c 0.37373,-0.973914 0.15024,-1.431083 -0.58051,-1.1875 -1.49484,0.498279 -2.31789,2.77106 -1.0035,2.77106 0.53699,0 1.24979,-0.712602 1.58401,-1.58356 z m 4.01208,-0.66644 1.64971,-2.25 -0.59513,2.25 c -0.67608,2.556053 0.69158,2.976793 2.51896,0.774925 1.01292,-1.220492 0.73202,-1.693099 -1.62755,-2.738336 -1.56847,-0.694794 -3.4464,-1.831011 -4.17319,-2.524926 -2.32547,-2.220298 -5.52701,-1.33326 -4.5334,1.256051 0.30014,0.782147 1.49733,1.14267 2.9311,0.882678 2.7025,-0.490058 2.88736,-0.135216 1.38855,2.665349 -1.43459,2.680557 0.41993,2.44067 2.44095,-0.315741 z m -25.40577,-0.323324 c 0,-0.931239 -0.68037,-1.441373 -1.66713,-1.25 -2.50877,0.486551 -2.85325,2.823324 -0.4162,2.823324 1.22833,0 2.08333,-0.645689 2.08333,-1.573324 z M 138.52568,16.95939 c 0.0475,-1.669614 -0.31947,-3.035662 -0.81542,-3.035662 -0.49595,0 -0.61438,-0.74882 -0.26318,-1.664045 0.3942,-1.027251 0.23868,-1.416908 -0.40638,-1.018237 -1.2417,0.767409 -1.4038,5.496972 -0.21361,6.232544 0.45723,0.282584 0.5495,1.248197 0.20506,2.145808 -0.37519,0.977732 -0.21865,1.380097 0.39048,1.003637 0.55921,-0.345611 1.05558,-1.994431 1.10305,-3.664045 z m 15.22008,2.391014 c 0,-0.931239 -0.68037,-1.441373 -1.66713,-1.25 -2.50877,0.486551 -2.85325,2.823324 -0.4162,2.823324 1.22833,0 2.08333,-0.645689 2.08333,-1.573324 z m 9.68221,0.922201 c -0.35812,-0.358118 0.12867,-1.221325 1.08176,-1.918239 0.98251,-0.718431 1.34952,-1.627284 0.84755,-2.098877 -0.48693,-0.457469 -1.1032,-0.218342 -1.36948,0.531392 -0.40183,1.131384 -0.62444,1.136149 -1.3093,0.02802 -0.64614,-1.045486 -0.9769,-0.939669 -1.52466,0.487772 -0.43089,1.122881 -0.16354,2.162277 0.6962,2.706662 1.64767,1.043299 2.5002,1.185536 1.57793,0.263265 z m -20.18221,-2.348877 c -0.33992,-0.55 -1.26648,-1 -2.05902,-1 -0.79254,0 -1.44098,0.45 -1.44098,1 0,0.55 0.92656,1 2.05902,1 1.13246,0 1.7809,-0.45 1.44098,-1 z m 5.5,-1.573324 c 0,-0.931239 -0.68037,-1.441373 -1.66713,-1.25 -2.50877,0.486551 -2.85325,2.823324 -0.4162,2.823324 1.22833,0 2.08333,-0.645689 2.08333,-1.573324 z m 5,-0.926676 c 0,-0.825 -0.3949,-1.5 -0.87756,-1.5 -0.48265,0 -1.43775,0.675 -2.12244,1.5 -1.04007,1.253202 -0.89568,1.5 0.87756,1.5 1.21995,0 2.12244,-0.637821 2.12244,-1.5 z m -11,-1.622445 c 0,-1.773235 -0.2468,-1.917621 -1.5,-0.877555 -0.825,0.684689 -1.5,1.639789 -1.5,2.122445 0,0.482655 0.675,0.877555 1.5,0.877555 0.86218,0 1.5,-0.902494 1.5,-2.122445 z m 17,0.622445 c 0,-0.825 -0.62686,-1.5 -1.39301,-1.5 -0.76616,0 -1.65203,0.675 -1.96862,1.5 -0.39152,1.020289 0.054,1.5 1.39301,1.5 1.08322,0 1.96862,-0.674638 1.96862,-1.5 z m 4,-1.059017 c 0,-0.857459 -0.45,-1.280902 -1,-0.940983 -0.55,0.339919 -1,1.041476 -1,1.559017 0,0.517541 0.45,0.940983 1,0.940983 0.55,0 1,-0.701558 1,-1.559017 z m 2.5,0.559017 c 0.33992,-0.55 0.14148,-1 -0.44098,-1 -0.58246,0 -1.05902,0.45 -1.05902,1 0,0.55 0.19844,1 0.44098,1 0.24254,0 0.7191,-0.45 1.05902,-1 z m -14.48469,-2.25 c 0.0102,-0.833333 0.33844,-0.75 0.98469,0.25 0.53316,0.825 0.97627,0.9926 0.98469,0.372445 0.0203,-1.496238 -2.49129,-3.5325107 -3.3267,-2.6971017 -1.01551,1.0155147 -0.77797,3.3246567 0.34201,3.3246567 0.55,0 1.00689,-0.5625 1.01531,-1.25 z m -11.01531,-0.75 c 0,-0.55 -0.47656,-0.9999997 -1.05902,-0.9999997 -0.58246,0 -0.7809,0.4499997 -0.44098,0.9999997 0.33992,0.55 0.81648,1 1.05902,1 0.24254,0 0.44098,-0.45 0.44098,-1 z m 19.72917,0.395833 c -0.3323,-0.332291 -1.1948,-0.367818 -1.91667,-0.07895 -0.79773,0.319226 -0.56078,0.556183 0.60417,0.604167 1.05416,0.04342 1.64479,-0.192928 1.3125,-0.52522 z"
     id="path3979"
     inkscape:connector-curvature="0" />
  <path
     style="fill:#000000;stroke:none;stroke-width:1px;stroke-linecap:butt;stroke-linejoin:miter;stroke-opacity:1;fill-opacity:0.46534657"
     d="m 130.51513,12.873433 -10.15117,6.888299 -15.58931,17.402017 -5.07559,17.402018 1.08763,15.226766 14.50168,7.25084 23.92777,13.776598 10.15118,7.250841 15.58931,15.589308 13.05151,14.86422 9.06355,7.61339 18.85219,12.68897 10.51372,8.70101 9.78863,7.97592 15.22677,9.06355 18.48964,7.61338 14.50168,1.45017 13.41406,-5.07559 7.61338,-7.25084 3.98796,-12.68897 -2.17525,-18.1271 -8.70101,-17.76456 -9.06355,-10.51372 -1.08763,1.45017 3.26288,5.07559 0,3.62542 -10.51372,-5.80067 -2.53779,-0.36255 -5.80067,5.43813 3.62542,3.98797 1.08762,5.07558 -2.53779,5.43814 -3.26288,3.26287 -6.8883,1.08763 -6.8883,-0.36254 -4.71304,-2.17525 -3.26288,-3.26288 -1.81271,-5.43813 1.45017,-7.61339 4.3505,-1.81271 2.90034,1.45017 -13.7766,-17.76456 -3.26288,3.26288 -4.3505,5.43813 -5.43813,3.62542 -7.25084,0.36254 -4.71305,-2.17525 -0.72509,-6.8883 3.62543,-5.80067 4.3505,-3.62542 5.07559,-2.900337 2.53779,-1.087626 -13.41405,-15.226765 -1.08763,2.175252 -0.36254,3.62542 -5.43813,6.525757 -10.51372,5.43813 -5.43813,-1.087626 -3.26288,-6.888298 0.36254,-6.888299 13.05152,-9.426093 3.26287,-2.175252 -9.42609,-15.589308 -9.42609,1.087626 -11.96389,0.725084 -13.05151,-4.350504 -8.70101,-7.613383 -7.25084,-10.513719 -4.71305,-13.414055 -2.17525,-9.063551 z"
     id="path3981"
     inkscape:connector-curvature="0" />
  <path
     style="fill:#000000;stroke:none;stroke-width:1px;stroke-linecap:butt;stroke-linejoin:miter;stroke-opacity:1;fill-opacity:0.46534657"
     d="m 204.47371,46.2273 5.80067,7.613383 3.98796,3.62542 6.16322,-6.525756 -10.87626,-12.326429 z"
     id="path4491"
     inkscape:connector-curvature="0" />
  <path
     style="fill:#000000;stroke:none;stroke-width:1px;stroke-linecap:butt;stroke-linejoin:miter;stroke-opacity:1;fill-opacity:0.46534657000000001"
     d="m 222.23827,72.692869 4.71304,6.163215 3.26288,2.175252 4.71305,-3.625421 0.36254,-6.163214 -5.07559,-6.888299 -5.43813,1.450168 z"
     id="path4493"
     inkscape:connector-curvature="0" />
  <path
     style="fill:#000000;stroke:none;stroke-width:1px;stroke-linecap:butt;stroke-linejoin:miter;stroke-opacity:1;fill-opacity:0.46534657"
     d="m 247.61621,96.983185 4.71305,4.713045 5.07559,-1.812708 4.3505,-5.438131 -9.78863,-7.975925 -4.35051,1.450169 -1.81271,6.163214 z"
     id="path4495"
     inkscape:connector-curvature="0" />
  <path
     style="fill:#000000;stroke:none;stroke-width:1px;stroke-linecap:butt;stroke-linejoin:miter;stroke-opacity:1;fill-opacity:0.46534657000000001"
     d="m 144.65427,93.357765 9.06355,7.975925 10.51372,11.2388 8.70101,9.78864 -4.71305,4.3505 -35.89166,32.26624 -20.30235,24.65286 -24.652859,22.47761 -15.95185,7.97592 -7.975925,3.62542 -15.589307,1.08763 L 34.441493,215.53443 22.477606,205.38325 15.95185,195.23208 15.589308,178.1926 16.314392,165.50363 21.38998,153.90229 37.704372,129.97451 54.018763,110.0347 75.408744,88.282177 98.248892,69.792533 l 4.713048,0.362542 0,4.350504 -5.438132,1.81271 -3.987963,8.338467 2.175253,6.888299 -5.075589,6.163215 -5.43813,2.90034 -3.625421,0.72508 -6.525756,2.17525 -3.262879,5.43813 1.450168,2.90034 -6.163214,9.78863 -6.525757,4.35051 -2.175252,-2.90034 -8.701009,9.06355 1.087626,2.5378 4.713047,5.80067 -3.625421,5.07559 -6.888298,5.07559 -7.975925,-3.62542 -3.625421,0.72508 -3.62542,7.97593 -2.900336,10.15117 3.987962,3.26288 3.262878,-5.07559 1.812711,-2.53779 0.362542,4.3505 5.075588,4.35051 6.525757,1.45016 0,9.06356 3.987962,5.07558 9.788635,0.72509 9.426093,-4.71305 -1.450168,-6.52575 -9.426093,-10.51372 2.175252,-5.07559 7.613383,-7.97593 2.537794,2.5378 0.725084,3.62542 3.987963,2.90033 7.975925,0.72509 5.075588,-4.71305 -2.175252,-6.52576 -10.151177,-9.42609 0,-3.98796 10.151177,-11.96389 3.62542,5.07559 8.701005,5.43813 3.26288,1.08763 5.80067,0 -0.72508,-7.61339 -5.07559,-10.87626 -6.888296,-1.45016 15.226766,-14.50169 6.16321,-0.72508 2.90034,4.71305 2.90034,0.36254 11.96388,-3.62542 z"
     id="path4497"
     inkscape:connector-curvature="0" />
  <path
     style="fill:#000000;stroke:none;stroke-width:1px;stroke-linecap:butt;stroke-linejoin:miter;stroke-opacity:1;fill-opacity:0.73267329"
     d="m 103.31144,70.241525 6.4089,4.614407 19.73941,9.228814 14.09957,9.228813 -2.56356,4.101695 -11.0233,7.690676 -8.45975,2.05085 -3.58898,-5.38348 -7.17797,-1.02542 -0.51271,3.58898 -13.330508,12.56144 3.588988,3.07628 6.66525,3.58898 2.3072,10.51059 -2.56356,3.07627 -6.40889,-1.02542 -9.485174,-6.92161 -2.050847,-6.4089 -8.972458,11.53602 -3.332627,6.4089 4.614407,2.56356 6.92161,5.89618 1.281779,6.4089 -2.050847,4.87076 -4.101695,1.28178 -6.408898,-1.02542 -4.101695,-3.07627 -1.025424,-3.58898 -3.076271,-2.30721 -9.228814,11.53602 2.819916,3.07627 6.152542,6.15254 2.050847,6.66526 -1.025423,3.07627 -3.588983,2.81991 -8.459746,1.79449 -5.383475,-2.05084 -2.563559,-1.79449 -1.794492,-7.69068 0.512712,-4.1017 -6.408898,-0.51271 -7.177966,-6.92161 -2.307204,3.58898 -2.050847,1.02543 -2.819915,-2.30721 0,-4.87076 5.896186,-12.56144 3.076271,-2.05085 6.408899,4.61441 4.101695,-1.02542 9.228813,-9.48517 -6.408898,-6.92161 3.845339,-5.12712 6.408898,-4.35805 3.076271,0.51271 7.947034,-8.20339 2.56356,-7.17797 0,-3.33262 5.127118,-3.84534 4.358051,-0.25636 1.538136,-1.28178 11.536017,-7.177965 -0.256356,-3.076271 -3.588983,-5.896187 6.665254,-8.203389 z"
     id="path4499"
     inkscape:connector-curvature="0" />
  <path
     style="fill:#000000;stroke:#000000;stroke-width:1px;stroke-linecap:butt;stroke-linejoin:miter;stroke-opacity:1;fill-opacity:0.73267329"
     d="m 135.22818,18.311564 2.17525,7.25084 4.35051,9.788635 5.43813,8.338467 8.33846,7.250841 7.97593,4.713046 7.61338,0 12.68897,0 6.16322,-2.175252 5.80067,7.975925 5.07559,7.975925 -7.25084,4.350504 -7.25084,6.163215 -1.81271,2.900336 1.08762,10.151177 2.5378,3.262878 4.3505,0 9.06355,-5.43813 7.97593,-8.338467 1.45017,-1.81271 9.78863,10.151177 1.45017,3.62542 -4.35051,1.087626 -5.80067,3.987963 -3.26288,6.16321 -0.36254,6.52576 2.17525,3.26288 6.8883,1.81271 7.61338,-2.90034 5.80068,-7.61338 1.45017,-3.62542 5.43813,4.71305 7.97592,11.60134 -5.07559,0.72509 -1.81271,4.3505 0,5.43813 2.90034,6.52576 6.52575,3.26288 8.33847,1.45016 6.52576,-3.26287 5.43813,-6.52576 -3.62542,-9.78864 -1.81271,0 7.61338,-7.25084 5.43813,5.80068 4.71305,2.53779 0.36254,-5.07559 -9.42609,-12.68897 -10.15118,-9.063551 -5.43813,5.438131 -4.3505,0 -6.16322,-6.163215 1.81271,-6.888298 3.98796,-1.450169 -14.50168,-13.051513 -3.98796,6.525757 -4.35051,-0.362542 -9.06355,-7.613383 5.43813,-7.613383 4.71305,-0.725084 -9.06355,-11.601345 -7.25084,4.713046 -10.15118,-9.06355 7.97593,-8.338467 -10.51372,0.362542 -11.96389,-11.963887 -14.13914,-11.238804 -10.15118,-5.800672 -10.15117,-2.1752524 -9.78864,0 -9.78863,1.4501684 z"
     id="path4501"
     inkscape:connector-curvature="0" />
</svg>
