<?xml version="1.0" encoding="UTF-8" standalone="no"?>
<!-- Created with Inkscape (http://www.inkscape.org/) -->

<svg
   xmlns:dc="http://purl.org/dc/elements/1.1/"
   xmlns:cc="http://creativecommons.org/ns#"
   xmlns:rdf="http://www.w3.org/1999/02/22-rdf-syntax-ns#"
   xmlns:svg="http://www.w3.org/2000/svg"
   xmlns="http://www.w3.org/2000/svg"
   xmlns:sodipodi="http://sodipodi.sourceforge.net/DTD/sodipodi-0.dtd"
   xmlns:inkscape="http://www.inkscape.org/namespaces/inkscape"
   id="svg5759"
   version="1.1"
   inkscape:version="0.48.4 r9939"
   width="242"
   height="307"
   sodipodi:docname="Spade.png">
  <metadata
     id="metadata5765">
    <rdf:RDF>
      <cc:Work
         rdf:about="">
        <dc:format>image/svg+xml</dc:format>
        <dc:type
           rdf:resource="http://purl.org/dc/dcmitype/StillImage" />
        <dc:title></dc:title>
      </cc:Work>
    </rdf:RDF>
  </metadata>
  <defs
     id="defs5763" />
  <sodipodi:namedview
     pagecolor="#ffffff"
     bordercolor="#666666"
     borderopacity="1"
     objecttolerance="10"
     gridtolerance="10"
     guidetolerance="10"
     inkscape:pageopacity="0"
     inkscape:pageshadow="2"
     inkscape:window-width="1270"
     inkscape:window-height="738"
     id="namedview5761"
     showgrid="false"
     inkscape:zoom="0.76872964"
     inkscape:cx="338.79622"
     inkscape:cy="225.04661"
     inkscape:window-x="0"
     inkscape:window-y="22"
     inkscape:window-maximized="0"
     inkscape:current-layer="svg5759" />
  <path
     style="fill:#a9a9a9;fill-opacity:1;stroke:none"
     d="m 82.115996,187.15943 c 5.960312,2.16998 10.51248,5.74811 14.309322,10.08156 -4.024849,11.31339 -29.712409,21.21408 -0.162606,47.96876 -4.608671,10.29935 -18.009293,20.27452 -35.478075,31.92069 -10.429827,6.95341 -24.053508,15.25422 -45.824891,18.81236 -4.9762792,-14.31045 -2.808382,-38.99179 4.467553,-60.81868 5.158364,-15.47444 9.974643,-29.91712 17.646854,-35.44404 31.98542,24.80211 34.588982,-0.55989 45.041843,-12.52065 z"
     id="path6281"
     inkscape:connector-curvature="0"
     sodipodi:nodetypes="cccscscc" />
  <path
     style="fill:#654719;fill-opacity:1;stroke:none"
     d="m 84.555085,187.97246 c 4.715739,1.7885 8.826568,4.1819 11.707627,7.80508 C 143.11769,132.16025 192.51175,82.296503 236.10381,19.512712 c -0.78719,-4.463379 -7.68696,-6.30708 -12.35805,-9.105932 -46.94671,59.019385 -99.31692,116.37 -139.190675,177.56568 z"
     id="path5771"
     inkscape:connector-curvature="0"
     sodipodi:nodetypes="ccccc" />
  <path
     style="fill:#000000"
     d="m 12.734018,296.27306 c -0.826029,-1.85623 -1.203854,-8.06295 -1.142782,-18.77306 0.08221,-14.41694 0.400799,-17.23677 3.219982,-28.5 7.662668,-30.61398 16.294367,-50 22.262691,-50 0.948904,0 4.582963,1.80884 8.075686,4.01964 11.972042,7.578 15.113126,8.3536 19.932652,4.92179 3.309459,-2.35654 10.299171,-11.21788 14.349163,-18.19143 1.517248,-2.6125 3.358292,-4.75 4.091208,-4.75 0.732916,0 3.022502,-2.8125 5.087969,-6.25 6.906016,-11.49349 33.330673,-46.15996 49.539063,-64.99021 6.50489,-7.55712 17.10784,-20.382123 23.56211,-28.500005 C 168.16604,77.141903 176.64619,66.675 180.55655,62 c 3.91036,-4.675 9.10628,-11.260235 11.54649,-14.633855 2.44022,-3.373621 9.44136,-11.923621 15.5581,-19 6.11675,-7.07638 12.23271,-14.188682 13.59103,-15.805117 l 2.46967,-2.9389723 4.83163,1.8452153 C 233.71898,13.439996 238,17.266336 238,19.910495 c 0,0.890147 -2.3625,4.53325 -5.25,8.095784 -2.8875,3.562534 -7.05,8.807953 -9.25,11.656485 -2.2,2.848533 -6.7,8.524074 -10,12.612314 -3.3,4.088239 -8.81772,11.211309 -12.2616,15.829042 -3.44388,4.617734 -9.06888,11.582767 -12.5,15.477851 -3.43112,3.895083 -9.11678,10.563789 -12.63481,14.819345 -3.51802,4.255554 -10.40907,12.093674 -15.31344,17.418034 -4.90438,5.32436 -12.37599,14.08551 -16.6036,19.46923 -4.2276,5.38371 -15.03959,18.65871 -24.02664,29.5 -20.02966,24.16222 -22.616526,27.80195 -22.339901,31.43232 0.116923,1.53448 -0.207369,2.67502 -0.72065,2.53453 -0.51328,-0.14049 -3.895615,4.22138 -7.516298,9.69305 -7.296656,11.02688 -7.953858,13.96809 -4.703883,21.05152 1.00939,2.2 4.416874,6.42805 7.572188,9.39566 6.613404,6.21998 6.615915,6.16745 -0.725074,15.17196 -5.308174,6.51104 -19.09009,17.17086 -34.386987,26.5971 -13.725368,8.45784 -18.419558,10.74561 -29.16868,14.21568 -14.21245,4.58812 -14.022258,4.57096 -15.436607,1.39266 z m 17.419202,-4.8732 C 42.353096,287.15493 41.620574,287.51409 55,279.21735 73.706599,267.61718 84.034373,259.61739 90.600496,251.64158 93.020223,248.70236 95,245.8018 95,245.1959 c 0,-0.60591 -1.77873,-2.53108 -3.952733,-4.27816 -5.190195,-4.17095 -8.822425,-9.79109 -10.208389,-15.79541 -1.094382,-4.74112 -1.025642,-5.02015 2.769443,-11.24175 2.140423,-3.50897 5.582748,-8.82229 7.649611,-11.80737 l 3.757932,-5.42742 -2.257932,-2.42021 c -4.919765,-5.27336 -12.108931,-7.18861 -10.415148,-2.77468 0.288406,0.75157 -0.798905,2.36591 -2.441304,3.6246 -2.110814,1.61768 -2.603448,2.49066 -1.71528,3.03958 0.848015,0.5241 0.309396,1.1262 -1.6862,1.88492 -2.277599,0.86594 -2.61248,1.31245 -1.5,2 1.127383,0.69676 0.874786,1.09711 -1.186745,1.8809 C 70.344852,205.19959 69.2982,207 72,207 c 1.278904,0 1.850121,0.43349 1.4418,1.09417 -0.371929,0.60179 -1.759227,0.88714 -3.082884,0.63411 -2.750004,-0.5257 -4.284256,0.9794 -1.922298,1.88577 2.578109,0.98932 1.786515,2.65877 -0.936618,1.97531 -1.517629,-0.3809 -2.5,-0.20055 -2.5,0.45898 0,0.63022 -0.837198,0.82072 -1.993708,0.45366 -1.593088,-0.50563 -1.860353,-0.28526 -1.330061,1.09665 0.715266,1.86396 0.125634,1.65643 -4.676231,-1.64585 -3.655341,-2.51381 -6.24838,-2.7413 -8.430036,-0.73956 -1.80069,1.6522 -2.052981,1.65961 -3.764571,0.11064 -1.008994,-0.91312 -3.065477,-3.60874 -4.569964,-5.99027 C 37.788738,202.46063 36,200.89193 36,202.61919 36,204.00967 43.218183,215 44.131421,215 c 0.542637,0 0.703961,0.45734 0.358498,1.01631 -0.981131,1.5875 -2.390348,0.2199 -6.583386,-6.38896 -2.138143,-3.37004 -3.891807,-5.37507 -3.897033,-4.45561 -0.0052,0.91946 1.996425,4.6631 4.44811,8.3192 2.451686,3.65611 3.914186,6.47622 3.25,6.26693 -1.058953,-0.3337 -5.01901,-5.74518 -8.301467,-11.3441 -1.043645,-1.78015 -1.14884,-1.76306 -2.29166,0.37232 -1.030991,1.92642 -0.816927,2.75867 1.537094,5.97601 1.504194,2.05585 3.852635,4.97071 5.218758,6.47747 1.366123,1.50676 2.247348,2.97608 1.958278,3.26515 -0.727243,0.72724 -5.411301,-4.09343 -7.917288,-8.1482 C 30.770381,214.51043 29.520648,213 29.13414,213 c -0.386507,0 -1.467079,2.06229 -2.40127,4.58286 -1.564554,4.22138 -1.572563,4.83268 -0.101538,7.75 2.043021,4.0517 6.422489,8.75191 7.521693,8.07257 C 34.618861,233.11752 35,233.33197 35,233.88197 c 0,3.65142 -6.15695,-1.21408 -9.257652,-7.3158 -1.413902,-2.78236 -1.525719,-2.82407 -2.165653,-0.80782 -0.744975,2.34721 3.080748,9.41565 6.78826,12.54205 2.059496,1.73669 2.064275,1.78942 0.135045,1.49031 -1.1,-0.17054 -3.419528,-2.42974 -5.154507,-5.02044 -2.384403,-3.56043 -3.304432,-4.31966 -3.768633,-3.10997 -0.853845,2.22509 3.964858,10.0904 7.498429,12.23929 1.604642,0.97584 2.634978,2.05681 2.289638,2.40215 -1.115596,1.1156 -4.21729,-1.22837 -7.753055,-5.85902 -3.083707,-4.03861 -3.521297,-4.30346 -4.099636,-2.48127 -0.644312,2.03004 1.425913,5.86492 5.821982,10.78461 1.103851,1.23533 1.744183,2.50887 1.42296,2.8301 -0.321223,0.32122 -2.493253,-1.81451 -4.826734,-4.74606 -4.089458,-5.13759 -4.220106,-5.21376 -3.617344,-2.10898 C 19.029045,248.4089 23.538017,256 25.012545,256 25.555645,256 26,256.45 26,257 c 0,3.42183 -5.561822,-1.99151 -7.613728,-7.41047 -0.682424,-1.80224 -0.770048,-1.78438 -1.546762,0.31528 -0.942355,2.54743 0.930288,6.87117 4.359733,10.06619 1.87153,1.74359 1.935615,2.029 0.455593,2.029 -0.947258,0 -2.662896,-1.59421 -3.81253,-3.5427 -1.149633,-1.94848 -2.341276,-3.29166 -2.648094,-2.98485 -0.306818,0.30682 0.899536,2.62547 2.680788,5.15255 3.965155,5.62541 3.525961,6.73464 -0.741919,1.87379 C 15.409886,260.53618 14,259.41052 14,259.99732 c 0,2.43349 2.946514,7.85181 5.084034,9.34899 1.262416,0.88423 1.97821,1.92478 1.590653,2.31234 -0.387556,0.38755 -2.272907,-0.81537 -4.189667,-2.67317 C 13.725088,266.31045 13,265.98046 13,267.39946 c 0,1.94277 3.373404,7.33827 5.846192,9.35054 1.374623,1.11862 1.367092,1.25 -0.07166,1.25 -0.884248,0 -2.531,-1.2375 -3.659449,-2.75 -1.475127,-1.97716 -2.06063,-2.28792 -2.083407,-1.10576 -0.01742,0.90434 1.274408,3.04242 2.870737,4.7513 3.241204,3.46972 2.614013,5.16589 -0.750973,2.03092 -3.151698,-2.93625 -2.808224,0.0728 0.40394,3.5388 2.777041,2.99648 2.58495,4.66622 -0.281218,2.44447 -1.385203,-1.07375 -1.335692,-0.84858 0.225834,1.02707 1.749388,2.1013 1.780714,2.32236 0.25,1.76415 -2.227258,-0.81222 -2.278452,1.05764 -0.09501,3.47031 2.200978,2.43205 2.534732,2.39127 14.498232,-1.7714 z m 4.749694,-61.73854 c -2.240733,-1.65217 -7.090812,-9.59763 -6.655595,-10.90328 0.200783,-0.60235 1.584087,0.98493 3.074007,3.52729 1.48992,2.54236 3.635185,5.27123 4.767254,6.06416 1.132069,0.79293 1.682795,1.67377 1.223835,1.95743 -0.458959,0.28365 -1.543235,-0.007 -2.409501,-0.6456 z m 10.68598,-20.73805 C 44.165002,207.23108 43,205.47922 43,205.03026 c 0,-0.44895 -0.698372,-1.08427 -1.551938,-1.41182 -1.767964,-0.67843 -1.387197,0.15311 2.349771,5.13156 1.34175,1.7875 2.876137,3.25 3.40975,3.25 0.533612,0 -0.194798,-1.38453 -1.618689,-3.07673 z M 98.520404,188.75 c 2.884426,-4.39986 11.528876,-15.1114 21.991366,-27.25 3.31839,-3.85 10.71712,-13.01898 16.44161,-20.37551 5.7245,-7.35653 14.71433,-18.11455 19.9774,-23.9067 C 170.22785,102.584 192.27524,76.587011 199.74336,66.735706 203.17721,62.206068 209.57349,54 213.95732,48.5 c 20.06402,-25.172531 21.93653,-27.829824 20.93265,-29.705597 -1.36432,-2.549259 -5.60723,-5.116878 -7.35022,-4.448028 -0.81164,0.311452 -1.74167,0.13593 -2.06674,-0.390049 C 225.14793,13.430347 224.36852,13 223.74098,13 c -0.82185,0 -0.80535,0.335633 0.059,1.2 1.88174,1.881744 1.40892,3.001084 -0.95127,2.251988 -1.68278,-0.534092 -2.02148,-0.34456 -1.5553,0.870307 0.4116,1.072613 -0.083,1.650714 -1.59872,1.868635 -1.64259,0.236159 -2.12988,0.908416 -1.93702,2.672245 0.18145,1.659465 -0.15231,2.199371 -1.12815,1.82491 -1.81901,-0.698023 -3.62349,1.164111 -2.91562,3.008786 0.38669,1.007693 -0.0205,1.353527 -1.32814,1.128145 -1.40202,-0.241639 -1.86541,0.252181 -1.80638,1.924984 0.0535,1.515959 -0.49817,2.25 -1.69098,2.25 -2.11242,0 -3.33904,1.603468 -1.90473,2.489919 1.58782,0.981325 1.19159,2.514574 -0.48369,1.871707 -0.825,-0.316582 -2.25025,-0.287706 -3.16722,0.06417 -1.27071,0.487617 -1.38962,0.917365 -0.5,1.806989 1.8605,1.8605 1.35755,2.949208 -1.08278,2.343836 -1.2375,-0.306987 -1.6875,-0.299811 -1,0.01595 C 202.8858,41.5735 202.12428,43 199.46482,43 c -2.26001,0 -2.41403,0.226381 -1.41898,2.085646 1.28123,2.394015 0.47199,3.832182 -1.20994,2.150257 -1.45369,-1.453691 -5.10832,2.8906 -4.26986,5.075611 0.38626,1.006566 -0.018,1.440455 -1.24729,1.338833 -1.35011,-0.111607 -1.75235,0.457737 -1.56106,2.209593 0.18542,1.698107 -0.14463,2.205555 -1.17689,1.809441 -0.78901,-0.302775 -1.93626,0.05399 -2.54942,0.792814 -0.83168,1.002112 -0.78675,1.464737 0.17688,1.821362 0.76572,0.283378 0.17188,0.923729 -1.45826,1.572495 -1.5125,0.601945 -2.75,1.357142 -2.75,1.678214 0,0.321072 0.45,0.305653 1,-0.03427 0.55,-0.339919 1,0.131669 1,1.047972 0,1.127743 -0.52558,1.464322 -1.62675,1.041764 -1.84404,-0.707626 -4.64223,1.166034 -3.79314,2.539883 0.30695,0.496653 1.03537,0.608026 1.61872,0.247497 0.61032,-0.3772 0.86192,-0.0657 0.59258,0.733688 -0.25742,0.764058 -1.5015,1.389196 -2.76462,1.389196 -1.26311,0 -2.79837,0.9 -3.41168,2 -0.61331,1.1 -1.68707,2.365157 -2.38614,2.81146 -0.69907,0.446304 -1.02397,1.211226 -0.72199,1.699827 C 171.80895,77.499889 171.13081,78.394809 170,79 c -1.13081,0.605191 -1.79186,1.527769 -1.46899,2.050173 C 168.85387,81.572578 168.63034,82 168.03427,82 c -0.59608,0 -1.52179,1.152078 -2.05715,2.560174 -0.53536,1.408096 -1.37706,2.310681 -1.87046,2.005744 -0.4934,-0.304937 -1.18448,0.194507 -1.53574,1.109876 -0.35126,0.915369 -0.0609,2.030893 0.64521,2.478944 0.99951,0.634205 1.00701,0.818028 0.0339,0.829949 -2.39629,0.02936 -2.7607,0.167517 -4.43256,1.680528 -0.92541,0.837484 -1.46246,2.096277 -1.19344,2.797319 0.27315,0.711839 -0.45168,1.520648 -1.64165,1.831832 -1.17193,0.306465 -2.36672,1.459476 -2.6551,2.562247 -0.28839,1.102767 -1.1474,2.244127 -1.90893,2.536357 -0.76153,0.29223 -1.13278,1.18755 -0.82501,1.98961 0.3754,0.97826 -0.2062,1.56676 -1.76686,1.78785 -1.54934,0.21948 -2.32689,0.99763 -2.32777,2.32957 -7.2e-4,1.1 -0.67572,2.01086 -1.5,2.02412 -0.82427,0.0133 -1.43618,0.80077 -1.35979,1.75 0.0857,1.06493 -0.57247,1.72588 -1.71862,1.72588 -1.24027,0 -1.66623,0.49844 -1.2819,1.5 0.34878,0.90891 0.003,1.5 -0.87639,1.5 -0.7986,0 -2.29136,0.92747 -3.31723,2.06105 -1.48127,1.63678 -1.59412,2.2286 -0.54822,2.875 0.92356,0.57079 0.98636,1.01829 0.21023,1.49797 -0.60872,0.37621 -1.50577,0.43741 -1.99345,0.13601 -0.48768,-0.30141 -1.44278,0.12204 -2.12245,0.94098 -0.85785,1.03365 -0.8925,1.48899 -0.1133,1.48899 0.61734,0 1.12244,0.45 1.12244,1 0,0.55 -1.05,1 -2.33333,1 -3.00972,0 -3.93579,0.9708 -2.53555,2.65799 0.61257,0.73811 0.72117,1.39392 0.24132,1.45736 -0.47984,0.0634 -1.54744,0.17594 -2.37244,0.25 -0.88501,0.0794 -1.51659,1.15963 -1.54047,2.63465 -0.0302,1.86575 -0.50632,2.41807 -1.87671,2.17706 -1.52805,-0.26873 -1.7245,0.12231 -1.17046,2.3298 0.57884,2.30627 0.41048,2.57169 -1.28912,2.03225 -1.10091,-0.34941 -2.28746,-0.0824 -2.71613,0.6112 -0.42288,0.68422 -0.23805,1.40604 0.41584,1.62401 1.94243,0.64747 1.32781,2.22568 -0.86679,2.22568 -1.39178,0 -1.95009,0.55831 -1.75,1.75 0.20491,1.22038 -0.26232,1.65498 -1.54385,1.43603 -1.44871,-0.24752 -1.69903,0.1229 -1.18261,1.75 C 113.0019,152.58134 112.70176,153 111,153 c -1.70176,0 -2.0019,0.41866 -1.4797,2.06397 0.51642,1.6271 0.2661,1.99752 -1.18261,1.75 -1.23504,-0.21101 -1.75043,0.22029 -1.5716,1.31519 0.15777,0.96599 -0.62153,1.86128 -1.91445,2.19939 -1.79156,0.4685 -1.9624,0.83306 -0.95772,2.04363 1.01148,1.21876 0.82385,1.52997 -1.08555,1.80062 -1.47857,0.20958 -2.21272,0.91284 -2.04228,1.95636 0.15672,0.95955 -0.61594,1.85982 -1.879883,2.19035 -1.461207,0.38211 -1.950358,1.07093 -1.532946,2.15869 0.383301,0.99887 -0.03645,1.83704 -1.12012,2.23671 -2.420703,0.89279 -3.352482,2.58644 -1.930355,3.50872 0.815115,0.52862 0.501195,0.96744 -0.983589,1.37493 -1.33991,0.36773 -1.973437,1.1389 -1.643012,1.99998 C 92.009229,180.46643 91.557761,181 90.490357,181 c -1.205396,0 -1.573153,0.57539 -1.223163,1.91375 0.349554,1.33669 -0.121137,2.0763 -1.561004,2.45283 -1.786404,0.46716 -1.403977,1.00422 2.866175,4.02509 2.710199,1.91731 4.980336,3.51353 5.044749,3.54717 0.06441,0.0336 1.370893,-1.85134 2.90329,-4.18884 z m 39.022306,-68.6809 c -0.68308,-1.10523 0.8944,-2.29865 1.81781,-1.37525 0.95079,0.95079 0.77359,2.30615 -0.3015,2.30615 -0.51754,0 -1.19988,-0.41891 -1.51631,-0.9309 z"
     id="path5769"
     inkscape:connector-curvature="0" />
</svg>
