<?xml version="1.0" encoding="UTF-8" standalone="no"?>
<!-- Created with Inkscape (http://www.inkscape.org/) -->

<svg
   xmlns:dc="http://purl.org/dc/elements/1.1/"
   xmlns:cc="http://creativecommons.org/ns#"
   xmlns:rdf="http://www.w3.org/1999/02/22-rdf-syntax-ns#"
   xmlns:svg="http://www.w3.org/2000/svg"
   xmlns="http://www.w3.org/2000/svg"
   xmlns:sodipodi="http://sodipodi.sourceforge.net/DTD/sodipodi-0.dtd"
   xmlns:inkscape="http://www.inkscape.org/namespaces/inkscape"
   id="svg13657"
   version="1.1"
   inkscape:version="0.48.4 r9939"
   width="305"
   height="333"
   sodipodi:docname="Telescope.png">
  <metadata
     id="metadata13663">
    <rdf:RDF>
      <cc:Work
         rdf:about="">
        <dc:format>image/svg+xml</dc:format>
        <dc:type
           rdf:resource="http://purl.org/dc/dcmitype/StillImage" />
        <dc:title></dc:title>
      </cc:Work>
    </rdf:RDF>
  </metadata>
  <defs
     id="defs13661">
    <filter
       inkscape:collect="always"
       id="filter14183"
       x="-0.1592417"
       width="1.3184834"
       y="-0.13800948"
       height="1.276019">
      <feGaussianBlur
         inkscape:collect="always"
         stdDeviation="1.7212191"
         id="feGaussianBlur14185" />
    </filter>
    <filter
       inkscape:collect="always"
       id="filter14193"
       x="-0.12238551"
       width="1.244771"
       y="-0.11309041"
       height="1.2261808">
      <feGaussianBlur
         inkscape:collect="always"
         stdDeviation="1.8570725"
         id="feGaussianBlur14195" />
    </filter>
    <filter
       inkscape:collect="always"
       id="filter14203"
       x="-0.28364924"
       width="1.5672985"
       y="-0.27386833"
       height="1.5477367">
      <feGaussianBlur
         inkscape:collect="always"
         stdDeviation="1.6508811"
         id="feGaussianBlur14205" />
    </filter>
    <filter
       inkscape:collect="always"
       id="filter14221"
       x="-0.15149211"
       width="1.3029842"
       y="-0.12419624"
       height="1.2483925">
      <feGaussianBlur
         inkscape:collect="always"
         stdDeviation="2.8655461"
         id="feGaussianBlur14223" />
    </filter>
    <filter
       inkscape:collect="always"
       id="filter14231"
       x="-0.22643487"
       width="1.4528697"
       y="-0.26581508"
       height="1.5316302">
      <feGaussianBlur
         inkscape:collect="always"
         stdDeviation="1.2708176"
         id="feGaussianBlur14233" />
    </filter>
    <filter
       inkscape:collect="always"
       id="filter14237"
       x="-0.1712328"
       width="1.3424656"
       y="-0.14882013"
       height="1.2976403">
      <feGaussianBlur
         inkscape:collect="always"
         stdDeviation="5.9084157"
         id="feGaussianBlur14239" />
    </filter>
    <filter
       inkscape:collect="always"
       id="filter14255"
       x="-0.28132695"
       width="1.5626539"
       y="-0.32460818"
       height="1.6492164">
      <feGaussianBlur
         inkscape:collect="always"
         stdDeviation="2.6314795"
         id="feGaussianBlur14257" />
    </filter>
    <filter
       inkscape:collect="always"
       id="filter14285">
      <feGaussianBlur
         inkscape:collect="always"
         stdDeviation="4.5277592"
         id="feGaussianBlur14287" />
    </filter>
  </defs>
  <sodipodi:namedview
     pagecolor="#ffffff"
     bordercolor="#666666"
     borderopacity="1"
     objecttolerance="10"
     gridtolerance="10"
     guidetolerance="10"
     inkscape:pageopacity="0"
     inkscape:pageshadow="2"
     inkscape:window-width="1263"
     inkscape:window-height="736"
     id="namedview13659"
     showgrid="false"
     inkscape:zoom="0.70870871"
     inkscape:cx="209.02868"
     inkscape:cy="62.886969"
     inkscape:window-x="1"
     inkscape:window-y="22"
     inkscape:window-maximized="0"
     inkscape:current-layer="svg13657" />
  <path
     style="fill:#c49917;fill-opacity:0.71782179;stroke:none"
     d="M 53.877941,85.560566 33.673713,75.333734 c -1.33032,-4.157248 -1.33032,-10.309976 0,-18.458183 L 53.628506,31.682624 c 18.173056,-11.324261 25.617495,-7.62846 34.172584,-5.487568 13.67912,3.988084 8.318712,16.543952 9.977396,25.941231 l 23.197444,26.190666 14.9661,7.732483 c 1.25427,3.558684 3.54447,4.700196 2.99322,12.471745 l 30.68049,34.920889 15.96384,4.9887 c 4.10512,5.07184 5.61424,10.14369 5.737,15.21553 l 70.34064,64.3542 c 13.25535,1.12873 19.63225,9.13592 26.44011,16.71214 13.46001,17.35084 8.7139,29.49992 9.22909,43.15224 -6.11617,12.54823 -11.14897,25.47883 -28.18615,34.17259 -19.18494,15.02346 -32.57961,11.95234 -46.64433,10.97513 -19.76169,-10.04274 -18.07425,-23.98532 -24.69405,-36.41749 -14.87147,-33.45837 -39.43626,-61.53157 -59.61495,-92.04149 -4.9887,-0.69059 -9.97739,-1.71853 -14.96609,-6.98417 -1.92138,-5.24245 -0.25995,-9.58553 0.24943,-14.2178 L 91.542613,127.9645 c 0.916324,4.24255 -4.038916,1.14565 -8.231352,-0.99774 l -1.995479,-12.72118 z"
     id="path14179"
     inkscape:connector-curvature="0"
     sodipodi:nodetypes="ccccccccccccccccccccccccc" />
  <path
     style="fill:#000000;fill-opacity:0.85643568;stroke:none"
     d="m 242.94961,239.71134 c 16.01401,-5.52986 28.38402,-1.94974 36.41749,12.47175 6.37451,15.32916 5.63047,30.48036 -14.46722,45.14772 -14.16097,8.11066 -38.32985,24.78916 -47.64207,-10.72571 -2.02937,-22.47439 15.79824,-39.2908 25.6918,-46.89376 z"
     id="path13669"
     inkscape:connector-curvature="0"
     sodipodi:nodetypes="ccccc" />
  <path
     style="fill:#ffffff;stroke:none;stroke-width:1px;stroke-linecap:butt;stroke-linejoin:miter;stroke-opacity:1;fill-opacity:0.73762375000000002;filter:url(#filter14183)"
     d="M 49.388113,39.165672 60.363249,28.689406 75.329344,51.138548 64.853078,58.621595 z"
     id="path14181"
     inkscape:connector-curvature="0" />
  <path
     style="fill:#ffffff;stroke:none;stroke-width:1px;stroke-linecap:butt;stroke-linejoin:miter;stroke-opacity:1;fill-opacity:0.73762375000000002;filter:url(#filter14193)"
     d="m 67.846296,61.115944 5.986438,-5.487568 24.943492,34.920888 -5.986438,4.489829 -30.43106,-29.43332 z"
     id="path14187"
     inkscape:connector-curvature="0" />
  <path
     style="fill:#ffffff;stroke:none;stroke-width:1px;stroke-linecap:butt;stroke-linejoin:miter;stroke-opacity:1;fill-opacity:0.73762375000000002;filter:url(#filter14203)"
     d="m 101.27057,90.549264 9.47853,-5.487568 4.48983,6.984178 -11.47401,7.483047 z"
     id="path14197"
     inkscape:connector-curvature="0" />
  <path
     style="fill:#ffffff;stroke:none;stroke-width:1px;stroke-linecap:butt;stroke-linejoin:miter;stroke-opacity:1;fill-opacity:0.73762375000000002;filter:url(#filter14221)"
     d="m 99.773965,106.5131 7.483045,-7.981919 37.91411,45.397159 -6.98418,9.97739 z"
     id="path14207"
     inkscape:connector-curvature="0" />
  <path
     style="fill:#ffffff;stroke:none;stroke-width:1px;stroke-linecap:butt;stroke-linejoin:miter;stroke-opacity:1;fill-opacity:0.73762375000000002;filter:url(#filter14231)"
     d="m 142.67677,151.91025 2.49435,3.49209 10.97514,-6.98418 -5.48757,-4.48982 z"
     id="path14225"
     inkscape:connector-curvature="0" />
  <path
     style="fill:#ffffff;stroke:none;stroke-width:1px;stroke-linecap:butt;stroke-linejoin:miter;stroke-opacity:1;fill-opacity:0.73762375000000002;filter:url(#filter14237)"
     d="m 139.68355,167.87409 6.98418,-10.47627 75.82821,80.31804 -12.47174,14.9661 z"
     id="path14235"
     inkscape:connector-curvature="0" />
  <path
     style="fill:#ffffff;stroke:none;stroke-width:1px;stroke-linecap:butt;stroke-linejoin:miter;stroke-opacity:1;fill-opacity:0.73762375000000002;filter:url(#filter14255)"
     d="m 219.00385,245.69778 9.9774,4.9887 12.47175,-11.97288 -11.97288,-7.48304 z"
     id="path14241"
     inkscape:connector-curvature="0" />
  <path
     style="fill:#121212;fill-opacity:0.75247525999999998;stroke:none;filter:url(#filter14285)"
     d="m 84.309001,26.195056 c 3.89192,7.356741 0.820906,14.017188 0.49887,20.952533 4.251715,1.673791 -2.557645,0.647885 1.874433,2.640465 13.929416,9.257901 20.900136,20.504003 28.465846,31.580107 l 2.61539,0.876693 c 5.8779,2.655389 4.9574,5.704335 5.95618,8.80328 l 2.605,0.73577 c 8.55559,7.458678 29.78754,35.172166 36.30684,45.160256 l -7.48304,4.9887 c 1.07999,0.93143 5.00703,1.32474 2.99322,4.98869 l 11.97287,-2.49434 c 26.10752,24.7772 61.43651,47.38464 78.32256,74.3316 l -9.97739,7.48305 c 8.04246,0.72877 11.00934,3.98419 11.64519,10.36041 l 16.79039,1.61246 c 11.96462,7.31676 11.33729,14.63352 15.58081,21.95028 1.79857,7.1 0.14458,19.24678 -3.99615,24.07199 10.40342,-2.02609 11.61311,0.49477 12.36109,5.36133 7.96341,-5.95287 8.83516,-16.4186 6.48531,-28.93445 1.85347,-11.80659 -6.29757,-23.61317 -19.45593,-35.41976 l -15.96383,-7.48305 -71.69114,-64.58592 c 1.67825,-3.6012 -2.73378,-9.81252 -4.13707,-14.73438 l -16.81546,-4.57542 c -9.67353,-12.27551 -21.75898,-19.98766 -30.68784,-36.674278 1.58828,-2.676282 -0.28041,-5.717067 -2.88256,-11.186968 -2.91732,-2.786712 -7.23127,-5.107879 -12.97061,-6.953915 -8.3494,-9.365464 -17.86152,-15.242777 -24.943494,-28.410511 l -0.49887,-17.959314 c -4.323538,-4.423877 -8.647077,-7.2187 -12.970615,-6.485308 z"
     id="path14259"
     inkscape:connector-curvature="0"
     sodipodi:nodetypes="cccccccccccccccccccccccccccccc" />
  <path
     style="fill:#000000"
     d="M 223.74969,324.90583 C 216.6153,322.98981 209.56044,317.30599 205.24833,310 202.55296,305.43325 199.53004,294.43184 199,290.71882 c -0.44233,-3.09857 -2.3021,-5.66182 -3.37954,-7.58484 -1.54189,-2.75197 -4.95966,-7.78398 -6.89091,-11.63398 -1.93126,-3.85 -6.06005,-10.54911 -9.1751,-14.88692 -5.01813,-6.9879 -9.78117,-14.16444 -16.99931,-25.61308 -7.97672,-12.65184 -10.65023,-16.57831 -17.44756,-25.62454 -7.18402,-9.56084 -7.83912,-10.15195 -11.76624,-10.61687 -4.96937,-0.5883 -10.09655,-3.9918 -11.48833,-7.62613 -0.55716,-1.45489 -0.71423,-5.0077 -0.35113,-7.9423 l 0.65699,-5.30985 -8.94151,-13.19015 C 97.366236,137.3072 93.867426,132.4951 92.906819,132.75596 c -1.600374,0.43459 -7.308918,-2.36999 -9.241565,-4.54033 -1.00911,-1.13322 -2.078369,-4.00783 -2.376131,-6.38801 -0.416675,-3.33074 -2.137052,-6.46892 -7.468426,-13.62334 C 62.598586,93.144805 55.935936,87.092642 46.119275,83.041092 41.509877,81.138693 36.704953,78.769156 35.441667,77.775455 29.661439,73.228727 29.820449,61.138818 35.793267,51.04234 41.956198,40.624497 51.73183,30.917431 60.581683,26.427792 c 6.979295,-3.540683 8.440919,-3.915958 14.830335,-3.807718 9.501765,0.160965 15.311923,1.903867 19.153685,5.745629 3.04299,3.04299 3.220112,3.658245 3.932611,13.660403 0.734227,10.307169 0.810578,10.553485 4.796516,15.473894 2.22772,2.75 7.66136,8.698496 12.07475,13.218881 6.65087,6.812107 8.95263,8.51086 13.44769,9.924729 7.33374,2.306746 11.63201,7.849007 10.81408,13.943874 -0.50652,3.774342 -0.23815,4.387221 3.50296,7.999996 2.22832,2.15189 7.4482,7.96252 11.59973,12.91252 14.01892,16.7152 15.47173,18.04334 19.93157,18.22119 5.93362,0.23662 12.17902,3.07768 13.8442,6.29779 1.67857,3.246 3.20068,11.87993 1.87935,10.6603 -0.48904,-0.45139 -1.60195,-2.92324 -2.47314,-5.49299 -2.10602,-6.21217 -6.04316,-8.56309 -14.32945,-8.5563 -5.29057,0.004 -7.27423,0.61921 -15.16798,4.70166 -5.36771,2.77605 -11.50173,6.96983 -15,10.25538 -3.25523,3.05728 -4.90609,5.06007 -3.66859,4.45065 2.46523,-1.21404 2.96493,-0.23577 1,1.95772 -0.6875,0.76747 1.33855,-0.91035 4.50234,-3.72848 7.59048,-6.76121 15.55192,-10.52324 23.41592,-11.06476 10.23953,-0.70509 11.40526,0.0577 48.5591,31.77453 6.74995,5.76218 15.43861,13.41218 19.30814,17 3.86952,3.58782 9.26952,8.58055 12,11.09495 2.73047,2.51441 7.05238,6.89601 9.60423,9.73691 3.94527,4.39214 5.44203,5.33323 10,6.28747 7.113,1.48914 10.64595,3.77213 17.62658,11.39026 9.99701,10.90997 13.19025,20.32237 13.40539,39.51372 0.0935,8.34359 -1.87838,13.94778 -8.61102,24.47259 -4.76713,7.45224 -8.97275,11.33841 -20.70339,19.13082 -13.51291,8.97634 -20.22933,11.32066 -33.36673,11.64644 -5.77015,0.14309 -11.50354,-0.0117 -12.74087,-0.34402 z m 28.01857,-3.91565 c 16.69357,-5.86732 33.85643,-20.52602 41.18987,-35.18004 l 4.34875,-8.68987 -0.66807,-11.82119 c -0.79513,-14.0694 -1.7858,-18.0824 -6.11309,-24.76288 -4.60122,-7.10336 -14.01524,-16.19713 -18.35421,-17.72982 -2.11062,-0.74556 -8.13544,-1.29894 -14.17151,-1.30165 -9.65615,-0.004 -10.96919,0.233 -16.33814,2.95338 -17.15848,7.41005 -24.54161,18.27431 -35.10097,30.58474 -2.92136,3.06918 -6.92785,14.21931 -6.56699,23.02615 0.39297,9.59028 1.9969,20.01209 6.19559,28.431 3.66931,7.37027 6.95502,10.97272 12.81051,14.04546 3.93496,2.06491 5.91573,2.36726 15.77498,2.40798 8.81836,0.0364 12.5209,-0.39135 16.99328,-1.96326 z m -20.14837,-12.22364 c -4.61062,-1.22007 -11.15082,-7.40419 -13.32993,-12.60419 -0.84412,-2.01429 -1.77123,-7.42498 -2.06026,-12.02375 -0.39102,-6.22143 -0.77802,-7.91019 -1.51212,-6.59843 -1.85465,3.31408 -3.81363,12.58186 -3.12086,14.76457 0.59159,1.86393 0.47223,1.99737 -0.82423,0.92141 -0.83379,-0.69199 -1.75302,-3.3611 -2.04273,-5.93135 -0.2897,-2.57024 -1.14306,-5.15054 -1.89636,-5.73399 -2.19456,-1.69975 -2.04355,-10.45694 0.23552,-13.65759 C 208.13101,266.41164 209,264.69823 209,264.09563 209,263.49303 209.41968,263 209.93261,263 c 0.51294,0 1.18686,-0.7875 1.4976,-1.75 0.31074,-0.9625 2.25216,-3.55 4.31427,-5.75 2.06211,-2.2 4.90946,-5.4253 6.32743,-7.16733 1.41798,-1.74203 4.11938,-4.42619 6.00312,-5.9648 2.43898,-1.99213 2.87655,-2.15987 1.51998,-0.58267 -1.04774,1.21814 -1.44034,2.2148 -0.87244,2.2148 0.5679,0 1.59274,-0.675 2.27743,-1.5 0.68469,-0.825 1.65252,-1.5 2.15073,-1.5 0.91331,0 -0.78384,2.0086 -10.0717,11.92001 -5.27679,5.63104 -6.52361,7.99909 -3.07903,5.84792 1.1,-0.68696 2,-1.78922 2,-2.44946 0,-0.66024 0.51563,-1.51911 1.14584,-1.90861 0.80641,-0.49838 0.94888,0.0766 0.48095,1.94099 -0.94691,3.77279 -0.19477,3.29405 2.7683,-1.76205 2.94903,-5.03213 12.28564,-13.73488 17.27563,-16.10279 11.21224,-5.32056 27.13564,-2.26904 32.79645,6.28502 6.90284,10.43089 9.09311,27.29009 4.67141,35.95734 -2.92223,5.72804 -13.04023,16.34811 -19.93601,20.92527 -10.80176,7.1698 -20.52912,9.50866 -29.58268,7.1129 z M 254.5,302.97507 c 9.78712,-4.83763 23.55769,-18.61486 25.58401,-25.59639 1.88714,-6.502 1.49873,-14.55538 -1.05513,-21.87741 -2.85823,-8.19466 -6.15326,-12.85788 -10.56446,-14.95113 -4.95291,-2.35031 -14.36724,-3.11725 -19.7534,-1.60922 -12.64848,3.54135 -29.46967,25.57441 -30.51051,39.96385 -0.6522,9.01656 1.34938,16.59063 5.64076,21.34488 5.03015,5.57268 8.27434,6.8348 16.65873,6.48089 5.59281,-0.23608 8.40719,-0.99103 14,-3.75547 z M 217.3897,271.5 c 0.49007,-2.19092 0.3973,-2.59546 -0.34401,-1.5 -0.55829,0.825 -1.02196,2.3625 -1.03038,3.41667 -0.0204,2.55844 0.55192,1.76026 1.37439,-1.91667 z m 9.73786,-26.25 c 1.24387,-1.58606 1.2085,-1.62143 -0.37756,-0.37756 -0.9625,0.75485 -1.75,1.54235 -1.75,1.75 0,0.82304 0.82119,0.29331 2.12756,-1.37244 z m -29.24409,26 c 0.11231,-0.6875 -0.4519,-1.25 -1.2538,-1.25 -1.11649,0 -1.34785,-0.95888 -0.9877,-4.09371 0.28158,-2.45099 0.0885,-3.85777 -0.48105,-3.50575 -1.32863,0.82114 -2.02617,-1.50223 -1.17105,-3.90054 0.3922,-1.1 0.2651,-2.71797 -0.28244,-3.59548 C 191.98661,252.14665 200.00182,237 203.18203,237 c 0.45838,0 -0.91637,2.5875 -3.05499,5.75 -4.14896,6.13529 -5.87459,10.25 -4.29867,10.25 0.52972,0 2.38476,-2.21541 4.12231,-4.92314 3.21426,-5.009 6.04932,-8.03001 6.04932,-6.44611 0,0.48161 -1.61205,3.12421 -3.58233,5.87245 -4.40206,6.1402 -7.7514,12.4964 -6.98743,13.26037 0.31337,0.31337 0.68788,0.38226 0.83226,0.1531 3.74638,-5.94675 12.15761,-18.05828 12.82953,-18.47355 0.49938,-0.30863 1.35977,-0.28193 1.91196,0.0593 -1.57346,10.80421 -8.88648,18.49207 -12.67105,25.15499 6.26211,-23.53702 25.19062,-35.3326 38.16706,-43.05854 5.79534,-3.41858 13.01306,-6.37286 19,-6.80812 l 4,-0.2908 -13,-12.86693 c -7.15,-7.07682 -17.01502,-16.30182 -21.92226,-20.5 C 219.6705,179.93488 212.10121,173.35 207.75709,169.5 195.88558,158.97882 186.0719,151.37193 180.56371,148.42155 c -9.22982,-4.9438 -20.32894,-3.03257 -31.40362,5.40759 -3.81556,2.90789 -12.04287,14.44684 -9.64441,13.52647 0.85734,-0.32899 2.4258,0.18644 3.48546,1.14542 1.89251,1.7127 1.87329,1.82114 -1.08529,6.12128 -1.65656,2.40773 -3.46687,4.37769 -4.02291,4.37769 -0.55603,0 -0.78179,-0.37083 -0.50168,-0.82406 0.28012,-0.45323 -0.48083,-0.79073 -1.69098,-0.75 -1.42513,0.048 -2.44823,0.91982 -2.90411,2.47478 -0.90609,3.09065 1.87669,7.8762 13.82945,23.78252 5.03528,6.70078 12.45315,17.50078 16.48415,24 7.03743,11.34651 8.81337,14.01679 18.73382,28.16784 2.44879,3.49309 6.33715,9.79309 8.6408,14 2.30364,4.2069 7.0795,12.69701 6.10202,10.87843 l -1.07963,-2.00862 c 2.00981,-16.89464 1.97106,-4.00429 2.37669,-7.47089 z m -8.42557,-19.6227 c -0.36908,-1.96739 -0.17107,-5.01135 0.44003,-6.76434 1.48765,-4.26749 0.67176,-4.8551 -0.92196,-0.66401 -0.88636,2.3309 -1.37893,2.80647 -1.67602,1.61818 -0.82342,-3.29347 6.29005,-14.09856 7.73864,-11.7547 0.36841,0.59611 -0.34223,3.63843 -1.57921,6.76071 -3.5968,9.0787 -3.78458,11.16575 -0.42081,4.67686 3.00198,-5.79097 5.93181,-9.86295 6.60915,-9.18562 0.2856,0.28561 -8.29705,17.61442 -9.18144,18.5378 -0.18552,0.1937 -0.63929,-1.25749 -1.00838,-3.22488 z m -5.96757,-7.82941 c -0.36716,-0.93617 -0.37612,-2.17367 -0.0199,-2.75 0.3562,-0.57634 0.11862,-1.04789 -0.52796,-1.04789 -0.7109,0 -0.98897,-0.97625 -0.70347,-2.46974 0.25966,-1.35835 0.0837,-2.22966 -0.3911,-1.93624 -0.47477,0.29342 -1.57092,-0.17421 -2.4359,-1.03919 -1.43025,-1.43025 -1.40125,-2.08699 0.32017,-7.25126 1.04107,-3.12321 2.43081,-5.85789 3.0883,-6.07705 0.89125,-0.29708 0.93896,0.2761 0.1875,2.2526 -1.44268,3.79453 -1.26483,4.05081 0.95879,1.38166 2.36476,-2.83856 2.72803,-0.70011 0.53327,3.13922 -2.06586,3.61385 -1.81776,4.60299 0.46673,1.86078 1.84618,-2.21608 1.9666,-2.23819 1.96457,-0.36078 -0.001,1.1 -0.64528,3.125 -1.4313,4.5 -0.78602,1.375 -1.43767,3.175 -1.44811,4 -0.0104,0.825 0.98611,-0.26502 2.21456,-2.42226 1.22845,-2.15724 2.8047,-4.11012 3.50277,-4.33974 0.75751,-0.24916 0.39688,1.06103 -0.89445,3.24967 -1.19002,2.01694 -2.73815,5.31982 -3.44028,7.33975 -0.98172,2.82425 -1.4308,3.27941 -1.94416,1.97047 z m -6.45514,-18.92058 c 1.02915,-3.58846 3.6417,-7.87731 4.79844,-7.87731 0.95605,0 -4.04999,10.97087 -5.01382,10.98795 -0.37411,0.007 -0.27719,-1.39316 0.21538,-3.11064 z m -2.57145,-3.48409 c 0.4785,-3.19084 0.35972,-4.40214 -0.38645,-3.94099 C 173.48478,217.81842 173,218.99148 173,220.05902 173,221.12656 172.55,222 172,222 c -0.55,0 -1,-0.765 -1,-1.7 0,-1.32222 -0.26667,-1.43333 -1.2,-0.5 -1.83307,1.83307 -3.09375,1.4313 -2.51025,-0.8 0.28766,-1.1 0.11514,-2 -0.38337,-2 C 166.40787,217 166,216.33912 166,215.53138 c 0,-0.91485 -0.58371,-1.24462 -1.54804,-0.87457 -2.40449,0.92269 -3.96139,-2.18654 -4.23014,-8.44782 -0.18957,-4.41638 0.26702,-6.59705 2.01657,-9.63125 2.31149,-4.00876 5.8611,-6.64046 3.96079,-2.93655 -1.08902,2.12263 -3.19918,8.59631 -3.19918,9.81467 0,0.44762 0.9513,-0.39553 2.114,-1.87366 3.28635,-4.17791 3.18668,-2.49251 -0.22511,3.80669 -1.70689,3.15144 -2.86335,5.96998 -2.5699,6.26343 0.29344,0.29345 1.21205,-0.77855 2.04134,-2.38222 1.58577,-3.06655 4.64433,-6.13135 4.63308,-4.64254 -0.004,0.47984 -0.90066,2.22244 -1.99341,3.87244 -2.21274,3.34113 -2.4755,4.5 -1.02032,4.5 0.53882,0 1.89796,-1.8 3.02032,-4 1.12236,-2.2 2.4815,-4 3.02032,-4 1.43898,0 1.24717,0.61601 -1.59251,5.11435 -3.33103,5.2767 -2.56631,5.94636 1.50076,1.31422 4.08518,-4.65276 5.24139,-3.67973 1.53786,1.29421 l -2.81246,3.77722 2.67301,-2.42431 c 1.47016,-1.33338 2.67302,-1.91 2.67302,-1.28139 0,0.62861 0.675,0.88391 1.5,0.56733 0.825,-0.31659 1.5,-0.28801 1.5,0.0635 0,0.35151 -0.675,2.25461 -1.5,4.22911 -0.825,1.97451 -1.5,4.66005 -1.5,5.96788 0,1.30784 -0.50109,2.37788 -1.11354,2.37788 -0.75689,0 -0.89228,-1.47551 -0.42272,-4.60678 z m -18.45341,-17.47655 c 0.0159,-2.17622 4.33266,-10.21979 5.72805,-10.6732 0.68111,-0.22132 -0.13891,2.21589 -1.82227,5.41601 -3.49816,6.65011 -3.92008,7.21801 -3.90578,5.25719 z M 153.52984,198.75 c 0.7827,-2.64975 5.45248,-10.10102 5.99217,-9.56132 0.5882,0.5882 -4.92945,11.69808 -5.8394,11.75773 -0.44956,0.0295 -0.51831,-0.95891 -0.15277,-2.19641 z m -2.88927,-2.79714 c -0.34282,-1.71412 -0.14074,-4.01829 0.44908,-5.12037 0.58981,-1.10208 0.81093,-2.26524 0.49137,-2.5848 C 151.26146,187.92813 151,188.10566 151,188.6422 c 0,0.53655 -0.62011,1.82359 -1.37801,2.86009 -1.23999,1.69578 -1.53206,1.7305 -2.9159,0.34666 -1.38383,-1.38384 -1.13269,-2.15444 2.50735,-7.69341 2.22487,-3.38555 4.44341,-6.15554 4.93008,-6.15554 0.86454,0 -3.09375,6.76372 -6.00213,10.25613 -0.80436,0.96587 -1.25228,1.96632 -0.99538,2.22321 0.25689,0.2569 2.13786,-1.77086 4.17993,-4.50613 C 153.368,183.23795 155.5498,181 156.17438,181 c 0.65757,0 0.43802,0.77081 -0.52157,1.83115 -0.91145,1.00713 -1.39801,2.09032 -1.08126,2.40707 0.31676,0.31676 -0.13226,1.94539 -0.99781,3.61919 -2.44466,4.72745 -1.86571,4.84572 1.43253,0.29263 1.65345,-2.28252 3.19511,-4.15004 3.42591,-4.15004 0.36477,0 -6.14511,13.02587 -6.88913,13.78472 -0.15354,0.1566 -0.55965,-1.11774 -0.90248,-2.83186 z m -6.62631,-12.51607 c 0.83169,-3.68762 5.76616,-11.9897 6.61923,-11.13663 0.26602,0.26602 -0.21558,2.21981 -1.07023,4.34175 -1.31428,3.26316 -1.32491,3.56094 -0.0689,1.93109 0.81674,-1.05985 1.74834,-1.66364 2.07023,-1.34176 0.8663,0.86631 -4.65959,8.82808 -5.68661,8.19334 C 145.39509,185.12614 145,185.35852 145,185.94098 145,186.52344 144.59739,187 144.10531,187 c -0.50922,0 -0.54845,-1.53519 -0.091,-3.56321 z m -2.80922,-2.68973 c -1.34298,-1.61819 0.33419,-4.82563 4.04496,-7.73565 3.38267,-2.65271 3.40656,-2.24058 0.23315,4.02183 -2.77757,5.48129 -2.79714,5.49827 -4.27811,3.71382 z m -7.89559,8.00294 c -3.6936,-5.78052 -3.45149,-10.00621 1.04162,-18.18043 1.9861,-3.61326 3.1696,-6.56957 2.63001,-6.56957 -0.53959,0 -0.99937,-1.2375 -1.02172,-2.75 l -0.0406,-2.75 -3.0073,3.5 c -1.65402,1.925 -4.60869,6.77382 -6.56593,10.77516 -3.48947,7.13376 -3.94929,11.42705 -1.58078,14.75931 1.71183,2.40838 6.68038,5.46553 8.88269,5.46553 l 2.37769,0 -2.71564,-4.25 z m -4.33986,-26.53473 c -0.0167,-0.3934 -0.48908,0.0722 -1.04969,1.03473 -0.5606,0.9625 -1.44692,1.75 -1.96959,1.75 -1.37323,0 -1.16808,-3.36962 0.29969,-4.92241 1.03158,-1.09133 0.85685,-1.12013 -1,-0.16481 -3.326,1.71117 -2.92971,-0.43016 1.21995,-6.59206 2.37732,-3.53012 4.03045,-5.0457 5.25,-4.81316 0.97903,0.18668 2.23005,0.38074 2.78005,0.43124 0.55,0.0505 0.325,0.52804 -0.5,1.0612 -1.22039,0.78868 -1.2381,0.97223 -0.095,0.98469 1.06353,0.0116 0.94375,0.56213 -0.49285,2.26531 -1.70923,2.02641 -1.62526,2.00908 0.84501,-0.17431 4.02589,-3.55835 3.34235,-1.29798 -1.00715,3.33055 -2.0625,2.19482 -0.15,0.81214 4.25,-3.07261 9.21588,-8.13669 17.70438,-13.80228 25.36758,-16.93143 l 5.36757,-2.19177 -3.90189,-4.35522 c -2.14604,-2.39536 -7.14921,-8.23566 -11.11814,-12.97844 -3.96894,-4.74278 -8.71734,-9.91778 -10.55201,-11.5 -1.83466,-1.58222 -4.917,-5.12677 -6.84964,-7.87677 l -3.51389,-5 -7.48968,0.04301 c -6.67757,0.03834 -8.02207,0.387279 -12.39978,3.218068 C 106.26565,99.734315 99,106.36916 99,108.00692 c 0,0.94737 0.37494,0.9268 1.59728,-0.0876 1.37467,-1.14088 1.56767,-1.05342 1.38484,0.62755 -0.50116,4.60784 -0.0804,5.57614 1.95073,4.48912 2.76672,-1.48071 3.63127,1.91311 1.57027,6.16408 -1.49468,3.08289 -0.78346,2.50389 2.28896,-1.8634 1.20309,-1.71013 1.26119,-1.68167 0.84362,0.41338 -0.24666,1.2375 0.0112,2.25 0.57293,2.25 0.56176,0 0.22497,1.2375 -0.74842,2.75 -1.75232,2.72283 -1.75021,2.73271 0.21373,1 1.09095,-0.9625 2.29621,-1.75 2.67835,-1.75 0.78358,0 0.25392,5.45652 -0.82508,8.5 -0.4514,1.27322 0.35566,0.76787 2.2209,-1.39066 2.54013,-2.93953 3.0202,-3.1555 3.60818,-1.62325 0.37302,0.97207 0.10795,2.47175 -0.58904,3.33262 -1.04966,1.29646 -1.02344,1.41823 0.15269,0.7092 1.09552,-0.66043 1.25704,-0.4315 0.70696,1.00198 -0.6829,1.77961 -0.62422,1.77766 1.39112,-0.0462 1.79746,-1.62669 2.23868,-1.69138 3.02772,-0.44394 0.508,0.80313 0.93053,2.2743 0.93895,3.26926 0.008,0.99496 0.46531,1.5309 1.01531,1.19098 0.55,-0.33992 1,-0.11115 1,0.50837 0,0.67133 0.80801,0.86995 2,0.49163 2.64475,-0.83941 2.5665,0.88623 -0.21974,4.84563 l -2.21973,3.15437 3.59631,-2.70675 c 4.16774,-3.13684 5.44097,-2.69789 3.10766,1.07137 -1.06954,1.72775 -1.15493,2.20488 -0.24795,1.38538 0.7609,-0.6875 1.97226,-1.25 2.69192,-1.25 1.04357,0 1.06379,0.39181 0.0999,1.93532 -0.66474,1.06442 -1.49957,1.7555 -1.85517,1.53572 -0.92697,-0.57289 -6.95315,5.52074 -6.95315,7.03099 0,0.69559 -0.94451,1.5117 -2.09891,1.81359 -1.69644,0.44362 -2.00196,0.17809 -1.59326,-1.38475 0.27811,-1.0635 0.0976,-1.68145 -0.40109,-1.37323 -1.43976,0.88982 -1.05391,-2.37236 0.67636,-5.71833 1.21549,-2.3505 1.27354,-2.95935 0.25,-2.62201 -0.73321,0.24164 -1.4769,1.41661 -1.65265,2.61103 -0.17575,1.19442 -1.00173,2.17167 -1.8355,2.17167 -1.205,0 -0.98638,-0.97429 1.06583,-4.75 2.38719,-4.39201 2.40964,-4.54274 0.29793,-2 -1.25611,1.5125 -2.60444,2.75 -2.99627,2.75 -1.80085,0 -0.40833,-5.01951 2.48335,-8.95159 1.76847,-2.40475 2.55006,-4.14097 1.75,-3.88742 -0.79518,0.252 -2.57079,2.56757 -3.94579,5.1457 -3.46291,6.49299 -6.32726,6.49904 -3.98345,0.008 l 1.01656,-2.8151 -1.99432,2.5 c -1.85055,2.31978 -2.16615,2.15802 -2.43879,-1.25 -0.13146,-1.64323 -1.91615,-3.65115 -2.7809,-3.12873 -1.34478,0.81242 -1.81402,-1.50443 -0.82928,-4.0945 1.37543,-3.61766 -0.42402,-2.30695 -1.97567,1.43906 -0.68544,1.65482 -1.64525,2.76216 -2.13291,2.46077 -0.50061,-0.30939 -0.43476,-1.39234 0.15124,-2.48729 0.74583,-1.39359 0.71608,-1.93931 -0.1057,-1.93931 -0.73038,0 -0.90928,-0.9336 -0.49511,-2.58379 0.35667,-1.42108 0.28799,-2.36099 -0.15262,-2.08867 -0.440607,0.27231 -1.619215,-0.10311 -2.619125,-0.83426 -1.453324,-1.0627 -1.601562,-1.73382 -0.738971,-3.34558 0.593475,-1.10892 1.061029,-2.3833 1.039008,-2.83196 -0.02202,-0.44866 -0.744229,0.48443 -1.604908,2.07353 -1.158706,2.13936 -1.777413,2.54537 -2.383747,1.5643 -0.675108,-1.09234 -1.095608,-1.0953 -2.395092,-0.0168 C 90.709297,121.65623 90,122.93979 90,123.78911 c 0,0.84932 0.264911,1.27931 0.58869,0.95553 0.32378,-0.32378 6.961933,8.93872 14.75145,20.58334 7.78952,11.64461 15.04965,22.33987 16.13363,23.76724 l 1.97087,2.59522 2.77768,-4.37995 c 1.52772,-2.40897 2.764,-4.70182 2.74727,-5.09522 z m 1.15797,-6.96527 c 1.24387,-1.58606 1.2085,-1.62143 -0.37756,-0.37756 -0.9625,0.75485 -1.75,1.54235 -1.75,1.75 0,0.82304 0.82119,0.29331 2.12756,-1.37244 z M 88.586774,123.74902 C 88.6345,120.86206 89.505066,116.7 90.521367,114.5 c 1.0163,-2.2 1.882964,-4.9 1.925919,-6 0.08619,-2.20722 -1.214518,-4.5 -2.552885,-4.5 -1.350646,0 -5.777021,9.41375 -6.473055,13.76651 -0.657521,4.11191 1.305156,9.55734 3.807614,10.5642 0.699072,0.28127 1.27104,0.54648 1.27104,0.58936 0,0.0429 0.03905,-2.28409 0.08677,-5.17105 z M 103.5387,119.25 c 2.83075,-5.56031 2.93183,-6.00061 0.74609,-3.25 -2.75284,3.46425 -4.523328,7 -3.50519,7 0.46749,0 1.70908,-1.6875 2.7591,-3.75 z m -20.554013,-9.87756 c 0.0084,-1.17015 -0.623722,-2.6579 -1.404765,-3.30611 -0.833942,-0.69211 -1.266301,-2.39365 -1.047509,-4.12245 C 80.737327,100.32475 80.476362,99 79.952492,99 79.428621,99 79,99.648442 79,100.44098 c 0,0.79254 -0.456862,1.72334 -1.015248,2.06844 -1.140744,0.70502 -0.761154,-7.30893 0.455564,-9.617933 C 78.843597,92.126169 78.24451,92.625 77.109013,94 c -1.135498,1.375 -2.074547,1.910942 -2.086777,1.190983 -0.01223,-0.719959 -0.508856,-1.00827 -1.103613,-0.640689 -0.645514,0.398949 -1.002162,-0.08109 -0.884845,-1.190983 0.416905,-3.944191 0.04937,-4.585312 -1.652826,-2.883121 -2.801004,2.801005 -2.686379,0.854103 0.269607,-4.579277 2.013944,-3.701816 3.548535,-5.338375 5.233681,-5.581438 1.866502,-0.269221 2.148979,-0.06043 1.30084,0.961517 -0.811883,0.978259 -0.584716,1.616848 0.906438,2.548089 1.09441,0.68347 2.486776,0.935547 3.094148,0.560171 0.740554,-0.457687 0.937532,0.189949 0.597994,1.966123 -0.5699,2.981239 0.335794,3.414544 2.268781,1.085437 1.156603,-1.393621 1.389705,-1.398126 2.148892,-0.04153 0.468358,0.83691 1.51466,1.267199 2.325114,0.956199 C 90.336901,88.040477 91,88.284167 91,88.893011 91,89.501855 90.601754,90 90.11501,90 c -0.486745,0 -1.677313,1.209237 -2.645707,2.687193 l -1.760716,2.687193 2.763244,-2.173568 c 2.660476,-2.092731 5.220687,-2.130353 3.939838,-0.0579 -0.537875,0.870299 0.973189,0.270732 5.162367,-2.048349 0.59072,-0.327016 3.816664,-2.438358 7.168774,-4.691872 3.35211,-2.253513 8.15629,-4.674496 10.67597,-5.379961 C 117.93845,80.317276 120,79.444144 120,79.082447 c 0,-0.361697 -2.29992,-2.890714 -5.11094,-5.620039 -2.81102,-2.729324 -7.29953,-7.559467 -9.97447,-10.733651 -2.67495,-3.174184 -5.202832,-5.874184 -5.617526,-6 C 98.88237,56.602941 97.01852,54.8125 95.155175,52.75 92.487621,49.797337 91.034451,49 88.320688,49 83.334055,49 74.472378,53.688114 67.796965,59.857713 61.961863,65.250675 60.870114,67 63.339485,67 c 0.736717,0 1.825418,1.066507 2.419336,2.370015 0.924978,2.030105 0.637767,2.90634 -2.002568,6.109525 l -3.08242,3.73951 -1.757758,-2.330312 -1.757758,-2.330312 -1.176518,2.582175 c -1.562202,3.42866 -0.05849,6.26594 8.720712,16.454659 3.746153,4.347607 9.004982,10.76022 11.686287,14.25026 4.9273,6.41347 6.558002,6.79097 6.595889,1.52692 z M 66,83.940983 c 0,-1.682459 -0.417602,-2.800925 -0.928004,-2.485479 -0.510402,0.315446 -1.213545,-0.326124 -1.56254,-1.425711 -0.424685,-1.338064 0.25219,-3.161806 2.046693,-5.51452 2.77625,-3.639852 4.357661,-4.425059 4.562272,-2.265273 0.164653,1.738001 0.123685,1.989676 -0.691821,4.25 -0.662058,1.835015 -0.541218,1.814392 1.464863,-0.25 2.8567,-2.939735 3.01575,-2.869653 2.640894,1.163647 C 72.826852,85.004609 66,90.920574 66,83.940983 z M 68.127555,75.25 c 1.243871,-1.586056 1.208501,-1.621426 -0.377555,-0.377555 -0.9625,0.754844 -1.75,1.542344 -1.75,1.75 0,0.823034 0.821186,0.293303 2.127555,-1.372445 z m 46.797495,16.458955 c 2.4489,-1.083263 7.20351,-2.190391 10.5658,-2.460284 5.83173,-0.468115 6.26053,-0.343442 9.31121,2.707231 2.98764,2.987649 3.19794,3.05363 3.19794,1.003374 0,-3.299263 -6.89337,-9.661044 -11.38043,-10.502822 -5.51073,-1.033819 -15.49097,1.96852 -21.97277,6.610032 -4.60346,3.296466 -5.472472,4.441864 -6.033923,7.952983 -0.360754,2.256031 -0.401438,4.513631 -0.09041,5.016881 0.311028,0.50326 3.127023,-1.17138 6.257773,-3.721408 3.13075,-2.55003 7.69591,-5.522724 10.14481,-6.605987 z M 53.348939,73.749314 c -0.266282,-0.962878 0.372488,-2.987878 1.419489,-4.5 C 57.356882,65.510964 58.198376,64 57.691903,64 c -0.234372,0 -1.687883,1.906637 -3.230026,4.236972 -1.577313,2.383481 -2.989172,3.681142 -3.227427,2.966378 -0.232942,-0.698827 0.0805,-1.877912 0.696533,-2.620189 0.845986,-1.019352 0.767022,-1.48507 -0.322701,-1.903236 -0.79352,-0.304502 -1.690883,0.09295 -1.994138,0.883217 C 49.310888,68.353414 48.572089,69 47.972368,69 47.372647,69 47.136327,68.588435 47.447214,68.08541 47.7581,67.582386 47.447157,66.980565 46.756231,66.748032 45.837474,66.438821 45.789541,65.945756 46.577804,64.912621 47.170597,64.13568 48.880441,61.25 50.377458,58.5 c 2.500575,-4.593521 1.971653,-4.221979 -2.541378,1.785199 -2.405066,3.20132 -3.286441,1.486529 -1.255287,-2.442269 1.558774,-3.015089 1.566005,-3.208334 0.07374,-1.970485 -2.40269,1.99305 -2.157762,-0.356978 0.413565,-3.968075 C 48.205546,50.306967 48.908507,49 48.63023,49 c -0.278277,0 -1.949963,2.010741 -3.714858,4.468312 -1.764894,2.457572 -3.60412,4.224052 -4.087169,3.925512 -0.943983,-0.583414 3.348716,-6.589753 9.006876,-12.602407 3.509804,-3.729701 6.008872,-4.236871 4.197239,-0.851804 -0.744746,1.391571 -0.406754,2.477323 1.440354,4.626937 1.327395,1.544785 2.149834,3.235232 1.827643,3.756547 -0.322191,0.521316 0.831522,-0.100026 2.563807,-1.380759 2.429849,-1.796465 3.420762,-2.057454 4.336151,-1.142065 0.915389,0.915389 0.513904,1.917996 -1.756866,4.387325 L 59.5,57.38838 62.826725,54.69419 C 66.836853,51.446538 68,51.317143 68,54.118689 c 0,2.085285 0.05124,2.079676 3.25,-0.355715 4.861299,-3.701174 11.072958,-6.631075 15.589753,-7.35334 3.191854,-0.510398 4.64168,-0.203012 7.015704,1.487443 l 2.992421,2.130791 -0.485623,-7.763934 C 95.688093,31.485716 95.448534,30.695551 92.291165,28.835793 88.40189,26.544926 77.944052,24.652789 72.259821,25.211521 66.489708,25.778694 57.71444,29.80603 52.582447,34.242287 49.461562,36.940079 48.8,38.166795 48.8,41.255977 48.8,43.31519 48.471284,45 48.06952,45 47.667756,45 45.884795,47.025 44.107384,49.5 42.329974,51.975 40.22869,54 39.437864,54 38.647039,54 38,54.723145 38,55.606989 c 0,0.992356 -0.554133,1.394348 -1.448808,1.051029 -1.925049,-0.738711 -2.6789,1.902609 -2.798754,9.806181 -0.06368,4.199327 0.394057,7.009781 1.325139,8.136195 C 35.859909,75.546853 40.1,77.977332 44.5,80.001458 l 8,3.68023 0.666545,-4.090844 c 0.366599,-2.249964 0.448677,-4.878653 0.182394,-5.84153 z M 54.488717,61.376876 C 55.434022,59.934158 55.713196,59.059221 55.109104,59.43257 53.954709,60.146025 51.626427,64 52.349806,64 c 0.231096,0 1.193606,-1.180406 2.138911,-2.623124 z M 59,55.5 C 60.291745,54.125 61.123628,53 60.848628,53 60.573628,53 59.291745,54.125 58,55.5 56.708255,56.875 55.876372,58 56.151372,58 56.426372,58 57.708255,56.875 59,55.5 z"
     id="path13667"
     inkscape:connector-curvature="0"
     sodipodi:nodetypes="csssssssssscsssssssssssssssssssssscsssssssssssssssscsscssscccscssssssssssssssssssssssssscsssssssssssssssssscssssscsscssssssssscscccscsssssssssccssssssccssssssscssccsscssssssscscscssccsscssssssssssssssssscscssssssscsssssssscsscsscsssssssssscssssssssscssscsssccsssscssccssssccccsssssssssssssscsssscssscssssssssssssssssscsssscssssccscscscssssssssccssssssssscssssscsssscscsssssssssssssssscssssssssssssssssssssssscssssssssssssssscccssscsssssssssssssssssssssssssssssssssssssssssssssssssscssssscssssssssssssscsssssssssss" />
</svg>
