<?xml version="1.0" encoding="UTF-8" standalone="no"?>
<!-- Created with Inkscape (http://www.inkscape.org/) -->

<svg
   xmlns:dc="http://purl.org/dc/elements/1.1/"
   xmlns:cc="http://creativecommons.org/ns#"
   xmlns:rdf="http://www.w3.org/1999/02/22-rdf-syntax-ns#"
   xmlns:svg="http://www.w3.org/2000/svg"
   xmlns="http://www.w3.org/2000/svg"
   xmlns:xlink="http://www.w3.org/1999/xlink"
   xmlns:sodipodi="http://sodipodi.sourceforge.net/DTD/sodipodi-0.dtd"
   xmlns:inkscape="http://www.inkscape.org/namespaces/inkscape"
   id="svg27296"
   version="1.1"
   inkscape:version="0.48.4 r9939"
   width="324"
   height="360"
   sodipodi:docname="Tinderbox.png">
  <metadata
     id="metadata27302">
    <rdf:RDF>
      <cc:Work
         rdf:about="">
        <dc:format>image/svg+xml</dc:format>
        <dc:type
           rdf:resource="http://purl.org/dc/dcmitype/StillImage" />
        <dc:title></dc:title>
      </cc:Work>
    </rdf:RDF>
  </metadata>
  <defs
     id="defs27300">
    <linearGradient
       inkscape:collect="always"
       id="linearGradient27870">
      <stop
         style="stop-color:#000000;stop-opacity:1;"
         offset="0"
         id="stop27872" />
      <stop
         style="stop-color:#000000;stop-opacity:0;"
         offset="1"
         id="stop27874" />
    </linearGradient>
    <linearGradient
       id="linearGradient27827">
      <stop
         style="stop-color:#000000;stop-opacity:1;"
         offset="0"
         id="stop27829" />
      <stop
         style="stop-color:#000000;stop-opacity:0;"
         offset="1"
         id="stop27831" />
    </linearGradient>
    <linearGradient
       inkscape:collect="always"
       xlink:href="#linearGradient27827"
       id="linearGradient27833"
       x1="201.25203"
       y1="29.666157"
       x2="255.83932"
       y2="29.666157"
       gradientUnits="userSpaceOnUse"
       gradientTransform="matrix(0.02095742,0.99978037,-0.99978037,0.02095742,256.09346,-103.12161)" />
    <filter
       inkscape:collect="always"
       id="filter27839"
       color-interpolation-filters="sRGB">
      <feGaussianBlur
         inkscape:collect="always"
         stdDeviation="0.76275038"
         id="feGaussianBlur27841" />
    </filter>
    <filter
       inkscape:collect="always"
       id="filter27854"
       x="-0.24358173"
       width="1.4871635"
       y="-0.15264454"
       height="1.3052891"
       color-interpolation-filters="sRGB">
      <feGaussianBlur
         inkscape:collect="always"
         stdDeviation="1.9652012"
         id="feGaussianBlur27856" />
    </filter>
    <linearGradient
       inkscape:collect="always"
       xlink:href="#linearGradient27870"
       id="linearGradient27876"
       x1="260.58331"
       y1="172.00388"
       x2="337.19211"
       y2="170.256"
       gradientUnits="userSpaceOnUse"
       gradientTransform="translate(0,85)" />
    <filter
       inkscape:collect="always"
       id="filter27878"
       x="-0.83590478"
       width="2.6718097"
       y="-0.17546581"
       height="1.3509316"
       color-interpolation-filters="sRGB">
      <feGaussianBlur
         inkscape:collect="always"
         stdDeviation="12.987223"
         id="feGaussianBlur27880" />
    </filter>
    <filter
       inkscape:collect="always"
       id="filter27882"
       x="-0.87422478"
       width="2.7484496"
       y="-0.1821046"
       height="1.3642092"
       color-interpolation-filters="sRGB">
      <feGaussianBlur
         inkscape:collect="always"
         stdDeviation="13.370357"
         id="feGaussianBlur27884" />
    </filter>
    <filter
       inkscape:collect="always"
       id="filter27896"
       x="-0.20506333"
       width="1.4101267"
       y="-0.27021962"
       height="1.5404392"
       color-interpolation-filters="sRGB">
      <feGaussianBlur
         inkscape:collect="always"
         stdDeviation="7.4672158"
         id="feGaussianBlur27898" />
    </filter>
    <filter
       inkscape:collect="always"
       id="filter27910"
       x="-0.47742304"
       width="1.9548461"
       y="-0.36727262"
       height="1.7345452"
       color-interpolation-filters="sRGB">
      <feGaussianBlur
         inkscape:collect="always"
         stdDeviation="8.648479"
         id="feGaussianBlur27912" />
    </filter>
    <filter
       inkscape:collect="always"
       id="filter27916"
       x="-0.1519933"
       width="1.3039865"
       y="-0.18027113"
       height="1.3605423"
       color-interpolation-filters="sRGB">
      <feGaussianBlur
         inkscape:collect="always"
         stdDeviation="1.3306355"
         id="feGaussianBlur27918" />
    </filter>
    <filter
       inkscape:collect="always"
       id="filter27922"
       x="-0.17365448"
       width="1.347309"
       y="-0.15703826"
       height="1.3140765"
       color-interpolation-filters="sRGB">
      <feGaussianBlur
         inkscape:collect="always"
         stdDeviation="0.97108946"
         id="feGaussianBlur27924" />
    </filter>
    <filter
       inkscape:collect="always"
       id="filter27928"
       x="-0.26924691"
       width="1.5384938"
       y="-0.11887251"
       height="1.237745"
       color-interpolation-filters="sRGB">
      <feGaussianBlur
         inkscape:collect="always"
         stdDeviation="0.40851711"
         id="feGaussianBlur27930" />
    </filter>
    <filter
       inkscape:collect="always"
       id="filter27934"
       x="-0.13348477"
       width="1.2669694"
       y="-0.28587013"
       height="1.5717402"
       color-interpolation-filters="sRGB">
      <feGaussianBlur
         inkscape:collect="always"
         stdDeviation="1.9604992"
         id="feGaussianBlur27936" />
    </filter>
    <filter
       inkscape:collect="always"
       id="filter27940"
       x="-0.24323262"
       width="1.4864653"
       y="-0.094863273"
       height="1.1897265"
       color-interpolation-filters="sRGB">
      <feGaussianBlur
         inkscape:collect="always"
         stdDeviation="2.7654478"
         id="feGaussianBlur27942" />
    </filter>
    <filter
       inkscape:collect="always"
       id="filter28016"
       x="-0.69907731"
       width="2.3981545"
       y="-0.5298987"
       height="2.0597973"
       color-interpolation-filters="sRGB">
      <feGaussianBlur
         inkscape:collect="always"
         stdDeviation="6.7883553"
         id="feGaussianBlur28018" />
    </filter>
    <filter
       inkscape:collect="always"
       id="filter28020"
       x="-0.531973"
       width="2.063946"
       y="-0.43351725"
       height="1.8670346"
       color-interpolation-filters="sRGB">
      <feGaussianBlur
         inkscape:collect="always"
         stdDeviation="5.2463822"
         id="feGaussianBlur28022" />
    </filter>
  </defs>
  <sodipodi:namedview
     pagecolor="#ffffff"
     bordercolor="#666666"
     borderopacity="1"
     objecttolerance="10"
     gridtolerance="10"
     guidetolerance="10"
     inkscape:pageopacity="0"
     inkscape:pageshadow="2"
     inkscape:window-width="1270"
     inkscape:window-height="736"
     id="namedview27298"
     showgrid="false"
     inkscape:zoom="0.85818182"
     inkscape:cx="237.24952"
     inkscape:cy="279.45104"
     inkscape:window-x="-1"
     inkscape:window-y="22"
     inkscape:window-maximized="0"
     inkscape:current-layer="svg27296" />
  <path
     style="fill:#6b6b6b;fill-opacity:0.72772277;stroke:none"
     d="m 233.65625,98.5625 c -9.76803,0.104004 -19.81011,0.859571 -30.90625,4.0625 -4.19543,6.36239 -1.64337,28.46169 -2.46875,42.6875 L 180.625,132.90625 c -16.12452,3.96195 -29.8536,17.51994 -48.375,15.90625 l 0.875,5.53125 19.21875,9.3125 c 1.75878,-8.1413 12.97725,-10.07235 28.28125,-9.3125 l 8.4375,11.0625 119.15625,1.4375 c -2.72906,-8.81107 -2.46693,-7.772 -11.09375,-9.3125 l -3.78125,-6.125 c 5.07645,-2.78313 8.84776,-6.56389 13.5625,-13.6875 1.15685,-15.97521 1.85658,-20.49631 -10.9375,-32.3125 -12.04533,-2.32912 -17.52192,-2.95231 -26.5,3.78125 -7.83987,-2.77356 -15.60454,-5.57879 -18.34375,-10.5 -5.82487,-0.02148 -11.60793,-0.187403 -17.46875,-0.125 z M 270.5,146.1875 c 4.14137,1.80595 3.65991,3.30372 5.21875,4.9375 -0.38586,3.84969 -4.0584,5.3987 -8.28125,6.5625 -10.08451,-1.49818 -6.929,-6.77921 -9.78125,-10.34375 z"
     id="path27820"
     inkscape:connector-curvature="0"
     sodipodi:nodetypes="scccccccccccccccsccccc" />
  <path
     style="fill:#ba9b0d;fill-opacity:1;stroke:none"
     d="m 166.02777,169.25345 c -5.29825,-4.23083 0.86142,-3.75976 7.00366,-3.29583 l 16.0672,1.23593 c 40.09935,0.68664 104.76405,-2.48012 120.29804,2.0599 2.72038,3.33189 0.68786,18.60763 0.91698,27.91144 1.14389,46.45075 -0.74005,93.33848 -0.16799,139.78924 0.79101,3.15018 -4.10457,6.30036 -8.5766,9.45054 l -30.89847,4.1198 c -32.81344,-1.01972 -67.20115,0.58433 -96.8152,-5.76771 l -2.88386,-167.6757 -6.59167,-3.70781 c 0.50837,-1.41421 0.45092,-3.39422 1.64791,-4.1198 z"
     id="path27818"
     inkscape:connector-curvature="0"
     sodipodi:nodetypes="ccccsccccccc" />
  <path
     style="fill:#ba9b0d;fill-opacity:1;stroke:none"
     d="m 25.542734,110.34037 c 44.948737,22.91113 92.428486,41.26644 140.073056,59.32506 l -25.95471,44.90577 c -6.33213,6.69123 -16.00808,5.02289 -25.54273,3.70782 C 76.220001,205.5573 41.471589,188.42567 9.0635509,168.01751 10.636852,143.44667 18.067457,126.86306 25.542734,110.34037 z"
     id="path27308"
     inkscape:connector-curvature="0"
     sodipodi:nodetypes="cccccc" />
  <path
     style="fill:#ffffff;fill-opacity:0.65841585;stroke:none;filter:url(#filter27854)"
     d="m 203.31193,165.13366 17.30314,0.41198 c -5.89384,-10.09351 -3.99612,-20.187 -1.23594,-30.28051 l -18.1271,-0.61796 c 2.34068,10.16216 5.99914,20.32432 2.0599,30.48649 z"
     id="path27848"
     inkscape:connector-curvature="0"
     sodipodi:nodetypes="ccccc" />
  <path
     style="fill:url(#linearGradient27833);fill-opacity:1;stroke:none;filter:url(#filter27839)"
     d="m 254.06721,99.448248 c 3.38765,6.947592 2.90773,42.048592 4.15561,58.232132 l -56.08663,1.98176 c 0.85474,-14.09336 -2.63758,-51.86626 0.7103,-56.69935 14.9302,-6.351329 33.07317,-4.938463 51.22072,-3.514542 z"
     id="path27825"
     inkscape:connector-curvature="0"
     sodipodi:nodetypes="ccccc" />
  <path
     style="fill:none;stroke:none"
     d="m 186.14936,144.71928 2.0392,-1.60223 2.76748,3.35011 z"
     id="path27843"
     inkscape:connector-curvature="0" />
  <path
     style="fill:#ffffff;fill-opacity:0.74752473;stroke:none;filter:url(#filter27934)"
     d="m 142.59798,156.95445 8.30244,3.93273 c 4.44274,-6.82656 13.57914,-9.89289 26.94651,-9.32203 l -1.31091,-7.13718 c -11.31268,5.05071 -22.62536,8.5495 -33.93804,12.52648 z"
     id="path27932"
     inkscape:connector-curvature="0"
     sodipodi:nodetypes="ccccc" />
  <path
     style="fill:#ffffff;fill-opacity:0.51485153;stroke:none;filter:url(#filter27878)"
     d="m 201.5183,168.8983 c 8.94072,0.253 19.69705,2.24187 31.92382,1.35661 -10.407,58.0685 -0.38626,114.48909 3.68712,172.55759 -12.42938,5.86888 -24.85876,4.20693 -37.28814,-0.87394 5.88069,-56.34109 18.38632,-110.53831 1.6772,-173.04026 z"
     id="path27858"
     inkscape:connector-curvature="0"
     sodipodi:nodetypes="ccccc" />
  <path
     style="fill:url(#linearGradient27876);fill-opacity:1;stroke:none;filter:url(#filter27882)"
     d="m 275,168.8983 33.79237,2.91314 -3.49576,167.21398 c -22.32343,10.42468 -27.51732,5.27705 -33.20974,0.58263 C 305.29334,282.53453 281.5256,191.78481 275,168.8983 z"
     id="path27864"
     inkscape:connector-curvature="0"
     sodipodi:nodetypes="ccccc" />
  <path
     style="fill:#000000;fill-opacity:0.51485153;stroke:none;filter:url(#filter27896)"
     d="m 73.411017,191.62076 c 20.83298,9.19386 38.535803,29.86497 63.506353,23.88772 19.80997,-29.03496 17.8802,-29.26215 23.88771,-43.11441 L 109.5339,150.25424 c -2.46749,19.88105 -16.620487,32.32586 -36.122883,41.36652 z"
     id="path27886"
     inkscape:connector-curvature="0"
     sodipodi:nodetypes="ccccc" />
  <path
     style="fill:#ffffff;fill-opacity:0.51485153;stroke:none;filter:url(#filter27910)"
     d="m 49.523306,182.88136 -19.809323,-9.32204 c 7.081787,-16.11267 15.198767,-19.02647 20.974576,-47.1928 l 21.557204,9.90467 c 3.670231,22.04206 -3.249651,42.71561 -22.722457,46.61017 z"
     id="path27900"
     inkscape:connector-curvature="0"
     sodipodi:nodetypes="ccccc" />
  <path
     style="fill:#ffffff;fill-opacity:0.51485153;stroke:none;filter:url(#filter27916)"
     d="m 284.26591,142.88676 c 10.45035,0.68522 13.1958,-4.93357 15.24325,-11.12345 3.67052,-13.04057 5.32363,-6.44698 5.76771,4.11979 -3.56536,8.56012 -9.41111,11.98936 -16.0672,13.59533 -7.11929,-0.0593 -12.72005,-0.6777 -4.94376,-6.59167 z"
     id="path27914"
     inkscape:connector-curvature="0"
     sodipodi:nodetypes="ccccc" />
  <path
     style="fill:#ffffff;fill-opacity:0.51485153;stroke:none;filter:url(#filter27922)"
     d="m 267.86282,140.34958 c -0.0616,3.84418 3.63545,3.0624 8.59375,0.72828 1.76499,-1.48782 5.11416,-3.07203 4.80668,-9.03072 -1.74624,-6.03404 -2.27095,-4.12824 -2.47617,-0.14566 -4.78511,7.5833 -8.33467,7.16414 -10.92426,8.4481 z"
     id="path27920"
     inkscape:connector-curvature="0"
     sodipodi:nodetypes="ccccc" />
  <path
     style="fill:#ffffff;fill-opacity:0.51485153;stroke:none;filter:url(#filter27928)"
     d="m 270.92161,127.82309 c 0.38353,-0.78417 0.0534,-2.63881 2.62182,-0.14565 l 1.0196,3.78707 -2.62182,3.20445 c -0.0643,-2.28195 0.81197,-4.56391 -1.0196,-6.84587 z"
     id="path27926"
     inkscape:connector-curvature="0"
     sodipodi:nodetypes="ccccc" />
  <path
     style="fill:#000000"
     d="m 237.34375,96.875 c -7.975,0.358745 -18.88809,1.403241 -24.25,2.3125 -13.63097,2.31151 -13.31177,1.66806 -13.09375,25.5625 0.1256,13.76527 -0.14025,18.73161 -1,18.71875 -0.64409,-0.01 -3.58651,-2.26287 -6.5625,-5.03125 -2.97598,-2.76838 -6.30058,-5.51874 -7.375,-6.09375 -2.76829,-1.48154 -9.52184,-0.21933 -14.21875,2.65625 -2.2,1.3469 -8.28436,4.59467 -13.5,7.21875 -9.69469,4.87756 -14.51594,5.76901 -23.5,4.28125 -2.85854,-0.47337 -3.01211,-0.33876 -3.3125,3.3125 -0.25671,3.12034 -0.62812,3.71427 -2,3.1875 -0.92661,-0.35579 -7.0875,-2.6038 -13.6875,-5 C 91.679043,139.58981 81.030746,135.08603 49.6875,120.4375 30.83226,111.62534 24.55157,109.30101 27.90625,112.375 c 1.04094,0.95385 48.01914,23.125 49,23.125 0.34203,0 4.292149,1.63205 8.78125,3.625 7.901736,3.50799 30.3052,12.09208 49.46875,18.9375 5.13199,1.8332 9.85699,3.76192 10.5,4.28125 0.64301,0.51933 4.9,2.19174 9.4375,3.71875 4.5375,1.52701 8.25,3.13466 8.25,3.59375 0,0.45909 -0.37008,0.84375 -0.8125,0.84375 -0.82013,0 -3.34091,4.84975 -14.0625,27 -6.41866,13.2606 -8.13209,15.82776 -12.125,18.25 -3.54683,2.15167 -11.45882,3.09768 -14.09375,1.6875 -1.36528,-0.73062 -1.91294,-0.76191 -1.5,-0.0937 1.23722,2.00185 -9.68686,-0.0168 -19.40625,-3.59375 -12.525072,-4.60957 -16.979881,-6.86176 -20,-10.125 -1.375,-1.48569 -2.115876,-2.12849 -1.625,-1.40625 0.490875,0.72225 0.646014,1.57274 0.34375,1.875 -1.096477,1.09648 -6.57266,-2.65055 -10.59375,-7.21875 -2.26298,-2.57088 -4.125,-4.24329 -4.125,-3.71875 0,0.52453 1.35573,2.26844 3,3.84375 1.64426,1.5753 2.80972,3.03403 2.59375,3.25 -0.90676,0.90677 -8.71127,-3.99248 -10.75,-6.75 -1.2166,-1.64554 -2.67631,-3 -3.21875,-3 -0.54244,0 0.10413,1.17323 1.4375,2.59375 l 2.4375,2.5625 -5.5,-2.125 c -6.65851,-2.59125 -31.37969,-15.87194 -39,-20.9375 l -5.5,-3.65625 0.25,-6.46875 c 0.55531,-13.90248 4.54493,-28.72577 11.34375,-42.1563 4.25771,-8.41078 4.99411,-11.71229 1.75,-7.8125 -7.14687,8.59134 -13.65716,28.80453 -16.375,50.75 -0.61313,4.95075 -0.4836499,5.42337 2.375,8.09375 1.67043,1.56041 4.29932,3.47633 5.84375,4.25 1.54443,0.77367 7.37588,3.98984 12.96875,7.15625 5.59287,3.16641 13.46787,7.29606 17.5,9.15625 4.03213,1.86018 12.74375,5.84777 19.34375,8.875 6.6,3.02724 14.925,6.85771 18.5,8.5 19.67077,9.03637 32.55166,12.06746 45.4375,10.6875 5.35077,-0.57302 7.13487,-1.26682 10.4375,-4.09375 3.88141,-3.32234 5.26612,-5.7785 14.5625,-25.875 4.6426,-10.03614 7.89969,-16.5 8.34375,-16.5 0.18828,0 1.01875,0.675 1.84375,1.5 0.825,0.825 2.30876,1.5 3.28125,1.5 1.6487,0 1.83323,2.68609 2.53125,39.75 0.87403,46.41543 0.84954,97.90026 -0.0312,110.75 -0.72864,10.63012 0.57156,16.79562 4.03125,19.0625 2.51176,1.64576 14.12124,3.12715 34.0625,4.375 6.6,0.41301 24.67192,0.82285 40.15625,0.90625 25.2551,0.13598 29.16698,-0.0704 38,-1.96875 5.41567,-1.16388 11.51292,-2.32609 13.5625,-2.59375 2.68664,-0.35085 4.69673,-1.55885 7.15625,-4.28125 l 3.40625,-3.75 0.25,-42.875 c 0.14707,-23.57912 0.3229,-61.64488 0.375,-84.5625 0.0942,-41.47077 0.0714,-41.67945 -2.09375,-44 -1.1965,-1.28238 -2.3215,-3.8875 -2.5,-5.8125 -0.30595,-3.29963 -0.5415,-3.5133 -4.3125,-3.8125 -2.88054,-0.22855 -4.60276,-1.07426 -6.125,-2.96875 l -2.09375,-2.625 5.40625,-4.9375 c 7.71372,-7.0499 8.67636,-9.36563 8.4375,-20.125 -0.13656,-6.15138 -0.65861,-9.61168 -1.6875,-11 -0.82561,-1.11402 -2.63767,-3.56037 -4,-5.4375 -3.25416,-4.48377 -5.58213,-6.05736 -11.4063,-7.59375 -5.74371,-1.51516 -13.71716,-0.40019 -18.90625,2.625 -3.36353,1.9609 -3.42776,1.94356 -7.5625,0 -2.2891,-1.076 -8.02765,-0.14348 -8.40625,-3.3125 l -0.65625,-5.34375 z m 5.625,2.3125 c 5.62959,0.06081 9.8758,0.409358 10.5625,1.09375 0.96804,0.96479 1.44073,7.50429 1.8125,25.5 0.3231,15.6396 0.90783,24.92635 1.65625,26.21875 4.07082,7.02971 10.1358,8.6867 30.84375,8.46875 8.25,-0.0868 15.5625,-0.11182 16.25,-0.0625 0.69637,0.05 1.20025,1.31174 1.15625,2.84375 -0.0434,1.5125 -0.28509,2.1875 -0.5625,1.5 -0.27741,-0.6875 -0.91934,-1.25 -1.40625,-1.25 -0.4869,0 -0.62908,0.675 -0.3125,1.5 0.66882,1.74292 0.42555,1.81489 -1.625,0.5 -0.825,-0.52902 -2.3236,-0.71413 -3.3125,-0.40625 -0.98889,0.30788 -2.45139,0.0378 -3.25,-0.625 -1.02453,-0.85029 -1.4375,-0.88574 -1.4375,-0.0937 0,0.61735 -0.675,1.125 -1.5,1.125 -0.825,0 -1.5,-0.45 -1.5,-1 0,-0.55 -0.48004,-1 -1.0625,-1 -0.58246,0 -0.77742,0.45 -0.4375,1 0.33992,0.55 -0.0761,1 -0.90625,1 -0.83013,0 -1.97065,-0.7875 -2.53125,-1.75 -0.97079,-1.66667 -1.00225,-1.66667 -1.03125,0 -0.0342,1.96637 -2.0386,2.45217 -2.0625,0.5 -0.0102,-0.83588 -0.34154,-0.75305 -1,0.25 -0.87528,1.33333 -1.09347,1.33333 -1.96875,0 -0.65846,-1.00305 -0.9898,-1.08588 -1,-0.25 -0.0217,1.77611 -2.00644,1.54689 -4.34375,-0.5 -1.90315,-1.66667 -1.98279,-1.66667 -1.375,0 0.4983,1.36641 0.11501,1.75 -1.8125,1.75 -1.52766,0 -2.46875,-0.57175 -2.46875,-1.5 0,-0.825 -0.43601,-1.5 -0.96875,-1.5 -0.53273,0 -0.72283,0.675 -0.40625,1.5 0.81809,2.13189 -2.54069,1.93837 -4.34375,-0.25 -1.37322,-1.66667 -1.4303,-1.66667 -0.90625,0 0.34429,1.09498 0.0316,1.75 -0.84375,1.75 -0.76949,0 -1.60539,-1.0125 -1.84375,-2.25 L 258.625,161 l -0.15625,2.25 c -0.14686,2.42649 -1.64754,3.03517 -2.46875,1 -0.40351,-1 -0.53055,-1 -0.59375,0 -0.11294,1.78817 -2.0625,1.55176 -2.0625,-0.25 0,-0.825 -0.51615,-1.5 -1.125,-1.5 -0.60888,0 -0.84784,0.675 -0.53125,1.5 0.38621,1.00645 -0.0163,1.5 -1.28125,1.5 -1.03691,0 -2.12884,-0.5625 -2.40625,-1.25 -0.40351,-1 -0.53055,-1 -0.59375,0 -0.0434,0.6875 -1.1875,1.25 -2.5625,1.25 -1.375,0 -2.52325,-0.5625 -2.53125,-1.25 -0.009,-0.77413 -0.29501,-0.86931 -0.75,-0.25 -1.27302,1.73274 -3.38284,1.63458 -4.90625,-0.21875 -1.36893,-1.66539 -1.45017,-1.66174 -0.9375,-0.0312 0.63541,2.02083 -1.37057,2.34818 -3.1875,0.53125 -0.93333,-0.93333 -1.1875,-0.93333 -1.1875,0 0,1.8861 -3.80261,1.41991 -4.3125,-0.53125 -0.43555,-1.66667 -0.45202,-1.66667 -0.5625,0 -0.13285,2.00423 -2.71199,2.37544 -3.46875,0.5 -0.40351,-1 -0.53055,-1 -0.59375,0 -0.0434,0.6875 -0.68958,1.25 -1.46875,1.25 -0.77916,0 -1.67916,-0.5625 -2,-1.25 -0.46666,-1 -0.72084,-1 -1.1875,0 -0.81816,1.7532 -3.40625,1.56306 -3.40625,-0.25 0,-0.825 -0.45,-1.5 -1,-1.5 -0.55,0 -0.8875,0.50625 -0.75,1.125 0.41267,1.85702 -1.89428,2.07447 -3.625,0.34375 -0.88884,-0.88884 -1.625,-1.12054 -1.625,-0.53125 0,1.49221 -2.72834,1.33763 -3.34375,-0.1875 -0.40351,-1 -0.53055,-1 -0.59375,0 -0.0434,0.6875 -0.68958,1.25 -1.46875,1.25 -0.77916,0 -1.67916,-0.5625 -2,-1.25 -0.46666,-1 -0.72084,-1 -1.1875,0 -0.32084,0.6875 -1.44584,1.25 -2.5,1.25 -1.05417,0 -1.9295,-0.5625 -1.9375,-1.25 -0.0102,-0.83588 -0.34154,-0.75305 -1,0.25 -0.81935,1.24814 -1.11238,1.25927 -1.84375,0.125 -0.74207,-1.15087 -0.97982,-1.15087 -1.4375,0 -0.3685,0.92662 -0.5713,0.7922 -0.625,-0.4375 -0.0434,-0.99496 -0.47108,-1.55758 -0.96875,-1.25 -1.76903,1.09332 -6.13235,-8.13557 -6.21875,-13.15625 -0.0853,-4.96041 1.23534,-9.60882 3.03125,-10.71875 1.44548,-0.89335 6.04928,1.68136 9.53125,5.34375 3.23727,3.40501 5.64622,3.90914 7.59375,1.5625 1.1298,-1.36133 1.59322,-1.24596 3.9375,1 3.3789,3.23719 4.12155,3.18269 7.375,-0.46875 1.47015,-1.65 2.2105,-3 1.65625,-3 -0.55424,0 -1,-0.61734 -1,-1.375 0,-3.58578 -6.51642,-5.17904 -8.3125,-2.03125 -1.12563,1.97276 -2.36946,1.72919 -2.96875,-0.5625 -0.37649,-1.43969 0.17509,-2.19159 2.125,-2.90625 l 2.65625,-0.96875 -2.75,-0.0937 c -2.45023,-0.0703 -2.75,-0.4435 -2.75,-3.5 0,-2.76243 0.43815,-3.52602 2.25,-3.875 l 2.25,-0.40625 -2.25,-0.15625 c -2.53242,-0.15328 -2.83976,-1.08041 -1,-3.0625 1,-1.07736 1,-1.22083 0,-0.65625 -0.85714,0.48392 -1.25,-0.10206 -1.25,-1.84375 0,-1.95717 0.63099,-2.65764 2.75,-3.125 4.52001,-0.99693 5.00101,-1.47607 1,-1 -3.56806,0.42456 -3.75,0.30098 -3.75,-2.4375 0,-3.07412 2.08576,-5.27395 2.84375,-3 0.64313,1.92939 5.19317,6 6.71875,6 3.62717,0 5.94774,-7.08351 3.21875,-9.8125 -1.73367,-1.73367 -7.73905,-1.50764 -8.4375,0.3125 -0.31659,0.825 -1.61033,1.5 -2.875,1.5 -1.80708,0 -2.16103,-0.42823 -1.75,-2 0.28766,-1.1 1.2579,-2.02285 2.15625,-2.03125 1.2978,-0.0122 1.32802,-0.19193 0.25,-0.875 -1.93476,-1.22592 -0.71162,-1.70349 8.90625,-3.5 6.98626,-1.304951 20.2111,-2.007598 29.59375,-1.90625 z m -14.59375,5.34375 c -2.00192,0.12332 -4.00213,1.45298 -5.03125,3.9375 -1.05588,2.54914 -0.98714,3.41946 0.4375,5.59375 3.77395,5.75977 12.57145,0.11083 9.6875,-6.21875 -1.07302,-2.35503 -3.09183,-3.43582 -5.09375,-3.3125 z m -19.15625,0.0937 c -0.54375,-0.007 -1.13851,0.0607 -1.625,0.1875 -0.97297,0.25354 -0.4,0.47962 1.25,0.5 1.65,0.0204 2.42703,-0.19483 1.75,-0.46875 -0.33852,-0.13696 -0.83125,-0.21203 -1.375,-0.21875 z m 72.9375,0.0312 c 1.02313,0.005 2.22118,0.0882 3.6875,0.1875 8.83376,0.59839 11.29836,1.73192 16.09375,7.46875 3.65137,4.3682 3.91915,5.11933 4.59375,13.5625 0.80679,10.09769 0.35038,11.51677 -5.84375,18.46875 -3.27988,3.68117 -4.72938,4.47816 -9.84375,5.5 -6.70925,1.3405 -13.05856,0.8101 -12.90625,-1.09375 0.055,-0.6875 0.1675,-2.15 0.25,-3.25 0.18487,-2.46492 1.84605,-2.63287 2.46875,-0.25 0.26976,1.03224 0.51512,0.51956 0.625,-1.25 0.16229,-2.61348 0.3138,-2.74232 1.0625,-1 0.74059,1.72345 0.8637,1.58517 0.9375,-1 0.0681,-2.38813 0.29284,-2.69406 1.125,-1.5 0.77754,1.11571 0.88238,0.66736 0.40625,-1.75 -0.40472,-2.05482 -0.24498,-3.25 0.4375,-3.25 0.59371,0 1.09375,0.45 1.09375,1 0,0.55 0.5625,0.98705 1.25,0.96875 0.6875,-0.0183 0.2375,-0.87389 -1,-1.90625 -2.70592,-2.25737 -2.82998,-3.03142 -0.5,-3.125 1.49644,-0.0601 1.46022,-0.2026 -0.25,-0.9375 -1.84948,-0.79475 -1.81184,-0.88809 0.5,-1.0625 2.3434,-0.17679 2.31208,-0.22476 -0.5,-0.90625 l -3,-0.71875 2.5,-1.09375 c 2.37647,-1.03734 2.39522,-1.096 0.3125,-1.15625 -2.93831,-0.085 -3.77894,-1.6939 -1.59375,-3.0625 1.54443,-0.96729 1.49337,-1.03643 -0.46875,-0.5 -1.2375,0.33833 -2.25,0.17173 -2.25,-0.375 0,-0.54673 0.7875,-1.18597 1.75,-1.4375 1.12152,-0.29309 0.78758,-0.48816 -0.90625,-0.5625 -3.01922,-0.13251 -4.64394,-2.89386 -2.25,-3.8125 1.26421,-0.48512 1.32611,-0.75535 0.25,-1.4375 -0.73362,-0.46504 -1.79375,-0.84375 -2.34375,-0.84375 -0.55,0 -0.325,0.43559 0.5,0.96875 1.70444,1.10149 0.95619,1.29354 -1.4375,0.375 -1.2573,-0.48247 -1.35035,-0.93134 -0.4375,-2.03125 0.94032,-1.13302 0.82514,-1.27049 -0.53125,-0.75 -1.39604,0.53571 -1.59965,0.164 -1.1875,-2.21875 0.46789,-2.70503 0.40124,-2.76511 -0.96875,-0.9375 -1.27949,1.70687 -1.4375,1.74997 -1.4375,0.25 0,-0.9382 1.4625,-2.65162 3.25,-3.78125 2.04237,-1.2907 3.49312,-1.76492 6.5625,-1.75 z m -35.5625,0.5 c -0.30805,0.005 -0.60626,0.0362 -0.9375,0.0937 -5.03814,0.87608 -6.94677,5.77026 -3.65625,9.40625 2.15639,2.38279 4.8526,2.3349 7.34375,-0.15625 3.79792,-3.79793 1.87074,-9.41518 -2.75,-9.34375 z m 11.5,0.4375 c 0.74885,-0.11425 2.18446,0.39226 4.875,1.5 2.12966,0.87682 5.85317,3.67183 8.28125,6.21875 14.80365,15.52815 14.3864,29.4994 -0.90625,30.75 -1.93503,0.15824 -4.4,0.53685 -5.5,0.84375 -1.1,0.3069 -3.125,-0.0743 -4.5,-0.875 -1.375,-0.80069 -2.05,-1.47209 -1.5,-1.5 0.55,-0.0279 0.325,-0.54739 -0.5,-1.125 -1.15473,-0.80846 -0.92455,-0.89202 1,-0.40625 1.72294,0.43488 2.06445,0.3384 1.125,-0.3125 -1.15087,-0.79738 -1.15087,-1.04596 0,-1.5625 0.74973,-0.3365 0.3625,-0.36949 -0.875,-0.0625 -1.27665,0.3167 -2.25,0.10563 -2.25,-0.5 0,-0.58706 0.64668,-1.0625 1.4375,-1.0625 0.82723,0 1.36905,-0.86644 1.28125,-2.03125 -0.0906,-1.2027 -0.67395,-1.82425 -1.4375,-1.53125 -0.70694,0.27128 -1.28125,0.064 -1.28125,-0.46875 0,-0.53274 0.7875,-0.99259 1.75,-1.03125 1.51066,-0.0607 1.46943,-0.18343 -0.21875,-0.84375 -1.94086,-0.75916 -1.94086,-0.76909 0,-2 1.54484,-0.97974 1.60114,-1.14857 0.21875,-0.71875 -0.9625,0.29927 -1.75,0.15073 -1.75,-0.34375 0,-0.49448 1.0125,-1.1054 2.25,-1.34375 l 2.25,-0.40625 -2.25,-0.15625 c -1.2375,-0.0749 -2.25,-0.5028 -2.25,-0.96875 0,-0.46595 1.0125,-1.36305 2.25,-2 l 2.25,-1.15625 -2.25,0.5625 c -1.2857,0.32723 -2.25,0.10993 -2.25,-0.5 0,-0.58706 0.64496,-1.0625 1.4375,-1.0625 0.79254,0 1.74867,-0.51608 2.125,-1.125 0.4488,-0.72617 0.0322,-0.89705 -1.21875,-0.5 -1.49136,0.47334 -1.96786,0.0862 -2.125,-1.8125 -0.13039,-1.57547 0.40682,-2.5804 1.53125,-2.875 1.62944,-0.42692 1.64543,-0.45343 0,-0.5625 -0.9625,-0.0638 -1.75,-0.55283 -1.75,-1.0625 0,-0.50967 0.7875,-1.12347 1.75,-1.375 1.66667,-0.43555 1.66667,-0.45202 0,-0.5625 -0.9625,-0.0638 -1.75,-0.57108 -1.75,-1.09375 0,-0.52267 0.7875,-1.44364 1.75,-2.0625 1.66667,-1.07161 1.66667,-1.11196 0,-0.59375 -1.11927,0.34801 -1.75,0.0331 -1.75,-0.90625 0,-0.81487 0.16756,-1.28614 0.75,-1.375 z M 260.25,117.625 c -0.3474,-0.0143 -0.73281,0.0431 -1.09375,0.1875 -0.79773,0.31923 -0.5712,0.54577 0.59375,0.59375 1.05416,0.0434 1.64479,-0.16771 1.3125,-0.5 -0.16615,-0.16615 -0.4651,-0.26694 -0.8125,-0.28125 z m 22,0 c -0.3474,-0.0143 -0.73281,0.0431 -1.09375,0.1875 -0.79773,0.31923 -0.5712,0.54577 0.59375,0.59375 1.05416,0.0434 1.64479,-0.16771 1.3125,-0.5 -0.16614,-0.16615 -0.4651,-0.26694 -0.8125,-0.28125 z m 12.78125,2.03125 c -0.59974,0.12415 -0.50769,1.24902 0.71875,3 2.14512,3.06258 2.01026,6.58507 -0.40625,11.09375 -1.1,2.05236 -2,3.97301 -2,4.25 0,1.67298 1.93869,-0.041 3.8125,-3.375 2.69922,-4.80261 2.81873,-10.15132 0.28125,-13.28125 -1.04644,-1.29076 -1.93978,-1.78406 -2.40625,-1.6875 z M 238.125,120.5 c -4.90174,0 -7.39582,5.54204 -4.125,9.15625 2.0224,2.23473 3.24544,2.29817 6.125,0.28125 3.68613,-2.58187 2.22855,-9.4375 -2,-9.4375 z m -19.75,1.09375 c -1.30917,0.0276 -2.72531,0.60031 -4.03125,1.90625 -1.1,1.1 -2.7875,2.02764 -3.75,2.0625 -1.34081,0.0486 -1.2239,0.27583 0.5,0.96875 3.79575,1.52571 2.70127,3.66376 -2.25,4.40625 -2.475,0.37115 -4.5,1.03747 -4.5,1.46875 0,0.43128 2.1375,0.21166 4.75,-0.46875 2.79526,-0.72801 5.12845,-0.86849 5.6875,-0.34375 1.59233,1.4946 5.74862,1.01057 7.15625,-0.84375 3.3702,-4.43967 0.36501,-9.23918 -3.5625,-9.15625 z m 50.90625,0.8125 c -2.95153,-0.0282 -5.51357,2.72411 -6.53125,7.8125 -0.50826,2.54133 -0.12916,3.65209 2.03125,5.8125 3.19009,3.19009 6.81095,2.7938 10.3125,-1.125 2.92296,-3.27127 2.83527,-5.5657 -0.34375,-9.34375 -1.78638,-2.12299 -3.69783,-3.13934 -5.46875,-3.15625 z m 0.875,2.53125 c 1.9433,-0.0932 3.17208,1.1102 4.125,3.84375 0.93335,2.67741 0.79322,3.39428 -0.9375,5.125 -1.7955,1.7955 -2,1.84417 -2,0.3125 0,-0.94722 -0.45,-1.71875 -1,-1.71875 -0.55,0 -1,-0.9 -1,-2 0,-2.35754 -1.80833,-2.67837 -2.65625,-0.46875 -0.32444,0.84548 0.21055,2.42049 1.1875,3.5 1.57901,1.74479 1.59618,1.96875 0.15625,1.96875 -4.13564,0 -4.18756,-8.49415 -0.0625,-10.0625 0.82073,-0.31204 1.53973,-0.46893 2.1875,-0.5 z m -91.4375,9.46875 c 1.17575,-0.13081 1.65203,0.23362 1.0625,1.1875 -0.46541,0.75305 0.0719,0.89502 1.6875,0.4375 1.59543,-0.45181 1.92824,-0.37287 1.03125,0.25 -0.73448,0.51002 -1.18448,1.28273 -1,1.6875 0.18448,0.40477 -1.00625,1.35921 -2.65625,2.125 -2.52625,1.17247 -2.60521,1.28035 -0.5,0.8125 1.37502,-0.30558 2.0348,-0.16728 1.46875,0.28125 -0.56605,0.44853 -0.9535,1.825 -0.875,3.0625 0.10606,1.67281 -0.42869,2.23013 -2,2.21875 -1.73104,-0.0125 -1.82233,-0.17478 -0.59375,-0.96875 1.33333,-0.86167 1.33333,-0.98641 0,-1.0625 -1.01049,-0.0577 -0.84731,-0.35854 0.5,-0.9375 1.31874,-0.56668 1.48906,-0.87 0.5,-0.90625 -0.825,-0.0302 -2.175,0.37309 -3,0.90625 -1.33333,0.86167 -1.33333,0.98641 0,1.0625 1.01049,0.0577 0.84731,0.35854 -0.5,0.9375 -2,0.85943 -2,0.85943 0,1 2,0.14057 2,0.12512 0,1.03125 -1.42581,0.64598 -0.92339,0.76272 1.75,0.34375 3.52599,-0.55259 3.75,-0.4553 3.75,2 0,2.56605 -0.12993,2.625 -7,2.625 -5.67278,0 -8.29677,0.58885 -13.96875,3.125 -3.84461,1.71907 -6.76209,3.52536 -6.46875,4 0.29334,0.47463 -0.24371,0.54967 -1.1875,0.1875 -1.16422,-0.44676 -1.49057,-0.29376 -1,0.5 0.86013,1.39172 0.92537,1.42099 -2.875,-0.4375 -2.46276,-1.20436 -2.5666,-1.3749 -0.59375,-0.96875 1.32177,0.27212 3.68427,-0.19033 5.25,-1 3.39611,-1.7562 3.76323,-2.70279 0.59375,-1.53125 -2.43591,0.90039 -5.06359,0.40278 -4.3125,-0.8125 0.52558,-0.85041 -3.81324,-0.55602 -7.125,0.46875 -1.60483,0.49659 -2.87971,-0.005 -4.75,-1.875 -3.70673,-3.70673 -3.44842,-6.01281 0.59375,-5.125 8.21433,1.80417 16.57303,-0.88209 32.3125,-10.375 4.06005,-2.44873 7.94667,-4.03198 9.90625,-4.25 z M 247.6875,134.5 c -4.43595,0 -7.18537,6.81432 -3.59375,8.90625 2.93854,1.71155 5.24184,1.21795 6.4375,-1.40625 1.40328,-3.07986 -0.27761,-7.5 -2.84375,-7.5 z m -34.34375,0.125 c -0.45313,0 -0.90625,0.08 -1.25,0.21875 -0.6875,0.27741 -0.125,0.5 1.25,0.5 1.375,0 1.9375,-0.22259 1.25,-0.5 -0.34375,-0.13871 -0.79687,-0.21875 -1.25,-0.21875 z m 5.875,0 c -0.54375,-0.007 -1.13851,0.0607 -1.625,0.1875 -0.97297,0.25354 -0.4,0.47962 1.25,0.5 1.65,0.0204 2.42703,-0.19483 1.75,-0.46875 -0.33852,-0.13696 -0.83125,-0.21203 -1.375,-0.21875 z m 8.6875,0.96875 c -1.03474,0.11284 -2.10733,0.67208 -3.1875,1.65625 -2.38815,2.17592 -1.9723,5.73378 0.90625,7.75 2.66228,1.86473 2.77051,1.84931 5.5,-0.0625 2.63177,-1.84336 2.86708,-5.07847 0.5625,-7.625 -1.17135,-1.29432 -2.45086,-1.86383 -3.78125,-1.71875 z M 178.1875,137.625 c -0.81334,0.007 -1.63129,0.25629 -2.03125,0.65625 -0.62614,0.62614 0.0189,0.74706 1.84375,0.375 2.09296,-0.42673 2.34357,-0.67734 0.96875,-0.96875 -0.25523,-0.0541 -0.51014,-0.0647 -0.78125,-0.0625 z m 9.5625,2.90625 c -2.94367,-0.23272 -5.24916,3.0509 -2.96875,6.53125 1.72161,2.6275 4.42357,3.13893 6.34375,1.21875 1.66087,-1.66087 1.52777,-4.34723 -0.34375,-6.21875 -0.97801,-0.97801 -2.05003,-1.45368 -3.03125,-1.53125 z m 0.44809,2.35302 c 1.32011,1.14045 2.03258,1.00816 1.66764,3.08475 -1.84933,1.47664 -2.2114,0.73405 -3.8652,-0.51086 -0.34277,-2.10986 0.83198,-2.24492 2.19756,-2.57389 z m 74.89566,-0.79052 c -0.31202,0.0257 -0.60867,0.0703 -0.9375,0.15625 -1.51517,0.39623 -1.68068,0.72563 -0.65625,1.375 1.62296,1.02879 1.336,0.98919 3.34375,0.21875 2.01374,-0.77275 0.43411,-1.92999 -1.75,-1.75 z m 13.5,2.53125 c 0.0945,-0.038 0.22172,0.003 0.34375,0.125 0.32542,0.32542 0.18088,1.30588 -0.3125,2.1875 -0.49338,0.88162 -1.21171,1.28829 -1.59375,0.90625 -1.06785,-1.06785 -0.81612,-2.54127 0.3125,-1.84375 0.55,0.33992 1,0.0491 1,-0.625 0,-0.42133 0.0926,-0.68661 0.25,-0.75 z M 19.0625,145.90625 c -1.654144,-0.0896 -4.010297,6.14923 -4.5,12.25 l -0.5,6.21875 4.90625,4.65625 c 2.73761,2.61467 7.73034,5.92432 11.375,7.53125 7.15915,3.15648 11.53632,3.93858 8.96875,1.59375 -0.80535,-0.73549 -3.94375,-2.31781 -6.96875,-3.53125 -12.47267,-5.00325 -16.39882,-9.95364 -14.96875,-18.8125 0.46022,-2.85092 1.31584,-6.0843 1.90625,-7.1875 0.67383,-1.25907 0.69642,-2.22128 0.09375,-2.59375 -0.103386,-0.0639 -0.202224,-0.11902 -0.3125,-0.125 z M 222.25,146.625 c -0.3474,-0.0143 -0.73282,0.0431 -1.09375,0.1875 -0.79773,0.31923 -0.5712,0.54577 0.59375,0.59375 1.05416,0.0434 1.64479,-0.16771 1.3125,-0.5 -0.16615,-0.16615 -0.4651,-0.26694 -0.8125,-0.28125 z m 46.5,0.625 c 2.50079,-0.10937 3.32357,0.38587 4.78125,1.9375 1.18833,1.26492 1.95009,2.43183 1.71875,2.59375 -0.23134,0.16192 -2.06795,1.50975 -4.09375,3 -2.0258,1.49025 -3.8258,2.69111 -4,2.65625 -2.32696,-0.4657 -4.96934,-2.36831 -6.6875,-4.78125 -2.07735,-2.91736 -2.86537,-5.67963 -1.375,-4.84375 0.4125,0.23135 3.33199,0.11598 6.5,-0.25 1.29536,-0.14964 2.32265,-0.27604 3.15625,-0.3125 z m -66.34375,0.71875 c -0.1793,0.025 -0.35625,0.0771 -0.5625,0.15625 -0.825,0.31658 -1.5,0.96361 -1.5,1.4375 0,0.4739 0.675,0.59783 1.5,0.28125 0.825,-0.31658 1.5,-0.9636 1.5,-1.4375 0,-0.35542 -0.39961,-0.51265 -0.9375,-0.4375 z m -5.125,0.53125 c -1.13246,0 -1.79383,0.41152 -1.46875,0.9375 0.32507,0.52598 1.25511,0.71607 2.0625,0.40625 2.06711,-0.79323 1.82082,-1.34375 -0.59375,-1.34375 z m -22.53125,1 c -1.05417,0.008 -2.58125,0.47296 -3.40625,1.03125 -1.09546,0.74131 -0.69092,0.83382 1.5,0.34375 3.67693,-0.82247 4.46469,-1.39544 1.90625,-1.375 z m -37.3125,2.5 c -0.20151,0.0238 -0.42394,0.0791 -0.625,0.15625 -0.80423,0.30861 -1.22696,0.9379 -0.9375,1.40625 0.28945,0.46835 1.19577,0.58986 2,0.28125 0.80423,-0.30861 1.22696,-0.9379 0.9375,-1.40625 -0.21709,-0.35126 -0.77048,-0.50898 -1.375,-0.4375 z m 15.96875,0.9375 c -1.05962,0 -1.66859,0.41189 -1.34375,0.9375 0.32485,0.52561 -0.0827,0.69103 -0.90625,0.375 -0.87216,-0.33468 -1.46875,-0.002 -1.46875,0.78125 0,1.09706 0.50001,1.07084 2.8125,-0.125 3.34922,-1.73195 3.46441,-1.96875 0.90625,-1.96875 z m 50.8125,0.65625 c -1.45,-0.001 -2.91773,0.0506 -4.09375,0.15625 -2.35204,0.21124 -0.68125,0.40265 3.71875,0.40625 4.4,0.004 6.32921,-0.16012 4.28125,-0.375 -1.02398,-0.10744 -2.45625,-0.1863 -3.90625,-0.1875 z m -63.75,0.34375 c -0.1573,0.0234 -0.34002,0.10213 -0.5625,0.1875 -0.85357,0.32754 -1.5625,0.75259 -1.5625,0.96875 0,0.80991 1.91274,0.35645 2.5,-0.59375 0.26276,-0.42514 0.0969,-0.63285 -0.375,-0.5625 z M 281.75,154 c 0.77041,-0.0113 1.61851,0 2.5625,0 9.29532,0 12.6905,1.21575 10.21875,3.6875 -0.93333,0.93333 -1.1875,0.90357 -1.1875,-0.125 0,-1.07684 -0.31363,-1.05505 -1.6875,0.0625 -1.4948,1.21592 -1.61572,1.15973 -0.96875,-0.5625 0.69161,-1.84102 0.64768,-1.85425 -1.125,-0.25 -2.05287,1.85782 -3.69718,2.27063 -2.71875,0.6875 0.33992,-0.55 0.14496,-1 -0.4375,-1 -0.58246,0 -1.0625,0.45 -1.0625,1 0,0.55 -0.70504,1 -1.5625,1 -0.85748,0 -1.27742,-0.45 -0.9375,-1 0.33992,-0.55 0.14496,-1 -0.4375,-1 -0.58246,0 -1.0625,0.45 -1.0625,1 0,0.55 -0.48004,1 -1.0625,1 -0.58246,0 -0.72554,-0.5625 -0.3125,-1.25 0.57258,-0.95306 0.41192,-0.97413 -0.6875,-0.125 -2.1908,1.69206 -4.85968,1.35046 -4.15625,-0.53125 0.52454,-1.40318 0.37306,-1.43704 -1.34375,-0.15625 -1.87446,1.3984 -1.8841,1.3822 -0.15625,-0.5 1.32372,-1.44196 2.7321,-1.85807 8.125,-1.9375 z m -109.1875,1 c 7.32604,-9.2e-4 7.87914,0.31882 11.8125,6.90625 l 2.3125,3.90625 -10.65625,-0.59375 c -6.29745,-0.35662 -10.87452,-0.21323 -11.21875,0.34375 -0.72898,1.1795 -0.94932,1.13917 -6.75,-0.90625 -4.59644,-1.62078 -4.70919,-1.76047 -3.25,-3.84375 2.29997,-3.28366 10.05243,-5.81153 17.75,-5.8125 z m -27.75,0.53125 c 0.57316,-0.0264 0.37581,0.45112 -0.46875,1.46875 -1.37965,1.66238 -3,1.97698 -3,0.59375 0,-0.49116 0.69251,-1.16616 1.5625,-1.5 0.91735,-0.35202 1.56235,-0.54663 1.90625,-0.5625 z M 204.25,156.625 c -0.3474,-0.0143 -0.73282,0.0431 -1.09375,0.1875 -0.79773,0.31923 -0.5712,0.54577 0.59375,0.59375 1.05416,0.0434 1.64479,-0.16771 1.3125,-0.5 -0.16615,-0.16615 -0.4651,-0.26694 -0.8125,-0.28125 z m -36.28125,9.9375 c 1.17015,-0.0349 2.67928,0.63046 3.375,1.46875 0.69568,0.83829 1.0483,1.7642 0.75,2.0625 -0.2983,0.2983 -0.86365,0.0314 -1.25,-0.59375 -0.38636,-0.62513 -1.66253,-1.5234 -2.84375,-2 l -2.15625,-0.875 z m 23.71875,0.6875 c 30.31946,-0.11837 102.95352,0.40892 109.40625,0.875 7.62323,0.55063 8.32701,0.78537 8.875,2.96875 0.32661,1.3013 0.21958,26.55435 -0.21875,56.125 -0.43834,29.57065 -0.81205,66.73631 -0.84375,82.59375 l -0.0625,28.84375 -3.28125,2.90625 c -1.79617,1.60506 -4.29415,2.9375 -5.5625,2.9375 -1.26834,0 -4.28327,0.61405 -6.71875,1.375 -2.43548,0.76094 -7.3625,1.88075 -10.9375,2.5 -11.68735,2.02446 -77.16227,0.49167 -99.5,-2.34375 -9.74617,-1.23712 -8.97584,3.07191 -9.125,-51.84375 -0.072,-26.51349 -0.38683,-64.05786 -0.6875,-83.4375 -0.32919,-21.21847 -0.18359,-35.46727 0.375,-35.8125 0.51019,-0.31531 0.9375,-2.10746 0.9375,-4 l 0,-3.4375 7.25,-0.15625 c 2.28703,-0.0455 5.7624,-0.0768 10.09375,-0.0937 z m -26.34375,4.25 c 0.018,-0.0858 0.34771,0.12823 1,0.625 0.825,0.62832 2.4,1.38587 3.5,1.65625 1.89963,0.46694 1.89579,0.48357 -0.125,0.59375 -1.17015,0.0638 -2.74515,-0.6625 -3.5,-1.625 -0.59681,-0.761 -0.89302,-1.16415 -0.875,-1.25 z m 16,0.0937 c -0.99688,0 -1.99375,0.0729 -2.75,0.1875 -1.5125,0.22912 -0.275,0.40625 2.75,0.40625 3.025,0 4.2625,-0.17713 2.75,-0.40625 -0.75625,-0.11456 -1.75312,-0.1875 -2.75,-0.1875 z M 153.4375,173.25 c -0.44936,0.088 -0.2528,0.52848 0.9375,1.28125 0.80907,0.51167 2.14375,0.93719 2.96875,0.9375 0.82676,3.2e-4 0.37794,-0.58633 -1,-1.3125 -1.36389,-0.71877 -2.45689,-0.99426 -2.90625,-0.90625 z m -6.59375,5.0625 2.8125,2.59375 c 1.54317,1.42543 3.29525,2.59375 3.90625,2.59375 1.29355,0 1.33865,0.0468 -3.21875,-2.90625 z m 36.5,2.40625 -6.5,0.125 7.5,0.65625 c 11.38506,0.97104 14.38439,0.9478 9.5,-0.0625 -2.2,-0.45505 -6.925,-0.78614 -10.5,-0.71875 z m 17.875,0.90625 c -0.54375,-0.007 -1.13851,0.0607 -1.625,0.1875 -0.97297,0.25354 -0.4,0.47962 1.25,0.5 1.65,0.0204 2.42703,-0.19483 1.75,-0.46875 -0.33852,-0.13696 -0.83125,-0.21203 -1.375,-0.21875 z m -59.375,3.375 2.40625,2.75 c 1.33338,1.5125 3.35838,2.6888 4.5,2.625 2.01148,-0.11241 2.03187,-0.12489 0.0937,-0.59375 -1.1,-0.26611 -3.125,-1.4424 -4.5,-2.625 z m 43,3.625 c -5.49762,-0.0708 -7.5308,0.20884 -6.5,0.875 1.72282,1.11337 7.12452,1.11337 11.5,0 2.17132,-0.55251 0.79019,-0.8004 -5,-0.875 z m 13.40625,0 c -0.3474,-0.0143 -0.73282,0.0431 -1.09375,0.1875 -0.79773,0.31922 -0.5712,0.54575 0.59375,0.59375 1.05416,0.0434 1.64479,-0.1677 1.3125,-0.5 -0.16615,-0.16613 -0.4651,-0.26695 -0.8125,-0.28125 z m -123.4375,5.15625 c -0.05427,-0.009 -0.0902,-0.004 -0.125,0.0312 -0.27839,0.27839 0.25529,1.67103 1.1875,3.09375 2.325893,3.54976 2.850785,3.26031 0.90625,-0.5 -0.76972,-1.48847 -1.588864,-2.56544 -1.96875,-2.625 z m 61.40625,0.4375 c -0.0512,0.0553 0.65483,0.80234 1.96875,2.03125 1.91115,1.7875 3.9505,3.25 4.53125,3.25 0.58074,0 -0.0464,-0.74538 -1.40625,-1.65625 -1.35988,-0.91087 -3.39924,-2.37337 -4.53125,-3.25 -0.35376,-0.27395 -0.53922,-0.40014 -0.5625,-0.375 z m -51.5,0.28125 c -0.635432,0 0.529694,2.0285 2.4375,4.25 2.403252,2.79842 2.517613,2.02234 0.1875,-1.25 -1.174904,-1.65 -2.354993,-3 -2.625,-3 z m 39.125,0.5 1.90625,2.25 c 1.04774,1.2375 2.06024,2.25 2.25,2.25 0.80025,0 0.20819,-0.80353 -1.90625,-2.59375 z m -23.25,1 c -0.10215,0.0356 -0.17149,0.28508 -0.1875,0.71875 -0.0349,0.94337 1.32428,3.30587 3.03125,5.25 1.70698,1.94414 3.36658,3.53125 3.6875,3.53125 0.32093,0 -0.58488,-1.2375 -2.03125,-2.75 -1.44636,-1.5125 -3.07833,-3.875 -3.625,-5.25 -0.41886,-1.0535 -0.70475,-1.55929 -0.875,-1.5 z m 94.9375,3.5625 c -5.60211,0.0683 -9.93921,0.51091 -9.65625,0.96875 0.48315,0.78176 18.45683,0.14556 19.40625,-0.6875 0.24165,-0.21206 -4.14789,-0.34955 -9.75,-0.28125 z m -82.65625,0.0312 c -0.53121,-0.0593 1.48133,2.38125 4.46875,5.40625 2.98742,3.025 5.63579,5.5 5.875,5.5 0.84901,0 -9.39413,-10.80019 -10.34375,-10.90625 z M 90.28125,201.5 c -0.582459,0 -0.777419,0.45 -0.4375,1 0.339919,0.55 0.819959,1 1.0625,1 0.242541,0 0.4375,-0.45 0.4375,-1 0,-0.55 -0.480041,-1 -1.0625,-1 z m 43.0625,2 c -0.0516,0.0516 0.25306,0.45697 0.875,1.25 0.75485,0.9625 1.54235,1.75 1.75,1.75 0.82304,0 0.29075,-0.81863 -1.375,-2.125 -0.79303,-0.62193 -1.19838,-0.92662 -1.25,-0.875 z m 55.125,3.71875 c -2.4209,0.0153 -4.12575,0.22188 -4.125,0.53125 0.001,0.4125 4.3875,0.68175 9.75,0.59375 10.03228,-0.16467 8.8652,-0.57756 -3,-1.0625 -0.92841,-0.0379 -1.81803,-0.0676 -2.625,-0.0625 z M 95.34375,207.5 c -0.05162,0.0516 0.253067,0.45697 0.875,1.25 0.75485,0.9625 1.54235,1.75 1.75,1.75 0.82304,0 0.29075,-0.81863 -1.375,-2.125 -0.793028,-0.62193 -1.198384,-0.92662 -1.25,-0.875 z m 14,0 c -0.0516,0.0516 0.25306,0.45697 0.875,1.25 0.75485,0.9625 1.54235,1.75 1.75,1.75 0.82304,0 0.29075,-0.81863 -1.375,-2.125 -0.79303,-0.62193 -1.19838,-0.92662 -1.25,-0.875 z m 96.90625,0.125 c -0.3474,-0.0143 -0.73282,0.0431 -1.09375,0.1875 -0.79773,0.31922 -0.5712,0.54575 0.59375,0.59375 1.05416,0.0434 1.64479,-0.1677 1.3125,-0.5 -0.16615,-0.16612 -0.4651,-0.26695 -0.8125,-0.28125 z m -81.71875,3.4375 c -0.44825,0.0147 0.52257,0.88888 3.0625,2.4375 1.7875,1.08986 3.65208,1.998 4.15625,2 1.13969,0.005 0.96325,-0.13649 -3.65625,-2.78125 -2.00943,-1.15043 -3.21386,-1.66771 -3.5625,-1.65625 z m 65.84375,5.15625 c -2.95881,0.0177 -5.032,0.22188 -5.03125,0.53125 0.001,0.4125 5.2875,0.655 11.75,0.5625 12.17523,-0.17419 10.78639,-0.5962 -3.5,-1.0625 -1.1347,-0.037 -2.23248,-0.0371 -3.21875,-0.0312 z m 21.96875,0.40625 c -0.63437,0 -1.26875,0.0617 -1.75,0.1875 -0.9625,0.25153 -0.175,0.4375 1.75,0.4375 1.925,0 2.7125,-0.18597 1.75,-0.4375 -0.48125,-0.12576 -1.11563,-0.1875 -1.75,-0.1875 z M 194.25,226.21875 c -1.70332,0.008 -2.90625,0.21891 -2.90625,0.53125 0,0.41647 3.0375,0.6999 6.75,0.625 6.99483,-0.14112 6.21716,-0.5756 -2,-1.09375 -0.65312,-0.0412 -1.27598,-0.0651 -1.84375,-0.0625 z m 12,5.40625 c -0.3474,-0.0143 -0.73282,0.0431 -1.09375,0.1875 -0.79773,0.31922 -0.5712,0.54575 0.59375,0.59375 1.05416,0.0434 1.64479,-0.16771 1.3125,-0.5 -0.16615,-0.16613 -0.4651,-0.26695 -0.8125,-0.28125 z m -13.03125,1 c -0.725,-0.004 -1.50304,0.0367 -2.125,0.15625 -1.24391,0.23919 -0.45,0.45765 1.75,0.46875 2.19996,0.0111 3.20609,-0.18721 2.25,-0.4375 -0.47805,-0.12516 -1.15,-0.18384 -1.875,-0.1875 z m 27.03125,0 c -0.3474,-0.0143 -0.73282,0.0431 -1.09375,0.1875 -0.79773,0.31922 -0.5712,0.54575 0.59375,0.59375 1.05416,0.0434 1.64479,-0.16771 1.3125,-0.5 -0.16615,-0.16613 -0.4651,-0.26695 -0.8125,-0.28125 z m -25.46875,7.59375 c -3.57104,0.0144 -5.97306,0.22188 -5.78125,0.53125 0.25575,0.4125 6.17621,0.68175 13.15625,0.59375 13.88732,-0.17512 12.41233,-0.6269 -3.46875,-1.0625 -1.39645,-0.0383 -2.7159,-0.0673 -3.90625,-0.0625 z m 22.5625,0.40625 c -0.45313,0 -0.90625,0.08 -1.25,0.21875 -0.6875,0.27741 -0.125,0.5 1.25,0.5 1.375,0 1.9375,-0.22259 1.25,-0.5 -0.34375,-0.13871 -0.79687,-0.21875 -1.25,-0.21875 z m -25.0625,7.5625 c -0.97972,-0.0303 -1.55256,0.16214 -1.34375,0.5 0.49551,0.80176 5.40625,1.19948 5.40625,0.4375 0,-0.21258 -1.31654,-0.60584 -2.9375,-0.84375 -0.40524,-0.0595 -0.79843,-0.0836 -1.125,-0.0937 z m 24.9375,0.4375 c -0.725,-0.004 -1.50304,0.0367 -2.125,0.15625 -1.24391,0.23919 -0.45,0.45765 1.75,0.46875 2.19996,0.0111 3.20609,-0.18721 2.25,-0.4375 -0.47805,-0.12516 -1.15,-0.18384 -1.875,-0.1875 z m -24.875,7 c -0.81562,0 -1.63125,0.0371 -2.25,0.15625 -1.2375,0.23835 -0.225,0.4375 2.25,0.4375 2.475,0 3.4875,-0.19915 2.25,-0.4375 -0.61875,-0.11918 -1.43438,-0.15625 -2.25,-0.15625 z m 0.25,5.9375 c -3.4375,-0.0434 -6.25,0.31198 -6.25,0.78125 0,0.46924 2.3625,0.67535 5.25,0.4375 7.70755,-0.63491 8.10119,-1.12905 1,-1.21875 z m 10.625,0.0625 c -0.54375,-0.007 -1.13851,0.0607 -1.625,0.1875 -0.97297,0.25354 -0.4,0.4796 1.25,0.5 1.65,0.0204 2.42703,-0.19482 1.75,-0.46875 -0.33852,-0.13699 -0.83125,-0.21203 -1.375,-0.21875 z m 9.125,0 c -0.63437,0 -1.26875,0.0617 -1.75,0.1875 -0.9625,0.25153 -0.175,0.4375 1.75,0.4375 1.925,0 2.7125,-0.18597 1.75,-0.4375 -0.48125,-0.12576 -1.11563,-0.1875 -1.75,-0.1875 z m -22.5,8.03125 c -2.96608,0.11502 -2.96042,0.11536 0.5,0.84375 5.11209,1.07605 5.66506,1.07605 4,0 -0.825,-0.53316 -2.85,-0.90775 -4.5,-0.84375 z m -1.5,7.96875 c -0.63437,0 -1.26875,0.0617 -1.75,0.1875 -0.9625,0.25153 -0.175,0.4375 1.75,0.4375 1.925,0 2.7125,-0.18597 1.75,-0.4375 -0.48125,-0.12576 -1.11563,-0.1875 -1.75,-0.1875 z m 13,0 c -0.63437,0 -1.26875,0.0617 -1.75,0.1875 -0.9625,0.25153 -0.175,0.4375 1.75,0.4375 1.925,0 2.7125,-0.18597 1.75,-0.4375 -0.48125,-0.12576 -1.11563,-0.1875 -1.75,-0.1875 z m 16.875,0 c -0.54375,-0.007 -1.13851,0.0607 -1.625,0.1875 -0.97297,0.25354 -0.4,0.4796 1.25,0.5 1.65,0.0204 2.42703,-0.19482 1.75,-0.46875 -0.33852,-0.13699 -0.83125,-0.21203 -1.375,-0.21875 z m -27,8 c -0.90625,-0.002 -1.86497,0.0413 -2.625,0.15625 -1.52006,0.22985 -0.5,0.4295 2.25,0.4375 2.75005,0.007 3.97994,-0.20014 2.75,-0.4375 -0.61497,-0.11866 -1.46875,-0.15378 -2.375,-0.15625 z m -2.96875,11 c -0.3474,-0.0143 -0.73282,0.0431 -1.09375,0.1875 -0.79773,0.31922 -0.5712,0.54575 0.59375,0.59375 1.05416,0.0434 1.64479,-0.16771 1.3125,-0.5 -0.16615,-0.16613 -0.4651,-0.26695 -0.8125,-0.28125 z m -7.03125,1.875 c -1.2088,0 -0.63619,28.79291 0.6875,34.3125 0.75823,3.16174 3.93108,5.57302 8.71875,6.6875 1.77372,0.41286 4.79375,0.59999 6.71875,0.40625 12.6897,-1.2771 15,-1.63285 15,-2.375 0,-0.45702 -5.39055,-0.7716 -11.96875,-0.6875 -15.49468,0.19809 -16.18906,-0.33908 -16.84375,-12.8125 l -0.4375,-8.53125 4.375,-0.1875 4.375,-0.15625 -4.25,-0.40625 c -4.08517,-0.36794 -4.25,-0.50485 -4.25,-3.75 0,-2.91533 0.3753,-3.42151 2.75,-3.78125 2.55956,-0.38774 2.52493,-0.42304 -0.5,-0.5625 -3.10003,-0.14292 -3.25,-0.34083 -3.25,-4.15625 0,-2.31066 -0.47116,-4 -1.125,-4 z m 12.125,8.125 c -0.45313,0 -0.90625,0.08 -1.25,0.21875 -0.6875,0.27741 -0.125,0.5 1.25,0.5 1.375,0 1.9375,-0.22259 1.25,-0.5 -0.34375,-0.1387 -0.79687,-0.21875 -1.25,-0.21875 z m 10.90625,7 c -0.3474,-0.0143 -0.73282,0.0431 -1.09375,0.1875 -0.79773,0.31922 -0.5712,0.54575 0.59375,0.59375 1.05416,0.0434 1.64479,-0.16771 1.3125,-0.5 -0.16615,-0.16613 -0.4651,-0.26695 -0.8125,-0.28125 z m -9,1 c -0.3474,-0.0143 -0.73282,0.0431 -1.09375,0.1875 -0.79773,0.31922 -0.5712,0.54575 0.59375,0.59375 1.05416,0.0434 1.64479,-0.16771 1.3125,-0.5 -0.16615,-0.16613 -0.4651,-0.26695 -0.8125,-0.28125 z m -7.03125,8 c -0.725,-0.004 -1.50304,0.0367 -2.125,0.15625 -1.24391,0.23919 -0.45,0.45765 1.75,0.46875 2.19996,0.0111 3.20609,-0.18721 2.25,-0.4375 -0.47805,-0.12516 -1.15,-0.18384 -1.875,-0.1875 z m 9,0 c -0.54375,-0.007 -1.13851,0.0607 -1.625,0.1875 -0.97297,0.25354 -0.4,0.4796 1.25,0.5 1.65,0.0204 2.42703,-0.19482 1.75,-0.46875 -0.33852,-0.13698 -0.83125,-0.21203 -1.375,-0.21875 z m 6.125,5 c -0.63438,0 -1.26875,0.0617 -1.75,0.1875 -0.9625,0.25153 -0.175,0.4375 1.75,0.4375 1.925,0 2.7125,-0.18597 1.75,-0.4375 -0.48125,-0.12576 -1.11562,-0.1875 -1.75,-0.1875 z m -12.09375,1 c -0.3474,-0.0143 -0.73282,0.0431 -1.09375,0.1875 -0.79773,0.31922 -0.5712,0.54575 0.59375,0.59375 1.05416,0.0434 1.64479,-0.16771 1.3125,-0.5 -0.16615,-0.16613 -0.4651,-0.26695 -0.8125,-0.28125 z m 39.09375,0 c -0.45313,0 -0.90625,0.08 -1.25,0.21875 -0.6875,0.27741 -0.125,0.5 1.25,0.5 1.375,0 1.9375,-0.22259 1.25,-0.5 -0.34375,-0.13871 -0.79687,-0.21875 -1.25,-0.21875 z m -24.125,4.96875 c -1.0875,-0.002 -2.22633,0.0762 -3.125,0.1875 -1.79735,0.22256 -0.55,0.40025 2.75,0.40625 3.30001,0.006 4.75265,-0.17807 3.25,-0.40625 -0.75132,-0.11408 -1.7875,-0.18565 -2.875,-0.1875 z m 13,1.03125 c -0.90625,-0.002 -1.86497,0.0413 -2.625,0.15625 -1.52006,0.22985 -0.5,0.4295 2.25,0.4375 2.75005,0.007 3.97994,-0.20014 2.75,-0.4375 -0.61497,-0.11866 -1.46875,-0.15378 -2.375,-0.15625 z m 13,1 c -0.54375,-0.007 -1.13851,0.0607 -1.625,0.1875 -0.97297,0.25354 -0.4,0.4796 1.25,0.5 1.65,0.0204 2.42703,-0.19482 1.75,-0.46875 -0.33852,-0.13698 -0.83125,-0.21203 -1.375,-0.21875 z m 5.3125,1 c -1.51172,0.10371 -1.51297,0.15154 0.0625,0.5625 0.96924,0.25283 1.46047,0.9379 1.09375,1.53125 -0.39972,0.64676 -0.20191,0.80881 0.5,0.375 1.56406,-0.96664 0.46346,-2.61416 -1.65625,-2.46875 z m -37.09375,4.4375 c -0.67784,0.0648 -1.09375,0.24045 -1.09375,0.5 0,0.51542 1.86458,0.9375 4.15625,0.9375 4.93483,0 4.78628,-0.51123 -0.40625,-1.3125 -1.03863,-0.16028 -1.97841,-0.18979 -2.65625,-0.125 z m 12.09375,0.59375 c -0.84872,-0.025 -1.30774,0.0326 -1.125,0.21875 0.31071,0.31646 3.01071,1.00417 6,1.5 7.11074,1.17946 10.30173,1.22246 6.53125,0.0937 -2.81755,-0.84345 -8.86009,-1.73742 -11.40625,-1.8125 z m 36.0625,1.90625 c -0.75543,0 -1.25,0.3053 -1.25,0.9375 0,0.55 1.2375,0.97675 2.75,0.96875 2.14294,-0.0119 2.41887,-0.21337 1.25,-0.96875 -0.97826,-0.6322 -1.99457,-0.9375 -2.75,-0.9375 z m -7.375,1.0625 c -0.54375,-0.007 -1.13851,0.0607 -1.625,0.1875 -0.97297,0.25354 -0.4,0.4796 1.25,0.5 1.65,0.0204 2.42703,-0.19482 1.75,-0.46875 -0.33852,-0.13698 -0.83125,-0.21203 -1.375,-0.21875 z m 22.4375,0.96875 c -3.37802,0.0884 -3.52962,0.1962 -1.3125,0.90625 3.51081,1.12436 3.80511,1.12436 4.5,0 0.37421,-0.60549 -0.88119,-0.96665 -3.1875,-0.90625 z"
     id="path27306"
     inkscape:connector-curvature="0"
     sodipodi:nodetypes="csssssssssssssssssssssscsssssssssssccccccsssssssssssssssssssssscccsssscccsssssscccsssssscssssssssssssccssscssssssssscccscssssscscsssssssscscssssssscsccscssscssssssssssscccscccsssssssssssscssssssssssscsssssssssssscssssssssscccssssssssssssssssssssssssssssssssssssscssssssscccscccssssssssssssssssssssssscssssssssssssssssssssssssssssssssssssssssssssssscsssssssssssssssssssssssssssssssssssssssssssssssssssssssssccccssssssssssssscccsssssssssssssssscssssssssssscsssssssscsssscsssssssssssssssssssssssssssssssssssscccssssssssssssssccsscccsssscccssssssssccsssssssssssssssssccscccccscssscsccssccssssscccsccssccsssscscssccscccssssscsscssssssssssssssssssssssssssssssscccscscscsssssssssssssssssscsssscsssscssscssscscsssscsssssssssssssscsscssssssssssssssssssscsssccsssccsssccssscssscccccsssssscscsssccssscssssscssscssssscssscssscscsssccsssccssscssssssscssscscssssscscssccccssccssc" />
  <path
     style="fill:#fffa00;fill-opacity:0.68811879;stroke:none;filter:url(#filter27940)"
     d="m 217.02861,86.165254 c -3.23557,-12.127693 -5.7431,-24.498063 -4.36971,-38.162077 3.66103,-54.487767 17.84898,-27.322974 26.21822,-0.582627 0.65877,12.943776 1.79951,25.96788 -2.0392,38.162077 -8.5168,-12.561035 -11.55438,-20.256517 -19.80931,0.582627 z"
     id="path27938"
     inkscape:connector-curvature="0"
     sodipodi:nodetypes="ccccc" />
  <path
     style="fill:#0038ff;fill-opacity:0.38118813;stroke:none;filter:url(#filter28020)"
     d="m 218.76116,97.157024 c 0.0328,-9.441847 -2.35918,-18.883693 -4.43585,-28.32554 l 23.66909,-0.71902 c -1.25044,9.09853 -4.53907,18.19706 -0.69416,27.29559 -5.6763,-3.444126 -10.78708,-11.412477 -18.53908,1.74897 z"
     id="path27988"
     inkscape:connector-curvature="0"
     sodipodi:nodetypes="ccccc" />
  <path
     style="fill:#ff0015;fill-opacity:0.38118813;stroke:none;filter:url(#filter28016)"
     d="m 213.92412,75.457337 c 9.99334,-51.67999 15.92397,-28.584053 23.30508,-0.582627 -6.25179,-4.277857 -12.25551,-8.293062 -23.30508,0.582627 z"
     id="path28002"
     inkscape:connector-curvature="0"
     sodipodi:nodetypes="ccc" />
</svg>
