<?xml version="1.0" encoding="UTF-8" standalone="no"?>
<!-- Created with Inkscape (http://www.inkscape.org/) -->

<svg
   xmlns:dc="http://purl.org/dc/elements/1.1/"
   xmlns:cc="http://creativecommons.org/ns#"
   xmlns:rdf="http://www.w3.org/1999/02/22-rdf-syntax-ns#"
   xmlns:svg="http://www.w3.org/2000/svg"
   xmlns="http://www.w3.org/2000/svg"
   xmlns:sodipodi="http://sodipodi.sourceforge.net/DTD/sodipodi-0.dtd"
   xmlns:inkscape="http://www.inkscape.org/namespaces/inkscape"
   id="svg13035"
   version="1.1"
   inkscape:version="0.48.4 r9939"
   width="333"
   height="335"
   sodipodi:docname="TomeofKnowledge.png">
  <metadata
     id="metadata13041">
    <rdf:RDF>
      <cc:Work
         rdf:about="">
        <dc:format>image/svg+xml</dc:format>
        <dc:type
           rdf:resource="http://purl.org/dc/dcmitype/StillImage" />
        <dc:title></dc:title>
      </cc:Work>
    </rdf:RDF>
  </metadata>
  <defs
     id="defs13039" />
  <sodipodi:namedview
     pagecolor="#ffffff"
     bordercolor="#666666"
     borderopacity="1"
     objecttolerance="10"
     gridtolerance="10"
     guidetolerance="10"
     inkscape:pageopacity="0"
     inkscape:pageshadow="2"
     inkscape:window-width="1276"
     inkscape:window-height="745"
     id="namedview13037"
     showgrid="false"
     inkscape:zoom="0.99628179"
     inkscape:cx="230.67645"
     inkscape:cy="56.083748"
     inkscape:window-x="0"
     inkscape:window-y="22"
     inkscape:window-maximized="0"
     inkscape:current-layer="svg13035" />
  <path
     style="fill:#fffeb8;fill-opacity:0.59405942;stroke:none"
     d="m 181.92644,297.61098 c -9.28178,3.46232 -18.7358,7.48444 -24.3405,-1.00373 -2.34469,-13.13216 -1.08499,-26.26433 1.75653,-39.39649 12.45601,-12.32369 26.58267,-17.9648 39.89835,-26.84983 36.8916,-18.00899 74.6696,-34.42246 113.92359,-48.17914 l -3.26213,13.04852 c 0.71135,10.95741 -0.88759,21.91481 2.76026,32.87222 l 2.50933,4.5168 -8.02985,7.02612 c -32.20307,14.7214 -66.83535,34.30122 -96.60922,44.16421 -6.93896,-4.66952 -4.59198,-11.02738 -6.77519,-16.56158 l -12.54665,4.26587 -9.03359,-5.52053 -11.54292,7.02612 c 4.58746,2.98418 9.73631,4.42451 12.54666,12.29572 0.18333,4.8806 2.84064,12.97736 -1.25467,12.29572 z"
     id="path13592"
     inkscape:connector-curvature="0"
     sodipodi:nodetypes="cccccccccccccccc" />
  <path
     style="fill:#ff2500;fill-opacity:1;stroke:none"
     d="m 191.71283,272.26674 12.04478,-5.26959 5.01866,20.07464 c 5.66783,3.60925 11.03415,9.93218 17.31438,8.02986 -0.88652,2.6064 -6.3391,3.38638 -10.28825,4.76773 l 12.79758,3.76399 c -7.21862,0.76201 -7.5717,8.65362 -30.86476,-7.27706 z"
     id="path13590"
     inkscape:connector-curvature="0"
     sodipodi:nodetypes="cccccccc" />
  <path
     style="fill:#0031ff;fill-opacity:1;stroke:none"
     d="m 171.38725,272.51768 12.29572,-5.52053 c 6.80174,0.50587 10.15238,11.36505 12.29572,25.8461 3.95638,36.76991 -12.01619,49.22768 -14.05225,55.4562 l 1.25467,-20.57651 -8.78266,6.77519 c 4.34946,-10.58707 10.30423,-18.19283 10.28825,-36.88715 1.13159,-9.82884 -1.75697,-18.59974 -13.29945,-25.0933 z"
     id="path13588"
     inkscape:connector-curvature="0"
     sodipodi:nodetypes="cccccccc" />
  <path
     style="fill:#006901;fill-opacity:0.52475251;stroke:none"
     d="m 210.08475,283.89831 c 2.59579,-3.27017 1.89089,4.92224 86.31331,-39.62231 6.08448,-3.21041 16.12505,-5.28688 19.08393,-12.89888 l -3.54873,-5.32309 14.54979,1.77436 -2.83898,5.32309 c -33.38578,20.71432 -72.93347,37.83418 -111.78496,55.36017 z"
     id="path13586"
     inkscape:connector-curvature="0"
     sodipodi:nodetypes="cscccccc" />
  <path
     style="fill:#006901;fill-opacity:0.52475251;stroke:none"
     d="M 53.585805,88.71822 150.4661,40.810381 c 35.02976,13.201688 65.83223,39.085222 97.23517,63.167369 28.54145,20.71567 52.5858,44.00112 74.52331,68.49047 l -1.41949,5.67797 -119.94704,51.10169 c -15.92039,1.57691 -53.71029,-39.5438 -88.71822,-75.23305 C 92.173472,132.18524 67.675997,109.70835 53.585805,88.71822 z"
     id="path13584"
     inkscape:connector-curvature="0"
     sodipodi:nodetypes="cccccccc" />
  <path
     style="fill:#0049ff;stroke:none;stroke-width:1px;stroke-linecap:butt;stroke-linejoin:miter;stroke-opacity:1;fill-opacity:0.27722773000000001"
     d="m 40.278072,164.83845 -0.354873,-9.759 10.646187,-25.55085 2.661546,-1.77436 3.726166,1.41949 -5.50053,16.14671 -4.96822,16.50159 0.709745,10.64619 -4.613347,-1.41949 z"
     id="path13582"
     inkscape:connector-curvature="0" />
  <path
     style="fill:#0049ff;stroke:none;stroke-width:1px;stroke-linecap:butt;stroke-linejoin:miter;stroke-opacity:1;fill-opacity:0.27722773"
     d="m 59.263771,177.08157 c 0,0.70974 1.596928,11.7108 1.596928,11.7108 l 2.306674,5.85541 3.903602,-0.88719 -2.48411,-6.74258 9.049258,-21.82468 3.726165,-16.85647 -2.661546,-2.48411 -3.903602,2.66155 z"
     id="path13580"
     inkscape:connector-curvature="0" />
  <path
     style="fill:#0049ff;fill-opacity:0.27722772;stroke:none"
     d="m 82.153072,216.82733 c 2.870544,8.10661 4.261292,-11.00827 8.516949,-18.27595 l 8.871822,-20.05032 c 0.07813,-8.77383 1.491037,-7.76623 -6.742584,-6.03284 -4.93069,14.8603 -16.020279,30.71719 -10.646187,44.35911 z"
     id="path13578"
     inkscape:connector-curvature="0"
     sodipodi:nodetypes="ccccc" />
  <path
     style="fill:#0049ff;fill-opacity:0.27722772;stroke:none"
     d="m 124.56038,264.3803 c 2.95768,4.9391 1.87534,10.29131 7.98464,10.29131 -4.87405,-18.96579 13.07909,-36.70744 11.00106,-50.21451 -11.26144,6.69119 -15.65703,29.40612 -18.9857,39.9232 z"
     id="path13574"
     inkscape:connector-curvature="0"
     sodipodi:nodetypes="cccc" />
  <path
     style="fill:#0049ff;fill-opacity:0.63366334;stroke:none"
     d="M 52.53125,87.3125 29.09375,101.5 c -2.457233,13.94818 -6.405004,27.74074 -0.71875,42.59375 l 10.65625,15.59375 c 0.14798,0.17494 0.28963,0.35623 0.4375,0.53125 C 42.422567,148.65173 47.313459,136.98064 52,127.9375 c 2.978925,-2.39511 3.966972,1.18242 5.65625,2.65625 -7.107158,10.22131 -9.023172,24.218 -11.0625,38.125 4.508642,5.42885 7.904097,11.40637 12.341631,16.87606 0.921054,-12.75685 7.590362,-25.48579 11.877119,-37.62606 1.440042,-1.41031 2.943072,-2.66315 5.3125,-1.75 2.515178,3.13163 0.748171,5.65152 0.1875,8.34375 L 63.75,189.71875 c 5.138469,6.36001 9.254077,13.60896 15.197564,19.98093 L 93.34375,171.75 99,171.59375 l 1.0625,5.3125 c -5.617717,13.05255 -12.799379,25.23219 -14.9375,39.3125 0.970236,0.76898 18.61061,22.79347 15.65943,18.18962 3.45324,-11.59365 7.15522,-23.23705 17.55932,-36.22087 5.09778,-0.77005 4.52348,2.24129 4.09375,5.15625 l -13.5,26.4375 -1.6875,13.65625 c 6.11149,7.36268 11.77039,12.71962 18.09269,19.95445 L 132.53125,237.75 c 3.30651,-4.48459 4.7022,-12.02649 10.125,-13.125 l 3.03125,5.15625 -13.5,25.5625 -0.625,16.46875 c 8.38429,9.40569 17.00651,18.64734 26,27.6875 -0.68617,-31.15343 -2.75903,-40.41921 4.96875,-45.40625 L 199.4375,229.25 c -10.73811,-3.4703 -22.68886,-10.94203 -32.03125,-20.125 -18.07501,-17.76659 -35.75649,-34.93936 -54.25,-53.96875 C 97.175255,138.71218 79.361821,120.41878 62.324224,101.63535 58.176063,97.062129 56.09689,92.304853 52.53125,87.3125 z"
     id="path13047"
     inkscape:connector-curvature="0"
     sodipodi:nodetypes="ccccccccccccccccccccccccccccccccsssc" />
  <path
     style="fill:#0049ff;stroke:none;stroke-width:1px;stroke-linecap:butt;stroke-linejoin:miter;stroke-opacity:1;fill-opacity:0.63366336000000001"
     d="m 166.08051,300.9322 18.80826,-3.19385 -1.77436,4.96822 -10.64619,1.06462 z"
     id="path13557"
     inkscape:connector-curvature="0" />
  <path
     style="fill:#000000"
     d="m 175.88694,352.27898 c -0.32287,-0.5224 0.31614,-1.43318 1.42001,-2.02396 2.51265,-1.34473 5.28041,-10.46758 4.85841,-16.0139 l -0.30943,-4.06696 -3.80145,3.14254 c -2.0908,1.7284 -4.05407,2.88992 -4.36283,2.58116 -0.30876,-0.30876 1.03261,-4.2981 2.98081,-8.86521 2.72971,-6.39917 6.68347,-20.68253 6.68347,-24.14472 0,-0.23385 -1.77846,0.18754 -3.95214,0.93644 -5.51134,1.89881 -16.39953,0.47062 -21.63752,-2.83815 -3.32542,-2.10063 -9.19748,-8.02014 -21.831,-22.00741 -1.36611,-1.5125 -3.37469,-2.75 -4.4635,-2.75 -2.26004,0 -5.49673,-4.14735 -6.51303,-8.3455 -0.37887,-1.56503 -2.9552,-5.61503 -5.72519,-9 -2.76998,-3.38498 -5.67122,-6.942 -6.44719,-7.9045 -0.77597,-0.9625 -2.05025,-1.75 -2.83175,-1.75 -1.93408,0 -6.1895,-5.22643 -7.73471,-9.49965 -0.69616,-1.92519 -1.77811,-3.50035 -2.404341,-3.50035 -0.62623,0 -1.66631,-1.15821 -2.3113,-2.57381 -2.23842,-4.91279 -7.5736,-10.52072 -11.77866,-12.38082 -3.87448,-1.71386 -7.36967,-5.99163 -7.36967,-9.01976 0,-0.59054 -2.1375,-4.16796 -4.75,-7.94982 -3.44114,-4.98141 -5.51917,-7.0368 -7.5414,-7.45924 -2.00491,-0.41881 -3.27282,-1.65659 -4.5,-4.39303 -0.93973,-2.09545 -3.09761,-5.59047 -4.79528,-7.76672 -1.69768,-2.17624 -3.9322,-5.4193 -4.96561,-7.2068 -1.27218,-2.20051 -2.63202,-3.25 -4.21106,-3.25 -3.22026,0 -6.79307,-4.1813 -8.13853,-9.52462 -0.6198,-2.46146 -1.49189,-4.47538 -1.93798,-4.47538 -1.00487,0 -9.63537,-13.51517 -11.20421,-17.54557 -2.94095,-7.55534 -2.0788,-30.94784 1.29748,-35.20443 2.00939,-2.53331 2.59845,-1.14107 1.05773,2.5 -0.87274,2.0625 -1.92613,6.675 -2.34087,10.25 -0.88324,7.61352 0.7492,21.95048 2.25909,19.84054 0.7117,-0.99454 0.80773,-0.8725 0.37205,0.47281 -0.67126,2.07275 2.05559,8.01667 3.31943,7.23558 0.45961,-0.28406 1.20016,0.93873 1.64567,2.7173 0.73271,2.9252 0.87099,2.61353 1.44915,-3.26623 l 0.63915,-6.5 0.18791,7.5 c 0.10335,4.125 0.62413,8.175 1.15728,9 0.78388,1.21296 0.97231,1.06944 0.98469,-0.75 0.008,-1.2375 0.37198,-2.25 0.80791,-2.25 0.43593,0 1.34774,-2.07561 2.02624,-4.61247 0.67851,-2.53686 2.04223,-6.47436 3.0305,-8.75 0.98827,-2.27564 2.61426,-6.03773 3.6133,-8.36019 l 1.81645,-4.22265 -2.86524,-3.77734 c -1.57588,-2.07754 -5.57618,-6.61589 -8.88954,-10.08523 -6.22663,-6.51973 -7.77359,-8.79813 -5.39931,-7.95224 0.75625,0.26943 2.275,0.027 3.375,-0.53872 1.79757,-0.92449 1.85906,-0.85775 0.6075,0.65929 -1.85681,2.25069 -0.83276,3.07391 2.05686,1.65346 l 2.33564,-1.14814 -2.38603,1.92403 c -3.29419,2.65633 -1.19591,3.54639 2.73086,1.15838 4.29766,-2.61357 5.5201,-2.4684 1.40517,0.16687 -6.59772,4.22529 -2.68141,5.39416 4.32193,1.28993 5.78469,-3.39005 5.73012,-2.51801 -0.0719,1.14943 -2.475,1.56443 -4.5,3.20468 -4.5,3.64501 0,1.27462 1.27912,0.93369 4.5,-1.19942 1.65,-1.09275 3.44196,-1.98978 3.98214,-1.99341 0.54017,-0.004 -0.74126,1.16449 -2.84762,2.5958 -4.99613,3.39495 -3.46893,5.41249 1.76119,2.32665 2.02933,-1.19734 3.87771,-1.98895 4.10751,-1.75915 0.22981,0.2298 -1.13941,1.25645 -3.04269,2.28144 -1.90329,1.02499 -3.46053,2.25155 -3.46053,2.7257 0,1.11262 5.00785,0.21513 6.36341,-1.14044 0.57013,-0.57012 1.72743,-1.03659 2.57178,-1.03659 0.84436,0 -0.25814,0.9519 -2.45,2.11534 -4.91998,2.61152 -4.82665,2.52315 -4.02857,3.81447 0.44367,0.71787 1.64796,0.55036 3.7102,-0.51607 1.67932,-0.86841 2.78374,-1.14275 2.45426,-0.60964 -0.32948,0.53311 0.071,1.52538 0.88993,2.20504 0.81895,0.67966 1.48899,1.84153 1.48899,2.58192 0,0.80571 0.7026,1.14561 1.75,0.84663 0.9625,-0.27475 0.7375,0.0331 -0.5,0.6842 -3.32912,1.75147 -2.9681,4.2578 0.5,3.47118 2.4125,-0.5472 2.54423,-0.4615 1.0733,0.69824 -1.54646,1.2193 -1.48258,1.57001 0.82248,4.51533 1.37455,1.75635 2.9098,3.19336 3.41168,3.19336 0.50187,0 3.10653,-1.35 5.78812,-3 2.68159,-1.65 5.26177,-3 5.73373,-3 0.47197,0 -1.79646,1.66045 -5.04094,3.68988 -3.24448,2.02944 -5.3679,3.86694 -4.71871,4.08334 1.58736,0.52912 1.50742,2.22678 -0.10486,2.22678 -0.70687,0 -3.27853,-2.25 -5.7148,-5 -2.43627,-2.75 -4.73778,-5 -5.11447,-5 -0.37669,0 -1.8955,3.7125 -3.37512,8.25 -2.91976,8.95392 -4.54922,26.98995 -2.55002,28.22552 0.61722,0.38146 1.0874,-0.49878 1.15723,-2.1665 0.0807,-1.92687 0.35921,-1.3836 0.88691,1.72993 0.42312,2.49642 1.90232,6.20854 3.28712,8.24916 l 2.51782,3.71021 -0.50055,-3.74916 c -0.2753,-2.06204 -0.048,-5.32416 0.50508,-7.24916 0.63063,-2.19485 1.05727,-2.7542 1.14412,-1.5 0.0762,1.1 2.0529,-3.175 4.39273,-9.5 2.33982,-6.325 4.7926,-12.48202 5.45063,-13.68228 2.3876,-4.35505 9.19852,-4.17019 9.19852,0.24967 0,2.78552 0.70524,2.97014 3.44113,0.90081 1.06762,-0.80751 2.3952,-1.4682 2.95017,-1.4682 0.55497,0 -0.88104,1.22555 -3.19113,2.72344 -4.12293,2.67336 -5.89073,5.86252 -2.53612,4.57524 1.12348,-0.43112 1.42774,-0.25621 0.93662,0.53844 -1.09273,1.76807 1.9553,2.51332 5.38682,1.31709 3.87736,-1.35166 3.86692,-0.6474 -0.0202,1.3627 -1.66798,0.86255 -2.76969,1.99382 -2.44824,2.51394 0.32558,0.52679 3.32999,-0.42479 6.7827,-2.14825 6.99431,-3.49131 6.67665,-2.41013 -0.37592,1.27948 -5.9254,3.09991 -5.5544,5.66539 0.40117,2.77411 3.88181,-1.88452 2.94186,-0.41428 -1.32701,2.07566 -1.3124,0.76549 -1.28675,1.09079 0.20505,2.60088 1.58286,1.60226 1.99496,1.61208 5.75,0.13706 5.07273,-1.99262 5.21657,-1.41609 0.29495,1.18212 -4.08964,2.159 -3.94231,2.662 0.30653,1.04659 1.59921,-0.60801 3.14348,-0.6589 3.8151,-0.1257 0.6206,0.49268 2.244681,0.71433 3.609061,0.49256 2.31912,-0.37696 2.35901,-0.31424 0.6124,0.96291 -1.02756,0.75137 -1.64218,2.00189 -1.36582,2.77893 0.27636,0.77704 0.0792,2.23436 -0.43809,3.23849 -0.83583,1.62238 -0.70432,1.69926 1.18085,0.69035 1.94877,-1.04295 2.02181,-0.97585 0.89746,0.82452 -0.67318,1.07794 -1.81876,1.73164 -2.54573,1.45267 -0.726971,-0.27896 -1.321771,-0.0394 -1.321771,0.53239 0,1.67954 3.734371,2.37845 6.212231,1.16266 2.25407,-1.10597 2.25262,-1.09417 -0.0983,0.80152 -3.23223,2.60637 -1.13258,3.75712 3.10666,1.70266 2.73305,-1.32451 2.9642,-1.33733 1.38756,-0.0769 -1.04049,0.83179 -2.39049,1.69052 -3,1.9083 -1.75989,0.6288 2.8937,6.19902 5.02423,6.01386 1.02717,-0.0893 2.99258,-0.45145 4.36758,-0.80485 1.73037,-0.44474 1.49948,-0.17874 -0.75,0.86403 -1.7875,0.82862 -3.25,1.99414 -3.25,2.59004 0,0.76748 0.60826,0.75793 2.08565,-0.0327 1.1471,-0.61391 2.31064,-0.8912 2.58564,-0.6162 0.275,0.275 -0.43854,1.00229 -1.58564,1.6162 -2.83602,1.51779 -4.57234,0.39728 -10.58565,-6.83129 -2.75,-3.30577 -5.225001,-6.03071 -5.500001,-6.05544 -1.11694,-0.1004 -12.1903,24.93253 -12.69569,28.70042 -0.45894,3.42171 -0.13251,4.50471 2.07555,6.88601 1.44108,1.55413 2.665,3.2803 2.71982,3.83592 0.0548,0.55554 0.45997,-0.11486 0.90032,-1.48986 0.76461,-2.38749 0.80513,-2.35639 0.90032,0.69098 0.16525,5.29 2.08872,4.95595 2.19936,-0.38196 0.0548,-2.64496 0.48899,-5.93402 0.9648,-7.30902 0.68367,-1.97566 0.77329,-1.66106 0.42731,1.5 -0.80784,7.3809 -0.77463,10.98673 0.11974,13 0.6775,1.52509 1.03646,0.45654 1.51169,-4.5 l 0.62321,-6.5 -0.12321,7.24155 c -0.0845,4.96829 0.26918,7.39131 1.126781,7.71861 0.83696,0.31943 1.25894,-0.58646 1.27706,-2.74154 0.0149,-1.77024 1.34941,-6.31897 2.96562,-10.1083 3.42541,-8.03109 12.45797,-22.18554 14.70871,-23.04923 2.40042,-0.92112 4.29861,1.33249 4.29861,5.10351 l 0,3.41971 4.5,-2.63718 c 2.475,-1.45044 4.49649,-2.25691 4.4922,-1.79215 -0.004,0.46476 -1.12929,1.40752 -2.5,2.09502 -1.37071,0.6875 -3.56426,1.79827 -4.87456,2.46838 -2.43719,1.24642 -11.50436,14.79701 -13.97958,20.89204 -1.74786,4.30397 -2.73224,11.88958 -1.5429,11.88958 0.49766,0 0.90484,1.5199 0.90484,3.37756 0,3.617 2.37702,6.77381 3.32381,4.41418 0.28506,-0.71046 0.55382,-0.26341 0.59724,0.99344 0.0434,1.25685 0.86645,3.49328 1.82895,4.96983 l 1.75,2.68465 0.56984,-7.46983 0.56984,-7.46983 0.19547,8 c 0.22137,9.05984 2.12024,14.34645 2.15511,6 0.0202,-4.83433 1.73993,-13.10315 2.55553,-12.28754 0.22,0.22 -0.0752,2.12092 -0.65593,4.22428 -1.12156,4.06194 -0.26095,15.91064 1.09478,15.07275 0.43375,-0.26807 1.08908,-2.08893 1.4563,-4.04635 1.06656,-5.68529 5.56588,-18.46935 8.69055,-24.69279 4.4442,-8.85154 10.86851,-11.68982 10.86851,-4.80173 0,3.4535 0.62198,3.68489 3.84216,1.42938 1.25795,-0.8811 2.47804,-1.41113 2.71132,-1.17785 0.23328,0.23328 -1.2885,1.3867 -3.38173,2.56317 -3.34233,1.87849 -4.52349,3.69671 -9.69749,14.92785 -4.97661,10.80265 -5.9559,13.86412 -6.3056,19.71255 -0.31351,5.24328 -0.0632,7.18495 1.03127,8 0.79489,0.59196 1.9614,1.97628 2.59225,3.07628 0.97399,1.69831 1.15159,1.21697 1.17741,-3.19098 0.0167,-2.85504 0.36791,-5.40085 0.78041,-5.65736 0.4125,-0.25651 0.59666,2.20912 0.40925,5.47918 -0.35501,6.19452 1.27203,10.37029 2.98717,7.66649 0.60865,-0.95949 0.82694,-0.83245 0.83827,0.48785 0.008,0.98185 0.79133,2.96954 1.7398,4.41709 l 1.72449,2.6319 0.67583,-2.41708 c 0.63264,-2.26261 0.68318,-2.22535 0.79082,0.58291 0.0633,1.65 0.57792,3.675 1.14371,4.5 0.7323,1.06779 0.85099,-0.0848 0.4119,-4 -0.35664,-3.18001 -0.16222,-6.55454 0.4609,-8 1.00745,-2.33699 1.04032,-2.2913 0.50414,0.7008 -0.87515,4.88372 0.57098,12.19612 2.9616,14.97538 l 2.14311,2.4915 0.0921,-12.83384 c 0.0884,-12.31707 1.39069,-22.18652 3.33905,-25.30488 1.73194,-2.77197 1.95452,-0.43566 0.4304,4.5177 -0.9981,3.24381 -1.58941,9.72591 -1.71332,18.78182 -0.16562,12.10402 0.0271,13.98691 1.54524,15.09888 0.95395,0.69872 1.47791,1.52694 1.16435,1.8405 -0.31356,0.31355 0.48094,1.11164 1.76554,1.77353 1.93032,0.99458 2.11873,0.97393 1.08565,-0.11898 -0.6875,-0.72733 -1.25,-1.99226 -1.25,-2.81097 0,-1.08921 0.54702,-0.90141 2.03896,0.7 2.18812,2.34867 5.35198,2.71815 10.96104,1.28003 1.925,-0.49355 4.798,-1.1898 6.38445,-1.54722 2.83526,-0.63876 2.87495,-0.74195 2.32711,-6.05002 -0.67035,-6.49504 -2.3396,-10.16947 -5.77369,-12.70928 -2.56064,-1.89382 -2.56629,-1.89281 -9.73419,1.74867 -3.94463,2.00397 -7.72636,3.45882 -8.40383,3.233 -0.67747,-0.22583 2.05896,-1.92739 6.08097,-3.78125 6.15915,-2.83894 7.06085,-3.55485 5.71596,-4.53826 -2.695,-1.97064 -1.8638,-2.93326 5.616,-6.50392 3.96703,-1.89375 12.54523,-6.28379 19.06267,-9.75563 6.51743,-3.47185 12.3015,-6.16191 12.85348,-5.97792 0.55198,0.184 -2.73872,2.30031 -7.31266,4.70291 -12.21828,6.41802 -15.05688,8.25082 -14.13947,9.12942 0.45276,0.43361 5.89929,-1.70986 12.1034,-4.76326 6.20411,-3.05341 11.45607,-5.37578 11.67102,-5.16082 0.21495,0.21495 -4.41114,2.84125 -10.2802,5.83623 -12.79008,6.52677 -11.78611,5.83079 -10.40426,7.21264 0.84457,0.84457 2.86641,0.23501 7.93333,-2.39181 3.73995,-1.93888 7.32293,-3.33208 7.96219,-3.096 0.63925,0.23608 5.29867,-1.64819 10.35426,-4.18726 5.0556,-2.53907 9.44507,-4.36341 9.75439,-4.05409 0.69995,0.69995 1.59089,0.18888 -10.52093,6.03509 l -10.25,4.94754 0,3.78988 c 0,2.08444 0.31228,3.78989 0.69395,3.78989 0.38167,0 5.29776,-1.8 10.92464,-4 5.62688,-2.2 11.0521,-3.98662 12.05605,-3.97027 1.00395,0.0164 -3.34964,2.06855 -9.67464,4.56042 -6.325,2.49188 -11.87919,4.90519 -12.34264,5.36291 -0.76857,0.75906 -0.16585,2.4073 2.12209,5.80328 0.89158,1.32337 10.62759,-2.46873 26.3385,-10.25864 4.06013,-2.01312 9.85705,-4.71175 12.88205,-5.99694 3.025,-1.2852 11.125,-5.01439 18,-8.28708 6.875,-3.2727 14.975,-6.99973 18,-8.28229 10.73085,-4.54974 28.77458,-14.96139 29.28035,-16.89544 0.27304,-1.04412 -0.25294,-2.71686 -1.16886,-3.71718 -0.91592,-1.00032 -1.76832,-3.1489 -1.89423,-4.7746 -0.12591,-1.62571 -0.59472,-3.32163 -1.04179,-3.7687 -0.44708,-0.44708 -4.15695,0.71768 -8.24417,2.58835 -11.78867,5.39554 -13.49497,5.17168 -2.1813,-0.28618 l 10.25,-4.94473 0,-4.17344 c 0,-3.58701 -0.24591,-4.07055 -1.75,-3.44118 -0.9625,0.40275 -3.325,1.05308 -5.25,1.44517 -1.925,0.39209 -8.3375,3.00441 -14.25,5.80514 -5.9125,2.80074 -10.75,4.72312 -10.75,4.27195 0,-1.74599 27.44943,-13.99729 29.91612,-13.35223 1.51661,0.3966 2.08388,0.0757 2.08388,-1.17868 0,-0.96277 -0.55178,-1.51625 -1.25,-1.25386 -0.6875,0.25837 -2.375,0.76098 -3.75,1.11691 -1.92621,0.49862 -1.75407,0.25896 0.75,-1.0442 1.88961,-0.98338 3.25,-2.46729 3.25,-3.5451 0,-1.60866 -0.29749,-1.69628 -2.25,-0.66268 -1.2375,0.65509 -3.6,2.19686 -5.25,3.42616 -4.51267,3.36208 -24.5,13.7356 -24.5,12.71562 0,-0.48897 4.95733,-3.51572 11.0163,-6.72613 6.05896,-3.21041 10.83248,-6.02092 10.60782,-6.24558 -0.22466,-0.22466 -3.45302,0.97199 -7.17412,2.65922 -3.7211,1.68723 -6.96323,2.8701 -7.20473,2.62861 -0.65991,-0.65992 6.18964,-3.90024 16.00473,-7.57136 7.61414,-2.84791 8.75,-3.58005 8.75,-5.64 0,-1.30199 -0.1125,-2.36238 -0.25,-2.35643 -2.59521,0.11237 -23.81179,8.36018 -31.09438,12.08774 -2.18868,1.12026 -3.67708,1.46583 -3.45593,0.80237 0.21365,-0.64095 6.58958,-3.81741 14.16873,-7.05881 7.57915,-3.24139 14.85203,-6.59568 16.16195,-7.45398 1.30992,-0.85829 2.921,-1.22721 3.58016,-0.81983 0.75824,0.46862 0.93638,0.31662 0.48496,-0.4138 -0.39244,-0.63498 -0.23697,-1.15451 0.34549,-1.15451 0.58246,0 1.05902,-0.50175 1.05902,-1.11501 0,-0.67056 -1.0311,-0.43941 -2.58676,0.5799 -1.42272,0.9322 -2.77248,1.5092 -2.99947,1.28221 -0.22699,-0.22699 1.24474,-1.50044 3.27051,-2.8299 2.02577,-1.32946 3.85979,-3.0922 4.0756,-3.9172 0.32279,-1.23397 0.22135,-1.25558 -0.57195,-0.12188 -0.53038,0.75796 -1.45619,1.07412 -2.05735,0.70258 -0.60117,-0.37154 -6.20774,1.37081 -12.45905,3.87189 -6.25131,2.50107 -11.89127,4.54741 -12.53325,4.54741 -1.44448,0 -13.25339,4.85452 -31.63828,13.00617 -7.7,3.41409 -19.4,8.44082 -26,11.17051 -14.43915,5.97188 -27.69866,12.94548 -40.5,21.30027 -5.225,3.41009 -11.525,7.45209 -14,8.98223 -2.475,1.53014 -5.70737,3.90812 -7.18304,5.28439 l -2.68304,2.50231 -3.61979,-2.23715 c -3.79389,-2.34475 -10.83986,-11.10507 -12.55032,-15.60393 -0.85822,-2.25727 -0.76574,-2.54277 0.64789,-2.00031 0.94579,0.36293 3.48172,-0.44127 5.94672,-1.88586 2.36374,-1.38524 4.88557,-2.51863 5.60405,-2.51863 1.19703,0 -2.3297,2.30294 -7.91247,5.16682 -2.65899,1.36402 -2.79502,2.13597 -0.68496,3.88716 1.30998,1.08718 2.47019,0.85493 7.11911,-1.42511 7.22134,-3.54168 7.82241,-2.93171 0.75654,0.76775 -2.99238,1.56671 -5.44069,3.37471 -5.44069,4.01777 0,0.64305 1.96944,3.10205 4.37654,5.46444 l 4.37653,4.29524 5.12419,-3.68136 c 2.8183,-2.02475 4.89152,-4.05782 4.60715,-4.51794 -0.28437,-0.46011 0.01,-1.1622 0.65379,-1.56018 0.73122,-0.45192 0.90292,-0.29014 0.45729,0.4309 -1.39953,2.2645 1.16619,1.07348 9.97278,-4.62941 4.91245,-3.18115 10.43559,-6.71791 12.27365,-7.85946 l 3.34191,-2.07554 -7.84191,-4.55116 c -9.69006,-5.62374 -29.35952,-22.86081 -47.76548,-41.85863 -18.91021,-19.51829 -24.20131,-24.81233 -37.46679,-37.48767 -6.264701,-5.98599 -12.672771,-12.63253 -14.240161,-14.77008 -1.5674,-2.13755 -6.79174,-7.96976 -11.60965,-12.96047 -13.17052,-13.6429 -21.21554,-22.809011 -22.95431,-26.153066 -0.85793,-1.65 -1.6747,-3.134552 -1.81504,-3.299004 -0.64012,-0.750114 -17.92288,10.218551 -22.23654,14.11263 -2.49492,2.25225 -4.27101,1.61679 -2.25856,-0.80807 3.54518,-4.271673 27.34894,-17.640594 61.50461,-34.542873 C 110.7559,57.848923 130.7809,48.285237 134.3559,46.938863 c 3.575,-1.346374 8.71252,-3.491746 11.41671,-4.767493 l 4.91672,-2.31954 6.58328,2.282192 c 3.62081,1.255205 8.00178,3.354362 9.7355,4.664792 1.73371,1.31043 7.58371,4.713325 13,7.561988 5.41628,2.848664 11.87279,6.524825 14.34779,8.169249 23.10557,15.351652 30.38054,20.648761 41.06766,29.90252 2.98779,2.587066 11.73234,9.714129 19.43234,15.837919 17.72399,14.09584 33.61151,28.29798 53.64951,47.95832 13.93459,13.67196 15.72526,15.79485 15.18309,18 -0.81233,3.30398 -2.84564,5.55565 -6.31431,6.99242 -2.16606,0.89722 -3.36252,2.58009 -5.05845,7.11496 -2.0256,5.41642 -2.16356,7.03908 -1.56567,18.41577 0.90051,17.13516 1.15721,18.13713 4.835,18.87268 1.66146,0.33229 4.42708,0.61106 6.14583,0.61948 4.81921,0.0236 6.25125,1.31481 4.85555,4.37802 -2.23539,4.90617 -24.97682,17.87208 -57.23055,32.62972 -13.475,6.16546 -30.70433,14.08251 -38.28739,17.59344 -7.58306,3.51093 -14.22056,6.38351 -14.75,6.38351 -1.64834,0 -1.05397,-1.73872 0.78739,-2.30338 1.47298,-0.45169 33.16875,-14.82756 48.25,-21.88417 2.475,-1.15807 10.70846,-4.94891 18.29658,-8.42409 7.58812,-3.47518 15.01312,-7.17497 16.5,-8.22175 1.48688,-1.04679 6.75342,-4.18147 11.70342,-6.96597 8.89603,-5.00423 13.5,-8.46338 13.5,-10.14308 0,-0.78728 -9.97493,-2.06246 -10.8925,-1.39248 -0.21588,0.15762 0.1313,0.91773 0.77149,1.68912 1.81753,2.18998 -0.26286,6.23176 -4.62497,8.98544 -7.22278,4.55955 -42.1862,21.33093 -85.25402,40.89497 -7.425,3.37289 -13.68474,6.27216 -13.91054,6.44283 -0.22579,0.17066 0.44921,1.27661 1.5,2.45766 2.4372,2.73931 9.10057,5.81451 12.66054,5.84294 1.5125,0.0121 2.75,0.40222 2.75,0.86697 0,1.56202 -3.6375,4.15499 -5.82874,4.15499 -4.1817,0 -2.12365,1.81887 2.82874,2.5 2.75,0.37822 5,1.11841 5,1.64486 0,1.35812 -6.48557,3.8967 -10.32393,4.041 -4.53387,0.17045 -12.7865,-2.75884 -17.60387,-6.24852 l -4.0722,-2.94988 0,5.89679 c 0,13.81551 -9.86221,40.46252 -17.09579,46.19161 -4.04851,3.20649 -4.50745,3.37512 -5.3732,1.97431 z m 13.28626,-18.78029 c 3.33538,-7.83802 6.16555,-18.39706 6.10308,-22.76988 -0.0236,-1.65 0.26013,-4.45802 0.63044,-6.24005 0.9668,-4.65252 -2.30455,-22.82684 -5.22264,-29.01488 -3.32496,-7.05085 -5.09357,-7.88509 -11.09003,-5.23106 l -4.73812,2.0971 2.5,1.92221 c 1.375,1.05721 2.08406,1.93221 1.57569,1.94444 -0.50838,0.0122 -0.002,1.03474 1.12503,2.27224 3.69633,4.05823 4.62067,7.10433 5.08559,16.75925 0.4979,10.33991 -2.01874,23.54089 -5.97421,31.33766 -2.41752,4.76525 -1.9357,5.42375 1.58268,2.16302 1.48955,-1.38046 2.97351,-2.50993 3.2977,-2.50993 0.75749,0 -0.27252,15.86054 -1.20142,18.5 -1.48796,4.22803 3.56584,-4.74333 6.32621,-11.23012 z m -3.6473,-24.26988 c 0.0162,-0.825 0.38968,-2.625 0.83003,-4 0.64363,-2.00973 0.8064,-2.10779 0.83003,-0.5 0.0162,1.1 -0.35734,2.9 -0.83003,4 -0.52653,1.22531 -0.84804,1.41898 -0.83003,0.5 z m 3.02498,-2.5 c 0.0204,-1.65 0.2445,-2.20394 0.49804,-1.23097 0.25354,0.97297 0.23687,2.32297 -0.0371,3 -0.27393,0.67703 -0.48137,-0.11903 -0.46099,-1.76903 z m 4.10471,-2.5 c 0,-3.025 0.18747,-4.2625 0.41659,-2.75 0.22913,1.5125 0.22913,3.9875 0,5.5 -0.22912,1.5125 -0.41659,0.275 -0.41659,-2.75 z m -3.01365,-5.5 c 0.008,-2.75 0.20172,-3.75631 0.43157,-2.23625 0.22986,1.52006 0.22371,3.77006 -0.0136,5 -0.23736,1.22994 -0.42542,-0.0138 -0.41792,-2.76375 z m -1.98635,-1.5 c 0,-3.025 0.18747,-4.2625 0.41659,-2.75 0.22913,1.5125 0.22913,3.9875 0,5.5 -0.22912,1.5125 -0.41659,0.275 -0.41659,-2.75 z m -0.31972,-22.52417 c -0.69572,-0.83829 -1.01228,-1.77683 -0.70346,-2.08564 0.30881,-0.30882 1.06377,0.37706 1.67768,1.52416 1.30985,2.44747 0.8236,2.72772 -0.97422,0.56148 z m -8.97994,-1.47583 c -1.29269,-0.8354 -1.26629,-0.97149 0.19098,-0.98469 0.93004,-0.008 1.9691,0.43469 2.30902,0.98469 0.78218,1.2656 -0.54163,1.2656 -2.5,0 z m 4.44113,-0.4682 c -1.06762,-0.8075 -1.43373,-1.4825 -0.81357,-1.5 0.62015,-0.0175 1.68775,0.6432 2.37244,1.4682 1.58079,1.90474 0.9348,1.91792 -1.55887,0.0318 z m 40.55887,31.4682 c 1.21666,-0.78627 1.0814,-0.97227 -0.71607,-0.98469 -2.62291,-0.0181 -9.28393,-3.03191 -9.28393,-4.20052 0,-0.44814 1.4625,-0.85965 3.25,-0.91447 1.7875,-0.0548 4.35125,-0.40701 5.69722,-0.78262 2.26944,-0.63334 2.15409,-0.77077 -1.58794,-1.89191 -2.21933,-0.66493 -5.77814,-2.90025 -7.90846,-4.96738 -2.13032,-2.06712 -3.48111,-3.08341 -3.00174,-2.25841 0.52083,0.89636 0.50523,1.16465 -0.0388,0.66667 -0.50068,-0.45834 -0.91834,-1.13334 -0.92813,-1.5 -0.01,-0.36667 -1.06614,-2.81182 -2.34744,-5.43367 -1.2813,-2.62185 -2.57004,-6.55935 -2.86387,-8.75 -0.29382,-2.19065 -0.72906,-3.983 -0.96718,-3.983 -0.23812,0 -2.67694,0.96534 -5.4196,2.1452 -3.8395,1.65171 -4.82521,2.51437 -4.28489,3.75 0.38597,0.88264 1.42155,4.3048 2.30127,7.6048 0.87973,3.3 1.94217,6.15172 2.36097,6.33715 0.4188,0.18544 1.23113,1.31044 1.80517,2.5 1.01022,2.09346 0.99381,2.10058 -0.51146,0.22172 -1.4775,-1.84424 -1.55512,-1.84899 -1.55512,-0.0952 0,1.01528 1.77678,3.53618 3.94841,5.60199 6.21722,5.91434 17.93041,9.59765 22.05159,6.93434 z m -17.54775,-13.64602 c -1.34874,-1.45532 -2.45225,-3.10532 -2.45225,-3.66667 0,-0.56135 0.1125,-0.8309 0.25,-0.59898 0.1375,0.23191 1.57169,1.88191 3.18709,3.66667 1.6154,1.78475 2.60641,3.245 2.20225,3.245 -0.40416,0 -1.83835,-1.19071 -3.18709,-2.64602 z m -26.9666,11.43862 c 4.47218,-1.19613 6.59244,-3.50828 2.26435,-2.46928 -1.2375,0.29707 -3.93356,0.8452 -5.99125,1.21805 -2.05769,0.37286 -3.49363,1.07859 -3.19098,1.56828 0.71877,1.163 1.52171,1.1262 6.91788,-0.31705 z m -47.95787,-36.54384 c 0.0273,-8.60545 0.12971,-8.96764 6.25,-22.11113 5.95173,-12.78149 7.30174,-17.13763 5.31111,-17.13763 -2.71315,0 -11.41138,15.05917 -9.13626,15.81754 0.57605,0.19202 1.01184,1.09913 0.96842,2.01579 -0.0492,1.03935 -0.26879,1.19618 -0.58333,0.41667 -0.88237,-2.18675 -2.58874,-1.34348 -2.13064,1.05294 0.24213,1.26662 -0.14,2.84497 -0.84918,3.50745 -0.70918,0.66247 -1.03168,1.87614 -0.71667,2.69705 0.31501,0.82091 0.11189,1.49256 -0.45138,1.49256 -0.56327,0 -1.51141,2.27215 -2.10699,5.04922 -1.3385,6.24123 -1.35126,7.23469 -0.0829,6.45078 0.55,-0.33992 1,0.33508 1,1.5 0,1.16492 -0.431,1.85166 -0.95778,1.5261 -0.52677,-0.32557 -0.4119,0.43537 0.25528,1.69098 1.43937,2.70886 2.74593,4.7834 3.01152,4.78168 0.10504,-6.8e-4 0.20348,-3.93818 0.21876,-8.75 z m 3.9311,-24.31529 c -0.36253,-0.58659 -0.44468,-1.281 -0.18255,-1.54313 0.26212,-0.26213 0.74306,0.21781 1.06875,1.06653 0.67618,1.76211 0.0999,2.07206 -0.8862,0.4766 z m -27.75255,-4.8444 c 0.11903,-7.725 2.96207,-14.87205 10.26826,-25.81316 4.34203,-6.50223 5.44706,-10.51473 3.02541,-10.98558 -2.39274,-0.46523 -12.22683,14.95499 -11.21649,17.58788 0.33975,0.88536 0.13055,1.18671 -0.53728,0.77397 -0.67339,-0.41618 -1.8915,1.45655 -3.16994,4.87346 -2.41481,6.45416 -2.52332,7.44613 -0.82629,7.55331 1,0.0632 1,0.17982 0,0.58333 -1.74332,0.70345 -1.56575,6.87911 0.25,8.69486 0.825,0.825 1.5,1.98215 1.5,2.57143 0,0.58929 0.13497,1.07143 0.29992,1.07143 0.16495,0 0.34783,-3.10992 0.40641,-6.91093 z m 101.06587,-11.96911 c 4.25029,-2.13402 15.8278,-7.2562 25.7278,-11.38262 9.9,-4.12642 24.1228,-10.22063 31.60622,-13.5427 7.48342,-3.32207 15.56563,-6.56773 17.96047,-7.2126 6.78738,-1.82765 34.23079,-13.00666 36.18331,-14.73919 3.59929,-3.19376 2.15514,-5.36565 -14.5,-21.80682 -22.46162,-22.17306 -36.52458,-34.5674 -57.79339,-50.93603 -5.7172,-4.4 -12.43379,-9.827257 -14.92576,-12.060576 C 220.81483,82.29737 196.30004,65.462154 180.87897,57.2959 c -5.48733,-2.905824 -11.90481,-6.609704 -14.26106,-8.230845 -2.35624,-1.621141 -5.96661,-3.660941 -8.02303,-4.532889 -4.66327,-1.977282 -10.38144,-3.34293 -9.75531,-2.329818 0.25825,0.417852 -3.90742,2.459067 -9.25705,4.536032 -15.89355,6.170593 -84.226591,40.312081 -84.226591,42.082443 0,2.350732 1.98236,5.536929 3.03872,4.884061 0.51611,-0.31897 0.70141,0.03757 0.41179,0.792309 -0.29354,0.764956 1.51482,3.553914 4.08618,6.301937 2.53702,2.71133 4.91664,5.42291 5.28804,6.02575 0.3714,0.60283 2.25448,2.46686 4.18462,4.14229 l 3.50934,3.04623 7.49066,-4.512 c 4.11986,-2.4816 8.95315,-5.39483 10.74065,-6.47385 1.7875,-1.07902 3.25,-1.5585 3.25,-1.06551 0,0.49299 -1.6604,1.68814 -3.68979,2.65589 -2.02938,0.96774 -6.80356,3.77382 -10.60927,6.23573 -6.69603,4.33163 -6.86324,4.53833 -5.17789,6.40062 1.709,1.88843 1.8607,1.85781 8.10927,-1.63659 3.50223,-1.95855 6.36768,-3.3303 6.36768,-3.04833 0,0.28197 -2.475,1.92872 -5.5,3.65945 -3.025,1.73073 -5.5,3.3739 -5.5,3.65148 0,1.8246 23.202731,26.09795 37.612991,39.34852 3.28975,3.025 11.54332,11.4625 18.34128,18.75 6.79796,7.2875 13.00726,13.25 13.79846,13.25 0.79119,0 2.633,-0.82622 4.0929,-1.83603 1.4599,-1.00982 3.32937,-2.20084 4.15437,-2.64671 2.55772,-1.38231 -0.17928,0.99026 -4.25429,3.68783 l -3.7543,2.48527 10.7543,9.61174 c 12.13074,10.84197 24.28804,20.6979 25.53087,20.6979 0.45624,0 2.48511,1.125 4.50861,2.5 4.92513,3.34671 6.91492,3.17495 15.98701,-1.38004 z m -5.7722,-2.83403 c 0.825,-0.3059 2.4,-0.9702 3.5,-1.47622 1.968,-0.90532 1.96894,-0.89516 0.0589,0.63512 -1.06762,0.85535 -2.64262,1.51964 -3.5,1.47622 -1.3466,-0.0682 -1.35461,-0.15468 -0.0589,-0.63512 z m -9,-0.62317 c 0,-0.25586 1.50135,-1.35103 3.33634,-2.4337 1.83499,-1.08267 4.64749,-2.75552 6.25,-3.71744 l 2.91366,-1.74896 -2.5,2.06888 c -2.85749,2.36473 -10,6.52968 -10,5.83122 z m 19,-4.15678 c 0,-0.67311 10.12224,-5.71707 10.57149,-5.26782 0.20494,0.20494 -2.08981,1.5803 -5.09944,3.05636 -3.00963,1.47606 -5.47205,2.47122 -5.47205,2.21146 z m -22,-5.615 c 1.925,-1.15585 4.9625,-2.99087 6.75,-4.07782 1.7875,-1.08696 3.25,-1.74716 3.25,-1.46712 0,0.67787 -11.51951,7.655 -12.63081,7.65022 -0.47805,-0.002 0.70581,-0.94943 2.63081,-2.10528 z m -12,-0.83196 c 0,-0.51754 0.51953,-1.26207 1.15451,-1.65451 0.7153,-0.44208 0.88306,-0.27432 0.44098,0.44098 -0.95722,1.54881 -0.0754,1.45406 3.45417,-0.37117 1.62269,-0.83912 2.95034,-1.30068 2.95034,-1.02568 0,0.67375 -5.63175,3.55136 -6.95034,3.55136 -0.57731,0 -1.04966,-0.42344 -1.04966,-0.94098 z m 31,0.51135 c 0,-0.275 0.9,-0.98167 2,-1.57037 1.1,-0.5887 2,-0.84537 2,-0.57037 0,0.275 -0.9,0.98167 -2,1.57037 -1.1,0.5887 -2,0.84537 -2,0.57037 z m 5,-3 c 0,-0.275 0.9,-0.98167 2,-1.57037 1.1,-0.5887 2,-0.84537 2,-0.57037 0,0.275 -0.9,0.98167 -2,1.57037 -1.1,0.5887 -2,0.84537 -2,0.57037 z m 15,0.0366 c 0,-0.21616 0.69837,-0.661 1.55194,-0.98855 0.88992,-0.34149 1.29132,-0.17385 0.94098,0.39301 -0.58726,0.95023 -2.49292,1.40547 -2.49292,0.59556 z m 6,-3.10697 c 1.375,-0.78602 2.95,-1.42913 3.5,-1.42913 0.55,0 -0.125,0.64311 -1.5,1.42913 -1.375,0.78602 -2.95,1.42913 -3.5,1.42913 -0.55,0 0.125,-0.64311 1.5,-1.42913 z m -14,-0.92963 c 0,-0.275 0.9,-0.98167 2,-1.57037 1.1,-0.5887 2,-0.84537 2,-0.57037 0,0.275 -0.9,0.98167 -2,1.57037 -1.1,0.5887 -2,0.84537 -2,0.57037 z m -28,-1 c 0,-0.275 0.9,-0.98167 2,-1.57037 1.1,-0.5887 2,-0.84537 2,-0.57037 0,0.275 -0.9,0.98167 -2,1.57037 -1.1,0.5887 -2,0.84537 -2,0.57037 z m 48,-0.57037 c 0.825,-0.53316 1.95,-0.96937 2.5,-0.96937 0.55,0 0.325,0.43621 -0.5,0.96937 -0.825,0.53316 -1.95,0.96937 -2.5,0.96937 -0.55,0 -0.325,-0.43621 0.5,-0.96937 z m -65.26667,-1.12409 c 0.67834,-0.68342 1.48524,-0.99067 1.79313,-0.68278 0.30789,0.30789 -0.24711,0.86705 -1.23333,1.24258 -1.4252,0.54268 -1.54006,0.42782 -0.5598,-0.5598 z m 30.26667,0.67545 c 0,-0.275 1.35,-1.19811 3,-2.05136 1.65,-0.85325 3,-1.32636 3,-1.05136 0,0.275 -1.35,1.19811 -3,2.05136 -1.65,0.85325 -3,1.32636 -3,1.05136 z m -8,-1.92892 c 0,-0.20765 0.7875,-0.99515 1.75,-1.75 1.58606,-1.24387 1.62143,-1.2085 0.37756,0.37756 -1.30637,1.66575 -2.12756,2.19548 -2.12756,1.37244 z m 32,-1.12244 c 1.375,-0.78602 2.95,-1.42913 3.5,-1.42913 0.55,0 -0.125,0.64311 -1.5,1.42913 -1.375,0.78602 -2.95,1.42913 -3.5,1.42913 -0.55,0 0.125,-0.64311 1.5,-1.42913 z m -63.91667,0.13455 c 1.38454,-1.21435 8.91667,-5.57283 8.91667,-5.15964 0,0.61187 -7.68922,5.52509 -8.64679,5.52509 -0.3776,0 -0.49904,-0.16445 -0.26988,-0.36545 z m 69.41667,-1.63455 c -0.33992,-0.55 0.11008,-1 1,-1 0.88992,0 1.33992,0.45 1,1 -0.33992,0.55 -0.78992,1 -1,1 -0.21008,0 -0.66008,-0.45 -1,-1 z m -75.5,-3.28654 c 0,-0.22798 2.33196,-1.86413 5.18212,-3.63589 2.85017,-1.77177 4.6758,-2.61129 4.05694,-1.86562 -1.17871,1.42026 -9.23906,6.21989 -9.23906,5.50151 z m 11,-7.06327 c 0,-0.23109 1.18041,-1.1936 2.62312,-2.13891 1.44272,-0.9453 2.31766,-1.22448 1.94431,-0.62038 -0.71346,1.15439 -4.56743,3.48267 -4.56743,2.75929 z m -10,-1.014 c 0,-0.275 1.35,-1.46129 3,-2.63619 1.65,-1.1749 3,-1.91119 3,-1.63619 0,0.275 -1.35,1.46129 -3,2.63619 -1.65,1.1749 -3,1.91119 -3,1.63619 z m -13.6676,-4.945 c 1.00783,-0.65515 4.38283,-3.02317 7.5,-5.26226 7.56313,-5.43264 11.1676,-7.75649 11.1676,-7.1999 0,0.73073 -18.68628,13.77732 -19.63957,13.71216 -0.47324,-0.0323 -0.0359,-0.59484 0.97197,-1.25 z m 23.10017,-1.58209 c 0.71346,-1.15439 4.56743,-3.48267 4.56743,-2.75929 0,0.23109 -1.18041,1.1936 -2.62312,2.13891 -1.44272,0.9453 -2.31766,1.22448 -1.94431,0.62038 z m 12.56743,-0.53873 c 0,-0.275 0.9,-0.98167 2,-1.57037 1.1,-0.5887 2,-0.84537 2,-0.57037 0,0.275 -0.9,0.98167 -2,1.57037 -1.1,0.5887 -2,0.84537 -2,0.57037 z m -42,-6.92279 c 0,-0.5116 13.55691,-10.78006 16,-12.11895 2.32534,-1.27435 0.23392,0.54579 -7,6.09204 -7.19829,5.51892 -9,6.72545 -9,6.02691 z m -12.45,-5.49561 c 2.64968,-2.36526 17.75147,-12.37869 16.45,-10.90737 -1.01077,1.14267 -16.14231,11.7554 -16.76076,11.7554 -0.35158,0 -0.21174,-0.38161 0.31076,-0.84803 z m 41.45,-0.60061 c 0,-0.275 1.35,-1.19811 3,-2.05136 1.65,-0.85325 3,-1.32636 3,-1.05136 0,0.275 -1.35,1.19811 -3,2.05136 -1.65,0.85325 -3,1.32636 -3,1.05136 z m -8,-8.98099 c 0,-0.275 0.9,-0.98167 2,-1.57037 1.1,-0.5887 2,-0.84537 2,-0.57037 0,0.275 -0.9,0.98167 -2,1.57037 -1.1,0.5887 -2,0.84537 -2,0.57037 z m -36.5,-1.29609 c 0.55,-0.52481 2.8,-1.96493 5,-3.20026 2.2,-1.23533 3.1,-1.49805 2,-0.58383 -2.23423,1.8569 -8.56932,5.28155 -7,3.78409 z m 20.5,-0.70391 c 0,-0.275 0.9,-0.98167 2,-1.57037 1.1,-0.5887 2,-0.84537 2,-0.57037 0,0.275 -0.9,0.98167 -2,1.57037 -1.1,0.5887 -2,0.84537 -2,0.57037 z m -27,-0.92365 c 0,-0.19431 3.15,-2.4479 7,-5.00797 8.75072,-5.81884 9.16253,-5.28295 0.62301,0.81072 -5.8485,4.17341 -7.62301,5.15046 -7.62301,4.19725 z m 17.5,-5.16483 c 1.1,-0.89564 2.9,-2.07029 4,-2.61033 2,-0.98189 2,-0.98189 0,0.64655 -1.1,0.89564 -2.9,2.07029 -4,2.61033 -2,0.98189 -2,0.98189 0,-0.64655 z m 10.94113,-6.92672 c 1.06762,-0.85535 2.64262,-1.51964 3.5,-1.47622 1.3466,0.0682 1.35461,0.15468 0.0589,0.63512 -0.825,0.3059 -2.4,0.9702 -3.5,1.47622 -1.968,0.90532 -1.96894,0.89516 -0.0589,-0.63512 z m -38.44113,-0.60397 c 3.4686,-2.35442 5.44393,-3.03957 3,-1.04055 -1.375,1.12468 -2.95,2.04799 -3.5,2.0518 -0.55,0.004 -0.325,-0.45125 0.5,-1.01125 z m 6,-3.50683 c 0,-0.67562 11.09801,-7.67969 11.51222,-7.26548 0.19052,0.19052 -2.32178,2.00877 -5.58291,4.04054 -3.26112,2.03178 -5.92931,3.483 -5.92931,3.22494 z m -14.91666,-0.83826 c 0.22916,-0.21664 2.89166,-1.83552 5.91666,-3.59751 3.025,-1.76199 7.04217,-4.14568 8.92705,-5.29709 1.88488,-1.15141 3.13951,-1.62822 2.78807,-1.05958 -0.67985,1.10002 -16.19339,10.34807 -17.35881,10.34807 -0.3793,0 -0.50214,-0.17725 -0.27297,-0.39389 z m -9.000001,-8.97065 c 0.22916,-0.2005 1.54166,-0.90033 2.91666,-1.55517 2.35727,-1.12264 2.38918,-1.10183 0.55887,0.36455 -1.59299,1.27625 -4.84786,2.39128 -3.47553,1.19062 z m 27.916661,-2.06509 c 0,-0.275 0.9,-0.98166 2,-1.57037 1.1,-0.5887 2,-0.84536 2,-0.57036 0,0.275 -0.9,0.98166 -2,1.57036 -1.1,0.58871 -2,0.84537 -2,0.57037 z m -28.500001,-6.06056 c 2.23423,-1.8569 8.56932,-5.28155 7,-3.78409 -0.55,0.52482 -2.8,1.96494 -5,3.20027 -2.2,1.23533 -3.1,1.49805 -2,0.58382 z m 8.5,-4.93944 c 0,-0.275 0.900001,-0.98166 2.000001,-1.57037 1.1,-0.5887 2,-0.84536 2,-0.57036 0,0.275 -0.9,0.98166 -2,1.57036 -1.1,0.58871 -2.000001,0.84537 -2.000001,0.57037 z m -15,102.42963 c 0,-0.55 -0.47655,-1 -1.05901,-1 -0.58246,0 -0.78091,0.45 -0.44099,1 0.33992,0.55 0.81648,1 1.05902,1 0.24254,0 0.44098,-0.45 0.44098,-1 z m 0.3387,-6.45443 c 0.3358,-2.44993 2.80921,-8.86243 5.49647,-14.25 9.66136,-19.36965 11.003511,-24.83767 5.9193,-24.11571 -1.46349,0.20782 -2.91774,1.67851 -4.14496,4.19183 -3.2264,6.60758 -6.57685,17.54984 -5.90764,19.29377 0.41867,1.09103 0.24931,1.4224 -0.4926,0.96387 -0.74165,-0.45836 -1.87462,1.75073 -3.29326,6.42128 -1.84342,6.06908 -1.97189,7.47645 -0.87034,9.53471 1.85691,3.46967 2.60106,3.00873 3.29303,-2.03975 z m -3.3387,-1.60459 c 0,-0.58246 0.45,-0.7809 1,-0.44098 0.55,0.33992 1,0.81648 1,1.05902 0,0.24254 -0.45,0.44098 -1,0.44098 -0.55,0 -1,-0.47656 -1,-1.05902 z m 1.89214,-15.19982 c 2.41567,-7.28264 5.16849,-14.78756 6.11737,-16.67761 l 1.72524,-3.43645 -5.36713,-6.32672 c -2.95192,-3.4797 -5.92548,-7.2208 -6.60792,-8.31355 -1.81328,-2.90354 -2.35528,-2.51051 -3.81044,2.76317 -0.72086,2.6125 -2.59198,7.88003 -4.15804,11.70563 -1.56606,3.8256 -2.6637,7.43428 -2.43921,8.01929 0.22449,0.58501 0.027,2.85498 -0.43883,5.04437 l -0.84698,3.98071 0.3983,-4.44803 c 0.26404,-2.94861 0.0895,-3.9599 -0.51778,-3 -1.35486,2.14157 -1.13961,7.60999 0.35924,9.1266 0.71827,0.72679 1.68608,2.22143 2.15069,3.32143 0.6871,1.62678 1.08514,0.97366 2.13305,-3.5 l 1.28831,-5.5 -0.54071,5.64186 c -0.2974,3.10302 -0.20337,6.70302 0.20896,8 0.71706,2.25554 0.78368,2.27113 1.53142,0.35814 0.64974,-1.66226 0.79362,-1.48494 0.85204,1.05 0.0632,2.74433 1.57311,5.46442 3.02028,5.44116 0.3025,-0.005 2.52646,-5.96736 4.94214,-13.25 z m -5.66013,8.25884 c 0,-1.925 0.20579,-2.7125 0.45732,-1.75 0.25153,0.9625 0.25153,2.5375 0,3.5 -0.25153,0.9625 -0.45732,0.175 -0.45732,-1.75 z m -2.03706,-6.5 c 0.0204,-1.65 0.2445,-2.20394 0.49804,-1.23097 0.25355,0.97297 0.23687,2.32297 -0.037,3 -0.27392,0.67703 -0.48137,-0.11903 -0.46099,-1.76903 z m 2.884,0.91667 c 0.048,-1.16495 0.28494,-1.4019 0.60417,-0.60417 0.28887,0.72187 0.25334,1.58437 -0.079,1.91667 -0.33229,0.33229 -0.56864,-0.25834 -0.52522,-1.3125 z m -2,-6 c 0.048,-1.16495 0.28494,-1.4019 0.60417,-0.60417 0.28887,0.72187 0.25334,1.58437 -0.079,1.91667 -0.33229,0.33229 -0.56864,-0.25834 -0.52522,-1.3125 z m -11.73387,1.0402 c -0.32568,-0.84872 -0.80662,-1.32866 -1.06875,-1.06653 -0.26213,0.26213 -0.17998,0.95654 0.18255,1.54313 0.98605,1.59546 1.56238,1.28551 0.8862,-0.4766 z m 3.97715,-17.65081 c 3.55392,-8.03605 7.83983,-23.22017 7.09907,-25.15057 -1.0554,-2.75033 -3.26955,-1.87326 -5.29533,2.0976 -1.05308,2.0642 -3.80625,9.3113 -6.11817,16.10466 -3.47596,10.21379 -4.08891,13.11567 -3.54147,16.76627 0.36411,2.42808 1.08315,4.15442 1.59785,3.83632 0.5147,-0.31811 0.96544,0.0107 1.00163,0.73064 0.0362,0.71996 0.68152,-0.97353 1.43404,-3.76331 0.75252,-2.78978 2.47259,-7.56951 3.82238,-10.62161 z m -6.82223,9.19394 c -0.33992,-0.55 -0.14147,-1 0.44099,-1 0.58246,0 1.05901,0.45 1.05901,1 0,0.55 -0.19844,1 -0.44098,1 -0.24254,0 -0.7191,-0.45 -1.05902,-1 z m 2.57895,-11.58333 c 0.048,-1.16495 0.28494,-1.4019 0.60417,-0.60417 0.28887,0.72187 0.25334,1.58437 -0.079,1.91667 -0.33229,0.33229 -0.56864,-0.25834 -0.52522,-1.3125 z m 5,-14 c 0.048,-1.16495 0.28494,-1.4019 0.60417,-0.60417 0.28887,0.72187 0.25334,1.58438 -0.079,1.91667 -0.33229,0.33229 -0.56864,-0.25834 -0.52522,-1.3125 z m -23.55841,7.3307 c 0.0197,-5.97694 5.44946,-25.61145 9.0952,-32.88872 1.18273,-2.36084 1.12556,-2.69304 -0.53832,-3.12815 -1.51301,-0.39566 -2.63072,1.1317 -5.96949,8.15737 -4.16218,8.75835 -4.70907,10.60928 -3.35793,11.3649 0.4125,0.23069 0.21916,0.29446 -0.42965,0.14171 -0.68746,-0.16185 -1.62624,1.80464 -2.25,4.71312 -1.54226,7.19128 -1.33682,10.96963 0.67965,12.50035 1.08272,0.8219 1.27014,1.34057 0.49153,1.36025 -1.00812,0.0255 -1.01,0.42967 -0.01,2.0318 0.68696,1.1 1.47827,1.99882 1.75847,1.99737 0.2802,-0.001 0.5187,-2.81395 0.52999,-6.25 z m 3.32215,-6.24737 c -0.034,-1.61753 -0.19516,-1.52191 -0.84269,0.5 -0.44035,1.375 -0.79374,4.075 -0.78532,6 l 0.0153,3.5 0.82737,-4 c 0.45506,-2.2 0.80845,-4.9 0.78532,-6 z M 166.35593,293.75449 c 0,-0.88549 5.89114,-3.52607 7.70034,-3.45152 1.03542,0.0427 0.10102,0.8605 -2.20034,1.92584 -4.21113,1.94941 -5.5,2.30694 -5.5,1.52568 z m -0.5,-5.04754 c 2.75,-1.29547 5.675,-2.34556 6.5,-2.33354 0.825,0.012 -0.75,1.08179 -3.5,2.37726 -2.75,1.29547 -5.675,2.34556 -6.5,2.33354 -0.825,-0.012 0.75,-1.08179 3.5,-2.37726 z m -5.5,-0.33829 c 0,-0.94182 13.88809,-7.58509 14.52517,-6.94801 0.22244,0.22243 -2.95473,2.06658 -7.06037,4.09811 -4.10564,2.03152 -7.4648,3.31398 -7.4648,2.8499 z m -14.71399,-10.63985 c 0.008,-2.75 0.20172,-3.75631 0.43157,-2.23625 0.22986,1.52006 0.22371,3.77006 -0.0136,5 -0.23736,1.22994 -0.42542,-0.0137 -0.41792,-2.76375 z m -4.12812,-1.5 c 0,-1.375 0.22698,-1.9375 0.50439,-1.25 0.27741,0.6875 0.27741,1.8125 0,2.5 -0.27741,0.6875 -0.50439,0.125 -0.50439,-1.25 z m 0.92106,-5.58333 c 0.048,-1.16495 0.28494,-1.4019 0.60416,-0.60417 0.28887,0.72187 0.25335,1.58437 -0.0789,1.91667 -0.3323,0.33229 -0.56864,-0.25834 -0.52522,-1.3125 z m 23.92105,-1.31054 c 2.67726,-2.15708 32,-17.54285 32,-16.79054 0,0.45695 -24.60667,14.04764 -31,17.12184 l -3.5,1.68296 2.5,-2.01426 z m -4,-3.09041 c 1.375,-1.06689 7.44767,-4.54438 13.49483,-7.72776 13.17606,-6.93622 12.96579,-6.84227 12.06996,-5.39279 -0.39248,0.63504 -3.94262,2.77877 -7.88919,4.76383 -3.94658,1.98506 -9.54684,5.12386 -12.44502,6.9751 -5.65005,3.60903 -9.36637,4.59067 -5.23058,1.38162 z m -28,-2.9567 c 0,-1.06754 0.38499,-2.17893 0.85554,-2.46974 0.47055,-0.29082 0.64309,0.58263 0.38343,1.94098 -0.56402,2.95046 -1.23897,3.23851 -1.23897,0.52876 z m 34,-5.31692 c 0,-0.81288 17.08477,-10.99066 17.59419,-10.48125 0.266,0.266 -2.83438,2.55166 -6.88973,5.07925 -7.40184,4.61336 -10.70446,6.28003 -10.70446,5.402 z m -45,-6.18308 c 0,-1.34254 0.36858,-2.66878 0.81906,-2.94719 0.45048,-0.27841 0.6244,0.82003 0.3865,2.44098 -0.52454,3.57389 -1.20556,3.85985 -1.20556,0.50621 z m 39.46339,-3.49979 c 0.34488,-0.55802 -0.85163,-0.70821 -2.94098,-0.36915 -4.22572,0.68574 -4.51895,-0.044 -0.77241,-1.92224 1.5125,-0.75825 4.1,-2.19013 5.75,-3.18194 l 3,-1.80331 -2.25,2.019 c -3.14845,2.82521 -2.91877,4.56691 0.5,3.79148 2.61217,-0.59249 2.65271,-0.5478 0.80887,0.89159 -2.13294,1.66508 -5.01975,2.07008 -4.09548,0.57457 z m 106.53661,-2.51226 c 0,-0.2677 7.875,-4.4635 17.5,-9.32401 9.625,-4.86051 17.5,-8.55459 17.5,-8.20908 0,0.5392 -7.30036,4.32108 -30.25,15.67072 -2.6125,1.292 -4.75,2.13007 -4.75,1.86237 z M 155.3795,244.49566 c 0.024,-0.77969 9.97643,-5.48831 9.97643,-4.71996 0,0.23068 -2.25,1.55958 -5,2.95311 -2.75,1.39353 -4.98939,2.18861 -4.97643,1.76685 z m -43.02357,-3.70783 c 0,-1.89254 0.34578,-3.65469 0.7684,-3.91589 0.42263,-0.26119 0.60036,1.28725 0.39497,3.44099 -0.46113,4.83541 -1.16337,5.12208 -1.16337,0.4749 z m 155,2.44577 c 0,-0.47851 0.83439,-1.13484 1.85419,-1.45851 1.01981,-0.32368 9.86046,-4.86335 19.6459,-10.08816 9.78543,-5.22481 17.99009,-9.30127 18.23257,-9.05879 0.66229,0.66229 -2.56663,2.48449 -21.98266,12.40564 -9.7625,4.98841 -17.75,8.67833 -17.75,8.19982 z m 17.39497,-0.83485 c 0.39769,-0.64347 1.29167,-1.16994 1.98663,-1.16994 0.69496,0 5.5059,-2.03592 10.69098,-4.52426 5.18508,-2.48835 8.30242,-3.62158 6.92742,-2.51829 -1.375,1.10329 -5.79628,3.39129 -9.82507,5.08445 -10.60125,4.45535 -10.60004,4.45497 -9.77996,3.12804 z m -130.6208,-5.17368 c 4.24555,-2.58851 5.63545,-2.5855 1.72583,0.004 -1.65,1.09275 -3.45,1.9881 -4,1.98967 -0.55,0.002 0.47338,-0.89546 2.27417,-1.99341 z m -43.61627,-2.99626 c 0,-1.375 0.22697,-1.9375 0.50438,-1.25 0.27742,0.6875 0.27742,1.8125 0,2.5 -0.27741,0.6875 -0.50438,0.125 -0.50438,-1.25 z m 34.8421,0.55136 c 0,-0.275 1.35,-1.19811 3,-2.05136 1.65,-0.85325 3,-1.32636 3,-1.05136 0,0.275 -1.35,1.19811 -3,2.05136 -1.65,0.85325 -3,1.32636 -3,1.05136 z m 140,-5.55136 c 0.825,-0.53316 1.95,-0.96937 2.5,-0.96937 0.55,0 0.325,0.43621 -0.5,0.96937 -0.825,0.53316 -1.95,0.96937 -2.5,0.96937 -0.55,0 -0.325,-0.43621 0.5,-0.96937 z m -2.1975,-5.02096 c 5.94077,-3.62202 23.39579,-12.11409 23.88805,-11.62182 0.55243,0.55242 -0.42482,1.10588 -14.69055,8.32 -10.54037,5.33021 -15.36561,7.06243 -9.1975,3.30182 z m -152.47208,-6.22904 c -2.80569,-2.8875 -5.61037,-6.24704 -6.23263,-7.46564 -1.00603,-1.97016 -0.78684,-2.3938 1.97835,-3.82373 1.71035,-0.88446 3.33269,-1.38514 3.6052,-1.11263 0.27251,0.27252 -0.73355,1.13944 -2.2357,1.92649 -1.69915,0.89028 -2.30717,1.69306 -1.60907,2.1245 0.61715,0.38143 2.00181,0.22269 3.07702,-0.35275 1.07521,-0.57543 2.54701,-1.02738 3.27067,-1.00432 0.72366,0.023 -0.21229,0.85599 -2.07988,1.85098 -2.04767,1.09093 -2.95251,2.08293 -2.27937,2.49895 0.61394,0.37944 2.52129,-0.0367 4.23855,-0.92472 1.71727,-0.88803 3.31991,-1.41699 3.56144,-1.17547 0.24152,0.24153 -0.94226,1.01133 -2.63062,1.71067 -3.24232,1.34301 -3.57889,3.73531 -0.44441,3.15877 1.4961,-0.27518 1.61922,-0.0699 0.65493,1.09201 -1.87883,2.26386 -0.26865,2.79527 3.67212,1.21192 3.2264,-1.29632 3.4105,-1.29198 1.68185,0.0396 -1.06762,0.82243 -2.30512,1.49532 -2.75,1.49532 -0.44488,0 -0.80887,0.45 -0.80887,1 0,0.55 0.70156,1 1.55902,1 0.85746,0 1.2809,0.45 0.94098,1 -1.04265,1.68704 -1.88718,1.18642 -7.16958,-4.25 z m -43.251471,-3.33333 c 0.048,-1.16495 0.28494,-1.4019 0.60417,-0.60417 0.28887,0.72187 0.25334,1.58437 -0.079,1.91667 -0.33229,0.33229 -0.56864,-0.25834 -0.52522,-1.3125 z m 47.921051,0.1537 c 0,-0.275 0.9,-0.98167 2,-1.57037 1.1,-0.5887 2,-0.84537 2,-0.57037 0,0.275 -0.9,0.98167 -2,1.57037 -1.1,0.5887 -2,0.84537 -2,0.57037 z m -42.921051,-3.1537 c 0.048,-1.16495 0.28494,-1.4019 0.60417,-0.60417 0.28887,0.72187 0.25334,1.58437 -0.079,1.91667 -0.33229,0.33229 -0.56864,-0.25834 -0.52522,-1.3125 z m -4.53394,-1.66667 c 0.37388,-1.2375 1.09143,-2.68973 1.59456,-3.22717 0.50313,-0.53745 0.40853,0.47505 -0.21022,2.25 -1.26636,3.63269 -2.4361,4.45838 -1.38434,0.97717 z m 189.954991,-8.16073 c 1.1,-0.83658 2.5943,-2.03386 3.32068,-2.66061 0.72637,-0.62676 5.34163,-2.88354 10.25614,-5.01508 4.9145,-2.13154 10.0577,-4.61084 11.42932,-5.50956 2.99829,-1.96455 3.39624,-0.14948 0.42371,1.93256 -1.53497,1.07514 -1.72886,1.60445 -0.75,2.04747 0.72608,0.32862 0.37106,0.36644 -0.78893,0.0841 -1.81408,-0.44162 -7.71725,1.95164 -23.89092,9.68583 -2,0.95639 -2,0.95639 0,-0.56467 z M 111.9148,189.76061 c 1.06762,-0.8075 2.36464,-1.4825 2.88226,-1.5 0.51762,-0.0175 0.0676,0.62889 -1,1.4364 -1.06762,0.8075 -2.36464,1.4825 -2.88226,1.5 -0.51762,0.0175 -0.0676,-0.62889 1,-1.4364 z m -3.55887,-1.32874 c 0,-0.78306 6.12368,-3.41271 6.6715,-2.86489 0.16686,0.16686 -1.26596,1.05175 -3.18406,1.96643 -1.91809,0.91467 -3.48744,1.31898 -3.48744,0.89846 z M 55.434879,177.64548 c 0.048,-1.16495 0.28494,-1.4019 0.60417,-0.60417 0.28887,0.72187 0.25334,1.58437 -0.0789,1.91667 -0.33229,0.33229 -0.56864,-0.25834 -0.52522,-1.3125 z m -0.903,-3.91667 c -0.0334,-1.1 0.31163,-3.8 0.76668,-6 0.69564,-3.36313 0.82685,-3.52234 0.82406,-1 -0.004,3.5028 -1.49743,10.07517 -1.59074,7 z m 43.82405,-4.89301 c 0,-0.21616 0.69838,-0.661 1.55194,-0.98855 0.889931,-0.34149 1.291321,-0.17385 0.940981,0.39301 -0.58725,0.95021 -2.492921,1.40545 -2.492921,0.59554 z m -8.91666,-1.98407 c 1.02279,-0.92562 8.91666,-4.6116 8.91666,-4.16357 0,0.56844 -7.54685,4.54065 -8.62683,4.54065 -0.38857,0 -0.519,-0.16969 -0.28983,-0.37708 z m -37.08334,-3.0639 c 0,-1.34254 0.36858,-2.66878 0.81906,-2.94719 0.45048,-0.27841 0.62441,0.82003 0.3865,2.44098 -0.52454,3.57389 -1.20556,3.85985 -1.20556,0.50621 z m -13.98468,-13.64235 c 0.008,-1.87917 0.42755,-4.06828 0.9314,-4.8647 0.59265,-0.93678 0.7152,0.12241 0.3471,3 -0.70636,5.52195 -1.29877,6.38596 -1.2785,1.8647 z m 32.98468,-7.83424 c 2.40702,-1.96216 4,-2.60258 4,-1.60811 0,0.26088 -1.4625,1.18796 -3.25,2.06019 l -3.25,1.58588 2.5,-2.03796 z m -6,-3.4658 c 0,-0.21085 0.90062,-0.61888 2.00138,-0.90674 1.10076,-0.28785 1.7492,-0.11534 1.44099,0.38337 -0.53825,0.87091 -3.44237,1.31244 -3.44237,0.52337 z m -3,-1.42093 c 0,-0.48107 1.15367,-1.40032 2.56371,-2.04277 1.46437,-0.66721 2.2981,-0.73835 1.94431,-0.1659 -0.90706,1.46765 -4.50802,3.23191 -4.50802,2.20867 z m 6,-3.62533 c 0,-0.275 0.9,-0.98167 2,-1.57037 1.1,-0.5887 2,-0.84537 2,-0.57037 0,0.275 -0.9,0.98167 -2,1.57037 -1.1,0.5887 -2,0.84537 -2,0.57037 z m -5.26666,-5.69445 c 0.67833,-0.68342 1.48524,-0.99068 1.79312,-0.68279 0.30789,0.30789 -0.24711,0.86705 -1.23333,1.24258 -1.4252,0.54269 -1.54006,0.42782 -0.55979,-0.55979 z m -30.73334,-23.92472 c 3.4686,-2.35442 5.44394,-3.03957 3,-1.04055 -1.375,1.12469 -2.95,2.048 -3.5,2.0518 -0.55,0.004 -0.325,-0.45125 0.5,-1.01125 z"
     id="path13045"
     inkscape:connector-curvature="0" />
  <path
     style="fill:#0049ff;stroke:#000000;stroke-width:1px;stroke-linecap:butt;stroke-linejoin:miter;stroke-opacity:1;fill-opacity:0.27722773"
     d="m 102.02595,236.87765 6.21028,8.69438 0,-15.6144 14.01748,-24.3088 -0.17744,-6.03283 -2.48411,-2.12924 -11.00106,16.67902 -6.38771,16.14672 z"
     id="path13576"
     inkscape:connector-curvature="0" />
</svg>
