<?xml version="1.0" encoding="UTF-8" standalone="no"?>
<!-- Created with Inkscape (http://www.inkscape.org/) -->

<svg
   xmlns:dc="http://purl.org/dc/elements/1.1/"
   xmlns:cc="http://creativecommons.org/ns#"
   xmlns:rdf="http://www.w3.org/1999/02/22-rdf-syntax-ns#"
   xmlns:svg="http://www.w3.org/2000/svg"
   xmlns="http://www.w3.org/2000/svg"
   xmlns:sodipodi="http://sodipodi.sourceforge.net/DTD/sodipodi-0.dtd"
   xmlns:inkscape="http://www.inkscape.org/namespaces/inkscape"
   id="svg4515"
   version="1.1"
   inkscape:version="0.48.4 r9939"
   width="307"
   height="212"
   sodipodi:docname="Towel.png">
  <metadata
     id="metadata4521">
    <rdf:RDF>
      <cc:Work
         rdf:about="">
        <dc:format>image/svg+xml</dc:format>
        <dc:type
           rdf:resource="http://purl.org/dc/dcmitype/StillImage" />
        <dc:title></dc:title>
      </cc:Work>
    </rdf:RDF>
  </metadata>
  <defs
     id="defs4519" />
  <sodipodi:namedview
     pagecolor="#ffffff"
     bordercolor="#666666"
     borderopacity="1"
     objecttolerance="10"
     gridtolerance="10"
     guidetolerance="10"
     inkscape:pageopacity="0"
     inkscape:pageshadow="2"
     inkscape:window-width="1180"
     inkscape:window-height="713"
     id="namedview4517"
     showgrid="false"
     inkscape:zoom="1.5431972"
     inkscape:cx="220.33338"
     inkscape:cy="158.4917"
     inkscape:window-x="1"
     inkscape:window-y="22"
     inkscape:window-maximized="0"
     inkscape:current-layer="svg4515" />
  <path
     style="fill:#246fb1;fill-opacity:1;stroke:none"
     d="m 163.52501,23.597503 c 14.07027,-1.653897 24.90066,-7.010509 42.21081,-4.961682 14.68215,4.816087 23.28434,12.87482 31.61642,21.077612 l 56.3597,64.149257 c 7.06616,18.38195 3.71767,36.0696 5.0403,54.06865 l -56.81791,13.28806 c 4.36632,-21.25721 -1.59156,-35.90693 -7.78955,-50.40298 C 212.72536,85.017307 187.06843,55.998219 163.52501,23.597503 z"
     id="path5039"
     inkscape:connector-curvature="0"
     sodipodi:nodetypes="cccccccc" />
  <path
     style="fill:#246fb1;fill-opacity:1;stroke:none"
     d="M 31.537802,71.228208 C 28.89827,62.786839 25.083785,54.449141 36.656716,44.753731 L 111.80299,28.258209 c 4.12701,2.115103 8.86233,3.013597 11.80702,7.493344 25.25734,32.418909 52.66836,57.946071 75.76648,97.274507 7.26723,14.41381 11.10228,29.41937 5.90112,45.9829 l -71.4806,19.24477 c -10.0466,0.97568 -18.18884,-3.28564 -26.57611,-6.87313 C 73.104476,156.201 42.370672,120.59857 21.99403,83.701492 23.486536,77.854979 24.602929,71.632354 31.537802,71.228208 z"
     id="path5037"
     inkscape:connector-curvature="0"
     sodipodi:nodetypes="cccccccccc" />
  <path
     style="fill:#24a1b1;fill-opacity:1;stroke:none"
     d="m 109.51194,28.258209 c 2.38048,-1.416531 7.25865,-0.157703 12.67297,5.424322 12.91982,13.319989 29.9157,39.211534 48.12617,58.033578 12.57606,12.998421 21.46396,28.773971 29.46802,41.471951 6.00015,14.30683 8.81404,18.8376 6.41493,46.05 l 36.65671,-7.78955 c 0.013,-16.19911 0.49732,-32.33087 -7.78955,-49.71567 C 214.67263,84.893231 186.46833,54.892384 161.74776,21.843283 z"
     id="path4527"
     inkscape:connector-curvature="0"
     sodipodi:nodetypes="csscccccc" />
  <path
     style="fill:#000000"
     d="m 124.99851,198.903 c -7.6939,-1.65139 -11.5,-2.99184 -11.5,-4.05013 0,-0.60556 0.75667,-0.77608 1.75,-0.39437 2.91692,1.12089 15.20762,3.5415 17.98204,3.5415 1.43071,0 2.30307,0.29823 1.93857,0.66272 -1.05801,1.05801 -5.83496,1.17087 -10.17061,0.24028 z m 11.5,-1.77519 c 0,-0.47971 1.6875,-1.15443 3.75,-1.49938 2.0625,-0.34495 4.28063,-0.97182 4.92918,-1.39305 0.65451,-0.4251 1.69412,-5.6536 2.33646,-11.75063 1.33938,-12.71345 2.97856,-19.42069 2.31797,-9.48475 -0.23769,3.575 -0.91476,9.33273 -1.5046,12.79495 -0.58984,3.46223 -0.84245,6.52495 -0.56135,6.80605 0.61775,0.61775 9.30467,-1.56126 24.60905,-6.17289 11.89023,-3.58285 14.18617,-4.0469 12.57329,-2.5413 -0.5225,0.48774 -8.15,3.00079 -16.95,5.58454 -8.8,2.58375 -18.8599,5.55968 -22.35534,6.61319 -7.00734,2.11197 -9.14466,2.35581 -9.14466,1.04327 z M 125.81534,187.5 c 0.14937,-7.33923 -0.0884,-9 -1.28847,-9 -1.03376,0 -1.96844,2.38041 -3.14124,8 -0.91828,4.4 -1.71846,7.325 -1.77819,6.5 -0.0597,-0.825 0.57296,-5.0617 1.40596,-9.41489 l 1.51454,-7.91489 -3.26471,-2.73684 c -3.81442,-3.19766 -4.50973,-2.46282 -4.79411,5.06662 -0.0935,2.475 -0.53202,5.625 -0.97453,7 -0.75827,2.35614 -0.25243,-12.08308 0.5127,-14.63519 0.18719,-0.62435 -1.00724,-2.42435 -2.65427,-4 -1.64703,-1.57564 -3.96017,-4.425 -5.14029,-6.33191 l -2.14568,-3.4671 -0.70307,3.43761 c -0.38669,1.89069 -1.01425,8.00309 -1.39459,13.58313 -0.67447,9.89544 -0.63334,10.18646 1.6688,11.80679 2.3563,1.65845 2.36084,1.65442 2.66782,-2.36603 0.16912,-2.21501 0.62236,-4.0273 1.0072,-4.0273 0.38484,0 0.53293,2.09706 0.32908,4.66014 -0.31507,3.96143 -0.0185,4.92574 1.97785,6.43161 1.29167,0.9743 2.02047,2.09948 1.61956,2.50039 -0.40091,0.40091 -1.58502,-0.0458 -2.63135,-0.99274 -1.47733,-1.33697 -2.01967,-1.4287 -2.42718,-0.41053 -0.36355,0.90833 -0.54902,0.81116 -0.60371,-0.3163 -0.0434,-0.89509 -3.46945,-4.66192 -7.613405,-8.37074 -4.14395,-3.70881 -9.65217,-9.50147 -12.24047,-12.87257 -2.58831,-3.37109 -8.25957,-9.95426 -12.6028,-14.62926 -4.34323,-4.675 -12.28474,-13.98777 -17.64781,-20.69505 -5.36307,-6.70728 -10.02631,-11.99478 -10.36275,-11.75 -0.33644,0.24478 -0.4212,0.17953 -0.18834,-0.145 0.23286,-0.32452 -1.82102,-3.36202 -4.56418,-6.75 -5.74476,-7.09515 -13.84766,-20.134314 -16.81754,-27.062764 -2.30676,-5.38145 -2.354,-5.59719 -1.22567,-5.59719 0.44879,0 1.88573,2.58097 3.19321,5.73548 2.42315,5.8463 14.61285,24.876034 17.4348,27.218054 1.39282,1.15593 1.556,0.0725 1.556,-10.33109 0,-6.392344 0.3375,-11.623384 0.75,-11.624544 0.4125,-10e-4 0.525,5.50654 0.25,12.239334 -0.47343,11.59096 -0.38212,12.37486 1.7184,14.75211 l 2.2184,2.51066 0.0316,-8.41667 c 0.0406,-10.82507 0.83025,-10.15361 1.09388,0.93021 0.22122,9.30076 1.07389,11.61111 6.38192,17.29211 1.95569,2.09311 3.5558,4.15217 3.5558,4.57569 0,0.42352 1.18704,1.86097 2.63786,3.19435 l 2.63786,2.42431 -0.5427,-4.25 c -0.32461,-2.54208 -0.13862,-4.25 0.46283,-4.25 0.58294,0 0.85008,1.95461 0.63565,4.65076 -0.36066,4.53477 -0.1974,4.8403 6.54599,12.25 3.80374,4.17958 9.43737,10.71898 12.5192,14.53199 l 5.60331,6.93274 0.65465,-4.43274 0.65466,-4.43275 -0.15466,5.02532 c -0.14532,4.72224 0.10168,5.25698 4.09535,8.86636 4.056735,3.66637 4.250395,3.73343 4.258565,1.47468 0.005,-1.3015 0.46378,-7.50978 1.02018,-13.79618 0.68684,-7.76034 0.6841,-11.75734 -0.009,-12.45 -0.69353,-0.69357 -1.02014,-0.61711 -1.02014,0.23884 0,0.69246 -0.45,0.9809 -1.000005,0.64098 -0.55,-0.33992 -1,-1.33829 -1,-2.2186 0,-0.88032 -2.52792,-4.25084 -5.6176,-7.49005 -6.80408,-7.13337 -6.33221,-9.13666 0.55439,-2.35361 4.68208,4.61167 4.90991,4.71575 5.34078,2.43971 0.42456,-2.24272 0.45779,-2.2251 0.58625,0.311 0.217,4.28389 17.096135,25.66529 17.158955,21.73586 0.0125,-0.78337 0.72461,-0.001 1.58242,1.73797 0.87716,1.7785 2.61755,3.42779 3.97723,3.76905 1.32967,0.33373 2.49323,1.3857 2.58569,2.33772 0.0925,0.95202 0.46681,-0.96905 0.83189,-4.26905 l 0.66378,-6 0.16811,6.20031 c 0.12811,4.72483 0.58455,6.44575 1.91811,7.2317 1.2906,0.76064 1.43198,1.24232 0.53857,1.83487 -0.66628,0.44191 -1.64871,4.38765 -2.18316,8.7683 l -0.97174,7.96482 0.18316,-9 z m 8.90116,3 c -0.0102,-1.65 0.34166,-4.125 0.78201,-5.5 l 0.80064,-2.5 -0.0186,2.5 c -0.0103,1.375 -0.36216,3.85 -0.78201,5.5 l -0.76337,3 -0.0186,-3 z m 16.2344,-6.5 c 1.90462,-6.66383 2.674,-14.41023 2.35333,-23.69412 -0.31496,-9.11873 -0.60501,-10.46334 -2.74952,-12.74606 -1.31858,-1.40356 -2.17534,-2.77401 -1.90391,-3.04545 0.27143,-0.27143 1.77867,0.84791 3.34942,2.48742 2.57326,2.6859 2.89935,3.80856 3.29482,11.34325 0.5557,10.58733 -1.24854,24.56876 -3.4362,26.62784 -1.47716,1.39035 -1.55848,1.30322 -0.90794,-0.97288 z m 47.98874,-3.43187 C 200.00726,179.70566 201.87776,179 203.09632,179 c 2.08364,0 2.25842,-0.57187 2.93568,-9.60533 0.93185,-12.42909 0.28498,-17.05082 -3.83419,-27.39467 -4.7446,-11.91438 -6.72972,-15.54325 -14.89561,-27.22963 C 178.55095,102.24626 172.54467,94.833776 163.16069,84.976836 155.22012,76.636046 142.24177,61.004757 132.45957,48 c -3.51655,-4.675 -7.19637,-9.372353 -8.17739,-10.438561 -0.98102,-1.066209 -1.78367,-2.25926 -1.78367,-2.651225 0,-0.926816 -5.86897,-4.381968 -8.7001,-5.121883 -2.65206,-0.693114 -15.289465,1.597978 -20.674725,3.748214 -2.13115,0.850931 -4.11274,1.309224 -4.40354,1.018428 -1.75275,-1.752756 24.662475,-8.530341 33.307185,-8.545914 2.76585,-0.005 11.31585,-0.902021 19,-1.993418 7.68415,-1.091397 16.44618,-1.992835 19.47118,-2.003195 3.025,-0.01036 9.325,-0.661338 14,-1.44662 13.48598,-2.265301 21.66536,-2.941949 20.47691,-1.693971 -0.5627,0.590882 -7.59723,1.8543 -15.63228,2.807596 l -14.60918,1.733265 2.35201,3.725835 c 2.60418,4.125287 12.36632,17.071098 22.1408,29.361449 14.07452,17.697186 16.7347,21.370376 16.0051,22.099976 -0.26666,0.26665 -2.11083,-1.67176 -4.09816,-4.30758 -1.98733,-2.63582 -5.75575,-7.54841 -8.37426,-10.91686 -10.6416,-13.68935 -16.92416,-22.024202 -18.61238,-24.6924 -0.98026,-1.549275 -2.58291,-3.617482 -3.56144,-4.596014 -0.97853,-0.978533 -3.23524,-3.8955 -5.0149,-6.482149 -3.15104,-4.57988 -3.34486,-4.688352 -7.40398,-4.143565 -2.29253,0.307687 -8.89324,1.205547 -14.66824,1.995245 -5.775,0.789698 -14.48804,1.742443 -19.3623,2.117212 l -8.8623,0.681398 2.95411,1.870415 c 3.29241,2.084602 8.36418,7.856291 18.77049,21.360848 9.19336,11.93048 20.42281,25.29757 28.56161,33.99859 10.25256,10.9608 14.96159,16.971074 24.84513,31.710544 15.28098,22.78874 19.85503,37.18595 17.33214,54.55434 -0.49933,3.4375 -0.85745,6.25 -0.79584,6.25 1.02781,0 34.08998,-7.19968 34.3761,-7.48581 0.2219,-0.2219 0.44372,-5.71587 0.49292,-12.20882 0.0954,-12.58211 -0.58775,-16.17113 -5.44871,-28.62746 -3.23643,-8.29343 -3.29816,-11.48638 -0.0971,-5.02482 5.87526,11.85981 8.61263,25.56348 7.57007,37.89692 l -0.6536,7.7321 3.90866,-0.73292 c 2.14976,-0.4031 7.28366,-1.83284 11.40866,-3.1772 4.125,-1.34436 12.45,-3.31832 18.5,-4.38657 11.53062,-2.03596 17.13631,-3.43666 19.2825,-4.81811 1.43492,-0.92363 1.99898,-23.40745 0.83208,-33.16731 -0.53037,-4.4359 -0.44704,-5.01632 0.43067,-3 1.52117,3.49448 3.15828,24.4843 2.37241,30.41722 -0.35823,2.70448 -1.38626,5.69615 -2.2845,6.64817 -2.12017,2.24711 -10.1279,4.5745 -20.42205,5.93553 -4.51611,0.59709 -11.58611,2.16666 -15.71111,3.48793 -10.56766,3.38491 -13.73642,4.14786 -37.44057,9.01473 -11.58269,2.37812 -22.40943,4.61834 -24.05943,4.97827 -2.85117,0.62194 -2.9037,0.57661 -1.05887,-0.91372 z M 141.20243,176.5 c 0.31781,-2.75 0.73944,-5.1875 0.93696,-5.41667 0.74757,-0.86735 0.17977,6.50615 -0.64812,8.41667 -0.55758,1.2867 -0.66059,0.21675 -0.28884,-3 z M 107.73051,175 c 0,-1.925 0.2058,-2.7125 0.45733,-1.75 0.25152,0.9625 0.25152,2.5375 0,3.5 -0.25153,0.9625 -0.45733,0.175 -0.45733,-1.75 z m 30.36158,-1.38327 c 0.56857,-1.48167 -1.83937,-7.99553 -3.86496,-10.45531 -1.0289,-1.24943 -1.33785,-0.8555 -1.90058,2.42331 l -0.67197,3.91527 0.25825,-4.5 c 0.18631,-3.24648 -0.3229,-5.33568 -1.82803,-7.5 l -2.08629,-3 -0.5929,5 -0.59289,5 -0.15711,-5.77144 c -0.11976,-4.39956 -0.7893,-6.72675 -2.81671,-9.79039 -3.075,-4.64663 -4.06165,-4.20463 -4.60255,2.06183 -0.31333,3.63005 -0.4222,3.22877 -0.56313,-2.07569 -0.14739,-5.54751 -0.55574,-6.93364 -2.61159,-8.86501 l -2.43688,-2.28934 -0.38841,4.36502 c -0.35844,4.02815 -0.4019,3.93175 -0.56312,-1.24921 -0.16595,-5.33278 -0.44707,-5.90224 -5.6078,-11.35974 l -5.43309,-5.74553 -0.39881,3.85975 c -0.3763,3.64194 -0.40829,3.58951 -0.5669,-0.92897 -0.144,-4.10206 -0.740315,-5.39259 -4.158595,-9 -3.31841,-3.50202 -4.16101,-3.95865 -5.00302,-2.71128 -0.82959,1.22896 -0.96683,1.13099 -0.75952,-0.54223 0.13916,-1.12323 -0.87198,-3.56551 -2.24698,-5.42729 -3.26676,-4.42326 -14.22449,-16.139324 -14.67414,-15.689664 -0.19203,0.19202 -0.77241,3.68139 -1.28973,7.754154 l -0.9406,7.40503 0.48503,-8.36262 c 0.46203,-7.966244 0.35313,-8.535024 -2.29777,-11.999994 l -2.78279,-3.63739 -0.56103,9 -0.56103,9.000004 -0.2112,-10.000004 c -0.17057,-8.07566 -0.57724,-10.47636 -2.11334,-12.47545 l -1.90212,-2.47546 -0.5591,2.47546 c -0.3075,1.3615 -0.71589,4.27545 -0.90753,6.47545 -0.19164,2.2 -0.42409,0.36595 -0.51654,-4.07568 -0.15002,-7.20664 -0.43714,-8.32843 -2.66811,-10.42432 l -2.5,-2.34862 -0.19366,8.92431 -0.19367,8.92431 -0.55633,-9.83893 -0.55634,-9.83894 -3.25,-1.36279 c -2.9245,-1.2263 -3.25635,-1.19236 -3.31338,0.33894 -0.0464,1.2462 -0.30548,1.09943 -0.96778,-0.54828 -0.50951,-1.26759 -1.76594,-2.25 -2.8776,-2.25 -2.15859,0 -3.72696,-1.72926 -2.55447,-2.816527 0.40537,-0.375908 0.93793,-0.120969 1.18347,0.566531 0.24554,0.687496 1.30893,1.249996 2.3631,1.249996 2.17531,0 2.60938,-2.90728 0.71666,-4.799996 -0.93333,-0.933333 -0.93333,-1.2 0,-1.2 0.77565,0 1.2566,-2.033354 1.36004,-5.75 0.0983,-3.533298 0.31556,-4.496608 0.56345,-2.498774 0.3507,2.826436 0.6485,3.120058 2.27927,2.247296 2.26102,-1.21006 2.69943,-0.604134 3.68772,5.09686 l 0.76356,4.404618 0.63108,-4 c 0.52026,-3.29764 0.65599,-2.759824 0.77298,3.062909 0.12912,6.426677 0.40774,7.317597 3.09302,9.890257 l 2.95111,2.82734 0.35303,-6.89025 0.35302,-6.890256 0.19586,8.144246 c 0.18051,7.5058 0.4269,8.39157 3.14311,11.29928 1.62098,1.73527 2.96953,3.47036 2.99677,3.85576 0.0894,1.26434 4.09464,6.20071 5.03113,6.20071 0.5034,0 1.09025,-1.9125 1.30412,-4.25 0.29327,-3.20534 0.37381,-2.87793 0.32766,1.33199 -0.0609,5.55725 -0.0347,5.60669 5.91594,11.16084 l 5.97713,5.578854 0.63169,-2.660844 c 0.56376,-2.37473 0.6444,-2.26953 0.75,0.978384 0.0651,2.00156 0.963,4.68235 1.99539,5.9573 l 1.87708,2.3181 0.73552,-4.45731 c 0.40454,-2.45152 1.16326,-5.132314 1.68604,-5.957314 0.70013,-1.10486 0.81478,-0.84143 0.43522,1 -2.16744,10.515354 -2.11906,10.895314 1.91319,15.024714 2.09048,2.14085 4.177765,3.65954 4.638385,3.37486 0.46062,-0.28468 0.83749,0.33817 0.83749,1.38412 0,1.04595 2.475,4.49824 5.5,7.67176 l 5.5,5.77005 0.0703,-6.36275 c 0.0387,-3.49951 0.40543,-7.21693 0.81506,-8.26092 0.40962,-1.04399 0.54998,2.17611 0.3119,7.15578 -0.41888,8.76115 -0.34014,9.1707 2.43494,12.6643 l 2.86781,3.61036 0.59981,-4.26614 0.5998,-4.26613 0.1502,4.86798 c 0.1182,3.83115 0.77519,5.57982 3.08456,8.21005 2.40764,2.74215 3.01508,3.0351 3.384,1.63202 0.2787,-1.05997 0.49373,-0.71589 0.56563,0.90509 0.0987,2.22426 3.00903,7.20048 5.19635,8.88486 0.35711,0.275 2.06012,3.01139 3.78447,6.08086 3.00542,5.34988 4.19953,11.91914 2.16656,11.91914 -0.53273,0 -0.72975,-0.62247 -0.4378,-1.38327 z M 53.498505,63.893016 c 0,-0.49116 -0.40777,-0.89302 -0.90616,-0.89302 -0.49839,0 -1.21562,-2.249996 -1.59384,-4.999996 -0.92767,-6.744961 -2.97486,-6.657307 -2.17537,0.09314 0.4996,4.218387 0.35178,4.996656 -0.86071,4.531386 -2.38082,-0.913606 -1.6676,0.97796 0.78608,2.08482 2.38599,1.07632 4.75,0.67004 4.75,-0.81634 z M 130.57746,172.41667 c 0.048,-1.16495 0.28494,-1.4019 0.60416,-0.60417 0.28887,0.72187 0.25335,1.58437 -0.0789,1.91667 -0.3323,0.33229 -0.56864,-0.25834 -0.52522,-1.3125 z M 142.73051,167 c 0,-1.925 0.2058,-2.7125 0.45733,-1.75 0.25152,0.9625 0.25152,2.5375 0,3.5 -0.25153,0.9625 -0.45733,0.175 -0.45733,-1.75 z m -50.113685,-6.08333 c 0.0651,-1.87917 0.48479,-4.76667 0.93271,-6.41667 0.53553,-1.97271 0.62336,-0.94543 0.25649,3 -0.6149,6.6128 -1.37556,8.79824 -1.1892,3.41667 z M 117.77087,160 c 0,-2.475 0.19502,-3.4875 0.43337,-2.25 0.23836,1.2375 0.23836,3.2625 0,4.5 -0.23835,1.2375 -0.43337,0.225 -0.43337,-2.25 z m -5.9727,-4 c 0,-3.025 0.18747,-4.2625 0.41659,-2.75 0.22913,1.5125 0.22913,3.9875 0,5.5 -0.22912,1.5125 -0.41659,0.275 -0.41659,-2.75 z m 31.77929,0.41667 c 0.048,-1.16495 0.28494,-1.4019 0.60416,-0.60417 0.28887,0.72187 0.25335,1.58437 -0.0789,1.91667 -0.3323,0.33229 -0.56864,-0.25834 -0.52522,-1.3125 z m -60.000005,-1 c 0.048,-1.16495 0.28494,-1.4019 0.60417,-0.60417 0.28887,0.72187 0.25334,1.58437 -0.0789,1.91667 -0.3323,0.33229 -0.56864,-0.25834 -0.52522,-1.3125 z M 111.49851,148.5 c 0,-0.825 0.43588,-1.5 0.96862,-1.5 0.53273,0 0.70959,0.675 0.39301,1.5 -0.31659,0.825 -0.75246,1.5 -0.96862,1.5 -0.21615,0 -0.39301,-0.675 -0.39301,-1.5 z m 23.30987,-7 c 0.006,-3.3 0.1923,-4.52944 0.41486,-2.73209 0.22256,1.79735 0.21797,4.49735 -0.0102,6 -0.22818,1.50265 -0.41027,0.0321 -0.40466,-3.26791 z m -63.120785,-5.81574 c -0.104,-4.29866 0.24537,-8.62753 0.77636,-9.6197 1.0437,-1.95017 -0.48449,-4.1784 -14.46704,-21.09418 -3.85088,-4.65871 -7.87065,-10.045384 -8.93282,-11.970384 -1.06217,-1.925 -3.08645,-4.96563 -4.4984,-6.75695 -2.52313,-3.20107 -2.57974,-3.21823 -3.29861,-1 -0.64853,2.00118 -0.69444,1.95507 -0.40514,-0.40689 0.22555,-1.84148 -0.70632,-3.96873 -3.01858,-6.89073 -1.83967,-2.32479 -3.34486,-4.90044 -3.34486,-5.72366 0,-1.6076 2.1153,0.90433 11.28224,13.39775 11.23154,15.307234 14.34054,19.328494 26.50247,34.279024 6.75659,8.3058 11.85398,15.10146 11.32755,15.10146 -0.52644,0 -2.98408,-2.31708 -5.46143,-5.14906 l -4.50427,-5.14906 -0.57577,3.39906 c -0.31667,1.86948 -0.71456,6.09906 -0.88419,9.39906 -0.27707,5.38991 -0.32765,5.20529 -0.49751,-1.81574 z M 99.798175,137 c 0,-3.025 0.18746,-4.2625 0.416595,-2.75 0.22912,1.5125 0.22912,3.9875 0,5.5 -0.229135,1.5125 -0.416595,0.275 -0.416595,-2.75 z m -39.01365,-7.5 c 0.007,-2.75 0.20171,-3.75631 0.43156,-2.23625 0.22986,1.52006 0.22372,3.77006 -0.0136,5 -0.23736,1.22994 -0.42542,-0.0137 -0.41791,-2.76375 z m 4,0 c 0.007,-2.75 0.20171,-3.75631 0.43156,-2.23625 0.22986,1.52006 0.22372,3.77006 -0.0136,5 -0.23736,1.22994 -0.42542,-0.0137 -0.41791,-2.76375 z m 64.258745,-8.78593 c -6.87304,-6.01764 -18.33635,-17.86833 -20.57841,-21.273804 -0.84351,-1.28121 -3.65601,-3.95002 -6.25,-5.93068 -2.593995,-1.98066 -4.716355,-4.10903 -4.716355,-4.72971 0,-1.50246 3.283855,1.43759 17.000005,15.220214 6.325,6.35566 13.8625,13.69871 16.75,16.3179 2.8875,2.61918 5.25,4.96912 5.25,5.22208 0,1.24159 -2.01477,-0.0626 -7.45524,-4.826 z M 90.730515,120 c 0,-1.925 0.20579,-2.7125 0.45732,-1.75 0.25153,0.9625 0.25153,2.5375 0,3.5 -0.25153,0.9625 -0.45732,0.175 -0.45732,-1.75 z m -35.07411,-2 c 0,-1.375 0.22697,-1.9375 0.50438,-1.25 0.27742,0.6875 0.27742,1.8125 0,2.5 -0.27741,0.6875 -0.50438,0.125 -0.50438,-1.25 z m 30.07411,-4 c 0,-1.925 0.20579,-2.7125 0.45732,-1.75 0.25153,0.9625 0.25153,2.5375 0,3.5 -0.25153,0.9625 -0.45732,0.175 -0.45732,-1.75 z m 142.506195,-3.41585 c -1.85816,-3.90394 -7.28821,-11.563574 -14.44282,-20.373064 -2.36246,-2.9089 -4.29538,-5.57484 -4.29538,-5.92431 0,-1.2388 5.36178,4.31368 11.17725,11.57477 6.48297,8.094544 10.10792,14.438744 9.63155,16.856694 -0.19004,0.96459 -0.98638,0.14383 -2.0706,-2.13409 z M 295.02812,111 c -1.08775,-4.94121 -2.76654,-7.91673 -8.49078,-15.049274 -6.14923,-7.66208 -10.8479,-11.43076 -6.12796,-4.91507 1.7067,2.35604 2.88126,4.50555 2.61012,4.77669 -0.46358,0.46358 -1.28483,-0.45077 -7.52099,-8.37347 -13.2868,-16.88017 -23.63158,-29.282159 -30.09522,-36.080049 -4.25748,-4.477645 -8.42298,-9.427645 -9.25667,-11 -1.63715,-3.08769 -5.21145,-6.596425 -10.45569,-10.263906 -1.81916,-1.272207 -3.08033,-2.540343 -2.80259,-2.81808 1.38399,-1.383989 12.7107,8.320176 16.71237,14.318336 0.76879,1.152347 5.07194,6.102347 9.56256,11 4.49061,4.897652 11.53205,13.101549 15.64763,18.230879 4.11559,5.12933 10.44261,11.76738 14.06005,14.75122 10.41839,8.59357 19.15695,22.481204 17.37883,27.619054 -0.24815,0.71702 -0.7979,-0.27133 -1.22166,-2.19633 z M 56.656405,110 c 0,-1.375 0.22697,-1.9375 0.50438,-1.25 0.27742,0.6875 0.27742,1.8125 0,2.5 -0.27741,0.6875 -0.50438,0.125 -0.50438,-1.25 z m -15.92589,-2 c 0,-1.925 0.20579,-2.7125 0.45732,-1.75 0.25153,0.9625 0.25153,2.5375 0,3.5 -0.25153,0.9625 -0.45732,0.175 -0.45732,-1.75 z m 24.92589,-3 c 0,-1.375 0.22697,-1.9375 0.50438,-1.25 0.27742,0.6875 0.27742,1.8125 0,2.5 -0.27741,0.6875 -0.50438,0.125 -0.50438,-1.25 z M 28.577455,84.416666 c 0.048,-1.16494 0.28494,-1.4019 0.60417,-0.60417 0.28887,0.72188 0.25334,1.58438 -0.0789,1.91667 -0.3323,0.33229 -0.56864,-0.25833 -0.52522,-1.3125 z m -5.04854,-7.66667 c -0.0351,-2.01854 3.37496,-5.76057 5.21959,-5.72776 0.6875,0.0122 0.29613,0.79973 -0.86972,1.75 -1.16585,0.95027 -2.61467,2.62776 -3.21959,3.72776 -0.95678,1.73981 -1.10383,1.77233 -1.13028,0.25 z m 21.12749,-1.75 c 0,-1.375 0.22697,-1.9375 0.50438,-1.25 0.27742,0.6875 0.27742,1.8125 0,2.5 -0.27741,0.6875 -0.50438,0.125 -0.50438,-1.25 z m 22.16218,-5 c 0,-3.575 0.18149,-5.0375 0.40332,-3.25 0.22182,1.7875 0.22182,4.7125 0,6.5 -0.22183,1.7875 -0.40332,0.325 -0.40332,-3.25 z m 7.75887,4.41667 c 0.048,-1.16494 0.28494,-1.4019 0.60417,-0.60417 0.28887,0.72188 0.25334,1.58438 -0.0789,1.91667 -0.3323,0.33229 -0.56864,-0.25833 -0.52522,-1.3125 z m -44.37937,-6.5799 c -2.25854,-3.61427 -2.85504,-10.983213 -1.15442,-14.261172 0.80016,-1.542314 1.45484,-3.343143 1.45484,-4.001842 0,-2.07836 5.37054,-5.273028 10.83431,-6.444797 6.36227,-1.364463 6.43073,-1.366817 5.70727,-0.196233 -0.31705,0.512997 -3.04531,1.445255 -6.0628,2.071684 -4.41861,0.917299 -6.00558,1.819715 -8.15433,4.636874 -3.23541,4.24184 -4.08414,12.129509 -1.79822,16.711746 1.80803,3.62428 1.19667,4.7216 -0.82665,1.48374 z M 37.847925,55 c 0,-4.675 0.17225,-6.5875 0.38279,-4.25 0.21053,2.3375 0.21053,6.1625 0,8.5 -0.21054,2.3375 -0.38279,0.425 -0.38279,-4.25 z m 23.47509,0.325823 c 0.42672,-2.092959 0.67819,-2.344421 0.9696,-0.969603 0.2164,1.020921 -0.0429,2.292541 -0.57615,2.825822 -0.62614,0.626137 -0.76551,-0.0314 -0.39345,-1.856219 z m 8.34666,-1.774245 c -1.28086,-1.87299 -4.36781,-4.363868 -6.85989,-5.535284 -2.49208,-1.171417 -4.28009,-2.380811 -3.97336,-2.687544 0.30673,-0.306733 2.60304,0.432439 5.10291,1.642605 4.44114,2.149918 9.04272,7.099368 8.38765,9.02173 -0.18066,0.530161 -1.37645,-0.568517 -2.65731,-2.441507 z m -18.62117,-11.39155 c 2.21699,-1.960215 30.01402,-8.628939 33.02236,-7.92232 2.43962,0.573032 1.13348,1.087625 -7.07236,2.786369 -3.3,0.683154 -10.35655,2.307209 -15.68122,3.609011 -10.67528,2.609945 -11.6591,2.756237 -10.26878,1.52694 z M 211.99851,22.219114 c -3.3,-1.363338 -8.025,-2.79044 -10.5,-3.171337 -4.29618,-0.661172 -4.37194,-0.729022 -1.67261,-1.497991 2.12022,-0.603996 4.52171,-0.123375 9.60152,1.921595 7.49779,3.018372 9.74809,4.218718 9.04213,4.823201 -0.25907,0.221831 -3.17104,-0.71213 -6.47104,-2.075468 z"
     id="path4525"
     inkscape:connector-curvature="0" />
</svg>
