<?xml version="1.0" encoding="UTF-8" standalone="no"?>
<!-- Created with Inkscape (http://www.inkscape.org/) -->

<svg
   xmlns:dc="http://purl.org/dc/elements/1.1/"
   xmlns:cc="http://creativecommons.org/ns#"
   xmlns:rdf="http://www.w3.org/1999/02/22-rdf-syntax-ns#"
   xmlns:svg="http://www.w3.org/2000/svg"
   xmlns="http://www.w3.org/2000/svg"
   xmlns:sodipodi="http://sodipodi.sourceforge.net/DTD/sodipodi-0.dtd"
   xmlns:inkscape="http://www.inkscape.org/namespaces/inkscape"
   id="svg26520"
   version="1.1"
   inkscape:version="0.48.4 r9939"
   width="326"
   height="389"
   sodipodi:docname="WaterCanteen.png">
  <metadata
     id="metadata26526">
    <rdf:RDF>
      <cc:Work
         rdf:about="">
        <dc:format>image/svg+xml</dc:format>
        <dc:type
           rdf:resource="http://purl.org/dc/dcmitype/StillImage" />
        <dc:title></dc:title>
      </cc:Work>
    </rdf:RDF>
  </metadata>
  <defs
     id="defs26524">
    <filter
       id="filter27180"
       inkscape:label="Rubber stamp"
       x="0"
       y="0"
       width="1"
       height="1"
       inkscape:menu="Overlays"
       inkscape:menu-tooltip="Random whiteouts inside"
       color-interpolation-filters="sRGB">
      <feTurbulence
         id="feTurbulence27182"
         result="result1"
         baseFrequency="0.044585987261146501"
         numOctaves="4"
         type="fractalNoise"
         seed="289" />
      <feGaussianBlur
         id="feGaussianBlur27184"
         in="SourceAlpha"
         stdDeviation="4.9"
         result="result91" />
      <feComposite
         id="feComposite27186"
         in2="result91"
         operator="out"
         in="SourceAlpha"
         result="result92" />
      <feComposite
         id="feComposite27188"
         in2="result1" />
      <feColorMatrix
         id="feColorMatrix27190"
         result="result1"
         values="1 0 0 0 0 0 1 0 0 0 0 0 1 0 0 0 0 0 20 -9" />
      <feComposite
         id="feComposite27192"
         in2="result1"
         result="result1"
         operator="in"
         in="SourceGraphic" />
      <feTurbulence
         id="feTurbulence27194"
         baseFrequency="0.032"
         numOctaves="1"
         result="result92" />
      <feDisplacementMap
         id="feDisplacementMap27196"
         in2="result92"
         scale="4.1"
         yChannelSelector="G"
         xChannelSelector="R"
         in="result1" />
    </filter>
    <filter
       id="filter27198"
       inkscape:label="filter2" />
  </defs>
  <sodipodi:namedview
     pagecolor="#ffffff"
     bordercolor="#666666"
     borderopacity="1"
     objecttolerance="10"
     gridtolerance="10"
     guidetolerance="10"
     inkscape:pageopacity="0"
     inkscape:pageshadow="2"
     inkscape:window-width="1286"
     inkscape:window-height="749"
     id="namedview26522"
     showgrid="false"
     inkscape:zoom="1.2133676"
     inkscape:cx="211.64931"
     inkscape:cy="255.84704"
     inkscape:window-x="1"
     inkscape:window-y="22"
     inkscape:window-maximized="0"
     inkscape:current-layer="svg26520" />
  <path
     style="fill:#755416;fill-opacity:1;stroke:none"
     d="m 131.12187,56.241841 -1.45691,-13.112187 c 19.22841,-2.431676 39.63823,-5.547326 44.58143,0.291382 l 0,20.105352 c 16.09442,21.354214 38.58201,42.175662 37.29689,64.978172 5.16703,28.43013 -12.69305,51.92487 -53.3229,73.42824 -21.28258,0.42818 -39.42269,-12.15175 -44.58143,-16.90015 0,0 -5.06735,-10.36591 -7.57593,-11.07251 -5.16446,-1.45469 -25.043041,-43.58853 -18.065678,-46.62111 1.369517,-55.385639 28.638218,-52.255832 43.124528,-71.097189 z"
     id="path27042"
     inkscape:connector-curvature="0"
     sodipodi:nodetypes="cccccccscc" />
  <path
     style="fill:#ab850e;fill-opacity:1;stroke:none"
     d="M 135.4926,41.381362 129.95634,27.39503 c 9.29378,-2.391444 -1.50564,-12.833515 41.37623,-7.867312 2.9268,9.188264 0.99716,14.734202 1.16553,21.853644 -15.51021,-2.267889 -26.89882,-1.591776 -37.0055,0 z"
     id="path26532"
     inkscape:connector-curvature="0"
     sodipodi:nodetypes="ccccc" />
  <path
     style="fill:#755416;fill-opacity:1;stroke:none;"
     d="m 111.67267,198.62076 42.85593,15.6589 c 0.85755,3.59091 -0.0658,7.17859 3.1899,11.06891 14.31243,17.10229 32.82935,39.95056 39.73673,63.05482 2.37791,27.68742 -1.60722,52.19331 -19.36758,69.81159 -21.94051,10.21333 -35.49962,24.17154 -92.084404,18.90551 C 58.408305,367.52782 28.671254,360.52823 15.246822,333.78178 6.2053446,288.85736 23.775671,265.22237 47.388771,246.42161 L 93.95339,216.75212 z"
     id="path27044"
     inkscape:connector-curvature="0"
     sodipodi:nodetypes="ccsccccccc" />
  <path
     style="fill:#347516;fill-opacity:1;stroke:none"
     d="m 209.33475,156.58898 5.35699,-8.6536 c 25.95389,-3.49529 51.42405,-1.66955 77.88241,-10.71398 3.88357,-9.92699 16.10318,-21.47372 6.59322,-42.855934 C 272.14845,73.599244 252.04341,79.478753 233.64725,64.283898 l 13.18644,-2.060381 c 38.64804,12.423173 55.24373,22.04605 59.33898,30.081567 7.8254,16.089556 1.67077,31.655116 -6.79926,48.831036 -35.34265,10.48072 -60.02577,10.30191 -90.03866,15.45286 z"
     id="path27216"
     inkscape:connector-curvature="0"
     sodipodi:nodetypes="ccccccccc" />
  <path
     style="fill:#347516;fill-opacity:1;stroke:none"
     d="m 107.51993,181.68176 c 11.20847,9.1931 32.94879,15.75325 51.28322,23.16486 l 2.47675,-4.51642 c 3.26253,3.95298 1.80446,8.1579 -6.5561,13.25788 -45.51665,-12.35952 -40.58658,-14.34682 -46.91249,-18.64844 -2.72394,-6.25806 -1.31909,-9.62597 -0.29138,-13.25788 z"
     id="path27218"
     inkscape:connector-curvature="0"
     sodipodi:nodetypes="cccccc" />
  <path
     style="fill:#347516;fill-opacity:1;stroke:none"
     d="m 287.21875,5.9375 c -4.83054,0.019283 -10.71392,0.4806984 -17.96875,1.5 -15.25718,6.872892 -32.7497,12.346153 -38.03125,25.5 l -1.90625,17.78125 c -12.55316,0.599074 -28.98794,0.315406 -35.25,2.3125 C 185.01995,55.618078 180.48743,59.707302 176,63.8125 l 5.8125,5.53125 c 6.80754,-6.437068 21.40471,-9.346723 37,-9.3125 29.87479,-0.234757 47.11239,8.569804 91.5,-2.03125 5.2387,-5.077291 17.04354,-1.448063 6.84375,-38.75 C 309.33233,13.926333 308.1511,5.8539403 287.21875,5.9375 z M 266.1875,19.53125 c 11.9349,-4.587226 23.97614,-8.164146 37.4375,1.75 5.6913,3.379334 18.28643,27.507032 -4.53125,30.15625 l -56.95776,1.019837 C 241.03888,33.921328 254.03925,26.335661 266.1875,19.53125 z"
     id="path27220"
     inkscape:connector-curvature="0"
     sodipodi:nodetypes="scccccccccsccccc" />
  <path
     style="fill:#000000"
     d="M 84.5,377.53338 C 70.50657,374.96236 54.812966,368.66333 39.222135,359.35995 14.784511,344.7775 6.9228889,326.15356 12.854863,296.89672 15.269028,284.98992 18.229079,277.65657 24.518808,268 32.88957,255.14844 44.70824,245.25678 66.866165,232.55729 c 21.453589,-12.2958 27.159712,-16.6554 36.194575,-27.65343 2.44159,-2.97212 4.87747,-5.71766 5.41306,-6.10119 0.5688,-0.40732 -0.0187,-1.75377 -1.41261,-3.23754 -2.76332,-2.94141 -3.0261,-9.32001 -0.6211,-15.07599 1.31464,-3.14638 1.25841,-3.6025 -0.76022,-6.16602 C 98.815163,165.6054 90.697443,151.79417 88.738731,145.5 c -2.824118,-9.07509 -2.99177,-25.2512 -0.388492,-37.48407 3.913332,-18.388858 11.988921,-30.100307 29.353031,-42.568612 5.9382,-4.263926 11.1536,-8.246406 11.58977,-8.849955 0.43617,-0.60355 0.54518,-2.897363 0.24225,-5.097363 -0.30294,-2.2 -0.65981,-4.873679 -0.79304,-5.941508 -0.14233,-1.140661 0.63537,-2.390997 1.88539,-3.031211 l 2.12764,-1.089703 -1.83969,-5.945896 c -1.01183,-3.270243 -1.5842,-6.963844 -1.27194,-8.208004 1.62784,-6.485843 13.68369,-11.271745 28.83838,-11.448195 9.49535,-0.110557 14.06054,1.413561 15.35481,5.126308 C 175.21861,24.925552 173.87945,37 172.05806,37 c -0.50631,0 -0.66103,-3.210373 -0.35178,-7.299404 0.71459,-9.448485 -0.0509,-10.26727 -10.42046,-11.145499 -7.98974,-0.676677 -18.5124,0.679667 -19.11915,2.464409 -0.18334,0.539272 -1.08334,0.99644 -2,1.015929 C 139.25,22.054925 137.375,22.713979 136,23.5 c -2.89667,1.655889 -1.86278,2.032114 1.15139,0.41898 1.11095,-0.594561 2.26253,-0.838392 2.55908,-0.541847 0.29654,0.296546 -1.35342,1.296439 -3.66658,2.221984 -2.99123,1.196852 -3.82141,1.926457 -2.87482,2.526533 1.085,0.687822 1.06916,0.846554 -0.0857,0.859037 -0.77916,0.0084 -1.182,0.24998 -0.89518,0.536796 0.28682,0.286815 1.59932,0.09034 2.91667,-0.436614 C 137.23375,28.233274 137.27768,28.112681 135.5,28 c -1.77768,-0.112681 -1.73375,-0.233274 0.39518,-1.084869 1.31735,-0.526953 2.62985,-0.723429 2.91667,-0.436614 C 139.09867,26.765333 138.78178,27 138.10765,27 c -0.67413,0 -0.96077,0.428633 -0.637,0.952517 0.32378,0.523884 -0.66216,1.663567 -2.19098,2.532629 L 132.5,32.06526 l 3.5,-0.519753 3.5,-0.519753 -3.36633,1.537459 c -4.49846,2.054519 -3.43268,2.877494 1.21279,0.936494 C 139.66438,32.531218 141,32.36521 141,33.045597 c 0,0.58984 0.51953,0.751351 1.15451,0.358911 0.66292,-0.409709 0.88496,-0.277382 0.52145,0.310776 -0.34817,0.563365 -2.0607,1.615654 -3.80561,2.338418 -2.71538,1.124747 -2.90173,1.409118 -1.29318,1.973366 1.08164,0.379422 2.46414,0.07448 3.25705,-0.718427 1.10415,-1.104151 1.67478,-1.131097 2.87413,-0.135723 0.92438,0.767163 6.5227,1.482774 14.64406,1.871892 7.23117,0.346467 13.87414,0.952876 14.76214,1.347577 2.83142,1.258511 3.86704,5.076467 2.93327,10.813813 C 175.2126,56.337964 175.61712,62 176.81897,62 c 0.3222,0 2.01626,-1.386439 3.76458,-3.080976 1.74831,-1.694537 6.26974,-4.266843 10.0476,-5.716235 6.22523,-2.38833 8.27205,-2.649126 21.84401,-2.783252 l 14.97515,-0.147993 1.17152,-7.385772 c 2.56448,-16.167718 7.55274,-21.976321 26.35709,-30.691602 11.22242,-5.2012733 19.22706,-7.1732073 29.55828,-7.2816526 16.98785,-0.1783187 29.01583,5.5558506 34.66758,16.5272756 2.08378,4.045124 2.22939,4.72291 3.26116,15.1795 0.83289,8.441019 -2.11724,16.467659 -7.30438,19.873624 -8.24407,5.4132 -28.27184,8.895794 -48.0366,8.353002 l -14.12631,-0.387945 5.25068,1.762185 c 2.88787,0.969202 8.2473,2.408425 11.90984,3.198275 3.66254,0.78985 8.83396,2.593823 11.49204,4.008828 C 284.30929,74.842268 286.89519,76 287.39765,76 c 0.50246,0 2.30604,1.060072 4.00796,2.355715 1.70191,1.295643 4.89439,3.279431 7.09439,4.408417 9.4093,4.828625 12,10.492722 12,26.235868 0,9.67944 -0.3915,12.60817 -2.47298,18.5 -2.96447,8.3912 -6.04832,12.94253 -10.23716,15.10867 -5.99582,3.10055 -16.34288,5.36707 -31.28986,6.85401 -9.73697,0.96865 -28.2746,3.67617 -34.8356,5.08794 -3.94042,0.84788 -9.42862,1.93126 -12.19599,2.40752 -7.91453,1.36206 -12.0535,3.8435 -15.78582,9.46409 -6.24174,9.39957 -13.34958,16.07703 -26.11245,24.53131 C 167.28185,197.76863 165,199.71578 165,201.67991 c 0,3.8142 -3.74933,10.1391 -7.00981,11.82516 -2.24994,1.16349 -2.99019,2.2458 -2.99019,4.37194 0,2.98891 1.01755,4.48491 13.12456,19.29569 8.67597,10.61351 16.56304,22.22778 19.57619,28.8273 1.13001,2.475 4.24712,9.225 6.92691,15 l 4.87234,10.5 -0.0247,13 c -0.0213,11.24053 -0.39912,14.26301 -2.79134,22.33188 -6.59878,22.25747 -14.90823,32.97876 -31.04493,40.05576 -21.65696,9.49801 -60.00281,14.52912 -81.13905,10.64574 z m 51,-4.0244 c 32.02872,-6.60832 45.09441,-14.41857 53.49984,-31.98046 6.26713,-13.09423 8.4941,-22.92963 8.49736,-37.52852 0.003,-11.96826 -0.13076,-12.7765 -3.13678,-19 -1.72677,-3.575 -4.48242,-9.47435 -6.12366,-13.10967 -2.57992,-5.71447 -5.14919,-9.93654 -13.92957,-22.89033 -0.93201,-1.375 -4.88348,-6.325 -8.78105,-11 -10.03991,-12.04253 -11.87279,-14.87797 -12.48522,-19.31449 l -0.54092,-3.9185 -7.2145,-1.82932 c -3.96798,-1.00613 -8.10089,-2.30371 -9.18426,-2.88351 C 135.01787,209.47438 133.032,209 131.68819,209 c -1.34382,0 -3.0035,-0.675 -3.68819,-1.5 -1.30473,-1.5721 -3.08453,-2.03534 -2.88158,-0.75 0.36656,2.32156 -0.36924,2.43522 -1.61842,0.25 -1.18449,-2.07206 -1.43519,-2.17948 -1.46456,-0.62756 -0.0275,1.45185 -0.33689,1.62227 -1.37745,0.75868 -0.7381,-0.61257 -1.6381,-0.81767 -2,-0.45578 C 118.2961,207.03724 118,206.38489 118,205.22568 c 0,-3.0458 -1.6816,-3.63043 -2.38469,-0.82907 C 115.03585,206.70535 112,208.89147 112,207 c 0,-1.27534 -3.30408,0.0241 -4.31146,1.69562 -0.4463,0.74055 -1.20141,1.10545 -1.678,0.81089 -0.4766,-0.29455 -1.12052,0.25848 -1.43093,1.22897 -0.3104,0.97049 -2.90759,3.77933 -5.771519,6.24187 -4.906007,4.21842 -5.550914,4.06273 -1.905987,-0.46012 1.525719,-1.8932 1.507556,-1.91781 -0.402104,-0.54485 -1.1,0.79086 -3.717804,3.2581 -5.817342,5.48277 -2.099538,2.22467 -3.53548,3.48235 -3.190983,2.79485 0.344498,-0.6875 0.376637,-1.25 0.07142,-1.25 C 86.655603,223 56.919366,240.97562 51.5,244.80022 45.653759,248.92607 35.5907,257.4204 32.308441,261 27.632658,266.09936 19.0785,281.00494 17.017346,287.64465 12.031481,303.7059 11.607641,320.59391 15.904155,332 c 2.308343,6.12803 9.220704,15.47561 14.282758,19.31455 10.982421,8.3288 34.555704,19.44955 48.813087,23.02769 10.009057,2.51194 10.462438,2.54801 27.5,2.18751 12.46511,-0.26375 18.8721,-0.93113 29,-3.02077 z M 34.713365,337.25 c -0.874711,-2.0625 -2.344421,-8.26356 -3.266022,-13.78013 -1.559604,-9.33557 -1.561526,-10.47816 -0.02775,-16.5 2.312463,-9.07912 6.521285,-17.64417 12.925882,-26.30448 6.917564,-9.35393 17.54636,-18.43043 38.93359,-33.24745 3.728484,-2.58309 9.564798,-8.00884 12.969587,-12.05723 C 101.71756,228.85801 105,226.38894 105,228.77788 c 0,2.26029 -19.842924,20.66555 -29.887529,27.72212 -24.78626,17.41292 -36.539572,31.92305 -41.564064,51.31319 -1.433709,5.53287 -1.407816,6.79695 0.350307,17.10139 1.044147,6.1198 2.629462,12.24257 3.522921,13.60616 1.295453,1.97711 1.346754,2.47926 0.253292,2.47926 -0.754148,0 -2.086851,-1.6875 -2.961562,-3.75 z M 104,208.61774 c 0,-0.55 -0.66069,-0.12649 -1.4682,0.94113 -0.8075,1.06762 -1.46819,2.39113 -1.46819,2.94113 0,0.55 0.66069,0.12649 1.46819,-0.94113 0.80751,-1.06762 1.4682,-2.39113 1.4682,-2.94113 z m 54.97456,1.4077 c 2.17914,-2.17914 3.50721,-6.22549 2.70202,-8.23253 -0.28527,-0.7111 -0.55421,-0.28041 -0.59763,0.95709 -0.0526,1.49892 -0.70009,2.25 -1.93969,2.25 -1.98469,0 -18.12304,-5.18707 -29.56032,-9.50106 C 121.58956,192.48546 109,185.38767 109,183.89687 c 0,-0.5582 -0.45,-0.73679 -1,-0.39687 -0.55,0.33992 -1,2.33911 -1,4.44265 0,3.19356 0.66048,4.42133 4.00288,7.44099 2.20159,1.989 4.45159,3.67261 5,3.74136 1.65217,0.20712 2.29432,0.44674 7.49712,2.79753 21.12678,9.54578 31.63212,11.94535 35.47456,8.10291 z m -0.80789,-8.91084 c 0.18333,-0.48697 4.38333,-3.34098 9.33333,-6.34224 20.58265,-12.47957 26.69959,-17.88886 35.53609,-31.42502 6.42326,-9.83946 8.20541,-16.0577 8.24962,-28.78453 0.0292,-8.40396 -0.4156,-11.38161 -2.69814,-18.06281 -4.00083,-11.71079 -9.97918,-21.833903 -18.58829,-31.475439 -4.18645,-4.688508 -9.6101,-11.187689 -12.05254,-14.442622 l -4.44081,-5.918062 0.16747,-10.416209 0.16747,-10.416209 -3.44582,-1.439757 c -5.4086,-2.259856 -28.08642,-1.244583 -36.99834,1.656394 -3.04984,0.992771 -3.08512,1.078274 -2.04812,4.9634 0.68472,2.565294 1.33539,3.52056 1.85329,2.720866 0.55392,-0.855288 1.0276,-0.904067 1.54812,-0.15942 0.4125,0.590117 1.5375,1.363494 2.5,1.718615 C 139.25598,54.031675 139.65146,58 137.71924,58 c -0.70442,0 -1.8387,1.4625 -2.52062,3.25 -0.87611,2.296546 -1.47972,2.8694 -2.0575,1.952666 C 132.49092,62.171029 132.05241,62.231923 131,63.5 c -1.00625,1.212452 -1.50611,1.299131 -2.08551,0.361636 -0.60039,-0.971439 -1.07413,-0.974038 -2.23301,-0.01225 -0.80903,0.671431 -1.9161,1.092495 -2.46017,0.935698 -1.67607,-0.483036 -13.70313,8.887899 -19.64717,15.308175 -9.233824,9.973633 -13.417856,20.064251 -15.590023,37.598391 -1.237056,9.98575 -0.28626,20.40205 2.715206,29.74602 1.542512,4.80204 7.734804,15.08689 13.806267,22.93099 1.64693,2.12776 4.11941,6.17776 5.49441,9 1.96657,4.03646 3.67061,5.82869 7.98628,8.39958 3.01746,1.79753 6.84246,3.69177 8.5,4.20942 1.65755,0.51766 8.63872,2.94391 15.51372,5.39167 13.48463,4.80104 14.65993,5.09127 15.16667,3.74527 z m -50.04916,-50.56793 c -5.48008,-9.04209 -7.02927,-15.4682 -6.76142,-28.04667 0.17377,-8.15983 0.68106,-11.83914 1.96476,-14.25 0.95178,-1.7875 2.16895,-3.25 2.70483,-3.25 1.3253,0 1.23638,0.59256 -0.63077,4.20321 -0.88279,1.70714 -1.82929,6.5223 -2.10333,10.70034 -0.62927,9.59401 1.5539,19.32997 6.2505,27.87439 1.90186,3.46 3.45792,6.72542 3.45792,7.25648 0,2.2578 -1.79317,0.60961 -4.88249,-4.48775 z M 137.4675,62.947408 c -0.29725,-0.480953 0.26863,-1.68354 1.25751,-2.672417 0.98888,-0.988877 1.64729,-2.58029 1.46315,-3.536475 C 139.72283,54.322239 141.72187,54.548344 142.5,57 c 0.34913,1.1 1.05445,2 1.56739,2 0.51293,0 0.93261,0.9 0.93261,2 0,2.454368 -1.97219,2.692522 -2.07029,0.25 -0.0618,-1.539024 -0.16078,-1.519122 -0.82099,0.165091 -0.79604,2.030721 -3.73376,3.000621 -4.64122,1.532317 z m 12.19917,-1.614075 C 148.71097,60.377636 148.84461,59 149.89301,59 c 0.49116,0 1.15203,0.675 1.46862,1.5 0.58492,1.524276 -0.4803,2.047994 -1.69496,0.833333 z m -4.08322,-1.976461 c -0.34679,-0.903721 -0.42487,-1.848781 -0.17352,-2.100136 0.79473,-0.794734 2.59007,0.801117 2.59007,2.302281 0,1.961525 -1.63888,1.824433 -2.41655,-0.202145 z m 7.09244,0.240894 c -0.62512,-1.629042 0.21476,-2.783381 1.46359,-2.011563 C 155.27541,58.288247 155.2496,61 154.10699,61 c -0.49116,0 -1.13515,-0.631005 -1.4311,-1.402234 z M 229,152.5965 c 4.125,-0.83035 12.9,-2.18954 19.5,-3.02043 32.07963,-4.03855 37.4423,-4.91409 44.45319,-7.25765 6.45826,-2.15882 8.59848,-4.56216 12.23106,-13.73469 2.92748,-7.39211 3.20628,-9.06763 3.25857,-19.58373 C 308.51823,93.834611 307.3682,91.420265 296.65139,84.245333 289.06038,79.163135 274.3554,72 271.51331,72 c -1.75674,0 -17.42817,-4.811376 -19.74974,-6.063481 -2.43137,-1.311324 -2.77187,-1.185491 -2.20126,0.813481 0.27475,0.9625 -0.0331,0.7375 -0.68419,-0.5 C 248.22706,65.0125 247.29731,64 246.812,64 c -0.4853,0 -0.4007,0.9 0.188,2 0.65202,1.21831 0.69211,2 0.10257,2 -0.53229,0 -1.2868,-1.005109 -1.6767,-2.233577 l -0.70891,-2.233576 -0.87996,2.37876 c -0.48398,1.308318 -0.7578,2.472575 -0.60848,2.587236 5.04231,3.872066 20.40368,9.209932 31.75827,11.035562 7.32079,1.177062 11.45095,3.031046 17.8876,8.029553 9.27424,7.2021 11.96114,14.194042 10.23201,26.626072 -1.81251,13.03144 -6.88241,22.47096 -13.6064,25.33342 -5.53144,2.35478 -28.77747,5.6617 -40,5.6903 -1.1,0.003 -5.6,0.38826 -10,0.85657 -4.4,0.46832 -10.71969,1.07425 -14.04376,1.34651 -3.32407,0.27227 -7.14168,0.90118 -8.48358,1.39758 -2.39376,0.88551 -2.39959,0.91531 -0.30895,1.57885 1.55539,0.49367 1.98403,1.23779 1.58717,2.75538 -0.43886,1.67822 -0.17806,1.97096 1.35271,1.51833 1.04303,-0.30841 5.27141,-1.24012 9.39641,-2.07047 z m 4.5,-8.56069 c 6.05,-0.53724 15.95,-1.24897 22,-1.58162 10.74725,-0.59093 28.70726,-3.42825 33.56547,-5.30268 5.42234,-2.09209 10.04859,-10.84597 11.91879,-22.55297 2.95836,-18.518587 -4.88925,-26.997429 -31.24972,-33.763343 -15.80834,-4.057509 -27.39649,-9.193461 -33.66864,-14.922189 -3.13859,-2.866659 -4.20651,-3.182423 -13.75505,-4.067115 -11.86492,-1.099308 -23.59158,0.53157 -32.63788,4.539093 -8.35583,3.70164 -8.71685,4.764928 -3.55218,10.461826 13.22004,14.582403 19.79556,24.975268 24.48127,38.693608 2.28911,6.70183 2.73287,9.73748 2.80833,19.21086 l 0.0896,11.25128 4.5,-0.49497 c 2.475,-0.27223 9.45,-0.93453 15.5,-1.47178 z M 181.51639,66.97348 c 0.34893,-0.564586 1.16299,-0.941486 1.80902,-0.837555 0.64602,0.10393 3.35431,-0.786242 6.01841,-1.978161 7.37702,-3.300474 24.93655,-6.121494 31.65618,-5.085713 9.61616,1.482261 40.08183,3.431611 52,3.327229 12.50477,-0.109521 22.85546,-1.507284 33,-4.456338 8.65938,-2.517313 10.49965,-3.989703 12.85514,-10.285314 1.74061,-4.652188 1.87449,-6.325412 1.05953,-13.241356 C 318.24689,20.26317 313.30722,13.74253 300.96821,9.4059163 294.13847,7.0055655 292.55959,6.8255463 282.5,7.3002255 270.17002,7.8820372 261.50178,10.364519 250.09635,16.580254 237.2894,23.559795 232.18866,31.168279 231.48771,44.337726 231.27804,48.276977 231.37623,50.375 231.70591,49 l 0.59941,-2.5 0.74766,2.5 c 0.73485,2.457155 0.7514,2.448586 0.96565,-0.5 l 0.218,-3 0.76337,3 0.76337,3 0.11832,-3.111328 c 0.10121,-2.6616 0.44354,-3.049827 2.36831,-2.685846 1.97909,0.374252 2.5316,-0.36444 4.58884,-6.135164 1.94098,-5.444632 3.38211,-7.504752 8.47186,-12.110715 16.77663,-15.18197 39.23894,-18.1212233 52.59567,-6.88228 6.41502,5.397885 9.09363,10.142491 9.09363,16.10749 0,6.836782 -2.0617,11.788602 -5.67122,13.621248 -1.55583,0.789932 -6.42878,1.925413 -10.82878,2.523292 -10.60108,1.44049 -59.11309,1.903309 -65.73953,0.627174 -1.09329,-0.210548 -7.44915,-0.677431 -14.12413,-1.037518 -9.83579,-0.530598 -13.46325,-0.323446 -19.13634,1.092815 -8.37159,2.089928 -13.15151,4.387155 -16.42431,7.893514 C 178.92918,63.702367 178.861,64 180.48067,64 c 1.76596,0 1.76663,0.06925 0.0193,2 -0.99549,1.1 -1.31679,2 -0.714,2 0.60278,0 1.38146,-0.461934 1.73039,-1.02652 z M 241.36163,65.5 C 240.73448,63.865674 239,63.43725 239,64.916667 c 0,0.759002 0.70084,1.275716 2.71862,2.004386 0.12023,0.04342 -0.0404,-0.596053 -0.35699,-1.421053 z m -1.69935,-16.75 c -0.27741,-0.6875 -0.50439,-0.125 -0.50439,1.25 0,1.375 0.22698,1.9375 0.50439,1.25 0.27741,-0.6875 0.27741,-1.8125 0,-2.5 z M 298.5,50.503871 c 7.68551,-0.996118 9.35233,-1.906209 11.08466,-6.052244 3.44821,-8.252744 1.07791,-15.285931 -7.33275,-21.757784 -6.71802,-5.169398 -13.21091,-7.270994 -19.54616,-6.326631 -12.18145,1.815825 -16.35067,3.121003 -22.62802,7.083722 -10.67905,6.741386 -15.30187,13.180565 -16.62118,23.151834 l -0.67515,5.102768 24.8593,-0.212002 C 281.31332,51.376932 295.2,50.931584 298.5,50.503871 z M 237.66228,47.75 c -0.27741,-0.6875 -0.50439,-0.125 -0.50439,1.25 0,1.375 0.22698,1.9375 0.50439,1.25 0.27741,-0.6875 0.27741,-1.8125 0,-2.5 z"
     id="path26530"
     inkscape:connector-curvature="0" />
</svg>
