<?xml version="1.0" encoding="UTF-8" standalone="no"?>
<!-- Created with Inkscape (http://www.inkscape.org/) -->

<svg
   xmlns:dc="http://purl.org/dc/elements/1.1/"
   xmlns:cc="http://creativecommons.org/ns#"
   xmlns:rdf="http://www.w3.org/1999/02/22-rdf-syntax-ns#"
   xmlns:svg="http://www.w3.org/2000/svg"
   xmlns="http://www.w3.org/2000/svg"
   xmlns:sodipodi="http://sodipodi.sourceforge.net/DTD/sodipodi-0.dtd"
   xmlns:inkscape="http://www.inkscape.org/namespaces/inkscape"
   id="svg3084"
   version="1.1"
   inkscape:version="0.48.4 r9939"
   width="258"
   height="123"
   sodipodi:docname="Whetstone.png">
  <metadata
     id="metadata3090">
    <rdf:RDF>
      <cc:Work
         rdf:about="">
        <dc:format>image/svg+xml</dc:format>
        <dc:type
           rdf:resource="http://purl.org/dc/dcmitype/StillImage" />
        <dc:title></dc:title>
      </cc:Work>
    </rdf:RDF>
  </metadata>
  <defs
     id="defs3088" />
  <sodipodi:namedview
     pagecolor="#ffffff"
     bordercolor="#666666"
     borderopacity="1"
     objecttolerance="10"
     gridtolerance="10"
     guidetolerance="10"
     inkscape:pageopacity="0"
     inkscape:pageshadow="2"
     inkscape:window-width="1271"
     inkscape:window-height="740"
     id="namedview3086"
     showgrid="false"
     inkscape:zoom="2.2195122"
     inkscape:cx="118.97527"
     inkscape:cy="61.5"
     inkscape:window-x="0"
     inkscape:window-y="22"
     inkscape:window-maximized="0"
     inkscape:current-layer="svg3084" />
  <path
     style="fill:#b3a9a9;stroke:none;stroke-width:1px;stroke-linecap:butt;stroke-linejoin:miter;stroke-opacity:1;fill-opacity:1"
     d="m 49.10989,57.67033 -14.192308,28.384615 0.675825,1.126374 78.846153,-3.153846 75.91758,-2.478022 10.81319,-31.763737 -60.5989,2.478022 -31.31319,2.027473 -24.329669,2.478022 z"
     id="path3098"
     inkscape:connector-curvature="0" />
  <path
     style="fill:#b3a9a9;stroke:none;stroke-width:1px;stroke-linecap:butt;stroke-linejoin:miter;stroke-opacity:1;fill-opacity:1"
     d="m 34.467033,89.208791 -0.225275,6.983517 86.505492,-2.027473 61.72528,-3.153846 10.13736,-0.901099 2.92857,0.45055 8.33517,-25.005495 -3.15385,-10.813187 -9.01099,27.032967 z"
     id="path3868"
     inkscape:connector-curvature="0" />
  <path
     style="fill:#5f3b22;stroke:none;stroke-width:1px;stroke-linecap:butt;stroke-linejoin:miter;stroke-opacity:1;fill-opacity:1"
     d="m 33.770177,67.884523 10.19477,-2.230106 -10.513357,22.30106 -0.318587,9.239011 123.293007,-3.823039 40.77908,-2.548693 6.37173,-25.805512 0.31859,-6.690318 7.96466,-1.274346 4.7788,3.185865 1.59293,23.25682 -11.46911,19.115195 -20.70813,3.82304 -5.09739,-5.09739 -7.32749,-1.27434 -47.78798,0.63717 -56.071241,1.27435 -19.115194,1.91152 -8.283251,2.86727 -2.867279,3.82304 -19.433781,0.63718 0.318587,-11.46912 z"
     id="path3870"
     inkscape:connector-curvature="0" />
  <path
     style="fill:#5f3b22;stroke:none;stroke-width:1px;stroke-linecap:butt;stroke-linejoin:miter;stroke-opacity:1;fill-opacity:1"
     d="m 118.5142,43.353357 12.10629,-19.752367 110.54954,-4.141626 8.60184,19.752368 -2.2301,18.159434 -29.30997,2.230106 -2.54869,-3.823039 -11.46912,0.637174 -1.27434,-0.318587 -1.59294,-7.327491 -82.51392,4.460212 -0.95576,-2.548693 z"
     id="path3872"
     inkscape:connector-curvature="0" />
  <path
     style="fill:#000000"
     d="m 19.3161,112.34414 c -0.04977,-0.0472 -0.292531,-2.96903 -0.539465,-6.49285 -0.32817,-4.68307 0.0057,-7.373702 1.240921,-9.999997 0.929441,-1.976179 3.898928,-8.318052 6.598861,-14.093052 2.699932,-5.775 5.405168,-11.506674 6.011628,-12.737054 0.83006,-1.684017 2.30261,-2.396234 5.95652,-2.880943 4.53341,-0.601378 5.03438,-0.965285 7.58795,-5.511929 3.06058,-5.449383 2.55907,-5.309841 17.73408,-4.934332 7.82837,0.193715 45.699395,-2.431235 50.352875,-3.490104 2.05582,-0.467789 2.27504,-0.95029 1.73635,-3.821756 -0.46024,-2.453273 -0.1209,-3.857836 1.33859,-5.540643 1.07531,-1.239848 4.29055,-6.199169 7.14497,-11.020714 l 5.18985,-8.766446 14.11869,-0.683529 c 7.76527,-0.37594 22.66868,-0.908667 33.11868,-1.183837 10.45,-0.27517 25.10045,-0.9342 32.55656,-1.464511 7.45611,-0.53031 17.80611,-0.94039 23,-0.911289 l 9.44344,0.05291 4.52158,9.697087 4.52157,9.697087 -0.67964,9.35807 c -0.37381,5.146939 -1.1122,9.79062 -1.64087,10.319292 -0.52867,0.528672 -7.65754,1.49254 -15.84193,2.141929 l -14.88071,1.180712 0.16111,3 c 0.0886,1.65 0.4507,6.6 0.80464,11 l 0.64352,8 -6.02039,10.602684 -6.02039,10.602685 -7.28424,1.11076 c -15.96144,2.43394 -14.8493,2.57518 -18.2381,-2.31613 -1.31862,-1.90325 -2.51419,-2 -24.7159,-2 -39.22127,0 -91.756935,1.55863 -101.830255,3.02111 -8.42227,1.22277 -9.78361,1.71092 -12,4.30289 -2.41749,2.82716 -2.85479,2.9389 -13.250002,3.38573 -5.9125,0.25414 -10.790722,0.42342 -10.840493,0.37617 z m 23.440205,-6.3198 c 5.42753,-4.76544 18.37651,-5.92104 76.608655,-6.836783 20.6021,-0.323982 41.88771,-0.745499 47.30135,-0.936705 10.66853,-0.376804 15.44947,0.826396 18.05289,4.543298 1.26068,1.79987 2.13578,1.9879 6.81687,1.46475 12.73379,-1.42311 11.87053,-0.91071 11.87053,-7.045972 0,-3.703943 -0.4012,-5.450559 -1.25,-5.441825 -0.6875,0.0071 -18.125,0.96189 -38.75,2.121814 -20.625,1.159924 -49.425,2.234476 -64.000005,2.387894 -28.94268,0.304655 -72.173073,2.058178 -75.750002,3.072594 -3.454824,0.979785 -2.781909,3.378645 1,3.564875 l 3.25,0.16004 -3.25,0.40332 c -2.874708,0.35675 -3.25,0.75844 -3.25,3.47866 l 0,3.07535 8.973252,-0.51163 c 8.17621,-0.46619 9.27555,-0.77705 12.37646,-3.49968 z m -17.099712,1.04457 c 0.9625,-0.25152 2.5375,-0.25152 3.5,0 0.9625,0.25153 0.175,0.45733 -1.75,0.45733 -1.925,0 -2.7125,-0.2058 -1.75,-0.45733 z m -0.488341,-2.01793 c 1.243913,-0.23919 3.043913,-0.23011 4,0.0202 0.956088,0.25029 -0.06166,0.446 -2.261659,0.4349 -2.2,-0.0111 -2.982253,-0.21589 -1.738341,-0.45508 z m -1.011659,-3.99847 c 1.2375,-0.23835 3.2625,-0.23835 4.5,0 1.2375,0.23835 0.225,0.43337 -2.25,0.43337 -2.475,0 -3.4875,-0.19502 -2.25,-0.43337 z M 208.3462,97.113229 c -0.24178,-0.07976 0.28957,-0.979757 1.18078,-2 2.60425,-2.981311 6.77255,-11.067201 6.99025,-13.560061 0.11023,-1.26221 0.13043,-3.993983 0.0449,-6.070607 l -0.15553,-3.77568 -3,1.55136 c -1.65,0.853248 -3,2.178 -3,2.943893 0,0.765892 -0.29323,2.156687 -0.65163,3.090653 -0.55768,1.453289 -0.35089,1.537171 1.43426,0.581788 1.14724,-0.613984 2.45297,-1.096446 2.90163,-1.072138 0.44866,0.02431 -0.87176,0.935058 -2.93426,2.02389 -3.15728,1.666787 -4.56958,3.796617 -3.5,5.278219 0.1375,0.190468 -0.425,1.163648 -1.25,2.162622 -1.17976,1.428541 -1.22422,1.909106 -0.20826,2.25094 0.92625,0.31165 0.9931,0.794459 0.23628,1.706372 -0.5805,0.699461 -0.85772,2.3432 -0.61605,3.652754 0.24168,1.309554 0.48653,3.056007 0.54413,3.881007 0.0764,1.094609 0.418,0.959479 1.26391,-0.5 0.63755,-1.1 0.96137,-2.065256 0.71959,-2.145012 z m 0.0604,-10.747999 c 0,-0.216156 0.69837,-0.661002 1.55194,-0.988546 0.88992,-0.341496 1.29132,-0.173849 0.94098,0.393011 -0.58726,0.950204 -2.49292,1.405448 -2.49292,0.595535 z M 30.156593,96.127955 c 2.788822,-0.747375 2.942562,-1.941143 0.250002,-1.941143 -1.100002,0 -2.000002,0.323682 -2.000002,0.719292 0,0.395611 -1.2375,0.906758 -2.75,1.135883 -2.627275,0.397999 -2.638432,0.422667 -0.25,0.552767 1.375,0.0749 3.5125,-0.135162 4.75,-0.466799 z m 58.750002,-1.734926 c 26.157115,-0.492778 59.944725,-2.04976 92.695555,-4.271544 l 9.69555,-0.657737 -0.58919,-3.102754 c -0.32405,-1.706514 -0.68724,-3.227945 -0.80709,-3.380957 -0.11984,-0.153013 -6.9177,0.177525 -15.10636,0.734529 -8.18865,0.557003 -22.76346,1.048513 -32.38846,1.092244 -9.625,0.04373 -22.9,0.494641 -29.5,1.00202 -6.6,0.50738 -23.475005,1.212008 -37.500005,1.565841 -14.025,0.353833 -28.8378,1.147386 -32.91734,1.763451 -6.79524,1.026174 -7.44529,1.329795 -7.75072,3.620119 l -0.33338,2.5 12.25072,-0.150019 c 6.7379,-0.08251 25.75072,-0.404347 42.25072,-0.715193 z m -51.75,-1.340521 c 1.2375,-0.238353 3.2625,-0.238353 4.5,0 1.2375,0.238353 0.225,0.433369 -2.25,0.433369 -2.475,0 -3.4875,-0.195016 -2.25,-0.433369 z m 0.51903,-1.987258 c 0.97297,-0.253543 2.32297,-0.236869 3,0.03705 0.67703,0.273927 -0.11903,0.481372 -1.76903,0.460992 -1.65,-0.02038 -2.20394,-0.244498 -1.23097,-0.498042 z m -6.13218,-1.007007 c -1.03056,-0.409836 -1.06912,-0.723826 -0.15805,-1.286898 0.77176,-0.476975 0.27306,-0.922965 -1.386852,-1.240278 -1.425572,-0.272515 -2.59195,-0.365027 -2.59195,-0.205583 0,0.851481 3.311452,3.421463 4.321432,3.35381 0.7235,-0.04847 0.65223,-0.288263 -0.18458,-0.621051 z M 194.92475,88.787609 c -0.32994,-0.533848 0.0426,-2.221348 0.82784,-3.75 0.78525,-1.528653 2.67093,-6.934194 4.19042,-12.012314 2.17812,-7.279296 2.56645,-9.917207 1.83525,-12.46676 -0.88393,-3.082068 -1.12556,-2.648819 -5.1493,9.232947 -3.2761,9.674053 -4.08059,13.306805 -3.59126,16.216759 0.34682,2.0625 1.04826,3.75 1.55876,3.75 0.5105,0 0.65823,-0.436785 0.32829,-0.970632 z m 8.8984,-1.672496 c 0.95273,-2.482764 -0.0974,-2.821775 -1.37071,-0.442518 -0.6143,1.147831 -0.69884,2.085646 -0.18801,2.085646 0.5105,0 1.21193,-0.739408 1.55872,-1.643128 z M 77.406595,84.752865 c 17.325,-0.512603 42.525005,-1.390883 56.000005,-1.951731 13.475,-0.560849 31.78832,-1.296776 40.69627,-1.635392 l 16.19627,-0.615667 3.64667,-10.645917 c 2.00567,-5.855254 4.27938,-12.628376 5.05269,-15.051381 l 1.40601,-4.405464 -17.24895,0.654286 c -39.60361,1.50224 -60.14333,2.648805 -75.24896,4.200535 -8.800005,0.903983 -25.396195,1.938918 -36.880425,2.299856 l -20.88042,0.656251 -7.36195,13.5 c -4.04907,7.425 -7.36538,13.86988 -7.36958,14.321956 -0.004,0.452076 2.35487,0.548068 5.24237,0.213316 2.8875,-0.334753 19.425,-1.028044 36.75,-1.540648 z M 47.268229,79.01411 c 4.28764,-0.187904 23.202475,0.489066 27.164835,0.678324 3.96237,0.189351 -4.276469,-0.332733 -12.526469,-0.334134 -8.25,-0.0014 -18.925996,-0.156287 -14.638366,-0.34419 z m 0.888366,-3.961602 c 1.2375,-0.238353 3.2625,-0.238353 4.5,0 1.2375,0.238353 0.225,0.433369 -2.25,0.433369 -2.475,0 -3.4875,-0.195016 -2.25,-0.433369 z m 8,0.04345 c 0.6875,-0.277412 1.8125,-0.277412 2.5,0 0.6875,0.277413 0.125,0.504386 -1.25,0.504386 -1.375,0 -1.9375,-0.226973 -1.25,-0.504386 z m 5,-1 c 0.6875,-0.277412 1.8125,-0.277412 2.5,0 0.6875,0.277413 11.614011,-0.171438 10.239011,-0.171438 -1.375,0 -13.426511,0.448851 -12.739011,0.171438 z m -10.25,-2.347435 c 1.91645,-0.814213 22.442355,-1.373942 21.581505,-0.630394 -0.22917,0.197938 -15.056505,0.611937 -18.081505,0.919997 -3.42271,0.348562 -4.74462,0.239182 -3.5,-0.289603 z m 4.49938,-4.740282 c -3.5e-4,-0.4125 2.36215,-0.620058 5.25,-0.461239 8.80258,0.484103 17.069506,0.706372 9.434686,0.849782 -3.9875,0.0749 -14.684346,0.02396 -14.684686,-0.388543 z m 3.78981,-3.991414 c 3.45905,-0.19583 12.238171,-0.194213 15.379121,0.0036 3.14094,0.197803 -3.068311,0.358027 -9.668311,0.35605 -6.6,-0.002 -9.16987,-0.16382 -5.71081,-0.35965 z M 201.75168,81.215113 c -0.32569,-0.848721 -0.80663,-1.32866 -1.06875,-1.066531 -0.26213,0.262128 -0.17998,0.956536 0.18255,1.543128 0.98605,1.595461 1.56238,1.28551 0.8862,-0.476597 z m 5.34005,-3.835017 c -0.29086,-0.75798 -0.002,-1.973777 0.64301,-2.701772 0.96638,-1.091537 0.87543,-1.100084 -0.5187,-0.04874 -1.46104,1.101801 -1.53103,4.128657 -0.0955,4.128657 0.275,0 0.26202,-0.620165 -0.0289,-1.378145 z m -3.14401,-1.688386 c 1.02606,-1.660205 0.10511,-1.890424 -1.33055,-0.33261 -0.70918,0.769528 -0.84824,1.399141 -0.30901,1.399141 0.53922,0 1.27702,-0.479939 1.63956,-1.066531 z M 38.406595,72.784576 c 0,-0.467152 -0.66198,-0.75221 -1.47106,-0.633462 -2.33065,0.342068 -2.63332,1.173656 -0.48604,1.335406 1.07641,0.08108 1.9571,-0.234792 1.9571,-0.701944 z m 169.263235,-4.23383 c -0.97613,-2.071381 -1.07628,-2.099595 -1.03827,-0.292505 0.0231,1.1 -0.3069,2.9 -0.73341,4 -0.7353,1.896332 -0.68148,1.911494 1.03826,0.292505 1.46485,-1.379031 1.60593,-2.148494 0.73342,-4 z m 6.80251,3.172311 c 1.95093,-1.044107 2.70813,-3.964816 1.02788,-3.964816 -0.49851,0 -0.65707,-1.0125 -0.35235,-2.25 0.30472,-1.2375 0.18737,-1.91228 -0.26077,-1.499512 -0.44815,0.412769 -0.87972,1.537769 -0.95904,2.5 -0.0793,0.962232 -0.69494,2.762012 -1.36803,3.999512 -1.35744,2.495716 -0.95672,2.750278 1.91231,1.214816 z M 41.897285,68.773299 c 0.38035,-0.615419 -0.62923,-0.749115 -2.69098,-0.35636 -4.42127,0.842235 -4.80279,1.341302 -1.0254,1.341302 1.70921,0 3.38158,-0.443224 3.71638,-0.984942 z M 210.71129,67.70109 c 0.43956,-1.680863 0.27999,-1.843054 -0.87235,-0.886693 -0.77568,0.643752 -1.16372,1.56947 -0.86231,2.057151 0.81588,1.32013 1.14067,1.100982 1.73466,-1.170458 z m 0.12807,-8.84342 c -0.32795,-0.327956 -1.21914,0.303008 -1.98042,1.402143 -0.76127,1.099136 -1.84948,2.541935 -2.41823,3.206222 -0.56876,0.664286 -1.02692,1.564286 -1.01814,2 0.009,0.435713 1.36532,-0.738758 3.01453,-2.609937 1.6492,-1.871179 2.73022,-3.670472 2.40226,-3.998428 z m 2.48164,0.400571 c 0.0302,-0.55 -0.38124,-0.325 -0.9144,0.5 -0.53316,0.825 -0.94464,2.175 -0.9144,3 0.058,1.583849 1.72467,-1.605777 1.8288,-3.5 z m -6.53284,1.948062 c 0.34149,-0.889925 0.17385,-1.291322 -0.39301,-0.940983 -0.5437,0.336025 -0.98855,0.0594 -0.98855,-0.614729 0,-0.674126 -0.23559,-0.990091 -0.52354,-0.702145 -0.49084,0.490844 0.40083,3.809795 1.02354,3.809795 0.15731,0 0.55401,-0.698372 0.88156,-1.551938 z m 32.34312,-4.082562 c 6.12008,-0.534196 7.32485,-0.946182 7.87977,-2.694595 0.66684,-2.101032 0.83888,-12.560909 0.21682,-13.182964 -0.67079,-0.670792 -70.39417,1.635162 -74.02225,2.448131 -2.03554,0.456118 -5.78514,0.594389 -8.33244,0.307271 -5.31171,-0.598706 -40.48357,1.620427 -44.37617,2.79987 -2.44803,0.741741 -2.39803,0.795085 0.90959,0.970514 1.925,0.102098 4.625,0.557267 6,1.011487 1.74796,0.577424 0.69511,0.74125 -3.5,0.544606 -3.3,-0.154686 -5.38658,-0.0667 -4.63685,0.195517 1.15087,0.402519 1.15087,0.622726 0,1.41404 -0.87135,0.599122 0.62115,0.68503 4.13685,0.238116 3.025,-0.384538 11.125,-0.714506 18,-0.733263 7.091,-0.01935 11.4182,-0.355842 10,-0.777631 -1.50897,-0.448785 0.67129,-0.682464 5.5,-0.589485 4.4,0.08472 17,-0.182805 28,-0.594508 13.39086,-0.501187 19.50431,-0.418867 18.5,0.249109 -1.15193,0.766156 -0.68784,1.028667 2,1.131287 l 3.5,0.133628 -3,0.673938 -3,0.673938 3.375,0.707747 c 1.85625,0.389261 5.20875,0.707747 7.45,0.707747 2.33694,0 3.66981,0.365711 3.125,0.857435 -0.5225,0.47159 -3.7625,0.567517 -7.2,0.213173 -5.70929,-0.588526 -6.25,-0.479086 -6.25,1.265009 0,1.537717 0.27689,1.679475 1.42282,0.728439 1.34604,-1.11712 4.57978,-1.030649 17.98676,0.480972 2.15027,0.24244 4.17527,0.732039 4.5,1.087998 0.32473,0.355959 -1.75954,0.381834 -4.63172,0.0575 -3.33734,-0.376862 -5.46819,-0.19159 -5.90385,0.513325 -0.67768,1.096508 0.83278,1.039853 22.35067,-0.838351 z m -24.22468,-5.3655 -4,-0.716189 4.25,-0.141906 c 2.3375,-0.07805 4.25,0.308095 4.25,0.858095 0,0.55 -0.1125,0.936143 -0.25,0.858095 -0.1375,-0.07805 -2.05,-0.464191 -4.25,-0.858095 z m 5.5,0 c 0,-0.55 1.35,-1 3,-1 1.65,0 3,0.45 3,1 0,0.55 -1.35,1 -3,1 -1.65,0 -3,-0.45 -3,-1 z m -92,-4.054489 c -2.01138,-0.600316 -1.62048,-0.76264 2,-0.830518 2.475,-0.0464 5.05748,0.269699 5.73885,0.702448 1.61335,1.02466 -4.4013,1.124196 -7.73885,0.12807 z m 33.8125,0.371375 c 0.72187,-0.288871 1.58437,-0.253344 1.91667,0.07895 0.33229,0.332292 -0.25834,0.568641 -1.3125,0.52522 -1.16495,-0.04798 -1.4019,-0.284941 -0.60417,-0.60417 z m -23.3125,-1.316886 c -1.48239,-0.637006 -0.70598,-0.873657 3,-0.914402 3.57821,-0.03934 4.57346,0.220676 3.5,0.914402 -1.79667,1.161098 -3.79798,1.161098 -6.5,0 z m 8.5,0.613499 c 0,-0.835508 6.02841,-1.212729 7.22674,-0.452205 0.76373,0.484706 -0.42749,0.814208 -2.97674,0.823393 -2.3375,0.0084 -4.25,-0.158612 -4.25,-0.371188 z m 19.5,-0.613499 c -1.90836,-0.820049 -1.8969,-0.86265 0.25,-0.929715 1.2375,-0.03866 2.25,0.379715 2.25,0.929715 0,0.55 -0.1125,0.968372 -0.25,0.929715 -0.1375,-0.03866 -1.15,-0.457029 -2.25,-0.929715 z m 4.5,0 c 0,-0.55 0.70156,-1 1.55902,-1 0.85746,0 1.2809,0.45 0.94098,1 -0.33992,0.55 -1.04148,1 -1.55902,1 -0.51754,0 -0.94098,-0.45 -0.94098,-1 z m 12,0.582238 c 0,-1.324597 5.30697,-2.675267 6.36284,-1.619399 0.71621,0.716215 0.38168,1.037161 -1.08105,1.037161 -1.16502,0 -2.83002,0.273145 -3.7,0.606989 -0.86999,0.333844 -1.58179,0.322706 -1.58179,-0.02475 z m 19.76791,-3.306969 c 1.79735,-0.222562 4.49735,-0.217969 6,0.0102 1.50265,0.228174 0.0321,0.41027 -3.26791,0.404657 -3.3,-0.0056 -4.52944,-0.192301 -2.73209,-0.414857 z m 10.99375,-0.98253 c 1.24391,-0.239193 3.04391,-0.230112 4,0.02018 0.95609,0.250292 -0.0617,0.445996 -2.26166,0.434897 -2.2,-0.0111 -2.98225,-0.215885 -1.73834,-0.455077 z M 141.9066,42.280969 c 7.15,-0.286881 23.35,-0.984834 36,-1.551009 12.65,-0.566174 31.775,-1.24554 42.5,-1.509702 10.725,-0.264162 21.39672,-0.726389 23.71493,-1.02717 l 4.21493,-0.546875 -4.21493,-8.569797 -4.21493,-8.569799 -12.5,0.601834 c -44.34457,2.135045 -54.81473,2.590634 -75,3.263481 -12.53827,0.417945 -21.17177,1.059853 -19.5,1.449843 l 3,0.699837 -3,0.126017 c -2.38316,0.100106 -3.461,0.93339 -5.24207,4.052658 l -2.24207,3.926639 2.74207,0.415826 c 2.5888,0.392582 2.56371,0.4242 -0.44891,0.565657 -4.04771,0.190059 -5.40509,2.103998 -1.61804,2.281473 2.59124,0.121436 2.53767,0.188758 -0.69098,0.868359 -1.925,0.405195 -2.825,0.82448 -2,0.931745 0.90121,0.117174 0.51163,0.589415 -0.97593,1.182993 -2.03908,0.813651 -2.21552,1.160401 -1,1.965274 0.81176,0.537519 2.82593,0.749385 4.47593,0.470812 1.65,-0.278573 8.85,-0.741216 16,-1.028096 z m -16.6875,-0.205842 c 0.72187,-0.288871 1.58437,-0.253344 1.91667,0.07895 0.33229,0.332292 -0.25834,0.568641 -1.3125,0.52522 -1.16495,-0.04798 -1.4019,-0.284941 -0.60417,-0.60417 z m 2,-2 c 0.72187,-0.288871 1.58437,-0.253344 1.91667,0.07895 0.33229,0.332292 -0.25834,0.568641 -1.3125,0.52522 -1.16495,-0.04798 -1.4019,-0.284941 -0.60417,-0.60417 z m 20.1875,-0.316886 c -0.90129,-0.58246 -1.02463,-0.975486 -0.30902,-0.984687 0.65504,-0.0084 1.4691,0.434687 1.80902,0.984687 0.7673,1.241525 0.42112,1.241525 -1.5,0 z m 9.8125,0.316886 c 0.72187,-0.288871 1.58437,-0.253344 1.91667,0.07895 0.33229,0.332292 -0.25834,0.568641 -1.3125,0.52522 -1.16495,-0.04798 -1.4019,-0.284941 -0.60417,-0.60417 z m -25.8125,-1.316886 c -0.90129,-0.58246 -1.02463,-0.975486 -0.30902,-0.984687 0.65504,-0.0084 1.4691,0.434687 1.80902,0.984687 0.7673,1.241525 0.42112,1.241525 -1.5,0 z m 9.75,-1.662281 c 0.6875,-0.277412 1.8125,-0.277412 2.5,0 0.6875,0.277413 0.125,0.504386 -1.25,0.504386 -1.375,0 -1.9375,-0.226973 -1.25,-0.504386 z m 6.9798,-0.941248 c -1.22579,-1.225795 2.82513,-6.250918 5.33618,-6.619461 1.44228,-0.211683 13.75359,-0.511023 27.35845,-0.665201 24.58354,-0.278594 24.72943,-0.26781 23.65047,1.748241 -1.96248,3.666917 -0.92606,3.537794 -37.10316,4.622544 -9.43689,0.28296 -17.50331,0.727898 -17.92538,0.988753 -0.42207,0.260854 -1.01452,0.22716 -1.31656,-0.07488 z m 22.01848,-2.694095 c 10.00445,-0.218922 12.70425,-1.957304 4.736,-3.049476 -5.36451,-0.735288 -16.48428,0.26952 -16.48428,1.489557 0,0.471649 -1.35,0.857544 -3,0.857544 -1.72517,0 -3.00651,-0.531181 -3.01531,-1.25 -0.0102,-0.833333 -0.33844,-0.75 -0.98469,0.25 -1.7631,2.728204 -1.05273,3.150135 4.25,2.524331 2.8875,-0.340769 9.41172,-0.710649 14.49828,-0.821956 z m 32.00818,-2.464937 c 0.32652,-0.984891 -1.52502,-1.120465 -8.41894,-0.61645 -12.61138,0.92202 -13.96152,2.414515 -1.91858,2.120869 6.92143,-0.168768 10.04543,-0.623404 10.33752,-1.504419 z m -73.48743,1.069571 c 0.97297,-0.253543 2.32297,-0.236869 3,0.03705 0.67703,0.273923 -0.11903,0.481368 -1.76903,0.460988 -1.65,-0.02038 -2.20394,-0.244498 -1.23097,-0.498038 z m 3.54347,-2.990123 c 0.72187,-0.288871 1.58437,-0.253344 1.91667,0.07895 0.33229,0.332292 -0.25834,0.568641 -1.3125,0.52522 -1.16495,-0.04798 -1.4019,-0.284941 -0.60417,-0.60417 z m 79.1875,79.683112 c 0,-0.55 0.47656,-1 1.05902,-1 0.58246,0 0.7809,0.45 0.44098,1 -0.33992,0.55 -0.81648,1 -1.05902,1 -0.24254,0 -0.44098,-0.45 -0.44098,-1 z"
     id="path3096"
     inkscape:connector-curvature="0"
     sodipodi:nodetypes="cssssssssssscsssscccssscsscccsssssscsssssscsssscsscssssssccsccsssscssscssssssssssscscsssssssssssscscsssssscssssssssssssssssssssssssssssssscsscssscscssscsssssssssssssssssscsscssssscssccssccssssssssscssssssscsssssssscscsscsccscccsssscsssssssssssssssssscccsssssssssssscsssssssssssssssssssssssssssscssssssssssssssssssssssscccssscsscsssssssssssssssssscssssssscssssssssssssssssssssssssssssssssssssss" />
</svg>
