<?xml version="1.0" encoding="UTF-8" standalone="no"?>
<!-- Created with Inkscape (http://www.inkscape.org/) -->

<svg
   xmlns:dc="http://purl.org/dc/elements/1.1/"
   xmlns:cc="http://creativecommons.org/ns#"
   xmlns:rdf="http://www.w3.org/1999/02/22-rdf-syntax-ns#"
   xmlns:svg="http://www.w3.org/2000/svg"
   xmlns="http://www.w3.org/2000/svg"
   xmlns:xlink="http://www.w3.org/1999/xlink"
   xmlns:sodipodi="http://sodipodi.sourceforge.net/DTD/sodipodi-0.dtd"
   xmlns:inkscape="http://www.inkscape.org/namespaces/inkscape"
   id="svg25891"
   version="1.1"
   inkscape:version="0.48.4 r9939"
   width="231"
   height="494"
   sodipodi:docname="Wine.png">
  <metadata
     id="metadata25897">
    <rdf:RDF>
      <cc:Work
         rdf:about="">
        <dc:format>image/svg+xml</dc:format>
        <dc:type
           rdf:resource="http://purl.org/dc/dcmitype/StillImage" />
        <dc:title></dc:title>
      </cc:Work>
    </rdf:RDF>
  </metadata>
  <defs
     id="defs25895">
    <linearGradient
       id="linearGradient26433">
      <stop
         style="stop-color:#ffffff;stop-opacity:1;"
         offset="0"
         id="stop26435" />
      <stop
         style="stop-color:#ffffff;stop-opacity:0;"
         offset="1"
         id="stop26437" />
    </linearGradient>
    <filter
       inkscape:collect="always"
       id="filter26419"
       x="-0.1119203"
       width="1.2238406"
       y="-0.21783117"
       height="1.4356623">
      <feGaussianBlur
         inkscape:collect="always"
         stdDeviation="5.9532849"
         id="feGaussianBlur26421" />
    </filter>
    <linearGradient
       inkscape:collect="always"
       xlink:href="#linearGradient26433"
       id="linearGradient26443"
       x1="120.46265"
       y1="121.40678"
       x2="200.9279"
       y2="121.40678"
       gradientUnits="userSpaceOnUse" />
    <filter
       inkscape:collect="always"
       id="filter26445"
       x="-0.32909873"
       width="1.6581975"
       y="-0.11003721"
       height="1.2200744">
      <feGaussianBlur
         inkscape:collect="always"
         stdDeviation="8.8293979"
         id="feGaussianBlur26447" />
    </filter>
  </defs>
  <sodipodi:namedview
     pagecolor="#ffffff"
     bordercolor="#666666"
     borderopacity="1"
     objecttolerance="10"
     gridtolerance="10"
     guidetolerance="10"
     inkscape:pageopacity="0"
     inkscape:pageshadow="2"
     inkscape:window-width="1278"
     inkscape:window-height="756"
     id="namedview25893"
     showgrid="false"
     inkscape:zoom="0.47773279"
     inkscape:cx="110.79025"
     inkscape:cy="337.91161"
     inkscape:window-x="0"
     inkscape:window-y="22"
     inkscape:window-maximized="0"
     inkscape:current-layer="svg25891" />
  <path
     style="fill:#811c1c;fill-opacity:1;stroke:none"
     d="m 58.465147,96.214983 c -5.0193,19.725157 -11.486257,35.107347 -17.391531,52.174587 -3.840584,9.33868 -4.13915,17.49669 -5.180456,25.90228 3.502501,12.35886 4.392312,18.78595 18.501629,35.1531 17.391811,10.01544 31.077809,21.14317 53.284691,29.23257 15.95119,3.17724 24.75387,0.36469 35.15309,-1.1101 32.9149,-10.56193 44.17411,-15.21135 55.50489,-24.79218 8.55197,-8.27655 19.21695,-19.7067 15.17133,-47.36416 C 213.19266,141.1532 203.4692,118.0996 190.56678,92.884689 167.58223,87.536246 151.11655,88.309071 129.88143,87.334201 96.332732,88.215428 78.582493,92.455609 58.465147,96.214983 z"
     id="path26415"
     inkscape:connector-curvature="0"
     sodipodi:nodetypes="ccccccccccc" />
  <path
     style="fill:#000000"
     d="m 92.906778,483.84326 c -30.7145,-0.69173 -40.88805,-1.37044 -57.35956,-3.8267 -6.78894,-1.01237 -11.44359,-4.3439 -9.44077,-6.75715 3.61386,-4.35443 14.56261,-7.36983 37.30033,-10.27292 13.45966,-1.71849 31.85279,-6.57568 36.885242,-9.74051 2.40155,-1.51029 5.64632,-4.27861 7.21062,-6.15182 l 2.84418,-3.40583 0.87007,-30.59417 c 1.1877,-41.76279 1.16128,-143.25194 -0.0406,-155.875 -0.81866,-8.59829 -1.36093,-10.68755 -3.31342,-12.76587 -3.08153,-3.28015 -9.165742,-6.78413 -17.046022,-9.81703 -20.10133,-7.73645 -40.97391,-21.70014 -48.65649,-32.55104 -3.62261,-5.11659 -10.25569,-23.50261 -10.24977,-28.41101 0.005,-3.97334 4.26839,-25.36424 6.48757,-32.54887 0.91307,-2.95606 3.43439,-9.46543 5.60293,-14.46526 4.91973,-11.34294 11.65443,-34.585581 12.42975,-42.897159 C 56.752158,80.318315 57.492208,74.125 58.075398,70 c 0.65492,-4.632396 0.78893,-13.4036 0.3505,-22.940414 -0.6192,-13.468705 -1.07588,-16.433161 -3.57627,-23.214596 -1.57654,-4.2758 -2.50321,-7.99867 -2.05926,-8.273044 0.44395,-0.274374 2.56425,-0.754711 4.71179,-1.067415 6.13358,-0.893114 138.404622,-1.17175 138.404622,-0.291558 0,0.432865 -0.1125,0.821767 -0.25,0.864227 -0.1375,0.04246 -29.5,0.266922 -65.25,0.498806 -35.750002,0.231884 -67.340262,0.676746 -70.200592,0.988583 l -5.20059,0.566977 2.88227,7.817135 c 2.64,7.160075 2.90026,9.06677 3.09632,22.684217 0.20752,14.413629 -1.16386,32.275291 -3.16708,41.249776 -0.53805,2.410481 -0.79189,4.569082 -0.56408,4.79689 0.22781,0.227807 3.2806,-0.05787 6.78397,-0.634847 3.50338,-0.576973 9.29478,-1.440733 12.86978,-1.919467 4.29093,-0.574604 5.3105,-0.918934 3,-1.01316 -1.925,-0.0785 -4.08482,-0.513697 -4.7996,-0.967095 -1.29366,-0.820593 17.24795,-1.607449 65.299602,-2.771139 25.17533,-0.609683 40.11092,0.27116 47.03169,2.773745 1.87993,0.679788 3.69448,0.959539 4.03235,0.621667 0.33788,-0.337871 -0.10081,-4.072315 -0.97486,-8.298764 -1.83125,-8.854981 -1.99351,-15.219482 -0.60817,-23.855227 0.53956,-3.363413 1.71596,-10.993275 2.61424,-16.955249 0.89828,-5.961973 2.25148,-13.161973 3.00712,-16 0.75564,-2.838026 1.37923,-6.397548 1.38576,-7.910048 0.006,-1.5125 0.46187,-2.75 1.01187,-2.75 1.37132,0 1.23646,2.375777 -0.56766,10 -0.84595,3.575 -1.92936,9.425 -2.40758,13 -0.47822,3.575 -1.62439,11.675 -2.54704,18 -1.04613,7.171537 -1.45936,14.134717 -1.09787,18.5 0.8236,9.945646 5.17487,26.21056 8.42704,31.5 4.4213,7.19095 7.16268,13.61469 11.75264,27.53938 3.52943,10.70737 4.57912,15.73111 5.8693,28.09001 2.7018,25.88125 1.98756,32.08127 -5.00019,43.40443 -3.12939,5.07096 -11.63407,14.14354 -16.26948,17.35588 -6.34465,4.39685 -24.07094,11.31386 -41.41329,16.15997 -12.61171,3.52419 -16.04731,6.72062 -19.50084,18.14331 -2.34608,7.75976 -2.36456,8.21565 -3.05231,75.30702 -0.38056,37.125 -0.62661,72.45 -0.54679,78.5 0.18049,13.6785 2.92357,32.73582 5.41483,37.61911 3.25407,6.3785 11.30893,10.41622 28.45826,14.26547 14.64913,3.28807 33.35685,9.23892 35.73908,11.36844 4.1578,3.71677 -3.68751,6.71423 -25.2581,9.65037 -14.425,1.9635 -40.02763,2.40764 -83.000002,1.43987 z m 81.860472,-3.23218 c 4.59826,-0.88609 9.99826,-1.63622 12,-1.66695 4.2102,-0.0646 12.39459,-3.1217 12.06082,-4.50501 -0.3638,-1.50772 -12.02399,-6.10103 -20.04092,-7.89473 -27.64829,-6.18601 -30.32191,-7.05244 -39.05514,-12.65654 -4.41546,-2.83339 -4.78021,-3.40712 -6.16659,-9.69969 -2.44104,-11.07954 -3.92496,-24.04792 -3.96557,-34.65637 -0.0211,-5.51748 0.20694,-40.23731 0.50681,-77.15517 0.53375,-65.71091 0.59323,-67.31017 2.82656,-76 3.16221,-12.30404 6.91532,-16.26337 18.89794,-19.93627 25.2761,-7.74762 37.72682,-12.85255 45.33509,-18.58787 6.20187,-4.67515 14.49212,-15.31849 17.4369,-22.38616 2.09923,-5.03831 2.46874,-7.45189 2.37567,-15.51727 -0.0606,-5.25303 -0.27432,-10.42803 -0.47491,-11.5 -0.20058,-1.07198 -0.68055,-5.32405 -1.0666,-9.44905 -1.36704,-14.6072 -7.54283,-34.39437 -15.45723,-49.52487 -2.59638,-4.96368 -5.24648,-10.53314 -5.8891,-12.376583 -1.26678,-3.633871 -0.71829,-3.569886 -10.4342,-1.217217 -3.54001,0.857199 -5.21311,-0.0189 -2.5,-1.309085 0.6875,-0.326932 0.125,-0.354061 -1.25,-0.06029 -1.375,0.293774 -10.6,0.761809 -20.5,1.040077 -9.9,0.278268 -22.5,0.936764 -28,1.463324 -5.5,0.52656 -15.625,1.008564 -22.5,1.071114 -7.65169,0.0696 -13.701322,0.61216 -15.597262,1.39878 -3.65426,1.51616 -15.0248,3.02673 -11.90274,1.58128 1.1,-0.50928 3.125,-1.02941 4.5,-1.15586 1.375,-0.12644 -2.45,-0.62191 -8.5,-1.10102 -15.71697,-1.244684 -15.88097,-1.264546 -17.15976,-2.07821 -2.48801,-1.583073 -4.37389,0.67291 -6.37076,7.62101 -3.7254,12.96251 -5.11917,17.00929 -7.44086,21.60438 -3.92537,7.76909 -9.31297,25.81465 -11.58116,38.79063 -1.46688,8.39178 -0.68687,13.27143 4.35634,27.25254 2.4828,6.88298 4.02965,9.45906 8.13114,13.54136 9.7849,9.73912 29.45758,21.80295 44.97933,27.58255 7.3715,2.74482 15.612692,7.79379 18.603432,11.39741 1.40711,1.69547 3.34746,24.06748 3.38067,38.97868 0.14567,65.41628 -0.0624,94.51821 -0.94158,131.66766 -0.77597,32.78939 -0.54938,31.89765 -9.70752,38.2051 -6.889722,4.74513 -25.529712,9.84216 -44.520952,12.17407 -7.00058,0.85959 -14.75332,2.05942 -17.22832,2.66629 -6.75125,1.6554 -15.28965,5.89723 -14.15483,7.03205 1.04031,1.04031 10.8229,3.26012 21.15483,4.80033 3.575,0.53294 22.25,1.24255 41.5,1.57692 19.250002,0.33437 35.105582,0.69919 35.234622,0.81071 0.12904,0.11152 9.35404,0.10968 20.5,-0.004 13.71815,-0.14004 22.96643,-0.72737 28.62585,-1.81795 z M 46.208638,475.34424 c -0.4065,-1.05932 0.18503,-2.32008 1.64217,-3.5 2.39504,-1.93939 5.60638,-2.54384 4.56528,-0.8593 -0.65408,1.05832 3.86516,0.51407 8.88991,-1.0706 1.59458,-0.50289 3.61958,-0.89839 4.5,-0.8789 3.48405,0.0771 -3.66634,2.8866 -10.39922,4.08598 -3.85,0.68584 -6.2125,1.42208 -5.25,1.6361 2.66276,0.59209 2.08768,2.24248 -0.78138,2.24248 -1.43347,0 -2.80696,-0.71814 -3.16676,-1.65576 z m 132.906612,-1.4011 c 0.94234,-0.54938 1.4549,-1.65682 1.14301,-2.46959 -0.67601,-1.76165 2.17738,-2.04489 3.24228,-0.32185 0.81483,1.31842 -2.20796,3.86328 -4.53489,3.81789 -1.31683,-0.0257 -1.2936,-0.18506 0.1496,-1.02645 z m -91.794012,-8.80473 c 0.38697,-0.62613 1.68952,-1.14009 2.89456,-1.14215 2.39804,-0.004 7.90614,-3.02463 11.437042,-6.27186 1.23533,-1.13609 2.54507,-1.7666 2.91053,-1.40114 0.9882,0.98819 -2.66325,4.63776 -6.703102,6.69966 -4.54334,2.31887 -11.53168,3.72164 -10.53903,2.11549 z m 26.585542,-20.60448 c 0,-0.25634 0.64751,-1.94384 1.43891,-3.75 0.7914,-1.80616 1.70459,-4.53983 2.02932,-6.07483 0.32472,-1.53499 0.98036,-2.54989 1.45698,-2.25532 C 120.4237,433.43751 116.65833,445 114.74626,445 c -0.46171,0 -0.83948,-0.20973 -0.83948,-0.46607 z M 116.92209,425.75 c 0.008,-1.7875 0.45153,-3.925 0.98469,-4.75 0.70111,-1.08489 0.97361,-0.18547 0.98469,3.25 0.008,2.6125 -0.43469,4.75 -0.98469,4.75 -0.55,0 -0.99311,-1.4625 -0.98469,-3.25 z m -1.01531,-11.05887 c 0,-0.71988 0.6444,-2.18238 1.432,-3.25 1.34454,-1.82258 1.42686,-1.74264 1.34782,1.30887 -0.0523,2.01749 -0.59532,3.25 -1.432,3.25 -0.7413,0 -1.34782,-0.58899 -1.34782,-1.30887 z m 1.07029,-8.97251 c 0.0387,-1.22024 0.45702,-3.11862 0.92971,-4.21862 0.832,-1.93617 0.86167,-1.93081 0.92971,0.16821 0.0387,1.19252 0.32115,2.82195 0.62776,3.62096 0.30661,0.79901 -0.14339,1.72169 -1,2.0504 -1.13117,0.43408 -1.53823,-0.01 -1.48718,-1.62095 z m -0.52758,-8.64952 c -0.31644,-0.512 -0.11065,-1.21809 0.45729,-1.5691 0.56794,-0.35101 0.77124,-1.06113 0.45176,-1.57805 -0.71595,-1.15844 0.39632,-4.92195 1.45465,-4.92195 0.62346,0 0.72969,4.42758 0.19793,8.25 -0.14692,1.05607 -1.87246,0.93421 -2.56163,-0.1809 z m 1.04704,-16.7382 c 0.95582,-4.04781 2.41025,-5.27333 2.41025,-2.0309 0,1.485 0.0238,3.0375 0.0528,3.45 0.029,0.4125 -0.66366,0.89891 -1.53936,1.0809 -1.27502,0.26499 -1.45902,-0.233 -0.92371,-2.5 z m 0.0673,-10.07682 c -0.32613,-0.52769 0.0533,-1.81323 0.8432,-2.85676 1.10444,-1.45908 1.43997,-1.55086 1.45265,-0.39732 0.0235,2.13584 -1.58124,4.41034 -2.29585,3.25408 z m 0.34295,-6.31982 c 0,-1.72867 1.98852,-4.93426 3.06086,-4.93426 0.54478,0 0.29239,1.35 -0.56086,3 -1.6009,3.0958 -2.5,3.79144 -2.5,1.93426 z m -0.9682,-6.60093 c 0.0175,-0.45833 0.68785,-1.70048 1.48967,-2.76033 1.71764,-2.27036 3.38435,-1.23257 1.87172,1.16544 -1.15015,1.82337 -3.41105,2.8961 -3.36139,1.59489 z m 0.98351,-21.02431 c -0.008,-1.75504 0.43469,-3.4691 0.98469,-3.80902 1.28168,-0.79212 1.28168,3.51674 0,5.5 -0.73761,1.14137 -0.97304,0.73709 -0.98469,-1.69098 z m 0.54153,-8.55902 c 0.84349,-2.74408 1.26549,-3.261 2.03447,-2.49203 0.86178,0.86178 -0.55062,4.74203 -1.72609,4.74203 -0.57529,0 -0.70626,-0.95559 -0.30838,-2.25 z m -0.55684,-5.70295 c 0,-1.93657 2.32029,-5.96714 3.14256,-5.45894 0.46756,0.28896 0.1652,1.84985 -0.67191,3.46864 -1.54086,2.97971 -2.47065,3.72872 -2.47065,1.9903 z m -1,-9.93627 c 0,-0.48906 0.88503,-1.95156 1.96673,-3.25 2.09904,-2.5196 2.75318,-1.07447 0.99809,2.20496 -1.05753,1.976 -2.96482,2.64829 -2.96482,1.04504 z m 1,-6.67652 c 0,-0.31116 0.46583,-1.43616 1.03518,-2.5 1.53838,-2.87448 3.12145,-2.37213 1.78287,0.56574 -1.00831,2.21299 -2.81805,3.45516 -2.81805,1.93426 z m 1.30875,-15.28704 c -0.0489,-3.24201 0.43526,-5.5198 1.33136,-6.2635 1.85754,-1.54162 2.98385,-0.34048 1.433,1.52819 -0.87801,1.05793 -0.92127,2.0033 -0.15702,3.43131 0.81663,1.52588 0.64999,2.47108 -0.7378,4.18493 -1.78,2.1982 -1.79322,2.17782 -1.86954,-2.88093 z m -1.96374,-15.97596 c 0.91025,-1.00581 1.65499,-2.67081 1.65499,-3.7 0,-1.43138 0.27571,-1.59555 1.17287,-0.69839 1.58735,1.58735 -0.50369,6.22713 -2.80642,6.22713 -1.56075,0 -1.56223,-0.12618 -0.0214,-1.82874 z M 116.79832,267.25 c 0.52905,-0.9625 1.65557,-2.65 2.50338,-3.75 1.53468,-1.99118 1.54161,-1.99076 1.57328,0.095 0.0175,1.15226 -0.79113,2.83976 -1.79694,3.75 -2.3851,2.15849 -3.493,2.11231 -2.27972,-0.095 z m 1.10846,-6.40533 c 0,-1.87805 2.74567,-4.43233 3.71861,-3.45939 0.36865,0.36865 -0.31722,1.65778 -1.52417,2.86472 -1.76363,1.76363 -2.19444,1.88038 -2.19444,0.59467 z m -0.96673,-5.97223 c -0.035,-1.71303 2.65833,-4.51417 3.5159,-3.6566 0.27546,0.27546 -0.39544,1.57708 -1.4909,2.8925 -1.54056,1.8499 -1.99927,2.02298 -2.025,0.7641 z m 0.96673,-24.2936 c 0,-0.84904 -0.86911,-1.13535 -2.5,-0.82359 -2.54207,0.48595 -3.53229,-1.17205 -1.25,-2.09297 0.6875,-0.27741 -0.2125,-0.53991 -2,-0.58333 -3.70703,-0.09 -4.37625,-1.70381 -1,-2.4114 1.2375,-0.25935 -0.5625,-0.23252 -4,0.0596 -7.1137,0.60457 -8.596292,-0.98156 -2.5,-2.67459 4.64126,-1.28894 5.52717,-1.31007 4.78808,-0.11419 -0.31898,0.51611 1.01387,1.07861 2.96188,1.25 1.948,0.17138 3.51635,0.66518 3.48522,1.09732 -0.0793,1.10018 2.03564,2.96718 5.22336,4.61108 1.91843,0.98933 4.47089,1.21259 8.75,0.76533 3.3228,-0.3473 6.04146,-0.2365 6.04146,0.24622 0,1.4349 -2.07881,1.81982 -10.25,1.89792 -5.73482,0.0548 -7.75,-0.26434 -7.75,-1.22742 z m -24.000002,-9.5403 c 0,-0.5288 1.9125,-1.48987 4.25,-2.13572 2.337502,-0.64585 3.714322,-1.36676 3.059612,-1.60201 -0.65471,-0.23526 -2.904712,0.0483 -5.000002,0.63015 -4.69075,1.30257 -14.30961,1.403 -14.30961,0.14941 0,-0.5058 2.3625,-1.68612 5.25,-2.62292 7.9203,-2.56963 7.97133,-3.45564 0.2,-3.47276 -6.42515,-0.0142 -10.656,-1.11202 -9.34347,-2.42455 0.30173,-0.30173 3.8887,-0.11509 7.97104,0.41475 4.08234,0.52985 8.20993,0.97725 9.17243,0.99423 2.88047,0.0508 1.99151,1.85011 -2,4.04806 l -3.75,2.06495 7.12986,-0.58978 c 6.035632,-0.49926 7.406372,-0.31373 8.931592,1.20894 1.73508,1.73216 1.61927,1.84141 -3.12985,2.95271 -6.335602,1.48255 -8.431602,1.57814 -8.431602,0.38454 z m -21,-14.96758 c 0,-0.88827 9.43681,-4.07096 12.07058,-4.07096 0.69451,0 0.92142,-0.3375 0.50424,-0.75 -0.41718,-0.4125 -4.87968,-0.75 -9.91667,-0.75 -10.31549,0 -12.61321,-1.4141 -5.12485,-3.154 6.83437,-1.58796 11.22437,-1.43168 4.9667,0.1768 l -5,1.28521 8,0.11131 c 7.34838,0.10224 11.74646,1.16755 10.3959,2.51812 -0.3004,0.3004 -2.31237,1.19316 -4.47104,1.98391 l -3.92486,1.43773 3.5,0.17014 c 8.86676,0.43103 7.96767,1.77686 -1.25,1.8711 -5.4084,0.0553 -9.75,-0.31401 -9.75,-0.82936 z m 108.000002,-2.96255 c 0,-0.49038 1.0125,-1.15015 2.25,-1.46617 3.73,-0.95251 9.44541,-6.36642 12.66901,-12.00069 3.59935,-6.291 6.08099,-17.12916 6.08099,-26.5577 0,-8.0842 -1.25248,-12.30729 -5.1234,-17.27496 -3.15351,-4.047 -2.23563,-6.16792 1.18776,-2.74453 9.82249,9.82249 8.37643,37.18041 -2.73528,51.74862 -4.03087,5.28474 -14.32908,11.24661 -14.32908,8.29543 z m -97.500002,-8.14125 c 1.88261,-0.49964 -1.37728,-0.73492 -8.75218,-0.63168 -7.35856,0.10301 -11.6284,-0.20437 -11.42109,-0.82221 0.33656,-1.00303 22.36765,-0.80981 24.03003,0.21075 1.33765,0.8212 -1.58162,2.25669 -4.35676,2.14235 -2.3192,-0.0956 -2.28304,-0.16058 0.5,-0.89921 z m -22.84612,-3.64662 C 58.709708,189.46959 60.904548,189 71.406778,189 c 6.325,0 11.49882,0.3375 11.49737,0.75 -0.001,0.4125 -3.03895,0.78424 -6.75,0.8261 -3.71105,0.0419 -8.59062,0.3736 -10.84349,0.73721 -2.25287,0.36361 -4.39037,0.36687 -4.75,0.007 z m -4.65388,-7.24547 c 0,-0.69262 3.43887,-1.07507 9.66667,-1.07507 5.31666,0 9.47916,0.16798 9.25,0.37328 -0.22917,0.20531 -4.57917,0.68909 -9.66667,1.07508 -6.36581,0.48296 -9.25,0.36657 -9.25,-0.37329 z m 2.40742,-4.22486 c -0.58927,-0.95347 1.96654,-1.52542 10.5865,-2.36911 3.57166,-0.34958 6.12609,-0.26334 5.67652,0.19165 -1.16922,1.18332 -15.67693,3.12576 -16.26302,2.17746 z m -7.40742,-6.70775 c 0,-0.63703 1.53453,-1.14246 3.46862,-1.14246 2.67237,0 3.33648,-0.34434 2.89301,-1.5 -0.45703,-1.19099 0.32196,-1.50227 3.78138,-1.51101 2.39635,-0.006 6.04449,-0.28993 8.10699,-0.63084 2.48801,-0.41124 3.75,-0.23927 3.75,0.51101 0,0.62196 -1.2375,1.19008 -2.75,1.26248 -2.47353,0.11841 -2.39813,0.20571 0.75,0.86836 l 3.5,0.73672 -3.5,0.21497 c -1.925,0.11824 -4.4,0.35819 -5.5,0.53324 -9.13549,1.45373 -14.5,1.697 -14.5,0.65753 z m 0,-8.02892 c 0,-1.77365 23.32198,-3.01962 24.38312,-1.30266 0.30395,0.49181 -3.55204,1.18555 -8.56886,1.54166 -12.25239,0.8697 -15.81426,0.81587 -15.81426,-0.239 z m -0.43774,-3.0128 c -0.37416,-0.60541 -0.54123,-1.13534 -0.37128,-1.17762 0.16996,-0.0423 4.24652,-0.30981 9.05902,-0.59449 5.98555,-0.35408 8.75,-0.17182 8.75,0.57688 0,0.6569 -2.14898,1.09449 -5.375,1.09449 -2.95625,0 -6.72667,0.27033 -8.37872,0.60074 -1.74967,0.34994 -3.28774,0.14119 -3.68402,-0.5 z M 49.583208,157.75 c -1.41337,-1.03569 -0.24594,-1.25 6.80918,-1.25 8.16459,0 10.32699,0.59046 6.9326,1.89301 -2.80242,1.07539 -11.98297,0.64581 -13.74178,-0.64301 z m 0.57357,-4.56955 c -5.05203,-0.7175 -1.6979,-1.69834 6.75249,-1.9746 5.29914,-0.17324 8.99751,0.10131 8.99751,0.66794 0,0.95986 -11.48367,1.91257 -15.75,1.30666 z m 2.75,-6.18045 c 3.74531,-1.19946 16.24131,-1.19946 15.5,0 -0.34345,0.55571 -4.47936,0.95571 -9.30902,0.90032 -5.88743,-0.0675 -7.88453,-0.35795 -6.19098,-0.90032 z m -0.0478,-3.05067 c -1.05887,-0.66985 -0.50418,-0.96344 2.04775,-1.08385 3.04165,-0.14352 3.13986,-0.2197 0.75,-0.58173 C 51.895288,141.71393 52.174798,140 56.029178,140 c 2.70025,0 2.94936,-0.20855 1.84238,-1.54238 -0.88993,-1.0723 -0.96165,-1.8608 -0.23531,-2.58713 0.72633,-0.72634 1.24952,-0.71342 1.71663,0.0424 0.36954,0.59792 3.45783,1.13199 6.86287,1.18681 4.61462,0.0743 5.55442,0.30354 3.69098,0.90032 -2.3984,0.7681 -2.40856,0.80469 -0.25,0.90032 2.19015,0.097 3.31426,2.09968 1.17857,2.09968 -0.58928,0 -1.6866,0.61517 -2.43847,1.36705 -0.79455,0.79454 -3.73437,1.42162 -7.0198,1.49736 -3.10902,0.0717 -5.97069,0.32681 -6.35927,0.56697 -0.38859,0.24016 -1.36003,0.0232 -2.15877,-0.48205 z M 60.906728,132 c 0,-0.58622 2.99989,-0.94821 7.25,-0.87483 6.87684,0.11872 7.01838,0.16638 2.75,0.92587 -6.35932,1.13155 -10,1.11297 -10,-0.051 z m 6,-5.01586 c 0,-0.54128 1.54844,-0.98414 3.44098,-0.98414 1.89255,0 3.74132,-0.48595 4.1084,-1.07989 0.45194,-0.73125 -0.97429,-0.99276 -4.41765,-0.81 -2.79678,0.14844 -5.39556,-0.0406 -5.77506,-0.42011 -0.3795,-0.3795 2.985,-0.69 7.47666,-0.69 7.36354,0 10.27308,0.98338 6.91667,2.33772 -0.6875,0.27741 -0.2375,0.53991 1,0.58333 1.2375,0.0434 2.25,0.48712 2.25,0.98599 0,0.49887 -3.375,0.94173 -7.5,0.98413 -4.30497,0.0443 -7.5,-0.34214 -7.5,-0.90703 z M 65.910718,119.75 c -0.006,-1.09791 16.23148,-0.88739 17.99601,0.23333 0.99747,0.63352 -1.76511,0.87966 -8.24601,0.73468 -5.3603,-0.1199 -9.7478,-0.55551 -9.75,-0.96801 z m -0.31237,-3.39172 c -2.10728,-2.10727 -0.10754,-2.87013 7.95522,-3.03475 6.15829,-0.12573 9.03485,0.2153 10.00579,1.18624 0.74949,0.74949 1.02176,1.55274 0.60504,1.785 -1.31296,0.73179 -17.84124,0.78833 -18.56605,0.0635 z m 9.40185,-7.51004 c -10.30236,-1.22426 -10.80673,-3.78593 -1.24219,-6.30901 2.8318,-0.74701 5.14872,-0.98849 5.14872,-0.53662 0,0.45188 -1.6967,1.10825 -3.77045,1.45861 -2.07375,0.35036 -4.43625,1.09303 -5.25,1.65039 -1.03244,0.70714 1.31573,0.90142 7.77045,0.64291 5.0875,-0.20376 9.25,-0.19974 9.25,0.009 0,0.74372 -2.52517,2.85683 -4,3.34728 -0.825,0.27435 -4.38294,0.15623 -7.90653,-0.26249 z m 7.34766,-13.380043 C 84.221358,94.051152 84.201888,94 81.788988,94 c -1.375,0 -3.37351,0.660688 -4.44113,1.468197 -1.8735,1.417044 -1.85403,1.468196 0.55887,1.468196 1.375,0 3.37351,-0.660688 4.44113,-1.468196 z M 87.406728,96 c 0.78218,-1.265597 -0.54163,-1.265597 -2.5,0 -1.29269,0.835399 -1.26629,0.971491 0.19098,0.984687 0.93005,0.0084 1.9691,-0.434687 2.30902,-0.984687 z m 6.5,0 c 0,-0.55 -0.42344,-1 -0.94098,-1 -0.51754,0 -1.2191,0.45 -1.55902,1 -0.33992,0.55 0.0835,1 0.94098,1 0.85746,0 1.55902,-0.45 1.55902,-1 z m 10.484982,-0.0243 c -0.34817,-0.563363 -1.70772,-0.880379 -3.0212,-0.704479 C 97.379748,95.80566 97.330398,97 101.29911,97 c 2.28806,0 3.48141,-0.395243 3.09263,-1.024296 z M 108.90673,96 c 1.29269,-0.835399 1.26629,-0.971491 -0.19098,-0.984687 -0.93004,-0.0084 -1.9691,0.434687 -2.30902,0.984687 -0.78218,1.265597 0.54163,1.265597 2.5,0 z M 70.406728,95 c 0.33992,-0.55 -0.28196,-1 -1.38196,-1 -1.1,0 -2.27812,0.45 -2.61804,1 -0.33992,0.55 0.28197,1 1.38197,1 1.1,0 2.27811,-0.45 2.61803,-1 z m 89.000002,-1 c -0.33992,-0.55 -1.82898,-0.946758 -3.30902,-0.881685 l -2.69098,0.118315 3,0.76337 c 1.65,0.419854 3.13906,0.816612 3.30902,0.881685 C 159.88571,94.946755 159.74665,94.55 159.40673,94 z m -21.25,-0.662281 c -0.6875,-0.277412 -1.8125,-0.277412 -2.5,0 -0.6875,0.277413 -0.125,0.504386 1.25,0.504386 1.375,0 1.9375,-0.226973 1.25,-0.504386 z m 9.5,-0.05397 c -1.5125,-0.229125 -3.9875,-0.229125 -5.5,0 -1.5125,0.229124 -0.275,0.41659 2.75,0.41659 3.025,0 4.2625,-0.187466 2.75,-0.41659 z M 86.156728,92.337722 c -0.6875,-0.277412 -1.8125,-0.277412 -2.5,0 -0.6875,0.277413 -0.125,0.504386 1.25,0.504386 1.375,0 1.9375,-0.226973 1.25,-0.504386 z M 124.4656,91.42959 c 1.82609,-1.477344 1.70919,-1.538759 -1.97256,-1.036307 -2.15253,0.293759 -4.38003,1.000444 -4.95,1.570413 -1.73102,1.731017 4.73984,1.231762 6.92256,-0.534106 z M 92.635898,91.39584 c -0.33229,-0.332291 -1.19479,-0.367818 -1.91667,-0.07895 -0.79773,0.319226 -0.56077,0.556183 0.60417,0.604167 1.05416,0.04342 1.64479,-0.192928 1.3125,-0.52522 z m 15.020832,-0.08517 c -0.9625,-0.251527 -2.5375,-0.251527 -3.5,0 -0.9625,0.251528 -0.175,0.457323 1.75,0.457323 1.925,0 2.7125,-0.205795 1.75,-0.457323 z m 25.80887,-0.760937 c 1.87274,-1.39917 1.86131,-1.430148 -0.32445,-0.879294 -1.24607,0.314034 -2.51013,0.966652 -2.80902,1.450264 -0.84582,1.368557 0.98367,1.035195 3.13347,-0.57097 z m 22.44113,-0.04974 2.5,-1.429129 -3.63519,-0.03544 c -1.99935,-0.01949 -5.14935,0.621951 -7,1.425423 l -3.36481,1.460858 4.5,0.0037 c 2.475,0.002 5.625,-0.639402 7,-1.425423 z m 14,0 c 1.925,-0.741314 2.825,-1.433388 2,-1.537943 -0.825,-0.104554 -2.7672,-0.339111 -4.31601,-0.521238 -1.56388,-0.1839 -4.23175,0.532106 -6,1.610282 l -3.18399,1.941423 4,-0.07234 c 2.2,-0.03979 5.575,-0.67887 7.5,-1.420184 z m 9.84195,0.618842 c 0.98832,-0.6264 0.69456,-0.97429 -1.11476,-1.320163 -1.35119,-0.258296 -3.27857,0.131335 -4.28308,0.865846 -1.67495,1.224751 -1.58252,1.334205 1.11476,1.320162 1.61762,-0.0084 3.54501,-0.398052 4.28308,-0.865845 z m 5.88722,0.276991 c -0.3323,-0.332291 -1.1948,-0.367818 -1.91667,-0.07895 -0.79773,0.319226 -0.56078,0.556183 0.60417,0.604167 1.05416,0.04342 1.64479,-0.192928 1.3125,-0.52522 z m -42,-2 c -0.3323,-0.332291 -1.1948,-0.367818 -1.91667,-0.07895 -0.79773,0.319226 -0.56078,0.556183 0.60417,0.604167 1.05416,0.04342 1.64479,-0.192928 1.3125,-0.52522 z M 83.406728,85.253207 c -11.31946,-0.574164 -10.5646,-2.377424 1.5,-3.583307 1.925,-0.192408 -0.2125,-0.42185 -4.75,-0.50987 -4.5375,-0.08802 -8.25,-0.557553 -8.25,-1.043406 0,-1.0903 3.64922,-2.124939 7,-1.984662 2.33164,0.09761 2.29797,0.160401 -0.5,0.932367 -2.04439,0.564051 -0.004,0.765266 6.40555,0.631685 6.7753,-0.141204 9.52519,0.153541 9.83334,1.053979 0.25773,0.753102 -0.49976,1.281383 -1.90556,1.328947 -1.28333,0.04342 -1.77083,0.305921 -1.08333,0.583334 0.6875,0.277412 1.25,1.141886 1.25,1.921052 0,0.779167 -0.5625,1.32853 -1.25,1.220807 -0.6875,-0.107724 -4.4,-0.35564 -8.25,-0.550926 z m 4.12002,-8.447408 c 0.29695,-0.480479 -2.99594,-0.571062 -7.40192,-0.203617 -5.4824,0.457215 -8.15321,0.311826 -8.63649,-0.470141 -0.49449,-0.800103 1.29693,-1.134597 6.10937,-1.14074 3.74496,-0.0048 9.23232,-0.299662 12.19412,-0.655291 4.36946,-0.52465 5.29698,-0.382242 4.91787,0.755078 -0.25697,0.770923 -2.09862,1.666853 -4.09255,1.990957 -1.99393,0.324104 -3.38461,0.199793 -3.0904,-0.276246 z m -12.13859,-5.618007 c 0.3149,-0.820603 -0.36139,-2.35895 -1.50571,-3.425048 -1.6387,-1.52668 -1.82961,-2.233875 -0.90409,-3.349053 1.40294,-1.690443 3.35178,-1.907797 2.33354,-0.26026 -0.52709,0.852851 1.34689,0.994585 7.19098,0.543876 4.34712,-0.335259 8.91635,-0.90679 10.15385,-1.270069 1.70095,-0.499328 2.25,-0.251608 2.25,1.015141 0,1.024718 0.45448,1.394764 1.16994,0.952586 0.79765,-0.492974 0.95676,-0.167516 0.5,1.022771 -0.36847,0.960207 -0.66994,2.159028 -0.66994,2.664044 0,0.505017 -1.6875,0.971455 -3.75,1.036528 -3.64337,0.11495 -3.66469,0.136879 -0.75,0.771203 5.10459,1.110908 1.24021,2.048322 -7.89415,1.914948 -7.25972,-0.106002 -8.60165,-0.37303 -8.12442,-1.616667 z m 11.76857,-0.85008 c -0.6875,-0.277412 -1.8125,-0.277412 -2.5,0 -0.6875,0.277413 -0.125,0.504386 1.25,0.504386 1.375,0 1.9375,-0.226973 1.25,-0.504386 z m -1.48209,-2.052245 c -1.50265,-0.228174 -4.20265,-0.232767 -6,-0.0102 -1.79735,0.222556 -0.56791,0.409244 2.73209,0.414857 3.3,0.0056 4.77056,-0.176483 3.26791,-0.404657 z m -5.26791,-9.285474 c -0.33992,-0.55 -1.52897,-1 -2.64235,-1 -1.17508,0 -1.84946,-0.524395 -1.60751,-1.25 0.63569,-1.906428 18.69679,-1.715288 20.99986,0.222241 0.9625,0.809732 1.75,1.822232 1.75,2.25 0,1.156468 -17.77992,0.942878 -18.5,-0.222241 z m 4.57949,-4.871253 c -1.88128,-0.345811 -3.56991,-1.082135 -3.75251,-1.636275 -0.31202,-0.946909 15.58349,-0.838207 16.58969,0.113449 1.3735,1.299047 -8.00327,2.411378 -12.83718,1.522826 z m 8.78121,-6.246942 c -0.74838,-0.480182 -4.6232,-0.587957 -8.6107,-0.2395 -4.5474,0.397385 -7.25,0.264272 -7.25,-0.357091 0,-1.362968 20.58871,-2.615606 22.779042,-1.385901 1.45376,0.816176 1.48807,1.040455 0.22096,1.444525 -3.711352,1.183516 -5.878662,1.34683 -7.139302,0.537967 z m -11.24963,-4.705129 c -4.23476,-0.849872 -0.65911,-1.708756 8.3921,-2.015813 6.32327,-0.214514 9.996832,0.03409 9.996832,0.676526 0,0.963549 -14.866172,2.046268 -18.388932,1.339287 z m -6.58425,-4.160101 c -0.67942,-0.419904 3.56628,-1.090739 9.43488,-1.490743 10.6284,-0.724433 12.27731,-0.530588 11.14,1.309614 -0.70378,1.138744 -18.76811,1.297772 -20.57488,0.181129 z m 0.70623,-3.734465 c -5.73553,-0.866928 -1.59922,-1.769661 6.68171,-1.458257 4.94762,0.186055 8.36844,0.717925 8.0396,1.25 -0.56179,0.908986 -9.27029,1.032181 -14.72131,0.208257 z m 3.51695,-4.019352 c -4.97784,-0.348238 -6.74096,-1.494475 -4,-2.600477 0.6875,-0.277413 -0.8875,-0.539913 -3.5,-0.583334 -2.6125,-0.04342 -4.75,-0.462869 -4.75,-0.932108 0,-0.469238 2.1375,-0.735408 4.75,-0.591489 2.6125,0.143919 6.8875,0.302842 9.5,0.353161 5.13165,0.09884 6.48369,1.705299 2,2.376351 -2.71625,0.406528 -2.71318,0.412199 0.25,0.462042 5.66941,0.09536 6.5,0.255489 6.5,1.253096 0,0.55 -1.2375,0.916758 -2.75,0.815018 -1.5125,-0.101741 -5.1125,-0.350257 -8,-0.55226 z m -2,-7.005265 c -3.9875,-0.189811 -7.25105,-0.662898 -7.25233,-1.051303 -0.001,-0.388404 3.82371,-0.560627 8.5,-0.382716 4.67628,0.17791 8.50233,0.74041 8.50233,1.25 0,0.509589 -0.5625,0.837112 -1.25,0.727829 -0.6875,-0.109283 -4.5125,-0.353998 -8.5,-0.54381 z m 0.26091,-3.007377 c -15.55039,-0.511089 -14.21328,-2.250116 1.73007,-2.250116 8.0153,0 13.89587,0.41241 14.25902,1 0.33992,0.55 0.25398,1.037004 -0.19098,1.082231 -4.12377,0.419149 -7.16865,0.451507 -15.79811,0.167885 z"
     id="path25903"
     inkscape:connector-curvature="0" />
  <path
     style="fill:#b30000;fill-opacity:0.15841585;stroke:none"
     d="m 53.377119,15.699152 144.432201,-1.04661 -8.37288,52.592162 c 2.35943,26.791396 14.91905,49.502716 23.54873,73.786016 3.60825,16.22246 5.28735,32.44491 4.70975,48.66737 -4.81824,15.02198 -15.02224,26.81167 -28.96296,34.14217 -17.37507,9.13638 -39.39635,12.50424 -50.57942,20.01991 -5.50328,12.73649 -6.12272,25.11375 -6.49611,38.40404 -1.36094,48.44131 -4.05605,119.84031 3.35628,165.68494 20.40686,18.6249 43.30494,12.93114 66.98305,27.21187 -14.14613,5.47032 -27.91097,6.49208 -43.40016,7.19921 -35.56889,1.62384 -75.254777,1.56614 -104.443321,-1.2556 -11.884793,-1.14893 -20.770173,-1.12867 -27.46372,-6.46692 24.029626,-15.46087 63.276674,-8.14627 81.112291,-26.42691 4.58364,-2.77883 3.7336,-9.84057 3.82623,-14.91197 4.39193,-240.47309 0.29608,-136.88785 -1.47136,-188.91535 C 84.757152,223.76819 44.925937,222.64626 34.276483,182.11017 30.001909,156.97006 46.051477,124.20841 57.563559,93.148305 61.675071,60.529166 61.114901,33.680927 53.377119,15.699152 z"
     id="path25905"
     inkscape:connector-curvature="0"
     sodipodi:nodetypes="cccccscsccssccscccc" />
  <path
     style="fill:#5e0000;stroke:none;stroke-width:1px;stroke-linecap:butt;stroke-linejoin:miter;stroke-opacity:1;fill-opacity:0.74257426999999998;filter:url(#filter26419)"
     d="m 54.764821,173.92182 c 1.848828,-26.87049 19.019818,-9.16742 30.712704,-7.40065 16.503895,41.71747 60.110845,27.99688 96.948535,28.12248 -13.00674,10.30869 -27.95709,16.30426 -14.8013,24.79218 -54.49315,14.60485 -91.916173,-0.91406 -112.859939,-45.51401 z"
     id="path26417"
     inkscape:connector-curvature="0"
     sodipodi:nodetypes="ccccc" />
  <path
     style="fill:url(#linearGradient26443);stroke:none;stroke-width:1px;stroke-linecap:butt;stroke-linejoin:miter;stroke-opacity:1;fill-opacity:1;fill-rule:nonzero;filter:url(#filter26445)"
     d="m 147.04873,25.118644 33.49152,1.04661 c -5.07892,16.721389 -16.83831,25.426229 -15.17584,50.237288 26.73692,64.493568 30.0853,84.252838 26.16525,114.080508 -12.54952,26.79899 -31.32424,20.39689 -47.62076,27.21186 23.53108,-43.43432 -5.50429,-86.86864 -14.65254,-130.302961 -3.96676,-32.634825 8.52369,-45.521006 17.79237,-62.273305 z"
     id="path26423"
     inkscape:connector-curvature="0"
     sodipodi:nodetypes="ccccccc" />
</svg>
