<?xml version="1.0" encoding="UTF-8" standalone="no"?>
<!-- Created with Inkscape (http://www.inkscape.org/) -->

<svg
   xmlns:dc="http://purl.org/dc/elements/1.1/"
   xmlns:cc="http://creativecommons.org/ns#"
   xmlns:rdf="http://www.w3.org/1999/02/22-rdf-syntax-ns#"
   xmlns:svg="http://www.w3.org/2000/svg"
   xmlns="http://www.w3.org/2000/svg"
   xmlns:sodipodi="http://sodipodi.sourceforge.net/DTD/sodipodi-0.dtd"
   xmlns:inkscape="http://www.inkscape.org/namespaces/inkscape"
   width="353.0625"
   height="385.73245"
   id="svg3844"
   version="1.1"
   inkscape:version="0.48.2 r9819"
   sodipodi:docname="Body3.svg">
  <defs
     id="defs3846" />
  <sodipodi:namedview
     id="base"
     pagecolor="#ffffff"
     bordercolor="#666666"
     borderopacity="1.0"
     inkscape:pageopacity="0.0"
     inkscape:pageshadow="2"
     inkscape:zoom="0.98994949"
     inkscape:cx="194.38839"
     inkscape:cy="244.2948"
     inkscape:document-units="px"
     inkscape:current-layer="layer1"
     showgrid="false"
     fit-margin-top="0"
     fit-margin-left="0"
     fit-margin-right="0"
     fit-margin-bottom="0"
     inkscape:window-width="1107"
     inkscape:window-height="740"
     inkscape:window-x="24"
     inkscape:window-y="20"
     inkscape:window-maximized="0" />
  <metadata
     id="metadata3849">
    <rdf:RDF>
      <cc:Work
         rdf:about="">
        <dc:format>image/svg+xml</dc:format>
        <dc:type
           rdf:resource="http://purl.org/dc/dcmitype/StillImage" />
        <dc:title></dc:title>
      </cc:Work>
    </rdf:RDF>
  </metadata>
  <g
     inkscape:label="Layer 1"
     inkscape:groupmode="layer"
     id="layer1"
     transform="translate(-9.1830357,-105.21024)">
    <path
       style="fill:#000000;fill-opacity:1;stroke:#000000;stroke-opacity:1"
       d="m 172.55804,140.65567 c 0.90647,2.05439 4.37676,4.82061 4.53125,6.875 0.33294,4.42742 -2.22253,9.92079 -3.78125,12.5625 -5.75107,5.70799 -12.01756,6.29324 -18.4375,5.3125 -6.61414,-0.85155 -13.67626,-1.38661 -28.78125,3.78125 -7.38642,0.59638 -15.1144,1.10127 -24.5,1.03125 -12.507774,-1.22774 -22.472664,0.0911 -33.093754,0.75 -10.14001,0.67344 -19.53965,1.35781 -29.03125,2.03125 -14.42376,-5.14644 -23.4164,0.98204 -29.7812503,12.625 0.7106503,5.57794 5.0895803,-2.07791 7.8125003,-3.78125 -2.01192,3.49798 -2.81785,5.17803 -1.65625,8.1875 0.25212,0.65319 1.86616,0.36528 2.65625,-2.53125 0.84571,-3.10041 4.00814,-5.38056 5.5625,-3.90625 0.31499,1.48894 -3.45926,4.96648 -1.84375,5.40625 0.82527,0.22465 5.34965,-0.71723 10.03125,-5.625 5.14821,-3.97737 9.0571,-0.50586 12.03125,-1.8125 19.9653,5.93395 39.42533,10.47855 56.062504,7.09375 18.53298,2.30498 31.35892,1.97686 41.15625,0.25 3.60458,0.49719 7.15627,1.05084 6.8125,6.8125 1.85837,10.35085 4.07643,20.50988 8.59375,29.53125 1.28489,6.25472 5.12224,12.99462 3.78125,21.21875 l -4.03125,14.90625 c -5.59743,30.13633 -9.7477,60.57864 2.53125,94.6875 0.84646,7.57381 1.48455,15.26069 1,23.5 -1.65472,12.33256 -1.46805,27.78178 5.5625,54.8125 0.72097,6.18679 3.8032,24.91645 -3.03125,37.375 -1.78045,6.72859 -6.393,14.49271 2,17.40625 4.17,0.3944 9.0819,4.45885 11.375,-4.53125 3.22005,-5.64002 1.95735,-11.29748 2.78125,-16.9375 4.27683,-4.91444 4.19413,-9.38265 1.75,-13.625 -2.96048,-3.33414 -2.03014,-6.82798 -2,-10.59375 0.54265,-20.17771 4.6421,-41.39293 1,-60.375 2.11413,-14.01623 2.84078,-13.48164 3.03125,-19.1875 -1.23416,-17.27138 1.14431,-33.82158 3.03125,-50.46875 1.88753,16.65877 4.29751,33.21672 3.0625,50.5 0.19047,5.70586 0.91712,5.17127 3.03125,19.1875 -3.6421,18.98207 0.45735,40.19729 1,60.375 0.30611,5.17576 -0.25004,8.59822 -2,10.59375 -2.44413,4.24235 -2.52683,8.71056 1.75,13.625 0.8239,5.64002 -0.4388,11.29748 2.78125,16.9375 2.2931,8.9901 7.205,4.92565 11.375,4.53125 8.393,-2.91354 3.8117,-10.67766 2.03125,-17.40625 -6.83445,-12.45855 -3.75222,-31.18821 -3.03125,-37.375 7.03055,-27.03072 7.18597,-42.47994 5.53125,-54.8125 -0.48455,-8.23931 0.18479,-15.92619 1.03125,-23.5 12.27895,-34.10886 8.12868,-64.55117 2.53125,-94.6875 l -4.0625,-14.90625 c -1.34099,-8.22413 2.49636,-14.96403 3.78125,-21.21875 4.51732,-9.02137 6.73538,-19.1804 8.59375,-29.53125 -0.34377,-5.76166 3.20792,-6.31531 6.8125,-6.8125 9.79733,1.72686 22.65452,2.05498 41.1875,-0.25 16.63717,3.3848 36.0972,-1.1598 56.0625,-7.09375 2.97415,1.30664 6.88304,-2.16487 12.03125,1.8125 4.6816,4.90777 9.17473,5.84965 10,5.625 1.61551,-0.43977 -2.15874,-3.91731 -1.84375,-5.40625 1.55436,-1.47431 4.74804,0.80584 5.59375,3.90625 0.79009,2.89653 2.37288,3.18444 2.625,2.53125 1.1616,-3.00947 0.35567,-4.72077 -1.65625,-8.21875 2.72292,1.70334 7.1331,9.39044 7.84375,3.8125 -6.36485,-11.64296 -15.38874,-17.77144 -29.8125,-12.625 -9.4916,-0.67344 -18.89124,-1.35781 -29.03125,-2.03125 -10.62109,-0.65891 -20.58598,-1.97774 -33.09375,-0.75 -9.3856,0.07 -17.11358,-0.43487 -24.5,-1.03125 -15.10499,-5.16786 -22.16711,-4.6328 -28.78125,-3.78125 -6.41994,0.98074 -12.68643,0.39549 -18.4375,-5.3125 -1.55872,-2.64171 -4.08294,-8.13508 -3.75,-12.5625 0.15449,-2.05439 3.59353,-4.82061 4.5,-6.875 2.10591,-16.25349 4.31791,-34.96104 -13.125,-34.97667 -17.44291,-0.0156 -15.26216,18.69193 -13.15625,34.94542 z"
       id="path2996"
       inkscape:connector-curvature="0"
       sodipodi:nodetypes="csccccccccsscscccccccccccccccccccccccccccccccccccccccscssccccccccsccc" />
    <text
       xml:space="preserve"
       style="font-size:70.90328217px;font-style:normal;font-variant:normal;font-weight:normal;font-stretch:normal;text-align:start;line-height:125%;letter-spacing:0px;word-spacing:0px;writing-mode:lr-tb;text-anchor:start;fill:#ffffff;fill-opacity:1;stroke:none;font-family:quicksand;-inkscape-font-specification:quicksand"
       x="163.64906"
       y="261.75562"
       id="text4367"
       sodipodi:linespacing="125%"><tspan
         sodipodi:role="line"
         id="tspan4369"
         x="163.64906"
         y="261.75562">4</tspan></text>
  </g>
</svg>
