<?xml version="1.0" encoding="UTF-8" standalone="no"?>
<!-- Created with Inkscape (http://www.inkscape.org/) -->

<svg
   xmlns:dc="http://purl.org/dc/elements/1.1/"
   xmlns:cc="http://creativecommons.org/ns#"
   xmlns:rdf="http://www.w3.org/1999/02/22-rdf-syntax-ns#"
   xmlns:svg="http://www.w3.org/2000/svg"
   xmlns="http://www.w3.org/2000/svg"
   xmlns:sodipodi="http://sodipodi.sourceforge.net/DTD/sodipodi-0.dtd"
   xmlns:inkscape="http://www.inkscape.org/namespaces/inkscape"
   width="744.09448819"
   height="1052.3622047"
   id="svg11829"
   version="1.1"
   inkscape:version="0.48.2 r9819"
   sodipodi:docname="Creative.svg">
  <defs
     id="defs11831" />
  <sodipodi:namedview
     id="base"
     pagecolor="#ffffff"
     bordercolor="#666666"
     borderopacity="1.0"
     inkscape:pageopacity="0.0"
     inkscape:pageshadow="2"
     inkscape:zoom="0.49497475"
     inkscape:cx="454.79695"
     inkscape:cy="675.88126"
     inkscape:document-units="px"
     inkscape:current-layer="layer1"
     showgrid="false"
     inkscape:window-width="932"
     inkscape:window-height="756"
     inkscape:window-x="345"
     inkscape:window-y="0"
     inkscape:window-maximized="0" />
  <metadata
     id="metadata11834">
    <rdf:RDF>
      <cc:Work
         rdf:about="">
        <dc:format>image/svg+xml</dc:format>
        <dc:type
           rdf:resource="http://purl.org/dc/dcmitype/StillImage" />
        <dc:title></dc:title>
      </cc:Work>
    </rdf:RDF>
  </metadata>
  <g
     inkscape:label="Layer 1"
     inkscape:groupmode="layer"
     id="layer1">
    <path
       style="color:#000000;fill:#000000;fill-opacity:1;stroke:none;stroke-width:3.5999999;marker:none;visibility:visible;display:inline;overflow:visible;enable-background:accumulate"
       d="M 603.5625,153.7812 151.4375,154.5 c -12.73083,0.51837 -28.73742,20.95945 -28.5625,36.4375 l 2.84375,292.84375 -8.5625,5.71875 c -1.43696,6.19048 -2.32679,12.37202 0,18.5625 l 8.5625,2.875 0,22.84375 -8.5625,4.28125 c -2.85714,4.7619 -2.85714,9.5506 0,14.3125 l 6.40625,4.28125 -7.125,261.40625 c 0.5997,8.31086 4.1841,9.16713 8.5625,8.03125 l 454.41719,-4.33281 c 11.73316,0.43415 11.71877,-3.81636 14.28125,-10.71875 22.7216,1.10067 35.29876,-8.09598 33.45781,-27.26094 l -1.4375,-592.84375 c -0.64924,-25.7581 -2.69963,-38.02181 -22.15625,-37.1563 z M 605,158.09375 c 14.43195,-1.0118 15.14738,16.45088 14.3125,30.6875 l 1.53125,217.96875 -17.28125,7.75 -2.125,78.5625 -9.7289,-0.44765 1.32186,-279.94845 c 2.15937,-20.48626 -6.76527,-21.80896 -17.31171,-21.7289 l -445,0.71875 c 0.0608,-16.13122 8.05466,-27.90962 21.4375,-30.71875 z M 601.4375,514.5 600,529.5 l -6.9375,0 -0.125,-11.8125 z m -8.21875,33.5625 8.21875,0 0,30 20.625,1.25 1.4375,203.09375 c -1.9168,19.84692 -13.0651,26.57778 -29.80156,23.63594 z"
       id="path11848"
       inkscape:connector-curvature="0"
       sodipodi:nodetypes="ccccccccccccccccccccccccccccccccccccccccc" />
    <text
       xml:space="preserve"
       style="font-size:103.81970978px;font-style:normal;font-variant:normal;font-weight:normal;font-stretch:normal;text-align:start;line-height:125%;letter-spacing:0px;word-spacing:0px;writing-mode:lr-tb;text-anchor:start;fill:#ffffff;fill-opacity:1;stroke:none;font-family:Quicksand;-inkscape-font-specification:Quicksand"
       x="273.36417"
       y="702.84937"
       id="text12402"
       sodipodi:linespacing="125%"><tspan
         sodipodi:role="line"
         id="tspan12404"
         x="273.36417"
         y="702.84937"
         style="font-size:556.17700195px">1</tspan></text>
  </g>
</svg>
