<?xml version="1.0" encoding="UTF-8" standalone="no"?>
<!-- Created with Inkscape (http://www.inkscape.org/) -->

<svg
   xmlns:dc="http://purl.org/dc/elements/1.1/"
   xmlns:cc="http://creativecommons.org/ns#"
   xmlns:rdf="http://www.w3.org/1999/02/22-rdf-syntax-ns#"
   xmlns:svg="http://www.w3.org/2000/svg"
   xmlns="http://www.w3.org/2000/svg"
   xmlns:sodipodi="http://sodipodi.sourceforge.net/DTD/sodipodi-0.dtd"
   xmlns:inkscape="http://www.inkscape.org/namespaces/inkscape"
   width="193.08405"
   height="319.64322"
   id="svg8724"
   version="1.1"
   inkscape:version="0.48.2 r9819"
   sodipodi:docname="Calipers.svg">
  <defs
     id="defs8726" />
  <sodipodi:namedview
     id="base"
     pagecolor="#ffffff"
     bordercolor="#666666"
     borderopacity="1.0"
     inkscape:pageopacity="0.0"
     inkscape:pageshadow="2"
     inkscape:zoom="0.7"
     inkscape:cx="96.480517"
     inkscape:cy="216.6043"
     inkscape:document-units="px"
     inkscape:current-layer="layer1"
     showgrid="false"
     inkscape:window-width="1229"
     inkscape:window-height="686"
     inkscape:window-x="24"
     inkscape:window-y="20"
     inkscape:window-maximized="0"
     fit-margin-top="0"
     fit-margin-left="0"
     fit-margin-right="0"
     fit-margin-bottom="0" />
  <metadata
     id="metadata8729">
    <rdf:RDF>
      <cc:Work
         rdf:about="">
        <dc:format>image/svg+xml</dc:format>
        <dc:type
           rdf:resource="http://purl.org/dc/dcmitype/StillImage" />
        <dc:title></dc:title>
      </cc:Work>
    </rdf:RDF>
  </metadata>
  <g
     inkscape:label="Layer 1"
     inkscape:groupmode="layer"
     id="layer1"
     transform="translate(-144.86012,-333.17093)">
    <path
       style="fill:#000000;fill-opacity:1;stroke:none"
       d="m 234.76871,333.40554 c -27.60904,2.70679 -27.88833,38.91593 -11.38785,52.17571 l -0.0501,54.29944 c -1.10243,14.07777 -11.16762,26.44802 -22.98402,38.46107 -31.22705,29.28483 -56.8512,60.32725 -55.43023,96.07071 0.91015,22.8939 18.21595,72.85406 78.73282,78.40169 7.38708,-1.41518 4.80535,-6.11815 1.95418,-6.86344 -50.89611,0.69038 -66.4051,-49.5747 -68.1339,-70.82031 -2.74445,-33.72713 30.40233,-66.64248 53.10583,-87.76006 11.55452,-9.22604 19.68913,-23.71847 27.38109,-38.88353 8.38699,14.55481 18.22046,28.58224 30.06114,37.10448 23.72975,19.95745 58.47893,51.17642 57.42219,84.99853 -0.66567,21.30543 -13.64513,72.28229 -64.51221,74.13446 -2.81039,0.88674 -5.1228,5.71199 2.32573,6.75651 60.16433,-8.56284 74.92234,-59.32411 74.68806,-82.2349 -0.36578,-35.76983 -27.50817,-65.49388 -60.15871,-93.18273 -12.40156,-11.40796 -23.04072,-23.26092 -24.8448,-37.26606 l -0.55357,-10.89583 c 10.44715,2.67348 12.00847,0.97124 18.77772,0.875 l -0.11318,-4.52983 52.25245,-1.80567 c 5.04006,5.55137 8.73424,1.19969 8.24044,-2.98802 -1.27497,-4.04509 -6.95097,-4.97266 -8.86675,-0.81002 l -51.97675,1.57997 -0.37012,-4.80476 c -5.84426,0.15892 -11.146,-0.86256 -18.47552,2.46223 l -1.70756,-33.31149 c 19.21186,-13.84358 7.69023,-54.86017 -15.37645,-51.16315 z m 0.32167,6.61903 c 18.90072,-0.46073 30.36283,24.03486 13.81387,37.41664 l -0.27635,-8.55827 c -1.7657,-2.12858 -3.74116,-3.69588 -6.1363,-4.12927 -1.53479,0.90657 -2.84348,4.50025 -3.24283,6.58305 -2.53031,-1.20753 -3.74565,-0.91729 -5.64591,0.48492 -0.50286,-2.06026 -1.98938,-5.5841 -3.56753,-6.41289 -2.37051,0.55246 -4.26523,2.21645 -5.92244,4.43056 l 0.18268,8.56061 c -16.99497,-12.39166 -7.66942,-37.32442 10.79486,-38.37535 z"
       id="path8743"
       inkscape:connector-curvature="0"
       sodipodi:nodetypes="ccccsccscccsccsccccccccccccccccccccccc" />
    <text
       xml:space="preserve"
       style="font-size:183.62454224px;font-style:normal;font-variant:normal;font-weight:normal;font-stretch:normal;text-align:start;line-height:125%;letter-spacing:0px;word-spacing:0px;writing-mode:lr-tb;text-anchor:start;fill:#000000;fill-opacity:1;stroke:none;font-family:Quicksand;-inkscape-font-specification:Quicksand"
       x="208.13504"
       y="620.93359"
       id="text9337"
       sodipodi:linespacing="125%"><tspan
         sodipodi:role="line"
         id="tspan9339"
         x="208.13504"
         y="620.93359">1</tspan></text>
  </g>
</svg>
