<?xml version="1.0" encoding="UTF-8" standalone="no"?>
<!-- Created with Inkscape (http://www.inkscape.org/) -->

<svg
   xmlns:dc="http://purl.org/dc/elements/1.1/"
   xmlns:cc="http://creativecommons.org/ns#"
   xmlns:rdf="http://www.w3.org/1999/02/22-rdf-syntax-ns#"
   xmlns:svg="http://www.w3.org/2000/svg"
   xmlns="http://www.w3.org/2000/svg"
   xmlns:sodipodi="http://sodipodi.sourceforge.net/DTD/sodipodi-0.dtd"
   xmlns:inkscape="http://www.inkscape.org/namespaces/inkscape"
   width="193.10938"
   height="319.19519"
   id="svg8724"
   version="1.1"
   inkscape:version="0.48.2 r9819"
   sodipodi:docname="Calipers1.svg">
  <defs
     id="defs8726" />
  <sodipodi:namedview
     id="base"
     pagecolor="#ffffff"
     bordercolor="#666666"
     borderopacity="1.0"
     inkscape:pageopacity="0.0"
     inkscape:pageshadow="2"
     inkscape:zoom="0.7"
     inkscape:cx="99.873377"
     inkscape:cy="214.63929"
     inkscape:document-units="px"
     inkscape:current-layer="layer1"
     showgrid="false"
     inkscape:window-width="1229"
     inkscape:window-height="686"
     inkscape:window-x="24"
     inkscape:window-y="20"
     inkscape:window-maximized="0"
     fit-margin-top="0"
     fit-margin-left="0"
     fit-margin-right="0"
     fit-margin-bottom="0" />
  <metadata
     id="metadata8729">
    <rdf:RDF>
      <cc:Work
         rdf:about="">
        <dc:format>image/svg+xml</dc:format>
        <dc:type
           rdf:resource="http://purl.org/dc/dcmitype/StillImage" />
        <dc:title></dc:title>
      </cc:Work>
    </rdf:RDF>
  </metadata>
  <g
     inkscape:label="Layer 1"
     inkscape:groupmode="layer"
     id="layer1"
     transform="translate(-141.46726,-331.65396)">
    <path
       style="fill:#000000;fill-opacity:1;stroke:none"
       d="m 237.35974,331.82118 c -27.66838,2.0116 -28.85821,38.20227 -12.69642,51.87282 l -1.41566,54.28101 c -1.45613,14.04559 -11.82924,26.15879 -23.94401,37.87087 -31.95366,28.49024 -58.35039,58.87841 -57.82879,94.64631 0.3341,22.90955 16.37798,73.28913 76.73619,80.35695 7.42033,-1.22895 4.9577,-5.99536 2.12617,-6.81213 -50.89738,-0.58983 -65.13734,-51.22904 -66.33128,-72.51141 -1.89539,-33.78548 32.0687,-65.85681 55.29611,-86.39674 11.78289,-8.93253 20.2794,-23.2158 28.35032,-38.18263 8.01829,14.76114 17.49587,29.03143 29.11849,37.84876 23.22032,20.54792 57.17339,52.63093 55.26639,86.41576 -1.20128,21.28195 -15.45865,71.91627 -66.35622,72.48859 -2.8318,0.81578 -5.26483,5.58135 2.15508,6.81286 60.36064,-7.04705 76.39059,-57.42111 76.73256,-80.33055 0.53391,-35.76771 -25.85235,-66.16498 -57.79623,-94.6662 -12.11073,-11.71623 -22.44843,-23.83301 -23.89973,-37.87909 l -0.27937,-10.9063 c 10.3766,2.93536 11.98024,1.27293 18.74977,1.34696 l 8.3e-4,-4.53124 52.28133,-0.491 c 4.89886,5.67636 8.70131,1.41897 8.31298,-2.77984 -1.17283,-4.07587 -6.82371,-5.1459 -8.84357,-1.03275 l -52.00005,0.2723 -0.24916,-4.81255 c -5.84641,0.0119 -11.12079,-1.1426 -18.53161,1.99681 l -0.86926,-33.34389 c 19.55394,-13.35604 9.06748,-54.64943 -14.08488,-51.53368 z m 0.15514,6.62503 c 18.90633,0.0147 29.74878,24.79086 12.86852,37.75221 l -0.061,-8.56251 c -1.71161,-2.17231 -3.64703,-3.7888 -6.03051,-4.28229 -1.55711,0.86769 -2.95576,4.42732 -3.40737,6.49941 -2.49913,-1.27078 -3.72139,-1.01119 -5.65631,0.34278 -0.45089,-2.07225 -1.84831,-5.63236 -3.40513,-6.50058 -2.38365,0.49267 -4.31962,2.10848 -6.03199,4.28022 l -0.0327,8.5625 c -16.67795,-12.81515 -6.72832,-37.5055 11.75655,-38.09174 z"
       id="path8743"
       inkscape:connector-curvature="0"
       sodipodi:nodetypes="ccccsccscccsccsccccccccccccccccccccccc" />
    <text
       xml:space="preserve"
       style="font-size:183.62454224px;font-style:normal;font-variant:normal;font-weight:normal;font-stretch:normal;text-align:start;line-height:125%;letter-spacing:0px;word-spacing:0px;writing-mode:lr-tb;text-anchor:start;fill:#000000;fill-opacity:1;stroke:none;font-family:Quicksand;-inkscape-font-specification:Quicksand"
       x="175.07074"
       y="628.35675"
       id="text9337"
       sodipodi:linespacing="125%"
       transform="matrix(0.99966647,-0.02582553,0.02582553,0.99966647,0,0)"><tspan
         sodipodi:role="line"
         id="tspan9339"
         x="175.07074"
         y="628.35675">2</tspan></text>
  </g>
</svg>
