<?xml version="1.0" encoding="UTF-8" standalone="no"?>
<!-- Created with Inkscape (http://www.inkscape.org/) -->

<svg
   xmlns:dc="http://purl.org/dc/elements/1.1/"
   xmlns:cc="http://creativecommons.org/ns#"
   xmlns:rdf="http://www.w3.org/1999/02/22-rdf-syntax-ns#"
   xmlns:svg="http://www.w3.org/2000/svg"
   xmlns="http://www.w3.org/2000/svg"
   xmlns:sodipodi="http://sodipodi.sourceforge.net/DTD/sodipodi-0.dtd"
   xmlns:inkscape="http://www.inkscape.org/namespaces/inkscape"
   width="744.09448819"
   height="1052.3622047"
   id="svg8724"
   version="1.1"
   inkscape:version="0.48.2 r9819"
   sodipodi:docname="New document 14">
  <defs
     id="defs8726" />
  <sodipodi:namedview
     id="base"
     pagecolor="#ffffff"
     bordercolor="#666666"
     borderopacity="1.0"
     inkscape:pageopacity="0.0"
     inkscape:pageshadow="2"
     inkscape:zoom="1.4"
     inkscape:cx="255.1559"
     inkscape:cy="636.96813"
     inkscape:document-units="px"
     inkscape:current-layer="layer1"
     showgrid="false"
     inkscape:window-width="1229"
     inkscape:window-height="686"
     inkscape:window-x="24"
     inkscape:window-y="20"
     inkscape:window-maximized="0" />
  <metadata
     id="metadata8729">
    <rdf:RDF>
      <cc:Work
         rdf:about="">
        <dc:format>image/svg+xml</dc:format>
        <dc:type
           rdf:resource="http://purl.org/dc/dcmitype/StillImage" />
        <dc:title></dc:title>
      </cc:Work>
    </rdf:RDF>
  </metadata>
  <g
     inkscape:label="Layer 1"
     inkscape:groupmode="layer"
     id="layer1">
    <path
       style="fill:#000000;stroke:none;stroke-width:1px;stroke-linecap:butt;stroke-linejoin:miter;stroke-opacity:1;fill-opacity:1"
       d="M 241.5 333.09375 C 240.51777 333.05231 239.6093 333.13242 238.75 333.34375 L 238.75 333.4375 C 224.72326 331.03924 194.81654 360.84879 226.0625 385.21875 L 224.65625 439.5 C 223.20254 453.54584 212.83151 465.66083 200.71875 477.375 C 168.76999 505.87072 142.37849 536.26344 142.90625 572.03125 C 143.24429 594.94074 159.29682 645.31756 219.65625 652.375 C 227.07637 651.14476 224.61291 646.37877 221.78125 645.5625 C 170.88378 644.98143 156.63511 594.34466 155.4375 573.0625 C 153.53631 539.27734 187.49488 507.20017 210.71875 486.65625 C 222.50011 477.72169 230.99415 463.43696 239.0625 448.46875 C 247.08334 463.22851 256.56337 477.49718 268.1875 486.3125 C 291.41137 506.85642 325.36994 538.93359 323.46875 572.71875 C 322.27114 594.00091 308.02247 644.63768 257.125 645.21875 C 254.29334 646.03502 251.86113 650.80101 259.28125 652.03125 C 319.64068 644.97381 335.66196 594.59699 336 571.6875 C 336.52776 535.91969 310.13626 505.52697 278.1875 477.03125 C 266.07474 465.31708 255.73496 453.20209 254.28125 439.15625 L 254 428.25 C 264.37711 431.18359 265.98046 429.52088 272.75 429.59375 L 272.75 425.0625 L 325.03125 424.5625 C 329.93108 430.23803 333.7328 425.97999 333.34375 421.78125 C 332.17021 417.70557 326.51915 416.63652 324.5 420.75 L 272.5 421.03125 L 272.25 416.21875 C 266.4036 416.23167 261.12903 415.07807 253.71875 418.21875 L 252.84375 384.875 C 282.55846 361.69932 256.2334 333.7154 241.5 333.09375 z M 238.90625 339.96875 C 257.81258 339.98027 268.65928 364.75449 251.78125 377.71875 L 251.71875 369.15625 C 250.00676 366.98422 248.07106 365.36808 245.6875 364.875 C 244.13054 365.74295 242.7325 369.30282 242.28125 371.375 C 241.38738 370.88239 240.20154 370.37245 238.6875 370.5 L 238.6875 370.625 C 237.81698 370.80569 237.30272 371.34526 236.625 371.71875 C 236.17375 369.64657 234.77571 366.0867 233.21875 365.21875 C 230.83519 365.71183 228.89949 367.32797 227.1875 369.5 L 227.15625 378.0625 C 210.47609 365.25023 220.42149 340.55817 238.90625 339.96875 z "
       id="path8743" />
  </g>
</svg>
