<?xml version="1.0" encoding="UTF-8" standalone="no"?>
<!-- Created with Inkscape (http://www.inkscape.org/) -->

<svg
   xmlns:dc="http://purl.org/dc/elements/1.1/"
   xmlns:cc="http://creativecommons.org/ns#"
   xmlns:rdf="http://www.w3.org/1999/02/22-rdf-syntax-ns#"
   xmlns:svg="http://www.w3.org/2000/svg"
   xmlns="http://www.w3.org/2000/svg"
   xmlns:sodipodi="http://sodipodi.sourceforge.net/DTD/sodipodi-0.dtd"
   xmlns:inkscape="http://www.inkscape.org/namespaces/inkscape"
   width="744.09448819"
   height="1052.3622047"
   id="svg14142"
   version="1.1"
   inkscape:version="0.48.2 r9819"
   sodipodi:docname="Hand.svg">
  <defs
     id="defs14144" />
  <sodipodi:namedview
     id="base"
     pagecolor="#ffffff"
     bordercolor="#666666"
     borderopacity="1.0"
     inkscape:pageopacity="0.0"
     inkscape:pageshadow="2"
     inkscape:zoom="0.7"
     inkscape:cx="334.5939"
     inkscape:cy="217.54896"
     inkscape:document-units="px"
     inkscape:current-layer="layer1"
     showgrid="false"
     inkscape:window-width="893"
     inkscape:window-height="735"
     inkscape:window-x="367"
     inkscape:window-y="0"
     inkscape:window-maximized="0" />
  <metadata
     id="metadata14147">
    <rdf:RDF>
      <cc:Work
         rdf:about="">
        <dc:format>image/svg+xml</dc:format>
        <dc:type
           rdf:resource="http://purl.org/dc/dcmitype/StillImage" />
        <dc:title></dc:title>
      </cc:Work>
    </rdf:RDF>
  </metadata>
  <g
     inkscape:label="Layer 1"
     inkscape:groupmode="layer"
     id="layer1">
    <path
       style="color:#000000;fill:#000000;stroke:none;stroke-width:3.59999989999999981;stroke-linecap:butt;stroke-linejoin:miter;stroke-miterlimit:4;stroke-opacity:1;stroke-dasharray:none;stroke-dashoffset:0;marker:none;visibility:visible;display:inline;overflow:visible;enable-background:accumulate;fill-opacity:1"
       d="m 196.47467,782.14638 c 1.71797,22.30879 24.73054,28.51633 47.98225,25.25381 11.15806,8.00564 18.13591,12.70161 25.25381,12.62691 3.93759,11.28004 6.96178,22.56007 18.68782,33.84011 10.00048,21.22604 -5.80523,54.68609 5.55585,65.15484 -8.51266,-1.69426 -25.13799,-28.92538 -34.85027,-41.41626 -7.40381,-19.80373 -1.95401,-50.22567 -37.88072,-46.46701 1.20276,16.3308 1.96712,32.66159 0.50507,48.99239 1.49119,26.91144 25.75362,45.3227 30.30458,70.71068 24.19842,23.40702 47.80298,55.72195 73.23606,60.60915 16.3308,14.0363 32.6616,28.1784 48.9924,40.9112 38.00759,-28.7377 72.42345,-42.5954 101.01525,-32.3249 -20.40046,-18.6987 -42.20046,-37.92226 -73.23606,-60.60915 -8.14156,-8.87235 -12.79527,-59.599 -19.1929,-89.3985 1.89017,-17.12008 -2.59157,-26.95797 -10.10152,-33.33504 -7.71796,-23.31597 4.7221,-31.09082 -42.42641,-60.60915 -13.89786,-7.23943 -28.26707,-14.47885 -40.91118,-21.71828 -8.90496,11.61074 -0.0576,17.30404 6.566,23.73859 -10.4686,-0.45042 -17.72898,-0.7817 -27.7792,4.54568 -11.2966,-6.32863 -21.3389,-5.1315 -31.31473,-3.53553 -11.92524,2.30056 -29.82725,3.42267 -40.4061,3.03046 z"
       id="path14161"
       inkscape:connector-curvature="0"
       sodipodi:nodetypes="ccccccccccccccccccccc" />
    <text
       xml:space="preserve"
       style="font-size:426.52285767px;font-style:normal;font-variant:normal;font-weight:normal;font-stretch:normal;text-align:start;line-height:125%;letter-spacing:0px;word-spacing:0px;writing-mode:lr-tb;text-anchor:start;fill:#000000;fill-opacity:1;stroke:none;font-family:Quicksand;-inkscape-font-specification:Quicksand"
       x="-365.04791"
       y="870.2619"
       id="text15247"
       sodipodi:linespacing="125%"
       transform="matrix(0.81958557,-0.5729568,0.5729568,0.81958557,0,0)"><tspan
         sodipodi:role="line"
         id="tspan15249"
         x="-365.04791"
         y="870.2619">1</tspan></text>
  </g>
</svg>
