<?xml version="1.0" encoding="UTF-8" standalone="no"?>
<!-- Created with Inkscape (http://www.inkscape.org/) -->

<svg
   xmlns:dc="http://purl.org/dc/elements/1.1/"
   xmlns:cc="http://creativecommons.org/ns#"
   xmlns:rdf="http://www.w3.org/1999/02/22-rdf-syntax-ns#"
   xmlns:svg="http://www.w3.org/2000/svg"
   xmlns="http://www.w3.org/2000/svg"
   xmlns:sodipodi="http://sodipodi.sourceforge.net/DTD/sodipodi-0.dtd"
   xmlns:inkscape="http://www.inkscape.org/namespaces/inkscape"
   id="svg22662"
   version="1.1"
   inkscape:version="0.48.4 r9939"
   width="261"
   height="472"
   sodipodi:docname="Antitoxin.png">
  <metadata
     id="metadata22668">
    <rdf:RDF>
      <cc:Work
         rdf:about="">
        <dc:format>image/svg+xml</dc:format>
        <dc:type
           rdf:resource="http://purl.org/dc/dcmitype/StillImage" />
        <dc:title></dc:title>
      </cc:Work>
    </rdf:RDF>
  </metadata>
  <defs
     id="defs22666">
    <filter
       id="filter23344"
       y="-0.25"
       height="1.5"
       inkscape:menu-tooltip="Darkens the edge with an inner blur and adds a flexible glow"
       inkscape:menu="Shadows and Glows"
       inkscape:label="Dark and Glow"
       color-interpolation-filters="sRGB"
       x="-0.29000000000000015"
       width="1.6800000000000004">
      <feGaussianBlur
         id="feGaussianBlur23346"
         stdDeviation="5"
         result="result6" />
      <feComposite
         id="feComposite23348"
         in2="result6"
         result="result8"
         in="SourceGraphic"
         operator="atop" />
      <feComposite
         id="feComposite23350"
         in2="SourceAlpha"
         result="result9"
         operator="over"
         in="result8" />
      <feColorMatrix
         id="feColorMatrix23352"
         values="1 0 0 0 0 0 1 0 0 0 0 0 1 0 0 0 0 0 1 0 "
         result="result10" />
      <feBlend
         id="feBlend23354"
         in2="result6"
         in="result10"
         mode="normal" />
    </filter>
    <filter
       id="filter23356"
       y="-0.25"
       height="1.5"
       inkscape:menu-tooltip="Darkens the edge with an inner blur and adds a flexible glow"
       inkscape:menu="Shadows and Glows"
       inkscape:label="Dark and Glow"
       color-interpolation-filters="sRGB"
       x="-0.4600000000000003"
       width="1.7700000000000005">
      <feGaussianBlur
         id="feGaussianBlur23358"
         stdDeviation="5"
         result="result6" />
      <feComposite
         id="feComposite23360"
         in2="result6"
         result="result8"
         in="SourceGraphic"
         operator="atop" />
      <feComposite
         id="feComposite23362"
         in2="SourceAlpha"
         result="result9"
         operator="over"
         in="result8" />
      <feColorMatrix
         id="feColorMatrix23364"
         values="1 0 0 0 0 0 1 0 0 0 0 0 1 0 0 0 0 0 1 0 "
         result="result10" />
      <feBlend
         id="feBlend23366"
         in2="result6"
         in="result10"
         mode="normal" />
    </filter>
    <filter
       id="filter23368"
       y="-0.26000000000000001"
       height="1.51"
       inkscape:menu-tooltip="Darkens the edge with an inner blur and adds a flexible glow"
       inkscape:menu="Shadows and Glows"
       inkscape:label="Dark and Glow"
       color-interpolation-filters="sRGB"
       width="2.069999999999999"
       x="-0.49000000000000032">
      <feGaussianBlur
         id="feGaussianBlur23370"
         stdDeviation="17.439449541284404"
         result="result6" />
      <feComposite
         id="feComposite23372"
         in2="result6"
         result="result8"
         in="SourceGraphic"
         operator="atop" />
      <feComposite
         id="feComposite23374"
         in2="SourceAlpha"
         result="result9"
         operator="over"
         in="result8" />
      <feColorMatrix
         id="feColorMatrix23376"
         values="1 0 0 0 0 0 1 0 0 0 0 0 1 0 0 0 0 0 1 0 "
         result="result10" />
      <feBlend
         id="feBlend23378"
         in2="result6"
         in="result10"
         mode="normal" />
    </filter>
  </defs>
  <sodipodi:namedview
     pagecolor="#ffffff"
     bordercolor="#666666"
     borderopacity="1"
     objecttolerance="10"
     gridtolerance="10"
     guidetolerance="10"
     inkscape:pageopacity="0"
     inkscape:pageshadow="2"
     inkscape:window-width="1199"
     inkscape:window-height="724"
     id="namedview22664"
     showgrid="false"
     inkscape:zoom="1.4142136"
     inkscape:cx="67.963203"
     inkscape:cy="37.779762"
     inkscape:window-x="1"
     inkscape:window-y="22"
     inkscape:window-maximized="0"
     inkscape:current-layer="svg22662"
     showguides="true"
     inkscape:guide-bbox="true" />
  <path
     style="fill:#b9af05;stroke:none;stroke-width:1px;stroke-linecap:butt;stroke-linejoin:miter;stroke-opacity:1;fill-opacity:0.68298972"
     d="m 37,190.75 5.75,-5.25 5.5,-0.75 0,4.5 -6.25,2.75 1,5.25 1,5 -4.25,-2 -3.75,-4 z"
     id="path23388"
     inkscape:connector-curvature="0" />
  <path
     style="fill:#b9af05;stroke:none;stroke-width:1px;stroke-linecap:butt;stroke-linejoin:miter;stroke-opacity:1;fill-opacity:0.68298972000000002"
     d="m 104.25,199.75 9,-4.75 -0.5,4.25 -6.25,2.25 z"
     id="path23386"
     inkscape:connector-curvature="0" />
  <path
     style="fill:#b9af05;stroke:none;stroke-width:1px;stroke-linecap:butt;stroke-linejoin:miter;stroke-opacity:1;fill-opacity:0.68298972"
     d="m 102.75,187 0,-4.25 9,-2.5 4.25,6 -1.25,3.25 -6,-3 z"
     id="path23384"
     inkscape:connector-curvature="0" />
  <path
     style="fill:#038ad2;fill-opacity:0.35643567999999998;stroke:none;filter:url(#filter23344)"
     d="m 52,318.75 c 16.905249,-6.56542 49.45456,-11.32576 50.25,-19.75 4.1667,-19.41667 0,-38.83333 0,-58.25 -17.583333,7.67382 -35.166667,6.96107 -52.75,2 z"
     id="path23194"
     inkscape:connector-curvature="0"
     sodipodi:nodetypes="ccccc" />
  <path
     style="fill:#038ad2;fill-opacity:0.35643567999999998;stroke:none;filter:url(#filter23356)"
     d="m 49,377 1,-35.25 c 11.656417,-12.78632 36.718094,-14.40159 55.5,-21.25 l -1.75,31.75 z"
     id="path23192"
     inkscape:connector-curvature="0"
     sodipodi:nodetypes="ccccc" />
  <path
     style="fill:#038ad2;fill-opacity:0.35643567999999998;stroke:none;filter:url(#filter23368)"
     d="m 48.75,403 2,-6.75 53,-24.5 1.5,15.5 -1.5,46.5 c -4.92095,7.83623 -2.30149,18.02687 -26,20 -9.046455,-3.16137 -17.836548,0.0863 -27.5,-18.5 z"
     id="path23190"
     inkscape:connector-curvature="0"
     sodipodi:nodetypes="cccccccc" />
  <path
     style="fill:#000000"
     d="m 66.734946,453.79805 c -5.057649,-2.34683 -14.640991,-11.46926 -16.062947,-15.29039 -1.974877,-5.30696 -2.053218,-5.95029 -2.571889,-21.11967 -0.143872,-4.20767 -0.64823,-5.91803 -1.893492,-6.42102 -4.255531,-1.71888 -9.307354,-11.0198 -8.896309,-16.37899 0.214383,-2.79513 4.743775,-12.00434 7.775547,-15.80932 2.417185,-3.03365 2.807363,-4.48401 3.44586,-12.80873 l 0.720028,-9.38772 -3.642973,-3.92882 c -4.932081,-5.31908 -6.358534,-9.51073 -5.784324,-16.99728 0.374332,-4.88053 1.101617,-7.14019 3.333103,-10.35591 1.569853,-2.26228 3.79628,-4.52809 4.947598,-5.03514 1.270967,-0.55975 1.950595,-1.59836 1.730001,-2.64383 -0.199819,-0.94707 -0.393539,-8.04275 -0.430478,-15.7682 -0.03694,-7.72545 -0.150284,-14.95529 -0.251887,-16.06631 -0.101603,-1.11103 -0.07413,-3.89927 0.06104,-6.19609 0.186505,-3.16915 -0.1948,-4.35401 -1.581477,-4.91411 -3.430091,-1.38549 -11.451818,-11.91731 -13.899688,-18.24909 -3.254886,-8.41924 -4.648419,-19.66128 -3.305027,-26.66256 1.402772,-7.31074 5.99878,-15.11072 11.704681,-19.86424 4.232519,-3.52607 4.514665,-4.01852 3.188461,-5.56505 -0.80022,-0.93317 -2.320157,-1.76304 -3.377631,-1.84414 -1.057475,-0.0811 -4.242382,-2.83079 -7.077559,-6.11039 -4.281055,-4.95214 -5.018361,-6.37148 -4.349577,-8.37314 0.644,-1.92749 0.346941,-2.62592 -1.48322,-3.48723 -3.281149,-1.54418 -7.801648,-10.57726 -9.019707,-18.02365 -1.919014,-11.73146 1.697648,-37.23299 6.285514,-44.50445 8.292021,-15.67853 11.184497,-20.47359 18.017685,-25.577858 2.540975,-2.178952 7.054435,-4.544736 11.265088,-5.904712 20.805578,-5.499966 -3.246991,-0.803274 42.426714,-10.014603 20.441319,-4.125673 30.992389,-6.738336 34.248849,-8.480723 6.03398,-3.22851 9.48866,-4.230633 16.70935,-4.847008 8.64374,-0.73785 12.94599,1.229061 17.2926,7.905868 6.48458,9.960915 7.75257,11.172539 11.3495,10.844967 8.28708,-0.754704 18.66054,-2.306119 20.78388,-3.108361 1.28797,-0.486618 3.62676,-2.326009 5.19733,-4.087534 2.354,-2.640194 2.70378,-3.617381 1.99137,-5.563132 -0.61139,-1.66985 -0.51686,-2.658219 0.32312,-3.378541 1.73846,-1.490773 0.35324,-2.527994 -3.63301,-2.720323 -2.48749,-0.12002 -5.77413,1.154787 -11.31529,4.388899 -9.52894,5.561614 -13.08482,6.649133 -15.88942,4.859588 -1.53987,-0.982548 -1.90227,-2.058941 -1.48738,-4.417879 0.67511,-3.838662 5.3209,-6.742676 12.21461,-7.635187 2.62609,-0.339992 7.43548,-0.948 10.68755,-1.351131 9.59363,-1.189239 12.98268,-6.3198 8.00723,-12.121875 l -2.39703,-2.79526 -13.85574,-0.468596 c -7.62065,-0.257728 -15.25882,-0.990077 -16.97368,-1.627442 -5.0441,-1.874746 -17.61579,-12.170119 -20.15096,-16.502292 -6.05837,-10.3527 5.69022,-15.784264 26.99436,-12.47993 12.24101,1.898616 18.87654,4.371862 23.83317,8.883301 10.61749,9.663817 20.05298,26.976842 19.39285,35.583595 -0.74937,9.770333 3.63322,15.058228 16.22716,19.579155 7.54323,2.707844 11.64796,5.687521 15.0358,10.914678 4.53338,6.994647 3.92742,8.445036 -8.08236,19.345216 -4.3599,3.95708 -13.06909,14.4714 -13.17952,15.91121 -0.0197,0.25696 1.19507,0.83821 2.69951,1.29167 4.31445,1.30043 8.81161,4.99419 9.6846,7.95446 1.49798,5.0796 -5.35527,16.79206 -11.63121,19.87817 -7.23366,3.55706 -16.87831,-2.35231 -16.24249,-9.95196 0.34404,-4.11159 3.69883,-10.13721 7.96366,-14.30353 1.86732,-1.82419 3.41179,-3.53387 3.43215,-3.79928 0.0204,-0.26542 -2.68627,-1.7535 -6.01473,-3.30685 -4.85375,-2.26518 -8.06622,-2.98987 -16.22813,-3.66087 -9.75871,-0.80224 -10.28747,-0.96069 -12.88312,-3.85956 l -2.70672,-3.02295 -12.4062,0.13624 c -17.74357,0.19487 -22.65051,1.18331 -30.11478,6.06625 -7.2109,4.71719 -12.80056,9.88613 -14.42621,13.34039 -1.63936,3.48339 -1.91141,9.97915 -0.78597,18.76661 1.49785,11.69524 -0.0339,19.56895 -5.00336,25.71839 -2.17126,2.68681 -4.02422,5.88221 -4.11769,7.10088 -0.0935,1.21867 -1.37768,3.25144 -2.85381,4.51726 -1.47613,1.26582 -2.74849,3.14404 -2.82747,4.17381 -0.25482,3.32231 -5.43973,7.58883 -9.64217,7.93427 l -3.86029,0.3173 -3.4e-4,5.1507 c -2e-4,2.83288 0.0124,10.79319 0.0279,17.68957 0.0155,6.89638 -0.001,16.14717 -0.0378,20.55731 -0.0363,4.41014 0.29363,13.39852 0.7332,19.97418 0.68127,10.19134 1.08866,12.09334 2.76044,12.88799 6.02478,2.86374 9.85554,10.61857 9.80823,19.85544 -0.0359,7.00666 -1.94737,11.41008 -7.81516,18.00348 -2.2959,2.57981 -2.664,3.95561 -3.28682,12.28461 l -0.70134,9.37945 4.74576,3.65049 c 8.77306,6.74834 9.16441,14.89175 1.18265,24.60985 l -4.20281,5.11707 -0.68054,19.93248 c -0.92482,27.08696 -0.93162,27.03498 3.92702,29.99078 6.43825,3.9168 15.84986,12.19668 16.79357,14.77417 1.99049,5.43647 -5.05478,7.19115 -15.38159,3.83089 -3.60286,-1.17233 -6.85245,-2.15348 -7.22133,-2.18033 -0.36883,-0.0273 -1.33324,1.53898 -2.14306,3.47962 -1.911929,4.58176 -8.067439,10.37883 -13.392409,12.61255 -5.301868,2.22403 -16.731022,2.10863 -21.748585,-0.21961 z m 19.420517,-1.21458 c 5.234498,-1.03052 11.621188,-7.31265 14.342857,-14.10804 2.42064,-6.04381 2.48354,-6.97489 2.97019,-43.96657 0.17485,-13.29067 -0.11167,-20.81796 -0.79429,-20.86757 -0.58727,-0.043 -3.191969,1.1377 -5.788159,2.62308 -2.5962,1.48537 -10.085146,4.97698 -16.642111,7.75912 -13.314412,5.64937 -23.486356,10.41169 -24.708667,11.56818 -0.445109,0.42114 -0.223679,0.48597 0.492064,0.14406 0.715743,-0.3419 1.264907,-0.14648 1.220363,0.43427 -0.04454,0.58076 -1.317045,0.98972 -2.827782,0.90882 l -2.746795,-0.14709 2.412559,1.23578 2.41256,1.23578 -3.590152,1.04137 c -3.098957,0.89889 -3.520374,1.79413 -0.695808,1.47815 0.511476,-0.0572 0.29682,0.54985 -0.477005,1.34905 -1.223114,1.2632 -0.969173,1.50763 1.943372,1.87056 l 3.350327,0.41744 -3.271327,0.15361 c -3.706875,0.17405 -4.583652,1.87945 -1.178796,2.29285 2.144938,0.26039 2.132007,0.29613 -0.318119,0.87856 -2.388854,0.56788 -2.329663,0.64114 0.915981,1.13373 l 3.46989,0.52661 -3.271327,0.15361 c -3.701561,0.17379 -4.595491,1.89362 -1.176549,2.26354 2.135482,0.23109 2.143653,0.2744 0.178169,0.94611 -2.27813,0.77855 -1.584701,1.11306 2.901459,1.39965 l 2.994144,0.19124 -3.045844,0.48283 c -2.880577,0.45664 -2.942569,0.55538 -1.142518,1.81985 1.787111,1.25536 1.735767,1.32601 -0.840944,1.15702 -2.96091,-0.19421 -4.036445,1.68061 -1.157722,2.01807 1.516774,0.17782 1.485232,0.28164 -0.246364,0.81103 -1.386126,0.42376 -1.641673,0.85814 -0.846162,1.43832 0.626835,0.45715 0.849535,1.22906 0.494877,1.71537 -0.354667,0.48629 0.612796,1.01627 2.149911,1.17771 1.537117,0.16142 2.104517,0.46638 1.260891,0.67764 -4.462445,1.11746 -4.610325,1.26831 -2.176136,2.21987 l 2.434354,0.95162 -2.50935,0.0262 c -2.378673,0.0248 -2.356617,0.0778 0.423487,1.01673 2.37111,0.80084 2.501425,0.9802 0.680377,0.93647 -3.769325,-0.0905 -2.661989,1.9093 1.321372,2.38639 3.669238,0.43944 3.67627,0.44871 0.455453,0.59994 -4.480519,0.21037 -4.26428,1.91963 0.312195,2.46774 3.695942,0.44266 3.699553,0.44762 0.436421,0.59991 -3.570207,0.16661 -3.647829,1.95786 -0.101597,2.34457 2.100989,0.22915 2.10527,0.26289 0.119321,0.94159 -1.527762,0.52212 -0.647469,0.86727 3.407799,1.33615 5.391815,0.62341 5.411617,0.63735 1.427283,1.00552 l -4.040384,0.37336 5.393659,1.25148 c 4.063417,0.94283 4.893798,1.40391 3.366889,1.86952 -2.005768,0.61164 -2.006222,0.62108 -0.04341,0.91115 1.983393,0.2931 1.983393,0.2931 -0.08228,1.07281 -1.478498,0.55807 -0.416094,0.80884 3.737509,0.8822 4.528256,0.08 5.668441,0.38652 5.189884,1.3953 -0.756745,1.59516 5.942384,2.29263 11.503954,1.19773 z m -17.070498,-3.97876 c 0.741857,-0.23282 1.599115,-0.13144 1.905024,0.22525 0.305905,0.35672 -0.30107,0.54721 -1.348823,0.42331 -1.157867,-0.13695 -1.376004,-0.39132 -0.556198,-0.6486 z M 53.970133,423.37493 c 0.741857,-0.23282 1.599115,-0.13144 1.905023,0.22524 0.305906,0.35673 -0.301069,0.54722 -1.348822,0.42331 -1.157868,-0.13694 -1.376004,-0.39131 -0.556198,-0.64859 z m 69.014027,16.11764 c 2.44685,-1.29955 0.72231,-4.51028 -4.92635,-9.17178 -5.24499,-4.32837 -10.91542,-8.20011 -12.1481,-8.29465 -0.99826,-0.0766 -1.24902,12.97506 -0.26312,13.6941 3.66251,2.67108 14.83431,5.10186 17.33757,3.77233 z m -8.03628,-8.2864 c -0.64561,-0.85596 -0.76241,-1.52473 -0.25954,-1.48616 0.50286,0.0386 1.42123,0.78599 2.04082,1.66093 1.45134,2.04948 -0.2279,1.88472 -1.78128,-0.17473 z M 50.403299,396.02966 c 1.999773,-1.82619 21.419986,-11.10383 33.143011,-15.83345 2.561533,-1.03344 8.508411,-3.83624 13.215291,-6.22845 15.106869,-7.67785 21.325749,-18.84785 14.888369,-26.74164 -1.51258,-1.8548 -3.56858,-3.90049 -4.56889,-4.54598 -1.70699,-1.1015 -1.80586,-0.86219 -1.60911,3.89461 0.18512,4.47608 -0.0991,5.33294 -2.43253,7.33394 -1.45318,1.24615 -7.159189,3.89094 -12.680029,5.87732 -35.829431,12.8913 -43.46382,17.31215 -48.448308,28.05498 -2.491018,5.36878 -2.724774,6.58476 -1.949668,10.14194 0.484398,2.22299 2.19277,5.79386 3.796393,7.93528 l 2.915677,3.89349 0.759255,-5.88135 c 0.550724,-4.26602 1.366588,-6.43596 2.970539,-7.90069 z m -7.272053,1.12269 c 0.04206,-0.54839 0.525157,-0.96266 1.073546,-0.9206 0.54839,0.0421 0.962658,0.52516 0.920597,1.07355 -0.04206,0.54839 -0.525156,0.96266 -1.073545,0.9206 -0.54839,-0.0421 -0.962658,-0.52516 -0.920598,-1.07355 z m 0.458846,-5.98243 c 0.04206,-0.54839 0.551639,-0.96062 1.132394,-0.91608 0.580754,0.0445 0.744199,0.5084 0.363214,1.03079 -0.380986,0.5224 -0.890564,0.93464 -1.132393,0.91609 -0.24183,-0.0186 -0.405275,-0.48241 -0.363215,-1.0308 z m 1.353829,-4.57491 c 0.05138,-0.66994 2.98482,-3.11581 3.673567,-3.06299 1.538611,0.11801 0.09456,2.8501 -1.675968,3.17087 -1.118777,0.20269 -2.017697,0.15415 -1.997599,-0.10788 z m 6.888952,-4.82225 c 0.380985,-0.52239 0.890563,-0.93463 1.132393,-0.91608 0.241829,0.0186 0.405275,0.48241 0.363214,1.0308 -0.04206,0.54839 -0.551639,0.96062 -1.132393,0.91608 -0.580755,-0.0445 -0.7442,-0.5084 -0.363214,-1.0308 z m 2.645627,-1.80295 c 0.04206,-0.54839 0.551639,-0.96063 1.132393,-0.91609 0.580754,0.0446 0.7442,0.5084 0.363214,1.0308 -0.380985,0.52239 -0.890563,0.93463 -1.132393,0.91608 -0.241829,-0.0186 -0.405275,-0.4824 -0.363214,-1.03079 z m 5.977454,-2.74536 c 1.295706,-1.11112 2.594203,-1.74223 2.885545,-1.40249 0.688551,0.80295 -2.602458,3.62509 -4.093957,3.51069 -0.631086,-0.0484 -0.08729,-0.9971 1.208412,-2.1082 z m 4.361756,-1.29433 c 0.09242,-1.20501 2.091823,-2.46484 2.730258,-1.72034 0.231714,0.27021 -0.3061,1.0064 -1.19514,1.63597 -1.007926,0.71376 -1.585828,0.74553 -1.535118,0.0844 z m 4.146317,-1.7545 c 0.06356,-0.82875 4.637945,-3.77137 5.732211,-3.68744 0.276279,0.0212 0.192443,0.69174 -0.186301,1.49012 -0.378745,0.79837 -1.31365,1.40365 -2.077557,1.34505 -0.763906,-0.0586 -1.423344,0.34216 -1.465405,0.89055 -0.04206,0.54839 -0.525156,0.96265 -1.073546,0.92059 -0.548389,-0.0421 -0.966615,-0.47355 -0.929392,-0.95887 z m 9.939821,-5.3706 c 0.380985,-0.52239 0.890563,-0.93463 1.132393,-0.91608 0.24183,0.0186 0.405275,0.48241 0.363214,1.0308 -0.04206,0.54838 -0.551639,0.96062 -1.132393,0.91608 -0.580754,-0.0445 -0.7442,-0.5084 -0.363214,-1.0308 z m 3.540093,-0.3887 c 0.10648,-1.38829 2.987542,-2.72802 4.467972,-2.07767 1.377885,0.60531 1.111906,0.91901 -1.402317,1.6539 -1.706493,0.4988 -3.086037,0.6895 -3.065655,0.42377 z m 7.30702,-3.73483 c 0.0396,-0.51602 0.54191,-1.18111 1.11629,-1.47798 0.57439,-0.29686 0.99069,0.15973 0.92511,1.0147 -0.0656,0.85495 -0.5679,1.52004 -1.11629,1.47798 -0.54839,-0.0421 -0.96469,-0.49867 -0.92511,-1.0147 z m 5.05449,-0.51901 c 0.0986,-1.28582 3.49988,-3.57458 6.213159,-4.18093 1.66175,-0.37137 2.18264,-0.21106 1.65683,0.50992 -0.42179,0.57835 -1.40964,1.00226 -2.19521,0.94201 -0.785579,-0.0603 -2.057559,0.74483 -2.826629,1.78907 -1.43088,1.94284 -2.96387,2.44874 -2.84815,0.93993 z m 8.523739,-6.52224 c 0.0421,-0.54839 0.55164,-0.96063 1.1324,-0.91608 0.58075,0.0445 0.7442,0.5084 0.36321,1.03079 -0.38098,0.5224 -0.89056,0.93463 -1.13239,0.91609 -0.24183,-0.0186 -0.40528,-0.48241 -0.36322,-1.0308 z m 2.22357,-2.83827 c 0.0421,-0.54838 0.52516,-0.96265 1.07355,-0.92059 0.54839,0.0421 0.96265,0.52515 0.92059,1.07354 -0.0421,0.54839 -0.52515,0.96266 -1.07354,0.9206 -0.54839,-0.0421 -0.96266,-0.52516 -0.9206,-1.07355 z m 1.80151,-3.87357 c -0.29687,-0.57438 -0.0646,-1.00789 0.51616,-0.96335 0.58075,0.0445 1.0215,0.52967 0.97944,1.07806 -0.0421,0.54839 -0.27433,0.9819 -0.51616,0.96335 -0.24183,-0.0186 -0.68258,-0.50368 -0.97944,-1.07806 z m -53.261047,20.98836 c 1.269354,-0.68881 1.140664,-0.88767 -0.6725,-1.03916 -1.233264,-0.10262 -2.276654,0.26135 -2.318714,0.80974 -0.09582,1.24925 0.962316,1.33041 2.991214,0.22942 z m 8.393998,-4.00875 c 3.092669,-1.21847 12.525311,-4.75808 20.961406,-7.8658 8.436104,-3.10771 16.298764,-6.39102 17.472563,-7.29623 1.95183,-1.50522 2.12517,-2.37491 2.0287,-10.17889 -0.058,-4.69318 0.20345,-11.33012 0.58103,-14.74875 0.37757,-3.41864 0.41814,-6.23629 0.0902,-6.26145 -0.32798,-0.0251 -2.93085,0.92065 -5.784159,2.10177 -2.8533,1.18113 -10.978107,3.71482 -18.055117,5.63043 -12.960988,3.50827 -22.034783,6.99182 -24.29662,9.32781 -0.949591,0.98073 -0.884661,1.16328 0.289242,0.81315 0.94921,-0.2831 1.467647,0.14948 1.390152,1.15986 -0.08223,1.07207 -0.723541,1.40429 -1.916245,0.99267 -0.985954,-0.34029 -1.572405,-0.19262 -1.303229,0.32824 0.269179,0.52082 -0.327143,0.94836 -1.325158,0.95009 -0.998012,0.002 -0.04447,0.46215 2.118942,1.02314 3.712344,0.96263 3.754011,1.01422 0.741028,0.91744 -4.052163,-0.13015 -5.542767,1.6711 -1.78856,2.16129 l 2.789335,0.36421 -2.773805,0.20507 c -3.839531,0.28385 -3.619149,1.98707 0.31484,2.43326 l 3.231434,0.36651 -3.049593,0.53172 c -2.989912,0.5213 -2.971916,0.54257 0.919578,1.08683 l 3.969171,0.55512 -3.457782,0.35497 c -4.989502,0.51221 -5.5087,2.72939 -0.589758,2.51851 l 3.839773,-0.16462 -4.09574,1.09509 -4.095739,1.09508 3.972439,0.51251 3.97244,0.5125 -3.350866,0.52701 c -4.738772,0.74529 -5.499119,1.82055 -1.349102,1.90784 5.026844,0.10575 6.036316,0.63239 2.005356,1.04619 -4.836322,0.49649 -5.254325,2.39306 -0.533079,2.41869 l 3.776552,0.0205 -3.356183,0.59634 c -4.915682,0.87345 -5.20994,1.6759 -0.781102,2.13006 l 3.897518,0.39968 -3.999737,0.61948 c -5.273817,0.81679 -5.818345,1.4348 -1.552464,1.76199 1.908126,0.14635 5.99969,-0.73084 9.092369,-1.94931 z M 47.41038,348.73712 c -0.736385,-4.30655 1.829866,-8.79624 6.978277,-12.20855 5.120166,-3.39359 10.902125,-5.46573 29.300565,-10.50078 16.842668,-4.60929 22.351448,-8.00858 28.097948,-17.33836 2.48391,-4.03278 2.91001,-5.63774 2.83979,-10.69652 -0.0875,-6.30461 -3.07939,-12.76008 -7.51994,-16.22556 l -2.17473,-1.69719 0.22217,5.37135 c 0.12218,2.95424 0.66045,5.99029 1.19614,6.74675 0.70851,1.00051 0.61317,1.47583 -0.34981,1.7439 -1.0058,0.28 -1.09334,0.83762 -0.36442,2.3213 0.75174,1.53013 0.59259,2.19013 -0.73535,3.04947 -1.10776,0.71683 -1.26391,1.14077 -0.45084,1.22398 0.68415,0.07 1.18808,0.85527 1.11983,1.74499 -0.0954,1.24396 -0.41487,1.33613 -1.38277,0.39896 -0.96234,-0.93179 -1.74267,-0.75995 -3.3143,0.72987 -3.059739,2.90048 -9.501619,5.68166 -17.533239,7.5697 -23.7567,5.58461 -33.384667,9.44357 -37.807471,15.15349 -4.644626,5.99632 -4.890183,15.98579 -0.552212,22.46512 2.304256,3.44171 3.00081,3.48415 2.430362,0.14808 z M 43.6422,338.18541 c 0.09113,-1.18818 0.574674,-2.12895 1.074546,-2.09061 1.013683,0.0777 0.666829,2.61556 -0.49347,3.61055 -0.410728,0.35221 -0.672207,-0.33177 -0.581076,-1.51994 z m 8.484949,-12.55455 c 0.380986,-0.52239 1.141377,-0.91539 1.689767,-0.87333 0.548389,0.0421 0.685362,0.50388 0.304377,1.02628 -0.380986,0.52239 -1.141377,0.91539 -1.689766,0.87333 -0.54839,-0.0421 -0.685363,-0.50389 -0.304378,-1.02628 z m 8.848454,-4.21764 c 0.04206,-0.54839 0.546425,-1.23996 1.120809,-1.53682 0.574385,-0.29686 1.009922,-0.0911 0.967861,0.45733 -0.04206,0.54839 -0.546425,1.23995 -1.120809,1.53681 -0.574385,0.29687 -1.009922,0.0911 -0.967861,-0.45732 z m 6.135378,-1.5353 c 0.04206,-0.54839 0.546425,-1.23995 1.120809,-1.53682 0.574385,-0.29686 1.009922,-0.0911 0.967861,0.45733 -0.04206,0.54839 -0.546425,1.23995 -1.120809,1.53682 -0.574385,0.29686 -1.009922,0.0911 -0.967861,-0.45733 z m 5.645869,-1.69122 c 0.380985,-0.52239 0.890563,-0.93463 1.132393,-0.91608 0.241829,0.0186 0.405275,0.48241 0.363214,1.03079 -0.04206,0.54839 -0.551639,0.96063 -1.132393,0.91609 -0.580754,-0.0445 -0.7442,-0.5084 -0.363214,-1.0308 z m 5.675079,-2.07207 c 0.06309,-0.82258 0.549315,-1.46227 1.080495,-1.42153 0.53117,0.0407 0.655892,0.72729 0.277147,1.52566 -0.378754,0.79838 -0.864967,1.43807 -1.080494,1.42154 -0.215517,-0.0165 -0.340239,-0.70308 -0.277148,-1.52567 z m 3.527988,-0.23087 c 0.380985,-0.5224 1.141376,-0.9154 1.689766,-0.87334 0.548389,0.0421 0.685362,0.50389 0.304377,1.02629 -0.380986,0.52239 -1.141377,0.91539 -1.689766,0.87333 -0.54839,-0.0421 -0.685363,-0.50389 -0.304377,-1.02628 z m 4.630744,-1.53233 c 0.04206,-0.54839 0.546425,-1.23995 1.120809,-1.53681 0.574385,-0.29687 1.009921,-0.0911 0.967861,0.45732 -0.04206,0.54839 -0.546425,1.23996 -1.120809,1.53682 -0.574385,0.29686 -1.009922,0.0911 -0.967861,-0.45733 z m 4.13387,-1.32996 c 0.75779,-0.78263 1.56739,-1.20188 1.7991,-0.93167 0.63843,0.7445 -0.91158,2.52839 -2.11659,2.43597 -0.66115,-0.0507 -0.54163,-0.61701 0.31749,-1.5043 z m 2.99858,-0.12886 c 0.0421,-0.54839 0.54642,-1.23995 1.12081,-1.53682 0.57438,-0.29686 1.00992,-0.0911 0.96786,0.45733 -0.0421,0.54839 -0.54643,1.23995 -1.12081,1.53682 -0.57438,0.29686 -1.00992,0.0911 -0.96786,-0.45733 z m 5.41499,-5.21921 c 1.393119,-1.27218 2.981619,-2.27865 3.530009,-2.23659 0.54839,0.0421 -0.14277,1.11735 -1.53586,2.38954 -1.393119,1.27219 -2.981619,2.27866 -3.530009,2.2366 -0.54839,-0.0421 0.14276,-1.11736 1.53586,-2.38955 z m -42.631761,5.53896 c 0.240391,-0.13765 -0.535065,-0.32484 -1.723235,-0.41597 -1.328039,-0.10186 -2.208127,0.45754 -2.2844,1.45199 -0.106207,1.38473 0.141958,1.44464 1.723235,0.41597 1.016021,-0.66094 2.044,-1.31434 2.2844,-1.45199 z m 17.097311,-1.97364 c 20.04201,-5.28163 22.23927,-6.08753 25.99219,-9.53334 3.382289,-3.10548 3.484539,-4.66263 2.045049,-31.14148 -0.60806,-11.18499 -0.98313,-21.93264 -0.83349,-23.88368 0.14965,-1.95104 0.10416,-3.56023 -0.10109,-3.57598 -0.20525,-0.0157 -2.384639,0.51215 -4.843089,1.1731 -7.838908,2.10746 -24.92451,2.83905 -35.104288,1.50313 -5.274859,-0.69224 -8.360976,-0.80417 -7.001081,-0.25395 2.331894,0.94351 2.339331,0.98098 0.180839,0.91128 -2.183124,-0.0705 -3.469114,1.83977 -1.348063,2.00246 0.580754,0.0445 0.744199,0.5084 0.363214,1.03079 -0.401755,0.55088 0.687925,1.12312 2.594386,1.36243 l 3.287092,0.41262 -3.271327,0.15361 c -3.74744,0.17595 -4.765382,2.85438 -1.256519,3.30619 1.681536,0.21653 1.794063,0.36745 0.454691,0.60989 -0.978916,0.17717 -1.811738,0.73793 -1.850715,1.2461 -0.03898,0.50819 0.710335,1.03624 1.665137,1.17346 1.65334,0.23761 1.651253,0.26483 -0.04385,0.57165 -2.937788,0.53174 -2.148445,2.23622 0.860432,1.85798 l 2.784927,-0.35008 -3.103001,1.22806 -3.103002,1.22806 2.976132,0.42606 c 2.156139,0.30868 2.41656,0.51609 0.9452,0.75278 -3.30524,0.53169 -4.33728,1.95306 -1.626021,2.23943 2.251799,0.2378 2.280561,0.31105 0.377584,0.9614 -1.798058,0.61448 -1.681681,0.75929 0.915557,1.13925 2.636584,0.38571 2.69758,0.4659 0.535613,0.70411 -1.887906,0.208 -2.136781,0.49485 -1.100197,1.26807 1.083884,0.80851 1.006299,0.97664 -0.406432,0.88071 -1.968376,-0.13362 -2.583115,1.77943 -0.658693,2.04989 0.992238,0.13949 0.98332,0.25577 -0.04461,0.58162 -0.706701,0.22402 -1.333664,1.04295 -1.39325,1.81983 -0.05959,0.77689 0.449796,1.49097 1.131963,1.58684 0.992238,0.13948 0.98332,0.25576 -0.04461,0.58162 -2.267798,0.71889 -1.510674,2.22401 1.305373,2.59497 l 2.730489,0.3597 -2.773805,0.20507 c -1.525593,0.11279 -2.805933,0.62394 -2.8452,1.13591 -0.03927,0.51196 1.157325,1.0927 2.659093,1.29054 l 2.730489,0.35969 -2.773805,0.20507 c -1.525593,0.11279 -2.809664,0.67259 -2.853491,1.244 -0.04646,0.60581 1.081535,0.89079 2.705647,0.68359 2.782375,-0.35498 2.782037,-0.3541 -0.314002,0.82488 l -3.099335,1.18025 3.474843,0.46203 c 3.051458,0.40572 3.136872,0.487 0.701038,0.66708 -1.525594,0.11279 -2.801161,0.56173 -2.834596,0.99765 -0.03343,0.43592 1.185668,0.72318 2.709115,0.63837 l 2.769905,-0.15422 -3.109539,1.31329 -3.109539,1.31328 3.027555,-0.24437 3.027554,-0.24438 -2.827999,0.91165 c -3.191691,1.0289 -3.832482,2.44551 -1.207719,2.66994 1.490169,0.12744 1.515464,0.27296 0.173965,1.00093 -1.219364,0.6617 -0.9049,0.93979 1.408845,1.24591 l 2.978586,0.39408 -2.773805,0.20506 c -3.061747,0.22636 -3.925868,1.92171 -1.180591,2.31625 1.65334,0.23761 1.651253,0.26483 -0.04385,0.57165 -2.959481,0.53567 -2.135294,2.14465 1.308486,2.5544 2.708337,0.32225 2.8219,0.42568 0.703091,0.64032 -4.310912,0.43672 -4.769727,1.87996 -0.546839,1.72015 3.177512,-0.12025 3.442885,-0.0155 1.376159,0.54346 l -2.560452,0.69244 2.480208,0.35378 2.480209,0.35377 -2.488577,0.77986 c -1.791427,0.56138 -2.677942,0.41348 -3.164521,-0.52797 -0.933139,-1.80549 -2.034042,-0.637 -1.400651,1.48664 0.417799,1.40079 1.402909,1.69323 5.171284,1.53514 3.317457,-0.13915 4.061524,0.0294 2.589317,0.58669 -1.136218,0.43008 -1.620806,0.86381 -1.076864,0.96385 0.543939,0.10009 -0.1819,0.73708 -1.612984,1.41564 -1.431083,0.67857 -2.366266,1.26784 -2.078186,1.30947 0.288078,0.0417 8.472871,-2.01909 18.188421,-4.57942 z M 49.93521,263.61949 c -0.02622,-5.93899 -0.652215,-10.19448 -1.977182,-13.44057 -2.937471,-7.19668 -4.672914,-15.22668 -3.621145,-16.75528 3.370756,-4.89897 12.527728,-13.89841 17.052652,-16.75928 l 5.373425,-3.39734 11.124412,1.5283 11.124419,1.52831 2.85221,-2.63567 c 1.56871,-1.44962 4.15336,-4.50846 5.74367,-6.79741 l 2.891479,-4.16175 -2.262359,-2.09247 c -7.79198,-7.2069 -13.570394,-8.23078 -20.481778,-3.62917 -2.160345,1.43836 -7.183498,3.32701 -11.162562,4.197 -8.372644,1.83062 -21.705359,8.75765 -25.75618,13.38167 -8.658713,9.88391 -10.367257,21.50402 -5.593157,38.04004 1.264053,4.37831 3.363804,8.08423 7.277414,12.84415 3.025411,3.67964 5.940005,6.72395 6.476888,6.76513 0.615622,0.0472 0.961973,-3.13485 0.937794,-8.61566 z m -3.190315,1.42233 c 0.380985,-0.52239 1.141376,-0.91539 1.689766,-0.87333 0.548389,0.0421 0.685362,0.50389 0.304377,1.02628 -0.380986,0.5224 -1.141377,0.9154 -1.689766,0.87334 -0.54839,-0.0421 -0.685363,-0.50389 -0.304377,-1.02629 z m -2.474441,-2.88077 c 0.741857,-0.23282 1.599115,-0.13145 1.905023,0.22524 0.305905,0.35673 -0.30107,0.54722 -1.348822,0.42331 -1.157868,-0.13695 -1.376004,-0.39131 -0.556198,-0.64859 z m -3.517623,-3.9906 c 0.01653,-0.21552 0.746874,-0.60565 1.622994,-0.86697 0.913429,-0.27243 1.300833,-0.0746 0.908169,0.46382 -0.658207,0.90252 -2.593101,1.21069 -2.531163,0.40315 z M 36.443925,246.5167 c 0.741857,-0.23281 1.599115,-0.13144 1.905023,0.22525 0.305906,0.35673 -0.30107,0.54722 -1.348822,0.42331 -1.157868,-0.13695 -1.376004,-0.39132 -0.556198,-0.6486 z m -0.07938,-12.04133 c 0.741857,-0.23282 1.599115,-0.13144 1.905023,0.22525 0.305905,0.35672 -0.30107,0.54721 -1.348822,0.42331 -1.157868,-0.13695 -1.376004,-0.39132 -0.556198,-0.6486 z m -0.556464,-3.36931 c -0.854107,-0.64968 -0.94703,-1.05099 -0.232812,-1.00544 0.653734,0.0421 1.431556,0.54577 1.728419,1.12015 0.670118,1.29657 0.324942,1.2701 -1.495607,-0.11471 z m 0.880907,-4.94712 c -0.296863,-0.57439 -0.09106,-1.00992 0.457326,-0.96786 0.54839,0.0421 1.239954,0.54642 1.536818,1.12081 0.296863,0.57438 0.09106,1.00992 -0.457326,0.96786 -0.54839,-0.0421 -1.239954,-0.54643 -1.536818,-1.12081 z m 1.954454,-5.86772 c 0.04206,-0.54839 0.525156,-0.96266 1.073546,-0.9206 0.548389,0.0421 0.962658,0.52516 0.920597,1.07355 -0.04206,0.54839 -0.525157,0.96266 -1.073546,0.9206 -0.548389,-0.0421 -0.962658,-0.52516 -0.920597,-1.07355 z m 7.514821,-6.44418 c 0.04206,-0.54839 0.551639,-0.96063 1.132393,-0.91608 0.580754,0.0445 0.7442,0.5084 0.363214,1.03079 -0.380985,0.5224 -0.890563,0.93463 -1.132393,0.91609 -0.241829,-0.0186 -0.405275,-0.48241 -0.363214,-1.0308 z m 12.63674,-7.57998 c 0.75779,-0.78263 1.567384,-1.20189 1.799098,-0.93167 0.638424,0.7445 -0.911577,2.52839 -2.116588,2.43596 -0.661158,-0.0507 -0.54163,-0.617 0.31749,-1.50429 z m 29.85206,2.81533 c 0.04206,-0.54839 0.525157,-0.96266 1.073547,-0.9206 0.54839,0.0421 0.96266,0.52516 0.9206,1.07355 -0.0421,0.54839 -0.52516,0.96266 -1.07355,0.9206 -0.54839,-0.0421 -0.962658,-0.52516 -0.920597,-1.07355 z m -25.097805,-3.94266 c 1.467316,-1.16156 5.806571,-1.87681 5.044186,-0.83145 -0.376313,0.51599 -1.863598,1.07121 -3.305095,1.23382 -1.441486,0.16261 -2.224081,-0.0185 -1.739091,-0.40237 z m 23.40717,-6.14708 c -0.645875,-1.24965 1.320456,-2.28795 2.585582,-1.36528 1.06223,0.77468 0.19263,2.512 -1.20375,2.4049 -0.483659,-0.0371 -1.105483,-0.50493 -1.381832,-1.03962 z M 65.415687,242.6541 c 2.085048,-1.51165 2.118579,-1.50907 0.704221,0.054 -2.538585,2.80553 2.203105,2.35526 7.788873,-0.73964 l 4.902254,-2.71617 -3.723473,2.77961 c -3.471755,2.5917 -3.568597,2.79331 -1.432605,2.98229 1.259975,0.11149 3.718479,-0.40208 5.463345,-1.14123 1.744855,-0.73915 2.839697,-0.88764 2.432978,-0.32996 -0.967113,1.32608 4.877048,0.70213 8.89843,-0.95005 1.62898,-0.66925 2.62433,-0.75411 2.21188,-0.18858 -0.98039,1.34429 -0.5907,1.33043 3.84857,-0.1369 8.36997,-2.76658 2.28111,-7.33361 -11.150825,-8.36383 -10.113865,-0.77572 -22.392918,0.46737 -28.565021,2.89182 -5.098653,2.00279 -5.404768,2.52295 -2.670046,4.53703 1.659142,1.22195 2.429604,1.14459 5.306284,-0.53278 l 3.36531,-1.96229 -2.621976,2.48433 -2.621986,2.48433 2.837237,0.21762 c 1.560486,0.11969 3.822433,-0.49664 5.02655,-1.36961 z m 20.965397,-2.93826 c 0.240401,-0.13765 1.38494,-0.83968 2.543426,-1.56006 1.94837,-1.21156 1.99367,-1.1868 0.60408,0.33013 -0.82625,0.90196 -1.970785,1.60398 -2.543424,1.56006 -0.572638,-0.0439 -0.844472,-0.19248 -0.604082,-0.33013 z m -38.429212,-1.75531 c -0.263343,-3.29442 -1.23717,-5.34065 -1.39818,-2.93791 -0.131972,1.96911 0.671585,5.98556 1.205667,6.02652 0.243166,0.0187 0.329799,-1.37122 0.192563,-3.08861 z m 4.001992,-1.60436 c 0.380986,-0.52239 0.21754,-0.98625 -0.363214,-1.03079 -0.580754,-0.0446 -1.090332,0.36769 -1.132393,0.91608 -0.04206,0.54839 0.121384,1.01225 0.363214,1.0308 0.24183,0.0185 0.751408,-0.39369 1.132393,-0.91609 z m 19.251047,-4.0959 c 9.786019,-0.90567 24.252269,0.2234 27.901959,2.17766 1.711,0.91619 1.80126,0.49864 1.82958,-8.46395 0.0363,-11.47276 -0.14491,-17.21283 -0.55849,-17.69511 -0.17112,-0.19957 -1.68243,1.32402 -3.35842,3.38576 -5.20813,6.40679 -6.97699,6.91513 -18.297462,5.25842 l -9.883461,-1.44639 -5.505307,3.07639 c -3.027913,1.69202 -6.590505,4.3771 -7.916863,5.96683 l -2.411569,2.89047 2.303687,0.27668 c 2.266619,0.27224 2.262712,0.28486 -0.242703,0.78565 -2.464683,0.49266 -2.485265,0.55126 -0.641536,1.8262 1.047665,0.72447 1.382649,1.29089 0.744402,1.2587 -0.905788,-0.0457 -1.258591,1.81519 -0.698977,3.68673 0.03361,0.11234 1.616419,-0.30986 3.517388,-0.93819 1.900979,-0.62834 7.848982,-1.54897 13.217771,-2.04583 z m -17.596897,-1.39791 c -0.305906,-0.35673 -1.163163,-0.4581 -1.905024,-0.22524 -0.819806,0.25728 -0.601671,0.51166 0.556198,0.64859 1.047754,0.12389 1.654728,-0.0666 1.348823,-0.42331 z m -1.923479,-27.22683 c -0.305906,-0.35672 -1.163163,-0.4581 -1.905024,-0.22524 -0.819806,0.25728 -0.601671,0.51167 0.556198,0.64859 1.047754,0.12389 1.654728,-0.0666 1.348823,-0.42331 z m 13.331828,-4.24007 c 4.624257,-1.33345 10.398012,-3.64568 12.830563,-5.13832 6.120361,-3.75548 11.970634,-3.29718 18.301954,1.43373 l 4.59802,3.43576 -0.12066,-6.85336 c -0.0664,-3.76936 -0.0164,-8.255 0.11111,-9.96809 l 0.23187,-3.11465 -13.747274,-0.5621 c -11.271664,-0.46087 -13.507575,-0.77897 -12.416193,-1.76644 0.885031,-0.80077 5.189695,-1.05653 12.845986,-0.76322 6.333191,0.24262 11.539541,0.11992 11.569651,-0.27265 0.0301,-0.39258 1.89072,-1.11384 4.13468,-1.6028 2.33854,-0.50958 4.12759,-1.5103 4.19158,-2.34461 0.18176,-2.36978 -8.25686,-2.63026 -43.024431,-1.32809 -7.468261,0.27972 -15.954413,0.59093 -18.858115,0.69161 -4.452605,0.15437 -5.303914,0.50189 -5.435605,2.21887 -0.150083,1.95679 0.338351,2.0637 12.576293,2.75303 7.002842,0.39445 13.846742,0.89974 15.208668,1.12286 2.293699,0.37578 2.324384,0.45758 0.416359,1.10965 -1.132927,0.38718 -3.932493,0.59206 -6.221245,0.45528 -4.904943,-0.29306 -7.587327,0.34753 -6.91355,1.65119 0.265755,0.5142 -1.006032,0.88011 -2.826199,0.81311 l -3.309507,-0.12179 3.43341,1.00222 3.43341,1.00222 -3.010152,0.0175 c -2.28575,0.0133 -2.5398,0.17879 -1.055684,0.68771 1.954469,0.67022 1.954469,0.67022 -0.100466,1.30988 -1.871881,0.58266 -1.833797,0.66855 0.427523,0.9641 2.477809,0.32386 2.478128,0.32584 0.169882,1.05414 -3.365031,1.06175 -2.970719,2.72484 0.757793,3.19619 l 3.228244,0.40811 -3.271327,0.1536 c -2.106985,0.0989 -3.313459,0.70293 -3.389703,1.697 -0.09462,1.2337 0.641839,1.47122 3.670227,1.18368 2.733967,-0.25958 3.350525,-0.10804 2.214855,0.54438 -0.865561,0.49724 -2.58381,0.83352 -3.81833,0.74728 -1.234487,-0.0867 -2.279402,0.29719 -2.32196,0.85206 -0.0459,0.59846 1.661584,0.94322 4.19748,0.84751 l 4.274857,-0.16135 -4.337117,0.70921 c -4.704985,0.76936 -5.226567,2.48726 -0.67592,2.22625 2.515661,-0.14429 2.434882,-0.0379 -0.810058,1.06644 l -3.604368,1.22672 4.017858,-0.0797 c 2.209822,-0.0438 7.801341,-1.17065 12.425597,-2.5041 z m -23.379581,-0.46571 c -0.257246,-0.86248 -1.386339,-2.13863 -2.509093,-2.83591 -1.877845,-1.1662 -1.863883,-1.04238 0.174269,1.54564 2.548608,3.23618 2.987553,3.47874 2.334824,1.29027 z m 4.879098,-2.8216 c 0.191255,-2.49358 0.071,-2.58921 -1.529768,-1.21651 -0.955542,0.81941 -1.47115,2.00488 -1.145808,2.63438 1.071773,2.07372 2.464378,1.33573 2.675576,-1.41787 z m 64.24903,2.38468 c 1.38597,-1.13484 1.7745,-1.58012 0.86341,-0.98952 -0.91111,0.59059 -2.80307,1.43235 -4.20438,1.87056 -1.69426,0.52982 -1.98351,0.86133 -0.8634,0.98952 0.92643,0.10606 2.8184,-0.73573 4.20437,-1.87056 z M 40.873889,190.9319 c 0.612347,-1.30115 2.423238,-2.99097 4.024208,-3.75516 l 2.910851,-1.38946 -3.036682,0.36339 c -3.196493,0.38251 -6.769472,3.26447 -6.948992,5.60504 -0.174114,2.2701 1.852065,1.72292 3.050615,-0.82381 z m -4.878824,-1.49258 c 0.06061,-0.79022 -0.562825,-1.48838 -1.385409,-1.55147 -1.501819,-0.11519 -2.211097,1.9476 -1.110836,3.23066 0.859138,1.00187 2.368483,-0.0134 2.496245,-1.67919 z m 74.446905,5.66216 c 1.78163,-2.31186 1.80033,-2.53633 0.29439,-3.53754 -0.88429,-0.58798 -1.54073,-1.94413 -1.4587,-3.01366 0.18518,-2.41437 -0.94402,-2.54997 -3.9512,-0.47445 -1.9498,1.34573 -2.26042,2.2163 -1.91571,5.36922 0.33714,3.08373 0.83723,3.79573 2.77014,3.94398 1.44148,0.11056 3.0985,-0.77901 4.26108,-2.28757 z M 43.235146,183.96261 c 3.501002,-0.43373 4.322903,-2.74005 1.533527,-4.30322 -6.002494,-3.3638 -7.220545,-4.39533 -7.344136,-6.21949 -0.250613,-3.69928 2.660876,-4.40114 20.499654,-4.94168 9.530093,-0.28879 18.306289,-0.68009 19.502662,-0.86956 5.504509,-0.87179 29.787297,-0.14095 31.493697,0.94786 2.57823,1.64511 2.03929,3.88512 -1.64374,6.83198 -1.76304,1.41063 -3.25879,3.25924 -3.32389,4.10801 -0.10615,1.38388 0.26282,1.41724 3.57313,0.3231 2.56669,-0.84838 4.04321,-0.87961 4.84578,-0.10251 1.99797,1.93454 8.76768,1.61546 10.90836,-0.51415 5.7578,-5.72804 7.71337,-13.90301 6.17386,-25.80913 -2.17859,-16.84876 0.15096,-22.78967 12.34921,-31.49353 4.18122,-2.98346 9.17271,-6.03764 11.09219,-6.78707 3.48694,-1.36144 15.88452,-2.55536 28.66248,-2.76028 6.19876,-0.0994 6.69942,-0.27138 5.92293,-2.03451 -1.65374,-3.75502 -0.42826,-9.96276 2.41173,-12.216727 7.14599,-5.671445 29.91213,-5.071729 39.81022,1.048696 4.02584,2.489361 3.31175,7.470191 -1.59963,11.157441 -5.43999,4.0841 -13.52242,5.54812 -25.6764,4.65091 -5.62223,-0.41507 -10.24716,-0.42961 -10.27762,-0.0324 -0.0305,0.39722 1.17713,1.48433 2.68356,2.41582 1.99465,1.23337 4.61715,1.68764 9.65042,1.67164 5.70404,-0.0181 8.27045,0.53504 14.69042,3.16643 4.27842,1.75362 8.34494,3.23757 9.03669,3.29767 0.69177,0.0601 2.95367,-2.13009 5.02646,-4.86709 2.07279,-2.737 7.22814,-8.3216 11.45632,-12.41023 4.28694,-4.14544 7.76476,-8.359601 7.86203,-9.526612 0.48272,-5.791574 -7.71331,-13.477374 -18.03825,-16.915279 -5.80512,-1.932936 -12.81975,-7.279635 -14.31018,-10.907521 -0.61599,-1.499395 -1.18623,-5.594037 -1.2672,-9.099204 -0.20561,-8.901611 -4.55918,-18.529991 -12.7874,-28.280687 -7.84222,-9.293355 -12.01054,-11.708032 -24.02954,-13.920173 -17.89368,-3.293399 -29.68516,-1.447612 -30.15828,4.720841 -0.31908,4.160224 2.91789,8.083836 12.00551,14.552153 l 7.89624,5.620318 14.71892,0.816835 c 19.16375,1.063503 22.71311,2.994108 22.02395,11.979482 -0.22418,2.922855 -0.85991,3.867547 -3.50722,5.211728 l -3.2334,1.641774 2.99123,0.901597 c 6.03196,1.818115 10.13812,8.394914 6.01001,9.626163 -0.79982,0.238553 -2.74666,2.095054 -4.32629,4.12556 -1.57964,2.030505 -4.00477,4.315764 -5.38917,5.078352 -3.21786,1.772539 -17.99122,4.14877 -24.37528,3.92066 -4.82833,-0.172522 -4.96649,-0.266146 -8.84446,-5.993569 -8.28079,-12.230037 -7.53831,-11.611091 -14.56788,-12.144056 -8.11818,-0.615535 -12.08688,0.19954 -19.77475,4.061099 -3.41872,1.717202 -8.5049,3.544866 -11.3026,4.061476 -6.07006,1.120867 -43.580556,8.701701 -51.191084,10.345666 -9.47254,2.547946 -6.943018,1.436898 -15.14004,4.520504 -4.216949,1.592566 -8.698632,4.168044 -10.754108,6.180045 -6.762651,5.334168 -8.803219,10.885358 -12.987464,17.163028 -4.68527,9.07516 -6.91274,11.57377 -9.380438,28.43591 -1.731333,11.83042 -1.024808,22.88398 1.898082,29.69553 4.422608,10.30652 6.412374,11.36805 18.501179,9.87038 z m 35.813905,-35.29113 c 0.65023,-3.33126 0.552107,-3.47162 -2.666875,-3.8148 -3.074846,-0.32781 -3.138181,-0.40025 -0.792426,-0.90626 4.736863,-1.02179 7.058674,2.18489 4.890772,6.75469 -1.288086,2.71522 -2.126041,1.52477 -1.431471,-2.03363 z m -25.670779,-2.80626 c 0.331539,-4.32259 -0.608721,-5.5794 -5.764867,-7.70565 -2.760529,-1.13836 -5.751808,-2.81488 -6.647283,-3.72561 -2.181265,-2.21843 -1.694255,-6.89939 0.954097,-9.17043 3.25322,-2.78974 4.520043,-2.05254 1.825449,1.06228 -3.818381,4.41387 -2.66089,7.42324 3.863056,10.04345 2.947296,1.18373 5.987327,2.96383 6.755618,3.95578 1.747359,2.25602 1.81382,7.22676 0.102809,7.68875 -0.80376,0.21702 -1.208989,-0.58257 -1.088879,-2.14857 z m 42.261969,-0.12033 c 7.067859,-2.29234 8.537919,-8.68569 2.1105,-9.17866 -3.04272,-0.23338 -3.54575,0.052 -3.70287,2.10053 -0.1,1.30383 -0.97776,2.92896 -1.95054,3.61141 -1.6044,1.12554 -1.68602,0.94431 -0.87842,-1.95044 1.0414,-3.73284 1.20607,-3.68627 -8.985473,-2.54109 -10.871051,1.22153 -15.806907,-1.12853 -17.598331,-8.37909 -1.337125,-5.41176 -0.07084,-7.02027 6.928522,-8.80102 3.440137,-0.87523 7.138813,-2.27602 8.219285,-3.11287 2.812047,-2.17801 2.945443,-7.30124 0.266502,-10.23483 l -2.182945,-2.39044 -3.40499,3.32632 c -1.872743,1.82949 -3.438207,3.75941 -3.478805,4.28872 -0.0406,0.52931 -0.522495,0.92796 -1.070884,0.8859 -1.956713,-0.15008 -0.716941,-3.05304 2.75052,-6.4404 2.295038,-2.24202 3.100096,-3.62027 2.309075,-3.95313 -0.667922,-0.28106 -1.17919,-0.9703 -1.136134,-1.53167 0.04306,-0.56136 0.732031,-0.71053 1.531043,-0.33147 1.038166,0.4925 2.41961,-0.90913 4.840639,-4.911369 1.863331,-3.080303 4.103406,-5.813961 4.977934,-6.074795 2.086553,-0.622336 1.95143,0.113165 -0.579326,3.15333 -1.145687,1.376315 -2.90953,4.123221 -3.919635,6.104235 -1.814315,3.558199 -1.803765,3.640079 0.871233,6.759489 2.076094,2.42102 2.63782,4.06994 2.407862,7.06812 -0.375814,4.89986 -2.298399,6.46241 -10.527526,8.55603 -5.013332,1.27547 -6.356401,2.03972 -6.581792,3.74528 -0.469604,3.55345 -0.169357,5.07008 1.415917,7.15219 2.514039,3.30194 5.60719,4.20389 12.294039,3.5849 12.27746,-1.13649 13.00123,-1.58839 8.067772,-5.03731 -3.597648,-2.51506 -3.95941,-3.85287 -2.404357,-8.8914 0.694834,-2.25134 1.703012,-6.21274 2.240413,-8.80312 1.042922,-5.02719 1.558602,-5.64043 7.005692,-8.33111 4.2008,-2.07505 3.78444,-2.81278 -2.34405,-4.15332 l -4.643888,-1.0158 4.166218,0.18553 c 8.074469,0.35959 9.563689,3.22866 3.2781,6.31546 -4.02036,1.97437 -5.7987,4.73422 -6.17002,9.57539 -0.12908,1.68293 -0.9089,4.81037 -1.732926,6.94983 l -1.498239,3.88995 4.023585,4.0013 c 3.03534,3.01851 4.70803,3.95386 6.81025,3.8082 3.966739,-0.27485 6.869889,1.87816 6.636459,4.9217 -0.2728,3.5567 -5.699599,8.0021 -9.281709,7.60316 -2.76782,-0.30827 -2.7536,-0.33176 0.9213,-1.52364 z m -35.915213,-9.86418 c 1.558002,-7.36627 0.762931,-11.40301 -3.312263,-16.81698 -4.036201,-5.36217 -4.346631,-8.68575 -1.357709,-14.53608 1.878745,-3.67734 4.51957,-5.907137 6.847625,-5.781833 0.849035,0.04566 0.320683,0.927189 -1.35094,2.253873 -1.509915,1.19836 -3.459538,4.03322 -4.332481,6.29969 -1.754525,4.55534 -1.554006,5.26744 3.629925,12.89106 2.312559,3.40091 2.667097,4.97151 2.506981,11.10608 -0.149637,5.73328 -0.533463,7.39072 -1.942664,8.38863 -1.608713,1.13922 -1.666523,0.81979 -0.688474,-3.80444 z m 45.690062,-27.73317 c 0.18991,-2.47594 1.1974,-3.64209 5.50378,-6.37059 2.89923,-1.836919 5.59983,-4.153145 6.00134,-5.147171 0.88615,-2.193896 -1.71363,-5.862747 -4.29469,-6.060711 -1.01178,-0.0776 -1.80519,-0.589779 -1.76313,-1.138168 0.14304,-1.864939 3.70955,-0.727278 5.77813,1.843128 3.22552,4.008035 1.95863,7.566251 -4.02944,11.317162 -3.325,2.08278 -5.06065,3.86846 -5.17207,5.32116 -0.0922,1.20253 -0.63765,2.4293 -1.21203,2.72616 -0.60874,0.31462 -0.94738,-0.72439 -0.81189,-2.49097 z m 14.04748,76.55208 c -0.93378,-1.31862 -3.70496,-2.17718 -3.78208,-1.17175 -0.0191,0.24839 0.41316,1.67463 0.96046,3.16943 0.92012,2.51309 1.10156,2.59342 2.40855,1.06642 1.04163,-1.21698 1.1503,-2.02304 0.41307,-3.0641 z m -7.27413,0.938 2.71978,1.42099 -2.19968,-2.19084 c -2.46844,-2.45852 -5.91616,-3.08233 -7.85355,-1.42096 -2.19627,1.88337 -1.53051,2.56574 1.60817,1.64831 2.24646,-0.65663 3.69238,-0.51962 5.72528,0.5425 z M 232.69198,153.8377 c 3.46514,-2.31994 8.53746,-10.46328 8.94872,-14.3667 0.16708,-1.58598 -0.42498,-3.82457 -1.31574,-4.97463 -1.57241,-2.03017 -9.73321,-6.48425 -10.53476,-5.74978 -8.17188,7.48812 -12.51809,15.68976 -11.11731,20.97926 1.39736,5.2766 8.96437,7.49603 14.01909,4.11185 z m -11.94736,-41.89746 c 6.34965,-1.88245 9.46941,-4.77416 9.22632,-8.5519 -0.43548,-6.767453 -29.54737,-10.275003 -38.0474,-4.584153 -3.02232,2.023463 -3.9114,6.604383 -2.19283,11.298203 l 1.01017,2.75898 12.035,0.419 c 9.08603,0.31633 13.48896,-0.012 17.96874,-1.34013 z M 189.9719,69.759649 c 6.61533,-3.820834 7.84757,-4.850932 5.49381,-4.592573 -12.15945,1.33467 -14.86013,1.879958 -17.25623,3.484161 -2.62394,1.75675 -3.6706,4.51447 -2.31388,6.09659 1.25039,1.458128 5.55849,-0.06852 14.0763,-4.988178 z"
     id="path22672"
     inkscape:connector-curvature="0"
     sodipodi:nodetypes="csssssscsssscsssssssssssssccccssssssssssssssscssssssssssssscssssscssssssssscsssssssscsscsssscsscccsscsssssscccscsscscsscscsccssssssccsscssssssscssscssssssccccccccccccssssscssccssssssssssscsssssssssssssssssssssssssssssscssscsssssccsssssssssssssssssssssssssssssssssssssssssssssssssscccssscsscsscsscccccsssscsscssscssssscssssssssssssccssssssssssssssssssssssssssssssssssssssssssssssssscssscssscsssssssscssscsscsssscccsscssssccsscsscssscsssscsssscccccsssscssssssscccssssscscssssscccsscssssssssscssscscccscssccccccscccsssssssssssssssssssssssscssscsscssssssscssssssssssscccsscscscccsccssssscsccsscsscsssccscccccccccscccsscsccsssssssssssscsscccsssssscsssscsscssscsccssssssssssscssssssssscsccsssscccssssssssssssssssssssssscsssssssssscssscsssssssssssccccccsssssssssssssssssssssssscsssssssssssssssssssssscsssscsssssssscsssssssssssssssssscsssccsssscsssssssscsssssssss" />
  <path
     style="fill:#000000;fill-opacity:0.35643568;stroke:none"
     d="m 44.5,211 c 6.96966,-5.26575 14.518623,-10.35324 30,-13 2.916827,-2.38878 6.617938,-4.25471 13.5,-4 5.173982,-0.21056 9.435843,5.05161 14,8.5 L 90.25,216.75 68,215 c -10.439945,5.11336 -16.38907,12.47213 -23,19.5 l 6.5,22 L 50,275 34.5,256.25 31,230.5 c 2.201228,-7.26626 5.304251,-14.23192 13.5,-19.5 z"
     id="path22674"
     inkscape:connector-curvature="0"
     sodipodi:nodetypes="cccccccccccc" />
  <path
     style="fill:#000000;fill-opacity:0.35643568;stroke:none"
     d="M 103.75,277.5 103.5,300 c -6.124489,7.12858 -13.283373,7.01639 -20,10 -12.124256,3.80692 -23.848368,3.43332 -36.5,12.75 -9.615861,12.70214 -5.857934,19.38607 -2.5,26.25 l 5.5,6 0.75,-15 c 12.849171,-9.45041 35.974197,-13.7629 54.75,-20.25 l 10,-16.25 c 0.42264,-23.31184 -7.43597,-18.67443 -11.75,-26 z"
     id="path23184"
     inkscape:connector-curvature="0"
     sodipodi:nodetypes="cccccccccc" />
  <path
     style="fill:#000000;fill-opacity:0.35643568;stroke:none"
     d="m 47.25,411 c -6.856535,-5.16667 -7.457372,-10.33333 -9.25,-15.5 2.010188,-7.02028 4.903828,-14.64246 13.25,-20.75 l 52.5,-22.25 0,-14 c 5.96538,3.22095 10.2818,8.36568 12.25,16.25 -0.70049,6.90217 -5.447,12.07034 -10.75,17 l -55.25,25 z"
     id="path23186"
     inkscape:connector-curvature="0"
     sodipodi:nodetypes="ccccccccc" />
  <path
     style="fill:#000000;fill-opacity:0.35643568;stroke:none"
     d="m 102.75,436.5 2.25,-17 c 12.04269,6.48457 15.02183,11.69109 20.5,17.25 -0.76287,9.64202 -17.95221,0.9378 -22.75,-0.25 z"
     id="path23188"
     inkscape:connector-curvature="0"
     sodipodi:nodetypes="cccc" />
  <path
     style="fill:#038ad2;fill-opacity:0.23762375;stroke:none"
     d="m 52,241.5 c -1.726089,4.11469 12.052399,4.00086 24.5,4.25 9.685823,-1.65517 24.60597,-0.16975 25.25,-7.25 -1.47825,-5.07609 -14.473707,-5.96411 -30.5,-5.75 -22.854001,3.80517 -20.320649,6.23805 -19.25,8.75 z"
     id="path23196"
     inkscape:connector-curvature="0"
     sodipodi:nodetypes="ccccc" />
  <path
     style="fill:#059fb9;stroke:none;stroke-width:1px;stroke-linecap:butt;stroke-linejoin:miter;stroke-opacity:1;fill-opacity:0.19587629"
     d="m 48.5,236.5 0,-8 L 67,215 90,217.5 102,207 101.5,237 80,232.5 z"
     id="path23380"
     inkscape:connector-curvature="0" />
  <path
     style="fill:#059fb9;stroke:none;stroke-width:1px;stroke-linecap:butt;stroke-linejoin:miter;stroke-opacity:1;fill-opacity:0.19587629"
     d="m 46.5,205.75 2.25,-27.5 -10,-3.75 0,-3.25 64.25,-3 6.5,1.75 -8,7.75 0.25,23.25 -15,-7.75 L 70,200.5 z"
     id="path23382"
     inkscape:connector-curvature="0" />
</svg>
