<?xml version="1.0" encoding="UTF-8" standalone="no"?>
<!-- Created with Inkscape (http://www.inkscape.org/) -->

<svg
   xmlns:dc="http://purl.org/dc/elements/1.1/"
   xmlns:cc="http://creativecommons.org/ns#"
   xmlns:rdf="http://www.w3.org/1999/02/22-rdf-syntax-ns#"
   xmlns:svg="http://www.w3.org/2000/svg"
   xmlns="http://www.w3.org/2000/svg"
   xmlns:sodipodi="http://sodipodi.sourceforge.net/DTD/sodipodi-0.dtd"
   xmlns:inkscape="http://www.inkscape.org/namespaces/inkscape"
   id="svg22662"
   version="1.1"
   inkscape:version="0.48.4 r9939"
   width="275"
   height="500"
   sodipodi:docname="Antitoxin.svg">
  <metadata
     id="metadata22668">
    <rdf:RDF>
      <cc:Work
         rdf:about="">
        <dc:format>image/svg+xml</dc:format>
        <dc:type
           rdf:resource="http://purl.org/dc/dcmitype/StillImage" />
        <dc:title />
      </cc:Work>
    </rdf:RDF>
  </metadata>
  <defs
     id="defs22666">
    <filter
       id="filter23344"
       y="-0.25"
       height="1.5"
       inkscape:menu-tooltip="Darkens the edge with an inner blur and adds a flexible glow"
       inkscape:menu="Shadows and Glows"
       inkscape:label="Dark and Glow"
       color-interpolation-filters="sRGB"
       x="-0.28999999"
       width="1.6799999">
      <feGaussianBlur
         id="feGaussianBlur23346"
         stdDeviation="5"
         result="result6" />
      <feComposite
         id="feComposite23348"
         in2="result6"
         result="result8"
         in="SourceGraphic"
         operator="atop" />
      <feComposite
         id="feComposite23350"
         in2="SourceAlpha"
         result="result9"
         operator="over"
         in="result8" />
      <feColorMatrix
         id="feColorMatrix23352"
         values="1 0 0 0 0 0 1 0 0 0 0 0 1 0 0 0 0 0 1 0 "
         result="result10" />
      <feBlend
         id="feBlend23354"
         in2="result6"
         in="result10"
         mode="normal" />
    </filter>
    <filter
       id="filter23356"
       y="-0.25"
       height="1.5"
       inkscape:menu-tooltip="Darkens the edge with an inner blur and adds a flexible glow"
       inkscape:menu="Shadows and Glows"
       inkscape:label="Dark and Glow"
       color-interpolation-filters="sRGB"
       x="-0.46000001"
       width="1.77">
      <feGaussianBlur
         id="feGaussianBlur23358"
         stdDeviation="5"
         result="result6" />
      <feComposite
         id="feComposite23360"
         in2="result6"
         result="result8"
         in="SourceGraphic"
         operator="atop" />
      <feComposite
         id="feComposite23362"
         in2="SourceAlpha"
         result="result9"
         operator="over"
         in="result8" />
      <feColorMatrix
         id="feColorMatrix23364"
         values="1 0 0 0 0 0 1 0 0 0 0 0 1 0 0 0 0 0 1 0 "
         result="result10" />
      <feBlend
         id="feBlend23366"
         in2="result6"
         in="result10"
         mode="normal" />
    </filter>
    <filter
       id="filter23368"
       y="-0.25999999"
       height="1.51"
       inkscape:menu-tooltip="Darkens the edge with an inner blur and adds a flexible glow"
       inkscape:menu="Shadows and Glows"
       inkscape:label="Dark and Glow"
       color-interpolation-filters="sRGB"
       width="2.0699999"
       x="-0.49000001">
      <feGaussianBlur
         id="feGaussianBlur23370"
         stdDeviation="17.439449541284404"
         result="result6" />
      <feComposite
         id="feComposite23372"
         in2="result6"
         result="result8"
         in="SourceGraphic"
         operator="atop" />
      <feComposite
         id="feComposite23374"
         in2="SourceAlpha"
         result="result9"
         operator="over"
         in="result8" />
      <feColorMatrix
         id="feColorMatrix23376"
         values="1 0 0 0 0 0 1 0 0 0 0 0 1 0 0 0 0 0 1 0 "
         result="result10" />
      <feBlend
         id="feBlend23378"
         in2="result6"
         in="result10"
         mode="normal" />
    </filter>
  </defs>
  <sodipodi:namedview
     pagecolor="#ffffff"
     bordercolor="#666666"
     borderopacity="1"
     objecttolerance="10"
     gridtolerance="10"
     guidetolerance="10"
     inkscape:pageopacity="0"
     inkscape:pageshadow="2"
     inkscape:window-width="1199"
     inkscape:window-height="724"
     id="namedview22664"
     showgrid="false"
     inkscape:zoom="0.7071068"
     inkscape:cx="67.963203"
     inkscape:cy="264.05393"
     inkscape:window-x="1"
     inkscape:window-y="22"
     inkscape:window-maximized="0"
     inkscape:current-layer="svg22662"
     showguides="true"
     inkscape:guide-bbox="true" />
  <path
     style="fill:#b9af05;fill-opacity:0.68298974;stroke:none"
     d="m 32.278236,193.35816 6.077737,-5.54923 5.813486,-0.79275 0,4.75649 -6.606235,2.90674 1.056998,5.54924 1.056998,5.28499 -4.49224,-2.11399 -3.963742,-4.22799 z"
     id="path23388"
     inkscape:connector-curvature="0" />
  <path
     style="fill:#b9af05;fill-opacity:0.68298974;stroke:none"
     d="m 103.36133,202.87114 9.51298,-5.02073 -0.52851,4.49224 -6.60623,2.37824 z"
     id="path23386"
     inkscape:connector-curvature="0" />
  <path
     style="fill:#b9af05;fill-opacity:0.68298974;stroke:none"
     d="m 101.77583,189.39442 0,-4.49223 9.51297,-2.6425 4.49225,6.34199 -1.32125,3.43524 -6.34199,-3.17099 z"
     id="path23384"
     inkscape:connector-curvature="0" />
  <path
     style="fill:#038ad2;fill-opacity:0.35643568;stroke:none;filter:url(#filter23344)"
     d="m 52,346.75 c 16.905249,-6.56542 49.45456,-11.32576 50.25,-19.75 4.1667,-19.41667 0,-38.83333 0,-58.25 -17.583333,7.67382 -35.166667,6.96107 -52.75,2 z"
     id="path23194"
     inkscape:connector-curvature="0"
     sodipodi:nodetypes="ccccc"
     transform="matrix(1.0569977,0,0,1.0569977,-6.8306789,-37.860077)" />
  <path
     style="fill:#038ad2;fill-opacity:0.35643568;stroke:none;filter:url(#filter23356)"
     d="m 49,405 1,-35.25 c 11.656417,-12.78632 36.718094,-14.40159 55.5,-21.25 l -1.75,31.75 z"
     id="path23192"
     inkscape:connector-curvature="0"
     sodipodi:nodetypes="ccccc"
     transform="matrix(1.0569977,0,0,1.0569977,-6.8306789,-37.860077)" />
  <path
     style="fill:#038ad2;fill-opacity:0.35643568;stroke:none;filter:url(#filter23368)"
     d="m 48.75,431 2,-6.75 53,-24.5 1.5,15.5 -1.5,46.5 c -4.92095,7.83623 -2.30149,18.02687 -26,20 -9.046455,-3.16137 -17.836548,0.0863 -27.5,-18.5 z"
     id="path23190"
     inkscape:connector-curvature="0"
     sodipodi:nodetypes="cccccccc"
     transform="matrix(1.0569977,0,0,1.0569977,-6.8306789,-37.860077)" />
  <path
     style="fill:#000000"
     d="m 63.708005,471.39934 c -5.345923,-2.48059 -15.475494,-12.12298 -16.978498,-16.1619 -2.08744,-5.60945 -2.170247,-6.28944 -2.71848,-22.32344 -0.152073,-4.4475 -0.685178,-6.25535 -2.001417,-6.78701 -4.498087,-1.81685 -9.837852,-11.6479 -9.403378,-17.31255 0.226602,-2.95444 5.014159,-12.68856 8.218735,-16.71041 2.554959,-3.20656 2.967376,-4.73959 3.642266,-13.53881 l 0.761068,-9.92279 -3.850614,-4.15276 c -5.213199,-5.62225 -6.720956,-10.05282 -6.114017,-17.96608 0.395668,-5.15871 1.164407,-7.54717 3.523082,-10.94617 1.659331,-2.39123 4.012659,-4.78618 5.229599,-5.32213 1.34341,-0.59166 2.061775,-1.68947 1.828608,-2.79453 -0.211209,-1.00105 -0.41597,-8.50117 -0.455014,-16.66695 -0.03905,-8.16578 -0.15885,-15.8077 -0.266245,-16.98205 -0.107394,-1.17435 -0.07835,-4.12152 0.06452,-6.54925 0.197135,-3.34979 -0.205903,-4.60218 -1.671618,-5.19421 -3.625599,-1.46446 -12.104545,-12.59656 -14.691938,-19.28925 -3.440407,-8.89911 -4.913368,-20.78192 -3.493406,-28.18226 1.482727,-7.72743 6.340696,-15.972 12.371821,-20.99645 4.473763,-3.72705 4.77199,-4.24757 3.370196,-5.88225 -0.845831,-0.98636 -2.452401,-1.86353 -3.570149,-1.94925 -1.117748,-0.0857 -4.484188,-2.99213 -7.480963,-6.45867 -4.525065,-5.2344 -5.304396,-6.73464 -4.597493,-8.85039 0.680707,-2.03735 0.366716,-2.77559 -1.56776,-3.68599 -3.468167,-1.6322 -8.246323,-11.18014 -9.533809,-19.05096 -2.028393,-12.40012 1.79441,-39.35519 6.643774,-47.0411 8.764646,-16.57217 11.821987,-21.640536 19.044651,-27.035738 2.685805,-2.303139 7.456521,-4.803769 11.907172,-6.241267 21.991448,-5.813455 -3.432062,-0.84905 44.844937,-10.585401 21.606435,-4.36084 32.758885,-7.122417 36.200955,-8.964112 6.37791,-3.412523 10.0295,-4.471771 17.66175,-5.123272 9.13641,-0.779909 13.68388,1.299107 18.27824,8.356472 6.85418,10.528672 8.19445,11.809352 11.9964,11.463116 8.75941,-0.797718 19.72414,-2.437568 21.96851,-3.285537 1.36138,-0.514353 3.83347,-2.458579 5.49356,-4.320501 2.48817,-2.790692 2.85789,-3.823571 2.10488,-5.88023 -0.64624,-1.765027 -0.54632,-2.809732 0.34154,-3.571102 1.83754,-1.575745 0.37337,-2.672088 -3.84009,-2.875378 -2.62927,-0.126861 -6.10324,1.220602 -11.96024,4.639057 -10.07206,5.878603 -13.83062,7.028115 -16.79507,5.136571 -1.62764,-1.038553 -2.01071,-2.176287 -1.57216,-4.669684 0.71359,-4.05746 5.62417,-7.126997 12.91081,-8.070378 2.77577,-0.359372 7.85929,-1.002035 11.29672,-1.428144 10.14044,-1.257022 13.72266,-6.680013 8.46362,-12.812794 L 206.77941,42.458826 192.13392,41.96352 C 184.0789,41.691103 176.00537,40.917012 174.19276,40.243318 168.86117,38.261716 155.57292,27.37953 152.89325,22.800434 146.48957,11.857654 158.9078,6.1165027 181.42623,9.609176 c 12.93872,2.006834 19.95246,4.621049 25.1916,9.389629 11.22267,10.214632 21.19596,28.514459 20.4982,37.611778 -0.79208,10.327216 3.8403,15.916513 17.15207,20.695128 7.97318,2.862174 12.31187,6.011693 15.89281,11.53678 4.79177,7.393324 4.15127,8.926386 -8.54304,20.447849 -4.60841,4.18262 -13.814,15.29623 -13.93072,16.81811 -0.0209,0.27161 1.26318,0.88599 2.85338,1.3653 4.56036,1.37455 9.31385,5.27885 10.2366,8.40784 1.58336,5.36913 -5.66051,17.74917 -12.29417,21.01118 -7.64596,3.7598 -17.84034,-2.48638 -17.16827,-10.5192 0.36365,-4.34594 3.90965,-10.71501 8.41757,-15.1188 1.97375,-1.92816 3.60625,-3.73529 3.62777,-4.01583 0.0215,-0.28055 -2.83938,-1.85344 -6.35755,-3.49533 -5.1304,-2.39429 -8.52598,-3.16028 -17.1531,-3.86953 -10.31493,-0.84797 -10.87383,-1.01544 -13.61743,-4.07955 l -2.86099,-3.19524 -13.11333,0.14399 c -18.75491,0.20598 -23.94154,1.25076 -31.83125,6.41202 -7.62191,4.98606 -13.53016,10.44961 -15.24847,14.10076 -1.7328,3.68194 -2.02036,10.54794 -0.83077,19.83627 1.58322,12.36184 -0.0359,20.68433 -5.28854,27.18427 -2.29502,2.83996 -4.25359,6.21749 -4.35239,7.50561 -0.0988,1.28814 -1.45621,3.43677 -3.01647,4.77474 -1.56027,1.33797 -2.90515,3.32325 -2.98863,4.41171 -0.26934,3.51167 -5.74978,8.02137 -10.19175,8.3865 l -4.08032,0.33539 -3.5e-4,5.44427 c -2.1e-4,2.99436 0.0131,11.40838 0.0295,18.69785 0.0164,7.28945 -9.6e-4,17.06752 -0.04,21.72902 -0.0384,4.66151 0.31036,14.1622 0.77499,21.11267 0.7201,10.77221 1.15071,12.78263 2.91778,13.62257 6.36817,3.02696 10.41728,11.2238 10.36728,20.98715 -0.038,7.40603 -2.05837,12.06043 -8.26061,19.02963 -2.42676,2.72686 -2.81584,4.18108 -3.47416,12.98482 l -0.74132,9.91405 5.01626,3.85856 c 9.27311,7.13298 9.68676,15.74055 1.25006,26.01255 l -4.44236,5.40873 -0.71933,21.06859 c -0.97754,28.63085 -0.98472,28.57591 4.15086,31.70018 6.80521,4.14005 16.75326,12.89187 17.75075,15.61627 2.10395,5.74633 -5.34288,7.60103 -16.2583,4.04924 -3.80821,-1.23915 -7.24302,-2.27623 -7.63293,-2.3046 -0.38985,-0.0289 -1.40923,1.6267 -2.26521,3.67795 -2.020899,4.8429 -8.527265,10.9704 -14.155745,13.33143 -5.604061,2.3508 -17.684651,2.22883 -22.988203,-0.23213 z m 20.527441,-1.2838 c 5.532853,-1.08926 12.283565,-7.72946 15.160369,-14.91216 2.558615,-6.3883 2.625085,-7.37245 3.139485,-46.47257 0.18481,-14.04821 -0.11803,-22.00453 -0.83956,-22.05697 -0.62075,-0.0455 -3.373908,1.20254 -6.118081,2.77259 -2.744173,1.57003 -10.659971,5.26065 -17.590668,8.20137 -14.073303,5.97137 -24.825024,11.00513 -26.117004,12.22754 -0.470479,0.44514 -0.236428,0.51366 0.520111,0.15227 0.756538,-0.36139 1.337003,-0.15483 1.28992,0.45903 -0.04708,0.61386 -1.392113,1.04613 -2.988959,0.96061 l -2.903356,-0.15547 2.550069,1.30621 2.550071,1.30622 -3.794782,1.10073 c -3.275591,0.95012 -3.721028,1.89639 -0.735468,1.5624 0.540629,-0.0605 0.313738,0.58119 -0.504193,1.42594 -1.292829,1.3352 -1.024413,1.59356 2.05414,1.97718 l 3.541287,0.44124 -3.457785,0.16235 c -3.918157,0.18398 -4.844909,1.98658 -1.245984,2.42354 2.267194,0.27524 2.253526,0.31301 -0.336251,0.92864 -2.525013,0.60025 -2.462448,0.67768 0.96819,1.19835 l 3.667666,0.55662 -3.457786,0.16237 c -3.912541,0.1837 -4.857423,2.00155 -1.243609,2.39256 2.257199,0.24426 2.265836,0.29003 0.188324,1.00003 -2.407978,0.82293 -1.675026,1.17651 3.066836,1.47943 l 3.164802,0.20214 -3.21945,0.51035 c -3.044763,0.48267 -3.110288,0.58704 -1.207638,1.92358 1.888972,1.32691 1.834701,1.40159 -0.888877,1.22297 -3.129675,-0.20528 -4.266512,1.77639 -1.223708,2.13309 1.603226,0.18796 1.569886,0.29769 -0.260407,0.85725 -1.465132,0.44792 -1.735245,0.90705 -0.894391,1.52031 0.662563,0.4832 0.897957,1.29911 0.523084,1.81314 -0.374882,0.51401 0.647724,1.07419 2.272451,1.24484 1.624729,0.17062 2.22447,0.49296 1.332758,0.71626 -4.716793,1.18115 -4.873103,1.3406 -2.30017,2.3464 l 2.573107,1.00586 -2.652378,0.0276 c -2.514252,0.0262 -2.490939,0.0823 0.447625,1.07468 2.506258,0.84648 2.644001,1.03606 0.719157,0.98984 -3.984167,-0.0957 -2.813716,2.01813 1.396687,2.52241 3.878377,0.46449 3.885809,0.47429 0.481413,0.63413 -4.735898,0.22237 -4.507334,2.02905 0.329989,2.60841 3.906602,0.46788 3.91042,0.47312 0.461297,0.63409 -3.773701,0.17611 -3.855747,2.06946 -0.107389,2.47821 2.220741,0.24221 2.225266,0.27788 0.126123,0.99526 -1.614842,0.55188 -0.684373,0.9167 3.602035,1.41231 5.699136,0.65894 5.720067,0.67368 1.508635,1.06282 l -4.270676,0.39465 5.701085,1.32281 c 4.295022,0.99657 5.172733,1.48393 3.558794,1.97608 -2.120093,0.6465 -2.120573,0.65648 -0.04589,0.96308 2.096441,0.30981 2.096441,0.30981 -0.08697,1.13396 -1.562769,0.58988 -0.439811,0.85495 3.950538,0.93249 4.786356,0.0846 5.991529,0.40855 5.485695,1.47483 -0.799877,1.68607 6.281087,2.4233 12.159654,1.26599 z m -18.043477,-4.20555 c 0.784141,-0.24608 1.690261,-0.13892 2.013607,0.23809 0.32334,0.37706 -0.318231,0.5784 -1.425703,0.44745 -1.223863,-0.14477 -1.454433,-0.41363 -0.5879,-0.68557 z M 50.215627,439.24218 c 0.784141,-0.24609 1.690261,-0.13893 2.013605,0.23808 0.323342,0.37706 -0.318229,0.57841 -1.425702,0.44743 -1.223863,-0.14474 -1.454433,-0.41361 -0.5879,-0.68555 z m 72.947653,17.03631 c 2.58633,-1.37362 0.76349,-4.76735 -5.20713,-9.69455 -5.54395,-4.57508 -11.53757,-8.6675 -12.84051,-8.76742 -1.05516,-0.081 -1.32022,13.7146 -0.27811,14.47462 3.87125,2.82333 15.67982,5.39266 18.32575,3.98735 z m -8.49432,-8.75871 c -0.68241,-0.90474 -0.80586,-1.61163 -0.27433,-1.57086 0.53151,0.0408 1.50223,0.83078 2.15714,1.75559 1.53406,2.1663 -0.2409,1.99215 -1.88281,-0.18468 z M 46.445492,410.33829 c 2.113755,-1.93028 22.640876,-11.73672 35.032086,-16.73592 2.707534,-1.09234 8.993371,-4.0549 13.968532,-6.58346 15.96792,-8.11546 22.54126,-19.92213 15.73697,-28.26585 -1.5988,-1.96052 -3.77198,-4.12281 -4.82931,-4.80509 -1.80428,-1.16429 -1.90879,-0.91133 -1.70082,4.1166 0.19567,4.7312 -0.10475,5.6369 -2.57118,7.75196 -1.536,1.31717 -7.567243,4.11271 -13.40276,6.21231 -37.871626,13.62607 -45.941157,18.2989 -51.209749,29.65405 -2.633001,5.67479 -2.88008,6.96007 -2.060795,10.72 0.512007,2.3497 2.317752,6.1241 4.012778,8.38758 l 3.081864,4.1154 0.802531,-6.21657 c 0.582114,-4.50917 1.44448,-6.80279 3.139853,-8.35101 z m -7.686543,1.18668 c 0.04445,-0.57965 0.555089,-1.01752 1.134735,-0.97307 0.579647,0.0445 1.017527,0.55509 0.973069,1.13474 -0.04445,0.57964 -0.555088,1.01753 -1.134735,0.97308 -0.579647,-0.0445 -1.017527,-0.5551 -0.973069,-1.13475 z m 0.484999,-6.32341 c 0.04445,-0.57964 0.583081,-1.01538 1.196938,-0.96829 0.613855,0.0471 0.786617,0.53737 0.383916,1.08954 -0.402701,0.55217 -0.941324,0.98791 -1.196936,0.9683 -0.255615,-0.0197 -0.428376,-0.5099 -0.383918,-1.08955 z m 1.430994,-4.83567 c 0.05431,-0.70812 3.154948,-3.29341 3.882952,-3.23757 1.626308,0.12473 0.09995,3.01254 -1.771495,3.35159 -1.182544,0.21425 -2.1327,0.16295 -2.111457,-0.11402 z m 7.281606,-5.09711 c 0.4027,-0.55217 0.941323,-0.9879 1.196937,-0.9683 0.255613,0.0197 0.428375,0.50991 0.383916,1.08956 -0.04445,0.57965 -0.583081,1.01537 -1.196936,0.9683 -0.613857,-0.0471 -0.786618,-0.53738 -0.383917,-1.08956 z m 2.796422,-1.90572 c 0.04445,-0.57964 0.583081,-1.01537 1.196937,-0.9683 0.613856,0.0472 0.786617,0.53738 0.383916,1.08956 -0.402701,0.55217 -0.941323,0.9879 -1.196937,0.96829 -0.255612,-0.0197 -0.428375,-0.5099 -0.383916,-1.08955 z m 6.318155,-2.90183 c 1.369558,-1.17445 2.742066,-1.84153 3.050014,-1.48243 0.727797,0.84872 -2.750792,3.83172 -4.327303,3.71079 -0.667056,-0.0512 -0.09226,-1.05393 1.277289,-2.22836 z m 4.610365,-1.36811 c 0.09769,-1.27368 2.211053,-2.60532 2.885878,-1.81839 0.244921,0.28561 -0.323547,1.06377 -1.263261,1.72922 -1.065376,0.75444 -1.676216,0.78802 -1.622617,0.0892 z m 4.382649,-1.8545 c 0.06719,-0.87598 4.902296,-3.98633 6.058933,-3.89761 0.292027,0.0224 0.203412,0.73117 -0.19692,1.57505 -0.400332,0.84388 -1.388524,1.48365 -2.195973,1.42171 -0.807446,-0.0619 -1.504471,0.36167 -1.548929,0.94132 -0.04446,0.57964 -0.555089,1.01751 -1.134736,0.97306 -0.579646,-0.0445 -1.02171,-0.50054 -0.982365,-1.01353 z m 10.506368,-5.67671 c 0.402699,-0.55216 0.941323,-0.9879 1.196936,-0.96829 0.255614,0.0197 0.428374,0.5099 0.383917,1.08955 -0.04445,0.57963 -0.583081,1.01538 -1.196938,0.96829 -0.613855,-0.0471 -0.786617,-0.53737 -0.383915,-1.08955 z m 3.741869,-0.41085 c 0.11255,-1.46742 3.157825,-2.88352 4.722637,-2.1961 1.456421,0.63981 1.175281,0.9714 -1.482246,1.74817 -1.803759,0.52723 -3.261934,0.7288 -3.240391,0.44793 z m 7.723503,-3.94771 c 0.04186,-0.54543 0.572799,-1.24844 1.179916,-1.56223 0.60713,-0.31378 1.047157,0.16884 0.97784,1.07254 -0.06934,0.90369 -0.600269,1.60668 -1.179917,1.56223 -0.579646,-0.0445 -1.019675,-0.5271 -0.977839,-1.07254 z m 5.342588,-0.5486 c 0.104214,-1.3591 3.69936,-3.77831 6.567294,-4.41923 1.756459,-0.39254 2.307039,-0.22309 1.751259,0.53899 -0.44583,0.61132 -1.48999,1.05938 -2.320331,0.9957 -0.830355,-0.0637 -2.174833,0.78729 -2.987735,1.89105 -1.512443,2.05357 -3.132804,2.58831 -3.010487,0.99349 z m 9.009573,-6.89399 c 0.0445,-0.57964 0.58308,-1.01538 1.19694,-0.96829 0.61385,0.0471 0.78661,0.53738 0.38391,1.08955 -0.4027,0.55217 -0.94131,0.9879 -1.19693,0.9683 -0.25562,-0.0197 -0.42839,-0.50991 -0.38392,-1.08956 z m 2.3503,-3.00004 c 0.0445,-0.57963 0.5551,-1.01752 1.13474,-0.97306 0.57964,0.0445 1.01752,0.55508 0.97306,1.13473 -0.0445,0.57965 -0.55509,1.01752 -1.13473,0.97307 -0.57964,-0.0445 -1.01753,-0.55509 -0.97307,-1.13474 z m 1.90419,-4.09435 c -0.31379,-0.60713 -0.0683,-1.06534 0.54558,-1.01826 0.61385,0.0471 1.07972,0.55986 1.03527,1.1395 -0.0445,0.57965 -0.28997,1.03787 -0.54559,1.01826 -0.2556,-0.0197 -0.72148,-0.53239 -1.03526,-1.1395 z m -56.296797,22.18464 c 1.341704,-0.72806 1.205679,-0.93826 -0.710831,-1.09839 -1.303558,-0.10846 -2.406418,0.27625 -2.450876,0.8559 -0.101281,1.32045 1.017167,1.40624 3.161707,0.24249 z m 8.872436,-4.23723 c 3.268944,-1.28792 13.239225,-5.02929 22.156158,-8.31414 8.916943,-3.28484 17.22776,-6.75529 18.468455,-7.7121 2.063088,-1.59101 2.246298,-2.51027 2.144338,-10.75906 -0.0613,-4.96068 0.21504,-11.97591 0.61415,-15.58939 0.39909,-3.6135 0.44197,-6.59175 0.0953,-6.61834 -0.34668,-0.0265 -3.097902,0.97312 -6.113843,2.22156 -3.015931,1.24845 -11.603833,3.92656 -19.084217,5.95136 -13.699733,3.70823 -23.290714,7.39033 -25.681471,9.85947 -1.003715,1.03663 -0.935084,1.22959 0.305728,0.8595 1.003313,-0.29924 1.5513,0.15799 1.469388,1.22597 -0.08692,1.13317 -0.764781,1.48433 -2.025466,1.04925 -1.042151,-0.35969 -1.662029,-0.20361 -1.377511,0.34694 0.284522,0.55051 -0.345789,1.00241 -1.400688,1.00424 -1.054897,0.002 -0.04701,0.48849 2.239716,1.08147 3.92394,1.01749 3.967981,1.07202 0.783265,0.96973 -4.283127,-0.13757 -5.858692,1.76635 -1.890503,2.28447 l 2.94832,0.38497 -2.931905,0.21676 c -4.058376,0.30003 -3.825432,2.10033 0.332785,2.57195 l 3.415618,0.3874 -3.223413,0.56202 c -3.16033,0.55102 -3.141308,0.57351 0.971992,1.14879 l 4.195405,0.58675 -3.654867,0.37521 c -5.273893,0.5414 -5.822684,2.88496 -0.623374,2.66206 l 4.058632,-0.174 -4.329188,1.1575 -4.329187,1.1575 4.198859,0.54172 4.19886,0.54171 -3.541858,0.55705 c -5.008871,0.78777 -5.812556,1.92432 -1.425998,2.01658 5.313363,0.11178 6.380373,0.66844 2.119657,1.10583 -5.111981,0.52478 -5.553809,2.52945 -0.563463,2.55654 l 3.991807,0.0216 -3.547478,0.63032 c -5.195864,0.92324 -5.506894,1.77143 -0.825623,2.25147 l 4.119668,0.42247 -4.227713,0.65478 c -5.574412,0.86334 -6.149978,1.51659 -1.640951,1.86242 2.016884,0.15469 6.341658,-0.7725 9.610613,-2.06041 z M 43.281984,360.35019 c -0.778358,-4.55202 1.934164,-9.2976 7.376022,-12.90441 5.412004,-3.58702 11.523521,-5.77726 30.970629,-11.0993 17.802658,-4.87202 23.625435,-8.46506 29.699465,-18.32661 2.62548,-4.26264 3.07587,-5.95907 3.00165,-11.3062 -0.0925,-6.66396 -3.25491,-13.48738 -7.94857,-17.15038 l -2.29867,-1.79392 0.23483,5.6775 c 0.12914,3.12263 0.69809,6.33173 1.26432,7.1313 0.74889,1.05754 0.64811,1.55995 -0.36975,1.8433 -1.06312,0.29596 -1.15566,0.88536 -0.38519,2.45361 0.79458,1.61734 0.62637,2.31496 -0.77727,3.22328 -1.17089,0.75769 -1.33594,1.2058 -0.47653,1.29374 0.72315,0.074 1.25579,0.90402 1.18366,1.84446 -0.10085,1.31486 -0.43852,1.41228 -1.46159,0.42169 -1.01719,-0.98489 -1.84199,-0.80325 -3.503206,0.77148 -3.234137,3.0658 -10.043188,6.0055 -18.532592,8.00115 -25.110777,5.90292 -35.287515,9.98184 -39.962409,16.0172 -4.909359,6.33811 -5.168912,16.89695 -0.583687,23.74559 2.435594,3.63787 3.17185,3.68274 2.568888,0.15652 z m -3.982958,-11.15314 c 0.09632,-1.2559 0.607429,-2.25029 1.135792,-2.20977 1.071461,0.0821 0.704838,2.76465 -0.521596,3.81635 -0.434139,0.37229 -0.710521,-0.35069 -0.614196,-1.60658 z m 8.968571,-13.27012 c 0.402702,-0.55217 1.206433,-0.96757 1.78608,-0.92312 0.579646,0.0445 0.724427,0.5326 0.321726,1.08478 -0.402701,0.55216 -1.206433,0.96756 -1.786079,0.92311 -0.579647,-0.0445 -0.724427,-0.53261 -0.321727,-1.08477 z m 9.352796,-4.45804 c 0.04445,-0.57965 0.57757,-1.31064 1.184693,-1.62442 0.607123,-0.31378 1.067485,-0.0963 1.023026,0.4834 -0.04445,0.57964 -0.57757,1.31063 -1.184692,1.62441 -0.607125,0.31379 -1.067485,0.0963 -1.023027,-0.48339 z m 6.48508,-1.62281 c 0.04445,-0.57965 0.57757,-1.31062 1.184693,-1.62441 0.607123,-0.31378 1.067485,-0.0963 1.023026,0.48339 -0.04445,0.57965 -0.57757,1.31063 -1.184692,1.62442 -0.607124,0.31378 -1.067485,0.0963 -1.023027,-0.4834 z m 5.96767,-1.78761 c 0.402701,-0.55217 0.941324,-0.98791 1.196937,-0.9683 0.255613,0.0196 0.428375,0.50991 0.383917,1.08954 -0.04445,0.57965 -0.583082,1.01538 -1.196937,0.96831 -0.613855,-0.0471 -0.786618,-0.53738 -0.383917,-1.08955 z m 5.998546,-2.19018 c 0.06669,-0.86947 0.580624,-1.54562 1.142081,-1.50255 0.561445,0.043 0.693276,0.76874 0.292944,1.61262 -0.400342,0.84388 -0.914269,1.52003 -1.14208,1.50256 -0.227801,-0.0174 -0.359632,-0.74315 -0.292945,-1.61263 z m 3.729076,-0.24403 c 0.402699,-0.55218 1.20643,-0.96757 1.786078,-0.92312 0.579646,0.0445 0.724426,0.53261 0.321726,1.08479 -0.402702,0.55216 -1.206433,0.96757 -1.786079,0.9231 -0.579647,-0.0445 -0.724427,-0.53261 -0.321725,-1.08477 z m 4.894685,-1.61966 c 0.04445,-0.57966 0.57757,-1.31063 1.184693,-1.62441 0.607123,-0.31379 1.067484,-0.0963 1.023026,0.48338 -0.04446,0.57965 -0.57757,1.31064 -1.184692,1.62442 -0.607124,0.31378 -1.067485,0.0963 -1.023027,-0.48339 z m 4.36949,-1.40577 c 0.800983,-0.82724 1.656728,-1.27039 1.901649,-0.98478 0.674817,0.78694 -0.963541,2.6725 -2.237235,2.57482 -0.698833,-0.0536 -0.572501,-0.65218 0.335586,-1.59004 z m 3.169497,-0.1362 c 0.04449,-0.57966 0.57756,-1.31063 1.184694,-1.62442 0.607115,-0.31378 1.067476,-0.0963 1.023024,0.48339 -0.04449,0.57966 -0.577579,1.31063 -1.184694,1.62442 -0.607124,0.31378 -1.067486,0.0963 -1.023024,-0.48339 z m 5.723631,-5.5167 c 1.472517,-1.34469 3.151562,-2.40853 3.731212,-2.36407 0.57964,0.0445 -0.15091,1.18103 -1.6234,2.52574 -1.472529,1.3447 -3.151569,2.40854 -3.731214,2.36408 -0.579646,-0.0445 0.150896,-1.18105 1.623402,-2.52575 z m -45.061676,5.85466 c 0.254092,-0.14549 -0.565562,-0.34335 -1.821455,-0.43967 -1.403735,-0.10767 -2.333986,0.48362 -2.414606,1.53475 -0.11226,1.46365 0.150049,1.52698 1.821455,0.43968 1.073932,-0.69861 2.160504,-1.38926 2.414606,-1.53476 z m 18.071818,-2.08612 c 21.184354,-5.58268 23.506858,-6.43451 27.473681,-10.07672 3.575069,-3.28249 3.683149,-4.9284 2.161619,-32.91647 -0.642717,-11.82251 -1.039165,-23.18275 -0.880998,-25.245 0.158178,-2.06225 0.110099,-3.76316 -0.106854,-3.77981 -0.216944,-0.0166 -2.520561,0.54135 -5.119138,1.23997 -8.285703,2.22758 -26.345145,3.00087 -37.105147,1.58881 -5.575514,-0.7317 -8.837533,-0.85001 -7.400127,-0.26843 2.464807,0.99729 2.472668,1.03689 0.191147,0.96322 -2.307557,-0.0745 -3.666846,1.94464 -1.4249,2.11659 0.613857,0.0471 0.786617,0.53739 0.383917,1.08955 -0.424654,0.58228 0.727135,1.18714 2.74226,1.44008 l 3.474448,0.43614 -3.457784,0.16237 c -3.961036,0.18598 -5.036998,3.01707 -1.328138,3.49463 1.77738,0.22888 1.896321,0.38839 0.480607,0.64465 -1.034712,0.18728 -1.915003,0.78 -1.956202,1.31714 -0.0412,0.53715 0.750823,1.0953 1.760047,1.24034 1.747576,0.25114 1.74537,0.27992 -0.04635,0.60423 -3.105235,0.56205 -2.270902,2.36368 0.909475,1.96388 l 2.943661,-0.37003 -3.279864,1.29805 -3.279867,1.29806 3.145765,0.45034 c 2.279034,0.32628 2.554298,0.54551 0.999075,0.79569 -3.493631,0.56199 -4.584496,2.06438 -1.718701,2.36707 2.380146,0.25135 2.410547,0.32879 0.399105,1.0162 -1.900543,0.64951 -1.777533,0.80256 0.967742,1.20419 2.786863,0.40769 2.851336,0.49245 0.566141,0.74424 -1.995512,0.21985 -2.258572,0.52305 -1.162905,1.34035 1.145663,0.85458 1.063656,1.0323 -0.429598,0.9309 -2.080569,-0.14123 -2.730346,1.88086 -0.696236,2.16673 1.048793,0.14744 1.039366,0.27035 -0.04715,0.61478 -0.746982,0.23678 -1.40968,1.10239 -1.472663,1.92355 -0.06299,0.82117 0.475434,1.57595 1.196483,1.67728 1.048793,0.14744 1.039367,0.27035 -0.04715,0.61477 -2.397057,0.75987 -1.596779,2.35078 1.379776,2.74289 l 2.88612,0.3802 -2.931905,0.21675 c -1.612548,0.11923 -2.965864,0.65951 -3.00737,1.20066 -0.04151,0.54114 1.223291,1.15498 2.810656,1.36409 l 2.88612,0.3802 -2.931906,0.21676 c -1.612548,0.11921 -2.969808,0.71092 -3.016133,1.3149 -0.04911,0.64034 1.14318,0.94156 2.859863,0.72255 2.940963,-0.37521 2.940607,-0.37428 -0.3319,0.8719 l -3.27599,1.24752 3.672901,0.48837 c 3.225384,0.42884 3.315668,0.51475 0.740996,0.7051 -1.61255,0.11922 -2.96082,0.59374 -2.996162,1.05451 -0.03533,0.46077 1.253249,0.7644 2.863529,0.67476 l 2.927783,-0.16301 -3.286775,1.38814 -3.286776,1.38813 3.200119,-0.25829 3.200118,-0.25831 -2.989189,0.96361 c -3.37361,1.08755 -4.050925,2.5849 -1.276556,2.82212 1.575104,0.13471 1.601842,0.28852 0.18388,1.05798 -1.288864,0.69941 -0.956477,0.99336 1.489147,1.31693 l 3.148358,0.41654 -2.931906,0.21674 c -3.23626,0.23927 -4.149633,2.03125 -1.247882,2.44828 1.747577,0.25115 1.745371,0.27992 -0.04635,0.60423 -3.128165,0.5662 -2.257001,2.26689 1.383067,2.7 2.862705,0.34061 2.982741,0.44994 0.743165,0.67681 -4.556624,0.46161 -5.041591,1.98711 -0.578007,1.81819 3.358622,-0.1271 3.639121,-0.0164 1.454596,0.57444 l -2.706392,0.73191 2.621575,0.37395 2.621575,0.37393 -2.63042,0.82431 c -1.893535,0.59337 -2.830579,0.43704 -3.344892,-0.55806 -0.986326,-1.90841 -2.149977,-0.67332 -1.480484,1.57137 0.441612,1.48063 1.482872,1.78974 5.466035,1.62264 3.506544,-0.14708 4.293022,0.0311 2.736902,0.62013 -1.20098,0.45459 -1.713188,0.91304 -1.138243,1.01879 0.574942,0.10579 -0.192268,0.77909 -1.704921,1.49632 -1.512651,0.71725 -2.501137,1.34011 -2.196637,1.38411 0.304498,0.0441 8.955805,-2.13417 19.225119,-4.84043 z M 45.950723,270.38104 c -0.02772,-6.27749 -0.68939,-10.77553 -2.089877,-14.20664 -3.1049,-7.60687 -4.939259,-16.09457 -3.827542,-17.7103 3.562881,-5.17819 13.24178,-14.69059 18.024614,-17.71452 l 5.679698,-3.59098 11.758477,1.61541 11.758486,1.61543 3.014779,-2.7859 c 1.65812,-1.53225 4.390094,-4.76543 6.071048,-7.18485 l 3.056289,-4.39896 -2.391316,-2.21173 c -8.236101,-7.61769 -14.343871,-8.69993 -21.649188,-3.83603 -2.28348,1.52034 -7.592941,3.51664 -11.798803,4.43621 -8.849865,1.93497 -22.942514,9.25683 -27.224222,14.1444 -9.15224,10.44727 -10.958168,22.7297 -5.911955,40.20823 1.336102,4.62787 3.555533,8.54502 7.69221,13.57625 3.197853,3.88937 6.278572,7.10719 6.846056,7.15072 0.650711,0.0498 1.016803,-3.31353 0.991246,-9.10674 z m -3.372156,1.50341 c 0.402701,-0.55217 1.206432,-0.96757 1.786079,-0.92311 0.579646,0.0445 0.724426,0.53261 0.321725,1.08478 -0.402701,0.55217 -1.206432,0.96757 -1.786078,0.92311 -0.579647,-0.0445 -0.724427,-0.53261 -0.321726,-1.08478 z m -2.615478,-3.04497 c 0.784141,-0.24609 1.690261,-0.13894 2.013605,0.23808 0.323341,0.37706 -0.318231,0.57841 -1.425702,0.44744 -1.223864,-0.14476 -1.454433,-0.41362 -0.5879,-0.68556 z m -3.71812,-4.21805 c 0.01747,-0.2278 0.789445,-0.64017 1.715501,-0.91639 0.965493,-0.28796 1.374978,-0.0788 0.959933,0.49026 -0.695724,0.95395 -2.740902,1.27969 -2.675434,0.42613 z m -4.554504,-12.31799 c 0.784142,-0.24608 1.690261,-0.13893 2.013606,0.23808 0.323341,0.37707 -0.318231,0.57841 -1.425702,0.44745 -1.223864,-0.14476 -1.454433,-0.41363 -0.5879,-0.68557 z m -0.0839,-12.72766 c 0.784141,-0.24609 1.690261,-0.13894 2.013605,0.23809 0.323341,0.37705 -0.31823,0.5784 -1.425702,0.44743 -1.223863,-0.14475 -1.454433,-0.41362 -0.5879,-0.68556 z m -0.588181,-3.56135 c -0.902789,-0.68671 -1.001009,-1.1109 -0.246082,-1.06275 0.690995,0.0445 1.513152,0.57688 1.826935,1.18399 0.708314,1.37048 0.343463,1.3425 -1.580853,-0.12124 z m 0.931116,-5.22909 c -0.313782,-0.60714 -0.09625,-1.06749 0.483393,-1.02303 0.579647,0.0445 1.310629,0.57756 1.624413,1.1847 0.313784,0.60711 0.09625,1.06747 -0.483392,1.02302 -0.579648,-0.0445 -1.310629,-0.57758 -1.624414,-1.18469 z m 2.065854,-6.20218 c 0.04445,-0.57964 0.555089,-1.01752 1.134736,-0.97307 0.579645,0.0445 1.017527,0.5551 0.973069,1.13474 -0.04445,0.57965 -0.55509,1.01754 -1.134736,0.97307 -0.579646,-0.0445 -1.017528,-0.55508 -0.973069,-1.13474 z m 7.943148,-6.81147 c 0.04446,-0.57965 0.583082,-1.01539 1.196937,-0.9683 0.613855,0.0471 0.786618,0.53737 0.383917,1.08954 -0.402701,0.55218 -0.941324,0.9879 -1.196937,0.96831 -0.255613,-0.0196 -0.428375,-0.50991 -0.383917,-1.08955 z m 13.357006,-8.01203 c 0.800982,-0.82723 1.656721,-1.27039 1.901642,-0.98477 0.674812,0.78693 -0.963535,2.6725 -2.237229,2.5748 -0.698842,-0.0536 -0.572501,-0.65216 0.335587,-1.59003 z m 31.553558,2.9758 c 0.04445,-0.57965 0.555089,-1.01753 1.134737,-0.97308 0.579647,0.0445 1.017529,0.5551 0.973071,1.13474 -0.0445,0.57966 -0.555092,1.01754 -1.134739,0.97308 -0.579647,-0.0445 -1.017527,-0.55509 -0.973069,-1.13474 z m -26.528322,-4.16738 c 1.550949,-1.22777 6.137532,-1.98379 5.331693,-0.87885 -0.397762,0.54541 -1.969818,1.13227 -3.493477,1.30415 -1.523648,0.17188 -2.350849,-0.0195 -1.838216,-0.4253 z m 24.741325,-6.49745 c -0.682688,-1.32088 1.395718,-2.41836 2.732953,-1.4431 1.122776,0.81884 0.20361,2.65518 -1.27236,2.54198 -0.511226,-0.0392 -1.168493,-0.53372 -1.460593,-1.09888 z m -22.768515,46.15005 c 2.203891,-1.59781 2.239333,-1.59508 0.74436,0.0571 -2.683279,2.96543 2.328677,2.4895 8.232821,-0.7818 l 5.181671,-2.87098 -3.935702,2.93803 c -3.669638,2.73942 -3.771999,2.95253 -1.514261,3.15228 1.331791,0.11785 3.930424,-0.425 5.774743,-1.20628 1.844308,-0.78128 3.001554,-0.93823 2.571653,-0.34877 -1.022237,1.40166 5.155028,0.74216 9.40562,-1.0042 1.721828,-0.70739 2.773912,-0.79709 2.337948,-0.19932 -1.036267,1.4209 -0.624365,1.40625 4.067937,-0.14471 8.847036,-2.92427 2.411122,-7.75161 -11.7864,-8.84055 -10.690332,-0.81994 -23.669263,0.49401 -30.193161,3.05665 -5.389265,2.11695 -5.712827,2.66675 -2.822233,4.79563 1.75371,1.29159 2.568086,1.20983 5.608731,-0.56314 l 3.557125,-2.07414 -2.771424,2.62593 -2.771433,2.62593 2.998953,0.23002 c 1.649431,0.12651 4.040304,-0.52495 5.313052,-1.44767 z m 22.160376,-3.10574 c 0.254104,-0.14549 1.463879,-0.88753 2.688396,-1.64898 2.059423,-1.28061 2.107304,-1.25444 0.638511,0.34896 -0.873344,0.95337 -2.083115,1.6954 -2.688394,1.64897 -0.605277,-0.0464 -0.892604,-0.20345 -0.638513,-0.34895 z m -40.619591,-1.85536 c -0.278352,-3.48218 -1.307685,-5.64505 -1.477872,-3.10536 -0.139495,2.08134 0.709863,6.32673 1.274387,6.37002 0.257025,0.0198 0.348596,-1.44938 0.203538,-3.26466 z m 4.230096,-1.6958 c 0.402701,-0.55217 0.22994,-1.04247 -0.383916,-1.08954 -0.613855,-0.0472 -1.152478,0.38865 -1.196936,0.96829 -0.04446,0.57965 0.128302,1.06995 0.383915,1.08955 0.255615,0.0195 0.794238,-0.41612 1.196937,-0.9683 z m 20.348313,-4.32935 c 10.343799,-0.95729 25.634592,0.23613 29.492301,2.30178 1.808524,0.96841 1.903936,0.52706 1.933864,-8.94638 0.03837,-12.12668 -0.153164,-18.19392 -0.590323,-18.70369 -0.180872,-0.21095 -1.778318,1.39949 -3.549842,3.57874 -5.504979,6.77197 -7.374659,7.30928 -19.340372,5.55814 l -10.446795,-1.52884 -5.819098,3.25175 c -3.200497,1.78846 -6.966148,4.62658 -8.368105,6.30692 l -2.549023,3.05523 2.434991,0.29244 c 2.395812,0.28776 2.391682,0.30109 -0.256535,0.83043 -2.605165,0.52075 -2.62692,0.58268 -0.678103,1.93029 1.10738,0.76577 1.461457,1.36447 0.786831,1.33045 -0.957416,-0.0483 -1.330327,1.91865 -0.738817,3.89686 0.03553,0.11874 1.708551,-0.32752 3.717871,-0.99167 2.00933,-0.66415 8.296356,-1.63726 13.971154,-2.16243 z m -18.59988,-1.47759 c -0.323342,-0.37706 -1.229461,-0.48421 -2.013606,-0.23808 -0.866533,0.27194 -0.635965,0.54082 0.5879,0.68555 1.107473,0.13096 1.749044,-0.0704 1.425703,-0.44743 z m -2.033113,-28.7787 c -0.323342,-0.37705 -1.229461,-0.48421 -2.013606,-0.23808 -0.866533,0.27194 -0.635965,0.54083 0.5879,0.68556 1.107473,0.13095 1.749044,-0.0704 1.425703,-0.44744 z m 14.091712,-4.48175 c 4.887829,-1.40945 10.990674,-3.85347 13.561875,-5.43118 6.469207,-3.96954 12.652932,-3.48512 19.345123,1.51544 l 4.860095,3.63159 -0.127531,-7.24398 c -0.07023,-3.98421 -0.01732,-8.72552 0.117437,-10.53625 l 0.245083,-3.29218 -14.530832,-0.59413 c -11.914123,-0.48714 -14.277476,-0.82337 -13.123887,-1.86713 0.935475,-0.84641 5.485495,-1.11675 13.578177,-0.80672 6.694164,0.25645 12.197264,0.12676 12.229096,-0.28819 0.03177,-0.41496 1.998487,-1.17733 4.370337,-1.69415 2.47183,-0.53863 4.36286,-1.59639 4.43049,-2.47826 0.19213,-2.50485 -8.727469,-2.78017 -45.476715,-1.40378 -7.893935,0.29566 -16.863778,0.62461 -19.932984,0.73102 -4.706394,0.16318 -5.606225,0.53051 -5.745422,2.34535 -0.158638,2.06832 0.357636,2.18133 13.293112,2.90994 7.401988,0.41694 14.635975,0.95103 16.075528,1.18687 2.424434,0.39719 2.456867,0.48366 0.44009,1.1729 -1.197501,0.40925 -4.156636,0.6258 -6.575842,0.48123 -5.184513,-0.30977 -8.019787,0.36733 -7.307606,1.74529 0.280902,0.54351 -1.063374,0.93029 -2.987286,0.85946 l -3.498141,-0.12873 3.629106,1.05934 3.629107,1.05934 -3.181724,0.0185 c -2.416033,0.0141 -2.684563,0.18898 -1.115856,0.72691 2.06587,0.70842 2.06587,0.70842 -0.106192,1.38454 -1.978573,0.61586 -1.938319,0.70666 0.451891,1.01905 2.619038,0.34232 2.619376,0.34441 0.179565,1.11422 -3.55683,1.12227 -3.140044,2.88015 0.800985,3.37837 l 3.412246,0.43137 -3.457784,0.16235 c -2.227078,0.10454 -3.502319,0.743 -3.582909,1.79373 -0.100013,1.30402 0.678423,1.55507 3.879422,1.25114 2.889796,-0.27437 3.541497,-0.11419 2.341097,0.57541 -0.914897,0.52559 -2.731081,0.88104 -4.035967,0.78987 -1.304849,-0.0917 -2.409322,0.31414 -2.454306,0.90063 -0.04852,0.63257 1.75629,0.99698 4.436726,0.89582 l 4.518514,-0.17055 -4.584322,0.74963 c -4.973158,0.81322 -5.52447,2.62903 -0.714446,2.35314 2.659048,-0.15251 2.573664,-0.0401 -0.856229,1.12723 l -3.809809,1.29664 4.246866,-0.0843 c 2.335778,-0.0463 8.246,-1.23738 13.133828,-2.64682 z m -24.712163,-0.49225 c -0.271909,-0.91164 -1.465358,-2.26052 -2.652105,-2.99755 -1.984878,-1.23267 -1.970121,-1.10179 0.184201,1.63374 2.693873,3.42063 3.157837,3.67702 2.467904,1.36381 z m 5.157195,-2.98242 c 0.202156,-2.63571 0.07504,-2.73679 -1.616961,-1.28585 -1.010006,0.86611 -1.555002,2.11915 -1.211117,2.78453 1.132862,2.19192 2.604842,1.41187 2.828078,-1.49868 z m 67.911071,2.5206 c 1.46497,-1.19953 1.87564,-1.67018 0.91262,-1.04592 -0.96304,0.62425 -2.96284,1.51399 -4.44402,1.97717 -1.79082,0.56003 -2.09655,0.91043 -0.91261,1.04592 0.97924,0.11211 2.97904,-0.77766 4.44401,-1.97717 z m -73.874643,-7.99189 c 0.64725,-1.3753 2.561357,-3.16145 4.253579,-3.96919 l 3.076763,-1.46865 -3.209766,0.38409 c -3.378686,0.40431 -7.155316,3.45055 -7.345068,5.92452 -0.184039,2.39949 1.957628,1.82113 3.224492,-0.87077 z m -5.156905,-1.57765 c 0.06407,-0.83526 -0.594905,-1.57322 -1.464375,-1.6399 -1.587418,-0.12176 -2.337123,2.05861 -1.17415,3.4148 0.908106,1.05897 2.503481,-0.0142 2.638525,-1.7749 z m 78.690208,5.98489 c 1.88317,-2.44363 1.90294,-2.68089 0.31116,-3.73918 -0.93469,-0.62148 -1.62855,-2.05493 -1.54184,-3.18542 0.19573,-2.55198 -0.99782,-2.69531 -4.1764,-0.5015 -2.06094,1.42244 -2.38926,2.34263 -2.02491,5.67526 0.35636,3.25949 0.88495,4.01208 2.92803,4.16877 1.52365,0.11686 3.27511,-0.82341 4.50396,-2.41795 z M 38.868771,186.18391 c 3.700551,-0.45845 4.569298,-2.89623 1.620934,-4.54849 -6.344622,-3.55553 -7.6321,-4.64586 -7.762735,-6.57399 -0.264897,-3.91013 2.81254,-4.65199 21.668087,-5.22334 10.073286,-0.30526 19.349705,-0.71886 20.614269,-0.91913 5.818253,-0.92148 31.485094,-0.14898 33.288754,1.00189 2.72518,1.73888 2.15553,4.10656 -1.73742,7.22139 -1.86353,1.49103 -3.44453,3.445 -3.51335,4.34215 -0.1122,1.46276 0.27781,1.49803 3.77679,0.34152 2.71299,-0.89674 4.27366,-0.92975 5.12198,-0.10836 2.11185,2.04481 9.26742,1.70755 11.53011,-0.54345 6.08598,-6.05453 8.15301,-14.69545 6.52575,-27.28019 -2.30276,-17.8091 0.15957,-24.08862 13.05309,-33.28859 4.41954,-3.15351 9.69554,-6.38177 11.72442,-7.17392 3.68569,-1.43904 16.7899,-2.701 30.29617,-2.91761 6.55209,-0.10507 7.08128,-0.28685 6.26053,-2.15047 -1.748,-3.96905 -0.45267,-10.530615 2.5492,-12.913053 7.55329,-5.9947 31.61704,-5.360805 42.07931,1.108475 4.2553,2.631243 3.50051,7.895968 -1.69081,11.793388 -5.75006,4.31688 -14.29316,5.86435 -27.13989,4.916 -5.94269,-0.43872 -10.83123,-0.4541 -10.86343,-0.0343 -0.0322,0.41986 1.24423,1.56893 2.83652,2.55352 2.10834,1.30366 4.88032,1.78383 10.20047,1.76692 6.02916,-0.0191 8.74185,0.56554 15.52774,3.34691 4.52228,1.85357 8.82058,3.4221 9.55177,3.48563 0.73119,0.0635 3.12202,-2.2515 5.31295,-5.14451 2.19094,-2.893 7.64012,-8.79591 12.1093,-13.11758 4.53129,-4.38172 8.20734,-8.836079 8.31015,-10.069608 0.51023,-6.121686 -8.15295,-14.245551 -19.06639,-17.879409 -6.136,-2.043111 -13.55045,-7.694561 -15.12583,-11.529222 -0.6511,-1.584863 -1.25384,-5.912886 -1.33942,-9.617839 -0.21733,-9.408932 -4.81904,-19.586107 -13.51626,-29.892571 -8.28921,-9.823055 -12.69511,-12.375363 -25.39916,-14.713591 -18.91358,-3.4811151 -31.37715,-1.530122 -31.87724,4.989918 -0.33726,4.397348 3.08421,8.544597 12.6898,15.381592 l 8.3463,5.940663 15.55788,0.863394 c 20.25604,1.124119 24.00769,3.164765 23.27926,12.662284 -0.23696,3.089451 -0.90893,4.087989 -3.70712,5.508785 l -3.4177,1.735351 3.16172,0.952986 c 6.37577,1.921746 10.71597,8.873413 6.35257,10.174836 -0.84541,0.252144 -2.90321,2.214462 -4.57288,4.360706 -1.66968,2.146233 -4.23304,4.561747 -5.69634,5.367809 -3.40127,1.873566 -19.01668,4.385238 -25.76461,4.144126 -5.10354,-0.182356 -5.24957,-0.281317 -9.34858,-6.335186 -8.75278,-12.927127 -7.96798,-12.272899 -15.39822,-12.836241 -8.58089,-0.65062 -12.7758,0.210906 -20.90186,4.292563 -3.61358,1.815078 -8.98966,3.746922 -11.94683,4.292984 -6.41603,1.184742 -46.064534,9.197676 -54.108844,10.93533 -10.012454,2.693185 -7.338754,1.518806 -16.002988,4.778174 -4.457305,1.683327 -9.194434,4.405609 -11.367067,6.532286 -7.148107,5.63821 -9.304982,11.5058 -13.727719,18.14128 -4.95232,9.59242 -7.30675,12.23345 -9.915102,30.05669 -1.830015,12.50473 -1.083219,24.18832 2.006268,31.38811 4.674686,10.89397 6.777865,12.016 19.555704,10.43297 z m 37.855215,-37.30264 c 0.687291,-3.52114 0.583576,-3.6695 -2.818881,-4.03224 -3.250105,-0.34649 -3.31705,-0.42306 -0.837593,-0.95791 5.006854,-1.08003 7.461002,2.30942 5.169536,7.13969 -1.361505,2.86998 -2.247221,1.61168 -1.513062,-2.14954 z m -27.133954,-2.96621 c 0.350435,-4.56897 -0.643417,-5.89742 -6.093452,-8.14486 -2.917872,-1.20324 -6.079648,-2.97532 -7.026162,-3.93796 -2.305593,-2.34487 -1.790824,-7.29264 1.008477,-9.69312 3.438646,-2.94875 4.777676,-2.16953 1.929496,1.12283 -4.036019,4.66545 -2.812555,7.84634 4.083242,10.6159 3.115284,1.2512 6.32859,3.13277 7.140672,4.18125 1.846954,2.38461 1.917203,7.63866 0.108669,8.12699 -0.849572,0.22939 -1.277898,-0.61577 -1.150942,-2.27103 z m 44.6708,-0.12719 c 7.470708,-2.423 9.024558,-9.18075 2.230796,-9.70182 -3.21615,-0.24668 -3.747851,0.0549 -3.913922,2.22025 -0.105706,1.37815 -1.033491,3.09591 -2.061719,3.81726 -1.695847,1.18968 -1.782119,0.99812 -0.928487,-2.06162 1.100757,-3.9456 1.274817,-3.89637 -9.497625,-2.68592 -11.490676,1.29115 -16.707864,-1.19286 -18.601395,-8.85669 -1.413338,-5.72021 -0.07488,-7.4204 7.323432,-9.30265 3.636216,-0.92512 7.545709,-2.40575 8.687765,-3.29029 2.972327,-2.30216 3.113327,-7.7174 0.281692,-10.8182 l -2.307368,-2.52668 -3.599066,3.51591 c -1.979486,1.93377 -3.634178,3.97368 -3.677089,4.53317 -0.04291,0.55947 -0.552276,0.98084 -1.131922,0.93638 -2.068241,-0.15862 -0.757806,-3.22705 2.907293,-6.80749 2.42585,-2.3698 3.276794,-3.82661 2.440687,-4.17844 -0.705992,-0.29708 -1.246401,-1.025607 -1.200891,-1.618973 0.04552,-0.593356 0.773755,-0.751026 1.618309,-0.350359 1.097339,0.520573 2.557522,-0.960947 5.116544,-5.191309 1.969537,-3.255867 4.337291,-6.145339 5.261665,-6.421039 2.205481,-0.657815 2.062657,0.119609 -0.612347,3.333061 -1.210988,1.454758 -3.075366,4.358237 -4.143045,6.452163 -1.917726,3.761006 -1.906574,3.847546 0.920892,7.144756 2.194427,2.55901 2.788169,4.30192 2.545104,7.47099 -0.397234,5.17914 -2.429402,6.83075 -11.12757,9.04371 -5.299081,1.34817 -6.718702,2.15597 -6.95694,3.95874 -0.496369,3.756 -0.179009,5.35907 1.496621,7.55986 2.657335,3.49013 5.926788,4.44349 12.994772,3.78923 12.977243,-1.20128 13.742267,-1.67893 8.527616,-5.32443 -3.802705,-2.65841 -4.185087,-4.07247 -2.541399,-9.39819 0.734437,-2.37966 1.800079,-6.56685 2.36811,-9.30488 1.102367,-5.31373 1.64744,-5.96192 7.404997,-8.80596 4.440244,-2.19333 4.000147,-2.973103 -2.477648,-4.390049 l -4.908582,-1.073695 4.403681,0.196104 c 8.534694,0.380087 10.108807,3.41269 3.464946,6.67542 -4.249512,2.0869 -6.129213,5.00406 -6.521698,10.12116 -0.136437,1.77886 -0.960705,5.08455 -1.831698,7.34597 l -1.583636,4.11166 4.252921,4.22937 c 3.208347,3.19055 4.976379,4.17922 7.19842,4.02525 4.192832,-0.29051 7.261452,1.98521 7.014722,5.20223 -0.28835,3.75942 -6.024469,8.4582 -9.810744,8.03652 -2.925582,-0.32584 -2.910552,-0.35067 0.973806,-1.61048 z M 56.298537,135.36145 c 1.646806,-7.78613 0.806418,-12.05295 -3.501053,-17.7755 -4.266256,-5.66781 -4.59438,-9.18082 -1.435096,-15.36461 1.985829,-3.88694 4.777175,-6.243831 7.237924,-6.111382 0.897428,0.04832 0.338961,0.980045 -1.427941,2.382342 -1.595976,1.266662 -3.656723,4.2631 -4.579421,6.65875 -1.854529,4.81498 -1.642581,5.56768 3.836821,13.62582 2.44437,3.59476 2.819116,5.25488 2.649874,11.7391 -0.158166,6.06007 -0.563869,7.81198 -2.053392,8.86677 -1.700405,1.20415 -1.761511,0.86651 -0.727716,-4.02129 z m 48.294293,-29.31389 c 0.20073,-2.61707 1.26564,-3.84968 5.81747,-6.733699 3.06448,-1.941623 5.91901,-4.389859 6.34341,-5.440544 0.93665,-2.318955 -1.81131,-6.19692 -4.53948,-6.406161 -1.06945,-0.082 -1.90808,-0.623399 -1.86362,-1.203045 0.15119,-1.971236 3.92098,-0.768727 6.10747,1.948187 3.40936,4.236476 2.07026,7.997511 -4.25912,11.962212 -3.51451,2.2015 -5.34909,4.08895 -5.46686,5.62445 -0.0974,1.27107 -0.674,2.56776 -1.28111,2.88154 -0.64343,0.33256 -1.00138,-0.76567 -0.85816,-2.63294 z m 14.84815,80.91537 c -0.98701,-1.39378 -3.91614,-2.30127 -3.99765,-1.23854 -0.0202,0.26255 0.43671,1.77008 1.0152,3.35008 0.97256,2.65633 1.16435,2.74124 2.54584,1.12721 1.10099,-1.28635 1.21585,-2.13835 0.43661,-3.23875 z m -7.68874,0.99146 2.8748,1.50198 -2.32506,-2.31571 c -2.60914,-2.59865 -6.25337,-3.25802 -8.30118,-1.50195 -2.32145,1.99072 -1.61774,2.71198 1.69983,1.74226 2.3745,-0.69406 3.90284,-0.54924 6.05161,0.57342 z M 239.1242,154.34195 c 3.66264,-2.45217 9.02408,-11.05966 9.45878,-15.18557 0.1766,-1.67638 -0.44921,-4.04256 -1.39074,-5.25817 -1.66203,-2.14589 -10.28797,-6.85384 -11.13521,-6.07751 -8.63766,7.91493 -13.23159,16.58405 -11.75097,22.17504 1.477,5.57734 9.47532,7.92328 14.81814,4.34621 z m -12.62833,-44.28552 c 6.71156,-1.98975 10.00915,-5.04628 9.7522,-9.03933 -0.46031,-7.153189 -31.23151,-10.860653 -40.21602,-4.845438 -3.19458,2.138789 -4.13434,6.980808 -2.31782,11.942158 l 1.06776,2.91625 12.72097,0.44288 c 9.60391,0.33436 14.25779,-0.0127 18.99291,-1.41652 z m -32.5267,-44.584785 c 6.99239,-4.038612 8.29487,-5.127423 5.80695,-4.854338 -12.85251,1.410743 -15.70712,1.987112 -18.23979,3.682753 -2.7735,1.85688 -3.87983,4.771783 -2.44577,6.444078 1.32166,1.541243 5.87531,-0.07243 14.87861,-5.272493 z"
     id="path22672"
     inkscape:connector-curvature="0"
     sodipodi:nodetypes="csssssscsssscsssssssssssssccccssssssssssssssscssssssssssssscssssscssssssssscsssssssscsscsssscsscccsscsssssscccscsscscsscscsccssssssccsscssssssscssscssssssccccccccccccssssscssccssssssssssscsssssssssssssssssssssssssssssscssscsssssccsssssssssssssssssssssssssssssssssssssssssssssssssscccssscsscsscsscccccsssscsscssscssssscssssssssssssccssssssssssssssssssssssssssssssssssssssssssssssssscssscssscsssssssscssscsscsssscccsscssssccsscsscssscsssscsssscccccsssscssssssscccssssscscssssscccsscssssssssscssscscccscssccccccscccsssssssssssssssssssssssscssscsscssssssscssssssssssscccsscscscccsccssssscsccsscsscsssccscccccccccscccsscsccsssssssssssscsscccsssssscsssscsscssscsccssssssssssscssssssssscsccsssscccssssssssssssssssssssssscsssssssssscssscsssssssssssccccccsssssssssssssssssssssssscsssssssssssssssssssssscsssscsssssssscsssssssssssssssssscsssccsssscsssssssscsssssssss" />
  <path
     style="fill:#000000;fill-opacity:0.35643568;stroke:none"
     d="m 40.205719,214.76237 c 7.366914,-5.56589 15.34615,-10.94335 31.70993,-13.74097 3.083079,-2.52493 6.995145,-4.49722 14.269469,-4.22799 5.468889,-0.22256 9.97366,5.33954 14.797972,8.98448 l -12.419727,15.06222 -23.518199,-1.84975 c -11.034998,5.40481 -17.323209,13.18302 -24.310946,20.61146 l 6.870484,23.25394 -1.585497,19.55446 -16.383464,-19.81871 -3.699492,-27.21768 c 2.326693,-7.68042 5.606582,-15.04311 14.26947,-20.61146 z"
     id="path22674"
     inkscape:connector-curvature="0"
     sodipodi:nodetypes="cccccccccccc" />
  <path
     style="fill:#000000;fill-opacity:0.35643568;stroke:none"
     d="m 102.83283,285.05271 -0.26425,23.78245 c -6.473572,7.53489 -14.040492,7.41631 -21.139952,10.56998 -12.81531,4.02391 -25.207669,3.62901 -38.580416,13.47672 -10.163942,13.42613 -6.191822,20.49103 -2.642493,27.74619 l 5.813486,6.34199 0.792749,-15.85497 c 13.581544,-9.98906 38.024643,-14.54735 57.870616,-21.4042 l 10.56998,-17.17621 c 0.44673,-24.64056 -7.8598,-19.73884 -12.41972,-27.48195 z"
     id="path23184"
     inkscape:connector-curvature="0"
     sodipodi:nodetypes="cccccccccc" />
  <path
     style="fill:#000000;fill-opacity:0.35643568;stroke:none"
     d="m 43.112462,426.16191 c -7.247341,-5.46116 -7.882425,-10.92231 -9.777229,-16.38347 2.124765,-7.42042 5.183336,-15.47705 14.00522,-21.9327 l 55.492377,-23.51819 0,-14.79797 c 6.30539,3.40453 10.86783,8.8425 12.94822,17.1762 -0.74042,7.29558 -5.75747,12.75833 -11.36273,17.96897 l -58.399115,26.42494 z"
     id="path23186"
     inkscape:connector-curvature="0"
     sodipodi:nodetypes="ccccccccc" />
  <path
     style="fill:#000000;fill-opacity:0.35643568;stroke:none"
     d="m 101.77583,453.11534 2.37825,-17.96895 c 12.72909,6.85417 15.87804,12.35745 21.66844,18.23321 -0.80635,10.19159 -18.97544,0.99125 -24.04669,-0.26426 z"
     id="path23188"
     inkscape:connector-curvature="0"
     sodipodi:nodetypes="cccc" />
  <path
     style="fill:#038ad2;fill-opacity:0.23762375;stroke:none"
     d="m 48.133201,247.0008 c -1.824472,4.34922 12.739358,4.2289 25.896444,4.49224 10.237892,-1.74951 26.008455,-0.17943 26.689185,-7.66324 -1.562501,-5.36541 -15.298668,-6.30405 -32.238423,-6.07773 -24.156626,4.02205 -21.47888,6.5936 -20.347206,9.24873 z"
     id="path23196"
     inkscape:connector-curvature="0"
     sodipodi:nodetypes="ccccc" />
  <path
     style="fill:#059fb9;fill-opacity:0.1958763;stroke:none"
     d="m 44.433709,241.71581 0,-8.45598 19.554457,-14.26947 24.310947,2.64249 12.683977,-11.09847 -0.5285,31.70993 -22.725454,-4.75649 z"
     id="path23380"
     inkscape:connector-curvature="0" />
  <path
     style="fill:#059fb9;fill-opacity:0.1958763;stroke:none"
     d="m 42.319713,209.21313 2.378245,-29.06744 -10.569976,-3.96374 0,-3.43524 67.912098,-3.171 6.87049,1.84976 -8.45598,8.19173 0.26424,24.57519 -15.854959,-8.19173 -17.704712,7.66323 z"
     id="path23382"
     inkscape:connector-curvature="0" />
</svg>
