<?xml version="1.0" encoding="UTF-8" standalone="no"?>
<!-- Created with Inkscape (http://www.inkscape.org/) -->

<svg
   xmlns:dc="http://purl.org/dc/elements/1.1/"
   xmlns:cc="http://creativecommons.org/ns#"
   xmlns:rdf="http://www.w3.org/1999/02/22-rdf-syntax-ns#"
   xmlns:svg="http://www.w3.org/2000/svg"
   xmlns="http://www.w3.org/2000/svg"
   xmlns:xlink="http://www.w3.org/1999/xlink"
   xmlns:sodipodi="http://sodipodi.sourceforge.net/DTD/sodipodi-0.dtd"
   xmlns:inkscape="http://www.inkscape.org/namespaces/inkscape"
   id="svg15515"
   version="1.1"
   inkscape:version="0.48.4 r9939"
   width="330"
   height="500"
   sodipodi:docname="AquaVitae.svg">
  <metadata
     id="metadata15521">
    <rdf:RDF>
      <cc:Work
         rdf:about="">
        <dc:format>image/svg+xml</dc:format>
        <dc:type
           rdf:resource="http://purl.org/dc/dcmitype/StillImage" />
        <dc:title />
      </cc:Work>
    </rdf:RDF>
  </metadata>
  <defs
     id="defs15519">
    <linearGradient
       inkscape:collect="always"
       id="linearGradient16069">
      <stop
         style="stop-color:#ffffff;stop-opacity:1;"
         offset="0"
         id="stop16071" />
      <stop
         style="stop-color:#ffffff;stop-opacity:0;"
         offset="1"
         id="stop16073" />
    </linearGradient>
    <linearGradient
       inkscape:collect="always"
       xlink:href="#linearGradient16069"
       id="linearGradient16075"
       x1="9.6209049"
       y1="201.9507"
       x2="135.91725"
       y2="201.9507"
       gradientUnits="userSpaceOnUse"
       gradientTransform="translate(0,174)" />
    <filter
       inkscape:collect="always"
       id="filter16077"
       x="-0.14379311"
       width="1.2875862"
       y="-0.058098223"
       height="1.1161964"
       color-interpolation-filters="sRGB">
      <feGaussianBlur
         inkscape:collect="always"
         stdDeviation="4.6817412"
         id="feGaussianBlur16079" />
    </filter>
  </defs>
  <sodipodi:namedview
     pagecolor="#ffffff"
     bordercolor="#666666"
     borderopacity="1"
     objecttolerance="10"
     gridtolerance="10"
     guidetolerance="10"
     inkscape:pageopacity="0"
     inkscape:pageshadow="2"
     inkscape:window-width="1266"
     inkscape:window-height="750"
     id="namedview15517"
     showgrid="false"
     inkscape:zoom="0.72392638"
     inkscape:cx="145.07065"
     inkscape:cy="250.90895"
     inkscape:window-x="0"
     inkscape:window-y="22"
     inkscape:window-maximized="0"
     inkscape:current-layer="svg15515" />
  <path
     style="fill:#0eda4f;fill-opacity:0.60824741;stroke:#000000;stroke-width:1.59453249px;stroke-linecap:butt;stroke-linejoin:miter;stroke-opacity:1"
     d="m 130.50659,88.52356 -5.50654,-3.30392 -1.65197,-62.77459 76.54094,-6.057206 5.50656,50.660199 3.30391,18.171597 z"
     id="path16037"
     inkscape:connector-curvature="0" />
  <path
     style="fill:#000000"
     d="m 111.01073,487.9901 c -17.128007,-2.78902 -34.338711,-6.72885 -38.268792,-8.76042 -2.192483,-1.13334 -6.307591,-4.47694 -9.144687,-7.43019 -4.592046,-4.78006 -6.136312,-9.1276 -14.066292,-39.60072 -13.720318,-52.72406 -14.717695,-56.98213 -17.54201,-74.89176 -1.452154,-9.20841 -4.291581,-22.4829 -6.309841,-29.49885 -6.644645,-23.09835 -11.63042,-49.10637 -13.521151,-70.53234 -3.645327,-41.30922 1.721529,-59.09896 24.272471,-80.45693 6.816646,-6.45603 27.143387,-16.9056 50.625018,-26.02528 17.206974,-6.68277 30.279824,-14.77314 36.009524,-22.28515 8.64904,-11.33948 11.21228,-34.91005 4.34307,-39.937257 -2.31674,-1.695494 -2.86422,-4.54277 -2.954,-15.362858 -0.0607,-7.3049 -0.70548,-22.015122 -1.43304,-32.689353 l -1.32281,-19.407704 6.21664,-1.649057 c 8.31563,-2.20584 29.40952,-4.639391 50.86353,-5.867976 24.21575,-1.386743 23.3399,-2.316069 25.05914,26.589421 0.76512,12.863976 2.41137,25.813839 3.74963,29.495858 1.31212,3.610065 2.65367,7.9153 2.9812,9.567192 0.32753,1.651892 0.84296,4.079742 1.14537,5.395225 0.34644,1.507049 -0.62984,2.400556 -2.63922,2.415478 -2.97662,0.0222 -3.17652,1.031237 -3.00063,15.148051 0.13953,11.20177 0.96871,16.7786 3.19694,21.50252 3.40678,7.22247 13.53936,14.754 26.53184,19.72103 20.74413,7.93049 53.86822,23.26351 62.77689,29.0592 16.82547,10.9461 23.80479,29.79915 22.2012,59.97154 -0.41003,7.71498 -1.18483,29.09558 -1.72175,47.51242 -0.98645,33.8349 -4.11401,76.73217 -7.16578,98.28457 -6.62763,46.80614 -12.15659,77.6164 -15.26895,85.08667 -1.09615,2.63099 -4.41035,7.11087 -7.36493,9.9553 -5.90426,5.68423 -11.27999,6.95568 -53.07778,12.55394 -23.43867,3.13929 -109.94621,4.61649 -125.1708,2.13743 z m 125.96807,-6.19751 c 41.61019,-5.67386 43.15983,-6.01946 49.3095,-10.99679 4.04329,-3.27252 6.41994,-7.05886 8.2831,-13.19624 4.27051,-14.06725 13.10787,-68.65744 16.62312,-102.68434 2.23479,-21.63217 6.34406,-115.30195 5.11232,-116.5337 -0.33544,-0.33544 -3.07377,0.13473 -6.08515,1.04496 -4.77186,1.44227 -49.52378,9.19163 -67.66203,11.71654 -34.73584,4.83532 -83.78986,8.54428 -137.1298,10.36833 -25.4328,0.86973 -48.752837,1.95017 -51.822312,2.40101 -5.570935,0.81823 -5.569517,0.81587 0.797265,-1.32126 l 6.378131,-2.14096 -7.175396,-0.95785 c -3.946469,-0.52683 -14.184957,-1.39846 -22.752194,-1.93698 l -15.576799,-0.9791 0.950684,9.30619 c 1.505599,14.73825 5.235099,33.21569 11.050861,54.75037 2.960563,10.96241 6.830403,28.54214 8.599644,39.06605 1.769242,10.52391 5.050496,25.95102 7.291674,34.28245 2.241179,8.33144 6.960873,26.94548 10.488207,41.36455 9.828728,40.17793 12.50272,42.48982 56.553835,48.89501 22.33414,3.24748 95.33428,1.83761 126.76534,-2.44824 z M 90.281795,460.34192 c 0,-1.04852 27.253545,-9.34251 28.057425,-8.53863 1.03839,1.03839 -21.088136,9.14835 -24.959583,9.14835 -1.703813,0 -3.097842,-0.27437 -3.097842,-0.60972 z m -7.972662,-2.47189 c 0,-0.81791 1.614464,-2.0208 3.587699,-2.67312 l 3.587697,-1.18606 -3.986331,-1.08427 -3.986332,-1.08429 3.986332,-0.83714 c 2.192483,-0.46044 10.085419,-2.07094 17.539852,-3.57889 7.45446,-1.50798 20.72894,-4.21317 29.49886,-6.01157 13.5605,-2.78075 22.26513,-3.29329 58.20045,-3.4268 l 42.2551,-0.15705 13.86709,4.54559 c 14.30637,4.68962 20.42167,7.93862 18.52048,9.83979 -0.60092,0.60093 -6.58327,-1.12435 -13.2941,-3.83397 -18.75945,-7.57444 -28.87691,-8.72564 -67.67454,-7.70012 -24.46311,0.64659 -39.39984,1.84609 -51.95225,4.17205 -17.87356,3.31193 -41.726197,10.28721 -44.489418,13.01014 -1.955264,1.92674 -5.660589,1.93042 -5.660589,0.007 z m 3.98633,-15.71017 c 0.876995,-0.88848 6.976081,-2.03132 13.553528,-2.53967 8.361179,-0.64624 10.590899,-0.48318 7.411479,0.54194 -7.413679,2.39038 -22.799788,3.8565 -20.965007,1.99773 z m -3.98633,-4.83821 c 0,-1.74793 19.491977,-5.76791 22.630767,-4.66733 1.14648,0.40201 -2.22075,1.60122 -7.482708,2.66493 -5.261957,1.06371 -10.82289,2.29173 -12.357627,2.72893 -1.534738,0.4372 -2.790432,0.11018 -2.790432,-0.72653 z m 10.364462,-11.50322 c 6.138949,-1.62903 13.314355,-2.94812 15.945335,-2.93134 2.85524,0.0182 -0.0373,1.24179 -7.17541,3.03526 -6.577444,1.65259 -13.752839,2.9717 -15.945322,2.93133 -2.192483,-0.0402 1.036446,-1.40625 7.175397,-3.03525 z m -4.682403,-9.45544 c 0.844952,-0.84496 5.831852,-1.91807 11.082002,-2.3847 l 9.545736,-0.84841 -7.97267,2.35393 c -9.327813,2.75404 -14.918319,3.14242 -12.655068,0.87918 z m -4.087526,-6.35725 c 0,-0.61927 3.64244,-1.96674 8.094308,-2.99435 8.268126,-1.90851 15.363536,-2.47126 14.002856,-1.11059 -1.39935,1.39935 -22.097164,5.24434 -22.097164,4.10494 z m -7.345607,-9.37093 c 1.364321,-2.20752 17.014544,-6.69023 22.739075,-6.51317 3.029256,0.0937 1.092036,1.05264 -5.826273,2.8841 -5.700454,1.50909 -12.068783,3.31665 -14.151842,4.0168 -2.505988,0.84234 -3.44011,0.71115 -2.76096,-0.38773 z m 5.033533,-9.60753 c 2.104561,-1.88874 16.560331,-5.65273 17.624095,-4.58895 0.478379,0.47839 -3.060945,2.01246 -7.865165,3.40909 -9.907356,2.88014 -11.925371,3.12413 -9.75893,1.17986 z m -8.849654,-8.31302 c 0,-1.71764 17.604606,-7.18217 27.107053,-8.41412 7.110459,-0.92182 7.124879,-0.91412 1.594529,0.85178 -21.287613,6.79744 -28.701582,8.75086 -28.701582,7.56234 z m 4.881976,-14.09799 c 3.675681,-2.30926 25.414136,-8.1063 25.414136,-6.77724 0,0.94741 -16.978656,6.18455 -25.512514,7.86946 -2.009316,0.39672 -1.993583,0.22206 0.09838,-1.09222 z M 64.769275,359.2506 c 0,-1.77948 27.472509,-8.99716 30.457944,-8.00201 1.052352,0.35079 -4.114485,2.14703 -11.481857,3.99165 -7.367372,1.84462 -14.650918,3.85857 -16.185655,4.47545 -1.539491,0.61878 -2.790432,0.41028 -2.790432,-0.46509 z M 67.2408,346.37003 c 1.746536,-1.57931 18.775677,-5.07628 23.705567,-4.86797 1.826969,0.0772 -1.701017,1.47318 -7.839968,3.1022 -12.258423,3.25286 -18.247222,3.91939 -15.865599,1.76577 z m 5.501138,-12.81747 c 0,-0.78707 -1.973235,-1.32521 -4.384964,-1.19591 -2.411731,0.12931 -4.56435,-0.48243 -4.783599,-1.35942 -0.219248,-0.877 1.574601,-1.67366 3.986332,-1.77039 2.411731,-0.0967 6.896353,-0.64178 9.965829,-1.21123 l 5.580863,-1.03533 -4.783599,2.33518 c -5.453226,2.66209 -1.7927,3.38481 4.679795,0.92396 2.249575,-0.85529 4.090135,-0.99944 4.090135,-0.32032 0,1.30191 -9.264997,5.06446 -12.470835,5.06446 -1.033976,0 -1.879957,-0.64395 -1.879957,-1.431 z M 61.580211,320.76489 c 0,-1.48118 13.829213,-5.01093 18.814241,-4.80212 1.942547,0.0814 -14.670666,5.68224 -18.41561,6.20851 -0.219247,0.0307 -0.398631,-0.60206 -0.398631,-1.40639 z m -2.312074,-15.86202 c 1.888778,-1.71962 21.454512,-5.52248 22.586898,-4.3901 0.825802,0.82581 -0.183824,1.12534 -13.896695,4.12278 -9.083009,1.98544 -10.629636,2.03303 -8.690203,0.26732 z m 6.992244,-15.50538 c 3.889583,-1.22011 10.706211,-2.56806 15.148059,-2.99544 7.36922,-0.70907 7.029364,-0.5068 -3.882904,2.31067 -13.649452,3.5242 -21.919517,4.02693 -11.265155,0.68477 z M 49.700942,277.80002 c 0.833144,-0.7562 6.248786,-2.53059 12.034762,-3.94308 5.785977,-1.41249 11.885063,-3.052 13.553526,-3.64337 2.096341,-0.74301 2.540936,-0.556 1.439039,0.60532 -1.640389,1.72883 -22.579851,8.35604 -26.401971,8.35604 -1.307027,0 -1.55047,-0.53523 -0.625356,-1.37491 z m 97.984038,-21.73554 c 11.8394,-0.48909 26.90773,-1.28298 33.48519,-1.76422 43.6776,-3.19558 129.33141,-16.18424 131.66896,-19.96647 1.05764,-1.71131 -11.85905,-5.37451 -33.24738,-9.42908 -9.84373,-1.86605 -21.12662,-4.04173 -25.0731,-4.83484 -14.06846,-2.82725 -102.73084,0.24925 -142.71066,4.95195 -16.266172,1.91333 -43.587622,8.46423 -50.751273,12.1687 -2.632052,1.36108 -7.571945,2.74308 -10.977539,3.07112 -5.651084,0.54432 -27.398789,8.93432 -30.433514,11.74091 -0.70068,0.64799 5.700545,1.66843 14.224947,2.26763 9.408913,0.66139 15.869952,0.48912 16.4432,-0.43842 1.323183,-2.14094 14.864431,-5.35459 19.43293,-4.61186 2.618968,0.42579 0.916321,1.25159 -5.502554,2.66885 -24.630305,5.43817 10.419804,7.19223 83.440793,4.17573 z M 52.996686,244.39682 c -1.196662,-1.93624 10.332196,-5.22143 21.201859,-6.04153 l 8.907854,-0.6721 -11.161728,2.92559 c -6.13895,1.60907 -12.715804,3.43973 -14.615235,4.06813 -1.899429,0.62841 -3.849166,0.50235 -4.33275,-0.28009 z m 195.269724,-9.20441 c 0.0766,-1.85755 0.45435,-2.23538 0.96336,-0.96337 0.4606,1.15104 0.40397,2.52634 -0.12581,3.0562 -0.52987,0.52983 -0.90671,-0.41195 -0.83748,-2.09283 z M 19.996808,248.36204 c 6.236512,-5.23054 36.37776,-15.58001 63.109591,-21.66965 21.245001,-4.83972 32.195271,-6.26968 62.186781,-8.1207 14.90888,-0.92017 34.64122,-2.35829 43.84964,-3.19587 33.95163,-3.08814 95.3398,3.41304 119.7269,12.67942 l 7.55806,2.87182 1.00729,-5.36926 c 1.06617,-5.6832 -1.24172,-22.08025 -4.23599,-30.09583 -4.83584,-12.94543 -15.58181,-21.44522 -40.3433,-31.9105 -69.41461,-29.3376 -68.99348,-28.98493 -70.55321,-59.08628 l -0.83185,-16.053762 -14.53525,2.187833 c -8.23274,1.239169 -22.89594,1.977578 -33.81724,1.70296 -17.71167,-0.445388 -19.22236,-0.257612 -18.54979,2.305569 0.40272,1.53474 1.90423,2.81224 3.33668,2.83891 2.18943,0.0409 2.12932,0.32454 -0.37727,1.78083 -2.40758,1.39875 -2.56111,1.9988 -0.79727,3.11616 1.79795,1.13898 1.76126,1.39245 -0.20733,1.43266 -2.12604,0.0433 -2.12604,0.22329 0,1.61894 2.12604,1.39567 2.12604,1.74458 0,3.14024 -1.99215,1.30776 -1.85892,1.58362 0.79726,1.65103 3.10461,0.0787 3.10026,0.13219 -0.16479,2.01758 -1.84462,1.06518 -3.04052,2.83359 -2.65756,3.92983 0.38298,1.09625 -0.26041,2.00415 -1.42973,2.01757 -1.70758,0.0196 -1.72311,0.28011 -0.0789,1.32339 2.55927,1.6239 0.81409,6.62486 -2.31188,6.62486 -1.27342,0 -1.87184,0.71756 -1.32983,1.59454 0.54202,0.877 -0.11063,1.59453 -1.45038,1.59453 -1.51011,0 -2.08705,0.90902 -1.51804,2.39181 0.62267,1.62263 -0.0831,2.39179 -2.19471,2.39179 -1.71189,0 -4.47856,1.50945 -6.14816,3.35434 -4.64925,5.13737 -13.9648,10.09081 -35.750524,19.00999 -33.988314,13.91499 -42.848668,19.65753 -55.292622,35.83611 -6.950989,9.03708 -10.001197,17.24204 -11.855398,31.89065 -1.521778,12.02236 -0.778459,26.30979 1.368795,26.30979 0.534955,0 2.105453,-0.95009 3.489997,-2.1113 z m 26.354894,-20.34232 c -0.50542,-0.81779 0.02346,-1.78422 1.175283,-2.14759 1.151827,-0.36339 8.077385,-2.59099 15.390126,-4.95024 9.753627,-3.14674 13.768105,-3.81734 15.068333,-2.5171 1.300227,1.30023 0.850081,1.77244 -1.689625,1.77244 -1.904133,0 -9.213761,2.0991 -16.243617,4.66469 -7.19606,2.62622 -13.18313,4.01492 -13.7005,3.1778 z m 0.160176,-10.82258 c 2.438052,-2.22998 21.692653,-8.18991 26.14104,-8.09147 2.36133,0.0523 -1.625023,2.0262 -9.478176,4.69342 -14.011751,4.75889 -19.338252,5.84514 -16.662864,3.39805 z m 1.594531,-9.50737 c 1.837018,-1.60773 13.777121,-5.10078 16.847863,-4.92883 1.21374,0.068 -1.380897,1.44744 -5.765861,3.06548 -8.645086,3.19003 -13.537919,4.01271 -11.082002,1.86335 z m -4.066056,-7.29782 c 0,-0.35799 4.305237,-2.10479 9.567195,-3.88177 11.263201,-3.80365 13.073876,-2.13779 1.993164,1.83374 -7.353596,2.63567 -11.560359,3.38095 -11.560359,2.04803 z M 189.94009,86.117825 c 16.26934,-2.633448 16.74259,-2.826857 16.74259,-6.842121 0,-2.041043 -1.02919,-5.79446 -2.28709,-8.34093 -1.39727,-2.828643 -2.8636,-13.799027 -3.76894,-28.197675 -0.81503,-12.962257 -1.99855,-24.084118 -2.63004,-24.715255 -1.68199,-1.681064 -27.52886,-0.866021 -47.82575,1.508107 -15.08494,1.764514 -16.59673,2.185101 -10.45854,2.909693 l 7.17539,0.847013 -5.38155,1.178802 c -2.95985,0.648334 -7.84559,1.178789 -10.85721,1.178789 -3.33201,0 -5.08035,0.639583 -4.46593,1.633761 0.62135,1.005366 4.12332,1.220708 9.10485,0.559887 5.91301,-0.784379 7.78993,-0.580044 6.96295,0.758055 -0.6227,1.00754 -2.7043,1.841693 -4.62578,1.853666 -4.66857,0.02914 -10.66898,1.697294 -10.66898,2.966135 0,0.561766 3.32042,0.757315 7.37871,0.434552 5.12443,-0.407566 7.04429,-0.04575 6.28403,1.184402 -0.60208,0.974203 -3.92251,1.771273 -7.37872,1.771273 -4.3343,0 -6.28402,0.695182 -6.28402,2.240587 0,1.751163 2.17688,2.105998 9.96582,1.624383 10.46058,-0.646799 10.25829,-0.541905 -6.47508,3.35829 -3.05255,0.711503 -3.59962,1.738438 -3.18906,5.986344 l 0.49558,5.127517 10.36445,-0.369211 c 10.84395,-0.386294 9.02222,1.390876 -3.5877,3.499948 -5.69882,0.95317 -5.97081,1.277365 -5.79452,6.907348 0.10175,3.248982 0.49726,4.733893 0.87894,3.29979 0.38169,-1.434093 2.72614,-3.013881 5.20988,-3.510623 2.48375,-0.496743 6.57284,-1.404079 9.08689,-2.016277 l 4.57099,-1.113094 -3.03757,3.427822 c -1.67066,1.885307 -4.54082,3.438815 -6.37814,3.452234 -2.74115,0.02003 -2.91138,0.301774 -0.94877,1.570126 1.3155,0.850144 1.67427,1.607116 0.79728,1.682179 -0.877,0.07512 -0.15946,0.753171 1.59453,1.506889 2.96755,1.275192 2.9229,1.378162 -0.64261,1.482452 l -3.83168,0.11211 3.67703,3.189068 c 2.02235,1.753986 5.04465,3.189068 6.7162,3.189068 1.67156,0 2.59573,0.717535 2.05373,1.594528 -0.56604,0.91585 0.887,1.594529 3.41386,1.594529 5.57621,0 3.16148,2.645398 -3.41386,3.740008 -2.63099,0.43798 3.46809,0.456167 13.55352,0.04029 10.08542,-0.415761 22.64237,-1.452814 27.90432,-2.304551 z M 131.14794,62.316747 c 0.99006,-1.014439 4.93652,-2.191316 8.76993,-2.615295 8.56343,-0.947081 5.28368,1.661396 -4.19189,3.333934 -4.81619,0.850109 -5.93731,0.674125 -4.57804,-0.718639 z m -1.00282,-9.252774 c 0,-0.909601 2.15262,-2.069588 4.7836,-2.57778 2.63097,-0.508181 6.93622,-1.339749 9.56719,-1.847919 2.63098,-0.50818 4.78359,-0.241109 4.78359,0.593487 0,0.834574 -2.69077,1.967517 -5.97948,2.51764 -3.28873,0.55011 -7.59397,1.443049 -9.56721,1.984294 -2.04705,0.561503 -3.58769,0.2739 -3.58769,-0.669722 z m -1.59453,-4.997195 c 0,-0.712232 2.24231,-1.743436 4.98291,-2.291554 7.06225,-1.412456 10.29749,-1.263742 8.49087,0.390277 -2.07446,1.899262 -13.47378,3.507812 -13.47378,1.901277 z m 13.53868,38.193728 c 0.6018,-0.973738 -1.02869,-1.225694 -4.29086,-0.663029 -3.58088,0.617627 -4.57324,0.420691 -3.10678,-0.616591 1.59579,-1.128755 0.7986,-1.723107 -3.07327,-2.291383 l -5.22798,-0.767307 3.64855,2.954411 c 3.93013,3.182432 10.47431,3.933988 12.05034,1.383899 z m 0.38025,-4.176452 c -0.52984,-0.529851 -1.90512,-0.586497 -3.05618,-0.125812 -1.27202,0.509022 -0.89418,0.886871 0.96336,0.963368 1.6809,0.0692 2.62267,-0.307624 2.09282,-0.837476 z M 133.73281,77.2078 c -1.09623,-0.442338 -2.89008,-0.442338 -3.98633,0 -1.09624,0.442338 -0.19932,0.804252 1.99318,0.804252 2.19247,0 3.0894,-0.361914 1.99315,-0.804252 z"
     id="path15525"
     inkscape:connector-curvature="0" />
  <path
     style="fill:#268db4;fill-opacity:0.27319587;stroke:none"
     d="m 131.05724,91.276835 72.68636,-3.303932 c 1.09375,19.193927 -0.99189,33.902617 7.87159,43.185907 17.46594,18.29321 68.13105,27.49027 96.75274,49.32401 12.63755,10.67551 5.74689,46.8399 8.48301,92.43473 3.88948,64.81438 -9.90088,133.17296 -21.69874,183.9937 -4.54661,19.81162 -15.99775,17.52875 -25.33009,22.02618 -59.37965,8.33993 -119.0982,11.59659 -179.513289,4.40522 C 71.400785,480.7278 60.982223,470.29789 56.168258,454.70865 41.65826,376.8829 10.63064,304.35278 12.638901,221.23123 29.368717,155.55028 82.649699,161.62192 119.97735,135.97429 c 9.13341,-11.78814 18.42647,-25.10064 11.07989,-44.697455 z"
     id="path15527"
     inkscape:connector-curvature="0"
     sodipodi:nodetypes="ccscsccccccc" />
  <path
     style="fill:url(#linearGradient16075);fill-opacity:1;stroke:none;filter:url(#filter16077)"
     d="m 33.698432,305.13515 c 19.535792,-4.06658 37.990953,-15.69757 56.652437,-25.8843 -14.37284,65.06869 3.489932,132.77175 21.488851,194.24358 -18.051682,4.14752 -35.089794,1.20004 -52.256985,-0.84388 C 50.954634,416.81208 23.443949,352.02923 33.698432,305.13515 z"
     id="path16039"
     inkscape:connector-curvature="0"
     sodipodi:nodetypes="ccccc"
     transform="matrix(1.5945325,0,0,1.5945325,-2.201092,-285.28959)" />
</svg>
