<?xml version="1.0" encoding="UTF-8" standalone="no"?>
<!-- Created with Inkscape (http://www.inkscape.org/) -->

<svg
   xmlns:dc="http://purl.org/dc/elements/1.1/"
   xmlns:cc="http://creativecommons.org/ns#"
   xmlns:rdf="http://www.w3.org/1999/02/22-rdf-syntax-ns#"
   xmlns:svg="http://www.w3.org/2000/svg"
   xmlns="http://www.w3.org/2000/svg"
   xmlns:sodipodi="http://sodipodi.sourceforge.net/DTD/sodipodi-0.dtd"
   xmlns:inkscape="http://www.inkscape.org/namespaces/inkscape"
   id="svg12450"
   version="1.1"
   inkscape:version="0.48.4 r9939"
   width="353"
   height="360"
   sodipodi:docname="Bandages.png">
  <metadata
     id="metadata12456">
    <rdf:RDF>
      <cc:Work
         rdf:about="">
        <dc:format>image/svg+xml</dc:format>
        <dc:type
           rdf:resource="http://purl.org/dc/dcmitype/StillImage" />
        <dc:title></dc:title>
      </cc:Work>
    </rdf:RDF>
  </metadata>
  <defs
     id="defs12454" />
  <sodipodi:namedview
     pagecolor="#ffffff"
     bordercolor="#666666"
     borderopacity="1"
     objecttolerance="10"
     gridtolerance="10"
     guidetolerance="10"
     inkscape:pageopacity="0"
     inkscape:pageshadow="2"
     inkscape:window-width="1276"
     inkscape:window-height="750"
     id="namedview12452"
     showgrid="false"
     inkscape:zoom="0.92709556"
     inkscape:cx="249.33898"
     inkscape:cy="118.98305"
     inkscape:window-x="0"
     inkscape:window-y="22"
     inkscape:window-maximized="0"
     inkscape:current-layer="svg12450" />
  <path
     style="fill:#000000"
     d="m 208.58563,353.37711 c -9.08332,-8.47595 -12.34681,-13.35989 -18.73248,-28.03391 -4.62997,-10.63948 -4.71318,-11.02118 -6.21306,-28.5 -0.83612,-9.74385 -2.01125,-21.44195 -2.61139,-25.99579 l -1.09117,-8.2797 -10.64249,5.63078 c -5.85338,3.09693 -10.8675,5.9228 -11.1425,6.2797 -0.275,0.35691 -0.95,0.74952 -1.5,0.87248 -0.55,0.12295 -2.98737,0.93403 -5.41638,1.8024 -3.55723,1.2717 -4.9684,1.35019 -7.25391,0.4035 -3.56578,-1.47699 -23.16675,-21.30305 -27.59904,-27.91597 -4.59868,-6.86116 -11.64519,-23.10206 -14.83693,-34.19635 -2.435407,-8.46533 -2.618187,-10.27772 -2.047867,-20.30604 0.34442,-6.0561 1.275667,-13.40736 2.069447,-16.33611 l 1.44323,-5.32502 -2.17927,1.45018 c -1.825307,1.21463 -2.179277,2.4001 -2.179277,7.29853 0,5.50054 -0.17841,5.93692 -3,7.33766 -4.07237,2.02168 -20.42505,1.84957 -26.46706,-0.27857 -3.43034,-1.20825 -4.6452,-1.29309 -5.23468,-0.36559 -0.55301,0.87012 -0.77192,0.78795 -0.78295,-0.2939 -0.008,-0.82594 -2.15281,-2.62374 -4.76531,-3.9951 -9.20196,-4.83033 -27.07611,-24.72093 -34.15053,-38.00318 -5.59032,-10.49584 -7.54451,-18.38295 -7.57331,-30.56595 -0.0376,-15.9101 0.25816,-16.27532 23.09567,-28.518578 22.05675,-11.824687 34.74973,-17.705119 67.378167,-31.215107 45.06517,-18.659488 95.90911,-36.699734 103.43428,-36.700142 7.86071,-4.27e-4 19.08021,7.800892 30.53626,21.232963 8.37518,9.819784 13.95207,20.080481 17.56447,32.316168 2.34645,7.947747 2.57609,10.04184 2.0495,18.68916 -0.61038,10.023246 -2.61127,16.960576 -7.90475,27.406756 -1.41427,2.79093 -2.76879,7.27499 -3.01003,9.96458 -0.87804,9.78897 2.07117,23.11321 6.64884,30.03878 l 2.08118,3.14862 10.88324,-3.89862 c 13.57038,-4.86123 15.60313,-4.89975 20.59458,-0.39027 5.8306,5.2676 8.39958,12.11561 8.62513,22.99164 0.47145,22.73341 2.43838,50.48398 4.00749,56.5399 3.34768,12.9203 7.80488,20.07981 21.04503,33.80431 8.9616,9.28941 14.22786,13.85277 19.79838,17.15579 4.17407,2.475 7.60208,4.76627 7.61781,5.09171 0.0157,0.32544 -1.88391,1.15763 -4.22141,1.8493 -16.86856,4.99144 -72.97808,32.19971 -95.25,46.18802 -10.43818,6.5559 -33.1037,18.87097 -34.73145,18.87097 -0.31127,0 -4.06222,-3.2625 -8.33546,-7.25 z m 19.63652,-0.73662 c 5.42747,-2.74263 15.61964,-8.51869 22.64926,-12.83567 21.39721,-13.1403 69.40704,-36.91338 91.59973,-45.35755 l 3.81859,-1.45295 -6.31859,-4.11489 c -12.59692,-8.20356 -29.67788,-26.91163 -35.14763,-38.49575 -5.48546,-11.61736 -6.60682,-18.77396 -7.76718,-49.5706 -0.71576,-18.9965 -1.48956,-28.9453 -2.46545,-31.69839 -1.95069,-5.50308 -6.86921,-11.20367 -10.32072,-11.96175 -4.66787,-1.02523 -56.21685,18.39175 -77.61762,29.23627 -5.5,2.78705 -16.75,8.28783 -25,12.22396 -36.96788,17.63762 -42.5,20.3651 -42.5,20.95357 0,0.34416 3.13752,0.44846 6.97226,0.23178 6.09107,-0.34418 7.52532,-0.0699 11.34829,2.17056 4.43394,2.59846 14.10365,13.55917 17.01495,19.2866 5.96622,11.73743 8.91082,24.63788 10.63423,46.58906 1.81949,23.17509 2.49851,26.74595 7.10449,37.3618 2.36737,5.45632 5.78425,12.20224 7.59306,14.99095 3.57979,5.5191 15.43379,17.42962 17.34691,17.42962 0.65301,0 5.62795,-2.24398 11.05542,-4.98662 z m -17.64393,-6.53878 c -2.03952,-2.48896 -3.53215,-4.67753 -3.31695,-4.86348 0.2152,-0.18595 2.08561,1.85048 4.15647,4.5254 4.74729,6.13203 4.11638,6.38611 -0.83952,0.33808 z m 9.08431,-1.46417 c -1.5753,-1.64426 -2.67199,-3.11494 -2.43709,-3.26818 0.23491,-0.15324 1.85104,1.19207 3.59142,2.98957 1.74038,1.7975 2.83707,3.26818 2.43709,3.26818 -0.39997,0 -2.01611,-1.34531 -3.59142,-2.98957 z m 8.46995,-3.5346 c -0.69572,-0.83829 -0.97582,-1.81329 -0.62244,-2.16666 0.35337,-0.35338 0.6425,-0.155 0.6425,0.44083 0,0.59583 1.2375,1.53531 2.75,2.08772 2.33817,0.85397 2.43139,1.01621 0.62244,1.08333 -1.17015,0.0434 -2.69678,-0.60692 -3.3925,-1.44522 z m 15.33538,-4.25979 c -0.65157,-0.41433 0.69843,-0.79686 3,-0.85006 3.01296,-0.0696 3.62468,0.1259 2.18468,0.69836 -2.60793,1.03677 -3.74071,1.06991 -5.18468,0.1517 z m 9.18468,-7.22328 c -1.2867,-0.55758 -0.21675,-0.66059 3,-0.28884 2.75,0.31781 5.1875,0.73944 5.41667,0.93696 0.86735,0.74757 -6.50615,0.17977 -8.41667,-0.64812 z m 18.91982,-8.12249 c -0.4259,-0.68912 -0.1564,-0.94013 0.69098,-0.64358 0.76406,0.26738 2.5142,0.0981 3.8892,-0.3761 2.37483,-0.81908 2.40281,-0.78686 0.55887,0.64358 -2.30902,1.79122 -4.17984,1.92814 -5.13905,0.3761 z m 16.08018,-6.87027 c 2.74909,-1.18132 4.32797,-1.18132 2.5,0 -0.825,0.53316 -2.175,0.94464 -3,0.9144 -0.98906,-0.0362 -0.81874,-0.34772 0.5,-0.9144 z M 181.2954,235.48425 c -0.70479,-1.12854 -1.06172,-2.27162 -0.79317,-2.54017 0.26855,-0.26854 1.01119,0.48882 1.65031,1.68303 0.63912,1.19421 0.99605,2.33729 0.79317,2.54017 -0.20289,0.20288 -0.94552,-0.55448 -1.65031,-1.68303 z m 6.97314,0.97465 c -0.0638,-0.91752 -0.37498,-2.49252 -0.69151,-3.5 -0.54548,-1.73622 -0.51588,-1.73885 0.56728,-0.0504 0.62853,0.97978 0.9397,2.55478 0.6915,3.5 -0.40654,1.54825 -0.46276,1.55325 -0.56727,0.0504 z m 6.96295,-2.5 c -0.0434,-0.64252 -0.33793,-1.99252 -0.65446,-3 -0.54705,-1.74122 -0.51883,-1.7434 0.57078,-0.0441 0.63045,0.98322 0.92496,2.33322 0.65445,3 -0.35498,0.87499 -0.51379,0.88727 -0.57077,0.0441 z m -22.20651,-3.08179 c -1.24387,-1.58606 -1.2085,-1.62143 0.37756,-0.37756 0.9625,0.75485 1.75,1.54235 1.75,1.75 0,0.82304 -0.82119,0.29331 -2.12756,-1.37244 z m 32.28545,-6.25 c 0,-1.375 0.22698,-1.9375 0.50439,-1.25 0.27741,0.6875 0.27741,1.8125 0,2.5 -0.27741,0.6875 -0.50439,0.125 -0.50439,-1.25 z m 5.66404,-2.5 c -0.64456,-2.99648 -0.33292,-4.34433 0.75331,-3.25809 0.31639,0.31639 0.42152,1.85389 0.23363,3.41667 l -0.34162,2.84142 -0.64532,-3 z m 8.56566,-3.03121 c -0.91218,-1.39216 -1.4766,-2.71311 -1.25427,-2.93544 0.22233,-0.22233 1.16235,0.91671 2.08895,2.53121 2.06367,3.59573 1.45092,3.89249 -0.83468,0.40423 z m 8.3991,-4.46879 c -0.24217,-1.65 -0.0682,-3 0.3865,-3 0.45475,0 0.82681,1.35 0.82681,3 0,1.65 -0.17393,3 -0.3865,3 -0.21258,0 -0.58464,-1.35 -0.82681,-3 z m 5.46549,-1.5 c 0.0111,-2.2 0.21589,-2.98225 0.45508,-1.73834 0.23919,1.24391 0.23011,3.04391 -0.0202,4 -0.25029,0.95609 -0.446,-0.0617 -0.4349,-2.26166 z m 5.94277,-5 c 0.0204,-1.65 0.2445,-2.20394 0.49804,-1.23097 0.25354,0.97297 0.23687,2.32297 -0.0371,3 -0.27393,0.67703 -0.48137,-0.11903 -0.46099,-1.76903 z m 8.884,-4.08333 c 0.048,-1.16495 0.28494,-1.4019 0.60416,-0.60417 0.28887,0.72187 0.25335,1.58437 -0.0789,1.91667 -0.3323,0.33229 -0.56864,-0.25834 -0.52522,-1.3125 z m 6.15305,-2.41667 c 0,-1.925 0.2058,-2.7125 0.45733,-1.75 0.25152,0.9625 0.25152,2.5375 0,3.5 -0.25153,0.9625 -0.45733,0.175 -0.45733,-1.75 z m 7.84695,-4.58333 c 0.048,-1.16495 0.28494,-1.4019 0.60416,-0.60417 0.28887,0.72187 0.25335,1.58437 -0.0789,1.91667 -0.3323,0.33229 -0.56864,-0.25834 -0.52522,-1.3125 z m 27.07894,-2.41667 c 0,-1.375 0.22698,-1.9375 0.50439,-1.25 0.27741,0.6875 0.27741,1.8125 0,2.5 -0.27741,0.6875 -0.50439,0.125 -0.50439,-1.25 z m -18.07894,-0.58333 c 0.048,-1.16495 0.28494,-1.4019 0.60416,-0.60417 0.28887,0.72187 0.25335,1.58437 -0.0789,1.91667 -0.33229,0.33229 -0.56864,-0.25834 -0.52522,-1.3125 z m 6.80221,-2.19809 c -0.32944,-1.98722 -0.18269,-2.92011 0.37209,-2.36533 0.50384,0.50384 0.74864,1.98048 0.544,3.28141 -0.31488,2.00169 -0.45573,1.86084 -0.91609,-0.91608 z m 6.42871,-2.71858 c 0.006,-3.3 0.1923,-4.52944 0.41486,-2.73209 0.22256,1.79735 0.21797,4.49735 -0.0102,6 -0.22818,1.50265 -0.41027,0.0321 -0.40466,-3.26791 z m 5.97614,-3 c 0.008,-2.75 0.20172,-3.75631 0.43157,-2.23625 0.22986,1.52006 0.22371,3.77006 -0.0136,5 -0.23736,1.22994 -0.42542,-0.0137 -0.41792,-2.76375 z m -142.28601,89.53138 c 0,-0.53273 0.6029,-0.73725 1.33979,-0.45449 0.73688,0.28277 1.91999,-0.18498 2.62914,-1.03945 1.91668,-2.30947 0.79064,-9.15179 -2.73031,-16.5906 -1.67829,-3.54576 -4.27028,-9.37184 -5.75998,-12.94684 -1.4897,-3.575 -4.00682,-9.07467 -5.59359,-12.22148 -5.23329,-10.3784 -3.68099,-13.46043 9.94013,-19.73579 5.32115,-2.4515 23.62482,-11.2919 40.67482,-19.64534 27.92116,-13.67964 53.76627,-25.18202 63.63277,-28.31981 l 3.63277,-1.1553 -2.9206,-5.39231 c -3.46597,-6.39923 -5.80353,-16.58339 -5.82758,-25.38925 -0.0146,-5.33422 0.69172,-7.99387 4.38162,-16.49999 5.86084,-13.51066 6.58889,-16.528527 6.59544,-27.339099 0.0104,-17.086792 -6.82447,-33.26117 -20.24125,-47.900161 C 224.42955,26.324795 215.70207,20.853785 207.8353,22.178274 190.75376,25.054207 102.35863,58.883121 64.706353,76.953877 l -14.94618,7.173242 7.44618,0.684975 c 8.53956,0.785555 23.33911,5.655525 29.94619,9.854158 9.85986,6.265688 16.623447,15.955038 20.530857,29.411968 3.07066,10.57522 1.13219,37.58214 -4.0589,56.54889 -1.16992,4.27452 -1.80409,10.26619 -1.85225,17.5 -0.08,12.02331 0.92324,16.23179 7.90605,33.16338 5.67215,13.75357 9.14765,19.07155 19.42996,29.73048 11.86368,12.29821 19.04428,17.81725 19.04428,14.63752 z m -39.87483,-92.09025 c -0.0688,-1.95738 0.5832,-4.43238 1.44899,-5.5 0.86578,-1.06762 1.21906,-1.26613 0.78505,-0.44113 -0.434,0.825 -1.08605,3.3 -1.44899,5.5 l -0.65989,4 -0.12516,-3.55887 z m 4.95378,0.47554 c 0.048,-1.16495 0.28494,-1.4019 0.60416,-0.60417 0.28887,0.72187 0.25335,1.58437 -0.0789,1.91667 -0.3323,0.33229 -0.56864,-0.25834 -0.52522,-1.3125 z m 7.99134,-1.5 c 0.0387,-1.87917 0.46028,-4.31667 0.93695,-5.41667 0.55758,-1.2867 0.66059,-0.21675 0.28884,3 -0.68712,5.94562 -1.32423,7.20169 -1.22579,2.41667 z m -6.9124,-2.91667 c 0,-1.375 0.22698,-1.9375 0.50439,-1.25 0.27741,0.6875 0.27741,1.8125 0,2.5 -0.27741,0.6875 -0.50439,0.125 -0.50439,-1.25 z m 17.51583,-5.25 c 0.80517,-4.19544 2.26391,-8.1457 2.80735,-7.60226 0.48183,0.48183 -2.41488,10.85226 -3.03129,10.85226 -0.21988,0 -0.11911,-1.4625 0.22394,-3.25 z m 9.44746,-1.75 c -0.017,-0.825 0.58718,-2.85 1.34271,-4.5 1.7684,-3.86206 1.79435,-2.0657 0.0361,2.5 -0.74131,1.925 -1.36178,2.825 -1.37882,2 z m 6.30891,-3.5 c 0.39129,-1.65 1.12174,-3.41965 1.62322,-3.93255 0.5261,-0.53808 0.50922,0.47113 -0.0399,2.38581 -1.21638,4.24128 -2.52562,5.52027 -1.58331,1.54674 z m 6.65586,-0.79966 c -0.0879,-1.84116 2.55613,-7.70034 3.47491,-7.70034 0.28023,0 -0.0183,0.98622 -0.6634,2.1916 -0.6451,1.20538 -1.52226,3.34288 -1.94923,4.75 -0.51627,1.70138 -0.80512,1.95555 -0.86228,0.75874 z m 11.91405,-6.51481 c 0,-1.75092 3.0284,-7.49046 3.63316,-6.8857 0.26713,0.26712 -0.44106,2.21478 -1.57374,4.32812 -1.13268,2.11334 -2.05942,3.26425 -2.05942,2.55758 z m 5.6248,-3.18553 c 0.34906,-1.925 1.0285,-4.4 1.50986,-5.5 0.60081,-1.37298 0.67623,-0.90271 0.24054,1.5 -0.34906,1.925 -1.0285,4.4 -1.50986,5.5 -0.60081,1.37298 -0.67623,0.90271 -0.24054,-1.5 z m 12.45415,-3.58333 c 0.048,-1.16495 0.28494,-1.4019 0.60416,-0.60417 0.28887,0.72187 0.25335,1.58437 -0.0789,1.91667 -0.3323,0.33229 -0.56864,-0.25834 -0.52522,-1.3125 z m 0.95146,-2.71633 c -0.0628,-1.65039 3.06523,-6.70034 4.15026,-6.70034 0.69214,0 0.54284,0.67744 -0.3857,1.75 -0.83325,0.9625 -2.01431,2.65 -2.62458,3.75 -0.61026,1.1 -1.12326,1.64015 -1.13998,1.20034 z m 11.47205,-1.70034 c 1.07803,-3.58906 3.30737,-7.76444 4.5585,-8.53767 0.59135,-0.36548 -0.13459,1.74349 -1.61319,4.68658 -3.12167,6.21355 -3.99978,7.36171 -2.94531,3.85109 z m 9.58996,0 c -0.07,-2.16409 3.82618,-10.41473 4.56785,-9.67306 0.3436,0.3436 0.10963,1.24539 -0.51995,2.00398 -0.62957,0.75859 -1.78699,3.13196 -2.57204,5.27417 -0.78504,2.1422 -1.44918,3.21991 -1.47586,2.39491 z m 9.21745,-6.5 c 0.006,-3.3 0.1923,-4.52944 0.41486,-2.73209 0.22256,1.79735 0.21797,4.49735 -0.0102,6 -0.22818,1.50265 -0.41027,0.0321 -0.40466,-3.26791 z m 14.78779,-2.48022 c -0.60371,-2.81502 -1.05248,-5.88357 -0.99725,-6.819 0.0552,-0.93543 0.73159,1.18535 1.50304,4.71285 0.77144,3.5275 1.2202,6.59605 0.99725,6.81901 -0.22296,0.22295 -0.89932,-1.89783 -1.50304,-4.71286 z m -10.70813,2.55295 c -0.30123,-0.785 -0.38004,-2.4725 -0.17514,-3.75 0.27408,-1.70876 0.50623,-1.33149 0.87828,1.42727 0.52359,3.88245 0.24656,4.79759 -0.70314,2.32273 z m 4.76836,-0.57273 c 0,-1.375 0.22698,-1.9375 0.50439,-1.25 0.27741,0.6875 0.27741,1.8125 0,2.5 -0.27741,0.6875 -0.50439,0.125 -0.50439,-1.25 z m 12.46711,-4.125 c -0.84085,-4.20425 -0.78833,-7.65667 0.125,-8.21753 0.4125,-0.25331 0.79974,2.19513 0.86054,5.44098 0.0608,3.24585 0.005,5.90155 -0.125,5.90155 -0.12955,0 -0.51679,-1.40625 -0.86054,-3.125 z m -12.54605,-1.45833 c 0.048,-1.16495 0.28494,-1.4019 0.60416,-0.60417 0.28887,0.72187 0.25335,1.58437 -0.0789,1.91667 -0.3323,0.33229 -0.56864,-0.25834 -0.52522,-1.3125 z m 16.05217,-2.19879 c -0.13265,-4.33215 2.36543,-12.05465 3.52451,-10.89558 0.34615,0.34616 0.0552,1.32124 -0.64661,2.16684 -0.70179,0.84561 -1.60691,4.11897 -2.01138,7.27416 -0.68885,5.37352 -0.74371,5.46561 -0.86652,1.45458 z m -5.38112,-89.443571 c -4.01032,-4.673714 -3.36984,-5.702392 0.75,-1.204575 1.925,2.10161 3.5,3.958172 3.5,4.125692 0,1.119543 -1.90835,-0.192106 -4.25,-2.921117 z M 185.07685,35.27133 c 2.62124,-2.858993 3.07569,-3.118929 3.07569,-1.759221 0,0.486745 -1.2375,1.676639 -2.75,2.644211 l -2.75,1.759221 2.42431,-2.644211 z m 39.091,-0.394211 c 0.009,-0.998683 0.33573,-1.320676 0.76164,-0.75 0.41047,0.55 1.15358,1.3375 1.65135,1.75 0.49777,0.4125 0.15503,0.75 -0.76163,0.75 -0.92647,0 -1.65987,-0.777208 -1.65136,-1.75 z m -30.01531,-3.75 c 0,-0.825 0.17686,-1.5 0.39301,-1.5 0.21616,0 0.65203,0.675 0.96862,1.5 0.31658,0.825 0.13972,1.5 -0.39301,1.5 -0.53274,0 -0.96862,-0.675 -0.96862,-1.5 z m 26.15789,-0.5 c 0,-1.375 0.22698,-1.9375 0.50439,-1.25 0.27741,0.6875 0.27741,1.8125 0,2.5 -0.27741,0.6875 -0.50439,0.125 -0.50439,-1.25 z m -6.14258,-0.190983 c -0.008,-0.930041 0.43469,-1.969098 0.98469,-2.309017 1.2656,-0.782182 1.2656,0.541628 0,2.5 -0.8354,1.292687 -0.97149,1.266292 -0.98469,-0.190983 z m -11.93636,-1.39235 c 0.048,-1.164943 0.28494,-1.4019 0.60416,-0.604167 0.28887,0.721875 0.25335,1.584375 -0.0789,1.916667 -0.3323,0.332291 -0.56864,-0.258334 -0.52522,-1.3125 z m 6.92105,-0.35765 c 0,-0.517541 0.44485,-1.215913 0.98855,-1.551938 0.56686,-0.350339 0.7345,0.05106 0.39301,0.940983 -0.66479,1.732417 -1.38156,2.049387 -1.38156,0.610955 z m -52,240.774304 c 0,-3.64127 -0.43653,-3.50932 -1.37838,0.41667 -0.39164,1.63254 -0.24563,2.75 0.35933,2.75 0.56048,0 1.01905,-1.425 1.01905,-3.16667 z m 2.75412,-3.14421 c -0.0358,-2.37099 0.38267,-5.11113 0.93002,-6.0892 0.7216,-1.28942 0.8866,-0.17299 0.60017,4.06088 -0.35787,5.29005 -0.25555,5.66595 1.08802,3.99697 0.81567,-1.01323 1.78014,-3.60073 2.14325,-5.75 0.36312,-2.14927 1.03491,-3.90777 1.49286,-3.90777 0.45796,0 1.16092,-1.4625 1.56215,-3.25 0.40123,-1.7875 0.8941,-2.77864 1.09528,-2.20254 0.20117,0.57611 -0.54135,3.68406 -1.65005,6.90655 -2.28956,6.65472 -2.41112,7.54599 -1.02924,7.54599 1.13501,0 4.01342,-6.41429 4.01342,-8.94356 0,-1.48275 3.87338,-10.36502 3.94933,-9.05644 0.016,0.275 -0.64111,2.70902 -1.46015,5.40893 -1.61999,5.34012 -2.00089,10.57576 -0.65776,9.04107 0.45728,-0.5225 1.461,-2.975 2.23049,-5.45 l 1.39907,-4.5 0.33357,3.81198 c 0.21057,2.4063 0.77089,3.65629 1.51951,3.38977 0.65227,-0.23222 1.06815,-1.49761 0.92418,-2.81198 -0.42614,-3.8905 -6.06885,-17.14895 -8.67776,-20.38977 l -2.41504,-3 -1.53358,3.5 c -0.84347,1.925 -1.55119,2.91515 -1.57272,2.20034 -0.0215,-0.71481 0.5872,-2.51481 1.35274,-4 1.30981,-2.54113 1.18887,-2.93476 -2.05132,-6.67632 -2.85332,-3.29482 -3.62189,-3.72312 -4.48621,-2.5 -0.87687,1.24087 -0.95781,1.20887 -0.50812,-0.20091 0.29419,-0.92228 -0.1914,-2.27228 -1.07909,-3 -1.40985,-1.15578 -1.54416,-1.052 -1.06197,0.82059 0.53766,2.08805 -1.17357,2.72123 -2.84289,1.05191 -1.14666,-1.14665 -2.36228,-0.7885 -2.36228,0.69598 0,0.76538 1.2375,1.72086 2.75,2.1233 1.5125,0.40243 2.21245,0.9304 1.55544,1.17326 -0.65701,0.24286 -2.11951,-0.0535 -3.25,-0.65848 -1.57618,-0.84354 -2.07022,-0.80037 -2.11883,0.18515 -0.0349,0.70685 -0.47036,0.27268 -0.96777,-0.96482 -0.49742,-1.2375 -1.64638,-2.25 -2.55325,-2.25 -1.15625,0 -1.49268,-0.59721 -1.1261,-1.999 0.69367,-2.65259 -1.2642,-3.75607 -2.84019,-1.60077 -0.93125,1.27355 -1.35838,1.37561 -1.68568,0.40277 -0.63308,-1.88171 -3.79614,0.85285 -3.20418,2.77011 1.54997,5.02007 1.49432,4.94699 2.58869,3.39886 0.85841,-1.21433 0.94172,-1.16494 0.47599,0.28219 -0.31552,0.98038 1.14752,5.39147 3.31673,10 2.1347,4.53521 3.96954,8.69584 4.07743,9.24584 0.29274,1.49242 4.14738,8.92394 4.92752,9.5 0.37243,0.275 1.16604,2.075 1.76358,4 0.81821,2.63586 1.11165,2.94448 1.18853,1.25 0.0562,-1.2375 0.57182,-2.25 1.14593,-2.25 0.57411,0 0.9392,0.5625 0.81132,1.25 -0.25243,1.35711 1.09539,7.75 1.63394,7.75 0.1816,0 0.30086,-1.9399 0.26502,-4.31088 z m -1.66852,-6.18912 c 0.10413,-1.89422 1.77076,-5.08385 1.8288,-3.5 0.0302,0.825 -0.38124,2.175 -0.9144,3 -0.53316,0.825 -0.94464,1.05 -0.9144,0.5 z m -4.00665,-4.08333 c 0.048,-1.16495 0.28494,-1.4019 0.60416,-0.60417 0.28887,0.72187 0.25335,1.58437 -0.0789,1.91667 -0.3323,0.33229 -0.56864,-0.25834 -0.52522,-1.3125 z m 7.99134,0.35238 c -0.0428,-1.05361 -1.14639,-1.95736 -2.82029,-2.30956 -3.72441,-0.78363 -5.53982,-1.82895 -6.1012,-3.51308 -0.32227,-0.96683 0.0748,-0.86569 1.26191,0.32145 2.40272,2.40272 5.4635,2.16417 6.64451,-0.51786 0.87892,-1.99597 0.926,-1.92524 0.41698,0.62648 -0.46248,2.31846 -0.27295,2.76104 0.977,2.28139 1.71844,-0.65943 1.8232,-0.11889 0.5508,2.84213 -0.72407,1.685 -0.8705,1.72737 -0.92971,0.26905 z m 7.50292,-6.76905 c 0.3678,-1.375 1.08577,-3.175 1.5955,-4 0.64411,-1.04249 0.72283,-0.73748 0.25808,1 -0.3678,1.375 -1.08577,3.175 -1.5955,4 -0.64411,1.04249 -0.72283,0.73748 -0.25808,-1 z m -6.41592,-2.12137 c -1.28848,-0.48552 -3.76348,-1.11459 -5.5,-1.39792 -6.3655,-1.03862 -8.6457,-1.65293 -9.1472,-2.46439 -0.28207,-0.45639 0.43383,-0.58224 1.59089,-0.27966 1.21618,0.31804 2.52224,-0.0377 3.09571,-0.84326 0.76556,-1.07536 0.85745,-0.97825 0.40259,0.4255 -0.46368,1.43094 -0.12724,1.75089 1.57734,1.5 4.61953,-0.67991 1.79232,-3.95813 -3.67662,-4.26313 -0.55,-0.0307 -1.36516,-0.62773 -1.81146,-1.3268 -0.4463,-0.69907 -1.14374,-1.06568 -1.54985,-0.81469 -0.40611,0.251 -1.33962,-0.50637 -2.07445,-1.68303 -1.33348,-2.13523 -1.33072,-2.13587 1.42564,-0.32984 2.04076,1.33716 2.9537,1.49889 3.49718,0.61953 0.48711,-0.78816 0.92843,-0.45212 1.30689,0.99514 0.31696,1.21206 1.04673,1.8914 1.63874,1.52552 0.58702,-0.3628 1.06731,-0.18308 1.06731,0.39938 0,0.58246 0.825,1.05902 1.83333,1.05902 2.49375,0 3.36296,1.05856 2.10944,2.56896 -1.21488,1.46384 -0.58383,1.95128 3.72066,2.87388 2.66921,0.57211 3.26933,0.34437 3.84131,-1.45776 0.37283,-1.17469 0.897,-1.91667 1.16482,-1.64885 0.26783,0.26783 -0.11076,1.59806 -0.8413,2.95607 -1.10185,2.04823 -1.7276,2.31863 -3.67097,1.58633 z m -20.07834,-12.46196 c 0.048,-1.16495 0.28494,-1.4019 0.60416,-0.60417 0.28887,0.72187 0.25335,1.58437 -0.0789,1.91667 -0.3323,0.33229 -0.56864,-0.25834 -0.52522,-1.3125 z m 5.92126,-2.41202 c -2.14735,-1.11323 -3.73608,-1.43202 -4.11126,-0.82497 -0.33631,0.54417 -0.84918,0.0804 -1.1397,-1.03056 -0.32111,-1.2279 0.037,-2.23684 0.9132,-2.57308 0.79537,-0.30522 1.17015,-0.1142 0.83618,0.42617 -0.33288,0.53862 1.10625,1.75762 3.19806,2.70889 4.60803,2.09554 4.74456,2.18284 4.21998,2.6984 -0.22917,0.22523 -1.99157,-0.40696 -3.91646,-1.40485 z m 5.81229,1.31224 c 0.72187,-0.28887 1.58437,-0.25335 1.91667,0.0789 0.33229,0.33229 -0.25834,0.56864 -1.3125,0.52522 -1.16495,-0.048 -1.4019,-0.28494 -0.60417,-0.60416 z m -4.8125,-8.25787 c 0,-1.17986 -1.95035,-2.442 -2.66667,-1.72569 -0.71631,0.71632 0.54583,2.66667 1.72569,2.66667 0.51754,0 0.94098,-0.42344 0.94098,-0.94098 z m 5,-1.55902 c 0,-0.825 -0.675,-1.5 -1.5,-1.5 -1.56157,0 -1.98397,1.1827 -0.83333,2.33333 1.15063,1.15064 2.33333,0.72824 2.33333,-0.83333 z m -4,-1.5 c 0,-0.55 -0.7875,-0.99311 -1.75,-0.98469 -1.49555,0.0131 -1.5319,0.15626 -0.25,0.98469 1.88721,1.21961 2,1.21961 2,0 z m -60.999997,-35.5 c 0,-1.03678 -1.15805,-1.55191 -3.75,-1.6681 l -3.75,-0.16811 3.85039,-0.39824 c 3.60513,-0.37288 3.73253,-0.49477 2,-1.91354 -1.66263,-1.36152 -1.67282,-1.45945 -0.10039,-0.96503 1.24549,0.39162 1.75,0.003 1.75,-1.34881 0,-1.14009 0.81497,-2.02678 2.03916,-2.21862 2.01678,-0.31604 2.01563,-0.33409 -0.10464,-1.64337 -1.17909,-0.72811 -1.84516,-0.84061 -1.48015,-0.25 0.36502,0.5906 0.0585,1.07382 -0.68107,1.07382 -0.7396,0 -1.34473,-0.9 -1.34473,-2 0,-2.28715 0.8189,-2.48691 3.45253,-0.84218 2.79666,1.74654 5.1189,0.36146 5.1189,-3.05311 0,-1.97632 -0.5808,-3.10984 -1.75,-3.41538 -1.31691,-0.34415 -1.19317,-0.48604 0.5,-0.57333 2.64029,-0.13612 3.11113,-3.10035 0.5,-3.1478 -1.58346,-0.0288 -1.56527,-0.17153 0.19113,-1.5 1.42067,-1.07455 1.55473,-1.48937 0.5,-1.54715 -1.02023,-0.0559 -1.07605,-0.22626 -0.19113,-0.58333 0.6875,-0.27741 1.28553,-1.92939 1.32895,-3.67105 0.0434,-1.74167 0.30407,-2.49167 0.57922,-1.66667 1.517707,4.55055 1.530277,4.56377 2.378877,2.5 1.43059,-3.47914 1.03985,-4.49581 -1.787047,-4.64983 l -2.75,-0.14983 2.66537,-0.40843 c 1.465947,-0.22463 2.939037,-1.12161 3.273527,-1.99329 0.80262,-2.09158 -0.0631,-2.85538 -1.69827,-1.49832 -0.83215,0.69062 -1.840987,0.74801 -2.774167,0.15781 -1.05832,-0.66935 -1.10729,-0.93175 -0.17595,-0.9428 2.182947,-0.0259 1.17285,-7.91453 -1.24096,-9.69159 -2.04479,-1.50539 -2.04452,-1.50742 0.11629,-0.87563 2.53209,0.74035 4.249477,-1.24691 2.21227,-2.55989 -0.93862,-0.60495 -1.03598,-1.12738 -0.30528,-1.6382 0.59006,-0.4125 1.17142,-2.85119 1.291897,-5.4193 0.17941,-3.82396 -0.125397,-4.77865 -1.683597,-5.2732 -1.79892,-0.57096 -1.82734,-0.92996 -0.5211,-6.58413 1.24591,-5.39302 1.21435,-6.24993 -0.32137,-8.7268 -2.23064,-3.59765 -6.41451,-8.188448 -8.48866,-9.314283 -1.389,-0.753939 -1.65,-0.344429 -1.65,2.588843 0,1.91645 0.43494,3.75326 0.96653,4.0818 1.50364,0.9293 2.24338,-0.40408 1.03317,-1.86229 -0.69062,-0.83215 -0.74801,-1.841 -0.15781,-2.77417 0.79555,-1.257858 0.92966,-1.239572 0.9428,0.12855 0.0183,1.90284 3.39232,5.19464 4.34646,4.2405 0.36787,-0.36786 0.73739,0.19366 0.82116,1.24782 0.0838,1.05417 0.20021,2.49802 0.25875,3.20855 0.0585,0.71053 0.77749,1.75251 1.59768,2.3155 1.18467,0.81318 1.07243,0.9074 -0.54595,0.45828 -1.57793,-0.4379 -2.07463,-0.0685 -2.20321,1.6384 -0.0913,1.21207 0.27443,2.73445 0.81273,3.38307 0.67134,0.80891 0.4797,1.3708 -0.61017,1.78902 -0.8739,0.33535 -1.30883,1.0629 -0.96651,1.61679 0.34232,0.55388 0.1724,1.00706 -0.3776,1.00706 -1.59419,0 -2.25494,-1.77741 -0.87426,-2.35177 0.89382,-0.37183 0.67925,-1.01226 -0.74377,-2.21994 -1.65068,-1.4009 -1.69435,-1.59201 -0.25,-1.09421 1.27829,0.44057 1.75,0.0725 1.75,-1.36546 0,-1.08274 -0.5625,-1.97551 -1.25,-1.98393 -0.83333,-0.0102 -0.75,-0.33844 0.25,-0.98469 0.91752,-0.59295 1.0339,-0.97532 0.29969,-0.98469 -0.66017,-0.008 -1.65899,0.77219 -2.21959,1.73469 -0.97075,1.66667 -1.02073,1.66667 -1.04969,0 -0.0167,-0.9625 -0.59291,-1.75689 -1.28041,-1.76531 -0.84746,-0.0104 -0.76695,-0.35694 0.25,-1.07613 1.33333,-0.94295 1.33333,-1.01538 0,-0.65182 -2.23699,0.60995 -2.43158,3.69154 -0.33787,5.35059 1.49786,1.1869 1.09786,1.16511 -2.16213,-0.11775 l -4,-1.57408 3.038,2.79225 c 1.6709,1.53574 3.0993,3.13724 3.1742,3.5589 0.75443,4.24661 1.567,6.68062 2.11917,6.34786 0.36775,-0.22162 0.756,1.89961 0.86279,4.71386 0.13474,3.55073 0.72885,5.50776 1.94113,6.39421 1.09959,0.80403 1.2698,1.27741 0.45933,1.27741 -0.92231,0 -1.18933,1.39196 -0.94113,4.90596 0.19058,2.69828 0.009,4.69672 -0.40349,4.44098 -0.4125,-0.25573 -0.75689,2.37408 -0.76531,5.84404 -0.01,4.08922 -0.32922,5.81316 -0.90748,4.8997 -0.49069,-0.77512 -0.66093,-2.12512 -0.37829,-3 0.28263,-0.87487 -0.48846,-0.0157 -1.71353,1.90932 -1.22508,1.925 -2.84795,3.85986 -3.6064,4.29969 -0.81796,0.47435 -1.44738,2.71196 -1.54709,5.5 -0.16015,4.47796 -0.18689,4.51903 -0.56525,0.86836 -0.32606,-3.14601 -0.69873,-3.70132 -2.0819,-3.10221 -0.92661,0.40136 -3.14725,1.22335 -4.93475,1.82664 -1.7875,0.6033 -3.25,1.34895 -3.25,1.65701 0,0.30805 -2.025,0.49172 -4.5,0.40815 -3.27192,-0.11048 -4.5,0.23181 -4.5,1.25422 0,0.7734 -0.45734,1.12352 -1.01631,0.77806 -0.55897,-0.34546 -0.7569,-1.04787 -0.43983,-1.56089 0.31707,-0.51303 -0.63436,-1.39314 -2.11429,-1.95581 -1.47993,-0.56267 -3.92031,-1.89853 -5.42305,-2.96858 -1.50275,-1.07005 -3.01898,-1.65885 -3.3694,-1.30843 -0.35042,0.35042 -0.63712,-0.10132 -0.63712,-1.00386 0,-1.73521 -5.30566,-5.05336 -6.37322,-3.9858 -0.34473,0.34473 -0.62678,0.0536 -0.62678,-0.64687 0,-0.76905 0.64903,-1.0246 1.6382,-0.64502 1.39666,0.53595 -3.34755,-6.05539 -7.36756,-10.23609 -0.69885,-0.72678 -1.27064,-1.76584 -1.27064,-2.30902 0,-0.54317 -0.46115,-0.70258 -1.02478,-0.35424 -0.56362,0.34834 -0.90663,0.2624 -0.76223,-0.19098 0.66601,-2.09111 -2.68305,-7.26253 -5.78519,-8.93315 -1.88529,-1.01529 -3.4278,-2.20403 -3.4278,-2.64164 0,-0.4376 1.17931,-0.0229 2.62069,0.9215 l 2.62069,1.71714 -0.74792,-4.42687 c -0.41135,-2.43478 -1.47816,-4.99823 -2.37069,-5.69654 -1.47274,-1.15228 -1.46097,-1.21332 0.12723,-0.66022 2.3336,0.81268 2.40009,-3.22872 0.095,-5.7758 -0.91024,-1.00581 -1.17274,-1.82874 -0.58333,-1.82874 0.58941,0 1.27255,0.5625 1.51808,1.25 0.60837,1.70342 1.79224,0.44429 1.98471,-2.11089 0.0865,-1.14782 0.73733,-2.30956 1.44637,-2.58164 0.70904,-0.27209 1.28916,-1.43538 1.28916,-2.5851 0,-1.14972 0.41891,-1.83151 0.9309,-1.51508 0.512,0.31644 1.19434,0.14909 1.51631,-0.37188 0.32198,-0.52097 0.13922,-1.22298 -0.40612,-1.56002 -2.27574,-1.40648 -13.05058,12.98802 -11.24825,15.02695 0.38894,0.43999 -0.81769,-0.25433 -2.68139,-1.54293 l -3.38855,-2.34291 0.70633,4.91675 c 0.85365,5.94224 2.6665,12.41489 3.47906,12.42171 0.32544,0.003 1.94171,1.16028 3.59171,2.57233 1.65,1.41205 2.325,2.24137 1.5,1.84293 -0.825,-0.39844 -2.2875,-1.40074 -3.25,-2.22732 -2.05266,-1.76281 -2.11077,-1.52626 -0.65259,2.65668 0.60358,1.73142 1.41016,2.95475 1.79242,2.7185 0.38225,-0.23624 0.76801,0.55179 0.85726,1.75119 0.17198,2.3114 3.91743,6.00609 5.25229,5.1811 0.43508,-0.26889 1.04908,0.18352 1.36445,1.00536 0.68923,1.7961 -0.50023,1.95786 -2.16383,0.29426 -0.71869,-0.71869 -1.2,-0.78543 -1.2,-0.16639 0,0.56849 1.72805,2.90543 3.84012,5.19321 2.11207,2.28778 3.65544,4.34428 3.42972,4.57 -0.22572,0.22572 3.33373,4.23411 7.90988,8.90752 6.47125,6.60879 9.26476,8.74998 12.57028,9.63493 4.63747,1.24155 5.96347,2.68162 1.5,1.62904 l -2.75,-0.6485 3,2.0335 c 3.54788,2.40489 4.69454,2.56839 4.29384,0.61227 -0.16161,-0.78894 0.14879,-1.35144 0.68977,-1.25 0.54099,0.10143 0.85696,0.93205 0.70215,1.84583 -0.1548,0.91378 0.2865,2.01243 0.98068,2.44146 2.56892,1.58768 11.53337,3.22956 18.08356,3.31208 5.37113,0.0677 6.75,-0.22137 6.75,-1.41495 z m -16.92105,-5.08333 c 0.048,-1.16495 0.28494,-1.4019 0.60416,-0.60417 0.28887,0.72187 0.25335,1.58437 -0.0789,1.91667 -0.33229,0.33229 -0.56864,-0.25834 -0.52522,-1.3125 z m 8.82746,-0.16667 c -0.32715,-2.62166 0.0243,-9.51404 0.50989,-9.99964 0.32104,-0.32103 0.5837,1.96631 0.5837,5.08297 0,3.11667 -0.225,5.66667 -0.5,5.66667 -0.275,0 -0.54212,-0.3375 -0.59359,-0.75 z m -9.90641,-5.75 c 0,-1.925 0.35964,-3.5 0.7992,-3.5 0.43956,0 0.61533,1.575 0.39059,3.5 -0.22473,1.925 -0.58437,3.5 -0.7992,3.5 -0.21482,0 -0.39059,-1.575 -0.39059,-3.5 z m -15.28949,-0.499 c -0.28751,-1.09946 -0.115,-2.25101 0.38337,-2.55902 0.49837,-0.30801 0.90612,0.59154 0.90612,1.999 0,3.06405 -0.56994,3.31157 -1.28949,0.56002 z m 5.28949,-0.001 c -0.90129,-0.58246 -1.02463,-0.97549 -0.30902,-0.98469 0.65504,-0.008 1.4691,0.43469 1.80902,0.98469 0.7673,1.24153 0.42112,1.24153 -1.5,0 z m -17.8851,-12.39292 c -1.54012,-0.85368 -1.98296,-1.57059 -1.25,-2.02358 0.6243,-0.38585 1.1351,-0.29374 1.1351,0.20467 0,0.49841 1.0125,1.39451 2.25,1.99134 1.2375,0.59682 1.8,1.09964 1.25,1.11737 -0.55,0.0177 -2.0733,-0.56267 -3.3851,-1.2898 z m -6.5722,-2.53798 c -0.31643,-0.512 -0.11798,-1.21356 0.44099,-1.55902 0.55897,-0.34546 1.01631,0.0734 1.01631,0.9309 0,1.75653 -0.60006,2.01516 -1.4573,0.62812 z m -0.32084,-6.7304 c -1.80297,-0.88867 -3.08229,-1.8116 -2.84293,-2.05097 0.49205,-0.49205 6.62107,2.50527 6.62107,3.23795 0,0.65855 -0.0933,0.62924 -3.77814,-1.18698 z m 54.85709,-22.92203 c 0.048,-1.16494 0.28494,-1.40189 0.60416,-0.60416 0.28887,0.72186 0.25335,1.58436 -0.079,1.91666 -0.33229,0.33229 -0.56864,-0.25834 -0.52522,-1.3125 z m 0.15305,-5.41666 c 0,-1.925 0.2058,-2.7125 0.45733,-1.75 0.25152,0.9625 0.25152,2.5375 0,3.5 -0.25153,0.9625 -0.45733,0.175 -0.45733,-1.75 z m 5.768,58.36359 c 0,-1.63041 -0.4354,-2.13375 -1.49426,-1.72743 -0.82184,0.31537 -1.25343,0.96305 -0.9591,1.4393 0.29434,0.47624 -0.60825,1.15287 -2.00574,1.50362 -1.3975,0.35075 -2.5409,1.22182 -2.5409,1.93572 0,1.02136 0.74593,1.06905 3.5,0.22381 2.67463,-0.82087 3.5,-1.61676 3.5,-3.37502 z m -4.27083,0.0322 c -0.3323,-0.33229 -1.1948,-0.36781 -1.91667,-0.0789 -0.79773,0.31922 -0.56078,0.55618 0.60417,0.60416 1.05416,0.0434 1.64479,-0.19293 1.3125,-0.52522 z m 1.69242,-2.54206 c 1.38363,-0.63042 2.29486,-1.50355 2.02495,-1.94027 -0.62061,-1.00414 -6.44654,0.9699 -6.44654,2.18436 0,1.21273 1.39305,1.13584 4.42159,-0.24406 z m 7.323777,-10.04914 c 0.92954,-1.12194 3.25463,-14.22791 3.25463,-18.34557 0,-2.33508 -2.75756,-0.50763 -3.26869,2.16618 -0.35559,1.86015 -0.1155,2.35246 0.94821,1.94428 0.95276,-0.36561 1.16391,-0.13651 0.63773,0.69196 -0.43264,0.6812 -0.81397,1.68855 -0.84739,2.23855 -0.0334,0.55 -0.60282,0.8875 -1.26532,0.75 -0.6625,-0.1375 -1.10894,0.0875 -0.99209,0.5 0.11685,0.4125 -0.38823,1.875 -1.12241,3.25 -1.093697,2.04835 -1.095947,2.27418 -0.0125,1.25 0.72733,-0.6875 1.79031,-1.25 2.36219,-1.25 0.57188,0 -0.19312,1.14321 -1.7,2.54047 -3.246377,3.01022 -3.963417,8.18477 -0.907527,6.54931 1.007727,-0.53932 2.318627,-1.56766 2.913117,-2.28518 z m -31.975667,-7.31162 c -0.32406,-1.19312 -3.83399,-0.82869 -5.20288,0.5402 -0.63427,0.63427 0.15254,0.88421 2.24844,0.71424 1.77328,-0.14381 3.10278,-0.7083 2.95444,-1.25444 z m -8.84865,-1.802 c -0.0609,-0.91818 -0.19019,-0.91753 -0.56461,0.003 -0.26711,0.65661 -1.24408,0.95166 -2.17105,0.65567 -1.39315,-0.44484 -1.43357,-0.35984 -0.23314,0.49019 1.65195,1.16976 3.08571,0.615 2.9688,-1.1487 z m 1.74123,-0.94098 c -0.27741,-0.6875 -0.50439,-0.125 -0.50439,1.25 0,1.375 0.22698,1.9375 0.50439,1.25 0.27741,-0.6875 0.27741,-1.8125 0,-2.5 z m 11.75593,2.64301 c 2.43449,-0.9342 1.87474,-2.39301 -0.91821,-2.39301 -2.42787,0 -3.19294,0.97373 -1.83333,2.33333 0.81166,0.81167 0.79296,0.81126 2.75154,0.0597 z m -7.41821,-3.47634 c 0,-2.43705 -2.33677,-2.09257 -2.82332,0.4162 -0.19138,0.98676 0.31876,1.66713 1.25,1.66713 0.92763,0 1.57332,-0.855 1.57332,-2.08333 z m -7.18884,-1.17465 c 0.24977,-1.29691 -0.12609,-1.57607 -1.48851,-1.10556 -1.64669,0.56868 -0.26375,-0.54038 10.36495,-8.31224 1.91955,-1.4036 3.12777,-3.12512 3.0372,-4.32752 -0.18381,-2.44017 -1.04333,-2.53342 -2.85236,-0.30947 -1.20186,1.47752 -1.15493,1.60572 0.37756,1.03139 2.72308,-1.02053 2.06931,-0.0817 -1.5,2.15393 -1.7875,1.11962 -4.39338,3.06882 -5.79085,4.33156 -1.39746,1.26274 -3.86062,3.04784 -5.47367,3.9669 -3.56714,2.03242 -4.20223,3.50042 -1.79082,4.13945 3.00785,0.79708 4.76466,0.25854 5.1165,-1.56844 z m 9.68884,1.25798 c 0.33992,-0.55 0.14148,-1 -0.44098,-1 -0.58246,0 -1.05902,0.45 -1.05902,1 0,0.55 0.19844,1 0.44098,1 0.24254,0 0.7191,-0.45 1.05902,-1 z m 11,0 c 0.33992,-0.55 -0.057,-1 -0.88197,-1 -0.825,0 -1.77811,0.45 -2.11803,1 -0.33992,0.55 0.057,1 0.88197,1 0.825,0 1.77811,-0.45 2.11803,-1 z m -6.19382,-0.64356 c -1.58635,-0.64534 -0.48798,-3.35644 1.35983,-3.35644 0.79861,0 1.17432,-0.44933 0.83491,-0.9985 -0.356,-0.57603 0.35947,-0.89336 1.69099,-0.75 1.87372,0.20173 2.26132,-0.18587 2.05959,-2.05959 -0.14336,-1.33152 0.17397,-2.04699 0.75,-1.69098 0.54917,0.3394 0.9985,0.14055 0.9985,-0.44191 0,-1.61755 -1.71641,-1.27977 -6.0519,1.19098 -2.17147,1.2375 -3.74278,2.79809 -3.49179,3.46797 0.25099,0.66989 0.004,1.49745 -0.54854,1.83903 -1.21859,0.75313 0.78069,3.48196 2.46467,3.36405 0.76457,-0.0535 0.74324,-0.23529 -0.0663,-0.56461 z m 1.27063,-9.21376 c 0.59225,-0.49388 2.13887,-1.23505 3.43694,-1.64705 2.23464,-0.70924 2.26309,-0.82003 0.53505,-2.0836 -1.3978,-1.0221 -2.3195,-1.07116 -3.93694,-0.20956 -1.90215,1.01326 -1.97558,0.95976 -0.73942,-0.53875 0.75485,-0.91505 1.96579,-1.66372 2.69099,-1.66372 1.4727,0 2.92844,-1.84147 2.10594,-2.66396 -0.96626,-0.96627 -6.66937,3.06422 -6.66937,4.71335 0,0.89 -2.475,3.32277 -5.5,5.40617 -3.33121,2.29429 -5.5,4.52003 -5.5,5.64441 0,1.5844 0.9158,1.27648 6.25,-2.10145 3.4375,-2.17683 6.73456,-4.36195 7.32681,-4.85584 z m -21.43759,5.9434 c 1.29843,-1.05266 2.00964,-2.26629 1.58048,-2.69697 -0.42917,-0.43068 -1.99394,0.43059 -3.47728,1.91392 -3.08036,3.08036 -1.66011,3.66668 1.8968,0.78305 z m 16.63161,0.10142 c 0.59996,-1.79986 -1.467,-1.42165 -2.16452,0.39606 -0.37373,0.97391 -0.15024,1.43108 0.58051,1.1875 0.6535,-0.21783 1.3663,-0.93044 1.58401,-1.58356 z m 12.42917,-1.3875 c -0.93333,-0.93333 -1.2,-0.66667 -1.2,1.2 0,1.86667 0.26667,2.13333 1.2,1.2 0.93333,-0.93333 0.93333,-1.46667 0,-2.4 z m -30.14554,-1.36562 c 0.70925,-0.85459 2.18254,-1.13698 4.01736,-0.77002 2.1216,0.42432 3.06402,0.14521 3.51977,-1.04244 0.34231,-0.89206 1.13674,-1.63193 1.7654,-1.64416 1.35626,-0.0264 6.54281,-3.92317 5.26474,-3.95552 -0.48305,-0.0122 -3.40805,1.36412 -6.5,3.05857 -3.1729,1.73881 -4.69801,2.25914 -3.50117,1.19452 l 2.12057,-1.88629 -3.56001,-0.10091 c -4.42671,-0.12548 -10.82421,4.23207 -9.15901,6.23851 1.21033,1.45835 4.39393,0.88191 6.03235,-1.09226 z m -4.92691,-3.0981 c 1.24449,-1.5086 1.16267,-1.55194 -0.87755,-0.46482 -2.32696,1.23991 -2.89993,2.12854 -1.37245,2.12854 0.48266,0 1.49516,-0.74867 2.25,-1.66372 z m 38.87245,-0.33628 c 0,-0.55 -0.47656,-1 -1.05902,-1 -0.58246,0 -0.7809,0.45 -0.44098,1 0.33992,0.55 0.81648,1 1.05902,1 0.24254,0 0.44098,-0.45 0.44098,-1 z m -39.22251,-1.5567 c 1.37185,-0.96089 2.22251,-1.12967 2.22251,-0.44099 0,0.61365 0.45,0.83761 1,0.49769 1.46222,-0.90371 1.22085,-2.5 -0.37803,-2.5 -0.75791,0 -2.01513,-0.95953 -2.79382,-2.1323 -1.36,-2.04827 -1.54078,-2.06767 -4.58756,-0.49211 -3.12863,1.61787 -3.70224,5.12253 -0.64649,3.94993 0.99584,-0.38214 1.24128,-0.0601 0.81025,1.06314 -0.79907,2.08234 1.43829,2.11029 4.37314,0.0546 z m 58.222507,-6.33443 c 0,-6.04754 -1.61703,-4.13395 -2.44307,2.89113 -0.59693,5.07657 -0.52778,5.35056 0.89817,3.55887 0.87777,-1.10289 1.5449,-3.8882 1.5449,-6.45 z m -18.499997,4.89113 c 0.33992,-0.55 0.14148,-1 -0.44098,-1 -0.58246,0 -1.05902,0.45 -1.05902,1 0,0.55 0.19844,1 0.44098,1 0.24254,0 0.7191,-0.45 1.05902,-1 z m 14.315827,-3.321 c 0.24595,-2.07669 -0.0306,-2.5338 -1.25,-2.06589 -1.873567,0.71896 -2.182897,5.75618 -0.31583,5.1431 0.6875,-0.22574 1.39212,-1.61049 1.56583,-3.07721 z m -40.800517,1.071 c 0.0102,-0.83333 0.33844,-0.75 0.98469,0.25 0.77379,1.19735 0.97246,1.01476 0.98469,-0.90499 0.014,-2.20483 -0.13033,-2.27811 -1.73469,-0.88049 -0.9625,0.83848 -2.425,1.7727 -3.25,2.07604 -0.98448,0.36199 -0.72672,0.57868 0.75,0.63049 1.2375,0.0434 2.25689,-0.48355 2.26531,-1.17105 z m 20.98469,-0.25 c 0,-0.825 -0.42344,-1.5 -0.94098,-1.5 -1.26098,0 -2.1641,1.56159 -1.36517,2.36052 1.12619,1.12618 2.30615,0.68589 2.30615,-0.86052 z m 3,1.05902 c 0,-0.24254 -0.45,-0.7191 -1,-1.05902 -0.55,-0.33992 -1,-0.14148 -1,0.44098 0,0.58246 0.45,1.05902 1,1.05902 0.55,0 1,-0.19844 1,-0.44098 z m -18.44253,-3.26985 c -0.30661,-0.79901 -0.55747,-1.6675 -0.55747,-1.92997 0,-0.26248 -0.45,-0.19912 -1,0.1408 -1.71004,1.05686 -1.20767,4.51692 0.55747,3.83957 0.85661,-0.32871 1.30661,-1.25139 1,-2.0504 z m -24.94333,0.27397 c 0.30326,-0.79027 1.14362,-1.20959 1.86747,-0.93182 1.95812,0.7514 2.72186,-1.21756 1.02011,-2.62989 -1.65632,-1.37463 -4.96853,-0.56575 -4.01316,0.98005 0.34599,0.55983 -0.0197,0.75193 -0.83547,0.43889 -1.65293,-0.63428 -3.08155,1.07736 -2.15309,2.57963 0.91684,1.48348 3.48175,1.21112 4.11414,-0.43686 z m 10.81847,-1.81314 c -0.3862,-1.2375 -1.02446,-2.475 -1.41836,-2.75 -0.39391,-0.275 -0.95039,-1.625 -1.23663,-3 -0.28623,-1.375 -0.89062,-3.4 -1.34307,-4.5 -0.81416,-1.97937 -0.8026,-1.97999 1.1214,-0.0602 1.92445,1.92021 1.94721,1.90763 2.25731,-1.24866 0.18655,-1.89874 1.09666,-3.60769 2.25,-4.22495 1.06521,-0.57012 1.93674,-1.49727 1.93674,-2.06038 0,-0.56311 -0.44485,-0.7489 -0.98855,-0.41288 -0.5437,0.33603 -0.77342,0.0251 -0.5105,-0.69098 0.7654,-2.08455 -1.09725,-4.17083 -3.05352,-3.42014 -1.64567,0.6315 -1.63643,0.76911 0.14907,2.21988 1.04693,0.85065 1.32296,1.25056 0.61342,0.88869 -0.96042,-0.48982 -1.12437,0.002 -0.64159,1.92584 0.4309,1.71684 0.24068,2.58379 -0.56691,2.58379 -0.66847,0 -0.97316,-0.63126 -0.67709,-1.4028 0.83433,-2.17424 -1.52655,-4.74747 -3.31946,-3.61803 -1.28387,0.80877 -1.21322,1.16987 0.5,2.5555 1.09732,0.88751 1.38442,1.29892 0.638,0.91426 -1.0206,-0.52596 -1.21592,-0.11038 -0.78767,1.67584 0.44974,1.87588 0.32657,1.7971 -0.58591,-0.37477 -0.63546,-1.5125 -1.47036,-2.75 -1.85534,-2.75 -1.10782,0 -1.99066,3.06686 -1.23488,4.28974 0.37706,0.6101 0.73301,2.19319 0.791,3.51797 0.058,1.3248 0.80295,2.92252 1.65546,3.5505 0.85251,0.62798 1.38588,1.62817 1.18528,2.22265 -0.43736,1.29613 3.4167,6.41913 4.82916,6.41913 0.57303,0 0.6971,-0.95394 0.29264,-2.25 z m 6.86455,1.16047 c 1.77993,-0.81099 2.27693,-1.68765 1.94403,-3.42909 -0.2992,-1.56517 -0.93629,-2.15188 -1.92478,-1.77256 -0.8574,0.32902 -1.27317,1.34853 -0.9906,2.42909 0.30057,1.14938 -0.0393,1.86209 -0.88805,1.86209 -0.75624,0 -1.1766,-0.5625 -0.93412,-1.25 0.48709,-1.38104 -4.27558,-7.31139 -5.16083,-6.42614 -0.96011,0.96011 2.86458,9.67614 4.24599,9.67614 0.7244,0 2.39316,-0.49029 3.70836,-1.08953 z m 21.9708,-1.19958 c 2.06475,0.3947 2.73204,0.12742 2.73204,-1.09431 0,-0.88912 0.5625,-1.62347 1.25,-1.63189 0.83588,-0.0102 0.75305,-0.34154 -0.25,-1 -1.33333,-0.87528 -1.33333,-1.0941 0,-1.96938 1.27389,-0.83625 1.22673,-0.98699 -0.31286,-1 -1.13241,-0.01 -1.74604,0.64155 -1.63484,1.73469 0.31293,3.07638 -0.0152,3.42996 -1.65825,1.78691 -1.23324,-1.23324 -1.92691,-1.33956 -2.98899,-0.45812 -0.76067,0.6313 -1.13644,1.54684 -0.83503,2.03452 0.3014,0.48768 -0.37855,0.88669 -1.51101,0.88669 -2.63444,0 -2.67386,-1.67008 -0.059,-2.5 2.35526,-0.74753 2.59956,-2.05595 0.53202,-2.84934 -1.86977,-0.7175 -2.93281,0.98393 -3.17533,5.08226 -0.18934,3.19951 -0.16356,3.21857 2.49395,1.84431 1.4769,-0.76373 3.91469,-1.15358 5.41732,-0.86634 z m 4.73204,1.28911 c 0,-0.55 -0.19844,-1 -0.44098,-1 -0.24254,0 -0.7191,0.45 -1.05902,1 -0.33992,0.55 -0.14148,1 0.44098,1 0.58246,0 1.05902,-0.45 1.05902,-1 z m 16.387787,-5.18893 c 1.4635,-7.31749 0.25999,-7.61386 -1.89128,-0.46572 -1.12341,3.73281 -1.13125,4.45172 -0.044,4.03449 0.72766,-0.27923 1.59852,-1.88518 1.93524,-3.56877 z m -32.387787,2.58128 c 0,-0.82763 -1.94173,-1.29565 -2.38691,-0.57533 -0.28881,0.46731 0.13009,0.84965 0.9309,0.84965 0.8008,0 1.45601,-0.12345 1.45601,-0.27432 z m -30,-1.32433 c 1.8114,-0.35737 2.97181,-1.9779 2.42908,-3.39223 -0.35126,-0.91536 -0.94745,-1.47345 -1.32488,-1.24019 -0.37742,0.23326 -0.49886,-1.18074 -0.26987,-3.14223 0.3301,-2.82757 0.13145,-3.39471 -0.95899,-2.73788 -1.13861,0.68584 -1.15368,0.55477 -0.0876,-0.76149 0.70827,-0.87446 1.48523,-2.61527 1.72657,-3.86847 0.24135,-1.25319 0.957,-2.59879 1.59035,-2.99022 0.63335,-0.39143 0.85628,-1.18943 0.49542,-1.77332 -0.36087,-0.5839 0.26908,-1.55679 1.39989,-2.16198 1.13081,-0.60519 1.79447,-1.52354 1.4748,-2.04077 -0.31967,-0.51724 -1.90727,0.04 -3.52801,1.23823 -3.21285,2.37537 -3.93388,4.11855 -1.28275,3.10122 1.02726,-0.3942 1.41691,-0.23868 1.01824,0.40638 -1.08838,1.76104 -5.50188,1.27155 -5.23012,-0.58006 0.13117,-0.89375 0.7206,-1.625 1.30984,-1.625 1.94395,0 2.31106,-1.19448 0.76217,-2.47994 -1.21158,-1.00552 -1.82955,-1.01151 -3.01316,-0.0292 -0.81894,0.67967 -1.21464,1.67966 -0.87932,2.22222 0.33531,0.54255 -0.39895,0.44667 -1.63169,-0.21308 -1.27462,-0.68215 -1.96661,-0.75499 -1.60437,-0.16887 0.35035,0.56687 0.17231,1.31786 -0.39563,1.66887 -0.56794,0.35101 -0.77373,1.0571 -0.4573,1.5691 0.31644,0.51199 0.0988,0.9309 -0.48368,0.9309 -1.46895,0 -1.33062,4.30739 0.19098,5.9467 1,1.07737 1,1.20556 0,0.64099 -0.6875,-0.38815 -1.25,-0.30417 -1.25,0.18663 0,1.64994 1.30554,2.21699 2.6106,1.13389 0.95525,-0.79279 1.84249,-0.564 3.3847,0.87278 l 2.09009,1.94721 -3.5427,-0.2811 c -4.06155,-0.32226 -4.05379,-0.33615 -2.01461,3.6072 1.5111,2.92213 1.55836,2.93605 4.25,1.25107 l 2.72192,-1.70392 -2.2686,2.53352 -2.2686,2.53352 2.2686,-0.25092 c 1.24773,-0.138 2.4936,-0.2953 2.7686,-0.34956 z m -3.57143,-13.12341 c 0,-2.02721 1.05703,-2.58594 2.0014,-1.05791 0.30141,0.48768 -0.0256,1.36276 -0.7267,1.94461 -0.95861,0.79558 -1.2747,0.5757 -1.2747,-0.8867 z m 30.26529,12.41078 c 0.59258,-1.54424 -1.91495,-4.35539 -3.88499,-4.35539 -1.24097,0 -0.95993,3.44894 0.39113,4.8 1.64461,1.64461 2.74593,1.50447 3.49386,-0.44461 z m 38.361797,-7.35539 -0.80615,-5.49999 -0.12475,6.44999 c -0.0772,3.99294 0.22986,6.08811 0.80615,5.5 0.54796,-0.5592 0.59928,-3.2125 0.12475,-6.45 z m -24.152577,3.61678 c 0.88385,-1.06497 0.80435,-1.51507 -0.34553,-1.95632 -0.82143,-0.31521 -1.75947,-0.14277 -2.08454,0.38321 -0.32508,0.52598 -1.06959,0.95633 -1.65447,0.95633 -0.72623,0 -0.71027,-0.42553 0.0503,-1.34201 0.61257,-0.7381 0.79389,-1.66189 0.40292,-2.05284 -0.39096,-0.39097 -0.0212,-0.44619 0.82178,-0.12273 1.70786,0.65536 5.32193,-2.73588 4.74861,-4.45585 -0.4599,-1.3797 -8.84219,4.69419 -8.84219,6.40713 0,0.69337 1.0125,1.74898 2.25,2.34581 3.01374,1.45347 3.32066,1.44273 4.65308,-0.16273 z m -14.90308,-1.99434 c 0,-0.75765 -0.675,-1.93774 -1.5,-2.62243 -1.24637,-1.0344 -1.5,-0.9142 -1.5,0.71089 0,1.07567 0.3,2.25577 0.66667,2.62243 1.11681,1.11682 2.33333,0.74619 2.33333,-0.71089 z m 19.5,-1.62244 c 1.65635,-1.83024 0.81326,-2.97991 -0.91667,-1.24999 -0.72239,0.7224 -1.09337,0.83275 -3.83333,1.1403 -0.86996,0.0977 -0.79395,0.43504 0.25,1.10969 2.08633,1.34829 2.44745,1.26804 4.5,-1 z m 16.739757,-3.42106 c -0.63146,-1.02173 -2.07717,1.97334 -2.13404,4.42106 -0.0192,0.825 0.58472,0.38065 1.34198,-0.98745 0.75725,-1.36809 1.11368,-2.91322 0.79206,-3.43361 z m -46.239757,0.92107 c 0.71755,-0.86459 0.81474,-1.5 0.22943,-1.5 -0.5585,0 -1.27447,0.675 -1.59106,1.5 -0.31658,0.825 -0.41982,1.5 -0.22943,1.5 0.19039,0 0.90637,-0.675 1.59106,-1.5 z m 23,-2.27782 c 3.79757,-2.95362 5.03046,-7.12209 2.68275,-9.07051 -1.10455,-0.91669 -1.69442,-0.84253 -2.67252,0.336 -0.69031,0.83178 -1.71976,1.51233 -2.28766,1.51233 -0.5679,0 -0.26837,-0.8444 0.66561,-1.87644 1.52771,-1.6881 1.53947,-1.93735 0.11714,-2.48315 -1.7462,-0.67008 -3.03829,1.52831 -2.19297,3.73117 0.29798,0.77654 -0.75225,2.31687 -2.42082,3.5505 -1.62093,1.1984 -2.68308,2.60619 -2.36032,3.12842 0.92215,1.49207 2.46879,1.11022 2.46879,-0.60952 0,-0.85746 0.44921,-1.28139 0.99825,-0.94206 0.54903,0.33932 1.9306,-0.0361 3.07014,-0.83427 1.13955,-0.79817 1.70284,-1.65049 1.25176,-1.89404 -0.45108,-0.24355 -0.28672,-0.31685 0.36524,-0.16289 0.65197,0.15396 1.40394,-0.25729 1.67105,-0.9139 0.30356,-0.74619 0.51063,-0.63139 0.55223,0.30618 0.0366,0.825 -1.50286,2.51664 -3.42105,3.75919 -1.91819,1.24256 -3.48762,2.93006 -3.48762,3.75 0,2.09049 0.98264,1.83756 5,-1.28701 z m -15.33772,-1.47218 c -0.27741,-0.6875 -0.50439,-0.125 -0.50439,1.25 0,1.375 0.22698,1.9375 0.50439,1.25 0.27741,-0.6875 0.27741,-1.8125 0,-2.5 z m 21.53772,0.05 c -0.93333,-0.93333 -1.2,-0.66667 -1.2,1.2 0,1.86667 0.26667,2.13333 1.2,1.2 0.93333,-0.93333 0.93333,-1.46667 0,-2.4 z m -22.90672,-4.78651 c -0.39408,-1.50695 -1.36015,-2.01349 -3.84011,-2.01349 -3.26152,0 -3.29895,0.0509 -2.38336,3.2434 0.5116,1.78387 0.93708,3.47137 0.9455,3.75 0.008,0.27863 0.45153,-0.1684 0.98469,-0.9934 0.83841,-1.29735 0.97144,-1.27484 0.98469,0.16667 0.008,0.91666 0.57781,1.85875 1.26531,2.09352 1.49646,0.51103 2.78239,-3.42031 2.04328,-6.2467 z m -3.85215,1.43134 c -1.83031,-1.46637 -1.7984,-1.48719 0.55887,-0.36454 3.06103,1.45781 3.62834,1.91971 2.3578,1.91971 -0.53655,0 -1.84905,-0.69982 -2.91667,-1.55517 z m 43.058867,-2.44483 c -0.99712,-2.21121 -1.98927,-3.84406 -2.20478,-3.62856 -0.21551,0.21551 0.40164,2.22336 1.37145,4.46189 0.9698,2.23853 1.96195,3.87138 2.20477,3.62856 0.24283,-0.24283 -0.37432,-2.25068 -1.37144,-4.46189 z m -34.499997,3.62244 c 0,-0.20765 -0.7875,-0.99515 -1.75,-1.75 -1.58606,-1.24387 -1.62143,-1.2085 -0.37756,0.37756 1.30637,1.66575 2.12756,2.19548 2.12756,1.37244 z m 6.50332,-2.62782 c 0.56061,-0.90707 -0.79568,-1.43627 -2.80689,-1.09518 -0.44197,0.075 -1.54598,-0.60613 -2.45336,-1.51351 -1.53305,-1.53306 -1.51157,-1.60795 0.30357,-1.05849 1.07435,0.32521 2.85117,-0.0832 3.94849,-0.90756 1.71128,-1.28561 1.78242,-1.63332 0.5,-2.44405 -2.24941,-1.42205 -3.23268,-1.19911 -6.28351,1.42472 l -2.78837,2.3981 2.78837,2.90176 c 2.73917,2.85056 5.14732,2.95488 6.7917,0.29421 z m 25.496677,1.50538 c 0,-0.825 -0.449997,-1.5 -0.999997,-1.5 -0.55,0 -1,0.675 -1,1.5 0,0.825 0.45,1.5 1,1.5 0.55,0 0.999997,-0.675 0.999997,-1.5 z m -77.210337,-6.46519 c -0.69891,-1.11915 -1.61251,-2.03481 -2.03021,-2.03481 -1.21922,0 -0.87382,4.48563 0.44712,5.80657 1.8676,1.8676 3.16882,-1.23261 1.58309,-3.77176 z m 52.21034,1.96519 c 0,-0.55 -0.19844,-1 -0.44098,-1 -0.24254,0 -0.7191,0.45 -1.05902,1 -0.33992,0.55 -0.14148,1 0.44098,1 0.58246,0 1.05902,-0.45 1.05902,-1 z m -16.91667,-1.20822 c 2.44964,0.091 1.86873,-2.76571 -0.69316,-3.4087 -2.91702,-0.73213 -4.39017,0.2017 -4.39017,2.78293 0,1.56588 0.41195,1.87365 1.75,1.30746 0.9625,-0.40728 2.4625,-0.71404 3.33333,-0.68169 z m -13.58333,-1.87511 c 0,-0.85696 -1.09453,-1.45665 -2.77032,-1.51786 -2.64706,-0.0967 -2.6948,-0.0177 -1.07299,1.77433 1.87597,2.07293 3.84331,1.94164 3.84331,-0.25647 z m 20.03181,0.0833 c 1.30083,0 3.52306,-1.07312 4.93829,-2.38471 2.14156,-1.98473 2.30922,-2.48599 0.99959,-2.98855 -0.90698,-0.34804 -1.31476,-0.18507 -0.96261,0.38471 0.33602,0.5437 -0.3156,0.98855 -1.44806,0.98855 -1.13246,0 -2.05902,0.45 -2.05902,1 0,0.55 -0.40787,1 -0.90638,1 -0.49851,0 -0.68725,-0.83794 -0.41943,-1.86209 0.69519,-2.65844 -1.68542,-3.14138 -5.11547,-1.03774 l -2.94128,1.80388 2.67218,1.01596 c 1.4697,0.55878 2.52953,1.59287 2.35517,2.29798 -0.17435,0.7051 -0.12825,0.94451 0.10244,0.53201 0.23069,-0.4125 1.48375,-0.75 2.78458,-0.75 z m -40.40518,-10 c 0.46156,0 -0.0531,1.58869 -1.14371,3.53041 -2.34687,4.17841 -2.38938,4.46959 -0.65244,4.46959 0.73176,0 2.78472,-2.025 4.56214,-4.5 3.501,-4.87506 4.60375,-5.63929 3.60738,-2.5 -0.77807,2.45148 0.22597,2.55796 2.73231,0.28976 1.58112,-1.4309 2.03079,-1.48209 2.75307,-0.31342 0.66921,1.08281 1.38609,1.15331 3.18895,0.3136 l 2.32567,-1.08321 -2.41047,-0.9348 c -2.00565,-0.77781 -2.13161,-1.04181 -0.75,-1.57198 0.91326,-0.35045 1.66047,-0.17475 1.66047,0.39045 0,0.5652 0.45,0.74952 1,0.4096 0.55,-0.33992 1,-0.14148 1,0.44098 0,1.20603 6.50332,1.308 9.46996,0.14849 1.75426,-0.68565 1.50788,-1.07576 -2.25,-3.562603 -2.32098,-1.535952 -4.21996,-3.182842 -4.21996,-3.659754 0,-1.595506 -1.84747,-0.889604 -2.31067,0.882886 -0.25153,0.9625 -0.50953,0.07662 -0.57333,-1.968615 -0.0956,-3.064143 -0.424,-3.619537 -1.866,-3.155668 -1.47714,0.475172 -1.51612,0.394705 -0.25,-0.516072 2.2011,-1.583357 3,-1.352847 3,0.865604 0,1.721637 0.33894,1.846383 2.63985,0.971579 1.97001,-0.748996 3.04842,-0.654439 4.25,0.372646 3.33793,2.853183 4.11015,2.885528 4.11015,0.172155 0,-2.171329 -0.34654,-2.516417 -2,-1.991629 -1.1,0.349126 -2,0.185749 -2,-0.363061 0,-0.548811 0.97725,-1.141635 2.17167,-1.317388 1.19442,-0.175753 2.35981,-0.890729 2.58976,-1.588836 0.3219,-0.97724 -0.92556,-1.117505 -5.42167,-0.609617 -6.31718,0.713598 -13.47775,3.73527 -13.08397,5.521272 0.13432,0.609197 -0.38093,1.334759 -1.14499,1.612362 -0.90542,0.328966 -1.12458,0.07658 -0.62932,-0.724768 0.59001,-0.954663 0.28805,-0.976988 -1.35085,-0.09988 -1.1609,0.621294 -2.04491,1.45369 -1.96446,1.849768 0.0804,0.396084 -0.34551,1.845148 -0.94657,3.220148 -0.60106,1.375001 -1.12135,2.092751 -1.15621,1.595011 -0.0349,-0.497742 -1.07589,-0.0548 -2.31339,0.98437 -1.24922,1.04899 -0.94806,0.45538 0.6771,-1.334583 3.23485,-3.5629 2.98507,-5.070937 -0.52846,-3.190553 -5.36373,2.87058 -8.91582,8.936536 -8.8795,15.163636 0.0181,3.09415 0.16946,2.95281 2.64372,-2.46788 1.44351,-3.1625 3.00221,-5.75 3.46377,-5.75 z m 9.33442,-2.95697 c 2.17821,-2.406882 2.67736,-2.567304 1.93025,-0.62035 -0.30027,0.78247 -1.27341,1.70184 -2.16255,2.04303 -1.32812,0.50965 -1.28666,0.25576 0.2323,-1.42268 z m 10.03895,-11.043031 c -0.33992,-0.55 0.11008,-1 1,-1 0.88992,0 1.33992,0.45 1,1 -0.33992,0.55 -0.78992,1 -1,1 -0.21008,0 -0.66008,-0.45 -1,-1 z m -7.72917,23.187501 c 0.59996,-1.79986 -1.467,-1.42165 -2.16452,0.39606 -0.37373,0.97391 -0.15024,1.43108 0.58051,1.1875 0.6535,-0.21783 1.3663,-0.93043 1.58401,-1.58356 z m 16.1152,-0.0666 c 1.64545,-1.26522 2.01983,-2.061 1.2062,-2.56385 -0.64891,-0.40105 -1.94763,-0.12794 -2.88604,0.60691 -1.51008,1.18252 -1.55958,1.14837 -0.43067,-0.29713 1.74835,-2.23863 -0.86218,-3.24005 -4.32881,-1.66055 l -2.52958,1.15256 2.79143,2.28464 c 3.3765,2.76349 3.22012,2.7514 6.17747,0.47742 z m -23.93602,-2.05064 c 1.14741,-1.61139 1.67904,-3.18144 1.1814,-3.489 -0.98413,-0.60822 -2.21423,0.66301 -4.03391,4.16879 -1.70505,3.28492 0.38386,2.7871 2.85251,-0.67979 z m 57.04999,0.009 c 0,-1.37677 -5.49188,-5.07943 -7.53393,-5.07943 -1.37442,0 -0.17388,3.08601 1.56194,4.01499 1.1154,0.59695 1.83358,1.40028 1.59596,1.78518 -0.23763,0.38491 0.64977,0.76473 1.97199,0.84404 1.65718,0.0994 2.40404,-0.38672 2.40404,-1.56478 z m -41.02896,-2.04037 c 0.80907,-0.51167 1.16598,-1.23538 0.79313,-1.60823 -0.9151,-0.91509 -3.76417,0.24885 -3.76417,1.53779 0,1.2701 1.03529,1.29465 2.97104,0.0704 z m 14.48191,-0.19958 c 2.41053,-1.09831 3.42817,-2.74959 1.79705,-2.91599 -0.4125,-0.0421 -1.65,-0.26975 -2.75,-0.50592 -2.688,-0.57711 -8.5,0.46272 -8.5,1.52075 0,1.31015 3.41644,2.31236 3.81426,1.11891 0.19382,-0.58148 0.75078,-1.05723 1.23769,-1.05723 0.4869,0 0.62626,0.675 0.30968,1.5 -0.69024,1.79873 0.64539,1.90955 4.09132,0.33948 z m 34.54705,0.16052 c 0,-0.55 -0.47656,-1 -1.05902,-1 -0.58246,0 -0.7809,0.45 -0.44098,1 0.33992,0.55 0.81648,1 1.05902,1 0.24254,0 0.44098,-0.45 0.44098,-1 z m -17,-2.13976 c 0,-0.62687 -0.7875,-1.72948 -1.75,-2.45026 -1.57381,-1.17856 -1.49829,-1.25816 0.75,-0.79058 1.96949,0.4096 1.65118,-0.0243 -1.5,-2.04461 -2.2,-1.4105 -4.36406,-2.56685 -4.80902,-2.569668 -0.44496,-0.0028 -0.55012,-0.424029 -0.23369,-0.936025 0.31644,-0.511996 0.0485,-1.256524 -0.59549,-1.654508 -0.73122,-0.451923 -0.90292,-0.290138 -0.45729,0.430902 0.39244,0.634979 0.34947,1.155758 -0.0955,1.157286 -1.24858,0.0043 -9.76655,-4.407217 -10.14235,-5.252778 -0.50381,-1.13356 -2.16667,-0.898536 -2.16667,0.30623 0,0.580927 1.9823,1.933098 4.40512,3.004824 3.41521,1.510711 4.2945,2.371584 3.91288,3.830911 -0.27073,1.035276 0.0678,2.228466 0.7524,2.651546 0.89698,0.55436 1.08713,0.16688 0.68074,-1.38714 -0.68665,-2.625767 -0.22007,-2.631598 4.24886,-0.0531 3.15719,1.82164 2.56726,1.9356 -1.5,0.28974 -0.9111,-0.36868 -1.5,-0.0534 -1.5,0.80299 0,0.77548 1.9125,2.37071 4.25,3.54495 4.9807,2.50205 5.75,2.6518 5.75,1.11929 z m 6.13722,-0.91787 c -1.84953,-1.12758 -3.57681,-1.83611 -3.83841,-1.57452 -0.53368,0.53369 4.64778,3.53198 6.20119,3.58837 0.55,0.02 -0.51325,-0.88626 -2.36278,-2.01385 z m 3.31302,-3.6733 c 0.36532,-0.952 0.18846,-1.8895 -0.39301,-2.083328 -0.58148,-0.193825 -1.05723,-0.791467 -1.05723,-1.328093 0,-0.536626 0.45,-0.697569 1,-0.35765 1.48895,0.920224 1.20988,-1.080924 -0.32883,-2.35794 -1.63312,-1.355371 -14.77835,-6.368213 -15.3087,-5.837866 -0.21057,0.210574 1.39703,1.18548 3.57245,2.166458 2.17542,0.980977 4.96297,2.856205 6.19456,4.167174 1.67214,1.779916 2.44194,2.064295 3.03958,1.122876 0.53797,-0.847438 0.80533,-0.523141 0.81563,0.989298 0.008,1.2375 0.57781,2.285521 1.26531,2.328951 1,0.0632 1,0.17982 0,0.58333 -1.43045,0.5772 -1.6993,2.33772 -0.35699,2.33772 0.49116,0 1.19191,-0.77892 1.55723,-1.73093 z m -24.05723,-0.85086 c 1.00698,-2.624142 0.73401,-3.122957 -2.42508,-4.431493 -4.29084,-1.777327 -4.8386,-0.487792 -0.83071,1.955657 1.84953,1.127582 2.9831,2.051826 2.51905,2.053886 -1.26169,0.006 -11.65627,-6.358245 -11.65627,-7.136273 0,-0.370012 -0.89494,-0.438717 -1.98875,-0.152678 -2.53285,0.662354 -1.90587,1.615197 3.83487,5.827941 4.98572,3.65868 9.55261,4.47402 10.54689,1.88296 z m 20.60699,0.20423 c 0,-1.696024 -2.44075,-3.848361 -3.34201,-2.947098 -0.36189,0.361895 -0.65799,0.194191 -0.65799,-0.372675 0,-1.415593 -7.21411,-6.302668 -9.30375,-6.302668 -2.36126,0 -2.11617,1.81909 0.55375,4.11008 2.75112,2.360666 7.75,5.162731 7.75,4.344171 0,-0.328409 0.70714,0.11003 1.57143,0.97432 1.93882,1.93883 3.42857,2.02307 3.42857,0.19387 z m -15.84173,-9.849936 c 0.69178,-1.345769 0.5424,-1.594873 -0.67603,-1.127318 -0.9752,0.37422 -1.45451,0.114139 -1.27313,-0.69082 0.43904,-1.948477 -7.17006,-3.625168 -8.30686,-1.830445 -1.17971,1.862464 -1.12743,3.133279 0.0977,2.376078 0.55,-0.339919 1,-0.114919 1,0.5 0,0.614919 0.45,0.839919 1,0.5 0.55,-0.339919 1,-0.155848 1,0.409046 0,1.633006 5.41921,4.17467 5.88513,2.760182 0.21182,-0.643075 0.78473,-1.946601 1.27314,-2.896723 z"
     id="path12460"
     inkscape:connector-curvature="0" />
  <path
     style="fill:#fff500;fill-opacity:0.18811885;stroke:none"
     d="M 22.118644,99.152543 C 54.98121,80.632637 90.692272,64.181483 126.18939,50.054073 c 28.5231,-11.351836 55.24751,-23.269247 82.79366,-27.935429 21.89093,-0.244244 33.81822,21.798537 47.28814,45.762712 3.58784,13.978801 5.21734,26.933653 0.1453,42.193154 -1.75188,5.27062 -6.29026,11.34166 -8.53513,22.63735 1.3525,9.42711 0.84412,18.389 9.91525,29.74577 l 26.69492,-5.33899 c 11.24212,3.69595 11.84299,20.51823 13.02987,40.01528 1.04897,17.23161 3.05652,36.55251 6.03792,50.74744 14.27987,21.84979 26.18382,37.29426 46.52543,44.99999 -47.34266,17.20991 -90.59154,42.4455 -132.33051,67.11865 -18.60571,-12.18199 -26.42772,-32.15722 -32.0339,-50.33899 l -5.33898,-48.05084 c -12.20019,7.1044 -19.28572,9.31141 -31.27119,16.01695 -26.26342,-11.22082 -40.72866,-41.08602 -48.4322,-72.45763 L 99.915255,186.86441 C 53.192314,198.97288 48.971593,168.91509 30.88983,154.44915 19.46542,139.83753 12.048976,112.53419 22.118644,99.152543 z"
     id="path12462"
     inkscape:connector-curvature="0"
     sodipodi:nodetypes="csccscccscccccccccc" />
</svg>
