<?xml version="1.0" encoding="UTF-8" standalone="no"?>
<!-- Created with Inkscape (http://www.inkscape.org/) -->

<svg
   xmlns:dc="http://purl.org/dc/elements/1.1/"
   xmlns:cc="http://creativecommons.org/ns#"
   xmlns:rdf="http://www.w3.org/1999/02/22-rdf-syntax-ns#"
   xmlns:svg="http://www.w3.org/2000/svg"
   xmlns="http://www.w3.org/2000/svg"
   xmlns:sodipodi="http://sodipodi.sourceforge.net/DTD/sodipodi-0.dtd"
   xmlns:inkscape="http://www.inkscape.org/namespaces/inkscape"
   id="svg3036"
   version="1.1"
   inkscape:version="0.48.4 r9939"
   width="430"
   height="500"
   sodipodi:docname="BasicToolKit.svg">
  <metadata
     id="metadata3042">
    <rdf:RDF>
      <cc:Work
         rdf:about="">
        <dc:format>image/svg+xml</dc:format>
        <dc:type
           rdf:resource="http://purl.org/dc/dcmitype/StillImage" />
        <dc:title />
      </cc:Work>
    </rdf:RDF>
  </metadata>
  <defs
     id="defs3040" />
  <sodipodi:namedview
     pagecolor="#ffffff"
     bordercolor="#666666"
     borderopacity="1"
     objecttolerance="10"
     gridtolerance="10"
     guidetolerance="10"
     inkscape:pageopacity="0"
     inkscape:pageshadow="2"
     inkscape:window-width="1178"
     inkscape:window-height="727"
     id="namedview3038"
     showgrid="false"
     inkscape:zoom="0.8280702"
     inkscape:cx="187.77557"
     inkscape:cy="243.50156"
     inkscape:window-x="1"
     inkscape:window-y="22"
     inkscape:window-maximized="0"
     inkscape:current-layer="svg3036" />
  <path
     style="fill:#000000;fill-opacity:0.33505153;stroke:none"
     d="m 197.389,18.20444 c 0.25219,-3.449507 0.8965,-6.572267 5.39951,-6.479407 51.51355,0.745434 103.63315,13.309376 156.58574,42.116144 5.03802,19.370589 14.17877,34.480648 37.79654,34.556872 l 21.86802,14.848651 -19.16825,33.74691 -24.02781,-15.38859 c -29.74046,-41.733489 -64.77692,-7.94298 -75.8631,19.43822 L 256.78359,116.47549 274.06203,54.921096 C 255.41112,35.775454 223.14795,30.242052 197.389,18.20444 z"
     id="path3048"
     inkscape:connector-curvature="0"
     sodipodi:nodetypes="ccccccccccc" />
  <path
     style="fill:#000000;fill-opacity:0.33505153;stroke:none"
     d="M 9.4861293,67.87991 22.444949,53.301238 C 32.507925,65.572629 48.561375,72.452577 52.142244,90.557846 L 156.62272,240.39418 146.36366,249.84331 C 116.22751,208.86414 86.071042,166.5091 57.353466,125.15618 50.946465,115.9302 44.369122,108.47457 37.563572,101.89681 22.964876,90.557846 18.844815,79.218878 9.4861293,67.87991 z"
     id="path3818"
     inkscape:connector-curvature="0"
     sodipodi:nodetypes="cccccscc" />
  <path
     style="fill:#004bff;fill-opacity:0.78350513;stroke:none"
     d="m 263.81179,121.77895 29.78064,18.32654 c -23.78675,50.94357 -49.01424,99.80197 -74.2162,148.26193 -11.89297,22.8686 -25.85771,44.75816 -35.83313,68.37746 C 164.49192,401.8533 139.34765,445.1881 111.85426,488.30972 87.886311,482.77774 65.190621,472.58084 44.275148,455.85649 115.10586,343.61673 185.11886,231.07037 263.81179,121.77895 z"
     id="path3820"
     inkscape:connector-curvature="0"
     sodipodi:nodetypes="ccssccc" />
  <path
     style="fill:#00daff;fill-opacity:1;stroke:none"
     d="m 128.2753,268.74159 c 13.45268,-18.76583 30.3196,-29.56511 48.05562,-38.3365 6.60341,27.59348 16.48646,51.90732 43.73601,58.85464 l 90.71175,129.04825 c 12.88044,37.54401 -8.60957,43.26352 -34.0169,45.35586 -41.17528,-35.95793 -69.71861,-87.7058 -103.1306,-133.36783 -7.18488,-45.37725 -28.10031,-47.73204 -45.35588,-61.55442 z"
     id="path3822"
     inkscape:connector-curvature="0"
     sodipodi:nodetypes="ccccccc" />
  <path
     style="fill:#000000"
     d="m 107.86706,490.13264 c -20.024834,-4.10807 -32.554993,-9.67001 -51.284531,-22.76438 -6.566025,-4.59049 -12.602107,-8.23094 -13.413515,-8.0899 -3.983594,0.69244 -3.17344,-1.35907 6.599093,-16.71049 5.792213,-9.09884 14.74457,-23.38422 19.894128,-31.74531 12.796008,-20.77628 46.788485,-73.81259 55.021465,-85.84649 12.76248,-18.65459 23.1964,-34.88355 24.33487,-37.85057 0.89071,-2.32132 -1.44293,-4.20894 -10.61546,-8.58659 -9.11308,-4.34928 -11.75713,-6.47827 -11.75713,-9.46693 0,-7.63221 39.39296,-40.67323 48.49244,-40.67323 2.00978,0 3.38421,1.26503 3.40053,3.12982 0.0143,1.72141 0.71424,4.2136 1.55371,5.53823 1.09647,1.73015 3.97297,-1.54371 10.214,-11.62504 12.69782,-20.51113 57.05884,-86.23632 66.10545,-97.94167 3.94255,-5.10127 3.95644,-5.27773 0.6335,-8.04811 -3.2197,-2.68436 -3.25504,-3.36919 -0.67544,-13.09313 1.49709,-5.64335 5.51642,-17.583355 8.93187,-26.533349 3.41545,-8.949981 6.20989,-18.477793 6.20989,-21.172927 0,-6.62154 -5.54382,-11.23949 -20.56738,-17.132487 -6.88561,-2.700898 -14.93372,-6.151379 -17.88469,-7.66773 -2.95098,-1.516364 -10.82881,-4.165681 -17.5063,-5.887366 -6.67748,-1.721685 -14.08263,-4.402624 -16.4559,-5.957639 -3.83288,-2.511401 -4.10539,-3.428587 -2.43902,-8.208764 2.26109,-6.4861316 3.16923,-6.5495063 38.20197,-2.665355 29.52974,3.274006 35.24129,4.465104 61.66791,12.860336 19.13323,6.078278 54.21853,22.506398 61.2097,28.660459 1.68436,1.482676 4.01962,5.61651 5.18947,9.186295 2.84307,8.675696 6.81055,14.538606 9.83841,14.538606 1.36236,0 2.47702,0.816627 2.47702,1.814759 0,3.400302 11.58809,8.90263 18.76343,8.909368 8.46316,0.0067 25.94828,10.905645 25.94828,16.172424 0,7.82855 -14.63223,32.77555 -20.55757,35.0493 -4.43628,1.70238 -24.13499,-11.88465 -27.43286,-18.92159 -5.87681,-12.53985 -25.55076,-17.90862 -40.53876,-11.06253 -8.37826,3.82697 -20.5293,16.46599 -25.84209,26.87994 -3.35085,6.56822 -5.33068,8.16433 -9.39285,7.57254 -1.42404,-0.20744 -36.53095,69.19789 -58.49816,115.64916 l -14.63076,30.9378 11.35177,14.66816 c 11.42502,14.76282 23.76468,32.3212 50.52921,71.89915 7.98236,11.8039 17.0061,25.09218 20.05276,29.52953 6.96264,10.14087 13.75965,30.59092 12.00504,36.11926 -5.98108,18.84468 -28.11885,30.04359 -43.58233,22.04711 -8.60255,-4.44855 -45.49853,-49.29362 -71.41547,-86.80166 -7.13661,-10.3284 -13.91192,-18.77893 -15.05623,-18.77893 -1.14429,0 -4.1139,5.2427 -6.59911,11.65042 -2.48521,6.4077 -6.63427,15.26062 -9.22014,19.67316 -2.58585,4.41251 -8.08097,14.76917 -12.21137,23.01479 -4.1304,8.24564 -10.20418,19.1106 -13.49731,24.14433 -3.29312,5.03375 -11.56209,19.17278 -18.37545,31.42004 -6.81337,12.24729 -13.11047,22.41026 -13.99355,22.58437 -0.88308,0.17416 -3.21522,-0.0136 -5.18254,-0.41719 z m 16.42997,-24.77293 c 6.08551,-10.81411 13.99087,-24.24311 17.56745,-29.84223 3.57659,-5.59913 10.56578,-18.07369 15.53156,-27.72126 4.96578,-9.64757 10.50165,-20.35789 12.30192,-23.8007 5.05615,-9.66925 14.17901,-30.60387 14.17901,-32.53727 0,-0.95242 -2.79203,-5.93807 -6.20452,-11.0792 -3.51869,-5.30112 -7.04021,-13.56142 -8.13502,-19.082 -1.06179,-5.35398 -3.6429,-13.56657 -5.73582,-18.25018 -4.00331,-8.95873 -3.92736,-8.93425 -14.94257,-4.81899 -2.90822,1.0865 -16.84766,21.02837 -16.84766,24.10239 0,0.37115 2.77378,-0.48415 6.16397,-1.90065 3.9171,-1.63669 6.56402,-1.92816 7.26149,-0.79965 1.06779,1.72775 -6.05058,5.3461 -10.51735,5.3461 -1.22345,0 -3.78669,1.18128 -5.69609,2.62505 -3.19253,2.41403 -3.00432,2.49595 2.34087,1.01909 6.68913,-1.84818 8.14099,0.89891 1.78846,3.384 -2.21323,0.86582 -6.3489,2.47803 -9.19037,3.58271 -7.25863,2.82192 -4.96275,4.00075 3.02016,1.55073 6.00344,-1.84251 10.4631,-1.10345 8.02908,1.33057 -0.99923,0.99924 -8.63299,2.7796 -14.61962,3.40965 -3.19885,0.33665 -8.25375,5.47336 -8.25375,8.38732 0,0.74546 2.79099,0.18923 6.2022,-1.23607 7.19194,-3.00498 8.10555,-3.12783 8.10555,-1.09005 0,2.03338 -8.22964,5.65249 -12.85338,5.65249 -3.40274,0 -8.4109,4.40511 -8.55136,7.52165 -0.0313,0.69411 3.2879,0.0819 7.37597,-1.36045 4.08808,-1.44234 7.79031,-2.26501 8.2272,-1.82811 1.63731,1.63729 -1.44612,4.18104 -6.23338,5.14236 -7.32362,1.47064 -15.426451,4.79408 -14.33919,5.88135 0.52193,0.52192 3.95108,-0.3054 7.62033,-1.83852 6.89896,-2.88257 13.15828,-3.74967 10.92156,-1.51294 -2.11404,2.11405 -17.66722,7.59406 -19.078205,6.72202 -0.722581,-0.44659 -2.627584,1.19315 -4.233344,3.64386 -3.296181,5.03061 -2.182113,5.4882 4.316771,1.77311 5.365648,-3.06728 7.153878,-3.28719 7.153878,-0.87975 0,1.76747 -14.069308,8.30376 -16.373691,7.60683 -0.644438,-0.19488 -1.662414,0.92441 -2.262167,2.48736 -0.842737,2.19613 -0.271839,2.58957 2.513056,1.73191 1.981935,-0.61039 5.21314,-1.60604 7.180456,-2.2126 1.967316,-0.60656 3.576936,-0.27852 3.576936,0.72896 0,1.00749 -3.950818,2.84434 -8.779597,4.08193 -7.289811,1.86832 -9.433594,3.41376 -12.633715,9.10762 -2.119765,3.77161 -3.045309,6.85747 -2.056764,6.85747 0.988546,0 2.294754,-0.80481 2.902688,-1.78848 0.607935,-0.98365 2.714956,-1.78846 4.682272,-1.78846 5.408145,0 2.655252,2.64869 -5.576507,5.3654 -4.033252,1.3311 -7.768279,3.12418 -8.300057,3.9846 -0.53178,0.86043 1.905422,0.36432 5.416,-1.10249 3.714308,-1.55195 6.812457,-1.97186 7.410385,-1.00439 0.565134,0.91441 -2.611958,2.63596 -7.060203,3.8257 -4.448245,1.18972 -8.496585,3.22862 -8.996313,4.53088 -0.712306,1.85625 -0.124614,1.94818 2.720352,0.4256 1.995922,-1.06818 5.398254,-1.65331 7.560743,-1.30028 2.852804,0.46573 1.51688,1.36083 -4.868039,3.26172 -4.83991,1.44092 -9.118619,3.57618 -9.508241,4.74506 -0.517591,1.55278 0.768779,1.70154 4.775782,0.55236 3.190266,-0.91496 5.484186,-0.90702 5.484186,0.019 0,0.87552 -3.228802,2.55922 -7.175113,3.74155 -3.946312,1.18236 -8.171569,3.35845 -9.38946,4.83578 -1.932777,2.3445 -1.69074,2.40702 1.903435,0.49169 2.264783,-1.20689 5.484026,-1.91846 7.153874,-1.58124 1.865375,0.3767 -0.237084,1.97198 -5.45243,4.13715 -4.668688,1.93821 -8.491539,4.15592 -8.495227,4.92828 -0.0037,0.77235 1.554076,0.56899 3.461695,-0.45195 2.073989,-1.10996 3.878166,-1.19322 4.487641,-0.20706 0.560584,0.90705 -1.793796,2.57756 -5.231956,3.71225 -7.631742,2.51871 -10.889571,6.4696 -3.885073,4.7116 6.104451,-1.53211 6.033103,-0.19272 -0.180362,3.38589 l -4.918288,2.83266 4.918288,-1.02114 c 2.815884,-0.58465 4.918289,-0.24207 4.918289,0.8014 0,1.00239 1.254715,1.82254 2.788253,1.82254 1.533539,0 2.282739,0.81793 1.664889,1.81762 -0.617852,0.99971 -1.996914,1.27776 -3.064588,0.61791 -1.121625,-0.6932 -1.429747,-0.37216 -0.729793,0.76041 4.324242,6.99674 44.163964,24.36105 52.995294,23.09817 1.47549,-0.21098 7.66176,-9.23153 13.74727,-20.04562 z m -39.534748,-67.0229 c 0.965216,-0.96522 4.546624,-2.22116 7.958686,-2.791 l 6.20375,-1.03606 -4.471171,2.72764 c -5.050557,3.08106 -12.520312,3.92847 -9.691265,1.09942 z m 54.409948,-84.69447 c 1.47932,-1.57312 4.29616,-3.08704 6.25963,-3.36424 4.15396,-0.58647 6.66653,2.47454 2.67574,3.25977 -1.47549,0.29033 -4.69474,1.07615 -7.15388,1.74627 -4.04284,1.10169 -4.2135,0.9444 -1.78149,-1.6418 z m 5.35843,-9.18775 c 0,-0.46657 2.41443,-2.09685 5.36541,-3.62286 2.95097,-1.52601 5.3654,-1.9774 5.3654,-1.00308 0,0.9743 -1.55671,2.60461 -3.45936,3.62287 -3.6291,1.94222 -7.27145,2.44469 -7.27145,1.00307 z m 134.65335,152.86815 c -1.15377,-4.41201 0.96298,-4.64029 4.14603,-0.44712 1.37855,1.81601 2.39976,2.21495 2.43278,0.95035 0.0312,-1.19867 1.26408,-1.71618 2.73956,-1.14999 1.4755,0.56621 2.68271,0.0769 2.68271,-1.08739 0,-1.31635 2.29146,-1.91943 6.05956,-1.59479 6.8043,0.58624 10.80483,-2.02956 14.73886,-9.63713 2.44556,-4.72916 2.34401,-6.21202 -1.17051,-17.09065 -2.33178,-7.2176 -8.04597,-17.91509 -14.49941,-27.14422 -5.85804,-8.37763 -15.81096,-22.87774 -22.1176,-32.22249 -25.21854,-37.36712 -28.87911,-42.64024 -40.61361,-58.50485 -10.34639,-13.98794 -14.13836,-17.61574 -25.11194,-24.02466 -7.10895,-4.15184 -14.32666,-9.2123 -16.03935,-11.24542 -3.95489,-4.69484 -15.66052,-27.29224 -14.65731,-28.29548 1.29527,-1.29526 -3.09668,-12.06473 -4.92016,-12.06473 -4.5752,0 -31.8999,20.12085 -31.8999,23.48986 0,0.94614 -2.21323,3.78546 -4.91829,6.30958 l -4.91828,4.58929 4.85536,-2.88662 c 6.63687,-3.94578 7.97594,-3.6208 3.91705,0.95056 -3.39654,3.82539 -3.39418,3.83043 0.77023,1.64356 2.29747,-1.20648 4.6147,-1.75613 5.1494,-1.22143 0.5347,0.53469 -1.11862,1.9248 -3.67403,3.08913 -2.55541,1.16431 -4.21279,2.81823 -3.68306,3.67538 0.52975,0.85712 3.02747,-0.0652 5.55052,-2.05001 2.52305,-1.98461 5.88725,-3.58699 7.47599,-3.56082 1.89886,0.0314 1.20342,1.09244 -2.02966,3.09696 -5.54833,3.43997 -6.79866,6.92999 -1.45892,4.07225 5.28824,-2.83019 8.76331,-2.18977 4.71929,0.86971 -4.31919,3.26768 -2.58174,5.39187 2.2814,2.78921 1.9869,-1.06335 5.07386,-1.91546 6.85994,-1.8936 2.73181,0.0335 2.53751,0.59505 -1.22378,3.53717 -2.45915,1.92356 -3.51265,3.51528 -2.34114,3.53716 1.17153,0.0219 2.62744,-0.76504 3.23537,-1.7487 1.39387,-2.25533 4.47117,-2.33827 4.47117,-0.12061 0,0.91738 -1.6213,2.18254 -3.6029,2.81147 -5.24225,1.66384 -2.40902,4.66018 3.2654,3.45342 4.38493,-0.93253 4.53287,-0.79753 1.67886,1.53195 -4.6463,3.79236 -3.80646,5.27578 2.23558,3.94874 5.92838,-1.30211 7.59586,1.68224 1.78848,3.2009 -1.96733,0.51447 -3.57694,1.86978 -3.57694,3.01182 0,1.28913 1.52576,1.65655 4.02405,0.96906 3.81907,-1.05095 3.85551,-0.97204 0.71514,1.54896 -1.8199,1.46097 -2.73507,3.5848 -2.03373,4.71961 0.91825,1.48577 1.8194,1.5191 3.2195,0.11901 4.17851,-4.17852 5.17625,-1.67033 1.09354,2.74901 l -4.3358,4.69332 4.47117,-1.20178 c 3.72649,-1.00161 3.9499,-0.87489 1.34135,0.76096 -3.37398,2.11594 -4.29444,7.15047 -1.30728,7.15047 1.07105,0 1.3399,1.923 0.65202,4.66372 -1.09046,4.34475 -0.90371,4.52094 2.73042,2.57602 3.63646,-1.94618 3.74685,-1.84099 1.62835,1.55127 -1.69555,2.715 -1.75707,4.15453 -0.24225,5.66933 1.51481,1.51481 2.73409,0.73145 4.80189,-3.08518 2.50619,-4.62571 2.77842,-4.74033 2.84317,-1.19702 0.0394,2.15518 -0.7332,4.41591 -1.71686,5.02384 -0.98365,0.60795 -1.75624,2.86868 -1.71686,5.02385 0.066,3.60806 0.28299,3.52885 2.73981,-0.99979 3.60715,-6.64897 6.94098,-6.30712 3.49415,0.3583 -1.50074,2.90214 -2.72863,6.12137 -2.72863,7.15387 0,3.53002 3.00032,1.88269 5.1453,-2.825 2.91228,-6.39178 4.29102,-4.40236 1.83388,2.64619 -1.08862,3.12278 -1.39188,7.07613 -0.67392,8.78524 1.04575,2.48945 1.62581,1.95146 2.9166,-2.70508 0.88617,-3.19689 2.25363,-5.81253 3.03881,-5.81253 1.84361,0 0.25201,11.30882 -1.7768,12.62474 -0.84769,0.54986 -0.35971,2.56188 1.08443,4.47118 2.59079,3.42533 2.62681,3.42393 2.70996,-0.10554 0.0463,-1.96731 0.93784,-4.78415 1.98107,-6.25963 1.41034,-1.99468 1.68997,-0.51254 1.09032,5.77898 -0.5548,5.82095 -0.039,9.09868 1.65273,10.50269 1.93712,1.60767 2.46506,1.33001 2.48663,-1.30782 0.0143,-1.84185 0.79931,-4.55602 1.7428,-6.0315 1.15305,-1.80321 1.36495,0.31623 0.64637,6.46493 -0.69254,5.92593 -0.36151,9.58494 0.9399,10.38925 1.18779,0.73409 2.0856,-0.0808 2.19647,-1.99377 0.10314,-1.77945 1.24851,-0.0161 2.54525,3.91851 1.63348,4.95634 2.39996,5.91777 2.49519,3.12982 0.23498,-6.87983 3.71112,-4.40706 3.77125,2.6827 0.0314,3.68871 1.23852,8.269 2.6827,10.17841 2.4382,3.22357 2.62584,2.9147 2.62584,-4.32215 0,-10.66721 2.59891,-7.30945 2.91278,3.76329 0.24147,8.51848 2.45262,15.12449 2.45262,7.3274 0,-7.27022 3.12888,-5.61706 4.00024,2.11354 0.48422,4.29614 2.28301,9.71253 3.99732,12.03645 3.10322,4.2068 3.11202,4.19201 2.0097,-3.37569 -0.60896,-4.18054 -0.40496,-7.60099 0.4533,-7.60099 0.85827,0 2.05361,4.16363 2.6563,9.2525 1.32771,11.21038 4.71324,15.89508 4.8812,6.75431 0.10861,-5.9059 0.18933,-5.97978 1.8868,-1.72456 0.97539,2.44512 1.40234,5.86477 0.94876,7.59922 -0.45355,1.73444 -0.0955,3.60424 0.79591,4.1551 0.89131,0.55087 1.62056,-0.65555 1.62056,-2.68091 0,-2.02538 0.80481,-3.6825 1.78848,-3.6825 0.98366,0 1.80079,2.61563 1.81584,5.81252 0.0316,6.73038 3.3801,13.68761 3.65824,7.60099 0.11595,-2.53776 0.77339,-1.91119 2.26297,2.15676 2.86714,7.83007 6.42742,11.31352 5.24589,5.13272 -0.52098,-2.72532 -0.0651,-4.60677 1.1163,-4.60677 1.78471,0 2.71581,3.86496 2.47744,10.2837 -0.0456,1.22956 0.9594,2.23558 2.23352,2.23558 1.43603,0 1.961,-1.3596 1.38115,-3.57694 z m 17.31469,1.85833 c 1.447,-0.91512 2.19306,-2.10169 1.65791,-2.63683 -0.53514,-0.53516 -2.52386,0.20029 -4.41937,1.63434 -3.77076,2.85274 -1.4795,3.68455 2.76146,1.00249 z M 155.26147,292.78362 c 1.47549,-0.95353 1.8779,-1.73368 0.89424,-1.73368 -0.98366,0 -2.99569,0.78015 -4.47117,1.73368 -1.47549,0.95354 -1.8779,1.73369 -0.89424,1.73369 0.98365,0 2.99569,-0.78015 4.47117,-1.73369 z m 70.89708,-19.22603 c 3.46979,-7.62335 19.59232,-40.68262 35.82785,-73.46505 16.23554,-32.78243 29.24586,-59.85999 28.9118,-60.17233 -0.33403,-0.31233 -5.43621,-3.46749 -11.33816,-7.01143 -11.53292,-6.92517 -15.69975,-8.04245 -14.06028,-3.77003 0.74908,1.95205 -0.21164,2.6827 -3.5275,2.6827 -5.24073,0 -8.11377,3.29765 -4.70729,5.40297 1.61787,0.99991 1.06005,1.60831 -1.86635,2.03564 -2.29565,0.33522 -4.54795,1.74377 -5.00514,3.13007 -0.57105,1.73161 0.0847,2.16905 2.0955,1.39748 1.60971,-0.6177 2.92674,-0.35888 2.92674,0.57517 0,0.93405 -2.08851,2.22245 -4.64111,2.86311 -3.10364,0.77896 -3.90985,1.61681 -2.43363,2.52916 1.53282,0.94731 0.62818,2.27637 -2.95988,4.34847 -2.84206,1.64128 -3.75895,2.5558 -2.03754,2.03223 5.64672,-1.71747 3.27321,1.78185 -3.35126,4.94085 -3.56457,1.69983 -6.04794,3.52371 -5.51857,4.05307 0.52938,0.52937 2.58811,0.0925 4.57502,-0.97089 4.9743,-2.66215 6.47818,-2.42021 3.9431,0.63438 -1.17208,1.41227 -4.42263,3.07107 -7.22346,3.68623 -2.80083,0.61516 -5.52353,2.24195 -6.05044,3.61508 -0.7623,1.98649 -0.038,2.14686 3.54395,0.78494 6.38004,-2.42567 9.29781,-2.02109 5.61048,0.77799 -1.7214,1.30672 -3.12982,3.16396 -3.12982,4.1272 0,0.96325 -2.01202,2.66808 -4.47117,3.78856 -2.45914,1.12045 -4.47118,3.24633 -4.47118,4.72417 0,1.47783 -1.95278,3.17709 -4.33953,3.77612 -2.38677,0.59904 -5.80722,2.73292 -7.60099,4.74194 -3.14886,3.52666 -2.99305,3.51681 4.51286,-0.28562 8.2902,-4.19976 9.95203,-4.11067 8.20585,0.43982 -1.05349,2.74536 -12.56191,7.79353 -15.73401,6.90175 -1.61203,-0.45319 -6.35043,4.94531 -6.44892,7.34731 -0.0314,0.76299 2.41159,0.11087 5.42858,-1.44937 3.01703,-1.56016 6.83989,-2.53112 8.49524,-2.15771 3.38114,0.76273 -8.76615,6.6829 -13.75199,6.70228 -1.60129,0.005 -4.28926,2.4326 -5.9733,5.39197 -2.96199,5.20512 -2.95124,5.32145 0.32955,3.56562 1.86527,-0.99827 4.45034,-1.78943 5.74459,-1.75816 3.57411,0.0865 -4.01996,5.30854 -7.7197,5.30854 -1.72126,0 -3.69949,0.92219 -4.39611,2.0493 -0.89133,1.44223 0.13701,1.69704 3.4714,0.86016 2.8589,-0.71754 4.73792,-0.4486 4.73792,0.67812 0,1.02699 -2.39638,2.34652 -5.32529,2.9323 -2.92891,0.58579 -6.23791,2.16472 -7.35338,3.50874 -1.6948,2.0421 -1.09859,2.11966 3.62813,0.4719 7.18462,-2.50457 9.51124,-0.56048 2.59183,2.16569 -4.75395,1.87301 -4.88081,2.1468 -1.58938,3.43001 3.30833,1.2898 3.19886,1.54361 -1.4578,3.37997 -7.46485,2.94375 -9.32905,2.42289 -5.69609,-1.59151 3.81422,-4.21464 2.42748,-4.85466 -1.66071,-0.76649 -4.02574,4.02574 -3.5919,7.78984 0.76648,6.65011 3.93257,-1.02839 4.72174,1.19854 1.54903,4.37124 -1.51156,1.51156 -0.66996,4.44875 3.30532,11.53563 4.29388,7.65484 7.56453,10.77898 16.78278,16.031 6.29725,3.58781 11.69653,6.60585 11.9984,6.70675 0.30187,0.10087 3.3878,-6.05381 6.85758,-13.67715 z m -2.04104,-88.08208 c 0.60795,-0.98366 0.25304,-1.78848 -0.78867,-1.78848 -1.04171,0 -1.89403,0.80482 -1.89403,1.78848 0,0.98366 0.3549,1.78846 0.78868,1.78846 0.43378,0 1.28609,-0.8048 1.89402,-1.78846 z m 3.57694,-5.36541 c 0.60794,-0.98366 0.30052,-1.78846 -0.68314,-1.78846 -0.98366,0 -2.28585,0.8048 -2.8938,1.78846 -0.60793,0.98365 -0.30051,1.78847 0.68314,1.78847 0.98366,0 2.28587,-0.80482 2.8938,-1.78847 z m 74.79995,-47.48762 c 4.58005,-9.60447 19.00785,-24.15146 27.8777,-28.10805 16.62356,-7.41527 38.10557,-2.05056 44.868,11.20492 3.14374,6.16223 18.07484,17.89057 22.77613,17.89057 2.25715,0 11.5645,-14.28421 15.4025,-23.6386 l 2.72766,-6.64815 -6.84837,-5.424007 c -4.80005,-3.801697 -8.80395,-5.424024 -13.38657,-5.424024 -13.04127,0 -31.85306,-13.65715 -35.21596,-25.566411 -1.16796,-4.136129 -3.4026,-8.889448 -4.96589,-10.562901 C 350.99093,51.273166 314.779,34.413497 293.86779,27.543956 270.0986,19.735534 249.00403,15.927593 220.9877,14.3878 c -18.42688,-1.012742 -21.01451,-0.807875 -21.01451,1.663874 0,2.795853 3.79851,4.452896 19.4826,8.499073 4.32165,1.114901 12.77217,4.256447 18.77891,6.981214 6.00675,2.724794 14.64171,6.354525 19.18879,8.066084 10.80562,4.067337 19.45385,12.008926 19.45385,17.864298 0,2.494323 -3.16941,12.398634 -7.04313,22.009567 -9.98568,24.77503 -12.12595,33.445 -9.14335,37.03879 2.13277,2.56982 35.32466,22.26267 37.76398,22.40548 0.55555,0.0326 2.37335,-2.79964 4.03956,-6.2937 z m 84.84361,-8.96595 c -2.70781,-1.46926 -5.41555,-4.83403 -6.05913,-7.52939 -0.63997,-2.68019 -1.95596,-5.8791 -2.92442,-7.10866 -1.24734,-1.58361 -0.95506,-2.23559 1.00213,-2.23559 1.5596,0 3.64222,2.66406 4.78165,6.11658 1.42299,4.3117 3.61447,6.67287 7.42673,8.00183 2.97444,1.0369 4.89779,2.7109 4.27413,3.72002 -1.46671,2.37316 -2.58269,2.2465 -8.50109,-0.96479 z m -116.59319,-8.38052 c -2.746,-4.1909 -2.21018,-14.14731 1.03453,-19.223934 1.16193,-1.817921 1.37487,-0.0443 0.66059,5.502034 -1.19572,9.2848 0.0919,14.17113 3.73452,14.17113 1.37023,0 2.49135,0.8048 2.49135,1.78846 0,3.31013 -5.25944,1.82435 -7.92099,-2.23769 z m -5.07919,-81.108914 c -0.86566,-0.865659 -5.01225,-1.965564 -8.90856,-2.36305 -0.73774,-0.07525 -1.34135,-1.005604 -1.34135,-2.067418 0,-1.236995 2.08818,-1.49056 5.81252,-0.705794 6.60996,1.392776 9.60545,3.527584 7.11205,5.068605 -0.93217,0.576096 -2.13576,0.606543 -2.67466,0.06764 z M 131.04194,231.06164 c -5.86057,-8.372 -16.14092,-22.65739 -22.84519,-31.74531 C 101.49247,190.22838 94.273864,179.97597 92.155404,176.53316 88.440792,170.49639 69.941677,143.8824 52.084658,118.88487 46.385301,110.90649 40.8924,105.47445 35.808149,102.78865 30.107692,99.77735 26.088134,95.460623 20.178599,86.003604 15.803069,79.001443 11.007076,72.263213 9.520836,71.029741 5.6057193,67.780485 5.9805055,66.838709 14.799975,57.764154 c 8.208011,-8.445438 11.691763,-10.129659 11.691763,-5.652373 0,1.407946 4.824622,6.756214 10.721382,11.885058 8.72961,7.592788 11.287723,11.121813 13.769896,18.996171 1.676682,5.319049 5.552046,12.646543 8.611921,16.283319 3.059877,3.636781 11.953627,16.266851 19.763893,28.066861 7.810266,11.79998 16.299292,23.87215 18.864501,26.82701 2.565209,2.95488 11.752369,15.83506 20.415909,28.62261 8.66355,12.78754 19.6429,28.9812 24.39859,35.9859 4.75568,7.0047 8.64671,13.24198 8.64671,13.86063 0,3.88795 -4.45378,-1.09775 -15.335,-17.1665 C 116.98441,186.87557 103.78384,168.05612 90.845931,150.60036 84.284292,141.74745 75.883282,129.6753 72.177016,123.77335 68.470749,117.8714 62.298514,108.93049 58.460933,103.90466 54.623353,98.878843 50.085623,90.698765 48.377086,85.726717 45.993684,78.790718 42.521139,74.17158 33.457513,65.88087 L 21.644366,55.075103 16.914178,60.012342 c -2.601603,2.715508 -4.693001,5.69803 -4.647549,6.627878 0.04544,0.92982 4.319987,7.726675 9.498969,15.104108 6.176037,8.797735 11.953526,14.821897 16.78946,17.506291 6.810095,3.780231 21.385238,21.124991 27.305509,32.494211 1.258601,2.41701 6.666973,10.3153 12.018604,17.55178 5.351631,7.23648 15.258696,21.35516 22.0157,31.37481 6.756999,10.0197 15.741439,22.78522 19.965399,28.3679 10.90918,14.41822 22.96489,31.80238 24.0926,34.74114 2.61151,6.80547 -3.36472,0.91817 -12.91093,-12.71882 z M 28.8354,86.178558 c -4.780157,-7.501301 -2.720608,-9.865859 2.198318,-2.523875 1.928371,2.87828 4.914548,5.23554 6.63595,5.238369 1.721401,0.004 3.129819,0.809969 3.129819,1.793625 0,4.419488 -8.257882,1.307881 -11.964087,-4.508119 z"
     id="path3046"
     inkscape:connector-curvature="0" />
</svg>
