<?xml version="1.0" encoding="UTF-8" standalone="no"?>
<!-- Created with Inkscape (http://www.inkscape.org/) -->

<svg
   xmlns:dc="http://purl.org/dc/elements/1.1/"
   xmlns:cc="http://creativecommons.org/ns#"
   xmlns:rdf="http://www.w3.org/1999/02/22-rdf-syntax-ns#"
   xmlns:svg="http://www.w3.org/2000/svg"
   xmlns="http://www.w3.org/2000/svg"
   xmlns:xlink="http://www.w3.org/1999/xlink"
   xmlns:sodipodi="http://sodipodi.sourceforge.net/DTD/sodipodi-0.dtd"
   xmlns:inkscape="http://www.inkscape.org/namespaces/inkscape"
   id="svg29992"
   version="1.1"
   inkscape:version="0.48.4 r9939"
   width="218"
   height="307"
   sodipodi:docname="Beer.png">
  <metadata
     id="metadata29998">
    <rdf:RDF>
      <cc:Work
         rdf:about="">
        <dc:format>image/svg+xml</dc:format>
        <dc:type
           rdf:resource="http://purl.org/dc/dcmitype/StillImage" />
        <dc:title></dc:title>
      </cc:Work>
    </rdf:RDF>
  </metadata>
  <defs
     id="defs29996">
    <linearGradient
       id="linearGradient30591">
      <stop
         style="stop-color:#000000;stop-opacity:1;"
         offset="0"
         id="stop30593" />
      <stop
         style="stop-color:#000000;stop-opacity:0;"
         offset="1"
         id="stop30595" />
    </linearGradient>
    <linearGradient
       inkscape:collect="always"
       xlink:href="#linearGradient30591"
       id="linearGradient30597"
       x1="19.276518"
       y1="167.18461"
       x2="43.732388"
       y2="167.18462"
       gradientUnits="userSpaceOnUse" />
    <linearGradient
       inkscape:collect="always"
       xlink:href="#linearGradient30591"
       id="linearGradient30607"
       x1="135.67612"
       y1="166.26479"
       x2="143.77151"
       y2="166.35117"
       gradientUnits="userSpaceOnUse"
       gradientTransform="matrix(-0.99990284,0.01393923,-0.01393923,-0.99990284,292.05251,330.49396)" />
    <filter
       inkscape:collect="always"
       id="filter30631"
       x="-0.80377726"
       width="2.6075545"
       y="-0.2818854"
       height="1.5637708">
      <feGaussianBlur
         inkscape:collect="always"
         stdDeviation="18.733516"
         id="feGaussianBlur30633" />
    </filter>
    <filter
       inkscape:collect="always"
       id="filter30667"
       x="-0.26798597"
       width="1.5359719"
       y="-0.37631471"
       height="1.7526294">
      <feGaussianBlur
         inkscape:collect="always"
         stdDeviation="14.52537"
         id="feGaussianBlur30669" />
    </filter>
    <filter
       inkscape:collect="always"
       id="filter30675"
       x="-0.38462508"
       width="1.7692502"
       y="-0.072313707"
       height="1.1446274">
      <feGaussianBlur
         inkscape:collect="always"
         stdDeviation="7.1923668"
         id="feGaussianBlur30677" />
    </filter>
  </defs>
  <sodipodi:namedview
     pagecolor="#ffffff"
     bordercolor="#666666"
     borderopacity="1"
     objecttolerance="10"
     gridtolerance="10"
     guidetolerance="10"
     inkscape:pageopacity="0"
     inkscape:pageshadow="2"
     inkscape:window-width="675"
     inkscape:window-height="734"
     id="namedview29994"
     showgrid="false"
     inkscape:zoom="1.0871479"
     inkscape:cx="83.96853"
     inkscape:cy="182.07823"
     inkscape:window-x="1"
     inkscape:window-y="22"
     inkscape:window-maximized="0"
     inkscape:current-layer="svg29992" />
  <path
     style="fill:#ffe30e;fill-opacity:0.99494952;stroke:none"
     d="m 19.776518,91.297975 c -2.259767,14.734605 -0.30053,31.446985 0.06117,49.422915 0.657479,32.67537 -1.166063,69.42088 2.008461,99.13093 l 64.618625,13.33765 C 109.68061,250.91616 132.9667,248.9941 154.99271,240.77166 L 152.69312,87.618623 c -22.84265,2.586585 -45.68529,8.660442 -68.527938,6.898785 -21.462888,1.45712 -42.925776,-1.143901 -64.388664,-3.219433 z"
     id="path30517"
     inkscape:connector-curvature="0"
     sodipodi:nodetypes="cscccccc" />
  <path
     style="fill:#0effcd;fill-opacity:0.12121211;stroke:none"
     d="m 93.03125,41.71875 c -21.039621,-0.07805 -44.817237,2.116401 -73.71875,8.1875 -2.63845,74.50688 1.820619,147.71187 2.75,222.21875 17.7518,10.6143 36.134331,11.77971 65.3125,11.40625 39.3708,2.16538 59.46093,-3.35769 68.53125,-13.3125 L 154.53125,221 c 3.19763,-6.49338 8.51193,-7.71709 13.34375,-10.125 7.11878,-3.56935 25.83555,-1.32848 40.9375,-0.90625 l -5.53125,-11.0625 c -3.36725,-12.87773 -0.67138,-25.74727 -0.90625,-38.625 12.44358,-47.62443 8.42363,-44.81834 8.71875,-55.1875 -5.81737,-9.973182 -15.98916,-15.564042 -15.625,-31.71875 l -15.1875,-3.21875 C 176.7304,79.176516 173.16877,88.160147 152.6875,80.25 l -2.28125,-33.09375 c -18.01693,-2.999391 -36.33538,-5.359452 -57.375,-5.4375 z m 90.375,52.59375 c 21.81685,21.14135 11.61948,38.441 14,57.25 -3.22594,20.10565 -10.23262,28.91083 -17.5625,36.75 -8.86585,4.22411 -17.37679,5.60893 -25.37606,2.90042 -0.4523,-26.98966 -3.296,-54.64246 0.34481,-81.61917 5.92058,-11.592964 14.04965,-19.210621 28.59375,-15.28125 z"
     id="path30004"
     inkscape:connector-curvature="0"
     sodipodi:nodetypes="sccccccccccccccscccccc" />
  <path
     style="fill:url(#linearGradient30597);fill-opacity:1;stroke:none"
     d="m 19.776518,89.458299 24.835628,3.679352 C 44.879277,179.50193 46.506701,206.11551 42.312551,244.91093 L 22.076113,240.31174 C 21.309581,190.02726 18.14479,98.972372 19.776518,89.458299 z"
     id="path30589"
     inkscape:connector-curvature="0"
     sodipodi:nodetypes="ccccc" />
  <path
     style="fill:url(#linearGradient30607);fill-opacity:1;fill-rule:nonzero;stroke:none"
     d="M 119.55187,247.18795 C 111.52261,195.69809 109.0369,142.98944 118.08134,92.353272 l 34.87514,-6.234849 1.26637,156.829977 z"
     id="path30599"
     inkscape:connector-curvature="0"
     sodipodi:nodetypes="ccccc" />
  <path
     style="fill:#ffffff;stroke:none;stroke-width:1px;stroke-linecap:butt;stroke-linejoin:miter;stroke-opacity:1;fill-opacity:0.80303031000000002;filter:url(#filter30631)"
     d="M 57.5625,246.51059 58.212924,94.961864 c 16.905227,0.741978 33.920997,1.055144 51.708686,-1.626059 l 3.57733,156.426905 c -20.379943,4.98658 -39.025423,3.90254 -55.93644,-3.25212 z"
     id="path30609"
     inkscape:connector-curvature="0"
     sodipodi:nodetypes="ccccc" />
  <path
     style="fill:#955e14;fill-opacity:0.47474748;stroke:none;filter:url(#filter30667)"
     d="m 22.764831,160.00424 c 68.160481,-37.08724 107.011749,103.11824 130.084749,0 l -1.30085,82.60381 c -35.28462,11.60611 -74.952946,15.75994 -127.483052,-1.95127 z"
     id="path30661"
     inkscape:connector-curvature="0"
     sodipodi:nodetypes="ccccc" />
  <path
     style="fill:#bffff3;stroke:none;stroke-width:1px;stroke-linecap:butt;stroke-linejoin:miter;stroke-opacity:1;fill-opacity:0.34117648"
     d="m 22.114407,240.65678 68.294491,13.00847 64.391952,-13.00847 -0.65043,31.22034 -11.0572,7.15466 -71.54661,5.20339 -50.733051,-13.00848 z"
     id="path30671"
     inkscape:connector-curvature="0" />
  <path
     style="fill:#000000"
     d="M 80.199152,285.55754 C 49.883192,283.96556 35.379334,281.1404 24.608018,274.72912 l -3.59113,-2.13751 -0.87444,-21.24496 c -0.48094,-11.68473 -0.915,-43.51996 -0.96459,-70.74496 -0.0549,-30.14996 -0.57632,-55.21295 -1.33384,-64.1145 -0.85808,-10.08326 -0.96291,-17.989547 -0.33809,-25.499991 0.49808,-5.987027 0.69049,-17.208463 0.42758,-24.936523 -0.44462,-13.068997 -0.32204,-14.361957 1.75383,-18.5 3.60486,-7.185937 6.6811,-9.836224 12.279019,-10.578815 4.956435,-0.657494 8.618598,-2.960653 13.705479,-8.61947 1.366148,-1.519747 3.524767,-2.750696 4.823683,-2.750696 1.29305,0 5.580342,-1.083797 9.527316,-2.408438 11.608627,-3.895962 21.783708,-5.654194 28.599036,-4.941851 9.208145,0.962442 7.271465,2.270956 -3.172719,2.143642 -9.16769,-0.111753 -11.62137,0.352017 -27.553128,5.20782 -4.016721,1.224247 -7.591382,1.93765 -7.943692,1.58534 -0.35231,-0.35231 -3.167658,1.860161 -6.256328,4.916602 -4.81988,4.769587 -6.34571,5.672555 -10.766269,6.371352 -5.764947,0.911315 -7.673837,2.148217 -9.870257,6.395631 -1.86046,3.597742 -1.44272,4.094677 2.25099,2.677712 3.43113,-1.316237 18.631139,-3.873082 26.388684,-4.438931 3.025,-0.220648 9.775,-0.867613 15,-1.4377 12.39388,-1.352265 47.431788,-1.363678 55.884698,-0.0182 3.63842,0.579137 9.7653,1.517477 13.6153,2.085201 10.71522,1.580075 16.5,2.96897 16.5,3.961565 0,1.177605 -0.21802,1.161937 -9,-0.646779 -4.125,-0.849574 -10.875,-2.026152 -15,-2.614616 -11.24811,-1.604633 -46.870237,-2.052395 -60.499998,-0.76047 -6.6,0.625594 -14.7,1.325303 -18,1.554908 -7.92158,0.551163 -22.095544,3.221578 -26.541484,5.000492 l -3.5487,1.419909 0.0451,18.852661 0.0451,18.852661 9.248089,0.680943 c 12.428353,2.179622 19.965263,2.551751 30.751908,3.426007 14.683816,1.179517 35.855074,0.423487 52.499995,-1.874788 3.575,-0.493624 10.55,-1.383591 15.5,-1.977703 13.29357,-1.595531 21.84567,-3.151429 23.19467,-4.21985 1.22681,-0.971636 1.09322,-15.398162 -0.26316,-28.420231 -0.41196,-3.955023 -0.25746,-6.362431 0.43582,-6.790898 1.57862,-0.975644 2.1473,2.533869 2.48216,15.318301 0.28817,11.001889 0.39378,11.48215 3.02201,13.742861 3.6584,3.146823 7.02925,3.852963 11.70511,2.452039 5.92124,-1.774045 8.95233,-4.892177 9.62408,-9.900448 0.4647,-3.464622 0.89068,-4.168439 2.18816,-3.615363 0.88612,0.377726 4.53613,1.399172 8.11113,2.269882 3.575,0.87071 6.83061,2.048326 7.23469,2.616926 0.40408,0.568599 0.74158,2.739244 0.75,4.823655 0.0204,5.055152 3.02687,10.677566 8.50824,15.911444 9.76595,9.324997 9.92071,19.661077 0.88036,58.798717 -2.24417,9.71548 -2.6732,13.98854 -2.76483,27.53689 l -0.10846,16.0369 3.19124,6.43853 c 1.75518,3.5412 2.98196,6.64781 2.72619,6.90359 -1.11128,1.11127 -3.90092,-3.30918 -6.06149,-9.60498 -2.1485,-6.26062 -2.30425,-8.0633 -1.92767,-22.31093 0.28858,-10.91833 1.03828,-18.28423 2.53625,-24.91919 1.16962,-5.18056 2.3707,-9.8142 2.66908,-10.29698 0.86794,-1.40436 3.38389,-16.64231 4.02197,-24.35926 0.32686,-3.95303 0.085,-9.40694 -0.54802,-12.35871 -0.95195,-4.43876 -1.94984,-6.017627 -6.24276,-9.877337 -5.66968,-5.097527 -8.93265,-11.429903 -9.19079,-17.836394 -0.16273,-4.038426 -0.27277,-4.163402 -4.17057,-4.736453 -2.20189,-0.32372 -4.98424,-0.863874 -6.183,-1.200342 -1.79671,-0.504298 -2.5378,0.09043 -4.21892,3.385681 -3.88954,7.624147 -13.7907,11.12661 -20.93178,7.404471 l -3.90909,-2.037529 -0.67423,7.440458 c -0.37083,4.092251 -0.40292,7.879458 -0.0713,8.416018 1.21488,1.96571 3.4849,0.97271 3.4849,-1.52444 0,-1.375 0.45,-2.499998 1,-2.499998 0.55,0 1,0.6375 1,1.416668 0,0.77917 0.5625,1.64364 1.25,1.92105 1,0.40351 1,0.52018 0,0.58334 -0.6875,0.0434 -1.25,0.81463 -1.25,1.7138 0,2.215997 3.13814,-1.90661 5.05047,-6.634858 l 1.41557,-3.5 0.64866,3 c 0.50334,2.327883 0.67518,2.495908 0.76699,0.75 0.13842,-2.63235 2.08629,-3.077886 2.18599,-0.5 0.0539,1.393287 0.28887,1.29137 1.15281,-0.5 1.27757,-2.649008 2.96462,-3.03836 2.16649,-0.5 -0.46983,1.494232 -0.31909,1.466297 1.03138,-0.19113 1.3868,-1.701998 1.58164,-1.732796 1.58164,-0.25 0,2.443101 1.6388,2.078256 2.51032,-0.55887 l 0.74358,-2.25 0.4426,2.25 c 0.49319,2.507192 2.3035,3.096612 2.3035,0.75 0,-2.627467 1.76076,-1.61448 3.04183,1.75 0.89893,2.360888 1.35436,2.780358 1.66473,1.533311 0.35095,-1.410082 0.76091,-1.508321 2.29536,-0.550041 1.34528,0.840148 1.71816,1.916338 1.33234,3.845408 -0.29466,1.47332 -0.0404,2.9849 0.565,3.359057 0.60541,0.37416 1.10074,0.20374 1.10074,-0.378717 0,-0.58246 0.3876,-1.05902 0.86133,-1.05902 0.47373,0 0.64627,1.125 0.38342,2.499997 -0.27897,1.45935 -0.0131,2.5 0.63867,2.5 0.61412,0 1.11658,-0.45 1.11658,-1 0,-0.55 0.43886,-1 0.97525,-1 0.63366,0 0.63366,0.89844 0,2.5651 -1.36274,3.58427 -1.21742,4.13733 0.49295,1.87603 1.28434,-1.69806 1.47218,-1.72938 1.5,-0.25015 0.0175,0.93004 -0.4182,1.9691 -0.9682,2.30902 -0.55,0.33992 -0.96447,1.15398 -0.92105,1.80902 0.0569,0.85875 0.21965,0.84229 0.58333,-0.059 0.9997,-2.47752 2.27085,-1.20431 1.31297,1.3151 -1.21369,3.19222 -1.21194,3.43488 0.0248,3.43488 0.55,0 1.02852,-0.7875 1.06339,-1.75 0.0472,-1.30342 0.30121,-1.15682 0.99532,0.57448 0.60323,1.50459 0.55857,3.02212 -0.12662,4.3024 -0.5822,1.08787 -0.8573,2.74185 -0.61132,3.67553 0.40892,1.55219 0.45716,1.5477 0.56323,-0.0524 0.0638,-0.9625 0.47007,-1.75 0.90283,-1.75 0.90221,0 -0.0895,10.61804 -1.23748,13.25 -0.41983,0.9625 -0.35205,1.75 0.15062,1.75 0.50267,0 1.43386,-1.2375 2.06932,-2.75 1.01984,-2.42741 1.08065,-2.45673 0.5184,-0.25 -0.35034,1.375 -0.64839,4.60843 -0.66233,7.18541 -0.0139,2.57698 -0.35427,4.48214 -0.75626,4.23369 -0.402,-0.24845 -1.01552,0.009 -1.36338,0.57165 -0.34787,0.56286 0.071,1.29334 0.9309,1.6233 0.85986,0.32996 1.56338,0.98766 1.56338,1.46155 0,0.4739 -0.68989,0.59689 -1.53309,0.27333 -1.3045,-0.50059 -1.36013,-0.20869 -0.37309,1.95764 1.19061,2.61311 0.47318,8.16189 -0.94219,7.28714 -0.43436,-0.26845 -0.61428,0.95065 -0.39983,2.7091 0.29763,2.44049 0.14317,2.84218 -0.6526,1.69719 -0.77673,-1.11758 -0.90289,-0.60769 -0.49483,2 0.30123,1.925 0.092,4.625 -0.46495,6 l -1.01265,2.5 -0.0938,-3 c -0.0717,-2.29389 -0.3077,-2.63457 -1.0026,-1.44741 -0.51867,0.88608 -0.55082,3.13983 -0.0749,5.25 0.47921,2.12475 0.45335,3.75058 -0.0608,3.82241 -0.49208,0.0687 -1.45719,0.18125 -2.14469,0.25 -0.6875,0.0687 -1.3972,1.67042 -1.5771,3.55926 -0.24136,2.53405 -0.56902,3.05831 -1.25,2 -1.5008,-2.33236 -2.96926,0.81362 -1.80686,3.87095 0.51696,1.35969 0.74341,2.66867 0.50324,2.90884 -0.24017,0.24017 -0.73515,-0.50378 -1.09997,-1.65321 -0.36482,-1.14943 -1.09921,-1.82048 -1.63198,-1.4912 -0.53278,0.32927 -0.71276,1.40502 -0.39996,2.39055 0.6442,2.02972 -3.05677,3.64381 -3.86048,1.68365 -0.25795,-0.62911 -0.50452,-0.13134 -0.54794,1.10616 -0.081,2.30829 -2.60964,3.15793 -3.29342,1.1066 -0.64807,-1.94421 -4.77118,0.93988 -4.90153,3.42858 -0.0886,1.6924 -0.22387,1.80204 -0.57333,0.46482 -0.25152,-0.9625 -1.14747,-1.75 -1.99098,-1.75 -0.93755,0 -1.31471,0.57059 -0.97035,1.46797 0.30982,0.80739 0.13297,1.73395 -0.39301,2.05902 -0.52596,0.32507 -0.95631,-0.11052 -0.95631,-0.96798 0,-0.85746 -0.45,-1.55902 -1,-1.55902 -0.55,0 -1,0.9 -1,2 0,1.1 -0.48032,2 -1.06739,2 -0.61231,0 -0.79675,-0.85269 -0.43261,-2 0.86538,-2.72656 -0.91795,-2.53704 -2.35246,0.25 l -1.15808,2.25 0.57266,-2.25 c 0.31496,-1.2375 0.14858,-2.25 -0.36973,-2.25 -0.51832,0 -1.21309,1.35352 -1.54395,3.00781 -0.33086,1.6543 -0.94961,2.95101 -1.375,2.88158 -2.43495,-0.39741 -2.82506,0.60194 -2.67817,6.86061 0.274,11.67509 -0.0225,11.1315 3.87983,7.1139 4.38781,-4.51748 10.18895,-5.87137 28.25453,-6.59413 9.39227,-0.37576 14.10571,-0.1664 16.25,0.72179 3.78178,1.56647 3.98967,3.31761 0.27037,2.27749 -4.56008,-1.27525 -26.30326,-0.8577 -33.25,0.63853 -5.45778,1.17553 -7.17449,2.09243 -10.70655,5.71842 l -4.20655,4.31842 0.61074,25.33804 0.61075,25.33804 -3.9042,2.29313 c -2.1473,1.26122 -4.26405,2.92161 -4.70388,3.68975 -0.43983,0.76814 -1.56483,1.39653 -2.5,1.39641 -0.93517,-1.1e-4 -4.40031,0.88031 -7.70031,1.95649 -11.71497,3.82042 -33.19919,5.30193 -57.999998,3.99957 z m 36.670448,-3.02112 c 11.47437,-0.79737 17.06843,-1.66675 22.24393,-3.45696 3.80291,-1.31543 7.17791,-2.74855 7.5,-3.18473 0.32209,-0.43617 2.25539,-1.5648 4.29622,-2.50807 l 3.7106,-1.71504 -0.34863,-18.28496 c -0.63705,-33.41285 -1.87943,-60.85659 -2.78017,-61.41328 -0.49456,-0.30565 -0.40935,-1.12831 0.19191,-1.85278 1.11625,-1.345 1.40269,-27.26999 0.65761,-59.51891 -0.20967,-9.075 -0.43987,-22.42177 -0.51157,-29.65949 l -0.13035,-13.15948 -5.01873,1.323917 c -2.76031,0.728154 -8.27281,1.616167 -12.25,1.973361 -3.9772,0.357194 -7.90627,0.823141 -8.73127,1.035437 -0.825,0.212296 -3.525,0.642627 -6,0.956291 -2.475,0.313663 -6.075,0.785627 -8,1.048817 -16.082523,2.19878 -54.267544,2.44388 -69.207824,0.44422 -14.463418,-1.935832 -22.282858,-2.798941 -22.591588,-2.493656 -0.61897,0.612084 -0.34953,21.233153 0.34013,26.030583 0.39533,2.75 0.90126,30.09995 1.1243,60.77767 0.22304,30.67772 0.79561,56.80366 1.27237,58.05764 0.98876,2.60065 2.92117,3.29417 21.062614,7.55922 22.00335,5.17298 39.42364,7.47858 51,6.74994 10.419938,-0.65586 26.936798,-2.48738 27.921898,-3.0962 0.39833,-0.24618 3.61636,-0.91007 7.15117,-1.47531 3.53481,-0.56524 9.45911,-2.01821 13.1651,-3.22883 5.81093,-1.89823 9.30067,-2.04964 7.57989,-0.32886 -1.09652,1.09652 -17.773,5.34067 -26.81806,6.82518 -25.894776,4.24993 -34.600684,4.61082 -52.563578,2.17894 -13.103824,-1.77405 -40.509687,-7.6789 -46.686424,-10.05903 -1.61693,-0.62306 -1.75,0.42205 -1.75,13.74459 l 0,14.41893 2.75,2.01573 c 1.5125,1.10865 4.325004,2.58147 6.250004,3.27294 6.363666,2.28584 16.420569,4.94556 17.103706,4.52336 0.36955,-0.2284 4.209896,0.0778 8.534102,0.68044 21.641908,3.01609 35.990482,3.45436 59.53264,1.81838 z m -72.714125,-6.0054 c -0.461848,-0.74729 1.559097,-0.85898 6.690983,-0.36981 4.043982,0.38547 7.540194,0.86727 7.769361,1.07067 0.229166,0.2034 -2.781776,0.36981 -6.690983,0.36981 -3.972511,0 -7.399527,-0.47227 -7.769361,-1.07067 z m 8.293677,-1.59161 c 0.6875,-0.27741 1.8125,-0.27741 2.5,0 0.6875,0.27741 0.125,0.50439 -1.25,0.50439 -1.375,0 -1.9375,-0.22698 -1.25,-0.50439 z m -16.412541,-1.76107 c -6.242982,-1.61476 -8.340403,-4.0044 -8.322143,-9.48164 0.008,-2.52725 0.45153,-5.27001 0.98468,-6.09501 1.131928,-1.75153 1.222561,-1.24467 1.015929,5.68152 -0.134757,4.517 0.167372,5.39247 2.355825,6.8264 1.380724,0.90469 4.449422,1.83123 6.819328,2.05898 2.369907,0.22775 6.108922,0.82425 8.308922,1.32555 l 4,0.91145 -5.5,-0.0753 c -3.025,-0.0414 -7.373143,-0.5598 -9.662541,-1.15195 z m 10.4242,-3.28391 c 1.243913,-0.23919 3.043913,-0.23011 4,0.0202 0.956088,0.25029 -0.06166,0.446 -2.261659,0.4349 -2.2,-0.0111 -2.982253,-0.21589 -1.738341,-0.45508 z m -8.761659,-1.29274 c 0,-1.17371 0.76862,-1.17371 3.5,0 1.77225,0.76156 1.686844,0.86743 -0.75,0.92971 -1.5125,0.0387 -2.75,-0.37971 -2.75,-0.92971 z m 6.229998,-3.73039 c -3.998501,-1.40962 -7.050655,-2.78229 -6.782564,-3.05038 0.563166,-0.56316 12.583013,3.67403 14.002566,4.93614 1.235336,1.09832 1.271116,1.10766 -7.220002,-1.88576 z m 2.582502,-4.95272 c 0.721875,-0.28887 1.584375,-0.25335 1.916667,0.0789 0.332291,0.33229 -0.258334,0.56864 -1.3125,0.52522 -1.164943,-0.048 -1.4019,-0.28494 -0.604167,-0.60416 z m -8.8125,-1.31689 -2.5,-0.80064 2.5,-0.0844 c 1.375,-0.0464 3.175,0.35185 4,0.88501 1.333333,0.86167 1.333333,0.96 0,0.88501 -0.825,-0.0464 -2.625,-0.44466 -4,-0.88501 z m 9.8125,-1.68311 c 0.721875,-0.28887 1.584375,-0.25335 1.916667,0.0789 0.332291,0.33229 -0.258334,0.56864 -1.3125,0.52522 -1.164943,-0.048 -1.4019,-0.28494 -0.604167,-0.60416 z m -7.738361,-2.19415 c -1.334224,-0.37285 -2.602913,-1.20906 -2.819311,-1.85826 -0.261755,-0.78526 0.633901,-0.66783 2.675861,0.35083 1.688121,0.84215 3.069311,1.72321 3.069311,1.95793 0,0.23472 -0.1125,0.3819 -0.25,0.32708 -0.1375,-0.0548 -1.341637,-0.40474 -2.675861,-0.77758 z m 5.573955,-3.80798 c -0.376881,-0.37688 -2.589381,-0.99556 -4.916667,-1.37483 -3.639098,-0.59307 -3.792553,-0.70712 -1.096237,-0.81476 1.724355,-0.0688 4.649355,0.53222 6.5,1.33569 1.850646,0.80347 2.65231,1.47847 1.781477,1.5 -0.870834,0.0215 -1.891691,-0.26922 -2.268573,-0.6461 z m -2.148094,-8.83756 c -3.961048,-1.01815 -4.376629,-1.29578 -2,-1.3361 1.65,-0.028 4.35,0.56726 6,1.32279 3.688362,1.68887 2.533569,1.69271 -4,0.0133 z m -0.5,-3.48575 c -1.024027,-0.66761 0.08658,-0.77671 3.5,-0.34381 2.75,0.34876 5.1875,0.79572 5.416667,0.99324 0.993448,0.85624 -7.563065,0.23305 -8.916667,-0.64943 z m -15.426534,-3.31407 c -1.93856,-1.41751 -3.25751,-9.67738 -1.54529,-9.67738 0.5345,0 0.97182,1.76968 0.97182,3.93261 0,3.05436 0.44666,4.07438 2,4.56739 1.100004,0.34913 2.000004,1.05445 2.000004,1.56739 0,1.3089 -1.306506,1.16019 -3.426534,-0.39001 z m 17.426534,-0.53871 c 0,-0.47373 1.125,-0.64627 2.5,-0.38342 1.375,0.26285 2.5,0.65044 2.5,0.86133 0,0.21088 -1.125,0.38342 -2.5,0.38342 -1.375,0 -2.5,-0.3876 -2.5,-0.86133 z m -3,-1.19769 c 0,-0.58246 0.45,-0.7809 1,-0.44098 0.55,0.33992 1,0.81648 1,1.05902 0,0.24254 -0.45,0.44098 -1,0.44098 -0.55,0 -1,-0.47656 -1,-1.05902 z m 6.75,-2.60326 c 0.6875,-0.27741 1.8125,-0.27741 2.5,0 0.6875,0.27741 0.125,0.50439 -1.25,0.50439 -1.375,0 -1.9375,-0.22698 -1.25,-0.50439 z m -6.9375,-2.02083 c 0.721875,-0.28887 1.584375,-0.25335 1.916667,0.0789 0.332291,0.33229 -0.258334,0.56864 -1.3125,0.52522 -1.164943,-0.048 -1.4019,-0.28494 -0.604167,-0.60416 z m 6.869595,-2.28551 c -2.099848,-0.40624 -4.574848,-1.52841 -5.5,-2.4937 -1.601507,-1.67101 -1.528769,-1.67802 1.518245,-0.14639 1.760187,0.88479 4.347687,1.60871 5.75,1.60871 1.402313,0 2.54966,0.45 2.54966,1 0,0.55 -0.1125,0.94825 -0.25,0.885 -0.1375,-0.0632 -1.968057,-0.44738 -4.067905,-0.85362 z m -5.682095,-8.82624 c -1.375,-0.20597 -2.935938,-0.79483 -3.46875,-1.30857 -0.896128,-0.86405 5.357052,-0.13245 6.385417,0.74707 0.807626,0.69073 -0.444596,0.9318 -2.916667,0.5615 z m -2,-4.82758 c 0,-1.3888 0.252018,-1.42955 1.75,-0.28297 0.9625,0.73671 1.9375,1.46681 2.166667,1.62244 0.229166,0.15563 -0.558334,0.28297 -1.75,0.28297 -1.331934,0 -2.166667,-0.62507 -2.166667,-1.62244 z m 0.5,-3.91514 c -3.970872,-1.3738 -3.974513,-1.37975 -0.5,-0.81779 1.925,0.31134 3.9275,0.96867 4.45,1.46072 1.168044,1.09999 1.016487,1.07532 -3.95,-0.64293 z m -1.25,-3.15175 c 0.9625,-0.25152 2.5375,-0.25152 3.5,0 0.9625,0.25153 0.175,0.45733 -1.75,0.45733 -1.925,0 -2.7125,-0.2058 -1.75,-0.45733 z m -0.774772,-4.35075 c -0.421617,-0.68219 0.332299,-0.80584 2.190983,-0.35933 3.831413,0.92042 4.19405,1.39941 1.059473,1.39941 -1.434208,0 -2.896913,-0.46804 -3.250456,-1.04008 z m 1.024772,-2.95992 c -0.745764,-1.20667 3.191924,-1.20667 6,0 1.611862,0.69264 1.283694,0.87307 -1.690983,0.92971 -2.030041,0.0387 -3.969098,-0.37971 -4.309017,-0.92971 z m 1.75,-3.34741 c -4.397492,-1.44263 -4.16333,-2.7457 0.25,-1.39121 1.925,0.5908 3.5,1.44868 3.5,1.9064 0,0.45772 -0.1125,0.76894 -0.25,0.69161 -0.1375,-0.0773 -1.7125,-0.6204 -3.5,-1.2068 z m 1.25,-5.27638 -5,-1.30871 4.92097,0.47055 c 2.706534,0.25881 5.144034,0.69362 5.416667,0.96625 1.144304,1.14431 -0.639964,1.10149 -5.337637,-0.12809 z m -3.230968,-5.0692 c 0.972967,-0.25354 2.322967,-0.23687 3,0.0371 0.677032,0.27393 -0.119032,0.48137 -1.769032,0.46099 -1.65,-0.0204 -2.203936,-0.2445 -1.230968,-0.49804 z m 8.480968,-0.96929 c 0.6875,-0.27741 1.8125,-0.27741 2.5,0 0.6875,0.27741 0.125,0.50439 -1.25,0.50439 -1.375,0 -1.9375,-0.22698 -1.25,-0.50439 z m -6.5,-1.06112 c -1.7875,-0.22182 -3.25,-0.74687 -3.25,-1.16677 0,-1.01982 5.875144,-0.12087 6.571257,1.00547 0.300727,0.48658 0.407719,0.81268 0.23776,0.72466 -0.169959,-0.088 -1.771517,-0.34153 -3.559017,-0.56336 z m -5.25,-5.0758 c 0,-0.43956 1.6875,-0.63194 3.75,-0.42752 5.805454,0.57539 6.228429,1.06087 1,1.14777 -2.6125,0.0434 -4.75,-0.28069 -4.75,-0.72025 z m 5.5,-2.75299 -5,-1.3602 5,0.53846 c 2.75,0.29616 5.4275,0.95144 5.95,1.4562 1.212543,1.17136 0.349962,1.07938 -5.95,-0.63446 z m -2.5,-4.49442 c -1.926141,-0.6803 -1.467053,-0.78548 2,-0.45821 4.150775,0.39181 4.286585,0.33529 1.75,-0.72824 -3.748161,-1.57153 -3.498641,-2.92388 0.295444,-1.60125 1.674995,0.5839 2.877247,1.57299 2.671672,2.19798 -0.478193,1.45379 -3.515637,1.72046 -6.717116,0.58972 z m 7.5,-5.95339 c -0.339919,-0.55 -0.141476,-1 0.440983,-1 0.582459,0 1.059017,0.45 1.059017,1 0,0.55 -0.198442,1 -0.440983,1 -0.242541,0 -0.719098,-0.45 -1.059017,-1 z m -9.963391,-2.94077 c -0.34668,-0.56094 0.941653,-0.70566 3.190983,-0.35845 5.021592,0.77513 5.424212,1.29922 0.998092,1.29922 -1.984208,0 -3.869291,-0.42334 -4.189075,-0.94077 z m 4.463391,-4.00302 4.5,-0.64341 -4.5,-1.09931 c -2.475,-0.60462 -3.652209,-1.1475 -2.61602,-1.2064 1.03619,-0.0589 3.678091,0.43044 5.870892,1.08742 3.234325,0.96902 3.633754,1.33329 2.11602,1.92971 -1.028991,0.40437 -3.670892,0.69925 -5.870892,0.6553 l -4,-0.0799 4.5,-0.6434 z m -6.655148,-7.7344 c 0.718446,-0.71844 10.799573,-0.51072 11.548248,0.23796 0.242128,0.24213 -2.409767,0.44023 -5.8931,0.44023 -3.483333,0 -6.02815,-0.30518 -5.655148,-0.67819 z m -0.344852,-3.07902 c 0,-0.41646 2.1375,-0.6195 4.75,-0.4512 7.598979,0.48954 8.254644,0.96704 1.5,1.09241 -3.4375,0.0638 -6.25,-0.22474 -6.25,-0.64121 z m 2.104816,-5.32766 c -3.974431,-1.58981 -1.729124,-2.0326 2.482494,-0.48957 2.195241,0.80428 3.034804,1.43662 1.91269,1.44059 -1.1,0.004 -3.077833,-0.42407 -4.395184,-0.95102 z m 1.12964,-5.40593 c 0.403952,-0.44629 -0.04605,-1.39606 -1,-2.11059 -1.568812,-1.17507 -1.519577,-1.245 0.515544,-0.73224 2.496289,0.62895 2.907898,1.83699 1,2.93494 -0.6875,0.39564 -0.919495,0.35419 -0.515544,-0.0921 z m 5.111919,-1.64323 c 1.323261,-0.76916 2.159055,-0.76054 2.95,0.0304 0.804833,0.80483 0.304951,1.09539 -1.846375,1.07321 -2.586113,-0.0267 -2.722247,-0.16279 -1.103625,-1.10362 z m 0.153625,-6.86597 -4,-0.71619 4.75,-0.1419 c 2.6125,-0.078 4.75,0.30809 4.75,0.85809 0,0.55 -0.3375,0.93614 -0.75,0.85809 -0.4125,-0.078 -2.55,-0.46419 -4.75,-0.85809 z m 5,-4 c -0.339919,-0.55 -0.141476,-1 0.440983,-1 0.582459,0 1.059017,0.45 1.059017,1 0,0.55 -0.198442,1 -0.440983,1 -0.242541,0 -0.719098,-0.45 -1.059017,-1 z m 2.3125,-2.68311 c 0.721875,-0.28887 1.584375,-0.25335 1.916667,0.0789 0.332291,0.3323 -0.258334,0.56864 -1.3125,0.52522 -1.164943,-0.048 -1.4019,-0.28494 -0.604167,-0.60416 z m -11.997854,-1.18117 c 1.217352,-0.77196 6.185354,-0.38574 6.185354,0.48086 0,0.21088 -1.6875,0.37653 -3.75,0.36811 -2.390367,-0.01 -3.27335,-0.31757 -2.435354,-0.84897 z m 2.435354,-3.39789 c -2.3375,-0.5621 -4.25,-1.39692 -4.25,-1.85516 0,-0.45824 1.154295,-0.39431 2.5651,0.14208 1.410804,0.53639 3.912362,0.97525 5.559017,0.97525 1.741301,0 2.73534,0.41839 2.375883,1 -0.693147,1.12154 -0.454074,1.13156 -6.25,-0.26217 z m 6.5625,-6.42094 c 0.721875,-0.28887 1.584375,-0.25335 1.916667,0.0789 0.332291,0.3323 -0.258334,0.56864 -1.3125,0.52522 -1.164943,-0.048 -1.4019,-0.28494 -0.604167,-0.60416 z m -8.54875,-1.03447 c 1.520062,-0.22986 3.770062,-0.22371 5,0.0136 1.229937,0.23736 -0.01375,0.42542 -2.76375,0.41792 -2.75,-0.008 -3.756313,-0.20172 -2.23625,-0.43157 z m 11.54875,-1.96553 c 0.721875,-0.28887 1.584375,-0.25335 1.916667,0.0789 0.332291,0.3323 -0.258334,0.56864 -1.3125,0.52522 -1.164943,-0.048 -1.4019,-0.28494 -0.604167,-0.60416 z m -7.5625,-1.00622 c 0.9625,-0.25152 2.5375,-0.25152 3.5,0 0.9625,0.25153 0.175,0.45733 -1.75,0.45733 -1.925,0 -2.7125,-0.2058 -1.75,-0.45733 z m -8.685239,-1.20589 c -0.603477,-0.97644 2.393208,-2.48014 3.245034,-1.62832 0.287946,0.28795 -0.113962,0.5684 -0.893128,0.62322 -0.779167,0.0548 -0.291667,0.45997 1.083333,0.90032 l 2.5,0.80064 -2.690983,0.0997 c -1.480041,0.0548 -2.939956,-0.30317 -3.244256,-0.79554 z m 9.247739,-0.78789 c 0.721875,-0.28887 1.584375,-0.25335 1.916667,0.0789 0.332291,0.3323 -0.258334,0.56864 -1.3125,0.52522 -1.164943,-0.048 -1.4019,-0.28494 -0.604167,-0.60416 z m -7.571718,-4.877827 c 0.40743,-0.41468 3.33243,-0.94574 6.5,-1.18015 3.16757,-0.23441 5.534218,-0.21989 5.259218,0.0323 -0.870866,0.79849 -12.534598,1.93706 -11.759218,1.1479 z M 158.36143,195.35169 c -0.27741,-0.6875 -0.50439,-0.125 -0.50439,1.25 0,1.375 0.22698,1.9375 0.50439,1.25 0.27741,-0.6875 0.27741,-1.8125 0,-2.5 z m 17.52631,-6.9788 c 8.67405,-3.97111 13.71043,-11.59198 18.37429,-27.80328 2.41638,-8.39917 2.68985,-10.94044 2.62801,-24.42131 -0.0756,-16.47353 -1.49175,-23.19515 -6.94541,-32.96486 -3.87921,-6.949217 -6.7716,-8.806197 -13.58949,-8.724757 -8.19488,0.0979 -12.67109,2.76007 -17.2134,10.237517 -4.76088,7.83725 -5.59098,15.15667 -4.29888,37.90549 0.51544,9.075 0.64187,23.31098 0.28095,31.63552 -0.61099,14.09216 -0.52761,15.21479 1.20956,16.28562 2.93447,1.80888 13.42702,0.65525 19.55437,-2.14994 z m 23.49452,-60.9587 c -0.31922,-0.79773 -0.55618,-0.56078 -0.60416,0.60417 -0.0434,1.05416 0.19292,1.64479 0.52522,1.3125 0.33229,-0.3323 0.36781,-1.1948 0.0789,-1.91667 z M 158.36143,99.351693 c -0.27741,-0.6875 -0.50439,-0.125 -0.50439,1.249997 0,1.375 0.22698,1.9375 0.50439,1.25 0.27741,-0.6875 0.27741,-1.8125 0,-2.499997 z m 3.05205,-6.765582 c 0.56316,-2.153546 2.28567,-3.755135 2.28567,-2.12522 0,1.705506 -1.18411,4.140802 -2.01337,4.140802 -0.43966,0 -0.5622,-0.90701 -0.2723,-2.015582 z M 37.962902,85.884114 c 1.520062,-0.229855 3.770062,-0.223712 5,0.01365 1.229937,0.237362 -0.01375,0.425424 -2.76375,0.417917 -2.75,-0.0075 -3.756313,-0.201713 -2.23625,-0.431567 z m -6.26375,-2.251034 c 0,-0.532739 0.675,-0.709594 1.5,-0.393011 0.825,0.316582 1.5,0.752459 1.5,0.968615 0,0.216156 -0.675,0.393011 -1.5,0.393011 -0.825,0 -1.5,-0.435877 -1.5,-0.968615 z m 5.8125,-0.714499 c 0.721875,-0.288871 1.584375,-0.253344 1.916667,0.07895 0.332291,0.332292 -0.258334,0.568641 -1.3125,0.52522 -1.164943,-0.04798 -1.4019,-0.284941 -0.604167,-0.60417 z m 5.456532,-0.0099 c 0.972967,-0.253543 2.322967,-0.236869 3,0.03705 0.677032,0.27395 -0.119032,0.481395 -1.769032,0.461015 -1.65,-0.02038 -2.203936,-0.244498 -1.230968,-0.498042 z m -6.486405,-3.553512 c 1.384381,-0.660004 2.642309,-0.727244 3.196654,-0.17087 0.553684,0.555711 -0.34621,0.984736 -2.282627,1.088242 -2.9986,0.160283 -3.05523,0.103446 -0.914027,-0.917372 z m 1.217373,-1.817367 c -2.733436,-0.525464 -2.952454,-0.70501 -1,-0.819779 1.999222,-0.117517 2.199533,-0.34113 1,-1.116328 -1.772293,-1.145344 -2.036634,-1.062336 5.363753,-1.684307 3.694926,-0.310542 5.639788,-0.130439 5.258228,0.486938 -0.333039,0.538868 -2.138768,0.773138 -4.012731,0.520598 -1.948507,-0.262585 -3.707478,0.02669 -4.108579,0.675686 -0.402227,0.650816 -0.125427,1.055787 0.648977,0.949484 2.445015,-0.33563 4.195853,0.03943 3.488074,0.747212 -0.965183,0.965183 -2.566188,1.02319 -6.637722,0.240496 z M 34.151665,71.67853 c 0.546272,-0.883886 7.449149,-0.508507 8.41528,0.457625 0.256047,0.256047 -1.661017,0.46554 -4.260143,0.46554 -2.633599,0 -4.4731,-0.40869 -4.155137,-0.923165 z m 4.797487,-1.870708 c -1.7875,-0.183064 -3.25,-0.759651 -3.25,-1.281303 0,-0.781075 7.740985,-0.260971 8.793128,0.590796 0.71893,0.582012 -2.58446,0.993515 -5.543128,0.690507 z m -5.606866,-4.974531 c -0.261195,-0.422622 1.287248,-0.600356 3.440983,-0.394965 2.153736,0.205392 3.915883,0.551174 3.915883,0.768404 0,0.744847 -6.881616,0.395531 -7.356866,-0.373439 z m 3.356866,-5.999836 c 0,-0.44349 1.438924,-0.915987 3.197608,-1.049994 3.703457,-0.282194 3.50499,0.248376 -0.447608,1.19661 -1.5125,0.36285 -2.75,0.296873 -2.75,-0.146616 z m -4.916667,-2.592862 c 0.229167,-0.198606 3.116667,-0.612184 6.416667,-0.919063 3.727349,-0.346619 5.053062,-0.247599 3.5,0.261422 -2.469451,0.80937 -10.723341,1.356741 -9.916667,0.657641 z m 5.166667,-5.328224 c 0.9625,-0.251527 2.5375,-0.251527 3.5,0 0.9625,0.251528 0.175,0.457323 -1.75,0.457323 -1.925,0 -2.7125,-0.205795 -1.75,-0.457323 z m -6.25,-1.310674 c 0,-0.55 0.648442,-1 1.440983,-1 0.792541,0 1.719098,0.45 2.059017,1 0.339919,0.55 -0.308524,1 -1.440983,1 -1.132459,0 -2.059017,-0.45 -2.059017,-1 z m 5.75,-0.662281 c 0.6875,-0.277412 1.8125,-0.277412 2.5,0 0.6875,0.277413 0.125,0.504386 -1.25,0.504386 -1.375,0 -1.9375,-0.226973 -1.25,-0.504386 z m 5.519032,-1.03071 c 0.972967,-0.253543 2.322967,-0.236869 3,0.03705 0.677032,0.273927 -0.119032,0.481372 -1.769032,0.460992 -1.65,-0.02038 -2.203936,-0.244498 -1.230968,-0.498042 z M 149.1142,43.307651 c -3.3104,-3.502531 -5.75284,-7.704518 -4.93322,-8.487164 0.414,-0.395336 1.26246,0.128992 1.88545,1.165172 0.623,1.036181 2.18343,3.171551 3.46763,4.745267 2.84611,3.487742 2.49246,5.658073 -0.41986,2.576725 z M 121.69915,26.964558 c -5.86687,-2.604297 -8.86095,-3.332904 -13.75,-3.346054 -3.96447,-0.01066 -6.25,-0.429479 -6.25,-1.145294 0,-0.78333 2.3704,-0.977648 7.75,-0.635323 6.2218,0.395917 9.19832,1.198009 15.09487,4.067663 5.32517,2.591578 7.9375,3.358669 9.5,2.789606 1.90935,-0.695383 8.65513,0.354384 8.65513,1.346896 0,0.210745 -3.0375,0.353602 -6.75,0.317461 -5.38745,-0.05245 -8.26395,-0.73775 -14.25,-3.394955 z"
     id="path30002"
     inkscape:connector-curvature="0"
     sodipodi:nodetypes="cscsssssssssssssssssssssssssssscccccsssssssssssssssscscsssssssssssscsssssscsscsscssssscssssssssssssssssscssscssssscssscsccsssssssscsssccssssscssssccsscsssssscssssssssssscccsscsccsssscssssscsssssscssssssssssssscsscsssssssssssscssssscssccsccsscsssssccccccccsscccccccsssscssscscscssccsssssssssssssssssssssssscccccssssscsssssssssssssssssssssssscsssscsscssscccccssssssscsssssscssssssssssssssssssccsssssccccsscsssssscscssscccscccsccscsssssscccccsscssssssscccccccccccccccsssscscsccccccccccscccsssssssssssssscccccsssssssssssssssssssssccsccsssssssssssssssssssssssssssssssssssssssssssssssssssscssssssssssss" />
  <path
     style="fill:#ffffff;stroke:none;stroke-width:1px;stroke-linecap:butt;stroke-linejoin:miter;stroke-opacity:1;fill-opacity:0.66666669;filter:url(#filter30675)"
     d="M 34.472458,48.78178 76.75,43.57839 79.351695,282.2839 43.57839,280.33263 37.074153,48.78178"
     id="path30673"
     inkscape:connector-curvature="0" />
  <path
     style="fill:#fffb08;stroke:none;stroke-width:1px;stroke-linecap:butt;stroke-linejoin:miter;stroke-opacity:1;fill-opacity:0.07575758"
     d="m 19.776518,88.538461 -0.919838,-38.633199 9.198381,-9.658299 9.658299,-3.679352 11.038057,-9.198381 43.232389,-6.898785 24.835624,2.759514 15.63725,8.278542 8.73846,-1.379757 11.03806,16.557085 0.45992,39.093118 -63.928747,10.578137 z"
     id="path30679"
     inkscape:connector-curvature="0" />
</svg>
