<?xml version="1.0" encoding="UTF-8" standalone="no"?>
<!-- Created with Inkscape (http://www.inkscape.org/) -->

<svg
   xmlns:dc="http://purl.org/dc/elements/1.1/"
   xmlns:cc="http://creativecommons.org/ns#"
   xmlns:rdf="http://www.w3.org/1999/02/22-rdf-syntax-ns#"
   xmlns:svg="http://www.w3.org/2000/svg"
   xmlns="http://www.w3.org/2000/svg"
   xmlns:sodipodi="http://sodipodi.sourceforge.net/DTD/sodipodi-0.dtd"
   xmlns:inkscape="http://www.inkscape.org/namespaces/inkscape"
   id="svg3894"
   version="1.1"
   inkscape:version="0.48.4 r9939"
   width="433"
   height="176"
   sodipodi:docname="Book.png">
  <metadata
     id="metadata3900">
    <rdf:RDF>
      <cc:Work
         rdf:about="">
        <dc:format>image/svg+xml</dc:format>
        <dc:type
           rdf:resource="http://purl.org/dc/dcmitype/StillImage" />
        <dc:title></dc:title>
      </cc:Work>
    </rdf:RDF>
  </metadata>
  <defs
     id="defs3898" />
  <sodipodi:namedview
     pagecolor="#ffffff"
     bordercolor="#666666"
     borderopacity="1"
     objecttolerance="10"
     gridtolerance="10"
     guidetolerance="10"
     inkscape:pageopacity="0"
     inkscape:pageshadow="2"
     inkscape:window-width="1254"
     inkscape:window-height="751"
     id="namedview3896"
     showgrid="false"
     inkscape:zoom="3.0946882"
     inkscape:cx="213.17353"
     inkscape:cy="71.288873"
     inkscape:window-x="0"
     inkscape:window-y="22"
     inkscape:window-maximized="0"
     inkscape:current-layer="svg3894" />
  <path
     style="fill:#0ab076;fill-opacity:1;stroke:none"
     d="m 1.8279238,128.017 c 50.6676092,-0.43686 101.1251762,0.59655 151.4891862,2.2849 10.44326,0.19871 18.33903,3.70189 26.50489,6.85472 17.99819,-0.055 38.37372,1.56808 51.63885,-1.82792 l 13.25245,-7.08321 c 56.92118,0.0512 114.15054,-4.52029 171.36786,-8.91113 l -1.37095,-3.65585 c -17.23858,0.0815 -34.48635,0.35071 -51.97698,1.80399 -16.21436,1.34724 -32.76233,0.70797 -48.89273,1.46812 -18.1329,0.85452 -35.73887,3.92398 -53.36136,4.26808 l -21.70659,-0.45698 -13.25245,9.36811 c -15.88322,1.02012 -31.08383,-0.34889 -46.38357,-1.37094 l -12.33848,-6.16925 c -53.13818,-3.23369 -108.023917,-3.92547 -164.5131452,-2.2849 -4.2337594,2.07415 -3.5127724,3.94184 -0.456981,5.71226 z"
     id="path3906"
     inkscape:connector-curvature="0"
     sodipodi:nodetypes="cccccccssccccccc" />
  <path
     style="fill:#ccb740;fill-opacity:0.46391751;stroke:none"
     d="M 7.7686761,121.16229 25.133952,104.36824 C 27.058035,98.473541 33.656577,96.668999 37.929419,92.829467 48.697,83.652944 57.708987,73.818074 75.401857,67.238534 132.47696,64.784608 163.58405,86.823023 191.13229,104.13975 183.11847,86.456463 169.79369,81.519471 159.02937,70.437401 L 122.92788,52.615144 88.654304,47.588353 111.96033,33.421944 82.256571,25.196287 c 26.086289,-5.549006 51.440999,-24.78899578 79.514689,6.854714 19.97794,15.157712 30.86187,35.019228 42.27073,54.609223 14.33406,-37.73343 63.03706,-48.931093 80.20016,-54.609223 19.79877,2.754978 37.99324,11.124982 56.66564,17.822257 -1.52403,2.558789 -9.74893,2.437231 -14.62339,3.655847 8.30948,3.360656 16.48933,4.655571 22.62056,10.739053 -12.38712,1.259911 -25.73748,1.07497 -35.87301,5.712262 26.7069,7.358042 56.7876,10.967427 78.60072,23.763009 l -4.11282,3.198867 c 4.76077,2.299466 10.83246,3.025844 12.79546,8.682634 3.77871,2.72465 9.05776,2.44862 11.19603,8.45415 -34.80671,1.61106 -69.61343,4.36014 -104.42014,4.34132 -22.17304,2.79868 -44.50598,6.55674 -65.80526,4.11283 l -14.16641,8.22566 C 214.96206,114.43334 196.84251,120.14161 177.76559,129.38794 155.52362,115.43977 65.015247,123.71506 7.7686761,121.16229 z"
     id="path4416"
     inkscape:connector-curvature="0"
     sodipodi:nodetypes="cccccccccccccccccccccccccc" />
  <path
     style="fill:#000000"
     d="m -0.75927383,127.2812 c -2.18560587,-2.15387 -0.89479287,-4.57619 2.91141113,-5.46348 5.8635257,-1.36689 54.6863157,-2.04499 92.3184357,-1.28219 5.25984,0.10661 14.779087,0.2543 21.153887,0.32818 19.62059,0.22741 28.29555,0.53752 38.67431,1.38252 5.49046,0.44702 13.69307,1.08288 18.22803,1.41304 5.4407,0.3961 8.19643,0.95481 8.10148,1.64256 -0.0812,0.58809 -2.41439,0.75982 -5.35421,0.39407 l -5.21031,-0.64817 3.48406,1.85558 c 3.41692,1.81981 3.62329,1.78936 10.70796,-1.58021 3.97313,-1.88968 9.19683,-3.95005 11.60821,-4.57859 4.36525,-1.13785 4.37984,-1.15606 3.35601,-4.18911 -1.42173,-4.21191 -7.62321,-10.03278 -18.51771,-17.381271 C 166.1042,89.32752 155.90815,83.657253 143.86507,78.688074 133.72937,74.505909 130.83749,73.772997 112.93923,70.850286 85.795894,66.417893 78.426246,66.724976 65.999773,72.806192 57.237749,77.094114 44.845131,86.317872 40.696019,91.639639 l -2.111387,2.708116 9.032739,-1.657526 c 9.647717,-1.770379 38.232714,-3.780786 52.902909,-3.720695 10.88243,0.04457 40.19297,4.911713 54.10388,8.984182 8.41306,2.462954 26.43136,9.441504 39.52767,15.309204 4.14373,1.85656 5.24688,3.5787 2.00577,3.13123 -0.99969,-0.13802 -4.33562,-1.47545 -7.41319,-2.97207 -25.1615,-12.23605 -64.11768,-22.176831 -87.3542,-22.290919 -37.694821,-0.185075 -74.289139,5.541851 -75.147682,11.760449 -0.252619,1.82976 -4.087583,6.13969 -10.509528,11.81115 -6.1767963,5.45495 -4.575418,2.03809 1.928817,-4.11552 3.474872,-3.28755 6.726268,-6.99054 7.225324,-8.22886 0.499057,-1.23833 3.368477,-3.805989 6.376491,-5.705915 3.008014,-1.899926 7.63846,-5.727293 10.28988,-8.505248 8.806578,-9.22687 25.494796,-19.554368 34.247077,-21.193785 6.051337,-1.133495 17.113397,-0.805372 31.477281,0.93368 14.75545,1.786457 26.639,4.783357 39.35723,9.925455 11.65106,4.710626 35.28732,18.420144 42.68372,24.757413 1.48946,1.27619 -0.77896,-2.0353 -5.04094,-7.358861 -4.26198,-5.323558 -8.78435,-10.406233 -10.04971,-11.294833 -1.26536,-0.8886 -3.50527,-2.761441 -4.97758,-4.161868 -3.25332,-3.094498 -13.98349,-9.715462 -24.18621,-14.923909 -4.1493,-2.118199 -10.71926,-5.531154 -14.59993,-7.584343 -6.50048,-3.439291 -8.26323,-3.906101 -22.39922,-5.931753 -8.438907,-1.209277 -16.843276,-2.028949 -18.676371,-1.821501 -5.125519,0.580049 -3.849553,-1.040721 4.246806,-5.394421 8.989005,-4.833706 14.571365,-8.434955 14.717655,-9.49453 0.14009,-1.014701 -10.737166,-4.443572 -21.936281,-6.915039 L 77.772601,25.78123 89.719773,21.643753 c 22.678107,-7.853755 35.185747,-9.707442 47.361837,-7.01923 16.88803,3.7285 44.98068,31.188593 60.43869,59.077769 l 6.32289,11.407693 1.29672,-4.040059 c 3.47446,-10.824913 14.21217,-20.879803 34.32492,-32.142169 14.32503,-8.021453 21.18433,-11.034422 34.56253,-15.181656 7.61733,-2.361371 9.93116,-2.640809 15.39904,-1.859731 7.44971,1.064177 17.90901,4.169801 28.12224,8.350174 6.84559,2.801965 17.39224,6.57824 25.31253,9.063264 3.7869,1.188155 4.27871,3.57853 0.66337,3.22416 -2.57958,-0.252846 -8.48014,0.300738 -11.67172,1.095026 -2.29312,0.570687 -1.68044,0.950388 4.99765,3.097251 8.37828,2.693439 14.21745,6.016718 13.41721,7.636204 -0.28396,0.57466 -4.59732,1.252551 -9.58525,1.506426 -8.16248,0.415453 -28.19785,3.744273 -25.72051,4.273389 0.55347,0.118214 4.50255,1.12744 8.77574,2.242733 4.2732,1.115294 12.41288,2.943188 18.0882,4.061987 19.87135,3.917324 40.23403,10.361521 48.09439,15.22048 4.06173,2.510801 5.07001,4.73811 1.95395,4.316335 -5.56354,-0.753056 -35.88418,-2.748887 -42.26665,-2.782165 -22.78701,-0.118812 -45.65492,2.081603 -71.10382,6.841816 -14.24837,2.66515 -29.44091,5.77113 -33.76119,6.90219 -4.32028,1.13104 -10.90795,2.78184 -14.63927,3.66844 -3.73131,0.8866 -7.50713,1.91277 -8.39071,2.28036 -0.88357,0.3676 -4.09508,1.69074 -7.13668,2.94032 -3.04158,1.24959 -5.83793,2.64428 -6.21409,3.09934 -1.40969,1.70535 8.81915,0.99636 12.56301,-0.87078 5.12916,-2.558 13.55729,-5.45883 15.14544,-5.21281 0.69756,0.10801 -1.59678,1.20656 -5.09853,2.44112 -9.30513,3.28057 -12.8036,5.25665 -11.38398,6.43015 0.6958,0.57517 2.36558,0.33729 4.13929,-0.58969 3.74515,-1.9573 11.59959,-4.31652 13.56243,-4.07371 0.81884,0.10134 -1.36066,1.08128 -4.84334,2.17774 -3.48268,1.09647 -6.99647,2.60305 -7.80842,3.34796 -1.25384,1.15032 -1.00625,1.72694 1.64317,3.82698 l 3.11943,2.47259 3.2294,-2.56037 c 6.45371,-5.11673 9.58685,-5.85308 18.88935,-4.43933 4.676,0.71068 10.15057,1.10545 12.16572,0.87736 2.01514,-0.22809 7.33697,-0.69661 11.82627,-1.04116 4.48931,-0.34455 13.72129,-1.40651 20.51552,-2.35989 6.79423,-0.95339 18.71331,-1.73639 26.48684,-1.74 16.2762,-0.008 24.88853,-0.38304 40.62395,-1.77117 6.18269,-0.54542 18.73144,-1.11497 27.88613,-1.26568 9.15468,-0.15071 17.10748,-0.62438 17.67289,-1.0526 1.66912,-1.26416 0.37848,-2.74122 -3.96373,-4.53627 -4.8649,-2.01113 -6.1402,-3.03069 -6.30653,-5.04192 -0.16609,-2.00831 -4.64653,-4.682 -8.80884,-5.256651 -1.84435,-0.254634 -3.29184,-0.908743 -3.21662,-1.453575 0.36732,-2.660554 13.26711,3.051966 13.62221,6.032446 0.24723,2.07503 3.85751,4.4567 7.52283,4.96274 1.35818,0.18751 2.82192,1.42178 3.57885,3.01781 0.70442,1.48529 2.14635,2.82004 3.20428,2.9661 1.05794,0.14606 2.19535,1.09806 2.52758,2.11556 1.41484,4.3331 0.50685,4.67614 -12.54724,4.74041 -6.94493,0.0342 -17.93757,0.68749 -24.42808,1.45177 -6.49051,0.76427 -15.84578,1.52669 -20.78948,1.69425 -4.9437,0.16754 -12.95936,0.64532 -17.81257,1.0617 -10.35746,0.88864 -30.09436,2.26944 -40.91348,2.86233 -4.19587,0.22993 -12.21008,0.69724 -17.80936,1.03847 -5.59928,0.34122 -16.24935,0.29338 -23.66682,-0.10631 -13.44634,-0.72455 -13.50063,-0.71761 -18.31074,2.34153 -2.65344,1.68754 -5.90376,3.70794 -7.22293,4.48978 -2.7594,1.63543 -15.98169,2.62655 -34.8666,2.61353 -16.04092,-0.0111 -17.93394,-0.2756 -28.22578,-3.94432 -8.93421,-3.18479 -13.10885,-3.54811 -49.37624,-4.29726 -8.85821,-0.18297 -21.967688,-0.64878 -29.132168,-1.03513 -7.164481,-0.38635 -18.714503,-0.63133 -25.666718,-0.54439 -6.952213,0.0869 -16.723613,0.12045 -21.71422,0.0745 -4.990608,-0.046 -13.866527,0.0821 -19.724266,0.28466 -17.2041729,0.59481 -23.4497713,0.15941 -25.40897456,-1.77134 z m 24.12295283,0.1184 c 20.460774,-0.76564 63.69297,-0.71168 77.716981,0.097 15.56144,0.89735 35.97796,1.21625 40.3808,0.63075 1.90265,-0.25301 4.35736,-0.0878 5.4549,0.36717 1.09754,0.45497 3.13685,0.40511 4.53178,-0.11069 1.85392,-0.68557 4.85453,-0.41854 11.15335,0.99258 11.96965,2.68156 12.06393,2.71196 16.23668,5.23555 3.13523,1.89612 4.53691,2.18878 8.83081,1.84383 2.80722,-0.22553 9.26767,-0.27675 14.35655,-0.11384 5.08889,0.16291 13.62669,0.0464 18.97289,-0.25895 8.69549,-0.49662 10.3309,-0.93699 15.51086,-4.17661 3.18478,-1.99181 6.5563,-4.05784 7.49229,-4.59118 0.93598,-0.53334 7.54713,-0.63853 14.69145,-0.23374 7.14433,0.40479 16.63628,0.57521 21.09324,0.37871 15.04593,-0.66332 49.06661,-2.90709 62.12261,-4.09719 4.49835,-0.41004 11.36713,-0.80662 15.26396,-0.88129 3.89682,-0.0747 13.3107,-0.80894 20.91972,-1.63168 7.60902,-0.82275 18.97129,-1.56952 25.24948,-1.65948 7.26328,-0.10408 11.33285,-0.58092 11.18928,-1.31106 -0.12412,-0.63112 -1.52605,-1.28642 -3.11541,-1.45622 -6.4228,-0.68616 -39.21298,0.27325 -53.11647,1.55414 -8.15436,0.75124 -19.13422,1.312 -24.39969,1.24613 -16.94447,-0.21199 -28.63071,0.30099 -36.56305,1.60496 -19.24505,3.16362 -31.33783,4.00523 -43.829,3.05031 -11.83357,-0.90464 -12.19432,-0.83325 -18.85516,3.73165 -3.27002,2.24105 -6.94871,4.43849 -8.17487,4.88323 -2.45871,0.89179 -31.85838,0.8443 -38.44589,-0.0621 -2.28352,-0.31425 -4.50262,-0.14695 -4.93133,0.37167 -0.85268,1.03151 -1.31899,0.86595 -12.66758,-4.4976 -7.58032,-3.5826 -8.05769,-3.68277 -20.6023,-4.32343 -17.51569,-0.89453 -51.518991,-1.53331 -72.304826,-1.35828 -9.449675,0.0796 -20.114813,0.006 -23.700309,-0.16369 -3.585496,-0.16959 -12.208097,-0.23115 -19.161335,-0.1368 -6.953237,0.0943 -15.827883,0.21321 -19.721432,0.26414 -10.1263558,0.13245 -14.76697148,0.9375 -14.99671634,2.60159 -0.29720344,2.1527 6.87312964,2.8295 23.41773734,2.2104 z m 165.523401,0.13171 c 1.55073,-2.1979 1.64773,-2.66916 0.494,-2.39998 -1.74905,0.40808 -4.71669,4.81834 -3.36757,5.0046 0.51916,0.0717 1.81226,-1.1004 2.87357,-2.60462 z m 3.94761,0.56803 c 1.05316,-1.49268 1.98698,-3.23646 2.07515,-3.87505 0.27857,-2.01776 -2.83519,0.50405 -4.39897,3.56269 -1.85673,3.6316 -0.17734,3.85733 2.32377,0.31274 z m 5.0262,-0.65182 c 1.21346,-2.2107 2.2504,-4.33888 2.3043,-4.72929 0.16456,-1.19191 -1.62728,-1.02932 -2.35352,0.21356 -0.37526,0.64221 -1.62819,2.74058 -2.7843,4.66303 -1.72394,2.86666 -1.85657,3.52925 -0.73741,3.68376 0.75055,0.10362 2.35746,-1.62035 3.57093,-3.83106 z m 3.96369,1.08572 c 0.56421,-1.44895 1.40074,-3.49123 1.85896,-4.5384 1.34309,-3.06937 -1.2527,-0.7017 -3.60468,3.2879 -1.73049,2.93539 -1.83899,3.53168 -0.67192,3.69281 0.7655,0.10568 1.85344,-0.99335 2.41764,-2.44231 z m 14.78886,2.79057 c 0.67436,0.006 1.745,-6.81489 2.39196,-6.79309 1.63955,0.0553 0.23112,3.94337 0.83509,5.71803 0.63688,1.87134 1.07235,-2.84222 2.86736,-3.18466 0.86557,-0.16512 -0.49311,4.29519 2.97175,3.54704 1.5745,-0.33997 -3.77357,-5.25335 -8.69422,-7.35884 -2.73787,-1.17151 -10.50927,-1.93943 -10.70193,-1.0575 -0.0164,0.0748 -0.97208,2.18109 -2.12387,4.68073 l -2.09418,4.54482 c 0.87056,0.21054 1.47927,0.7484 3.15798,-0.0512 l 3.89437,-9.32057 c 1.29575,-0.0325 -2.19722,6.27432 -0.0512,8.97262 0.26345,0.33125 3.25201,-8.10456 4.04579,-8.59947 1.94326,-1.2116 -0.28704,5.07725 -1.13194,8.0153 -0.13755,0.47833 1.47738,0.75691 2.35044,-0.71853 1.30646,-2.20787 1.27309,-8.87557 2.44416,-6.06915 z m -13.48279,-18.76202 c 0.25374,-22.702039 -0.0338,-24.249242 -6.884,-37.039511 C 184.47299,53.539204 160.52573,27.721251 144.00449,19.199123 133.31116,13.683198 118.98121,14.37705 96.53474,21.497592 l -10.557218,3.348996 5.84026,1.569253 c 30.025218,8.067647 51.499058,19.451732 65.290378,34.612858 2.31306,2.542809 11.32427,12.76083 20.0249,22.706712 11.60063,13.260928 16.54128,18.219759 18.5265,18.594649 2.33055,0.44011 2.38782,0.52814 0.41164,0.63276 -2.15338,0.114 -2.02939,0.52894 2.00238,6.70063 2.36386,3.61851 4.45922,6.60137 4.65637,6.62859 0.19714,0.0272 0.37746,-1.65139 0.4007,-3.73025 z m -3.82848,-8.76267 c -0.23712,-0.53618 0.42882,-0.61839 1.47987,-0.18269 2.22954,0.92421 2.42899,1.63769 0.37869,1.35463 -0.78509,-0.10839 -1.62144,-0.63577 -1.85856,-1.17194 z m 33.68357,-7.557591 c 16.6208,-11.00554 42.58597,-26.665393 51.32457,-30.95436 12.38895,-6.080578 31.00462,-11.380976 47.65409,-13.568434 l 6.52931,-0.857843 -8.02096,-2.961655 c -4.41153,-1.628911 -10.38112,-3.963557 -13.26575,-5.188104 -2.88463,-1.224548 -9.16752,-3.42654 -13.96197,-4.893319 -4.79444,-1.466778 -10.26874,-3.169411 -12.16511,-3.783629 -2.18796,-0.708663 -5.31683,-0.757587 -8.56214,-0.133892 -24.97072,4.798972 -61.78387,25.530674 -71.41898,40.220325 -5.41203,8.251149 -6.13191,13.01838 -5.96098,39.475402 l 0.0229,3.53635 9.8126,-7.73063 c 5.39694,-4.25185 13.50255,-10.173944 18.01247,-13.160211 z m -6.40769,13.187051 c 4.10667,-0.97986 13.10273,-3.12032 19.99123,-4.75658 27.41979,-6.513129 61.20656,-11.867977 78.43719,-12.431466 4.46188,-0.145916 11.7685,-0.423494 16.23693,-0.616842 11.24036,-0.486366 15.90164,-0.300546 33.498,1.335387 17.36011,1.613969 17.71292,0.935696 2.57145,-4.943615 -10.07662,-3.912674 -19.30394,-6.362406 -44.41792,-11.792376 -10.4462,-2.258605 -19.43672,-4.590761 -19.97894,-5.182569 -1.05825,-1.155044 -22.39487,4.240775 -37.97775,9.604198 -25.76349,8.867454 -50.00974,21.762293 -61.35553,32.630593 -1.37714,1.31919 -0.97834,1.2777 1.89183,-0.1968 2.00026,-1.0276 6.99684,-2.67006 11.10351,-3.64993 z m 39.2017,-27.182747 c 23.03923,-8.915735 62.39747,-18.421171 75.20352,-18.162456 3.0586,0.06179 5.60752,-0.22403 5.66428,-0.63516 0.10759,-0.779274 -9.21445,-4.595886 -17.8484,-7.307463 -4.49312,-1.411109 -5.94545,-1.353769 -14.03066,0.553954 -19.7242,4.653968 -32.79837,10.640733 -58.7264,26.891269 -12.96285,8.124541 -14.05101,8.946358 -7.88897,5.958032 2.67776,-1.298599 10.60975,-4.582778 17.62663,-7.298176 z M 163.22712,70.657178 c -2.62548,-3.49591 -12.8149,-13.681512 -17.55405,-17.547474 -5.78419,-4.71846 -18.67018,-12.237294 -26.45526,-15.436356 l -6.03534,-2.480056 -9.91595,5.490398 -9.915949,5.4904 16.155109,2.825281 c 14.33828,2.507548 16.94826,3.247504 23.20791,6.579689 3.87904,2.064924 10.44561,5.502443 14.59238,7.638932 4.14677,2.136489 9.41833,5.083007 11.71457,6.547819 5.16354,3.293903 6.17129,3.507445 4.20658,0.891367 z M 35.101731,111.84166 c 0.132014,-0.9562 10.304498,-3.96798 17.214112,-5.0966 10.750637,-1.75601 10.541064,-1.00305 -0.371659,1.33531 -5.338213,1.14386 -10.864993,2.6295 -12.281731,3.30141 -2.519474,1.19488 -4.692449,1.414 -4.560722,0.45988 z m 15.844312,2.22695 c 0.272961,-1.97711 18.710384,-4.43388 33.937343,-4.52211 14.032362,-0.0813 38.605314,2.18117 37.550394,3.45733 -0.43053,0.52084 -2.12874,0.95847 -3.77381,0.9725 -1.64506,0.014 -2.71496,-0.3084 -2.37756,-0.71659 0.76779,-0.92883 1.16317,-0.88149 -14.20822,-1.70104 -20.479387,-1.0919 -37.957827,-0.13388 -49.38877,2.70708 -1.006154,0.25007 -1.788873,0.16134 -1.739382,-0.19713 z m 34.374477,-0.37646 c 3.105452,-0.3749 8.796278,-0.46522 12.646275,-0.20069 l 6.999995,0.48094 -7.607837,0.26582 c -4.184311,0.1462 -9.875135,0.23652 -12.646275,0.2007 l -5.038435,-0.0651 5.646277,-0.68164 z m 21.50338,-0.2362 c 0.99851,-0.11809 2.33354,0.0831 2.96676,0.44694 0.6332,0.36395 -0.18375,0.46057 -1.81546,0.21472 -1.63171,-0.24586 -2.14979,-0.54362 -1.15129,-0.66171 z m 59.34848,6.8743 c -3.29719,-0.98905 -1.75741,-0.9859 6.30749,0.0129 6.55073,0.81133 10.61674,1.70383 10.53277,2.31204 -0.15166,1.0985 -9.92622,-0.25099 -16.84026,-2.32498 z M 62.212735,105.58076 c 0.02956,-0.21412 0.757831,-0.55358 1.618377,-0.75437 0.860545,-0.20077 1.505014,0.0667 1.432156,0.59446 -0.07286,0.52774 -0.801129,0.86721 -1.618377,0.75438 -0.817248,-0.11283 -1.461718,-0.38035 -1.432156,-0.59447 z m 5.772278,-0.72081 c 7.575155,-2.18835 55.742027,-2.39192 57.369977,-0.24246 0.54963,0.72571 -1.02442,0.85778 -4.56244,0.38282 -6.45403,-0.86642 -31.768156,-1.11022 -41.787606,-0.40245 -13.744547,0.97091 -13.449253,0.96389 -11.019931,0.26209 z M 229.49042,125.396 c 0.70943,-1.28755 0.57293,-1.36884 -0.83298,-0.49614 -0.92479,0.57405 -1.62393,0.62722 -1.55365,0.11813 0.15602,-1.13007 4.83209,-3.74487 9.84546,-5.50547 3.63331,-1.27593 3.59202,-1.20895 -1.91807,3.11199 -6.06824,4.75863 -6.85153,5.15044 -5.54076,2.77149 z m -55.34146,-8.00244 c -3.21906,-0.81297 -5.16676,-1.51202 -4.32821,-1.55346 2.70893,-0.13383 13.3016,1.9189 16.73357,3.24279 3.13932,1.211 3.04471,1.24263 -1.60849,0.53774 -2.71921,-0.41196 -7.57781,-1.4141 -10.79687,-2.22707 z m 16.24785,1.73799 c -0.23501,-0.3103 -3.61545,-1.87376 -7.51208,-3.47433 -3.89663,-1.60058 -6.18656,-2.82506 -5.08871,-2.72107 2.11303,0.20017 14.77377,5.55095 15.54558,6.57001 0.24989,0.32993 -0.21433,0.50756 -1.03158,0.39473 -0.81724,-0.11283 -1.67819,-0.45903 -1.91321,-0.76934 z m 87.71698,-9.47791 c 0.38188,-0.46197 2.89273,-1.26549 5.57968,-1.78559 2.68696,-0.52011 4.40387,-0.62104 3.81537,-0.2243 -1.6786,1.13164 -10.17084,2.94839 -9.39505,2.00989 z m 12.65661,-3.41535 c 1.15431,-0.3178 2.7674,-0.48551 3.58465,-0.37268 0.9366,0.12931 0.71004,0.41876 -0.61284,0.78297 -1.15431,0.31781 -2.7674,0.48551 -3.58465,0.37268 -0.9366,-0.1293 -0.71004,-0.41875 0.61284,-0.78297 z m 25.7258,3.77239 c 0.62575,-0.51089 10.18672,-1.0805 21.2466,-1.2658 11.05989,-0.18529 23.38022,-0.5843 27.37852,-0.88668 11.55182,-0.87362 14.50262,-0.84652 13.23388,0.12158 -1.1317,0.86352 -25.17807,2.30343 -34.60862,2.07238 -2.76673,-0.0678 -7.31366,-0.037 -10.1043,0.0684 -2.79064,0.10541 -7.28813,0.18001 -9.99443,0.16577 -2.7063,-0.0142 -5.67854,0.12692 -6.60496,0.31368 -1.16788,0.23542 -1.33552,0.0547 -0.54669,-0.58934 z m 34.46752,2.60558 c 2.91168,-1.16318 16.19647,-1.8857 29.49384,-1.60409 7.20407,0.15257 14.26875,0.008 15.69933,-0.32101 1.49707,-0.34442 2.54893,-0.22097 2.47826,0.29086 -0.2141,1.55078 -6.49003,2.09098 -18.38927,1.58288 -6.34757,-0.27105 -15.37323,-0.1407 -20.05703,0.28967 -9.17815,0.84331 -11.76537,0.77648 -9.22513,-0.23831 z m -48.81856,-8.33671 c 1.74084,-0.54462 4.05559,-0.85899 5.14388,-0.69859 1.9787,0.29163 1.9787,0.29163 -0.11026,0.79861 -1.14893,0.27884 -3.46367,0.5932 -5.14388,0.6986 l -3.05491,0.19162 z m 8.53351,-1.02973 c 0.7546,-0.18743 1.60415,-0.0343 1.88787,0.34034 0.28372,0.37462 -0.33368,0.52797 -1.372,0.34078 -1.14744,-0.20685 -1.34976,-0.47399 -0.51587,-0.68112 z m 7.20776,-1.02386 c 0.75459,-0.18743 1.60414,-0.0343 1.88786,0.34034 0.28372,0.37461 -0.33368,0.52796 -1.372,0.34078 -1.14744,-0.20685 -1.34976,-0.47399 -0.51586,-0.68112 z m 6.32226,-0.55103 c 0.0682,-0.49382 1.01551,-0.77478 2.10517,-0.62434 1.08967,0.15044 1.95761,0.44443 1.92878,0.6533 -0.0288,0.20887 -0.97616,0.48982 -2.10517,0.62433 -1.129,0.13452 -1.99695,-0.15946 -1.92878,-0.65329 z m 5.97527,-0.77962 c 0.7546,-0.18743 1.60414,-0.0343 1.88787,0.34034 0.28372,0.37461 -0.33369,0.52796 -1.372,0.34078 -1.14744,-0.20685 -1.34976,-0.47399 -0.51587,-0.68112 z m 4.03442,-0.43146 c 0.71898,-0.18078 1.83341,-0.0269 2.47651,0.34191 0.6431,0.36883 0.0548,0.51674 -1.30724,0.32869 -1.36208,-0.18805 -1.88825,-0.48982 -1.16927,-0.6706 z m 5.15454,-0.31888 c 0.7546,-0.187428 1.60414,-0.0343 1.88787,0.34034 0.28372,0.37462 -0.33369,0.52797 -1.372,0.34078 -1.14744,-0.20685 -1.34976,-0.47399 -0.51587,-0.68112 z m 12.16077,-0.340042 c 0.7546,-0.187432 1.60415,-0.03428 1.88787,0.340342 0.28372,0.37461 -0.33368,0.52796 -1.372,0.34078 -1.14744,-0.20685 -1.34976,-0.47399 -0.51587,-0.681122 z m 9.2806,-0.04309 c 2.55437,-0.450424 11.79714,0.273702 10.9023,0.854142 -0.2541,0.16482 -3.39307,0.14269 -6.97549,-0.0492 -3.9084,-0.20932 -5.47894,-0.53127 -3.92681,-0.804972 z m 12.7681,0.623022 c 0.76543,-0.584231 1.60677,-0.778242 1.86966,-0.43114 0.26289,0.34711 -0.36337,0.82511 -1.39168,1.06223 -1.48603,0.34267 -1.5841,0.21318 -0.47798,-0.63109 z m 7.67672,1.18512 c -1.22885,-0.74172 -1.35497,-1.07356 -0.37025,-0.97419 0.82139,0.0829 2.10243,0.67512 2.84676,1.3161 1.64923,1.42022 0.0852,1.20428 -2.47651,-0.34191 z"
     id="path3904"
     inkscape:connector-curvature="0"
     sodipodi:nodetypes="cssssscccssssssssscssssssssssssssssssssssssssscssscsssssssssssssssssssscssscssscssscssssscsssssssssssssssssssssssssscscccssscssssssssssssscssssssscsssscsssccsscsccsccssssssssssscssssscscccssssccsssscsssssscssssscsscssssssccsccssssssssssssssssssssssscccsssssssssscscccsscccscsscccccscccssccscsssssssssscsssscscsssscssssssssssscsssssccccssccssssssscssccsscsscscscscssscsssscsscsscssccssssscss" />
</svg>
