<?xml version="1.0" encoding="UTF-8" standalone="no"?>
<!-- Created with Inkscape (http://www.inkscape.org/) -->

<svg
   xmlns:dc="http://purl.org/dc/elements/1.1/"
   xmlns:cc="http://creativecommons.org/ns#"
   xmlns:rdf="http://www.w3.org/1999/02/22-rdf-syntax-ns#"
   xmlns:svg="http://www.w3.org/2000/svg"
   xmlns="http://www.w3.org/2000/svg"
   xmlns:sodipodi="http://sodipodi.sourceforge.net/DTD/sodipodi-0.dtd"
   xmlns:inkscape="http://www.inkscape.org/namespaces/inkscape"
   id="svg11849"
   version="1.1"
   inkscape:version="0.48.4 r9939"
   width="184"
   height="462"
   sodipodi:docname="Bottle!.png">
  <metadata
     id="metadata11855">
    <rdf:RDF>
      <cc:Work
         rdf:about="">
        <dc:format>image/svg+xml</dc:format>
        <dc:type
           rdf:resource="http://purl.org/dc/dcmitype/StillImage" />
        <dc:title></dc:title>
      </cc:Work>
    </rdf:RDF>
  </metadata>
  <defs
     id="defs11853" />
  <sodipodi:namedview
     pagecolor="#ffffff"
     bordercolor="#666666"
     borderopacity="1"
     objecttolerance="10"
     gridtolerance="10"
     guidetolerance="10"
     inkscape:pageopacity="0"
     inkscape:pageshadow="2"
     inkscape:window-width="1283"
     inkscape:window-height="756"
     id="namedview11851"
     showgrid="false"
     inkscape:zoom="0.72241212"
     inkscape:cx="96.691296"
     inkscape:cy="150.66773"
     inkscape:window-x="1"
     inkscape:window-y="22"
     inkscape:window-maximized="0"
     inkscape:current-layer="svg11849" />
  <path
     style="fill:#a6a6a6;fill-opacity:1;stroke:none"
     d="m 54.079449,108.6483 5.75053,-1.34586 c 16.712667,10.60477 39.204496,11.5776 68.639301,0.97881 l 0.85646,4.77172 c -9.8019,8.95851 -24.91074,6.82069 -37.929024,9.05402 C 65.118971,121.0272 59.671737,114.8199 54.079449,108.6483 z"
     id="path11861"
     inkscape:connector-curvature="0"
     sodipodi:nodetypes="cccccc" />
  <path
     style="fill:#a6a6a6;fill-opacity:1;stroke:none"
     d="m 49.674788,104.73305 c 0.489407,-0.2447 7.463454,-14.192797 7.463454,-14.192797 1.313098,-9.733911 5.338638,-15.16341 11.134004,-15.17161 -4.382742,5.989564 -6.613347,16.761654 -8.075212,29.242057 -7.418999,5.00549 -11.57589,5.8706 -10.522246,0.12235 z"
     id="path12371"
     inkscape:connector-curvature="0"
     sodipodi:nodetypes="ccccc" />
  <path
     style="fill:#a6a6a6;fill-opacity:1;stroke:none"
     d="M 45.759534,96.902542 C 45.974623,84.8137 43.776819,76.78558 56.771187,43.190147 60.609025,40.12653 64.3899,36.849304 69.495763,38.540783 l -8.197564,9.543432 C 56.766001,63.184428 51.215479,77.993692 51.020657,94.333156 l 2.20233,9.788134 c -4.61885,1.03619 -7.086108,-1.40327 -7.463453,-7.218748 z"
     id="path12373"
     inkscape:connector-curvature="0"
     sodipodi:nodetypes="ccccccc" />
  <path
     style="fill:#a6a6a6;fill-opacity:1;stroke:none"
     d="m 114.89287,35.650565 12.28523,2.768503 12.63129,58.138559 -3.63366,8.651573 -4.49881,-3.46063 2.2494,-5.363975 c -3.30397,-20.731085 -4.63343,-46.66771 -12.63129,-55.023993 -0.064,-3.16589 -4.18901,-2.270828 -8.30551,-1.384252 0.0132,-2.533956 -0.35917,-3.420782 1.90335,-4.325785 z"
     id="path12375"
     inkscape:connector-curvature="0"
     sodipodi:nodetypes="ccccccccc" />
  <path
     style="fill:#a6a6a6;fill-opacity:1;stroke:none"
     d="m 117.8344,75.620824 c 1.95011,-0.388371 1.58929,-2.757546 6.40216,-0.692125 4.28946,7.196808 3.44077,12.027914 5.63791,19.860348 0.75447,2.689575 2.28144,5.557503 4.05185,9.035903 l 3.46063,0.51909 3.46063,-5.537005 c 2.38575,3.563335 1.46349,6.935685 -3.97972,11.420075 -4.89293,0.45178 -7.53836,-1.34393 -9.68976,-3.63366 -0.93079,-7.300515 -2.50252,-15.488487 -9.3437,-30.972626 z"
     id="path12377"
     inkscape:connector-curvature="0"
     sodipodi:nodetypes="ccscccccc" />
  <path
     style="fill:#e4ae4c;fill-opacity:1;stroke:none"
     d="m 67.048729,22.023304 c 3.271016,13.132416 5.00503,26.264831 10.766949,39.397246 10.173602,0.511838 19.861803,3.139894 31.322032,-1.957627 4.5361,-9.725797 3.396,-26.546842 4.64937,-40.376059 -12.18841,-1.847051 -29.081661,0.226594 -46.738351,2.93644 z"
     id="path12379"
     inkscape:connector-curvature="0"
     sodipodi:nodetypes="ccccc" />
  <path
     style="fill:#4cc8e4;fill-opacity:0.43564357;stroke:none"
     d="m 68.520445,47.762765 46.545455,-0.173032 2.07638,2.768503 -3.2876,3.979723 2.42244,26.127745 -5.19094,12.285232 2.07637,19.725584 c -12.95447,5.27119 -26.748734,4.04017 -36.855691,1.38425 1.139942,-12.1122 -1.256635,-24.2244 -6.575194,-36.3366 l 1.21122,-21.109834 -4.325786,-6.402163 z"
     id="path12381"
     inkscape:connector-curvature="0"
     sodipodi:nodetypes="cccccccccccc" />
  <path
     style="fill:#4cc8e4;stroke:none;stroke-width:1px;stroke-linecap:butt;stroke-linejoin:miter;stroke-opacity:1;fill-opacity:0.43564354999999999"
     d="m 67.309225,49.147016 2.249409,6.0561 45.680296,-2.076377 0,-6.575194 z"
     id="path12383"
     inkscape:connector-curvature="0" />
  <path
     style="fill:#4cc8e4;fill-opacity:0.43564357;stroke:none"
     d="m 113.05296,119.90466 c 1.56806,13.45869 2.59699,26.91737 8.56462,40.37606 l 29.60912,35.72669 c 8.05287,22.98778 6.73869,54.07368 7.11162,88.82455 0.51471,47.96156 0.47903,102.46144 -1.23874,148.29304 -8.03086,14.41212 -45.63667,11.05363 -69.985173,15.66102 -53.627359,-3.0122 -53.037174,-11.22334 -61.175848,-18.59746 1.631069,-75.36922 -12.581387,-182.42549 4.894068,-226.10594 4.323074,-6.37192 6.292425,-13.50503 11.437714,-19.37626 16.527459,-18.8593 31.976247,-41.07844 32.8536,-63.08878 12.643007,0.95106 25.286019,0.59576 37.929019,-1.71292 z"
     id="path12385"
     inkscape:connector-curvature="0"
     sodipodi:nodetypes="cccsccccscc" />
  <path
     style="fill:#000000"
     d="m 61.671377,447.94983 c -19.048946,-3.26077 -25.085734,-5.52528 -32.192339,-12.07592 -3.832335,-3.53252 -4.35843,-4.56813 -4.909945,-9.66518 C 24.229357,423.06893 23.7156,394.625 23.42741,363 c -0.288189,-31.625 -0.717874,-59.975 -0.954854,-63 -1.094234,-13.96767 -1.036536,-49.8853 0.102259,-63.6579 2.16006,-26.12378 5.397879,-34.61896 21.027844,-55.17151 20.862162,-27.4326 26.284271,-37.18841 28.847572,-51.9044 1.456323,-8.36079 1.33412,-9.26098 -1.259248,-9.27596 -2.548716,-0.0147 -11.276854,-4.33019 -14.835339,-7.33506 C 54.626248,111.19483 52.07875,110 50.694538,110 c -3.331825,0 -8.094791,-5.46237 -6.792333,-7.78973 0.500674,-0.89466 0.660731,-4.044894 0.355682,-7.000528 C 43.198004,84.940465 48.40972,58.740492 53.810828,47.185865 56.31322,41.83248 61.703831,37 65.173118,37 c 2.60791,0 2.781675,-1.028613 1.34046,-7.934936 -0.731984,-3.507676 -1.107129,-6.960678 -0.833656,-7.673338 0.273473,-0.71266 2.369866,-1.522011 4.658651,-1.798559 12.049198,-1.455872 26.135379,-2.580323 33.905107,-2.706527 11.29933,-0.183536 12.19897,0.484226 11.30444,8.390815 -0.36449,3.221675 -0.91007,6.502206 -1.2124,7.290068 C 113.93016,33.624387 114.61374,34 116.94267,34 c 1.73616,0 4.44457,0.666009 6.01869,1.48002 5.95386,3.078861 7.06112,5.822941 11.10453,27.51998 0.66623,3.575 2.27282,10.55 3.57019,15.5 1.29738,4.95 2.36001,10.944643 2.3614,13.321429 0.001,2.504914 0.63305,4.951954 1.50252,5.821428 C 145.52775,101.67061 141.30517,111 135.45442,111 c -1.56274,0 -4.28578,1.41173 -6.68616,3.46637 -2.22732,1.9065 -6.23636,4.19267 -8.90897,5.08037 L 115,121.16073 l 0,5.47917 c 0,6.87143 4.43553,26.81053 6.75855,30.38181 5.48453,8.43163 14.61896,19.68512 24.63856,30.35441 5.86945,6.25002 9.49769,13.71796 10.56866,21.75326 1.58167,11.86703 2.47183,47.20069 2.22632,88.37062 -0.13447,22.55 -0.3452,62.15 -0.46829,88 l -0.2238,47 -2.30241,3.70284 c -2.09098,3.36279 -3.23888,3.99595 -12.5,6.89466 -6.21399,1.94496 -13.90868,3.51663 -19.69759,4.02331 -5.225,0.45731 -14,1.27036 -19.5,1.80678 -14.951228,1.45819 -30.698322,1.09869 -42.828623,-0.97776 z M 107.5,445.98796 c 4.4,-0.57289 11.93293,-1.27692 16.73984,-1.5645 8.08101,-0.48346 21.78776,-3.76231 26.6857,-6.38361 5.16132,-2.76225 5.11242,-2.28534 5.55333,-54.16603 0.7051,-82.96729 0.39612,-133.53116 -0.9566,-156.54468 C 153.96955,200.91308 153.23121,198.66289 142.28934,187 125.61474,169.22661 117.78391,157.89803 116.06648,149.06428 115.47149,146.00393 114.32967,140.35 113.5291,136.5 c -0.80058,-3.85 -1.47213,-8.84438 -1.49234,-11.09861 L 112,121.30277 l -5.75,0.93826 c -3.1625,0.51603 -11.229944,0.74323 -17.927653,0.50487 l -12.177653,-0.43338 -0.677201,5.09374 c -0.372461,2.80156 -1.5094,7.49449 -2.526533,10.42873 l -1.849331,5.33499 2.704185,-1.73979 2.704186,-1.73979 -1.904988,2.1548 c -1.047743,1.18514 -2.397743,2.18013 -3,2.21108 -0.602256,0.031 -2.619093,3.24811 -4.481859,7.14924 -1.862766,3.90113 -6.835069,11.6383 -11.049563,17.19372 C 51.849096,173.95466 45.669318,182.1 42.33075,186.5 26.231513,207.71767 23.125123,223.61221 24.448214,278 c 0.381325,15.675 0.895124,54.375 1.141775,86 0.26531,34.01749 0.874948,59.62959 1.492777,62.71457 0.76938,3.84172 1.852566,5.89467 4.114308,7.7978 C 34.596523,437.37282 42,441.40628 42,440.39788 c 0,-0.35352 0.5625,-0.2075 1.25,0.3245 2.071739,1.60315 17.867519,4.94806 31.25,6.61748 4.732273,0.59034 24.212061,-0.20768 33,-1.3519 z M 135,437.5 c 1.29175,-1.375 2.57363,-2.5 2.84863,-2.5 0.275,0 -0.55688,1.125 -1.84863,2.5 -1.29175,1.375 -2.57363,2.5 -2.84863,2.5 -0.275,0 0.55688,-1.125 1.84863,-2.5 z m -4.3913,-6.92268 c 0.30027,-0.78248 1.27341,-1.70184 2.16255,-2.04304 1.32812,-0.50964 1.28666,-0.25575 -0.2323,1.42269 -2.17821,2.40688 -2.67736,2.5673 -1.93025,0.62035 z M 118,428.62244 c 0,-0.20765 0.7875,-0.99515 1.75,-1.75 1.58606,-1.24387 1.62143,-1.2085 0.37756,0.37756 C 118.82119,428.91575 118,429.44548 118,428.62244 z m 13.76728,-5.23337 c -6.69979,-3.41145 -15.41457,-5.17662 -29.26728,-5.92807 -11.034423,-0.59857 -27.091538,0.55049 -29.631841,2.12048 -0.553386,0.34201 -3.112607,0.78704 -5.687158,0.98896 -2.57455,0.20192 -7.606001,1.27773 -11.181001,2.3907 -7.18727,2.23754 -11.017869,2.65673 -9.388538,1.0274 1.162275,-1.16228 11.066223,-3.97689 23.388538,-6.64681 10.117951,-2.1923 40.94959,-2.50949 50,-0.51439 6.35571,1.40107 18,6.09997 18,7.26366 0,1.77986 -1.74454,1.58339 -6.23272,-0.70193 z M 113,422.62244 c 0,-0.20765 0.7875,-0.99515 1.75,-1.75 1.58606,-1.24387 1.62143,-1.2085 0.37756,0.37756 C 113.82119,422.91575 113,423.44548 113,422.62244 z M 44.001987,412.25 c 0.0011,-0.4125 1.463593,-0.82587 3.25,-0.9186 2.604483,-0.13519 2.851752,-5.2e-4 1.248013,0.67972 -2.570045,1.0901 -4.50054,1.19262 -4.498013,0.23888 z M 43.8125,406.31689 c 0.721875,-0.28887 1.584375,-0.25335 1.916667,0.0789 0.332291,0.33229 -0.258334,0.56864 -1.3125,0.52522 -1.164943,-0.048 -1.4019,-0.28494 -0.604167,-0.60416 z m 1.920833,-5.44098 c 0.678334,-0.68342 1.485241,-0.99067 1.793128,-0.68278 0.307888,0.30789 -0.247112,0.86705 -1.233333,1.24258 -1.425198,0.54268 -1.540062,0.42782 -0.559795,-0.5598 z M 44,390.61663 c 0,-0.21085 0.900621,-0.61888 2.00138,-0.90674 1.100759,-0.28785 1.749201,-0.11534 1.440983,0.38337 C 46.904112,390.96417 44,391.4057 44,390.61663 z m 2,-8.97022 c 1.375,-0.72826 2.920131,-1.094 3.433624,-0.81276 1.020705,0.55905 -2.032645,1.99242 -4.433624,2.08132 -0.825,0.0306 -0.375,-0.5403 1,-1.26856 z m 6.269032,-1.3394 c 0.972967,-0.25354 2.322967,-0.23687 3,0.0371 0.677032,0.27393 -0.119032,0.48137 -1.769032,0.46099 -1.65,-0.0204 -2.203936,-0.2445 -1.230968,-0.49804 z M 44.75,376.33772 c 0.6875,-0.27741 1.8125,-0.27741 2.5,0 0.6875,0.27741 0.125,0.50439 -1.25,0.50439 -1.375,0 -1.9375,-0.22698 -1.25,-0.50439 z M 50.5,371 c 1.857127,-0.79803 1.827361,-0.86445 -0.416667,-0.92971 -1.329166,-0.0387 -2.162649,-0.32431 -1.852183,-0.63477 0.310465,-0.31047 2.297965,-0.22887 4.416666,0.18132 3.575171,0.69218 3.672407,0.79751 1.352184,1.4648 -3.565397,1.02541 -5.946955,0.96985 -3.5,-0.0816 z m -4.833333,-13.66667 c -0.366667,-0.36666 -0.659776,-1.15416 -0.651354,-1.75 0.01036,-0.73314 0.252803,-0.71666 0.75,0.051 0.404078,0.62387 1.634687,1.35917 2.734687,1.634 1.934524,0.48332 1.931796,0.50347 -0.08333,0.61568 -1.145834,0.0638 -2.383334,-0.184 -2.750003,-0.55068 z m -6.337701,-8.99563 c 0.737493,-0.73749 9.756541,-0.58553 10.519313,0.17725 C 50.115059,348.78173 47.708333,349 44.5,349 c -3.208333,0 -5.535298,-0.29803 -5.171034,-0.6623 z M 44.75,341.33772 c 0.6875,-0.27741 1.8125,-0.27741 2.5,0 0.6875,0.27741 0.125,0.50439 -1.25,0.50439 -1.375,0 -1.9375,-0.22698 -1.25,-0.50439 z M 41,339.94098 c 0,-0.58246 0.45,-0.7809 1,-0.44098 0.55,0.33992 1,0.81648 1,1.05902 C 43,340.80156 42.55,341 42,341 c -0.55,0 -1,-0.47656 -1,-1.05902 z m 3.473008,-4.89731 c 0.325073,-0.52598 1.251631,-0.70283 2.059017,-0.39301 2.067113,0.79323 1.823523,1.34934 -0.591042,1.34934 -1.132459,0 -1.793048,-0.43035 -1.467975,-0.95633 z M 45.5,331 c -2.767608,-0.70424 -2.80634,-0.77135 -0.5,-0.86637 1.375,-0.0566 3.175,0.33321 4,0.86637 1.701941,1.09988 0.822458,1.09988 -3.5,0 z m 0.5,-4 c -0.825,-0.53316 -1.05,-0.96937 -0.5,-0.96937 0.55,0 1.675,0.43621 2.5,0.96937 0.825,0.53316 1.05,0.96937 0.5,0.96937 -0.55,0 -1.675,-0.43621 -2.5,-0.96937 z m -6,-5 c 0,-1.17371 0.76862,-1.17371 3.5,0 1.77225,0.76156 1.686844,0.86743 -0.75,0.92971 C 41.2375,322.96837 40,322.55 40,322 z m 0.5,-5 c 0.339919,-0.55 1.603976,-0.96837 2.809017,-0.92971 2.112366,0.0678 2.119219,0.10112 0.190983,0.92971 -2.752484,1.18278 -3.731,1.18278 -3,0 z m 1.25,-14.66228 c 0.6875,-0.27741 1.8125,-0.27741 2.5,0 0.6875,0.27741 0.125,0.50439 -1.25,0.50439 -1.375,0 -1.9375,-0.22698 -1.25,-0.50439 z m -0.192363,-7.24446 c -0.308218,-0.49871 0.340224,-0.67122 1.440983,-0.38337 2.334987,0.61061 2.630147,1.29011 0.560397,1.29011 -0.792541,0 -1.693162,-0.40803 -2.00138,-0.90674 z m 0.917591,-6.13334 c -0.421617,-0.68219 0.332299,-0.80584 2.190983,-0.35933 3.831413,0.92042 4.19405,1.39941 1.059473,1.39941 -1.434208,0 -2.896913,-0.46804 -3.250456,-1.04008 z m 0.793804,-5.65291 c 0.972967,-0.25354 2.322967,-0.23687 3,0.0371 0.677032,0.27393 -0.119032,0.48137 -1.769032,0.46099 -1.65,-0.0204 -2.203936,-0.2445 -1.230968,-0.49804 z m -1.507373,-6.01427 c 1.243913,-0.23919 3.043913,-0.23011 4,0.0202 0.956088,0.25029 -0.06166,0.446 -2.261659,0.4349 -2.2,-0.0111 -2.982253,-0.21589 -1.738341,-0.45508 z M 40,273.09362 c 0,-0.49851 0.9,-0.67103 2,-0.38337 1.1,0.28766 2,0.69553 2,0.90638 C 44,273.82748 43.1,274 42,274 c -1.1,0 -2,-0.40787 -2,-0.90638 z m 1.630484,-10.1241 c 0.682356,-0.68236 1.847867,-0.70377 3.45,-0.0634 2.273441,0.90871 2.211227,0.97092 -1.030484,1.03048 -2.368039,0.0435 -3.126828,-0.25978 -2.419516,-0.96708 z m 0.633266,-4.6871 c 1.520062,-0.22986 3.770062,-0.22371 5,0.0136 1.229937,0.23736 -0.01375,0.42542 -2.76375,0.41792 -2.75,-0.008 -3.756313,-0.20172 -2.23625,-0.43157 z m -1.45125,-3.96553 c 0.721875,-0.28887 1.584375,-0.25335 1.916667,0.0789 0.332291,0.33229 -0.258334,0.56864 -1.3125,0.52522 -1.164943,-0.048 -1.4019,-0.28494 -0.604167,-0.60416 z m 3,-4 c 0.721875,-0.28887 1.584375,-0.25335 1.916667,0.0789 0.332291,0.33229 -0.258334,0.56864 -1.3125,0.52522 -1.164943,-0.048 -1.4019,-0.28494 -0.604167,-0.60416 z m -0.543468,-7.00988 c 0.972967,-0.25354 2.322967,-0.23687 3,0.0371 0.677032,0.27393 -0.119032,0.48137 -1.769032,0.46099 -1.65,-0.0204 -2.203936,-0.2445 -1.230968,-0.49804 z m 3,-5 c 0.972967,-0.25354 2.322967,-0.23687 3,0.0371 0.677032,0.27393 -0.119032,0.48137 -1.769032,0.46099 -1.65,-0.0204 -2.203936,-0.2445 -1.230968,-0.49804 z M 42.5,233 c -0.339919,-0.55 0.05697,-1 0.881966,-1 0.825,0 1.778115,0.45 2.118034,1 0.339919,0.55 -0.05697,1 -0.881966,1 -0.825,0 -1.778115,-0.45 -2.118034,-1 z m 5.769032,-10.69299 c 0.972967,-0.25354 2.322967,-0.23687 3,0.0371 0.677032,0.27393 -0.119032,0.48137 -1.769032,0.46099 -1.65,-0.0204 -2.203936,-0.2445 -1.230968,-0.49804 z M 45,215.09362 c 0,-0.49851 0.9,-0.67103 2,-0.38337 1.1,0.28766 2,0.69553 2,0.90638 C 49,215.82748 48.1,216 47,216 c -1.1,0 -2,-0.40787 -2,-0.90638 z m 1.75,-5.7559 c 0.6875,-0.27741 1.8125,-0.27741 2.5,0 0.6875,0.27741 0.125,0.50439 -1.25,0.50439 -1.375,0 -1.9375,-0.22698 -1.25,-0.50439 z m 3.5,-5.02705 c 0.9625,-0.25152 2.5375,-0.25152 3.5,0 0.9625,0.25153 0.175,0.45733 -1.75,0.45733 -1.925,0 -2.7125,-0.2058 -1.75,-0.45733 z M 53,200.86133 C 53,200.3876 54.125,200 55.5,200 c 1.375,0 2.5,0.17254 2.5,0.38342 0,0.21089 -1.125,0.59848 -2.5,0.86133 -1.375,0.26285 -2.5,0.0903 -2.5,-0.38342 z M 56,197 c 0.825,-0.53316 1.95,-0.96937 2.5,-0.96937 0.55,0 0.325,0.43621 -0.5,0.96937 -0.825,0.53316 -1.95,0.96937 -2.5,0.96937 -0.55,0 -0.325,-0.43621 0.5,-0.96937 z m 2.269032,-5.69299 c 0.972967,-0.25354 2.322967,-0.23687 3,0.0371 0.677032,0.27393 -0.119032,0.48137 -1.769032,0.46099 -1.65,-0.0204 -2.203936,-0.2445 -1.230968,-0.49804 z M 63.25,183.31067 c 0.9625,-0.25152 2.5375,-0.25152 3.5,0 0.9625,0.25153 0.175,0.45733 -1.75,0.45733 -1.925,0 -2.7125,-0.2058 -1.75,-0.45733 z m 0.25,-2.27582 c 2.433754,-1.08823 5.100052,-1.30157 4.128854,-0.33037 -0.387463,0.38746 -1.924963,0.82151 -3.416666,0.96456 -2.338524,0.22425 -2.436643,0.13687 -0.712188,-0.63419 z m 3.261659,-5.74211 c 1.243913,-0.23919 3.043913,-0.23011 4,0.0202 0.956088,0.25029 -0.06166,0.446 -2.261659,0.4349 -2.2,-0.0111 -2.982253,-0.21589 -1.738341,-0.45508 z M 68,172.06215 c 0,-0.51582 0.868825,-0.87241 1.930722,-0.79242 1.061897,0.08 1.710339,0.50203 1.440983,0.93786 C 70.686419,173.3164 68,173.20052 68,172.06215 z m 2,-3.93715 c 0,-0.48125 1.173043,-0.875 2.606763,-0.875 1.839672,0 2.207509,0.25298 1.25,0.85969 C 72.090757,169.22868 70,169.23698 70,168.125 z m 2.25,-4.81433 c 0.9625,-0.25152 2.5375,-0.25152 3.5,0 0.9625,0.25153 0.175,0.45733 -1.75,0.45733 -1.925,0 -2.7125,-0.2058 -1.75,-0.45733 z m 3.833333,-4.66999 C 76.3125,158.44305 77.85,157.97938 79.5,157.6103 c 2.190916,-0.49007 2.595458,-0.3973 1.5,0.34401 -1.35037,0.91381 -5.920153,1.55175 -4.916667,0.68637 z m -1.728934,-3.32841 c 0.978027,-0.97803 4.905497,-1.19397 6.472944,-0.35589 0.731641,0.39118 -0.577029,0.78431 -2.915972,0.87596 -2.333823,0.0915 -3.934461,-0.14258 -3.556972,-0.52007 z m 2.120829,-4.35235 c -0.421617,-0.68219 0.332299,-0.80584 2.190983,-0.35933 3.831413,0.92042 4.19405,1.39941 1.059473,1.39941 -1.434208,0 -2.896913,-0.46804 -3.250456,-1.04008 z m 2.337272,-3.64303 c 0.721875,-0.28887 1.584375,-0.25335 1.916667,0.0789 0.332291,0.33229 -0.258334,0.56864 -1.3125,0.52522 -1.164943,-0.048 -1.4019,-0.28494 -0.604167,-0.60416 z M 79,144.03138 c 0,-0.53273 0.675,-0.70959 1.5,-0.39301 0.825,0.31659 1.5,0.75246 1.5,0.96862 C 82,144.82314 81.325,145 80.5,145 79.675,145 79,144.56412 79,144.03138 z m -5,-5.77408 c 0,-0.55682 0.670045,-1.5685 1.48899,-2.24816 0.818944,-0.67967 1.261603,-1.60367 0.983688,-2.05335 -0.277916,-0.44968 -0.0627,-1.09114 0.478255,-1.42547 0.540957,-0.33432 0.727962,-1.88584 0.415568,-3.44781 -0.312394,-1.56197 -0.105053,-3.12606 0.460759,-3.47575 1.678197,-1.03718 2.333013,2.93619 0.993475,6.02833 C 77.315837,135.10894 74,139.66389 74,138.2573 z m 33.5,-18.71886 c 12.35584,-1.7606 20.5,-5.0972 20.5,-8.39868 0,-1.58122 -0.99522,-1.43643 -5.33516,0.7762 -6.38551,3.25552 -21.30619,5.38772 -34.238194,4.89272 -3.822817,-0.82293 -9.307541,-1.21375 -14.28751,-2.48189 -6.947482,-1.76917 -11.840615,-7.01296 -14.777003,-6.14588 -4.178758,1.23394 -5.437033,0.65338 0.340069,4.54572 1.496951,1.00857 3.523376,2.23572 6.486044,3.36064 3.738742,1.41959 7.355661,3.82169 17.320542,3.99462 10.299857,1.00037 13.696802,0.92342 23.991212,-0.54345 z m -1.79893,-5.64684 c 5.70406,-0.99332 6.29873,-1.31688 5.72758,-3.11639 -0.35052,-1.1044 -0.67784,-5.7208 -0.72738,-10.25868 l -0.0901,-8.250691 -3.0556,1.863342 c -3.73061,2.274975 -5.5556,2.3774 -5.5556,0.311802 0,-0.857459 0.39473,-1.31506 0.87718,-1.01689 1.64498,1.016656 7.61803,-3.984028 9.50672,-7.959099 1.13949,-2.398257 1.92112,-6.335848 1.97812,-9.964994 C 114.51361,65.846898 113.64795,54 112.79101,54 112.35595,54 112,54.649906 112,55.444236 c 0,0.79433 -1.02199,2.632367 -2.27108,4.084526 -2.10539,2.447655 -3.10858,2.703955 -13.750001,3.512906 C 87.286279,63.702475 83.043619,63.585466 78.5,62.559613 75.2,61.814544 73.277853,61.158829 74.228561,61.102471 75.704507,61.014975 75.790656,60.634646 74.818046,58.5 72.663139,53.770495 72,56.028636 72,68.096093 c 0,11.585184 1.778361,22.030858 3.982656,23.393188 0.468316,0.289435 2.989395,0.819279 5.602397,1.177431 4.365133,0.598308 4.69238,0.498651 4.030077,-1.227283 -0.396459,-1.033157 -0.400956,-1.558588 -0.01,-1.167624 0.390964,0.390964 1.388422,0.152247 2.216573,-0.530481 1.330032,-1.096479 1.344902,-0.94961 0.127444,1.258676 -0.758056,1.375 -1.400428,2.95 -1.427492,3.5 -0.02797,0.568428 -2.093233,0.856497 -4.785436,0.667489 C 76.689119,94.813152 76.441465,95.133472 78,100 l 0.80064,2.5 0.218101,-2.5 c 0.119956,-1.375 0.164812,-2.8375 0.09968,-3.25 C 79.053289,96.3375 79.45,96 80,96 c 0.55,0 1,0.500081 1,1.111291 0,0.720361 1.319173,0.907736 3.75,0.532648 2.0625,-0.318253 3.1875,-0.330834 2.5,-0.02796 -0.6875,0.302876 -1.311282,1.750685 -1.386182,3.217351 -0.120336,2.35638 -0.186609,2.40486 -0.569551,0.41667 C 84.760769,98.480143 83,98.26419 83,100.96862 c 0,1.23441 -0.49968,1.77687 -1.339786,1.45449 -2.013434,-0.77263 -3.584341,1.74419 -4.286605,6.86777 l -0.629007,4.58911 4.877699,0.37976 c 10.420627,0.8113 17.968533,0.6959 24.078769,-0.36815 z m -26.90471,-5.27299 c 0.317949,-2.72347 0.758338,-3.28631 2.263367,-2.89274 1.64066,0.42904 1.689997,0.66726 0.404441,1.95282 C 80.658875,108.48398 80,109.78571 80,110.57143 80,111.35714 79.64036,112 79.200801,112 c -0.43956,0 -0.621558,-1.52163 -0.404441,-3.38139 z m 5.767933,1.08826 c 0.375531,-0.98622 0.934692,-1.54122 1.242579,-1.23333 0.307887,0.30789 6.34e-4,1.11479 -0.682784,1.79313 -0.987616,0.98026 -1.10248,0.8654 -0.559795,-0.5598 z m 7.514654,-16.834425 c -0.04342,-0.895156 0.708553,-2.245156 1.671053,-3 1.520699,-1.192615 1.603807,-1.175901 0.634273,0.127555 -0.61365,0.825 -1.365624,2.175 -1.671053,3 -0.464529,1.254749 -0.568233,1.233894 -0.634273,-0.127555 z m 5.26613,-0.415573 C 97.019392,91.608151 97.033515,90.633151 97.376461,90.290205 97.719408,89.947259 98,90.191667 98,90.833333 98,91.475 98.675,92 99.5,92 c 0.825,0 1.5,0.45 1.5,1 0,1.599672 -3.003951,1.153279 -3.654923,-0.543128 z M 81.542705,91.069098 C 80.859635,89.963867 82.437113,88.770446 83.36052,89.693853 84.311305,90.644639 84.134107,92 83.059017,92 82.541476,92 81.859136,91.581094 81.542705,91.069098 z m -5.463758,-2.169875 c -0.04342,-0.330427 0.412804,-2.011415 1.013834,-3.735529 0.899712,-2.580918 1.40651,-2.966849 2.868517,-2.184407 0.976655,0.52269 2.120858,0.628678 2.542674,0.235529 0.421815,-0.393149 0.204914,0.363523 -0.482003,1.681493 -1.149766,2.206025 -1.081116,2.352421 0.864545,1.843619 C 84.048931,86.435949 85,86.52011 85,86.926953 c 0,1.530921 -1.20193,1.816883 -4.505207,1.071873 -2.26119,-0.509982 -3.561594,-0.386827 -3.870988,0.366602 -0.256251,0.624015 -0.501437,0.864222 -0.544858,0.533795 z M 80.770833,85.1875 C 80.988542,84.534375 80.454167,84 79.583333,84 78.7125,84 78,84.7125 78,85.583333 c 0,1.765927 2.152759,1.45839 2.770833,-0.395833 z M 75.39311,80.75 C 75.692376,79.7875 75.501354,79 74.968615,79 74.435877,79 74,79.525 74,80.166667 c 0,0.641666 -0.266249,0.900418 -0.591664,0.575003 -1.147135,-1.147135 1.075818,-3.678514 2.472367,-2.815399 1.069664,0.661088 1.103099,1.225838 0.160125,2.704644 -1.019019,1.598064 -1.11294,1.615331 -0.647718,0.119085 z m 3.41939,-0.433114 c 0.721875,-0.288871 1.584375,-0.253344 1.916667,0.07895 0.332291,0.332292 -0.258334,0.568641 -1.3125,0.52522 -1.164943,-0.04798 -1.4019,-0.284941 -0.604167,-0.60417 z M 78.75,77.337719 c 0.6875,-0.277412 1.8125,-0.277412 2.5,0 0.6875,0.277413 0.125,0.504386 -1.25,0.504386 -1.375,0 -1.9375,-0.226973 -1.25,-0.504386 z m 2.0625,-2.020833 c 0.721875,-0.288871 1.584375,-0.253344 1.916667,0.07895 0.332291,0.332292 -0.258334,0.568641 -1.3125,0.52522 -1.164943,-0.04798 -1.4019,-0.284941 -0.604167,-0.60417 z M 78.75,64.337719 c 0.6875,-0.277412 1.8125,-0.277412 2.5,0 0.6875,0.277413 0.125,0.504386 -1.25,0.504386 -1.375,0 -1.9375,-0.226973 -1.25,-0.504386 z M 74.987949,105.75 c -0.0087,-5.24855 -0.814711,-9.734557 -2.919586,-16.25 -1.599143,-4.95 -3.16872,-8.8875 -3.487948,-8.75 -0.319228,0.1375 -0.922169,0.25 -1.339868,0.25 -1.964447,0 -3.757006,5.263103 -4.427669,13 -0.405245,4.675 -0.866425,9.625 -1.024844,11 -0.245145,2.12774 0.520412,2.90949 5.141281,5.25 7.911914,4.00746 8.072626,3.91772 8.058634,-4.5 z m 46.841801,3.64755 c 5.15289,-2.56779 5.21357,-2.65103 4.55638,-6.25 C 126.01981,101.1414 125.27485,98.375 124.73067,97 c -0.54418,-1.375 -1.77271,-5.425 -2.73008,-9 -1.36482,-5.096553 -2.18675,-6.567188 -3.80673,-6.811178 -1.63174,-0.245762 -2.30662,0.490011 -3.21037,3.5 C 112.33769,93.500814 112.59606,112 115.36493,112 c 0.68331,0 3.59248,-1.1711 6.46482,-2.60245 z m 15.64717,-1.56899 c 2.46186,-1.1217 4.44202,-5.24295 3.14318,-6.5418 -0.34106,-0.34105 -0.6201,0.29981 -0.6201,1.42413 0,4.73187 -5.61832,5.32745 -8.5174,0.90289 -2.2097,-3.37243 -4.4596,-11.588527 -4.47178,-16.329853 -0.0187,-7.26817 -4.56692,-14.156278 -7.42804,-11.249389 -0.77914,0.791608 -0.61864,1.44322 0.57237,2.323667 0.91033,0.67296 2.15855,3.093077 2.77383,5.378038 1.87658,6.969088 6.04917,19.633717 7.23785,21.968287 0.61735,1.21249 1.84487,2.39779 2.72782,2.634 0.88294,0.23621 1.69668,0.48167 1.8083,0.54547 0.11162,0.0638 1.35991,-0.41115 2.77397,-1.05544 z M 55.081787,107 C 55.586804,107 56.9,106.1 58,105 c 1.605324,-1.60532 2,-3.33333 2,-8.756602 0,-8.770493 1.244873,-12.86909 5.124519,-16.871869 2.628004,-2.711412 2.809481,-3.16703 1.081467,-2.715145 -4.703659,1.230035 -8.089924,8.376534 -8.162093,17.225582 -0.05981,7.333514 -3.417286,12.898014 -7.368223,12.211674 -0.453381,-0.0787 -0.520363,0.34863 -0.148849,0.94976 0.371514,0.60112 1.341767,0.83727 2.156117,0.52477 C 53.497288,107.25568 54.576771,107 55.081787,107 z m -3.915482,-5.29961 C 47.784944,97.626094 49.044832,84.006231 54.58746,64.716428 59.944496,46.072536 62.61112,40.910259 67.5,39.719239 c 1.650459,-0.402082 1.563073,-0.506857 -0.5,-0.5995 -3.504758,-0.157382 -8.600672,3.207365 -10.541393,6.960306 -2.914346,5.635724 -6.460708,19.107397 -8.531513,32.408917 -2.181742,14.014113 -1.893521,19.544611 1.178673,22.616808 2.135139,2.13514 3.718191,2.59196 2.060538,0.59462 z M 137.04434,99.365651 C 138.51142,94.920363 137.84958,88.657963 134.57497,76 133.22326,70.775 131.38472,62.225 130.48931,57 128.63574,46.18379 126.10929,39.66404 123.1598,38.085524 120.5376,36.682164 114,36.677832 114,38.079455 c 0,0.680772 1.11554,0.834441 3.02039,0.416068 5.8209,-1.278485 9.69778,5.504327 12.00561,21.004477 0.49134,3.3 2.0909,11.85 3.55457,19 3.78623,18.49562 3.74274,18.133794 2.5803,21.468359 C 134.57962,101.63576 134.49573,103 134.97447,103 c 0.47873,0 1.41018,-1.63546 2.06987,-3.634349 z M 82,100 c 0,-0.55 -0.45,-1 -1,-1 -0.55,0 -1,0.45 -1,1 0,0.55 0.45,1 1,1 0.55,0 1,-0.45 1,-1 z M 55,92.681501 c 0,-0.725174 0.718806,-3.73898 1.597346,-6.697346 C 58.365771,80.029223 63.526234,74 66.854687,74 68.404175,74 69.067984,73.154536 69.554454,70.561429 70.629011,64.833545 69.430021,56.362141 67.131132,53.439578 64.713374,50.365896 65.708601,47 69.035184,47 c 2.068104,0 2.51317,-1.586391 1.079676,-3.848393 -1.753674,-2.767235 -4.613222,-0.654935 -7.755147,5.728598 -1.727158,3.509112 -3.404681,7.784112 -3.727828,9.5 C 58.308737,60.096092 56.909163,65.55 55.52172,70.5 54.134277,75.45 52.708269,82.7625 52.352812,86.75 51.788847,93.076544 51.916278,94 53.353264,94 54.258969,94 55,93.406676 55,92.681501 z m 77.97836,0.0685 c -0.0119,-0.6875 -0.89585,-5.203736 -1.96432,-10.036081 -1.06848,-4.832344 -2.64306,-13.50288 -3.49908,-19.267858 C 125.90922,52.631942 122.93123,43.01774 120.58387,41.069609 118.84044,39.622688 114,41.365438 114,43.440065 c 0,0.819262 0.9,1.971233 2,2.559935 2.0969,1.122226 2.75717,5.414007 1,6.5 -1.10708,0.684213 -1.32547,10.897754 -0.35815,16.75 0.50574,3.05972 1.04088,3.75 2.9072,3.75 1.25806,0 3.01835,0.280501 3.91176,0.623335 2.40185,0.921675 5.53721,7.746382 5.55284,12.086827 0.019,5.259933 0.97033,8.289838 2.60298,8.289838 0.76085,0 1.37363,-0.5625 1.36173,-1.249999 z M 83.25,60.337719 c -0.6875,-0.277412 -1.8125,-0.277412 -2.5,0 -0.6875,0.277413 -0.125,0.504386 1.25,0.504386 1.375,0 1.9375,-0.226973 1.25,-0.504386 z m 23.62669,-1.271725 C 109.65318,57.580059 109.62567,55 106.83333,55 c -1.19166,0 -1.85255,-0.314114 -1.46863,-0.698031 0.38391,-0.383917 -0.32859,-1.267971 -1.58334,-1.964564 -1.84599,-1.02483 -1.9448,-1.273297 -0.51779,-1.30197 0.96996,-0.01949 2.61011,0.493242 3.64478,1.139402 2.3455,1.464787 8.59165,-0.09123 8.59165,-2.140318 0,-0.764844 -1.35,-1.753653 -3,-2.197354 -3.83262,-1.030627 -42.504768,0.767603 -43.772562,2.035397 -2.452113,2.452113 3.77255,4.362919 7.181878,2.204645 0.775124,-0.490691 1.98421,-0.671559 2.686858,-0.401928 C 80.221977,52.299158 79.244586,55 77.393011,55 c -1.660248,0 -1.724194,0.512661 -0.377757,3.028503 0.63319,1.183126 1.618159,1.665664 2.617342,1.282242 1.327891,-0.50956 1.196918,-0.839421 -0.765254,-1.927327 C 76.690982,56.176759 76.943706,56.07737 82,56.151437 c 3.025,0.04431 4.6,0.297044 3.5,0.561629 C 82.723638,57.380869 81.166056,59 83.3,59 c 0.935,0 1.7,0.515436 1.7,1.145413 0,1.480926 18.82853,0.551906 21.87669,-1.079419 z M 82.458881,52.933469 c -0.362533,-0.586592 -0.444683,-1.281 -0.182555,-1.543128 0.262128,-0.262129 0.743066,0.21781 1.068751,1.066531 0.676184,1.762107 0.09985,2.072058 -0.886196,0.476597 z M 90.5,53 C 90.160081,52.45 90.358524,52 90.940983,52 91.523442,52 92,52.45 92,53 92,53.55 91.801558,54 91.559017,54 91.316476,54 90.839919,53.55 90.5,53 z M 95,52.031385 c 0,-0.532739 0.675,-0.709594 1.5,-0.393011 0.825,0.316582 1.5,0.752459 1.5,0.968615 C 98,52.823145 97.325,53 96.5,53 95.675,53 95,52.564123 95,52.031385 z m 4.666667,0.301948 C 99.3,51.966667 99,51.201667 99,50.633333 c 0,-0.626604 0.465771,-0.567562 1.18333,0.15 0.65084,0.650834 0.95084,1.415834 0.66667,1.7 -0.28417,0.284167 -0.81667,0.216667 -1.183333,-0.15 z M 111.6156,44.625315 c 0.0636,-0.06892 0.4256,-5.912328 0.8045,-12.985344 l 0.6889,-12.860029 -11.8045,0.687024 C 94.812025,19.844829 85.225,20.557732 80,21.051195 74.775,21.544658 69.879986,21.96001 69.122192,21.9742 c -1.674724,0.03136 -1.073546,4.726349 2.089995,16.32214 l 2.126983,7.79634 19.080415,-0.671025 C 102.91381,45.052591 111.55202,44.694238 111.6156,44.625315 z M 76.858258,44.314113 c -1.895811,-0.30576 -2.514328,-0.904396 -2.190499,-2.120089 0.352579,-1.323622 1.812617,-1.751567 6.677457,-1.957194 5.660273,-0.239249 6.226213,-0.08018 6.226213,1.75 0,1.353805 -0.66675,2.017642 -2.035715,2.026825 -1.119643,0.0075 -2.935714,0.17405 -4.035714,0.370089 -1.1,0.196039 -3.188784,0.164705 -4.641742,-0.06963 z M 83.75,42.283746 c -1.5125,-0.229125 -3.9875,-0.229125 -5.5,0 -1.5125,0.229124 -0.275,0.41659 2.75,0.41659 3.025,0 4.2625,-0.187466 2.75,-0.41659 z M 77,38.167727 c 0,-0.45775 2.5875,-0.648622 5.75,-0.424161 8.334639,0.591557 8.755217,1.086782 1,1.177487 C 80.0375,38.964474 77,38.625477 77,38.167727 z M 74.25,34.504169 C 72.24126,32.222631 72.673066,32 79.106989,32 c 4.922201,0 5.99911,0.281128 5.550927,1.449072 -0.371656,0.968522 -0.07551,1.264668 0.893012,0.893012 C 86.347917,34.03625 87,34.284167 87,34.893011 87,36.583486 75.779415,36.241287 74.25,34.504169 z M 74,30.100836 C 74,29.063057 85.577002,29.243669 86.631228,30.297895 87.017386,30.684053 84.333333,31 80.666667,31 77,31 74,30.595376 74,30.100836 z m -3.274607,-4.042931 c -0.707264,-2.704582 -0.04241,-3.07804 5.191274,-2.916 L 80.5,23.283811 76.5,24 l -4,0.716189 4.25,0.141906 C 79.798042,24.959867 81,25.42422 81,26.5 81,27.628557 79.790737,28 76.116631,28 72.1228,28 71.140751,27.646235 70.725393,26.057905 z m 5.003774,0.337928 c -0.332292,-0.332291 -1.194792,-0.367818 -1.916667,-0.07895 -0.797733,0.319226 -0.560776,0.556183 0.604167,0.604167 1.054166,0.04342 1.644791,-0.192928 1.3125,-0.525217 z"
     id="path11859"
     inkscape:connector-curvature="0"
     sodipodi:nodetypes="ssssssssssssssssssssssssscsssscsssssscsssssssssssssscsscsscccscsssssssssssssssssssssssssssssssssssssscssccccccsssssssssscscccccsssscccsscccscsscsssssssssssssssssscsssssssssssscsssssssssssssscccccccsccssssssssscccccccccccccccccccccccccssssscccccssssssssssssssssssssssscccccssssssssccsccsssssssssssssssssccssssscccccsssssssscssssssscsssscsssscsssssssssssssssssssssscssssssssssscssssssssssssssssssssssssssssssssssssssssssssssssssssssssssssssssssssssssssssssssscsssssssssssssssscsssssssssssssssssssssssssssssssssssssssssssssssssscssssssssssssssssssssssssssssssssssssssssssssscscsssscscssssssssssssssssssssssssssscccssssssss" />
</svg>
