<?xml version="1.0" encoding="UTF-8" standalone="no"?>
<!-- Created with Inkscape (http://www.inkscape.org/) -->

<svg
   xmlns:dc="http://purl.org/dc/elements/1.1/"
   xmlns:cc="http://creativecommons.org/ns#"
   xmlns:rdf="http://www.w3.org/1999/02/22-rdf-syntax-ns#"
   xmlns:svg="http://www.w3.org/2000/svg"
   xmlns="http://www.w3.org/2000/svg"
   xmlns:sodipodi="http://sodipodi.sourceforge.net/DTD/sodipodi-0.dtd"
   xmlns:inkscape="http://www.inkscape.org/namespaces/inkscape"
   id="svg11849"
   version="1.1"
   inkscape:version="0.48.4 r9939"
   width="184"
   height="500"
   sodipodi:docname="Bottle!.svg">
  <metadata
     id="metadata11855">
    <rdf:RDF>
      <cc:Work
         rdf:about="">
        <dc:format>image/svg+xml</dc:format>
        <dc:type
           rdf:resource="http://purl.org/dc/dcmitype/StillImage" />
        <dc:title />
      </cc:Work>
    </rdf:RDF>
  </metadata>
  <defs
     id="defs11853" />
  <sodipodi:namedview
     pagecolor="#ffffff"
     bordercolor="#666666"
     borderopacity="1"
     objecttolerance="10"
     gridtolerance="10"
     guidetolerance="10"
     inkscape:pageopacity="0"
     inkscape:pageshadow="2"
     inkscape:window-width="1280"
     inkscape:window-height="756"
     id="namedview11851"
     showgrid="false"
     inkscape:zoom="0.72241212"
     inkscape:cx="96.691296"
     inkscape:cy="150.66773"
     inkscape:window-x="4"
     inkscape:window-y="22"
     inkscape:window-maximized="0"
     inkscape:current-layer="svg11849" />
  <path
     style="fill:#a6a6a6;fill-opacity:1;stroke:none"
     d="m 52.374634,111.82617 6.43081,-1.50507 c 18.689752,11.85929 43.842336,12.94721 76.759236,1.0946 l 0.95778,5.33621 c -10.96145,10.01828 -27.85765,7.62756 -42.415978,10.12509 -29.386366,-1.20752 -35.478,-8.14914 -41.731848,-15.05083 z"
     id="path11861"
     inkscape:connector-curvature="0"
     sodipodi:nodetypes="cccccc" />
  <path
     style="fill:#a6a6a6;fill-opacity:1;stroke:none"
     d="m 47.448908,107.44775 c 0.547303,-0.27365 8.34637,-15.871785 8.34637,-15.871785 1.468436,-10.885418 5.970192,-16.95722 12.451141,-16.96639 -4.901214,6.698127 -7.395696,18.744541 -9.030498,32.701355 -8.296656,5.59763 -12.945302,6.56508 -11.767013,0.13682 z"
     id="path12371"
     inkscape:connector-curvature="0"
     sodipodi:nodetypes="ccccc" />
  <path
     style="fill:#a6a6a6;fill-opacity:1;stroke:none"
     d="M 43.070485,98.690905 C 43.311019,85.171972 40.853218,76.194137 55.384801,38.624411 59.67665,35.198372 63.904797,31.533455 69.614677,33.425034 L 60.447352,44.09744 C 55.379002,60.98399 49.171861,77.545164 48.953991,95.817571 l 2.462863,10.946049 c -5.165254,1.15877 -7.924385,-1.56928 -8.346369,-8.072715 z"
     id="path12373"
     inkscape:connector-curvature="0"
     sodipodi:nodetypes="ccccccc" />
  <path
     style="fill:#a6a6a6;fill-opacity:1;stroke:none"
     d="m 120.3822,30.192907 13.73856,3.096013 14.12555,65.016272 -4.06351,9.675038 -5.03102,-3.87002 2.5155,-5.998528 c -3.69482,-23.183538 -5.18155,-52.188429 -14.12555,-61.533249 -0.0716,-3.54041 -4.68456,-2.539463 -9.28804,-1.548007 0.0148,-2.833719 -0.40166,-3.825455 2.12851,-4.837519 z"
     id="path12375"
     inkscape:connector-curvature="0"
     sodipodi:nodetypes="ccccccccc" />
  <path
     style="fill:#a6a6a6;fill-opacity:1;stroke:none"
     d="m 123.67171,74.891587 c 2.18081,-0.434313 1.7773,-3.083753 7.15953,-0.773997 4.7969,8.048183 3.84781,13.450795 6.30487,22.209802 0.84372,3.007742 2.55133,6.214948 4.53117,10.104828 l 3.87002,0.5805 3.87002,-6.19202 c 2.66798,3.98487 1.63662,7.75616 -4.45052,12.77105 -5.47175,0.50522 -8.43013,-1.50292 -10.83604,-4.06352 -1.0409,-8.16416 -2.79857,-17.320751 -10.44905,-34.636643 z"
     id="path12377"
     inkscape:connector-curvature="0"
     sodipodi:nodetypes="ccscccccc" />
  <path
     style="fill:#e4ae4c;fill-opacity:1;stroke:none"
     d="m 66.878162,14.95356 c 3.657972,14.685963 5.597118,29.371924 12.040664,44.057885 11.377125,0.572388 22.211424,3.511335 35.027384,-2.189211 5.07272,-10.876345 3.79774,-29.687297 5.19939,-45.15249 -13.63029,-2.0655548 -32.521986,0.2534 -52.267438,3.283816 z"
     id="path12379"
     inkscape:connector-curvature="0"
     sodipodi:nodetypes="ccccc" />
  <path
     style="fill:#4cc8e4;fill-opacity:0.43564357;stroke:none"
     d="m 68.52398,43.737963 52.05172,-0.193501 2.32202,3.096013 -3.67652,4.450519 2.70901,29.218616 -5.80503,13.738566 2.32201,22.059084 c -14.48697,5.89477 -29.913079,4.51812 -41.215674,1.54801 1.274795,-13.54506 -1.405294,-27.090113 -7.353031,-40.635169 l 1.354506,-23.607098 -4.83752,-7.15953 z"
     id="path12381"
     inkscape:connector-curvature="0"
     sodipodi:nodetypes="cccccccccccc" />
  <path
     style="fill:#4cc8e4;fill-opacity:0.43564357;stroke:none"
     d="m 67.169474,45.285969 2.515511,6.772528 51.084215,-2.322009 0,-7.35303 z"
     id="path12383"
     inkscape:connector-curvature="0" />
  <path
     style="fill:#4cc8e4;fill-opacity:0.43564357;stroke:none"
     d="m 118.32463,124.41414 c 1.75356,15.05083 2.90422,30.10166 9.57781,45.15249 l 33.11184,39.95311 c 9.00551,25.7072 7.53586,60.47052 7.95291,99.33237 0.5756,53.63534 0.5357,114.58248 -1.38528,165.8359 -8.9809,16.11705 -51.03543,12.36126 -78.264329,17.51369 -59.9714,-3.36853 -59.311397,-12.55104 -68.412865,-20.79751 1.824023,-84.28529 -14.0697467,-204.00617 5.47303,-252.85395 4.834487,-7.12571 7.03681,-15.10266 12.790779,-21.66845 18.482635,-21.09033 35.758992,-45.93796 36.740135,-70.55209 14.138657,1.06357 28.27732,0.66623 42.41597,-1.91556 z"
     id="path12385"
     inkscape:connector-curvature="0"
     sodipodi:nodetypes="cccsccccscc" />
  <path
     style="fill:#000000"
     d="m 60.864677,491.26659 c -21.30241,-3.64651 -28.053342,-6.17891 -36.000648,-13.50448 -4.285695,-3.95041 -4.874026,-5.10853 -5.490785,-10.80856 -0.379926,-3.51123 -0.95446,-35.32004 -1.276742,-70.68623 -0.322281,-35.36619 -0.802797,-67.06996 -1.067812,-70.45281 -1.22368,-15.62003 -1.159156,-55.78666 0.114356,-71.18854 2.415592,-29.21419 6.036441,-38.71434 23.515409,-61.69823 23.330126,-30.67783 29.393663,-41.58774 32.260199,-58.04461 1.628604,-9.34986 1.491944,-10.35654 -1.408215,-10.3733 -2.850226,-0.0164 -12.61089,-4.84244 -16.590339,-8.20278 -1.933981,-1.6331 -4.782845,-2.96928 -6.330807,-2.96928 -3.725975,0 -9.052393,-6.10856 -7.595856,-8.71124 0.559903,-1.0005 0.738894,-4.52339 0.397758,-7.828681 -1.185265,-11.48411 4.642989,-40.783509 10.683041,-53.705032 2.798421,-5.986683 8.826734,-11.390839 12.706433,-11.390839 2.916422,0 3.110743,-1.150296 1.499034,-8.873627 -0.818576,-3.92263 -1.238101,-7.784117 -0.932276,-8.581084 0.305824,-0.796966 2.650218,-1.702062 5.209763,-2.011325 13.474601,-1.6281 29.227157,-2.8855719 37.91604,-3.0267057 12.63602,-0.205248 13.64209,0.5415093 12.64174,9.3834367 -0.40761,3.602794 -1.01773,7.271408 -1.35583,8.152473 -0.45353,1.181889 0.31091,1.601937 2.91535,1.601937 1.94155,0 4.97036,0.744796 6.7307,1.655104 6.65819,3.443086 7.89644,6.511787 12.41818,30.775555 0.74504,3.997917 2.54169,11.79805 3.99253,17.333628 1.45086,5.535578 2.6392,12.239376 2.64075,14.897337 0.001,2.801237 0.70794,5.537758 1.68027,6.510097 4.50423,4.504226 -0.21788,14.937266 -6.76076,14.937266 -1.74761,0 -4.79279,1.57874 -7.47713,3.87644 -2.49081,2.13203 -6.97411,4.68866 -9.96289,5.68137 l -5.43413,1.80492 0,6.12735 c 0,7.68431 4.96024,29.98218 7.55807,33.97594 6.13335,9.42908 16.34837,22.01384 27.55327,33.94529 6.5638,6.98939 10.62125,15.34077 11.81892,24.32664 1.76878,13.27088 2.76424,52.78447 2.48969,98.82474 -0.15038,25.21763 -0.38604,69.50226 -0.52369,98.41028 l -0.25027,52.56003 -2.57479,4.14088 c -2.33834,3.7606 -3.62203,4.46867 -13.97873,7.71029 -6.94909,2.17505 -15.55406,3.93264 -22.02779,4.49926 -5.84311,0.51141 -15.65618,1.42064 -21.80682,2.02052 -16.719942,1.63069 -34.329895,1.22867 -47.895193,-1.09343 z m 51.250083,-2.19395 c 4.92052,-0.64066 13.34459,-1.42798 18.72015,-1.74958 9.03698,-0.54065 24.36522,-4.20739 29.84258,-7.13878 5.7719,-3.08902 5.71721,-2.5557 6.21028,-60.5738 0.78851,-92.7822 0.44298,-149.32771 -1.06976,-175.06369 -1.73641,-29.54105 -2.56209,-32.05743 -14.79837,-45.10002 -18.64718,-19.87596 -27.40439,-32.5447 -29.32499,-42.42347 -0.66538,-3.42238 -1.94227,-9.74516 -2.83755,-14.05061 -0.89529,-4.30545 -1.64628,-9.89066 -1.66888,-12.41156 l -0.0411,-4.58349 -6.43022,1.04926 c -3.53662,0.57708 -12.558432,0.83115 -20.048471,0.5646 l -13.618252,-0.48465 -0.757313,5.69632 c -0.416523,3.13298 -1.68796,8.38108 -2.825418,11.66243 l -2.068105,5.96612 3.024087,-1.94561 3.024087,-1.9456 -2.130345,2.40971 c -1.17169,1.32534 -2.681393,2.43803 -3.354896,2.47264 -0.673502,0.0347 -2.928928,3.63236 -5.012057,7.99499 -2.083128,4.36263 -7.643648,13.01509 -12.356711,19.22771 -4.713062,6.21262 -11.6239,15.32154 -15.357415,20.24206 -18.003755,23.72769 -21.477626,41.50253 -19.998015,102.32432 0.426435,17.52933 1.001016,60.80748 1.276845,96.17368 0.296696,38.04171 0.978453,66.68368 1.66937,70.13361 0.860397,4.29619 2.071722,6.592 4.601025,8.72027 3.801599,3.19884 12.080897,7.70945 12.080897,6.58176 0,-0.39534 0.629043,-0.23205 1.397874,0.36289 2.316822,1.7928 19.981221,5.53341 34.946831,7.40032 5.292094,0.66017 27.076312,-0.23225 36.903852,-1.51183 z m 30.75322,-9.49208 c 1.44456,-1.53766 2.87809,-2.79574 3.18562,-2.79574 0.30753,0 -0.62276,1.25808 -2.06732,2.79574 -1.44456,1.53766 -2.87809,2.79575 -3.18562,2.79575 -0.30753,0 0.62276,-1.25809 2.06732,-2.79575 z m -4.91079,-7.74162 c 0.3358,-0.87505 1.42406,-1.90316 2.41838,-2.28473 1.48524,-0.56993 1.43887,-0.286 -0.25978,1.59099 -2.43589,2.69161 -2.99409,2.87101 -2.1586,0.69374 z M 123.8569,469.6528 c 0,-0.23221 0.88066,-1.11287 1.95703,-1.95702 1.77368,-1.39102 1.81324,-1.35147 0.42222,0.42222 -1.46091,1.86281 -2.37925,2.45521 -2.37925,1.5348 z m 15.39593,-5.85247 c -7.49236,-3.81502 -17.23809,-5.78901 -32.72956,-6.62935 -12.339781,-0.66938 -30.29643,0.61561 -33.137248,2.37133 -0.618851,0.38247 -3.480824,0.88014 -6.359941,1.10595 -2.879115,0.22581 -8.50578,1.42888 -12.503697,2.67352 -8.037514,2.50223 -12.321268,2.97101 -10.499189,1.14894 1.29977,-1.29978 12.375341,-4.44735 26.155369,-7.43312 11.31489,-2.45165 45.793876,-2.80636 55.914936,-0.57524 7.10758,1.56681 20.12938,6.82159 20.12938,8.12294 0,1.99041 -1.95092,1.7707 -6.97005,-0.78497 z m -20.98742,-0.85732 c 0,-0.23222 0.88066,-1.11288 1.95702,-1.95702 1.77369,-1.39102 1.81325,-1.35147 0.42223,0.42222 -1.46092,1.86281 -2.37925,2.4552 -2.37925,1.5348 z M 41.105023,451.34352 c 0.0012,-0.46129 1.636734,-0.92357 3.63447,-1.02726 2.91259,-0.15119 3.18911,-5.9e-4 1.395651,0.76013 -2.874078,1.21905 -5.032947,1.3337 -5.030121,0.26713 z m -0.211903,-6.63498 c 0.807271,-0.32305 1.771804,-0.28333 2.143406,0.0882 0.3716,0.3716 -0.288895,0.63591 -1.467767,0.58735 -1.302754,-0.0537 -1.567743,-0.31865 -0.675639,-0.67563 z m 2.148064,-6.08464 c 0.75858,-0.76427 1.660943,-1.10787 2.005253,-0.76356 0.344311,0.34432 -0.276345,0.96962 -1.379235,1.38958 -1.593797,0.60688 -1.722249,0.47843 -0.626018,-0.62602 z m -1.938383,-11.47294 c 0,-0.2358 1.007163,-0.6921 2.23814,-1.01401 1.230977,-0.3219 1.956129,-0.12898 1.611449,0.42872 -0.601925,0.97394 -3.849589,1.4677 -3.849589,0.58529 z m 2.236597,-10.03139 c 1.53766,-0.81441 3.265578,-1.22342 3.839817,-0.90891 1.141453,0.62519 -2.273104,2.22812 -4.958116,2.32754 -0.922596,0.0342 -0.419362,-0.60422 1.118299,-1.41863 z m 7.010649,-1.49785 c 1.088068,-0.28353 2.597771,-0.26489 3.354896,0.0415 0.757124,0.30634 -0.133113,0.53832 -1.978306,0.51553 -1.845192,-0.0228 -2.464658,-0.27343 -1.37659,-0.55696 z m -8.408523,-4.43885 c 0.768831,-0.31023 2.026917,-0.31023 2.795747,0 0.76883,0.31023 0.139787,0.56406 -1.397873,0.56406 -1.537661,0 -2.166704,-0.25383 -1.397874,-0.56406 z m 6.430217,-5.96916 c 2.076823,-0.89244 2.043536,-0.96672 -0.465958,-1.0397 -1.486404,-0.0433 -2.418487,-0.36267 -2.071293,-0.70986 0.347192,-0.3472 2.569811,-0.25594 4.939151,0.20277 3.998109,0.77407 4.106848,0.89186 1.512145,1.63808 -3.987178,1.14672 -6.650471,1.08459 -3.914045,-0.0913 z m -5.405109,-15.28342 c -0.410043,-0.41004 -0.737827,-1.2907 -0.728408,-1.95702 0.01159,-0.81987 0.282709,-0.80144 0.838724,0.057 0.451879,0.69767 1.828068,1.51996 3.058196,1.8273 2.163376,0.5405 2.160325,0.56303 -0.09319,0.68851 -1.281384,0.0713 -2.665279,-0.20576 -3.075324,-0.61582 z m -7.087442,-10.0598 c 0.824737,-0.82474 10.910726,-0.6548 11.763733,0.19822 0.298339,0.29834 -2.393099,0.54243 -5.980973,0.54243 -3.587874,0 -6.190116,-0.33329 -5.78276,-0.74065 z m 6.062334,-7.82807 c 0.768831,-0.31023 2.026917,-0.31023 2.795747,0 0.76883,0.31023 0.139787,0.56406 -1.397873,0.56406 -1.537661,0 -2.166704,-0.25383 -1.397874,-0.56406 z m -4.193619,-1.56197 c 0,-0.65137 0.503234,-0.87328 1.118298,-0.49315 0.615065,0.38013 1.118299,0.91307 1.118299,1.1843 0,0.27123 -0.503234,0.49315 -1.118299,0.49315 -0.615064,0 -1.118298,-0.53294 -1.118298,-1.1843 z m 3.88386,-5.47666 c 0.363528,-0.5882 1.399697,-0.78597 2.302596,-0.4395 2.311649,0.88707 2.039243,1.50897 -0.660962,1.50897 -1.266427,0 -2.005163,-0.48126 -1.641634,-1.06947 z m 1.148483,-4.52203 c -3.095012,-0.78755 -3.138326,-0.8626 -0.559149,-0.96886 1.537661,-0.0633 3.550598,0.37263 4.473195,0.96886 1.903278,1.23 0.919753,1.23 -3.914046,0 z m 0.55915,-4.47319 c -0.922597,-0.59623 -1.174214,-1.08405 -0.55915,-1.08405 0.615065,0 1.873151,0.48782 2.795747,1.08405 0.922596,0.59623 1.174213,1.08404 0.559149,1.08404 -0.615064,0 -1.87315,-0.48781 -2.795746,-1.08404 z m -6.709792,-5.59149 c 0,-1.31256 0.859547,-1.31256 3.914045,0 1.981905,0.85165 1.886395,0.97004 -0.838724,1.03969 -1.691426,0.0433 -3.075321,-0.42463 -3.075321,-1.03969 z m 0.559149,-5.5915 c 0.380131,-0.61506 1.793725,-1.08292 3.14132,-1.03969 2.362256,0.0758 2.36992,0.11308 0.213576,1.03969 -3.078099,1.3227 -4.172372,1.3227 -3.354896,0 z m 1.397874,-16.3968 c 0.76883,-0.31023 2.026916,-0.31023 2.795746,0 0.76883,0.31022 0.139787,0.56405 -1.397873,0.56405 -1.537661,0 -2.166704,-0.25383 -1.397873,-0.56405 z m -0.21512,-8.10147 c -0.344679,-0.55771 0.380472,-0.75063 1.61145,-0.42873 2.611212,0.68285 2.941289,1.44273 0.626691,1.44273 -0.886298,0 -1.893461,-0.4563 -2.238141,-1.014 z m 1.026141,-6.85891 c -0.471494,-0.76289 0.37161,-0.90117 2.450173,-0.40184 4.284664,1.02931 4.690201,1.56496 1.184808,1.56496 -1.603873,0 -3.239614,-0.52341 -3.634981,-1.16312 z m 0.88771,-6.32164 c 1.088068,-0.28353 2.597771,-0.26489 3.354896,0.0415 0.757124,0.30633 -0.133113,0.53831 -1.978306,0.51552 -1.845193,-0.0228 -2.464659,-0.27342 -1.37659,-0.55695 z m -1.685693,-6.72575 c 1.391066,-0.26749 3.404004,-0.25733 4.473194,0.0226 1.069192,0.2799 -0.06895,0.49876 -2.52921,0.48635 -2.460257,-0.0124 -3.335049,-0.24143 -1.943984,-0.50892 z m -1.970061,-4.69587 c 0,-0.55748 1.006469,-0.75041 2.236597,-0.42872 1.230129,0.32169 2.236598,0.77781 2.236598,1.0136 0,0.23579 -1.006469,0.42872 -2.236598,0.42872 -1.230128,0 -2.236597,-0.45612 -2.236597,-1.0136 z m 1.823368,-11.32177 c 0.763078,-0.76308 2.066467,-0.78702 3.85813,-0.0709 2.542386,1.01621 2.472812,1.08578 -1.152389,1.15239 -2.648174,0.0486 -3.496727,-0.29051 -2.705741,-1.08149 z m 0.708181,-5.24157 c 1.699883,-0.25706 4.216055,-0.25018 5.591493,0.0152 1.375436,0.26544 -0.01538,0.47575 -3.090698,0.46736 -3.075321,-0.009 -4.20068,-0.22558 -2.500795,-0.48262 z m -1.622931,-4.43465 c 0.807272,-0.32304 1.771804,-0.28332 2.143406,0.0882 0.3716,0.3716 -0.288895,0.63591 -1.467767,0.58736 -1.302754,-0.0537 -1.567743,-0.31865 -0.675639,-0.67564 z m 3.354896,-4.4732 c 0.807271,-0.32304 1.771804,-0.28332 2.143406,0.0882 0.3716,0.3716 -0.288895,0.63591 -1.467767,0.58735 -1.302754,-0.0537 -1.567743,-0.31865 -0.675639,-0.67563 z m -0.60776,-7.83913 c 1.088068,-0.28354 2.597771,-0.2649 3.354896,0.0415 0.757124,0.30634 -0.133113,0.53832 -1.978306,0.51553 -1.845193,-0.0228 -2.464659,-0.27343 -1.37659,-0.55696 z m 3.354896,-5.5915 c 1.088067,-0.28353 2.597771,-0.26489 3.354896,0.0415 0.757124,0.30634 -0.133114,0.53832 -1.978306,0.51553 -1.845193,-0.0228 -2.464659,-0.27343 -1.37659,-0.55696 z m -4.214903,-5.93482 c -0.380131,-0.61506 0.06371,-1.1183 0.986301,-1.1183 0.922596,0 1.988463,0.50324 2.368594,1.1183 0.380131,0.61506 -0.06371,1.1183 -0.986301,1.1183 -0.922596,0 -1.988463,-0.50324 -2.368594,-1.1183 z m 6.4515,-11.95796 c 1.088068,-0.28353 2.597771,-0.26489 3.354896,0.0415 0.757124,0.30634 -0.133114,0.53832 -1.978306,0.51553 -1.845193,-0.0228 -2.464659,-0.27343 -1.37659,-0.55696 z m -3.655754,-8.06672 c 0,-0.55748 1.006469,-0.75041 2.236597,-0.42872 1.230129,0.32169 2.236598,0.77781 2.236598,1.0136 0,0.2358 -1.006469,0.42872 -2.236598,0.42872 -1.230128,0 -2.236597,-0.45612 -2.236597,-1.0136 z m 1.957023,-6.43681 c 0.76883,-0.31023 2.026916,-0.31023 2.795746,0 0.76883,0.31022 0.139787,0.56405 -1.397873,0.56405 -1.537661,0 -2.166704,-0.25383 -1.397873,-0.56405 z m 3.914045,-5.62175 c 1.076362,-0.28127 2.837682,-0.28127 3.914045,0 1.076362,0.28129 0.195702,0.51143 -1.957023,0.51143 -2.152724,0 -3.033385,-0.23014 -1.957022,-0.51143 z m 3.075321,-3.85739 c 0,-0.52977 1.258086,-0.96322 2.795746,-0.96322 1.537661,0 2.795747,0.19295 2.795747,0.42877 0,0.23584 -1.258086,0.66928 -2.795747,0.96323 -1.53766,0.29394 -2.795746,0.10098 -2.795746,-0.42878 z m 3.354896,-4.31812 c 0.922596,-0.59623 2.180682,-1.08404 2.795746,-1.08404 0.615064,0 0.363447,0.48781 -0.559149,1.08404 -0.922596,0.59623 -2.180682,1.08405 -2.795747,1.08405 -0.615064,0 -0.363447,-0.48782 0.55915,-1.08405 z m 2.537455,-6.36646 c 1.088068,-0.28354 2.597771,-0.26489 3.354896,0.0415 0.757124,0.30633 -0.133114,0.53831 -1.978306,0.51552 -1.845193,-0.0228 -2.464659,-0.27342 -1.37659,-0.55696 z m 5.57021,-8.9423 c 1.076362,-0.28127 2.837682,-0.28127 3.914045,0 1.076362,0.28129 0.195702,0.51143 -1.957023,0.51143 -2.152725,0 -3.033385,-0.23014 -1.957022,-0.51143 z m 0.279574,-2.54504 c 2.721664,-1.21697 5.703381,-1.45555 4.617292,-0.36946 -0.4333,0.4333 -2.152684,0.9187 -3.820853,1.07867 -2.615168,0.25078 -2.724894,0.15306 -0.796439,-0.70921 z m 3.647509,-6.4214 c 1.391066,-0.26748 3.404004,-0.25733 4.473194,0.0226 1.069192,0.2799 -0.06895,0.49876 -2.52921,0.48635 -2.460257,-0.0124 -3.335049,-0.24143 -1.943984,-0.50892 z m 1.384835,-3.61276 c 0,-0.57684 0.971606,-0.97562 2.159124,-0.88616 1.187517,0.0895 1.912669,0.56142 1.611449,1.0488 -0.766355,1.23998 -3.770573,1.1104 -3.770573,-0.16264 z m 2.236597,-4.40291 c 0,-0.53818 1.311812,-0.97851 2.915139,-0.97851 2.057303,0 2.468655,0.2829 1.397874,0.96139 -1.974922,1.25136 -4.313013,1.26064 -4.313013,0.0171 z m 2.516172,-5.38386 c 1.076362,-0.28127 2.837683,-0.28127 3.914045,0 1.076362,0.28129 0.195702,0.51143 -1.957023,0.51143 -2.152724,0 -3.033384,-0.23014 -1.957022,-0.51143 z m 4.286811,-5.22244 c 0.256277,-0.22101 1.975661,-0.73953 3.820854,-1.15228 2.450098,-0.54804 2.902497,-0.4443 1.677448,0.38471 -1.510117,1.02191 -6.620499,1.73532 -5.498302,0.76757 z m -1.933465,-3.72216 c 1.093727,-1.09373 5.485811,-1.33521 7.238685,-0.39799 0.818193,0.43746 -0.645291,0.87709 -3.260928,0.97958 -2.609911,0.10233 -4.399902,-0.15944 -3.977757,-0.58159 z m 2.37172,-4.86723 c -0.471493,-0.76289 0.37161,-0.90117 2.450174,-0.40183 4.284663,1.0293 4.6902,1.56495 1.184807,1.56495 -1.603873,0 -3.239614,-0.5234 -3.634981,-1.16312 z m 2.613768,-4.07399 c 0.807272,-0.32304 1.771805,-0.28332 2.143406,0.0882 0.371601,0.3716 -0.288894,0.63591 -1.467766,0.58736 -1.302755,-0.0537 -1.567743,-0.31865 -0.67564,-0.67564 z m 0.209681,-3.67418 c 0,-0.59575 0.754852,-0.79354 1.677448,-0.4395 0.922597,0.35404 1.677448,0.84147 1.677448,1.0832 0,0.24172 -0.754851,0.4395 -1.677448,0.4395 -0.922596,0 -1.677448,-0.48744 -1.677448,-1.0832 z m -5.591493,-6.45715 c 0,-0.62269 0.749311,-1.75405 1.665136,-2.51411 0.915824,-0.76008 1.410849,-1.79338 1.100057,-2.29626 -0.310793,-0.50288 -0.07012,-1.22022 0.534832,-1.5941 0.604951,-0.37387 0.814079,-2.10893 0.464729,-3.85568 -0.34935,-1.74675 -0.117481,-3.49587 0.515266,-3.88693 1.876725,-1.15988 2.609005,3.28354 1.111002,6.74147 -1.682926,3.88481 -5.391022,8.9786 -5.391022,7.40561 z M 112.11476,124.0046 c 13.81753,-1.96888 22.92513,-5.70019 22.92513,-9.39223 0,-1.76828 -1.11295,-1.60636 -5.9663,0.86802 -7.14091,3.64064 -23.82669,6.02508 -38.288534,5.47152 -4.27505,-0.92028 -10.40861,-1.35733 -15.977702,-2.77549 -7.769359,-1.97846 -13.241343,-7.84259 -16.525102,-6.87293 -4.673099,1.37991 -6.080226,0.73067 0.380299,5.08347 1.674038,1.12788 3.940186,2.5002 7.253334,3.7582 4.18103,1.58752 8.225825,4.27379 19.369538,4.46718 11.518315,1.11871 15.317117,1.03266 26.829337,-0.60774 z m -2.01174,-6.31486 c 6.37884,-1.11082 7.04386,-1.47266 6.40515,-3.48505 -0.39199,-1.23505 -0.75803,-6.39756 -0.81343,-11.47227 l -0.10076,-9.22673 -3.41707,2.08377 c -4.17194,2.544107 -6.21282,2.658643 -6.21282,0.348686 0,-0.958897 0.44142,-1.47063 0.98095,-1.137187 1.83958,1.13693 8.51923,-4.455324 10.63135,-8.90065 1.27429,-2.68196 2.14839,-7.085361 2.21213,-11.143835 0.16956,-10.795048 -0.79851,-24.043419 -1.75683,-24.043419 -0.48652,0 -0.88458,0.726788 -0.88458,1.615087 0,0.888298 -1.14289,2.943772 -2.53975,4.567719 -2.35445,2.737209 -3.47632,3.023833 -15.376607,3.92848 -9.720967,0.738972 -14.465528,0.608131 -19.546651,-0.539087 -3.690385,-0.833206 -5.83992,-1.566491 -4.776744,-1.629516 1.650548,-0.09785 1.746889,-0.523168 0.65922,-2.91034 -2.409829,-5.288999 -3.151417,-2.763723 -3.151417,10.731294 0,12.955702 1.988739,24.63708 4.453799,26.160572 0.523717,0.32368 3.343036,0.916199 6.265153,1.316718 4.881522,0.669089 5.247482,0.55764 4.506829,-1.372465 -0.443359,-1.155382 -0.448388,-1.742969 -0.01118,-1.305759 0.437215,0.437221 1.55267,0.170261 2.478791,-0.593235 1.487372,-1.226192 1.504002,-1.061948 0.14252,1.40758 -0.847733,1.53766 -1.566097,3.298981 -1.596362,3.914045 -0.03128,0.635674 -2.34086,0.957822 -5.351547,0.746453 -5.644165,-0.396258 -5.921116,-0.03804 -4.178208,5.404189 l 0.895354,2.79574 0.243902,-2.79574 c 0.134147,-1.53766 0.18431,-3.173172 0.111472,-3.63447 -0.07283,-0.461299 0.370805,-0.838724 0.985869,-0.838724 0.615064,0 1.118299,0.559238 1.118299,1.242754 0,0.805577 1.475229,1.015124 4.193619,0.595661 2.306491,-0.355898 3.564577,-0.369977 2.795747,-0.03131 -0.76883,0.338699 -1.466405,1.957779 -1.550166,3.597949 -0.134571,2.63514 -0.208684,2.68936 -0.636928,0.46597 -0.59661,-3.09749 -2.565675,-3.33898 -2.565675,-0.31463 0,1.38044 -0.558792,1.98707 -1.498281,1.62656 -2.25162,-0.86403 -4.008363,1.95052 -4.793704,7.68022 l -0.703418,5.13199 5.454724,0.42469 c 11.653373,0.90727 20.09419,0.77822 26.92725,-0.41171 z m -30.087499,-5.89677 c 0.355562,-3.04566 0.848048,-3.67508 2.53112,-3.23495 1.834748,0.47979 1.889922,0.7462 0.452286,2.18384 -0.900558,0.90055 -1.637377,2.35627 -1.637377,3.23494 0,0.87866 -0.402185,1.59757 -0.893743,1.59757 -0.491559,0 -0.695088,-1.70164 -0.452286,-3.7814 z m 6.450272,1.217 c 0.419955,-1.10289 1.045264,-1.72355 1.389574,-1.37924 0.344309,0.34432 7.09e-4,1.24667 -0.763557,2.00526 -1.104449,1.09622 -1.232901,0.96778 -0.626017,-0.62602 z M 94.86942,94.184061 c -0.04856,-1.001056 0.792373,-2.510759 1.868736,-3.354896 1.700595,-1.333705 1.793535,-1.315018 0.709306,0.142639 -0.686244,0.922596 -1.527175,2.432299 -1.868736,3.354896 -0.519482,1.403185 -0.635454,1.379857 -0.709306,-0.142639 z m 5.88911,-0.464743 c -0.36422,-0.949122 -0.34842,-2.039463 0.0351,-2.422973 0.38352,-0.38352 0.6973,-0.110197 0.6973,0.607371 0,0.717578 0.75485,1.304685 1.67745,1.304685 0.9226,0 1.67745,0.503235 1.67745,1.118299 0,1.788909 -3.35932,1.289711 -4.0873,-0.607382 z M 83.086755,92.167377 c -0.763876,-1.235977 1.000215,-2.570577 2.03286,-1.53794 1.063261,1.063267 0.865101,2.578964 -0.337171,2.578964 -0.578765,0 -1.341825,-0.468466 -1.695689,-1.041024 z m -6.110113,-2.426574 c -0.04856,-0.369508 0.461638,-2.249357 1.133769,-4.177438 1.006147,-2.886228 1.572898,-3.317824 3.207859,-2.442811 1.092192,0.584523 2.371752,0.703041 2.843468,0.263393 0.471716,-0.439659 0.229155,0.406524 -0.539023,1.880408 -1.285782,2.466989 -1.20901,2.630708 0.96682,2.061717 1.299929,-0.33994 2.363508,-0.245824 2.363508,0.209145 0,1.712025 -1.344117,2.031825 -5.038167,1.198681 -2.528685,-0.570321 -3.982925,-0.432591 -4.32892,0.409969 -0.286565,0.697829 -0.560756,0.966456 -0.609314,0.596936 z m 5.24693,-4.150811 c 0.243463,-0.730394 -0.354128,-1.32798 -1.32798,-1.32798 -0.973851,0 -1.770639,0.796788 -1.770639,1.770636 0,1.974837 2.407427,1.630916 3.098619,-0.442656 z m -6.013901,-4.96245 c 0.334669,-1.076362 0.12105,-1.957023 -0.474712,-1.957023 -0.59576,0 -1.083201,0.587107 -1.083201,1.304686 0,0.717567 -0.297745,1.006938 -0.661657,0.643022 -1.282839,-1.282845 1.203086,-4.113673 2.764845,-3.148458 1.196204,0.739296 1.233594,1.370855 0.179068,3.024606 -1.139568,1.787108 -1.2446,1.806421 -0.724343,0.133167 z m 3.823899,-0.484346 c 0.807272,-0.323054 1.771805,-0.283321 2.143406,0.08835 0.371601,0.3716 -0.288894,0.63591 -1.467766,0.587353 -1.302755,-0.05368 -1.567743,-0.318648 -0.67564,-0.675642 z m -0.06989,-3.331602 c 0.76883,-0.310227 2.026916,-0.310227 2.795746,0 0.768831,0.310227 0.139788,0.564059 -1.397873,0.564059 -1.537661,0 -2.166703,-0.253832 -1.397873,-0.564059 z m 2.306488,-2.259891 c 0.807271,-0.323043 1.771804,-0.283321 2.143406,0.08835 0.3716,0.3716 -0.288895,0.63591 -1.467767,0.587353 -1.302754,-0.05368 -1.567743,-0.318653 -0.675639,-0.675647 z M 79.963677,62.273712 c 0.76883,-0.310227 2.026916,-0.310227 2.795746,0 0.768831,0.310228 0.139788,0.564059 -1.397873,0.564059 -1.537661,0 -2.166703,-0.253831 -1.397873,-0.564059 z M 75.75658,108.585 c -0.0097,-5.86944 -0.91109,-10.886138 -3.264968,-18.172345 -1.78832,-5.535578 -3.543576,-9.938879 -3.900568,-9.785113 -0.356992,0.153766 -1.03126,0.279575 -1.498372,0.279575 -2.196839,0 -4.201455,5.885717 -4.951456,14.537881 -0.453185,5.228042 -0.968922,10.763622 -1.146082,12.301282 -0.274145,2.37945 0.581976,3.25368 5.749487,5.87107 8.847883,4.48153 9.027607,4.38118 9.011959,-5.03235 z m 52.38313,4.07905 c 5.76247,-2.87155 5.83033,-2.96464 5.09539,-6.98936 -0.40965,-2.24348 -1.24274,-5.33714 -1.8513,-6.874796 -0.60855,-1.53766 -1.98242,-6.06677 -3.05304,-10.064687 -1.52628,-5.699465 -2.44544,-7.34408 -4.25706,-7.616933 -1.82478,-0.274833 -2.57949,0.547977 -3.59016,3.914045 -2.95879,9.854436 -2.66986,30.542051 0.42657,30.542051 0.76414,0 4.01746,-1.30964 7.2296,-2.91032 z m 17.49821,-1.7546 c 2.75309,-1.25439 4.9675,-5.86318 3.51501,-7.31568 -0.38141,-0.3814 -0.69346,0.33528 -0.69346,1.5926 0,5.29165 -6.28296,5.95768 -9.52499,1.0097 -2.47111,-3.77138 -4.98717,-12.959432 -5.00079,-18.261643 -0.0209,-8.127985 -5.10718,-15.830948 -8.30677,-12.580177 -0.87131,0.885256 -0.69182,1.613951 0.64008,2.598545 1.01803,0.752582 2.41391,3.458987 3.10197,6.014255 2.09858,7.793524 6.76478,21.95636 8.09408,24.5671 0.69038,1.35593 2.06312,2.68145 3.05052,2.9456 0.98739,0.26416 1.89739,0.53865 2.02222,0.61 0.12482,0.0713 1.52078,-0.45979 3.10213,-1.1803 z m -92.142373,-0.92657 c 0.56476,0 2.033305,-1.00647 3.263434,-2.2366 1.795231,-1.79523 2.236597,-3.72766 2.236597,-9.79249 0,-9.808038 1.39214,-14.391486 5.730742,-18.867789 2.938894,-3.032166 3.141839,-3.541685 1.209404,-3.036348 -5.260096,1.375552 -9.046951,9.367472 -9.127658,19.263353 -0.06688,8.201054 -3.821546,14.423824 -8.239873,13.656294 -0.507015,-0.088 -0.581921,0.38987 -0.166458,1.06211 0.415464,0.67223 1.500496,0.93632 2.411183,0.58685 0.910686,-0.34946 2.117871,-0.63538 2.682629,-0.63538 z m -4.378678,-5.92655 C 45.335498,99.50005 46.744429,84.268979 52.942742,62.697223 58.933508,41.847783 61.91559,36.074816 67.382818,34.7429 c 1.845706,-0.449648 1.747982,-0.566818 -0.55915,-0.67042 -3.919366,-0.176001 -9.618119,3.586791 -11.788425,7.7837 -3.259109,6.302422 -7.225,21.367773 -9.540779,36.242844 -2.439839,15.671971 -2.117522,21.85671 1.318109,25.292346 2.387723,2.38772 4.158047,2.89858 2.304296,0.66496 z m 96.037291,-2.61093 c 1.64064,-4.971164 0.9005,-11.974397 -2.76149,-26.129776 -1.51162,-5.84311 -3.56765,-15.404564 -4.56899,-21.247674 -2.07284,-12.095752 -4.89817,-19.386779 -8.19658,-21.152032 -2.9324,-1.569375 -10.24339,-1.57422 -10.24339,-0.0068 0,0.761306 1.24751,0.933154 3.3777,0.465288 6.5095,-1.429728 10.84501,6.155481 13.42585,23.489277 0.54947,3.690386 2.33825,13.251839 3.97507,21.247674 4.23414,20.683625 4.18551,20.278991 2.88555,24.008033 -0.65001,1.86465 -0.74383,3.39028 -0.20845,3.39028 0.53536,0 1.577,-1.82893 2.31473,-4.06429 z m -61.556013,0.70939 c 0,-0.61506 -0.503234,-1.1183 -1.118298,-1.1183 -0.615065,0 -1.118299,0.50324 -1.118299,1.1183 0,0.61506 0.503234,1.1183 1.118299,1.1183 0.615064,0 1.118298,-0.50324 1.118298,-1.1183 z M 53.404085,93.970522 c 0,-0.810957 0.80384,-4.181296 1.78631,-7.489626 1.977627,-6.659401 7.748566,-13.40187 11.47077,-13.40187 1.73279,0 2.475127,-0.945476 3.019146,-3.845348 1.201675,-6.40548 -0.139154,-15.879045 -2.709998,-19.147343 -2.703775,-3.437294 -1.590814,-7.201371 2.129299,-7.201371 2.312757,0 2.810474,-1.774058 1.2074,-4.303652 -1.961131,-3.094595 -5.15896,-0.732413 -8.67257,6.406283 -1.931479,3.924235 -3.80745,8.704961 -4.168825,10.623837 -0.361376,1.918874 -1.926518,8.017971 -3.478093,13.553549 -1.551576,5.535578 -3.146278,13.713137 -3.543786,18.172353 -0.630681,7.07496 -0.488175,8.107664 1.118805,8.107664 1.012848,0 1.841542,-0.663508 1.841542,-1.474476 z m 87.203095,0.0766 c -0.0133,-0.76883 -1.00183,-5.819335 -2.19669,-11.223334 -1.19488,-5.403999 -2.95573,-15.100252 -3.91302,-21.547221 -1.7957,-12.093413 -5.12598,-22.844961 -7.75103,-25.023554 -1.94967,-1.618089 -7.36273,0.330826 -7.36273,2.650878 0,0.91618 1.00647,2.204427 2.2366,2.862772 2.34496,1.254984 3.08334,6.054476 1.11829,7.268941 -1.23804,0.765154 -1.48227,12.186938 -0.40051,18.731501 0.56556,3.421681 1.16401,4.19362 3.25111,4.19362 1.40689,0 3.37542,0.313683 4.37452,0.697069 2.68598,1.030713 6.19225,8.662777 6.20973,13.516685 0.0212,5.882184 1.08512,9.270516 2.91091,9.270516 0.85086,0 1.53613,-0.629043 1.52282,-1.397873 z M 84.99602,57.800517 c -0.76883,-0.31023 -2.026916,-0.31023 -2.795746,0 -0.76883,0.31023 -0.139787,0.564054 1.397873,0.564054 1.537661,0 2.166704,-0.253824 1.397873,-0.564054 z m 26.4217,-1.422168 c 3.10494,-1.66172 3.07418,-4.546996 -0.0485,-4.546996 -1.33263,0 -2.07171,-0.351273 -1.64237,-0.780607 0.42933,-0.429334 -0.36746,-1.41797 -1.77065,-2.196969 -2.06437,-1.146066 -2.17487,-1.423926 -0.57904,-1.455991 1.0847,-0.0218 2.91888,0.551591 4.07595,1.274191 2.62297,1.63807 9.60804,-0.102022 9.60804,-2.393514 0,-0.855324 -1.50971,-1.961108 -3.3549,-2.457298 -4.28602,-1.152549 -47.533028,0.858409 -48.9508,2.276181 -2.742195,2.742195 4.218837,4.879047 8.031484,2.465452 0.86682,-0.548739 2.218939,-0.751004 3.004709,-0.449476 1.818134,0.697683 0.725119,3.718031 -1.345495,3.718031 -1.856653,0 -1.928164,0.573308 -0.422445,3.386771 0.708095,1.323088 1.809585,1.862709 2.92697,1.433929 1.484978,-0.56984 1.338511,-0.938723 -0.855783,-2.155327 -2.43382,-1.349405 -2.151199,-1.460552 3.503247,-1.377722 3.382853,0.04955 5.144174,0.332183 3.914045,0.628068 -3.104801,0.746804 -4.846643,2.557476 -2.460257,2.557476 1.04561,0 1.901108,0.576411 1.901108,1.280913 0,1.656118 21.055917,0.617196 24.464677,-1.207112 z M 84.111313,49.520354 c -0.40542,-0.655985 -0.497288,-1.43254 -0.204151,-1.725677 0.293138,-0.293139 0.83097,0.243576 1.195183,1.1927 0.756176,1.970561 0.111662,2.317179 -0.991032,0.532977 z m 8.992372,0.0744 c -0.380131,-0.615064 -0.158212,-1.118299 0.493151,-1.118299 0.651363,0 1.184297,0.503235 1.184297,1.118299 0,0.615064 -0.221917,1.118298 -0.49315,1.118298 -0.271234,0 -0.804167,-0.503234 -1.184298,-1.118298 z m 5.032344,-1.083201 c 0,-0.595761 0.754852,-0.793538 1.677448,-0.439504 0.922593,0.354034 1.677453,0.841474 1.677453,1.083201 0,0.241727 -0.75486,0.439504 -1.677453,0.439504 -0.922596,0 -1.677448,-0.487441 -1.677448,-1.083201 z m 5.218731,0.337668 c -0.41005,-0.410042 -0.74554,-1.26554 -0.74554,-1.901108 0,-0.70073 0.52087,-0.634703 1.32332,0.167745 0.72783,0.727827 1.06332,1.583325 0.74554,1.901108 -0.31779,0.317783 -0.91328,0.242298 -1.32332,-0.167745 z m 13.36247,-8.619866 c 0.0711,-0.07707 0.47595,-6.611748 0.89967,-14.521492 l 0.7704,-14.381352 -13.20096,0.768298 c -7.260523,0.422565 -17.98168,1.219803 -23.82479,1.771642 -5.84311,0.551839 -11.317197,1.016327 -12.164637,1.032195 -1.872842,0.03507 -1.200545,5.28547 2.337238,18.253026 l 2.378602,8.718637 21.337602,-0.750407 C 106.98603,40.707178 116.64613,40.306433 116.71723,40.229356 z M 77.848144,39.881341 c -2.120082,-0.341931 -2.811769,-1.011385 -2.449632,-2.370893 0.394289,-1.480205 2.027047,-1.958775 7.467391,-2.188727 6.329876,-0.267552 6.962765,-0.08967 6.962765,1.957022 0,1.513959 -0.745625,2.256327 -2.276537,2.266596 -1.252095,0.0084 -3.283005,0.19464 -4.513133,0.41387 -1.230129,0.21923 -3.566013,0.184189 -5.190854,-0.07787 z m 7.707026,-2.270557 c -1.691427,-0.25623 -4.459216,-0.25623 -6.150643,0 -1.691426,0.256229 -0.307532,0.465872 3.075322,0.465872 3.382853,0 4.766747,-0.209643 3.075321,-0.465872 z m -7.548516,-4.602938 c 0,-0.511901 2.893598,-0.725353 6.430217,-0.474339 9.320615,0.661538 9.790947,1.215347 1.118299,1.316782 -4.151684,0.04856 -7.548516,-0.330542 -7.548516,-0.842443 z m -3.075321,-4.096952 c -2.246371,-2.551441 -1.763483,-2.800409 5.431564,-2.800409 5.504491,0 6.708796,0.314385 6.207594,1.620496 -0.415622,1.083096 -0.08444,1.414276 0.998654,0.998654 0.891272,-0.342014 1.620495,-0.06477 1.620495,0.616101 0,1.890455 -12.547964,1.507775 -14.258307,-0.434842 z m -0.279575,-4.924241 c 0,-1.160547 12.946546,-0.958569 14.125485,0.220371 0.43184,0.43184 -2.569733,0.785163 -6.67016,0.785163 -4.100429,0 -7.455325,-0.452491 -7.455325,-1.005534 z M 70.98977,19.465449 c -0.790932,-3.02453 -0.04743,-3.442168 5.805394,-3.260959 l 5.125535,0.158693 -4.473194,0.800914 -4.473194,0.800913 4.752769,0.158693 c 3.408621,0.113812 4.752769,0.633097 4.752769,1.83614 0,1.262064 -1.352317,1.677448 -5.461065,1.677448 -4.466296,0 -5.56452,-0.395615 -6.029014,-2.171842 z m 5.595713,0.377904 c -0.371601,-0.3716 -1.336134,-0.41133 -2.143406,-0.08829 -0.892103,0.35699 -0.627115,0.621978 0.67564,0.675639 1.178872,0.04856 1.839367,-0.215751 1.467766,-0.58735 z"
     id="path11859"
     inkscape:connector-curvature="0"
     sodipodi:nodetypes="ssssssssssssssssssssssssscsssscsssssscsssssssssssssscsscsscccscsssssssssssssssssssssssssssssssssssssscssccccccsssssssssscscccccsssscccsscccscsscsssssssssssssssssscsssssssssssscsssssssssssssscccccccsccssssssssscccccccccccccccccccccccccssssscccccssssssssssssssssssssssscccccssssssssccsccsssssssssssssssssccssssscccccsssssssscssssssscsssscsssscsssssssssssssssssssssscssssssssssscssssssssssssssssssssssssssssssssssssssssssssssssssssssssssssssssssssssssssssssssscsssssssssssssssscsssssssssssssssssssssssssssssssssssssssssssssssssscssssssssssssssssssssssssssssssssssssssssssssscscsssscscssssssssssssssssssssssssssscccssssssss" />
</svg>
