<?xml version="1.0" encoding="UTF-8" standalone="no"?>
<!-- Created with Inkscape (http://www.inkscape.org/) -->

<svg
   xmlns:dc="http://purl.org/dc/elements/1.1/"
   xmlns:cc="http://creativecommons.org/ns#"
   xmlns:rdf="http://www.w3.org/1999/02/22-rdf-syntax-ns#"
   xmlns:svg="http://www.w3.org/2000/svg"
   xmlns="http://www.w3.org/2000/svg"
   xmlns:sodipodi="http://sodipodi.sourceforge.net/DTD/sodipodi-0.dtd"
   xmlns:inkscape="http://www.inkscape.org/namespaces/inkscape"
   id="svg6405"
   version="1.1"
   inkscape:version="0.48.4 r9939"
   width="500"
   height="300"
   sodipodi:docname="Box.svg">
  <metadata
     id="metadata6411">
    <rdf:RDF>
      <cc:Work
         rdf:about="">
        <dc:format>image/svg+xml</dc:format>
        <dc:type
           rdf:resource="http://purl.org/dc/dcmitype/StillImage" />
        <dc:title />
      </cc:Work>
    </rdf:RDF>
  </metadata>
  <defs
     id="defs6409" />
  <sodipodi:namedview
     pagecolor="#ffffff"
     bordercolor="#666666"
     borderopacity="1"
     objecttolerance="10"
     gridtolerance="10"
     guidetolerance="10"
     inkscape:pageopacity="0"
     inkscape:pageshadow="2"
     inkscape:window-width="1280"
     inkscape:window-height="756"
     id="namedview6407"
     showgrid="false"
     inkscape:zoom="0.94366195"
     inkscape:cx="266.98789"
     inkscape:cy="81.663437"
     inkscape:window-x="0"
     inkscape:window-y="22"
     inkscape:window-maximized="0"
     inkscape:current-layer="svg6405" />
  <path
     style="fill:#96610f;fill-opacity:1;stroke:none"
     d="M 19.075736,54.715968 12.006923,185.87513 c 23.49795,35.54755 53.810596,69.73216 84.472501,103.84693 48.574366,3.23331 125.238436,-10.41451 206.328856,-22.38586 47.53732,-7.01792 132.45399,-14.04234 182.70963,-35.73742 6.95721,-27.42016 1.18866,-54.78038 -3.09992,-82.14757 C 443.8682,95.387088 374.20082,28.152248 344.28403,12.695293 233.77898,21.859408 84.027025,38.679828 19.075736,54.715968 z"
     id="path6417"
     inkscape:connector-curvature="0"
     sodipodi:nodetypes="cccscccc" />
  <path
     style="fill:#f8d828;fill-opacity:1;stroke:none"
     d="m 253.03862,229.36372 c -9.48345,-18.45712 11.3549,-18.14359 31.78351,-18.08373 27.30415,-3.31661 38.01355,-8.65271 40.27738,7.1239 l -26.30359,4.10993 c -2.82601,8.40528 12.7323,6.46937 20.27569,9.04186 6.74795,6.5394 12.27622,12.93187 -10.68584,15.89175 -6.94123,-0.12169 -13.88245,-0.21518 -20.82368,4.65793 -9.04186,-4.07665 -18.08371,-0.51457 -27.12557,0.82199 -12.40227,-0.0575 -17.67522,-3.44204 -8.21988,-13.69978 7.74263,-4.40722 23.94996,-7.7222 21.64566,-13.4258 z"
     id="path6927"
     inkscape:connector-curvature="0"
     sodipodi:nodetypes="ccccccccccc" />
  <path
     style="fill:#000000"
     d="M 85.34897,280.20949 C 63.863443,258.23017 48.925561,241.52411 39.901986,229.383 c -4.783084,-6.43559 -9.285657,-11.92046 -10.005719,-12.1886 -0.72006,-0.26816 -1.309201,-1.51674 -1.309201,-2.77463 0,-1.2579 -2.255653,-5.03981 -5.012562,-8.40426 -10.519735,-12.83795 -11.777279,-16.95224 -11.634078,-38.06309 0.07094,-10.45782 0.910519,-26.50453 1.865736,-35.65934 0.955214,-9.15481 1.991773,-26.73539 2.303462,-39.067962 0.311688,-12.33257 1.206387,-23.56589 1.988217,-24.96295 0.891294,-1.59265 0.915134,-3.87196 0.06392,-6.11084 -0.746679,-1.96391 -1.010089,-3.91826 -0.585358,-4.34299 1.065833,-1.06583 0.760107,-1.6601 9.63482,18.72838 7.789792,17.89602 12.231515,25.265302 31.296796,51.924622 17.471257,24.43037 35.777628,51.13942 41.101988,59.96794 8.108893,13.44565 8.309993,13.8971 6.182403,13.87917 -1.03386,-0.009 -4.10111,-3.87485 -6.816123,-8.59142 -2.715,-4.71655 -9.422662,-15.07583 -14.905915,-23.02061 C 78.587115,162.75164 68.685483,148.35314 62.066742,138.69977 55.448003,129.04639 47.9092,118.51543 45.313849,115.29764 38.852736,107.28696 32.420204,96.065478 27.064596,83.462008 c -2.472841,-5.8194 -5.031412,-11.12095 -5.685713,-11.78123 -0.6543,-0.66028 -1.297579,4.6052 -1.429509,11.70106 -0.131929,7.09587 -0.511158,18.368742 -0.842729,25.050832 -0.33157,6.68209 -0.144128,13.26394 0.416543,14.62633 0.56067,1.36239 1.375344,-7.3957 1.810388,-19.46242 l 0.790991,-21.939492 0.305984,23.767782 c 0.18881,14.66611 0.866088,23.76778 1.768617,23.76778 0.873651,0 1.532318,-6.33155 1.635684,-15.7233 0.09517,-8.64782 0.65014,-17.697852 1.233251,-20.111202 0.583109,-2.41334 0.735957,5.95709 0.339663,18.600962 -0.57136,18.22933 -0.302025,23.49314 1.300905,25.42455 1.848676,2.22752 2.104913,2.13783 2.998072,-1.04937 0.902767,-3.22148 0.990087,-3.15319 1.154549,0.90284 0.09785,2.41335 1.644378,7.34973 3.436719,10.96975 l 3.258801,6.58185 0.731316,-19.01423 c 0.486329,-12.64453 1.140207,-17.88534 1.9519,-15.64439 0.671322,1.85341 0.804947,11.068 0.296945,20.47686 -0.851505,15.77098 -0.692355,17.3926 2.037816,20.7636 l 2.961457,3.65659 0.131242,-10.96975 c 0.150211,-12.55593 1.017356,-20.62182 2.347295,-21.83375 0.50521,-0.46038 0.519148,7.4065 0.03096,17.48196 -0.805242,16.61934 -0.621447,18.7228 1.98092,22.67081 l 2.868517,4.35179 0.0097,-14.17435 c 0.0053,-7.79589 0.536972,-14.50026 1.181493,-14.89859 0.644521,-0.39834 1.191787,6.30921 1.216146,14.90566 0.03288,11.60359 0.65787,16.76025 2.426165,20.01781 l 2.381877,4.3879 0.188531,-5.85053 c 0.103686,-3.2178 0.08479,-8.9101 -0.04199,-12.64957 -0.126795,-3.73947 0.472908,-7.23379 1.332664,-7.76515 1.071619,-0.6623 1.563166,3.9131 1.563166,14.5505 0,12.01941 0.576894,16.5716 2.559608,20.19752 l 2.559607,4.68092 0.81067,-15.35764 c 0.946021,-17.92176 1.438641,-16.78948 1.61987,3.72323 0.102282,11.57651 0.663217,15.35171 2.644595,17.79861 2.420687,2.98943 2.489186,2.70679 1.830712,-7.55364 -0.407008,-6.34205 -0.03677,-11.77365 0.914121,-13.4107 1.251931,-2.15533 1.654746,0.10062 1.859225,10.41224 0.353927,17.84818 0.121428,16.59466 4.704164,25.36236 5.246232,10.03713 15.650776,21.53337 17.208066,19.01363 0.61791,-0.99981 1.57362,-6.62157 2.1238,-12.49281 0.55018,-5.87125 1.66608,-10.675 2.47978,-10.675 0.9642,0 1.1208,4.58452 0.44967,13.16369 -0.56638,7.24004 -0.48673,13.15843 0.177,13.15201 2.858,-0.0276 37.07799,-4.41857 45.08576,-5.78513 4.82669,-0.82369 25.8886,-2.83043 46.80425,-4.45941 20.91565,-1.62899 41.14917,-3.36271 44.96338,-3.85271 l 6.93493,-0.89092 -0.84375,-5.29811 c -0.70783,-4.44457 -0.21973,-5.88326 3.02968,-8.93026 4.10355,-3.84795 5.04329,-3.97419 35.86768,-4.81838 6.8378,-0.18728 13.74874,-1.07316 15.35764,-1.96865 1.6089,-0.89548 5.39353,-2.07372 8.41031,-2.6183 4.64603,-0.83869 6.04435,-0.43085 9.14146,2.66626 2.01102,2.01102 3.6564,5.07946 3.6564,6.81875 0,2.56305 0.62367,2.99689 3.29093,2.28932 3.61207,-0.9582 19.48452,-3.28576 61.79623,-9.06191 15.28452,-2.08654 34.37187,-5.04466 42.41635,-6.57359 20.28034,-3.85449 46.39963,-7.39565 47.37266,-6.42261 1.74717,1.74718 -3.76811,3.33829 -17.22366,4.96888 -7.73302,0.93712 -22.28735,3.27191 -32.34295,5.18841 -10.0556,1.91651 -21.90292,3.91019 -26.32739,4.43039 -4.42446,0.5202 -13.63905,1.83476 -20.47685,2.92123 -6.83781,1.08647 -16.71058,2.35368 -21.9395,2.81604 -5.22891,0.46233 -16.98514,2.1239 -26.12497,3.69235 -9.13982,1.56844 -17.03804,2.7709 -17.5516,2.67213 -2.76238,-0.5313 -19.21664,2.30825 -19.21664,3.31629 0,1.99408 3.07202,3.23947 9.35968,3.7944 8.68148,0.76622 15.31409,3.2516 16.97895,6.3624 4.18383,7.81756 -0.99097,12.54156 -15.13375,13.81538 -16.17936,1.45724 -18.54378,2.17147 -20.35604,6.14895 l -1.65066,3.62277 -2.39452,-3.17451 c -2.68311,-3.55708 -9.62083,-4.20617 -16.51719,-1.54535 -2.26459,0.87375 -7.36552,1.58864 -11.3354,1.58864 -8.16591,0 -13.06848,-3.48149 -13.06848,-9.28042 0,-4.76643 3.50683,-7.47236 15.16622,-11.70255 5.52585,-2.00486 10.65153,-4.24973 11.3904,-4.98859 0.73884,-0.73885 -6.08595,-0.14524 -15.16623,1.31932 -9.08028,1.46448 -33.9515,3.97758 -55.26937,5.58464 -21.31787,1.60709 -45.01252,3.90936 -52.65478,5.11618 -7.64226,1.20681 -20.47686,2.92583 -28.52134,3.82006 -8.04448,0.89421 -14.88538,1.87892 -15.20199,2.18826 -0.31662,0.30933 -0.9748,8.42197 -1.46264,18.0281 -0.83188,16.38111 -1.80419,20.93193 -4.002519,18.73359 -0.50688,-0.50687 -0.29692,-9.16455 0.46657,-19.23928 l 1.388169,-18.31768 -7.905809,-8.16229 c -4.348249,-4.48928 -9.198176,-10.915 -10.777664,-14.27939 -1.579488,-3.36439 -8.787755,-14.67349 -16.018369,-25.13131 -7.230616,-10.45782 -21.184364,-31.12209 -31.00833,-45.92057 L 17.61732,125.84078 16.684058,139.58344 c -0.513295,7.55845 -0.91041,18.67904 -0.882479,24.7124 l 0.05078,10.96975 0.974057,-10.57379 c 0.53573,-5.81557 1.508888,-11.08105 2.162573,-11.70106 0.653685,-0.61999 0.795548,2.49274 0.31525,6.9172 -0.480298,4.42447 -1.029195,13.33905 -1.219772,19.81018 -0.293881,9.97891 0.146793,12.56387 2.901769,17.0215 6.069493,9.82066 6.824685,9.41014 7.347506,-3.99402 0.262897,-6.74021 1.016487,-14.08877 1.674646,-16.33011 0.683643,-2.32813 0.857304,3.52585 0.405086,13.65511 -0.65019,14.56363 -0.386805,18.30817 1.474706,20.96585 2.142422,3.05873 2.323395,2.52942 3.311582,-9.6858 0.574921,-7.10676 1.619893,-13.90865 2.32216,-15.11532 1.203073,-2.06718 0.938136,3.8924 -0.990711,22.28542 -0.521808,4.97583 0.0082,8.27269 1.880862,11.70106 l 2.60737,4.77329 0.349553,-8.04448 c 0.545634,-12.55702 1.957671,-23.40234 3.046616,-23.3999 0.545451,10e-4 0.924667,8.54385 0.842701,18.98358 -0.128726,16.39495 0.202436,19.29943 2.430314,21.31564 2.437181,2.20562 2.507776,2.02592 1.280895,-3.26028 -1.728712,-7.44843 -1.674582,-21.14017 0.0944,-23.87747 1.232075,-1.9065 2.386328,15.55323 1.885531,28.52134 -0.0682,1.76595 5.064616,8.43199 12.951534,16.82028 l 13.064501,13.89501 -0.788772,-6.58185 c -0.433824,-3.62002 -0.197202,-8.88549 0.525829,-11.70106 1.17622,-4.58035 1.330358,-4.08907 1.464316,4.66723 0.08641,5.64826 0.861881,10.2266 1.833923,10.82736 1.217377,0.75238 1.102608,1.48577 -0.414062,2.64592 -1.725193,1.31966 -0.562989,3.16538 6.53652,10.38083 4.749135,4.82668 8.224969,7.56643 7.724069,6.08832 -1.48299,-4.37615 -2.854786,-14.93791 -1.81689,-13.98854 0.52648,0.48157 1.95911,4.72205 3.18363,9.4233 1.22452,4.70125 3.00841,9.49 3.9642,10.64166 2.344869,2.82538 27.080719,1.6943 53.732599,-2.457 35.46048,-5.52336 62.0335,-8.99025 68.8548,-8.98327 6.76071,0.007 20.88175,-1.82541 56.93162,-7.38732 10.86004,-1.67554 26.65648,-3.95401 35.10318,-5.06326 8.44671,-1.10926 18.64857,-2.70287 22.67081,-3.54134 4.02224,-0.83848 18.8314,-3.18683 32.90924,-5.21854 51.17696,-7.38584 95.25941,-16.12212 107.18141,-21.24124 3.84508,-1.65102 7.62964,-2.60721 8.41013,-2.12483 1.79944,1.11211 1.77364,1.59829 1.44283,-27.18117 -0.15316,-13.32595 -1.14215,-28.79329 -2.19774,-34.37187 -1.93264,-10.21382 -1.6977,-13.30951 0.71397,-9.40733 2.39662,3.8778 4.20939,20.95471 4.91432,46.29456 0.6264,22.51679 0.44751,25.17336 -1.74381,25.89713 -1.34299,0.44356 -6.06182,2.1688 -10.48629,3.83387 -14.30431,5.38316 -58.14765,14.24597 -101.65298,20.54887 -11.26227,1.63164 -28.37507,4.23175 -38.02845,5.77803 -9.65337,1.54628 -28.74073,4.49432 -42.41635,6.55119 -13.67561,2.05689 -30.88567,4.73206 -38.24455,5.94483 -7.35889,1.21277 -22.16805,2.85727 -32.90924,3.65446 -10.7412,0.79718 -22.82036,2.0974 -26.8426,2.88936 -4.02224,0.79196 -16.19866,2.42012 -27.05871,3.61813 -10.86005,1.19801 -24.90438,3.17812 -31.20961,4.40024 -6.30524,1.22212 -18.19816,2.22203 -26.42871,2.22203 l -14.964639,0 -12.510511,-12.79803 z m 185.7742,-30.62301 c 7.72507,-1.80691 11.38531,-2.07808 13.13682,-0.97325 1.79343,1.13125 3.96421,0.83371 8.30542,-1.1384 3.83983,-1.74434 9.42684,-2.68885 16.11583,-2.72446 10.88602,-0.0579 12.82299,-0.70186 14.32033,-4.76037 1.34338,-3.64121 -4.23966,-6.85669 -13.76968,-7.93046 -9.85519,-1.11041 -12.98303,-2.68858 -12.98303,-6.55066 0,-2.79211 -0.56626,-2.95818 -6.94751,-2.03752 -11.38882,1.64312 -13.52935,2.44444 -13.52935,5.0648 0,2.46748 -7.38909,6.3809 -19.39112,10.26994 -7.10854,2.3034 -9.59936,6.57166 -6.09485,10.44412 3.13953,3.46911 7.16551,3.53408 20.83714,0.33626 z m 12.53173,-4.00814 c -0.44059,-1.14817 -0.58448,-3.61636 -0.31974,-5.48488 0.9031,-6.37425 11.45107,-4.67058 11.45107,1.84955 0,4.75695 -9.50919,7.86251 -11.13133,3.63533 z m 8.20606,-3.76296 c 0,-0.80445 -0.69703,-1.46264 -1.54896,-1.46264 -0.85192,0 -1.14217,0.65819 -0.64499,1.46264 0.49718,0.80444 1.19421,1.46263 1.54896,1.46263 0.35475,0 0.64499,-0.65819 0.64499,-1.46263 z m -20.95605,-16.84877 c 0.94317,-0.28816 1.36309,-1.86869 0.93321,-3.51256 -0.98451,-3.76477 2.52678,-5.1893 16.12358,-6.54138 9.25661,-0.92049 10.05336,-0.77373 10.77469,1.98462 0.54505,2.08431 1.93532,2.94773 4.63056,2.87579 4.02044,-0.10736 11.06431,-2.54027 7.87389,-2.71965 -2.62225,-0.14745 -2.25957,-4.41702 0.46398,-5.46215 3.4567,-1.32646 5.91711,1.78579 3.60971,4.56604 -2.21959,2.67444 -1.06166,2.88105 3.33563,0.59519 4.42531,-2.30045 4.34788,-2.13132 2.5305,-5.52715 -1.26108,-2.35636 -3.0446,-3.05054 -7.83754,-3.05054 -3.41272,0 -7.54592,0.93926 -9.18488,2.08722 -2.84501,1.99274 -21.43565,3.71619 -39.55907,3.66737 -10.05851,-0.0271 -14.06371,3.85209 -11.33068,10.97425 0.72738,1.89551 2.33,2.17455 8.41014,1.4643 4.13133,-0.48261 8.28316,-1.11321 9.22628,-1.40135 z m -14.69731,-2.95214 c -0.50017,-1.30345 0.0904,-2.61523 1.40447,-3.11949 2.73126,-1.04807 5.71995,1.55189 4.34368,3.77873 -1.43525,2.32228 -4.74991,1.94213 -5.74815,-0.65924 z m 33.09375,-1.61474 c 9.21946,-1.52388 6.09133,-3.0479 -3.54969,-1.72941 -4.96902,0.67956 -9.35691,1.55791 -9.75089,1.95189 -0.99604,0.99604 6.70823,0.86716 13.30058,-0.22248 z M 85.4694,273.18885 c -1.007518,-8.73088 -1.062876,-12.18502 -0.244954,-15.28451 0.732031,-2.77402 1.193368,-1.53841 1.911371,5.11921 0.520542,4.82669 0.394624,9.40107 -0.279816,10.1653 -0.774479,0.87758 -1.285331,0.87758 -1.386601,0 z m -16.040524,-21.5007 c -0.06155,-1.81001 -0.310875,-4.29606 -0.554055,-5.52457 -0.243182,-1.2285 0.06058,-4.84851 0.675022,-8.04448 1.046549,-5.44351 1.127803,-5.24053 1.285372,3.21099 0.09251,4.96201 0.567712,10.06294 1.056004,11.3354 0.488291,1.27248 0.159198,2.31358 -0.731317,2.31358 -0.890515,0 -1.669477,-1.48091 -1.731026,-3.29092 z m -6.981689,-10.60409 c 0.06959,-4.82669 0.682952,-10.75035 1.363016,-13.16369 0.845283,-2.99966 1.014746,-1.14868 0.535629,5.85053 -0.486674,7.10962 -0.253806,9.56797 0.76202,8.04448 1.288239,-1.93204 1.465545,-1.92177 1.485269,0.0862 0.01229,1.25403 -0.943947,3.55767 -2.125036,5.11921 -1.961889,2.59385 -2.1365,2.08092 -2.020898,-5.93664 z m -6.58497,-5.48487 c -0.507283,-4.22336 -0.886335,-10.96975 -0.842337,-14.99199 0.122276,-11.17769 2.295217,-3.77508 3.1127,10.60409 0.760171,13.37108 -0.823677,16.43217 -2.270363,4.3879 z m 40.169537,-10.53096 c -0.1141,-6.07047 0.30029,-8.23879 1.37008,-7.16901 1.03243,1.03243 1.08589,3.87662 0.16358,8.70267 l -1.37007,7.16901 -0.16359,-8.70267 z m -3.28984,-2.56965 c -0.30931,-1.04026 -0.17217,-5.84049 0.30474,-10.66718 1.0042,-10.16301 1.83543,-8.06182 1.43695,3.63231 -0.2829,8.30238 -0.77446,10.28783 -1.74169,7.03487 z m -6.176845,-3.63754 C 86.05064,218.3466 85.716246,211.9472 85.821971,204.64012 l 0.192226,-13.28557 1.173213,10.11728 c 0.645267,5.56449 1.548457,11.61236 2.007091,13.4397 0.824734,3.28601 -0.820991,5.75795 -2.629432,3.94951 z m 30.145621,-7.33051 c -4.71569,-1.739 -0.59598,-2.67719 13.16369,-2.9978 47.23191,-1.10052 106.17923,-8.42478 214.64136,-26.66935 18.90453,-3.17997 49.18103,-8.15949 67.28111,-11.06561 37.14717,-5.96431 65.87202,-11.8394 67.93929,-13.89564 1.80193,-1.79231 3.72971,-1.77009 3.72971,0.043 0,0.7838 -1.83526,2.37412 -4.07836,3.53407 -4.29126,2.21909 -7.95306,3.04298 -39.80062,8.95487 -18.04702,3.35007 -29.76041,5.25693 -72.40032,11.7863 -8.04448,1.23183 -19.89181,3.17019 -26.32739,4.30744 -29.61921,5.23415 -37.89714,6.60471 -57.04268,9.44443 -11.26227,1.67045 -24.09687,3.66689 -28.52134,4.43653 -18.88376,3.28481 -51.97171,7.32036 -71.669,8.74106 -11.6645,0.84132 -23.51183,1.86787 -26.32739,2.28122 -7.25068,1.06445 -38.39526,1.90814 -40.58806,1.09949 z M 138.6503,198.5457 c 1.47214,-1.47213 49.53107,-6.53022 51.31964,-5.40126 0.93537,0.59041 -7.51391,2.18348 -18.77618,3.54016 -21.46355,2.58555 -33.98392,3.30157 -32.54346,1.8611 z M 21.2963,182.21309 c 0.01229,-7.84337 0.547361,-15.08754 1.188986,-16.09817 0.641623,-1.01062 1.125182,5.40239 1.074577,14.25114 -0.05061,8.84876 -0.58565,16.09293 -1.188986,16.09818 -0.603336,0.006 -1.086896,-6.40778 -1.074577,-14.25115 z m 106.74979,8.74641 c 0,-1.36181 50.82978,-9.14404 59.60229,-9.12532 3.4189,0.007 6.21619,0.67144 6.21619,1.47589 0,0.80444 -3.56541,1.46263 -7.92312,1.46263 -4.35771,0 -18.34413,1.63872 -31.08094,3.6416 -25.72306,4.04499 -26.81442,4.14857 -26.81442,2.5452 z m -10.23843,-9.11207 c 0,-0.80445 1.98536,-1.46263 4.41191,-1.46263 2.42655,0 12.68157,-1.64546 22.78895,-3.65658 17.12657,-3.40778 35.9662,-4.90551 33.74326,-2.68259 -0.5357,0.53571 -4.7696,1.18096 -9.40868,1.43391 -4.63907,0.25295 -16.57739,2.11829 -26.52961,4.14522 -19.64926,4.00186 -25.00583,4.47799 -25.00583,2.22267 z m 1.09698,-15.66994 c -8.28237,-2.04991 3.04001,-3.17317 39.72222,-3.9407 3.54604,-0.0742 6.66848,0.52329 6.93877,1.32773 0.30533,0.90869 -6.29112,1.60938 -17.41707,1.8501 -9.84969,0.21311 -19.88307,0.61447 -22.29642,0.89193 -2.41334,0.27745 -5.53972,0.21938 -6.9475,-0.129 z m -11.33541,-13.12974 c 0,-1.98923 30.26189,-7.81588 39.49109,-7.60364 l 8.04448,0.18501 -8.04448,1.31102 c -10.74753,1.75151 -32.10139,5.67466 -36.20016,6.65072 -1.81001,0.43102 -3.29093,0.18662 -3.29093,-0.54311 z M 480.94224,150.193 c -1.50196,-4.30855 -12.92783,-19.95505 -22.27724,-30.50632 -4.90639,-5.53709 -33.10062,-33.747432 -55.0904,-55.121882 -5.53337,-5.37852 -16.9716,-16.7939 -25.41831,-25.36751 -10.50149,-10.65926 -18.01695,-16.93915 -23.76778,-19.860236 -4.62557,-2.349525 -8.41014,-4.920576 -8.41014,-5.713443 0,-2.072392 0.51971,-1.91467 9.85139,2.9897 5.54689,2.915229 13.93595,9.968059 24.52048,20.614819 8.84893,8.90095 20.69626,20.54158 26.32739,25.86806 21.92678,20.74051 56.42397,56.155322 64.22898,65.937452 11.37381,14.25499 14.55976,19.93447 12.87307,22.94843 -1.16107,2.0747 -1.58333,1.80845 -2.83744,-1.78907 z M 97.330804,138.14957 c 0,-0.92239 2.40703,-1.6486 5.484876,-1.6548 3.01668,-0.006 9.43398,-0.62679 14.26066,-1.37936 15.05146,-2.34679 31.44661,-3.38142 31.44661,-1.98445 0,1.14203 -12.68357,2.8632 -43.51333,5.90479 -5.157586,0.50883 -7.678816,0.21787 -7.678816,-0.88618 z m -64.18047,-20.37668 c 0.137738,-8.19919 0.826095,-14.90763 1.529686,-14.90763 1.192808,0 0.03936,27.74026 -1.212825,29.1683 -0.312011,0.35583 -0.454598,-6.06147 -0.316861,-14.26067 z m 48.822828,9.83605 c 6.130068,-1.86124 42.702848,-7.17456 49.450178,-7.18416 7.54429,-0.0107 5.71704,2.24288 -2.18645,2.6966 -3.4705,0.19924 -15.19551,1.64522 -26.05556,3.2133 -21.266517,3.07067 -28.569973,3.50949 -21.208168,1.27426 z m 1.651405,-8.34928 c -0.473921,-0.76682 1.922468,-1.77065 5.325308,-2.23075 3.402839,-0.46009 11.617005,-1.76939 18.253695,-2.90957 6.6367,-1.14017 12.06672,-1.62674 12.06672,-1.08126 0,0.54547 -6.4173,2.16495 -14.26067,3.59884 -7.843356,1.43388 -15.669772,2.92429 -17.39202,3.31201 -1.722248,0.38772 -3.519112,0.0775 -3.993033,-0.68927 z m -8.085765,-13.46419 c 2.563238,-1.4984 33.527178,-5.855472 41.612448,-5.855472 2.77437,0 5.04431,0.728602 5.04431,1.619122 0,0.89051 -1.05218,1.21535 -2.33819,0.72187 -1.286,-0.49349 -11.22423,0.42337 -22.084956,2.03746 -10.860725,1.61409 -20.833135,2.9147 -22.160912,2.89023 -2.192625,-0.0404 -2.199296,-0.17006 -0.07271,-1.41321 z M 54.914456,99.939998 c 0,-0.80445 1.480916,-1.47128 3.290924,-1.48185 1.810008,-0.0106 9.543679,-1.31829 17.185935,-2.90605 15.350072,-3.18914 23.402129,-3.69239 23.402129,-1.46263 0,0.80445 -3.12638,1.47294 -6.94751,1.48555 -3.821129,0.0126 -13.13562,1.32897 -20.698871,2.92526 -15.894035,3.354582 -16.232607,3.384612 -16.232607,1.43972 z m -6.411394,-9.96263 c -0.936889,-1.51592 25.566826,-6.20116 33.769662,-5.9697 l 5.550969,0.15664 -5.850531,1.16254 c -3.217792,0.6394 -10.786916,1.93512 -16.820277,2.87938 -6.03336,0.94426 -12.066177,2.02287 -13.406262,2.3969 -1.340085,0.37404 -2.799687,0.0924 -3.243561,-0.62576 z m -10.220156,-7.15647 c -1.085812,-1.08581 29.121811,-7.51039 36.011434,-7.65893 6.54009,-0.14102 4.582294,2.33704 -2.051761,2.59699 -3.3407,0.13091 -11.619978,1.55517 -18.398394,3.16504 -13.852784,3.29003 -14.133887,3.3243 -15.561279,1.8969 z m -3.845309,-8.76053 c 0,-0.74574 7.733671,-2.85414 17.185935,-4.68534 25.181542,-4.87845 24.870924,-4.84055 25.90881,-3.16122 0.585867,0.94796 -0.636137,1.55361 -3.151682,1.56204 -3.37238,0.0113 -20.02236,3.14473 -36.652139,6.89772 -1.810008,0.40848 -3.290924,0.13254 -3.290924,-0.6132 z m -5.119214,-9.22356 c 0.497176,-0.80445 2.229027,-1.46263 3.848558,-1.46263 1.619529,0 9.972542,-1.58882 18.562248,-3.5307 21.71554,-4.90927 28.050024,-5.80746 28.050024,-3.9773 0,0.8387 -2.468193,1.90849 -5.484873,2.37731 -3.01668,0.46882 -13.712182,2.476 -23.767782,4.46041 -20.378836,4.02162 -22.507786,4.23573 -21.208175,2.13291 z m -8.032145,-6.9475 c 0.0067,-0.60334 6.602923,-2.6733 14.658083,-4.59992 8.05516,-1.92662 14.361207,-3.78748 14.013435,-4.13525 -0.685078,-0.68508 -24.250055,3.49454 -28.158507,4.99435 -1.607382,0.61681 -2.171369,0.26874 -1.726592,-1.06559 0.363296,-1.08988 2.592206,-2.50984 4.953132,-3.15544 9.999978,-2.73454 91.511021,-14.81664 121.303211,-17.98036 4.82669,-0.51256 19.63585,-2.49485 32.90924,-4.40509 31.9006,-4.59096 59.06114,-7.529777 101.65297,-10.999009 19.30676,-1.572592 40.89746,-3.60078 47.97935,-4.507084 11.95534,-1.529984 16.02668,-1.210472 13.73807,1.078145 -0.51263,0.512614 -6.51577,1.440961 -13.34034,2.06299 -6.82457,0.622029 -14.24853,1.50692 -16.49768,1.966425 -2.24916,0.459504 -17.58216,1.823662 -34.07334,3.03146 -39.22452,2.872763 -53.2433,4.348153 -97.9964,10.313473 -83.525376,11.13343 -92.364361,12.48464 -95.619163,14.61727 -1.838131,1.20439 -3.663702,1.86816 -4.056824,1.47503 -1.15341,-1.15341 -22.590794,3.04144 -40.39549,7.90455 -17.587116,4.80368 -19.362407,5.1161 -19.343155,3.40405 z"
     id="path6415"
     inkscape:connector-curvature="0" />
</svg>
