<?xml version="1.0" encoding="UTF-8" standalone="no"?>
<!-- Created with Inkscape (http://www.inkscape.org/) -->

<svg
   xmlns:dc="http://purl.org/dc/elements/1.1/"
   xmlns:cc="http://creativecommons.org/ns#"
   xmlns:rdf="http://www.w3.org/1999/02/22-rdf-syntax-ns#"
   xmlns:svg="http://www.w3.org/2000/svg"
   xmlns="http://www.w3.org/2000/svg"
   xmlns:sodipodi="http://sodipodi.sourceforge.net/DTD/sodipodi-0.dtd"
   xmlns:inkscape="http://www.inkscape.org/namespaces/inkscape"
   id="svg22077"
   version="1.1"
   inkscape:version="0.48.4 r9939"
   width="264"
   height="171"
   sodipodi:docname="Caltrops.png">
  <metadata
     id="metadata22083">
    <rdf:RDF>
      <cc:Work
         rdf:about="">
        <dc:format>image/svg+xml</dc:format>
        <dc:type
           rdf:resource="http://purl.org/dc/dcmitype/StillImage" />
        <dc:title></dc:title>
      </cc:Work>
    </rdf:RDF>
  </metadata>
  <defs
     id="defs22081" />
  <sodipodi:namedview
     pagecolor="#ffffff"
     bordercolor="#666666"
     borderopacity="1"
     objecttolerance="10"
     gridtolerance="10"
     guidetolerance="10"
     inkscape:pageopacity="0"
     inkscape:pageshadow="2"
     inkscape:window-width="1130"
     inkscape:window-height="711"
     id="namedview22079"
     showgrid="false"
     inkscape:zoom="1.7945513"
     inkscape:cx="126.17058"
     inkscape:cy="59.154016"
     inkscape:window-x="1"
     inkscape:window-y="22"
     inkscape:window-maximized="0"
     inkscape:current-layer="svg22077" />
  <path
     style="fill:#000000"
     d="m 100.6911,167.29806 c -0.51157,-1.00606 -0.55355,-3.12253 -0.0953,-4.80496 1.12653,-4.13606 9.2555,-13.97949 15.88779,-19.23864 3.025,-2.39872 7.25693,-5.8979 9.40428,-7.77597 2.14736,-1.87808 4.34314,-3.56096 4.8795,-3.73975 0.53637,-0.17879 -3.85725,-5.36815 -9.76361,-11.53191 -12.46477,-13.008 -13.33578,-13.30894 -21.020168,-7.26256 -17.99456,14.15882 -42.393752,28.28493 -67.000004,38.79018 -11,4.69628 -21.30156,8.9142 -22.89237,9.37315 -5.3244999,1.53613 -4.8577899,-0.31031 1.04492,-4.13401 3.2161,-2.08335 7.0351,-4.84219 8.48666,-6.13075 3.87257,-3.43771 13.88314,-17.27963 14.69667,-20.32155 0.58927,-2.20337 2.62512,-3.46138 12.759994,-7.88481 14.558072,-6.35395 23.159088,-11.00776 32.607641,-17.64322 L 86.79724,100 75.044782,100 C 61.625562,100 60.693106,99.610985 53.489759,91.007378 47.6879,84.077694 48.52927,83.489375 65.508943,82.603081 88.496097,81.403212 102.931,79.944987 104.18239,78.696261 104.84173,78.038317 110.04314,68.275 115.74108,57 c 8.87419,-17.560129 23.2421,-43.246433 26.01028,-46.5 0.46795,-0.55 1.71752,-2.4625 2.77682,-4.25 3.91658,-6.60895609 6.98043,-2.8166121 6.91978,8.5651 -0.0302,5.662095 -0.71979,9.914545 -3.0977,19.101567 -0.20167,0.779166 -1.04168,2.134501 -1.86668,3.011855 -4.00898,4.263383 -9.0081,11.153855 -12.02282,16.571478 -1.83633,3.3 -4.84265,8.25 -6.6807,11 -1.83805,2.75 -4.68169,9.167881 -6.3192,14.261958 -3.35571,10.439216 -3.47846,11.237841 -1.72728,11.238542 0.6875,2.75e-4 5.1211,4.162775 9.85245,9.25 4.73134,5.08723 11.25634,11.04318 14.5,13.23547 3.24365,2.19228 6.25741,4.55477 6.69723,5.24998 0.99306,1.56968 2.39431,0.88375 16.61409,-8.13276 C 173.12493,105.97143 178.39102,103 179.09979,103 c 1.00158,0 1.23121,-3.063209 1.03074,-13.75 -0.27707,-14.771203 -1.76905,-20.730086 -7.19072,-28.719361 -1.35093,-1.990701 -2.45623,-3.937746 -2.45623,-4.326765 0,-0.38902 2.02564,-1.781909 4.50143,-3.095311 2.47579,-1.313401 6.19791,-4.237628 8.27139,-6.498283 3.92653,-4.280979 11.46695,-17.990353 12.65316,-23.004925 0.49951,-2.111635 0.98338,-2.595995 1.78878,-1.790591 0.80541,0.805403 0.65762,2.805674 -0.54635,7.394644 -3.32484,12.672815 -3.75252,16.45571 -3.75451,33.209268 -0.002,14.972748 2.10771,38.189234 3.70473,40.773264 0.81679,1.3216 9.31007,6.90605 17.83172,11.7246 4.45823,2.5209 10.56822,6.304 13.57776,8.40688 C 242.58071,133.15398 249.80252,137 254.19266,137 c 3.62425,0 4.29092,0.31073 4.29092,2 0,1.1 -0.3375,1.91315 -0.75,1.807 -0.4125,-0.10615 -5.025,0.7612 -10.25,1.92745 -17.09987,3.81679 -21,3.85875 -21,0.22595 0,-1.0169 -0.99672,-2.13911 -2.25,-2.53329 -2.87803,-0.90519 -11.09693,-5.72022 -16.25,-9.52004 -2.2,-1.62225 -6.07953,-4.0432 -8.62118,-5.37988 l -4.62119,-2.43033 -2.37881,2.55119 c -6.16416,6.61082 -21.21962,13.41526 -23.84955,10.779 -0.56687,-0.56824 0.40088,-3.05578 2.50037,-6.42705 3.77597,-6.06327 4.07167,-7 2.20968,-7 -3.8679,0 -18.73932,12.48556 -18.73932,15.73293 0,2.45244 6.65847,10.64425 9.67703,11.90548 1.82763,0.76364 3.32297,1.83239 3.32297,2.37501 0,2.78574 -8.41651,-0.36545 -16.61708,-6.22152 l -4.11709,-2.94003 -11.88291,6.22665 c -6.53561,3.42465 -14.13292,7.86854 -16.88292,9.87531 -11.09029,8.09295 -15.87785,10.12626 -17.29248,7.34423 z m 5.79248,-6.40505 c 0,-2.14115 -0.17373,-3.89301 -0.38606,-3.89301 -0.87981,0 -3.67172,7.0975 -3.13409,7.9674 1.35741,2.19633 3.52015,-0.30693 3.52015,-4.07439 z m 4.54305,-0.14301 c 1.57574,0.86209 2.32103,-0.44762 3.41431,-6 0.67685,-3.4375 1.39042,-6.78958 1.58571,-7.44907 0.20722,-0.69977 -0.25192,-0.96615 -1.10263,-0.6397 -0.80174,0.30765 -1.73286,1.65569 -2.06917,2.99564 -0.3363,1.33995 -0.8584,2.18933 -1.16021,1.88752 -0.30182,-0.30182 -1.37278,0.19697 -2.37991,1.10842 -1.32888,1.20262 -1.82243,3.05469 -1.79935,6.75218 0.0297,4.76409 0.12996,4.96511 1.54305,3.09501 0.83118,-1.1 1.71687,-1.8875 1.9682,-1.75 z m -0.29087,-4.25 c 0.0111,-2.2 0.21589,-2.98225 0.45508,-1.73834 0.23919,1.24391 0.23011,3.04391 -0.0202,4 -0.25029,0.95609 -0.446,-0.0617 -0.4349,-2.26166 z m 8.45639,-5.28312 c 0.98658,-3.85045 1.11602,-4.02805 0.70469,-0.96688 -0.27714,2.0625 -0.27005,3.75 0.0158,3.75 1.03229,0 3.3498,-5.59211 4.04064,-9.75 0.84115,-5.06253 -0.0232,-5.49933 -1.97878,-1 -0.88923,2.0459 -1.42709,2.57076 -1.45173,1.41667 -0.0787,-3.68657 -2.56047,-0.85994 -3.68293,4.1947 -0.63489,2.85901 -1.45438,6.42231 -1.82108,7.91842 -0.64174,2.61823 -0.59867,2.65336 1.14907,0.93709 0.99869,-0.98072 2.35966,-3.90572 3.02437,-6.5 z m -83.004142,-3.06812 c 16.867865,-7.29121 41.827886,-21.44144 53.675414,-30.42944 14.902478,-11.30562 15.293448,-11.53415 18.569328,-10.8547 1.68489,0.34946 4.82456,2.34617 6.97704,4.43714 3.41038,3.3129 3.84847,3.50578 3.40696,1.5 -0.40502,-1.83999 -0.29172,-2.00083 0.56477,-0.80176 0.58929,0.825 1.07833,2.17519 1.08675,3.00042 0.0253,2.47716 15.85311,18.11831 26.01531,25.70848 5.225,3.90256 9.58301,7.01905 9.68447,6.92553 0.10145,-0.0935 -1.13863,-2.92676 -2.75576,-6.29609 -2.98798,-6.22555 -4.92871,-14.02541 -4.92871,-19.80861 0,-2.72912 -0.76875,-3.72919 -5.25,-6.82977 -2.8875,-1.99787 -8.175,-6.95707 -11.75,-11.02046 -8.46544,-9.621932 -11.8447,-11.919731 -18.31446,-12.453319 -7.04682,-0.581179 -13.194588,2.265145 -30.444755,14.095469 -14.127345,9.68866 -22.010462,14.05286 -35.490783,19.64817 -7.278042,3.02092 -7.757205,3.40905 -7.868315,6.3735 l -0.118315,3.15668 -0.724591,-3 c -0.651512,-2.69743 -0.807147,-2.79828 -1.543113,-1 -1.48612,3.63121 -11.8632,17.85802 -15.96604,21.88918 -2.2163,2.17758 -3.35463,3.6903 -2.52963,3.36162 0.825,-0.32869 8.792,-3.74961 17.70443,-7.60204 z M 142.15025,135.33333 c -0.36667,-0.36666 -0.66667,-1.13166 -0.66667,-1.7 0,-0.6266 0.46577,-0.56756 1.18333,0.15 0.65084,0.65084 0.95084,1.41584 0.66667,1.7 -0.28417,0.28417 -0.81667,0.21667 -1.18333,-0.15 z M 40.483582,131.5 c 0,-0.825 0.435877,-1.5 0.968615,-1.5 0.532739,0 0.709594,0.675 0.393011,1.5 -0.316582,0.825 -0.752459,1.5 -0.968615,1.5 -0.216156,0 -0.393011,-0.675 -0.393011,-1.5 z M 136.98358,131 c -1.00159,-1.10674 -1.59607,-2.23726 -1.32107,-2.51226 0.275,-0.275 1.31948,0.40552 2.32107,1.51226 1.00159,1.10674 1.59607,2.23726 1.32107,2.51226 -0.275,0.275 -1.31948,-0.40552 -2.32107,-1.51226 z m -92.454161,-1.08565 c 0.613912,-1.1471 1.315337,-1.88651 1.558722,-1.64312 0.699897,0.69989 -0.71897,3.72877 -1.746732,3.72877 -0.51083,0 -0.426291,-0.93781 0.18801,-2.08565 z m 3.668489,-1.92993 c 0.289898,-1.10857 0.999242,-2.3074 1.576319,-2.66405 0.659787,-0.40777 0.80057,-4.6e-4 0.379294,1.09737 -0.368467,0.96021 -0.669939,2.15903 -0.669939,2.66405 0,0.50501 -0.407871,0.91821 -0.90638,0.91821 -0.49851,0 -0.669192,-0.90701 -0.379294,-2.01558 z m 4.300987,-0.6754 c 0.0084,-0.44496 0.451531,-1.48402 0.984687,-2.30902 0.835399,-1.29269 0.971491,-1.26629 0.984687,0.19098 0.0084,0.93004 -0.434687,1.9691 -0.984687,2.30902 -0.55,0.33992 -0.993109,0.25398 -0.984687,-0.19098 z m 78.938845,-1.39467 c -0.61391,-1.1471 -0.92784,-2.274 -0.69762,-2.50422 0.23022,-0.23022 0.93203,0.70832 1.55958,2.08564 1.37807,3.02454 0.70709,3.35038 -0.86196,0.41858 z M 57.514208,125.5 c 0,-0.55 0.436218,-1.675 0.969374,-2.5 0.533156,-0.825 0.969374,-1.05 0.969374,-0.5 0,0.55 -0.436218,1.675 -0.969374,2.5 -0.533156,0.825 -0.969374,1.05 -0.969374,0.5 z m 4.676684,-4.48875 c 0.286039,-1.09382 0.899256,-1.75441 1.362706,-1.46798 0.984274,0.60832 0.09154,3.45673 -1.083385,3.45673 -0.439666,0 -0.56536,-0.89494 -0.279321,-1.98875 z m 65.013148,0.65696 c -1.11427,-2.83307 -0.93262,-4.28037 0.37332,-2.97443 0.60158,0.60158 0.92578,1.92908 0.72046,2.95 -0.36008,1.79033 -0.3989,1.79119 -1.09378,0.0244 z m -61.705145,-1.85919 c -0.0084,-0.93004 0.434687,-1.9691 0.984687,-2.30902 1.265597,-0.78218 1.265597,0.54163 0,2.5 -0.835399,1.29269 -0.971491,1.26629 -0.984687,-0.19098 z m 58.063635,-2.39235 c 0.048,-1.16495 0.28494,-1.4019 0.60416,-0.60417 0.28887,0.72187 0.25335,1.58437 -0.0789,1.91667 -0.3323,0.33229 -0.56864,-0.25834 -0.52522,-1.3125 z M 72.193833,116 c 0.287656,-1.1 0.695528,-2 0.90638,-2 0.210853,0 0.383369,0.9 0.383369,2 0,1.1 -0.407871,2 -0.90638,2 -0.49851,0 -0.671025,-0.9 -0.383369,-2 z m 5.305062,-3.19098 c -0.0084,-0.93004 0.434687,-1.9691 0.984687,-2.30902 1.265597,-0.78218 1.265597,0.54163 0,2.5 -0.835399,1.29269 -0.971491,1.26629 -0.984687,-0.19098 z m 5.063634,-3.39235 c 0.04798,-1.16495 0.284941,-1.4019 0.604167,-0.60417 0.288871,0.72187 0.253344,1.58437 -0.07895,1.91667 -0.332292,0.33229 -0.568641,-0.25834 -0.52522,-1.3125 z M 86.498895,107.25 c -0.0084,-1.2375 0.434687,-2.25 0.984687,-2.25 1.252922,0 1.252922,1.06124 0,3 -0.783874,1.21296 -0.972305,1.06944 -0.984687,-0.75 z m 5.063634,-3.83333 c 0.04798,-1.16495 0.284941,-1.4019 0.604167,-0.60417 0.288871,0.72187 0.253344,1.58437 -0.07895,1.91667 -0.332292,0.33229 -0.568641,-0.25834 -0.52522,-1.3125 z m 3.921053,-1.79864 c 0,-0.825 0.45,-1.778111 1,-2.11803 0.55,-0.339919 1,0.05697 1,0.88197 0,0.825 -0.45,1.77811 -1,2.11803 -0.55,0.33992 -1,-0.057 -1,-0.88197 z m 4.02006,-3.142196 c 0.695718,-0.838291 1.470878,-1.31823 1.722578,-1.066531 C 101.91971,98.1028 100.51067,100 99.302122,100 c -0.6631,0 -0.58723,-0.573782 0.20152,-1.524166 z m 43.964618,43.005696 c -0.4919,-0.59269 -2.93968,-2.54647 -5.43952,-4.34171 l -4.54516,-3.26409 0,2.45704 c 0,1.38311 -2.4099,5.81595 -5.51358,10.14183 l -5.51358,7.68478 10.9531,-5.80011 c 7.32539,-3.87909 10.65688,-6.15702 10.05874,-6.87774 z m -16.31814,-0.0678 c 0.79792,-5.25787 -1.17901,-3.31517 -2.12306,2.08631 -0.51251,2.93235 -0.40174,3.71005 0.41501,2.91369 0.61277,-0.59747 1.38139,-2.84747 1.70805,-5 z m 120.83346,-0.87312 c 3.10254,-0.8722 4.07327,-1.43124 2.55796,-1.47312 -2.24435,-0.062 -10.42979,-4.85307 -23.86362,-13.96769 -6.31181,-4.28246 -22.72449,-14.1081 -29.56006,-17.69648 -3.69694,-1.94073 -6.39227,-2.5631 -11.22082,-2.59096 -6.76537,-0.039 -7.71745,0.40922 -27.91346,13.14197 l -6,3.78275 0.007,6.05475 c 0.004,3.33011 0.35315,6.40128 0.77669,6.82482 0.42354,0.42354 2.38104,-0.88851 4.35002,-2.91567 4.18262,-4.30622 13.34481,-10.07635 19.38225,-12.20648 6.83591,-2.41185 11.97606,-1.92107 21.40802,2.04405 1.54539,0.64967 1.79733,0.4796 1.28138,-0.86494 C 198.83535,119.75312 199.01051,119 199.57782,119 c 0.56731,0 0.89069,0.84347 0.71862,1.87439 C 199.82727,123.68526 219.82905,137 224.52078,137 c 1.47713,0 2.49551,0.96313 3.29966,3.12068 l 1.16314,3.12068 7,-0.64756 c 3.85,-0.35616 9.25,-1.2801 12,-2.05319 z m -14.5,0.40037 c 0,-0.58246 0.45,-0.7809 1,-0.44098 0.55,0.33992 1,0.81648 1,1.05902 0,0.24254 -0.45,0.44098 -1,0.44098 -0.55,0 -1,-0.47656 -1,-1.05902 z m 3.45888,-1.00751 c -1.07627,-1.74144 0.14952,-2.11024 1.52106,-0.45764 0.78875,0.95039 0.86462,1.52417 0.20152,1.52417 -0.58488,0 -1.36004,-0.47994 -1.72258,-1.06653 z m -7.27555,-1.15014 c -0.65083,-0.65083 -1.18333,-1.86846 -1.18333,-2.70584 0,-1.04512 0.5023,-0.80536 1.602,0.76467 1.75464,2.5051 1.46912,3.82896 -0.41867,1.94117 z m 11.81667,-0.40577 c 0,-1.3888 0.25202,-1.42955 1.75,-0.28297 0.9625,0.73671 1.9375,1.46681 2.16667,1.62244 0.22916,0.15563 -0.55834,0.28297 -1.75,0.28297 -1.33194,0 -2.16667,-0.62507 -2.16667,-1.62244 z m -16.02006,-3.90173 c -0.69572,-0.83829 -1.01228,-1.77683 -0.70346,-2.08564 0.30881,-0.30882 1.06377,0.37706 1.67768,1.52416 1.30985,2.44747 0.8236,2.72772 -0.97422,0.56148 z m -5.47439,-3.4697 C 218.99059,129.90276 218.63825,129 219.20615,129 c 1.25825,0 3.7524,2.85836 3.08047,3.5303 -0.26508,0.26508 -1.29895,-0.4208 -2.29749,-1.52417 z m -8.50555,-5.06515 c 0,-0.58246 0.45,-0.7809 1,-0.44098 0.55,0.33992 1,0.81648 1,1.05902 0,0.24254 -0.45,0.44098 -1,0.44098 -0.55,0 -1,-0.47656 -1,-1.05902 z m -3.33333,-1.60765 c -0.36667,-0.36666 -0.66667,-1.13166 -0.66667,-1.7 0,-0.6266 0.46577,-0.56756 1.18333,0.15 0.65084,0.65084 0.95084,1.41584 0.66667,1.7 -0.28417,0.28417 -0.81667,0.21667 -1.18333,-0.15 z m -4.64661,-1.80916 C 202.71489,121.57378 202.63902,121 203.30212,121 c 1.20855,0 2.61759,1.8972 1.9241,2.5907 -0.2517,0.2517 -1.02686,-0.22824 -1.72258,-1.06653 z m -40.02006,-3.96515 c 0,-0.79254 0.40803,-1.69316 0.90674,-2.00138 0.49871,-0.30822 0.67122,0.34022 0.38337,1.44098 -0.61061,2.33499 -1.29011,2.63015 -1.29011,0.5604 z m 5.07895,-3.14235 c 0.048,-1.16495 0.28494,-1.4019 0.60416,-0.60417 0.28887,0.72187 0.25335,1.58437 -0.0789,1.91667 -0.3323,0.33229 -0.56864,-0.25834 -0.52522,-1.3125 z M 172.48358,113.5 c 0,-0.825 0.43588,-1.5 0.96862,-1.5 0.53273,0 0.70959,0.675 0.39301,1.5 -0.31659,0.825 -0.75246,1.5 -0.96862,1.5 -0.21615,0 -0.39301,-0.675 -0.39301,-1.5 z m 6,-3 c 0,-0.825 0.43588,-1.5 0.96862,-1.5 0.53273,0 0.70959,0.675 0.39301,1.5 -0.31659,0.825 -0.75246,1.5 -0.96862,1.5 -0.21615,0 -0.39301,-0.675 -0.39301,-1.5 z m 4.07895,-0.0833 c 0.048,-1.16495 0.28494,-1.4019 0.60416,-0.60417 0.28887,0.72187 0.25335,1.58437 -0.0789,1.91667 -0.3323,0.33229 -0.56864,-0.25834 -0.52522,-1.3125 z m 3,-1 c 0.048,-1.16495 0.28494,-1.4019 0.60416,-0.60417 0.28887,0.72187 0.25335,1.58437 -0.0789,1.91667 -0.3323,0.33229 -0.56864,-0.25834 -0.52522,-1.3125 z m 2.92105,-1.47572 c 0,-0.58246 0.45,-0.7809 1,-0.44098 0.55,0.33992 1,0.81648 1,1.05902 0,0.24254 -0.45,0.44098 -1,0.44098 -0.55,0 -1,-0.47656 -1,-1.05902 z m -58.01531,29.75 c 0.008,-0.99496 -0.43469,-1.5309 -0.98469,-1.19098 -0.55,0.33992 -0.99311,1.82898 -0.98469,3.30902 0.012,2.10476 0.22649,2.36421 0.98469,1.19098 0.53316,-0.825 0.97627,-2.31406 0.98469,-3.30902 z m 49.14447,-6.19261 c 2.95396,-1.3759 6.49584,-3.4311 7.87084,-4.56712 2.41065,-1.99166 2.41652,-2.02444 0.16435,-0.91734 -1.2846,0.63147 -2.55579,0.92798 -2.82486,0.65891 -0.26907,-0.26907 1.11947,-1.07093 3.08564,-1.78191 3.75708,-1.35858 5.24146,-4.55464 1.57487,-3.39091 -1.1,0.34913 -2,0.24364 -2,-0.23442 0,-0.47806 -1.53935,-0.91284 -3.42078,-0.96617 -2.40182,-0.0681 -4.09205,0.61757 -5.67431,2.30181 -1.23945,1.31933 -1.88035,2.39878 -1.42424,2.39878 0.45612,0 -0.0279,0.99719 -1.07568,2.21597 l -1.90499,2.21597 2.5,-1.71118 c 3.45725,-2.36637 8,-4.85315 8,-4.37933 0,0.21604 -1.84129,1.61131 -4.09176,3.10059 -4.65808,3.08258 -4.65888,4.51463 -0.001,2.10604 1.70111,-0.87968 3.09293,-1.37044 3.09293,-1.09059 0,0.27986 -2.3625,1.6606 -5.25,3.0683 -2.8875,1.4077 -4.37649,1.86529 -3.30887,1.01685 1.63645,-1.30049 1.68495,-1.54262 0.30902,-1.54262 -1.93066,0 -3.12233,1.58878 -2.25015,3 0.80314,1.29951 0.43743,1.38235 6.62916,-1.50163 z m -0.26838,-8.44191 c 1.29844,-1.13105 2.87344,-2.04957 3.5,-2.04115 1.19338,0.016 -0.46851,1.33953 -3.86078,3.07464 -1.57177,0.80394 -1.49452,0.58265 0.36078,-1.03349 z M 194.05037,99.75 c -2.42957,-15.073668 -2.9069,-21.638944 -2.78096,-38.25 0.0792,-10.45 0.57841,-20.4625 1.1093,-22.25 0.53089,-1.7875 0.8047,-3.25 0.60845,-3.25 -0.19624,0 -1.74617,2.428372 -3.4443,5.396382 -2.93114,5.123107 -7.24431,9.633449 -13.50518,14.122579 -2.55008,1.828442 -2.6619,2.146682 -1.18495,3.372445 1.42818,1.185283 1.63085,1.064868 1.63085,-0.968961 0,-1.679571 0.30245,-2.019992 1.09264,-1.229804 0.72618,0.726181 0.7715,1.715578 0.13513,2.95 -0.52663,1.021547 -0.73311,2.487984 -0.45885,3.258747 0.36093,1.014304 0.89512,0.738089 1.93395,-1 0.7894,-1.320763 1.24094,-1.726388 1.00343,-0.901388 -0.23752,0.825 -0.73737,2.625 -1.11079,4 l -0.67894,2.5 1.60439,-2.5 1.60438,-2.5 -0.6597,2.5 c -0.88751,3.363314 -0.82329,4.800388 0.42456,9.5 0.58415,2.2 1.07282,7.2625 1.08594,11.25 0.0219,6.663825 1.00836,9.098166 2.4313,6 0.31575,-0.6875 0.33495,-0.275371 0.0426,0.915843 -0.29229,1.191214 -0.0631,2.455271 0.50923,2.809017 1.58751,0.981131 1.23957,3.191807 -0.50235,3.191807 -0.90395,0 -1.32287,-0.573748 -1.01146,-1.385271 0.29237,-0.7619 0.14047,-1.143549 -0.33756,-0.848111 -0.47803,0.295438 -1.08128,1.646874 -1.34056,3.00319 -0.43857,2.294255 -0.15085,2.491695 4.1306,2.834525 2.53111,0.20268 5.4099,0.44962 6.39732,0.54875 1.4886,0.14946 1.70582,-0.37499 1.27148,-3.06975 z m -9.48784,-11.333333 c 0.048,-1.164943 0.28494,-1.4019 0.60416,-0.604167 0.28887,0.721875 0.25335,1.584375 -0.0789,1.916667 -0.3323,0.332291 -0.56864,-0.258334 -0.52522,-1.3125 z m -0.51466,-4.709795 c 0.37553,-0.986221 0.93469,-1.541221 1.24258,-1.233333 0.30789,0.307887 6.4e-4,1.114794 -0.68278,1.793128 -0.98762,0.980267 -1.10248,0.865403 -0.5598,-0.559795 z m -0.494,-3.397855 C 183.59252,79.864058 184.01089,78.6 184.48358,77.5 c 0.82859,-1.928236 0.86195,-1.921383 0.92971,0.190983 0.0387,1.205041 -0.37971,2.469098 -0.92971,2.809017 -0.55,0.339919 -0.96837,0.253976 -0.92971,-0.190983 z m -1.05498,-6 c -0.008,-1.205041 0.43469,-2.469098 0.98469,-2.809017 1.27319,-0.786873 1.27319,1.529884 0,3.5 -0.78809,1.219476 -0.97224,1.090251 -0.98469,-0.690983 z m -0.93636,-4.89235 c 0.048,-1.164943 0.28494,-1.4019 0.60416,-0.604167 0.28887,0.721875 0.25335,1.584375 -0.0789,1.916667 -0.3323,0.332291 -0.56864,-0.258334 -0.52522,-1.3125 z M 74.983582,93.024846 c 7.606992,-4.708388 16.030571,-9.066015 17.377118,-8.989411 0.342585,0.01949 -0.502118,0.678544 -1.877118,1.464565 -3.285468,1.878143 -2.149272,1.878143 2.345757,0 3.365153,-1.406049 6.504013,-2.016442 5.570913,-1.083333 -0.22917,0.229166 -0.64167,0.387627 -0.91667,0.352135 -1.03495,-0.133572 -9.714864,4.658314 -15.327069,8.46155 -3.204888,2.171864 -6.038632,3.73728 -6.29721,3.478703 -0.258577,-0.258578 2.517803,-2.357198 6.169734,-4.6636 3.65193,-2.306403 6.401101,-4.432232 6.109269,-4.724065 -0.470671,-0.47067 -17.654724,9.369184 -17.654724,10.109368 0,0.163083 1.9125,0.314414 4.25,0.336292 2.732213,0.02557 6.360517,-0.997108 10.159722,-2.863637 3.250348,-1.596877 6.625348,-2.903426 7.5,-2.903442 0.874653,-1.7e-5 2.743368,-1.462517 4.152698,-3.25 4.546928,-5.766954 4.637528,-5.642836 -3.797334,-5.20172 -17.514573,0.915955 -19.933942,1.129057 -21.116612,1.859987 -0.679846,0.420168 -1.807016,0.29011 -2.504823,-0.289018 -0.93112,-0.772761 -2.64915,-0.123336 -6.456195,2.440477 -2.853101,1.921391 -5.187456,3.931482 -5.187456,4.46687 0,1.558193 0.843466,1.184569 5.703794,-2.526567 4.053742,-3.095263 6.296206,-4.219488 6.296206,-3.156507 0,0.188922 -2.24913,1.876422 -4.998067,3.75 -2.748937,1.873579 -4.998937,3.744007 -5,4.156507 -0.0046,1.7767 2.989728,0.422783 9.399247,-4.25 6.682092,-4.871498 9.460036,-6.202493 7.993792,-3.830061 -0.489108,0.791394 -0.184644,0.953174 0.940983,0.5 4.881653,-1.965337 4.51512,-1.488037 -2.42161,3.153423 -13.098257,8.764221 -13.420169,11.251508 -0.414345,3.201484 z m -4.906474,-0.706621 c 3.506942,-2.574976 6.170018,-4.888014 5.917947,-5.140085 -0.523932,-0.523932 -11.026745,6.532872 -12.670107,8.513002 -2.100387,2.530812 0.439941,1.261838 6.75216,-3.372917 z m 18.892436,3.123194 c 2.051615,-0.85722 3.499035,-1.789755 3.216488,-2.072302 -0.282546,-0.282546 -2.243684,0.398927 -4.358085,1.514385 -4.609022,2.431503 -4.025293,2.716781 1.141597,0.557917 z M 105.40363,87 c 1.08165,0 1.07291,0.321234 -0.0476,1.75 -1.24196,1.583631 -1.20712,1.620393 0.36655,0.386693 0.95644,-0.749819 1.4468,-1.874819 1.08967,-2.5 -0.35712,-0.625181 -0.28107,-0.803097 0.16901,-0.395369 0.45007,0.407728 1.53472,0.182728 2.41032,-0.5 1.41345,-1.102099 1.43583,-1.042337 0.19951,0.532842 -2.47676,3.155608 -0.36052,2.992492 2.47583,-0.190833 3.1001,-3.479325 4.77722,-3.333225 1.84284,0.160536 -1.15446,1.37453 -0.66793,1.143769 1.24509,-0.590547 1.96035,-1.777227 3.56731,-4.543691 4.27742,-7.363809 0.62559,-2.484423 2.43015,-7.077986 4.01013,-10.207918 3.20101,-6.341155 14.45012,-24.695753 16.66028,-27.183715 1.16235,-1.308454 1.21946,-2.552238 0.31158,-6.785552 -0.61141,-2.850887 -0.95843,-7.621306 -0.77116,-10.60093 0.18727,-2.979624 0.0773,-5.101126 -0.24438,-4.714448 -2.85885,3.436493 -14.41739,24.188063 -21.89251,39.304588 -5.05916,10.230846 -10.93732,20.898964 -13.06259,23.70693 -2.12527,2.807966 -4.613418,6.587273 -5.529218,8.398462 l -1.6651,3.29307 3.414748,-3.25 c 1.87811,-1.7875 4.01092,-3.25 4.73958,-3.25 z m -0.92005,-1.876397 c 0,-0.447495 1.00475,-1.670872 2.23277,-2.718615 1.36805,-1.167219 1.75869,-1.28843 1.00867,-0.312979 -0.67325,0.875605 -0.98358,1.832513 -0.68964,2.126462 0.29395,0.293948 -0.15995,0.800921 -1.00867,1.126606 -0.84872,0.325684 -1.54313,0.226021 -1.54313,-0.221474 z m 4.55667,-7.569744 c 0.85982,-1.312258 2.21281,-2.63516 3.00665,-2.939782 1.1958,-0.458874 1.17522,-0.144678 -0.11999,1.832064 -0.85982,1.312258 -2.21281,2.63516 -3.00665,2.939782 -1.1958,0.458874 -1.17522,0.144678 0.11999,-1.832064 z M 112.98358,71 c 0.33992,-0.55 1.06803,-1 1.61803,-1 0.55,0 0.72189,0.45 0.38197,1 -0.33992,0.55 -1.06803,1 -1.61803,1 -0.55,0 -0.72189,-0.45 -0.38197,-1 z m 1.50775,-2.198478 c -0.004,-0.384163 1.12917,-1.925237 2.51874,-3.424609 1.86594,-2.013381 2.20008,-2.927866 1.27803,-3.497727 -0.92356,-0.57079 -0.7891,-0.947871 0.51663,-1.44893 0.97081,-0.372533 2.0457,-0.396741 2.38864,-0.0538 0.34295,0.342947 -0.014,0.63043 -0.79312,0.638852 -0.86572,0.0094 -1.01915,0.301036 -0.39453,0.75 0.62429,0.448718 -0.24848,2.097023 -2.24224,4.234687 -1.79542,1.925 -3.26789,3.185685 -3.27215,2.801522 z M 120.98358,57 c 0.33992,-0.55 1.06803,-1 1.61803,-1 0.55,0 0.72189,0.45 0.38197,1 -0.33992,0.55 -1.06803,1 -1.61803,1 -0.55,0 -0.72189,-0.45 -0.38197,-1 z m 2.05887,-4.468197 c 1.06762,-0.807508 2.39113,-1.468196 2.94113,-1.468196 0.55,0 0.12649,0.660688 -0.94113,1.468196 C 123.97483,53.339312 122.65132,54 122.10132,54 c -0.55,0 -0.12649,-0.660688 0.94113,-1.468197 z M 125.98358,47 c 0.99549,-1.1 2.25998,-2 2.80998,-2 0.55,0 0.18551,0.9 -0.80998,2 -0.99549,1.1 -2.25998,2 -2.80998,2 -0.55,0 -0.18551,-0.9 0.80998,-2 z m 2.30969,-4.582244 c 1.29106,-2.486601 4.19031,-5.056646 4.19031,-3.714515 0,0.521472 -1.18607,2.039072 -2.63572,3.372445 -2.35194,2.1633 -2.51932,2.200129 -1.55459,0.34207 z M 132.57657,35 c 0.72964,-1.375 1.22027,-3.028567 1.09029,-3.674593 -0.12997,-0.646026 0.24095,-1.469561 0.82428,-1.830078 1.69917,-1.050149 0.29099,4.646078 -1.59095,6.435532 C 131.3751,37.381003 131.35056,37.31041 132.57657,35 z m 4.24034,-9.543989 c 0,-0.800806 0.375,-1.456011 0.83334,-1.456011 0.45833,0 0.83333,0.423442 0.83333,0.940983 0,0.517541 -0.375,1.172746 -0.83333,1.456011 -0.45834,0.283266 -0.83334,-0.140176 -0.83334,-0.940983 z M 60.365548,87.75 c 3.353507,-2.085495 3.449302,-2.273917 1.310218,-2.577127 -2.665303,-0.377801 -7.540865,2.453932 -6.665032,3.871059 0.832591,1.347161 1.282848,1.238361 5.354814,-1.293932 z M 116.48358,88 c 0,-0.55 -0.19844,-1 -0.44098,-1 -0.24254,0 -0.7191,0.45 -1.05902,1 -0.33992,0.55 -0.14148,1 0.44098,1 0.58246,0 1.05902,-0.45 1.05902,-1 z m 29.03297,-53.5 c 1.35701,-1.850006 1.33579,-1.897071 -0.28297,-0.627555 -0.9625,0.754844 -1.75,1.842344 -1.75,2.416666 0,0.574322 0.12734,0.856722 0.28297,0.627556 C 143.92218,36.6875 144.70968,35.6 145.51655,34.5 z m 1.93561,-5.371972 c 0.0461,-2.014027 -4.35981,1.061307 -4.81488,3.360779 -0.3212,1.622993 -0.16037,1.614331 2.21857,-0.119479 1.41068,-1.028131 2.57902,-2.486715 2.59631,-3.2413 z m 0.89652,-4.797897 c 0.30159,-1.457109 -0.21079,-1.319862 -2.94533,0.78895 -4.56921,3.52366 -5.18545,5.876805 -0.81689,3.11932 1.86842,-1.179364 3.56141,-2.938085 3.76222,-3.90827 z m -0.98307,-2.155577 c 1.31012,-1.03529 2.1882,-2.463869 1.95128,-3.174621 -0.29151,-0.874533 -1.62724,-0.241753 -4.13203,1.957488 -6.08247,5.340473 -4.29771,6.336586 2.18075,1.217133 z m 1.95048,-7.260557 c 0.25008,-0.800323 -0.62216,-0.437498 -2.00978,0.836003 -1.3484,1.2375 -2.87263,2.237895 -3.38718,2.223099 -0.51455,-0.0148 0.58895,-1.291303 2.45222,-2.836683 1.86328,-1.545381 3.1962,-3.384514 2.96205,-4.086964 -0.29506,-0.885169 -1.39081,-0.465118 -3.56999,1.368537 -2.29418,1.930432 -3.12136,3.451031 -3.05956,5.624434 l 0.0847,2.978718 3.04285,-2.346573 c 1.67357,-1.290615 3.24169,-2.982872 3.4847,-3.760571 z m -1.2375,-6.0595062 C 149.97035,6.7238801 149.96834,6.7169734 147.78927,7.8598683 145.35854,9.1347576 143.86184,11 145.26958,11 c 0.49721,0 1.76127,-0.965479 2.80901,-2.1455092 z"
     id="path22087"
     inkscape:connector-curvature="0" />
  <path
     style="fill:#000000;fill-opacity:0.43564357;stroke:none"
     d="m 52.40597,85.101492 51.61791,-5.122388 c 14.38714,-25.272756 26.09007,-51.312431 43.73731,-75.653731 4.88778,4.6558494 3.50264,16.244919 -1.57612,31.916418 l -18.91343,27.18806 -10.24477,26.79403 c 13.44873,8.752728 20.85476,20.414519 34.67462,30.143279 l 28.37015,-16.35223 c 0.16031,-14.615936 5.94856,-26.508671 -9.06268,-48.465676 11.72571,-3.981236 20.71587,-14.801367 27.18806,-31.916418 -6.94495,18.297794 -5.05131,34.67707 -5.36265,50.990922 -0.16496,8.643606 2.35581,19.102282 3.3925,30.573252 l 60.68059,35.46269 -29.55224,3.9403 -0.78806,-4.33433 -31.91641,-18.12537 c -7.38508,7.08908 -15.12594,13.26392 -25.21791,13.39701 1.59665,-4.72462 8.6794,-8.45177 4.72835,-14.18507 -9.09476,2.87732 -15.06376,9.50557 -21.67164,15.36716 l 6.30448,13.39702 -12.21493,-6.30448 c -17.15961,5.94356 -29.6066,15.25328 -43.34328,23.64179 l -1.57612,-5.12239 c 4.14115,-9.79219 16.73265,-20.02913 30.73433,-30.3403 C 123.93076,123.21061 118.74693,111.80663 105.6,106.77313 78.181747,132.83981 43.51395,146.3257 9.0626866,159.96716 19.734454,155.00828 28.722809,143.11195 37.038806,128.44478 c 19.077109,-7.01137 36.872604,-16.37237 52.8,-29.158213 l -24.823881,0 C 59.405236,94.98022 52.979667,90.918637 52.40597,85.101492 z"
     id="path22089"
     inkscape:connector-curvature="0"
     sodipodi:nodetypes="ccccccccccsccccccccccccccccccc" />
</svg>
