<?xml version="1.0" encoding="UTF-8" standalone="no"?>
<!-- Created with Inkscape (http://www.inkscape.org/) -->

<svg
   xmlns:dc="http://purl.org/dc/elements/1.1/"
   xmlns:cc="http://creativecommons.org/ns#"
   xmlns:rdf="http://www.w3.org/1999/02/22-rdf-syntax-ns#"
   xmlns:svg="http://www.w3.org/2000/svg"
   xmlns="http://www.w3.org/2000/svg"
   xmlns:sodipodi="http://sodipodi.sourceforge.net/DTD/sodipodi-0.dtd"
   xmlns:inkscape="http://www.inkscape.org/namespaces/inkscape"
   id="svg5803"
   version="1.1"
   inkscape:version="0.48.4 r9939"
   width="223"
   height="422"
   sodipodi:docname="CeremonialDagger.png">
  <metadata
     id="metadata5809">
    <rdf:RDF>
      <cc:Work
         rdf:about="">
        <dc:format>image/svg+xml</dc:format>
        <dc:type
           rdf:resource="http://purl.org/dc/dcmitype/StillImage" />
        <dc:title></dc:title>
      </cc:Work>
    </rdf:RDF>
  </metadata>
  <defs
     id="defs5807" />
  <sodipodi:namedview
     pagecolor="#ffffff"
     bordercolor="#666666"
     borderopacity="1"
     objecttolerance="10"
     gridtolerance="10"
     guidetolerance="10"
     inkscape:pageopacity="0"
     inkscape:pageshadow="2"
     inkscape:window-width="1277"
     inkscape:window-height="756"
     id="namedview5805"
     showgrid="false"
     inkscape:zoom="1.1184834"
     inkscape:cx="201.80536"
     inkscape:cy="242.61007"
     inkscape:window-x="0"
     inkscape:window-y="22"
     inkscape:window-maximized="0"
     inkscape:current-layer="svg5803" />
  <path
     style="fill:#23c6d6;fill-opacity:0.93684208;stroke:none"
     d="m 42.989695,71.128222 c -7.521691,1.539862 -12.569711,5.553395 -8.850819,18.33384 6.434945,5.347973 12.91838,9.855451 20.230445,0 3.027343,-10.749255 0.47257,-17.702671 -11.379626,-18.33384 z"
     id="path6329"
     inkscape:connector-curvature="0"
     sodipodi:nodetypes="cccc" />
  <path
     style="fill:#000000;fill-opacity:0.39473685;stroke:none"
     d="m 21.457627,152.43856 c 10.982643,4.85642 30.405456,3.82922 47.832627,5.14089 -0.656284,29.26249 4.280856,55.02909 -4.917373,89.6303 -1.55005,63.86737 -20.274981,120.56419 -50.51483,160.9322 l 2.682203,-37.99788 z"
     id="path5815"
     inkscape:connector-curvature="0"
     sodipodi:nodetypes="cccccc" />
  <path
     style="fill:#3f2c00;fill-opacity:0.39473685;stroke:none"
     d="m 28.132962,15.178397 c 10.203431,-3.58006 21.167377,-2.597028 31.926171,-2.844906 23.780244,6.412573 17.073214,19.035518 19.914344,29.713466 L 75.864168,149.5212 c -0.676742,5.3863 -5.270595,9.60435 -29.713466,7.90251 C 31.9123,155.25169 15.453542,154.26291 16.121136,144.14748 16.961529,115.27644 12.215075,85.288035 9.1669203,55.639287 8.7104081,38.085208 8.04171,20.403817 28.132962,15.178397 z"
     id="path6325"
     inkscape:connector-curvature="0"
     sodipodi:nodetypes="cccccccc" />
  <path
     style="fill:#3f2c00;fill-opacity:0.39473685;stroke:none"
     d="m 139.02754,143.49788 c 22.69338,-4.22359 44.75231,-3.37163 66.60805,-0.89407 1.22576,4.17953 4.68559,8.21943 -3.12923,12.96399 -4.36578,44.09253 -2.7131,90.61267 -3.81103,135.79448 -1.79513,30.71653 -6.85094,62.71404 2.46992,89.06357 -4.26115,12.71611 -9.27853,24.80202 -21.01059,31.29237 l -30.84534,-0.44703 c -13.76446,-8.12845 -20.68977,-18.88735 -26.82203,-29.95127 11.83005,-22.2242 13.18537,-44.86739 14.75212,-67.50212 3.57132,-51.07149 3.27825,-103.11582 4.91737,-154.67373 -3.34061,-4.35382 -6.39711,-8.81419 -3.12924,-15.64619 z"
     id="path6327"
     inkscape:connector-curvature="0"
     sodipodi:nodetypes="ccccccccccc" />
  <path
     style="fill:#d66d23;fill-opacity:1;stroke:none"
     d="m 159.47281,287.3411 c -1.1066,-5.96881 -4.12616,-14.00735 8.37666,-15.17283 7.8228,1.81794 8.05062,8.05309 5.37371,15.33088 -3.08383,1.73558 -4.79795,7.49611 -13.75037,-0.15805 z"
     id="path6331"
     inkscape:connector-curvature="0"
     sodipodi:nodetypes="cccc" />
  <path
     style="fill:#168131;fill-opacity:1;stroke:none"
     d="m 164.98539,179.62746 c -0.47614,-1.40306 -9.78933,-14.79509 6.65729,-15.88173 13.79957,2.62714 10.90007,13.55479 7.80994,16.56816 -5.44906,5.411 -10.2096,4.62538 -14.46723,-0.68643 z"
     id="path6333"
     inkscape:connector-curvature="0"
     sodipodi:nodetypes="cccc" />
  <path
     style="fill:#000000"
     d="m 150.99958,412.2197 c -5.63613,-2.27073 -15.28996,-9.4065 -19.81192,-14.64426 -5.18255,-6.00294 -9.50208,-13.44766 -9.50208,-16.3769 0,-0.92933 1.55679,-5.05915 3.45953,-9.17738 4.62575,-10.01184 9.3244,-29.0705 10.05718,-40.79397 0.32659,-5.225 1.21665,-18.5 1.9779,-29.5 2.08785,-30.16905 2.96219,-91.49125 1.30507,-91.5318 -0.85266,-0.0209 -0.69778,-0.48872 0.45032,-1.36025 1.58179,-1.20075 1.75,-3.65261 1.75,-25.50869 0,-22.85333 -0.11314,-24.33328 -2.06177,-26.96893 -2.47181,-3.34331 -2.43173,-11.90998 0.0618,-13.20375 5.38683,-2.79499 58.99179,-4.59689 66.50001,-2.23536 2.75541,0.86665 3.0244,1.35915 3.2993,6.0407 0.29668,5.0527 0.006,5.67527 -3.98713,8.55219 -2.78671,2.00751 -4.87131,57.33398 -3.53104,93.71589 0.56782,15.41355 -0.83772,47.69561 -2.7212,62.5 -3.09775,24.34867 -1.82694,53.74519 2.80237,64.82468 0.92134,2.20508 1.13998,3.86489 0.55659,4.22545 -2.00053,1.2364 -6.30041,-13.61021 -7.44212,-25.69617 -0.69395,-7.34596 1.0164,-39.29139 2.61562,-48.85396 0.64377,-3.84945 1.18364,-25.15577 1.32392,-52.25 l 0.23688,-45.75 -2.8266,0 c -1.55462,0 -2.84748,0.1125 -2.87301,0.25 -0.0255,0.1375 -0.27455,14.2 -0.55338,31.25 -0.27883,17.05 -1.00971,48.1 -1.62418,69 -1.42915,48.60937 -1.31333,55.65672 1.1334,68.96406 1.10874,6.03024 1.64548,11.20524 1.19277,11.5 -0.45272,0.29477 -1.58637,2.02532 -2.51923,3.84568 -2.27815,4.44552 -8.2872,10.98596 -11.72827,12.7654 -2.04725,1.05868 -5.21786,1.33186 -11.84438,1.02053 -7.45611,-0.35032 -10.20483,-0.96613 -15.61699,-3.49879 -5.09834,-2.3858 -6.99623,-2.84458 -8.48078,-2.05008 -1.31092,0.70157 -1.91258,0.69791 -1.91258,-0.0116 0,-0.56935 0.51368,-1.03518 1.1415,-1.03518 0.62783,0 -1.2543,-2.2258 -4.1825,-4.94623 -5.01484,-4.65901 -6.959,-5.43912 -6.959,-2.79236 0,0.62886 1.41823,2.60662 3.15162,4.39502 2.62854,2.71197 3.49989,3.08415 5.25,2.24244 1.97817,-0.95139 1.99324,-0.92455 0.26313,0.46855 -1.71389,1.38002 -1.35099,1.79699 5.48743,6.30516 l 7.32269,4.82742 14.22715,0.32319 14.22717,0.3232 4.80294,-4.49259 c 4.35656,-4.07506 8.08372,-10.21124 13.06499,-21.5095 1.35308,-3.06897 1.66234,-3.30761 1.95899,-1.51163 0.82485,4.99397 -10.01508,22.60354 -16.67814,27.09377 -3.11251,2.09753 -4.4269,2.26865 -16.97585,2.21017 -7.48117,-0.0349 -14.58582,-0.4597 -15.78812,-0.9441 z m 29.64044,-10.60762 c 1.70934,-1.43831 4.52667,-4.70081 6.26073,-7.25 1.73406,-2.54919 3.45954,-4.85989 3.8344,-5.13489 0.37485,-0.275 0.0749,-3.875 -0.66645,-8 -3.43534,-19.11355 -3.59203,-22.05083 -2.4539,-46 0.61423,-12.925 1.03911,-25.075 0.94419,-27 -0.0949,-1.925 0.14522,-14.975 0.53365,-29 0.38844,-14.025 0.79326,-36.01827 0.8996,-48.87394 l 0.19335,-23.37394 -22.50001,0.7237 c -12.375,0.39804 -23.175,1.11513 -24,1.59353 -1.33333,0.77319 -1.33333,0.87491 0,0.91555 1.33333,0.0406 1.33333,0.15343 0,1.0151 -0.825,0.53316 -0.9926,0.97627 -0.37244,0.98469 0.62015,0.008 1.68775,-0.65969 2.37244,-1.48469 0.68469,-0.825 1.52729,-1.4983 1.87244,-1.49622 1.43778,0.009 -0.99278,91.80549 -2.87271,108.49622 -0.55754,4.95 -1.48606,13.5 -2.06338,19 -1.40263,13.36254 -4.42705,26.98669 -7.82259,35.23854 -4.80688,11.68173 -4.82913,11.37477 1.30474,18.00008 5.14851,5.56101 11.67001,9.64768 20.5815,12.8973 1.925,0.70196 7.40297,1.29605 12.17327,1.32019 7.92742,0.0401 8.94055,-0.181 11.78117,-2.57122 z m -29.85842,-38.4012 c -2.97219,-0.44151 -6.08202,-0.54256 -6.91074,-0.22455 -1.19192,0.45738 -1.35574,0.0728 -0.78404,-1.84047 0.77304,-2.58704 2.93926,-33.72869 4.62011,-66.41867 0.56559,-11 1.46348,-23.825 1.9953,-28.5 0.53182,-4.675 0.98494,-14.8 1.00695,-22.5 0.0269,-9.41453 0.43901,-14.51924 1.2582,-15.5853 2.0058,-2.61024 30.17321,-5.18124 33.5183,-3.05941 1.55933,0.9891 1.54846,-1.12083 0.15279,29.64471 -0.62376,13.75 -0.86426,32.65 -0.53443,42 0.52797,14.9673 -0.86062,43.77968 -3.04351,63.15086 l -0.46775,4.15087 -12.70361,-0.008 c -6.98697,-0.004 -15.13538,-0.36888 -18.10757,-0.81039 z m 28.40399,-1.93939 c 1.83934,-0.74966 1.7791,-0.87321 -0.75,-1.53813 -1.5125,-0.39764 -2.75,-1.11008 -2.75,-1.58319 0,-0.47312 0.675,-0.60119 1.5,-0.28461 0.825,0.31659 1.5,0.12995 1.5,-0.41475 0,-0.5447 -0.93914,-1.23595 -2.08697,-1.53611 -1.35248,-0.35368 -1.96356,-1.18661 -1.73631,-2.36663 0.19287,-1.00149 0.79451,-1.59588 1.33698,-1.32088 0.54246,0.275 0.8738,0.8375 0.7363,1.25 -0.1375,0.4125 0.65,0.75 1.75,0.75 1.77553,0 1.99282,-0.64535 1.93605,-5.75 l -0.064,-5.75 -1.61201,3.23846 c -1.93363,3.8846 -4.75579,5.02789 -7.12299,2.88561 -1.56181,-1.41341 -2.01398,-1.37716 -4.92834,0.39517 -3.75315,2.28243 -4.25259,5.72613 -1.22752,8.46378 1.62137,1.46733 2.25711,1.56406 3.5,0.53255 0.83532,-0.69325 1.46656,-1.99286 1.40276,-2.88801 -0.0938,-1.31594 -0.20572,-1.2813 -0.58459,0.18091 -0.75,2.89476 -4.79937,1.79078 -4.79937,-1.30847 0,-2.09017 0.47393,-2.5 2.89101,-2.5 3.79431,0 5.39553,2.47835 3.82634,5.92234 -2.41496,5.30023 -10.21735,2.24204 -10.21735,-4.00475 0,-3.36184 3.64991,-7.41759 6.67535,-7.41759 0.7731,0 2.70493,-0.96061 4.29297,-2.13469 1.58802,-1.17408 3.54844,-1.88099 4.35648,-1.57092 1.63941,0.6291 2.78639,-3.15324 1.93893,-6.39392 -0.74438,-2.84651 -2.0686,-2.30323 -3.65801,1.50076 -1.59024,3.80599 -7.89013,8.59877 -11.30267,8.59877 -2.63185,0 -4.67473,-3.25357 -3.79106,-6.03777 0.88174,-2.77814 2.64829,-2.449 1.94278,0.36197 -0.34952,1.3926 -0.0307,2.78283 0.79532,3.4684 2.02079,1.6771 8.23489,-2.86274 10.79953,-7.88984 2.29548,-4.49951 4.65584,-4.878 6.56309,-1.05242 1.86619,3.74319 2.64222,-9.79616 2.77245,-48.37042 l 0.11485,-34.02009 -2.37329,0.0201 c -2.51433,0.0213 -5.09808,-2.84188 -3.76634,-4.17363 0.4343,-0.43429 1.22824,-0.006 1.76432,0.95204 1.13827,2.03397 3.33259,2.37569 2.57482,0.40099 -0.28296,-0.73738 -0.11299,-1.97488 0.3777,-2.75 0.70328,-1.11094 0.92558,-0.98589 1.04998,0.59068 0.0868,1.1 0.53279,-2.05 0.9911,-7 0.4583,-4.95 0.95668,-9.85693 1.1075,-10.90428 0.45068,-3.12976 -4.33463,-3.75013 -18.84579,-2.44319 l -13.11998,1.18164 -0.58323,20.58292 c -0.32077,11.3206 -1.05149,25.69289 -1.62382,31.93841 -1.02895,11.22831 -0.66612,14.9915 1.13509,11.77292 0.50122,-0.89563 1.63369,-1.62842 2.51661,-1.62842 1.41239,0 1.39056,0.23728 -0.18167,1.97457 -1.73108,1.91283 -1.70466,2.00587 0.84501,2.97525 2.15365,0.81882 2.63198,1.63948 2.63198,4.51564 0,3.41912 0.0545,3.46827 2,1.80251 1.1,-0.94185 2,-2.539 2,-3.54923 0,-1.01022 0.45,-1.55866 1,-1.21874 1.67419,1.0347 1.12202,3.58061 -1.18105,5.44552 -1.9889,1.61052 -2.06631,2.04308 -0.87868,4.91029 0.71631,1.7293 1.86768,3.14419 2.55861,3.14419 1.98544,0 4.00529,-3.06042 3.67638,-5.57036 -0.32003,-2.44217 2.18297,-4.42964 5.57867,-4.42964 2.0997,0 5.13279,3.12602 6.92167,7.13373 1.57147,3.52067 -0.43414,6.41079 -5.04968,7.27667 -3.85403,0.72302 -8.62592,4.06422 -8.62592,6.03974 0,0.71773 0.64026,1.83634 1.4228,2.48579 1.15349,0.95731 1.48473,0.74389 1.75,-1.12756 0.48091,-3.39275 5.32721,-3.31757 5.32721,0.0826 0,3.2433 -2.65142,4.7969 -6.09366,3.57059 -6.82568,-2.43169 -5.21443,-8.59437 3.12953,-11.96973 7.28336,-2.94632 7.63176,-3.25059 6.25195,-5.46002 -1.13545,-1.81813 -1.2421,-1.81967 -3.49141,-0.0504 -1.31922,1.0377 -3.19209,1.59706 -4.34119,1.29656 -1.1843,-0.3097 -2.85854,0.22947 -4.04405,1.30234 -1.62825,1.47355 -2.38509,1.60475 -3.87819,0.6723 -1.47152,-0.91898 -1.97042,-0.85811 -2.41268,0.29438 -0.30665,0.79918 -1.64852,1.453 -2.98194,1.453 -2.39305,0 -3.63837,1.63364 -3.63837,4.77292 0,1.38889 0.1789,1.36468 1.30603,-0.17676 0.80281,-1.09791 2.2477,-1.65318 3.75,-1.44113 3.65198,0.51548 3.45443,5.70125 -0.2974,7.80663 -4.96489,2.78609 -7.72485,-0.99773 -6.29339,-8.62804 0.51838,-2.76322 1.19692,-3.51605 3.60275,-3.99722 2.39803,-0.4796 2.74284,-0.85941 1.80555,-1.98877 -1.53584,-1.85058 -0.32258,-2.96519 1.54262,-1.41721 1.26388,1.04892 1.30419,0.87573 0.29426,-1.26428 -0.83101,-1.7609 -1.90074,-2.43426 -3.69033,-2.32293 -3.35257,0.20858 -3.45196,-3.31956 -0.14002,-4.97074 l 2.38006,-1.18659 -3.05946,-1.58211 -3.05946,-1.58211 -0.61771,5.73917 c -0.33974,3.15654 -1.02385,9.56417 -1.52023,14.23917 -0.49639,4.675 -1.17969,15.475 -1.51845,24 -0.33876,8.525 -0.86021,16.5125 -1.15878,17.75 -0.31523,1.30655 -0.0781,2.25 0.56555,2.25 0.60963,0 1.10841,-0.64844 1.10841,-1.44098 0,-2.24631 1.9642,-2.91614 4.52789,-1.54409 2.35963,1.26283 5.47211,0.79032 5.47211,-0.83073 0,-0.48321 -1.0125,-1.36688 -2.25,-1.96371 -2.22271,-1.07197 -2.22419,-1.08595 -0.12244,-1.15281 5.23276,-0.16646 5.2295,5.56026 -0.004,6.73257 -2.27054,0.50863 -0.52897,0.85232 6.37627,1.25833 14.59314,0.85806 15.36119,0.85743 17.50001,-0.0143 z m -29.46014,-10.49626 c -1.77433,-2.13793 -0.84911,-5.00103 1.73518,-5.36953 1.24004,-0.17683 1.96964,-0.78259 1.62135,-1.34614 -0.36767,-0.59489 0.14171,-0.87539 1.21451,-0.66879 2.54883,0.49086 4.13714,5.23015 2.43868,7.27667 -1.62734,1.96083 -5.42339,2.0192 -7.00972,0.10779 z m 5.64324,-2.73554 c -0.31922,-0.79773 -0.55618,-0.56078 -0.60416,0.60417 -0.0434,1.05416 0.19292,1.64479 0.52522,1.3125 0.33229,-0.33229 0.36781,-1.1948 0.0789,-1.91667 z m -2.52247,-7.69205 c -0.73664,-0.46692 -1.20053,-1.92252 -1.03085,-3.23469 0.16968,-1.31217 -0.0575,-2.97384 -0.50479,-3.6926 -1.20958,-1.94362 0.17406,-6.19316 2.0165,-6.19316 1.30575,0 1.37426,0.27608 0.36907,1.48727 -1.84941,2.22839 -0.48558,4.79827 2.10935,3.97467 1.33832,-0.42477 2.4493,-0.17168 2.98961,0.68105 2.82118,4.45241 -1.65309,9.70028 -5.94889,6.97746 z m 1.52247,-3.30795 c -0.31922,-0.79773 -0.55618,-0.56078 -0.60416,0.60417 -0.0434,1.05416 0.19292,1.64479 0.52522,1.3125 0.33229,-0.33229 0.36781,-1.1948 0.0789,-1.91667 z m 9.06689,1.12784 c -2.70714,-1.60838 -2.06875,-3.04269 0.77713,-1.74603 1.78834,0.81483 2.83862,0.83994 3.59264,0.0859 1.61075,-1.61075 -0.73769,-5.25108 -4.15639,-6.44284 -3.54345,-1.23525 -4.78092,-4.44842 -2.56616,-6.66318 1.47037,-1.47037 1.60278,-1.35536 1.60278,1.39227 0,2.40463 0.58708,3.21664 2.97809,4.11915 3.59601,1.35734 5.91139,5.67554 4.36568,8.14203 -1.27005,2.02663 -4.21813,2.52411 -6.59377,1.11268 z m 13.42577,-9.00253 c -2.08326,-0.83204 -2.84739,-4.12597 -0.92576,-3.99063 0.4125,0.029 1.9063,0.0528 3.31955,0.0528 2.06869,0 2.50726,0.42331 2.25,2.17167 -0.38045,2.58558 -1.51333,3.01644 -4.64379,1.76614 z m 0.82424,-7.38812 c 0,-0.79767 -0.73279,-1.8604 -1.62842,-2.36162 -1.16095,-0.6497 -1.29191,-1.11927 -0.45619,-1.63578 0.64472,-0.39846 1.82751,-0.18063 2.62841,0.48406 1.64855,1.36818 1.979,4.96365 0.4562,4.96365 -0.55,0 -1,-0.65264 -1,-1.45031 z m -5.66578,-23.04969 c 0.18233,-0.55 1.183,-1.165 2.22371,-1.36667 1.04071,-0.20167 2.43563,-1.10167 3.09982,-2 1.50712,-2.03843 3.71276,-0.29228 3.17103,2.51045 -0.2821,1.4595 -1.26361,1.85622 -4.59243,1.85622 -2.37677,0 -4.08825,-0.4386 -3.90213,-1 z m -14.01457,-5.25 c -3.47798,-3.70021 -5.31966,-8.32182 -5.31966,-13.34946 0,-3.58284 0.60942,-4.77312 4.36842,-8.53212 3.6953,-3.6953 4.98205,-4.36842 8.35078,-4.36842 9.69328,0 14.28081,4.63667 14.28081,14.43378 0,5.98251 -0.91322,8.59864 -4.29928,12.31622 -1.71564,1.88362 -3.08718,2.25 -8.42279,2.25 -5.65955,0 -6.66297,-0.30803 -8.95828,-2.75 z m 16.38286,-1.5 c 4.85422,-5.32484 5.00388,-16.13962 0.27633,-19.96807 -2.62364,-2.12468 -8.0884,-3.22223 -11.62457,-2.33471 -4.01748,1.00832 -8.35428,6.17174 -8.35428,9.94665 0,4.31889 3.93688,11.82032 7,13.33799 4.17939,2.07073 10.35488,1.59339 12.70252,-0.98186 z m -12.20252,-0.95782 c -6.59496,-3.7822 -6.92583,-14.33728 -0.56717,-18.09343 4.16707,-2.46155 8.68963,-2.1672 11.61263,0.7558 4.12784,4.12783 2.98798,14.325 -1.9875,17.78014 -1.59558,1.10802 -6.79744,0.8539 -9.05796,-0.44251 z m 9.5,-2.79218 c 1.40742,-1.40741 2.00001,-3.33333 2.00001,-6.5 0,-7.69536 -5.6739,-10.90416 -11.36515,-6.42742 -2.11193,1.66125 -2.63486,2.92051 -2.63486,6.34501 0,2.82156 0.59428,4.79014 1.75,5.79693 3.72446,3.24454 7.5015,3.53398 10.25,0.78548 z m -7,-3 c -1.99958,-1.99958 -2.79136,-7 -1.10841,-7 0.49038,0 1.17069,1.11201 1.51181,2.47114 0.34112,1.35912 1.52751,2.9567 2.63642,3.55017 1.10891,0.59347 1.75204,1.50646 1.42917,2.02886 -0.90413,1.46292 -2.27898,1.13984 -4.46899,-1.05017 z m -6.92742,-20.63486 c -2.47054,-3.14078 -2.55743,-4.22791 -0.56526,-7.07212 1.40344,-2.0037 1.35176,-2.17409 -0.75,-2.47251 -3.0226,-0.42917 -3.1475,-4.92939 -0.17308,-6.23627 2.02146,-0.88817 2.02899,-0.97101 0.25,-2.75 -1.97341,-1.97341 -2.4671,-4.83424 -0.83424,-4.83424 0.55,0 1,0.68465 1,1.52144 0,0.83679 1.14255,2.04202 2.53899,2.67828 3.28807,1.49815 2.78655,4.20336 -0.85697,4.62244 -1.93203,0.22222 -2.70489,0.81692 -2.49145,1.91713 0.17019,0.87724 0.87224,1.78237 1.56011,2.0114 0.82583,0.27497 1.02647,-0.16785 0.59065,-1.30358 -0.46545,-1.21295 -0.24455,-1.5755 0.74932,-1.22982 0.77514,0.26961 1.26616,1.27874 1.09116,2.24252 -0.19785,1.08954 0.18038,1.58802 1,1.31793 0.725,-0.23892 1.45771,-1.37897 1.62822,-2.53345 0.44045,-2.982 2.9365,-4.89776 4.43235,-3.40191 0.87683,0.87683 0.71494,1.15762 -0.66738,1.15762 -1.49444,0 -1.71632,0.54338 -1.225,3 0.44257,2.21284 0.22533,3 -0.82795,3 -2.70341,0 -6.52205,2.32406 -6.52205,3.96939 0,0.90659 0.59812,2.46633 1.32917,3.46609 1.11613,1.5264 1.68744,1.626 3.56456,0.62139 1.8128,-0.97018 2.00721,-1.4713 1.02834,-2.65077 -1.34598,-1.62181 -0.64518,-2.97104 1.0114,-1.94722 1.80648,1.11647 1.18256,4.34644 -1.15598,5.98442 -2.94602,2.06347 -3.28394,1.99961 -5.70491,-1.07816 z m 15.92743,0.13486 c -1.62485,-1.95782 0.63901,-5.26099 2.39926,-3.50074 0.7787,0.7787 0.66389,1.34964 -0.40762,2.02707 -1.2744,0.8057 -1.24337,0.94527 0.21305,0.95836 1.16549,0.0105 1.91514,-1.10649 2.37004,-3.53132 0.36594,-1.95064 0.44448,-3.76749 0.17453,-4.03744 -0.69015,-0.69016 -5.74926,1.72496 -5.74926,2.74459 0,1.91453 -4.11423,0.68289 -5.12433,-1.53403 -1.12,-2.45813 0.19349,-6.62649 2.08808,-6.62649 3.40984,0 5.4468,-7.24474 2.36903,-8.42579 -2.53353,-0.97221 -4.03889,1.0655 -2.54928,3.45075 1.36815,2.19075 0.0835,2.72468 -1.61921,0.673 -1.3613,-1.64025 -0.44202,-5.37741 1.50668,-6.1252 1.9864,-0.76225 5.05636,0.99277 5.79222,3.31127 0.79694,2.51091 -1.21347,6.72232 -4.11733,8.625 -2.60662,1.70792 -3.18939,5.49097 -0.84587,5.49097 0.825,0 1.5,-0.45 1.5,-1 0,-0.55 0.61991,-1 1.37757,-1 0.75765,0 1.94717,-0.68635 2.64338,-1.52523 1.12791,-1.35905 1.47815,-1.33308 3.2146,0.23839 1.46738,1.32796 1.81445,2.59135 1.40501,5.11446 -0.91946,5.66593 -4.0108,7.84104 -6.64055,4.67238 z m -17.59197,-25 c -1.51983,-2.31956 -1.51729,-2.68432 0.0352,-5.05374 2.03495,-3.10573 3.88992,-3.91881 6.10822,-2.67739 1.38522,0.77521 1.13768,1.0433 -1.43926,1.55869 -2.6016,0.52032 -3.1122,1.08591 -3.1122,3.44744 0,1.55375 0.54,3.365 1.2,4.025 0.90722,0.90722 0.91284,1.2 0.0231,1.2 -0.64732,0 -1.91407,-1.125 -2.81501,-2.5 z m 21.34265,1.759 c -0.96212,-0.22296 -2.03975,-1.56258 -2.39473,-2.97693 -0.68364,-2.72382 -3.70039,-6.28207 -5.32606,-6.28207 -0.53355,0 -0.87105,1.63847 -0.75,3.64105 0.12106,2.00258 -0.2299,3.80011 -0.7799,3.99452 -1.69193,0.59804 -1.75194,-8.60166 -0.0603,-9.25079 1.96633,-0.75455 8.56035,4.38711 8.56035,6.67489 0,2.39308 1.99207,3.5712 3.07518,1.81868 0.56903,-0.9207 0.30916,-1.56814 -0.78323,-1.95133 -1.38383,-0.48542 -1.26307,-0.84746 0.78662,-2.35816 l 2.42143,-1.78471 -2.75,0.62698 c -3.23879,0.73841 -3.68216,-0.84188 -0.68608,-2.44534 2.54542,-1.36227 5.35798,0.52179 4.3955,2.94442 -0.34738,0.87439 -0.80886,2.46472 -1.02551,3.53407 -0.53623,2.64677 -2.57101,4.3042 -4.68323,3.81472 z m -17.75756,-1.76728 c -1.76325,-2.12459 -0.45868,-4.49172 2.47549,-4.49172 1.8496,0 2.53138,0.52918 2.53138,1.96482 0,2.74178 -3.40313,4.45929 -5.00687,2.5269 z m 3.00687,-2.49172 c 0,-0.55 -0.19844,-1 -0.44098,-1 -0.24254,0 -0.7191,0.45 -1.05902,1 -0.33992,0.55 -0.14148,1 0.44098,1 0.58246,0 1.05902,-0.45 1.05902,-1 z m 5.5,117 c 0.33992,-0.55 0.14148,-1 -0.44098,-1 -0.58246,0 -1.05902,0.45 -1.05902,1 0,0.55 0.19844,1 0.44098,1 0.24254,0 0.7191,-0.45 1.05902,-1 z m 7.93525,-6.89522 c 0.3043,-0.49236 -0.0751,-1.13636 -0.84322,-1.43109 -1.46629,-0.56267 -2.59202,0.0857 -2.59202,1.49298 0,1.11676 2.73727,1.06745 3.43524,-0.0619 z m -3.43524,-24.1638 c 0,-0.51754 -0.45,-0.94098 -1.00001,-0.94098 -0.55,0 -1,0.70156 -1,1.55902 0,0.85746 0.45,1.2809 1,0.94098 0.55001,-0.33992 1.00001,-1.04148 1.00001,-1.55902 z m -14.57144,-0.51241 c 2.16093,-2.16093 1.96786,-3.42857 -0.52219,-3.42857 -1.24867,0 -2.30351,0.80263 -2.61369,1.98875 -0.28604,1.09382 -0.91891,1.74226 -1.40638,1.44099 -0.48747,-0.30128 -0.88631,-0.0712 -0.88631,0.51124 0,1.60921 3.65164,1.26452 5.42857,-0.51241 z m 16.13378,-18.3277 c -0.82191,-1.32988 -3.56235,-1.47158 -3.56235,-0.1842 0,0.50416 0.5625,1.10598 1.25001,1.33738 0.96466,0.32467 0.92092,0.85731 -0.19161,2.33333 -1.11893,1.48453 -0.9239,1.43159 0.87137,-0.23651 1.27212,-1.18203 2.00678,-2.64453 1.63258,-3.25 z m -18.56235,-1.65989 c 0,-0.85746 -0.45,-1.2809 -1,-0.94098 -0.55,0.33992 -1,1.04148 -1,1.55902 0,0.51754 0.45,0.94098 1,0.94098 0.55,0 1,-0.70156 1,-1.55902 z m -24.8,85.35902 c -0.93333,-0.93333 -1.47592,-0.92408 -2.44164,0.0416 -0.98886,0.9889 -0.93966,1.42832 0.24164,2.1584 0.91008,0.56246 1.85363,0.54637 2.44164,-0.0416 0.61115,-0.61115 0.5236,-1.39312 -0.24164,-2.15836 z m -1.77003,-2.91331 c -0.85211,-1.37874 -3.42997,-1.04306 -3.42997,0.44664 0,0.73334 0.2961,1.62943 0.65799,1.99133 0.90433,0.90433 3.45253,-1.33682 2.77198,-2.43797 z m -0.40219,-3.9386 c 1.30896,-2.4458 1.22359,-3.19345 -0.27778,-2.43295 -0.6875,0.34825 -0.50903,0.0217 0.39659,-0.72561 1.93356,-1.59559 5.13635,-8.78953 3.91317,-8.78953 -0.46101,0 -1.90054,0.93428 -3.19898,2.07619 -1.29843,1.1419 -1.68578,1.74434 -0.86078,1.33875 0.825,-0.40559 0.40906,0.46012 -0.92431,1.92381 -1.33338,1.46369 -2.03487,2.66125 -1.55887,2.66125 0.47599,0 -0.008,0.71174 -1.07569,1.58164 -1.91455,1.55998 -1.91375,1.57363 0.0589,0.99754 1.92102,-0.56102 1.92694,-0.52739 0.14986,0.85183 -2.07871,1.61332 -1.39666,3.79279 0.90995,2.90767 0.82266,-0.31569 1.93325,-1.39145 2.46797,-2.39059 z m 7.05004,-18.20477 c 0.63322,-2.33383 1.30142,-5.59332 1.48489,-7.24332 0.18347,-1.65 0.80691,-4.57203 1.38543,-6.4934 1.42162,-4.72142 1.32783,-8.99958 -0.19814,-9.0384 -0.73606,-0.0187 -0.49619,-0.60307 0.5834,-1.42123 1.26937,-0.96198 1.7448,-2.41793 1.54538,-4.7326 -0.15842,-1.83874 0.0556,-3.89919 0.47561,-4.57877 0.93235,-1.50857 -0.31695,-1.58506 -2.35439,-0.14416 -1.16811,0.82611 -1.21419,1.17612 -0.20826,1.58194 1.02517,0.41357 1.03844,0.82631 0.0643,2.00008 -0.97025,1.16909 -0.96908,1.63864 0.006,2.24103 0.94801,0.5859 0.89089,1.04601 -0.24713,1.99048 -1.6214,1.34564 -1.77636,5.09503 -0.21058,5.09503 0.53808,0 0.26947,0.5625 -0.59691,1.25 -1.83961,1.45979 -3.14623,7.05402 -1.41256,6.04784 0.60805,-0.35289 0.22343,0.3632 -0.8547,1.59132 -1.64777,1.877 -1.73193,2.37404 -0.52802,3.11809 1.20017,0.74175 1.15323,0.99222 -0.28977,1.54594 -2.26567,0.86943 -2.23925,2.55893 0.028,1.79238 1.18135,-0.3994 1.01887,-0.0458 -0.5,1.08809 -1.2375,0.92386 -2.25,2.15933 -2.25,2.74549 0,0.64901 0.68429,0.54091 1.75,-0.27644 0.9625,-0.73821 0.625,-0.0457 -0.75,1.5388 -1.375,1.58455 -1.825,2.51087 -1,2.05849 0.825,-0.45238 0.4875,0.29156 -0.75,1.6532 -3.06991,3.37786 -2.82362,4.19479 0.71325,2.3658 2.14356,-1.10847 3.28174,-2.70615 4.11457,-5.77568 z m 6.0498,-39.10995 c 0.0702,-1.72335 0.30076,-4.25837 0.51236,-5.63337 0.91258,-5.92991 1.28563,-18 0.55632,-18 -1.01686,0 -3.1963,2.16056 -3.1963,3.16862 0,0.42273 0.7875,0.521 1.75,0.21836 1.56442,-0.4919 1.58436,-0.40904 0.18803,0.78138 -1.80497,1.5388 -3.24068,4.83164 -2.10665,4.83164 0.42274,0 1.40918,-0.5625 2.19209,-1.25 0.7829,-0.6875 0.55469,-0.21157 -0.50713,1.05762 -1.06183,1.26919 -2.07663,3.39803 -2.2551,4.73075 -0.25809,1.92721 0.0401,2.31324 1.45713,1.88616 1.30251,-0.39257 1.17656,-0.0857 -0.46837,1.14122 -2.83801,2.11677 -3.24614,7.6847 -0.5,6.82123 1.66667,-0.52405 1.66667,-0.48159 0,0.89163 -2.35884,1.94351 -2.21664,3.65618 0.25,3.01114 1.42279,-0.37207 2.03683,-1.42731 2.12762,-3.65638 z m -2.62762,-4.63337 c 0.33992,-0.55 1.06803,-1 1.61803,-1 0.55,0 0.72189,0.45 0.38197,1 -0.33992,0.55 -1.06803,1 -1.61803,1 -0.55,0 -0.72189,-0.45 -0.38197,-1 z m 1,-8 c 0.33992,-0.55 1.06803,-1 1.61803,-1 0.55,0 0.72189,0.45 0.38197,1 -0.33992,0.55 -1.06803,1 -1.61803,1 -0.55,0 -0.72189,-0.45 -0.38197,-1 z m 2.38056,-12.35609 c 0.6398,-0.77091 1.35537,-7.05132 1.65827,-14.55435 0.5265,-13.04186 0.50869,-13.18536 -1.50301,-12.10873 -2.48714,1.33108 -2.71821,3.20525 -0.28582,2.31822 1.66667,-0.60779 1.66667,-0.54302 0,1.36013 -2.11934,2.42005 -2.24481,3.46793 -0.32712,2.73204 1.53404,-0.58867 1.62001,1.95784 0.11241,3.32984 -0.47178,0.42933 -0.48761,0.10571 -0.0353,-0.72106 0.45136,-0.825 0.43691,-1.1509 -0.0321,-0.72423 -0.46902,0.42667 -0.99597,1.71416 -1.171,2.86109 -0.2457,1.60993 0.0703,1.9362 1.38636,1.43119 1.60256,-0.61496 1.6032,-0.54206 0.0107,1.21766 -1.9871,2.19572 -2.23039,3.6352 -0.44393,2.6266 1,-0.56457 1,-0.43638 0,0.64099 -0.6875,0.74068 -1.25,1.95826 -1.25,2.70572 0,0.82106 0.4948,1.06175 1.25,0.60804 0.72852,-0.43768 0.62422,0.035 -0.25,1.13294 -0.87422,1.09798 -0.97852,1.57062 -0.25,1.13294 0.6875,-0.41304 1.25,-0.32256 1.25,0.20105 0,0.52362 -0.675,1.21105 -1.5,1.52764 -1.59116,0.61058 -2.10915,3.63837 -0.62244,3.63837 0.48265,0 1.384,-0.61024 2.003,-1.35609 z m 1.09048,-28.60485 c 0.80907,-0.51167 1.13586,-1.2655 0.72619,-1.67516 -0.40967,-0.40967 -1.50556,0.0159 -2.43533,0.94562 -1.80738,1.80739 -0.72543,2.26921 1.70914,0.72954 z m 1.02896,-5.07424 c 0,-1.32439 -1.35417,-1.21065 -2.8,0.23518 -1.88759,1.88759 -1.40261,2.9788 0.8,1.8 1.1,-0.5887 2,-1.50453 2,-2.03518 z m -1.58179,-1.57181 c 0.86999,-0.33384 1.58179,-1.28199 1.58179,-2.10699 0,-0.95696 -0.57265,-1.28025 -1.58179,-0.89301 -0.86998,0.33385 -1.76998,0.60699 -2,0.60699 -0.23001,0 -0.41821,0.675 -0.41821,1.5 0,1.68305 0.18315,1.75069 2.41821,0.89301 z m 0.27277,-4.64301 c 0.44496,-0.6875 0.86425,-3.05 0.93175,-5.25 0.0675,-2.2 0.42483,-6.16395 0.79407,-8.80877 0.64476,-4.61841 0.59042,-4.76546 -1.37273,-3.71481 -2.17461,1.16381 -2.95276,4.6019 -0.79407,3.50844 0.6875,-0.34825 0.4625,0.0123 -0.5,0.80123 -0.9625,0.78892 -1.75,1.70816 -1.75,2.04277 0,0.3346 0.7875,0.36352 1.75,0.0643 1.66667,-0.51821 1.66667,-0.49054 0,0.58107 -0.9625,0.61886 -1.75,1.55284 -1.75,2.07551 0,0.52267 0.7875,0.9572 1.75,0.96562 1.43177,0.0125 1.49003,0.17983 0.32037,0.92003 -2.08523,1.31962 -2.26238,4.04698 -0.22172,3.41379 1.43927,-0.44659 1.4266,-0.32722 -0.0986,0.92948 -1.87836,1.54764 -2.35093,3.72139 -0.80902,3.72139 0.51754,0 1.30504,-0.5625 1.75,-1.25 z m 2.88861,-20.50375 c -0.70629,-0.70628 -4.57959,0.81585 -4.57959,1.7997 0,0.50114 1.1269,0.39772 2.50423,-0.22983 1.37732,-0.62755 2.31123,-1.33399 2.07536,-1.56987 z m -1.51385,-1.28143 c 2.27935,-1.21987 2.67174,-5.96482 0.49328,-5.96482 -0.79254,0 -1.7489,-0.49821 -2.12523,-1.10713 -0.46035,-0.74486 0.093,-0.91149 1.69098,-0.50923 1.30638,0.32884 1.80993,0.33862 1.119,0.0217 -0.69093,-0.3169 -1.00187,-0.98775 -0.69098,-1.49077 0.81732,-1.32246 -0.94261,-1.12477 -2.329,0.26162 -0.81224,0.81224 -0.8591,1.55829 -0.15144,2.41097 0.70139,0.84512 0.69388,1.43926 -0.0238,1.88281 -1.7176,1.06154 -1.18896,2.51089 0.70144,1.92312 1.66667,-0.51821 1.66667,-0.49054 0,0.58107 -0.9625,0.61886 -1.75,1.55284 -1.75,2.07551 0,1.21662 0.66845,1.19812 3.06574,-0.0849 z m -0.0657,-11.46482 c 1.35129,-1.62821 1.02807,-1.83174 -1.41821,-0.89301 -0.86999,0.33384 -1.58179,1.00884 -1.58179,1.5 0,1.38323 1.62035,1.05539 3,-0.60699 z m -0.58179,-2.10699 c 0.86999,-0.33384 1.58179,-1.47468 1.58179,-2.53518 0,-1.61832 -0.32142,-1.75618 -2,-0.85783 -1.1,0.5887 -2,1.72953 -2,2.53518 0,1.64658 0.1885,1.71345 2.41821,0.85783 z m 0.71294,-6.66186 c -0.77808,-0.77808 -0.77383,-1.45677 0.0151,-2.40736 0.67785,-0.81676 0.71564,-1.32379 0.0986,-1.32379 -0.55,0 -1.5602,0.675 -2.24489,1.5 -0.99984,1.20473 -0.98457,1.5 0.0776,1.5 1.02856,0 1.05577,0.26667 0.12244,1.2 -1.92633,1.92633 -1.38359,2.96862 0.90736,1.74254 1.51325,-0.80987 1.80188,-1.4333 1.02379,-2.21139 z m 53.86585,-12.82612 c 0.003,-1.35275 -2.00915,-1.67696 -13.24699,-2.13487 -14.92582,-0.60818 -34.98103,-0.15553 -38.75001,0.87461 -1.375,0.37582 -2.7625,0.63449 -3.08333,0.57482 -0.32084,-0.0597 -0.58334,0.52576 -0.58334,1.30094 0,1.18396 4.45214,1.37504 27.83032,1.19445 24.71659,-0.19093 27.83067,-0.39343 27.83335,-1.80995 z m -26.24699,-4.11418 c 21.58387,-0.034 26.25,-0.28569 26.25,-1.41608 0,-1.12939 -4.23916,-1.36448 -23.75,-1.31714 -25.24097,0.0613 -31.30297,0.60124 -32.05433,2.85533 -0.34266,1.02798 0.0384,1.206 1.41787,0.66247 1.03755,-0.4088 13.69895,-0.76186 28.13646,-0.78458 z m 26.16667,-5.37845 c 1.17799,-1.16592 -1.75847,-1.56397 -12.07217,-1.63643 -23.86913,-0.16769 -36.37093,0.3245 -38.53152,1.51698 -1.74145,0.96113 3.14811,1.13827 24.00001,0.86945 14.40285,-0.18569 26.37451,-0.52319 26.60368,-0.75 z m -52.73026,-3.51217 c 1.61003,-0.86166 1.88504,-0.82487 1.27021,0.16994 -0.5634,0.9116 -0.29232,1.08076 0.96111,0.59977 0.96021,-0.36847 4.52153,-0.7004 7.91405,-0.73762 4.78791,-0.0525 5.72066,-0.28975 4.16821,-1.06003 -1.1,-0.54579 -3.125,-2.52795 -4.5,-4.40479 -2.8442,-3.88227 -3.28146,-4.04318 -5.35427,-1.97037 -0.8694,0.86939 -2.226,1.21743 -3.23547,0.83006 -1.13352,-0.43497 -1.50163,-0.28405 -1.05799,0.43377 0.37419,0.60547 0.15348,1.42647 -0.49047,1.82445 -0.77343,0.47801 -0.90143,0.28773 -0.37711,-0.56063 0.52908,-0.85608 0.33054,-1.12986 -0.59549,-0.82118 -0.76406,0.25469 -1.4342,1.88807 -1.4892,3.62973 -0.11231,3.55657 -0.064,3.5924 2.78642,2.0669 z m -0.74529,-2.34506 c 1.06762,-0.85535 2.38012,-1.55517 2.91667,-1.55517 1.27054,0 0.70323,0.4619 -2.3578,1.91971 -2.35727,1.12265 -2.38918,1.10183 -0.55887,-0.36454 z m 31.97709,1.83784 c 0.86999,-0.33384 1.58179,-1.51823 1.58179,-2.63196 0,-2.34235 3.72296,-8.76105 5.08156,-8.76105 1.28597,0 1.14365,1.37479 -0.29083,2.80927 -0.94569,0.94569 -0.72773,1.54655 1,2.7567 1.2151,0.85109 2.20927,2.38954 2.20927,3.41878 0,1.5202 1.04061,2.00135 5.54573,2.56423 3.05015,0.38109 5.86265,0.37727 6.25,-0.008 0.38735,-0.38576 0.85034,-6.93974 1.02887,-14.56441 l 0.3246,-13.86302 -2.3246,0.11801 c -1.27853,0.0649 -3.11486,0.7867 -4.08073,1.604 -2.12362,1.79696 -3.52477,0.81078 -1.80028,-1.2671 0.67572,-0.8142 0.94062,-1.9463 0.58866,-2.51578 -0.35196,-0.56949 0.47491,-2.15026 1.83748,-3.51283 l 2.47741,-2.47741 -3.58311,-0.6722 c -4.41563,-0.82837 -32.59999,0.27954 -40.70736,1.60019 -3.26883,0.53247 -6.64383,1.71646 -7.5,2.63107 -1.41484,1.51141 -1.40014,1.60842 0.16129,1.06464 0.94489,-0.32907 2.02692,-0.0984 2.40451,0.51253 0.44716,0.72352 0.22474,0.82543 -0.63791,0.29228 -0.95646,-0.59112 -1.15044,-0.3651 -0.69818,0.81347 0.34444,0.89761 0.12639,1.94096 -0.48457,2.31855 -0.64742,0.40013 -0.83098,0.23373 -0.44002,-0.39887 0.36895,-0.59698 0.25299,-1.34365 -0.2577,-1.65927 -0.51069,-0.31563 -0.81622,0.19138 -0.67894,1.12669 0.13727,0.9353 0.77528,1.87578 1.41779,2.08995 0.70366,0.23456 0.27127,1.1166 -1.08737,2.21813 -2.79888,2.26922 -1.91949,3.3939 1.60573,2.05362 1.45128,-0.55227 2.63869,-0.77872 2.63869,-0.50372 0,0.275 -1.0506,0.89944 -2.33468,1.38764 -1.80367,0.68576 -2.36535,1.70362 -2.46955,4.47525 -0.14852,3.9508 -0.0343,4.04451 3.11997,2.55872 2.13659,-1.00643 2.13516,-0.99285 -0.0657,0.62198 -2.60934,1.9145 -3.01635,3.91496 -0.60856,2.99101 1.37248,-0.52667 1.43434,-0.38034 0.37756,0.89301 -1.05736,1.27404 -0.94975,1.52289 0.65856,1.52289 1.05734,0 2.46244,-0.54 3.12244,-1.2 1.44697,-1.44697 1.61409,-8.8 0.2,-8.8 -1.69335,0 -1.13119,-6.6484 0.68723,-8.12756 1.47854,-1.20268 1.60223,-1.15599 1,0.37756 -0.37798,0.9625 -0.9075,2.3125 -1.17673,3 -0.26922,0.6875 -0.0973,1.86562 0.38197,2.61803 0.70461,1.10611 1.27248,0.96702 2.96597,-0.72647 1.58723,-1.58723 2.64382,-1.89131 4.36254,-1.25552 1.86272,0.68907 2.56343,0.35323 3.92114,-1.87934 2.31692,-3.80987 8.67505,-4.80092 13.97564,-2.17841 3.73314,1.84702 3.85024,1.84793 4.42581,0.0345 0.56441,-1.77831 2.17758,-2.33934 5.45644,-1.89766 3.03862,0.40932 3.33963,1.95902 1.53698,7.91278 -1.89402,6.25551 -1.59116,9.92509 1.03595,12.5522 2.55624,2.55625 3.5732,1.86582 2.85904,-1.94103 -0.75821,-4.04159 0.71764,-6.48904 3.91298,-6.48904 2.08098,0 2.07987,0.0142 -0.12244,1.5567 -1.22238,0.85619 -2.20883,2.54369 -2.1921,3.75 0.0273,1.97061 0.1339,2.01562 1.04969,0.4433 1.53037,-2.62748 3.20828,-2.15915 1.79136,0.5 -1.11314,2.08905 -1.07164,2.14498 0.58016,0.78183 1.60466,-1.32424 1.74255,-1.27859 1.40664,0.46563 -0.53306,2.768 -4.9119,4.95688 -8.24345,4.12071 -5.37794,-1.34977 -6.93825,-11.11502 -3.00444,-18.80328 1.25913,-2.46085 1.2012,-2.73992 -0.69361,-3.34131 -3.0042,-0.9535 -3.39412,-0.093 -3.52991,7.7899 -0.11754,6.82317 -0.26644,7.23806 -3.73995,10.4213 -6.76576,6.20036 -14.76656,3.23394 -17.9784,-6.66577 -1.81141,-5.58323 -4.18485,-7.32808 -6.22708,-4.57788 -1.80012,2.42416 -1.87256,8.587 -0.12897,10.9715 0.8905,1.21784 2.79914,1.85403 5.93667,1.97884 4.82027,0.19173 8.75087,2.62555 8.75087,5.41851 0,1.23 -0.35999,1.17421 -2,-0.30998 -1.62672,-1.47216 -2,-1.5322 -2,-0.32165 0,0.81857 0.3,1.78832 0.66667,2.15498 0.83344,0.83345 8.62248,0.87668 10.75155,0.0597 z M 153.9307,163.07227 c -0.68479,-0.68479 -1.24508,-2.22901 -1.24508,-3.43158 0,-2.82174 4.62454,-3.63172 10.55127,-1.84803 3.066,0.92273 4.5147,0.96856 5.3151,0.16816 0.60516,-0.60516 1.44459,-0.756 1.86539,-0.3352 1.1699,1.1699 -2.8876,3.68688 -4.90912,3.04528 -2.03232,-0.64504 -5.57694,0.99838 -4.82264,2.23595 0.8268,1.35651 -5.41107,1.50927 -6.75492,0.16542 z m 4.11219,-2.35642 c -0.43101,-1.1232 -0.124,-1.33638 1.19543,-0.83006 1.24355,0.47719 1.55126,0.31862 1.02719,-0.52934 -0.44439,-0.71904 -1.62765,-0.94063 -2.91405,-0.54571 -2.79948,0.85943 -2.99769,1.07048 -2.20696,2.34992 1.03485,1.67442 3.56275,1.28647 2.89839,-0.44481 z m 26.64274,28.01134 c 0,-0.825 -0.43588,-1.5 -0.96862,-1.5 -0.53273,0 -0.70959,0.675 -0.39301,1.5 0.31659,0.825 0.75246,1.5 0.96862,1.5 0.21615,0 0.39301,-0.675 0.39301,-1.5 z m -21.80646,-2.82684 c -2.35145,-1.04924 -3.79056,-0.44817 -2.79269,1.16643 0.33062,0.53496 1.59209,0.71351 2.80326,0.39678 l 2.20214,-0.57587 -2.21271,-0.98734 z m 14.7792,-5.30367 c 2.77421,-2.33435 3.09247,-3.13929 2.82672,-7.14938 -0.44842,-6.76673 -3.78614,-8.87645 -12.69003,-8.02117 -3.67225,0.35275 -5.52848,5.55391 -3.61582,10.13155 1.62726,3.89458 5.84271,7.66951 8.56452,7.66951 0.98363,0 3.1952,-1.18373 4.91461,-2.63051 z m -9.41605,-3.592 c -1.73834,-2.48183 -2.03373,-5.36464 -0.63807,-6.2272 0.50524,-0.31226 1.216,0.78618 1.57945,2.44098 0.59584,2.71282 1.51644,3.48012 3.75193,3.12715 0.4125,-0.0651 0.75,0.55658 0.75,1.38158 0,2.2797 -3.68288,1.79086 -5.44331,-0.72251 z m 31.26663,-19.11036 c 0.17783,-0.91692 -0.23467,-1.66713 -0.91666,-1.66713 -0.682,0 -0.9439,0.2961 -0.582,0.65799 0.36189,0.3619 0.0994,1.33508 -0.58334,2.16262 -1.01608,1.23162 -0.96915,1.41473 0.25868,1.00915 0.825,-0.27252 1.6455,-1.2457 1.82332,-2.16263 z m -41.82333,-5.55744 c 17.93415,-2.15384 40.32009,-1.62885 43.62326,1.02304 1.94881,1.56456 4.29851,-0.19874 4.95943,-3.72175 1.24818,-6.65338 0.44437,-7.00871 -18.08268,-7.99345 -21.715,-1.15418 -47.91134,2.31645 -49.31712,6.5338 -0.31146,0.93437 0.0624,1.15857 1.18066,0.70802 3.94059,-1.58772 4.8779,-1.59461 1.88645,-0.0139 -3.50057,1.84977 -3.66755,2.14725 -2.36186,4.20776 0.66886,1.05552 1.3255,1.10278 2.98469,0.21481 2.56658,-1.37359 2.81909,-0.32451 0.37717,1.56701 -1.45622,1.128 -1.16244,1.12558 1.75,-0.0145 1.925,-0.75351 7.775,-1.88343 13,-2.51093 z m -17.91667,-0.47424 c 0.22917,-0.2005 1.54167,-0.90032 2.91667,-1.55516 2.35727,-1.12265 2.38918,-1.10183 0.55887,0.36454 -1.593,1.27626 -4.84786,2.39128 -3.47554,1.19062 z M 12.705153,405.97719 c 0.0107,-1.7875 0.67345,-8.16383 1.47269,-14.16963 0.79924,-6.00579 1.43616,-18.38079 1.41538,-27.5 -0.0208,-9.1192 0.42335,-22.65537 0.98697,-30.08037 0.56361,-7.425 1.03521,-31.6608 1.04798,-53.85733 0.0139,-24.17934 0.50125,-44.82409 1.2157,-51.5 0.65587,-6.12847 1.22607,-25.82931 1.26712,-43.77965 l 0.0746,-32.63699 -2.26406,-1.86301 c -2.16465,-1.78121 -2.28706,-2.67558 -2.78765,-20.36677 -0.68383,-24.1674 -0.91305,-27.02008 -3.45473,-42.996255 -1.18126,-7.425 -2.3209901,-15.975003 -2.5327401,-19.000003 -0.21175,-3.025 -0.64767,-8.072248 -0.96873,-11.216107 -0.72671,-7.116254 1.26111,-26.376611 3.0887901,-29.927774 3.45544,-6.713875 12.40885,-12.650381 22.21834,-14.731741 5.9181,-1.25569 20.92215,-1.373979 28.9685,-0.228382 8.16478,1.162459 13.17607,5.231625 16.1919,13.147813 2.42194,6.357311 2.45746,6.90034 2.31959,35.456191 -0.077,15.95 -0.64205,32.825003 -1.25565,37.500003 -0.6136,4.675005 -1.52422,18.168795 -2.02361,29.986205 -0.72987,17.27167 -1.26025,22.22222 -2.70396,25.23853 -0.98779,2.06378 -2.24599,3.75756 -2.79599,3.76395 -0.63816,0.007 -1.03955,9.50977 -1.10932,26.26148 -0.0736,17.67883 -0.62767,30.16804 -1.69682,38.24984 -3.79682,28.70067 -4.59947,35.50819 -5.18785,44 -0.6581,9.49811 -2.9407,27.59892 -4.53976,36 -0.52343,2.75 -1.65564,8.825 -2.51602,13.5 -4.77392,25.94001 -16.44531,54.69143 -31.8837,78.54263 -10.64284,16.44243 -12.58379,18.33084 -12.547,12.20737 z m 15.30738,-21.09823 c 11.75597,-19.15968 21.83878,-45.85482 26.77735,-70.89545 3.49683,-17.7304 6.49325,-38.80506 7.35878,-51.75632 0.34918,-5.225 1.47129,-15.575 2.49357,-23 1.02228,-7.425 2.36228,-17.55 2.97778,-22.5 1.25303,-10.07729 1.99921,-37.75234 1.34998,-50.06977 l -0.42534,-8.06978 -13.71563,-0.24079 -13.71562,-0.2408 0.40362,7.14306 c 0.25182,4.45657 -0.0167,7.56336 -0.71389,8.26057 -0.82334,0.82335 -1.14375,-0.44872 -1.21719,-4.83249 -0.0548,-3.2725 -0.42854,-7.075 -0.83048,-8.45 -0.71236,-2.43689 -0.75029,-2.41535 -1.50245,0.85322 l -0.77164,3.35323 -3.89787,-3.80617 c -2.65252,-2.59012 -3.89788,-3.29519 -3.89788,-2.20682 0,0.87965 1.62226,3.02372 3.60502,4.7646 1.98276,1.74088 3.39688,3.37338 3.1425,3.62776 -0.25438,0.25438 -1.03174,-0.22336 -1.72746,-1.06165 -0.69572,-0.8383 -1.73829,-1.52417 -2.31682,-1.52417 -0.57852,0 0.005,1.125 1.29676,2.5 3.1537,3.35696 1.34283,3.20263 -2.19528,-0.18709 -1.54259,-1.4779 -2.80472,-2.18797 -2.80472,-1.57792 0,0.61004 1.9125,2.77436 4.25,4.8096 4.08981,3.56095 1.73584,3.20492 -2.75,-0.41593 -2.24577,-1.81274 1.88678,3.43002 4.43097,5.62134 0.79821,0.6875 1.05241,1.25 0.56488,1.25 -0.48752,0 -2.09766,-1.16045 -3.57807,-2.57878 l -2.69167,-2.57877 0.15235,3.02919 c 0.0916,1.82204 1.34173,4.31241 3.13694,6.24927 l 2.9846,3.22008 -3.25,-2.23859 c -4.15557,-2.86235 -4.15557,-1.66263 0,2.76569 l 3.25,3.46331 -3.25,-2.2338 c -4.27755,-2.94004 -4.14907,-1.36135 0.23502,2.88788 1.91676,1.8578 3.26207,3.60077 2.98957,3.87326 -0.2725,0.2725 -1.84075,-0.79343 -3.48502,-2.36873 -3.77993,-3.62141 -4.04997,-1.20627 -0.30248,2.70527 2.80733,2.93022 2.65892,4.00787 -0.16328,1.18567 -0.89047,-0.89047 -1.93481,-1.30328 -2.32074,-0.91735 -0.38593,0.38593 0.7605,2.00816 2.54762,3.60495 4.03462,3.60493 4.23559,4.76993 0.34494,1.99954 -3.38698,-2.41174 -4.09563,-2.54398 -4.09563,-0.76426 0,0.71711 1.56826,2.82385 3.48502,4.68165 1.91676,1.8578 3.26499,3.59785 2.99606,3.86678 -0.26893,0.26893 -1.53891,-0.49742 -2.82219,-1.70299 l -2.33322,-2.19195 -0.13061,3.47408 c -0.10532,2.80153 0.49234,3.96507 3.08717,6.01025 1.76978,1.3949 2.79678,2.54116 2.28222,2.54726 -0.51455,0.006 -1.97527,-0.96568 -3.24605,-2.15952 -1.27078,-1.19384 -2.56689,-1.91423 -2.88024,-1.60088 -0.58872,0.58872 0.6054,1.83095 4.06027,4.22383 1.09914,0.76128 1.6644,1.71817 1.25613,2.12643 -0.40826,0.40827 -1.64781,-0.0772 -2.75456,-1.07877 -4.08381,-3.6958 -3.22856,-0.30363 1.06237,4.21365 l 4.43763,4.67171 -3.95127,-3.33885 c -4.99137,-4.21774 -6.11915,-2.26199 -1.46477,2.54011 3.52249,3.63429 3.01633,4.79568 -0.60667,1.39204 l -2.15162,-2.02134 -0.13389,3.5613 c -0.10564,2.81016 0.5455,4.20452 3.08717,6.61092 2.33504,2.21075 2.54094,2.61236 0.74855,1.46003 -3.55981,-2.2886 -4.0275,-2.03147 -4.0275,2.21426 0,3.0313 0.70779,4.48985 3.48502,7.18165 1.91676,1.8578 3.26207,3.60077 2.98957,3.87326 -0.2725,0.2725 -1.72825,-0.6842 -3.23502,-2.12601 l -2.73957,-2.62146 -0.26363,3.62541 c -0.20276,2.78829 0.3745,4.32523 2.5,6.65618 1.55901,1.7097 1.89187,2.39358 0.76363,1.56895 -1.1,-0.804 -2.33061,-1.91181 -2.73468,-2.46181 -0.40443,-0.55047 -0.74157,-0.12234 -0.75,0.95239 -0.008,1.07382 1.42296,3.43632 3.18085,5.25 3.57454,3.688 3.39752,4.41739 -0.29316,1.2079 -2.23676,-1.94514 -2.4281,-1.96557 -2.76575,-0.29533 -0.215,1.06359 0.90498,2.92709 2.75,4.57561 1.71201,1.52968 3.11274,3.09102 3.11274,3.46965 0,0.37862 -1.12322,-0.36681 -2.49605,-1.65652 -3.90227,-3.66598 -4.27053,-1.40278 -0.43559,2.67698 l 3.43164,3.65072 -3.25,-2.2338 c -3.86514,-2.65659 -4.23288,-1.63716 -0.76035,2.10781 3.24129,3.49559 2.00738,7.89162 -1.28965,4.59459 -0.93333,-0.93333 -1.2,-0.83835 -1.2,0.42742 0,0.89508 1.2375,2.63043 2.75,3.85632 2.51121,2.03536 2.14121,2.08622 -2.25,0.30927 -2.58607,-1.04648 -1.69967,2.30999 1.6036,6.07219 1.70697,1.94414 2.81039,3.5348 2.45203,3.5348 -0.35836,0 -1.72908,-1.2375 -3.04605,-2.75 l -2.39449,-2.75 0.21986,3.6986 c 0.13121,2.20747 1.11591,4.65241 2.44245,6.06445 2.98538,3.17779 2.84559,4.67084 -0.1719,1.83606 -3.56235,-3.34666 -4.49581,-0.63783 -1.02764,2.98215 2.90251,3.02957 2.38807,4.10286 -0.64912,1.35425 -1.60945,-1.45654 -1.72986,-1.30128 -1.74504,2.25 -0.0117,2.73176 0.74052,4.665 2.65,6.81086 l 2.6663,2.99636 -2.62219,-2.30061 c -2.04181,-1.79141 -2.74056,-1.99216 -3.15697,-0.90702 -0.3211,0.83679 0.65436,2.09603 2.44143,3.15168 1.63691,0.96695 2.7228,2.01148 2.4131,2.32119 -0.30971,0.30971 -1.46862,-0.25638 -2.57537,-1.25797 -1.10674,-1.00159 -2.33071,-1.50262 -2.71992,-1.1134 -0.38922,0.38921 0.73854,2.05926 2.50613,3.71122 1.76758,1.65195 3.21379,3.28418 3.21379,3.62718 0,0.343 -1.09231,-0.40255 -2.42736,-1.65676 l -2.42736,-2.28039 0.19747,5.59047 c 0.14456,4.09262 0.719,6.06352 2.14402,7.35607 1.92034,1.74183 1.92135,1.7353 0.0749,-0.48439 -1.02941,-1.2375 -1.37846,-2.25 -0.77568,-2.25 0.60279,0 1.43248,0.54447 1.84376,1.20994 1.49112,2.41269 3.92914,-9.61539 5.92067,-29.20994 1.66895,-16.42069 2.20813,-18.97964 3.55713,-16.88213 0.48889,0.76017 0.67191,2.50713 0.4067,3.88213 -0.2652,1.375 -1.16431,8.50445 -1.998,15.84323 -1.60919,14.1652 -3.78359,25.20524 -5.69335,28.90677 -1.59453,3.09054 -5.58613,3.00296 -6.78445,-0.14885 -1.34425,-3.53566 -1.65611,-20.09181 -0.68943,-36.60115 0.46697,-7.975 1.02425,-14.7861 1.23842,-15.13577 0.21416,-0.34967 0.43316,-17.67467 0.48665,-38.5 0.0535,-20.82533 0.43766,-48.66423 0.85371,-61.86423 0.41605,-13.2 0.71499,-24.0566 0.66432,-24.12577 -0.0507,-0.0692 -0.99213,-0.40119 -2.09213,-0.7378 -1.96989,-0.60282 -2.00099,-0.13434 -2.06633,31.12577 -0.0365,17.45579 -0.60492,37.3628 -1.26319,44.2378 -0.65827,6.875 -1.41124,32.975 -1.67326,58 -0.26203,25.025 -0.88954,50.9 -1.39446,57.5 -0.50493,6.6 -0.68645,17.55656 -0.40338,24.3479 0.28306,6.79135 0.0318,15.79135 -0.55842,20 -0.5902,4.20866 -1.33905,9.9021 -1.66413,12.6521 l -0.59104,5 3.80711,-6.17582 c 2.09391,-3.3967 6.42921,-10.44928 9.63401,-15.67241 z m -1.82691,-62.65177 c -0.33992,-0.55 -0.14147,-1 0.44099,-1 0.58246,0 1.05901,0.45 1.05901,1 0,0.55 -0.19844,1 -0.44098,1 -0.24254,0 -0.7191,-0.45 -1.05902,-1 z m 0.5,-16.5 c -0.69443,-0.83674 -0.80271,-1.5 -0.24489,-1.5 0.55,0 1.5602,0.675 2.24489,1.5 0.69444,0.83674 0.80272,1.5 0.24489,1.5 -0.55,0 -1.5602,-0.675 -2.24489,-1.5 z m 1.40499,-12.75 -1.90499,-2.25 2.25,1.90499 c 2.11445,1.79022 2.70524,2.59501 1.90499,2.59501 -0.18976,0 -1.20226,-1.0125 -2.25,-2.25 z m 1.06581,-44.5 -1.75922,-2.75 2.64421,2.42431 c 2.859,2.62124 3.11893,3.07569 1.75922,3.07569 -0.48674,0 -1.67664,-1.2375 -2.64421,-2.75 z m 0.83497,-7.7184 c -3.6479,-3.20927 -2.63838,-3.2281 1.69423,-0.0316 1.86371,1.375 2.87623,2.5 2.25005,2.5 -0.62619,0 -2.40111,-1.11078 -3.94428,-2.4684 z m -0.79682,-12.15829 -1.72107,-2.62669 2.57464,1.87669 c 2.60516,1.89894 3.37211,3.37669 1.75249,3.37669 -0.48674,0 -1.65947,-1.18201 -2.60606,-2.62669 z m 1.41537,-21.04301 -2.42432,-2.6697 2.71858,1.9197 c 1.49521,1.05584 2.73271,2.2572 2.75,2.6697 0.0516,1.23147 -0.49672,0.8857 -3.04426,-1.9197 z m -0.51933,-30.5803 -1.90499,-2.25 2.5,1.98934 c 1.375,1.09414 2.6875,2.10664 2.91667,2.25 0.22917,0.14336 -0.0386,0.26066 -0.59501,0.26066 -0.55643,0 -1.86893,-1.0125 -2.91667,-2.25 z m -0.91053,97.24387 c -0.99854,-1.10337 -2.03241,-1.78925 -2.29749,-1.52417 -0.67194,0.67194 1.82222,3.5303 3.08047,3.5303 0.56789,0 0.21555,-0.90276 -0.78298,-2.00613 z m 0.68888,-112.21054 c -0.71757,-0.71756 -1.18334,-0.7766 -1.18334,-0.15 0,1.33478 1.18261,2.51739 1.85,1.85 0.28417,-0.28416 -0.0158,-1.04916 -0.66666,-1.7 z m 6.41216,-0.93784 c 0.47265,-0.76477 0.2706,-0.88077 -0.59851,-0.34363 -0.98544,0.60904 -1.16523,0.24949 -0.72226,-1.4444 0.32437,-1.24041 0.33614,-2.00166 0.0262,-1.69168 -0.30999,0.30999 -1.50463,-0.0955 -2.65476,-0.90109 -3.59693,-2.51939 -3.82514,-1.60811 -0.5097,2.03531 3.6055,3.96217 3.49562,3.90438 4.45906,2.34549 z m 32.7871,-5.80086 c 4.78856,-1.8206 5.57258,-4.501 6.17699,-21.11793 0.30861,-8.48469 1.25614,-22.6267 2.10563,-31.4267 0.89083,-9.228385 1.60594,-27.427113 1.68965,-43.000008 0.14103,-26.23623 0.0774,-27.178465 -2.24882,-33.308909 -4.00609,-10.557436 -9.84922,-13.172471 -29.4617,-13.185299 -14.80297,-0.0097 -24.49998,3.510003 -31.43665,11.410436 -3.50734,3.994637 -3.63496,4.375236 -2.2077,6.583772 0.66889,1.035024 0.97412,1.105594 0.98469,0.227657 0.0258,-2.141693 8.30663,-10.435227 11.94583,-11.964124 1.88679,-0.792674 9.29032,-1.856713 16.45229,-2.364531 19.41212,-1.376412 26.27517,1.153522 30.1141,11.100998 0.95515,2.475 2.07288,7.2 2.48384,10.5 0.92134,7.39835 -0.56143,57.595393 -1.96434,66.500008 -1.08941,6.91474 -1.78303,18.31044 -1.92784,31.67327 -0.0787,7.26445 -0.37644,8.5154 -2.67746,11.25 l -2.58889,3.07673 -12.66111,-0.0257 c -9.17584,-0.0186 -15.00093,-0.58324 -21.16111,-2.05116 -11.21143,-2.67161 -11.36947,-2.68249 -11.75876,-0.80945 -0.43684,2.10181 4.25105,4.30382 13.25876,6.22796 7.93796,1.69563 31.04682,2.16132 34.8826,0.70295 z M 13.685623,29.286199 c 0,-0.517541 0.44485,-1.215913 0.98855,-1.551938 0.56686,-0.350339 0.73451,0.05106 0.39301,0.940983 -0.66479,1.732417 -1.38156,2.049387 -1.38156,0.610955 z m 53.5,118.367701 c 1.72083,-1.29895 2.04861,-2.91996 2.34823,-11.61288 0.32681,-9.48187 0.23478,-10.05966 -1.49644,-9.39533 -3.74832,1.43837 -21.99933,3.73046 -26.46041,3.32309 -3.85019,-0.35158 -5.12128,0.005 -7.72373,2.16879 -3.17592,2.64018 -7.01625,10.08962 -5.20139,10.08962 0.5462,0 1.89581,-1.76947 2.99913,-3.93215 3.00561,-5.89149 5.80598,-6.5987 2.97815,-0.75211 -0.99789,2.06316 -0.94282,2.05383 0.99332,-0.16827 1.39497,-1.60102 1.85756,-3.11841 1.44805,-4.75 -0.35915,-1.431 -0.16258,-2.39747 0.48763,-2.39747 1.68496,0 2.43175,4.56293 1.14139,6.97398 -1.5863,2.96402 -9.80166,8.03145 -11.85507,7.31248 -1.15228,-0.40345 -1.35348,-0.25201 -0.65886,0.4959 3.37436,3.63322 36.83128,5.79107 41,2.64435 z m -25.38245,-1.67671 c -0.0517,-1.2375 -0.35395,-4.275 -0.67164,-6.75 -0.40611,-3.16387 -0.13696,-5.09337 0.90648,-6.49843 1.83908,-2.47645 3.20518,-1.41191 1.72863,1.34704 -1.35683,2.53526 -1.40235,6.83476 -0.081,7.65139 0.55,0.33992 1,1.52898 1,2.64235 0,3.2843 2.41278,1.55168 3.42405,-2.45882 0.67099,-2.66097 0.55646,-4.35143 -0.41817,-6.17255 -1.64933,-3.0818 -0.38173,-4.74547 1.57588,-2.06828 2.5386,3.47173 1.3782,11.54868 -1.98146,13.79199 -2.41786,1.61445 -5.38684,0.81047 -5.48275,-1.48469 z m 16.72493,0.5 c -3.36091,-4.0079 -4.84248,-7.40341 -4.84248,-11.09819 0,-3.14013 0.4173,-4.02767 2.10065,-4.46788 4.40028,-1.1507 8.4884,2.56007 9.94744,9.02927 0.48656,2.15734 0.31186,3.57311 -0.5268,4.26913 -0.96137,0.79787 -1.38303,0.0851 -1.80328,-3.0481 -0.59287,-4.42017 -2.7101,-7.43739 -5.78277,-8.24092 -1.52416,-0.39857 -1.93524,0.0136 -1.93524,1.94015 0,3.52436 3.82535,10.50811 6.07857,11.09734 1.05679,0.27635 1.92143,0.89998 1.92143,1.38583 0,1.55592 -3.63877,0.94449 -5.15752,-0.86663 z m 0.87697,-6.71214 c -2.0397,-4.27729 -0.4179,-5.78921 1.73797,-1.62022 0.84842,1.64067 1.54258,3.45539 1.54258,4.0327 0,2.16889 -1.68769,0.92778 -3.28055,-2.41248 z m -13.97099,-0.0734 c -0.47761,-2.49846 0.39114,-3.99155 1.61206,-2.77063 0.94196,0.94196 0.77765,4.10272 -0.24617,4.73548 -0.48711,0.30105 -1.10176,-0.58314 -1.36589,-1.96485 z m -23.78389,0.0944 c -0.0195,-0.58237 -0.67855,0.0661 -1.46457,1.44114 -0.78602,1.375 -1.44507,1.8625 -1.46456,1.08333 -0.0195,-0.77916 -0.3055,-1.1466 -0.63557,-0.81653 -0.33008,0.33008 -0.26139,1.14825 0.15264,1.81816 0.55215,0.89339 1.11188,0.72692 2.10014,-0.6246 0.74104,-1.01344 1.33141,-2.31911 1.31192,-2.90149 z m 5.96704,-2.80076 c 1.43797,-2.89196 3.61662,-5.70232 4.84145,-6.24524 1.22482,-0.54292 2.22632,-1.21792 2.22556,-1.5 -0.001,-0.50634 -11.13476,-4.01286 -12.74107,-4.01286 -0.45598,0 -0.18004,4.05458 0.61319,9.01017 0.79324,4.9556 1.66818,8.78425 1.94431,8.50811 0.27613,-0.27613 1.67859,-2.86821 3.11656,-5.76017 z m -7.55005,1.68995 c 0.3415,-0.88992 0.17385,-1.29132 -0.39301,-0.94098 -0.5437,0.33603 -0.98855,1.03441 -0.98855,1.55195 0,1.43843 0.71677,1.12146 1.38156,-0.61096 z m -0.0246,-4.34945 c 0.34351,0.77077 0.38279,0.41848 0.0873,-0.78285 -0.29551,-1.20134 -0.6718,-5.14428 -0.8362,-8.7621 -0.3859,-8.49184 -1.23286,-9.36403 -1.24723,-1.28438 -0.006,3.4269 -0.33796,8.03072 -0.73748,10.23072 -0.68611,3.77815 -0.64777,3.86681 0.69133,1.59861 1.06561,-1.80494 1.57286,-2.05331 2.0423,-1 z m 45.39302,-9.57252 c 5.19618,-1.58712 5.25,-1.64475 5.25,-5.62152 0,-3.95234 -0.0363,-3.99254 -2.2225,-2.46126 -3.04914,2.13569 -4.46273,1.96238 -7.32295,-0.89785 -3.14173,-3.14173 -3.32897,-8.67102 -0.39305,-11.60694 2.92405,-2.92405 6.0953,-2.12552 8.18695,2.06149 2.0106,4.02478 2.39325,1.85039 0.72886,-4.14176 -1.5993,-5.757835 -3.19351,-6.417195 -6.74147,-2.788265 -3.81191,3.898925 -7.82469,3.830265 -7.57378,-0.12959 l 0.16206,-2.55757 -4.27913,2.05859 c -3.04177,1.463325 -4.00621,2.404135 -3.3353,3.253555 2.80957,3.55709 -3.10605,10.11257 -6.95106,7.70291 -0.96724,-0.60617 -1.90587,-2.09497 -2.08584,-3.30845 -0.4741,-3.19678 -3.59285,-2.26577 -3.99137,1.1915 -0.44992,3.90328 4.60707,6.06776 10.61408,4.54302 5.37866,-1.36525 8.57418,-0.50275 10.03766,2.70923 1.56093,3.42586 0.0517,6.19915 -4.38153,8.05149 -8.99678,3.75909 -18.09344,-0.90302 -12.91875,-6.62098 1.39969,-1.54664 1.27225,-1.80176 -1.46675,-2.93629 -5.48694,-2.27277 -5.37762,-9.01828 0.17785,-10.97345 l 3.25602,-1.14592 -4,-1.786795 -4,-1.78679 -0.30936,2.2596 c -0.52141,3.808435 -2.71003,4.838215 -5.01789,2.361005 l -1.99986,-2.1466 -1.17798,2.20108 c -2.18016,4.07365 0.61374,10.99048 4.43935,10.99048 0.99584,0 0.60447,-5.85803 -0.43426,-6.5 -0.5694,-0.35191 -1,0.50929 -1,2 0,1.49071 -0.4306,2.35191 -1,2 -1.53209,-0.94689 -1.18922,-4.09807 0.60822,-5.58981 1.36794,-1.13529 1.82784,-1.04153 3.07827,0.62756 1.43715,1.91832 1.3208,6.45256 -0.31595,12.31312 -0.54173,1.93974 -0.3255,2.28265 1.23646,1.96081 1.3765,-0.28363 1.83864,-1.15161 1.69374,-3.18121 -0.1666,-2.33364 0.0383,-2.59399 1.25,-1.58836 3.39403,2.81679 -0.70803,8.26272 -4.98697,6.62073 -1.80578,-0.69294 -2.09957,-4.21366 -0.43733,-5.24098 0.67791,-0.41897 -0.12522,-1.22246 -2.01701,-2.0179 -1.7289,-0.72694 -3.57563,-2.35272 -4.10384,-3.61284 -0.67973,-1.62156 -0.78542,-0.39156 -0.36166,4.20888 0.3293,3.575 0.88163,6.79479 1.2274,7.15508 0.34577,0.3603 3.77867,1.59363 7.62867,2.74073 5.84458,1.74138 8.8982,2.01534 18.5,1.65974 6.44864,-0.23883 13.80606,-1.13027 16.75,-2.02947 z m -12.65163,-5.18 c 3.69337,-3.69337 -0.0315,-7.17858 -6.21967,-5.81944 -2.23539,0.49098 -2.77598,0.97607 -1.97753,1.77452 1.40008,1.40008 1.42482,3.69884 0.0398,3.69884 -0.58246,0 -0.77894,-0.45318 -0.43662,-1.00706 0.34232,-0.55389 -0.11602,-1.29042 -1.01853,-1.63675 -2.16903,-0.83234 -4.94663,2.00062 -4.10695,4.1888 0.9395,2.44828 10.9468,1.57376 13.71948,-1.19891 z m -35.03273,-15.68045 c -0.75418,-0.75417 -1.03035,0.96567 -0.9449,5.88437 l 0.12074,6.95 0.9449,-5.88437 c 0.64782,-4.03435 0.60986,-6.21939 -0.12074,-6.95 z m 50.93356,9.83588 c 0.73543,-1.37417 1.03647,-2.79917 0.66898,-3.16667 -0.3675,-0.3675 -0.66818,0.0337 -0.66818,0.8915 0,2.51688 -3.14758,3.07052 -5.28796,0.93014 -2.10684,-2.10684 -1.67601,-5.57259 0.8114,-6.5271 1.1733,-0.45024 1.23087,-0.20883 0.30411,1.27515 -1.34402,2.15212 -0.37875,5.44312 1.42298,4.85151 1.57793,-0.51813 2.23994,-5.66557 0.90087,-7.00465 -0.55273,-0.55273 -2.16291,-0.71433 -3.57818,-0.35912 -2.21536,0.55602 -2.57322,1.18953 -2.57322,4.55535 0,6.54394 5.31485,9.56964 7.9992,4.55389 z m -22.06956,-7.37003 c 1.20128,-2.24461 0.49627,-3.13148 -2.48931,-3.13148 -2.23963,0 -3.93058,2.39774 -2.88455,4.09024 0.97831,1.58294 4.33399,0.98425 5.37386,-0.95876 z m -21.44653,-8.131485 c 0.86882,0 1.83868,0.675 2.15527,1.5 0.31658,0.825005 0.97746,1.500005 1.46861,1.500005 1.42257,0 1.03395,-4.431415 -0.57518,-6.558875 -0.96236,-1.27235 -1.47916,-4.39052 -1.5,-9.0504 -0.0297,-6.629784 0.20272,-7.405406 3.4455,-11.500002 l 3.47732,-4.390731 -2.93251,-0.76698 c -1.61287,-0.42184 -3.59417,-1.711659 -4.40289,-2.866267 -3.56293,-5.086787 4.12587,-10.866753 14.45549,-10.866753 l 6.30241,0 -2.15443,-2.007157 c -5.22674,-4.869441 3.48044,-9.266198 10.82696,-5.467163 2.41351,1.248075 2.95034,2.161752 2.95034,5.021439 0,2.758389 -0.52733,3.736027 -2.5,4.634835 -1.375,0.626492 -2.5,1.516844 -2.5,1.978561 0,0.461717 -0.64844,0.839485 -1.44098,0.839485 -0.79254,0 -1.74889,0.49821 -2.12523,1.107134 -0.63534,1.028007 0.97847,0.776635 5.21409,-0.812163 0.63134,-0.236815 2.01936,0.504854 3.08451,1.648153 l 1.93663,2.078727 1.14405,-2.510925 c 1.55599,-3.415015 5.39944,-3.327522 8.16304,0.185825 2.74736,3.4927 2.46015,8.803249 -0.47611,8.803249 -2.34733,0 -3.29798,-3.833564 -1.49067,-6.011237 1.47202,-1.773671 0.45521,-3.488763 -2.06834,-3.488763 -2.63817,0 -2.58321,4.331372 0.11894,9.372998 1.13296,2.113859 2.32064,6.044695 2.63929,8.735191 0.31865,2.690494 0.95811,4.891814 1.42102,4.891814 1.40785,0 2.21974,-5.060031 1.00655,-6.273219 -1.7715,-1.771496 -1.31999,-2.922881 0.87321,-2.226784 1.88674,0.598828 2,0.1797 2,-7.401228 0,-6.305178 -0.28856,-7.925268 -1.33978,-7.521878 -1.76023,0.675463 -4.04405,-2.134248 -3.30348,-4.064159 0.31927,-0.832004 1.32472,-1.512735 2.23432,-1.512735 1.27016,0 1.39545,0.311335 0.54006,1.342009 -1.18483,1.427639 -0.43665,2.964856 1.00836,2.071788 1.39224,-0.860451 0.99442,-3.026868 -1.01048,-5.502814 l -1.87099,-2.310586 -1.65469,3.199802 c -0.91007,1.75989 -2.26302,3.199801 -3.00655,3.199801 -1.71368,0 -4.11101,-2.819088 -3.18489,-3.745206 0.38328,-0.38328 1.14569,-0.0349 1.69426,0.774166 0.8521,1.256757 1.17193,1.192487 2.19562,-0.441211 0.65904,-1.051738 1.97889,-2.732385 2.93301,-3.734771 1.65619,-1.739965 1.6109,-1.847757 -1,-2.379695 -1.50412,-0.306446 -4.30977,-1.018267 -6.23477,-1.581822 -1.925,-0.563556 -8.52185,-1.280654 -14.65967,-1.593551 -11.80839,-0.601974 -20.44376,0.862345 -28.472,4.828066 -3.55306,1.755108 -3.62113,1.897635 -3.14434,6.583983 0.26804,2.634523 0.90542,6.590041 1.41641,8.790041 0.51099,2.2 1.32894,11.524639 1.81766,20.721423 0.48872,9.19678 1.20981,17.241185 1.60242,17.876445 0.44421,0.71873 1.21039,-0.0259 2.02841,-1.97142 0.72301,-1.719555 2.02541,-3.126445 2.89422,-3.126445 z m -1.48311,-3.75031 c 0,-1.18267 -0.7875,-2.64879 -1.75,-3.25804 -1.20775,-0.76449 -1.37478,-1.26646 -0.53906,-1.62001 0.7708,-0.32607 0.99223,-1.6058 0.60922,-3.52087 -0.33095,-1.65473 -0.0282,-5.39925 0.67274,-8.321151 1.24166,-5.175851 1.20281,-5.406481 -1.51006,-8.963241 -3.25014,-4.261153 -4.31776,-11.639819 -2.25229,-15.566381 2.18861,-4.160662 10.76945,-3.721625 10.76945,0.551016 0,2.063129 -2.90192,4.423851 -4.62515,3.762583 -1.12425,-0.431415 -1.40581,-1.408761 -0.99606,-3.45751 0.68236,-3.411816 -0.66436,-3.714166 -2.82208,-0.633583 -2.86885,4.095852 -1.38904,12.181976 2.87736,15.722771 1.86006,1.543718 1.99393,4.894147 0.40716,10.190313 -0.89351,2.982283 -0.87172,5.150273 0.0952,9.470843 0.90862,4.06011 0.95234,5.90483 0.15877,6.69839 -0.79357,0.79357 -1.09518,0.50299 -1.09518,-1.05513 z m 4,-40.30871 c 0,-0.517541 -0.45,-0.940983 -1,-0.940983 -0.55,0 -1,0.701558 -1,1.559017 0,0.857459 0.45,1.280902 1,0.940983 0.55,-0.339919 1,-1.041476 1,-1.559017 z m 5.2,-2.140983 c -0.66,-0.66 -1.17639,-2.1225 -1.14754,-3.25 0.0508,-1.986817 0.10082,-1.980653 1.62197,0.2 1.79296,2.570318 3.85303,2.923807 4.66766,0.800928 0.37165,-0.968522 0.0755,-1.264668 -0.89301,-0.893012 -1.81361,0.695945 -1.90013,-1.038687 -0.12528,-2.511678 0.96669,-0.802287 1.64108,-0.781366 2.5,0.07756 1.66055,1.66055 1.46361,3.206129 -0.65254,5.121218 -2.15945,1.954272 -4.30824,2.118001 -5.97126,0.454984 z m 39.59716,35.919823 -0.31489,-4.21982 -1.99114,3.30858 c -1.73829,2.88846 -2.44103,3.26855 -5.53418,2.99331 -2.86192,-0.25466 -3.98194,0.21468 -5.82605,2.44142 -1.9072,2.3029 -2.01182,2.75669 -0.63553,2.75669 1.49772,0 1.50463,0.14285 0.0761,1.57143 -0.86428,0.86428 -1.57143,1.98928 -1.57143,2.5 0,1.758305 2.65612,0.923525 5,-1.57143 3.23512,-3.44362 6.66355,-3.25337 8.79651,0.48815 l 1.70349,2.988155 0.30603,-4.518325 c 0.16831,-2.48508 0.16432,-6.41725 -0.009,-8.73816 z m -55.59387,8.43349 c -0.56537,-1.62183 -0.81471,-6.2573 -0.55408,-10.30104 0.26062,-4.04375 0.14969,-9.827273 -0.24652,-12.852273 l -0.72038,-5.5 -1.2643,4 c -0.69537,2.2 -1.25471,5.575 -1.24298,7.5 l 0.0213,3.500003 1.38064,-4.500003 1.38064,-4.5 -0.4371,5 c -0.24041,2.750003 -0.68711,6.350003 -0.99267,8.000003 -0.40876,2.20727 -0.32879,2.47635 0.30265,1.0183 0.59566,-1.37544 0.83635,-0.15173 0.78676,4 -0.0393,3.28994 0.3008,6.57414 0.75577,7.29823 1.38377,2.202265 1.92318,0.47196 0.83025,-2.66322 z m 35.6108,-1.1336 c 7.32881,-5.30896 9.06914,-12.17749 4.91946,-19.415612 -2.54283,-4.435368 -7.78463,-7.653049 -12.21794,-7.499985 -2.69345,0.09299 -2.51982,0.256157 1.62536,1.527329 8.90981,2.732309 12.18589,8.857695 9.33233,17.448948 -1.79975,5.41855 -3.54967,7.20998 -8.63754,8.84243 -4.6275,1.48474 -9.22268,-0.21708 -13.13245,-4.86357 -2.17939,-2.59007 -2.70331,-4.22064 -2.70331,-8.41347 0,-3.04952 0.65751,-6.223498 1.58958,-7.673277 1.12661,-1.752395 0.68974,-1.521358 -1.5,0.793271 -2.52157,2.665379 -3.08958,4.102266 -3.08958,7.815746 0,8.96332 5.69579,14.39972 15.09997,14.41232 3.52353,0.005 5.5627,-0.69125 8.71412,-2.97413 z m -0.9796,-4.39965 c 3.66438,-3.66438 4.18812,-11.322295 1.02514,-14.989205 -3.08953,-3.58176 -9.19379,-5.026536 -12.9753,-3.071039 -7.68317,3.97312 -8.0516,14.864054 -0.65925,19.487534 4.10978,2.57042 9.18632,1.9958 12.60941,-1.42729 z m -12.76191,-3.25492 c -2.19362,-2.78874 -2.74495,-6.83156 -1.07258,-7.865143 0.55,-0.339919 1,0.343143 1,1.517903 0,1.17477 1.35,3.48594 3,5.13594 3.53031,3.53031 3.61839,3.84616 1.07258,3.84616 -1.06008,0 -2.86008,-1.18569 -4,-2.63486 z m 28.33264,-3.08907 c -0.37247,-1.86236 -1.37503,-3.29642 -2.5125,-3.59388 -1.13486,-0.29677 -1.89272,-1.377608 -1.89272,-2.699357 l 0,-2.204404 1.96673,2.360784 c 1.3769,1.652777 1.97285,1.910927 1.98714,0.860784 0.0256,-1.879932 -4.76727,-11.957204 -4.87499,-10.25 -0.15196,2.408306 -1.68884,1.217536 -2.95779,-2.291693 -1.23812,-3.423949 -1.43246,-3.531995 -5.84582,-3.25 -4.96013,0.316932 -6.36272,-0.978 -3.81684,-3.523874 1.39694,-1.396947 1.37694,-1.598233 -0.20536,-2.066361 -1.60539,-0.474959 -10.45957,-0.907496 -14.39731,-0.703326 -0.90434,0.04689 -3.10143,1.446469 -4.88244,3.110176 -3.13767,2.931027 -3.1827,3.086228 -1.45076,5 2.17875,2.407491 6.17858,2.555525 8.6487,0.32009 2.33916,-2.116904 2.38659,-4.606283 0.0787,-4.132084 -1.00705,0.20692 -1.62525,1.087136 -1.45616,2.073324 0.36273,2.115571 -1.63905,2.28068 -2.4371,0.201013 -0.80113,-2.087713 1.42273,-4.487265 4.15872,-4.487265 2.0463,0 3.48454,1.668671 3.48454,4.042832 0,0.483592 -1.0125,1.826189 -2.25,2.98355 l -2.25,2.104292 2.8151,-1.065337 c 10.86031,-4.109937 22.62677,4.254898 22.66845,16.115116 0.0143,4.07119 0.30934,4.72869 2.26645,5.05105 3.15179,0.51913 3.87005,-0.38128 3.15522,-3.95543 z M 13.883013,62.393336 c -0.9364,-2.625429 -2.17033,1.162439 -2.0633,6.333846 l 0.10348,5 1.21778,-5 c 0.66978,-2.75 1.0037,-5.600231 0.74204,-6.333846 z m 24.36146,8.27868 c 1.83031,-1.466378 1.7984,-1.487191 -0.55887,-0.364546 -3.06103,1.457812 -3.62834,1.919712 -2.35779,1.919712 0.53654,0 1.84904,-0.699825 2.91666,-1.555166 z m 31.12425,-3.632334 c -0.31923,-0.797733 -0.55619,-0.560776 -0.60417,0.604167 -0.0434,1.054166 0.19293,1.644791 0.52522,1.3125 0.33229,-0.332292 0.36782,-1.194792 0.0789,-1.916667 z M 12.381703,53.053281 c 0.0586,-3.885569 -0.1667,-4.736562 -0.90485,-3.417561 -0.80808,1.443963 -0.33963,8.591462 0.56309,8.591462 0.14503,0 0.29883,-2.328255 0.34176,-5.173901 z m 42.72212,2.566912 c 0.86998,-0.333844 1.58178,-1.629249 1.58178,-2.878679 0,-2.592795 -4.31125,-4.890523 -8.15505,-4.346325 -3.16784,0.448497 -3.2445,4.204235 -0.095,4.651544 2.47113,0.350957 2.91447,-0.755083 1.05,-2.619551 -0.93333,-0.933333 -0.71111,-1.2 1,-1.2 2.30277,0 3.17695,3.278178 1.2,4.5 -2.78175,1.719217 -0.0587,3.227236 3.41822,1.893011 z m 18.58178,-5.393011 c 0,-0.55 -0.47655,-1 -1.05901,-1 -0.58246,0 -0.78091,0.45 -0.44099,1 0.33992,0.55 0.81648,1 1.05902,1 0.24254,0 0.44098,-0.45 0.44098,-1 z M 31.872563,38.703055 c -0.43861,-3.756973 -3.54015,-6.665861 -8.34408,-7.825781 -1.4614,-0.352859 -3.29713,-0.887168 -4.0794,-1.187351 -0.9481,-0.363822 -1.95469,0.718314 -3.01914,3.245735 -1.54895,3.677826 -3.05986,13.642687 -2.19907,14.503478 0.23416,0.234156 4.39119,-0.848786 9.23786,-2.406536 l 8.81212,-2.832275 -0.40829,-3.49727 z m -9.2639,0.60105 c -2.98403,-2.984032 -3.71141,-5.471671 -1.92308,-6.576923 0.55,-0.339919 1,0.02284 1,0.806124 0,2.609287 4.04659,6.693876 6.6316,6.693876 1.40298,0 2.21713,0.435747 1.8684,1 -1.16491,1.88487 -4.65471,0.999135 -7.57692,-1.923077 z m 2.07773,-2.575416 c -1.82098,-3.40253 -0.51381,-4.340798 1.94092,-1.39317 2.35014,2.822033 2.55003,3.891663 0.72725,3.891663 -0.73206,0 -1.93274,-1.124322 -2.66817,-2.498493 z m 48.99919,4.47351 c 0,-6.408085 -3.25935,-15.844859 -6.43479,-18.630562 -3.9769,-3.488801 -10.90686,-4.425135 -24.86561,-3.35969 -13.57514,1.036166 -15.80352,1.637783 -20.07739,5.420487 l -2.8778,2.547073 2.6929,1.023837 c 1.48109,0.563111 3.3135,1.023838 4.07203,1.023838 2.69246,0 6.73527,4.569455 7.36667,8.326295 l 0.62399,3.712768 9.20947,0.338986 c 8.6262,0.317518 9.14819,0.224495 8.24198,-1.46878 -1.55653,-2.908388 1.57948,-8.008215 7.21321,-11.730263 2.76468,-1.826547 5.32114,-3.025765 5.68102,-2.664929 0.61794,0.619588 -0.63022,1.786786 -7.81919,7.311981 -2.93749,2.257661 -3.63972,4.412311 -2.44917,7.514836 0.50292,1.310591 0.80491,1.288914 2.34339,-0.168213 0.97134,-0.919974 3.19452,-2.443831 4.94041,-3.386348 2.13251,-1.151229 3.37366,-2.710215 3.78162,-4.75 0.70924,-3.546206 2.35726,-4.07673 2.35726,-0.758839 0,3.33531 -2.57371,6.464385 -7.3005,8.875813 l -4.16835,2.12653 4.98443,1.266481 c 4.93157,1.253051 8.8126,2.053653 11.23442,2.3175 0.85223,0.09285 1.25,-1.462851 1.25,-4.888801 z m -34.33333,-1.641684 c -2.10921,-2.109214 1.43216,-18.333333 4.00177,-18.333333 1.87698,0 6.00922,6.85953 6.76864,11.235986 0.62636,3.609582 -0.61798,7.764014 -2.32547,7.764014 -0.44991,0 -0.60355,-2.232088 -0.34141,-4.960194 0.37185,-3.869957 0.0205,-5.68057 -1.59852,-8.237647 l -2.07514,-3.277453 -1.52585,3.651868 c -1.74359,4.172994 -2.17482,8.525784 -1.09704,11.073426 0.72106,1.704441 -0.47113,2.419188 -1.80698,1.083333 z m 4.33333,-4.833333 c 0,-1.925 0.45,-3.5 1,-3.5 0.55,0 1,1.575 1,3.5 0,1.925 -0.45,3.5 -1,3.5 -0.55,0 -1,-1.575 -1,-3.5 z m 13.97205,-0.444024 c 1.35962,-1.044753 2.84397,-1.669685 3.29855,-1.388736 1.37223,0.848081 -1.36377,3.334346 -3.64304,3.310524 -2.05204,-0.02145 -2.03982,-0.08966 0.34449,-1.921788 z m -45.8036,5.712474 c -0.74206,-0.742068 -0.87221,-0.351636 -0.43723,1.311709 0.35361,1.352204 0.8069,1.805497 1.05655,1.056551 0.24048,-0.721441 -0.0382,-1.787158 -0.61932,-2.36826 z m 1.17663,-7.311578 c -0.32568,-0.848721 -0.80662,-1.32866 -1.06875,-1.066531 -0.26213,0.262128 -0.17998,0.956536 0.18255,1.543128 0.98605,1.595461 1.56238,1.28551 0.8862,-0.476597 z"
     id="path5813"
     inkscape:connector-curvature="0" />
</svg>
