<?xml version="1.0" encoding="UTF-8" standalone="no"?>
<!-- Created with Inkscape (http://www.inkscape.org/) -->

<svg
   xmlns:dc="http://purl.org/dc/elements/1.1/"
   xmlns:cc="http://creativecommons.org/ns#"
   xmlns:rdf="http://www.w3.org/1999/02/22-rdf-syntax-ns#"
   xmlns:svg="http://www.w3.org/2000/svg"
   xmlns="http://www.w3.org/2000/svg"
   xmlns:sodipodi="http://sodipodi.sourceforge.net/DTD/sodipodi-0.dtd"
   xmlns:inkscape="http://www.inkscape.org/namespaces/inkscape"
   id="svg5803"
   version="1.1"
   inkscape:version="0.48.4 r9939"
   width="245.97971"
   height="492.87766"
   sodipodi:docname="CeremonialDagger.svg">
  <metadata
     id="metadata5809">
    <rdf:RDF>
      <cc:Work
         rdf:about="">
        <dc:format>image/svg+xml</dc:format>
        <dc:type
           rdf:resource="http://purl.org/dc/dcmitype/StillImage" />
        <dc:title />
      </cc:Work>
    </rdf:RDF>
  </metadata>
  <defs
     id="defs5807" />
  <sodipodi:namedview
     pagecolor="#ffffff"
     bordercolor="#666666"
     borderopacity="1"
     objecttolerance="10"
     gridtolerance="10"
     guidetolerance="10"
     inkscape:pageopacity="0"
     inkscape:pageshadow="2"
     inkscape:window-width="1277"
     inkscape:window-height="756"
     id="namedview5805"
     showgrid="false"
     inkscape:zoom="0.7908872"
     inkscape:cx="191.25254"
     inkscape:cy="241.36934"
     inkscape:window-x="0"
     inkscape:window-y="22"
     inkscape:window-maximized="0"
     inkscape:current-layer="svg5803"
     fit-margin-top="0"
     fit-margin-left="0"
     fit-margin-right="0"
     fit-margin-bottom="0" />
  <path
     style="fill:#23c6d6;fill-opacity:0.93684208;stroke:none"
     d="m 42.88715,73.34281 c -9.225729,1.888716 -15.417378,6.811523 -10.855972,22.487376 7.892783,6.559554 15.84504,12.088214 24.813653,0 C 60.558019,82.645689 57.424462,74.116972 42.88715,73.34281 z"
     id="path6329"
     inkscape:connector-curvature="0"
     sodipodi:nodetypes="cccc" />
  <path
     style="fill:#000000;fill-opacity:0.39473685;stroke:none"
     d="m 16.476993,173.07402 c 13.47076,5.95664 37.293813,4.69672 58.669109,6.30555 -0.804965,35.89191 5.250684,67.49594 -6.031404,109.93606 -1.901214,78.33652 -24.868279,147.878 -61.9589659,197.39139 l 3.2898569,-46.6063 z"
     id="path5815"
     inkscape:connector-curvature="0"
     sodipodi:nodetypes="cccccc" />
  <path
     style="fill:#3f2c00;fill-opacity:0.39473685;stroke:none"
     d="M 24.664624,4.7175527 C 37.179643,0.32643007 50.627471,1.532168 63.823671,1.2281332 92.991335,9.0934747 84.764822,24.57615 88.24961,37.67319 l -5.040273,131.82254 c -0.830058,6.60656 -6.464648,11.78022 -36.445053,9.69282 C 29.300171,176.52446 9.1126821,175.31168 9.9315191,162.90459 10.962303,127.49282 5.1405401,90.710526 1.4018251,54.344863 0.84189012,32.813905 0.02169812,11.126792 24.664624,4.7175527 z"
     id="path6325"
     inkscape:connector-curvature="0"
     sodipodi:nodetypes="cccccccc" />
  <path
     style="fill:#3f2c00;fill-opacity:0.39473685;stroke:none"
     d="m 160.68238,162.10782 c 27.83456,-5.18044 54.89095,-4.13547 81.69811,-1.09662 1.50345,5.1264 5.74711,10.08155 -3.83816,15.90099 -5.35485,54.08169 -3.32776,111.14097 -4.67442,166.55872 -2.20182,37.67536 -8.40302,76.9219 3.02948,109.24092 -5.22651,15.59695 -11.38058,30.42092 -25.77054,38.38166 l -37.83336,-0.5483 c -16.88279,-9.96995 -25.37703,-23.16628 -32.89855,-36.73674 14.51015,-27.25909 16.17251,-55.0321 18.09421,-82.79472 4.3804,-62.64174 4.02093,-126.47671 6.0314,-189.71507 -4.09743,-5.34017 -7.84638,-10.81105 -3.83817,-19.19084 z"
     id="path6327"
     inkscape:connector-curvature="0"
     sodipodi:nodetypes="ccccccccccc" />
  <path
     style="fill:#d66d23;fill-opacity:1;stroke:none"
     d="m 185.75952,338.53873 c -1.35729,-7.32104 -5.06094,-17.18071 10.2744,-18.61023 9.59506,2.22979 9.87449,9.87751 6.59112,18.80408 -3.78247,2.12879 -5.88492,9.19436 -16.86552,-0.19385 z"
     id="path6331"
     inkscape:connector-curvature="0"
     sodipodi:nodetypes="cccc" />
  <path
     style="fill:#168131;fill-opacity:1;stroke:none"
     d="m 192.52098,206.42256 c -0.584,-1.72092 -12.0071,-18.14691 8.1655,-19.47974 16.92586,3.22232 13.36948,16.62563 9.57928,20.32169 -6.68354,6.63686 -12.52258,5.67325 -17.74478,-0.84195 z"
     id="path6333"
     inkscape:connector-curvature="0"
     sodipodi:nodetypes="cccc" />
  <path
     style="fill:#000000"
     d="m 175.36669,491.70858 c -6.913,-2.78516 -18.7539,-11.53754 -24.30032,-17.96191 -6.35665,-7.36291 -11.65477,-16.49423 -11.65477,-20.08709 0,-1.13988 1.90948,-6.2053 4.24328,-11.25651 5.67372,-12.28003 11.43685,-35.65643 12.33564,-50.03585 0.40058,-6.40872 1.49228,-22.69118 2.42599,-36.18323 2.56086,-37.00385 3.63328,-112.2186 1.60074,-112.26833 -1.04583,-0.0256 -0.85587,-0.59945 0.55234,-1.66841 1.94014,-1.47279 2.14646,-4.48011 2.14646,-31.28769 0,-28.03075 -0.13877,-29.84599 -2.52886,-33.07874 -3.03181,-4.10074 -2.98265,-14.60818 0.0758,-16.19506 6.60721,-3.4282 72.35638,-5.63832 81.56558,-2.74178 3.37965,1.06298 3.70958,1.66706 4.04677,7.40921 0.36389,6.1974 0.007,6.96101 -4.89042,10.48969 -3.41804,2.46232 -5.9749,70.323 -4.331,114.94723 0.69646,18.9055 -1.02751,58.50106 -3.33769,76.65939 -3.79954,29.86486 -2.24083,65.92116 3.43725,79.5107 1.13007,2.70465 1.39825,4.74049 0.68269,5.18273 -2.45376,1.5165 -7.72777,-16.6936 -9.12814,-31.51764 -0.85116,-9.01018 1.24667,-48.19286 3.20819,-59.92182 0.78962,-4.72155 1.45179,-30.85481 1.62386,-64.08724 l 0.29054,-56.11467 -3.46697,0 c -1.90681,0 -3.49257,0.13799 -3.52389,0.30664 -0.0312,0.16865 -0.33674,17.41701 -0.67874,38.32969 -0.34201,20.91268 -1.23846,58.99706 -1.99214,84.63195 -1.75293,59.62183 -1.61086,68.26575 1.39017,84.58787 1.35992,7.39639 2.01827,13.74379 1.46299,14.10532 -0.55528,0.36156 -1.94576,2.48416 -3.08996,4.71693 -2.79426,5.45265 -10.16467,13.47483 -14.38531,15.6574 -2.51105,1.29852 -6.39996,1.63359 -14.52772,1.25173 -9.1453,-0.42969 -12.51674,-1.18501 -19.15502,-4.29145 -6.25338,-2.9263 -8.58123,-3.48901 -10.40211,-2.51452 -1.6079,0.86051 -2.34587,0.85602 -2.34587,-0.0142 0,-0.69833 0.63006,-1.2697 1.40011,-1.2697 0.77006,0 -1.53846,-2.73005 -5.13005,-6.06679 -6.15095,-5.71451 -8.53556,-6.67135 -8.53556,-3.42497 0,0.77133 1.73953,3.19715 3.86562,5.39071 3.22404,3.32637 4.29279,3.78286 6.43939,2.75046 2.42632,-1.16693 2.44481,-1.134 0.32274,0.5747 -2.10217,1.69266 -1.65706,2.2041 6.7306,7.7336 l 8.98165,5.92106 17.45032,0.39642 17.45032,0.39642 5.89105,-5.51039 c 5.34355,-4.99826 9.91509,-12.52459 16.02487,-26.38247 1.65962,-3.76425 2.03894,-4.05696 2.4028,-1.85409 1.01172,6.12535 -12.284,27.72437 -20.45657,33.23186 -3.81765,2.57272 -5.42982,2.78261 -20.82174,2.71089 -9.17603,-0.0428 -17.89023,-0.56385 -19.36491,-1.158 z m 36.35548,-13.01078 c 2.09659,-1.76416 5.55218,-5.76577 7.6791,-8.89249 2.12691,-3.1267 4.2433,-5.96089 4.70308,-6.2982 0.45978,-0.33729 0.0919,-4.75288 -0.81743,-9.81239 -4.21362,-23.44373 -4.40581,-27.04644 -3.00984,-56.4213 0.75339,-15.85316 1.27453,-30.75574 1.15811,-33.11685 -0.11641,-2.36111 0.17812,-18.36759 0.65454,-35.56995 0.47644,-17.20237 0.97297,-44.17822 1.1034,-59.94634 l 0.23716,-28.6693 -27.59739,0.88765 c -15.17856,0.48822 -28.42529,1.36777 -29.4372,1.95454 -1.6354,0.94836 -1.6354,1.07312 0,1.12298 1.63539,0.0498 1.63539,0.18818 0,1.24507 -1.0119,0.65394 -1.21747,1.19743 -0.45682,1.20776 0.76065,0.0101 2.07011,-0.80913 2.90992,-1.82104 0.83981,-1.01191 1.87329,-1.83775 2.29664,-1.83519 1.76352,0.0111 -1.21769,112.60403 -3.52352,133.07604 -0.68385,6.07142 -1.82273,16.55843 -2.53084,23.30445 -1.72039,16.38982 -5.43,33.10053 -9.59479,43.22183 -5.89589,14.32823 -5.92318,13.95173 1.60032,22.07801 6.3149,6.82085 14.31385,11.83336 25.24424,15.81918 2.36111,0.86099 9.08011,1.58966 14.93112,1.61927 9.72339,0.0492 10.96604,-0.222 14.4502,-3.15373 z m -36.62285,-47.10099 c -3.64553,-0.54153 -7.4599,-0.66547 -8.47636,-0.27542 -1.46195,0.561 -1.66289,0.0893 -0.96167,-2.25743 0.94817,-3.17313 3.60515,-41.36993 5.6668,-81.46582 0.69372,-13.49205 1.79503,-29.22256 2.44733,-34.95668 0.6523,-5.73412 1.20808,-18.15293 1.23508,-27.59738 0.0329,-11.54739 0.53846,-17.80856 1.54325,-19.11615 2.46021,-3.20158 37.00895,-6.35504 41.11186,-3.75251 1.9126,1.21318 1.89927,-1.37475 0.18741,36.36072 -0.76507,16.86506 -1.06006,40.04686 -0.65551,51.5151 0.64759,18.35815 -1.05559,53.69796 -3.73302,77.45769 l -0.57371,5.09125 -15.58162,-0.0101 c -8.56986,-0.005 -18.56429,-0.45245 -22.20984,-0.99398 z m 34.83891,-2.37876 c 2.25605,-0.91949 2.18217,-1.07103 -0.91991,-1.88659 -1.85515,-0.48773 -3.373,-1.36157 -3.373,-1.94186 0,-0.58031 0.82792,-0.7374 1.83981,-0.34909 1.01191,0.38831 1.83983,0.15939 1.83983,-0.50871 0,-0.6681 -1.1519,-1.51596 -2.55977,-1.88411 -1.65888,-0.43381 -2.4084,-1.45544 -2.12967,-2.9028 0.23656,-1.22838 0.9745,-1.95743 1.63987,-1.62012 0.66536,0.33729 1.07176,1.02723 0.90312,1.53319 -0.16866,0.50594 0.79725,0.91991 2.14645,0.91991 2.17778,0 2.4443,-0.79155 2.37467,-7.05267 l -0.0785,-7.05266 -1.97721,3.97213 c -2.37169,4.76466 -5.83321,6.16696 -8.73671,3.53935 -1.91563,-1.73362 -2.47024,-1.68916 -6.04485,0.48469 -4.60343,2.79952 -5.21601,7.02339 -1.50562,10.38126 1.9887,1.79975 2.76846,1.91839 4.29293,0.65319 1.02456,-0.8503 1.7988,-2.44434 1.72055,-3.54229 -0.11504,-1.61406 -0.25232,-1.57157 -0.71703,0.2219 -0.91991,3.55056 -5.88666,2.19648 -5.88666,-1.6049 0,-2.5637 0.58129,-3.06638 3.54596,-3.06638 4.65392,0 6.61789,3.03982 4.6932,7.26404 -2.96207,6.50101 -12.53209,2.74999 -12.53209,-4.91202 0,-4.12346 4.47679,-9.09804 8.18765,-9.09804 0.94825,0 3.31774,-1.17824 5.26555,-2.61831 1.94778,-1.44006 4.35233,-2.30713 5.34343,-1.92681 2.01083,0.77162 3.41765,-3.8676 2.3782,-7.84246 -0.91302,-3.49139 -2.53724,-2.82503 -4.48674,1.84075 -1.9505,4.66824 -9.67764,10.54683 -13.86328,10.54683 -3.2281,0 -5.7338,-3.99067 -4.64992,-7.40563 1.08149,-3.40753 3.24825,-3.00382 2.3829,0.44397 -0.4287,1.7081 -0.0377,3.41328 0.97551,4.25417 2.4786,2.05705 10.10051,-3.51129 13.24616,-9.67728 2.81552,-5.51888 5.71062,-5.98312 8.04996,-1.29085 2.28897,4.59121 3.24082,-12.01548 3.40055,-59.32874 l 0.14087,-41.72734 -2.91096,0.0247 c -3.08395,0.0261 -6.25305,-3.48571 -4.6196,-5.11917 0.53269,-0.53268 1.50649,-0.007 2.16402,1.16773 1.39615,2.49477 4.08759,2.91391 3.15815,0.49184 -0.34706,-0.90444 -0.13859,-2.4223 0.46326,-3.37301 0.86261,-1.36263 1.13528,-1.20925 1.28786,0.72449 0.10646,1.34921 0.65349,-2.51443 1.21563,-8.58584 0.56213,-6.07143 1.17342,-12.09003 1.3584,-13.37466 0.55279,-3.8388 -5.31663,-4.59972 -23.11529,-2.99669 l -16.09232,1.44934 -0.71536,25.24598 c -0.39344,13.88528 -1.2897,31.51362 -1.99169,39.17406 -1.26207,13.77208 -0.81703,18.38783 1.39224,14.44008 0.61477,-1.09854 2.0038,-1.99735 3.08675,-1.99735 1.73236,0 1.70558,0.29104 -0.22283,2.42191 -2.12326,2.34619 -2.09085,2.46031 1.03645,3.6493 2.64156,1.00433 3.22825,2.0109 3.22825,5.53865 0,4.19373 0.0668,4.25401 2.4531,2.21088 1.34921,-1.15523 2.4531,-3.11422 2.4531,-4.35331 0,-1.23909 0.55195,-1.91178 1.22655,-1.49485 2.05347,1.26912 1.37621,4.3918 -1.44862,6.6792 -2.43948,1.97539 -2.53443,2.50594 -1.07774,6.02273 0.87859,2.12106 2.2908,3.8565 3.13826,3.8565 2.43524,0 4.91269,-3.75376 4.50926,-6.83233 -0.39253,-2.99544 2.67753,-5.43317 6.84252,-5.43317 2.57539,0 6.29563,3.83422 8.48978,8.74987 1.92749,4.31828 -0.5325,7.86315 -6.19369,8.92521 -4.72716,0.88681 -10.58012,4.98496 -10.58012,7.40804 0,0.88033 0.78531,2.25237 1.74514,3.04895 1.41481,1.17418 1.8211,0.91241 2.14646,-1.38302 0.58986,-4.16137 6.53409,-4.06916 6.53409,0.10132 0,3.97807 -3.2521,5.88363 -7.47418,4.37951 -8.37204,-2.9826 -6.39576,-10.54143 3.83853,-14.68148 8.9334,-3.6138 9.36073,-3.98701 7.66832,-6.69698 -1.39269,-2.23004 -1.52349,-2.23192 -4.28239,-0.0618 -1.61809,1.27279 -3.91526,1.95887 -5.32468,1.59029 -1.4526,-0.37986 -3.50615,0.28146 -4.96023,1.59738 -1.99713,1.80739 -2.92543,1.96831 -4.7568,0.82462 -1.80489,-1.12717 -2.41682,-1.05252 -2.95927,0.36107 -0.37612,0.98023 -2.02199,1.78217 -3.6575,1.78217 -2.93519,0 -4.46263,2.00375 -4.46263,5.85423 0,1.70354 0.21942,1.67385 1.6019,-0.2168 0.98469,-1.34664 2.75692,-2.02771 4.59956,-1.76762 4.47934,0.63226 4.23704,6.99286 -0.36478,9.57522 -6.08968,3.41728 -9.4749,-1.22377 -7.71915,-10.58273 0.63582,-3.38922 1.46809,-4.31261 4.41896,-4.90278 2.9413,-0.58826 3.36423,-1.05411 2.21459,-2.43933 -1.88379,-2.26983 -0.39566,-3.63695 1.8921,-1.73828 1.55021,1.28655 1.59965,1.07413 0.36093,-1.5507 -1.01928,-2.15984 -2.33135,-2.98574 -4.52638,-2.84919 -4.11209,0.25584 -4.234,-4.07161 -0.17174,-6.09686 l 2.91926,-1.45541 -3.75258,-1.94054 -3.75258,-1.94053 -0.75765,7.03937 c -0.41671,3.87166 -1.25581,11.73093 -1.86464,17.46505 -0.60885,5.73412 -1.44695,18.98087 -1.86246,29.4372 -0.4155,10.45635 -1.05509,20.25342 -1.42129,21.77127 -0.38665,1.60255 -0.0958,2.75974 0.69367,2.75974 0.74774,0 1.35952,-0.79535 1.35952,-1.76744 0,-2.75521 2.40919,-3.57678 5.55369,-1.8939 2.8942,1.54893 6.71181,0.96937 6.71181,-1.01893 0,-0.59269 -1.24188,-1.67655 -2.75974,-2.40859 -2.72626,-1.31483 -2.72808,-1.33197 -0.15017,-1.41398 6.41823,-0.20417 6.41424,6.81993 -0.005,8.25783 -2.78493,0.62386 -0.64881,1.04542 7.82081,1.54341 17.89922,1.05245 18.84127,1.05168 21.46464,-0.0175 z M 173.8039,416.34386 c -2.17631,-2.62227 -1.04147,-6.13401 2.12829,-6.58599 1.52097,-0.21689 2.41586,-0.95989 1.98867,-1.65111 -0.45097,-0.72967 0.1738,-1.07371 1.48965,-0.8203 3.12627,0.60206 5.07441,6.41504 2.99116,8.9252 -1.99601,2.40505 -6.65205,2.47665 -8.59777,0.1322 z m 6.92172,-3.35527 c -0.39154,-0.97846 -0.68219,-0.68782 -0.74103,0.74104 -0.0532,1.29298 0.23662,2.01742 0.64421,1.60985 0.40756,-0.40757 0.45113,-1.46549 0.0967,-2.35089 z m -3.09394,-9.43469 c -0.90352,-0.5727 -1.47251,-2.35807 -1.26439,-3.9675 0.20812,-1.60945 -0.0705,-3.64757 -0.61914,-4.52916 -1.48361,-2.38395 0.21349,-7.59622 2.47333,-7.59622 1.60157,0 1.6856,0.33862 0.45268,1.82421 -2.26839,2.73323 -0.59558,5.88531 2.58723,4.87513 1.64152,-0.521 3.00419,-0.21057 3.66691,0.83534 3.46032,5.46111 -2.0276,11.89788 -7.29662,8.5582 z m 1.86739,-4.05737 c -0.39154,-0.97845 -0.68219,-0.68782 -0.74103,0.74105 -0.0532,1.29298 0.23662,2.01742 0.64421,1.60985 0.40756,-0.40757 0.45113,-1.46548 0.0967,-2.3509 z m 11.12099,1.38336 c -3.32044,-1.97276 -2.53742,-3.73201 0.9532,-2.14159 2.19348,0.99943 3.4817,1.03023 4.40655,0.10536 1.97566,-1.97566 -0.90481,-6.44072 -5.09803,-7.90247 -4.34621,-1.5151 -5.86404,-5.45621 -3.14752,-8.17273 1.80348,-1.80347 1.96589,-1.66241 1.96589,1.7077 0,2.9494 0.72008,3.94537 3.65277,5.05234 4.4107,1.66484 7.25062,6.96134 5.35473,9.98661 -1.55778,2.48576 -5.17374,3.09594 -8.08759,1.36475 z m 16.46738,-11.04205 c -2.55522,-1.02054 -3.49246,-5.06072 -1.13548,-4.89471 0.50594,0.0356 2.33816,0.0648 4.07158,0.0648 2.53736,0 3.07529,0.51922 2.75974,2.66366 -0.46664,3.17135 -1.85618,3.69981 -5.69584,2.16626 z m 1.01097,-9.0619 c 0,-0.97838 -0.8988,-2.28187 -1.99734,-2.89664 -1.42396,-0.7969 -1.58459,-1.37285 -0.55953,-2.00637 0.79077,-0.48873 2.24153,-0.22156 3.22387,0.59372 2.02203,1.67814 2.42735,6.08817 0.55955,6.08817 -0.6746,0 -1.22655,-0.8005 -1.22655,-1.77888 z m -6.94936,-28.2716 c 0.22363,-0.6746 1.45101,-1.42893 2.72749,-1.67629 1.27649,-0.24735 2.98742,-1.35125 3.80208,-2.4531 1.84856,-2.50023 4.55389,-0.3585 3.88944,3.0792 -0.34602,1.79015 -1.54989,2.27674 -5.63285,2.27674 -2.91523,0 -5.01444,-0.53796 -4.78616,-1.22655 z m -17.18957,-6.43939 c -4.26592,-4.53849 -6.52482,-10.20712 -6.52482,-16.37378 0,-4.39453 0.74748,-5.85447 5.35808,-10.46507 4.53246,-4.53247 6.11073,-5.35809 10.24265,-5.35809 11.88929,0 17.51612,5.68711 17.51612,17.70375 0,7.33786 -1.12011,10.54667 -5.27328,15.10646 -2.10431,2.31036 -3.78658,2.75974 -10.33097,2.75974 -6.94172,0 -8.17246,-0.37781 -10.98778,-3.37301 z m 20.0944,-1.83983 c 5.95394,-6.53117 6.1375,-19.79605 0.33893,-24.49183 -3.21803,-2.60602 -9.92082,-3.95222 -14.25811,-2.86364 -4.92765,1.23675 -10.24695,7.56995 -10.24695,12.20007 0,5.29734 4.82878,14.49821 8.58585,16.35971 5.12623,2.53985 12.70078,1.95437 15.58028,-1.20431 z m -14.96701,-1.17481 c -8.08904,-4.63905 -8.49488,-17.58539 -0.69565,-22.19249 5.11111,-3.01922 10.65826,-2.65818 14.24347,0.92702 5.063,5.063 3.6649,17.57033 -2.43778,21.80823 -1.95705,1.35905 -8.33739,1.04736 -11.11004,-0.54276 z m 11.65223,-3.42474 c 1.72627,-1.72626 2.45312,-4.0885 2.45312,-7.97258 0,-9.43874 -6.95933,-13.3745 -13.93994,-7.88355 -2.59038,2.03761 -3.23178,3.58215 -3.23178,7.78247 0,3.46078 0.72891,5.87535 2.14646,7.11022 4.56824,3.9796 9.20097,4.33461 12.57214,0.96344 z m -8.58585,-3.67965 c -2.45259,-2.45259 -3.42374,-8.58585 -1.35952,-8.58585 0.60148,0 1.43591,1.36393 1.85431,3.03098 0.4184,1.66702 1.87357,3.62654 3.2337,4.35445 1.36013,0.72792 2.14896,1.84775 1.75296,2.4885 -1.10897,1.79435 -2.79529,1.39807 -5.48145,-1.28808 z m -8.49682,-25.3097 c -3.03024,-3.85232 -3.13682,-5.18574 -0.69333,-8.67431 1.72139,-2.45763 1.658,-2.66662 -0.91991,-3.03265 -3.70737,-0.5264 -3.86057,-6.04615 -0.21229,-7.64909 2.47942,-1.08939 2.48866,-1.191 0.30664,-3.37302 -2.42049,-2.42049 -3.02602,-5.92944 -1.02324,-5.92944 0.67461,0 1.22655,0.83976 1.22655,1.86613 0,1.02637 1.4014,2.50463 3.1142,3.28504 4.03298,1.83756 3.41784,5.15564 -1.05112,5.66965 -2.36973,0.27257 -3.31768,1.00199 -3.05589,2.35146 0.20875,1.07598 1.06985,2.18616 1.91356,2.46709 1.01291,0.33726 1.25902,-0.20589 0.72445,-1.59891 -0.57089,-1.48775 -0.29994,-1.93243 0.91909,-1.50844 0.95075,0.33069 1.55301,1.56844 1.33836,2.75056 -0.24267,1.33637 0.22124,1.94779 1.22655,1.61651 0.88925,-0.29304 1.78796,-1.69138 1.9971,-3.1074 0.54023,-3.65757 3.60176,-6.00735 5.4365,-4.17262 1.07546,1.07548 0.87691,1.41988 -0.81858,1.41988 -1.83301,0 -2.10515,0.66649 -1.50253,3.67965 0.54284,2.71416 0.27638,3.67966 -1.01552,3.67966 -3.31587,0 -7.99962,2.85057 -7.99962,4.86865 0,1.11198 0.73363,3.02508 1.63029,4.25134 1.369,1.87219 2.06974,1.99437 4.37212,0.76216 2.22349,-1.18998 2.46193,-1.80463 1.2613,-3.2513 -1.65091,-1.98924 -0.79134,-3.64414 1.24054,-2.38837 2.21573,1.36941 1.45046,5.33113 -1.41787,7.34019 -3.61344,2.53096 -4.02792,2.45262 -6.99735,-1.32242 z m 19.53579,0.16541 c -1.99296,-2.40136 0.78377,-6.45286 2.9428,-4.29382 0.95512,0.95511 0.8143,1.6554 -0.49996,2.4863 -1.56311,0.98823 -1.52506,1.15942 0.26132,1.17548 1.42953,0.0129 2.34902,-1.35717 2.90697,-4.33134 0.44884,-2.39257 0.54518,-4.62102 0.21407,-4.95213 -0.84651,-0.84651 -7.05175,2.11576 -7.05175,3.36638 0,2.34826 -5.04632,0.8376 -6.28525,-1.88157 -1.37374,-3.01501 0.23732,-8.12772 2.56114,-8.12772 4.18233,0 6.68076,-8.88604 2.90573,-10.33465 -3.10751,-1.19246 -4.95391,1.30689 -3.12683,4.23252 1.67811,2.68706 0.10242,3.34196 -1.98604,0.82547 -1.6697,-2.01185 -0.54215,-6.59567 1.84802,-7.51287 2.43642,-0.93493 6.20188,1.21768 7.10445,4.06144 0.97748,3.07976 -1.48839,8.24526 -5.05011,10.579 -3.19715,2.09485 -3.91194,6.73495 -1.0375,6.73495 1.0119,0 1.83982,-0.55195 1.83982,-1.22655 0,-0.6746 0.76035,-1.22655 1.68966,-1.22655 0.92929,0 2.3883,-0.84185 3.24223,-1.87078 1.38345,-1.66694 1.81304,-1.63508 3.94288,0.2924 1.79981,1.62881 2.22551,3.17842 1.72331,6.27314 -1.12776,6.94954 -4.91945,9.61743 -8.14496,5.7309 z m -21.57743,-30.66374 c -1.86415,-2.84506 -1.86104,-3.29245 0.0431,-6.19867 2.49597,-3.80933 4.77118,-4.80661 7.49204,-3.28395 1.69903,0.95083 1.39542,1.27966 -1.76533,1.91181 -3.191,0.6382 -3.81727,1.33192 -3.81727,4.22846 0,1.90575 0.66234,4.12734 1.47186,4.93687 1.11275,1.11274 1.11965,1.47185 0.0283,1.47185 -0.79397,0 -2.34771,-1.37987 -3.45275,-3.06637 z m 26.17782,2.1575 c -1.18009,-0.27348 -2.50185,-1.91658 -2.93725,-3.65135 -0.83853,-3.3409 -4.53872,-7.70528 -6.53269,-7.70528 -0.65442,0 -1.06838,2.00966 -0.91991,4.46593 0.14849,2.45627 -0.28198,4.66103 -0.95658,4.89949 -2.07524,0.73352 -2.14885,-10.55037 -0.074,-11.34657 2.4118,-0.92549 10.4997,5.38101 10.4997,8.18709 0,2.93523 2.44337,4.38026 3.77185,2.23071 0.69795,-1.12929 0.3792,-1.92341 -0.96067,-2.39341 -1.69733,-0.59539 -1.54921,-1.03945 0.96484,-2.8924 l 2.96999,-2.18904 -3.37301,0.76903 c -3.97253,0.90569 -4.51634,-1.03262 -0.8415,-2.99933 3.12208,-1.6709 6.57183,0.63999 5.39129,3.61147 -0.42608,1.07248 -0.99211,3.02311 -1.25783,4.33471 -0.65772,3.2464 -3.15348,5.27932 -5.74422,4.67895 z m -21.78053,-2.16765 c -2.16272,-2.60593 -0.5626,-5.50932 3.0363,-5.50932 2.26863,0 3.10487,0.64906 3.10487,2.40994 0,3.36294 -4.1741,5.46955 -6.14117,3.09938 z m 3.68807,-3.05622 c 0,-0.67461 -0.24339,-1.22655 -0.54088,-1.22655 -0.29749,0 -0.88202,0.55194 -1.29895,1.22655 -0.41693,0.6746 -0.17352,1.22655 0.54089,1.22655 0.71441,0 1.29894,-0.55195 1.29894,-1.22655 z m 6.74603,143.50635 c 0.41693,-0.6746 0.17352,-1.22655 -0.54088,-1.22655 -0.71442,0 -1.29895,0.55195 -1.29895,1.22655 0,0.6746 0.2434,1.22655 0.54088,1.22655 0.29749,0 0.88202,-0.55195 1.29895,-1.22655 z m 9.73297,-8.45734 c 0.37325,-0.6039 -0.0921,-1.3938 -1.03425,-1.7553 -1.79848,-0.69014 -3.17923,0.10512 -3.17923,1.83121 0,1.36977 3.3574,1.30929 4.21348,-0.0759 z m -4.21348,-29.63811 c 0,-0.63478 -0.55195,-1.15416 -1.22657,-1.15416 -0.6746,0 -1.22655,0.8605 -1.22655,1.91222 0,1.05172 0.55195,1.57109 1.22655,1.15416 0.67462,-0.41693 1.22657,-1.27743 1.22657,-1.91222 z m -17.87261,-0.62849 c 2.6505,-2.65049 2.41368,-4.20532 -0.64049,-4.20532 -1.53156,0 -2.82536,0.98447 -3.20582,2.43931 -0.35084,1.34162 -1.12709,2.13696 -1.725,1.76745 -0.5979,-0.36955 -1.08709,-0.0874 -1.08709,0.62705 0,1.97378 4.4789,1.551 6.6584,-0.62849 z m 19.78889,-22.47984 c -1.00811,-1.63116 -4.3694,-1.80497 -4.3694,-0.22594 0,0.61838 0.68994,1.35654 1.5332,1.64037 1.1832,0.39822 1.12956,1.05154 -0.23502,2.86194 -1.37242,1.82086 -1.13321,1.75593 1.06878,-0.29008 1.56032,-1.44983 2.46142,-3.24365 2.00244,-3.98629 z m -22.76765,-2.03594 c 0,-1.05172 -0.55194,-1.57109 -1.22655,-1.15416 -0.6746,0.41693 -1.22655,1.27743 -1.22655,1.91222 0,0.63478 0.55195,1.15416 1.22655,1.15416 0.67461,0 1.22655,-0.8605 1.22655,-1.91222 z m -30.41844,104.69711 c -1.14478,-1.14477 -1.81029,-1.13344 -2.9948,0.051 -1.21288,1.21293 -1.15254,1.75191 0.29638,2.64738 1.11627,0.68989 2.27358,0.67016 2.9948,-0.051 0.74961,-0.7496 0.64223,-1.70873 -0.29638,-2.64733 z m -2.17103,-3.57332 c -1.04516,-1.6911 -4.20703,-1.27937 -4.20703,0.54782 0,0.89948 0.36318,1.99858 0.80706,2.44247 1.1092,1.10921 4.2347,-1.63968 3.39997,-2.99029 z m -0.4933,-4.83089 c 1.6055,-2.9999 1.50079,-3.91693 -0.34071,-2.98414 -0.84326,0.42715 -0.62436,0.0266 0.48643,-0.89 2.37161,-1.95706 6.29999,-10.78079 4.7997,-10.78079 -0.56545,0 -2.33111,1.14594 -3.92371,2.54655 -1.59259,1.4006 -2.06769,2.13952 -1.0558,1.64204 1.01191,-0.49747 0.50175,0.56436 -1.1337,2.35965 -1.63546,1.79529 -2.49587,3.26416 -1.91204,3.26416 0.58383,0 -0.0101,0.87299 -1.31938,1.93996 -2.34829,1.91339 -2.34731,1.93013 0.0723,1.22353 2.35623,-0.68812 2.36349,-0.64687 0.18381,1.04482 -2.54964,1.97881 -1.71307,4.65204 1.1161,3.56639 1.00904,-0.38721 2.37123,-1.70668 3.02709,-2.93217 z m 8.64722,-22.32906 c 0.77667,-2.86256 1.59626,-6.86049 1.82129,-8.8843 0.22504,-2.02381 0.98972,-5.60782 1.6993,-7.96448 1.74369,-5.79106 1.62866,-11.03843 -0.24303,-11.08605 -0.90281,-0.023 -0.6086,-0.73969 0.71557,-1.74321 1.55695,-1.17991 2.14009,-2.96571 1.89549,-5.80477 -0.19431,-2.2553 0.0682,-4.78255 0.58336,-5.61609 1.14358,-1.85034 -0.38876,-1.94415 -2.88778,-0.17682 -1.43275,1.01327 -1.48926,1.44257 -0.25545,1.94033 1.25743,0.50727 1.27371,1.01351 0.0789,2.45319 -1.19006,1.43396 -1.18862,2.00988 0.007,2.74875 1.16278,0.71863 1.09272,1.28298 -0.30313,2.44142 -1.98872,1.65049 -2.17878,6.2493 -0.25828,6.2493 0.65999,0 0.33052,0.68994 -0.73214,1.53319 -2.25637,1.79051 -3.85901,8.65211 -1.73257,7.41798 0.7458,-0.43284 0.27405,0.44549 -1.04834,1.95183 -2.02108,2.30224 -2.1243,2.91188 -0.64765,3.8245 1.47207,0.90979 1.4145,1.217 -0.35541,1.89617 -2.77896,1.06641 -2.74655,3.13865 0.0344,2.19845 1.44899,-0.48989 1.2497,-0.0562 -0.61327,1.33459 -1.51786,1.13316 -2.75973,2.64853 -2.75973,3.36749 0,0.79603 0.8393,0.66344 2.14645,-0.33907 1.18056,-0.90545 0.76659,-0.056 -0.91991,1.88741 -1.6865,1.94353 -2.23845,3.07971 -1.22654,2.52484 1.01189,-0.55487 0.59794,0.35762 -0.91992,2.02774 -3.7654,4.1431 -3.46331,5.14512 0.87484,2.90177 2.62918,-1.35959 4.02522,-3.31923 5.04672,-7.08416 z m 7.42038,-47.97031 c 0.0861,-2.11378 0.3689,-5.22311 0.62844,-6.90962 1.11933,-7.27332 1.57689,-22.07789 0.68235,-22.07789 -1.24723,0 -3.92042,2.65003 -3.92042,3.88647 0,0.51849 0.9659,0.63903 2.14646,0.26782 1.91885,-0.60333 1.9433,-0.5017 0.23063,0.95841 -2.21388,1.88741 -3.97486,5.92625 -2.58391,5.92625 0.51851,0 1.72843,-0.68994 2.68871,-1.53319 0.96026,-0.84325 0.68036,-0.2595 -0.62203,1.29722 -1.30238,1.55673 -2.54708,4.16786 -2.76598,5.80251 -0.31657,2.36381 0.0492,2.8373 1.78724,2.31346 1.59759,-0.4815 1.44311,-0.10511 -0.57448,1.39976 -3.48096,2.59634 -3.98155,9.42567 -0.61328,8.36658 2.04425,-0.64276 2.04425,-0.59069 0,1.09363 -2.89324,2.38382 -2.71881,4.48449 0.30664,3.69331 1.74512,-0.45636 2.49828,-1.75066 2.60963,-4.48472 z m -3.22291,-5.68307 c 0.41693,-0.6746 1.31,-1.22655 1.9846,-1.22655 0.67461,0 0.88544,0.55195 0.46851,1.22655 -0.41693,0.6746 -1.30999,1.22655 -1.9846,1.22655 -0.67461,0 -0.88544,-0.55195 -0.46851,-1.22655 z m 1.22656,-9.81239 c 0.41693,-0.67461 1.30999,-1.22655 1.98459,-1.22655 0.67461,0 0.88544,0.55194 0.46851,1.22655 -0.41693,0.6746 -1.30999,1.22655 -1.9846,1.22655 -0.67461,0 -0.88544,-0.55195 -0.4685,-1.22655 z m 2.91987,-15.15537 c 0.78475,-0.94556 1.66243,-8.64879 2.03396,-17.85164 0.64578,-15.99649 0.62393,-16.1725 -1.84352,-14.85196 -3.05061,1.63264 -3.33402,3.9314 -0.35058,2.84341 2.04426,-0.74548 2.04426,-0.66603 0,1.66827 -2.59948,2.96832 -2.75337,4.25359 -0.40123,3.35098 1.88158,-0.72202 1.98702,2.40139 0.13788,4.08422 -0.57866,0.5266 -0.59808,0.12966 -0.0433,-0.88441 0.55362,-1.01191 0.53589,-1.41165 -0.0394,-0.88831 -0.57527,0.52333 -1.22161,2.1025 -1.43629,3.50927 -0.30137,1.97466 0.0863,2.37485 1.70044,1.75543 1.96562,-0.75429 1.9664,-0.66487 0.0131,1.49351 -2.43728,2.69317 -2.73568,4.45876 -0.5445,3.22167 1.22655,-0.69248 1.22655,-0.53525 0,0.7862 -0.84325,0.90848 -1.53319,2.4019 -1.53319,3.3187 0,1.00707 0.6069,1.30229 1.53319,0.74579 0.89357,-0.53683 0.76564,0.0429 -0.30663,1.38961 -1.07228,1.34673 -1.20021,1.92645 -0.30664,1.38961 0.84325,-0.50662 1.53319,-0.39564 1.53319,0.2466 0,0.64224 -0.82792,1.48541 -1.83983,1.87373 -1.95164,0.7489 -2.58698,4.46264 -0.76346,4.46264 0.592,0 1.69755,-0.74849 2.45678,-1.66332 z m 1.33753,-35.08528 c 0.99236,-0.62759 1.39319,-1.55219 0.89071,-2.05466 -0.50249,-0.50249 -1.84665,0.0195 -2.98706,1.15984 -2.21684,2.21686 -0.88978,2.78331 2.09635,0.89482 z m 1.26207,-6.22381 c 0,-1.62443 -1.66095,-1.48492 -3.43434,0.28846 -2.31522,2.31523 -1.72037,3.65365 0.98124,2.20779 1.3492,-0.72206 2.4531,-1.84538 2.4531,-2.49625 z m -1.94014,-1.92789 c 1.06708,-0.40948 1.94014,-1.57244 1.94014,-2.58433 0,-1.17377 -0.70239,-1.5703 -1.94014,-1.09533 -1.06708,0.40949 -2.17097,0.74451 -2.4531,0.74451 -0.28212,0 -0.51296,0.82792 -0.51296,1.83982 0,2.06434 0.22464,2.14731 2.96606,1.09533 z m 0.33456,-5.69489 c 0.54577,-0.84325 1.06005,-3.74098 1.14284,-6.43939 0.0828,-2.69841 0.52108,-7.5604 0.97396,-10.8044 0.79084,-5.66471 0.72419,-5.84508 -1.68372,-4.5564 -2.66726,1.42747 -3.62171,5.64446 -0.97396,4.30328 0.84325,-0.42715 0.56727,0.0151 -0.61328,0.98274 -1.18056,0.96766 -2.14646,2.09515 -2.14646,2.50557 0,0.4104 0.9659,0.44587 2.14646,0.0789 2.04426,-0.63561 2.04426,-0.60167 0,0.71272 -1.18056,0.75906 -2.14646,1.90463 -2.14646,2.54571 0,0.64108 0.9659,1.17406 2.14646,1.18439 1.75614,0.0153 1.82759,0.22056 0.39295,1.12846 -2.55764,1.61858 -2.77492,4.96382 -0.27195,4.18719 1.76534,-0.54777 1.7498,-0.40136 -0.12094,1.14005 -2.3039,1.89825 -2.88353,4.56447 -0.9923,4.56447 0.63479,0 1.6007,-0.68994 2.14646,-1.53319 z m 3.54303,-25.14888 c -0.86631,-0.86629 -5.6171,1.00068 -5.6171,2.20742 0,0.61468 1.3822,0.48782 3.07157,-0.28189 1.68935,-0.76972 2.83484,-1.63621 2.54553,-1.92553 z m -1.85682,-1.57174 c 2.79575,-1.49623 3.27703,-7.31615 0.60504,-7.31615 -0.9721,0 -2.14511,-0.61107 -2.60671,-1.35795 -0.56464,-0.9136 0.11407,-1.11799 2.07408,-0.62459 1.60234,0.40334 2.21997,0.41533 1.37251,0.0266 -0.84746,-0.38871 -1.22885,-1.21153 -0.84752,-1.82851 1.00248,-1.62206 -1.15616,-1.37958 -2.85664,0.32089 -0.99626,0.99625 -1.05373,1.91132 -0.18575,2.95717 0.86029,1.03659 0.85108,1.76533 -0.0292,2.30936 -2.10673,1.30204 -1.45832,3.07974 0.86035,2.35881 2.04425,-0.63561 2.04425,-0.60167 0,0.71271 -1.18056,0.75906 -2.14646,1.90463 -2.14646,2.54572 0,1.49224 0.81989,1.46955 3.76028,-0.10414 z m -0.0806,-14.06217 c 1.65742,-1.99708 1.26098,-2.24672 -1.73951,-1.09532 -1.06708,0.40947 -1.94014,1.23738 -1.94014,1.83982 0,1.6966 1.98744,1.29449 3.67965,-0.7445 z m -0.71359,-2.58433 c 1.06708,-0.40947 1.94014,-1.80877 1.94014,-3.10953 0,-1.98495 -0.39424,-2.15404 -2.4531,-1.05217 -1.3492,0.72207 -2.4531,2.12136 -2.4531,3.10952 0,2.01962 0.2312,2.10164 2.96606,1.05218 z m 0.87445,-8.1711 c -0.95435,-0.95436 -0.94914,-1.7868 0.0185,-2.95275 0.83142,-1.0018 0.87777,-1.62369 0.12094,-1.62369 -0.6746,0 -1.91367,0.82792 -2.75347,1.83982 -1.22635,1.47766 -1.20762,1.83983 0.0951,1.83983 1.26158,0 1.29496,0.32707 0.15018,1.47185 -2.36274,2.36275 -1.69704,3.64117 1.11292,2.13731 1.85608,-0.99334 2.2101,-1.75801 1.25573,-2.71237 z m 66.06916,-15.73189 c 0.004,-1.65921 -2.46432,-2.05687 -16.2481,-2.61852 -18.30726,-0.74596 -42.90597,-0.19077 -47.52882,1.07276 -1.68651,0.46095 -3.38835,0.77823 -3.78186,0.70504 -0.39353,-0.0733 -0.71549,0.64488 -0.71549,1.59566 0,1.4522 5.46077,1.68656 34.13527,1.46506 30.31614,-0.23418 34.13571,-0.48257 34.139,-2.22 z m -32.19324,-5.04624 c 26.47369,-0.0417 32.19694,-0.35041 32.19694,-1.73689 0,-1.38526 -5.19955,-1.67361 -29.13057,-1.61554 -30.95931,0.0752 -38.39466,0.73745 -39.31624,3.5022 -0.42029,1.26087 0.0471,1.47922 1.73909,0.81255 1.2726,-0.50141 16.80244,-0.93446 34.51078,-0.96232 z m 32.09473,-6.59694 c 1.44486,-1.43006 -2.15686,-1.91829 -14.80713,-2.00716 -29.27668,-0.20568 -44.61076,0.39801 -47.26083,1.86065 -2.13598,1.17887 3.86131,1.39614 29.43721,1.06643 17.66582,-0.22777 32.34966,-0.64172 32.63075,-0.91992 z m -64.67631,-4.30785 c 1.97479,-1.05687 2.3121,-1.01174 1.55798,0.20844 -0.69104,1.11812 -0.35854,1.32561 1.17885,0.73565 1.17774,-0.45195 5.54588,-0.85908 9.70698,-0.90473 5.87261,-0.0644 7.01668,-0.3554 5.11251,-1.30018 -1.3492,-0.66944 -3.83297,-3.10066 -5.51947,-5.4027 -3.48855,-4.7618 -4.02487,-4.95915 -6.56728,-2.41675 -1.06637,1.06635 -2.7303,1.49323 -3.96847,1.01811 -1.39032,-0.53352 -1.84182,-0.3484 -1.29768,0.53204 0.45897,0.74264 0.18825,1.74964 -0.60158,2.23777 -0.94865,0.58631 -1.10565,0.35292 -0.46255,-0.68764 0.64895,-1.05002 0.40543,-1.38582 -0.7304,-1.00721 -0.93715,0.31238 -1.75911,2.31581 -1.82658,4.45204 -0.13775,4.36232 -0.0785,4.40626 3.41769,2.53516 z m -0.91414,-2.87633 c 1.3095,-1.04914 2.91934,-1.9075 3.57744,-1.9075 1.55839,0 0.86255,0.56655 -2.89195,2.35462 -2.89131,1.37699 -2.93044,1.35145 -0.68549,-0.44712 z m 39.2215,2.2542 c 1.0671,-0.40948 1.94015,-1.86219 1.94015,-3.22823 0,-2.87301 4.5664,-10.74587 6.23279,-10.74587 1.57731,0 1.40275,1.68625 -0.35671,3.44571 -1.15994,1.15994 -0.8926,1.89693 1.22655,3.38123 1.49038,1.0439 2.70977,2.9309 2.70977,4.1933 0,1.86461 1.27636,2.45476 6.80212,3.14517 3.74116,0.46742 7.19083,0.46273 7.66594,-0.0101 0.4751,-0.47315 1.04298,-8.51194 1.26196,-17.86398 l 0.39813,-17.00368 -2.85123,0.14474 c -1.56819,0.0796 -3.82053,0.96493 -5.00522,1.96738 -2.60473,2.20406 -4.32331,0.99447 -2.20813,-1.55416 0.82879,-0.99865 1.15372,-2.38723 0.72201,-3.08573 -0.43169,-0.6985 0.58251,-2.63739 2.25377,-4.30866 l 3.03866,-3.03866 -4.39486,-0.8245 c -5.41599,-1.01603 -39.98552,0.34288 -49.92962,1.96272 -4.00938,0.6531 -8.14898,2.10532 -9.19912,3.22714 -1.73537,1.85382 -1.71734,1.97281 0.19783,1.30583 1.15896,-0.40361 2.48612,-0.12068 2.94925,0.62865 0.54846,0.88743 0.27565,1.01243 -0.78243,0.35849 -1.17315,-0.72504 -1.41107,-0.44781 -0.85635,0.99777 0.42247,1.10096 0.15502,2.38068 -0.59435,2.84382 -0.79409,0.49077 -1.01924,0.28667 -0.53971,-0.48924 0.45254,-0.73222 0.31031,-1.64805 -0.31608,-2.03518 -0.62638,-0.38713 -1.00113,0.23473 -0.83275,1.38194 0.16837,1.14719 0.95092,2.30074 1.73899,2.56343 0.86308,0.2877 0.33273,1.36957 -1.33372,2.72065 -3.43296,2.78331 -2.35435,4.16279 1.96952,2.51887 1.78006,-0.67739 3.23648,-0.95515 3.23648,-0.61784 0,0.3373 -1.28861,1.10321 -2.8636,1.70201 -2.2123,0.84111 -2.90122,2.08957 -3.02903,5.48911 -0.18217,4.84586 -0.042,4.9608 3.8268,3.13841 2.62064,-1.23444 2.61888,-1.21779 -0.0806,0.76289 -3.20049,2.34822 -3.69971,4.80188 -0.74644,3.66862 1.68342,-0.64599 1.75929,-0.46651 0.46311,1.09532 -1.29691,1.56267 -1.16493,1.8679 0.80775,1.8679 1.29688,0 3.02031,-0.66234 3.82983,-1.47186 1.77478,-1.77478 1.97976,-10.79364 0.24531,-10.79364 -2.07698,0 -1.38746,-8.1546 0.84292,-9.96886 1.8135,-1.47514 1.96522,-1.41788 1.22655,0.46309 -0.46362,1.18056 -1.11309,2.8364 -1.44332,3.67965 -0.33021,0.84326 -0.11934,2.28828 0.46851,3.21116 0.86423,1.35669 1.56076,1.18609 3.63791,-0.89106 1.94681,-1.94681 3.24277,-2.31978 5.35087,-1.53996 2.28472,0.84518 3.14418,0.43325 4.80947,-2.3051 2.84182,-4.673 10.64039,-5.88857 17.14183,-2.67194 4.57888,2.26547 4.72251,2.26659 5.42847,0.0423 0.69228,-2.18118 2.67092,-2.86931 6.6926,-2.32757 3.72702,0.50205 4.09623,2.40284 1.88518,9.70542 -2.32311,7.6727 -1.95163,12.17362 1.27065,15.3959 3.13536,3.13537 4.38271,2.28852 3.50676,-2.38077 -0.92999,-4.95722 0.88021,-7.95913 4.79946,-7.95913 2.55243,0 2.55107,0.0174 -0.15018,1.90937 -1.49931,1.05016 -2.70924,3.11997 -2.68871,4.59956 0.0335,2.41706 0.16423,2.47226 1.28748,0.54373 1.87708,-3.22273 3.93513,-2.6483 2.1972,0.61328 -1.36532,2.56232 -1.31442,2.63093 0.7116,0.95895 1.96819,-1.62424 2.13732,-1.56825 1.72531,0.57111 -0.65382,3.3951 -6.02469,6.07987 -10.11101,5.05426 -6.5963,-1.65556 -8.5101,-13.63312 -3.68509,-23.06315 1.54439,-3.01836 1.47333,-3.36066 -0.85074,-4.09829 -3.68481,-1.16951 -4.16306,-0.11407 -4.32962,9.5547 -0.14417,8.36896 -0.3268,8.87784 -4.58723,12.78224 -8.29855,7.60506 -18.11193,3.9666 -22.05141,-8.17589 -2.22179,-6.84811 -5.13293,-8.98826 -7.63783,-5.615 -2.20793,2.97335 -2.29679,10.53238 -0.15819,13.45709 1.09225,1.49374 3.43329,2.27406 7.28163,2.42714 5.9123,0.23517 10.73338,3.22038 10.73338,6.64608 0,1.50865 -0.44155,1.44023 -2.4531,-0.38021 -1.99526,-1.80567 -2.4531,-1.87932 -2.4531,-0.39451 0,1.00402 0.36796,2.19346 0.8177,2.64318 1.02226,1.02228 10.57591,1.0753 13.18731,0.0733 z m -28.42301,-33.78892 c -0.83993,-0.83993 -1.52715,-2.73399 -1.52715,-4.209 0,-3.461 5.67223,-4.45449 12.94166,-2.2667 3.76061,1.13178 5.5375,1.18799 6.51924,0.20625 0.74226,-0.74226 1.77185,-0.92727 2.28799,-0.41114 1.43494,1.43494 -3.54178,4.52215 -6.02128,3.7352 -2.49274,-0.79118 -6.8404,1.22456 -5.91521,2.7425 1.01411,1.66383 -6.63695,1.85119 -8.28525,0.20289 z m 5.04381,-2.89026 c -0.52865,-1.37766 -0.1521,-1.63914 1.46625,-1.01811 1.52528,0.58529 1.9027,0.3908 1.25991,-0.64926 -0.54507,-0.88194 -1.9964,-1.15373 -3.57423,-0.66934 -3.43371,1.05413 -3.67682,1.31299 -2.70695,2.88229 1.26929,2.05376 4.36989,1.57792 3.55502,-0.54558 z m 32.67865,34.35731 c 0,-1.01191 -0.53462,-1.83983 -1.18806,-1.83983 -0.65342,0 -0.87035,0.82792 -0.48204,1.83983 0.38831,1.0119 0.92292,1.83983 1.18805,1.83983 0.26512,0 0.48205,-0.82793 0.48205,-1.83983 z m -26.74671,-3.46727 c -2.88417,-1.28694 -4.64931,-0.5497 -3.42537,1.43069 0.40552,0.65615 1.95277,0.87516 3.43834,0.48667 l 2.70102,-0.70633 -2.71399,-1.21103 z m 18.12743,-6.50521 c 3.4027,-2.8632 3.79307,-3.8505 3.46711,-8.76907 -0.55001,-8.29973 -4.64389,-10.88741 -15.56496,-9.83837 -4.50419,0.43266 -6.78095,6.81215 -4.43498,12.42685 1.99591,4.77691 7.16637,9.40704 10.50482,9.40704 1.20646,0 3.91907,-1.45191 6.02801,-3.22645 z m -11.54926,-4.40577 c -2.13217,-3.04409 -2.49447,-6.58 -0.78263,-7.63797 0.61971,-0.383 1.49149,0.96429 1.93728,2.99398 0.73082,3.32741 1.85998,4.26854 4.60193,3.83561 0.50595,-0.0798 0.91992,0.68267 0.91992,1.69458 0,2.79616 -4.51725,2.19658 -6.6765,-0.8862 z m 38.35009,-23.43981 c 0.21812,-1.12465 -0.28784,-2.04482 -1.12434,-2.04482 -0.8365,0 -1.15774,0.36319 -0.71385,0.80706 0.44388,0.44389 0.12192,1.63754 -0.7155,2.65257 -1.24627,1.51063 -1.1887,1.73523 0.3173,1.23776 1.01189,-0.33425 2.01828,-1.52791 2.23639,-2.65257 z m -51.29841,-6.81648 c 21.99713,-2.64179 49.45461,-1.99787 53.50611,1.25481 2.39031,1.91901 5.27233,-0.24376 6.08299,-4.56491 1.53096,-8.1607 0.54504,-8.59654 -22.17931,-9.80437 -26.63454,-1.41566 -58.76566,2.84124 -60.48991,8.01403 -0.38203,1.14605 0.0765,1.42105 1.44813,0.86843 4.83333,-1.94742 5.98299,-1.95588 2.31383,-0.017 -4.29362,2.26884 -4.49844,2.63371 -2.89695,5.16103 0.8204,1.29464 1.6258,1.35262 3.66088,0.26347 3.14804,-1.68477 3.45775,-0.39803 0.46262,1.92202 -1.78613,1.38354 -1.42579,1.38058 2.14646,-0.0178 2.36111,-0.92421 9.53642,-2.31012 15.94515,-3.07978 z m -21.97569,-0.58168 c 0.28109,-0.24592 1.89093,-1.10429 3.57744,-1.90748 2.89131,-1.37699 2.93045,-1.35145 0.68548,0.44713 -1.95389,1.5654 -5.94614,2.93302 -4.26292,1.46035 z M 5.7416451,484.05183 c 0.01312,-2.19246 0.82602,-10.01335 1.806328,-17.37976 0.980308,-7.3664 1.761522,-22.54496 1.736034,-33.73013 -0.02552,-11.18515 0.51926,-27.78794 1.2105689,-36.89507 0.691295,-9.10713 1.269737,-38.83356 1.285399,-66.05871 0.01705,-29.65718 0.614809,-54.979 1.491117,-63.16733 0.804457,-7.51687 1.503837,-31.68094 1.554186,-53.69794 l 0.0915,-40.03089 -2.776983,-2.28508 C 9.4847471,168.62218 9.3346061,167.52519 8.7206071,145.82607 7.8818521,116.18354 7.6007021,112.68458 4.4832051,93.089003 3.0343301,83.981856 1.6363941,73.494853 1.3766721,69.784539 1.1169501,66.074226 0.58227212,59.883521 0.18847612,56.027431 -0.70286998,47.298983 1.7352911,23.675188 3.9770321,19.319512 8.2153021,11.08461 19.197108,3.8031879 31.228937,1.2502958 38.487784,-0.28987093 56.891002,-0.43495823 66.760252,0.97017377 76.774763,2.3959879 82.921362,7.3870237 86.620428,17.096623 c 2.970627,7.797559 3.014197,8.463612 2.845097,43.488792 -0.09445,19.563472 -0.787511,40.261515 -1.540122,45.995645 -0.752611,5.73412 -1.869532,22.28493 -2.482059,36.77957 -0.895222,21.18457 -1.545759,27.25667 -3.316542,30.95632 -1.211574,2.53133 -2.75482,4.60884 -3.429421,4.61667 -0.782735,0.009 -1.27506,11.66421 -1.360637,32.21103 -0.09028,21.68396 -0.769869,37.0026 -2.081235,46.91534 -4.65699,35.20281 -5.64148,43.55257 -6.363157,53.96819 -0.807193,11.64991 -3.606916,33.85147 -5.568243,44.15581 -0.642013,3.37301 -2.030725,10.8243 -3.086024,16.55842 -5.855452,31.81673 -20.170996,67.08178 -39.106954,96.33647 C 8.0771561,489.24634 5.6964831,491.56257 5.7416091,484.05183 z M 24.516912,458.1738 c 14.419286,-23.50031 26.786356,-56.24323 32.843759,-86.95682 4.289038,-21.74722 7.964297,-47.59635 9.025912,-63.48171 0.428287,-6.40873 1.804611,-19.10353 3.058489,-28.21065 1.253877,-9.10714 2.897454,-21.52596 3.652396,-27.59739 1.536904,-12.36029 2.452131,-46.30512 1.655818,-61.41307 l -0.5217,-9.89799 -16.822907,-0.29534 -16.822894,-0.29535 0.49506,8.76131 c 0.30887,5.46621 -0.02049,9.27685 -0.875622,10.13201 -1.009868,1.00988 -1.402866,-0.55038 -1.492945,-5.92729 -0.06722,-4.01389 -0.525625,-8.67784 -1.018625,-10.36435 -0.873744,-2.98896 -0.920267,-2.96254 -1.842829,1.04652 l -0.946455,4.11291 -4.780934,-4.66846 c -3.253447,-3.17691 -4.780944,-4.04172 -4.780944,-2.70678 0,1.07894 1.989783,3.70875 4.421737,5.84402 2.431954,2.13527 4.166444,4.13761 3.854434,4.44963 -0.312011,0.31201 -1.265481,-0.27396 -2.118817,-1.30217 -0.853335,-1.02822 -2.132099,-1.86947 -2.841695,-1.86947 -0.709584,0 0.0061,1.37987 1.590541,3.06638 3.868171,4.11747 1.647048,3.92819 -2.69262,-0.22948 -1.892065,-1.81272 -3.44013,-2.68365 -3.44013,-1.9354 0,0.74824 2.345777,3.40289 5.212838,5.89922 5.016356,4.36768 2.129094,3.93099 -3.373013,-0.51016 -2.754549,-2.22341 2.31423,4.20709 5.434806,6.89485 0.979045,0.84326 1.290834,1.53319 0.692853,1.53319 -0.597966,0 -2.572885,-1.42335 -4.388681,-3.163 l -3.301468,-3.16299 0.186865,3.71545 c 0.112352,2.23482 1.645699,5.28939 3.847614,7.66504 l 3.660761,3.9496 -3.986288,-2.74575 c -5.097014,-3.51081 -5.097014,-2.0393 0,3.39225 l 3.986288,4.24794 -3.986288,-2.73988 c -5.246628,-3.6061 -5.089041,-1.66976 0.288265,3.54213 2.351001,2.27869 4.001091,4.41653 3.666857,4.75075 -0.334235,0.33423 -2.257772,-0.97318 -4.274552,-2.90537 -4.636273,-4.44183 -4.96749,-1.47954 -0.371007,3.31815 3.44333,3.59407 3.261298,4.91585 -0.200271,1.45429 -1.092206,-1.09221 -2.373141,-1.59854 -2.846504,-1.12518 -0.473362,0.47336 0.932792,2.46311 3.124784,4.42165 4.948663,4.42163 5.195163,5.85056 0.423086,2.45254 -4.154301,-2.95812 -5.023495,-3.12032 -5.023495,-0.93741 0,0.87958 1.92355,3.4636 4.274551,5.74228 2.351002,2.27869 4.004674,4.41295 3.674817,4.7428 -0.329855,0.32985 -1.887549,-0.61011 -3.461557,-2.0888 l -2.86181,-2.68853 -0.1602,4.26112 c -0.129181,3.43623 0.603879,4.86336 3.786568,7.37188 2.170724,1.71091 3.430391,3.11685 2.799257,3.12434 -0.631121,0.007 -2.422767,-1.18445 -3.981443,-2.64876 -1.558675,-1.4643 -3.148418,-2.34789 -3.532758,-1.96356 -0.722094,0.72209 0.742554,2.24576 4.980124,5.18074 1.348151,0.93375 2.04147,2.10742 1.540706,2.60817 -0.50075,0.50076 -2.021121,-0.0947 -3.378605,-1.32316 -5.008997,-4.53308 -3.959991,-0.37242 1.30305,5.16825 l 5.442975,5.73009 -4.84643,-4.09527 c -6.122166,-5.17327 -7.505444,-2.77444 -1.796614,3.11557 4.32051,4.45764 3.69968,5.88214 -0.744111,1.70741 l -2.63907,-2.47928 -0.164222,4.36812 c -0.129573,3.4468 0.669082,5.15706 3.786568,8.10862 2.864044,2.7116 3.11659,3.20419 0.918134,1.7908 -4.366285,-2.80708 -4.93993,-2.4917 -4.93993,2.7159 0,3.71804 0.86814,5.50703 4.274551,8.80866 2.351002,2.27868 4.001093,4.41652 3.666857,4.75074 -0.334234,0.33424 -2.119785,-0.8392 -3.967913,-2.60766 l -3.36022,-3.21535 -0.323356,4.44675 c -0.248695,3.41998 0.459343,5.3051 3.066376,8.16414 1.912203,2.09703 2.320472,2.93584 0.93663,1.92439 -1.349205,-0.98614 -2.85861,-2.34493 -3.354222,-3.01953 -0.496054,-0.67518 -0.909573,-0.15005 -0.919913,1.16815 -0.0098,1.3171 1.745333,4.21482 3.901472,6.43939 4.384352,4.52352 4.167228,5.41815 -0.359575,1.48155 -2.743498,-2.38581 -2.978186,-2.41087 -3.392331,-0.36224 -0.263708,1.30455 1.110003,3.59022 3.373012,5.61221 2.099867,1.87623 3.817932,3.7913 3.817932,4.25571 0,0.46439 -1.377685,-0.44992 -3.06153,-2.03181 -4.786329,-4.49651 -5.238018,-1.72057 -0.534273,3.28345 l 4.209078,4.47779 -3.986288,-2.73987 c -4.740787,-3.25843 -5.191838,-2.00805 -0.932607,2.58534 3.975604,4.28752 2.462152,9.67946 -1.58182,5.63549 -1.144776,-1.14477 -1.47186,-1.02827 -1.47186,0.52426 0,1.09786 1.517855,3.22635 3.373013,4.72997 3.080124,2.49647 2.626301,2.55885 -2.759738,0.37933 -3.171945,-1.28356 -2.084731,2.83332 1.966896,7.44785 2.093684,2.38458 3.447084,4.3356 3.007537,4.3356 -0.439547,0 -2.120803,-1.51785 -3.736132,-3.373 l -2.936962,-3.37302 0.269669,4.53652 c 0.160936,2.70757 1.368719,5.70642 2.995787,7.43835 3.661717,3.89772 3.490258,5.72902 -0.210844,2.25202 -4.3694,-4.10484 -5.514336,-0.78233 -1.260451,3.65776 3.560073,3.71592 2.929086,5.03236 -0.796179,1.66105 -1.974071,-1.78652 -2.12176,-1.59608 -2.140379,2.75974 -0.01435,3.35064 0.908285,5.72186 3.250358,8.35386 l 3.27035,3.67519 -3.216247,-2.82182 c -2.504382,-2.19725 -3.361434,-2.44349 -3.872182,-1.1125 -0.393846,1.02636 0.802605,2.57088 2.994537,3.86569 2.007751,1.18602 3.33965,2.46718 2.959787,2.84705 -0.379874,0.37988 -1.801336,-0.31446 -3.15882,-1.54296 -1.357472,-1.2285 -2.858732,-1.84304 -3.336118,-1.36564 -0.477398,0.47739 0.905856,2.52578 3.073894,4.552 2.168025,2.0262 3.941874,4.02821 3.941874,4.44892 0,0.4207 -1.339773,-0.49375 -2.977279,-2.0321 l -2.977278,-2.79702 0.242207,6.85699 c 0.17731,5.0198 0.881889,7.43722 2.629748,9.02259 2.355393,2.13644 2.356631,2.12843 0.09187,-0.59412 -1.262622,-1.51786 -1.69075,-2.75974 -0.95141,-2.75974 0.739352,0 1.757009,0.66782 2.261464,1.48405 1.828933,2.95929 4.819286,-11.79376 7.261998,-35.82746 2.047051,-20.14079 2.708381,-23.27947 4.362997,-20.70677 0.599648,0.93239 0.824132,3.07512 0.498839,4.76163 -0.325282,1.68651 -1.428085,10.43112 -2.450648,19.43251 -1.973752,17.37432 -4.640762,30.91549 -6.983178,35.4556 -1.955771,3.7907 -6.851668,3.68328 -8.321467,-0.18258 -1.64879,-4.33665 -2.031302,-24.64361 -0.845621,-44.89314 0.572762,-9.78173 1.256295,-18.13588 1.518984,-18.56477 0.262678,-0.42889 0.531293,-21.67887 0.596901,-47.22218 0.06562,-25.54331 0.536811,-59.68912 1.047118,-75.87957 0.510306,-16.19046 0.876971,-29.50662 0.814822,-29.59147 -0.06219,-0.0849 -1.216898,-0.49207 -2.566102,-0.90494 -2.416169,-0.73939 -2.454315,-0.16478 -2.534458,38.17731 -0.04477,21.4104 -0.741964,45.82734 -1.549366,54.25987 -0.8074,8.43254 -1.730956,40.44549 -2.052336,71.13991 -0.321393,30.69441 -1.091065,62.43139 -1.710376,70.52662 -0.619321,8.09523 -0.841964,21.534 -0.494765,29.86392 0.347187,8.32993 0.039,19.36888 -0.684931,24.531 -0.723909,5.16214 -1.6424109,12.14542 -2.0411379,15.51844 l -0.72494,6.13275 4.6696109,-7.57496 c 2.568285,-4.16622 7.885747,-12.81657 11.816595,-19.22299 z m -2.240796,-76.84554 c -0.416929,-0.6746 -0.17352,-1.22655 0.540896,-1.22655 0.714417,0 1.298929,0.55195 1.298929,1.22655 0,0.67461 -0.243397,1.22656 -0.540884,1.22656 -0.297488,0 -0.882012,-0.55195 -1.298941,-1.22656 z m 0.613275,-20.23807 c -0.851753,-1.0263 -0.984564,-1.83982 -0.30037,-1.83982 0.674603,0 1.913664,0.82792 2.75347,1.83982 0.851765,1.02631 0.984576,1.83983 0.30037,1.83983 -0.674603,0 -1.913664,-0.82792 -2.75347,-1.83983 z m 1.72329,-15.63852 -2.336565,-2.75973 2.759737,2.33657 c 2.59348,2.19579 3.318112,3.1829 2.336566,3.1829 -0.23275,0 -1.474632,-1.24188 -2.759738,-2.75974 z m 1.30727,-54.58147 -2.157771,-3.37301 3.243255,2.97354 c 3.506707,3.21508 3.825523,3.77248 2.157771,3.77248 -0.59701,0 -2.056482,-1.51785 -3.243255,-3.37301 z m 1.024132,-9.46701 c -4.474332,-3.93632 -3.236105,-3.95942 2.078058,-0.0388 2.285933,1.68651 3.52784,3.06638 2.759799,3.06638 -0.768054,0 -2.945081,-1.36242 -4.837857,-3.02762 z m -0.97734,-14.91275 -2.110978,-3.22176 3.157925,2.30185 c 3.195359,2.32915 4.136062,4.14168 2.149516,4.14168 -0.59701,0 -2.035422,-1.44979 -3.196463,-3.22177 z m 1.736023,-25.81029 -2.97355,-3.27452 3.334474,2.3546 c 1.833951,1.29504 3.351806,2.76856 3.373013,3.27452 0.06329,1.51046 -0.609253,1.08636 -3.733937,-2.3546 z m -0.636985,-37.50828 -2.336565,-2.75974 3.066375,2.44003 c 1.686507,1.34202 3.296353,2.5839 3.577441,2.75974 0.28109,0.17583 -0.04734,0.31971 -0.729809,0.31971 -0.682489,0 -2.292336,-1.24188 -3.577442,-2.75974 z M 25.94897,322.44634 c -1.224758,-1.35333 -2.492852,-2.1946 -2.817986,-1.86946 -0.824168,0.82416 2.235044,4.33008 3.778351,4.33008 0.696545,0 0.264383,-1.10727 -0.960365,-2.46062 z M 26.793916,184.8145 c -0.880135,-0.88012 -1.451425,-0.95254 -1.451425,-0.18397 0,1.63717 1.45053,3.0877 2.269117,2.26911 0.34855,-0.34853 -0.01938,-1.28684 -0.817692,-2.08514 z m 7.864835,-1.1503 c 0.57973,-0.93803 0.331905,-1.08031 -0.734101,-0.42148 -1.208693,0.74701 -1.429214,0.30601 -0.885889,-1.77163 0.397856,-1.52143 0.412293,-2.45513 0.03214,-2.07493 -0.380218,0.38022 -1.845504,-0.11714 -3.256196,-1.10523 -4.411815,-3.09017 -4.691725,-1.97243 -0.625173,2.49641 4.422326,4.8598 4.287553,4.78891 5.469261,2.87686 z m 40.215019,-7.11505 c 5.873409,-2.23305 6.835048,-5.5207 7.576387,-25.90219 0.378526,-10.4069 1.540719,-27.75279 2.58266,-38.54643 1.092648,-11.31907 1.969767,-33.640725 2.072441,-52.741666 0.17298,-32.180048 0.09493,-33.33574 -2.75829,-40.855044 C 79.433298,5.5545997 72.266407,2.3471283 48.210719,2.3313941 30.054136,2.3194966 18.160268,6.6365887 9.6520951,16.326865 c -4.301928,4.899626 -4.458461,5.366451 -2.707855,8.075323 0.820427,1.269516 1.194807,1.356074 1.207772,0.279237 0.03164,-2.62689 10.1884969,-12.799329 14.6521579,-14.674599 2.314242,-0.9722533 11.395043,-2.2773513 20.179557,-2.9002153 23.809936,-1.688238 32.22781,1.414853 36.93645,13.6159273 1.171539,3.035712 2.542491,8.83116 3.046554,12.878776 1.13007,9.074446 -0.688622,70.643646 -2.409361,81.565596 -1.336216,8.48127 -2.186976,22.45867 -2.364592,38.84885 -0.09653,8.91021 -0.461723,10.44457 -3.284039,13.79869 l -3.175403,3.77376 -15.529485,-0.0315 c -11.254627,-0.0228 -18.399391,-0.71538 -25.95516,-2.51585 -13.75138,-3.27686 -13.945224,-3.29021 -14.422708,-0.99283 -0.535805,2.57798 5.214126,5.27885 16.262533,7.63891 9.736305,2.07977 38.080478,2.65096 42.785254,0.86219 z M 6.9442401,22.021479 c 0,-0.634789 0.545631,-1.491374 1.212507,-1.903532 0.695282,-0.429709 0.900913,0.06267 0.482046,1.15416 -0.815398,2.124899 -1.694553,2.513679 -1.694553,0.749372 z M 72.564667,167.20539 c 2.110684,-1.59323 2.512723,-3.58147 2.880221,-14.24378 0.400849,-11.62998 0.287969,-12.33867 -1.835458,-11.52384 -4.597502,1.76423 -26.983279,4.5756 -32.455017,4.07594 -4.72245,-0.43124 -6.281506,0.006 -9.473541,2.66012 -3.895425,3.23832 -8.605781,12.37543 -6.379765,12.37543 0.669941,0 2.325306,-2.17035 3.678583,-4.82298 3.686531,-7.22621 7.121325,-8.09363 3.65285,-0.9225 -1.223962,2.53057 -1.156416,2.51913 1.218357,-0.20639 1.711,-1.96373 2.27839,-3.82489 1.776105,-5.82611 -0.440515,-1.7552 -0.199412,-2.94062 0.598103,-2.94062 2.066687,0 2.982663,5.59666 1.399972,8.55393 -1.945677,3.63552 -12.022226,9.85099 -14.540837,8.96913 -1.413329,-0.49485 -1.66011,-0.3091 -0.808124,0.60824 4.138822,4.45633 45.175407,7.10305 50.288551,3.24343 z m -31.132845,-2.05657 c -0.06341,-1.51786 -0.434137,-5.2435 -0.8238,-8.27921 -0.498114,-3.88065 -0.167988,-6.24727 1.111843,-7.97065 2.255724,-3.03749 3.931314,-1.73177 2.120252,1.65221 -1.66422,3.10962 -1.720053,8.38318 -0.09936,9.38482 0.674603,0.41692 1.226549,1.87537 1.226549,3.24097 0,4.02836 2.959396,1.90322 4.199769,-3.01586 0.823003,-3.26382 0.682527,-5.33725 -0.512906,-7.57095 -2.022985,-3.77998 -0.468211,-5.82055 1.932895,-2.53684 3.113721,4.25824 1.690432,14.16502 -2.430359,16.91656 -2.965626,1.9802 -6.607229,0.99408 -6.724868,-1.82105 z m 20.513964,0.61327 c -4.122325,-4.91588 -5.939544,-9.08064 -5.939544,-13.61248 0,-3.85152 0.511839,-4.94014 2.576552,-5.48007 5.397164,-1.4114 10.411447,3.14005 12.201033,11.07485 0.596789,2.64608 0.382511,4.3826 -0.646147,5.2363 -1.179168,0.97863 -1.696355,0.10438 -2.211812,-3.73864 -0.727186,-5.42157 -3.324074,-9.12234 -7.092857,-10.10791 -1.869459,-0.48887 -2.373669,0.0166 -2.373669,2.37969 0,4.32281 4.691982,12.88872 7.45567,13.61144 1.296206,0.33896 2.356729,1.10388 2.356729,1.69979 0,1.90842 -4.463132,1.15847 -6.325955,-1.06297 z m 1.075647,-8.23277 c -2.501794,-5.24631 -0.512575,-7.10075 2.131707,-1.98728 1.04063,2.01237 1.892052,4.23821 1.892052,4.94631 0,2.66025 -2.070036,1.13796 -4.023759,-2.95903 z m -17.136118,-0.09 c -0.585813,-3.06448 0.479753,-4.89583 1.977273,-3.39831 1.15536,1.15536 0.953826,5.03219 -0.30194,5.8083 -0.597465,0.36925 -1.351364,-0.71525 -1.675333,-2.40999 z m -29.172131,0.11579 c -0.02391,-0.7143 -0.832276,0.0811 -1.796369,1.76763 -0.964092,1.68651 -1.77245,2.28445 -1.796355,1.32876 -0.02391,-0.95568 -0.374711,-1.40636 -0.779559,-1.00151 -0.40486,0.40485 -0.320607,1.40838 0.187221,2.23006 0.677239,1.09579 1.363777,0.8916 2.575926,-0.76611 0.908924,-1.24302 1.633041,-2.8445 1.609136,-3.55882 z m 7.318873,-3.43528 c 1.763743,-3.54712 4.435965,-6.99417 5.938281,-7.66009 1.502303,-0.66592 2.730693,-1.49384 2.72976,-1.83983 -0.0012,-0.62105 -13.65734,-4.92197 -15.627559,-4.92197 -0.559282,0 -0.220828,4.97315 0.752108,11.05143 0.972948,6.07828 2.046106,10.77432 2.384794,10.43562 0.338686,-0.33869 2.058874,-3.51801 3.822616,-7.06514 z m -9.260514,2.07282 c 0.418867,-1.09153 0.213236,-1.58387 -0.482046,-1.15417 -0.666876,0.41217 -1.212506,1.26876 -1.212506,1.90355 0,1.76431 0.879154,1.37553 1.694552,-0.74937 z m -0.03017,-5.33482 c 0.421332,0.94539 0.469511,0.51328 0.107077,-0.96021 -0.362457,-1.4735 -0.823995,-6.30971 -1.02564,-10.74715 -0.473326,-10.41567 -1.512165,-11.48545 -1.52979,-1.57535 -0.0074,4.20325 -0.414526,9.85007 -0.904557,12.54848 -0.841547,4.63409 -0.794522,4.74284 0.847951,1.96078 1.307024,-2.21385 1.929192,-2.51849 2.504983,-1.22655 z m 55.676809,-11.74118 c 6.373375,-1.94668 6.439388,-2.01737 6.439388,-6.89508 0,-4.84773 -0.04452,-4.89704 -2.726007,-3.01885 -3.739923,2.61953 -5.473761,2.40696 -8.981965,-1.10125 -3.853488,-3.8535 -4.083148,-10.63544 -0.482095,-14.2365 3.586494,-3.58649 7.47619,-2.60705 10.041703,2.52852 2.466103,4.93659 2.935442,2.2696 0.893985,-5.08008 -1.961622,-7.06227 -3.917001,-7.871 -8.268751,-3.41994 -4.675498,4.78223 -9.597374,4.69801 -9.28962,-0.15895 l 0.198774,-3.13698 -5.248567,2.52496 c -3.730883,1.79483 -4.913817,2.94879 -4.090912,3.99064 3.446078,4.36295 -3.809726,12.40357 -8.525823,9.44801 -1.186368,-0.7435 -2.337644,-2.56959 -2.558386,-4.05798 -0.581508,-3.92101 -4.406811,-2.77908 -4.895616,1.46143 -0.551849,4.78757 5.650802,7.44241 13.0187,5.57225 6.597196,-1.67455 10.516661,-0.61666 12.311693,3.323 1.914558,4.20199 0.06341,7.60357 -5.374166,9.87555 -11.035001,4.61072 -22.19251,-1.10759 -15.845494,-8.12096 1.716791,-1.89703 1.560479,-2.20994 -1.799041,-3.6015 -6.730007,-2.78767 -6.595921,-11.06137 0.218142,-13.45949 l 3.993671,-1.40553 -4.9062,-2.19158 -4.906201,-2.19159 -0.379445,2.77151 c -0.639536,4.67123 -3.323987,5.9343 -6.154693,2.89589 l -2.452929,-2.63291 -1.444851,2.69972 c -2.674075,4.99655 0.752783,13.48038 5.445085,13.48038 1.221448,0 0.741412,-7.18517 -0.532642,-7.97258 -0.698398,-0.43163 -1.226549,0.62468 -1.226549,2.45311 0,1.82842 -0.528153,2.88473 -1.226551,2.4531 -1.879184,-1.16141 -1.458638,-5.02649 0.746012,-6.85619 1.677847,-1.39248 2.241937,-1.27749 3.775653,0.76974 1.762736,2.35292 1.620027,7.91439 -0.387528,15.10266 -0.66446,2.37918 -0.399243,2.79978 1.516579,2.40503 1.688347,-0.34789 2.255184,-1.41251 2.077457,-3.90192 -0.204343,-2.86232 0.04698,-3.18166 1.533188,-1.9482 4.162947,3.45493 -0.868435,10.13464 -6.116768,8.12066 -2.21488,-0.84993 -2.575228,-5.16826 -0.536407,-6.42833 0.83149,-0.51389 -0.153589,-1.49941 -2.473964,-2.47505 -2.120583,-0.89163 -4.385689,-2.88573 -5.033566,-4.43133 -0.833722,-1.98893 -0.963357,-0.48027 -0.443593,5.1624 0.403902,4.38491 1.081363,8.33415 1.505467,8.77607 0.424105,0.44192 4.634728,1.95466 9.356945,3.36164 7.168671,2.13589 10.914087,2.47191 22.691175,2.03575 7.909581,-0.29294 16.933824,-1.38633 20.544713,-2.48925 z m -15.517857,-6.35353 c 4.530104,-4.5301 -0.03864,-8.80488 -7.628736,-7.13783 -2.741817,0.60221 -3.404878,1.1972 -2.425539,2.17654 1.717268,1.71727 1.747613,4.53681 0.04882,4.53681 -0.714416,0 -0.955409,-0.55585 -0.535537,-1.23521 0.419873,-0.67937 -0.142304,-1.58276 -1.249278,-2.00755 -2.660424,-1.02091 -6.067289,2.45385 -5.037379,5.13777 1.152343,3.00294 13.426797,1.9303 16.827628,-1.47053 z M 11.930927,113.53024 c -0.925039,-0.92503 -1.263776,1.18444 -1.158968,7.21747 l 0.148094,8.52453 1.158968,-7.21748 c 0.794583,-4.94833 0.748024,-7.62839 -0.148094,-8.52452 z m 62.47256,12.0642 c 0.902041,-1.68549 1.271281,-3.43332 0.820536,-3.88408 -0.450757,-0.45076 -0.819556,0.0413 -0.819556,1.09347 0,3.08707 -3.860664,3.76614 -6.485947,1.14087 -2.584145,-2.58415 -2.05571,-6.83507 0.995222,-8.00583 1.439112,-0.55224 1.509724,-0.25614 0.373007,1.56404 -1.648508,2.63968 -0.464556,6.67626 1.745356,5.95063 1.93541,-0.63553 2.747398,-6.94912 1.104962,-8.59157 -0.67795,-0.67794 -2.652917,-0.87616 -4.388816,-0.44048 -2.717251,0.68199 -3.156184,1.45902 -3.156184,5.58738 0,8.02647 6.518929,11.73764 9.81142,5.58557 z m -27.06942,-9.03972 c 1.47343,-2.75312 0.6087,-3.84091 -3.053263,-3.84091 -2.747019,0 -4.821053,2.94095 -3.538045,5.01688 1.199946,1.94155 5.315855,1.20723 6.591308,-1.17597 z m -26.305242,-9.97366 c 1.065651,0 2.255233,0.82792 2.643547,1.83982 0.388301,1.01191 1.198902,1.83983 1.801323,1.83983 1.744853,0 1.268192,-5.43535 -0.705487,-8.04478 -1.180383,-1.5606 -1.814263,-5.385204 -1.839825,-11.100778 -0.03643,-8.131769 0.248646,-9.083106 4.226078,-14.105337 l 4.265107,-5.38545 -3.59687,-0.94074 c -1.978266,-0.517408 -4.40843,-2.099436 -5.400365,-3.515611 -4.370112,-6.239203 5.060586,-13.328625 17.730381,-13.328625 l 7.730221,0 -2.642516,-2.46187 c -6.410858,-5.972624 4.268934,-11.365458 13.279808,-6.705758 2.960292,1.530833 3.61874,2.651495 3.61874,6.159048 0,3.383304 -0.646796,4.582427 -3.066375,5.684863 -1.686506,0.768422 -3.066375,1.86048 -3.066375,2.426802 0,0.566312 -0.795344,1.029665 -1.767434,1.029665 -0.97209,0 -2.145101,0.61108 -2.606701,1.357963 -0.779277,1.260894 1.200142,0.952575 6.395343,-0.996168 0.774369,-0.290458 2.476846,0.619237 3.783305,2.021551 l 2.375374,2.549654 1.403234,-3.079769 c 1.908499,-4.188692 6.622684,-4.081369 10.012377,0.227918 3.369775,4.283971 3.017497,10.797626 -0.583972,10.797626 -2.879118,0 -4.045138,-4.702053 -1.828381,-7.373074 1.805505,-2.175507 0.558337,-4.279151 -2.536924,-4.279151 -3.235847,0 -3.168436,5.312642 0.145886,11.496454 1.389633,2.592755 2.846382,7.414126 3.237222,10.714147 0.39084,3.300033 1.17517,6.000062 1.742952,6.000062 1.726798,0 2.722622,-6.206392 1.234584,-7.694418 -2.172833,-2.172834 -1.619034,-3.585058 1.071036,-2.73127 2.314181,0.734495 2.4531,0.220412 2.4531,-9.077978 0,-7.733606 -0.353934,-9.720728 -1.643308,-9.22595 -2.15901,0.828486 -4.960229,-2.617765 -4.051883,-4.984895 0.3916,-1.020502 1.624835,-1.855452 2.740506,-1.855452 1.557914,0 1.711588,0.381874 0.66241,1.646043 -1.453254,1.751071 -0.535573,3.636549 1.236804,2.541154 1.707652,-1.055386 1.219706,-3.712608 -1.239404,-6.749472 L 75.947479,48.44306 73.91792,52.367774 c -1.116247,2.158594 -2.775707,3.924715 -3.687684,3.924715 -2.101914,0 -5.04236,-3.457755 -3.906427,-4.593675 0.470112,-0.470112 1.405246,-0.04281 2.078094,0.949546 1.045144,1.541479 1.437431,1.462648 2.693038,-0.541166 0.808346,-1.290012 2.427208,-3.351401 3.597483,-4.580883 2.031401,-2.134147 1.97585,-2.26637 -1.226549,-2.918808 -1.844879,-0.375877 -5.286149,-1.248959 -7.647258,-1.940194 -2.361108,-0.691223 -10.452475,-1.570782 -17.980818,-1.954568 -14.483581,-0.738347 -25.075295,1.057715 -34.922333,5.921869 -4.3580049,2.15273 -4.4414969,2.327537 -3.8566899,8.075581 0.328764,3.23137 1.1105429,8.083013 1.7372979,10.781423 0.626755,2.69841 1.630011,14.135548 2.229451,25.415871 0.599439,11.280315 1.483892,21.147175 1.965448,21.926355 0.544845,0.88156 1.484604,-0.0318 2.487947,-2.41804 0.886807,-2.10912 2.484266,-3.83474 3.549905,-3.83474 z m -1.819109,-4.59995 c 0,-1.4506 -0.965908,-3.248874 -2.146462,-3.996154 -1.481366,-0.93768 -1.686237,-1.55337 -0.661184,-1.98702 0.945424,-0.39994 1.217019,-1.969593 0.747239,-4.318522 -0.405927,-2.029609 -0.03459,-6.62245 0.825148,-10.206319 1.522959,-6.348439 1.475307,-6.631318 -1.852163,-10.993862 -3.98646,-5.226514 -5.295949,-14.276822 -2.762547,-19.092944 2.68444,-5.103257 13.209269,-4.564753 13.209269,0.675853 0,2.530533 -3.55935,5.426073 -5.672977,4.614993 -1.37895,-0.529146 -1.724296,-1.727915 -1.221718,-4.240809 0.836949,-4.184755 -0.814871,-4.555603 -3.461422,-0.777118 -3.518789,5.023765 -1.703727,14.941796 3.529226,19.284765 2.281456,1.89345 2.445655,6.002919 0.499402,12.498925 -1.095935,3.657927 -1.069208,6.317075 0.116767,11.616468 1.114468,4.979944 1.168093,7.242574 0.19474,8.215914 -0.973354,0.97336 -1.343293,0.61695 -1.343293,-1.29417 z m 4.9062,-49.44065 c 0,-0.634801 -0.551948,-1.154171 -1.226549,-1.154171 -0.674603,0 -1.226551,0.860498 -1.226551,1.912216 0,1.051717 0.551948,1.571088 1.226551,1.154159 0.674601,-0.416929 1.226549,-1.277415 1.226549,-1.912204 z m 6.37806,-2.626031 c -0.809522,-0.809523 -1.442901,-2.603352 -1.407514,-3.986287 0.06231,-2.436922 0.12366,-2.429367 1.989426,0.24531 2.199156,3.152625 4.725934,3.586199 5.725119,0.98238 0.455847,-1.187938 0.0926,-1.551181 -1.095321,-1.095322 -2.224484,0.853606 -2.330605,-1.274004 -0.153662,-3.080701 1.185693,-0.984048 2.012866,-0.958389 3.066375,0.09518 2.036747,2.036748 1.795191,3.932478 -0.800374,6.281432 -2.648673,2.39701 -5.284272,2.597833 -7.324049,0.558056 z m 48.567898,44.057468 -0.386228,-5.17582 -2.442233,4.058139 c -2.1321,3.54284 -2.994046,4.00904 -6.787949,3.67144 -3.510288,-0.31235 -4.884048,0.26332 -7.145941,2.99453 -2.339276,2.824624 -2.467598,3.381224 -0.77951,3.381224 1.837029,0 1.845504,0.17521 0.09334,1.92744 -1.060083,1.06008 -1.927438,2.43995 -1.927438,3.06637 0,2.15665 3.257864,1.13275 6.13275,-1.92744 3.968037,-4.22377 8.173178,-3.99042 10.78936,0.59874 l 2.089416,3.66512 0.375361,-5.54194 c 0.206441,-3.04808 0.201547,-7.871094 -0.01103,-10.717803 z M 10.873212,104.316 C 10.179757,102.32674 9.8739291,96.641106 10.193604,91.681254 10.513268,86.721392 10.377206,79.627603 9.8912351,75.917289 l -0.883582,-6.746024 -1.550727,4.906199 c -0.852906,2.69841 -1.538964,6.838017 -1.524577,9.199126 l 0.02612,4.292938 1.693423,-5.519489 1.693425,-5.519475 -0.536125,6.132751 c -0.294875,3.373024 -0.842775,7.788605 -1.217559,9.812412 -0.501366,2.707329 -0.403278,3.037369 0.371214,1.248996 0.730607,-1.687046 1.025825,-0.186104 0.965001,4.906203 -0.0482,4.035284 0.368947,8.063524 0.926989,8.951644 1.6972629,2.70119 2.3588769,0.57889 1.0183429,-3.26657 z m 43.678427,-1.39042 c 8.989152,-6.511704 11.123754,-14.936303 6.033964,-23.814232 -3.118909,-5.440191 -9.548238,-9.386849 -14.985915,-9.199101 -3.303651,0.11407 -3.090685,0.314193 1.993586,1.873348 10.928327,3.351315 14.946604,10.8644 11.446569,21.40201 -2.207484,6.646121 -4.353847,8.843415 -10.594375,10.845695 -5.67586,1.8211 -11.312078,-0.26626 -16.107606,-5.965424 -2.673132,-3.17685 -3.315745,-5.176827 -3.315745,-10.319542 0,-3.74039 0.806468,-7.633435 1.949698,-9.411662 1.381844,-2.149407 0.846001,-1.866024 -1.839824,0.972985 -3.092831,3.269222 -3.789524,5.03164 -3.789524,9.586409 0,10.99396 6.986171,17.661984 18.520868,17.677444 4.321786,0.006 6.82293,-0.84786 10.688304,-3.64793 z m -1.201528,-5.396394 c 4.494545,-4.494545 5.136938,-13.887366 1.257385,-18.385015 -3.789463,-4.393208 -11.276643,-6.165303 -15.914855,-3.766785 -9.423792,4.873231 -9.875689,18.231514 -0.808603,23.90244 5.040851,3.152764 11.267481,2.447954 15.466073,-1.75064 z M 37.69699,93.536864 c -2.690585,-3.420528 -3.366818,-8.37925 -1.315573,-9.646999 0.674602,-0.416929 1.22655,0.42089 1.22655,1.861792 0,1.440914 1.655842,4.27568 3.679649,6.299487 4.330103,4.330102 4.438137,4.717512 1.315574,4.717512 -1.300242,0 -3.508032,-1.45431 -4.9062,-3.231792 z m 34.7514,-3.788898 c -0.456853,-2.284278 -1.686543,-4.043224 -3.081707,-4.408074 -1.391963,-0.364003 -2.321515,-1.689708 -2.321515,-3.3109 l 0,-2.703819 2.412292,2.895627 c 1.688837,2.027217 2.4198,2.343851 2.437327,1.05579 0.0314,-2.305829 -5.847296,-14.666104 -5.979419,-12.572138 -0.186387,2.953913 -2.071447,1.493373 -3.627878,-2.810872 -1.518616,-4.199646 -1.756984,-4.332175 -7.170191,-3.986288 -6.083847,0.388731 -7.804194,-1.199566 -4.681545,-4.322203 1.713417,-1.713429 1.688886,-1.960322 -0.251884,-2.534507 -1.969091,-0.582549 -12.829186,-1.113081 -17.659021,-0.862657 -1.109218,0.05752 -3.80406,1.774168 -5.988557,3.81478 -3.848509,3.595055 -3.903741,3.785416 -1.77943,6.13275 2.672346,2.952919 7.578338,3.134485 10.608064,0.392606 2.869097,-2.596483 2.927271,-5.649833 0.09653,-5.068203 -1.235197,0.253799 -1.993451,1.333433 -1.786053,2.543032 0.444906,2.594864 -2.010377,2.797367 -2.989225,0.24656 -0.982626,-2.560693 1.745049,-5.503861 5.100878,-5.503861 2.509889,0 4.273962,2.046708 4.273962,4.958734 0,0.593159 -1.241881,2.239912 -2.759737,3.659472 l -2.759738,2.58103 3.452862,-1.306693 c 13.320713,-5.041046 27.752865,5.218848 27.803987,19.766001 0.01754,4.993518 0.379421,5.799973 2.779915,6.195363 3.865828,0.63674 4.746809,-0.46766 3.870035,-4.85153 z M 7.1863491,62.629042 c -1.148541,-3.22022 -2.662019,1.425779 -2.53074,7.768772 l 0.126923,6.13275 1.493668,-6.13275 c 0.821518,-3.373013 1.231088,-6.868962 0.910149,-7.768772 z M 37.066899,72.783258 c 2.244967,-1.798588 2.205828,-1.824125 -0.685482,-0.447138 -3.754507,1.788076 -4.450341,2.35462 -2.891948,2.35462 0.658093,0 2.267941,-0.858365 3.57743,-1.907482 z m 38.175449,-4.455247 c -0.391551,-0.978455 -0.682195,-0.687812 -0.741045,0.741045 -0.05323,1.29298 0.236639,2.017417 0.644209,1.609847 0.407571,-0.40757 0.45115,-1.46547 0.09677,-2.350892 z M 5.3449181,51.172992 c 0.07187,-4.765846 -0.204467,-5.809628 -1.109845,-4.191808 -0.99115,1.771089 -0.416573,10.537855 0.690659,10.537855 0.177887,0 0.366529,-2.855715 0.419186,-6.346047 z m 52.4008169,3.148444 c 1.067074,-0.409472 1.940132,-1.998357 1.940132,-3.530846 0,-3.180187 -5.287963,-5.998467 -10.002576,-5.330978 -3.885515,0.550107 -3.979542,5.156698 -0.116523,5.705346 3.030965,0.43047 3.574743,-0.926143 1.287878,-3.213009 -1.144777,-1.144776 -0.872212,-1.471861 1.226549,-1.471861 2.824463,0 3.896688,4.020853 1.471861,5.519476 -3.411956,2.108709 -0.07199,3.958371 4.192617,2.321872 z m 22.791483,-6.614797 c 0,-0.674603 -0.584512,-1.226551 -1.29893,-1.226551 -0.714416,0 -0.957824,0.551948 -0.540895,1.226551 0.416928,0.674603 1.001453,1.22655 1.29894,1.22655 0.297488,0 0.540885,-0.551947 0.540885,-1.22655 z M 29.251432,33.571729 C 28.713455,28.963606 24.909261,25.395706 19.017001,23.973006 17.224521,23.540218 14.972906,22.88486 14.013413,22.516662 12.85052,22.070418 11.615887,23.397717 10.310286,26.497724 8.4104221,31.008754 6.5572151,43.231167 7.6130171,44.286968 7.9002251,44.574165 12.999031,43.245885 18.943715,41.335226 L 29.75222,37.861294 29.251432,33.571729 z m -11.362637,0.737206 c -3.660062,-3.660062 -4.552229,-6.711278 -2.358753,-8.066922 0.674602,-0.416928 1.226549,0.02796 1.226549,0.988759 0,3.200412 4.963346,8.210366 8.13399,8.210366 1.720825,0 2.719421,0.534469 2.291686,1.226551 -1.42882,2.311887 -5.709235,1.225495 -9.293472,-2.358754 z m 2.54844,-3.158869 c -2.233522,-4.173374 -0.630213,-5.324208 2.380635,-1.708793 2.882565,3.461361 3.127741,4.773316 0.892009,4.773316 -0.897908,0 -2.370602,-1.379036 -3.272644,-3.064523 z m 60.099958,5.486984 c 0,-7.859844 -3.997756,-19.434514 -7.892592,-22.851315 C 67.766735,9.5065427 59.266792,8.3580827 42.145687,9.6649037 25.495098,10.935813 22.761878,11.673727 17.519763,16.313397 l -3.529765,3.124122 3.302977,1.255778 c 1.81663,0.690683 4.064173,1.255792 4.994548,1.255792 3.302436,0 8.261145,5.604671 9.035589,10.212623 l 0.765355,4.553885 11.295876,0.415789 c 10.580466,0.389454 11.220712,0.275361 10.109201,-1.801532 -1.909162,-3.567286 1.93731,-9.82247 8.847362,-14.387751 3.391019,-2.240355 6.526645,-3.711258 6.968056,-3.26867 0.757934,0.759958 -0.772997,2.191576 -9.590628,8.968509 -3.602979,2.769134 -4.464298,5.41192 -3.004029,9.217327 0.616856,1.607505 0.987262,1.580913 2.874284,-0.20633 1.191398,-1.128389 3.918239,-2.99748 6.059661,-4.153528 2.61563,-1.412029 4.137962,-3.324208 4.638346,-5.826112 0.869918,-4.349591 2.891297,-5.000301 2.891297,-0.930743 0,4.090924 -3.156784,7.928885 -8.954428,10.886625 l -5.112691,2.608296 6.113653,1.553401 c 6.048818,1.536928 10.809095,2.518904 13.779578,2.842529 1.045303,0.113947 1.533188,-1.794259 1.533188,-5.996357 z M 38.425646,34.623447 c -2.587052,-2.587064 1.756616,-22.486757 4.908372,-22.486757 2.302209,0 7.370608,8.413555 8.302075,13.781502 0.768262,4.42733 -0.757984,9.522946 -2.852306,9.522946 -0.551837,0 -0.740284,-2.73777 -0.418756,-6.083921 0.456093,-4.746699 0.02514,-6.967503 -1.960665,-10.103889 l -2.545262,-4.019957 -1.871532,4.479201 c -2.138601,5.118382 -2.667525,10.457296 -1.345574,13.582104 0.884416,2.090581 -0.577865,2.967258 -2.216352,1.328771 z m 5.315046,-5.928334 c 0,-2.361109 0.551948,-4.292925 1.22655,-4.292925 0.674603,0 1.22655,1.931816 1.22655,4.292925 0,2.36111 -0.551947,4.292926 -1.22655,4.292926 -0.674602,0 -1.22655,-1.931816 -1.22655,-4.292926 z m 17.137419,-0.544612 c 1.667642,-1.281438 3.488271,-2.047958 4.045837,-1.703359 1.683108,1.040212 -1.672733,4.089747 -4.468371,4.06053 -2.516931,-0.02637 -2.501942,-0.110021 0.422534,-2.357171 z m -56.1804069,7.00663 c -0.910174,-0.910186 -1.06981,-0.431292 -0.536285,1.608878 0.43372,1.658553 0.989703,2.214536 1.295912,1.295912 0.294961,-0.884883 -0.04685,-2.192042 -0.759627,-2.90479 z m 1.443196,-8.968019 c -0.399464,-1.040997 -0.989361,-1.629668 -1.310876,-1.308152 -0.321515,0.321516 -0.220755,1.173244 0.223906,1.892726 1.20944,1.956912 1.916337,1.576743 1.08697,-0.584574 z"
     id="path5813"
     inkscape:connector-curvature="0" />
</svg>
