<?xml version="1.0" encoding="UTF-8" standalone="no"?>
<!-- Created with Inkscape (http://www.inkscape.org/) -->

<svg
   xmlns:dc="http://purl.org/dc/elements/1.1/"
   xmlns:cc="http://creativecommons.org/ns#"
   xmlns:rdf="http://www.w3.org/1999/02/22-rdf-syntax-ns#"
   xmlns:svg="http://www.w3.org/2000/svg"
   xmlns="http://www.w3.org/2000/svg"
   xmlns:xlink="http://www.w3.org/1999/xlink"
   xmlns:sodipodi="http://sodipodi.sourceforge.net/DTD/sodipodi-0.dtd"
   xmlns:inkscape="http://www.inkscape.org/namespaces/inkscape"
   id="svg6999"
   version="1.1"
   inkscape:version="0.48.4 r9939"
   width="264.45221"
   height="485.94315"
   sodipodi:docname="Chalice.svg">
  <metadata
     id="metadata7005">
    <rdf:RDF>
      <cc:Work
         rdf:about="">
        <dc:format>image/svg+xml</dc:format>
        <dc:type
           rdf:resource="http://purl.org/dc/dcmitype/StillImage" />
        <dc:title />
      </cc:Work>
    </rdf:RDF>
  </metadata>
  <defs
     id="defs7003">
    <linearGradient
       inkscape:collect="always"
       id="linearGradient7545">
      <stop
         style="stop-color:#ffffff;stop-opacity:1;"
         offset="0"
         id="stop7547" />
      <stop
         style="stop-color:#ffffff;stop-opacity:0;"
         offset="1"
         id="stop7549" />
    </linearGradient>
    <radialGradient
       inkscape:collect="always"
       xlink:href="#linearGradient7545"
       id="radialGradient7551"
       cx="134.88348"
       cy="88.184319"
       fx="134.88348"
       fy="88.184319"
       r="16.095335"
       gradientTransform="matrix(1.1697853,0,0,0.93912362,-16.242057,13.699378)"
       gradientUnits="userSpaceOnUse" />
  </defs>
  <sodipodi:namedview
     pagecolor="#ffffff"
     bordercolor="#666666"
     borderopacity="1"
     objecttolerance="10"
     gridtolerance="10"
     guidetolerance="10"
     inkscape:pageopacity="0"
     inkscape:pageshadow="2"
     inkscape:window-width="1276"
     inkscape:window-height="753"
     id="namedview7001"
     showgrid="false"
     inkscape:zoom="0.7798"
     inkscape:cx="224.17399"
     inkscape:cy="241.16064"
     inkscape:window-x="-3"
     inkscape:window-y="22"
     inkscape:window-maximized="0"
     inkscape:current-layer="svg6999"
     fit-margin-top="0"
     fit-margin-left="0"
     fit-margin-right="0"
     fit-margin-bottom="0" />
  <path
     style="fill:#efcf00;fill-opacity:1;stroke:none"
     d="M 123.24493,2.9052687 C 82.425134,3.1983457 47.170219,11.838753 11.867488,20.407438 -7.4188887,27.221787 4.5338416,45.545281 10.806751,61.776205 12.225876,78.406493 11.47141,95.12595 9.0828956,111.86414 c -1.96873,13.79645 -3.100651,27.93636 -0.39762,43.78734 5.3314744,21.53489 14.3878624,39.25903 31.2199164,58.36866 13.817571,15.68724 35.958664,30.78248 64.530498,45.86766 7.34194,38.00975 8.48831,74.14437 -0.81441,112.15414 -42.727079,10.29744 -58.363962,25.6743 -69.478303,41.89913 -5.30591,6.16669 -5.71085,18.21685 0.552962,30.84645 4.947336,9.9752 13.081597,21.36711 34.451377,29.61559 77.415654,20.97794 109.148944,5.16915 143.199564,-9.54664 15.38527,-8.65812 30.43408,-17.6527 23.33623,-48.79393 -11.01119,-15.90038 -14.71986,-22.53143 -27.25409,-28.96701 -12.29483,-6.31267 -28.37384,-9.94458 -40.63312,-13.99286 -1.67645,-4.85428 -3.7209,-9.40337 -4.25835,-14.02496 -2.37323,-20.40713 0.58685,-37.30577 -1.24321,-52.50648 -2.61003,-21.67949 0.45351,-39.68599 8.15341,-58.63559 29.19627,-9.63902 57.51213,-29.62289 82.73752,-85.91973 6.76624,-39.20813 -4.00766,-56.07893 -3.63725,-83.239472 0.20129,-14.759287 3.35571,-29.551913 10.00168,-44.579408 5.46091,-6.187638 0.38458,-12.375276 -3.71258,-18.562912 C 206.44097,0.99366522 164.26093,0.78542352 123.24493,2.9052687 z"
     id="path7011"
     inkscape:connector-curvature="0"
     sodipodi:nodetypes="cccscscccscccscssccsccc" />
  <path
     style="fill:#008aef;fill-opacity:1;stroke:none"
     d="m 104.14172,117.12426 c -5.816657,-11.46762 -9.590297,-42.566384 26.62693,-45.003281 22.03407,3.568734 41.60516,9.530066 29.25215,46.503391 -5.25679,19.03474 -21.04717,17.35682 -29.99049,16.94457 -10.53629,-0.48567 -18.81414,-7.07585 -25.88859,-18.44468 z"
     id="path7521"
     inkscape:connector-curvature="0"
     sodipodi:nodetypes="cccsc" />
  <path
     style="fill:#000000"
     d="m 106.19558,484.76301 c -12.383697,-1.19633 -36.486873,-7.03378 -43.331977,-10.49438 -7.041745,-3.56003 -19.6647,-12.94579 -19.6647,-14.62164 0,-0.76594 -1.105775,-1.68178 -2.457275,-2.03521 -1.363665,-0.35661 -2.111661,-1.2018 -1.6807,-1.8991 0.4271,-0.69107 -0.319387,-2.79561 -1.658873,-4.67674 -4.868003,-6.83649 -8.49532,-18.79986 -8.017556,-26.44301 0.380753,-6.09129 1.183155,-8.16457 5.804486,-14.99795 9.904572,-14.6455 30.980641,-27.71328 56.943248,-35.30646 5.36003,-1.56763 10.154117,-3.10276 10.653517,-3.41141 0.4994,-0.30865 1.22955,-3.07697 1.62255,-6.15182 0.39299,-3.07486 1.82537,-12.69709 3.18306,-21.38275 2.39706,-15.33497 2.52549,-26.41055 0.54325,-46.84954 -0.27769,-2.86325 -0.78051,-8.98978 -1.11737,-13.61452 -1.40683,-19.31384 -1.89387,-21.35841 -5.79691,-24.3354 -2.001297,-1.52646 -7.264357,-4.4021 -11.695717,-6.39031 C 75.177172,245.7155 40.688871,219.43557 32.543129,208.73312 25.664803,199.69588 10.312131,170.87533 8.0740396,162.7989 c -2.965862,-10.70265 -3.137482,-33.96404 -0.36819,-49.90407 1.251658,-7.20457 1.969977,-18.31264 2.042421,-31.584204 L 9.8599856,60.839382 4.8883976,50.156809 C -6.9131575,24.798534 0.39465559,18.573275 51.972258,10.047791 81.977509,5.0880917 108.00781,1.995281 126.25362,1.2219897 c 34.155,-1.44755198 43.41538,-1.55600508 51.66721,-0.60509948 4.7172,0.54359108 11.47195,1.30255008 15.01055,1.68657658 28.40336,3.0824699 60.13808,10.5740462 65.75212,15.5220222 1.09934,0.968917 2.84703,4.315441 3.88375,7.436721 l 1.88495,5.675049 -4.08477,9.102135 c -9.07801,20.22856 -10.95597,39.519186 -6.49221,66.688646 5.92546,36.06635 -0.48815,68.50002 -18.19893,92.03213 -20.42947,27.14441 -35.29439,39.45601 -56.68276,46.94647 -9.20472,3.2236 -9.79955,4.22373 -13.75445,23.12639 -2.93296,14.01823 -2.97338,14.89431 -2.33137,50.52891 0.73362,40.71988 1.13288,43.41843 9.51887,64.33819 6.08879,15.18917 6.16559,15.43884 4.91096,15.96757 -1.43631,0.6053 -12.17678,-27.00172 -14.30728,-36.77505 -1.35273,-6.20545 -2.00181,-18.02914 -2.45387,-44.7005 l -0.61466,-36.26334 3.53688,-15.41825 c 4.07028,-17.74349 5.6837,-20.8767 11.21225,-21.77386 6.18258,-1.00329 20.44403,-8.12941 28.52844,-14.255 8.42884,-6.38657 29.13002,-29.96736 35.50198,-40.44043 2.35538,-3.87136 5.71909,-10.97769 7.47491,-15.79184 2.97294,-8.1513 3.06053,-8.89876 1.27397,-10.87288 -2.5437,-2.81075 -2.76311,-14.46908 -0.25421,-13.50633 0.91534,0.35125 2.75775,-0.45488 4.09425,-1.79138 2.04643,-2.04643 2.43002,-3.87609 2.43002,-11.59063 0,-8.64486 -0.16956,-9.25137 -3.01169,-10.77243 -2.63534,-1.41038 -2.78152,-1.78012 -1.16979,-2.95864 3.21958,-2.35422 2.05913,-2.67861 -7.22393,-2.01937 -9.99927,0.71011 -14.32987,3.17403 -14.32987,8.15307 0,1.4963 -0.5264,2.72055 -1.16978,2.72055 -2.51706,0 -1.05405,-6.14462 2.24959,-9.44826 2.93932,-2.93933 4.31074,-3.41937 9.76861,-3.41937 5.3227,0 13.71708,-1.76594 13.71708,-2.88567 0,-0.17448 -0.75067,-4.72902 -1.66814,-10.12119 -0.91746,-5.39217 -2.03357,-13.898967 -2.4802,-18.903987 -0.75584,-8.469772 -0.97757,-9.047506 -3.20157,-8.341634 -5.28884,1.678607 -10.19687,4.074152 -10.19687,4.976934 0,0.526017 -4.35639,5.411953 -9.68085,10.857647 -6.36058,6.50537 -10.87212,12.35358 -13.15419,17.0515 -3.60534,7.42203 -5.8332,8.83508 -4.03294,2.55796 1.64184,-5.72477 7.4698,-13.9326 15.1205,-21.295019 3.88758,-3.741103 7.06834,-7.472121 7.06834,-8.291135 0,-1.394115 9.19424,-6.492203 14.78846,-8.200008 1.37814,-0.420713 2.80487,-1.908926 3.17051,-3.307135 0.85599,-3.273352 0.33221,-3.709962 -2.58059,-2.151083 -3.54671,1.89814 -4.01663,-0.354597 -0.72002,-3.451604 1.603,-1.505935 2.88842,-2.071467 2.88842,-1.270796 0,3.062451 2.11397,-0.05802 2.87171,-4.238893 0.43856,-2.419794 1.10141,-5.662544 1.47301,-7.206111 0.46597,-1.935586 0.25968,-2.54943 -0.66477,-1.978096 -0.73721,0.455632 -1.34038,2.012745 -1.34038,3.460261 0,1.447515 -0.8136,3.65366 -1.80799,4.902547 -1.68096,2.11117 -1.75426,1.911604 -1.04338,-2.840497 0.60145,-4.02047 0.42559,-4.999604 -0.82403,-4.588225 -0.93726,0.308542 -1.73883,2.644101 -1.95493,5.696094 -0.51061,7.211142 -2.55817,8.820041 -2.55817,2.010101 l 0,-5.385598 -5.92288,2.250514 c -3.25759,1.237785 -6.45578,1.921162 -7.1071,1.518627 -0.65132,-0.402534 2.14558,-1.914856 6.21532,-3.360699 11.86682,-4.215895 18.79758,-8.440692 20.50377,-12.498525 2.03237,-4.833611 2.05795,-4.809689 -2.2837,-2.136519 -5.82012,3.58345 -20.84636,7.986756 -34.03193,9.972747 -10.43626,1.571899 -31.29657,3.933251 -66.86206,7.568675 -23.76082,2.428779 -73.794404,0.732953 -88.691983,-3.006091 -2.497117,-0.626736 -2.781843,-0.377185 -2.320889,2.03414 0.608826,3.184928 -3.516316,9.13021 -6.335031,9.13021 -1.333158,0 -0.987264,-0.790834 1.254688,-2.868607 3.81405,-3.53474 4.395363,-9.999032 0.899179,-9.999032 -6.699828,0 -48.8878324,-12.473608 -52.6446214,-15.565292 -1.432367,-1.178781 -1.57494,-0.90628 -0.914176,1.747203 0.430575,1.729095 2.286241,6.466725 4.123681,10.528068 4.8121344,10.63632 4.8375774,10.74635 4.9529534,21.418056 l 0.105164,9.727396 3.970871,0.744943 c 4.654728,0.873233 7.000697,4.2406 5.242756,7.525346 -1.377177,2.573267 -4.397142,3.999037 -5.317213,2.510327 -0.351637,-0.568963 0.421111,-1.37105 1.71721,-1.782416 4.379349,-1.389951 1.916015,-6.439213 -3.141424,-6.439213 -2.047592,0 -2.690506,0.659806 -2.690506,2.761197 0,1.518662 -0.334757,5.335082 -0.743901,8.480942 l -0.743902,5.71975 3.552708,-3.32495 c 4.635006,-4.33789 7.743231,-3.79159 8.004678,1.40688 0.108205,2.1518 0.913649,4.59201 1.789853,5.42269 3.463103,3.28316 16.059749,8.7879 23.846273,10.42081 11.489128,2.40938 13.364259,3.31201 18.842504,9.07017 3.633657,3.81933 5.609565,7.45344 7.965665,14.65057 3.682461,11.2487 7.900941,17.52301 15.121606,22.49097 5.78971,3.98342 10.398417,9.20308 9.4627,10.71712 -0.33212,0.53736 -2.39328,-0.97212 -4.58035,-3.35441 l -3.97649,-4.33144 -3.48027,2.04712 c -2.540712,1.49447 -6.036896,2.04713 -12.950491,2.04713 -5.208633,0 -9.470243,-0.44849 -9.470243,-0.99664 0,-0.54815 4.731992,-1.3032 10.515551,-1.6779 5.783548,-0.3747 11.028073,-0.99803 11.654473,-1.38517 0.62641,-0.38714 -0.98528,-2.623 -3.58155,-4.96857 -5.402069,-4.88045 -7.833245,-9.23982 -11.600609,-20.80125 -3.651509,-11.20583 -4.399539,-11.87102 -9.779815,-8.69658 -2.379659,1.40403 -4.582119,2.29734 -4.894335,1.98512 -0.962031,-0.96204 1.698423,-6.74107 3.103347,-6.74107 0.728133,0 1.016216,0.80178 0.640165,1.78174 -0.573417,1.49431 -0.274841,1.56293 1.850776,0.42533 2.528432,-1.35318 2.526069,-1.36396 -0.985696,-4.50171 -2.355387,-2.10454 -6.009024,-3.63877 -11.041768,-4.63663 -11.029099,-2.1868 -13.739409,-3.17331 -22.143884,-8.06014 -7.180575,-4.17517 -7.636148,-4.69808 -8.188497,-9.39865 l -0.584893,-4.9775 -4.784434,4.47462 c -4.604029,4.30589 -4.835612,4.87361 -6.1413734,15.05545 -1.887402,14.71717 -1.678162,34.63948 0.459621,43.76126 1.9355504,8.25889 16.5880004,36.59426 18.3576284,35.50057 0.57068,-0.35271 1.660592,0.15662 2.422005,1.13185 2.137912,2.73822 5.644273,2.92973 10.446499,0.57059 5.5799,-2.74119 14.325156,-4.01587 15.418192,-2.24731 1.305668,2.11261 3.00967,1.50197 3.00967,-1.07853 0,-3.06812 -3.778804,-10.47728 -6.683124,-13.10372 -1.239106,-1.12055 -4.885117,-2.53655 -8.102237,-3.14667 -3.21712,-0.61011 -6.602151,-1.2725 -7.522281,-1.47198 -1.069102,-0.23178 -1.539157,0.41858 -1.302275,1.80182 0.222505,1.29928 -0.128197,1.85619 -0.877339,1.3932 -0.686419,-0.42423 -1.248021,-2.06341 -1.248021,-3.64263 0,-1.57921 -0.469762,-3.78536 -1.043916,-4.90255 -0.574154,-1.11719 -1.57886,-3.39806 -2.232688,-5.06861 -0.905121,-2.31264 -2.679603,-3.47634 -7.437027,-4.87722 -5.565897,-1.63894 -5.82897,-1.85018 -2.40888,-1.93423 2.111649,-0.0519 5.796473,0.77654 8.188497,1.84098 2.392012,1.06444 4.729816,1.85875 5.195122,1.76512 0.465305,-0.0936 0.544898,1.33533 0.176871,3.17545 -0.509043,2.54525 -0.01743,3.95288 2.055185,5.88375 2.724219,2.53801 3.6848,2.87881 11.766192,4.17461 7.793262,1.24958 13.852937,11.05492 13.976665,22.61604 0.08329,7.7831 1.487441,11.59684 7.445087,20.22137 5.331203,7.71765 15.745065,18.60393 17.79661,18.60393 1.78568,0 1.9952,1.89681 0.32362,2.9299 -1.915217,1.18367 -14.196127,-11.42344 -20.469568,-21.01328 -5.519972,-8.43806 -5.990132,-8.84876 -9.336607,-8.15577 -1.938159,0.40136 -5.052408,1.46853 -6.920555,2.37149 -1.868147,0.90295 -4.460321,1.64174 -5.760386,1.64174 -2.252796,0 -2.230628,0.14523 0.472161,3.09349 5.715115,6.23414 35.210714,27.31108 44.044385,31.47319 5.00077,2.35618 10.695567,5.489 12.655107,6.9618 4.76777,3.5835 5.74812,8.63044 8.40716,43.28096 1.98417,25.85607 0.0925,45.06892 -8.63817,87.7339 -4.036097,19.72359 -7.322287,29.82952 -9.699817,29.82952 -1.57057,0 -1.58903,-1.51819 -0.0373,-3.0699 1.34288,-1.34288 7.47514,-24.81863 8.794327,-33.66682 l 0.85539,-5.7374 -5.131527,0.71513 c -5.45394,0.76004 -29.848137,10.05093 -34.884613,13.2863 -9.607447,6.17172 -19.394128,14.3558 -22.934799,19.17915 -8.119305,11.06072 -9.35144,18.3564 -5.068797,30.01336 4.386473,11.93956 11.342543,19.36743 24.136719,25.77378 5.564458,2.78626 8.095838,4.64881 7.342274,5.40238 -0.753564,0.75355 -3.278124,-0.002 -7.32254,-2.19132 -3.596868,-1.94709 -5.542841,-2.56839 -4.663548,-1.48892 2.778685,3.41121 18.26518,10.02189 29.49037,12.58847 12.742904,2.91359 38.440651,5.81363 51.831371,5.84926 26.97686,0.0718 70.93511,-12.82775 87.0076,-25.53232 10.20665,-8.06789 14.36872,-17.71898 14.39024,-33.36832 0.0105,-7.31957 -0.29257,-8.95575 -1.475,-7.97443 -1.13993,0.94606 -2.53271,-0.79544 -5.95867,-7.45063 -7.74039,-15.03634 -17.37215,-21.74243 -42.19161,-29.37579 -7.03433,-2.16346 -13.0441,-4.18796 -13.35505,-4.4989 -4.20564,-4.20565 27.5643,5.59485 37.84261,11.6738 8.49134,5.02209 16.77026,13.78289 20.45097,21.64133 1.49607,3.1942 3.16645,5.53178 3.71196,5.19465 3.48713,-2.15517 4.4451,17.25261 1.3574,27.49982 -2.56974,8.5282 -6.08668,13.18661 -14.79562,19.59777 -7.62713,5.61478 -10.20516,6.89722 -24.76214,12.31792 -30.14292,11.22457 -57.15568,14.59876 -90.83008,11.34563 z M 54.634408,209.25289 c 4.243315,-1.44446 5.979335,-2.60156 5.556481,-3.70349 -0.338244,-0.88146 -0.614992,-3.05108 -0.614992,-4.82138 0,-2.22297 -0.63331,-3.26957 -2.047124,-3.38311 -7.494159,-0.60183 -11.561795,-0.0753 -15.57341,2.01558 -3.205458,1.67079 -5.686467,2.16332 -8.282116,1.64418 -4.425286,-0.88504 -4.032846,0.26337 2.378139,6.95926 4.773215,4.98535 7.224851,5.1554 18.583022,1.28896 z M 252.15919,151.84632 c -0.22201,-0.222 -1.26859,-0.0717 -2.32575,0.33394 -1.23338,0.47329 -1.92211,2.08993 -1.92211,4.51171 0,5.80969 1.59552,6.08151 3.20309,0.54572 0.79663,-2.74325 1.26678,-5.16936 1.04477,-5.39137 z m -96.6609,-95.090881 c 26.45958,-2.561982 55.86765,-5.938988 66.20663,-7.602692 25.29718,-4.070724 41.5504,-13.017687 39.10947,-21.528729 -2.77667,-9.681714 -8.1846,-12.51593 -33.58984,-17.603932 C 198.80017,4.3274257 172.21428,1.7196913 149.60647,2.4067483 113.69172,3.4982057 89.150553,5.8856807 53.348265,11.771173 15.514962,17.990541 4.6357126,22.267388 2.7788886,31.650992 c -0.598263,3.023416 -0.200197,3.705997 3.198919,5.485276 11.3778934,5.95581 43.3281584,14.439303 69.3901914,18.424622 15.838114,2.4219 60.567691,3.088713 80.130291,1.194549 z M 13.558227,33.654987 c -1.412106,-2.284813 0.503511,-4.777603 5.460008,-7.105136 6.440546,-3.024423 13.414057,-4.907219 17.746849,-4.791512 2.3477,0.0627 0.724331,0.813493 -4.904208,2.268163 -10.471907,2.70642 -15.420719,5.214241 -16.60453,8.414388 -0.549741,1.486072 -1.22962,1.972164 -1.698119,1.214097 z M 249.08112,30.494004 c 0,-0.927101 0.50341,-1.996765 1.1187,-2.377038 2.38143,-1.471813 -0.45154,-4.184449 -6.13178,-5.8713 -3.26679,-0.970133 -9.76104,-1.763878 -14.43166,-1.763878 -7.61552,0 -11.28767,-1.241735 -9.36322,-3.166177 1.14278,-1.142775 25.52117,2.051412 28.86882,3.782544 4.14268,2.142261 5.09623,4.913776 2.86317,8.321858 -2.07465,3.166316 -2.92403,3.478298 -2.92403,1.073991 z M 150.81915,473.30247 c 18.73874,-3.35782 26.61412,-5.42591 40.44414,-10.6207 13.65168,-5.1278 19.3984,-8.1473 27.9956,-14.70969 6.45358,-4.92613 8.88536,-4.22095 2.91716,0.84593 -6.72706,5.71115 -16.20469,10.783 -29.82952,15.96295 -16.69695,6.34793 -30.21224,9.53001 -43.28206,10.19046 l -10.52807,0.532 12.28275,-2.20095 z M 81.046512,434.803 c 0.938074,-5.86643 3.104329,-10.87751 4.365346,-10.09815 0.5106,0.31556 0.170426,2.38777 -0.755939,4.60489 -0.926376,2.21711 -1.684315,5.06977 -1.684315,6.33923 0,1.26946 -0.60658,2.68299 -1.347944,3.14117 -0.977811,0.60434 -1.136294,-0.49048 -0.577148,-3.98714 z m -17.961259,2.7373 c 0,-0.30518 1.565863,-1.36459 3.479702,-2.35428 1.913828,-0.98968 4.261575,-3.24041 5.217196,-5.00162 1.583293,-2.91801 1.741658,-2.97784 1.784332,-0.67418 0.04995,2.69395 -5.99984,8.58493 -8.816309,8.58493 -0.915708,0 -1.664921,-0.24968 -1.664921,-0.55485 z M 158.899,436.35258 c -3.42741,-1.86326 -9.84923,-9.74562 -8.79705,-10.7978 0.37887,-0.37887 2.84559,1.76131 5.48158,4.75598 2.63601,2.99465 5.50653,5.44482 6.37896,5.44482 0.87242,0 1.91156,0.5264 2.30919,1.16979 1.02985,1.66633 -1.81099,1.36346 -5.37268,-0.57279 z m 25.454,-0.20708 c -0.42893,-0.42891 -0.77986,-1.587 -0.77986,-2.57352 0,-1.39508 0.31194,-1.48172 1.40374,-0.38993 0.77206,0.77206 2.38234,1.40374 3.5784,1.40374 1.19605,0 1.84931,0.52641 1.45168,1.16979 -0.81691,1.32179 -4.47016,1.57374 -5.65396,0.38992 z m -70.05251,-4.54453 c -0.35489,-0.35488 0.85914,-4.1713 2.69785,-8.48094 3.59899,-8.43549 4.0979,-11.96144 2.19545,-15.5162 -0.79261,-1.48101 -0.80684,-2.26267 -0.0412,-2.26267 2.1795,0 3.84751,4.94922 3.14618,9.33513 -0.63782,3.98863 -6.00882,17.56993 -6.94839,17.56993 -0.22257,0 -0.69504,-0.29036 -1.04993,-0.64525 z m 84.80627,-0.84684 c -4.79379,-1.82239 -8.51491,-4.99941 -8.51491,-7.26984 0,-2.60278 1.61525,-2.14718 2.93952,0.82912 1.48479,3.33707 10.04194,5.95534 16.36194,5.00633 3.4781,-0.52228 4.34017,-0.3633 3.35854,0.61935 -1.98123,1.98333 -9.87543,2.43819 -14.14509,0.81504 z M 48.755383,430.17389 c -3.012197,-0.64564 -2.498568,-2.55942 0.530357,-1.97609 3.207868,0.61777 6.358415,-1.409 12.688217,-8.1624 2.784206,-2.97053 8.697577,-7.19979 13.548922,-9.69021 4.734659,-2.43052 8.632641,-4.94554 8.662178,-5.58892 0.09019,-1.96384 8.144826,-10.47085 8.144826,-8.60225 0,0.95189 -1.59275,3.25667 -3.53946,5.12173 -1.9467,1.86507 -3.309559,3.99012 -3.028565,4.72237 0.281111,0.73258 -3.133071,3.09419 -7.59131,5.25095 -5.046641,2.4414 -10.892527,6.62875 -15.501095,11.10327 -7.374619,7.16013 -10.031634,8.65372 -13.91407,7.82155 z M 155.89476,402.70914 c -7.983,-12.21316 -14.43389,-26.90749 -14.43389,-32.87863 0,-3.53 1.72121,-0.96634 3.42155,5.09623 2.13677,7.61872 8.87382,20.85072 14.19699,27.88385 5.07776,6.70887 5.29316,7.20971 3.1008,7.20971 -0.82862,0 -3.65707,-3.29002 -6.28545,-7.31116 z m -33.30137,-56.39808 c -0.35501,-0.35501 -0.23445,-3.14216 0.26789,-6.19369 0.50234,-3.05152 0.94472,-12.36514 0.98307,-20.69694 0.0517,-11.2281 0.41059,-14.80787 1.38675,-13.83171 0.91126,0.91127 1.14086,6.65945 0.74526,18.65808 -0.52342,15.8749 -1.72638,23.72085 -3.38297,22.06426 z m 19.67021,-44.6732 c 1.21433,-5.74266 1.22705,-17.55202 0.0236,-21.87066 -0.69728,-2.50223 -0.55171,-3.20767 0.5849,-2.83429 2.47522,0.81314 3.83234,14.08063 2.19068,21.41637 -0.78165,3.49275 -1.94541,6.67444 -2.58614,7.07043 -0.75721,0.46799 -0.83178,-0.85569 -0.21302,-3.78185 z m 2.7871,-27.16228 c -1.25267,-2.34063 -1.32595,-3.68499 -1.37826,-25.28425 -0.0187,-7.71151 0.33742,-13.64955 0.79133,-13.19563 0.45392,0.45391 0.98357,8.80943 1.17702,18.56782 0.2079,10.48859 0.86012,18.25093 1.59525,18.98606 1.55028,1.55028 1.60801,3.1152 0.11487,3.1152 -0.62075,0 -1.65585,-0.98514 -2.30024,-2.1892 z m 4.59866,-11.92382 c 0,-2.44893 5.20866,-13.47754 9.00398,-19.06468 2.12501,-3.12827 3.86366,-6.38722 3.86366,-7.24213 0,-0.8549 0.47013,-1.84493 1.04474,-2.20005 1.98352,-1.22589 -0.82158,7.66323 -3.78357,11.98981 -1.62282,2.37044 -4.17088,7.33598 -5.66236,11.03454 -2.48163,6.15392 -4.46645,8.59027 -4.46645,5.48251 z M 103.37378,242.88043 C 88.657233,224.37449 72.443536,196.08326 72.443536,188.91032 c 0,-3.2903 6.802185,-9.33881 10.49632,-9.33335 3.270367,0.005 11.248277,4.37622 10.093757,5.53074 -0.40144,0.40145 -2.81581,-0.44243 -5.36525,-1.8753 -3.654071,-2.0537 -5.131451,-2.33971 -6.978823,-1.35102 -5.952546,3.1857 -5.84034,9.34424 0.405518,22.2567 5.640475,11.66091 9.203255,17.23982 20.253132,31.71414 10.8149,14.1665 11.19408,14.75096 10.00978,15.42831 -0.49303,0.28199 -4.08592,-3.49807 -7.98419,-8.40011 z m 18.90426,-6.04225 c -2.48904,-5.1316 -6.62566,-11.71606 -9.19249,-14.63214 -5.57257,-6.33076 -4.89524,-8.46353 0.90307,-2.84358 4.76045,4.61401 15.31498,24.30586 13.82576,25.79508 -0.56792,0.56792 -2.99376,-3.07734 -5.53634,-8.31936 z m 15.71948,2.50452 c -1.57729,-3.8079 -1.2693,-8.49143 0.59876,-9.10523 0.75509,-0.24809 1.05029,1.13243 0.76491,3.577 -0.25562,2.18956 0.13076,5.09376 0.85861,6.45378 0.72786,1.36002 0.84232,2.47275 0.25435,2.47275 -0.58796,0 -1.70245,-1.52922 -2.47663,-3.3983 z m 31.53819,-7.07357 c 0,-1.78696 10.45295,-8.47414 14.76717,-9.44715 4.42935,-0.99898 5.52157,0.55424 1.15959,1.64902 -1.5344,0.38512 -5.53532,2.54779 -8.89094,4.80596 -6.65172,4.47628 -7.03582,4.63962 -7.03582,2.99217 z m 23.92734,-9.50066 c -0.36834,-0.59598 -0.0602,-1.08361 0.68477,-1.08361 3.88204,0 9.88349,-4.65941 17.63537,-13.69177 8.23171,-9.59147 14.77649,-14.25697 17.57419,-12.5279 0.67618,0.41791 -0.7946,1.67943 -3.26841,2.80338 -2.64944,1.20376 -7.81712,5.8342 -12.57499,11.26769 -4.44246,5.07328 -9.06516,9.92367 -10.27268,10.77866 -3.21883,2.27909 -8.99095,3.72743 -9.77825,2.45355 z m -48.49283,-3.42318 c 0,-0.64338 0.42948,-1.16978 0.95438,-1.16978 2.00776,0 6.06433,-9.2547 6.06433,-13.83522 0,-2.60879 0.59499,-5.111 1.32219,-5.56043 0.94729,-0.58545 1.17723,1.18685 0.81098,6.25041 -0.39048,5.3982 -1.26946,8.06166 -3.7213,11.27619 -3.13174,4.10592 -5.43058,5.3923 -5.43058,3.03883 z m 14.03743,-1.99242 c 0,-0.61001 1.38744,-2.38528 3.08322,-3.94504 2.75127,-2.5306 2.94707,-2.57368 1.81854,-0.40015 -1.51026,2.9088 -4.90176,5.91519 -4.90176,4.34519 z m -68.674587,-3.14689 c 0.23424,-0.71198 3.69395,-1.558 7.68825,-1.88005 7.339997,-0.59182 9.460517,-1.94739 9.497867,-6.07168 0.009,-1.08795 0.54431,-2.30342 1.1877,-2.70106 1.53433,-0.94827 1.48551,1.66967 -0.11687,6.26631 -1.38223,3.96509 -2.4694,4.41727 -12.499857,5.19907 -4.182,0.32596 -6.04513,0.0629 -5.75705,-0.81259 z m 27.737247,-5.6812 c -3.15217,-6.09625 -5.44774,-8.78977 -9.75307,-11.44379 -1.82276,-1.12363 -2.80973,-2.35471 -2.19326,-2.73569 2.99365,-1.85018 13.801,9.3211 15.98088,16.51905 1.35183,4.46373 -1.31701,2.91611 -4.03455,-2.33957 z m 53.84217,1.75468 c 0.0205,-0.48254 0.81008,-1.89916 1.75468,-3.14805 0.94461,-1.24888 1.71748,-3.2887 1.71748,-4.53291 0,-1.88969 -0.5779,-2.14664 -3.50936,-1.56035 -1.93014,0.38603 -3.50935,0.25443 -3.50935,-0.29244 0,-0.54688 1.57921,-1.31016 3.50935,-1.69619 2.78741,-0.55749 3.50936,-1.30951 3.50936,-3.65558 0,-2.41934 -0.58199,-2.97089 -3.21691,-3.04872 l -3.21691,-0.095 3.11085,-1.38245 c 2.9399,-1.30646 3.02836,-1.57859 1.6099,-4.95211 -2.54889,-6.06205 -3.16847,-8.68266 -2.05277,-8.68266 1.45047,0 4.63186,7.50953 6.12022,14.44658 1.34619,6.27439 0.59733,12.81812 -1.92775,16.84518 -1.57914,2.51844 -3.97693,3.59759 -3.89879,1.75468 z m 14.8412,-2.26948 c -0.93643,-4.8986 1.34642,-18.27324 3.45517,-20.24292 1.69916,-1.58712 1.7996,-1.53006 1.01912,0.57892 -1.42327,3.84586 -2.89526,17.34994 -2.19956,20.1788 0.356,1.44761 0.12518,2.63202 -0.51294,2.63202 -0.63813,0 -1.43093,-1.41606 -1.76179,-3.14682 z m 5.58342,1.61579 c 3.1694,-1.89532 9.9526,-8.90176 9.9526,-10.28016 0,-0.6141 -1.55306,-0.3134 -3.45126,0.66819 -3.97864,2.05744 -4.73724,2.17863 -4.73724,0.75685 0,-0.56532 1.55307,-1.67117 3.45127,-2.45743 1.89819,-0.78626 5.35146,-3.27501 7.67394,-5.53058 2.32247,-2.25556 4.4729,-3.85079 4.77872,-3.54498 0.30583,0.30582 -1.36593,3.78246 -3.715,7.72584 -4.673,7.8446 -11.12966,14.2324 -14.27676,14.1245 -1.72989,-0.0593 -1.68527,-0.26084 0.32373,-1.46223 z m -66.08344,-13.55296 c 0,-9.43456 -3.98124,-20.15009 -9.95525,-26.79462 -5.94366,-6.61078 -7.15953,-10.66728 -1.6258,-5.42411 5.64317,5.34686 9.99228,12.27328 12.04353,19.18059 2.08419,7.01824 2.52694,18.76384 0.7073,18.76384 -0.64338,0 -1.16978,-2.57656 -1.16978,-5.7257 z m -31.584207,3.46749 c 0,-0.68812 0.78961,-1.25114 1.75468,-1.25114 2.0317,0 2.32096,-3.77484 0.54373,-7.09562 -0.79261,-1.481 -0.80682,-2.26266 -0.0412,-2.26266 1.86,0 3.769387,4.50475 3.371347,7.95389 -0.25911,2.24519 -1.125967,3.2672 -2.996577,3.53287 -1.44761,0.20559 -2.63202,-0.18921 -2.63202,-0.87734 z m 64.727827,-3.60036 c -2.85601,-5.26114 -1.33694,-6.50968 1.63014,-1.33984 l 1.91095,3.32964 2.67682,-3.03719 c 1.47224,-1.67047 2.69344,-2.4502 2.71377,-1.73274 0.0429,1.51554 -4.4335,7.47353 -5.60442,7.45927 -0.43583,-0.006 -1.9331,-2.11093 -3.32726,-4.67914 z m 31.89322,1.3635 c -0.32915,-0.53257 1.16009,-1.80691 3.30943,-2.83185 2.14933,-1.02495 5.81161,-3.53505 8.1384,-5.57798 4.65014,-4.08288 6.16764,-2.14537 1.5985,2.04091 -3.60738,3.30511 -12.31323,7.55509 -13.04633,6.36892 z M 34.019785,192.4317 c -3.506549,-3.20273 -3.776781,-3.28216 -3.016432,-0.88651 0.746241,2.3512 0.627976,2.45942 -1.110864,1.01631 -1.4625,-1.21377 -1.759825,-2.66477 -1.196631,-5.83975 1.058679,-5.96829 2.384467,-6.8341 3.266379,-2.13309 0.763707,4.07091 3.120017,6.89917 6.849971,8.22195 1.125918,0.39928 2.047124,1.2689 2.047124,1.93248 0,2.2322 -2.960259,1.2318 -6.839547,-2.31139 z m 181.137555,2.09511 c 0,-0.56604 1.84241,-3.90933 4.09425,-7.42951 2.25184,-3.52019 4.09425,-6.65788 4.09425,-6.97266 0,-1.9874 12.71709,-14.65729 17.02717,-16.96398 2.53246,-1.35533 3.19082,-1.30454 4.8712,0.37584 2.36272,2.36272 1.11534,4.10873 -1.42761,1.99827 -1.53067,-1.27035 -2.66912,-0.77794 -7.33943,3.17453 -5.02349,4.25136 -16.05419,18.85844 -15.02121,19.8914 0.82516,0.82518 14.18557,-5.61501 15.63486,-7.53656 1.28415,-1.7026 1.46223,-1.71522 1.46223,-0.10364 0,1.00925 -0.65801,2.37726 -1.46223,3.04 -2.91364,2.40104 -21.93348,11.52908 -21.93348,10.52635 z M 40.88522,191.27045 c -0.648225,-2.16411 -0.449128,-11.69949 0.244274,-11.69877 1.528383,0.001 2.127383,5.1769 1.015549,8.7743 -0.596543,1.93015 -1.163457,3.24616 -1.259823,2.92447 z m 123.92925,-3.98352 c 0.63045,-1.65818 0.86193,-3.75581 0.51443,-4.6614 -0.3475,-0.90557 -0.0367,-2.01427 0.69054,-2.46377 0.92351,-0.57077 1.21219,0.68923 0.95709,4.17745 -0.2009,2.7471 -1.02746,5.21249 -1.8368,5.47867 -1.11764,0.36756 -1.19585,-0.24112 -0.32526,-2.53095 z m 45.42899,-3.32764 c 2.02678,-4.00173 3.41642,-25.9781 1.70636,-26.9851 -0.4877,-0.2872 -2.48276,-0.8639 -4.43347,-1.28156 -3.41422,-0.73101 -3.74881,-0.41927 -8.95523,8.34338 -2.97467,5.00653 -6.0255,11.07678 -6.7796,13.48946 -0.75411,2.41268 -1.83151,4.38669 -2.39422,4.38669 -1.66704,0 1.7985,-9.85842 6.28696,-17.88456 2.29558,-4.10487 6.43221,-9.78776 9.19251,-12.62864 4.74299,-4.88145 5.00367,-5.50267 4.74444,-11.30662 -0.15085,-3.37776 0.17843,-6.14137 0.73174,-6.14137 1.30585,0 2.68524,8.61858 1.76373,11.01999 -1.12763,2.93856 1.15233,2.1512 4.80211,-1.65834 3.24832,-3.39052 15.43556,-8.94156 16.74851,-7.62862 1.01318,1.01319 -1.09154,2.39532 -6.8956,4.52821 -2.94663,1.08283 -6.804,3.47861 -8.57195,5.32395 l -3.21445,3.35515 5.6475,-0.56599 c 4.22715,-0.42365 6.29644,-1.33475 8.22776,-3.62266 1.41913,-1.68116 2.88734,-2.74956 3.26269,-2.37421 0.37536,0.37535 -1.70696,3.48174 -4.62737,6.90308 -4.25047,4.97956 -5.30983,7.09599 -5.30983,10.6082 0,2.41317 0.47212,4.67936 1.04914,5.03597 0.57702,0.35662 3.59723,-3.16553 6.71158,-7.82701 3.11434,-4.66148 7.90628,-10.95327 10.64872,-13.98177 4.81569,-5.318 5.94224,-8.77296 4.27622,-13.11453 -0.39052,-1.0177 -1.96973,-1.85035 -3.50935,-1.85035 -1.53962,0 -2.79931,-0.5264 -2.79931,-1.16979 0,-1.55683 3.95783,-1.47981 9.51501,0.18517 4.85428,1.45437 6.39807,4.04858 1.70891,2.87168 -2.35555,-0.59121 -2.71743,-0.33883 -2.22334,1.55058 0.99554,3.80691 -1.78612,9.93384 -6.67926,14.71185 -2.56349,2.50319 -4.699,5.10241 -4.7456,5.77607 -0.0465,0.67366 -2.58274,4.64612 -5.63591,8.8277 -5.37022,7.35502 -8.86854,9.90086 -9.31,6.77522 -1.5304,-10.8356 -1.51012,-11.61439 0.37742,-14.49513 1.08487,-1.65573 1.7565,-3.22641 1.49252,-3.49041 -0.45785,-0.45784 -11.42983,2.87991 -12.50403,3.8038 -0.28286,0.2433 0.70397,1.29567 2.19298,2.3386 2.5974,1.8193 2.68558,2.38413 2.17268,13.91651 -0.3826,8.60249 -1.09695,12.87849 -2.51238,15.03872 -2.83026,4.31953 -4.44607,3.73317 -2.15859,-0.78332 z m 3.08683,-34.91823 c -0.69793,-1.12926 -4.56406,0.49484 -5.75146,2.41609 -0.40448,0.65445 0.77841,0.60468 2.85792,-0.12024 1.95142,-0.68026 3.2535,-1.71339 2.89354,-2.29585 z m -69.10732,33.61308 c -2.77443,-2.38648 -3.22621,-3.66622 -3.28213,-9.29755 -0.0357,-3.59159 0.47985,-7.0759 1.14564,-7.74292 0.83439,-0.83594 1.19785,0.93087 1.16978,5.68648 -0.0318,5.3882 0.5434,7.6901 2.62632,10.5103 3.19382,4.32431 2.68663,4.58216 -1.65961,0.84369 z m 21.54792,-11.5683 c -1.74896,-1.44442 -3.72297,-4.10808 -4.3867,-5.91927 -1.69174,-4.61651 -1.54031,-11.33008 0.25547,-11.32563 0.97687,0.002 1.46621,1.98666 1.47424,5.97779 0.0105,5.52162 0.36554,6.27326 4.67914,9.92216 2.64023,2.2334 3.90509,3.95301 2.91246,3.95957 -0.96507,0.006 -3.18564,-1.17021 -4.93461,-2.61462 z m 11.95332,-3.06825 c 0,-4.59532 3.11643,-13.79336 4.27937,-12.63041 0.34811,0.34812 0.001,2.54644 -0.77041,4.88515 -0.77184,2.3387 -1.40335,6.0588 -1.40335,8.26687 0,2.20808 -0.47376,4.01468 -1.0528,4.01468 -0.57905,0 -1.05281,-2.04132 -1.05281,-4.53629 z m -123.980967,0.14778 c -4.523876,-2.26895 -6.991608,-6.20037 -7.017741,-11.18019 -0.02328,-4.44257 1.869784,-3.00242 2.838086,2.15904 0.808719,4.31087 6.011913,8.71697 10.304756,8.72614 1.125918,0.002 2.047124,0.53078 2.047124,1.17417 0,1.78618 -3.63843,1.39477 -8.172225,-0.87916 z m 132.884387,0.58671 c 0.46916,-0.80423 2.31571,-3.62356 4.10346,-6.26518 5.99201,-8.85395 9.45919,-18.10615 8.7209,-23.2719 -0.61916,-4.33224 -0.53876,-4.5108 1.08448,-2.40844 2.19769,2.84635 2.27893,9.28928 0.13953,11.06483 -0.88753,0.73659 -1.9039,2.77506 -2.25858,4.52993 -0.79889,3.9527 -9.65247,17.81299 -11.37845,17.81299 -0.69538,0 -0.88049,-0.658 -0.41134,-1.46223 z m -59.20419,-3.8018 c 0,-3.60748 -3.23434,-6.96867 -9.03887,-9.39338 -8.85875,-3.70052 -13.05444,-10.53186 -9.67769,-15.75701 0.84347,-1.30519 1.13855,-0.63096 1.15187,2.63202 0.0221,5.41 2.57131,8.15523 11.05826,11.90857 3.46959,1.53441 6.8793,3.85672 7.57716,5.16068 1.59263,2.97585 1.65647,8.37358 0.0991,8.37358 -0.64338,0 -1.16979,-1.31601 -1.16979,-2.92446 z m -91.243249,-6.38221 c -11.096361,-5.32358 -11.029321,-5.26882 -12.1159,-9.89564 -0.854189,-3.63725 -0.648856,-5.37235 0.997523,-8.42951 1.295795,-2.40615 1.823883,-5.09564 1.408422,-7.17296 -0.820429,-4.10217 0.07428,-5.64538 4.17728,-7.20536 3.963864,-1.50706 4.250777,0.21021 0.33333,1.99512 -2.472096,1.12636 -2.768999,1.86234 -2.190189,5.42915 0.452403,2.78782 0.05206,5.06869 -1.234474,7.0321 -3.579134,5.46244 -1.341499,12.29532 4.585827,14.0034 1.914342,0.55165 2.675662,-0.0742 3.789379,-3.11527 1.305504,-3.56469 3.391535,-5.95875 12.823994,-14.71763 2.142415,-1.98944 3.801803,-4.69287 3.801803,-6.19384 0,-2.05916 0.315842,-2.34766 1.392021,-1.27147 1.07619,1.07618 0.947771,2.32365 -0.565966,5.49799 -1.076893,2.25827 -2.413325,4.10596 -2.969827,4.10596 -1.509737,0 -11.799602,10.72848 -12.546299,13.08109 -0.355708,1.12076 -0.08972,3.07848 0.590999,4.35051 1.396466,2.60931 0.34594,3.76518 -2.277923,2.50636 z m 107.308859,-4.26228 c -3.22209,-3.22209 4.17668,-12.86853 13.48982,-17.58786 8.47668,-4.29545 9.58569,-2.64472 1.21912,1.81462 -8.52018,4.5412 -11.52139,7.51729 -12.85892,12.7513 -0.54538,2.13419 -1.37789,3.49407 -1.85002,3.02194 z m 41.35401,-2.22315 c -0.0353,-1.93015 0.44596,-4.29896 1.06965,-5.26404 0.89373,-1.38294 1.12034,-1.13512 1.06965,1.16979 -0.0353,1.60845 -0.51671,3.97727 -1.06965,5.26403 -0.86316,2.00869 -1.01444,1.84326 -1.06965,-1.16978 z M 57.480789,148.49615 c 2.646838,-2.75776 15.538059,-2.72705 14.56309,0.0347 -0.235373,0.66672 -1.426156,0.97967 -2.646171,0.69544 -3.483551,-0.81158 -7.805697,-0.65808 -10.991596,0.39037 -2.779679,0.91476 -2.825499,0.85927 -0.925323,-1.12051 z M 51.3874,146.9388 c 0,-1.54014 2.313028,-4.09471 6.524724,-7.20607 6.774928,-5.00492 10.060832,-5.62999 4.665712,-0.88752 -1.695218,1.49015 -4.906571,4.45765 -7.136334,6.59445 -3.590387,3.44071 -4.054102,3.61218 -4.054102,1.49914 z m 15.207209,-2.33461 c 0,-0.57455 0.832654,-1.36416 1.850343,-1.75468 2.861623,-1.09811 3.239733,-0.86003 1.659013,1.04463 -1.613894,1.94463 -3.509356,2.32813 -3.509356,0.71005 z M 18.65132,137.75277 c -0.0094,-4.02114 -0.429837,-7.31116 -0.933313,-7.31116 -0.503464,0 -1.031306,-2.66398 -1.172967,-5.91993 -0.161793,-3.71847 0.178615,-5.65036 0.915392,-5.19501 0.645137,0.39872 1.172979,2.76843 1.172979,5.26601 0,2.49759 0.526403,4.8664 1.169785,5.26404 1.494963,0.92393 1.494963,11.13924 0,13.45253 -0.799092,1.23651 -1.139254,-0.40437 -1.151876,-5.55648 z m 107.60234,-0.15452 c -17.71486,-5.81229 -27.467167,-18.83337 -27.482277,-36.69372 -0.006,-6.46871 -0.42657,-9.065837 -1.46991,-9.065837 -0.80423,0 -1.46223,-0.526403 -1.46223,-1.169785 0,-0.643382 -1.05281,-1.169785 -2.33957,-1.169785 -4.20069,0 -2.55227,-4.036192 3.54858,-8.688756 3.238477,-2.469698 6.233537,-4.144971 6.655687,-3.722819 0.42214,0.422141 -0.41391,1.595049 -1.8579,2.606458 -4.721687,3.307205 -8.943367,7.255359 -8.346367,7.805603 0.32169,0.296494 1.72379,0.888721 3.11579,1.316043 2.09177,0.642131 2.9974,-0.05311 5.219477,-4.006737 4.83118,-8.595922 19.65592,-14.867398 31.87599,-13.484852 21.80229,2.466644 32.15066,14.199486 30.78879,34.907867 -0.99774,15.17118 -8.58364,27.02128 -19.20508,30.00065 -6.44194,1.80702 -15.67708,2.46939 -19.04098,1.36567 z m 17.54678,-3.74129 c 10.30841,-2.36285 17.22262,-13.12069 18.39487,-28.62067 0.58536,-7.7398 0.32555,-9.18146 -2.89504,-16.063701 -3.18479,-6.805729 -4.17183,-7.870842 -9.88366,-10.665377 -9.49946,-4.647651 -19.26087,-5.896245 -27.56544,-3.525944 -7.78547,2.222148 -15.1126,6.014135 -15.97787,8.26899 -0.33129,0.863349 -0.10832,1.569723 0.49547,1.569723 0.60379,0 -0.20233,1.915875 -1.7914,4.257493 -6.239457,9.194356 -3.58692,24.877786 6.00286,35.492526 8.28728,9.17304 19.74414,12.37588 33.22021,9.28696 z m -19.11992,-14.47994 c -8.29827,-2.95874 -11.9346,-8.29275 -12.70849,-18.64168 -0.21366,-2.85729 0.20448,-4.74722 1.12154,-5.06907 0.99221,-0.34823 1.46223,0.82659 1.46223,3.65487 0,10.36265 6.82166,18.25283 15.78097,18.25283 3.77123,0 4.18606,0.24796 2.9356,1.75468 -1.75648,2.11643 -2.77556,2.12216 -8.59185,0.0483 z m 53.7949,14.83211 c 2.02161,-1.75045 7.09812,-6.01554 11.28112,-9.478 4.18299,-3.46246 9.63538,-9.43715 12.11643,-13.2771 5.15712,-7.98177 7.03058,-6.37139 2.19233,1.88446 -3.03816,5.18424 -11.39148,13.04675 -21.58845,20.32003 -6.45532,4.60443 -9.10424,4.96892 -4.00143,0.55061 z M 44.023321,132.80571 c 0.332979,-1.27328 -0.516028,-4.21573 -1.886677,-6.5388 -1.509842,-2.55901 -1.90689,-4.03966 -1.00736,-3.75667 3.623421,1.13991 6.54551,12.61051 3.212487,12.61051 -0.508119,0 -0.651418,-1.04176 -0.31845,-2.31504 z m 33.007704,-0.85048 c -2.536656,-6.67191 -5.757274,-19.76183 -5.757274,-23.39991 0,-4.3216 3.233509,-13.20727 4.806156,-13.20727 1.366555,0 1.343569,0.16416 -0.711908,5.08361 -0.965072,2.30974 -1.741845,5.92725 -1.726158,8.0389 0.03778,5.08178 5.351183,23.56932 6.924708,24.09382 1.884699,0.62824 1.471098,2.55637 -0.54836,2.55637 -0.981006,0 -2.32523,-1.42448 -2.987164,-3.16552 z m 8.794469,-0.87226 c -2.572042,-3.92544 -5.151652,-14.85204 -5.175189,-21.9209 -0.0303,-9.11095 1.946488,-7.37431 2.621992,2.30341 0.346772,4.96813 1.724498,11.8968 3.061606,15.39705 2.72218,7.12603 2.51613,8.83647 -0.508409,4.22044 z m 88.428396,-5.01313 c 7.74722,-7.17274 12.73586,-14.55785 12.80291,-18.95327 0.0142,-0.9262 -2.71432,-4.21622 -6.06322,-7.31116 -3.34889,-3.09493 -5.51144,-5.62715 -4.80565,-5.62715 2.19309,0 13.23413,10.63411 13.23413,12.74636 0,5.01281 -6.36441,14.53245 -13.83602,20.69539 -10.7297,8.85035 -11.54321,7.90371 -1.33215,-1.55017 z M 24.482338,126.4024 c 0,-0.29142 0.603796,-1.85503 1.341767,-3.47471 1.035599,-2.2729 1.002915,-3.35315 -0.14324,-4.73419 -1.224497,-1.47544 -1.165902,-1.78931 0.33409,-1.78931 2.773409,0 3.609759,4.38281 1.461881,7.66087 -1.731937,2.64327 -2.994498,3.62876 -2.994498,2.33734 z m 22.225921,-3.17447 c 0,-1.39399 0.148949,-2.31519 0.331014,-2.04713 0.182054,0.26808 1.036114,1.40863 1.897907,2.53454 1.341252,1.75232 1.293583,2.04713 -0.331015,2.04713 -1.16672,0 -1.897906,-0.97646 -1.897906,-2.53454 z m 8.749491,-14.29966 c -1.644016,-2.50907 -1.840353,-4.77397 -1.200317,-13.84646 0.420866,-5.965698 0.868484,-13.637782 0.994704,-17.049063 0.213392,-5.766937 0.582272,-6.495421 5.254605,-10.377084 2.763794,-2.296102 5.395811,-3.798831 5.848927,-3.339398 0.453105,0.459445 -1.108044,2.497117 -3.469209,4.528157 -3.708336,3.189853 -4.386426,4.569088 -4.978676,10.126633 -1.880208,17.643505 -2.042048,24.765955 -0.639651,28.151645 1.87705,4.5316 0.727186,5.67841 -1.810383,1.80557 z m 167.88809,-0.10071 c 0,-3.32775 6.02102,-5.85091 15.73959,-6.59579 5.17594,-0.39671 9.63013,-0.52863 9.89821,-0.29315 1.31777,1.15756 -1.73789,1.98686 -8.36804,2.27106 -8.33518,0.35728 -13.50871,1.98899 -14.50042,4.57335 -0.87175,2.27174 -2.76934,2.30224 -2.76934,0.0446 z m -26.1119,-2.36654 c 0.45597,-1.93014 0.84005,-4.43056 0.8535,-5.55648 0.0134,-1.12592 0.43806,-2.04712 0.94358,-2.04712 1.61213,0 0.98609,6.48575 -0.85351,8.84225 -1.66813,2.13685 -1.72375,2.06383 -0.94357,-1.23865 z M 35.213948,105.26793 c -3.426652,-0.83559 -6.536152,-1.82514 -6.910015,-2.19899 -1.347616,-1.34762 -2.187101,-10.823395 -1.258561,-14.206122 0.97621,-3.556346 0.137403,-4.789335 -5.641254,-8.292339 -3.496921,-2.119815 -1.168721,-2.957849 2.765232,-0.995335 5.649852,2.818516 6.613931,4.585172 5.308579,9.727864 -1.474362,5.808532 -0.593022,11.668812 1.857795,12.353052 1.056,0.29482 3.762415,0.87784 6.014252,1.29559 2.251837,0.41776 4.993182,1.01187 6.091868,1.32024 1.865948,0.52372 1.876125,0.20408 0.154423,-4.84883 -1.786788,-5.24394 -1.705956,-11.210046 0.288996,-21.332538 0.640188,-3.24833 0.148972,-4.470135 -3.357717,-8.351624 -4.014797,-4.443897 -6.327228,-9.064257 -5.133837,-10.257648 0.328312,-0.3283 1.22914,0.632573 2.001854,2.135279 0.772713,1.502718 3.03909,4.458344 5.036405,6.568076 3.902346,4.121972 4.102285,5.765673 2.473055,20.330202 -0.585033,5.229803 -0.250053,7.727933 1.595774,11.900733 1.284928,2.9048 2.032725,5.58495 1.661774,5.9559 -1.016415,1.01641 -5.995068,0.59213 -12.948623,-1.10351 z m 23.192164,-4.82819 c 0,-0.41648 1.005571,-3.7065 2.234606,-7.31116 1.229035,-3.604658 2.797963,-8.396332 3.486522,-10.648169 1.139148,-3.725486 1.194351,-3.514772 0.612815,2.33957 -0.594099,5.980891 -4.201834,16.376999 -5.683273,16.376999 -0.357873,0 -0.65067,-0.34076 -0.65067,-0.75724 z m 35.389511,-2.91669 c -0.7326,-1.94086 -2.41489,-3.81202 -3.73843,-4.15814 -2.80695,-0.734026 -3.24256,-2.696002 -0.5986,-2.696002 2.30629,0 7.55044,5.196202 7.55044,7.481402 0,3.2717 -1.88025,2.90467 -3.21341,-0.62726 z m 129.550217,1.33436 c 0,-0.64339 1.71081,-1.17273 3.8018,-1.17632 6.04081,-0.0105 11.93769,-2.08857 14.91309,-5.255726 1.51198,-1.609437 3.57851,-2.904647 4.59227,-2.878268 3.55112,0.09241 -7.80441,8.955514 -12.45968,9.724894 -6.51256,1.07634 -10.84748,0.91067 -10.84748,-0.41458 z m -37.72558,-4.17845 c -1.7693,-0.95986 -3.21691,-2.255818 -3.21691,-2.879899 0,-0.62408 1.97283,-0.07732 4.38408,1.215019 5.20691,2.79075 5.90348,1.73972 2.85308,-4.304913 -3.20066,-6.342389 -4.12015,-9.738112 -2.63685,-9.738112 0.68675,0 1.24862,0.827471 1.24862,1.83882 0,1.01135 1.36983,4.176263 3.04407,7.033148 4.57803,7.811817 1.95212,10.974307 -5.67609,6.835937 z M 79.274685,88.448971 c 0.270641,-3.903597 -0.215826,-6.666524 -1.525798,-8.665793 -1.210155,-1.846927 -1.484352,-3.206229 -0.739597,-3.666516 2.920463,-1.804944 6.1202,10.90103 4.082481,16.211247 -1.373235,3.578591 -2.210263,1.791811 -1.817086,-3.878938 z M 211.60683,90.74581 c 1.73582,-3.243429 1.49422,-7.340403 -0.61006,-10.344681 -2.08379,-2.97501 -0.43257,-3.516538 2.32234,-0.761624 2.16668,2.166688 2.44933,9.950393 0.43449,11.965231 -2.17957,2.179564 -3.49192,1.654494 -2.14677,-0.858926 z m -14.58116,-6.387484 c -3.86029,-3.468496 -6.61847,-6.71913 -6.12929,-7.223647 0.48919,-0.504517 1.542,-0.121389 2.33957,0.851393 0.79758,0.97277 3.95056,3.761375 7.00663,6.196891 5.11775,4.078562 6.85733,6.48908 4.67914,6.48384 -0.48254,-0.0012 -4.03576,-2.839982 -7.89605,-6.308477 z M 84.141389,85.660028 c 0,-1.560038 -0.338196,-6.072063 -0.75154,-10.026733 -0.656846,-6.284403 -0.500773,-7.190308 1.238826,-7.190308 1.122351,0 1.651208,0.548746 1.212693,1.258279 -0.427708,0.692057 -0.400651,4.24528 0.06013,7.896051 l 0.837785,6.637772 7.50413,-8.06133 c 4.12726,-4.433732 7.818677,-7.746775 8.203137,-7.362301 0.78878,0.788786 -12.222227,16.008523 -13.685337,16.008523 -0.51885,0 -1.77058,0.827202 -2.781597,1.838236 -1.671131,1.67112 -1.838235,1.58038 -1.838235,-0.998189 z M 219.83648,81.826477 c 0,-3.257501 0.45527,-5.051694 1.16979,-4.6101 0.64338,0.397633 1.16978,1.744711 1.16978,2.993504 0,1.248793 0.46657,2.27053 1.03683,2.27053 1.68564,0 12.54054,-10.770974 15.3257,-15.207209 2.56192,-4.08068 2.56789,-4.082844 1.79913,-0.65446 -1.03971,4.636631 -6.51201,11.329745 -13.39311,16.380937 -3.11679,2.287924 -5.99116,4.159873 -6.38751,4.159873 -0.39633,0 -0.72061,-2.399885 -0.72061,-5.333075 z m -18.20054,-1.187566 c -2.21243,-1.794251 -2.20271,-1.826959 0.37892,-1.274691 1.98707,0.425065 3.07229,-0.211392 4.33986,-2.545196 l 1.69023,-3.112003 0.0468,2.982952 c 0.0432,2.751043 -1.77972,5.790438 -3.47289,5.790438 -0.39174,0 -1.73407,-0.828676 -2.98295,-1.8415 z M 42.233023,63.396007 c -3.035874,-3.231544 -3.235182,-5.790344 -0.620068,-7.960694 1.709805,-1.419008 1.830959,-1.305001 1.090965,1.026545 -2.502545,7.884821 4.063495,9.861876 9.768093,2.941215 2.302992,-2.793927 3.594529,-3.678998 3.594529,-2.463287 0,2.709012 -6.366698,9.16363 -9.038815,9.16363 -1.238171,0 -3.395793,-1.218331 -4.794704,-2.707409 z M 19.558302,52.633958 C 10.977505,50.769788 9.2751276,50.087815 9.2751276,48.514524 c 0,-0.812942 0.9673314,-0.963002 2.6320174,-0.408302 1.44761,0.482373 5.790438,1.465823 9.650729,2.185452 3.860292,0.719616 6.926592,1.794883 6.814,2.389462 -0.297512,1.571056 -1.391752,1.565196 -8.813572,-0.04714 z"
     id="path7009"
     inkscape:connector-curvature="0" />
  <path
     style="fill:#000000;fill-opacity:0.45789478;stroke:none"
     d="M 61.456968,9.2696927 C 19.568775,16.053772 4.1055226,24.368782 1.5604986,30.496999 c -4.105068,9.884674 40.0906774,17.580587 50.0846474,21.732564 24.333726,4.546219 51.333404,6.942723 78.494574,5.834059 11.62948,-0.537505 48.07375,-0.346876 78.99228,-6.338061 37.03911,-7.177194 49.51368,-8.86427 52.82163,-22.828185 C 264.9035,16.445011 238.53077,13.869574 201.01882,4.6340407 190.68918,2.0908548 141.94958,2.5436658 127.22269,2.3748997 z"
     id="path7523"
     inkscape:connector-curvature="0"
     sodipodi:nodetypes="csccssscc" />
  <path
     style="fill:url(#radialGradient7551);fill-opacity:1;stroke:none"
     d="m 123.24493,81.399845 -0.53037,29.170285 37.65618,1.06073 -6.36442,-28.639908 z"
     id="path7535"
     inkscape:connector-curvature="0" />
</svg>
