<?xml version="1.0" encoding="UTF-8" standalone="no"?>
<!-- Created with Inkscape (http://www.inkscape.org/) -->

<svg
   xmlns:dc="http://purl.org/dc/elements/1.1/"
   xmlns:cc="http://creativecommons.org/ns#"
   xmlns:rdf="http://www.w3.org/1999/02/22-rdf-syntax-ns#"
   xmlns:svg="http://www.w3.org/2000/svg"
   xmlns="http://www.w3.org/2000/svg"
   xmlns:xlink="http://www.w3.org/1999/xlink"
   xmlns:sodipodi="http://sodipodi.sourceforge.net/DTD/sodipodi-0.dtd"
   xmlns:inkscape="http://www.inkscape.org/namespaces/inkscape"
   id="svg6999"
   version="1.1"
   inkscape:version="0.48.4 r9939"
   width="244"
   height="428"
   sodipodi:docname="Chalice.png">
  <metadata
     id="metadata7005">
    <rdf:RDF>
      <cc:Work
         rdf:about="">
        <dc:format>image/svg+xml</dc:format>
        <dc:type
           rdf:resource="http://purl.org/dc/dcmitype/StillImage" />
        <dc:title></dc:title>
      </cc:Work>
    </rdf:RDF>
  </metadata>
  <defs
     id="defs7003">
    <linearGradient
       inkscape:collect="always"
       id="linearGradient7545">
      <stop
         style="stop-color:#ffffff;stop-opacity:1;"
         offset="0"
         id="stop7547" />
      <stop
         style="stop-color:#ffffff;stop-opacity:0;"
         offset="1"
         id="stop7549" />
    </linearGradient>
    <filter
       inkscape:collect="always"
       id="filter7531"
       x="-0.20864321"
       width="1.4172864"
       y="-0.15967593"
       height="1.3193519">
      <feGaussianBlur
         inkscape:collect="always"
         stdDeviation="2.9561473"
         id="feGaussianBlur7533" />
    </filter>
    <radialGradient
       inkscape:collect="always"
       xlink:href="#linearGradient7545"
       id="radialGradient7551"
       cx="134.88348"
       cy="88.18432"
       fx="134.88348"
       fy="88.18432"
       r="16.095335"
       gradientTransform="matrix(1,0,0,0.80281706,0,17.388444)"
       gradientUnits="userSpaceOnUse" />
  </defs>
  <sodipodi:namedview
     pagecolor="#ffffff"
     bordercolor="#666666"
     borderopacity="1"
     objecttolerance="10"
     gridtolerance="10"
     guidetolerance="10"
     inkscape:pageopacity="0"
     inkscape:pageshadow="2"
     inkscape:window-width="1276"
     inkscape:window-height="753"
     id="namedview7001"
     showgrid="false"
     inkscape:zoom="0.7798"
     inkscape:cx="289.35384"
     inkscape:cy="299.36617"
     inkscape:window-x="0"
     inkscape:window-y="22"
     inkscape:window-maximized="0"
     inkscape:current-layer="svg6999" />
  <path
     style="fill:#efcf00;fill-opacity:1;stroke:none"
     d="M 119.24153,8.1610165 C 84.346408,8.4115563 54.208472,15.797875 24.029661,23.122881 c -16.4871077,5.825297 -6.269224,21.489275 -0.90678,35.364407 1.21315,14.216533 0.568189,28.509294 -1.47365,42.818062 -1.682984,11.794 -2.650616,23.88161 -0.339909,37.43194 4.557652,18.40927 12.299575,33.56089 26.688586,49.8969 11.812057,13.41036 30.739541,26.31464 55.164392,39.21032 6.27632,32.49293 7.2563,63.38289 -0.6962,95.87583 -36.525576,8.80285 -49.892886,21.94788 -59.394066,35.8178 -4.535798,5.27164 -4.881964,15.57281 0.472704,26.36932 4.229268,8.52738 11.182904,18.26584 29.451025,25.31712 66.179367,17.93315 93.306817,4.41889 122.415257,-8.16102 13.15221,-7.40146 26.0168,-15.09055 19.94915,-41.71187 -9.413,-13.59256 -12.58338,-19.26116 -23.29837,-24.76267 -10.51033,-5.39643 -24.25559,-8.5012 -34.73553,-11.9619 -1.43313,-4.14972 -3.18084,-8.03855 -3.64029,-11.98935 -2.02877,-17.44519 0.50168,-31.89112 -1.06276,-44.88557 -2.23121,-18.53288 0.38768,-33.92587 6.97,-50.12508 24.95866,-8.23999 49.16469,-25.32336 70.72881,-73.44915 5.78417,-33.51737 -3.42598,-47.939503 -3.10933,-71.157896 0.17207,-12.617097 2.86865,-25.262683 8.55001,-38.109057 4.6683,-5.289548 0.32876,-10.579097 -3.17373,-15.868645 C 190.3623,6.5268681 154.30437,6.3488508 119.24153,8.1610165 z"
     id="path7011"
     inkscape:connector-curvature="0"
     sodipodi:nodetypes="cccscscccscccscssccsccc" />
  <path
     style="fill:#008aef;fill-opacity:1;stroke:none"
     d="m 102.911,105.802 c -4.972414,-9.80318 -8.198344,-36.388199 22.76224,-38.471402 18.83599,3.050759 35.56649,8.146852 25.00642,39.753782 -4.4938,16.272 -17.99233,14.83761 -25.6376,14.4852 -9.00703,-0.41518 -16.08341,-6.04885 -22.13106,-15.76758 z"
     id="path7521"
     inkscape:connector-curvature="0"
     sodipodi:nodetypes="cccsc" />
  <path
     style="fill:#000000"
     d="m 104.66676,420.08082 c -10.586298,-1.02269 -31.191088,-6.01288 -37.042678,-8.9712 -6.01969,-3.04332 -16.81052,-11.06681 -16.81052,-12.49942 0,-0.65477 -0.94528,-1.43769 -2.10062,-1.73982 -1.16574,-0.30485 -1.80517,-1.02737 -1.43676,-1.62346 0.36511,-0.59077 -0.27303,-2.38985 -1.4181,-3.99795 -4.16145,-5.84422 -7.26229,-16.0712 -6.85387,-22.60501 0.32549,-5.20718 1.01143,-6.97954 4.96201,-12.82111 8.467,-12.51982 26.48404,-23.69091 48.67837,-30.182 4.58207,-1.3401 8.680328,-2.65242 9.107248,-2.91627 0.42692,-0.26385 1.05109,-2.63037 1.38705,-5.25893 0.33595,-2.62857 1.56043,-10.85421 2.72106,-18.27921 2.04915,-13.10922 2.15894,-22.57726 0.4644,-40.04969 -0.23738,-2.44767 -0.66722,-7.68498 -0.95519,-11.63848 -1.20264,-16.51058 -1.61899,-18.2584 -4.95553,-20.8033 -1.710828,-1.30491 -6.209998,-3.76317 -9.998178,-5.46281 -12.26502,-5.50295 -41.74761,-27.96855 -48.71106,-37.11762 -5.87999,-7.72555 -19.00434,-32.36302 -20.91759,-39.26722 -2.53539,-9.14924 -2.6821,-29.03442 -0.31475,-42.66088 1.06999,-6.158879 1.68405,-15.654697 1.74598,-27 l 0.0955,-17.5 -4.25,-9.132077 c -10.0886505,-21.67772 -3.84151,-26.99943 40.25,-34.287506 25.65022,-4.239837 47.902428,-6.8837496 63.499998,-7.5448036 29.19766,-1.237451 37.11397,-1.330163 44.16811,-0.517274 4.03254,0.464693 9.80689,1.113495 12.83189,1.441783 24.28083,2.6350726 51.4095,9.0393046 56.2087,13.2691196 0.93978,0.828286 2.43381,3.689088 3.32006,6.357338 l 1.61136,4.851362 -3.4919,7.78103 c -7.7604,17.292541 -9.36579,33.783277 -5.54991,57.009302 5.06542,30.831596 -0.4173,58.557766 -15.5575,78.674376 -17.46429,23.20461 -30.17168,33.72927 -48.45569,40.13255 -7.86873,2.75572 -8.37722,3.61069 -11.7581,19.76977 -2.50726,11.98359 -2.54182,12.73252 -1.99299,43.19503 0.62714,34.8097 0.96845,37.11658 8.13728,55 5.20505,12.98458 5.2707,13.19801 4.19817,13.65 -1.22784,0.51744 -10.40941,-23.08263 -12.23069,-31.43744 -1.15639,-5.30477 -1.71126,-15.41235 -2.09771,-38.21256 l -0.52544,-31 3.02353,-13.18041 c 3.47951,-15.16816 4.85875,-17.84661 9.58487,-18.61355 5.28523,-0.85767 17.47674,-6.94949 24.38776,-12.186 7.20546,-5.45961 24.90202,-25.61783 30.34914,-34.57081 2.01352,-3.30946 4.88901,-9.38436 6.38999,-13.49978 2.54144,-6.9682 2.61631,-7.60717 1.08906,-9.29476 -2.1745,-2.40279 -2.36207,-12.36901 -0.21731,-11.54599 0.78248,0.30027 2.35748,-0.38886 3.5,-1.53138 1.7494,-1.7494 2.07732,-3.3135 2.07732,-9.90834 0,-7.39012 -0.14495,-7.9086 -2.57457,-9.20889 -2.25284,-1.20568 -2.3778,-1.52175 -1,-2.52922 2.75228,-2.01252 1.76026,-2.28983 -6.17543,-1.72627 -8.54796,0.60704 -12.25,2.71334 -12.25,6.96971 0,1.27913 -0.45,2.32569 -1,2.32569 -2.15173,0 -0.90106,-5.25278 1.92308,-8.07692 2.5127,-2.51271 3.68507,-2.92308 8.35077,-2.92308 4.55015,0 11.72615,-1.50962 11.72615,-2.46683 0,-0.14916 -0.64171,-4.04264 -1.42602,-8.65218 -0.7843,-4.609544 -1.73841,-11.881643 -2.12022,-16.160219 -0.64613,-7.240455 -0.83568,-7.734328 -2.73688,-7.130912 -4.52121,1.434975 -8.71688,3.482816 -8.71688,4.254568 0,0.449673 -3.72409,4.626455 -8.27575,9.281738 -5.43739,5.56117 -9.29411,10.560567 -11.24496,14.576615 -3.08205,6.34478 -4.98655,7.55274 -3.44759,2.18669 1.40354,-4.893858 6.38562,-11.910392 12.92588,-18.204215 3.32333,-3.198109 6.04242,-6.387591 6.04242,-7.087736 0,-1.191772 7.85977,-5.549908 12.64203,-7.009838 1.17812,-0.359656 2.39777,-1.631864 2.71034,-2.82713 0.73175,-2.798248 0.28399,-3.171488 -2.20604,-1.838867 -3.03193,1.62264 -3.43365,-0.303133 -0.61551,-2.950638 1.37033,-1.28736 2.46918,-1.77081 2.46918,-1.086343 0,2.61796 1.80715,-0.04955 2.45491,-3.623658 0.3749,-2.068575 0.94155,-4.840664 1.25921,-6.160198 0.39834,-1.654648 0.22199,-2.179394 -0.56828,-1.690983 -0.63021,0.389494 -1.14584,1.720604 -1.14584,2.958023 0,1.23742 -0.69551,3.123362 -1.54557,4.190983 -1.43698,1.804749 -1.49964,1.634145 -0.89194,-2.428224 0.51415,-3.436931 0.36382,-4.273948 -0.70443,-3.92228 -0.80122,0.263762 -1.48645,2.260335 -1.67119,4.869355 -0.4365,6.164503 -2.18687,7.539876 -2.18687,1.718353 l 0,-4.603926 -5.06322,1.923871 c -2.78477,1.05813 -5.51877,1.642325 -6.07556,1.298212 -0.55678,-0.344113 1.83417,-1.636929 5.31322,-2.872925 10.14444,-3.603991 16.06925,-7.215584 17.5278,-10.684453 1.73739,-4.132054 1.75926,-4.1116 -1.95224,-1.826425 -4.97537,3.063343 -17.82067,6.827542 -29.09245,8.525283 -8.92152,1.343747 -26.75412,3.362368 -57.15755,6.470139 -20.31212,2.076259 -63.083718,0.626574 -75.819028,-2.569784 -2.13468,-0.535771 -2.37808,-0.32244 -1.98403,1.7389 0.52046,2.722659 -3.00595,7.805034 -5.41555,7.805034 -1.13966,0 -0.84397,-0.676052 1.07258,-2.452251 3.26047,-3.021701 3.75741,-8.547749 0.76867,-8.547749 -5.7274,0 -41.79214,-10.663162 -45.00366,-13.306108 -1.22447,-1.007691 -1.34635,-0.774746 -0.78149,1.493612 0.36808,1.478127 1.95441,5.528127 3.52516,8.999999 4.11369,9.092541 4.13544,9.186599 4.23407,18.309383 l 0.0899,8.315544 3.39453,0.636818 c 3.97913,0.746488 5.9846,3.625109 4.48181,6.433103 -1.17729,2.199777 -3.75893,3.418605 -4.54546,2.145971 -0.3006,-0.486381 0.35999,-1.172052 1.46797,-1.523713 3.74372,-1.188207 1.63792,-5.504609 -2.68547,-5.504609 -1.7504,0 -2.3,0.564039 -2.3,2.360429 0,1.298236 -0.28617,4.560736 -0.63593,7.25 l -0.63593,4.889571 3.03706,-2.842365 c 3.96227,-3.708271 6.61936,-3.241265 6.84286,1.202688 0.0925,1.839484 0.78104,3.925516 1.53007,4.635627 2.96046,2.80664 13.7288,7.51241 20.38517,8.90831 9.82157,2.05968 11.42454,2.8313 16.10766,7.75371 3.10626,3.26498 4.79538,6.37163 6.80951,12.52415 3.14798,9.61604 6.75418,14.97968 12.92682,19.22658 4.94938,3.40526 8.889168,7.86732 8.08926,9.16161 -0.28391,0.45937 -2.04591,-0.83102 -3.91554,-2.86754 l -3.39934,-3.70277 -2.97513,1.75 c -2.17195,1.27756 -5.16069,1.75 -11.07083,1.75 -4.45264,0 -8.09571,-0.38339 -8.09571,-0.85198 0,-0.46859 4.04518,-1.11405 8.9893,-1.43437 4.94411,-0.32031 9.42743,-0.85317 9.96292,-1.18412 0.53549,-0.33095 -0.84228,-2.24229 -3.06172,-4.24742 -4.618,-4.17209 -6.69631,-7.89873 -9.91687,-17.78211 -3.12152,-9.57939 -3.76098,-10.14803 -8.36035,-7.43434 -2.03427,1.20025 -3.91706,1.9639 -4.18396,1.697 -0.8224,-0.82241 1.45191,-5.76266 2.65292,-5.76266 0.62245,0 0.86872,0.68541 0.54725,1.52314 -0.49019,1.27742 -0.23495,1.33608 1.58215,0.36359 2.16145,-1.15677 2.15943,-1.16599 -0.84263,-3.84832 -2.01352,-1.79908 -5.13686,-3.11063 -9.43914,-3.96366 -9.42831,-1.8694 -11.74524,-2.71273 -18.92987,-6.89027 -6.13837,-3.569185 -6.52782,-4.016194 -7,-8.034508 l -0.5,-4.25505 -4.09001,3.825161 c -3.93579,3.68092 -4.13376,4.166239 -5.25,12.870267 -1.61346,12.58108 -1.43459,29.61182 0.39291,37.40965 1.65462,7.06017 14.18038,31.28288 15.69316,30.34793 0.48785,-0.30151 1.41957,0.13389 2.07047,0.96757 1.82761,2.34079 4.82505,2.50451 8.93027,0.48778 4.77002,-2.34333 12.24597,-3.433 13.18036,-1.92113 1.11616,1.80598 2.57284,1.28397 2.57284,-0.92199 0,-2.62281 -3.23034,-8.95659 -5.71312,-11.20182 -1.05926,-0.95791 -4.17608,-2.16839 -6.92626,-2.68995 -2.75018,-0.52156 -5.6439,-1.08781 -6.43048,-1.25834 -0.91393,-0.19814 -1.31576,0.35783 -1.11326,1.5403 0.19021,1.1107 -0.10959,1.58678 -0.75,1.19099 -0.58679,-0.36266 -1.06688,-1.76392 -1.06688,-3.11393 0,-1.35 -0.40158,-3.23594 -0.8924,-4.19098 -0.49082,-0.95504 -1.3497,-2.90486 -1.90863,-4.33294 -0.77375,-1.97698 -2.29068,-2.97178 -6.3576,-4.16933 -4.75805,-1.40106 -4.98294,-1.58164 -2.05925,-1.65349 1.80516,-0.0444 4.95516,0.66383 7,1.57377 2.04483,0.90995 4.04332,1.58897 4.44109,1.50893 0.39777,-0.08 0.46581,1.14152 0.1512,2.71456 -0.43516,2.17582 -0.0149,3.37915 1.75689,5.02977 2.32882,2.16963 3.14998,2.46097 10.05842,3.56869 6.66213,1.06822 11.84229,9.45039 11.94806,19.3335 0.0712,6.65344 1.27155,9.91365 6.36449,17.28639 4.55742,6.5975 13.45979,15.90372 15.21357,15.90372 1.5265,0 1.70561,1.6215 0.27665,2.50464 -1.63724,1.01187 -12.13567,-9.76541 -17.49857,-17.96336 -4.71879,-7.21334 -5.12071,-7.56443 -7.98147,-6.97202 -1.65685,0.3431 -4.31909,1.25538 -5.91609,2.02728 -1.597,0.7719 -3.81294,1.40346 -4.92431,1.40346 -1.92582,0 -1.90687,0.12415 0.40363,2.64449 4.88561,5.3293 30.10015,23.34709 37.65168,26.9051 4.27495,2.0142 9.14319,4.69231 10.818318,5.95135 4.07577,3.06338 4.91383,7.3778 7.18693,36.99906 1.69618,22.10326 0.0791,38.52751 -7.38441,75 -3.450288,16.86086 -6.259518,25.5 -8.291968,25.5 -1.34261,0 -1.35839,-1.29784 -0.0319,-2.62433 1.14797,-1.14797 6.39018,-21.2164 7.517898,-28.78034 l 0.73124,-4.90466 -4.386728,0.61133 c -4.66234,0.64973 -25.51591,8.59212 -29.82138,11.3579 -8.213,5.27594 -16.57922,12.27216 -19.60599,16.39544 -6.94085,9.45534 -7.99415,15.69211 -4.3331,25.65715 3.74981,10.20663 9.69626,16.5564 20.63346,22.03292 4.75682,2.38185 6.92079,3.97407 6.2766,4.61826 -0.64419,0.64418 -2.80233,-0.002 -6.25973,-1.87326 -3.07481,-1.66449 -4.73834,-2.19561 -3.98667,-1.27282 2.37538,2.9161 15.61413,8.56729 25.21007,10.76135 10.89337,2.49071 32.861288,4.96983 44.308448,5.00029 23.06138,0.0614 60.63943,-10.9659 74.37912,-21.8265 8.72523,-6.8969 12.28321,-15.14721 12.30161,-28.52517 0.009,-6.25719 -0.25011,-7.65589 -1.26092,-6.817 -0.97448,0.80875 -2.16511,-0.67999 -5.09381,-6.36923 -6.61694,-12.85393 -14.85072,-18.58668 -36.06783,-25.11212 -6.01335,-1.84945 -11.15085,-3.58011 -11.41666,-3.84592 -3.59523,-3.59523 23.56355,4.7828 32.35004,9.97944 7.25889,4.29317 14.33619,11.78241 17.48267,18.50026 1.27893,2.73058 2.70687,4.72888 3.1732,4.44068 2.981,-1.84236 3.79993,14.74853 1.16038,23.50844 -2.19676,7.29039 -5.20324,11.27267 -12.64815,16.7533 -6.52011,4.79984 -8.72396,5.89614 -21.1681,10.53007 -25.76791,9.59541 -48.85998,12.47986 -77.6468,9.6989 z M 60.589292,184.55887 c 3.62743,-1.23481 5.11148,-2.22396 4.75,-3.16596 -0.28915,-0.75352 -0.52573,-2.60824 -0.52573,-4.12159 0,-1.90032 -0.54139,-2.79502 -1.75,-2.89208 -6.40644,-0.51448 -9.88369,-0.0644 -13.31305,1.72304 -2.74021,1.42828 -4.86112,1.84933 -7.08003,1.40554 -3.78299,-0.75659 -3.44751,0.22514 2.03297,5.94917 4.08042,4.26177 6.17622,4.40714 15.88584,1.10188 z M 229.44488,135.48442 c -0.18979,-0.18978 -1.08447,-0.0613 -1.98819,0.28547 -1.05436,0.4046 -1.64313,1.7866 -1.64313,3.85687 0,4.96646 1.36394,5.19883 2.73819,0.46652 0.681,-2.34509 1.08291,-4.41907 0.89313,-4.60886 z M 146.81356,54.195246 c 22.61918,-2.190122 47.75889,-5.076985 56.59725,-6.499219 21.62549,-3.479885 35.51968,-11.12827 33.43303,-18.403993 -2.37366,-8.276492 -6.99667,-10.699343 -28.71453,-15.048861 -24.2988,-4.8664136 -47.02596,-7.0956556 -66.35242,-6.5083196 -30.702,0.933041 -51.681208,2.9739916 -82.287068,8.0052496 -32.34209,5.316675 -41.6423,8.972771 -43.22962,16.994413 -0.51143,2.58459 -0.17114,3.168102 2.73462,4.689134 9.72648,5.091372 37.03941,12.343553 59.31874,15.750426 13.53933,2.070384 51.776758,2.640412 68.499998,1.02117 z M 25.475002,34.447653 c -1.20715,-1.953195 0.43043,-4.084172 4.66753,-6.073881 5.50575,-2.585453 11.46711,-4.194976 15.17103,-4.096063 2.00695,0.0536 0.6192,0.695421 -4.1924,1.938957 -8.95199,2.313601 -13.18252,4.457431 -14.19451,7.193105 -0.46995,1.270379 -1.05115,1.685917 -1.45165,1.037882 z M 226.81356,31.745458 c 0,-0.792541 0.43035,-1.706952 0.95633,-2.032025 2.03579,-1.258191 -0.386,-3.577111 -5.2418,-5.019129 -2.79264,-0.829325 -8.3443,-1.507864 -12.33701,-1.507864 -6.51019,0 -9.64935,-1.061507 -8.00422,-2.706631 0.97691,-0.97691 21.81697,1.753665 24.67873,3.233537 3.5414,1.831328 4.35655,4.200579 2.4476,7.114 -1.77353,2.706757 -2.49963,2.973452 -2.49963,0.918112 z m -84,378.538232 c 16.01896,-2.87046 22.75129,-4.63838 34.57399,-9.07919 11.67024,-4.38354 16.58287,-6.96478 23.93225,-12.57469 5.51689,-4.21114 7.59572,-3.60831 2.49376,0.72315 -5.75068,4.88222 -13.85271,9.21793 -25.5,13.64605 -14.27351,5.42658 -25.82716,8.1468 -37,8.71139 l -9,0.45479 10.5,-1.8815 z M 83.167882,377.37212 c 0.80192,-5.01496 2.65376,-9.29872 3.73175,-8.63248 0.43649,0.26976 0.14569,2.0412 -0.64622,3.93652 -0.79192,1.89532 -1.43985,4.33394 -1.43985,5.41914 0,1.08521 -0.51854,2.29358 -1.1523,2.68526 -0.83589,0.51662 -0.97137,-0.41929 -0.49338,-3.40844 z m -15.35432,2.34 c 0,-0.26088 1.33859,-1.16653 2.97465,-2.01257 1.63605,-0.84604 3.64304,-2.77009 4.45996,-4.27568 1.35349,-2.49448 1.48887,-2.54563 1.52535,-0.57632 0.0427,2.30294 -5.12901,7.33889 -7.53669,7.33889 -0.7828,0 -1.42327,-0.21344 -1.42327,-0.47432 z m 81.907118,-1.01533 c -2.92994,-1.59282 -8.41969,-8.33112 -7.52022,-9.23058 0.32388,-0.32388 2.43257,1.50567 4.68597,4.06568 2.25341,2.56 4.7073,4.65455 5.4531,4.65455 0.7458,0 1.63411,0.45 1.97403,1 0.88038,1.42448 -1.54814,1.16557 -4.59288,-0.48965 z m 21.75955,-0.17702 c -0.36667,-0.36666 -0.66667,-1.35666 -0.66667,-2.2 0,-1.19259 0.26667,-1.26666 1.2,-0.33333 0.66,0.66 2.03656,1.2 3.05902,1.2 1.02246,0 1.5809,0.45 1.24098,1 -0.69834,1.12994 -3.82135,1.34532 -4.83333,0.33333 z m -59.88493,-3.88493 c -0.30338,-0.30337 0.73445,-3.56587 2.30628,-7.25 3.07663,-7.21114 3.50312,-10.22533 1.8768,-13.26414 -0.67757,-1.26605 -0.68973,-1.93426 -0.0352,-1.93426 1.86316,0 3.28907,4.23088 2.68953,7.98021 -0.54524,3.40971 -5.13668,15.01979 -5.93988,15.01979 -0.19027,0 -0.59416,-0.24822 -0.89754,-0.5516 z m 72.4973,-0.72393 c -4.09801,-1.55788 -7.27904,-4.27378 -7.27904,-6.21468 0,-2.225 1.38081,-1.83553 2.51287,0.70878 1.26929,2.85272 8.58443,5.09097 13.98713,4.2797 2.97328,-0.44647 3.71023,-0.31057 2.87108,0.52946 -1.69367,1.69546 -8.44209,2.0843 -12.09204,0.69674 z M 55.563562,373.41489 c -2.575,-0.55193 -2.13592,-2.18794 0.45338,-1.68928 2.74227,0.52811 5.43554,-1.20449 10.84662,-6.97769 2.3801,-2.53938 7.43519,-6.15479 11.5824,-8.28375 4.04746,-2.07775 7.37968,-4.22773 7.40493,-4.77773 0.0771,-1.6788 6.96267,-8.95109 6.96267,-7.3537 0,0.81373 -1.36158,2.78399 -3.02574,4.37835 -1.66415,1.59437 -2.8292,3.41099 -2.58899,4.03696 0.24031,0.62625 -2.67833,2.64509 -6.48949,4.48881 -4.31416,2.08705 -9.31156,5.66664 -13.25123,9.49172 -6.30425,6.12089 -8.57562,7.3977 -11.89455,6.68631 z m 91.588928,-23.47845 c -6.82433,-10.44052 -12.33893,-23.00208 -12.33893,-28.10655 0,-3.01765 1.47139,-0.82609 2.92494,4.35655 1.82664,6.51292 7.58586,17.8244 12.13641,23.83672 4.34076,5.73513 4.5249,6.16328 2.65074,6.16328 -0.70835,0 -3.12627,-2.8125 -5.37316,-6.25 z M 118.68455,301.7241 c -0.30348,-0.30348 -0.20042,-2.6861 0.22901,-5.29472 0.42943,-2.60862 0.8076,-10.57044 0.84039,-17.69294 0.0442,-9.59843 0.35099,-12.65862 1.18547,-11.82414 0.779,0.779 0.97527,5.69288 0.63709,15.95 -0.44745,13.57078 -1.47581,20.27795 -2.89196,18.8618 z m 16.81523,-38.18923 c 1.03808,-4.90915 1.04896,-15.00448 0.0202,-18.6963 -0.59608,-2.13905 -0.47164,-2.7421 0.5,-2.42291 2.11596,0.69512 3.27611,12.03693 1.87272,18.30795 -0.6682,2.9858 -1.66305,5.70569 -2.21078,6.04421 -0.64731,0.40006 -0.71105,-0.7315 -0.1821,-3.23295 z m 2.38258,-23.21988 c -1.07086,-2.00091 -1.1335,-3.15014 -1.17822,-21.61444 -0.016,-6.59224 0.28845,-11.66842 0.67648,-11.28038 0.38803,0.38803 0.84081,7.53081 1.00618,15.87284 0.17773,8.96625 0.73528,15.60195 1.36371,16.23038 1.32527,1.32527 1.37462,2.66305 0.0982,2.66305 -0.53065,0 -1.41552,-0.84215 -1.96638,-1.87145 z m 3.9312,-10.19317 c 0,-2.09349 4.45266,-11.52138 7.69712,-16.29759 1.81658,-2.67422 3.30288,-5.46016 3.30288,-6.19099 0,-0.73082 0.40189,-1.57715 0.8931,-1.88073 1.69563,-1.04796 -0.70233,6.55097 -3.23441,10.24958 -1.38728,2.02639 -3.56551,6.27122 -4.84051,9.43296 -2.12144,5.26073 -3.81818,7.34346 -3.81818,4.68677 z M 102.25452,213.30563 C 89.673962,197.48569 75.813562,173.30071 75.813562,167.16887 c 0,-2.81274 5.8149,-7.98336 8.97286,-7.97869 2.7957,0.004 9.61568,3.74105 8.62873,4.728 -0.34318,0.34318 -2.40712,-0.37822 -4.58653,-1.60312 -3.12371,-1.75562 -4.38666,-2.00012 -5.9659,-1.15493 -5.08858,2.72332 -4.99266,7.988 0.34666,19.02631 4.8218,9.96842 7.86747,14.7376 17.313548,27.11108 9.2452,12.11034 9.56935,12.60997 8.55694,13.18901 -0.42147,0.24106 -3.49288,-2.99035 -6.82535,-7.1809 z m 16.16045,-5.16526 c -2.12777,-4.38679 -5.66399,-10.01557 -7.85827,-12.5084 -4.76375,-5.4119 -4.18473,-7.23511 0.772,-2.43086 4.06951,3.94433 13.09213,20.77806 11.81906,22.05113 -0.48549,0.48549 -2.55924,-2.63069 -4.73279,-7.11187 z m 13.43792,2.14101 c -1.34836,-3.25522 -1.08507,-7.25897 0.51186,-7.78368 0.64549,-0.21208 0.89785,0.96807 0.65389,3.05783 -0.21852,1.87176 0.11178,4.35444 0.73399,5.51706 0.62221,1.16262 0.72006,2.11385 0.21743,2.11385 -0.50262,0 -1.45535,-1.30727 -2.11717,-2.90506 z m 26.96067,-6.0469 c 0,-1.5276 8.93578,-7.24418 12.62383,-8.07597 3.78646,-0.85398 4.72015,0.4738 0.99128,1.40968 -1.31169,0.32922 -4.73191,2.178 -7.60049,4.10841 -5.68627,3.82658 -6.01462,3.96622 -6.01462,2.55788 z m 20.45447,-8.12171 c -0.31488,-0.50948 -0.0515,-0.92633 0.58538,-0.92633 3.31859,0 8.44898,-3.98314 15.07573,-11.70452 7.03694,-8.19934 12.6318,-12.18768 15.02343,-10.70957 0.57804,0.35725 -0.67927,1.43567 -2.79402,2.39649 -2.2649,1.02904 -6.68253,4.98741 -10.74983,9.63227 -3.79767,4.33693 -7.74942,8.48333 -8.78168,9.21422 -2.75164,1.9483 -7.68598,3.18642 -8.35901,2.09744 z m -41.45447,-2.92633 c 0,-0.55 0.36714,-1 0.81586,-1 1.71635,0 5.18414,-7.91145 5.18414,-11.82714 0,-2.23015 0.50863,-4.36918 1.13028,-4.75338 0.8098,-0.50048 1.00637,1.01459 0.69327,5.34321 -0.3338,4.61469 -1.0852,6.89157 -3.18118,9.63954 -2.67719,3.50998 -4.64237,4.60965 -4.64237,2.59777 z m 12,-1.70324 c 0,-0.52147 1.18607,-2.03907 2.63572,-3.37245 2.35194,-2.1633 2.51932,-2.20013 1.55459,-0.34207 -1.29106,2.48661 -4.19031,5.05665 -4.19031,3.71452 z m -58.706998,-2.69014 c 0.20024,-0.60864 3.1578,-1.33187 6.57236,-1.60718 6.274658,-0.50592 8.087398,-1.66474 8.119328,-5.19042 0.008,-0.93004 0.46531,-1.9691 1.01531,-2.30902 1.31164,-0.81064 1.2699,1.42733 -0.0999,5.3568 -1.18161,3.38959 -2.11099,3.77614 -10.685608,4.44447 -3.57501,0.27865 -5.16772,0.0538 -4.92146,-0.69465 z m 23.711398,-4.85662 c -2.69465,-5.21143 -4.65704,-7.514 -8.33748,-9.78281 -1.5582,-0.96055 -2.40192,-2.01294 -1.87493,-2.33863 2.55915,-1.58164 11.79789,7.96822 13.66138,14.12144 1.15562,3.81585 -1.12586,2.49286 -3.44897,-2 z m 46.0274,1.5 c 0.0175,-0.4125 0.6925,-1.62351 1.5,-2.69113 0.80751,-1.06762 1.4682,-2.81137 1.4682,-3.875 0,-1.61541 -0.49402,-1.83507 -3,-1.33387 -1.65,0.33 -3,0.2175 -3,-0.25 0,-0.4675 1.35,-1.12 3,-1.45 2.38284,-0.47657 3,-1.11944 3,-3.125 0,-2.06819 -0.49752,-2.53969 -2.75,-2.60622 l -2.75,-0.0812 2.65933,-1.18179 c 2.5132,-1.11684 2.58882,-1.34947 1.37624,-4.23335 -2.17894,-5.18219 -2.70859,-7.42244 -1.75483,-7.42244 1.23995,0 3.95958,6.41958 5.23192,12.34977 1.1508,5.36371 0.51063,10.95767 -1.64795,14.40023 -1.34994,2.15291 -3.39971,3.07543 -3.33291,1.5 z m 12.68711,-1.94008 c -0.80051,-4.18761 1.151,-15.62102 2.95368,-17.30482 1.45254,-1.35676 1.5384,-1.30798 0.8712,0.4949 -1.21669,3.28766 -2.47503,14.83173 -1.88031,17.25 0.30433,1.2375 0.10701,2.25 -0.43849,2.25 -0.54551,0 -1.22324,-1.21053 -1.50608,-2.69008 z m 4.77303,1.38127 c 2.70939,-1.62023 8.50806,-7.60974 8.50806,-8.78807 0,-0.52497 -1.32765,-0.26792 -2.95034,0.5712 -3.40117,1.75882 -4.04966,1.86242 -4.04966,0.647 0,-0.48327 1.32765,-1.42861 2.95034,-2.10075 1.62268,-0.67214 4.57474,-2.79967 6.56013,-4.72786 1.98538,-1.92818 3.82369,-3.29188 4.08512,-3.03045 0.26144,0.26143 -1.16767,3.23346 -3.17579,6.60449 -3.99475,6.70602 -9.51428,12.16668 -12.2046,12.07444 -1.47881,-0.0507 -1.44067,-0.22298 0.27674,-1.25 z m -56.49194,-11.58585 c 0,-8.06521 -3.40339,-17.22546 -8.51032,-22.90559 -5.08098,-5.65128 -6.12038,-9.11901 -1.38983,-4.63684 4.82411,4.5708 8.54198,10.49191 10.29551,16.39667 1.78168,5.9996 2.16017,16.04042 0.60464,16.04042 -0.55,0 -1,-2.2026 -1,-4.89466 z m -26.999998,2.96421 c 0,-0.58825 0.675,-1.06955 1.5,-1.06955 1.73681,0 1.98409,-3.22695 0.46481,-6.06574 -0.67757,-1.26605 -0.68972,-1.93426 -0.0352,-1.93426 1.59003,0 3.22229,3.85092 2.88202,6.79945 -0.2215,1.91932 -0.96254,2.79299 -2.56165,3.0201 -1.2375,0.17575 -2.25,-0.16175 -2.25,-0.75 z m 55.333078,-3.0778 c -2.44148,-4.49752 -1.14289,-5.56485 1.39354,-1.14537 l 1.63359,2.84637 2.2883,-2.59637 c 1.25856,-1.42801 2.30251,-2.09457 2.31989,-1.48124 0.0367,1.29557 -3.79001,6.3888 -4.79098,6.37661 -0.37258,-0.005 -1.65253,-1.80454 -2.84434,-4 z m 27.26417,1.1656 c -0.28138,-0.45527 0.99171,-1.54465 2.82909,-2.42083 1.83737,-0.87618 4.9681,-3.02196 6.95717,-4.76838 3.97521,-3.49028 5.27246,-1.83398 1.36649,1.74469 -3.08379,2.8254 -10.52606,6.45853 -11.15275,5.44452 z M 42.966722,170.17915 c -2.9976,-2.73788 -3.22861,-2.80578 -2.57862,-0.75784 0.63793,2.00994 0.53683,2.10245 -0.94963,0.8688 -1.25023,-1.0376 -1.5044,-2.278 -1.02295,-4.99216 0.90502,-5.10204 2.03838,-5.84218 2.79229,-1.82349 0.65286,3.48005 2.66717,5.89781 5.85575,7.0286 0.9625,0.34133 1.75,1.08473 1.75,1.652 0,1.90821 -2.5306,1.05301 -5.84684,-1.97591 z m 154.846838,1.79102 c 0,-0.48389 1.575,-3.34192 3.5,-6.35118 1.925,-3.00926 3.5,-5.69154 3.5,-5.96063 0,-1.69894 10.8713,-12.5299 14.55581,-14.50179 2.16489,-1.15861 2.7277,-1.11519 4.16418,0.32129 2.01979,2.01979 0.95346,3.51238 -1.2204,1.70824 -1.30851,-1.08597 -2.28172,-0.66503 -6.27417,2.71377 -4.29437,3.63431 -13.72405,16.12128 -12.841,17.00432 0.7054,0.70541 12.12665,-4.80004 13.36558,-6.44269 1.09777,-1.45548 1.25,-1.46627 1.25,-0.0886 0,0.86277 -0.5625,2.03222 -1.25,2.59877 -2.49074,2.05255 -18.75,9.85572 -18.75,8.99853 z M 48.835692,169.18644 c -0.55414,-1.85 -0.38394,-10.0014 0.20882,-10.00078 1.30655,10e-4 1.81861,4.42551 0.86815,7.50078 -0.50996,1.65 -0.99459,2.775 -1.07697,2.5 z M 154.77757,165.7811 c 0.53894,-1.41751 0.73683,-3.21068 0.43976,-3.98483 -0.29706,-0.77414 -0.0314,-1.72192 0.59032,-2.10618 0.78947,-0.48792 1.03625,0.5892 0.81817,3.57113 -0.17174,2.34838 -0.87833,4.45594 -1.5702,4.68348 -0.95542,0.31421 -1.02228,-0.20612 -0.27805,-2.1636 z m 38.83532,-2.84466 c 1.73261,-3.42091 2.92055,-22.20758 1.4587,-23.06842 -0.41692,-0.24551 -2.12241,-0.73851 -3.78999,-1.09555 -2.91867,-0.62491 -3.2047,-0.35842 -7.65545,7.1324 -2.54292,4.27987 -5.15094,9.46907 -5.79559,11.53157 -0.64466,2.0625 -1.56568,3.75 -2.04672,3.75 -1.42508,0 1.53746,-8.42755 5.37446,-15.28876 1.96239,-3.50908 5.49862,-8.36714 7.85829,-10.79569 4.05458,-4.17294 4.27742,-4.704 4.05582,-9.66555 -0.12896,-2.8875 0.15253,-5.25 0.62553,-5.25 1.11632,0 2.2955,7.36766 1.50774,9.42053 -0.96396,2.51205 0.98508,1.83897 4.10512,-1.41765 2.77685,-2.89841 13.19521,-7.64376 14.31759,-6.52138 0.86613,0.86613 -0.93311,2.04766 -5.89475,3.87097 -2.51895,0.92567 -5.81646,2.97372 -7.3278,4.55122 l -2.7479,2.86818 4.82781,-0.48384 c 3.61361,-0.36216 5.38256,-1.14102 7.03356,-3.09686 1.21316,-1.43715 2.46827,-2.35048 2.78914,-2.02961 0.32088,0.32087 -1.45921,2.97639 -3.95574,5.90115 -3.63355,4.25681 -4.53915,6.06606 -4.53915,9.0685 0,2.06292 0.40359,4.00019 0.89686,4.30504 0.49327,0.30486 3.07512,-2.70608 5.73745,-6.69098 2.66232,-3.9849 6.75874,-9.36349 9.10314,-11.95243 4.11673,-4.54613 5.07977,-7.49963 3.65556,-11.21105 -0.33384,-0.86999 -1.68384,-1.58179 -3,-1.58179 -1.31615,0 -2.39301,-0.45 -2.39301,-1 0,-1.33087 3.38338,-1.26503 8.13398,0.15829 4.14972,1.24328 5.46944,3.46096 1.46088,2.45488 -2.01366,-0.5054 -2.32302,-0.28965 -1.90064,1.32552 0.85104,3.25437 -1.52688,8.49202 -5.70982,12.57654 -2.19142,2.13987 -4.01698,4.36184 -4.05681,4.93772 -0.0398,0.57588 -2.20788,3.97177 -4.8179,7.54643 -4.59078,6.28749 -7.58134,8.46382 -7.95873,5.79185 -1.30827,-9.2629 -1.29094,-9.92865 0.32264,-12.39128 0.92741,-1.41541 1.50156,-2.75812 1.27589,-2.9838 -0.39139,-0.39139 -9.77087,2.46191 -10.68916,3.25171 -0.24181,0.20798 0.60179,1.10761 1.87468,1.99917 2.22041,1.55524 2.29579,2.03809 1.85734,11.89663 -0.32707,7.35391 -0.93774,11.00928 -2.14773,12.85597 -2.41947,3.69258 -3.80076,3.19133 -1.84529,-0.66963 z m 2.6388,-29.85012 c -0.59663,-0.96535 -3.90162,0.42302 -4.91668,2.06542 -0.34577,0.55946 0.66543,0.51691 2.44312,-0.10279 1.66818,-0.58153 2.78128,-1.46471 2.47356,-1.96263 z m -59.07692,28.7344 c -2.37175,-2.0401 -2.75795,-3.13409 -2.80576,-7.94808 -0.0305,-3.0703 0.41021,-6.04889 0.97936,-6.61909 0.71329,-0.71461 1.02399,0.79576 1,4.86113 -0.0272,4.60614 0.46453,6.57394 2.24513,8.98481 2.73026,3.69667 2.29668,3.91709 -1.41873,0.72123 z m 18.4204,-9.88925 c -1.49511,-1.23477 -3.18261,-3.51182 -3.75,-5.06013 -1.4462,-3.94646 -1.31675,-9.68561 0.21839,-9.6818 0.83508,0.002 1.2534,1.69831 1.26026,5.11016 0.009,4.7202 0.31249,5.36274 4,8.48203 2.25702,1.90924 3.3383,3.37926 2.48974,3.38487 -0.825,0.005 -2.72327,-1.00036 -4.21839,-2.23513 z m 10.21839,-2.62291 c 0,-3.92835 2.6641,-11.79136 3.65825,-10.79721 0.29759,0.2976 0.001,2.17685 -0.65859,4.17611 -0.65981,1.99926 -1.19966,5.17941 -1.19966,7.067 0,1.88759 -0.405,3.43198 -0.9,3.43198 -0.495,0 -0.9,-1.74504 -0.9,-3.87788 z m -105.986088,0.12633 c -3.86727,-1.93963 -5.97683,-5.30044 -5.99917,-9.55747 -0.0199,-3.79777 1.5984,-2.56665 2.42616,1.84567 0.69134,3.68518 5.13933,7.45177 8.8091,7.45961 0.9625,0.002 1.75,0.45374 1.75,1.00374 0,1.52693 -3.11034,1.19233 -6.98609,-0.75155 z m 113.597248,0.50155 c 0.40106,-0.6875 1.9796,-3.09763 3.50787,-5.35584 5.12232,-7.56886 8.08626,-15.47818 7.45513,-19.89416 -0.52929,-3.70345 -0.46056,-3.85609 0.92708,-2.05887 1.87871,2.43322 1.94816,7.94101 0.11927,9.45885 -0.75871,0.62968 -1.62756,2.37228 -1.93076,3.87245 -0.68294,3.37899 -8.25149,15.22757 -9.72696,15.22757 -0.59445,0 -0.75269,-0.5625 -0.35163,-1.25 z m -50.61116,-3.25 c 0,-3.08388 -2.7649,-5.95722 -7.72695,-8.03 -7.57297,-3.16342 -11.15969,-9.00324 -8.27305,-13.47 0.72105,-1.11575 0.9733,-0.53938 0.98469,2.25 0.0189,4.62478 2.1981,6.97156 9.45324,10.18013 2.966,1.31171 5.88082,3.29695 6.47739,4.41165 1.36147,2.54393 1.41605,7.15822 0.0847,7.15822 -0.55,0 -1,-1.125 -1,-2.5 z m -77.999998,-5.45588 c -9.48581,-4.5509 -9.4285,-4.50409 -10.35737,-8.45936 -0.73021,-3.10933 -0.55468,-4.5926 0.85274,-7.20603 1.10772,-2.05692 1.55916,-4.35605 1.204,-6.13186 -0.70135,-3.50678 0.0635,-4.826 3.57098,-6.15956 3.38854,-1.28832 3.63381,0.1797 0.28495,1.70554 -2.11329,0.96288 -2.3671,1.59204 -1.8723,4.64115 0.38674,2.38319 0.0445,4.33301 -1.0553,6.01145 -3.05965,4.66961 -1.14679,10.51075 3.92023,11.97091 1.63649,0.47158 2.28731,-0.0634 3.23938,-2.66311 1.11602,-3.0473 2.89928,-5.09388 10.96269,-12.58148 1.83146,-1.70069 3.25,-4.01174 3.25,-5.29485 0,-1.76029 0.27,-2.00692 1.18998,-1.08693 0.91999,0.91998 0.81021,1.98639 -0.48382,4.7 -0.92059,1.9305 -2.06305,3.51001 -2.53878,3.51001 -1.29061,0 -10.08698,9.17133 -10.7253,11.18247 -0.30408,0.95809 -0.0767,2.63167 0.50522,3.71907 1.19378,2.23059 0.29573,3.21869 -1.9473,2.14258 z m 91.733808,-3.64364 c -2.75443,-2.75443 3.57047,-11.00076 11.53188,-15.03512 7.24635,-3.672 8.1944,-2.26086 1.04217,1.55124 -7.28354,3.88208 -9.84915,6.42622 -10.99255,10.90055 -0.46622,1.82443 -1.1779,2.98693 -1.5815,2.58333 z m 35.35179,-1.90048 c -0.0302,-1.65 0.38124,-3.675 0.9144,-4.5 0.76401,-1.18222 0.95773,-0.97037 0.9144,1 -0.0302,1.375 -0.44171,3.4 -0.9144,4.5 -0.73788,1.71714 -0.8672,1.57572 -0.9144,-1 z M 63.022542,132.6205 c 2.26267,-2.35749 13.28283,-2.33124 12.44937,0.0297 -0.20121,0.56995 -1.21916,0.83748 -2.2621,0.5945 -2.97794,-0.69378 -6.67276,-0.56256 -9.39625,0.33371 -2.37623,0.78199 -2.4154,0.73456 -0.79102,-0.95787 z m -5.20898,-1.33131 c 0,-1.3166 1.97731,-3.50039 5.57771,-6.16016 5.7916,-4.2785 8.60058,-4.81284 3.98852,-0.75871 -1.44917,1.27387 -4.19442,3.81066 -6.10055,5.63732 -3.06927,2.94132 -3.46568,3.0879 -3.46568,1.28155 z m 13,-1.99576 c 0,-0.49116 0.7118,-1.16616 1.58178,-1.5 2.44628,-0.93873 2.76951,-0.7352 1.41822,0.89301 -1.37965,1.66238 -3,1.99022 -3,0.60699 z m -40.98469,-5.85699 c -0.008,-3.4375 -0.36745,-6.25 -0.79785,-6.25 -0.43039,0 -0.88162,-2.27732 -1.00272,-5.0607 -0.13831,-3.17876 0.15269,-4.83025 0.78253,-4.44099 0.5515,0.34085 1.00273,2.36661 1.00273,4.50169 0,2.13508 0.45,4.16008 1,4.5 1.27798,0.78983 1.27798,9.52247 0,11.5 -0.68311,1.05704 -0.9739,-0.34568 -0.98469,-4.75 z m 91.984688,-0.13209 C 106.66988,118.33567 98.333042,107.2045 98.320122,91.93644 c -0.005,-5.529835 -0.36465,-7.75 -1.25656,-7.75 -0.6875,0 -1.25,-0.45 -1.25,-1 0,-0.55 -0.9,-1 -2,-1 -3.59099,0 -2.18183,-3.450368 3.03353,-7.427649 2.76844,-2.111241 5.328788,-3.54336 5.689668,-3.182485 0.36087,0.360875 -0.35383,1.363544 -1.58824,2.228154 -4.036368,2.827188 -7.645308,6.202298 -7.134958,6.672681 0.275,0.253464 1.4736,0.759725 2.66356,1.125024 1.78816,0.548938 2.56235,-0.04537 4.461908,-3.42518 4.12997,-7.348292 16.80302,-12.709516 27.24944,-11.527639 18.63785,2.108634 27.48424,12.138542 26.32003,29.841263 -0.85292,12.969201 -7.33779,23.099351 -16.41761,25.646291 -5.50694,1.54474 -13.40167,2.11097 -16.27733,1.16745 z m 15,-3.19827 c 8.81223,-2.0199 14.72289,-11.21632 15.725,-24.4666 0.5004,-6.616435 0.2783,-7.848836 -2.47485,-13.732182 -2.72254,-5.817932 -3.56632,-6.728449 -8.44912,-9.117381 -8.12069,-3.97308 -16.4653,-5.040452 -23.56453,-3.014174 -6.65547,1.899619 -12.91912,5.141229 -13.6588,7.068807 -0.28321,0.738039 -0.0926,1.34189 0.42355,1.34189 0.51616,0 -0.17296,1.637796 -1.53139,3.639547 -5.333848,7.859874 -3.06631,21.266973 5.13159,30.341063 7.08445,7.84164 16.87843,10.57962 28.39855,7.93903 z m -16.34481,-12.37829 c -7.09384,-2.5293 -10.20238,-7.08912 -10.86395,-15.935983 -0.18265,-2.442575 0.1748,-4.058196 0.95876,-4.333333 0.8482,-0.297686 1.25,0.706612 1.25,3.124396 0,8.85859 5.83155,15.60357 13.49048,15.60357 3.22387,0 3.57849,0.21197 2.50952,1.5 -1.50154,1.80925 -2.37271,1.81415 -7.34481,0.0413 z m 45.98699,12.67934 c 1.72819,-1.49638 6.06788,-5.14243 9.64375,-8.10234 3.57586,-2.95991 8.23688,-8.06742 10.35782,-11.35003 4.40861,-6.823275 6.01015,-5.446632 1.87413,1.61095 -2.59719,4.43178 -9.73809,11.15311 -18.45505,17.37073 -5.51838,3.93613 -7.78283,4.24772 -3.42065,0.47069 z M 51.518322,119.20741 c 0.28465,-1.08847 -0.44113,-3.60385 -1.61284,-5.58974 -1.2907,-2.18759 -1.63012,-3.45334 -0.86115,-3.21142 3.09751,0.97446 5.59548,10.78019 2.74622,10.78019 -0.43437,0 -0.55687,-0.89056 -0.27223,-1.97903 z m 28.21689,-0.72704 c -2.16848,-5.70353 -4.92165,-16.89355 -4.92165,-20.00359 0,-3.694356 2.76419,-11.29034 4.10858,-11.29034 1.16821,0 1.14856,0.140326 -0.60858,4.345757 -0.825,1.974503 -1.48903,5.066959 -1.47562,6.872123 0.0323,4.3442 4.5745,20.14841 5.91964,20.59679 1.61115,0.53705 1.25758,2.18533 -0.46877,2.18533 -0.83862,0 -1.98774,-1.21773 -2.5536,-2.70607 z m 7.51802,-0.74566 c -2.19873,-3.35569 -4.40393,-12.69638 -4.42405,-18.73925 -0.0259,-7.788562 1.66397,-6.303983 2.24143,1.96909 0.29644,4.24704 1.4742,10.17007 2.61724,13.16229 2.32707,6.09174 2.15093,7.55392 -0.43462,3.60787 z m 75.593698,-4.28551 c 6.62277,-6.13167 10.88735,-12.44489 10.94467,-16.20235 0.0121,-0.791774 -2.32036,-3.604274 -5.18319,-6.25 -2.86283,-2.645725 -4.7115,-4.81041 -4.10815,-4.81041 1.87478,0 11.3133,9.090647 11.3133,10.896325 0,4.285235 -5.44067,12.423175 -11.82783,17.691605 -9.17237,7.56579 -9.8678,6.75655 -1.1388,-1.32517 z m -128.033368,0.28429 c 0,-0.24912 0.51616,-1.58579 1.14702,-2.97038 0.88529,-1.94301 0.85735,-2.86647 -0.12245,-4.04706 -1.04677,-1.26129 -0.99668,-1.52961 0.2856,-1.52961 2.37087,0 3.08583,3.74668 1.2497,6.54896 -1.48056,2.25962 -2.55987,3.10207 -2.55987,1.99809 z m 19,-2.71372 c 0,-1.19166 0.12733,-1.97916 0.28297,-1.75 0.15563,0.22917 0.88573,1.20417 1.62244,2.16667 1.14658,1.49798 1.10583,1.75 -0.28297,1.75 -0.99738,0 -1.62244,-0.83473 -1.62244,-2.16667 z m 7.47957,-12.22417 c -1.4054,-2.144904 -1.57324,-4.081072 -1.0261,-11.836762 0.35978,-5.099819 0.74243,-11.658354 0.85033,-14.574522 0.18242,-4.929908 0.49776,-5.552659 4.49194,-8.870928 2.36265,-1.962842 4.61265,-3.247459 5,-2.854705 0.38734,0.392755 -0.94722,2.134673 -2.96568,3.870928 -3.1701,2.726872 -3.74977,3.905923 -4.25606,8.656829 -1.60731,15.082687 -1.74566,21.171374 -0.54681,24.065647 1.60461,3.873873 0.62164,4.854233 -1.54762,1.543513 z M 204.81356,98.70949 c 0,-2.844754 5.14712,-5.00169 13.45511,-5.638458 4.42469,-0.339131 8.23239,-0.451899 8.46156,-0.250597 1.12651,0.989547 -1.48565,1.698479 -7.15348,1.941429 -7.12539,0.305427 -11.54803,1.700305 -12.3958,3.909566 -0.74522,1.94201 -2.36739,1.96808 -2.36739,0.03806 z M 182.4916,96.68644 c 0.38979,-1.65 0.71813,-3.7875 0.72962,-4.75 0.0115,-0.9625 0.37448,-1.75 0.80663,-1.75 1.37814,0 0.84297,5.544397 -0.72963,7.55887 -1.42601,1.8267 -1.47356,1.76428 -0.80662,-1.05887 z M 43.987562,95.666531 c -2.9293,-0.714312 -5.58748,-1.560238 -5.90708,-1.879834 -1.15202,-1.152021 -1.86966,-9.252456 -1.07589,-12.144204 0.83452,-3.04017 0.11746,-4.094205 -4.82247,-7.088769 -2.98937,-1.812146 -0.99909,-2.528542 2.36388,-0.850871 4.82982,2.40943 5.65397,3.919671 4.53808,8.315935 -1.26037,4.965467 -0.50695,9.97517 1.58815,10.560098 0.90273,0.252032 3.21633,0.750431 5.14133,1.107554 1.925,0.357123 4.26846,0.864999 5.20768,1.128615 1.59512,0.447705 1.60382,0.174453 0.13201,-4.145062 -1.52745,-4.482819 -1.45835,-9.582988 0.24705,-18.236279 0.54727,-2.776868 0.12735,-3.821336 -2.87037,-7.139455 -3.43208,-3.798899 -5.40888,-7.748645 -4.3887,-8.768826 0.28066,-0.280657 1.05074,0.540755 1.7113,1.825361 0.66056,1.284605 2.59799,3.811249 4.30541,5.614763 3.33595,3.523702 3.50687,4.928829 2.11411,17.379432 -0.50012,4.470741 -0.21376,6.606285 1.36416,10.173433 1.09843,2.483186 1.73769,4.774339 1.42058,5.091451 -0.86889,0.86889 -5.12493,0.506182 -11.06923,-0.943342 z m 19.826,-4.12742 c 0,-0.356031 0.85962,-3.168531 1.91027,-6.25 1.05065,-3.081469 2.39186,-7.177671 2.98048,-9.102671 0.97381,-3.184763 1.021,-3.004628 0.52387,2 -0.50787,5.112811 -3.59197,14 -4.85839,14 -0.30593,0 -0.55623,-0.291298 -0.55623,-0.647329 z m 30.253,-2.493353 c -0.62627,-1.659161 -2.06439,-3.25874 -3.19583,-3.554619 -2.39954,-0.627492 -2.77193,-2.304699 -0.51172,-2.304699 1.97155,0 6.45455,4.442011 6.45455,6.395528 0,2.796839 -1.60734,2.483087 -2.747,-0.53621 z M 204.81356,90.18644 c 0,-0.55 1.4625,-1.00251 3.25,-1.005577 5.16403,-0.0089 10.20503,-1.78543 12.74857,-4.492902 1.29253,-1.375837 3.05912,-2.483065 3.92574,-2.460508 3.0357,0.07901 -6.67166,7.655684 -10.65126,8.313399 -5.56731,0.920116 -9.27305,0.778484 -9.27305,-0.354412 z m -32.25,-3.571975 c -1.5125,-0.820545 -2.75,-1.928402 -2.75,-2.461905 0,-0.533503 1.68649,-0.0661 3.74776,1.038672 4.45117,2.385687 5.04664,1.487204 2.43898,-3.680092 -2.73611,-5.421841 -3.52214,-8.3247 -2.25413,-8.3247 0.58707,0 1.06739,0.707369 1.06739,1.57193 0,0.864562 1.17101,3.570115 2.60225,6.01234 3.91356,6.677986 1.66878,9.38147 -4.85225,5.843755 z M 81.653222,81.288713 c 0.23136,-3.337026 -0.1845,-5.698933 -1.30434,-7.408022 -1.03451,-1.578864 -1.26891,-2.740871 -0.63225,-3.134348 2.49658,-1.542968 5.2319,9.318828 3.48994,13.85831 -1.17392,3.05919 -1.88946,1.531742 -1.55335,-3.31594 z m 113.125158,1.963468 c 1.48388,-2.772669 1.27734,-6.275 -0.52152,-8.843235 -1.78134,-2.543208 -0.36978,-3.006132 1.98527,-0.651077 1.85221,1.852208 2.09383,8.506167 0.37143,10.228571 -1.86322,1.863224 -2.98509,1.414364 -1.83518,-0.734259 z m -12.46482,-5.460387 c -3.3,-2.96507 -5.65785,-5.743907 -5.23967,-6.175194 0.41819,-0.431287 1.31819,-0.103769 2,0.727818 0.68182,0.831586 3.37717,3.215444 5.98967,5.297461 4.37495,3.486589 5.86204,5.547237 4,5.542756 -0.4125,-9.93e-4 -3.45,-2.427771 -6.75,-5.392841 z M 85.813562,78.90456 c 0,-1.333606 -0.28911,-5.190749 -0.64246,-8.571429 -0.56151,-5.372267 -0.42809,-6.146691 1.05902,-6.146691 0.95945,0 1.41155,0.469099 1.03668,1.07565 -0.36563,0.591608 -0.3425,3.629108 0.0514,6.75 l 0.71619,5.67435 6.41496,-6.891291 c 3.52822,-3.790211 6.683858,-6.622385 7.012518,-6.293721 0.6743,0.674303 -10.448268,13.685012 -11.699018,13.685012 -0.44354,0 -1.51359,0.707143 -2.37787,1.571429 -1.42858,1.428571 -1.57143,1.350997 -1.57143,-0.853309 z M 201.81356,75.627423 c 0,-2.784701 0.38919,-4.318485 1,-3.940983 0.55,0.339919 1,1.491476 1,2.559017 0,1.067541 0.39885,1.940983 0.88634,1.940983 1.44098,0 10.72038,-9.207648 13.10129,-13 2.19008,-3.488396 2.19518,-3.490251 1.538,-0.559472 -0.8888,3.963662 -5.56684,9.685319 -11.4492,14.003368 -2.66441,1.955857 -5.12159,3.556104 -5.46041,3.556104 -0.33881,0 -0.61602,-2.051558 -0.61602,-4.559017 z M 186.25469,74.61222 c -1.89132,-1.533828 -1.88301,-1.561788 0.32392,-1.089683 1.69866,0.363373 2.62637,-0.180703 3.70996,-2.17578 l 1.44491,-2.660317 0.04,2.55 c 0.0369,2.351749 -1.52141,4.95 -2.96883,4.95 -0.33488,0 -1.48238,-0.708399 -2.55,-1.57422 z M 49.987872,59.871989 c -2.59524,-2.762511 -2.76562,-4.949917 -0.53007,-6.805262 1.46164,-1.21305 1.56521,-1.115588 0.93262,0.877555 -2.13932,6.740398 3.47371,8.430501 8.35033,2.514314 1.96873,-2.388401 3.07281,-3.145015 3.07281,-2.105755 0,2.315819 -5.44262,7.833599 -7.7269,7.833599 -1.05846,0 -2.90292,-1.041503 -4.09879,-2.314451 z m -19.38366,-9.200021 c -7.33536,-1.593598 -8.79065,-2.176588 -8.79065,-3.521531 0,-0.694946 0.82693,-0.823225 2.25,-0.349034 1.2375,0.412355 4.95,1.253065 8.25,1.868244 3.3,0.615178 5.92125,1.534371 5.825,2.04265 -0.25433,1.343032 -1.18975,1.338025 -7.53435,-0.04033 z"
     id="path7009"
     inkscape:connector-curvature="0" />
  <path
     style="fill:#000000;fill-opacity:0.45789478;stroke:none"
     d="m 66.42161,13.601694 c -35.808445,5.799422 -49.027325,12.907572 -51.202958,18.146323 -3.509249,8.449992 34.271824,15.0289 42.815246,18.578253 20.801873,3.886367 43.882762,5.935039 67.101692,4.987289 9.94155,-0.45949 41.09622,-0.296528 67.52716,-5.41814 31.66317,-6.13548 42.32715,-7.577693 45.15498,-19.514852 C 240.33945,19.73557 217.79452,17.533938 185.72714,9.6388715 176.89676,7.464809 135.23134,7.8518983 122.64195,7.7076272 z"
     id="path7523"
     inkscape:connector-curvature="0"
     sodipodi:nodetypes="csccssscc" />
  <path
     style="fill:url(#radialGradient7551);stroke:none;stroke-width:1px;stroke-linecap:butt;stroke-linejoin:miter;stroke-opacity:1;fill-opacity:1"
     d="m 119.24153,75.262711 -0.45339,24.936439 32.19067,0.90678 -5.44067,-24.483049 z"
     id="path7535"
     inkscape:connector-curvature="0" />
</svg>
