<?xml version="1.0" encoding="UTF-8" standalone="no"?>
<!-- Created with Inkscape (http://www.inkscape.org/) -->

<svg
   xmlns:dc="http://purl.org/dc/elements/1.1/"
   xmlns:cc="http://creativecommons.org/ns#"
   xmlns:rdf="http://www.w3.org/1999/02/22-rdf-syntax-ns#"
   xmlns:svg="http://www.w3.org/2000/svg"
   xmlns="http://www.w3.org/2000/svg"
   xmlns:sodipodi="http://sodipodi.sourceforge.net/DTD/sodipodi-0.dtd"
   xmlns:inkscape="http://www.inkscape.org/namespaces/inkscape"
   id="svg11258"
   version="1.1"
   inkscape:version="0.48.4 r9939"
   width="232"
   height="216"
   sodipodi:docname="Citrus.png">
  <metadata
     id="metadata11264">
    <rdf:RDF>
      <cc:Work
         rdf:about="">
        <dc:format>image/svg+xml</dc:format>
        <dc:type
           rdf:resource="http://purl.org/dc/dcmitype/StillImage" />
        <dc:title></dc:title>
      </cc:Work>
    </rdf:RDF>
  </metadata>
  <defs
     id="defs11262" />
  <sodipodi:namedview
     pagecolor="#ffffff"
     bordercolor="#666666"
     borderopacity="1"
     objecttolerance="10"
     gridtolerance="10"
     guidetolerance="10"
     inkscape:pageopacity="0"
     inkscape:pageshadow="2"
     inkscape:window-width="1254"
     inkscape:window-height="735"
     id="namedview11260"
     showgrid="false"
     inkscape:zoom="2.1851852"
     inkscape:cx="106.46825"
     inkscape:cy="68.058662"
     inkscape:window-x="-1"
     inkscape:window-y="22"
     inkscape:window-maximized="0"
     inkscape:current-layer="svg11258" />
  <path
     style="fill:#006b22;fill-opacity:1;stroke:none"
     d="m 15.279752,51.214978 c 14.566143,5.082277 28.329407,5.882536 44.049977,17.12176 L 95.415254,41.789602 c 7.221416,-2.476971 17.865016,-0.360786 20.486946,-7.053962 -3.29953,-5.474288 -10.87266,-2.850674 -22.546268,6.221987 -26.025393,8.605135 -52.050787,6.842178 -78.07618,10.257351 z"
     id="path11270"
     inkscape:connector-curvature="0"
     sodipodi:nodetypes="cccccc" />
  <path
     style="fill:#006b22;fill-opacity:1;stroke:none"
     d="m 163.73717,14.726249 c -5.23738,8.891819 -0.1621,10.184833 2.26514,13.429037 -3.96991,2.119963 -8.57962,5.379486 -1.94155,14.723401 7.73343,3.538334 16.83875,5.704779 22.65139,11.163898 5.43817,7.230084 2.20495,12.90468 2.10333,19.739065 l 11.97288,-11.325693 c 2.14335,2.723737 2.56427,6.136444 6.63362,8.089781 2.87899,-8.467211 1.29509,-18.228973 -4.69207,-27.181664 4.53522,-9.791115 -0.32745,-11.437402 -1.61795,-16.179562 -5.72616,-7.63956 -13.38097,-12.554404 -21.68062,-15.046993 -6.51035,-0.416051 -11.77247,0.416125 -15.69417,2.58873 z"
     id="path11780"
     inkscape:connector-curvature="0"
     sodipodi:nodetypes="ccccccccccc" />
  <path
     style="fill:#41301d;fill-opacity:1;stroke:none"
     d="m 116.4661,18.991525 6.40678,0.228814 c 19.18381,21.745878 17.12612,30.74686 22.42373,44.161017 l -2.28814,21.279661 -7.55084,6.864407 c 2.7273,-11.282795 6.519,-21.917693 2.51695,-37.296611 -2.26398,-13.6325 -11.42275,-24.613155 -21.50848,-35.237288 z"
     id="path11782"
     inkscape:connector-curvature="0"
     sodipodi:nodetypes="ccccccc" />
  <path
     style="fill:#ff7700;fill-opacity:1;stroke:none"
     d="m 137.84987,65.853665 c 4.07335,0.253935 0.54419,11.911625 -3.8831,24.916525 3.52707,-0.904319 7.23233,0.583278 8.70856,-6.380687 1.02056,-4.814392 1.4691,-16.514382 5.20587,-19.18302 30.05944,6.924889 57.37938,17.628403 62.7767,58.570017 1.99446,18.35072 -2.48717,33.79052 -10.64173,46.86553 -10.68073,17.12546 -25.66857,31.66524 -55.69448,33.0615 -23.29035,1.72886 -38.85465,-9.70442 -49.504945,-17.18913 C 75.71061,173.08719 74.534665,155.25791 71.513664,138.3381 67.996808,90.378334 93.081864,68.977487 137.84987,65.853665 z"
     id="path11784"
     inkscape:connector-curvature="0"
     sodipodi:nodetypes="ccsccscscc" />
  <path
     style="fill:#000000"
     d="M 121,202.62207 C 108.01799,198.17974 100.70723,194.22073 92.773632,187.3366 78.297556,174.77543 74.054225,165.7145 70.501996,139.77919 68.792179,127.29557 69.305095,119.01015 72.57412,106.30704 74.244473,99.816216 81.198395,88.81667 87.606494,82.529195 96.756706,73.551224 117.89883,65 130.94584,65 134.31528,65 137,65.44345 137,66 c 0,0.555789 -2.67089,1 -6.01266,1 -12.67512,0 -33.486952,8.381107 -41.947912,16.892789 -5.744134,5.778568 -12.662076,16.105019 -14.022516,20.931491 -5.108105,18.12215 -2.661726,47.98516 5.215419,63.66473 4.459612,8.87693 16.449604,20.32317 26.673039,25.46341 14.03301,7.05566 22.22553,9.35169 33.09463,9.27509 10.78804,-0.076 23.18083,-2.59394 33,-6.70478 14.65916,-6.13712 32.39794,-30.39876 36.05999,-49.31987 1.66832,-8.61988 0.69627,-26.04373 -1.85563,-33.26206 -3.6953,-10.45256 -10.36362,-23.158261 -14.52151,-27.669039 -8.86157,-9.613665 -22.02542,-13.891342 -36.31082,-17.601721 l -8.80547,-2.287066 -1.83482,5.763288 c -2.34918,7.378911 -1.00799,10.564647 -2.74922,13.382025 -2.66418,4.310726 -6.11093,6.743403 -8.34162,5.88741 -2.11218,-0.810521 -2.06627,-1.667896 0.29745,-5.554712 1.06609,-1.753045 2.49127,-6.281371 3.16708,-10.062947 2.35871,-13.198518 -1.95584,-29.561733 -11.50558,-43.635756 -2.48633,-3.664255 -5.34898,-7.172731 -6.36144,-7.796613 -1.61195,-0.99329 -2.09362,-0.589193 -3.87385,3.25 C 115.24641,30.027051 114.65881,32 115.05879,32 c 1.3409,0 1.94422,3.125853 0.95873,4.967258 -1.22906,2.296516 -6.09936,4.026226 -11.41674,4.054704 -6.386998,0.03421 -14.359547,4.341878 -28.21147,15.24302 -2.260879,1.77926 -5.733864,4.514856 -7.717743,6.079104 -1.98388,1.564247 -4.074934,2.688125 -4.646788,2.497507 C 62.916651,64.472217 76.714638,53.033774 85.929104,46.683047 93.266036,41.62634 93.31499,41.516213 86.95536,44.374382 80.962758,47.067599 79.932949,47.168919 29.5,50.02722 c -1.956739,0.110899 -1.957898,0.129827 -0.05355,0.875061 1.866561,0.730449 1.857704,0.784919 -0.215813,1.327156 -1.189244,0.310994 -2.065146,0.274096 -1.946448,-0.082 0.327892,-0.983678 -0.809765,-1.159746 -6.534187,-1.011258 -2.8875,0.0749 -4.125,0.330848 -2.75,0.568773 21.772219,3.767387 42,11.898925 42,16.883939 0,2.107178 -1.773425,1.702982 -3.057821,-0.696933 C 55.223449,64.680484 42.536016,59.338602 29.863769,56.490942 13.742558,52.868244 11,52.054296 11,50.892471 11,50.3203 11.886009,50.146433 13,50.5 c 1.309125,0.4155 2,0.1797 2,-0.682612 0,-0.953659 1.863668,-1.334384 6.75,-1.378944 7.390352,-0.0674 30.974125,-1.700896 49.632969,-3.437765 12.482193,-1.161912 18.283353,-3.21957 26.563051,-9.42185 1.89531,-1.419768 6.12411,-3.134548 9.39734,-3.810622 5.32468,-1.099795 6.09758,-1.579277 7.3404,-4.553752 0.76399,-1.828491 1.26018,-4.987262 1.10266,-7.019492 -0.28319,-3.653284 -0.24694,-3.692003 3.21358,-3.432568 3.40653,0.255387 4.21526,0.909532 8.33551,6.742191 1.48492,2.102052 2.11123,2.369542 3.27897,1.400402 1.00778,-0.836382 4.02378,-1.015867 9.99239,-0.594657 7.05673,0.498001 9.46004,0.262417 13.76875,-1.349681 4.28513,-1.603271 5.44021,-2.562418 6.45051,-5.356354 C 162.44986,13.113935 166.98331,11 174.98938,11 c 8.88349,0 17.03837,3.966666 23.83722,11.594815 C 205.02953,29.554336 207.67301,37 203.94098,37 203.42344,37 203,35.717517 203,34.150038 c 0,-5.57182 -8.34843,-14.595543 -17.28449,-18.682597 -4.96603,-2.271298 -6.52243,-2.54012 -11,-1.899925 -2.86853,0.410138 -6.22002,0.802241 -7.44775,0.871339 -3.0196,0.169947 -4.18757,1.536954 -4.64108,5.431997 -0.27563,2.367294 0.19281,3.814713 1.68431,5.204252 1.78885,1.666564 1.8382,1.924896 0.36778,1.924896 -0.93409,0 -2.42762,-0.851728 -3.31895,-1.892729 -1.58592,-1.852223 -1.70877,-1.852693 -5.74021,-0.02196 -2.26579,1.028922 -5.01961,1.882885 -6.11961,1.897696 -1.73948,0.02342 -1.60923,0.350513 1,2.51111 1.65,1.366299 4.00939,2.762067 5.24309,3.101706 1.2337,0.339639 1.99464,1.019523 1.69098,1.510853 -0.91654,1.482995 -3.46392,1.012151 -6.27591,-1.160005 C 144.38875,27.717553 140.80302,26 136.65559,26 c -6.55503,0 -7.20367,1.485408 -3.0936,7.084444 3.72673,5.076831 8.12148,14.207899 10.82783,22.497209 l 2.95344,9.126543 6.70723,1.235856 c 9.46314,1.743653 18.79487,2.385177 27.759,8.768487 11.53384,8.213187 14.75054,11.792025 20.28765,22.571622 7.76021,15.107539 9.03011,19.492929 9.63116,33.259599 0.83705,19.17226 -1.61979,27.31064 -13.6378,45.17565 C 186.13545,193.49084 176.25254,200.1483 156,204.073 c -14.58794,2.82697 -23.58892,2.45384 -35,-1.45093 z M 139.70385,86.25 c 0.96247,-1.5125 2.17854,-3.051427 2.70236,-3.419837 0.52383,-0.36841 0.98422,-5.99341 1.0231,-12.5 0.0664,-11.108624 -0.1274,-12.321505 -3.17715,-19.886077 -4.86674,-12.071439 -6.67567,-13.356399 -2.73683,-1.944086 1.89827,5.5 3.18568,10.843853 2.8609,11.875229 -0.38113,1.210342 -0.20329,1.635921 0.50158,1.20029 0.74426,-0.45998 0.91081,0.375977 0.52294,2.62477 -0.43248,2.50743 -0.31249,2.939552 0.49975,1.799711 0.65912,-0.924982 1.07474,-1.043442 1.08419,-0.309017 0.008,0.655041 -0.43958,1.472123 -0.99557,1.815738 -0.55598,0.343616 -1.00894,1.832673 -1.00657,3.309017 0.007,4.202101 -0.57095,8.105995 -1.30865,8.843696 -1.16987,1.169865 -0.72933,2.49101 0.5761,1.727689 0.6875,-0.402001 0.39276,0.246441 -0.65499,1.440983 C 138.54727,84.022648 138.05451,85 138.5,85 c 0.44549,0 -0.005,0.9 -1,2 -0.99549,1.1 -1.3006,2 -0.67804,2 0.62256,0 1.91941,-1.2375 2.88189,-2.75 z M 105.32399,38.985455 c 6.98011,-0.720982 11.56904,-3.196496 8.93937,-4.822378 -1.80782,-1.117748 -8.86274,-0.163004 -7.12438,0.964145 0.92436,0.599356 0.37892,0.817304 -1.70007,0.679319 -1.7507,-0.116195 -4.64023,0.772799 -6.749999,2.076705 -3.832791,2.368796 -4.984533,3.894759 -1.938911,2.568898 0.9625,-0.419008 4.82079,-1.079018 8.57399,-1.466689 z M 125.27355,24.75 c -3.02811,-4.671596 -4.12838,-5.711732 -6.06624,-5.734687 -0.98658,-0.01169 7.32198,9.62102 8.55688,9.920597 0.1453,0.03525 -0.97549,-1.84841 -2.49064,-4.18591 z M 134,183.94098 c 0,-0.58246 0.45,-0.7809 1,-0.44098 0.55,0.33992 1,0.81648 1,1.05902 0,0.24254 -0.45,0.44098 -1,0.44098 -0.55,0 -1,-0.47656 -1,-1.05902 z m -14,-7 c 0,-0.58246 0.45,-0.7809 1,-0.44098 0.55,0.33992 1,0.81648 1,1.05902 0,0.24254 -0.45,0.44098 -1,0.44098 -0.55,0 -1,-0.47656 -1,-1.05902 z M 112,175 c 0,-0.55 0.42344,-1 0.94098,-1 0.51754,0 1.2191,0.45 1.55902,1 0.33992,0.55 -0.0835,1 -0.94098,1 C 112.70156,176 112,175.55 112,175 z m -2,-3.05902 c 0,-0.58246 0.45,-0.7809 1,-0.44098 0.55,0.33992 1,0.81648 1,1.05902 0,0.24254 -0.45,0.44098 -1,0.44098 -0.55,0 -1,-0.47656 -1,-1.05902 z m -11,-7.5 c 0,-0.85746 0.45,-1.2809 1,-0.94098 0.55,0.33992 1,1.04148 1,1.55902 0,0.51754 -0.45,0.94098 -1,0.94098 -0.55,0 -1,-0.70156 -1,-1.55902 z M 98.5,160 c -0.339919,-0.55 -0.141476,-1 0.440983,-1 0.582459,0 1.059017,0.45 1.059017,1 0,0.55 -0.198442,1 -0.440983,1 -0.242541,0 -0.719098,-0.45 -1.059017,-1 z M 93,158 c 0,-0.55 0.476558,-1 1.059017,-1 0.582459,0 0.780902,0.45 0.440983,1 -0.339919,0.55 -0.816476,1 -1.059017,1 C 93.198442,159 93,158.55 93,158 z m -0.5,-4 c -0.339919,-0.55 -0.141476,-1 0.440983,-1 C 93.523442,153 94,153.45 94,154 c 0,0.55 -0.198442,1 -0.440983,1 -0.242541,0 -0.719098,-0.45 -1.059017,-1 z M 84,142.15218 c 0,-0.4663 1.444716,-0.8889 3.210481,-0.9391 2.329216,-0.0662 2.809584,0.16229 1.75,0.83251 C 87.121693,143.20866 84,143.27574 84,142.15218 z m 6.027494,-2.96783 c -1.288362,-1.3792 -1.272519,-1.49235 0.133408,-0.95285 0.877464,0.33672 2.100223,0.10738 2.717243,-0.50964 C 93.707285,136.89271 94,137.01565 94,138.19301 c 0,2.2713 -2.251898,2.83326 -3.972506,0.99134 z m 1.700039,-7.25044 c 0.352452,-1.34778 0.880642,-1.72573 1.519248,-1.08713 1.035102,1.0351 0.220844,3.15322 -1.212178,3.15322 -0.46605,0 -0.604232,-0.92974 -0.30707,-2.06609 z M 85.5,131 c -0.339919,-0.55 -0.141476,-1 0.440983,-1 C 86.523442,130 87,130.45 87,131 c 0,0.55 -0.198442,1 -0.440983,1 -0.242541,0 -0.719098,-0.45 -1.059017,-1 z m -5,-6 c -0.339919,-0.55 -0.141476,-1 0.440983,-1 C 81.523442,124 82,124.45 82,125 c 0,0.55 -0.198442,1 -0.440983,1 -0.242541,0 -0.719098,-0.45 -1.059017,-1 z m 4.5,0 c 0,-0.55 0.45,-1 1,-1 0.55,0 1,0.45 1,1 0,0.55 -0.45,1 -1,1 -0.55,0 -1,-0.45 -1,-1 z m 7,-2.05902 c 0,-0.58246 0.45,-0.7809 1,-0.44098 0.55,0.33992 1,0.81648 1,1.05902 C 94,123.80156 93.55,124 93,124 c -0.55,0 -1,-0.47656 -1,-1.05902 z M 81,121 c 0,-0.55 0.476558,-1 1.059017,-1 0.582459,0 0.780902,0.45 0.440983,1 -0.339919,0.55 -0.816476,1 -1.059017,1 C 81.198442,122 81,121.55 81,121 z m 1,-5.05902 c 0,-0.58246 0.45,-0.7809 1,-0.44098 0.55,0.33992 1,0.81648 1,1.05902 C 84,116.80156 83.55,117 83,117 c -0.55,0 -1,-0.47656 -1,-1.05902 z M 85,115 c 0,-0.55 0.45,-1 1,-1 0.55,0 1,0.45 1,1 0,0.55 -0.45,1 -1,1 -0.55,0 -1,-0.45 -1,-1 z m 17,-11 c 0,-0.55 0.45,-1 1,-1 0.55,0 1,0.45 1,1 0,0.55 -0.45,1 -1,1 -0.55,0 -1,-0.45 -1,-1 z m 26.66667,-0.66667 c -1.21466,-1.21466 -0.69095,-2.27988 0.83333,-1.69496 0.825,0.31659 1.5,0.97746 1.5,1.46862 0,1.0484 -1.37764,1.18204 -2.33333,0.22634 z M 136,102.94098 c 0,-0.58246 0.45,-0.7809 1,-0.44098 0.55,0.33992 1,0.81648 1,1.05902 0,0.24254 -0.45,0.44098 -1,0.44098 -0.55,0 -1,-0.47656 -1,-1.05902 z m 3.5,0.059 c -0.33992,-0.55 -0.14148,-1 0.44098,-1 0.58246,0 1.05902,0.45 1.05902,1 0,0.55 -0.19844,1 -0.44098,1 -0.24254,0 -0.7191,-0.45 -1.05902,-1 z M 90,102.03138 c 0,-0.53273 0.675,-0.70959 1.5,-0.39301 0.825,0.31659 1.5,0.75246 1.5,0.96862 C 93,102.82314 92.325,103 91.5,103 90.675,103 90,102.56412 90,102.03138 z M 106.5,101 c 0.33992,-0.55 0.81648,-1 1.05902,-1 0.24254,0 0.44098,0.45 0.44098,1 0,0.55 -0.47656,1 -1.05902,1 -0.58246,0 -0.7809,-0.45 -0.44098,-1 z m 18,-2 c -0.33992,-0.55 -0.14148,-1 0.44098,-1 0.58246,0 1.05902,0.45 1.05902,1 0,0.55 -0.19844,1 -0.44098,1 -0.24254,0 -0.7191,-0.45 -1.05902,-1 z M 110,97.940983 c 0,-0.582459 0.45,-0.780902 1,-0.440983 0.55,0.339919 1,0.816476 1,1.059017 C 112,98.801558 111.55,99 111,99 c -0.55,0 -1,-0.476558 -1,-1.059017 z M 118,98 c 0,-0.55 0.45,-1 1,-1 0.55,0 1,0.45 1,1 0,0.55 -0.45,1 -1,1 -0.55,0 -1,-0.45 -1,-1 z M 99,96 c 0,-0.55 0.45,-1 1,-1 0.55,0 1,0.45 1,1 0,0.55 -0.45,1 -1,1 -0.55,0 -1,-0.45 -1,-1 z m 34.16167,-0.272081 c -1.83608,-0.587348 -4.02319,-2.11313 -4.86024,-3.390627 -1.78572,-2.725354 -1.08072,-6.824274 1.33307,-7.750529 2.53485,-0.972714 2.89411,0.171647 0.7854,2.501745 -1.87963,2.076968 -1.86949,2.128024 0.89523,4.506131 3.61932,3.113213 9.62405,3.353935 10.39218,0.416608 0.28604,-1.093814 0.91891,-1.742256 1.40638,-1.440983 C 144.51377,91.435559 144.1609,92.839102 142,95 c -2.19716,2.197158 -3.82604,2.331311 -8.83833,0.727919 z m -10.57872,-2.593704 c -0.43077,-0.697003 -0.51316,-1.537338 -0.18309,-1.867413 0.89497,-0.894961 1.87077,0.421303 1.38739,1.871444 -0.33872,1.016175 -0.57427,1.015386 -1.2043,-0.004 z M 94,92 c 0,-0.55 0.476558,-1 1.059017,-1 0.582459,0 0.780902,0.45 0.440983,1 -0.339919,0.55 -0.816476,1 -1.059017,1 C 94.198442,93 94,92.55 94,92 z m 20,-0.440983 C 114,90.701558 114.45,90 115,90 c 0.55,0 1,0.423442 1,0.940983 0,0.517541 -0.45,1.219098 -1,1.559017 -0.55,0.339919 -1,-0.08352 -1,-0.940983 z M 97,89 c 0,-0.55 0.45,-1 1,-1 0.55,0 1,0.45 1,1 0,0.55 -0.45,1 -1,1 -0.55,0 -1,-0.45 -1,-1 z m 23.51008,-2.016312 c 0.34546,-0.558971 1.04702,-0.757414 1.55902,-0.440983 C 123.45614,87.399945 123.19751,88 121.44098,88 c -0.85746,0 -1.27636,-0.45734 -0.9309,-1.016312 z M 113.5,86 c 0.33992,-0.55 0.81648,-1 1.05902,-1 0.24254,0 0.44098,0.45 0.44098,1 0,0.55 -0.47656,1 -1.05902,1 -0.58246,0 -0.7809,-0.45 -0.44098,-1 z m -10.42105,-2.583333 c 0.048,-1.164943 0.28494,-1.4019 0.60416,-0.604167 0.28887,0.721875 0.25335,1.584375 -0.0789,1.916667 -0.3323,0.332291 -0.56864,-0.258334 -0.52522,-1.3125 z M 107,84.071429 c 0,-0.510715 -0.72857,-1.657143 -1.61905,-2.547619 -0.89047,-0.890477 -1.34333,-1.894765 -1.00634,-2.231753 C 105.04349,78.623179 109,82.781189 109,84.15301 109,84.618854 108.55,85 108,85 c -0.55,0 -1,-0.417857 -1,-0.928571 z M 120,83 c 0,-0.55 0.45,-1 1,-1 0.55,0 1,0.45 1,1 0,0.55 -0.45,1 -1,1 -0.55,0 -1,-0.45 -1,-1 z m 5,-2 c 0,-0.55 0.45,-1 1,-1 0.55,0 1,0.45 1,1 0,0.55 -0.45,1 -1,1 -0.55,0 -1,-0.45 -1,-1 z M 114.22894,79.81318 C 114.72722,78.318343 117,77.495286 117,78.809678 c 0,0.536989 -0.7126,1.249795 -1.58356,1.584013 -0.97391,0.373726 -1.43108,0.150239 -1.1875,-0.580511 z M 121,76 c 0,-0.55 0.45,-1 1,-1 0.55,0 1,0.45 1,1 0,0.55 -0.45,1 -1,1 -0.55,0 -1,-0.45 -1,-1 z m 8,0 c 0,-0.55 0.45,-1 1,-1 0.55,0 1,0.45 1,1 0,0.55 -0.45,1 -1,1 -0.55,0 -1,-0.45 -1,-1 z m 58.7878,-0.545532 c -0.28008,-0.280081 -0.16739,-2.378631 0.25041,-4.663444 0.41781,-2.284813 0.60189,-4.63499 0.40906,-5.222615 -0.19283,-0.587625 -0.60336,-2.809156 -0.91229,-4.936736 -0.96752,-6.663136 -3.05221,-8.982298 -10.37787,-11.545126 -11.01561,-3.853726 -14.74507,-6.440758 -16.71283,-11.593275 -1.64224,-4.300141 -1.64051,-4.61896 0.0351,-6.470492 2.63032,-2.906467 7.37361,-4.103245 17.19351,-4.338094 10.01224,-0.239449 9.61527,-0.428058 18.98708,9.021115 3.87614,3.908136 7.49099,8.871365 9.75,13.386866 3.08717,6.17089 3.59003,8.149397 3.59003,14.125023 0,8.982055 -2.08358,8.764971 -2.33727,-0.243515 -0.22641,-8.039624 -4.45343,-17.09616 -11.85578,-25.40141 -6.70375,-7.521445 -9.3011,-8.73066 -18.75313,-8.73066 -13.03551,0 -17.45012,3.211856 -13.70096,9.968139 1.38911,2.503276 6.37616,6.172535 8.40382,6.183167 2.88768,0.01514 20.04104,7.516655 23.6214,10.330121 C 199.17551,58.307563 205,65.466576 205,67.150038 c 0,1.814083 -2.09969,0.725263 -3.18195,-1.650038 -1.47986,-3.247929 -1.991,-3.15677 -4.20529,0.75 -1.974,3.482794 -8.98159,10.047832 -9.82496,9.204468 z m 8.16701,-10.58786 c 2.78098,-4.948075 1.61585,-7.125763 -2.40346,-4.492208 -2.52987,1.65763 -3.70164,4.393062 -1.30135,3.037913 1,-0.564578 1,-0.436381 0,0.640983 -0.6875,0.740687 -1.25,2.367581 -1.25,3.615319 0,3.286724 2.2469,2.016074 4.95481,-2.802007 z M 193.25,59.607954 c 2.16738,-1.645274 2.29051,-3.029343 0.19806,-2.226397 -0.85356,0.327544 -1.33267,0.240757 -1.06468,-0.19286 0.26799,-0.433617 -0.34042,-1.305285 -1.35202,-1.937039 -1.46908,-0.917453 -1.79734,-0.862927 -1.63093,0.270904 0.11459,0.780752 0.49037,1.701569 0.83506,2.046259 0.34469,0.344691 0.38457,1.257716 0.0886,2.028945 -0.67147,1.749835 0.62823,1.75436 2.92589,0.01019 z M 126,72 c 0,-0.55 0.45,-1 1,-1 0.55,0 1,0.45 1,1 0,0.55 -0.45,1 -1,1 -0.55,0 -1,-0.45 -1,-1 z M 56.267653,61.186581 c -0.709921,-0.450947 0.413608,-0.762401 2.650289,-0.734688 2.135449,0.02646 3.675948,0.385607 3.42333,0.798107 -0.599314,0.978619 -4.497221,0.937918 -6.073619,-0.06342 z M 46.25,54.259603 c -10.413835,-0.591569 -7.109497,-2.258738 4.5,-2.270427 6.626128,-0.0067 12.633144,-0.582096 15.658931,-1.5 6.439347,-1.953444 8.233288,-1.967929 6.644578,-0.05365 C 71.684087,52.085579 59.469687,55.09381 55.302595,54.80732 53.761168,54.701347 49.6875,54.454874 46.25,54.259603 z M 196.07473,52.75 c -0.48167,-1.2375 -2.30166,-4.201572 -4.04442,-6.586828 -3.88345,-5.315146 -10.09863,-8.29582 -18.95066,-9.088351 -3.98188,-0.356502 -6.58498,-1.072896 -6.8538,-1.886221 -0.34274,-1.036971 0.89617,-1.165881 5.92035,-0.616015 8.3098,0.909457 15.8599,3.758231 19.02993,7.180297 C 194.62193,45.47264 199,52.175972 199,53.732135 199,55.828091 197.01318,55.161031 196.07473,52.75 z M 173,25.55136 c 0,-0.275 1.35,-1.198112 3,-2.05136 1.65,-0.853248 3,-1.32636 3,-1.05136 0,0.275 -1.35,1.198112 -3,2.05136 -1.65,0.853248 -3,1.32636 -3,1.05136 z m -7,-0.928915 c 0,-0.207656 0.7875,-0.995156 1.75,-1.75 1.58606,-1.243871 1.62143,-1.208501 0.37756,0.377555 C 166.82119,24.915748 166,25.445479 166,24.622445 z m 14.8107,-1.335759 2.31071,-1.886868 -3.81071,-0.110569 c -2.09588,-0.06081 -4.45958,0.411729 -5.25266,1.050091 -1.14941,0.925183 -1.26985,0.875098 -0.59363,-0.246864 0.65836,-1.092324 0.35264,-1.277896 -1.36519,-0.828674 -1.88965,0.494156 -2.02919,0.356744 -0.95369,-0.939157 1.91449,-2.306817 15.89926,-1.499071 18.75256,1.083129 C 192.36887,23.643796 192.59611,25 190.5,25 c -0.825,0 -1.5,-0.464501 -1.5,-1.032224 0,-1.781483 -4.34477,-2.874281 -6,-1.509121 -0.825,0.680425 -2.175,1.569633 -3,1.976017 -0.825,0.406385 -0.46018,-0.110209 0.8107,-1.147986 z M 165.5,22 c 0.99549,-1.1 2.03498,-2 2.30998,-2 0.275,0 -0.31449,0.9 -1.30998,2 -0.99549,1.1 -2.03498,2 -2.30998,2 -0.275,0 0.31449,-0.9 1.30998,-2 z"
     id="path11268"
     inkscape:connector-curvature="0"
     sodipodi:nodetypes="sssssssssssssssssscsssssssssssssssssssssssssssssssssssssssssssssssssssssssssssscsssssssssssssssscscsssscssssssssssssssssssssssssssssssssssssssssssssssssssssssssssssssssssssssssssssssssssssssssssssssssssssssssssssssssssssssssssssssssssssssssssssssssssssssssssssssscssccsssssssssssssssssssssssscscccssssssssssssssssssssssssssssssssssssssssssssssssssssssssscssssscccssssssssssssssssssssssssssssssssscssssssssssssssss" />
</svg>
