<?xml version="1.0" encoding="UTF-8" standalone="no"?>
<!-- Created with Inkscape (http://www.inkscape.org/) -->

<svg
   xmlns:dc="http://purl.org/dc/elements/1.1/"
   xmlns:cc="http://creativecommons.org/ns#"
   xmlns:rdf="http://www.w3.org/1999/02/22-rdf-syntax-ns#"
   xmlns:svg="http://www.w3.org/2000/svg"
   xmlns="http://www.w3.org/2000/svg"
   xmlns:sodipodi="http://sodipodi.sourceforge.net/DTD/sodipodi-0.dtd"
   xmlns:inkscape="http://www.inkscape.org/namespaces/inkscape"
   id="svg7639"
   version="1.1"
   inkscape:version="0.48.4 r9939"
   width="439.98056"
   height="481.15952"
   sodipodi:docname="Club.svg">
  <metadata
     id="metadata7645">
    <rdf:RDF>
      <cc:Work
         rdf:about="">
        <dc:format>image/svg+xml</dc:format>
        <dc:type
           rdf:resource="http://purl.org/dc/dcmitype/StillImage" />
        <dc:title />
      </cc:Work>
    </rdf:RDF>
  </metadata>
  <defs
     id="defs7643" />
  <sodipodi:namedview
     pagecolor="#ffffff"
     bordercolor="#666666"
     borderopacity="1"
     objecttolerance="10"
     gridtolerance="10"
     guidetolerance="10"
     inkscape:pageopacity="0"
     inkscape:pageshadow="2"
     inkscape:window-width="1268"
     inkscape:window-height="749"
     id="namedview7641"
     showgrid="false"
     inkscape:zoom="0.7444795"
     inkscape:cx="219.80973"
     inkscape:cy="179.61875"
     inkscape:window-x="0"
     inkscape:window-y="22"
     inkscape:window-maximized="0"
     inkscape:current-layer="svg7639"
     fit-margin-top="0"
     fit-margin-left="0"
     fit-margin-right="0"
     fit-margin-bottom="0" />
  <path
     style="fill:#a2661e;fill-opacity:1;stroke:none"
     d="m 2.2996943,444.24357 c 0.579064,21.79857 11.9201627,29.24775 24.9882787,34.39425 22.793331,-15.25269 41.44403,-39.1165 61.402208,-60.42837 54.780919,-58.4965 113.886059,-113.379 168.483839,-169.8313 44.70028,-46.21862 92.88839,-89.52316 140.19018,-133.15283 5.72439,-5.27999 10.05893,-11.39086 15.79548,-16.65858 8.58018,-7.878941 17.17084,-15.747245 25.76261,-23.614216 L 437.1496,50.754701 C 412.97438,34.163662 397.64578,1.9075556 364.62392,0.98156831 301.99176,82.18547 241.19137,167.42908 176.10549,243.23789 133.90383,292.39226 94.520551,345.50167 47.538052,392.51999 31.218551,408.85194 17.564035,427.44788 2.2996943,444.24357 z"
     id="path7651"
     inkscape:connector-curvature="0"
     sodipodi:nodetypes="ccsssscccssc" />
  <path
     style="fill:#707070;fill-opacity:1;stroke:none"
     d="m 351.43292,81.389794 c 1.43568,9.149319 -5.78579,13.970056 -8.69496,20.946956 -7.4148,2.1615 -15.07476,17.5121 -18.18036,-8.299748 0.25696,-6.749589 13.93537,-23.665313 26.87532,-12.647208 z"
     id="path8161"
     inkscape:connector-curvature="0"
     sodipodi:nodetypes="cccc" />
  <path
     style="fill:#707070;fill-opacity:1;stroke:none"
     d="m 370.35711,56.902971 c -0.46969,8.780709 3.64629,11.141508 10.61972,9.501851 6.71337,-6.863054 16.77288,-10.988344 15.9296,-24.034123 -3.29959,-8.423499 -9.12668,-7.368833 -15.37066,-4.750925 z"
     id="path8163"
     inkscape:connector-curvature="0"
     sodipodi:nodetypes="ccccc" />
  <path
     style="fill:#707070;fill-opacity:1;stroke:none"
     d="m 295.18061,91.556811 -1.11787,-16.209062 15.0912,-15.370659 7.26613,2.794673 z"
     id="path8165"
     inkscape:connector-curvature="0" />
  <path
     style="fill:#707070;fill-opacity:1;stroke:none"
     d="m 332.07019,37.619774 0,-12.017062 11.73759,-10.899196 2.79467,7.266136 z"
     id="path8167"
     inkscape:connector-curvature="0" />
  <path
     style="fill:#707070;fill-opacity:1;stroke:none"
     d="m 411.71815,88.762155 c 1.61647,5.259967 0.089,13.314485 7.82506,13.134925 5.98775,-8.341223 16.3154,-11.722517 17.60639,-25.431465 l -9.78133,-2.515194 c -7.96581,2.188145 -11.15155,9.15636 -15.65012,14.811734 z"
     id="path8169"
     inkscape:connector-curvature="0"
     sodipodi:nodetypes="ccccc" />
  <path
     style="fill:#707070;fill-opacity:1;stroke:none"
     d="m 363.6499,132.35892 c 0.41347,7.5324 -0.0995,16.06843 8.94294,14.2528 9.03268,-7.45925 18.33115,-14.38692 23.75465,-29.06452 l -14.2528,-1.11786 c -9.29096,0.0721 -13.41117,8.76198 -18.44479,15.92958 z"
     id="path8171"
     inkscape:connector-curvature="0"
     sodipodi:nodetypes="ccccc" />
  <path
     style="fill:#000000"
     d="m 26.028907,480.22098 c 0.01498,-0.76287 4.92516,-5.50657 10.910181,-10.54155 5.98502,-5.03498 18.892616,-17.75486 28.68355,-28.26641 46.850742,-50.29895 81.066022,-85.1328 117.519202,-119.6438 21.88839,-20.7222 49.33893,-48.1628 61.00118,-60.97912 25.29701,-27.80032 83.12086,-85.01552 103.50894,-102.41941 13.9568,-11.91394 17.45103,-15.92629 12.07218,-13.86225 -3.03373,1.16417 -3.26556,-1.23286 -0.41611,-4.30274 1.66446,-1.79323 1.66446,-2.00662 0,-1.0669 -1.14431,0.64606 -2.08057,0.41866 -2.08057,-0.50533 0,-0.92399 1.31076,-2.44343 2.9128,-3.37653 2.30504,-1.34257 2.39186,-1.71815 0.41611,-1.80011 -2.03974,-0.0846 -1.96832,-0.50476 0.39025,-2.29575 1.58781,-1.20572 2.39923,-2.67991 1.80316,-3.27598 -0.59608,-0.59608 0.12034,-1.08377 1.5921,-1.08377 1.47171,0 3.13877,0.74901 3.70455,1.66446 0.56578,0.91545 0.23549,1.66446 -0.73399,1.66446 -2.25872,0 -2.28424,7.5666 -0.0396,11.76062 2.33151,4.35643 5.35712,4.04977 11.5628,-1.17196 4.67073,-3.93017 14.95446,-19.46854 14.99434,-22.65597 0.008,-0.68659 -2.90028,-1.24835 -6.46413,-1.24835 -4.37325,0 -6.8082,-0.85591 -7.49006,-2.63282 -1.43383,-3.73649 -1.301,-4.03208 1.35394,-3.01328 1.53218,0.58795 2.62396,-0.45556 3.10225,-2.96505 0.66272,-3.47728 0.76112,-3.40536 0.96467,0.70498 0.12466,2.51749 1.02613,4.57726 2.00329,4.57726 1.01916,0 1.32615,-1.41927 0.72006,-3.32891 -0.76709,-2.41688 -0.29911,-3.32892 1.70811,-3.32892 1.52058,0 3.15641,1.49801 3.63521,3.32892 1.30753,5.00002 4.03937,4.08614 11.98424,-4.0091 5.21471,-5.31339 6.3612,-7.26513 4.15536,-7.07394 -1.82198,0.15796 -3.31639,-1.05258 -3.71821,-3.01187 -0.58356,-2.845286 -0.31844,-2.982603 2.01679,-1.04453 2.28026,1.89244 2.68866,1.83612 2.68866,-0.37087 0,-1.431234 -0.78537,-3.087651 -1.74528,-3.680897 -1.20918,-0.747324 -1.21362,-1.719251 -0.015,-3.164182 0.95195,-1.147044 1.23799,-2.57836 0.63564,-3.180727 -0.60188,-0.60235 -0.4907,-1.095196 0.24754,-1.095196 1.54551,0 5.73873,5.169703 5.81746,7.172178 0.0291,0.740616 -0.62622,0.926819 -1.4563,0.413817 -2.39928,-1.482848 -0.0513,5.408317 2.58953,7.599997 1.9199,1.59338 3.45511,0.94221 7.87226,-3.33907 3.01799,-2.925151 7.15477,-8.285367 9.19281,-11.911603 3.46891,-6.172088 3.50982,-6.593146 0.6405,-6.593146 -3.74394,0 -10.46359,-4.50189 -10.46359,-7.010176 0,-1.005432 1.36973,-0.588452 3.04386,0.926603 1.67413,1.515072 4.27692,2.754659 5.78399,2.754659 2.18688,0 2.52804,-1.060442 1.68969,-5.252176 -0.75092,-3.754599 -0.50175,-4.913077 0.87384,-4.062906 3.89677,2.408319 1.90445,-8.427045 -2.65298,-14.42841 -12.27361,-16.162308 -50.90901,-46.1636917 -59.449,-46.1636917 -1.40361,0 -2.55202,-0.7490055 -2.55202,-1.6644568 0,-10.1063151 43.93644,20.8344045 63.68187,44.8457745 6.03604,7.340088 6.07758,7.496697 5.54504,20.900368 -0.43569,10.966356 -1.31942,14.738531 -4.70138,20.068022 -6.16098,9.708859 -13.11149,16.057799 -16.58489,15.149489 -4.52881,-1.18431 -18.74117,12.55461 -24.85685,24.02879 -2.89912,5.4393 -8.24207,12.57369 -11.87324,15.85424 -5.41734,4.89425 -7.4808,5.78889 -11.49841,4.98538 -4.13929,-0.82785 -6.1039,0.14231 -12.70707,6.27493 -4.29593,3.98981 -14.33776,12.78047 -22.31518,19.53483 -7.97743,6.75435 -42.49091,41.11736 -76.69661,76.36223 -34.2057,35.24488 -73.36805,74.54525 -87.02745,87.33417 -24.45879,22.90009 -72.753809,72.24974 -99.424382,101.59551 -13.315787,14.65143 -41.139146,41.04845 -44.43006,42.1524 -0.909659,0.30516 -1.641171,-0.0694 -1.625591,-0.83223 z m -7.518385,-2.50025 C 9.1969543,472.57811 1.4987753,461.18602 0.13400426,450.52637 c -0.656046,-5.12418 0.627184,-7.11801 14.65835474,-22.77547 8.457554,-9.43784 19.483914,-22.02822 24.503034,-27.97866 5.019119,-5.95043 18.139982,-20.18153 29.157487,-31.62467 25.253871,-26.22951 44.28352,-48.43979 64.03091,-74.7331 8.52511,-11.35104 21.84125,-27.45466 29.59139,-35.78582 7.75014,-8.33117 20.50195,-23.01213 28.33733,-32.62437 7.83538,-9.61223 17.78382,-21.22182 22.10764,-25.79908 11.18194,-11.83735 31.53843,-38.42292 46.51813,-60.75267 7.0624,-10.52769 17.75404,-25.36768 23.7592,-32.97778 l 10.91847,-13.836513 -0.91632,-8.878396 c -0.90628,-8.780891 -0.83221,-8.9625 6.7451,-16.539807 6.06245,-6.06245 8.82751,-7.661427 13.24866,-7.661427 4.75702,0 6.43299,-1.174807 11.27889,-7.90617 4.89257,-6.796193 5.61291,-9.00035 5.13082,-15.699905 -0.5413,-7.522563 -0.25173,-8.086647 8.32228,-16.212225 6.83293,-6.475536 9.23052,-7.901143 10.38836,-6.176916 1.15702,1.722962 3.15084,0.524121 8.61831,-5.1820529 3.91219,-4.0829791 7.85888,-6.96267239 8.77042,-6.39930369 0.91156,0.56336869 -1.86987,4.64556569 -6.18091,9.07157259 -4.31106,4.42599 -12.46889,14.715978 -18.12853,22.86664 -18.989,27.346808 -34.76459,48.757814 -45.38246,61.594171 -13.0333,15.756442 -21.26342,26.910742 -34.87575,47.267022 -13.48534,20.16643 -34.71386,47.70943 -46.75331,60.66025 -5.15344,5.54354 -12.17668,13.8242 -15.60722,18.40145 -3.43055,4.57726 -15.80038,18.8448 -27.48849,31.70564 -11.68812,12.86084 -29.16839,33.833 -38.84503,46.60479 -9.67665,12.77179 -26.63374,33.48983 -37.682419,46.0401 -19.23366,21.8476 -22.596631,26.25816 -18.00796,23.6175 1.18888,-0.68416 1.4952,-0.55703 0.71475,0.29665 -0.7512,0.82168 -2.62371,1.50352 -4.16114,1.51521 -1.733346,0.0133 -2.609516,1.12783 -2.306252,2.93402 0.268993,1.60204 -0.292761,2.9128 -1.248342,2.9128 -0.955582,0 -1.748878,-0.93626 -1.76291,-2.08057 -0.01698,-1.38704 -0.563302,-1.24834 -1.638957,0.41611 -2.098947,3.24787 -2.109067,5.46461 -0.01897,4.17293 0.94924,-0.58667 1.219098,0.0939 0.637837,1.60871 -0.774422,2.01812 -1.535662,2.1873 -3.290149,0.73122 -1.764357,-1.46429 -2.531089,-1.24685 -3.377066,0.95772 -0.612204,1.59537 -0.175867,3.41986 0.990235,4.14054 1.306815,0.80766 1.462392,1.67303 0.416947,2.31915 -0.917266,0.5669 -2.129606,-0.17283 -2.69409,-1.64386 -0.824073,-2.1475 -1.507582,-2.27518 -3.468345,-0.64789 -1.81028,1.5024 -2.005321,2.84266 -0.753966,5.18083 1.151538,2.1517 1.140436,3.15413 -0.03495,3.15413 -0.947659,0 -1.723013,-1.16771 -1.723013,-2.59492 0,-1.44473 -0.802035,-2.09923 -1.809464,-1.4766 -0.995212,0.61506 -1.454485,2.47574 -1.020628,4.13484 0.517246,1.97794 0.0521,2.7338 -1.35109,2.19537 -3.276966,-1.2575 -4.526107,2.22566 -2.311431,6.44531 l 1.983617,3.77943 -3.825222,-3.32891 -3.825221,-3.32892 1.056947,5.8256 c 0.915551,5.04625 0.763669,5.44367 -1.13536,2.97072 -1.668767,-2.17309 -2.65549,-2.39172 -4.131747,-0.91545 -1.066684,1.06669 -1.927957,3.10039 -1.913942,4.51933 0.02247,2.27332 0.217228,2.28321 1.638974,0.0832 0.969479,-1.50016 1.623644,-1.70545 1.638957,-0.51435 0.03978,3.09743 -3.521192,4.5196 -5.064426,2.02258 -1.10951,-1.79522 -1.610029,-1.67072 -2.488679,0.61899 -0.604914,1.57638 -0.668712,3.98966 -0.141812,5.36283 0.52695,1.37318 0.232575,2.49669 -0.654148,2.49669 -0.886723,0 -1.612209,-0.84072 -1.612209,-1.86825 0,-1.30261 -0.745361,-1.2497 -2.461715,0.17476 -1.827757,1.51691 -2.026993,2.85531 -0.773673,5.19719 1.151554,2.15169 1.140452,3.15413 -0.03495,3.15413 -0.947658,0 -1.723012,-0.74901 -1.723012,-1.66446 0,-0.91545 -0.775371,-1.66446 -1.723029,-1.66446 -1.10698,0 -1.009543,1.33897 0.272505,3.74503 1.751624,3.2873 1.684064,3.48824 -0.552833,1.64393 -3.341746,-2.75524 -6.952569,0.9098 -4.584746,4.65361 0.849056,1.34247 1.528687,3.18986 1.510261,4.10531 -0.01847,0.91546 -1.023724,-0.122 -2.234,-2.30543 -1.389139,-2.50614 -2.623184,-3.28596 -3.34689,-2.11498 -0.630529,1.02021 -0.302082,3.43258 0.729864,5.3608 1.031964,1.92822 1.441104,3.94105 0.90921,4.47294 -0.531894,0.5319 -0.978551,0.2805 -0.992582,-0.55865 -0.01332,-0.83917 -0.695044,-2.58349 -1.513408,-3.87627 -2.6165257,-4.13342 -6.2348547,1.44235 -5.8458707,9.00834 0.573438,11.15307 10.4079637,24.13462 18.2838907,24.13462 1.481666,0 2.397467,0.88943 2.035098,1.97654 -0.943481,2.83044 -3.284023,3.18321 -7.108612,1.07139 z M 296.81722,78.115974 c -0.39673,-2.059766 -0.72133,-0.374503 -0.72133,3.745027 0,4.119531 0.3246,5.804793 0.72133,3.745028 0.39674,-2.059765 0.39674,-5.43029 0,-7.490055 z m 5.54277,-4.577257 -1.38331,-5.825598 -0.17038,7.406832 c -0.10586,4.603788 0.41762,6.808427 1.38332,5.825599 0.90921,-0.925338 0.97988,-3.997726 0.17037,-7.406833 z m 3.85077,-0.778932 c 0.51568,-1.343849 0.22132,-2.886068 -0.65415,-3.427133 -0.87547,-0.541082 -1.59177,0.558442 -1.59177,2.443372 0,4.018948 0.92562,4.424393 2.24592,0.983761 z m 4.41191,-6.711123 c 0,-2.288628 -0.74901,-4.161142 -1.66446,-4.161142 -1.85948,0 -2.28147,5.485983 -0.55481,7.21264 1.8348,1.834798 2.21927,1.30615 2.21927,-3.051498 z m 28.24214,-37.450277 c 0.94494,0 1.69426,-1.685263 1.66515,-3.745028 -0.0488,-3.451301 -0.22488,-3.518595 -2.24515,-0.858094 -1.20572,1.587808 -2.67991,2.399231 -3.27598,1.803156 -0.59606,-0.596075 -1.03629,1.475341 -0.97826,4.603122 0.0942,5.079223 0.26635,5.286714 1.61082,1.941871 0.82793,-2.059765 2.27845,-3.745027 3.22342,-3.745027 z m 5.047,-8.42052 c 0,-1.884931 -0.7163,-2.984455 -1.59177,-2.443373 -0.87548,0.541065 -1.16983,2.083284 -0.65415,3.427133 1.32029,3.440632 2.24592,3.035187 2.24592,-0.98376 z M 7.0649523,455.4672 c -1.606168,-4.1856 -1.132364,-5.26559 0.829781,-1.89139 0.971527,1.6707 1.415787,3.38827 0.98724,3.81681 -0.428548,0.42855 -1.246213,-0.4379 -1.817021,-1.92542 z M 366.79809,125.47877 c -1.60204,-0.32229 -2.9128,-1.33055 -2.9128,-2.24056 0,-0.91834 1.66642,-1.18584 3.74502,-0.60115 2.84376,0.79991 3.15578,0.64841 1.29655,-0.62956 -1.34666,-0.92564 -2.04099,-2.09048 -1.54295,-2.58853 0.49804,-0.49804 2.11621,0.023 3.59592,1.15784 3.26252,2.50217 0.42474,5.82868 -4.18174,4.90196 z m 6.44822,-8.33004 c -0.67937,-1.09922 -0.442,-1.99859 0.52748,-1.99859 0.96948,0 1.77416,-1.31076 1.78818,-2.9128 0.0218,-2.48928 0.26009,-2.54978 1.63897,-0.41612 0.88742,1.37318 1.61348,3.6202 1.61348,4.99337 0,2.04346 -0.26096,2.0848 -1.43748,0.22778 -1.1691,-1.8453 -1.57359,-1.86061 -2.16646,-0.0819 -0.55325,1.65972 -1.02675,1.70512 -1.96417,0.18834 z m -48.36875,-5.81541 c 0.62505,-1.64152 1.55575,-2.56529 2.06822,-2.05282 0.51247,0.51247 10e-4,1.85552 -1.13646,2.98458 -1.64385,1.6316 -1.83503,1.44042 -0.93176,-0.93176 z m 10.71196,-2.00878 c 0,-2.28863 0.64515,-4.16114 1.43365,-4.16114 0.7885,0 1.07569,1.87251 0.63818,4.16114 -0.4375,2.28863 -1.08262,4.16114 -1.43364,4.16114 -0.351,0 -0.63819,-1.87251 -0.63819,-4.16114 z m -6.54083,1.3069 c -0.17951,-3.10245 -6.30793,-5.90561 -7.76321,-3.55092 -0.78869,1.27612 -0.45513,1.47171 0.98839,0.57956 1.49626,-0.92474 1.77869,-0.69917 0.90153,0.72008 -0.96495,1.56133 -1.74007,1.59681 -3.16997,0.14514 -1.41729,-1.43887 -1.16755,-2.45734 0.99423,-4.05463 1.58781,-1.1732 2.46536,-2.55465 1.95013,-3.06988 -1.56559,-1.5656 -1.97571,-9.52412 -0.44195,-8.576195 0.78677,0.486238 1.43048,-0.658126 1.43048,-2.543057 0,-1.884931 0.74901,-3.42715 1.66446,-3.42715 0.91545,0 1.66446,-1.542219 1.66446,-3.42715 0,-2.005004 0.73717,-2.971538 1.77649,-2.329207 0.98537,0.608991 2.20004,-0.521741 2.72761,-2.539162 0.70019,-2.677512 1.30677,-3.061619 2.29918,-1.455884 0.99039,1.602489 1.78437,1.087789 2.99248,-1.939858 1.15941,-2.905592 1.67554,-3.261969 1.74993,-1.208279 0.0581,1.60204 0.90498,2.9128 1.88213,2.9128 1.04491,0 1.34275,-1.542403 0.72319,-3.745028 -0.8153,-2.898502 -0.66627,-3.180677 0.65936,-1.248343 2.00041,2.915962 5.4728,3.343112 7.2182,0.887921 0.77518,-1.090435 1.23218,-0.922541 1.24834,0.458658 0.015,1.237207 0.86703,1.658698 1.9728,0.975289 1.33572,-0.825521 1.58934,-0.270624 0.80749,1.76682 -0.90966,2.370503 -0.46843,2.794756 2.18495,2.100878 2.89531,-0.757128 3.09131,-0.433208 1.51735,2.50777 -1.37637,2.571752 -1.27023,3.717614 0.44498,4.804505 1.69105,1.07156 1.42274,1.440004 -1.07649,1.47827 -2.76125,0.04228 -2.90316,0.326117 -0.83223,1.664457 2.09996,1.357098 2.00146,1.617536 -0.61991,1.638974 -2.70264,0.02214 -2.81491,0.389 -0.84529,2.762266 2.02975,2.445685 1.83014,2.614265 -1.87676,1.584979 -3.44839,-0.957512 -3.65676,-0.84368 -1.23529,0.674836 1.60204,1.00465 2.9128,2.63014 2.9128,3.61221 0,1.21791 -0.72586,1.18314 -2.28329,-0.10936 -1.83277,-1.52105 -2.51744,-0.82231 -3.46994,3.54123 -1.01477,4.6488 -1.36824,4.96281 -2.44043,2.16794 -1.10841,-2.88928 -1.40234,-2.6963 -2.53497,1.66446 l -1.28116,4.9327 -1.5211,-3.98716 c -1.2445,-3.26212 -0.46092,-5.53215 4.30901,-12.483424 4.20053,-6.121456 5.54512,-9.569362 4.81057,-12.335439 -0.65635,-2.471519 -1.87954,-3.509158 -3.43363,-2.912799 -1.32774,0.509507 -3.77161,0.92637 -5.43082,0.92637 -1.65921,0 -5.34299,2.173015 -8.18615,4.828938 -4.30999,4.026138 -5.1694,6.081193 -5.1694,12.361384 0,4.98745 0.76676,7.71426 2.2694,8.07061 1.55845,0.36955 1.85582,1.58103 0.94921,3.86706 -0.7261,1.8309 -1.37283,2.41901 -1.43716,1.3069 z m 68.25714,-1.4456 c 0.0799,-1.93901 0.47427,-2.3334 1.0056,-1.00562 0.48081,1.20154 0.42169,2.63712 -0.13133,3.19022 -0.5531,0.55308 -0.94647,-0.43 -0.8742,-2.1846 z m 16.48154,-26.53071 c -1.75897,-2.119436 -1.65601,-2.362996 0.62843,-1.486376 1.50265,0.576617 2.7321,1.71727 2.7321,2.534784 0,2.140425 -0.9635,1.839824 -3.36053,-1.048408 z m 3.77665,-1.992937 c -1.14432,-0.408674 -2.08057,-1.964658 -2.08057,-3.457709 0,-2.47082 0.25273,-2.461932 2.81373,0.09904 3.00909,3.009105 2.66766,4.573211 -0.73316,3.358641 z m 4.57725,-4.62679 c -1.17635,-1.417419 -1.76432,-2.951632 -1.30659,-3.409357 0.45772,-0.457726 1.7947,0.327482 2.97105,1.7449 1.17636,1.417418 1.76432,2.951631 1.3066,3.409357 -0.45773,0.457725 -1.7947,-0.327482 -2.97106,-1.7449 z m -41.61142,-4.259379 c 0,-0.969479 -0.749,-1.299774 -1.66445,-0.733992 -0.93692,0.579048 -1.60702,-0.651202 -1.53305,-2.814563 0.0722,-2.113793 0.49822,-2.93993 0.94654,-1.835846 0.96948,2.387497 14.73444,-12.57567 16.40204,-17.829827 1.92312,-6.059172 -0.40528,-11.641127 -4.85585,-11.641127 -4.57203,0 -13.47581,9.299369 -17.01584,17.771854 -2.11285,5.056786 -6.85991,8.256255 -5.11871,3.449969 0.41455,-1.144314 -0.45929,-3.518328 -1.94187,-5.275612 -2.49622,-2.958705 -2.48643,-3.118859 0.13249,-2.165325 2.15003,0.782827 2.57412,0.351683 1.76894,-1.798346 -0.90418,-2.414361 -0.6688,-2.510883 1.60925,-0.659824 2.2695,1.844102 2.83422,1.645582 3.77806,-1.328219 0.61477,-1.936945 0.2151,-4.57436 -0.89606,-5.913233 -2.45128,-2.953612 0.21202,-3.229212 3.24939,-0.336237 1.78638,1.701441 1.95494,1.324708 0.92504,-2.067521 -1.1721,-3.860558 -1.0481,-3.975938 1.78902,-1.664457 2.77467,2.260615 2.94399,2.205438 1.88566,-0.614484 -0.90187,-2.403026 -0.55677,-2.865596 1.53815,-2.061696 1.80019,0.690799 2.42346,0.313484 1.86898,-1.131465 -1.2391,-3.229046 7.10443,-3.392429 10.62316,-0.208024 1.61919,1.465338 3.74019,2.172183 4.71333,1.570748 0.97306,-0.601418 1.76927,-0.300301 1.76927,0.669179 0,0.969479 -0.74901,1.762693 -1.66446,1.762693 -0.91545,0 -1.66446,0.836356 -1.66446,1.858582 0,1.038821 1.46755,1.474808 3.32725,0.988487 1.83,-0.478547 3.69408,-0.276566 4.14243,0.448871 0.44834,0.725437 -0.81961,1.746465 -2.81767,2.268971 -3.45706,0.90405 -3.49448,1.102869 -0.77337,4.10966 3.69754,4.085726 2.06098,9.803701 -1.88796,6.596359 -2.17527,-1.766738 -2.45698,-1.702556 -1.67864,0.382392 1.05117,2.815795 -2.59973,7.076921 -4.54157,5.300679 -0.69045,-0.631561 -0.83233,0.567746 -0.31532,2.665112 0.81161,3.292378 0.44719,3.664801 -2.66704,2.725731 -2.86358,-0.863504 -3.19627,-0.65548 -1.61401,1.009243 1.56326,1.6447 1.14768,2.7619 -1.92699,5.180439 -4.47168,3.51743 -5.89168,3.835774 -5.89168,1.320829 z M 369.80867,70.36801 c -0.6106,-0.987971 -0.37101,-3.112983 0.53243,-4.72228 1.55778,-2.774899 1.70277,-2.769806 2.80777,0.0987 1.34147,3.482326 -1.56179,7.501107 -3.3402,4.623577 z m 57.32597,-1.822663 c -1.20789,-2.256987 -1.22675,-3.328913 -0.0586,-3.328913 0.94765,0 2.24768,-0.05559 2.88894,-0.123503 0.64127,-0.06791 1.74064,1.430118 2.44306,3.328913 1.70763,4.616088 -2.8124,4.721914 -5.27342,0.123503 z"
     id="path7649"
     inkscape:connector-curvature="0" />
</svg>
