<?xml version="1.0" encoding="UTF-8" standalone="no"?>
<!-- Created with Inkscape (http://www.inkscape.org/) -->

<svg
   xmlns:dc="http://purl.org/dc/elements/1.1/"
   xmlns:cc="http://creativecommons.org/ns#"
   xmlns:rdf="http://www.w3.org/1999/02/22-rdf-syntax-ns#"
   xmlns:svg="http://www.w3.org/2000/svg"
   xmlns="http://www.w3.org/2000/svg"
   xmlns:sodipodi="http://sodipodi.sourceforge.net/DTD/sodipodi-0.dtd"
   xmlns:inkscape="http://www.inkscape.org/namespaces/inkscape"
   id="svg8243"
   version="1.1"
   inkscape:version="0.48.4 r9939"
   width="299"
   height="285"
   sodipodi:docname="DeckofCards.png">
  <metadata
     id="metadata8249">
    <rdf:RDF>
      <cc:Work
         rdf:about="">
        <dc:format>image/svg+xml</dc:format>
        <dc:type
           rdf:resource="http://purl.org/dc/dcmitype/StillImage" />
        <dc:title></dc:title>
      </cc:Work>
    </rdf:RDF>
  </metadata>
  <defs
     id="defs8247" />
  <sodipodi:namedview
     pagecolor="#ffffff"
     bordercolor="#666666"
     borderopacity="1"
     objecttolerance="10"
     gridtolerance="10"
     guidetolerance="10"
     inkscape:pageopacity="0"
     inkscape:pageshadow="2"
     inkscape:window-width="1208"
     inkscape:window-height="751"
     id="namedview8245"
     showgrid="false"
     inkscape:zoom="1.6561404"
     inkscape:cx="142.51476"
     inkscape:cy="138.69632"
     inkscape:window-x="2"
     inkscape:window-y="22"
     inkscape:window-maximized="0"
     inkscape:current-layer="svg8243" />
  <path
     style="fill:#837151;fill-opacity:0.52631579;stroke:none"
     d="M 6.6419492,132.23517 C 54.573549,93.118538 118.23569,54.998285 182.3517,16.90678 c 13.6698,10.98425 54.5835,71.322912 76.0805,107.47881 l 1.20763,18.11441 18.11441,67.62712 c -23.50688,15.85677 -52.87761,27.9183 -81.81674,36.83262 -36.53072,9.35911 -78.48751,25.95299 -109.592161,28.07734 L 75.476695,266.88559 C 59.202678,221.33503 30.051687,177.07216 6.6419492,132.23517 z"
     id="path8255"
     inkscape:connector-curvature="0"
     sodipodi:nodetypes="ccccccccc" />
  <path
     style="fill:#ff1d00;fill-opacity:1;stroke:none"
     d="m 204.30068,140.47382 c -6.2884,5.48722 -1.14161,7.54388 0.42696,10.67401 l 7.89877,-0.42696 -0.64044,-8.96617 z"
     id="path8765"
     inkscape:connector-curvature="0"
     sodipodi:nodetypes="ccccc" />
  <path
     style="fill:#ff1d00;fill-opacity:1;stroke:none"
     d="m 215.29491,133.5357 0.96067,8.53922 6.29767,1.17414 1.28088,-7.47181 c -2.91648,-2.14873 -5.89343,-5.50671 -8.53922,-2.24155 z"
     id="path8767"
     inkscape:connector-curvature="0"
     sodipodi:nodetypes="ccccc" />
  <path
     style="fill:#ff1d00;fill-opacity:1;stroke:none"
     d="m 225.86219,127.77174 c -0.62102,2.82605 0.55838,5.69534 5.12353,8.64595 l 2.34828,-2.98873 c -2.77768,-6.47902 -5.2634,-8.28655 -7.47181,-5.65722 z"
     id="path8769"
     inkscape:connector-curvature="0"
     sodipodi:nodetypes="cccc" />
  <path
     style="fill:#ff1d00;fill-opacity:1;stroke:none"
     d="m 228.95766,120.5134 4.69656,4.48309 c 2.4846,1.48529 4.63569,3.36472 10.14032,1.28088 l 1.28088,-3.52242 c -5.37259,-2.65802 -10.74517,-6.15889 -16.11776,-2.24155 z"
     id="path8771"
     inkscape:connector-curvature="0"
     sodipodi:nodetypes="ccccc" />
  <path
     style="fill:#ff1d00;stroke:none;stroke-width:1px;stroke-linecap:butt;stroke-linejoin:miter;stroke-opacity:1;fill-opacity:1"
     d="m 224.36783,112.08093 0.85392,2.34829 7.25833,0.5337 1.0674,-6.61789 -5.55049,-1.81459 z"
     id="path8773"
     inkscape:connector-curvature="0" />
  <path
     style="fill:#ff1d00;stroke:none;stroke-width:1px;stroke-linecap:butt;stroke-linejoin:miter;stroke-opacity:1;fill-opacity:1"
     d="m 219.67126,95.963166 -2.1348,8.218994 9.28639,2.34828 2.13481,-8.53921 -4.48309,-2.668505 -4.26961,0.533701 z"
     id="path8775"
     inkscape:connector-curvature="0" />
  <path
     style="fill:#ff1d00;stroke:none;stroke-width:1px;stroke-linecap:butt;stroke-linejoin:miter;stroke-opacity:1;fill-opacity:1"
     d="m 213.48033,86.036331 -2.24154,5.123528 5.97745,3.415685 4.91005,-4.162866 z"
     id="path8777"
     inkscape:connector-curvature="0" />
  <path
     style="fill:#ff1d00;stroke:none;stroke-width:1px;stroke-linecap:butt;stroke-linejoin:miter;stroke-opacity:1;fill-opacity:1"
     d="m 204.19394,78.244299 0.21348,-4.376347 8.85943,1.067402 0.10674,5.763969 -3.09546,2.881984 z"
     id="path8779"
     inkscape:connector-curvature="0" />
  <path
     style="fill:#ff1d00;stroke:none;stroke-width:1px;stroke-linecap:butt;stroke-linejoin:miter;stroke-opacity:1;fill-opacity:1"
     d="m 196.18842,61.486093 -2.1348,6.084189 5.12353,3.735906 3.52242,-0.10674 3.73591,-5.443749 -4.58983,-4.589827 z"
     id="path8781"
     inkscape:connector-curvature="0" />
  <path
     style="fill:#ff1d00;stroke:none;stroke-width:1px;stroke-linecap:butt;stroke-linejoin:miter;stroke-opacity:1;fill-opacity:1"
     d="m 190.42446,58.283888 5.8707,-0.21348 0.96067,-3.629166 -6.51115,-4.803308 -2.88199,2.241544 z"
     id="path8783"
     inkscape:connector-curvature="0" />
  <path
     style="fill:#ff1d00;stroke:none;stroke-width:1px;stroke-linecap:butt;stroke-linejoin:miter;stroke-opacity:1;fill-opacity:1"
     d="m 177.5089,35.975193 1.38762,10.674017 2.77524,2.561764 4.05613,-2.775245 -1.6011,-10.460536 -3.20221,-2.455024 z"
     id="path8785"
     inkscape:connector-curvature="0" />
  <path
     style="fill:#ff1d00;stroke:none;stroke-width:1px;stroke-linecap:butt;stroke-linejoin:miter;stroke-opacity:1;fill-opacity:1"
     d="m 168.86294,40.03132 6.61789,1.601102 -0.21348,7.151591 -4.58982,1.280882 -4.58983,-8.005512 z"
     id="path8787"
     inkscape:connector-curvature="0" />
  <path
     style="fill:#ff1d00;stroke:none;stroke-width:1px;stroke-linecap:butt;stroke-linejoin:miter;stroke-opacity:1;fill-opacity:1"
     d="m 158.82937,49.531194 5.01678,7.044851 2.13481,-2.134803 1.70784,-5.230268 -4.16287,-3.095465 -4.8033,1.601102 z"
     id="path8789"
     inkscape:connector-curvature="0" />
  <path
     style="fill:#ff1d00;stroke:none;stroke-width:1px;stroke-linecap:butt;stroke-linejoin:miter;stroke-opacity:1;fill-opacity:1"
     d="m 149.64971,51.879478 -0.64044,7.044851 1.70784,2.241543 5.55049,-0.5337 0.64044,-3.735906 -1.0674,-2.988725 z"
     id="path8791"
     inkscape:connector-curvature="0" />
  <path
     style="fill:#ff1d00;stroke:none;stroke-width:1px;stroke-linecap:butt;stroke-linejoin:miter;stroke-opacity:1;fill-opacity:1"
     d="m 135.88023,59.35129 0.10674,8.218992 3.41569,2.455024 6.51115,-2.455024 0.5337,-5.763969 -6.29767,-3.735905 z"
     id="path8793"
     inkscape:connector-curvature="0" />
  <path
     style="fill:#ff1d00;stroke:none;stroke-width:1px;stroke-linecap:butt;stroke-linejoin:miter;stroke-opacity:1;fill-opacity:1"
     d="m 123.60511,67.997243 2.66851,8.432473 6.40441,-1.494362 -0.42696,-5.230268 -3.20221,-3.202205 -5.23027,0.32022 z"
     id="path8795"
     inkscape:connector-curvature="0" />
  <path
     style="fill:#ff1d00;stroke:none;stroke-width:1px;stroke-linecap:butt;stroke-linejoin:miter;stroke-opacity:1;fill-opacity:1"
     d="m 113.25132,73.974692 7.25833,1.280882 -0.5337,7.044851 -7.57856,-0.640441 -0.74718,-3.842646 z"
     id="path8797"
     inkscape:connector-curvature="0" />
  <path
     style="fill:#ff1d00;stroke:none;stroke-width:1px;stroke-linecap:butt;stroke-linejoin:miter;stroke-opacity:1;fill-opacity:1"
     d="m 99.588575,81.233024 6.190925,-1.494363 2.34829,2.241544 0.42696,3.415685 -3.52243,5.123528 -4.05612,-0.747181 -1.707846,-4.803308 z"
     id="path8799"
     inkscape:connector-curvature="0" />
  <path
     style="fill:#ff1d00;stroke:none;stroke-width:1px;stroke-linecap:butt;stroke-linejoin:miter;stroke-opacity:1;fill-opacity:1"
     d="m 88.685117,88.685116 0.90572,7.925053 3.698358,1.434057 2.943591,-1.35858 2.717161,-3.698358 -3.849311,-4.604079 -5.660752,-1.81144 z"
     id="path8801"
     inkscape:connector-curvature="0" />
  <path
     style="fill:#ff1d00;stroke:none;stroke-width:1px;stroke-linecap:butt;stroke-linejoin:miter;stroke-opacity:1;fill-opacity:1"
     d="m 81.967691,102.79926 5.660752,-5.358847 -6.415519,-4.679555 -1.886917,4.528601 1.207627,5.660751 z"
     id="path8803"
     inkscape:connector-curvature="0" />
  <path
     style="fill:#ff1d00;stroke:none;stroke-width:1px;stroke-linecap:butt;stroke-linejoin:miter;stroke-opacity:1;fill-opacity:1"
     d="m 68.985699,102.3464 -0.150953,5.5098 1.811441,1.73596 5.207892,0.52834 1.434057,-3.09455 -0.67929,-4.90598 -7.698623,-0.37739 z"
     id="path8805"
     inkscape:connector-curvature="0" />
  <path
     style="fill:#ff1d00;stroke:none;stroke-width:1px;stroke-linecap:butt;stroke-linejoin:miter;stroke-opacity:1;fill-opacity:1"
     d="m 57.588718,109.66764 3.170022,-1.9624 4.981461,2.03787 0.301907,6.64195 -4.604078,0.52834 -3.622882,-2.49073 z"
     id="path8807"
     inkscape:connector-curvature="0" />
  <path
     style="fill:#ff1d00;stroke:none;stroke-width:1px;stroke-linecap:butt;stroke-linejoin:miter;stroke-opacity:1;fill-opacity:1"
     d="m 47.172934,117.44174 0.07548,5.13241 2.339778,2.41526 4.905985,-0.30191 2.339777,-4.15122 -6.566472,-5.13241 z"
     id="path8809"
     inkscape:connector-curvature="0" />
  <path
     style="fill:#ff1d00;stroke:none;stroke-width:1px;stroke-linecap:butt;stroke-linejoin:miter;stroke-opacity:1;fill-opacity:1"
     d="m 37.662871,126.9518 3.471928,-0.45286 0.377383,3.54741 -3.094544,0 z"
     id="path8811"
     inkscape:connector-curvature="0" />
  <path
     style="fill:#ff1d00;stroke:none;stroke-width:1px;stroke-linecap:butt;stroke-linejoin:miter;stroke-opacity:1;fill-opacity:1"
     d="m 21.737288,130.49921 13.208422,1.73596 1.056674,2.94359 -7.623147,4.2267 -8.755296,-2.86812 z"
     id="path8813"
     inkscape:connector-curvature="0" />
  <path
     style="fill:#ff1d00;stroke:none;stroke-width:1px;stroke-linecap:butt;stroke-linejoin:miter;stroke-opacity:1;fill-opacity:1"
     d="m 34.568326,142.12262 5.962659,4.5286 1.509534,5.8117 -5.660752,1.50954 -6.113612,-2.2643 1.056673,-7.7741 z"
     id="path8815"
     inkscape:connector-curvature="0" />
  <path
     style="fill:#ff1d00;stroke:none;stroke-width:1px;stroke-linecap:butt;stroke-linejoin:miter;stroke-opacity:1;fill-opacity:1"
     d="m 40.832892,155.48199 -0.07548,7.92505 4.679555,2.79264 2.490731,5.96266 4.377649,4.5286 3.773834,-1.2831 1.811441,-5.13242 -3.924788,-9.51006 -7.094809,-6.03814 -5.509799,-0.60381 z"
     id="path8817"
     inkscape:connector-curvature="0" />
  <path
     style="fill:#ff1d00;stroke:none;stroke-width:1px;stroke-linecap:butt;stroke-linejoin:miter;stroke-opacity:1;fill-opacity:1"
     d="m 57.966102,178.20048 7.623146,1.43405 12.076271,16.45392 -4.830508,4.5286 -7.472193,-1.13215 -1.735964,-7.7741 -4.981462,-1.96239 -3.094544,-6.18909 z"
     id="path8819"
     inkscape:connector-curvature="0" />
  <path
     style="fill:#ff1d00;stroke:none;stroke-width:1px;stroke-linecap:butt;stroke-linejoin:miter;stroke-opacity:1;fill-opacity:1"
     d="M 193.21875 146.28125 L 186.875 150.125 L 149.59375 172.90625 L 132.625 185.21875 L 122.875 191.875 L 127.4375 189.25 L 126.6875 194.46875 L 122.125 193.40625 L 122.4375 192.1875 L 117.375 195.625 L 102.5625 204.625 L 89.96875 212.09375 L 85.375 208.40625 L 80.21875 203.1875 L 73.96875 204.09375 L 73 207.5625 L 74.9375 213 L 79.25 214.65625 L 85.59375 209.8125 L 88.21875 211.03125 L 84.3125 216.53125 L 83.78125 223.40625 L 88.625 228.625 L 91.9375 224.46875 L 92 212 L 94.5 210.71875 L 97.96875 218.8125 L 103.71875 219.875 L 105.65625 216.25 L 100.90625 207.03125 L 104.84375 203.875 L 106.65625 205.53125 L 107.03125 209.0625 L 111.78125 213.53125 L 116.46875 210.125 L 117.96875 205.0625 L 112 199.875 L 116.15625 197.90625 L 118.5 202.8125 L 122.03125 205.0625 L 126.71875 203.875 L 127.90625 203.40625 L 128.5 198.75 L 133.28125 198.96875 L 133.53125 198.59375 L 135.84375 195.34375 L 137.96875 190.4375 L 145 191.875 L 156.84375 183.03125 L 158.0625 179.1875 L 156.6875 175.09375 L 152.25 173.4375 L 152.75 171.78125 L 158.96875 168.90625 L 159.1875 175.71875 L 164.15625 178.96875 L 168.09375 177.96875 L 168 172.46875 L 160.46875 167.25 L 169.53125 162.5625 L 168.25 169.53125 L 171.78125 172.78125 L 177.53125 171.875 L 179.9375 165.8125 L 176.375 162.28125 L 171.1875 161.28125 L 179.1875 155.84375 L 180.375 163.71875 L 185.4375 165.65625 L 187.875 164.25 L 191.1875 159.34375 L 188.90625 155.625 L 184 153.4375 L 190.8125 148.3125 L 192.09375 154.71875 L 196.625 158.125 L 198.875 157.0625 L 199.25 150.8125 L 193.21875 146.28125 z M 149.21875 174.625 L 147.71875 179.875 L 144.625 180.5 L 142.8125 178.375 L 149.21875 174.625 z M 136.40625 183.8125 L 137.375 188.625 L 133.96875 187.125 L 132.90625 185.625 L 136.40625 183.8125 z M 132.5 200.09375 L 130.34375 202.40625 L 131.09375 202.125 L 132.5 200.09375 z "
     id="path8821" />
  <path
     style="fill:#ff1d00;fill-opacity:1;stroke:none"
     d="M 180.40625,51.25 174,52.53125 C 149.91094,64.161053 128.06929,78.037981 106.9375,92.625 84.285249,108.26157 28.270086,137.87514 39.5,140.03125 55.471277,163.65971 70.174064,186.77312 89.875,212 c 44.97319,-25.97216 89.93306,-57.64662 134.90625,-86.46875 l -0.625,-8.3125 C 210.27019,94.809215 196.99961,72.035153 180.40625,51.25 z m -3,21.96875 C 190.63468,86.788439 197.59272,102.44826 206,117.625 c -9.2877,9.34802 -22.33276,17.93669 -37.36683,26.45374 -23.38595,13.24852 -48.80685,35.33797 -74.487091,45.69724 C 82.973244,185.25791 65.700761,155.7316 58.5,141.96875 73.073594,128.87242 98.045579,117.96957 116.19373,106.20653 136.54654,93.014496 156.28191,77.671726 177.40625,73.21875 z"
     id="path8841"
     inkscape:connector-curvature="0"
     sodipodi:nodetypes="ccscccccccsccsc" />
  <path
     style="fill:#ff1d00;fill-opacity:1;stroke:none"
     d="m 114.85242,105.67652 c -16.685535,12.05398 -19.804065,36.05563 -4.48309,48.887 10.62136,8.14468 23.48795,6.41037 36.9321,2.1348 21.62553,-16.83331 5.88379,-39.99174 5.33701,-43.33651 -11.08072,-10.35123 -22.76603,-17.593177 -37.78602,-7.68529 z"
     id="path8846"
     inkscape:connector-curvature="0"
     sodipodi:nodetypes="ccccc" />
  <path
     style="fill:#000000"
     d="m 81.827543,275.83916 c -3.24128,-1.41181 -8.45042,-6.93427 -8.45042,-8.95868 0,-0.66651 -0.91634,-2.99449 -2.0363,-5.17328 -2.49846,-4.86056 -9.4309,-21.04299 -10.4791,-24.46144 -1.31683,-4.29448 -7.43641,-16.31727 -9.39475,-18.45733 -2.22233,-2.42853 -7.08985,-11.91136 -7.08985,-13.81232 0,-1.97745 -7.10023,-16.27244 -11.78671,-23.73035 -7.8928,-12.56033 -9.07698,-14.56761 -13.2737,-22.5 -2.32787,-4.4 -6.19441,-11.23566 -8.59231,-15.19035 -2.3978998,-3.9547 -4.4438698,-8.2297 -4.5465998,-9.5 -0.31906,-3.94509 3.01006,-7.49334 13.5412498,-14.4326 5.58693,-3.68137 14.43307,-9.88472 19.65807,-13.78522 13.1574,-9.822112 30.43463,-20.927562 61.499997,-39.530958 3.85,-2.30556 9.7,-5.948482 13,-8.095382 3.3,-2.146901 9.15,-5.786963 13,-8.089027 3.85,-2.302064 13.075,-8.083452 20.5,-12.847528 21.67805,-13.909206 33.8183,-21.028932 35.85764,-21.028932 1.92475,0 5.86203,4.326445 14.03161,15.418546 7.55532,10.25809 17.10346,24.635483 19.57763,29.47957 2.4445,4.786016 3.87689,6.790259 19.42158,27.175239 5.16366,6.77151 11.44731,15.712672 13.96367,19.869242 2.51636,4.15657 5.54954,9.00237 6.7404,10.76844 1.48795,2.20667 2.38616,5.56912 2.87165,10.75 0.38855,4.14643 1.17317,7.53896 1.74358,7.53896 0.6781,0 0.65156,0.46458 -0.0766,1.34201 -0.61257,0.7381 -0.83241,1.62337 -0.48853,1.96725 0.34389,0.34388 0.7563,1.81913 0.91648,3.27832 0.46596,4.24474 2.80125,11.41242 3.71826,11.41242 0.46239,0 0.60602,0.37973 0.31918,0.84385 -0.61574,0.99628 0.77887,6.67401 3.35433,13.65615 1.01438,2.75 3.27168,9.65969 5.01624,15.35488 5.10421,16.66296 5.8832,25.14512 2.3093,25.14512 -0.98975,0 -1.27202,-0.56898 -0.84033,-1.69393 0.5907,-1.53935 0.48639,-1.55339 -1.14302,-0.15379 -1.95767,1.68157 -14.55659,6.86805 -16.55355,6.81445 -0.68171,-0.0183 -0.2335,-0.87265 0.99604,-1.89857 1.89369,-1.58007 1.99457,-1.95776 0.65976,-2.46997 -0.86667,-0.33257 -1.98516,-0.35166 -2.48552,-0.0424 -0.50041,0.30923 -0.9098,0.0857 -0.9098,-0.49677 0,-0.58246 0.64844,-1.05902 1.44098,-1.05902 0.79254,0 1.71592,-0.44485 2.05194,-0.98855 0.35716,-0.57789 -0.13758,-0.75169 -1.19098,-0.41836 -1.60965,0.50933 -1.59479,0.4014 0.13919,-1.01145 1.06762,-0.8699 2.33168,-1.58164 2.80902,-1.58164 0.47733,0 0.60569,-0.42424 0.28523,-0.94275 -0.32046,-0.51851 1.45299,-1.84321 3.94099,-2.94377 2.48799,-1.10056 4.52363,-2.25736 4.52363,-2.57067 0,-0.31331 -1.6875,0.16031 -3.75,1.05248 -2.0625,0.89217 -4.65,1.83725 -5.75,2.10017 -1.68548,0.40286 -1.76411,0.29482 -0.5,-0.687 1.22363,-0.95038 0.99332,-1.08404 -1.25,-0.72542 -4.46619,0.71397 -3.16937,-0.81631 3.29241,-3.88512 6.8337,-3.24544 6.4654,-4.60083 -0.42229,-1.55408 -3.711,1.64155 -4.56647,1.73836 -5.01572,0.56763 -0.2979,-0.77631 -1.13311,-1.41147 -1.85604,-1.41147 -0.7922,0 -1.27348,-1.09256 -1.2114,-2.75 0.0841,-2.24662 1.0635,-3.27159 5.35025,-5.59944 6.28887,-3.41508 6.12155,-4.63272 -0.24935,-1.81457 -3.86738,1.71073 -5.59899,1.94977 -8.63786,1.19242 -0.275,-0.0685 2.0875,-1.46018 5.25,-3.09254 3.1625,-1.63236 5.75,-3.1933 5.75,-3.46875 0,-0.27545 -2.29475,0.66202 -5.09943,2.08327 -2.80469,1.42124 -5.35469,2.32882 -5.66667,2.01684 -0.74056,-0.74056 -0.71481,-0.75706 6.13799,-3.93432 3.22955,-1.49735 5.63679,-2.95756 5.34944,-3.24491 -0.28735,-0.28736 -2.92971,0.65722 -5.8719,2.09905 -4.70888,2.30762 -5.05007,2.36515 -2.84943,0.48046 1.375,-1.17758 1.96859,-1.86967 1.3191,-1.53797 -0.6495,0.33169 -1.42473,0.20856 -1.72275,-0.27364 -0.29802,-0.4822 1.26763,-1.69269 3.47921,-2.68997 2.21158,-0.99729 4.27136,-2.21825 4.57729,-2.71324 0.30592,-0.495 -1.34698,0.0709 -3.67312,1.25765 -2.32613,1.18671 -5.14593,1.91795 -6.26621,1.625 -1.12028,-0.29296 -2.90265,-0.0693 -3.96084,0.49702 -1.05818,0.56632 -2.16484,0.78881 -2.45924,0.49441 -0.2944,-0.2944 1.54414,-1.54553 4.08564,-2.78029 2.54151,-1.23475 4.62092,-2.61449 4.62092,-3.06607 0,-0.45158 -1.84361,0.11948 -4.09691,1.26903 -2.25329,1.14954 -4.32403,1.86295 -4.60163,1.58535 -0.27761,-0.2776 2.5785,-2.08686 6.3469,-4.02058 3.7684,-1.93371 6.50291,-3.53798 6.07668,-3.56503 -0.42623,-0.0271 -3.95985,1.5547 -7.85249,3.515 -3.89263,1.9603 -7.30001,3.34169 -7.57194,3.06976 -0.27193,-0.27193 1.34919,-1.43496 3.60248,-2.5845 3.9113,-1.9954 5.74894,-3.89736 2.59691,-2.68781 -2.5715,0.98677 -1.65055,-0.10547 1.98176,-2.35036 1.91497,-1.18352 4.0095,-1.82569 4.65451,-1.42705 0.70527,0.43588 0.90606,0.29329 0.50372,-0.35772 -0.36797,-0.59538 0.2375,-1.37023 1.34549,-1.72189 1.10799,-0.35166 2.01452,-1.10721 2.01452,-1.67899 0,-0.59121 -0.75479,-0.73642 -1.75,-0.33667 -4.12563,1.65714 -4.60542,1.57746 -2.25,-0.37363 3.18535,-2.63855 1.49754,-2.71605 -2.75,-0.12628 -3.43976,2.09726 -4.45521,1.66992 -1.5,-0.63125 1.62877,-1.2683 1.61145,-1.32223 -0.25,-0.77861 -1.97262,0.57609 -1.97342,0.56244 -0.0589,-0.99754 2.23203,-1.81867 3.99896,-2.10274 2.99721,-0.48187 -0.47771,0.77295 -0.0495,0.76249 1.44098,-0.0352 2.56755,-1.3741 2.78391,-2.21469 0.37068,-1.44011 -1.14595,0.36782 -0.88707,-0.15309 0.75,-1.50915 3.26055,-2.70084 1.67623,-2.69637 -2.69892,0.008 -2.59102,1.60134 -3.95593,1.89049 -5.55525,1.17685 -1.98209,-0.88444 -1.81481,-1.15625 2.56695,-4.17098 2.57797,-1.77369 4.68722,-3.65327 4.68722,-4.17685 0,-1.48613 -0.65096,-1.19939 -5.99769,2.64185 -2.75127,1.97659 -4.99737,3.21409 -4.99134,2.75 0.006,-0.4641 2.33264,-2.41881 5.17023,-4.34381 2.83758,-1.925 5.37339,-4.175 5.63512,-5 0.39026,-1.23014 0.13476,-1.20119 -1.42022,0.16089 -3.84613,3.36903 -18.14376,13.30135 -26.3961,18.33692 -4.675,2.85268 -15.7,9.59874 -24.5,14.99123 -8.8,5.3925 -17.51773,10.66182 -19.37274,11.70961 -1.85501,1.04778 -9.05501,5.63337 -16,10.1902 -6.94499,4.55683 -14.76486,9.52631 -17.37747,11.04329 -2.61262,1.51698 -4.51041,3.14617 -4.21731,3.62042 0.2931,0.47424 -0.82573,1.56484 -2.48629,2.42355 -1.66055,0.85871 -4.60027,2.94949 -6.53269,4.64618 -3.30972,2.90597 -4.97765,2.85513 -2.2635,-0.069 0.6875,-0.74069 0.8,-1.12052 0.25,-0.84407 -1.32821,0.66762 -16.95928,10.33731 -24.22473,14.98591 -13.813987,8.83815 -19.294667,11.8045 -21.810857,11.8045 l -2.68595,0 2.36078,1.96673 c 1.29843,1.0817 1.91079,1.96766 1.36079,1.96879 -1.56283,0.003 -9,-4.80517 -9,-5.81881 0,-1.31192 -10.85323,-16.2526 -13.52357,-18.61671 -1.9009,-1.68291 -1.75144,-1.128 0.94269,3.5 1.76096,3.025 3.66971,6.625 4.24167,8 0.57196,1.375 1.89476,4.42454 2.93956,6.77675 2.26889,5.10804 2.35371,5.84498 0.49523,4.30258 -1.18249,-0.98138 -1.27713,-0.60121 -0.59891,2.4059 0.44302,1.96431 1.31879,4.18995 1.94615,4.94587 0.86441,1.04156 0.82782,1.48718 -0.15109,1.84005 -0.88888,0.32043 -0.35613,1.49041 1.70827,3.75152 1.98383,2.17288 2.40723,3.07489 1.25,2.66299 -2.52433,-0.8985 -2.15908,0.42074 1.10633,3.99591 1.57099,1.72 3.13186,3.84529 3.46862,4.72286 0.33675,0.87756 1.57454,1.59557 2.75065,1.59557 1.41985,0 1.95824,0.46941 1.6023,1.39698 -0.35164,0.91635 0.35503,1.56732 2.05398,1.8921 2.36574,0.45224 8.11705,-0.91797 26.268117,-6.2582 3.575,-1.0518 11.9,-3.27871 18.5,-4.94869 6.6,-1.66997 20.55,-5.96769 31,-9.55049 18.57609,-6.36882 23.79203,-7.75573 20.5,-5.45088 -1.22156,0.85525 -1.12875,0.95627 0.5,0.54421 1.1,-0.2783 4.025,-1.01635 6.5,-1.64012 7.96135,-2.00649 24.22209,-8.12066 34.5,-12.97229 5.5,-2.59624 14.8375,-6.88473 20.75,-9.52998 5.9125,-2.64525 10.75,-5.21089 10.75,-5.70142 0,-1.09932 10.05449,-5.7786 14.63778,-6.81229 6.89775,-1.5557 3.02122,1.31163 -10.38778,7.68346 -7.5625,3.59362 -17.575,8.12112 -22.25,10.06109 -4.675,1.93998 -11.58974,5.08003 -15.36608,6.9779 -9.54037,4.79469 -26.34035,10.75151 -37.63392,13.34398 -9.52685,2.18691 -12.78257,3.15092 -23,6.81026 -3.025,1.08339 -12.7,3.79151 -21.5,6.01803 -21.99583,5.56526 -25.21237,6.4225 -39.5,10.52713 -13.437487,3.86039 -17.771667,4.28375 -22.549577,2.20262 z m 0.15374,-7.32257 c -1.01651,-1.01651 -1.85525,0.51389 -1.02122,1.86338 0.63004,1.01942 0.86558,1.02021 1.20431,0.004 0.23159,-0.69479 0.1492,-1.53513 -0.18309,-1.86742 z m -7.06305,-16.2043 c -0.36253,-0.58659 -1.13769,-1.06653 -1.72258,-1.06653 -0.66309,0 -0.58723,0.57378 0.20152,1.52417 1.37154,1.6526 2.59733,1.2838 1.52106,-0.45764 z m -2.72499,-11.57076 c -0.62755,-1.37732 -1.32937,-2.31586 -1.55959,-2.08564 -0.46704,0.46705 1.56048,4.58987 2.25721,4.58987 0.24386,0 -0.0701,-1.1269 -0.69762,-2.50423 z m 20.90346,-1.58962 c 2.07923,-1.15162 8.955417,-5.37287 15.280417,-9.38056 6.325,-4.00769 18.7,-11.79134 27.5,-17.29701 19.94524,-12.47862 29.45121,-18.5357 36.5,-23.25733 3.025,-2.0263 7.525,-4.81925 10,-6.20656 2.475,-1.3873 11.25,-6.69098 19.5,-11.78593 8.25,-5.09496 18.825,-11.5386 23.5,-14.31921 9.36494,-5.5701 29.07347,-20.49865 31.34661,-23.74401 1.93768,-2.76644 1.03152,-9.54471 -1.79347,-13.41554 -1.2042,-1.65 -4.51521,-6.825 -7.3578,-11.5 -2.8426,-4.675 -9.43202,-13.900002 -14.64317,-20.500002 -5.21115,-6.6 -11.62972,-15.51053 -14.26349,-19.80118 -10.26625,-16.724651 -24.95049,-38.175273 -31.20922,-45.59017 -3.77894,-4.477017 -3.91108,-4.538638 -6.71711,-3.132429 -3.92873,1.968827 -22.09787,13.078701 -32.11813,19.639245 -4.54068,2.972911 -12.64068,8.031671 -18,11.24169 -5.35932,3.21002 -16.26922,9.909564 -24.24422,14.887877 -7.974997,4.978317 -19.449997,12.106717 -25.499997,15.840907 -18.69746,11.54045 -33.56588,21.465362 -44.14316,29.466272 -5.57874,4.21989 -13.53034,9.78366 -17.67023,12.36395 -7.67659,4.78461 -10.6866098,8.00622 -10.6866098,11.43784 0,3.16784 21.0230098,32.38348 30.9370798,42.9932 1.72026,1.84097 4.2815,5.62405 5.69165,8.40685 1.41016,2.7828 4.47565,8.02656 6.8122,11.6528 2.33656,3.62623 6.59518,10.26031 9.46361,14.7424 2.86842,4.48209 6.14172,8.98209 7.274,10 1.13227,1.01791 4.10891,4.77575 6.61475,8.35075 8.4952,12.11985 10.40811,13.07022 17.92629,8.90615 z m -6.71958,-7.67394 c -3.02192,-0.9827 -13.51114,-14.01381 -24.33503,-30.23221 -6.84528,-10.25689 -11.51127,-16.86425 -18.20775,-25.78343 -9.77778,-13.02319 -26.45722,-38.83749 -26.45722,-40.94707 0,-2.67066 5.55245,-7.17782 17.5,-14.20546 4.95,-2.91163 13.275,-8.34037 18.5,-12.06387 5.225,-3.72349 12.425,-8.552022 16,-10.730062 3.575,-2.17803 11.17186,-6.98613 16.88191,-10.68467 5.71005,-3.69853 13.810057,-8.57149 17.999997,-10.82881 4.18995,-2.25731 11.44309,-6.64257 16.11809,-9.745028 13.03716,-8.65181 36.3067,-23.092521 48.21576,-29.921943 10.61296,-6.086155 10.74889,-6.131263 14.16951,-4.702039 1.89956,0.793688 3.97711,2.420978 4.61677,3.616201 0.63967,1.195223 2.65542,3.825036 4.47946,5.844029 1.82404,2.018994 5.4994,7.12119 8.16747,11.338214 7.876,12.448446 18.22232,27.554516 26.92655,39.313936 12.03317,16.256822 21.32461,30.253892 22.0795,33.261632 0.57663,2.29745 -0.0304,3.27682 -4.5277,7.30488 -2.85649,2.55844 -7.5412,5.91664 -10.41047,7.46266 -2.86927,1.54603 -9.71685,5.83169 -15.21685,9.5237 -5.5,3.69201 -15.14848,9.80299 -21.44106,13.57994 -6.29258,3.77695 -13.71758,8.29255 -16.5,10.03466 -2.78242,1.7421 -10.00894,5.97384 -16.05894,9.40385 -20.68114,11.72507 -26.49639,15.30859 -31.24685,19.25519 -2.61423,2.17185 -8.35315,6.35282 -12.75315,9.29104 -4.4,2.93821 -11.6,7.85427 -16,10.92456 -9.757407,6.80866 -16.500157,10.34043 -18.499997,9.6901 z M 97.946613,220.263 c -1.29727,-1.38448 -2.66773,-3.98367 -3.04546,-5.77597 -1.04532,-4.95999 -2.50158,-2.84729 -1.847,2.67959 0.40114,3.387 0.10221,5.81529 -0.98389,7.99244 l -1.5601,3.12728 4.89757,-2.75305 4.897567,-2.75306 -2.358687,-2.51723 z m -7.56949,5.0669 c 0,-0.38603 -0.61798,-1.54701 -1.37328,-2.57995 -1.32636,-1.8139 -1.3969,-1.80365 -2.06455,0.29992 -0.3802,1.1979 -0.42281,2.61237 -0.0947,3.14327 0.63482,1.02715 3.53253,0.31905 3.53253,-0.86324 z m -7.16432,-4.63363 c -0.0674,-3.35677 0.46893,-5.14585 2.04565,-6.82419 3.06636,-3.264 1.29324,-4.16776 -1.99539,-1.01705 -2.0731,1.98616 -3.49462,2.52839 -5.75766,2.19625 l -3.00493,-0.44103 2.10193,3.06775 c 2.16406,3.15843 5.9003,7.56776 6.41253,7.56776 0.15905,0 0.2481,-2.04727 0.19787,-4.54949 z m 3.16432,-0.95051 c 0,-0.825 -0.45,-1.5 -1,-1.5 -0.55,0 -1,0.675 -1,1.5 0,0.825 0.45,1.5 1,1.5 0.55,0 1,-0.675 1,-1.5 z m 5,-0.059 c 0,-0.85746 -0.45734,-1.27636 -1.01632,-0.9309 -0.55897,0.34546 -0.75741,1.04702 -0.44098,1.55902 0.85724,1.38702 1.4573,1.12839 1.4573,-0.62814 z m 12.929627,-2.3095 c 1.08157,-2.02095 0.51546,-3.1315 -1.5963,-3.1315 -0.75555,0 -1.33333,1.08333 -1.33333,2.5 0,2.94847 1.51487,3.275 2.92963,0.63148 z m -5.341227,-2.87642 c -1.0924,-1.0924 -1.84148,0.64486 -1.05718,2.45181 0.74368,1.71337 0.79759,1.71181 1.21194,-0.0351 0.2385,-1.00555 0.16886,-2.09305 -0.15476,-2.41667 z m 11.148187,1.47792 c 0.93012,-0.71878 0.49641,-1.64704 -1.75,-3.74551 -1.64262,-1.53446 -2.98659,-3.73437 -2.98659,-4.8887 0,-2.30818 -0.11249,-2.37659 -2.43944,-1.48366 -1.36256,0.52287 -1.22482,0.99334 0.91821,3.13637 1.7128,1.7128 2.52123,3.6187 2.52123,5.94388 0,3.42932 0.47203,3.5604 3.73659,1.0376 z m -19.858477,0.36351 c 1.93822,-1.22765 0.52984,-3.01593 -1.87911,-2.38598 -2.04932,0.53591 -2.51079,1.44437 -1.33234,2.62282 0.87179,0.87179 1.53881,0.8226 3.21145,-0.23684 z m -12.87811,-4.59651 c 0,-0.825 -0.7301,-1.5 -1.62245,-1.5 -1.32879,0 -1.39713,0.27149 -0.37755,1.5 0.68468,0.825 1.41478,1.5 1.62244,1.5 0.20766,0 0.37756,-0.675 0.37756,-1.5 z m 5.54925,-2.28407 c -0.96283,-0.96284 -3.54925,0.79169 -3.54925,2.40767 0,1.53891 0.17542,1.52762 2.00613,-0.12915 1.10337,-0.99854 1.79778,-2.02387 1.54312,-2.27852 z m 17.316087,0.23304 c 0.31608,-1.6311 0.14754,-1.70455 -1.249997,-0.54469 -1.91126,1.5862 -2.14923,3.44015 -0.36534,2.84619 0.6875,-0.22891 1.414397,-1.26459 1.615337,-2.3015 z m -28.627287,-0.98401 c -0.63665,-3.33042 2.23218,-6.46496 5.91693,-6.46496 3.24039,0 3.49984,-0.61894 1.28525,-3.06604 -1.46793,-1.62204 -1.70077,-1.58252 -3.95455,0.67126 -4.77042,4.77042 -11.73568,1.78119 -11.73568,-5.03652 0,-1.59108 -0.70198,-2.58439 -2.08133,-2.94509 -1.14474,-0.29936 -2.22824,-0.39738 -2.40779,-0.21783 -0.4782,0.4782 12.42198,19.59422 13.22289,19.59422 0.13138,0 0.0208,-1.14077 -0.24572,-2.53504 z m 32.761947,-5.9721 c 3.575,-2.30656 7.88277,-4.90637 9.57283,-5.77736 3.97303,-2.04755 6.33351,-4.7155 4.17206,-4.7155 -1.90765,0 -3.40695,-1.80534 -4.23316,-5.09726 -0.49422,-1.9691 0.0234,-3.39221 2.1696,-5.96502 l 2.81867,-3.37895 -5.95348,3.344 c -3.27441,1.8392 -8.21438,4.89923 -10.97772,6.80007 -5.355827,3.68416 -9.119157,3.91904 -12.581927,0.78528 -2.2226,-2.01143 -2.98687,-1.87242 -2.98687,0.54326 0,4.62105 -6.90546,3.11821 -11.92122,-2.59443 -1.93099,-2.19928 -3.29835,-5.27395 -4.05883,-9.12677 -2.93368,-14.86292 -6.27863,-22.31018 -10.02066,-22.31018 -1.02549,0 -2.13376,0.84829 -2.46282,1.88509 -0.64191,2.02245 1.23624,7.11491 2.62404,7.11491 0.46172,0 1.17699,-0.0207 1.58949,-0.0461 0.4125,-0.0254 0.62372,-1.26287 0.46939,-2.75 -0.26938,-2.59564 -0.21934,-2.62617 1.25,-0.76275 2.06547,2.61945 1.92549,4.27716 -0.46939,5.55887 -1.43747,0.76931 -2.59648,0.75114 -4.12068,-0.0646 -1.71633,-0.91855 -1.96943,-0.87759 -1.32742,0.21481 1.57496,2.67987 10.07752,14.5644 17.77829,24.84977 4.32381,5.775 8.71518,12.16337 9.7586,14.19637 3.59379,7.00214 3.94627,6.95175 18.911207,-2.70351 z m 7,6.50714 c 0,-1.33333 -0.66667,-2 -2,-2 -2.26671,0 -2.56299,1.03701 -0.8,2.8 1.76299,1.76299 2.8,1.46671 2.8,-0.8 z m 5,-1.12244 c 0,-0.48266 -0.675,-0.87756 -1.5,-0.87756 -0.86218,0 -1.5,0.90249 -1.5,2.12244 0,1.77324 0.2468,1.91763 1.5,0.87756 0.825,-0.68469 1.5,-1.63979 1.5,-2.12244 z m 6,-1.59956 c 0,-0.27059 -0.64593,-0.24411 -1.43539,0.0588 -0.78947,0.30295 -1.615,0.0136 -1.83453,-0.64301 -0.21952,-0.6566 -0.62952,0.009 -0.91111,1.47866 -0.49782,2.59854 -0.44706,2.62994 1.83452,1.13499 1.29058,-0.84559 2.34651,-1.75885 2.34651,-2.02944 z m -45.437497,0.0166 c 1.14651,-1.14651 1.32275,-1.83289 0.5378,-2.09454 -1.30198,-0.43395 -4.1003,1.56045 -4.1003,2.92238 0,1.413 1.72179,1.01291 3.5625,-0.8278 z m 39.437497,-1.73558 c 0,-1.05548 -1.91911,-1.49891 -2.48992,-0.57533 -0.34546,0.55897 0.0734,1.01631 0.9309,1.01631 0.85746,0 1.55902,-0.19844 1.55902,-0.44098 z m -4.45888,-1.62555 c 1.17263,-1.89735 -0.53762,-2.36554 -2.27922,-0.62395 -1.55894,1.55895 -1.56168,1.69048 -0.0352,1.69048 0.9104,0 1.95188,-0.47994 2.31442,-1.06653 z m 10.45888,-0.93347 c 0,-1.34486 -0.66667,-2 -2.03518,-2 -1.72531,0 -1.87221,0.30452 -0.96482,2 0.5887,1.1 1.50453,2 2.03518,2 0.53065,0 0.96482,-0.9 0.96482,-2 z m 4,-0.5 c 1.01957,-1.22851 0.95124,-1.5 -0.37756,-1.5 -0.89234,0 -1.62244,0.675 -1.62244,1.5 0,0.825 0.1699,1.5 0.37756,1.5 0.20765,0 0.93775,-0.675 1.62244,-1.5 z m 5,-1 c 1.01343,-1.22111 0.96312,-1.5 -0.27057,-1.5 -0.8335,0 -1.77447,0.675 -2.09106,1.5 -0.31658,0.825 -0.19482,1.5 0.27057,1.5 0.46539,0 1.40637,-0.675 2.09106,-1.5 z m -15,-0.96862 c 0,-0.92914 -0.5818,-1.24535 -1.58385,-0.86083 -1.27522,0.48935 -1.32393,0.77253 -0.25,1.4533 1.77612,1.12588 1.83385,1.10723 1.83385,-0.59247 z m -42.968827,-3.36218 c -2.73169,-0.41021 -3.25896,0.0736 -2.43116,2.23084 0.60069,1.56536 0.79007,1.5577 2.64058,-0.10687 1.98525,-1.78576 1.98438,-1.79454 -0.20942,-2.12397 z m -5.03117,1.8308 c 0,-0.55 -0.45,-1 -1,-1 -0.55,0 -1,0.45 -1,1 0,0.55 0.45,1 1,1 0.55,0 1,-0.45 1,-1 z m 53.999997,-1.62244 c 0,-1.3288 -0.27149,-1.39713 -1.5,-0.37756 -0.825,0.68469 -1.5,1.41479 -1.5,1.62244 0,0.20766 0.675,0.37756 1.5,0.37756 0.825,0 1.5,-0.7301 1.5,-1.62244 z m 4,0.62244 c 0,-0.55 -0.45,-1 -1,-1 -0.55,0 -1,0.45 -1,1 0,0.55 0.45,1 1,1 0.55,0 1,-0.45 1,-1 z m 15.78966,-4.54916 c 0.15932,-0.10826 -0.67269,-0.4485 -1.84891,-0.75608 -1.17622,-0.30759 -1.86495,-0.28563 -1.53052,0.0488 0.33444,0.33443 -0.40855,1.73385 -1.65108,3.10982 l -2.25915,2.50175 3.5,-2.35373 c 1.925,-1.29455 3.63035,-2.44231 3.78966,-2.55057 z m -7.01883,1.73666 c 0.59996,-1.79986 -1.467,-1.42165 -2.16452,0.39606 -0.37373,0.97391 -0.15024,1.43108 0.58051,1.1875 0.6535,-0.21783 1.3663,-0.93044 1.58401,-1.58356 z m -4.27083,-0.1875 c 0.33992,-0.55 0.14148,-1 -0.44098,-1 -0.58246,0 -1.05902,0.45 -1.05902,1 0,0.55 0.19844,1 0.44098,1 0.24254,0 0.7191,-0.45 1.05902,-1 z M 67.740953,192.7515 c -0.31537,-0.82184 -0.97625,-1.24528 -1.46862,-0.94098 -1.41192,0.87262 -1.04399,2.43524 0.5734,2.43524 0.89208,0 1.24352,-0.5866 0.89522,-1.49426 z m 5.63617,1.10125 c 0,-0.21616 -0.675,-0.65203 -1.5,-0.96862 -0.825,-0.31658 -1.5,-0.13972 -1.5,0.39301 0,0.53274 0.675,0.96862 1.5,0.96862 0.825,0 1.5,-0.17686 1.5,-0.39301 z m 52.670697,-2.26963 c -0.2957,-0.2957 -1.06562,-0.21132 -1.71093,0.1875 -0.86994,0.53766 -0.82251,0.94308 0.18347,1.56809 1.33344,0.82847 2.62596,-0.65708 1.52746,-1.75559 z m -54.680757,-2.84806 c -1.67233,-1.78012 -2.57523,-2.16032 -3.10286,-1.30659 -0.45043,0.7288 0.11576,1.68116 1.43437,2.41265 3.56153,1.97575 4.1791,1.56636 1.66849,-1.10606 z m 60.781117,0.69752 c 0.24358,-0.73075 -0.21359,-0.95424 -1.1875,-0.58051 -0.87096,0.33422 -1.58356,1.04702 -1.58356,1.58401 0,1.31439 2.27278,0.49134 2.77106,-1.0035 z m 4.22894,1.3722 c 0,-1.05548 -1.91911,-1.49891 -2.48992,-0.57533 -0.34546,0.55897 0.0734,1.01631 0.9309,1.01631 0.85746,0 1.55902,-0.19844 1.55902,-0.44098 z m -79.545017,-2.60876 c -3.82605,-4.22774 -1.51213,-12.57666 3.2342,-11.66934 2.80108,0.53546 2.84754,0.21687 0.41866,-2.87095 l -1.89215,-2.40548 -0.63578,2.53312 c -0.77281,3.07914 -4.85451,4.92098 -7.62247,3.43961 -2.41486,-1.29239 -3.95744,-4.13908 -3.95744,-7.30307 0,-1.77951 -0.68163,-2.62841 -2.47114,-3.07755 -3.20247,-0.80377 -4.80453,-3.90192 -4.37334,-8.45738 l 0.34448,-3.63922 -4.18801,-0.1209 -4.18801,-0.1209 5.47317,7.6209 c 3.01025,4.19149 7.71189,10.7709 10.44809,14.6209 6.68119,9.40086 9.91568,13.5 10.65237,13.5 0.3368,0 -0.22238,-0.92238 -1.24263,-2.04974 z m 9.54502,-1.77264 c 0,-1.03513 -0.81836,-1.81366 -2,-1.90267 -1.58531,-0.11941 -2,0.4658 -2,2.82238 0,2.66316 0.20845,2.86147 2,1.90267 1.1,-0.5887 2,-1.85877 2,-2.82238 z m 18,1.98905 c 0,-2.54019 -1.06615,-3.35667 -2.658,-2.03555 -1.04855,0.87023 -1.342,0.66487 -1.342,-0.93912 0,-1.36117 0.75129,-2.16057 2.22966,-2.37245 2.1387,-0.30651 2.08475,-0.48273 -1.32254,-4.31955 -1.95371,-2.2 -5.20706,-6.20221 -7.22966,-8.8938 -2.02261,-2.69159 -3.67739,-4.71659 -3.67729,-4.5 9e-5,0.21659 0.66867,3.88734 1.48573,8.15721 1.66508,8.70154 3.51718,12.15735 7.9713,14.87356 3.8097,2.32323 4.5428,2.32802 4.5428,0.0297 z m 38.595007,-0.39944 c 1.55082,-1.81765 1.57963,-1.98081 0.15499,-0.87755 -1.40243,1.08605 -2.04792,1.10796 -3.25,0.11032 -3.06415,-2.54302 -0.50928,-6 4.43426,-6 1.70143,0 2.06574,0.62884 2.06574,3.56571 l 0,3.56571 8.25,-5.72591 c 14.08203,-9.77363 17.16475,-11.8562 19.84344,-13.40551 1.42639,-0.825 8.04616,-4.78023 14.7106,-8.78939 12.03602,-7.24058 12.10404,-7.30253 10.15657,-9.25 -2.52513,-2.52513 -2.48924,-4.60733 0.10331,-5.99482 1.53199,-0.8199 2.43404,-0.79741 3.5,0.0873 2.08502,1.73042 1.7594,3.26476 -0.56392,2.6572 -1.33456,-0.34899 -2,-0.0307 -2,0.95669 0,2.26497 3.03307,1.17489 5.3413,-1.91966 2.63315,-3.53015 1.26555,-5.13935 -3.5931,-4.22786 -6.07746,1.14013 -9.24708,3.85673 -12.88587,11.04411 -3.83025,7.56558 -6.70299,10.2118 -12.02321,11.07515 -4.45056,0.72223 -8.36696,-2.40025 -7.28525,-5.80841 0.6479,-2.04136 0.6177,-2.04469 -2.39595,-0.26449 l -3.05212,1.80293 2.4471,2.2679 c 2.8626,2.65297 2.83656,2.49592 1.102,6.64551 -2.14827,5.13932 -3.90207,6.01782 -11.6246,5.82293 -10.76416,-0.27169 -20.0303,4.81638 -20.0303,10.99867 0,4.23322 3.62286,5.14703 6.59501,1.66347 z m 22.40499,1.23277 c 0,-0.55 -0.19844,-1 -0.44098,-1 -0.24254,0 -0.7191,0.45 -1.05902,1 -0.33992,0.55 -0.14148,1 0.44098,1 0.58246,0 1.05902,-0.45 1.05902,-1 z m -84.999997,-2.5 c 0,-1.55556 -0.56667,-2.5 -1.5,-2.5 -1.7742,0 -1.84735,0.48246 -0.46482,3.06574 1.3915,2.60005 1.96482,2.43497 1.96482,-0.56574 z m 44.471667,-2.87805 c 4.41558,-2.95793 14.26541,-9.35391 21.88851,-14.21328 13.00868,-8.29242 15.74048,-11.03382 8.46935,-8.49909 -11.1702,3.89395 -27.83642,-3.10228 -33.05853,-13.87748 -1.77781,-3.66831 -2.203547,-6.34275 -2.233717,-14.0321 -0.0351,-8.95395 0.154037,-9.83763 3.291257,-15.37402 l 3.32855,-5.87402 -3.32855,2.3117 c -1.8307,1.27144 -4.639497,3.38501 -6.241787,4.69683 -1.60229,1.31182 -7.45229,4.66163 -13,7.44403 -11.43317,5.73419 -23.46224,13.30743 -24.20293,15.23763 -0.78929,2.05686 13.82796,24.67647 23.06667,35.69475 1.67723,2.0003 4.53741,5.4878 6.35597,7.75 2.03623,2.53298 4.13827,4.1131 5.47167,4.1131 1.19086,0 5.777947,-2.42012 10.193537,-5.37805 z m 37.52833,4.37805 c 0,-0.55 -0.675,-1 -1.5,-1 -0.825,0 -1.5,0.45 -1.5,1 0,0.55 0.675,1 1.5,1 0.825,0 1.5,-0.45 1.5,-1 z m -6,-2.55902 c 0,-0.85746 -0.45734,-1.27636 -1.01631,-0.9309 -0.55897,0.34546 -0.75742,1.04702 -0.44098,1.55902 0.85723,1.38704 1.45729,1.12841 1.45729,-0.62812 z m 12,-0.31854 c 0,-0.48265 -0.62245,-1.39414 -1.38322,-2.02552 -1.0632,-0.88238 -1.51291,-0.80998 -1.94382,0.31295 -0.30833,0.8035 -0.0234,1.67946 0.63322,1.94657 1.90649,0.77559 2.69382,0.70719 2.69382,-0.234 z m -24,-1.12244 c 0,-0.55 -0.675,-1 -1.5,-1 -0.825,0 -1.5,0.45 -1.5,1 0,0.55 0.675,1 1.5,1 0.825,0 1.5,-0.45 1.5,-1 z m 18.82332,-1.33287 c 0.18332,-0.94521 -0.31164,-1.66713 -1.14301,-1.66713 -1.58186,0 -2.9366,2.41038 -1.92391,3.42307 1.01162,1.01162 2.71987,0.0336 3.06692,-1.75594 z m 18.61757,-2.96015 c -1.81853,-1.0177 -3.05359,-0.29602 -3.69572,2.15949 -0.47248,1.80678 -0.361,1.82003 2.3281,0.27669 2.2301,-1.2799 2.51785,-1.79248 1.36762,-2.43618 z m -10.83672,0.56385 c -1.01652,-1.01651 -1.85525,0.51389 -1.02122,1.86338 0.63003,1.01942 0.86558,1.02021 1.2043,0.004 0.2316,-0.69479 0.14921,-1.53513 -0.18308,-1.86742 z m 4.89583,1.72917 c 0.33992,-0.55 -0.0835,-1 -0.94098,-1 -0.85746,0 -1.55902,0.45 -1.55902,1 0,0.55 0.42344,1 0.94098,1 0.51754,0 1.2191,-0.45 1.55902,-1 z M 64.377123,181.8682 c 0,-0.20765 -0.68531,-0.9463 -1.5229,-1.64144 -1.27334,-1.05678 -1.41967,-0.99492 -0.89301,0.37756 0.5379,1.40173 2.41591,2.38422 2.41591,1.26388 z m -5,-1.62244 c 0,-0.55 -0.19845,-1 -0.44099,-1 -0.24254,0 -0.7191,0.45 -1.05901,1 -0.33992,0.55 -0.14148,1 0.44098,1 0.58246,0 1.05902,-0.45 1.05902,-1 z m 88.439137,-3.852 c -0.17039,-0.1936 -1.28049,0.3279 -2.46688,1.15888 -1.99528,1.39754 -2.01888,1.53902 -0.31467,1.886 1.57616,0.32091 3.69882,-2.00269 2.78155,-3.04488 z m 4.10198,0.78547 c 1.07627,-1.74144 -0.14952,-2.11024 -1.52106,-0.45764 -0.78875,0.95039 -0.86462,1.52417 -0.20152,1.52417 0.58488,0 1.36004,-0.47994 1.72258,-1.06653 z m 4.45888,0.0665 c 0,-0.55 -0.45,-1 -1,-1 -0.55,0 -1,0.45 -1,1 0,0.55 0.45,1 1,1 0.55,0 1,-0.45 1,-1 z m 10.5,-1 c 0.33992,-0.55 -0.0835,-1 -0.94098,-1 -0.85746,0 -1.55902,0.45 -1.55902,1 0,0.55 0.42344,1 0.94098,1 0.51754,0 1.2191,-0.45 1.55902,-1 z m 4.95673,-0.3447 c 1.76583,-1.29121 1.75697,-1.36615 -0.22262,-1.88383 -1.45733,-0.3811 -2.206,0.013 -2.55424,1.3447 -0.58173,2.22454 0.25085,2.38619 2.77686,0.53913 z m -35.64936,-2.6553 c 7.46473,0 7.93158,-0.13165 9.03211,-2.54705 1.65559,-3.63362 1.45377,-6.45295 -0.46192,-6.45295 -1.3288,0 -1.39713,0.27149 -0.37756,1.5 1.04007,1.2532 0.89568,1.5 -0.87756,1.5 -1.43792,0 -2.12244,-0.62915 -2.12244,-1.95078 0,-1.67163 -1.32365,-1.14996 -9.25,3.64558 -10.77246,6.51748 -12.69568,8.01307 -7.53212,5.85736 2.29121,-0.95655 6.73847,-1.55216 11.58949,-1.55216 z m 26.19263,2 c 0,-0.55 -0.47656,-1 -1.05902,-1 -0.58246,0 -0.7809,0.45 -0.44098,1 0.33992,0.55 0.81648,1 1.05902,1 0.24254,0 0.44098,-0.45 0.44098,-1 z m -106.499997,-1 c 0.35052,-0.56716 -0.48962,-1 -1.94099,-1 -1.40746,0 -2.55901,0.45 -2.55901,1 0,0.55 0.87344,1 1.94098,1 1.06754,0 2.2191,-0.45 2.55902,-1 z M 158.0553,170.59058 c -0.26588,-0.26588 -1.41726,0.0998 -2.55861,0.81255 l -2.0752,1.29598 2.22782,1.20333 c 1.94632,1.05129 2.26961,0.94862 2.55861,-0.81255 0.18194,-1.10874 0.11326,-2.23343 -0.15262,-2.49931 z m 5.32182,0.82182 c 0,-1.30208 -1.18877,-2.16804 -2.15579,-1.57039 -1.03422,0.63919 -0.14245,2.40372 1.21481,2.40372 0.51754,0 0.94098,-0.375 0.94098,-0.83333 z M 50.377123,169.68671 c 0,-0.85746 -0.45734,-1.27636 -1.01632,-0.9309 -0.55897,0.34546 -0.75741,1.04702 -0.44098,1.55902 0.85724,1.38704 1.4573,1.12841 1.4573,-0.62812 z m 4.5,-0.44098 c 0,-0.73333 -0.5625,-1.52083 -1.25,-1.75 -0.74359,-0.24786 -1.25,0.46111 -1.25,1.75 0,1.28889 0.50641,1.99786 1.25,1.75 0.6875,-0.22917 1.25,-1.01667 1.25,-1.75 z m 117.499997,0 c 0,-1.94919 -1.06067,-2.606 -2.26443,-1.40223 -0.80112,0.80111 0.24738,3.40223 1.37142,3.40223 0.49115,0 0.89301,-0.9 0.89301,-2 z m 4.94747,0.0982 c 0.86578,-1.61773 0.72165,-1.82439 -0.96482,-1.38337 -1.09046,0.28516 -1.98265,1.14099 -1.98265,1.90184 0,2.00602 1.76231,1.69602 2.94747,-0.51847 z m 5.49537,-0.19694 c 1.95644,-1.15432 3.55613,-2.16682 3.55488,-2.25 -0.001,-0.0832 -1.30941,-0.19702 -2.90702,-0.253 -2.13573,-0.0748 -3.18842,0.52084 -3.97628,2.25 -1.30901,2.87296 -1.13455,2.88622 3.32842,0.253 z m -14.21279,-4.65126 c 1.44948,-1.78535 0.30721,-1.54733 -3.40333,0.70918 l -3.22162,1.95919 2.44745,0.91765 c 1.93281,0.72469 2.52265,0.57556 2.80506,-0.70919 0.19668,-0.89475 0.81428,-2.18933 1.37244,-2.87683 z m 8.50805,0.0595 c -0.92977,-0.92976 -2.02566,-1.35529 -2.43533,-0.94562 -0.40967,0.40966 -0.0829,1.16349 0.72619,1.67516 2.43457,1.53967 3.51652,1.07785 1.70914,-0.72954 z m 29.3594,-11.12646 c -2.68217,-0.41311 -6.0975,-4.805 -6.0975,-7.84095 0,-2.30885 -0.0819,-2.33451 -2.46629,-0.77222 l -2.46629,1.61598 2.96629,2.49597 c 3.33243,2.80405 3.68752,4.84346 1.40959,8.09567 -1.09615,1.56497 -2.57542,2.22251 -5,2.22251 -1.98814,0 -3.4433,0.50102 -3.4433,1.18555 0,0.65205 -1.0125,2.26456 -2.25,3.58336 -1.39746,1.48926 1.85266,-0.002 8.57757,-3.93555 7.6758,-4.4898 10.22862,-6.42562 8.76993,-6.6503 z m -162.125407,8.28334 c -1.55477,-1.87339 -2.97209,-1.88105 -2.97209,-0.0161 0,1.75865 3.33593,3.88792 3.84454,2.45389 0.18949,-0.53429 -0.20311,-1.63131 -0.87245,-2.43782 z m 9.39174,2.03936 c -0.31537,-0.82184 -0.97625,-1.24528 -1.46862,-0.94098 -1.41192,0.87262 -1.04399,2.43524 0.5734,2.43524 0.89208,0 1.24352,-0.5866 0.89522,-1.49426 z m -3.54051,-1.83861 c 0.19137,-0.98676 -0.31876,-1.66713 -1.25,-1.66713 -0.92764,0 -1.57332,0.855 -1.57332,2.08333 0,2.43705 2.33677,2.09257 2.82332,-0.4162 z m 133.176677,0.83287 c 0,-0.825 -0.7301,-1.5 -1.62244,-1.5 -1.3288,0 -1.39713,0.27149 -0.37756,1.5 0.68469,0.825 1.41479,1.5 1.62244,1.5 0.20766,0 0.37756,-0.675 0.37756,-1.5 z m 4.5,0.5 c 0.33992,-0.55 -0.0835,-1 -0.94098,-1 -0.85746,0 -1.55902,0.45 -1.55902,1 0,0.55 0.42344,1 0.94098,1 0.51754,0 1.2191,-0.45 1.55902,-1 z m -26.3402,-2.08552 c 1.11558,-0.59704 2.94737,-3.18454 4.07065,-5.75 1.12327,-2.56547 2.91159,-5.90198 3.97403,-7.41448 2.51729,-3.58364 1.72188,-3.46948 -5.07367,0.72823 -9.19995,5.68294 -8.66809,5.16946 -7.19406,6.94555 1.04653,1.261 1.05918,1.8762 0.0633,3.07622 -1.51448,1.82484 -3.65253,1.94807 -4.33772,0.25 -0.27741,-0.6875 -0.53991,-0.2375 -0.58333,1 -0.0676,1.92742 0.43226,2.25 3.48679,2.25 1.96116,0 4.47849,-0.48849 5.59406,-1.08552 z m 17.26405,-3.74438 c -0.13768,-0.18145 -1.48955,0.48207 -3.00417,1.47449 l -2.75385,1.80439 2.41708,0.58453 c 1.86623,0.45131 2.55089,0.11527 3.00418,-1.47449 0.3229,-1.13246 0.47444,-2.20748 0.33676,-2.38892 z m -121.781207,-3.1858 c 0.47155,-0.45672 2.09481,-0.97753 3.60726,-1.15735 l 2.7499,-0.32695 -2.99562,-4.5 c -1.64759,-2.475 -2.99754,-5.175 -2.99987,-6 -0.004,-1.50669 6.10686,-7 7.78727,-7 0.49414,0 1.64341,-0.82318 2.55393,-1.8293 0.91053,-1.00611 3.92458,-2.89208 6.69791,-4.19104 l 5.04241,-2.36174 -3.04292,-2.38144 c -3.41669,-2.67396 -3.78553,-4.73124 -1.44685,-8.07017 2.20965,-3.15472 7.58152,-2.70998 8.37663,0.6935 0.48412,2.07229 1.18764,1.38279 5.77431,-5.65918 7.32403,-11.24469 14.353947,-15.134202 19.286137,-10.67064 1.08177,0.979 1.96686,2.86069 1.96686,4.18154 0,2.39552 0.008,2.3971 3,0.6294 3.35295,-1.98064 3.70738,-2.8555 1.5,-3.70255 -0.99652,-0.3824 -1.5,-1.954582 -1.5,-4.683912 0,-6.37996 3.64123,-9.40652 13.04879,-10.84607 4.09816,-0.6271 9.85347,-1.6242 12.78957,-2.21578 l 5.33837,-1.0756 -2.08837,-2.22296 c -2.82129,-3.00313 -2.62751,-6.0248 0.5465,-8.52148 3.59652,-2.82902 6.94265,-2.64701 8.99773,0.48944 1.55113,2.36732 1.55651,2.81823 0.0708,5.93383 l -1.60791,3.37182 9.54522,-4.61471 c 7.20948,-3.48549 10.81708,-4.65269 14.74285,-4.76988 4.17505,-0.12463 5.72175,-0.67926 7.8616,-2.81911 2.8512,-2.851207 6.51222,-3.446104 8.70157,-1.41397 1.6421,1.52419 1.12495,0.53384 -3.5248,-6.749995 -4.85644,-7.607616 -7.97893,-10.611444 -10.12391,-9.739157 -14.14669,5.752971 -56.54055,30.860142 -76.73973,45.448022 -3.267957,2.36012 -8.005317,5.434562 -10.527467,6.832072 -2.52216,1.39752 -9.74837,5.8616 -16.05827,9.9202 -33.44405,21.51158 -37.03398,24.30571 -33.65667,26.19575 0.76836,0.42999 4.27413,5.25336 7.79058,10.7186 6.19431,9.6271 6.41359,9.84332 7.03621,6.938 0.35346,-1.64934 1.02846,-3.37247 1.5,-3.82919 z m 78.098757,4.34466 6.65243,-1.67103 -4.91953,-4.32897 c -2.70575,-2.38093 -5.17388,-4.32896 -5.48474,-4.32896 -0.31087,0 -2.213,2.44667 -4.22697,5.43706 -3.55977,5.2856 -3.6005,5.44894 -1.46218,5.86381 1.20978,0.23472 2.33211,0.48805 2.49407,0.56295 0.16197,0.0749 3.28808,-0.61579 6.94692,-1.53486 z m 54.2586,0.29348 c 0,-0.75765 -0.675,-1.93775 -1.5,-2.62244 -1.26848,-1.05275 -1.5,-0.84012 -1.5,1.37756 0,1.66439 0.54799,2.62244 1.5,2.62244 0.825,0 1.5,-0.6199 1.5,-1.37756 z m -5.60631,-1.206 c 0.37373,-0.97391 0.15024,-1.43108 -0.58051,-1.1875 -1.49484,0.49828 -2.31789,2.77106 -1.0035,2.77106 0.53699,0 1.24979,-0.7126 1.58401,-1.58356 z M 44.147953,157.05823 c -0.61808,-1.85422 -2.77083,-2.16176 -2.77083,-0.39583 0,0.87083 0.7125,1.58333 1.58333,1.58333 0.87083,0 1.40521,-0.53438 1.1875,-1.1875 z m 4.22917,0.1875 c 0,-0.55 -0.47656,-1 -1.05902,-1 -0.58246,0 -0.7809,0.45 -0.44098,1 0.33991,0.55 0.81647,1 1.05901,1 0.24254,0 0.44099,-0.45 0.44099,-1 z m 69.860087,-5.20172 c -1.06161,-3.41095 -2.12652,-6.39804 -2.36647,-6.63799 -0.62193,-0.62193 -9.49362,1.96354 -9.49362,2.76672 0,0.93697 7.08769,7.58646 9.5,8.91265 3.98604,2.19137 4.36153,1.38928 2.36009,-5.04138 z m 79.5972,4.27082 c 0.31644,-0.512 0.19299,-1.1672 -0.27431,-1.45601 -0.46731,-0.28881 -0.84965,0.13009 -0.84965,0.9309 0,1.68617 0.31534,1.83349 1.12396,0.52511 z m -73.03917,-13.59889 c 0.75874,-3.02307 -1.16129,-3.30852 -4.4332,-0.65908 l -2.23665,1.81113 1.79052,5.93887 1.79051,5.93887 1.23442,-5.27979 c 0.67893,-2.90389 1.51341,-6.39139 1.8544,-7.75 z m 28.84103,5.56019 c 1.09989,-2.49172 2.32628,-6.19143 2.7253,-8.22158 l 0.72549,-3.69119 -6.10497,3.0597 c -3.35773,1.68284 -6.20958,3.14849 -6.33744,3.257 -0.12787,0.10851 0.25257,2.95096 0.84541,6.31657 1.06929,6.07044 1.09811,6.11006 3.61214,4.96459 1.49662,-0.6819 3.35306,-3.00962 4.53407,-5.68509 z m -108.321217,2.2196 c -1.22386,-2.0625 -3.56468,-5.47846 -5.20183,-7.59102 -2.72296,-3.51367 -2.86124,-4.05664 -1.62258,-6.3711 0.74473,-1.39154 1.97048,-2.76662 2.72389,-3.05573 0.88478,-0.33952 0.31929,-0.96737 -1.59699,-1.77311 -4.14534,-1.74298 -4.86358,-5.9268 -1.58098,-9.20939 1.79363,-1.79364 3.09102,-2.27811 4.89088,-1.82638 2.12509,0.53337 2.44968,0.27324 2.44968,-1.96323 0,-1.79549 -0.37945,-2.35058 -1.25,-1.82865 -0.6875,0.41218 -4.175,2.60471 -7.75,4.87229 -3.575,2.26758 -7.4,4.49501 -8.5,4.94985 -1.79705,0.74306 -1.69557,0.8966 1,1.51308 4.47393,1.02318 7.28832,2.7911 7.99682,5.02338 0.84936,2.6761 0.0236,3.76574 -4.18733,5.52516 -4.29495,1.79455 -8.48183,1.91252 -10.10949,0.28485 -0.86437,-0.86437 -1.2,-0.88087 -1.2,-0.059 0,0.62754 0.47552,1.43487 1.05671,1.79407 0.58119,0.3592 2.37264,2.74825 3.981,5.30902 l 2.92428,4.65593 0.019,-3.25 c 0.0111,-1.89608 0.85218,-4.08318 2.019,-5.25 2.14345,-2.14345 6,-2.71802 6,-0.89392 0,0.60834 1.125,1.991 2.5,3.07258 1.55985,1.22698 2.5,2.97821 2.5,4.65679 0,2.33979 1.35586,3.75464 4.83156,5.04177 0.18236,0.0675 -0.66977,-1.56472 -1.89362,-3.62722 z m 144.062067,2.83179 c 0,-0.50502 0.29463,-1.68602 0.65474,-2.62445 0.60457,-1.57547 0.44673,-1.56993 -2.05967,0.0723 -2.03462,1.33314 -2.38642,1.98656 -1.40474,2.60913 1.72963,1.09692 2.80967,1.07501 2.80967,-0.057 z M 40.377123,151.24573 c 0.93953,-1.75554 0.76049,-2 -1.46482,-2 -1.86852,0 -2.53518,0.52593 -2.53518,2 0,1.1 0.65916,2 1.46481,2 0.80565,0 1.94648,-0.9 2.53519,-2 z m -6,-0.5 c 0,-0.825 -0.675,-1.5 -1.5,-1.5 -2.60246,0 -1.7591,1.97081 1.25,2.92105 0.1375,0.0434 0.25,-0.59605 0.25,-1.42105 z m 103.658197,-3.99802 c -2.36229,-6.01795 -3.27157,-6.66099 -4.59833,-3.25198 -0.73174,1.88014 -0.2744,2.77807 2.78222,5.46245 2.01185,1.76685 3.7291,3.22935 3.81611,3.25 0.087,0.0207 -0.81299,-2.43656 -2,-5.46047 z m 29.32207,-2.31299 c 4.11415,-2.43497 9.96415,-6.10858 13,-8.16357 3.03585,-2.055 6.86973,-4.44533 8.51973,-5.31185 1.65,-0.86653 5.89671,-4.22108 9.43714,-7.45456 l 6.43715,-5.87906 -5.68617,-10.7434 c -3.12739,-5.90888 -7.59911,-13.474162 -9.93714,-16.811742 -2.33804,-3.33758 -5.44025,-7.88115 -6.8938,-10.09683 -1.45355,-2.21568 -3.40907,-4.45733 -4.3456,-4.98144 -3.87933,-2.17097 -20.19588,4.88133 -38.76512,16.75496 -10.2918,6.58084 -11.70918,8.437962 -6.4745,8.483192 3.55715,0.0307 14.60405,5.89132 18.55819,9.84546 4.76267,4.76267 7.10998,11.25773 7.89234,21.83825 0.52035,7.03725 0.16717,8.88049 -3.20985,16.75207 l -1.68194,3.92048 2.83465,-1.86237 c 1.55906,-1.02431 6.20077,-3.85462 10.31492,-6.28959 z m 27.01973,6.25199 c 0,-0.85746 -0.45,-1.2809 -1,-0.94098 -0.55,0.33992 -1,1.04148 -1,1.55902 0,0.51754 0.45,0.94098 1,0.94098 0.55,0 1,-0.70156 1,-1.55902 z m 4,0.61804 c 0,-0.51754 -0.45,-1.2191 -1,-1.55902 -0.55,-0.33992 -1,0.0835 -1,0.94098 0,0.85746 0.45,1.55902 1,1.55902 0.55,0 1,-0.42344 1,-0.94098 z m 11.82332,-3.39189 c 0.19138,-0.98676 -0.31876,-1.66713 -1.25,-1.66713 -0.92763,0 -1.57332,0.855 -1.57332,2.08333 0,2.43705 2.33677,2.09257 2.82332,-0.4162 z m 7.19812,-0.30002 c 4.41736,-2.92327 4.80192,-3.3936 2.22856,-2.7256 -2.73914,0.71102 -5.45132,-1.95253 -6.13006,-6.02014 -0.58739,-3.52019 -0.72495,-3.63664 -2.61994,-2.2178 -1.98331,1.48496 -1.98046,1.51139 0.34111,3.16746 1.96297,1.40027 2.28485,2.37739 1.99279,6.04949 -0.19157,2.40871 -0.22292,4.37948 -0.0697,4.37948 0.15326,0 2.069,-1.1848 4.25721,-2.63289 z m -12.02144,0.23988 c 0,-0.76616 -0.675,-1.65203 -1.5,-1.96862 -1.67693,-0.64349 -1.75966,-0.4786 -0.89301,1.77984 0.7497,1.95369 2.39301,2.08332 2.39301,0.18878 z m 6.30248,-14.5415 c 10.89414,-7.27253 13.41388,-10.23309 12.13605,-14.25916 -0.64747,-2.04001 -2.27067,-4.76118 -9.25316,-15.51227 -2.37304,-3.653832 -5.02248,-8.027242 -5.88762,-9.718692 -2.59101,-5.06568 -14.45179,-22.75465 -14.93405,-22.2724 -0.24607,0.24607 0.20489,2.19106 1.00212,4.32221 0.79723,2.13116 2.34878,7.69982 3.4479,12.37482 2.41935,10.29053 5.65754,19.125462 8.12817,22.176572 1.56626,1.93425 2.06073,2.06615 3.44349,0.91855 1.98456,-1.64703 2.12875,-6.68385 0.21239,-7.41923 -2.1298,-0.81727 -2.78445,0.46713 -0.92945,1.82353 1.78604,1.30599 1.04775,3.50058 -1.17765,3.50058 -3.48287,0 -3.84263,-6.43612 -0.42047,-7.52228 4.50425,-1.42959 7.97724,3.6371 6.02063,8.78338 -1.02374,2.69264 -4.98864,4.53813 -7.03399,3.27403 -1.19852,-0.74073 -1.30523,-0.34599 -0.48459,1.79256 0.4362,1.13672 1.26829,1.29163 3.5,0.65159 3.75483,-1.07687 3.73679,-0.44901 -0.0433,1.50572 -1.63404,0.845 -3.77154,2.34314 -4.75,3.3292 -2.73568,2.75697 -14.4778,11.73915 -17.2481,13.194 -1.358,0.71318 -4.16009,2.52163 -6.22687,4.0188 l -3.75776,2.72211 4.46879,-0.5037 c 5.43842,-0.61299 7.8268,0.97202 7.26212,4.81939 l -0.39313,2.67857 6.05798,-3.73326 c 3.33188,-2.0533 10.91908,-6.97838 16.86045,-10.94462 z M 34.706983,145.82849 c 0.29912,-0.77948 -0.0584,-1.64835 -0.79447,-1.9308 -0.76132,-0.29215 -1.55601,0.31888 -1.84324,1.41724 -0.58714,2.24525 1.79521,2.70909 2.63771,0.51356 z m 4.67014,0.97626 c 0,-0.24254 -0.45,-0.7191 -1,-1.05902 -0.55,-0.33992 -1,-0.14148 -1,0.44098 0,0.58246 0.45,1.05902 1,1.05902 0.55,0 1,-0.19844 1,-0.44098 z m 68.994687,-9.26396 2.32294,-4.20494 -4.15881,-4.28478 -4.15882,-4.28477 0,7.11471 c 0,3.9131 0.28433,8.53639 0.63185,10.27398 0.71356,3.56781 0.95994,3.35583 5.36284,-4.6142 z m 97.67601,4.0423 c -0.2957,-0.2957 -1.06562,-0.21132 -1.71093,0.1875 -0.86994,0.53766 -0.82251,0.94308 0.18347,1.56809 1.33344,0.82847 2.62596,-0.65708 1.52746,-1.75559 z m 5.10013,1.47514 c -0.61807,-1.85422 -2.77083,-2.16176 -2.77083,-0.39583 0,0.87083 0.7125,1.58333 1.58333,1.58333 0.87084,0 1.40521,-0.53438 1.1875,-1.1875 z m 31.82067,-12.2446 c 3.82387,-3.36483 4.60462,-4.57677 3.94961,-6.13088 -0.75391,-1.78874 -0.86633,-1.74564 -1.46861,0.56298 -0.54472,2.08803 -1.33672,2.55022 -4.80613,2.80475 -4.18406,0.30696 -10.26637,-1.96238 -10.26637,-3.83043 0,-0.53588 -0.675,-0.97432 -1.5,-0.97432 -2.36721,0 -1.74947,-2.79044 1.01937,-4.60465 3.18403,-2.08625 8.30535,-1.3677 12.74013,1.78751 l 3.2405,2.30553 -2.20575,-3.4942 c -1.21316,-1.9218 -4.81316,-7.21167 -8,-11.75526 -5.47907,-7.811722 -5.8227,-8.110892 -6.31724,-5.5 -0.43246,2.28319 -0.0596,2.96212 2.15456,3.92267 3.28559,1.42538 4.31052,4.27402 2.76121,7.67438 -1.10244,2.41959 -5.78324,4.46779 -7.61838,3.33361 -0.42592,-0.26323 -0.7744,1.50342 -0.7744,3.9259 0,3.57058 0.33994,4.40451 1.79545,4.40451 4.99768,0 9.05385,9.69857 4.95455,11.84665 -3.60843,1.89086 -8.25,-1.92418 -8.25,-6.78091 0,-2.39118 -0.34117,-2.49414 -2.92262,-0.88199 -1.80072,1.12457 -1.74433,1.32495 1.12806,4.00816 2.93667,2.74326 3.0947,3.70539 1.31681,8.01694 -1.02762,2.4921 13.10951,-5.39665 19.06925,-10.64095 z m -127.50269,5.79155 c 1.25593,-1.54315 1.20966,-1.6583 -0.4206,-1.04668 -1.00748,0.37798 -2.23342,0.68723 -2.72432,0.68723 -0.49089,0 -1.62246,1.41153 -2.51459,3.13673 l -1.62207,3.13672 2.9352,-2.09004 c 1.61436,-1.14953 3.57023,-2.87031 4.34638,-3.82396 z m 105.91119,4.69957 c 0,-0.51754 -0.45,-1.2191 -1,-1.55902 -0.55,-0.33992 -1,0.0835 -1,0.94098 0,0.85746 0.45,1.55902 1,1.55902 0.55,0 1,-0.42344 1,-0.94098 z m -90.68415,-1.80902 c 0.23864,-0.4125 0.0718,-1.65 -0.3707,-2.75 -0.44252,-1.1 -0.83621,-1.4743 -0.87486,-0.83179 -0.0387,0.64252 -0.34343,1.88002 -0.67728,2.75 -0.59883,1.56052 1.0809,2.28714 1.92284,0.83179 z m 16.10114,-2.43063 c -3.28143,-0.87759 -3.68098,-0.67089 -2.85646,1.47776 0.50322,1.31138 1.04268,1.38515 3.14026,0.42943 l 2.53265,-1.15395 -2.81645,-0.75324 z m -10.55066,1.2844 c 1.03569,-0.65613 1.10355,-1.31791 0.28041,-2.73469 -1.00853,-1.73587 -1.08809,-1.70451 -1.11633,0.43994 -0.0168,1.27907 -0.47646,2.03334 -1.03041,1.69098 -0.55,-0.33992 -1,-0.14148 -1,0.44098 0,1.27512 1.01918,1.333 2.86633,0.16279 z M 31.233883,137.35542 c 0.78202,-0.49552 0.95033,-1.11088 0.39732,-1.45266 -0.52769,-0.32613 -1.81324,0.0533 -2.85676,0.8432 -1.45909,1.10444 -1.55086,1.43997 -0.39732,1.45265 0.825,0.009 2.11054,-0.37036 2.85676,-0.84319 z m 191.034177,-1.7411 c -0.86644,-1.044 -1.5115,-1.14803 -2.2902,-0.36933 -0.7787,0.7787 -0.67733,1.33537 0.35987,1.9764 2.03286,1.25637 3.37762,0.13681 1.93033,-1.60707 z m -196.090937,0.43141 c 1.73184,-1.73185 1.50933,-2.33803 -1.33372,-3.63341 -2.06918,-0.94278 -2.63882,-0.88054 -3.10699,0.33949 -1.35017,3.51848 1.84563,5.88899 4.44071,3.29392 z m 191.970827,-1.6125 c 0.59996,-1.79986 -1.467,-1.42165 -2.16452,0.39606 -0.37373,0.97391 -0.15024,1.43108 0.58051,1.1875 0.6535,-0.21783 1.3663,-0.93043 1.58401,-1.58356 z m -182.770827,-0.0208 c 0,-1.30208 -1.18878,-2.16804 -2.1558,-1.57039 -1.03422,0.63919 -0.14244,2.40372 1.21481,2.40372 0.51754,0 0.94099,-0.375 0.94099,-0.83333 z m 104.999997,0.39235 c 0,-0.24254 -0.45,-0.7191 -1,-1.05902 -0.55,-0.33992 -1,-0.14148 -1,0.44098 0,0.58246 0.45,1.05902 1,1.05902 0.55,0 1,-0.19844 1,-0.44098 z m 92,-1.11804 c 0,-0.85746 -0.45,-1.2809 -1,-0.94098 -0.55,0.33992 -1,1.04148 -1,1.55902 0,0.51754 0.45,0.94098 1,0.94098 0.55,0 1,-0.70156 1,-1.55902 z m -108.27083,-1.04515 c -0.33229,-0.33229 -1.1948,-0.36781 -1.91667,-0.0789 -0.79773,0.31922 -0.56078,0.55618 0.60417,0.60416 1.05416,0.0434 1.64479,-0.19292 1.3125,-0.52522 z m 18.27083,-3.06184 c 0,-1.0007 -0.55922,-1.33337 -1.58179,-0.94098 -0.86998,0.33385 -2.10748,0.6213 -2.75,0.63879 -0.64251,0.0175 -0.31442,0.67808 0.72911,1.46797 2.13599,1.61682 3.60268,1.14222 3.60268,-1.16578 z m 15,2.12153 c 0,-1.8203 -3.35409,-13.44994 -3.87157,-13.42391 -0.74805,0.0376 -6.12843,8.73386 -6.12843,9.90529 0,0.44731 1.4625,1.53425 3.25,2.41543 3.20953,1.58218 6.75,2.16082 6.75,1.10319 z M 49.877123,128.24576 c 1.65,-1.09275 2.4743,-1.98979 1.83178,-1.99341 -0.64251,-0.004 -1.76751,-0.23177 -2.5,-0.50698 -0.75626,-0.28415 -1.83131,0.58014 -2.4877,2 -1.39369,3.01473 -0.78607,3.11107 3.15592,0.50039 z m 73.499997,1 c 0,-0.55 -0.675,-1 -1.5,-1 -0.825,0 -1.5,0.45 -1.5,1 0,0.55 0.675,1 1.5,1 0.825,0 1.5,-0.45 1.5,-1 z m 105,0 c 0,-0.55 -0.45,-1 -1,-1 -0.55,0 -1,0.45 -1,1 0,0.55 0.45,1 1,1 0.55,0 1,-0.45 1,-1 z m -187.999997,-1 c 0,-0.55 -0.47656,-1 -1.05902,-1 -0.58246,0 -0.7809,0.45 -0.44098,1 0.33991,0.55 0.81647,1 1.05901,1 0.24254,0 0.44099,-0.45 0.44099,-1 z m 77.999997,-0.41821 c 0,-0.23002 0.27314,-1.13002 0.60699,-2 0.50804,-1.32393 -0.26629,-1.57496 -4.75,-1.53987 l -5.35699,0.0419 3.5,1.91617 c 3.29711,1.80509 6,2.51766 6,1.58179 z m 22.45,-1.50528 c 0.5225,-0.0421 0.40679,-0.61972 -0.25714,-1.28365 -0.94286,-0.94286 -1.56626,-0.84803 -2.84744,0.43315 -1.5204,1.5204 -1.50161,1.61423 0.25714,1.28366 1.04359,-0.19616 2.32494,-0.39108 2.84744,-0.43316 z m -17.45,-0.51749 c 0,-0.24254 -0.45,-0.7191 -1,-1.05902 -0.55,-0.33992 -1,-0.14148 -1,0.44098 0,0.58246 0.45,1.05902 1,1.05902 0.55,0 1,-0.19844 1,-0.44098 z m 23.76794,-2.30902 c 3.58494,-5.17748 3.57007,-5.6096 -0.0968,-2.81274 -2.01913,1.54006 -3.67115,3.42171 -3.67115,4.18143 0,2.22053 1.71376,1.59802 3.76794,-1.36869 z m 90.23206,1.75 c 0,-0.55 -0.7875,-0.99311 -1.75,-0.98469 -1.49555,0.0131 -1.5319,0.15626 -0.25,0.98469 1.88721,1.21961 2,1.21961 2,0 z m 5.77083,-0.8125 c 0.21982,-0.65946 -0.5166,-1.1875 -1.65611,-1.1875 -1.43811,0 -1.87491,0.46137 -1.46013,1.54226 0.65496,1.70679 2.49904,1.49685 3.11624,-0.35476 z m -143.288597,-9.8635 c 4.868737,-3.60357 6.157397,-5.05329 5.353187,-6.0223 -1.23243,-1.48498 -0.42037,-4.3017 1.24018,-4.3017 0.67131,0 0.86502,0.71802 0.47214,1.75 -0.54172,1.42296 -0.42576,1.51125 0.62054,0.47248 1.80859,-1.7956 -0.14438,-4.63543 -3.46145,-5.03333 -4.178157,-0.50119 -7.550317,2.57439 -14.645137,13.35707 l -6.67387,10.14294 5.34102,-2.80954 c 2.93756,-1.54525 8.22659,-4.94527 11.75339,-7.55562 z m 26.881597,9.18174 c -0.31537,-0.82184 -1.02429,-1.21559 -1.57538,-0.875 -0.6161,0.38078 -0.47947,0.95034 0.35479,1.47895 1.82081,1.15372 1.88322,1.12284 1.22059,-0.60395 z m -77.515437,-3.60387 c -1.86606,-1.15941 -2.35019,0.7881 -0.69294,2.78748 1.23167,1.48592 1.37379,1.47217 1.69294,-0.1638 0.19161,-0.98224 -0.25839,-2.1629 -1,-2.62368 z m 5.58158,0.98482 c -1.00884,-1.63232 -2.42997,-0.90961 -2.42997,1.23575 0,1.76626 0.24988,1.91507 1.48899,0.8867 0.81894,-0.67967 1.24238,-1.63477 0.94098,-2.12245 z m 27.00708,1.18286 c 1.6764,-1.8524 1.66245,-1.90833 -0.34501,-1.38337 -1.48561,0.3885 -2.09204,0.0785 -2.09204,-1.06955 0,-0.88915 0.45,-1.61663 1,-1.61663 0.55,0 1,-0.45 1,-1 0,-1.39259 -3.34687,-1.25314 -4.8,0.2 -1.88305,1.88305 -1.41076,4.39273 1.05,5.57951 1.2375,0.59682 2.29275,1.11559 2.34501,1.15281 0.0523,0.0372 0.88118,-0.80102 1.84204,-1.86277 z m -19.98567,-3.87594 c -2.95609,-0.40371 -5.61936,-3.44832 -5.80354,-6.63452 -0.18198,-3.14825 -0.4109,-3.15322 -4.14784,-0.0901 l -3,2.45907 2.72694,0.036 c 3.04971,0.0402 6.46839,4.18949 5.95392,7.2263 -0.27423,1.6187 0.0384,1.57387 3.10453,-0.44519 3.15654,-2.07859 3.24304,-2.26788 1.16599,-2.55154 z m 51.720707,2.80639 c 3.86205,0 4.91867,-0.32109 4.51534,-1.37215 -0.2896,-0.75468 -0.84508,-3.56718 -1.2344,-6.25 -0.38932,-2.68282 -0.92728,-5.25613 -1.19547,-5.71848 -0.73185,-1.26167 -8.15223,6.3083 -10.34229,10.55079 -2.45347,4.75273 -2.42233,4.93312 0.64983,3.76509 1.4108,-0.53639 4.83395,-0.97525 7.60699,-0.97525 z m 120.32791,0 c -0.33992,-0.55 -1.29303,-1 -2.11803,-1 -0.825,0 -1.22189,0.45 -0.88197,1 0.33992,0.55 1.29303,1 2.11803,1 0.825,0 1.22189,-0.45 0.88197,-1 z m 5.22917,-0.60417 c -0.3323,-0.33229 -1.1948,-0.36781 -1.91667,-0.0789 -0.79773,0.31922 -0.56078,0.55618 0.60417,0.60416 1.05416,0.0434 1.64479,-0.19292 1.3125,-0.52522 z m -110.99267,-3.10534 c 0.19883,-0.59648 -1.02165,-2.06941 -2.71217,-3.27316 l -3.07367,-2.18865 1.71877,3.60429 c 1.64075,3.44069 3.2885,4.19325 4.06707,1.85752 z m 9.2635,-0.34951 c 0,-1.13246 -0.45,-1.7809 -1,-1.44098 -0.55,0.33992 -1,1.26648 -1,2.05902 0,0.79254 0.45,1.44098 1,1.44098 0.55,0 1,-0.92656 1,-2.05902 z M 75.377123,111.6899 c 0,-0.14129 -0.7875,-0.0578 -1.75,0.18549 -0.98151,0.24812 -2.95764,-0.68904 -4.5,-2.13409 -3.15684,-2.95764 -3.04592,-2.58701 -1.77476,-5.93044 1.25766,-3.30788 0.50095,-3.22679 -4.97524,0.53317 -3.76861,2.58752 -4.05552,2.99068 -1.76523,2.48049 4.95246,-1.10324 8.37905,4.53727 5.74563,9.45786 -0.80396,1.50221 0.042,1.24521 4,-1.21522 2.76078,-1.71619 5.0196,-3.23596 5.0196,-3.37726 z m 73.061187,-0.3298 c -1.19753,-2.23762 -6.00229,-5.50657 -6.84905,-4.65981 -0.33788,0.33788 -0.88069,3.03421 -1.20624,5.99185 l -0.59191,5.37753 4.81359,-2.43923 c 4.0971,-2.07616 4.66772,-2.71179 3.83361,-4.27034 z m -97.332027,5.28149 c -0.33229,-0.33229 -1.19479,-0.36781 -1.91666,-0.0789 -0.79774,0.31922 -0.56078,0.55618 0.60416,0.60416 1.05417,0.0434 1.64479,-0.19292 1.3125,-0.52522 z m 9.81195,-2.3293 c -0.36253,-0.58659 -1.13769,-1.06653 -1.72258,-1.06653 -0.66309,0 -0.58723,0.57378 0.20152,1.52417 1.37154,1.6526 2.59733,1.2838 1.52106,-0.45764 z m 3.95889,0.93347 c 0.33991,-0.55 0.14147,-1 -0.44099,-1 -0.58246,0 -1.05901,0.45 -1.05901,1 0,0.55 0.19844,1 0.44098,1 0.24254,0 0.7191,-0.45 1.05902,-1 z m 70.322057,-5.6439 c 1.74787,-2.27915 3.17794,-4.3955 3.17794,-4.703 0,-0.86525 -7.13443,-2.64129 -10.63519,-2.64752 -1.72435,-0.003 -4.59833,0.60963 -6.38662,1.36155 l -3.25143,1.36712 6.38662,5.06144 c 3.51264,2.78379 6.64405,4.75608 6.95868,4.38287 0.31464,-0.37321 2.00214,-2.54332 3.75,-4.82246 z m 92.17794,4.20292 c 0,-0.24254 -0.45,-0.7191 -1,-1.05902 -0.55,-0.33992 -1,-0.14148 -1,0.44098 0,0.58246 0.45,1.05902 1,1.05902 0.55,0 1,-0.19844 1,-0.44098 z m 4.72917,-0.16319 c -0.3323,-0.33229 -1.1948,-0.36781 -1.91667,-0.0789 -0.79773,0.31922 -0.56078,0.55618 0.60417,0.60416 1.05416,0.0434 1.64479,-0.19292 1.3125,-0.52522 z m -9.0908,-1.89583 c -0.31658,-0.825 -0.13972,-1.5 0.39301,-1.5 1.80064,0 0.96799,-1.49306 -1.46041,-2.61874 l -2.41343,-1.11874 1.60644,3.36874 c 1.60069,3.35668 2.96877,4.72063 1.87439,1.86874 z M 61.377123,109.77714 c 0,-0.89459 -0.58629,-1.24363 -1.5,-0.89301 -0.825,0.31659 -1.5,0.97746 -1.5,1.46862 0,0.49115 0.675,0.89301 1.5,0.89301 0.825,0 1.5,-0.66088 1.5,-1.46862 z m 4,1.02764 c 0,-0.24254 -0.45,-0.7191 -1,-1.05902 -0.55,-0.33992 -1,-0.14148 -1,0.44098 0,0.58246 0.45,1.05902 1,1.05902 0.55,0 1,-0.19844 1,-0.44098 z m 26.08586,-9.21008 c 1.97223,-1.05649 5.57224,-3.447272 8.00001,-5.312852 6.086287,-4.6769 6.702927,-5.26448 4.741447,-4.51801 -2.41282,0.91823 -5.827317,-2.90102 -5.827317,-6.51808 0,-3.42632 -0.62598,-3.6507 -3.86181,-1.38424 l -2.30681,1.61575 2.30408,1.14871 c 1.26725,0.63179 2.98345,2.35908 3.81378,3.83842 1.39195,2.47994 1.34749,2.90775 -0.5701,5.48554 -2.22952,2.99709 -5.71617,4.090932 -7.72522,2.42357 -0.91336,-0.75802 -1.27871,-0.45177 -1.39963,1.17323 -0.15297,2.055622 -3.51205,5.699022 -5.25429,5.699022 -2.36381,0 -5.34327,-3.95717 -5.41855,-7.196652 l -0.0814,-3.50528 -4,2.48552 c -5.30721,3.297782 -5.47273,3.498662 -2.20766,2.67918 5.1128,-1.28324 8.47471,4.366952 5.69207,9.566362 -0.71278,1.33183 0.70351,0.75612 4.75,-1.93083 3.17107,-2.10565 7.37923,-4.69286 9.35145,-5.74936 z m 140.914137,8.25805 c 0,-0.76616 -0.675,-1.65203 -1.5,-1.96862 -1.02029,-0.39152 -1.5,0.054 -1.5,1.39301 0,1.08322 0.67464,1.96862 1.5,1.96862 0.825,0 1.5,-0.62686 1.5,-1.39301 z M 75.877123,108.24576 c 0.33991,-0.55 -0.0835,-1 -0.94099,-1 -0.85746,0 -1.55901,0.45 -1.55901,1 0,0.55 0.42344,1 0.94098,1 0.51754,0 1.2191,-0.45 1.55902,-1 z m -4.5,-1 c 0,-0.55 -0.45,-1 -1,-1 -0.55,0 -1,0.45 -1,1 0,0.55 0.45,1 1,1 0.55,0 1,-0.45 1,-1 z m 5,-2.94098 c 0,-0.51754 -0.45,-1.2191 -1,-1.55902 -0.55,-0.33991 -1,0.0835 -1,0.94099 0,0.85746 0.45,1.55901 1,1.55901 0.55,0 1,-0.42344 1,-0.94098 z m 150.393007,-0.6408 c 0.88044,-2.2944 0.80912,-2.41822 -1.39301,-2.41822 -1.92719,0 -2.7099,1.95677 -1.33333,3.33334 1.09507,1.09507 2.08209,0.76377 2.72634,-0.91512 z M 72.377123,103.24576 c 0,-0.55 -0.70156,-1 -1.55902,-1 -0.85746,0 -1.2809,0.45 -0.94098,1 0.33991,0.55 1.04147,1 1.55901,1 0.51754,0 0.94099,-0.45 0.94099,-1 z m 148.670697,-1.66263 c -0.2957,-0.2957 -1.06562,-0.21133 -1.71093,0.1875 -0.86994,0.53765 -0.82251,0.94308 0.18347,1.56809 1.33344,0.82847 2.62596,-0.65709 1.52746,-1.75559 z M 81.981283,99.516598 c -1.01651,-1.01652 -1.85525,0.513892 -1.02122,1.863382 0.63004,1.01942 0.86558,1.02021 1.20431,0.004 0.23159,-0.69479 0.1492,-1.535122 -0.18309,-1.867412 z m 36.076577,-1.38369 c -0.27143,-1.03793 -0.0435,-1.88715 0.5065,-1.88715 0.55,0 1.24201,0.92546 1.5378,2.05656 0.36456,1.39406 1.05921,1.858462 2.15638,1.44161 1.77597,-0.67475 22.11858,-13.49948 22.11858,-13.94437 0,-0.15176 -1.6875,0.1024 -3.75,0.5648 -2.0625,0.46241 -7.7416,1.50411 -12.62023,2.31489 -4.89271,0.81313 -9.67281,2.20048 -10.66006,3.09393 -2.36455,2.13988 -3.34806,6.31178 -1.89946,8.05723 1.5169,1.827752 3.23945,0.707652 2.61049,-1.6975 z m 98.49967,-1.74475 c -0.92423,-0.19669 -2.25378,-0.82331 -2.95458,-1.3925 -2.19428,-1.78223 -2.19769,-0.33322 -0.007,3.12618 l 2.10433,3.323552 1.26901,-2.349812 c 1.09268,-2.02331 1.03552,-2.39951 -0.4114,-2.70742 z m -18.64283,1.1076 c -0.37202,-0.9625 -1.35231,-5.125 -2.17844,-9.25 -1.7046,-8.51142 -4.12776,-15.88944 -5.84168,-17.78674 -0.66133,-0.73209 -1.93267,-0.99115 -2.94938,-0.60101 -1.60813,0.6171 -1.6259,0.77589 -0.17754,1.58644 2.01613,1.12828 2.09148,5.6112 0.13074,7.7778 -1.32327,1.4622 -1.05034,2.2041 2.59625,7.05726 2.24124,2.98281 4.94081,7.12045 5.99905,9.19477 1.9444,3.81134 3.66956,5.251812 2.421,2.02148 z m 23.46242,0.75 c 0,-0.55 -0.19844,-1 -0.44098,-1 -0.24254,0 -0.7191,0.45 -1.05902,1 -0.33992,0.55 -0.14148,1 0.44098,1 0.58246,0 1.05902,-0.45 1.05902,-1 z m 5,0.059 c 0,-1.17986 -1.95035,-2.44199 -2.66667,-1.72568 -0.71631,0.71631 0.54583,2.66666 1.72569,2.66666 0.51754,0 0.94098,-0.42344 0.94098,-0.94098 z M 86.377123,97.245738 c 0,-0.55 -0.45,-1 -1,-1 -0.55,0 -1,0.45 -1,1 0,0.55 0.45,1 1,1 0.55,0 1,-0.45 1,-1 z m -3.60631,-1.58356 c 0.37372,-0.97391 0.15024,-1.43108 -0.58051,-1.1875 -1.49484,0.49828 -2.3179,2.77106 -1.00351,2.77106 0.53699,0 1.2498,-0.7126 1.58402,-1.58356 z m 8.4438,-3.52701 c -1.85902,-1.16304 -2.37117,1.75947 -0.67007,3.82363 1.19774,1.45336 1.36673,1.38405 1.67007,-0.68495 0.18562,-1.26606 -0.26438,-2.67847 -1,-3.13868 z m 5.59248,1.99727 c -1.00884,-1.63233 -2.42997,-0.90962 -2.42997,1.23575 0,1.76626 0.24988,1.91506 1.48899,0.88669 0.81894,-0.67966 1.24239,-1.63476 0.94098,-2.12244 z m -9.25448,-1.84362 c -0.37237,-3.90467 -0.40845,-3.93655 -2.73218,-2.41398 l -2.35483,1.54295 2.70576,2.38237 c 1.48816,1.31031 2.71765,2.3966 2.73218,2.41398 0.0145,0.0174 -0.14338,-1.74901 -0.35093,-3.92532 z m 137.824507,1.46279 c 0,-0.14354 -0.64362,-0.79513 -1.43026,-1.44799 -1.13977,-0.94592 -1.6387,-0.79754 -2.45652,0.73057 -0.90266,1.68664 -0.73041,1.86103 1.43026,1.44799 1.35109,-0.25827 2.45652,-0.58703 2.45652,-0.73057 z m -9,-2.56488 c 0,-0.51754 -0.9551,-0.94099 -2.12244,-0.94099 -1.76626,0 -1.91507,0.24988 -0.8867,1.48899 1.24904,1.505 3.00914,1.18446 3.00914,-0.548 z m 3.5,0.059 c 0.33992,-0.55 0.14148,-1 -0.44098,-1 -0.58246,0 -1.05902,0.45 -1.05902,1 0,0.55 0.19844,1 0.44098,1 0.24254,0 0.7191,-0.45 1.05902,-1 z M 96.377123,90.804748 c 0,-0.24254 -0.45,-0.7191 -1,-1.05902 -0.55,-0.33991 -1,-0.14147 -1,0.44099 0,0.58246 0.45,1.05901 1,1.05901 0.55,0 1,-0.19844 1,-0.44098 z m 19.884857,-5.7435 2.38486,-1.81552 -3.10918,0 c -2.44993,0 -3.44134,-0.64232 -4.67573,-3.02936 -0.8616,-1.66616 -1.29449,-3.46957 -0.96197,-4.00759 0.33252,-0.53802 -0.54909,-0.45257 -1.95913,0.18988 -3.08775,1.40687 -3.17753,1.98264 -0.56371,3.615 2.48205,1.55007 2.62323,5.89727 0.29928,9.21518 l -1.70072,2.42812 3.95072,-2.3901 c 2.1729,-1.31456 5.02391,-3.20708 6.33558,-4.20561 z m 95.87337,0.93448 c 0.85346,-0.9625 2.61081,-1.75 3.90523,-1.75 2.10316,0 2.22064,-0.21272 1.10447,-2 -1.6364,-2.62029 -2.20769,-2.52499 -3.63438,0.60624 -1.06416,2.33557 -1.56529,2.53535 -4.82549,1.92373 -3.61504,-0.67818 -3.62862,-0.6678 -2.15079,1.64377 0.81797,1.27945 1.89416,3.00126 2.39152,3.82626 0.75338,1.24968 0.96715,1.16624 1.28099,-0.5 0.20718,-1.1 1.07498,-2.7875 1.92845,-3.75 z m -119.258227,3.25 c 0.33991,-0.55 -0.11009,-1 -1,-1 -0.88992,0 -1.33992,0.45 -1,1 0.33991,0.55 0.78991,1 1,1 0.21008,0 0.66008,-0.45 1,-1 z m 8.610447,-4.28955 c -1.612597,-1.6126 -2.010147,-0.53103 -0.84157,2.28955 0.89706,2.16522 1.09488,2.25143 1.47722,0.64378 0.2428,-1.02092 -0.0432,-2.34092 -0.63565,-2.93333 z m 4.79263,2.90634 c 0.88524,-1.06665 0.79883,-1.5172 -0.37756,-1.96862 -1.04899,-0.40253 -1.52552,0.0295 -1.52552,1.38322 0,2.33116 0.36185,2.44246 1.90308,0.5854 z m 109.82609,-0.22095 c -0.3323,-0.33229 -1.1948,-0.36782 -1.91667,-0.0789 -0.79773,0.31922 -0.56078,0.55618 0.60417,0.60416 1.05416,0.0434 1.64479,-0.19292 1.3125,-0.52522 z m -108.36534,-4.89009 c -0.31537,-0.82184 -0.98359,-1.24075 -1.48493,-0.9309 -1.04858,0.64806 -0.20682,2.42515 1.14873,2.42515 0.50028,0 0.65157,-0.67241 0.3362,-1.49425 z m -4.04564,-0.89256 c 0.37864,-0.98672 -0.0476,-1.23519 -1.47754,-0.86126 -1.53776,0.40213 -1.69632,0.72421 -0.67518,1.3715 1.69109,1.07197 1.53101,1.10991 2.15272,-0.51024 z m 108.68181,-0.61319 c 0,-0.55 -0.9,-1 -2,-1 -1.1,0 -2,0.45 -2,1 0,0.55 0.9,1 2,1 1.1,0 2,-0.45 2,-1 z m -98,-1 c 0,-0.55 -0.47656,-1 -1.05902,-1 -0.58246,0 -0.7809,0.45 -0.44098,1 0.33992,0.55 0.81648,1 1.05902,1 0.24254,0 0.44098,-0.45 0.44098,-1 z m 4.72917,0.39584 c -0.3323,-0.33229 -1.1948,-0.36782 -1.91667,-0.0789 -0.79773,0.31922 -0.56078,0.55618 0.60417,0.60416 1.05416,0.0434 1.64479,-0.19292 1.3125,-0.52522 z m 7.05204,-1.89583 c 0.15466,-0.126 -0.82747,-0.95552 -2.18252,-1.84338 -2.42823,-1.59104 -2.46252,-1.57204 -2.38032,1.31897 0.0754,2.65103 0.28538,2.8284 2.18251,1.84338 1.15452,-0.59944 2.22566,-1.19297 2.38033,-1.31897 z m 20.21879,0.49999 c 0,-0.55 -0.45,-1 -1,-1 -0.55,0 -1,-0.48129 -1,-1.06955 0,-0.58825 1.0125,-0.92575 2.25,-0.75 1.59686,0.22679 2.16952,0.90012 1.97275,2.31955 -0.27353,1.97313 -0.25674,1.97393 1.25,0.0589 1.87148,-2.37864 1.87999,-2.69421 0.1368,-5.07816 -1.19851,-1.63906 -1.75456,-1.73566 -4.02807,-0.69979 -3.20901,1.46213 -4.22835,3.73473 -2.57091,5.73182 1.41377,1.70349 2.98943,1.96032 2.98943,0.48726 z m 57.18647,-6.5198 c 0.23007,-0.23007 1.82323,-0.52536 3.54035,-0.6562 2.62621,-0.20011 2.97437,-0.51381 2.19223,-1.97525 -1.4333,-2.67815 -2.71569,-3.064824 -3.36628,-1.01502 -0.68002,2.14256 -5.19303,4.50664 -6.75744,3.53978 -1.11206,-0.68729 -1.07534,-0.5657 1.21603,4.0274 l 1.44718,2.9009 0.65481,-3.20165 c 0.36015,-1.7609 0.84305,-3.38989 1.07312,-3.61996 z m -84.18647,4.0198 c 0,-0.825 -0.45,-1.5 -1,-1.5 -0.55,0 -1,0.675 -1,1.5 0,0.825 0.45,1.5 1,1.5 0.55,0 1,-0.675 1,-1.5 z m 93,0.66667 c 0,-1.30207 -1.18877,-2.16803 -2.15579,-1.57038 -1.03422,0.63918 -0.14245,2.40371 1.21481,2.40371 0.51754,0 0.94098,-0.375 0.94098,-0.83333 z m -97,-1.72568 c 0,-0.85746 -0.45,-1.2809 -1,-0.94099 -0.55,0.33992 -1,1.04148 -1,1.55902 0,0.51754 0.45,0.94098 1,0.94098 0.55,0 1,-0.70155 1,-1.55901 z m 70.98469,-0.69099 c -0.0124,-1.82734 -0.20028,-1.96823 -1,-0.75 -0.87528,1.33334 -1.0941,1.33334 -1.96938,0 -0.79972,-1.21823 -0.98756,-1.07734 -1,0.75 -0.0108,1.58844 0.57275,2.25 1.98469,2.25 1.41194,0 1.9955,-0.66156 1.98469,-2.25 z m 21.55643,1.18347 c 0.92034,-1.48915 -0.14673,-2.29879 -2.06137,-1.56407 -0.88358,0.33906 -1.32643,1.06966 -0.98412,1.62354 0.81058,1.31154 2.21511,1.28411 3.04549,-0.0595 z m -77.54112,-1.93347 c 1.21948,-0.78808 1.09025,-0.97223 -0.69098,-0.98468 -1.20504,-0.008 -2.4691,0.43468 -2.80902,0.98468 -0.78687,1.27319 1.52988,1.27319 3.5,0 z m -8.3415,-6.67482 c -0.10361,-0.10362 -1.30666,0.65833 -2.67344,1.69321 -2.45679,1.86019 -2.46231,1.8984 -0.48506,3.35855 1.87291,1.3831 2.0428,1.2755 2.67344,-1.69321 0.3704,-1.74359 0.58868,-3.25494 0.48506,-3.35855 z m 15.24458,4.29161 c 0.88249,-1.06333 0.80957,-1.51307 -0.31529,-1.94472 -1.55815,-0.59792 -3.86683,-7.411552 -2.99128,-8.828219 0.82683,-1.337836 -0.21003,-1.004423 -4.20313,1.351561 l -3.72094,2.195408 2.52656,0.842184 c 1.3896,0.463201 3.36563,2.400266 4.39118,4.304596 2.06417,3.83293 2.63074,4.10606 4.3129,2.07919 z m -5.90308,-1.49434 c 0,-0.48266 -0.675,-1.43776 -1.5,-2.12245 -1.2532,-1.040061 -1.5,-0.895675 -1.5,0.87756 0,1.21995 0.63782,2.12244 1.5,2.12244 0.825,0 1.5,-0.3949 1.5,-0.87755 z m -5,-2.18146 c 0,-0.51754 -0.45,-0.940985 -1,-0.940985 -0.55,0 -1,0.701555 -1,1.559015 0,0.85746 0.45,1.2809 1,0.94098 0.55,-0.33991 1,-1.04147 1,-1.55901 z m 72.3913,0.63633 c -0.49045,-1.27807 -3.3913,-3.089224 -3.3913,-2.117359 0,0.517152 3.02289,3.540039 3.54004,3.540039 0.21846,0 0.15152,-0.6402 -0.14874,-1.42268 z m 4.6087,-0.0773 c 1.04007,-1.2532 0.89568,-1.499995 -0.87756,-1.499995 -1.21995,0 -2.12244,0.637825 -2.12244,1.499995 0,0.825 0.3949,1.5 0.87756,1.5 0.48265,0 1.43775,-0.675 2.12244,-1.5 z m -65.4116,-4.244931 c -1.0924,-1.092399 -1.84148,0.644857 -1.05718,2.451808 0.74368,1.713363 0.79759,1.711803 1.21194,-0.03514 0.2385,-1.005548 0.16886,-2.093048 -0.15476,-2.416667 z m 7.12508,2.119506 c 0.20358,-0.618987 -0.77367,-1.344085 -2.17167,-1.611328 -2.01258,-0.384729 -2.54181,-0.08387 -2.54181,1.444981 0,1.413192 0.58225,1.845202 2.17167,1.611332 1.19442,-0.17576 2.33824,-0.825999 2.54181,-1.444985 z m 5.84539,-2.842767 c 1.73149,-1.309633 1.75491,-1.471631 0.21681,-1.5 -2.70339,-0.04986 -5.22449,-5.751364 -3.86373,-8.737892 l 1.10666,-2.428865 -5.11523,2.78406 c -5.03094,2.738181 -5.07053,2.79602 -2.40186,3.50973 3.53945,0.946596 6.49848,3.676894 6.49848,5.996152 0,2.227651 0.97531,2.330918 3.55887,0.376815 z m 46.29621,-3.985807 c 1.02474,-0.32524 2.61015,-0.304699 3.52314,0.04565 1.50492,0.577489 1.49472,0.348195 -0.10912,-2.45464 l -1.7691,-3.091636 -0.83401,2.479348 c -1.01376,3.013714 -5.13192,4.289907 -8.02098,2.485657 -1.9788,-1.23578 -1.99788,-1.195819 -0.52683,1.103711 0.83948,1.312253 1.89757,3.012659 2.35132,3.778681 0.63892,1.078628 1.1292,0.812179 2.17371,-1.181329 0.74179,-1.415753 2.18713,-2.840202 3.21187,-3.165442 z m 5.49,3.910876 c -0.32569,-0.848721 -0.80663,-1.32866 -1.06875,-1.066531 -0.26213,0.262128 -0.17998,0.956536 0.18255,1.543128 0.98605,1.595461 1.56238,1.28551 0.8862,-0.476597 z m -3.84508,-0.456872 c 0.33992,-0.55 -0.0835,-1 -0.94098,-1 -0.85746,0 -1.55902,0.45 -1.55902,1 0,0.55 0.42344,1 0.94098,1 0.51754,0 1.2191,-0.45 1.55902,-1 z m -53.5,-0.964816 c 0,-0.530649 -0.9,-1.446482 -2,-2.035184 -1.69548,-0.907393 -2,-0.76049 -2,0.964816 0,1.368517 0.65514,2.035184 2,2.035184 1.1,0 2,-0.434167 2,-0.964816 z m -6,-2.062816 c 0,-0.500279 -0.67242,-0.651568 -1.49426,-0.336198 -0.82184,0.31537 -1.24074,0.983587 -0.9309,1.484927 0.64806,1.048585 2.42516,0.206825 2.42516,-1.148729 z m 11.60417,-2.701535 c -1.01652,-1.016515 -1.85525,0.513892 -1.02122,1.863382 0.63003,1.019417 0.86558,1.020206 1.2043,0.004 0.2316,-0.694785 0.14921,-1.535121 -0.18308,-1.867413 z m 4.89583,1.729167 c 0.33992,-0.55 -0.0835,-1 -0.94098,-1 -0.85746,0 -1.55902,0.45 -1.55902,1 0,0.55 0.42344,1 0.94098,1 0.51754,0 1.2191,-0.45 1.55902,-1 z m 4.54282,-0.02292 c 1.87762,-1.004871 1.87691,-1.057352 -0.0403,-2.974564 -2.48777,-2.487764 -3.59683,-6.848502 -2.26538,-8.907295 0.63227,-0.977663 2.33458,-1.560381 4.39726,-1.505224 3.02835,0.08098 3.37627,-0.194584 3.47208,-2.75 0.12541,-3.344889 -0.28265,-3.439933 -3.60648,-0.839997 -1.375,1.075541 -2.84715,1.965534 -3.27144,1.977764 -0.42429,0.01223 -2.58567,1.222839 -4.80307,2.690242 l -4.03163,2.668007 2.80307,1.179018 c 3.19562,1.344133 5.86008,5.591048 4.96733,7.917508 -0.70372,1.833856 -0.23223,1.941797 2.37856,0.544543 z m 31.95718,-2.97708 c 0,-0.55 -0.45,-1 -1,-1 -0.55,0 -1,0.45 -1,1 0,0.55 0.45,1 1,1 0.55,0 1,-0.45 1,-1 z m 3.5,0 c 0.33992,-0.55 0.14148,-1 -0.44098,-1 -0.58246,0 -1.05902,0.45 -1.05902,1 0,0.55 0.19844,1 0.44098,1 0.24254,0 0.7191,-0.45 1.05902,-1 z m -39.5,-0.440983 c 0,-0.242541 -0.45,-0.719098 -1,-1.059017 -0.55,-0.339919 -1,-0.141476 -1,0.440983 0,0.582459 0.45,1.059017 1,1.059017 0.55,0 1,-0.198442 1,-0.440983 z m 30.7224,-1.512541 c -0.74793,-2.860121 1.50743,-5.300378 5.02013,-5.431669 3.49691,-0.130701 3.41157,-0.406471 -2.07663,-6.710654 l -3.8341,-4.404153 0.18542,3.5 c 0.32338,6.104238 0.0405,7.016595 -2.54041,8.192518 l -2.52318,1.149641 2.71027,2.828921 c 3.20287,3.343072 3.74434,3.498051 3.0585,0.875396 z m -34.7224,-0.515091 c 0,-0.892084 -0.5866,-1.243517 -1.49426,-0.895215 -0.82184,0.31537 -1.24528,0.976246 -0.94098,1.468615 0.87262,1.411923 2.43524,1.043989 2.43524,-0.5734 z m 12.5,0.468615 c 0.33992,-0.55 0.14148,-1 -0.44098,-1 -0.58246,0 -1.05902,0.45 -1.05902,1 0,0.55 0.19844,1 0.44098,1 0.24254,0 0.7191,-0.45 1.05902,-1 z m 8.87186,-2.735258 c 1.17048,-0.679392 3.19574,-1.241892 4.50058,-1.25 2.01239,-0.0125 2.18034,-0.246219 1.10662,-1.53997 -1.13032,-1.361954 -1.46314,-1.346663 -3.10902,0.14284 -1.01376,0.917437 -3.19821,1.71629 -4.85434,1.775228 -1.65613,0.05894 -3.01217,0.407856 -3.01342,0.775373 -0.001,0.367516 -0.29551,1.432367 -0.65391,2.366333 -0.58311,1.519566 -0.41258,1.554453 1.62186,0.331788 1.25042,-0.751484 3.23116,-1.9222 4.40163,-2.601592 z m 17.99197,0.241002 c -0.31537,-0.821841 -0.97625,-1.245284 -1.46861,-0.940983 -1.41193,0.872616 -1.04399,2.435239 0.5734,2.435239 0.89208,0 1.24351,-0.586597 0.89521,-1.494256 z m -25.36383,-1.383299 c 0,-0.482656 -0.675,-1.437756 -1.5,-2.122445 -1.2532,-1.040066 -1.5,-0.89568 -1.5,0.877555 0,1.219951 0.63782,2.122445 1.5,2.122445 0.825,0 1.5,-0.3949 1.5,-0.877555 z m -4.48784,-2.94362 c -0.79461,-0.79461 -2.51396,1.009251 -1.90347,1.997036 0.41524,0.67187 0.93059,0.569592 1.46194,-0.290138 0.45134,-0.730291 0.65003,-1.498395 0.44153,-1.706898 z m 12.25867,0.0087 c 0.21771,-0.65315 -0.31666,-1.187525 -1.1875,-1.187525 -0.87083,0 -1.58333,0.7125 -1.58333,1.583333 0,1.765927 2.15276,1.45839 2.77083,-0.395833 z m 6.99554,-1.800921 c -0.65492,-1.437381 -1.36281,-2.097251 -1.5731,-1.466378 -0.2103,0.630874 0.16529,1.806913 0.83463,2.613421 1.81378,2.18547 2.07324,1.78246 0.73847,-1.147043 z m 3.23363,-2.586604 c 0,-2.326103 -0.30022,-2.899779 -1.09934,-2.100663 -0.60463,0.604635 -0.79931,2.044635 -0.43261,3.2 0.95482,3.008379 1.53195,2.594229 1.53195,-1.099337 z m -10,0.259017 c 0,-0.517541 -0.45,-1.219098 -1,-1.559017 -0.55,-0.339919 -1,0.08352 -1,0.940983 0,0.857459 0.45,1.559017 1,1.559017 0.55,0 1,-0.423442 1,-0.940983 z m -4,-1.618034 c 0,-0.857459 -0.45,-1.280902 -1,-0.940983 -0.55,0.339919 -1,1.041476 -1,1.559017 0,0.517541 0.45,0.940983 1,0.940983 0.55,0 1,-0.701558 1,-1.559017 z m 5.68333,-6.090987 c -0.25694,-0.256937 -2.0908,0.211241 -4.07524,1.040396 -3.76555,1.573345 -4.87844,2.752126 -1.85809,1.968102 0.9625,-0.249846 2.65,0.211409 3.75,1.025011 1.85395,1.37125 2.02375,1.295044 2.32524,-1.043536 0.17889,-1.387548 0.11503,-2.733035 -0.14191,-2.989973 z m 6.31667,1.090987 c 0,-0.792541 -0.675,-1.440983 -1.5,-1.440983 -1.50623,0 -2.05568,2.110991 -0.86052,3.306147 0.93324,0.933242 2.36052,-0.19452 2.36052,-1.865164 z M 61.377123,223.86819 c 0,-0.20765 -0.7875,-0.99515 -1.75,-1.75 -1.58606,-1.24387 -1.62143,-1.2085 -0.37756,0.37756 1.30637,1.66575 2.12756,2.19548 2.12756,1.37244 z m -0.59196,-4.12244 c -0.90094,-1.375 -1.83787,-2.5 -2.08207,-2.5 -0.49007,0 0.45299,1.81156 1.95217,3.75 1.72185,2.22635 1.81573,1.32291 0.1299,-1.25 z m 206.591957,-10.5 c 1.925,-1.05389 3.05,-1.91617 2.5,-1.91617 -0.55,0 -2.575,0.86228 -4.5,1.91617 -1.925,1.05389 -3.05,1.91617 -2.5,1.91617 0.55,0 2.575,-0.86228 4.5,-1.91617 z m -1,-4 c 0.825,-0.53316 1.05,-0.96937 0.5,-0.96937 -0.55,0 -1.675,0.43621 -2.5,0.96937 -0.825,0.53316 -1.05,0.96937 -0.5,0.96937 0.55,0 1.675,-0.43621 2.5,-0.96937 z m 4.49292,0.0114 c 0.35034,-0.56686 -0.0511,-0.7345 -0.94098,-0.39301 -1.73242,0.66479 -2.04939,1.38156 -0.61096,1.38156 0.51754,0 1.21592,-0.44485 1.55194,-0.98855 z m -6.49292,-17.0114 c 0.825,-0.53316 1.05,-0.96937 0.5,-0.96937 -0.55,0 -1.675,0.43621 -2.5,0.96937 -0.825,0.53316 -1.05,0.96937 -0.5,0.96937 0.55,0 1.675,-0.43621 2.5,-0.96937 z m -1,-2 c 0.825,-0.53316 1.05,-0.96937 0.5,-0.96937 -0.55,0 -1.675,0.43621 -2.5,0.96937 -0.825,0.53316 -1.05,0.96937 -0.5,0.96937 0.55,0 1.675,-0.43621 2.5,-0.96937 z m -6.5,-15.56579 c 3.30188,-1.61334 4.0619,-2.26423 2.23781,-1.91652 -2.71237,0.51704 -10.19646,4.53008 -8.23781,4.4172 0.55,-0.0317 3.25,-1.15701 6,-2.50068 z m -4.45582,-20.68421 c 4.42113,-2.52449 5.49051,-4.61026 1.20582,-2.35189 -3.50269,1.84619 -6.99394,4.52861 -5.94812,4.57009 0.44104,0.0175 2.57507,-0.9807 4.7423,-2.2182 z M 87.377123,268.55178 c -1.62331,-0.58016 -4,-3.22133 -4,-4.44513 0,-1.76907 5.58783,1.31751 5.72687,3.16339 0.0819,1.08665 0.0643,1.94019 -0.039,1.89677 -0.10331,-0.0434 -0.86284,-0.32018 -1.68784,-0.61503 z m -1.75,-6.33718 c -1.2375,-0.49742 -2.25,-1.64204 -2.25,-2.5436 0,-1.08391 0.53585,-1.43359 1.58178,-1.03223 0.86999,0.33385 1.9425,0.60699 2.38337,0.60699 0.44087,0 1.03694,0.9 1.32459,2 0.57559,2.20103 0.26894,2.29877 -3.03974,0.96884 z m -1.17528,-5.72039 c -2.10777,-1.07592 -3.54886,-2.62104 -3.74656,-4.01702 l -0.32128,-2.26857 4.09346,2.08833 c 4.51321,2.30247 4.7824,3.61513 0.39966,1.94881 -1.52756,-0.58078 -2.95864,-0.8747 -3.18018,-0.65316 -0.22154,0.22154 1.41587,1.13049 3.63869,2.01988 2.22282,0.8894 4.04149,1.84573 4.04149,2.12518 0,0.90274 -1.42617,0.54268 -4.92528,-1.24345 z m 65.008607,-0.65834 c 1.92295,-1.89169 41.6558,-13.18432 42.70326,-12.13686 0.61742,0.61743 0.60781,0.62054 -15.29188,4.94712 -7.15292,1.94644 -15.66086,4.45262 -18.90656,5.5693 -5.3812,1.85141 -9.5463,2.64499 -8.50482,1.62044 z m -65.184527,-5.01291 c -1.96101,-1.33254 -3.56547,-3.13254 -3.56547,-4 0,-1.92507 -0.0982,-1.92362 4.35232,-0.0641 4.21444,1.7609 3.9695,3.02478 -0.29697,1.53235 -2.66389,-0.93185 -2.73305,-0.8985 -0.88868,0.42847 4.86974,3.50366 5.93486,4.46448 4.98213,4.49425 -0.55983,0.0175 -2.62233,-1.05846 -4.58333,-2.391 z m 67.184527,1.0311 c 0.82243,-0.77316 21.58785,-7.73714 29.91667,-10.03299 11.24724,-3.10032 15,-3.73836 15,-2.55031 0,0.53625 -0.92437,0.975 -2.05416,0.975 -2.6256,0 -16.4851,3.92393 -29.89232,8.46317 -9.22687,3.12391 -14.24097,4.33978 -12.97019,3.14513 z m -1.22018,-3.50256 c 1.04274,-0.66064 1.07081,-0.96109 0.11941,-1.27822 -1.46236,-0.48745 35.66632,-14.8671 38.32646,-14.84354 0.99496,0.009 1.5309,0.46602 1.19098,1.01602 -0.33992,0.55 -1.48946,1 -2.55455,1 -1.93187,0 -36.28395,12.90867 -34.51123,12.96848 0.51382,0.0173 9.12974,-2.66848 19.14649,-5.96848 19.10528,-6.2942 20.41929,-6.61596 20.41929,-5 0,0.55 -1.01551,1 -2.25669,1 -1.24118,0 -10.05124,2.7 -19.57791,6 -15.633,5.4152 -24.1856,7.56607 -20.30225,5.10574 z m -4.86315,-3.40586 c 0,-0.56919 22.71138,-9.65667 33,-13.20426 8.6795,-2.99275 12,-3.71937 12,-2.62596 0,0.49927 -1.6875,1.21322 -3.75,1.58656 -2.0625,0.37334 -10.95822,3.53867 -19.76826,7.03407 -15.98497,6.34207 -21.48174,8.18687 -21.48174,7.20959 z m -3.4218,-2.67808 c 1.76001,-1.76001 44.58004,-18.0218 47.45442,-18.0218 2.62194,0 -0.13593,1.28965 -9.72296,4.5467 -5.39531,1.83297 -15.8286,5.83482 -23.18509,8.89299 -13.24225,5.50495 -16.49328,6.52902 -14.54637,4.58211 z m 3.96451,-5.9527 c -0.72308,-1.16996 -0.89975,-1.06524 15.5735,-9.23105 16.16551,-8.01328 23.88379,-11.18782 23.88379,-9.82346 0,0.54198 -0.50765,0.98541 -1.12811,0.98541 -1.33167,0 -31.01665,14.18857 -30.58599,14.61923 0.16187,0.16187 6.27264,-2.15039 13.57949,-5.13834 7.30686,-2.98795 13.1274,-4.95927 12.93455,-4.3807 -0.19286,0.57857 -4.83924,2.76534 -10.3253,4.85949 -5.48605,2.09415 -12.44964,4.98053 -15.47464,6.41417 -5.93957,2.81494 -7.56404,3.14056 -8.45729,1.69525 z m -9.057,-1.74683 c 4.51397,-4.63913 39.70885,-25.7697 41.73943,-25.05984 0.70117,0.24512 -1.02329,1.56467 -3.83214,2.93235 -6.13023,2.9849 -17.393,9.75025 -17.393,10.44767 0,0.43742 7.99967,-3.74714 19.12254,-10.00285 3.29931,-1.85559 3.76331,-1.89661 5.20022,-0.4597 1.43691,1.43691 0.66754,2.03001 -8.62254,6.64706 -5.61012,2.78816 -14.73138,7.50236 -20.26947,10.47601 -5.53809,2.97365 -11.79025,5.72949 -13.8937,6.1241 -3.68678,0.69164 -3.76062,0.65187 -2.05134,-1.1048 z m 37.09466,-18.07523 c -0.45746,-0.45746 -6.58037,2.5782 -6.58037,3.26246 0,0.25198 1.56935,-0.29023 3.48744,-1.2049 1.9181,-0.91468 3.30991,-1.84058 3.09293,-2.05756 z m -39.08037,13.76238 c 1.65,-1.08756 3,-2.42001 3,-2.96099 0,-0.97111 1.73518,-3.01996 5.21512,-6.15788 1.81078,-1.6328 10.56057,-7.2414 15.47917,-9.92212 1.48185,-0.80764 5.93562,-3.39634 9.89725,-5.75268 3.96163,-2.35634 7.66417,-4.13051 8.22786,-3.94262 0.5637,0.1879 -1.64006,1.83763 -4.89725,3.66606 -6.98782,3.92265 -25.22278,15.92921 -25.92974,17.07309 -0.27035,0.43744 3.22076,-1.45016 7.75802,-4.19467 11.60689,-7.02079 25.55622,-13.93948 26.1541,-12.97209 0.27723,0.44858 -3.41287,2.66902 -8.20023,4.93432 -10.4421,4.94101 -13.53786,6.69615 -27.28664,15.47016 -5.81746,3.7125 -10.9913,6.74703 -11.49742,6.74341 -0.50613,-0.004 0.42976,-0.89642 2.07976,-1.98399 z m -4.95,-4.88549 c 2.81552,-2.59643 17.9448,-13.2106 24.24327,-17.00822 3.99931,-2.41136 7.10442,-4.55135 6.90024,-4.75554 -0.20419,-0.20418 -3.39687,1.23438 -7.09485,3.19681 -3.69798,1.96242 -7.16022,3.4225 -7.69386,3.24462 -0.53364,-0.17788 2.90484,-2.24527 7.64108,-4.59421 4.73623,-2.34893 8.28832,-3.74814 7.89353,-3.10935 -0.4454,0.72067 -0.19061,0.98569 0.67139,0.69836 0.76406,-0.25469 1.3892,-1.10057 1.3892,-1.87973 0,-0.77917 1.0125,-1.46773 2.25,-1.53013 1.2375,-0.0624 2.25,0.23011 2.25,0.65004 0,0.41994 -6.4125,4.87857 -14.25,9.90809 -7.8375,5.02952 -16.19748,10.6995 -18.57774,12.59995 -2.38026,1.90046 -4.83276,3.45538 -5.45,3.45538 -0.6986,0 -0.76363,-0.33073 -0.17226,-0.87607 z m 4.2625,-193.807041 c 0.72187,-0.288871 1.58437,-0.253344 1.91667,0.07895 0.33229,0.332292 -0.25834,0.568641 -1.3125,0.52522 -1.16495,-0.04798 -1.4019,-0.284941 -0.60417,-0.604167 z m 21.75179,-5.610014 c 0.37553,-0.986221 0.93469,-1.541221 1.24258,-1.233333 0.30789,0.307887 6.4e-4,1.114794 -0.68278,1.793128 -0.98762,0.980267 -1.10248,0.865403 -0.5598,-0.559795 z"
     id="path8253"
     inkscape:connector-curvature="0" />
  <path
     style="fill:none;stroke:#000000;stroke-width:1px;stroke-linecap:butt;stroke-linejoin:miter;stroke-opacity:1"
     d="m 133.42521,187.01253 3.62916,1.17414 0.10674,-4.69657 -4.8033,2.77525 z"
     id="path8823"
     inkscape:connector-curvature="0" />
</svg>
