<?xml version="1.0" encoding="UTF-8" standalone="no"?>
<!-- Created with Inkscape (http://www.inkscape.org/) -->

<svg
   xmlns:dc="http://purl.org/dc/elements/1.1/"
   xmlns:cc="http://creativecommons.org/ns#"
   xmlns:rdf="http://www.w3.org/1999/02/22-rdf-syntax-ns#"
   xmlns:svg="http://www.w3.org/2000/svg"
   xmlns="http://www.w3.org/2000/svg"
   xmlns:sodipodi="http://sodipodi.sourceforge.net/DTD/sodipodi-0.dtd"
   xmlns:inkscape="http://www.inkscape.org/namespaces/inkscape"
   id="svg8243"
   version="1.1"
   inkscape:version="0.48.4 r9939"
   width="486.07486"
   height="464.91913"
   sodipodi:docname="DeckofCards.svg">
  <metadata
     id="metadata8249">
    <rdf:RDF>
      <cc:Work
         rdf:about="">
        <dc:format>image/svg+xml</dc:format>
        <dc:type
           rdf:resource="http://purl.org/dc/dcmitype/StillImage" />
        <dc:title />
      </cc:Work>
    </rdf:RDF>
  </metadata>
  <defs
     id="defs8247" />
  <sodipodi:namedview
     pagecolor="#ffffff"
     bordercolor="#666666"
     borderopacity="1"
     objecttolerance="10"
     gridtolerance="10"
     guidetolerance="10"
     inkscape:pageopacity="0"
     inkscape:pageshadow="2"
     inkscape:window-width="1208"
     inkscape:window-height="751"
     id="namedview8245"
     showgrid="false"
     inkscape:zoom="0.8280702"
     inkscape:cx="137.56522"
     inkscape:cy="196.12736"
     inkscape:window-x="2"
     inkscape:window-y="22"
     inkscape:window-maximized="0"
     inkscape:current-layer="svg8243"
     fit-margin-top="0"
     fit-margin-left="0"
     fit-margin-right="0"
     fit-margin-bottom="0" />
  <path
     style="fill:#837151;fill-opacity:0.52631579;stroke:none"
     d="M 0.86411122,206.74636 C 86.300222,137.02258 199.77537,69.074781 314.05953,1.1782358 338.42539,20.757211 411.35237,128.30841 449.6699,192.75481 l 2.15255,32.28819 32.28819,120.54257 c -41.90005,28.26404 -94.25217,49.76323 -145.83498,65.65263 -65.11451,16.68224 -139.90077,46.26015 -195.34353,50.04671 L 123.55922,446.75522 C 94.551455,365.56321 42.591009,286.66645 0.86411122,206.74636 z"
     id="path8255"
     inkscape:connector-curvature="0"
     sodipodi:nodetypes="ccccccccc" />
  <path
     style="fill:#ff1d00;fill-opacity:1;stroke:none"
     d="m 353.18269,221.43142 c -11.20882,9.78074 -2.03487,13.44665 0.76103,19.02599 l 14.07924,-0.76104 -1.14156,-15.98183 z"
     id="path8765"
     inkscape:connector-curvature="0"
     sodipodi:nodetypes="ccccc" />
  <path
     style="fill:#ff1d00;fill-opacity:1;stroke:none"
     d="m 372.77945,209.06451 1.71235,15.22081 11.22534,2.09285 2.28312,-13.31819 c -5.19851,-3.83002 -10.5048,-9.81549 -15.22081,-3.99547 z"
     id="path8767"
     inkscape:connector-curvature="0"
     sodipodi:nodetypes="ccccc" />
  <path
     style="fill:#ff1d00;fill-opacity:1;stroke:none"
     d="m 391.61519,198.79048 c -1.10694,5.03733 0.99529,10.15171 9.13248,15.41105 l 4.18571,-5.32729 c -4.95109,-11.54858 -9.38179,-14.77043 -13.31819,-10.08376 z"
     id="path8769"
     inkscape:connector-curvature="0"
     sodipodi:nodetypes="cccc" />
  <path
     style="fill:#ff1d00;fill-opacity:1;stroke:none"
     d="m 397.13274,185.85279 8.37143,7.99092 c 4.42869,2.64747 8.26293,5.99748 18.0747,2.28312 l 2.28312,-6.27857 c -9.57642,-4.73781 -19.15283,-10.97797 -28.72925,-3.99547 z"
     id="path8771"
     inkscape:connector-curvature="0"
     sodipodi:nodetypes="ccccc" />
  <path
     style="fill:#ff1d00;fill-opacity:1;stroke:none"
     d="m 388.95156,170.82225 1.52208,4.18574 12.93767,0.95129 1.90259,-11.79611 -9.89352,-3.23444 z"
     id="path8773"
     inkscape:connector-curvature="0" />
  <path
     style="fill:#ff1d00;fill-opacity:1;stroke:none"
     d="m 380.58012,142.09301 -3.8052,14.65002 16.55261,4.1857 3.80521,-15.22078 -7.99093,-4.7565 -7.6104,0.95129 z"
     id="path8775"
     inkscape:connector-curvature="0" />
  <path
     style="fill:#ff1d00;fill-opacity:1;stroke:none"
     d="m 369.54504,124.39882 -3.99546,9.13248 10.65456,6.08832 8.75197,-7.42013 z"
     id="path8777"
     inkscape:connector-curvature="0" />
  <path
     style="fill:#ff1d00;fill-opacity:1;stroke:none"
     d="m 352.99242,110.50986 0.38053,-7.80067 15.79157,1.9026 0.19025,10.27405 -5.51753,5.13701 z"
     id="path8779"
     inkscape:connector-curvature="0" />
  <path
     style="fill:#ff1d00;fill-opacity:1;stroke:none"
     d="m 338.72291,80.639033 -3.80519,10.844819 9.13248,6.659109 6.27857,-0.19027 6.6591,-9.703257 -8.18118,-8.181182 z"
     id="path8781"
     inkscape:connector-curvature="0" />
  <path
     style="fill:#ff1d00;fill-opacity:1;stroke:none"
     d="m 328.44889,74.931234 10.46428,-0.38052 1.71236,-6.468839 -11.60586,-8.561699 -5.13703,3.99546 z"
     id="path8783"
     inkscape:connector-curvature="0" />
  <path
     style="fill:#ff1d00;fill-opacity:1;stroke:none"
     d="m 305.42743,35.1669 2.47338,19.025997 4.94676,4.56624 7.22988,-4.94676 -2.85389,-18.645477 -5.70782,-4.37598 z"
     id="path8785"
     inkscape:connector-curvature="0" />
  <path
     style="fill:#ff1d00;fill-opacity:1;stroke:none"
     d="m 290.01636,42.39678 11.79613,2.853899 -0.38052,12.747417 -8.18117,2.283119 -8.18118,-14.269496 z"
     id="path8787"
     inkscape:connector-curvature="0" />
  <path
     style="fill:#ff1d00;fill-opacity:1;stroke:none"
     d="m 272.13194,59.329915 8.94221,12.557159 3.8052,-3.805199 3.04416,-9.322738 -7.42015,-5.51754 -8.56168,2.853899 z"
     id="path8789"
     inkscape:connector-curvature="0" />
  <path
     style="fill:#ff1d00;fill-opacity:1;stroke:none"
     d="m 255.76958,63.515636 -1.14156,12.557158 3.04415,3.995458 9.89352,-0.951299 1.14156,-6.659099 -1.9026,-5.327279 z"
     id="path8791"
     inkscape:connector-curvature="0" />
  <path
     style="fill:#ff1d00;fill-opacity:1;stroke:none"
     d="m 231.22604,76.833834 0.19026,14.650018 6.08833,4.375979 11.60586,-4.375979 0.95129,-10.274041 -11.22534,-6.659097 z"
     id="path8793"
     inkscape:connector-curvature="0" />
  <path
     style="fill:#ff1d00;fill-opacity:1;stroke:none"
     d="m 209.34614,92.244893 4.75651,15.030537 11.4156,-2.66364 -0.76104,-9.322739 -5.70781,-5.707801 -9.32274,0.570776 z"
     id="path8795"
     inkscape:connector-curvature="0" />
  <path
     style="fill:#ff1d00;fill-opacity:1;stroke:none"
     d="m 190.89093,102.89945 12.93768,2.28312 -0.9513,12.55716 -13.50847,-1.14156 -1.33181,-6.84936 z"
     id="path8797"
     inkscape:connector-curvature="0" />
  <path
     style="fill:#ff1d00;fill-opacity:1;stroke:none"
     d="m 166.53765,115.83713 11.03507,-2.66364 4.18573,3.99546 0.76105,6.08831 -6.2786,9.13248 -7.22986,-1.33181 -3.04417,-8.56171 z"
     id="path8799"
     inkscape:connector-curvature="0" />
  <path
     style="fill:#ff1d00;fill-opacity:1;stroke:none"
     d="m 147.10268,129.12018 1.61442,14.12608 6.59216,2.55615 5.24684,-2.42161 4.84323,-6.59218 -6.86124,-8.20658 -10.09006,-3.22881 z"
     id="path8801"
     inkscape:connector-curvature="0" />
  <path
     style="fill:#ff1d00;fill-opacity:1;stroke:none"
     d="m 135.12915,154.27806 10.09006,-9.55192 -11.4354,-8.34112 -3.36336,8.07204 2.15255,10.09007 z"
     id="path8803"
     inkscape:connector-curvature="0" />
  <path
     style="fill:#ff1d00;fill-opacity:1;stroke:none"
     d="m 111.98928,153.47085 -0.26906,9.821 3.22881,3.09428 9.28285,0.94174 2.55615,-5.51591 -1.2108,-8.74471 -13.72248,-0.67268 z"
     id="path8805"
     inkscape:connector-curvature="0" />
  <path
     style="fill:#ff1d00;fill-opacity:1;stroke:none"
     d="m 91.674638,166.52066 5.650426,-3.49789 8.879246,3.63242 0.53814,11.839 -8.206576,0.94175 -6.457634,-4.43962 z"
     id="path8807"
     inkscape:connector-curvature="0" />
  <path
     style="fill:#ff1d00;fill-opacity:1;stroke:none"
     d="m 73.108929,180.37769 0.13454,9.1483 4.170559,4.30511 8.744716,-0.53815 4.170558,-7.39938 -11.704467,-9.14831 z"
     id="path8809"
     inkscape:connector-curvature="0" />
  <path
     style="fill:#ff1d00;fill-opacity:1;stroke:none"
     d="m 56.157632,197.32897 6.188569,-0.8072 0.672671,6.32312 -5.515899,0 z"
     id="path8811"
     inkscape:connector-curvature="0" />
  <path
     style="fill:#ff1d00;fill-opacity:1;stroke:none"
     d="m 27.770934,203.65209 23.543471,3.09427 1.883478,5.24683 -13.587947,7.53392 -15.605957,-5.11231 z"
     id="path8813"
     inkscape:connector-curvature="0" />
  <path
     style="fill:#ff1d00;fill-opacity:1;stroke:none"
     d="m 50.641733,224.37034 10.628194,8.07204 2.690684,10.35912 -10.090059,2.69069 -10.897263,-4.03602 1.883476,-13.85702 z"
     id="path8815"
     inkscape:connector-curvature="0" />
  <path
     style="fill:#ff1d00;fill-opacity:1;stroke:none"
     d="m 61.808064,248.18287 -0.13454,14.12607 8.341116,4.97777 4.439625,10.62819 7.802981,8.07205 6.726703,-2.28707 3.228819,-9.14833 -6.995773,-16.95129 -12.646206,-10.76274 -9.820991,-1.07626 z"
     id="path8817"
     inkscape:connector-curvature="0" />
  <path
     style="fill:#ff1d00;fill-opacity:1;stroke:none"
     d="m 92.347309,288.67764 13.587941,2.55614 21.52545,29.32844 -8.61018,8.07204 -13.31888,-2.01801 -3.09428,-13.85702 -8.879244,-3.49787 -5.515899,-11.0318 z"
     id="path8819"
     inkscape:connector-curvature="0" />
  <path
     style="fill:#ff1d00;fill-opacity:1;stroke:none"
     d="m 333.4296,231.78293 -11.30748,6.85132 -66.4523,40.60665 -30.24609,21.94652 -17.37898,11.86449 8.13247,-4.67895 -1.33684,9.30221 -8.13248,-1.89386 0.55702,-2.17238 -9.02369,6.12721 -26.40268,16.04212 -22.44784,13.31275 -8.18817,-6.57282 -9.19081,-9.30221 -11.14036,1.61535 -1.72676,6.18291 3.45351,9.69212 7.68686,2.9522 11.30747,-8.63379 4.67896,2.17238 -6.96274,9.80352 -0.94692,12.25441 8.63378,9.3022 5.90439,-7.40835 0.11141,-22.22502 4.45615,-2.28379 6.1829,14.42679 10.24914,1.89386 3.45352,-6.46142 -8.46669,-16.43204 7.01844,-5.62588 3.23071,2.95219 0.66841,6.2943 8.46669,7.96537 8.35527,-6.0715 2.67369,-9.02369 -10.63905,-9.24651 7.40834,-3.50922 4.17764,8.74519 6.29431,4.01054 8.35527,-2.11667 2.11667,-0.83553 1.05835,-8.29958 8.52238,0.38991 0.44561,-0.66842 4.12193,-5.79299 3.78773,-8.74519 12.53292,2.56228 21.11099,-15.76361 2.17237,-6.85133 -2.45088,-7.29694 -7.90966,-2.9522 0.89123,-2.9522 11.08467,-5.12457 0.38991,12.143 8.85659,5.79299 7.01844,-1.78246 -0.16702,-9.80352 -13.42414,-9.30221 16.15353,-8.35528 -2.28377,12.42152 6.2943,5.79299 10.24915,-1.61535 4.28903,-10.80616 -6.35,-6.29431 -9.24651,-1.78246 14.25967,-9.69212 2.11668,14.03686 9.02369,3.45352 4.34474,-2.50658 5.9044,-8.74519 -4.06624,-6.62852 -8.74518,-3.89914 12.14299,-9.1351 2.28378,11.41889 8.07677,6.07149 4.01053,-1.89386 0.66843,-11.14037 -10.75046,-8.07676 z m -78.42819,50.52156 -2.67369,9.35792 -5.51449,1.11403 -3.23071,-3.78772 11.41889,-6.68423 z m -22.83776,16.37635 1.72676,8.57808 -6.0715,-2.67368 -1.89387,-2.67369 6.23861,-3.23071 z m -6.96274,29.02066 -3.84341,4.12194 1.33684,-0.50132 2.50657,-3.62062 z"
     id="path8821"
     inkscape:connector-curvature="0" />
  <path
     style="fill:#ff1d00;fill-opacity:1;stroke:none"
     d="m 310.59184,62.393617 -11.41887,2.283776 C 256.2352,85.407035 217.30336,110.14209 179.63681,136.14286 139.2601,164.0144 39.415378,216.79938 59.432239,220.64255 87.900386,262.75932 114.10749,303.95802 149.2236,348.92391 229.38647,302.62959 309.52559,246.17117 389.68846,194.7969 l -1.11404,-14.81669 C 363.82309,140.03613 340.16883,99.442301 310.59184,62.393617 z m -5.34738,39.158403 c 23.57914,24.18741 35.98157,52.1004 50.9672,79.15232 -16.55495,16.66246 -39.80724,31.97141 -66.60485,47.1527 -41.68449,23.61495 -86.9962,62.98849 -132.77018,81.45346 -19.91512,-8.05328 -50.70261,-60.68272 -63.53767,-85.21442 25.97682,-23.34368 70.48836,-42.77756 102.8367,-63.74469 36.27805,-23.51426 71.45554,-50.86213 109.1088,-58.79937 z"
     id="path8841"
     inkscape:connector-curvature="0"
     sodipodi:nodetypes="ccscccccccsccsc" />
  <path
     style="fill:#ff1d00;fill-opacity:1;stroke:none"
     d="m 193.74483,159.40666 c -29.74129,21.48573 -35.29994,64.26768 -7.99093,87.13907 18.93214,14.51756 41.86631,11.42622 65.82996,3.8052 38.54662,-30.00469 10.48761,-71.28364 9.513,-77.24555 -19.75093,-18.45065 -40.57951,-31.35913 -67.35203,-13.69872 z"
     id="path8846"
     inkscape:connector-curvature="0"
     sodipodi:nodetypes="ccccc" />
  <path
     style="fill:#000000"
     d="m 134.87934,462.71458 c -5.77745,-2.51649 -15.06253,-12.36005 -15.06253,-15.96847 0,-1.18803 -1.63333,-5.33756 -3.62961,-9.22117 C 111.73379,428.8612 99.377004,400.01668 97.508634,393.92343 95.161444,386.2687 84.253539,364.83857 80.762878,361.024 76.801665,356.69524 68.125511,339.79249 68.125511,336.40411 c 0,-3.52473 -12.655869,-29.00496 -21.009328,-42.29838 C 33.047592,271.71745 30.936839,268.13956 23.456358,254.0004 19.307025,246.15758 12.415076,233.9733 8.1409179,226.92422 3.8667596,219.87513 0.21990202,212.25512 0.03679002,209.99087 -0.53192138,202.9589 5.4020989,196.63429 24.173513,184.26535 c 9.958473,-6.56189 25.726355,-17.61911 35.039704,-24.57159 23.452525,-17.50751 54.248473,-37.30252 109.621213,-70.462311 6.86247,-4.109568 17.28986,-10.602928 23.17197,-14.42969 5.88211,-3.826762 16.3095,-10.315024 23.17196,-14.418358 6.86248,-4.103336 23.30565,-14.408422 36.54042,-22.900192 C 290.35901,12.690619 311.9985,0 315.63355,0 c 3.43079,0 10.44882,7.7117107 25.01077,27.482926 13.46704,18.284625 30.48622,43.911738 34.89632,52.546124 4.35722,8.530873 6.9104,12.10336 34.61817,48.43875 9.20401,12.06994 20.40435,28.00719 24.88967,35.41611 4.4853,7.40892 9.89182,16.04635 12.01448,19.1943 2.65222,3.9333 4.25324,9.92673 5.11861,19.16143 0.69257,7.39085 2.09112,13.43789 3.10785,13.43789 1.20869,0 1.16138,0.8281 -0.13654,2.39208 -1.09187,1.31564 -1.48373,2.89359 -0.87078,3.50654 0.61297,0.61296 1.34807,3.24253 1.63359,5.84347 0.83056,7.56608 4.99311,20.34218 6.62765,20.34218 0.82419,0 1.0802,0.67685 0.56892,1.50413 -1.09753,1.77582 1.38831,11.89614 5.97895,24.34152 1.80809,4.90176 5.83164,17.218 8.94125,27.36944 9.09805,29.70105 10.48657,44.82015 4.11623,44.82015 -1.76419,0 -2.26732,-1.01418 -1.49785,-3.01936 1.0529,-2.74382 0.86697,-2.76885 -2.03739,-0.27412 -3.48947,2.99733 -25.94653,12.24202 -29.50602,12.14648 -1.21512,-0.0326 -0.41621,-1.55547 1.7754,-3.38413 3.37542,-2.81641 3.55523,-3.48963 1.17599,-4.40262 -1.5448,-0.5928 -3.53846,-0.62682 -4.43033,-0.0756 -0.89196,0.55119 -1.62169,0.15277 -1.62169,-0.88547 0,-1.03821 1.15582,-1.88765 2.56849,-1.88765 1.41267,0 3.05856,-0.79293 3.65751,-1.76206 0.63662,-1.03006 -0.24524,-1.33986 -2.12288,-0.74571 -2.86914,0.90786 -2.84265,0.71548 0.2481,-1.80287 1.90299,-1.55055 4.15612,-2.8192 5.00696,-2.8192 0.85082,0 1.07962,-0.7562 0.50841,-1.68041 -0.57121,-0.92423 2.5899,-3.28546 7.02465,-5.24716 4.43475,-1.9617 8.06319,-4.02365 8.06319,-4.58211 0,-0.55847 -3.0079,0.28574 -6.68423,1.87601 -3.67631,1.59025 -8.28842,3.27481 -10.24913,3.74346 -3.0043,0.71808 -3.14445,0.52551 -0.89123,-1.22455 2.18107,-1.69402 1.77056,-1.93226 -2.22807,-1.29303 -7.9608,1.27263 -5.64928,-1.45505 5.86858,-6.92507 12.1808,-5.78486 11.52432,-8.20078 -0.75271,-2.77008 -6.61471,2.92599 -8.13955,3.09855 -8.94032,1.01177 -0.53099,-1.38373 -2.01972,-2.51588 -3.30832,-2.51588 -1.41205,0 -2.26992,-1.94745 -2.15926,-4.90176 0.1499,-4.00451 1.89564,-5.83148 9.5366,-9.98077 11.20965,-6.08724 10.91141,-8.25764 -0.44446,-3.2344 -6.89344,3.0493 -9.97997,3.47538 -15.39663,2.12543 -0.49017,-0.12209 3.72089,-2.60271 9.35791,-5.51232 5.63702,-2.90961 10.24914,-5.69192 10.24914,-6.18291 0,-0.49097 -4.0903,1.18003 -9.08953,3.71335 -4.99924,2.5333 -9.54451,4.15103 -10.10061,3.59493 -1.32001,-1.32001 -1.27411,-1.34943 10.94072,-7.01276 5.75654,-2.66897 10.04735,-5.27173 9.53516,-5.78392 -0.51219,-0.51221 -5.22209,1.17146 -10.46642,3.74147 -8.39339,4.11324 -9.00155,4.21578 -5.079,0.8564 2.45089,-2.09899 3.50894,-3.3326 2.35125,-2.74137 -1.1577,0.59122 -2.53952,0.37175 -3.07073,-0.48775 -0.53121,-0.8595 2.2595,-3.01715 6.20154,-4.79476 3.94206,-1.77763 7.61353,-3.95394 8.15884,-4.83624 0.54529,-0.88232 -2.40094,0.12638 -6.54719,2.24171 -4.14623,2.11526 -9.1724,3.41867 -11.16926,2.8965 -1.99685,-0.52219 -5.17386,-0.12353 -7.06003,0.88592 -1.88617,1.00944 -3.85874,1.40602 -4.3835,0.88126 -0.52476,-0.52476 2.75237,-2.75484 7.28249,-4.95576 4.53013,-2.20089 8.23659,-4.66021 8.23659,-5.46514 0,-0.80492 -3.28615,0.21297 -7.30257,2.26199 -4.01639,2.04902 -7.70741,3.32064 -8.20222,2.82582 -0.49482,-0.49481 4.59607,-3.71974 11.3131,-7.16652 6.71701,-3.44675 11.59117,-6.3063 10.83142,-6.35451 -0.75973,-0.0483 -7.05826,2.77119 -13.99673,6.26534 -6.93846,3.49416 -13.01198,5.95642 -13.49668,5.47172 -0.4847,-0.4847 2.40488,-2.55775 6.42128,-4.60677 6.97173,-3.55671 10.24725,-6.94687 4.62889,-4.7909 -4.5836,1.75887 -2.94205,-0.188 3.5324,-4.18942 3.41336,-2.10958 7.14677,-3.25422 8.29647,-2.54366 1.25711,0.77694 1.61502,0.52278 0.89786,-0.63762 -0.65589,-1.06124 0.42334,-2.44238 2.39828,-3.0692 1.97495,-0.62682 3.5908,-1.97356 3.5908,-2.99273 0,-1.05381 -1.34539,-1.31264 -3.1193,-0.6001 -7.35377,2.95378 -8.20898,2.81176 -4.01054,-0.66598 5.67776,-4.70311 2.66931,-4.84125 -4.90176,-0.22509 -6.13122,3.73828 -7.94122,2.97656 -2.67369,-1.12517 2.90322,-2.2607 2.87235,-2.35683 -0.44561,-1.38784 -3.51611,1.02685 -3.51753,1.00252 -0.10499,-1.77809 3.9785,-3.2417 7.12799,-3.74804 5.34241,-0.8589 -0.8515,1.37775 -0.0883,1.3591 2.56848,-0.0628 4.57656,-2.44927 4.96221,-3.94759 0.66073,-2.56694 -2.04262,0.65563 -1.58116,-0.27287 1.33684,-2.68999 5.8118,-4.81414 2.98781,-4.80617 -4.81071,0.0142 -4.61839,2.85433 -7.05129,3.36973 -9.902,2.09769 -3.53301,-1.57647 -3.23483,-2.06097 4.57547,-7.4346 4.59513,-3.16153 8.35478,-6.5118 8.35478,-7.44506 0,-2.64897 -1.16031,-2.13786 -10.69063,4.70898 -4.90403,3.52319 -8.90762,5.72899 -8.89687,4.90177 0.0107,-0.82724 4.15784,-4.31144 9.21573,-7.74266 5.05787,-3.43124 9.57785,-7.44177 10.04437,-8.9123 0.69562,-2.19267 0.2402,-2.14107 -2.53148,0.28678 -6.85558,6.00516 -32.34051,23.70911 -47.04997,32.68481 -8.333,5.08478 -27.98461,17.10936 -43.67025,26.72125 -15.68564,9.61192 -31.22463,19.00425 -34.53111,20.8719 -3.30647,1.86763 -16.14018,10.04126 -28.51935,18.16361 -12.37916,8.12237 -26.31775,16.98026 -30.97462,19.68422 -4.65688,2.70395 -8.03962,5.60791 -7.51718,6.45324 0.52244,0.84532 -1.47183,2.78926 -4.43171,4.31988 -2.95986,1.53062 -8.19979,5.25735 -11.64426,8.28163 -5.89944,5.17978 -8.87245,5.08915 -4.03459,-0.12299 1.22544,-1.32025 1.42597,-1.99729 0.44561,-1.50452 -2.36748,1.19001 -30.22921,18.42583 -43.17958,26.71177 -24.62287,15.75364 -34.39195,21.04104 -38.87696,21.04104 l -4.7876,0 4.208,3.50562 c 2.3144,1.92808 3.4059,3.50727 2.42555,3.50928 -2.78568,0.005 -16.04213,-8.56502 -16.04213,-10.37179 0,-2.33844 -19.34544,-28.9696 -24.10521,-33.18352 -3.38827,-2.99972 -3.12187,-2.01062 1.68031,6.23861 3.13884,5.39193 6.5411,11.80879 7.5606,14.25966 1.01949,2.45089 3.37733,7.88657 5.23964,12.07928 4.04421,9.10488 4.1954,10.41844 0.88273,7.66917 -2.10774,-1.74926 -2.27643,-1.07163 -1.06753,4.28843 0.78966,3.5013 2.35069,7.46841 3.46893,8.8158 1.54078,1.85655 1.47555,2.65085 -0.26931,3.27982 -1.5844,0.57115 -0.63479,2.65659 3.04492,6.68694 3.53609,3.87306 4.29078,5.48085 2.22808,4.74666 -4.49952,-1.60154 -3.84848,0.74995 1.97198,7.12255 2.80022,3.06583 5.58241,6.85407 6.18268,8.4183 0.60024,1.56421 2.80655,2.84404 4.90292,2.84404 2.53082,0 3.49048,0.8367 2.85603,2.49006 -0.62679,1.63335 0.63282,2.79368 3.66114,3.37259 4.21683,0.8061 14.46831,-1.63624 46.82184,-11.15499 6.37229,-1.87479 21.21125,-5.84416 32.97549,-8.82083 11.76423,-2.97665 36.62953,-10.63716 55.25623,-17.02336 33.11112,-11.35216 42.40831,-13.82427 36.5404,-9.71597 -2.17737,1.52445 -2.01195,1.70451 0.89123,0.97003 1.96071,-0.49606 7.1744,-1.8116 11.58599,-2.92344 14.19078,-3.57649 43.17488,-14.47475 61.49483,-23.12257 9.80352,-4.6277 26.44723,-12.27176 36.98603,-16.9868 10.53879,-4.71506 19.16143,-9.28821 19.16143,-10.16256 0,-1.95949 17.92171,-10.30011 26.09124,-12.14262 12.29496,-2.77298 5.3852,2.33793 -18.51578,13.69545 -13.47986,6.40548 -31.32672,14.47557 -39.65972,17.93348 -8.333,3.45794 -20.65824,9.05495 -27.3894,12.43782 -17.00532,8.54633 -46.9506,19.16412 -67.08093,23.7851 -16.98121,3.89807 -22.78441,5.61638 -40.99655,12.13901 -5.39194,1.93109 -22.63723,6.7582 -38.32287,10.72689 -39.20667,9.91985 -44.94001,11.44784 -70.40713,18.76418 -23.95178,6.88099 -31.67727,7.63561 -40.1937,3.92607 z m 0.27403,-13.05217 c -1.81188,-1.81189 -3.3069,0.91598 -1.82027,3.32139 1.12302,1.81708 1.54285,1.81849 2.14663,0.007 0.41279,-1.23843 0.26594,-2.7363 -0.32636,-3.3286 z m -12.58959,-28.8835 c -0.6462,-1.04558 -2.02789,-1.90105 -3.07043,-1.90105 -1.18193,0 -1.04671,1.02274 0.3592,2.71677 2.44471,2.94569 4.62963,2.28832 2.71123,-0.81572 z m -4.85718,-20.6244 c -1.11859,-2.45503 -2.36955,-4.12794 -2.77991,-3.71757 -0.83248,0.83249 2.78149,8.18125 4.02339,8.18125 0.43467,0 -0.12495,-2.00865 -1.24348,-4.46368 z m 37.25956,-2.83344 c 3.70614,-2.05272 15.96266,-9.57692 27.23671,-16.72046 11.27406,-7.14354 33.33199,-21.01758 49.01763,-30.83122 35.55157,-22.24263 52.49557,-33.03912 65.05975,-41.45524 5.39194,-3.61179 13.41301,-8.59011 17.82459,-11.06293 4.41159,-2.47281 20.05266,-11.92639 34.75794,-21.00794 14.7053,-9.08156 33.5548,-20.56708 41.8878,-25.5234 16.69262,-9.92848 51.82227,-36.53801 55.87404,-42.32273 3.45384,-4.93106 1.83865,-17.01305 -3.19678,-23.91265 -2.14644,-2.94106 -8.04818,-12.16528 -13.11498,-20.49828 -5.06682,-8.333 -16.81219,-24.77618 -26.10085,-36.54041 C 394.92335,115.68159 383.48251,99.798931 378.78793,92.15102 360.48876,62.340013 334.3147,24.105159 323.15877,10.888409 316.42296,2.90831 316.18743,2.7984732 311.1858,5.3049827 c -7.00281,3.509353 -39.38855,23.3122483 -57.24925,35.0061493 -8.09358,5.299092 -22.53149,14.316123 -32.08426,20.037852 -9.55277,5.721728 -28.99923,17.66339 -43.21434,26.537031 -14.2151,8.873646 -34.66881,21.579725 -45.45269,28.235765 -33.327456,20.57038 -59.829801,38.26113 -78.683368,52.52242 -9.943876,7.52178 -24.117276,17.43898 -31.49646,22.03824 -13.6832071,8.52837 -19.0484446,14.27076 -19.0484446,20.38748 0,5.64654 37.4726536,57.72223 55.1440766,76.63361 3.066293,3.28145 7.631598,10.02465 10.145133,14.98487 2.513552,4.96023 7.977662,14.30702 12.142467,20.77064 4.164822,6.46361 11.755637,18.28858 16.8685,26.27772 5.112826,7.98914 10.947356,16.01021 12.965596,17.8246 2.01822,1.81437 7.32396,8.51257 11.79052,14.88486 15.14234,21.60313 18.55203,23.29713 31.95288,15.87485 z M 142.98878,383.64259 C 137.60233,381.89096 118.90573,358.66354 99.612594,329.75491 87.411164,311.47243 79.094229,299.69508 67.158028,283.797 49.729537,260.58371 19.999118,214.57077 19.999118,210.81053 c 0,-4.76034 9.897015,-12.79417 31.193032,-25.32065 8.823172,-5.18986 23.662144,-14.86636 32.975492,-21.50335 9.313349,-6.63697 22.147038,-15.24363 28.519338,-19.1259 6.37229,-3.88224 19.91339,-12.45249 30.09131,-19.04498 10.17793,-6.59248 24.61586,-15.27834 32.08426,-19.30191 7.46841,-4.02356 20.39684,-11.840119 28.72984,-17.37012 23.23819,-15.421496 64.71519,-41.161472 85.94261,-53.334635 18.91717,-10.848322 19.15945,-10.928725 25.25656,-8.381192 3.38589,1.414716 7.08905,4.315294 8.22921,6.44573 1.14019,2.130435 4.73317,6.81797 7.98445,10.416741 3.25128,3.598774 9.80246,12.693229 14.55818,20.209902 14.03866,22.188849 32.48054,49.114804 47.99547,70.075484 21.44864,28.97712 38.01025,53.92632 39.35581,59.2875 1.02782,4.0951 -0.0542,5.84079 -8.07045,13.02064 -5.09157,4.56032 -13.44187,10.54617 -18.55622,13.30188 -5.11436,2.75574 -17.31989,10.39475 -27.12342,16.97561 -9.80352,6.58086 -27.00154,17.47343 -38.21781,24.20569 -11.21626,6.73225 -24.45103,14.78113 -29.41057,17.88637 -4.95955,3.10522 -17.84052,10.64812 -28.6244,16.76198 -36.86329,20.89945 -47.22873,27.28692 -55.69624,34.32158 -4.65975,3.87123 -14.88914,11.32364 -22.73195,16.5609 -7.84282,5.23724 -20.67654,13.99991 -28.51935,19.47258 -17.39218,12.13615 -29.41086,18.43139 -32.97549,17.27221 z m 20.62215,-19.99023 c -2.31234,-2.46778 -4.75512,-7.10072 -5.42842,-10.29542 -1.86324,-8.84099 -4.45896,-5.07519 -3.2922,4.77625 0.71502,6.03719 0.18218,10.36552 -1.75374,14.2462 l -2.78082,5.57425 8.72973,-4.9072 8.72971,-4.90722 -4.20426,-4.48686 z m -13.49231,9.03155 c 0,-0.68809 -1.10153,-2.75749 -2.44782,-4.59866 -2.36418,-3.2332 -2.48992,-3.21494 -3.67997,0.53459 -0.6777,2.13521 -0.75365,4.65645 -0.1688,5.60276 1.13154,1.83084 6.29659,0.56869 6.29659,-1.53869 z m -12.7701,-8.25926 c -0.12015,-5.9833 0.83584,-9.17227 3.64627,-12.16384 5.46567,-5.81795 2.30516,-7.42887 -3.55669,-1.81285 -3.69522,3.54024 -6.22902,4.50675 -10.26279,3.91472 l -5.35617,-0.78611 3.7466,5.46813 c 3.85735,5.62978 10.51705,13.48923 11.43008,13.48923 0.2835,0 0.44222,-3.64918 0.3527,-8.10928 z m 5.64026,-1.69425 c 0,-1.47053 -0.8021,-2.67369 -1.78246,-2.67369 -0.98035,0 -1.78246,1.20316 -1.78246,2.67369 0,1.47053 0.80211,2.67369 1.78246,2.67369 0.98036,0 1.78246,-1.20316 1.78246,-2.67369 z m 8.9123,-0.10517 c 0,-1.52838 -0.8152,-2.27505 -1.81156,-1.65929 -0.99633,0.61577 -1.35005,1.86628 -0.78603,2.77889 1.52801,2.47231 2.59759,2.01132 2.59759,-1.11963 z m 23.04653,-4.11658 c 1.92785,-3.60227 0.91879,-5.58178 -2.84535,-5.58178 -1.34673,0 -2.3766,1.931 -2.3766,4.45615 0,5.25553 2.7002,5.83756 5.22195,1.12559 z m -9.52052,-5.1271 c -1.94716,-1.94716 -3.28237,1.14943 -1.88438,4.37025 1.32558,3.05401 1.42167,3.05123 2.16023,-0.0626 0.42511,-1.79235 0.30099,-3.73077 -0.27585,-4.30761 z m 19.87118,2.63433 c 1.6579,-1.2812 0.88483,-2.93578 -3.1193,-6.67622 -2.9279,-2.73511 -5.32347,-6.65636 -5.32347,-8.71391 0,-4.11423 -0.20051,-4.23617 -4.3482,-2.64456 -2.42872,0.93199 -2.1832,1.77059 1.63666,5.59045 3.053,3.05299 4.49399,6.45019 4.49399,10.59472 0,6.11263 0.84138,6.34627 6.66032,1.84948 z m -35.39692,0.64794 c 3.4548,-2.18824 0.94442,-5.37577 -3.34943,-4.25291 -3.65283,0.95524 -4.47539,2.57453 -2.37484,4.67507 1.55393,1.55393 2.74286,1.46624 5.72427,-0.42216 z m -22.9547,-8.19309 c 0,-1.47052 -1.30137,-2.67369 -2.89195,-2.67369 -2.36851,0 -2.49033,0.48392 -0.67297,2.67369 1.22041,1.47053 2.52179,2.67368 2.89193,2.67368 0.37015,0 0.67299,-1.20315 0.67299,-2.67368 z m 9.89131,-4.07126 c -1.71621,-1.71622 -6.32639,1.41116 -6.32639,4.29157 0,2.74305 0.31268,2.72292 3.57584,-0.2302 1.96671,-1.77986 3.20447,-3.60747 2.75055,-4.06137 z m 30.86521,0.41539 c 0.5634,-2.90737 0.26299,-3.03829 -2.22806,-0.97089 -3.40675,2.82733 -3.83092,6.13192 -0.65121,5.07321 1.22545,-0.40802 2.52111,-2.25408 2.87927,-4.10232 z m -51.02696,-1.75397 c -1.1348,-5.93634 3.97877,-11.52352 10.54669,-11.52352 5.77585,0 6.23832,-1.10324 2.2909,-5.4651 -2.61653,-2.89122 -3.03155,-2.82077 -7.04882,1.1965 -8.50308,8.50308 -20.91837,3.1749 -20.91837,-8.97739 0,-2.83603 -1.25125,-4.60656 -3.709886,-5.2495 -2.04044,-0.5336 -3.971739,-0.70831 -4.29178,-0.38828 -0.852371,0.85238 22.141666,34.9259 23.569246,34.9259 0.23418,0 0.0371,-2.03338 -0.43798,-4.51861 z m 58.39683,-10.64502 c 6.37228,-4.11135 14.05071,-8.7454 17.06317,-10.2979 7.08177,-3.64968 11.28922,-8.40519 7.43653,-8.40519 -3.4003,0 -6.07274,-3.21795 -7.54544,-9.08566 -0.88092,-3.50984 0.0418,-6.04647 3.86723,-10.6324 l 5.02417,-6.02284 -10.61184,5.96055 c -5.8365,3.27829 -14.6418,8.73266 -19.56734,12.12084 -9.54654,6.56686 -16.25452,6.98553 -22.42677,1.39972 -3.96169,-3.58528 -5.32397,-3.3375 -5.32397,0.96834 0,8.23684 -12.3087,5.55809 -21.24909,-4.62446 -3.44191,-3.92012 -5.87916,-9.4006 -7.23469,-16.2681 -5.22917,-26.49254 -11.1914,-39.76697 -17.861416,-39.76697 -1.827889,0 -3.803334,1.51204 -4.38987,3.36009 -1.144178,3.60494 2.203547,12.68204 4.67724,12.68204 0.82299,0 2.09793,-0.0369 2.8332,-0.0822 0.735256,-0.0453 1.111756,-2.25101 0.836666,-4.90175 -0.48016,-4.62663 -0.39097,-4.68105 2.22808,-1.35958 3.68161,4.66907 3.4321,7.62387 -0.83667,9.90846 -2.562226,1.37126 -4.628116,1.33888 -7.344942,-0.11514 -3.059288,-1.63728 -3.510428,-1.56427 -2.366071,0.38289 2.807297,4.77675 17.962753,25.96044 31.689073,44.29369 7.70701,10.2937 15.53444,21.68071 17.3943,25.30445 6.40578,12.48103 7.03406,12.39121 33.70845,-4.8189 z m 12.47721,11.59872 c 0,-2.37661 -1.18831,-3.56492 -3.56492,-3.56492 -4.04032,0 -4.56842,1.84842 -1.42596,4.99088 3.14245,3.14245 4.99088,2.61435 4.99088,-1.42596 z m 8.9123,-2.00072 c 0,-0.86031 -1.20316,-1.5642 -2.67369,-1.5642 -1.5368,0 -2.67369,1.60865 -2.67369,3.78316 0,3.16073 0.4399,3.4181 2.67369,1.56421 1.47053,-1.22043 2.67369,-2.92286 2.67369,-3.78317 z m 10.69475,-2.85114 c 0,-0.48232 -1.15135,-0.43511 -2.55852,0.1048 -1.4072,0.54001 -2.87867,0.0243 -3.26998,-1.14613 -0.39128,-1.17036 -1.12209,0.0161 -1.62401,2.63565 -0.88735,4.63179 -0.79687,4.68776 3.26995,2.02308 2.30041,-1.50723 4.18256,-3.13508 4.18256,-3.6174 z m -80.99047,0.0296 c 2.0436,-2.04361 2.35774,-3.26706 0.9586,-3.73344 -2.32073,-0.77349 -7.30862,2.78144 -7.30862,5.20903 0,2.51861 3.06903,1.80546 6.35002,-1.47552 z m 70.29572,-3.0936 c 0,-1.88135 -3.42073,-2.67175 -4.43818,-1.02551 -0.61577,0.99634 0.13083,1.81154 1.65929,1.81154 1.52839,0 2.77889,-0.35372 2.77889,-0.78603 z m -7.94778,-2.89748 c 2.09017,-3.38195 -0.95828,-4.21647 -4.06261,-1.11216 -2.77875,2.77876 -2.78363,3.01321 -0.0628,3.01321 1.62275,0 3.47914,-0.85548 4.12535,-1.90105 z m 18.64253,-1.66387 c 0,-2.39716 -1.18831,-3.56492 -3.62762,-3.56492 -3.0753,0 -3.33714,0.5428 -1.71975,3.56492 1.04933,1.9607 2.68175,3.56492 3.62761,3.56492 0.94587,0 1.71976,-1.60422 1.71976,-3.56492 z m 7.12983,-0.89123 c 1.81735,-2.18977 1.69555,-2.67369 -0.67297,-2.67369 -1.59057,0 -2.89195,1.20316 -2.89195,2.67369 0,1.47053 0.30284,2.67369 0.67299,2.67369 0.37013,0 1.6715,-1.20316 2.89193,-2.67369 z m 8.9123,-1.78246 c 1.80639,-2.17657 1.71673,-2.67369 -0.48227,-2.67369 -1.48569,0 -3.16293,1.20316 -3.72723,2.67369 -0.5643,1.47053 -0.34727,2.67369 0.48227,2.67369 0.82954,0 2.5068,-1.20316 3.72723,-2.67369 z m -26.73688,-1.72653 c 0,-1.65615 -1.03703,-2.21979 -2.82315,-1.53439 -2.27303,0.87225 -2.35985,1.37701 -0.44562,2.59045 3.16586,2.00684 3.26877,1.97359 3.26877,-1.05606 z m -76.59018,-5.99294 c -4.86913,-0.73119 -5.80896,0.13118 -4.33344,3.97638 1.07071,2.79019 1.40827,2.77653 4.70673,-0.1905 3.53863,-3.18303 3.53707,-3.19869 -0.37329,-3.78588 z m -8.96785,3.26332 c 0,-0.98035 -0.8021,-1.78246 -1.78246,-1.78246 -0.98035,0 -1.78246,0.80211 -1.78246,1.78246 0,0.98036 0.80211,1.78246 1.78246,1.78246 0.98036,0 1.78246,-0.8021 1.78246,-1.78246 z m 96.25278,-2.89193 c 0,-2.36854 -0.48392,-2.49032 -2.67368,-0.67298 -1.47054,1.22043 -2.67369,2.5218 -2.67369,2.89193 0,0.37014 1.20315,0.67298 2.67369,0.67298 1.47052,0 2.67368,-1.30137 2.67368,-2.89193 z m 7.12983,1.10947 c 0,-0.98035 -0.8021,-1.78245 -1.78246,-1.78245 -0.98034,0 -1.78246,0.8021 -1.78246,1.78245 0,0.98036 0.80212,1.78246 1.78246,1.78246 0.98036,0 1.78246,-0.8021 1.78246,-1.78246 z m 28.14442,-8.10868 c 0.28399,-0.19297 -1.19903,-0.79944 -3.2956,-1.34769 -2.09656,-0.54826 -3.3242,-0.50912 -2.72808,0.087 0.59612,0.59611 -0.72823,3.09051 -2.94299,5.54312 l -4.02684,4.45926 6.2386,-4.19542 c 3.43123,-2.30748 6.47095,-4.35332 6.75491,-4.54629 z m -12.51077,3.09552 c 1.0694,-3.20818 -2.61487,-2.53403 -3.85817,0.70596 -0.66616,1.73596 -0.2678,2.55084 1.03474,2.11667 1.16483,-0.38827 2.43538,-1.65847 2.82343,-2.82263 z m -7.61258,-0.33421 c 0.60589,-0.98036 0.25218,-1.78246 -0.78603,-1.78246 -1.03821,0 -1.88766,0.8021 -1.88766,1.78246 0,0.98035 0.35372,1.78246 0.78603,1.78246 0.43232,0 1.28177,-0.80211 1.88766,-1.78246 z m -112.53763,-2.66346 c -0.56213,-1.4649 -1.74013,-2.21966 -2.61775,-1.67726 -2.5167,1.55541 -1.86088,4.34072 1.02205,4.34072 1.59011,0 2.21653,-1.0456 1.5957,-2.66346 z m 10.04624,1.96293 c 0,-0.38529 -1.20316,-1.16221 -2.67369,-1.72653 -1.47052,-0.56428 -2.67368,-0.24904 -2.67368,0.70053 0,0.94959 1.20316,1.72653 2.67368,1.72653 1.47053,0 2.67369,-0.31525 2.67369,-0.70053 z m 93.88337,-4.04552 c -0.52708,-0.52707 -1.89944,-0.37667 -3.04967,0.33421 -1.55063,0.95836 -1.46609,1.681 0.32702,2.79505 2.37681,1.47672 4.68067,-1.17121 2.72265,-3.12926 z m -97.46621,-5.07655 c -2.98086,-3.173 -4.59024,-3.85068 -5.53073,-2.32894 -0.80287,1.29905 0.20635,2.9966 2.55671,4.30045 6.34828,3.52169 7.44908,2.79197 2.97402,-1.97151 z m 108.33984,1.24333 c 0.43418,-1.30253 -0.38071,-1.7009 -2.11667,-1.03473 -1.55245,0.59573 -2.82263,1.86626 -2.82263,2.82343 0,2.34284 4.05114,0.87579 4.9393,-1.7887 z m 7.53792,2.44589 c 0,-1.88135 -3.42074,-2.67175 -4.43819,-1.0255 -0.61577,0.99634 0.13084,1.81153 1.6593,1.81153 1.52838,0 2.77889,-0.35371 2.77889,-0.78603 z M 90.326002,306.49428 c -6.819777,-7.53577 -2.695309,-22.41737 5.764832,-20.80012 4.992806,0.95444 5.075616,0.38657 0.74624,-5.11734 l -3.372679,-4.28768 -1.133252,4.51518 c -1.377501,5.48845 -8.652964,8.77145 -13.58674,6.13097 -4.304389,-2.30363 -7.053974,-7.37774 -7.053974,-13.01742 0,-3.17191 -1.214978,-4.68504 -4.404705,-5.4856 -5.708272,-1.43269 -8.563878,-6.95502 -7.7953,-15.07494 l 0.614021,-6.48676 -7.464956,-0.2155 -7.464955,-0.2155 9.7557,13.58394 c 5.365648,7.47116 13.746129,19.19869 18.623292,26.06116 11.908948,16.75664 17.674293,24.06319 18.987413,24.06319 0.600332,0 -0.396383,-1.6441 -2.214937,-3.65358 z m 17.013598,-3.15965 c 0,-1.84508 -1.45869,-3.23277 -3.56491,-3.39144 -2.82575,-0.21283 -3.56492,0.83027 -3.56492,5.03078 0,4.74698 0.37155,5.10046 3.56492,3.39143 1.9607,-1.04933 3.56491,-3.31318 3.56491,-5.03077 z m 32.08426,3.54539 c 0,-4.52778 -1.90037,-5.98312 -4.73777,-3.62827 -1.869,1.55114 -2.39206,1.1851 -2.39206,-1.67395 0,-2.42623 1.33914,-3.85113 3.97427,-4.2288 3.81215,-0.54634 3.71598,-0.86044 -2.35737,-7.69941 -3.4824,-3.92142 -9.28137,-11.05519 -12.88657,-15.85284 -3.60522,-4.79765 -6.5548,-8.40712 -6.55462,-8.02107 1.6e-4,0.38607 1.19188,6.92903 2.64825,14.5399 2.96794,15.51013 6.26923,21.66997 14.20852,26.51151 6.79063,4.14106 8.09735,4.1496 8.09735,0.0529 z m 68.79402,-0.71198 c 2.76428,-3.23989 2.81563,-3.53071 0.27626,-1.5642 -2.49977,1.93584 -3.65033,1.9749 -5.79298,0.19664 -5.46172,-4.53282 -0.90778,-10.69475 7.90388,-10.69475 3.03272,0 3.68209,1.12088 3.68209,6.35573 l 0,6.35573 14.7053,-10.2062 c 25.10063,-17.42109 30.59546,-21.13319 35.37011,-23.89477 2.54248,-1.47053 14.34195,-8.52056 26.22104,-15.66673 21.45371,-12.90604 21.57496,-13.01646 18.10367,-16.48774 -4.50094,-4.50094 -4.43697,-8.21238 0.18415,-10.68552 2.73071,-1.46144 4.33858,-1.42135 6.23861,0.1556 3.71646,3.08442 3.13605,5.81931 -1.00517,4.73636 -2.3788,-0.62206 -3.56492,-0.0547 -3.56492,1.70526 0,4.03722 5.40632,2.0942 9.52065,-3.42172 4.69348,-6.29235 2.25579,-9.16068 -6.40455,-7.53599 -10.83283,2.03224 -16.48254,6.87447 -22.96854,19.68568 -6.82726,13.48533 -11.9478,18.20211 -21.43088,19.741 -7.93294,1.28735 -14.91376,-4.27835 -12.98566,-10.35325 1.15486,-3.63865 1.10103,-3.64458 -4.27068,-0.47145 l -5.44027,3.21366 4.36185,4.04243 c 5.10247,4.72881 5.05604,4.44887 1.96427,11.84535 -3.82921,9.16063 -6.95528,10.72652 -20.72038,10.37914 -19.18667,-0.48428 -35.70318,8.58499 -35.70318,19.60468 0,7.54553 6.4576,9.17436 11.75533,2.96506 z m 39.93598,2.19736 c 0,-0.98035 -0.35372,-1.78246 -0.78603,-1.78246 -0.43232,0 -1.28177,0.80211 -1.88766,1.78246 -0.6059,0.98035 -0.25218,1.78246 0.78603,1.78246 1.03821,0 1.88766,-0.80211 1.88766,-1.78246 z M 96.644854,303.90925 c 0,-2.77272 -1.01007,-4.45615 -2.673688,-4.45615 -3.162439,0 -3.292826,0.85998 -0.828522,5.46456 2.4803,4.63449 3.50221,4.34024 3.50221,-1.00841 z m 79.268926,-5.13 c 7.87058,-5.27239 25.4275,-16.67297 39.01536,-25.33459 23.18744,-14.7809 28.05676,-19.66733 15.09627,-15.14928 -19.91042,6.9408 -49.61728,-5.52969 -58.92547,-24.73604 -3.16888,-6.53861 -3.92773,-11.30569 -3.98151,-25.01165 -0.0626,-15.96004 0.27456,-17.53516 5.86653,-27.40355 l 5.93301,-10.4702 -5.93301,4.12051 c -3.26315,2.26629 -8.26971,6.03364 -11.12573,8.37191 -2.85602,2.33826 -13.28341,8.30916 -23.17197,13.26868 -20.37916,10.22095 -41.820476,23.71994 -43.140716,27.16044 -1.406882,3.66627 24.647766,43.9848 41.115386,63.62443 2.98959,3.56546 8.08774,9.78178 11.32925,13.81406 3.6295,4.51494 7.3763,7.33143 9.75303,7.33143 2.12265,0 10.29895,-4.31377 18.16957,-9.58615 z m 66.8927,7.80369 c 0,-0.98035 -1.20316,-1.78246 -2.67369,-1.78246 -1.47053,0 -2.67369,0.80211 -2.67369,1.78246 0,0.98035 1.20316,1.78246 2.67369,1.78246 1.47053,0 2.67369,-0.80211 2.67369,-1.78246 z m -10.69475,-4.56135 c 0,-1.52839 -0.81519,-2.27505 -1.81153,-1.65929 -0.99635,0.61577 -1.35007,1.86627 -0.78603,2.77889 1.52797,2.47235 2.59756,2.01135 2.59756,-1.1196 z m 21.38951,-0.56777 c 0,-0.86031 -1.1095,-2.485 -2.46554,-3.61041 -1.89511,-1.57281 -2.6967,-1.44376 -3.46478,0.55781 -0.54958,1.43221 -0.0418,2.99358 1.12869,3.46969 3.39824,1.38245 4.80163,1.26053 4.80163,-0.41709 z m -42.77903,-2.00072 c 0,-0.98034 -1.20316,-1.78245 -2.67368,-1.78245 -1.47053,0 -2.67369,0.80211 -2.67369,1.78245 0,0.98036 1.20316,1.78246 2.67369,1.78246 1.47052,0 2.67368,-0.8021 2.67368,-1.78246 z m 33.5518,-2.37578 c 0.32676,-1.6848 -0.55548,-2.97159 -2.03736,-2.97159 -2.81961,0 -5.23437,4.29641 -3.4293,6.10148 1.80317,1.80317 4.84806,0.0599 5.46666,-3.12989 z m 33.18506,-5.27634 c -3.24146,-1.81401 -5.4429,-0.52765 -6.58747,3.8492 -0.84217,3.22051 -0.64347,3.24413 4.14975,0.49318 3.97506,-2.28136 4.48796,-3.19501 2.43772,-4.34238 z m -19.31601,1.00504 c -1.81191,-1.81189 -3.30691,0.91599 -1.82028,3.32139 1.123,1.81707 1.54285,1.81848 2.14661,0.007 0.41282,-1.23844 0.26596,-2.7363 -0.32633,-3.3286 z m 8.72661,3.08217 c 0.6059,-0.98035 -0.14883,-1.78246 -1.67725,-1.78246 -1.52839,0 -2.7789,0.80211 -2.7789,1.78246 0,0.98035 0.75478,1.78246 1.67726,1.78246 0.9225,0 2.173,-0.80211 2.77889,-1.78246 z m -163.09498,-0.67298 c 0,-0.37013 -1.22154,-1.68675 -2.71452,-2.9258 -2.269666,-1.88367 -2.530496,-1.77341 -1.591746,0.67298 0.958786,2.49853 4.306266,4.24977 4.306266,2.25282 z m -8.912294,-2.89193 c 0,-0.98036 -0.353729,-1.78246 -0.786047,-1.78246 -0.432317,0 -1.281766,0.8021 -1.887642,1.78246 -0.605893,0.98035 -0.252182,1.78245 0.786029,1.78245 1.038211,0 1.88766,-0.8021 1.88766,-1.78245 z m 157.639124,-6.86604 c -0.30371,-0.34509 -2.28242,0.58447 -4.3971,2.06565 -3.55651,2.49107 -3.59858,2.74325 -0.5609,3.36172 2.80945,0.57201 6.593,-3.56971 4.958,-5.42737 z m 7.31162,1.40007 c 1.9184,-3.10405 -0.26652,-3.76142 -2.71123,-0.81572 -1.40592,1.69403 -1.54116,2.71677 -0.35921,2.71677 1.04253,0 2.42422,-0.85548 3.07044,-1.90105 z m 7.94776,0.11853 c 0,-0.98035 -0.8021,-1.78245 -1.78246,-1.78245 -0.98035,0 -1.78246,0.8021 -1.78246,1.78245 0,0.98036 0.80211,1.78246 1.78246,1.78246 0.98036,0 1.78246,-0.8021 1.78246,-1.78246 z m 18.71583,-1.78245 c 0.60589,-0.98036 -0.14884,-1.78246 -1.67726,-1.78246 -1.52839,0 -2.77889,0.8021 -2.77889,1.78246 0,0.98035 0.75476,1.78245 1.67726,1.78245 0.92249,0 2.173,-0.8021 2.77889,-1.78245 z m 8.83516,-0.61442 c 3.14752,-2.30153 3.13173,-2.43511 -0.39681,-3.35785 -2.59763,-0.6793 -3.9321,0.0232 -4.55283,2.39687 -1.03691,3.96515 0.44713,4.25329 4.94964,0.96098 z m -63.54352,-4.73296 c 13.30558,0 14.13771,-0.23467 16.09937,-4.54002 2.95102,-6.47678 2.59128,-11.50212 -0.82335,-11.50212 -2.36854,0 -2.49034,0.48392 -0.67299,2.67369 1.85388,2.23378 1.59651,2.67369 -1.56422,2.67369 -2.56303,0 -3.78316,-1.12144 -3.78316,-3.47718 0,-2.97962 -2.35935,-2.04976 -16.48774,6.49809 -19.20148,11.61714 -22.62953,14.28297 -13.4257,10.44051 4.08399,-1.70502 12.01105,-2.76666 20.65779,-2.76666 z m 46.68729,3.56492 c 0,-0.98036 -0.84945,-1.78246 -1.88766,-1.78246 -1.03821,0 -1.39192,0.8021 -0.78603,1.78246 0.60589,0.98035 1.45534,1.78246 1.88766,1.78246 0.43232,0 0.78603,-0.80211 0.78603,-1.78246 z M 88.623789,281.62847 c 0.624788,-1.01095 -0.872727,-1.78246 -3.459735,-1.78246 -2.508739,0 -4.56133,0.8021 -4.56133,1.78246 0,0.98035 1.556871,1.78246 3.459718,1.78246 1.902845,0 3.955454,-0.80211 4.561347,-1.78246 z m 182.128401,-6.51516 c -0.47391,-0.47392 -2.52621,0.17789 -4.56062,1.44833 l -3.69895,2.31003 3.97099,2.14489 c 3.46924,1.87389 4.04549,1.69088 4.56062,-1.44833 0.32431,-1.97629 0.20189,-3.981 -0.27204,-4.45492 z m 9.48593,1.46486 c 0,-2.3209 -2.11893,-3.86444 -3.84261,-2.79916 -1.84346,1.13933 -0.25391,4.28454 2.16535,4.28454 0.9225,0 1.67726,-0.66843 1.67726,-1.48538 z M 78.820265,273.5022 c 0,-1.52839 -0.815189,-2.27506 -1.811549,-1.65929 -0.996341,0.61577 -1.350052,1.86627 -0.786029,2.77889 1.527996,2.47234 2.597578,2.01134 2.597578,-1.1196 z m 8.021066,-0.78603 c 0,-1.30713 -1.002633,-2.71082 -2.228074,-3.1193 -1.325419,-0.4418 -2.228074,0.8219 -2.228074,3.1193 0,2.29739 0.902655,3.5611 2.228074,3.1193 1.225441,-0.40848 2.228074,-1.81217 2.228074,-3.1193 z m 209.438919,0 c 0,-3.47435 -1.8906,-4.64508 -4.03626,-2.49941 -1.42795,1.42794 0.44095,6.06433 2.44451,6.06433 0.87545,0 1.59175,-1.60421 1.59175,-3.56492 z m 8.81866,0.17504 c 1.54322,-2.88354 1.28631,-3.2519 -1.71975,-2.4658 -1.9437,0.50828 -3.53399,2.03376 -3.53399,3.38995 0,3.57565 3.14124,3.02309 5.25374,-0.92415 z m 9.79527,-0.35104 c 3.48727,-2.05753 6.33866,-3.86227 6.33643,-4.01054 -0.002,-0.1483 -2.33397,-0.35117 -5.18164,-0.45096 -3.80686,-0.13332 -5.68323,0.92838 -7.08756,4.01054 -2.33325,5.12093 -2.02229,5.14457 5.93277,0.45096 z m -25.33371,-8.29068 c 2.58363,-3.18231 0.54758,-2.75806 -6.06629,1.26409 l -5.74241,3.49217 4.36248,1.63567 c 3.44515,1.29174 4.49652,1.02591 4.9999,-1.2641 0.35058,-1.59485 1.45142,-3.90239 2.44632,-5.12783 z m 15.16525,0.10606 c -1.65728,-1.65726 -3.61065,-2.41575 -4.34087,-1.68553 -0.73022,0.7302 -0.14778,2.07387 1.2944,2.9859 4.33952,2.7444 6.26805,1.92123 3.04647,-1.30037 z m 52.33192,-19.83246 c -4.78086,-0.73636 -10.86853,-8.56472 -10.86853,-13.97618 0,-4.11543 -0.14599,-4.16116 -4.39607,-1.37645 l -4.39606,2.88042 5.28729,4.44897 c 5.93992,4.9981 6.57285,8.63327 2.51254,14.43019 -1.95385,2.7895 -4.59058,3.96154 -8.9123,3.96154 -3.54378,0 -6.13754,0.89305 -6.13754,2.1132 0,1.16224 -1.80474,4.03648 -4.01054,6.38718 -2.49091,2.65455 3.3023,-0.004 15.28918,-7.01495 13.6818,-8.00288 18.23209,-11.45341 15.63203,-11.85389 z M 68.075762,259.2878 c -2.771314,-3.33924 -5.297628,-3.3529 -5.297628,-0.0288 0,3.13473 5.946159,6.93006 6.852735,4.37396 0.337759,-0.95235 -0.362036,-2.90774 -1.555107,-4.34531 z m 16.740392,3.63507 c -0.562134,-1.46489 -1.740126,-2.21965 -2.617754,-1.67725 -2.51669,1.5554 -1.86087,4.34071 1.022061,4.34071 1.590096,0 2.216524,-1.04558 1.595693,-2.66346 z m -6.310814,-3.27724 c 0.341109,-1.75886 -0.568177,-2.97159 -2.228073,-2.97159 -1.653481,0 -2.804378,1.524 -2.804378,3.71345 0,4.34394 4.165196,3.72992 5.032451,-0.74186 z m 237.38196,1.48455 c 0,-1.47053 -1.30138,-2.67369 -2.89194,-2.67369 -2.36852,0 -2.49032,0.48392 -0.67298,2.67369 1.22043,1.47053 2.5218,2.67369 2.89193,2.67369 0.37015,0 0.67299,-1.20316 0.67299,-2.67369 z m 8.02106,0.89123 c 0.60589,-0.98035 -0.14883,-1.78246 -1.67725,-1.78246 -1.52839,0 -2.7789,0.80211 -2.7789,1.78246 0,0.98036 0.75477,1.78246 1.67726,1.78246 0.9225,0 2.173,-0.8021 2.77889,-1.78246 z m -46.95032,-3.71735 c 1.98847,-1.0642 5.25357,-5.67631 7.25576,-10.24914 2.00218,-4.57284 5.18979,-10.52003 7.08355,-13.21601 4.48697,-6.38769 3.06918,-6.1842 -9.04361,1.29804 -16.39853,10.12961 -15.45051,9.21436 -12.82312,12.38017 1.8654,2.24768 1.88795,3.34425 0.11283,5.48323 -2.6995,3.25271 -6.51048,3.47235 -7.73181,0.44562 -0.49446,-1.22545 -0.96237,-0.42334 -1.03975,1.78246 -0.1205,3.43554 0.77048,4.01052 6.21505,4.01052 3.49569,0 7.98273,-0.87071 9.97119,-1.93489 z m 30.77246,-6.6742 c -0.24541,-0.32343 -2.65506,0.85927 -5.35481,2.62822 l -4.90863,3.21625 4.30835,1.04189 c 3.32648,0.80445 4.54686,0.20548 5.35482,-2.62821 0.57556,-2.01857 0.84567,-3.93474 0.60027,-4.25815 z M 90.660498,245.9513 c 0.840519,-0.81409 3.733913,-1.74241 6.429786,-2.06293 l 4.901586,-0.58277 -5.339566,-8.02107 c -2.93676,-4.41159 -5.342991,-9.22422 -5.347144,-10.69475 -0.0071,-2.68561 10.88522,-12.47722 13.88048,-12.47722 0.88078,0 2.92931,-1.46728 4.55227,-3.26064 1.62299,-1.79335 6.99541,-5.15503 11.93876,-7.47037 l 8.98789,-4.2097 -5.42388,-4.24482 c -6.09011,-4.76623 -6.74756,-8.43325 -2.57896,-14.38475 3.93862,-5.62316 13.51375,-4.83042 14.931,1.23614 0.86293,3.69377 2.11692,2.46477 10.29248,-10.08725 13.05478,-20.04321 25.58532,-26.97611 34.37674,-19.01998 1.92821,1.74503 3.50585,5.09906 3.50585,7.45342 0,4.26992 0.0142,4.27273 5.34738,1.12188 5.97649,-3.53042 6.60825,-5.08981 2.67369,-6.59965 -1.77625,-0.68161 -2.67369,-3.48396 -2.67369,-8.34888 0,-11.37201 6.49034,-16.76674 23.25893,-19.33267 7.3048,-1.11778 17.5634,-2.89508 22.79689,-3.94954 l 9.51543,-1.91721 -3.72244,-3.96233 c -5.02883,-5.35296 -4.68343,-10.73897 0.97411,-15.189199 6.41065,-5.04261 12.37499,-4.71818 16.03809,0.872409 2.76482,4.21965 2.77441,5.02338 0.12619,10.57681 l -2.86603,6.01013 17.01396,-8.22553 c 12.85061,-6.21274 19.281,-8.29323 26.27853,-8.50211 7.44185,-0.22216 10.19879,-1.210759 14.01298,-5.024959 5.08215,-5.082156 11.60776,-6.142532 15.51019,-2.52034 2.92698,2.7168 2.00518,0.95155 -6.28281,-12.03159 -8.65641,-13.560264 -14.22212,-18.914464 -18.04546,-17.359648 -25.21589,10.254435 -100.7812,55.006937 -136.78542,81.009237 -5.825,4.20681 -14.26914,9.68688 -18.76478,12.17789 -4.49564,2.49102 -17.37606,10.44807 -28.6232,17.68235 -59.612644,38.3435 -66.011546,43.32393 -59.99163,46.69285 1.369571,0.76643 7.618462,9.3639 13.88639,19.10547 11.041104,17.15991 11.431961,17.54531 12.541755,12.36669 0.630028,-2.93988 1.833189,-6.01128 2.673689,-6.82537 z m 139.207832,7.74418 11.85768,-2.97855 -8.76886,-7.71621 c -4.82289,-4.24391 -9.22223,-7.71619 -9.77633,-7.71619 -0.55411,0 -3.94458,4.36109 -7.5344,9.69134 -6.34514,9.42136 -6.41774,9.71251 -2.60627,10.452 2.15638,0.41837 4.15688,0.86993 4.44557,1.00343 0.2887,0.13351 5.86088,-1.09762 12.38261,-2.73582 z m 96.71372,0.52312 c 0,-1.35048 -1.20316,-3.45396 -2.67369,-4.6744 -2.26101,-1.87648 -2.67369,-1.49747 -2.67369,2.45544 0,2.96671 0.97677,4.6744 2.67369,4.6744 1.47053,0 2.67369,-1.10495 2.67369,-2.45544 z m -9.99301,-2.14965 c 0.66615,-1.73595 0.26779,-2.55084 -1.03474,-2.11668 -2.66449,0.88818 -4.13155,4.93931 -1.78869,4.93931 0.95715,0 2.22769,-1.27018 2.82343,-2.82263 z m -248.872015,-1.0765 c -1.101703,-3.30507 -4.938891,-3.85325 -4.938891,-0.70555 0,1.55222 1.270002,2.82222 2.822221,2.82222 1.552218,0 2.504729,-0.95251 2.11667,-2.11667 z m 7.538322,0.33421 c 0,-0.98035 -0.849449,-1.78246 -1.88766,-1.78246 -1.038211,0 -1.391922,0.80211 -0.786028,1.78246 0.605875,0.98035 1.455324,1.78246 1.887642,1.78246 0.432317,0 0.786046,-0.80211 0.786046,-1.78246 z m 124.522733,-9.27185 c -1.89228,-6.07988 -3.79043,-11.40424 -4.21814,-11.83195 -1.10856,-1.10857 -16.92199,3.49994 -16.92199,4.93157 0,1.67011 12.63352,13.52255 16.93337,15.88643 7.10495,3.90603 7.77425,2.47633 4.20676,-8.98605 z m 141.87874,7.61256 c 0.56405,-0.91262 0.344,-2.08049 -0.48894,-2.59527 -0.83296,-0.5148 -1.51446,0.23187 -1.51446,1.65929 0,3.00552 0.56208,3.26811 2.0034,0.93598 z M 211.4675,225.4279 c 1.35243,-5.38849 -2.06995,-5.8973 -7.90199,-1.17478 l -3.98675,3.22827 3.19153,10.5858 3.19151,10.58579 2.20031,-9.41102 c 1.21017,-5.17606 2.69759,-11.39239 3.30539,-13.81406 z m 51.40795,9.91081 c 1.96051,-4.44138 4.14651,-11.03596 4.85774,-14.65462 l 1.29315,-6.5794 -10.88185,5.4538 c -5.98502,2.99959 -11.06833,5.61205 -11.29623,5.80547 -0.22792,0.19341 0.45019,5.25995 1.5069,11.25902 1.90597,10.82031 1.95734,10.89093 6.4385,8.84918 2.66766,-1.21546 5.97669,-5.36452 8.08179,-10.13345 z m -193.078117,3.95635 c -2.18148,-3.67632 -6.353896,-9.76513 -9.272049,-13.53068 -4.853565,-6.26297 -5.100043,-7.2308 -2.892182,-11.35622 1.327451,-2.48037 3.5123,-4.93139 4.855222,-5.44672 1.577084,-0.60518 0.569122,-1.72429 -2.846569,-3.16049 -7.388899,-3.10679 -8.669132,-10.56428 -2.818032,-16.41537 3.197072,-3.19708 5.509617,-4.06063 8.717793,-3.25544 3.787885,0.95071 4.366454,0.48704 4.366454,-3.49938 0,-3.20039 -0.676354,-4.18981 -2.228073,-3.25949 -1.225442,0.73469 -7.441767,4.64279 -13.814058,8.68466 -6.37229,4.04186 -13.190196,8.01217 -15.150901,8.82291 -3.203168,1.32447 -3.022284,1.59814 1.782459,2.697 7.974597,1.82377 12.991131,4.97501 14.254003,8.95397 1.51395,4.77004 0.04207,6.71227 -7.463743,9.84836 -7.655573,3.19871 -15.118515,3.40899 -18.019752,0.50774 -1.540704,-1.54071 -2.13895,-1.57011 -2.13895,-0.10516 0,1.11856 0.847594,2.55759 1.883542,3.19785 1.035947,0.64025 4.229133,4.89864 7.095969,9.46311 l 5.212409,8.29901 0.03387,-5.793 c 0.01979,-3.37968 1.518977,-7.2781 3.598785,-9.35791 3.820612,-3.82061 10.694754,-4.84475 10.694754,-1.59337 0,1.08434 2.005267,3.54888 4.456148,5.47674 2.780368,2.18705 4.456147,5.30854 4.456147,8.30054 0,4.17059 2.416765,6.69249 8.612058,8.98675 0.325049,0.12032 -1.193838,-2.78905 -3.3753,-6.46537 z m 256.784717,5.04755 c 0,-0.90017 0.52516,-3.00526 1.16705,-4.67797 1.07762,-2.80821 0.79628,-2.79834 -3.67128,0.12887 -3.62662,2.37626 -4.25369,3.54097 -2.50389,4.65067 3.083,1.95521 5.00812,1.91615 5.00812,-0.1016 z m -265.586375,-3.7107 c 1.674674,-3.12918 1.355542,-3.56492 -2.610982,-3.56492 -3.33056,0 -4.518854,0.93745 -4.518854,3.56492 0,1.9607 1.174926,3.56492 2.610964,3.56492 1.436038,0 3.469521,-1.60422 4.518872,-3.56492 z m -10.694753,-0.89123 c 0,-1.47053 -1.203161,-2.67369 -2.673689,-2.67369 -4.638778,0 -3.135524,3.51289 2.228074,5.20665 0.245087,0.0773 0.445615,-1.06243 0.445615,-2.53296 z m 184.766468,-7.12631 c -4.21068,-10.72674 -5.83143,-11.87294 -8.19633,-5.79652 -1.30429,3.35127 -0.4891,4.9518 4.95919,9.73659 3.58605,3.14934 6.64698,5.75619 6.80206,5.79299 0.15508,0.0369 -1.44911,-4.34306 -3.56492,-9.73306 z m 52.2654,-4.12281 c 7.3333,-4.34023 17.76068,-10.88829 23.17196,-14.55123 5.41128,-3.66295 12.24501,-7.92361 15.18607,-9.46815 2.94106,-1.54455 10.51065,-7.5239 16.82132,-13.28745 l 11.47395,-10.47919 -10.13536,-19.14966 c -5.57445,-10.53234 -13.5451,-24.01714 -17.71255,-29.96625 -4.16746,-5.94909 -9.69702,-14.04782 -12.28792,-17.99718 -2.59088,-3.94935 -6.07652,-7.94501 -7.74584,-8.87921 -6.91475,-3.86966 -35.99834,8.70077 -69.09724,29.86503 -18.34472,11.73007 -20.87113,15.04031 -11.54053,15.12094 6.34047,0.0547 26.03112,10.50104 33.07921,17.54912 8.48926,8.48927 12.67325,20.06645 14.06777,38.92579 0.92751,12.54361 0.29798,15.82911 -5.72143,29.85988 l -2.99798,6.9881 5.05265,-3.3196 c 2.77896,-1.82579 11.05261,-6.87071 18.38592,-11.21094 z m 48.16156,11.14392 c 0,-1.52839 -0.80211,-2.28316 -1.78246,-1.67726 -0.98035,0.60589 -1.78246,1.8564 -1.78246,2.77889 0,0.92249 0.80211,1.67726 1.78246,1.67726 0.98035,0 1.78246,-1.2505 1.78246,-2.77889 z m 7.12984,1.10163 c 0,-0.92249 -0.80212,-2.173 -1.78246,-2.77889 -0.98036,-0.6059 -1.78246,0.14884 -1.78246,1.67726 0,1.52839 0.8021,2.77889 1.78246,2.77889 0.98034,0 1.78246,-0.75477 1.78246,-1.67726 z m 21.07457,-6.04591 c 0.34113,-1.75885 -0.56817,-2.97159 -2.22807,-2.97159 -1.65346,0 -2.80438,1.524 -2.80438,3.71345 0,4.34394 4.1652,3.72992 5.03245,-0.74186 z m 12.83036,-0.53477 c 7.87377,-5.21061 8.55923,-6.04896 3.97231,-4.85827 -4.8824,1.26736 -9.71675,-3.4803 -10.92658,-10.73066 -1.047,-6.27459 -1.29219,-6.48215 -4.66993,-3.95313 -3.53516,2.64688 -3.53009,2.69399 0.60802,5.64586 3.49891,2.49593 4.07265,4.23761 3.55207,10.78298 -0.34148,4.29342 -0.39736,7.80624 -0.12425,7.80624 0.27319,0 3.68792,-2.11186 7.5883,-4.69302 z m -21.42773,0.42758 c 0,-1.36565 -1.20316,-2.94468 -2.67369,-3.50899 -2.98905,-1.14699 -3.13652,-0.85308 -1.59174,3.1725 1.3363,3.48237 4.26543,3.71343 4.26543,0.33649 z m 11.23391,-25.91963 c 19.41837,-12.96298 23.9097,-18.24007 21.63202,-25.41637 -1.15409,-3.63623 -4.04738,-8.4866 -16.49338,-27.64999 -4.22984,-6.5128 -8.95236,-14.30822 -10.49444,-17.32317 -4.61837,-9.02936 -25.75972,-40.559219 -26.61933,-39.699639 -0.43861,0.43862 0.3652,3.905479 1.78624,7.704169 1.42103,3.79871 4.1866,13.72461 6.14574,22.05761 4.31239,18.34245 10.08433,34.09035 14.48813,39.52883 2.79179,3.44772 3.67316,3.68282 6.13788,1.63727 3.53739,-2.93576 3.7944,-11.91368 0.37857,-13.22447 -3.79628,-1.45675 -4.96316,0.83264 -1.6567,3.25037 3.18354,2.32788 1.86756,6.23964 -2.09912,6.23964 -6.20807,0 -6.84932,-11.47212 -0.74947,-13.40815 8.02864,-2.54819 14.21911,6.48297 10.73153,15.65601 -1.82478,4.79952 -8.89205,8.08903 -12.5378,5.83583 -2.13631,-1.32033 -2.32652,-0.61672 -0.86376,3.19515 0.77751,2.02616 2.26067,2.30228 6.23861,1.16144 6.69283,-1.91948 6.66067,-0.80034 -0.0772,2.68388 -2.91262,1.50619 -6.72263,4.17655 -8.46669,5.93417 -4.87623,4.91418 -25.80609,20.92455 -30.74402,23.51776 -2.42059,1.27121 -7.4152,4.4947 -11.09914,7.16335 l -6.69806,4.85205 7.96543,-0.89783 c 9.69377,-1.09263 13.95095,1.73259 12.94444,8.59037 l -0.70074,4.77444 10.7981,-6.65439 c 5.93893,-3.65992 19.46281,-12.43867 30.05306,-19.50833 z M 50.888883,230.9759 c 0.533169,-1.3894 -0.104095,-2.93811 -1.41611,-3.44157 -1.357021,-0.52074 -2.773525,0.56839 -3.2855,2.52617 -1.046553,4.00206 3.199889,4.82884 4.70161,0.9154 z m 8.324334,1.74014 c 0,-0.43232 -0.802107,-1.28177 -1.78246,-1.88766 -0.980353,-0.60589 -1.782459,-0.25218 -1.782459,0.78603 0,1.03821 0.802106,1.88766 1.782459,1.88766 0.980353,0 1.78246,-0.35371 1.78246,-0.78603 z m 122.980193,-16.51262 4.14054,-7.49514 -7.41291,-7.63744 -7.41292,-7.63743 0,12.68168 c 0,6.97494 0.5068,15.21576 1.12625,18.31295 1.27189,6.35947 1.71105,5.98162 9.55904,-8.22462 z m 174.10348,7.20523 c -0.52707,-0.52707 -1.89943,-0.37667 -3.04966,0.33421 -1.55063,0.95836 -1.46609,1.681 0.32702,2.79505 2.37681,1.47672 4.68067,-1.17121 2.72264,-3.12926 z m 9.09077,2.62937 c -1.10169,-3.30507 -4.93889,-3.85324 -4.93889,-0.70554 0,1.55222 1.27,2.82222 2.82223,2.82222 1.55223,0 2.50472,-0.95252 2.11666,-2.11668 z m 56.71904,-21.82549 c 6.8159,-5.99767 8.20754,-8.15791 7.04002,-10.92804 -1.34381,-3.18836 -1.5442,-3.11154 -2.61774,1.00349 -0.97094,3.72182 -2.38264,4.54566 -8.56673,4.99934 -7.45791,0.54715 -18.29938,-3.49785 -18.29938,-6.82758 0,-0.95518 -1.20316,-1.73668 -2.67369,-1.73668 -4.21946,0 -3.11836,-4.97385 1.81699,-8.20761 5.6754,-3.71865 14.80394,-2.43786 22.70876,3.18617 l 5.77606,4.10952 -3.93167,-6.22827 c -2.1624,-3.42554 -8.57926,-12.85451 -14.25966,-20.95328 -9.76622,-13.92407 -10.37873,-14.45733 -11.26022,-9.80352 -0.77085,4.06969 -0.10624,5.27986 3.84041,6.992 5.85643,2.54068 7.68332,7.61826 4.92174,13.67926 -1.96505,4.31283 -10.30838,7.96366 -13.57945,5.94203 -0.75918,-0.4692 -1.38033,2.67979 -1.38033,6.99775 0,6.36442 0.60593,7.85087 3.20031,7.85087 8.90816,0 16.13811,17.2873 8.83129,21.11616 -6.43188,3.37038 -14.70529,-3.42977 -14.70529,-12.08669 0,-4.26218 -0.60812,-4.44571 -5.20945,-1.57211 -3.20972,2.0045 -3.1092,2.36167 2.01071,7.14437 5.2345,4.88975 5.51618,6.60471 2.34716,14.28987 -1.83168,4.44207 23.36717,-9.6193 33.99016,-18.96705 z m -227.26831,10.3232 c 2.23864,-2.7506 2.15617,-2.95586 -0.74971,-1.86567 -1.79579,0.67374 -3.98097,1.22496 -4.85598,1.22496 -0.875,0 -2.89197,2.51599 -4.48215,5.5911 l -2.89128,5.59107 5.23187,-3.72541 c 2.87753,-2.04899 6.36379,-5.11621 7.74725,-6.81605 z m 188.78235,8.37679 c 0,-0.9225 -0.8021,-2.173 -1.78246,-2.77889 -0.98035,-0.60589 -1.78246,0.14883 -1.78246,1.67726 0,1.52838 0.80211,2.77889 1.78246,2.77889 0.98036,0 1.78246,-0.75477 1.78246,-1.67726 z m -161.64078,-3.2245 c 0.42537,-0.73527 0.12798,-2.94106 -0.66075,-4.90177 -0.78878,-1.96071 -1.49052,-2.62787 -1.5594,-1.48262 -0.069,1.14525 -0.61216,3.35105 -1.20723,4.90175 -1.06739,2.78157 1.92666,4.07674 3.42738,1.48264 z m 28.69962,-4.33251 c -5.84901,-1.56426 -6.5612,-1.19583 -5.09152,2.63406 0.89697,2.33748 1.85853,2.46896 5.59738,0.76544 l 4.51435,-2.05687 -5.02021,-1.34263 z m -18.80611,2.28939 c 1.84607,-1.16952 1.96702,-2.34912 0.49982,-4.87446 -1.79767,-3.09413 -1.93948,-3.03822 -1.98981,0.78417 -0.03,2.27989 -0.84928,3.62434 -1.83667,3.0141 -0.98036,-0.60589 -1.78246,-0.25218 -1.78246,0.78603 0,2.27284 1.81664,2.37602 5.10912,0.29016 z M 44.698225,215.873 c 1.393919,-0.88325 1.693924,-1.9801 0.708206,-2.5893 -0.940585,-0.58132 -3.232025,0.095 -5.092057,1.50296 -2.600769,1.96862 -2.764344,2.56669 -0.708207,2.58929 1.470529,0.016 3.761951,-0.66015 5.092058,-1.50295 z m 340.510585,-3.10344 c -1.5444,-1.86089 -2.69419,-2.04632 -4.08219,-0.65832 -1.38801,1.388 -1.20732,2.38025 0.64145,3.52286 3.62349,2.23943 6.02047,0.24386 3.44074,-2.86454 z m -349.524052,0.76897 c 3.086934,-3.08695 2.690318,-4.16744 -2.377301,-6.47641 -3.68823,-1.68046 -4.703589,-1.56952 -5.538082,0.60513 -2.406624,6.27155 3.289758,10.49689 7.915383,5.87128 z m 342.180112,-2.87422 c 1.06941,-3.20817 -2.61486,-2.53403 -3.85816,0.70596 -0.66616,1.73596 -0.2678,2.55085 1.03473,2.11667 1.16484,-0.38827 2.43537,-1.65844 2.82343,-2.82263 z m -325.78149,-0.0371 c 0,-2.32091 -2.118952,-3.86444 -3.842625,-2.79915 -1.843454,1.13933 -0.253893,4.28452 2.165349,4.28452 0.922494,0 1.677276,-0.66841 1.677276,-1.48537 z m 187.15818,0.69934 c 0,-0.43231 -0.8021,-1.28176 -1.78246,-1.88766 -0.98035,-0.60589 -1.78246,-0.25218 -1.78246,0.78603 0,1.03821 0.80211,1.88766 1.78246,1.88766 0.98036,0 1.78246,-0.35371 1.78246,-0.78603 z m 163.98623,-1.99286 c 0,-1.52838 -0.80211,-2.28315 -1.78246,-1.67726 -0.98036,0.60591 -1.78246,1.85641 -1.78246,2.7789 0,0.92249 0.8021,1.67725 1.78246,1.67725 0.98035,0 1.78246,-1.2505 1.78246,-2.77889 z m -192.98832,-1.86291 c -0.59229,-0.59229 -2.12968,-0.65561 -3.41638,-0.14063 -1.42192,0.56899 -0.99957,0.99136 1.07691,1.07688 1.87899,0.0774 2.93177,-0.34387 2.33947,-0.93618 z m 32.56701,-5.45761 c 0,-1.78371 -0.99679,-2.37667 -2.81947,-1.67726 -1.55071,0.59508 -3.7565,1.10745 -4.90177,1.13863 -1.14525,0.0312 -0.56044,1.20865 1.29961,2.61659 3.80731,2.88191 6.42163,2.03596 6.42163,-2.07796 z m 26.73688,3.78155 c 0,-3.24462 -5.97852,-23.97396 -6.90091,-23.92757 -1.33337,0.067 -10.92367,15.56774 -10.92367,17.65577 0,0.79731 2.60684,2.73473 5.79299,4.3054 5.72085,2.82018 12.03159,3.85158 12.03159,1.9664 z M 77.929036,199.63541 c 2.941057,-1.94779 4.410338,-3.54673 3.265073,-3.55318 -1.145249,-0.007 -3.150515,-0.41312 -4.456148,-0.90367 -1.348003,-0.50649 -3.264235,1.03407 -4.434224,3.56492 -2.484195,5.37363 -1.401137,5.54535 5.625299,0.89193 z m 131.010714,1.78246 c 0,-0.98036 -1.20315,-1.78246 -2.67368,-1.78246 -1.47053,0 -2.67368,0.8021 -2.67368,1.78246 0,0.98034 1.20315,1.78246 2.67368,1.78246 1.47053,0 2.67368,-0.80212 2.67368,-1.78246 z m 187.1582,0 c 0,-0.98036 -0.80211,-1.78246 -1.78246,-1.78246 -0.98034,0 -1.78246,0.8021 -1.78246,1.78246 0,0.98034 0.80212,1.78246 1.78246,1.78246 0.98035,0 1.78246,-0.80212 1.78246,-1.78246 z M 60.995675,199.63541 c 0,-0.98036 -0.849448,-1.78246 -1.88766,-1.78246 -1.03821,0 -1.391922,0.8021 -0.786028,1.78246 0.605875,0.98035 1.455324,1.78246 1.887642,1.78246 0.432317,0 0.786046,-0.80211 0.786046,-1.78246 z m 139.031795,-0.74545 c 0,-0.41 0.48685,-2.01421 1.08193,-3.56492 0.90556,-2.35985 -0.47465,-2.8073 -8.46668,-2.74475 l -9.54862,0.0747 6.23861,3.41549 c 5.87696,3.2175 10.69476,4.48763 10.69476,2.81948 z m 40.0162,-2.6831 c 0.93133,-0.0751 0.72508,-1.10462 -0.45834,-2.28805 -1.68062,-1.68061 -2.79179,-1.51158 -5.07544,0.77207 -2.71006,2.71005 -2.67657,2.8773 0.45833,2.28808 1.86016,-0.34965 4.14411,-0.69709 5.07545,-0.7721 z m -31.10392,-0.9224 c 0,-0.43232 -0.8021,-1.28177 -1.78245,-1.88766 -0.98035,-0.60589 -1.78246,-0.25218 -1.78246,0.78603 0,1.03821 0.80211,1.88766 1.78246,1.88766 0.98035,0 1.78245,-0.35372 1.78245,-0.78603 z m 42.36539,-4.11574 c 6.39001,-9.22865 6.3635,-9.99888 -0.17255,-5.01359 -3.59901,2.7451 -6.54367,6.09906 -6.54367,7.45323 0,3.958 3.0547,2.84841 6.7162,-2.43964 z m 160.83494,3.11931 c 0,-0.98035 -1.40369,-1.77018 -3.1193,-1.75518 -2.66576,0.0234 -2.73055,0.27853 -0.44562,1.75518 3.36388,2.1739 3.56492,2.1739 3.56492,0 z m 10.28627,-1.44825 c 0.39182,-1.17546 -0.92082,-2.11667 -2.95194,-2.11667 -2.56338,0 -3.34196,0.82238 -2.60263,2.74901 1.16744,3.04229 4.45444,2.66807 5.55457,-0.63234 z M 167.0203,175.25849 c 8.67833,-6.42321 10.97531,-9.00728 9.54184,-10.73449 -2.19676,-2.64693 -0.74929,-7.66761 2.21057,-7.66761 1.19658,0 1.54186,1.27984 0.84157,3.1193 -0.96559,2.53637 -0.7589,2.69374 1.10609,0.84218 3.22374,-3.20059 -0.25735,-8.26246 -6.16989,-8.97171 -7.4474,-0.89335 -13.45814,4.58875 -26.10436,23.80844 l -11.89591,18.07937 9.52016,-5.0079 c 5.23608,-2.75434 14.66356,-8.81473 20.94993,-13.46758 z m 47.91535,16.36608 c -0.56214,-1.46489 -1.82575,-2.16674 -2.80805,-1.55965 -1.09818,0.67872 -0.85464,1.69394 0.63239,2.63617 3.24552,2.05646 3.35677,2.00142 2.17566,-1.07652 z M 76.767567,185.20082 c -3.326175,-2.0666 -4.189117,1.40476 -1.235137,4.96857 2.195402,2.64859 2.448725,2.62409 3.017597,-0.29197 0.341537,-1.7508 -0.46057,-3.85528 -1.78246,-4.6766 z m 9.948938,1.7554 c -1.798216,-2.90954 -4.331322,-1.62134 -4.331322,2.20267 0,3.14829 0.445401,3.41354 2.654063,1.58051 1.459728,-1.21148 2.214492,-2.91391 1.677259,-3.78318 z m 48.139005,2.1084 c 2.98811,-3.30183 2.96324,-3.40152 -0.61496,-2.4658 -2.64804,0.69248 -3.72898,0.13992 -3.72898,-1.90643 0,-1.58487 0.8021,-2.88158 1.78246,-2.88158 0.98035,0 1.78246,-0.8021 1.78246,-1.78246 0,-2.48222 -5.96566,-2.23366 -8.55581,0.3565 -3.35645,3.35646 -2.51462,7.82986 1.87159,9.94524 2.20578,1.06381 4.08673,1.98849 4.17988,2.05484 0.0932,0.0663 1.57067,-1.42778 3.28336,-3.32031 z m -35.623636,-6.9087 c -5.269103,-0.7196 -10.016272,-6.14649 -10.344566,-11.82577 -0.324372,-5.61162 -0.732413,-5.62048 -7.393354,-0.16059 l -5.347377,4.38318 4.860658,0.0642 c 5.435983,0.0716 11.52964,7.4676 10.612619,12.88059 -0.488804,2.88526 0.06845,2.80536 5.5337,-0.79353 5.626386,-3.705 5.780576,-4.04241 2.07832,-4.54802 z m 92.190036,5.00227 c 6.88395,0 8.76733,-0.57233 8.04841,-2.4458 -0.5162,-1.34518 -1.50632,-6.35835 -2.20027,-11.14037 -0.69394,-4.78202 -1.65284,-9.36883 -2.13088,-10.19296 -1.30449,-2.24887 -14.53101,11.24429 -18.4347,18.80636 -4.37321,8.47154 -4.3177,8.79308 1.15829,6.71111 2.5147,-0.95609 8.61633,-1.73834 13.55915,-1.73834 z m 214.47956,0 c -0.60589,-0.98035 -2.30477,-1.78246 -3.7753,-1.78246 -1.47052,0 -2.17796,0.80211 -1.57207,1.78246 0.6059,0.98036 2.30477,1.78246 3.7753,1.78246 1.47053,0 2.17797,-0.8021 1.57207,-1.78246 z m 9.32079,-1.0769 c -0.59231,-0.5923 -2.12968,-0.65561 -3.41639,-0.14065 -1.42192,0.569 -0.99957,0.99137 1.07691,1.0769 1.879,0.0773 2.93177,-0.34387 2.33948,-0.93618 z m -197.83989,-5.53515 c 0.35442,-1.0632 -1.82105,-3.68864 -4.83433,-5.83427 l -5.47869,-3.90118 3.06364,6.4245 c 2.92457,6.13289 5.86161,7.4743 7.24938,3.31095 z m 16.51181,-0.62299 c 0,-2.01856 -0.8021,-3.17438 -1.78245,-2.56848 -0.98036,0.60589 -1.78246,2.25744 -1.78246,3.67012 0,1.41267 0.8021,2.56848 1.78246,2.56848 0.98035,0 1.78245,-1.65155 1.78245,-3.67012 z m -110.51245,-9.79789 c 0,-0.25184 -1.40368,-0.10302 -3.1193,0.33063 -1.74951,0.44227 -5.27187,-1.22819 -8.02107,-3.80393 -5.62693,-5.27187 -5.42922,-4.61124 -3.16343,-10.57077 2.24173,-5.89616 0.89291,-5.75161 -8.86816,0.95037 -6.71739,4.61214 -7.228795,5.33076 -3.146456,4.42136 8.827556,-1.96647 14.935316,8.0875 10.241346,16.85825 -1.43302,2.67763 0.0749,2.21954 7.12984,-2.16608 4.92097,-3.05903 8.94723,-5.76796 8.94723,-6.01983 z m 130.22858,-0.58785 c -2.13455,-3.98847 -10.69885,-9.81524 -12.20816,-8.30592 -0.60226,0.60226 -1.56979,5.40835 -2.15007,10.68022 l -1.05506,9.58523 8.58003,-4.34782 c 7.30291,-3.70068 8.32002,-4.83366 6.83326,-7.61171 z m -173.490347,9.41404 c -0.592294,-0.59229 -2.129665,-0.65561 -3.416368,-0.14063 -1.421939,0.56898 -0.999567,0.99136 1.07689,1.07688 1.879015,0.0774 2.931771,-0.34387 2.339478,-0.93618 z m 17.489391,-4.15188 c -0.64619,-1.04558 -2.02788,-1.90105 -3.070421,-1.90105 -1.181931,0 -1.046713,1.02274 0.359201,2.71677 2.44471,2.94569 4.62963,2.28832 2.71122,-0.81572 z m 7.056566,1.66387 c 0.60587,-0.98036 0.25216,-1.78246 -0.78605,-1.78246 -1.03821,0 -1.88764,0.8021 -1.88764,1.78246 0,0.98035 0.35371,1.78246 0.78603,1.78246 0.43231,0 1.28175,-0.80211 1.88766,-1.78246 z M 230.0121,166.40342 c 3.1155,-4.0625 5.66454,-7.8348 5.66454,-8.38291 0,-1.54227 -12.71682,-4.70799 -18.95678,-4.71909 -3.07359,-0.005 -8.19634,1.08664 -11.38389,2.4269 l -5.79554,2.43684 11.38388,9.02181 c 6.26114,4.96199 11.84275,8.47752 12.40356,7.81228 0.56083,-0.66523 3.56873,-4.53336 6.68423,-8.59583 z m 164.30339,7.49153 c 0,-0.43232 -0.80211,-1.28176 -1.78246,-1.88766 -0.98034,-0.60589 -1.78245,-0.25218 -1.78245,0.78603 0,1.03821 0.80211,1.88766 1.78245,1.88766 0.98035,0 1.78246,-0.35371 1.78246,-0.78603 z m 8.42956,-0.29088 c -0.59231,-0.59229 -2.12969,-0.65561 -3.4164,-0.14063 -1.42192,0.56899 -0.99955,0.99137 1.07692,1.07688 1.87899,0.0774 2.93177,-0.34387 2.33948,-0.93618 z m -16.20398,-3.37924 c -0.56429,-1.47053 -0.24905,-2.67369 0.70052,-2.67369 3.20957,0 1.72541,-2.66131 -2.60312,-4.66779 l -4.30184,-1.99411 2.86341,6.00464 c 2.85317,5.98315 5.29171,8.41433 3.34103,3.33095 z M 98.427314,166.71585 c 0,-1.59458 -1.04504,-2.21672 -2.67369,-1.59176 -1.470528,0.56431 -2.673687,1.74228 -2.673687,2.61776 0,0.87545 1.203159,1.59175 2.673687,1.59175 1.47053,0 2.67369,-1.17799 2.67369,-2.61775 z m 7.129836,1.83172 c 0,-0.43231 -0.80211,-1.28176 -1.78246,-1.88766 -0.98036,-0.60589 -1.78246,-0.25218 -1.78246,0.78603 0,1.03821 0.8021,1.88766 1.78246,1.88766 0.98035,0 1.78246,-0.35371 1.78246,-0.78603 z m 46.49697,-16.41659 c 3.51542,-1.88315 9.93229,-6.14461 14.25969,-9.46994 10.84855,-8.33638 11.94769,-9.38371 8.45144,-8.05317 -4.30076,1.63671 -10.38697,-5.17095 -10.38697,-11.61821 0,-6.10727 -1.11577,-6.50722 -6.8835,-2.46735 l -4.11181,2.88001 4.10694,2.04753 c 2.25881,1.12614 5.31787,4.20496 6.7979,6.84182 2.48109,4.4204 2.40185,5.18295 -1.01618,9.77775 -3.97403,5.3422 -10.18884,7.29193 -13.76989,4.31992 -1.62802,-1.35114 -2.27925,-0.80526 -2.49478,2.09124 -0.27266,3.66405 -6.26008,10.15827 -9.36556,10.15827 -4.21339,0 -9.52415,-7.05349 -9.65833,-12.82773 l -0.1451,-6.24803 -7.12983,4.43034 c -9.45989,5.87816 -9.75492,6.23622 -3.93507,4.77553 9.11336,-2.28732 15.10582,7.78392 10.14588,17.05164 -1.2705,2.37394 1.25397,1.34776 8.46668,-3.44161 5.65231,-3.75324 13.15318,-8.36484 16.66857,-10.24801 z m 251.17367,14.71964 c 0,-1.36565 -1.20316,-2.94468 -2.67369,-3.50898 -1.81863,-0.69788 -2.67369,0.0963 -2.67369,2.48298 0,1.9308 1.20251,3.50898 2.67369,3.50898 1.47053,0 2.67369,-1.11735 2.67369,-2.48298 z m -278.95483,-2.8644 c 0.60588,-0.98034 -0.14884,-1.78246 -1.67728,-1.78246 -1.52838,0 -2.77887,0.80212 -2.77887,1.78246 0,0.98035 0.75477,1.78246 1.67726,1.78246 0.9225,0 2.173,-0.80211 2.77889,-1.78246 z m -8.02106,-1.78246 c 0,-0.98034 -0.80211,-1.78245 -1.78246,-1.78245 -0.98035,0 -1.78246,0.80211 -1.78246,1.78245 0,0.98035 0.80211,1.78246 1.78246,1.78246 0.98035,0 1.78246,-0.80211 1.78246,-1.78246 z m 8.91229,-5.24217 c 0,-0.92249 -0.80211,-2.173 -1.78246,-2.77889 -0.98035,-0.60588 -1.78246,0.14884 -1.78246,1.67728 0,1.52839 0.80211,2.77887 1.78246,2.77887 0.98035,0 1.78246,-0.75477 1.78246,-1.67726 z m 268.06937,-1.1422 c 1.56935,-4.08967 1.44222,-4.31038 -2.48298,-4.31038 -3.43514,0 -4.83029,3.48787 -2.37661,5.94155 1.95192,1.95191 3.71124,1.36138 4.85959,-1.63117 z m -275.19921,-0.74546 c 0,-0.98035 -1.25049,-1.78246 -2.77888,-1.78246 -1.52839,0 -2.28316,0.80211 -1.67726,1.78246 0.60588,0.98036 1.85638,1.78246 2.77887,1.78246 0.92249,0 1.67727,-0.8021 1.67727,-1.78246 z m 264.99943,-2.96357 c -0.52708,-0.52708 -1.89942,-0.37669 -3.04967,0.33421 -1.55063,0.95834 -1.46609,1.68101 0.32703,2.79506 2.3768,1.47671 4.68066,-1.17124 2.72264,-3.12927 z m -247.88041,-3.68351 c -1.81188,-1.81191 -3.3069,0.916 -1.82027,3.32141 1.12302,1.81706 1.54285,1.81848 2.14663,0.007 0.41279,-1.23844 0.26594,-2.7363 -0.32636,-3.32859 z m 64.30503,-2.46637 c -0.48381,-1.85007 -0.0775,-3.36377 0.90281,-3.36377 0.98036,0 2.21383,1.6496 2.74107,3.66574 0.64981,2.48486 1.88799,3.31263 3.84365,2.56961 3.1656,-1.20272 39.42547,-24.06227 39.42547,-24.85527 0,-0.27051 -3.0079,0.18252 -6.68423,1.00674 -3.67631,0.82422 -13.79908,2.68101 -22.49503,4.12619 -8.72106,1.44937 -17.24139,3.92226 -19.00112,5.5148 -4.21472,3.81425 -5.96778,11.25049 -3.38572,14.36169 2.70382,3.25788 5.77419,1.26136 4.6531,-3.02573 z m 175.57162,-3.10995 c -1.6474,-0.35059 -4.01727,-1.46751 -5.26642,-2.48207 -3.91121,-3.17675 -3.91729,-0.59395 -0.0125,5.57229 l 3.75089,5.92409 2.26195,-4.18844 c 1.94766,-3.60647 1.84578,-4.27703 -0.7333,-4.82587 z m -33.23008,1.97425 c -0.66311,-1.71561 -2.41044,-9.1351 -3.88299,-16.48774 -3.03837,-15.17125 -7.35755,-28.32227 -10.41255,-31.704139 -1.17879,-1.30492 -3.4449,-1.76668 -5.25715,-1.07128 -2.86642,1.09997 -2.8981,1.383 -0.31645,2.82778 3.59367,2.011109 3.72797,10.001729 0.23303,13.863599 -2.35867,2.60631 -1.87219,3.92872 4.62771,12.57928 3.99493,5.31674 8.8068,12.69191 10.69307,16.3893 3.46581,6.79355 6.54083,9.36114 4.31533,3.6032 z m 41.8208,1.33685 c 0,-0.98035 -0.35372,-1.78246 -0.78603,-1.78246 -0.43232,0 -1.28177,0.80211 -1.88766,1.78246 -0.6059,0.98036 -0.25218,1.78246 0.78603,1.78246 1.03821,0 1.88766,-0.8021 1.88766,-1.78246 z m 8.91229,0.10517 c 0,-2.10306 -3.47642,-4.35275 -4.75322,-3.07596 -1.2768,1.2768 0.97292,4.75322 3.07596,4.75322 0.9225,0 1.67726,-0.75477 1.67726,-1.67726 z m -249.54425,-1.88766 c 0,-0.98036 -0.8021,-1.78246 -1.78246,-1.78246 -0.98035,0 -1.78246,0.8021 -1.78246,1.78246 0,0.98035 0.80211,1.78246 1.78246,1.78246 0.98036,0 1.78246,-0.80211 1.78246,-1.78246 z m -6.4281,-2.82263 c 0.66614,-1.73596 0.2678,-2.55085 -1.03473,-2.11667 -2.66449,0.88816 -4.13157,4.9393 -1.78872,4.9393 0.95716,0 2.22772,-1.27019 2.82345,-2.82263 z m 15.05073,-6.28675 c -3.31363,-2.07308 -4.22652,3.13618 -1.19437,6.81546 2.13492,2.59055 2.43614,2.46702 2.97683,-1.2209 0.33086,-2.2567 -0.47125,-4.77426 -1.78246,-5.59456 z m 9.96837,3.56005 c -1.79823,-2.90956 -4.33132,-1.62137 -4.33132,2.20267 0,3.14829 0.4454,3.41352 2.65406,1.58049 1.45972,-1.21147 2.2145,-2.91389 1.67726,-3.78316 z m -16.49574,-3.28618 c -0.66373,-6.95991 -0.72804,-7.01674 -4.86999,-4.30282 l -4.19739,2.75024 4.8229,4.24648 c 2.65258,2.33557 4.8441,4.27184 4.87,4.30282 0.0258,0.031 -0.25557,-3.11754 -0.62552,-6.99672 z m 245.66654,2.60736 c 0,-0.25586 -1.14723,-1.41729 -2.54939,-2.58098 -2.03159,-1.68606 -2.92091,-1.42158 -4.37864,1.30221 -1.60895,3.00637 -1.30193,3.31721 2.54938,2.58099 2.40826,-0.46036 4.37865,-1.04636 4.37865,-1.30222 z m -16.04213,-4.57179 c 0,-0.9225 -1.70243,-1.67728 -3.78317,-1.67728 -3.14829,0 -3.41353,0.4454 -1.5805,2.65406 2.22635,2.68261 5.36367,2.11126 5.36367,-0.97678 z m 6.2386,0.10516 c 0.60589,-0.98035 0.25219,-1.78245 -0.78603,-1.78245 -1.03821,0 -1.88766,0.8021 -1.88766,1.78245 0,0.98036 0.35371,1.78246 0.78603,1.78246 0.43232,0 1.28176,-0.8021 1.88766,-1.78246 z m -220.13367,-0.78602 c 0,-0.43232 -0.80212,-1.28177 -1.78246,-1.88766 -0.98036,-0.60588 -1.78246,-0.25217 -1.78246,0.78604 0,1.03821 0.8021,1.88764 1.78246,1.88764 0.98034,0 1.78246,-0.3537 1.78246,-0.78602 z m 35.44393,-10.23755 4.25092,-3.2361 -5.54199,0 c -4.3669,0 -6.13404,-1.14491 -8.33429,-5.39971 -1.53577,-2.96986 -2.30738,-6.18436 -1.71468,-7.14336 0.59271,-0.959 -0.97873,-0.80669 -3.49207,0.33845 -5.50379,2.50769 -5.66381,3.53397 -1.00479,6.44359 4.42416,2.76294 4.6758,10.51164 0.53345,16.42568 l -3.03145,4.32802 7.04199,-4.26025 c 3.87311,-2.34315 8.95491,-5.71648 11.29291,-7.49632 z m 170.89035,1.66567 c 1.52126,-1.71562 4.65366,-3.11931 6.96092,-3.11931 3.74879,0 3.9582,-0.37917 1.96867,-3.56492 -2.91682,-4.67056 -3.93512,-4.50069 -6.47814,1.0806 -1.89681,4.16306 -2.79006,4.51916 -8.60123,3.42898 -6.44366,-1.20883 -6.46787,-1.19034 -3.8337,2.92995 1.458,2.28056 3.37626,5.34961 4.26279,6.82015 1.34287,2.2275 1.7239,2.07877 2.28331,-0.89123 0.36929,-1.96071 1.91611,-4.96861 3.43738,-6.68422 z m -212.57289,5.79299 c 0.60587,-0.98036 -0.19623,-1.78246 -1.78246,-1.78246 -1.58625,0 -2.38836,0.8021 -1.78246,1.78246 0.60587,0.98035 1.40798,1.78246 1.78246,1.78246 0.37445,0 1.17656,-0.80211 1.78246,-1.78246 z m 15.34776,-7.64595 c -2.87439,-2.87439 -3.583,-0.94654 -1.50006,4.08103 1.59897,3.85941 1.95158,4.01308 2.63308,1.14751 0.43278,-1.81975 -0.077,-4.17259 -1.13302,-5.22854 z m 8.54267,5.18044 c 1.5779,-1.90127 1.42388,-2.70435 -0.67299,-3.50899 -1.86978,-0.71749 -2.71917,0.0526 -2.71917,2.46553 0,4.15519 0.64498,4.35358 3.39216,1.04346 z m 195.76051,-0.39384 c -0.59232,-0.59229 -2.1297,-0.65563 -3.4164,-0.14063 -1.42192,0.56898 -0.99956,0.99136 1.07691,1.07688 1.879,0.0774 2.93178,-0.34387 2.33949,-0.93618 z m -193.15678,-8.71639 c -0.56213,-1.4649 -1.75322,-2.21158 -2.64683,-1.65929 -1.86905,1.15515 -0.36865,4.32273 2.04757,4.32273 0.89173,0 1.16139,-1.19854 0.59926,-2.66344 z m -7.21119,-1.59095 c 0.67491,-1.75878 -0.0848,-2.20168 -2.63365,-1.53516 -2.741,0.71678 -3.02363,1.29087 -1.20349,2.44464 3.01431,1.91074 2.72897,1.97838 3.83714,-0.90948 z m 193.72087,-1.09299 c 0,-0.98034 -1.60421,-1.78246 -3.56492,-1.78246 -1.96071,0 -3.56492,0.80212 -3.56492,1.78246 0,0.98035 1.60421,1.78246 3.56492,1.78246 1.96071,0 3.56492,-0.80211 3.56492,-1.78246 z m -174.68098,-1.78246 c 0,-0.98034 -0.84945,-1.78246 -1.88766,-1.78246 -1.03821,0 -1.39192,0.80212 -0.78603,1.78246 0.60589,0.98036 1.45534,1.78246 1.88766,1.78246 0.43232,0 0.78603,-0.8021 0.78603,-1.78246 z m 8.42955,0.70557 c -0.59231,-0.59229 -2.12968,-0.65562 -3.41638,-0.14063 -1.42193,0.569 -0.99957,0.99137 1.0769,1.07689 1.879,0.0774 2.93177,-0.34388 2.33948,-0.93619 z m 12.56998,-3.37923 c 0.27566,-0.2246 -1.47494,-1.70318 -3.89026,-3.28575 -4.32822,-2.83597 -4.38934,-2.8021 -4.24283,2.35101 0.13441,4.72535 0.50868,5.0415 3.89024,3.28575 2.05788,-1.06849 3.96715,-2.12642 4.24285,-2.35101 z m 36.03916,0.8912 c 0,-0.98034 -0.80211,-1.78245 -1.78246,-1.78245 -0.98035,0 -1.78246,-0.85789 -1.78246,-1.90643 0,-1.04853 1.80473,-1.65011 4.01053,-1.33684 2.84634,0.40424 3.86708,1.60442 3.51634,4.13449 -0.48755,3.51703 -0.45762,3.51846 2.22808,0.10499 3.33584,-4.23983 3.351,-4.80231 0.24384,-9.05161 -2.1363,-2.921549 -3.12743,-3.093739 -7.17987,-1.24735 -5.71993,2.60619 -7.53686,6.65701 -4.58254,10.21674 2.51998,3.0364 5.32854,3.49419 5.32854,0.86852 z m 101.93253,-11.62127 c 0.4101,-0.41009 3.24983,-0.936429 6.31053,-1.169649 4.68111,-0.35669 5.30169,-0.91585 3.90756,-3.52081 -2.55479,-4.773686 -4.84061,-5.462917 -6.00025,-1.809224 -1.21211,3.819024 -9.25637,8.032903 -12.04486,6.309513 -1.9822,-1.225069 -1.91675,-1.008339 2.16752,7.17867 l 2.57954,5.17074 1.16717,-5.70681 c 0.64196,-3.13873 1.5027,-6.04234 1.91279,-6.45243 z m -150.05892,7.16513 c 0,-1.47053 -0.80211,-2.67369 -1.78246,-2.67369 -0.98036,0 -1.78246,1.20316 -1.78246,2.67369 0,1.47052 0.8021,2.67369 1.78246,2.67369 0.98035,0 1.78246,-1.20317 1.78246,-2.67369 z m 165.76868,1.18832 c 0,-2.3209 -2.11893,-3.86443 -3.84261,-2.79915 -1.84346,1.13932 -0.25391,4.28452 2.16535,4.28452 0.9225,0 1.67726,-0.66842 1.67726,-1.48537 z m -172.89852,-3.07596 c 0,-1.52839 -0.80211,-2.28316 -1.78246,-1.67727 -0.98035,0.60589 -1.78246,1.85639 -1.78246,2.77889 0,0.92248 0.80211,1.67725 1.78246,1.67725 0.98035,0 1.78246,-1.25048 1.78246,-2.77887 z m 126.5273,-1.23167 c -0.0222,-3.25715 -0.357,-3.50829 -1.78246,-1.33683 -1.56015,2.37662 -1.95019,2.37662 -3.51034,0 -1.42547,-2.17146 -1.76029,-1.92032 -1.78246,1.33683 -0.0193,2.83134 1.0209,4.01054 3.53763,4.01054 2.51672,0 3.5569,-1.1792 3.53763,-4.01054 z m 38.42344,2.1095 c 1.64047,-2.65436 -0.26153,-4.0975 -3.6743,-2.7879 -1.57495,0.60437 -2.36431,1.90662 -1.75416,2.8939 1.44483,2.33776 3.94835,2.28887 5.42846,-0.10606 z m -138.21386,-3.44633 c 2.17368,-1.40473 1.94333,-1.73297 -1.23164,-1.75516 -2.14794,-0.0142 -4.40107,0.7748 -5.00697,1.75516 -1.40256,2.26941 2.72695,2.26941 6.23861,0 z m -14.86838,-11.8976 c -0.18468,-0.184699 -2.32907,1.173438 -4.7653,3.018076 -4.37913,3.315705 -4.38896,3.383825 -0.86459,5.986484 3.33838,2.46531 3.6412,2.27352 4.76529,-3.018089 0.66022,-3.107878 1.0493,-5.801793 0.8646,-5.986471 z m 27.17284,7.649621 c 1.573,-1.89535 1.44303,-2.69699 -0.56199,-3.46639 -2.77735,-1.065766 -6.89247,-13.210788 -5.33184,-15.735938 1.47379,-2.384638 -0.37436,-1.790343 -7.4919,2.409102 l -6.63243,3.913229 4.50349,1.501156 c 2.4769,0.825637 5.9991,4.278378 7.8271,7.672761 3.6793,6.832049 4.68919,7.318889 7.68757,3.70608 z m -10.522,-2.6636 c 0,-0.86033 -1.20316,-2.562755 -2.67369,-3.783185 -2.23377,-1.853863 -2.67369,-1.596502 -2.67369,1.564218 0,2.174517 1.13689,3.783167 2.67369,3.783167 1.47053,0 2.67369,-0.7039 2.67369,-1.5642 z m -8.9123,-3.888364 c 0,-0.922497 -0.8021,-1.677271 -1.78246,-1.677271 -0.98034,0 -1.78246,1.250489 -1.78246,2.778879 0,1.528386 0.80212,2.283156 1.78246,1.677256 0.98036,-0.60587 1.78246,-1.856377 1.78246,-2.778864 z m 129.03453,1.134227 c -0.87421,-2.278105 -6.04485,-5.506418 -6.04485,-3.77411 0,0.921806 5.38817,6.309987 6.30997,6.309987 0.3894,0 0.27008,-1.14114 -0.26512,-2.535877 z m 8.21481,-0.137788 c 1.85389,-2.233773 1.59652,-2.673679 -1.5642,-2.673679 -2.17451,0 -3.78316,1.136898 -3.78316,2.673679 0,1.470525 0.70389,2.673695 1.5642,2.673695 0.86031,0 2.56273,-1.20317 3.78316,-2.673695 z M 234.94299,86.012654 c -1.94716,-1.947156 -3.28237,1.149434 -1.88438,4.37025 1.32558,3.053997 1.42166,3.051213 2.16022,-0.06268 0.42512,-1.792354 0.301,-3.730774 -0.27584,-4.307614 z m 12.70016,3.777929 c 0.36287,-1.103315 -1.37904,-2.395768 -3.87092,-2.872122 -3.58734,-0.685768 -4.53067,-0.14949 -4.53067,2.575621 0,2.518958 1.03784,3.288999 3.87092,2.872132 2.129,-0.313283 4.16781,-1.472306 4.53067,-2.575631 z m 10.41916,-5.067111 c 3.08631,-2.334367 3.12806,-2.623123 0.38646,-2.673689 -4.81869,-0.08888 -9.31244,-10.25157 -6.88694,-15.574934 l 1.97257,-4.329352 -9.11769,4.962472 c -8.96743,4.880696 -9.038,4.983792 -4.28121,6.25595 6.30892,1.687269 11.58328,6.553913 11.58328,10.687895 0,3.970693 1.73845,4.154762 6.34353,0.671658 z m 82.5211,-7.104538 c 1.82656,-0.579726 4.65249,-0.543114 6.27985,0.08137 2.68246,1.02935 2.66427,0.620642 -0.1945,-4.375296 l -3.15334,-5.510714 -1.48659,4.419336 c -1.80699,5.371821 -9.14745,7.646584 -14.29707,4.430581 -3.52713,-2.202726 -3.56114,-2.131498 -0.93906,1.96732 1.49634,2.339038 3.38235,5.369941 4.19113,6.735348 1.13885,1.922604 2.01276,1.447672 3.87456,-2.105675 1.3222,-2.523521 3.89846,-5.062543 5.72502,-5.64227 z m 9.7857,6.970976 c -0.58053,-1.51281 -1.43779,-2.368281 -1.905,-1.901048 -0.46724,0.467233 -0.32081,1.704987 0.32538,2.750558 1.75759,2.843851 2.78488,2.291371 1.57962,-0.84951 z m -6.85369,-0.814356 c 0.60589,-0.980352 -0.14884,-1.782458 -1.67726,-1.782458 -1.52839,0 -2.77889,0.802106 -2.77889,1.782458 0,0.980353 0.75476,1.782464 1.67726,1.782464 0.92248,0 2.17299,-0.802111 2.77889,-1.782464 z m -95.36156,-1.719745 c 0,-0.94586 -1.60422,-2.578294 -3.56492,-3.627631 -3.02212,-1.617391 -3.56492,-1.355542 -3.56492,1.719745 0,2.439325 1.16776,3.627631 3.56492,3.627631 1.9607,0 3.56492,-0.773885 3.56492,-1.719745 z M 237.4591,78.378925 c 0,-0.891728 -1.19856,-1.161393 -2.66345,-0.599259 -1.4649,0.562133 -2.21157,1.753203 -1.65929,2.646821 1.15513,1.86906 4.32274,0.368657 4.32274,-2.047562 z m 20.68396,-4.815376 c -1.81191,-1.811896 -3.30691,0.915992 -1.82028,3.321402 1.123,1.817069 1.54285,1.818475 2.14661,0.0071 0.41282,-1.238426 0.26596,-2.736291 -0.32633,-3.328587 z m 8.72661,3.08217 c 0.6059,-0.980353 -0.14883,-1.78246 -1.67725,-1.78246 -1.52839,0 -2.7789,0.802107 -2.7789,1.78246 0,0.980352 0.75478,1.782459 1.67726,1.782459 0.9225,0 2.173,-0.802107 2.77889,-1.782459 z m 8.0974,-0.04086 c 3.34678,-1.791141 3.34551,-1.884686 -0.0718,-5.302038 -4.43435,-4.434337 -6.4112,-12.207174 -4.03794,-15.876888 1.12699,-1.742644 4.16129,-2.781315 7.83793,-2.683 5.39791,0.144344 6.01807,-0.346838 6.18885,-4.901762 0.22353,-5.962127 -0.50382,-6.13154 -6.42841,-1.49726 -2.45088,1.917108 -5.07493,3.503483 -5.83121,3.525283 -0.75628,0.0218 -4.60885,2.17966 -8.56128,4.795246 l -7.1862,4.755613 4.99634,2.101551 c 5.69607,2.395862 10.44537,9.965814 8.85407,14.112633 -1.25435,3.268774 -0.41394,3.461175 4.23969,0.970626 z m 56.96236,-5.306523 c 0,-0.980352 -0.80211,-1.782458 -1.78246,-1.782458 -0.98035,0 -1.78246,0.802106 -1.78246,1.782458 0,0.980353 0.80211,1.78246 1.78246,1.78246 0.98035,0 1.78246,-0.802107 1.78246,-1.78246 z m 6.23861,0 c 0.60589,-0.980352 0.25218,-1.782458 -0.78603,-1.782458 -1.03821,0 -1.88766,0.802106 -1.88766,1.782458 0,0.980353 0.35371,1.78246 0.78603,1.78246 0.43232,0 1.28176,-0.802107 1.88766,-1.78246 z M 267.7609,70.512303 c 0,-0.43232 -0.8021,-1.281763 -1.78246,-1.887655 -0.98035,-0.605891 -1.78246,-0.252175 -1.78246,0.786034 0,1.03821 0.80211,1.887654 1.78246,1.887654 0.98036,0 1.78246,-0.353714 1.78246,-0.786033 z m 54.76142,-2.696043 c -1.33315,-5.098048 2.68693,-9.447706 8.94818,-9.681727 6.2331,-0.232969 6.08098,-0.724518 -3.70151,-11.961466 l -6.83412,-7.850222 0.3305,6.238607 c 0.57641,10.880553 0.0722,12.506792 -4.52818,14.602827 l -4.49747,2.049189 4.83095,5.042435 c 5.70899,5.958888 6.67413,6.235132 5.45165,1.560357 z m -61.89125,-0.918128 c 0,-1.590104 -1.04559,-2.216518 -2.66346,-1.595685 -1.4649,0.562135 -2.21966,1.740119 -1.67726,2.617747 1.55541,2.516695 4.34072,1.860867 4.34072,-1.022062 z m 22.28074,0.835287 c 0.60589,-0.980353 0.25218,-1.78246 -0.78603,-1.78246 -1.03821,0 -1.88766,0.802107 -1.88766,1.78246 0,0.980352 0.35371,1.782459 0.78603,1.782459 0.43232,0 1.28177,-0.802107 1.88766,-1.782459 z m 15.81373,-4.875485 c 2.08632,-1.210989 5.69627,-2.213622 8.02209,-2.228074 3.587,-0.02228 3.88637,-0.438876 1.97251,-2.744934 -2.01475,-2.427627 -2.60799,-2.400372 -5.54171,0.254606 -1.80698,1.635294 -5.70067,3.059217 -8.65266,3.164271 -2.95197,0.105059 -5.36906,0.726988 -5.37129,1.382071 -0.002,0.655082 -0.52674,2.553136 -1.16557,4.217892 -1.03937,2.708564 -0.73541,2.770749 2.8909,0.591399 2.22882,-1.33949 5.75941,-3.426243 7.84573,-4.637231 z m 32.06995,0.429575 c -0.56215,-1.464897 -1.74013,-2.219667 -2.61774,-1.677263 -2.51671,1.555402 -1.86087,4.340713 1.02206,4.340713 1.59009,0 2.2165,-1.045584 1.59568,-2.66345 z M 285.5855,60.821836 c 0,-0.860315 -1.20316,-2.562741 -2.67369,-3.783172 -2.23378,-1.853874 -2.67369,-1.596512 -2.67369,1.564206 0,2.174513 1.13689,3.783172 2.67369,3.783172 1.47053,0 2.67369,-0.703893 2.67369,-1.564206 z m -7.99939,-5.246882 c -1.41637,-1.41636 -4.48104,1.798949 -3.39286,3.559634 0.74015,1.197582 1.65873,1.015275 2.60584,-0.517159 0.8045,-1.301713 1.15866,-2.670827 0.78702,-3.042475 z m 21.85057,0.0155 c 0.38806,-1.164213 -0.56443,-2.116714 -2.11667,-2.116714 -1.55222,0 -2.82222,1.270002 -2.82222,2.822225 0,3.147693 3.83721,2.599521 4.93889,-0.705556 z m 12.46926,-3.210068 c -1.16736,-2.562072 -2.42915,-3.738264 -2.80398,-2.613758 -0.37485,1.124507 0.29462,3.220748 1.48769,4.658315 3.23299,3.895511 3.69547,3.177163 1.31629,-2.044557 z m 5.76382,-4.610515 c 0,-4.146183 -0.53513,-5.168738 -1.95953,-3.744345 -1.07773,1.077736 -1.42474,3.644478 -0.77112,5.703868 1.70194,5.362312 2.73065,4.624107 2.73065,-1.959523 z m -17.82459,0.461687 c 0,-0.922495 -0.80211,-2.172992 -1.78246,-2.778883 -0.98035,-0.605892 -1.78246,0.14887 -1.78246,1.677263 0,1.528386 0.80211,2.778884 1.78246,2.778884 0.98035,0 1.78246,-0.754768 1.78246,-1.677264 z m -7.12984,-2.884079 c 0,-1.528386 -0.8021,-2.283156 -1.78246,-1.677264 -0.98035,0.605892 -1.78245,1.856389 -1.78245,2.778884 0,0.922496 0.8021,1.677264 1.78245,1.677264 0.98036,0 1.78246,-1.250499 1.78246,-2.778884 z m 10.13031,-10.856935 c -0.45799,-0.45798 -3.72677,0.376529 -7.26395,1.854464 -6.71195,2.804423 -8.69562,4.905551 -3.31198,3.508061 1.71562,-0.445341 4.72352,0.376828 6.68423,1.827039 3.30459,2.444197 3.60724,2.308363 4.14464,-1.86006 0.31887,-2.473247 0.20504,-4.871522 -0.25294,-5.329504 z m 11.2592,1.94464 c 0,-1.412672 -1.20316,-2.568493 -2.67369,-2.568493 -2.68479,0 -3.66416,3.762755 -1.53384,5.893072 1.66346,1.663465 4.20753,-0.346725 4.20753,-3.324579 z M 98.427314,370.07846 c 0,-0.37013 -1.40369,-1.77381 -3.1193,-3.1193 -2.82709,-2.21715 -2.890136,-2.15411 -0.672989,0.67298 2.328549,2.96914 3.792289,3.91335 3.792289,2.44632 z m -1.05515,-7.34808 c -1.60588,-2.45088 -3.275923,-4.45615 -3.711199,-4.45615 -0.873529,0 0.807436,3.22904 3.479659,6.68423 3.069126,3.96837 3.236466,2.35804 0.23154,-2.22808 z M 465.61385,344.01456 c 3.43123,-1.87851 5.43651,-3.41549 4.45615,-3.41549 -0.98035,0 -4.58983,1.53698 -8.02107,3.41549 -3.43123,1.87852 -5.4365,3.4155 -4.45614,3.4155 0.98035,0 4.58983,-1.53698 8.02106,-3.4155 z m -1.78246,-7.12983 c 1.47053,-0.95033 1.87159,-1.72786 0.89123,-1.72786 -0.98035,0 -2.98561,0.77753 -4.45614,1.72786 -1.47053,0.95034 -1.87159,1.72787 -0.89123,1.72787 0.98035,0 2.98561,-0.77753 4.45614,-1.72787 z m 8.00845,0.0203 c 0.62446,-1.0104 -0.0911,-1.30922 -1.67726,-0.70052 -3.08796,1.18495 -3.65295,2.46256 -1.08901,2.46256 0.9225,0 2.16733,-0.79292 2.76627,-1.76204 z m -11.57336,-30.32212 c 1.47053,-0.95033 1.87158,-1.72786 0.89123,-1.72786 -0.98036,0 -2.98562,0.77753 -4.45615,1.72786 -1.47053,0.95034 -1.87159,1.72787 -0.89123,1.72787 0.98035,0 2.98562,-0.77753 4.45615,-1.72787 z m -1.78246,-3.56492 c 1.47053,-0.95033 1.87158,-1.72785 0.89123,-1.72785 -0.98036,0 -2.98562,0.77752 -4.45615,1.72785 -1.47053,0.95034 -1.87159,1.72787 -0.89123,1.72787 0.98035,0 2.98562,-0.77753 4.45615,-1.72787 z m -11.58599,-27.74538 c 5.88547,-2.87571 7.24017,-4.03589 3.98881,-3.41611 -4.83469,0.9216 -18.17478,8.07468 -14.68356,7.87347 0.98035,-0.0565 5.79299,-2.06232 10.69475,-4.45736 z m -7.94232,-36.86875 c 7.88049,-4.4998 9.78662,-8.2176 2.14933,-4.19215 -6.2434,3.29076 -12.46641,8.07206 -10.60228,8.146 0.78613,0.0312 4.58996,-1.74806 8.45295,-3.95385 z M 144.77124,449.72513 c -2.89349,-1.03411 -7.12984,-5.74188 -7.12984,-7.92326 0,-3.15329 9.96008,2.34841 10.20791,5.63861 0.14599,1.93691 0.11462,3.45831 -0.0695,3.38092 -0.18414,-0.0774 -1.53798,-0.57072 -3.00851,-1.09627 z m -3.11931,-11.29576 c -2.20578,-0.88663 -4.01053,-2.92688 -4.01053,-4.53386 0,-1.93203 0.95514,-2.55533 2.81946,-1.83992 1.55072,0.59508 3.46243,1.08195 4.24826,1.08195 0.78584,0 1.84831,1.60421 2.36103,3.5649 1.02597,3.92326 0.47938,4.09747 -5.41822,1.72693 z m -2.09488,-10.19636 c -3.75702,-1.91779 -6.3257,-4.6719 -6.67809,-7.16017 l -0.57267,-4.04364 7.29643,3.72236 c 8.0446,4.10406 8.52443,6.44383 0.71237,3.47368 -2.72281,-1.03522 -5.27365,-1.55912 -5.66853,-1.16424 -0.39489,0.39489 2.52372,2.01506 6.48581,3.60035 3.96209,1.58533 7.20379,3.28995 7.20379,3.78805 0,1.6091 -2.54209,0.96731 -8.77911,-2.21639 z m 115.87517,-1.17347 c 3.42759,-3.37186 74.24976,-23.5005 76.11681,-21.63346 1.10053,1.10056 1.0834,1.10609 -27.25714,8.81804 -12.74979,3.46945 -27.91485,7.93661 -33.70017,9.92706 -9.59177,3.30006 -17.01589,4.71458 -15.1595,2.88836 z m -116.18874,-8.93531 c -3.49542,-2.37519 -6.35531,-5.58362 -6.35531,-7.12983 0,-3.43136 -0.17504,-3.42877 7.75784,-0.11426 7.51206,3.13873 7.07547,5.39155 -0.52934,2.73135 -4.74827,-1.66098 -4.87155,-1.60154 -1.58404,0.76374 8.68012,6.24513 10.57865,7.95775 8.88044,8.01081 -0.99787,0.0312 -4.67419,-1.88666 -8.16959,-4.26186 z m 119.75366,1.8379 c 1.46595,-1.37813 38.47946,-13.79114 53.32524,-17.8834 20.04775,-5.52619 26.73689,-6.66347 26.73689,-4.54581 0,0.95583 -1.64765,1.73789 -3.66146,1.73789 -4.68003,0 -29.38402,6.99425 -53.28183,15.08526 -16.44652,5.56824 -25.38395,7.73547 -23.11884,5.60606 z m -2.17492,-6.24317 c 1.85864,-1.17756 1.90868,-1.7131 0.21285,-2.27837 -2.6066,-0.86886 63.57375,-26.5 68.31533,-26.45801 1.77348,0.0161 2.72877,0.83067 2.12288,1.81102 -0.60589,0.98035 -2.6549,1.78246 -4.55338,1.78246 -3.44348,0 -64.67465,23.00917 -61.51485,23.11578 0.91586,0.0308 16.27339,-4.75645 34.12783,-10.63857 34.05438,-11.21916 36.39655,-11.79268 36.39655,-8.9123 0,0.98035 -1.8101,1.78246 -4.02246,1.78246 -2.21235,0 -17.91592,4.81264 -34.89682,10.69476 -27.86518,9.65237 -43.10985,13.4862 -36.18793,9.10077 z m -8.66836,-6.07081 c 0,-1.01456 40.4821,-17.21261 58.82114,-23.53605 15.47086,-5.33445 21.38951,-6.62962 21.38951,-4.68066 0,0.88993 -3.0079,2.16251 -6.68422,2.82797 -3.67632,0.66547 -19.53258,6.30754 -35.23611,12.53794 -28.49256,11.30448 -38.29032,14.59276 -38.29032,12.8508 z m -6.09922,-4.77356 c 3.13714,-3.13714 79.46209,-32.12312 84.58556,-32.12312 4.67349,0 -0.24229,2.29875 -17.33078,8.1043 -9.61692,3.26719 -28.21384,10.40033 -41.32648,15.85139 -23.60376,9.81235 -29.39858,11.63771 -25.9283,8.16743 z m 7.06657,-10.61045 c -1.28885,-2.08541 -1.60376,-1.89875 27.75913,-16.45396 28.81436,-14.28335 42.57187,-19.94183 42.57187,-17.50992 0,0.96605 -0.90486,1.75645 -2.01081,1.75645 -2.37364,0 -55.2859,25.29054 -54.51826,26.05818 0.28852,0.28852 11.18072,-3.83298 24.20488,-9.15888 13.02418,-5.3259 23.39905,-8.8397 23.05531,-7.80842 -0.34377,1.03128 -8.62576,4.9291 -18.40443,8.66185 -9.77866,3.73273 -22.19097,8.87758 -27.58292,11.43299 -10.58704,5.01752 -13.48258,5.59791 -15.07477,3.02171 z m -16.14373,-3.11365 c 8.04597,-8.26906 70.7794,-45.93343 74.39883,-44.66813 1.24981,0.4369 -1.82398,2.78895 -6.83064,5.22678 -10.92688,5.32046 -31.00231,17.37942 -31.00231,18.62255 0,0.77968 14.25909,-6.67913 34.08515,-17.82967 5.88088,-3.30752 6.70794,-3.38063 9.26918,-0.8194 2.56123,2.56124 1.18986,3.61841 -15.36933,11.84811 -9.99981,4.96979 -26.25807,13.37266 -36.1295,18.67306 -9.87142,5.30041 -21.01563,10.21259 -24.76495,10.91596 -6.57153,1.23282 -6.70315,1.16193 -3.65643,-1.96926 z m 66.11972,-32.21835 c -0.81541,-0.81541 -11.72924,4.59553 -11.72924,5.81519 0,0.44914 2.79729,-0.51732 6.21622,-2.14768 3.41893,-1.63038 5.89978,-3.28076 5.51302,-3.66751 z m -69.65916,24.53087 c 2.94106,-1.93853 5.34737,-4.31357 5.34737,-5.27785 0,-1.73095 3.09289,-5.38295 9.29574,-10.97616 3.22765,-2.9104 18.82378,-12.9075 27.59099,-17.68577 2.64133,-1.43959 10.58,-6.05384 17.64144,-10.25392 7.06144,-4.20008 13.66107,-7.36246 14.66583,-7.02755 1.00477,0.33492 -2.92334,3.27549 -8.72916,6.5346 -12.4555,6.99196 -44.95857,28.39315 -46.21869,30.43208 -0.48189,0.77971 5.74087,-2.58485 13.82835,-7.47682 20.68881,-12.51428 45.55291,-24.84656 46.61861,-23.12222 0.49415,0.79957 -6.0833,4.75741 -14.61658,8.79522 -18.61261,8.80714 -24.13067,11.93561 -48.63731,27.57492 -10.36939,6.61738 -19.59154,12.0263 -20.49368,12.01985 -0.90215,-0.007 0.76603,-1.59783 3.70709,-3.53638 z m -8.82318,-8.70819 c 5.01856,-4.62803 31.98587,-23.54734 43.21264,-30.31645 7.12861,-4.29815 12.66334,-8.11259 12.2994,-8.47656 -0.36397,-0.36394 -6.05479,2.20023 -12.64629,5.69819 -6.59149,3.49793 -12.76279,6.10046 -13.71399,5.7834 -0.95118,-0.31706 5.17777,-4.0021 13.61992,-8.18899 8.44213,-4.18687 14.77358,-6.6809 14.06989,-5.54229 -0.79391,1.28457 -0.33976,1.75695 1.19673,1.2448 1.3619,-0.45397 2.47619,-1.96172 2.47619,-3.35055 0,-1.38883 1.80474,-2.61616 4.01053,-2.72738 2.20579,-0.11123 4.01054,0.41016 4.01054,1.15866 0,0.74853 -11.43003,8.69586 -25.40005,17.66077 -13.97002,8.96492 -28.87134,19.07142 -33.11405,22.45889 -4.24273,3.38749 -8.61421,6.15908 -9.71441,6.15908 -1.24522,0 -1.36114,-0.58952 -0.30705,-1.56157 z m 7.59773,-345.453099 c 1.28671,-0.514901 2.82409,-0.451576 3.4164,0.140725 0.59229,0.592297 -0.46049,1.01358 -2.33948,0.936184 -2.07648,-0.08552 -2.49884,-0.507897 -1.07692,-1.076904 z m 38.77168,-9.99962 c 0.66937,-1.757899 1.66604,-2.747163 2.21485,-2.198365 0.5488,0.548796 0.001,1.987074 -1.21703,3.196177 -1.7604,1.747285 -1.96513,1.542546 -0.99782,-0.997812 z"
     id="path8253"
     inkscape:connector-curvature="0" />
  <path
     style="fill:none;stroke:#000000;stroke-width:1.7824589px;stroke-linecap:butt;stroke-linejoin:miter;stroke-opacity:1"
     d="m 226.85007,304.38476 6.46882,2.09286 0.19027,-8.37145 -8.56168,4.94678 z"
     id="path8823"
     inkscape:connector-curvature="0" />
</svg>
