<?xml version="1.0" encoding="UTF-8" standalone="no"?>
<!-- Created with Inkscape (http://www.inkscape.org/) -->

<svg
   xmlns:dc="http://purl.org/dc/elements/1.1/"
   xmlns:cc="http://creativecommons.org/ns#"
   xmlns:rdf="http://www.w3.org/1999/02/22-rdf-syntax-ns#"
   xmlns:svg="http://www.w3.org/2000/svg"
   xmlns="http://www.w3.org/2000/svg"
   xmlns:sodipodi="http://sodipodi.sourceforge.net/DTD/sodipodi-0.dtd"
   xmlns:inkscape="http://www.inkscape.org/namespaces/inkscape"
   id="svg9514"
   version="1.1"
   inkscape:version="0.48.4 r9939"
   width="358"
   height="285"
   sodipodi:docname="Diamond.png">
  <metadata
     id="metadata9520">
    <rdf:RDF>
      <cc:Work
         rdf:about="">
        <dc:format>image/svg+xml</dc:format>
        <dc:type
           rdf:resource="http://purl.org/dc/dcmitype/StillImage" />
        <dc:title></dc:title>
      </cc:Work>
    </rdf:RDF>
  </metadata>
  <defs
     id="defs9518" />
  <sodipodi:namedview
     pagecolor="#ffffff"
     bordercolor="#666666"
     borderopacity="1"
     objecttolerance="10"
     gridtolerance="10"
     guidetolerance="10"
     inkscape:pageopacity="0"
     inkscape:pageshadow="2"
     inkscape:window-width="1272"
     inkscape:window-height="738"
     id="namedview9516"
     showgrid="false"
     inkscape:zoom="0.58553404"
     inkscape:cx="275.61017"
     inkscape:cy="130.42373"
     inkscape:window-x="4"
     inkscape:window-y="22"
     inkscape:window-maximized="0"
     inkscape:current-layer="svg9514" />
  <path
     style="fill:#000000"
     d="m 187.21763,267.93421 c -20.19728,-15.1645 -27.6808,-20.93349 -37.2432,-28.71047 C 138.78785,230.12582 108.89431,201.51999 87.474432,179.416 60.940818,152.03496 48.216878,139.36035 38.506538,130.63796 21.717698,115.55724 6.1682982,100.06911 6.3785482,98.636547 c 0.10979,-0.748038 3.11177,-4.868329 6.6710698,-9.156201 3.55931,-4.287873 9.57929,-11.846132 13.37774,-16.796132 7.83642,-10.212134 25.53326,-29.825546 35.64016,-39.5 3.73481,-3.575 8.31634,-8.504867 10.18118,-10.95526 l 3.39063,-4.455261 17.917554,0.262771 c 9.854648,0.144524 24.217548,-0.237528 31.917548,-0.849005 15.29122,-1.214315 146.00186,-1.584222 155.16696,-0.439117 5.32468,0.665274 5.57724,0.847428 12.2471,8.832977 3.74566,4.484533 8.33482,9.496756 10.19812,11.138274 6.7928,5.984272 24.31115,26.945515 32.93197,39.404096 2.45072,3.541711 5.84969,8.447875 7.55326,10.902586 l 3.09742,4.463111 -3.76321,3.763209 c -2.06977,2.069764 -6.3886,7.575375 -9.59741,12.234685 -10.17997,14.78169 -23.01253,31.96161 -29.27821,39.19693 -3.33403,3.85 -9.17538,10.6 -12.98076,15 -7.28411,8.42229 -16.14217,18.25572 -37.60226,41.74263 -20.75405,22.71419 -35.50253,40.37185 -48.47298,58.03441 -4.675,6.3662 -9.0095,11.60822 -9.63222,11.64894 -0.62272,0.0407 -4.27878,-2.28848 -8.12458,-5.17598 z m 3.05646,-4.45841 c -1.07277,-2.08538 -4.08594,-7.84159 -6.69592,-12.79159 -2.60998,-4.95 -6.27258,-12.47298 -8.1391,-16.71773 -1.86652,-4.24475 -7.10288,-15.26975 -11.63636,-24.5 -7.82284,-15.92747 -8.65983,-17.18975 -16.43258,-24.78227 -4.50445,-4.4 -11.04871,-11.41679 -14.5428,-15.59286 -3.4941,-4.17608 -10.4029,-12.25537 -15.3529,-17.95399 -18.963648,-21.83163 -23.888078,-27.72692 -30.248828,-36.21242 -3.61128,-4.81759 -6.725124,-8.6001 -6.919654,-8.40558 -0.57358,0.57358 7.912944,25.03121 13.936754,40.16485 3.06491,7.7 6.918108,18.275 8.562668,23.5 5.75373,18.28045 8.16906,26.62601 8.16906,28.22614 0,1.66806 27.54269,28.45097 38.98689,37.91142 11.13221,9.20253 41.32615,31.88274 41.80615,31.40273 0.25142,-0.25141 -0.42061,-2.16333 -1.49338,-4.2487 z m 14.74788,-24.84108 c 1.08006,-3.87721 3.06426,-12.20221 4.40931,-18.5 1.34506,-6.29778 3.49974,-15.99701 4.78817,-21.55384 1.35402,-5.83971 1.99896,-10.69273 1.5283,-11.5 -1.10216,-1.89043 -15.15337,-39.73004 -19.8281,-53.39667 -4.9347,-14.42667 -12.02033,-31.49999 -13.07286,-31.49999 -0.45884,0 -1.12206,1.23749 -1.47381,2.74999 -0.35175,1.5125 -2.15718,8.21811 -4.01205,14.90136 -1.85488,6.68325 -4.03686,15.30958 -4.84884,19.16962 -0.81199,3.86004 -3.03802,12.34193 -4.94674,18.84864 -1.90872,6.50671 -3.75319,13.63038 -4.09883,15.83038 -1.33785,8.51556 -3.66289,17.98753 -4.54986,18.5357 -0.94175,0.58204 23.07783,51.85514 31.71565,67.70145 l 4.70707,8.63522 3.85942,-11.43618 c 2.12268,-6.28991 4.7431,-14.60846 5.82317,-18.48568 z m 5.60221,11.54949 c 9.94309,-12.80834 20.41114,-25.33495 33.7796,-40.42244 4.91114,-5.54266 9.74676,-11.00455 10.74581,-12.13755 1.86269,-2.11242 4.06036,-11.35275 9.85587,-41.44001 1.74805,-9.075 5.17227,-23.475 7.60936,-32 2.43709,-8.525 4.6697,-16.4 4.96135,-17.5 0.29165,-1.1 -2.37155,2.35974 -5.91824,7.68832 -3.54668,5.32857 -8.00131,11.62857 -9.89918,14 -3.13092,3.91215 -8.03346,10.84616 -27.78432,39.29734 -3.575,5.1498 -8.39099,11.77345 -10.7022,14.71922 -3.69146,4.70498 -4.63341,7.05299 -7.75,19.31853 -1.95129,7.67941 -3.5478,14.77033 -3.5478,15.75759 0,2.43195 -5.74151,25.75659 -7.63193,31.00441 -3.63169,10.08157 -5.23245,16.00558 -3.95149,14.62346 0.71816,-0.77488 5.32309,-6.58387 10.23317,-12.90887 z m -107.08759,-70.0582 c -5.006088,-16.47769 -6.273608,-20.09307 -13.827868,-39.4418 -3.00629,-7.7 -7.33332,-19.6466 -9.615644,-26.548 l -4.14966,-12.54799 -8.23449,-1.706641 c -10.30838,-2.136462 -18.19912,-2.158846 -26.09015,-0.074 -7.43386,1.964051 -11.65623,1.938981 -15.58474,-0.0925 -3.18063,-1.64477 -17.0596098,-2.188894 -17.0596098,-0.668819 0,1.14438 19.9315698,20.39787 38.1565298,36.85844 8.05064,7.27124 18.84637,17.84002 23.9905,23.48616 5.14414,5.64615 12.659954,13.64695 16.701824,17.77956 l 7.34884,7.51383 -7.3065,-9.5 c -4.01858,-5.225 -8.903044,-11.35087 -10.854364,-13.61304 -1.95132,-2.26217 -6.24538,-8.22171 -9.54234,-13.24342 -6.73182,-10.25344 -25.31146,-37.22804 -28.44789,-41.3017 -2.32907,-3.02504 -2.62577,-4.84183 -0.79071,-4.84183 0.69074,0 1.81974,1.23749 2.50889,2.74999 0.68914,1.5125 5.63649,8.94169 10.99411,16.5093 5.35761,7.56762 12.39985,17.84641 15.64941,22.84177 3.24957,4.99536 9.55359,13.65368 14.00895,19.2407 4.455354,5.58703 9.288244,11.73323 10.739764,13.65823 1.45151,1.925 3.47249,4.4 4.49105,5.5 1.01857,1.1 3.821428,4.38051 6.228568,7.29003 2.40715,2.90952 4.53334,5.13333 4.72487,4.9418 0.19153,-0.19153 -1.62617,-6.84704 -4.03934,-14.79003 z m 57.40205,-3.6601 c 1.12867,-5.92994 3.39153,-15.2817 5.02859,-20.7817 1.63707,-5.5 3.65541,-13.15 4.48521,-17 0.8298,-3.85 2.67402,-11.05 4.09826,-16 3.55511,-12.3559 5.38957,-19.69454 5.40811,-21.63477 0.0217,-2.270451 -7.65628,-3.1256 -27.10066,-3.018393 -10.71339,0.05907 -16.9926,0.539504 -20,1.530242 -2.41105,0.794271 -6.29622,1.748921 -8.63372,2.121431 -2.3375,0.37251 -4.25,1.01052 -4.25,1.41781 0,1.20255 10.97764,25.30693 13.06321,28.68379 1.05305,1.70507 3.45798,7.33007 5.34428,12.5 3.21678,8.81651 8.70928,22.62138 15.84348,39.8211 3.60735,8.69689 3.60293,8.70192 6.71324,-7.63951 z m 116.15188,-2.4384 c 7.36115,-8.33619 16.46463,-18.57369 20.22995,-22.75 6.30428,-6.99239 15.71073,-19.15906 28.19514,-36.46871 2.72735,-3.78147 7.54632,-10.42149 10.70882,-14.75559 3.1625,-4.334116 5.75004,-7.990183 5.75009,-8.124601 3.3e-4,-0.86786 -15.29695,1.233855 -18.87582,2.593376 -2.40665,0.914226 -5.35103,1.662229 -6.54308,1.662229 -1.77542,0 -3.56666,2.667263 -9.90558,14.749996 -4.25602,8.1125 -9.472,17.675 -11.59105,21.25 -19.65694,33.16273 -32.90841,57 -31.68709,57 0.18409,0 6.35746,-6.82052 13.71862,-15.1567 z m -7.99657,-0.62215 c 6.34113,-11.59343 13.84698,-24.60595 20.893,-36.22115 6.12637,-10.09918 10.63449,-18.18891 12.72576,-22.83611 1.40183,-3.11514 4.12737,-8.25822 6.05675,-11.42905 1.92938,-3.170851 3.2406,-6.032535 2.91383,-6.359312 -0.32678,-0.326777 -4.05019,-1.24671 -8.27426,-2.044296 -6.84582,-1.292626 -8.10349,-1.280752 -11.57759,0.109309 -2.14362,0.857704 -4.95224,1.559463 -6.24139,1.559463 -2.85823,0 -4.02072,2.786285 -9.17879,21.999996 -6.86457,25.57039 -9.4435,36.54087 -11.98902,51 -1.40399,7.975 -2.78443,15.4 -3.06764,16.5 -0.53134,2.06376 2.68948,-3.04623 7.73935,-12.27885 z m -118.56365,7.02885 c -1.26254,-3.1625 -5.29833,-13.4 -8.96843,-22.75 -3.6701,-9.35 -9.75409,-23.525 -13.51999,-31.5 -3.76589,-7.975 -7.65799,-16.56099 -8.6491,-19.07997 -1.74245,-4.42854 -2.03539,-4.65183 -8.86019,-6.75348 -7.42888,-2.287685 -18.022828,-3.380454 -20.558158,-2.120585 -0.825,0.409965 -3.60943,1.354834 -6.18762,2.099715 l -4.687624,1.35433 2.86043,3.49999 c 1.573234,1.925 6.813554,8.45 11.645154,14.5 4.8316,6.05 14.878828,17.98439 22.327188,26.52086 7.44836,8.53647 15.78975,18.21147 18.53643,21.5 3.91909,4.69222 17.32159,18.29035 18.18173,18.44712 0.0966,0.0176 -0.85729,-2.55548 -2.11982,-5.71798 z m 75.00392,-26.75 c 2.95726,-10.45 6.49147,-23.725 7.85381,-29.5 1.36233,-5.775 3.61215,-13.85194 4.9996,-17.94875 1.38745,-4.09681 2.32429,-7.647086 2.08188,-7.889504 -0.24242,-0.242417 -3.94048,-1.137264 -8.21792,-1.988548 -11.56692,-2.302018 -23.27976,-1.850353 -36.19592,1.39577 l -10.92776,2.746392 1.98419,5.09232 c 1.0913,2.80077 3.28906,8.01732 4.88391,11.59232 1.59485,3.575 4.89317,12.35 7.3296,19.5 2.43643,7.15 5.41041,15.475 6.60884,18.5 1.19843,3.025 3.68242,9.55 5.51998,14.5 1.83756,4.95 3.89426,10.35 4.57045,12 l 1.22944,3 1.45153,-6 c 0.79834,-3.3 3.87111,-14.55 6.82837,-25 z m 7.54972,12 c 3.82335,-5.5 11.01902,-15.80809 15.99038,-22.90687 4.97136,-7.09878 10.28321,-15.08569 11.80412,-17.74869 1.5209,-2.663 3.06469,-4.54241 3.43063,-4.17646 0.36595,0.36594 0.66536,-0.0371 0.66536,-0.89556 0,-0.8585 1.2375,-2.88842 2.75,-4.51093 1.5125,-1.62251 5.14456,-6.5076 8.07125,-10.85575 5.08977,-7.561814 5.22028,-7.917276 3,-8.171009 -1.27669,-0.1459 -6.39988,-0.959893 -11.38487,-1.808872 -8.73792,-1.48813 -9.25132,-1.469614 -14.28702,0.515273 -2.87287,1.13238 -6.25806,2.058872 -7.52265,2.058872 -2.06975,0 -2.64896,1.172797 -5.80291,11.749996 -1.92701,6.4625 -4.69788,16.475 -6.15747,22.25 -1.4596,5.775 -4.48298,17.025 -6.71863,25 -2.23565,7.975 -4.68613,17.2 -5.44552,20.5 l -1.38071,6 3.01824,-3.5 c 1.66004,-1.925 6.14645,-8 9.9698,-13.5 z M 130.58569,98.381887 c 1.31492,-0.735866 0.67778,-1.251916 -3.16029,-2.559679 -5.66618,-1.930661 -11.58889,-1.994774 -16.45097,-0.178081 l -3.5,1.307758 2.5,0.972583 c 1.375,0.534921 3.175,1.255831 4,1.602011 2.04691,0.858931 14.57352,-0.004 16.61126,-1.144592 z m -88.725052,-0.574656 3.3862,-1.224826 -4.19684,-1.257405 c -3.23628,-0.969613 -5.44179,-0.998955 -9.63621,-0.128197 -8.23253,1.709067 -6.88148,3.711562 2.56064,3.795332 2.475,0.02196 6.0238,-0.511249 7.88621,-1.184904 z m 42.581564,0.05057 4.96776,-1.287834 -6.12364,-1.718206 c -4.917274,-1.379715 -7.077944,-1.514712 -10.967764,-0.685256 -10.36505,2.210216 -10.32134,2.178291 -4.84413,3.538459 6.68199,1.659355 11.0062,1.698305 16.967774,0.152838 z M 193.12466,96.581853 c 9.67957,-2.201571 7.60399,-3.538697 -5.78876,-3.729227 -7.99582,-0.113752 -11.88591,0.270207 -14.74433,1.45529 l -3.88286,1.60981 5.88286,1.004888 c 8.60714,1.47024 10.74343,1.430961 18.53309,-0.340761 z m -164.150232,-2.751262 8.5,-2.322565 2.67606,-7.411906 c 1.47184,-4.076548 3.87281,-12.586906 5.33549,-18.911906 1.46269,-6.325 2.89703,-12.4 3.18744,-13.5 1.03956,-3.937709 -22.99457,24.075369 -36.57096,42.625411 -1.29134,1.764419 -1.08564,1.873676 3.5,1.85906 2.67959,-0.0085 8.69697,-1.060683 13.37197,-2.338094 z M 166.14187,94.15246 c 8.17437,-1.550238 8.61117,-2.183515 4.01625,-5.82276 -4.19583,-3.323158 -27.09439,-27.492773 -33.28377,-35.131284 -3.5404,-4.369316 -3.61989,-4.40596 -4.79498,-2.210291 -0.65719,1.227976 -2.75476,9.986949 -4.66126,19.464386 -1.90651,9.477437 -3.67762,18.175575 -3.9358,19.329197 -0.40573,1.81287 0.30822,2.319955 5.26134,3.736894 3.15193,0.901669 6.85578,1.832867 8.23078,2.069326 3.66009,0.629429 23.40263,-0.342195 29.16744,-1.435468 z m 84.81664,-0.178126 c 3.03981,-0.959499 3.23108,-1.19854 1.5,-1.874639 -3.18688,-1.244681 -13.56315,-0.989958 -18.98408,0.466033 l -5,1.342934 3.5,0.618083 c 8.94664,1.579935 12.56182,1.474739 18.98408,-0.552411 z M 65.577008,93.699511 c 3.13509,-0.816587 5.80789,-1.604087 5.93956,-1.75 0.35498,-0.393393 -19.35953,-40.765297 -19.90661,-40.765297 -0.25738,0 -1.61279,4.8375 -3.01202,10.75 -1.39923,5.9125 -3.85998,14.9125 -5.46834,20 -1.60835,5.0875 -2.49967,9.25 -1.9807,9.25 0.51896,0 0.67597,0.432978 0.34891,0.962173 -1.74024,2.815763 15.06904,3.899972 24.0792,1.553124 z m 48.665562,-0.978047 c 5.8275,-1.578754 6.84504,-2.195188 7.32153,-4.435418 2.97663,-13.994812 7.15763,-36.574965 6.84166,-36.949488 -0.4522,-0.535988 -13.85499,10.269112 -24.54479,19.787583 -5.287398,4.70804 -12.685578,11.252182 -16.440388,14.542537 l -6.826934,5.982464 5.440394,1.741039 c 6.81699,2.181577 18.729948,1.899166 28.208528,-0.668717 z m 177.2781,0.05259 c 1.81091,-1.324164 1.702,-1.452648 -1.78593,-2.106988 -4.86084,-0.911898 -22.67732,1.642414 -18.26031,2.617943 5.79935,1.280829 18.02189,0.969292 20.04624,-0.510955 z m 30.95376,0.026 c 2.92028,-1.25957 2.93992,-1.3134 0.73894,-2.025793 -1.24358,-0.402513 -5.74358,-0.163975 -10,0.530083 -6.0151,0.980831 -7.18207,1.419918 -5.23894,1.971217 4.0601,1.151921 11.27544,0.915304 14.5,-0.475507 z m -89.25,-2.291344 c 3.7125,-0.877198 6.75,-1.905615 6.75,-2.28537 0,-0.379755 -1.125,-3.910462 -2.5,-7.846014 -1.375,-3.935552 -2.5,-7.989001 -2.5,-9.007664 0,-1.018662 -0.31302,-2.165139 -0.69561,-2.547725 -0.38259,-0.382586 -0.78071,-1.245086 -0.88471,-1.916666 -0.22054,-1.424036 -4.59655,-16.086958 -4.9246,-16.501096 -0.122,-0.154022 -9.31996,8.700409 -20.4399,19.676513 l -20.21808,19.956553 4.83145,0.605612 c 2.6573,0.333087 6.63145,1.014455 8.83145,1.514151 5.44917,1.237696 23.50241,0.300466 31.75,-1.648294 z M 85.188282,84.934214 c 3.88695,-3.4375 10.04145,-8.964861 13.67667,-12.283024 3.635208,-3.318163 11.929798,-10.454394 18.432418,-15.85829 6.50262,-5.403897 12.07117,-10.472155 12.37457,-11.262796 0.3386,-0.88237 -2.10999,-4.219704 -6.34038,-8.641709 -3.7906,-3.9623 -8.68416,-9.31008 -10.87457,-11.883957 l -3.98256,-4.679777 -27.000002,13.481703 c -14.85,7.414936 -27.33788,13.818714 -27.75084,14.230618 -0.41296,0.411904 4.004,10.288537 9.81547,21.948074 8.49916,17.051838 10.95912,21.199158 12.57417,21.199158 1.10432,0 5.18809,-2.8125 9.075054,-6.25 z m 188.539008,4.830473 c 0.25273,-0.25273 -1.51734,-2.399226 -3.93349,-4.769991 -28.13898,-27.610385 -38.24399,-37.036613 -38.5902,-35.99798 -0.22671,0.68012 1.00824,5.838038 2.74433,11.46204 1.7361,5.624002 4.26598,13.825458 5.62197,18.225458 1.356,4.4 2.45174,8.589058 2.43499,9.309017 -0.0168,0.719959 0.35109,1.073208 0.81742,0.784997 0.46634,-0.28821 3.95384,0.122231 7.75,0.912092 6.22489,1.295202 21.88385,1.345493 23.15498,0.07437 z m 38.00188,-0.200229 c 7.45605,-1.27093 10.30735,-1.378609 13.23989,-0.5 4.11209,1.232012 12.48804,1.38087 15.29679,0.271855 1.53703,-0.606886 0.401,-2.637568 -8,-14.300144 -5.38528,-7.476048 -12.22563,-16.238621 -15.20078,-19.472385 l -5.40937,-5.87957 0.58133,9.5 c 0.31973,5.225 1.31443,13.010628 2.21044,17.301395 0.89601,4.290768 1.30795,8.790768 0.91542,10 -0.90505,2.788148 -3.98263,-12.195763 -4.88861,-23.801395 -1.04901,-13.437957 -1.09948,-13.522702 -4.68592,-7.868744 -5.58874,8.810554 -19.04054,32.475469 -18.67037,32.845635 0.58427,0.584277 11.18121,3.332893 13.23257,3.432244 1.03188,0.04998 6.15225,-0.638025 11.37861,-1.528891 z m -119.3899,-7.100207 c 24.72128,-23.459568 34.63516,-33.827641 34.63516,-36.221936 0,-0.905973 -21.01456,-15.758071 -23.66475,-16.725129 -1.00939,-0.368327 -3.63525,-1.882344 -5.83525,-3.364483 -6.85186,-4.616094 -12.55284,-7.163901 -13.8262,-6.179022 -0.64559,0.499327 -4.5488,2.303216 -8.6738,4.008642 -4.125,1.705426 -13.99976,6.048526 -21.94392,9.651333 -7.94415,3.602807 -14.5701,6.550558 -14.72432,6.550558 -0.36365,0 -3.33176,5.734305 -3.33176,6.436875 0,1.616864 17.77263,21.441868 30.76087,34.313125 9.03546,8.954078 9.48019,9.25 13.90144,9.25 4.32621,0 4.99689,-0.407609 12.70253,-7.719963 z m 89.82006,5.821576 c 1.45666,-0.565266 4.3545,-4.473025 7.8151,-10.538746 3.025,-5.302197 7.88564,-13.513088 10.80142,-18.246424 2.91578,-4.733336 5.09534,-9.143111 4.84345,-9.799501 -0.25188,-0.656389 -3.98751,-3.362485 -8.30141,-6.013545 -4.31391,-2.65106 -12.34346,-8.146581 -17.84346,-12.212269 -5.5,-4.065688 -12.33453,-8.712558 -15.18785,-10.326379 l -5.18786,-2.934219 -6.9426,6.234735 c -3.81843,3.429104 -10.16754,9.096307 -14.10913,12.593783 -3.94159,3.497477 -7.03289,6.692304 -6.86954,7.099615 0.69149,1.724324 46.30748,45.041337 47.43183,45.041337 0.67922,0 2.27675,-0.404274 3.55005,-0.898387 z M 300.3199,36.862389 c -4.32799,-4.497996 -9.43876,-10.131139 -11.35727,-12.518095 -3.90307,-4.85609 -7.65453,-6.085269 -18.4882,-6.057722 -5.03734,0.01281 -5.69653,0.206375 -4.10857,1.206449 1.04029,0.655156 6.83103,4.8553 12.86831,9.333653 13.00814,9.649222 28.0946,18.760808 28.59754,17.27171 0.1965,-0.581801 -3.18381,-4.737999 -7.51181,-9.235995 z m -215.845468,-6.976604 18.999998,-9.595132 -13.735808,-0.05322 -13.735814,-0.05322 -2.48961,3.75 c -1.36928,2.0625 -6.10067,7.064124 -10.51419,11.114721 -4.41351,4.050596 -8.02458,7.757422 -8.02458,8.23739 0,1.158627 6.6705,-1.871484 29.500004,-13.40054 z M 231.44956,40.862522 c 0.83667,-1.276931 3.6935,-4.089431 6.3485,-6.25 2.65501,-2.16057 7.89591,-6.740808 11.64645,-10.178308 l 6.81917,-6.25 -33.8358,0 -33.83579,0 5.94117,3.619264 c 3.26764,1.990595 7.96617,4.758996 10.44117,6.152003 2.475,1.393007 8.50749,5.389338 13.40554,8.880736 4.89805,3.491398 9.50018,6.347997 10.22695,6.347997 0.72677,0 2.00596,-1.044762 2.84264,-2.321692 z m -93.70228,-2.124485 c 3.23401,-1.895397 8.09562,-4.324677 10.80358,-5.398399 4.39974,-1.744521 24.95829,-10.89542 31.42357,-13.98707 1.97361,-0.943764 -3.71145,-1.078736 -27,-0.64102 -16.225,0.304955 -32.11425,0.873559 -35.30945,1.263565 l -5.80945,0.709101 4.57855,5.354029 c 4.82582,5.643186 14.68451,16.145971 15.1558,16.145971 0.15257,0 2.9234,-1.55078 6.1574,-3.446177 z"
     id="path9524"
     inkscape:connector-curvature="0" />
  <path
     style="fill:#14b8cb;fill-opacity:0.46842107;stroke:none"
     d="m 75.998998,18.576547 c 68.882992,-0.353025 137.765972,-3.234101 206.648962,0 26.94351,21.974977 41.72011,47.600026 61.48233,71.729391 C 301.7053,152.92232 244.91168,210.74915 193.84014,270.48334 136.68069,233.12392 70.742368,160.649 7.6852919,99.699072 26.005761,70.114935 52.622726,45.271654 75.998998,18.576547 z"
     id="path9526"
     inkscape:connector-curvature="0"
     sodipodi:nodetypes="cccccc" />
</svg>
