<?xml version="1.0" encoding="UTF-8" standalone="no"?>
<!-- Created with Inkscape (http://www.inkscape.org/) -->

<svg
   xmlns:dc="http://purl.org/dc/elements/1.1/"
   xmlns:cc="http://creativecommons.org/ns#"
   xmlns:rdf="http://www.w3.org/1999/02/22-rdf-syntax-ns#"
   xmlns:svg="http://www.w3.org/2000/svg"
   xmlns="http://www.w3.org/2000/svg"
   xmlns:sodipodi="http://sodipodi.sourceforge.net/DTD/sodipodi-0.dtd"
   xmlns:inkscape="http://www.inkscape.org/namespaces/inkscape"
   id="svg9514"
   version="1.1"
   inkscape:version="0.48.4 r9939"
   width="485.45944"
   height="366.71036"
   sodipodi:docname="Diamond.svg">
  <metadata
     id="metadata9520">
    <rdf:RDF>
      <cc:Work
         rdf:about="">
        <dc:format>image/svg+xml</dc:format>
        <dc:type
           rdf:resource="http://purl.org/dc/dcmitype/StillImage" />
        <dc:title />
      </cc:Work>
    </rdf:RDF>
  </metadata>
  <defs
     id="defs9518" />
  <sodipodi:namedview
     pagecolor="#ffffff"
     bordercolor="#666666"
     borderopacity="1"
     objecttolerance="10"
     gridtolerance="10"
     guidetolerance="10"
     inkscape:pageopacity="0"
     inkscape:pageshadow="2"
     inkscape:window-width="1272"
     inkscape:window-height="738"
     id="namedview9516"
     showgrid="false"
     inkscape:zoom="0.58553404"
     inkscape:cx="269.23373"
     inkscape:cy="228.19161"
     inkscape:window-x="1"
     inkscape:window-y="22"
     inkscape:window-maximized="0"
     inkscape:current-layer="svg9514"
     fit-margin-top="0"
     fit-margin-left="0"
     fit-margin-right="0"
     fit-margin-bottom="0" />
  <path
     style="fill:#000000"
     d="M 257.98682,359.32559 C 229.17352,337.69202 218.49758,329.46201 204.85593,318.36743 188.89723,305.3884 146.2513,264.57951 115.69385,233.04611 77.841174,193.9845 59.689287,175.90299 45.836581,163.45968 21.885735,141.94563 -0.29693398,119.85037 0.00300732,117.80668 0.15963302,116.73954 4.4422378,110.86156 9.5199108,104.74451 14.597598,98.627461 23.185661,87.844901 28.604504,80.783262 39.783888,66.2147 65.030081,38.234339 79.448517,24.432828 84.776571,19.332757 91.312551,12.299842 93.97292,8.8041284 l 4.83705,-6.355846 25.56106,0.374868 c 14.05858,0.206177 34.54859,-0.338856 45.53336,-1.211185 21.81435,-1.73233401 208.28527,-2.26004101 221.36014,-0.62644101 7.59615,0.94907501 7.95645,1.20893501 17.47163,12.60106461 5.34353,6.397605 11.8904,13.548008 14.54857,15.889787 9.69056,8.537122 34.68212,38.44029 46.98053,56.213615 3.49618,5.05258 8.34512,12.05168 10.77543,15.553559 l 4.41875,6.36704 -5.36857,5.36857 c -2.95272,2.95271 -9.11393,10.80698 -13.6916,17.45392 -14.52267,21.08746 -32.82952,45.59622 -41.76809,55.91808 -4.75631,5.49238 -13.08954,15.12188 -18.51827,21.3989 -10.39146,12.01518 -23.02831,26.04348 -53.64313,59.54975 -29.60759,32.40391 -50.64767,57.59421 -69.15123,82.7915 -6.66932,9.08198 -12.85289,16.56021 -13.74126,16.6183 -0.88836,0.0581 -6.10407,-3.26473 -11.59047,-7.38402 z m 4.36033,-6.36034 c -1.53041,-2.97499 -5.82898,-11.18676 -9.55236,-18.24839 -3.72338,-7.06164 -8.94842,-17.79387 -11.61118,-23.84941 -2.66277,-6.05553 -10.13292,-21.78372 -16.60035,-34.95153 -11.16001,-22.72202 -12.35406,-24.52278 -23.44261,-35.35422 -6.42602,-6.27701 -15.76202,-16.28712 -20.74666,-22.24467 -4.98466,-5.95757 -14.84071,-17.48343 -21.90235,-25.61304 -27.05341,-31.14486 -34.07857,-39.55504 -43.15277,-51.66039 -5.15183,-6.87275 -9.59402,-12.26885 -9.87153,-11.99135 -0.81827,0.81827 11.28855,35.70936 19.88208,57.29891 4.37238,10.98476 9.86932,26.07099 12.21544,33.52494 8.20823,26.07876 11.65393,37.98448 11.65393,40.26722 0,2.37964 39.29221,40.58796 55.61843,54.08418 15.88114,13.12826 58.95561,45.4837 59.64037,44.79892 0.35868,-0.35866 -0.60004,-3.08619 -2.13044,-6.06117 z m 21.03922,-35.43812 c 1.54081,-5.5312 4.37146,-17.40759 6.2903,-26.39197 1.91885,-8.98437 4.9927,-22.82123 6.83077,-30.74856 1.93163,-8.33089 2.8517,-15.25418 2.18026,-16.40583 -1.57233,-2.69687 -21.6177,-56.6786 -28.28663,-76.17533 -7.03981,-20.58099 -17.14813,-44.93767 -18.64966,-44.93767 -0.65458,0 -1.60072,1.7654 -2.10253,3.92312 -0.5018,2.15772 -3.07741,11.7239 -5.72356,21.25818 -2.64616,9.53428 -5.75896,21.84054 -6.91732,27.34725 -1.15838,5.50671 -4.33402,17.60691 -7.05699,26.88934 -2.72296,9.28243 -5.35427,19.44501 -5.84736,22.58351 -1.90857,12.14825 -5.22545,25.66089 -6.4908,26.44291 -1.34349,0.83033 32.92268,73.97619 45.24533,96.58243 l 6.71508,12.31895 5.50582,-16.31478 c 3.0282,-8.97314 6.76647,-20.84033 8.30729,-26.37155 z m 7.99208,16.47643 c 14.18474,-18.27229 29.11839,-36.14267 48.18975,-57.66638 7.0062,-7.90712 13.90466,-15.69902 15.3299,-17.31535 2.6573,-3.01356 5.79248,-16.19576 14.06032,-59.11804 2.49375,-12.94633 7.37872,-33.48927 10.85546,-45.65098 3.47674,-12.16171 6.66176,-23.39613 7.07783,-24.96538 0.41606,-1.56926 -3.38324,3.36639 -8.44292,10.9681 -5.05967,7.6017 -11.41462,16.58924 -14.12211,19.97231 -4.46655,5.58104 -11.46048,15.47306 -39.63692,56.06132 -5.10007,7.34667 -11.97053,16.79592 -15.26769,20.99834 -5.26621,6.71209 -6.60999,10.06175 -11.0561,27.55968 -2.78369,10.9554 -5.06126,21.07126 -5.06126,22.47967 0,3.46941 -8.1908,36.74418 -10.88766,44.23069 -5.18095,14.3823 -7.46458,22.83345 -5.63717,20.86173 1.02452,-1.10544 7.59388,-9.39251 14.59857,-18.41571 z M 138.60802,234.059 c -7.14166,-23.50696 -8.94989,-28.66464 -19.72675,-56.2674 -4.28875,-10.98477 -10.46166,-28.02771 -13.71761,-37.8732 l -5.91988,-17.90088 -11.747266,-2.43468 c -14.705865,-3.04786 -25.962742,-3.0798 -37.220032,-0.10557 -10.605095,2.8019 -16.628699,2.76614 -22.233085,-0.13196 -4.537466,-2.34642 -24.3371252,-3.12266 -24.3371252,-0.95413 0,1.63256 28.4342442,29.09946 54.4338492,52.582 11.484989,10.3731 26.886104,25.45045 34.224685,33.5052 7.338594,8.05476 18.060604,19.46864 23.826714,25.3642 l 10.4838,10.71918 -10.4234,-13.55264 c -5.73288,-7.45395 -12.70102,-16.19307 -15.48476,-19.42027 -2.78374,-3.2272 -8.909622,-11.72904 -13.613043,-18.89297 -9.603569,-14.62749 -36.109158,-53.10927 -40.583568,-58.92073 -3.322635,-4.3155 -3.745906,-6.90732 -1.128021,-6.90732 0.985405,0 2.596029,1.76539 3.579165,3.92311 0.983123,2.15773 8.040979,12.75616 15.684124,23.55206 7.64313,10.79592 17.689542,25.45957 22.325342,32.58592 4.635815,7.12634 13.629091,19.47824 19.985071,27.44865 6.35598,7.97042 13.25055,16.73855 15.32128,19.48474 2.07071,2.74619 4.95383,6.27701 6.4069,7.84626 1.45308,1.56925 5.45162,6.24921 8.88563,10.39991 3.43403,4.1507 6.46724,7.32317 6.74047,7.04994 0.27324,-0.27324 -2.31988,-9.76794 -5.76249,-21.09936 z m 81.88937,-5.22147 c 1.61016,-8.45961 4.83834,-21.80077 7.17376,-29.64703 2.33543,-7.84627 5.21478,-18.75971 6.39857,-24.25209 1.18378,-5.49238 3.81474,-15.76386 5.84655,-22.82549 5.07169,-17.62685 7.68872,-28.0961 7.71517,-30.86402 0.031,-3.23901 -10.9224,-4.45896 -38.66162,-4.30602 -15.28365,0.0843 -24.24153,0.76965 -28.53186,2.18303 -3.43959,1.13311 -8.98215,2.495 -12.31681,3.02642 -3.33466,0.53142 -6.06302,1.4416 -6.06302,2.02264 0,1.71555 15.66062,36.1027 18.63588,40.9201 1.50228,2.43245 4.93314,10.45703 7.62412,17.83242 4.58904,12.57757 12.4246,32.27151 22.6022,56.80851 5.14622,12.40693 5.13992,12.4141 9.57706,-10.89847 z m 165.70149,-3.47861 c 10.50137,-11.89235 23.48833,-26.4971 28.85991,-32.45499 8.99365,-9.9753 22.41282,-27.33219 40.223,-52.02602 3.89082,-5.39462 10.76553,-14.86723 15.27713,-21.05022 4.5116,-6.18302 8.20297,-11.39875 8.20304,-11.59051 4.7e-4,-1.23808 -21.82253,1.76021 -26.92812,3.6997 -3.43331,1.30423 -7.63374,2.37132 -9.33431,2.37132 -2.5328,0 -5.08817,3.8051 -14.13124,21.04225 -6.0716,11.57324 -13.51269,25.21503 -16.53571,30.3151 -28.04246,47.30973 -46.94692,81.31582 -45.20459,81.31582 0.26262,0 9.06951,-9.73011 19.57089,-21.62245 z m -11.40785,-0.88755 c 9.04621,-16.53911 19.75401,-35.10268 29.80581,-51.67285 8.73984,-14.40742 15.17109,-25.94818 18.15449,-32.57784 1.99984,-4.44404 5.88807,-11.78112 8.64051,-16.30461 2.75245,-4.52351 4.62302,-8.60597 4.15686,-9.07215 -0.46619,-0.46618 -5.77798,-1.77855 -11.80401,-2.91638 -9.7662,-1.84405 -11.56038,-1.82711 -16.51651,0.15594 -3.05807,1.2236 -7.06483,2.22472 -8.90393,2.22472 -4.07753,0 -5.73593,3.9749 -13.0944,31.38505 -9.79294,36.47854 -13.47203,52.12896 -17.10345,72.75625 -2.00292,11.37709 -3.97225,21.96954 -4.37627,23.53879 -0.75801,2.94415 3.83679,-4.34573 11.0409,-17.51692 z m -169.1421,10.02731 c -1.80114,-4.5116 -7.55857,-19.11635 -12.79431,-32.455 -5.23574,-13.33864 -13.91512,-33.5606 -19.28752,-44.93769 -5.3724,-11.37708 -10.92484,-23.62579 -12.33875,-27.21935 -2.48577,-6.31773 -2.90367,-6.63627 -12.63989,-9.63447 -10.59799,-3.2636 -25.71124,-4.82253 -29.32813,-3.02521 -1.17694,0.58485 -5.14919,1.93279 -8.82721,2.99544 l -6.68734,1.93207 4.08067,4.99307 c 2.24437,2.74619 9.72017,12.05471 16.6129,20.6856 6.89273,8.63089 21.22604,25.65641 31.85182,37.83448 10.62578,12.17807 22.52555,25.98036 26.44394,30.67175 5.59095,6.69389 24.71087,26.09289 25.93794,26.31654 0.13781,0.0251 -1.22301,-3.64563 -3.02412,-8.15723 z m 107.00008,-38.16137 c 4.21881,-14.9079 9.26069,-33.84593 11.20419,-42.0845 1.9435,-8.23858 5.15307,-19.76109 7.1324,-25.60557 1.97933,-5.84448 3.31582,-10.90928 2.97,-11.25511 -0.34584,-0.34583 -5.62147,-1.62241 -11.72363,-2.83685 -16.50129,-3.28404 -33.21075,-2.6397 -51.63686,1.9912 l -15.58947,3.91798 2.83063,7.26467 c 1.55685,3.99556 4.69216,11.43745 6.96736,16.53753 2.2752,5.10007 6.98056,17.61842 10.45636,27.81856 3.47579,10.20015 7.71845,22.07653 9.42812,26.39198 1.70967,4.31544 5.25332,13.62396 7.87477,20.6856 2.62145,7.06164 5.55552,14.76524 6.52017,17.11912 l 1.75391,4.27978 2.07075,-8.55956 c 1.1389,-4.70776 5.5225,-20.75693 9.7413,-35.66483 z m 10.77038,17.11912 c 5.45437,-7.84626 15.71966,-22.55172 22.81177,-32.67879 7.09211,-10.12707 14.66996,-21.52114 16.83968,-25.32016 2.1697,-3.79902 4.37206,-6.48017 4.89411,-5.95811 0.52206,0.52205 0.9492,-0.0529 0.9492,-1.2776 0,-1.22473 1.76541,-4.1206 3.92313,-6.43526 2.15772,-2.31466 7.3392,-9.2837 11.51439,-15.48674 7.26103,-10.78763 7.44722,-11.29473 4.27978,-11.65671 -1.82131,-0.20814 -9.13002,-1.36937 -16.24158,-2.58052 -12.46545,-2.12296 -13.19787,-2.09654 -20.38176,0.73508 -4.09842,1.61545 -8.92771,2.93718 -10.73176,2.93718 -2.9527,0 -3.77899,1.6731 -8.2784,16.76246 -2.74906,9.21936 -6.70196,23.50312 -8.7842,31.7417 -2.08226,8.23858 -6.39539,24.28775 -9.58475,35.66483 -3.18937,11.37708 -6.68521,24.53741 -7.76855,29.24516 l -1.96971,8.55956 4.3058,-4.99307 c 2.3682,-2.74619 8.76849,-11.41275 14.22285,-19.25901 z M 177.19608,117.44339 c 1.87586,-1.04978 0.96692,-1.78598 -4.50845,-3.65162 -8.08333,-2.75427 -16.53263,-2.84573 -23.46884,-0.25405 l -4.99308,1.86564 3.56648,1.38748 c 1.96157,0.76311 4.52944,1.79156 5.70638,2.28542 2.92011,1.22534 20.79048,-0.006 23.69751,-1.63287 z m -126.574562,-0.8198 4.83073,-1.74733 -5.987184,-1.79381 c -4.616855,-1.38324 -7.763221,-1.4251 -13.746952,-0.18288 -11.744472,2.43814 -9.817073,5.29489 3.652992,5.41439 3.530818,0.0313 8.593512,-0.72934 11.250414,-1.69037 z m 60.746572,0.0721 7.08697,-1.83722 -8.73594,-2.45118 c -7.01495,-1.96829 -10.09735,-2.16087 -15.64654,-0.97758 -14.786709,3.15308 -14.724353,3.10754 -6.910602,5.04794 9.532482,2.36723 15.701372,2.42279 24.206112,0.21804 z m 155.04566,-1.82026 c 13.80881,-3.14074 10.8478,-5.04828 -8.2582,-5.32009 -11.40679,-0.16228 -16.95636,0.38548 -21.03417,2.07611 l -5.53926,2.29654 8.39245,1.43357 c 12.27889,2.09743 15.32651,2.0414 26.43918,-0.48613 z M 32.238137,110.95054 44.36418,107.63718 48.181829,97.063411 c 2.099717,-5.81558 5.524925,-17.956396 7.611574,-26.979599 2.086664,-9.023202 4.132884,-17.689756 4.547181,-19.259009 1.483029,-5.617509 -32.803899,34.345758 -52.1718852,60.809127 -1.842217,2.5171 -1.548767,2.67297 4.9930762,2.65212 3.822685,-0.0121 12.407039,-1.51316 19.076362,-3.33551 z m 195.682153,0.45918 c 11.6615,-2.21156 12.28463,-3.11499 5.72955,-8.30671 -5.98574,-4.740799 -38.65267,-39.221008 -47.4824,-50.118056 -5.05071,-6.233237 -5.16411,-6.285513 -6.84049,-3.153187 -0.93754,1.751823 -3.92992,14.247314 -6.64972,27.767762 -2.71981,13.520452 -5.24647,25.929151 -5.61478,27.574901 -0.57882,2.58623 0.4397,3.30963 7.50579,5.33103 4.49652,1.28631 9.78041,2.61475 11.74197,2.95208 5.22146,0.89794 33.38604,-0.48817 41.61008,-2.04782 z m 120.99884,-0.25412 c 4.33658,-1.36881 4.60944,-1.70983 2.13989,-2.67434 -4.54638,-1.77566 -19.3491,-1.41227 -27.08256,0.66483 l -7.13296,1.91583 4.99307,0.88175 c 12.76322,2.25392 17.92061,2.10385 27.08256,-0.78807 z M 84.455131,110.76354 c 4.472499,-1.16494 8.285497,-2.28838 8.473337,-2.49654 0.506412,-0.56121 -27.618175,-58.155493 -28.398636,-58.155493 -0.367177,0 -2.300795,6.901144 -4.296927,15.335877 -1.996133,8.434733 -5.506622,21.274077 -7.801097,28.531867 -2.294462,7.257789 -3.566013,13.195989 -2.825654,13.195989 0.740345,0 0.964334,0.61768 0.497753,1.37263 -2.482615,4.01694 21.497391,5.56367 34.351224,2.21567 z m 69.425959,-1.39527 c 8.31348,-2.25224 9.76509,-3.13164 10.44485,-6.32754 4.24644,-19.964904 10.21103,-52.177599 9.76027,-52.711891 -0.64511,-0.764636 -19.76544,14.649846 -35.01544,28.228833 -7.54296,6.716459 -18.09716,16.052289 -23.45374,20.746289 l -9.73926,8.534539 7.76123,2.48375 c 9.72507,3.11223 26.72002,2.70934 40.24209,-0.95398 z m 252.90375,0.075 c 2.58343,-1.88904 2.42806,-2.07234 -2.5478,-3.00581 -6.93444,-1.30091 -32.35131,2.34305 -26.05003,3.73474 8.27331,1.82722 25.7099,1.38278 28.59783,-0.72893 z m 44.15842,0.0371 c 4.16605,-1.79689 4.19407,-1.87369 1.05417,-2.88998 -1.77408,-0.57422 -8.19375,-0.23393 -14.26593,0.75621 -8.5811,1.39925 -10.2459,2.02565 -7.47384,2.81213 5.79211,1.64332 16.08547,1.30576 20.6856,-0.67836 z m -127.32345,-3.26881 c 5.29623,-1.25141 9.62951,-2.71854 9.62951,-3.2603 0,-0.54175 -1.60492,-5.578639 -3.56648,-11.193069 -1.96157,-5.61443 -3.56649,-11.397053 -3.56649,-12.85027 0,-1.453217 -0.44655,-3.088773 -0.99235,-3.634568 -0.5458,-0.545794 -1.11376,-1.776231 -1.26212,-2.734302 -0.31462,-2.031521 -6.55741,-22.949546 -7.0254,-23.540353 -0.17405,-0.219727 -13.29579,12.411945 -29.15943,28.070381 l -28.84297,28.469881 6.89251,0.86396 c 3.79089,0.47518 9.46038,1.44722 12.59889,2.16008 7.77375,1.76569 33.52838,0.42864 45.29433,-2.35144 z M 112.43244,98.259021 c 5.5451,-4.90392 14.32507,-12.78921 19.51105,-17.522881 5.18596,-4.733669 17.01897,-14.914168 26.29556,-22.62333 9.2766,-7.709163 17.22065,-14.939506 17.65348,-16.067429 0.48304,-1.258783 -3.0101,-6.019801 -9.04514,-12.328204 C 161.43974,24.064587 154.45862,16.43548 151.3338,12.763604 L 145.6523,6.0874664 107.13428,25.320373 C 85.949374,35.898481 68.134248,45.034067 67.545122,45.621687 66.955996,46.209306 73.257202,60.299244 81.547806,76.932661 93.67265,101.2587 97.18201,107.17524 99.48603,107.17524 c 1.57542,0 7.4013,-4.0123 12.94641,-8.916209 z m 268.96848,6.891119 c 0.36054,-0.36054 -2.16463,-3.42272 -5.61149,-6.804839 -40.14288,-39.388788 -54.55862,-52.836181 -55.05252,-51.354474 -0.32342,0.970254 1.43835,8.328505 3.91504,16.351669 2.47671,8.023163 6.08582,19.723305 8.02027,26.000315 1.93446,6.27701 3.49763,12.253089 3.47374,13.280179 -0.024,1.02709 0.50086,1.53103 1.16613,1.11987 0.66527,-0.41116 5.64052,0.17438 11.05609,1.30119 8.88039,1.84772 31.21936,1.91947 33.03274,0.10609 z m 54.21323,-0.28565 c 10.63675,-1.8131 14.70439,-1.96671 18.88794,-0.71329 5.86628,1.75758 17.81535,1.96994 21.82229,0.38782 2.19272,-0.86578 0.57207,-3.76273 -11.41274,-20.400489 -7.68261,-10.665276 -17.441,-23.165903 -21.68533,-27.779169 l -7.71697,-8.387755 0.82932,13.552636 c 0.45612,7.453949 1.87515,18.560874 3.1534,24.682058 1.27824,6.12118 1.86591,12.54085 1.30593,14.265929 -1.29114,3.97755 -5.6816,-17.398395 -6.97406,-33.954911 -1.49651,-19.170499 -1.56851,-19.291396 -6.6849,-11.225497 -7.97286,12.569077 -27.16311,46.329288 -26.63503,46.857358 0.83352,0.83353 15.95104,4.75469 18.8775,4.89642 1.47207,0.0713 8.77676,-0.9102 16.23265,-2.18111 z M 265.29332,94.735391 c 35.26721,-33.467266 49.41029,-48.258289 49.41029,-51.673974 0,-1.292455 -29.97923,-22.480358 -33.75998,-23.859957 -1.43999,-0.525452 -5.18602,-2.685339 -8.32453,-4.799748 -9.77481,-6.5852886 -17.90779,-10.2199726 -19.72436,-8.8149516 -0.92099,0.712337 -6.48929,3.285753 -12.37398,5.7187016 -5.8847,2.432949 -19.97197,8.628787 -31.30505,13.768527 -11.33307,5.13974 -20.78561,9.344982 -21.00562,9.344982 -0.51878,0 -4.75306,8.180521 -4.75306,9.182802 0,2.306607 25.35431,30.588825 43.88325,48.950878 12.88992,12.773819 13.52437,13.195979 19.8317,13.195979 6.17174,0 7.12853,-0.58149 18.12134,-11.013239 z m 128.13669,8.305019 c 2.07806,-0.80641 6.2121,-6.381189 11.14897,-15.034509 4.31545,-7.564076 11.2496,-19.277678 15.40923,-26.030223 4.15964,-6.752545 7.26898,-13.0435 6.90964,-13.979902 -0.35933,-0.9364 -5.68856,-4.796898 -11.84274,-8.578883 C 408.90092,35.634909 397.44602,27.795036 389.59975,21.994953 381.75349,16.194869 372.0034,9.5656764 367.93287,7.2634104 l -7.40097,-4.185937 -9.90426,8.8944306 c -5.44735,4.891936 -14.50495,12.97673 -20.12799,17.966206 -5.62305,4.989477 -10.03308,9.547195 -9.80004,10.128263 0.98647,2.459909 66.06194,64.255667 67.66593,64.255667 0.96897,0 3.24799,-0.57674 5.06447,-1.28163 z m 25.90775,-73.360323 c -6.17428,-6.41681 -13.46527,-14.453014 -16.20221,-17.85823 -5.56809,-6.9276646 -10.9199,-8.6812026 -26.37514,-8.6419046 -7.18623,0.01827 -8.12663,0.294413 -5.86126,1.721112 1.48408,0.934641 9.74511,6.9265376 18.35785,13.3153266 18.55732,13.765515 40.07957,26.764042 40.79706,24.639705 0.28032,-0.829994 -4.542,-6.759198 -10.7163,-13.176009 z M 111.41407,19.727311 138.51934,6.0389614 118.92393,5.9630414 99.32851,5.8871214 95.77685,11.236846 c -1.95341,2.942348 -8.703178,10.077631 -14.999476,15.856186 -6.296284,5.778553 -11.447812,11.066686 -11.447812,11.751405 0,1.652889 9.516091,-2.669847 42.084508,-19.11712 z M 321.0878,35.38665 c 1.19358,-1.821661 5.26912,-5.833954 9.05672,-8.916208 3.78762,-3.082254 11.26426,-9.616391 16.61475,-14.520305 l 9.72818,-8.9162076 -48.26992,0 -48.26991,0 8.47563,5.163217 c 4.66159,2.8397696 11.36449,6.7891516 14.8953,8.7764066 3.53082,1.987254 12.13673,7.688393 19.12426,12.669198 6.98752,4.980805 13.55289,9.056009 14.5897,9.056009 1.0368,0 2.86168,-1.49045 4.05529,-3.31211 z M 187.41276,32.355874 c 4.61361,-2.70396 11.54915,-6.169555 15.41231,-7.701319 6.27664,-2.488722 35.60533,-15.5433326 44.82865,-19.9538596 2.81554,-1.346368 -5.29473,-1.538918 -38.51802,-0.914475 -23.14647,0.435047 -45.81397,1.246213 -50.37222,1.802593 l -8.28772,1.011599 6.53173,7.6380216 c 6.88448,8.050531 20.94882,23.033733 21.62116,23.033733 0.21766,0 4.1705,-2.212332 8.78411,-4.916293 z"
     id="path9524"
     inkscape:connector-curvature="0" />
  <path
     style="fill:#14b8cb;fill-opacity:0.46842107;stroke:none"
     d="m 99.32307,3.5936284 c 98.26801,-0.503623 196.53601,-4.613746 294.80402,0 C 432.56452,34.942983 453.64472,71.499505 481.83737,105.92229 421.31416,195.2504 340.29277,277.74577 267.43445,362.96216 185.89117,309.66546 91.823999,206.27323 1.867199,119.32248 28.003057,77.117946 65.97464,41.676688 99.32307,3.5936284 z"
     id="path9526"
     inkscape:connector-curvature="0"
     sodipodi:nodetypes="cccccc" />
</svg>
