<?xml version="1.0" encoding="UTF-8" standalone="no"?>
<!-- Created with Inkscape (http://www.inkscape.org/) -->

<svg
   xmlns:dc="http://purl.org/dc/elements/1.1/"
   xmlns:cc="http://creativecommons.org/ns#"
   xmlns:rdf="http://www.w3.org/1999/02/22-rdf-syntax-ns#"
   xmlns:svg="http://www.w3.org/2000/svg"
   xmlns="http://www.w3.org/2000/svg"
   xmlns:sodipodi="http://sodipodi.sourceforge.net/DTD/sodipodi-0.dtd"
   xmlns:inkscape="http://www.inkscape.org/namespaces/inkscape"
   id="svg8918"
   version="1.1"
   inkscape:version="0.48.4 r9939"
   width="305"
   height="529"
   sodipodi:docname="Dress.png">
  <metadata
     id="metadata8924">
    <rdf:RDF>
      <cc:Work
         rdf:about="">
        <dc:format>image/svg+xml</dc:format>
        <dc:type
           rdf:resource="http://purl.org/dc/dcmitype/StillImage" />
        <dc:title></dc:title>
      </cc:Work>
    </rdf:RDF>
  </metadata>
  <defs
     id="defs8922" />
  <sodipodi:namedview
     pagecolor="#ffffff"
     bordercolor="#666666"
     borderopacity="1"
     objecttolerance="10"
     gridtolerance="10"
     guidetolerance="10"
     inkscape:pageopacity="0"
     inkscape:pageshadow="2"
     inkscape:window-width="1285"
     inkscape:window-height="739"
     id="namedview8920"
     showgrid="false"
     inkscape:zoom="0.63091569"
     inkscape:cx="193.93123"
     inkscape:cy="378.4992"
     inkscape:window-x="3"
     inkscape:window-y="22"
     inkscape:window-maximized="0"
     inkscape:current-layer="svg8918" />
  <path
     style="fill:#0fb479;fill-opacity:1;stroke:none"
     d="m 104.49704,13.94738 19.34724,-4.4208975 c 3.40584,8.1276285 2.99198,18.8017245 10.64725,24.0963985 32.74439,15.045273 49.47721,10.483717 62.76271,4.483051 l 23.03779,-19.449215 c 5.58309,4.148123 10.76994,0.95418 16.35303,2.173539 -0.98868,9.868022 2.21131,19.736044 -2.96603,29.604066 -11.64072,23.145031 -30.27633,36.335805 -29.4681,77.196648 l 7.54524,25.78338 -2.73392,2.37167 c 8.74183,23.92834 20.14667,46.52517 24.09639,72.84957 5.12324,25.03712 12.28305,49.23541 20.51097,73.04145 14.47924,41.89317 30.17837,83.53843 29.36298,129.8166 1.3807,5.52053 1.7432,17.15559 3.44728,29.72063 3.23904,23.88314 10.22752,44.56928 -33.87201,49.75155 l -8.24159,1.22274 c -13.03048,5.63228 -26.05586,11.14714 -38.57017,4.90746 -4.99865,-4.31398 -1.00389,-5.94722 -0.55455,-8.79614 l -23.63799,-1.15475 1.18875,8.40572 c -10.47768,4.06486 -24.86736,-4.85858 -29.7682,-10.08687 l 5.34354,-6.45847 -19.91345,-6.4303 c 4.74235,7.43923 14.91416,18.14133 -12.16426,9.92273 -9.86778,-7.25581 -15.65955,1.79238 -22.57939,6.32833 l -21.854872,-5.60381 -7.284958,-0.56038 c -5.3251,9.54567 -5.447208,-1.72064 -7.415096,-5.60382 -9.548126,-3.18031 -2.546311,-3.91659 1.415034,-6.0962 -7.095481,-4.39373 -14.966967,-6.99567 -20.898243,-14.07753 -1.079341,3.1755 -1.541341,4.96412 -4.517043,8.13962 -10.432747,-3.17526 -17.837066,-9.75751 -24.062406,-17.6661 -13.1021236,-19.68543 7.253922,-48.57186 12.888771,-73.40996 4.4095,-17.35048 9.488327,-34.45025 18.243912,-50.17286 L 80.600097,260.13199 113.19703,160.26907 126.64619,123.2839 C 124.98986,105.472 121.32407,89.144397 114.40526,74.323231 107.64791,59.847945 100.83133,45.845479 98.627119,31.381355 99.658581,25.57003 99.037566,19.758705 104.49704,13.94738 z"
     id="path8930"
     inkscape:connector-curvature="0"
     sodipodi:nodetypes="cccccccccccscscccccccccccccccccccccccscc" />
  <path
     style="fill:#0960fa;fill-opacity:0.38947371;stroke:none"
     d="m 124.42233,124.82555 -10.30249,33.28496 c 21.88807,3.96872 37.37322,4.58778 49.36652,3.39433 21.52643,-2.14207 31.89586,-5.06706 47.87873,-7.58895 l -6.50412,-25.12784 c -4.76029,2.63637 -9.3761,5.41721 -17.03873,5.15124 -22.17765,-1.3222 -46.10348,0.2276 -63.39991,-9.11374 z"
     id="path9442"
     inkscape:connector-curvature="0"
     sodipodi:nodetypes="ccscccc" />
  <path
     style="fill:#000000"
     d="m 209.5,519.53471 c -1.91189,-1.58563 -1.82378,-1.62632 2,-0.92357 8.06639,1.48248 22.2618,-0.99266 28.1377,-4.90614 l 3.1377,-2.08977 -1.98399,-2.68349 c -2.47865,-3.35255 -5.75938,-23.36377 -4.10207,-25.02108 0.74873,-0.74873 1.269,1.24449 1.76555,6.7639 1.26616,14.07431 3.06556,18.45083 8.04511,19.56744 2,0.44848 2,0.44848 0,1.25225 -1.1,0.44208 -2.98298,1.68743 -4.1844,2.76745 -5.64507,5.07465 -28.6061,8.76418 -32.8156,5.27301 z m -5.33876,-2.59912 c -2.23028,-2.07783 -2.32477,-3.15387 -0.63778,-7.26358 0.70323,-1.71315 0.0978,-1.80738 -9.63654,-1.5 -9.6568,0.30493 -10.37885,0.46858 -10.2721,2.32799 0.0631,1.1 0.41804,2.70735 0.78864,3.57188 1.3093,3.05434 -3.47263,4.00985 -11.95009,2.38785 C 168.25725,515.65688 164.63865,515 164.41203,515 164.18541,515 164,514.55 164,514 c 0,-1.42723 3.13109,-1.24061 10.58052,0.63063 3.57036,0.89684 6.77573,1.34646 7.12304,0.99914 0.34731,-0.34731 0.14531,-2.21556 -0.4489,-4.15167 -0.84604,-2.75666 -0.76692,-4.14852 0.36478,-6.41708 2.41749,-4.84596 4.38595,-18.63058 5.34268,-37.41342 0.50014,-9.81882 1.21288,-18.14382 1.58386,-18.5 0.92008,-0.88336 -0.33548,30.50824 -1.60106,40.03011 -0.56126,4.22274 -1.5835,9.84774 -2.27163,12.5 l -1.25116,4.82229 10.60408,-0.32519 c 8.75669,-0.26854 10.83455,-0.0475 11.92695,1.26875 1.11224,1.34017 1.04009,1.90642 -0.45316,3.55644 -1.50091,1.65849 -1.56916,2.21174 -0.44063,3.57154 1.22575,1.47694 1.43448,1.47356 2.54202,-0.0411 0.66681,-0.91193 1.47084,-1.22261 1.79725,-0.69447 0.32485,0.52563 -0.19587,1.92698 -1.15717,3.11413 l -1.74781,2.15845 -2.33242,-2.17298 z M 251,510.94098 c 0,-1.13246 0.36172,-1.83546 0.80383,-1.56222 0.44211,0.27324 2.80461,0.0348 5.25,-0.52984 2.44539,-0.56465 5.34617,-1.15033 6.44617,-1.30151 9.49564,-1.30506 18.7127,-6.91803 22.20521,-13.52246 2.76071,-5.22058 3.03481,-13.86732 0.77743,-24.52458 -0.81545,-3.84979 -1.49845,-10.37479 -1.51777,-14.5 C 284.94555,450.87517 284.28636,444.575 283.5,441 c -1.45298,-6.60566 -1.97341,-13.80674 -0.92182,-12.75516 1.43196,1.43197 5.52938,25.65477 5.1591,30.49915 -0.22046,2.8842 0.18909,8.0592 0.91011,11.5 1.74304,8.31811 1.69485,18.69268 -0.10687,23.00478 -0.80271,1.92117 -3.66704,5.47781 -6.36517,7.90366 -4.14485,3.72659 -6.74893,4.99141 -16.79052,8.15534 -6.53666,2.05958 -12.44733,3.73289 -13.13483,3.71846 -0.6875,-0.0144 -1.25,-0.95279 -1.25,-2.08525 z m -94.47717,-0.5057 c -5.13361,-2.67682 -5.50119,-4.11911 -2.08464,-8.17946 l 2.4382,-2.89763 -2.85574,-1.68692 c -1.57066,-0.92781 -4.93013,-1.97125 -7.4655,-2.31876 -2.53536,-0.34752 -4.86676,-1.04769 -5.18089,-1.55596 -1.22852,-1.98779 14.24769,2.0071 17.40862,4.49371 0.99121,0.77976 0.5539,1.61777 -1.92355,3.68603 -2.23559,1.86635 -3.00674,3.19719 -2.54693,4.39543 0.87708,2.28563 6.78736,4.67646 9.68641,3.91834 1.6076,-0.4204 2.09556,-0.25177 1.59854,0.55242 -1.00807,1.63109 -5.55696,1.42698 -9.07452,-0.4072 z m -65.935122,-3.04307 c -2.701761,-0.72424 -5.379261,-1.78376 -5.95,-2.3545 -1.323275,-1.32328 -0.07983,-1.32237 4.368894,0.003 1.921369,0.5725 5.694498,1.2211 8.384731,1.44134 2.690237,0.22023 5.310017,0.8191 5.821737,1.33082 1.39371,1.39371 -6.885715,1.11772 -12.625362,-0.42086 z m -20.892163,-0.54272 c -1.036725,-0.58018 -1.701495,-2.19238 -1.710858,-4.14918 -0.01873,-3.91426 -0.814927,-5.22173 -3.734687,-6.13292 -2.547097,-0.79488 -3.078596,-4.3122 -0.784631,-5.19247 1.123657,-0.43119 0.798504,-1.12345 -1.394356,-2.96862 C 60.498165,487.08284 58.748217,486 58.18224,486 c -0.565976,0 -3.03821,-1.53363 -5.493853,-3.40806 -4.428246,-3.38016 -4.473355,-3.39039 -5.508916,-1.25 -0.873891,1.80624 -1.055144,1.86811 -1.111791,0.37954 -0.03722,-0.97818 1.246976,-4.38283 2.853777,-7.56589 1.606801,-3.18305 4.479962,-10.26484 6.384803,-15.73731 3.912019,-11.23894 7.700938,-19.74442 8.458181,-18.98717 0.279416,0.27941 -0.503715,2.85989 -1.740291,5.73439 -1.236576,2.8745 -2.911727,7.50069 -3.722557,10.28043 -0.810831,2.77974 -3.038611,8.54821 -4.950623,12.81882 -2.1563,4.81624 -3.237514,8.51736 -2.847328,9.74672 0.345982,1.0901 2.7367,3.17341 5.312708,4.6296 2.576007,1.45618 6.282838,3.70766 8.237401,5.00327 1.954562,1.29561 3.800642,2.35566 4.102399,2.35566 0.301757,0 1.610183,-5.45216 2.907614,-12.11591 1.29743,-6.66375 2.521357,-11.62873 2.719836,-11.03329 0.621717,1.86515 -3.926682,24.02361 -5.134725,25.01486 C 68.016994,492.38415 66.375,492.9733 65,493.17489 l -2.5,0.36653 2.940381,1.47929 c 2.241681,1.12778 3.033901,2.31066 3.333947,4.97798 0.216462,1.92427 0.844165,4.04162 1.394897,4.70521 C 71.727828,506.5819 75,504.04556 75,500.95945 c 0,-1.4077 0.418292,-2.98695 0.929538,-3.50945 0.511245,-0.5225 1.599559,-4.1 2.418474,-7.95 0.818916,-3.85 1.525624,-5.89673 1.570463,-4.54829 0.04484,1.34843 -0.864577,6.29843 -2.020923,11 -2.271987,9.23761 -4.90863,12.74085 -8.202007,10.89778 z M 108.81555,504.25 c 3.61959,-3.48059 4.01733,-4.4325 5.53632,-13.25 0.90011,-5.225 1.77907,-12.2 1.95326,-15.5 l 0.3167,-6 0.18909,7.06634 c 0.10399,3.88649 -0.26596,9.73649 -0.82211,13 -0.55615,3.26351 -1.21917,7.16749 -1.47337,8.6755 -0.40238,2.38713 -0.23922,2.60404 1.26119,1.6767 1.21106,-0.74851 3.20973,-0.75424 6.72337,-0.0193 l 5,1.04589 -4.83079,-0.46453 c -5.25707,-0.50552 -7.44357,0.31368 -12.45401,4.66601 -4.82893,4.19467 -5.94846,3.47747 -1.39965,-0.89665 z m 23.88926,0.76641 c -9.93869,-2.03064 -9.18951,-3.06002 1.03631,-1.4239 6.65269,1.06443 7.97274,1.03133 9.25888,-0.23216 1.33246,-1.30899 1.31061,-1.5811 -0.19562,-2.43622 -0.93259,-0.52945 -2.58173,-2.20708 -3.66476,-3.72805 -1.95932,-2.75161 -1.95922,-2.81265 0.0208,-12.23075 4.81901,-22.92194 5.98673,-29.83505 5.99059,-35.46533 0.004,-5.79539 0.0336,-5.86359 0.86892,-2 1.20708,5.58309 1.19678,10.75197 -0.0199,10 -0.58812,-0.36348 -1.01053,0.74488 -1.02556,2.69098 -0.0141,1.81996 -1.36013,9.83402 -2.99127,17.80902 -1.63114,7.975 -2.96963,14.97707 -2.97444,15.56016 -0.005,0.58309 1.391,2.49184 3.10177,4.24166 2.35275,2.40645 2.96444,3.76345 2.51094,5.57035 -0.81247,3.23713 -2.787,3.50958 -11.91663,1.64424 z m 70.35332,-17.53333 c -0.0234,-8.56501 -0.31164,-16.64497 -0.64056,-17.95547 -0.32891,-1.31051 -0.13219,-3.20283 0.43717,-4.20517 0.97414,-1.71496 1.03064,-1.70449 0.95808,0.17756 -0.0424,1.1 0.27076,9.69676 0.69592,19.10392 0.54432,12.04378 0.45038,17.30331 -0.31753,17.7779 -0.76889,0.47521 -1.10309,-3.91908 -1.13308,-14.89874 z M 83.630286,495.75 c -1.120143,-4.1798 -0.703004,-23.58702 0.523269,-24.3449 0.857764,-0.53013 0.98836,1.8266 0.509312,9.19098 -0.354335,5.44716 -0.245825,11.59142 0.241133,13.65392 0.935586,3.96265 -0.242078,5.34954 -1.273714,1.5 z M 159,494.0651 c 0,-0.5142 0.48891,-2.2017 1.08646,-3.75 0.59755,-1.54831 1.97683,-7.98188 3.06506,-14.29682 1.08823,-6.31495 2.17432,-11.67745 2.41354,-11.91667 1.85761,-1.85761 -1.63641,21.43156 -4.09987,27.32747 C 160.01838,494.89177 159,495.98073 159,494.0651 z m 105.41854,-11.91234 c -0.0931,-7.60662 -2.76565,-16.15634 -12.39487,-39.65276 -7.04522,-17.19116 -11.0696,-32.31099 -10.91281,-41 l 0.10827,-6 1.26739,8.5 c 2.19528,14.72304 6.65781,28.83075 15.45726,48.86612 2.26246,5.15136 5.00066,12.56732 6.08489,16.4799 1.95383,7.05062 2.66475,18.10901 1.22133,18.99772 -0.4125,0.25397 -0.78666,-2.53197 -0.83146,-6.19098 z M 37,483.69429 C 30.792623,481.21778 16.86462,468.40432 14.973552,463.43044 13.4351,459.384 13.668836,446.54019 15.399946,440 c 0.800681,-3.025 3.790024,-11.575 6.642982,-19 2.852959,-7.425 6.695057,-19.07778 8.537997,-25.89506 4.949238,-18.3079 9.151748,-30.33797 14.708678,-42.10494 4.914564,-10.40674 9.808285,-23.2784 22.431427,-59 13.672859,-38.69214 15.391873,-43.67776 17.23974,-50 1.044902,-3.575 5.582154,-17.075 10.082781,-30 11.373749,-32.66338 13.572879,-39.457 15.423749,-47.64753 0.88835,-3.93114 2.42509,-8.88114 3.41498,-11 0.98989,-2.11886 3.50087,-9.47747 5.57997,-16.35247 2.07909,-6.875 4.13915,-13.4 4.57792,-14.5 3.32532,-8.33671 -0.97096,-26.142482 -13.02942,-54 C 98.695855,42.05005 96.45884,34.983755 97.22918,26.96668 c 0.475666,-4.95035 6.339,-16.351593 7.90988,-15.380739 0.42877,0.264997 1.58539,0.04876 2.57026,-0.480527 4.13943,-2.2245977 19.98623,-4.0398477 18.82198,-2.1560566 -0.32271,0.5221466 0.39553,5.1346466 1.59607,10.2499996 3.08796,13.157337 5.33321,15.191993 21.71046,19.674087 11.65034,3.188444 12.91686,3.334546 25.46119,2.937121 16.95013,-0.537008 19.42906,-1.618277 33.28807,-14.519717 5.78464,-5.384966 11.01726,-9.965268 11.62802,-10.178448 0.61077,-0.21318 1.73,0.459628 2.48718,1.495129 1.18763,1.624186 1.50648,1.677412 2.32188,0.3876 0.51986,-0.822321 0.9521,-1.02739 0.96052,-0.455708 0.008,0.571681 1.02781,1.047749 2.26531,1.057929 1.2375,0.01018 4.13421,0.10494 6.43713,0.210579 4.13274,0.189576 4.18051,0.234288 3.67797,3.442071 -0.28004,1.7875 -0.81425,7.938763 -1.18713,13.669474 -0.41355,6.355642 -1.12275,10.566639 -1.81837,10.796799 -0.80399,0.26602 -1.04092,-1.775118 -0.80318,-6.919474 0.2025,-4.38197 0.0128,-6.497865 -0.47481,-5.296799 -0.81203,2 -0.81203,2 -1.24279,0 -0.23692,-1.1 0.41503,-3.949899 1.44877,-6.333109 1.03374,-2.38321 1.66712,-4.545512 1.40752,-4.805115 C 235.18596,23.852623 228,34.925036 228,36.218712 228,36.648421 227.53103,37 226.95785,37 c -0.57319,0 0.19274,-2.107191 1.70206,-4.682647 1.89536,-3.234195 2.36527,-4.808959 1.51915,-5.090999 -0.7046,-0.234867 0.33008,-1.644214 2.43545,-3.317353 3.70434,-2.943843 3.42428,-3.648652 -0.79941,-2.011814 -1.27331,0.493453 -3.4307,2.968453 -4.79421,5.5 C 225.65737,29.928734 224.23816,32 223.86707,32 c -0.37109,0 0.66581,-2.475 2.30422,-5.5 3.59986,-6.646427 3.09828,-7.342068 -0.66443,-0.921494 -1.47575,2.518178 -2.91984,4.341847 -3.20909,4.052599 -0.28925,-0.289249 0.50903,-2.237076 1.77395,-4.328506 2.08359,-3.445024 2.1102,-3.637834 0.28292,-2.050417 -1.10932,0.9637 -2.26662,1.502502 -2.57179,1.197337 -0.30516,-0.305164 -1.45841,0.593854 -2.56277,1.997819 -4.17955,5.313446 -3.64617,1.419803 0.57499,-4.197338 1.48337,-1.973926 1.94992,-3.25 1.18825,-3.25 -1.75204,0 -18.19314,15.086343 -18.74629,17.201587 -0.24913,0.952696 -1.2852,1.996315 -2.30238,2.319154 -3.34531,1.061761 -24.81346,27.371338 -26.39146,32.343185 -0.40735,1.283433 -1.59621,3.18909 -2.64191,4.234794 -1.0457,1.045704 -1.88706,2.68878 -1.86968,3.65128 0.0253,1.401645 0.51341,1.202585 2.45204,-1 1.33123,-1.5125 2.59853,-2.75 2.81621,-2.75 1.35298,0 0.24876,6.098524 -1.36935,7.562898 C 171.86872,83.52379 171,84.759975 171,85.309975 c 0,0.55 0.90276,0.183015 2.00613,-0.815523 1.10337,-0.998538 2.23113,-1.590524 2.50613,-1.315524 0.275,0.275 -0.40276,1.316986 -1.50613,2.315524 C 172.90276,86.49299 172,87.966985 172,88.769997 c 0,1.232553 0.3895,1.204814 2.5,-0.17804 2.1887,-1.43409 2.5,-1.448411 2.5,-0.11501 C 177,89.314626 177.43588,90 177.96862,90 c 1.83324,0 -0.19199,3.017959 -2.39654,3.571264 -1.79937,0.451615 -2.12638,1.105386 -1.76942,3.537511 0.41894,2.854421 0.51948,2.909665 2.32374,1.276832 1.03723,-0.938673 2.1318,-1.46074 2.43239,-1.160147 0.3006,0.300592 -0.52564,1.389904 -1.83608,2.420693 -2.83926,2.233367 -2.51458,4.320467 0.57524,3.697687 L 179.5,102.9 l -2.25,1.67197 c -1.2375,0.91959 -2.25,2.38209 -2.25,3.25 0,1.22736 0.26667,1.31136 1.2,0.37803 2.24873,-2.24873 3.15741,-1.20935 0.97431,1.11445 -2.2318,2.37564 -3.13278,5.04402 -0.97431,2.88555 0.66,-0.66 1.76455,-1.2 2.45455,-1.2 0.69,0 0.15,1.10455 -1.2,2.45455 C 175.02465,115.88444 174.25458,118 175.8,118 c 0.44,0 1.34,-0.54 2,-1.2 2.04271,-2.04271 1.31901,0.15589 -0.8,2.43037 -2.62759,2.82039 -2.53386,4.05157 0.25,3.28416 l 2.25,-0.62024 -2.25,1.96315 c -1.2375,1.07973 -2.25,2.52326 -2.25,3.20784 0,0.80323 0.71153,0.60077 2.00613,-0.57083 1.10337,-0.99854 2.22372,-1.59793 2.48967,-1.33199 0.89292,0.89293 -1.97398,3.85672 -4.1299,4.26948 -2.09264,0.40065 -2.13514,0.14296 -2.18695,-13.26168 C 173.12656,102.61492 171.602,91.89897 168.32251,82.034927 166.48547,76.509485 160.16767,67 158.33378,67 157.6002,67 157,66.410888 157,65.690862 157,64.970837 152.33646,60.04506 146.63659,54.744692 137.6914,46.426476 135.77447,44.05753 132.62898,37.434015 130.62467,33.213511 128.04438,26.664288 126.89499,22.880186 125.7456,19.096084 124.39045,16 123.88355,16 c -0.50691,0 -0.65812,1.05 -0.33602,2.333333 0.86169,3.433248 -2.29735,3.051142 -4.13372,-0.5 -1.99694,-3.86166 -2.62404,-3.556591 -1.8843,0.916667 0.46146,2.790493 0.34904,3.366197 -0.43938,2.25 -0.58273,-0.825 -1.0664,-1.032044 -1.07482,-0.460099 -0.0142,0.963107 2.35715,10.694401 3.58457,14.710099 0.29419,0.9625 0.11305,1.75 -0.40253,1.75 -0.89306,0 -2.70733,-5.64133 -3.53762,-11 -0.28224,-1.821551 -0.4211,-1.550172 -0.51168,1 -0.0684,1.925 0.52877,5.954074 1.32699,8.953497 0.79821,2.999424 1.2949,5.609895 1.10375,5.801047 -0.72487,0.724873 -2.68016,-6.487321 -3.26295,-12.035574 -0.70132,-6.676671 -2.26702,-8.636381 -2.41919,-3.027987 L 111.7933,30.5 110.81349,26.818413 c -0.70673,-2.655508 -1.49474,-3.642799 -2.82737,-3.542414 -1.01616,0.07655 -1.6464,0.464665 -1.40053,0.862488 0.24587,0.397824 0.0225,0.985688 -0.49636,1.306365 -0.92916,0.574256 -0.70036,6.666808 0.43395,11.555148 0.3581,1.54325 -0.37912,0.77785 -1.92635,-2 l -2.50646,-4.5 -0.0452,6.667095 c -0.0433,6.394651 0.94893,9.921722 5.43893,19.332905 10.82677,22.693227 19.60949,49.87661 19.87013,61.5 l 0.14575,6.5 4.46189,2.25 c 2.45404,1.2375 5.82904,2.25251 7.5,2.25558 1.67096,0.003 4.61311,0.43446 6.53811,0.95866 10.184,2.77322 47.78238,4.29118 50.49646,2.0387 0.93257,-0.77397 1.18993,-1.70378 0.6603,-2.38562 C 195.81577,127.89094 195.07936,124 196.09362,124 c 0.49851,0 0.90638,0.72314 0.90638,1.60699 0,1.04743 0.54508,1.39782 1.56539,1.00629 1.20052,-0.46068 1.41837,-0.13746 0.93461,1.38672 -0.46895,1.47754 -0.25576,1.84351 0.83098,1.42649 1.62063,-0.6219 2.81644,-6.21734 1.50229,-7.02954 -1.49875,-0.92627 -0.94975,-8.13828 0.66673,-8.75858 0.825,-0.31658 1.5,-1.79847 1.5,-3.2931 C 204,99.948645 216.1528,72.793889 226.97898,59 c 1.51085,-1.925 3.50281,-4.977213 4.42659,-6.782696 0.92378,-1.805483 2.08935,-3.029461 2.59015,-2.719951 0.92946,0.574439 -0.77104,3.579471 -9.35587,16.533244 -12.88804,19.446938 -18.85106,35.925733 -18.98661,52.469403 -0.0708,8.64629 0.3734,11.48908 3.28168,21 3.65407,11.94988 4.27491,16.14049 2.33432,15.75641 -0.91412,-0.18092 -0.85677,0.5909 0.22293,3 4.7493,10.59698 15.57857,42.26206 20.43195,59.74359 2.06766,7.44759 2.98537,16.71842 1.08887,11 -0.45602,-1.375 -2.03435,-7 -3.50741,-12.5 -1.47307,-5.5 -5.17346,-17.2 -8.2231,-26 -3.04965,-8.8 -6.58633,-19.02139 -7.8593,-22.71419 C 210.19501,158.42106 209.2903,157 206.55649,157 l -2.37314,0 1.75204,5.75 c 0.96362,3.1625 2.97762,8.15725 4.47556,11.09943 1.49793,2.94219 2.49773,5.57523 2.22176,5.85119 -0.70132,0.70132 -6.11705,-10.24829 -8.16362,-16.50532 -1.72249,-5.26621 -2.12165,-5.64959 -4.80852,-4.61854 -1.22929,0.47172 -1.30481,1.14534 -0.41464,3.69887 0.96375,2.76463 1.17569,2.89897 1.85094,1.17324 0.60194,-1.53836 0.77736,-1.2643 0.83284,1.30113 0.0882,4.07659 -1.73818,4.21769 -3.23581,0.25 -1.26248,-3.34469 -2.18354,-3.77236 -3.08199,-1.43105 -0.37648,0.9811 -1.28758,1.35137 -2.43171,0.98824 -1.28133,-0.40667 -2.23251,0.17204 -3.17391,1.93105 -1.7064,3.18844 -2.74871,3.1712 -4.22545,-0.0699 l -1.17628,-2.58165 -0.85363,2.30758 c -0.67861,1.83446 -1.03383,2.01602 -1.73251,0.88554 -0.52063,-0.8424 -0.46667,-2.19224 0.13238,-3.31157 0.55618,-1.03924 0.86228,-2.02075 0.68022,-2.18113 -0.18206,-0.16038 -4.38102,0.0712 -9.33102,0.51457 -10.98375,0.98387 -28.3754,1.05557 -30.71671,0.12663 -0.94418,-0.37462 3.55582,-0.73273 10,-0.7958 13.77681,-0.13485 31.67704,-1.86418 42.21671,-4.07854 4.125,-0.86665 8.85,-1.79612 10.5,-2.06549 3.30441,-0.53944 5.72368,-2.06754 5.0357,-3.18071 -0.24325,-0.3936 -1.62341,-5.18011 -3.06702,-10.6367 -1.4436,-5.45659 -2.96253,-10.27148 -3.37539,-10.69975 -0.41286,-0.42827 -1.97755,0.1864 -3.47709,1.36594 -1.55526,1.22337 -4.93702,2.41699 -7.87252,2.77868 -7.33091,0.90326 -43.49317,-1.00771 -45.82303,-2.42148 -0.31864,-0.19336 -3.63188,-0.8392 -7.36276,-1.43521 -3.73088,-0.59601 -8.53267,-1.97606 -10.67065,-3.06678 C 126.74926,126.85176 125,126.40694 125,126.954 c 0,1.18996 5.25913,4.046 7.45034,4.046 0.85231,0 1.54966,0.45857 1.54966,1.01905 0,1.06321 -4.15086,0.39451 -7.18426,-1.15738 C 125.8894,130.38775 124.94813,130 124.72403,130 c -0.53444,0 -2.95856,8.10266 -2.54334,8.50117 0.17562,0.16855 2.53552,0.94954 5.24422,1.73553 6.1543,1.78579 4.75897,2.95724 -1.57564,1.32283 l -4.65074,-1.19994 -2.62343,7.96271 c -1.44288,4.37949 -2.4341,8.15203 -2.2027,8.38343 0.8794,0.87941 11.26422,3.27105 14.2526,3.2824 4.33479,0.0165 9.42745,1.11799 8.92528,1.93051 -0.70063,1.13365 -17.49009,-0.74213 -20.62052,-2.30379 -4.1172,-2.05393 -5.44977,-0.40438 -6.95742,8.61239 -0.66882,4.00002 -3.58053,13.34776 -6.47047,20.77276 -2.88994,7.425 -6.666873,18 -8.393184,23.5 -1.726311,5.5 -4.647374,14.05 -6.49125,19 -1.843877,4.95 -4.614505,13.5 -6.156953,19 -1.542448,5.5 -4.343688,14.05 -6.224978,19 -1.881291,4.95 -6.258075,17.1 -9.726187,27 -12.409656,35.42435 -13.837205,39.17317 -19.991979,52.5 -6.718606,14.54769 -13.271471,33.31436 -16.451113,47.11413 -1.622165,7.04026 -7.19147,23.01757 -12.06269,34.60565 -4.105142,9.76566 -5.520444,27.56078 -2.618804,32.92721 3.129438,5.78773 12.225729,14.20563 18.239788,16.87948 3.231514,1.43673 6.668423,2.6772 7.637575,2.7566 1.779625,0.1458 1.908686,1.87396 0.175405,2.34872 -0.515625,0.14124 -3.4125,-0.73064 -6.4375,-1.9375 z M 192.77591,162.3615 c 0.9749,0.60252 3.89403,-2.02489 3.11512,-2.80381 -0.33711,-0.3371 -9.86094,1.43744 -10.67847,1.98969 -0.15809,0.10679 0.2735,1.42531 0.9591,2.93003 l 1.24655,2.73587 2.18011,-2.73413 c 1.19906,-1.50376 2.62898,-2.45671 3.17759,-2.11765 z m 9.9072,-45.549 c -0.31922,-0.79773 -0.55618,-0.56078 -0.60416,0.60417 -0.0434,1.05416 0.19292,1.64479 0.52522,1.3125 0.33229,-0.3323 0.36781,-1.1948 0.0789,-1.91667 z M 176.56184,90.228504 c -0.3352,-0.335201 -1.38624,0.203825 -2.33565,1.197835 -1.65022,1.727753 -1.6234,1.754575 0.60946,0.609456 1.2846,-0.65881 2.06139,-1.472091 1.72619,-1.807291 z M 172.12756,80.25 c 1.24387,-1.586056 1.2085,-1.621426 -0.37756,-0.377555 C 170.08425,81.178814 169.55452,82 170.37756,82 c 0.20765,0 0.99515,-0.7875 1.75,-1.75 z m 0.69306,-14.391793 c 2.84866,-3.652985 5.17938,-6.915485 5.17938,-7.25 0,-1.775741 -2.03672,0.05548 -6.51228,5.855207 -5.07838,6.580896 -7.12934,8.133526 -5.98616,4.53166 0.44615,-1.405684 0.0927,-2.209095 -1.18261,-2.688029 -1.00042,-0.375706 -2.36714,-1.38599 -3.03715,-2.245074 -0.67,-0.859084 -1.2325,-1.143405 -1.25,-0.631824 -0.0521,1.522814 6.41902,10.484551 7.03882,9.747979 0.31384,-0.372969 2.90134,-3.666933 5.75,-7.319919 z m -2.43906,6.589855 c 0.34149,-0.889925 0.17385,-1.291322 -0.39301,-0.940983 C 169.44485,71.843104 169,72.541476 169,73.059017 c 0,1.438432 0.71677,1.121462 1.38156,-0.610955 z m -1.50754,-6.79627 c 0.85196,-1.026543 0.66419,-1.759728 -0.78699,-3.073027 -1.81348,-1.64118 -1.93767,-1.624728 -2.56101,0.33926 -1.12498,3.544503 1.14015,5.394067 3.348,2.733767 z M 159,62.188058 c 0,-0.446567 -1.4625,-1.864674 -3.25,-3.151347 l -3.25,-2.339405 2.93709,3.151347 C 158.54993,63.188567 159,63.484084 159,62.188058 z m 5.65492,-0.731186 c 0.32569,-0.848721 0.32244,-1.812846 -0.007,-2.142501 -0.86466,-0.86466 -3.7309,1.741992 -3.07767,2.798936 0.85349,1.380977 2.43195,1.045095 3.08489,-0.656435 z m 6.90241,-2.328112 c -2.14624,-2.146242 -4.52022,0.0061 -2.58227,2.34119 1.00712,1.213503 1.60139,1.296524 2.70781,0.378284 1.2183,-1.011104 1.20066,-1.393275 -0.12554,-2.719474 z m -9.66744,-0.496081 c 0.86649,-1.044061 0.75164,-1.685289 -0.48577,-2.712253 -1.38238,-1.147276 -1.82508,-1.065219 -3.01226,0.55835 -1.09954,1.503712 -1.12931,2.069899 -0.14179,2.69694 1.74839,1.110164 2.34118,1.021724 3.63982,-0.543037 z m 9.68001,-7.293225 c -0.68258,-1.761625 -0.77412,-1.756046 -2.16339,0.131852 -0.79785,1.084219 -1.23863,2.523801 -0.9795,3.199073 0.2749,0.716394 -0.0903,1.01233 -0.87679,0.71052 -1.62487,-0.623523 -2.939,1.181022 -1.98462,2.72525 1.15032,1.861256 6.85591,-4.568809 6.0043,-6.766695 z m 3.30975,4.015536 c -0.87143,-1.050011 -1.47465,-1.106074 -2.52466,-0.234642 -1.05001,0.871431 -1.10607,1.474651 -0.23464,2.524662 0.87143,1.050011 1.47465,1.106074 2.52466,0.234642 1.05001,-0.871431 1.10607,-1.474651 0.23464,-2.524662 z M 151.02006,54.524166 C 150.32434,53.685875 149.29047,53 148.72257,53 c -0.5679,0 -0.21556,0.902759 0.78298,2.006131 2.06806,2.285188 3.44688,1.846404 1.51451,-0.481965 z m 6.92644,0.575795 c 0.76065,-1.421288 0.66196,-2.036233 -0.3917,-2.440559 -1.68843,-0.647911 -3.99493,1.819437 -3.08187,3.296793 0.98182,1.58862 2.34495,1.252608 3.47357,-0.856234 z m 25.02145,-1.221756 c 1.71699,-1.716987 2.85502,-3.388571 2.52896,-3.71463 -0.86584,-0.865843 -4.04073,1.458709 -3.74691,2.743367 C 181.8875,53.508124 181.37314,54 180.60699,54 c -0.76616,0 -1.65203,0.675 -1.96862,1.5 -0.93693,2.441613 0.98675,1.721029 4.32958,-1.621795 z m -18.97206,-1.383158 c -1.02552,-1.235674 -1.4933,-1.308259 -2.10042,-0.32592 -1.04856,1.69661 1.0773,4.258107 2.41977,2.915636 0.66666,-0.666666 0.56021,-1.529905 -0.31935,-2.589716 z m 14.53118,1.461148 c 0.35481,-0.574093 0.0967,-1.704642 -0.57366,-2.512331 -0.93116,-1.121975 -1.54435,-1.19832 -2.59842,-0.323516 -1.0435,0.866024 -1.10316,1.478161 -0.24488,2.512331 1.35601,1.633882 2.53795,1.745788 3.41696,0.323516 z M 154.04165,49.550188 C 153.33405,48.697585 152.34609,48 151.84617,48 c -1.59753,0 -2.11459,2.971642 -0.79395,4.562923 1.1342,1.366626 1.44264,1.370787 2.77597,0.03745 1.23301,-1.233003 1.271,-1.775931 0.21346,-3.050189 z M 169,48.931315 c 0,-0.377534 -0.64362,-1.220581 -1.43026,-1.873437 -2.09055,-1.735 -4.27837,2.383352 -2.44175,4.596344 1.12713,1.358105 1.41039,1.329988 2.5694,-0.255052 C 168.41382,50.419384 169,49.308849 169,48.931315 z M 146,49.5 c -0.70675,-0.851583 -1.51,-1.323332 -1.785,-1.048332 -0.275,0.275 0.0782,1.196749 0.785,2.048332 0.70675,0.851583 1.51,1.323332 1.785,1.048332 C 147.06,51.273332 146.7068,50.351583 146,49.5 z m 14.5,0.666667 c 0,-1.808656 -1.9573,-1.478465 -2.3455,0.39568 -0.21599,1.042717 0.15888,1.499861 1,1.219487 0.74002,-0.246675 1.3455,-0.973501 1.3455,-1.615167 z m 14,-1.5 c 0,-2.606549 -1.9609,-2.44297 -2.33415,0.194715 -0.22908,1.618918 0.0853,2.221555 1,1.916667 0.73378,-0.244594 1.33415,-1.194716 1.33415,-2.111382 z m 7.2532,1.180137 c 0.85587,-0.855875 0.86523,-1.6938 0.0363,-3.25 -1.01709,-1.909384 -0.96334,-1.970085 0.60133,-0.679107 1.51035,1.246165 1.98346,1.15248 3.91024,-0.774306 l 2.19201,-2.192002 -3.49653,0.64894 c -4.23873,0.786689 -7.50383,3.635276 -6.66686,5.816394 0.71936,1.874629 1.8384,2.015208 3.42353,0.430081 z m -32.1782,-3.60514 c -1.01571,-1.015711 -2.85483,1.496546 -2.04949,2.79962 0.55137,0.892135 1.00489,0.762331 1.70454,-0.487871 0.5243,-0.93688 0.67953,-1.977167 0.34495,-2.311749 z m 41.41903,-0.882882 c 3.44908,-4.802759 2.61962,-4.836542 -2.91162,-0.118585 -1.76691,1.507109 -2.93172,3.194609 -2.58847,3.75 1.09585,1.773114 2.09044,1.116436 5.50009,-3.631415 z M 157,47.622445 c 0,-0.757656 -0.63494,-1.904507 -1.41097,-2.548559 -1.90243,-1.578871 -3.19992,0.485115 -1.55268,2.469919 1.52448,1.836881 2.96365,1.875069 2.96365,0.07864 z m 8,-2.813575 C 165,44.363992 164.14814,44 163.10699,44 c -2.31003,0 -3.37681,2.330182 -1.79221,3.914776 0.87798,0.877981 1.46438,0.740142 2.42185,-0.569275 C 164.43148,46.395233 165,45.253749 165,44.80887 z m -22.81667,0.974463 C 141.46577,45.065771 141,45.006729 141,45.633333 c 0,1.334781 1.18261,2.517391 1.85,1.85 0.28417,-0.284166 -0.0158,-1.049166 -0.66667,-1.7 z M 172,44.877555 C 172,44.3949 170.87119,44 169.49153,44 c -2.23634,0 -2.37642,0.211458 -1.29121,1.949159 0.90393,1.447422 1.54964,1.673316 2.50848,0.877556 C 171.41896,46.237332 172,45.360211 172,44.877555 z m -25,0.0044 c 0,-0.55 -0.45,-0.721885 -1,-0.381966 -0.55,0.339919 -1,1.068034 -1,1.618034 0,0.55 0.45,0.721885 1,0.381966 0.55,-0.339919 1,-1.068034 1,-1.618034 z m 31,0.05902 C 178,44.423442 177.325,44 176.5,44 c -1.54641,0 -1.9867,1.179963 -0.86052,2.306147 C 176.43841,47.105078 178,46.201961 178,44.940983 z m -19.09455,-1.79515 c -1.4779,-0.507956 -2.22865,0.522198 -1.38059,1.894399 0.53766,0.86994 0.94308,0.822505 1.56809,-0.183469 0.49513,-0.796924 0.41776,-1.502902 -0.1875,-1.71093 z M 144.48787,41.98037 c -0.56061,-0.907076 -0.93223,-0.879419 -1.54689,0.115122 -1.05432,1.705934 -0.0185,3.38199 1.28476,2.078773 0.55,-0.55 0.66795,-1.537253 0.26213,-2.193895 z m 8.32463,1.08213 c 0.25,-0.75 -0.125,-1.125 -0.875,-0.875 -0.72188,0.240625 -1.50938,1.028125 -1.75,1.75 -0.25,0.75 0.125,1.125 0.875,0.875 0.72187,-0.240625 1.50937,-1.028125 1.75,-1.75 z m -3.35521,-2.131598 C 149.14086,40.418906 147.92252,40 146.74985,40 c -2.08072,0 -2.08559,0.03401 -0.20201,1.411324 2.00263,1.464355 3.91612,1.14839 2.90945,-0.480422 z m -7.32973,-0.604317 c 1.2198,-1.487307 1.12939,-1.610811 -0.81298,-1.110508 -1.43209,0.368869 -2.38814,0.0346 -2.77354,-0.969713 -0.32346,-0.842941 -0.87477,-1.245971 -1.22511,-0.895623 C 136.80809,37.858578 139.67336,42 140.53254,42 c 0.12242,0 0.84017,-0.753037 1.59502,-1.673415 z M 99.707261,29.761659 C 99.468068,28.517747 99.263283,29.3 99.252183,31.5 c -0.0111,2.2 0.184605,3.217747 0.434897,2.261659 0.250293,-0.956087 0.259374,-2.756087 0.02018,-4 z M 102.53765,25.25 c -0.37355,-1.5125 -1.12918,-3.2 -1.67918,-3.75 -0.938785,-0.938789 -0.2448,3.818475 0.83881,5.75 0.97232,1.733166 1.46989,0.548993 0.84037,-2 z m 5.75139,-8.324 C 108.68007,16.9667 109,16.775 109,16.5 c 0,-0.275 0,-0.95 0,-1.5 0,-0.55 -0.675,-1 -1.5,-1 -1.04006,0 -1.47845,0.99654 -1.42971,3.25 0.0516,2.385711 0.26142,2.764934 0.78904,1.426 0.39532,-1.003199 1.03869,-1.790699 1.42971,-1.75 z m 3.39407,-1.1135 c -0.31922,-0.797733 -0.55618,-0.560776 -0.60416,0.604167 -0.0434,1.054166 0.19292,1.644791 0.52522,1.3125 0.33229,-0.332292 0.36781,-1.194792 0.0789,-1.916667 z M 122,13.440983 C 122,12.648442 122.45,12 123,12 c 0.55,0 1,-0.389577 1,-0.865726 0,-0.480803 -1.88965,-0.500167 -4.25,-0.04355 -2.3375,0.452196 -4.61406,0.841773 -5.05902,0.865726 -0.44496,0.02395 -0.51194,0.524229 -0.14885,1.111725 0.3631,0.587495 1.25675,0.839244 1.98591,0.559441 0.72915,-0.279803 1.85962,0.134564 2.51215,0.920815 C 120.39386,16.179503 122,15.578548 122,13.440983 z M 74.652069,461 c 0.646008,-4.82061 2.18914,-9.58914 2.265255,-7 0.02425,0.825 -0.611192,3.75 -1.412101,6.5 l -1.456197,5 0.603043,-4.5 z M 202.3605,454 c 0,-5.225 0.16854,-7.3625 0.37454,-4.75 0.206,2.6125 0.206,6.8875 0,9.5 -0.206,2.6125 -0.37454,0.475 -0.37454,-4.75 z M 164,459.21788 c 0,-0.61349 -0.63757,-6.20099 -1.41682,-12.41666 -1.41384,-11.27743 -2.17406,-25.60629 -3.01358,-56.80122 -0.32158,-11.94915 -0.20514,-14.70724 0.42217,-10 0.47643,3.575 1.35409,17.525 1.95037,31 0.59628,13.475 1.55598,29.83476 2.13266,36.35502 0.57667,6.52025 0.79576,12.10775 0.48685,12.41666 C 164.25274,460.08059 164,459.83138 164,459.21788 z M 77.19936,450.5 c 0,-1.1 0.360288,-3.125 0.80064,-4.5 0.633973,-1.97958 0.80064,-2.08367 0.80064,-0.5 0,1.1 -0.360288,3.125 -0.80064,4.5 -0.633973,1.97958 -0.80064,2.08367 -0.80064,0.5 z M 202.232,441 c 0,-1.925 0.2058,-2.7125 0.45733,-1.75 0.25152,0.9625 0.25152,2.5375 0,3.5 -0.25153,0.9625 -0.45733,0.175 -0.45733,-1.75 z M 75.021454,432.25 C 78.25046,419.82424 85,385.12449 85,380.94975 c 0,-1.55745 0.468547,-3.12129 1.041216,-3.47522 0.70089,-0.43318 0.846346,1.26352 0.445017,5.19098 -0.73037,7.1475 -6.982579,39.96292 -8.923213,46.83449 -0.776642,2.75 -1.913383,6.9125 -2.526092,9.25 -0.612709,2.3375 -1.49539,4.25 -1.961514,4.25 -0.466123,0 0.409595,-4.8375 1.94604,-10.75 z M 265.75,434.61043 c -0.4125,-2.68927 -0.69162,-8.08927 -0.62026,-12 l 0.12973,-7.11043 0.89149,7.5 c 0.49033,4.125 0.76945,9.525 0.62027,12 l -0.27123,4.5 -0.75,-4.88957 z m -64.07716,1.66924 c -0.29008,-0.46937 -0.76248,-6.46181 -1.04977,-13.31654 L 200.10072,410.5 l 1.36255,13 c 1.31268,12.52427 1.34705,14.62015 0.20957,12.77967 z m 9.00501,-8.52967 c -4.48822,-11.96775 -9.87013,-52.2123 -9.52828,-71.25 0.12982,-7.22917 0.21876,-6.82179 0.92307,4.22795 1.75946,27.60359 6.96691,61.58028 10.47907,68.37205 0.82481,1.595 1.09923,2.9 0.60983,2.9 -0.4894,0 -1.60706,-1.9125 -2.48369,-4.25 z m 71.3301,-6.22909 c -0.5764,-1.51606 -1.46356,-8.89097 -1.97146,-16.38869 -1.10843,-16.36302 -4.56216,-33.37778 -10.07456,-49.63222 -2.23827,-6.6 -5.79457,-18.075 -7.90289,-25.5 -2.10831,-7.425 -5.64697,-18.225 -7.86369,-24 -5.11606,-13.32842 -18.89097,-62.63771 -17.8024,-63.72629 0.57771,-0.5777 3.60427,9.16457 10.599,34.11737 3.37506,12.04009 7.85513,26.21509 9.9557,31.5 2.10057,5.28491 5.02843,14.10892 6.50635,19.60892 1.47793,5.5 4.89225,16.525 7.58739,24.5 5.4041,15.99088 10.9364,41.34247 10.94992,50.17764 0.005,3.1227 0.48887,9.13002 1.07576,13.3496 1.12694,8.10236 0.68769,10.58812 -1.05912,5.99367 z M 107.16997,407 c 0.0162,-0.825 0.38968,-2.625 0.83003,-4 0.64363,-2.00973 0.8064,-2.10779 0.83003,-0.5 0.0162,1.1 -0.35734,2.9 -0.83003,4 -0.52653,1.22531 -0.84804,1.41898 -0.83003,0.5 z M 109,399.72529 c 0,-0.33442 2.21731,-9.52192 4.92735,-20.41667 2.71004,-10.89474 5.2443,-21.60862 5.63168,-23.80862 0.38739,-2.2 1.34344,-5.125 2.12456,-6.5 l 1.42023,-2.5 -0.65516,3 C 117.18228,373.61512 109,404.17262 109,399.72529 z M 75.47086,365.25 c 1.441776,-3.68424 5.50408,-20.12779 7.047494,-28.52711 0.887059,-4.82741 3.610983,-15.85241 6.053164,-24.5 C 91.013699,303.5753 93.718118,292.675 94.581338,288 96.91933,275.33797 99.558603,265.58757 103.48306,255.11392 105.56078,249.56885 107,243.91787 107,241.3049 c 0,-3.01758 0.35691,-4.20235 1.12328,-3.72871 1.86267,1.15119 0.32322,9.10797 -4.04825,20.92381 -2.2383,6.05 -4.803985,15.05 -5.701519,20 -0.897535,4.95 -3.16454,14.85 -5.037791,22 -3.541933,13.51919 -7.916669,31.55425 -11.400711,47 -2.992338,13.26588 -4.94664,19.5 -6.112956,19.5 -0.58092,0 -0.735193,-0.76875 -0.351193,-1.75 z m 31.20319,-6.75 c 0.33782,-2.2 2.09546,-8.68876 3.90588,-14.41947 1.81041,-5.7307 4.55805,-16.86809 6.10586,-24.74975 1.54782,-7.88166 3.15171,-14.3304 3.56421,-14.33054 1.26109,-4.1e-4 0.84975,2.89822 -2.69623,18.99976 -3.22064,14.6243 -12.20002,43.09823 -10.87972,34.5 z m 48.96302,-27.71937 c -0.34924,-11.15435 -0.91689,-24.21813 -1.26143,-29.03063 -0.38785,-5.41734 -0.25696,-8.75 0.34365,-8.75 1.74204,0 3.65383,55.96021 1.96934,57.6447 -0.22911,0.22911 -0.70231,-8.70972 -1.05156,-19.86407 z m 79.93912,12.97046 c -0.37369,-2.3369 -3.0977,-11.6744 -6.05336,-20.75 -2.95566,-9.0756 -5.8577,-18.97609 -6.44897,-22.00109 -1.45729,-7.45564 -8.08975,-54.3744 -8.01047,-56.66699 0.17459,-5.04878 2.00242,4.04802 4.38051,21.80101 4.21036,31.4314 5.44621,37.45336 11.56765,56.36598 6.31917,19.52353 7.77873,25.5 6.22755,25.5 -0.54092,0 -1.28923,-1.91201 -1.66291,-4.24891 z M 168.64075,331.89313 C 168.41728,331.12691 167.71401,325.775 167.07793,320 c -0.63607,-5.775 -1.35363,-12.075 -1.59457,-14 -0.40223,-3.2137 -0.31396,-3.1319 1.07914,1 0.83447,2.475 1.87312,9.225 2.30812,15 0.75005,9.95762 0.67914,13.00975 -0.22987,9.89313 z m 31.348,-92.42272 c -2.73311,-7.18862 -8.96744,-35.89172 -8.00479,-36.85437 0.68805,-0.68805 1.01604,0.0382 1.01604,2.24977 0,3.28382 3.50872,18.13033 7.09858,30.03638 1.94729,6.45831 1.86767,9.76945 -0.10983,4.56822 z m 37.38554,-2.93742 c -0.30962,-0.80686 -0.11624,-2.71936 0.42974,-4.25 0.92608,-2.59623 0.98526,-2.49778 0.88184,1.46701 -0.118,4.52401 -0.40765,5.1386 -1.31158,2.78299 z M 153.19848,209 c -0.0449,-3.025 -0.78289,-7.46908 -1.64003,-9.87573 -1.79576,-5.04204 -1.85505,-5.42561 -0.73124,-4.73106 0.45496,0.28118 1.63631,3.18352 2.62521,6.44963 1.40287,4.63339 1.5815,6.78652 0.81283,9.79778 l -0.98517,3.85938 -0.0816,-5.5 z m -8.53181,-30.66667 c -0.96508,-0.96507 -0.68675,-8.48673 0.40088,-10.83333 0.69024,-1.48924 0.84142,-0.8508 0.59199,2.5 -0.18424,2.475 0.0309,5.5125 0.47799,6.75 0.77313,2.13975 -0.0396,3.01461 -1.47086,1.58333 z m 15.85356,-2.30059 c -0.74241,-1.20125 0.52867,-11.31717 1.3223,-10.52355 0.3168,0.3168 0.47809,2.46934 0.35842,4.78341 l -0.21757,4.2074 2.04944,-3.7836 c 2.37353,-4.38193 3.47211,-4.16889 4.41481,0.85614 0.50013,2.6659 1.06773,3.44367 2.19692,3.01036 0.94684,-0.36333 1.36511,-0.11134 1.10614,0.66642 -0.97352,2.92384 -3.53911,1.80786 -4.47722,-1.94749 l -0.94973,-3.80183 -1.84708,3.75 c -1.87766,3.81208 -2.88317,4.5193 -3.95643,2.78274 z M 138.60439,174.25 c -0.83671,-2.76073 -0.39818,-8.25 0.65908,-8.25 0.5584,0 0.67885,1.49395 0.28829,3.5758 -0.4188,2.23241 -0.22677,4.11086 0.51115,5 0.76255,0.91882 0.80759,1.4242 0.12692,1.4242 -0.58028,0 -1.29373,-0.7875 -1.58544,-1.75 z m -9.96491,-2.94385 c -0.35171,-0.35172 -0.60395,-1.57698 -0.56053,-2.72282 0.0556,-1.46823 0.24753,-1.64046 0.64994,-0.58333 0.31405,0.825 1.00157,1.78125 1.52782,2.125 0.60712,0.39658 0.6033,0.84349 -0.0105,1.22281 -0.532,0.3288 -1.25505,0.31005 -1.60676,-0.0417 z M 135.116,168.75 c 0.0638,-1.7875 0.32286,-2.45699 0.57568,-1.48776 0.25283,0.96924 0.92052,1.47743 1.48377,1.12933 0.61452,-0.3798 0.57018,0.21521 -0.11087,1.48775 -1.57779,2.94813 -2.08365,2.65495 -1.94858,-1.12932 z M 121.5,151 c -0.38132,-0.61699 1.22388,-0.97308 4.19098,-0.92971 3.60725,0.0527 4.30922,0.28505 2.80902,0.92971 -2.77927,1.19429 -6.26189,1.19429 -7,0 z m 80.96172,-3.49884 c 4.05935,-1.44583 6.14142,-1.12669 3.50932,0.5379 -0.80907,0.51167 -2.82104,0.91745 -4.47104,0.90173 -2.89501,-0.0276 -2.86136,-0.078 0.96172,-1.43963 z M 123,145 c 0,-1.12552 2.07676,-1.12552 6.5,0 2.67786,0.6814 2.48995,0.77607 -1.75,0.88169 C 125.1375,145.94676 123,145.55 123,145 z m 71.60344,-0.83263 c -0.66849,-1.08164 8.61251,-3.61297 10.61794,-2.89597 0.70324,0.25143 -0.66203,0.99315 -3.03393,1.64826 -2.3719,0.65511 -4.91388,1.42187 -5.64885,1.7039 -0.73496,0.28203 -1.60579,0.0768 -1.93516,-0.45619 z M 190.55,139.13291 C 191.32689,138.42383 200.54577,135 201.67814,135 c 0.17702,0 0.32186,0.38886 0.32186,0.86414 0,0.47528 -1.92754,1.60028 -4.28343,2.5 -4.62169,1.76504 -8.74241,2.20708 -7.16657,0.76877 z m -63.44518,-3.21778 c -1.31735,-0.52695 -2.13703,-1.21625 -1.82151,-1.53177 0.85296,-0.85296 6.71669,0.62775 6.71669,1.6961 0,1.14475 -1.77119,1.0853 -4.89518,-0.16433 z M 184.9682,129.75 c -0.0303,-2.14399 -0.0978,-2.16283 -1.43347,-0.39986 -0.80137,1.05777 -1.91342,1.53385 -2.59661,1.11162 -0.87306,-0.53959 -0.76713,-0.97795 0.39325,-1.62733 0.87351,-0.48884 1.88138,-2.45157 2.23971,-4.36162 0.94187,-5.02062 2.41826,-4.26422 2.49287,1.27719 l 0.064,4.75 1.61747,-3.25 c 1.813,-3.64288 3.25462,-4.2282 3.25462,-1.32143 0,1.06072 0.67845,2.60702 1.50767,3.43624 0.82922,0.82922 1.10521,1.75641 0.61331,2.06042 -0.96437,0.59602 -2.54026,-1.00884 -3.36341,-3.42523 -0.34203,-1.00402 -0.75292,-0.59071 -1.24268,1.25 -0.87932,3.3048 -3.50182,3.67451 -3.54669,0.5 z m -27.03174,-2.41713 -1.01404,-2.66712 -1.51791,2.16712 C 153.65615,129.329 152,129.66879 152,127.53138 c 0,-0.89459 -0.58629,-1.24363 -1.5,-0.89301 -1.21776,0.4673 -1.47181,-0.33829 -1.35017,-4.28138 0.0865,-2.80455 0.32364,-3.71808 0.56113,-2.16183 0.28168,1.84575 0.86478,2.52114 1.85017,2.14301 1.03928,-0.39881 1.43887,0.22025 1.43887,2.22916 l 0,2.7813 2.33198,-2.19078 2.33198,-2.19079 1.38593,2.76647 c 0.76227,1.52156 1.55037,3.10397 1.75136,3.51647 0.20098,0.4125 -0.13322,0.75 -0.74267,0.75 -0.60944,0 -1.5644,-1.20021 -2.12212,-2.66713 z M 137,126.5 c 0,-1.43146 -0.26731,-1.52304 -1.48817,-0.50982 -1.20145,0.99711 -1.60201,0.93838 -2.07908,-0.30483 -0.325,-0.84694 -0.39161,-2.58512 -0.14801,-3.86262 0.3766,-1.97508 0.46328,-1.88793 0.57908,0.58226 0.13314,2.84008 0.18086,2.86455 2.13618,1.09501 1.85143,-1.67552 2,-1.68265 2,-0.096 0,0.9427 0.45,1.43589 1,1.09597 1.58198,-0.97772 1.16236,1.12036 -0.5,2.5 -1.23586,1.02568 -1.5,0.93763 -1.5,-0.5 z m 4.6875,0.85417 c -0.37813,-0.37813 -0.67155,-1.85 -0.65206,-3.27084 l 0.0354,-2.58333 1.33077,2.40139 c 0.99266,1.79126 1.48732,2.04533 1.94693,1 0.38969,-0.88631 0.53076,-0.69675 0.3838,0.51574 -0.2465,2.03372 -1.89774,3.08417 -3.04487,1.93704 z M 129.0856,123 c -0.0302,-0.825 0.38124,-2.175 0.9144,-3 1.18132,-1.82797 1.18132,-0.24909 0,2.5 -0.56668,1.31874 -0.87815,1.48906 -0.9144,0.5 z m 4.69463,-7.04403 c -0.24572,-1.67421 -0.0718,-3.27577 0.3865,-3.55902 0.4583,-0.28324 0.83327,1.08657 0.83327,3.04403 0,4.36113 -0.61704,4.62164 -1.21977,0.51499 z M 131,117.05902 c 0,-0.51754 0.44485,-1.21592 0.98855,-1.55194 0.56686,-0.35034 0.7345,0.0511 0.39301,0.94098 C 131.71677,118.18048 131,118.49745 131,117.05902 z m 16.48233,-10.49383 c -0.90975,-4.08915 -1.46602,-8.251649 -1.23617,-9.250002 0.22986,-0.998354 1.00421,1.008271 1.72078,4.459162 1.31451,6.33048 3.03306,9.23037 3.03306,5.118 0,-1.22413 0.26968,-1.95601 0.59928,-1.6264 0.8551,0.8551 -0.60537,8.73405 -1.61897,8.73405 -0.46414,0 -1.58823,-3.34567 -2.49798,-7.43481 z m 49.18731,2.18481 c -1.28616,-5.28871 -1.93083,-15.029458 -0.95477,-14.426219 0.55384,0.342293 1.2506,3.657316 1.54836,7.366719 0.29775,3.7094 1.03814,6.90996 1.6453,7.11234 0.60716,0.20239 0.84957,0.77955 0.53868,1.28257 -0.98107,1.58742 -2.21052,0.99632 -2.77757,-1.33541 z m -42.69682,-4.85094 c -1.21111,-4.497716 -0.5477,-6.626429 0.87081,-2.79424 0.85193,2.30152 0.91643,2.25831 1.64926,-1.10482 0.94954,-4.357622 2.47207,-6.455771 4.82586,-6.650347 1.22566,-0.101319 1.63328,0.332972 1.25,1.331788 C 162.25594,95.496614 162,97.701771 162,99.581787 162,101.4618 161.55,103 161,103 c -0.55,0 -1,-1.60156 -1,-3.559017 0,-5.075112 -1.6655,-3.369223 -3.00362,3.076457 -0.626,3.01541 -1.31393,5.48256 -1.52873,5.48256 -0.21481,0 -0.88748,-1.84542 -1.49483,-4.10094 z m -12.94283,-4.274048 c -0.93864,-3.912699 -1.68751,-5.36749 -2.3975,-4.657503 -1.6505,1.650497 -2.62909,1.205375 -2.67669,-1.217509 -0.0365,-1.855891 -0.39095,-1.593152 -2.02389,1.5 -1.08883,2.0625 -2.41894,3.75 -2.9558,3.75 C 130.43925,99 130,96.075 130,92.5 c 0,-3.666667 0.4359,-6.5 1,-6.5 0.55,0 1.00168,2.1375 1.00374,4.75 l 0.004,4.75 2.0987,-3.44263 c 1.81342,-2.974649 2.22748,-3.212539 3.04596,-1.75 0.52098,0.930947 1.56761,1.69263 2.32583,1.69263 1.44921,0 4.13773,9.6529 3.34821,12.02145 -0.23715,0.71146 -1.04544,-1.26694 -1.79619,-4.396438 z m 51.6003,3.124988 c -0.67427,-2.51602 -0.85628,-10.316001 -0.22558,-9.666667 0.2226,0.229167 0.68318,2.216667 1.02352,4.416667 0.34035,2.2 0.86355,4.7875 1.16268,5.75 0.29912,0.9625 0.11603,1.75 -0.40689,1.75 -0.52292,0 -1.2221,-1.0125 -1.55373,-2.25 z M 201,99.047053 C 201,96.63782 203.04116,92 204.1015,92 c 0.42926,0 1.05858,0.45 1.3985,1 0.33992,0.55 0.16187,1 -0.39567,1 -0.55754,0 -1.30918,1.575 -1.67031,3.5 C 202.73588,101.22141 201,102.32473 201,99.047053 z m -13.39301,-0.62884 C 186.62199,95.851355 186.91377,89 188.00808,89 c 0.55444,0 0.93415,1.954249 0.84381,4.342775 -0.0904,2.388526 0.15758,4.863526 0.55094,5.5 0.39336,0.636474 0.28679,1.157225 -0.23682,1.157225 -0.52362,0 -1.22518,-0.711804 -1.55902,-1.581787 z M 182.34745,95.5 c 0.3468,-2.2 0.63549,-5.039058 0.64154,-6.309017 0.006,-1.269959 0.44627,-2.040011 0.97826,-1.711227 0.53198,0.328785 0.74747,1.817843 0.47887,3.309017 -0.26861,1.491175 -0.61727,3.712131 -0.77481,4.935457 -0.15754,1.223327 -0.66173,2.573327 -1.12041,3 C 182.09221,99.150904 182.00066,97.7 182.34745,95.5 z"
     id="path8928"
     inkscape:connector-curvature="0" />
  <path
     style="fill:#0a0a0a;fill-opacity:0.38947371;stroke:none"
     d="m 134.92294,35.075051 c 25.23163,10.341485 42.92158,8.663409 59.83367,5.745617 L 167.61352,76.681244 C 163.10633,68.848474 156.90553,63.725496 151.16917,57.859395 141.95072,50.794053 137.47648,43.068247 134.92294,35.075051 z"
     id="path9440"
     inkscape:connector-curvature="0"
     sodipodi:nodetypes="ccccc" />
</svg>
