<?xml version="1.0" encoding="UTF-8" standalone="no"?>
<!-- Created with Inkscape (http://www.inkscape.org/) -->

<svg
   xmlns:dc="http://purl.org/dc/elements/1.1/"
   xmlns:cc="http://creativecommons.org/ns#"
   xmlns:rdf="http://www.w3.org/1999/02/22-rdf-syntax-ns#"
   xmlns:svg="http://www.w3.org/2000/svg"
   xmlns="http://www.w3.org/2000/svg"
   xmlns:sodipodi="http://sodipodi.sourceforge.net/DTD/sodipodi-0.dtd"
   xmlns:inkscape="http://www.inkscape.org/namespaces/inkscape"
   id="svg14328"
   version="1.1"
   inkscape:version="0.48.4 r9939"
   width="491.64575"
   height="309.34534"
   sodipodi:docname="Earmuffs.svg">
  <metadata
     id="metadata14334">
    <rdf:RDF>
      <cc:Work
         rdf:about="">
        <dc:format>image/svg+xml</dc:format>
        <dc:type
           rdf:resource="http://purl.org/dc/dcmitype/StillImage" />
        <dc:title />
      </cc:Work>
    </rdf:RDF>
  </metadata>
  <defs
     id="defs14332" />
  <sodipodi:namedview
     pagecolor="#ffffff"
     bordercolor="#666666"
     borderopacity="1"
     objecttolerance="10"
     gridtolerance="10"
     guidetolerance="10"
     inkscape:pageopacity="0"
     inkscape:pageshadow="2"
     inkscape:window-width="1280"
     inkscape:window-height="741"
     id="namedview14330"
     showgrid="false"
     inkscape:zoom="1.1400966"
     inkscape:cx="249.07241"
     inkscape:cy="158.38256"
     inkscape:window-x="0"
     inkscape:window-y="22"
     inkscape:window-maximized="0"
     inkscape:current-layer="svg14328"
     fit-margin-top="0"
     fit-margin-left="0"
     fit-margin-right="0"
     fit-margin-bottom="0" />
  <path
     style="fill:#cc4821;fill-opacity:1;stroke:none"
     d="m 45.445732,147.75498 c 5.686404,-47.967518 45.947711,-75.165167 83.730628,-66.321278 76.80942,32.684518 58.98813,95.269388 43.10883,121.865358 -30.99793,44.95398 -67.8758,31.52846 -89.837671,21.55513 C 58.042367,213.77132 39.179175,188.4412 45.445732,147.75498 z"
     id="path14340"
     inkscape:connector-curvature="0"
     sodipodi:nodetypes="cccsc" />
  <path
     style="fill:#cc4821;fill-opacity:1;stroke:none"
     d="m 184.72043,255.52707 c 8.43894,-7.47444 14.38826,-15.88248 16.58033,-25.6995 l 9.94819,-24.87048 14.92229,-14.09328 c 44.81363,33.02346 93.13421,40.20553 117.62691,46.38106 42.54249,10.72655 46.9602,10.71906 87.8182,8.1501 13.11442,-1.52051 19.60595,-9.66392 26.67939,-17.22543 -4.80736,-17.20296 -12.00595,-34.02835 -31.50262,-48.91195 -50.72293,-28.64831 -114.80734,-51.78937 -185.69959,-72.12439 -4.42929,-17.132998 2.20803,-34.265998 3.31605,-51.398996 60.84923,16.660602 139.55854,38.582948 201.30005,78.463426 24.11137,24.84722 54.70514,45.90283 39.11462,93.97191 -12.72829,27.61248 -23.59917,55.55516 -70.46638,77.0985 C 341.51225,314.58906 261.775,275.6687 184.72043,255.52707 z"
     id="path14850"
     inkscape:connector-curvature="0"
     sodipodi:nodetypes="ccccsccccccccc" />
  <path
     style="fill:#000000"
     d="m 367.136,307.80422 c -18.6706,-1.67581 -70.44568,-14.29962 -96.40615,-23.50579 -75.85522,-26.89994 -84.04358,-29.41586 -88.36946,-27.15198 -2.3377,1.22339 -4.75602,1.71869 -5.37404,1.10067 -0.61802,-0.61802 1.40598,-2.43181 4.49776,-4.03064 6.91544,-3.5761 15.52338,-13.52911 15.52338,-17.94903 0,-3.66126 5.51625,-11.89575 5.61084,-8.37566 0.0331,1.23054 1.97406,2.60218 4.31332,3.04806 3.12158,0.59504 2.91094,0.72156 -0.79168,0.47549 -3.96513,-0.26351 -5.23236,0.6454 -5.92077,4.24658 -0.83692,4.37805 -0.52842,4.53436 6.93521,3.5142 4.2961,-0.58723 6.45881,-0.46725 4.80602,0.26659 -2.14504,0.95241 -2.95654,3.76776 -2.83548,9.83722 l 0.16956,8.50293 21.73865,7.75299 c 11.95625,4.26413 24.85944,9.13943 28.67374,10.83401 11.70461,5.19994 45.9578,14.51668 46.58848,12.67187 0.32708,-0.95677 1.81083,-1.27292 3.29719,-0.70256 1.48637,0.57039 2.31121,1.67017 1.83296,2.44397 -0.47823,0.7738 10.37234,4.06345 24.11241,7.31029 31.78277,7.51046 59.9859,9.43707 76.02047,5.1931 13.27131,-3.51259 34.40808,-17.34167 43.1882,-28.25662 3.27802,-4.07506 8.15558,-10.04647 10.83902,-13.2698 2.68344,-3.22331 8.34906,-12.24041 12.59027,-20.03796 12.5916,-23.14992 12.56574,-44.24376 -0.0849,-69.20857 -8.06644,-15.9184 -35.38554,-40.30679 -58.05893,-51.83056 C 386.08845,103.43115 275.07578,62.34853 254.31626,59.356327 l -7.90717,-1.13971 -1.00166,8.10625 c -0.55092,4.458438 -1.49222,11.0835 -2.09179,14.72236 -2.96738,18.009845 -3.02961,24.574113 -0.23293,24.574113 1.5201,0 4.32201,0.55655 6.22646,1.23678 2.51524,0.89838 1.99792,-0.33792 -1.89071,-4.51843 -3.43958,-3.697778 -4.61116,-6.213928 -3.27722,-7.038348 1.14188,-0.70572 1.47367,-2.28766 0.73729,-3.51541 -0.76272,-1.27169 0.0374,-1.11588 1.85949,0.36208 1.75909,1.42689 3.20152,1.85221 3.20541,0.94515 0.004,-0.90705 1.70516,1.13595 3.78063,4.54003 5.41402,8.879818 4.65268,9.818998 -1.82056,2.2458 -3.07677,-3.59959 -5.6287,-5.64055 -5.67095,-4.53547 -0.10907,2.85307 10.32122,12.481878 11.85713,10.945978 0.7013,-0.70129 2.76893,0.0362 4.59473,1.63883 1.8258,1.60265 14.10226,6.42024 27.28102,10.70575 13.17876,4.2855 25.40627,8.34629 27.17226,9.02396 2.96778,1.13885 2.95901,0.84773 -0.11588,-3.84517 -1.82973,-2.79251 -2.96159,-5.44249 -2.51523,-5.88884 0.44634,-0.44634 2.28316,1.91947 4.08181,5.25737 2.10744,3.9109 6.11802,7.24519 11.27888,9.37696 10.36378,4.28091 11.3575,4.17509 8.87623,-0.94516 -1.97924,-4.08427 -1.94434,-4.10746 0.87864,-0.58386 1.61688,2.01814 2.93976,4.19986 2.93976,4.84826 0,0.6484 2.9968,2.60798 6.65955,4.35463 l 6.65955,3.17571 -3.10207,-6.13366 c -1.70614,-3.37351 -5.21417,-8.95412 -7.79561,-12.40134 -2.58143,-3.44723 -4.30867,-6.65255 -3.83829,-7.12293 1.12539,-1.12538 9.70695,11.50389 13.91565,20.4793 1.82818,3.89878 3.95713,7.08869 4.73097,7.08869 0.77384,0 12.31263,4.63398 25.64175,10.29775 13.32911,5.66376 24.52416,9.4741 24.87785,8.46741 0.35372,-1.00668 -1.12126,-5.21534 -3.27771,-9.35259 -2.15647,-4.13724 -3.1542,-7.52226 -2.21721,-7.52226 0.93701,0 3.17193,4.04055 4.96652,8.97901 3.28534,9.04075 10.54277,17.64833 11.77167,13.96164 0.36099,-1.083 -1.05463,-5.83705 -3.14583,-10.56454 -2.0912,-4.72751 -3.09999,-8.59547 -2.24174,-8.59547 0.85824,0 3.575,5.6802 6.03723,12.62267 2.46223,6.94248 5.49693,12.95348 6.74375,13.35776 2.48045,0.80431 0.94353,-6.53589 -3.10888,-14.84763 -2.126,-4.36058 -2.09747,-4.38602 0.82516,-0.73606 1.66501,2.07934 3.92634,7.34347 5.02519,11.69805 2.03934,8.08176 9.16896,17.17893 9.16896,11.69932 0,-1.48931 -1.40368,-4.71184 -3.11925,-7.1612 -2.24568,-3.20615 -2.41112,-4.21732 -0.59073,-3.61051 2.42662,0.80887 3.48306,3.26651 6.76133,15.72908 1.40775,5.35168 1.55998,5.13883 2.70385,-3.78063 l 1.21211,-9.45158 0.29699,10.71471 c 0.16332,5.8931 0.9116,12.27292 1.66281,14.17737 1.13321,2.87283 1.57812,2.49666 2.61184,-2.20828 1.17101,-5.32985 1.26116,-5.21614 1.49856,1.89031 0.34474,10.31928 3.79268,15.68113 4.2545,6.61611 0.25752,-5.05446 0.63779,-4.16208 1.61116,3.78064 1.13683,9.27674 1.30728,9.5878 1.58219,2.88744 0.28759,-7.00907 0.48462,-7.25731 2.95765,-3.72657 2.24244,3.20155 2.26204,5.22653 0.12759,13.18025 -1.38705,5.16864 -2.57933,8.70258 -2.64952,7.85323 -0.0701,-0.84936 -3.74281,1.37745 -8.16142,4.94849 -12.71569,10.27653 -16.13819,11.41403 -35.44344,11.77994 -24.52998,0.46494 -43.08637,-1.8192 -77.11875,-9.49272 -50.88343,-11.47303 -98.83211,-29.7626 -111.66186,-42.59235 -5.01673,-5.01673 -5.52563,-6.42768 -3.87969,-10.75683 1.04194,-2.74051 1.3939,-7.59955 0.78214,-10.79787 -1.05382,-5.5094 -0.95854,-5.62222 1.81224,-2.14579 3.2966,4.13616 3.68291,8.27288 1.14684,12.28088 -10.57744,16.71656 106.39155,57.12486 173.79654,60.04005 28.17464,1.21852 36.25667,-0.55139 47.09004,-10.3124 l 7.85567,-7.07806 -8.09712,-16.06769 c -11.26856,-22.361 -21.51742,-32.14832 -45.52064,-43.4706 -43.97198,-20.7415 -128.54918,-52.00962 -152.41332,-56.34707 l -9.59158,-1.74332 -0.29328,5.88547 c -1.05604,21.19188 -1.4481,22.94251 -5.9747,26.67896 -2.51908,2.07935 -5.0494,5.0566 -5.62296,6.61611 -0.57691,1.56865 -1.10948,0.43389 -1.19203,-2.53987 -0.10492,-3.77551 0.92395,-5.65598 3.45663,-6.31829 1.98323,-0.51863 4.09821,-2.77826 4.69997,-5.0214 1.61826,-6.0323 1.37568,-9.16948 -0.61396,-7.93981 -0.96784,0.59816 -2.23891,0.31217 -2.82462,-0.63552 -0.5857,-0.94769 0.20616,-2.21083 1.7597,-2.80698 1.55353,-0.59615 2.82462,-3.36905 2.82462,-6.16201 0,-4.95835 -0.0892,-4.99742 -3.78063,-1.65666 -2.6604,2.40761 -3.78064,5.82211 -3.78064,11.52331 0,4.45604 -0.69673,8.53249 -1.54828,9.05878 -0.85155,0.52628 -1.1881,-1.49708 -0.7479,-4.49637 0.44019,-2.99928 -0.52088,-8.10174 -2.13572,-11.33878 -2.82812,-5.66909 -2.79563,-5.84095 0.88338,-4.67328 6.50241,2.06379 10.7477,-3.65168 10.07906,-13.5695 -0.31862,-4.725938 -1.07815,-9.091468 -1.68785,-9.701178 -0.6097,-0.6097 -3.61557,0.74497 -6.67972,3.01039 -3.06412,2.26541 -6.19617,4.11893 -6.9601,4.11893 -0.76392,0 1.4935,-2.1266 5.0165,-4.72579 3.523,-2.59919 7.42393,-4.72579 8.66875,-4.72579 2.99231,0 5.03606,-7.879982 5.54259,-21.370239 0.37164,-9.897729 -0.13364,-11.519222 -5.15474,-16.540272 -5.02127,-5.02125 -5.19124,-5.566777 -1.73467,-5.566777 2.10765,0 4.62943,1.424715 5.6039,3.166031 0.9745,1.741317 2.93071,3.337124 4.34715,3.546237 22.0147,3.250087 80.29048,23.005025 143.65808,48.698728 42.04611,17.04847 50.54412,22.1601 73.83591,44.41294 23.32985,22.2892 31.11026,40.18176 29.39913,67.60901 -0.8306,13.31345 -1.93132,17.18714 -7.93362,27.92025 -3.83305,6.85417 -9.67562,15.43309 -12.98347,19.06428 -3.30783,3.63118 -9.41682,10.57571 -13.57552,15.4323 -12.62342,14.7418 -27.77185,25.1604 -42.5284,29.24964 -13.79155,3.82185 -20.70939,4.06851 -47.26165,1.68528 z M 206.45907,255.01368 c 0,-1.00703 -1.27596,-1.34135 -2.83547,-0.74291 -1.55951,0.59845 -2.83548,1.42239 -2.83548,1.831 0,0.40859 1.27597,0.74291 2.83548,0.74291 1.55951,0 2.83547,-0.82395 2.83547,-1.831 z m -0.84336,-4.00465 c 0.69855,-1.13028 0.12495,-3.04423 -1.27468,-4.25322 -1.39961,-1.20901 -1.89425,-1.39176 -1.09922,-0.40611 0.79503,0.98565 -0.49511,2.86944 -2.86698,4.18624 l -4.3125,2.39414 4.14165,0.0669 c 2.27791,0.0369 4.71318,-0.85777 5.41173,-1.98803 z m -5.98062,-4.42119 c -0.71129,-1.85357 0.63584,-2.94606 4.31253,-3.49741 l 5.34693,-0.80183 -5.68881,-0.28323 c -3.85209,-0.19177 -6.45115,0.93743 -8.04988,3.49741 -2.06209,3.30195 -1.88784,3.78063 1.37628,3.78063 2.45925,0 3.38359,-0.92183 2.70295,-2.69557 z m 96.72299,38.78788 c -0.58263,-0.94272 0.64312,-1.26882 2.72391,-0.72469 4.41387,1.15425 4.97182,2.43872 1.05933,2.43872 -1.49815,0 -3.20061,-0.77131 -3.78324,-1.71403 z m -161.73104,-6.12644 c -4.11072,-3.42204 -6.53721,-3.81806 -18.64351,-3.04282 -13.05682,0.8361 -13.54036,0.73255 -7.81682,-1.67401 8.76093,-3.6837 18.85802,-3.15233 26.2991,1.38403 7.80589,4.75874 11.27833,3.60132 23.78677,-7.92857 4.68042,-4.31425 8.50985,-7.05198 8.50985,-6.08385 0,3.44258 -21.35979,21.45976 -25.30163,21.34216 -1.15938,-0.0346 -4.23457,-1.83321 -6.83376,-3.99694 z m 147.20358,0.75178 c -2.25441,-2.8746 -2.22283,-3.03171 0.24113,-1.19897 1.55951,1.15999 4.11144,2.58145 5.67095,3.15881 2.37187,0.87811 2.33244,1.07414 -0.24113,1.19897 -1.69212,0.082 -4.24405,-1.33938 -5.67095,-3.15881 z M 75.56267,277.49125 c -1.826198,-1.06376 -3.83878,-5.29155 -4.506364,-9.46637 -0.877315,-5.48645 -2.555161,-8.27713 -6.151564,-10.23162 -3.817343,-2.07459 -4.162402,-2.7048 -1.512896,-2.76321 5.739645,-0.12646 10.743597,3.60155 10.770855,8.02466 0.05879,9.5237 2.088951,12.68828 8.228511,12.82601 3.257678,0.0731 7.624347,0.86391 9.703696,1.75744 2.870257,1.2334 1.732305,1.64275 -4.725792,1.69999 -4.678534,0.0414 -9.99144,-0.78965 -11.806446,-1.8469 z m 195.81949,-0.87977 c -0.61566,-1.60435 -0.58895,-3.44741 0.0594,-4.09568 0.64829,-0.64828 1.17869,0.16824 1.17869,1.81431 0,1.64614 1.0633,3.42206 2.3629,3.94645 1.85073,0.74679 1.83788,0.9858 -0.0594,1.10268 -1.33224,0.082 -2.92595,-1.16341 -3.54158,-2.76776 z m -12.62488,-5.11685 c -0.91474,-3.63059 -0.73947,-3.81384 1.19727,-1.25182 1.24787,1.65076 3.54483,3.49756 5.10435,4.10397 1.9835,0.77131 1.62376,1.14744 -1.19727,1.25183 -2.6738,0.0989 -4.39386,-1.284 -5.10435,-4.10398 z m -7.5607,-0.78763 c -0.69312,-0.69311 -1.23436,-2.60705 -1.20273,-4.25322 0.0472,-2.45798 0.41607,-2.37631 2.06358,0.45684 2.03545,3.50028 1.44535,6.1026 -0.86085,3.79638 z m -8.84659,-8.25197 c -3.29528,-7.95548 -1.60036,-8.48025 2.14893,-0.66536 1.68796,3.5183 2.42913,6.39691 1.64707,6.39691 -0.78204,0 -2.49024,-2.5792 -3.796,-5.73155 z m -18.93952,-6.65494 c -2.28273,-3.69355 -3.77937,-7.08659 -3.32584,-7.54011 0.45352,-0.45353 2.73158,2.56846 5.06236,6.71554 5.25293,9.34631 3.92107,9.97873 -1.73652,0.82457 z m 9.56578,3.94362 c -1.26527,-1.52456 -2.0074,-3.62336 -1.64919,-4.664 0.35822,-1.04064 1.63456,0.20672 2.83633,2.77192 2.49109,5.31724 2.13135,5.89061 -1.18714,1.89208 z m -18.86107,-4.61213 c -1.09183,-2.04012 -1.93124,-5.25385 -1.86533,-7.14164 0.0898,-2.57243 0.58696,-2.26174 1.98448,1.24011 1.02557,2.56983 2.76373,5.22809 3.86263,5.90724 1.40318,0.86722 1.40339,1.60229 6.8e-4,2.46921 -1.09852,0.6789 -2.89061,-0.4348 -3.98246,-2.47492 z M 43.694461,252.43794 c -7.546069,-3.38645 -11.144532,-7.01618 -11.144532,-11.2414 0,-2.11383 -2.126607,-6.63146 -4.725792,-10.03917 -5.693559,-7.46463 -5.953213,-9.1283 -1.011982,-6.48384 2.042601,1.09317 5.232511,6.31141 7.088688,11.59607 2.694987,7.6728 4.802936,10.34007 10.463566,13.23989 10.095898,5.17193 9.558972,7.51887 -0.669948,2.92845 z m 55.961715,-19.0448 C 92.378455,231.02276 83.486008,227.56239 79.8952,225.70341 71.758558,221.49107 47.985537,197.41416 45.471057,190.8392 c -3.209985,-8.39353 -4.178413,-36.84918 -1.689641,-49.64692 2.973241,-15.28895 11.81983,-33.92411 19.977133,-42.081408 3.509051,-3.50906 13.446863,-9.93006 22.084023,-14.268882 14.908538,-7.48921 16.424078,-7.85695 29.922338,-7.260506 11.43704,0.505367 16.67499,1.837756 26.77634,6.811148 16.56974,8.15809 29.74542,20.283448 37.16321,34.200648 5.35655,10.04994 6.16519,13.61945 7.20592,31.80911 0.93926,16.41603 0.52199,22.73785 -2.09908,31.80275 -6.91787,23.92518 -22.93076,42.30766 -45.14261,51.82279 -11.66334,4.99637 -23.28973,4.81192 -40.012514,-0.63479 z m 43.926314,-4.9537 c 14.25435,-7.12298 25.49846,-19.13111 33.26568,-35.52601 5.85573,-12.36016 5.97283,-13.1412 5.55023,-37.01589 -0.47673,-26.93231 -2.08398,-32.06482 -15.00194,-47.90673 C 153.32134,90.729832 129.22918,79.687798 110.02324,81.695218 97.976346,82.954367 80.030358,90.855712 68.465948,99.992272 60.291613,106.45047 44.281632,137.46114 51.389809,133.06805 c 1.227647,-0.75872 0.468137,2.07811 -1.687807,6.30408 -4.665945,9.14601 -5.142721,13.81592 -0.884971,8.66806 2.725326,-3.29509 2.722037,-3.14089 -0.03233,1.51174 -3.620107,6.11517 -3.077114,33.82445 0.810247,41.34737 3.587689,6.94302 9.756624,13.03118 11.876501,11.72102 1.049183,-0.64844 1.336984,-0.25567 0.639551,0.8728 -0.697432,1.12848 -0.280447,2.66215 0.926633,3.40816 1.30379,0.80579 5.344909,-2.06621 9.954995,-7.07493 4.268165,-4.63723 6.508852,-6.67746 4.979302,-4.53383 -1.52955,2.14362 -4.873104,6.23104 -7.430155,9.08315 l -4.649158,5.18563 4.594679,4.92563 c 4.43939,4.75916 20.477462,14.003 24.295221,14.003 1.027499,0 7.010293,-6.75496 13.295103,-15.01101 6.2848,-8.25605 12.33162,-15.57014 13.43738,-16.25355 1.10576,-0.68338 -3.66982,6.11633 -10.61239,15.11048 -6.94257,8.99414 -12.313184,16.61711 -11.934694,16.9399 2.695204,2.29859 13.727144,4.61062 22.597474,4.73589 8.18005,0.1155 13.15405,-1.14332 22.01701,-5.5722 z m -20.3089,-6.17841 c 3.54531,-4.98541 7.72716,-10.08926 9.29303,-11.3419 1.56586,-1.25264 -0.0537,1.80143 -3.59898,6.78684 -3.54531,4.98541 -7.72716,10.08927 -9.29302,11.3419 -1.56587,1.25264 0.0537,-1.80143 3.59897,-6.78684 z m -1.95839,-4.99577 c 4.1924,-6.17356 8.48894,-11.76013 9.54787,-12.41459 1.05893,-0.65445 -1.97995,4.39665 -6.75309,11.22466 -4.77313,6.82803 -9.06967,12.4146 -9.54786,12.4146 -0.47819,0 2.5607,-5.0511 6.75308,-11.22467 z m 16.99546,2.81709 c 4.53827,-4.62415 9.18125,-8.23938 10.31774,-8.03385 1.13648,0.20555 1.8182,-1.32755 1.51493,-3.4069 -0.39863,-2.73317 -0.0838,-3.09023 1.13643,-1.28876 1.2645,1.86686 3.9263,-0.0297 10.61262,-7.56127 5.21748,-5.87712 7.52453,-7.69746 5.55387,-4.38219 l -3.37092,5.67095 4.61903,-3.78063 c 2.6832,-2.19619 3.64927,-2.5194 2.3051,-0.77123 -1.27265,1.65516 -1.7542,3.56911 -1.07011,4.25321 0.6841,0.68409 0.2012,1.24381 -1.07312,1.24381 -1.27431,0 -1.91683,0.64736 -1.42783,1.43859 1.46526,2.37084 -4.02407,8.49726 -6.33429,7.06946 -1.49594,-0.92453 -1.15828,-2.40605 1.12285,-4.92667 1.79414,-1.98251 2.8393,-4.02732 2.32258,-4.54404 -0.51672,-0.51674 -4.10721,2.4842 -7.97887,6.6687 -3.87166,4.18452 -7.76397,7.16038 -8.64959,6.61304 -0.88562,-0.54734 -4.3083,2.41146 -7.60597,6.57509 -3.29766,4.16365 -6.95203,7.57027 -8.12081,7.57027 -1.16878,0 1.58808,-3.78341 6.12636,-8.40758 z m 26.80257,-13.80364 c 2.35131,-2.99816 2.28445,-3.06502 -0.7137,-0.71371 -1.81943,1.4269 -3.30805,2.91553 -3.30805,3.30805 0,1.55581 1.5523,0.55445 4.02175,-2.59434 z m -50.4627,10.78306 c 10.74507,-15.0177 14.2262,-17.93183 5.11779,-4.28419 -4.29371,6.43348 -8.86156,12.34917 -10.15081,13.14598 -1.28926,0.79679 0.97561,-3.19101 5.03302,-8.86179 z m 21.99744,-3.69438 c 5.29336,-7.27772 10.56928,-13.23221 11.72425,-13.23221 1.15497,0 0.77549,1.0633 -0.8433,2.36289 -1.61878,1.29959 -6.48673,7.25409 -10.81766,13.23222 -4.33094,5.97813 -8.2824,10.86932 -8.78101,10.86932 -0.49863,0 3.42435,-5.9545 8.71772,-13.23222 z m -40.382214,5.95766 c 1.86473,-3.48119 6.191004,-9.43569 9.613934,-13.23222 l 6.22351,-6.90281 -6.22351,8.55453 c -3.42293,4.705 -7.749204,10.6595 -9.613934,13.23222 -3.26032,4.49822 -3.26032,4.43485 0,-1.65172 z m -12.667879,2.07619 c 0.0057,-0.77976 2.148402,-3.96967 4.762729,-7.08869 l 4.753372,-5.67095 -4.004315,7.08869 c -3.892635,6.891 -5.531029,8.57673 -5.511786,5.67095 z m 0.25489,-14.73532 c 3.393592,-4.72549 7.44006,-9.61669 8.992162,-10.86932 1.552082,-1.25264 -0.848507,2.61366 -5.334663,8.59179 -9.652884,12.86317 -12.559208,14.67294 -3.657499,2.27753 z m -4.346292,-4.24898 c 4.512791,-5.40735 9.191326,-10.43302 10.396743,-11.16814 1.205436,-0.73513 -1.50059,3.08758 -6.013363,8.49493 -4.512791,5.40734 -9.191325,10.43302 -10.396742,11.16814 -1.205436,0.73513 1.50059,-3.08759 6.013362,-8.49493 z m 13.533591,4.56579 c 0,-0.39252 1.488625,-1.88114 3.30805,-3.30805 2.99816,-2.35131 3.06502,-2.28445 0.71369,0.71371 -2.469431,3.14879 -4.02174,4.15015 -4.02174,2.59434 z m 45.367604,-4.01208 c 2.44181,-2.59918 4.86498,-4.72579 5.38481,-4.72579 0.51984,0 -1.05268,2.12661 -3.49449,4.72579 -2.44181,2.59919 -4.86497,4.72579 -5.38481,4.72579 -0.51984,0 1.05269,-2.1266 3.49449,-4.72579 z M 69.260429,192.10133 c 3.972217,-4.93845 7.602987,-8.97901 8.068383,-8.97901 1.496752,0 -6.420821,10.27223 -10.927563,14.17738 -2.399662,2.07935 -1.113037,-0.25992 2.85918,-5.19837 z m -12.136382,5.21276 c 0,-1.02991 5.67751,-7.96799 13.815172,-16.88259 2.919803,-3.19859 1.370348,-0.49909 -3.443268,5.99888 -8.082296,10.91042 -10.371904,13.31301 -10.371904,10.88371 z m -0.985725,-9.27821 c 1.352635,-4.47638 16.543278,-25.57697 18.467242,-25.65194 0.777601,-0.0302 -2.199648,4.93776 -6.616108,11.04015 -4.416461,6.10238 -9.133973,12.69486 -10.483357,14.64996 -2.394067,3.46871 -2.427167,3.46778 -1.367777,-0.0382 z M 54.60641,177.42236 c 1.851867,-3.13498 5.344473,-8.02617 7.761319,-10.86932 2.416846,-2.84315 1.254641,-0.27816 -2.582664,5.69996 -7.271349,11.32801 -11.037239,15.08713 -5.178655,5.16936 z M 50.529261,171.068 c 1.786935,-2.72718 3.606384,-4.95853 4.043217,-4.95853 1.367418,0 -3.033769,7.28523 -5.215932,8.63389 -1.14194,0.70575 -0.614202,-0.94816 1.172715,-3.67536 z m -2.856798,-7.345 c 0,-1.85659 11.450537,-20.29732 12.603366,-20.29732 0.51547,0 -0.986122,3.18991 -3.336844,7.08869 -6.392995,10.60305 -9.266522,14.69902 -9.266522,13.20863 z m 18.903168,-3.99818 c 0,-0.39252 1.488624,-1.88115 3.308054,-3.30804 2.998156,-2.35131 3.065017,-2.28445 0.71369,0.7137 -2.469435,3.14879 -4.021744,4.15015 -4.021744,2.59434 z m -1.720812,-9.21045 c 3.37828,-4.93846 6.45339,-8.97901 6.833552,-8.97901 1.283506,0 -3.003354,6.5794 -8.0057,12.28706 -3.761862,4.29225 -3.476878,3.488 1.172148,-3.30805 z M 55.23373,137.75473 c 2.220933,-3.11902 4.463397,-5.67095 4.983234,-5.67095 0.519838,0 -0.871984,2.55193 -3.092917,5.67095 -2.220933,3.11902 -4.463397,5.67095 -4.983234,5.67095 -0.519837,0 0.871984,-2.55193 3.092917,-5.67095 z m 7.751036,0.55855 c 1.376434,-2.29199 2.909481,-3.76036 3.406786,-3.26305 0.497304,0.49731 -0.628852,2.37257 -2.50259,4.16724 -3.255013,3.11768 -3.295295,3.0774 -0.904196,-0.90419 z m 144.419464,84.5057 c -1.38182,-2.23583 0.46789,-2.23583 5.67095,0 3.64499,1.56629 3.63202,1.62936 -0.36101,1.75744 -2.27791,0.0732 -4.66738,-0.71777 -5.30994,-1.75744 z m -3.7915,-2.83548 c 0.81989,-2.07935 1.87134,-5.97716 2.33653,-8.66181 0.92096,-5.31485 13.20301,-19.9169 15.1309,-17.98903 0.65351,0.6535 -1.41346,3.94005 -4.59326,7.30341 -3.17981,3.36337 -6.18513,8.41017 -6.67852,11.21514 -0.7625,4.33478 -0.15936,5.214 4.02034,5.8603 4.52727,0.70004 4.45998,0.78284 -0.84805,1.04361 -3.17101,0.15576 -6.91144,1.34653 -8.31207,2.64612 -2.0952,1.94408 -2.28236,1.69278 -1.05587,-1.41774 z M 20.577928,217.77813 c -0.693122,-0.69311 -1.260217,-2.1392 -1.260217,-3.21354 0,-1.18448 0.880453,-1.07287 2.236869,0.28354 1.230293,1.2303 1.797388,2.67639 1.260217,3.21354 -0.537171,0.53717 -1.543765,0.40958 -2.236869,-0.28354 z m 200.649242,-0.031 c 1.36457,-0.54605 2.99497,-0.47891 3.62312,0.14915 0.62813,0.62813 -0.48835,1.07491 -2.48104,0.99283 -2.20213,-0.0907 -2.65004,-0.53862 -1.14208,-1.14205 z m -7.20683,-6.148 c 0,-1.49763 9.77525,-4.18006 10.96582,-3.00916 0.31298,0.30784 -2.02628,1.46443 -5.19837,2.57022 -3.1721,1.1058 -5.76745,1.30332 -5.76745,0.43894 z M 9.2139483,204.23954 c -1.806595,-1.99625 -3.116225,-6.58886 -3.099515,-10.86932 0.02136,-5.48201 0.50617,-6.67399 1.861376,-4.57695 1.007842,1.55952 1.845442,4.48195 1.861377,6.49428 0.01512,2.01234 1.8785027,5.62757 4.1390757,8.03385 3.166318,3.37038 3.450641,4.37504 1.238138,4.37504 -1.579605,0 -4.279809,-1.5556 -6.0004517,-3.4569 z M 0.12056027,163.74658 c -0.4514455,-6.53106 0.4094237,-13.5603 1.84003433,-15.02439 0.7091902,-0.72577 1.3344125,3.31478 1.3894207,8.97901 0.095461,9.83716 -2.61646313,14.91384 -3.22945503,6.04538 z M 394.96303,150.21378 c -2.82878,-4.47133 -5.13323,-8.89113 -5.121,-9.82179 0.0113,-0.93066 2.68104,2.37336 5.93067,7.34225 3.24962,4.96889 5.55407,9.3887 5.12098,9.82179 -0.43309,0.43308 -3.10188,-2.87093 -5.93065,-7.34225 z m -11.73801,-4.18537 c -1.78692,-2.72719 -2.31466,-4.3811 -1.17272,-3.67535 2.18217,1.34865 6.58335,8.63389 5.21594,8.63389 -0.43684,0 -2.25629,-2.23135 -4.04322,-4.95854 z m -20.29926,-12.56986 c -3.84689,-7.41625 -6.71783,-13.76062 -6.37986,-14.09858 0.33797,-0.33796 3.78888,5.42642 7.66871,12.80973 3.87982,7.38332 6.75074,13.72768 6.37984,14.09858 -0.3709,0.37091 -3.82182,-5.39347 -7.66869,-12.80973 z M 9.2360273,142.16547 c -2.905644,-2.90564 -0.90635,-11.18933 3.9152057,-16.22196 5.110263,-5.33396 5.134006,-5.47413 1.886158,-11.13318 -2.334863,-4.06827 -2.756233,-6.6445 -1.452274,-8.87883 1.675728,-2.87131 1.842038,-2.84899 1.894476,0.2543 0.03157,1.87106 1.337569,5.87732 2.902109,8.90281 2.730392,5.28002 2.60841,5.76991 -3.038382,12.20125 -4.495854,5.1205 -5.6038057,7.81274 -4.698931,11.41809 1.206627,4.80758 0.840511,5.7064 -1.4083617,3.45752 z M 375.63194,135.85282 c -1.88756,-2.08572 -3.08269,-4.12901 -2.65588,-4.54065 0.42683,-0.41164 2.30439,1.29486 4.17235,3.79222 4.1254,5.51541 3.20754,5.96841 -1.51647,0.74843 z m -44.4178,-15.58352 c -2.78302,-3.80163 -3.23949,-5.12192 -1.19744,-3.46352 3.09971,2.51733 7.7866,9.60705 6.35107,9.60705 -0.3609,0 -2.68003,-2.76459 -5.15363,-6.14353 z m -10.26937,-2.75395 c -1.02584,-2.69408 -0.80872,-2.91121 1.0582,-1.05819 1.29188,1.28226 1.87268,2.80757 1.29067,3.38958 -0.58201,0.582 -1.639,-0.46712 -2.34887,-2.33139 z m -95.52313,-5.75248 c 0.0327,-0.77975 2.37195,-3.05071 5.19837,-5.04657 l 5.13897,-3.62884 -4.58271,5.04658 c -4.81568,5.30309 -5.85216,5.9567 -5.75463,3.62883 z m 89.73065,-4.25321 c -1.61291,-3.11902 -2.50724,-5.67095 -1.9874,-5.67095 0.51983,0 2.2648,2.55193 3.87772,5.67095 1.61291,3.11902 2.50724,5.67095 1.9874,5.67095 -0.51984,0 -2.26481,-2.55193 -3.87772,-5.67095 z m -46.85039,-6.96472 c -2.68873,-5.942808 -4.3396,-11.693418 -3.66859,-12.779128 0.67101,-1.08571 1.7496,0.57324 2.39688,3.68655 0.64727,3.1133 2.65786,8.5042 4.46796,11.979748 1.81011,3.47556 2.93139,6.67891 2.49174,7.11857 -0.43965,0.43965 -2.99924,-4.06294 -5.68799,-10.00574 z m -47.66545,5.0744 c -0.64256,-1.03967 -3.14569,-1.89031 -5.56254,-1.89031 -4.44219,0 -18.06642,-13.017168 -18.06642,-17.261411 0,-1.170389 3.18991,1.407993 7.08869,5.729733 l 7.08869,7.857708 11.10979,-9.579508 c 6.11037,-5.268727 11.63246,-9.05682 12.27131,-8.417978 0.63883,0.638841 -0.43651,2.055835 -2.38968,3.148879 -1.95315,1.093043 -6.92919,5.039159 -11.05783,8.769139 l -7.50663,6.781788 4.93005,1.64335 c 2.71153,0.90384 4.93005,2.42311 4.93005,3.37614 0,2.28162 -1.37523,2.20522 -2.83548,-0.15752 z M 22.129274,98.199592 c 0.750682,-4.44324 0.37674,-9.0581 -0.932153,-11.5038 -1.202147,-2.246224 -1.702647,-4.567121 -1.112225,-5.157546 0.590422,-0.590424 2.262501,1.821698 3.715739,5.360266 2.769484,6.74361 2.076608,18.720828 -1.083,18.720828 -1.095741,0 -1.334091,-3.00576 -0.588361,-7.419748 z M 256.6875,95.087582 c -0.6953,-2.77029 -0.89963,-5.40144 -0.45404,-5.84702 0.44557,-0.44557 1.379,1.45646 2.0743,4.22675 0.6953,2.77028 0.89962,5.40144 0.45404,5.84701 -0.44557,0.44558 -1.37901,-1.45646 -2.0743,-4.22674 z m 20.64796,1.06859 c -1.88755,-2.08572 -3.08269,-4.12902 -2.65587,-4.54065 0.42683,-0.41164 2.30439,1.29486 4.17234,3.79222 4.12541,5.515408 3.20755,5.968408 -1.51647,0.74843 z m -64.59585,-5.11638 c 0.71073,-1.14998 5.75551,-5.737368 11.21064,-10.194194 8.3345,-6.809262 9.01279,-7.110894 4.24747,-1.888801 -5.93962,6.508954 -17.6894,15.693275 -15.45811,12.082995 z m 37.15883,-5.314455 c -1.31513,-1.584635 -2.02506,-3.247235 -1.57764,-3.694666 0.44744,-0.447428 1.85183,0.849093 3.12088,2.881157 2.74438,4.394464 1.82912,4.876944 -1.54324,0.813509 z m -45.32968,-1.440826 c 0,-1.057373 25.54521,-22.422896 29.36584,-24.561033 5.6788,-3.178018 2.42539,0.19595 -8.87509,9.203943 -18.85909,15.033217 -20.49075,16.256093 -20.49075,15.35709 z m -12.84111,-8.945402 c -2.38407,-1.946038 -8.0985,-4.102668 -12.69871,-4.792517 -4.60024,-0.689846 -9.36333,-2.458311 -10.58466,-3.929923 -3.35717,-4.04514 -0.96046,-4.919453 5.1508,-1.879001 2.99992,1.492511 9.00825,3.511114 13.35186,4.485786 7.26364,1.629908 8.40144,1.330847 14.17738,-3.72637 13.50911,-11.828155 21.85242,-18.47756 23.18462,-18.47756 0.76603,0 -2.72414,3.294699 -7.75595,7.321556 -11.49326,9.197817 -18.98555,17.269086 -19.83426,21.367 -0.59912,2.892738 -1.03463,2.860544 -4.99108,-0.368971 z m 66.29575,1.452905 c -2.83392,-3.66427 -4.61661,-7.088688 -3.69022,-7.088688 0.46164,0 2.23273,2.126606 3.93577,4.725792 3.18677,4.863607 3.00929,6.571395 -0.24555,2.362896 z M 33.593119,75.532904 c -1.798221,-2.909583 2.167626,-10.777915 7.576994,-15.03292 8.050916,-6.332853 9.380395,-4.706545 1.911149,2.337857 -7.10521,6.701084 -9.252288,13.37773 -3.605137,11.210711 2.115057,-0.811621 2.697803,-0.48254 1.778769,1.004486 -1.627903,2.633995 -6.155193,2.917545 -7.661775,0.479866 z M 212.44826,66.719829 c 11.77677,-10.112752 16.69462,-13.151376 16.69462,-10.31523 0,1.076254 -0.97159,1.956826 -2.1591,1.956826 -1.1875,0 -6.63969,3.827892 -12.11597,8.506426 -5.47629,4.678534 -10.52865,8.506425 -11.22748,8.506425 -0.69883,0 3.26475,-3.8945 8.80793,-8.654447 z m -14.42455,-8.500501 c 5.15929,-5.276524 11.07839,-10.522286 13.15354,-11.657247 2.07515,-1.134963 -1.73974,3.182193 -8.47756,9.593679 -14.80791,14.090739 -17.67165,15.354535 -4.67598,2.063568 z m -19.91938,0.04697 c 10.93806,-8.776034 15.44076,-11.163392 7.56126,-4.009033 -4.67853,4.247971 -9.35706,7.74094 -10.39674,7.762151 -1.03967,0.02121 0.23629,-1.667692 2.83548,-3.753118 z M 57.124047,57.101276 c 0,-2.995814 7.143961,-9.895021 10.396742,-10.040558 1.708204,-0.07643 4.539899,-5.466327 9.952821,-18.944369 1.043871,-2.599186 5.138713,-6.427078 9.099664,-8.506426 3.96095,-2.079348 9.184952,-5.755232 11.608912,-8.168632 3.639164,-3.6233121 6.128144,-4.3116121 14.282494,-3.9496671 7.06693,0.313677 12.13858,-0.723141 17.83384,-3.645849 5.24948,-2.693937 11.0406,-3.99820496 17.01285,-3.83160796 l 9.05431,0.252571 -8.50642,1.26409696 c -10.13589,1.506242 -19.65221,6.256105 -25.77901,12.8670181 -4.33054,4.672746 -4.46606,4.695876 -4.46606,0.762308 0,-6.2976531 -12.54261,-5.6289271 -21.413854,1.141708 -3.746155,2.859104 -8.966983,6.726707 -11.601839,8.594675 -7.573894,5.369463 -5.450747,11.203726 2.312387,6.354277 4.654584,-2.907617 -1.805612,8.017365 -6.59747,11.157109 -2.679449,1.755636 -4.14951,4.131573 -3.539637,5.720832 0.796201,2.07491 -0.05217,2.443274 -3.584816,1.556621 -3.5451,-0.889763 -5.965802,0.176423 -10.346384,4.557008 -3.844735,3.844734 -5.71853,4.781505 -5.71853,2.858885 z m 97.999003,-7.407625 c -5.05402,-3.595989 -10.04217,-5.139529 -18.88071,-5.842485 -13.47876,-1.072004 -23.30071,-4.735518 -25.07209,-9.351703 -1.50017,-3.909374 -13.100584,-2.428424 -18.376227,2.345975 -1.956781,1.770857 -4.19053,2.58161 -4.963916,1.801676 -2.120425,-2.138388 8.252249,-9.645073 13.982833,-10.119349 2.76222,-0.22861 6.19103,-1.385661 7.61954,-2.571224 2.0603,-1.709894 2.35112,-1.514038 1.40662,0.947275 -1.73156,4.512406 0.0832,3.854717 8.12704,-2.945329 l 7.15447,-6.04818 -6.6161,7.132749 -6.61611,7.132748 4.46262,3.641223 c 3.19669,2.608293 7.39947,3.641222 14.81539,3.641222 8.31382,0 12.67779,1.300234 22.15817,6.601962 l 11.80541,6.601962 4.50942,-4.800061 c 5.44009,-5.790711 23.31679,-19.745763 25.2947,-19.745763 0.77707,0 -2.70406,3.314016 -7.73587,7.364483 -5.03182,4.050465 -11.96584,10.004963 -15.40895,13.232218 -7.59609,7.119876 -8.93341,7.194107 -17.66624,0.980601 z m 27.64463,-4.230147 c 4.12435,-4.372416 10.71683,-10.179927 14.64995,-12.905582 4.44816,-3.082583 7.15379,-6.466178 7.1582,-8.951864 0.006,-3.404978 0.53896,-3.123846 3.60266,1.90044 1.97757,3.243112 6.0664,6.757898 9.08628,7.810632 6.81903,2.377124 11.89145,7.294598 11.83607,11.474522 -0.0333,2.510125 -0.7597,2.239853 -3.47722,-1.293675 -1.88936,-2.456686 -7.59104,-6.469643 -12.67042,-8.917681 -10.60744,-5.112324 -10.25083,-5.239222 -27.28761,9.710155 -10.11705,8.877474 -10.19501,8.909031 -2.89791,1.173053 z m -13.05086,-6.148119 c 3.05362,-3.197603 9.59258,-8.901576 14.53103,-12.675493 14.7227,-11.250937 11.37336,-19.3170211 -8.02113,-19.3170211 -5.97692,0 -9.23994,-0.724033 -8.51914,-1.890316 1.53518,-2.483971 13.98592,-2.41936 21.24232,0.110243 7.185,2.504706 10.34397,12.8457691 4.87466,15.9574571 -1.82741,1.039674 -8.52356,6.781511 -14.88031,12.759638 -12.12936,11.406877 -18.76422,15.041966 -9.22743,5.0555 z m -12.40598,0.773391 c 0,-1.937666 22.74442,-21.34549 28.02039,-23.909821 1.74342,-0.847363 0.61791,0.409227 -2.50112,2.792421 -3.11901,2.383192 -10.13682,8.516397 -15.59511,13.629343 -5.45829,5.112944 -9.92416,8.482571 -9.92416,7.488057 z m -8.2273,-3.980607 c 2.23287,-1.796311 8.61269,-6.963337 14.17738,-11.482281 8.96036,-7.27648 8.71221,-6.901658 -2.16944,3.276964 -6.75789,6.321273 -13.13771,11.488299 -14.17738,11.482282 -1.03968,-0.006 -0.0634,-1.480653 2.16944,-3.276965 z m -22.01777,-1.144244 c 0,-0.392536 1.48863,-1.88116 3.30806,-3.308055 2.99815,-2.35131 3.06501,-2.284449 0.7137,0.713699 -2.46945,3.148791 -4.02176,4.150151 -4.02176,2.594356 z m 0.94516,-10.628202 c 5.12021,-5.198372 9.73478,-9.451584 10.25462,-9.451584 0.51984,0 -3.2441,4.253212 -8.3643,9.451584 -5.12021,5.198371 -9.73479,9.451584 -10.25463,9.451584 -0.51984,0 3.2441,-4.253213 8.36431,-9.451584 z m 15.12254,4.697756 c 15.20541,-12.695997 19.63847,-15.512605 9.45158,-6.005196 -6.23805,5.821958 -12.19254,10.620223 -13.23222,10.662812 -1.03967,0.04259 0.66161,-2.053339 3.78064,-4.657616 z m -2.83548,-5.642915 c 3.52692,-3.63886 6.83791,-6.616109 7.35774,-6.616109 0.51984,0 -1.9405,2.977249 -5.46742,6.616109 -3.52692,3.63886 -6.83791,6.616109 -7.35775,6.616109 -0.51983,0 1.94051,-2.977249 5.46743,-6.616109 z"
     id="path14338"
     inkscape:connector-curvature="0" />
</svg>
