<?xml version="1.0" encoding="UTF-8" standalone="no"?>
<!-- Created with Inkscape (http://www.inkscape.org/) -->

<svg
   xmlns:dc="http://purl.org/dc/elements/1.1/"
   xmlns:cc="http://creativecommons.org/ns#"
   xmlns:rdf="http://www.w3.org/1999/02/22-rdf-syntax-ns#"
   xmlns:svg="http://www.w3.org/2000/svg"
   xmlns="http://www.w3.org/2000/svg"
   xmlns:sodipodi="http://sodipodi.sourceforge.net/DTD/sodipodi-0.dtd"
   xmlns:inkscape="http://www.inkscape.org/namespaces/inkscape"
   id="svg9990"
   version="1.1"
   inkscape:version="0.48.4 r9939"
   width="477.81027"
   height="447.08664"
   sodipodi:docname="ExquisiteTruffle.svg">
  <metadata
     id="metadata9996">
    <rdf:RDF>
      <cc:Work
         rdf:about="">
        <dc:format>image/svg+xml</dc:format>
        <dc:type
           rdf:resource="http://purl.org/dc/dcmitype/StillImage" />
        <dc:title />
      </cc:Work>
    </rdf:RDF>
  </metadata>
  <defs
     id="defs9994" />
  <sodipodi:namedview
     pagecolor="#ffffff"
     bordercolor="#666666"
     borderopacity="1"
     objecttolerance="10"
     gridtolerance="10"
     guidetolerance="10"
     inkscape:pageopacity="0"
     inkscape:pageshadow="2"
     inkscape:window-width="1280"
     inkscape:window-height="730"
     id="namedview9992"
     showgrid="false"
     inkscape:zoom="0.67428571"
     inkscape:cx="132.39771"
     inkscape:cy="378.54141"
     inkscape:window-x="-4"
     inkscape:window-y="22"
     inkscape:window-maximized="0"
     inkscape:current-layer="svg9990"
     fit-margin-top="0"
     fit-margin-left="0"
     fit-margin-right="0"
     fit-margin-bottom="0" />
  <path
     style="fill:#2d0d03;fill-opacity:1;stroke:none"
     d="m 236.37065,17.2254 22.50071,20.983675 c 61.25776,95.120425 34.60384,103.436275 44.66154,146.043805 -4.49608,28.86953 -6.09862,80.98083 -59.46058,115.04512 l -14.87458,-3.85083 c 19.40884,-8.61759 35.06373,-23.5443 41.86191,-53.35621 6.93856,-40.27823 3.97137,-81.6571 -2.22836,-123.39515 C 248.79457,66.720023 226.59831,26.981571 197.80248,24.640661 119.50455,44.069399 80.456518,66.790861 58.716002,90.934216 c 31.054191,3.79275 61.924188,14.926554 100.275968,47.909634 15.5705,36.84622 32.567,73.78562 35.18944,120.70256 -23.12869,62.71984 -48.1105,96.30733 -81.52065,100.27597 l -3.89962,-12.44165 c 33.00832,-15.59816 60.00591,-39.3108 63.8795,-94.24084 -11.4325,-39.42106 -16.875,-77.55855 -67.77913,-125.43781 -34.345041,-16.2785 -60.217727,-2.73047 -68.800449,0.74278 -1.461281,3.69964 -2.81747,7.42602 -4.085318,11.14178 -42.510702,136.63235 -22.7924868,136.3164 -25.3475358,185.0463 7.6150368,30.04624 29.1078518,58.73034 9.9347478,91.4554 5.507941,5.98393 88.112865,33.67285 88.112865,26.46171 69.02219,-1.54333 137.74069,-5.02518 208.16548,3.24969 40.39654,-7.76214 104.98401,-8.62451 117.91711,-24.23336 -0.37475,-22.62672 -9.68434,-49.15891 1.67127,-66.57211 5.68736,-10.31425 13.74726,-11.33602 9.37766,-23.67627 l -17.64114,-222.55694 0.64993,0.37139 c -5.01632,-7.54659 -10.53741,-15.315534 -16.61981,-23.490575 -11.95717,-6.96732 -23.83734,-13.935097 -35.74653,-20.70513 6.46862,45.015825 7.01507,91.512175 1.02133,139.643575 -16.22494,68.17598 -25.18451,128.37642 -68.96808,192.61546 -4.92696,0.90138 -7.90659,-0.59182 -12.83358,-4.72456 29.44055,-39.48778 40.62609,-85.84746 53.1116,-131.71779 -0.0297,-14.73733 3.2468,-27.94808 3.79304,-42.32967 1.97836,-52.08673 3.12594,-104.9844 -22.73653,-174.266918 C 323.49156,29.163481 245.96489,15.565267 236.37065,17.2254 z m 214.35011,137.03124 7.24215,179.10402 c 10.24414,-16.30683 8.78522,-34.27923 14.67001,-45.03134 1.11997,-41.52834 4.05733,-79.57513 -21.91216,-134.07268 z"
     id="path10002"
     inkscape:connector-curvature="0"
     sodipodi:nodetypes="ccccccccccccccccccccccccccccccccscccccc" />
  <path
     style="fill:#4a310b;fill-opacity:1;stroke:none"
     d="M 11.663189,191.47825 C 8.3259692,172.57133 -4.9170203,174.09898 13.382392,123.20748 30.6567,103.56604 47.031246,92.118376 67.226555,93.881756 97.976333,107.8213 111.54247,82.702562 169.12343,161.07861 c 27.63819,63.05592 23.18308,85.98826 19.27779,109.608 -8.99869,29.28269 -19.9526,57.58776 -47.36828,77.66194 l -29.44791,11.6058 c -5.97651,-3.01906 -4.108,-7.01878 -1.94735,-11.05501 37.11826,-14.41508 54.13683,-46.69655 63.34131,-85.92385 -5.77331,-44.79791 -17.42446,-89.59581 -68.29845,-134.39372 -22.30219,-5.57493 -44.628651,-11.27121 -63.892093,-1.65238 -11.950459,-0.90412 -20.110611,36.09483 -29.125258,64.54886 z"
     id="path10527"
     inkscape:connector-curvature="0"
     sodipodi:nodetypes="cccccccccccc" />
  <path
     style="fill:#4a310b;fill-opacity:1;stroke:none"
     d="M 94.889583,55.104069 191.31685,26.043672 c 37.60711,4.413078 48.56015,35.480225 65.38281,60.677758 18.51949,50.77483 20.30051,100.50349 15.42223,149.81595 -8.25757,39.228 -23.34789,52.10115 -41.86034,51.77462 -0.4872,4.77982 -1.36058,9.64545 11.01588,11.56668 23.1323,-9.52818 40.75146,-27.01984 50.67305,-55.63018 C 316.51134,185.12995 296.49305,126.0114 279.83301,66.892851 256.47608,24.090878 227.5459,3.5818809 193.90916,1.8991669 151.66632,10.397825 116.61243,26.085431 94.889583,55.104069 z"
     id="path10529"
     inkscape:connector-curvature="0"
     sodipodi:nodetypes="cccccccccc" />
  <path
     style="fill:#4a310b;fill-opacity:1;stroke:none"
     d="m 326.09969,32.192832 c 12.95506,-3.020633 24.07425,-16.322061 41.86036,7.711115 15.98511,81.230273 6.01064,161.595223 -8.8127,241.798543 -16.58505,38.04304 -23.58969,77.2836 -55.07941,113.46356 -12.10677,4.49078 -13.9569,0.92277 -11.58287,-5.96424 C 321.2214,342.8006 351.01769,271.92219 348.2651,210.09928 348.80532,150.40069 346.09932,90.864416 326.09969,32.192832 z"
     id="path10531"
     inkscape:connector-curvature="0"
     sodipodi:nodetypes="ccccccc" />
  <path
     style="fill:#4a310b;fill-opacity:1;stroke:none"
     d="m 415.3283,87.823019 c 12.15018,1.419711 23.40103,4.188477 29.7429,14.320641 12.80983,80.51374 3.16913,153.1873 17.0746,229.68107 -5.03064,11.71316 -11.74479,9.95819 -18.17621,10.4651 C 425.01954,257.34794 439.28077,143.24164 415.3283,87.823019 z"
     id="path10533"
     inkscape:connector-curvature="0"
     sodipodi:nodetypes="ccccc" />
  <path
     style="fill:#000000"
     d="m 79.885373,442.28134 c -37.533649,-11.30667 -58.714762,-18.79139 -63.892719,-22.5776 -4.908543,-3.58923 -4.932772,-4.4754 -0.3844,-14.06039 6.06002,-12.77052 6.113414,-21.38204 0.235166,-37.92671 C 9.0773682,348.6732 2.9289742,314.09945 0.72001221,282.67435 -0.88699379,259.813 -0.03883779,249.71122 5.6727952,223.68521 10.510215,201.64269 11.593151,191.68092 9.3056402,190.26717 3.8443912,186.89193 -1.1548038,161.07096 0.94366421,147.07736 4.3540282,124.33543 29.613815,94.740996 45.614416,94.740996 c 3.691683,0 24.49498,-17.621125 38.727667,-32.803691 27.046177,-28.851221 41.650307,-41.254081 58.850357,-49.97989 26.69149,-13.5409361 50.12242,-15.5061074 74.85093,-6.2778081 9.80476,3.658983 30.52846,8.6014051 46.05267,10.9831571 15.5242,2.381752 35.10978,6.631861 43.52351,9.444686 12.77204,4.269873 16.17688,4.471328 20.62307,1.220206 2.92895,-2.141711 10.54998,-3.894021 16.93559,-3.894021 9.15702,0 13.43154,1.949763 20.2301,9.227633 4.74096,5.0752 8.6199,12.36807 8.6199,16.206379 0,4.968073 5.28587,11.255738 18.34646,21.823548 10.09053,8.164639 19.41878,14.182058 20.72941,13.37204 4.17626,-2.581071 25.15804,4.503231 30.35928,10.250521 2.75755,3.04705 7.01778,16.757074 9.46718,30.466714 2.44941,13.70964 5.70688,27.17341 7.23883,29.91951 1.53192,2.74608 6.35479,18.79024 10.71747,35.65367 7.29316,28.19098 7.78854,33.77211 6.15002,69.28561 -0.98015,21.24365 -2.70796,41.84217 -3.83961,45.77448 0.40613,12.16726 -8.88956,15.51481 -9.37887,26.83922 -0.33812,11.89223 -3.09878,15.86613 -9.80405,14.11268 -6.20983,-1.62391 -19.75018,10.32658 -23.83143,21.03329 -1.65332,4.33721 -0.99521,12.78529 1.84562,23.69187 7.91681,30.39476 -0.4072,41.49539 -34.10789,45.48524 -10.68965,1.26556 -34.61217,4.4937 -53.1612,7.17364 -25.6845,3.71086 -38.78981,4.20713 -54.96609,2.08143 -23.3919,-3.07385 -148.34654,-2.87363 -174.25429,0.27929 -12.21364,1.48637 -21.219367,0.51917 -35.653677,-3.82906 z m 44.586707,-2.96145 c 13.08178,-3.83714 159.87445,-3.16311 184.25199,0.84603 4.11884,0.67739 19.49449,-0.4815 34.16811,-2.57533 14.67363,-2.09382 34.03289,-4.62053 43.02059,-5.61497 34.9393,-3.86581 35.84276,-4.1938 40.18651,-14.58988 3.42685,-8.20162 3.44715,-12.17475 0.12627,-24.76323 -5.09381,-19.30964 -3.09179,-29.70447 7.97671,-41.41691 7.13136,-7.54628 8.56069,-11.14121 7.08789,-17.82684 -6.57046,-29.82591 -7.89592,-41.84491 -9.53091,-86.42617 -1.97812,-53.93705 -5.78273,-112.11097 -8.37647,-128.07906 -2.28635,-14.07563 -7.23898,-20.546754 -28.48881,-37.22377 l -18.57375,-14.576801 2.47796,13.091231 c 7.5877,40.08647 -3.95521,149.98088 -22.75242,216.61431 -8.67752,30.76063 -39.49061,93.1155 -49.13701,99.43606 -14.56328,9.54223 -21.81055,-2.2058 -10.34925,-16.77645 7.18504,-9.13432 22.03955,-41.36549 27.9362,-60.61571 2.46242,-8.03883 7.05934,-19.9641 10.21537,-26.50061 19.55961,-40.5101 13.70394,-187.90743 -9.77241,-245.988383 -1.18402,-2.92933 -7.00169,-7.760745 -12.92811,-10.736475 -11.03561,-5.541098 -48.02682,-13.611454 -53.70851,-11.717557 -1.74265,0.580881 1.31019,7.722402 6.79808,15.9028 9.49267,14.149988 12.58976,20.298919 23.94034,47.530967 9.89265,23.734168 14.03207,45.298468 15.73168,81.954388 1.56181,33.6836 1.06367,39.42301 -5.02853,57.93722 -12.88827,39.16746 -25.70283,57.5593 -49.60413,71.19341 -7.81818,4.45977 -10.84228,4.80731 -17.08405,1.96336 -10.83853,-4.93836 -9.45649,-8.69293 5.95611,-16.18095 11.4854,-5.58003 14.98005,-9.51977 23.02633,-25.95887 9.41591,-19.23718 9.48481,-19.70982 9.32187,-63.94752 -0.1348,-36.59847 -1.3341,-48.70468 -6.70734,-67.70783 -16.55909,-58.562979 -44.2025,-97.190435 -69.55354,-97.190435 -5.79913,0 -27.76357,7.166796 -84.01651,27.413828 -10.2615,3.693403 -37.929662,21.344644 -42.961798,27.407995 -3.765243,4.536841 -1.70339,5.53116 18.57039,8.955478 26.667618,4.50427 61.965868,28.206434 78.850578,52.946794 15.30826,22.43046 30.21831,73.14198 30.21831,102.77739 0,32.48992 -22.42083,75.92778 -50.74844,98.31947 -21.80008,17.23196 -38.91065,20.12172 -40.80173,6.89085 -0.73884,-5.16922 2.01414,-8.01605 13.37013,-13.82587 18.07637,-9.248 33.74506,-25.65779 43.87586,-45.951 15.00859,-30.06402 8.90264,-65.65779 -19.67788,-114.70948 -26.48664,-45.45805 -44.445737,-57.74302 -79.206574,-54.18146 -29.45172,3.01759 -30.906958,5.65956 -47.745209,86.68111 -8.6818788,41.77507 -9.0897898,46.52151 -6.5111488,75.76406 3.1809908,36.07341 10.1081138,70.62938 16.7224808,83.42016 4.096497,7.92174 4.128651,10.79207 0.289745,25.8649 -2.374956,9.32487 -3.733507,17.9002 -3.019005,19.0563 0.714506,1.15607 10.953422,5.06891 22.75315,8.69519 11.799727,3.62625 28.807619,8.94349 37.795317,11.81607 19.338934,6.18095 27.644114,6.70028 41.615564,2.60219 z m 44.54748,-23.69579 c -2.45119,-1.5841 -3.11969,-2.88014 -1.48557,-2.88014 1.63413,0 4.97666,1.29604 7.42785,2.88014 2.45119,1.58409 3.1197,2.88013 1.48557,2.88013 -1.63412,0 -4.97665,-1.29604 -7.42785,-2.88013 z m 40.80366,-3.33983 c 2.01542,-2.03054 4.41286,-2.94342 5.32763,-2.02864 0.91478,0.91479 -0.7342,2.57613 -3.6644,3.69188 -4.23447,1.61238 -4.57574,1.27111 -1.66323,-1.66324 z m -84.94518,-2.27655 c -2.21712,-1.40484 -2.87088,-3.27134 -1.4528,-4.14774 1.41808,-0.87643 5.1589,0.29355 8.31293,2.59975 6.41283,4.68917 0.28098,6.07283 -6.86013,1.54799 z m 21.85798,-0.3259 c -1.00995,-1.63413 -0.49926,-2.97114 1.13487,-2.97114 1.63413,0 3.79746,1.33701 4.80741,2.97114 1.00994,1.63412 0.49925,2.97114 -1.13488,2.97114 -1.63413,0 -3.79746,-1.33702 -4.8074,-2.97114 z m -42.86125,-8.54874 c -3.964167,-1.10779 -7.795647,-3.77837 -8.514407,-5.93465 -1.07008,-3.21026 -0.0335,-3.23902 5.722007,-0.15866 3.86585,2.06896 7.66391,3.43553 8.44012,3.03683 0.77621,-0.39869 1.89039,0.71239 2.47595,2.46908 0.58556,1.75669 0.61899,3.06069 0.0743,2.89781 -0.54471,-0.16282 -4.23379,-1.20254 -8.19795,-2.3103 z m 49.54631,0.63873 c 2.04266,-0.82422 5.38519,-0.82422 7.42785,0 2.04266,0.82422 0.37139,1.49861 -3.71392,1.49861 -4.08532,0 -5.75659,-0.67439 -3.71393,-1.49861 z m -72.461266,-5.46012 c -0.940609,-2.45119 -4.24118,-4.45671 -7.3346,-4.45671 -3.20736,0 -5.6244,-2.07157 -5.6244,-4.8205 0,-3.92969 0.816609,-4.14281 4.418872,-1.15319 2.430381,2.01705 6.107166,3.01948 8.170635,2.22765 2.371953,-0.91018 3.751762,1.15298 3.751762,5.60989 0,8.14298 -0.967787,8.8849 -3.382269,2.59286 z M 59.132891,382.19877 c -0.03057,-3.49323 2.148268,-5.12251 6.639568,-4.96492 4.466936,0.15688 5.206313,0.79745 2.228355,1.93106 -2.451191,0.93309 -5.438996,3.1673 -6.639568,4.96493 -1.346425,2.01603 -2.200292,1.27607 -2.228355,-1.93107 z m -5.408556,-9.6562 c 0.06055,-4.90238 0.726438,-6.54821 1.479753,-3.65739 0.753311,2.89083 0.703771,6.90187 -0.110081,8.91342 -0.813875,2.01156 -1.430223,-0.35365 -1.369672,-5.25603 z m 5.363059,-10.30576 c 0,-1.58281 2.00552,-2.10829 4.45671,-1.16768 2.45119,0.94063 4.45671,2.23566 4.45671,2.8779 0,0.64221 -2.00552,1.16769 -4.45671,1.16769 -2.45119,0 -4.45671,-1.29506 -4.45671,-2.87791 z m -14.855699,-5.94228 c 0,-1.58281 1.907968,-2.14572 4.239927,-1.25088 2.861017,1.0979 3.965972,-0.14023 3.397566,-3.80715 -0.463295,-2.98879 -0.267699,-3.76292 0.434642,-1.72026 0.702348,2.04265 4.18724,3.8079 7.744205,3.92276 6.251225,0.20174 6.268755,0.29414 0.524929,2.7623 -8.174895,3.51287 -16.341269,3.55948 -16.341269,0.0933 z m 0.04549,-17.17728 c 0.08462,-4.14513 5.80258,-11.40371 5.851286,-7.42785 0.02496,2.04265 2.385269,3.8079 5.244992,3.92276 4.446129,0.17857 4.338503,0.57881 -0.742785,2.7623 -7.685486,3.30257 -10.409748,3.49801 -10.353493,0.74279 z m -0.04549,-15.24159 c 2.45119,-1.45533 9.136255,-3.4746 14.855699,-4.48726 9.374558,-1.65983 9.667251,-1.52158 2.97114,1.40348 -9.832747,4.29517 -23.992828,6.74467 -17.826839,3.08378 z m 11.092254,-27.46585 c 2.015426,-2.03053 4.412859,-2.94341 5.327635,-2.02863 0.914778,0.91478 -0.734205,2.57613 -3.664405,3.69188 -4.234463,1.61238 -4.57574,1.27111 -1.66323,-1.66325 z m -17.034534,-2.2826 c 0,-2.00294 -1.671266,-2.79513 -3.713924,-1.76043 -2.042659,1.0347 -1.118611,-0.22343 2.053444,-2.79579 7.733998,-6.27189 12.274239,-5.94792 7.321726,0.52245 -2.188874,2.85972 -4.358104,5.75658 -4.820508,6.43748 -0.462407,0.68086 -0.840738,-0.40078 -0.840738,-2.40371 z m -2.831731,-16.66112 c 0.05809,-7.12803 25.928549,-24.1443 30.205324,-19.86753 1.660733,1.66074 -2.877121,5.98839 -11.578452,11.04212 -7.870264,4.57107 -15.291856,9.76376 -16.492428,11.53934 -1.274637,1.88513 -2.162714,0.75595 -2.134444,-2.71393 z m 4.451023,-23.02633 c 1.11085,-3.67678 3.242801,-7.99156 4.737664,-9.58838 1.494867,-1.59683 1.2138,1.41145 -0.62459,6.68506 -3.762541,10.79323 -7.238003,13.24647 -4.113074,2.90332 z m 2.637074,-34.58673 c 2.119775,-3.42987 13.570473,-10.34752 13.570473,-8.19826 0,0.68662 -3.507151,3.54637 -7.793668,6.355 -4.286517,2.80864 -6.886077,3.6381 -5.776805,1.84326 z m 0.384394,-18.50692 c 2.590953,-5.01034 5.471268,-8.34927 6.4007,-7.41984 0.929432,0.92943 0.173931,3.51647 -1.678872,5.74898 -1.852815,2.2325 -2.654185,4.77366 -1.780821,5.64703 0.873364,0.87336 -0.491014,2.38569 -3.031947,3.36074 -4.144942,1.59057 -4.135595,0.83631 0.09095,-7.33691 z m 18.336054,5.92952 c 2.015425,-2.03053 4.412859,-2.94343 5.327634,-2.02865 0.914778,0.91477 -0.734204,2.57612 -3.664405,3.69187 -4.234462,1.6124 -4.575739,1.27112 -1.663229,-1.66322 z M 43.815343,184.78345 c 3.787877,-7.22205 9.329772,-11.66896 9.329772,-7.48638 0,1.4773 -2.868574,5.23299 -6.374608,8.34598 -6.330343,5.62069 -6.350864,5.61472 -2.955164,-0.8596 z m 4.873062,-18.7351 c 2.957728,-3.26825 6.046195,-5.94228 6.863259,-5.94228 0.817063,0 -0.934391,2.67403 -3.892119,5.94228 -2.957728,3.26825 -6.046196,5.94228 -6.863259,5.94228 -0.817063,0 0.934391,-2.67403 3.892119,-5.94228 z m 1.48557,-13.16106 c 0,-0.81706 2.674026,-2.91666 5.942279,-4.66578 3.268254,-1.74911 5.94228,-2.5117 5.94228,-1.69464 0,0.81706 -2.674026,2.91667 -5.94228,4.66578 -3.268253,1.74912 -5.942279,2.51171 -5.942279,1.69464 z M 132.8088,98.653646 c 2.14479,-0.85828 4.7074,-0.75272 5.69468,0.23457 0.98729,0.98729 -0.76754,1.689514 -3.89962,1.560504 -3.46121,-0.14255 -4.16524,-0.846604 -1.79506,-1.795074 z M 113.87857,87.477047 c 3.17205,-2.541337 7.07167,-4.620615 8.66582,-4.620615 3.77496,0 2.08941,1.372369 -7.00534,5.703733 -7.00377,3.335531 -7.09858,3.273701 -1.66048,-1.083118 z m 15.95909,-6.650242 c 2.14479,-0.858277 4.7074,-0.752721 5.69468,0.234571 0.98729,0.987286 -0.76754,1.689512 -3.89962,1.560502 -3.46121,-0.142555 -4.16524,-0.846599 -1.79506,-1.795073 z M 309.55885,385.16991 c 3.92722,-5.31091 12.85888,-21.63358 19.8481,-36.27262 28.8315,-60.3878 46.81726,-157.23658 43.62727,-234.92179 -2.26496,-55.158201 -5.23084,-72.265899 -13.72013,-79.140116 -9.41343,-7.622533 -19.32572,-6.879475 -25.06442,1.878922 -4.5,6.867864 -4.4743,7.213206 0.40108,5.385991 4.45837,-1.670943 4.65316,-1.267863 1.35115,2.796086 -2.63899,3.247973 -2.85841,5.36638 -0.69432,6.703869 1.74013,1.07546 2.40412,3.184696 1.47552,4.68719 -0.92857,1.502493 0.54218,1.875882 3.26835,0.829753 4.22163,-1.620002 4.46482,-0.983046 1.63986,4.295415 -4.76149,8.896963 -4.09524,12.617831 1.88272,10.514297 4.24445,-1.493551 4.51732,-1.094405 1.48557,2.173044 -5.47973,5.905755 -4.51578,10.145539 1.22922,5.406357 4.5068,-3.717781 4.61085,-3.454274 1.1788,2.985191 -2.4369,4.572293 -2.71384,7.715467 -0.78539,8.913417 1.6384,1.01778 2.45276,6.35303 1.80966,11.856124 -1.05868,9.05931 -0.69706,9.62131 3.82359,5.94228 4.24326,-3.4533 4.15258,-2.62736 -0.60394,5.50146 -6.26507,10.70686 -4.33258,15.73448 3.62395,9.42822 4.97185,-3.94063 4.97527,-3.75386 0.0719,3.92878 -5.8158,9.11205 -6.78511,15.5798 -1.88065,12.54868 2.37599,-1.46844 2.37599,-0.35355 0,4.08604 -4.0772,7.6183 -4.23328,13.38598 -0.29652,10.95286 1.63413,-1.00995 2.97114,-0.49925 2.97114,1.13488 0,1.63412 -1.27863,3.76137 -2.84139,4.7272 -4.21595,2.60561 -0.29117,10.35463 4.34369,8.57607 4.33118,-1.66203 4.39934,6.06433 0.0882,9.98776 -1.39902,1.27316 -1.45395,0.43699 -0.12211,-1.85864 1.5663,-2.69978 1.28728,-3.47232 -0.79032,-2.18829 -2.08209,1.2868 -2.32935,5.0599 -0.70318,10.73006 2.66291,9.28499 2.40653,12.965 -1.54612,22.1933 -1.62798,3.80083 -1.23258,6.17619 1.16082,6.974 2.47255,0.82418 2.68508,2.34808 0.66661,4.78016 -1.62968,1.96366 -2.58808,7.51594 -2.12978,12.33842 0.45833,4.82247 -0.22967,10.19403 -1.52889,11.93678 -1.29922,1.74275 -2.5547,7.75931 -2.78999,13.37013 -0.5129,12.2319 -8.4003,41.27931 -12.73433,46.89768 -1.70291,2.20752 -3.48904,5.88431 -3.96921,8.17063 -2.37138,11.29176 -7.45381,24.3003 -15.87994,40.64493 -3.18506,6.1783 -5.79104,12.58503 -5.79104,14.23716 0,1.65214 -2.6278,5.82448 -5.83954,9.27189 -3.21175,3.44739 -5.11788,7.43566 -4.23587,8.86279 0.88202,1.42713 1.5e-4,2.22741 -1.9597,1.77841 -1.95985,-0.44903 -4.17618,0.85485 -4.92514,2.89751 -2.81014,7.664 8.02086,3.34007 14.88481,-5.94228 z M 135.26982,346.29677 c 14.98754,-10.28202 32.89796,-31.2263 42.73921,-49.97882 13.00909,-24.78888 11.73676,-77.22508 -2.80224,-115.48863 C 158.27528,136.26921 122.7899,105.9546 78.148519,97.913936 49.136132,92.688316 27.044825,103.06278 14.309863,127.89367 6.3561992,143.40188 4.4532492,159.76588 8.8218562,175.08659 l 3.7768148,13.24531 2.69198,-13.37013 c 6.620178,-32.88015 19.075921,-54.55467 31.912184,-55.53112 4.085317,-0.31077 14.444865,-1.18958 23.021217,-1.95292 8.576353,-0.76333 16.376697,-0.12042 17.334097,1.42868 0.957399,1.54911 4.469664,1.95043 7.805034,0.89182 4.59757,-1.45921 5.477067,-0.94948 3.63634,2.1075 -2.01081,3.33942 -1.56424,3.3316 2.599057,-0.0455 4.35602,-3.53342 5.02705,-3.39184 5.02705,1.06066 0,3.42322 1.53914,4.54776 4.61102,3.36897 3.0126,-1.15604 3.8736,-0.57622 2.48374,1.67261 -1.40721,2.27691 -0.50494,2.81947 2.66552,1.60285 3.59008,-1.37765 4.31838,-0.57237 2.90225,3.20901 -1.7035,4.54871 -1.35216,4.60954 3.55102,0.61477 5.04885,-4.11344 5.28046,-3.92576 3.20912,2.60043 -1.4067,4.43211 -1.13981,6.35855 0.72154,5.20817 1.6247,-1.00412 2.7707,0.49972 2.54667,3.34185 -0.22528,2.85803 1.35122,4.80265 3.52744,4.35112 2.16412,-0.44902 3.2551,0.28333 2.4244,1.62743 -0.83071,1.34411 -0.28205,4.38551 1.21922,6.75868 2.36637,3.74067 2.78771,3.72179 3.16622,-0.14187 0.24013,-2.45119 1.30616,0.22284 2.36892,5.94228 1.08655,5.84746 3.51623,10.07388 5.55116,9.6562 1.99037,-0.40852 3.61886,1.73602 3.61886,4.76566 0,3.02963 3.36432,9.13859 7.47628,13.57547 4.11196,4.43688 6.78165,9.191 5.93265,10.56472 -0.84901,1.37372 -0.63701,4.86035 0.47111,7.74806 1.879,4.89661 2.18377,4.86463 4.52314,-0.47467 1.76579,-4.03019 2.06502,-2.82268 1.01075,4.07886 -1.04315,6.82883 -0.47808,9.17379 1.8621,7.72748 2.3375,-1.44466 2.76471,0.29429 1.40409,5.71543 -1.56267,6.2262 -1.0416,7.44111 2.59323,6.0463 3.75645,-1.44149 4.05468,-0.44579 1.712,5.71593 -1.56027,4.10382 -2.33501,7.96333 -1.72164,8.5767 5.95614,5.95614 1.25818,44.06288 -5.43226,44.06288 -1.4522,0 -1.95042,1.79802 -1.10713,3.99556 0.84328,2.19755 -0.94758,5.78362 -3.9797,7.96905 -3.03211,2.18545 -4.83713,5.06698 -4.01115,6.40343 0.82598,1.33647 0.007,2.42994 -1.82005,2.42994 -1.82701,0 -2.64604,1.09347 -1.82006,2.42995 0.82598,1.33645 -1.10063,4.30563 -4.28136,6.59816 -3.18073,2.29256 -5.78314,6.10147 -5.78314,8.46427 0,2.36277 -0.84443,3.45157 -1.8765,2.41949 -1.03207,-1.03206 -5.37736,1.75339 -9.6562,6.18986 -4.27884,4.43651 -10.45374,8.5231 -13.72199,9.08132 -3.26826,0.55825 -6.39073,2.23783 -6.93883,3.73244 -0.54811,1.49463 -2.21937,1.96175 -3.71393,1.03805 -1.49455,-0.92366 -2.71737,-0.26351 -2.71737,1.46706 0,6.05305 11.35654,3.06361 25.67305,-6.75803 z m 10.21519,-181.98158 c 0.14255,-3.46121 0.8466,-4.16524 1.79506,-1.79507 0.85828,2.14479 0.75272,4.7074 -0.23457,5.69469 -0.98728,0.98728 -1.68951,-0.76755 -1.56049,-3.89962 z m 308.34558,152.34336 c -2.78271,-6.85499 -3.96041,-31.7007 -4.25197,-89.70183 -0.49808,-99.08861 -2.30248,-118.66071 -11.8169,-128.175114 -3.85645,-3.85647 -10.08081,-6.9062 -13.83188,-6.77719 -3.75106,0.129 -5.14883,0.90893 -3.10617,1.73316 2.04265,0.82423 3.71392,3.47161 3.71392,5.88307 0,2.411454 1.10179,3.703534 2.4484,2.871274 1.34661,-0.83226 2.44525,0.7601 2.44144,3.53858 -0.0178,13.67634 1.27251,21.60771 3.31276,20.34677 1.24319,-0.76833 2.09047,9.81729 1.88284,23.5236 -0.24452,16.14506 0.68147,24.26609 2.6297,23.062 1.91145,-1.18135 2.28739,1.00942 1.0317,6.01246 -1.20114,4.78577 -0.74772,7.871 1.15678,7.871 2.1627,0 2.1919,1.75712 0.0942,5.67646 -1.71049,3.1961 -2.31627,13.90669 -1.38636,24.5119 2.2599,25.77321 2.24422,29.60239 -0.15599,38.14786 -1.59012,5.661 -1.34361,6.36774 1.03633,2.97114 2.28234,-3.25731 2.7675,0.17829 1.80274,12.76597 -0.726,9.47247 -0.26146,16.56845 1.0323,15.76885 1.29375,-0.79959 2.20541,4.15184 2.02593,11.00317 -0.17946,6.85133 0.78765,13.98748 2.14923,15.85814 1.36158,1.87065 2.27034,4.54468 2.01951,5.94227 -1.31594,7.33174 0.6246,16.02892 3.21873,14.42566 1.63413,-1.00995 3.15321,-0.0862 3.37575,2.053 0.22254,2.1391 0.99438,0.80218 1.71518,-2.97093 0.7208,-3.77311 -0.4214,-11.12668 -2.53819,-16.34127 z m 15.52014,-30.36633 c 4.03623,-28.62098 1.4722,-69.83213 -6.00242,-96.47475 l -5.41811,-19.31241 -2.26237,11.62749 c -2.3527,12.09161 0.51225,113.913 3.54543,126.00527 2.84849,11.35609 6.59325,3.28635 10.13747,-21.8456 z m -213.93471,1.77867 C 271.55541,277.37301 285.96375,254.38463 293.8805,226.70122 310.92738,167.09142 287.72863,68.959401 246.92328,28.069436 234.07935,15.198875 198.29775,4.0706219 178.29854,6.7268029 c -19.36804,2.572351 -53.1796,20.0353291 -67.2162,34.7157901 -7.93403,8.297966 -9.66239,11.286451 -5.1995,8.990396 3.67679,-1.891618 6.68507,-2.468215 6.68507,-1.281328 0,1.186887 2.10467,-0.437337 4.67704,-3.609388 2.57237,-3.172054 3.81024,-3.761849 2.75081,-1.310659 -1.05943,2.45119 0.17844,1.861395 2.75081,-1.310659 3.17945,-3.920657 4.67704,-4.452342 4.67704,-1.660481 0,2.741108 1.45069,2.188904 4.36222,-1.660481 3.14532,-4.158487 4.38857,-4.572908 4.45671,-1.48557 0.0681,3.087336 1.31138,2.672918 4.45671,-1.48557 3.34932,-4.428207 4.40609,-4.732535 4.5512,-1.310658 0.14511,3.421876 1.20187,3.117548 4.5512,-1.310659 3.14911,-4.163491 4.39149,-4.576619 4.4675,-1.48557 0.0601,2.445759 2.05918,1.096728 4.66192,-3.146051 3.33989,-5.444394 4.09472,-5.841086 2.82676,-1.48557 -1.45983,5.014654 -0.75297,4.782748 4.52808,-1.48557 5.26401,-6.248099 5.97691,-6.484049 4.48851,-1.48557 -1.51243,5.079193 -1.22895,5.294964 1.95178,1.48557 7.61182,-9.116283 35.46789,-8.681561 44.13324,0.688746 2.61709,2.830002 5.62536,4.278432 6.68506,3.218734 1.0597,-1.059696 1.92672,0.301636 1.92672,3.025179 0,2.723546 1.61049,4.617647 3.57887,4.209115 1.96838,-0.408531 3.70042,1.262735 3.84898,3.713925 0.14856,2.451191 1.8806,4.122457 3.84898,3.713925 1.96838,-0.408532 3.57887,1.852333 3.57887,5.024147 0,7.644009 5.12343,10.576613 6.85833,3.925648 0.75118,-2.87973 1.61484,0.11219 1.91926,6.648689 0.44303,9.51288 1.06306,10.698721 3.10697,5.94228 2.12767,-4.951363 2.58831,-4.302802 2.76231,3.889272 0.14009,6.596023 1.32923,9.139111 3.61329,7.72748 2.35706,-1.456744 2.85214,0.09656 1.6092,5.048832 -0.9874,3.934095 -0.53436,9.147309 1.00675,11.584929 1.87051,2.95863 2.81714,3.19736 2.84751,0.7181 0.025,-2.04266 1.34941,-3.71392 2.9431,-3.71392 1.7563,0 1.92435,2.63308 0.4266,6.68506 -2.81753,7.622584 -1.15762,14.960854 2.8271,12.498164 1.51314,-0.93517 1.84632,2.47975 0.76801,7.87132 -1.40752,7.03772 -0.9677,8.94406 1.68529,7.30443 2.46364,-1.52262 3.39628,-0.0364 2.97283,4.73751 -0.33936,3.8259 -0.38862,9.63021 -0.10934,12.89846 0.42393,4.96281 0.98232,5.20768 3.38773,1.48557 2.48209,-3.84075 2.88643,-3.76233 2.92565,0.56744 0.0249,2.76328 -1.29164,5.85046 -2.92577,6.86041 -4.80567,2.97007 -3.39902,8.2278 1.67985,6.27886 3.39295,-1.302 4.23477,-0.38341 3.11224,3.39604 -0.84633,2.84944 -2.3789,9.19184 -3.40576,14.09422 -1.49395,7.1326 -1.17734,8.02301 1.58481,4.45671 2.79804,-3.61264 3.1273,-2.96153 1.73856,3.4379 -0.94227,4.34204 -2.53046,10.02435 -3.52933,12.62735 -1.05451,2.748 -0.28428,4.73273 1.8367,4.73273 2.72222,0 2.61398,1.28067 -0.42493,5.02704 -2.77074,3.41581 -2.88735,4.3119 -0.36379,2.79579 2.04266,-1.22718 3.71393,-0.81533 3.71393,0.91524 0,1.73057 -1.33701,3.14649 -2.97114,3.14649 -1.63413,0 -2.97114,1.96356 -2.97114,4.36346 0,2.87226 1.77692,3.73788 5.19949,2.53292 3.99152,-1.40526 3.64639,-0.32131 -1.48557,4.6657 -7.42722,7.21744 -8.62046,12.1578 -2.97114,12.30153 2.04819,0.0521 1.05523,2.10361 -2.21388,4.57402 -4.79518,3.62363 -5.14426,4.9638 -1.82696,7.014 3.22987,1.99616 2.66824,3.30119 -2.64422,6.14433 -5.23845,2.80353 -5.84447,4.16647 -2.71301,6.1018 3.23528,1.99951 3.02103,2.87992 -1.0842,4.45523 -2.8139,1.07981 -5.11621,3.15724 -5.11621,4.61655 0,4.59573 -12.00381,14.8885 -21.03525,18.03687 -4.77188,1.66351 -8.67615,4.23075 -8.67615,5.70503 0,4.97101 7.81996,2.72997 21.03138,-6.02714 z"
     id="path10000"
     inkscape:connector-curvature="0"
     sodipodi:nodetypes="sssssssssssssssssssssssssccssssssssssssssssssscssssssssssssssssssssssssssssssssssscsssssssssssssccsssssscscsscccsssssssscssscsssssssssssssssscsssscssssssssssssssscsssssssssssssssssssssssssssssssssssssssssssssssssscssssssscsssssssssssssssssscssssssssssssssscsccsssssscssssssssssssssssssssssssssssssssssssssssscssscsssssscsssssscssssscscssssscsssccsscssssssssssssssssssssssssssssssssssssssscsssssscscsssssssssssssssssssssssss" />
  <path
     style="fill:none;stroke:none"
     d="M 190.53791,28.769963 267.653,130.0322 l -0.77894,126.18832 -39.72596,38.16806 14.79986,7.01046 64.65205,-102.8201 -58.42052,-179.15626 z"
     id="path10515"
     inkscape:connector-curvature="0" />
</svg>
