<?xml version="1.0" encoding="UTF-8" standalone="no"?>
<!-- Created with Inkscape (http://www.inkscape.org/) -->

<svg
   xmlns:dc="http://purl.org/dc/elements/1.1/"
   xmlns:cc="http://creativecommons.org/ns#"
   xmlns:rdf="http://www.w3.org/1999/02/22-rdf-syntax-ns#"
   xmlns:svg="http://www.w3.org/2000/svg"
   xmlns="http://www.w3.org/2000/svg"
   xmlns:sodipodi="http://sodipodi.sourceforge.net/DTD/sodipodi-0.dtd"
   xmlns:inkscape="http://www.inkscape.org/namespaces/inkscape"
   id="svg9990"
   version="1.1"
   inkscape:version="0.48.4 r9939"
   width="184"
   height="175"
   sodipodi:docname="ExquisiteTruffle.png">
  <metadata
     id="metadata9996">
    <rdf:RDF>
      <cc:Work
         rdf:about="">
        <dc:format>image/svg+xml</dc:format>
        <dc:type
           rdf:resource="http://purl.org/dc/dcmitype/StillImage" />
        <dc:title></dc:title>
      </cc:Work>
    </rdf:RDF>
  </metadata>
  <defs
     id="defs9994">
    <filter
       inkscape:collect="always"
       id="filter10545"
       x="-0.36552596"
       width="1.7310519"
       y="-0.24832155"
       height="1.4966431">
      <feGaussianBlur
         inkscape:collect="always"
         stdDeviation="2.9298491"
         id="feGaussianBlur10547" />
    </filter>
    <filter
       inkscape:collect="always"
       id="filter10555"
       x="-0.24204129"
       width="1.4840826"
       y="-0.73353303"
       height="2.4670661">
      <feGaussianBlur
         inkscape:collect="always"
         stdDeviation="2.0358697"
         id="feGaussianBlur10557" />
    </filter>
  </defs>
  <sodipodi:namedview
     pagecolor="#ffffff"
     bordercolor="#666666"
     borderopacity="1"
     objecttolerance="10"
     gridtolerance="10"
     guidetolerance="10"
     inkscape:pageopacity="0"
     inkscape:pageshadow="2"
     inkscape:window-width="1285"
     inkscape:window-height="730"
     id="namedview9992"
     showgrid="false"
     inkscape:zoom="1.3485714"
     inkscape:cx="143.5106"
     inkscape:cy="96.341861"
     inkscape:window-x="-4"
     inkscape:window-y="22"
     inkscape:window-maximized="0"
     inkscape:current-layer="svg9990" />
  <path
     style="fill:#2d0d03;fill-opacity:1;stroke:none"
     d="m 90.668432,15.910487 7.573093,7.0625 c 20.617595,32.01479 11.646655,34.813665 15.031785,49.154132 -1.51325,9.716652 -2.05262,27.255812 -20.012717,38.720871 l -5.006356,-1.29608 c 6.532458,-2.90043 11.801443,-7.92433 14.089513,-17.95816 2.33532,-13.556492 1.33665,-27.483427 -0.75,-41.53125 C 94.849965,32.56895 87.379344,19.194133 77.6875,18.40625 51.334672,24.945403 38.192231,32.592792 30.875,40.71875 c 10.451945,1.276528 20.841899,5.023844 33.75,16.125 5.240582,12.401373 10.961115,24.834112 11.84375,40.625 -7.78445,21.10969 -16.192607,32.41427 -27.4375,33.75 l -1.3125,-4.1875 c 11.109651,-5.24989 20.196262,-13.23088 21.5,-31.71875 C 65.370898,82.044508 63.539112,69.20853 46.40625,53.09375 34.846697,47.614876 26.138697,52.174755 23.25,53.34375 c -0.491825,1.245191 -0.948279,2.499383 -1.375,3.75 -14.3078767,45.98651 -7.671294,45.88017 -8.53125,62.28125 2.563002,10.1127 9.796864,19.76694 3.34375,30.78125 1.853814,2.01402 29.65625,11.33331 29.65625,8.90625 23.230879,-0.51944 46.359547,-1.69133 70.0625,1.09375 13.59631,-2.61251 35.33459,-2.90276 39.6875,-8.15625 -0.12613,-7.6155 -3.25947,-16.54547 0.5625,-22.40625 1.9142,-3.47148 4.62693,-3.81538 3.15625,-7.96875 l -5.9375,-74.90625 0.21875,0.125 C 152.4054,44.303784 150.54716,41.688983 148.5,38.9375 c -4.02444,-2.344999 -8.02296,-4.690152 -12.03125,-6.96875 2.17715,15.151026 2.36107,30.800357 0.34375,47 -5.46085,22.94607 -8.47638,43.2078 -23.21267,64.82881 -1.65827,0.30338 -2.66113,-0.19919 -4.31941,-1.59015 9.90884,-13.29045 13.67357,-28.89378 17.87583,-44.33241 -0.01,-4.960161 1.09278,-9.406518 1.27663,-14.246949 0.66586,-17.530891 1.0521,-35.33472 -7.65246,-58.653217 -0.7896,-5.046333 -26.882841,-9.6231 -30.111988,-9.064347 z M 162.8125,62.03125 165.25,122.3125 c 3.44788,-5.48841 2.95685,-11.5374 4.9375,-15.15625 0.37695,-13.977245 1.36558,-26.782695 -7.375,-45.125 z"
     id="path10002"
     inkscape:connector-curvature="0"
     sodipodi:nodetypes="ccccccccccccccccccccccccccccccccscccccc" />
  <path
     style="fill:#4a310b;fill-opacity:1;stroke:none"
     d="m 15.03838,74.55897 c -1.123212,-6.363522 -5.5804206,-5.849359 0.578634,-22.977973 5.814034,-6.610743 11.325234,-10.463695 18.122393,-9.870192 10.349487,4.69165 14.915459,-3.762593 34.295551,22.616525 9.302219,21.222804 7.802755,28.941166 6.488347,36.89089 -3.028699,9.85571 -6.715468,19.38238 -15.942796,26.13877 l -9.911316,3.90618 c -2.011521,-1.01613 -1.382637,-2.36232 -0.655422,-3.7208 12.492934,-4.8517 18.220894,-15.71671 21.318856,-28.919489 C 67.389497,83.545197 63.468058,68.467514 46.345339,53.38983 38.839064,51.513468 31.324621,49.596265 24.841102,52.833686 20.818922,52.529386 18.07245,64.982166 15.03838,74.55897 z"
     id="path10527"
     inkscape:connector-curvature="0"
     sodipodi:nodetypes="cccccccccccc" />
  <path
     style="fill:#4a310b;fill-opacity:1;stroke:none"
     d="m 43.049984,28.659355 32.454638,-9.780892 c 12.65747,1.485315 16.343949,11.941621 22.005971,20.422384 6.233127,17.089341 6.832567,33.826577 5.190677,50.423729 -2.77926,13.203014 -7.858226,17.535744 -14.088982,17.425844 -0.16398,1.60875 -0.457934,3.24638 3.707627,3.89301 7.785665,-3.20691 13.715765,-9.0941 17.055085,-18.723515 8.26648,-19.897599 1.5289,-39.795197 -4.07839,-59.692796 -7.86127,-14.40591 -17.598332,-21.308647 -28.919491,-21.875 -14.21772,2.860403 -26.015848,8.140399 -33.327135,17.907236 z"
     id="path10529"
     inkscape:connector-curvature="0"
     sodipodi:nodetypes="cccccccccc" />
  <path
     style="fill:#4a310b;fill-opacity:1;stroke:none"
     d="m 120.86864,20.948093 c 4.3603,-1.016658 8.1027,-5.493535 14.08899,2.595339 5.38013,27.339767 2.02301,54.388292 -2.9661,81.382418 -5.58205,12.80419 -7.93961,26.01143 -18.53814,38.18856 -4.07479,1.51147 -4.69749,0.31058 -3.89846,-2.00739 9.67182,-15.61731 19.70039,-39.47294 18.77395,-60.280749 0.18182,-20.092821 -0.72894,-40.131013 -7.46024,-59.878178 z"
     id="path10531"
     inkscape:connector-curvature="0"
     sodipodi:nodetypes="ccccccc" />
  <path
     style="fill:#4a310b;fill-opacity:1;stroke:none"
     d="m 150.90042,39.67161 c 4.0894,0.477834 7.87611,1.409719 10.0106,4.819915 4.31142,27.098601 1.06664,51.558427 5.74682,77.304025 -1.69317,3.94231 -3.95296,3.35164 -6.11759,3.52225 -6.37804,-28.588991 -1.57812,-66.99388 -9.63983,-85.64619 z"
     id="path10533"
     inkscape:connector-curvature="0"
     sodipodi:nodetypes="ccccc" />
  <path
     style="fill:#000000"
     d="m 38,158.97206 c -12.632744,-3.8055 -19.761696,-6.32464 -21.504447,-7.59897 -1.652074,-1.20803 -1.660229,-1.50629 -0.129378,-4.73232 2.039628,-4.29819 2.057599,-7.19658 0.07915,-12.76504 -2.277258,-6.40947 -4.34663,-18.046 -5.090103,-28.62278 C 10.81435,97.558476 11.099815,94.158511 13.022186,85.398904 14.650322,77.980028 15.014807,74.627185 14.244897,74.151355 12.406798,73.015347 10.724213,64.324754 11.430497,59.614913 12.578327,51.960632 21.080043,42 26.465384,42 27.707898,42 34.709688,36.069239 39.5,30.959225 48.602963,21.248736 53.518292,17.074291 59.307334,14.137435 68.29092,9.5799465 76.177095,8.9185265 84.5,12.024506 c 3.3,1.231508 10.275,2.894985 15.5,3.696614 5.225,0.801629 11.81694,2.232093 14.64876,3.178809 4.2987,1.437116 5.44467,1.50492 6.94113,0.410686 C 122.57569,18.589777 125.14071,18 127.28992,18 c 3.08199,0 4.52067,0.656234 6.80887,3.105755 1.59567,1.708166 2.90121,4.162736 2.90121,5.4546 0,1.67211 1.77907,3.788357 6.17489,7.345177 3.39618,2.747982 6.5358,4.773272 6.97692,4.500643 1.40561,-0.868714 8.46747,1.515658 10.21806,3.450029 0.92811,1.025551 2.36198,5.639949 3.18638,10.254217 0.8244,4.614269 1.92077,9.145788 2.43638,10.070043 0.5156,0.924254 2.13884,6.324254 3.60719,12 2.45467,9.488271 2.6214,11.366719 2.06992,23.319536 -0.32989,7.15 -0.91142,14.08287 -1.2923,15.40637 0.13669,4.09515 -2.99197,5.22184 -3.15666,9.03331 -0.1138,4.00258 -1.04296,5.34008 -3.29976,4.74992 -2.09005,-0.54656 -6.64734,3.47563 -8.02097,7.0792 -0.55646,1.45978 -0.33496,4.30316 0.62118,7.974 2.66457,10.23 -0.13705,13.96615 -11.47973,15.30902 -3.59783,0.42595 -11.64946,1.51245 -17.89253,2.41444 -8.64466,1.24897 -13.05553,1.416 -18.5,0.70055 -7.87304,-1.03457 -49.929169,-0.96718 -58.64897,0.094 -4.11076,0.50027 -7.141829,0.17474 -12,-1.28875 z m 15.006602,-0.99674 c 4.402948,-1.29147 53.809128,-1.06461 62.013908,0.28475 1.38628,0.22799 6.56128,-0.16206 11.5,-0.86678 4.93872,-0.70472 11.45449,-1.55514 14.47949,-1.88984 11.75956,-1.30112 12.06364,-1.41151 13.52562,-4.91053 1.15338,-2.76043 1.16021,-4.09767 0.0425,-8.33459 -1.71443,-6.49907 -1.04061,-9.99767 2.68473,-13.93974 2.40021,-2.53986 2.88128,-3.74981 2.38558,-6 -2.21143,-10.03854 -2.65754,-14.08379 -3.20783,-29.088555 -0.66578,-18.153658 -1.9463,-37.733321 -2.81928,-43.107718 -0.76952,-4.737454 -2.43643,-6.915446 -9.58851,-12.528448 l -6.25139,-4.906131 0.83401,4.406131 c 2.5538,13.491949 -1.33121,50.479237 -7.65781,72.906131 -2.9206,10.35314 -13.2914,31.33999 -16.5381,33.46731 -4.90158,3.21164 -7.3408,-0.74241 -3.48326,-5.64647 2.41828,-3.07435 7.41788,-13.92243 9.40252,-20.4015 0.82878,-2.70564 2.37597,-6.71934 3.4382,-8.91934 6.5832,-13.634534 4.61235,-63.244223 -3.28911,-82.792597 -0.39851,-0.985928 -2.35657,-2.612043 -4.35123,-3.613588 -3.71427,-1.864974 -16.164445,-4.581223 -18.076738,-3.943792 -0.586525,0.195508 0.440974,2.599138 2.288038,5.352424 3.19496,4.762478 4.23735,6.832031 8.05763,15.997553 3.32958,7.988237 4.72279,15.246157 5.29483,27.583482 0.52566,11.336929 0.358,13.26865 -1.69246,19.5 -4.33782,13.182638 -8.65083,19.372798 -16.695318,23.961648 -2.631374,1.50103 -3.649201,1.618 -5.75,0.66081 -3.647937,-1.66211 -3.182783,-2.92579 2.004654,-5.44604 3.865656,-1.87808 5.041853,-3.20408 7.75,-8.737007 C 102.4764,90.548211 102.49959,90.389135 102.44475,75.5 102.39938,63.182012 101.99573,59.107409 100.18725,52.711498 94.613941,33.000888 85.309963,20 76.777535,20 74.825714,20 67.433119,22.412137 48.5,29.226704 c -3.453724,1.243093 -12.766031,7.183992 -14.459703,9.224741 -1.267272,1.52697 -0.573312,1.861629 6.250258,3.014157 8.975552,1.516007 20.855924,9.49347 26.538831,17.820362 C 71.981705,66.83541 77,83.903446 77,93.877869 c 0,10.935171 -7.546207,25.555101 -17.080464,33.091501 -7.337278,5.79978 -13.096202,6.77239 -13.732686,2.31926 -0.248671,-1.73981 0.677904,-2.69797 4.5,-4.65339 6.083985,-3.11261 11.357615,-8.63567 14.767352,-15.46578 C 70.505658,99.050778 68.450572,87.070939 58.831194,70.561554 49.916556,55.261688 43.872039,51.126921 32.172544,52.325638 22.259944,53.341271 21.770153,54.230483 16.102883,81.5 c -2.92207,14.060284 -3.059361,15.657801 -2.191465,25.5 1.07063,12.14127 3.4021,23.77181 5.628305,28.07682 1.378763,2.66623 1.389585,3.6323 0.09752,8.70538 -0.799342,3.13848 -1.256591,6.02469 -1.01611,6.4138 0.240482,0.3891 3.686606,1.70605 7.658054,2.92655 3.971448,1.22049 9.695814,3.01012 12.720814,3.97695 6.50893,2.08033 9.304212,2.25512 14.006601,0.87582 z M 68,150 c -0.825,-0.53316 -1.05,-0.96937 -0.5,-0.96937 0.55,0 1.675,0.43621 2.5,0.96937 0.825,0.53316 1.05,0.96937 0.5,0.96937 -0.55,0 -1.675,-0.43621 -2.5,-0.96937 z m 13.733333,-1.12409 c 0.678334,-0.68342 1.485241,-0.99067 1.793128,-0.68278 0.307888,0.30789 -0.247112,0.86705 -1.233333,1.24258 -1.425198,0.54268 -1.540062,0.42782 -0.559795,-0.5598 z m -28.590096,-0.76622 c -0.746219,-0.47283 -0.966256,-1.10104 -0.488971,-1.39601 0.477285,-0.29498 1.736336,0.0988 2.797892,0.875 2.158373,1.57824 0.09457,2.04394 -2.308921,0.52101 z M 60.5,148 c -0.339919,-0.55 -0.168034,-1 0.381966,-1 0.55,0 1.278115,0.45 1.618034,1 0.339919,0.55 0.168034,1 -0.381966,1 -0.55,0 -1.278115,-0.45 -1.618034,-1 z m -14.425861,-2.87726 c -1.334224,-0.37285 -2.623789,-1.27169 -2.865702,-1.99743 -0.360159,-1.08048 -0.01127,-1.09016 1.925861,-0.0534 1.301136,0.69635 2.579452,1.1563 2.840702,1.02211 0.26125,-0.13419 0.63625,0.23977 0.833333,0.83102 0.197084,0.59125 0.208334,1.03014 0.025,0.97532 -0.183333,-0.0548 -1.42497,-0.40474 -2.759194,-0.77758 z M 62.75,145.33772 c 0.6875,-0.27741 1.8125,-0.27741 2.5,0 0.6875,0.27741 0.125,0.50439 -1.25,0.50439 -1.375,0 -1.9375,-0.22698 -1.25,-0.50439 z M 38.361626,143.5 C 38.045044,142.675 36.934167,142 35.893011,142 34.813506,142 34,141.30277 34,140.37756 c 0,-1.32262 0.274847,-1.39435 1.487265,-0.38813 0.817996,0.67888 2.055496,1.01627 2.75,0.74976 0.798331,-0.30634 1.262735,0.38806 1.262735,1.88813 0,2.74069 -0.325729,2.9904 -1.138374,0.87268 z m -7.346313,-4.75 c -0.01029,-1.17572 0.723045,-1.72409 2.234687,-1.67105 1.503442,0.0528 1.752295,0.2684 0.75,0.64994 -0.825,0.31405 -1.830609,1.06602 -2.234687,1.67105 -0.453168,0.67854 -0.740555,0.42949 -0.75,-0.64994 z m -1.820364,-3.25 c 0.02038,-1.65 0.244498,-2.20394 0.498042,-1.23097 0.253543,0.97297 0.236869,2.32297 -0.03705,3 C 29.382014,137.94606 29.174569,137.15 29.194949,135.5 z M 31,132.03138 c 0,-0.53273 0.675,-0.70959 1.5,-0.39301 0.825,0.31659 1.5,0.75246 1.5,0.96862 C 34,132.82314 33.325,133 32.5,133 31.675,133 31,132.56412 31,132.03138 z m -5,-2 c 0,-0.53273 0.642167,-0.72219 1.427037,-0.42101 0.962936,0.36952 1.334832,-0.0472 1.143523,-1.28138 -0.155932,-1.00594 -0.0901,-1.26649 0.146288,-0.57899 0.23639,0.6875 1.409304,1.28163 2.606476,1.32029 2.103982,0.0679 2.109882,0.099 0.176676,0.92971 -2.751434,1.18233 -5.5,1.19802 -5.5,0.0314 z M 26.01531,124.25 c 0.02848,-1.39513 1.952981,-3.83816 1.969374,-2.5 0.0084,0.6875 0.802813,1.28163 1.765313,1.32029 1.496439,0.0601 1.460215,0.19481 -0.25,0.92971 -2.586713,1.11155 -3.503621,1.17733 -3.484687,0.25 z M 26,119.12012 c 0.825,-0.48982 3.075,-1.16945 5,-1.51028 3.155206,-0.55865 3.253718,-0.51212 1,0.47237 -3.309419,1.44563 -8.075294,2.27006 -6,1.03791 z m 3.733333,-9.24421 c 0.678334,-0.68342 1.485241,-0.99067 1.793128,-0.68278 0.307888,0.30789 -0.247112,0.86705 -1.233333,1.24258 -1.425198,0.54268 -1.540062,0.42782 -0.559795,-0.5598 z M 24,109.10765 c 0,-0.67413 -0.5625,-0.94076 -1.25,-0.59251 -0.6875,0.34825 -0.376492,-0.0752 0.69113,-0.94098 2.603041,-2.11094 4.131155,-2.0019 2.464282,0.17584 -0.736712,0.9625 -1.466812,1.9375 -1.622444,2.16667 C 24.127335,110.14583 24,109.78178 24,109.10765 z M 23.046921,103.5 c 0.01955,-2.39909 8.726802,-8.126277 10.166241,-6.686838 0.558955,0.558955 -0.968356,2.015519 -3.896973,3.716458 -2.648904,1.53849 -5.146798,3.2862 -5.550876,3.88381 -0.429006,0.63448 -0.727907,0.25443 -0.718392,-0.91343 z m 1.498086,-7.75 c 0.37388,-1.2375 1.091433,-2.689728 1.594561,-3.227174 0.503129,-0.537445 0.40853,0.475055 -0.210219,2.25 -1.266363,3.632689 -2.436103,4.458381 -1.384342,0.977174 z M 25.43257,84.109104 C 26.146025,82.954709 30,80.626427 30,81.349806 c 0,0.231096 -1.180406,1.193606 -2.623124,2.138911 -1.442718,0.945305 -2.317655,1.224479 -1.944306,0.620387 z m 0.129376,-6.228895 c 0.87204,-1.686338 1.841471,-2.810126 2.154291,-2.497305 0.31282,0.31282 0.05854,1.183543 -0.56506,1.934939 -0.623604,0.751397 -0.893322,1.606679 -0.599373,1.900628 0.293949,0.293948 -0.165261,0.802957 -1.020466,1.13113 -1.395068,0.535338 -1.391922,0.281478 0.03061,-2.469392 z m 6.171387,1.995703 c 0.678334,-0.683418 1.485241,-0.990671 1.793128,-0.682784 0.307888,0.307887 -0.247112,0.867048 -1.233333,1.242579 -1.425198,0.542685 -1.540062,0.427821 -0.559795,-0.559795 z M 25.859868,72.305694 C 27.134758,69.874961 29,68.378257 29,69.785995 c 0,0.497217 -0.965479,1.761274 -2.145509,2.809017 -2.130611,1.89176 -2.137518,1.889751 -0.994623,-0.289318 z M 27.5,66 c 0.995486,-1.1 2.034975,-2 2.309975,-2 0.275,0 -0.314489,0.9 -1.309975,2 -0.995486,1.1 -2.034975,2 -2.309975,2 -0.275,0 0.314489,-0.9 1.309975,-2 z M 28,61.570368 c 0,-0.275 0.9,-0.981666 2,-1.570368 1.1,-0.588702 2,-0.845368 2,-0.570368 0,0.275 -0.9,0.981666 -2,1.570368 -1.1,0.588702 -2,0.845368 -2,0.570368 z M 55.8125,43.316886 c 0.721875,-0.288871 1.584375,-0.253344 1.916667,0.07895 0.332291,0.332292 -0.258334,0.568641 -1.3125,0.52522 -1.164943,-0.04798 -1.4019,-0.284941 -0.604167,-0.60417 z m -6.37137,-3.76172 C 50.508751,38.699825 51.821251,38 52.357796,38 53.628339,38 53.061032,38.4619 50,39.919712 c -2.357268,1.122645 -2.389176,1.101832 -0.55887,-0.364546 z m 5.37137,-2.23828 c 0.721875,-0.288871 1.584375,-0.253344 1.916667,0.07895 0.332291,0.332292 -0.258334,0.568641 -1.3125,0.52522 -1.164943,-0.04798 -1.4019,-0.284941 -0.604167,-0.60417 z M 115.30147,139.75 c 1.32179,-1.7875 4.32793,-7.28124 6.6803,-12.20832 9.70385,-20.32479 15.75734,-52.921298 14.68368,-79.0679 -0.76232,-18.564659 -1.76055,-24.322617 -4.6178,-26.63628 -3.16829,-2.565525 -6.50448,-2.315433 -8.43596,0.632391 -1.51457,2.311525 -1.50592,2.427757 0.13499,1.812769 1.50056,-0.562391 1.56612,-0.426726 0.45476,0.941082 -0.88821,1.093174 -0.96206,1.806169 -0.23369,2.256329 0.58568,0.361969 0.80916,1.071877 0.49662,1.577573 -0.31253,0.505696 0.18248,0.631368 1.10003,0.279271 1.42088,-0.545246 1.50273,-0.330865 0.55193,1.445713 -1.60258,2.994461 -1.37834,4.246798 0.63367,3.538809 1.42856,-0.502686 1.5204,-0.368345 0.5,0.731384 -1.84432,1.987707 -1.51988,3.414696 0.41372,1.819624 1.51686,-1.251298 1.55188,-1.162609 0.39675,1.004729 -0.82019,1.538902 -0.9134,2.596804 -0.26434,3 0.55144,0.342554 0.82553,2.138246 0.60908,3.990427 -0.35632,3.049104 -0.23461,3.238257 1.28691,2 1.42816,-1.162282 1.39764,-0.884294 -0.20327,1.851632 -2.10864,3.603622 -1.45822,5.295773 1.21972,3.173268 1.67338,-1.326302 1.67453,-1.263439 0.0242,1.322316 -1.95743,3.066853 -2.28367,5.24371 -0.63297,4.223523 0.79969,-0.494236 0.79969,-0.118995 0,1.375241 C 128.72753,61.377683 128.675,63.318916 130,62.5 c 0.55,-0.339919 1,-0.168034 1,0.381966 0,0.55 -0.43035,1.265969 -0.95633,1.591042 -1.41897,0.876973 -0.098,3.485069 1.46196,2.886456 1.45775,-0.55939 1.48069,2.041079 0.0297,3.361592 -0.47087,0.428509 -0.48936,0.147078 -0.0411,-0.625564 0.52717,-0.908667 0.43326,-1.168683 -0.266,-0.736516 -0.70077,0.433102 -0.78399,1.703016 -0.23667,3.611428 0.89626,3.12506 0.80997,4.363646 -0.52038,7.469626 -0.54793,1.27925 -0.41485,2.078729 0.3907,2.347246 0.83219,0.277398 0.90372,0.790296 0.22436,1.608867 -0.5485,0.660909 -0.87107,2.529648 -0.71682,4.152755 0.15426,1.623106 -0.0773,3.431015 -0.51458,4.017576 -0.43728,0.58656 -0.85984,2.61156 -0.93903,4.5 -0.17263,4.116906 -2.8273,13.893426 -4.28601,15.784406 -0.57315,0.74299 -1.17431,1.98049 -1.33592,2.75 -0.79814,3.80048 -2.50874,8.17878 -5.34473,13.67991 -1.072,2.07944 -1.9491,4.23576 -1.9491,4.79182 0,0.55606 -0.88444,1.96035 -1.96542,3.12065 -1.08098,1.16029 -1.72253,2.50263 -1.42567,2.98296 0.29686,0.48033 5e-5,0.74968 -0.65958,0.59856 -0.65963,-0.15113 -1.40558,0.28772 -1.65766,0.97522 -0.94581,2.57948 2.69959,1.12417 5.0098,-2 z M 56.640809,126.66642 c 5.044374,-3.46063 11.072505,-10.50987 14.384787,-16.82143 4.378483,-8.34322 3.950255,-25.991733 -0.943155,-38.870142 C 64.383784,55.977201 52.440427,45.774175 37.415425,43.067921 27.650692,41.309129 20.215395,44.800872 15.929174,53.158234 13.2522,58.377851 12.611722,63.885503 14.082069,69.042012 L 15.353236,73.5 16.259279,69 C 18.48744,57.933491 22.679684,50.638472 27,50.309825 c 1.375,-0.104596 4.861725,-0.400379 7.748278,-0.657294 2.886553,-0.256916 5.511924,-0.04053 5.834157,0.480852 0.322233,0.521384 1.504361,0.656457 2.626951,0.30016 1.547408,-0.491128 1.843423,-0.319567 1.223885,0.709323 -0.676779,1.123952 -0.526476,1.121321 0.874771,-0.01531 C 46.774152,49.938308 47,49.98596 47,51.484544 c 0,1.152155 0.518031,1.530646 1.551938,1.133899 1.013954,-0.38909 1.30374,-0.193942 0.835955,0.56295 -0.473626,0.766343 -0.16995,0.948952 0.897135,0.539473 1.208318,-0.463675 1.453442,-0.192642 0.976814,1.080062 -0.573348,1.530965 -0.455097,1.551438 1.195173,0.206914 1.699296,-1.384467 1.777248,-1.3213 1.080097,0.875229 -0.473454,1.491721 -0.383627,2.140104 0.242849,1.75292 0.546826,-0.337957 0.932537,0.16819 0.857134,1.124771 -0.07582,0.961928 0.454782,1.616433 1.187235,1.464461 0.728381,-0.151127 1.095573,0.09536 0.815983,0.547746 -0.279591,0.452387 -0.09493,1.476037 0.410357,2.274777 0.796451,1.259001 0.93826,1.252647 1.065658,-0.04775 0.08082,-0.825 0.439614,0.075 0.79731,2 0.365701,1.968087 1.183462,3.390578 1.868358,3.25 C 61.451898,68.1125 62,68.83429 62,69.853977 c 0,1.019688 1.132336,3.075789 2.516303,4.569113 1.383966,1.493325 2.282506,3.093426 1.996756,3.555781 -0.285751,0.462355 -0.214398,1.635852 0.158563,2.607772 0.632419,1.648059 0.734996,1.637294 1.522359,-0.159758 0.594315,-1.356446 0.695026,-0.950033 0.340191,1.372826 -0.351096,2.298386 -0.16091,3.087634 0.626729,2.600847 0.786735,-0.48623 0.93052,0.09905 0.472576,1.92365 -0.525951,2.095557 -0.350574,2.504462 0.872804,2.035008 1.264315,-0.485163 1.364689,-0.150041 0.57621,1.923817 -0.525142,1.381227 -0.785895,2.680229 -0.579453,2.886672 C 72.507704,95.17437 70.926505,108 68.674696,108 c -0.48877,0 -0.656454,0.60516 -0.372629,1.34479 0.283824,0.73963 -0.318929,1.9466 -1.339451,2.68215 -1.020522,0.73556 -1.628039,1.7054 -1.350038,2.15521 C 65.890579,114.63197 65.614919,115 65,115 c -0.614919,0 -0.890579,0.36803 -0.612578,0.81785 0.278001,0.44981 -0.370441,1.44915 -1.440983,2.22075 C 61.875898,118.81021 61,120.09218 61,120.88743 c 0,0.79524 -0.284208,1.1617 -0.631573,0.81433 -0.347365,-0.34736 -1.809865,0.59014 -3.25,2.08333 -1.440135,1.4932 -3.518427,2.86863 -4.618427,3.05651 -1.1,0.18789 -2.150935,0.75319 -2.33541,1.25623 -0.184476,0.50305 -0.746976,0.66027 -1.25,0.34938 C 48.411565,128.13633 48,128.35852 48,128.94098 c 0,2.03728 3.822284,1.03112 8.640809,-2.27456 z m 3.438138,-61.249753 c 0.04798,-1.164943 0.284941,-1.4019 0.604167,-0.604167 0.288871,0.721875 0.253344,1.584375 -0.07895,1.916667 -0.332292,0.332291 -0.568641,-0.258334 -0.525217,-1.3125 z M 163.85918,116.69105 c -0.93658,-2.30719 -1.33296,-10.66954 -1.43109,-30.19105 -0.16764,-33.350368 -0.77495,-39.937772 -3.97723,-43.140046 -1.29797,-1.297975 -3.39291,-2.324428 -4.65541,-2.281007 -1.2625,0.04342 -1.73295,0.305921 -1.04545,0.583334 0.6875,0.277412 1.25,1.168443 1.25,1.980069 0,0.811626 0.37083,1.246501 0.82406,0.966388 0.45323,-0.280114 0.823,0.255829 0.82172,1.190983 -0.006,4.603063 0.42829,7.272533 1.11498,6.848137 0.41842,-0.258597 0.70359,3.304217 0.63371,7.917365 -0.0823,5.433962 0.22936,8.167266 0.88508,7.762006 0.64334,-0.397608 0.76987,0.339741 0.34724,2.023618 C 158.22252,71.9616 158.37513,73 159.01613,73 c 0.7279,0 0.73773,0.591396 0.0317,1.910533 -0.5757,1.075716 -0.77959,4.680592 -0.46661,8.25 0.76062,8.674518 0.75534,9.96331 -0.0525,12.839467 -0.53519,1.90533 -0.45222,2.143198 0.3488,1 0.76817,-1.096316 0.93146,0.06001 0.60675,4.29666 -0.24435,3.18816 -0.088,5.57646 0.34744,5.30734 0.43544,-0.26912 0.74228,1.39739 0.68187,3.70335 -0.0604,2.30596 0.2651,4.70778 0.72337,5.33739 0.45827,0.62961 0.76413,1.52961 0.67971,2 -0.44291,2.46765 0.21022,5.39487 1.08333,4.85526 0.55,-0.33992 1.06128,-0.029 1.13618,0.69098 0.0749,0.71996 0.33468,0.26999 0.57728,-0.99993 0.2426,-1.26992 -0.14183,-3.74492 -0.85428,-5.5 z m 5.22363,-10.22043 C 170.44129,96.837623 169.57831,82.967137 167.06257,74 l -1.82358,-6.5 -0.76145,3.913478 c -0.79185,4.069688 0.17241,38.339832 1.19329,42.409742 0.95872,3.82213 2.2191,1.10609 3.41198,-7.3526 z m -72.004255,0.59865 C 102.51061,103.46867 107.36004,95.731443 110.02459,86.414006 115.76208,66.351066 107.95405,33.32266 94.220143,19.560277 89.897247,15.228417 77.854194,11.482968 71.123036,12.376962 64.604312,13.242741 53.224314,19.120276 48.5,24.061296 45.829634,26.854152 45.247919,27.85999 46.75,27.087204 47.9875,26.45054 49,26.256474 49,26.655946 49,27.055418 49.708371,26.508751 50.574157,25.44113 51.439944,24.373508 51.856573,24.175 51.5,25 51.143427,25.825 51.56006,25.626492 52.425843,24.55887 53.495955,23.23929 54,23.06034 54,24 c 0,0.922578 0.48826,0.736722 1.468197,-0.55887 1.058624,-1.399627 1.477068,-1.539109 1.5,-0.5 0.02293,1.039108 0.441375,0.899627 1.5,-0.5 C 59.595483,20.950723 59.951163,20.848295 60,22 c 0.04884,1.151705 0.404517,1.049277 1.531803,-0.44113 1.059899,-1.401311 1.478051,-1.540358 1.503632,-0.5 0.02024,0.823172 0.69306,0.369127 1.56907,-1.05887 1.124109,-1.832426 1.378162,-1.965941 0.951406,-0.5 -0.491338,1.687788 -0.25343,1.609735 1.524018,-0.5 1.771714,-2.10293 2.011656,-2.182344 1.510704,-0.5 -0.509041,1.70951 -0.413628,1.782132 0.656913,0.5 2.561918,-3.068278 11.937471,-2.921963 14.853975,0.231812 0.880837,0.952497 1.893337,1.439997 2.25,1.083333 C 86.708185,19.958482 87,20.416667 87,21.333333 87,22.25 87.542045,22.8875 88.204545,22.75 88.867045,22.6125 89.45,23.175 89.5,24 c 0.05,0.825 0.632955,1.3875 1.295455,1.25 C 91.457955,25.1125 92,25.873442 92,26.940983 c 0,2.572753 1.724399,3.559783 2.308317,1.32126 0.252824,-0.969234 0.543509,0.03776 0.645967,2.237757 0.149111,3.201761 0.357794,3.600881 1.045716,2 0.716114,-1.666486 0.87115,-1.448199 0.929715,1.309017 0.04715,2.220031 0.447378,3.075961 1.216128,2.600847 0.793319,-0.490298 0.959947,0.0325 0.541609,1.699291 -0.332329,1.324103 -0.179849,3.078722 0.338844,3.899153 0.629559,0.995791 0.948169,1.076139 0.958391,0.241692 0.0084,-0.6875 0.454173,-1.25 0.990563,-1.25 0.59112,0 0.64768,0.886219 0.14358,2.25 -0.9483,2.565541 -0.38962,5.03539 0.95152,4.20652 0.50928,-0.31475 0.62142,0.834613 0.25849,2.64926 -0.47373,2.368694 -0.3257,3.010314 0.56722,2.458461 0.82919,-0.512472 1.14309,-0.01224 1.00057,1.594509 -0.11422,1.287688 -0.1308,3.24125 -0.0368,4.34125 0.14268,1.670337 0.33062,1.752753 1.14021,0.5 0.8354,-1.292687 0.97149,-1.266292 0.98469,0.190983 C 105.99311,60.121024 105.55,61.160081 105,61.5 c -1.61745,0.999638 -1.14401,2.769238 0.56539,2.113281 1.14197,-0.438215 1.4253,-0.129043 1.04749,1.143011 -0.28485,0.959039 -0.80067,3.093708 -1.14628,4.743708 -0.50282,2.400629 -0.39626,2.700314 0.5334,1.5 0.94174,-1.215911 1.05256,-0.996765 0.58515,1.157099 -0.31714,1.461405 -0.85168,3.373905 -1.18787,4.25 C 105.04236,77.331997 105.3016,78 106.01546,78 c 0.91622,0 0.87979,0.431036 -0.14302,1.691958 -0.93255,1.149661 -0.9718,1.45126 -0.12244,0.940983 0.6875,-0.413036 1.25,-0.274417 1.25,0.308042 C 107,81.523442 106.55,82 106,82 c -0.55,0 -1,0.660877 -1,1.468615 0,0.966722 0.59806,1.258063 1.75,0.852509 1.34343,-0.472971 1.22727,-0.108144 -0.5,1.570339 -2.49979,2.429184 -2.9014,4.091964 -1,4.14034 0.68936,0.01754 0.35516,0.708016 -0.74513,1.539485 -1.61392,1.219608 -1.73141,1.670671 -0.6149,2.36071 C 104.97705,94.603847 104.78802,95.043081 103,96 c -1.76311,0.94359 -1.96708,1.402315 -0.91312,2.053692 1.0889,0.672977 1.01679,0.969297 -0.36491,1.499502 C 100.77489,99.916625 100,100.61583 100,101.10699 c 0,1.54679 -4.040137,5.01104 -7.079858,6.07069 C 91.314064,107.73757 90,108.60163 90,109.09783 c 0,1.6731 2.631974,0.91883 7.078555,-2.02856 z"
     id="path10000"
     inkscape:connector-curvature="0"
     sodipodi:nodetypes="sssssssssssssssssssssssssccssssssssssssssssssscssssssssssssssssssssssssssssssssssscsssssssssssssccsssssscscsscccsssssssscssscsssssssssssssssscsssscssssssssssssssscsssssssssssssssssssssssssssssssssssssssssssssssssscssssssscsssssssssssssssssscssssssssssssssscsccsssssscssssssssssssssssssssssssssssssssssssssssscssscsssssscsssssscssssscscssssscsssccsscssssssssssssssssssssssssssssssssssssssscsssssscscsssssssssssssssssssssssss" />
  <path
     style="fill:none;stroke:none;stroke-width:1px;stroke-linecap:butt;stroke-linejoin:miter;stroke-opacity:1"
     d="M 75.242454,19.796054 101.19717,53.878001 100.935,96.349352 87.564389,109.19562 92.545596,111.55514 114.30561,76.948858 94.642947,16.650028 z"
     id="path10515"
     inkscape:connector-curvature="0" />
</svg>
