<?xml version="1.0" encoding="UTF-8" standalone="no"?>
<!-- Created with Inkscape (http://www.inkscape.org/) -->

<svg
   xmlns:dc="http://purl.org/dc/elements/1.1/"
   xmlns:cc="http://creativecommons.org/ns#"
   xmlns:rdf="http://www.w3.org/1999/02/22-rdf-syntax-ns#"
   xmlns:svg="http://www.w3.org/2000/svg"
   xmlns="http://www.w3.org/2000/svg"
   xmlns:sodipodi="http://sodipodi.sourceforge.net/DTD/sodipodi-0.dtd"
   xmlns:inkscape="http://www.inkscape.org/namespaces/inkscape"
   id="svg14923"
   version="1.1"
   inkscape:version="0.48.4 r9939"
   width="490.98486"
   height="133.68036"
   sodipodi:docname="FakeMoustache.svg">
  <metadata
     id="metadata14929">
    <rdf:RDF>
      <cc:Work
         rdf:about="">
        <dc:format>image/svg+xml</dc:format>
        <dc:type
           rdf:resource="http://purl.org/dc/dcmitype/StillImage" />
        <dc:title />
      </cc:Work>
    </rdf:RDF>
  </metadata>
  <defs
     id="defs14927" />
  <sodipodi:namedview
     pagecolor="#ffffff"
     bordercolor="#666666"
     borderopacity="1"
     objecttolerance="10"
     gridtolerance="10"
     guidetolerance="10"
     inkscape:pageopacity="0"
     inkscape:pageshadow="2"
     inkscape:window-width="1242"
     inkscape:window-height="738"
     id="namedview14925"
     showgrid="false"
     inkscape:zoom="1.2689394"
     inkscape:cx="177.24713"
     inkscape:cy="86.131278"
     inkscape:window-x="2"
     inkscape:window-y="22"
     inkscape:window-maximized="0"
     inkscape:current-layer="svg14923"
     fit-margin-top="0"
     fit-margin-left="0"
     fit-margin-right="0"
     fit-margin-bottom="0" />
  <path
     style="fill:#60371b;fill-opacity:1;stroke:none"
     d="M 5.9496814,11.453235 C 37.682928,38.277469 67.196826,52.619281 94.017038,48.201298 122.66275,43.482609 149.05018,21.733262 173.79306,6.4512786 c 29.89457,-13.750772 49.74803,5.9688114 71.13893,20.5635944 25.88207,-43.369107 65.61421,-21.4591164 98.37177,-0.555772 37.29604,15.98224 98.30497,77.537549 145.0567,26.677095 -22.9914,67.628974 -59.02967,72.922904 -95.03714,78.363964 -38.35586,2.58247 -77.25831,-0.11875 -117.82384,-18.89628 -19.86839,-8.42941 -27.48617,-21.759067 -36.681,-34.457909 -7.01614,14.022422 -18.07026,21.987869 -29.45595,29.455959 l -91.14674,12.227 C 82.304796,106.6912 43.850707,96.428283 24.290183,64.807422 10.557732,36.422414 2.6771287,16.179107 5.9496814,11.453235 z"
     id="path14935"
     inkscape:connector-curvature="0"
     sodipodi:nodetypes="csccccccccccc" />
  <path
     style="fill:#000000"
     d="m 327.77865,129.38525 c -32.82903,-6.04277 -38.79613,-7.82283 -55.5349,-16.56678 -15.06069,-7.86737 -25.25831,-16.760517 -30.21898,-26.353427 l -3.25179,-6.288256 -5.59363,7.613586 c -11.92389,16.229797 -20.10099,20.766337 -46.43587,25.761977 -19.40708,3.68146 -53.78906,9.95536 -71.91323,6.91474 C 62.450199,111.67948 29.897964,80.864524 15.61607,52.517361 10.444011,42.251686 -1.1333313,8.7198166 0.08988373,7.5483096 2.9682387,4.7916336 7.9331404,6.9678526 13.944956,13.62128 28.965812,30.245233 71.517613,47.729681 93.146818,46.165166 107.77273,45.107223 130.91214,34.343165 144.49686,22.278014 157.80289,10.46038 166.0065,5.6298406 179.26812,1.8036556 c 17.45277,-5.0354 38.77892,0.605183 57.69502,15.2598384 l 8.92078,6.91109 5.41594,-8.540029 c 8.11831,-12.8012574 13.16538,-15.29406137 31.15093,-15.38578937 8.47383,-0.04321 18.99749,1.08968697 23.38588,2.51756297 7.65985,2.49233 52.70911,28.3540834 70.29435,40.3543784 12.63273,8.620684 41.67498,21.442307 56.37072,24.886659 22.19174,5.201246 46.18481,-0.632508 51.61467,-12.549768 2.1097,-4.63026 4.42713,-5.875303 6.70186,-3.600568 1.40484,1.40484 -6.33908,20.627735 -13.30853,33.036033 -11.72512,20.875177 -25.40129,32.339857 -51.27804,42.986107 -11.38984,4.68603 -15.72389,5.28099 -42.60073,5.84799 -24.89858,0.52527 -34.27356,-0.16997 -55.85232,-4.14191 z m 27.91509,-3.07528 c -5.61056,-6.1996 -1.64238,-7.34689 4.62915,-1.33839 5.0666,4.85409 14.66855,7.47266 14.09559,3.84404 -0.63452,-4.01869 0.61478,-4.44921 4.66952,-1.60916 5.4301,3.8034 17.83058,4.26535 16.42255,0.61179 -0.71987,-1.86796 2.04486,-2.32402 11.0218,-1.81814 10.66453,0.60097 13.8263,-0.2171 28.74175,-7.43659 11.73605,-5.68057 19.19037,-10.87401 24.87119,-17.32774 8.61919,-9.791937 16.79625,-22.772191 19.15815,-30.41165 l 1.43225,-4.632575 -6.66313,3.458178 c -13.52346,7.018713 -43.85589,5.476449 -62.51543,-3.178619 -2.1942,-1.017762 -8.95109,-3.98718 -15.01532,-6.598711 C 390.47758,57.260873 377.462,49.73532 367.61829,43.148953 343.37571,26.928396 315.4538,10.683337 306.1977,7.4142636 302.00787,5.9344986 291.8259,4.5930256 283.57111,4.4332106 266.10054,4.0949746 260.82312,6.8599946 253.32568,20.279771 248.41127,29.076139 243.39005,30.862144 238.87365,25.42023 234.52875,20.184934 220.66803,11.588631 210.42392,7.7759456 190.59908,0.39746563 170.26768,5.9226206 148.22697,24.678264 141.65889,30.267409 128.70519,38.530158 119.44099,43.039925 99.217075,52.884822 86.343154,53.806789 64.877656,46.947485 49.24357,41.95161 19.757564,26.133871 11.111649,18.104763 7.8607334,15.08577 5.6150154,13.73933 6.1211684,15.112674 c 0.506149,1.373345 2.934762,8.600166 5.3969146,16.059602 9.89796,29.987246 21.260465,50.597458 52.229578,65.387227 19.350655,9.241207 30.376487,6.084187 42.440939,3.0562 6.32843,-1.58833 6.9121,1.715237 0.67419,3.815947 -4.37072,1.47191 -4.3486,1.53326 0.84579,2.34523 2.99433,0.46808 8.90014,-0.98555 13.4644,-3.31405 6.78636,-3.462147 8.13048,-3.646517 8.13048,-1.11524 0,1.66795 -0.72607,3.03263 -1.61348,3.03263 -0.88741,0 -3.35588,1.40965 -5.4855,3.13255 -3.64372,2.94785 -3.41449,3.07017 3.88782,2.07476 4.2679,-0.58179 11.30687,-3.4051 15.64215,-6.27407 7.61149,-5.037027 11.33232,-5.488707 8.58411,-1.04202 -0.7295,1.18036 -4.63429,3.89329 -8.67732,6.02873 l -7.35097,3.88264 5.98418,0.0751 c 6.71725,0.0842 14.52374,-4.42338 20.55205,-11.86705 2.22123,-2.742757 4.62003,-4.407857 5.33066,-3.700257 0.71062,0.70762 -1.54916,4.522537 -5.02175,8.477587 -5.75141,6.5505 -5.94752,7.19102 -2.2017,7.19102 4.25045,0 17.97975,-11.93844 21.77345,-18.933277 1.18506,-2.18506 2.7924,-3.3351 3.57186,-2.55566 1.86757,1.8676 -4.14569,11.350767 -10.79311,17.021137 l -5.2853,4.50847 6.98154,-1.35392 c 7.85832,-1.52396 9.94969,-3.63217 17.07425,-17.211797 2.75537,-5.25182 5.87213,-9.0158 6.92617,-8.36438 2.26714,1.40117 -2.63015,11.85707 -8.62366,18.411837 l -4.10383,4.48813 4.25645,0 c 6.05596,0 13.85663,-8.907087 20.96332,-23.936697 3.72164,-7.870706 6.42489,-11.651284 6.87922,-9.620766 1.14046,5.097268 -7.38621,23.230856 -12.99981,27.646513 -6.40337,5.03689 -4.60451,4.9513 6.5966,-0.31384 7.2366,-3.401597 8.55184,-4.768937 6.71555,-6.981537 -1.40065,-1.68768 -1.50163,-2.75147 -0.26113,-2.75147 2.95872,0 8.43973,-14.923687 8.43973,-22.979708 0,-3.817645 1.00877,-6.941174 2.24174,-6.941174 1.49771,0 1.93977,3.641214 1.33194,10.97099 -0.5004,6.034046 -0.63764,10.970992 -0.30499,10.970992 0.33265,0 2.36168,-3.814909 4.50895,-8.477584 l 3.90413,-8.477584 3.80913,8.468749 c 3.78942,8.424979 6.45108,9.266099 6.45108,2.038651 0,-5.404653 3.8295,-11.839069 6.18112,-10.385684 1.29745,0.80187 1.21971,2.160782 -0.22309,3.899246 -2.41817,2.91371 -3.14598,16.055766 -1.22444,22.109946 0.6633,2.08991 3.03384,4.94134 5.26785,6.33651 3.69419,2.307057 3.97263,2.126057 3.07624,-1.99966 -2.30459,-10.60705 -1.85617,-21.491493 0.8854,-21.491493 1.0971,0 1.99473,4.532704 1.99473,10.072683 0,11.12219 3.94848,20.613077 9.90094,23.798747 3.7254,1.99378 3.76323,1.80543 0.97671,-4.86361 -3.16379,-7.572047 -3.81832,-15.044737 -1.31773,-15.044737 0.86954,0 2.61994,3.88447 3.88975,8.63217 2.66659,9.970047 7.5841,16.398637 13.96245,18.252837 l 4.47277,1.30024 -3.97409,-9.27119 c -4.41728,-10.305097 -4.8505,-12.929887 -2.13406,-12.929887 1.012,0 2.88441,3.16449 4.16086,7.032217 2.78293,8.43235 11.18571,18.89922 15.17226,18.89922 2.45146,0 2.4258,-0.85126 -0.17733,-5.88512 -3.43334,-6.63941 -3.87325,-10.07269 -1.29058,-10.07269 0.964,0 2.88775,2.74019 4.275,6.08932 2.52491,6.09562 14.36097,13.85793 21.13077,13.85793 3.14883,0 3.15428,-0.2502 0.0794,-3.64784 -3.16263,-3.49472 -4.46351,-8.32051 -2.24288,-8.32051 0.58206,0 3.7669,3.08492 7.07741,6.85537 5.43673,6.1921 9.04269,8.00076 17.60621,8.83079 2.07972,0.20158 1.8685,-0.76047 -0.81892,-3.73004 z"
     id="path14933"
     inkscape:connector-curvature="0"
     sodipodi:nodetypes="ssscsssssssssscsssssssssssssssssssscssssssssssssssssssssssssssscsssssssscsssscsssssssssssscsssssssssssssscsssssssscssss" />
</svg>
