<?xml version="1.0" encoding="UTF-8" standalone="no"?>
<!-- Created with Inkscape (http://www.inkscape.org/) -->

<svg
   xmlns:dc="http://purl.org/dc/elements/1.1/"
   xmlns:cc="http://creativecommons.org/ns#"
   xmlns:rdf="http://www.w3.org/1999/02/22-rdf-syntax-ns#"
   xmlns:svg="http://www.w3.org/2000/svg"
   xmlns="http://www.w3.org/2000/svg"
   xmlns:sodipodi="http://sodipodi.sourceforge.net/DTD/sodipodi-0.dtd"
   xmlns:inkscape="http://www.inkscape.org/namespaces/inkscape"
   id="svg14923"
   version="1.1"
   inkscape:version="0.48.4 r9939"
   width="264"
   height="109"
   sodipodi:docname="FakeMoustache.png">
  <metadata
     id="metadata14929">
    <rdf:RDF>
      <cc:Work
         rdf:about="">
        <dc:format>image/svg+xml</dc:format>
        <dc:type
           rdf:resource="http://purl.org/dc/dcmitype/StillImage" />
        <dc:title></dc:title>
      </cc:Work>
    </rdf:RDF>
  </metadata>
  <defs
     id="defs14927" />
  <sodipodi:namedview
     pagecolor="#ffffff"
     bordercolor="#666666"
     borderopacity="1"
     objecttolerance="10"
     gridtolerance="10"
     guidetolerance="10"
     inkscape:pageopacity="0"
     inkscape:pageshadow="2"
     inkscape:window-width="1242"
     inkscape:window-height="738"
     id="namedview14925"
     showgrid="false"
     inkscape:zoom="1.2689394"
     inkscape:cx="181.75579"
     inkscape:cy="43.355153"
     inkscape:window-x="1"
     inkscape:window-y="22"
     inkscape:window-maximized="0"
     inkscape:current-layer="svg14923" />
  <path
     style="fill:#60371b;fill-opacity:1;stroke:none"
     d="m 16.160028,25.413646 c 15.908578,13.447581 30.704547,20.637448 44.150112,18.422616 14.360728,-2.365583 27.589326,-13.269011 39.99348,-20.930207 14.98681,-6.893566 24.93979,2.992297 35.66352,10.308984 12.97525,-21.741891 32.89385,-10.757929 49.31594,-0.278621 18.69733,8.01225 49.28245,38.871293 72.72013,13.373817 -11.5261,33.903902 -29.59288,36.557865 -47.64422,39.285586 -19.22864,1.294655 -38.7313,-0.05953 -59.06769,-9.47312 -9.96047,-4.225851 -13.77943,-10.908302 -18.389,-17.274513 -3.51735,7.029749 -9.05902,11.023004 -14.76692,14.766922 L 72.441507,79.744776 C 54.438534,73.158544 35.16065,68.013516 25.354527,52.161279 18.470146,37.931247 14.519425,27.78283 16.160028,25.413646 z"
     id="path14935"
     inkscape:connector-curvature="0"
     sodipodi:nodetypes="csccccccccccc" />
  <path
     style="fill:#000000"
     d="m 177.5,84.53557 c -16.45792,-3.029371 -19.44936,-3.921754 -27.84087,-8.305293 -7.55026,-3.944082 -12.66255,-8.402416 -15.14945,-13.211551 l -1.63019,-3.152445 -2.80421,3.816859 c -5.97771,8.136356 -10.07707,10.410627 -23.27933,12.915053 -9.729193,1.845596 -26.965641,4.990843 -36.051691,3.466509 C 44.484986,75.659278 28.165831,60.211058 21.006003,46 18.413135,40.85359 12.609157,24.043323 13.222382,23.456021 c 1.442983,-1.381983 3.931998,-0.290996 6.945854,3.044514 7.530287,8.333955 28.862445,17.099295 39.705646,16.314969 7.332288,-0.53037 18.932587,-5.92663 25.742906,-11.975157 6.670604,-5.924441 10.783262,-8.346097 17.431602,-10.264248 8.74946,-2.524357 19.44073,0.303392 28.92379,7.650094 l 4.47218,3.464682 2.71513,-4.281305 c 4.06989,-6.417553 6.6001,-7.667251 15.61665,-7.713236 4.24812,-0.02166 9.52386,0.546284 11.72386,1.26211 3.84005,1.24946 26.42424,14.214528 35.24011,20.230541 6.33307,4.321739 20.89259,10.749502 28.25989,12.476232 11.12521,2.607499 23.15346,-0.31709 25.87557,-6.291476 1.05764,-2.321252 2.21942,-2.945419 3.35979,-1.805044 0.70428,0.704277 -3.17792,10.341139 -6.67186,16.561693 -5.87806,10.46519 -12.73423,16.212683 -25.70681,21.549886 -5.70998,2.349211 -7.88274,2.647475 -21.35669,2.931727 -12.48221,0.263331 -17.18209,-0.08521 -28,-2.076433 z m 13.99445,-1.541701 c -2.8127,-3.107999 -0.82336,-3.683163 2.3207,-0.670967 2.53999,2.433466 7.35366,3.746209 7.06643,1.927098 -0.3181,-2.01465 0.3082,-2.23048 2.34093,-0.806704 2.72223,1.906728 8.93886,2.138316 8.23299,0.306704 -0.36089,-0.936449 1.02513,-1.165085 5.52547,-0.911477 5.34636,0.301282 6.93143,-0.108835 14.40887,-3.728122 5.88354,-2.847799 9.62056,-5.451382 12.46848,-8.686779 4.32099,-4.908914 8.42033,-11.416205 9.6044,-15.246035 l 0.71802,-2.322412 -3.34037,1.733661 c -6.77961,3.518636 -21.98593,2.745465 -31.34037,-1.593512 -1.1,-0.510226 -4.48738,-1.998861 -7.52751,-3.308079 -3.04013,-1.309218 -9.56513,-5.081944 -14.5,-8.383835 -12.15334,-8.131724 -26.15121,-16.275731 -30.7915,-17.914589 -2.10045,-0.741839 -7.2049,-1.414349 -11.34321,-1.494468 -8.75838,-0.169565 -11.40407,1.2166 -15.1627,7.944231 -2.4637,4.409813 -4.98095,5.305177 -7.24512,2.577025 -2.1782,-2.624569 -9.12688,-6.934086 -14.26248,-8.845469 -9.93863,-3.698995 -20.131208,-0.929113 -31.180701,8.473505 -3.292728,2.801962 -9.786702,6.944261 -14.431052,9.205107 -10.138691,4.935464 -16.592675,5.397666 -27.353803,1.958946 -7.837713,-2.504543 -22.619699,-10.434325 -26.954087,-14.459494 -1.629756,-1.513488 -2.755584,-2.188488 -2.501839,-1.5 0.253744,0.688488 1.471261,4.311453 2.705593,8.051033 4.962066,15.033269 10.658341,25.365626 26.183841,32.780066 9.700911,4.632818 15.228401,3.050133 21.276581,1.532136 3.172582,-0.796267 3.465187,0.859888 0.337987,1.913019 -2.191143,0.7379 -2.180051,0.768655 0.424012,1.175721 1.501126,0.234656 4.461839,-0.49408 6.75,-1.661413 C 77.326167,69.303116 78,69.210689 78,70.479676 78,71.315854 77.636008,72 77.19113,72 c -0.444879,0 -1.682379,0.706686 -2.75,1.570413 -1.826681,1.477821 -1.711766,1.539147 1.949044,1.040123 2.139596,-0.291659 5.668386,-1.707054 7.841757,-3.145323 3.815808,-2.525182 5.681143,-2.751615 4.303407,-0.522391 -0.365714,0.591737 -2.323275,1.951788 -4.350136,3.022336 L 80.5,75.911608 l 3,0.03761 C 86.867507,75.991429 90.78107,73.731681 93.803198,70 c 1.113554,-1.375 2.316122,-2.209756 2.672375,-1.855014 0.356252,0.354742 -0.776628,2.267242 -2.517513,4.25 C 91.07475,75.678895 90.976436,76 92.854301,76 c 2.130846,0 9.013649,-5.985002 10.915509,-9.49167 0.5941,-1.095418 1.39989,-1.671961 1.79065,-1.281208 0.93626,0.936268 -2.07832,5.690394 -5.41082,8.533073 L 97.5,76.020389 101,75.34164 c 3.93955,-0.76399 4.988,-1.820886 8.5597,-8.628654 1.38133,-2.632857 2.94383,-4.519819 3.47224,-4.193249 1.13657,0.702439 -1.31855,5.944211 -4.32323,9.230263 l -2.05734,2.25 2.13385,0 c 3.03599,0 6.94664,-4.465324 10.50938,-12 1.86574,-3.945758 3.22094,-5.841046 3.4487,-4.823102 0.57174,2.555373 -3.70287,11.646143 -6.51709,13.859808 -3.21015,2.525105 -2.30834,2.482202 3.30702,-0.157331 3.62787,-1.705298 4.28723,-2.390778 3.36666,-3.5 C 122.19771,66.533299 122.14709,66 122.76898,66 124.25225,66 127,58.518425 127,54.479764 127,52.565894 127.50572,51 128.12383,51 c 0.75084,0 0.97245,1.825421 0.66773,5.5 -0.25086,3.025 -0.31966,5.5 -0.15289,5.5 0.16676,0 1.18396,-1.9125 2.26043,-4.25 l 1.95723,-4.25 1.9096,4.245571 C 136.66565,61.969197 138,62.390872 138,58.767592 c 0,-2.709472 1.91981,-5.935187 3.09873,-5.206573 0.65044,0.401995 0.61147,1.083248 -0.11184,1.954778 -1.21228,1.460707 -1.57715,8.049113 -0.61384,11.084209 0.33253,1.047719 1.52093,2.477202 2.64089,3.176628 1.85198,1.156581 1.99157,1.065846 1.54219,-1.002475 C 143.40079,63.456613 143.62559,58 145,58 c 0.55,0 1,2.272347 1,5.04966 0,5.575802 1.97946,10.333795 4.96356,11.930839 1.86763,0.999522 1.88659,0.905101 0.48965,-2.438237 C 149.86713,68.746228 149.539,65 150.7926,65 c 0.43592,0 1.31343,1.947375 1.95002,4.327499 1.33682,4.998207 3.80208,8.221003 6.99968,9.150549 l 2.2423,0.65184 -1.9923,-4.647849 C 157.77782,69.315863 157.56064,68 158.92245,68 c 0.50734,0 1.44602,1.586432 2.08593,3.525404 C 162.40353,75.752726 166.61603,81 168.61457,81 c 1.22897,0 1.21611,-0.426753 -0.0889,-2.95034 C 166.80446,74.721178 166.58393,73 167.87868,73 c 0.48327,0 1.44769,1.373718 2.14315,3.052707 C 171.28762,79.10858 177.2213,83 180.61515,83 c 1.57858,0 1.58131,-0.125433 0.0398,-1.828741 C 179.06946,79.419271 178.4173,77 179.53055,77 c 0.2918,0 1.88843,1.546536 3.54806,3.436746 2.72555,3.104235 4.5333,4.010955 8.82638,4.427072 1.04261,0.101058 0.93672,-0.381244 -0.41054,-1.869949 z"
     id="path14933"
     inkscape:connector-curvature="0"
     sodipodi:nodetypes="ssscsssssssssscsssssssssssssssssssscssssssssssssssssssssssssssscsssssssscsssscsssssssssssscsssssssssssssscsssssssscssss" />
</svg>
