<?xml version="1.0" encoding="UTF-8" standalone="no"?>
<!-- Created with Inkscape (http://www.inkscape.org/) -->

<svg
   xmlns:dc="http://purl.org/dc/elements/1.1/"
   xmlns:cc="http://creativecommons.org/ns#"
   xmlns:rdf="http://www.w3.org/1999/02/22-rdf-syntax-ns#"
   xmlns:svg="http://www.w3.org/2000/svg"
   xmlns="http://www.w3.org/2000/svg"
   xmlns:sodipodi="http://sodipodi.sourceforge.net/DTD/sodipodi-0.dtd"
   xmlns:inkscape="http://www.inkscape.org/namespaces/inkscape"
   id="svg9394"
   version="1.1"
   inkscape:version="0.48.4 r9939"
   width="348.91183"
   height="493.09802"
   sodipodi:docname="FishingPole.svg">
  <metadata
     id="metadata9400">
    <rdf:RDF>
      <cc:Work
         rdf:about="">
        <dc:format>image/svg+xml</dc:format>
        <dc:type
           rdf:resource="http://purl.org/dc/dcmitype/StillImage" />
        <dc:title />
      </cc:Work>
    </rdf:RDF>
  </metadata>
  <defs
     id="defs9398" />
  <sodipodi:namedview
     pagecolor="#ffffff"
     bordercolor="#666666"
     borderopacity="1"
     objecttolerance="10"
     gridtolerance="10"
     guidetolerance="10"
     inkscape:pageopacity="0"
     inkscape:pageshadow="2"
     inkscape:window-width="1275"
     inkscape:window-height="750"
     id="namedview9396"
     showgrid="false"
     inkscape:zoom="0.6066838"
     inkscape:cx="67.693966"
     inkscape:cy="90.075838"
     inkscape:window-x="-2"
     inkscape:window-y="22"
     inkscape:window-maximized="0"
     inkscape:current-layer="svg9394"
     fit-margin-top="0"
     fit-margin-left="0"
     fit-margin-right="0"
     fit-margin-bottom="0" />
  <path
     style="fill:#8e5f23;fill-opacity:1;stroke:none"
     d="m 2.3048171,482.2872 c 2.7465326,3.68668 6.3465907,7.15996 14.9152729,9.3911 16.020109,-26.51604 30.892089,-50.20679 48.060327,-76.50982 -4.051062,-6.87213 -8.102123,-23.96984 -12.153186,-22.92534 z"
     id="path9406"
     inkscape:connector-curvature="0"
     sodipodi:nodetypes="ccccc" />
  <path
     style="fill:#8e5f23;fill-opacity:1;stroke:none"
     d="m 58.927615,387.54759 11.600768,20.16325 23.477746,-40.05027 c -3.603265,-4.78903 -7.735355,-8.34413 -13.53423,-8.01006 -9.00841,5.50977 -16.567539,14.02543 -21.544284,27.89708 z"
     id="path9916"
     inkscape:connector-curvature="0"
     sodipodi:nodetypes="ccccc" />
  <path
     style="fill:#b6b6b6;fill-opacity:1;stroke:none"
     d="m 48.707891,380.91859 -5.800384,-1.93347 c -0.478186,-7.01188 0.207256,-13.07171 7.733844,-13.53423 3.22132,2.94991 7.234119,5.3892 4.971759,11.87698 4.6078,13.17118 12.376491,24.04353 18.782196,35.90714 l 23.753955,-6.62902 0,6.62902 -25.411208,11.87698 z"
     id="path9918"
     inkscape:connector-curvature="0"
     sodipodi:nodetypes="ccccccccc" />
  <path
     style="fill:#b1934f;fill-opacity:1;stroke:none"
     d="m 82.957778,359.0981 11.32456,8.01004 C 166.97486,249.03303 240.4238,131.02094 330.44084,14.389533 l -3.3145,-5.5241709 C 238.55712,123.21638 160.73982,241.15137 82.957778,359.0981 z"
     id="path9920"
     inkscape:connector-curvature="0"
     sodipodi:nodetypes="ccccc" />
  <path
     style="fill:#cfb756;fill-opacity:1;stroke:none"
     d="m 73.061125,331.60715 -32.383171,24.96814 c -4.231696,6.38769 -8.461836,3.47153 -12.693532,24.84246 0,0 0.561053,7.9778 3.10007,12.2746 2.950273,6.24891 10.424287,5.17038 17.385532,4.90147 0.621498,-1.52136 8.912034,-10.21715 5.655534,-8.42047 l -5.278498,-8.1691 c -8.962965,-3.2428 -8.940435,-8.7991 -3.309535,-14.45303 12.770834,-2.44518 8.928193,1.88082 11.143497,12.2746 l 2.094642,5.11093 13.112462,-17.38553 c -2.510084,-12.20208 -3.059669,-24.26065 1.172999,-35.94407 z"
     id="path9922"
     inkscape:connector-curvature="0"
     sodipodi:nodetypes="cccccccccccc" />
  <path
     style="fill:#000000"
     d="M 8.4867298,490.59125 C 3.021587,488.10987 0,484.5883 0,480.70023 c 0,-2.02844 3.9447203,-8.72316 29.703216,-50.41027 20.926488,-33.86707 19.516386,-30.35816 11.985533,-29.82489 -5.477143,0.38784 -6.877063,-0.0818 -10.594209,-3.55414 -3.951121,-3.6909 -4.282103,-4.66074 -4.270022,-12.51203 0.02294,-14.90372 7.197707,-26.31749 24.78747,-39.43237 16.380954,-12.21358 25.964163,-21.35665 33.075762,-31.55662 3.801275,-5.45208 8.295277,-11.58816 9.986671,-13.63573 1.844858,-2.23335 2.73637,-4.606 2.228247,-5.93016 -0.603626,-1.57302 -0.281322,-1.99022 1.121633,-1.45184 1.35672,0.52061 4.450159,-2.84247 9.951879,-10.81938 4.39077,-6.36614 12.78023,-17.91243 18.64324,-25.65841 5.86302,-7.74598 17.05657,-22.52921 24.87457,-32.8516 7.81799,-10.3224 17.4513,-23.59406 21.40732,-29.49257 3.95603,-5.89851 9.20123,-13.19973 11.656,-16.22492 2.45477,-3.0252 4.46322,-6.0941 4.46322,-6.8198 0,-0.7257 2.2963,-3.73336 5.10289,-6.6837 2.8066,-2.95034 10.15054,-12.54983 16.31989,-21.33219 12.49105,-17.78163 29.1717,-39.94554 42.2851,-56.185085 4.79259,-5.93511 8.66518,-12.05282 8.67152,-13.698786 0.008,-1.932165 0.64069,-2.732741 1.80747,-2.285004 1.10658,0.42464 6.23034,-4.76455 13.34788,-13.518359 23.39174,-28.76934 40.63828,-47.6665389 46.8575,-51.342211 2.02761,-1.1983633 3.68657,-2.9536535 3.68657,-3.9006598 0,-2.14026203 0.0134,-2.13977943 5.64043,0.2115958 5.84231,2.4410727 6.86604,3.7717236 9.78769,12.722207 4.70529,14.414598 3.89794,18.461649 -9.00914,45.160798 -6.37305,13.183109 -12.33318,27.287191 -13.2447,31.342418 -4.17754,18.585076 -1.51698,45.670366 5.92575,60.325706 1.68502,3.31792 6.50597,12.80161 10.71325,21.07488 9.34516,18.37652 12.26615,28.6002 11.98037,41.93196 -0.40295,18.79734 -5.73939,33.61602 -19.46734,54.05856 -5.8393,8.6954 -11.71031,21.14888 -11.71031,24.83968 0,2.65447 5.28334,8.23889 7.79469,8.23889 0.87412,0 1.60765,-1.65896 1.63008,-3.68657 0.0648,-5.85523 2.22081,-0.9788 5.27757,11.93639 3.22174,13.61224 4.14478,44.30989 1.59609,53.0813 -1.53,5.26558 -2.00204,5.69743 -6.22759,5.69743 -5.13495,0 -9.5713,-4.63854 -13.53145,-14.14816 -1.21165,-2.90956 -2.88928,-5.75402 -3.72805,-6.32102 -1.08324,-0.73225 -9.33321,-1.64708 -7.82238,-2.81925 2.86138,-2.22 2.0528,0.0804 9.25113,-5.71838 1.29735,-1.04512 5.0226,-11.74605 5.75991,-11.74605 0.73732,0 1.34057,6.40687 1.34057,8.66728 0,2.26042 0.65691,5.33729 1.45979,6.83749 5.49002,9.45343 11.59409,11.83969 -2.80036,5.80981 -1.80227,-1.11387 -1.70238,2.82344 0.16381,6.45584 2.42218,4.71463 8.19471,10.3013 10.644,10.3013 1.46184,0 2.55932,-1.48283 3.10062,-4.18929 1.40146,-7.00732 0.93577,-37.79602 -0.68857,-45.5234 -1.34229,-6.38561 -2.353,-7.91621 -8.37857,-12.68827 -4.46382,-3.53522 -6.99229,-6.60932 -7.25422,-8.81968 -0.58843,-4.96563 4.59944,-17.74554 10.15314,-25.01144 11.76552,-15.39284 18.8912,-33.23388 21.00196,-52.58398 1.15445,-10.58334 -2.96764,-25.19046 -12.21175,-43.27383 -13.02647,-25.48244 -13.84461,-27.3807 -16.72064,-38.79619 -2.31722,-9.19739 -2.6542,-13.44955 -1.97719,-24.94882 1.14326,-19.418273 3.52927,-27.422006 15.25019,-51.155892 9.30263,-18.837049 10.30916,-21.6558 10.77063,-30.16285 0.63403,-11.68789 -2.82816,-22.5505912 -7.39717,-23.2088251 -2.60507,-0.3753062 -2.83301,0.05054 -2.18027,4.0728692 0.62411,3.8459249 -0.10912,5.5244399 -5.09779,11.6703419 -3.20471,3.948103 -7.01216,8.751128 -8.46101,10.673413 -1.44885,1.922285 -6.59832,8.321112 -11.44326,14.219625 -4.84495,5.898513 -12.25498,15.852254 -16.46675,22.119424 -4.21175,6.267169 -10.63329,15.617653 -14.27007,20.778852 -8.11712,11.519542 -28.44925,41.843412 -41.34718,61.666282 -5.27715,8.11045 -13.15261,19.57233 -17.50102,25.47085 -7.60029,10.30958 -32.51955,47.87253 -39.13075,58.98513 -1.75459,2.94925 -6.78178,10.79159 -11.1715,17.42742 -4.38974,6.63583 -11.78617,18.39934 -16.43652,26.14114 -4.65036,7.7418 -13.64314,22.21996 -19.98396,32.1737 -22.54751,35.39478 -35.24832,56.07725 -36.11704,58.81434 -0.484525,1.52661 -5.671807,10.67319 -11.527293,20.32576 -5.855486,9.65255 -10.646337,18.04144 -10.646337,18.64199 0,0.60054 0.880648,1.82276 1.956995,2.71605 1.577758,1.30942 3.964246,0.65871 12.31511,-3.3579 7.623405,-3.6667 10.911496,-4.63362 12.454146,-3.66232 6.368119,4.00955 -0.62063,12.80752 -14.664935,18.46131 -10.222984,4.11545 -12.469101,3.85188 -15.739788,-1.84696 l -2.239915,-3.90283 -7.4468,10.24726 c -8.016283,11.03092 -10.638445,14.96548 -14.589586,21.89174 -17.677758,30.98871 -25.991486,43.86264 -28.349214,43.89919 -1.105971,0.0172 -4.526027,-1.11081 -7.6001232,-2.50657 z m 11.5212292,-6.50899 c 1.787952,-2.73372 9.239289,-14.92413 16.558524,-27.08982 7.319237,-12.16568 16.295123,-26.22696 19.946417,-31.24726 3.651292,-5.02032 6.922461,-9.86729 7.269265,-10.77105 0.346803,-0.90376 -1.509292,-6.04009 -4.124658,-11.41409 l -4.75521,-9.7709 -10.88646,17.86081 C 14.485105,460.09933 2.67506,480.51382 3.2741009,482.07491 c 0.8427179,2.19608 8.8413221,7.09717 11.4721811,7.02949 1.105971,-0.0284 3.473727,-2.28842 5.261677,-5.02214 z M 7.1127539,483.17594 c -2.0687291,-1.81998 -3.0072549,-3.32813 -2.0856122,-3.35142 0.9216426,-0.0233 1.6757138,0.54163 1.6757138,1.25539 0,0.71377 1.6589563,2.19776 3.6865705,3.29776 2.027614,1.09999 2.96614,2.02414 2.085612,2.05366 -0.880527,0.0295 -3.2935552,-1.4354 -5.3622841,-3.25539 z m 2.8647169,-1.27332 c -1.430063,-1.04569 -2.245464,-2.2559 -1.812004,-2.68936 0.433462,-0.43347 1.8833392,0.4221 3.2219502,1.90125 2.847955,3.14695 2.26307,3.47389 -1.4099462,0.78811 z m 1.2900132,-3.79618 -2.5537722,-3.01629 3.0162852,2.55378 c 2.834564,2.39992 3.626568,3.47879 2.553772,3.47879 -0.254383,0 -1.611711,-1.35732 -3.016285,-3.01628 z m 1.951598,-3.76226 c -2.998351,-2.61185 -3.010089,-2.68197 -0.223176,-1.33337 1.617894,0.78292 3.312454,2.0235 3.765687,2.75684 1.317857,2.13233 -0.127005,1.55175 -3.542511,-1.42347 z m 2.276405,-3.31837 c -1.431222,-1.08252 -1.95753,-1.96823 -1.169573,-1.96823 0.787955,0 2.183636,0.90489 3.10151,2.01086 2.087543,2.51534 1.430841,2.50085 -1.931937,-0.0426 z m 3.101512,-5.6548 c -1.701877,-2.17006 -1.638783,-2.19851 0.841282,-0.37934 1.474628,1.08167 2.932499,2.13737 3.239714,2.346 0.307213,0.20863 -0.07136,0.37934 -0.841283,0.37934 -0.76992,0 -2.227791,-1.0557 -3.239713,-2.346 z m 1.340571,-5.36228 c -1.667498,-2.12623 -1.620082,-2.17364 0.506139,-0.50615 1.2903,1.01193 2.346,2.06763 2.346,2.346 0,1.10335 -1.100858,0.39321 -2.852139,-1.83985 z m 4.784076,-4.98451 c -1.604956,-1.21393 -1.929708,-1.98456 -0.847392,-2.01086 0.965156,-0.0235 1.381997,-0.64589 0.926311,-1.3832 -1.32084,-2.13717 1.508957,-1.54975 3.376898,0.70097 1.438651,1.73347 1.311699,1.89789 -0.841282,1.08958 -2.239919,-0.84096 -2.321056,-0.6882 -0.695755,1.30988 2.264944,2.78444 1.524224,2.89779 -1.91878,0.29363 z m 3.403461,-8.11846 c -0.932662,-1.12379 -1.426761,-2.31223 -1.097996,-2.64101 0.328764,-0.32876 1.615338,0.59071 2.859054,2.04326 1.243715,1.45255 1.737814,2.64101 1.097995,2.64101 -0.639817,0 -1.926391,-0.91946 -2.859053,-2.04326 z m 2.037743,-3.31903 c -0.455686,-0.73731 -0.225262,-1.34057 0.512052,-1.34057 0.737315,0 1.713404,0.60326 2.16909,1.34057 0.455686,0.73732 0.225262,1.34057 -0.512053,1.34057 -0.737314,0 -1.713404,-0.60325 -2.169089,-1.34057 z m 3.390251,-2.62878 c -1.084618,-0.68593 -1.623026,-1.59616 -1.19646,-2.02272 0.426564,-0.42657 1.538659,0.14389 2.471321,1.26767 1.933899,2.33021 1.563089,2.54982 -1.274861,0.75505 z m 1.301748,-5.49376 c 0,-0.78083 0.603257,-1.04686 1.340571,-0.59117 0.737314,0.45569 1.340571,1.09455 1.340571,1.41969 0,0.32514 -0.603257,0.59117 -1.340571,0.59117 -0.737314,0 -1.340571,-0.63886 -1.340571,-1.41969 z m 2.010856,-2.60203 c -0.455685,-0.73731 -0.225261,-1.34057 0.512053,-1.34057 0.737314,0 1.713404,0.60326 2.16909,1.34057 0.455685,0.73732 0.225261,1.34058 -0.512053,1.34058 -0.737314,0 -1.713404,-0.60326 -2.16909,-1.34058 z m 2.996938,-3.48249 c -0.440741,-0.44074 -0.470834,-1.66264 -0.06687,-2.71535 0.560565,-1.46081 1.170045,-1.55252 2.574015,-0.38734 1.011747,0.83968 1.508951,2.0616 1.104899,2.71537 -0.848077,1.37221 -2.454854,1.54451 -3.612047,0.38732 z m 4.376203,-5.9015 c -1.208246,-0.78083 -1.373593,-1.30772 -0.414259,-1.32005 0.878129,-0.0107 1.969431,0.58273 2.425116,1.32005 1.028627,1.66436 0.564545,1.66436 -2.010857,0 z m 1.955734,-4.1109 c -1.442816,-2.33453 0.200445,-2.82893 2.039093,-0.6135 1.057374,1.27406 1.159073,2.04325 0.27015,2.04325 -0.784082,0 -1.82324,-0.64339 -2.309243,-1.42975 z m 2.940845,-5.8193 c -1.927667,-2.94199 -1.926239,-3.29963 0.01615,-4.045 1.982816,-0.76088 6.356096,3.15324 5.0181,4.49123 -0.315991,0.31599 -1.453997,-0.58795 -2.5289,-2.00875 -2.266639,-2.99603 -2.681978,-1.59638 -0.651903,2.19685 1.961525,3.66515 0.675233,3.22492 -1.85345,-0.63433 z m 4.487419,-4.81609 c -0.789197,-1.47462 -1.133276,-2.68114 -0.764619,-2.68114 0.368657,0 1.315993,1.20652 2.10519,2.68114 0.789197,1.47463 1.133276,2.68115 0.764619,2.68115 -0.368657,0 -1.315993,-1.20652 -2.10519,-2.68115 z m 2.098078,-2.58476 c -1.682796,-1.85947 -1.981236,-3.22436 -1.063568,-4.86415 1.506378,-2.69174 3.041302,-0.91185 3.599597,4.17407 0.432566,3.94059 0.410964,3.94647 -2.536029,0.69008 z m 21.456991,15.02016 c -1.91416,-0.48801 -0.18174,-1.84817 6.667824,-5.23504 5.08964,-2.51665 10.046563,-4.27156 11.015383,-3.89979 1.779656,0.68291 3.955461,-2.79253 2.598061,-4.14994 -0.403557,-0.40355 -5.706644,1.5116 -11.784641,4.25589 -12.547083,5.66517 -11.715535,5.94677 -17.976726,-6.08766 -1.726223,-3.31791 -4.67701,-8.08681 -6.557306,-10.59753 -1.880295,-2.51073 -4.387106,-7.4805 -5.570691,-11.04394 -2.040752,-6.14413 -4.036297,-8.88977 -5.440531,-7.48553 -0.532781,0.53278 4.119079,9.99704 20.170408,41.03688 1.662422,3.21477 3.001305,4.14116 5.812142,4.02147 2.684794,-0.11435 2.967168,-0.33014 1.066077,-0.81481 z m 9.324396,-4.13306 c -0.412744,-0.41275 -1.49446,-8.6e-4 -2.403815,0.91531 -1.314118,1.32398 -1.160135,1.47795 0.750445,0.75045 1.322099,-0.50342 2.066116,-1.25302 1.65337,-1.66576 z m -5.478725,-28.79476 c 4.82243,-7.95293 9.109843,-15.82166 9.527586,-17.48608 1.22595,-4.88457 -3.918723,-8.28009 -11.750331,-7.75528 -2.25081,0.15083 -10.427577,10.19618 -16.033579,19.69765 -2.154147,3.65101 -2.439775,5.12501 -1.227937,6.33684 1.211837,1.21184 1.810766,1.20443 2.574837,-0.0319 0.709527,-1.14804 1.467284,-0.85586 2.63668,1.01663 0.983854,1.5754 1.099617,2.62767 0.289075,2.62767 -0.743562,0 -1.399556,-0.75407 -1.457765,-1.67571 -0.08302,-1.31451 -0.250059,-1.31908 -0.774928,-0.0212 -0.884924,2.1882 5.102525,14.09843 6.423171,12.77698 0.563826,-0.56417 4.970761,-7.5327 9.793191,-15.48562 z m -13.995029,-1.627 c -0.930936,-1.12171 -1.076098,-2.01086 -0.328291,-2.01086 0.737314,0 2.091559,0.90489 3.009434,2.01086 0.930936,1.12171 1.076097,2.01086 0.328291,2.01086 -0.737314,0 -2.091559,-0.90489 -3.009434,-2.01086 z m 2.510146,-4.35685 c -1.667498,-2.12623 -1.620082,-2.17365 0.506139,-0.50615 1.2903,1.01193 2.346,2.06763 2.346,2.346 0,1.10334 -1.100858,0.3932 -2.852139,-1.83985 z m 2.879025,-3.65417 c -1.057374,-1.27407 -1.159072,-2.04326 -0.270149,-2.04326 1.620154,0 3.509074,2.54333 2.57939,3.47302 -0.33742,0.33742 -1.376579,-0.30598 -2.309241,-1.42976 z m 2.654256,-2.71355 c -0.94745,-1.1416 -1.421007,-2.37727 -1.05235,-2.74593 0.368657,-0.36866 1.445471,0.26376 2.392921,1.40536 0.94745,1.1416 1.421007,2.37728 1.05235,2.74593 -0.368657,0.36866 -1.445471,-0.26375 -2.392921,-1.40536 z m 2.681142,-3.35143 c -1.732939,-1.11991 -1.697554,-1.30235 0.256026,-1.32004 1.246787,-0.0107 2.639716,0.58273 3.095402,1.32004 1.048571,1.69663 -0.726091,1.69663 -3.351428,0 z m 2.921972,-3.06124 c -0.790473,-0.95247 -0.943182,-2.50518 -0.34204,-3.47785 0.879862,-1.42364 1.883108,-1.34496 5.2856,0.41453 2.309785,1.19444 4.199608,2.79367 4.199608,3.55386 0,0.7602 -1.340743,0.44307 -2.979427,-0.70471 -3.789552,-2.65431 -5.898959,-2.69737 -3.723428,-0.076 0.930936,1.12171 1.076097,2.01085 0.328291,2.01085 -0.737314,0 -1.983186,-0.7743 -2.768604,-1.72067 z m -29.535723,24.03042 c 1.304275,-3.14655 1.20516,-4.4626 -0.554493,-7.36266 -1.178455,-1.94219 -3.214079,-3.53598 -4.523609,-3.54175 -1.309529,-0.005 -3.291072,-1.62838 -4.40343,-3.6058 -2.593618,-4.61064 -0.863861,-9.82913 4.283775,-12.92372 3.369645,-2.02571 4.052593,-2.0415 7.373141,-0.17048 3.160278,1.7807 3.659515,2.90719 3.659515,8.25737 0,5.45376 1.213092,9.2744 2.429,7.65015 10.754456,-14.36621 10.677442,-14.17371 9.494842,-23.73335 -1.300396,-10.51188 -1.287227,-12.75639 0.111523,-19.00598 l 1.039566,-4.64478 -4.816534,4.22897 c -2.649095,2.32593 -8.305611,6.61111 -12.570037,9.52259 -12.252514,8.36525 -14.284459,11.14096 -14.518226,19.83237 -0.110489,4.10808 -0.74503,7.86313 -1.410083,8.34455 -1.598803,1.15739 -2.050319,8.24848 -0.525211,8.24848 0.653808,0 2.83951,1.52989 4.857115,3.39973 2.017606,1.86986 4.461715,3.09531 5.431353,2.72323 0.969639,-0.37209 1.76298,-0.13285 1.76298,0.53164 0,2.59114 -8.204546,3.10452 -12.011631,0.75162 -0.702342,-0.43408 -0.905586,-1.82561 -0.451655,-3.0923 0.453932,-1.26668 0.336419,-1.85999 -0.261139,-1.31846 -1.897111,1.71921 -4.409583,-3.36768 -3.762635,-7.61804 0.342492,-2.25012 1.78648,-6.74819 3.208861,-9.99573 1.422382,-3.24752 2.284521,-6.20622 1.915864,-6.57488 -1.742832,-1.74282 -6.582736,13.01837 -6.656332,20.30111 -0.07056,6.98136 0.330666,8.17433 3.73478,11.10486 3.016552,2.59689 5.043098,3.20374 9.694186,2.90294 5.040898,-0.326 6.107083,-0.92724 7.468514,-4.21168 z m 11.686932,-32.35743 c 0.576303,-2.22452 0.451788,-5.57398 -0.279207,-7.51059 -0.725669,-1.92252 -0.904892,-4.57568 -0.398272,-5.8959 1.264473,-3.29517 1.698136,-2.42365 2.697581,5.42128 0.629422,4.94051 0.332698,7.47403 -1.099046,9.384 -1.825926,2.4358 -1.889477,2.33928 -0.921056,-1.39879 z m -15.906316,17.58496 c 0,-0.27837 -1.0557,-1.33407 -2.346,-2.346 -2.126221,-1.66749 -2.173637,-1.62008 -0.506139,0.50615 1.75128,2.23306 2.852139,2.9432 2.852139,1.83985 z m 2.106612,-7.34704 c 0,-1.33349 -0.784357,-2.42453 -1.743016,-2.42453 -1.120664,0 -1.445472,0.93749 -0.909686,2.62561 0.602391,1.89795 0.364617,2.3359 -0.857991,1.58029 -1.075417,-0.66464 -1.356171,-0.50301 -0.770973,0.44386 1.331157,2.15386 4.281666,0.62044 4.281666,-2.22523 z m 4.024705,-1.22758 c -2.316175,-2.21224 -2.352132,-2.17629 -0.817019,0.81702 0.883182,1.7221 1.973443,2.76344 2.422802,2.31408 0.449361,-0.44936 -0.273241,-1.85835 -1.605783,-3.1311 z m 28.569177,-12.40027 c 1.190865,-0.0176 4.644075,-3.78791 7.673796,-8.37857 7.774862,-11.78055 24.654261,-38.5311 24.654261,-39.07217 0,-0.24873 -3.22413,-3.2067 -7.16474,-6.57326 l -7.164739,-6.12103 -8.586969,11.61371 c -4.722833,6.38754 -10.434863,13.74397 -12.693401,16.34761 -6.450754,7.43644 -8.700249,18.80473 -6.433832,32.51468 l 0.825081,4.99108 3.362666,-2.64508 c 1.849465,-1.45479 4.33701,-2.65943 5.527877,-2.67697 z m 12.871971,0.003 c 0.465481,0.75317 0.46436,2.12346 -0.0025,3.04511 -0.466848,0.92164 0.05937,0.56137 1.169379,-0.80059 1.110008,-1.36197 1.655488,-3.42152 1.21217,-4.57677 -0.575219,-1.499 -0.297604,-1.78625 0.969488,-1.00315 1.22985,0.76009 1.45719,0.58227 0.73974,-0.57859 -0.64341,-1.04106 0.42077,-3.08528 2.809149,-5.39625 2.11472,-2.04617 5.24258,-5.75883 6.95081,-8.25033 6.31701,-9.2131 25.85413,-39.89036 35.75467,-56.14162 5.61479,-9.21642 15.75771,-25.33588 22.53982,-35.82102 6.78211,-10.48513 16.55391,-25.7346 21.71511,-33.8877 9.65971,-15.25936 20.85433,-31.80864 29.47222,-43.56954 2.70135,-3.68657 9.77052,-14.24357 15.70924,-23.45999 5.93873,-9.21643 12.8881,-19.77343 15.44305,-23.46 11.917,-17.19514 21.82061,-32.749526 21.82061,-34.2709 0,-0.921093 -3.00057,2.491881 -6.66793,7.584375 -3.66736,5.092515 -8.62466,11.973755 -11.01624,15.291675 -2.39156,3.31791 -7.74819,10.55699 -11.90361,16.08685 -4.15544,5.52986 -19.08546,27.24711 -33.17784,48.26056 -14.09237,21.01346 -32.87597,48.76328 -41.74132,61.66627 -26.57057,38.67195 -29.6274,43.44454 -28.95251,45.20327 0.35553,0.92651 -0.0392,1.54099 -0.877,1.36549 -0.8379,-0.17548 -2.17351,1.84092 -2.96806,4.48088 -0.79453,2.63997 -2.48975,6.25951 -3.76714,8.04342 l -2.32254,3.2435 1.30729,-4.02171 c 1.23688,-3.80507 1.19469,-3.87728 -0.78296,-1.34057 -1.14965,1.47462 -5.58246,8.16072 -9.85069,14.85799 -5.69111,8.92988 -7.18655,12.18895 -5.60821,12.22223 1.18372,0.0249 3.31151,-0.9302 4.72842,-2.12257 2.29543,-1.93167 -5.34592,8.85016 -13.73966,19.38645 l -3.12003,3.91646 2.3342,-4.02172 c 1.28381,-2.21194 3.20965,-5.37904 4.27964,-7.038 1.30932,-2.03001 1.44294,-3.01628 0.40862,-3.01628 -0.84525,0 -1.92592,1.0557 -2.40149,2.346 -0.47556,1.2903 -2.33331,4.30043 -4.12831,6.68917 -1.795009,2.38875 -2.925359,5.22474 -2.511899,6.30221 0.41346,1.07746 -0.46033,3.34584 -1.94175,5.04081 l -2.693493,3.0818 2.236144,-4.02171 2.236149,-4.02171 -2.880385,3.23088 c -1.993964,2.23661 -2.45136,3.65991 -1.486295,4.62497 2.051944,2.05195 1.699115,4.12045 -0.404973,2.37421 -2.150403,-1.78468 -3.6661,-0.66314 -2.657147,1.96614 0.440956,1.14912 -0.146782,1.87979 -1.512055,1.87979 -1.355509,0 -1.854865,0.61248 -1.270386,1.55819 0.662553,1.07204 1.70264,0.64479 3.333618,-1.36938 1.393365,-1.72074 2.719491,-2.36308 3.216934,-1.5582 z m 17.529266,-32.45235 c 0.45756,-0.45756 -0.11077,-0.69357 -1.26296,-0.52447 -1.1522,0.16912 -2.46926,0.68184 -2.92682,1.13939 -0.45756,0.45757 0.11077,0.69357 1.26296,0.52448 1.15219,-0.16912 2.46926,-0.68185 2.92682,-1.1394 z m 14.76104,-34.21184 c 5.07064,-7.92613 11.94882,-18.23048 15.28484,-22.89856 7.85217,-10.98749 31.55409,-45.41975 47.61335,-69.16882 l 12.62551,-18.67111 -5.36908,-3.94848 c -6.16264,-4.53204 -4.59532,-5.517 -15.57397,9.78728 -19.37226,27.00501 -31.4686,43.46128 -39.23961,53.38284 -9.70382,12.38927 -26.37671,35.08552 -34.92769,47.54596 l -5.57252,8.12024 3.14619,2.53338 c 4.07035,3.27755 10.96316,7.71697 11.99162,7.7234 0.4411,0.003 4.95071,-6.48 10.02136,-14.40613 z m 89.39606,-131.37597 c 11.50836,-17.22308 22.57514,-32.70302 40.92335,-57.24256 12.91179,-17.268721 13.41355,-18.403769 10.0346,-22.699428 l -2.66192,-3.384071 -3.30581,3.624314 c -1.81819,1.993376 -5.37294,6.338985 -7.89944,9.656898 -2.52651,3.317914 -6.1018,7.747228 -7.94509,9.842912 -3.45166,3.924325 -14.23445,18.484745 -29.49256,39.824975 -4.79254,6.70292 -11.64116,16.12098 -15.21914,20.92902 l -6.50542,8.74189 4.49456,3.84468 c 2.47201,2.11458 4.86838,3.86921 5.32523,3.89917 0.45687,0.0299 5.9701,-7.63704 12.25164,-17.0378 z m 68.27959,-87.472271 c 10.84326,-15.870633 11.73741,-17.467977 7.88299,-14.082525 -3.60662,3.167809 -17.98803,24.470744 -18.39585,27.249467 -0.38234,2.604917 0.44533,1.568307 10.51286,-13.166942 z m -6.7648,1.005428 c 2.47312,-3.870899 9.36023,-13.070568 15.30465,-20.443709 24.78178,-30.737942 35.30968,-44.832465 34.0631,-45.6028912 -3.02237,-1.8679384 -35.5934,33.6499572 -59.2552,64.6163182 -1.23738,1.619343 2.27611,8.46828 4.3442,8.46828 0.57565,0 3.07012,-3.167099 5.54325,-7.037998 z m 21.25375,-21.78428 c 1.73168,-1.843286 2.84687,-3.351428 2.47822,-3.351428 -0.36866,0 -2.08711,1.508142 -3.81879,3.351428 -1.73169,1.843285 -2.84688,3.351427 -2.47822,3.351427 0.36865,0 2.0871,-1.508142 3.81879,-3.351427 z m 6.03257,-7.373141 c 1.33452,-1.474629 2.12478,-2.681143 1.75612,-2.681143 -0.36866,0 -1.76217,1.206514 -3.09669,2.681143 -1.33453,1.474628 -2.12478,2.681142 -1.75613,2.681142 0.36866,0 1.76217,-1.206514 3.0967,-2.681142 z m 6.20357,-7.708284 c 1.6675,-2.126227 1.62008,-2.173643 -0.50615,-0.506146 -1.2903,1.01193 -2.34599,2.06763 -2.34599,2.345999 0,1.103344 1.10086,0.393203 2.85214,-1.839853 z m 13.39802,-16.628176 c 6.07686,-7.672665 3.83857,-6.236391 -2.93273,1.881894 -3.22865,3.870899 -4.80843,6.191146 -3.51062,5.156104 1.29779,-1.035055 4.1973,-4.202154 6.44335,-7.037998 z"
     id="path9404"
     inkscape:connector-curvature="0"
     sodipodi:nodetypes="sssssssssscssssssssscsssscsssssssssssssssssssccsssssssssssssssssssssssssssssssssscsscsssssscsscsscsscsssssscsssssssssssssssssssssssssssscssssssssscsssssssssssssssssscssssssssssssssssssssssssssssssscsssssssssscssssssssssssssssssssssssscsssssssssssscssssssscsssssssssssssssssssssssssssssssssssssscssscssscscccssssscssssssssssssscsscssscsscssssssscccssssssscccccccssscsssscscsssscssssscscsssssssssssssssssssssssssssss" />
</svg>
