<?xml version="1.0" encoding="UTF-8" standalone="no"?>
<!-- Created with Inkscape (http://www.inkscape.org/) -->

<svg
   xmlns:dc="http://purl.org/dc/elements/1.1/"
   xmlns:cc="http://creativecommons.org/ns#"
   xmlns:rdf="http://www.w3.org/1999/02/22-rdf-syntax-ns#"
   xmlns:svg="http://www.w3.org/2000/svg"
   xmlns="http://www.w3.org/2000/svg"
   xmlns:sodipodi="http://sodipodi.sourceforge.net/DTD/sodipodi-0.dtd"
   xmlns:inkscape="http://www.inkscape.org/namespaces/inkscape"
   id="svg13126"
   version="1.1"
   inkscape:version="0.48.4 r9939"
   width="305"
   height="178"
   sodipodi:docname="Gizmo.png">
  <metadata
     id="metadata13132">
    <rdf:RDF>
      <cc:Work
         rdf:about="">
        <dc:format>image/svg+xml</dc:format>
        <dc:type
           rdf:resource="http://purl.org/dc/dcmitype/StillImage" />
        <dc:title></dc:title>
      </cc:Work>
    </rdf:RDF>
  </metadata>
  <defs
     id="defs13130" />
  <sodipodi:namedview
     pagecolor="#ffffff"
     bordercolor="#666666"
     borderopacity="1"
     objecttolerance="10"
     gridtolerance="10"
     guidetolerance="10"
     inkscape:pageopacity="0"
     inkscape:pageshadow="2"
     inkscape:window-width="1219"
     inkscape:window-height="707"
     id="namedview13128"
     showgrid="false"
     inkscape:zoom="1.0983607"
     inkscape:cx="269.48564"
     inkscape:cy="31.059459"
     inkscape:window-x="0"
     inkscape:window-y="22"
     inkscape:window-maximized="0"
     inkscape:current-layer="svg13126" />
  <path
     style="fill:#000000"
     d="m 163.12088,164.10903 c -5.33828,-1.84588 -11.47909,-5.72683 -11.47909,-7.25472 0,-0.50597 1.30676,-5.08783 2.90392,-10.1819 1.59716,-5.09408 4.32938,-14.21196 6.07161,-20.26196 1.74222,-6.05 4.67672,-15.725 6.5211,-21.5 1.84438,-5.775003 4.3172,-14.775003 5.49515,-20.000003 2.04729,-9.081081 5.51337,-19.655739 8.8013,-26.851858 1.44131,-3.154533 1.75679,-3.315829 5.35885,-2.739838 5.10854,0.81689 14.2652,4.295799 16.84039,6.398207 l 2.07431,1.69349 -3.46629,11.754903 c -1.90646,6.465196 -3.42774,13.110946 -3.38062,14.768336 0.0835,2.93514 0.34802,3.09297 10.18298,6.07516 5.55352,1.68396 17.2973,5.468403 26.0973,8.409893 8.8,2.94149 21.85,6.95508 29,8.91908 7.15,1.96401 14.35,3.98437 16,4.4897 1.65,0.50533 4.5684,1.23973 6.48533,1.632 4.89827,1.00235 8.01467,3.29882 8.01467,5.90598 0,4.38694 -3.92819,17.47095 -6.43977,21.44954 -1.40813,2.23061 -2.56023,4.71409 -2.56023,5.51883 0,0.80475 -1.0125,2.17235 -2.25,3.03913 -5.0687,5.0983 -10.81174,1.49312 -16.25119,-0.63626 -0.54934,-0.32961 -5.0488,-1.56149 -9.9988,-2.73751 -13.3321,-3.16745 -54.70131,-14.98319 -66.5,-18.99353 -3.025,-1.02819 -5.76863,-1.58274 -6.09697,-1.23234 -0.32833,0.3504 -2.98811,7.61209 -5.91062,16.13709 -2.92251,8.525 -5.74647,16.0625 -6.27548,16.75 -1.27116,1.65202 -3.19809,1.537 -9.23784,-0.55142 z m 11.37844,-9.96913 c 1.84664,-4.8012 3.52413,-10.75445 3.72777,-13.22945 l 0.37024,-4.5 -1.46527,3 -1.46528,3 0.59444,-3.37511 c 0.41127,-2.33513 0.25336,-3.1643 -0.5125,-2.69098 -0.60881,0.37627 -1.10693,1.55757 -1.10693,2.62511 0,1.06754 -0.45,1.94098 -1,1.94098 -1.31116,0 -1.26967,-0.41883 0.44897,-4.53212 0.81468,-1.94979 1.01945,-3.46788 0.46778,-3.46788 -1.1333,0 -2.89741,4.13403 -2.24032,5.25 0.24288,0.4125 -0.0837,0.75 -0.72582,0.75 -0.75635,0 -0.95033,-0.96833 -0.55089,-2.75 l 0.61654,-2.75 -1.47269,2.5 c -1.66345,2.82381 -2.11387,0.93414 -0.49733,-2.08641 0.57544,-1.07521 0.7453,-2.44186 0.37749,-3.03701 -0.37744,-0.6107 -1.48965,0.59626 -2.55317,2.77067 -1.458,2.98094 -1.77066,3.25149 -1.38175,1.19565 0.27646,-1.4614 0.77772,-3.3739 1.11391,-4.25 0.33619,-0.87609 0.1335,-1.5929 -0.45042,-1.5929 -0.58392,0 -1.35715,1.575 -1.71828,3.5 -0.72444,3.8616 -2.43402,4.77468 -2.43402,1.3 0,-1.3492 -0.35126,-1.83261 -0.9083,-1.25 -1.38504,1.44863 -8.14005,23.56276 -7.50927,24.58338 1.48581,2.40409 13.44254,7.04324 15.91757,6.17594 0.55,-0.19273 2.51089,-4.27867 4.35753,-9.07987 z m 103.16624,-4.30147 c 0.73914,-2.23961 2.30318,-4.82711 3.47565,-5.75 2.98964,-2.35324 9.03941,-19.21944 7.2916,-20.3283 -0.71006,-0.45048 -1.75873,-0.82595 -2.33038,-0.83437 -0.57165,-0.008 -3.3225,6.95969 -6.11301,15.48469 -2.7905,8.525 -4.75731,15.5 -4.37069,15.5 0.38662,0 1.30769,-1.83241 2.04683,-4.07202 z m -4.02377,1.07202 c 0,-1.1 -0.17252,-2 -0.38337,-2 -0.21085,0 -0.61872,0.9 -0.90638,2 -0.28766,1.1 -0.11514,2 0.38337,2 0.49851,0 0.90638,-0.9 0.90638,-2 z m -8.01531,-1.25 c -0.0124,-1.81944 -0.20082,-1.96296 -0.98469,-0.75 -1.25292,1.93876 -1.25292,3 0,3 0.55,0 0.99311,-1.0125 0.98469,-2.25 z m -2.98469,-1.05 c 0,-1.265 0.42277,-2.7275 0.93948,-3.25 0.51672,-0.5225 2.26828,-5.675 3.89236,-11.45 4.2807,-15.22155 4.24734,-15 2.25867,-15 -1.29224,0 -2.39801,2.1847 -4.42875,8.75 -5.18093,16.74976 -6.43828,22.1527 -5.26769,22.63574 2.14816,0.88644 2.60593,0.59032 2.60593,-1.68574 z m -7.43195,-3.21105 c 0.71939,-3.83469 2.38594,-5.69352 2.50855,-2.79797 0.0421,0.99496 2.0549,-3.99123 4.47283,-11.08043 2.41793,-7.0892 4.1569,-13.2767 3.86438,-13.75 -1.7427,-2.81976 -3.49013,0.39322 -7.96188,14.63945 -2.67591,8.525 -5.27854,15.5 -5.78361,15.5 -0.50508,0 -0.66215,-1.4625 -0.34906,-3.25 0.49451,-2.82327 0.42845,-2.96182 -0.50318,-1.05521 -1.27867,2.61684 -0.46422,5.30521 1.60722,5.30521 0.90753,0 1.74251,-1.3669 2.14475,-3.51105 z m -4.52413,-4.04187 c 0.65048,-0.78378 1.55582,-1.19446 2.01186,-0.91261 1.09424,0.67628 8.2816,-22.21288 7.56302,-24.08549 -1.36758,-3.56385 -3.38011,-0.70039 -7.3798,10.50011 -2.34355,6.56274 -4.48126,14.09645 -4.75046,16.74158 -0.39614,3.89236 -0.31194,4.27281 0.44161,1.9954 0.5121,-1.54767 1.46329,-3.45521 2.11377,-4.23899 z m 24.76546,-4.44708 c 4.41554,-11.63031 5.17656,-14.76553 3.69062,-15.20455 -1.12779,-0.33321 -8.39438,20.38905 -8.45849,24.12122 -0.0599,3.48978 0.3456,2.73135 4.76787,-8.91667 z m 3.65187,-1.01658 c 1.94631,-6.02055 3.48655,-11.74226 3.42275,-12.71493 -0.0958,-1.46092 -0.20205,-1.42066 -0.61077,0.23151 -0.27212,1.1 -2.24492,6.67352 -4.384,12.38561 -4.07371,10.87822 -4.51109,12.61675 -2.92798,11.63834 0.52869,-0.32675 2.55369,-5.51999 4.5,-11.54053 z m -6.93399,-1.98342 c 2.29451,-6.875 3.98798,-12.8375 3.76327,-13.25 -1.06244,-1.95031 -3.13547,-0.39005 -3.73619,2.81201 -0.36753,1.95911 -1.99261,7.86445 -3.61129,13.12299 -3.40047,11.04697 -3.28481,10.38755 -1.76534,10.065 0.64774,-0.1375 3.05503,-5.875 5.34955,-12.75 z m 17.45204,4.79921 c 2.40778,-6.85055 3.73814,-14.74519 2.24112,-13.29921 -1.55761,1.5045 -7.00706,17.80123 -6.46625,19.3375 0.72147,2.04948 2.04966,0.15131 4.22513,-6.03829 z M 252.5322,122.91045 c 2.6133,-7.5337 2.76392,-8.56647 1.32489,-9.0847 -1.32526,-0.47726 -2.50229,2.00338 -6.4056,13.5 -2.6301,7.74659 -4.78824,14.96806 -4.79585,16.04773 -0.02,2.84049 6.42513,-10.5131 9.87656,-20.46303 z m -14.89041,19 c 0,-1.1 -0.17252,-2 -0.38337,-2 -0.21085,0 -0.61872,0.9 -0.90638,2 -0.28766,1.1 -0.11514,2 0.38337,2 0.49851,0 0.90638,-0.9 0.90638,-2 z m -8.07029,-1.75 c -0.0614,-2.40075 -0.17246,-2.496 -0.87486,-0.75 -0.44252,1.1 -0.60934,2.3375 -0.3707,2.75 0.84706,1.46421 1.3149,0.713 1.24556,-2 z m 6.56897,-4.70218 c 1.27629,-1.00706 6.94465,-17.57257 7.65639,-22.37544 0.26995,-1.82164 -0.34975,-2.62136 -2.8507,-3.67887 l -3.19563,-1.35124 -1.49093,4.67886 c -0.82001,2.57338 -2.84555,8.50387 -4.50119,13.17887 -1.75514,4.95595 -2.58943,8.64767 -2.00094,8.85417 0.55513,0.19479 1.13542,0.19479 1.28953,0 0.66199,-0.83671 8.59479,-22.86603 8.59479,-23.86766 0,-0.6075 0.42511,-0.84181 0.94469,-0.52069 1.09576,0.67722 -0.30154,5.60128 -4.6919,16.53418 -1.65648,4.125 -3.28487,9.525 -3.61864,12 l -0.60684,4.5 1.57171,-3.45218 c 0.86444,-1.8987 2.16929,-3.9237 2.89966,-4.5 z m 8.54972,-5.51637 c 4.56232,-12.44534 5.36369,-17.26995 2.9516,-17.76992 -1.08146,-0.22417 -2.10904,1.71891 -3.68275,6.96377 -1.20051,4.00109 -3.07215,10.08851 -4.1592,13.5276 -1.08706,3.4391 -1.50207,5.95972 -0.92227,5.60138 0.6824,-0.42174 0.87051,0.30935 0.53339,2.07292 -0.97851,5.11874 1.07207,1.08078 5.27923,-10.39575 z m -19.06371,5.32554 c 0.009,-1.86014 0.62756,-3.37796 1.51531,-3.71862 0.825,-0.31658 1.5,-1.1862 1.5,-1.93249 0,-0.74628 1.77045,-6.0479 3.93433,-11.78138 3.87826,-10.27596 3.90434,-10.43562 1.83048,-11.20498 -1.15711,-0.42927 -2.43271,-0.42927 -2.83467,0 -1.91043,2.04023 -7.17337,21.4403 -7.53641,27.78048 -0.27691,4.83587 -0.0953,6.53626 0.58741,5.5 0.54353,-0.825 0.99513,-2.91436 1.00355,-4.64301 z m -3.37219,2.80551 c 0.13062,-0.66688 0.008,-0.74845 -0.27291,-0.18127 -0.28073,0.56718 -0.92198,0.77687 -1.425,0.46598 -0.50302,-0.31088 -0.91459,-0.0512 -0.91459,0.57711 0,1.48332 2.30188,0.72398 2.6125,-0.86182 z m -3.80563,-1.68896 c -0.30789,-0.30789 -0.86705,0.24711 -1.24258,1.23333 -0.54268,1.4252 -0.42782,1.54006 0.5598,0.5598 0.68342,-0.67834 0.99067,-1.48524 0.68278,-1.79313 z m -3.20514,-19.20222 c 2.98128,-8.02033 5.303,-14.68152 5.15939,-14.80264 -0.14362,-0.12112 -1.27362,-0.53145 -2.51112,-0.91184 -1.91394,-0.58831 -2.25,-0.32162 -2.25,1.7856 0,1.36246 -1.40328,6.68029 -3.1184,11.81738 -1.71512,5.1371 -3.20631,10.69018 -3.31374,12.34018 -0.10744,1.65 -0.52565,4.125 -0.92935,5.5 -1.89499,6.45425 1.9244,-2.17307 6.96322,-15.72868 z m 10.23155,1.25497 c 3.00114,-9.58826 3.74843,-13.17229 2.86376,-13.73469 -2.33672,-1.48548 -3.69712,-0.76659 -3.70598,1.9584 -0.005,1.5125 -1.57061,7.25 -3.47931,12.75 -3.51737,10.13543 -4.48093,14.54709 -2.51175,11.5 0.8079,-1.25013 0.97193,-1.17517 0.98469,0.45 0.0305,3.88034 1.8414,-0.1213 5.84859,-12.92371 z m -27.83328,11.47371 c 0,-1.1 -0.17252,-2 -0.38337,-2 -0.21085,0 -0.61872,0.9 -0.90638,2 -0.28766,1.1 -0.11514,2 0.38337,2 0.49851,0 0.90638,-0.9 0.90638,-2 z m -14.57692,-1.54957 c 0.35195,-1.40226 3.0428,-8.71476 5.97967,-16.25 7.68119,-19.707893 7.51909,-17.812663 1.58367,-18.515633 -2.78205,-0.32949 -7.29436,-1.81611 -10.02735,-3.30359 -2.733,-1.48749 -5.13648,-2.51927 -5.34106,-2.29286 -0.76919,0.85127 -10.46592,30.566063 -11.12657,34.096433 -0.68811,3.6771 -0.68048,3.68708 3.6595,4.78505 2.39198,0.60514 5.92406,1.71576 7.84906,2.46804 5.2589,2.05514 6.70782,1.8624 7.42308,-0.98744 z m 10.03244,-1.12922 c 0.37239,-1.48372 1.31288,-3.17547 2.08998,-3.75944 1.35485,-1.01814 7.4545,-19.86253 7.4545,-23.0301 0,-2.070413 -1.71186,-1.939873 -2.86324,0.21833 -0.51349,0.9625 -2.58052,7.6 -4.5934,14.75 -2.01289,7.15 -3.85344,13.58587 -4.09012,14.30194 -0.23668,0.71606 -0.0353,1.05782 0.44743,0.75945 0.48278,-0.29837 1.18245,-1.75645 1.55485,-3.24018 z m 22.30604,1.42879 c 2.67526,-3.32267 9.5512,-27.46276 7.13378,-25.04534 -0.47291,0.47291 -2.62951,5.79532 -4.79246,11.82759 -2.16295,6.03226 -4.24408,11.75525 -4.62475,12.71775 -0.79575,2.01207 0.78694,2.35863 2.28343,0.5 z m -27.07845,-1.9375 c -0.31922,-0.79773 -0.55618,-0.56078 -0.60416,0.60417 -0.0434,1.05416 0.19292,1.64479 0.52522,1.3125 0.33229,-0.33229 0.36781,-1.1948 0.0789,-1.91667 z m 18.74771,-1.5625 c 2.31915,-4.82821 6.56918,-18.9445 6.56918,-21.81924 0,-1.21923 -0.675,-2.4758 -1.5,-2.79238 -0.97199,-0.37299 -1.50614,0.0294 -1.51746,1.143 -0.01,0.94524 -1.40032,6.21862 -3.09048,11.71862 -3.70959,12.07143 -4.41539,15.5 -3.19077,15.5 0.51056,0 1.73885,-1.6875 2.72953,-3.75 z m -1.8216,-10.01651 c 1.38703,-4.54657 2.78369,-9.87984 3.10368,-11.8517 0.50079,-3.08602 0.32916,-3.536223 -1.23269,-3.23349 -1.20329,0.23324 -2.40326,2.20432 -3.56245,5.8517 -5.52559,17.38633 -5.73418,18.28032 -4.57004,19.58619 1.72837,1.93879 3.30896,-0.67453 6.2615,-10.3527 z m -11.03981,-3.74328 c 1.45741,-5.49461 3.06634,-10.77771 3.5754,-11.740213 0.56852,-1.07493 0.56725,-1.75 -0.003,-1.75 -0.92013,0 -4.64588,8.523583 -8.24337,18.858813 -1.51937,4.36499 -1.58592,5.12695 -0.35883,4.10856 1.27094,-1.05479 1.4017,-0.95454 0.83639,0.64119 -0.47779,1.34868 -0.35242,1.60167 0.4369,0.88165 0.60883,-0.55538 2.29939,-5.50538 3.7568,-11 z m 3.22594,-25.240213 c 0.5832,-2.6125 2.04552,-8.450659 3.2496,-12.973688 1.20407,-4.523029 1.94251,-8.866607 1.64097,-9.652395 -0.56494,-1.472218 -8.79593,-4.884947 -14.29925,-5.92875 -3.47565,-0.659218 -3.85761,-0.140084 -7.58198,10.304834 -2.191,6.144629 -3.90629,16.180819 -2.63073,15.392489 0.45432,-0.28079 0.82604,-1.30897 0.82604,-2.28484 0,-0.975873 0.5625,-1.774529 1.25,-1.774791 0.86171,-3.27e-4 1.14106,1.345749 0.89931,4.333331 -0.36418,4.50046 1.35736,6.17292 2.14496,2.08381 0.37157,-1.92915 0.45279,-1.85784 0.56955,0.5 0.16297,3.29098 2.07793,3.71234 2.27236,0.5 0.12641,-2.08858 0.17123,-2.07064 0.62461,0.25 0.45588,2.33347 0.54205,2.36678 1.29353,0.5 0.73556,-1.82724 0.81775,-1.78405 0.95147,0.5 0.13246,2.26246 0.27443,2.16745 1.49421,-1 0.9213,-2.39239 1.37677,-2.86708 1.43923,-1.5 0.0758,1.65938 0.254,1.74453 1.04616,0.5 0.74956,-1.17763 1.09551,-0.80153 1.60968,1.75 0.91538,4.54246 1.96077,4.05248 3.20028,-1.5 z M 85.410808,154.15545 C 79.508768,150.4457 70.56061,143.87259 65.52601,139.54854 c -5.0346,-4.32406 -13.25566,-10.27675 -18.26902,-13.2282 -10.57381,-6.225 -19.11773,-12.52228 -18.72075,-13.79809 0.152,-0.4885 -0.24463,-1.21019 -0.88141,-1.60374 -0.87667,-0.54182 -0.8787,-6.51747 -0.008,-24.611803 C 29.37269,50.427462 30.77614,36.615083 32.9119,34.489431 35.5175,31.89616 65.71201,18.52961 80.901438,13.245351 l 13.16578,-4.580263 1.46451,2.205667 c 0.80548,1.213117 4.01466,3.93744 7.131502,6.054052 5.85977,3.979288 20.09782,16.845779 25.43591,22.985641 1.67362,1.925 5.1229,5.525 7.66507,8 2.54216,2.475 8.84216,10.125 14,17 5.15783,6.875 9.76348,12.781286 10.23477,13.12508 0.92812,0.677037 0.77741,1.650523 -2.92215,18.874919 -1.35852,6.325003 -2.96365,13.975003 -3.56695,17.000003 -1.189,5.96169 -2.73384,12.14764 -5.35399,21.4388 -0.92112,3.26635 -1.48672,6.92253 -1.25688,8.12485 0.38646,2.02166 -0.49105,2.42224 -11.66952,5.32712 -21.61073,5.61583 -30.02067,8.14055 -33.78552,10.14263 -2.033962,1.08163 -4.058962,1.96435 -4.500002,1.9616 -0.44103,-0.003 -5.63082,-3.04025 -11.53286,-6.75 z m 14.23098,2.94804 c 0,-0.44383 1.237502,-1.29595 2.750002,-1.89362 2.30644,-0.91139 2.41728,-1.10382 0.68715,-1.19304 -2.72982,-0.14078 -11.943942,-4.62841 -16.255732,-7.91717 -3.51749,-2.68292 -9.99451,-10.60763 -13.824148,-16.91401 l -2.14273,-3.52849 -0.68405,3.11446 c -0.37622,1.71295 -1.75084,3.9536 -3.0547,4.97921 -1.75433,1.37996 -2.07853,2.15688 -1.24701,2.9884 0.78816,0.78816 1.50082,0.8106 2.38696,0.0752 1.5516,-1.28772 6.59847,-0.80554 7.08406,0.67681 0.21898,0.66847 -0.75549,0.91791 -2.55446,0.65388 -5.44159,-0.79866 -4.19923,1.62499 3.819298,7.45084 13.00175,9.44639 23.03536,14.45878 23.03536,11.50753 z m 24.263372,-8.09736 c 8.81265,-3.96879 17.21622,-11.13518 20.38093,-17.38045 6.71448,-13.25038 7.68219,-17.25597 7.54132,-31.21523 -0.21853,-21.654447 -4.05732,-33.027234 -13.83713,-40.993808 -7.77682,-6.334954 -10.39348,-7.519114 -18.68438,-8.455556 -6.40819,-0.723793 -8.06099,-0.515925 -15.66411,1.97003 C 92.650688,56.524822 86.618118,59.994378 81.755258,65.518884 73.85031,74.499375 71.73316,82.241027 71.41357,103.33473 c -0.16773,11.0699 0.0908,15.02992 1.00105,15.33333 0.67494,0.22498 1.22717,0.84811 1.22717,1.38474 0,0.53663 -0.45,0.69757 -1,0.35765 -1.92406,-1.18914 -0.95984,3.04097 1.75816,7.71321 7.469818,12.84057 19.364218,21.97664 30.87648,23.71616 7.5348,1.13853 10.96814,0.61627 18.62873,-2.83369 z m -21.31061,-5.45203 c -5.868772,-2.09879 -22.619132,-14.64395 -21.305992,-15.95709 0.28849,-0.28848 -0.41402,-1.02681 -1.56112,-1.64072 -1.14711,-0.61392 -2.08565,-1.92537 -2.08565,-2.91436 0,-0.98898 -0.29994,-2.09809 -0.66654,-2.46469 -1.210618,-1.21061 -1.494238,-17.00078 -0.48138,-26.799833 1.22668,-11.86775 3.99004,-17.792854 12.36665,-26.516229 12.486502,-13.003396 27.762112,-15.402127 40.624972,-6.379344 9.62815,6.753763 12.98339,12.000695 16.71687,26.141863 1.99244,7.54671 1.97841,12.79234 -0.0521,19.485673 -1.75013,5.76907 -1.83877,6.72326 -0.55063,5.92714 1.9341,-1.19534 -8.21491,17.08104 -11.28565,20.32326 -3.26218,3.44433 -11.0233,8.75315 -15.96923,10.92336 -3.5709,1.56687 -11.18236,1.50452 -15.75019,-0.12903 z m 16.77641,-7.24782 c -0.3323,-0.33229 -1.1948,-0.36781 -1.91667,-0.0789 -0.79773,0.31922 -0.56078,0.55618 0.60417,0.60416 1.05416,0.0434 1.64479,-0.19293 1.3125,-0.52522 z m -4.72917,-4.34703 c 0.825,-0.56 1.05,-1.01506 0.5,-1.01125 -0.55,0.004 -2.125,0.92712 -3.5,2.0518 -2.44393,1.99902 -0.4686,1.31387 3,-1.04055 z m 8.02162,-1.85954 c -0.89962,-0.3155 -7.02162,2.5287 -7.02162,3.26216 0,0.22003 1.77922,-0.35403 3.95383,-1.27568 2.1746,-0.92166 3.55511,-1.81557 3.06779,-1.98648 z m -20.02162,1.82759 c 0,-0.54074 2.3625,-2.17345 5.25,-3.62825 2.8875,-1.4548 6.4875,-3.51803 8,-4.58494 2.79123,-1.96893 3.78473,-1.25923 1.5,1.07151 -0.6875,0.70135 1.40453,-0.22115 4.64896,-2.05 6.44395,-3.63238 14.61256,-10.98792 16.51142,-14.86796 l 1.20255,-2.45721 -2.17218,2.5 c -1.1947,1.375 -2.78476,3.37285 -3.53346,4.43967 -0.74871,1.06681 -1.66067,1.64028 -2.02658,1.27437 -0.36592,-0.36591 1.47373,-3.26376 4.08811,-6.43967 l 4.75341,-5.77437 -5.30793,5.5 c -2.91935,3.025 -5.86698,5.50558 -6.55027,5.51241 -1.4347,0.0143 -8.1644,4.68638 -12.72973,8.83754 -1.72387,1.56748 -6.1718,4.62483 -9.8843,6.79411 -6.967962,4.07152 -7.816042,4.85594 -5.25,4.85594 0.825,0 1.5,-0.44242 1.5,-0.98315 z m -11.162252,-1.76685 c 1.01076,-0.9625 2.69826,-2.3189 3.75,-3.01422 1.05174,-0.69532 0.52948,-0.61249 -1.16058,0.18407 -1.69006,0.79655 -3.65766,2.15295 -4.37245,3.01421 -1.75918,2.11969 -0.4997,1.98968 1.78303,-0.18406 z m 41.707392,-7.32304 c 1.50775,-2.43958 -1.56354,-0.47845 -5.09219,3.25156 l -3.95295,4.17851 4.23612,-3.25155 c 2.32987,-1.78836 4.49393,-3.66869 4.80902,-4.17852 z m -31.54514,0.50267 c 0,-0.275 -0.9,-0.0183 -2.000002,0.57037 -1.1,0.5887 -2,1.29537 -2,1.57037 0,0.275 0.9,0.0183 2,-0.57037 1.100002,-0.5887 2.000002,-1.29537 2.000002,-1.57037 z m 4,0 c 0,-0.275 -0.9,-0.0183 -2,0.57037 -1.1,0.5887 -2,1.29537 -2,1.57037 0,0.275 0.9,0.0183 2,-0.57037 1.1,-0.5887 2,-1.29537 2,-1.57037 z m 21.40486,0.0704 c 2.02618,-1.375 4.02265,-2.5 4.4366,-2.5 0.41396,0 2.5103,-1.8 4.65854,-4 2.14824,-2.2 3.44301,-4 2.87726,-4 -0.56575,0 -2.11957,1.16223 -3.45295,2.58273 -1.33337,1.42051 -5.06309,4.34551 -8.28826,6.5 -3.22518,2.1545 -5.42547,3.91727 -4.88955,3.91727 0.53592,0 2.63219,-1.125 4.65836,-2.5 z m -40.277302,-0.25 c 1.24387,-1.58606 1.2085,-1.62143 -0.37756,-0.37756 -0.9625,0.75485 -1.75,1.54235 -1.75,1.75 0,0.82304 0.82119,0.29331 2.12756,-1.37244 z m 53.784222,-5.67155 c -0.26711,-0.26711 -1.77034,1.18096 -3.34052,3.21795 l -2.85487,3.7036 3.34052,-3.21795 c 1.83729,-1.76987 3.12198,-3.43649 2.85487,-3.7036 z m -47.911782,1.85115 c 0,-0.275 -0.9,-0.0183 -2,0.57037 -1.1,0.5887 -2,1.29537 -2,1.57037 0,0.275 0.9,0.0183 2,-0.57037 1.1,-0.5887 2,-1.29537 2,-1.57037 z m 20.500002,-6.03396 c 7.75184,-5.50272 15.94526,-13.866203 15.03196,-15.343953 -0.38739,-0.62682 0.0736,-2.35738 1.02435,-3.84569 0.95078,-1.48831 -1.82423,0.66897 -6.16669,4.79397 -4.34246,4.125003 -10.40522,9.750003 -13.4728,12.500003 -3.06757,2.75 -4.75377,4.36776 -3.74711,3.59501 2.32595,-1.78547 2.37627,-0.37666 0.0803,2.24814 -2.21359,2.53062 -0.76404,1.74137 7.25,-3.94748 z m 5.44689,3.13786 c 2.14893,-1.35657 5.50879,-3.87274 7.46635,-5.5915 2.98353,-2.61957 3.39003,-3.4411 2.51329,-5.07931 -0.97459,-1.82104 -1.43021,-1.60307 -6.6818,3.19658 -3.09973,2.83299 -6.67287,5.83035 -7.94031,6.6608 -1.26743,0.83046 -2.30442,1.90817 -2.30442,2.39491 0,1.60268 2.97611,0.92516 6.94689,-1.58148 z m -11.00025,-6.58558 c 11.86727,-9.38054 27.37326,-25.947953 24.28554,-25.947953 -0.47514,0 -1.89218,1.82958 -3.14897,4.06574 -1.25679,2.23616 -2.4815,3.86931 -2.72158,3.62923 -0.58503,-0.58503 1.67441,-5.77389 3.43435,-7.88711 0.7751,-0.93067 1.25058,-2.13854 1.05664,-2.68414 -0.19394,-0.545608 -3.50262,2.94277 -7.35262,7.75194 -3.85,4.80918 -10.6,12.010953 -15,16.003933 -4.4,3.99298 -8.150002,7.67857 -8.333332,8.19019 -0.77618,2.16604 3.014702,0.64489 7.779972,-3.12183 z m 0.28292,-7.68667 c 3.99874,-3.647393 10.3273,-10.416363 14.06346,-15.042153 5.56911,-6.895184 6.57524,-8.672935 5.58428,-9.866971 -1.02166,-1.231033 -1.51689,-0.945376 -3.19974,1.845698 -6.32467,10.489683 -8.42567,13.200853 -16.1271,20.810763 -4.6623,4.606893 -9.618462,9.068823 -11.013692,9.915393 -1.39522,0.84657 -2.53677,1.91564 -2.53677,2.3757 0,1.25059 5.07442,-2.59982 13.229562,-10.03843 z m -17.874492,9.15596 c 0.83526,-0.32052 1.26951,-1.232 0.96501,-2.02552 -0.42515,-1.10791 -0.87469,-1.17633 -1.93686,-0.2948 -0.76077,0.63138 -1.38322,1.54287 -1.38322,2.02552 0,1.03348 0.32431,1.07408 2.35507,0.2948 z m -3.85175,-4.42262 c 0.33809,-0.54704 1.33318,-0.99462 2.21131,-0.99462 2.61273,0 7.77103,-4.52777 14.398662,-12.638643 5.9958,-7.33764 14.88671,-21.623858 14.88671,-23.920477 0,-2.4177 -3.16302,-0.90623 -5.18101,2.475785 -5.61167,9.404732 -17.485672,23.669992 -24.000052,28.833335 -2.25522,1.7875 -3.50288,3.25 -2.77258,3.25 0.76096,0 0.0739,1.33607 -1.60927,3.12961 -2.39932,2.55659 -2.53532,2.9218 -0.74278,1.99462 1.20687,-0.62424 2.47092,-1.58257 2.80901,-2.12961 z m 20.694862,-8.604123 c 8.3331,-8.20444 12.04365,-12.96567 15.66497,-20.100661 2.52435,-4.973647 2.6738,-5.980359 0.63685,-4.289838 -1.22111,1.013429 -1.5,0.963123 -1.5,-0.270566 0,-2.843899 -2.79806,-2.747464 -3.80151,0.131018 -1.38251,3.965866 -9.16129,15.721417 -14.81908,22.395077 -7.924742,9.347633 -10.379412,12.476443 -10.379412,13.229923 0,1.54612 6.58657,-3.60084 14.198182,-11.094953 z m 29.80182,1.3634 c 0,-1.41737 -1.75048,0.0795 -4.12394,3.526343 l -2.21705,3.21976 3.17049,-2.93709 c 1.74378,-1.6154 3.1705,-3.32945 3.1705,-3.809013 z M 96.682008,89.711827 C 105.97317,79.040021 114.81015,66.248128 112.19921,67.25004 c -0.85658,0.328701 -1.55742,0.161762 -1.55742,-0.370977 0,-2.4789 -2.85237,-0.572126 -4.17285,2.789505 -1.88236,4.792031 -9.415122,14.702999 -17.788622,23.404759 -4.41149,4.58443 -6.05057,6.89994 -5.03853,7.117903 2.1424,0.46141 6.712,-3.210823 13.04022,-10.479403 z m 36.959782,3.19862 c 0.5887,-1.1 0.84537,-2 0.57037,-2 -0.275,0 -0.98167,0.9 -1.57037,2 -0.5887,1.1 -0.84537,2 -0.57037,2 0.275,0 0.98167,-0.9 1.57037,-2 z m -42.338592,-5.3745 c 6.39817,-6.985451 12.761272,-15.898283 13.774612,-19.294168 0.47849,-1.603543 0.18027,-2.259897 -1.14445,-2.518753 -2.4558,-0.479877 -6.541612,3.935153 -8.579192,9.270494 -0.92969,2.434347 -3.7552,6.786527 -6.27891,9.671507 -2.52371,2.88499 -4.31284,5.24542 -3.97583,5.24542 0.337,0 0.13106,0.9 -0.45764,2 -2.08152,3.88937 0.86395,1.95509 6.66141,-4.3745 z m -1.13344,-7.665865 c 2.75433,-3.974499 6.90181,-14.863188 6.00352,-15.761482 -0.87841,-0.878407 -8.28676,6.756119 -11.67664,12.033131 -3.19672,4.976306 -6.1316,13.158636 -5.09252,14.197716 0.77962,0.77962 7.49739,-5.75327 10.76564,-10.469365 z m 42.960752,8.417245 c 0.9453,-1.44272 1.22448,-2.31766 0.62038,-1.94431 -1.15439,0.71346 -3.48267,4.56743 -2.75929,4.56743 0.23109,0 1.1936,-1.1804 2.13891,-2.62312 z m 3.43099,-11.376879 c 1.12265,-2.357268 1.10183,-2.389176 -0.36454,-0.55887 -0.85535,1.067621 -1.55517,2.380121 -1.55517,2.916666 0,1.270543 0.4619,0.703236 1.91971,-2.357796 z m -7.2366,-9.1875 c -0.31922,-0.797733 -0.55618,-0.560776 -0.60416,0.604167 -0.0434,1.054166 0.19292,1.644791 0.52522,1.3125 0.33229,-0.332292 0.36781,-1.194792 0.0789,-1.916667 z m -19.68311,-7.8125 c 0,-0.55 -0.19844,-1 -0.44098,-1 -0.24254,0 -0.7191,0.45 -1.05902,1 -0.33992,0.55 -0.14148,1 0.44098,1 0.58246,0 1.05902,-0.45 1.05902,-1 z m 31.35788,85.054042 c 2.26532,-0.86128 5.32743,-6.8949 4.47255,-8.81276 -0.18174,-0.4077 -3.03043,1.91519 -6.33043,5.16199 -6.19732,6.0974 -5.93469,6.61349 1.85788,3.65077 z M 65.86014,132.16045 c 0.84058,-0.9625 1.79564,-3.325 2.12235,-5.25 0.8754,-5.15792 1.02997,-57.204528 0.17597,-59.250002 -0.4147,-0.993266 -0.29427,-1.75 0.27852,-1.75 1.31537,0 3.19482,5.450016 3.24133,9.399223 0.0346,2.941398 0.16425,2.836879 2.52149,-2.033462 1.36673,-2.823831 4.443938,-7.237851 6.838248,-9.808932 2.3943,-2.571082 3.62213,-4.376466 2.72851,-4.011963 -2.54991,1.04009 -13.469508,2.230137 -15.048378,1.640012 -1.00392,-0.37523 -1.23428,-0.03871 -0.78138,1.141513 1.35473,3.530377 -1.53043,1.32273 -10.92756,-8.361467 C 47.0052,43.565727 40.73523,39.524004 35.66417,40.11599 c -2.43414,0.284158 -2.54419,0.609285 -3.14597,9.294458 -0.34297,4.95 -1.15099,12.76426 -1.79559,17.365023 -0.64461,4.600763 -1.07879,11.125763 -0.96485,14.499996 0.11394,3.37424 0.0685,11.40941 -0.10096,17.85594 -0.2196,8.353853 0.0541,12.157373 0.95272,13.240163 1.9765,2.38153 12.0371,8.99053 21.35615,14.02925 4.67779,2.52923 9.04866,5.25359 9.71304,6.05412 1.56695,1.88805 2.32178,1.83489 4.18143,-0.29449 z M 48.64179,102.74378 c 0,-5.041663 0.31605,-8.850613 0.70233,-8.464333 1.03463,1.03463 1.19598,17.631003 0.1714,17.631003 -0.48055,0 -0.87373,-4.125 -0.87373,-9.16667 z m -6.44434,-0.0833 c -0.61947,-5.528643 -0.40359,-8.235403 0.74873,-9.387723 0.38259,-0.38258 0.69561,2.75439 0.69561,6.971063 0,4.21666 -0.19262,7.66666 -0.42804,7.66666 -0.23543,0 -0.69276,-2.3625 -1.0163,-5.25 z m -4.92537,-2 c -0.8515,-3.177333 -0.63949,-16.397263 0.3488,-21.750002 0.58954,-3.193004 0.78584,-0.361823 0.67588,9.747789 -0.0852,7.83628 -0.21499,14.248773 -0.28834,14.249993 -0.0734,0.001 -0.40471,-1.01028 -0.73634,-2.24778 z m -3.54006,-3.750003 c -0.94853,-6.64057 0.70242,-38.246183 1.95731,-37.470616 0.42709,0.263953 0.55406,1.891472 0.28216,3.616709 -0.27191,1.725238 -0.83881,10.385646 -1.25979,19.245347 -0.42098,8.85971 -0.86184,15.43356 -0.97968,14.60856 z m 123.48795,-11.87787 c 0.60667,-4.57328 0.37828,-5.296015 -3.45946,-10.947336 -4.48132,-6.599034 -7.18004,-9.127864 -4.77236,-4.471935 0.83135,1.607659 2.52985,7.77607 3.77445,13.707581 2.38904,11.38571 3.13602,11.67256 4.45737,1.71169 z M 140.72105,56.660448 c -1.65924,-2.3375 -6.85586,-8.064322 -11.54804,-12.726272 -6.69667,-6.653536 -8.53122,-8.020105 -8.53122,-6.35496 0,2.751635 -3.52357,6.081547 -10.17124,9.612214 -2.93082,1.556598 -4.20376,2.482216 -2.82876,2.05693 4.25742,-1.316815 15.72138,-0.418552 20.94736,1.641339 4.72094,1.860822 5.92521,2.641617 11.93656,7.739148 3.61889,3.068767 3.63754,2.880861 0.19534,-1.968399 z M 85.876548,56.015814 c 11.43654,-4.543079 31.525952,-15.059472 32.321832,-16.919812 2.03551,-4.757955 -0.8373,-8.471512 -14.05659,-18.170332 -3.3,-2.421167 -7.201112,-5.489399 -8.669142,-6.818294 l -2.66914,-2.416173 -11.33086,3.740204 C 71.61284,18.68603 53.90586,25.866112 45.39959,30.058826 c -1.50821,0.743392 -2.74571,1.924176 -2.75,2.623965 -0.004,0.699789 1.80742,3.241626 4.02603,5.648526 2.2186,2.406901 3.9061,4.786412 3.75,5.287803 -0.38368,1.232327 11.7588,12.415363 12.58426,11.589909 0.35917,-0.359169 1.56581,0.326718 2.68143,1.524192 3.02395,3.24583 10.914318,2.965396 20.185238,-0.717407 z M 69.14179,40.910448 c -1.50847,-0.648213 -0.89406,-0.859429 2.5,-0.859429 3.39406,0 4.00847,0.211216 2.5,0.859429 -1.1,0.472686 -2.225,0.859429 -2.5,0.859429 -0.275,0 -1.4,-0.386743 -2.5,-0.859429 z m -9.5,-3.695946 c 0,-0.934733 15.67442,-6.408491 17.999998,-6.285889 0.825,0.04349 -2.020008,1.387193 -6.322258,2.986002 -10.70229,3.97721 -11.67774,4.252852 -11.67774,3.299887 z m -3.45,-4.221068 c 1.42351,-1.374077 21.627128,-8.198359 22.871728,-7.7255 0.6141,0.233314 0.43256,0.642584 -0.42173,0.950743 -0.825,0.297593 -5.898058,2.149984 -11.273468,4.116425 -9.9359,3.634764 -12.92449,4.345599 -11.17653,2.658332 z m -8.33768,-2.219946 c 0.36618,-1.098524 26.26222,-11.7824 32.037678,-13.217715 4.46633,-1.109971 3.13595,0.924101 -1.5,2.293415 -2.337498,0.690423 -9.199998,3.282369 -15.249998,5.75988 -16.18268,6.626902 -15.72346,6.471772 -15.28768,5.16442 z m -4.75777,7.682415 c -1.35,-1.35 -2.45455,-3.15 -2.45455,-4 0,-1.841987 0.1118,-1.828991 -3.85078,-0.44763 -3.93467,1.371635 -4.19202,3.896585 -0.39922,3.916917 1.5125,0.0081 3.875,0.638986 5.25,1.401952 3.76481,2.08903 4.17132,1.845537 1.45455,-0.871239 z"
     id="path13136"
     inkscape:connector-curvature="0"
     sodipodi:nodetypes="csssssssscscssssssssccsscssccsscccscssssssscsscssssssssssssscsssssssscsscsssssssscssssssssssssssssscsscsssssssssssssssssssssssscsscssscssscsssscssssssssscssssssscsccssssssscsssssssscsssssssssssssssssssssssscsssscscccccssscssssssssscssssssccssssscsssssssssssssscsssscsscsssssssssssscccssssscssscssssssssssssssssssccssssssssssscccccccscsssssssssssscsssscscssssssssssscssscscsscscssssssssssssssscssscscscscssssccsssssssssssssssssssssssssssssssssssssssssssssssssscssssssssssssssssssssssssssssssssssscccccsssssscsssssscssssssssssssssssssssssssssscssssssssssssssssssssssscsscscssssssssssssssssssssssssssss" />
  <path
     style="fill:#000000;fill-opacity:0.56185566;stroke:none"
     d="m 93.3125,10.46875 c -20.25285,5.369641 -40.113025,13.312049 -59.15625,24.125 -3.564169,7.296065 -7.449253,49.02258 -5.03125,76.9375 19.190063,15.40444 44.314521,31.87966 66.46875,47.8125 l 49.625,-13.65625 c 5.42904,-23.63799 10.32586,-46.741909 12.75,-67.375 C 139.73299,52.631231 119.66831,28.617689 93.3125,10.46875 z m 3.192164,52.926772 C 96.091381,75.699402 89.321377,84.427626 79.21875,91.28125 78.225131,81.304562 87.59706,67.671846 96.504664,63.395522 z"
     id="path13138"
     inkscape:connector-curvature="0"
     sodipodi:nodetypes="cccccccccc" />
  <path
     style="fill:#000000;fill-opacity:0.56185566;stroke:none"
     d="m 152.7377,156.11135 30.74068,-99.464594 c 6.86703,-1.282318 13.73405,2.212716 20.60108,6.437838 l -7.08162,30.257838 96.24567,30.579728 c -0.35039,10.62243 -4.26348,21.24487 -11.90999,31.8673 -33.32249,-5.07658 -64.37838,-16.95297 -96.56757,-25.42946 l -12.87568,34.44243 c -6.50964,-2.52068 -14.16719,-1.59763 -19.15257,-8.69108 z"
     id="path13654"
     inkscape:connector-curvature="0"
     sodipodi:nodetypes="ccccccccc" />
</svg>
