<?xml version="1.0" encoding="UTF-8" standalone="no"?>
<!-- Created with Inkscape (http://www.inkscape.org/) -->

<svg
   xmlns:dc="http://purl.org/dc/elements/1.1/"
   xmlns:cc="http://creativecommons.org/ns#"
   xmlns:rdf="http://www.w3.org/1999/02/22-rdf-syntax-ns#"
   xmlns:svg="http://www.w3.org/2000/svg"
   xmlns="http://www.w3.org/2000/svg"
   xmlns:sodipodi="http://sodipodi.sourceforge.net/DTD/sodipodi-0.dtd"
   xmlns:inkscape="http://www.inkscape.org/namespaces/inkscape"
   id="svg7829"
   version="1.1"
   inkscape:version="0.48.4 r9939"
   width="388.23285"
   height="493.3176"
   sodipodi:docname="Gloves.svg">
  <metadata
     id="metadata7835">
    <rdf:RDF>
      <cc:Work
         rdf:about="">
        <dc:format>image/svg+xml</dc:format>
        <dc:type
           rdf:resource="http://purl.org/dc/dcmitype/StillImage" />
        <dc:title></dc:title>
      </cc:Work>
    </rdf:RDF>
  </metadata>
  <defs
     id="defs7833" />
  <sodipodi:namedview
     pagecolor="#ffffff"
     bordercolor="#666666"
     borderopacity="1"
     objecttolerance="10"
     gridtolerance="10"
     guidetolerance="10"
     inkscape:pageopacity="0"
     inkscape:pageshadow="2"
     inkscape:window-width="1272"
     inkscape:window-height="743"
     id="namedview7831"
     showgrid="false"
     inkscape:zoom="0.77617302"
     inkscape:cx="114.58766"
     inkscape:cy="237.57951"
     inkscape:window-x="0"
     inkscape:window-y="22"
     inkscape:window-maximized="0"
     inkscape:current-layer="svg7829"
     fit-margin-top="0"
     fit-margin-left="0"
     fit-margin-right="0"
     fit-margin-bottom="0" />
  <path
     style="fill:#883636;fill-opacity:1;stroke:none"
     d="m 134.18962,77.920052 -91.141,234.362588 c -12.530014,39.53995 -28.309169,79.0799 -36.7587745,118.61984 -6.23986427,11.98388 -8.9483028,26.90486 2.580895,31.11183 7.7803415,11.58109 19.4677665,-10.04804 30.1090845,-22.78526 l -5.696313,35.8054 c 11.543984,8.61717 18.718593,34.71184 43.942987,-11.39263 14.736713,39.78401 34.876251,8.33376 42.315461,-5.69631 l 14.64766,-30.92284 c 5.5863,42.45701 31.31211,14.76938 39.20006,-6.79778 13.21307,-32.55663 29.75476,-64.82553 35.593,-97.38215 l 15.87127,-46.56295 c 3.70256,43.12922 7.05498,89.71095 8.61428,132.84018 10.01501,15.76702 2.60552,59.56475 30.10909,47.19802 l 14.64765,-19.53022 4.88256,34.17788 c 1.30301,15.89489 27.89372,46.45746 40.54833,-15.56015 29.92578,41.30573 33.40435,2.12207 38.3863,-25.94156 15.1578,-0.5648 23.49064,-9.99516 23.59901,-30.10908 2.46746,-46.38426 2.08888,-92.76854 -0.81377,-139.1528 C 376.23913,200.32039 358.3971,143.80373 341.69817,86.871399 348.38453,60.559855 348.13629,34.248312 343.32569,7.9367732 324.56271,9.2682742 298.88685,23.042983 276.59746,30.722027 262.08544,22.013585 247.682,13.36532 231.67697,9.2687002 204.87186,2.4077052 175.69999,-0.56548253 141.51346,1.4267009 139.16235,26.890672 144.56514,49.446931 134.18962,77.920052 z"
     id="path7841"
     inkscape:connector-curvature="0"
     sodipodi:nodetypes="cccccccccccccccccccccccscc" />
  <path
     style="fill:#000000"
     d="m 289.13904,488.52401 c -5.94491,-5.94491 -8.24502,-13.36935 -10.37995,-33.50505 l -1.58284,-14.92886 -5.4996,8.37789 c -6.0405,9.20189 -8.62517,10.74232 -18.02437,10.74232 l -6.30582,0 -4.30838,-9.45416 c -5.85188,-12.8411 -10.37019,-37.20983 -11.94903,-64.44512 -2.1733,-37.48993 -3.82001,-60.33318 -5.09714,-70.70805 -0.68197,-5.54002 -1.26423,-15.48799 -1.29391,-22.10663 l -0.0539,-12.03387 -4.99897,12.4493 c -2.74948,6.84711 -4.99902,13.84807 -4.99902,15.55767 0,1.70962 -0.51709,4.07459 -1.14908,5.25548 -0.63202,1.18092 -2.39935,8.39136 -3.92742,16.02322 -4.48383,22.39411 -7.60899,30.67108 -32.3676,85.72513 -7.3922,16.43752 -19.07989,33.18524 -24.02509,34.4264 -8.50016,2.13342 -16.01758,-3.19866 -19.76336,-14.01806 l -1.65576,-4.78258 -4.21293,11.21336 c -7.19754,19.15733 -9.54397,23.61634 -16.32513,31.02318 -8.12426,8.87384 -15.720992,12.32544 -21.687782,9.85391 -4.780665,-1.98022 -9.755451,-8.28478 -10.848049,-13.74778 l -0.816959,-4.08482 -4.680971,7.34841 c -7.621378,11.96442 -14.122658,18.0859 -19.20804,18.0859 -5.285328,0 -15.640891,-6.26678 -17.653023,-10.68291 -0.785228,-1.7234 -1.913019,-2.83351 -2.506209,-2.4669 -0.593178,0.36662 -1.078513,0.031 -1.078513,-0.74578 0,-0.77678 -0.44308,-1.1385 -0.984616,-0.80382 -1.335594,0.82545 0.351811,-12.24054 2.588016,-20.03956 0.996073,-3.4739 2.190501,-8.28876 2.654298,-10.69967 l 0.843272,-4.38348 -3.087575,4.38348 c -1.698155,2.41091 -4.169435,5.80463 -5.491713,7.54157 -1.322293,1.73695 -3.462757,4.98148 -4.756601,7.21007 -5.014767,8.63771 -13.551006,8.31487 -20.5036919,-0.77546 -4.84026317,-6.32841 -5.1592807,-10.3764 -1.660447,-21.06899 1.3447896,-4.10973 4.1981494,-14.57793 6.3407854,-23.26269 3.6666305,-14.86191 18.0648895,-58.60584 32.8476015,-99.79561 3.615595,-10.0743 10.532252,-29.68604 15.370343,-43.58162 11.762,-33.78195 33.720496,-87.40646 45.114124,-110.17253 2.7071,-5.40917 8.08668,-17.79324 11.95465,-27.52015 3.86796,-9.72691 8.69181,-21.09604 10.71965,-25.26472 2.02786,-4.16867 4.56184,-10.990146 5.6311,-15.15882 6.65091,-25.929892 7.40658,-30.698758 8.00693,-50.529422 0.33653,-11.116474 0.92219,-24.300912 1.30146,-29.298744 l 0.68958,-9.0869708 6.53093,0.7371247 c 7.70915,0.870109 8.78042,1.4598063 4.62571,2.5462883 -2.93442,0.767366 -2.88108,0.863637 1.3184,2.3802618 3.5499,1.282032 3.82398,1.598705 1.45117,1.676657 -1.60894,0.05286 -4.02487,-0.492351 -5.36875,-1.211576 -2.03263,-1.0878288 -2.44343,-0.8879478 -2.44343,1.188896 0,1.906396 1.26915,2.780793 5.36875,3.698869 l 5.36875,1.202294 -5.45265,0.135283 c -5.13748,0.127463 -5.42955,0.330032 -5.05294,3.504412 0.29561,2.491643 1.44538,3.725433 4.41457,4.737133 5.13941,1.751186 7.21514,3.887507 2.73448,2.814338 -1.84609,-0.44217 -4.31968,-1.173533 -5.49686,-1.625267 -1.59491,-0.612024 -2.02721,-0.239509 -1.69641,1.46183 0.24417,1.255732 2.43352,3.041732 4.86525,3.96887 l 4.42133,1.685726 -4.73713,-0.372807 c -4.15232,-0.326786 -4.73714,-0.02956 -4.73714,2.408044 0,1.954099 1.12669,3.173614 3.78971,4.101952 4.65469,1.622627 5.02637,3.074275 0.49604,1.937236 -2.18035,-0.547233 -3.66831,-0.235113 -4.40199,0.923362 -2.002,3.161171 -1.21923,4.369569 4.69032,7.240651 6.7758,3.291942 6.83938,4.928868 0.0817,2.10536 -5.86418,-2.45021 -5.92646,-2.440344 -5.87951,0.930853 0.0282,2.027038 1.93041,4.047331 6.63198,7.043675 5.74446,3.660996 5.7326,4.218361 -0.0395,1.858434 -3.35283,-1.370775 -1.5973,5.700957 2.21066,8.905142 4.57348,3.848334 5.01188,5.706541 0.67606,2.865612 -3.93137,-2.575952 -4.46762,-2.555437 -4.45778,0.170524 0.004,1.215864 1.75584,3.20546 3.89207,4.421321 4.884,2.779767 6.16302,2.779767 6.37212,0 0.0915,-1.215861 0.58509,-0.22106 1.09695,2.210667 l 0.93064,4.421324 0.1663,-5.443305 c 0.0915,-2.99382 -0.34914,-5.124748 -0.97913,-4.735393 -0.62999,0.389354 -0.84792,-0.42979 -0.48429,-1.820297 1.28966,-4.931672 2.77757,-2.419981 3.14848,5.314778 0.34269,7.146484 0.65654,7.920578 3.53417,8.716727 2.1308,0.589508 2.41474,0.914697 0.87288,0.999664 -1.33181,0.07341 -1.9246,0.709399 -1.42086,1.524477 0.58166,0.941156 -0.0136,1.11989 -1.8203,0.54649 -5.26862,-1.67219 -2.79005,2.725433 2.6841,4.762264 8.49318,3.160166 14.84282,3.998616 14.84401,1.960106 0.001,-2.623613 7.53514,-17.974439 8.39782,-17.111759 0.41637,0.416375 -0.34708,2.628793 -1.69655,4.9165 -2.36565,4.010402 -4.42743,9.84401 -3.47914,9.84401 0.25304,0 1.96454,-2.567139 3.80331,-5.704772 2.23368,-3.811491 3.09387,-6.698166 2.59193,-8.698092 -0.47327,-1.885668 -0.0545,-3.571534 1.13136,-4.555809 4.70443,-3.90432 0.69682,9.621762 -5.10424,17.227346 -1.71545,2.249071 -3.119,4.568096 -3.119,5.153376 0,1.52201 25.73116,5.284416 26.64437,3.895946 0.98045,-1.490696 -0.80586,-12.653501 -2.62318,-16.392442 -1.33491,-2.746428 -1.30482,-2.780008 0.48953,-0.546238 1.05152,1.309027 2.56484,5.572445 3.36294,9.474273 2.20057,10.758217 2.08119,10.535347 4.8498,9.053627 1.75301,-0.93818 2.58184,-0.8921 2.93357,0.16313 0.2731,0.81927 3.95529,1.72138 8.31293,2.03659 6.97898,0.50481 7.83227,0.31103 7.91149,-1.79666 0.083,-2.20787 0.15257,-2.19924 1.06343,0.13177 0.88427,2.26298 1.11102,2.14584 2.44524,-1.26324 1.44442,-3.690626 1.45879,-3.695666 0.80735,-0.28359 -0.61979,3.24636 -0.37789,3.47391 3.69304,3.47391 4.17346,0 4.55884,-0.40941 9.18253,-9.754563 5.28553,-10.682884 8.97192,-13.875524 7.52935,-6.520878 -0.46115,2.35108 -2.18107,7.005525 -3.82201,10.343215 l -2.98354,6.068506 3.89244,-0.38396 c 3.53614,-0.3488 4.54483,-1.59816 11.01904,-13.647914 8.75844,-16.301194 21.5033,-38.306127 22.68092,-39.160301 0.90393,-0.655657 3.77549,-5.743251 3.77549,-6.689098 0,-1.082404 -15.28893,-10.996201 -16.95818,-10.996201 -0.94603,0 -2.02171,-0.786099 -2.3904,-1.746878 C 276.21341,29.903565 252.66267,18.512335 236.92499,13.435165 215.58638,6.5510672 193.89857,3.0813894 174.16299,3.394318 142.67418,3.8936079 138.02778,3.5853891 140.45488,1.1582907 141.75187,-0.13870033 183.2693,-0.45552073 191.27626,0.77047267 224.90377,5.9193778 246.89023,12.49476 266.33466,23.217827 l 13.11095,7.230332 8.98407,-4.707664 c 10.33086,-5.41338 42.79564,-18.4017868 47.48706,-18.9984768 5.2588,-0.6688504 4.27085,2.060922 -1.08017,2.984585 -8.8245,1.5232388 -49.44925,18.4284548 -49.44925,20.5773698 0,0.306574 2.3625,-0.276144 5.25,-1.294905 2.88749,-1.018774 5.48809,-1.614188 5.77913,-1.323164 0.29102,0.291025 -1.47275,1.253028 -3.91951,2.137786 -4.91361,1.776792 -4.9202,3.676231 -0.0128,3.676231 1.73695,0 2.84358,0.508881 2.45917,1.130861 -1.54706,2.503215 3.81915,2.562423 10.36226,0.114323 3.81801,-1.428505 7.24607,-2.293063 7.6179,-1.921243 0.94737,0.947389 0.49305,1.169731 -7.32446,3.584608 -3.82128,1.180431 -7.80047,2.714264 -8.84265,3.408538 -1.68431,1.122057 -1.68431,1.401193 0,2.512286 1.04218,0.687478 2.65824,0.96928 3.59126,0.626223 0.93302,-0.343057 3.20684,-0.932394 5.05293,-1.309635 2.78372,-0.568835 2.54811,-0.239395 -1.38059,1.930427 -4.25602,2.350603 -5.02615,3.324079 -4.6139,5.832106 0.0677,0.41232 -1.30051,2.259802 -3.04065,4.105515 -4.21541,4.471161 -11.25084,16.61981 -9.62474,16.61981 1.68991,0 7.48922,-5.824703 7.48922,-7.521999 0,-0.726361 -0.71057,-1.35669 -1.57905,-1.400726 -0.86846,-0.04409 -0.29539,-0.595894 1.27351,-1.226323 1.5689,-0.630444 3.50763,-2.584012 4.30828,-4.341261 1.67933,-3.685731 4.17019,-4.337839 3.25894,-0.853177 -0.59444,2.27318 -0.4365,2.274985 5.38839,0.06164 3.30044,-1.254064 6.34168,-1.93923 6.75832,-1.52259 0.41664,0.41664 -2.71687,1.953935 -6.96335,3.416206 -4.81914,1.659462 -8.48993,3.820479 -9.76715,5.749971 -1.73369,2.619066 -1.75681,2.974667 -0.15142,2.327839 5.48391,-2.209512 6.42121,-2.124901 2.23358,0.201639 -2.59283,1.440493 -5.56964,4.27326 -6.61512,6.295018 l -1.90089,3.67594 7.70499,-3.130828 c 4.23774,-1.721955 8.06723,-2.738127 8.50997,-2.258173 0.44274,0.479954 0.0234,1.1501 -0.93198,1.489229 -0.95531,0.339115 -2.8028,1.682427 -4.10551,2.985138 -1.30272,1.302712 -2.97762,2.368568 -3.72204,2.368568 -0.74439,0 -0.4752,0.878266 0.59825,1.951697 1.93941,1.939436 3.58869,7.098201 5.09046,15.92258 l 0.78459,4.610296 5.96693,-1.91883 5.96693,-1.918819 0.14284,-7.849989 c 0.13836,-7.603298 4.56041,-23.936948 6.86634,-25.362093 3.80169,-2.349554 2.04309,15.12781 -2.57194,25.560889 -1.41517,3.199225 -2.34727,6.042524 -2.07134,6.318464 0.27594,0.27593 5.09643,-1.367503 10.71222,-3.652064 l 10.21052,-4.153773 1.36279,-6.33322 c 4.67834,-21.741468 5.52073,-31.786439 4.09731,-48.857895 -0.77261,-9.266072 -1.80172,-18.552779 -2.2869,-20.637118 -0.58232,-2.5016258 -0.45758,-3.3603468 0.36699,-2.5264708 2.68987,2.7202078 4.04654,10.2509938 4.84195,26.8776038 0.71774,15.00235 0.44456,19.375949 -2.02965,32.494474 -3.24967,17.229957 -3.3759,23.837051 -0.58314,30.521071 1.07554,2.574126 3.09414,9.139736 4.48578,14.590256 1.39165,5.45053 4.18404,14.86815 6.20534,20.92806 15.25898,45.7468 24.66151,87.5033 29.1232,129.33549 2.01517,18.89413 3.45148,59.96716 2.90836,83.16857 -0.25209,10.76909 -0.68907,30.23951 -0.97106,43.26761 -0.47463,21.92757 -0.73209,24.08622 -3.4652,29.05443 -3.24506,5.89879 -13.45788,13.57799 -18.05783,13.57799 -2.56417,0 -2.93952,0.79715 -3.71749,7.89522 -2.1192,19.33522 -10.09489,35.29292 -18.02962,36.07349 -5.19843,0.5114 -14.34281,-6.19003 -17.71532,-12.98265 l -2.49049,-5.01615 -1.52054,6.91101 c -3.24188,14.73489 -4.35968,17.73037 -8.17944,21.91963 -4.14811,4.54934 -9.9965,7.09799 -16.28773,7.09799 -2.65667,0 -5.14726,-1.39746 -8.54347,-4.79366 z m 19.24675,-1.02548 c 5.27962,-2.73021 7.20288,-6.62571 9.90642,-20.06512 l 2.46262,-12.24191 -2.84076,-2.38626 c -2.4299,-2.04114 -2.56671,-2.56719 -0.94591,-3.63727 1.45208,-0.95869 2.08684,-0.59571 2.71637,1.55338 0.8059,2.75108 0.8239,2.74633 0.94742,-0.25022 0.0692,-1.68002 -0.47955,-6.53144 -1.21955,-10.7809 -1.24348,-7.14054 -1.59327,-7.72301 -4.61382,-7.6829 -1.79759,0.0239 -3.52159,-0.69195 -3.8311,-1.59073 -0.40808,-1.18496 0.42609,-1.43816 3.03478,-0.92116 3.39975,0.67377 3.44128,0.63146 0.75525,-0.76957 -3.52088,-1.83649 -3.75815,-4.08386 -0.31582,-2.9913 3.0391,0.96457 3.61059,-2.47177 0.60301,-3.62589 -1.56581,-0.60086 -1.64113,-1.19016 -0.40513,-3.16932 1.22648,-1.96391 1.11687,-3.04393 -0.5703,-5.61886 -1.14875,-1.7532 -1.58169,-3.37222 -0.96212,-3.59782 1.77455,-0.64613 -0.0233,-7.35797 -1.97081,-7.35797 -0.96117,0 -1.74758,-0.56845 -1.74758,-1.26323 0,-0.69478 0.85268,-1.26324 1.89485,-1.26324 2.59274,0 2.56432,-7.4018 -0.0322,-8.3982 -1.43649,-0.55124 -1.57578,-1.16281 -0.5471,-2.40229 1.0213,-1.23059 0.80938,-2.53364 -0.8153,-5.01322 -1.24539,-1.90071 -1.69191,-3.71374 -1.03195,-4.19005 1.90987,-1.37841 2.06424,-5.30847 0.29283,-7.45495 -1.26333,-1.53082 -1.29414,-2.12838 -0.12995,-2.52033 1.15114,-0.38758 1.35331,-5.9597 0.82301,-22.68427 -0.50554,-15.94362 -0.31324,-21.92961 0.68467,-21.31287 0.79239,0.48973 1.38765,4.61886 1.38765,9.62572 0,5.07151 0.53887,8.76809 1.27817,8.76809 0.78899,0 0.96104,1.98311 0.44957,5.18169 -0.58889,3.6828 -0.34265,5.48202 0.85127,6.21991 1.37609,0.85046 1.38461,1.39395 0.0471,3.00557 -1.09024,1.31365 -1.36827,3.75919 -0.83678,7.35989 0.43779,2.96587 0.76877,7.67759 0.73549,10.47046 -0.0878,7.37297 2.21075,32.25926 3.76062,40.71534 7.30885,39.87718 8.98172,44.83258 17.3306,51.33714 5.64359,4.39694 10.49128,5.92026 10.49128,3.2968 0,-0.69478 0.71057,-1.26761 1.57904,-1.27296 3.99475,-0.0247 10.28726,-17.05972 11.80429,-31.95666 0.80287,-7.88411 0.651,-8.75373 -1.83262,-10.49333 -3.53667,-2.47718 -3.66758,-6.01803 -0.1816,-4.91162 1.44933,0.46 2.52648,0.227 2.52648,-0.54649 0,-0.74161 -0.85268,-1.34837 -1.89485,-1.34837 -1.04217,0 -1.89486,-0.56845 -1.89486,-1.26323 0,-0.69478 0.85269,-1.26324 1.89486,-1.26324 2.17659,0 2.53067,-1.9844 0.57027,-3.19599 -0.90207,-0.55752 -0.84228,-1.39977 0.18745,-2.64051 1.20557,-1.45263 1.02598,-2.21399 -0.8861,-3.75661 -1.71007,-1.37963 -1.94505,-2.12337 -0.81905,-2.59225 2.22576,-0.92684 1.96066,-3.03407 -0.63161,-5.02085 -1.93973,-1.48665 -1.97844,-1.86387 -0.31582,-3.07772 1.42776,-1.0424 1.50561,-1.54135 0.31582,-2.02412 -0.86848,-0.35241 -1.57906,-1.47959 -1.57906,-2.50486 0,-1.02528 0.56846,-1.51281 1.26324,-1.08341 0.69478,0.4294 1.26323,-0.10548 1.26323,-1.18868 0,-1.08317 -0.85267,-1.96942 -1.89484,-1.96942 -1.04217,0 -1.89486,-0.56845 -1.89486,-1.26323 0,-0.69478 0.55936,-1.26324 1.24302,-1.26324 1.82685,0 0.88296,-9.4391 -1.19417,-11.94186 -1.52252,-1.83454 -1.52511,-2.30457 -0.0178,-3.23612 1.45805,-0.90112 1.3433,-1.55402 -0.66261,-3.77055 -2.07525,-2.29313 -2.15931,-2.85567 -0.58139,-3.89083 1.56357,-1.02575 1.45967,-1.51726 -0.68185,-3.22594 -1.75183,-1.39772 -2.04232,-2.19729 -0.94743,-2.60773 1.8893,-0.70822 2.12149,-7.47645 0.29521,-8.60515 -0.70611,-0.4364 -0.95679,-1.32263 -0.55706,-1.96941 0.39973,-0.64676 0.27906,-1.88652 -0.26813,-2.75499 -0.54721,-0.86848 -1.08101,-4.42132 -1.18625,-7.89522 -0.10523,-3.4739 -0.6211,-15.83782 -1.14634,-27.47538 -0.70019,-15.51351 -0.5721,-21.15919 0.48007,-21.15919 0.97744,0 1.43509,4.10704 1.43509,12.87904 0,12.2556 0.16431,13.05055 3.39442,16.42206 2.55203,2.66374 2.89488,3.54302 1.38149,3.54302 -1.39099,0 -1.80879,0.7806 -1.35223,2.52647 0.41363,1.58175 0.0388,2.52648 -1.00254,2.52648 -1.22581,0 -1.29181,0.3714 -0.25094,1.41226 0.797,0.79701 1.11023,3.27356 0.71899,5.68457 -0.44534,2.74431 -0.18239,4.27229 0.73523,4.27229 0.78568,0 1.42851,0.85268 1.42851,1.89485 0,1.04217 -0.602,1.89485 -1.33779,1.89485 -0.73578,0 -0.9322,0.65625 -0.43649,1.45833 1.07204,1.73458 1.65985,5.45741 2.4261,15.36537 0.31262,4.04218 0.97366,8.00516 1.469,8.8066 0.49531,0.80147 1.0343,3.74723 1.19774,6.54617 0.16345,2.79893 0.54771,7.07858 0.85394,9.5103 0.54446,4.32366 1.77585,15.80621 2.77712,25.89634 0.27577,2.77912 0.53029,8.32156 0.5656,12.31655 0.0598,6.7638 0.26846,7.2636 3.03275,7.2636 3.42893,0 12.49738,-6.19437 15.22048,-10.39662 3.51505,-5.42434 4.40335,-14.32954 5.07446,-50.87031 0.99495,-54.17396 -0.95374,-94.44409 -6.29626,-130.11326 -5.36409,-35.81311 -9.23469,-51.45995 -25.93664,-104.84856 -3.47766,-11.11647 -7.84959,-25.18576 -9.71541,-31.26508 -2.31157,-7.531638 -4.00081,-11.05193 -5.30196,-11.048983 -1.05025,0.0021 -5.89006,1.626487 -10.75512,3.609109 -4.86506,1.982622 -12.11288,4.554608 -16.10625,5.715518 l -7.26073,2.110746 0,6.2187 c 0,8.58336 -2.416,19.22573 -4.22428,18.60772 -0.96072,-0.32836 -1.45643,-4.38321 -1.44901,-11.8529 l 0.0113,-11.35382 -6.01163,1.92245 c -6.66606,2.13172 -6.63903,2.05177 -4.61701,13.6631 0.76703,4.40467 1.00958,8.99889 0.53901,10.20936 -1.58512,4.07736 -6.66731,-3.64665 -7.66771,-11.65352 -0.48037,-3.84397 -1.07945,-6.98902 -1.33141,-6.98902 -0.25194,0 -4.13372,1.84748 -8.62617,4.10551 -7.82544,3.9333 -11.18961,8.01035 -8.15651,9.8849 0.81105,0.50125 0.54869,1.11344 -0.67911,1.58459 -1.10043,0.42227 -2.00077,1.37407 -2.00077,2.1151 0,0.93423 0.80779,0.91501 2.63466,-0.0627 1.44906,-0.77551 2.88843,-1.15625 3.19859,-0.84609 0.31016,0.31017 -1.14076,1.27004 -3.22427,2.13305 -3.53365,1.46369 -6.24545,5.66145 -4.67311,7.23378 0.38116,0.38116 2.73937,-0.51436 5.24048,-1.99004 5.17936,-3.05591 7.3597,-3.57397 3.69707,-0.87845 -2.24534,1.65247 -2.27071,1.87497 -0.30088,2.63881 1.75486,0.68049 1.88004,1.26838 0.67942,3.19086 -2.18079,3.49202 -0.0267,4.61591 4.19871,2.1908 2.03948,-1.1705 3.70815,-1.67249 3.70815,-1.11554 0,0.55693 -2.28999,2.04526 -5.08885,3.30738 -2.79888,1.26211 -4.85954,2.9117 -4.57923,3.66575 0.52903,1.42323 1.02752,1.43863 5.24676,0.16227 1.98138,-0.59938 1.91324,-0.44165 -0.31581,0.73107 -2.95662,1.55551 -3.73252,4.19968 -1.61615,5.50766 0.67438,0.4168 2.91997,-0.11811 4.99021,-1.18867 2.07024,-1.07057 4.21865,-1.92136 4.77423,-1.89065 0.55559,0.0307 -1.12154,1.18119 -3.72697,2.55665 -2.60542,1.37544 -4.73714,2.75129 -4.73714,3.05743 0,1.18159 6.84297,12.92038 10.73358,18.41296 7.01805,9.90777 18.04928,35.07849 21.51879,49.10091 3.69672,14.94072 3.22061,17.9829 -3.67761,23.49836 -2.16791,1.73336 -4.68531,3.76477 -5.59424,4.51423 -0.9089,0.74948 -3.13989,0.9894 -4.95773,0.53315 -2.81156,-0.70566 -3.0744,-0.55149 -1.75998,1.03228 2.70251,3.25633 -0.60508,3.39976 -3.43175,0.14881 -2.94762,-3.39007 -6.75626,-4.55523 -3.9884,-1.22015 1.27898,1.54108 1.21882,1.89486 -0.32227,1.89486 -1.04217,0 -2.60251,-0.85269 -3.46744,-1.89486 -1.26782,-1.52763 -1.23659,-1.89861 0.16114,-1.91419 1.36175,-0.0152 1.32718,-0.28207 -0.16114,-1.2439 -3.10756,-2.00825 -3.79862,-1.45115 -2.48518,2.00347 0.94417,2.48335 0.86094,3.1412 -0.34707,2.74332 -0.874,-0.28785 -1.77643,-1.80131 -2.0054,-3.36327 -0.27091,-1.84803 -1.0429,-2.59947 -2.21034,-2.15149 -1.17314,0.45017 -2.40525,-0.77455 -3.56029,-3.53892 -2.81754,-6.74331 -5.00243,-7.15926 -3.91893,-0.74605 0.58461,3.46026 0.4608,5.09647 -0.34781,4.59672 -0.69053,-0.42676 -1.63819,-3.32774 -2.10589,-6.44659 -0.4677,-3.11887 -1.4747,-6.05652 -2.23776,-6.52813 -0.95833,-0.59227 -1.15565,0.57069 -0.63806,3.76026 0.41215,2.53977 0.28119,4.61774 -0.29103,4.61774 -0.57221,0 -1.41643,-2.5077 -1.87606,-5.57267 -0.84927,-5.66342 -4.50413,-9.30971 -4.50413,-4.49363 0,1.36776 0.71057,2.53172 1.57905,2.58656 1.26323,0.0798 1.26323,0.22716 0,0.73689 -0.86848,0.35043 -1.62393,1.58459 -1.67878,2.74255 -0.0549,1.15797 -0.3681,1.4499 -0.69609,0.64873 -0.96025,-2.34549 -15.26894,4.37522 -16.10264,7.56334 -0.37764,1.4441 -0.52967,2.7826 -0.33784,2.97445 0.19186,0.19183 4.1485,-1.66885 8.79255,-4.13485 4.64407,-2.46601 8.44375,-3.95505 8.44375,-3.309 0,0.64606 -4.21607,3.31462 -9.36906,5.93013 -8.83713,4.48551 -10.76832,6.56454 -10.82546,11.65424 -0.0105,0.92551 2.74509,0.0203 6.93055,-2.27666 3.82128,-2.09715 6.94779,-3.23135 6.94779,-2.52043 0,0.7109 -3.39051,2.87231 -7.53446,4.80312 -4.14396,1.93081 -7.5547,4.24113 -7.57942,5.13405 -0.0316,1.14074 0.61241,1.28458 2.16572,0.4837 6.79915,-3.5056 11.85318,-5.51811 12.42402,-4.94725 0.35683,0.35681 -3.07423,2.39096 -7.62458,4.52032 -4.55033,2.12936 -8.27333,4.46988 -8.27333,5.20117 0,1.92681 0.81381,1.69948 7.09571,-1.98195 6.64623,-3.89496 9.10176,-2.85946 3.64179,1.53574 -2.08434,1.67787 -3.62639,3.88457 -3.42677,4.90382 0.21417,1.0935 -0.95095,2.18291 -2.84228,2.65761 -2.71384,0.68113 -3.20522,1.52583 -3.20522,5.50991 0,5.65267 0.83047,6.71028 3.95579,5.03765 3.5429,-1.89611 2.87526,0.72418 -0.7977,3.13081 -1.73695,1.1381 -3.15809,2.71273 -3.15809,3.49916 0,0.78644 1.21247,0.347 2.69435,-0.97654 2.67531,-2.38944 2.68786,-2.38559 1.77532,0.54425 -0.83739,2.68855 -0.68396,2.82489 1.72697,1.5346 1.70509,-0.91254 2.646,-0.95965 2.646,-0.13249 0,1.6635 -5.73244,3.10486 -7.64565,1.92243 -1.06768,-0.65986 -1.27437,0.4373 -0.75105,3.98658 1.35997,9.22341 3.18222,33.91687 6.60717,89.53379 1.10867,18.00324 6.91709,46.37125 11.38065,55.58237 l 3.67286,7.57942 6.22788,-0.0937 c 5.69992,-0.0857 6.6367,-0.55433 11.05024,-5.52776 2.6523,-2.98878 5.48554,-7.64759 6.29608,-10.35295 1.30807,-4.36595 1.20193,-5.13953 -0.94436,-6.88255 -2.3336,-1.89512 -2.31476,-1.94146 0.53901,-1.32659 2.6031,0.56085 2.86484,0.26965 2.18659,-2.43272 -0.4384,-1.74674 -0.21565,-3.06986 0.51682,-3.06986 2.046,0 1.49449,-2.7223 -0.92335,-4.55769 -2.1054,-1.59823 -2.1054,-1.68006 0,-1.71832 1.21585,-0.0221 2.21065,-0.97231 2.21065,-2.11158 0,-1.13926 -0.9948,-2.82655 -2.21065,-3.74952 -2.1054,-1.59822 -2.1054,-1.68006 0,-1.71831 2.57778,-0.0469 2.95613,-3.79763 0.63161,-6.26162 -1.26323,-1.33903 -1.26323,-1.78958 0,-2.25276 1.85568,-0.68041 2.15299,-5.42139 0.33997,-5.42139 -0.73759,0 -0.93077,-2.24919 -0.47732,-5.55754 0.66068,-4.8202 0.4014,-5.7504 -1.9544,-7.01118 -1.49388,-0.7995 -2.37671,-2.00284 -1.96186,-2.6741 0.41486,-0.67125 1.28346,-0.89341 1.93024,-0.49367 0.64677,0.39972 1.17594,0.18558 1.17594,-0.47586 0,-0.66146 -0.88871,-1.54368 -1.97491,-1.96049 -1.08621,-0.41682 -1.61539,-1.33959 -1.17595,-2.05061 0.43943,-0.71103 1.32814,-0.96572 1.97492,-0.56599 0.64677,0.39973 1.17594,-0.72791 1.17594,-2.50586 0,-2.03131 -0.70417,-3.23265 -1.89485,-3.23265 -1.04217,0 -1.89486,-0.56845 -1.89486,-1.26324 0,-0.69478 0.62783,-1.26323 1.39517,-1.26323 0.92964,0 1.1399,-2.00219 0.63013,-6.00036 -1.73643,-13.61903 -2.38438,-31.89671 -1.13076,-31.89671 1.47274,0 2.28359,5.93092 4.83579,35.3706 0.45174,5.21085 1.31748,14.02192 1.92387,19.58015 0.60637,5.55824 1.09951,16.64313 1.09586,24.6331 -0.008,19.01818 3.3604,55.2931 5.96878,64.26557 1.31398,4.51998 3.59989,8.62493 6.31471,11.33975 3.80839,3.80839 4.74676,4.16297 8.93666,3.37694 2.57482,-0.48303 6.25902,-1.69403 8.18714,-2.6911 z m -13.3137,-7.65537 c -1.80341,-1.80341 -0.66188,-2.41918 3.56903,-1.92525 2.42616,0.28324 4.09797,1.02179 3.71515,1.64119 -0.81102,1.31227 -6.05162,1.51664 -7.28418,0.28406 z m 46.21336,-21.44609 c -0.86847,-0.3633 -1.57904,-1.53545 -1.57904,-2.60479 0,-1.58192 0.35188,-1.65223 1.88812,-0.37726 1.03847,0.86186 3.06053,1.26042 4.49346,0.88569 1.65736,-0.43339 2.42819,-0.14292 2.11846,0.79834 -0.53223,1.61742 -4.41611,2.34582 -6.921,1.29802 z m -89.75289,-15.86146 c -0.83374,-0.83375 -1.4978,-2.39699 -1.47571,-3.47391 0.0339,-1.64761 0.30621,-1.60755 1.71832,0.25265 0.92297,1.21587 2.32603,2.21067 3.11791,2.21067 0.79188,0 1.43978,0.56845 1.43978,1.26323 0,1.74268 -2.9608,1.58685 -4.8003,-0.25264 z m 62.51437,0.70004 c -1.64738,-1.64738 -0.86087,-2.97387 1.76326,-2.97387 1.47009,0 2.41103,0.66215 2.13171,1.50009 -0.61532,1.84602 -2.72461,2.64413 -3.89497,1.47378 z m -84.6631,-156.66754 c -1.28408,-1.28408 -1.00438,-2.94755 0.49564,-2.94755 0.73579,0 1.01646,0.51992 0.62374,1.15535 -0.39273,0.63543 6e-5,1.44324 0.87287,1.79512 0.87757,0.3538 0.97519,0.68436 0.21842,0.73951 -0.75269,0.0548 -1.74749,-0.27924 -2.21067,-0.74243 z m 3.25476,-29.79131 c 0.53365,-1.62753 9.71824,-5.23865 10.73586,-4.22103 0.55708,0.55709 -8.90406,5.80009 -10.4664,5.80009 -0.43297,0 -0.55422,-0.71058 -0.26946,-1.57906 z m 38.8531,-132.95554 c 1.73694,-0.99293 3.72654,-1.80533 4.42132,-1.80533 0.69478,0 -0.15791,0.8124 -1.89485,1.80533 -1.73695,0.99293 -3.72655,1.80532 -4.42133,1.80532 -0.69478,0 0.15791,-0.81239 1.89486,-1.80532 z m -6.31618,0.008 c 0,-0.85575 10.26073,-5.96004 10.83221,-5.38858 0.2648,0.26482 -2.06411,1.71822 -5.17537,3.2298 -3.11125,1.51198 -5.65684,2.48343 -5.65684,2.1592 z m 64.38285,-4.32248 c -4.8601,-5.10862 -13.14098,-19.05622 -11.31417,-19.05622 0.56815,0 3.08,3.66037 5.58189,8.13416 5.33204,9.53457 13.35386,16.78116 13.35386,12.06332 0,-2.11451 -10.07927,-16.20347 -13.53882,-18.92474 -1.7957,-1.4125 -2.44894,-2.518176 -1.47456,-2.495796 0.96217,0.0221 2.64414,0.73265 3.73771,1.579036 3.15398,2.44104 13.80214,18.96734 13.80214,21.42134 0,3.90149 -5.16607,2.51647 -10.14805,-2.72069 z M 59.779178,485.6074 c 4.928829,-3.87702 16.038229,-20.89581 16.614972,-25.45292 0.272404,-2.15249 1.108147,-4.29238 1.857196,-4.75532 0.749035,-0.46293 1.189779,-1.61645 0.979399,-2.56338 -0.210367,-0.9469 0.328087,-1.81856 1.196562,-1.93699 0.868475,-0.11836 1.932877,-0.28637 2.365332,-0.37322 0.43247,-0.0869 0.07857,-1.01059 -0.786287,-2.05276 -1.560994,-1.88088 -1.460793,-2.03332 1.579044,-2.40235 0.868475,-0.10548 1.443625,-1.45552 1.278129,-3.00019 -0.184925,-1.72591 0.390934,-2.80849 1.493915,-2.80849 1.734411,0 4.038944,-4.54954 3.431289,-6.77394 -0.163677,-0.59914 0.50057,-1.73607 1.476104,-2.52647 1.396406,-1.1314 6.797965,-14.20551 8.944197,-21.64886 0.20034,-0.69478 0.82427,-2.40015 1.38649,-3.78971 3.79239,-9.37286 5.24755,-14.10226 4.76126,-15.47464 -0.30772,-0.86847 -0.005,-1.57904 0.67207,-1.57904 0.67736,0 1.59704,-1.56326 2.04374,-3.47389 0.78645,-3.36389 2.99732,-8.59536 6.67427,-15.79305 0.97679,-1.91206 1.44966,-4.0045 1.05082,-4.64984 -0.39887,-0.64535 -0.11244,-1.55209 0.63657,-2.01497 2.46476,-1.52331 3.91344,-7.06699 2.34164,-8.96089 -1.43856,-1.73336 -1.29912,-1.91433 1.70657,-2.21491 0.86847,-0.0869 1.57904,-1.29481 1.57904,-2.68437 0,-1.38956 0.43673,-2.85067 0.97051,-3.24691 1.59661,-1.18521 3.41177,-8.75383 2.0994,-8.75383 -0.64628,0 -1.17505,-0.56845 -1.17505,-1.26323 0,-0.69478 0.91895,-1.26324 2.04211,-1.26324 1.4971,0 1.88099,-0.84287 1.43841,-3.15809 -0.33204,-1.73695 -0.12177,-3.15809 0.46741,-3.15809 1.42014,0 3.85675,-5.91265 11.19247,-27.15957 3.3583,-9.72691 7.51313,-21.38026 9.23295,-25.89633 4.23355,-11.11699 20.06258,-75.73525 21.81586,-89.05811 1.55068,-11.78333 4.49881,-22.88366 14.42656,-54.31912 3.51074,-11.11648 6.7081,-22.21052 7.10526,-24.65343 l 0.72209,-4.44165 -10.53589,-1.51367 c -5.79475,-0.832506 -11.67281,-1.840136 -13.06237,-2.239176 -2.22504,-0.63896 -2.99565,0.67444 -6.4589,11.008256 -5.87803,17.5392 -10.22747,29.96035 -17.60006,50.26246 -7.88534,21.71411 -22.0154,65.46586 -26.31434,81.4787 -1.67874,6.25302 -6.84689,21.60133 -11.48478,34.10737 -4.63789,12.50602 -9.219262,24.86994 -10.180832,27.47537 -1.32,3.57663 -1.37519,4.74697 -0.22529,4.7773 0.93987,0.0247 0.75504,0.62939 -0.48271,1.57904 -1.10316,0.84638 -1.76636,2.24945 -1.47378,3.11792 0.29258,0.86848 -0.14469,1.57905 -0.97171,1.57905 -0.869774,0 -1.17117,0.86646 -0.714939,2.05536 0.468279,1.22032 -0.09802,2.70374 -1.393905,3.65132 -1.801235,1.31708 -1.934216,2.14114 -0.761062,4.71593 1.45996,3.20425 1.058693,4.29373 -12.141803,32.96663 -1.550609,3.36808 -2.531449,6.87388 -2.179638,7.79067 0.351799,0.91679 -0.185682,1.9836 -1.194401,2.37069 -2.058809,0.79003 -4.715533,6.55711 -4.573078,9.92699 0.05142,1.21587 -0.401367,2.21066 -1.006142,2.21066 -1.292504,0 -3.162749,4.98453 -2.725368,7.26361 0.166659,0.86847 -0.213119,1.57904 -0.843967,1.57904 -0.630847,0 -2.124434,2.70017 -3.319101,6.00037 -5.002868,13.82025 -18.520095,40.73935 -20.456964,40.73935 -1.893691,0 -3.499074,5.34721 -6.32569,21.06959 -3.056449,17.00075 -0.527136,24.37146 10.294612,29.99975 5.133044,2.66965 8.494224,2.48945 12.511806,-0.67078 z m -13.143424,-9.97502 c -2.44906,-2.44906 -3.551309,-8.84265 -1.524472,-8.84265 0.551099,0 1.545897,1.84748 2.210663,4.10551 1.024736,3.48075 1.752751,4.06721 4.784049,3.85381 2.991279,-0.2106 3.327161,0.0474 2.05598,1.57904 -2.090555,2.51897 -4.537757,2.29276 -7.52622,-0.69571 z m 5.890443,-45.79229 c 7.52939,-19.43168 31.144985,-66.63568 33.337027,-66.63568 0.442916,0 -4.717704,10.94278 -11.468044,24.31728 -6.750339,13.37451 -14.469568,29.57551 -17.153855,36.00222 -2.684288,6.42671 -5.311363,11.68493 -5.837968,11.68493 -0.526592,0 -0.02135,-2.41594 1.12284,-5.36875 z m 18.111034,-28.21076 c 0,-1.73165 13.043085,-28.31903 13.892598,-28.31903 0.475785,0 -1.886945,5.70258 -5.250525,12.6724 -3.36358,6.96983 -6.115602,13.18931 -6.115602,13.82106 0,0.63173 -0.568455,1.49993 -1.263236,1.92933 -0.694779,0.4294 -1.263235,0.38271 -1.263235,-0.10372 z m 31.786299,76.36505 c 6.16559,-4.35691 14.74539,-14.99412 16.96265,-21.03022 1.20511,-3.28068 4.37252,-11.5677 7.03872,-18.41559 2.66621,-6.8479 4.84763,-13.23065 4.84763,-14.18392 0,-0.95326 4.02176,-9.6824 8.93726,-19.39811 4.91547,-9.71571 8.93517,-18.11281 8.93267,-18.66022 -0.002,-0.5474 0.71941,-1.84798 1.60429,-2.89015 2.13744,-2.51735 5.83429,-12.16748 4.98613,-13.01563 -0.36817,-0.36818 0.55883,-1.89766 2.06001,-3.39883 1.56708,-1.56709 2.4095,-3.56309 1.97818,-4.68709 -0.41319,-1.07673 0.13676,-2.60701 1.22211,-3.40064 1.08535,-0.79363 2.06765,-2.85311 2.18292,-4.57662 0.1152,-1.72354 0.88965,-3.70214 1.72091,-4.39692 3.9953,-3.33935 10.89453,-30.29253 18.91607,-73.89929 1.72538,-9.37953 6.3016,-29.27548 10.16936,-44.21325 3.86778,-14.93776 9.74967,-38.24446 13.07086,-51.79265 3.32122,-13.54821 8.04992,-32.30726 10.50824,-41.68678 5.92897,-22.62157 7.3988,-29.26713 6.64078,-30.02514 -0.34697,-0.34697 -1.9285,-0.80662 -3.5145,-1.02142 -1.58601,-0.21481 -7.67658,-1.26716 -13.53461,-2.33859 -5.85803,-1.07139 -10.70198,-1.81432 -10.76435,-1.65092 -0.0624,0.1634 -1.36968,5.12896 -2.90515,11.0346 -1.53545,5.90562 -5.84764,20.45382 -9.58264,32.32931 -3.73498,11.87549 -7.47548,25.51844 -8.31222,30.31766 -4.79762,27.51725 -18.87192,86.16945 -23.76759,99.04718 -1.71685,4.51607 -5.30923,14.46405 -7.98307,22.10662 -2.67382,7.64258 -7.44074,21.19363 -10.59314,30.11348 -4.33362,12.26214 -5.42724,16.78663 -4.48369,18.54967 2.13433,3.98803 1.44207,7.12723 -4.94287,22.41446 -3.40493,8.15233 -11.4353,28.74959 -17.84528,45.77168 -11.887458,31.56795 -17.233282,43.78851 -18.570214,42.45155 -0.412321,-0.41231 0.212475,-2.60055 1.388447,-4.86273 4.447852,-8.55622 10.637505,-25.60617 9.451665,-26.03547 -1.74275,-0.6309 -2.44268,0.34223 -2.69965,3.75342 -0.12266,1.62799 -1.22905,3.96607 -2.458707,5.19573 -1.229659,1.22966 -2.23575,3.30306 -2.23575,4.60755 0,1.30448 -0.878555,3.10093 -1.952343,3.99209 -1.073788,0.89116 -1.651833,2.40343 -1.284534,3.36059 0.367298,0.95714 -0.207954,2.07634 -1.278344,2.4871 -1.07039,0.41073 -1.638846,1.54765 -1.263236,2.52647 0.375611,0.9788 -0.124302,2.08941 -1.110877,2.46799 -0.986586,0.37859 -1.484643,1.49399 -1.106784,2.47866 0.37786,0.98466 0.07554,1.7903 -0.671737,1.7903 -0.747305,0 -1.031533,0.85269 -0.631618,1.89486 0.461409,1.20242 -0.01857,1.89485 -1.313588,1.89485 -1.546542,0 -1.75773,0.53532 -0.872139,2.21066 0.64271,1.21587 1.85817,4.06965 2.701025,6.34177 0.842856,2.27209 3.241248,5.56893 5.329768,7.3263 4.297086,3.61576 9.057024,3.33567 15.028936,-0.88437 z m -6.521592,-9.76965 c 0,-0.69261 1.27903,-1.44093 2.84228,-1.66295 1.949192,-0.27683 3.973292,-2.51422 6.441792,-7.12058 4.815,-8.98508 5.94165,-7.31625 1.31252,1.94412 -2.9593,5.91993 -4.30525,7.37479 -7.122692,7.69898 -1.91064,0.21984 -3.4739,-0.16697 -3.4739,-0.85957 z m 8.191172,-43.12178 c 3.06168,-10.44593 15.35926,-37.50595 16.51815,-36.34707 0.30014,0.30014 -1.12249,3.62703 -3.1614,7.39309 -2.03891,3.76604 -5.76007,12.22869 -8.26924,18.80588 -4.38129,11.48444 -7.02454,16.757 -5.08751,10.1481 z m 12.65245,-20.36939 c 0.4964,-1.65026 1.714,-3.85265 2.70579,-4.89418 1.56823,-1.6469 1.61666,-1.35846 0.37166,2.21298 -1.68839,4.84334 -4.45207,7.25117 -3.07745,2.6812 z m 86.5314,-279.01745 c 0,-0.69478 0.85386,-1.26324 1.89747,-1.26324 1.0436,0 4.45434,-3.47325 7.57942,-7.71837 3.12506,-4.24511 5.68194,-7.16405 5.68194,-6.48654 0,2.4174 -12.09992,16.73139 -14.1434,16.73139 -0.55849,0 -1.01543,-0.56846 -1.01543,-1.26324 z m 1.37999,-3.78971 c -0.0895,-2.76432 4.38774,-12.14475 6.38369,-13.37507 1.04767,-0.64579 0.81217,0.31935 -0.60766,2.49038 -1.27504,1.94963 -3.08246,5.62261 -4.01651,8.16218 -0.93404,2.53955 -1.72582,3.76468 -1.75952,2.72251 z M 17.523732,463.03084 c 2.078415,-1.11232 6.801552,-7.05911 14.849928,-18.69714 3.014422,-4.35891 14.262094,-25.55571 14.262094,-26.87767 0,-0.42465 3.48595,-7.26253 7.746565,-15.1953 4.260616,-7.93278 8.45375,-16.42721 9.318081,-18.87651 0.864331,-2.44932 5.663224,-13.66228 10.664197,-24.9177 5.000961,-11.25544 8.693385,-21.11046 8.205372,-21.90009 -0.488013,-0.78962 -0.334605,-1.79846 0.340897,-2.24186 1.723483,-1.1313 8.036199,-20.46895 7.150066,-21.90272 -0.400485,-0.648 0.113564,-1.85095 1.142445,-2.67319 1.028841,-0.82226 3.882351,-6.89533 6.341141,-13.49574 11.573292,-31.06758 17.546452,-48.49081 21.003972,-61.26692 2.06826,-7.64258 8.97232,-29.24391 15.34235,-48.00296 6.37003,-18.75905 12.97784,-38.37078 14.68402,-43.58163 1.70616,-5.21085 4.74952,-13.74088 6.763,-18.95564 4.82047,-12.48459 7.39402,-21.16838 6.52967,-22.03271 -0.38414,-0.38414 -0.0352,-0.69842 0.77535,-0.69842 2.25225,0 1.75388,-5.938393 -0.57332,-6.831423 -1.57418,-0.604065 -1.89333,-0.197559 -1.3815,1.759697 0.36609,1.3999 0.15036,2.54526 -0.47937,2.54526 -0.62974,0 -1.14966,-1.27902 -1.1554,-2.84228 -0.0132,-3.610085 -9.91402,-9.573924 -11.56805,-6.968119 -0.81455,1.28325 -1.01901,1.278488 -1.03454,-0.02412 -0.0455,-3.820761 -5.11201,1.37257 -6.84921,7.020659 -1.01025,3.28457 -1.8764,4.789266 -1.92479,3.34376 -0.0483,-1.44551 1.31366,-5.396815 3.02679,-8.780678 1.71315,-3.383885 2.99217,-6.210321 2.84229,-6.280984 -0.14989,-0.07058 -1.77061,-1.063772 -3.60161,-2.206891 -3.69954,-2.309646 -4.87271,-1.805472 -4.90089,2.106172 -0.0289,4.010948 -5.83717,21.855147 -8.68489,26.681637 -1.38825,2.35293 -5.48146,11.83145 -9.09603,21.06336 -3.61455,9.23191 -8.50879,20.66894 -10.87607,25.41561 -12.741282,25.54774 -34.765908,79.24109 -47.75874,116.43001 -4.36928,12.50603 -11.796006,33.5389 -16.503833,46.73972 -14.746974,41.35067 -28.32053,82.84852 -31.609212,96.63752 -1.7399185,7.29519 -4.2723905,16.8767 -5.6277405,21.29227 -3.6515463,11.89634 -3.3071504,14.7959 2.440066,20.54313 5.1815915,5.18158 6.4933975,5.65396 10.1969015,3.6719 z m -3.416294,-13.49979 c -1.813603,-0.7318 -2.161599,-4.21632 -0.421074,-4.21632 0.636873,0 1.415291,0.71056 1.729799,1.57904 0.454133,1.254 1.141408,1.2421 3.338719,-0.0577 2.577505,-1.52479 2.672223,-1.45993 1.383837,0.94743 -1.36278,2.54636 -2.927878,2.99988 -6.031281,1.74762 z M 156.73669,110.55729 c 0,-1.73695 0.28673,-2.44752 0.63718,-1.57905 0.35043,0.86847 0.35043,2.28962 0,3.15809 -0.35045,0.86848 -0.63718,0.15791 -0.63718,-1.57904 z m -19.90767,-1.77312 c -0.40803,-1.06328 -0.4489,-2.66257 -0.0908,-3.55398 0.39761,-0.98981 0.68988,-0.73113 0.75078,0.66451 0.0548,1.25688 0.66818,1.93389 1.36296,1.50449 0.69478,-0.4294 1.26324,-0.21226 1.26324,0.48252 0,2.21787 -2.51622,2.9089 -3.28616,0.90246 z m 3.3859,-5.27996 c 0.0606,-1.47159 0.35994,-1.77092 0.76319,-0.7632 0.36492,0.9119 0.32004,2.00144 -0.0996,2.4212 -0.41977,0.41978 -0.71832,-0.32633 -0.66347,-1.658 z m 18.83279,337.91263 c 7.23042,-7.86472 9.40234,-12.00978 25.09582,-47.89478 14.11932,-32.28547 19.5414,-47.28738 21.6869,-60.00369 2.13354,-12.64535 6.89711,-30.24733 10.76875,-39.79192 5.04186,-12.42942 22.75654,-82.63734 26.6145,-105.48018 1.17341,-6.94779 3.44782,-19.11499 5.05422,-27.03821 1.60643,-7.92322 2.62351,-14.88681 2.26021,-15.47464 -0.36329,-0.58782 -0.14852,-1.06877 0.47731,-1.06877 0.97753,0 3.09304,-5.55168 4.771,-12.52046 0.26574,-1.10372 1.85188,-6.69652 3.52472,-12.42844 1.67285,-5.73194 2.68413,-10.43204 2.24729,-10.44469 -0.43684,-0.0127 -5.19978,-0.27384 -10.58432,-0.58046 l -9.79008,-0.55745 -0.0962,3.42272 c -0.13561,4.82991 -2.92209,12.00822 -4.91984,12.67414 -1.34566,0.44855 -1.51139,-1.12162 -0.82522,-7.81897 l 0.85861,-8.38022 -3.62213,0 c -4.4028,0 -5.95774,2.88645 -7.81379,14.50494 -0.71781,4.49326 -1.91576,9.74715 -2.66212,11.67532 -0.74636,1.92818 -5.59059,19.99099 -10.76494,40.1396 -5.17433,20.14861 -11.97532,46.58182 -15.11328,58.74046 -3.13794,12.15864 -7.10303,29.49655 -8.81131,38.52869 -6.86581,36.30179 -10.51229,52.46985 -17.30789,76.74155 -0.72947,2.60543 -1.71353,4.73714 -2.18681,4.73714 -0.47329,0 -1.49089,1.38355 -2.26137,3.07454 -1.04873,2.30174 -1.02705,3.19913 0.0863,3.57026 1.04439,0.34812 0.83694,1.48806 -0.69676,3.82881 -1.20114,1.8332 -2.1839,4.20578 -2.1839,5.2724 0,1.06661 -0.50765,1.93929 -1.12808,1.93929 -0.62046,0 -1.4816,0.9212 -1.91363,2.0471 -0.60409,1.57418 -0.19756,1.89333 1.75969,1.3815 1.39988,-0.36609 2.54524,-0.19029 2.54524,0.39065 0,0.58092 -3.90608,9.7651 -8.6802,20.40931 -4.77411,10.64419 -9.12552,20.48998 -9.66977,21.87954 -0.82124,2.09674 -1.07421,2.17784 -1.48728,0.47684 -0.27376,-1.12728 3.22495,-10.09303 7.77491,-19.92387 8.47202,-18.30504 9.17805,-20.3449 7.04184,-20.3449 -1.49142,0 -5.26597,6.97775 -4.29811,7.94561 0.37758,0.37758 -0.49777,1.87079 -1.94523,3.31825 -1.44746,1.44746 -2.63174,3.49215 -2.63174,4.54373 0,1.0516 -0.51306,2.89908 -1.14012,4.10552 -0.62706,1.20644 -1.88225,4.75157 -2.7893,7.87809 -0.90705,3.1265 -1.99646,5.96879 -2.4209,6.31618 -0.42442,0.34739 -2.08441,3.37758 -3.68884,6.73379 -1.60443,3.35618 -3.61784,6.37104 -4.47428,6.69969 -1.13479,0.43546 -1.2734,2.11631 -0.51103,6.19708 1.43415,7.67668 4.29893,12.79606 8.40836,15.0258 6.12997,3.32609 9.0768,2.47753 15.44275,-4.44689 z m -10.08988,-4.3877 c 0,-1.08317 0.54773,-1.63089 1.21717,-1.21716 1.80082,1.11298 5.83912,-3.4445 9.56212,-10.79149 4.09187,-8.07493 5.55426,-7.35963 1.89089,0.9249 -4.2174,9.53746 -12.67018,16.93185 -12.67018,11.08375 z m 6.58559,-35.29605 c 1.2516,-3.69305 5.39343,-10.7375 6.31317,-10.7375 0.58394,0 0.23776,1.56326 -0.76931,3.4739 -1.97167,3.74074 -6.24944,9.34551 -5.54386,7.2636 z m 91.94679,-282.40771 c 0,-2.25449 0.52624,-3.53903 1.26323,-3.08353 0.69478,0.4294 1.26324,-0.3562 1.26324,-1.74576 0,-1.38956 0.62936,-2.91543 1.39857,-3.39082 0.90304,-0.55812 1.16025,-0.025 0.72593,1.50448 -0.36995,1.30288 -1.04448,4.21634 -1.49894,6.47437 -1.04518,5.19303 -3.15203,5.35429 -3.15203,0.24126 z M 44.591284,430.7219 c 0.431381,-1.12418 0.2196,-1.63124 -0.496478,-1.18868 -0.68682,0.42447 -1.248759,1.30669 -1.248759,1.96046 0,1.81709 0.905438,1.41667 1.745237,-0.77178 z m 3.307706,-5.61895 c 0,-0.69478 -0.250676,-1.26324 -0.557061,-1.26324 -0.306398,0 -0.908393,0.56846 -1.337793,1.26324 -0.429398,0.69478 -0.178722,1.26324 0.557062,1.26324 0.735785,0 1.337792,-0.56846 1.337792,-1.26324 z m 55.96753,-9.70767 c 1.1918,-3.21564 1.91473,-6.0988 1.60653,-6.407 -1.27607,-1.27608 -3.25493,1.32521 -3.25493,4.27873 0,1.74555 -0.85268,4.02644 -1.89485,5.06861 -2.326762,2.32675 -2.477772,4.38526 -0.25927,3.53393 0.89958,-0.34519 2.6107,-3.25862 3.80252,-6.47427 z m -53.441059,4.02311 c 0,-1.04217 -0.223416,-1.89485 -0.496463,-1.89485 -0.273062,0 -0.823681,0.85268 -1.223596,1.89485 -0.399915,1.04217 -0.176512,1.89485 0.496464,1.89485 0.672977,0 1.223595,-0.85268 1.223595,-1.89485 z m 89.930099,-7.57941 c 1.14363,-2.48605 1.13081,-2.48724 -0.80231,-0.0745 -1.08051,1.34866 -1.91965,3.33826 -1.8648,4.42132 0.0861,1.70108 0.19539,1.7112 0.8023,0.0744 0.38642,-1.04217 1.22559,-3.03177 1.86481,-4.42132 z m -86.921627,1.19762 c 0.431382,-1.12418 0.219601,-1.63124 -0.496477,-1.18867 -0.686822,0.42447 -1.248759,1.30668 -1.248759,1.96046 0,1.81707 0.905436,1.41667 1.745236,-0.77179 z m 3.307707,-6.88218 c 0.743666,-1.38956 1.067901,-2.52647 0.720511,-2.52647 -0.347389,0 -1.240081,1.13691 -1.983747,2.52647 -0.743667,1.38956 -1.067902,2.52647 -0.720512,2.52647 0.34739,0 1.240081,-1.13691 1.983748,-2.52647 z m 58.07412,-18.84886 c 4.27501,-10.71424 8.51774,-20.94644 9.42827,-22.73823 3.14819,-6.19517 3.5776,-8.94234 1.3978,-8.94234 -1.94664,0 -5.18631,6.02613 -3.92028,7.29216 0.34406,0.34407 -0.48496,2.03742 -1.84231,3.76299 -1.35733,1.72556 -2.15514,3.64339 -1.77294,4.26186 0.38224,0.61844 -0.19398,2.01337 -1.28044,3.09983 -1.08646,1.08647 -1.97538,2.7225 -1.97538,3.63562 0,0.91313 -0.84919,3.28845 -1.88707,5.27852 -1.03789,1.99006 -1.89058,4.4994 -1.89486,5.57632 -0.004,1.0769 -0.66351,2.61373 -1.46493,3.41515 -0.80143,0.80144 -1.40791,3.18895 -1.34772,5.30559 0.0601,2.11665 -0.42102,3.84845 -1.06932,3.84845 -0.64833,0 -1.17876,1.51588 -1.17876,3.36862 0,1.85274 0.23291,3.13178 0.51758,2.84229 0.28466,-0.28949 4.01533,-9.29256 8.29036,-20.00683 z m 13.9303,-36.10189 c 0,-3.58536 -1.8495,-4.21785 -3.06572,-1.04842 -0.44629,1.163 -0.0819,2.57144 0.81227,3.13874 2.25747,1.4324 2.25345,1.43611 2.25345,-2.09032 z M 90.247599,330.26508 c 0.761693,-2.39989 -0.01007,-4.838 -1.13652,-3.58924 -1.338285,1.48392 -2.068005,6.21092 -0.958808,6.21092 0.694779,0 1.637683,-1.17975 2.095328,-2.62168 z M 229.96605,275.09372 c 1.5713,-2.00356 1.52662,-2.04825 -0.47694,-0.47694 -1.21587,0.95355 -2.21067,1.94835 -2.21067,2.21066 0,1.0397 1.03735,0.37052 2.68761,-1.73372 z m 65.13068,-28.04412 c 7.26729,-4.43116 7.77075,-7.36766 4.23414,-24.69596 -2.06044,-10.09561 -13.78053,-35.38086 -22.39646,-48.31877 -3.81714,-5.73192 -7.15557,-10.42169 -7.41872,-10.42169 -2.0291,0 -14.74209,6.72881 -13.55815,7.17616 0.83575,0.31577 4.19222,-0.60813 7.45883,-2.0531 3.2666,-1.44498 6.15842,-2.40809 6.42626,-2.14026 0.26783,0.26785 -3.23075,2.10661 -7.77463,4.08614 -4.54388,1.97953 -8.26161,4.27014 -8.26161,5.09026 0,0.93235 3.35638,0.081 8.95695,-2.2722 4.92631,-2.06982 9.25118,-3.46907 9.61081,-3.10944 0.35961,0.35962 -1.25508,1.43808 -3.5882,2.39658 -2.33314,0.9585 -6.94009,2.83928 -10.23769,4.17952 -3.82977,1.55653 -5.99735,3.21025 -6.00037,4.57793 -0.004,1.89372 0.81622,1.77808 7.09934,-1.00061 3.90721,-1.72796 7.74429,-2.89977 8.52683,-2.60402 0.78253,0.29575 0.28586,0.93632 -1.1037,1.42351 -12.55095,4.40039 -15.79045,6.38728 -15.79045,9.68481 0,2.14142 0.92534,1.92168 8.97211,-2.13062 4.93467,-2.48505 9.24844,-4.24195 9.58616,-3.90423 0.33775,0.33773 -3.84183,2.80713 -9.28791,5.48755 -7.39076,3.63753 -10.00434,5.58475 -10.30564,7.67805 -0.22201,1.54252 -0.0656,2.80457 0.34734,2.80457 0.41307,0 4.85813,-2.01232 9.87794,-4.47182 5.01981,-2.4595 7.99001,-3.54105 6.60045,-2.40345 -1.38956,1.1376 -6.07932,3.79018 -10.42169,5.89462 -4.34237,2.10444 -7.89523,4.27641 -7.89523,4.82661 0,0.55019 -0.34339,1.89524 -0.76311,2.989 -0.69243,1.80446 -0.33053,1.80791 3.90728,0.0372 2.56872,-1.07328 5.28043,-1.74807 6.02603,-1.49953 1.3485,0.4495 -12.6686,5.99645 -15.153,5.99645 -1.37523,0 -3.02639,6.28796 -2.06122,7.84962 0.31143,0.50392 3.74063,-0.48763 7.62041,-2.20346 3.87979,-1.71583 7.694,-3.09686 8.47603,-3.06895 0.78201,0.0279 -1.42203,1.30693 -4.8979,2.84228 -9.51413,4.20256 -10.01079,4.64456 -7.38016,6.56812 1.52886,1.11793 3.18583,1.28022 5.21077,0.51035 4.74347,-1.80347 6.29534,-1.20798 2.38073,0.91355 -3.5044,1.8992 -3.53174,1.99673 -1.26324,4.50511 2.90442,3.21154 19.59013,14.98745 26.30148,18.56222 6.2647,3.33687 12.69584,3.41498 17.93919,0.21787 z m -54.65905,-6.33415 c 6.91335,-2.96341 8.23868,-6.88719 1.69212,-5.00965 -2.25346,0.64627 -4.20244,1.17504 -4.33109,1.17504 -0.79186,0 -4.20409,4.17444 -4.20409,5.14318 0,1.57822 0.19582,1.54077 6.84306,-1.30857 z m -1.79011,-8.40503 c 0,-1.78372 -0.54976,-2.81833 -1.26324,-2.37737 -0.69478,0.4294 -1.26324,2.20186 -1.26324,3.93881 0,1.78373 0.54975,2.81832 1.26324,2.37737 0.69477,-0.4294 1.26324,-2.20186 1.26324,-3.93881 z m 3.36307,-3.3248 c -0.35043,-0.86847 -0.63716,-0.1579 -0.63716,1.57904 0,1.73696 0.28673,2.44753 0.63716,1.57906 0.35044,-0.86848 0.35044,-2.28962 0,-3.1581 z m 3.81602,0.079 c -0.40324,-1.00773 -0.70258,-0.7084 -0.76319,0.76321 -0.0548,1.33165 0.2437,2.07775 0.66348,1.65799 0.41975,-0.41977 0.46463,-1.50931 0.0996,-2.4212 z m -3.3894,-3.4783 c 0,-0.65377 -0.56845,-1.54001 -1.26323,-1.96941 -0.69477,-0.4294 -1.26324,0.10548 -1.26324,1.18869 0,1.08317 0.56847,1.96941 1.26324,1.96941 0.69478,0 1.26323,-0.53492 1.26323,-1.18869 z m 3.63976,-22.10895 c 1.94222,-7.7133 1.86121,-9.2926 -0.35778,-6.97491 -2.1595,2.25554 -4.03072,12.58724 -2.27973,12.58724 0.67336,0 1.86023,-2.52555 2.63751,-5.61233 z m 2.44847,-13.11934 c 0.22202,-1.50884 -0.20432,-2.74333 -0.94743,-2.74333 -0.74309,0 -1.35109,0.52197 -1.35109,1.15992 0,0.63796 -0.37481,2.13665 -0.83291,3.33045 -0.5846,1.52344 -0.30214,1.9955 0.94742,1.58341 0.97919,-0.32291 1.962,-1.82162 2.18401,-3.33045 z m 1.49119,-7.29981 c 0,-2.46749 -0.94409,-2.18992 -2.51126,0.73834 -1.09072,2.03803 -0.98259,2.36208 0.58718,1.75971 1.05825,-0.40609 1.92408,-1.53021 1.92408,-2.49805 z m 1.04005,-5.9699 c 0.24175,-1.24651 -0.40268,-2.10598 -1.57905,-2.10598 -1.17181,0 -1.98747,1.08007 -1.98747,2.63174 0,3.07857 2.95189,2.64341 3.56652,-0.52576 z m 0.85481,-4.63245 c 0.4294,-0.69478 0.0702,-1.26324 -0.79851,-1.26324 -0.90457,0 -0.59912,-0.71668 0.71497,-1.67756 1.26181,-0.92265 2.29419,-3.16293 2.29419,-4.97837 0,-1.81546 0.78164,-3.60076 1.73695,-3.96735 0.95533,-0.3666 1.73695,-1.51923 1.73695,-2.5614 0,-1.16532 -0.72952,-1.6149 -1.89484,-1.16773 -1.04217,0.39993 -1.89486,0.0838 -1.89486,-0.70252 0,-0.78632 1.34362,-1.94049 2.98581,-2.56486 1.64218,-0.62436 3.32033,-2.00702 3.72923,-3.07257 0.59434,-1.54883 0.18556,-1.72526 -2.03838,-0.87972 -1.53,0.58171 -3.35026,0.98364 -4.04504,0.89317 -1.13137,-0.1473 -5.25914,15.42913 -5.56362,20.99472 -0.13107,2.39565 1.77468,2.99014 3.03715,0.94743 z m 16.21186,-10.14882 c 0.57917,-0.50943 -0.0319,-3.04092 -1.35786,-5.62554 -2.25501,-4.3955 -2.54771,-4.56252 -4.52693,-2.58328 -3.17946,3.17944 -2.60967,4.84492 1.35786,3.96901 3.01471,-0.66556 2.86903,-0.44014 -1.10219,1.70545 -2.51684,1.35983 -4.87201,3.60399 -5.23369,4.98704 -0.63948,2.4454 -0.51345,2.459 4.5761,0.49411 2.87852,-1.11131 5.70754,-2.43736 6.28671,-2.94679 z m -8.22402,-16.81954 c 0.22464,-1.14734 0.0452,-2.08606 -0.39886,-2.08606 -1.71386,0 -5.69413,2.67459 -5.69413,3.82622 0,2.07766 5.66211,0.46056 6.09299,-1.74016 z m -2.54725,-5.27757 c -0.38894,-0.38894 -1.09529,0.31215 -1.56967,1.55799 -0.68554,1.80036 -0.54044,1.94545 0.70715,0.70715 0.86332,-0.8569 1.25146,-1.87621 0.86252,-2.26514 z m 6.20449,1.61247 c -0.3114,-0.86847 -0.0545,-2.57384 0.57079,-3.78971 1.31498,-2.55675 0.632,-2.75293 -2.93606,-0.84337 -2.48047,1.32752 -2.48724,1.43565 -0.23276,3.71465 2.78568,2.81599 3.34995,3.01545 2.59803,0.91843 z m 22.13468,-27.47537 c -0.55306,-3.12651 -1.55829,-5.40034 -2.23385,-5.05295 -1.54103,0.79247 -0.95166,9.3142 1.04843,15.15882 l 1.51302,4.42134 0.33898,-4.42134 c 0.18644,-2.43172 -0.11357,-6.97937 -0.66658,-10.10587 z m 16.7282,-2.52648 c 0.63497,-7.56167 0.494,-8.99317 -0.69823,-7.09109 -1.95711,3.12233 -3.26981,19.59317 -1.42093,17.8286 0.72798,-0.69478 1.68161,-5.52666 2.11916,-10.73751 z m -62.56567,0.94742 c 0.0314,-1.21585 -0.44043,-2.21065 -1.04837,-2.21065 -1.13445,0 -2.76497,6.28266 -2.58177,9.94798 0.12935,2.58823 3.55203,-4.70689 3.63014,-7.73733 z m 28.39753,1.61032 c 4.51631,-1.7171 4.34006,-5.37856 -0.23357,-4.85231 -2.48732,0.28621 -3.58854,1.20691 -3.87757,3.24199 -0.45951,3.2355 -0.31367,3.29263 4.11114,1.61032 z m 4.96039,-9.50554 c 0.92249,-2.40399 -0.54295,-2.41995 -3.68928,-0.0402 -2.40226,1.81695 -2.39707,1.85548 0.25501,1.89485 1.48893,0.0221 3.03434,-0.81252 3.43427,-1.85469 z m -15.53983,-7.999946 c 3.72666,-8.323469 2.8116,-9.330967 -1.33906,-1.474308 -3.64983,6.908614 -5.32324,12.994874 -2.43129,8.842644 0.72585,-1.04217 2.42251,-4.357926 3.77035,-7.368336 z m 22.66241,8.103256 c 0,-0.29056 -0.35061,-1.44198 -0.77913,-2.5587 -0.60307,-1.57156 -1.17404,-1.7027 -2.52647,-0.58026 -2.49658,2.07197 -2.15765,3.66728 0.77913,3.66728 1.38956,0 2.52647,-0.23775 2.52647,-0.52832 z m 2.09985,-4.84044 c -0.35043,-0.868466 -0.63716,-0.157896 -0.63716,1.57905 0,1.73695 0.28673,2.44752 0.63716,1.57904 0.35044,-0.86848 0.35044,-2.28961 0,-3.15809 z m 10.53251,2.36786 c 3.12651,-0.93461 5.65495,-2.20502 5.61875,-2.823096 -0.0361,-0.61809 -0.43754,-3.11339 -0.89186,-5.545128 -0.45433,-2.431728 -1.16418,-7.081852 -1.57743,-10.333608 l -0.75136,-5.912283 -3.84446,1.340195 c -2.11444,0.737095 -4.92571,3.113398 -6.24726,5.280648 -2.98276,4.891571 -3.02654,5.972186 -0.2016,4.978154 1.80461,-0.635002 1.92062,-0.465298 0.63161,0.923915 -2.38252,2.567757 -1.89476,3.980839 0.86438,2.504184 1.34389,-0.719215 2.90714,-1.284917 3.47391,-1.257105 0.56676,0.02779 -0.67489,0.996119 -2.75924,2.151781 -3.07531,1.705088 -3.36032,2.191727 -1.51197,2.581437 1.88379,0.39717 2.00261,0.81177 0.68699,2.39699 -2.121,2.555636 -2.46395,5.456196 -0.64229,5.432386 0.807,-0.0105 4.02532,-0.78385 7.15183,-1.71847 z m -18.35016,-4.632316 c -0.41111,-0.66519 -0.0846,-1.20943 0.72546,-1.20943 0.85695,0 1.13438,-0.88229 0.66339,-2.109674 -0.44526,-1.160318 -0.17632,-2.501027 0.59763,-2.97935 0.77394,-0.478322 1.21954,-2.424806 0.9902,-4.325512 -0.36095,-2.991568 -1.05438,-2.162164 -5.16177,6.173856 l -4.74481,9.629656 3.83869,-1.98505 c 2.11128,-1.091796 3.50232,-2.529306 3.09121,-3.194496 z m 26.53873,-6.57818 c -1.08459,-8.0715 -3.04346,-12.275549 -3.09016,-6.631991 -0.0349,4.20837 2.21169,13.263971 3.29054,13.263971 0.37993,0 0.28976,-2.984394 -0.20038,-6.63198 z m -18.29446,3.54844 c 0,-0.306384 -0.56845,-0.908394 -1.26323,-1.337783 -0.69478,-0.4294 -1.26324,-0.178723 -1.26324,0.557061 0,0.735784 0.56846,1.337794 1.26324,1.337794 0.69478,0 1.26323,-0.250687 1.26323,-0.557072 z M 160.94741,87.800998 c -0.93415,-1.511483 -10.76224,-6.683315 -11.4305,-6.015058 -0.25261,0.252616 2.2184,1.947469 5.49117,3.766302 7.04954,3.917758 6.94679,3.878861 5.93933,2.248756 z m 161.84977,-15.112502 0.53419,-6.976067 -1.88349,5.684559 c -1.03592,3.126509 -2.18223,8.242614 -2.54737,11.36912 l -0.66389,5.684564 2.0132,-4.393061 c 1.10724,-2.416175 2.25357,-7.532277 2.54736,-11.369115 z m -38.04152,7.551143 c 0.4294,-0.694779 -0.24762,-1.299274 -1.50449,-1.34331 -1.88575,-0.06607 -1.80283,-0.27444 0.47448,-1.191979 1.51783,-0.611563 3.36647,-2.245642 4.10805,-3.631322 1.13533,-2.121403 0.9676,-2.490723 -1.0618,-2.337859 -2.69003,0.202637 -7.01717,6.544658 -5.80435,8.507061 0.99897,1.616366 2.7883,1.615149 3.78811,-0.0021 z M 142.44055,76.597326 c -1.81169,-2.90097 -4.85184,-4.551577 -4.85184,-2.634225 0,1.59611 5.07901,6.67154 5.87735,5.873199 0.33764,-0.337636 -0.12379,-1.795173 -1.02551,-3.238974 z m 5.99733,-7.404607 c -1.37995,-1.379959 -2.32622,0.81461 -1.33546,3.097213 0.93944,2.164378 1.00754,2.162407 1.53097,-0.04434 0.30127,-1.270246 0.21331,-2.644015 -0.19551,-3.052823 z m -3.61165,-2.629021 c -1.77161,-2.134654 -2.84066,0.03828 -1.60415,3.260513 0.69072,1.800009 0.9943,1.849489 1.94174,0.316503 0.69782,-1.129093 0.56999,-2.483432 -0.33759,-3.577016 z m 3.46579,-1.538229 c -0.44821,-0.725211 -0.16083,-2.106711 0.63863,-3.069991 1.13799,-1.371205 0.90538,-2.044787 -1.07144,-3.10276 -1.38875,-0.743225 -2.84658,-1.351321 -3.23966,-1.351321 -1.52425,0 -0.61068,4.337281 1.37598,6.532507 2.28309,2.522808 3.59216,3.088018 2.29649,0.991565 z m -5.65037,-8.15569 c 0,-1.042169 -0.56845,-1.894853 -1.26323,-1.894853 -0.69478,0 -1.26324,0.852684 -1.26324,1.894853 0,1.042169 0.56846,1.894854 1.26324,1.894854 0.69478,0 1.26323,-0.852685 1.26323,-1.894854 z m -0.42662,-8.52684 c -0.35043,-0.868474 -0.63716,-0.157904 -0.63716,1.579044 0,1.73695 0.28673,2.44752 0.63716,1.579045 0.35044,-0.868475 0.35044,-2.289615 0,-3.158089 z m 1.68986,-6.631986 c 0,-0.960174 -0.56846,-2.097086 -1.26324,-2.526472 -0.71929,-0.444545 -1.26323,0.643341 -1.26323,2.526472 0,1.883117 0.54394,2.971003 1.26323,2.526471 0.69478,-0.4294 1.26324,-1.566312 1.26324,-2.526471 z m 146.53533,-5.684561 c -5.7604,-3.153693 -8.04449,-3.215667 -3.15809,-0.08565 2.08435,1.335113 4.64239,2.445194 5.68456,2.466871 1.04217,0.02173 -0.0947,-1.049875 -2.52647,-2.381186 z M 143.75962,21.814991 c -0.10965,-11.682428 -0.4014,-14.2363668 -1.19044,-10.421699 -1.97298,9.538559 -1.39524,25.896336 0.91464,25.896336 0.23159,0 0.35569,-6.963587 0.2758,-15.474637 z m 94.44805,73.899287 c 1.97871,-14.105939 6.84386,-23.057186 7.67035,-14.112473 0.15546,1.68253 -0.034,2.348585 -0.42107,1.480116 -0.38708,-0.868479 -1.15734,-1.579052 -1.71175,-1.579052 -1.28635,0 -3.83441,10.025366 -3.83441,15.086595 0,2.12406 -0.53272,3.861936 -1.1838,3.861936 -0.6511,0 -0.88479,-2.131706 -0.51932,-4.737122 z m -22.0989,-1.579053 c 0,-1.736948 0.28673,-2.447511 0.63716,-1.579042 0.35044,0.86848 0.35044,2.289615 0,3.158095 -0.35043,0.868466 -0.63716,0.157895 -0.63716,-1.579053 z M 243.7005,90.42007 c 0,-2.043333 0.44965,-3.993057 0.99924,-4.332717 0.54958,-0.33965 0.77161,1.332162 0.4934,3.715155 -0.61979,5.309005 -1.49264,5.670133 -1.49264,0.617562 z m -26.67459,-8.695711 c -0.83326,-7.337493 -3.47659,-11.146313 -6.8399,-9.855678 -1.5776,0.605367 -1.99882,1.936793 -1.6252,5.137062 0.27739,2.375946 0.0547,4.042001 -0.49491,3.70234 -1.18319,-0.731254 -1.31908,-5.744474 -0.23246,-8.576169 0.42172,-1.09899 2.15609,-1.99816 3.85417,-1.99816 3.83742,0 7.07735,6.837088 6.494,13.703982 -0.34734,4.088711 -0.47868,3.848553 -1.1557,-2.113377 z m 88.57314,-20.433255 c 1.04217,-0.673507 2.46331,-1.224555 3.15809,-1.224555 0.69478,0 0.41055,0.551048 -0.63162,1.224555 -1.04217,0.673495 -2.46331,1.224543 -3.15809,1.224543 -0.69478,0 -0.41055,-0.551048 0.63162,-1.224543 z"
     id="path7839"
     inkscape:connector-curvature="0" />
</svg>
