<?xml version="1.0" encoding="UTF-8" standalone="no"?>
<!-- Created with Inkscape (http://www.inkscape.org/) -->

<svg
   xmlns:dc="http://purl.org/dc/elements/1.1/"
   xmlns:cc="http://creativecommons.org/ns#"
   xmlns:rdf="http://www.w3.org/1999/02/22-rdf-syntax-ns#"
   xmlns:svg="http://www.w3.org/2000/svg"
   xmlns="http://www.w3.org/2000/svg"
   xmlns:sodipodi="http://sodipodi.sourceforge.net/DTD/sodipodi-0.dtd"
   xmlns:inkscape="http://www.inkscape.org/namespaces/inkscape"
   id="svg7764"
   version="1.1"
   inkscape:version="0.48.4 r9939"
   width="502.78946"
   height="286.24615"
   sodipodi:docname="GoldBar.svg">
  <metadata
     id="metadata7770">
    <rdf:RDF>
      <cc:Work
         rdf:about="">
        <dc:format>image/svg+xml</dc:format>
        <dc:type
           rdf:resource="http://purl.org/dc/dcmitype/StillImage" />
        <dc:title />
      </cc:Work>
    </rdf:RDF>
  </metadata>
  <defs
     id="defs7768">
    <filter
       inkscape:collect="always"
       id="filter8498"
       x="-0.078305155"
       width="1.1566103"
       y="-0.1477872"
       height="1.2955744"
       color-interpolation-filters="sRGB">
      <feGaussianBlur
         inkscape:collect="always"
         stdDeviation="1.2920351"
         id="feGaussianBlur8500" />
    </filter>
    <filter
       inkscape:collect="always"
       id="filter8508"
       x="-0.20444481"
       width="1.4088897"
       y="-0.27130121"
       height="1.5426024"
       color-interpolation-filters="sRGB">
      <feGaussianBlur
         inkscape:collect="always"
         stdDeviation="7.0487693"
         id="feGaussianBlur8510" />
    </filter>
    <filter
       inkscape:collect="always"
       id="filter8524"
       x="-0.1682986"
       width="1.3365972"
       y="-0.10697435"
       height="1.2139487"
       color-interpolation-filters="sRGB">
      <feGaussianBlur
         inkscape:collect="always"
         stdDeviation="0.52000361"
         id="feGaussianBlur8526" />
    </filter>
    <filter
       inkscape:collect="always"
       id="filter8538"
       x="-0.34659952"
       width="1.6931992"
       y="-0.23300809"
       height="1.4660162"
       color-interpolation-filters="sRGB">
      <feGaussianBlur
         inkscape:collect="always"
         stdDeviation="4.8284984"
         id="feGaussianBlur8540" />
    </filter>
    <filter
       inkscape:collect="always"
       id="filter8552"
       x="-0.23417896"
       width="1.4683579"
       y="-0.34404075"
       height="1.6880815"
       color-interpolation-filters="sRGB">
      <feGaussianBlur
         inkscape:collect="always"
         stdDeviation="3.4314213"
         id="feGaussianBlur8554" />
    </filter>
    <filter
       inkscape:collect="always"
       id="filter8562"
       x="-0.33075947"
       width="1.6615191"
       y="-0.16048683"
       height="1.3209738"
       color-interpolation-filters="sRGB">
      <feGaussianBlur
         inkscape:collect="always"
         stdDeviation="3.3396826"
         id="feGaussianBlur8564" />
    </filter>
    <filter
       inkscape:collect="always"
       id="filter8594"
       x="-0.45760927"
       width="1.9152186"
       y="-0.23760481"
       height="1.4752096"
       color-interpolation-filters="sRGB">
      <feGaussianBlur
         inkscape:collect="always"
         stdDeviation="6.0855204"
         id="feGaussianBlur8596" />
    </filter>
    <filter
       inkscape:collect="always"
       id="filter8600"
       x="-0.129283"
       width="1.258566"
       y="-0.22771434"
       height="1.4554287"
       color-interpolation-filters="sRGB">
      <feGaussianBlur
         inkscape:collect="always"
         stdDeviation="1.744766"
         id="feGaussianBlur8602" />
    </filter>
    <filter
       inkscape:collect="always"
       id="filter8618"
       x="-0.3647227"
       width="1.7294455"
       y="-0.23301744"
       height="1.4660349"
       color-interpolation-filters="sRGB">
      <feGaussianBlur
         inkscape:collect="always"
         stdDeviation="1.0329281"
         id="feGaussianBlur8620" />
    </filter>
    <filter
       inkscape:collect="always"
       id="filter8628"
       x="-0.18071091"
       width="1.3614218"
       y="-0.32856524"
       height="1.6571305"
       color-interpolation-filters="sRGB">
      <feGaussianBlur
         inkscape:collect="always"
         stdDeviation="2.2028073"
         id="feGaussianBlur8630" />
    </filter>
    <filter
       inkscape:collect="always"
       id="filter8638"
       x="-0.23730059"
       width="1.4746011"
       y="-0.13318846"
       height="1.2663769"
       color-interpolation-filters="sRGB">
      <feGaussianBlur
         inkscape:collect="always"
         stdDeviation="2.9339406"
         id="feGaussianBlur8640" />
    </filter>
    <filter
       inkscape:collect="always"
       id="filter8652"
       x="-0.36746567"
       width="1.7349313"
       y="-0.22444028"
       height="1.4488806"
       color-interpolation-filters="sRGB">
      <feGaussianBlur
         inkscape:collect="always"
         stdDeviation="4.6558819"
         id="feGaussianBlur8654" />
    </filter>
  </defs>
  <sodipodi:namedview
     pagecolor="#ffffff"
     bordercolor="#666666"
     borderopacity="1"
     objecttolerance="10"
     gridtolerance="10"
     guidetolerance="10"
     inkscape:pageopacity="0"
     inkscape:pageshadow="2"
     inkscape:window-width="1276"
     inkscape:window-height="750"
     id="namedview7766"
     showgrid="false"
     inkscape:zoom="0.8459596"
     inkscape:cx="111.08834"
     inkscape:cy="225.93053"
     inkscape:window-x="0"
     inkscape:window-y="22"
     inkscape:window-maximized="0"
     inkscape:current-layer="svg7764"
     fit-margin-top="0"
     fit-margin-left="0"
     fit-margin-right="0"
     fit-margin-bottom="0" />
  <path
     style="fill:#ceb90c;fill-opacity:1;stroke:none"
     d="M 53.49777,30.254055 C 87.275822,27.867552 118.18554,41.54967 151.00371,46.842205 176.18586,28.686619 208.62616,12.369569 257.41063,12.45214 L 359.36705,22.971454 C 395.35569,15.57199 429.46662,3.4782309 469.41525,5.9787159 492.2655,35.633904 457.39525,132.74993 442.30778,196.13555 l -43.291,34.79465 c -99.52941,9.82476 -193.93011,25.24155 -296.15915,-1.61834 L 78.986877,207.46406 C 63.747565,156.05572 34.966193,96.285699 40.146334,61.407409 43.521484,50.425554 41.400188,36.390117 53.49777,30.254055 z"
     id="path7776"
     inkscape:connector-curvature="0"
     sodipodi:nodetypes="ccccccccccc" />
  <path
     style="fill:#fff200;fill-opacity:1;stroke:none;filter:url(#filter8524)"
     d="m 29.7,43.628358 c -3.67464,5.622377 0.147761,11.525373 0.147761,11.525373 -2.541059,-2.187299 -7.841842,-4.422337 -7.388059,-9.604477 2.413433,-1.42615 4.826865,-2.44876 7.240298,-1.920896 z"
     id="path8486"
     inkscape:connector-curvature="0"
     sodipodi:nodetypes="cccc"
     transform="matrix(5.8404723,0,0,3.4808889,-78.575855,-114.51083)" />
  <path
     style="fill:#fff200;fill-opacity:1;stroke:none;filter:url(#filter8508)"
     d="m 11.98469,41.357633 c 30.157361,11.668215 63.29142,16.787691 101.79143,10.102068 l 41.37313,-13.59403 5.61493,-5.614925 -4.23872,33.985075 -12.09542,22.033066 -23.99417,6.46564 c -29.308816,2.63613 -57.351097,10.547363 -91.241723,-5.14374 z"
     id="path8502"
     inkscape:connector-curvature="0"
     sodipodi:nodetypes="ccccccccc"
     transform="matrix(2.7381277,0,0,2.7381277,16.275581,-31.349729)" />
  <path
     style="fill:#fff200;fill-opacity:1;stroke:none;filter:url(#filter8498)"
     d="m 108.50742,19.558134 c 9.52043,2.023657 20.23512,6.388493 32.70772,15.647836 C 127.36853,46.85776 61.484743,51.448536 39.314666,42.695437 60.589361,16.787549 77.845278,16.256686 108.50742,19.558134 z"
     id="path8496"
     inkscape:connector-curvature="0"
     sodipodi:nodetypes="cccc"
     transform="matrix(2.7381277,0,0,2.7381277,16.275581,-31.349729)" />
  <path
     style="fill:#797300;fill-opacity:1;stroke:none;filter:url(#filter8538)"
     d="m 100.31083,51.340278 17.97106,3.761385 -5.43311,18.388998 5.01518,15.045546 8.77657,10.03036 -28.837286,-4.17932 4.179306,-20.896586 -6.686896,-14.20968 -2.08966,-10.448294 z"
     id="path8528"
     inkscape:connector-curvature="0"
     transform="matrix(2.7381277,0,0,2.7381277,16.275581,-31.349729)" />
  <path
     style="fill:#797300;fill-opacity:1;stroke:none;filter:url(#filter8552)"
     d="m 84.814925,21.316418 8.570149,3.546268 5.3194,7.979105 3.250746,8.274627 -2.068656,4.137313 8.865666,-2.955224 11.22986,-1.182089 -5.61493,-8.865672 -8.57015,-5.319403 z"
     id="path8542"
     inkscape:connector-curvature="0"
     transform="matrix(2.7381277,0,0,2.7381277,16.275581,-31.349729)" />
  <path
     style="fill:#878207;fill-opacity:0.90594058;stroke:none;filter:url(#filter8600)"
     d="m 144.20491,16.305714 -1.04483,4.59725 1.2538,6.06001 5.01518,1.462761 8.14967,-0.208965 -8.98554,6.477942 -22.56831,-13.373816 z"
     id="path8598"
     inkscape:connector-curvature="0"
     sodipodi:nodetypes="cccccccc"
     transform="matrix(2.7381277,0,0,2.7381277,16.275581,-31.349729)" />
  <path
     style="fill:#fff77b;fill-opacity:1;stroke:none;filter:url(#filter8652)"
     d="m 62.355224,50.277612 16.844776,0 C 72.348713,64.436735 73.597041,89.436747 86.58806,99.038807 46.783922,111.03243 39.052644,68.985237 62.355224,50.277612 z"
     id="path8642"
     inkscape:connector-curvature="0"
     sodipodi:nodetypes="cccc"
     transform="matrix(2.7381277,0,0,2.7381277,16.275581,-31.349729)" />
  <path
     style="fill:#000000"
     d="m 164.2489,246.44208 c -11.29478,-1.11184 -26.69675,-3.96218 -34.2266,-6.33406 -7.52985,-2.37188 -16.28951,-4.32583 -19.46592,-4.34215 -6.85893,-0.0353 -29.815499,-19.52515 -35.074566,-29.77804 C 69.18078,193.7036 43.891597,118.23765 39.276702,97.947499 34.335833,76.224149 35.900727,46.790818 42.536005,36.644955 51.336922,23.18764 84.705498,23.890778 133.91167,38.570411 l 17.58001,5.244629 8.89232,-7.807557 c 10.96174,-9.624546 30.87795,-17.235361 61.36558,-23.450349 30.14533,-6.1452161 82.166,-4.4359291 112.80489,3.706526 l 21.07761,5.601492 32.31588,-8.155193 C 421.46012,5.2528739 469.3359,0.62256891 475.9603,5.1978459 c 6.39928,4.419804 4.90993,44.3739161 -3.13307,84.0485531 -21.27629,104.951981 -21.77258,106.462991 -39.85096,121.330801 -23.76188,19.54205 -30.89982,23.2785 -51.22051,26.81216 -36.66668,6.37618 -182.87842,12.46156 -217.50686,9.05272 z m 124.90063,-8.05675 c 60.69606,-3.00074 93.16106,-6.6344 98.44337,-11.01834 1.77458,-1.47275 5.14807,-1.94034 7.49669,-1.03912 2.58009,0.99008 10.03267,-2.65864 18.82942,-9.21873 23.98606,-17.88733 29.47962,-25.28017 35.24579,-47.43113 7.18892,-27.61642 23.61624,-110.012989 25.4869,-127.83777 l 1.52683,-14.548634 -7.66667,7.703315 c -14.02064,14.087614 -29.78303,25.318677 -48.69856,34.698791 -34.93342,17.323323 -38.03944,18.404007 -95.24703,33.139628 -19.57835,5.04303 -123.4116,6.00837 -160.31737,1.49048 C 112.33624,97.968839 73.395333,85.90518 49.214408,68.686847 l -8.181252,-5.825558 0.04135,9.085365 c 0.09145,20.078305 33.086138,118.956006 45.85734,137.424156 10.063523,14.5526 14.544574,16.96692 45.888544,24.72382 31.96835,7.91141 64.8427,8.81371 156.32911,4.2907 z M 146.62839,227.80876 c -0.83322,-1.34814 0.39023,-3.18228 2.71874,-4.07581 2.32853,-0.89353 3.53021,-0.48637 2.67041,0.90479 -0.85977,1.39116 2.46465,3.02809 7.38766,3.63763 l 8.95089,1.10823 -10.10638,0.43818 c -5.55851,0.24095 -10.78811,-0.66485 -11.62132,-2.01302 z m -31.43762,-9.47704 c 0.62749,-0.53667 5.45344,-1.76711 10.72434,-2.73432 6.74245,-1.23723 8.36588,-0.96037 5.47625,0.93383 -3.71191,2.43327 -18.91616,4.12302 -16.20059,1.80049 z m -2.22966,-6.39802 c 2.66411,-0.69423 6.36059,-0.64855 8.21438,0.10158 1.8538,0.75006 -0.32592,1.31808 -4.84383,1.26228 -4.51791,-0.0559 -6.03467,-0.66947 -3.37055,-1.36372 z m 4.89886,-2.86055 c -5.1833,-0.62892 -11.92629,-2.89606 -14.98442,-5.03805 -5.502351,-3.85402 -5.495204,-3.89452 0.68688,-3.89452 4.03521,0 5.55336,1.1225 4.28774,3.17029 -1.43119,2.31572 2.03112,2.77753 12.84453,1.71316 8.14213,-0.80139 12.46872,-0.87108 9.61469,-0.15497 -4.16784,1.04596 -4.4373,1.77833 -1.36906,3.72117 2.10105,1.3304 2.58794,2.24055 1.08197,2.02262 -1.50597,-0.21795 -6.97902,-0.91086 -12.16233,-1.53981 z m 119.60139,-4.56605 c -8.67718,-1.86389 -16.27973,-2.88587 -16.89452,-2.27108 -0.61479,0.61479 -3.33263,-2.26241 -6.03962,-6.3938 -6.22525,-9.50092 -6.90036,-36.48167 -1.08833,-43.49544 3.58035,-4.32067 8.02493,-4.70111 41.40654,-3.5442 20.56763,0.71281 38.73756,2.12534 40.37764,3.13897 3.97957,2.45951 6.90769,18.90699 4.63869,26.05595 -1.66478,5.24525 -3.76512,5.6919 -25.58774,5.44138 -25.53896,-0.29319 -36.48841,-2.27431 -38.02354,-6.87973 -1.04996,-3.14991 36.01603,-2.73009 46.62772,0.52813 3.27554,1.00571 5.02871,0.85138 3.89595,-0.34297 -1.13276,-1.19435 0.0994,-4.59156 2.73813,-7.54937 4.6493,-5.2115 4.58597,-5.32018 -2.04763,-3.51412 -6.02481,1.64031 -6.23157,1.48148 -1.72507,-1.32507 4.14095,-2.5789 4.40278,-3.64325 1.36906,-5.56507 -2.06315,-1.30696 -4.98334,-2.37629 -6.48931,-2.37629 -1.50597,0 -0.88989,1.19442 1.36907,2.65427 3.3467,2.16281 3.0087,2.66203 -1.82543,2.6962 -3.26292,0.023 -6.34838,-1.20544 -6.85658,-2.72999 -0.50819,-1.52456 -10.85673,-3.53788 -22.9968,-4.47405 -24.08378,-1.85721 -34.03627,1.02491 -34.03627,9.85649 0,8.26537 3.05613,13.9356 6.44772,11.96278 1.72463,-1.0032 1.0418,0.57222 -1.51747,3.50093 -6.12095,7.00456 -2.27249,15.05485 4.5072,9.42822 3.80069,-3.1543 4.12195,-2.95039 2.43414,1.54512 -1.70273,4.53533 -1.38221,4.7219 2.57893,1.50118 3.85627,-3.13543 5.7104,-2.83256 12.57239,2.0536 6.81476,4.85253 12.05077,5.73144 34.14487,5.73144 40.08555,0 43.92906,-2.91657 44.3052,-33.6201 0.1495,-12.1969 -0.65148,-15.49788 -3.49547,-14.40653 -2.40772,0.92392 -2.95405,0.23764 -1.57275,-1.97557 1.16414,-1.86521 2.44928,-5.52609 2.85587,-8.13527 0.6974,-4.47509 0.43029,-4.4794 -4.71251,-0.076 -6.68747,5.72599 -6.79061,6.43345 -0.66006,4.52731 4.42537,-1.37597 4.41825,-1.25033 -0.0931,1.64322 -3.99756,2.56393 -5.90072,1.97973 -10.4766,-3.21592 -3.07541,-3.49195 -4.81771,-4.82292 -3.87177,-2.95771 1.13271,2.23348 0.26916,2.83458 -2.52951,1.76064 -2.33729,-0.89685 -4.24952,-2.73508 -4.24952,-4.08494 0,-3.83043 -96.0393,-0.64311 -99.67072,3.30784 -2.25736,2.45604 -1.98306,2.7808 1.09813,1.30006 2.59142,-1.24538 2.35829,-0.53859 -0.63171,1.91513 -6.46092,5.30211 -5.87874,38.55894 0.63171,36.08635 3.29005,-1.24951 3.42625,-0.87387 0.68453,1.88813 -3.80424,3.8324 -4.69471,8.93834 -1.17997,6.76613 1.23347,-0.76234 1.70186,2.2988 1.04085,6.8025 -3.08823,21.04144 -14.08953,-7.95982 -14.18323,-37.38931 -0.0843,-26.49767 -1.60766,-25.79136 63.03301,-29.2265 35.19087,-1.87011 61.11353,-2.04197 69.71336,-0.46218 l 13.69064,2.51498 2.17591,19.96525 c 1.71853,15.76853 1.18106,23.31647 -2.55687,35.90806 l -4.73277,15.94278 -17.97909,1.69857 c -26.09311,2.46511 -48.63761,1.75087 -66.61331,-2.11039 z M 114.4492,201.00824 c 1.9766,-0.79096 4.33823,-0.69368 5.24809,0.21631 0.90985,0.90986 -0.70737,1.55701 -3.5938,1.43812 -3.18978,-0.13143 -3.83858,-0.7802 -1.65429,-1.65429 z M 97.881231,189.98961 c 3.405989,-0.65493 8.334609,-0.63007 10.952509,0.0553 2.61789,0.68535 -0.16895,1.2212 -6.19271,1.19081 -6.023883,-0.0304 -8.165783,-0.59111 -4.759799,-1.24607 z m 208.750299,-0.36204 c 0,-1.26425 3.0804,-3.70214 6.84532,-5.41755 7.90525,-3.60187 8.6107,-2.65478 2.54255,3.41341 -4.66953,4.66952 -9.38787,5.67679 -9.38787,2.00414 z M 93.057581,180.97369 c -5.502897,-1.76235 -5.77137,-2.20805 -1.369064,-2.27275 3.011941,-0.0443 7.940571,0.97846 10.952513,2.27275 6.97737,2.99828 -0.22124,2.99828 -9.583449,0 z m 220.551199,-7.14481 c 0.15662,-3.57843 1.31271,-7.43926 2.56904,-8.57963 1.25631,-1.14037 1.39787,-0.5332 0.31456,1.34926 -1.08331,1.88246 -0.87015,3.42266 0.47372,3.42266 3.52263,0 3.01413,7.7597 -0.59937,9.14633 -1.7466,0.67023 -2.92142,-1.60395 -2.75795,-5.33862 z m -208.22962,1.66854 -8.214387,-2.0902 7.368247,-0.32396 c 4.05253,-0.17817 8.12977,0.90819 9.06051,2.41416 0.93075,1.50597 1.31151,2.59235 0.84614,2.41417 -0.46537,-0.17817 -4.54261,-1.26455 -9.06051,-2.41417 z m -15.573105,-4.60858 c 1.976599,-0.79096 4.338234,-0.69369 5.248087,0.21618 0.909852,0.90986 -0.707368,1.55701 -3.593793,1.43812 -3.189782,-0.13138 -3.838581,-0.78021 -1.654294,-1.65429 z m 130.574455,-0.86767 c 0.93075,-1.50597 2.9244,-2.73813 4.43037,-2.73813 1.50597,0 1.97663,1.23216 1.04589,2.73813 -0.93075,1.50597 -2.92441,2.73813 -4.43038,2.73813 -1.50597,0 -1.97662,-1.23216 -1.04588,-2.73813 z M 85.579837,165.38554 c 2.664116,-0.69423 6.360588,-0.64857 8.214383,0.10145 1.853794,0.75005 -0.32592,1.31806 -4.84383,1.26226 -4.517911,-0.0558 -6.034669,-0.66947 -3.370553,-1.36371 z m -6.212894,-5.76706 c 0,-1.20357 4.312551,-1.68485 9.583447,-1.0695 5.270896,0.61535 9.583447,1.60009 9.583447,2.18831 0,0.58822 -4.312551,1.0695 -9.583447,1.0695 -5.270896,0 -9.583447,-0.98474 -9.583447,-2.18831 z m 234.748797,-0.88959 c 1.85738,-1.87129 4.06678,-2.71258 4.90982,-1.86955 0.84304,0.84303 -0.67662,2.37409 -3.37702,3.40234 -3.90238,1.48594 -4.21688,1.17143 -1.5328,-1.53279 z M 88.95039,153.5924 c -4.464271,-1.91836 -4.620618,-2.38879 -0.846136,-2.54568 2.546568,-0.10585 5.391647,1.03971 6.322391,2.54568 1.945878,3.14852 1.850728,3.14852 -5.476255,0 z m -5.476255,-10.95251 c -3.451794,-1.48328 -3.957909,-2.35322 -1.369064,-2.35322 2.258955,0 6.571506,1.05895 9.583446,2.35322 3.451794,1.48329 3.957909,2.35323 1.369064,2.35323 -2.258955,0 -6.571506,-1.05895 -9.583446,-2.35323 z m 11.637042,-4.55154 c 1.882463,-0.75958 4.962853,-0.75958 6.845323,0 1.88246,0.7596 0.34226,1.38108 -3.422663,1.38108 -3.764926,0 -5.305123,-0.62148 -3.42266,-1.38108 z m -10.267979,-3.66284 c 9.362124,-2.99828 16.560822,-2.99828 9.583447,0 -3.01194,1.29427 -7.94057,2.31701 -10.95251,2.27274 -4.402307,-0.0647 -4.133834,-0.5104 1.369063,-2.27274 z m -9.620658,-5.53649 c -2.595745,-4.19999 3.531309,-8.11847 12.358786,-7.90391 6.131325,0.14904 5.845738,0.57671 -2.738128,4.10039 -9.32023,3.82597 -9.357852,3.90071 -1.369063,2.72157 4.51791,-0.66684 10.678697,-2.09615 13.690638,-3.17625 3.828967,-1.37309 4.652627,-1.08304 2.738127,0.96424 -4.392367,4.69705 -22.333346,7.09154 -24.68036,3.29396 z m -4.583379,-10.0246 c 1.9766,-0.79097 4.338235,-0.69369 5.248087,0.21617 0.909853,0.90986 -0.707368,1.55701 -3.593792,1.43812 -3.189782,-0.13137 -3.838581,-0.7802 -1.654295,-1.65428 z m 19.166894,-2.73813 c 1.976599,-0.79097 4.338234,-0.69369 5.248087,0.21618 0.909852,0.90985 -0.707368,1.55701 -3.593793,1.43811 -3.189782,-0.13137 -3.838581,-0.7802 -1.654294,-1.65428 z m -13.861772,-2.68108 c 1.882463,-0.75959 4.962857,-0.75959 6.84532,0 1.882462,0.75959 0.342266,1.38107 -3.42266,1.38107 -3.764925,0 -5.305122,-0.62148 -3.42266,-1.38107 z m -11.637042,-9.1391 c -3.610878,-1.55165 -4.077209,-2.40451 -1.369064,-2.50375 2.258955,-0.0828 5.955428,1.0439 8.214383,2.50375 5.005215,3.23461 0.68204,3.23461 -6.845319,0 z m 15.059702,-8.214391 c 0,-1.50597 1.304882,-2.73813 2.899732,-2.73813 1.59485,0 2.138204,1.23216 1.20746,2.73813 -0.930745,1.50597 -2.235627,2.73813 -2.899732,2.73813 -0.664106,0 -1.20746,-1.23216 -1.20746,-2.73813 z m -16.428766,-1.07611 c 0,-0.59186 1.912226,-1.80991 4.24941,-2.70677 2.436715,-0.93506 3.535799,-0.47602 2.576523,1.07612 -1.607993,2.60178 -6.825933,3.84829 -6.825933,1.63065 z M 51.472268,86.006885 c 1.976599,-0.790966 4.338234,-0.693688 5.248087,0.216175 0.909852,0.909858 -0.707368,1.557012 -3.593793,1.438119 -3.189782,-0.131375 -3.838581,-0.780204 -1.654294,-1.654286 z m 288.303422,6.363904 c 42.90928,-11.464247 70.90469,-21.853432 70.90469,-26.312938 0,-2.297185 -17.81059,-14.028017 -49.02505,-32.29005 -23.78075,-13.912936 -78.36676,-22.381222 -119.45139,-18.531278 -19.80088,1.855495 -21.03433,2.3155 -14.94577,5.573987 6.08171,3.25484 5.49966,3.468083 -6.96604,2.552141 -7.48125,-0.549699 -11.13794,-0.308982 -8.126,0.534926 12.07443,3.383096 8.32374,5.091315 -10.40253,4.737757 -13.6701,-0.258096 -22.23606,1.001498 -27.93126,4.107192 l -8.21438,4.479451 19.84644,0.804388 c 19.32918,0.783422 19.72065,0.939388 15.02049,5.984405 -3.11831,3.347131 -9.65631,5.552222 -18.47735,6.231921 -13.03086,1.004082 -12.86613,1.07434 3.62345,1.545446 20.96291,0.598908 20.66276,6.028642 -0.32321,5.846297 -14.48212,-0.125845 -37.26573,-7.400582 -24.64315,-7.868495 3.29955,-0.122312 6.8546,-1.606443 7.90007,-3.298066 1.21505,-1.965968 6.70691,-2.506474 15.22131,-1.498071 7.32622,0.867685 13.32042,0.683294 13.32042,-0.409756 0,-1.093049 -8.11058,-2.351602 -18.02351,-2.796783 -17.32008,-0.777831 -18.37322,-0.449338 -26.98419,8.417119 -4.92839,5.074597 -14.16149,13.345626 -20.51797,18.380068 -8.57543,6.791868 -10.62062,9.747362 -7.92693,11.455154 1.99669,1.265891 18.41623,2.501644 36.48787,2.746112 28.54816,0.386197 30.70285,0.712031 16.42877,2.484377 -18.5751,2.306383 -50.44171,0.40299 -55.14063,-3.293554 -1.88531,-1.483145 -6.06731,-1.106819 -10.58758,0.952743 l -7.47136,3.404188 6.48038,1.615566 c 3.56422,0.888563 22.7192,1.533943 42.56669,1.434183 19.84745,-0.0998 35.72761,0.17729 35.28923,0.61566 -0.43837,0.43838 -6.20386,1.859 -12.81219,3.15694 l -12.01518,2.35989 10.13915,0.30001 c 5.57653,0.165 13.006,-1.00623 16.50993,-2.60273 4.28506,-1.95239 10.82647,-2.05265 19.98028,-0.30624 l 13.60945,2.5965 -12.32157,0.78975 c -25.60273,1.64101 25.08009,4.727081 64.34601,3.918021 30.71696,-0.632921 43.55927,-2.185981 64.63261,-7.816231 z M 128.65324,77.235602 c 0,-2.310065 6.29353,-4.083764 27.07044,-7.629228 6.49109,-1.107666 8.70136,-0.658002 7.36825,1.499004 -1.04739,1.694726 -6.45224,3.324887 -12.01075,3.622576 -5.5585,0.297692 3.44736,1.286285 20.01303,2.196874 l 30.11941,1.655617 -36.28019,0.541256 c -19.95411,0.29769 -36.28019,-0.551053 -36.28019,-1.886099 z m 44.53222,-5.01373 c 4.16212,-0.629373 10.3229,-0.612552 13.69064,0.03737 3.36773,0.649927 -0.0375,1.164865 -7.5675,1.14431 -7.52985,-0.02054 -10.28526,-0.552316 -6.12314,-1.181685 z m -15.78188,-6.249555 c -8.93287,-1.599409 -6.91326,-2.024936 10.95251,-2.307645 12.04776,-0.190656 23.75325,0.847796 26.01221,2.307645 4.83729,3.126093 -19.50514,3.126093 -36.96472,0 z m -4.7598,-7.412826 c 3.40598,-0.654941 8.33461,-0.630076 10.95251,0.05526 2.6179,0.685334 -0.16894,1.221197 -6.19271,1.190806 -6.02388,-0.03039 -8.16579,-0.59112 -4.7598,-1.246061 z m 27.34935,-24.638965 c 3.38843,-0.652641 8.93314,-0.652641 12.32157,0 3.38844,0.652641 0.61608,1.186619 -6.16078,1.186619 -6.77687,0 -9.54922,-0.533978 -6.16079,-1.186619 z m 30.29054,0.06194 c 1.9766,-0.790965 4.33823,-0.693688 5.24808,0.216175 0.90986,0.909858 -0.70736,1.557012 -3.59379,1.43812 -3.18978,-0.131376 -3.83858,-0.780205 -1.65429,-1.654287 z M 101.6194,74.75887 c -2.588237,-0.862751 -1.33834,-3.293861 4.13165,-8.036276 l 7.84248,-6.799329 -7.43352,4.393588 c -9.346868,5.524493 -15.045541,5.926951 -10.757113,0.759705 2.31276,-2.786686 1.912144,-3.584642 -1.718312,-3.42266 -2.603822,0.116179 -4.919019,-1.02093 -5.144914,-2.5269 -0.225896,-1.50597 0.698222,-2.430088 2.053595,-2.053596 1.355374,0.376493 2.464315,-0.679453 2.464315,-2.346545 0,-1.667093 -1.894866,-2.303943 -4.210829,-1.415226 -2.350847,0.902101 -4.869897,-0.101612 -5.702863,-2.272285 -0.820617,-2.138477 -3.160484,-3.24789 -5.199732,-2.465363 -2.03922,0.782527 -3.037569,3.16904 -2.218568,5.303364 1.81683,4.734595 -2.264787,5.093564 -6.763531,0.594834 -9.547577,-9.54758 4.091803,-17.792151 21.624254,-13.071159 11.388588,3.066626 12.712438,4.985742 7.262993,10.528613 -2.744617,2.791674 -2.609025,3.306979 0.684532,2.601221 2.262163,-0.484752 3.769223,0.748829 3.354803,2.746071 -0.41378,1.9944 0.53043,2.833379 2.09829,1.864394 1.56782,-0.968982 2.26623,-2.707332 1.55199,-3.863 -0.71424,-1.155668 6.01665,-2.143151 14.95754,-2.194412 8.94087,-0.05126 15.59323,0.979428 14.78299,2.290414 -2.5386,4.107564 3.4809,2.594302 7.11935,-1.78975 4.35297,-5.245004 4.36759,-5.233915 -13.74556,-10.423014 -29.318802,-8.39933 -61.534736,-12.741683 -72.358418,-9.753121 -9.763916,2.695947 -10.057252,3.14517 -9.250025,14.166331 0.722784,9.867979 2.317168,12.375814 11.985661,18.852217 6.13357,4.108569 17.168937,9.833616 24.523027,12.722329 12.020655,4.721759 13.795536,4.827738 17.573935,1.049355 3.41535,-3.415346 3.50754,-4.434622 0.49198,-5.4398 z M 430.71181,57.31864 c 8.47035,-4.500061 37.44248,-29.99011 40.42849,-35.56948 1.37355,-2.566535 1.68991,-6.770651 0.70301,-9.342478 -3.07166,-8.0045961 -46.73173,-2.7310201 -100.86578,12.18329 l -8.21438,2.26312 6.84532,3.213223 c 3.76492,1.767273 16.0865,9.261219 27.38128,16.653213 22.292,14.589246 24.75461,15.36327 33.72206,10.599112 z m -21.1134,-7.00096 c -4.1694,-1.067629 -4.43845,-1.804095 -1.36906,-3.747637 3.19854,-2.025325 3.15183,-2.445808 -0.28709,-2.584319 -2.25896,-0.09099 -0.41072,-1.907462 4.10719,-4.036613 l 8.21438,-3.871187 -8.21438,1.710741 c -7.09268,1.477132 -7.75025,1.146939 -4.81549,-2.418032 1.8694,-2.270828 2.68799,-4.839696 1.8191,-5.708597 -2.70995,-2.709949 7.85695,-6.78611 22.83579,-8.808858 11.84624,-1.59972 14.65884,-1.169043 16.05055,2.457744 0.92809,2.418541 0.16648,6.229892 -1.6923,8.469669 -3.89156,4.689066 -9.43682,5.574141 -6.64754,1.061017 1.30803,-2.116436 0.13553,-2.087806 -3.94559,0.09633 -3.1937,1.709213 -5.80669,4.912538 -5.80669,7.118508 0,2.205969 -1.23216,4.010853 -2.73813,4.010853 -1.50597,0 -2.73813,1.848236 -2.73813,4.107191 0,4.056301 -4.6607,4.732468 -14.77261,2.143193 z"
     id="path7774"
     inkscape:connector-curvature="0" />
  <path
     style="fill:#ffffff;fill-opacity:0.61386138;stroke:none;filter:url(#filter8562)"
     d="m 129.73432,48.504477 16.25374,-7.388059 2.06865,10.047761 -1.11908,26.499211 -11.29286,13.396307 -11.82089,-1.18209 3.54627,-23.050742 z"
     id="path8556"
     inkscape:connector-curvature="0"
     sodipodi:nodetypes="cccccccc"
     transform="matrix(2.7381277,0,0,2.7381277,16.275581,-31.349729)" />
  <path
     style="fill:#878207;fill-opacity:0.7425743;stroke:#000000;stroke-width:1px;stroke-linecap:butt;stroke-linejoin:miter;stroke-opacity:1;filter:url(#filter8594)"
     d="m 9.161194,33.728358 c 6.364142,3.544536 12.667748,7.186918 18.913433,10.934328 -8.869629,3.422171 -8.225949,2.28064 -8.570149,11.229851 6.879933,20.739264 6.240631,26.04393 21.573134,39.30448 l -9.752239,-0.88657 C 16.374118,81.565067 10.000416,53.161903 9.161194,33.728358 z"
     id="path8584"
     inkscape:connector-curvature="0"
     sodipodi:nodetypes="cccccc"
     transform="matrix(2.7381277,0,0,2.7381277,16.275581,-31.349729)" />
  <path
     style="fill:#ffffff;fill-opacity:0.90594058;stroke:none;filter:url(#filter8618)"
     d="m 160.46865,15.701492 2.6597,2.659702 0,6.20597 4.13732,-7.683582 -1.18209,-2.955224 z"
     id="path8604"
     inkscape:connector-curvature="0"
     transform="matrix(2.7381277,0,0,2.7381277,16.275581,-31.349729)" />
  <path
     style="fill:#ffffff;fill-opacity:0.90594058;stroke:none;filter:url(#filter8628)"
     d="m 124.35315,37.411269 11.28416,-4.179318 c -9.75174,-8.423867 -19.50348,-11.838106 -29.25522,-11.911056 7.71399,6.555721 11.6646,7.915338 17.97106,16.090374 z"
     id="path8622"
     inkscape:connector-curvature="0"
     sodipodi:nodetypes="cccc"
     transform="matrix(2.7381277,0,0,2.7381277,16.275581,-31.349729)" />
  <path
     style="fill:#000000;fill-opacity:0.6831683;stroke:#000000;stroke-width:1px;stroke-linecap:butt;stroke-linejoin:miter;stroke-opacity:1;filter:url(#filter8638)"
     d="m 63.335117,48.522313 c -17.222703,13.398386 -8.801403,37.123414 2.089659,51.160794 -9.355583,3.141043 -16.78617,-0.45541 -24.657974,-2.5076 8.388094,-16.522772 1.187633,-38.540312 -5.015182,-50.951819 9.485434,0.007 19.384567,2.260288 27.583497,2.298625 z"
     id="path8632"
     inkscape:connector-curvature="0"
     sodipodi:nodetypes="ccccc"
     transform="matrix(2.7381277,0,0,2.7381277,16.275581,-31.349729)" />
</svg>
