<?xml version="1.0" encoding="UTF-8" standalone="no"?>
<!-- Created with Inkscape (http://www.inkscape.org/) -->

<svg
   xmlns:dc="http://purl.org/dc/elements/1.1/"
   xmlns:cc="http://creativecommons.org/ns#"
   xmlns:rdf="http://www.w3.org/1999/02/22-rdf-syntax-ns#"
   xmlns:svg="http://www.w3.org/2000/svg"
   xmlns="http://www.w3.org/2000/svg"
   xmlns:sodipodi="http://sodipodi.sourceforge.net/DTD/sodipodi-0.dtd"
   xmlns:inkscape="http://www.inkscape.org/namespaces/inkscape"
   id="svg12533"
   version="1.1"
   inkscape:version="0.48.4 r9939"
   width="193"
   height="294"
   sodipodi:docname="Heart.png">
  <metadata
     id="metadata12539">
    <rdf:RDF>
      <cc:Work
         rdf:about="">
        <dc:format>image/svg+xml</dc:format>
        <dc:type
           rdf:resource="http://purl.org/dc/dcmitype/StillImage" />
        <dc:title></dc:title>
      </cc:Work>
    </rdf:RDF>
  </metadata>
  <defs
     id="defs12537" />
  <sodipodi:namedview
     pagecolor="#ffffff"
     bordercolor="#666666"
     borderopacity="1"
     objecttolerance="10"
     gridtolerance="10"
     guidetolerance="10"
     inkscape:pageopacity="0"
     inkscape:pageshadow="2"
     inkscape:window-width="1268"
     inkscape:window-height="752"
     id="namedview12535"
     showgrid="false"
     inkscape:zoom="4.5408762"
     inkscape:cx="96.5"
     inkscape:cy="147"
     inkscape:window-x="1"
     inkscape:window-y="22"
     inkscape:window-maximized="0"
     inkscape:current-layer="svg12533" />
  <path
     style="fill:#c35252;fill-opacity:1;stroke:none"
     d="m 20.700851,35.900032 8.808872,-9.249316 C 42.45452,32.599359 48.285879,41.507403 56.817228,50.214451 L 54.174567,56.600883 78.83941,42.506687 86.326951,41.6258 83.68429,28.852934 c 3.078171,-4.317334 8.549417,-8.156054 14.53464,-11.891978 3.56982,7.73808 3.74764,14.02245 11.01109,23.343513 11.68522,-6.980764 13.9613,-20.812504 17.83797,-32.8130509 l 12.1122,2.4224399 -3.08311,29.509723 13.21331,-13.653752 10.57065,3.963992 -12.33242,29.06928 c 2.25858,9.396131 5.08083,18.792261 3.96399,28.188392 l 30.83105,4.404437 c -0.4554,6.885328 -2.04053,12.64093 -4.84488,17.1773 l -22.46262,-1.32133 7.48754,11.01109 8.36843,-2.20222 c 7.86883,5.76454 6.0279,9.52228 4.40444,15.85597 l -11.0111,3.08311 -0.88088,3.96399 c 6.85133,6.92579 13.25414,14.1136 10.1302,26.86706 -3.06242,4.82625 -5.42062,4.01869 -7.92798,4.40444 l 0,7.48754 c 9.32294,12.63394 11.49646,33.98251 13.05337,54.14626 1.55512,20.14078 -8.52908,36.3861 -20.10047,45.83445 -31.83792,10.047 -55.48375,-3.46384 -75.085147,-18.76138 C 70.503858,248.81947 61.978699,233.60161 51.531905,222.20769 44.201369,203.65962 35.984868,186.219 30.831054,164.95002 21.910982,165.64393 13.53696,163.47107 9.2493163,139.84473 10.178526,127.68282 14.583726,119.86591 17.617745,110.33501 L 17.177302,100.2048 28.628836,90.074599 C 40.23112,56.616469 30.267226,46.473125 20.700851,35.900032 z"
     id="path12545"
     inkscape:connector-curvature="0"
     sodipodi:nodetypes="cccccccccccccccccccccccccccscsccccccc" />
  <path
     style="fill:#000000"
     d="m 121.5,281.16204 c -8.05506,-2.34374 -23.75498,-10.35254 -30.367551,-15.49103 -2.952154,-2.29406 -7.364748,-5.5801 -9.805764,-7.30231 -2.441017,-1.72222 -5.425619,-4.44661 -6.632449,-6.05421 -1.20683,-1.6076 -5.530499,-6.89751 -9.608154,-11.75536 C 55.557013,229.20683 47.532151,217.053 44.933708,210.03792 43.805499,206.99206 41.604042,201.575 40.04158,198 37.179592,191.45161 34.134616,181.26785 31.928898,170.86756 l -1.194542,-5.63245 -4.872785,0.0735 c -6.371604,0.0961 -9.518595,-2.22458 -13.361571,-9.8533 -2.7905867,-5.53961 -3,-6.72317 -3,-16.95532 0,-10.56847 0.1448085,-11.31384 3.691258,-19 3.052472,-6.61557 3.660978,-9.00285 3.516288,-13.795 l -0.17497,-5.794998 5.262403,-4.705001 C 26.880173,90.658439 27.141826,90.163253 29.565004,80.5 32.860715,67.357223 33.561757,60.23217 32.019091,55.557847 30.676311,51.489184 24.195248,41.236857 21.609307,39.090717 20.724188,38.356133 20,37.239671 20,36.60969 c 0,-2.166763 5.061333,-8.590046 7.942785,-10.080103 2.784181,-1.439756 3.106011,-1.344813 9.171823,2.705781 C 45.252768,34.669823 58,47.393319 58,50.08187 c 0,1.127287 -0.471156,2.929976 -1.047014,4.005976 -0.621279,1.160871 2.123391,-0.326178 6.75,-3.657116 9.722605,-6.999812 14.998486,-9.743578 18.541829,-9.642832 C 83.760167,40.830982 85,40.753007 85,40.614618 85,40.476229 84.301335,38.010344 83.447412,35.134872 82.593489,32.2594 82.173804,29.027753 82.514779,27.953435 c 0.705827,-2.223862 10.476733,-10.498578 13.54786,-11.473316 2.84223,-0.902089 4.530621,0.847485 5.841401,6.053086 C 104.21536,31.712277 107.07447,38 108.93699,38 c 5.02158,0 10.05795,-8.052479 14.07249,-22.5 1.22263,-4.4 2.73316,-8.3306093 3.35674,-8.7346872 1.56867,-1.0164928 4.50459,-0.933571 8.63378,0.2438514 6.36656,1.8153967 6.3137,1.6524133 4.05047,12.4903408 -1.12776,5.400497 -2.04101,11.434903 -2.02945,13.409791 l 0.021,3.590704 5.58617,-5.86461 5.58618,-5.864611 5.1428,0.65972 c 5.79579,0.743486 7.8659,2.647485 7.04659,6.481188 -0.30423,1.423572 -3.21583,8.126018 -6.47023,14.894324 l -5.91708,12.306011 1.99176,5.912443 C 151.34116,68.981162 152,73.593624 152,78.968455 L 152,87 l 6.05845,0 c 6.9119,0 19.39008,1.646093 22.60993,2.982651 1.49309,0.619781 2.0792,1.61906 1.88203,3.208721 -1.03006,8.304618 -2.01061,12.153958 -3.59039,14.094758 -1.66154,2.04124 -2.54899,2.195 -11.38104,1.97183 C 162.31054,109.12484 158,109.40165 158,109.8731 c 0,0.47145 0.98373,2.15537 2.18607,3.74204 1.20235,1.58667 2.24015,2.98516 2.30623,3.10776 0.0661,0.12259 1.73316,-0.22248 3.7046,-0.76682 2.25783,-0.62342 4.4934,-0.64413 6.04042,-0.0559 3.11411,1.18398 5.76268,6.69972 5.76268,12.001 0,3.4322 -0.32529,4.09887 -2,4.09887 -1.1,0 -2,0.39112 -2,0.86916 0,0.47803 -1.61515,1.13126 -3.58923,1.45161 -6.37363,1.0343 -6.91634,2.37722 -2.80138,6.93199 4.55747,5.04458 7.15222,10.86753 7.9796,17.9073 0.61024,5.19217 0.46526,5.70856 -2.57476,9.17095 -1.77178,2.01795 -3.8123,3.66899 -4.53449,3.66899 -2.11866,0 -2.26717,2.24518 -0.36275,5.48423 2.2378,3.80607 7.34928,18.24981 9.42289,26.6267 0.91422,3.69324 1.82214,13.14017 2.15176,22.38907 0.51054,14.32571 0.347,16.81296 -1.56285,23.76892 -3.7604,13.69598 -11.50412,24.82833 -20.49094,29.45771 -4.63053,2.38533 -6.37213,2.67306 -17.63785,2.91393 -9.55966,0.20439 -13.91136,-0.1434 -18.5,-1.47852 z m 8.42181,-3.41204 -2.21438,-3.25 3.08991,3.25 c 1.69946,1.7875 3.80066,3.25 4.66934,3.25 1.41831,0 1.4095,-0.28053 -0.0863,-2.75 l -1.66575,-2.75 2.40509,2.82089 c 2.23781,2.6247 2.78673,2.78237 7.89269,2.26708 3.01819,-0.30459 6.97087,-0.84061 8.78375,-1.19116 3.22521,-0.62364 3.25749,-0.68094 1.5,-2.66259 -1.75324,-1.97687 -1.74397,-1.99788 0.38812,-0.87973 3.14126,1.6474 5.65333,1.46765 4.95411,-0.35449 -0.39501,-1.0294 0.0605,-1.5 1.45203,-1.5 1.1152,0 1.76954,-0.4176 1.4541,-0.928 -0.31545,-0.51041 0.34129,-1.21836 1.45942,-1.57324 3.03791,-0.9642 10.55597,-14.58198 12.55598,-22.74318 1.42404,-5.81092 1.62882,-9.71914 1.13559,-21.67246 C 177.36453,219.0624 176.41062,209.575 175.5757,206 c -2.34344,-10.03421 -8.13691,-26.50035 -10.15395,-28.85946 -0.16903,-0.1977 -2.38063,1.0398 -4.91467,2.75 -2.53404,1.7102 -5.69593,3.10946 -7.02642,3.10946 -1.33049,0 -4.24502,0.95174 -6.47673,2.11497 -3.5261,1.8379 -5.03001,2.02385 -11.48002,1.41944 -6.35896,-0.59589 -8.18786,-1.23177 -12.76549,-4.43841 -4.38878,-3.07435 -6.00018,-3.66617 -9.02169,-3.31343 -4.93471,0.5761 -8.99336,-3.41766 -11.20517,-11.026 -1.89694,-6.52527 -0.9653,-14.73852 2.4068,-21.21801 1.1339,-2.17879 2.06164,-4.51181 2.06164,-5.18447 0,-0.67266 2.7047,-5.26659 6.01044,-10.20873 9.20888,-13.76743 20.97792,-23.2386 36.26981,-29.18825 7.41416,-2.884647 9.04358,-2.964581 8.05765,-0.39528 -0.38515,1.00368 -1.27793,1.28202 -2.70632,0.84374 -1.17237,-0.35971 -1.77997,-0.28401 -1.35022,0.16823 0.42975,0.45225 -0.24525,1.43923 -1.5,2.1933 -1.8416,1.10676 -1.89584,1.24785 -0.28136,0.73194 1.1,-0.35151 3.35,-0.84119 5,-1.08819 2.5608,-0.38333 2.7072,-0.29782 1,0.58409 -1.52258,0.78654 -0.68709,0.91892 3.5,0.55458 3.70881,-0.32273 4.84866,-0.18736 3.5,0.41566 -1.41977,0.63481 0.0678,0.91464 5.12756,0.96453 4.57148,0.0451 7.49121,-0.37798 8.14162,-1.17971 0.55773,-0.6875 1.55692,-3.89619 2.22042,-7.130431 1.44075,-7.023007 1.23137,-7.250151 -7.45761,-8.090352 -19.32637,-1.868809 -34.09787,-1.084253 -53.03199,2.816676 -13.40687,2.762171 -20.913003,5.33277 -30.5,10.445227 -3.575,1.90645 -9.495524,4.9584 -13.156721,6.78213 -3.661197,1.82373 -6.950254,3.79082 -7.309017,4.37131 C 68.175499,115.52505 66.598666,116 65.030189,116 c -2.382614,0 -3.203602,-0.72677 -4.990329,-4.41766 -1.783581,-3.68439 -2.171858,-6.46466 -2.339206,-16.75 C 57.558546,86.098283 57.86472,82.114439 58.75,81.178571 c 0.6875,-0.726785 1.243109,-2.751785 1.234687,-4.5 C 59.973029,74.258523 59.738046,73.857955 59,75 57.057348,78.006039 58.060038,74.638924 60.081559,71.368034 62.562548,67.353711 63.318001,67.033395 61.975249,70.5651 61.438862,71.975904 61,73.802462 61,74.624117 c 0,2.469955 1.798153,0.571374 2.504435,-2.644311 0.36207,-1.648492 1.052527,-2.753619 1.534349,-2.455836 0.481822,0.297782 1.540533,-0.743566 2.352691,-2.314107 0.812159,-1.570541 2.265577,-3.497754 3.229819,-4.282696 1.559033,-1.269131 1.680543,-1.233383 1.097322,0.322833 -0.360716,0.9625 -0.21997,1.75 0.312769,1.75 0.532738,0 0.975506,-0.7875 0.983928,-1.75 0.0103,-1.177538 0.263113,-1.360251 0.772832,-0.558548 0.565713,0.889772 1.844496,0.704797 5.050422,-0.730539 l 4.292903,-1.92199 -2.639835,-3.461003 c -1.828893,-2.397802 -2.69282,-4.830055 -2.812315,-7.917631 l -0.172478,-4.456627 -3.003421,1.513792 c -4.030736,2.031583 -17.123808,11.718467 -21.638394,16.009125 -1.999235,1.900071 -3.90678,3.01488 -4.238989,2.477354 -0.332209,-0.537525 0.101132,-1.562541 0.962981,-2.277812 0.861849,-0.715271 2.681324,-3.578759 4.043277,-6.363307 1.988908,-4.066372 2.087193,-4.576061 0.499377,-2.589676 l -1.976902,2.473137 0.128973,-4.009476 c 0.135293,-4.205949 -2.606812,-9.736484 -3.598081,-7.256947 -0.294072,0.735586 -0.562726,0.361479 -0.606716,-0.844865 -0.08111,-2.224334 -5.62256,-7.667707 -13.03581,-12.805093 -3.545317,-2.456906 -4.420591,-2.678944 -6.61644,-1.678449 -1.39184,0.634165 -3.208398,2.77518 -4.036794,4.757811 -1.370697,3.280541 -1.354002,3.772933 0.185608,5.474183 0.93048,1.028169 2.076487,1.631638 2.546681,1.341042 0.470195,-0.290596 0.624016,0.07332 0.341826,0.808692 -0.282191,0.735377 0.397963,2.314933 1.511454,3.510124 C 30.088962,45.938489 31,47.337044 31,47.851198 c 0,0.514153 0.589736,1.161127 1.310525,1.43772 2.039945,0.7828 3.635043,7.692366 3.049826,13.211082 -0.291617,2.75 -2.075328,11.075 -3.963804,18.5 -2.676068,10.521608 -5.005587,16.699014 -10.558886,28 -3.918911,7.975 -7.735575,16.48402 -8.481477,18.90893 -3.2358078,10.51955 -0.469896,26.1312 5.727681,32.32878 C 20.540254,162.6941 21.574492,163 27.423077,163 31.141026,163 34,162.5653 34,162 c 0,-0.55 -0.699043,-1 -1.553429,-1 -2.023121,0 -8.446503,-5.13321 -8.446542,-6.75 -1.6e-5,-0.6875 -0.419705,-1.25 -0.932641,-1.25 -1.51772,0 -2.039901,-3.24821 -1.125316,-7 l 0.853205,-3.5 0.102362,3.80902 c 0.06082,2.26322 0.508186,3.5582 1.102361,3.19098 0.583423,-0.36058 1,0.65628 1,2.44098 0,1.68246 0.497736,3.05902 1.10608,3.05902 0.608344,0 1.941025,1.06146 2.961513,2.3588 2.534705,3.22236 9.862093,4.24604 14.228907,1.98787 l 3.159503,-1.63384 -2.478001,-1.00768 c -1.362901,-0.55422 -3.237106,-0.91613 -4.164899,-0.80425 -1.720045,0.20743 -3.86768,-2.70841 -3.745423,-5.08516 0.03722,-0.72366 0.536423,-0.34709 1.10933,0.83681 0.572907,1.1839 2.229951,2.37933 3.68232,2.65651 1.452368,0.27718 3.599514,0.80948 4.771435,1.1829 1.66712,0.53121 3.025972,-0.2527 6.244846,-3.60259 2.262745,-2.35484 4.371725,-5.0933 4.686623,-6.08545 C 56.877132,144.81176 57.584775,144 58.134775,144 c 1.620833,0 -0.15542,4.21432 -3.29171,7.80987 -1.587902,1.82043 -2.625631,3.73293 -2.306063,4.25 C 52.85657,156.57694 52.386451,157 51.492295,157 c -0.894156,0 -3.058214,1.08464 -4.809017,2.4103 -1.750803,1.32567 -5.484976,3.15758 -8.298163,4.07091 l -5.114886,1.66061 1.240197,6.17909 c 3.013403,15.01382 7.857996,29.18746 9.60691,28.10657 C 44.602801,199.12745 45,200.22886 45,201.87507 c 0,1.64621 1.2375,5.83526 2.75,9.30902 l 2.75,6.31591 0.599806,-4.5 0.599807,-4.5 0.172429,5.5 c 0.11714,3.73641 0.799476,6.30163 2.127958,8 1.075541,1.375 1.965534,2.87902 1.977764,3.34227 0.01223,0.46325 0.890396,1.94596 1.95148,3.29491 l 1.929245,2.45263 0.420923,-2.7949 c 0.369099,-2.4508 0.439371,-2.3606 0.570756,0.73258 0.08241,1.94013 0.937332,4.64013 1.899832,6 l 1.75,2.47251 0.592896,-5 0.592897,-5 0.157103,5.31726 c 0.130285,4.40955 0.711909,5.97966 3.407104,9.19759 l 3.25,3.88033 1.181079,-3.19759 c 1.147286,-3.1061 1.165752,-3.06822 0.64538,1.32402 -0.50432,4.25676 -0.290489,4.77429 3.650441,8.83515 2.302378,2.37244 4.434196,4.06548 4.737375,3.7623 0.303179,-0.30318 1.445673,0.58586 2.538876,1.97564 1.093203,1.38978 2.564122,2.30566 3.268709,2.03529 0.714168,-0.27406 1.571721,0.47346 1.937879,1.68921 0.641684,2.13058 0.675628,2.13474 1.47393,0.1808 0.761596,-1.8641 0.842576,-1.83161 1.191726,0.47808 0.276326,1.82795 2.078733,3.46766 6.870149,6.25 7.342626,4.26381 8.159066,4.48661 7.409416,2.02192 -0.29275,-0.9625 0.14054,-0.59878 0.96286,0.80826 1.59809,2.73443 4.44291,4.33375 11.63218,6.53946 6.181,1.89637 6.4241,1.80661 4.06809,-1.50209 C 122.93064,275.49823 122,273.85571 122,273.44559 c 0,-0.41012 1.35282,1.12185 3.00627,3.40437 1.84925,2.55281 3.79981,4.15004 5.0681,4.15004 2.05113,0 2.05034,-0.0168 -0.15256,-3.25 z m 11.95063,0.58628 c -1.24448,-1.5086 -1.16266,-1.55194 0.87756,-0.46482 2.32696,1.23991 2.89993,2.12854 1.37244,2.12854 -0.48265,0 -1.49515,-0.74867 -2.25,-1.66372 z m 6.71166,-0.97772 c -0.52667,-1.37248 -0.38034,-1.43434 0.89301,-0.37756 1.73524,1.44013 1.91584,2.019 0.62988,2.019 -0.49116,0 -1.17646,-0.73865 -1.52289,-1.64144 z m -31.15506,-2.82652 c -0.88939,-1.35737 -1.46226,-2.87299 -1.27305,-3.36803 0.1892,-0.49504 1.0746,0.61554 1.96754,2.46796 1.9104,3.96313 1.58707,4.38217 -0.69449,0.90007 z M 112.5,273 c -0.85325,-1.65 -1.32636,-3 -1.05136,-3 0.275,0 1.19811,1.35 2.05136,3 0.85325,1.65 1.32636,3 1.05136,3 -0.275,0 -1.19811,-1.35 -2.05136,-3 z m -15.305051,-8.5 c 0.02038,-1.65 0.244498,-2.20394 0.498042,-1.23097 0.253543,0.97297 0.236869,2.32297 -0.03705,3 C 97.382014,266.94606 97.174569,266.15 97.194949,264.5 z m 13.166101,-6.91492 c 0.80756,-6.871 1.48008,-8.58508 3.36838,-8.58508 1.13944,0 1.24449,0.3265 0.42339,1.31586 -0.60063,0.72372 -1.39269,3.87372 -1.76012,7 -0.36744,3.12628 -1.11806,5.68414 -1.66806,5.68414 -0.62191,0 -0.75938,-2.04736 -0.36359,-5.41492 z m -3.54482,-0.13433 c -0.30246,-0.52291 -1.30249,-3.25749 -2.22229,-6.07683 -0.95175,-2.91731 -3.37901,-6.97472 -5.633147,-9.41639 C 96.782357,239.59786 95,237.55922 95,237.42723 c 0,-0.132 0.858047,-0.0156 1.906771,0.25864 2.8871,0.75499 7.562949,7.17677 9.515549,13.06859 1.55698,4.69806 1.81951,9.1609 0.39391,6.69629 z M 88.194949,254.5 c 0.02038,-1.65 0.244498,-2.20394 0.498042,-1.23097 0.253543,0.97297 0.236869,2.32297 -0.03705,3 C 88.382014,256.94606 88.174569,256.15 88.194949,254.5 z m 45.382031,-1.41965 c -3.63222,-3.79122 -2.96531,-6.19595 0.70143,-2.52921 1.49687,1.49687 2.72159,3.33522 2.72159,4.08522 0,1.87766 -0.23624,1.77027 -3.42302,-1.55601 z m 3.83722,-2.40218 c -1.13454,-1.19799 -3.71686,-3.43485 -5.7385,-4.9708 -4.22245,-3.20803 -4.49602,-4.5564 -1.592,-7.84659 1.81567,-2.0571 1.99403,-2.10351 1.38655,-0.36078 -1.63038,4.67723 -1.4975,5.02976 2.94452,7.81155 2.46924,1.54635 4.77715,3.71777 5.12868,4.82536 0.91249,2.87499 0.24222,3.04538 -2.12925,0.54126 z M 112.5,244 c 0.33992,-0.55 1.65177,-1 2.91521,-1 2.65456,0 10.4197,-5.62958 13.39053,-9.70788 1.11719,-1.53366 2.34202,-2.47769 2.72185,-2.09787 1.21142,1.21143 -3.54429,6.76386 -8.85873,10.34281 C 117.94738,244.7167 111.02011,246.39451 112.5,244 z m -43.247817,-6.5 c 0.0111,-2.2 0.215885,-2.98225 0.455078,-1.73834 0.239193,1.24391 0.230112,3.04391 -0.02018,4 C 69.436788,240.71775 69.241084,239.7 69.252183,237.5 z m 31.166587,-3.25 c -1.85714,-2.81969 -2.620816,-10.75 -1.035203,-10.75 0.485963,0 0.962903,1.63591 1.059873,3.63535 0.097,1.99945 0.93686,4.79611 1.86643,6.21482 1.91254,2.91891 2.07378,3.64983 0.80514,3.64983 -0.48674,0 -1.70005,-1.2375 -2.69624,-2.75 z m -9.972341,-3.59088 c 1.446247,-1.89612 2.824373,-5.3557 3.186815,-8 C 93.984476,220.09661 94.718196,218 95.263732,218 c 1.544092,0 -0.06407,7.87243 -2.489834,12.1885 -1.178199,2.09633 -2.757218,3.8115 -3.50893,3.8115 -0.919909,0 -0.533645,-1.09226 1.181461,-3.34088 z M 55.078947,218.41667 c 0.04798,-1.16495 0.284941,-1.4019 0.604167,-0.60417 0.288871,0.72187 0.253344,1.58437 -0.07895,1.91667 -0.332292,0.33229 -0.568641,-0.25834 -0.52522,-1.3125 z M 48.272364,206 c 0,-2.475 0.195016,-3.4875 0.433369,-2.25 0.238353,1.2375 0.238353,3.2625 0,4.5 -0.238353,1.2375 -0.433369,0.225 -0.433369,-2.25 z M 33.666667,152.33333 C 33.3,151.96667 33,150.39167 33,148.83333 33,147.275 32.514245,146 31.920545,146 c -0.682489,0 -0.84405,-1.19518 -0.439325,-3.25 0.476131,-2.41736 0.372312,-2.86571 -0.405232,-1.75 -0.808681,1.16038 -1.048829,0.65096 -1.060675,-2.25 C 30.006891,136.6875 30.45,135 31,135 c 0.55,0 1,0.92656 1,2.05902 0,1.29275 0.426428,1.79547 1.145843,1.35084 0.810403,-0.50085 0.945042,0.0919 0.459918,2.02478 -0.449147,1.78954 -0.326894,2.51104 0.354157,2.09013 C 34.632384,142.10917 35,143.8468 35,147.44098 c 0,5.61984 -0.129751,6.09594 -1.333333,4.89235 z M 17.494906,141.75 c -0.327646,-1.7875 -0.16824,-5.05 0.354236,-7.25 l 0.949956,-4 0.295695,3.5 c 0.643753,7.61977 0.584929,11 -0.191426,11 -0.447007,0 -1.080815,-1.4625 -1.408461,-3.25 z m 1.167375,-4 c -0.277413,-0.6875 -0.504386,-0.125 -0.504386,1.25 0,1.375 0.226973,1.9375 0.504386,1.25 0.277412,-0.6875 0.277412,-1.8125 0,-2.5 z M 57.157895,79 c 0,-1.375 0.226973,-1.9375 0.504386,-1.25 0.277412,0.6875 0.277412,1.8125 0,2.5 -0.277413,0.6875 -0.504386,0.125 -0.504386,-1.25 z m 90.217655,103.48958 c 2.55191,-1.67207 4.1413,-8.5821 3.0104,-13.08798 -0.666,-2.65355 1.03653,-3.34898 2.00706,-0.81981 0.33385,0.86998 0.60699,4.01998 0.60699,7 0,2.98001 0.29796,5.41821 0.66214,5.41821 1.62464,0 9.40065,-5.2488 10.31947,-6.96563 1.74521,-3.26096 1.12721,-9.48047 -1.44733,-14.56584 -2.57139,-5.07913 -2.4804,-7.41953 0.15422,-3.96696 2.28597,2.99569 4.3115,8.1199 4.3115,10.90729 0,3.35899 1.09344,3.78423 4.02796,1.56646 2.16985,-1.63987 2.45894,-2.5947 2.36489,-7.81097 -0.12676,-7.03032 -2.70006,-12.98525 -7.94212,-18.37902 -3.59482,-3.69886 -3.61907,-3.70641 -5.69356,-1.77373 -2.22145,2.0696 -8.54476,4.53414 -9.41094,3.66797 -0.28586,-0.28587 0.64429,-1.23072 2.06701,-2.09967 8.38178,-5.11929 8.02404,-4.78669 6.4176,-5.96655 -1.9172,-1.40809 -4.1829,-8.15907 -3.55023,-10.57842 0.35943,-1.37446 -0.21436,-1.97168 -2.29394,-2.3876 -1.5253,-0.30506 -4.39239,-2.263 -6.3713,-4.35099 -3.34201,-3.52621 -4.8064,-6.15047 -2.70863,-4.85398 0.49871,0.30822 0.7188,-0.45272 0.4891,-1.69098 -0.31818,-1.71518 -0.0901,-1.559 0.95755,0.65574 0.94819,2.00445 1.54807,2.47021 1.93196,1.5 0.35778,-0.90424 0.58497,-0.65839 0.6357,0.68789 0.0971,2.57641 3.58562,6.01224 4.53869,4.47013 0.36206,-0.58583 1.98174,-1.06514 3.59928,-1.06514 3.46976,0 3.62096,-0.83638 0.94472,-5.22583 -2.05042,-3.36299 -2.8125,-3.15388 -0.9806,0.26907 0.82553,1.54252 0.72896,1.79886 -0.5,1.32727 -0.87535,-0.33591 -1.57346,-1.92121 -1.64145,-3.7275 l -0.11832,-3.14301 -0.71945,3 -0.71945,3 -0.73549,-2.60995 c -0.5259,-1.86618 -1.35581,-2.56707 -2.91224,-2.45949 -1.34319,0.0928 -2.05365,0.70936 -1.85531,1.60995 0.25767,1.17 0.0692,1.21155 -0.95,0.20949 -2.25137,-2.21343 -4.90868,-1.44159 -6.02086,1.74881 -0.57497,1.64935 -1.45156,2.74779 -1.94798,2.44099 C 137.40616,114.13299 137,114.35852 137,114.94098 137,115.52344 136.35532,116 135.56739,116 c -0.78794,0 -1.72555,0.92296 -2.08358,2.05103 -0.61262,1.93017 -6.48381,8.6747 -6.48381,7.44826 0,-0.31331 0.72675,-1.67882 1.61501,-3.03447 2.08159,-3.17692 0.36379,-3.15931 -3.43264,0.0352 -1.6341,1.375 -3.22317,2.5 -3.53127,2.5 -0.8105,0 -5.10516,4.41768 -8.05714,8.28792 -1.39852,1.83356 -4.12929,7.2691 -6.06836,12.07898 -4.54876,11.28317 -4.74728,17.8625 -0.7756,25.70379 2.37419,4.68735 3.18945,5.47178 5.96569,5.74011 3.39506,0.32814 3.17502,0.65585 4.74088,-7.0608 0.25111,-1.2375 1.18451,-3.15 2.07422,-4.25 1.57879,-1.95195 1.60093,-1.93994 0.92186,0.5 -0.38268,1.375 -0.90577,4.34178 -1.16241,6.59283 -0.4514,3.95928 -0.30052,4.21218 4.62388,7.75 6.71685,4.82558 8.29071,4.80615 7.51815,-0.0928 -0.70322,-4.45931 1.09108,-10.12665 2.69753,-8.5202 0.74064,0.74064 0.73945,1.64599 -0.004,3.03511 -1.01506,1.89667 -0.30839,6.51263 1.4269,9.32037 0.93372,1.5108 8.67667,0.46575 11.82284,-1.5957 z M 131.55041,167.5 c 1.04892,-5.94254 2.68481,-7.99941 2.09085,-2.62892 -0.26589,2.4041 -1.00396,4.8791 -1.64016,5.5 -0.87346,0.85246 -0.98383,0.14936 -0.45069,-2.87108 z M 130,159.16667 C 130,156.875 130.47039,155 131.04531,155 c 0.66178,0 0.79656,1.37591 0.36734,3.75 C 130.47445,163.93939 130,164.07933 130,159.16667 z M 145.6443,157.5 c -0.42081,-1.65 -1.18792,-3.78139 -1.7047,-4.73643 -0.51678,-0.95504 -0.9396,-2.46508 -0.9396,-3.35565 0,-0.89056 -1.12801,-2.95977 -2.50669,-4.59824 -1.37867,-1.63846 -2.19629,-3.48126 -1.81691,-4.0951 0.41061,-0.66438 1.05411,-0.023 1.59002,1.58467 0.49513,1.48541 1.53775,2.70075 2.31691,2.70075 0.80754,0 1.41667,0.97926 1.41667,2.27749 0,1.25263 0.70322,3.28149 1.56272,4.50859 0.89737,1.28118 1.41029,3.61116 1.2047,5.47251 l -0.35802,3.24141 -0.7651,-3 z M 127,155.55902 C 127,153.60156 127.45,152 128,152 c 0.55,0 1,1.32344 1,2.94098 0,1.61754 -0.45,3.2191 -1,3.55902 -0.59512,0.3678 -1,-0.82295 -1,-2.94098 z M 125.32007,147 c 0,-3.575 0.1815,-5.0375 0.40333,-3.25 0.22182,1.7875 0.22182,4.7125 0,6.5 -0.22183,1.7875 -0.40333,0.325 -0.40333,-3.25 z m 10.39044,-8.999 c -0.28751,-1.09946 -0.115,-2.25101 0.38337,-2.55902 0.49837,-0.30801 0.90612,-0.12026 0.90612,0.41722 0,0.53747 0.27314,1.68903 0.60699,2.55901 0.33384,0.86999 0.16133,1.58179 -0.38337,1.58179 -0.5447,0 -1.2256,-0.89955 -1.51311,-1.999 z m -3.6952,-5.751 c 0.0119,-2.14294 0.22931,-2.41887 0.98469,-1.25 1.26441,1.95653 1.26441,4 0,4 -0.55,0 -0.99311,-1.2375 -0.98469,-2.75 z m 8.5672,-18.25 c 0.74187,-2.78502 1.21478,-3.53604 1.83566,-2.91516 0.23,0.23 -0.23877,1.5425 -1.04171,2.91667 l -1.45989,2.49849 0.66594,-2.5 z m 23.00685,18.5 c 0.80259,-3.19781 -0.39832,-8.42714 -1.5189,-6.614 -0.60574,0.98011 -0.94531,0.88251 -1.44313,-0.41478 -0.52893,-1.37836 -0.93004,-1.46488 -2.13916,-0.4614 C 156.87057,126.35231 156.4637,129 157.875,129 c 0.48125,0 1.145,1.35 1.475,3 0.73374,3.66868 3.36614,3.97915 4.23936,0.5 z m 7.47245,-2.45338 c -1.23812,-0.93392 -3.00033,-3.91396 -3.91601,-6.62232 l -1.66488,-4.9243 -5.99046,1.141 c -3.29475,0.62756 -5.31546,1.19257 -4.49046,1.25558 7.14142,0.54548 11,3.86024 11,9.44967 0,2.0034 0.40385,2.205 3.65647,1.82528 l 3.65647,-0.42688 -2.25113,-1.69803 z m 4.57203,-3.61733 c -0.0736,-1.23055 -0.50796,-2.00636 -0.96522,-1.72402 -0.45725,0.28234 -0.74293,-0.32334 -0.63484,-1.34596 C 174.36341,120.24075 174.05,119 172.93261,119 c -0.58706,0 -0.83343,0.7875 -0.54749,1.75 0.28595,0.9625 0.77662,3.1 1.09039,4.75 0.553,2.90804 0.53646,2.92337 -0.53964,0.5 -0.61058,-1.375 -1.32285,-3.625 -1.58282,-5 -0.62922,-3.32789 -2.31656,-5.00053 -2.47153,-2.45 -0.20156,3.3172 0.2023,4.64436 2.26039,7.42808 2.42203,3.27596 4.67443,3.50221 4.49193,0.45121 z M 136.09285,112.40116 C 137.7984,110.58569 137.97972,110 136.8362,110 c -0.83183,0 -4.17277,2.47944 -7.42431,5.50987 l -5.91189,5.50987 5.16854,-3.10871 c 2.84269,-1.70978 6.18363,-4.18923 7.42431,-5.50987 z m -66.074985,-0.74047 c 1.915174,-1.28662 5.409436,-3.17975 7.765027,-4.20696 2.845992,-1.24106 4.483977,-2.66884 4.882256,-4.25571 0.380611,-1.51647 0.863034,-1.96144 1.321792,-1.21915 0.521543,0.84387 1.190122,0.70121 2.404382,-0.51305 0.925076,-0.92508 2.751915,-1.745825 4.059642,-1.823888 1.465818,-0.0875 2.058742,-0.52653 1.546045,-1.144767 -0.461375,-0.556349 -0.253274,-1.793798 0.467408,-2.77939 1.244407,-1.701827 1.331097,-1.701708 2.060933,0.0028 0.612508,1.430521 1.028903,0.995146 2.123805,-2.22061 0.85465,-2.510127 1.231777,-3.009717 1.012508,-1.341295 -0.469029,3.568855 1.85212,2.674816 3.216437,-1.23888 C 101.43793,89.313921 102.13323,88 102.42323,88 c 0.29,0 0.0884,1.154295 -0.44798,2.5651 -1.24468,3.273749 -1.22602,3.707919 0.1235,2.873869 0.60431,-0.373486 1.754,-2.087543 2.55485,-3.809017 0.94837,-2.038552 1.29528,-2.345387 0.99487,-0.879952 -0.2833,1.382038 0.0224,2.25 0.79234,2.25 0.68946,0 1.74187,-1.0125 2.3387,-2.25 0.59682,-1.2375 1.11559,-1.6875 1.15281,-1 0.0748,1.382232 3.06768,1.763735 3.06768,0.391043 0,-0.472426 2.04022,-0.773965 4.53381,-0.670085 2.4936,0.10388 3.96913,-0.160121 3.27896,-0.58667 -0.69016,-0.426548 -0.98395,-1.046438 -0.65286,-1.377534 0.3311,-0.331096 1.30188,0.09789 2.15728,0.953298 0.95923,0.959225 1.79397,1.1691 2.17807,0.547619 C 124.83779,86.453452 124.64148,86 124.05902,86 123.47656,86 123,85.564123 123,85.031385 c 0,-0.532739 0.62948,-0.72706 1.39885,-0.431827 0.76937,0.295234 1.66116,0.112361 1.98176,-0.406384 C 126.70121,83.674428 125.84673,83.25 124.48176,83.25 123.11679,83.25 122,83.629627 122,84.093615 c 0,0.463989 -0.72042,0.567166 -1.60092,0.229283 -0.88051,-0.337883 -1.99862,0.01374 -2.48469,0.781385 -1.62598,2.567886 -0.99206,-1.35774 0.66276,-4.104283 1.39114,-2.308907 1.45972,-2.328016 0.89718,-0.25 -0.33501,1.2375 -0.18367,2.25 0.33631,2.25 0.51998,0 1.66594,-1.0125 2.54657,-2.25 1.04452,-1.467789 1.39738,-1.641614 1.01499,-0.5 -0.3235,0.96577 -0.0901,1.75 0.52081,1.75 0.60885,0 1.15919,-0.7875 1.22299,-1.75 0.11048,-1.666667 0.13778,-1.666667 0.57333,0 0.68271,2.612489 2.06549,2.124812 3.87009,-1.364902 2.14578,-4.149477 4.19244,-2.480643 2.59115,2.112809 l -1.09789,3.149434 3.22366,-0.738457 c 1.77301,-0.406151 4.04475,-0.689739 5.0483,-0.630196 1.18625,0.07038 2.32804,-1.096522 3.26342,-3.335214 C 143.37939,77.549563 144.25184,76 144.52684,76 c 0.275,0 -0.14274,1.538297 -0.92831,3.418439 -0.78558,1.880141 -1.16662,3.680141 -0.84676,4 C 143.07163,83.738297 142.73333,84 142,84 c -0.73333,0 -1.04421,0.289125 -0.69083,0.642501 0.35337,0.353375 1.41475,0.01588 2.35862,-0.75 1.46916,-1.192105 1.59431,-1.190377 0.86966,0.01201 -0.58511,0.970855 -0.47744,1.17644 0.34872,0.665844 0.65735,-0.406266 0.94977,-1.511901 0.64982,-2.456966 -0.29995,-0.945064 0.11743,-2.594694 0.92752,-3.665843 0.81008,-1.071148 1.48719,-1.411601 1.50469,-0.75656 0.0175,0.655041 -0.4182,1.469098 -0.9682,1.809017 -0.55,0.339919 -1,1.068034 -1,1.618034 0,0.55 0.49821,0.692089 1.10713,0.315754 0.75976,-0.469557 0.87766,0.06101 0.37578,1.690983 -0.40225,1.306376 -0.91307,2.575333 -1.13515,2.819905 -0.36194,0.398603 -7.68762,0.271335 -14.34776,-0.249261 -1.5429,-0.120602 -2.40429,0.283136 -2.25,1.054585 0.2398,1.199008 -0.91547,1.651713 -3.42459,1.341962 -0.64603,-0.07975 -1.5035,0.387176 -1.90549,1.037616 -0.53908,0.872241 0.16287,0.987355 2.67459,0.438616 5.28593,-1.154824 6.8539,-1.303864 15.15549,-1.440571 6.29804,-0.103713 7.75,-0.419705 7.75,-1.68664 0,-0.93567 -0.46778,-1.269913 -1.16994,-0.835955 -0.83028,0.513145 -0.9312,0.167383 -0.34762,-1.190983 1.50424,-3.50128 1.66287,-7.851764 0.50735,-13.914045 -2.50695,-13.152332 -2.4945,-13.268483 2.49639,-23.28374 6.32866,-12.699797 7.91929,-17.347632 6.28296,-18.358938 -0.79232,-0.48968 -1.52396,-0.140756 -1.94862,0.9293 -0.61083,1.5392 -0.68709,1.523029 -0.75023,-0.159067 C 155.01213,28.078269 154.74112,27.969962 153.5,29 c -1.1339,0.941055 -1.5,0.953507 -1.5,0.05102 0,-0.789108 -0.50855,-0.68532 -1.5,0.306127 -0.825,0.825 -1.5,2.068151 -1.5,2.762558 0,0.708624 -0.64416,0.410908 -1.4682,-0.678571 -1.56844,-2.073672 -1.79445,-1.655961 -1.65499,3.05887 0.0762,2.575187 -0.0405,2.716792 -0.82376,1 -0.80748,-1.769866 -0.93624,-1.654799 -1.11895,1 -0.16346,2.375141 -0.29585,2.538087 -0.6356,0.782317 -0.3715,-1.919851 -0.68896,-2.05542 -2.36382,-1.009454 C 139.87061,36.93739 139,38.497848 139,39.740547 139,40.983246 138.4857,42 137.85711,42 c -0.80764,0 -0.98206,2.346554 -0.5946,7.999448 0.30156,4.399697 0.17748,8.228623 -0.27574,8.508727 C 134.3649,60.12858 133.91764,33.314064 136.3809,22.184624 138.88291,10.880118 138.77984,10.433796 133.35173,9.0669827 130.71396,8.4027828 128.32696,8.273041 127.83298,8.7670186 126.5302,10.069796 122.8535,23.059701 122.81378,26.5 c -0.019,1.65 -0.26222,2.393182 -0.54037,1.651515 -0.50617,-1.349656 -4.77126,6.556808 -4.40876,8.172815 0.10169,0.453381 -0.27625,0.539323 -0.83987,0.190983 C 116.46115,36.166972 116,36.358524 116,36.940983 c 0,0.582459 -0.5625,1.061862 -1.25,1.06534 -0.6875,0.0035 -2.03166,1.379771 -2.98702,3.05843 -1.69381,2.976165 -1.67995,3.109183 0.55681,5.34595 1.26162,1.261613 2.94328,2.523713 3.73703,2.804665 0.79375,0.280952 1.08017,0.897944 0.63648,1.371093 C 113.90836,53.556344 106.0486,42.634987 101.87786,30 c -1.18008,-3.575 -2.362128,-6.878282 -2.626762,-7.340627 -0.264634,-0.462344 -2.150783,0.789725 -4.191443,2.782376 -2.04066,1.992651 -5.476398,4.121858 -7.634973,4.731572 -2.158575,0.609714 -3.387462,1.299219 -2.730859,1.532232 0.656603,0.233014 0.945958,1.069589 0.643011,1.859055 -0.355818,0.927246 0.106585,1.440813 1.306177,1.450705 1.41953,0.0117 1.538199,0.217321 0.503744,0.872826 -1.002981,0.635561 -1.08575,1.357334 -0.319776,2.788569 0.598508,1.118321 0.672694,2.514805 0.176266,3.318041 -0.526435,0.85179 -0.27442,2.513963 0.653109,4.307607 1.767235,3.417456 1.985096,10.630567 0.409973,13.573711 -0.625937,1.169573 -2.918142,2.545487 -5.316587,3.191321 -7.476311,2.013161 -13.114676,5.520405 -16.537826,10.287057 -5.159421,7.184366 -6.214488,10.656671 -6.187468,20.363436 0.02863,10.284559 1.390838,17.279089 3.706577,19.032119 2.170238,1.64289 2.237133,1.6313 6.286842,-1.08931 z M 80.157895,99 c 0,-1.375 0.226973,-1.9375 0.504386,-1.25 0.277412,0.6875 0.277412,1.8125 0,2.5 -0.277413,0.6875 -0.504386,0.125 -0.504386,-1.25 z M 89,95 c 0,-1.1 0.407871,-2 0.90638,-2 0.49851,0 0.671025,0.9 0.383369,2 -0.287656,1.1 -0.695528,2 -0.90638,2 C 89.172516,97 89,96.1 89,95 z m 42,-8 c -1.2819,-0.828426 -1.24555,-0.971601 0.25,-0.984687 C 132.2125,86.006891 133,86.45 133,87 c 0,1.21961 -0.11279,1.21961 -2,0 z m -20.92105,-3.583333 c 0.048,-1.164943 0.28494,-1.4019 0.60416,-0.604167 0.28887,0.721875 0.25335,1.584375 -0.0789,1.916667 -0.3323,0.332291 -0.56864,-0.258334 -0.52522,-1.3125 z M 114.01531,84.25 c 0.008,-0.4125 0.4385,-1.419326 0.95574,-2.237392 0.73909,-1.168964 0.90434,-1.008401 0.77188,0.75 -0.14936,1.982855 -1.76615,3.374829 -1.72762,1.487392 z M 139.0856,80 c -0.0302,-0.825 0.38124,-2.175 0.9144,-3 1.18132,-1.827966 1.18132,-0.249085 0,2.5 -0.56668,1.31874 -0.87815,1.489055 -0.9144,0.5 z M 87,37.606989 c 0,-0.216156 0.698372,-0.661002 1.551938,-0.988546 0.889925,-0.341496 1.291322,-0.173849 0.940983,0.393011 C 88.905663,37.961658 87,38.416902 87,37.606989 z M 20.5,106 c 0.339919,-0.55 0.141476,-1 -0.440983,-1 C 19.476558,105 19,105.45 19,106 c 0,0.55 0.198442,1 0.440983,1 0.242541,0 0.719098,-0.45 1.059017,-1 z m 1.5,-5 c 1.162565,-0.75131 1.193883,-0.97282 0.139216,-0.98469 -0.831705,-0.009 -0.4429,-0.815995 1,-2.074661 L 25.5,95.881299 22.758586,97.550034 c -1.507778,0.917804 -2.517474,2.031077 -2.243769,2.473936 0.273704,0.44287 -0.06766,1.03312 -0.758586,1.31167 -0.690927,0.27856 -0.806231,0.5351 -0.256231,0.5701 0.55,0.035 1.675,-0.37258 2.5,-0.90574 z m 88.48803,-9.019375 c -0.27527,-0.445392 0.0421,-0.990655 0.70518,-1.211694 0.74777,-0.249256 0.54051,-0.657134 -0.54571,-1.073956 -1.04719,-0.401843 -1.50572,-0.274594 -1.14042,0.316479 0.33602,0.5437 0.2094,0.988546 -0.2814,0.988546 -0.49079,0 -0.89235,0.632097 -0.89235,1.404659 0,0.772563 0.59742,1.17541 1.32759,0.895215 0.73018,-0.280194 1.10237,-0.873856 0.82711,-1.319249 z m 4.03843,-0.787497 c -0.30789,-0.307887 -1.11479,-6.34e-4 -1.79313,0.682784 -0.98026,0.987616 -0.8654,1.10248 0.5598,0.559795 0.98622,-0.375531 1.54122,-0.934692 1.23333,-1.242579 z m 2.01466,-1.126597 c -0.36254,-0.586592 -1.4201,-1.01433 -2.35014,-0.95053 -1.5245,0.104582 -1.51869,0.161025 0.059,0.573325 0.9625,0.251527 1.75,0.949326 1.75,1.550665 0,0.601338 0.27006,0.823281 0.60014,0.493207 0.33007,-0.330075 0.30351,-1.080075 -0.059,-1.666667 z m 14.9828,-10.141892 c 0.96385,-3.036842 -0.01,-3.348447 -1.34004,-0.428865 C 129.55633,80.873098 129.45291,82 129.95405,82 c 0.50115,0 1.20759,-0.933912 1.56987,-2.075361 z M 84.872445,56.312769 C 83.670583,54.835246 83.71751,54.707054 85.25,55.281384 86.2125,55.6421 87,55.501354 87,54.968615 87,54.435877 86.55,54 86,54 c -0.55,0 -1,-0.476558 -1,-1.059017 0,-0.582459 0.353571,-0.840498 0.785714,-0.573419 0.432143,0.267079 0.785715,-0.381363 0.785715,-1.440983 0,-2.477872 -0.195648,-2.429728 -2.131304,0.524456 C 82.785082,53.976952 83.245629,58 85.189832,58 c 0.614669,0 0.482189,-0.704263 -0.317387,-1.687231 z M 84.926281,46 c 0.0081,-1.205895 -0.250355,-1.156878 -1.318327,0.25 -1.758449,2.316467 -2.894506,2.228206 -2.134664,-0.165843 0.334435,-1.053714 0.23919,-2.14382 -0.211656,-2.422458 C 80.810787,43.38306 80.501982,44.80769 80.5754,46.827542 80.857989,54.602014 80.945517,54.75264 83,51 c 1.053893,-1.925 1.920719,-4.175 1.926281,-5 z M 149.49292,28.011454 c 0.35034,-0.56686 -0.0511,-0.734507 -0.94098,-0.393011 C 146.81952,28.283234 146.50255,29 147.94098,29 c 0.51754,0 1.21592,-0.444846 1.55194,-0.988546 z M 89.915633,25 c 0.09267,1.208828 0.279309,1.240778 0.961483,0.16459 0.46557,-0.734476 1.246179,-1.273206 1.734687,-1.197179 0.488509,0.07603 1.024887,-0.673038 1.191953,-1.66459 C 94.060441,20.779375 93.94659,20.732448 93.069069,22 92.497925,22.825 92.023735,23.146667 92.015313,22.714816 92.006891,22.282965 91.1,22.411298 90,23 88.857475,23.611461 88.042737,25.019942 88.09968,26.285184 88.193634,28.372772 88.245352,28.35639 89,26 c 0.440352,-1.375 0.852387,-1.825 0.915633,-1 z m 7.46864,-6 c 0.969534,-1.303456 0.886426,-1.32017 -0.634273,-0.127555 -0.9625,0.754844 -1.714474,2.104844 -1.671053,3 0.06604,1.361449 0.169744,1.382304 0.634273,0.127555 0.305429,-0.825 1.057403,-2.175 1.671053,-3 z"
     id="path12543"
     inkscape:connector-curvature="0" />
</svg>
