<?xml version="1.0" encoding="UTF-8" standalone="no"?>
<!-- Created with Inkscape (http://www.inkscape.org/) -->

<svg
   xmlns:dc="http://purl.org/dc/elements/1.1/"
   xmlns:cc="http://creativecommons.org/ns#"
   xmlns:rdf="http://www.w3.org/1999/02/22-rdf-syntax-ns#"
   xmlns:svg="http://www.w3.org/2000/svg"
   xmlns="http://www.w3.org/2000/svg"
   xmlns:sodipodi="http://sodipodi.sourceforge.net/DTD/sodipodi-0.dtd"
   xmlns:inkscape="http://www.inkscape.org/namespaces/inkscape"
   id="svg12533"
   version="1.1"
   inkscape:version="0.48.4 r9939"
   width="308.37997"
   height="492.15179"
   sodipodi:docname="Heart.svg">
  <metadata
     id="metadata12539">
    <rdf:RDF>
      <cc:Work
         rdf:about="">
        <dc:format>image/svg+xml</dc:format>
        <dc:type
           rdf:resource="http://purl.org/dc/dcmitype/StillImage" />
        <dc:title />
      </cc:Work>
    </rdf:RDF>
  </metadata>
  <defs
     id="defs12537" />
  <sodipodi:namedview
     pagecolor="#ffffff"
     bordercolor="#666666"
     borderopacity="1"
     objecttolerance="10"
     gridtolerance="10"
     guidetolerance="10"
     inkscape:pageopacity="0"
     inkscape:pageshadow="2"
     inkscape:window-width="1268"
     inkscape:window-height="752"
     id="namedview12535"
     showgrid="false"
     inkscape:zoom="0.80272109"
     inkscape:cx="87.250684"
     inkscape:cy="295.15243"
     inkscape:window-x="3"
     inkscape:window-y="22"
     inkscape:window-maximized="0"
     inkscape:current-layer="svg12533"
     fit-margin-top="0"
     fit-margin-left="0"
     fit-margin-right="0"
     fit-margin-bottom="0" />
  <path
     style="fill:#c35252;fill-opacity:1;stroke:none"
     d="M 20.373041,53.087472 36.044609,36.632336 c 23.029653,10.583025 33.404027,26.43102 48.581863,41.92144 l -4.701469,11.361882 43.880387,-25.074499 13.32083,-1.567162 -4.70146,-22.723783 c 5.47627,-7.680817 15.20998,-14.510155 25.85808,-21.156604 6.35095,13.766558 6.6673,24.946869 19.58946,41.529653 20.78879,-12.419235 24.83808,-37.026836 31.73494,-58.3765938 l 21.5484,4.3096815 -5.48505,52.4997513 23.50735,-24.290928 18.80589,7.052201 -21.94019,51.716178 c 4.01816,16.716337 9.03913,33.432677 7.0522,50.149017 l 54.85048,7.83579 c -0.81018,12.24946 -3.63024,22.48905 -8.61936,30.55956 l -39.96249,-2.35074 13.32083,19.58946 14.88799,-3.91789 c 13.99917,10.2555 10.72403,16.94076 7.83579,28.20882 l -19.58948,5.48506 -1.56714,7.0522 c 12.18897,12.32144 23.57999,25.10903 18.0223,47.79828 -5.44825,8.58622 -9.64364,7.14952 -14.1044,7.83579 l 0,13.32083 c 16.58612,22.47662 20.45296,60.45714 23.22281,96.32979 2.76666,35.83179 -15.1738,64.73329 -35.76007,81.54253 -56.64178,17.87428 -98.70928,-6.1624 -133.58146,-33.37774 C 108.97589,431.88529 93.809074,404.8117 75.223532,384.54116 62.182022,351.54291 47.564321,320.51489 38.395344,282.67597 22.525944,283.91048 7.6280027,280.04482 0,238.01199 1.6531257,216.37514 9.4902687,202.46834 14.88799,185.51224 L 14.104413,167.48992 34.477452,149.46763 C 55.118685,89.943394 37.392257,71.897701 20.373041,53.087472 z"
     id="path12545"
     inkscape:connector-curvature="0"
     sodipodi:nodetypes="cccccccccccccccccccccccccccscsccccccc" />
  <path
     style="fill:#000000"
     d="m 199.70141,489.42486 c -14.33048,-4.16967 -42.26168,-18.41785 -54.02589,-27.55957 -5.25207,-4.08128 -13.10237,-9.92736 -17.4451,-12.99129 -4.34273,-3.06394 -9.65254,-7.91082 -11.79957,-10.77084 -2.14703,-2.86003 -9.83912,-12.27113 -17.093536,-20.91357 C 82.384466,396.9931 68.107704,375.37063 63.484902,362.89033 61.477743,357.47155 57.561205,347.83424 54.781481,341.47408 49.689815,329.82405 44.2726,311.70647 40.348481,293.20366 l -2.125169,-10.0205 -8.669008,0.13076 c -11.335506,0.17097 -16.934212,-3.95767 -23.7711223,-17.52967 -4.964639,-9.85534 -5.3371988,-11.96097 -5.3371988,-30.16464 0,-18.80201 0.257624,-20.12807 6.5669928,-33.80226 5.4305513,-11.76954 6.5131233,-16.01667 6.2557103,-24.54222 l -0.311283,-10.30969 9.362164,-8.37051 c 9.046898,-8.08861 9.512396,-8.96959 13.82339,-26.16115 C 42.006246,109.0519 43.253446,96.375963 40.508941,88.060039 38.120046,80.821605 26.589805,62.582047 21.989244,58.763922 20.414559,57.457037 19.12618,55.470781 19.12618,54.350004 c 0,-3.854809 9.004448,-15.282269 14.130742,-17.933166 4.953243,-2.561429 5.5258,-2.392525 16.317282,4.813762 14.478327,9.668247 37.156498,32.304198 37.156498,37.087307 0,2.005524 -0.838217,5.212629 -1.862707,7.126904 -1.105297,2.065265 3.777653,-0.580296 12.008699,-6.506259 17.297156,-12.453127 26.683296,-17.334476 32.987136,-17.155235 2.69592,0.07664 4.90166,-0.06207 4.90166,-0.308276 0,-0.246205 -1.24297,-4.633187 -2.76216,-9.748839 -1.51918,-5.115652 -2.26583,-10.864972 -1.65921,-12.776241 1.25571,-3.956412 18.6388,-18.67767 24.10254,-20.411798 5.05652,-1.604878 8.06027,1.507724 10.39224,10.768831 4.11199,16.330193 9.19854,27.516464 12.51208,27.516464 8.93373,0 17.89377,-14.325896 25.0359,-40.028993 2.17514,-7.8278923 4.86247,-14.8207086 5.97186,-15.5395937 2.79077,-1.80840316 8.01397,-1.66088296 15.36007,0.4338253 11.32653,3.2297171 11.23249,2.9397651 7.20605,22.2211444 -2.00636,9.607848 -3.63109,20.343464 -3.61052,23.856924 l 0.0374,6.388094 9.93817,-10.433531 9.93818,-10.43353 9.14938,1.173685 c 10.3111,1.322719 13.99396,4.710043 12.53635,11.530468 -0.54124,2.532625 -5.72117,14.456729 -11.51096,26.497984 l -10.52688,21.893208 3.54347,10.518617 c 2.37141,7.03924 3.54353,15.24511 3.54353,24.80729 l 0,14.28866 10.77838,0 c 12.29673,0 34.49624,2.9285 40.22457,5.30633 2.6563,1.10263 3.69903,2.88042 3.34825,5.70853 -1.83254,14.77447 -3.577,21.6227 -6.38754,25.07551 -2.95599,3.6315 -4.53482,3.90505 -20.24762,3.50802 -9.37291,-0.23683 -17.04164,0.25563 -17.04164,1.09437 0,0.83874 1.75012,3.83455 3.88916,6.65734 2.13906,2.82279 3.98537,5.3108 4.10294,5.52891 0.11759,0.2181 3.0834,-0.39581 6.59072,-1.36422 4.01683,-1.10911 7.99406,-1.14595 10.74631,-0.0995 5.54021,2.10637 10.25219,11.91924 10.25219,21.35057 0,6.10611 -0.57871,7.29216 -3.55813,7.29216 -1.95697,0 -3.55813,0.69583 -3.55813,1.5463 0,0.85044 -2.87346,2.01258 -6.38548,2.58251 -11.33911,1.84009 -12.30463,4.22923 -4.98384,12.33247 8.10804,8.97464 12.72427,19.33405 14.19624,31.85827 1.08565,9.23722 0.82772,10.15591 -4.58067,16.31573 -3.15212,3.59007 -6.78234,6.52738 -8.06716,6.52738 -3.76924,0 -4.03345,3.99432 -0.64536,9.75681 3.9812,6.77125 13.07486,32.46762 16.76395,47.37066 1.62646,6.57052 3.24171,23.37724 3.82812,39.83165 0.90829,25.48638 0.61734,29.91137 -2.78041,42.28648 -6.69,24.36606 -20.46659,44.17125 -36.45474,52.40722 -8.23802,4.24366 -11.33645,4.75555 -31.37891,5.18408 -17.00727,0.36362 -24.74923,-0.25512 -32.91273,-2.63039 z m 14.98296,-6.07024 -3.93953,-5.78197 5.49716,5.78197 c 3.02345,3.18008 6.76162,5.78196 8.30706,5.78196 2.52327,0 2.5076,-0.49908 -0.15353,-4.89243 l -2.96348,-4.89243 4.27882,5.01855 c 3.98121,4.66952 4.95777,4.95002 14.04161,4.03329 5.36957,-0.54189 12.40165,-1.49551 15.62688,-2.11916 5.73786,-1.10949 5.79529,-1.21143 2.6686,-4.73692 -3.11913,-3.51698 -3.10264,-3.55436 0.69049,-1.5651 5.58851,2.93083 10.05765,2.61105 8.81369,-0.63066 -0.70275,-1.83137 0.10763,-2.6686 2.58326,-2.6686 1.98401,0 3.14813,-0.74294 2.58694,-1.65097 -0.56121,-0.90806 0.60718,-2.16755 2.5964,-2.7989 5.40465,-1.71538 18.77977,-25.94231 22.33793,-40.46163 2.53346,-10.33801 2.89777,-17.29099 2.02029,-38.55674 -0.58884,-14.2694 -2.28591,-31.14811 -3.77129,-37.50827 -4.16913,-17.85153 -14.4761,-47.14589 -18.06455,-51.3429 -0.30071,-0.35172 -4.2353,1.84987 -8.74352,4.89243 -4.50823,3.04256 -10.13344,5.53194 -12.50047,5.53194 -2.36703,0 -7.55217,1.69321 -11.52253,3.76267 -6.27317,3.26975 -8.94872,3.60056 -20.42372,2.52528 -11.31301,-1.06013 -14.56675,-2.1914 -22.71065,-7.89623 -7.80794,-5.46947 -10.67472,-6.52236 -16.05019,-5.89481 -8.77918,1.02492 -15.99978,-6.08024 -19.93474,-19.61598 -3.37478,-11.60889 -1.71733,-26.22081 4.28186,-37.74825 2.01728,-3.87621 3.66779,-8.02681 3.66779,-9.22352 0,-1.19671 4.81184,-9.36961 10.69297,-18.16201 16.38321,-24.49317 37.32111,-41.34301 64.5264,-51.92783 13.19028,-5.13198 16.08913,-5.27419 14.3351,-0.70323 -0.68521,1.78561 -2.27353,2.2808 -4.81473,1.50107 -2.08572,-0.63995 -3.16668,-0.50527 -2.40213,0.29929 0.76456,0.80458 -0.43631,2.56049 -2.6686,3.90203 -3.27633,1.969 -3.37282,2.22001 -0.50056,1.30217 1.95698,-0.62536 5.95988,-1.49654 8.89534,-1.93596 4.55583,-0.68197 4.81628,-0.52985 1.77906,1.03913 -2.70877,1.39931 -1.22238,1.63482 6.22673,0.98663 6.59822,-0.57415 8.62609,-0.33332 6.22674,0.73949 -2.52587,1.12937 0.12062,1.62721 9.12227,1.71596 8.13296,0.0802 13.32736,-0.67245 14.48448,-2.09878 0.99224,-1.22311 2.76986,-6.93158 3.95027,-12.68551 2.56319,-12.4944 2.19069,-12.89849 -13.26758,-14.39327 -34.38289,-3.32473 -60.66237,-1.92897 -94.34743,5.01105 -23.85171,4.91408 -37.20562,9.48735 -54.26152,18.58275 -6.36017,3.39171 -16.89317,8.82133 -23.40668,12.06586 -6.51352,3.24454 -12.36497,6.74412 -13.00323,7.77685 -0.63826,1.03273 -3.44355,1.8777 -6.233976,1.8777 -4.23883,0 -5.69942,-1.29297 -8.878125,-7.85931 -3.173109,-6.55477 -3.86388,-11.50106 -4.161603,-29.79936 -0.25282,-15.53847 0.291884,-22.62599 1.866856,-24.29096 1.223108,-1.29299 2.211574,-4.8956 2.19659,-8.0058 -0.02074,-4.30543 -0.43879,-5.01807 -1.751823,-2.98629 -3.456107,5.34795 -1.672255,-0.64238 1.924165,-6.46151 4.41384,-7.14175 5.75785,-7.71162 3.369,-1.42847 -0.95427,2.50991 -1.73503,5.75948 -1.73503,7.22127 0,4.3942 3.19903,1.0165 4.45555,-4.70441 0.64415,-2.93279 1.87252,-4.89887 2.72971,-4.3691 0.857196,0.52977 2.740706,-1.32286 4.185596,-4.11696 1.44488,-2.79409 4.03061,-6.22272 5.74606,-7.61918 2.77362,-2.257867 2.9898,-2.194287 1.95221,0.57433 -0.64174,1.71235 -0.39134,3.11337 0.55643,3.11337 0.94778,0 1.73549,-1.40102 1.75048,-3.11337 0.0183,-2.094917 0.46809,-2.419967 1.37492,-0.9937 1.00644,1.58296 3.28148,1.25389 8.98503,-1.299677 l 7.63736,-3.41934 -4.69644,-6.157352 c -3.25372,-4.265845 -4.79071,-8.592997 -5.0033,-14.085989 l -0.30684,-7.928641 -5.34329,2.693133 c -7.17095,3.614333 -30.464387,20.847936 -38.496135,28.481309 -3.556772,3.380347 -6.950421,5.363667 -7.541443,4.407367 -0.591022,-0.95629 0.17992,-2.77987 1.713207,-4.052377 1.533286,-1.27251 4.770253,-6.366851 7.193258,-11.32075 3.538399,-7.234342 3.713255,-8.141115 0.888425,-4.607195 l -3.51704,4.39988 0.229452,-7.133131 C 76.801799,73.245753 71.923412,63.406555 70.159879,67.817822 69.636705,69.126485 69.158752,68.460918 69.080491,66.31476 68.936191,62.357511 59.077583,52.673395 45.888919,43.533637 39.581565,39.162649 38.024395,38.767625 34.117833,40.547563 c -2.476175,1.12823 -5.707953,4.937229 -7.181724,8.464477 -2.438561,5.836299 -2.408859,6.712293 0.330209,9.73893 1.655386,1.829183 3.694208,2.902796 4.530714,2.385799 0.836509,-0.516997 1.110166,0.130406 0.608132,1.438713 -0.502037,1.30829 0.708002,4.118432 2.688977,6.244755 1.980972,2.126322 3.601769,4.614435 3.601769,5.52916 0,0.914707 1.04918,2.065709 2.331511,2.557799 3.629198,1.392653 6.466983,13.685219 5.425843,23.503384 -0.518806,4.89243 -3.692146,19.70316 -7.05187,32.91273 -4.760903,18.71864 -8.905272,29.70865 -18.784959,49.81386 -6.972003,14.18805 -13.7621023,29.32616 -15.0891113,33.64024 -5.7567167,18.71498 -0.835976,46.48914 10.1899253,57.51504 4.370079,4.37009 6.210057,4.9143 16.615078,4.9143 6.614478,0 11.700782,-0.77336 11.700782,-1.77906 0,-0.97849 -1.243644,-1.77907 -2.763653,-1.77907 -3.599266,0 -15.026889,-9.13232 -15.026959,-12.0087 -2.8e-5,-1.22311 -0.746683,-2.22383 -1.65923,-2.22383 -2.700125,0 -3.629119,-5.77878 -2.002012,-12.45347 l 1.517908,-6.22673 0.182109,6.7765 c 0.108203,4.02642 0.904097,6.33027 1.961174,5.67697 1.037948,-0.6415 1.779066,1.16756 1.779066,4.34266 0,2.99321 0.885505,5.4422 1.96779,5.4422 1.082284,0 3.453212,1.88841 5.268728,4.19646 4.509408,5.7328 17.545318,7.55399 25.31417,3.53656 l 5.620965,-2.90671 -4.408528,-1.79273 c -2.424691,-0.986 -5.759026,-1.62986 -7.409632,-1.43082 -3.060074,0.36903 -6.880859,-4.81844 -6.663356,-9.04684 0.06622,-1.28743 0.954332,-0.61749 1.973572,1.48875 1.01924,2.10623 3.967231,4.23298 6.551092,4.7261 2.583859,0.49312 6.403774,1.44012 8.488699,2.10446 2.965917,0.94506 5.383405,-0.44957 11.109996,-6.40925 4.025573,-4.18941 7.777589,-9.06132 8.337813,-10.82642 0.560225,-1.76511 1.819169,-3.20929 2.797655,-3.20929 2.88357,0 -0.276502,7.49756 -5.856171,13.89428 -2.824983,3.23866 -4.671171,6.64113 -4.102639,7.56103 0.568533,0.9199 -0.26784,1.67255 -1.858603,1.67255 -1.590763,0 -5.440765,1.92965 -8.55556,4.28809 -3.114795,2.35845 -9.758137,5.61754 -14.762983,7.24242 l -9.099722,2.95433 2.206393,10.99301 c 5.361044,26.71059 13.979897,51.92643 17.091331,50.00346 0.863674,-0.53378 1.570318,1.4257 1.570318,4.35442 0,2.92872 2.201594,10.38132 4.892432,16.56137 l 4.892433,11.23642 1.067094,-8.0058 1.067097,-8.0058 0.306762,9.78487 c 0.2084,6.64732 1.422321,11.21102 3.785779,14.23253 1.913459,2.44621 3.496815,5.12197 3.518573,5.94612 0.02176,0.82415 1.584074,3.46199 3.471813,5.86186 l 3.432255,4.36339 0.748846,-4.97231 c 0.65666,-4.36014 0.78167,-4.19966 1.01542,1.30331 0.14661,3.45162 1.66757,8.2551 3.37992,10.6744 l 3.11337,4.39876 1.0548,-8.89534 1.054796,-8.89533 0.2795,9.45976 c 0.23179,7.84488 1.26653,10.63821 6.06147,16.36312 l 5.78196,6.90337 2.10122,-5.68873 c 2.0411,-5.52595 2.07395,-5.45856 1.14817,2.35552 -0.89722,7.57306 -0.5168,8.49378 6.49438,15.71832 4.09608,4.22073 7.88873,7.23276 8.4281,6.69338 0.53938,-0.53937 2.57195,1.04229 4.51683,3.5148 1.94488,2.47251 4.56175,4.10192 5.81525,3.62091 1.27056,-0.48757 2.7962,0.84232 3.44762,3.00522 1.1416,3.79044 1.20199,3.79785 2.62222,0.32166 1.35493,-3.31636 1.499,-3.25856 2.12016,0.85053 0.4916,3.25205 3.6982,6.1692 12.22245,11.11917 13.06302,7.5856 14.51552,7.98197 13.18184,3.59713 -0.52082,-1.71235 0.25003,-1.06527 1.71299,1.43795 2.84311,4.86473 7.90424,7.71002 20.69442,11.63413 10.99641,3.37377 11.4289,3.21408 7.23741,-2.67232 -2.0236,-2.84188 -3.67927,-5.76403 -3.67927,-6.49366 0,-0.72963 2.40675,1.99584 5.34835,6.0566 3.28994,4.54162 6.76011,7.38319 9.01649,7.38319 3.64909,0 3.64769,-0.0299 -0.27142,-5.78196 z m 21.26097,1.04303 c -2.21402,-2.6839 -2.06845,-2.761 1.56123,-0.82695 4.13982,2.20589 5.15917,3.78682 2.44167,3.78682 -0.85867,0 -2.65998,-1.33194 -4.0029,-2.95987 z m 11.94048,-1.73943 c -0.93698,-2.44173 -0.67665,-2.55179 1.58873,-0.6717 3.08711,2.56208 3.40841,3.59193 1.1206,3.59193 -0.87381,0 -2.093,-1.31411 -2.70933,-2.92023 z m -55.42691,-5.02857 c -1.58229,-2.41485 -2.60146,-5.11124 -2.26485,-5.99195 0.3366,-0.8807 1.91179,1.09509 3.50039,4.39067 3.39873,7.05067 2.8235,7.79617 -1.23554,1.60128 z m -8.76909,-2.7256 c -1.51799,-2.93546 -2.35969,-5.3372 -1.87044,-5.3372 0.48924,0 2.13151,2.40174 3.6495,5.3372 1.51799,2.93546 2.35968,5.3372 1.87044,5.3372 -0.48924,0 -2.13152,-2.40174 -3.6495,-5.3372 z m -27.22871,-15.12206 c 0.0363,-2.93546 0.43498,-3.92096 0.88605,-2.18998 0.45107,1.73098 0.42141,4.13272 -0.0659,5.3372 -0.48733,1.20448 -0.85639,-0.21176 -0.82014,-3.14722 z m 23.42337,-12.3021 c 1.4367,-12.22397 2.63316,-15.27343 5.99257,-15.27343 2.02714,0 2.21403,0.58087 0.75324,2.341 -1.06856,1.28755 -2.47769,6.89161 -3.13137,12.45347 -0.6537,5.56186 -1.9891,10.11246 -2.96759,10.11246 -1.10642,0 -1.35098,-3.64239 -0.64685,-9.6335 z m -6.30647,-0.23898 c -0.53809,-0.9303 -2.31721,-5.7953 -3.9536,-10.81109 -1.69323,-5.19009 -6.01148,-12.40849 -10.02174,-16.75238 -3.87558,-4.19801 -7.04652,-7.82489 -7.04652,-8.05971 0,-0.23483 1.52653,-0.0278 3.39228,0.46014 5.13634,1.34318 13.45498,12.76795 16.92879,23.24989 2.76997,8.35816 3.23703,16.29785 0.70079,11.91315 z m -33.12849,-5.24958 c 0.0363,-2.93546 0.43497,-3.92096 0.88605,-2.18998 0.45107,1.73098 0.4214,4.13272 -0.0659,5.3372 -0.48733,1.20448 -0.85639,-0.21177 -0.82013,-3.14722 z m 80.73764,-2.52566 c -6.46196,-6.74483 -5.27548,-11.023 1.24789,-4.49963 2.66303,2.66303 4.84189,5.93358 4.84189,7.26788 0,3.34048 -0.42028,3.14943 -6.08978,-2.76825 z m 6.82667,-4.27363 c -2.01842,-2.13131 -6.61254,-6.11083 -10.20917,-8.84339 -7.51202,-5.7073 -7.99872,-8.10614 -2.83227,-13.9596 3.23019,-3.65972 3.54751,-3.74229 2.46676,-0.64185 -2.90055,8.3211 -2.66415,8.94827 5.2385,13.89726 4.39294,2.75106 8.49886,6.61416 9.12426,8.58464 1.62338,5.1148 0.43092,5.41793 -3.78808,0.96294 z m -44.32401,-11.88091 c 0.60474,-0.97849 2.9386,-1.77907 5.18635,-1.77907 4.72264,0 18.53734,-10.01539 23.82264,-17.27096 1.98755,-2.72848 4.16661,-4.40798 4.84235,-3.73225 2.1552,2.15521 -6.30553,12.03335 -15.76027,18.40054 -8.39982,5.6568 -20.7239,8.64173 -18.09107,4.38174 z M 106.74908,411.7472 c 0.0198,-3.91395 0.38407,-5.30562 0.80961,-3.09263 0.42554,2.213 0.40939,5.41532 -0.0359,7.11627 -0.44529,1.70095 -0.79346,-0.10977 -0.77371,-4.02364 z m 55.44743,-5.78197 c -3.30398,-5.01641 -4.66261,-19.12496 -1.8417,-19.12496 0.86456,0 1.71307,2.91039 1.88559,6.46753 0.17256,3.55715 1.66673,8.53259 3.3205,11.05657 3.40253,5.19294 3.68939,6.49329 1.4324,6.49329 -0.86595,0 -3.02451,-2.20159 -4.79679,-4.89243 z m -17.74146,-6.38841 c 2.57297,-3.37333 5.02475,-9.52815 5.66955,-14.23253 0.62487,-4.55888 1.93021,-8.28889 2.90075,-8.28889 2.74704,0 -0.11398,14.00558 -4.42958,21.68415 -2.09609,3.72951 -4.90527,6.78091 -6.24262,6.78091 -1.63658,0 -0.94939,-1.9432 2.1019,-5.94364 z M 81.533955,377.79669 c 0.08536,-2.07253 0.506929,-2.49408 1.074853,-1.07486 0.513921,1.28425 0.450716,2.8187 -0.140457,3.40988 -0.591169,0.59117 -1.01165,-0.4596 -0.934401,-2.33502 z M 69.424592,355.70661 c 0,-4.40319 0.346947,-6.2045 0.770992,-4.0029 0.424046,2.20159 0.424046,5.8042 0,8.0058 -0.424045,2.20159 -0.770992,0.40029 -0.770992,-4.0029 z M 43.440088,260.23004 c -0.652325,-0.65231 -1.186045,-3.45434 -1.186045,-6.22673 0,-2.77238 -0.86419,-5.04069 -1.920422,-5.04069 -1.214193,0 -1.501621,-2.1263 -0.781588,-5.78196 0.847068,-4.30065 0.662367,-5.09829 -0.720935,-3.11337 -1.438697,2.06439 -1.865936,1.1581 -1.887011,-4.0029 -0.01494,-3.66932 0.773337,-6.6715 1.751823,-6.6715 0.978487,0 1.779067,1.64842 1.779067,3.66314 0,2.29988 0.758643,3.19426 2.03853,2.40323 1.441761,-0.89104 1.681293,0.1635 0.818225,3.60222 -0.799062,3.18371 -0.581566,4.46731 0.630069,3.71848 1.196362,-0.73938 1.850375,2.35198 1.850375,8.74626 0,9.99807 -0.230836,10.84508 -2.372088,8.70382 z M 14.669452,241.40159 c -0.582904,-3.18008 -0.29931,-8.98428 0.630209,-12.89823 l 1.690035,-7.11627 0.526061,6.22674 c 1.145279,13.55607 1.040627,19.56973 -0.34056,19.56973 -0.795255,0 -1.922841,-2.60189 -2.505745,-5.78197 z m 2.076837,-7.11626 c -0.493536,-1.22311 -0.897336,-0.22239 -0.897336,2.22383 0,2.44622 0.4038,3.44694 0.897336,2.22383 0.493535,-1.22311 0.493535,-3.22456 0,-4.44766 z M 85.232542,129.76518 c 0,-2.44622 0.4038,-3.44694 0.897336,-2.22384 0.493534,1.22311 0.493534,3.22456 0,4.44767 -0.493536,1.22311 -0.897336,0.22238 -0.897336,-2.22383 z M 245.73573,313.88001 c 4.54002,-2.97473 7.36765,-15.26813 5.35571,-23.28439 -1.18486,-4.72084 1.84405,-5.95805 3.57069,-1.45849 0.59394,1.54775 1.07987,7.15181 1.07987,12.45346 0,5.30164 0.53009,9.63936 1.17799,9.63936 2.89035,0 16.72439,-9.33797 18.35903,-12.39232 3.10484,-5.80147 2.00538,-16.86639 -2.5749,-25.9136 -4.57467,-9.03611 -4.4128,-13.19983 0.27437,-7.05748 4.06689,5.32953 7.67044,14.44584 7.67044,19.40479 0,5.97587 1.94531,6.7324 7.16601,2.78684 3.86031,-2.91744 4.37462,-4.61615 4.2073,-13.89624 -0.22552,-12.5074 -4.80359,-23.10162 -14.12956,-32.69749 -6.39542,-6.58052 -6.43857,-6.59395 -10.12922,-3.15559 -3.95211,3.68196 -15.2017,8.06654 -16.74269,6.52556 -0.50856,-0.50858 1.14624,-2.18953 3.67735,-3.73545 14.91174,-9.10755 14.2753,-8.51584 11.41734,-10.61489 -3.41083,-2.50508 -7.44166,-14.51552 -6.3161,-18.81971 0.63945,-2.44525 -0.38136,-3.50775 -4.08107,-4.2477 -2.71361,-0.54272 -7.81435,-4.02602 -11.33497,-7.7407 -5.94565,-6.27336 -8.5509,-10.94209 -4.81883,-8.63555 0.88724,0.54834 1.27879,-0.80542 0.87014,-3.00836 -0.56606,-3.05142 -0.16029,-2.77357 1.70355,1.1666 1.68689,3.56605 2.75412,4.39467 3.43708,2.6686 0.63652,-1.6087 1.0407,-1.17132 1.13095,1.2238 0.17275,4.58361 6.37906,10.69618 8.07464,7.95266 0.64412,-1.04223 3.52564,-1.89495 6.40335,-1.89495 6.17294,0 6.44193,-1.48798 1.68072,-9.2971 -3.64783,-5.98299 -5.00362,-5.61097 -1.74455,0.47869 1.46867,2.74425 1.29687,3.20029 -0.88953,2.3613 -1.55731,-0.5976 -2.79929,-3.41796 -2.92025,-6.63147 l -0.2105,-5.59162 -1.27995,5.3372 -1.27995,5.3372 -1.30848,-4.64328 c -0.93562,-3.32006 -2.41208,-4.56699 -5.18107,-4.37559 -2.38963,0.16509 -3.65358,1.26199 -3.30072,2.8642 0.45841,2.08151 0.12311,2.15543 -1.69012,0.3727 -4.00533,-3.93784 -8.73286,-2.56468 -10.7115,3.11125 -1.02291,2.9343 -2.58243,4.8885 -3.46559,4.34268 -0.88318,-0.54583 -1.60577,-0.14464 -1.60577,0.89164 0,1.03623 -1.14693,1.88406 -2.54871,1.88406 -1.40179,0 -3.06986,1.64201 -3.70682,3.64892 -1.0899,3.4339 -11.53513,15.43287 -11.53513,13.25095 0,-0.5574 1.29293,-2.98673 2.87321,-5.39852 3.70328,-5.65196 0.6472,-5.62063 -6.1069,0.0626 -2.90717,2.44622 -5.73423,4.44767 -6.28236,4.44767 -1.44193,0 -9.08242,7.85934 -14.33419,14.74476 -2.48806,3.26202 -7.34628,12.93221 -10.79601,21.4893 -8.09255,20.07351 -8.44573,31.77858 -1.37985,45.72875 4.22385,8.33911 5.67425,9.73466 10.61336,10.21204 6.04004,0.58378 5.64857,1.1668 8.43434,-12.56163 0.44674,-2.2016 2.10732,-5.60406 3.69018,-7.56104 2.80877,-3.47265 2.84816,-3.45128 1.64005,0.88954 -0.68082,2.44621 -1.61143,7.72431 -2.06801,11.72908 -0.80307,7.04382 -0.53464,7.49375 8.22619,13.78776 11.94972,8.58503 14.74973,8.55046 13.37529,-0.16509 -1.25107,-7.93341 1.9411,-18.01599 4.79909,-15.15801 1.31764,1.31765 1.31553,2.92833 -0.007,5.39967 -1.80586,3.3743 -0.54865,11.5864 2.53855,16.58155 1.66115,2.68782 15.43637,0.8286 21.03362,-2.83885 z m -28.15397,-26.66746 c 1.8661,-10.57217 4.77645,-14.23148 3.71976,-4.67702 -0.47304,4.27705 -1.78611,8.68024 -2.91795,9.78486 -1.55395,1.51659 -1.7503,0.26572 -0.80181,-5.10784 z M 214.82348,272.387 c 0,-4.07703 0.83685,-7.41278 1.85967,-7.41278 1.17735,0 1.41714,2.44784 0.65353,6.6715 -1.66912,9.23227 -2.5132,9.48123 -2.5132,0.74128 z m 27.83225,-2.96511 c -0.74865,-2.93546 -2.11339,-6.72735 -3.03278,-8.42643 -0.91939,-1.69908 -1.67161,-4.38554 -1.67161,-5.96992 0,-1.58437 -2.0068,-5.26563 -4.45957,-8.18057 -2.45274,-2.91493 -3.90734,-6.1934 -3.2324,-7.28546 0.7305,-1.18198 1.87533,-0.0409 2.82875,2.81923 0.88087,2.64265 2.73576,4.80482 4.12194,4.80482 1.43666,0 2.52035,1.74217 2.52035,4.0518 0,2.22852 1.25107,5.83799 2.78018,8.02108 1.59648,2.27931 2.509,6.4245 2.14324,9.73596 l -0.63694,5.76669 -1.36116,-5.3372 z m -33.16945,-3.45314 c 0,-3.48245 0.80058,-6.33173 1.77906,-6.33173 0.97849,0 1.77907,2.35449 1.77907,5.2322 0,2.87771 -0.80058,5.72699 -1.77907,6.33173 -1.05875,0.65434 -1.77906,-1.46408 -1.77906,-5.2322 z m -2.98871,-15.22706 c 0,-6.36016 0.3229,-8.96205 0.71755,-5.78197 0.39463,3.18009 0.39463,8.38385 0,11.56394 -0.39465,3.18008 -0.71755,0.57819 -0.71755,-5.78197 z m 18.48528,-16.00982 c -0.5115,-1.95601 -0.20459,-4.00469 0.68204,-4.55266 0.88664,-0.54797 1.61205,-0.21396 1.61205,0.74226 0,0.95619 0.48594,3.00489 1.07988,4.55265 0.59392,1.54777 0.28701,2.81411 -0.68204,2.81411 -0.96906,0 -2.18043,-1.60036 -2.69193,-3.55636 z m -6.574,-10.23141 c 0.0212,-3.81243 0.40796,-4.30333 1.75183,-2.22383 2.24947,3.48079 2.24947,7.11626 0,7.11626 -0.97849,0 -1.76681,-2.20159 -1.75183,-4.89243 z m 15.24161,-32.46796 c 1.31984,-4.95474 2.16118,-6.29085 3.26577,-5.18626 0.40918,0.40918 -0.42479,2.74421 -1.85328,5.18895 l -2.59724,4.44498 1.18475,-4.44767 z m 40.93072,32.91273 c 1.42786,-5.68912 -0.70864,-14.99244 -2.70223,-11.76675 -1.07765,1.74368 -1.68177,1.57005 -2.56742,-0.73792 -0.941,-2.45219 -1.6546,-2.60612 -3.80571,-0.82086 -2.87782,2.38838 -3.60166,7.0988 -1.09087,7.0988 0.85618,0 2.03703,2.40173 2.62413,5.33719 1.30537,6.52683 5.98858,7.07918 7.5421,0.88954 z m 13.29398,-4.36473 c -2.2027,-1.6615 -5.33778,-6.96319 -6.96684,-11.78155 l -2.96193,-8.76065 -10.65743,2.02991 c -5.86158,1.11647 -9.45655,2.12166 -7.98882,2.23376 12.70506,0.97045 19.56973,6.86763 19.56973,16.81159 0,3.56418 0.71847,3.92284 6.5051,3.2473 l 6.5051,-0.75945 -4.00491,-3.02091 z m 8.13395,-6.43547 c -0.13094,-2.18923 -0.9037,-3.56945 -1.71719,-3.06714 -0.81348,0.5023 -1.32172,-0.57525 -1.12943,-2.39456 0.58644,-5.54812 0.0288,-7.7555 -1.95905,-7.7555 -1.04442,0 -1.48273,1.40102 -0.97402,3.11337 0.50872,1.71235 1.38166,5.5151 1.93988,8.45056 0.98382,5.1736 0.95439,5.20087 -0.96006,0.88954 -1.08626,-2.44622 -2.35344,-6.44912 -2.81594,-8.89534 -1.11943,-5.92053 -4.12132,-8.89627 -4.39702,-4.35871 -0.35859,5.90152 0.35991,8.26263 4.02139,13.21505 4.30895,5.82815 8.31612,6.23066 7.99144,0.80273 z m -70.34605,-24.95697 c 3.03429,-3.22984 3.35687,-4.27183 1.32247,-4.27183 -1.47988,0 -7.42363,4.41109 -13.20834,9.80243 l -10.51764,9.80242 9.19517,-5.5306 c 5.05734,-3.04181 11.00109,-7.45292 13.20834,-9.80242 z m -117.55178,-1.31735 c 3.40722,-2.28898 9.62374,-5.65698 13.8145,-7.48446 5.0632,-2.20793 7.97729,-4.74804 8.68585,-7.57119 0.67714,-2.6979 1.5354,-3.48953 2.35156,-2.16895 0.92786,1.5013 2.11731,1.2475 4.27755,-0.91275 1.64578,-1.64578 4.89584,-3.10593 7.22238,-3.24482 2.60778,-0.15567 3.66264,-0.93673 2.75051,-2.03662 -0.82081,-0.98977 -0.45059,-3.19127 0.83155,-4.9447 2.21389,-3.02767 2.36811,-3.02746 3.66654,0.005 1.08969,2.54501 1.83049,1.77044 3.77839,-3.95061 1.52048,-4.46567 2.19141,-5.35447 1.80132,-2.38624 -0.83443,6.34924 3.29504,4.75868 5.72225,-2.20405 0.99598,-2.85695 2.23296,-5.1945 2.74889,-5.1945 0.51593,0 0.15727,2.05356 -0.79698,4.56348 -2.21437,5.82422 -2.18117,6.59664 0.21971,5.11281 1.07511,-0.66447 3.12048,-3.71388 4.54525,-6.7765 1.68721,-3.62672 2.30439,-4.17261 1.76994,-1.56549 -0.50401,2.45874 0.0399,4.0029 1.40962,4.0029 1.2266,0 3.09891,-1.80131 4.16071,-4.0029 1.06178,-2.2016 1.98471,-3.00218 2.05092,-1.77907 0.13308,2.45908 5.45761,3.13779 5.45761,0.69569 0,-0.84047 3.62969,-1.37693 8.06595,-1.19212 4.43628,0.18481 7.06134,-0.28486 5.83349,-1.04372 -1.22785,-0.75887 -1.75052,-1.86169 -1.16149,-2.45074 0.58905,-0.58903 2.31613,0.17417 3.83795,1.69598 1.70653,1.70654 3.19159,2.07991 3.87493,0.97426 0.60938,-0.98637 0.26013,-1.79309 -0.7761,-1.79309 -1.03624,0 -1.88407,-0.77546 -1.88407,-1.72324 0,-0.94776 1.11989,-1.29349 2.48865,-0.76823 1.36876,0.52523 2.95531,0.19989 3.52568,-0.723 0.57037,-0.92287 -0.94981,-1.67796 -3.37818,-1.67796 -2.42837,0 -4.41521,0.67539 -4.41521,1.50084 0,0.82547 -1.28168,1.00903 -2.84815,0.40792 -1.56648,-0.60113 -3.55567,0.0244 -4.42043,1.39013 -2.89272,4.56844 -1.76494,-2.41551 1.1791,-7.30179 2.47493,-4.1077 2.59694,-4.1417 1.59614,-0.44477 -0.596,2.2016 -0.32676,4.0029 0.59832,4.0029 0.92508,0 2.96382,-1.8013 4.53052,-4.0029 1.85827,-2.61129 2.48603,-2.92053 1.80573,-0.88953 -0.57553,1.71817 -0.16029,3.11337 0.92656,3.11337 1.08318,0 2.06227,-1.40102 2.17578,-3.11337 0.19655,-2.96512 0.24512,-2.96512 1.01999,0 1.21459,4.64779 3.67464,3.78018 6.88515,-2.42825 3.81748,-7.3822 7.45863,-4.41324 4.60982,3.75883 l -1.95322,5.60305 5.73511,-1.31377 c 3.1543,-0.72257 7.19588,-1.22708 8.98126,-1.12115 2.11042,0.12524 4.14174,-1.95078 5.80584,-5.93358 1.40783,-3.36939 2.95998,-6.12616 3.44922,-6.12616 0.48924,0 -0.25394,2.73674 -1.65153,6.08163 -1.39759,3.34489 -2.07549,6.54721 -1.50644,7.11626 0.56905,0.56906 -0.0327,1.03464 -1.33745,1.03464 -1.30464,0 -1.85772,0.51438 -1.22903,1.14305 0.62867,0.62869 2.51694,0.0283 4.19614,-1.3343 2.61374,-2.12083 2.83639,-2.11777 1.54719,0.0213 -1.04095,1.72722 -0.8494,2.09296 0.62039,1.18457 1.16947,-0.72276 1.68971,-2.68977 1.15607,-4.37109 -0.53363,-1.68135 0.20892,-4.61615 1.65012,-6.52178 1.44119,-1.90564 2.64581,-2.51133 2.67695,-1.34597 0.0311,1.16536 -0.74401,2.61361 -1.72249,3.21835 -0.97849,0.60474 -1.77907,1.90012 -1.77907,2.8786 0,0.97849 0.88635,1.23128 1.96966,0.56174 1.35166,-0.83538 1.56141,0.10853 0.66853,3.00837 -0.71562,2.32414 -1.62441,4.5817 -2.0195,5.01681 -0.64392,0.70913 -13.67679,0.48271 -25.52562,-0.44345 -2.74492,-0.21456 -4.27739,0.5037 -4.0029,1.87616 0.42662,2.13312 -1.62868,2.93852 -6.09257,2.38746 -1.14933,-0.14179 -2.67483,0.6888 -3.39,1.84597 -0.95905,1.55178 0.28976,1.75658 4.75828,0.78034 9.40402,-2.05452 12.19354,-2.31967 26.96262,-2.56287 11.20463,-0.18453 13.78776,-0.74669 13.78776,-3.00065 0,-1.66462 -0.83221,-2.25927 -2.0814,-1.48722 -1.47712,0.91292 -1.65666,0.29778 -0.61844,-2.11884 2.67615,-6.22901 2.95836,-13.96882 0.90261,-24.75402 -4.46003,-23.39886 -4.43788,-23.605499 4.44125,-41.423311 11.2591,-22.59377 14.08894,-30.862585 11.1778,-32.661773 -1.40959,-0.871173 -2.71123,-0.250404 -3.46672,1.653304 -1.08671,2.738321 -1.22238,2.709554 -1.33471,-0.282996 -0.10354,-2.75629 -0.58562,-2.94898 -2.79365,-1.116471 -2.01729,1.674191 -2.6686,1.696358 -2.6686,0.09073 0,-1.403879 -0.90475,-1.219229 -2.6686,0.544626 -1.46773,1.46773 -2.6686,3.679376 -2.6686,4.91476 0,1.2607 -1.14601,0.731036 -2.61203,-1.207221 -2.79036,-3.689197 -3.19244,-2.946063 -2.94433,5.441933 0.13556,4.581434 -0.0721,4.833367 -1.46553,1.779066 -1.43656,-3.148698 -1.66563,-2.943981 -1.99068,1.779066 -0.29081,4.225532 -0.52634,4.515431 -1.13078,1.3918 -0.66092,-3.415541 -1.2257,-3.656729 -4.20539,-1.795879 -1.89305,1.182225 -3.44193,3.958387 -3.44193,6.169233 0,2.210846 -0.91497,4.019711 -2.03327,4.019711 -1.43685,0 -1.74715,4.174669 -1.05784,14.231553 0.5365,7.82734 0.31575,14.639261 -0.49056,15.137578 -4.66448,2.882814 -5.46018,-44.821994 -1.07788,-64.622007 4.45124,-20.1114563 4.26788,-20.9054893 -5.38909,-23.3371523 -4.69277,-1.181656 -8.9394,-1.412472 -9.81823,-0.533649 -2.31773,2.317732 -8.85882,25.4276273 -8.92949,31.5481493 -0.0338,2.935459 -0.4665,4.257626 -0.96135,2.938145 -0.90051,-2.401116 -8.48839,11.665001 -7.84348,14.53999 0.18092,0.806593 -0.49146,0.959486 -1.49418,0.339766 -1.00274,-0.619667 -1.82315,-0.278887 -1.82315,0.757348 0,1.036235 -1.00073,1.88912 -2.22383,1.895311 -1.22311,0.0071 -3.61446,2.454702 -5.31411,5.44115 -3.0134,5.294804 -2.98874,5.531455 0.9906,9.5108 2.24451,2.244506 5.23629,4.489865 6.64842,4.989694 1.41214,0.499829 1.9217,1.597495 1.13234,2.43926 -4.95459,5.283614 -18.93762,-14.146193 -26.35765,-36.624679 -2.09944,-6.360162 -4.20238,-12.236916 -4.67318,-13.059468 -0.4708,-0.822533 -3.82639,1.404982 -7.45686,4.950039 -3.63047,3.545057 -9.74287,7.333062 -13.58312,8.417777 -3.84025,1.084715 -6.02652,2.311399 -4.85838,2.725939 1.16814,0.414558 1.68292,1.902872 1.14396,3.307391 -0.63302,1.649622 0.18962,2.563297 2.32378,2.580892 2.52543,0.02081 2.73655,0.386626 0.89619,1.552822 -1.78437,1.130704 -1.93162,2.41478 -0.5689,4.961051 1.06478,1.989566 1.19676,4.473996 0.31359,5.903014 -0.93657,1.515391 -0.48822,4.472501 1.16192,7.663524 3.14403,6.07987 3.53162,18.912472 0.72937,24.148537 -1.11358,2.08074 -5.19157,4.528567 -9.45856,5.677567 -13.30085,3.58154 -23.33188,9.82115 -29.42189,18.30134 -9.178946,12.78147 -11.055984,18.95894 -11.007914,36.22791 0.05093,18.29692 2.474398,30.74065 6.594248,33.85941 3.860996,2.92281 3.980006,2.90219 11.184706,-1.93796 z m 18.03978,-22.52421 c 0,-2.44621 0.4038,-3.44694 0.89734,-2.22383 0.49353,1.22311 0.49353,3.22456 0,4.44767 -0.49354,1.22311 -0.89734,0.22238 -0.89734,-2.22384 z m 15.7307,-7.11626 c 0,-1.95697 0.72563,-3.55813 1.61251,-3.55813 0.88688,0 1.19379,1.60116 0.68204,3.55813 -0.51176,1.95697 -1.2374,3.55813 -1.61252,3.55813 -0.37512,0 -0.68203,-1.60116 -0.68203,-3.55813 z m 74.72078,-14.23253 c -2.28058,-1.47383 -2.21591,-1.72854 0.44477,-1.75183 1.71235,-0.0142 3.11337,0.77334 3.11337,1.75183 0,2.16976 -0.20066,2.16976 -3.55814,0 z m -37.21993,-6.37498 c 0.0854,-2.07253 0.50692,-2.49408 1.07484,-1.07486 0.51392,1.28425 0.45072,2.81871 -0.14037,3.40988 -0.59118,0.59117 -1.01165,-0.4596 -0.9344,-2.33502 z m 7.00304,1.48255 c 0.0142,-0.73387 0.78012,-2.52509 1.70033,-3.98047 1.31489,-2.07968 1.60888,-1.79401 1.37322,1.3343 -0.26572,3.52762 -3.14209,6.00405 -3.07355,2.64617 z m 44.60171,-7.56104 c -0.0537,-1.46773 0.67825,-3.86947 1.62678,-5.3372 2.10165,-3.25208 2.10165,-0.44313 0,4.44767 -1.00816,2.34613 -1.56229,2.64912 -1.62678,0.88953 z M 138.32362,56.124267 c 0,-0.384563 1.24245,-1.175962 2.761,-1.758696 1.58324,-0.607533 2.29735,-0.30929 1.67408,0.699191 -1.04478,1.690487 -4.43508,2.500389 -4.43508,1.059505 z M 20.015713,177.79997 c 0.604739,-0.97849 0.251696,-1.77907 -0.784538,-1.77907 -1.036233,0 -1.884061,0.80058 -1.884061,1.77907 0,0.97849 0.353041,1.77907 0.784538,1.77907 0.431496,0 1.279323,-0.80058 1.884061,-1.77907 z m 2.6686,-8.89533 c 2.06828,-1.33663 2.123997,-1.73071 0.247674,-1.75183 -1.479658,-0.016 -0.787948,-1.4517 1.779067,-3.69096 l 4.199991,-3.66372 -4.877157,2.96878 c -2.682437,1.63285 -4.478754,3.61343 -3.991814,4.4013 0.486937,0.7879 -0.120372,1.83799 -1.349575,2.33355 -1.229205,0.49558 -1.434339,0.95198 -0.455852,1.01425 0.978486,0.0623 2.979936,-0.66285 4.447666,-1.61137 z M 180.11039,152.85858 c -0.48973,-0.7924 0.0749,-1.76245 1.25456,-2.1557 1.33033,-0.44345 0.9616,-1.16907 -0.97085,-1.91064 -1.86303,-0.7149 -2.67878,-0.48852 -2.02889,0.56304 0.5978,0.96728 0.37254,1.75869 -0.50063,1.75869 -0.87314,0 -1.58755,1.12455 -1.58755,2.49899 0,1.37443 1.06285,2.09113 2.36187,1.59263 1.29904,-0.49847 1.96119,-1.55463 1.47149,-2.34701 z m 7.18463,-1.40102 c -0.54775,-0.54775 -1.98328,-0.001 -3.19009,1.21472 -1.74395,1.75704 -1.53961,1.96138 0.99592,0.99592 1.75455,-0.6681 2.74193,-1.6629 2.19417,-2.21064 z m 3.58422,-2.00429 c -0.64499,-1.04358 -2.52646,-1.80456 -4.18106,-1.69106 -2.71219,0.18606 -2.70185,0.28649 0.10497,1.01999 1.71235,0.44747 3.11336,1.68891 3.11336,2.75873 0,1.06982 0.48046,1.46467 1.06769,0.87745 0.58722,-0.58723 0.53997,-1.92153 -0.10496,-2.96511 z m 26.65539,-18.0431 c 1.71476,-5.40274 -0.0178,-5.95711 -2.38402,-0.76299 -1.11645,2.45037 -1.30044,4.4552 -0.40888,4.4552 0.89158,0 2.14838,-1.66149 2.7929,-3.69221 z M 134.53856,89.403092 c -2.13819,-2.628607 -2.0547,-2.856683 0.6717,-1.834912 1.71235,0.641745 3.11336,0.391342 3.11336,-0.556438 0,-0.947762 -0.80058,-1.723222 -1.77906,-1.723222 -0.97849,0 -1.77907,-0.847832 -1.77907,-1.884067 0,-1.036235 0.62903,-1.495305 1.39784,-1.020152 0.76881,0.475153 1.39784,-0.678465 1.39784,-2.563599 0,-4.408295 -0.34807,-4.322651 -3.79173,0.933049 -2.94444,4.493762 -2.12509,11.651035 1.33377,11.651035 1.09354,0 0.85785,-1.252926 -0.56465,-3.001694 z m 0.0958,-18.347103 c 0.0144,-2.145376 -0.4454,-2.058166 -2.34539,0.444767 -3.1284,4.121154 -5.14952,3.964133 -3.79771,-0.295041 0.59498,-1.874637 0.42553,-3.813998 -0.37655,-4.309717 -0.80209,-0.495719 -1.35148,2.038793 -1.22086,5.63224 0.50275,13.831298 0.65846,14.099279 4.31352,7.423083 1.87495,-3.424703 3.41709,-7.427602 3.42699,-8.895332 z M 249.50268,39.053165 c 0.62328,-1.008482 -0.0909,-1.306724 -1.67406,-0.699191 -3.08209,1.182705 -3.646,2.457887 -1.08694,2.457887 0.92074,0 2.1632,-0.791418 2.761,-1.758696 z m -105.99195,-5.35757 c 0.16486,2.150589 0.49691,2.20743 1.71054,0.292817 0.82828,-1.306689 2.21704,-2.265125 3.08612,-2.129863 0.86909,0.135209 1.82335,-1.197383 2.12057,-2.961416 0.45666,-2.710301 0.25411,-2.793792 -1.30706,-0.538737 -1.0161,1.46773 -1.85972,2.040002 -1.8747,1.271713 -0.015,-0.768308 -1.6284,-0.539983 -3.58538,0.507354 -2.03263,1.087828 -3.4821,3.593607 -3.38079,5.844553 0.16714,3.713961 0.25916,3.68482 1.60173,-0.507354 0.78341,-2.446216 1.51645,-3.246796 1.62897,-1.779067 z m 13.2872,-10.674398 c 1.72487,-2.318942 1.57701,-2.34867 -1.12841,-0.226938 -1.71235,1.342929 -3.05016,3.744668 -2.97291,5.3372 0.11749,2.422109 0.30198,2.459221 1.12841,0.226937 0.54338,-1.467729 1.88119,-3.869469 2.97291,-5.337199 z"
     id="path12543"
     inkscape:connector-curvature="0" />
</svg>
