<?xml version="1.0" encoding="UTF-8" standalone="no"?>
<!-- Created with Inkscape (http://www.inkscape.org/) -->

<svg
   xmlns:dc="http://purl.org/dc/elements/1.1/"
   xmlns:cc="http://creativecommons.org/ns#"
   xmlns:rdf="http://www.w3.org/1999/02/22-rdf-syntax-ns#"
   xmlns:svg="http://www.w3.org/2000/svg"
   xmlns="http://www.w3.org/2000/svg"
   xmlns:sodipodi="http://sodipodi.sourceforge.net/DTD/sodipodi-0.dtd"
   xmlns:inkscape="http://www.inkscape.org/namespaces/inkscape"
   id="svg11928"
   version="1.1"
   inkscape:version="0.48.4 r9939"
   width="193"
   height="201"
   sodipodi:docname="HygieneKit.png">
  <metadata
     id="metadata11934">
    <rdf:RDF>
      <cc:Work
         rdf:about="">
        <dc:format>image/svg+xml</dc:format>
        <dc:type
           rdf:resource="http://purl.org/dc/dcmitype/StillImage" />
        <dc:title></dc:title>
      </cc:Work>
    </rdf:RDF>
  </metadata>
  <defs
     id="defs11932" />
  <sodipodi:namedview
     pagecolor="#ffffff"
     bordercolor="#666666"
     borderopacity="1"
     objecttolerance="10"
     gridtolerance="10"
     guidetolerance="10"
     inkscape:pageopacity="0"
     inkscape:pageshadow="2"
     inkscape:window-width="1252"
     inkscape:window-height="744"
     id="namedview11930"
     showgrid="false"
     inkscape:zoom="1.6604697"
     inkscape:cx="174.7911"
     inkscape:cy="34.253682"
     inkscape:window-x="2"
     inkscape:window-y="22"
     inkscape:window-maximized="0"
     inkscape:current-layer="svg11928" />
  <path
     style="fill:#6284e7;fill-opacity:1;stroke:none"
     d="m 106.29523,138.066 c 4.97687,11.44255 11.48943,22.88509 20.47613,34.32764 16.89693,-1.08234 33.80196,1.65196 49.98586,-4.06512 8.75975,-9.56323 8.24139,-25.58766 12.3459,-38.39275 l -8.13023,-9.93695 c -18.73153,-1.14326 -36.57352,-0.11046 -53.29817,1.95728 -11.82581,3.09515 -16.09136,9.57465 -21.37949,16.1099 z"
     id="path12460"
     inkscape:connector-curvature="0"
     sodipodi:nodetypes="ccccccc" />
  <path
     style="fill:#a5551e;fill-opacity:1;stroke:none"
     d="m 130.83648,68.356805 25.44461,2.258397 9.93694,18.217738 c -6.53106,6.49706 -13.06982,12.96331 -20.77725,14.75486 -9.25837,-0.45874 -18.88833,0.30345 -25.44461,-9.033588 z"
     id="path12458"
     inkscape:connector-curvature="0"
     sodipodi:nodetypes="cccccc" />
  <path
     style="fill:#9b9b9b;fill-opacity:1;stroke:none"
     d="m 36.586034,130.98969 c 1.082447,-4.1153 1.25815,-8.23061 4.968474,-12.34591 6.777772,-4.56608 9.449112,0.84061 13.700943,2.40896 4.914261,-2.24838 9.088172,-5.73068 16.26046,-4.21568 3.461194,3.61344 1.794679,7.22687 2.408957,10.84031 z"
     id="path12454"
     inkscape:connector-curvature="0"
     sodipodi:nodetypes="cccccc" />
  <path
     style="fill:#75311c;fill-opacity:1;stroke:none"
     d="m 37.790513,34.631407 c -2.620768,-0.59132 -1.934677,-2.802962 -1.957278,-4.667354 10.438814,-0.632418 20.877627,-3.423218 31.316441,-1.204479 -0.289588,2.007464 -0.233855,4.014929 -1.656157,6.022393 -5.219238,17.452518 -5.646327,38.499149 -6.172953,59.471126 6.366583,5.047313 4.562833,14.179797 6.624632,21.379497 l -10.990866,4.96847 -11.291986,-4.51679 4.366234,-8.58191 C 43.888839,102.9135 47.451497,99.287445 49.383619,95.457571 49.022136,77.260308 48.401037,59.060875 40.952269,40.804359 z"
     id="path12452"
     inkscape:connector-curvature="0"
     sodipodi:nodetypes="cccccccccccc" />
  <path
     style="fill:#eac90f;fill-opacity:1;stroke:none"
     d="M 86.120213,27.856215 C 81.655533,23.578808 74.517545,19.711604 91.239246,8.8856791 101.25478,10.779174 106.46995,14.445031 102.07955,23.941661 98.414822,27.678902 92.990784,28.927738 86.120213,27.856215 z"
     id="path11940"
     inkscape:connector-curvature="0"
     sodipodi:nodetypes="cccc" />
  <path
     style="fill:#75311c;fill-opacity:1;stroke:none"
     d="m 129.33088,28.157335 0.45168,-6.323512 c 9.19808,-3.491901 18.38064,-3.430162 27.55244,-0.903359 -0.51271,3.98063 0.75711,7.706614 -2.25839,12.044785 -6.4304,5.671086 -0.97349,11.342173 2.10783,17.013259 2.58829,6.651382 -0.0566,13.341819 -1.65615,20.024455 L 129.93312,68.206245 127.3736,55.107541 c 3.50549,-6.074472 6.37002,-12.309185 5.11904,-19.572775 -0.57165,-2.427491 -3.67281,-4.822168 -3.16176,-7.377431 z"
     id="path12456"
     inkscape:connector-curvature="0"
     sodipodi:nodetypes="cccccccccc" />
  <path
     style="fill:#eac90f;fill-opacity:1;stroke:#000000;stroke-width:1px;stroke-linecap:butt;stroke-linejoin:miter;stroke-opacity:1"
     d="m 86.421333,28.157335 c 0.762369,1.304852 1.772137,2.609703 0.602239,3.914555 l -58.116088,5.119034 0.30112,2.258397 59.170006,-2.258397 c 1.196402,34.377825 1.655805,68.755646 0.45168,103.133476 -11.804603,3.19474 -23.861147,5.98638 -27.853566,21.68061 1.014351,17.77375 21.305479,15.85167 40.199466,15.3571 8.41667,-1.72715 21.85564,-1.22208 24.54125,-6.17295 l -20.92781,-32.9726 -5.119034,1.20448 C 96.190676,105.67225 95.538371,71.640702 96.057161,37.492043 l 59.170009,-3.613435 -1.5056,-3.763995 -58.266649,1.957277 c -0.624738,-1.756531 0.805834,-3.513062 2.559517,-5.269593 z"
     id="path12450"
     inkscape:connector-curvature="0"
     sodipodi:nodetypes="ccccccccccccccccc" />
  <path
     style="fill:#000000"
     d="m 76.980436,177.90297 c -11.93892,-3.00608 -16.92975,-7.18915 -17.11744,-14.34697 -0.23533,-8.97503 6.56538,-16.36856 20.0453,-21.79265 l 7.81204,-3.14343 0.89459,-7.85657 c 0.55662,-4.88843 0.45508,-21.26815 -0.26878,-43.356573 -0.63986,-19.524997 -1.15492,-38.740592 -1.14459,-42.701319 l 0.0188,-7.201321 -8.75,0.514549 c -4.8125,0.283002 -9.71943,0.708862 -10.9043,0.946356 -3.96564,0.794869 -5.37676,7.747576 -6.56476,32.345076 -1.01519,21.019719 -0.97242,22.483479 0.69258,23.700949 1.171,0.85626 2.05732,3.44009 2.60584,7.596663 1.52657,11.56805 1.94428,12.79905 4.34301,12.79905 4.08938,0 5.94814,2.35709 6.2011,7.86362 0.12901,2.80835 -0.071,5.28835 -0.44445,5.51112 -0.37346,0.22276 -5.85402,0.70759 -12.17902,1.07738 -12.46642,0.72886 -23.36034,2.03452 -24.89647,2.9839 -3.83939,2.37287 -1.16389,-11.36599 2.87527,-14.76472 1.4476,-1.21808 2.96223,-2.87993 3.36583,-3.693 0.4036,-0.81306 1.36204,-2.5748 2.12987,-3.91497 0.94524,-1.64981 1.09404,-3.00101 0.46078,-4.18426 -1.49635,-2.79596 -1.08907,-6.08646 1.03294,-8.345233 1.86566,-1.98591 1.91787,-2.82293 1.00207,-16.064455 -0.67706,-9.789468 -1.93923,-17.859238 -4.21822,-26.969382 l -3.25207,-13 -7.42135,-0.5 c -4.08174,-0.275 -7.56192,-0.95 -7.73374,-1.5 -0.63657,-2.037701 1.48155,-3.667036 5.46098,-4.20079 3.8447,-0.515682 4.06057,-0.716906 3.54338,-3.302893 -0.30292,-1.514566 -0.12556,-3.016544 0.39413,-3.337729 0.51969,-0.321185 5.85253,-0.832909 11.85075,-1.137164 5.99822,-0.304255 12.96244,-0.802143 15.47605,-1.106417 4.68689,-0.56735 7.90523,1.197707 6.45688,3.541188 -0.94464,1.528458 -2.52708,1.273274 -2.52708,-0.407517 0,-1.195182 -1.54426,-1.36485 -8.75,-0.961363 -18.76105,1.050531 -21.38798,1.455959 -21.04745,3.248364 0.42131,2.217668 8.08213,2.68007 21.29745,1.285501 5.5,-0.580397 16.975,-1.337625 25.5,-1.682729 8.525,-0.345105 22.025004,-1.155034 30.000004,-1.799842 12.80057,-1.034972 14.46587,-1.374177 14.20876,-2.89418 -0.47443,-2.804825 1.71984,-5.816648 5.33961,-7.329087 3.99162,-1.667803 20.60945,-1.93643 23.51737,-0.380158 1.91861,1.026809 2.5081,4.30585 1.32727,7.383029 -1.11294,2.900275 -2.27489,1.628778 -1.70739,-1.868352 0.50251,-3.096596 0.28972,-3.517947 -2.07659,-4.111851 -1.45005,-0.363941 -6.79279,-0.361509 -11.87275,0.0054 -9.73688,0.703273 -13.4718,2.476265 -12.19971,5.791285 0.50528,1.316738 2.72737,1.660248 12.50599,1.933277 9.87862,0.275822 12.19333,0.63917 13.67448,2.146537 1.71209,1.742387 1.69091,1.889999 -0.53289,3.713613 -3.41196,2.797966 -3.16247,7.093595 0.66519,11.453068 4.08657,4.654345 4.46645,9.494661 1.50598,19.188976 -1.55751,5.100204 -1.54536,5.215232 0.89782,8.5 4.0838,5.490521 8.01089,12.829831 6.86493,12.829831 -0.58958,0 -1.82237,-1.2375 -2.73952,-2.750001 -0.91716,-1.5125 -3.20386,-5.071154 -5.08155,-7.90812 l -3.41399,-5.15812 -9.69151,-0.479684 c -5.33032,-0.263826 -10.56054,-0.642672 -11.62269,-0.84188 -1.53676,-0.288222 -2.20195,0.556878 -3.25692,4.137804 -0.72915,2.475 -1.95937,5.85 -2.73382,7.5 -0.77444,1.65 -2.57716,5.656671 -4.00603,8.903711 -1.42887,3.24705 -2.88456,5.6171 -3.23487,5.26679 -0.35031,-0.35031 1.50395,-5.6515 4.12058,-11.780424 5.0668,-11.867975 5.55742,-15.183792 3.47867,-23.510528 -1.21861,-4.881322 -1.15507,-5.33074 1.36057,-9.623346 2.78631,-4.754478 4.30593,-11.530935 2.98789,-13.32388 -0.82673,-1.124607 -32.910364,-0.14017 -34.096744,1.046206 -0.93948,0.939478 -0.23989,72.969725 0.76045,78.296425 0.48804,2.59878 1.20737,8.43755 1.59851,12.97505 0.602904,6.99414 0.983504,8.25 2.500244,8.25 2.73322,0 4.95266,-1.08037 4.95266,-2.41082 0,-2.11779 6.31905,-7.2919 12.94186,-10.59694 9.0283,-4.50547 19.08825,-5.98256 40.49972,-5.94653 15.06037,0.0254 18.59333,0.31918 22,1.82973 2.23213,0.98974 4.56015,2.43516 5.17337,3.21204 2.15616,2.73162 2.27135,10.08517 0.30274,19.32584 -3.65126,17.13899 -6.41172,22.97964 -12.75278,26.98258 -5.80842,3.66669 -11.84542,4.34391 -31.13436,3.49257 -13.49628,-0.59567 -17.94123,-0.47683 -19.94818,0.53333 -8.55446,4.30574 -36.758974,6.73411 -47.322274,4.07439 z m 23.739904,-1.48644 c 9.64839,-0.75971 21.78633,-3.08814 23.26789,-4.4635 0.51465,-0.47777 -2.29437,-5.16384 -5.58486,-9.3168 -1.82433,-2.3025 -4.90763,-7.90856 -6.85177,-12.45791 -3.81288,-8.92224 -5.38098,-10.77154 -9.13368,-10.77154 -2.25167,0 -2.3725,0.26107 -1.73554,3.75 0.37654,2.0625 1.55162,5.23822 2.61129,7.05716 2.12319,3.64449 2.56606,6.70604 0.81336,5.62281 -2.33039,-1.44026 -4.917414,-9.53645 -5.459214,-17.08484 -0.3097,-4.31482 -1.20642,-13.24513 -1.99271,-19.84513 -0.9166,-7.69393 -1.52024,-24.469393 -1.68219,-46.749237 l -0.25258,-34.749236 -2.81898,-7.64e-4 -2.81899,-7.63e-4 0.81899,25.25 c 1.22153,37.66084 0.85069,85.86512 -0.71064,92.37347 -1.37783,5.74347 -3.69238,7.67204 -2.55212,2.12653 0.36755,-1.7875 0.94364,-6.1136 1.28021,-9.61354 l 0.61195,-6.36355 -3.40521,0.70287 c -1.87286,0.38657 -6.31391,2.12517 -9.869,3.86354 -7.79529,3.81176 -11.99279,9.0959 -12.78111,16.08985 -0.44462,3.9446 -0.16076,5.04455 1.86011,7.20791 3.35515,3.59173 7.09077,5.3276 14.74723,6.85278 8.35229,1.66378 7.4004,1.64091 21.637564,0.51989 z m 72.5,-7.68687 c 2.475,-1.09882 5.01403,-2.63348 5.64229,-3.41036 1.4683,-1.81566 5.79413,-15.65686 7.31717,-23.41252 0.64805,-3.3 1.39884,-6.77563 1.66843,-7.72363 0.52091,-1.8318 0.85055,-1.90235 -8.12789,1.73963 -1.1,0.44619 -2.3375,0.90638 -2.75,1.02263 -0.4125,0.11626 -0.8625,0.29799 -1,0.40386 -0.1375,0.10587 -1.825,0.38489 -3.75,0.62004 -1.925,0.23515 -7.55,1.0768 -12.5,1.87033 -4.95,0.79352 -11.8125,1.73994 -15.25,2.10314 -3.4375,0.36321 -6.25,1.09275 -6.25,1.6212 0,0.53348 -0.55597,0.601 -1.25,0.15182 -1.57501,-1.01937 -25.74458,-1.07477 -25.7477,-0.059 -0.001,0.4125 3.34614,0.75 7.43868,0.75 4.41997,0 7.72243,0.45539 8.1342,1.12165 0.50208,0.81237 -1.4326,0.94287 -7.0165,0.4733 -5.17449,-0.43515 -7.50106,-0.31073 -7.07518,0.37835 0.34899,0.56469 3.73142,1.0267 7.5165,1.0267 3.78508,0 7.16008,0.45 7.5,1 0.38973,0.63059 -1.98962,1 -6.44098,1 -4.22087,0 -7.05902,0.41819 -7.05902,1.04012 0,0.64355 2.6565,0.94884 6.96737,0.8007 3.83205,-0.13168 7.28205,0.0753 7.66666,0.45988 0.68331,0.68331 -5.40181,1.09138 -10.88403,0.7299 -3.39541,-0.22389 -3.42543,0.51114 -0.21395,5.23727 2.52468,3.7154 2.56839,3.73245 9.75,3.80242 3.96767,0.0386 8.11395,0.47837 9.21395,0.97715 1.27549,0.57835 -1.07917,0.69489 -6.5,0.32173 l -8.5,-0.58513 2.59532,2.68057 c 2.29598,2.37141 3.56469,2.7428 11,3.22007 10.07701,0.64685 12.03513,1.53456 2.89913,1.31432 -9.07597,-0.21879 -11.27834,0.16969 -5.99445,1.05739 2.475,0.41579 11.7,0.64537 20.5,0.51017 13.4719,-0.20698 16.71103,-0.5615 20.5,-2.24368 z m -42.75,-2.13038 c -2.3375,-0.16912 -4.25,-0.6798 -4.25,-1.13485 0,-0.69893 12.9246,-0.27328 13.79636,0.45437 0.63831,0.53279 -5.52021,0.97178 -9.54636,0.68048 z m -7,-6.9159 c -5.82117,-0.7224 -3.42561,-1.78544 3.2479,-1.44127 3.57616,0.18443 6.5021,0.74693 6.5021,1.25 0,0.90493 -3.45334,0.97268 -9.75,0.19127 z m -6.25,-4.2766 c 0,-1.207 8.69117,-1.207 11.5,0 1.39213,0.59822 -0.0516,0.88079 -4.75,0.92971 -3.88019,0.0404 -6.75,-0.35487 -6.75,-0.92971 z m 2.72917,-15.60417 c -0.3323,-0.33229 -1.1948,-0.36781 -1.91667,-0.0789 -0.79773,0.31922 -0.56078,0.55618 0.60417,0.60416 1.05416,0.0434 1.64479,-0.19293 1.3125,-0.52522 z m 3.27083,-0.89583 c -0.68469,-0.825 -1.75229,-1.48569 -2.37244,-1.4682 -0.62016,0.0175 -0.25405,0.6925 0.81357,1.5 2.49367,1.88612 3.13966,1.87294 1.55887,-0.0318 z m 8.25,0.83772 c -0.6875,-0.27741 -1.8125,-0.27741 -2.5,0 -0.6875,0.27741 -0.125,0.50439 1.25,0.50439 1.375,0 1.9375,-0.22698 1.25,-0.50439 z m 6.49208,-0.42225 c -0.96686,-0.56304 -2.20436,-0.7478 -2.75,-0.41058 -0.54564,0.33723 -0.99208,-0.26527 -0.99208,-1.33888 0,-1.07362 -0.675,-2.21105 -1.5,-2.52764 -0.825,-0.31658 -1.5,-0.0627 -1.5,0.56427 0,2.13237 3.30134,4.79746 5.90499,4.76695 2.2527,-0.0264 2.36312,-0.16544 0.83709,-1.05412 z m 8.63422,0.28468 c 0.27188,-0.43992 -0.37656,-1.34373 -1.44098,-2.00847 -1.06443,-0.66475 -1.93532,-1.01662 -1.93532,-0.78194 0,0.23468 -0.27314,1.13849 -0.60699,2.00847 -0.43173,1.12506 -0.0157,1.58179 1.44098,1.58179 1.12639,0 2.27043,-0.35993 2.54231,-0.79985 z m -33.3763,-0.59316 c 0,-0.21616 -0.675,-0.65203 -1.5,-0.96862 -0.825,-0.31658 -1.5,-0.13972 -1.5,0.39301 0,0.53274 0.675,0.96862 1.5,0.96862 0.825,0 1.5,-0.17686 1.5,-0.39301 z m 14.32115,-2.89638 c -0.30596,-0.49505 -0.98743,-0.44433 -1.54689,0.11513 -0.55,0.55 -0.66795,1.53725 -0.26213,2.19389 0.56061,0.90708 0.93223,0.87942 1.54689,-0.11512 0.44496,-0.71996 0.56292,-1.70721 0.26213,-2.1939 z m 26.39302,2.66847 c 2.04874,-0.54925 2.0921,-0.71567 0.58035,-2.22741 -1.19529,-1.1953 -1.74484,-1.30071 -2.0475,-0.39274 -0.22753,0.68259 -0.85651,1.24107 -1.39774,1.24107 -0.54123,0 -0.71857,-0.83647 -0.39409,-1.85882 0.32513,-1.02438 -0.0254,-2.36951 -0.78082,-2.99647 -1.05753,-0.87767 -1.77941,-0.68613 -3.15887,0.83816 -1.7265,1.90777 -1.7059,2.04426 0.59821,3.9632 2.60564,2.17008 3.29386,2.31949 6.60046,1.43301 z m -11.71417,-2.87908 c 0,-1.47762 -2.7388,-2.77947 -4.09024,-1.94423 -1.32959,0.82173 -1.11101,3.20736 0.34024,3.71359 1.81339,0.63255 3.75,-0.2812 3.75,-1.76936 z m 17.41655,0.14313 c -0.34679,-0.90372 -1.03238,-1.64313 -1.52354,-1.64313 -1.36452,0 -1.06272,2.77272 0.35699,3.27976 1.69032,0.60369 1.90868,0.29733 1.16655,-1.63663 z m -45.41655,0.35687 c 0,-0.55 -0.47656,-1 -1.05902,-1 -0.58246,0 -0.7809,0.45 -0.44098,1 0.33992,0.55 0.81648,1 1.05902,1 0.24254,0 0.44098,-0.45 0.44098,-1 z m 10.075,-1.275 c -0.12369,-1.1957 -1.49529,-0.96414 -1.925,0.325 -0.22,0.66 0.14,1.02 0.8,0.8 0.66,-0.22 1.16625,-0.72625 1.125,-1.125 z m 40.925,-0.225 c 0,-0.825 -0.45,-1.5 -1,-1.5 -0.55,0 -1,0.675 -1,1.5 0,0.825 0.45,1.5 1,1.5 0.55,0 1,-0.675 1,-1.5 z m 7.85185,0.61273 c 1.062,-0.67298 0.86626,-1.19677 -0.91297,-2.44299 -2.78336,-1.94954 -4.30455,-1.22153 -2.9064,1.39095 1.1459,2.14114 1.81141,2.32445 3.81937,1.05204 z m -42.85185,-2.17175 c 0,-0.51754 -0.45,-0.94098 -1,-0.94098 -0.55,0 -1,0.70156 -1,1.55902 0,0.85746 0.45,1.2809 1,0.94098 0.55,-0.33992 1,-1.04148 1,-1.55902 z m -14.5,0.059 c -0.33992,-0.55 -1.06803,-1 -1.61803,-1 -0.55,0 -0.72189,0.45 -0.38197,1 0.33992,0.55 1.06803,1 1.61803,1 0.55,0 0.72189,-0.45 0.38197,-1 z m 20.91655,-0.64313 c 0.34679,-0.90372 0.40581,-1.86784 0.13115,-2.1425 -0.79607,-0.79608 -3.58391,1.91803 -2.97767,2.89894 0.85809,1.38841 2.1558,1.04356 2.84652,-0.75644 z m 9.58345,-1.94413 c 0,-0.73831 -0.87597,-1.81118 -1.94661,-2.38417 -1.53102,-0.81937 -2.15641,-0.6669 -2.92931,0.71419 -1.34967,2.41172 1.53257,5.78708 3.52771,4.13126 0.74152,-0.6154 1.34821,-1.72298 1.34821,-2.46128 z m 10,1.46923 c 0,-0.55 -0.45,-0.72189 -1,-0.38197 -0.55,0.33992 -1,1.06803 -1,1.61803 0,0.55 0.45,0.72189 1,0.38197 0.55,-0.33992 1,-1.06803 1,-1.61803 z m 23.5,1.11803 c 0.33992,-0.55 0.14148,-1 -0.44098,-1 -0.58246,0 -1.05902,0.45 -1.05902,1 0,0.55 0.19844,1 0.44098,1 0.24254,0 0.7191,-0.45 1.05902,-1 z m -58,-1 c 0.33992,-0.55 0.16803,-1 -0.38197,-1 -0.55,0 -1.27811,0.45 -1.61803,1 -0.33992,0.55 -0.16803,1 0.38197,1 0.55,0 1.27811,-0.45 1.61803,-1 z m 40.3125,-0.9375 c 0.25,-0.75 -0.125,-1.125 -0.875,-0.875 -0.72188,0.24062 -1.50938,1.02812 -1.75,1.75 -0.25,0.75 0.125,1.125 0.875,0.875 0.72187,-0.24063 1.50937,-1.02813 1.75,-1.75 z m 14.74984,0.83663 c 0.3742,-0.60547 -0.26924,-2.05047 -1.42987,-3.21111 -1.62895,-1.62894 -2.38109,-1.8394 -3.29773,-0.92276 -0.91664,0.91664 -0.76979,1.64903 0.64388,3.21111 2.06945,2.28672 3.09722,2.51896 4.08372,0.92276 z m -58.05558,-2.87783 c -0.40696,-1.28221 -0.0855,-1.76821 1.10169,-1.66584 0.92196,0.0795 1.87473,-0.41796 2.11725,-1.10546 0.66232,-1.87746 -1.12814,-1.50788 -4.12848,0.85219 -2.10601,1.65659 -2.42853,2.39614 -1.52155,3.48899 1.50733,1.81622 3.16588,0.74522 2.43109,-1.56988 z m 8.31824,1.4537 c -0.17875,-0.53625 -0.8875,-0.9125 -1.575,-0.83611 -0.6875,0.0764 -1.25,-0.48611 -1.25,-1.25 0,-0.76389 -0.45,-1.38889 -1,-1.38889 -1.60365,0 -1.15377,2.16297 0.75,3.6059 1.92915,1.46217 3.58256,1.39179 3.075,-0.1309 z m 26.73431,0.42904 c 0.37254,-0.60278 -0.0672,-1.84028 -0.97715,-2.75 -1.43372,-1.43333 -1.77547,-1.45836 -2.56112,-0.18758 -0.5639,0.91209 -0.50394,1.95169 0.15861,2.75 1.30516,1.57262 2.48324,1.63801 3.37966,0.18758 z m 14.25319,-0.84154 c 0.25,-0.75 -0.125,-1.125 -0.875,-0.875 -0.72188,0.24062 -1.50938,1.02813 -1.75,1.75 -0.25,0.75 0.125,1.125 0.875,0.875 0.72187,-0.24063 1.50937,-1.02813 1.75,-1.75 z m 14.1875,0.9375 c 0,-0.55 -0.47656,-1 -1.05902,-1 -0.58246,0 -0.7809,0.45 -0.44098,1 0.33992,0.55 0.81648,1 1.05902,1 0.24254,0 0.44098,-0.45 0.44098,-1 z m -48.67589,-1.40223 c 0.62512,-1.62905 -0.21476,-2.78338 -1.46359,-2.01157 -1.13593,0.70205 -1.11012,3.4138 0.0325,3.4138 0.49116,0 1.13515,-0.63101 1.4311,-1.40223 z m 25.67589,-0.0978 c 1.01957,-1.22851 0.95124,-1.5 -0.37756,-1.5 -0.89234,0 -1.62244,0.675 -1.62244,1.5 0,0.825 0.1699,1.5 0.37756,1.5 0.20765,0 0.93775,-0.675 1.62244,-1.5 z m -99.500004,-2.13192 c 6.87861,-0.38211 12.31356,-1.13638 12.73469,-1.76734 1.24648,-1.86753 0.84374,-5.37946 -0.80612,-7.02931 -2.17949,-2.17949 -8.32813,-2.00199 -10.86412,0.31363 -3.55102,3.24247 -6.04144,3.4259 -9.29891,0.68492 -2.59946,-2.1873 -3.3961,-2.37271 -6.50563,-1.51413 -4.27225,1.17962 -5.16864,2.22273 -6.46323,7.52105 l -0.99614,4.0769 5.09973,-0.80956 c 2.80485,-0.44526 10.49973,-1.10953 17.09973,-1.47616 z m -17.19395,-2.01292 c -0.31439,-0.81928 -0.0619,-1.99935 0.56117,-2.62238 0.84371,-0.84371 1.13278,-0.82655 1.13278,0.0672 0,0.66 0.675,1.2 1.5,1.2 2.22648,0 1.81665,1.68393 -0.56117,2.30575 -1.29075,0.33753 -2.27482,-0.0178 -2.63278,-0.95059 z m 122.694694,1.24558 c -0.7787,-0.7787 -1.33537,-0.67733 -1.9764,0.35987 -1.25637,2.03286 -0.13681,3.37762 1.60707,1.93033 1.044,-0.86644 1.14803,-1.5115 0.36933,-2.2902 z m -34.2861,-1.21943 c -0.95892,-0.95892 -3.8104,1.65472 -3.08531,2.82796 0.36126,0.58453 1.24428,0.34569 2.17947,-0.5895 0.86468,-0.86468 1.27231,-1.87199 0.90584,-2.23846 z m 9.15424,2.27668 c 0.61257,-0.7381 0.82158,-1.6342 0.46445,-1.99132 -0.75049,-0.7505 -3.33333,1.15236 -3.33333,2.45577 0,1.31658 1.60662,1.05648 2.86888,-0.46445 z m 37.55812,-1.13652 c -2.92312,-2.21147 -4.26999,-1.74057 -1.53534,0.5368 1.31542,1.09546 2.63257,1.75084 2.927,1.4564 0.29444,-0.29443 -0.33181,-1.19137 -1.39166,-1.9932 z m -28.10143,0.0725 c 0.29675,-0.77333 -0.26558,-2.13468 -1.24963,-3.02523 -1.59954,-1.44757 -1.92334,-1.45753 -3.055,-0.094 -1.01085,1.21799 -1.01506,1.82738 -0.0209,3.02523 1.56567,1.88652 3.62057,1.93115 4.32557,0.094 z m 7.09183,0.53969 c 0.29449,-0.4765 -0.29835,-1.62092 -1.31743,-2.54317 -1.54658,-1.39964 -1.94302,-1.44188 -2.39827,-0.25551 -0.88853,2.31546 2.45699,4.83531 3.7157,2.79868 z m 14.3951,-1.07115 c 0.25,-0.75 -0.125,-1.125 -0.875,-0.875 -0.72188,0.24062 -1.50938,1.02813 -1.75,1.75 -0.25,0.75 0.125,1.125 0.875,0.875 0.72187,-0.24062 1.50937,-1.02813 1.75,-1.75 z m -34.3125,-2.06251 c -0.48382,-0.78284 -1.05907,-0.84093 -1.72574,-0.17426 -0.55,0.55 -0.67341,1.52841 -0.27426,2.17426 0.48382,0.78284 1.05907,0.84093 1.72574,0.17426 0.55,-0.55 0.67341,-1.52841 0.27426,-2.17426 z m 25.86163,1.5 c 0.34388,-0.89614 0.008,-1.5 -0.834,-1.5 -1.6447,0 -2.75941,1.43489 -1.83378,2.36052 1.0538,1.0538 2.05741,0.73007 2.66778,-0.86052 z m 18.27674,0 c -0.35062,-0.91371 -0.002,-1.5 0.89301,-1.5 2.45342,0 1.64068,-1.91871 -1.1046,-2.60773 -3.90341,-0.9797 -5.27217,1.09058 -2.33686,3.53454 2.91982,2.43106 3.29365,2.51514 2.54845,0.57319 z m -52.13837,-1.5 c 1.80847,-1.99834 1.06542,-2.53794 -1.91821,-1.39301 -1.63429,0.62713 -2.23488,3.39301 -0.73678,3.39301 0.46476,0 1.6595,-0.9 2.65499,-2 z m 39.5,-0.68146 c 0,-1.27119 -0.27832,-1.33244 -1.48899,-0.32768 -0.81894,0.67967 -1.23785,1.64211 -0.9309,2.13876 0.7889,1.27647 2.41989,0.0558 2.41989,-1.81108 z m -34.5841,-0.95998 c 0.52667,-1.37248 0.38034,-1.43434 -0.89301,-0.37756 -1.73524,1.44013 -1.91584,2.019 -0.62988,2.019 0.49116,0 1.17646,-0.73865 1.52289,-1.64144 z m 10.5841,-0.35856 c 0.5887,-1.1 0.67428,-2 0.19017,-2 -0.48411,0 -1.69468,0.9 -2.69017,2 -1.59753,1.76525 -1.61985,2 -0.19017,2 0.89089,0 2.10147,-0.9 2.69017,-2 z m 6.96717,-1.8308 c -2.85215,-0.44112 -3.54594,0.4285 -1.91228,2.39693 1.22586,1.47708 1.45525,1.45786 2.69553,-0.22583 1.19858,-1.62708 1.10783,-1.87863 -0.78325,-2.1711 z m 8.03283,2.29942 c 0,-1.59667 -2.65762,-3.14433 -3.66667,-2.13529 -0.31922,0.31923 -0.31394,1.27482 0.0118,2.12354 0.7669,1.99852 3.65492,2.00779 3.65492,0.0118 z m 15.98971,-2.30538 c -1.39756,-0.46586 -4.1127,1.82874 -3.44406,2.91062 0.28799,0.46599 1.41854,0.081 2.51232,-0.85553 1.09379,-0.93652 1.51307,-1.86132 0.93174,-2.05509 z m -34.25921,0.23392 c -0.17481,-0.17481 -1.34873,-0.0482 -2.6087,0.28124 -1.66031,0.43418 -1.93277,0.82039 -0.98987,1.40314 1.1363,0.70227 4.43922,-0.84372 3.59857,-1.68438 z m 24.72679,1.67194 c 0.73955,-1.1966 -1.14162,-2.38223 -2.4736,-1.55902 -1.11836,0.69118 -0.38417,2.48992 1.01631,2.48992 0.48508,0 1.14086,-0.41891 1.45729,-0.9309 z m 5.04271,-1.0691 c 0.33992,-0.55 -0.11008,-1 -1,-1 -0.88992,0 -1.33992,0.45 -1,1 0.33992,0.55 0.78992,1 1,1 0.21008,0 0.66008,-0.45 1,-1 z M 61.117516,116.6841 c 5.45741,-4.7888 3.32549,-7.43643 -6.09975,-7.57529 -6.01187,-0.0886 -6.32051,0.0294 -8.11554,3.10295 -1.83745,3.14616 -1.83569,3.19502 0.11528,3.19502 1.0897,0 3.04362,0.88503 4.34205,1.96673 3.25707,2.71341 6.10971,2.51187 9.75796,-0.68941 z m -10.52289,-2.74433 c -1.10947,-2.89123 0.1682,-3.40059 2.48067,-0.98895 2.33965,2.43999 2.34107,2.45596 0.21862,2.45596 -1.17499,0 -2.38967,-0.66015 -2.69929,-1.46701 z m 10.20013,-7.2983 c 1.84831,-1.26387 1.04621,-9.307703 -1.08339,-10.864913 -2.22732,-1.62865 -2.2676,-2.55648 -1.11542,-25.69065 0.76229,-15.305779 1.99078,-23.889585 4.16319,-29.089186 0.75193,-1.799743 0.4333,-1.871937 -5.51708,-1.25 -3.4733,0.363033 -8.2037,0.660059 -10.51199,0.660059 l -4.19689,0 2.38635,8.75 c 3.45859,12.681563 5.25103,23.307111 5.96252,35.345767 0.58612,9.91727 0.48334,10.78904 -1.60514,13.61385 -3.22914,4.367653 -2.47561,7.628013 1.94343,8.408743 5.13799,0.90775 8.35979,0.94689 9.57442,0.11633 z m -9.49547,-4.48469 c 0.0528,-1.50344 0.26841,-1.75229 0.64994,-0.75 0.31405,0.825 1.06603,1.83061 1.67106,2.23469 0.67853,0.45317 0.42948,0.74055 -0.64995,0.75 -1.17572,0.0103 -1.72409,-0.72305 -1.67105,-2.23469 z m 98.527594,-33.75 c 3.90944,0 4.57708,-0.330225 5.55984,-2.75 0.61428,-1.5125 1.32928,-5.296702 1.58888,-8.409337 0.43279,-5.189165 0.17857,-6.103034 -3.06003,-11 -2.63239,-3.980351 -3.39577,-6.041111 -2.99705,-8.090663 l 0.53497,-2.75 -8.86657,0.0062 -8.86658,0.0062 -0.092,4.79609 c -0.0633,3.303349 -0.9471,6.255286 -2.83949,9.4844 -3.20373,5.466746 -2.94363,10.346001 0.7983,14.975565 2.17946,2.696455 9.28714,5.045539 12.46494,4.11965 0.73252,-0.21349 3.33116,-0.388105 5.77479,-0.388105 z m -16.04984,-8.222506 c -1.75126,-2.500286 -2.07663,-7.338123 -0.5567,-8.277494 0.59512,-0.367803 1,0.822949 1,2.940983 0,2.225684 0.74927,4.308288 2,5.559017 1.48571,1.485711 1.62886,2 0.5567,2 -0.79381,0 -2.14381,-1.000128 -3,-2.222506 z M 59.220336,37.39785 c 13.17445,-1.314084 78.749164,-4.387477 88.500004,-4.147868 6.11387,0.150236 7.58094,-0.05921 6.22258,-0.888345 -2.25933,-1.379081 -28.85156,-1.341696 -41.72258,0.05865 -5.225,0.568474 -19.625004,1.455707 -32.000004,1.97163 -23.81532,0.992878 -43.20127,2.60722 -49,4.080414 -4.15748,1.056229 13.38894,0.382894 28,-1.074486 z m 77.000004,66.28807 c -5.61237,-1.00684 -4.03177,-2.20685 2.14682,-1.62989 4.16801,0.38922 7.28608,0.18944 8.6791,-0.55608 1.75719,-0.94042 2.17408,-0.89152 2.17408,0.25502 0,2.31142 -5.95152,3.19543 -13,1.93095 z M 124.873,99.348207 c -1.45896,-1.14762 -2.65266,-2.55903 -2.65266,-3.13645 0,-0.69343 0.4627,-0.66586 1.36286,0.0812 1.09867,0.91181 1.75915,0.0147 3.40713,-4.62756 1.12434,-3.16724 2.34138,-6.77113 2.70452,-8.008628 0.36315,-1.2375 1.01916,-2.25 1.45782,-2.25 0.43865,0 -0.48525,3.914908 -2.05312,8.699798 -2.13155,6.50517 -2.54625,8.88795 -1.6439,9.44563 0.66372,0.41021 0.951,1.001603 0.63839,1.314203 -0.31261,0.31261 -1.76207,-0.37058 -3.22104,-1.518203 z m 13.86236,-3.19143 c 0.37995,-2.3375 1.15311,-4.7 1.71814,-5.25 0.70096,-0.68232 0.8306,0.27072 0.40808,3 -0.34057,2.2 -0.62418,4.5625 -0.63023,5.25 -0.006,0.6875 -0.50056,1.250003 -1.09891,1.250003 -0.72157,0 -0.85528,-1.431073 -0.39708,-4.250003 z m 15.57312,3.11211 c 0.12501,-0.74916 -0.0313,-2.03711 -0.34733,-2.86211 -2.39362,-6.24818 -5.46498,-16.999997 -4.85623,-16.999997 0.41094,0 2.00916,4.036859 3.5516,8.970797 2.5378,8.11788 2.98315,8.87515 4.68413,7.96482 2.32796,-1.24589 2.42513,-4.98393 0.24878,-9.57024 -0.897,-1.89029 -1.36385,-3.703953 -1.03744,-4.03036 0.32641,-0.326408 1.13837,0.602452 1.80435,2.06413 0.86857,1.9063 1.4361,2.29621 2.00752,1.37923 0.52829,-0.84777 1.02724,-0.13358 1.48128,2.12026 0.62951,3.12491 0.79218,3.2516 2.0196,1.573 1.95606,-2.67507 2.79398,-1.07032 0.92807,1.77742 -2.01753,3.07913 -10.79083,9.449743 -10.48433,7.61305 z m 6.59497,-8.04961 c -0.31922,-0.79773 -0.55618,-0.56077 -0.60416,0.60417 -0.0434,1.05417 0.19292,1.64479 0.52522,1.3125 0.33229,-0.33229 0.36781,-1.19479 0.0789,-1.91667 z m -30.21286,4.49621 c 0.60694,-4.75833 2.58338,-10.31455 3.13341,-8.80871 0.20089,0.55 -0.54223,3.7 -1.65138,7 -1.8453,5.49022 -1.97122,5.6439 -1.48203,1.80871 z m 19.16833,-0.62972 c -0.41572,-2.10156 -1.00261,-4.46406 -1.3042,-5.25 -0.3016,-0.78594 -0.0706,-1.42899 0.51332,-1.42899 1.21368,0 2.53396,5.88063 1.94207,8.65014 -0.24422,1.14272 -0.68428,0.38921 -1.15119,-1.97115 z M 84.003826,27.65678 c -4.96326,-5.689991 -4.94601,-9.943722 0.0617,-15.207893 3.38286,-3.5561274 4.38703,-4.0421074 8.35211,-4.0421074 5.33423,0 10.805614,3.2234084 12.199634,7.1872934 1.09358,3.109574 -0.44405,7.492515 -3.95916,11.285375 -2.034524,2.195287 -3.182144,2.527332 -8.735014,2.527332 -4.84016,0 -6.7635,-0.425021 -7.91925,-1.75 z m 13.75099,-1.015313 c 2.380804,-1.690855 5.465524,-6.66807 5.465524,-8.818654 0,-2.73718 -5.600284,-7.416033 -8.876514,-7.416033 -3.44243,0 -8.707,2.567297 -10.49279,5.116873 -2.19355,3.131721 -2.05283,6.076752 0.44188,9.248268 1.76612,2.24525 2.83815,2.632595 7.25,2.619546 2.84758,-0.0084 5.64294,-0.345922 6.2119,-0.75 z"
     id="path11938"
     inkscape:connector-curvature="0" />
</svg>
