<?xml version="1.0" encoding="UTF-8" standalone="no"?>
<!-- Created with Inkscape (http://www.inkscape.org/) -->

<svg
   xmlns:osb="http://www.openswatchbook.org/uri/2009/osb"
   xmlns:dc="http://purl.org/dc/elements/1.1/"
   xmlns:cc="http://creativecommons.org/ns#"
   xmlns:rdf="http://www.w3.org/1999/02/22-rdf-syntax-ns#"
   xmlns:svg="http://www.w3.org/2000/svg"
   xmlns="http://www.w3.org/2000/svg"
   xmlns:sodipodi="http://sodipodi.sourceforge.net/DTD/sodipodi-0.dtd"
   xmlns:inkscape="http://www.inkscape.org/namespaces/inkscape"
   id="svg15551"
   version="1.1"
   inkscape:version="0.48.4 r9939"
   width="219"
   height="251"
   sodipodi:docname="Jerky.png">
  <metadata
     id="metadata15557">
    <rdf:RDF>
      <cc:Work
         rdf:about="">
        <dc:format>image/svg+xml</dc:format>
        <dc:type
           rdf:resource="http://purl.org/dc/dcmitype/StillImage" />
        <dc:title></dc:title>
      </cc:Work>
    </rdf:RDF>
  </metadata>
  <defs
     id="defs15555">
    <linearGradient
       id="linearGradient17535"
       osb:paint="solid">
      <stop
         style="stop-color:#951e1e;stop-opacity:1;"
         offset="0"
         id="stop17537" />
    </linearGradient>
  </defs>
  <sodipodi:namedview
     pagecolor="#ffffff"
     bordercolor="#666666"
     borderopacity="1"
     objecttolerance="10"
     gridtolerance="10"
     guidetolerance="10"
     inkscape:pageopacity="0"
     inkscape:pageshadow="2"
     inkscape:window-width="1279"
     inkscape:window-height="752"
     id="namedview15553"
     showgrid="false"
     inkscape:zoom="1.8804781"
     inkscape:cx="178.678"
     inkscape:cy="112.99243"
     inkscape:window-x="1"
     inkscape:window-y="22"
     inkscape:window-maximized="0"
     inkscape:current-layer="svg15551" />
  <path
     style="fill:#750d0d;fill-opacity:1;stroke:none"
     d="m 88.741901,227.31042 10.904725,-18.0492 18.613234,-2.44416 5.07634,2.06814 c 3.56942,-3.13351 5.90907,-6.25225 10.71671,-9.40063 l 2.25615,3.19622 4.70032,1.31608 c 2.16134,-1.162 -1.37876,4.01093 -2.06814,6.0164 l -12.0328,20.68138 -11.28075,6.58044 z"
     id="path17549"
     inkscape:connector-curvature="0"
     sodipodi:nodetypes="ccccccccccc" />
  <path
     style="fill:#650d0d;fill-opacity:1;stroke:none"
     d="m 145.84057,95.454449 3.8554,-3.589513 5.98253,1.595339 0.13294,11.300315 c 4.32959,7.54046 3.6967,10.22839 3.72246,13.56038 l 6.91313,-0.26589 -5.84957,17.01695 -12.23093,21.0053 -6.64725,23.13242 -15.95339,-32.17267 c 3.00528,-19.03735 13.26216,-34.4489 20.07468,-51.582631 z"
     id="path17543"
     inkscape:connector-curvature="0"
     sodipodi:nodetypes="ccccccccccc" />
  <path
     style="fill:#580000;fill-opacity:1;stroke:none"
     d="m 106.62182,110.34428 23.39831,-52.114407 9.30614,1.861228 3.72246,7.710806 9.57203,4.786017 c -0.53492,3.999033 1.20827,8.282831 -1.86123,11.965042 L 144.90996,96.783898 125.5,146.5053 z"
     id="path17541"
     inkscape:connector-curvature="0"
     sodipodi:nodetypes="ccccccccc" />
  <path
     style="fill:#580000;fill-opacity:1;stroke:none"
     d="m 49.68092,223.08682 12.363206,-23.60225 6.76845,0 c 3.284456,-11.6027 9.839424,-20.86931 15.417025,-30.83405 l 5.640375,-16.5451 20.681374,34.97033 -16.921124,30.83405 -14.220521,28.37652 c -3.447457,-0.93203 -8.241042,0.40129 -12.05561,-7.34193 l -9.51076,-5.66319 c -0.255539,-2.93946 -1.80891,-5.00315 -5.199834,-6.89748 -2.89314,-1.09897 -2.328064,-2.19793 -2.962581,-3.2969 z"
     id="path16081"
     inkscape:connector-curvature="0"
     sodipodi:nodetypes="cccccccccccc" />
  <path
     style="fill:#680000;fill-opacity:1;stroke:#000000;stroke-opacity:1"
     d="m 54.507415,177.34852 c 4.756013,-19.95715 13.205726,-34.74313 19.808793,-52.11441 8.218269,8.32394 11.18487,18.55758 15.820445,28.18432 l -25.259534,53.44386 c -0.314844,-3.56854 -0.857212,-6.97782 -4.653073,-8.10964 l -6.78019,1.99417 -4.520127,-1.06356 -6.514301,2.92479 c -1.324001,-2.50931 -2.525718,-5.6696 -4.387182,-5.3178 l 4.254237,-7.44491 4.520127,-8.24259 z"
     id="path16079"
     inkscape:connector-curvature="0"
     sodipodi:nodetypes="cccccccccccc" />
  <path
     style="fill:#680000;fill-opacity:1;stroke:none"
     d="m 107.95127,23.930085 4.78602,-8.242585 -3.19068,-7.0460807 1.32945,-3.0577331 c 3.98641,1.7292505 7.58843,3.6506964 8.77436,6.7801908 l 8.37553,13.560381 8.37553,5.716632 L 135.8697,42.542373 127.89301,62.75 106.62182,111.009 91.200212,82.957627 114.86441,31.375 z"
     id="path16077"
     inkscape:connector-curvature="0"
     sodipodi:nodetypes="ccccccccccccc" />
  <path
     style="fill:#5b0606;fill-opacity:0.92574259;stroke:none"
     d="m 65.616363,60.731348 28.201876,-43.806914 6.580441,5.452363 4.13627,2.25615 7.89653,6.580438 0.75205,3.384225 -16.357091,37.414488 -6.0164,12.220812 -9.212613,-15.79305 -9.964663,-8.648575 z"
     id="path16075"
     inkscape:connector-curvature="0"
     sodipodi:nodetypes="ccccccccccc" />
  <path
     style="fill:#5b0606;fill-opacity:0.92574259;stroke:none"
     d="m 13.160875,169.40257 c -0.232215,-6.22222 4.979793,-11.53708 7.5205,-17.29715 l 15.79305,-30.082 0.75205,-7.14447 11.280751,-19.553302 4.5123,-12.0328 21.80945,41.362752 -21.0574,50.01132 c 0.593839,2.63218 -3.348917,5.26435 -7.144475,7.89653 -5.549572,8.70261 -12.068701,17.16283 -15.793051,26.32175 l -3.384225,-9.40063 c 1.371553,-4.79674 -1.595724,-5.31875 -3.384225,-9.21261 l -1.128075,-12.22081 -5.640375,-1.12808 -1.316087,-3.94826 -3.948263,-0.56404 z"
     id="path16073"
     inkscape:connector-curvature="0"
     sodipodi:nodetypes="ccccccccccccccccc" />
  <path
     style="fill:#4f0000;fill-opacity:1;stroke:none"
     d="m 52.267476,81.036698 51.891454,96.262402 15.41702,21.0574 5.26435,-1.5041 10.90473,3.0082 2.63217,2.25615 c 4.85735,0.67834 8.95761,2.61848 15.79305,0 L 91.374076,82.164773 77.461151,60.731348 l -16.921125,2.25615 -4.136275,3.76025 -2.632175,0.376025 z"
     id="path15563"
     inkscape:connector-curvature="0"
     sodipodi:nodetypes="ccccccccccccc" />
  <path
     style="fill:#650d0d;fill-opacity:1;stroke:none"
     d="m 101.30403,208.72352 16.21928,-1.59534 4.52012,1.59534 12.23093,-9.30615 c -6.74231,-3.73235 -11.16093,-3.88981 -13.29449,-0.53178 l -10.90148,-12.23093 z"
     id="path17545"
     inkscape:connector-curvature="0"
     sodipodi:nodetypes="ccccccc" />
  <path
     style="fill:#750d0d;fill-opacity:1;stroke:none"
     d="m 159.05858,104.72627 20.30535,-37.602497 c 2.13915,-6.120022 5.91724,-10.474517 9.21261,-16.357088 l 7.33249,-14.100938 6.0164,4.136275 2.63217,5.640375 14.28895,12.784851 c -9.81877,26.321751 -25.02798,52.643502 -37.6025,78.965252 -6.3207,11.51361 -15.32704,20.8787 -24.0656,30.45802 l -6.39242,25.5697 c -5.7763,-4.25633 -6.66766,-10.95512 -9.77665,-16.5451 4.34292,-10.23737 6.52774,-21.55378 13.5369,-30.45802 l 9.40062,-21.62144 1.78889,-7.28687 -5.92516,-0.0456 z"
     id="path17547"
     inkscape:connector-curvature="0"
     sodipodi:nodetypes="cccccccccccccccc" />
  <path
     style="fill:#000000"
     d="m 78,245.89436 c 0,-0.60811 1.148966,-2.47112 2.553258,-4.14002 1.404292,-1.66891 2.309447,-3.66974 2.011455,-4.4463 -0.297992,-0.77655 -0.170008,-1.18213 0.284409,-0.90129 0.454418,0.28085 2.361763,-2.49975 4.238546,-6.1791 1.876783,-3.67935 5.632807,-10.74826 8.346721,-15.70869 C 99.32715,207.40386 107,190.02815 107,188.32782 107,188.14752 106.3625,188 105.58333,188 c -0.77916,0 -1.65305,-0.5625 -1.94196,-1.25 -0.37617,-0.89515 -0.83975,-0.75321 -1.63302,0.5 -0.60925,0.9625 -1.48289,1.75 -1.94141,1.75 -1.45276,0 -1.97497,-4.10775 -0.839126,-6.60065 C 100.44982,179.71733 103,179.14923 103,181.55902 c 0,0.85746 0.45,1.2809 1,0.94098 0.55,-0.33992 1,0.0835 1,0.94098 0,0.85746 0.675,1.55902 1.5,1.55902 0.825,0 1.5,-0.22981 1.5,-0.51069 0,-0.28087 -2.57817,-4.66837 -5.72927,-9.75 -3.151095,-5.08162 -7.174425,-11.93311 -8.940732,-15.22554 -2.078791,-3.87491 -3.402838,-5.46204 -3.754061,-4.5 C 85.661744,165.7352 85.595909,167 88.952028,167 c 1.824737,0 3.522573,2.46913 3.187984,4.63622 -0.09649,0.62492 0.482892,1.38883 1.287504,1.69759 1.153369,0.44259 1.262918,1.25879 0.517708,3.85718 -1.26773,4.42032 -1.205805,4.62605 0.61148,2.03152 C 96.608516,176.29313 98,176.40527 98,179.5 c 0,1.57999 -0.564418,2.5 -1.533725,2.5 -0.843549,0 -2.462998,1.575 -3.598776,3.5 -1.135778,1.925 -2.398257,3.5 -2.80551,3.5 -0.95079,0 -0.653875,-5.23329 0.39302,-6.9272 0.515112,-0.83347 -0.166169,-2.12021 -1.920894,-3.628 -1.746601,-1.50081 -2.438542,-2.8029 -1.934653,-3.64063 0.580374,-0.96488 0.337995,-0.9419 -0.93167,0.0883 -2.20443,1.78872 -3.139625,0.85765 -1.748812,-1.74111 0.594561,-1.11095 1.073635,-2.38699 1.064608,-2.83565 -0.02001,-0.99473 -10.021795,16.02685 -11.81214,20.10255 -1.075226,2.44774 -1.063077,2.73666 0.07535,1.79185 0.746501,-0.61954 2.386766,-0.85722 3.645032,-0.52818 1.829094,0.47832 2.190848,1.12151 1.804387,3.20815 l -0.483369,2.60989 1.515548,-2.25 c 0.833552,-1.2375 1.859587,-2.25 2.280078,-2.25 1.244777,0 1.846327,6.3894 0.731923,7.77417 -0.563969,0.70079 -0.690672,1.60079 -0.281563,2 0.409109,0.3992 1.485734,-0.33553 2.392501,-1.63274 0.906766,-1.29722 2.633288,-3.34798 3.836715,-4.55726 l 2.18805,-2.19868 -3.43805,-2.86661 C 85.547122,189.94224 84,188.02592 84,187.26039 c 0,-2.23743 2.015991,-5.36854 3.046506,-4.73165 0.558426,0.34513 0.335249,1.76613 -0.5446,3.46757 l -1.49076,2.88282 4.744427,0.75889 c 2.609435,0.4174 5.094449,0.66542 5.522253,0.55117 0.427804,-0.11426 1.037457,0.46885 1.354784,1.29579 0.317328,0.82694 0.999519,1.24238 1.51598,0.92319 1.329939,-0.82195 3.85141,1.50827 3.85141,3.55929 0,2.26248 -3.567893,5.54072 -4.45974,4.09768 C 97.178198,199.47931 95.783524,199 94.440983,199 92.937887,199 92,198.42366 92,197.5 c 0,-0.825 -0.401855,-1.5 -0.893011,-1.5 -1.514422,0 -2.154998,3.04178 -1.068219,5.07244 0.964172,1.80157 1.482879,2.05972 4.702689,2.34042 1.541106,0.13434 1.639178,0.74463 0.820735,5.10731 C 95.203143,210.43408 94.43162,212 93.847698,212 c -0.583922,0 -0.846834,-0.5625 -0.584249,-1.25 0.30742,-0.80489 -0.52657,-1.287 -2.342085,-1.3539 -1.550731,-0.0571 -3.053305,0.50535 -3.339053,1.25 C 87.296563,211.39074 86.38222,212 85.550437,212 c -0.831783,0 -1.79469,1.125 -2.139793,2.5 -0.345103,1.375 -1.198576,2.5 -1.896607,2.5 -0.698031,0 -1.846344,0.69548 -2.551806,1.54551 -0.705462,0.85003 -1.830728,1.33519 -2.50059,1.07814 -0.669862,-0.25705 -1.722766,0.0375 -2.339786,0.65449 -1.689126,1.68913 -1.438194,-0.76573 0.451881,-4.42073 1.996273,-3.86037 1.150715,-4.89269 -1.141753,-1.39395 -0.950302,1.45035 -2.321847,2.40904 -3.047878,2.13044 -0.72603,-0.2786 -1.5934,-0.0643 -1.927487,0.47629 -0.334088,0.54057 -1.135999,0.9176 -1.782025,0.83785 -4.691267,-0.57914 -6.214788,0.18645 -7.305464,3.6711 -0.902894,2.88469 -0.853358,3.68155 0.25531,4.10699 C 60.380997,225.97644 61,226.81427 61,227.54797 c 0,2.58004 2.330658,2.76895 4.413789,0.35776 1.147416,-1.32811 2.761211,-2.38511 3.586211,-2.34889 0.825,0.0362 2.0625,-0.35434 2.75,-0.86793 0.6875,-0.51359 1.25,-0.63924 1.25,-0.27922 0,0.36002 2.092992,-0.51393 4.651093,-1.9421 3.673381,-2.05083 4.829542,-2.32035 5.5,-1.28213 0.68687,1.06362 1.036681,1.02822 1.832651,-0.18546 0.541059,-0.825 1.130117,-1.91717 1.309017,-2.42705 0.1789,-0.50988 0.838612,-0.60979 1.466026,-0.22203 1.229582,0.75993 -1.580618,6.4264 -4.310776,8.69223 C 82.243809,228.04255 82,227.78272 82,225.5 c 0,-2.42762 -0.189047,-2.58799 -1.635535,-1.38752 -1.64424,1.3646 -1.967054,1.45584 -6.139216,1.73521 -1.364152,0.0913 -2.623447,1.06945 -3.145824,2.44341 -1.142562,3.00516 -3.888743,5.2089 -6.491056,5.2089 -3.332362,0 -2.413633,2.78858 1.229773,3.73268 2.399231,0.6217 3.603298,1.67782 4.347825,3.81357 0.707056,2.02826 1.704017,2.95855 3.181858,2.96906 1.756108,0.0125 1.876129,0.19371 0.652175,0.98469 -2.349511,1.51837 -2.9278,1.23669 -5.132501,-2.5 -1.135778,-1.925 -2.754986,-3.5 -3.598241,-3.5 -2.982051,0 -7.860684,-3.9463 -9.517452,-7.69861 -0.923142,-2.09076 -2.704818,-4.25139 -3.959281,-4.80139 -1.254463,-0.55 -2.430042,-1.79309 -2.612398,-2.76241 -0.182356,-0.96933 2.177515,-6.71272 5.244158,-12.76309 C 57.490928,204.92413 60,199.72928 60,199.43038 c 0,-0.2989 -1.359235,0.25947 -3.020522,1.24081 -2.476998,1.4632 -3.373335,1.56394 -4.981202,0.55981 -1.619682,-1.01151 -2.515526,-0.88704 -5.150975,0.71567 C 43.188386,204.17179 40,203.24896 40,199.96482 c 0,-2.59193 1.62025,-2.52499 2.305458,0.0952 l 0.538721,2.06007 3.932016,-2.00596 c 2.670499,-1.36239 4.25898,-1.67901 4.951127,-0.98686 0.692147,0.69215 1.226315,0.19354 1.664946,-1.5541 C 53.747478,196.15795 54.704531,195 55.519052,195 56.333573,195 57,194.60246 57,194.11658 c 0,-0.48589 1.125,-1.09848 2.5,-1.36133 1.375,-0.26285 2.5,-0.0153 2.5,0.55009 0,0.5654 0.28526,0.74273 0.633912,0.39408 0.348651,-0.34865 1.800388,0.28364 3.226081,1.40509 1.944827,1.5298 2.691917,1.70892 2.991588,0.71725 0.21968,-0.72697 2.1944,-4.92176 4.388266,-9.32176 2.193866,-4.4 4.09794,-8.98909 4.231276,-10.19797 0.250506,-2.27122 -1.956923,-3.94304 -2.992935,-2.26674 -0.322223,0.52137 -1.752392,-0.21858 -3.178151,-1.64434 C 68.635511,169.72642 69.174613,168.29049 73,167.863 c 3.07315,-0.34343 3.548877,-0.4824 5.689312,-1.66194 1.424876,-0.78521 2.405692,-0.85636 2.809017,-0.20376 1.177932,1.90593 2.189837,0.98688 3.41471,-3.10139 0.676288,-2.25725 1.483057,-4.84475 1.79282,-5.75 0.429602,-1.25547 0.212166,-1.19551 -0.916599,0.25273 -1.410506,1.80973 -1.507901,1.75815 -2.079795,-1.10131 C 82.940778,152.45389 83.843456,149 85.616631,149 86.377484,149 87,149.525 87,150.16667 c 0,0.64166 0.257089,0.90957 0.571308,0.59535 0.31422,-0.31421 -2.481997,-6.28618 -6.213816,-13.27104 -5.269016,-9.86202 -6.950789,-12.28538 -7.52653,-10.84535 -6.872942,17.19032 -15.877508,40.69164 -16.421465,42.85894 -0.611378,2.43592 -0.450212,2.73934 1.222679,2.30187 2.211562,-0.57834 4.801204,1.68332 3.793811,3.31332 -0.451214,0.73008 0.03118,0.86992 1.448784,0.41999 C 65.770638,174.93802 66,175.25023 66,178.43261 66,180.39468 65.55,182 65,182 c -0.55,0 -1,-0.47656 -1,-1.05902 0,-0.60385 -0.537245,-0.71788 -1.25,-0.26531 -0.6875,0.43654 -1.475,0.83946 -1.75,0.89538 -0.275,0.0559 -1.332916,0.46589 -2.350925,0.91103 -1.225566,0.5359 -2.149515,0.33779 -2.734687,-0.58636 -0.486069,-0.76765 -0.890653,-1.00312 -0.899075,-0.52328 -0.0084,0.47985 -0.650251,0.3455 -1.426285,-0.29855 -0.964555,-0.80051 -1.616008,-0.83925 -2.059017,-0.12245 C 51.173586,181.52815 50.022647,182 48.972368,182 c -1.123959,0 -1.710865,0.51789 -1.42655,1.2588 0.265676,0.69235 1.927799,1.25485 3.693605,1.25 4.629162,-0.0127 4.786624,2.79268 0.396084,7.05672 -4.134041,4.01493 -5.023462,4.27247 -4.0905,1.18448 0.554582,-1.8356 0.438069,-2.01978 -0.632612,-1 -0.721817,0.6875 -2.252102,1.25 -3.400633,1.25 -2.863338,0 -8.871283,7.42826 -11.113142,13.74036 C 30.448676,212.23055 29,212.72733 29,207.9058 c 0,-1.63689 -0.730199,-4.09059 -1.622664,-5.45266 -1.033251,-1.57694 -1.411906,-3.53029 -1.042444,-5.3776 0.382286,-1.91143 0.08299,-3.31376 -0.877336,-4.11077 C 24.6559,192.29946 24,190.82021 24,189.67756 c 0,-1.6026 0.271218,-1.80634 1.186346,-0.89121 0.915129,0.91512 1.600977,0.81111 3,-0.45499 C 29.892523,186.78729 30,186.8401 30,189.22257 c 0,2.71429 3.03581,6.13632 3.698685,4.16924 0.205393,-0.6095 1.017902,-1.9595 1.805575,-3 1.910668,-2.52394 1.901659,-0.29907 -0.01739,4.29385 -0.832219,1.99178 -1.357966,3.77658 -1.168327,3.96622 0.576573,0.57657 6.202092,-7.85259 8.579747,-12.85571 1.320104,-2.7778 3.129331,-4.9759 4.418564,-5.36828 C 51.223631,179.23884 54.825095,175 51.928571,175 c -0.589285,0 -1.801322,-0.72989 -2.693415,-1.62199 -1.495983,-1.49598 -1.475586,-1.72904 0.262558,-3 C 52.133829,168.45044 53,168.65373 53,171.2 c 0,3.35126 1.40568,1.10578 4.294353,-6.85993 2.453743,-6.76637 2.503273,-7.26622 0.901057,-9.09349 C 57.262934,154.18313 55.9375,153.5051 55.25,153.73985 54.5625,153.9746 54,153.67917 54,153.08333 54,152.4875 53.2875,152 52.416667,152 c -0.870834,0 -1.396061,-0.5625 -1.167173,-1.25 0.47878,-1.43809 4.53629,-1.90563 5.334159,-0.61465 0.29391,0.47556 0.905339,0.86465 1.358733,0.86465 1.097238,0 1.97873,-3.52438 1.185046,-4.73805 -0.799157,-1.22204 -4.27242,-1.26829 -5.788404,-0.0771 -2.069622,1.62623 -2.237458,-0.65956 -0.346621,-4.72069 1.459544,-3.1348 1.862634,-3.49344 1.926645,-1.71418 0.08199,2.27898 2.436953,3.10102 3.580948,1.25 0.339919,-0.55 1.523619,-1 2.630446,-1 1.106826,0 2.691547,-0.67914 3.521602,-1.50919 0.830056,-0.83006 1.922913,-1.2535 2.428572,-0.94098 C 67.586279,137.86234 68,137.67828 68,137.1408 c 0,-0.53747 0.275103,-1.69413 0.611341,-2.57035 0.428199,-1.11587 0.174624,-1.42555 -0.846454,-1.03372 -1.082031,0.41521 -1.481459,-0.27295 -1.549606,-2.66976 -0.0505,-1.77603 0.328793,-4.01507 0.842867,-4.97562 C 69.128197,122.02343 64.802514,119.12318 62,122.5 c -1.379637,1.66236 -3.477715,2.08198 -2.5,0.5 0.339919,-0.55 0.105721,-1 -0.520438,-1 -0.744727,0 -0.910586,-1.03756 -0.479562,-3 0.414562,-1.88749 0.258608,-3 -0.420545,-3 C 57.485755,116 57,115.37314 57,114.60699 c 0,-1.7809 -2.27784,-2.67134 -4.042938,-1.58045 -1.602103,0.99015 -3.243182,0.24543 -2.414357,-1.09564 C 50.859136,111.41891 50.655599,111 50.090402,111 c -0.565198,0 -0.809969,-0.7875 -0.543937,-1.75 0.266033,-0.9625 -0.08559,-0.6096 -0.781385,0.78423 -2.962691,5.9349 -5.873057,8.9853 -8.174624,8.56795 -1.930125,-0.35 -2.493645,0.27623 -3.818656,4.24362 -1.433083,4.29097 -1.923,9.1542 -0.922185,9.1542 0.231574,0 1.45964,-1.12066 2.729036,-2.49036 1.3916,-1.50157 2.926074,-2.25319 3.86467,-1.89302 2.227496,0.85477 1.925288,3.38338 -0.404366,3.38338 -2.380308,0 -5.546009,3.20598 -8.146361,8.25 -2.196272,4.26021 -4.254209,5.03897 -3.303238,1.25 0.883362,-3.51959 -0.04993,-3.10887 -2.707797,1.19164 -2.396204,3.87714 -3.017254,8.98469 -1.04065,8.55836 C 27.478409,150.1125 28,150.45 28,151 c 0,0.55 0.5625,0.8875 1.25,0.75 0.7704,-0.15408 1.130467,0.6103 0.938458,1.99223 -0.223217,1.60654 0.09458,2.08639 1.120958,1.69253 1.765184,-0.67736 3.157085,2.49874 1.723367,3.93246 C 32.322406,160.07759 32,160.02539 32,159.2 c 0,-1.72081 -3.521617,-1.48134 -5.035174,0.34238 -0.888072,1.07006 -1.599269,1.22318 -2.322444,0.5 C 23.396781,158.79678 20,158.64832 20,159.83948 c 0,0.46172 -1.125,1.35207 -2.5,1.97857 -3.272355,1.49098 -3.586206,5.66147 -0.348728,4.63394 1.710459,-0.54288 2.024252,-0.35178 1.531385,0.93261 -0.664267,1.73105 0.801595,2.25891 1.79761,0.64733 0.329066,-0.53244 2.099374,-0.91164 3.934017,-0.84267 2.841607,0.10683 3.335716,0.48926 3.335716,2.5818 0,1.35102 0.571823,2.8098 1.270717,3.24174 0.698895,0.43194 0.983323,1.53429 0.632063,2.44966 -0.35126,0.91537 -1.142144,1.35313 -1.757521,0.97281 -0.615376,-0.38033 -1.511664,-0.0713 -1.99175,0.68661 -0.685697,1.08259 -0.876167,0.99344 -0.888196,-0.41572 -0.0084,-0.98661 -0.577813,-1.72079 -1.265313,-1.63151 -2.969858,0.38565 -4.157038,-0.0676 -3.057359,-1.16729 0.774722,-0.77472 1.667548,-0.78496 3.068517,-0.0352 C 25.625469,174.86992 27,174.49717 27,172.99385 c 0,-1.06086 -4.724176,-2.93634 -5.483564,-2.17695 -0.375706,0.3757 -1.208103,0.6831 -1.849769,0.6831 -0.641667,0 -1.311102,1.01736 -1.487634,2.26081 -0.259381,1.82701 0.26828,2.37865 2.75,2.875 2.930738,0.58614 3.062989,0.82538 2.89626,5.23919 l -0.174707,4.625 -0.382791,-4.25 c -0.355188,-3.94353 -0.5936,-4.25 -3.306241,-4.25 -2.309362,0 -3.059619,-0.54254 -3.571703,-2.58284 -0.477049,-1.90072 -1.142068,-2.45371 -2.518056,-2.09388 -1.028392,0.26893 -2.128394,0.0705 -2.44445,-0.44084 -1.07589,-1.74082 3.557822,-13.35845 8.72785,-21.88244 10.842124,-17.87575 17.304046,-31.63966 16.20226,-34.51087 -0.295517,-0.77011 0.556055,-2.49355 1.892382,-3.82988 6.444845,-6.44484 12.803114,-21.973474 13.274464,-32.41987 0.476142,-10.552613 2.125176,-14.808085 5.582301,-14.4056 0.333631,0.03884 1.185649,-1.011339 1.893374,-2.333735 0.707724,-1.322395 2.540199,-2.841303 4.072166,-3.375349 2.003619,-0.698466 5.087827,-4.430761 10.988764,-13.297845 4.511854,-6.779768 9.066052,-13.279425 10.12044,-14.443681 1.054388,-1.164257 3.606313,-5.479373 5.670946,-9.589147 l 3.753876,-7.472317 3.623345,3.779237 c 3.332927,3.476322 3.455177,3.804077 1.525244,4.089147 -2.885584,0.426229 -3.331294,2.492149 -0.716699,3.321989 1.864592,0.591799 2.057882,1.163004 1.464263,4.327243 -0.37614,2.004995 -0.895347,3.98759 -1.153794,4.405766 C 97.615125,36.431758 93.968242,34.08837 93.163686,31.91345 92.55283,30.262148 92.177454,30.155556 90.75268,31.228821 89.824551,31.92797 88.361189,34.3 87.500763,36.5 c -1.3801,3.528742 -1.383939,3.771307 -0.03259,2.05887 C 88.310679,37.491249 89,36.028749 89,35.30887 89,34.588992 89.45,34 90,34 c 1.626294,0 1.136677,2.218775 -1.512045,6.852074 C 87.11958,43.245714 86,45.655754 86,46.207718 c 0,0.551963 -1.125,2.340557 -2.5,3.974651 -1.375,1.634095 -2.5,3.847468 -2.5,4.918607 0,1.701853 0.432746,1.553735 3.430511,-1.174169 1.886781,-1.716933 3.372828,-3.887452 3.302327,-4.823376 C 87.560384,46.814051 92.003139,36 93.116143,36 c 1.15989,0 1.139479,0.143962 -0.616143,4.345757 -1.649699,3.948285 -1.963404,5.934221 -0.596491,3.776128 0.480086,-0.757964 1.380536,-1.064369 2.000999,-0.680902 0.620464,0.383467 0.826247,1.185648 0.457295,1.782624 -0.400379,0.647828 -0.205381,0.797753 0.483689,0.371885 C 95.480471,45.203052 96,44.288479 96,43.563107 c 0,-2.483506 3.164684,-8.914677 3.845059,-7.813807 0.371241,0.600673 1.814841,1.37822 3.208011,1.727883 1.9042,0.477924 3.23,-0.01018 5.34056,-1.966185 l 2.80754,-2.601936 -2.10059,-1.821826 C 107.94526,30.085231 107,28.56199 107,27.702256 c 0,-0.859735 -0.97725,-1.706952 -2.17167,-1.882705 -1.19442,-0.175753 -2.35702,-0.882357 -2.58356,-1.570231 -0.26119,-0.793092 0.16749,-1.028352 1.17167,-0.643011 C 104.3072,23.948124 105,23.70019 105,23.039601 c 0,-0.696687 0.76909,-0.930277 1.89077,-0.57427 1.46805,0.46594 2.13876,-0.111284 3,-2.581835 1.52946,-4.387424 1.39026,-7.037255 -0.51238,-9.753662 -1.49082,-2.1284355 -1.49173,-2.445067 -0.0113,-3.9255097 1.48045,-1.4804428 1.91372,-1.4392627 5.37162,0.5105395 2.0687,1.1664793 4.21128,2.9546663 4.76128,3.9737492 0.55,1.019082 1.92194,3.193542 3.04876,4.832132 1.12681,1.63859 2.58013,4.217789 3.2296,5.731552 0.64947,1.513764 2.65253,3.619028 4.45125,4.678366 5.53368,3.259015 6.99186,5.230445 6.43601,8.701354 -0.27587,1.722609 -0.0502,3.583403 0.50149,4.135098 0.67078,0.670775 0.51944,1.952181 -0.45684,3.867983 -0.80296,1.575696 -2.22308,5.518669 -3.15584,8.762162 -1.88136,6.542082 -1.39601,7.558719 3.62226,7.587427 2.26511,0.01296 3.06126,0.855309 5.17764,5.4781 2.4719,5.399337 3.00157,5.79208 9.14567,6.781374 1.71634,0.276357 1.98186,1.043609 1.87207,5.409605 -0.0704,2.798166 -0.65872,5.933273 -1.30745,6.966904 -0.98781,1.573867 -1.08155,1.269811 -0.57676,-1.87067 0.64979,-4.04254 0.0597,-4.51023 -3.01535,-2.389923 -1.90714,1.315005 -5.03144,1.414323 -6.24717,0.198593 -0.85176,-0.851757 3.38699,-6.10668 4.68542,-5.80867 1.89952,0.435973 1.18785,-0.543592 -2.09132,-2.878573 -1.74931,-1.245619 -2.86697,-1.757355 -2.48369,-1.137192 0.99443,1.609028 -1.28005,2.724888 -2.67288,1.311312 -0.88574,-0.898928 -0.74447,-1.489298 0.59277,-2.477237 1.61656,-1.194289 1.6353,-1.585082 0.23658,-4.932679 C 139.07219,60.237002 138.68677,60 134.5799,60 l -4.39326,0 -3.17254,7.620779 c -3.25485,7.818487 -3.14028,9.343359 0.72386,9.634435 C 130.17244,77.438598 132.88653,81 130.59181,81 c -0.78383,0 -1.57514,-0.419856 -1.75848,-0.933012 -0.18333,-0.513157 -2.08235,-0.120537 -4.22004,0.872489 -6.224,2.891251 -8.74464,11.47742 -4.46028,15.193228 1.18416,1.027012 2.53416,1.867295 3,1.867295 2.04922,0 0.65825,4.12887 -1.76256,5.23187 -2.24594,1.02332 -2.80636,0.91982 -4.02206,-0.74275 -0.77689,-1.06245 -1.20601,-2.4699 -0.9536,-3.127667 0.25241,-0.657765 -0.1443,-1.427414 -0.88157,-1.710333 -0.91085,-0.349524 -2.06463,1.466924 -3.59974,5.66724 -1.24258,3.3999 -2.64371,6.6871 -3.11361,7.30489 -0.46991,0.61779 -0.54924,1.91842 -0.1763,2.8903 0.6433,1.67639 0.7468,1.67308 2.01745,-0.0646 C 112.4324,111.02643 115,110.71426 115,112.9214 c 0,1.80966 2.44967,2.15483 4.83411,0.68116 2.12948,-1.31609 2.15497,-0.29401 0.10674,4.28086 -1.06747,2.38427 -1.94085,4.92339 -1.94085,5.64249 0,0.71911 -0.52102,1.48114 -1.15783,1.69341 -0.75086,0.25028 -0.19022,2.03706 1.59502,5.08333 1.51407,2.58356 2.82694,4.69739 2.9175,4.69739 0.0905,0 0.16029,-1.41277 0.15498,-3.1395 -0.008,-2.45148 0.46486,-3.21429 2.15567,-3.4808 1.84703,-0.29114 2.27177,0.28065 2.88926,3.88949 0.5776,3.37569 0.87494,3.82657 1.47112,2.23081 0.41096,-1.1 0.34829,-2.4275 -0.13926,-2.95 C 127.39891,131.0275 127,129.75786 127,128.72857 c 0,-1.02928 -0.67914,-2.55056 -1.50919,-3.38062 -0.83006,-0.83005 -1.18496,-2.03541 -0.78868,-2.67857 0.39629,-0.64316 -0.47611,-0.38688 -1.93866,0.5695 -3.49489,2.28538 -4.13564,0.97668 -1.53377,-3.13269 2.02996,-3.2061 2.127,-3.24247 3.21707,-1.20566 1.07129,2.00172 1.20736,2.01812 2.90311,0.34982 1.69579,-1.66834 1.8635,-1.64755 3.57961,0.44369 l 1.80047,2.19404 0.979,-2.19404 c 0.67696,-1.51715 0.59419,-3.11958 -0.26827,-5.19404 -0.686,-1.65 -0.99626,-3.40703 -0.68947,-3.90451 0.30679,-0.49748 0.0789,-0.60852 -0.50647,-0.24675 -1.87696,1.16002 -4.34919,-0.44431 -3.72333,-2.41622 0.42677,-1.34465 -0.24257,-1.06128 -2.52135,1.06741 -1.7063,1.59393 -3.70883,2.66532 -4.45007,2.38088 -0.74123,-0.28443 -1.64477,-0.0365 -2.00787,0.55102 C 118.6136,113.43422 117,113.26211 117,111.66068 c 0,-1.96195 7.27644,-8.33136 7.7827,-6.81257 0.26337,0.79011 1.29928,0.27645 2.87806,-1.42707 2.39577,-2.58508 2.51509,-2.60779 4.15667,-0.79126 0.92956,1.02862 1.54688,2.86538 1.37183,4.08168 -0.29841,2.07352 -0.12051,2.02673 2.85199,-0.75 1.74365,-1.6288 3.58381,-2.96146 4.08926,-2.96146 1.24186,0 3.03968,-4.749776 3.33043,-8.798908 0.13028,-1.8144 0.81297,-3.8394 1.51708,-4.5 1.03,-0.966355 1.14259,-0.62009 0.57611,1.771754 l -0.7041,2.972846 2.12579,-1.923811 c 1.4381,-1.30146 3.3126,-1.843884 5.79446,-1.67674 4.23416,0.285155 5.52976,1.725704 4.04584,4.498444 -0.74519,1.392401 -0.68315,3.126484 0.21659,6.053885 1.18511,3.85587 1.30335,3.95222 1.96663,1.60253 1.00427,-3.55762 6.3849,-13.987346 9.91257,-19.214362 1.64917,-2.443609 4.16733,-6.770035 5.59591,-9.614282 1.42859,-2.844246 2.91125,-5.175203 3.2948,-5.179904 0.38356,-0.0047 1.53835,-2.706117 2.56619,-6.003144 1.11855,-3.587963 2.81452,-6.6959 4.22442,-7.741452 1.48238,-1.099296 2.51457,-3.073108 2.78441,-5.324552 C 187.80404,46.36472 193.45134,36 194.96333,36 c 0.43548,0 1.31534,0.630849 1.95524,1.401887 0.63991,0.771038 2.28366,1.683037 3.65278,2.026665 1.75,0.439222 2.66795,1.517955 3.09079,3.632147 0.43436,2.171817 2.02349,3.971549 5.71967,6.477704 7.8736,5.338614 9.61819,7.085068 9.61819,9.628491 0,3.663363 -1.66475,8.585333 -4.59495,13.585344 -2.38196,4.064504 -2.82582,4.392805 -3.91859,2.898363 -0.69772,-0.954195 -1.91021,-1.425224 -2.79486,-1.085752 -3.36527,1.291375 -0.89634,-10.148423 2.64706,-12.265147 0.73628,-0.439836 1.84761,-1.699702 2.46961,-2.799702 0.78096,-1.381113 1.12936,-1.535835 1.12589,-0.5 -0.003,0.825 -0.64814,2.625 -1.43416,4 -0.78602,1.375 -1.42519,2.95 -1.42037,3.5 0.005,0.55 0.8918,-0.672253 1.97107,-2.716118 1.32307,-2.505545 2.44884,-3.529421 3.45581,-3.143011 3.37202,1.293968 1.17968,-2.423979 -3.63269,-6.160594 C 203.12464,46.910426 202,45.813966 202,43.878882 c 0,-1.096427 -0.98055,-2.31429 -2.25,-2.794546 -2.9098,-1.100832 -3.39705,-0.588525 -1.36905,1.439474 0.89048,0.890476 1.61905,2.213759 1.61905,2.94063 0,0.72687 0.61938,1.55926 1.37639,1.849755 0.87673,0.336429 1.19641,1.469727 0.8806,3.121766 C 201.67444,53.483394 200,54.910089 200,52.359017 c 0,-1.368124 -0.26667,-1.49235 -1.2,-0.559017 -1.83669,1.836688 -3.00759,1.429418 -2.3,-0.8 0.44326,-1.396601 0.1797,-2 -0.8736,-2 -0.8296,0 -1.79386,0.461934 -2.14279,1.02652 -0.34893,0.564586 -1.36302,0.902086 -2.25353,0.75 -0.90162,-0.153983 -2.17917,0.823784 -2.88296,2.206449 -0.69511,1.365633 -1.95281,2.986751 -2.79487,3.602485 -0.84207,0.615734 -2.26184,2.873398 -3.15506,5.017031 L 180.77316,65.5 182.88658,63.595012 C 184.04896,62.547269 185,62.000602 185,62.380196 c 0,0.379594 0.92877,0.193112 2.06392,-0.414406 1.53199,-0.819897 2.43404,-0.797407 3.5,0.08726 0.78985,0.655511 1.44976,0.799238 1.46649,0.319394 0.0167,-0.479845 0.48743,-0.0879 1.04601,0.870977 0.77337,1.327595 0.38568,2.818293 -1.62543,6.25 -2.48718,4.244049 -5.36642,6.334545 -4.06943,2.95464 0.40971,-1.067696 0.20908,-1.305677 -0.64301,-0.762701 C 184.83162,72.90051 179,72.897281 179,71.681076 c 0,-1.526066 -1.20303,-0.0025 -4.32042,5.471379 -2.45447,4.309889 -2.5034,4.614234 -0.66457,4.133368 2.44354,-0.639 2.62536,1.349094 0.35301,3.86001 -1.52622,1.68646 -1.46697,1.866049 0.91443,2.771456 3.60841,1.371913 4.17674,4.262309 1.76689,8.986002 -2.73319,5.357489 -2.57793,6.244529 0.45449,2.596709 1.83838,-2.211449 2.34293,-2.474299 1.91953,-1 -0.57437,2 -0.57437,2 0.68636,0 3.52244,-5.587918 9.82799,-7.710659 11.32398,-3.812173 0.34493,0.898878 -0.45204,2.958504 -1.85813,4.801983 -1.60969,2.11041 -2.26636,3.97659 -1.8967,5.39017 0.43664,1.66974 0.86924,1.91002 1.89947,1.05501 1.43598,-1.19176 3.42166,-0.47737 3.42166,1.23102 0,0.57638 -0.63776,0.80324 -1.41724,0.50412 -0.77948,-0.29911 -1.66536,0.10274 -1.96862,0.89301 -0.7233,1.88491 -3.61414,1.85951 -3.61414,-0.0318 0,-0.89459 -0.58629,-1.24363 -1.5,-0.89301 -2.41846,0.92805 -1.80382,-2.78226 1.00122,-6.04391 2.87845,-3.347017 3.05476,-4.167134 1.06034,-4.932464 -0.87207,-0.334644 -3.48461,1.493493 -6.6352,4.643014 -3.18375,3.18266 -5.37116,4.70838 -5.64697,3.93876 -0.24762,-0.69093 -0.93266,-0.95806 -1.52232,-0.59363 -0.69246,0.42796 -0.8708,-0.10724 -0.50361,-1.51136 0.33582,-1.28419 -0.0544,-2.79685 -0.95338,-3.69584 -1.3625,-1.362503 -1.66397,-1.334481 -2.87875,0.267591 -1.1798,1.555939 -1.23058,1.333579 -0.3891,-1.703929 1.25807,-4.541292 1.22714,-4.743571 -0.38762,-2.535252 -0.79588,1.088434 -2.00462,1.60448 -2.92811,1.250101 -2.45576,-0.942364 -5.78658,9.891249 -5.02308,16.337779 l 0.58961,4.9783 3.35177,-0.6288 c 3.26773,-0.61303 3.34272,-0.55113 2.99108,2.46901 -0.19838,1.70379 -0.8493,3.68654 -1.44649,4.40611 -0.5972,0.71958 -1.02965,2.18758 -0.96102,3.26224 0.11717,1.83448 -0.96402,4.30064 -6.09382,13.89979 -1.57217,2.94192 -1.8012,4.13593 -0.90016,4.6928 0.66469,0.4108 1.87038,0.21016 2.6793,-0.44588 1.22892,-0.99666 1.34802,-0.86393 0.7243,0.8072 -0.57282,1.53473 -0.47171,1.72738 0.43462,0.82814 1.63486,-1.62206 3.93739,-0.52585 3.93739,1.87456 0,3.83399 -3.12079,7.6601 -6.17714,7.5732 -1.55691,-0.0443 -3.33408,-0.68695 -3.94925,-1.42819 -1.54627,-1.86314 -3.62723,-1.68558 -4.71491,0.40229 -0.50142,0.9625 -1.91005,4.9 -3.1303,8.75 -1.22024,3.85 -2.89139,8.62591 -3.71366,10.61312 -1.3981,3.37884 -1.35014,3.89759 0.73964,8 1.22908,2.41279 2.932,5.45371 3.78427,6.75762 l 1.54959,2.37074 1.16303,-3.37074 c 0.63967,-1.85391 1.47108,-4.49574 1.84759,-5.87074 l 0.68457,-2.5 -1.60439,2.5 c -1.57542,2.45488 -1.59565,2.45836 -1.12039,0.19285 0.4211,-2.00731 0.27815,-2.13727 -1.09995,-1 -1.19455,0.98581 -1.68276,1.01367 -1.98593,0.11333 -0.22109,-0.65661 -1.04791,-0.94596 -1.83738,-0.64301 -2.14108,0.82161 -1.73393,-1.71648 0.68909,-4.29567 1.68187,-1.79027 2.40382,-2.01203 3.46529,-1.06445 4.20995,3.75822 4.12874,3.77398 5.48322,-1.06375 0.71309,-2.54691 1.46541,-4.12409 1.67183,-3.50485 0.20641,0.61924 -1.17001,6.06003 -3.05872,12.09064 -2.15477,6.88013 -3.11415,11.46955 -2.57537,12.31983 1.08699,1.71544 1.14915,4.13373 0.0894,3.47878 -0.43992,-0.27188 -1.37502,0.42666 -2.07801,1.55233 -1.23529,1.97801 -1.201,1.99261 1.02236,0.43531 2.77677,-1.94492 3.8555,-2.03742 3.8555,-0.33058 0,2.10761 -5.26339,3.44378 -11.57436,2.93829 -4.87866,-0.39077 -6.36736,-0.96509 -8.42564,-3.25052 -3.11992,-3.46422 -9.70021,-4.76077 -11.52142,-2.27012 -1.70131,2.32668 -3.96677,1.08618 -7.707,-4.22013 l -3.23257,-4.58609 -0.73747,2.75747 c -0.83242,3.11254 -0.0587,7.35034 1.34205,7.35034 0.52836,0 0.46933,0.96728 -0.13729,2.25 l -1.06407,2.25 1.65086,-2.25 c 2.37047,-3.23078 3.36431,-2.78097 3.03704,1.37455 -0.25851,3.28256 -0.15645,3.44814 1.0817,1.75487 1.14353,-1.56388 1.51177,-1.63565 2.25144,-0.43885 0.72267,1.1693 1.16532,1.1976 2.42179,0.15482 0.84562,-0.7018 1.80086,-2.10582 2.12276,-3.12004 0.33229,-1.04696 1.42966,-1.78043 2.53873,-1.69689 2.55428,0.19241 2.5102,0.32577 -1.24004,3.75109 -1.75642,1.60424 -2.87199,3.23831 -2.47904,3.63126 0.39296,0.39295 2.78942,-1.28248 5.32549,-3.72318 2.53606,-2.4407 4.17223,-3.60723 3.63593,-2.5923 -1.21849,2.30594 -0.4652,6.65467 1.15271,6.65467 0.72326,0 1.17833,1.37065 1.13343,3.41387 -0.073,3.32213 -0.18613,3.41394 -4.20962,3.41666 -3.54165,0.002 -4.06472,-0.26438 -3.64737,-1.8603 0.26796,-1.02471 1.22853,-2.00587 2.13459,-2.18036 1.13132,-0.21788 1.64737,-1.34682 1.64737,-3.60394 0,-3.11736 -0.0794,-3.18862 -1.5414,-1.38313 -2.63068,3.24875 -5.24544,4.19185 -7.35177,2.65166 -1.60684,-1.17495 -2.40844,-1.08616 -5.79589,0.64199 -2.8715,1.46493 -5.4437,1.92439 -9.54244,1.70454 L 99.657218,210.5 l -4.3099,8 c -2.370445,4.4 -4.318319,8.3375 -4.328609,8.75 C 91.008419,227.6625 91.9,228 93,228 c 1.1,0 2,0.45 2,1 0,0.55 1.488992,1 3.30887,1 1.81988,0 4.18238,0.66069 5.25,1.4682 1.06762,0.8075 2.54812,1.4825 3.29,1.5 0.74188,0.0175 2.89277,0.76443 4.77975,1.65986 3.0708,1.45719 3.61144,1.46887 5.15113,0.11129 0.94614,-0.83422 3.15931,-1.82245 4.91816,-2.19607 3.61457,-0.76782 8.2161,-6.92646 13.89722,-18.59989 2.81069,-5.77535 5.40487,-9.38624 5.40487,-7.52315 0,0.29605 -2.27257,4.97246 -5.05015,10.39202 -6.27784,12.24917 -9.86661,16.72109 -14.09803,17.56738 -1.77132,0.35426 -4.06279,1.40629 -5.09214,2.33785 -1.53018,1.38479 -2.22519,1.47289 -3.81028,0.48298 -1.0663,-0.66591 -4.97863,-2.15784 -8.69407,-3.31539 -3.71543,-1.15755 -8.451936,-2.73023 -10.525566,-3.49486 C 89.12252,228.69136 89,228.68827 89,230.27091 89,232.16113 80.108229,247 78.975567,247 78.439005,247 78,246.50246 78,245.89436 z M 56.417611,225.3161 c -3.059853,-2.23742 -3.583766,-1.46026 -1.197548,1.77642 1.874873,2.54309 2.343673,2.77691 2.638678,1.3161 0.197307,-0.97704 -0.451201,-2.36867 -1.44113,-3.09252 z M 52,222.8 c 0,-1.61542 -0.295711,-1.90429 -1.112868,-1.08713 -0.612077,0.61207 -0.810519,1.60207 -0.440983,2.2 C 51.480541,225.58655 52,225.21451 52,222.8 z m 6.392628,-4.21921 c -0.810688,-2.11262 2.34372,-6.29724 5.151528,-6.83398 C 64.89487,211.4886 66,211.56549 66,211.91767 c 0,1.78503 6.922764,0.23488 9.46072,-2.11844 C 78.184723,207.27339 79.796536,202 77.844556,202 c -0.538632,0 -0.694529,-1.0125 -0.346437,-2.25 0.483361,-1.7184 0.39274,-1.90041 -0.383553,-0.77036 -1.203791,1.75235 -7.110189,2.294 -7.124335,0.65334 -0.0054,-0.62314 -1.109671,1.22952 -2.453995,4.11702 -2.397183,5.14896 -4.655931,6.95968 -4.366003,3.5 0.622767,-7.43138 -1.364331,-6.75772 -5.899434,2 -4.708087,9.09177 -4.734587,9.15467 -3.547853,8.42123 0.540326,-0.33394 1.836205,0.0391 2.879732,0.829 2.382845,1.80368 2.452373,1.80681 1.78995,0.0806 z m 24.158399,-6.04867 c 1.787281,-4.27757 1.795008,-4.04323 -0.199076,-6.03731 -1.530732,-1.53073 -1.769593,-1.30447 -3.35547,3.17857 -0.939081,2.65464 -1.520901,5.16412 -1.292934,5.57662 1.023183,1.85142 3.524214,0.44914 4.84748,-2.71788 z M 107,197.30887 c 0,-2.22995 -0.75649,-1.45236 -1.88844,1.94113 -0.99181,2.97337 -0.95758,3.08478 0.40218,1.30887 0.81744,-1.06762 1.48626,-2.53012 1.48626,-3.25 z m 37.25,4.02885 c -0.6875,-0.27741 -1.8125,-0.27741 -2.5,0 -0.6875,0.27741 -0.125,0.50439 1.25,0.50439 1.375,0 1.9375,-0.22698 1.25,-0.50439 z M 32.969374,195.5 c 0,-0.55 -0.436218,-0.325 -0.969374,0.5 -0.533156,0.825 -0.969374,1.95 -0.969374,2.5 0,0.55 0.436218,0.325 0.969374,-0.5 0.533156,-0.825 0.969374,-1.95 0.969374,-2.5 z m 93.885096,8.2e-4 c 2.55504,0.38311 5.44365,1.12368 6.41914,1.6457 1.26494,0.67691 2.21752,0.50521 3.32143,-0.5987 1.87906,-1.87906 1.42208,-1.88485 5.33589,0.0676 4.73169,2.36048 5.51426,0.58702 2.04715,-4.63923 -1.79591,-2.70712 -2.97121,-3.78457 -2.9738,-2.7262 -0.002,0.9625 -0.35415,1.75 -0.78177,1.75 -1.06922,0 -5.47996,-2.99704 -6.82761,-4.63927 -0.9093,-1.10806 -1.52427,-0.98312 -3.47089,0.70517 -1.30118,1.12851 -3.16638,1.84247 -4.1449,1.58659 -1.08267,-0.28313 -1.77911,0.0853 -1.77911,0.94113 0,1.74306 -2.17216,1.83108 -3.85925,0.15638 -1.01019,-1.00278 -1.12434,-0.85444 -0.57714,0.75 0.42399,1.24321 -0.68877,0.51229 -2.94076,-1.93165 -4.92813,-5.3482 -4.90472,-2.08257 0.0333,4.64436 3.11343,4.24134 3.79691,4.72912 4.60447,3.2861 0.77602,-1.38668 1.79237,-1.568 5.59386,-0.99799 z m 14.42486,-13.72531 c -4.63509,-9.19057 -4.6565,-9.21396 -5.82193,-6.36276 -0.73351,1.79453 -1.4356,2.43154 -1.88266,1.70818 -0.39212,-0.63446 -1.13269,-0.89413 -1.64571,-0.57707 -0.51303,0.31707 -1.41158,-0.68286 -1.99679,-2.22207 l -1.06401,-2.79856 -1.91188,2.48838 c -1.05153,1.36862 -1.92188,3.05089 -1.93411,3.73839 -0.0476,2.67821 -4.02224,0.13624 -4.02224,-2.57244 0,-1.15102 0.28623,-1.1849 1.5,-0.17756 1.28638,1.0676 1.5,0.72901 1.5,-2.37756 0,-1.99234 0.45,-3.62244 1,-3.62244 0.55,0 1,-0.9 1,-2 0,-2.83235 2.83896,-2.48981 3.57204,0.43099 0.40005,1.59394 1.26742,2.38148 2.51905,2.2872 1.0499,-0.0791 1.91567,-0.61054 1.92394,-1.18099 0.0298,-2.05979 -8.30485,-19.47612 -9.0886,-18.99173 -0.44193,0.27313 -1.28084,-0.30037 -1.86423,-1.27444 -1.00479,-1.67763 -1.13987,-1.66866 -2.56146,0.1701 -0.82541,1.06762 -1.50074,2.75512 -1.50074,3.75 0,0.99488 -0.40787,1.80887 -0.90638,1.80887 -0.49851,0 -0.67103,0.9 -0.38337,2 0.40314,1.5416 0.0307,2 -1.625,2 -1.18141,0 -2.43702,-0.75312 -2.79024,-1.67361 -0.35323,-0.92048 -1.4225,-2.45388 -2.37616,-3.40754 -1.64525,-1.64525 -1.76166,-1.62796 -2.27578,0.33806 -0.43695,1.6709 -0.8194,1.84164 -1.97567,0.88202 -1.14257,-0.94825 -1.57381,-0.82931 -2.12293,0.58555 -0.61151,1.5756 -0.84586,1.49403 -2.08135,-0.72448 -0.76574,-1.375 -1.4082,-2.09276 -1.42768,-1.59501 C 101.01595,152.90273 100.1,152.49549 99,151.5 97.86581,150.47357 97,150.19002 97,150.84501 97,151.48026 96.655624,152 96.234719,152 95.3252,152 91.646222,142.02044 92.310759,141.35591 92.858237,140.80843 99,148.09028 99,149.28686 c 0,0.45715 0.383928,0.59389 0.853173,0.30388 0.469247,-0.29001 0.671747,-2.34156 0.449997,-4.55901 -0.478089,-4.78092 0.99779,-5.28421 3.17115,-1.08139 1.91155,3.69652 1.91654,4.41362 0.0257,3.68803 -1.07758,-0.4135 -1.5,0.10298 -1.5,1.834 0,1.32528 0.45,2.68771 1,3.02763 0.55,0.33992 1,-0.0835 1,-0.94098 0,-1.86204 1.14958,-2.00944 2.8,-0.35902 0.93333,0.93333 1.2,0.58387 1.2,-1.57258 l 0,-2.77258 2.61754,2.05895 c 2.95898,2.32754 4.76302,1.86061 3.85575,-0.99795 -0.33444,-1.05371 -0.224,-1.91584 0.24541,-1.91584 1.00006,0 0.86128,-5.71269 -0.20042,-8.25 -0.8759,-2.09328 1.01095,-2.3987 2.18203,-0.3532 0.64141,1.12034 1.02983,1.14717 1.9625,0.13555 0.89612,-0.972 0.45694,-2.49636 -1.915,-6.6468 -1.98222,-3.46849 -3.25427,-4.85796 -3.57352,-3.90341 -0.82087,2.45431 -3.13262,4.24783 -4.69999,3.64637 -0.81086,-0.31116 -1.4743,-0.19872 -1.4743,0.24987 0,0.44858 -0.92533,1.88252 -2.0563,3.18653 -1.72068,1.98397 -2.20782,2.13135 -2.98469,0.90301 C 100.81499,133.15905 100.71388,130 101.8,130 c 0.44,0 1.31509,0.51509 1.94464,1.14464 1.63073,1.63073 2.67812,-3.12738 1.73928,-7.90121 C 104.26942,117.06795 104.11021,113 105.08301,113 c 0.50434,0 0.91699,0.525 0.91699,1.16667 0,0.64166 0.2327,0.93397 0.51711,0.64956 0.2844,-0.28441 -1.05921,-3.13483 -2.98581,-6.33427 -1.9266,-3.19944 -3.772145,-6.66544 -4.101205,-7.70221 -0.496357,-1.563883 -0.857963,-1.669541 -2.122406,-0.62015 -1.257388,1.04354 -1.767682,0.93181 -2.915902,-0.638476 C 93.626304,98.474263 93,97.118749 93,96.50887 c 0,-1.895044 -2.079299,-3.300894 -4.100416,-2.77236 -1.062467,0.277842 -1.830107,1.013289 -1.705867,1.634328 0.37974,1.898197 -2.222761,5.729242 -3.398399,5.002662 -0.63672,-0.393515 -0.823301,-0.22779 -0.440635,0.39137 C 84.006683,101.81983 81.572278,105 80.112712,105 79.037538,105 75,97.533926 75,95.545751 75,94.070776 75.369153,94.126672 78,96 l 3,2.136188 0,-2.175083 c 0,-1.554916 0.442493,-2.005282 1.551938,-1.579548 0.853566,0.327544 1.298902,0.186114 0.989636,-0.314288 C 83.232309,93.566866 82.813883,91.736967 82.611739,90.000826 82.206,86.516071 80,83.363667 80,86.268615 c 0,1.072371 -0.535993,1.462935 -1.5,1.093011 -0.825,-0.316582 -1.5,-0.03594 -1.5,0.623656 0,0.659593 -0.891954,2.333195 -1.98212,3.719117 l -1.98212,2.519857 -1.025034,-2.696044 c -1.18097,-3.106188 -0.38275,-5.300236 1.311793,-3.605693 1.819345,1.819345 3.652529,-2.69565 2.470831,-6.085472 -1.4447,-4.144269 -0.389377,-5.844421 1.450659,-2.337047 0.865622,1.65 1.727338,2.855865 1.914924,2.679701 0.187587,-0.176164 1.607862,0.161336 3.156167,0.75 3.432694,1.305108 4.987647,1.369171 4.249661,0.175084 -0.304301,-0.492369 0.129432,-1.157194 0.96385,-1.47739 1.337828,-0.513373 1.347207,-0.98884 0.07936,-4.023224 C 86.817203,75.711595 86.469413,73.86392 86.835105,73.498228 87.200797,73.132536 87.5,72.50119 87.5,72.095238 c 0,-0.405952 0.847768,-1.585863 1.883929,-2.622024 1.427175,-1.427175 1.561831,-1.991294 0.555406,-2.326769 -0.730688,-0.243563 -2.535461,1.002876 -4.010608,2.769864 l -2.682085,3.212705 -2.123321,-2.699366 C 79.955495,68.944997 79,67.314411 79,66.806124 c 0,-0.508287 -0.484465,-0.624742 -1.07659,-0.258789 -0.592124,0.365953 -2.000782,-0.326636 -3.130352,-1.539086 -1.59768,-1.714908 -2.234811,-1.911511 -2.869037,-0.885312 -0.448401,0.725528 -1.120282,1.014135 -1.493069,0.641349 C 69.505344,63.838677 63,68.912183 63,70.559672 c 0,2.276042 -2.242025,2.829824 -3.651704,0.901974 -1.228071,-1.679488 -1.351007,-1.537067 -1.378705,1.597224 -0.02589,2.930222 -0.189248,3.167894 -1.100241,1.600799 -0.588408,-1.012181 -0.867466,-3.219149 -0.620127,-4.904372 0.381074,-2.596424 0.264366,-2.810576 -0.764719,-1.403218 -1.382816,1.891114 -2.762454,10.389171 -1.910461,11.767726 0.310285,0.50205 0.963895,0.665765 1.452467,0.363811 0.488573,-0.301955 1.594035,0.815705 2.456582,2.483688 C 58.34564,84.635287 59.291362,86 59.584697,86 c 0.293335,0 0.255222,-0.45 -0.0847,-1 -0.339919,-0.55 -0.09935,-1 0.534603,-1 0.63395,0 1.387992,0.9 1.675648,2 0.287656,1.1 1.135792,2 1.884745,2 0.977287,0 1.306157,1.276982 1.164877,4.523146 -0.137321,3.1552 -0.575572,4.377818 -1.44909,4.042618 -0.688729,-0.26429 0.408271,2.875295 2.437777,6.976856 2.928725,5.91885 4.146642,7.45738 5.903338,7.45738 1.335068,0 2.465208,-0.79361 2.848102,-2 0.906401,-2.85582 2.059652,-2.47731 3.571301,1.17214 0.722668,1.74467 1.485878,2.65632 1.696022,2.02589 0.263688,-0.79106 1.151362,-0.64219 2.864728,0.48045 2.426754,1.59007 2.469875,1.5726 1.915346,-0.77589 -0.312015,-1.32143 -0.125536,-3.07759 0.414398,-3.90259 0.811459,-1.23988 1.520789,-0.84809 4.090412,2.25929 1.709793,2.06761 3.471494,3.53508 3.914891,3.26104 0.443397,-0.27403 1.123359,-2.18897 1.511026,-4.25541 l 0.70485,-3.75718 1.908513,2.35691 C 98.141169,109.16096 99,111.14878 99,112.28204 c 0,1.13326 0.769607,2.91088 1.71024,3.95027 1.231,1.36024 1.38418,2.0913 0.54666,2.60891 -0.63996,0.39552 -1.297066,3.06613 -1.460233,5.93468 -0.163167,2.86855 -0.561935,5.21747 -0.886152,5.21982 -0.495136,0.004 -1.584702,-1.83382 -3.722178,-6.27697 -0.20671,-0.42969 0.164599,-0.65469 0.825131,-0.5 1.376382,0.32233 2.405159,-6.41467 1.518825,-9.94611 C 96.854751,110.5731 95,110.22692 95,112.8 c 0,2.76642 -2.04616,4.40658 -3.741782,2.99934 -1.138269,-0.94468 -1.332336,-0.64306 -1.073794,1.6689 0.180032,1.6099 -0.221316,3.0102 -0.934424,3.2602 -0.872663,0.30594 -1.25,-0.84472 -1.25,-3.81177 0,-2.3375 -0.2625,-3.9875 -0.583333,-3.66667 -0.320834,0.32083 -0.590209,0.95833 -0.598613,1.41667 -0.04906,2.67588 -2.008864,4.24517 -4.643527,3.71824 -2.516273,-0.50326 -2.896271,-0.19819 -3.923914,3.15018 -1.100652,3.58625 -0.772248,4.85475 2.422561,9.35741 0.153172,0.21588 0.998666,-0.20519 1.878875,-0.9357 1.337116,-1.1097 1.759708,-1.09202 2.568916,0.1075 0.772205,1.14467 0.936121,1.03028 0.808631,-0.5643 -0.08795,-1.1 -0.09377,-3.125 -0.01295,-4.5 0.13437,-2.28587 0.259768,-2.35144 1.464031,-0.76554 0.724391,0.95395 1.604172,1.44735 1.95507,1.09646 0.350898,-0.3509 1.302879,0.95329 2.115513,2.89819 0.965425,2.31059 2.356333,3.75677 4.013127,4.1726 1.394585,0.35002 2.53561,1.07782 2.53561,1.61734 0,1.33884 -1.347536,1.23341 -2.8,-0.21905 -0.933333,-0.93333 -1.2,-0.92551 -1.2,0.0352 0,0.91243 -0.506755,0.96398 -1.939312,0.1973 -2.354346,-1.26001 -3.030587,-0.36261 -2.610503,3.46426 0.175141,1.59549 -0.177452,3.69494 -0.78354,4.66544 -0.879428,1.40819 -0.402176,3.13514 2.363163,8.55118 6.471838,12.6754 19.464355,33.6494 19.793515,31.95296 0.41965,-2.16274 1.81004,-2.12517 3.09658,0.0837 0.80724,1.38595 1.03298,1.43795 1.08513,0.25 0.0403,-0.91913 0.61926,-0.53189 1.49497,1 0.87668,1.5336 1.45512,1.92016 1.49637,1 0.0513,-1.1452 0.44633,-1.02693 1.66997,0.5 1.51431,1.88967 1.56585,1.89408 0.93432,0.0799 -1.24736,-3.58318 1.70264,-3.78231 4.70636,-0.31769 l 2.80703,3.23774 -1.55703,-3.20034 c -2.12819,-4.37434 -1.9182,-5.2979 0.52289,-2.29966 l 2.03543,2.5 -0.62015,-3.17272 c -0.54441,-2.78523 -0.38367,-3.11088 1.31609,-2.66638 1.06494,0.27849 2.95459,1.88372 4.19922,3.56717 l 2.26297,3.06084 1.74307,-2.31084 1.74307,-2.31084 0.683,2.15195 c 0.56,1.76439 4.48567,7.0968 5.27316,7.16275 0.11867,0.01 -1.87773,-4.13295 -4.43644,-9.20642 z m -30.20675,-6.41037 c -2.9761,-3.7835 -2.49411,-5.44778 0.54016,-1.86514 l 2.54081,3 -0.59215,-3 c -1.26346,-6.40106 -1.5158,-12.5 -0.51719,-12.5 0.56021,0 1.32122,0.7875 1.69114,1.75 0.56447,1.46872 0.7681,1.34817 1.26688,-0.75 l 0.59431,-2.5 1.48128,3 c 1.74801,3.54021 1.38288,6.89076 -0.66528,6.10481 -1.0016,-0.38435 -1.41651,0.24886 -1.42619,2.17657 -0.0182,3.62818 -1.02812,7.21862 -2.0304,7.21862 -0.44593,0 -1.74345,-1.18569 -2.88337,-2.63486 z M 100.64556,164.04658 C 97.305221,160.40954 95,156.77891 95,155.15505 c 0,-1.18884 0.24937,-1.19298 1.653695,-0.0275 0.909532,0.75484 1.922032,1.28825 2.25,1.18534 0.327968,-0.1029 0.496942,0.6404 0.375497,1.65179 -0.121444,1.01138 0.441056,2.38817 1.249998,3.05954 1.19163,0.98896 1.47081,0.91269 1.47081,-0.40179 0,-2.5346 3.57595,-1.91856 5.448,0.93854 0.92291,1.40854 1.49973,3.09604 1.28182,3.75 -0.72248,2.16821 -5.63771,1.39946 -8.08426,-1.2644 z m 18.48833,-1.65207 c -0.93983,-2.0627 -0.83893,-2.56627 0.62219,-3.10529 0.95915,-0.35383 2.08997,-1.12616 2.51292,-1.71628 0.50661,-0.70684 1.27434,-0.4106 2.25,0.86819 1.66197,2.17832 2.02668,6.01415 0.481,5.05887 -0.55,-0.33992 -1,-0.23724 -1,0.22818 0,2.00514 -3.82214,0.95759 -4.86611,-1.33367 z M 107.13131,139 c -0.0554,-1.375 0.33553,-3.175 0.86869,-4 0.53316,-0.825 0.97627,-1.1074 0.98469,-0.62756 0.008,0.47985 0.68499,0.31667 1.50348,-0.36262 1.20582,-1.00074 1.6065,-0.92669 2.11187,0.39029 0.77493,2.01942 -1.27919,4.66024 -3.08569,3.96702 -0.74804,-0.28705 -1.54758,0.2911 -1.81088,1.30944 -0.34051,1.31693 -0.49944,1.129 -0.57216,-0.67657 z M 91,111.62212 c 0,-0.20783 -0.681039,-2.00783 -1.51342,-4 -1.815385,-4.34482 -0.194878,-4.8925 1.98774,-0.67178 C 93.243036,110.37066 93.412654,112 92,112 c -0.55,0 -1,-0.17004 -1,-0.37788 z M 67.61501,100.53518 C 65.578574,97.427189 65.506955,94.764041 67.531803,97.44113 68.974012,99.3479 69,99.345369 69,97.298118 69,95.351715 71.21217,93.545503 72.283689,94.617023 72.987564,95.320897 70.889552,103 69.993372,103 c -0.419844,0 -1.490107,-1.10917 -2.378362,-2.46482 z M 63.666667,86.333333 C 63.3,85.966667 63,84.446767 63,82.955778 c 0,-4.679606 5.997485,-7.697511 7.970577,-4.010755 1.177862,2.200854 1.413401,6.175029 0.26411,4.456231 -1.296919,-1.939579 -4.254516,-1.170431 -4.865874,1.265413 -0.590056,2.350972 -1.473152,2.89566 -2.702146,1.666666 z M 78.354485,77.022426 C 77.741477,73.957386 75,70.618193 75,72.936572 75,73.586376 74.55,73.839919 74,73.5 73.45,73.160081 73,73.583524 73,74.440983 73,76.978706 71.167276,76.224157 69.5,73 c -0.853248,-1.65 -1.127304,-3 -0.609013,-3 0.51829,0 1.16932,0.5625 1.446732,1.25 0.277413,0.6875 0.539913,0.189355 0.583334,-1.106989 0.05587,-1.668123 0.517345,-2.18876 1.578947,-1.781385 0.825,0.316583 1.5,0.135914 1.5,-0.401485 0,-0.56269 0.805649,-0.473953 1.899595,0.209228 C 79.37841,70.341925 82.705415,80 79.975,80 79.41125,80 78.682018,78.660092 78.354485,77.022426 z m 66.600775,89.388524 c 2.51386,-7.78124 2.51454,-7.69483 -0.054,-6.87962 -2.29232,0.72756 -2.20491,-0.25642 0.64129,-7.21863 2.28248,-5.58331 0.0695,-8.72544 -3.85266,-5.47031 -3.60461,2.99156 -4.61951,-6.0037 -1.07705,-9.54615 2.80121,-2.80122 4.96538,-2.2452 3.30882,0.85009 -0.59604,1.11373 -0.83285,2.27583 -0.52624,2.58244 0.30662,0.30662 0.84122,-0.18192 1.18801,-1.08564 0.82947,-2.16155 2.41655,-2.10942 2.41655,0.0794 0,1.41037 0.28422,1.31673 1.56842,-0.51673 2.21556,-3.16316 3.75253,-1.72711 1.92791,1.80131 -1.66101,3.21206 -2.01417,5.3416 -0.49633,2.99291 1.94333,-3.00708 0.96659,0.94231 -1.09878,4.44284 -1.15432,1.95644 -1.83275,3.55716 -1.5076,3.55716 1.28153,0 5.74246,-4.56641 7.07984,-7.24725 0.77792,-1.55938 2.41165,-4.50418 3.6305,-6.54399 1.21886,-2.03982 1.60409,-3.14626 0.85608,-2.45876 -1.81003,1.66358 -4.30789,1.59886 -3.65797,-0.0948 0.28382,-0.73963 -0.31254,-1.94199 -1.32524,-2.67191 -1.32168,-0.95261 -1.72506,-2.23489 -1.42944,-4.54391 0.33216,-2.59431 0.0144,-3.32072 -1.64198,-3.75387 -1.26529,-0.33089 -2.79322,0.20229 -3.97962,1.38869 C 145.8666,127.1334 144.325,128 143.5,128 c -0.825,0 -1.5,0.57924 -1.5,1.2872 0,1.11525 -1.61686,1.67201 -5.5,1.89388 -0.55,0.0314 -1.71814,-0.24299 -2.59587,-0.60981 -1.22187,-0.51065 -2.02458,0.4556 -3.42517,4.12299 -1.00611,2.63447 -1.90054,5.98761 -1.98763,7.45143 -0.13743,2.3102 0.16591,2.60269 2.29823,2.21603 1.84744,-0.33501 2.31755,-0.0832 1.89596,1.01542 -0.87841,2.28909 2.53112,5.64075 4.57473,4.49709 1.35724,-0.75955 1.82638,-0.40181 2.415,1.84155 0.84905,3.23589 0.53927,6.38132 -0.76171,7.73422 C 138.35315,160.03276 138,159.35625 138,157.7 c 0,-3.41497 -2.29225,-3.54876 -3.80791,-0.22225 -0.96601,2.12016 -0.5923,3.63585 2.58949,10.50247 4.26508,9.20448 4.72135,9.11688 8.17368,-1.56927 z m -6.94689,0.59422 c -0.66284,-0.40965 -1.04321,-1.58573 -0.84528,-2.61351 0.43254,-2.24598 3.83691,-3.19711 3.83691,-1.07197 0,0.80648 0.675,1.72535 1.5,2.04194 0.825,0.31658 1.5,0.98347 1.5,1.48199 0,1.09148 -4.2994,1.20741 -5.99163,0.16155 z m -5.59911,-25.38105 c -0.31714,-0.82645 -0.15216,-2.26112 0.36663,-3.18814 0.80501,-1.43848 1.01746,-1.29733 1.44957,0.96312 0.55258,2.8906 -0.88498,4.65174 -1.8162,2.22502 z m -3.0277,5.82394 c 0.34149,-0.88992 0.17385,-1.29132 -0.39301,-0.94098 -0.5437,0.33602 -0.98855,1.0344 -0.98855,1.55194 0,1.43843 0.71677,1.12146 1.38156,-0.61096 z m -64.038394,-4.70182 c -0.92286,-1.49322 -2.342907,0.39144 -2.307731,3.06278 l 0.03544,2.69098 1.376828,-2.48745 c 0.757256,-1.3681 1.160216,-2.83794 0.895467,-3.26631 z M 126,141.5 c 0,-0.825 -0.43588,-1.5 -0.96862,-1.5 -0.53273,0 -0.70959,0.675 -0.39301,1.5 0.31659,0.825 0.75246,1.5 0.96862,1.5 C 125.82314,143 126,142.325 126,141.5 z M 72.421358,124.45731 c 0.784775,-3.12679 -2.644507,-10.07597 -5.404588,-10.95199 -1.109223,-0.35205 -2.984842,-0.33284 -4.168042,0.0427 -1.696502,0.53845 -2.022828,0.34807 -1.543674,-0.90059 0.334179,-0.87085 0.177251,-1.84934 -0.348728,-2.17441 -1.05369,-0.65122 -1.206789,0.0295 -1.411775,6.27699 -0.158156,4.82025 0.446554,5.10459 4.586573,2.15663 4.382062,-3.1203 5.730869,-2.07211 4.833482,3.75622 -0.409625,2.66043 -0.529173,5.1965 -0.265662,5.63571 0.74801,1.24674 3.038687,-1.11706 3.722414,-3.84125 z m 70.825922,-0.94408 c -0.36774,-1.92371 -0.80179,-2.29792 -1.75131,-1.50988 -2.06285,1.71201 -2.82683,-1.98027 -0.85954,-4.1541 0.92655,-1.02383 1.9085,-1.63766 2.1821,-1.36406 0.2736,0.2736 1.17389,-0.0611 2.00066,-0.74387 1.29432,-1.06883 1.42446,-0.82709 0.93652,1.73966 -0.45972,2.41837 -0.3486,2.68497 0.58881,1.41256 1.19171,-1.6176 4.65548,-2.18176 4.65548,-0.75826 0,0.44107 0.66454,0.54694 1.47676,0.23527 0.94423,-0.36234 1.90362,0.37018 2.66051,2.03138 1.33288,2.92536 3.02527,3.31208 4.85359,1.10908 0.67967,-0.81894 1.60367,-1.2616 2.05335,-0.98369 0.44968,0.27792 1.10025,0.048 1.44571,-0.51101 C 163.85288,119.42903 163.03777,119 161.55902,119 159.61311,119 159,118.48872 159,116.86602 c 0,-4.9568 -2.3969,-10.18956 -5.14202,-11.22573 -1.49952,-0.566 -2.95071,-1.88689 -3.22488,-2.93531 C 150.08245,100.59927 148,101.2747 148,103.55902 148,104.35156 147.625,105 147.16667,105 c -2.1407,0 -1.90302,-1.71735 0.92069,-6.652694 C 150.24034,94.584287 150.7351,93 149.75726,93 c -1.41181,0 -7.49379,11.58487 -6.97262,13.28133 0.15656,0.50959 -1.22867,3.69226 -3.07827,7.0726 -1.84961,3.38034 -3.85874,7.58547 -4.46473,9.34474 -1.06749,3.09901 -1.02923,3.17107 1.22808,2.31284 1.90635,-0.72479 2.42553,-0.52007 2.85603,1.12615 0.43057,1.64652 0.87891,1.82318 2.46829,0.97257 1.39531,-0.74675 1.80449,-1.75954 1.45324,-3.597 z m 3.86698,-11.70188 c -1.34596,-2.15522 -0.54275,-4.18976 1.36504,-3.45767 0.70234,0.26952 1.66932,0.12221 2.14884,-0.32735 0.47953,-0.44955 1.88176,-0.42985 3.11608,0.0438 1.96817,0.75523 2.10613,1.16421 1.12162,3.32498 -1.37813,3.02466 -5.96865,3.27117 -7.75158,0.41625 z m -32.40452,9.31736 c -0.12777,-1.74918 -0.6749,-2.69334 -1.4,-2.41594 -0.89127,0.34098 -0.91375,1.06223 -0.0895,2.87129 1.43199,3.14289 1.74533,3.0471 1.48948,-0.45535 z M 113,116.44098 c 0,-0.85746 -0.45,-1.2809 -1,-0.94098 -0.55,0.33992 -1,1.04148 -1,1.55902 0,0.51754 0.45,0.94098 1,0.94098 0.55,0 1,-0.70156 1,-1.55902 z m -66.047712,-7.26011 c 2.125194,-5.00798 3.632975,-6.32307 6.441397,-5.6182 C 55.114514,103.99457 56,104.89583 56,106.2154 c 0,1.26012 -0.495373,1.80849 -1.340684,1.48411 -2.042103,-0.78363 -4.033305,0.88351 -3.30916,2.7706 0.580374,1.51243 0.928222,1.46786 3.645717,-0.46717 C 56.787972,108.72685 58,108.34414 58,109.05435 c 0,0.79005 0.420497,0.87247 1.25,0.24501 0.6875,-0.52003 2.301027,-1.00007 3.585615,-1.06674 1.804032,-0.0936 2.188845,0.2644 1.690754,1.57308 -0.473131,1.2431 -0.347692,1.39959 0.471034,0.58765 C 66.37855,109.02365 62.300839,100 60.300734,100 59.58533,100 59,100.45 59,101 c 0,1.81602 -2.852876,1.03891 -3.483804,-0.94897 -0.410035,-1.291905 -1.165553,-1.739079 -2.240996,-1.326392 -1.234134,0.473581 -1.461932,0.20436 -0.951838,-1.124923 1.153642,-3.006341 -4.763822,3.567215 -7.640961,8.488145 -3.197561,5.46896 -3.194667,5.44794 -0.775086,5.63021 1.197936,0.0902 2.330438,-0.85341 3.044973,-2.5372 z M 105,103.5651 c 0,-0.2392 -0.46196,-1.64994 -1.02657,-3.13498 -0.79035,-2.078774 -0.66999,-3.244284 0.52305,-5.065099 1.98442,-3.028594 3.85778,-3.101207 2.96748,-0.115021 -0.6599,2.2134 -0.64525,2.217466 0.90081,0.25 1.83109,-2.330183 2.0371,-1.687195 0.63825,1.992049 -0.66263,1.742865 -0.66263,2.415614 0,2.006083 0.54834,-0.338891 0.99838,0.197892 1.0001,1.192848 0.002,0.99496 1.28341,-0.89098 2.84822,-4.19098 1.56481,-3.3 2.46341,-6.15 1.99689,-6.333333 C 114.3817,89.983333 114,89.195833 114,88.416667 c 0,-1.87845 -1.9087,-1.818163 -2.63837,0.08333 -0.57711,1.503924 -4.37362,2.158801 -4.34798,0.75 0.0413,-2.269225 1.33517,-5.152452 2.10004,-4.679736 0.48747,0.301274 0.88631,0.02307 0.88631,-0.618236 0,-0.641303 0.675,-0.906984 1.5,-0.590402 0.825,0.316583 1.5,0.12859 1.5,-0.417762 0,-0.546351 1.125,-1.42109 2.5,-1.943864 1.375,-0.522774 2.5,-1.449136 2.5,-2.058582 0,-0.609447 0.5625,-0.919664 1.25,-0.689371 1.75729,0.588643 6.79598,-11.601892 6.49292,-15.708909 L 125.5,59.251021 122.18942,62.87551 c -3.24923,3.55731 -3.30309,3.575211 -2.90613,0.965785 0.31291,-2.056887 0.061,-2.526894 -1.11302,-2.076391 -1.12325,0.431032 -1.34323,0.128217 -0.84675,-1.165597 0.39154,-1.020328 0.0475,-2.371101 -0.82639,-3.245037 C 115.60012,56.457259 115,56.310277 115,56.987588 c 0,0.621745 -0.3787,0.896398 -0.84155,0.610339 -1.42695,-0.881903 -0.57898,-6.475767 1.29567,-8.547231 1.51334,-1.672222 1.98156,-1.757872 3.16117,-0.578261 0.76159,0.761589 1.38471,1.893408 1.38471,2.515153 0,0.621745 0.44692,0.854235 0.99315,0.516643 1.44919,-0.895647 0.55265,-8.101288 -1.22975,-9.883683 -0.83892,-0.838921 -1.84067,-1.209946 -2.22611,-0.824501 -0.38545,0.385445 -1.2858,-0.09921 -2.00078,-1.077009 -1.15788,-1.583495 -1.36678,-1.603722 -1.91118,-0.185046 -0.33616,0.876025 -1.04338,1.325672 -1.5716,0.999216 -0.52821,-0.326456 -1.45188,1.231681 -2.05258,3.462526 -0.89957,3.340749 -0.8222,4.32607 0.43869,5.586967 1.72811,1.728104 1.51418,7.599292 -0.29891,8.203656 C 109.51342,57.995527 109,57.731651 109,57.199965 c 0,-0.531686 -0.9,-1.202058 -2,-1.489714 -1.1,-0.287656 -2,-0.376945 -2,-0.198419 0,0.178526 -0.2861,1.070155 -0.63578,1.981397 -0.47265,1.231707 -0.15193,1.573412 1.25,1.331787 1.50286,-0.259019 1.91888,0.334925 2.04878,2.924984 0.17005,3.390617 -1.92902,4.605106 -3.02463,1.75 -0.31658,-0.825 -0.96605,-1.5 -1.44326,-1.5 -1.26396,0 -6.085213,11.63766 -5.686596,13.726433 0.186155,0.975462 0.372894,2.159212 0.414975,2.630556 0.04208,0.471344 0.784947,0.585136 1.650812,0.252873 C 102.89468,77.335713 104.28888,82.053464 103.16198,90.75 102.94687,92.410015 101,92.36499 101,90.7 101,89.98 99.884615,89.4 98.5,89.4 97.125,89.4 96,89.829255 96,90.3539 96,92.029889 103.06038,104 104.04894,104 104.57202,104 105,103.80429 105,103.5651 z m 4.2963,-27.034447 c 0.13249,-4.67425 -0.63336,-5.138896 -4.23872,-2.57165 -2.83797,2.020812 -3.06609,2.046603 -3.17606,0.359091 -0.21564,-3.308895 0.23898,-4.804349 1.83496,-6.036061 0.86799,-0.669882 1.94356,-0.992137 2.39016,-0.716123 0.44661,0.276014 1.70985,-0.05887 2.8072,-0.744178 2.72456,-1.701513 3.72282,-0.346786 2.37523,3.223388 -0.61632,1.632834 -0.7409,2.734125 -0.27683,2.447314 0.46407,-0.286812 1.13432,0.39397 1.48944,1.512847 0.63678,2.006315 0.67315,2.003073 2.64168,-0.235479 L 117.13938,71.5 116.4884,74.49795 c -0.35803,1.648873 -0.72689,2.998873 -0.81968,3 -0.0928,0.0011 -1.17511,0.56455 -2.40515,1.25205 -3.42084,1.911995 -4.07402,1.546594 -3.96727,-2.219347 z M 116,69 c 0,-1.1 0.45,-2 1,-2 0.55,0 1,0.9 1,2 0,1.1 -0.45,2 -1,2 -0.55,0 -1,-0.9 -1,-2 z M 58.079143,92.928035 C 54.942106,85.921237 53.053339,85.362236 51.564645,91 c -0.567846,2.150463 -0.501839,2.246628 0.472105,0.6878 1.041223,-1.666512 1.376865,-1.525824 4.175002,1.75 1.673515,1.95921 3.188489,3.5622 3.366609,3.5622 0.17812,0 -0.496528,-1.832384 -1.499218,-4.071965 z M 92.788897,77.75 C 93.739775,76.600248 93.348823,71 92.317681,71 c -1.032046,0 -4.316485,2.126216 -4.302368,2.785184 0.0084,0.393149 0.424125,1.36088 0.923784,2.150514 0.785089,1.24071 1.156498,1.243051 2.734688,0.01723 1.644396,-1.277242 1.636554,-1.196169 -0.07877,0.814302 C 90.547269,77.995255 90.154669,79 90.722568,79 c 0.567898,0 1.497746,-0.5625 2.066329,-1.25 z M 102.25561,59 c 2.52623,-5.775 5.50643,-13.125385 6.62267,-16.334188 1.80336,-5.184041 1.83965,-5.685509 0.32562,-4.5 -0.93714,0.733803 -2.29192,2.121688 -3.0106,3.084188 -0.71869,0.9625 -1.84369,1.764654 -2.5,1.782565 -1.4719,0.04017 -4.764262,6.805544 -3.64773,7.4956 0.94625,0.584811 -0.548915,6.37518 -2.028119,7.854384 -1.314693,1.314693 -1.345385,-0.389818 -0.06754,-3.750812 0.673418,-1.771222 0.604072,-2.613742 -0.238239,-2.894512 -0.912577,-0.304193 -0.904576,-1.018435 0.0345,-3.079477 1.203473,-2.641336 1.186888,-2.659992 -1.057429,-1.189459 -1.254044,0.821681 -3.092858,3.754224 -4.086253,6.516763 -0.993395,2.762538 -2.281229,5.316399 -2.861854,5.675245 -1.042486,0.644291 -0.763248,-1.235368 0.71466,-4.810644 1.018813,-2.464658 -2.453598,-1.846082 -5.054148,0.900347 -2.594179,2.739702 -5.415199,2.91227 -6.079521,0.371898 -0.270124,-1.032955 -1.543823,-2.357738 -2.830443,-2.943961 -1.858603,-0.846837 -2.611776,-0.729695 -3.665246,0.57006 -0.942447,1.162776 -0.9667,1.420137 -0.08386,0.889839 0.683144,-0.410344 1.90913,-0.372781 2.724413,0.08347 1.238617,0.693166 1.140508,1.043028 -0.596723,2.127947 -1.143481,0.714116 -1.780409,0.815171 -1.415396,0.224568 C 73.819387,56.483221 73.749722,56 73.299564,56 c -0.450159,0 -1.409938,0.947089 -2.132842,2.104643 -1.088765,1.743391 -1.087143,1.962232 0.0095,1.274958 0.728104,-0.456326 2.07146,-0.706883 2.985235,-0.556793 0.913776,0.150091 1.952833,-0.198641 2.309017,-0.774958 C 76.826611,57.471532 77.596576,57 78.181462,57 c 0.663093,0 0.587231,0.573782 -0.201518,1.524166 -1.533977,1.84833 -0.431503,3.327393 1.236723,1.659167 C 79.8675,59.5325 80.8725,59.014312 81.45,59.031803 c 0.5775,0.01749 0.18285,0.687843 -0.876999,1.489668 -2.566769,1.941879 -1.085883,3.273637 1.722477,1.54902 L 84.5,60.716692 l -2,2.287163 -2,2.287163 2.5,-1.281226 2.5,-1.281227 -2.146078,2.385718 c -1.607442,1.786934 -1.858429,2.667539 -1,3.508573 C 83.848455,70.087106 89,66.606056 89,64.131906 89,62.290047 90.817589,60 92.279455,60 c 0.483701,0 0.580813,1.359709 0.215806,3.021576 -0.52131,2.373511 -0.163014,3.542084 1.670545,5.448429 1.283807,1.33477 2.595747,2.112561 2.915424,1.728425 C 97.400906,69.814293 99.729376,64.775 102.25561,59 z m -18.820594,8.105146 c 0.372004,-0.601915 1.605614,-1.591707 2.741355,-2.199537 1.479551,-0.791832 1.873229,-0.794881 1.388613,-0.01076 -0.372004,0.601915 -1.605614,1.591707 -2.741355,2.199537 -1.479551,0.791832 -1.873229,0.794881 -1.388613,0.01076 z M 60.929715,66.75 c -0.05724,-2.646568 -0.217213,-2.878658 -0.861615,-1.25 -0.435231,1.1 -0.580457,2.5625 -0.322726,3.25 0.804181,2.145153 1.257432,1.379745 1.184341,-2 z M 128.48692,46.958802 c -0.86462,-2.724187 -1.68385,-2.453374 -3.92508,1.297521 -2.41942,4.049109 -4.61065,9.89188 -3.43797,9.167123 0.48187,-0.297814 0.87613,0.04157 0.87613,0.754189 0,0.712617 1.59944,-1.079364 3.55431,-3.982182 2.3867,-3.544042 3.35008,-5.921329 2.93261,-7.236651 z M 83.850841,42.907814 c -1.55067,-0.958366 -3.832251,1.977056 -3.073512,3.954298 0.434259,1.13166 0.962813,0.942074 2.432038,-0.872342 1.41885,-1.752205 1.575475,-2.504711 0.641474,-3.081956 z M 134.68305,39.5 c -0.24398,-1.65 -0.0597,-3.735015 0.40944,-4.633366 1.00774,-1.929596 -2.00119,-5.440755 -6.92025,-8.075312 -1.75468,-0.939773 -3.63598,-2.964773 -4.18068,-4.5 -0.5447,-1.535227 -1.35489,-3.430997 -1.80043,-4.212822 -1.18902,-2.086483 -5.22554,-2.044093 -7.34678,0.07715 -1.01439,1.014391 -1.85124,1.506848 -1.85966,1.094348 -0.008,-0.4125 -0.45153,-0.075 -0.98469,0.75 -1.66907,2.582704 -1.09982,5.01004 1.75,7.462167 3.38333,2.911183 5.10639,1.852265 4.87827,-2.997968 C 118.46162,20.921132 119.6633,20.063296 121.8,22.2 c 1.37735,1.377347 1.65119,5.196882 0.31331,4.370027 -1.2183,-0.752946 -2.70588,1.338947 -3.5058,4.929973 -0.50643,2.27347 -0.40975,2.636735 0.39921,1.5 0.79832,-1.121774 0.9225,-0.491399 0.49249,2.5 l -0.57498,4 1.45666,-3 c 0.80117,-1.65 1.49322,-2.370759 1.53789,-1.601686 0.0496,0.853437 1.25361,0.17152 3.08992,-1.75 4.76222,-4.983206 4.95531,-4.238763 1.64753,6.351686 l -1.56169,5 2.40476,-2.75 c 1.32262,-1.5125 2.60127,-2.75 2.84144,-2.75 0.24017,0 0.75219,1.681818 1.13781,3.737373 0.669,3.566061 0.76868,3.646276 2.17461,1.75 0.84979,-1.146174 1.28571,-3.257188 1.02989,-4.987373 z M 99.415903,42.358556 C 99.94257,40.986084 99.796239,40.924217 98.522892,41.981001 96.787647,43.421127 96.607052,44 97.893011,44 c 0.491156,0 1.176458,-0.73865 1.522892,-1.641444 z M 89.341971,29.01494 c -0.590558,-0.598332 -4.290948,4.105713 -4.314768,5.48506 -0.0095,0.55 1.06516,-0.35 2.388128,-2 1.322968,-1.65 2.189956,-3.218277 1.92664,-3.48506 z m 6.294564,-7.86189 c -0.846836,-1.094304 -1.178673,-1.00052 -1.769156,0.5 -1.342069,3.410436 -0.958924,4.434044 0.972062,2.59695 1.342515,-1.277237 1.55785,-2.113879 0.797094,-3.09695 z m 20.520055,-9.603352 c 1.7861,0.566888 1.88769,0.401555 0.89405,-1.45507 C 116.43409,8.9425827 115.30727,8 114.5466,8 c -0.76066,0 -2.05022,-0.2560264 -2.86568,-0.5689475 -1.27154,-0.4879373 -1.24759,0.092766 0.16821,4.0783785 1.44575,4.069906 1.69072,4.321386 1.97163,2.024017 0.25946,-2.122041 0.7058,-2.5011 2.33583,-1.98375 z M 72,235.46862 c 0,-0.84227 0.7875,-1.81067 1.75,-2.152 0.9625,-0.34134 2.548133,-1.30659 3.523629,-2.14499 2.516677,-2.163 4.381928,-0.19421 2.567926,2.71047 -1.475716,2.363 -2.825668,2.77095 -2.871964,0.8679 -0.01688,-0.69372 -0.484013,-0.47121 -1.04969,0.5 C 74.663733,237.40671 72,237.55527 72,235.46862 z m 36.56585,-3.36207 c -1.45006,-2.34626 0.64854,-3.82176 5.36665,-3.77323 4.09824,0.0422 4.61949,0.25755 3.45103,1.42601 -0.75699,0.75699 -2.4095,1.48649 -3.67224,1.62112 -1.26274,0.13464 -2.80826,0.56145 -3.43449,0.94848 -0.62623,0.38703 -1.39616,0.28696 -1.71095,-0.22238 z M 101,226.12244 C 101,225.5051 100.29844,225 99.440983,225 c -0.857459,0 -1.30424,-0.41224 -0.992846,-0.91608 0.311394,-0.50385 0.112887,-2.10831 -0.441126,-3.56548 -0.706528,-1.85831 -0.663666,-3.29147 0.143549,-4.79976 l 1.150846,-2.15038 1.471274,2.21585 c 0.83271,1.25414 2.50337,2.21585 3.84929,2.21585 2.78462,0 2.83649,0.21277 0.94397,3.87249 C 103.87396,225.14441 101,227.81948 101,226.12244 z m 13.75,0.13155 c -0.9625,-0.22035 -1.75,-0.84797 -1.75,-1.3947 0,-0.54674 -0.9,-0.70842 -2,-0.35929 -1.1,0.34913 -2,0.37687 -2,0.0617 0,-1.25422 9.21329,-9.56166 10.60427,-9.56166 1.83811,0 6.52063,4.54176 5.6156,5.44679 -0.3624,0.3624 0.11488,0.36199 1.06061,-9.3e-4 1.35504,-0.51997 1.71952,-0.10725 1.71952,1.94715 0,2.532 -1.97773,3.85912 -2.02224,1.35699 -0.0122,-0.6875 -0.8923,-0.125 -1.95571,1.25 -1.63494,2.11399 -2.2293,2.31806 -3.84943,1.32167 -1.05378,-0.64808 -2.31121,-0.83829 -2.79429,-0.42269 -0.48308,0.41561 -1.66583,0.57536 -2.62833,0.35501 z M 109.5,218 c 0.33992,-0.55 -0.0284,-1 -0.81854,-1 -0.79011,0 -1.91596,-0.57763 -2.50188,-1.28362 -0.84036,-1.01257 -0.007,-1.32279 3.94494,-1.46914 4.26921,-0.15807 4.95452,0.0687 4.63347,1.53362 -0.20722,0.94553 -0.91254,1.60664 -1.56738,1.46914 C 112.53577,217.1125 112,217.45 112,218 c 0,0.55 -0.70156,1 -1.55902,1 -0.85746,0 -1.2809,-0.45 -0.94098,-1 z M 67.015313,185.25 c 0.0084,-2.0625 0.451531,-4.425 0.984687,-5.25 0.838413,-1.29735 0.971443,-1.27484 0.984687,0.16667 0.0084,0.91666 0.479476,1.82138 1.046787,2.01049 C 71.282861,182.59429 69.283741,189 67.902175,189 c -0.496196,0 -0.895284,-1.6875 -0.886862,-3.75 z M 26.64326,184.48727 c 0.31927,-0.83201 0.01602,-2.19288 -0.673885,-3.02417 -2.192877,-2.64226 -0.411197,-2.5623 2.08381,0.0935 2.019221,2.14937 2.163473,2.69477 0.92061,3.48075 -2.156431,1.36371 -2.989476,1.16708 -2.330535,-0.55009 z M 35,184.03138 c 0,-0.53273 -0.673244,-0.71026 -1.496098,-0.3945 -1.213658,0.46572 -1.377478,-0.0594 -0.867763,-2.78139 0.711308,-3.79859 2.359815,-6.04539 3.053469,-4.16167 0.241784,0.65661 1.085534,0.94596 1.875,0.64301 C 38.354073,177.03389 39,177.25748 39,177.83371 c 0,0.64265 1.045498,0.50527 2.704337,-0.35534 1.487385,-0.77167 2.873341,-1.23403 3.079903,-1.02746 0.875787,0.87578 -3.054568,5.38259 -4.283018,4.91119 -0.741311,-0.28447 -1.848182,0.41768 -2.459714,1.56034 C 36.897496,185.06005 35,185.75188 35,184.03138 z m 117.37704,-11.57155 c 0.40963,-1.06747 0.0634,-1.45111 -1.12811,-1.25 -2.25203,0.38012 -2.56778,-4.97802 -0.4396,-7.45983 1.95555,-2.2805 5.64928,-2.3875 4.78632,-0.13866 -0.44245,1.153 -0.18844,1.44638 0.89301,1.03139 C 157.3199,164.32375 158,164.26161 158,164.50463 158,165.86877 153.45606,174 152.69375,174 c -0.49925,0 -0.64177,-0.69308 -0.31671,-1.54017 z M 157,169.45034 c 0,-1.66679 3.32834,-6.53289 6.19892,-9.06293 3.39714,-2.99413 9.90006,-10.72861 11.25575,-13.38741 0.42065,-0.825 -0.29706,-0.30489 -1.59492,1.1558 -2.31455,2.60492 -6.68336,5.35392 -7.38832,4.64896 -0.19651,-0.1965 0.58235,-1.84133 1.7308,-3.65517 1.29278,-2.04181 2.35207,-2.87075 2.78119,-2.17641 0.82618,1.33677 1.95739,0.11952 4.45233,-4.79097 2.43823,-4.79886 1.56649,-5.54664 -2.40994,-2.06727 -1.91081,1.67195 -3.62738,2.58035 -3.81461,2.01866 -0.18723,-0.56168 -0.98634,-0.77338 -1.77581,-0.47043 C 165.64593,141.96611 165,141.71583 165,141.10699 165,140.49814 164.2699,140 163.37756,140 c -1.26224,0 -1.36942,-0.30488 -0.48275,-1.37325 0.62683,-0.75529 0.85879,-2.10529 0.51545,-3 C 163.05372,134.6976 163.28604,134 163.95203,134 c 0.6413,0 0.86235,0.5625 0.49121,1.25 -0.37114,0.6875 1.15812,-0.775 3.39834,-3.25 2.75086,-3.03915 4.08699,-3.95508 4.11578,-2.82143 0.0564,2.21873 2.91871,5.01606 4.27496,4.17785 0.5891,-0.36409 1.67951,0.17009 2.42313,1.18706 1.00527,1.37479 1.64194,1.55913 2.48235,0.71872 1.41541,-1.41541 2.03277,-8.2622 0.74498,-8.2622 -0.52316,0 -0.78615,-1.23249 -0.58442,-2.73886 0.20173,-1.50637 -0.23287,-3.33851 -0.96579,-4.07143 -1.91352,-1.91352 -1.64856,-3.81741 0.85599,-6.15075 3.51289,-3.27275 4.74293,-2.68365 2.66593,1.27678 -1.09923,2.09602 -1.06801,2.11561 0.77284,0.48485 1.28305,-1.13662 2.3988,-1.40248 3.36912,-0.80279 0.93052,0.5751 1.7161,0.46731 2.19068,-0.30059 0.40696,-0.65846 1.30903,-1.19721 2.00461,-1.19721 1.38475,0 6.64311,-9.93999 6.74488,-12.75 0.0663,-1.831696 -1.42771,-2.382445 -2.36202,-0.870707 -0.29889,0.483607 -1.41425,1.107017 -2.47857,1.385347 -1.54621,0.40434 -1.8853,0.0385 -1.68713,-1.820134 0.38877,-3.646443 2.32734,-5.25148 6.1269,-5.072772 4.03485,0.189774 4.7367,-1.835541 0.9642,-2.782378 -1.375,-0.345103 -2.5,-1.293887 -2.5,-2.108408 0,-0.814521 -0.3375,-1.368448 -0.75,-1.230948 -0.4125,0.1375 -0.8931,-0.160278 -1.068,-0.661728 -0.1749,-0.501451 1.0626,-1.492227 2.75,-2.201726 2.1464,-0.902493 3.068,-0.955736 3.068,-0.177243 0,0.612015 1.2375,-0.513341 2.75,-2.500792 1.87112,-2.458683 3.30929,-3.447388 4.5,-3.093641 1.00214,0.297724 1.75,-0.0075 1.75,-0.714149 0,-0.67873 0.22327,-1.01078 0.49617,-0.737889 0.27289,0.272891 -0.81817,2.935391 -2.42458,5.916666 C 206.46518,87.060774 203.7387,93.1 202.01274,97.5 c -4.62775,11.79753 -15.20018,32.09895 -25.67528,49.30227 -2.1106,3.46625 -6.44397,8.81285 -9.62969,11.88134 -3.18573,3.06848 -6.45979,6.86995 -7.27568,8.44772 C 158.06588,169.77329 157,170.78961 157,169.45034 z M 33,167.17971 c -2.013836,-0.91255 -2.683846,-4.6561 -0.696871,-3.89363 0.799238,0.3067 1.907137,0.10365 2.461998,-0.45121 0.678449,-0.67845 1.700837,-0.41632 3.121855,0.80039 2.429938,2.08058 2.807415,3.84518 0.645043,3.0154 -0.807386,-0.30982 -1.733944,-0.13297 -2.059017,0.39301 -0.668936,1.08237 -1.327713,1.10817 -3.473008,0.13604 z m 10,0.0101 c 0,-0.44559 1.370608,-2.21205 3.045795,-3.92548 2.335846,-2.38916 3.670873,-3.00196 5.727473,-2.62903 3.43197,0.62234 3.768313,1.00718 2.361608,2.70215 -0.632568,0.7622 -2.240872,1.26609 -3.574007,1.11974 -1.389507,-0.15252 -3.159366,0.54663 -4.147363,1.63835 C 44.624172,168.07277 43,168.59343 43,167.18984 z m 47.167382,-2.47432 c -0.787416,-0.95695 -1.053616,-2.4986 -0.650664,-3.7682 0.945267,-2.97827 2.73135,-0.97047 2.31146,2.59839 -0.291807,2.48022 -0.475866,2.60986 -1.660796,1.16981 z m -13.892491,-1.6587 c 0.29326,-1.12143 -0.23112,-2.61222 -1.239986,-3.52523 -1.564342,-1.41571 -1.881229,-1.42168 -3.013967,-0.0568 -2.222095,2.67746 -3.126716,1.63776 -1.500688,-1.72477 l 1.57161,-3.25 -2.333495,2.75 c -2.38899,2.8154 -5.030023,3.74223 -4.274288,1.5 0.231719,-0.6875 0.622585,-2.6 0.868592,-4.25 0.246007,-1.65 0.973939,-4.35 1.617627,-6 1.070346,-2.74368 1.259756,-2.84023 2.216855,-1.13002 0.844262,1.50858 1.214239,1.60521 1.914369,0.5 1.298405,-2.04964 1.175834,0.68611 -0.154382,3.44576 -0.729878,1.5142 -0.27125,1.26396 1.495032,-0.81574 2.421105,-2.85071 2.548143,-2.88803 2.552863,-0.75 0.0051,2.31705 1.4117,3.01894 2.504967,1.25 1.459411,-2.36138 2.158153,-0.5883 2.068949,5.25 -0.103594,6.78013 -0.834046,8.75 -3.244597,8.75 -1.050104,0 -1.392045,-0.63314 -1.049461,-1.94318 z M 42,160.2 c 0,-3.09206 -0.141667,-3.2 -4.2,-3.2 -2.978821,0 -3.889407,-0.31059 -3.131779,-1.06822 0.587522,-0.58752 2.815022,-0.92502 4.95,-0.75 3.441619,0.28214 3.918991,0.64386 4.209957,3.19004 0.180497,1.5795 -0.157003,3.357 -0.75,3.95 C 42.307274,163.09273 42,162.48802 42,160.2 z m 0.224277,-7.74623 C 40.422629,150.5542 38.285129,149 37.474277,149 c -2.074782,0 -1.831867,-1.64241 0.603042,-4.07732 1.318756,-1.31875 2.688122,-1.82594 3.75,-1.38891 0.919974,0.37862 2.347681,0.75091 3.172681,0.82732 3.512462,0.32528 4.771035,7.3089 1.841084,10.21589 -1.117847,1.10908 -1.886362,0.75565 -4.616807,-2.12321 z m 34.369481,-7.60547 c 0.391486,-0.63344 -0.04621,-1.70598 -0.972666,-2.38341 -1.41641,-1.03571 -1.494743,-1.64809 -0.49226,-3.8483 C 76.515824,135.57247 79,135.12332 79,137.91667 c 0,1.05416 0.552976,2.10099 1.228836,2.32628 0.900422,0.30014 0.760633,1.12418 -0.523053,3.08333 -1.653129,2.52299 -4.630672,3.97924 -3.112025,1.52202 z m -7.037985,-1.75806 C 68.833013,141.92079 69.940717,139 71.106989,139 71.598145,139 72,140.125 72,141.5 c 0,2.47119 -1.354948,3.35273 -2.444227,1.59024 z M 48,138.66712 c 0,-1.353 -3.389121,-1.61133 -4.646296,-0.35416 -1.634441,1.63444 -4.352082,0.6408 -4.274757,-1.56296 0.04342,-1.2375 0.297495,-1.71278 0.564608,-1.05618 0.606159,1.49003 3.11935,0.65071 6.266574,-2.09283 1.907359,-1.66271 2.285594,-1.75319 1.813142,-0.43375 -0.610934,1.70619 1.615508,3.33544 4.026729,2.94664 0.6875,-0.11085 1.25,0.51973 1.25,1.4013 0,0.88157 -0.418906,1.34396 -0.930902,1.02753 -0.511996,-0.31644 -1.213553,-0.11799 -1.559017,0.44098 C 49.609679,140.44057 48,140.23756 48,138.66712 z m 8.031803,-5.62871 c 0.09349,-1.58274 2.844937,-4.04687 3.441295,-3.08194 0.365804,0.59189 1.043395,0.84235 1.505758,0.5566 C 62.29197,129.70152 65,131.06802 65,132.54218 c 0,0.92925 -1.351679,1.28412 -4.5,1.18143 -2.475,-0.0807 -4.485688,-0.38907 -4.468197,-0.6852 z M 51,125.5 c 0,-0.825 -0.528441,-1.5 -1.174314,-1.5 -0.645873,0 -0.130461,-1.11113 1.14536,-2.46918 2.644399,-2.81483 4.573998,-2.41776 2.954655,0.60801 -0.593839,1.1096 -0.834179,2.65729 -0.534089,3.43931 C 53.710643,126.40952 53.327337,127 52.468615,127 51.660877,127 51,126.325 51,125.5 z m 120.16251,-3.36434 c -0.73562,-0.47401 -1.18562,-1.92795 -1,-3.23097 0.24906,-1.74837 1.03456,-2.42179 2.99786,-2.57011 2.39273,-0.18076 2.64424,0.11803 2.5,2.96997 -0.1659,3.28026 -2.00467,4.43764 -4.49786,2.83111 z m -4.82943,-9.71005 c -0.41575,-1.08343 -1.34149,-1.38933 -2.96862,-0.98095 -2.84039,0.71289 -3.01478,-0.53518 -0.63717,-4.56014 1.00276,-1.69754 2.29544,-2.70604 3.08178,-2.40429 0.74498,0.28587 2.04085,0.51977 2.87971,0.51977 0.84751,0 1.30157,0.58277 1.02189,1.31159 -0.36456,0.95004 0.29989,1.19371 2.41043,0.88394 l 2.91373,-0.42764 -3.20142,3.61605 c -3.5351,3.99297 -4.59988,4.3882 -5.50033,2.04167 z M 132,100.55902 c 0,-0.792544 0.45,-1.719101 1,-2.05902 1.43057,-0.884142 1.24437,-1.918557 -0.75,-4.166401 -2.31526,-2.60952 -4.74893,-3.434667 -6.11148,-2.072121 -0.60785,0.607854 -1.45019,0.752737 -1.87185,0.321963 C 123.41273,91.71106 130.67722,85 132.47548,85 c 0.62824,0 2.01565,0.638639 3.08313,1.419197 1.68059,1.228877 1.78818,1.823716 0.80228,4.435663 -1.5977,4.232768 0.92013,5.070488 4.16387,1.385382 1.90506,-2.164281 2.41868,-2.377948 2.44364,-1.016558 C 143.00134,93.020649 134.67326,102 132.97368,102 132.43816,102 132,101.35156 132,100.55902 z m 48.39817,-15.723783 c -0.28391,-0.45938 -0.20829,-1.333447 0.16804,-1.942371 0.46956,-0.759756 -0.061,-0.877665 -1.69098,-0.375789 l -2.37523,0.731345 2.42431,-2.624211 c 3.0653,-3.318043 4.44635,-3.343538 3.82068,-0.07053 l -0.48817,2.553678 2.37159,-2.227992 C 186.09254,79.503886 187,79.147561 187,79.948131 c 0,1.04843 0.29188,1.054522 1.52417,0.03181 2.29037,-1.900839 3.12551,-0.228255 1.41143,2.826755 -1.20316,2.144391 -2.27644,2.710673 -5.26618,2.778538 -2.06528,0.04688 -3.98734,-0.290619 -4.27125,-0.75 z M 140,82.940983 c 0,-0.582459 -0.45403,-0.778413 -1.00895,-0.435452 -2.17748,1.345757 -4.9283,-0.774359 -6.56489,-5.059702 -1.3554,-3.549066 -1.97926,-4.231688 -3.053,-3.340565 -1.01908,0.845765 -1.48481,0.767368 -1.90214,-0.320191 -0.62164,-1.619967 1.06169,-6.743814 2.25423,-6.861584 0.81923,-0.0809 2.78969,-0.480004 5.27475,-1.068356 1.65131,-0.390956 1.90542,3.16123 0.4692,6.558912 -0.5369,1.270158 -0.45116,1.692841 0.25488,1.256485 0.61467,-0.37989 1.72432,0.992877 2.62781,3.250901 0.86012,2.149653 2.03281,4.198293 2.60598,4.552532 C 142.28554,82.294508 142.31399,84 141,84 c -0.55,0 -1,-0.476558 -1,-1.059017 z M 197.36163,82.5 c 0.31658,-0.825 0.15086,-1.5 -0.36826,-1.5 -0.5828,0 -0.59521,-0.917032 -0.0325,-2.397177 0.50127,-1.318448 0.70254,-2.606038 0.44727,-2.861312 -0.25528,-0.255274 -0.0127,-1.651544 0.53909,-3.102823 C 198.72848,70.58396 198.64769,70 197.58224,70 c -0.75255,0 -1.62728,0.675 -1.94387,1.5 C 194.97795,73.221029 193,73.536686 193,71.921053 c 0,-1.729746 8.56955,-9.811724 9.63115,-9.083174 1.76426,1.210771 1.29359,5.37712 -1.15283,10.204913 -2.31331,4.565085 -1.9211,5.614002 1.33821,3.578952 2.00016,-1.248861 2.64066,0.07943 1.37633,2.854318 -0.68279,1.498562 -1.68814,2.271111 -2.5334,1.946756 -0.77076,-0.295768 -1.67032,0.163103 -1.99903,1.019711 C 199.33172,83.299138 198.5505,84 197.9244,84 c -0.62611,0 -0.87936,-0.675 -0.56277,-1.5 z M 101,34.081787 c 0,-0.505016 0.27755,-1.641502 0.61678,-2.525523 0.48015,-1.251251 0.92594,-1.35074 2.01233,-0.449109 1.0563,0.876645 1.11969,1.490596 0.26078,2.525524 C 102.59342,35.194823 101,35.442452 101,34.081787 z"
     id="path15561"
     inkscape:connector-curvature="0" />
</svg>
