<?xml version="1.0" encoding="UTF-8" standalone="no"?>
<!-- Created with Inkscape (http://www.inkscape.org/) -->

<svg
   xmlns:dc="http://purl.org/dc/elements/1.1/"
   xmlns:cc="http://creativecommons.org/ns#"
   xmlns:rdf="http://www.w3.org/1999/02/22-rdf-syntax-ns#"
   xmlns:svg="http://www.w3.org/2000/svg"
   xmlns="http://www.w3.org/2000/svg"
   xmlns:sodipodi="http://sodipodi.sourceforge.net/DTD/sodipodi-0.dtd"
   xmlns:inkscape="http://www.inkscape.org/namespaces/inkscape"
   id="svg30788"
   version="1.1"
   inkscape:version="0.48.4 r9939"
   width="260"
   height="266"
   sodipodi:docname="Jewelry.jpeg">
  <metadata
     id="metadata30794">
    <rdf:RDF>
      <cc:Work
         rdf:about="">
        <dc:format>image/svg+xml</dc:format>
        <dc:type
           rdf:resource="http://purl.org/dc/dcmitype/StillImage" />
        <dc:title></dc:title>
      </cc:Work>
    </rdf:RDF>
  </metadata>
  <defs
     id="defs30792" />
  <sodipodi:namedview
     pagecolor="#ffffff"
     bordercolor="#666666"
     borderopacity="1"
     objecttolerance="10"
     gridtolerance="10"
     guidetolerance="10"
     inkscape:pageopacity="0"
     inkscape:pageshadow="2"
     inkscape:window-width="660"
     inkscape:window-height="700"
     id="namedview30790"
     showgrid="false"
     inkscape:zoom="0.6273579"
     inkscape:cx="182.08776"
     inkscape:cy="238.59154"
     inkscape:window-x="3"
     inkscape:window-y="22"
     inkscape:window-maximized="0"
     inkscape:current-layer="svg30788" />
  <path
     style="fill:#f3f008;fill-opacity:1;stroke:none"
     d="m 189.20074,17.893538 c -9.76836,0.558013 -18.24488,2.871045 -28.01324,6.887712 -2.36012,6.293653 -5.25962,12.487551 -6.21875,19.1875 L 133.5625,74.375 c -30.05724,4.501093 -60.127403,8.496277 -89.46875,20.15625 -8.785032,9.96134 -14.408264,19.35363 -14.65625,29.71875 0.892159,5.16596 2.608813,10.33404 9.4375,15.5 13.581369,6.4357 27.807772,12.74518 50.78125,17.09375 23.10597,5.41469 45.76198,4.4241 69.84375,23.5 6.76136,7.40378 13.82606,22.74177 -0.90625,27.1875 -15.6373,-6.06765 -26.98585,-21.93458 -38.5625,-22.375 -7.64914,2.42143 -16.31943,3.81245 -8,21.6875 4.85031,7.64413 25.24522,10.49955 37.875,15.75 0.88992,3.07735 10.72266,7.76642 -1.6875,8.46875 -9.04597,-1.29505 -14.5897,-6.88635 -27.875,-3 -1.68459,4.75795 -8.31245,1.2236 -2.375,18.84375 3.38921,2.95422 6.33235,6.28301 12.78125,6.6875 0.28758,-6.02758 -7.78193,-10.31291 -6.21875,-16.90625 l 25.375,4.53125 c 11.53025,-2.41343 15.52002,-9.59426 8.46875,-23.6875 18.1443,-1.99573 13.89402,-8.45285 17.5625,-13.34375 1.86678,-9.09168 -2.44352,-18.76454 -5.75,-28.34375 L 143.15625,160.625 59.75,140.875 C 51.747401,134.85573 37.963735,136.6613 39.4375,117.78125 45.412825,105.44854 60.346845,101.55872 72.125,94.6875 l 63.6875,-9.59375 9.03125,5.625 c 2.82021,3.599046 22.2946,-1.965355 43.375,-0.84375 16.42586,17.23817 2.87698,28.0344 -1.6875,28.1875 -11.89106,5.09096 -30.21717,-8.91563 -45.0625,-12.6875 -5.98544,0.64114 -11.5722,2.49844 -16.0625,7.625 1.27609,8.33033 5.6713,11.43443 9,16.34375 15.80092,12.44418 54.69419,18.79232 87.0625,13.25 13.26288,-8.63696 34.98923,-11.07366 21.4375,-39.46875 -9.65211,-9.727448 -23.79248,-15.040823 -38.34375,-21.96875 -16.48502,-3.182129 -27.38353,-9.110585 -55.5,-8.1875 7.8942,-15.868114 11.59355,-14.906771 14.9375,-18.875 6.88225,-3.312979 13.29124,-1.018955 20.84375,-12.375 4.73922,-8.453438 4.62027,-16.129676 4.35699,-23.825212 z M 204,92.71875 c 13.66105,5.659463 27.81603,10.57803 36.34375,23.9375 -1.73314,6.29214 -6.75457,11.33159 -14.0625,15.5 -26.77893,7.6165 -42.64177,1.8218 -60.59375,-1.40625 -8.92218,-2.06685 -17.62769,-4.37204 -23.9375,-9.3125 -5.39654,-10.6899 15.35319,-1.95712 18.3125,-0.28125 10.04046,3.10577 18.77422,7.95382 30.96875,8.1875 4.32946,-2.71789 8.7326,-4.46333 12.6875,-12.125 0.42621,-8.16667 2.94105,-16.33333 0.28125,-24.5 z M 128.125,195.875 c 6.73855,3.37665 13.56441,6.61361 17.71875,14.125 -8.02962,-2.13191 -16.64571,-1.77138 -23.71875,-7.96875 -1.80372,-4.68543 0.91211,-6.24194 6,-6.15625 z"
     id="path30825"
     inkscape:connector-curvature="0"
     sodipodi:nodetypes="ccccccccccccccccccccccccccccccccccccccccccccccccccccc" />
  <path
     style="fill:#f31208;fill-opacity:1;stroke:none"
     d="m 184.2839,34.236228 c -2.17983,-3.761139 0.81855,-5.398729 3.94491,-6.480932 -0.8202,2.959562 -0.84275,7.207625 -3.94491,6.480932 z"
     id="path31353"
     inkscape:connector-curvature="0"
     sodipodi:nodetypes="ccc" />
  <path
     style="fill:#f31208;fill-opacity:1;stroke:none"
     d="m 169.56091,23.669491 c 1.9941,0.751863 4.01919,1.100796 6.19915,-0.563559 0.92901,-5.541404 -4.87784,-1.850595 -6.19915,0.563559 z"
     id="path31355"
     inkscape:connector-curvature="0"
     sodipodi:nodetypes="ccc" />
  <path
     style="fill:#000000"
     d="m 121.81028,251.39163 c -4.92969,-3.50753 -8.39577,-11.75604 -7.15124,-17.01842 1.98574,-8.39657 13.15753,-10.78951 27.15429,-5.81633 8.30154,2.94962 11.18667,2.80841 11.18667,-0.54752 0,-3.20873 -7.76918,-7.4403 -19.25798,-10.48909 -15.83758,-4.20283 -16.67857,-4.52566 -20.47675,-7.86051 -8.0266,-7.04745 -8.31616,-17.54157 -0.65039,-23.57146 5.10426,-4.01502 15.20015,-1.58961 24.07139,5.78284 3.19755,2.65732 7.61373,6.03645 9.81373,7.50916 2.2,1.47271 5.52905,3.78962 7.39788,5.14868 4.01399,2.91907 6.22418,3.10997 8.34774,0.72102 6.09425,-6.85584 2.71766,-19.51821 -7.08122,-26.55489 C 138.66505,166.84675 127.07189,163.3613 81,156.39778 70.596908,154.8254 54.655293,149.43351 43.392371,143.67784 27.460854,135.53639 24.278853,125.02269 32.502665,107.697 37.21014,97.779429 43.836148,92.343824 55.5,88.831278 86.097519,79.616896 133,71.851493 133,76 c 0,0.55 -0.1125,1.008168 -0.25,1.018151 -0.1375,0.01 -4.75,0.258347 -10.25,0.551922 -12.85162,0.685982 -26.805748,2.844662 -42.5,6.574677 -32.20579,7.654272 -38.934465,11.202094 -45.143873,23.80296 -2.00413,4.06702 -3.92244,9.49453 -4.26291,12.06112 -1.114545,8.40185 3.215033,16.00663 11.724433,20.59364 2.730788,1.47203 2.783652,1.45533 1.714816,-0.54181 C 43.42125,138.9186 43.3434,138 43.857827,138 c 0.907491,0 2.568657,2.9039 2.348891,4.10612 -0.06094,0.33337 5.041829,2.70193 11.339487,5.26347 10.038904,4.08328 14.316337,5.14259 34.70204,8.594 35.409145,5.99495 41.947085,7.75812 54.690355,14.74902 8.97983,4.9263 12.70254,7.80931 16.04902,12.42899 2.34379,3.23551 2.94678,3.61739 3.39003,2.14696 0.29654,-0.98371 0.41081,-0.32606 0.25395,1.46144 -0.30221,3.44362 0.86502,4.44826 1.74275,1.5 0.28655,-0.9625 0.32108,0.275 0.0767,2.75 -0.32307,3.2724 -0.19157,3.9544 0.48204,2.5 0.92631,-2 0.92631,-2 1.10443,0 0.85935,9.64893 0.58813,11.4641 -2.163,14.47621 -2.88582,3.15957 -4.33528,3.70536 -5.37455,2.02379 -0.33992,-0.55 -1.87997,-1 -3.42233,-1 -2.69712,0 -11.75371,-5.77128 -20.07767,-12.79442 -6.54469,-5.52193 -11.09124,-8.08257 -16.50034,-9.29307 -4.68703,-1.04891 -5.73294,-0.98968 -7.92866,0.44901 -6.07312,3.97926 -6.93662,12.67365 -1.85812,18.7091 3.38538,4.0233 6.27876,5.38909 16.80988,7.93488 11.48279,2.77586 20.18127,6.33676 23.68937,9.69773 1.69559,1.62449 2.78787,2.14056 2.78787,1.31719 0,-2.36619 1.14395,-0.31239 1.47117,2.64128 0.3812,3.44096 -1.96627,8.3383 -3.99685,8.3383 -1.12387,0 -0.99891,-0.47541 0.52568,-2 1.1,-1.1 2,-2.675 2,-3.5 0,-1.16667 -0.44444,-1.05556 -2,0.5 -2.61494,2.61494 -4.57998,2.52459 -12.72717,-0.58519 -5.49633,-2.09795 -7.95075,-2.49661 -13.02258,-2.11517 -7.48126,0.56263 -10.75284,2.46329 -11.60906,6.7444 -0.71978,3.59891 2.15555,11.18629 5.37627,14.18685 2.05494,1.91447 8.54583,3.71309 7.83438,2.1709 -2.13157,-4.62055 -3.40069,-6.44121 -4.79938,-6.88514 -2.10116,-0.66688 -2.62096,-6.79995 -0.71069,-8.38533 1.45447,-1.2071 13.00983,0.48898 18.97333,2.78489 12.93499,4.97988 21.5265,-5.91105 15.1926,-19.25874 -1.90042,-4.00484 -6.93917,-7.64598 -10.62573,-7.67845 -2.91935,-0.0257 -17.99448,-4.34241 -23.15347,-6.62989 -5.56328,-2.46674 -6.29499,-7.69687 -1.49995,-10.7215 2.58973,-1.63356 9.53446,1.28979 16.68413,7.02311 3.55411,2.85003 8.40416,6.15184 10.77789,7.33733 2.37373,1.1855 4.75856,2.98262 5.29962,3.99359 2.00096,3.73884 10.74489,3.50439 14.5301,-0.3896 6.08898,-6.26395 6.21436,-17.86188 0.3421,-31.6461 -1.70471,-4.00154 -2.99691,-5.17285 -10.65123,-9.65476 -11.62353,-6.80604 -15.51888,-8.68774 -23.21792,-11.21573 -9.76929,-3.20776 -33.20623,-8.75942 -44.49324,-10.5394 -9.829393,-1.55012 -31.253936,-6.9351 -34.814897,-8.7506 -0.998194,-0.50892 -2.573194,-1.07888 -3.5,-1.26659 -6.371302,-1.29038 -16.31362,-9.91048 -17.671717,-15.32157 -0.828282,-3.30014 -2.442205,-5.35934 -3.626693,-4.62728 C 32.399012,119.87143 32,119.46462 32,118.66601 c 0,-0.79862 0.66078,-1.7056 1.4684,-2.01551 0.80762,-0.30991 2.095513,-2.04556 2.861984,-3.85699 0.766471,-1.81143 2.355691,-4.15075 3.5316,-5.1985 2.278654,-2.03029 2.724637,-1.55964 1.207791,1.27461 -0.511623,0.95598 -0.569241,2.32223 -0.128039,3.03611 0.621558,1.0057 1.112478,0.87491 2.180225,-0.58084 4.307671,-5.87301 20.763755,-15.321519 31.971523,-18.356934 9.251823,-2.505684 31.996016,-6.022394 46.107616,-7.129166 13.59627,-1.066355 14.62963,-1.286566 13.75,-2.930157 -1.39368,-2.604122 -1.16212,-7.935518 0.56379,-12.980494 0.99482,-2.907971 3.95227,-6.980547 8.61482,-11.86312 C 151.08483,50.781698 155,44.11053 155,39.542821 c 0,-3.788208 2.91,-10.839443 5.65641,-13.70608 1.4183,-1.480382 4.66332,-3.585153 7.21116,-4.677269 5.46944,-2.344442 18.76312,-5.238421 20.68148,-4.502275 2.40984,0.924741 3.24952,5.511557 1.89341,10.342803 -0.69473,2.475 -1.96752,7.00653 -2.82843,10.070067 -2.27173,8.083955 -7.75409,13.232485 -16.48127,15.477698 -5.29449,1.362095 -7.39854,2.515213 -10.42814,5.7151 C 156.97732,62.199657 151,70.309745 151,71.430175 c 0,0.313404 3.0375,0.57324 6.75,0.577414 17.14,0.01927 33.29023,3.390254 52.63709,10.986761 16.85912,6.6197 23.27921,10.001016 29.34678,15.456282 10.99985,9.889808 12.09381,25.340578 2.4252,34.252768 l -2.65907,2.45104 3.3424,-1.82722 c 3.58014,-1.95719 5.49649,-4.87582 6.61662,-10.07722 0.38494,-1.7875 1.10289,-3.25 1.59544,-3.25 0.49254,0 0.64007,1.4625 0.32784,3.25 -1.71103,9.79528 -3.77379,11.75607 -16.8823,16.04778 -13.7848,4.51312 -20.88678,5.70415 -33.81205,5.67039 -22.07201,-0.0576 -46.55733,-3.76986 -57.46102,-8.71166 -5.18134,-2.34829 -13.95911,-9.83793 -15.87731,-13.54731 -3.26718,-6.31803 -3.41016,-8.48381 -0.76741,-11.62453 2.46332,-2.92749 9.7839,-6.08467 14.10859,-6.08467 4.15636,0 15.63114,3.65029 22.8092,7.25593 12.17498,6.11567 22.23422,7.23423 27.87565,3.09971 1.76639,-1.29456 2.87392,-3.46322 3.6629,-7.1723 1.04957,-4.93423 0.94194,-5.70292 -1.49628,-10.686462 -3.51624,-7.186949 -5.81296,-7.93732 -19.65193,-6.420566 -26.38762,2.892088 -29.2907,2.714554 -34.42084,-2.104968 -2.31438,-2.174246 -2.5086,-2.186277 -17.15519,-1.062723 -17.05202,1.308077 -40.818264,5.229268 -49.576033,8.179547 -13.702566,4.616062 -27.008646,13.567082 -30.616988,20.596092 -1.700353,3.31227 -1.338368,10.49714 0.650947,12.92034 2.073009,2.52514 9.930895,7.85799 12.727764,8.63785 1.1,0.30671 5.882761,1.7098 10.628359,3.11798 9.931603,2.94703 18.434911,4.87606 31.871641,7.23029 16.7003,2.92604 42.11026,9.91499 49.65432,13.6573 11.21381,5.56273 21.3817,11.87732 22.92994,14.24023 0.77836,1.18794 2.54033,5.46787 3.91547,9.51097 2.94295,8.65262 3.31989,18.23711 0.91308,23.21685 C 173.20247,213.78933 167.4392,218 163.39,218 l -3.28795,0 1.44898,3.46788 c 2.80905,6.72301 0.85498,15.21109 -4.42761,19.23263 -2.4382,1.85616 -10.82828,1.52294 -17.96251,-0.71341 C 131.26502,237.512 125,237.33264 125,239.5817 c 0,0.86994 1.575,3.50379 3.5,5.853 1.925,2.3492 3.5,5.23744 3.5,6.41829 0,3.14056 -5.47582,2.89263 -10.18972,-0.46136 z M 141.28536,205.75 c -2.08133,-1.7875 -4.45,-3.88337 -5.26372,-4.65749 -0.81372,-0.77413 -3.38531,-2.25053 -5.71464,-3.28091 -3.53733,-1.56473 -4.57062,-1.66391 -6.27108,-0.60196 -4.26095,2.66101 -1.61397,5.92128 6.71474,8.27051 3.16214,0.89192 6.87434,2.01324 8.24934,2.49182 5.38865,1.87554 6.17087,1.11501 2.28536,-2.22197 z m 25.67501,1.79775 C 168.41288,205.79758 169.07387,201 167.86249,201 167.38812,201 167,201.41547 167,201.92327 c 0,0.50781 -1.165,2.30781 -2.58889,4 -2.39661,2.84821 -2.44284,3.07673 -0.62245,3.07673 1.08155,0 2.50882,-0.65351 3.17171,-1.45225 z m 2.42119,-10.09969 c 0.34149,-0.88992 0.17385,-1.29132 -0.39301,-0.94098 -0.5437,0.33602 -0.98855,1.0344 -0.98855,1.55194 0,1.43843 0.71677,1.12146 1.38156,-0.61096 z m 51.11423,-56.49319 c 10.0356,-2.52833 15.39991,-5.10502 19.10331,-9.17608 5.30935,-5.83646 6.38768,-8.07773 6.38873,-13.27879 0.002,-8.60025 -1.64648,-12.5022 -7.73564,-18.31305 C 232.38384,94.586817 228.8042,92.511231 215,86.70462 195.38256,78.45272 182.96893,75.506631 163.08003,74.382617 c -9.67523,-0.546792 -11.81608,-0.405584 -12.85646,0.847996 -2.96907,3.577518 5.71203,5.210178 14.75539,2.775054 2.76737,-0.745176 7.39348,-0.917834 12.91633,-0.48207 11.2376,0.88667 19.22832,4.283903 23.30129,9.906476 2.47142,3.411686 4.38266,4.599728 12.3938,7.704055 6.23087,2.414473 12.11291,5.643072 17.1907,9.435812 4.2454,3.17102 6.85918,4.78726 5.80838,3.59164 -2.35697,-2.68181 -1.64265,-3.55181 2.21974,-2.70349 2.46191,0.54073 3.05038,1.26237 3.54331,4.34516 1.37518,8.60052 -5.13033,18.75412 -14.85251,23.18135 -5.49359,2.50164 -23.97808,4.41568 -35,3.62421 -8.63339,-0.61996 -11.44902,-1.12756 -30.5,-5.4985 -10.03977,-2.30346 -19.38267,-6.39085 -21.49211,-9.40251 -1.88711,-2.69423 -1.88095,-3.19188 0.0635,-5.13637 3.02378,-3.02379 9.26204,-1.96458 19.4762,3.30688 7.20344,3.71766 11.7315,5.30014 19.03169,6.65125 5.26862,0.97511 10.74644,1.48 12.17293,1.12198 7.98098,-2.0031 13.61244,-13.90748 12.36034,-26.12863 -1.41135,-13.775595 -7.79531,-19.35497 -24.54989,-21.455817 -6.2462,-0.783207 -9.44805,-0.670642 -15.23289,0.535532 -7.26767,1.515353 -13.13133,1.208784 -15.57981,-0.814556 -2.4755,-2.045675 -1.28598,-6.566892 3.67134,-13.954292 7.12463,-10.61712 10.55941,-13.597427 17.10065,-14.837947 5.62084,-1.06597 10.6265,-4.305024 14.34036,-9.279336 1.86927,-2.503691 1.88862,-2.78169 0.3147,-4.520856 C 180.30822,33.473121 182.62975,26 187.15499,26 188.59691,26 189,25.235329 189,22.5 189,19.482456 188.67262,19 186.625,19 182.30117,19 178,20.23176 178,21.470012 c 0,0.671007 -0.91982,2.052434 -2.04403,3.069839 -1.75996,1.592737 -2.60542,1.699984 -6.08335,0.77167 -3.86438,-1.03146 -4.18322,-0.93425 -7.36203,2.244558 -2.53457,2.534569 -3.69256,4.948806 -4.88195,10.178127 -2.38039,10.465776 -4.02146,13.519015 -11.24627,20.923849 -9.95198,10.199963 -12.58329,18.044714 -8.35008,24.894184 4.54696,7.357142 12.36011,8.998842 28.30568,5.94759 C 170.64885,88.674923 177.47682,88 181.51124,88 c 6.36246,0 7.72877,0.331071 10.30196,2.496276 4.47102,3.762111 6.47697,9.695524 5.65939,16.739904 -0.3718,3.2034 -1.30523,6.4536 -2.07429,7.22266 -1.66181,1.66181 -1.78545,2.54116 -0.35729,2.54116 0.57255,0 1.93023,-1.9125 3.01707,-4.25 1.61517,-3.47379 1.8674,-3.70208 1.38109,-1.25 -0.66206,3.33814 -3.17764,6.61671 -4.85034,6.32146 -0.59885,-0.1057 -3.65312,0.40764 -6.78726,1.14076 -7.30781,1.70942 -15.52136,0.13967 -24.80157,-4.74 C 156.03216,110.55843 144.8029,107 140.209,107 c -1.54897,0 -5.15467,1.16525 -8.01266,2.58945 -4.66561,2.32497 -5.18804,2.91225 -5.11512,5.75 l 0.0812,3.16055 1.25572,-2.84021 c 1.25302,-2.83409 3.19825,-4.61549 5.07162,-4.64448 0.54438,-0.008 -0.27347,1.15605 -1.81746,2.58771 -1.54398,1.43166 -2.566,3.23166 -2.27116,4 0.29484,0.76834 0.0778,1.39698 -0.48223,1.39698 -3.13179,0 7.96477,11.40064 14.14457,14.53218 15.45479,7.83153 59.17436,12.02251 77.43229,7.42269 z M 143.5,131 c -0.33992,-0.55 -0.16803,-1 0.38197,-1 0.55,0 1.27811,0.45 1.61803,1 0.33992,0.55 0.16803,1 -0.38197,1 -0.55,0 -1.27811,-0.45 -1.61803,-1 z m -6.53117,-2.82415 c -1.26641,-1.02548 -2.00113,-2.44844 -1.67808,-3.25 0.42632,-1.0578 0.73989,-0.88828 1.2148,0.65673 0.35208,1.14542 1.84487,2.56004 3.3173,3.14362 1.62492,0.644 2.03287,1.10285 1.03793,1.16742 -0.90156,0.0585 -2.65294,-0.71449 -3.89195,-1.71777 z M 135,111.05902 c 0,-0.51754 0.45,-1.2191 1,-1.55902 0.55,-0.33992 1,0.0835 1,0.94098 0,0.85746 -0.45,1.55902 -1,1.55902 -0.55,0 -1,-0.42344 -1,-0.94098 z m 64,-5 c 0,-0.51754 0.44485,-1.21592 0.98855,-1.55194 0.56686,-0.35034 0.7345,0.0511 0.39301,0.94098 C 199.71677,107.18048 199,107.49745 199,106.05902 z m 0,-3.94099 c 0,-0.55 0.45,-1.27811 1,-1.61803 0.55,-0.33992 1,-0.16803 1,0.38197 0,0.55 -0.45,1.27811 -1,1.61803 -0.55,0.33992 -1,0.16803 -1,-0.38197 z M 198,98 c 0,-1.866667 0.26667,-2.133333 1.2,-1.2 0.93333,0.933333 0.93333,1.466667 0,2.4 -0.93333,0.93333 -1.2,0.666667 -1.2,-1.2 z m -45.54112,-9.066531 c -1.07627,-1.741443 0.14952,-2.110241 1.52106,-0.457635 C 154.76869,89.426218 154.84456,90 154.18146,90 c -0.58488,0 -1.36004,-0.479939 -1.72258,-1.066531 z m -4,-1 c -0.36253,-0.586592 -0.44468,-1.281 -0.18255,-1.543128 0.26212,-0.262129 0.74306,0.21781 1.06875,1.066531 0.67618,1.762107 0.0999,2.072058 -0.8862,0.476597 z M 156,88.117017 c 0,-1.043017 5.53091,-0.919441 6.59776,0.147413 C 163.00233,88.668993 161.68333,89 159.66667,89 157.65,89 156,88.602658 156,88.117017 z M 166,87 c 0.825,-0.533156 2.4,-0.969374 3.5,-0.969374 1.65614,0 1.7421,0.166666 0.5,0.969374 -0.825,0.533156 -2.4,0.969374 -3.5,0.969374 -1.65614,0 -1.7421,-0.166666 -0.5,-0.969374 z m -21,-1 c 0,-0.55 0.45,-1 1,-1 0.55,0 1,0.45 1,1 0,0.55 -0.45,1 -1,1 -0.55,0 -1,-0.45 -1,-1 z m -3.45729,-1.930902 c -0.31644,-0.511996 -0.11799,-1.213553 0.44098,-1.559017 0.55897,-0.345463 1.01631,0.07344 1.01631,0.930902 0,1.756526 -0.60006,2.015159 -1.45729,0.628115 z M 141,79.118034 c 0,-0.55 0.45,-1.278115 1,-1.618034 0.55,-0.339919 1,-0.168034 1,0.381966 0,0.55 -0.45,1.278115 -1,1.618034 -0.55,0.339919 -1,0.168034 -1,-0.381966 z M 140,75 c 0,-1.866667 0.26667,-2.133333 1.2,-1.2 0.93333,0.933333 0.93333,1.466667 0,2.4 -0.93333,0.933333 -1.2,0.666667 -1.2,-1.2 z m 2,-6 c 0.825,-0.533156 1.95,-0.969374 2.5,-0.969374 0.55,0 0.325,0.436218 -0.5,0.969374 -0.825,0.533156 -1.95,0.969374 -2.5,0.969374 -0.55,0 -0.325,-0.436218 0.5,-0.969374 z m 4.5,-7 c 0.33992,-0.55 1.37898,-0.993109 2.30902,-0.984687 1.45727,0.0132 1.48367,0.149288 0.19098,0.984687 -1.95837,1.265597 -3.28218,1.265597 -2.5,0 z M 155,51.606989 c 0,-0.216156 0.675,-0.652033 1.5,-0.968615 0.825,-0.316583 1.5,-0.139728 1.5,0.393011 C 158,51.564123 157.325,52 156.5,52 155.675,52 155,51.823145 155,51.606989 z m 5,-7.638374 C 160,42.885402 160.67464,42 161.5,42 c 0.825,0 1.5,0.626855 1.5,1.393011 0,0.766156 -0.675,1.652033 -1.5,1.968615 -1.02029,0.391522 -1.5,-0.05397 -1.5,-1.393011 z m 1.8125,-3.651729 c 0.72187,-0.288871 1.58437,-0.253344 1.91667,0.07895 0.33229,0.332292 -0.25834,0.568641 -1.3125,0.52522 -1.16495,-0.04798 -1.4019,-0.284941 -0.60417,-0.604167 z m 2,-3 c 0.72187,-0.288871 1.58437,-0.253344 1.91667,0.07895 0.33229,0.332292 -0.25834,0.568641 -1.3125,0.52522 -1.16495,-0.04798 -1.4019,-0.284941 -0.60417,-0.604167 z m 1,-2 c 0.72187,-0.288871 1.58437,-0.253344 1.91667,0.07895 0.33229,0.332292 -0.25834,0.568641 -1.3125,0.52522 -1.16495,-0.04798 -1.4019,-0.284941 -0.60417,-0.604167 z M 165,30.5 c 0,-0.92326 0.86511,-1.455398 2.25,-1.383999 1.71224,0.08828 1.82881,0.225868 0.48776,0.575682 -0.96924,0.252825 -1.50518,0.875624 -1.19099,1.383999 C 166.86097,31.584057 166.64148,32 166.05902,32 165.47656,32 165,31.325 165,30.5 z m 53.52542,102.46681 c 6.60604,-1.03633 8.72289,-1.8543 12.33504,-4.76637 4.32678,-3.48822 8.12862,-8.58674 8.1358,-10.91065 0.006,-1.90764 -9.31699,-10.88212 -15.17353,-14.60648 C 219.52365,99.949375 208.36447,95 206.49945,95 c -0.23403,0 -0.36088,3.4875 -0.28188,7.75 0.0805,4.34344 -0.37531,8.7101 -1.03697,9.93426 -0.64933,1.20134 -1.1806,3.04632 -1.1806,4.09996 0,3.22466 -5.57715,9.83334 -10.16014,12.03933 l -4.33986,2.08896 -11,-2.39586 c -8.0924,-1.76257 -13.24678,-3.59359 -19.5,-6.92706 -6.2369,-3.32478 -9.65007,-4.53897 -12.81955,-4.56039 -3.90518,-0.0264 -4.2889,0.18496 -4,2.20329 0.41879,2.92581 8.78355,7.05804 18.81955,9.29693 4.125,0.92023 9.83679,2.32703 12.69286,3.12621 11.63075,3.25451 29.17417,3.76759 44.83256,1.31118 z M 186.84604,30.96952 c 0.30212,-2.072531 0.14347,-2.205703 -1.25,-1.049228 -1.88703,1.566096 -2.14522,4.427234 -0.34604,3.834713 0.6875,-0.226413 1.40572,-1.479882 1.59604,-2.785485 z M 175,22.09362 c 0,-0.49851 -0.9,-0.671025 -2,-0.383369 -1.1,0.287656 -2,0.695528 -2,0.90638 C 171,22.827484 171.9,23 173,23 c 1.1,0 2,-0.407871 2,-0.90638 z m -53.93191,223.00201 c -2.28578,-3.21009 -2.56758,-4.6689 -1.07954,-5.58855 0.55367,-0.34219 0.74186,0.0319 0.42779,0.85033 -0.63568,1.65655 3.4321,6.85429 4.73434,6.04947 0.46713,-0.2887 0.84932,-0.0484 0.84932,0.5341 0,2.08974 -2.90344,1.00336 -4.93191,-1.84535 z M 118.73805,235.75 C 119.64812,232.0325 123,229.08325 123,232 c 0,0.55 -0.675,1 -1.5,1 -0.93333,0 -1.5,0.94444 -1.5,2.5 0,1.375 -0.40787,2.5 -0.90638,2.5 -0.49851,0 -0.65852,-1.0125 -0.35557,-2.25 z M 155.25,222.27976 c -0.6875,-0.24553 -1.25,-1.18036 -1.25,-2.07738 0,-1.48446 0.15184,-1.47912 1.69048,0.0595 1.80785,1.80786 1.60272,2.74758 -0.44048,2.01786 z m -37,-13.31092 c -1.2375,-0.49742 -2.23632,-1.70639 -2.21959,-2.68662 0.0288,-1.6888 0.0838,-1.69049 1.04969,-0.0322 0.5606,0.9625 1.67192,1.75 2.46959,1.75 0.79767,0 1.45031,0.45 1.45031,1 0,0.55 -0.1125,0.97148 -0.25,0.93661 -0.1375,-0.0349 -1.2625,-0.47036 -2.5,-0.96777 z M 113.58689,203 c -1.63878,-4.92287 -1.58141,-7.76232 0.18379,-9.09649 1.46835,-1.10981 1.54069,-1.09552 0.47932,0.0947 -0.6875,0.77097 -1.25,2.01333 -1.25,2.76079 0,0.82106 0.4948,1.06175 1.25,0.60804 0.78118,-0.46932 0.71153,-0.0878 -0.1857,1.0172 -1.15263,1.41955 -1.18252,1.92464 -0.1516,2.56178 0.70625,0.43649 1.10911,1.63969 0.89525,2.67379 -0.33033,1.59731 -0.51404,1.50405 -1.22106,-0.61983 z M 112,190.9733 c 0,-0.86934 3.88186,-2.42477 4.50251,-1.80412 0.19348,0.19348 -0.74043,0.86723 -2.07536,1.49722 C 113.09222,191.29639 112,191.43449 112,190.9733 z M 56,145.13867 c 0,-0.47373 1.125,-0.64627 2.5,-0.38342 1.375,0.26285 2.5,0.65044 2.5,0.86133 C 61,145.82746 59.875,146 58.5,146 57.125,146 56,145.6124 56,145.13867 z M 52.55887,142.4682 C 51.491249,141.66069 51.098649,141 51.686426,141 c 0.587776,0 1.628885,0.675 2.313574,1.5 1.557204,1.87632 1.067337,1.86551 -1.44113,-0.0318 z M 39.872445,136.25 c -1.243871,-1.58606 -1.208501,-1.62143 0.377555,-0.37756 0.9625,0.75485 1.75,1.54235 1.75,1.75 0,0.82304 -0.821186,0.29331 -2.127555,-1.37244 z m -4.248906,-2.78866 c -0.342947,-0.8937 -0.595015,-2.15061 -0.560153,-2.79313 0.03486,-0.64251 0.49453,-0.0904 1.021483,1.22697 0.526953,1.31735 0.779022,2.57426 0.560152,2.79313 -0.218869,0.21887 -0.678536,-0.33327 -1.021482,-1.22697 z"
     id="path30798"
     inkscape:connector-curvature="0" />
</svg>
