<?xml version="1.0" encoding="UTF-8" standalone="no"?>
<!-- Created with Inkscape (http://www.inkscape.org/) -->

<svg
   xmlns:dc="http://purl.org/dc/elements/1.1/"
   xmlns:cc="http://creativecommons.org/ns#"
   xmlns:rdf="http://www.w3.org/1999/02/22-rdf-syntax-ns#"
   xmlns:svg="http://www.w3.org/2000/svg"
   xmlns="http://www.w3.org/2000/svg"
   xmlns:sodipodi="http://sodipodi.sourceforge.net/DTD/sodipodi-0.dtd"
   xmlns:inkscape="http://www.inkscape.org/namespaces/inkscape"
   id="svg11088"
   version="1.1"
   inkscape:version="0.48.2 r9819"
   width="452"
   height="339"
   sodipodi:docname="Lantern.svg">
  <metadata
     id="metadata11094">
    <rdf:RDF>
      <cc:Work
         rdf:about="">
        <dc:format>image/svg+xml</dc:format>
        <dc:type
           rdf:resource="http://purl.org/dc/dcmitype/StillImage" />
        <dc:title></dc:title>
      </cc:Work>
    </rdf:RDF>
  </metadata>
  <defs
     id="defs11092">
    <filter
       inkscape:collect="always"
       id="filter11774"
       x="-0.3074092"
       width="1.6148185"
       y="-0.40858185"
       height="1.8171637"
       color-interpolation-filters="sRGB">
      <feGaussianBlur
         inkscape:collect="always"
         stdDeviation="4.930604"
         id="feGaussianBlur11776" />
    </filter>
    <filter
       id="filter11778"
       inkscape:label="Glow"
       width="1.55"
       height="1.5"
       x="-0.25"
       y="-0.25"
       inkscape:menu="Shadows and Glows"
       inkscape:menu-tooltip="Glow of object's own color at the edges"
       color-interpolation-filters="sRGB">
      <feGaussianBlur
         id="feGaussianBlur11780"
         in="SourceAlpha"
         stdDeviation="2.8209638554216863"
         result="blur" />
      <feColorMatrix
         id="feColorMatrix11782"
         result="bluralpha"
         type="matrix"
         values="-1 0 0 0 1 0 -1 0 0 1 0 0 -1 0 1 0 0 0 0.5 0 " />
      <feOffset
         id="feOffset11784"
         in="bluralpha"
         dx="4"
         dy="4"
         result="offsetBlur" />
      <feMerge
         id="feMerge11786"
         result="fbSourceGraphic">
        <feMergeNode
           id="feMergeNode11788"
           in="offsetBlur" />
        <feMergeNode
           id="feMergeNode11790"
           in="SourceGraphic" />
      </feMerge>
      <feColorMatrix
         result="fbSourceGraphicAlpha"
         in="fbSourceGraphic"
         values="0 0 0 -1 0 0 0 0 -1 0 0 0 0 -1 0 0 0 0 1 0"
         id="feColorMatrix11806" />
      <feGaussianBlur
         id="feGaussianBlur11808"
         stdDeviation="5"
         result="result91"
         in="fbSourceGraphic" />
      <feComposite
         id="feComposite11810"
         in2="result91"
         in="fbSourceGraphic"
         operator="over" />
    </filter>
    <filter
       inkscape:collect="always"
       id="filter11838"
       x="-0.67128706"
       width="2.3425741"
       y="-0.77633584"
       height="2.5526717"
       color-interpolation-filters="sRGB">
      <feGaussianBlur
         inkscape:collect="always"
         stdDeviation="43.939982"
         id="feGaussianBlur11840" />
    </filter>
  </defs>
  <sodipodi:namedview
     pagecolor="#ffffff"
     bordercolor="#666666"
     borderopacity="1"
     objecttolerance="10"
     gridtolerance="10"
     guidetolerance="10"
     inkscape:pageopacity="0"
     inkscape:pageshadow="2"
     inkscape:window-width="1254"
     inkscape:window-height="740"
     id="namedview11090"
     showgrid="false"
     inkscape:zoom="0.68192216"
     inkscape:cx="250.56642"
     inkscape:cy="146.03375"
     inkscape:window-x="3"
     inkscape:window-y="0"
     inkscape:window-maximized="0"
     inkscape:current-layer="svg11088" />
  <path
     style="fill:#895735;fill-opacity:1;stroke:none"
     d="m 4.1629898,186.24835 4.666193,7.77699 4.1477272,3.62926 31.107955,-18.14631 15.035511,-6.74006 8.295455,-3.11079 -9.332387,-17.62784 -4.666193,6.74005 -13.998579,7.77699 -20.738637,12.44318 z"
     id="path11100"
     inkscape:connector-curvature="0" />
  <path
     style="fill:#4b4b4b;fill-opacity:1;stroke:none"
     d="m 61.712706,156.17732 4.147727,9.33239 9.332386,-5.70312 51.328121,-29.0341 43.55114,-25.92329 58.58665,-33.181821 18.1463,-7.258521 8.42507,0.648083 2.20349,-3.758878 -2.3331,-6.221591 -14.51705,4.147727 -35.77415,16.07244 -50.80965,25.923301 -44.06961,27.99716 -33.181813,20.22017 z"
     id="path11610"
     inkscape:connector-curvature="0"
     sodipodi:nodetypes="cccccccccccccccc" />
  <path
     style="fill:#4b4b4b;fill-opacity:1;stroke:none"
     d="m 230.96478,105.83556 6.59899,-1.09983 -1.09983,-1.83306 5.13255,-13.564601 6.59899,-9.16527 4.39933,-6.59899 10.63171,-2.19966 12.46477,3.6661 8.43205,9.16527 3.29949,19.430371 5.49917,-0.36661 -4.39933,-14.664431 -9.53188,-15.76426 -8.06544,-3.666109 -10.63171,-1.466443 -7.69883,2.199665 -9.35396,8.557847 -10.07641,17.83813 z"
     id="path11612"
     inkscape:connector-curvature="0"
     sodipodi:nodetypes="ccccccccccccccccccc" />
  <path
     style="fill:#ff0000;fill-opacity:1;stroke:#000000;stroke-width:1px;stroke-linecap:butt;stroke-linejoin:miter;stroke-opacity:1;filter:url(#filter11778)"
     d="m 231.63991,114.05197 17.75745,1.29616 29.55256,-1.94424 15.03551,-1.16655 8.55469,3.75888 8.16584,7.9066 5.83274,5.70313 11.40625,16.97976 4.27734,10.88778 2.98118,14.64666 0.51847,13.48012 -2.07387,15.68359 -6.3512,15.42436 -13.22088,13.73935 -24.75675,12.57279 -4.40696,0.90732 -44.8473,-1.16655 -2.85157,-3.49964 -12.70241,-8.42507 -15.03551,-10.36932 -10.2397,-13.09127 -4.6662,-9.98047 -1.16655,-12.83203 2.07387,-15.29474 5.05504,-14.51705 6.48083,-11.14701 13.99857,-18.27593 z"
     id="path11614"
     inkscape:connector-curvature="0" />
  <path
     style="fill:#f6ff00;fill-opacity:1;stroke:none;filter:url(#filter11774)"
     d="m 250.39515,197.48825 -4.03272,7.69882 0.36661,12.09816 9.16527,4.03272 18.69715,0.36661 7.33221,-2.93289 2.93289,-9.53188 0,-10.63171 -10.99832,-4.03272 -13.5646,-1.83305 z"
     id="path11768"
     inkscape:connector-curvature="0" />
  <path
     style="fill:#f6ff00;fill-opacity:1;stroke:none;filter:url(#filter11838)"
     d="m 245.50887,234.20644 -32.92259,-12.44318 -20.73863,-17.62784 -9.07316,-25.1456 17.36861,-40.44034 10.88779,-12.70241 12.70241,-15.81321 31.88565,-0.7777 58.58665,-6.48082 25.66406,31.36718 -2.07386,56.25355 -5.44389,27.21947 -16.07244,12.44318 -47.1804,8.55468 z"
     id="path11812"
     inkscape:connector-curvature="0" />
  <path
     style="fill:#ff0400;fill-opacity:1;stroke:#000000;stroke-width:1px;stroke-linecap:butt;stroke-linejoin:miter;stroke-opacity:1"
     d="m 239.03021,243.31459 1.46645,9.53188 12.83137,2.56628 28.22903,0 8.43205,-1.83306 0,-10.2651 -9.89849,0.73322 z"
     id="path11842"
     inkscape:connector-curvature="0" />
  <path
     style="fill:#ff0400;fill-opacity:1;stroke:#000000;stroke-width:1px;stroke-linecap:butt;stroke-linejoin:miter;stroke-opacity:1"
     d="m 230.23156,106.56878 0.73322,7.33221 16.13087,2.56628 26.39598,-2.93289 21.26342,-1.09983 -1.46644,-8.79866 -15.03104,0.36661 -30.06209,1.09984 z"
     id="path11844"
     inkscape:connector-curvature="0" />
  <path
     style="fill:#000000"
     d="m 251.20134,255.82493 c -5.225,-0.33991 -10.175,-0.9072 -11,-1.26064 -1.10217,-0.47218 -1.5,-2.28146 -1.5,-6.82176 l 0,-6.17915 -7.5361,-4.56021 c -18.13479,-10.97366 -29.07863,-21.39294 -35.24979,-33.56022 -2.83357,-5.58675 -3.04544,-6.75762 -3.0762,-17 -0.0386,-12.85843 1.35418,-20.1035 5.63657,-29.32051 6.47445,-13.93499 17.86335,-29.86181 26.86043,-37.56297 3.65567,-3.12912 4.05926,-3.89567 3.50643,-6.65983 -0.71793,-3.58963 3.68762,-17.703401 8.50468,-27.245961 3.18903,-6.31742 9.90831,-14.27581 12.83824,-15.20573 0.98989,-0.31418 2.02814,-1.444431 2.30723,-2.511667 0.40624,-1.553453 -0.14332,-2.062511 -2.75566,-2.55259 -4.07736,-0.764916 -13.55987,3.042436 -29.0504,11.664117 -6.04199,3.36283 -14.36043,7.81432 -18.48543,9.89221 -4.125,2.07789 -13.21194,7.31609 -20.19321,11.64046 -30.24118,18.732101 -40.00638,24.565691 -51.30679,30.649931 -6.6,3.55349 -18.075,10.03633 -25.5,14.40631 -7.424998,4.36998 -19.043986,10.80689 -25.819972,14.30424 -12.540994,6.4729 -12.623564,6.55876 -10.724681,11.15247 0.54942,1.32913 -0.138778,1.78919 -3.534696,2.36293 -2.319322,0.39184 -5.612781,1.29727 -7.318799,2.01205 -5.113077,2.14226 -37.838865,20.46376 -41.506152,23.23717 -3.150034,2.38224 -3.598174,2.46591 -6,1.12021 -2.6706352,-1.49631 -7.0670192,-9.02459 -7.0853672,-12.13284 -0.0065,-1.09493 0.748996,-1.75 2.018186,-1.75 2.808048,0 11.8023252,-4.62649 29.8013412,-15.32925 15.615388,-9.28539 23.600682,-15.16511 22.660931,-16.68565 -0.287877,-0.4658 -0.131875,-1.08889 0.346671,-1.38464 0.478546,-0.29576 1.376239,0.57314 1.994873,1.9309 0.618634,1.35775 1.658064,2.46864 2.309845,2.46864 1.714631,0 20.010837,-9.86953 29.357822,-15.8365 4.4,-2.80889 12.949998,-8.09417 18.999998,-11.74506 6.05,-3.65089 13.7,-8.32567 17,-10.3884 26.60336,-16.62896 55.94617,-32.517581 80,-43.318621 5.5,-2.4697 14.14963,-6.527254 19.22141,-9.016794 8.56957,-4.206472 15.92422,-7.246644 24.15268,-9.98393 3.05932,-1.017714 3.55678,-0.896818 5.33232,1.295882 1.22028,1.506982 1.80796,3.44213 1.55948,5.135132 -0.45633,3.109184 1.28233,4.315335 7.73411,5.365349 6.66147,1.08414 11.95316,3.989001 15.78482,8.665031 4.70308,5.7395 9.84032,16.75854 10.48671,22.49333 0.27925,2.477481 1.1199,4.739421 1.8681,5.026531 0.84468,0.32414 1.36037,2.09477 1.36037,4.67089 0,3.99379 0.18281,4.23273 4.8909,6.39261 8.01338,3.67621 17.02818,13.80458 26.91928,30.24455 3.4889,5.7989 4.88523,9.35845 7.08775,18.06823 4.093,16.18559 1.99117,40.61982 -4.43776,51.58995 -1.35309,2.30888 -2.46017,4.90533 -2.46017,5.76989 0,0.86456 -0.3375,1.47229 -0.75,1.3505 -0.4125,-0.12178 -3.45376,2.46572 -6.75834,5.75 -4.18998,4.16423 -8.42695,7.12023 -14,9.76735 -4.39542,2.08776 -9.11666,4.35253 -10.49166,5.03282 -2.10735,1.04263 -2.54703,2.04352 -2.79944,6.37266 -0.16469,2.82467 -0.87898,5.61675 -1.58732,6.20462 -0.70834,0.58787 -4.66871,1.53909 -8.80081,2.11381 -7.51524,1.04527 -13.00332,1.02072 -30.81243,-0.13785 z m 35.25,-2.33005 c 2.39721,-0.67012 2.75,-1.26799 2.75,-4.66034 l 0,-3.89159 -4.75,-0.0562 c -2.6125,-0.0309 -12.625,-0.22683 -22.25,-0.4354 -10.14877,-0.21993 -16.44982,-0.0282 -15,0.45649 1.375,0.45965 4.1875,0.88058 6.25,0.9354 2.0625,0.0548 3.75,0.60075 3.75,1.21318 0,0.6684 -1.19919,0.9375 -3,0.67319 -1.65,-0.24217 -3,-0.0682 -3,0.3865 0,0.45475 1.15156,0.82681 2.55902,0.82681 1.40746,0 2.32092,0.38524 2.02993,0.85608 -0.291,0.47085 -2.68006,0.75541 -5.30902,0.63237 -2.62896,-0.12305 -3.30801,-0.0306 -1.50899,0.20553 5.36892,0.70457 2.72835,2.05851 -2.99101,1.53363 -2.90396,-0.26651 -4.94971,-0.13402 -4.54611,0.29441 1.7385,1.84544 39.04551,2.69897 45.01618,1.02991 z m -37.98625,-6.25586 c -1.22994,-0.23736 -3.47994,-0.24351 -5,-0.0136 -1.52006,0.22985 -0.51375,0.42406 2.23625,0.43157 2.75,0.007 3.99369,-0.18056 2.76375,-0.41792 z m 34.58747,-9.54607 c 3.98193,-5.33839 7.14878,-10.90663 7.14878,-12.56965 0,-0.80931 -49.90446,-0.44476 -50.84116,0.37139 -0.68696,0.59854 7.06185,13.47361 8.67598,14.41563 0.91585,0.5345 1.21518,1.07671 0.66518,1.20492 -0.55,0.12821 4.625,0.50068 11.5,0.82771 6.875,0.32703 13.94792,0.68582 15.71761,0.7973 2.81277,0.1772 3.7103,-0.45783 7.13361,-5.0473 z m 5.75124,4.02136 c 2.66034,-1.21213 2.66616,-1.23581 0.43305,-1.76298 -1.86322,-0.43984 -1.49177,-0.73972 2.10049,-1.6957 3.84616,-1.02355 4.13366,-0.99235 2.42287,0.26298 -1.06762,0.78339 -1.56853,1.42434 -1.11312,1.42434 1.26473,0 17.55425,-8.05628 17.55425,-8.68178 0,-0.55874 -9.45985,0.37712 -14,1.38501 -1.77793,0.39469 -2.20729,0.23943 -1.48657,-0.53756 0.55739,-0.6009 5.27476,-1.57527 10.48303,-2.16527 8.07684,-0.91496 9.87692,-1.46297 12.23904,-3.72602 2.03342,-1.94814 2.43657,-2.86464 1.51697,-3.44852 -0.83515,-0.53027 -0.50278,-0.80034 0.99753,-0.81055 1.2375,-0.008 2.25,-0.46531 2.25,-1.01531 0,-1.25059 -2.54043,-1.26734 -8.70078,-0.0574 -2.63957,0.51844 -8.24859,1.22826 -12.46448,1.57738 l -7.66527,0.63475 -2.16667,5.33835 c -1.19168,2.93609 -3.70481,7.13531 -5.58474,9.33159 -1.87993,2.19627 -3.41806,4.25919 -3.41806,4.58426 0,1.01331 3.78036,0.64823 6.60246,-0.6376 z m 0.8557,-5.83906 c -0.28256,-0.45719 1.18627,-1.10491 3.26405,-1.43939 2.07778,-0.33448 4.90279,-0.83906 6.27779,-1.12129 1.62115,-0.33275 2.14846,-0.17377 1.5,0.45225 -1.43107,1.38156 -10.42918,3.09973 -11.04184,2.10843 z m 13.54184,-8.79138 c 3.47782,-1.1365 13.00653,-2.23588 10.5,-1.21145 -1.1,0.44958 -4.475,1.08988 -7.5,1.42291 -3.38125,0.37224 -4.53693,0.29078 -3,-0.21146 z m 3.08333,-3.55255 c 0.76075,-0.75154 9.83939,-0.99898 10.55081,-0.28757 0.38455,0.38456 -1.92581,0.6992 -5.13414,0.6992 -3.20833,0 -5.64583,-0.18523 -5.41667,-0.41163 z m -63.37868,13.16163 c -1.84468,-2.8875 -4.16116,-5.40576 -5.14774,-5.59613 -1.1029,-0.21282 -1.53285,0.076 -1.11632,0.75 0.4242,0.68638 -0.37261,1.14704 -2.13157,1.23231 -2.67424,0.12965 -2.68907,0.15599 -0.30902,0.54904 4.72754,0.78071 5.71206,1.44226 3.5,2.35183 -1.697,0.69779 -1.54406,0.83303 1.00945,0.89266 1.94221,0.0454 3.48451,0.83097 4.34902,2.21528 1.16721,1.86899 1.13794,2.06761 -0.22743,1.54367 -0.86184,-0.33072 -1.83296,-0.17097 -2.15803,0.35501 -0.3273,0.52959 0.78707,0.95633 2.49728,0.95633 l 3.08833,0 -3.35397,-5.25 z m -1.70465,2.25 c 0,-0.55 -0.70156,-1 -1.55902,-1 -0.85746,0 -1.2809,0.45 -0.94098,1 0.33992,0.55 1.04148,1 1.55902,1 0.51754,0 0.94098,-0.45 0.94098,-1 z m -6.27083,-3.60417 c -0.3323,-0.33229 -1.1948,-0.36781 -1.91667,-0.0789 -0.79773,0.31922 -0.56078,0.55618 0.60417,0.60416 1.05416,0.0434 1.64479,-0.19293 1.3125,-0.52522 z m -2.47917,-4.10156 c -1.2375,-0.23836 -3.2625,-0.23836 -4.5,0 -1.2375,0.23835 -0.225,0.43337 2.25,0.43337 2.475,0 3.4875,-0.19502 2.25,-0.43337 z m 5.50109,-4.14274 c -1.31335,-3.47948 -3.99155,-4.01696 -15.25109,-3.06071 -3.85,0.32697 -5.6275,0.6653 -3.95,0.75184 1.6775,0.0865 3.4775,0.58034 4,1.09734 0.5225,0.51701 3.2,1.1109 5.95,1.31976 l 5,0.37974 -5.80902,0.18025 c -8.41098,0.26099 -6.24875,1.62608 3.15919,1.99451 l 8.02461,0.31426 -1.12369,-2.97699 z m -16.25109,-5.15153 c -4.51131,-1.14793 -8.70946,-1.14793 -8,0 0.33992,0.55 2.95398,0.94676 5.80902,0.88169 4.45849,-0.10162 4.76765,-0.22604 2.19098,-0.88169 z m 61.45414,0.15075 8.45414,-0.65075 1.9187,-7.79383 c 1.05529,-4.2866 1.71736,-7.99516 1.47127,-8.24125 -0.24608,-0.24608 -5.36072,0.0181 -11.36587,0.5871 -10.17929,0.9645 -23.43252,0.76841 -43.13637,-0.63822 l -8.20399,-0.58567 2.03443,6.83593 c 1.11894,3.75977 2.26911,7.59815 2.55593,8.52975 0.28682,0.93159 1.48812,1.88281 2.66956,2.11382 3.42014,0.66874 34.32065,0.55756 43.6022,-0.15688 z m -47.96753,-0.90075 c -0.025,-1.39833 -4.62979,-15.22651 -5.29049,-15.88721 -0.36106,-0.36106 -4.82789,-1.02236 -9.92629,-1.46955 -5.09841,-0.4472 -12.08233,-1.08636 -15.51983,-1.42036 -3.6153,-0.35128 -6.25,-0.21586 -6.25,0.32125 0,0.51069 1.19188,0.70068 2.64862,0.42221 1.54333,-0.29502 2.40284,-0.10862 2.05964,0.44668 -0.32955,0.53323 1.24363,1.06113 3.57155,1.19849 6.56702,0.38749 5.70081,1.13849 -1.31314,1.13849 -8.09673,0 -6.7727,1.65752 1.85878,2.32697 3.479,0.26983 6.629,0.81755 7,1.21716 0.371,0.3996 -2.22,0.47588 -5.75778,0.1695 -4.0181,-0.34797 -5.89474,-0.21685 -5,0.34935 0.78778,0.49852 4.58233,0.99436 8.43233,1.10187 l 7,0.19547 -7.5,0.63968 c -4.125,0.35183 -6.15,0.73982 -4.5,0.86221 1.65,0.12239 5.475,0.84019 8.5,1.59511 l 5.5,1.37259 -6.80902,0.085 c -7.88828,0.0985 -8.15353,1.49278 -0.4703,2.47213 2.90363,0.37011 8.42932,1.29128 12.27932,2.04704 8.58106,1.68448 9.50353,1.76381 9.48661,0.81588 z m 81.32647,-2.73042 c 9.5359,-1.6018 10.85058,-2.46614 3.01485,-1.98211 l -5.82793,0.36 6.33539,-1.19874 c 6.56604,-1.24237 8.97938,-3.18097 10.63533,-8.54317 l 0.72401,-2.34445 -7.84737,0.71606 c -4.31605,0.39382 -7.50053,0.352 -7.07664,-0.093 0.4239,-0.44495 3.98817,-1.06217 7.92061,-1.37161 4.82886,-0.37997 7.29919,-1.01433 7.60979,-1.95414 0.3491,-1.05628 -0.23407,-1.2481 -2.42061,-0.79621 -1.58428,0.32741 -9.44756,1.38591 -17.47395,2.35222 l -14.59344,1.75691 -1.16422,5.53931 c -0.64032,3.04661 -1.45193,6.60412 -1.80359,7.90556 l -0.63938,2.36625 7.39704,-0.70025 c 4.06836,-0.38515 10.91292,-1.29085 15.21011,-2.01268 z m 4.18692,-6.80107 c 2.75,-0.67018 5.5625,-1.58257 6.25,-2.02753 0.70601,-0.45694 1.25,-0.37382 1.25,0.19099 0,1.53736 -1.16479,1.95435 -7.05745,2.52655 l -5.44255,0.52849 5,-1.2185 z m -3,-2.55578 c 2.89248,-1.25537 11.35763,-2.37454 9.5,-1.25599 -0.825,0.49677 -3.75,1.1779 -6.5,1.51362 -3.18555,0.38889 -4.27422,0.2954 -3,-0.25763 z m -107.75,5.14794 c -0.9625,-0.25152 -2.5375,-0.25152 -3.5,0 -0.9625,0.25153 -0.175,0.45733 1.75,0.45733 1.925,0 2.7125,-0.2058 1.75,-0.45733 z m 82.75,-11.18174 c 2.99136,-0.74006 3.00259,-0.77017 3.90094,-10.45129 0.49552,-5.34 0.68938,-9.92065 0.43081,-10.17923 -0.25858,-0.25857 -4.489,0.031 -9.40094,0.64348 -8.83616,1.1018 -48.7829,0.54281 -54.68081,-0.76517 -2.74373,-0.60848 -2.75,-0.59718 -2.75,4.95748 0,3.06205 0.48729,7.83951 1.08286,10.61658 0.88244,4.11464 1.48399,5.07032 3.25,5.16322 28.67875,1.50869 52.10509,1.5147 58.16714,0.0149 z m 21.81897,-1.59244 c 9.54116,-1.70071 18.68103,-4.49332 18.68103,-5.70782 0,-0.85511 -4.04182,-0.56927 -15.75,1.11384 -2.8875,0.41509 -5.25,0.43035 -5.25,0.0339 0,-0.8405 4.60514,-1.64939 14.75,-2.59082 4.77819,-0.44342 7.25,-1.09934 7.25,-1.92389 0,-0.93385 -0.95089,-1.03027 -3.75,-0.38026 -5.11714,1.18832 -9.50949,1.14743 -8.75,-0.0814 0.33992,-0.55 2.57967,-1 4.97723,-1 2.39756,0 5.071,-0.27314 5.94098,-0.60699 1.85892,-0.71333 2.16667,-2.5128 0.33179,-1.94007 -2.27234,0.70929 -14.24893,1.71266 -13.68257,1.1463 0.3054,-0.3054 4.01516,-1.06987 8.24392,-1.69882 9.59812,-1.42754 10.32401,-3.30587 0.93865,-2.42886 -3.7125,0.34691 -7.875,0.86457 -9.25,1.15035 -1.95626,0.4066 -2.2397,0.2548 -1.30323,-0.69792 0.65822,-0.66964 4.59572,-1.43566 8.75,-1.70227 4.15428,-0.2666 7.55323,-0.93368 7.55323,-1.48239 0,-0.6274 -2.3196,-0.75319 -6.25,-0.33894 -3.72019,0.39209 -5.71429,0.3009 -4.92649,-0.22528 0.86976,-0.58094 -0.75868,-1.07281 -4.75,-1.43473 -6.43933,-0.5839 -17.89529,0.12979 -18.47687,1.15109 -0.1906,0.33469 -0.66388,5.22103 -1.05173,10.85853 l -0.7052,10.25 4.33015,-0.0349 c 2.38158,-0.0192 7.84867,-0.66207 12.14911,-1.42862 z m -84.83507,-1.78649 c -0.30481,-1.2375 -0.87589,-5.84337 -1.26905,-10.23527 l -0.71485,-7.98528 -8,-0.28939 c -4.4,-0.15917 -9.88677,-0.72829 -12.19282,-1.26473 -5.44083,-1.26564 -12.30718,-1.25188 -12.30718,0.0247 0,0.55 2.3625,1.07335 5.25,1.163 l 5.25,0.16299 -5.5,0.67401 c -3.025,0.3707 -4.2625,0.74736 -2.75,0.837 1.5125,0.0897 2.75,0.613 2.75,1.163 0,0.55 0.76101,1 1.69113,1 1.47465,0 1.44265,0.18794 -0.25,1.4682 -1.81641,1.37386 -1.68413,1.47825 2.05887,1.62475 3.76396,0.14732 3.68111,0.20287 -1.40398,0.94133 -2.97219,0.43163 -6.00969,0.55234 -6.75,0.26826 -0.74031,-0.28409 -1.34602,-0.0184 -1.34602,0.59047 0,0.60885 1.575,1.10699 3.5,1.10699 1.925,0 3.5,0.37206 3.5,0.82681 0,0.45474 -1.35,0.62867 -3,0.3865 -1.89648,-0.27835 -3,-0.003 -3,0.74733 0,0.79314 1.6531,1.0999 4.97666,0.9235 2.73717,-0.14528 5.28717,0.0464 5.66667,0.42586 0.3795,0.3795 -1.9725,0.75386 -5.22666,0.83191 -5.51442,0.13225 -5.64472,0.18747 -1.91667,0.81211 3.97387,0.66582 3.9804,0.67426 1,1.29106 -1.65,0.34147 0.23555,0.42538 4.19011,0.18647 4.48281,-0.27082 7.43871,-0.0321 7.85035,0.63392 0.36313,0.58756 0.0526,0.98488 -0.69011,0.88293 -0.74269,-0.10195 -2.47535,-0.0743 -3.85035,0.0613 -4.25804,0.42018 8.97533,2.76383 16.26905,2.88127 6.53974,0.10531 6.75028,0.0328 6.21485,-2.141 z m -29.75473,0.64583 c -0.3323,-0.33229 -1.1948,-0.36781 -1.91667,-0.0789 -0.79773,0.31922 -0.56078,0.55618 0.60417,0.60416 1.05416,0.0434 1.64479,-0.19293 1.3125,-0.52522 z M 18.521167,193.09242 c 7.578268,-5.16774 39.096558,-21.93174 43.394429,-23.0807 3.979241,-1.06378 4.160069,-1.26913 3.242607,-3.68224 -1.043837,-2.74549 -5.944142,-11.38653 -6.457269,-11.38653 -0.170701,0 -2.217051,1.59299 -4.547446,3.53998 -2.330394,1.94699 -7.43547,5.39253 -11.344613,7.65675 -3.909143,2.26423 -9.807533,5.79408 -13.107533,7.84413 -3.3,2.05005 -9.825,5.69201 -14.5,8.09325 -4.675,2.40124 -8.6730712,4.46396 -8.8846022,4.58383 -0.74683,0.42319 2.214069,6.79891 3.7301052,8.03206 2.276593,1.85178 3.846454,1.55529 8.474322,-1.60053 z m -8.151312,-1.66237 c -1.2242302,-1.55636 -1.8754672,-3.16019 -1.4471932,-3.56408 2.0140352,-1.89934 31.4618772,-17.92302 32.9384022,-17.92302 0.187153,0 0.340278,0.34767 0.340278,0.7726 0,0.42492 -1.6875,1.63532 -3.75,2.68976 -8.77498,4.48616 -23.883965,12.99728 -25.496469,14.36254 -1.301443,1.10189 -1.468463,1.81366 -0.655459,2.79327 0.600055,0.72302 0.912203,1.851 0.693662,2.50663 -0.231016,0.69305 -1.329107,0.007 -2.623221,-1.6377 z m 188.100515,-4.14304 c -0.67703,-0.27392 -2.02703,-0.29059 -3,-0.0371 -0.97297,0.25354 -0.41903,0.47766 1.23097,0.49804 1.65,0.0204 2.44606,-0.18706 1.76903,-0.46099 z m 0.46014,-2.94823 c -0.3323,-0.33229 -1.1948,-0.36781 -1.91667,-0.0789 -0.79773,0.31922 -0.56078,0.55618 0.60417,0.60416 1.05416,0.0434 1.64479,-0.19293 1.3125,-0.52522 z m 96.02083,-3.92771 c 1.99096,-0.62063 2.25,-1.36302 2.25,-6.44826 0,-4.90904 -1.50388,-15.94768 -2.25706,-16.56711 -0.13362,-0.10989 -7.21794,0.39932 -15.74294,1.13159 -8.525,0.73226 -22.74839,1.35035 -31.60754,1.37352 l -16.10755,0.0421 -0.64245,6.14669 c -0.35335,3.38068 -0.64246,7.81901 -0.64246,9.86296 l 0,3.71627 9.25,1.04611 c 9.81228,1.10969 51.70105,0.88032 55.5,-0.30391 z m 39.25,-1.46812 c 0,-2.15807 -1.4034,-2.35578 -6.5,-0.9157 -2.68702,0.75923 -2.59169,0.80284 0.91369,0.41799 4.19618,-0.46069 3.85345,1.01134 -0.41369,1.77685 -1.60129,0.28727 -0.9722,0.49745 1.75,0.58468 3.62873,0.11627 4.25,-0.15618 4.25,-1.86382 z m -20.14355,-1.01766 c 11.70104,-1.312 18.93705,-2.8392 19.75978,-4.17041 0.38432,-0.62184 -0.10468,-0.81177 -1.241,-0.48202 -4.16513,1.20869 -15.54557,1.75472 -14.90302,0.71505 0.35521,-0.57473 3.65677,-1.05185 7.33681,-1.06027 8.06975,-0.0185 9.69815,-0.82781 8.80728,-4.37736 -0.7119,-2.8364 -1.06326,-2.91739 -7.3663,-1.69805 -2.3375,0.45219 -4.25,0.47482 -4.25,0.0503 0,-0.42453 2.25,-1.08134 5,-1.45956 3.30345,-0.45434 5,-1.1648 5,-2.09384 0,-1.57651 -0.52206,-1.61232 -7.28562,-0.49968 -2.63209,0.43299 -4.98324,0.46751 -5.22478,0.0767 -0.24153,-0.39081 1.81022,-0.97697 4.55945,-1.30257 6.595,-0.78108 7.19984,-1.2567 6.39118,-5.0258 -1.40647,-6.55551 -1.59296,-6.65006 -9.16744,-4.6479 -3.72503,0.98464 -10.53801,2.48861 -15.13995,3.34216 -4.60193,0.85356 -8.53174,1.7165 -8.73289,1.91766 -0.20116,0.20116 0.0766,1.90797 0.61715,3.79291 0.5406,1.88494 0.9829,6.90639 0.9829,11.15877 l 0,7.7316 2.75,-0.45928 c 1.5125,-0.2526 6.9604,-0.93137 12.10645,-1.50838 z m 5.14355,-7.98234 c 0.825,-0.53316 4.425,-0.91614 8,-0.85107 l 6.5,0.1183 -5,0.77878 c -7.46996,1.16349 -11.34255,1.14474 -9.5,-0.046 z m 4.75,-11.66228 c 0.6875,-0.27741 1.8125,-0.27741 2.5,0 0.6875,0.27741 0.125,0.50439 -1.25,0.50439 -1.375,0 -1.9375,-0.22698 -1.25,-0.50439 z m -6.48097,-2.03071 c 0.97297,-0.25354 2.32297,-0.23687 3,0.037 0.67703,0.27393 -0.11903,0.48137 -1.76903,0.46099 -1.65,-0.0204 -2.20394,-0.2445 -1.23097,-0.49804 z m 6.49263,-1.01427 c 1.24391,-0.23919 3.04391,-0.23011 4,0.0202 0.95609,0.25029 -0.0617,0.446 -2.26166,0.4349 -2.2,-0.0111 -2.98225,-0.21589 -1.73834,-0.45508 z m -2.49263,24.05132 c -0.67703,-0.27392 -2.02703,-0.29059 -3,-0.0371 -0.97297,0.25354 -0.41903,0.47766 1.23097,0.49804 1.65,0.0204 2.44606,-0.18706 1.76903,-0.46099 z m -93.26034,-5.09406 c 0.005,-2.6125 0.29246,-7.1125 0.63929,-10 l 0.6306,-5.25 -5.88929,-0.0239 c -3.23911,-0.0131 -7.68929,-0.46162 -9.88929,-0.99666 -2.2,-0.53504 -6.475,-0.66246 -9.5,-0.28315 -4.90527,0.61508 -5.1756,0.76412 -2.5,1.37834 1.65,0.37879 4.9875,0.74194 7.41667,0.80702 6.65027,0.17814 4.4313,1.01365 -3.25361,1.22507 -5.4483,0.14989 -6.9419,0.54574 -7.74895,2.05373 -0.54987,1.02743 -0.64299,1.80835 -0.20693,1.73536 0.43605,-0.073 3.71782,-0.0225 7.29282,0.11223 l 6.5,0.24491 -7,0.8855 c -9.56388,1.20983 -10.13694,1.65892 -2.5,1.95915 l 6.5,0.25553 -7,0.64683 c -3.85,0.35575 -5.5375,0.72629 -3.75,0.82341 1.7875,0.0971 3.25,0.59943 3.25,1.11622 0,0.5168 1.6875,1.11616 3.75,1.3319 3.04695,0.31872 2.75467,0.42378 -1.55902,0.56037 -3.32328,0.10522 -5.07785,-0.20593 -4.69098,-0.8319 0.67971,-1.0998 -1.77023,-1.39644 -2.82466,-0.34201 -1.43717,1.43717 1.79663,3.34285 5.6971,3.35732 2.83036,0.0105 3.68163,0.29757 2.70867,0.9134 -0.99854,0.63203 0.0384,1.09518 3.5,1.56334 2.70539,0.36589 5.36889,0.81934 5.91889,1.00766 0.55,0.18832 4.0375,0.37792 7.75,0.42134 l 6.75,0.079 0.009,-4.75 z m -28.50869,-11.25 c -0.731,-1.18278 0.24752,-1.18278 3,0 1.92824,0.82859 1.92138,0.86195 -0.19098,0.92971 -1.20504,0.0387 -2.4691,-0.37971 -2.80902,-0.92971 z m -1.77083,14.39583 c -0.3323,-0.33229 -1.1948,-0.36781 -1.91667,-0.0789 -0.79773,0.31922 -0.56078,0.55618 0.60417,0.60416 1.05416,0.0434 1.64479,-0.19293 1.3125,-0.52522 z M 84.701342,152.95664 c 7.87086,-4.19195 36.386618,-20.19962 55.999998,-31.43626 5.5,-3.151 19.45,-11.53916 31,-18.64037 11.55,-7.101221 27.075,-16.132681 34.5,-20.069921 7.425,-3.93723 15.15115,-8.20073 17.16922,-9.47443 2.01807,-1.2737 8.04518,-4.185426 13.39357,-6.470508 8.13115,-3.474011 10.42845,-4.058186 14.02201,-3.565633 3.66416,0.502229 4.38821,0.303817 4.91184,-1.345981 0.61923,-1.951015 -0.93733,-6.010588 -2.30463,-6.010588 -1.57764,0 -16.80952,6.233458 -26.50438,10.846587 -5.6032,2.666182 -14.91263,7.049323 -20.68763,9.740323 -23.721,11.05334 -56.83591,29.052761 -78,42.396451 -25.77692,16.25201 -51.299358,31.63719 -58.322353,35.15729 -3.397705,1.70301 -6.351101,3.25401 -6.563103,3.44666 -0.212002,0.19265 0.359911,1.48785 1.270919,2.87823 l 1.656377,2.52795 5.229081,-2.85953 c 2.875995,-1.57274 8.829081,-4.77686 13.229081,-7.12027 z m -19.362668,6.65179 c -0.91985,-1.10836 -0.146156,-1.89578 3.951726,-4.02183 5.667414,-2.94036 5.910942,-3.01308 5.910942,-1.76497 0,0.48327 -1.367922,1.44529 -3.039827,2.13782 -1.671905,0.69252 -3.633653,2.10694 -4.35944,3.14315 -1.102101,1.57347 -1.508142,1.65684 -2.463401,0.50583 z m 214.612666,-2.83587 c 8.69353,-0.7304 14.25,-1.61379 14.25,-2.26553 0,-1.22891 -5.79108,-21.7375 -6.21749,-22.0187 -0.15538,-0.10247 -4.33251,0.14372 -9.28251,0.54708 -4.95,0.40337 -15.61644,0.77257 -23.70321,0.82047 l -14.7032,0.0871 -2.04376,4.62025 c -2.93884,6.64375 -6.14082,17.42351 -5.48879,18.47852 0.80445,1.30162 30.50962,1.13219 47.18896,-0.26916 z m -76.5,-0.49189 c -0.6875,-0.27741 -1.8125,-0.27741 -2.5,0 -0.6875,0.27741 -0.125,0.50439 1.25,0.50439 1.375,0 1.9375,-0.22698 1.25,-0.50439 z m 27.28623,-2.58772 c 0.38233,-1.7875 2.18282,-6.9625 4.0011,-11.5 2.84596,-7.10208 3.07336,-8.26144 1.63431,-8.33223 -0.9194,-0.0452 -2.79664,-0.23233 -4.17164,-0.41578 -6.83421,-0.91182 -15.27829,-1.2411 -13,-0.50695 2.23489,0.72017 2.10233,0.81617 -1.25,0.90528 -2.0625,0.0548 -3.75,0.4742 -3.75,0.93195 0,0.45775 2.475,0.62703 5.5,0.37617 3.54778,-0.29421 5.5,-0.0734 5.5,0.62204 0,0.63517 -2.77336,1.19963 -6.75,1.37383 -6.62491,0.29021 -8.70132,1.74391 -4.05902,2.84173 2.06608,0.48859 2.11629,0.62011 0.47723,1.25 -1.00748,0.38718 -3.03248,0.77961 -4.5,0.87207 -1.46751,0.0925 0.0318,0.46681 3.33179,0.83189 l 6,0.66378 -6.5,0.29975 c -5.67044,0.2615 -6.05331,0.39378 -3,1.03647 l 3.5,0.73672 -3.75,0.13164 c -2.0625,0.0724 -3.75,0.56752 -3.75,1.10026 0,0.53273 0.59188,0.74149 1.31528,0.46389 0.72341,-0.2776 2.41091,-0.067 3.75,0.468 2.11224,0.84388 1.77246,0.99915 -2.56528,1.17229 -2.75,0.10976 -3.9875,0.39458 -2.75,0.63293 1.2375,0.23836 2.25,0.85207 2.25,1.36382 0,0.51175 1.2375,1.0061 2.75,1.09856 1.5125,0.0925 0.05,0.44255 -3.25,0.77797 l -6,0.60987 7,0.84221 c 3.85,0.46322 7.675,1.22444 8.5,1.69162 0.825,0.46717 4.05175,0.86309 7.17054,0.87981 5.59677,0.03 5.67959,-0.0119 6.36569,-3.21959 z M 215.45134,138.2267 c 1.5125,-0.22913 3.9875,-0.22913 5.5,0 1.5125,0.22912 0.275,0.41659 -2.75,0.41659 -3.025,0 -4.2625,-0.18747 -2.75,-0.41659 z m 90.75,15.31169 c 3.86534,-0.76191 6.39867,-1.75025 6.25,-2.43834 -0.15414,-0.71344 1.18784,-1.16132 3.5,-1.16811 2.0625,-0.006 5.42007,-0.2871 7.46127,-0.62455 l 3.71127,-0.61355 -1.48695,-2.87545 c -0.81782,-1.58149 -1.91127,-2.87544 -2.42989,-2.87544 -0.51861,0 -0.7492,-0.5625 -0.51243,-1.25 0.23678,-0.6875 -0.8403,-3.02685 -2.39351,-5.19856 -2.63795,-3.68839 -3.14607,-3.94603 -7.71189,-3.9103 -4.68247,0.0367 -4.70928,0.0217 -0.63787,-0.35623 4.37584,-0.40617 5.06717,-1.06774 3.13495,-2.99996 -0.82007,-0.82007 -2.18407,-0.73788 -5.15599,0.31068 -4.48334,1.58181 -6.59003,1.06245 -2.30255,-0.56765 1.48708,-0.56539 3.12449,-1.02798 3.63869,-1.02798 1.12646,0 1.24509,-1.69026 0.16545,-2.35751 -0.42319,-0.26155 -3.23569,0.42853 -6.25,1.53351 -3.0143,1.10498 -7.50555,2.56855 -9.98055,3.25239 -3.55011,0.98089 -4.43471,1.64739 -4.1907,3.15748 0.26321,1.62895 4.42586,16.33024 5.70943,20.16413 0.50244,1.50072 1.13606,1.49039 9.48127,-0.15456 z m 5,-6.54641 c 2.4984,-0.84913 8.70411,-1.37994 7.91667,-0.67716 -0.22917,0.20453 -2.66667,0.63174 -5.41667,0.94935 -3.37192,0.38945 -4.18596,0.30082 -2.5,-0.27219 z m 10.8125,-1.73214 c 0.72187,-0.28887 1.58438,-0.25335 1.91667,0.0789 0.33229,0.3323 -0.25834,0.56864 -1.3125,0.52522 -1.16495,-0.048 -1.4019,-0.28494 -0.60417,-0.60416 z m -5.54347,-2.00988 c 0.97297,-0.25354 2.32297,-0.23687 3,0.037 0.67703,0.27393 -0.11903,0.48137 -1.76903,0.46099 -1.65,-0.0204 -2.20394,-0.2445 -1.23097,-0.49804 z m -3.26903,-3.44568 c 0,-0.47373 1.125,-0.86133 2.5,-0.86133 1.375,0 2.5,0.17254 2.5,0.38342 0,0.21089 -1.125,0.59848 -2.5,0.86133 -1.375,0.26285 -2.5,0.0903 -2.5,-0.38342 z m -2.75,-3.57758 c 1.5125,-0.22913 3.9875,-0.22913 5.5,0 1.5125,0.22912 0.275,0.41659 -2.75,0.41659 -3.025,0 -4.2625,-0.18747 -2.75,-0.41659 z m -104,15.05397 c -0.6875,-0.27741 -1.8125,-0.27741 -2.5,0 -0.6875,0.27741 -0.125,0.50439 1.25,0.50439 1.375,0 1.9375,-0.22698 1.25,-0.50439 z m 37.62958,-26.55463 c 2.76097,-3.96929 4.93005,-7.29708 4.82018,-7.39507 -0.76201,-0.67963 -12.47683,-1.17638 -15.03783,-0.63766 l -3.16193,0.66513 3,0.67394 c 2.89304,0.64991 2.85739,0.68376 -1,0.94936 l -4,0.27542 5,0.68579 5,0.68579 -6.5,0.28875 c -5.65876,0.25137 -6.04702,0.38409 -3,1.02546 1.925,0.4052 3.05,0.80285 2.5,0.88367 -0.55,0.0808 -0.325,0.60778 0.5,1.171 1.12173,0.7658 0.49128,0.96564 -2.5,0.79243 -2.2,-0.12738 -4.9,0.32639 -6,1.00839 -1.96384,1.21759 -1.96194,1.22972 0.10507,0.67087 1.15779,-0.31302 3.18279,-0.13804 4.5,0.38887 2.00801,0.80323 1.50637,0.98951 -3.10507,1.15303 -5.06284,0.17952 -5.22181,0.25358 -2,0.93174 1.925,0.4052 2.825,0.87161 2,1.03647 -1.24844,0.24948 3.02148,0.8789 12.17982,1.79542 1.05238,0.10532 3.55485,-2.52751 6.69976,-7.0488 z m 42.47936,5.25797 c 1.33371,-1.33371 -0.9964,-6.24468 -5.47588,-11.54106 l -3.38306,-4 -12.67898,1.01232 c -6.97344,0.55677 -12.87338,1.23177 -13.11097,1.5 -2.38427,2.69167 -9.71005,13.44725 -9.71005,14.2561 0,1.39202 42.9273,0.20428 44.35894,-1.22736 z m 13.92261,-3.13378 c 9.28106,-3.1234 9.98144,-3.85089 3.21845,-3.34305 -6.40992,0.48133 -6.4632,0.0132 -0.11975,-1.05209 2.58513,-0.43414 3.5467,-0.98519 2.88091,-1.65098 -0.64987,-0.64987 -2.78361,-0.67503 -6.10169,-0.072 -2.80629,0.51006 -4.88784,0.58031 -4.62567,0.1561 0.26218,-0.4242 2.32457,-1.08348 4.5831,-1.46505 l 4.10642,-0.69378 -2.86166,-1.94594 c -2.16731,-1.47379 -3.90539,-1.81477 -7.16322,-1.4053 -2.70769,0.34031 -4.07532,0.17458 -3.69098,-0.4473 0.37134,-0.60081 -1.37159,-0.98789 -4.44844,-0.98789 -2.78246,0 -5.05902,0.27254 -5.05902,0.60564 0,0.33311 1.07742,1.88609 2.39426,3.45107 1.31685,1.56498 3.22935,4.65583 4.25,6.86855 2.20487,4.78005 3.64969,5.00665 12.63729,1.98202 z m -8.46905,-2.59039 c 0.72187,-0.28888 1.58438,-0.25335 1.91667,0.079 0.33229,0.33229 -0.25834,0.56864 -1.3125,0.52522 -1.16495,-0.048 -1.4019,-0.28495 -0.60417,-0.60417 z m 3.6875,-6.31689 c 0.33992,-0.55 1.82898,-0.96837 3.30902,-0.92972 2.40282,0.0628 2.47681,0.16232 0.69098,0.92972 -2.77822,1.19384 -4.73784,1.19384 -4,0 z m -14.25,-5.63551 c 4.8125,-0.35552 8.75,-1.01885 8.75,-1.47406 0,-0.45521 0.71086,-0.55488 1.5797,-0.22147 1.25359,0.48105 1.51163,0.0101 1.25,-2.28139 l -0.3297,-2.88757 -19.5,0.37276 c -10.725,0.20502 -19.96143,0.73874 -20.52539,1.18604 -0.56397,0.4473 -3.03897,0.99876 -5.5,1.22546 -4.0798,0.37582 -4.01125,0.40352 0.7769,0.31397 7.425,-0.13888 5.99051,1.53062 -1.78852,2.08152 -3.55464,0.25174 -8.03799,0.84155 -9.96299,1.31069 -2.34274,0.57094 -0.77218,0.666 4.75,0.28749 6.36483,-0.43626 8.25,-0.2705 8.25,0.72543 0,1.30664 8.08198,1.14654 32.25,-0.63887 z m -44,-3.02677 c -0.6875,-0.27741 -1.8125,-0.27741 -2.5,0 -0.6875,0.27741 -0.125,0.50439 1.25,0.50439 1.375,0 1.9375,-0.22698 1.25,-0.50439 z m 3.25,-2.28035 4,-0.82737 -4.5,-0.0447 c -2.475,-0.0246 -5.4,0.34203 -6.5,0.81471 -1.82511,0.78428 -1.78139,0.86054 0.5,0.87209 1.375,0.007 4.3,-0.35966 6.5,-0.81472 z m -3.07138,-9.557371 c 3.10092,-9.71538 6.09417,-15.2891 10.86359,-20.22903 4.42469,-4.58289 4.49473,-6.82173 0.1054,-3.36909 -4.13844,3.2553 -7.27187,7.82267 -11.38705,16.59812 -4.76665,10.164651 -5.90844,14.826041 -3.51315,14.342541 1.11501,-0.22507 2.4632,-2.74316 3.93121,-7.342541 z m 48.1878,5.218521 c 1.18398,-1.18642 -1.35946,-14.294521 -3.64167,-18.768021 -2.36568,-4.63711 -7.74856,-8.46928 -13.77443,-9.80625 -3.87406,-0.85955 -4.53508,-0.71858 -6.67772,1.42406 -2.10159,2.10159 -2.74388,2.25051 -5.52495,1.28103 -2.89808,-1.01028 -3.42835,-0.83026 -6.70656,2.27682 -3.57974,3.39286 -9.19186,14.08327 -11.13066,21.202541 l -1.04267,3.82869 23.85939,-0.32869 c 13.12267,-0.18079 24.21034,-0.68037 24.63927,-1.11018 z m 4.04686,-4.158511 c -0.33471,-2.44199 -1.30248,-5.92949 -2.1506,-7.75 -0.84812,-1.8205 -1.29566,-2.44722 -0.99454,-1.39269 0.30113,1.05452 0.82184,4.54202 1.15714,7.75 0.3353,3.207971 1.05669,5.832681 1.6031,5.832681 0.60016,0 0.75254,-1.75774 0.3849,-4.439991 z m -11.25829,-23.70124 c -2.64056,-2.96803 -9.21893,-5.816775 -13.40499,-5.805005 -3.16588,0.0089 -3.32863,0.139807 -1.7049,1.371255 0.9873,0.74878 3.69421,1.64621 6.01535,1.99428 2.32114,0.34808 5.56335,1.51817 7.2049,2.6002 3.82957,2.52425 4.24681,2.48876 1.88964,-0.16073 z m -17.90499,-0.85877 c 0.78218,-1.2656 -0.54163,-1.2656 -2.5,0 -1.29269,0.8354 -1.26629,0.97149 0.19098,0.98469 0.93004,0.008 1.9691,-0.43469 2.30902,-0.98469 z m -2.08179,-2.60699 c 0.86999,-0.33384 1.58179,-0.94644 1.58179,-1.36133 0,-0.995887 -4.87389,-0.04476 -5.57379,1.08772 -0.62513,1.01148 1.66086,1.16816 3.992,0.27361 z m -0.91821,-4.39301 c 0.33992,-0.55 -0.0835,-1 -0.94098,-1 -0.85746,0 -1.55902,0.45 -1.55902,1 0,0.55 0.42344,1 0.94098,1 0.51754,0 1.2191,-0.45 1.55902,-1 z"
     id="path11098"
     inkscape:connector-curvature="0" />
</svg>
