<?xml version="1.0" encoding="UTF-8" standalone="no"?>
<!-- Created with Inkscape (http://www.inkscape.org/) -->

<svg
   xmlns:dc="http://purl.org/dc/elements/1.1/"
   xmlns:cc="http://creativecommons.org/ns#"
   xmlns:rdf="http://www.w3.org/1999/02/22-rdf-syntax-ns#"
   xmlns:svg="http://www.w3.org/2000/svg"
   xmlns="http://www.w3.org/2000/svg"
   xmlns:sodipodi="http://sodipodi.sourceforge.net/DTD/sodipodi-0.dtd"
   xmlns:inkscape="http://www.inkscape.org/namespaces/inkscape"
   id="svg11088"
   version="1.1"
   inkscape:version="0.48.4 r9939"
   width="500.07614"
   height="392.20969"
   sodipodi:docname="Lantern.svg">
  <metadata
     id="metadata11094">
    <rdf:RDF>
      <cc:Work
         rdf:about="">
        <dc:format>image/svg+xml</dc:format>
        <dc:type
           rdf:resource="http://purl.org/dc/dcmitype/StillImage" />
        <dc:title />
      </cc:Work>
    </rdf:RDF>
  </metadata>
  <defs
     id="defs11092">
    <filter
       inkscape:collect="always"
       id="filter11774"
       x="-0.3074092"
       width="1.6148185"
       y="-0.40858185"
       height="1.8171637"
       color-interpolation-filters="sRGB">
      <feGaussianBlur
         inkscape:collect="always"
         stdDeviation="4.930604"
         id="feGaussianBlur11776" />
    </filter>
    <filter
       id="filter11778"
       inkscape:label="Glow"
       width="1.55"
       height="1.5"
       x="-0.25"
       y="-0.25"
       inkscape:menu="Shadows and Glows"
       inkscape:menu-tooltip="Glow of object's own color at the edges"
       color-interpolation-filters="sRGB">
      <feGaussianBlur
         id="feGaussianBlur11780"
         in="SourceAlpha"
         stdDeviation="2.8209638554216863"
         result="blur" />
      <feColorMatrix
         id="feColorMatrix11782"
         result="bluralpha"
         type="matrix"
         values="-1 0 0 0 1 0 -1 0 0 1 0 0 -1 0 1 0 0 0 0.5 0 " />
      <feOffset
         id="feOffset11784"
         in="bluralpha"
         dx="4"
         dy="4"
         result="offsetBlur" />
      <feMerge
         id="feMerge11786"
         result="fbSourceGraphic">
        <feMergeNode
           id="feMergeNode11788"
           in="offsetBlur" />
        <feMergeNode
           id="feMergeNode11790"
           in="SourceGraphic" />
      </feMerge>
      <feColorMatrix
         result="fbSourceGraphicAlpha"
         in="fbSourceGraphic"
         values="0 0 0 -1 0 0 0 0 -1 0 0 0 0 -1 0 0 0 0 1 0"
         id="feColorMatrix11806" />
      <feGaussianBlur
         id="feGaussianBlur11808"
         stdDeviation="5"
         result="result91"
         in="fbSourceGraphic" />
      <feComposite
         id="feComposite11810"
         in2="result91"
         in="fbSourceGraphic"
         operator="over" />
    </filter>
    <filter
       inkscape:collect="always"
       id="filter11838"
       x="-0.67128706"
       width="2.3425741"
       y="-0.77633584"
       height="2.5526717"
       color-interpolation-filters="sRGB">
      <feGaussianBlur
         inkscape:collect="always"
         stdDeviation="43.939982"
         id="feGaussianBlur11840" />
    </filter>
  </defs>
  <sodipodi:namedview
     pagecolor="#ffffff"
     bordercolor="#666666"
     borderopacity="1"
     objecttolerance="10"
     gridtolerance="10"
     guidetolerance="10"
     inkscape:pageopacity="0"
     inkscape:pageshadow="2"
     inkscape:window-width="1254"
     inkscape:window-height="740"
     id="namedview11090"
     showgrid="false"
     inkscape:zoom="0.68192216"
     inkscape:cx="247.35479"
     inkscape:cy="196.56283"
     inkscape:window-x="3"
     inkscape:window-y="22"
     inkscape:window-maximized="0"
     inkscape:current-layer="svg11088"
     fit-margin-top="0"
     fit-margin-left="0"
     fit-margin-right="0"
     fit-margin-bottom="0" />
  <path
     style="fill:#895735;fill-opacity:1;stroke:none"
     d="m 1.0760838,213.698 5.2779419,8.79657 4.6915043,4.10507 35.186281,-20.52534 17.006701,-7.6237 9.383009,-3.51862 -10.555885,-19.93889 -5.277942,7.62369 -15.833825,8.79657 -23.457521,14.07451 z"
     id="path11100"
     inkscape:connector-curvature="0" />
  <path
     style="fill:#4b4b4b;fill-opacity:1;stroke:none"
     d="m 66.170703,179.68459 4.691504,10.55589 10.555883,-6.45082 58.05736,-32.84053 49.2608,-29.3219 66.26749,-37.532034 20.52532,-8.21013 9.52962,0.733048 2.49237,-4.251676 -2.63897,-7.037256 -16.42027,4.691504 -40.46423,18.179574 -57.47091,29.32191 -49.84724,31.66765 -37.532025,22.87108 z"
     id="path11610"
     inkscape:connector-curvature="0"
     sodipodi:nodetypes="cccccccccccccccc" />
  <path
     style="fill:#4b4b4b;fill-opacity:1;stroke:none"
     d="m 257.61212,122.74291 7.46413,-1.24403 -1.24402,-2.07337 5.80544,-15.34296 7.46414,-10.366854 4.97609,-7.464133 12.02555,-2.48804 14.09893,4.146734 9.53751,10.366858 3.73206,21.977735 6.22013,-0.41467 -4.9761,-16.58697 -10.78153,-17.830994 -9.12283,-4.146744 -12.02556,-1.658697 -8.70816,2.488046 -10.58029,9.679801 -11.39745,20.176748 z"
     id="path11612"
     inkscape:connector-curvature="0"
     sodipodi:nodetypes="ccccccccccccccccccc" />
  <path
     style="fill:#ff0000;fill-opacity:1;stroke:#000000;stroke-width:1px;stroke-linecap:butt;stroke-linejoin:miter;stroke-opacity:1;filter:url(#filter11778)"
     d="m 231.63991,114.05197 17.75745,1.29616 29.55256,-1.94424 15.03551,-1.16655 8.55469,3.75888 8.16584,7.9066 5.83274,5.70313 11.40625,16.97976 4.27734,10.88778 2.98118,14.64666 0.51847,13.48012 -2.07387,15.68359 -6.3512,15.42436 -13.22088,13.73935 -24.75675,12.57279 -4.40696,0.90732 -44.8473,-1.16655 -2.85157,-3.49964 -12.70241,-8.42507 -15.03551,-10.36932 -10.2397,-13.09127 -4.6662,-9.98047 -1.16655,-12.83203 2.07387,-15.29474 5.05504,-14.51705 6.48083,-11.14701 13.99857,-18.27593 z"
     id="path11614"
     inkscape:connector-curvature="0"
     transform="matrix(1.1311023,0,0,1.1311023,-3.6326836,3.0320555)" />
  <path
     style="fill:#f6ff00;fill-opacity:1;stroke:none;filter:url(#filter11774)"
     d="m 250.39515,197.48825 -4.03272,7.69882 0.36661,12.09816 9.16527,4.03272 18.69715,0.36661 7.33221,-2.93289 2.93289,-9.53188 0,-10.63171 -10.99832,-4.03272 -13.5646,-1.83305 z"
     id="path11768"
     inkscape:connector-curvature="0"
     transform="matrix(1.1311023,0,0,1.1311023,-3.6326836,3.0320555)" />
  <path
     style="fill:#f6ff00;fill-opacity:1;stroke:none;filter:url(#filter11838)"
     d="m 245.50887,234.20644 -32.92259,-12.44318 -20.73863,-17.62784 -9.07316,-25.1456 17.36861,-40.44034 10.88779,-12.70241 12.70241,-15.81321 31.88565,-0.7777 58.58665,-6.48082 25.66406,31.36718 -2.07386,56.25355 -5.44389,27.21947 -16.07244,12.44318 -47.1804,8.55468 z"
     id="path11812"
     inkscape:connector-curvature="0"
     transform="matrix(1.1311023,0,0,1.1311023,-3.6326836,3.0320555)" />
  <path
     style="fill:#ff0400;fill-opacity:1;stroke:#000000;stroke-width:1.13110232px;stroke-linecap:butt;stroke-linejoin:miter;stroke-opacity:1"
     d="m 266.73495,278.24576 1.6587,10.78153 14.5136,2.90272 31.92992,0 9.53751,-2.07337 0,-11.61088 -11.19621,0.82934 z"
     id="path11842"
     inkscape:connector-curvature="0" />
  <path
     style="fill:#ff0400;fill-opacity:1;stroke:#000000;stroke-width:1.13110232px;stroke-linecap:butt;stroke-linejoin:miter;stroke-opacity:1"
     d="m 256.78277,123.57225 0.82935,8.29348 18.24567,2.90273 29.85655,-3.3174 24.0511,-1.24402 -1.65869,-9.95219 -17.00164,0.41468 -34.0033,1.24403 z"
     id="path11844"
     inkscape:connector-curvature="0" />
  <path
     style="fill:#000000"
     d="m 280.50174,292.39623 c -5.91001,-0.38447 -11.50897,-1.02613 -12.44212,-1.42591 -1.24667,-0.53408 -1.69666,-2.58056 -1.69666,-7.71611 l 0,-6.98925 -8.5241,-5.15806 c -20.5123,-12.41234 -32.8909,-24.19761 -39.87112,-37.96005 -3.20506,-6.31918 -3.4447,-7.64356 -3.4795,-19.22874 -0.0437,-14.5442 1.53172,-22.73911 6.37554,-33.16449 7.32327,-15.7619 20.20528,-33.77677 30.3819,-42.48757 4.13493,-3.53935 4.59144,-4.4064 3.96613,-7.53295 -0.81205,-4.06024 4.17107,-20.02436 9.61966,-30.817968 3.60712,-7.145648 11.20731,-16.147402 14.52137,-17.199236 1.11966,-0.35537 2.29403,-1.6338 2.60971,-2.840953 0.4595,-1.757114 -0.16211,-2.332911 -3.11693,-2.88724 -4.61192,-0.865199 -15.33761,3.441306 -32.85898,13.19331 -6.83411,3.803705 -16.24312,8.838795 -20.90891,11.189097 -4.6658,2.35031 -14.94406,8.27525 -22.84059,13.16656 -34.20587,21.18792 -45.25131,27.78631 -58.03323,34.6682 -7.46528,4.01937 -20.44468,11.35212 -28.84311,16.29502 -8.39843,4.94289 -21.540699,12.22369 -29.205032,16.17956 -14.185148,7.32151 -14.278543,7.41862 -12.130712,12.61458 0.62145,1.50338 -0.156972,2.02376 -3.998103,2.67272 -2.62339,0.44321 -6.34863,1.46734 -8.278311,2.27583 -5.783413,2.42312 -42.799628,23.14661 -46.947705,26.28362 -3.563011,2.69455 -4.069903,2.78919 -6.7866143,1.26707 C 4.9935607,225.10079 0.02080043,216.58553 4.7031068e-5,213.06979 -0.00730297,211.83131 0.84723813,211.09036 2.2828219,211.09036 c 3.1761896,0 13.3496381,-5.23304 33.7083671,-17.33895 17.662602,-10.50273 26.694787,-17.1533 25.631832,-18.87318 -0.325618,-0.52687 -0.149164,-1.23165 0.39212,-1.56617 0.541285,-0.33454 1.556668,0.64828 2.256406,2.18404 0.699738,1.53576 1.87544,2.79229 2.612671,2.79229 1.939423,0 22.634305,-11.16345 33.206702,-17.9127 4.97685,-3.17715 14.64777,-9.15534 21.49094,-13.28487 6.84317,-4.12953 15.4961,-9.41718 19.22874,-11.75034 30.09112,-18.80906 63.28085,-36.780714 90.48819,-48.997795 6.22106,-2.793484 16.00468,-7.382993 21.74138,-10.198917 9.69306,-4.75795 18.01192,-8.196696 27.31915,-11.292847 3.46041,-1.151138 4.02309,-1.014393 6.0314,1.465776 1.38027,1.70455 2.04499,3.893401 1.76394,5.808359 -0.51616,3.516806 1.45044,4.881086 8.74807,6.068759 7.5348,1.226273 13.52024,4.511969 17.85424,9.801037 5.31967,6.491962 11.13041,18.955628 11.86154,25.442258 0.31586,2.80228 1.26673,5.36077 2.11302,5.68552 0.95542,0.36664 1.53871,2.3694 1.53871,5.28326 0,4.51738 0.20678,4.78765 5.53211,7.23069 9.06396,4.15817 19.26062,15.61439 30.44846,34.20968 3.94631,6.55915 5.5257,10.58537 8.01697,20.43702 4.62961,18.30756 2.25222,45.94517 -5.01956,58.35351 -1.53048,2.61158 -2.7827,5.54843 -2.7827,6.52634 0,0.97791 -0.38175,1.66531 -0.84833,1.52755 -0.46658,-0.13774 -3.90655,2.78899 -7.64437,6.50384 -4.7393,4.71017 -9.53174,8.05371 -15.83543,11.04787 -4.97167,2.36147 -10.31188,4.92316 -11.86715,5.69264 -2.38362,1.17932 -2.88095,2.31143 -3.16645,7.20813 -0.18628,3.19499 -0.99422,6.35312 -1.79542,7.01806 -0.80121,0.66494 -5.28079,1.74087 -9.95462,2.39094 -8.5005,1.1823 -14.70808,1.15453 -34.85201,-0.15593 z m 39.87136,-2.63552 c 2.71149,-0.75798 3.11053,-1.43423 3.11053,-5.27132 l 0,-4.40179 -5.37274,-0.0636 c -2.955,-0.0349 -14.28016,-0.25657 -25.16702,-0.49248 -11.4793,-0.24876 -18.60643,-0.0319 -16.96654,0.51634 1.55527,0.51991 4.73649,0.99602 7.06939,1.05803 2.3329,0.062 4.24164,0.67951 4.24164,1.37223 0,0.75603 -1.35641,1.06041 -3.39331,0.76145 -1.86632,-0.27392 -3.39331,-0.0771 -3.39331,0.43717 0,0.51437 1.30253,0.93521 2.89451,0.93521 1.59199,0 2.6252,0.43574 2.29606,0.96831 -0.32915,0.53258 -3.03142,0.85445 -6.00504,0.71527 -2.97362,-0.13918 -3.7417,-0.0346 -1.70682,0.23248 6.07279,0.79694 3.08604,2.32839 -3.38314,1.73469 -3.28468,-0.30145 -5.59863,-0.15159 -5.14212,0.33301 1.96642,2.08738 44.16447,3.05281 50.91791,1.16493 z m -42.96634,-7.07602 c -1.39119,-0.26848 -3.93617,-0.27543 -5.65551,-0.0154 -1.71934,0.25998 -0.5811,0.47965 2.52943,0.48815 3.11053,0.008 4.51727,-0.20424 3.12608,-0.47271 z m 39.12197,-10.79758 c 4.50397,-6.03827 8.086,-12.33652 8.086,-14.21756 0,-0.91542 -56.44705,-0.50307 -57.50655,0.42008 -0.77702,0.67701 7.98767,15.24003 9.81342,16.30555 1.03592,0.60457 1.37449,1.21787 0.75239,1.36289 -0.62211,0.14502 5.23134,0.56632 13.00767,0.93622 7.77633,0.36991 15.77653,0.77574 17.77823,0.90183 3.18153,0.20043 4.19673,-0.51785 8.06884,-5.70901 z m 6.50524,4.54857 c 3.00912,-1.37105 3.0157,-1.39783 0.48983,-1.99411 -2.1075,-0.49751 -1.68735,-0.8367 2.37586,-1.91801 4.35041,-1.15774 4.6756,-1.12245 2.74052,0.29745 -1.20759,0.8861 -1.77417,1.61108 -1.25905,1.61108 1.43054,0 19.85565,-9.11248 19.85565,-9.81998 0,-0.632 -10.70006,0.42656 -15.83543,1.56658 -2.01102,0.44644 -2.49667,0.27082 -1.68147,-0.60803 0.63047,-0.67968 5.9663,-1.78179 11.85738,-2.44914 9.13574,-1.03492 11.17181,-1.65477 13.84361,-4.21451 2.30001,-2.20355 2.75601,-3.2402 1.71585,-3.90063 -0.94464,-0.59979 -0.5687,-0.90527 1.12831,-0.91682 1.39974,-0.009 2.54498,-0.52631 2.54498,-1.14842 0,-1.41454 -2.87349,-1.43349 -9.84148,-0.0649 -2.98562,0.58641 -9.32999,1.38929 -14.0986,1.78418 l -8.6702,0.71796 -2.45073,6.03822 c -1.34791,3.32102 -4.19052,8.07077 -6.31691,10.55499 -2.12639,2.4842 -3.86618,4.81758 -3.86618,5.18526 0,1.14616 4.27598,0.73322 7.46806,-0.72119 z m 0.96789,-6.60458 c -0.31961,-0.51713 1.34179,-1.24976 3.69197,-1.62809 2.35018,-0.37834 5.54556,-0.94907 7.10082,-1.2683 1.83369,-0.37637 2.43013,-0.19655 1.69666,0.51154 -1.61869,1.56269 -11.79647,3.50611 -12.48945,2.38485 z m 15.3172,-9.94395 c 3.93377,-1.2855 14.71172,-2.52901 11.87658,-1.37027 -1.24422,0.50852 -5.06169,1.23276 -8.48327,1.60946 -3.82454,0.42104 -5.13173,0.3289 -3.39331,-0.23919 z m 3.48756,-4.0183 c 0.86049,-0.85006 11.12936,-1.12994 11.93405,-0.32527 0.43497,0.43498 -2.17829,0.79087 -5.80724,0.79087 -3.62895,0 -6.38601,-0.20951 -6.12681,-0.4656 z m -71.68777,14.88716 c -2.08652,-3.26606 -4.7067,-6.11447 -5.82262,-6.3298 -1.24749,-0.24072 -1.73381,0.086 -1.26267,0.84833 0.47981,0.77636 -0.42146,1.29742 -2.41103,1.39387 -3.02483,0.14664 -3.04161,0.17644 -0.34953,0.62102 5.34733,0.88306 6.46093,1.63134 3.95886,2.66016 -1.91948,0.78927 -1.74649,0.94224 1.14179,1.00969 2.19684,0.0514 3.94134,0.93991 4.91919,2.5057 1.32023,2.11402 1.28712,2.33868 -0.25725,1.74605 -0.97483,-0.37408 -2.07326,-0.19338 -2.44095,0.40156 -0.37021,0.59902 0.89025,1.0817 2.82468,1.0817 l 3.49321,0 -3.79368,-5.93828 z m -1.92813,2.54498 c 0,-0.62211 -0.79354,-1.13111 -1.76341,-1.13111 -0.96988,0 -1.44883,0.509 -1.06435,1.13111 0.38449,0.6221 1.17802,1.1311 1.76341,1.1311 0.58539,0 1.06435,-0.509 1.06435,-1.1311 z m -7.09295,-4.07669 c -0.37587,-0.37585 -1.35144,-0.41603 -2.16795,-0.0892 -0.90232,0.36107 -0.6343,0.62909 0.68338,0.68336 1.19236,0.0491 1.86042,-0.21822 1.48457,-0.59407 z m -2.8042,-4.63928 c -1.39974,-0.26961 -3.69022,-0.26961 -5.08996,0 -1.39974,0.26959 -0.2545,0.49018 2.54498,0.49018 2.79948,0 3.94472,-0.22059 2.54498,-0.49018 z m 6.2223,-4.68587 c -1.48554,-3.93564 -4.51485,-4.54359 -17.25055,-3.46197 -4.35474,0.36983 -6.36527,0.75252 -4.46785,0.85041 1.89742,0.0978 3.93341,0.65642 4.52441,1.2412 0.591,0.58479 3.61953,1.25654 6.73006,1.49278 l 5.65551,0.42953 -6.5706,0.20388 c -9.51367,0.29521 -7.06797,1.83926 3.57337,2.25599 l 9.07666,0.35546 -1.27101,-3.36728 z m -18.38165,-5.8269 c -5.10275,-1.29843 -9.85129,-1.29843 -9.04882,0 0.38449,0.6221 3.34126,1.07088 6.5706,0.99728 5.04301,-0.11495 5.3927,-0.25568 2.47822,-0.99728 z m 69.51092,0.17051 9.5625,-0.73607 2.17025,-8.81561 c 1.19364,-4.84859 1.94251,-9.04335 1.66415,-9.3217 -0.27834,-0.27834 -6.06352,0.0205 -12.85596,0.66407 -11.51382,1.09095 -26.50458,0.86915 -48.79165,-0.72189 l -9.27955,-0.66246 2.30115,7.73214 c 1.26564,4.25268 2.56659,8.59429 2.89102,9.64802 0.32442,1.05372 1.68321,2.12965 3.01954,2.39095 3.86853,0.75641 38.82017,0.63065 49.31855,-0.17745 z m -54.25618,-1.01884 c -0.0283,-1.58166 -5.23677,-17.22274 -5.98409,-17.97006 -0.40839,-0.4084 -5.46083,-1.1564 -11.22765,-1.66221 -5.76682,-0.50583 -13.66635,-1.22879 -17.55451,-1.60658 -4.08928,-0.39733 -7.06939,-0.24416 -7.06939,0.36337 0,0.57764 1.34814,0.79254 2.99586,0.47756 1.74566,-0.33369 2.71786,-0.12286 2.32966,0.50524 -0.37275,0.60314 1.40667,1.20025 4.03979,1.35562 7.42797,0.43829 6.4482,1.28775 -1.4853,1.28775 -9.15823,0 -7.66061,1.87482 2.10247,2.63204 3.93511,0.3052 7.49808,0.92473 7.91772,1.37673 0.41964,0.45199 -2.51105,0.53827 -6.51264,0.19172 -4.54488,-0.39359 -6.66755,-0.24528 -5.65551,0.39515 0.89106,0.56388 5.18308,1.12473 9.53783,1.24633 l 7.91772,0.2211 -8.48327,0.72354 c -4.6658,0.39796 -6.95628,0.83681 -5.08996,0.97525 1.86632,0.13844 6.19278,0.95034 9.61437,1.80423 l 6.22106,1.55254 -7.7017,0.0961 c -8.92245,0.11141 -9.22248,1.68848 -0.53196,2.79623 3.28431,0.41863 9.53443,1.46057 13.88917,2.31541 9.70606,1.90532 10.74947,1.99505 10.73033,0.92284 z m 91.98856,-3.08839 c 10.78608,-1.8118 12.27312,-2.78945 3.4101,-2.24196 l -6.59198,0.40719 7.16597,-1.3559 c 7.42687,-1.40524 10.1566,-3.598 12.02965,-9.6632 l 0.81893,-2.65181 -8.87618,0.80994 c -4.88189,0.44545 -8.48387,0.39815 -8.0044,-0.10519 0.47947,-0.50329 4.51102,-1.20143 8.95902,-1.55143 5.46193,-0.42979 8.25613,-1.14732 8.60745,-2.21034 0.39487,-1.19476 -0.26476,-1.41173 -2.73796,-0.90059 -1.79198,0.37033 -10.68616,1.5676 -19.76483,2.6606 l -16.50667,1.98724 -1.31685,6.26553 c -0.72427,3.44603 -1.64228,7.46994 -2.04005,8.942 l -0.7232,2.67647 8.36681,-0.79205 c 4.60173,-0.43565 12.34363,-1.46009 17.20419,-2.27655 z m 4.73583,-7.6927 c 3.11054,-0.75804 6.29176,-1.79005 7.06939,-2.29335 0.79857,-0.51684 1.41388,-0.42282 1.41388,0.21603 0,1.73892 -1.3175,2.21057 -7.9827,2.85779 l -6.15608,0.59778 5.65551,-1.37825 z m -3.3933,-2.89085 c 3.27169,-1.41995 12.84664,-2.68585 10.74547,-1.42065 -0.93316,0.56189 -4.24163,1.33232 -7.35217,1.71206 -3.60318,0.43987 -4.83458,0.33412 -3.3933,-0.29141 z m -121.87628,5.82285 c -1.08869,-0.2845 -2.87017,-0.2845 -3.95886,0 -1.08868,0.2845 -0.19794,0.51728 1.97943,0.51728 2.17737,0 3.06812,-0.23278 1.97943,-0.51728 z m 93.59872,-12.6477 c 3.38353,-0.83708 3.39623,-0.87114 4.41236,-11.82147 0.56048,-6.04009 0.77976,-11.22127 0.48729,-11.51376 -0.29248,-0.29246 -5.07752,0.0351 -10.63342,0.72785 -9.99461,1.24625 -55.17846,0.61397 -61.8496,-0.86549 -3.10344,-0.68825 -3.11053,-0.67547 -3.11053,5.60742 0,3.46349 0.55118,8.86729 1.22483,12.00844 0.99813,4.65408 1.67854,5.73505 3.67608,5.84013 32.4386,1.70648 58.93619,1.71328 65.79299,0.0169 z m 24.67949,-1.80121 c 10.79202,-1.92368 21.13015,-5.0824 21.13015,-6.45613 0,-0.96721 -4.57171,-0.6439 -17.81486,1.25987 -3.26606,0.46951 -5.93829,0.48677 -5.93829,0.0383 0,-0.95069 5.20889,-1.86562 16.68376,-2.93048 5.40463,-0.50155 8.2005,-1.24346 8.2005,-2.17611 0,-1.05628 -1.07556,-1.16535 -4.24164,-0.43012 -5.78801,1.34411 -10.7562,1.29786 -9.89714,-0.0921 0.38448,-0.62211 2.91787,-1.1311 5.62975,-1.1311 2.71189,0 5.73582,-0.30895 6.71986,-0.68657 2.10263,-0.80685 2.45072,-2.84223 0.37529,-2.19442 -2.57025,0.80228 -16.117,1.9372 -15.47639,1.29659 0.34544,-0.34544 4.54156,-1.21014 9.32472,-1.92154 10.85645,-1.6147 11.67751,-3.73928 1.06171,-2.74729 -4.19922,0.39239 -8.90743,0.97791 -10.4627,1.30116 -2.21273,0.45991 -2.53333,0.28821 -1.47409,-0.78942 0.74452,-0.75743 5.19823,-1.62388 9.89715,-1.92544 4.69892,-0.30155 8.54348,-1.05609 8.54348,-1.67673 0,-0.70966 -2.62371,-0.85194 -7.06939,-0.38338 -4.20792,0.44349 -6.46345,0.34035 -5.57237,-0.25482 0.98379,-0.6571 -0.85814,-1.21345 -5.37273,-1.62282 -7.28355,-0.66045 -20.24141,0.1468 -20.89924,1.302 -0.21558,0.37857 -0.75091,5.90552 -1.18961,12.28211 l -0.79765,11.5938 4.89784,-0.0395 c 2.69381,-0.0217 8.87765,-0.74887 13.74189,-1.61591 z m -95.95715,-2.0207 c -0.34477,-1.39974 -0.99072,-6.60945 -1.43543,-11.57714 l -0.80856,-9.03217 -9.04882,-0.32733 c -4.97685,-0.18004 -11.18295,-0.82377 -13.79133,-1.43054 -6.15414,-1.43157 -13.92068,-1.416 -13.92068,0.0279 0,0.62211 2.67223,1.21407 5.93829,1.31547 l 5.93828,0.18436 -6.22106,0.76238 c -3.42158,0.4193 -4.82132,0.84534 -3.11053,0.94673 1.71079,0.10146 3.11053,0.69336 3.11053,1.31547 0,0.62211 0.86078,1.1311 1.91284,1.1311 1.66798,0 1.63179,0.21258 -0.28277,1.66069 -2.05455,1.55397 -1.90493,1.67205 2.32879,1.83776 4.25742,0.16663 4.16371,0.22946 -1.58804,1.06474 -3.36186,0.48821 -6.79758,0.62475 -7.63495,0.30343 -0.83736,-0.32134 -1.52248,-0.0208 -1.52248,0.66788 0,0.68867 1.78148,1.25212 3.95886,1.25212 2.17737,0 3.95885,0.42084 3.95885,0.9352 0,0.51436 -1.52698,0.71109 -3.3933,0.43717 -2.14512,-0.31484 -3.39331,-0.003 -3.39331,0.84531 0,0.89712 1.86983,1.2441 5.62911,1.04457 3.09602,-0.16432 5.98033,0.0525 6.40959,0.4817 0.42925,0.42925 -2.2311,0.85269 -5.91189,0.94097 -6.23738,0.14959 -6.38476,0.21205 -2.16795,0.91858 4.49485,0.75311 4.50224,0.76266 1.1311,1.46032 -1.86632,0.38624 0.26643,0.48115 4.73944,0.21092 5.07052,-0.30633 8.41395,-0.0363 8.87955,0.71703 0.41074,0.66459 0.0595,1.114 -0.78058,0.99868 -0.84006,-0.11531 -2.79988,-0.084 -4.35514,0.0693 -4.81628,0.47526 10.15202,3.12617 18.40196,3.25901 7.39711,0.11912 7.63526,0.0371 7.02963,-2.42169 z m -33.65564,0.7305 c -0.37587,-0.37586 -1.35145,-0.41603 -2.16795,-0.0892 -0.90232,0.36108 -0.6343,0.6291 0.68337,0.68337 1.19237,0.0491 1.86043,-0.21822 1.48458,-0.59408 z M 17.316652,221.43934 c 8.571797,-5.84524 44.222208,-24.80704 49.08354,-26.10663 4.500929,-1.20324 4.705464,-1.43552 3.667721,-4.16499 -1.180687,-3.10543 -6.723433,-12.87933 -7.303833,-12.87933 -0.19308,0 -2.507711,1.80183 -5.143626,4.00408 -2.635914,2.20224 -8.410278,6.0995 -12.831919,8.66057 -4.42164,2.56107 -11.093323,6.55369 -14.825961,8.87251 -3.732638,2.31882 -11.11308,6.43825 -16.400984,9.15429 -5.2879033,2.71605 -9.8101313,5.0492 -10.0493945,5.18479 -0.8447412,0.47867 2.5043386,7.69026 4.2191312,9.08508 2.5750593,2.09455 4.3507333,1.75919 9.5853253,-1.81037 z m -9.2199683,-1.88031 c -1.3847297,-1.7604 -2.1213454,-3.5745 -1.6369237,-4.03134 2.2780797,-2.14834 35.586603,-20.27277 37.256704,-20.27277 0.211689,0 0.384889,0.39325 0.384889,0.87389 0,0.48063 -1.908735,1.84972 -4.241633,3.0424 -9.925401,5.0743 -27.015209,14.70125 -28.839116,16.2455 -1.4720653,1.24635 -1.6609823,2.05144 -0.741391,3.15947 0.678723,0.81781 1.031795,2.09367 0.784602,2.83526 -0.261302,0.78391 -1.5033563,0.008 -2.9671313,-1.85241 z m 212.7609363,-4.6862 c -0.76579,-0.30983 -2.29278,-0.32869 -3.39331,-0.042 -1.10053,0.28678 -0.47397,0.54028 1.39235,0.56333 1.86632,0.0231 2.76675,-0.21158 2.00096,-0.52143 z m 0.52046,-3.33475 c -0.37586,-0.37585 -1.35144,-0.41603 -2.16795,-0.0892 -0.90231,0.36107 -0.6343,0.62909 0.68338,0.68336 1.19236,0.0491 1.86043,-0.21822 1.48457,-0.59407 z m 108.60939,-4.44264 c 2.25198,-0.702 2.54498,-1.54172 2.54498,-7.29364 0,-5.55263 -1.70104,-18.03846 -2.55297,-18.7391 -0.15113,-0.1243 -8.16423,0.45167 -17.80687,1.27994 -9.64265,0.82827 -25.73076,1.52739 -35.75137,1.5536 l -18.21928,0.0476 -0.72668,6.95253 c -0.39967,3.8239 -0.72669,8.8441 -0.72669,11.15602 l 0,4.20348 10.4627,1.18326 c 11.09869,1.25517 58.47918,0.99573 62.77618,-0.34376 z m 44.39577,-1.66059 c 0,-2.441 -1.58739,-2.66463 -7.35217,-1.03576 -3.03929,0.85877 -2.93147,0.9081 1.03348,0.47279 4.74631,-0.52108 4.35864,1.14393 -0.46793,2.0098 -1.81122,0.32494 -1.09966,0.56267 1.97943,0.66134 4.10447,0.13151 4.80719,-0.17666 4.80719,-2.10817 z m -22.78442,-1.15108 c 13.23507,-1.48401 21.41974,-3.21143 22.35033,-4.71716 0.43471,-0.70337 -0.1184,-0.9182 -1.4037,-0.54522 -4.71118,1.36716 -17.58363,1.98477 -16.85684,0.8088 0.40178,-0.65008 4.13618,-1.18975 8.29869,-1.19928 9.12771,-0.0209 10.9696,-0.93633 9.96193,-4.95124 -0.80523,-3.20826 -1.20265,-3.29986 -8.33204,-1.92067 -2.64395,0.51148 -4.80718,0.53707 -4.80718,0.0569 0,-0.48019 2.54498,-1.22311 5.65551,-1.65091 3.73654,-0.51391 5.65551,-1.31751 5.65551,-2.36835 0,-1.7832 -0.5905,-1.8237 -8.24078,-0.56519 -2.97716,0.48976 -5.63656,0.5288 -5.90976,0.0868 -0.2732,-0.44205 2.04754,-1.10506 5.1572,-1.47334 7.45962,-0.88349 8.14376,-1.42146 7.22908,-5.6847 -1.59086,-7.41495 -1.8018,-7.5219 -10.36931,-5.25725 -4.21339,1.11373 -11.91957,2.81487 -17.12483,3.78033 -5.20526,0.96546 -9.65028,1.94153 -9.8778,2.16907 -0.22753,0.22753 0.0867,2.1581 0.69806,4.29016 0.61148,2.13206 1.11176,7.81184 1.11176,12.62172 l 0,8.74523 3.11054,-0.5195 c 1.71079,-0.28571 7.87292,-1.05347 13.69363,-1.70613 z m 5.81788,-9.02885 c 0.93316,-0.60305 5.00513,-1.03624 9.04882,-0.96264 l 7.35216,0.13381 -5.65551,0.88088 c -8.44929,1.31602 -12.82958,1.29481 -10.74547,-0.052 z m 5.37274,-13.19123 c 0.77763,-0.31378 2.05012,-0.31378 2.82775,0 0.77764,0.31378 0.14139,0.57052 -1.41388,0.57052 -1.55526,0 -2.19151,-0.25674 -1.41387,-0.57052 z m -7.33064,-2.29694 c 1.10052,-0.28678 2.62751,-0.26792 3.3933,0.0419 0.76579,0.30984 -0.13463,0.54448 -2.00095,0.52143 -1.86632,-0.0231 -2.49288,-0.27656 -1.39235,-0.56334 z m 7.34383,-1.14724 c 1.40698,-0.27055 3.44297,-0.26028 4.5244,0.0229 1.08144,0.2831 -0.0698,0.50447 -2.55816,0.49191 -2.48843,-0.0126 -3.37323,-0.24419 -1.96624,-0.51474 z m -2.81942,27.2045 c -0.76579,-0.30983 -2.29278,-0.32868 -3.39331,-0.042 -1.10053,0.28678 -0.47397,0.54028 1.39235,0.56333 1.86632,0.0231 2.76675,-0.21158 2.00096,-0.52142 z m -105.48699,-5.7619 c 0.006,-2.95501 0.3308,-8.04497 0.7231,-11.31102 l 0.71327,-5.93829 -6.66139,-0.027 c -3.66376,-0.0148 -8.69737,-0.52213 -11.1858,-1.12732 -2.48842,-0.60518 -7.32388,-0.74931 -10.74547,-0.32027 -5.54836,0.69572 -5.85413,0.8643 -2.82775,1.55904 1.86631,0.42845 5.64137,0.83921 8.38901,0.91282 7.52213,0.2015 5.01225,1.14655 -3.68017,1.38568 -6.16258,0.16955 -7.852,0.61729 -8.76485,2.32298 -0.62196,1.16213 -0.72729,2.04543 -0.23406,1.96287 0.49322,-0.0826 4.20523,-0.0255 8.24892,0.12695 l 7.35217,0.27701 -7.91772,1.0016 c -10.81772,1.36844 -11.46591,1.8764 -2.82775,2.21599 l 7.35216,0.28904 -7.91771,0.73163 c -4.35475,0.40239 -6.26348,0.8215 -4.24164,0.93136 2.02185,0.10983 3.67608,0.67801 3.67608,1.26256 0,0.58455 1.90874,1.26249 4.24164,1.50651 3.44641,0.36051 3.11581,0.47934 -1.76341,0.63384 -3.75897,0.11901 -5.74357,-0.23293 -5.30598,-0.94097 0.76882,-1.24398 -2.00231,-1.57951 -3.19498,-0.38684 -1.62559,1.62558 2.03217,3.7811 6.444,3.79747 3.20143,0.0119 4.1643,0.33658 3.06378,1.03315 -1.12945,0.71489 0.0434,1.23876 3.95886,1.76829 3.06008,0.41386 6.07277,0.92676 6.69487,1.13977 0.62211,0.21301 4.56683,0.42747 8.76605,0.47658 l 7.63494,0.0894 0.0102,-5.37274 z m -32.24625,-12.7249 c -0.82684,-1.33785 0.27997,-1.33785 3.39331,0 2.18103,0.93722 2.17328,0.97495 -0.21602,1.05159 -1.36302,0.0438 -2.7928,-0.42949 -3.17729,-1.05159 z m -2.00299,16.28315 c -0.37586,-0.37585 -1.35144,-0.41603 -2.16795,-0.0892 -0.90231,0.36107 -0.6343,0.6291 0.68338,0.68337 1.19236,0.0491 1.86042,-0.21823 1.48457,-0.59408 z M 92.173203,176.04167 c 8.902747,-4.74153 41.156987,-22.84784 63.341727,-35.55763 6.22107,-3.5641 21.99994,-13.05197 35.06418,-21.08416 13.06423,-8.03221 30.62459,-18.24772 39.02303,-22.701139 8.39843,-4.45341 17.1375,-9.275865 19.42014,-10.71655 2.28264,-1.440685 9.09992,-4.734145 15.1495,-7.318807 9.19716,-3.929462 11.79564,-4.590223 15.86033,-4.033095 4.14454,0.568072 4.96351,0.343648 5.55579,-1.522443 0.70041,-2.206797 -1.06021,-6.79859 -2.60677,-6.79859 -1.78447,0 -19.01329,7.050679 -29.97917,12.2686 -6.33779,3.015725 -16.86771,7.973506 -23.39982,11.017302 -26.83088,12.502462 -64.28723,32.861642 -88.22599,47.954722 -29.15633,18.38269 -58.024822,35.7849 -65.968548,39.7665 -3.843152,1.92627 -7.183745,3.68061 -7.423541,3.89852 -0.239796,0.21791 0.407096,1.68291 1.43754,3.25557 l 1.873532,2.85937 5.914625,-3.23442 c 3.253045,-1.77893 9.986595,-5.40311 14.963445,-8.05375 z m -21.901159,7.52385 c -1.040445,-1.25366 -0.165318,-2.14432 4.469806,-4.5491 6.410425,-3.32585 6.685881,-3.4081 6.685881,-1.99636 0,0.54663 -1.54726,1.63477 -3.438356,2.41809 -1.891096,0.78332 -4.110033,2.38317 -4.930973,3.55523 -1.246589,1.77975 -1.705863,1.87405 -2.786358,0.57214 z m 242.748886,-3.20765 c 9.83328,-0.82616 16.11821,-1.82537 16.11821,-2.56255 0,-1.39002 -6.5503,-24.58734 -7.03262,-24.9054 -0.17575,-0.11591 -4.90051,0.16256 -10.49946,0.6188 -5.59896,0.45625 -17.6638,0.87385 -26.81076,0.92803 l -16.63082,0.0985 -2.31171,5.22598 c -3.32413,7.51476 -6.94589,19.70777 -6.20838,20.9011 0.90992,1.47226 34.5095,1.28062 53.37554,-0.30445 z m -86.52933,-0.55638 c -0.77763,-0.31378 -2.05012,-0.31378 -2.82775,0 -0.77763,0.31378 -0.14139,0.57051 1.41388,0.57051 1.55526,0 2.19151,-0.25673 1.41387,-0.57051 z m 30.86352,-2.92698 c 0.43246,-2.02184 2.469,-7.8753 4.52566,-13.00768 3.21907,-8.03318 3.47628,-9.34453 1.84857,-9.4246 -1.03994,-0.0511 -3.16329,-0.26279 -4.71855,-0.47029 -7.73019,-1.03136 -17.28131,-1.40381 -14.70433,-0.57341 2.52789,0.81458 2.37795,0.92317 -1.41388,1.02396 -2.3329,0.062 -4.24164,0.53637 -4.24164,1.05413 0,0.51776 2.79948,0.70924 6.22107,0.42549 4.0129,-0.33278 6.22106,-0.083 6.22106,0.70359 0,0.71844 -3.13695,1.3569 -7.63494,1.55394 -7.49345,0.32826 -9.84208,1.97254 -4.59117,3.21429 2.33695,0.55265 2.39374,0.70141 0.5398,1.41388 -1.13956,0.43794 -3.43005,0.88182 -5.08996,0.9864 -1.65991,0.10463 0.036,0.52801 3.76859,0.94095 l 6.78662,0.7508 -7.35217,0.33905 c -6.41385,0.29579 -6.84691,0.44541 -3.3933,1.17236 l 3.95885,0.8333 -4.24163,0.1489 c -2.3329,0.0819 -4.24163,0.64192 -4.24163,1.24451 0,0.60257 0.66947,0.8387 1.48771,0.5247 0.81825,-0.31399 2.72699,-0.0758 4.24164,0.52936 2.38916,0.95451 2.00483,1.13014 -2.9016,1.32598 -3.11053,0.12415 -4.51027,0.44631 -3.11053,0.71591 1.39974,0.26961 2.54498,0.96378 2.54498,1.54262 0,0.57884 1.39974,1.138 3.11053,1.24258 1.71079,0.10463 0.0566,0.50057 -3.67608,0.87997 l -6.78661,0.68982 7.91771,0.95263 c 4.35475,0.52395 8.68121,1.38496 9.61437,1.91339 0.93316,0.52842 4.58295,0.97624 8.11062,0.99516 6.33052,0.0339 6.42419,-0.0135 7.20024,-3.64169 z M 240.06483,159.3806 c 1.71079,-0.25917 4.51027,-0.25917 6.22107,0 1.71079,0.25916 0.31105,0.47121 -3.11054,0.47121 -3.42158,0 -4.82132,-0.21205 -3.11053,-0.47121 z m 102.64754,17.31909 c 4.3721,-0.8618 7.23755,-1.97971 7.06939,-2.75801 -0.17435,-0.80698 1.34357,-1.31358 3.95886,-1.32126 2.3329,-0.007 6.13065,-0.32474 8.43946,-0.70643 l 4.19782,-0.69398 -1.68189,-3.25243 c -0.92504,-1.78883 -2.16184,-3.25242 -2.74845,-3.25242 -0.5866,0 -0.84742,-0.63624 -0.57961,-1.41388 0.26782,-0.77763 -0.95047,-3.42367 -2.70731,-5.8801 -2.98379,-4.17195 -3.55853,-4.46336 -8.72294,-4.42295 -5.29635,0.0415 -5.32667,0.0246 -0.72149,-0.40293 4.94952,-0.45942 5.73149,-1.20773 3.54595,-3.39326 -0.92759,-0.92759 -2.47041,-0.83462 -5.83195,0.35141 -5.07112,1.78919 -7.454,1.20174 -2.60442,-0.64207 1.68204,-0.63952 3.53411,-1.16275 4.11573,-1.16275 1.27414,0 1.40832,-1.91186 0.18714,-2.66659 -0.47867,-0.29584 -3.6599,0.48471 -7.06939,1.73456 -3.40948,1.24984 -8.48955,2.90529 -11.28903,3.67878 -4.01553,1.10949 -5.01611,1.86337 -4.74011,3.57144 0.29772,1.84251 5.0061,18.47117 6.45795,22.80769 0.56831,1.69747 1.285,1.68578 10.72429,-0.17482 z m 5.65551,-7.40466 c 2.82595,-0.96045 9.84524,-1.56086 8.95457,-0.76594 -0.25922,0.23135 -3.01628,0.71456 -6.12681,1.07381 -3.81399,0.44051 -4.73475,0.34026 -2.82776,-0.30787 z m 12.23005,-1.95923 c 0.8165,-0.32674 1.79209,-0.28656 2.16795,0.0892 0.37585,0.37587 -0.29221,0.64319 -1.48458,0.59408 -1.31767,-0.0543 -1.58569,-0.32229 -0.68337,-0.68336 z m -6.27024,-2.27338 c 1.10053,-0.28678 2.62752,-0.26792 3.39331,0.0419 0.76579,0.30984 -0.13463,0.54448 -2.00095,0.52143 -1.86632,-0.0231 -2.49288,-0.27656 -1.39236,-0.56334 z m -3.6976,-3.89742 c 0,-0.53583 1.27249,-0.97425 2.82775,-0.97425 1.55527,0 2.82776,0.19516 2.82776,0.43369 0,0.23854 -1.27249,0.67694 -2.82776,0.97425 -1.55526,0.29731 -2.82775,0.10214 -2.82775,-0.43369 z m -3.11054,-4.04661 c 1.7108,-0.25916 4.51028,-0.25916 6.22107,0 1.71079,0.25916 0.31105,0.47121 -3.11053,0.47121 -3.42159,0 -4.82133,-0.21205 -3.11054,-0.47121 z m -117.63464,17.02759 c -0.77763,-0.31378 -2.05012,-0.31378 -2.82775,0 -0.77764,0.31377 -0.14139,0.57051 1.41387,0.57051 1.55527,0 2.19151,-0.25674 1.41388,-0.57051 z m 42.56291,-30.03601 c 3.12294,-4.48967 5.57639,-8.25374 5.45211,-8.36458 -0.86191,-0.76873 -14.11257,-1.33061 -17.00932,-0.72126 l -3.57647,0.75233 3.39331,0.7623 c 3.27232,0.73511 3.232,0.7734 -1.1311,1.07382 l -4.52441,0.31153 5.65551,0.7757 5.65551,0.7757 -7.35216,0.3266 c -6.40064,0.28433 -6.8398,0.43445 -3.39331,1.1599 2.17737,0.45832 3.44986,0.90811 2.82776,0.99952 -0.62211,0.0914 -0.36761,0.68746 0.56555,1.32452 1.26879,0.8662 0.55568,1.09224 -2.82776,0.89632 -2.48842,-0.14408 -5.5424,0.36918 -6.78661,1.1406 -2.22131,1.37721 -2.21916,1.39093 0.11884,0.75882 1.30958,-0.35406 3.60006,-0.15614 5.08996,0.43985 2.27127,0.90854 1.70386,1.11924 -3.51215,1.30419 -5.72659,0.20306 -5.9064,0.28683 -2.2622,1.0539 2.17737,0.45832 3.19536,0.98588 2.2622,1.17235 -1.41211,0.28219 3.4176,0.99413 13.77662,2.03081 1.19035,0.11912 4.0209,-2.85888 7.57812,-7.97292 z m 48.0485,5.9473 c 1.50856,-1.50856 -1.12703,-7.06337 -6.19378,-13.05412 l -3.82659,-4.52441 -14.34122,1.14504 c -7.88767,0.62977 -14.56111,1.39326 -14.82985,1.69666 -2.69685,3.04455 -10.98306,15.21021 -10.98306,16.1251 0,1.57452 48.55517,0.23106 50.1745,-1.38827 z m 15.7479,-3.54462 c 10.49783,-3.53289 11.29003,-4.35575 3.64039,-3.78133 -7.25027,0.54443 -7.31054,0.0149 -0.13545,-1.19003 2.92405,-0.49105 4.01169,-1.11435 3.25861,-1.86742 -0.73507,-0.73507 -3.14855,-0.76353 -6.90164,-0.0814 -3.1742,0.57693 -5.52864,0.65639 -5.2321,0.17656 0.29655,-0.47981 2.62932,-1.22552 5.18395,-1.65712 l 4.64478,-0.78473 -3.23683,-2.20106 c -2.45145,-1.66701 -4.41739,-2.05269 -8.10233,-1.58954 -3.06268,0.38493 -4.60961,0.19747 -4.17488,-0.50594 0.42003,-0.67958 -1.55141,-1.11741 -5.03164,-1.11741 -3.14725,0 -5.72227,0.30827 -5.72227,0.68504 0,0.37679 1.21867,2.13336 2.70815,3.90352 1.4895,1.77015 3.65273,5.26622 4.80719,7.76903 2.49393,5.40673 4.12817,5.66303 14.29407,2.24187 z m -9.57936,-2.93 c 0.8165,-0.32675 1.79209,-0.28656 2.16795,0.0894 0.37585,0.37585 -0.29221,0.64319 -1.48458,0.59408 -1.31767,-0.0543 -1.58569,-0.32231 -0.68337,-0.68338 z m 4.17094,-7.14505 c 0.38448,-0.6221 2.06876,-1.09532 3.74284,-1.05161 2.71783,0.071 2.80152,0.1836 0.78156,1.05161 -3.14245,1.35036 -5.35898,1.35036 -4.5244,0 z m -16.11821,-6.37434 c 5.44343,-0.40213 9.89714,-1.15242 9.89714,-1.66731 0,-0.51489 0.80406,-0.62762 1.7868,-0.2505 1.41794,0.54411 1.70981,0.0114 1.41388,-2.58049 l -0.37292,-3.26614 -22.0565,0.42163 c -12.13107,0.2319 -22.57842,0.83559 -23.21631,1.34154 -0.63791,0.50594 -3.43739,1.1297 -6.22107,1.38612 -4.61467,0.42509 -4.53713,0.45642 0.87876,0.35513 8.39843,-0.15709 6.77588,1.73129 -2.023,2.35441 -4.02066,0.28474 -9.09179,0.95188 -11.26916,1.48252 -2.64988,0.6458 -0.87342,0.75332 5.37273,0.32519 7.19928,-0.49346 9.3316,-0.30597 9.3316,0.82053 0,1.47794 9.14154,1.29686 36.47805,-0.72263 z m -49.76851,-3.42358 c -0.77763,-0.31378 -2.05012,-0.31378 -2.82775,0 -0.77763,0.31378 -0.14139,0.57051 1.41388,0.57051 1.55526,0 2.19151,-0.25673 1.41387,-0.57051 z m 3.67609,-2.57931 4.52441,-0.93584 -5.08996,-0.0506 c -2.79948,-0.0278 -6.10796,0.38687 -7.35217,0.92152 -2.06439,0.8871 -2.01493,0.97336 0.56555,0.98642 1.55527,0.008 4.86374,-0.40681 7.35217,-0.92153 z M 265.15112,113.25 c 3.50746,-10.98909 6.89313,-17.293534 12.28783,-22.8811 5.00478,-5.183718 5.084,-7.716075 0.11922,-3.810786 -4.681,3.682078 -8.22523,8.848241 -12.87992,18.774176 -5.39157,11.49726 -6.68305,16.76977 -3.97373,16.22288 1.26119,-0.25458 2.78613,-3.1028 4.4466,-8.30517 z m 54.50533,5.90268 c 1.33921,-1.34196 -1.53768,-16.16856 -4.1191,-21.228548 -2.67582,-5.245046 -8.76441,-9.579622 -15.58029,-11.091872 -4.38195,-0.972239 -5.12964,-0.812788 -7.55318,1.610757 -2.37711,2.377114 -3.10361,2.545557 -6.24929,1.448976 -3.27802,-1.14273 -3.87781,-0.939109 -7.5858,2.575317 -4.04905,3.837672 -10.39694,15.92962 -12.58992,23.98224 l -1.17936,4.33064 26.98741,-0.37178 c 14.84308,-0.20449 27.38437,-0.76957 27.86953,-1.25573 z m 4.57742,-4.7037 c -0.37859,-2.76214 -1.47324,-6.70686 -2.43255,-8.76604 -0.95931,-2.05917 -1.46552,-2.76806 -1.12493,-1.57528 0.34061,1.19278 0.92959,5.13749 1.30885,8.76605 0.37925,3.62854 1.19522,6.59736 1.81327,6.59736 0.67884,0 0.8512,-1.98819 0.43536,-5.02209 z M 311.49959,87.640455 c -2.98674,-3.357146 -10.42755,-6.579368 -15.16242,-6.566055 -3.58093,0.01007 -3.76502,0.158136 -1.92841,1.55103 1.11673,0.846947 4.17853,1.862032 6.80397,2.255735 2.62545,0.393714 6.29272,1.717205 8.14948,2.941092 4.33164,2.855185 4.80358,2.815042 2.13738,-0.181802 z m -20.25238,-0.971357 c 0.88473,-1.431523 -0.61264,-1.431523 -2.82775,0 -1.46217,0.944923 -1.43231,1.098855 0.21602,1.113785 1.05197,0.009 2.22725,-0.491678 2.61173,-1.113785 z m -2.35471,-2.948772 c 0.98404,-0.377607 1.78916,-1.070521 1.78916,-1.539804 0,-1.12645 -5.51287,-0.05063 -6.30452,1.230323 -0.70709,1.144087 1.8786,1.321308 4.51536,0.309481 z m -1.03859,-4.968944 c 0.38448,-0.622106 -0.0944,-1.131102 -1.06435,-1.131102 -0.96987,0 -1.76341,0.508996 -1.76341,1.131102 0,0.622106 0.47895,1.131102 1.06435,1.131102 0.58539,0 1.37892,-0.508996 1.76341,-1.131102 z"
     id="path11098"
     inkscape:connector-curvature="0" />
</svg>
