<?xml version="1.0" encoding="UTF-8" standalone="no"?>
<!-- Created with Inkscape (http://www.inkscape.org/) -->

<svg
   xmlns:dc="http://purl.org/dc/elements/1.1/"
   xmlns:cc="http://creativecommons.org/ns#"
   xmlns:rdf="http://www.w3.org/1999/02/22-rdf-syntax-ns#"
   xmlns:svg="http://www.w3.org/2000/svg"
   xmlns="http://www.w3.org/2000/svg"
   xmlns:sodipodi="http://sodipodi.sourceforge.net/DTD/sodipodi-0.dtd"
   xmlns:inkscape="http://www.inkscape.org/namespaces/inkscape"
   id="svg9005"
   version="1.1"
   inkscape:version="0.48.2 r9819"
   width="330"
   height="308"
   sodipodi:docname="LightArmor.png">
  <metadata
     id="metadata9011">
    <rdf:RDF>
      <cc:Work
         rdf:about="">
        <dc:format>image/svg+xml</dc:format>
        <dc:type
           rdf:resource="http://purl.org/dc/dcmitype/StillImage" />
        <dc:title></dc:title>
      </cc:Work>
    </rdf:RDF>
  </metadata>
  <defs
     id="defs9009" />
  <sodipodi:namedview
     pagecolor="#ffffff"
     bordercolor="#666666"
     borderopacity="1"
     objecttolerance="10"
     gridtolerance="10"
     guidetolerance="10"
     inkscape:pageopacity="0"
     inkscape:pageshadow="2"
     inkscape:window-width="1277"
     inkscape:window-height="753"
     id="namedview9007"
     showgrid="false"
     inkscape:zoom="1.0836182"
     inkscape:cx="172.81823"
     inkscape:cy="143.13712"
     inkscape:window-x="1"
     inkscape:window-y="0"
     inkscape:window-maximized="0"
     inkscape:current-layer="svg9005" />
  <path
     style="fill:#7b4a19;stroke:#000000;stroke-width:1px;stroke-linecap:butt;stroke-linejoin:miter;stroke-opacity:1;fill-opacity:1"
     d="m 216.40464,18.691455 -11.07401,37.605497 0,6.921257 3.69133,6.229131 9.68976,4.152754 7.84409,-1.153543 5.07559,-4.614171 17.07244,-32.529908 5.07559,-18.225977 -8.76693,0.692126 -26.53149,-1.384252 z"
     id="path9537"
     inkscape:connector-curvature="0" />
  <path
     style="fill:#ffeb00;stroke:none;stroke-width:1px;stroke-linecap:butt;stroke-linejoin:miter;stroke-opacity:1;fill-opacity:1"
     d="m 215.33898,60.360169 0.97882,5.54661 3.58898,0.326272 2.2839,-3.262712 0,-2.936441 -2.93644,-1.631356 z"
     id="path9021"
     inkscape:connector-curvature="0" />
  <path
     style="fill:#7b4a19;stroke:none;stroke-width:1px;stroke-linecap:butt;stroke-linejoin:miter;stroke-opacity:0.75221241000000005;fill-opacity:1"
     d="m 91.591302,17.768621 38.066918,-3.460629 4.38346,1.61496 1.15354,32.529908 -5.537,15.918891 -11.99685,3.460629 -8.53622,-4.152754 -13.150385,-22.60944 -3.460629,-19.148811 0.230709,-4.614172"
     id="path9535"
     inkscape:connector-curvature="0" />
  <path
     style="fill:#ffeb00;stroke:#000000;stroke-width:1px;stroke-linecap:butt;stroke-linejoin:miter;stroke-opacity:1;fill-opacity:1"
     d="m 121.58342,56.52766 2.07637,1.61496 1.15355,-3.922046 -2.76851,-1.153542 z"
     id="path9531"
     inkscape:connector-curvature="0" />
  <path
     style="fill:#ffeb00;stroke:none;stroke-width:1px;stroke-linecap:butt;stroke-linejoin:miter;stroke-opacity:1;fill-opacity:1"
     d="m 160.34246,162.19218 0.2307,2.76851 9.68976,1.84567 -2.07637,14.07322 -10.84331,1.61496 c 0,0 0.46142,5.07559 0.46142,3.92204 0,-1.15354 11.76614,0 11.76614,0 l 4.38346,-3.69133 0.46142,-20.99448 -5.53701,-1.38425 z"
     id="path9533"
     inkscape:connector-curvature="0" />
  <path
     style="fill:#9f7c36;stroke:none;stroke-width:1px;stroke-linecap:butt;stroke-linejoin:miter;stroke-opacity:1;fill-opacity:1"
     d="m 120.0678,130.83475 27.73305,-12.72458 35.23729,-23.491526 21.20762,-26.427966 1.63136,-1.957627 7.50424,8.48305 -11.09322,11.419492 -17.29238,16.639827 -20.22881,14.35594 -18.92373,12.3983 -12.3983,5.87288 -10.76695,4.24153 -2.2839,0.97881 -3.91526,-9.46186 z"
     id="path9539"
     inkscape:connector-curvature="0" />
  <path
     style="fill:#9f7c36;stroke:none;stroke-width:1px;stroke-linecap:butt;stroke-linejoin:miter;stroke-opacity:1;fill-opacity:1"
     d="m 126.91949,68.516949 6.19915,-8.809322 4.24153,2.610169 5.54661,9.135594 28.71186,28.71186 -6.52542,4.5678 -19.25,-15.987288 z"
     id="path9541"
     inkscape:connector-curvature="0" />
  <path
     style="fill:#9f7c36;stroke:none;stroke-width:1px;stroke-linecap:butt;stroke-linejoin:miter;stroke-opacity:1;fill-opacity:1"
     d="m 174.55508,113.86864 5.87289,-4.56779 6.52542,7.50423 9.13559,2.61017 15.00848,9.78814 17.94491,4.5678 2.93644,0.65254 -3.58898,7.50424 -4.89407,1.95762 -29.03813,-13.37712 z"
     id="path9543"
     inkscape:connector-curvature="0" />
  <path
     style="fill:#9f7c36;stroke:#000000;stroke-width:1px;stroke-linecap:butt;stroke-linejoin:miter;stroke-opacity:1;fill-opacity:1"
     d="m 124.63559,161.83051 -1.30508,15.33474 15.00847,2.2839 28.3856,1.30509 3.58898,-7.83051 -1.63136,-5.87288 -13.37712,-2.2839 -25.12288,-2.2839 -0.65254,-8.48305 -5.22034,6.19915 z"
     id="path9545"
     inkscape:connector-curvature="0" />
  <path
     style="fill:#9f7c36;stroke:#000000;stroke-width:1px;stroke-linecap:butt;stroke-linejoin:miter;stroke-opacity:1;fill-opacity:1"
     d="m 175.5339,167.37712 -0.65254,14.6822 46.65678,0.32627 -1.95763,-16.63983 -27.40678,1.63136 -16.31356,-2.2839"
     id="path9547"
     inkscape:connector-curvature="0" />
  <path
     style="fill:#431c00;stroke:#000000;stroke-width:1px;stroke-linecap:butt;stroke-linejoin:miter;stroke-opacity:1;fill-opacity:1"
     d="m 137.68644,29.364406 6.8517,4.567797 14.35593,4.567797 21.86017,1.957627 28.71186,-6.525424 -2.61017,15.334746 -3.26271,16.313559 -1.30508,3.262712 -4.89407,8.809322 -13.37712,15.008475 -10.44068,6.851695 -5.22034,-3.588983 -30.34322,-30.995763 -2.93644,-6.851695 z"
     id="path9549"
     inkscape:connector-curvature="0" />
  <path
     style="fill:#431c00;fill-opacity:1;stroke:#000000;stroke-width:1px;stroke-linecap:butt;stroke-linejoin:miter;stroke-opacity:1"
     d="m 179.12288,106.03814 19.25,-14.682208 15.00848,-18.271186 6.85169,0.978813 7.17797,-1.305085 -1.63136,7.830509 1.30509,9.788135 6.85169,11.745762 4.24153,5.22034 -11.09322,23.49153 -1.2655,1.42383 -8.84891,-1.75011 -27.08051,-13.70339 -10.11441,-8.48305 z"
     id="path9551"
     inkscape:connector-curvature="0"
     sodipodi:nodetypes="ccccccccccccccc" />
  <path
     style="fill:#431c00;stroke:none;stroke-width:1px;stroke-linecap:butt;stroke-linejoin:miter;stroke-opacity:1;fill-opacity:1"
     d="m 127.57203,70.474576 12.07204,13.050847 25.12288,21.207627 -2.2839,3.91525 -40.7839,22.18645 -3.26271,-6.8517 -3.58898,-16.9661 4.56779,-8.483052 1.95763,-27.40678 z"
     id="path9553"
     inkscape:connector-curvature="0" />
  <path
     style="fill:#431c00;fill-opacity:1;stroke:none"
     d="m 126.59322,140.94915 5.22034,20.22882 5.87288,2.28389 21.5339,1.63136 1.30508,-4.24153 14.35594,1.30509 0.65254,2.2839 13.63705,1.54743 29.10447,0.41019 1.95763,-14.35593 3.58898,-10.44068 -12.72457,-3.91525 -19.57627,-10.11441 -19.25,-13.70339 -6.52543,2.93644 -23.16525,15.00848 -18.59746,8.80932 z"
     id="path9555"
     inkscape:connector-curvature="0"
     sodipodi:nodetypes="cccccccccccccccccc" />
  <path
     style="fill:#431c00;stroke:#000000;stroke-width:1px;stroke-linecap:butt;stroke-linejoin:miter;stroke-opacity:1;fill-opacity:1"
     d="m 128.55085,179.44915 25.77542,2.93644 3.26271,4.89407 15.33475,0 2.61017,-3.58898 41.76271,-0.97882 2.2839,12.72458 12.3983,26.1017 18.59746,15.98728 9.46187,7.17797 -3.58899,7.83051 -16.31356,6.52542 -9.46186,0.97882 -8.80932,-5.54661 -14.68221,-22.83899 0,20.88136 -2.28389,29.03813 -0.97882,3.58899 -10.11441,-0.65255 -7.8305,-3.58898 -2.2839,-7.50424 -5.54661,-39.15254 -1.63136,17.29237 -7.50424,21.5339 -5.22033,8.15678 -7.83051,2.61017 -8.48305,-0.97881 -4.89407,-3.91526 -2.2839,-24.79661 2.61017,-41.11017 -8.48305,16.31356 -16.63983,16.96611 -16.63983,9.46186 -8.483053,-6.19915 -8.483051,-16.9661 18.271184,-18.27119 14.68221,-15.33475 8.48305,-14.02966 z"
     id="path9557"
     inkscape:connector-curvature="0" />
  <path
     style="fill:#9f7c36;stroke:none;stroke-width:1px;stroke-linecap:butt;stroke-linejoin:miter;stroke-opacity:1;fill-opacity:1"
     d="m 86.135593,39.478813 3.915255,10.114407 13.377122,19.25 -7.830512,14.355932 -14.355932,21.533898 -14.682204,15.66102 -18.597458,15.98729 -18.597457,-19.90255 8.156779,-12.72457 48.940678,-62.970342"
     id="path9559"
     inkscape:connector-curvature="0" />
  <path
     style="fill:#9f7c36;stroke:none;stroke-width:1px;stroke-linecap:butt;stroke-linejoin:miter;stroke-opacity:1;fill-opacity:1"
     d="m 235.5678,74.38983 10.76695,-9.788135 11.41949,-20.881356 10.1144,12.724576 12.07204,18.597458 18.27118,28.059317 4.89407,9.78814 -5.22034,7.83051 -7.8305,5.87288 -8.15678,2.61017 -13.70339,-14.35593 -16.63983,-22.512714 z"
     id="path9561"
     inkscape:connector-curvature="0" />
  <path
     style="fill:#000000"
     d="m 134.63519,14.45774 c 0.363,0.58734 0.90047,3.71987 1.19438,6.96116 l 0.53438,5.89326 8.32435,4.06687 c 8.86477,4.3309 24.97952,8.02732 34.84781,7.99344 6.74574,-0.0232 16.86935,-2.24248 24.05851,-5.27416 l 5.85924,-2.47084 2.40092,-7.67446 c 1.87499,-5.99336 2.92361,-7.87318 4.78713,-8.58169 1.36522,-0.51906 9.99489,-0.60222 20.16876,-0.19437 l 17.78255,0.71288 -0.24126,4 c -0.13269,2.2 -0.67508,5.125 -1.20532,6.5 -0.53025,1.375 -2.60529,6.7708 -4.61121,11.99067 -5.38943,14.02456 -11.63033,25.08161 -18.11993,32.10323 -3.65595,3.95568 -3.96925,8.75634 -1.2149,18.616097 1.83056,6.55284 3.29805,9.59485 6.24689,12.949343 2.94242,3.34719 3.59484,4.69705 2.75771,5.70573 -0.6031,0.72669 -2.61865,5.41532 -4.479,10.41917 -2.68675,7.22664 -3.09792,9.2071 -1.99907,9.62877 0.76087,0.29197 1.89978,1.6642 2.53091,3.04939 1.68856,3.70598 -1.43603,10.20625 -5.77808,12.02048 -3.58313,1.49712 -5.37969,4.35032 -7.72419,12.26712 -1.25547,4.23942 -1.29996,5.25 -0.23109,5.25 2.75167,0 3.65686,2.96657 3.86102,12.65365 l 0.20752,9.84635 -2.75,0.31642 c -3.54956,0.40842 -3.63048,3.28289 -0.35919,12.75843 6.8124,19.73266 15.05389,30.58591 30.51705,40.18802 6.14754,3.81742 10.09214,7.73591 10.09214,10.02535 0,3.6312 -4.28349,7.4337 -12.76969,11.33579 -9.90883,4.55624 -15.59572,5.01931 -21.74512,1.77067 -5.64253,-2.98087 -8.08129,-5.42713 -13.35336,-13.39444 l -4.63183,-6.99976 -0.6734,6.49976 c -0.37037,3.57487 -0.98608,13.47476 -1.36825,21.99976 -0.49312,11.00026 -1.09493,15.92405 -2.07303,16.96072 -0.97349,1.03178 -3.17311,1.38983 -7.49074,1.21932 -11.8438,-0.46774 -15.48306,-4.45294 -17.51507,-19.18004 -0.41738,-3.025 -0.81346,-5.725 -0.88018,-6 -0.0667,-0.275 -0.48938,-3.425 -0.93925,-7 l -0.81795,-6.5 -2.37385,9.5 c -4.24902,17.00428 -6.06419,21.11126 -11.0009,24.8904 -3.81106,2.91744 -5.25052,3.40569 -10.31876,3.5 -7.49222,0.13942 -10.85846,-2.12913 -13.31299,-8.97177 -1.53315,-4.27407 -1.72727,-8.02601 -1.4813,-28.631 0.15568,-13.04181 -0.0805,-23.06281 -0.52475,-22.26889 -0.4443,0.79391 -4.76702,5.97111 -9.60604,11.50487 -11.01712,12.59886 -21.74881,19.97639 -29.05857,19.97639 -4.020231,0 -9.932961,-7.25389 -15.361261,-18.84559 l -2.50329,-5.34559 2.14275,-1.65441 c 4.04044,-3.1196 22.156301,-21.75528 28.156831,-28.96475 6.40968,-7.70106 10.96332,-15.03014 12.01949,-19.34538 0.53064,-2.16803 0.24165,-2.78532 -1.5737,-3.36149 -2.14324,-0.68023 -2.19976,-1.01837 -1.56199,-9.34428 0.36395,-4.75118 1.10148,-8.78851 1.63896,-8.97184 0.53748,-0.18334 0.97724,-0.90109 0.97724,-1.59502 0,-0.69392 0.9,-2.07616 2,-3.07165 2.40241,-2.17415 2.4782,-3.74028 0.46668,-9.64378 -1.40881,-4.13463 -1.76832,-4.46556 -4.42723,-4.07532 -2.54496,0.37352 -3.14382,-0.0652 -4.96667,-3.63824 -2.3764,-4.65813 -2.68712,-9.38791 -0.72379,-11.01734 1.12382,-0.93268 0.98107,-2.79448 -0.85524,-11.15376 -1.68251,-7.65919 -1.91756,-10.20431 -0.99306,-10.75288 2.72098,-1.61455 4.70493,-11.221433 4.85295,-23.4994 l 0.14636,-12.1406 -4.20164,-0.83862 C 104.92645,67.0411 93.093889,45.17363 89.680859,21.61453 c -0.43571,-3.00756 -0.24401,-4.41207 0.6465,-4.73655 2.55298,-0.93027 29.173661,-3.48815 36.302221,-3.48815 4.12978,0 7.63455,0.46752 8.00561,1.06791 z m -10.57974,4.89145 c -1.90423,1.62765 -4.08661,2.97765 -4.84973,3 -0.76313,0.0224 0.31124,-1.30936 2.3875,-2.95936 2.94462,-2.34009 3.34797,-3 1.83367,-3 -1.06773,0 -3.46135,1.56826 -5.31915,3.48502 -1.8578,1.91676 -3.60077,3.26207 -3.87326,2.98957 -0.2725,-0.2725 0.79343,-1.84076 2.36873,-3.48502 4.61408,-4.81605 0.43267,-3.69693 -4.4572,1.19293 -4.15855,4.15855 -4.17841,4.16571 -3.46791,1.25 l 0.71459,-2.9325 -2.14973,1.90499 c -1.18236,1.04774 -2.14974,1.40107 -2.14974,0.78518 0,-1.15388 3.30574,-3.31952 4.70949,-3.08525 1.76573,0.29467 3.29051,-0.15511 3.29051,-0.97065 0,-1.82505 -8.29803,0.70758 -10.65828,3.253 -1.33246,1.437 -2.932891,2.61273 -3.556501,2.61273 -0.62362,0 -0.0429,-1.20286 1.290471,-2.67302 l 2.42431,-2.67301 -3.777221,2.81246 c -2.07747,1.54686 -4.10247,2.46311 -4.5,2.03611 -0.39753,-0.42699 -0.22409,-0.95597 0.38541,-1.17551 0.6095,-0.21954 1.9595,-1.06812 3,-1.88573 1.77984,-1.39859 1.71425,-1.47044 -1.10819,-1.21394 -2.95323,0.26839 -2.99813,0.35838 -2.88029,5.77264 0.26181,12.02919 8.119971,30.39477 16.366191,38.25 3.22755,3.07452 4.66993,3.75 8.0075,3.75 2.23896,0 5.56803,-0.62557 7.39794,-1.39015 2.95306,-1.23387 3.50603,-2.10514 4.91874,-7.75 0.8754,-3.49792 1.84205,-7.89508 2.1481,-9.77146 0.53146,-3.25829 0.47395,-3.33694 -1.2796,-1.75 -2.25658,2.04218 -3.57899,2.14745 -2.84175,0.22622 0.30295,-0.78947 0.0136,-1.66366 -0.64301,-1.94265 -0.74009,-0.31447 0.0414,-1.60192 2.05618,-3.38744 3.11075,-2.75677 4.23374,-5.23452 2.37244,-5.23452 -1.15231,0 -3.63071,2.99538 -2.49488,3.01531 0.47984,0.008 0.21893,0.42873 -0.57981,0.93402 -2.10458,1.33137 -3.36767,0.14764 -1.84631,-1.73032 0.97342,-1.20158 0.98558,-1.41489 0.0486,-0.85195 -2.62168,1.57505 -1.09611,-1.29499 2.25,-4.23292 1.925,-1.69017 3.5,-3.76179 3.5,-4.60359 0,-2.21872 -1.31809,-1.88532 -4.05216,1.02497 -2.13622,2.27391 -2.18298,2.48531 -0.42431,1.91837 1.95192,-0.62925 1.95236,-0.61752 0.0353,0.94447 -2.87733,2.34446 -3.42382,1.9719 -3.09969,-2.11312 0.21255,-2.67884 1.17835,-4.48568 3.51246,-6.5712 1.77061,-1.58205 2.94664,-3.1491 2.61339,-3.48234 -0.33324,-0.33324 -1.86332,0.5988 -3.40018,2.0712 -1.53686,1.47241 -3.21966,2.65791 -3.73957,2.63446 -0.5199,-0.0234 1.07972,-1.82223 3.55472,-3.99729 4.23264,-3.7197 4.34922,-3.95482 1.96223,-3.95737 -1.39578,-0.001 -4.09578,1.32901 -6,2.95666 z m 3.3711,31.70731 c 1.27104,1.27103 0.659,7.19814 -0.90476,8.7619 -2.06027,2.06028 -3.74411,1.98523 -5.77358,-0.25731 -2.1712,-2.39914 -2.10048,-5.45812 0.17375,-7.51627 1.85673,-1.68032 5.29081,-2.2021 6.50459,-0.98832 z m -5.01644,5.52083 c 0.31922,0.79773 0.55618,0.56078 0.60416,-0.60417 0.0434,-1.05416 -0.19292,-1.64479 -0.52522,-1.3125 -0.33229,0.3323 -0.36781,1.1948 -0.0789,1.91667 z M 223.84928,22.00032 c -3.22763,2.53577 -6.08323,4.39568 -6.34577,4.13313 -0.26254,-0.26254 1.78774,-2.20473 4.55618,-4.31597 2.76844,-2.11124 5.03353,-3.97115 5.03353,-4.13314 0,-1.29459 -3.36337,0.32466 -6.82,3.28341 -2.299,1.96786 -4.18,3.1235 -4.18,2.5681 0,-0.55541 1.37591,-1.98957 3.05758,-3.18702 1.68166,-1.19745 2.80197,-2.43279 2.48956,-2.74519 -0.3124,-0.3124 -1.86304,0.67272 -3.44587,2.18916 -2.5813,2.47305 -5.90712,10.42859 -6.7156,16.06406 -0.16041,1.11813 -1.4378,6.07981 -2.83866,11.02594 -1.40086,4.94613 -2.54701,10.48098 -2.54701,12.29966 0,9.2477 10.14012,15.83443 18.50756,12.02197 2.67465,-1.21865 13.27754,-14.8146 11.55327,-14.8146 -0.5288,0 -1.40006,0.78375 -1.93614,1.74167 -0.53608,0.95792 -1.30838,1.40798 -1.71622,1.00013 -0.40785,-0.40784 1.2459,-2.62754 3.675,-4.93266 2.80429,-2.66117 3.41265,-3.56542 1.66653,-2.47708 -1.5125,0.94272 -2.75,1.28023 -2.75,0.75001 0,-0.53022 0.43035,-1.23 0.95633,-1.55508 0.52598,-0.32507 0.7305,-1.17953 0.45449,-1.8988 -0.27601,-0.71927 0.21494,-1.90264 1.09101,-2.6297 1.11964,-0.92923 1.25497,-1.53076 0.45554,-2.02484 -0.71494,-0.44185 0.7272,-2.27505 3.8833,-4.93631 4.34031,-3.65981 7.06009,-7.03734 5.66686,-7.03734 -0.23634,0 -2.92221,2.03018 -5.96862,4.51151 -3.0464,2.48133 -5.53891,4.11143 -5.53891,3.62244 0,-0.48898 0.6963,-1.46694 1.54733,-2.17323 0.89725,-0.74465 1.13912,-1.53647 0.5757,-1.88468 -0.5344,-0.33028 2.11317,-3.295 5.88348,-6.58827 3.77031,-3.29327 6.88624,-6.58851 6.9243,-7.32276 0.0381,-0.73424 -2.06831,0.54717 -4.68081,2.84757 -5.15974,4.54335 -8.25,6.5148 -8.25,5.26315 0,-0.43705 1.0125,-1.42427 2.25,-2.19381 4.61294,-2.86859 11.86878,-9.54233 10.77208,-9.90789 -0.62524,-0.20842 -3.83627,1.74189 -7.13562,4.334 -7.35542,5.77876 -8.64416,5.5767 -1.71069,-0.26821 3.8715,-3.26366 4.56392,-4.23982 3.00743,-4.23982 -1.11211,0 -4.48388,2.25 -7.49282,5 -3.00894,2.75 -5.8577,4.98052 -6.33059,4.95671 -0.47288,-0.0238 1.61521,-2.26885 4.64021,-4.98897 4.63946,-4.17187 5.14841,-4.9474 3.25288,-4.95671 -1.23591,-0.006 -4.16091,1.65705 -6.5,3.69582 -6.72424,5.8609 -8.7097,6.99973 -3.48412,1.99844 6.00634,-5.74854 4.50314,-7.13358 -1.81106,-1.66868 -2.58105,2.23388 -4.93361,3.82081 -5.22792,3.5265 -0.29431,-0.2943 0.54609,-1.38809 1.86756,-2.43064 5.59227,-4.41193 7.34752,-6.06789 6.4649,-6.0992 -0.51578,-0.0183 -3.57856,2.04145 -6.80618,4.57722 z m -1.97857,35.94621 c 1.28433,0.89958 2.22251,2.60727 2.22251,4.04546 0,2.72999 -4.03687,7.39784 -6.39784,7.39784 -2.08367,0 -4.60216,-3.92142 -4.60216,-7.1658 0,-2.60616 3.04313,-5.8342 5.5,-5.8342 0.58024,0 2.05512,0.70052 3.27749,1.5567 z m -5.60979,3.811 c -0.19539,1.01461 0.15168,2.35168 0.77127,2.97127 0.83538,0.83538 1.27744,0.54948 1.71041,-1.10622 0.32114,-1.22801 1.00796,-2.23275 1.52627,-2.23275 0.51831,0 0.64887,-0.47492 0.29013,-1.05537 -0.99758,-1.61412 -3.89811,-0.65377 -4.29808,1.42307 z m -88.0817,-35.35247 -2.586,3.4059 3.75,-2.82925 c 2.0625,-1.55609 3.75,-3.26335 3.75,-3.7939 0,-1.74329 -2.28199,-0.24924 -4.914,3.21725 z m 111.48166,9.88577 c 0.24213,0.24212 1.45095,-0.48032 2.68628,-1.60543 1.23533,-1.1251 3.20235,-2.53763 4.37115,-3.13894 1.16879,-0.60131 2.36111,-1.99586 2.64959,-3.09899 0.38043,-1.45479 -0.94112,-0.71352 -4.81137,2.69872 -2.93473,2.58742 -5.13777,4.90251 -4.89565,5.14464 z M 130.09322,33.9602 c 0,0.275 0.9,0.0183 2,-0.57037 1.1,-0.5887 2,-1.29537 2,-1.57037 0,-0.275 -0.9,-0.0183 -2,0.57037 -1.1,0.5887 -2,1.29537 -2,1.57037 z m 7.981,-0.0475 c -1.05678,1.27335 -0.99492,1.41968 0.37756,0.89301 0.90279,-0.34643 1.64144,-1.03173 1.64144,-1.52289 0,-1.28596 -0.57887,-1.10536 -2.019,0.62988 z m 2.60653,1.08189 c -0.86682,0.33264 -1.32707,1.00764 -1.02277,1.5 0.3043,0.49237 0.002,0.89522 -0.67241,0.89522 -0.67413,0 -0.92959,0.2961 -0.56769,0.65799 0.36189,0.3619 0.14824,1.2722 -0.47478,2.02289 -0.89603,1.07966 -0.78736,1.23236 0.52002,0.73067 1.22774,-0.47113 1.49377,-0.21985 1.03445,0.97711 -0.34008,0.88626 -0.12018,1.61136 0.48866,1.61136 0.60885,0 1.10699,0.675 1.10699,1.5 0,0.95107 -1.00638,1.52812 -2.75,1.57685 -2.46604,0.0689 -2.33696,0.22196 1.25,1.48211 3.61983,1.2717 3.6948,1.36255 0.78877,0.95591 -1.76617,-0.24715 -3.47704,-0.0192 -3.80193,0.50643 -0.3249,0.52569 0.0496,0.71008 0.83218,0.40977 2.16414,-0.83045 2.91647,2.4763 0.99951,4.39323 -1.56762,1.56761 -1.56665,1.69671 0.0151,2.00138 0.92996,0.17913 1.43377,0.74163 1.11958,1.25 -0.3142,0.50838 -0.009,0.92432 0.67888,0.92432 0.70756,0 0.40766,0.68321 -0.69098,1.57416 -1.06762,0.86578 -1.313,1.24867 -0.54529,0.85084 1.09366,-0.56672 1.2511,-0.1466 0.72724,1.94064 -0.60752,2.42054 0.88022,4.22713 16.28238,19.7719 l 16.95098,17.107947 5.93537,-4.66309 c 6.57087,-5.16237 11.03329,-9.582397 9.6743,-9.582397 -0.48539,0 1.04906,-1.96814 3.40988,-4.37364 3.51549,-3.58203 4.35241,-5.16575 4.62394,-8.75 0.18234,-2.407 0.42274,-4.60136 0.53422,-4.87636 0.11148,-0.275 0.15461,-0.82189 0.0958,-1.21531 -0.0588,-0.39342 0.3268,-1.85592 0.85683,-3.25 0.66869,-1.7588 0.62767,-2.53469 -0.13401,-2.53469 -0.7315,0 -0.6824,-0.5004 0.1472,-1.5 0.68469,-0.825 1.69489,-1.5 2.24489,-1.5 0.55783,0 0.44954,0.66326 -0.24489,1.5 -0.92769,1.1178 -0.94385,1.5 -0.0634,1.5 0.64981,0 0.90653,0.44485 0.57051,0.98855 -0.3653,0.59107 0.0932,0.71832 1.14042,0.31648 1.13968,-0.43734 1.31788,-0.81657 0.5102,-1.0858 -0.95002,-0.31667 -0.96808,-0.74278 -0.077,-1.81648 0.89563,-1.07916 0.8695,-1.40275 -0.11325,-1.40275 -0.85064,0 -0.64097,-0.75174 0.62755,-2.25 1.90307,-2.24773 1.90289,-2.24823 -0.17375,-0.5 -1.14331,0.9625 -2.31937,1.75 -2.61346,1.75 -0.71825,0 -0.35439,-3.08153 0.6199,-5.25 0.43245,-0.9625 0.53225,-2.41198 0.22178,-3.22106 -0.31048,-0.80908 -0.0211,-2.04658 0.64301,-2.75 1.14589,-1.21367 2.3251,-7.77894 1.39721,-7.77894 -0.24104,0 -2.18232,0.61388 -4.31397,1.36418 -2.13165,0.7503 -7.76987,1.91562 -12.52937,2.58961 -7.42739,1.05178 -10.26145,0.98221 -20,-0.49094 -6.2405,-0.944 -13.82136,-2.76585 -16.84636,-4.04854 -6.20187,-2.62979 -6.24866,-2.63986 -8.41247,-1.80953 z m 65.39347,2.91813 c -1.05678,1.27335 -0.99492,1.41968 0.37756,0.89301 0.90279,-0.34643 1.64144,-1.03173 1.64144,-1.52289 0,-1.28596 -0.57887,-1.10536 -2.019,0.62988 z m 34.51568,4.48249 c -1.15561,1.86981 1.18982,0.99859 3.09833,-1.15089 1.89176,-2.13061 1.88975,-2.13752 -0.28932,-0.99462 -1.20687,0.63299 -2.47092,1.59847 -2.80901,2.14551 z m -35.9896,-1.01683 c -0.35034,0.56686 0.0511,0.7345 0.94098,0.39301 1.73242,-0.66479 2.04939,-1.38156 0.61096,-1.38156 -0.51754,0 -1.21592,0.44485 -1.55194,0.98855 z m -73.50708,1.12948 c 0,0.55 0.45,0.72189 1,0.38197 0.55,-0.33992 1,-1.06803 1,-1.61803 0,-0.55 -0.45,-0.72189 -1,-0.38197 -0.55,0.33992 -1,1.06803 -1,1.61803 z m 71.49668,2.88735 c -0.33809,0.54704 -0.0831,0.99462 0.56675,0.99462 0.83208,0 0.77561,0.49199 -0.19099,1.66372 -1.25709,1.52389 -1.16255,1.55183 1.1249,0.33245 1.5913,-0.84829 2.02262,-1.48952 1.18887,-1.76743 -0.99351,-0.33117 -0.87252,-0.92764 0.50266,-2.47796 1.77277,-1.99855 1.76465,-2.01742 -0.38318,-0.89091 -1.20687,0.63299 -2.47092,1.59847 -2.80901,2.14551 z m 35.42108,2.62725 c -1.26404,1.55297 -1.21915,1.66732 0.41403,1.0546 1.00748,-0.37798 2.1925,-0.68723 2.63337,-0.68723 0.44087,0 1.03489,-0.89219 1.32005,-1.98265 0.42593,-1.62874 0.20893,-1.81699 -1.21561,-1.0546 -0.95375,0.51043 -2.37208,1.71188 -3.15184,2.66988 z m -35.45671,3.4104 c -1.51896,1.67844 -1.56042,1.93233 -0.2323,1.42269 0.88914,-0.3412 1.86228,-1.26056 2.16255,-2.04304 0.74711,-1.94695 0.24796,-1.78653 -1.93025,0.62035 z m -71.51749,13.20697 c -1.03236,1.2375 -1.89199,2.7199 -1.91029,3.29423 -0.0468,1.46938 20.15832,22.023387 27.92651,28.408697 l 6.45978,5.309823 0.76867,-2.874163 c 0.69038,-2.58146 0.19324,-3.45565 -4.88172,-8.58412 -3.10772,-3.140487 -6.13552,-5.434087 -6.72845,-5.096897 -0.59293,0.3372 -0.74446,0.24484 -0.33674,-0.20524 1.01424,-1.11957 -1.21311,-3.6378 -2.50914,-2.83681 -0.57266,0.35392 -0.75413,0.17901 -0.40326,-0.3887 0.58582,-0.94788 -12.15021,-14.34588 -14.36357,-15.11015 -0.53094,-0.18334 -0.96535,-1.19584 -0.96535,-2.25 0,-2.50213 -0.76016,-2.41923 -3.05644,0.33333 z m 69.55644,10.34493 c -4.67545,7.70302 -21.39354,24.298887 -30.11641,29.89624 -3.23598,2.07647 -10.8693,7.06509 -16.96296,11.08581 -6.09365,4.02072 -12.39365,7.84794 -14,8.50492 -9.19529,3.76081 -18.42063,8.41309 -18.42063,9.28942 0,0.55602 -0.66069,0.13743 -1.4682,-0.93019 -1.89869,-2.51029 -1.90453,-1.57744 -0.0184,2.93675 1.48544,3.55516 3.15162,4.46881 5.03658,2.76181 0.5225,-0.47318 3.3125,-1.68707 6.2,-2.69755 2.8875,-1.01047 5.25,-2.19833 5.25,-2.63968 0,-0.44135 0.3375,-0.7029 0.75,-0.58121 1.19503,0.35254 17.21158,-9.46196 27.40759,-16.79461 19.30356,-13.88251 32.81839,-25.478963 39.79027,-34.14217 l 6.87021,-8.53689 -2.65903,-2.34219 c -1.46247,-1.2882 -2.88404,-2.35534 -3.15904,-2.37142 -0.275,-0.0161 -2.3,2.93636 -4.5,6.56096 z m -77.75232,2.15507 c -0.28345,3.2599 -0.0523,6.30968 0.53379,7.04238 0.71962,0.89964 0.68198,1.64417 -0.12385,2.45 -0.63669,0.63669 -1.16249,2.530117 -1.16844,4.207617 -0.0119,3.33735 -2.29451,11.720063 -4.17605,15.335873 -0.96777,1.85979 -0.76427,4.04971 1.09173,11.74849 1.25467,5.20443 2.68416,9.71164 3.17665,10.01602 1.25805,0.77751 9.91849,-3.19813 9.91849,-4.55317 0,-0.61338 0.3754,-0.88323 0.83422,-0.59967 1.101,0.68046 9.16578,-3.33273 9.16578,-4.56106 0,-0.52498 0.38935,-0.71388 0.86522,-0.41978 0.47587,0.2941 2.83837,-0.73515 5.25,-2.28722 2.41163,-1.55207 6.96149,-4.39784 10.11081,-6.32392 l 5.72603,-3.50197 -2.22603,-1.95603 c -1.22432,-1.07582 -3.85537,-3.14767 -5.84678,-4.604113 -2.92971,-2.14266 -16.48009,-14.828017 -27.37925,-25.631397 -3.69774,-3.66524 -5.19989,-2.71523 -5.75232,3.63795 z m 98.25232,1.84597 c 0,0.7073 -0.52647,1.61137 -1.16994,2.00906 -0.79139,0.48911 -0.95317,0.18464 -0.5,-0.94099 0.36847,-0.91522 0.94308,-2.33904 1.27693,-3.16404 1.02526,-2.53365 -1.03703,-1.66187 -2.957,1.25 -1.00358,1.52204 -1.54331,1.90541 -1.20873,0.85856 0.51165,-1.60086 0.37056,-1.69728 -0.91837,-0.62756 -1.71497,1.4233 -2.10747,0.004 -0.45567,-1.64822 0.75629,-0.75629 0.59548,-1.24824 -0.55194,-1.68854 -1.00438,-0.38542 -1.36981,-0.21789 -0.96245,0.44124 0.36119,0.58442 -0.22898,2.04176 -1.31149,3.23855 -1.08251,1.19678 -2.50114,3.07597 -3.15252,4.17597 -1.08199,1.8272 -1.12438,1.78399 -0.49063,-0.5 0.48454,-1.74625 -1.08394,-0.44218 -5.20225,4.32525 -3.24277,3.753887 -9.90292,10.026627 -14.80035,13.93941 l -8.90441,7.11416 3.18176,2.65624 c 1.74996,1.46094 4.40695,3.27839 5.90441,4.03879 1.49746,0.7604 6.64563,3.77312 11.44039,6.69495 8.19726,4.99524 24.20283,11.14397 25.53661,9.81019 0.33298,-0.33298 2.54429,-5.8471 4.91402,-12.25361 3.1999,-8.65084 4.02957,-11.98442 3.22421,-12.95481 -0.59642,-0.71865 -1.37874,-1.26773 -1.73849,-1.22018 -0.35975,0.0476 -1.45742,0.0332 -2.43927,-0.032 -1.53467,-0.1018 -1.61694,-0.43417 -0.58628,-2.36842 1.12496,-2.11123 1.08475,-2.157493 -0.65205,-0.75 -1.66258,1.34734 -1.78907,1.33457 -1.24286,-0.12554 0.41108,-1.0989 -0.17623,-1.982913 -1.81277,-2.728573 -2.75681,-1.25608 -2.95603,-2.58573 -0.92086,-6.14589 1.75546,-3.07086 1.88011,-4.352947 0.33006,-3.39497 -0.81015,0.5007 -0.95987,0.13444 -0.48684,-1.190987 0.52695,-1.47651 0.25805,-1.37185 -1.1763,0.457847 -1.58735,2.02486 -1.95046,2.13459 -2.48177,0.75 -0.34231,-0.892037 -0.36336,-2.296887 -0.0468,-3.121887 0.31659,-0.825 0.0509,-1.5 -0.5904,-1.5 -0.6413,0 -0.85032,-0.51079 -0.46447,-1.1351 0.45838,-0.74168 1.10339,-0.38421 1.86098,1.03136 0.6377,1.19156 1.47357,1.85235 1.85749,1.46844 1.15543,-1.15543 0.78505,-2.53651 -0.47191,-1.75967 -0.79376,0.49057 -0.95821,0.1713 -0.51145,-0.99292 0.39113,-1.01928 0.25712,-1.46793 -0.33006,-1.10503 -1.4478,0.89478 -1.20693,-1.14326 0.3174,-2.68565 0.71828,-0.72679 1.63764,-2.1962 2.04304,-3.26536 0.71888,-1.89594 0.68664,-1.89829 -1.30596,-0.095 -1.12364,1.01692 -2.04301,2.42763 -2.04301,3.13493 z m 2.98469,11.595007 c 0.008,0.93004 -0.43469,1.9691 -0.98469,2.30902 -1.2656,0.78218 -1.2656,-0.54163 0,-2.5 0.8354,-1.29269 0.97149,-1.26629 0.98469,0.19098 z m 0.0471,5.75015 c -0.0224,1.01582 0.4015,0.86826 1.4364,-0.5 0.8075,-1.06762 1.4825,-2.58964 1.5,-3.38226 0.0224,-1.01582 -0.4015,-0.86826 -1.4364,0.5 -0.8075,1.06762 -1.4825,2.58964 -1.5,3.38226 z m 2.16133,1.58533 c 0.30789,0.30789 0.86705,-0.24711 1.24258,-1.23333 0.54268,-1.4252 0.42782,-1.54006 -0.5598,-0.5598 -0.68342,0.67834 -0.99067,1.48524 -0.68278,1.79313 z m -61.16249,3.473543 c 0,1.33333 0.1077,1.33333 0.96937,0 0.53316,-0.825 0.96937,-2.175003 0.96937,-3.000003 0,-1.33333 -0.1077,-1.33333 -0.96937,0 -0.53316,0.825 -0.96937,2.175003 -0.96937,3.000003 z m 14.0096,15.41205 c 1.68071,1.14837 6.29672,4.51703 10.2578,7.4859 8.91588,6.68255 22.67659,13.43732 27.56678,13.53181 1.99936,0.0386 3.96,0.52024 4.357,1.07024 0.42906,0.59442 1.3646,0.0874 2.3067,-1.25 2.18184,-3.09745 4.10417,-2.86454 2.06345,0.25 -1.43409,2.1887 -1.44841,2.5 -0.11501,2.5 0.83768,0 1.45161,-0.3375 1.36429,-0.75 -0.0873,-0.4125 0.19328,-1.55691 0.62354,-2.54313 0.96212,-2.2053 0.78102,-2.39067 -2.96478,-3.03469 -6.1049,-1.04962 -17.22004,-5.52579 -24.65501,-9.92882 -5.85152,-3.4653 -7.94766,-4.26358 -8.89718,-3.38835 -0.96193,0.88667 -1.10324,0.75018 -0.62637,-0.60501 0.33868,-0.9625 0.17991,-1.75 -0.35282,-1.75 -0.53274,0 -0.96862,0.45 -0.96862,1 0,0.55 -0.49814,1 -1.10699,1 -0.60884,0 -0.839,-0.69837 -0.51145,-1.55194 0.34149,-0.88992 0.17385,-1.29132 -0.39301,-0.94098 -0.5437,0.33602 -0.98855,0.14852 -0.98855,-0.41668 0,-0.5652 -0.75312,-0.73863 -1.67361,-0.38541 -1.30545,0.50095 -1.52039,0.24295 -0.97711,-1.17282 0.5641,-1.47001 0.43109,-1.59478 -0.69964,-0.65636 -1.36861,1.13585 -4.64964,0.58346 -4.64964,-0.7828 0,-0.38115 0.5625,-1.33357 1.25,-2.11648 0.6875,-0.7829 0.23399,-0.57498 -1.00781,0.46206 l -2.25781,1.88552 3.05585,2.08794 z m -16.75604,3.84942 c -11.16203,8.47569 -21.01525,14.32989 -30.50534,18.12448 l -3.72116,1.48789 1.55828,4.81308 c 0.85706,2.64719 1.79901,7.16607 2.09323,10.04195 0.29423,2.87588 1.04252,5.64186 1.66288,6.14663 0.62036,0.50477 6.36889,1.24032 12.77453,1.63457 11.28572,0.6946 11.66739,0.65132 12.31739,-1.39663 0.59212,-1.86562 1.43277,-2.11344 7.16913,-2.11344 6.85819,0 10.36687,1.1661 10.36687,3.44541 0,1.52281 12.8911,2.99158 20.96015,2.38814 3.77296,-0.28216 4.56649,-0.71874 5.15032,-2.83355 0.56001,-2.02853 0.71175,-2.12282 0.80459,-0.5 0.1034,1.80737 0.2334,1.76682 1.34968,-0.42103 0.67939,-1.33157 1.85243,-2.62479 2.60675,-2.87383 0.81174,-0.268 0.43261,0.81711 -0.92897,2.65873 -2.54379,3.44066 -2.35059,4.15013 1.17376,4.31049 4.22457,0.19221 4.7141,-0.12015 5.36679,-3.42436 0.89746,-4.54336 2.60973,-8.75 3.56161,-8.75 0.44111,0 0.21501,1.2375 -0.50245,2.75 -1.92645,4.06118 -2.76902,9.49226 -1.40192,9.03656 0.61735,-0.20578 2.43459,-4.62944 4.03831,-9.83035 1.60372,-5.20092 3.14762,-10.15015 3.43088,-10.99831 0.38977,-1.16703 -0.97621,-1.98879 -5.61632,-3.37872 -7.973,-2.38829 -20.33067,-8.45243 -25.90097,-12.71009 -7.01958,-5.36541 -18.54586,-13.67527 -19.09221,-13.76449 -0.275,-0.0449 -4.19711,2.72568 -8.71581,6.15687 z m 34.71581,16.79755 c 0,0.58246 -0.45,0.7809 -1,0.44098 -0.55,-0.33992 -1,-0.81648 -1,-1.05902 0,-0.24254 0.45,-0.44098 1,-0.44098 0.55,0 1,0.47656 1,1.05902 z m 13.56669,23.62325 c -0.74621,3.2755 -1.1667,3.99606 -1.39957,2.39829 -0.41129,-2.82196 0.5923,-7.08056 1.66862,-7.08056 0.4387,0 0.31763,2.10702 -0.26905,4.68227 z m -82.76669,-0.48227 c 0.93333,0.93333 1.2,0.66667 1.2,-1.2 0,-1.86667 -0.26667,-2.13333 -1.2,-1.2 -0.93333,0.93333 -0.93333,1.46667 0,2.4 z m 34.78753,1.40478 c -2.79976,1.07437 -0.59237,2.39522 4.00287,2.39522 2.6611,0 4.66231,0.50624 4.94137,1.25 0.25795,0.6875 -0.0937,4.625 -0.78139,8.75 -1.14563,6.87172 -1.45981,7.52259 -3.75038,7.76969 -10.12468,1.09222 -12.56778,3.23031 -3.69113,3.23031 7.96964,0 8.55929,-0.80067 9.32455,-12.66151 0.65494,-10.15093 0.65313,-10.16198 -1.7389,-10.61382 -3.85262,-0.72773 -6.61893,-0.76765 -8.30699,-0.11989 z m -38.06826,14.24783 c 0.21891,0.2189 4.57913,0.81072 9.68937,1.31515 5.11025,0.50443 12.89136,1.27671 17.29136,1.71617 4.4,0.43947 9.66088,0.59924 11.69085,0.35505 3.65169,-0.43927 3.69815,-0.50243 4.37912,-5.95267 0.84109,-6.73191 0.38528,-7.10984 -8.57499,-7.10984 -8.57908,0 -30.04316,-2.16686 -31.99498,-3.22998 -1.23891,-0.67481 -1.61999,0.34267 -2.18937,5.84554 -0.37915,3.66441 -0.51026,6.84167 -0.29136,7.06058 z m 30.78688,-5.21313 c 0.93324,0.93324 -0.19452,2.36052 -1.86517,2.36052 -0.79254,0 -1.44098,-0.675 -1.44098,-1.5 0,-1.50623 2.11099,-2.05568 3.30615,-0.86052 z m 9.19822,1.36758 c 0.75927,1.22854 -1.99283,2.42712 -3.47279,1.51245 -0.58531,-0.36174 -0.80531,-1.07661 -0.48887,-1.58861 0.76324,-1.23495 3.18006,-1.18848 3.96166,0.0762 z m 11.49563,-3.13206 c 0,1.28333 0.94667,2.06433 3,2.475 2.38284,0.47657 3,1.11944 3,3.125 0,2.13889 -0.45875,2.525 -3,2.525 -2.39439,0 -3,0.42999 -3,2.13005 0,1.93197 0.41714,2.08304 4.48557,1.62447 9.12263,-1.02826 12.7003,-7.10335 6.87957,-11.68194 -3.58257,-2.81805 -11.36514,-2.95335 -11.36514,-0.19758 z m 16,-0.42205 c 0,0.24912 0.50348,1.55797 1.11886,2.90856 0.86509,1.89868 0.79737,3.10007 -0.29858,5.29706 l -1.41744,2.84143 12.04858,0.0668 c 6.62672,0.0367 8.56108,-0.094 4.29858,-0.29045 -4.2625,-0.19647 -7.75,-0.78903 -7.75,-1.31678 0,-0.52776 0.87416,-0.95956 1.94258,-0.95956 1.31563,0 1.83325,-0.56774 1.60381,-1.75911 -0.29924,-1.55386 0.43669,-1.73268 6.30742,-1.53266 4.51654,0.15388 6.16554,-0.0786 5.14619,-0.72558 -0.825,-0.52362 -3.13765,-0.95892 -5.13922,-0.96734 -2.13286,-0.009 -4.61639,-0.82938 -6,-1.98204 -1.59979,-1.33276 -3.89193,-1.97746 -7.11078,-2 -2.6125,-0.0183 -4.75,0.17056 -4.75,0.41968 z m 15.5,1.54705 c 4.53699,1.15447 9.7135,1.15447 9,0 -0.33992,-0.55 -3.17898,-0.94676 -6.30902,-0.88169 -4.70356,0.0978 -5.17046,0.25077 -2.69098,0.88169 z m -0.25,5.68933 c 0.9625,0.25152 2.5375,0.25152 3.5,0 0.9625,-0.25153 0.175,-0.45733 -1.75,-0.45733 -1.925,0 -2.7125,0.2058 -1.75,0.45733 z m -81.12924,10.36116 c -2.59785,6.58088 -12.36637,18.87477 -27.620761,34.76132 -12.31718,12.82761 -12.36915,12.9737 -7.68157,21.59244 3.55138,6.52969 7.47965,10.59575 10.236681,10.59575 2.34978,0 15.44066,-6.83757 14.63444,-7.64379 -0.25381,-0.2538 -3.44391,0.94768 -7.08912,2.66996 -3.64521,1.72228 -7.18403,2.92644 -7.86404,2.67592 -0.68002,-0.25053 0.11361,-0.79643 1.76361,-1.21311 1.65,-0.41668 3.675,-1.3138 4.5,-1.99361 0.825,-0.6798 4.26169,-2.45801 7.63708,-3.95158 3.37539,-1.49356 7.65039,-4.289 9.5,-6.21208 l 3.36292,-3.49651 -6,2.63586 c -3.3,1.44973 -6.4275,3.06181 -6.95,3.5824 -1.81402,1.80741 -2.85026,0.9358 -1.1375,-0.95677 0.94736,-1.04683 4.50461,-2.91557 7.90499,-4.15276 5.63718,-2.05103 12.68251,-7.13785 12.68251,-9.15694 0,-1.09519 -9.71581,3.87034 -12.31989,6.2964 -2.78832,2.59773 -4.46437,2.44202 -2.0851,-0.19371 2.10983,-2.33723 15.39603,-9.36125 15.4203,-8.15225 0.0189,0.94377 1.94818,-1.9585 1.96938,-2.96268 0.0221,-1.04441 -4.22776,0.72233 -9.03055,3.7542 -2.27871,1.43848 -4.37633,2.38219 -4.6614,2.09712 -0.57393,-0.57393 3.51296,-3.21118 11.37377,-7.33941 3.50667,-1.84159 5.68558,-3.8018 6.78221,-6.10144 l 1.61569,-3.38815 -3.2822,1.95533 c -8.1543,4.85781 -14.93463,8.42851 -15.30377,8.05937 -0.2216,-0.2216 3.71986,-2.75157 8.75879,-5.62216 7.8016,-4.44443 9.36712,-5.01383 10.54543,-3.83552 1.11503,1.11503 1.16136,2.13741 0.23857,5.26482 -0.63196,2.1418 -1.40492,14.67038 -1.7248,27.95659 -0.7705,32.00321 0.34182,36.68015 9.06017,38.09494 2.59257,0.42072 4.38223,0.0651 6.37403,-1.26675 1.52315,-1.01844 3.10687,-1.91965 3.51937,-2.0027 0.4125,-0.083 1.0875,-0.26053 1.5,-0.39441 0.4125,-0.13388 0.9979,-0.22 1.3009,-0.19137 0.30299,0.0286 1.10791,-0.83987 1.78871,-1.92999 1.20087,-1.92289 1.16204,-1.93241 -1.3009,-0.31863 -1.40453,0.92029 -2.53871,1.19063 -2.53871,0.60512 0,-1.28885 4.05546,-4.25547 5.01048,-3.66523 1.55286,0.95972 10.01438,-34.81495 8.57498,-36.25435 -0.17807,-0.17807 -2.48528,2.83972 -5.12713,6.7062 -2.64185,3.86649 -5.02961,6.80373 -5.30613,6.5272 -0.27652,-0.27652 2.16361,-4.3865 5.42252,-9.13329 l 5.92528,-8.63053 0.34532,-9.91242 c 0.24117,-6.92294 0.69355,-9.79627 1.5,-9.52732 0.79326,0.26456 1.20688,5.01939 1.32145,15.19111 0.11681,10.37078 0.53023,15.03064 1.38012,15.5559 0.83938,0.51877 1.00026,2.17094 0.52196,5.36046 -0.4527,3.01882 -0.325,4.61056 0.36988,4.61056 0.5837,0 1.06127,-0.8707 1.06127,-1.9349 0,-2.32172 1.87575,-7.52268 2.49115,-6.90729 0.23935,0.23936 -0.2179,2.88927 -1.01611,5.88869 -1.80327,6.77606 -1.80722,12.57585 -0.0143,20.94116 1.5798,7.37072 4.74454,11.01234 9.57027,11.01234 2.72068,0 2.85308,-0.17468 1.94424,-2.5651 -1.26022,-3.31464 -1.24815,-5.7216 0.0248,-4.9349 0.55,0.33992 1,1.52106 1,2.62476 0,1.1037 0.49837,2.93793 1.10749,4.07608 0.88829,1.65978 1.2811,1.79521 1.98468,0.68426 0.63194,-0.99783 0.88149,-1.03561 0.89252,-0.1351 0.008,0.6875 0.54031,1.25 1.18198,1.25 0.64166,0 0.87366,-0.29301 0.51554,-0.65112 -0.35812,-0.35812 0.0135,-1.14562 0.82587,-1.75 1.22498,-0.91138 1.55161,-6.0431 1.91429,-30.07549 0.29165,-19.32599 0.79371,-29.09542 1.50746,-29.33333 0.64389,-0.21463 1.09817,1.36938 1.14046,3.97661 0.0944,5.82124 1.75931,9.92506 1.85942,4.58333 0.11143,-5.94492 1.57029,-4.35228 1.57029,1.71429 0,3.92488 0.50541,5.96735 1.794,7.25 1.72396,1.71599 1.7844,1.64068 1.54799,-1.92895 -0.42013,-6.34386 0.85364,-5.19813 1.59089,1.43097 0.38435,3.45603 1.38015,7.33523 2.21288,8.62045 2.19123,3.38193 2.72922,1.99645 0.91282,-2.3508 -0.85722,-2.05161 -1.51834,-4.91275 -1.46916,-6.35808 0.0682,-2.00464 0.39655,-1.56064 1.38443,1.87212 0.71226,2.475 1.7685,5.625 2.3472,7 l 1.05218,2.5 0.14024,-3 c 0.13938,-2.98173 0.14738,-2.97718 1.31338,0.74595 0.64523,2.06028 2.20382,4.46103 3.46353,5.33499 2.23021,1.54729 2.27334,1.52112 1.64159,-0.99595 -1.01386,-4.03954 0.27339,-3.03951 2.46501,1.91501 1.95863,4.42781 2.62151,4.88683 6.60302,4.57233 2.18582,-0.17266 3.25149,-0.58359 11.65165,-4.49296 5.75022,-2.67611 9.42609,-6.63142 8.47246,-9.11653 -0.29032,-0.75658 -2.47945,-2.40772 -4.86472,-3.66922 -6.15015,-3.25259 -18.83389,-13.56719 -22.49548,-18.29362 -6.34752,-8.19345 -15.26396,-28.75226 -15.26396,-35.19439 0,-1.20317 -0.51573,-2.50631 -1.14606,-2.89588 -0.83776,-0.51776 -0.98855,1.01312 -0.56055,5.69099 0.36604,4.00063 0.27073,5.4622 -0.25426,3.89928 -0.46187,-1.375 -0.88463,-4.14219 -0.93945,-6.14931 -0.0983,-3.59689 -0.16537,-3.65453 -4.67384,-4.0131 -4.7087,-0.3745 -5.80128,0.21598 -6.77663,3.66241 -0.31131,1.1 -0.43767,0.5375 -0.28081,-1.25 l 0.28521,-3.25 -13.3268,0 c -11.02317,0 -13.32681,0.25262 -13.32681,1.46146 0,3.66171 -17.05833,4.54684 -19.63796,1.01898 -0.71388,-0.97629 -1.08131,-2.12565 -0.8165,-2.55412 0.2648,-0.42847 -1.88711,-1.02828 -4.78204,-1.33292 -2.89492,-0.30464 -8.6385,-0.9246 -12.7635,-1.37769 -4.125,-0.45309 -7.76733,-0.57448 -8.09408,-0.26976 -0.32674,0.30473 -1.58006,3.05177 -2.78516,6.10454 z m 83.87924,3.11618 c 0,4.91266 -0.47445,4.77272 -1.41265,-0.41667 -0.42922,-2.37409 -0.29444,-3.75 0.36734,-3.75 0.57492,0 1.04531,1.875 1.04531,4.16667 z m -3.33605,0.59029 c 0.11677,3.37797 -0.0789,4.16743 -0.67971,2.74304 -1.06902,-2.53422 -1.22433,-7.50223 -0.23424,-7.49304 0.4125,0.004 0.82378,2.14132 0.91395,4.75 z m -7.37126,-2.76821 c -0.28604,1.09382 -0.94076,1.72875 -1.45494,1.41097 -0.55165,-0.34094 -0.45486,-1.15615 0.23614,-1.98875 1.57743,-1.90069 1.835,-1.77858 1.2188,0.57778 z m 11.54942,9.01125 c 0,1.375 -0.22698,1.9375 -0.50439,1.25 -0.27741,-0.6875 -0.27741,-1.8125 0,-2.5 0.27741,-0.6875 0.50439,-0.125 0.50439,1.25 z m -34.84211,18.09129 c 0,1.33354 -1.18357,4.67104 -2.63015,7.41667 -3.18455,6.04431 -8.36985,13.32248 -8.36985,11.74806 0,-0.62589 0.4612,-1.42303 1.0249,-1.77141 1.32638,-0.81974 7.88958,-13.84199 8.2862,-16.4409 0.4603,-3.01619 1.6889,-3.70903 1.6889,-0.95242 z m 8.3697,12.53763 c -0.25985,2.12909 -0.86927,6.57108 -1.35425,9.87108 -0.75639,5.14676 -0.80465,4.72014 -0.33935,-3 0.29833,-4.95 0.90775,-9.39199 1.35425,-9.87108 0.4465,-0.4791 0.59921,0.8709 0.33935,3 z m -11.33054,3.62108 c -1.69681,2.3375 -4.00497,5.375 -5.12925,6.75 l -2.04414,2.5 1.21242,-2.5 c 1.88095,-3.87853 7.15956,-11 8.15347,-11 0.49093,0 -0.49569,1.9125 -2.1925,4.25 z m -1.01082,18.33738 c -0.80941,1.05194 -3.12133,3.76019 -5.1376,6.01833 -4.46507,5.00072 -6.43262,8.39429 -4.86691,8.39429 0.60181,0 0.81609,0.45 0.47617,1 -0.95691,1.54831 -2.5,1.18066 -2.5,-0.59563 0,-1.84865 2.88664,-6.21334 7.8731,-11.90437 3.59363,-4.1014 6.79844,-6.34782 4.15524,-2.91262 z m 66.74994,4.98135 c 3.06097,3.20382 3.13279,3.43127 1.08334,3.43127 -1.20723,0 -1.92205,-0.2729 -1.5885,-0.60645 0.33354,-0.33355 -0.26646,-1.5434 -1.33334,-2.68856 -1.06688,-1.14516 -1.93978,-2.44726 -1.93978,-2.89355 0,-1.15382 0.13725,-1.05366 3.77828,2.75729 z m -49.78583,0.5146 c -0.004,1.32917 -0.47303,5.2853 -1.04193,8.79141 -1.14744,7.07159 -0.63187,9.17532 0.9766,3.98492 0.91324,-2.94692 0.97478,-2.66892 0.50098,2.26288 -0.42087,4.38081 -0.18074,5.98196 1.0873,7.25 1.43879,1.43879 1.44749,1.62746 0.0751,1.62746 -0.88636,0 -1.80098,-1.17983 -2.13183,-2.75 -0.3187,-1.5125 -1.02056,-3.56067 -1.55968,-4.55149 -0.64803,-1.19097 -0.59988,-4.57933 0.14208,-9.99834 1.13041,-8.25606 1.96537,-11.08725 1.9514,-6.61684 z m -21.01935,7.28269 c 0.0148,0.47632 -1.47688,2.95132 -3.31484,5.5 -1.83796,2.54869 -3.62384,5.42148 -3.96862,6.38398 -0.34478,0.9625 -1.11979,1.75 -1.72224,1.75 -0.61167,0 -0.1592,-1.65596 1.02464,-3.75 2.47224,-4.37304 7.94183,-11.14675 7.98106,-9.88398 z m 56.614,-8.26977 c 2.37507,2.62441 7.4129,5.31232 7.4129,3.95511 0,-0.55 -1.27027,-1.65688 -2.82283,-2.45974 -1.55256,-0.80286 -3.41669,-2.17529 -4.1425,-3.04985 -0.72582,-0.87456 -1.55279,-1.35699 -1.83771,-1.07207 -0.28492,0.28492 0.34065,1.46687 1.39014,2.62655 z M 89.533789,43.46256 c 1.24211,4.14665 3.87497,8.85237 8.19476,14.64656 3.500571,4.69535 6.364671,9.33613 6.364671,10.31285 0,4.30213 -12.071971,24.390047 -23.197951,38.60171 -2.64113,3.37361 -4.80205,6.38637 -4.80205,6.695 0,0.86025 -12.81782,12.94214 -19,17.90913 -8.20875,6.59522 -9.07565,6.94624 -11.4729,4.64562 -1.11491,-1.06997 -3.64578,-3.26768 -5.62417,-4.88382 l -3.59708,-2.93842 -2.16785,8.09964 c -2.63715,9.85309 -4.90581,14.839 -6.75194,14.839 -0.76233,0 -1.38606,-0.45 -1.38606,-1 0,-0.55 0.41383,-1 0.91963,-1 1.15007,0 3.59048,-7.33274 5.48844,-16.49116 1.38712,-6.69348 1.35862,-7.15165 -0.66947,-10.76016 -1.16506,-2.07294 -2.3983,-3.42692 -2.74052,-3.00883 -0.78815,0.96284 -6.43466,16.35634 -8.10242,22.08875 -1.05865,3.6388 -1.03249,4.4688 0.16414,5.20836 1.07599,0.665 1.14165,1.16159 0.26897,2.03427 -0.63498,0.63498 -1.64371,0.85216 -2.24164,0.48262 -1.75506,-1.08469 -1.25964,-6.1078 1.31399,-13.32263 1.32061,-3.70217 4.27495,-11.98938 6.5652,-18.41602 l 4.16408,-11.6848 -2.0652,-2.0652 c -2.51168,-2.51168 -2.85467,-8.825023 -0.52795,-9.717873 0.84548,-0.32444 2.38347,0.17593 3.41774,1.11194 1.80149,1.63032 2.0305,1.46734 5.45033,-3.87872 1.96341,-3.069297 3.97294,-5.580547 4.46563,-5.580547 1.80297,0 1.84632,3.915617 0.0869,7.845497 -2.37967,5.31515 -0.17622,4.6032 3.62277,-1.17056 1.51086,-2.29621 5.03581,-7.023527 7.83322,-10.505137 2.79741,-3.48161 6.4362,-8.01633 8.0862,-10.07714 2.94416,-3.67721 8.40862,-11.24863 18.78236,-26.02437 2.8697,-4.08745 5.69249,-7.58323 6.27287,-7.76841 0.58038,-0.18519 1.87878,2.4126 2.88534,5.77285 z m -6.44057,4.0617 c 0,0.41369 0.7875,1.34018 1.75,2.05887 1.89969,1.41847 2.86172,8.3106 1.29518,9.27878 -0.51966,0.32116 -1.42428,-0.31191 -2.01026,-1.40683 -1.05656,-1.9742 -4.03492,-1.86442 -4.03492,0.14873 0,0.55 0.72506,0.72177 1.61125,0.3817 1.33895,-0.5138 1.48409,-0.15165 0.85882,2.14302 -0.41383,1.51871 -0.69334,3.8863 -0.62113,5.2613 0.0801,1.52472 -0.17139,2.02703 -0.6446,1.2876 -1.35257,-2.1135 -5.20502,-0.22174 -6.66521,3.27298 -0.80272,1.92119 -2.77627,4.02763 -4.71035,5.02753 -3.01137,1.55685 -3.19791,1.56318 -1.95634,0.0664 1.1878,-1.43193 1.13697,-1.65453 -0.3778,-1.65453 -1.47657,0 -1.65203,0.61425 -1.12211,3.92823 0.77191,4.82721 -0.98944,7.05882 -4.97063,6.29777 -2.61071,-0.49907 -2.68983,-0.38772 -2.13847,3.00989 0.60117,3.704577 -0.53777,5.752987 -3.21343,5.779417 -2.93611,0.029 -4.39455,1.82622 -4.99046,6.14969 -0.59176,4.293273 -0.63314,4.332213 -4.29952,4.045343 -3.87592,-0.30327 -4.56529,0.63472 -5.27558,7.17821 -0.12606,1.1613 -0.28662,2.41863 -0.35682,2.79406 -0.0702,0.37544 -1.02762,0.96826 -2.12762,1.31739 -1.65317,0.5247 -2,1.51303 -2,5.69931 0,4.51186 0.38971,5.43208 3.5712,8.43261 1.96416,1.85247 4.22524,3.3681 5.02462,3.3681 0.79938,0 2.67656,-2.025 4.17152,-4.5 3.60016,-5.96032 5.13669,-5.81156 1.79161,0.17345 -1.43663,2.5704 -2.23922,5.04628 -1.78355,5.50195 1.39619,1.39619 6.7274,-5.31497 9.67187,-12.1754 2.58856,-6.03118 6.81122,-12.29315 5.22609,-7.75 -0.33583,0.9625 -0.3763,1.75 -0.09,1.75 0.28635,0 0.99125,-1.35 1.56644,-3 0.5752,-1.65 1.45179,-3 1.94799,-3 1.31543,0 1.16865,0.54062 -1.66506,6.13268 -1.41198,2.7864 -2.3662,5.26723 -2.12048,5.51294 0.99295,0.99296 6.87183,-8.48702 8.29565,-13.37714 0.83778,-2.87733 1.99193,-5.52118 2.56478,-5.87523 0.64183,-0.39667 0.82677,0.076 0.4819,1.23152 -1.33926,4.48752 -1.87612,7.81975 -1.15166,7.14826 1.045,-0.9686 5.25328,-11.386713 6.03236,-14.933833 0.3402,-1.54895 1.05197,-3.08413 1.5817,-3.41152 1.13329,-0.70041 0.2649,3.47392 -1.76324,8.47586 -0.75902,1.871953 -1.1888,3.594773 -0.95507,3.828513 0.83816,0.83815 5.80192,-8.806383 7.13683,-13.866783 0.74904,-2.839487 1.83497,-5.635777 2.41318,-6.213987 1.35517,-1.35517 1.34898,-0.0761 -0.012,2.46687 -0.58478,1.09267 -0.89815,2.750577 -0.69638,3.684257 0.5463,2.52801 4.85015,-6.179747 6.32764,-12.802407 1.08913,-4.88187 1.24196,-5.10665 1.35991,-2 0.10823,2.85067 0.3192,3.1803 1.13718,1.77676 0.55237,-0.94779 0.8113,-4.29442 0.5754,-7.43698 -0.36114,-4.81097 -1.04266,-6.4737 -4.31341,-10.52375 -2.13647,-2.64551 -4.7649,-7.07877 -5.84095,-9.85169 -1.73563,-4.47263 -2.09921,-4.84643 -3.2213,-3.31187 -0.69559,0.95138 -1.26477,2.06826 -1.26477,2.48196 z m -9,13.14003 c 0,2.01636 2.52158,-0.11819 2.7794,-2.35279 0.27057,-2.34514 0.23106,-2.36032 -1.25,-0.48054 -0.84117,1.06762 -1.5294,2.34262 -1.5294,2.83333 z m 25.03041,8.97554 c 0.0242,2.58516 0.22908,2.90959 1.001591,1.58594 0.53416,-0.91523 0.69733,-2.37773 0.36261,-3.25 -0.940781,-2.45163 -1.397501,-1.89452 -1.364201,1.66406 z m -31.15797,-0.5 c -1.24387,1.58606 -1.2085,1.62143 0.37756,0.37756 1.66575,-1.30637 2.19548,-2.12756 1.37244,-2.12756 -0.20765,0 -0.99515,0.7875 -1.75,1.75 z m -7.17305,9.29152 c -0.34543,1.32095 -0.1172,1.9329 0.6293,1.68726 0.64422,-0.21199 1.32165,-1.41263 1.50541,-2.6681 0.40491,-2.76655 -1.36774,-1.95206 -2.13471,0.98084 z m -7.13877,9.958477 c -0.6383,2.4026 -0.60372,2.42437 0.8876,0.55887 0.85348,-1.067617 1.55178,-2.620117 1.55178,-3.449997 0,-2.11386 -1.6197,-0.19421 -2.43938,2.891127 z m -7.65235,9.1714 c -0.84824,1.58496 -0.81386,1.9638 0.14912,1.6428 0.68838,-0.22946 1.62602,-1.42933 2.08363,-2.66639 1.01173,-2.73496 -0.6221,-1.98595 -2.23275,1.02359 z m -16.87647,0.0786 c 0.0175,0.6875 0.70551,2.14131 1.52894,3.230703 1.44896,1.91697 1.4825,1.90088 1.0425,-0.5 -0.25004,-1.364393 -0.48806,-2.818203 -0.52893,-3.230703 -0.12807,-1.29264 -2.07598,-0.81579 -2.04251,0.5 z m 3.74771,19.000003 c 0.95275,1.97551 1.08513,1.70102 1.08513,-2.25 0,-3.95102 -0.13238,-4.22551 -1.08513,-2.25 -0.78018,1.61768 -0.78018,2.88232 0,4.5 z m 26.83893,7.30194 c -0.34149,0.88992 -0.17385,1.29132 0.39301,0.94098 0.5437,-0.33602 0.98855,-1.0344 0.98855,-1.55194 0,-1.43843 -0.71677,-1.12146 -1.38156,0.61096 z M 262.79377,48.5764 c 2.73553,3.47239 5.82427,7.78483 6.86386,9.5832 1.03959,1.79837 2.43997,3.05879 3.11195,2.80093 0.67198,-0.25787 1.01736,0.0707 0.76751,0.73023 -0.60633,1.60045 8.12338,16.13281 15.44939,25.7186 3.23937,4.238597 6.38351,8.629097 6.98697,9.756677 1.46723,2.74155 3.34801,2.29443 6.59861,-1.56869 4.68499,-5.5678 8.56636,-3.4092 5.02116,2.79248 -2.02383,3.540333 -1.94835,3.672693 2.5,4.384013 2.53791,0.40583 4,1.17073 4,2.09262 0,2.19959 -3.86001,3.80777 -7.65956,3.19119 -2.3718,-0.38489 -3.17609,-0.21092 -2.68659,0.58111 1.30158,2.10601 1.01325,7.56055 -0.37157,7.02915 -3.34612,-1.28403 0.45942,8.12373 5.39363,13.33371 1.55325,1.64006 3.92194,3.73799 5.26376,4.66207 2.67661,1.84331 2.28897,3.25087 -0.63933,2.32146 -2.85964,-0.90761 -9.22634,-7.52994 -11.47288,-11.93352 -1.53478,-3.00842 -2.23638,-3.62645 -2.90964,-2.56307 -2.14261,3.38413 0.92894,13.59687 4.72893,15.72346 1.01012,0.56529 1.56724,1.29715 1.23805,1.62635 -1.9952,1.99519 -7.62467,-5.07067 -8.54159,-10.72104 l -0.57204,-3.52504 -3.13559,1.78896 c -1.72457,0.98392 -4.87198,2.33941 -6.99424,3.01218 l -3.85867,1.22323 -6.47842,-6.36342 c -3.56313,-3.49987 -8.99602,-9.73841 -12.07309,-13.86341 -3.07707,-4.125 -8.10038,-10.853363 -11.16291,-14.951913 -3.06254,-4.09855 -8.41837,-10.493147 -11.90185,-14.210217 -3.63865,-3.88264 -6.03634,-7.2393 -5.63497,-7.88872 1.36413,-2.20721 14.89454,13.11734 28.73993,32.55085 6.76998,9.50241 6.76851,9.50069 14.0084,16.4443 l 5.67661,5.44429 6.02181,-2.87816 6.02182,-2.87817 0,-5.76644 c 0,-4.4504 -0.39939,-5.99096 -1.75,-6.75023 -1.01944,-0.57309 -1.75,-2.15932 -1.75,-3.79969 0,-2.46026 -0.42062,-2.85623 -3.33038,-3.13525 -2.67134,-0.25616 -3.19307,-0.65193 -2.63654,-2 2.1146,-5.122163 1.80619,-5.700523 -2.7899,-5.231793 -2.09742,0.2139 -3.44737,-2.64468 -1.95411,-4.13793 2.14779,-2.14779 -1.18793,-6.554717 -3.50553,-4.631277 -0.91372,0.75832 -1.68653,0.73079 -2.6822,-0.0956 -1.12181,-0.93101 -1.17135,-1.76302 -0.25027,-4.20325 0.99734,-2.64225 0.8931,-3.22914 -0.79246,-4.46165 -1.06748,-0.78056 -2.70672,-1.4192 -3.64275,-1.4192 -1.91715,0 -3.60828,-3.26919 -1.97309,-3.81426 0.58148,-0.19377 1.05723,-1.38737 1.05723,-2.65239 0,-2.50708 -3.1315,-4.0018 -4.82854,-2.30476 -1.93003,1.93003 -3.19135,-0.25199 -2.53138,-4.37918 l 0.64441,-4.02993 -3.39224,0.34028 c -2.88076,0.28898 -3.44043,10e-4 -3.7118,-1.90971 -0.17575,-1.2375 0.15137,-2.25 0.72695,-2.25 1.67815,0 4.19671,-4.56511 3.5083,-6.3591 -0.95215,-2.48124 -2.02985,-1.98783 -3.51462,1.6091 -3.12919,7.58062 -14.86278,22.75 -17.59725,22.75 -1.78044,0 -1.63901,-1.47694 0.29516,-3.08215 3.07224,-2.54974 10.2467,-12.58252 13.92462,-19.47224 2.03927,-3.82008 4.04425,-7.31165 4.4555,-7.75904 0.41126,-0.44738 2.98591,2.02762 5.72144,5.5 z m -3.13052,7.92674 c 1.00883,1.63232 2.42997,0.90961 2.42997,-1.23575 0,-1.76626 -0.24988,-1.91507 -1.48899,-0.8867 -0.81894,0.67967 -1.24239,1.63477 -0.94098,2.12245 z m 5.42997,5.88669 c 0,1.33333 0.66667,2 2,2 1.92719,0 2.7099,-1.95677 1.33333,-3.33333 -1.37656,-1.37657 -3.33333,-0.59386 -3.33333,1.33333 z m 6,8.38499 c 0,1.44051 0.99003,3.03368 2.5,4.02305 2.34753,1.53816 2.5,1.52825 2.5,-0.16248 0,-2.10575 -2.68895,-6.24556 -4.0567,-6.24556 -0.51882,0 -0.9433,1.07325 -0.9433,2.38499 z m 8.38393,12.42751 c 1.48809,1.4881 1.61607,1.44732 1.61607,-0.51488 0,-1.17202 -0.5625,-2.32595 -1.25,-2.56429 -1.93506,-0.67082 -2.1668,1.27844 -0.36607,3.07917 z m 4.99036,7.720487 c 0.69662,1.81537 2.62571,1.93807 2.62571,0.16701 0,-1.82046 -2.37154,-4.085377 -2.83183,-2.70451 -0.19626,0.58877 -0.1035,1.73064 0.20612,2.5375 z m 18.5932,8.01961 c -1.20759,1.953933 -1.97508,3.773143 -1.70553,4.042703 0.43727,0.43726 4.73804,-6.055123 4.73804,-7.152463 0,-1.18277 -1.03647,-0.11991 -3.03251,3.10976 z m -12.96749,-1.5526 c 0,0.55 0.47656,1 1.05902,1 0.58246,0 0.7809,-0.45 0.44098,-1 -0.33992,-0.55 -0.81648,-1 -1.05902,-1 -0.24254,0 -0.44098,0.45 -0.44098,1 z m 15,8.000003 c 0,0.55 1.09844,1 2.44098,1 1.34254,0 2.7191,-0.45 3.05902,-1 0.36057,-0.58342 -0.65628,-1 -2.44098,-1 -1.68246,0 -3.05902,0.45 -3.05902,1 z m -7.12207,6.675 c 0.87155,1.49877 1.06669,1.54197 1.09166,0.24167 0.0323,-1.68408 -1.01919,-3.2004 -1.72792,-2.49167 -0.23375,0.23375 0.0526,1.24625 0.63626,2.25 z m -0.56104,5.5125 c 0.31922,0.79773 0.55618,0.56078 0.60416,-0.60417 0.0434,-1.05416 -0.19293,-1.64479 -0.52522,-1.3125 -0.33229,0.3323 -0.36782,1.1948 -0.0789,1.91667 z"
     id="path9017"
     inkscape:connector-curvature="0" />
</svg>
