<?xml version="1.0" encoding="UTF-8" standalone="no"?>
<!-- Created with Inkscape (http://www.inkscape.org/) -->

<svg
   xmlns:dc="http://purl.org/dc/elements/1.1/"
   xmlns:cc="http://creativecommons.org/ns#"
   xmlns:rdf="http://www.w3.org/1999/02/22-rdf-syntax-ns#"
   xmlns:svg="http://www.w3.org/2000/svg"
   xmlns="http://www.w3.org/2000/svg"
   xmlns:sodipodi="http://sodipodi.sourceforge.net/DTD/sodipodi-0.dtd"
   xmlns:inkscape="http://www.inkscape.org/namespaces/inkscape"
   id="svg9005"
   version="1.1"
   inkscape:version="0.48.4 r9939"
   width="498.88528"
   height="456.28815"
   sodipodi:docname="LightArmor.svg">
  <metadata
     id="metadata9011">
    <rdf:RDF>
      <cc:Work
         rdf:about="">
        <dc:format>image/svg+xml</dc:format>
        <dc:type
           rdf:resource="http://purl.org/dc/dcmitype/StillImage" />
        <dc:title />
      </cc:Work>
    </rdf:RDF>
  </metadata>
  <defs
     id="defs9009" />
  <sodipodi:namedview
     pagecolor="#ffffff"
     bordercolor="#666666"
     borderopacity="1"
     objecttolerance="10"
     gridtolerance="10"
     guidetolerance="10"
     inkscape:pageopacity="0"
     inkscape:pageshadow="2"
     inkscape:window-width="1277"
     inkscape:window-height="753"
     id="namedview9007"
     showgrid="false"
     inkscape:zoom="0.76623378"
     inkscape:cx="244.16261"
     inkscape:cy="296.98458"
     inkscape:window-x="1"
     inkscape:window-y="22"
     inkscape:window-maximized="0"
     inkscape:current-layer="svg9005"
     fit-margin-top="0"
     fit-margin-left="0"
     fit-margin-right="0"
     fit-margin-bottom="0" />
  <path
     style="fill:#7b4a19;fill-opacity:1;stroke:#000000;stroke-width:1.67585909px;stroke-linecap:butt;stroke-linejoin:miter;stroke-opacity:1"
     d="m 332.25793,8.8847774 -18.55848,63.0215116 0,11.599051 6.18615,10.439146 16.23867,6.959434 13.14559,-1.933182 8.50597,-7.732698 28.61101,-54.51554 8.50597,-30.5441686 -14.69214,1.159905 -44.46304,-2.319811 z"
     id="path9537"
     inkscape:connector-curvature="0" />
  <path
     style="fill:#ffeb00;fill-opacity:1;stroke:none"
     d="m 330.47203,78.715668 1.64037,9.295336 6.01462,0.546786 3.8275,-5.467845 0,-4.921061 -4.92106,-2.733923 z"
     id="path9021"
     inkscape:connector-curvature="0" />
  <path
     style="fill:#7b4a19;fill-opacity:1;stroke:none"
     d="m 123.08837,7.3382364 63.79479,-5.7995263 7.34606,2.7064453 1.93317,54.5155406 -9.27923,26.677818 -20.10503,5.799526 -14.3055,-6.95943 -22.03819,-37.890235 -5.79953,-32.090708 0.38664,-7.7327016"
     id="path9535"
     inkscape:connector-curvature="0" />
  <path
     style="fill:#ffeb00;fill-opacity:1;stroke:#000000;stroke-width:1.67585909px;stroke-linecap:butt;stroke-linejoin:miter;stroke-opacity:1"
     d="m 173.35093,72.292923 3.4797,2.706445 1.93319,-6.572796 -4.63963,-1.933174 z"
     id="path9531"
     inkscape:connector-curvature="0" />
  <path
     style="fill:#ffeb00;fill-opacity:1;stroke:none"
     d="m 238.30562,249.37176 0.38662,4.63964 16.23867,3.09308 -3.4797,23.58473 -18.17186,2.70645 c 0,0 0.77327,8.50597 0.77327,6.57278 0,-1.93317 19.71839,0 19.71839,0 l 7.34607,-6.18615 0.77327,-35.18378 -9.27925,-2.31981 z"
     id="path9533"
     inkscape:connector-curvature="0" />
  <path
     style="fill:#9f7c36;fill-opacity:1;stroke:none"
     d="m 170.81096,196.82113 46.47669,-21.3246 59.05273,-39.36848 35.54098,-44.289553 2.73393,-3.280707 12.57605,14.2164 -18.59068,19.13746 -28.97959,27.886 -33.90063,24.05853 -31.71351,20.7778 -20.7778,9.84212 -18.04389,7.10821 -3.82749,1.64035 -6.56143,-15.85675 z"
     id="path9539"
     inkscape:connector-curvature="0" />
  <path
     style="fill:#9f7c36;fill-opacity:1;stroke:none"
     d="m 182.29343,92.385281 10.3889,-14.763182 7.10821,4.374276 9.29533,15.309963 48.11704,48.117042 -10.93569,7.65498 -32.26029,-26.79244 z"
     id="path9541"
     inkscape:connector-curvature="0" />
  <path
     style="fill:#9f7c36;fill-opacity:1;stroke:none"
     d="m 262.12396,168.38832 9.84214,-7.65497 10.93568,12.57603 15.30997,4.37428 25.15209,16.40354 30.07314,7.65499 4.92106,1.09357 -6.01462,12.57604 -8.20177,3.2807 -48.66382,-22.41817 z"
     id="path9543"
     inkscape:connector-curvature="0" />
  <path
     style="fill:#9f7c36;fill-opacity:1;stroke:#000000;stroke-width:1.67585909px;stroke-linecap:butt;stroke-linejoin:miter;stroke-opacity:1"
     d="m 178.46594,248.76566 -2.18713,25.69886 25.15208,3.82749 47.57026,2.18715 6.01463,-13.12283 -2.73393,-9.84212 -22.41817,-3.82749 -42.10241,-3.8275 -1.09356,-14.2164 -8.74856,10.38891 z"
     id="path9545"
     inkscape:connector-curvature="0" />
  <path
     style="fill:#9f7c36;fill-opacity:1;stroke:#000000;stroke-width:1.67585909px;stroke-linecap:butt;stroke-linejoin:miter;stroke-opacity:1"
     d="m 263.76433,258.06099 -1.09357,24.6053 78.19019,0.54678 -3.28071,-27.88601 -45.9299,2.73393 -27.33923,-3.82749"
     id="path9547"
     inkscape:connector-curvature="0" />
  <path
     style="fill:#431c00;fill-opacity:1;stroke:#000000;stroke-width:1.67585909px;stroke-linecap:butt;stroke-linejoin:miter;stroke-opacity:1"
     d="m 200.33732,26.771138 11.48248,7.654984 24.05852,7.654984 36.63456,3.280707 48.11703,-10.935691 -4.37427,25.698873 -5.46785,27.339225 -2.18713,5.467846 -8.20177,14.763184 -22.41816,25.15209 -17.49711,11.48247 -8.74856,-6.01463 -50.85096,-51.944528 -4.92106,-11.482475 z"
     id="path9549"
     inkscape:connector-curvature="0" />
  <path
     style="fill:#431c00;fill-opacity:1;stroke:#000000;stroke-width:1.67585909px;stroke-linecap:butt;stroke-linejoin:miter;stroke-opacity:1"
     d="m 269.77895,155.26551 32.26029,-24.60531 25.1521,-30.61993 11.48246,1.64035 12.02927,-2.187142 -2.73393,13.122832 2.18715,16.40354 11.48246,19.68424 7.10821,8.74855 -18.59067,39.36849 -2.1208,2.38614 -14.82953,-2.93294 -45.38312,-22.96495 -16.95032,-14.21639 z"
     id="path9551"
     inkscape:connector-curvature="0"
     sodipodi:nodetypes="ccccccccccccccc" />
  <path
     style="fill:#431c00;fill-opacity:1;stroke:none"
     d="m 183.387,95.665988 20.23103,21.871382 42.10241,35.54099 -3.8275,6.56141 -68.34806,37.18136 -5.46785,-11.48248 -6.01462,-28.43279 7.65497,-14.2164 3.28071,-45.929902 z"
     id="path9553"
     inkscape:connector-curvature="0" />
  <path
     style="fill:#431c00;fill-opacity:1;stroke:none"
     d="m 181.74665,213.77144 8.74855,33.90065 9.84212,3.82748 36.08778,2.73393 2.18713,-7.10821 24.05853,2.18715 1.09357,3.82749 22.85377,2.59328 48.77499,0.68742 3.28071,-24.05852 6.01463,-17.49711 -21.32459,-6.5614 -32.80707,-16.95033 -32.26028,-22.96495 -10.9357,4.92106 -38.8217,25.1521 -31.16672,14.76318 z"
     id="path9555"
     inkscape:connector-curvature="0"
     sodipodi:nodetypes="cccccccccccccccccc" />
  <path
     style="fill:#431c00;fill-opacity:1;stroke:#000000;stroke-width:1.67585909px;stroke-linecap:butt;stroke-linejoin:miter;stroke-opacity:1"
     d="m 185.02736,278.29201 43.19597,4.92106 5.46784,8.20177 25.69888,0 4.37428,-6.01462 69.98841,-1.64036 3.8275,21.3246 20.7778,43.74277 31.16672,26.79243 15.85676,12.02926 -6.01464,13.12283 -27.33922,10.93569 -15.85675,1.64036 -14.76318,-9.29534 -24.60531,-38.27492 0,34.99421 -3.82748,48.66382 -1.64036,6.01464 -16.95033,-1.09358 -13.12281,-6.01463 -3.8275,-12.57605 -9.29533,-65.61414 -2.73393,28.97958 -12.57605,36.08778 -8.74854,13.66961 -13.12283,4.37428 -14.2164,-1.64035 -8.20177,-6.56142 -3.82749,-41.55562 4.37427,-68.89486 -14.21639,27.33923 -27.88601,28.43281 -27.88601,15.85674 -14.2164,-10.3889 -14.21639,-28.43279 30.61992,-30.61994 24.60531,-25.69888 14.2164,-23.51173 z"
     id="path9557"
     inkscape:connector-curvature="0" />
  <path
     style="fill:#9f7c36;fill-opacity:1;stroke:none"
     d="m 113.94537,43.721459 6.56142,16.95032 22.41817,32.260287 -13.12284,24.058524 -24.05851,36.08777 L 81.138305,179.32402 49.971586,206.11647 18.80487,172.7626 32.474482,151.43802 114.49216,45.908597"
     id="path9559"
     inkscape:connector-curvature="0" />
  <path
     style="fill:#9f7c36;fill-opacity:1;stroke:none"
     d="m 364.37268,102.2274 18.04389,-16.403532 19.13746,-34.99421 16.95031,21.324596 20.23104,31.166716 30.61992,47.02346 8.20177,16.40354 -8.74855,13.12284 -13.12282,9.84211 -13.66961,4.37428 -22.96495,-24.05851 -27.88601,-37.72814 z"
     id="path9561"
     inkscape:connector-curvature="0" />
  <path
     style="fill:#000000"
     d="m 195.22386,1.7896666 c 0.60833,0.9842991 1.50906,6.2339788 2.00161,11.6659234 l 0.89554,9.876273 13.95044,6.815501 c 14.85611,7.257978 41.86216,13.452657 58.40002,13.395879 11.30491,-0.03888 28.27065,-3.758081 40.31867,-8.838749 l 9.81926,-4.14078 4.0236,-12.861313 c 3.14222,-10.0440266 4.89956,-13.1943406 8.02256,-14.3817031 2.28792,-0.8698714 16.75003,-1.0092358 33.8,-0.3257367 l 29.80105,1.1946864 -0.40432,6.7034364 c -0.22237,3.68689 -1.13134,8.588778 -2.01995,10.893084 -0.88862,2.304306 -4.3661,11.346906 -7.72774,20.094673 -9.03192,23.503186 -19.49079,42.033243 -30.36644,53.800487 -6.12686,6.629162 -6.65191,14.674392 -2.03601,31.197962 3.06776,10.98163 5.52707,16.07961 10.46891,21.70127 4.93108,5.60942 6.02445,7.87159 4.62153,9.562 -1.01071,1.21783 -4.38848,9.07531 -7.50617,17.46106 -4.50261,12.11083 -5.19168,15.4298 -3.35016,16.13646 1.27511,0.4893 3.18377,2.78896 4.24145,5.11034 2.82979,6.2107 -2.40658,17.10424 -9.68325,20.14464 -6.00482,2.50896 -9.0156,7.29052 -12.94465,20.55796 -2.10399,7.10467 -2.17855,8.79826 -0.38728,8.79826 4.61142,0 6.12839,4.97155 6.47053,21.20573 l 0.34777,16.5011 -4.60861,0.53027 c -5.94856,0.68446 -6.08417,5.50166 -0.60195,21.38133 11.41662,33.06916 25.2282,51.25768 51.14227,67.34946 10.30242,6.39746 16.91301,12.9643 16.91301,16.80107 0,6.08538 -7.17853,12.45784 -21.4002,18.99719 -16.6058,7.63562 -26.13623,8.41166 -36.44176,2.96739 -9.45608,-4.99551 -13.5431,-9.0951 -22.37835,-22.44719 l -7.76229,-11.73061 -1.12852,10.89268 c -0.62069,5.99098 -1.65254,22.5818 -2.293,36.8685 -0.8264,18.43488 -1.83495,26.68646 -3.4741,28.42377 -1.63144,1.72912 -5.31769,2.32916 -12.55343,2.04341 -19.84854,-0.78386 -25.94743,-7.4625 -29.35279,-32.14304 -0.69947,-5.06948 -1.36324,-9.59429 -1.47506,-10.05516 -0.11178,-0.46086 -0.82013,-5.73981 -1.57405,-11.73101 l -1.37077,-10.89308 -3.97823,15.92066 c -7.12076,28.49677 -10.16273,35.37949 -18.43596,41.7128 -6.3868,4.88922 -8.79913,5.70746 -17.29279,5.86551 -12.5559,0.23364 -18.19725,-3.56813 -22.31069,-15.03543 -2.56935,-7.16273 -2.89466,-13.45046 -2.48245,-47.98152 0.26089,-21.85623 -0.13491,-38.65001 -0.87941,-37.31952 -0.74458,1.33048 -7.98885,10.00674 -16.09837,19.28054 -18.46314,21.11392 -36.44793,33.47762 -48.69806,33.47762 -6.73734,0 -16.64624,-12.1565 -25.74331,-31.58255 l -4.19516,-8.95846 3.59095,-2.77256 c 6.7712,-5.22801 37.13083,-36.45878 47.18688,-48.54084 10.74171,-12.90589 18.37297,-25.18839 20.14296,-32.42013 0.88928,-3.63331 0.40497,-4.6678 -2.6373,-5.63338 -3.59177,-1.13997 -3.68648,-1.70664 -2.61767,-15.6597 0.60993,-7.9623 1.84592,-14.7283 2.74666,-15.03554 0.90074,-0.30725 1.63772,-1.5101 1.63772,-2.67302 0,-1.16292 1.50827,-3.47936 3.35172,-5.14766 4.0261,-3.64357 4.15311,-6.26818 0.78209,-16.16161 -2.36097,-6.92906 -2.96346,-7.48365 -7.41942,-6.82966 -4.26499,0.62596 -5.26859,-0.10927 -8.32343,-6.09718 -3.98251,-7.80637 -4.50323,-15.73282 -1.21297,-18.46351 1.88336,-1.56304 1.64413,-4.68316 -1.43326,-18.69213 -2.81965,-12.83572 -3.21356,-17.10098 -1.66423,-18.02031 4.55997,-2.70576 7.8848,-18.80554 8.13286,-39.38168 l 0.24527,-20.345932 -7.04135,-1.405414 C 145.4362,89.911967 125.6065,53.265169 119.88674,13.783438 119.15655,8.7431924 119.47781,6.3894304 120.97018,5.8456474 125.24862,4.2866463 169.86112,0 181.80758,0 c 6.92093,0 12.79443,0.7834976 13.41628,1.7896666 z M 177.4937,9.9870484 c -3.19122,2.7277116 -6.84858,4.9901206 -8.12746,5.0275766 -1.2789,0.03754 0.52159,-2.194303 4.00111,-4.95947 4.93477,-3.9216616 5.61073,-5.0275776 3.07297,-5.0275776 -1.78936,0 -5.80073,2.628183 -8.91414,5.8404026 -3.11341,3.212219 -6.03438,5.466769 -6.49103,5.010098 -0.45668,-0.456672 1.32967,-3.084855 3.96965,-5.840403 7.73255,-8.0710209 0.72509,-6.1955335 -7.46963,1.999183 -6.96915,6.969144 -7.00243,6.981143 -5.81173,2.094824 l 1.19755,-4.9144566 -3.60265,3.1924946 c -1.98146,1.755864 -3.60266,2.347996 -3.60266,1.315851 0,-1.93374 5.53996,-5.5630476 7.89244,-5.1704436 2.95912,0.493825 5.51444,-0.259943 5.51444,-1.626674 0,-3.0585262 -13.90633,1.185805 -17.86178,5.4515706 -2.23301,2.408209 -4.91511,4.378567 -5.96019,4.378567 -1.0451,0 -0.0719,-2.015824 2.16264,-4.479605 l 4.06281,-4.4795876 -6.33009,4.7132866 c -3.48155,2.592319 -6.87517,4.127825 -7.54137,3.412233 -0.6662,-0.715575 -0.37554,-1.602071 0.64589,-1.969989 1.02144,-0.367918 3.28385,-1.790019 5.02758,-3.160218 2.98276,-2.3438396 2.87284,-2.4642496 -1.85717,-2.0343916 -4.9492,0.449784 -5.02444,0.600594 -4.82696,9.6741306 0.43876,20.159227 13.60793,50.93735 27.42743,64.101608 5.40892,5.152463 7.82614,6.284472 13.41944,6.284472 3.75218,0 9.33123,-1.048367 12.3979,-2.329696 4.94891,-2.067792 5.87561,-3.527918 8.24311,-12.987907 1.46705,-5.862021 3.08702,-13.231041 3.59992,-16.37559 0.89065,-5.460435 0.79427,-5.592241 -2.14443,-2.932753 -3.78171,3.422406 -5.99788,3.598823 -4.76237,0.379113 0.5077,-1.323041 0.0228,-2.78806 -1.0776,-3.255608 -1.24028,-0.527007 0.0694,-2.684592 3.44587,-5.676872 5.21318,-4.619958 7.09515,-8.772318 3.97587,-8.772318 -1.9311,0 -6.08455,5.019835 -4.18106,5.053235 0.80414,0.01341 0.36689,0.718491 -0.97168,1.565286 -3.52698,2.231188 -5.64374,0.247424 -3.09416,-2.899773 1.63132,-2.013678 1.6517,-2.371156 0.0815,-1.427748 -4.39357,2.639562 -1.83693,-2.17022 3.77068,-7.093777 3.22603,-2.832487 5.86551,-6.30423 5.86551,-7.714968 0,-3.718262 -2.20893,-3.159531 -6.79085,1.717705 -3.58,3.810753 -3.65837,4.165029 -0.71108,3.214918 3.27114,-1.054534 3.27188,-1.034877 0.0592,1.582799 -4.822,3.928984 -5.73784,3.304626 -5.19464,-3.541292 0.3562,-4.489358 1.97475,-7.517367 5.88639,-11.012405 2.96729,-2.651293 4.93815,-5.277447 4.37967,-5.835911 -0.55846,-0.5584626 -3.12266,1.003505 -5.69822,3.47104 -2.57556,2.467551 -5.3957,4.454282 -6.26699,4.414983 -0.87128,-0.03921 1.80946,-3.0538 5.95721,-6.698894 7.0933,-6.2336936 7.28868,-6.6277216 3.28842,-6.6319946 -2.33913,-0.0017 -6.86395,2.227233 -10.05516,4.954946 z m 5.64949,53.1369816 c 2.13009,2.130067 1.10439,12.063068 -1.51625,14.683709 -3.45272,3.452739 -6.2746,3.326966 -9.67571,-0.431215 -3.63862,-4.02062 -3.5201,-9.14704 0.29119,-12.596209 3.11161,-2.815979 8.86665,-3.690409 10.90077,-1.656285 z m -8.40685,9.252133 c 0.53497,1.336883 0.93208,0.939788 1.01249,-1.012504 0.0727,-1.766623 -0.3233,-2.756436 -0.88019,-2.199565 -0.55687,0.556888 -0.6164,2.002317 -0.13223,3.212069 z M 344.7341,14.429968 c -5.40906,4.249593 -10.19464,7.36654 -10.63462,6.926543 -0.43998,-0.43998 2.996,-3.694817 7.63552,-7.232957 4.63951,-3.538141 8.43548,-6.6550876 8.43548,-6.9265606 0,-2.16955 -5.63653,0.544085 -11.42936,5.5025326 -3.8528,3.297856 -7.00509,5.234546 -7.00509,4.303774 0,-0.930789 2.30583,-3.334239 5.12408,-5.340997 2.81822,-2.0067566 4.6957,-4.0770126 4.17215,-4.6005516 -0.52354,-0.523538 -3.1222,1.127385 -5.7748,3.6687236 -4.32589,4.144484 -9.8995,17.476847 -11.25439,26.921101 -0.26883,1.873828 -2.40955,10.188904 -4.7572,18.477921 -2.34764,8.289017 -4.26843,17.564645 -4.26843,20.612497 0,15.497841 16.99341,26.536276 31.01606,20.147124 4.48234,-2.04228 22.25129,-24.827179 19.36166,-24.827179 -0.8862,0 -2.34631,1.313455 -3.2447,2.918794 -0.8984,1.605339 -2.19266,2.359576 -2.87614,1.676077 -0.6835,-0.683483 2.08795,-4.403387 6.15878,-8.266443 4.69959,-4.459746 5.71912,-5.975142 2.79287,-4.151237 -2.53474,1.579866 -4.60862,2.145485 -4.60862,1.256911 0,-0.888574 0.72121,-2.061307 1.60268,-2.606095 0.88147,-0.544771 1.22421,-1.976726 0.76166,-3.182121 -0.46255,-1.205395 0.36021,-3.188557 1.82838,-4.407007 1.87636,-1.557258 2.10315,-2.565338 0.76342,-3.393346 -1.19814,-0.740478 1.21868,-3.812663 6.50786,-8.27256 7.27375,-6.133326 11.83172,-11.79359 9.49686,-11.79359 -0.39607,0 -4.89721,3.402296 -10.00256,7.560655 -5.10534,4.158359 -9.28244,6.890177 -9.28244,6.070699 0,-0.819462 1.1669,-2.458385 2.59311,-3.642027 1.50367,-1.247929 1.90901,-2.574907 0.96479,-3.158458 -0.89558,-0.553503 3.54138,-5.521956 9.85989,-11.041012 6.3185,-5.519057 11.54036,-11.041414 11.60415,-12.271914 0.0639,-1.230483 -3.4662,0.91698 -7.84438,4.772126 -8.647,7.614014 -13.82584,10.917887 -13.82584,8.820298 0,-0.732434 1.69681,-2.386876 3.77068,-3.676517 7.73064,-4.807352 19.89041,-15.9915996 18.05249,-16.6042266 -1.04781,-0.349282 -6.42905,2.9191616 -11.95829,7.2631726 -12.32665,9.684388 -14.48639,9.345764 -2.86688,-0.449482 6.48809,-5.469434 7.64849,-7.1053396 5.04003,-7.1053396 -1.86374,0 -7.51435,3.7706816 -12.55691,8.3792946 -5.04256,4.608612 -9.81668,8.346649 -10.60917,8.306747 -0.79248,-0.03988 2.70686,-3.802273 7.77633,-8.36081 7.77508,-6.9914666 8.62801,-8.2911456 5.45137,-8.3067476 -2.07121,-0.01006 -6.9731,2.7769816 -10.89308,6.1936736 -11.26888,9.822042 -14.59623,11.73056 -5.8389,3.349103 10.06578,-9.6337416 7.54663,-11.9548746 -3.03508,-2.796472 -4.32547,3.743668 -8.26803,6.403139 -8.76125,5.909917 -0.49323,-0.493205 0.91517,-2.326243 3.12976,-4.07341 9.37186,-7.3937726 12.31341,-10.1689286 10.83426,-10.2213996 -0.86437,-0.03067 -5.99716,3.4211826 -11.40619,7.6707756 z m -3.31581,60.240781 c 2.15236,1.507569 3.72462,4.369417 3.72462,6.779621 0,4.575078 -6.76523,12.397737 -10.72188,12.397737 -3.49194,0 -7.71257,-6.571747 -7.71257,-12.008871 0,-4.367557 5.09985,-9.777297 9.21722,-9.777297 0.9724,0 3.44409,1.173973 5.49261,2.60881 z m -9.40122,6.386699 c -0.32744,1.700343 0.2542,3.941084 1.29254,4.97943 1.39998,1.399979 2.14081,0.920851 2.86641,-1.853869 0.53819,-2.057972 1.6892,-3.741774 2.55781,-3.741774 0.86862,0 1.08742,-0.795899 0.48622,-1.768652 -1.6718,-2.705037 -6.53268,-1.095626 -7.20298,2.384865 z m -147.61251,-59.245757 -4.33377,5.707809 6.28447,-4.741425 c 3.45646,-2.607787 6.28447,-5.468914 6.28447,-6.358041 0,-2.921509 -3.82429,-0.417691 -8.23517,5.391657 z m 186.82755,16.567157 c 0.40577,0.405759 2.43159,-0.804948 4.50183,-2.690474 2.07023,-1.885509 5.36668,-4.25271 7.32543,-5.260421 1.95872,-1.007711 3.95688,-3.34478 4.44034,-5.19347 0.63754,-2.438023 -1.57719,-1.195759 -8.06318,4.522674 -4.9182,4.336151 -8.61018,8.215916 -8.20442,8.621691 z M 187.61215,34.473041 c 0,0.460861 1.50828,0.03067 3.35172,-0.95586 1.84345,-0.986578 3.35172,-2.170857 3.35172,-2.631719 0,-0.460861 -1.50827,-0.03067 -3.35172,0.95586 -1.84344,0.986578 -3.35172,2.170858 -3.35172,2.631719 z m 13.37504,-0.0796 c -1.77102,2.133955 -1.66735,2.379183 0.63273,1.496559 1.51295,-0.580568 2.75082,-1.729034 2.75082,-2.552149 0,-2.155088 -0.9701,-1.852428 -3.38355,1.05559 z m 4.36817,1.813095 c -1.45267,0.557458 -2.22398,1.688662 -1.71402,2.513788 0.50997,0.825143 0.003,1.500263 -1.12686,1.500263 -1.12975,0 -1.55786,0.496222 -0.95137,1.102698 0.60648,0.606494 0.24843,2.132028 -0.79566,3.390079 -1.50162,1.809358 -1.31951,2.065262 0.87148,1.2245 2.05752,-0.789548 2.50335,-0.368438 1.73359,1.637498 -0.56993,1.485247 -0.20141,2.700413 0.81892,2.700413 1.02035,0 1.85516,1.131205 1.85516,2.513788 0,1.59386 -1.68655,2.560914 -4.60861,2.642579 -4.13273,0.115466 -3.91641,0.371973 2.09483,2.483807 6.06632,2.13119 6.19196,2.283442 1.32186,1.601971 -2.95985,-0.414189 -5.82703,-0.03218 -6.3715,0.848705 -0.54448,0.880982 0.0831,1.189994 1.39462,0.686717 3.62679,-1.391718 4.88759,4.149929 1.67504,7.362434 -2.62711,2.627093 -2.62549,2.843447 0.0253,3.354031 1.55849,0.300196 2.4028,1.242867 1.87626,2.094823 -0.52655,0.851974 -0.0151,1.54903 1.13771,1.54903 1.18577,0 0.68318,1.144964 -1.15799,2.638071 -1.78918,1.450925 -2.2004,2.092595 -0.91383,1.425888 1.83282,-0.949743 2.09667,-0.245681 1.21876,3.252239 -1.01812,4.056484 1.47512,7.084074 27.28697,33.134912 l 28.40745,28.67051 9.94685,-7.81468 c 11.01185,-8.6514 18.49024,-16.05875 16.21276,-16.05875 -0.81344,0 1.75808,-3.29832 5.71448,-7.3296 5.89146,-6.00298 7.29402,-8.65707 7.74907,-14.663772 0.30558,-4.03379 0.70845,-7.711225 0.89528,-8.172086 0.18682,-0.460861 0.2591,-1.377372 0.16055,-2.036688 -0.0986,-0.659317 0.54767,-3.110261 1.43592,-5.446542 1.12063,-2.947501 1.05189,-4.247783 -0.22458,-4.247783 -1.22589,0 -1.14361,-0.8386 0.24669,-2.513789 1.14744,-1.382584 2.84039,-2.513789 3.76212,-2.513789 0.93484,0 0.75336,1.111531 -0.41041,2.513789 -1.55467,1.873275 -1.58176,2.513789 -0.10625,2.513789 1.08899,0 1.51922,0.745505 0.9561,1.65667 -0.61219,0.99055 0.15619,1.203803 1.91118,0.530376 1.90995,-0.73292 2.20858,-1.368456 0.85503,-1.819648 -1.5921,-0.530694 -1.62237,-1.244794 -0.12905,-3.044164 1.50095,-1.80852 1.45716,-2.350812 -0.18979,-2.350812 -1.42555,0 -1.07417,-1.25981 1.05169,-3.770682 3.18928,-3.766879 3.18897,-3.767717 -0.29118,-0.83793 -1.91603,1.613014 -3.88694,2.932753 -4.37979,2.932753 -1.20369,0 -0.59391,-5.16421 1.03886,-8.79826 0.72473,-1.613014 0.89198,-4.042138 0.37167,-5.398042 -0.52032,-1.355904 -0.0354,-3.42978 1.0776,-4.608613 1.92035,-2.033939 3.89654,-13.036407 2.34153,-13.036407 -0.40395,0 -3.65727,1.028777 -7.22961,2.286174 -3.57234,1.257397 -13.02121,3.210309 -20.99746,4.339821 -12.44726,1.762635 -17.19674,1.646046 -33.51718,-0.822746 -10.4582,-1.582011 -23.16265,-4.635175 -28.23212,-6.784782 -10.39346,-4.407158 -10.47188,-4.424034 -14.09812,-3.032518 z M 314.9456,41.09691 c -1.77101,2.133955 -1.66734,2.379184 0.63274,1.496559 1.51295,-0.580568 2.75082,-1.729034 2.75082,-2.552149 0,-2.155087 -0.9701,-1.852427 -3.38356,1.05559 z m 57.84342,7.512022 c -1.93664,3.133538 1.99397,1.673496 5.19236,-1.92873 3.17032,-3.570602 3.16695,-3.582182 -0.48486,-1.666843 -2.02254,1.060802 -4.14091,2.678811 -4.7075,3.595573 z m -60.3135,-1.704064 c -0.58712,0.949978 0.0856,1.230919 1.57695,0.658629 2.90329,-1.114094 3.43449,-2.315299 1.02388,-2.315299 -0.86732,0 -2.03771,0.745505 -2.60083,1.65667 z m -123.18751,1.892849 c 0,0.921723 0.75414,1.209786 1.67586,0.640128 0.92172,-0.569658 1.67586,-1.789868 1.67586,-2.71159 0,-0.921722 -0.75414,-1.209786 -1.67586,-0.640128 -0.92172,0.569658 -1.67586,1.789868 -1.67586,2.71159 z m 119.81836,4.838792 c -0.56659,0.916762 -0.13926,1.666843 0.94979,1.666843 1.39445,0 1.29982,0.824506 -0.32007,2.78816 -2.1067,2.553825 -1.94827,2.600648 1.88518,0.557139 2.66679,-1.421614 3.38962,-2.496225 1.99237,-2.961963 -1.66498,-0.554994 -1.46222,-1.554594 0.84239,-4.152712 2.97091,-3.349288 2.95731,-3.380911 -0.64215,-1.493039 -2.02255,1.060802 -4.14092,2.67881 -4.70751,3.595572 z m 59.36074,4.402901 c -2.11835,2.602558 -2.04312,2.794193 0.69385,1.767361 1.6884,-0.633442 3.67433,-1.151701 4.41316,-1.151701 0.73884,0 1.73433,-1.495185 2.21222,-3.322642 0.7138,-2.729539 0.35014,-3.045019 -2.03719,-1.767361 -1.59835,0.855409 -3.97527,2.86887 -5.28204,4.474343 z m -59.42045,5.715349 c -2.54556,2.812829 -2.61504,3.238313 -0.3893,2.384228 1.49007,-0.571803 3.12092,-2.112521 3.62413,-3.423847 1.25205,-3.262814 0.41554,-2.993972 -3.23483,1.039619 z M 189.19343,85.887777 c -1.73009,2.073875 -3.17071,4.558169 -3.20138,5.520665 -0.0784,2.462473 33.7825,36.908098 46.8009,47.608978 l 10.82568,8.89851 1.28818,-4.81669 c 1.15698,-4.32616 0.32384,-5.79118 -8.18108,-14.38578 -5.2081,-5.26301 -10.28226,-9.10676 -11.27593,-8.54168 -0.99367,0.5651 -1.24761,0.41032 -0.56433,-0.34395 1.69973,-1.87624 -2.033,-6.09644 -4.20496,-4.75409 -0.9597,0.59312 -1.26382,0.29999 -0.67581,-0.65141 0.98175,-1.58851 -20.36204,-24.041676 -24.07132,-25.322485 -0.88978,-0.307252 -1.61779,-2.004059 -1.61779,-3.770683 0,-4.193217 -1.27392,-4.054288 -5.12216,0.558615 z m 116.56679,17.336643 c -7.8354,12.90918 -35.85256,40.72151 -50.47086,50.10189 -5.42305,3.47987 -18.21542,11.84009 -28.42753,18.57825 -10.2121,6.73816 -20.77001,13.15204 -23.46203,14.25305 -15.41001,6.30258 -30.87038,14.09915 -30.87038,15.56775 0,0.93182 -1.10722,0.23032 -2.46049,-1.55886 -3.18194,-4.20689 -3.19173,-2.64357 -0.0308,4.92158 2.48939,5.95794 5.28167,7.48909 8.4406,4.6284 0.87564,-0.79298 5.55128,-2.82729 10.39033,-4.52071 4.83904,-1.69341 8.79826,-3.68409 8.79826,-4.42373 0,-0.73964 0.5656,-1.17797 1.25689,-0.97403 2.0027,0.59081 28.84418,-15.85691 45.93126,-28.1454 32.35004,-23.26513 54.99899,-42.69915 66.68288,-57.21746 l 11.5135,-14.30663 -4.45615,-3.925182 c -2.4509,-2.158837 -4.83325,-3.947213 -5.29411,-3.974161 -0.46086,-0.02698 -3.85448,4.920921 -7.54137,10.995243 z m -130.30193,3.6116 c -0.47502,5.46313 -0.0876,10.57413 0.89456,11.80203 1.20598,1.50767 1.1429,2.7554 -0.20756,4.10586 -1.067,1.067 -1.94817,4.24012 -1.95814,7.05137 -0.0199,5.59293 -3.84528,19.64117 -6.99847,25.70076 -1.62185,3.11674 -1.28081,6.78674 1.82958,19.68881 2.10265,8.72189 4.49828,16.27534 5.32362,16.78544 2.10832,1.303 16.62199,-5.35962 16.62199,-7.63047 0,-1.02794 0.62912,-1.48017 1.39804,-1.00496 1.84512,1.14035 15.36055,-5.58519 15.36055,-7.6437 0,-0.87979 0.6525,-1.19636 1.44999,-0.70349 0.79749,0.49287 4.75671,-1.23201 8.79826,-3.83306 4.04155,-2.60105 11.66648,-7.37016 16.94429,-10.598 l 9.59602,-5.8688 -3.73051,-3.27803 c -2.05179,-1.80292 -6.46106,-5.27505 -9.79838,-7.71585 -4.90978,-3.59079 -27.61831,-24.84966 -45.88376,-42.9546 -6.1969,-6.142432 -8.71429,-4.550352 -9.64008,6.09669 z m 164.65704,3.09358 c 0,1.18534 -0.88229,2.70043 -1.96066,3.3669 -1.32625,0.81968 -1.59738,0.30943 -0.83793,-1.57696 0.61751,-1.53378 1.58047,-3.9199 2.13996,-5.30249 1.71819,-4.24604 -1.73792,-2.78506 -4.95552,2.09483 -1.68186,2.55072 -2.58637,3.19319 -2.02566,1.43882 0.85746,-2.68281 0.62101,-2.8444 -1.53906,-1.0517 -2.87404,2.38525 -3.53182,0.007 -0.76364,-2.76219 1.26744,-1.26743 0.99795,-2.09187 -0.92497,-2.82975 -1.6832,-0.64591 -2.29561,-0.36515 -1.61293,0.73946 0.6053,0.9794 -0.38374,3.4217 -2.19787,5.42735 -1.81414,2.00563 -4.19156,5.15489 -5.28318,6.99834 -1.81326,3.06213 -1.8843,2.98971 -0.82223,-0.83793 0.81202,-2.92647 -1.81653,-0.74103 -8.71824,7.24851 -5.43442,6.29098 -16.59589,16.80321 -24.8033,23.36048 l -14.92253,11.92233 5.33218,4.45148 c 2.93269,2.44833 7.38543,5.49412 9.89496,6.76845 2.50953,1.27432 11.13714,6.32321 19.17248,11.21979 13.73745,8.37132 40.56053,18.67572 42.79576,16.44049 0.55803,-0.55802 4.26387,-9.79891 8.2352,-20.53532 5.36258,-14.49759 6.75299,-20.0842 5.40332,-21.71043 -0.99951,-1.20436 -2.31057,-2.12454 -2.91346,-2.04485 -0.60289,0.0798 -2.44243,0.0556 -4.08787,-0.0536 -2.57189,-0.1706 -2.70977,-0.72761 -0.98252,-3.96914 1.88527,-3.53812 1.81788,-3.61565 -1.09275,-1.25689 -2.78625,2.25795 -2.99823,2.23655 -2.08286,-0.21039 0.68892,-1.8416 -0.29533,-3.32308 -3.03794,-4.5727 -4.62003,-2.10502 -4.95389,-4.33332 -1.54324,-10.29965 2.94191,-5.14633 3.1508,-7.29492 0.55314,-5.68949 -1.3577,0.8391 -1.60861,0.2253 -0.81588,-1.99593 0.8831,-2.47442 0.43246,-2.29902 -1.97131,0.76729 -2.66017,3.39338 -3.2687,3.57727 -4.1591,1.2569 -0.57366,-1.49493 -0.60894,-3.84926 -0.0784,-5.23185 0.53056,-1.38258 0.0853,-2.51379 -0.98942,-2.51379 -1.07473,0 -1.42502,-0.85601 -0.77839,-1.90226 0.76818,-1.24295 1.84913,-0.64388 3.11874,1.72841 1.0687,1.99689 2.4695,3.10428 3.11289,2.4609 1.93634,-1.93634 1.31563,-4.25083 -0.79085,-2.94896 -1.33023,0.82213 -1.60583,0.28708 -0.85712,-1.66399 0.65548,-1.70817 0.4309,-2.46005 -0.55314,-1.85188 -2.4263,1.49953 -2.02264,-1.91594 0.53192,-4.50077 1.20374,-1.218 2.74446,-3.68052 3.42385,-5.47228 1.20474,-3.17733 1.15071,-3.18127 -2.18861,-0.15921 -1.88306,1.70422 -3.42379,4.06837 -3.42379,5.2537 z m 5.00192,19.4316 c 0.0134,1.55862 -0.72848,3.29993 -1.6502,3.86959 -2.12097,1.31083 -2.12097,-0.90769 0,-4.18965 1.40001,-2.16636 1.62808,-2.12212 1.6502,0.32006 z m 0.0789,9.63644 c -0.0375,1.70237 0.67286,1.45508 2.4072,-0.83793 1.35326,-1.78918 2.48447,-4.33987 2.51379,-5.66819 0.0375,-1.70237 -0.67285,-1.45508 -2.4072,0.83793 -1.35326,1.78918 -2.48446,4.33987 -2.51379,5.66819 z m 3.62209,2.65679 c 0.51598,0.51598 1.45305,-0.41412 2.08238,-2.06689 0.90946,-2.38843 0.71697,-2.58092 -0.93814,-0.93814 -1.14532,1.1368 -1.66023,2.48905 -1.14424,3.00503 z m -102.49972,5.82117 c 0,2.23447 0.18049,2.23447 1.62453,0 0.8935,-1.38259 1.62453,-3.645 1.62453,-5.02758 0,-2.23448 -0.18049,-2.23448 -1.62453,0 -0.8935,1.38258 -1.62453,3.64499 -1.62453,5.02758 z m 23.47812,25.82842 c 2.81663,1.9245 10.55241,7.5699 17.19062,12.54531 14.94176,11.19901 38.00277,22.51906 46.19804,22.67741 3.35065,0.0647 6.6364,0.87185 7.30172,1.79357 0.71904,0.99616 2.28688,0.14647 3.8657,-2.09482 3.65646,-5.19089 6.87801,-4.80057 3.45806,0.41896 -2.40334,3.66795 -2.42734,4.18965 -0.19274,4.18965 1.40383,0 2.43269,-0.5656 2.28635,-1.2569 -0.1463,-0.69129 0.32391,-2.60916 1.04497,-4.26192 1.61238,-3.69578 1.30888,-4.00643 -4.96856,-5.08572 -10.23095,-1.75901 -28.85836,-9.26044 -41.31832,-16.6393 -9.80632,-5.80735 -13.31916,-7.14516 -14.91042,-5.6784 -1.61206,1.48594 -1.84887,1.2572 -1.0497,-1.01391 0.56758,-1.61301 0.3015,-2.93275 -0.59128,-2.93275 -0.8928,0 -1.62327,0.75414 -1.62327,1.67586 0,0.92172 -0.83481,1.67586 -1.85516,1.67586 -1.02033,0 -1.40605,-1.17037 -0.85712,-2.60084 0.57229,-1.49138 0.29135,-2.16407 -0.65863,-1.57695 -0.91116,0.56313 -1.65667,0.2489 -1.65667,-0.69829 0,-0.9472 -1.26212,-1.23784 -2.80473,-0.6459 -2.18775,0.83953 -2.54796,0.40715 -1.6375,-1.96548 0.94535,-2.46353 0.72244,-2.67262 -1.1725,-1.09996 -2.2936,1.90352 -7.79214,0.97779 -7.79214,-1.31187 0,-0.63875 0.94267,-2.23487 2.09482,-3.54692 1.15216,-1.31203 0.39214,-0.96358 -1.68894,0.77435 l -3.78378,3.15987 5.12118,3.49909 z m -28.08076,6.45108 c -18.70599,14.20407 -35.2186,24.01488 -51.12265,30.37408 l -6.23614,2.49349 2.61145,8.06605 c 1.43632,4.43631 3.01489,12.00932 3.50796,16.82889 0.49309,4.81957 1.74712,9.45496 2.78676,10.30088 1.03963,0.84593 10.67336,2.07861 21.40831,2.73931 18.91327,1.16405 19.5529,1.09152 20.64221,-2.34055 0.99231,-3.12652 2.40112,-3.54183 12.01445,-3.54183 11.49336,0 17.37341,1.95422 17.37341,5.77402 0,2.55202 21.60367,5.01347 35.12626,4.00219 6.32295,-0.47286 7.65279,-1.20451 8.63121,-4.74863 0.9385,-3.39953 1.19279,-3.55755 1.34838,-0.83793 0.17328,3.0289 0.39114,2.96094 2.26187,-0.70559 1.13856,-2.23152 3.10441,-4.39878 4.36855,-4.81613 1.36036,-0.44913 0.72499,1.36936 -1.55683,4.45565 -4.26303,5.76606 -3.93925,6.95504 1.96706,7.22378 7.07978,0.32211 7.90017,-0.20136 8.99398,-5.73875 1.50402,-7.61403 4.37354,-14.66376 5.96876,-14.66376 0.73924,0 0.36033,2.07387 -0.84204,4.60861 -3.22845,6.80596 -4.64048,15.90769 -2.34942,15.144 1.0346,-0.34486 4.08003,-7.75829 6.76764,-16.47428 2.68761,-8.71601 5.27497,-17.01022 5.74967,-18.43162 0.6532,-1.95578 -1.63599,-3.33293 -9.41216,-5.66226 -13.36162,-4.00244 -34.07133,-14.16508 -43.40637,-21.30032 -11.76383,-8.99167 -31.08025,-22.91782 -31.99585,-23.06734 -0.46087,-0.0752 -7.03377,4.56785 -14.60647,10.31804 z m 58.1788,28.15033 c 0,0.97612 -0.75414,1.30868 -1.67586,0.73902 -0.92172,-0.56966 -1.67586,-1.3683 -1.67586,-1.77477 0,-0.40646 0.75414,-0.73902 1.67586,-0.73902 0.92172,0 1.67586,0.79865 1.67586,1.77477 z m 22.73586,39.58924 c -1.25054,5.48927 -1.95522,6.69683 -2.34548,4.01919 -0.68927,-4.7292 0.99261,-11.86602 2.79637,-11.86602 0.7352,0 0.5323,3.53107 -0.45089,7.84683 z m -138.70531,-0.80822 c 1.56413,1.56413 2.01104,1.11725 2.01104,-2.01103 0,-3.12828 -0.44691,-3.57516 -2.01104,-2.01103 -1.56413,1.56413 -1.56413,2.45793 0,4.02206 z m 58.299,2.35421 c -4.692,1.8005 -0.99273,4.01406 6.70825,4.01406 4.45963,0 7.81337,0.84838 8.28104,2.09482 0.43228,1.15215 -0.15703,7.75085 -1.3095,14.66377 -1.91992,11.51603 -2.44644,12.6068 -6.28511,13.0209 -16.96754,1.83041 -21.06183,5.41355 -6.18581,5.41355 13.35599,0 14.34416,-1.34181 15.62663,-21.21891 1.09758,-17.01153 1.09455,-17.03005 -2.91415,-17.78727 -6.45645,-1.21957 -11.0924,-1.28647 -13.92135,-0.20092 z m -63.79704,23.87736 c 0.36687,0.36684 7.67398,1.35865 16.23802,2.20401 8.56406,0.84535 21.6041,2.13958 28.97788,2.87605 7.37378,0.73649 16.19028,1.00425 19.59222,0.59502 6.11972,-0.73616 6.19758,-0.842 7.33879,-9.97584 1.40955,-11.28173 0.64567,-11.91509 -14.37048,-11.91509 -14.37732,0 -50.3481,-3.63135 -53.61907,-5.41299 -2.07624,-1.13089 -2.71488,0.57427 -3.66908,9.7963 -0.6354,6.14104 -0.85512,11.46568 -0.48828,11.83254 z m 51.59447,-8.73647 c 1.56398,1.56398 -0.32598,3.9559 -3.12576,3.9559 -1.32818,0 -2.41488,-1.13121 -2.41488,-2.51379 0,-2.52423 3.53773,-3.44503 5.54064,-1.44211 z m 15.41493,2.29187 c 1.27242,2.05886 -3.33971,4.06751 -5.81991,2.53465 -0.9809,-0.60622 -1.34959,-1.80424 -0.81928,-2.66228 1.27908,-2.06961 5.32933,-1.99173 6.63919,0.1277 z m 19.26505,-5.24889 c 0,2.15068 1.58649,3.45952 5.02758,4.14775 3.9933,0.79866 5.02757,1.87602 5.02757,5.23706 0,3.58448 -0.7688,4.23154 -5.02757,4.23154 -4.01266,0 -5.02758,0.72061 -5.02758,3.56967 0,3.23771 0.69907,3.49088 7.51718,2.72238 15.28825,-1.72322 21.28392,-11.90421 11.52919,-19.57729 -6.00388,-4.72265 -19.04637,-4.94939 -19.04637,-0.33111 z m 26.81375,-0.7073 c 0,0.41749 0.84376,2.61094 1.87505,4.87434 1.44977,3.18192 1.33628,5.19528 -0.50038,8.87712 l -2.37543,4.76184 20.19172,0.11195 c 11.10545,0.0615 14.34716,-0.15753 7.20382,-0.48676 -7.14335,-0.32925 -12.98791,-1.3223 -12.98791,-2.20673 0,-0.88445 1.46497,-1.60809 3.25549,-1.60809 2.20481,0 3.07227,-0.95145 2.68776,-2.94802 -0.50149,-2.60405 0.73183,-2.90373 10.57034,-2.56852 7.56909,0.25788 10.33258,-0.13173 8.62429,-1.21597 -1.38258,-0.87752 -5.25826,-1.60702 -8.6126,-1.62113 -3.57438,-0.0151 -7.73642,-1.38992 -10.05516,-3.32162 -2.68102,-2.23352 -6.52233,-3.31394 -11.91666,-3.35172 -4.37819,-0.0307 -7.96033,0.28584 -7.96033,0.70333 z m 25.97581,2.59264 c 7.60336,1.93473 16.27846,1.93473 15.08273,0 -0.56966,-0.92172 -5.32752,-1.58664 -10.57303,-1.47759 -7.8825,0.1639 -8.66496,0.42026 -4.5097,1.47759 z m -0.41896,9.53451 c 1.61301,0.42152 4.25249,0.42152 5.8655,0 1.61302,-0.42152 0.29328,-0.76642 -2.93275,-0.76642 -3.22603,0 -4.54577,0.3449 -2.93275,0.76642 z m -135.96118,17.36385 c -4.35363,11.02863 -20.72428,31.63145 -46.28849,58.25507 -20.64186,21.49727 -20.72895,21.74209 -12.87323,36.18589 5.95161,10.94284 12.53484,17.75698 17.15523,17.75698 3.9379,0 25.87637,-11.4588 24.52526,-12.80991 -0.42535,-0.42534 -5.77151,1.58817 -11.88036,4.47447 -6.10886,2.8863 -12.03943,4.9043 -13.17903,4.48447 -1.13961,-0.41986 0.1904,-1.33471 2.95557,-2.033 2.76516,-0.6983 6.15878,-2.20175 7.54136,-3.34101 1.38259,-1.13925 7.14199,-4.11928 12.79867,-6.62229 5.65667,-2.503 12.82097,-7.18776 15.92066,-10.41057 l 5.63578,-5.85966 -10.05516,4.41733 c -5.53033,2.42954 -10.77158,5.13116 -11.64721,6.00359 -3.04004,3.02897 -4.77664,1.56827 -1.90629,-1.60341 1.58764,-1.75434 7.54908,-4.88608 13.24764,-6.95944 9.44712,-3.43723 21.2541,-11.96203 21.2541,-15.34574 0,-1.83538 -16.28233,6.48615 -20.6464,10.55188 -4.67283,4.35343 -7.48165,4.09248 -3.49433,-0.32463 3.53578,-3.91687 25.80157,-15.68814 25.84225,-13.66202 0.0317,1.58162 3.26487,-3.28217 3.3004,-4.96504 0.037,-1.75028 -7.08513,1.21053 -15.13393,6.29151 -3.8188,2.41069 -7.33411,3.99222 -7.81185,3.51448 -0.96182,-0.96182 5.88723,-5.38148 19.06084,-12.29982 5.87668,-3.08624 9.52823,-6.37128 11.36603,-10.22515 l 2.70766,-5.67806 -5.5005,3.27686 c -13.66546,8.141 -25.02834,14.12499 -25.64696,13.50637 -0.37137,-0.37138 6.23396,-4.61125 14.6785,-9.42195 13.07438,-7.44824 15.69797,-8.40248 17.67265,-6.42779 1.86863,1.86863 1.94628,3.58199 0.39981,8.82309 -1.05908,3.58936 -2.35445,24.58549 -2.89052,46.85131 -1.29125,53.63287 0.57284,61.47076 15.18357,63.84175 4.34478,0.70506 7.344,0.1091 10.68197,-2.1229 2.55259,-1.70676 5.20668,-3.21706 5.89797,-3.35624 0.69129,-0.1391 1.8225,-0.43661 2.51379,-0.66098 0.69129,-0.22436 1.67234,-0.36868 2.18012,-0.32071 0.50777,0.0479 1.8567,-1.4075 2.99763,-3.23439 2.01249,-3.22249 1.94741,-3.23844 -2.18013,-0.53398 -2.35379,1.54228 -4.25452,1.99533 -4.25452,1.0141 0,-2.15993 6.79638,-7.13157 8.39686,-6.14241 2.60238,1.60836 16.78269,-58.34495 14.37046,-60.75718 -0.29842,-0.29842 -4.16498,4.75897 -8.59235,11.23865 -4.42737,6.47969 -8.42891,11.40209 -8.89232,10.93866 -0.46341,-0.4634 3.6259,-7.35115 9.08738,-15.3061 l 9.92993,-14.46355 0.57871,-16.61182 c 0.40416,-11.60187 1.16229,-16.41717 2.51379,-15.96645 1.32939,0.44337 2.02256,8.41179 2.21456,25.45816 0.19576,17.37997 0.88859,25.18923 2.31289,26.0695 1.40668,0.86938 1.67629,3.63819 0.87473,8.98337 -0.75866,5.05912 -0.54466,7.72665 0.61987,7.72665 0.97819,0 1.77853,-1.45917 1.77853,-3.24262 0,-3.89087 3.1435,-12.60695 4.17482,-11.57564 0.40112,0.40113 -0.36517,4.84201 -1.70286,9.86861 -3.02202,11.35572 -3.02864,21.07535 -0.024,35.09443 2.64752,12.35229 7.95118,18.45513 16.03842,18.45513 4.55948,0 4.78136,-0.29274 3.25827,-4.29874 -2.11195,-5.55487 -2.09172,-9.5886 0.0416,-8.2702 0.92172,0.56966 1.67585,2.54908 1.67585,4.39873 0,1.84964 0.8352,4.92355 1.856,6.83093 1.48865,2.78156 2.14694,3.00852 3.32605,1.14673 1.05904,-1.67223 1.47725,-1.73554 1.49573,-0.22641 0.0134,1.15215 0.90549,2.09482 1.98084,2.09482 1.07533,0 1.46413,-0.49104 0.86397,-1.09118 -0.60016,-0.60016 0.0226,-1.9199 1.38404,-2.93276 2.05289,-1.52734 2.60028,-10.12738 3.20808,-50.40228 0.48876,-32.38763 1.33015,-48.75982 2.52629,-49.15853 1.07907,-0.35968 1.84038,2.29489 1.91125,6.66424 0.1582,9.75558 2.94836,16.633 3.11613,7.68102 0.18674,-9.96285 2.63158,-7.29381 2.63158,2.87291 0,6.57754 0.847,10.00043 3.00649,12.14997 2.88912,2.87576 2.9904,2.74955 2.59421,-3.23264 -0.70407,-10.63142 1.43059,-8.71134 2.66611,2.3981 0.64412,5.79182 2.31294,12.29281 3.70848,14.44666 3.67219,5.66764 4.57379,3.34577 1.52975,-3.93961 -1.43657,-3.43821 -2.54452,-8.23308 -2.4621,-10.65525 0.11429,-3.35949 0.66456,-2.61541 2.32011,3.13741 1.19365,4.14775 2.96376,9.42671 3.93358,11.73102 l 1.7633,4.18964 0.23502,-5.02757 c 0.23358,-4.99696 0.24699,-4.98934 2.20104,1.2501 1.08132,3.45274 3.6933,7.47606 5.80439,8.9407 3.73752,2.59304 3.8098,2.54918 2.75107,-1.66908 -1.69908,-6.7697 0.45817,-5.09379 4.13101,3.20929 3.28239,7.42039 4.39329,8.18964 11.06574,7.66258 3.66312,-0.28935 5.44903,-0.97801 19.52652,-7.52957 9.63656,-4.48478 15.7968,-11.11332 14.19865,-15.27802 -0.48654,-1.26792 -4.15521,-4.035 -8.15259,-6.14909 -10.30678,-5.45088 -31.56294,-22.7367 -37.69925,-30.65753 -10.63755,-13.73107 -25.58025,-48.18474 -25.58025,-58.98084 0,-2.01634 -0.86429,-4.20022 -1.92063,-4.85308 -1.40397,-0.8677 -1.65667,1.69784 -0.93941,9.53729 0.61344,6.7045 0.45371,9.15388 -0.4261,6.53465 -0.77403,-2.30431 -1.48251,-6.94173 -1.57438,-10.30538 -0.16474,-6.02788 -0.27714,-6.12448 -7.8327,-6.72539 -7.89112,-0.62761 -9.72213,0.36195 -11.35668,6.13768 -0.52171,1.84345 -0.73347,0.90078 -0.4706,-2.09482 l 0.47798,-5.44654 -22.33384,0 c -18.47328,0 -22.33386,0.42335 -22.33386,2.4492 0,6.13651 -28.58736,7.61986 -32.91045,1.70767 -1.19636,-1.63613 -1.81212,-3.56229 -1.36834,-4.28035 0.44377,-0.71806 -3.16253,-1.72325 -8.01403,-2.23379 -4.85147,-0.51053 -14.4769,-1.5495 -21.38982,-2.30881 -6.91292,-0.75932 -13.01695,-0.96275 -13.56454,-0.45208 -0.54757,0.51068 -2.64796,5.11434 -4.66754,10.23035 z m 140.56979,5.22228 c 0,8.23292 -0.79511,7.9984 -2.3674,-0.69828 -0.71932,-3.97864 -0.49344,-6.28447 0.61561,-6.28447 0.96348,0 1.75179,3.14223 1.75179,6.98275 z m -5.59075,0.98924 c 0.19569,5.661 -0.13223,6.98403 -1.1391,4.59695 -1.79153,-4.247 -2.0518,-12.57268 -0.39255,-12.55728 0.69129,0.007 1.38054,3.58855 1.53165,7.96033 z m -12.35319,-4.63913 c -0.47937,1.83309 -1.57659,2.89714 -2.43828,2.36459 -0.92449,-0.57137 -0.76228,-1.93755 0.39574,-3.33287 2.64355,-3.18529 3.0752,-2.98065 2.04254,0.96828 z m 19.3552,15.10158 c 0,2.30431 -0.38039,3.24698 -0.84529,2.09483 -0.4649,-1.15215 -0.4649,-3.0375 0,-4.18965 0.4649,-1.15215 0.84529,-0.20948 0.84529,2.09482 z m -58.39047,30.31846 c 0,2.23482 -1.9835,7.828 -4.40776,12.42929 -5.33686,10.12941 -14.02669,22.3266 -14.02669,19.68809 0,-1.0489 0.77291,-2.38479 1.71759,-2.96863 2.22282,-1.37377 13.22182,-23.19722 13.8865,-27.55263 0.7714,-5.05471 2.83036,-6.21581 2.83036,-1.59612 z m 14.02644,21.0113 c -0.43547,3.56805 -1.45678,11.0122 -2.26953,16.54254 -1.26761,8.62524 -1.34848,7.91029 -0.56871,-5.02758 0.49996,-8.2955 1.52126,-15.73965 2.26954,-16.54254 0.74827,-0.8029 1.00419,1.45951 0.5687,5.02758 z m -18.98839,6.06842 c -2.84361,3.91732 -6.71177,9.00774 -8.5959,11.31205 l -3.42569,4.18964 2.03184,-4.18964 c 3.15221,-6.49987 11.99842,-18.43445 13.66407,-18.43445 0.82273,0 -0.83071,3.20508 -3.67432,7.1224 z m -1.69399,30.73086 c -1.35646,1.7629 -5.23091,6.30155 -8.6099,10.08587 -7.48282,8.38051 -10.78016,14.06765 -8.15625,14.06765 1.00855,0 1.36765,0.75414 0.79799,1.67586 -1.60364,2.59475 -4.18964,1.97862 -4.18964,-0.99819 0,-3.09808 4.8376,-10.41268 13.1942,-19.95005 6.02242,-6.87337 11.39323,-10.63805 6.9636,-4.88114 z m 111.86349,8.34804 c 5.12975,5.36915 5.25011,5.75033 1.81552,5.75033 -2.02314,0 -3.22108,-0.45735 -2.6621,-1.01633 0.55897,-0.55898 -0.44655,-2.58652 -2.23449,-4.50565 -1.78794,-1.91912 -3.2508,-4.10126 -3.2508,-4.84918 0,-1.93364 0.23002,-1.76578 6.33187,4.62083 z m -83.43403,0.8624 c -0.007,2.2275 -0.79274,8.85742 -1.74613,14.73316 -1.92295,11.85099 -1.05893,15.37655 1.63664,6.67817 1.53046,-4.93863 1.6336,-4.47274 0.83957,3.79227 -0.70532,7.34162 -0.30289,10.02492 1.82217,12.14997 2.4112,2.41121 2.42578,2.7274 0.12585,2.7274 -1.48541,0 -3.01819,-1.97723 -3.57264,-4.60862 -0.5341,-2.53473 -1.71032,-5.96718 -2.61381,-7.62765 -1.08601,-1.9959 -1.00531,-7.67431 0.23811,-16.75581 1.89441,-13.83599 3.29368,-18.58067 3.27027,-11.08889 z m -35.22547,12.20476 c 0.0248,0.79825 -2.47505,4.946 -5.55521,9.21723 -3.08016,4.27124 -6.07304,9.08563 -6.65084,10.69865 -0.57781,1.61301 -1.87661,2.93275 -2.88624,2.93275 -1.02507,0 -0.26679,-2.77516 1.71716,-6.28447 4.14312,-7.3286 13.30938,-18.68038 13.37513,-16.56416 z m 94.87708,-13.85897 c 3.98028,4.39814 12.42298,8.9027 12.42298,6.62821 0,-0.92172 -2.1288,-2.7767 -4.73067,-4.12218 -2.60187,-1.34548 -5.72589,-3.64548 -6.94224,-5.11112 -1.21638,-1.46564 -2.60226,-2.27412 -3.07975,-1.79664 -0.47748,0.47749 0.57088,2.45827 2.32968,4.40173 z M 119.64027,50.397657 c 2.0816,6.949201 6.4939,14.835324 13.73326,24.54557 5.86647,7.868745 10.66629,15.646038 10.66629,17.282883 0,7.209768 -20.23092,40.87428 -38.87649,64.69103 -4.42616,5.65369 -8.047558,10.70265 -8.047558,11.21987 0,1.44166 -21.48086,21.6892 -31.841322,30.01318 -13.756708,11.05266 -15.20951,11.64092 -19.226963,7.7854 -1.868432,-1.79312 -6.109813,-5.47617 -9.425316,-8.18459 l -6.028199,-4.92438 -3.633011,13.57386 c -4.419492,16.51239 -8.221446,24.86807 -11.3153,24.86807 -1.277558,0 -2.322841,-0.75414 -2.322841,-1.67586 0,-0.92172 0.69352,-1.67586 1.54117,-1.67586 1.927355,0 6.017138,-12.28864 9.197852,-27.63686 2.324617,-11.21733 2.276855,-11.98516 -1.121938,-18.03251 -1.952476,-3.47396 -4.019212,-5.74304 -4.592725,-5.04238 -1.320828,1.61359 -10.783582,27.41092 -13.5785132,37.01763 -1.7741482,6.09812 -1.7303077,7.48908 0.2750755,8.72848 1.8032076,1.11445 1.9132445,1.94666 0.4507558,3.40915 -1.064137,1.06414 -2.7546262,1.4281 -3.7566726,0.80881 -2.9412332,-1.81779 -2.11097912,-10.23582 2.202062,-22.32685 2.2131562,-6.20432 7.1642135,-20.09252 11.0023495,-30.86266 l 6.978411,-19.58207 -3.460984,-3.46099 c -4.209222,-4.20922 -4.784025,-14.78949 -0.88477,-16.28578 1.416905,-0.54372 3.99436,0.29483 5.727651,1.86345 3.019043,2.73219 3.402831,2.45906 9.133984,-6.50019 3.290399,-5.14371 6.658088,-9.35221 7.483767,-9.35221 3.021523,0 3.094172,6.56203 0.145632,13.14795 -3.987991,8.90744 -0.29532,7.71432 6.071252,-1.96169 2.531988,-3.84813 8.439308,-11.77044 13.127373,-17.60513 4.688064,-5.83469 10.786164,-13.43424 13.551331,-16.887872 4.933997,-6.162483 14.091662,-18.851116 31.476587,-43.613174 4.80921,-6.84999 9.53981,-12.708424 10.51244,-13.01876 0.97264,-0.310352 3.14857,4.043178 4.83543,9.674483 z m -10.79349,6.806837 c 0,0.693286 1.31974,2.245952 2.93276,3.450376 3.18361,2.377155 4.79584,13.927394 2.17053,15.549927 -0.87087,0.538219 -2.38689,-0.522717 -3.36891,-2.357649 -1.77064,-3.308481 -6.76195,-3.124505 -6.76195,0.249251 0,0.921722 1.21509,1.209585 2.70022,0.639675 2.24389,-0.861056 2.48713,-0.254144 1.43926,3.5914 -0.69352,2.545143 -1.16194,6.512891 -1.04092,8.817197 0.13423,2.555216 -0.28723,3.397016 -1.08026,2.157836 -2.26672,-3.541928 -8.722877,-0.371605 -11.16995,5.485051 -1.345246,3.21965 -4.652637,6.749742 -7.893883,8.425432 -5.046631,2.60906 -5.359246,2.61967 -3.27855,0.11128 1.990586,-2.39971 1.905402,-2.77276 -0.633139,-2.77276 -2.474524,0 -2.76857,1.0294 -1.880499,6.58316 1.293613,8.08973 -1.658162,11.82959 -8.330075,10.55418 -4.375182,-0.83637 -4.507776,-0.64977 -3.583774,5.04415 1.007476,6.20835 -0.901227,9.64119 -5.385256,9.68549 -4.920506,0.0486 -7.364646,3.06048 -8.363307,10.30601 -0.991707,7.19492 -1.061054,7.26018 -7.20539,6.77942 -6.495496,-0.50823 -7.650782,1.06371 -8.841128,12.02967 -0.211259,1.94617 -0.480335,4.05328 -0.59798,4.68245 -0.117646,0.62918 -1.722147,1.62267 -3.565592,2.20776 -2.77048,0.87932 -3.351718,2.53562 -3.351718,9.55124 0,7.56124 0.653099,9.1034 5.984828,14.13187 3.291655,3.10447 7.080907,5.64446 8.420555,5.64446 1.339648,0 4.485537,-3.39362 6.990879,-7.54137 6.033361,-9.98866 8.608369,-9.73935 3.002486,0.29068 -2.407589,4.30763 -3.752617,8.45685 -2.988978,9.22049 2.339818,2.33982 11.274174,-8.90714 16.208691,-20.40425 4.338061,-10.10741 11.414644,-20.60159 8.75819,-12.98791 -0.562804,1.61301 -0.630626,2.93275 -0.150827,2.93275 0.479882,0 1.661195,-2.26241 2.625132,-5.02757 0.963954,-2.76517 2.432996,-5.02758 3.264557,-5.02758 2.204475,0 1.958493,0.906 -2.790406,10.27751 -2.366279,4.66961 -3.965418,8.82713 -3.553625,9.23891 1.664044,1.66406 11.516218,-14.22305 13.90234,-22.4182 1.404001,-4.822 3.338194,-9.25272 4.298209,-9.84606 1.075617,-0.66476 1.38555,0.12737 0.807597,2.06386 -2.244411,7.52045 -3.144113,13.10479 -1.93002,11.97947 1.751273,-1.62324 8.803753,-19.08252 10.109383,-25.027 0.57013,-2.59582 1.76295,-5.16857 2.65071,-5.71722 1.89923,-1.17379 0.44393,5.8218 -2.95495,14.20434 -1.27201,3.13713 -1.99226,6.02433 -1.60056,6.41605 1.40464,1.40462 9.7232,-14.75826 11.96032,-23.23877 1.25529,-4.75858 3.07515,-9.44477 4.04415,-10.41377 2.27108,-2.27107 2.2607,-0.12753 -0.0201,4.13413 -0.98001,1.83116 -1.50517,4.60958 -1.16703,6.17429 0.91552,4.23659 8.12816,-10.35638 10.60423,-21.45503 1.82523,-8.181322 2.08135,-8.558022 2.27902,-3.35172 0.18138,4.77733 0.53493,5.32974 1.90575,2.9776 0.92569,-1.58836 1.35962,-7.196842 0.96429,-12.463329 -0.60522,-8.062507 -1.74735,-10.849008 -7.22867,-17.636321 -3.58042,-4.433502 -7.9853,-11.863021 -9.78861,-16.510044 -2.90867,-7.495498 -3.51798,-8.121934 -5.39844,-5.550227 -1.16571,1.594378 -2.11958,3.466112 -2.11958,4.159415 z M 93.764054,79.225332 c 0,3.379135 4.225809,-0.19807 4.657879,-3.942945 0.45344,-3.930124 0.38723,-3.955563 -2.09482,-0.805317 -1.409682,1.789181 -2.563059,3.925901 -2.563059,4.748262 z m 41.947436,15.04174 c 0.0406,4.332366 0.38391,4.876066 1.67853,2.657816 0.89517,-1.5338 1.16862,-3.984745 0.60768,-5.446546 -1.57662,-4.108587 -2.34202,-3.174949 -2.28621,2.78873 z m -52.216363,-0.83793 c -2.084551,2.658016 -2.025276,2.717286 0.632738,0.632738 2.791562,-2.189292 3.679315,-3.565491 2.300015,-3.565491 -0.347992,0 -1.667731,1.319739 -2.932753,2.932753 z M 71.474106,109.00042 c -0.578892,2.21373 -0.19641,3.23927 1.054619,2.82761 1.079621,-0.35526 2.214899,-2.36737 2.522854,-4.47136 0.678573,-4.63635 -2.292139,-3.27137 -3.577473,1.64375 z m -11.963572,16.68901 c -1.069701,4.02641 -1.01175,4.0629 1.487493,0.93658 1.430312,-1.78917 2.600564,-4.39094 2.600564,-5.78171 0,-3.54253 -2.714389,-0.32546 -4.088057,4.84513 z m -12.82426,15.36997 c -1.421531,2.65617 -1.363915,3.29105 0.249904,2.7531 1.153628,-0.38454 2.724981,-2.39535 3.49187,-4.46849 1.695517,-4.58341 -1.042552,-3.32818 -3.741774,1.71539 z m -28.282585,0.13172 c 0.02933,1.15216 1.182335,3.58854 2.562288,5.4142 2.428253,3.21258 2.484461,3.18561 1.747083,-0.83792 -0.419032,-2.28653 -0.81792,-4.72292 -0.886412,-5.41421 -0.214627,-2.16628 -3.47905,-1.36715 -3.422959,0.83793 z m 6.280634,31.84133 c 1.596675,3.31067 1.818525,2.85067 1.818525,-3.77069 0,-6.62135 -0.22185,-7.08136 -1.818525,-3.77068 -1.307472,2.711 -1.307472,4.83036 0,7.54137 z m 44.978264,12.23702 c -0.57229,1.49138 -0.291349,2.16407 0.658629,1.57695 0.911165,-0.56312 1.65667,-1.73351 1.65667,-2.60083 0,-2.41061 -1.201205,-1.87941 -2.315299,1.02388 z M 409.99957,58.967732 c 4.58436,5.819236 9.76066,13.046278 11.50286,16.060092 1.74221,3.013815 4.08905,5.126101 5.21519,4.693964 1.12615,-0.432153 1.70496,0.118484 1.28624,1.223763 -1.01612,2.682128 13.61364,27.036319 25.891,43.100749 5.42873,7.10329 10.69786,14.46115 11.70918,16.35082 2.45887,4.59445 5.61079,3.84514 11.05834,-2.62891 7.85138,-9.33084 14.35601,-5.71334 8.41476,4.67981 -3.39166,5.9331 -3.26516,6.15491 4.18964,7.34698 4.25318,0.68012 6.70344,1.96198 6.70344,3.50694 0,3.6862 -6.46883,6.38128 -12.83634,5.34798 -3.97481,-0.64502 -5.32268,-0.35347 -4.50235,0.97386 2.18126,3.52938 1.69806,12.67042 -0.6227,11.77986 -5.60762,-2.15185 0.76992,13.61423 9.03896,22.34542 2.60303,2.74851 6.57262,6.26435 8.82132,7.81298 4.48563,3.08912 3.836,5.448 -1.07142,3.89044 -4.79236,-1.52103 -15.46205,-12.61912 -19.22693,-19.9989 -2.57208,-5.04169 -3.74786,-6.07742 -4.87615,-4.29535 -3.59071,5.67133 1.55677,22.78644 7.92502,26.35031 1.69282,0.94734 2.62648,2.17384 2.0748,2.72553 -3.34367,3.34366 -12.77787,-8.49773 -14.3145,-17.96695 l -0.95866,-5.90747 -5.25481,2.99804 c -2.89013,1.64891 -8.16475,3.92052 -11.72136,5.04799 l -6.46658,2.04996 -10.85692,-10.66419 c -5.97131,-5.86529 -15.07606,-16.3202 -20.2328,-23.23312 -5.15674,-6.91292 -13.5751,-18.18871 -18.70746,-25.0573 -5.13239,-6.86859 -14.10801,-17.58503 -19.94583,-23.81432 -6.09786,-6.50676 -10.11605,-12.13205 -9.44341,-13.22038 2.28609,-3.698982 24.96115,21.98281 48.16407,54.55063 11.34553,15.9247 11.34307,15.92182 23.4761,27.55833 l 9.5132,9.12386 10.09171,-4.82339 10.09172,-4.82341 0,-9.66374 c 0,-7.45824 -0.66932,-10.04 -2.93276,-11.31243 -1.70843,-0.96042 -2.93275,-3.61871 -2.93275,-6.36774 0,-4.12305 -0.7049,-4.78664 -5.58125,-5.25424 -4.47679,-0.42929 -5.35113,-1.09254 -4.41847,-3.35172 3.54378,-8.58402 3.02692,-9.55327 -4.67548,-8.76774 -3.51498,0.35846 -5.7773,-4.43212 -3.27481,-6.93459 3.5994,-3.59939 -1.9908,-10.98478 -5.87477,-7.76137 -1.53127,1.27084 -2.82639,1.2247 -4.49499,-0.16021 -1.88,-1.56024 -1.96302,-2.95457 -0.41942,-7.04406 1.6714,-4.42803 1.49671,-5.41158 -1.32805,-7.47709 -1.78895,-1.30811 -4.53608,-2.37838 -6.10474,-2.37838 -3.21287,0 -6.04696,-5.4787 -3.30662,-6.392162 0.97448,-0.32473 1.77177,-2.32504 1.77177,-4.44504 0,-4.201508 -5.24795,-6.706448 -8.09195,-3.862448 -3.23446,3.234458 -5.34825,-0.4223 -4.24224,-7.338889 l 1.07994,-6.753594 -5.68491,0.570261 c -4.82775,0.48429 -5.76568,0.0017 -6.22046,-3.200405 -0.29453,-2.073875 0.25368,-3.770683 1.21827,-3.770683 2.81234,0 7.03309,-7.650481 5.87942,-10.656955 -1.59567,-4.158208 -3.40175,-3.331323 -5.89001,2.696625 -5.24408,12.70405 -24.90793,38.1258 -29.49051,38.1258 -2.98377,0 -2.74675,-2.475152 0.49464,-5.165252 5.14865,-4.273009 17.17203,-21.086534 23.3357,-32.632733 3.41753,-6.401916 6.7776,-12.253295 7.46679,-13.003058 0.68922,-0.749746 5.00397,3.398006 9.58833,9.217225 z m -5.24631,13.284099 c 1.69066,2.735538 4.07229,1.524378 4.07229,-2.070943 0,-2.960003 -0.41876,-3.209387 -2.49534,-1.485984 -1.37243,1.139031 -2.08207,2.739644 -1.57695,3.556927 z m 9.09987,9.865263 c 0,2.234473 1.11724,3.351718 3.35171,3.351718 3.2297,0 4.54141,-3.279271 2.23448,-5.586191 -2.30692,-2.306938 -5.58619,-0.995226 -5.58619,2.234473 z m 10.05515,14.052064 c 0,2.41409 1.65915,5.084022 4.18965,6.742062 3.93413,2.57774 4.18965,2.56113 4.18965,-0.27229 0,-3.528942 -4.50631,-10.466682 -6.79846,-10.466682 -0.86947,0 -1.58084,1.798616 -1.58084,3.99691 z m 14.05029,20.826752 c 2.49382,2.49385 2.7083,2.42551 2.7083,-0.86286 0,-1.96414 -0.94267,-3.89797 -2.09482,-4.29739 -3.24289,-1.1242 -3.63125,2.14248 -0.61348,5.16025 z m 8.36314,12.93845 c 1.16743,3.0423 4.40032,3.24793 4.40032,0.27989 0,-3.05084 -3.97437,-6.84652 -4.74575,-4.53238 -0.32891,0.98669 -0.17345,2.90031 0.34543,4.25249 z m 31.15958,13.43974 c -2.02375,3.27451 -3.30996,6.32325 -2.85823,6.775 0.7328,0.73278 7.94029,-10.14754 7.94029,-11.98652 0,-1.98216 -1.73698,-0.20096 -5.08206,5.21152 z m -21.73169,-2.60194 c 0,0.92172 0.79865,1.67586 1.77477,1.67586 0.97612,0 1.30868,-0.75414 0.73902,-1.67586 -0.56966,-0.92173 -1.3683,-1.67586 -1.77477,-1.67586 -0.40646,0 -0.73902,0.75413 -0.73902,1.67586 z m 25.13789,13.40687 c 0,0.92173 1.84083,1.67586 4.09074,1.67586 2.2499,0 4.55682,-0.75413 5.12648,-1.67586 0.60427,-0.97772 -1.09983,-1.67585 -4.09074,-1.67585 -2.81956,0 -5.12648,0.75413 -5.12648,1.67585 z m -11.93559,11.18636 c 1.4606,2.51173 1.78762,2.58412 1.82947,0.40501 0.0541,-2.82229 -1.70802,-5.36342 -2.89575,-4.17569 -0.39173,0.39173 0.0881,2.08854 1.06628,3.77068 z m -0.94022,9.23817 c 0.53497,1.33689 0.93208,0.93979 1.01249,-1.0125 0.0727,-1.76662 -0.32333,-2.75644 -0.8802,-2.19957 -0.55687,0.55689 -0.61641,2.00232 -0.13222,3.21207 z"
     id="path9017"
     inkscape:connector-curvature="0" />
</svg>
