<?xml version="1.0" encoding="UTF-8" standalone="no"?>
<!-- Created with Inkscape (http://www.inkscape.org/) -->

<svg
   xmlns:dc="http://purl.org/dc/elements/1.1/"
   xmlns:cc="http://creativecommons.org/ns#"
   xmlns:rdf="http://www.w3.org/1999/02/22-rdf-syntax-ns#"
   xmlns:svg="http://www.w3.org/2000/svg"
   xmlns="http://www.w3.org/2000/svg"
   xmlns:sodipodi="http://sodipodi.sourceforge.net/DTD/sodipodi-0.dtd"
   xmlns:inkscape="http://www.inkscape.org/namespaces/inkscape"
   id="svg14944"
   version="1.1"
   inkscape:version="0.48.4 r9939"
   width="207"
   height="351"
   sodipodi:docname="Lockpicks.png">
  <metadata
     id="metadata14950">
    <rdf:RDF>
      <cc:Work
         rdf:about="">
        <dc:format>image/svg+xml</dc:format>
        <dc:type
           rdf:resource="http://purl.org/dc/dcmitype/StillImage" />
        <dc:title></dc:title>
      </cc:Work>
    </rdf:RDF>
  </metadata>
  <defs
     id="defs14948" />
  <sodipodi:namedview
     pagecolor="#ffffff"
     bordercolor="#666666"
     borderopacity="1"
     objecttolerance="10"
     gridtolerance="10"
     guidetolerance="10"
     inkscape:pageopacity="0"
     inkscape:pageshadow="2"
     inkscape:window-width="1271"
     inkscape:window-height="747"
     id="namedview14946"
     showgrid="false"
     inkscape:zoom="2.6894587"
     inkscape:cx="174.75075"
     inkscape:cy="99.550118"
     inkscape:window-x="-1"
     inkscape:window-y="22"
     inkscape:window-maximized="0"
     inkscape:current-layer="svg14944" />
  <path
     style="fill:#ddc900;fill-opacity:1;stroke:none"
     d="m 164.71716,180.33369 -0.37182,146.8697 7.80826,4.46186 c 4.5599,3.0782 10.53124,0.51063 15.98835,0 l 4.09004,-154.67796 c -7.81418,-16.35911 -20.60999,-6.27852 -27.51483,3.3464 z"
     id="path15486"
     inkscape:connector-curvature="0"
     sodipodi:nodetypes="cccccc" />
  <path
     style="fill:#ddc900;fill-opacity:1;stroke:none"
     d="m 141.6642,180.33369 c 9.22915,-17.10606 14.65786,-10.75914 21.9375,-5.20551 l 0,155.79343 c -7.43644,10.62277 -14.87289,7.55576 -22.30933,1.48729 z"
     id="path15484"
     inkscape:connector-curvature="0"
     sodipodi:nodetypes="ccccc" />
  <path
     style="fill:#ddc900;fill-opacity:1;stroke:none"
     d="m 117.86758,175.5 c 10.28281,-8.29265 19.35108,-13.34651 20.82204,1.85911 6.80278,56.04258 2.23093,103.61441 3.3464,155.42161 -7.16778,5.90907 -14.89403,6.23345 -23.05297,2.23093 2.62875,-138.687 -0.74365,-106.3411 -1.11547,-159.51165 z"
     id="path15482"
     inkscape:connector-curvature="0"
     sodipodi:nodetypes="ccccc" />
  <path
     style="fill:#ddc900;fill-opacity:1;stroke:none"
     d="m 92.583687,190.00106 4.090042,145.38241 c 7.931831,5.82971 16.360551,5.69677 25.283901,-0.37182 l -4.46187,-159.88347 c -21.339195,-12.4226 -20.267181,5.03641 -24.912073,14.87288 z"
     id="path15480"
     inkscape:connector-curvature="0"
     sodipodi:nodetypes="ccccc" />
  <path
     style="fill:#9d9d9d;fill-opacity:1;stroke:none"
     d="m 164.71716,22.309322 17.10381,-10.411017 3.16049,156.351165 -11.15466,0.92956 -0.55773,-77.153077 c -0.7737,-9.351066 -1.09454,-19.866613 -5.20551,-20.636123 3.17127,-6.197034 7.43505,-12.394068 -1.85911,-18.591102 1.40647,-3.71822 -0.6279,-7.436441 -2.60275,-11.154661 12.09376,-7.324061 8.69661,-13.486303 1.11546,-19.334745 z"
     id="path15478"
     inkscape:connector-curvature="0"
     sodipodi:nodetypes="ccccccccc" />
  <path
     style="fill:#9d9d9d;stroke:none;stroke-width:1px;stroke-linecap:butt;stroke-linejoin:miter;stroke-opacity:1;fill-opacity:1"
     d="m 102.62288,171.40996 5.94915,-0.55774 -0.37182,-72.319381 9.66737,-16.731992 12.82787,-6.135064 -2.60276,-12.641949 -25.84163,30.489407 -2.416844,9.481459 z"
     id="path15476"
     inkscape:connector-curvature="0" />
  <path
     style="fill:#9d9d9d;fill-opacity:1;stroke:none"
     d="M 85.843413,334.25791 C 83.70561,332.1201 83.943124,328.1054 83.465543,277.40682 83.043553,232.60959 82.290081,202.82193 80.817518,172.72028 80.13346,158.73697 80.194317,155.23615 81.2635,147.06456 82.609539,136.77701 82.564313,125.10471 80.666236,110.62285 78.863049,96.864979 77.543498,94.469293 74.46871,91.123976 c -2.34543,-2.551787 -3.397442,-1.869743 -20.006577,0.185911 -14.888842,1.84274 -22.370319,1.562628 -22.989137,-0.04999 -0.245974,-0.640999 -0.127955,-3.715655 0.262265,-4.105875 1.920126,-1.920127 35.516322,-5.962426 42.449265,-5.042738 4.618438,0.612657 8.584298,3.056613 9.755316,7.407891 0.858482,3.189953 1.995162,15.16188 3.27035,35.50105 0.838393,13.37231 1.406826,16.34382 4.440582,24.47981 1.576964,4.22913 1.69676,6.05221 2.29668,34.95127 0.348113,16.76917 0.956413,46.23607 1.579003,65.25476 1.077709,32.92159 2.247486,83.9133 1.580421,84.58037 -0.172079,0.17208 -3.358851,1.09012 -5.036697,1.35842 -2.483842,0.39718 -5.003063,-0.16325 -6.226768,-1.38695 z"
     id="path15468"
     inkscape:connector-curvature="0"
     sodipodi:nodetypes="cssssssssssssssssc" />
  <path
     style="fill:#9d9d9d;fill-opacity:1;stroke:none"
     d="m 128.67994,163.03965 c 0.58164,-5.7437 -1.48536,-42.09792 -1.48536,-59.22875 0,-12.849126 0.52662,-12.788528 -0.61142,-13.149205 -1.78199,-0.564767 -5.84102,-7.123728 -5.84102,-8.771955 0,-0.891245 2.9144,-1.952839 5.61593,-3.498499 2.89399,-1.655772 3.5631,-3.004453 4.27403,-4.705953 0.5634,-1.348408 1.57345,-2.365588 2.05465,-3.764875 1.26621,-0.782557 7.63718,3.27009 9.02346,5.941383 2.16654,4.174821 1.23121,11.060634 -4.89419,14.81949 l -3.32777,3.526987 0.71796,34.295497 c 0.41521,19.83436 -0.74709,36.74977 -1.3247,37.97249 -1.1774,2.4924 -4.66502,1.13999 -4.20157,-3.43661 z"
     id="path15472"
     inkscape:connector-curvature="0"
     sodipodi:nodetypes="sssssscsscsss" />
  <path
     style="fill:#9d9d9d;fill-opacity:1;stroke:none"
     d="m 146.86539,94.710738 c -0.93649,-21.338515 -0.58501,-43.258448 0.59436,-43.650294 7.20689,2.871253 11.91794,8.520616 16.5683,14.593954 -3.43418,-0.08939 -6.15887,0.882338 -7.741,4.247051 -1.63542,3.589343 -1.15472,18.755513 0.0993,49.059441 1.39122,33.61994 1.55229,42.63076 0.28673,46.13334 -2.9898,7.61684 -4.88249,4.16204 -5.67058,-4.19916 -1.56008,-16.5515 -3.42118,-53.6307 -4.13708,-66.184332 z"
     id="path15474"
     inkscape:connector-curvature="0"
     sodipodi:nodetypes="ccccscsc" />
  <path
     style="fill:#9d9d9d;fill-opacity:1;stroke:none"
     d="m 53.761032,272.06974 c -0.0648,-82.33563 -1.01234,-142.87251 -1.106379,-147.58094 -0.0501,-2.50861 -1.151968,-2.97112 -2.190025,-3.80163 -1.355066,-1.08414 -1.305636,-1.10313 -13.877229,-0.78563 -7.085637,0.17894 -17.319715,0.74377 -21.296348,0.93383 -6.5488264,0.313 -6.9181252,-0.79061 -6.9673242,-1.58664 -0.070234,-1.13636 1.3444101,-3.02015 8.4133722,-3.63674 15.160223,-1.32235 35.639938,-4.12898 39.407022,-1.49858 2.371111,1.65565 4.33141,3.37013 4.332847,12.929 0.0016,10.84122 1.582716,102.39591 -0.445335,163.30012 l -0.480573,42.46124 -3.308822,1.09291 -2.433718,-1.48729 z"
     id="path14956"
     inkscape:connector-curvature="0"
     sodipodi:nodetypes="sssssssssscccs" />
  <path
     style="fill:#000000"
     d="m 105.22187,340.58817 c -2.11293,-0.64891 -4.63604,-2.23292 -5.606908,-3.52003 -1.30201,-1.72611 -1.96997,-2.00891 -2.54548,-1.07772 -0.55143,0.89223 -2.52282,1.10447 -6.72209,0.72369 -3.26801,-0.29633 -6.08841,-0.69073 -6.26755,-0.87645 -1.20609,-1.25035 -1.59704,-13.40068 -1.60357,-49.83766 -0.007,-38.85977 -0.7146,-67.2199 -2.84448,-114 -0.72081,-15.83168 -0.61393,-20.81683 0.56814,-26.5 2.53088,-12.168 -1.26398,-48.564951 -5.50639,-52.812341 -2.15239,-2.15491 -5.10284,-2.31551 -15.12998,-0.82354 -4.125,0.61377 -12.20959,1.23294 -17.96576,1.37592 -10.43836,0.25928 -10.46913,0.25303 -11.75683,-2.39045 -2.80683,-5.762034 -0.71713,-6.439977 28.72259,-9.318234 19.10324,-1.867682 21.88536,-1.345363 25.35849,4.760834 2.07915,3.65543 2.55204,6.43949 3.60226,21.207811 2.13286,29.99259 2.61013,33.80389 4.86833,38.87712 1.5593,3.50306 2.2015,7.02476 2.27945,12.5 0.10139,7.12088 1.41849,21.05083 1.74445,18.44961 0.0809,-0.64531 1.21184,-2.44531 2.51328,-4 L 101.29609,170.5 100.25569,155 c -0.572208,-8.525 -1.047618,-25.25026 -1.056468,-37.16725 -0.0187,-25.202171 -1.63497,-20.839181 15.110318,-40.789134 5.63528,-6.713753 10.6318,-12.896249 11.10336,-13.738882 1.30566,-2.333095 5.15066,0.07845 5.15066,3.23045 0,2.139716 0.45149,2.464816 3.42308,2.464816 4.01753,0 9.02829,4.349682 9.8276,8.531034 1.11879,5.852576 -2.49521,13.050475 -7.36806,14.674765 -0.96721,0.3224 -1.29943,8.873221 -1.46193,37.626821 -0.19987,35.36779 -0.11824,37.25888 1.64926,38.20482 1.02275,0.54736 2.40018,2.79967 3.06095,5.00514 l 1.20141,4.00995 2.85722,-3.46629 c 1.57147,-1.90647 3.6342,-3.71225 4.58384,-4.01285 1.41531,-0.44801 1.67974,-1.58573 1.46658,-6.30997 -0.31634,-7.01071 -1.95897,-30.60972 -3.22021,-46.26342 -1.07077,-13.28961 -1.62402,-65.729048 -0.70319,-66.649886 1.29645,-1.296445 7.25805,2.255841 13.35054,7.955075 3.4831,3.258268 6.33291,6.267934 6.33291,6.688147 0,0.420213 -1.38486,1.33765 -3.07746,2.03875 -6.00862,2.488851 -6.18456,3.417753 -5.62548,29.701473 0.27805,13.071541 1.03412,31.866441 1.68017,41.766441 0.8971,13.74695 0.89835,19.41033 0.005,23.96887 -0.91269,4.65889 -0.90192,6.05801 0.0491,6.375 2.32658,0.77553 5.03416,4.23502 5.62443,7.18637 l 0.59355,2.96775 2.81819,-4.44384 C 170.8563,169.46894 174.90331,167 180.0139,167 l 3.54966,0 -0.0171,-13.25 c -0.009,-7.2875 -0.43375,-23.15 -0.94301,-35.25 C 182.09418,106.4 181.5506,77.7125 181.3955,54.75 181.24041,31.7875 180.95834,13 180.76871,13 c -0.6317,0 -9.67377,6.27189 -11.82561,8.202638 l -2.12046,1.902596 2.87046,2.87046 c 1.57875,1.578753 2.86878,3.917575 2.86672,5.197383 -0.005,3.163012 -3.65267,8.924311 -6.04648,9.550307 -2.31598,0.605643 -2.37085,1.135388 -0.38916,3.757159 0.93294,1.234271 1.27176,3.006156 0.89919,4.702437 -0.48666,2.215733 0.0167,3.270963 2.70674,5.674524 2.77402,2.478587 3.28737,3.608503 3.19745,7.037822 -0.0589,2.246856 -0.75107,5.055037 -1.53813,6.240403 -1.258,1.894658 -1.22085,2.590979 0.30734,5.759741 3.31841,6.880885 5.26065,90.11076 2.17482,93.19647 -0.44442,0.4444 -0.86666,-14.13199 -0.93833,-32.39197 -0.0717,-18.25999 -0.55656,-39.005491 -1.07755,-46.101121 -0.84109,-11.455287 -1.19372,-13.100726 -3.14641,-14.681917 l -2.19915,-1.780766 2.02297,-3.318083 c 1.11263,-1.824946 2.02465,-4.992111 2.0267,-7.038146 0.003,-2.996576 -0.59451,-4.16237 -3.07239,-5.994344 -2.53741,-1.875989 -2.97714,-2.769255 -2.51087,-5.100609 0.33228,-1.6614 -0.0778,-4.069949 -0.99501,-5.843582 -1.5481,-2.99369 -1.52849,-3.046608 2.51086,-6.775718 2.38791,-2.204509 4.07115,-4.667677 4.07115,-5.957528 0,-2.249511 -3.46747,-6.427433 -6.05682,-7.297807 -2.13145,-0.71646 0.11903,-3.099674 8.45535,-8.954044 6.50905,-4.57113 9.49099,-5.835286 9.68611,-4.106305 0.26791,2.374059 0.82594,31.816062 1.25567,66.25 0.27113,21.724999 0.8255,50.89801 1.23194,64.82891 0.71649,24.55793 0.80566,25.3726 2.92929,26.76406 4.69745,3.07788 5.14398,9.1294 3.9396,53.39059 -0.33649,12.36595 -0.81035,22.80482 -1.05303,23.19749 -0.24268,0.39266 -0.44256,17.95006 -0.44417,39.01644 -0.003,36.90869 -0.48729,44.74586 -2.9162,47.17477 -0.63038,0.63038 -4.33746,1.12774 -8.40558,1.12774 -6.38147,0 -7.7176,-0.33542 -10.84829,-2.72331 l -3.57045,-2.72332 -0.67962,2.72332 c -0.97269,3.89768 -3.28101,6.08084 -7.6826,7.26607 -4.61472,1.24261 -10.6786,-0.10062 -13.24216,-2.93332 -1.68187,-1.85845 -1.76971,-1.84786 -4.11335,0.49578 -2.61089,2.61089 -6.43363,2.99297 -14.45722,1.44499 -3.7806,-0.72938 -4.66546,-0.58579 -5.72667,0.92929 -1.11262,1.58849 -2.42179,2.13286 -8.3018,3.45199 -0.825,0.18508 -3.22876,-0.19441 -5.34169,-0.84332 z m 11.0905,-3.12478 c 2.52509,-1.76865 3.99964,-6.60214 4.41232,-14.46339 0.30418,-5.79433 -1.01943,-37.31492 -1.83656,-43.73623 C 118.6247,277.19369 118.23284,255.925 118.01731,232 c -0.37864,-42.03227 -0.75165,-52.00677 -2.07367,-55.4519 -0.77913,-2.0304 -5.53521,-4.54931 -8.58042,-4.54436 -2.80302,0.005 -8.799658,3.51601 -8.799658,5.15282 0,0.65228 -0.75429,2.01944 -1.6762,3.03814 -2.14551,2.37076 -2.96189,19.95649 -1.43007,30.8053 0.58244,4.125 1.52046,31.575 2.0845,61 0.56609,29.53179 1.50546,55.85488 2.09679,58.75639 0.831488,4.07983 1.670438,5.58174 3.748128,6.70996 3.53505,1.91959 10.183,1.91807 12.92566,-0.003 z M 156.9207,335.5 c 0.825,-0.825 1.96631,-1.5 2.53625,-1.5 3.00146,0 3.2133,-5.02259 3.40872,-80.81953 0.1843,-71.48519 0.0782,-76.93933 -1.54454,-79.42165 -3.75008,-5.7364 -12.54797,-4.16138 -17.45858,3.12547 l -2.2078,3.27616 0.26751,74.66977 c 0.20749,57.91729 0.55146,75.19284 1.53314,77.00116 2.33432,4.29997 10.58583,6.54809 13.4653,3.66862 z m -18.65659,-2.16574 c 1.62379,-2.47821 1.73663,-7.59601 1.60409,-72.75 -0.15928,-78.2997 -0.47676,-86.31851 -3.54802,-89.61512 -3.78534,-4.06309 -11.53476,-1.52367 -15.6498,5.12829 -1.37053,2.21547 -1.51602,4.86243 -0.98939,18 0.33959,8.47141 0.38777,22.82757 0.10708,31.90257 -0.49293,15.93648 0.70956,48.48251 2.8634,77.5 0.71023,9.5686 0.7164,16.53223 0.0195,22 -1.23287,9.67259 -0.59768,10.5 8.0607,10.5 5.16398,0 5.97354,-0.2865 7.53247,-2.66574 z m -42.351448,0.74907 c 0.99372,-0.0975 0.0126,-61.67738 -1.54677,-97.08333 -0.59348,-13.475 -1.21365,-37.89808 -1.37815,-54.2735 -0.29819,-29.68432 -0.30692,-29.79061 -2.91258,-35.48213 -3.03546,-6.63031 -3.09445,-7.07558 -4.60271,-34.74437 -1.71278,-31.420475 -1.67186,-31.381291 -29.90889,-28.639176 -19.72806,1.915805 -24,2.848775 -24,5.241455 0,1.07827 0.6423,2.20697 1.42734,2.50821 1.56751,0.60151 19.6243,-0.9886 31.80562,-2.80085 7.14004,-1.06225 7.89819,-1.00321 9.88801,0.76995 3.21124,2.86159 4.57517,6.8951 6.24505,18.468231 2.56158,17.75312 2.95376,30.47457 1.21379,39.373 -0.85185,4.35646 -1.32651,9.53146 -1.0548,11.5 0.2717,1.96855 0.68913,9.87918 0.92761,17.57918 0.23848,7.7 0.89712,25.7 1.46365,40 0.56652,14.3 1.01702,43.45932 1.00111,64.79848 -0.0159,21.33917 0.2769,41.90216 0.65069,45.69553 0.77466,7.86164 1.05219,8.04414 10.78103,7.08932 z m 90.040108,-3.37866 c 2.06437,-1.5095 2.32723,-6.16818 3.08672,-54.70467 0.26249,-16.775 0.77919,-45.36705 1.14822,-63.53789 0.48595,-23.92796 0.35234,-34.00331 -0.48454,-36.53908 -3.0009,-9.09282 -15.87297,-9.07996 -20.98797,0.0209 -3.06037,5.4452 -3.09808,6.35098 -3.49061,83.83887 l -0.33071,65.28285 3.83772,3.46715 c 3.45062,3.11743 4.42336,3.46715 9.64371,3.46715 3.1933,0 6.60315,-0.5829 7.57746,-1.29533 z M 127.06356,149 c 0,-9.625 -0.37036,-26.46108 -0.82302,-37.41352 -0.79134,-19.146891 -0.91213,-19.983611 -3.13762,-21.734181 -1.27303,-1.00137 -2.61143,-3.0033 -2.97421,-4.44873 -0.62041,-2.47194 -0.76781,-2.530135 -2.48115,-0.979586 -1.00186,0.906666 -3.3431,4.650606 -5.20278,8.319876 l -3.38122,6.6714 0.0874,34.292371 c 0.0481,18.8608 -0.24409,34.29237 -0.6493,34.29237 -1.27115,0 -1.59953,-8.56105 -1.5176,-39.5638 l 0.0795,-30.063801 3.34505,-6.4362 c 4.38122,-8.429884 7.49918,-11.675696 14.03474,-14.610209 l 5.37978,-2.415564 -0.63409,-4.626184 c -0.8138,-5.937335 -1.32616,-6.348812 -3.96055,-3.180708 -26.902488,32.352815 -23.9081,26.122275 -23.84656,49.618466 0.0486,18.5449 0.44104,28.66253 1.78296,45.96423 l 0.55736,7.18622 3.91636,-0.054 c 3.99597,-0.0551 8.61133,2.20074 9.5599,4.67268 0.36679,0.95584 1.94962,-0.0519 5.19626,-3.30827 l 4.66879,-4.68286 0,-17.5 z m 29.45471,13.71817 c 0.79602,-3.83441 0.79428,-10.34284 -0.006,-23.75 -0.60657,-10.1575 -1.34353,-29.0805 -1.63767,-42.051121 -0.59108,-26.063949 -0.0898,-28.899493 5.48721,-31.040115 l 2.70175,-1.037145 -6.75913,-6.419894 C 152.58691,54.888953 148.92804,52 148.17361,52 c -1.94553,0 -1.13528,39.853819 1.56545,77 1.13965,15.675 2.11223,30.8625 2.16128,33.75 0.0723,4.25921 0.41304,5.25 1.8053,5.25 1.26649,0 2.00341,-1.38386 2.81263,-5.28183 z m -23.61148,-19.23955 c 0.36436,-12.93677 0.36743,-29.3509 0.007,-36.47586 l -0.65564,-12.954461 4.15873,-3.80146 c 6.26427,-5.726111 7.21319,-11.725188 2.63589,-16.664174 -3.31632,-3.578369 -7.25149,-3.492545 -7.67261,0.167335 -0.24954,2.168789 -1.32033,3.229612 -5.06642,5.019287 -2.6125,1.248108 -4.75,2.732955 -4.75,3.29966 0,2.529381 3.26077,6.958402 5.54506,7.531722 1.99718,0.50126 2.27501,0.9112 1.36263,2.01055 -0.83485,1.00594 -0.94113,7.01655 -0.39141,22.134851 0.41505,11.41466 0.88613,22.32893 1.04685,24.25393 0.16071,1.925 0.32475,9.2375 0.36454,16.25 0.0565,9.95587 0.36607,12.75 1.41271,12.75 1.06374,0 1.47711,-4.85456 2.00285,-23.52138 z M 52.769042,334.32288 c -1.05366,-0.42262 -1.16538,-18.7814 -0.60044,-98.67105 0.38175,-53.98351 0.37061,-101.14595 -0.0247,-104.80543 -1.16288,-10.76373 0.069,-10.29274 -23.64222,-9.03901 C 7.3925917,122.92353 6.5942417,122.82123 6.5942417,119 c 0,-3.47152 1.79535,-3.98377 21.5154803,-6.13886 22.93721,-2.50666 28.54705,-2.17479 31.18066,1.84461 2.84471,4.34158 2.99947,13.72257 2.32391,140.87092 -0.21063,39.64217 -0.0444,72.62446 0.36938,73.29398 0.41378,0.66952 0.0282,2.32251 -0.85692,3.67333 -1.55696,2.37622 -5.02701,3.11481 -8.35766,1.7789 z M 59.470272,252.5 c 0.6729,-108.58622 0.31089,-134.32796 -1.927,-137.02444 -1.77693,-2.14108 -9.55019,-2.45692 -24.68329,-1.00295 -19.45211,1.86894 -23.0708803,2.49724 -23.6910203,4.1133 -0.28493,0.74252 -0.20021,1.50885 0.18827,1.70294 0.38848,0.1941 9.0313303,-0.14843 19.2063303,-0.76116 10.62971,-0.64012 19.37377,-0.74636 20.55389,-0.24972 5.15934,2.17124 4.94329,-2.54198 4.98369,108.72203 0.0207,56.925 0.13318,103.8688 0.25,104.31955 0.11683,0.45075 1.20488,0.67575 2.4179,0.5 l 2.20547,-0.31955 0.49576,-80 z"
     id="path14954"
     inkscape:connector-curvature="0" />
</svg>
