<?xml version="1.0" encoding="UTF-8" standalone="no"?>
<!-- Created with Inkscape (http://www.inkscape.org/) -->

<svg
   xmlns:dc="http://purl.org/dc/elements/1.1/"
   xmlns:cc="http://creativecommons.org/ns#"
   xmlns:rdf="http://www.w3.org/1999/02/22-rdf-syntax-ns#"
   xmlns:svg="http://www.w3.org/2000/svg"
   xmlns="http://www.w3.org/2000/svg"
   xmlns:sodipodi="http://sodipodi.sourceforge.net/DTD/sodipodi-0.dtd"
   xmlns:inkscape="http://www.inkscape.org/namespaces/inkscape"
   id="svg14944"
   version="1.1"
   inkscape:version="0.48.4 r9939"
   width="278.04816"
   height="494.07175"
   sodipodi:docname="Lockpicks.svg">
  <metadata
     id="metadata14950">
    <rdf:RDF>
      <cc:Work
         rdf:about="">
        <dc:format>image/svg+xml</dc:format>
        <dc:type
           rdf:resource="http://purl.org/dc/dcmitype/StillImage" />
        <dc:title />
      </cc:Work>
    </rdf:RDF>
  </metadata>
  <defs
     id="defs14948" />
  <sodipodi:namedview
     pagecolor="#ffffff"
     bordercolor="#666666"
     borderopacity="1"
     objecttolerance="10"
     gridtolerance="10"
     guidetolerance="10"
     inkscape:pageopacity="0"
     inkscape:pageshadow="2"
     inkscape:window-width="1271"
     inkscape:window-height="747"
     id="namedview14946"
     showgrid="false"
     inkscape:zoom="0.67236468"
     inkscape:cx="163.69465"
     inkscape:cy="277.42681"
     inkscape:window-x="4"
     inkscape:window-y="22"
     inkscape:window-maximized="0"
     inkscape:current-layer="svg14944"
     fit-margin-top="0"
     fit-margin-left="0"
     fit-margin-right="0"
     fit-margin-bottom="0" />
  <path
     style="fill:#ddc900;fill-opacity:1;stroke:none"
     d="m 236.40286,253.15115 -0.55589,219.57866 11.6738,6.67073 c 6.81731,4.60209 15.74481,0.76342 23.9035,0 l 6.11485,-231.25245 c -11.68265,-24.45781 -30.81312,-9.38675 -41.13626,5.00306 z"
     id="path15486"
     inkscape:connector-curvature="0"
     sodipodi:nodetypes="cccccc" />
  <path
     style="fill:#ddc900;fill-opacity:1;stroke:none"
     d="m 201.93736,253.15115 c 13.79811,-25.57454 21.91435,-16.08553 32.79783,-7.78254 l 0,232.92015 c -11.11791,15.88165 -22.23583,11.29629 -33.35374,2.22358 z"
     id="path15484"
     inkscape:connector-curvature="0"
     sodipodi:nodetypes="ccccc" />
  <path
     style="fill:#ddc900;fill-opacity:1;stroke:none"
     d="m 166.36004,245.92451 c 15.3734,-12.39799 28.93098,-19.9538 31.13015,2.77947 10.17055,83.78689 3.33537,154.90951 5.00306,232.36425 -10.71624,8.8344 -22.26743,9.31937 -34.46551,3.33537 3.93013,-207.34504 -1.1118,-158.98606 -1.6677,-238.47909 z"
     id="path15482"
     inkscape:connector-curvature="0"
     sodipodi:nodetypes="ccccc" />
  <path
     style="fill:#ddc900;fill-opacity:1;stroke:none"
     d="m 128.55918,267.60443 6.11484,217.35507 c 11.85854,8.71575 24.45996,8.51699 37.80088,-0.5559 l -6.67075,-239.03499 c -31.90332,-18.5725 -30.3006,7.52973 -37.24497,22.23582 z"
     id="path15480"
     inkscape:connector-curvature="0"
     sodipodi:nodetypes="ccccc" />
  <path
     style="fill:#9d9d9d;fill-opacity:1;stroke:none"
     d="M 236.40286,16.89562 261.97404,1.3305459 266.69916,235.08455 250.0223,236.47429 249.18846,121.126 c -1.15673,-13.98038 -1.6364,-29.701731 -7.78254,-30.852193 4.74123,-9.264916 11.11583,-18.529848 -2.77947,-27.794764 2.10275,-5.558953 -0.93875,-11.117906 -3.89126,-16.676859 18.08086,-10.949891 13.00193,-20.16281 1.66767,-28.906564 z"
     id="path15478"
     inkscape:connector-curvature="0"
     sodipodi:nodetypes="ccccccccc" />
  <path
     style="fill:#9d9d9d;fill-opacity:1;stroke:none"
     d="m 143.56834,239.80966 8.89432,-0.83385 -0.55589,-108.12164 14.45327,-25.01529 19.17841,-9.172283 -3.89128,-18.900441 -38.63472,45.583424 -3.61332,14.17533 z"
     id="path15476"
     inkscape:connector-curvature="0" />
  <path
     style="fill:#9d9d9d;fill-opacity:1;stroke:none"
     d="m 118.48208,483.27672 c -3.19614,-3.19615 -2.84104,-9.19836 -3.55505,-84.99565 -0.6309,-66.97444 -1.75739,-111.50871 -3.95895,-156.51241 -1.02271,-20.90585 -0.93173,-26.13978 0.66676,-38.35677 2.01241,-15.38048 1.94479,-32.83124 -0.89294,-54.48246 -2.69587,-20.5688 -4.66867,-24.1505 -9.26566,-29.15193 -3.506554,-3.81507 -5.079374,-2.79538 -29.910986,0.27795 -22.259676,2.755 -33.444914,2.33622 -34.370083,-0.0748 -0.367745,-0.95833 -0.1913,-5.55512 0.392101,-6.13852 2.870699,-2.87069 53.098944,-8.91416 63.464098,-7.53919 6.90483,0.91596 12.83402,4.56982 14.58476,11.07524 1.28348,4.76916 2.98288,22.66788 4.88936,53.07611 1.25345,19.99236 2.10329,24.43494 6.63893,36.59872 2.35765,6.3228 2.53675,9.04841 3.43367,52.25416 0.52044,25.07088 1.42989,69.12559 2.3607,97.55963 1.61123,49.21965 3.36012,125.45521 2.36281,126.45252 -0.25727,0.25727 -5.02167,1.62979 -7.53015,2.03091 -3.71348,0.59381 -7.47986,-0.24406 -9.30937,-2.07357 z"
     id="path15468"
     inkscape:connector-curvature="0"
     sodipodi:nodetypes="cssssssssssssssssc" />
  <path
     style="fill:#9d9d9d;fill-opacity:1;stroke:none"
     d="m 182.52514,227.29557 c 0.86959,-8.58717 -2.22069,-62.93882 -2.22069,-88.55039 0,-19.21019 0.78732,-19.11959 -0.91411,-19.65883 -2.66418,-0.84435 -8.73266,-10.65037 -8.73266,-13.11457 0,-1.33247 4.35719,-2.91961 8.39614,-5.23046 4.32668,-2.475473 5.32704,-4.491823 6.38992,-7.035668 0.84231,-2.015951 2.35239,-3.536693 3.07182,-5.628712 1.89305,-1.169958 11.41802,4.888972 13.49059,8.882717 3.2391,6.241603 1.84073,16.536283 -7.3171,22.155993 l -4.9752,5.27304 1.07339,51.27375 c 0.62076,29.65351 -1.11695,54.94302 -1.98051,56.77106 -1.76028,3.72628 -6.97447,1.70435 -6.28159,-5.13793 z"
     id="path15472"
     inkscape:connector-curvature="0"
     sodipodi:nodetypes="sssssscsscsss" />
  <path
     style="fill:#9d9d9d;fill-opacity:1;stroke:none"
     d="m 209.71344,125.13991 c -1.40011,-31.902316 -0.87462,-64.673873 0.8886,-65.259711 10.77472,4.292699 17.81801,12.738817 24.77056,21.81881 -5.13429,-0.133658 -9.20786,1.319149 -11.57324,6.349584 -2.44504,5.36627 -1.72637,28.040567 0.14846,73.346687 2.07996,50.26375 2.32077,63.73544 0.42868,68.972 -4.46992,11.38762 -7.2996,6.22249 -8.47784,-6.27798 -2.33241,-24.74545 -5.11486,-80.18099 -6.18518,-98.94939 z"
     id="path15474"
     inkscape:connector-curvature="0"
     sodipodi:nodetypes="ccccscsc" />
  <path
     style="fill:#9d9d9d;fill-opacity:1;stroke:none"
     d="m 70.517068,390.30183 c -0.09688,-123.09651 -1.513507,-213.60263 -1.654101,-220.642 -0.0749,-3.75052 -1.722258,-4.442 -3.274213,-5.68366 -2.025902,-1.62085 -1.952001,-1.64924 -20.747256,-1.17456 -10.593435,0.26752 -25.893971,1.11198 -31.839266,1.39613 -9.790872,0.46795 -10.342995,-1.18201 -10.41655,-2.37212 -0.104998,-1.69892 2.00997,-4.5153 12.578475,-5.43714 22.665406,-1.97698 53.283758,-6.17306 58.915766,-2.24046 3.544947,2.47529 6.475707,5.03854 6.477855,19.3296 0.0024,16.20825 2.366252,153.08778 -0.665801,244.14308 l -0.718484,63.482 -4.94688,1.63396 -3.638548,-2.22359 z"
     id="path14956"
     inkscape:connector-curvature="0"
     sodipodi:nodetypes="sssssssssscccs" />
  <path
     style="fill:#000000"
     d="m 147.45398,492.74082 c -3.15895,-0.97016 -6.93115,-3.33834 -8.38264,-5.26265 -1.94658,-2.58063 -2.94522,-3.00343 -3.80564,-1.61125 -0.82442,1.33394 -3.77176,1.65125 -10.04991,1.08196 -4.88587,-0.44303 -9.10253,-1.03268 -9.37035,-1.31034 -1.80318,-1.86935 -2.38767,-20.03479 -2.39743,-74.51017 -0.0105,-58.0976 -1.06837,-100.49762 -4.25266,-170.43657 -1.07766,-23.66927 -0.91786,-31.12235 0.8494,-39.61902 3.78381,-18.19186 -1.88972,-72.6074 -8.23237,-78.95749 -3.217954,-3.22171 -7.629044,-3.46182 -22.620196,-1.23124 -6.167112,0.91762 -18.25404,1.84332 -26.859845,2.05708 -15.605949,0.38764 -15.651952,0.3783 -17.577138,-3.57386 -4.196372,-8.61458 -1.07215,-9.62814 42.941925,-13.9313 28.560444,-2.79229 32.719874,-2.01139 37.912404,7.11773 3.10845,5.46507 3.81545,9.6274 5.38559,31.70689 3.18875,44.84065 3.90229,50.53876 7.27843,58.12353 2.33125,5.23728 3.29137,10.50242 3.40791,18.68822 0.15158,10.64613 2.12073,31.47221 2.60806,27.58323 0.12095,-0.96477 1.81177,-3.65588 3.7575,-5.98023 l 3.53769,-4.22612 -1.55545,-23.17339 c -0.85548,-12.74537 -1.56624,-37.7506 -1.57947,-55.56718 -0.028,-37.6787 -2.44438,-31.15578 22.59078,-60.982103 8.42507,-10.037456 15.89515,-19.280634 16.60016,-20.54043 1.95204,-3.488104 7.70054,0.117362 7.70054,4.829709 0,3.199004 0.675,3.685048 5.1177,3.685048 6.00644,0 13.49781,6.503022 14.69282,12.754383 1.67266,8.749943 -3.73048,19.511223 -11.01567,21.939623 -1.44603,0.48201 -1.94272,13.26598 -2.18567,56.25426 -0.29882,52.87689 -0.17677,55.70417 2.46574,57.11841 1.52907,0.81833 3.58841,4.18567 4.5763,7.48297 l 1.79617,5.99511 4.27171,-5.18231 c 2.34944,-2.85028 5.43334,-5.55002 6.85311,-5.99944 2.11597,-0.6698 2.5113,-2.37075 2.19262,-9.43377 -0.47295,-10.48141 -2.92878,-45.76329 -4.8144,-69.16647 -1.60086,-19.86873 -2.428,-98.268716 -1.05131,-99.645425 1.93827,-1.938253 10.8512,3.372625 19.95982,11.893302 5.20744,4.871301 9.46807,9.370916 9.46807,9.999169 0,0.628239 -2.07045,1.999864 -4.60098,3.048049 -8.98323,3.720974 -9.24627,5.109733 -8.41042,44.405415 0.4157,19.5427 1.54607,47.64216 2.51195,62.44323 1.34122,20.55248 1.34309,29.01956 0.007,35.83484 -1.36452,6.96531 -1.34842,9.05707 0.0734,9.53099 3.47837,1.15946 7.52636,6.3316 8.40884,10.74404 l 0.88739,4.43695 4.21336,-6.64379 c 4.82192,-7.60269 10.87243,-11.29389 18.51306,-11.29389 l 5.30695,0 -0.0256,-19.80952 c -0.0135,-10.89523 -0.64848,-34.61058 -1.40985,-52.70077 -0.76139,-18.0902 -1.57408,-60.979663 -1.80596,-95.309926 -0.23187,-34.33026 -0.65358,-62.4186532 -0.93709,-62.4186532 -0.94442,0 -14.46284,9.3768362 -17.67996,12.2634192 l -3.17021,2.844481 4.2915,4.291503 c 2.36032,2.360337 4.28899,5.857008 4.28591,7.770397 -0.007,4.728882 -5.46095,13.342357 -9.03983,14.278248 -3.46253,0.905482 -3.54456,1.697474 -0.58182,5.617171 1.3948,1.845304 1.90135,4.494382 1.34434,7.030418 -0.72759,3.312644 0.025,4.890274 4.04673,8.483734 4.14732,3.705635 4.91481,5.39493 4.78037,10.521961 -0.0881,3.35917 -1.12289,7.557561 -2.29959,9.329757 -1.88078,2.832626 -1.82524,3.873665 0.45949,8.611143 4.96122,10.287327 7.86498,134.720777 3.25148,139.334087 -0.66443,0.66441 -1.2957,-21.12814 -1.40285,-48.42786 -0.1072,-27.29973 -0.83209,-58.31545 -1.611,-68.92382 -1.25748,-17.126323 -1.78468,-19.586353 -4.70407,-21.950323 l -3.28785,-2.662339 3.02445,-4.960735 c 1.66345,-2.728391 3.02697,-7.463492 3.03004,-10.522425 0.004,-4.480059 -0.88883,-6.222982 -4.5934,-8.961898 -3.79358,-2.804713 -4.451,-4.140188 -3.7539,-7.625705 0.49678,-2.483889 -0.11631,-6.08481 -1.4876,-8.736489 -2.3145,-4.475739 -2.28518,-4.554857 3.75388,-10.130091 3.57007,-3.295869 6.08661,-6.978435 6.08661,-8.906835 0,-3.363147 -5.18407,-9.609393 -9.0553,-10.910646 -3.18664,-1.071149 0.17796,-4.6342 12.64124,-13.3868049 9.7314,-6.83411784 14.18957,-8.7240948 14.48129,-6.1391702 0.40054,3.5493563 1.23483,47.5668411 1.8773,99.0475611 0.40535,32.48013 1.23417,76.09546 1.84182,96.92296 1.07119,36.71551 1.20451,37.93349 4.37946,40.01381 7.02296,4.6016 7.69054,13.64897 5.88993,79.822 -0.50308,18.48781 -1.21152,34.09452 -1.57434,34.68158 -0.36283,0.58705 -0.66166,26.83638 -0.66406,58.33183 -0.004,55.18061 -0.72853,66.89763 -4.35989,70.52899 -0.94246,0.94246 -6.48475,1.68604 -12.56683,1.68604 -9.54066,0 -11.53825,-0.50147 -16.21882,-4.07151 l -5.33802,-4.07152 -1.01607,4.07152 c -1.45423,5.82726 -4.9053,9.09121 -11.48593,10.8632 -6.89928,1.85777 -15.96513,-0.15044 -19.79779,-4.38549 -2.5145,-2.77848 -2.64582,-2.76265 -6.1497,0.74122 -3.90343,3.90344 -9.61865,4.47467 -21.61438,2.16035 -5.65221,-1.09047 -6.97513,-0.87579 -8.5617,1.38934 -1.66343,2.37488 -3.62071,3.18875 -12.41167,5.16092 -1.23342,0.27671 -4.82718,-0.29065 -7.98613,-1.26081 z m 16.58094,-4.67172 c 3.77515,-2.64424 5.97969,-9.87058 6.59667,-21.6236 0.45476,-8.66286 -1.52411,-55.78796 -2.74576,-65.38819 -0.39385,-3.09488 -0.9797,-34.8928 -1.30193,-70.66205 -0.56609,-62.84066 -1.12376,-77.75312 -3.10026,-82.90378 -1.16484,-3.03557 -8.27545,-6.80148 -12.82822,-6.79408 -4.19067,0.007 -13.15598,5.25663 -13.15598,7.70376 0,0.97519 -1.12771,3.01918 -2.50602,4.54219 -3.20766,3.54443 -4.4282,29.8361 -2.13804,46.0557 0.87079,6.16711 2.27318,47.20644 3.11645,91.19851 0.84634,44.15173 2.25075,83.50626 3.13483,87.84418 1.24311,6.09959 2.49738,8.34503 5.60365,10.03178 5.2851,2.8699 15.22417,2.86763 19.32461,-0.004 z m 60.71179,-2.93539 c 1.23342,-1.23342 2.93974,-2.24258 3.79184,-2.24258 4.48735,0 4.80406,-7.50906 5.09623,-120.82985 0.27554,-106.87447 0.11691,-115.02873 -2.30918,-118.73994 -5.60658,-8.57625 -18.75993,-6.2215 -26.10158,4.67276 l -3.30079,4.89805 0.39995,111.6356 c 0.3102,86.58968 0.82446,112.41762 2.29213,115.12117 3.48994,6.4287 15.82642,9.78977 20.1314,5.48479 z m -27.89268,-3.2379 c 2.42766,-3.70507 2.59636,-11.35647 2.39821,-108.76544 -0.23814,-117.06256 -0.71279,-129.05114 -5.3045,-133.97976 -5.6593,-6.07455 -17.24513,-2.27797 -23.39735,7.66709 -2.04902,3.31225 -2.26654,7.26961 -1.47919,26.91103 0.5077,12.66525 0.57974,34.12854 0.16009,47.69618 -0.73696,23.82596 1.06083,72.48415 4.28095,115.86696 1.06183,14.30561 1.07105,24.71664 0.0291,32.89127 -1.84321,14.46108 -0.89357,15.6981 12.05121,15.6981 7.72045,0 8.93079,-0.42833 11.26148,-3.98543 z m -63.31784,1.1199 c 1.48567,-0.14577 0.0188,-92.21123 -2.31252,-145.14516 -0.88728,-20.1459 -1.81447,-56.65982 -2.06041,-81.14201 -0.44581,-44.37977 -0.45886,-44.53868 -4.35447,-53.04783 -4.53819,-9.91269 -4.62638,-10.5784 -6.88132,-51.94483 -2.56071,-46.97543 -2.49953,-46.91683 -44.715516,-42.81722 -29.494585,2.86424 -35.881382,4.25909 -35.881382,7.83628 0,1.61208 0.960276,3.29955 2.133956,3.74992 2.343518,0.89929 29.339458,-1.47801 47.551232,-4.18743 10.674776,-1.58813 11.808246,-1.49986 14.78315,1.15112 4.80099,4.27824 6.84014,10.30857 9.33671,27.61106 3.82971,26.54194 4.41604,45.56124 1.81468,58.86491 -1.27356,6.51315 -1.98321,14.25008 -1.57698,17.19316 0.4062,2.94309 1.03029,14.76994 1.38683,26.28188 0.35654,11.51195 1.34124,38.42298 2.18824,59.80231 0.84698,21.37932 1.5205,64.97418 1.49672,96.87745 -0.0238,31.90329 0.41398,62.64614 0.97281,68.31745 1.15817,11.7536 1.57309,12.02645 16.11827,10.59894 z m 134.61513,-5.05129 c 3.08635,-2.25679 3.47934,-9.22178 4.61483,-81.78663 0.39243,-25.07959 1.16493,-67.82635 1.71665,-94.9928 0.72652,-35.77368 0.52677,-50.83691 -0.72441,-54.62803 -4.48652,-13.59429 -23.73101,-13.57506 -31.37823,0.0312 -4.57543,8.14088 -4.63181,9.49508 -5.21866,125.34393 l -0.49443,97.60162 5.73761,5.18359 c 5.15888,4.66074 6.61318,5.18359 14.4179,5.18359 4.77417,0 9.87209,-0.87147 11.32874,-1.93659 z M 180.10856,206.30548 c 0,-14.38993 -0.55371,-39.56084 -1.23046,-55.93536 -1.1831,-28.62571 -1.36369,-29.87665 -4.69092,-32.49385 -1.90325,-1.49711 -3.90424,-4.49011 -4.44662,-6.65111 -0.92754,-3.69569 -1.14792,-3.78271 -3.70946,-1.46455 -1.49784,1.35553 -4.99813,6.95293 -7.77845,12.4387 l -5.05512,9.97413 0.13067,51.26907 c 0.0719,28.19798 -0.36493,51.26906 -0.97074,51.26906 -1.90045,0 -2.39139,-12.79926 -2.2689,-59.15015 l 0.11885,-44.94711 5.00105,-9.62249 c 6.55017,-12.60317 11.2117,-17.45585 20.98274,-21.843113 l 8.04308,-3.6114 -0.948,-6.916421 c -1.21668,-8.87665 -1.98269,-9.491836 -5.92125,-4.755344 -40.22076,48.369328 -35.74399,39.054318 -35.65198,74.182468 0.0727,27.7257 0.65938,42.85214 2.66563,68.71917 l 0.83328,10.74381 5.85519,-0.0807 c 5.9742,-0.0824 12.87443,3.29023 14.2926,6.98593 0.54837,1.42903 2.91479,-0.0776 7.7687,-4.94606 l 6.98011,-7.00114 0,-26.16351 z m 44.03649,20.50945 c 1.1901,-5.73266 1.18749,-15.46314 -0.009,-35.50761 -0.90686,-15.18605 -2.00865,-43.47702 -2.44841,-62.86885 -0.8837,-38.967105 -0.13426,-43.206401 8.20369,-46.406766 L 233.93061,80.48112 223.82532,70.883 c -5.55791,-5.278958 -11.02813,-9.598105 -12.15605,-9.598105 -2.90868,0 -1.69731,59.583755 2.34044,115.119435 1.70384,23.43503 3.15791,46.14121 3.23124,50.45819 0.10809,6.36777 0.61752,7.84905 2.69903,7.84905 1.89347,0 2.99521,-2.06895 4.20504,-7.89664 z M 188.84453,198.0507 c 0.54474,-19.34122 0.54933,-43.88128 0.0105,-54.53351 l -0.98022,-19.36766 6.21755,-5.6834 c 9.36544,-8.56087 10.78413,-17.52984 3.9408,-24.913916 -4.95809,-5.349854 -10.84139,-5.221548 -11.47099,0.250183 -0.37308,3.24247 -1.97397,4.82845 -7.57459,7.504133 -3.90584,1.86598 -7.10152,4.08592 -7.10152,4.93318 0,3.78157 4.87504,10.40321 8.29018,11.26035 2.9859,0.74942 3.40127,1.3623 2.03721,3.00589 -1.24815,1.50394 -1.40704,10.49015 -0.58518,33.09288 0.62052,17.06557 1.32482,33.38303 1.5651,36.26102 0.24027,2.87798 0.48552,13.81059 0.54501,24.29468 0.0845,14.8846 0.54729,19.06199 2.11208,19.06199 1.59035,0 2.20837,-7.25785 2.99438,-35.16582 z M 69.033985,483.37385 C 67.458703,482.74201 67.291675,455.29458 68.136293,335.85495 68.707031,255.1465 68.690376,184.63594 68.099363,179.1648 66.360791,163.07241 68.202522,163.77657 32.752884,165.65096 1.193579,167.31966 0,167.16671 0,161.45375 c 0,-5.19012 2.684152,-5.95596 32.166881,-9.17794 34.292449,-3.74761 42.679483,-3.25144 46.616881,2.75779 4.253005,6.49092 4.48438,20.51604 3.474379,210.61014 -0.314904,59.26732 -0.06638,108.57774 0.552245,109.57871 0.618625,1.00098 0.04216,3.47229 -1.281145,5.49184 -2.327745,3.55259 -7.515669,4.65682 -12.495183,2.65956 z M 79.05271,361.04394 c 1.006024,-162.34265 0.464798,-200.82803 -2.880976,-204.85943 -2.656613,-3.20103 -14.278084,-3.67323 -36.902939,-1.49946 -29.082024,2.79417 -34.492293,3.73351 -35.419438,6.14962 -0.425987,1.11011 -0.299326,2.25581 0.281474,2.54599 0.5808,0.29019 13.502358,-0.22191 28.714569,-1.13798 15.892028,-0.95701 28.964901,-1.11585 30.729248,-0.37334 7.713511,3.24612 7.390503,-3.80041 7.450904,162.54569 0.03095,85.10615 0.199111,155.28983 0.373764,155.96373 0.174668,0.6739 1.801365,1.01028 3.6149,0.74753 l 3.297304,-0.47775 0.74119,-119.6046 z"
     id="path14954"
     inkscape:connector-curvature="0" />
</svg>
