<?xml version="1.0" encoding="UTF-8" standalone="no"?>
<!-- Created with Inkscape (http://www.inkscape.org/) -->

<svg
   xmlns:dc="http://purl.org/dc/elements/1.1/"
   xmlns:cc="http://creativecommons.org/ns#"
   xmlns:rdf="http://www.w3.org/1999/02/22-rdf-syntax-ns#"
   xmlns:svg="http://www.w3.org/2000/svg"
   xmlns="http://www.w3.org/2000/svg"
   xmlns:sodipodi="http://sodipodi.sourceforge.net/DTD/sodipodi-0.dtd"
   xmlns:inkscape="http://www.inkscape.org/namespaces/inkscape"
   id="svg10724"
   version="1.1"
   inkscape:version="0.48.4 r9939"
   width="216"
   height="554"
   sodipodi:docname="Lute.png">
  <metadata
     id="metadata10730">
    <rdf:RDF>
      <cc:Work
         rdf:about="">
        <dc:format>image/svg+xml</dc:format>
        <dc:type
           rdf:resource="http://purl.org/dc/dcmitype/StillImage" />
        <dc:title></dc:title>
      </cc:Work>
    </rdf:RDF>
  </metadata>
  <defs
     id="defs10728" />
  <sodipodi:namedview
     pagecolor="#ffffff"
     bordercolor="#666666"
     borderopacity="1"
     objecttolerance="10"
     gridtolerance="10"
     guidetolerance="10"
     inkscape:pageopacity="0"
     inkscape:pageshadow="2"
     inkscape:window-width="1202"
     inkscape:window-height="756"
     id="namedview10726"
     showgrid="false"
     inkscape:zoom="0.60244477"
     inkscape:cx="121.05258"
     inkscape:cy="207.8308"
     inkscape:window-x="0"
     inkscape:window-y="22"
     inkscape:window-maximized="0"
     inkscape:current-layer="svg10724" />
  <path
     style="fill:#4d0007;fill-opacity:1;stroke:none"
     d="m 115.36327,68.582055 c -0.13744,-10.166907 -2.33078,-20.333815 1.45242,-30.500722 11.61923,-4.046554 24.03991,-3.284424 36.8291,-0.311232 5.33389,17.125363 1.41445,28.93104 -2.28237,34.754224 l -9.54444,1.971135 0.51872,34.65048 4.14976,15.76908 -4.56474,3.73478 7.05459,97.51932 c -16.87963,9.20588 -29.07943,7.64949 -39.3515,1.6599 3.76928,-20.9625 8.36664,-63.07632 11.9631,-94.61448 l -2.38917,-13.3756 2.55674,-5.68812 1.39596,-6.24981 c 4.50066,-10.31642 2.45033,-22.219403 3.0012,-33.613037 -7.01808,-1.859451 -10.65193,-3.760959 -10.78937,-5.705918 z"
     id="path11256"
     inkscape:connector-curvature="0"
     sodipodi:nodetypes="cccccccccccccccc" />
  <path
     style="fill:#ffce76;fill-opacity:1;stroke:none"
     d="m 116.19916,231.81144 26.40889,-0.58686 c 3.15659,27.32037 6.57087,53.82755 13.49788,69.25 21.15329,45.15849 36.12307,91.39237 39.31992,139.67372 -0.86095,25.44183 4.93133,46.52807 -17.75265,85.09534 -12.42832,13.26193 -27.48626,24.36623 -55.01854,25.23517 C 91.697235,551.92851 63.069139,538.4705 39.90678,490.03178 29.027363,451.69661 45.779599,409.91349 58.099576,373.24576 78.550497,327.13823 103.863,285.68092 116.19916,231.81144 z"
     id="path10736"
     inkscape:connector-curvature="0"
     sodipodi:nodetypes="ccccccccc" />
  <path
     style="fill:#ffce76;fill-opacity:1;stroke:none"
     d="m 124.70869,91.844279 -0.14672,6.01536 C 108.83347,99.19458 94.262873,105.22063 77.466102,102.9947 76.084573,98.593218 72.762964,94.191736 75.705509,89.790254 94.974225,86.75812 111.30862,87.442797 124.70869,91.844279 z"
     id="path11246"
     inkscape:connector-curvature="0"
     sodipodi:nodetypes="ccccc" />
  <path
     style="fill:#ffce76;fill-opacity:1;stroke:none"
     d="m 76.732521,111.35752 c -3.041116,3.86352 -0.09294,7.72705 1.467161,11.59057 14.203116,2.69997 26.220818,-2.61326 39.319918,-3.96133 l 5.72193,-5.13507 -1.02702,-3.22775 c -15.16066,-0.44901 -30.321326,-2.09982 -45.481989,0.73358 z"
     id="path11248"
     inkscape:connector-curvature="0"
     sodipodi:nodetypes="cccccc" />
  <path
     style="fill:#ffce76;fill-opacity:1;stroke:none"
     d="m 141.87447,99.840306 1.24709,5.501854 c 16.65237,2.68844 33.38514,4.19765 50.61705,-1.61388 l -1.10037,-10.05005 c -17.60593,-1.075919 -34.52719,0.978108 -50.76377,6.162076 z"
     id="path11250"
     inkscape:connector-curvature="0"
     sodipodi:nodetypes="ccccc" />
  <path
     style="fill:#ffce76;fill-opacity:1;stroke:none"
     d="m 144.73543,118.0331 -0.22007,8.06939 47.24259,-3.52119 c 1.50858,-3.619 2.92123,-7.23799 0.22007,-10.85699 -15.64753,-1.69712 -31.39946,0.57307 -47.24259,6.30879 z"
     id="path11252"
     inkscape:connector-curvature="0"
     sodipodi:nodetypes="ccccc" />
  <path
     style="fill:#e5d3b3;fill-opacity:1;stroke:none"
     d="m 123.53496,55.458686 c 2.21045,-10.818165 6.19215,-14.551282 11.44385,-13.20445 13.02142,0.257829 9.69142,14.837427 9.92635,15.845339 -1.21263,9.115733 -16.77769,14.504873 -21.3702,-2.640889 z"
     id="path11254"
     inkscape:connector-curvature="0"
     sodipodi:nodetypes="cccc" />
  <path
     style="fill:#4d0007;fill-opacity:1;stroke:none"
     d="m 112.53125,231.22458 3.08104,1.46716 c -6.49135,27.14248 -18.556192,54.28495 -28.169493,81.42743 -13.999262,28.41725 -30.177331,56.25349 -38.733051,86.12236 -8.274545,30.95208 -16.378541,61.89225 -8.216102,91.69756 19.082432,36.2838 43.641254,61.27255 81.427436,58.97987 64.67521,-5.39412 72.15374,-50.43993 74.09163,-99.3268 -0.32245,-37.62432 -10.31193,-70.67206 -20.24682,-104.7553 -8.9378,-22.76723 -21.69054,-44.36062 -26.11547,-68.51642 l -6.4555,-48.12288 3.81461,-0.29343 c 4.46207,30.44674 7.76933,60.45585 25.23517,91.991 18.13883,47.86745 36.46335,92.79971 30.81039,151.85116 -9.59523,47.10807 -27.6447,84.21068 -79.52013,81.28072 C 85.707752,557.72093 55.441163,540.08518 35.211864,495.46028 26.915556,464.09654 33.04351,431.1983 42.987818,397.89407 54.132431,363.4525 71.543629,329.74817 89.20339,296.07309 z"
     id="path11258"
     inkscape:connector-curvature="0"
     sodipodi:nodetypes="cccccccccccccccccc" />
  <path
     style="fill:#a6813d;stroke:none;stroke-width:1px;stroke-linecap:butt;stroke-linejoin:miter;stroke-opacity:1;fill-opacity:1"
     d="m 99.766949,509.98517 0.586861,4.40148 49.00318,-3.22775 -1.17373,-6.16208 z"
     id="path11260"
     inkscape:connector-curvature="0" />
  <path
     style="fill:#9b4014;fill-opacity:1;stroke:none"
     d="m 89.790254,525.53708 3.227755,8.2161 60.740461,-4.10805 0.58687,-10.85699 c -21.51836,0.59374 -43.03672,1.54092 -64.555086,6.74894 z"
     id="path11262"
     inkscape:connector-curvature="0"
     sodipodi:nodetypes="ccccc" />
  <path
     style="fill:#000000"
     d="m 50.299514,565.40869 c 0,-0.55 0.9,-1 2,-1 1.1,0 2,0.45 2,1 0,0.55 -0.9,1 -2,1 -1.1,0 -2,-0.45 -2,-1 z m 49.999996,-10.13047 c -1.374996,-0.55203 -4.707246,-1.42508 -7.405006,-1.94012 -6.70334,-1.27976 -19.59261,-8.5191 -28.3928,-15.94699 -10.0217,-8.45893 -24.04751,-27.34131 -28.00732,-37.70513 -4.96602,-12.99733 -6.44444,-21.32752 -6.43838,-36.27729 0.007,-16.8308 1.08751,-23.57127 8.89822,-55.5 2.48136,-10.14334 16.74715,-47.20054 23.09801,-60 1.9103,-3.85 5.46638,-10.21818 7.9024,-14.15151 7.23268,-11.6783 21.29798,-42.82018 26.12738,-57.84849 2.47443,-7.7 5.987646,-17.825 7.807156,-22.5 1.81952,-4.675 3.98297,-11.0929 4.80768,-14.26201 0.82472,-3.1691 1.79178,-6.23496 2.14903,-6.81301 0.35726,-0.57805 -0.14128,-1.92488 -1.10787,-2.99295 -1.67378,-1.84949 -1.67513,-2.52492 -0.0284,-14.18699 0.95098,-6.73477 2.7928,-17.64504 4.09295,-24.24504 3.91119,-19.85456 7.33813,-59.05974 5.4679,-62.55429 -0.53401,-0.99782 -0.97094,-3.46759 -0.97094,-5.48838 0,-3.30717 -0.22473,-3.61899 -2.25,-3.12196 -12.52617,3.07414 -31.080046,5.84223 -35.109206,5.23801 -5.63978,-0.84573 -6.85579,-2.69801 -6.44202,-9.81271 0.26495,-4.55566 0.60229,-5.2626 2.80122,-5.87035 4.05046,-1.11948 41.800556,-1.02205 42.500006,0.10968 1.25558,2.03157 2.18757,0.86983 3.40953,-4.25 1.49496,-6.263654 2.62482,-24.484854 1.73748,-28.020297 -0.48083,-1.915751 -1.70965,-2.822709 -5.23465,-3.863515 -2.53347,-0.748047 -5.01652,-2.126555 -5.51788,-3.063352 -1.38409,-2.586197 -1.10605,-21.638441 0.39844,-27.302833 1.19843,-4.512035 1.7125,-5.129435 5.26756,-6.326273 5.59566,-1.883825 24.94201,-2.689203 30.18952,-1.256774 4.68238,1.278164 6.06389,3.740269 1.5,2.673281 -6.24466,-1.459935 -20.1519,-1.787484 -26.98172,-0.635486 l -7.16021,1.207727 -1.12411,5.414785 c -0.61826,2.978132 -0.92885,6.429075 -0.69021,7.668763 0.31305,1.626237 0.50848,1.279215 0.70171,-1.246023 l 0.26782,-3.5 0.67634,3.5 c 0.42305,2.189288 0.13963,4.919871 -0.75683,7.291487 -0.78823,2.085318 -1.15182,4.072818 -0.80797,4.416667 0.34385,0.343849 0.62518,-0.124821 0.62518,-1.041487 0,-0.916667 0.48032,-1.666667 1.06739,-1.666667 0.63328,0 0.79306,0.864337 0.39286,2.125229 -0.49687,1.565498 -0.34144,1.919376 0.59014,1.343629 0.9312,-0.575513 1.09128,-0.21302 0.60713,1.37477 -0.36163,1.186005 -0.935,3.056372 -1.27415,4.156372 -0.36199,1.174082 -0.15551,2 0.5,2 0.61415,0 1.12352,-0.7875 1.13194,-1.75 0.008,-0.9625 0.49569,-2.425 1.08282,-3.25 0.80566,-1.132062 0.93997,-0.580155 0.54756,2.25 -0.28597,2.0625 -0.0982,3.75 0.41718,3.75 0.51542,0 0.93713,-0.873442 0.93713,-1.940983 0,-1.067541 0.51046,-2.256462 1.13435,-2.642048 0.78579,-0.485649 0.99265,0.264393 0.67319,2.440983 -0.31453,2.143055 -0.0493,3.142048 0.83427,3.142048 0.71248,0 1.05387,-0.629482 0.75863,-1.398849 -0.29523,-0.769368 -0.0561,-1.695925 0.53139,-2.059017 0.62546,-0.386557 1.06817,0.193207 1.06817,1.398849 0,2.494105 1.97178,2.788789 2.06768,0.309017 0.0525,-1.35699 0.32006,-1.225231 1.1915,0.5867 0.91939,1.911636 1.65745,2.229975 4.05732,1.75 1.61343,-0.322685 5.77011,-0.5867 9.23707,-0.5867 4.08436,0 6.79887,-0.495293 7.71043,-1.406859 2.27754,-2.277539 3.89725,-17.022566 2.68774,-24.467881 -1.20807,-7.436456 -0.60512,-8.933263 1.53513,-3.810919 1.79526,4.29665 1.90731,9.808281 0.41464,20.394811 -1.18146,8.379349 -3.09752,11.290848 -7.43051,11.290848 -5.27037,0 -5.471,0.443978 -5.471,12.106989 0,11.260027 0.26694,11.890885 4.15171,9.811819 2.94985,-1.57871 23.741,-3.851516 35.56311,-3.887616 11.54284,-0.03525 12.28518,0.432088 12.28518,7.734085 0,3.04476 -0.49195,4.14003 -2.25,5.00939 -5.83286,2.88433 -37.07061,4.02551 -46.13489,1.6854 l -2.88489,-0.74479 0.72843,4.89236 c 0.40064,2.6908 0.84893,5.01745 0.9962,5.17034 0.14728,0.15289 1.51918,-0.19781 3.04868,-0.77932 7.38562,-2.80801 21.67307,-5.16165 32.32443,-5.32497 10.17341,-0.15598 11.47289,0.0242 12.75,1.76744 2.00275,2.73381 1.7664,7.91175 -0.48833,10.69809 -1.89252,2.33873 -2.12602,2.36388 -25,2.69263 -18.21076,0.26172 -23.08963,0.60889 -23.08963,1.64301 0,0.72114 -0.56564,1.52822 -1.25697,1.79351 -0.97577,0.37444 -1.08689,3.47444 -0.49669,13.85699 0.70202,12.34962 4.2955,57.79964 5.20834,65.87464 1.75493,15.5241 1.79157,18.07087 0.28452,19.77569 -1.33987,1.5157 -1.36083,2.69217 -0.17327,9.72431 0.74305,4.4 2.32263,13.85 3.51018,21 1.18754,7.15 3.03658,16.35473 4.10898,20.45496 1.77389,6.78233 9.76116,28.20003 11.92768,31.98383 3.45213,6.02909 18.69524,45.91768 22.29796,58.3499 3.92075,13.52972 9.46197,38.39483 11.0782,49.71131 2.26759,15.87707 3.03208,41.79009 1.57963,53.54265 -1.42458,11.52697 -10.25784,39.26283 -15.59692,48.97329 -6.70636,12.19719 -19.74686,23.70149 -31.47164,27.7642 -12.06364,4.18012 -16.28818,4.96837 -31,5.78421 -19.33768,1.07238 -21.89328,1.05246 -25.00001,-0.19482 z m 18.66703,-2.28753 c 1.19186,-0.0451 2.44207,-0.35721 2.77823,-0.69357 0.33617,-0.33636 -4.68899,-0.83407 -11.16701,-1.10602 -10.39326,-0.4363 -12.694186,-0.87704 -19.567576,-3.74812 -15.77293,-6.58849 -33.73127,-22.55699 -40.16044,-35.71053 -4.0872,-8.36207 -10.59495,-18.41416 -11.54232,-17.82865 -1.08423,0.67009 -2.74928,-7.26795 -3.45994,-16.49511 -0.66921,-8.68886 0.79577,-28.74359 2.9527,-40.42077 0.82079,-4.44358 1.94495,-10.55423 2.49813,-13.57923 0.9897,-5.41204 10.30177,-37.22494 13.45812,-45.97708 2.054,-5.69548 10.31539,-22.03293 14.37013,-28.41792 1.7097,-2.69224 3.86098,-7.19224 4.78063,-10 1.87932,-5.73769 7.67832,-17.73843 10.50768,-21.74511 4.7971,-6.79323 25.317716,-62.48329 28.437446,-77.17527 1.70844,-8.04563 1.6822,-7.68462 0.55849,-7.68462 -0.48879,0 -1.20366,1.6875 -1.5886,3.75 -0.38494,2.0625 -2.85511,9.6 -5.48924,16.75 -2.63413,7.15 -6.368886,17.95 -8.299446,24 -4.24054,13.28898 -19.80744,47.44992 -26.00156,57.05939 -5.63134,8.73638 -8.13883,13.81936 -14.52335,29.44061 -13.44861,32.90524 -15.30979,38.46865 -20.23957,60.5 -9.09727,40.65595 -6.14868,67.45427 9.89093,89.89376 12.28438,17.18592 18.38968,23.10772 32.2144,31.24614 8.55142,5.0341 25.411786,9.53301 32.425146,8.65212 2.75,-0.34541 5.97516,-0.66491 7.16702,-0.71002 z m 31.8018,-3.53254 c 11.68815,-4.00156 18.44196,-8.16045 25.38185,-15.62973 8.28814,-8.92037 11.72021,-15.44385 18.22307,-34.63737 7.31492,-21.59036 8.4648,-29.74346 7.57989,-53.74418 -0.75092,-20.36655 -2.12727,-29.98844 -7.72984,-54.03818 -6.12075,-26.27412 -10.95531,-39.77388 -32.41,-90.5 -5.98916,-14.16039 -9.84707,-29.31743 -13.06897,-51.34564 -1.4202,-9.7099 -3.02902,-18.10436 -3.57517,-18.65436 -0.6578,-0.66244 -0.81145,0.68778 -0.4552,4 0.29579,2.75 1.02434,9.725 1.61901,15.5 3.14613,30.55312 8.11767,49.80605 16.9227,65.53542 3.0275,5.40835 12.7495,28.75508 15.39272,36.96458 5.3444,16.59902 13.08516,49.37883 15.82167,67 1.91689,12.3434 2.31704,18.71925 2.2594,36 -0.0693,20.77666 -0.10908,21.15421 -3.74001,35.5 -4.04638,15.98721 -10.45212,30.51724 -16.31477,37.00649 -1.89089,2.09299 -7.53488,6.59242 -12.54221,9.99874 -9.75036,6.63284 -17.89963,9.61618 -33.08296,12.11123 -10.80151,1.77499 -9.91009,3.31445 1.5,2.59048 6.50315,-0.41263 11.91335,-1.49874 18.21882,-3.65748 z m -7.3268,-3.66183 c 8.6419,-2.16276 11.71816,-3.50218 18.56776,-8.08447 4.51538,-3.02072 10.05843,-7.49778 12.3179,-9.94902 8.83877,-9.58893 17.45837,-33.67627 20.11656,-56.21542 2.22914,-18.90118 -1.25486,-54.93116 -7.70084,-79.63872 -1.4349,-5.5 -3.8975,-15.175 -5.47244,-21.5 -4.28304,-17.20079 -14.01443,-43.55651 -19.61288,-53.11794 l -1.98028,-3.38206 -8.9389,0 -8.9389,0 -0.32057,3.34672 -0.32057,3.34673 10.30653,-0.34673 c 9.39794,-0.31615 10.33808,-0.18308 10.66435,1.5095 0.1968,1.02092 -0.13438,2.34842 -0.73596,2.95 -0.79171,0.79171 -1.09378,0.61428 -1.09378,-0.64243 0,-1.54914 -1.05055,-1.70537 -9.75,-1.45 -8.98793,0.26384 -9.75,0.44253 -9.75,2.28621 0,1.90317 0.54467,1.98228 11.25,1.634 7.63493,-0.24838 11.25,-0.0179 11.25,0.71725 0,0.69604 -3.98792,1.18432 -11.15638,1.366 -9.00546,0.22824 -11.19857,0.57195 -11.37524,1.78275 -0.18282,1.25295 1.5311,1.5 10.40637,1.5 l 10.62525,0 0.31336,3.25 c 0.31079,3.2234 0.27721,3.25 -4.10331,3.25 -2.42917,0 -7.18268,0.28911 -10.56336,0.64246 -5.14244,0.53749 -6.14669,0.95231 -6.14669,2.53901 0,1.74818 0.73615,1.87395 9.4097,1.60754 5.17534,-0.15895 9.72938,0.0275 10.1201,0.41442 0.39072,0.38689 0.42278,1.84939 0.0712,3.25 -0.57473,2.29008 -1.12673,2.54657 -5.48048,2.54657 -8.84205,0 -14.12052,1.10525 -14.12052,2.95666 0,1.48205 1.01874,1.63134 8.46514,1.2405 8.35175,-0.43835 8.48117,-0.40911 9.66244,2.18349 0.65851,1.44529 0.94061,2.8845 0.62687,3.19823 -0.31374,0.31374 -4.88683,0.82795 -10.16244,1.1427 -8.58099,0.51195 -9.59201,0.77393 -9.59201,2.48553 0,1.7482 0.7549,1.90237 8.75,1.78703 13.31217,-0.19207 12.41904,-0.43312 12.06336,3.25586 l -0.31336,3.25 -10.75,0.28383 -10.75,0.28383 0,2.53305 0,2.53306 10.47954,-0.70199 c 8.99166,-0.60231 10.56437,-0.48092 11.07701,0.85498 0.3286,0.85633 0.097,2.49212 -0.51473,3.6351 -1.0119,1.89075 -2.01075,2.07814 -11.077,2.07814 -6.60339,0 -9.96482,0.37248 -9.96482,1.10419 0,0.7568 3.22471,0.99276 10.25,0.75 l 10.25,-0.35419 0,2.48304 c 0,2.11198 -0.59774,2.58903 -4,3.19237 -2.2,0.39013 -6.1007,0.73526 -8.66821,0.76696 -5.31727,0.0656 -7.83179,0.80679 -7.83179,2.30839 0,0.68346 2.68112,0.81319 7.86732,0.38068 5.92792,-0.49437 8.13622,-0.3321 8.95815,0.65826 1.27229,1.53302 0.40027,5.96785 -1.00294,5.10062 -1.43207,-0.88507 -16.82253,0.6828 -16.82253,1.71376 0,0.49276 3.825,0.89592 8.5,0.89592 l 8.5,0 0,2.83227 c 0,2.80473 -0.0511,2.82809 -5.25,2.40163 -2.8875,-0.23686 -6.825,0.023 -8.75,0.57753 l -3.5,1.00819 4.00945,0.0902 c 2.94853,0.0663 4.3621,0.65487 5.34217,2.22421 1.11155,1.77987 1.10998,2.27599 -0.009,2.98949 -0.73819,0.47052 -1.94043,0.63561 -2.67163,0.36688 -0.73121,-0.26873 -2.53121,-0.17121 -4,0.21671 l -2.67054,0.70532 3,0.55361 c 2.54105,0.46892 3,1.01106 3,3.54379 0,2.6733 -0.29142,2.9561 -2.75,2.66861 -1.5125,-0.17686 -2.75,0.16064 -2.75,0.75 0,0.58937 1.37989,1.07157 3.06642,1.07157 2.75523,0 3.03431,0.27908 2.75,2.75 -0.24853,2.15997 -0.90645,2.81789 -3.06642,3.06642 -2.35847,0.27137 -2.74967,0.76969 -2.74766,3.5 0.002,3.17018 -1.62855,47.22853 -2.36851,63.98579 l -0.38869,8.80222 6.56482,-0.30222 c 6.2709,-0.28868 6.63477,-0.17797 8.12743,2.47289 2.01237,3.57385 0.97258,4.28737 -7.58317,5.20361 -5.9726,0.63961 -6.35422,0.83414 -6.35422,3.23898 0,2.54331 0.0376,2.55465 6.32526,1.91046 7.23696,-0.74145 12.31887,0.002 13.0508,1.90947 0.68561,1.78667 -1.23519,8.46238 -2.43488,8.46238 -0.55994,0 -0.70546,-1.6219 -0.34679,-3.86493 0.57213,-3.57788 0.41822,-3.91509 -2.07223,-4.54015 -1.47964,-0.37137 -5.35244,-0.37402 -8.60621,-0.006 -5.55101,0.62802 -5.91511,0.83098 -5.9023,3.29015 0.0299,5.74092 1.00272,7.24021 4.36381,6.72552 5.97868,-0.91553 15.12589,-0.92643 15.62254,-0.0186 0.62608,1.14439 -9.51406,2.08281 -37,3.42417 -11.82501,0.57709 -22.962506,1.31194 -24.750006,1.63301 -2.59157,0.46549 -3.25,0.2488 -3.25,-1.06958 0,-0.90933 -0.93139,-3.47902 -2.06976,-5.7104 -1.13837,-2.23139 -1.92587,-4.17684 -1.75,-4.32322 0.62442,-0.52005 21.743466,-3.53998 24.755836,-3.53998 2.76531,0 3.06348,-0.30457 3.06348,-3.12921 l 0,-3.12921 -7.25001,0.71351 c -3.9875,0.39244 -7.64378,0.78808 -8.125056,0.87921 -1.2775,0.2419 -1.45204,-5.70275 -0.19288,-6.56899 0.587366,-0.40408 3.176146,-0.74158 5.752836,-0.75 2.5767,-0.008 5.76287,-0.42515 7.08039,-0.92607 2.37272,-0.90211 2.40684,-1.11819 3.59243,-22.75 0.65833,-12.01158 1.52216,-39.75464 1.91963,-61.65124 l 0.72266,-39.81199 -15.00001,0.21471 -14.999996,0.21472 -0.30409,-2.52497 c -0.19307,-1.60312 0.28185,-2.74983 1.30082,-3.14084 0.88271,-0.33873 7.88205,-0.91552 15.554096,-1.28175 12.92713,-0.6171 13.94918,-0.80852 13.94918,-2.61258 0,-1.86151 -0.55788,-1.91792 -12.75001,-1.28917 -7.012496,0.36163 -14.043796,0.90506 -15.625096,1.20762 -1.8509,0.35415 -2.64661,0.1804 -2.23369,-0.48772 0.35278,-0.57081 0.18407,-1.32049 -0.3749,-1.66595 -1.85161,-1.14436 -1.07149,-4.26084 1.23369,-4.92842 1.2375,-0.35838 8.2125,-0.92826 15.499996,-1.26641 12.93368,-0.60013 13.25001,-0.66908 13.25001,-2.88792 0,-2.2066 -0.22672,-2.26018 -7.75,-1.83131 -24.457906,1.39424 -22.250006,1.50276 -22.250006,-1.09368 0,-2.80263 0.67295,-2.97751 17.749996,-4.61263 9.51082,-0.91066 12.25001,-1.49799 12.25001,-2.62661 0,-1.23804 -2.18887,-1.34812 -14.75585,-0.74212 l -14.755846,0.71156 -0.12224,-2.99127 c -0.0986,-2.41149 0.29022,-2.99909 2.00584,-3.03162 1.17045,-0.0222 7.07809,-0.52807 13.128086,-1.12417 6.05001,-0.59609 11.78751,-1.08418 12.75001,-1.08464 1.12438,-5.4e-4 1.75,-0.77032 1.75,-2.15324 0,-2.12239 -0.17084,-2.1431 -12.25001,-1.48505 -6.737496,0.36705 -13.332866,0.95651 -14.656366,1.30993 -1.60965,0.42982 -2.18365,0.2822 -1.73369,-0.44586 0.36998,-0.59863 0.21534,-1.37108 -0.34363,-1.71654 -0.55897,-0.34546 -1.01631,-1.45737 -1.01631,-2.47091 0,-2.00179 1.80374,-2.31617 20.749996,-3.6166 8.18701,-0.56193 9.25001,-0.85253 9.25001,-2.52873 0,-1.69727 -0.8044,-1.89175 -7.75,-1.87373 -4.26251,0.0111 -10.658166,0.4404 -14.212576,0.95409 -3.55442,0.51369 -6.52728,0.84215 -6.60636,0.72989 -0.0791,-0.11225 -0.42504,-1.68092 -0.7688,-3.48593 -0.54127,-2.84218 -0.29749,-3.40635 1.81971,-4.21131 1.3446,-0.51121 8.31121,-1.23918 15.481366,-1.61771 l 13.03666,-0.68824 0,-3.46695 0,-3.46694 -6.25,0.58663 c -3.4375,0.32265 -10.5898,0.87501 -15.893986,1.22747 -8.97557,0.59642 -9.78271,0.82846 -11.64547,3.34798 -2.29644,3.1061 -7.47729,13.91403 -9.54073,19.90323 -0.77109,2.2381 -3.91302,8.47892 -6.98206,13.86848 -8.62552,15.14734 -12.18873,23.46326 -17.48168,40.7992 -10.76761,35.26705 -15.20608,63.38106 -13.36029,84.62644 0.7923,9.11958 1.07424,9.98835 5.35468,16.5 2.48509,3.78046 6.26911,10.246 8.40894,14.36786 9.50982,18.31842 32.84528,36.06702 51.286456,39.00772 9.56037,1.52454 28.66749,0.28334 40.24616,-2.61439 z m -29.43781,-14.78674 c 0.11231,-0.0968 0.50733,-2.07158 0.87781,-4.38843 l 0.6736,-4.21246 -3.58696,0 c -4.89548,0 -18.072426,2.01347 -19.680316,3.0072 -1.07582,0.6649 -1.07347,1.37309 0.0133,3.99677 l 1.3208,3.18869 10.088776,-0.7079 c 5.54883,-0.38935 10.18067,-0.78709 10.29299,-0.88387 z m -18.037546,-0.26756 c -0.36667,-0.36666 -0.65236,-1.60416 -0.63487,-2.75 0.0298,-1.95479 0.11455,-1.97429 1.37295,-0.31596 0.7982,1.05187 1.99983,1.51461 2.9682,1.14301 0.894876,-0.3434 1.627046,-0.17436 1.627046,0.37564 0,1.66028 -4.046406,2.83423 -5.333326,1.54731 z m 33.079446,-4.95714 c 0.37048,-4.93755 0.29796,-5.10727 -1.99511,-4.66892 -1.83158,0.35013 -2.65173,1.47249 -3.56144,4.8738 -0.65004,2.43041 -1.63361,4.41893 -2.18572,4.41893 -1.30347,0 -1.30662,-3.69484 -0.004,-4.5 1.43672,-0.88794 1.2352,-4.50288 -0.25,-4.48469 -2.42058,0.0297 -3.45585,1.52787 -4.01513,5.81057 l -0.56491,4.32589 6.09585,-0.32589 6.09585,-0.32588 0.38445,-5.12381 z m 5.50389,3.37381 c -0.1375,-0.4125 -0.25,-2.55 -0.25,-4.75 0,-2.88889 -0.41667,-4 -1.5,-4 -1.04078,0 -1.5,1.04647 -1.5,3.41821 0,1.88002 -0.28834,4.16962 -0.64076,5.088 -0.50565,1.31772 -0.13668,1.59852 1.75,1.33179 1.31492,-0.1859 2.27826,-0.6755 2.14076,-1.088 z m -12.25,-12.31955 c 0,-2.09274 -0.41752,-2.51025 -2.25,-2.25 -1.44596,0.20536 -2.36419,1.12359 -2.56955,2.56955 -0.26025,1.83248 0.15726,2.25 2.25,2.25 2.09273,0 2.56955,-0.47682 2.56955,-2.56955 z m 5.41821,1.96256 c 2.66286,-1.02183 1.95823,-4.39301 -0.91821,-4.39301 -2,0 -2.5,0.5 -2.5,2.5 0,2.57125 0.67566,2.94543 3.41821,1.89301 z m 6.18878,-1.9748 c -0.33385,-0.86998 -0.60699,-1.99498 -0.60699,-2.5 0,-0.50501 -0.45,-0.91821 -1,-0.91821 -0.55,0 -1,1.125 -1,2.5 0,1.62953 0.55953,2.5 1.60699,2.5 1.05452,0 1.39831,-0.5438 1,-1.58179 z m -23.24656,-4.05413 c 3.144,-0.43094 4.63957,-1.11319 4.63957,-2.1165 0,-1.23183 -1.13403,-1.36043 -6.75001,-0.76545 -7.4251,0.78665 -7.74793,0.90318 -6.79112,2.45134 0.76115,1.23156 2.45879,1.31368 8.90156,0.43061 z m 10.92528,-0.98313 c 0.92821,-0.9282 -2.11321,-3.6056 -3.27804,-2.88569 -1.69736,1.04903 -1.11884,3.50474 0.82566,3.50474 1.00834,0 2.11191,-0.27857 2.45238,-0.61905 z m 7.71429,-1.88095 c 0,-0.93333 -0.94444,-1.5 -2.5,-1.5 -1.55556,0 -2.5,0.56667 -2.5,1.5 0,0.93333 0.94444,1.5 2.5,1.5 1.55556,0 2.5,-0.56667 2.5,-1.5 z m 4,0 c 0,-0.825 -0.45,-1.5 -1,-1.5 -0.55,0 -1,0.675 -1,1.5 0,0.825 0.45,1.5 1,1.5 0.55,0 1,-0.675 1,-1.5 z m 11.25,0.85815 c 2.87525,-0.47525 3.75,-1.0859 3.75,-2.61782 0,-1.82924 -0.43857,-1.93981 -5.19255,-1.30918 -6.00852,0.79706 -6.80745,1.16415 -6.80745,3.12787 0,1.56485 2.2808,1.78578 8.25,0.79913 z m -23.88541,-24.10815 c 0.80821,-24.73279 2.38267,-50.51236 4.03357,-66.04411 0.97562,-9.17863 0.9571,-11.49609 -0.0988,-12.37244 -1.90451,-1.5806 -1.73101,-6.93634 0.20068,-6.19508 0.825,0.31659 1.5,0.12561 1.5,-0.42439 0,-0.55 -0.675,-1.25902 -1.5,-1.57561 -2.25916,-0.86692 -1.8916,-5.3793 0.5,-6.13837 2.84099,-0.90169 2.47886,-2.5 -0.56642,-2.5 -2.20978,0 -2.52245,-0.38216 -2.25,-2.75 0.22656,-1.96901 0.95541,-2.84075 2.56642,-3.06955 3.26683,-0.46396 2.76176,-2.18045 -0.64159,-2.18045 -3.76947,0 -3.94505,0.85855 -4.09014,20 -0.16158,21.31707 -1.93285,84.56581 -2.66745,95.25 -0.50201,7.30122 -0.35845,8.75 0.86704,8.75 1.22258,0 1.58227,-3.4768 2.14673,-20.75 z m 8.13541,6.50071 c 0,-7.28789 0.40386,-24.90578 0.89746,-39.15086 0.67638,-19.51989 0.61306,-25.72439 -0.25706,-25.18662 -2.25685,1.39481 -2.56029,-2.6548 -0.334,-4.45754 l 2.13991,-1.7328 -2.47316,-0.47277 c -1.4268,-0.27275 -2.47935,-0.003 -2.48779,0.63855 -0.008,0.61123 -0.656,10.56133 -1.43988,22.11133 -0.78388,11.55 -1.74255,30.1125 -2.13037,41.25 l -0.70514,20.25 3.39502,7.1e-4 3.39501,7.2e-4 0,-13.25072 z m 4.88824,3.99929 c 0.31618,-5.0875 0.81457,-16.675 1.10751,-25.75 0.29295,-9.075 0.81146,-22.28209 1.15225,-29.34909 0.58928,-12.21994 0.52738,-12.83141 -1.26419,-12.48795 -1.77559,0.3404 -1.95276,2.39988 -3.084,35.84909 -0.66011,19.51837 -0.96185,36.72545 -0.67055,38.23795 1.03229,5.35975 2.19165,2.62834 2.75898,-6.5 z m 2.61176,-70.75 c 0,-0.55 -0.92656,-1 -2.05902,-1 -1.13246,0 -1.7809,0.45 -1.44098,1 0.33992,0.55 1.26648,1 2.05902,1 0.79254,0 1.44098,-0.45 1.44098,-1 z m 6,0 c 0,-0.55 -0.9,-1 -2,-1 -1.1,0 -2,0.45 -2,1 0,0.55 0.9,1 2,1 1.1,0 2,-0.45 2,-1 z m -6,-4 c 0,-0.55 -0.675,-1 -1.5,-1 -0.825,0 -1.5,0.45 -1.5,1 0,0.55 0.675,1 1.5,1 0.825,0 1.5,-0.45 1.5,-1 z m 0,-4.10699 c 0,-0.49115 -0.675,-0.89301 -1.5,-0.89301 -0.825,0 -1.5,0.66088 -1.5,1.46862 0,0.89459 0.58629,1.24363 1.5,0.89301 0.825,-0.31659 1.5,-0.97746 1.5,-1.46862 z m 6,0.10699 c 0,-0.55 -0.9,-1 -2,-1 -1.1,0 -2,0.45 -2,1 0,0.55 0.9,1 2,1 1.1,0 2,-0.45 2,-1 z m -12.32086,-3.5 c -0.74507,-0.55 -1.61716,-1.675 -1.93796,-2.5 -0.32081,-0.825 -0.61881,0.19131 -0.66223,2.25847 -0.074,3.52491 0.0464,3.68027 1.93797,2.5 1.63401,-1.01956 1.75973,-1.44831 0.66222,-2.25847 z m 6.05003,-0.10417 c -0.33229,-0.33229 -1.1948,-0.36781 -1.91667,-0.0789 -0.79773,0.31922 -0.56078,0.55618 0.60417,0.60416 1.05416,0.0434 1.64479,-0.19293 1.3125,-0.52522 z m 0.27083,-3.39583 c 0,-0.55 -0.675,-1 -1.5,-1 -0.825,0 -1.5,0.45 -1.5,1 0,0.55 0.675,1 1.5,1 0.825,0 1.5,-0.45 1.5,-1 z m 7.5,0 c 0.36058,-0.58342 -0.65628,-1 -2.44098,-1 -1.68246,0 -3.05902,0.45 -3.05902,1 0,0.55 1.09844,1 2.44098,1 1.34254,0 2.7191,-0.45 3.05902,-1 z m -12.5,-3.19032 c 0,-1.31439 -2.27278,-0.49134 -2.77106,1.0035 -0.24358,0.73075 0.21359,0.95424 1.1875,0.58051 0.87096,-0.33422 1.58356,-1.04702 1.58356,-1.58401 z m 1,-3.80968 c 0,-0.55 -0.9,-1 -2,-1 -1.1,0 -2,0.45 -2,1 0,0.55 0.9,1 2,1 1.1,0 2,-0.45 2,-1 z m 4,0 c 0,-0.55 -0.45,-1 -1,-1 -0.55,0 -1,0.45 -1,1 0,0.55 0.45,1 1,1 0.55,0 1,-0.45 1,-1 z m 15,0 c 1.74513,-0.55889 0.1599,-0.83074 -5.25,-0.90032 -4.56645,-0.0587 -7.75,0.3111 -7.75,0.90032 0,1.16885 9.35025,1.16885 13,0 z m -19,-4 c 0,-0.55 -0.9,-1 -2,-1 -1.1,0 -2,0.45 -2,1 0,0.55 0.9,1 2,1 1.1,0 2,-0.45 2,-1 z m 4,0 c 0,-0.55 -0.45,-1 -1,-1 -0.55,0 -1,0.45 -1,1 0,0.55 0.45,1 1,1 0.55,0 1,-0.45 1,-1 z m -4,-4.10699 c 0,-1.14261 -2.71175,-1.16842 -3.4138,-0.0325 -0.2925,0.47329 -0.27507,1.11728 0.0387,1.4311 0.78043,0.78039 3.3751,-0.29484 3.3751,-1.3986 z m 4,0.10699 c 0,-0.55 -0.19844,-1 -0.44098,-1 -0.24254,0 -0.7191,0.45 -1.05902,1 -0.33992,0.55 -0.14148,1 0.44098,1 0.58246,0 1.05902,-0.45 1.05902,-1 z m 15.73875,0.37266 c 4.18044,-1.12045 1.08789,-2.50694 -5.08896,-2.28154 -6.79307,0.24788 -8.64979,0.68059 -8.64979,2.01587 0,0.99866 10.26343,1.19713 13.73875,0.26567 z m -18.73875,-4.37266 c 0,-0.55 -0.9,-1 -2,-1 -1.1,0 -2,0.45 -2,1 0,0.55 0.9,1 2,1 1.1,0 2,-0.45 2,-1 z m -6,-4 c 0,-0.55 -0.675,-1 -1.5,-1 -0.825,0 -1.5,0.45 -1.5,1 0,0.55 0.675,1 1.5,1 0.825,0 1.5,-0.45 1.5,-1 z m 6,-0.5 c 0,-0.83333 -0.88889,-1.5 -2,-1.5 -1.11111,0 -2,0.66667 -2,1.5 0,0.83333 0.88889,1.5 2,1.5 1.11111,0 2,-0.66667 2,-1.5 z m 4,-0.55902 c 0,-0.51754 -0.45,-0.94098 -1,-0.94098 -0.55,0 -1,0.70156 -1,1.55902 0,0.85746 0.45,1.2809 1,0.94098 0.55,-0.33992 1,-1.04148 1,-1.55902 z m 16.2492,0.80813 c 4.59421,-0.24098 5.81848,-0.97121 3.7606,-2.24305 -0.54461,-0.33659 -4.81961,-0.30127 -9.5,0.0785 -6.46807,0.52481 -8.5098,1.03989 -8.5098,2.1468 0,1.15416 0.98551,1.33292 4.75,0.86159 2.6125,-0.3271 6.88714,-0.70683 9.4992,-0.84384 z m -20.9992,-4.41139 c -0.6875,-0.27741 -1.8125,-0.27741 -2.5,0 -0.6875,0.27741 -0.125,0.50439 1.25,0.50439 1.375,0 1.9375,-0.22698 1.25,-0.50439 z m 4.75,-0.33772 c 0,-0.55 -0.45,-1 -1,-1 -0.55,0 -1,0.45 -1,1 0,0.55 0.45,1 1,1 0.55,0 1,-0.45 1,-1 z m -18,-3.63045 c 0,-1.44953 -1.50116,-1.57954 -13.52838,-1.17163 -8.419476,0.28555 -13.970816,0.90127 -14.699996,1.63045 -0.89551,0.89551 2.29277,1.17163 13.528366,1.17163 12.92273,0 14.70001,-0.19713 14.70001,-1.63045 z m 8,-0.36955 c 0,-1.55556 -0.66667,-2 -3,-2 -2.33333,0 -3,0.44444 -3,2 0,1.55556 0.66667,2 3,2 2.33333,0 3,-0.44444 3,-2 z m 6,0 c 0,-1.33333 -0.66667,-2 -2,-2 -1.33333,0 -2,0.66667 -2,2 0,1.33333 0.66667,2 2,2 1.33333,0 2,-0.66667 2,-2 z m 4,-0.55902 c 0,-0.85746 -0.45,-1.2809 -1,-0.94098 -0.55,0.33992 -1,1.04148 -1,1.55902 0,0.51754 0.45,0.94098 1,0.94098 0.55,0 1,-0.70156 1,-1.55902 z m 21,0.059 c 0,-1.20704 -1.54647,-1.5 -7.91821,-1.5 -8.15768,2e-5 -11.08179,0.55598 -11.08179,2.10701 0,0.49115 4.275,0.89301 9.5,0.89301 7.77778,0 9.5,-0.27193 9.5,-1.5 z m -32.58179,-3.10699 c 2.78653,-1.06927 1.81526,-3.39299 -1.41821,-3.39299 -2.33333,0 -3,0.44444 -3,2 0,2.02195 1.52569,2.50298 4.41821,1.39301 z m 11.58179,-1.89299 c 0,-1.375 -0.45,-2.5 -1,-2.5 -1.11717,0 -1.3707,3.29596 -0.33333,4.33333 1.10234,1.10234 1.33333,0.78473 1.33333,-1.83333 z m -4,-0.40638 c 0,-1.41405 -0.51651,-1.77131 -2,-1.38337 -1.1,0.28766 -2,1.14553 -2,1.90638 0,0.76085 0.9,1.38337 2,1.38337 1.30059,0 2,-0.66667 2,-1.90638 z m -25.75001,-2.60891 c 9.57345,-0.55567 11.75001,-0.96492 11.75001,-2.20931 0,-1.31946 -1.97002,-1.46803 -14.47624,-1.09179 -7.961926,0.23954 -14.767516,0.72681 -15.123536,1.08283 -1.56118,1.56118 0.62945,3.75837 3.3255,3.33545 1.52585,-0.23935 8.061766,-0.74208 14.524266,-1.11718 z m 19.75001,-1.98471 c 0,-1 -1,-1.5 -3,-1.5 -2,0 -3,0.5 -3,1.5 0,1 1,1.5 3,1.5 2,0 3,-0.5 3,-1.5 z m 6,-0.5 c 0,-1.33333 -0.66667,-2 -2,-2 -1.33333,0 -2,0.66667 -2,2 0,1.33333 0.66667,2 2,2 1.33333,0 2,-0.66667 2,-2 z m 4.82332,-0.33287 c 0.19138,-0.98676 -0.31876,-1.66713 -1.25,-1.66713 -0.92763,0 -1.57332,0.855 -1.57332,2.08333 0,2.43705 2.33677,2.09257 2.82332,-0.4162 z m 21.17668,-0.0601 c 0,-2.13598 -2.01812,-2.48517 -10.86032,-1.87911 -5.91363,0.40533 -8.13968,0.92905 -8.13968,1.91501 0,1.04758 2.16679,1.35711 9.5,1.35711 7.45349,0 9.5,-0.30008 9.5,-1.39301 z m -32,-5.10699 c 0,-2.09996 -0.4706,-2.5 -2.94098,-2.5 -3.29464,0 -4.36021,1.05154 -3.45528,3.40976 0.36324,0.94658 1.78121,1.59024 3.50325,1.59024 2.41921,0 2.89301,-0.40943 2.89301,-2.5 z m 6,0 c 0,-1.83333 -0.53333,-2.5 -2,-2.5 -1.46667,0 -2,0.66667 -2,2.5 0,1.83333 0.53333,2.5 2,2.5 1.46667,0 2,-0.66667 2,-2.5 z m 5,0 c 0,-1.55556 -0.56667,-2.5 -1.5,-2.5 -0.93333,0 -1.5,0.94444 -1.5,2.5 0,1.55556 0.56667,2.5 1.5,2.5 0.93333,0 1.5,-0.94444 1.5,-2.5 z m -32.41822,-3.5 c 10.37175,0 12.41822,-0.24719 12.41822,-1.5 0,-1.09933 -1.13524,-1.49781 -4.25,-1.4918 -7.4596,0.0144 -22.189756,2.02811 -23.237786,3.17676 -0.72152,0.79079 -0.48614,0.92353 0.81957,0.46222 1.00748,-0.35595 7.41998,-0.64718 14.249996,-0.64718 z m 21.41822,-2 c 0,-0.55 -1.575,-1 -3.5,-1 -1.925,0 -3.5,0.45 -3.5,1 0,0.55 1.575,1 3.5,1 1.925,0 3.5,-0.45 3.5,-1 z m 6,0 c 0,-0.55 -0.9,-1 -2,-1 -1.1,0 -2,0.45 -2,1 0,0.55 0.9,1 2,1 1.1,0 2,-0.45 2,-1 z m 5,0 c 0,-0.55 -0.675,-1 -1.5,-1 -0.825,0 -1.5,0.45 -1.5,1 0,0.55 0.675,1 1.5,1 0.825,0 1.5,-0.45 1.5,-1 z m 17.41821,0.39301 c 0.86999,-0.33384 1.58179,-1.04329 1.58179,-1.57654 0,-1.4967 -16.24607,-0.59136 -16.75197,0.93353 -0.30537,0.92046 1.43111,1.25 6.58685,1.25 3.85085,0 7.71335,-0.27314 8.58333,-0.60699 z m -28.41821,-5.45637 c 0,-1.7246 -0.53224,-2.01191 -3.24181,-1.75 -2.13505,0.20638 -3.35499,0.91081 -3.57332,2.06336 -0.2656,1.40202 0.37902,1.75 3.24181,1.75 2.94323,0 3.57332,-0.36384 3.57332,-2.06336 z m 6,0.0634 c 0,-1.11111 -0.66667,-2 -1.5,-2 -0.825,0 -1.5,0.1882 -1.5,0.41821 0,0.23002 -0.27314,1.13002 -0.60699,2 -0.43514,1.13395 -0.0105,1.58179 1.5,1.58179 1.44032,0 2.10699,-0.63281 2.10699,-2 z m 5.82933,-0.3523 c 0.25442,-1.32108 -0.15595,-1.73145 -1.47703,-1.47703 -1.00613,0.19376 -1.98787,1.1755 -2.18163,2.18163 -0.25442,1.32108 0.15595,1.73145 1.47703,1.47703 1.00613,-0.19376 1.98787,-1.1755 2.18163,-2.18163 z m -29.07933,-2.30191 c 6.37782,-0.49648 8.25,-0.98233 8.25,-2.14093 0,-1.27655 -1.5935,-1.40815 -10.75001,-0.8878 -12.114236,0.68842 -17.249996,1.52441 -17.249996,2.80794 0,1.02973 8.18321,1.12121 19.750006,0.22079 z m 17.25,-1.84579 c 1.07233,-1.29208 0.67346,-1.5 -2.87756,-1.5 -2.99772,0 -4.12244,0.40924 -4.12244,1.5 0,0.98582 0.9864,1.5 2.87756,1.5 1.58265,0 3.43775,-0.675 4.12244,-1.5 z m 6.75047,-1.25 c 0.24412,-0.73318 -0.44516,-1.25 -1.66714,-1.25 -1.22833,0 -2.08333,0.64569 -2.08333,1.57332 0,1.83788 3.12044,1.56887 3.75047,-0.32332 z m 5.24953,0.25 c 0,-0.825 -0.675,-1.5 -1.5,-1.5 -0.825,0 -1.5,0.675 -1.5,1.5 0,0.825 0.675,1.5 1.5,1.5 0.825,0 1.5,-0.675 1.5,-1.5 z m 13.25,0.84829 c 6.82189,-0.64429 8.47924,-1.66467 4.66838,-2.8742 -3.54307,-1.12452 -15.91838,0.52937 -15.91838,2.1274 0,1.56852 1.49711,1.6679 11.25,0.7468 z m -24.25,-5.84829 c 0,-1.71949 -0.54636,-2.49574 -1.75,-2.48635 -3.7539,0.0293 -6.25,1.26855 -6.25,3.10298 0,1.5306 0.74924,1.88337 4,1.88337 3.6,0 4,-0.25 4,-2.5 z m 5.81955,-0.26022 c 0.2427,-1.70114 -0.17815,-2.23978 -1.75,-2.23978 -1.55658,0 -2.06955,0.63784 -2.06955,2.57332 0,3.28234 3.34535,2.99021 3.81955,-0.33354 z m 5.18045,-0.34677 c 0,-1.04115 -0.675,-1.89301 -1.5,-1.89301 -0.92825,0 -1.5,0.94096 -1.5,2.46862 0,1.78348 0.41631,2.30886 1.5,1.89301 0.825,-0.31659 1.5,-1.42746 1.5,-2.46862 z m -30.75001,-2.46722 c 8.11878,-0.5526 9.75001,-0.93922 9.75001,-2.31087 0,-1.47803 -1.20706,-1.57152 -11.75001,-0.91004 -14.075086,0.88308 -16.249996,1.34185 -16.249996,3.42772 0,1.29843 0.78912,1.48887 4.25,1.02565 2.3375,-0.31286 8.637496,-0.86747 13.999996,-1.23246 z m 19.56502,-2.67579 c 0.27185,-1.43453 -0.40266,-1.75 -3.74169,-1.75 -3.44643,0 -4.07332,0.31709 -4.07332,2.06037 0,1.76868 0.5297,2.01642 3.74168,1.75 2.61495,-0.21691 3.84155,-0.83735 4.07333,-2.06037 z m 6.18499,-0.25 c 0,-0.83333 -0.88889,-1.5 -2,-1.5 -1.11111,0 -2,0.66667 -2,1.5 0,0.83333 0.88889,1.5 2,1.5 1.11111,0 2,-0.66667 2,-1.5 z m 5,0 c 0,-0.825 -0.675,-1.5 -1.5,-1.5 -0.825,0 -1.5,0.675 -1.5,1.5 0,0.825 0.675,1.5 1.5,1.5 0.825,0 1.5,-0.675 1.5,-1.5 z m 15.75,0.85202 c 3.18222,-0.38223 5.25,-1.12062 5.25,-1.87473 0,-1.70624 -3.20699,-2.1619 -11.75,-1.66948 -6.2912,0.36262 -7.25,0.66746 -7.25,2.30504 0,1.55487 0.74831,1.88562 4.25,1.87846 2.3375,-0.005 6.6125,-0.29246 9.5,-0.63929 z m -28.5,-4.33837 c 0.9625,-0.008 1.75,-0.71581 1.75,-1.57402 0,-2.44842 -7.36701,-1.55285 -7.84255,0.95338 -0.29437,1.55145 0.065,1.77945 1.99168,1.26365 1.29298,-0.34614 3.13837,-0.6355 4.10087,-0.64301 z m 7.75,-1.51365 c 0,-0.83333 -0.88889,-1.5 -2,-1.5 -1.11111,0 -2,0.66667 -2,1.5 0,0.83333 0.88889,1.5 2,1.5 1.11111,0 2,-0.66667 2,-1.5 z m 4.36163,0 c 0.35062,-0.91371 0.002,-1.5 -0.89301,-1.5 -0.80774,0 -1.46862,0.675 -1.46862,1.5 0,0.825 0.40186,1.5 0.89301,1.5 0.49116,0 1.15203,-0.675 1.46862,-1.5 z m -31.24094,-3.16861 c 11.00138,-0.59154 11.87931,-0.78661 11.87931,-2.63954 0,-1.93171 -0.45493,-1.97903 -13.17577,-1.37056 -7.246666,0.34663 -13.606426,1.0609 -14.132786,1.58726 -1.47912,1.47912 0.0593,4.40108 1.93768,3.68027 0.88675,-0.34028 6.957956,-0.90612 13.491566,-1.25743 z m 20.87931,-2.33139 c 0,-1.61905 -0.66667,-2 -3.5,-2 -2.83333,0 -3.5,0.38095 -3.5,2 0,1.61905 0.66667,2 3.5,2 2.83333,0 3.5,-0.38095 3.5,-2 z m 6,0 c 0,-1.33333 -0.66667,-2 -2,-2 -1.33333,0 -2,0.66667 -2,2 0,1.33333 0.66667,2 2,2 1.33333,0 2,-0.66667 2,-2 z m 4,-0.55902 c 0,-1.45136 -0.43284,-2.2915 -1,-1.94098 -0.55,0.33992 -1,1.49148 -1,2.55902 0,1.06754 0.45,1.94098 1,1.94098 0.55,0 1,-1.15156 1,-2.55902 z m -10.81021,-6.94098 c -0.36173,-3.09855 -0.74016,-3.5 -3.2992,-3.5 -2.63687,0 -2.89059,0.30722 -2.89059,3.5 0,3.29276 0.19535,3.5 3.2992,3.5 3.18168,0 3.28464,-0.12468 2.89059,-3.5 z m 6.81021,-0.2128 c 0,-2.87875 -0.32513,-3.2872 -2.61663,-3.2872 -2.22554,0 -2.52651,0.3363 -2.01366,2.25 0.33164,1.2375 0.60913,2.78453 0.61664,3.43785 0.008,0.65332 0.91365,1.12006 2.01365,1.0372 1.56383,-0.1178 2,-0.86754 2,-3.43785 z m 4.75,-0.76896 c 0,-1.38503 -0.39375,-2.51824 -0.875,-2.51824 -0.48125,0 -0.875,1.37656 -0.875,3.05902 0,1.68246 0.39375,2.81566 0.875,2.51823 0.48125,-0.29742 0.875,-1.67398 0.875,-3.05901 z m -22,-4.10025 c 1.2375,-0.25085 2.25,-1.12252 2.25,-1.93704 0,-0.81452 -0.17732,-1.48095 -0.39405,-1.48095 -1.85482,0 -21.717756,2.16426 -23.855956,2.59934 -1.5125,0.30776 -2.75,0.9818 -2.75,1.49787 0,0.89201 19.660466,0.35246 24.750006,-0.67922 z m 10.25,-1.91799 c 0,-1 -1,-1.5 -3,-1.5 -2,0 -3,0.5 -3,1.5 0,1 1,1.5 3,1.5 2,0 3,-0.5 3,-1.5 z m 7,-0.5 c 0,-2.09129 -0.77523,-2.40722 -3.41821,-1.39301 -2.52911,0.97051 -1.87353,3.39301 0.91821,3.39301 1.83333,0 2.5,-0.53333 2.5,-2 z m 5,-0.55902 c 0,-0.79254 -0.675,-1.44098 -1.5,-1.44098 -1.50623,0 -2.05568,2.11099 -0.86052,3.30615 0.93324,0.93324 2.36052,-0.19452 2.36052,-1.86517 z m 14.65992,1.23243 c 1.51011,-1.51011 -1.41356,-2.67341 -6.71894,-2.67341 -5.2531,0 -5.94098,0.22912 -5.94098,1.9788 0,1.79495 0.563,1.94425 6.05979,1.60688 3.33288,-0.20455 6.30294,-0.61508 6.60013,-0.91227 z m 4.34008,-0.0463 c 0,-0.20509 -0.92106,-2.45509 -2.04679,-5 l -2.0468,-4.62712 -6.4532,0 -6.45321,0 0,2.9589 0,2.9589 6.3377,-0.50692 c 4.88293,-0.39056 6.62427,-0.16163 7.58609,0.9973 0.68662,0.82731 0.95809,1.97392 0.60328,2.54802 -0.35481,0.57409 0.0564,1.0438 0.91391,1.0438 0.85746,0 1.55902,-0.1678 1.55902,-0.37288 z m -51.75001,-1.80638 12.75001,-1.18917 0,-2.95811 0,-2.95811 -11.25001,0.80227 c -6.1875,0.44126 -12.262496,0.8428 -13.499996,0.89233 -1.2375,0.0495 -2.25,0.093 -2.25,0.0967 0,0.004 -0.41859,1.46613 -0.93019,3.25 -1.10561,3.85503 -2.29189,3.69372 15.180186,2.06414 z m 20.75001,-4.64755 c 0,-2.57207 -0.27034,-2.78713 -3,-2.3865 -2.37229,0.34818 -3,0.93965 -3,2.82681 0,1.985 0.50471,2.3865 3,2.3865 2.62582,0 3,-0.35258 3,-2.82681 z m 7,-0.17319 c 0,-2.53333 -0.38889,-3 -2.5,-3 -2.11111,0 -2.5,0.46667 -2.5,3 0,2.53333 0.38889,3 2.5,3 2.11111,0 2.5,-0.46667 2.5,-3 z m 4,0 c 0,-1.65 -0.45,-3 -1,-3 -1.11229,0 -1.38019,4.28648 -0.33333,5.33333 1.12977,1.12977 1.33333,0.77354 1.33333,-2.33333 z m -28.25,-3.53465 c 6.94197,-0.50858 9.25,-1.0272 9.25,-2.07849 0,-1.12316 -1.43709,-1.29117 -7.25,-0.84762 -11.39029,0.86911 -15.750006,1.5211 -15.750006,2.35537 0,1.37747 1.31856,2.13767 2.92767,1.6879 0.864776,-0.24172 5.734826,-0.74444 10.822336,-1.11716 z m 17.25,-1.96535 c 0,-1 -1,-1.5 -3,-1.5 -2,0 -3,0.5 -3,1.5 0,1 1,1.5 3,1.5 2,0 3,-0.5 3,-1.5 z m 7,-1.06955 c 0,-1.04234 -0.72946,-1.46221 -2.17167,-1.25 -3.2015,0.47108 -3.54438,2.81955 -0.41166,2.81955 1.6805,0 2.58333,-0.54853 2.58333,-1.56955 z m 4,0.0695 c 0,-0.825 -0.45,-1.5 -1,-1.5 -0.55,0 -1,0.675 -1,1.5 0,0.825 0.45,1.5 1,1.5 0.55,0 1,-0.675 1,-1.5 z m 14.36163,0 c -0.42155,-1.09852 -2.15288,-1.5 -6.46862,-1.5 -5.44842,0 -6.90803,0.65165 -5.22634,2.33333 0.36666,0.36667 3.27754,0.66667 6.46861,0.66667 4.74645,0 5.69724,-0.27288 5.22635,-1.5 z m -36.55068,-2.09551 c 2.89183,-0.45242 3.27158,-0.85381 3,-3.17101 -0.29825,-2.54469 -0.53556,-2.6435 -5.81095,-2.41951 -13.345206,0.56663 -15.543776,1.13899 -16.760856,4.36342 l -1.12975,2.99304 8.695296,-0.62398 c 4.78241,-0.34319 10.18524,-0.85707 12.00626,-1.14196 z m 11.18905,-3.40444 c 0,-2.66667 -0.33333,-3 -3,-3 -2.66667,0 -3,0.33333 -3,3 0,2.66667 0.33333,3 3,3 2.66667,0 3,-0.33333 3,-3 z m 5.41821,2.39301 c 0.86999,-0.33384 1.58179,-1.68384 1.58179,-3 0,-1.88588 -0.52981,-2.39301 -2.5,-2.39301 -2.11111,0 -2.5,0.46667 -2.5,3 0,3.05289 0.60141,3.47392 3.41821,2.39301 z m 5.58179,-3.39301 c 0,-1.65 -0.45,-3 -1,-3 -0.55,0 -1,1.35 -1,3 0,1.65 0.45,3 1,3 0.55,0 1,-1.35 1,-3 z m 12.8327,-0.0501 c -1.00033,-2.86955 -1.33291,-3.03232 -5.61865,-2.75 -4.125,0.27173 -4.58973,0.5599 -4.91893,3.05008 -0.36143,2.73405 -0.32884,2.75 5.61865,2.75 l 5.98219,0 -1.06326,-3.05008 z m -37.2077,-2.9499 c 4.54683,0 5.375,-0.28267 5.375,-1.83463 0,-1.66733 -0.75229,-1.79391 -8.25,-1.38809 -4.53751,0.24559 -8.6383,0.80696 -9.11288,1.24749 -1.69548,1.57385 0.56234,3.18534 3.60915,2.57597 1.65205,-0.33041 5.42248,-0.60074 8.37873,-0.60074 z m 13.375,-2.5 c 0,-1 -1,-1.5 -3,-1.5 -2,0 -3,0.5 -3,1.5 0,1 1,1.5 3,1.5 2,0 3,-0.5 3,-1.5 z m 6,-0.60699 c 0,-1.51045 -0.44784,-1.93514 -1.58179,-1.5 -0.86998,0.33385 -1.76998,0.60699 -2,0.60699 -0.23001,0 -0.41821,0.675 -0.41821,1.5 0,0.83333 0.88889,1.5 2,1.5 1.36719,0 2,-0.66667 2,-2.10699 z m 5.21667,-1.07634 c -1.52752,-1.52752 -2.65464,-0.40039 -1.80743,1.80742 0.50024,1.30358 0.93392,1.43275 1.82354,0.54313 0.88963,-0.88963 0.88579,-1.44865 -0.0161,-2.35055 z m 7.78333,0.68333 c -0.68469,-0.825 -2.08979,-1.5 -3.12244,-1.5 -1.03266,0 -1.87756,0.675 -1.87756,1.5 0,1.01307 1.0136,1.5 3.12244,1.5 2.66213,0 2.93892,-0.22113 1.87756,-1.5 z m -28.25,-2.04877 c 0.72508,-0.22533 1.25,-2.05695 1.25,-4.36166 l 0,-3.97321 -7,0.58686 c -6.34942,0.53231 -7.00001,0.41537 -7.00001,-1.25818 0,-2.82631 -1.5295,-0.56273 -3.36708,4.9831 -0.89811,2.71048 -1.63292,5.03042 -1.63292,5.15544 0,0.34986 16.33341,-0.69211 17.75001,-1.13235 z m 8.25,-4.45123 c 0,-3.6 -0.25,-4 -2.5,-4 -2.25,0 -2.5,0.4 -2.5,4 0,3.6 0.25,4 2.5,4 2.25,0 2.5,-0.4 2.5,-4 z m 6.81037,-0.25832 c 0.28441,-3.4288 0.0963,-3.74168 -2.25,-3.74168 -1.77698,0 -2.55619,0.53544 -2.54672,1.75 0.0535,6.85051 4.24918,8.59265 4.79672,1.99168 z m 14.59499,-0.60818 c -0.59674,-3.73182 -0.94009,-4.1335 -3.53317,-4.1335 -2.67652,0 -2.87219,0.26819 -2.87219,3.93664 0,3.70864 0.18823,3.95529 3.25,4.25854 1.7875,0.17704 3.37742,0.26563 3.53317,0.19686 0.15574,-0.0688 -0.0143,-1.98511 -0.37781,-4.25854 z m -9.01235,2.28471 c 1.18777,-3.09527 0.64908,-5.41821 -1.25647,-5.41821 -1.3357,0 -1.79667,0.63725 -1.62763,2.25 0.12972,1.2375 0.29327,2.8125 0.36347,3.5 0.18033,1.76624 1.79721,1.55342 2.52063,-0.33179 z m -19.52758,-7.95031 c 0.91337,-0.91336 -0.43565,-1.06225 -6.11543,-0.67492 -3.1625,0.21567 -5.75001,0.86243 -5.75001,1.43725 0,1.00934 10.7868,0.31631 11.86544,-0.76233 z m 7.13457,-0.4679 c 0,-0.55 -1.125,-1 -2.5,-1 -1.375,0 -2.5,0.45 -2.5,1 0,0.55 1.125,1 2.5,1 1.375,0 2.5,-0.45 2.5,-1 z m 7,-0.56955 c 0,-1.04234 -0.72946,-1.46221 -2.17167,-1.25 -3.2015,0.47108 -3.54438,2.81955 -0.41166,2.81955 1.6805,0 2.58333,-0.54853 2.58333,-1.56955 z m 5.45729,0.63865 c 0.73955,-1.1966 -1.14162,-2.38223 -2.4736,-1.55902 -1.11836,0.69118 -0.38417,2.48992 1.01631,2.48992 0.48508,0 1.14086,-0.41891 1.45729,-0.9309 z m 7.04271,-1.0691 c -0.33992,-0.55 -1.49148,-1 -2.55902,-1 -1.06754,0 -1.94098,0.45 -1.94098,1 0,0.55 1.15156,1 2.55902,1 1.45136,0 2.2915,-0.43284 1.94098,-1 z m -26.5,-5.12781 0,-4.12781 -4.0263,0.64383 c -3.43002,0.54849 -4.13468,0.35083 -4.75818,-1.33464 -0.59943,-1.62041 -1.12099,-0.98988 -2.88191,3.48398 l -2.15001,5.46245 6.9082,0 6.9082,0 0,-4.12781 z m 7,-0.37219 c 0,-3.06667 -0.30952,-3.5 -2.5,-3.5 -2.19048,0 -2.5,0.43333 -2.5,3.5 0,3.06667 0.30952,3.5 2.5,3.5 2.19048,0 2.5,-0.43333 2.5,-3.5 z m 6.60636,2.12577 c 0.0585,-0.0692 0.38475,-1.58827 0.725,-3.37577 0.58571,-3.07701 0.46028,-3.25 -2.35636,-3.25 -2.81238,0 -2.975,0.22233 -2.975,4.06739 0,3.75629 0.17209,4.01449 2.25,3.37577 1.2375,-0.38039 2.29786,-0.74821 2.35636,-0.81739 z m 5.39364,-3.62577 c 0,-2.2 -0.45,-4 -1,-4 -0.55,0 -1,1.8 -1,4 0,2.2 0.45,4 1,4 0.55,0 1,-1.8 1,-4 z m 7,-0.0622 c 0,-3.5042 -0.26777,-3.9378 -2.43178,-3.9378 -2.07416,0 -2.37841,0.40442 -2.0689,2.75 0.19958,1.5125 0.39389,3.21674 0.43178,3.7872 0.0379,0.57045 0.9689,1.10499 2.0689,1.18785 1.68691,0.12707 2,-0.4658 2,-3.7872 z m -26.15625,-4.44827 c 1.0605,-1.0605 -0.68019,-1.47229 -3.68403,-0.87152 -1.73784,0.34761 -3.15972,1.08199 -3.15972,1.63199 0,0.9553 5.76904,0.3143 6.84375,-0.76042 z m 7.15625,-0.48953 c 0,-0.55 -1.125,-1 -2.5,-1 -1.375,0 -2.5,0.45 -2.5,1 0,0.55 1.125,1 2.5,1 1.375,0 2.5,-0.45 2.5,-1 z m 8,-1 c 0,-1.18717 -1.7373,-1.18717 -4.5,0 -1.67602,0.72021 -1.47353,0.87082 1.25,0.92971 1.7875,0.0387 3.25,-0.37971 3.25,-0.92971 z m 9.25,-0.66228 c -0.6875,-0.27741 -1.8125,-0.27741 -2.5,0 -0.6875,0.27741 -0.125,0.50439 1.25,0.50439 1.375,0 1.9375,-0.22698 1.25,-0.50439 z m -24.44774,-6.08772 c 0.2721,-4.72608 0.0975,-5.25 -1.75,-5.25 -1.12874,0 -2.34448,-0.1125 -2.70163,-0.25 -0.58591,-0.22557 -1.71055,2.46002 -3.79476,9.06175 -0.69469,2.2004 -0.52095,2.29673 3.60714,2 l 4.33699,-0.31175 0.30226,-5.25 z m 7.56745,2.5 c 0.33164,-1.2375 0.60913,-3.7125 0.61664,-5.5 0.0124,-2.94748 -0.2656,-3.25 -2.98635,-3.25 -2.9697,0 -3,0.0556 -3,5.5 0,5.12823 0.1611,5.5 2.38337,5.5 1.62631,0 2.5749,-0.71469 2.98634,-2.25 z m 6.16978,1.48469 c 0.58469,-0.41325 0.87061,-3.0317 0.65349,-5.98469 -0.31311,-4.25853 -0.728,-5.25 -2.19694,-5.25 -1.49089,0 -1.87148,0.98715 -2.15349,5.5855 -0.1884,3.07202 -0.15505,5.77202 0.0741,6 0.64352,0.64018 2.47108,0.46321 3.62282,-0.35081 z m 5.03413,-5.431 c -0.86413,-7.09479 -1.57362,-7.30686 -1.57362,-0.47036 0,3.46469 0.42871,5.66667 1.10326,5.66667 0.744,0 0.89716,-1.6921 0.47036,-5.19631 z m 6.05138,2.07131 c -0.34375,-1.71875 -0.625,-4.19375 -0.625,-5.5 0,-1.44444 -0.58772,-2.375 -1.5,-2.375 -1.15152,0 -1.5,1.27778 -1.5,5.5 0,4.94118 0.21591,5.5 2.125,5.5 1.84667,0 2.04314,-0.40931 1.5,-3.125 z m -24.625,-9.375 c 0,-0.825 -0.675,-1.5 -1.5,-1.5 -1.56157,0 -1.98397,1.1827 -0.83333,2.33333 1.15063,1.15064 2.33333,0.72824 2.33333,-0.83333 z m 8,-0.5 c 0,-0.55 -1.35,-1 -3,-1 -1.65,0 -3,0.45 -3,1 0,0.55 1.35,1 3,1 1.65,0 3,-0.45 3,-1 z m 6,0 c 0,-0.55 -0.9,-1 -2,-1 -1.1,0 -2,0.45 -2,1 0,0.55 0.9,1 2,1 1.1,0 2,-0.45 2,-1 z m 9.5,-1 c -0.33992,-0.55 -1.04148,-1 -1.55902,-1 -0.51754,0 -0.94098,0.45 -0.94098,1 0,0.55 0.70156,1 1.55902,1 0.85746,0 1.2809,-0.45 0.94098,-1 z m -23.5,-4.5 c 0,-1.55556 -0.56667,-2.5 -1.5,-2.5 -0.825,0 -1.5,0.4132 -1.5,0.91821 0,0.50502 -0.27314,1.63002 -0.60699,2.5 -0.43514,1.13395 -0.0105,1.58179 1.5,1.58179 1.58079,0 2.10699,-0.62435 2.10699,-2.5 z m 8,-0.0664 c 0,-2.20978 -0.38216,-2.52245 -2.75,-2.25 -1.96901,0.22656 -2.84075,0.95541 -3.06955,2.56642 -0.27184,1.91406 0.13875,2.25 2.75,2.25 2.62871,0 3.06955,-0.36859 3.06955,-2.56642 z m 6,0.0664 c 0,-1.83333 -0.53333,-2.5 -2,-2.5 -1.46667,0 -2,0.66667 -2,2.5 0,1.83333 0.53333,2.5 2,2.5 1.46667,0 2,-0.66667 2,-2.5 z m 3.68933,-2.25 c -0.25153,-0.9625 -0.45733,-0.175 -0.45733,1.75 0,1.925 0.2058,2.7125 0.45733,1.75 0.25152,-0.9625 0.25152,-2.5375 0,-3.5 z m 5.29536,2 c -0.008,-0.9625 -0.45153,-2.425 -0.98469,-3.25 -0.7356,-1.13826 -0.97307,-0.71622 -0.98469,1.75 -0.008,1.7875 0.43469,3.25 0.98469,3.25 0.55,0 0.99311,-0.7875 0.98469,-1.75 z m -14.17105,-51.5 c 0.78315,-31.21511 0.85734,-49.62554 0.21862,-54.25 -0.53175,-3.85 -0.98155,-9.175 -0.99954,-11.83333 -0.0231,-3.41155 -0.40042,-4.71081 -1.28272,-4.41679 -0.96499,0.32156 -1.30924,9.1759 -1.50983,38.83333 -0.14291,21.12923 -0.70541,44.51724 -1.25,51.97335 -1.15028,15.7486 -1.26826,25.33202 -0.3235,26.27677 0.36666,0.36667 1.40801,0.66667 2.31409,0.66667 1.48994,0 1.76076,-4.51706 2.83288,-47.25 z m 5.95547,45.77332 c 0.64952,-0.55081 0.45762,-110.35487 -0.19796,-113.27332 -0.40153,-1.7875 -1.323,-3.25 -2.04771,-3.25 -1.0593,0 -1.28881,4.95082 -1.17055,25.25 0.0809,13.8875 -0.21721,40.47634 -0.66249,59.0863 l -0.8096,33.83631 2.3096,-0.71053 c 1.27028,-0.3908 2.4307,-0.81323 2.57871,-0.93876 z m -13.83744,-10.21282 c 0.0939,-5.87922 0.58382,-13.86672 1.08867,-17.75 0.50485,-3.88327 0.86262,-20.3355 0.79506,-36.5605 -0.10131,-24.32575 -0.25292,-27.30752 -0.86437,-17 -0.81716,13.77507 -3.30552,33.91966 -5.43511,44 -1.76572,8.35795 -4.51104,26.35737 -4.79544,31.44086 -0.18501,3.30695 0.18166,4.14907 2.27952,5.23526 1.375,0.71192 3.45871,1.30103 4.63046,1.30914 2.03144,0.014 2.1384,-0.4821 2.30121,-10.67476 z m 18.06384,-25.3105 c 0.13136,-12.375 0.18611,-35.87338 0.12167,-52.21862 -0.10488,-26.59989 -0.2824,-29.65521 -1.69157,-29.11446 -1.1444,0.43915 -1.38957,1.3182 -0.89768,3.21861 0.37219,1.43796 0.69095,27.81447 0.70836,58.61447 0.0174,30.8 0.36661,52.85 0.77601,49 0.4094,-3.85 0.85184,-17.125 0.98321,-29.5 z m 6.71462,33.33326 c 3.43042,-1.62784 3.4982,-1.77369 2.90457,-6.25 -0.33429,-2.52079 -1.07137,-10.43326 -1.63794,-17.58326 -0.56657,-7.15 -1.66588,-19.525 -2.44292,-27.5 -0.77704,-7.975 -1.47052,-17.875 -1.54106,-22 -0.0705,-4.125 -0.46851,-11.325 -0.88436,-16 -0.47459,-5.33536 -0.81859,8.44011 -0.92395,37 -0.0923,25.025 -0.24249,46.175 -0.3337,47 -0.30704,2.77717 0.14426,7 0.7481,7 0.32938,0 2.17945,-0.75003 4.11126,-1.66674 z m -1.71013,-105.89939 c 0,-4.54792 -1.10057,-9.43387 -2.125,-9.43387 -0.48125,0 -0.86069,3.7125 -0.8432,8.25 0.0288,7.47219 0.17023,8.06699 1.5,6.30887 0.80751,-1.06762 1.4682,-3.37387 1.4682,-5.125 z m -20.09968,3.31613 c -0.0548,-1.2375 -0.41774,-3.375 -0.80647,-4.75 -0.68241,-2.41376 -0.72659,-2.42582 -1.28067,-0.34953 -0.71348,2.67355 0.11578,7.34953 1.3034,7.34953 0.48588,0 0.83856,-1.0125 0.78374,-2.25 z m -36.946166,-3.83565 c -1.49556,-2.79448 -0.44278,-3.66962 1.2171,-1.01173 0.72041,1.15356 2.15669,2.09738 3.19173,2.09738 1.55942,0 1.66858,-0.25704 0.63701,-1.5 -1.67841,-2.02236 -0.11106,-1.91048 2.17126,0.15499 1.70312,1.5413 1.82874,1.53888 1.82874,-0.0352 0,-1.337 0.38809,-1.48247 1.85728,-0.69618 1.15396,0.61758 3.142026,0.65862 5.249996,0.10838 1.866,-0.48708 6.02048,-1.4088 9.2322,-2.04827 3.42339,-0.68162 6.73339,-2.05659 8,-3.3232 1.18829,-1.18829 2.38553,-2.17228 2.66053,-2.18664 1.73194,-0.0905 3.84551,-2.46163 4.8792,-5.47389 1.59864,-4.65857 2.70054,-30.085432 1.21341,-27.999997 -0.58831,0.825 -1.03355,4.2 -0.98943,7.5 0.14491,10.837655 -2.90389,25.239377 -5.21655,24.641567 -3.1916,-0.82502 -32.020356,-1.36024 -38.114446,-0.70762 -7.02632,0.75246 -7.8922,1.48742 -7.03504,5.97138 0.37165,1.94417 0.77502,2.384 1.34321,1.46464 0.61699,-0.99831 0.98237,-0.84024 1.52108,0.65805 1.18059,3.28349 2.52434,4.47198 5.05619,4.47198 2.13589,0 2.28466,-0.23932 1.29653,-2.08565 z m -3.60908,-0.45748 c -0.93028,-2.42426 0.36778,-2.86191 1.60908,-0.54252 0.77398,1.44619 0.7892,2.08565 0.0496,2.08565 -0.58661,0 -1.33304,-0.69441 -1.65872,-1.54313 z m 65.714116,-1.45687 c 0.41447,0 0.51822,0.9 0.23056,2 -0.70108,2.68095 1.07129,2.53875 3.11602,-0.25 l 1.64971,-2.25 -0.59513,2.25 c -0.71092,2.68779 0.30695,2.92476 2.1476,0.5 1.26518,-1.66667 1.32996,-1.66667 1.36025,0 0.0388,2.13806 2.5966,2.32649 3.39343,0.25 0.31658,-0.825 1.0256,-1.5 1.5756,-1.5 0.55,0 0.74098,0.675 0.4244,1.5 -0.79792,2.07933 1.61943,1.89317 3.24632,-0.25 1.26518,-1.66667 1.32996,-1.66667 1.36025,0 0.0175,0.9625 0.31969,1.75 0.67156,1.75 0.35186,0 1.23755,-0.7875 1.96819,-1.75 1.26518,-1.66667 1.32996,-1.66667 1.36025,0 0.0175,0.9625 0.69268,1.75 1.50042,1.75 0.97513,0 1.25417,-0.58804 0.83043,-1.75 -0.58316,-1.59913 -0.45573,-1.58992 1.47818,0.10683 1.81475,1.59222 3.09687,1.75837 8.99667,1.16588 8.77102,-0.88084 9.43771,-1.33225 9.0453,-6.1245 l -0.3192,-3.89821 -10,-0.29312 c -7.2608,-0.21283 -12.87584,0.29474 -20.49886,1.85301 -12.5511,2.56564 -16.02705,4.1398 -15.93346,7.21579 l 0.0677,2.22432 1.08513,-2.25 c 0.59683,-1.2375 1.42424,-2.25 1.8387,-2.25 z m -15.71411,-9.54312 c -0.32569,-0.84873 -0.80663,-1.32866 -1.06875,-1.06654 -0.26213,0.26213 -0.17998,0.95654 0.18255,1.54313 0.98605,1.59546 1.56238,1.28551 0.8862,-0.47659 z m 7.63961,-0.20688 c -0.008,-0.4125 -0.4385,-1.41932 -0.95574,-2.23739 -0.73909,-1.16896 -0.90434,-1.0084 -0.77188,0.75 0.14936,1.98286 1.76615,3.37483 1.72762,1.48739 z m 17.5663,-8.25 c 0.26791,0 0.20476,1.125 -0.14035,2.5 -0.67377,2.68451 0.97942,3.53187 1.95099,1 0.31658,-0.825 1.0256,-1.5 1.5756,-1.5 0.55,0 0.74098,0.675 0.4244,1.5 -0.36731,0.95719 0.0173,1.5 1.06277,1.5 0.9011,0 1.89739,-0.675 2.21397,-1.5 0.31659,-0.825 1.02561,-1.5 1.57561,-1.5 0.55,0 0.74098,0.675 0.42439,1.5 -0.35399,0.92249 0.002,1.5 0.9244,1.5 0.825,0 1.7735,-0.71273 2.10778,-1.58384 0.49007,-1.27712 0.77449,-1.32554 1.46861,-0.25 0.70465,1.09183 1.04228,1.06169 1.86084,-0.16616 0.84301,-1.26451 1.14034,-1.28219 1.8939,-0.11265 0.74403,1.15475 2.20728,1.192 8.72781,0.22219 4.30864,-0.64083 8.22691,-1.55816 8.70726,-2.03851 1.55792,-1.55792 -0.28548,-6.826391 -2.60031,-7.431733 -1.18641,-0.310252 -2.48144,-0.03931 -2.87784,0.602092 -0.5429,0.878427 -1.31547,0.847901 -3.13094,-0.12371 -1.91709,-1.025994 -4.99866,-1.068692 -15.06201,-0.2087 -19.07307,1.629944 -25.65787,3.617869 -25.65787,7.746011 0,1.92546 3.03361,1.66081 4.64221,-0.40499 1.16687,-1.49851 1.2807,-1.51305 0.79207,-0.10115 -0.97098,2.8057 1.68605,3.32801 3.78971,0.74497 1.07226,-1.3166 1.64564,-1.80977 1.27417,-1.09593 -0.37146,0.71384 -0.37581,2.06384 -0.01,3 0.56114,1.43472 0.89427,1.2701 2.12055,-1.04789 0.80015,-1.5125 1.67403,-2.75 1.94194,-2.75 z m -18.94682,1.27084 c -1.01652,-1.01652 -1.85525,0.51389 -1.02122,1.86338 0.63003,1.01942 0.86558,1.0202 1.2043,0.004 0.2316,-0.69479 0.14921,-1.53512 -0.18308,-1.86741 z m -4.60417,0.72916 c 0,-0.55 -0.19844,-1 -0.44098,-1 -0.24254,0 -0.7191,0.45 -1.05902,1 -0.33992,0.55 -0.14148,1 0.44098,1 0.58246,0 1.05902,-0.45 1.05902,-1 z m 7,-15.559014 c 0,-6.127322 -0.38386,-10.321779 -0.91459,-9.993769 -0.50302,0.310886 -1.17603,-5.7e-5 -1.49558,-0.690983 -0.31954,-0.690927 -0.33923,1.893769 -0.0438,5.743769 0.6781,8.835731 1.56702,15.5 2.06747,15.5 0.21255,0 0.38646,-4.751558 0.38646,-10.559017 z m -3,9.166006 c 0,-0.216156 -0.675,-0.652033 -1.5,-0.968615 -0.825,-0.316583 -1.5,-0.139728 -1.5,0.393011 0,0.532738 0.675,0.968615 1.5,0.968615 0.825,0 1.5,-0.176855 1.5,-0.393011 z m -3.5,-2.606989 c 0.33992,-0.55 0.16803,-1 -0.38197,-1 -0.55,0 -1.27811,0.45 -1.61803,1 -0.33992,0.55 -0.16803,1 0.38197,1 0.55,0 1.27811,-0.45 1.61803,-1 z m -2,-2 c 0.33992,-0.55 0.14148,-1 -0.44098,-1 -0.58246,0 -1.05902,0.45 -1.05902,1 0,0.55 0.19844,1 0.44098,1 0.24254,0 0.7191,-0.45 1.05902,-1 z m 4.18311,-1.1875 c -0.31922,-0.797733 -0.55618,-0.560776 -0.60416,0.604167 -0.0434,1.054166 0.19292,1.644791 0.52522,1.3125 0.33229,-0.332292 0.36781,-1.194792 0.0789,-1.916667 z m -3.18311,-3.8125 c 0.33992,-0.55 0.14148,-1 -0.44098,-1 -0.58246,0 -1.05902,0.45 -1.05902,1 0,0.55 0.19844,1 0.44098,1 0.24254,0 0.7191,-0.45 1.05902,-1 z m -0.81689,-10.1875 c -0.31922,-0.797733 -0.55618,-0.560776 -0.60416,0.604167 -0.0434,1.054166 0.19292,1.644791 0.52522,1.3125 0.33229,-0.332292 0.36781,-1.194792 0.0789,-1.916667 z M 79.299514,104.00959 c -4.06594,-1.47348 -5.96451,-4.587069 -5.98526,-9.815643 -0.0109,-2.752936 0.52591,-4.004164 2.07328,-4.832287 2.88938,-1.546353 26.927746,-3.209409 35.279276,-2.44074 7.38946,0.680122 13.63271,3.049178 13.63271,5.173055 0,1.675718 0.10177,1.689692 -5.39177,-0.740361 -4.09027,-1.809321 -6.5875,-2.047423 -20.877126,-1.990558 -19.44317,0.07737 -22.10547,0.604715 -22.5578,4.468185 -0.20553,1.75549 0.0618,2.550282 0.72068,2.143038 0.58215,-0.359783 1.32608,0.463108 1.67481,1.852568 0.34508,1.374934 1.34253,3.080843 2.21655,3.790903 1.35626,1.10184 1.49301,1.03459 0.93327,-0.45899 -0.36726,-0.97996 -0.18845,-1.749997 0.40639,-1.749997 0.58423,0 1.29759,0.899997 1.58524,1.999997 0.28766,1.1 1.23553,2 2.10638,2 1.23151,0 1.3167,-0.26666 0.38337,-1.2 -1.42363,-1.42362 -1.59084,-3.799997 -0.26739,-3.799997 0.51294,0 1.21827,0.9 1.56739,1.999997 0.34913,1.1 1.29529,2 2.10257,2 1.14129,0 1.23753,-0.43027 0.43262,-1.93426 -1.25236,-2.340045 -1.30069,-3.065737 -0.20417,-3.065737 0.45706,0 1.4331,1.125 2.16898,2.5 0.73588,1.374997 1.99202,2.499997 2.79143,2.499997 1.17858,0 1.21803,-0.28368 0.20857,-1.5 -1.21298,-1.461551 -0.0146,-2.181246 1.35371,-0.81296 1.25973,1.25974 5.057166,1.06411 15.646296,-0.806033 12.29535,-2.171482 12,-2.148053 12,-0.951902 0,0.936357 -3.03072,1.624055 -19.50001,4.424735 -13.663666,2.32358 -20.560586,2.67461 -24.499996,1.24699 z M 133.96619,71.742096 c -0.36667,-0.366666 -0.66667,-1.131666 -0.66667,-1.7 0,-0.626604 0.46577,-0.567562 1.18333,0.15 0.65084,0.650834 0.95084,1.415834 0.66667,1.7 -0.28417,0.284167 -0.81667,0.216667 -1.18333,-0.15 z m -4.27855,-5.259949 c -3.93641,-1.69012 -6.38812,-5.973697 -6.38812,-11.16119 0,-9.128213 3.33713,-13.912194 9.70465,-13.912194 8.76267,0 13.29535,4.750596 13.29535,13.934564 0,6.905297 -3.60248,11.089987 -10.03244,11.653817 -2.45716,0.215464 -5.41791,-0.01628 -6.57944,-0.514997 z m 9.48377,-2.178568 c 3.86278,-1.346572 5.12811,-3.513489 5.12811,-8.782022 0,-7.090445 -2.77544,-10.59616 -9.60907,-12.137392 -1.71799,-0.387472 -3.90094,-0.269492 -4.85098,0.262178 -3.76445,2.106694 -5.87229,12.404402 -3.46121,16.909542 1.00781,1.883106 6.03981,4.725472 8.52204,4.813736 0.60542,0.02153 2.52742,-0.458191 4.27111,-1.066042 z m -5.78855,-3.035737 c -2.37924,-2.553811 -4.50419,-8.369119 -3.59542,-9.839529 1.21766,-1.970219 2.51208,-0.989272 2.51208,1.903725 0,1.667171 1.08532,4.213101 2.52581,5.925031 2.91972,3.469889 1.6134,5.290868 -1.44247,2.010773 z"
     id="path10734"
     inkscape:connector-curvature="0" />
</svg>
