<?xml version="1.0" encoding="UTF-8" standalone="no"?>
<!-- Created with Inkscape (http://www.inkscape.org/) -->

<svg
   xmlns:dc="http://purl.org/dc/elements/1.1/"
   xmlns:cc="http://creativecommons.org/ns#"
   xmlns:rdf="http://www.w3.org/1999/02/22-rdf-syntax-ns#"
   xmlns:svg="http://www.w3.org/2000/svg"
   xmlns="http://www.w3.org/2000/svg"
   xmlns:sodipodi="http://sodipodi.sourceforge.net/DTD/sodipodi-0.dtd"
   xmlns:inkscape="http://www.inkscape.org/namespaces/inkscape"
   id="svg23481"
   version="1.1"
   inkscape:version="0.48.4 r9939"
   width="498.26035"
   height="136.21059"
   sodipodi:docname="MagnifyingGlass.svg">
  <metadata
     id="metadata23487">
    <rdf:RDF>
      <cc:Work
         rdf:about="">
        <dc:format>image/svg+xml</dc:format>
        <dc:type
           rdf:resource="http://purl.org/dc/dcmitype/StillImage" />
        <dc:title />
      </cc:Work>
    </rdf:RDF>
  </metadata>
  <defs
     id="defs23485" />
  <sodipodi:namedview
     pagecolor="#ffffff"
     bordercolor="#666666"
     borderopacity="1"
     objecttolerance="10"
     gridtolerance="10"
     guidetolerance="10"
     inkscape:pageopacity="0"
     inkscape:pageshadow="2"
     inkscape:window-width="1265"
     inkscape:window-height="742"
     id="namedview23483"
     showgrid="false"
     inkscape:zoom="0.86118253"
     inkscape:cx="52.862691"
     inkscape:cy="64.661179"
     inkscape:window-x="1"
     inkscape:window-y="22"
     inkscape:window-maximized="0"
     inkscape:current-layer="svg23481"
     fit-margin-top="0"
     fit-margin-left="0"
     fit-margin-right="0"
     fit-margin-bottom="0" />
  <path
     style="fill:#00ff28;fill-opacity:0.30198023;stroke:none"
     d="m 14.498762,63.315043 c 7.683025,-8.905674 2.107463,-14.970224 28.067595,-27.792421 18.068459,-5.608621 35.725306,-11.334845 68.793123,-12.657935 28.41254,7.002283 51.60047,-2.071194 88.60555,31.369664 2.92983,16.785523 -8.61697,33.571046 -23.11449,50.356569 -20.64325,15.50146 -59.23858,14.0482 -106.216589,4.67793 C 53.335753,99.749117 11.932357,95.530317 14.498762,63.315043 z"
     id="path24014"
     inkscape:connector-curvature="0"
     sodipodi:nodetypes="ccccccc" />
  <path
     style="fill:#8b0707;fill-opacity:1;stroke:none"
     d="m 342.77955,66.066769 c 5.36668,15.296265 -3.47898,24.409758 -7.15448,35.772431 l 19.26206,-1.65104 28.06761,7.70483 c 32.48063,1.27483 58.73664,8.77849 101.81381,-0.55035 6.85632,-7.11532 13.36438,-14.529963 12.10759,-28.617937 L 394.51198,65.516424 c -7.93165,2.603296 -10.02527,6.666099 -28.61794,6.604139 l -16.51035,-6.053794 z"
     id="path24007"
     inkscape:connector-curvature="0"
     sodipodi:nodetypes="cccccccccc" />
  <path
     style="fill:#8b0707;fill-opacity:1;stroke:none"
     d="m 307.00712,58.912284 -10.45654,39.074493 c 12.65793,7.155533 25.31587,3.891643 37.9738,4.402763 10.24018,-11.452983 14.48387,-23.405663 7.15448,-36.322771 -12.61373,-8.723761 -23.44056,-6.72605 -34.67174,-7.154485 z"
     id="path24005"
     inkscape:connector-curvature="0"
     sodipodi:nodetypes="ccccc" />
  <path
     style="fill:#8b0707;fill-opacity:1;stroke:none"
     d="m 209.47432,88.276937 9.33967,-32.688821 44.75256,7.393901 c -0.36633,7.027234 -0.4938,13.988119 -19.06849,26.07323 z"
     id="path23493"
     inkscape:connector-curvature="0"
     sodipodi:nodetypes="ccccc" />
  <path
     style="fill:#8b0707;fill-opacity:1;stroke:none"
     d="m 254.72436,60.012974 9.35585,2.201379 c 1.38908,14.754548 -10.56137,22.098251 -22.01379,29.718634 12.99809,3.80081 27.00041,6.09524 42.92691,5.50345 l 6.05379,3.302073 c 9.37844,-12.162283 16.56281,-25.695848 14.30897,-45.128297 l -42.92691,-1.651034 z"
     id="path24003"
     inkscape:connector-curvature="0"
     sodipodi:nodetypes="cccccccc" />
  <path
     style="fill:#ffe300;fill-opacity:1;stroke:none"
     d="M 93.256723,0.96368711 C 86.194275,0.96275011 79.108988,1.0458741 72.017765,1.1312521 51.733521,8.2171571 27.840796,13.908842 20.281843,25.88909 -7.6538182,53.422944 4.8343361,78.235789 8.7198075,89.731637 29.97624,119.4806 56.768685,124.96581 83.035213,132.67036 c 33.307757,5.1993 65.654327,-1.86884 97.942177,-9.92827 23.29175,-15.18716 30.94817,-34.687223 35.77529,-55.003456 C 212.32336,27.046303 183.90088,16.340292 155.13038,6.0744421 135.37379,1.7793311 114.44407,0.96649611 93.256723,0.96368711 z M 113.74164,22.495884 c 31.29828,3.318976 61.60855,9.270805 86.38014,29.994267 5.12439,16.603848 -7.91957,33.205068 -19.06061,49.808919 -14.64741,7.96801 -23.22213,17.45909 -93.794922,11.2688 C 82.640945,112.27584 19.407996,102.76238 12.573819,64.13597 19.307466,53.919329 24.186551,43.671349 42.526195,33.806571 66.828788,29.057272 92.169646,22.466624 113.74164,22.495884 z"
     id="path24009"
     inkscape:connector-curvature="0" />
  <path
     style="fill:#000000"
     d="M 86.271982,135.07446 C 77.627058,135.76787 67.425414,130.43767 63.158915,130.13892 57.239403,130.05166 27.529752,110.6035 18.485117,102.4822 6.9125628,92.091047 -2.8372176,68.108584 0.75701131,58.874693 1.4299888,57.145763 3.3823065,51.206898 5.0954973,45.677229 7.8336609,36.839249 9.2699701,34.553813 16.97131,26.780545 29.083223,14.555512 49.876504,4.6778741 70.556903,1.3252321 c 11.269067,-1.82689599 52.059137,-1.74722799 66.247777,0.129361 15.16085,2.005225 32.29985,7.625943 49.25343,16.1526259 10.55839,5.310266 24.37151,20.431747 27.36891,29.961264 l 2.25439,7.167283 12.26749,0.931571 c 6.74712,0.512363 14.84733,1.496523 18.00048,2.187028 5.00258,1.095518 6.25593,0.869438 9.83748,-1.774414 3.67393,-2.712045 5.32248,-2.977844 15.71543,-2.533862 19.07822,0.815013 24.8258,0.791178 28.69035,-0.119039 2.65884,-0.626186 4.14062,-0.223237 5.3621,1.458144 1.36675,1.881334 3.72861,2.310423 12.41215,2.254925 9.26507,-0.05925 11.54813,0.415872 16.77982,3.491641 4.02334,2.365385 7.24094,3.333593 9.58761,2.884986 2.48916,-0.475833 4.41138,0.204176 6.51031,2.303118 2.23945,2.239456 5.60488,3.313606 13.56625,4.329966 9.91271,1.265469 11.27324,1.118802 21.33313,-2.299767 l 10.74516,-3.651445 17.71122,2.746456 c 9.74116,1.510545 24.3468,3.114283 32.45698,3.563842 30.17357,1.672588 47.17085,4.463053 49.89731,8.191726 3.5249,4.820585 1.38138,16.262835 -4.54155,24.243008 -4.98118,6.71136 -12.33734,8.21142 -45.14027,9.20499 -31.6981,0.96011 -60.94626,-0.83512 -68.90708,-4.22945 -10.75134,-4.58416 -24.94386,-7.55203 -31.84785,-6.65987 -3.68644,0.47639 -9.71881,1.24453 -13.40526,1.70702 -12.18951,1.52923 -23.83474,0.79426 -30.16183,-1.90362 -5.1673,-2.203333 -6.7052,-2.339013 -10.72421,-0.94618 -3.83075,1.32759 -5.23674,1.27869 -7.66086,-0.266443 -1.80316,-1.14934 -6.54068,-1.89551 -12.06474,-1.90023 -12.18861,-0.0107 -23.61026,-1.99772 -30.41575,-5.29219 -4.15649,-2.01213 -8.83838,-2.80012 -18.19011,-3.06149 l -12.59299,-0.35197 -3.44,6.68815 c -4.93412,9.593083 -19.83469,24.837493 -28.31702,28.987503 -34.96842,12.15688 -63.78271,12.49192 -92.873178,10.15459 z M 192.36793,111.10742 c 9.34119,-9.72606 10.15461,-10.97455 15.69945,-24.096893 7.19522,-17.028049 7.80424,-23.478458 3.36609,-35.651747 C 206.14882,36.863606 196.0919,25.975345 181.48183,18.931203 155.85988,6.5777881 136.61515,2.7542591 100.32452,2.8069551 77.485914,2.8400661 66.374832,4.4135221 51.872487,9.6681021 29.671679,17.712035 16.267757,27.327011 10.329302,39.468087 2.0135197,56.469575 1.4370815,69.924688 8.411634,84.230017 c 5.857429,12.01402 11.202677,17.305203 26.689947,26.419943 17.853547,11.71307 30.340302,16.65988 49.332681,20.98813 31.151908,0.92054 85.407418,2.91579 107.933668,-20.53067 z M 80.242521,113.28335 C 60.604516,111.1325 28.684375,94.723407 19.902304,84.081701 11.33185,73.696424 6.8326192,53.691764 14.970784,50.568848 c 1.286223,-0.493568 2.048029,-0.02413 2.048029,1.261931 0,1.12631 -0.540027,1.714077 -1.200059,1.306155 -1.453842,-0.898528 -2.860557,2.411633 -2.715689,6.390327 0.07217,1.982142 0.353863,2.274644 0.885706,0.919695 0.42893,-1.09277 1.58778,-2.794756 2.57522,-3.7822 0.987441,-0.987445 1.795348,-2.657111 1.795348,-3.710389 0,-1.053264 0.546762,-1.915035 1.215026,-1.915035 0.668265,0 0.886192,-1.257467 0.484282,-2.79438 -0.568735,-2.174842 -1.009341,-2.397745 -1.987345,-1.005394 -1.030152,1.466602 -1.171777,1.468895 -0.7859,0.0134 0.258885,-0.976908 0.956921,-1.580145 1.551191,-1.340526 0.59427,0.239619 1.978138,-1.07242 3.07526,-2.915643 1.903843,-3.198549 1.877282,-2.716871 -0.184803,3.351314 -0.82833,2.437572 -0.668315,2.407129 1.761932,-0.335131 1.470151,-1.658901 3.300379,-3.016183 4.067172,-3.016183 0.766794,0 1.876572,-0.760012 2.466176,-1.688929 0.589602,-0.928917 3.297245,-2.855937 6.01698,-4.28227 2.719737,-1.426319 4.683489,-3.016411 4.363894,-3.533519 -0.319593,-0.517121 0.657963,-2.360331 2.172348,-4.09603 l 2.753427,-3.155773 -2.294896,3.763326 -2.294896,3.763325 3.890993,-0.932577 c 2.140045,-0.512925 5.097465,-1.575976 6.572044,-2.362342 1.474578,-0.786366 3.683276,-1.27728 4.908215,-1.090933 1.22494,0.186333 2.623905,-0.303133 3.108811,-1.08773 0.484907,-0.784596 1.408803,-1.100746 2.053104,-0.702542 0.644299,0.398203 7.348827,-0.556077 14.89895,-2.120619 10.813205,-2.240716 14.256795,-3.517513 16.220707,-6.014216 1.371266,-1.743286 4.427651,-4.456993 6.791968,-6.030476 3.151731,-2.097507 2.693241,-1.387686 -1.718284,2.660247 l -6.017039,5.521103 8.698094,-0.823029 c 7.2479,-0.6858 9.47987,-1.528789 13.38712,-5.056169 l 4.68904,-4.233153 -3.93444,4.356709 c -4.40919,4.88241 -3.29188,5.950984 1.50774,1.441991 1.70642,-1.603108 3.10258,-2.206345 3.10258,-1.340526 0,0.865805 -0.60324,1.574193 -1.34053,1.574193 -0.73729,0 -1.34052,0.904855 -1.34052,2.010789 0,2.444449 2.82533,2.623422 5.29065,0.335131 1.44424,-1.340526 1.61608,-1.340526 0.85926,0 -1.02219,1.810528 2.60501,2.436996 3.71464,0.641576 0.3515,-0.568745 3.5541,-3.107205 7.11688,-5.641027 3.56277,-2.533808 5.65591,-3.583842 4.65141,-2.333413 -1.00449,1.250429 -3.9016,3.556066 -6.43801,5.123664 -2.53641,1.567584 -4.38611,3.075689 -4.11044,3.351355 0.27566,0.275666 6.18895,1.681422 13.14064,3.123895 l 12.63943,2.622698 7.03776,-4.631034 c 8.77632,-5.775026 9.31802,-4.965348 0.67026,1.001842 -8.62018,5.948155 -4.20135,6.90277 5.19362,1.121993 3.75537,-2.310704 7.12235,-3.906909 7.48214,-3.547112 0.3598,0.359811 -1.77629,1.894123 -4.74688,3.409601 -6.36049,3.244877 -8.15289,5.474775 -4.40065,5.474775 1.47458,0 3.05187,-0.599993 3.50508,-1.333314 0.45322,-0.733335 2.14772,-1.993389 3.76556,-2.800131 2.03479,-1.01467 1.73654,-0.463875 -0.9676,1.786841 -6.17368,5.138504 -1.81095,5.868313 6.28413,1.051214 6.50437,-3.870514 6.25381,-3.48636 -1.99269,3.055125 l -3.06337,2.429998 2.97035,-0.616856 c 1.78242,-0.370159 2.85467,-0.0013 2.68106,0.921317 -0.15911,0.845992 1.0324,1.494096 2.64782,1.440234 1.61541,-0.05389 2.90126,0.247742 2.85743,0.670263 -0.25498,2.458176 0.4748,2.91059 2.27929,1.412995 1.70696,-1.416641 1.90311,-1.333717 1.1971,0.506128 -1.07309,2.796431 -0.0346,2.775063 4.51661,-0.0929 l 3.63928,-2.293318 -2.55368,2.963581 c -2.64378,3.068115 -1.24357,4.213809 1.6336,1.336652 1.27552,-1.275524 2.41915,-0.833941 5.29508,2.04457 3.44287,3.445983 3.66616,4.38978 3.63569,15.367293 -0.0294,10.580664 -0.48619,12.654457 -4.79116,21.749778 -9.22546,19.491034 -17.49495,34.210497 -48.79741,36.999777 -8.84747,0.78837 -19.70573,1.93205 -24.12947,2.5415 -13.66625,-0.14971 -31.733346,-1.12173 -44.688629,-5.44899 z m 44.018369,2.24799 c 4.07252,0.14383 15.81821,-1.57861 26.14026,-2.6126 22.12677,-2.21649 32.58715,-15.728133 37.47172,-22.132133 5.39146,-7.068577 11.31684,-21.158564 12.24121,-29.108432 0.84335,-7.253117 0.74311,-7.563408 -3.64471,-11.280914 -2.48156,-2.102454 -11.14752,-6.984328 -19.2577,-10.848595 C 160.60173,31.634523 140.2362,26.228557 120.06421,24.379087 105.56835,23.050023 99.14317,23.720715 70.63985,29.538316 39.876923,35.817098 29.518327,41.372961 19.406904,57.0173 c -5.009382,7.750492 -6.476199,15.190894 -2.860707,14.510885 0.890297,-0.167458 1.261009,0.770575 0.880133,2.227043 -1.022085,3.908464 5.663346,14.469609 18.359846,20.848849 28.791906,14.466243 53.133413,19.679123 88.474714,20.927263 z M 71.980375,95.733777 c 0,-0.73164 1.658901,-2.7927 3.686447,-4.58013 l 3.686446,-3.24985 -3.351315,4.02158 c -1.843223,2.21186 -3.502124,4.27292 -3.686446,4.58013 -0.184322,0.3072 -0.335132,-0.0401 -0.335132,-0.77173 z m 30.832095,-2.90447 c 0,-2.35568 6.09355,-6.800693 7.84175,-5.72026 1.33841,0.82719 0.88235,1.78924 -1.87716,3.95988 -3.81217,2.99865 -5.96459,3.63391 -5.96459,1.76038 z m 5.5331,-3.92012 c 1.66744,-2.12615 1.62002,-2.17357 -0.50612,-0.50613 -1.29026,1.0119 -2.34592,2.06756 -2.34592,2.34592 0,1.10331 1.10082,0.39319 2.85204,-1.83979 z m -14.91678,3.18032 c 0,-0.27836 1.055664,-1.33402 2.34592,-2.34592 2.126149,-1.66744 2.173564,-1.62003 0.506123,0.50613 -1.751222,2.23298 -2.852043,2.9431 -2.852043,1.83979 z m 32.21629,-3.18032 c 0.024,-0.55296 2.28614,-2.03518 5.02697,-3.293817 l 4.98331,-2.288425 -4.02158,3.287157 c -4.09289,3.345455 -6.06718,4.102075 -5.9887,2.295085 z m 21.40475,-1.51938 c 0,-0.65134 1.64743,-1.499174 3.66095,-1.884092 3.42434,-0.654593 3.49442,-0.578048 1.08431,1.18426 -2.94588,2.154082 -4.74526,2.419452 -4.74526,0.699832 z m 25.62434,-2.632816 c 6.69531,-5.186535 20.10167,-13.908479 20.60493,-13.405219 0.28919,0.289178 -1.69958,2.005601 -4.4195,3.814265 -2.71992,1.808651 -7.5958,5.26375 -10.83531,7.677983 -6.09588,4.542937 -11.01625,6.302257 -5.35012,1.912971 z M 53.213013,81.201165 c 1.731617,-1.843223 3.450015,-3.351314 3.818659,-3.351314 0.368645,0 -0.746516,1.508091 -2.478133,3.351314 -1.731618,1.843223 -3.450015,3.351315 -3.81866,3.351315 -0.368645,0 0.746516,-1.508092 2.478134,-3.351315 z M 152.05446,69.640349 c 0.90933,-0.916142 1.991,-1.328019 2.40374,-0.915284 0.41273,0.412721 -0.33126,1.162303 -1.65331,1.665711 -1.91052,0.727476 -2.06449,0.573503 -0.75043,-0.750427 z m 28.15104,-2.681052 c 0.90934,-0.916142 1.99101,-1.328018 2.40374,-0.915284 0.41274,0.412721 -0.33126,1.162303 -1.65331,1.665711 -1.91052,0.727476 -2.06449,0.573504 -0.75043,-0.750427 z M 21.040391,65.278988 c 0,-0.27836 1.055664,-1.334024 2.34592,-2.34592 2.126149,-1.66744 2.173564,-1.620025 0.506122,0.506129 -1.751221,2.232981 -2.852042,2.943098 -2.852042,1.839791 z m 6.702629,-8.043155 c 0,-0.27836 1.055665,-1.334024 2.345921,-2.34592 2.126149,-1.66744 2.173563,-1.620026 0.506122,0.506129 -1.751222,2.232981 -2.852043,2.943097 -2.852043,1.839791 z M 148.39036,47.83144 c 0,-0.289768 0.93618,-0.886087 2.08042,-1.325176 1.19296,-0.457777 1.73104,-0.233051 1.2614,0.52684 -0.78723,1.273781 -3.34182,1.884042 -3.34182,0.798336 z m 47.08204,-5.740118 c -1.16833,-2.00914 -1.42992,-2.067051 -1.46339,-0.323965 -0.0433,2.257553 1.36625,4.290219 2.31632,3.340148 0.31335,-0.313348 -0.0705,-1.67063 -0.85293,-3.016183 z M 26.443549,40.985388 c 0,-0.737289 0.584762,-2.245381 1.299471,-3.351315 0.71471,-1.105934 1.299471,-1.407552 1.299471,-0.670263 0,0.73729 -0.584761,2.245381 -1.299471,3.351315 -0.714709,1.105934 -1.299471,1.407552 -1.299471,0.670263 z M 185.16443,33.758747 c 0.95641,-1.54749 6.12276,-4.668609 6.12276,-3.6989 0,0.309782 -1.58237,1.600052 -3.51636,2.867264 -1.93401,1.2672 -3.10688,1.641448 -2.6064,0.831636 z M 49.191435,22.888288 c 0.78917,-1.474578 1.736474,-2.681052 2.105119,-2.681052 0.368645,0 0.02457,1.206474 -0.764593,2.681052 -0.78917,1.474579 -1.736475,2.681052 -2.105119,2.681052 -0.368645,0 -0.02457,-1.206473 0.764593,-2.681052 z m 20.963645,0.670263 c 0.424387,-1.105934 1.384173,-2.010789 2.132858,-2.010789 0.784615,0 0.65433,0.851784 -0.307563,2.010789 -0.917843,1.105934 -1.877629,2.010789 -2.132857,2.010789 -0.255228,0 -0.116827,-0.904855 0.307562,-2.010789 z m 10.538714,-3.351315 c 1.334475,-1.474578 2.727937,-2.681051 3.096581,-2.681051 0.368645,0 -0.42158,1.206473 -1.756055,2.681051 -1.334475,1.474579 -2.727937,2.681052 -3.096582,2.681052 -0.368644,0 0.421581,-1.206473 1.756056,-2.681052 z m 51.610256,0.799061 c 0,-0.368645 2.71456,-2.537937 6.03237,-4.820638 3.3178,-2.282715 6.03236,-3.848757 6.03236,-3.480113 0,0.368645 -2.71456,2.537924 -6.03236,4.820639 -3.31781,2.282701 -6.03237,3.848757 -6.03237,3.480112 z m -65.685778,-1.30519 c 0,-0.27836 1.055664,-1.334024 2.34592,-2.34592 2.126149,-1.66744 2.173564,-1.620025 0.506122,0.506129 -1.751221,2.232981 -2.852042,2.943098 -2.852042,1.839791 z m 6.702629,0.08673 c 0,-0.230704 1.960519,-2.191223 4.35671,-4.356709 l 4.356709,-3.937245 -3.937247,4.356709 c -3.670066,4.061056 -4.776172,4.972882 -4.776172,3.937245 z m 12.965373,-0.887749 c 0.863995,-0.935285 1.309279,-2.382316 0.989517,-3.2156 -0.319761,-0.833285 0.659018,-2.289712 2.175066,-3.236499 2.69506,-1.683084 2.710554,-1.63268 0.695673,2.263679 -1.133427,2.1918 -2.819113,4.413467 -3.745967,4.937036 -1.298584,0.733536 -1.324804,0.561801 -0.114293,-0.748616 z m 16.526196,-3.384627 c 3.08868,-2.580513 5.96082,-4.691841 6.38255,-4.691841 1.199,0 -9.594053,9.265192 -10.86609,9.327875 -0.622724,0.0307 1.394869,-2.055522 4.48354,-4.636034 z m 47.90146,3.184969 c 0.90934,-0.916143 1.99101,-1.328019 2.40374,-0.915285 0.41274,0.412722 -0.33126,1.162303 -1.65331,1.665711 -1.91052,0.727477 -2.06449,0.573504 -0.75043,-0.750426 z m 269.80319,90.043 c 0,-1.59337 11.91037,-10.793843 13.93316,-10.763033 0.81559,0.0121 -0.44411,1.2569 -2.79933,2.765523 -2.45328,1.57143 -3.98873,3.50776 -3.59506,4.53367 0.37793,0.98488 0.0428,2.18894 -0.74476,2.67569 -0.78754,0.48673 -1.43191,0.24613 -1.43191,-0.53467 0,-0.7808 -0.60323,-1.41965 -1.34052,-1.41965 -0.73729,0 -1.34053,0.90486 -1.34053,2.01079 0,4.05004 5.41494,1.83946 11.54351,-4.71249 3.45887,-3.697823 6.5895,-6.422643 6.95697,-6.055173 0.36746,0.36745 -1.83511,2.862333 -4.89461,5.544163 -5.6307,4.93565 -6.88607,7.23429 -3.95088,7.23429 2.19778,0 10.4529,-8.14773 10.4529,-10.316913 0,-0.96131 0.60324,-1.74782 1.34053,-1.74782 2.53626,0 1.33068,2.601533 -3.396,7.328213 -6.24812,6.24811 -3.35122,6.12614 3.42586,-0.14427 6.52603,-6.038093 10.70748,-9.019313 10.65289,-7.595083 -0.0228,0.59476 -2.73736,3.112383 -6.03236,5.594673 -3.295,2.48231 -5.99092,5.04606 -5.99092,5.69724 0,4.43733 12.67962,-4.91137 15.52542,-11.446903 1.50746,-3.46196 1.80491,-3.65319 1.84895,-1.18865 0.0288,1.61539 -0.55077,3.3099 -1.28806,3.76557 -0.73729,0.455673 -1.34052,1.437203 -1.34052,2.181183 0,0.74398 1.80971,0.0641 4.02157,-1.51092 2.21187,-1.574983 4.02158,-2.436623 4.02158,-1.914733 0,1.0435 -3.29704,3.833643 -7.19954,6.092683 -1.99304,1.15372 -2.29282,1.0803 -1.46073,-0.35776 0.57583,-0.99516 0.53062,-1.33952 -0.1004,-0.76521 -2.48952,2.26554 -1.6966,4.98818 1.45267,4.98818 2.08516,0 5.33621,-2.30624 9.44851,-6.70263 3.44824,-3.686453 6.91582,-6.702633 7.70572,-6.702633 0.78991,0 -1.22795,2.71456 -4.48413,6.032363 l -5.92032,6.03237 4.29823,0 c 3.67282,0 4.88003,-0.92649 8.29679,-6.3675 2.19921,-3.502123 4.01003,-7.085943 4.02404,-7.964043 0.0139,-0.87809 0.69333,-2.00931 1.50961,-2.51379 2.38632,-1.47483 -0.003,4.73585 -4.28833,11.148103 -2.29266,3.43033 -3.13973,5.69723 -2.12888,5.69723 1.44104,0 4.10215,-3.58431 12.56226,-16.920473 0.87826,-1.38444 1.6323,-1.82373 1.67566,-0.97621 0.0434,0.84752 -2.04855,4.70223 -4.64869,8.56603 -2.60014,3.863783 -4.40748,7.345133 -4.0163,7.736313 0.98427,0.98427 7.4033,-5.21309 7.4033,-7.147633 0,-0.86461 1.20647,-2.96309 2.68105,-4.66329 2.77238,-3.19658 3.52324,-9.999801 1.46274,-13.253405 C 492.65838,77.982842 477.8379,75.522066 453.36,73.873849 441.56338,73.07952 426.17367,71.54817 419.16067,70.47083 c -18.32358,-2.814863 -23.59054,-2.719002 -34.48464,0.627647 -6.45489,1.98292 -12.12285,2.826084 -16.93925,2.519841 -6.87777,-0.437307 -7.22139,-0.30619 -6.89662,2.631814 0.24734,2.237592 -0.19965,2.884289 -1.61752,2.34021 -1.07762,-0.413526 -3.3712,-1.106229 -5.09685,-1.539326 -1.98622,-0.498515 -2.8717,-1.480236 -2.41309,-2.675341 0.39844,-1.038332 0.0567,-1.887863 -0.7595,-1.887863 -0.81618,0 -1.48395,-1.206473 -1.48395,-2.681052 0,-1.474578 -0.25229,-2.681052 -0.56063,-2.681052 -0.30834,0 -1.51482,-0.366164 -2.68105,-0.813686 -2.96503,-1.137784 -2.76844,2.984092 0.22549,4.727888 1.44762,0.843164 1.67398,1.381988 0.59115,1.407137 -1.08565,0.0252 -1.34122,0.679713 -0.67026,1.716422 1.69528,2.619348 1.31888,13.962318 -0.46334,13.963118 -0.85132,3.8e-4 -1.29466,-0.95442 -0.98518,-2.12181 0.30947,-1.16737 -0.32408,-0.312785 -1.40788,1.89908 -1.08379,2.21187 -1.99774,5.37887 -2.031,7.03777 -0.0342,1.70449 -0.90051,3.01618 -1.99213,3.01618 -1.06242,0 -2.30024,0.59633 -2.75068,1.32518 -1.73782,2.811833 4.17232,-0.55882 7.88823,-4.49878 3.85148,-4.08373 3.88967,-4.09241 6.00005,-1.36385 l 2.1239,2.74604 2.45393,-2.79075 2.45394,-2.79073 -1.52484,3.131 c -2.24232,4.60426 -0.88173,4.82179 4.22131,0.67487 4.27698,-3.47563 4.35969,-3.49228 1.50885,-0.30383 -5.61557,6.280613 -2.79612,7.181163 4.78128,1.52718 2.71564,-2.02631 4.10963,-2.62955 3.09774,-1.34052 -3.35504,4.27389 1.07694,2.61051 5.26667,-1.97666 2.25764,-2.47179 3.94602,-3.50931 3.94602,-2.42484 0,1.32487 0.61571,1.11215 2.04532,-0.70665 1.12493,-1.43117 0.40429,0.84962 -1.60141,5.06843 -2.00571,4.2188 -3.87543,7.441863 -4.15496,7.162333 -0.27953,-0.27951 0.48559,-2.430053 1.70026,-4.778953 2.89238,-5.59326 1.8246,-6.43479 -2.19805,-1.73228 -3.21341,3.7565 -9.12658,6.213313 -7.11303,2.95534 0.65175,-1.05457 0.45328,-1.29205 -0.55761,-0.66729 -2.06307,1.27504 -0.43466,3.848363 1.87451,2.962243 0.98374,-0.377493 1.97838,-0.196733 2.21033,0.40168 0.23197,0.59841 1.71061,1.48832 3.28588,1.97757 2.37812,0.73857 3.47871,-0.15914 6.48568,-5.290163 1.99185,-3.39882 3.95825,-5.84296 4.3698,-5.43142 0.41154,0.41153 -0.84813,3.16052 -2.79924,6.10886 -4.93458,7.456663 -4.39476,8.458203 1.11397,2.06678 5.40657,-6.2729 6.19879,-5.87356 1.35973,0.685413 -2.87044,3.89067 -3.06506,4.72405 -1.32991,5.69509 2.7813,1.5565 4.26659,0.37974 7.48613,-5.93109 1.51548,-2.970593 3.10322,-5.053253 3.52833,-4.628143 0.42511,0.42509 -0.83201,3.19812 -2.79359,6.162263 -4.88983,7.38905 -1.29793,7.23772 5.0805,-0.21404 2.63796,-3.081873 4.7963,-5.071103 4.7963,-4.420533 0,0.65058 -1.92805,3.172113 -4.28455,5.603403 l -4.28454,4.42053 3.38061,0 c 1.9083,0 4.79596,-1.51314 6.63047,-3.4744 1.78741,-1.91093 4.45632,-4.096093 5.9309,-4.855913 1.47458,-0.75982 0.29648,1.105283 -2.61798,4.144673 l -5.29903,5.52617 6.16493,0 c 5.67829,0 6.60509,-0.50262 11.74141,-6.3675 3.06707,-3.502133 4.99495,-5.161033 4.28417,-3.686453 -0.71078,1.474583 -2.85581,4.143493 -4.76673,5.930903 -4.16865,3.89925 -4.3958,5.46357 -0.79335,5.46357 1.47458,0 2.68105,-0.57561 2.68105,-1.27911 z m -10.72421,-2.19835 c 0,-0.73729 2.41295,-3.69671 5.36211,-6.576483 2.94915,-2.87977 5.3621,-4.63273 5.3621,-3.89544 0,0.73729 -2.41295,3.69672 -5.3621,6.576493 -2.94916,2.87977 -5.36211,4.63272 -5.36211,3.89543 z m 43.45436,1.27707 c 0.70601,-1.83985 0.50985,-1.92277 -1.19711,-0.50613 -2.32613,1.93053 -2.56823,2.70652 -0.84437,2.70652 0.65842,0 1.57708,-0.99018 2.04148,-2.20039 z M 319.97768,98.646847 c 4.40096,-0.61818 5.48857,-0.467 4.02157,0.55906 -2.79704,1.956323 5.05981,1.065973 8.94582,-1.01376 7.14478,-3.82377 12.19755,-23.724137 7.42408,-29.239825 -4.13729,-4.78061 -13.76429,-8.954699 -20.39147,-8.841358 -6.85407,0.117162 -12.06474,0.684218 -12.06474,1.312831 0,0.234418 1.35729,0.97176 3.01619,1.638565 3.01054,1.210079 3.00991,1.212693 -0.33514,1.391546 -3.08762,0.165086 -3.14035,0.269835 -0.67026,1.331276 2.2926,0.985153 2.34115,1.165735 0.33513,1.246301 -1.29025,0.05188 -2.34592,0.697462 -2.34592,1.434751 0,0.737289 1.05567,1.410502 2.34592,1.496027 2.13283,0.141385 2.12408,0.212876 -0.0964,0.787117 -2.36274,0.611038 -2.36274,0.692609 0,2.503526 2.32483,1.781854 2.29723,1.912716 -0.57387,2.720543 -1.6589,0.466745 -3.00694,1.833947 -2.99566,3.038209 0.0121,1.257882 0.4396,1.619167 1.0054,0.849048 0.54168,-0.737289 1.88972,-1.53891 2.99566,-1.781384 1.42716,-0.312906 1.23261,0.318241 -0.67026,2.174494 -1.47458,1.438451 -3.13348,2.355277 -3.68645,2.037398 -0.55297,-0.317866 -1.0054,-0.221294 -1.0054,0.214632 0,0.435912 1.35729,1.390246 3.01619,2.120725 2.64721,1.165695 2.53658,1.232091 -0.90436,0.542779 -3.60185,-0.721552 -3.7653,-0.594684 -2.01079,1.560679 1.7189,2.11161 1.6459,2.24693 -0.73044,1.35397 -1.4521,-0.54566 -2.21553,-0.56744 -1.69649,-0.0484 0.51903,0.51903 -0.0929,1.70168 -1.35988,2.62812 -2.00098,1.46314 -1.60202,1.71354 3.03703,1.90617 13.44046,0.55813 16.89554,0.22902 20.17865,-1.92217 1.92041,-1.25829 3.89174,-1.88608 4.38073,-1.39505 1.70655,1.7136 -5.09509,5.71245 -11.29859,6.64272 -3.43871,0.51566 -7.17888,1.29318 -8.31149,1.7278 -1.32591,0.5088 -1.72276,0.24569 -1.11433,-0.7388 1.29391,-2.09356 -5.61718,-3.73447 -7.55731,-1.79435 -1.09794,1.09796 -0.35418,1.72164 2.80711,2.3539 2.36545,0.47308 4.64066,1.41001 5.056,2.08207 0.41535,0.672053 1.76007,0.939823 2.98829,0.595053 1.2282,-0.344783 4.94767,-1.008173 8.26547,-1.474223 z m 7.99517,-1.80925 c 0.88314,-1.72204 1.97338,-2.76335 2.42272,-2.314 0.44935,0.44934 -0.27324,1.85829 -1.60573,3.131 -2.3161,2.21216 -2.35205,2.17621 -0.81699,-0.817 z m -35.4755,-1.56226 c 0.46826,-1.47537 1.96521,-3.27858 3.32657,-4.00716 1.71266,-0.91658 3.33812,-5.000281 5.27626,-13.255669 3.40584,-14.507024 3.08197,-20.754143 -1.10827,-21.377849 -2.36394,-0.351875 -2.88295,0.170984 -2.66141,2.681052 0.48567,5.502711 -0.10523,9.150523 -1.48229,9.150523 -0.73729,0 -1.34053,-2.111328 -1.34053,-4.69184 0,-2.580513 -0.60296,-4.691841 -1.33993,-4.691841 -0.73696,0 -6.74928,-0.933502 -13.36073,-2.074451 -9.22091,-1.591271 -13.26692,-1.738903 -17.37083,-0.633827 -8.30816,2.23715 -8.23785,4.298142 0.11676,3.421424 5.00869,-0.525593 6.35078,-0.371312 4.47398,0.51432 -1.85211,0.873982 -2.05934,1.300618 -0.67026,1.379897 1.78736,0.102014 1.78736,0.259124 0,1.414215 -1.60847,1.03947 -1.34025,1.34011 1.34052,1.502555 3.1588,0.191414 3.17807,0.236455 0.33513,0.78402 -3.08248,0.593705 -4.3111,4.416054 -1.41947,4.416054 0.87821,0 0.42578,0.885672 -1.00539,1.96816 -2.49243,1.885168 -2.44671,1.969943 1.08431,2.010789 2.02755,0.02346 3.68645,0.638747 3.68645,1.36735 0,0.728603 -1.05567,1.23626 -2.34592,1.128133 -1.29026,-0.10818 -3.5524,-0.08177 -5.02697,0.05845 -2.68106,0.255022 -2.68106,0.255022 0,2.390707 2.65421,2.114318 2.65178,2.128809 -0.2422,1.447701 -2.83079,-0.666228 -9.40616,4.33325 -7.80501,5.934415 0.37992,0.379905 -0.67023,1.843252 -2.33365,3.251862 l -3.0244,2.56113 2.44386,-2.89484 2.44387,-2.894827 -4.64216,2.224557 -4.64215,2.22458 3.84078,1.1898 c 3.19638,0.99018 4.68974,0.5593 8.9009,-2.56816 l 5.06016,-3.757958 -3.93725,4.243818 c -4.65794,5.02062 -2.49555,5.72927 2.7234,0.8925 1.98887,-1.84322 4.28209,-3.32962 5.09603,-3.30311 0.81396,0.0265 -0.24437,1.4586 -2.35183,3.18241 -2.42899,1.98679 -3.2878,3.47037 -2.34592,4.05248 0.8172,0.50505 1.48583,0.32053 1.48583,-0.41007 0,-0.7306 1.96052,-2.67876 4.35671,-4.32924 l 4.35671,-3.0009 -3.93725,4.25013 -3.93724,4.25014 4.6075,-0.0421 c 3.44197,-0.0315 5.27756,-0.96403 7.25624,-3.68645 l 2.64875,-3.64432 -3.98927,2.55344 -3.98926,2.55344 2.45992,-2.78497 c 1.60398,-1.81592 3.70299,-2.63579 6.03237,-2.35623 3.60207,0.43228 4.14128,2.72602 1.2686,5.39642 -1.00449,0.93377 -1.19158,0.62869 -0.61657,-1.0054 1.06653,-3.03094 0.53905,-2.95855 -2.44169,0.33514 -2.39225,2.64342 -2.34341,2.67957 3.47868,2.57523 3.24776,-0.0582 5.15177,-0.40983 4.23115,-0.78138 -1.28956,-0.52045 -1.21262,-1.33403 0.33514,-3.54376 1.10494,-1.57752 2.00897,-3.94048 2.00897,-5.251003 0,-1.310525 0.60324,-2.382772 1.34053,-2.382772 0.73729,0 1.34053,1.508092 1.34053,3.351315 0,2.25043 0.7429,3.35131 2.26158,3.35131 1.76814,0 1.42093,0.87746 -1.59132,4.02158 -2.88823,3.01466 -3.30928,4.02158 -1.68166,4.02158 1.19419,0 2.55438,-1.20712 3.02264,-2.68247 z M 239.22854,82.929519 c 0.38781,1.163442 1.54848,1.055356 4.37766,-0.407668 5.51684,-2.852867 6.698,-2.439542 1.97229,0.69017 -5.1821,3.431961 -3.53817,3.412738 3.81709,-0.04464 6.69498,-3.147005 11.48875,-8.961765 12.49372,-15.154605 l 0.70136,-4.32203 -13.86818,-2.287165 c -23.93535,-3.947447 -28.08592,-4.254763 -29.40169,-2.176894 -1.87151,2.955484 -1.44392,3.671982 1.7931,3.004628 2.60078,-0.536183 2.50846,-0.328375 -0.67026,1.508829 -4.47517,2.586531 -4.66848,3.323338 -0.67027,2.554788 l 3.01619,-0.579778 -3.01619,1.580387 c -1.6589,0.869223 -3.01618,2.112682 -3.01618,2.763239 0,0.650557 1.35728,0.459613 3.01618,-0.424317 2.62912,-1.40093 2.80264,-1.34814 1.35217,0.4113 -0.91522,1.110157 -1.32751,2.354983 -0.91621,2.766296 0.4113,0.411301 0.0107,1.203042 -0.88903,1.759427 -1.04596,0.646442 -1.29155,0.452951 -0.68033,-0.536022 0.52608,-0.851208 0.35326,-1.547651 -0.38403,-1.547651 -2.48483,0 -2.84391,2.392423 -0.4944,3.294021 2.07154,0.794932 1.95937,1.190856 -1.0131,3.575812 l -3.34256,2.68191 3.35131,-0.80327 c 3.27015,-0.783819 3.26204,-0.752343 -0.33513,1.299305 -2.02755,1.156418 -3.68645,2.369996 -3.68645,2.696856 0,0.326848 1.6589,-0.07239 3.68645,-0.88716 2.02755,-0.814785 5.91161,-1.595976 8.63126,-1.735967 4.2437,-0.218452 4.77466,0.06341 3.74472,1.987852 -1.03112,1.926685 -0.41848,1.85569 4.35134,-0.504239 3.89242,-1.925812 5.70914,-2.273491 6.07917,-1.163415 z m -12.42691,1.638377 c 0.46964,-0.75989 -0.0685,-0.984616 -1.2614,-0.52684 -2.32236,0.891168 -2.74726,1.852017 -0.81901,1.852017 0.69377,0 1.62997,-0.596333 2.08041,-1.325177 z"
     id="path23491"
     inkscape:connector-curvature="0"
     sodipodi:nodetypes="ccsssssssscsssscssssssscssssssssssscsscscccsssssssccccssssssssssscssssssscscccsscsssssscsscssssssssssssscssscssssssscscccssscssssssccssssssssscssssscscssssssssssssscscscssssscssssssssscssscssssssssssssssccscssssssssssssssssssssssssssssssssssscsssssssssscsscssscsscsssscsssssscssscsssssscsssscsscsssscsssssssssssssssssscscssssssscccssssssssscssssscsscssssscsssscsssscssssssssssssssscsssssssscssssscssscsssssssssssscssscccsssscsssssssssssssssssssccsscscccccsscsscssssccccscccssssssssssssssccssssscssssscssssccsssscssssssssscss" />
</svg>
