<?xml version="1.0" encoding="UTF-8" standalone="no"?>
<!-- Created with Inkscape (http://www.inkscape.org/) -->

<svg
   xmlns:dc="http://purl.org/dc/elements/1.1/"
   xmlns:cc="http://creativecommons.org/ns#"
   xmlns:rdf="http://www.w3.org/1999/02/22-rdf-syntax-ns#"
   xmlns:svg="http://www.w3.org/2000/svg"
   xmlns="http://www.w3.org/2000/svg"
   xmlns:sodipodi="http://sodipodi.sourceforge.net/DTD/sodipodi-0.dtd"
   xmlns:inkscape="http://www.inkscape.org/namespaces/inkscape"
   id="svg23481"
   version="1.1"
   inkscape:version="0.48.4 r9939"
   width="389"
   height="134"
   sodipodi:docname="MagnifyingGlass.png">
  <metadata
     id="metadata23487">
    <rdf:RDF>
      <cc:Work
         rdf:about="">
        <dc:format>image/svg+xml</dc:format>
        <dc:type
           rdf:resource="http://purl.org/dc/dcmitype/StillImage" />
        <dc:title></dc:title>
      </cc:Work>
    </rdf:RDF>
  </metadata>
  <defs
     id="defs23485" />
  <sodipodi:namedview
     pagecolor="#ffffff"
     bordercolor="#666666"
     borderopacity="1"
     objecttolerance="10"
     gridtolerance="10"
     guidetolerance="10"
     inkscape:pageopacity="0"
     inkscape:pageshadow="2"
     inkscape:window-width="1265"
     inkscape:window-height="742"
     id="namedview23483"
     showgrid="false"
     inkscape:zoom="3.4447301"
     inkscape:cx="52.199903"
     inkscape:cy="49.169472"
     inkscape:window-x="1"
     inkscape:window-y="22"
     inkscape:window-maximized="0"
     inkscape:current-layer="svg23481" />
  <path
     style="fill:#00ff28;fill-opacity:0.30198023;stroke:none"
     d="M 25.248461,60.512608 C 30.979812,53.86919 26.820577,49.345182 46.18621,39.780132 59.664844,35.596236 72.836426,31.324611 97.504221,30.337618 118.69929,35.561152 135.99692,28.792557 163.60182,53.738631 165.7874,66.260226 157.17377,78.78182 146.35897,91.303415 130.9596,102.86713 102.16842,101.78303 67.123958,94.79304 54.219919,87.691552 23.333985,84.544429 25.248461,60.512608 z"
     id="path24014"
     inkscape:connector-curvature="0"
     sodipodi:nodetypes="ccccccc" />
  <path
     style="fill:#8b0707;fill-opacity:1;stroke:none"
     d="m 270.13801,62.565329 c 4.00341,11.410645 -2.59524,18.20909 -5.33707,26.685366 l 14.36903,-1.231633 20.93776,5.747618 c 24.22977,0.950994 43.81612,6.54854 75.95065,-0.410545 5.11465,-5.307858 9.9695,-10.839005 9.03197,-21.348292 l -76.3612,-9.853058 c -5.91682,1.941996 -7.47861,4.972749 -21.34829,4.926529 l -12.31632,-4.515985 z"
     id="path24007"
     inkscape:connector-curvature="0"
     sodipodi:nodetypes="cccccccccc" />
  <path
     style="fill:#8b0707;fill-opacity:1;stroke:none"
     d="m 243.45264,57.228256 -7.80033,29.14863 c 9.44251,5.33785 18.88503,2.903068 28.32754,3.284353 7.63893,-8.543645 10.80462,-17.460059 5.33707,-27.09591 -9.40954,-6.507715 -17.48609,-5.017471 -25.86428,-5.337073 z"
     id="path24005"
     inkscape:connector-curvature="0"
     sodipodi:nodetypes="ccccc" />
  <path
     style="fill:#8b0707;fill-opacity:1;stroke:none"
     d="m 170.69552,79.133582 6.96717,-24.385075 33.38433,5.515672 c -0.27327,5.242147 -0.36836,10.434799 -14.22463,19.45 z"
     id="path23493"
     inkscape:connector-curvature="0"
     sodipodi:nodetypes="ccccc" />
  <path
     style="fill:#8b0707;fill-opacity:1;stroke:none"
     d="m 204.45096,58.049344 6.97924,1.642176 c 1.03622,11.006537 -7.87853,16.484762 -16.42176,22.169381 9.69626,2.835316 20.14166,4.546906 32.02244,4.105441 l 4.51598,2.463264 c 6.99609,-9.072765 12.35546,-19.168477 10.67415,-33.664615 l -32.02244,-1.231632 z"
     id="path24003"
     inkscape:connector-curvature="0"
     sodipodi:nodetypes="cccccccc" />
  <path
     style="fill:#ffe300;fill-opacity:1;stroke:none"
     d="M 84 14 C 78.731584 13.999301 73.446131 14.061306 68.15625 14.125 C 53.024693 19.410914 35.201296 23.656774 29.5625 32.59375 C 8.7231701 53.133341 18.039032 71.643125 20.9375 80.21875 C 36.794286 102.41076 56.780804 106.50259 76.375 112.25 C 101.22178 116.12855 125.35154 110.85589 149.4375 104.84375 C 166.81258 93.514492 172.52409 78.967918 176.125 63.8125 C 172.82084 33.457003 151.61835 25.470577 130.15625 17.8125 C 115.41831 14.608451 99.805249 14.002096 84 14 z M 99.28125 30.0625 C 122.62901 32.538376 145.23974 36.978297 163.71875 52.4375 C 167.54142 64.82357 157.81094 77.20768 149.5 89.59375 C 138.57338 95.537696 132.17685 102.61781 79.53125 98 C 76.080886 97.036182 28.910631 89.939368 23.8125 61.125 C 28.835638 53.503632 32.475318 45.858886 46.15625 38.5 C 64.285398 34.957137 83.189067 30.040673 99.28125 30.0625 z "
     id="path24009" />
  <path
     style="fill:#000000"
     d="m 78.789552,114.0434 c -6.448905,0.51727 -14.059085,-3.45893 -17.241791,-3.68179 -4.415813,-0.0651 -26.578496,-14.572956 -33.325576,-20.631246 -8.632846,-7.75155 -15.905947,-25.64189 -13.224739,-32.53015 0.502025,-1.28974 1.958407,-5.71999 3.236406,-9.84499 2.042604,-6.59292 3.114056,-8.2978 8.85907,-14.09647 9.035195,-9.11958 24.546481,-16.48806 39.97356,-18.98905 8.406452,-1.36282 38.834858,-1.30339 49.419238,0.0965 11.30963,1.49585 24.09491,5.68877 36.74187,12.04947 7.87631,3.96133 18.18056,15.24159 20.41655,22.35038 l 1.68172,5.34662 9.15125,0.69493 c 5.03319,0.38221 11.07575,1.11637 13.42793,1.63147 3.7318,0.81723 4.66677,0.64858 7.33852,-1.32367 2.74066,-2.02312 3.97044,-2.2214 11.72333,-1.8902 14.23189,0.60798 18.51945,0.5902 21.40231,-0.0888 1.98343,-0.46712 3.0888,-0.16653 4,1.08774 1.01956,1.40343 2.78145,1.72352 9.25916,1.68212 6.91152,-0.0442 8.61463,0.31023 12.51734,2.60468 3.00132,1.76452 5.40157,2.48678 7.15213,2.15213 1.85685,-0.35496 3.29078,0.15231 4.85653,1.71807 1.67058,1.67058 4.18111,2.47187 10.1201,3.23005 7.39464,0.94401 8.40956,0.8346 15.914,-1.71557 l 8.01563,-2.72389 13.21214,2.04879 c 7.26667,1.12683 18.16213,2.32318 24.21213,2.65854 22.50875,1.24771 35.18831,3.32933 37.22219,6.11083 2.62949,3.59604 1.03047,12.13168 -3.38789,18.0847 -3.71584,5.00651 -9.20336,6.12552 -33.67355,6.8667 -23.64602,0.71622 -45.46444,-0.62298 -51.40302,-3.15507 -8.02024,-3.41967 -18.60752,-5.63363 -23.75773,-4.9681 -2.75,0.35537 -7.25,0.92839 -10,1.27339 -9.09308,1.14077 -17.78014,0.5925 -22.5,-1.42005 -3.85468,-1.64363 -5.00192,-1.74485 -8,-0.70583 -2.85765,0.99035 -3.90648,0.95387 -5.71482,-0.19876 -1.34511,-0.85738 -4.87919,-1.414 -9,-1.41752 -9.09241,-0.008 -17.61269,-1.49025 -22.68942,-3.94785 -3.10064,-1.501 -6.59322,-2.08882 -13.56938,-2.2838 l -9.39407,-0.26256 -2.56616,4.9892 c -3.68073,7.15621 -14.7962,18.528166 -21.12381,21.623976 -26.0856,9.06874 -47.58036,9.31867 -69.281148,7.57508 z M 157.93457,96.164564 c 6.9683,-7.2554 7.57509,-8.18675 11.71141,-17.9757 5.36746,-12.70251 5.82177,-17.51436 2.51102,-26.59534 -3.94222,-10.81305 -11.44444,-18.93543 -22.3432,-24.19019 -19.11336,-9.21535 -33.46946,-12.06761 -60.541397,-12.0283 -17.037046,0.0247 -25.325645,1.19846 -36.144045,5.11825 -16.561267,6.00058 -26.56027,13.17312 -30.990214,22.23007 -6.203373,12.6827 -6.633382,22.71989 -1.430534,33.39132 4.369501,8.96217 8.356927,12.90926 19.910057,19.70864 13.318315,8.737666 22.633133,12.427866 36.80099,15.656636 23.238573,0.6867 63.711873,2.17511 80.515913,-15.315386 z M 74.291719,97.787756 C 59.642241,96.183276 35.830586,83.942489 29.279373,76.004034 c -6.393352,-7.747166 -9.74967,-22.67016 -3.678795,-24.99978 0.959491,-0.36819 1.52778,-0.018 1.52778,0.94137 0,0.8402 -0.402847,1.27866 -0.895215,0.97436 -1.084531,-0.67028 -2.133906,1.79902 -2.025838,4.76703 0.05384,1.47863 0.263973,1.69683 0.660715,0.68607 0.319971,-0.81518 1.184445,-2.08482 1.921052,-2.82143 0.736607,-0.73661 1.339286,-1.98214 1.339286,-2.76786 0,-0.78571 0.407871,-1.42857 0.90638,-1.42857 0.49851,0 0.661078,-0.93804 0.361263,-2.08454 -0.424263,-1.62238 -0.752944,-1.78866 -1.482512,-0.75 -0.768468,1.09405 -0.874117,1.09576 -0.586262,0.01 0.193122,-0.72875 0.71384,-1.17875 1.157151,-1 0.443311,0.17875 1.475643,-0.8 2.29407,-2.175 1.420221,-2.38604 1.400407,-2.02672 -0.137859,2.5 -0.617914,1.81837 -0.498547,1.79566 1.314359,-0.25 1.096697,-1.2375 2.462003,-2.25 3.034012,-2.25 0.57201,0 1.399878,-0.56695 1.839708,-1.2599 0.439829,-0.69295 2.459665,-2.13046 4.488522,-3.19447 2.028858,-1.064 3.49377,-2.25017 3.25536,-2.63592 -0.238409,-0.38576 0.490824,-1.76075 1.620519,-3.05554 l 2.05399,-2.35413 -1.711937,2.80735 -1.711937,2.80735 2.902587,-0.69568 c 1.596422,-0.38263 3.802586,-1.17564 4.902586,-1.76225 1.1,-0.58661 2.747635,-0.95282 3.66141,-0.81381 0.913776,0.139 1.95737,-0.22613 2.319098,-0.81142 0.361729,-0.58529 1.050933,-0.82113 1.531566,-0.52408 0.480632,0.29705 5.482048,-0.41482 11.114258,-1.58193 8.06639,-1.67152 10.635225,-2.62398 12.100256,-4.48646 1.022931,-1.30045 3.302921,-3.32481 5.066644,-4.49859 2.351113,-1.56469 2.009094,-1.03518 -1.281798,1.98448 l -4.488566,4.11861 6.488566,-0.61396 c 5.40676,-0.51159 7.071754,-1.14044 9.98647,-3.77178 l 3.497908,-3.15783 -2.934999,3.25 c -3.289144,3.64216 -2.45566,4.43929 1.124739,1.07569 1.27295,-1.19588 2.31445,-1.64588 2.31445,-1 0,0.64587 -0.45,1.17431 -1,1.17431 -0.55,0 -1,0.675 -1,1.5 0,1.8235 2.10763,1.95701 3.9467,0.25 1.07737,-1 1.20556,-1 0.64099,0 -0.76253,1.35061 1.94327,1.81794 2.77103,0.4786 0.26221,-0.42427 2.65127,-2.3179 5.30902,-4.20807 2.65774,-1.89016 4.21917,-2.67346 3.46984,-1.74067 -0.74933,0.93279 -2.9105,2.65274 -4.8026,3.82213 -1.8921,1.16938 -3.27193,2.29439 -3.06629,2.50003 0.20564,0.20564 4.61681,1.2543 9.8026,2.33035 l 9.42871,1.95647 5.25,-3.45464 c 6.54692,-4.30803 6.95102,-3.70403 0.5,0.74735 -6.43045,4.43718 -3.13411,5.1493 3.87431,0.83698 2.80142,-1.72373 5.3131,-2.91446 5.5815,-2.64606 0.2684,0.26841 -1.32507,1.41297 -3.54106,2.54348 -4.74477,2.4206 -6.08186,4.08405 -3.28278,4.08405 1.1,0 2.27662,-0.44758 2.61471,-0.99462 0.33809,-0.54705 1.60214,-1.48702 2.80901,-2.08883 1.51791,-0.75692 1.29542,-0.34604 -0.7218,1.33294 -4.60542,3.8332 -1.35093,4.37762 4.68781,0.78418 4.8521,-2.88731 4.66519,-2.60074 -1.4865,2.27905 l -2.2852,1.81272 2.21581,-0.46016 c 1.32964,-0.27613 2.12951,-10e-4 2,0.68728 -0.11869,0.63109 0.77015,1.11456 1.97521,1.07438 1.20506,-0.0402 2.16427,0.18481 2.13158,0.5 -0.19021,1.83374 0.35419,2.17123 1.70029,1.05406 1.27335,-1.05678 1.41968,-0.99492 0.89301,0.37756 -0.8005,2.08607 -0.0258,2.07013 3.36928,-0.0693 l 2.71482,-1.71076 -1.90499,2.21076 c -1.97219,2.28874 -0.92767,3.1434 1.21863,0.99711 0.95151,-0.95151 1.80463,-0.6221 3.95,1.5252 2.5683,2.57062 2.73487,3.27467 2.71214,11.46363 -0.0219,7.89292 -0.36269,9.43992 -3.57409,16.22481 -6.88197,14.53984 -13.05081,25.520203 -36.40169,27.600943 -6.6,0.588103 -14.7,1.441263 -18,1.895893 -10.194695,-0.11168 -23.672312,-0.83678 -33.336641,-4.064814 z m 32.836641,1.676951 c 3.038,0.107293 11.8,-1.17761 19.5,-1.94894 16.50604,-1.65345 24.30923,-11.732803 27.953,-16.510033 4.0219,-5.27299 8.44209,-15.78378 9.13165,-21.71419 0.62912,-5.41065 0.55434,-5.64212 -2.71887,-8.41529 -1.85118,-1.56838 -8.31578,-5.21014 -14.36578,-8.09279 -12.39061,-5.90376 -27.58281,-9.93648 -42.63062,-11.31614 -10.813564,-0.99145 -15.606592,-0.49113 -36.869382,3.84866 -22.948401,4.68382 -30.675664,8.82836 -38.218542,20.49866 -3.736878,5.78168 -4.831088,11.33204 -2.134018,10.82477 0.66414,-0.12492 0.940682,0.57483 0.656558,1.66132 -0.762451,2.91562 4.224719,10.793982 13.696002,15.552742 21.478068,10.79146 39.636245,14.680146 66.000002,15.611231 z M 68.128358,84.696204 c 0,-0.54579 1.2375,-2.08329 2.75,-3.41667 l 2.75,-2.42431 -2.5,3 c -1.375,1.65 -2.6125,3.1875 -2.75,3.41667 -0.1375,0.22916 -0.25,-0.0299 -0.25,-0.57569 z m 23,-2.16667 c 0,-1.75728 4.545641,-5.07315 5.849752,-4.26717 0.998422,0.61706 0.658212,1.33473 -1.400316,2.95397 -2.843782,2.23692 -4.449436,2.71081 -4.449436,1.3132 z m 4.127555,-2.92431 c 1.243871,-1.58606 1.208501,-1.62143 -0.377555,-0.37756 -0.9625,0.75485 -1.75,1.54235 -1.75,1.75 0,0.82304 0.821186,0.29331 2.127555,-1.37244 z m -11.127555,2.37244 c 0,-0.20765 0.7875,-0.99515 1.75,-1.75 1.586056,-1.24387 1.621426,-1.2085 0.377555,0.37756 -1.306369,1.66575 -2.127555,2.19548 -2.127555,1.37244 z m 24.032572,-2.37244 c 0.0179,-0.4125 1.70541,-1.5182 3.75,-2.45711 l 3.71743,-1.70711 -3,2.45214 c -3.0532,2.49563 -4.52597,3.06005 -4.46743,1.71208 z m 15.96743,-1.13342 c 0,-0.48589 1.22894,-1.11835 2.73098,-1.40549 2.55447,-0.48831 2.60675,-0.43121 0.80887,0.88343 -2.19756,1.60689 -3.53985,1.80485 -3.53985,0.52206 z m 19.11514,-1.96402 c 4.99454,-3.86903 14.99536,-10.37539 15.37078,-9.99997 0.21573,0.21572 -1.26785,1.49613 -3.29684,2.84535 -2.029,1.34921 -5.66629,3.92663 -8.08288,5.72759 -4.54738,3.38892 -8.21786,4.70133 -3.99106,1.42703 z m -89.115142,-2.65256 c 1.291745,-1.375 2.573628,-2.5 2.848628,-2.5 0.275,0 -0.556883,1.125 -1.848628,2.5 -1.291745,1.375 -2.573628,2.5 -2.848628,2.5 -0.275,0 0.556883,-1.125 1.848628,-2.5 z m 73.733332,-8.62409 c 0.67834,-0.68342 1.48524,-0.99067 1.79313,-0.68278 0.30789,0.30788 -0.24711,0.86705 -1.23333,1.24258 -1.4252,0.54268 -1.54006,0.42782 -0.5598,-0.5598 z m 21,-2 c 0.67834,-0.68342 1.48524,-0.99067 1.79313,-0.68278 0.30789,0.30788 -0.24711,0.86705 -1.23333,1.24258 -1.4252,0.54268 -1.54006,0.42782 -0.5598,-0.5598 z M 30.128358,61.977664 c 0,-0.20765 0.7875,-0.99515 1.75,-1.75 1.586056,-1.24387 1.621426,-1.2085 0.377555,0.37756 -1.306369,1.66575 -2.127555,2.19548 -2.127555,1.37244 z m 5,-6 c 0,-0.20765 0.7875,-0.99515 1.75,-1.75 1.586056,-1.24387 1.621426,-1.2085 0.377555,0.37756 -1.306369,1.66575 -2.127555,2.19548 -2.127555,1.37244 z m 90.000002,-7.01545 c 0,-0.21616 0.69837,-0.661 1.55194,-0.98855 0.88992,-0.34149 1.29132,-0.17385 0.94098,0.39301 -0.58726,0.95021 -2.49292,1.40545 -2.49292,0.59554 z m 35.12207,-4.28199 c -0.87155,-1.49877 -1.06669,-1.54197 -1.09166,-0.24167 -0.0323,1.68408 1.01919,3.2004 1.72792,2.49167 0.23375,-0.23375 -0.0526,-1.24625 -0.63626,-2.25 z m -126.091446,-0.825 c 0,-0.55 0.436218,-1.675 0.969374,-2.5 0.533156,-0.825 0.969374,-1.05 0.969374,-0.5 0,0.55 -0.436218,1.675 -0.969374,2.5 -0.533156,0.825 -0.969374,1.05 -0.969374,0.5 z m 118.401946,-5.3909 c 0.71346,-1.15439 4.56743,-3.48267 4.56743,-2.75929 0,0.23109 -1.18041,1.1936 -2.62312,2.13891 -1.44272,0.9453 -2.31766,1.22448 -1.94431,0.62038 z m -101.432572,-8.1091 c 0.588702,-1.1 1.295368,-2 1.570368,-2 0.275,0 0.01833,0.9 -0.570368,2 -0.588702,1.1 -1.295368,2 -1.570368,2 -0.275,0 -0.01833,-0.9 0.570368,-2 z m 15.638374,0.5 c 0.316582,-0.825 1.032559,-1.5 1.59106,-1.5 0.585304,0 0.488115,0.63541 -0.229434,1.5 -0.684689,0.825 -1.400666,1.5 -1.59106,1.5 -0.190394,0 -0.08715,-0.675 0.229434,-1.5 z m 7.861626,-2.5 c 0.995486,-1.1 2.034975,-2 2.309975,-2 0.275,0 -0.314489,0.9 -1.309975,2 -0.995486,1.1 -2.034975,2 -2.309975,2 -0.275,0 0.314489,-0.9 1.309975,-2 z m 38.500002,0.59608 c 0,-0.275 2.025,-1.89324 4.5,-3.59608 2.475,-1.70285 4.5,-2.87108 4.5,-2.59608 0,0.275 -2.025,1.89323 -4.5,3.59608 -2.475,1.70284 -4.5,2.87108 -4.5,2.59608 z m -49.000002,-0.97364 c 0,-0.20765 0.7875,-0.99515 1.75,-1.75 1.586056,-1.24387 1.621426,-1.2085 0.377555,0.37756 -1.306369,1.66575 -2.127555,2.19548 -2.127555,1.37244 z m 5,0.0647 c 0,-0.1721 1.4625,-1.6346 3.25,-3.25 l 3.25,-2.93709 -2.937091,3.25 c -2.737781,3.02945 -3.562909,3.70965 -3.562909,2.93709 z m 9.671855,-0.66224 c 0.64452,-0.6977 0.976691,-1.77715 0.738156,-2.39876 -0.238534,-0.62161 0.491612,-1.70807 1.622547,-2.41435 2.01045,-1.25554 2.022008,-1.21794 0.518955,1.68865 -0.845509,1.63503 -2.10299,3.29234 -2.794401,3.68291 -0.968712,0.5472 -0.988272,0.41909 -0.08526,-0.55845 z m 12.328145,-2.52485 c 2.304075,-1.925 4.446626,-3.5 4.761224,-3.5 0.89443,0 -7.156929,6.91161 -8.105838,6.95837 -0.464537,0.0229 1.040539,-1.53337 3.344614,-3.45837 z m 35.733332,2.37591 c 0.67834,-0.68342 1.48524,-0.99067 1.79313,-0.68278 0.30789,0.30788 -0.24711,0.86705 -1.23333,1.24258 -1.4252,0.54268 -1.54006,0.42782 -0.5598,-0.5598 z m 201.26667,67.1699 c 0,-1.18861 8.88485,-8.05194 10.3938,-8.02896 0.60841,0.009 -0.33129,0.93762 -2.08823,2.06301 -1.83009,1.17225 -2.9755,2.61671 -2.68183,3.38201 0.28193,0.7347 0.0319,1.6329 -0.55557,1.996 -0.58749,0.36309 -1.06817,0.18361 -1.06817,-0.39885 0,-0.58246 -0.45,-1.05902 -1,-1.05902 -0.55,0 -1,0.675 -1,1.5 0,3.02123 4.03941,1.37219 8.61118,-3.51541 2.58023,-2.75848 4.91561,-4.79113 5.18973,-4.51701 0.27412,0.27411 -1.36895,2.13523 -3.65126,4.13581 -4.20037,3.68188 -5.13684,5.39661 -2.94726,5.39661 1.63949,0 7.79761,-6.07801 7.79761,-7.69617 0,-0.71711 0.45,-1.30383 1,-1.30383 1.89199,0 0.99266,1.94068 -2.53333,5.46667 -4.66095,4.66094 -2.49993,4.56995 2.55561,-0.10762 4.86826,-4.50427 7.98752,-6.72819 7.9468,-5.66575 -0.017,0.44368 -2.04201,2.32176 -4.5,4.17349 -2.45799,1.85174 -4.46908,3.76424 -4.46908,4.25 0,3.31014 9.45869,-3.66376 11.58159,-8.53911 1.12453,-2.58254 1.34642,-2.72519 1.37927,-0.8867 0.0215,1.20504 -0.41086,2.4691 -0.96086,2.80902 -0.55,0.33992 -1,1.07212 -1,1.62711 0,0.55499 1.35,0.0478 3,-1.12711 1.65,-1.1749 3,-1.81766 3,-1.42834 0,0.77842 -2.45951,2.8598 -5.37068,4.54499 -1.48676,0.86065 -1.71039,0.80588 -1.08967,-0.26688 0.42955,-0.74237 0.39583,-0.99925 -0.0749,-0.57083 -1.85712,1.69004 -1.26562,3.72106 1.08366,3.72106 1.55548,0 3.98068,-1.7204 7.04836,-5 2.5723,-2.75 5.15903,-5 5.74828,-5 0.58925,0 -0.91602,2.025 -3.34505,4.5 l -4.41642,4.5 3.20638,0 c 2.73983,0 3.64038,-0.69114 6.1892,-4.75 1.64056,-2.6125 2.99139,-5.28594 3.00184,-5.94098 0.0104,-0.65504 0.51721,-1.4989 1.12613,-1.87523 1.78014,-1.10019 -0.002,3.53283 -3.19899,8.31621 -1.71027,2.55895 -2.34216,4.25 -1.58809,4.25 1.07498,0 3.0601,-2.67381 9.37114,-12.62226 0.65516,-1.03276 1.21766,-1.36046 1.25,-0.72823 0.0324,0.63223 -1.52817,3.50775 -3.46781,6.39005 -1.93964,2.88229 -3.28787,5.47929 -2.99606,5.7711 0.73424,0.73424 5.52268,-3.88884 5.52268,-5.33196 0,-0.64498 0.9,-2.21039 2,-3.4787 2.06813,-2.38457 2.62825,-7.45961 1.09117,-9.88672 -1.27553,-2.01412 -12.33125,-3.8498 -30.59117,-5.07933 -8.8,-0.59255 -20.28035,-1.7349 -25.51188,-2.53857 -13.66895,-2.09982 -17.59797,-2.02831 -25.72471,0.46821 -4.81519,1.47921 -9.04335,2.10819 -12.63627,1.87974 -5.13065,-0.32622 -5.38698,-0.22841 -5.14471,1.96327 0.18451,1.66919 -0.14894,2.15161 -1.20663,1.74574 -0.80388,-0.30848 -2.51484,-0.82522 -3.80213,-1.1483 -1.48167,-0.37188 -2.14222,-1.10422 -1.80011,-1.99574 0.29723,-0.77457 0.0423,-1.4083 -0.56657,-1.4083 -0.60885,0 -1.10699,-0.9 -1.10699,-2 0,-1.1 -0.1882,-2 -0.41821,-2 -0.23002,0 -1.13002,-0.27315 -2,-0.60699 -2.21184,-0.84876 -2.06519,2.22606 0.16821,3.52689 1.07989,0.62898 1.24875,1.03093 0.44098,1.04969 -0.80987,0.0188 -1.00052,0.50705 -0.5,1.28041 1.26464,1.95397 0.98386,10.41555 -0.34564,10.41615 -0.63506,2.8e-4 -0.96578,-0.71198 -0.73492,-1.58282 0.23086,-0.87083 -0.24175,-0.23333 -1.05024,1.41667 -0.80848,1.65 -1.49027,4.0125 -1.51508,5.25 -0.0255,1.27151 -0.67176,2.25 -1.48608,2.25 -0.79254,0 -1.71592,0.44485 -2.05194,0.98855 -1.29637,2.09756 3.11245,-0.41686 5.88443,-3.35598 2.87311,-3.04636 2.9016,-3.05284 4.47589,-1.0174 l 1.58438,2.04848 1.83057,-2.08183 1.83058,-2.08182 -1.13749,2.33565 c -1.67272,3.43467 -0.65775,3.59694 3.14899,0.50344 3.19053,-2.59274 3.25223,-2.60516 1.12557,-0.22665 -4.18908,4.68518 -2.08584,5.35697 3.56672,1.13924 2.0258,-1.51158 3.06568,-1.96158 2.31084,-1 -2.50278,3.18822 0.80337,1.94738 3.92881,-1.47454 1.68414,-1.84389 2.94363,-2.61786 2.94363,-1.80887 0,0.98832 0.45931,0.82964 1.52576,-0.52714 0.83917,-1.06762 0.30159,0.63379 -1.19461,3.78092 -1.49621,3.14713 -2.89098,5.55145 -3.0995,5.34293 -0.20852,-0.20851 0.36224,-1.81276 1.26835,-3.56498 2.15765,-4.17244 1.36111,-4.8002 -1.63969,-1.29224 -2.39713,2.80226 -6.80821,4.63498 -5.30615,2.20461 0.48619,-0.78668 0.33814,-0.96384 -0.41596,-0.49778 -1.539,0.95115 -0.32425,2.87078 1.39834,2.20976 0.73384,-0.2816 1.47582,-0.14676 1.64885,0.29964 0.17304,0.4464 1.27607,1.11025 2.45119,1.47522 1.77402,0.55096 2.59503,-0.11871 4.83816,-3.94633 1.48587,-2.53544 2.95276,-4.35871 3.25976,-4.05171 0.307,0.30699 -0.63268,2.35767 -2.08816,4.55706 -3.68108,5.56249 -3.27839,6.30962 0.83099,1.54177 4.03317,-4.67943 4.62415,-4.38153 1.01433,0.5113 -2.14128,2.90235 -2.28646,3.52403 -0.99208,4.2484 2.07478,1.16111 3.18277,0.28328 5.58447,-4.42445 1.13051,-2.21599 2.31493,-3.7696 2.63205,-3.45248 0.31712,0.31711 -0.62066,2.38572 -2.08395,4.5969 -3.6477,5.51205 -0.96823,5.39916 3.78993,-0.15967 1.96785,-2.299 3.57792,-3.78292 3.57792,-3.29761 0,0.48532 -1.43828,2.36632 -3.19617,4.18 l -3.19616,3.29761 2.52185,0 c 1.42355,0 3.57767,-1.12877 4.94617,-2.59182 1.33337,-1.42551 3.32431,-3.05558 4.42431,-3.62239 1.1,-0.56681 0.22117,0.82451 -1.95295,3.09182 l -3.95295,4.12239 4.59889,0 c 4.23587,0 4.92724,-0.37494 8.75881,-4.75 2.28796,-2.6125 3.72611,-3.85 3.19589,-2.75 -0.53023,1.1 -2.13037,3.09094 -3.55587,4.42431 -3.10971,2.90874 -3.27916,4.07569 -0.59182,4.07569 1.1,0 2,-0.42939 2,-0.95419 z m -8,-1.63991 c 0,-0.55 1.8,-2.75766 4,-4.9059 2.2,-2.14824 4,-3.4559 4,-2.9059 0,0.55 -1.8,2.75766 -4,4.9059 -2.2,2.14824 -4,3.4559 -4,2.9059 z m 32.4159,0.95266 c 0.52667,-1.37248 0.38034,-1.43434 -0.89301,-0.37756 -1.73524,1.44013 -1.91584,2.019 -0.62988,2.019 0.49116,0 1.17646,-0.73865 1.52289,-1.64144 z m -99.4159,-6.84455 c 3.28301,-0.46115 4.09434,-0.34837 3,0.41704 -2.08653,1.45937 3.77449,0.79519 6.67336,-0.75624 5.32984,-2.85244 9.09908,-17.69763 5.53819,-21.8122 -3.08632,-3.56622 -10.26783,-6.67999 -15.21155,-6.59544 -5.11297,0.0874 -9,0.51041 -9,0.97934 0,0.17487 1.0125,0.72491 2.25,1.22233 2.24579,0.90269 2.24532,0.90464 -0.25,1.03806 -2.30329,0.12315 -2.34263,0.20129 -0.5,0.9931 1.71022,0.7349 1.74644,0.86961 0.25,0.92971 -0.9625,0.0387 -1.75,0.52029 -1.75,1.07029 0,0.55 0.7875,1.0522 1.75,1.116 1.59104,0.10547 1.58451,0.1588 -0.0719,0.58717 -1.76255,0.45582 -1.76255,0.51667 0,1.86757 1.73427,1.32922 1.71368,1.42684 -0.42809,2.02946 -1.2375,0.34818 -2.24311,1.36808 -2.23469,2.26643 0.009,0.93835 0.32793,1.20786 0.75,0.63337 0.40408,-0.55 1.40969,-1.14799 2.23469,-1.32887 1.06463,-0.23342 0.9195,0.2374 -0.5,1.62212 -1.1,1.07305 -2.3375,1.75698 -2.75,1.51985 -0.4125,-0.23712 -0.75,-0.16508 -0.75,0.16011 0,0.32518 1.0125,1.03709 2.25,1.58201 1.97476,0.86958 1.89223,0.91911 -0.67463,0.4049 -2.68689,-0.53826 -2.80882,-0.44362 -1.5,1.16423 1.28226,1.57521 1.2278,1.67615 -0.54489,1.01003 -1.08323,-0.40705 -1.65273,-0.4233 -1.26554,-0.0361 0.38718,0.38718 -0.0693,1.26941 -1.01444,1.96051 -1.49268,1.09147 -1.19507,1.27826 2.26555,1.42196 10.02626,0.41635 12.60367,0.17084 15.05279,-1.43389 1.43258,-0.93866 2.90314,-1.40697 3.26792,-1.04068 1.27304,1.27831 -3.80082,4.26135 -8.42848,4.95531 -2.56519,0.38467 -5.35527,0.96468 -6.20017,1.2889 -0.9891,0.37955 -1.28514,0.18328 -0.83126,-0.55113 0.96522,-1.56174 -4.19028,-2.78582 -5.63757,-1.33854 -0.81904,0.81905 -0.26421,1.2843 2.09403,1.75595 1.76457,0.35291 3.46182,1.05184 3.77166,1.55318 0.30984,0.50133 1.31297,0.70108 2.22919,0.44389 0.91621,-0.2572 3.69084,-0.75207 6.16584,-1.09973 z m 5.96421,-1.34966 c 0.6588,-1.2846 1.47209,-2.06139 1.80729,-1.72619 0.3352,0.3352 -0.20383,1.38624 -1.19784,2.33565 -1.72775,1.65022 -1.75457,1.6234 -0.60945,-0.60946 z m -26.46387,-1.16541 c 0.34931,-1.10059 1.466,-2.44574 2.48154,-2.98924 1.2776,-0.68375 2.49016,-3.73009 3.93596,-9.88841 2.54068,-10.82189 2.29908,-15.48209 -0.82674,-15.94736 -1.76344,-0.26249 -2.15061,0.12755 -1.98535,2 0.3623,4.10489 -0.0785,6.82607 -1.10575,6.82607 -0.55,0 -1,-1.575 -1,-3.5 0,-1.925 -0.4498,-3.5 -0.99956,-3.5 -0.54975,0 -5.0348,-0.69637 -9.96678,-1.54749 -6.87858,-1.18705 -9.8968,-1.29718 -12.95822,-0.47282 -6.19769,1.66886 -6.14524,3.20631 0.0871,2.5523 3.73636,-0.39208 4.73753,-0.27699 3.33748,0.38367 -1.38163,0.65197 -1.53622,0.97023 -0.5,1.02937 1.33333,0.0761 1.33333,0.1933 0,1.05497 -1.19988,0.77542 -0.99979,0.99969 1,1.12087 2.35639,0.14279 2.37076,0.17639 0.25,0.58486 -2.29946,0.44289 -3.21598,3.29427 -1.05889,3.29427 0.65512,0 0.31762,0.66069 -0.75,1.4682 -1.85929,1.40629 -1.82519,1.46953 0.80887,1.5 1.5125,0.0175 2.75,0.47649 2.75,1.02001 0,0.54352 -0.7875,0.92222 -1.75,0.84156 -0.9625,-0.0807 -2.65,-0.061 -3.75,0.0436 -2,0.19024 -2,0.19024 0,1.78341 1.97998,1.57723 1.97817,1.58804 -0.18067,1.07995 -2.1117,-0.49699 -7.01677,3.2325 -5.82235,4.42693 0.28341,0.2834 -0.49998,1.37502 -1.74085,2.42581 l -2.25613,1.91054 1.82306,-2.15948 1.82307,-2.15947 -3.46294,1.65947 -3.46293,1.65948 2.86513,0.88756 c 2.38442,0.73865 3.49843,0.41723 6.63986,-1.91578 l 3.77475,-2.80335 -2.93709,3.16579 c -3.47471,3.74526 -1.86162,4.27389 2.03159,0.66578 1.48365,-1.375 3.19434,-2.48382 3.80152,-2.46404 0.60719,0.0198 -0.1823,1.08808 -1.75441,2.374 -1.81197,1.4821 -2.45262,2.58881 -1.75,3.02305 0.60961,0.37676 1.10839,0.23911 1.10839,-0.3059 0,-0.54501 1.4625,-1.99829 3.25,-3.22951 l 3.25,-2.2386 -2.93709,3.1705 -2.93709,3.1705 3.43709,-0.0314 c 2.56762,-0.0235 3.93693,-0.71914 5.41298,-2.75 l 1.9759,-2.71858 -2.9759,1.90481 -2.97589,1.9048 1.83504,-2.07752 c 1.19653,-1.35463 2.76234,-1.96623 4.5,-1.75769 2.68706,0.32247 3.0893,2.03355 0.94635,4.0256 -0.74933,0.69657 -0.88889,0.46899 -0.45995,-0.75 0.79561,-2.26101 0.40212,-2.20701 -1.82144,0.25 -1.78456,1.97193 -1.74813,1.9989 2.59501,1.92106 2.42275,-0.0434 3.8431,-0.30572 3.15634,-0.58289 -0.96198,-0.38824 -0.90459,-0.99515 0.25,-2.64356 0.82426,-1.17679 1.49865,-2.9395 1.49865,-3.91712 0,-0.97762 0.45,-1.77749 1,-1.77749 0.55,0 1,1.125 1,2.5 0,1.67877 0.55419,2.5 1.68709,2.5 1.31899,0 1.05998,0.65456 -1.18709,3 -2.15455,2.24886 -2.46864,3 -1.25448,3 0.89084,0 1.90551,-0.90048 2.25482,-2.00106 z m -39.73725,-9.20968 c 0.2893,0.8679 1.15513,0.78727 3.26563,-0.30411 4.11543,-2.12817 4.99655,-1.81984 1.47128,0.51485 -3.86572,2.56016 -2.63939,2.54582 2.84746,-0.0333 4.99429,-2.34759 8.57033,-6.68526 9.32001,-11.30497 l 0.5232,-3.22413 -10.34533,-1.70617 c -17.85519,-2.9447 -20.95142,-3.17395 -21.93295,-1.62391 -1.3961,2.20472 -1.07713,2.73921 1.33761,2.24138 1.94012,-0.39998 1.87125,-0.24496 -0.5,1.12555 -3.33837,1.92949 -3.48257,2.47913 -0.5,1.90581 l 2.25,-0.4325 -2.25,1.17893 c -1.2375,0.64842 -2.25,1.57601 -2.25,2.06131 0,0.4853 1.0125,0.34286 2.25,-0.31653 1.96126,-1.04506 2.0907,-1.00568 1.00868,0.30682 -0.68273,0.82815 -0.99029,1.75676 -0.68347,2.06359 0.30682,0.30682 0.008,0.89744 -0.66319,1.31249 -0.78026,0.48223 -0.96347,0.33789 -0.50751,-0.39986 0.39244,-0.63498 0.26352,-1.15451 -0.28648,-1.15451 -1.85362,0 -2.12149,1.78469 -0.36881,2.45726 1.54532,0.593 1.46164,0.88835 -0.75575,2.66747 l -2.49347,2.00064 2.5,-0.59922 c 2.43945,-0.58471 2.4334,-0.56123 -0.25,0.96925 -1.5125,0.86266 -2.75,1.76796 -2.75,2.01179 0,0.24382 1.2375,-0.054 2.75,-0.6618 1.5125,-0.60781 4.40992,-1.19056 6.43871,-1.29499 3.1657,-0.16296 3.56178,0.0473 2.79347,1.48289 -0.76919,1.43726 -0.31217,1.3843 3.246,-0.37615 2.90365,-1.43661 4.25888,-1.69597 4.53491,-0.86788 z m -9.27017,1.22219 c 0.35034,-0.56686 -0.0511,-0.7345 -0.94098,-0.39301 -1.73242,0.66479 -2.04939,1.38156 -0.61096,1.38156 0.51754,0 1.21592,-0.44485 1.55194,-0.98855 z"
     id="path23491"
     inkscape:connector-curvature="0"
     sodipodi:nodetypes="ccsssssssscsssscssssssscssssssssssscsscscccsssssssccccssssssssssscssssssscscccsscsssssscsscssssssssssssscssscssssssscscccssscssssssccssssssssscssssscscssssssssssssscscscssssscssssssssscssscssssssssssssssccscssssssssssssssssssssssssssssssssssscsssssssssscsscssscsscsssscsssssscssscsssssscsssscsscsssscsssssssssssssssssscscssssssscccssssssssscssssscsscssssscsssscsssscssssssssssssssscsssssssscssssscssscsssssssssssscssscccsssscsssssssssssssssssssccsscscccccsscsscssssccccscccssssssssssssssccssssscssssscssssccsssscssssssssscss" />
</svg>
