<?xml version="1.0" encoding="UTF-8" standalone="no"?>
<!-- Created with Inkscape (http://www.inkscape.org/) -->

<svg
   xmlns:dc="http://purl.org/dc/elements/1.1/"
   xmlns:cc="http://creativecommons.org/ns#"
   xmlns:rdf="http://www.w3.org/1999/02/22-rdf-syntax-ns#"
   xmlns:svg="http://www.w3.org/2000/svg"
   xmlns="http://www.w3.org/2000/svg"
   xmlns:sodipodi="http://sodipodi.sourceforge.net/DTD/sodipodi-0.dtd"
   xmlns:inkscape="http://www.inkscape.org/namespaces/inkscape"
   id="svg6538"
   version="1.1"
   inkscape:version="0.48.4 r9939"
   width="495.23099"
   height="442.08792"
   sodipodi:docname="Map.svg">
  <metadata
     id="metadata6544">
    <rdf:RDF>
      <cc:Work
         rdf:about="">
        <dc:format>image/svg+xml</dc:format>
        <dc:type
           rdf:resource="http://purl.org/dc/dcmitype/StillImage" />
        <dc:title />
      </cc:Work>
    </rdf:RDF>
  </metadata>
  <defs
     id="defs6542">
    <filter
       id="filter7060"
       inkscape:label="Age"
       x="0"
       y="0"
       width="1"
       height="1"
       inkscape:menu="Image effects"
       inkscape:menu-tooltip="Imitate aged photograph"
       color-interpolation-filters="sRGB">
      <feColorMatrix
         id="feColorMatrix7062"
         type="saturate"
         in="SourceGraphic"
         values="0" />
      <feColorMatrix
         id="feColorMatrix7064"
         values="3 0 0 0 -0.3 0 3 0 0 -0.3 0 0 3 0 -0.3 0 0 0 1 0"
         result="result0" />
      <feTurbulence
         id="feTurbulence7066"
         baseFrequency="0.111"
         numOctaves="2"
         type="fractalNoise" />
      <feColorMatrix
         id="feColorMatrix7068"
         values="0 0 0 0 0 0 0 0 0 0 0 0 0 0 0 0 0 0 255 -200" />
      <feGaussianBlur
         id="feGaussianBlur7070"
         stdDeviation="1"
         result="result1" />
      <feComposite
         id="feComposite7072"
         in2="result0"
         operator="atop" />
    </filter>
  </defs>
  <sodipodi:namedview
     pagecolor="#ffffff"
     bordercolor="#666666"
     borderopacity="1"
     objecttolerance="10"
     gridtolerance="10"
     guidetolerance="10"
     inkscape:pageopacity="0"
     inkscape:pageshadow="2"
     inkscape:window-width="1197"
     inkscape:window-height="722"
     id="namedview6540"
     showgrid="false"
     inkscape:zoom="0.85507248"
     inkscape:cx="290.79698"
     inkscape:cy="223.68433"
     inkscape:window-x="0"
     inkscape:window-y="22"
     inkscape:window-maximized="0"
     inkscape:current-layer="svg6538"
     fit-margin-top="0"
     fit-margin-left="0"
     fit-margin-right="0"
     fit-margin-bottom="0" />
  <path
     style="fill:#d9cb00;fill-opacity:0.72277228;stroke:none;filter:url(#filter7060)"
     d="m 60.367744,248.297 2.480866,8.26955 6.202165,4.54826 9.923465,0 14.058242,-3.30782 4.961736,-3.7213 14.058242,0 90.13813,3.30782 82.69554,0.82695 -6.61564,-16.5391 0.41347,-45.89603 3.7213,-38.45342 3.30783,-20.26041 -0.82696,-21.50084 -8.26955,-90.965099 -16.95259,0 -32.25126,3.307822 -32.25126,-0.413478 -47.96341,-4.961732 -34.31865,-1.240433 -14.471722,3.721299 -1.65391,-12.817809 -15.298672,-1.240433 -15.712152,4.134777 -8.683032,7.442599 1.653911,27.703005 -0.413478,88.070752 z"
     id="path6550"
     inkscape:connector-curvature="0"
     transform="matrix(1.7323466,0,0,1.7323466,-1.1579103,-14.775143)" />
  <path
     style="fill:#0010d9;fill-opacity:0.52475251;stroke:none"
     d="m 2.4235234,191.87987 5.7302926,-7.16287 12.893161,-4.29771 22.921173,3.58142 31.516614,1.43258 21.4886,-5.73029 4.297716,17.90716 -10.744297,2.14886 L 53.279877,195.46131 31.791276,191.87987 2.4235234,206.2056 15.316682,189.73102 z"
     id="path7084"
     inkscape:connector-curvature="0" />
  <path
     style="fill:#000000"
     d="m 120.67414,440.59251 c -9.29456,-1.79645 -18.44409,-11.30026 -20.27412,-21.05919 -0.781006,-4.16487 -1.469355,-34.46716 -1.529656,-67.33844 -0.174955,-95.36973 -1.964608,-154.51539 -4.60898,-152.32075 -5.078857,4.21508 -20.455562,3.88775 -36.683431,-0.78087 -20.76559,-5.9741 -28.781095,-5.89952 -38.616058,0.35925 -4.235899,2.69564 -8.771531,6.20364 -10.0791838,7.79556 -1.3076514,1.59191 -3.4108797,2.89439 -4.6738366,2.89439 -1.8242129,0 -1.9070017,-1.15745 -0.4027065,-5.63013 1.0414695,-3.09657 2.655482,-6.60457 3.5866946,-7.79556 1.1229756,-1.43625 1.0727635,-2.16543 -0.1491204,-2.16543 -1.0132253,0 -2.3240183,0.77956 -2.9128758,1.73235 C 2.3854187,199.43148 0,198.08505 0,193.83916 c 0,-5.4438 8.5851131,-12.64969 16.941374,-14.21969 3.658325,-0.68735 11.314292,-0.2264 17.705558,1.06598 15.727425,3.18029 42.832149,4.14526 50.678139,1.80424 3.576818,-1.06721 7.579074,-3.66217 8.893906,-5.76653 5.722007,-9.15804 7.755763,-92.436285 3.461237,-141.730392 L 96.683307,23.54984 104.33086,17.283239 C 122.40226,2.4750887 142.86817,-2.4442227 159.80898,3.9481767 l 9.96098,3.758657 0,9.3605613 0,9.360562 4.68206,-1.780109 c 7.47568,-2.842254 44.93183,-4.774552 62.87946,-3.243845 46.12739,3.934086 79.22335,7.182686 98.74376,9.692392 23.05544,2.964198 75.94495,2.431194 91.81437,-0.925276 14.35018,-3.035144 50.45759,-5.863144 52.22999,-4.090751 1.51183,1.511833 3.15365,19.295271 5.63769,61.065473 0.48163,8.098723 2.01372,22.520499 3.40462,32.048409 3.80466,26.06251 4.27948,31.83837 5.55401,67.56153 0.96034,26.91753 0.66421,35.43967 -1.62531,46.77336 -6.97276,34.51699 -9.66828,69.29937 -9.46466,122.13043 0.17509,45.42383 0.57455,52.35585 3.59388,62.36448 1.86828,6.19314 4.23962,12.29412 5.2696,13.55772 2.8844,3.53856 -1.52818,5.30365 -8.90758,3.56313 -3.4762,-0.8199 -42.56972,-1.55424 -86.87448,-1.63187 -76.57234,-0.13408 -107.3578,-1.08637 -170.63614,-5.27791 -15.24465,-1.0098 -32.0051,-2.1004 -37.24545,-2.42357 -10.96986,-0.67651 -21.45324,1.61398 -27.70166,6.05246 -4.77048,3.38866 -26.4114,10.53085 -30.94751,10.21367 -1.56702,-0.10948 -5.84313,-0.77789 -9.50247,-1.48517 z m 20.31453,-7.95331 c 0.57161,-1.48958 1.73602,-2.27773 2.58758,-1.75142 0.85156,0.52629 2.61107,-0.3535 3.91001,-1.95509 1.99915,-2.46492 1.99478,-2.69094 -0.0284,-1.47213 -1.66174,1.00103 -2.1237,0.70641 -1.5158,-0.96672 0.4809,-1.32362 1.6432,-2.24774 2.58289,-2.05361 0.93968,0.19412 1.62179,-1.18008 1.5158,-3.05378 -0.24252,-4.28711 -3.45435,-4.60584 -4.25546,-0.4223 -0.32892,1.71771 -3.0154,5.65667 -5.96995,8.75324 -3.86076,4.04633 -4.59747,5.63012 -2.6189,5.63012 1.51415,0 3.22068,-1.21874 3.79228,-2.70831 z m -8.85508,-1.01072 c 5.28727,-2.82967 9.95095,-8.98875 8.17997,-10.80285 -2.32409,-2.38067 -6.92287,0.18436 -6.92287,3.86132 0,1.81882 -1.28178,4.37073 -2.8484,5.6709 -2.53206,2.10143 -2.71149,1.93259 -1.61561,-1.52022 0.91103,-2.87039 0.54001,-3.88419 -1.42151,-3.88419 -2.3091,0 -6.2409,4.8395 -6.2409,7.68167 0,1.70783 7.01044,1.05859 10.86932,-1.00663 z m 28.33401,-14.50754 c -0.92057,-2.39895 -1.61554,-2.55107 -3.71072,-0.81223 -1.41792,1.17677 -2.57803,3.42977 -2.57803,5.00669 0,1.57692 -1.27842,4.79458 -2.84094,7.15035 -1.90678,2.87483 -0.68662,2.19915 3.71073,-2.05487 4.53868,-4.39076 6.20366,-7.24508 5.41896,-9.28994 z m 322.72059,3.35279 c -3.37731,-9.58439 -3.60822,-13.87691 -3.57957,-66.5465 0.031,-57.07656 1.98174,-84.1204 8.18456,-113.4687 4.77068,-22.57213 3.28166,-76.46263 -3.47027,-125.59515 -1.50574,-10.95709 -3.44004,-34.592952 -4.29842,-52.52414 -0.85839,-17.931189 -1.96587,-33.007325 -2.46107,-33.502525 -1.1027,-1.102697 -36.93097,2.370029 -48.63655,4.714195 -4.66987,0.935188 -21.31597,2.434247 -36.99135,3.331242 -24.38081,1.395145 -32.41893,1.153 -55.60618,-1.675115 -14.908,-1.818307 -32.95214,-3.772619 -40.09807,-4.342917 -7.14593,-0.570297 -24.25627,-2.278938 -38.02297,-3.796981 -27.52982,-3.03569 -72.919,-2.40357 -82.66932,1.151309 -6.60205,2.40705 -9.69957,7.748187 -3.59269,6.194972 l 3.88689,-0.988583 -3.89778,2.006205 c -2.89633,1.490748 -3.89778,3.535133 -3.89778,7.956958 l 0,5.950756 7.36247,-0.998767 7.36248,-0.998768 -6.92939,2.194427 c -5.07945,1.608581 -7.08161,3.255852 -7.49957,6.170241 -0.54192,3.778731 -0.15557,3.930344 7.79556,3.058531 l 8.36574,-0.917285 -8.22864,1.844157 c -7.00906,1.570833 -8.22865,2.458271 -8.22865,5.987623 0,2.714701 1.04536,4.212755 3.0316,4.344415 2.88726,0.191386 2.88726,0.238681 0,0.993197 -1.66738,0.435732 -3.0316,2.287881 -3.0316,4.115884 0,3.190472 0.28053,3.211398 7.00126,0.522296 3.8507,-1.540741 7.36256,-2.440038 7.80415,-1.998439 0.44161,0.441601 -2.31917,1.833294 -6.13507,3.092655 -5.30666,1.751354 -6.938,3.188172 -6.938,6.110721 0,3.56379 0.49558,3.725109 7.36248,2.396687 12.43854,-2.406271 20.40278,-1.982871 19.24919,1.023337 -0.54844,1.429186 -0.13425,2.59852 0.92054,2.59852 1.05474,0 1.92963,-0.974445 1.94421,-2.165433 0.0192,-1.568093 0.44366,-1.50687 1.53867,0.221939 0.83168,1.313057 2.37884,1.851716 3.43817,1.197022 1.13971,-0.704386 1.93685,0.08904 1.95255,1.943494 0.0225,2.657084 0.28201,2.738524 1.70582,0.535325 1.39293,-2.155408 1.68835,-2.007705 1.73235,0.866169 0.044,2.87388 0.33942,3.02159 1.73235,0.86618 1.43512,-2.220693 1.68314,-2.157722 1.70582,0.43308 0.0139,1.66739 0.80608,3.03161 1.75887,3.03161 0.95279,0 1.73235,-0.82556 1.73235,-1.83458 0,-1.02924 0.95059,-1.24487 2.16543,-0.49122 1.19099,0.73885 3.72454,1.37495 5.63012,1.41355 1.90559,0.0386 4.57162,0.77731 5.92453,1.64158 1.86539,1.19165 2.19251,0.87476 1.35362,-1.31132 -1.27345,-3.31857 1.45657,-3.981095 2.95559,-0.71727 0.54699,1.19099 0.55942,0.41143 0.0275,-1.73235 -1.00706,-4.059586 1.78808,-5.519689 3.3163,-1.732343 0.48057,1.190993 0.99686,-0.173234 1.1473,-3.031606 0.15037,-2.858372 0.65213,-4.266389 1.11487,-3.128925 0.46273,1.137464 1.95582,1.640444 3.31796,1.117736 1.36217,-0.522708 1.99373,-1.731766 1.4035,-2.686795 -0.66434,-1.074904 0.32525,-1.292575 2.59757,-0.571369 2.87751,0.913286 3.44423,0.574799 2.62258,-1.5664 -0.80385,-2.094752 -0.29655,-2.449358 2.17633,-1.521278 2.85988,1.073331 2.95173,0.874938 0.81219,-1.754564 -1.32677,-1.630602 -1.80471,-3.53056 -1.0621,-4.222128 0.74262,-0.691569 1.69822,-0.282951 2.12358,0.908037 0.42534,1.190988 1.46349,2.165433 2.30698,2.165433 0.84348,0 1.03297,-1.304672 0.42107,-2.899271 -0.85492,-2.22783 -0.41488,-2.631547 1.89998,-1.743246 2.40994,0.924777 2.79397,0.467318 1.91982,-2.286869 -0.87234,-2.748514 -0.48848,-3.211022 1.90325,-2.293227 2.04617,0.785191 2.59628,0.502923 1.73518,-0.890362 -0.69344,-1.122015 -0.0395,-3.261304 1.45313,-4.753975 2.46371,-2.463698 2.8156,-2.449079 3.81624,0.158545 0.88,2.293271 1.39762,2.406555 2.56701,0.561801 1.13766,-1.794721 1.47066,-1.66598 1.49127,0.576562 0.0139,1.587983 1.00097,3.282635 2.19196,3.765894 1.40287,0.569232 1.55538,1.382631 0.43308,2.309795 -0.95279,0.78713 -1.98114,2.990257 -2.28522,4.895838 -0.3041,1.905582 -1.70964,4.360403 -3.12344,5.455158 -2.03043,1.572243 -2.09626,2.180486 -0.31328,2.894843 1.43173,0.573628 1.12355,0.954395 -0.84266,1.041142 -2.56438,0.11314 -2.71402,0.555655 -0.86618,2.561553 1.5623,1.695917 2.88465,1.892521 4.39918,0.654056 1.49792,-1.224886 2.16543,-1.171333 2.16543,0.173731 7e-5,1.06945 0.82564,1.944458 1.83466,1.944458 1.00902,0 1.35279,-0.779556 0.76393,-1.732347 -0.58886,-0.95279 -0.24509,-1.732346 0.76393,-1.732346 1.00902,0 1.85938,0.974445 1.88968,2.165433 0.031,1.219771 1.16583,0.696911 2.59852,-1.197277 2.36806,-3.130861 2.54343,-3.146792 2.54343,-0.231039 0,2.318444 0.93524,2.887097 3.60153,2.189847 2.62981,-0.68771 3.34558,-0.274821 2.65288,1.5303 -0.52175,1.359666 -0.1476,2.472125 0.83158,2.472125 0.97912,0 1.24455,0.86671 0.58986,1.92603 -0.65469,1.05931 -0.11606,2.60649 1.19702,3.43816 1.72881,1.09501 1.79003,1.51946 0.22195,1.53867 -1.19099,0.0145 -2.16544,1.195856 -2.16544,2.625036 0,2.94182 2.71274,3.48437 4.33087,0.86618 0.58886,-0.95279 1.89966,-1.73235 2.91287,-1.73235 1.1617,0 1.04558,0.95992 -0.31435,2.59852 -1.8075,2.1779 -1.5302,2.59852 1.71303,2.59852 3.52204,0 3.7619,0.57409 2.67054,6.39161 -1.11775,5.95804 -0.99132,6.22244 1.8639,3.89778 2.70888,-2.20554 2.94117,-2.16826 2.00943,0.32246 -1.36982,3.66181 4.24896,3.45489 5.91319,-0.21777 0.84974,-1.87518 1.2114,-1.51351 1.29926,1.29926 0.0693,2.2175 1.21852,3.89778 2.66593,3.89778 1.54974,0 2.1544,-1.01566 1.547,-2.59852 -0.54844,-1.42919 -0.13426,-2.59852 0.92054,-2.59852 1.05474,0 1.91769,0.77956 1.91769,1.73235 0,3.08169 3.46013,1.83341 3.60146,-1.29926 0.0818,-1.81107 0.48854,-2.15979 1.01053,-0.86618 1.45595,3.60821 4.3644,2.42122 3.18357,-1.29926 -0.63082,-1.98754 -0.31131,-3.46469 0.74943,-3.46469 1.017,0 1.84909,0.84452 1.84909,1.87671 0,1.03219 0.97444,1.53598 2.16543,1.11954 1.19099,-0.41645 1.9493,-2.23541 1.68514,-4.04214 -0.45292,-3.09763 -0.34323,-3.11208 1.92332,-0.25337 3.05224,3.84968 4.59056,3.84968 4.73,0 0.0842,-2.32274 0.47613,-2.12021 1.67651,0.86617 1.87132,4.65557 4.58294,5.06899 5.68125,0.86618 0.59619,-2.28135 0.84199,-2.06699 0.99321,0.86617 0.23547,4.56754 3.57171,5.3149 3.86659,0.86617 0.19139,-2.88724 0.23869,-2.88724 0.99321,0 0.85486,3.27128 4.00288,4.21266 4.00288,1.19702 0,-1.00902 0.86671,-1.29892 1.92602,-0.64423 1.05933,0.65469 2.60649,0.11603 3.43817,-1.19702 1.12236,-1.77199 1.51898,-1.38266 1.53867,1.51041 0.0308,4.53923 3.46549,5.37868 3.5439,0.86617 0.0473,-2.72318 0.24864,-2.694 1.97895,0.28682 1.87233,3.22556 1.99207,3.22841 4.27818,0.10199 1.29356,-1.76905 2.35192,-2.2879 2.35192,-1.153 0,1.1349 1.08272,2.06345 2.40604,2.06345 1.32332,0 2.29777,-1.36422 2.16544,-3.03161 -0.14656,-1.84747 0.89002,-2.94654 2.654,-2.81383 1.94052,0.14598 2.55514,-0.66688 1.86468,-2.46619 -0.7654,-1.9946 -0.26215,-2.38933 1.95932,-1.53687 1.79793,0.68993 2.56244,0.45648 1.91828,-0.58577 -0.58903,-0.95307 1.33188,-2.21342 4.26869,-2.80078 4.28039,-0.85608 4.9484,-1.53935 3.36739,-3.444336 -1.54917,-1.86663 -1.27641,-2.40576 1.27147,-2.51319 1.82527,-0.077 2.2968,-0.51885 1.07829,-1.01053 -1.19099,-0.48058 -2.16544,-1.67177 -2.16544,-2.6471 0,-0.97533 1.2796,-1.2823 2.84355,-0.68215 2.37761,0.91237 2.48477,0.65887 0.65406,-1.54701 -1.84388,-2.221737 -1.60911,-2.638176 1.48732,-2.638176 2.02224,0 3.6768,-0.75509 3.6768,-1.677977 0,-0.922888 -1.36422,-1.197931 -3.0316,-0.61121 -2.44767,0.86129 -2.62245,0.62518 -0.90739,-1.225793 1.67063,-1.803021 1.67352,-2.835612 0.0139,-4.835713 -1.78063,-2.145524 -1.50503,-2.350942 1.76266,-1.313817 3.19343,1.013552 3.6715,0.703455 2.72363,-1.766646 -0.75239,-1.960721 -0.48611,-2.585887 0.7706,-1.809191 1.05615,0.652736 2.72403,-0.193827 3.70641,-1.881251 1.69931,-2.918908 1.7887,-2.915711 1.83882,0.06579 0.0289,1.723614 0.83223,2.652053 1.78502,2.063195 0.9528,-0.588857 1.73235,-0.16168 1.73235,0.949278 0,1.110959 1.16934,1.57121 2.59852,1.02278 1.42919,-0.548431 2.59852,-0.242057 2.59852,0.680832 0,0.922887 -1.36422,1.732767 -3.03161,1.799735 -2.58104,0.103663 -2.51666,0.334095 0.43309,1.550434 3.30097,1.36116 3.26004,1.51395 -0.86617,3.233127 -2.38198,0.992449 -3.27303,1.853866 -1.98009,1.91426 1.29292,0.06039 1.93851,1.184148 1.43462,2.497232 -0.50387,1.313084 -0.0416,3.261971 1.0273,4.330861 1.4361,1.43637 1.35241,1.94345 -0.32098,1.94345 -1.37039,0 -1.84133,1.10189 -1.193,2.7914 0.76648,1.997396 0.32644,2.505616 -1.547,1.786716 -1.44864,-0.555896 -2.63002,-0.0617 -2.64469,1.10638 -0.0185,1.48016 -0.47162,1.40864 -1.5158,-0.23932 -1.0382,-1.638466 -1.84821,-1.769646 -2.67424,-0.43309 -0.65173,1.05451 -0.65509,2.77463 -0.007,3.82248 0.85619,1.38534 0.20613,1.38534 -2.3824,0 -5.05213,-2.70382 -5.31284,-2.50871 -4.39867,3.29186 0.49902,3.16636 0.0617,5.19704 -1.11953,5.19704 -1.06624,0 -1.45681,0.77955 -0.86795,1.73234 0.58886,0.95279 -0.62992,1.73235 -2.70841,1.73235 -3.33005,0 -3.49656,0.34726 -1.40148,2.92287 2.08204,2.55958 2.00074,2.78165 -0.65407,1.78671 -2.26055,-0.84718 -3.0316,-0.24774 -3.0316,2.35689 0,1.92118 -2.01961,5.36474 -4.48799,7.65238 -2.46841,2.28763 -3.98703,4.96992 -3.37474,5.96065 0.69119,1.11835 -0.0138,1.36882 -1.85939,0.6606 -2.19095,-0.84054 -2.59573,-0.52992 -1.53869,1.1804 1.07087,1.73271 0.64163,2.01687 -1.6932,1.12091 -2.75114,-1.05571 -2.83914,-0.85249 -0.73086,1.68784 2.1591,2.60154 1.96992,2.75255 -1.90681,1.52212 -3.87673,-1.23043 -4.0659,-1.07942 -1.90681,1.52212 2.10945,2.54173 2.01981,2.74337 -0.74744,1.68148 -2.47985,-0.95161 -2.90188,-0.57491 -1.9972,1.78266 0.68258,1.77881 0.45363,2.56068 -0.56542,1.93086 -0.94188,-0.58211 -1.71251,0.20297 -1.71251,1.74461 0,1.54165 -0.77956,2.32121 -1.73235,1.73235 -0.95279,-0.58886 -1.73235,0.14465 -1.73235,1.6301 0,1.48542 -0.97444,2.71272 -2.16543,2.7273 -1.44362,0.0177 -1.29926,0.5863 0.43309,1.70583 2.16249,1.39752 2.01714,1.70669 -0.86618,1.84258 -1.90558,0.0899 -2.48539,0.55811 -1.28846,1.04067 1.19693,0.48254 1.73558,1.59034 1.19701,2.46175 -0.53855,0.8714 0.0412,1.59632 1.28847,1.61091 1.64779,0.0192 1.55736,0.48557 -0.33084,1.70582 -1.88821,1.22025 -1.97864,1.68655 -0.33085,1.70583 1.24722,0.0139 1.78588,0.80607 1.19702,1.75887 -0.58886,0.95279 -0.16163,1.73234 0.94927,1.73234 1.11096,0 1.57123,1.16934 1.02278,2.59852 -0.54842,1.42919 -0.33297,2.59852 0.47879,2.59852 0.81176,0 1.87048,1.50877 2.35271,3.35282 0.89478,3.42164 -2.82819,6.19891 -5.82605,4.34613 -1.38052,-0.85322 -2.37541,2.82934 -1.78116,6.59291 0.11277,0.71459 -0.7693,1.3112 -1.96029,1.32578 -1.44362,0.0177 -1.29926,0.5863 0.43308,1.70583 2.30979,1.49271 2.30979,1.68519 0,1.73234 -2.30979,0.0471 -2.30979,0.23964 0,1.73235 1.42919,0.92362 1.9184,1.69124 1.08716,1.70582 -0.83127,0.0139 -0.54093,1.19586 0.64519,2.62505 1.73081,2.0855 1.70731,2.59852 -0.11901,2.59852 -1.38978,0 -0.99205,0.93853 1.02174,2.41106 2.80153,2.04853 2.94966,2.82996 0.98516,5.19704 -1.99902,2.40867 -1.82158,2.78598 1.31028,2.78598 2.50823,0 3.31573,0.79927 2.6253,2.59852 -0.54844,1.42918 -0.0882,2.59852 1.02278,2.59852 1.11096,0 1.53813,0.77955 0.94928,1.73234 -0.58886,0.95279 -0.0502,1.75714 1.19701,1.78744 1.51596,0.0369 1.27165,0.81143 -0.73701,2.33673 -1.65257,1.25489 -2.43213,2.89887 -1.73234,3.65329 0.69978,0.75442 -0.87144,0.85739 -3.49162,0.22879 -3.81078,-0.91419 -4.78831,-0.5297 -4.88572,1.92174 -0.10567,2.65846 -0.31906,2.60544 -1.61058,-0.40008 -0.81886,-1.90558 -1.59842,-2.68514 -1.73234,-1.73235 -0.13391,0.95279 -0.91349,0.17324 -1.73235,-1.73234 -1.1826,-2.75206 -1.51388,-2.87267 -1.61058,-0.58637 -0.12733,3.0089 -2.64975,3.26525 -7.05115,0.7166 -2.09261,-1.21174 -2.18496,-1.05851 -0.4743,0.78704 1.55533,1.67801 1.61451,2.90589 0.22096,4.58502 -1.42158,1.71289 -1.30155,2.29999 0.47431,2.31979 1.86744,0.0208 1.82004,0.38681 -0.22097,1.70582 -1.73235,1.11953 -1.87671,1.68814 -0.43309,1.70583 1.19099,0.0139 2.16543,0.85209 2.16543,1.86111 0,1.00902 -0.77955,1.35279 -1.73234,0.76393 -0.95279,-0.58886 -1.73235,0.58047 -1.73235,2.59852 0,2.02213 -0.78311,3.18518 -1.74458,2.59095 -1.75363,-1.08379 -3.35782,1.60488 -4.14089,6.94021 -0.54311,3.70048 -4.06859,5.85066 -7.93503,4.83955 -2.55104,-0.66711 -2.96206,0.22336 -2.54269,5.50869 0.44504,5.60873 0.19179,6.05452 -2.29491,4.03968 -2.34341,-1.89874 -2.55549,-1.86721 -1.31224,0.19508 1.1313,1.8766 0.75368,2.18 -1.5927,1.27961 -2.35297,-0.90293 -2.82215,-0.51977 -1.99687,1.63083 0.77411,2.01734 0.33943,2.52738 -1.53947,1.80637 -1.44,-0.55258 -2.61817,-0.15417 -2.61817,0.88541 0,1.23416 -0.91554,1.13025 -2.63817,-0.2994 -2.23017,-1.85088 -2.45257,-1.70578 -1.43795,0.93823 0.82588,2.15222 0.56809,2.73706 -0.82652,1.87515 -1.11471,-0.68894 -2.02674,-0.33159 -2.02674,0.79411 0,1.52519 -0.6621,1.49719 -2.59852,-0.10984 -2.07314,-1.72054 -2.59852,-1.72054 -2.59852,0 0,1.72055 -0.52539,1.72055 -2.59852,0 -2.09493,-1.73863 -2.60367,-1.69581 -2.62504,0.22098 -0.0208,1.86744 -0.38682,1.82004 -1.70583,-0.22098 -0.92362,-1.42918 -1.69124,-1.9184 -1.70582,-1.08715 -0.0139,0.83127 -1.3455,0.44149 -2.95759,-0.86617 -2.19507,-1.78054 -2.59152,-1.81299 -1.57884,-0.12923 0.74373,1.2366 0.87712,3.4865 0.29642,4.99976 -0.93936,2.44796 -1.48162,2.39613 -4.91745,-0.47009 -2.12391,-1.77179 -2.88722,-2.11177 -1.69623,-0.75551 2.58799,2.94712 2.87885,5.88308 0.43309,4.37152 -0.95279,-0.58886 -1.73235,-0.31005 -1.73235,0.61958 0,0.92962 0.97444,2.14495 2.16543,2.70076 1.64752,0.76883 1.6708,1.24446 0.0974,1.98863 -1.13747,0.53794 -1.63533,2.10591 -1.10638,3.48434 0.67447,1.75767 0.12802,2.1863 -1.82967,1.43507 -2.06643,-0.79296 -2.81991,-0.0104 -2.90121,3.01196 l -0.10983,4.08316 -1.80447,-4.33086 c -1.71916,-4.12621 -1.87195,-4.16715 -3.23311,-0.86618 -1.35859,3.2947 -1.43466,3.27344 -1.55043,-0.43308 -0.067,-2.14378 -0.87686,-3.89778 -1.79975,-3.89778 -0.92288,0 -1.22926,1.16933 -0.68083,2.59852 0.54844,1.42918 0.19915,2.59852 -0.77618,2.59852 -0.97533,0 -2.16653,-0.97445 -2.6471,-2.16544 -0.48057,-1.19099 -0.94724,-0.60632 -1.03707,1.29926 -0.13581,2.88332 -0.44505,3.02866 -1.84257,0.86618 -1.22025,-1.88821 -1.68655,-1.97864 -1.70583,-0.33085 -0.0139,1.24722 -0.80607,1.78588 -1.75887,1.19702 -0.95279,-0.58886 -1.73234,-0.24509 -1.73234,0.76393 0,1.00902 -0.77956,1.83459 -1.73235,1.83459 -0.95279,0 -1.73235,-1.70811 -1.73235,-3.7958 0,-3.70951 -0.0579,-3.71935 -2.54343,-0.43308 -2.30137,3.04269 -2.54866,3.0742 -2.59852,0.3311 -0.0303,-1.66738 -0.81018,-3.03161 -1.73307,-3.03161 -0.92287,0 -1.22926,1.16934 -0.68083,2.59852 0.54844,1.42919 0.13426,2.59852 -0.92053,2.59852 -1.05474,0 -1.97924,-0.97444 -2.05446,-2.16543 -0.097,-1.53746 -0.4091,-1.48062 -1.07588,0.19601 -0.78149,1.96514 -1.17971,1.97214 -2.37279,0.0417 -1.07473,-1.73894 -1.86219,-1.24585 -3.14518,1.96942 -1.66962,4.18422 -1.71419,4.1938 -1.8213,0.39139 -0.12837,-4.55838 -3.49259,-5.33601 -3.74719,-0.86617 -0.11,1.93146 -0.62042,1.45997 -1.40651,-1.29926 l -1.23383,-4.33087 -1.20966,4.7028 c -0.91196,3.54537 -1.95147,4.42485 -4.22362,3.57343 -2.72314,-1.0204 -2.76455,-0.82324 -0.42902,2.04338 2.38768,2.93064 2.28937,3.07895 -1.28836,1.94341 -3.243,-1.02927 -3.68134,-0.71757 -2.69368,1.91556 1.03737,2.76562 0.82715,2.85817 -1.74324,0.76734 -2.58513,-2.10287 -2.92287,-1.91448 -2.92287,1.6303 0,3.89603 -0.071,3.91405 -2.54343,0.64521 -2.30137,-3.04269 -2.54866,-3.0742 -2.59852,-0.3311 -0.0669,3.68326 -3.51978,4.10812 -3.51978,0.43308 0,-1.42918 -0.75509,-2.59852 -1.67798,-2.59852 -0.92288,0 -1.16671,1.36423 -0.54181,3.03161 1.00041,2.66943 0.78222,2.74364 -1.82638,0.62115 -2.59145,-2.10854 -2.8249,-2.05182 -1.86382,0.45273 0.81616,2.12687 0.38086,2.58773 -1.69269,1.79203 -1.85706,-0.71262 -2.7914,-0.13443 -2.7914,1.72739 0,2.31591 -0.56771,2.444 -3.29184,0.74274 -1.81051,-1.13068 -2.89645,-3.08617 -2.41317,-4.34553 0.48325,-1.25939 0.0156,-2.28977 -1.03903,-2.28977 -1.05474,0 -1.91769,1.16934 -1.91769,2.59852 0,2.2565 -6.63887,3.73851 -12.55951,2.80367 -0.7146,-0.11278 -1.29926,0.6578 -1.29926,1.71254 0,1.05472 -1.12076,1.4876 -2.49058,0.96196 -1.62766,-0.62458 -2.67833,0.36157 -3.03246,2.84626 -0.34434,2.41605 -1.66882,3.7106 -3.63341,3.55126 -2.60843,-0.21154 -2.74365,0.17753 -0.86532,2.48978 1.89616,2.33423 1.77675,2.57208 -0.8054,1.60438 -1.66739,-0.6249 -3.03161,-0.35936 -3.03161,0.59005 0,1.06765 4.46119,1.37316 11.69334,0.80081 13.78629,-1.09106 12.59243,0.0717 -1.73234,1.6872 -9.02278,1.01757 -9.961,1.51187 -9.961,5.24797 0,3.9128 0.46702,4.08741 9.09482,3.40019 l 9.09482,-0.72442 -9.09482,1.80434 -9.09482,1.80435 0,9.39576 0,9.39578 7.36247,0.30266 7.36248,0.30264 -7.36248,0.66314 c -7.15982,0.64487 -8.77587,2.4886 -6.0032,6.84897 0.71844,1.1298 5.18893,2.35351 9.93447,2.71935 l 8.62825,0.66515 -9.09482,0.31226 c -8.69074,0.29838 -9.09488,0.52391 -9.0959,5.07621 -10e-4,4.64296 0.22994,4.75382 9.09483,4.3648 10.49396,-0.46049 9.31025,0.49717 -2.59745,2.10139 -5.49002,0.73962 -8.22865,1.93808 -8.22865,3.60094 0,2.99086 -0.67581,2.99573 7.79556,-0.0561 3.81117,-1.37302 8.87828,-2.46908 11.26026,-2.43568 4.93259,0.0691 4.53131,0.24744 -9.09482,4.04055 -7.76698,2.16209 -9.961,3.51586 -9.961,6.14624 0,2.90535 0.61658,3.13901 4.44364,1.68396 2.444,-0.92921 7.31622,-1.58331 10.82717,-1.45356 4.33004,0.16007 4.99034,0.44572 2.05266,0.88811 -11.87881,1.78885 -17.32347,4.24328 -17.32347,7.80929 0,2.9301 0.72286,3.37529 3.89778,2.40059 2.14378,-0.65814 7.79556,-1.49751 12.55952,-1.86529 8.87261,-0.68495 8.3771,-0.48658 -7.41076,2.96676 -12.11875,2.65081 -10.73379,5.83216 2.38541,5.47943 l 10.22239,-0.27485 -9.82698,1.83426 c -7.24866,1.353 -10.05174,2.69371 -10.6836,5.10997 -0.715,2.7342 -0.23599,3.04916 2.8976,1.90527 2.0648,-0.75372 10.77021,-1.36093 19.34532,-1.34934 16.93691,0.0229 84.59137,3.92229 94.41289,5.44165 3.33477,0.51587 49.91114,1.11979 103.50307,1.34203 53.59192,0.22224 97.96165,0.92587 98.59939,1.56361 2.5368,2.5368 2.15932,-0.47002 -1.28677,-10.24956 z M 171.06922,350.9417 c 3.09658,-0.38427 8.16369,-0.38427 11.26026,0 3.09657,0.38429 0.56301,0.69871 -5.63013,0.69871 -6.19314,0 -8.7267,-0.31442 -5.63013,-0.69871 z m 170.20306,-11.65334 c 0,-1.38184 -1.36422,-3.30703 -3.03161,-4.27819 -1.87074,-1.08961 -2.16327,-1.78592 -0.76393,-1.81842 1.24722,-0.0289 1.91371,-0.63735 1.48109,-1.35194 -0.43262,-0.7146 0.10602,-2.07882 1.19702,-3.03161 2.85793,-2.49593 7.60458,-2.98322 8.88459,-0.91211 0.60447,0.97806 1.92805,1.77828 2.94127,1.77828 1.29978,0 1.29884,-0.65474 -0.003,-2.22353 -2.31874,-2.79391 0.25752,-7.36183 3.14539,-5.57703 1.50725,0.93153 1.79023,0.29242 0.98869,-2.233 -0.95803,-3.01846 -0.54004,-3.38783 2.84602,-2.51505 3.54031,0.91253 3.71217,0.70993 1.5914,-1.87593 -2.04718,-2.4961 -1.987,-2.89892 0.43309,-2.89892 1.54584,0 2.81062,-0.70657 2.81062,-1.57017 0,-0.86359 -1.55911,-1.16245 -3.46469,-0.66413 -1.93709,0.50656 -3.46469,0.0532 -3.46469,-1.02835 0,-1.06392 1.16933,-1.93439 2.59852,-1.93439 1.42918,0 2.59852,-0.70657 2.59852,-1.57017 0,-0.86359 -1.754,-1.18574 -3.89778,-0.71589 -2.86736,0.62843 -3.26807,0.40864 -1.5158,-0.83133 1.31008,-0.92709 2.38197,-3.72316 2.38197,-6.2135 0,-2.49033 0.72812,-4.52788 1.61805,-4.52788 0.88992,0 1.05437,-0.91203 0.36544,-2.02675 -0.84224,-1.36275 -0.30819,-1.66433 1.63012,-0.92053 2.14797,0.82425 2.89612,0.12663 2.93537,-2.73721 0.0494,-3.60262 0.17064,-3.64046 1.93474,-0.60397 1.51965,2.61566 2.17156,2.78245 3.38549,0.86618 1.16081,-1.83245 1.50946,-1.63409 1.52996,0.87043 0.023,2.82731 0.40174,2.93851 2.94938,0.86617 2.55061,-2.07472 2.78248,-2.00266 1.82058,0.56584 -0.8404,2.24405 -0.40296,2.68148 1.84109,1.84109 2.65215,-0.99324 2.68763,-0.78838 0.35844,2.07045 -2.38768,2.93064 -2.28937,3.07895 1.28836,1.94341 3.243,-1.02927 3.68134,-0.71757 2.69368,1.91556 -1.07456,2.86476 -0.89039,2.91343 2.06759,0.54637 2.90263,-2.32279 3.13994,-2.31146 2.23632,0.10671 -0.81625,2.1843 0.0379,2.55126 4.43621,1.90573 4.43683,-0.65118 4.82647,-1.01716 2.1008,-1.97328 -2.06281,-0.7236 -2.62224,-1.62133 -1.4585,-2.34055 1.0383,-0.64172 1.48029,-2.72507 0.98222,-4.62972 -0.66059,-2.52612 -0.0308,-3.49589 2.32807,-3.58472 2.99807,-0.11295 2.98123,-0.23022 -0.23104,-1.61058 -3.30594,-1.42061 -3.28609,-1.49441 0.43308,-1.61058 4.19384,-0.13097 5.2755,-2.73872 1.73235,-4.1764 -1.69342,-0.68711 -1.66175,-1.23246 0.14534,-2.5018 1.87607,-1.31785 1.79461,-1.82118 -0.43308,-2.67602 -1.50908,-0.57909 -2.74378,-1.95236 -2.74378,-3.05172 0,-1.42602 0.75667,-1.37086 2.64039,0.19249 3.02371,2.50945 3.41589,2.27163 5.0567,-3.06635 0.72419,-2.35599 0.4667,-3.89778 -0.65096,-3.89778 -1.01701,0 -1.86103,0.97444 -1.87561,2.16543 -0.0177,1.44803 -0.59167,1.30454 -1.73235,-0.43309 -1.51629,-2.30979 -1.89536,-2.30979 -3.41165,0 -1.46035,2.2246 -1.70963,2.16227 -1.73234,-0.43308 -0.0298,-3.41584 -3.42387,-4.22953 -3.61299,-0.86618 -0.0669,1.19099 -0.76465,0.60633 -1.55043,-1.29926 -1.36116,-3.30096 -1.51395,-3.26003 -3.23311,0.86618 -1.41762,3.40241 -1.82801,3.63548 -1.91426,1.08715 -0.0868,-2.5618 -0.61358,-2.82565 -2.50603,-1.25505 -1.86115,1.54461 -2.64748,1.33389 -3.52148,-0.94373 -0.85765,-2.23502 -1.60616,-2.45153 -3.14729,-0.9104 -3.03788,3.03788 -5.5589,2.43277 -2.95187,-0.70853 1.87809,-2.26295 1.84025,-3.00004 -0.22096,-4.30433 -2.00694,-1.26993 -1.86085,-1.57891 0.75658,-1.60032 2.82731,-0.023 2.93851,-0.40175 0.86618,-2.94939 -2.08204,-2.55958 -2.00074,-2.78167 0.65406,-1.78673 1.66738,0.62489 3.03161,0.38107 3.03161,-0.54181 0,-0.92289 -0.97445,-1.68992 -2.16544,-1.7045 -1.44361,-0.0177 -1.29926,-0.5863 0.43309,-1.70583 2.2207,-1.43513 2.15773,-1.68315 -0.43309,-1.70582 -1.66714,-0.0139 -3.03136,-0.8061 -3.03136,-1.75889 0,-0.95279 1.26479,-1.73235 2.81063,-1.73235 2.33626,0 2.43637,-0.45098 0.59314,-2.67193 -1.60092,-1.92897 -1.69228,-3.19719 -0.32858,-4.56089 2.56102,-2.56101 7.92287,-0.30451 6.72068,2.82833 -0.68276,1.77923 -0.11278,2.17924 1.9857,1.3934 2.5827,-0.96722 2.64801,-0.73928 0.53292,1.86023 -2.13082,2.61882 -2.0476,2.82329 0.71726,1.7623 2.15222,-0.82588 2.73706,-0.56809 1.87514,0.82652 -0.68893,1.11471 -0.492,2.02674 0.43763,2.02674 0.92963,0 2.08342,-0.97445 2.56399,-2.16544 0.48057,-1.19098 0.93532,-0.65221 1.01053,1.19728 0.1353,3.32872 0.1644,3.32872 2.87672,0 2.33948,-2.87124 2.60062,-2.91963 1.78671,-0.3311 -0.52428,1.66738 -0.19813,3.0316 0.72474,3.0316 0.92289,0 1.67799,-0.77955 1.67799,-1.73234 0,-0.95279 0.75509,-1.73235 1.67798,-1.73235 0.92288,0 1.24903,1.36422 0.72475,3.03161 -0.81391,2.58852 -0.55278,2.54014 1.78671,-0.33111 2.67902,-3.28794 2.73995,-3.27418 2.73995,0.61843 0,2.82707 0.75327,3.69209 2.59852,2.98399 1.42918,-0.54843 2.59851,-0.24204 2.59851,0.68083 0,0.92289 1.14488,1.67798 2.54416,1.67798 1.54974,0 2.1544,1.01566 1.54701,2.59852 -0.5827,1.51846 -0.0201,2.60954 1.35362,2.62505 1.88228,0.0213 1.8551,0.34018 -0.13634,1.60032 -2.16127,1.36758 -2.16127,1.97403 0,4.62869 2.20088,2.70329 2.15875,2.93202 -0.36601,1.98723 -2.04517,-0.76533 -3.07237,0.0792 -3.62732,2.98218 -0.6013,3.14549 -0.15765,3.81932 1.98696,3.01749 2.39026,-0.89368 2.4418,-0.63974 0.38361,1.89051 -2.07192,2.54714 -1.96058,2.92995 0.86618,2.97795 3.11812,0.053 3.11351,0.15366 -0.11902,2.59852 -3.32872,2.51773 -3.32872,2.54399 0,2.59852 3.32873,0.0546 3.32873,0.0807 0,2.59852 -3.32872,2.51773 -3.32872,2.5437 0,2.56996 2.78624,0.022 2.9187,0.30723 0.77263,1.66395 -2.22485,1.40653 -2.10272,2.03341 0.86617,4.44576 3.17096,2.57652 3.18877,2.72304 0.21587,1.77499 -2.59334,-0.82698 -3.05811,-0.33635 -2.32761,2.45711 0.59549,2.27712 0.0658,3.49044 -1.52357,3.49044 -1.33998,0 -2.43634,0.82557 -2.43634,1.83459 0,1.00902 -0.77955,1.35279 -1.73234,0.76393 -0.95279,-0.58886 -1.75714,0.33957 -1.78744,2.06319 -0.0514,2.92378 -0.22558,2.90845 -2.59852,-0.22886 -2.51772,-3.32872 -2.57061,-3.32872 -5.23165,0 -2.58461,3.23311 -2.64519,3.1958 -1.57195,-0.96816 l 1.11626,-4.33086 -2.85928,3.90081 c -1.57258,2.14546 -2.37832,4.67901 -1.7905,5.63012 0.58784,0.95113 0.19721,1.72932 -0.86804,1.72932 -1.06526,0 -1.45503,0.77955 -0.86617,1.73234 0.58886,0.9528 0.29108,1.73235 -0.66171,1.73235 -0.95279,0 -2.24295,-0.82621 -2.86705,-1.83601 -0.72218,-1.1685 -1.92344,-0.75736 -3.30414,1.13082 -1.19317,1.63177 -2.99452,2.45691 -4.003,1.83364 -1.15419,-0.71334 -1.49152,0.17483 -0.9104,2.39707 0.82335,3.1485 0.31492,3.42313 -4.70136,2.53939 -4.57846,-0.80661 -5.43472,-0.49616 -4.60382,1.66913 1.55099,4.04181 -0.5105,7.78378 -3.62892,6.58713 -1.68909,-0.64816 -2.30211,-0.34373 -1.59894,0.79404 1.60308,2.59383 -3.19897,4.08543 -5.55797,1.72642 -1.43638,-1.43637 -1.97914,-1.06205 -2.08022,1.43463 -0.0752,1.85794 -0.52996,2.40363 -1.01053,1.21264 -0.48057,-1.19099 -2.46338,-2.16543 -4.40622,-2.16543 -2.67877,0 -3.08647,0.53735 -1.68708,2.22353 1.16983,1.40956 1.25719,3.1535 0.23864,4.76396 -1.40268,2.21778 -1.61345,2.2104 -1.65978,-0.058 -0.0312,-1.52945 -0.57668,-1.88581 -1.32578,-0.86617 -2.03682,2.77229 -5.6036,2.82708 -5.6036,0.0861 z m 5.19704,-6.14929 c 0,-0.95279 -0.34377,-1.73235 -0.76393,-1.73235 -0.42017,0 -1.24573,0.77956 -1.83459,1.73235 -0.58886,0.95279 -0.24509,1.73234 0.76393,1.73234 1.00902,0 1.83459,-0.77955 1.83459,-1.73234 z m 16.3156,-6.24856 c 1.50713,-0.57833 2.74021,-2.1737 2.74021,-3.54526 0,-1.37157 2.29604,-3.8115 5.10232,-5.42208 2.80626,-1.61058 5.46172,-4.30276 5.90103,-5.98264 0.50395,-1.92713 2.45684,-3.05432 5.29176,-3.05432 2.47118,0 4.49305,-0.77955 4.49305,-1.73234 0,-0.95279 -0.58467,-1.75043 -1.29926,-1.77254 -0.71459,-0.0222 -4.34616,-2.78391 -8.07015,-6.13736 -7.22671,-6.50761 -12.62742,-7.21946 -11.77208,-1.55164 2.33295,15.45882 1.69242,18.60663 -5.36217,26.35192 -3.49921,3.84184 -2.38838,4.9045 2.97529,2.84626 z m 29.59158,-23.20133 c 0.58886,-0.9528 0.24509,-1.73235 -0.76393,-1.73235 -1.00902,0 -1.83459,0.77955 -1.83459,1.73235 0,0.95279 0.34377,1.73234 0.76393,1.73234 0.42017,0 1.24573,-0.77955 1.83459,-1.73234 z m 14.17616,-3.08887 c 2.80952,-1.78663 2.15116,-22.56339 -0.75047,-23.68381 -1.42188,-0.54901 -2.16543,0.86176 -2.16543,4.10852 0,2.71956 -1.12596,7.11494 -2.50214,9.76753 -3.59957,6.93818 -0.0821,13.30544 5.41804,9.80776 z m 0.58936,-41.87636 c -1.79152,-3.34746 -8.85054,-6.05791 -21.01231,-8.06805 -5.13595,-0.84889 -6.3962,-0.46112 -7.08703,2.18062 -1.57995,6.04172 -0.50979,6.66084 12.38852,7.16736 7.10241,0.27891 13.27389,0.86753 13.71441,1.30804 2.19281,2.19279 3.58743,0.38491 1.99641,-2.58797 z m -216.90871,69.76704 c 1.25053,-0.50042 2.74468,-0.43889 3.32034,0.13668 0.57564,0.57564 -0.44754,0.98508 -2.27371,0.90987 -2.01809,-0.0832 -2.42857,-0.49362 -1.04663,-1.04662 z M 186.66035,72.139769 c 1.19098,-0.480574 3.13987,-0.480574 4.33086,0 1.19099,0.480575 0.21655,0.873771 -2.16543,0.873771 -2.38198,0 -3.35642,-0.393196 -2.16543,-0.873771 z m -10.39408,-3.464693 c 1.19099,-0.480574 3.13988,-0.480574 4.33086,0 1.19099,0.480575 0.21655,0.873771 -2.16543,0.873771 -2.38198,0 -3.35642,-0.393196 -2.16543,-0.873771 z m 8.66173,-1.732347 c 1.19099,-0.480574 3.13988,-0.480574 4.33087,0 1.19098,0.480575 0.21654,0.873771 -2.16544,0.873771 -2.38197,0 -3.35642,-0.393196 -2.16543,-0.873771 z m 2.63149,-10.44728 c 1.68552,-0.439224 4.02419,-0.410339 5.19704,0.06418 1.17285,0.474529 -0.2062,0.833896 -3.06458,0.798591 -2.85837,-0.03531 -3.81798,-0.423556 -2.13246,-0.862782 z M 171.50231,42.397098 c 1.42919,-0.883032 4.54741,-2.126814 6.92939,-2.763955 3.00992,-0.805108 3.5383,-0.668747 1.73235,0.447073 -1.42919,0.883033 -4.54741,2.126814 -6.92939,2.763956 -3.00992,0.805108 -3.5383,0.668746 -1.73235,-0.447074 z m 27.39273,-6.672697 c 1.25053,-0.500425 2.74468,-0.43888 3.32034,0.136768 0.57564,0.575645 -0.44753,0.985084 -2.2737,0.909863 -2.0181,-0.08312 -2.42858,-0.493616 -1.04664,-1.046626 z m -20.46334,-4.01365 c 1.42919,-0.923611 3.76785,-1.636439 5.19704,-1.584061 1.71339,0.0628 1.41834,0.602371 -0.86617,1.584061 -4.76238,2.046459 -7.49755,2.046459 -4.33087,0 z m 10.06926,-2.915737 c 1.25053,-0.500424 2.74468,-0.438879 3.32034,0.136769 0.57564,0.575645 -0.44753,0.985083 -2.2737,0.909863 -2.0181,-0.08312 -2.42858,-0.493616 -1.04664,-1.046626 z m 7.72026,-1.749457 c 1.68552,-0.439224 4.02419,-0.410339 5.19704,0.06418 1.17285,0.474529 -0.2062,0.833896 -3.06457,0.798591 -2.85838,-0.03531 -3.81799,-0.423555 -2.13247,-0.862782 z M 121.26427,428.41813 c 0,-0.95279 -0.34378,-1.73235 -0.76394,-1.73235 -0.42017,0 -1.24573,0.77956 -1.83458,1.73235 -0.58886,0.95279 -0.24509,1.73234 0.76393,1.73234 1.00902,0 1.83459,-0.77955 1.83459,-1.73234 z m 39.44813,-4.438 c -0.58069,-0.58068 -1.98959,0.76499 -3.13086,2.99036 -1.98375,3.86809 -1.93728,3.91455 1.05578,1.0558 1.72197,-1.64471 2.65576,-3.46547 2.07508,-4.04616 z m -42.97513,-6.49141 c 0.12447,-2.80022 -3.49267,0.88788 -6.15458,6.2753 l -2.72756,5.52028 4.40992,-5.19704 c 2.42546,-2.85837 4.43796,-5.82772 4.47222,-6.59854 z m 6.42753,2.85841 c -1.26017,-1.26017 -6.0945,1.40211 -7.0453,3.87983 -0.75107,1.95727 -0.0481,1.88072 3.38481,-0.36859 2.38303,-1.56142 4.03024,-3.14147 3.66049,-3.51124 z m 7.02437,0.0949 c -0.57565,-0.57564 -2.0698,-0.63718 -3.32033,-0.13668 -1.38195,0.553 -0.97146,0.96349 1.04662,1.04661 1.82618,0.0752 2.84935,-0.33422 2.27371,-0.90986 z m 13.55506,-5.73182 c -1.43125,-2.31576 -7.88885,-2.50979 -7.88885,-0.23696 0,2.49068 5.85354,5.27404 7.558,3.59382 0.82214,-0.81043 0.97102,-2.32098 0.33085,-3.3568 z m -18.28293,0.71529 c 1.75395,-2.11338 1.67144,-2.59852 -0.44194,-2.59852 -1.42918,0 -3.56898,1.16933 -4.75509,2.59852 -1.75395,2.11338 -1.67144,2.59852 0.44194,2.59852 1.42918,0 3.56898,-1.16933 4.75509,-2.59852 z m 8.66174,-0.86617 c 0,-0.95279 -1.16934,-1.73235 -2.59852,-1.73235 -1.42919,0 -2.59852,0.77956 -2.59852,1.73235 0,0.95279 1.16933,1.73234 2.59852,1.73234 1.42918,0 2.59852,-0.77955 2.59852,-1.73234 z m 20.62026,-0.66387 c 1.54478,-1.86136 1.33304,-2.64781 -0.94865,-3.52337 -2.98735,-1.14635 -6.28681,2.01882 -4.73012,4.5376 1.27523,2.06338 3.4464,1.67562 5.67877,-1.01423 z m -41.33012,-5.50824 c 5.31902,-3.30626 8.39308,-3.78658 22.95417,-3.58665 9.79448,0.13443 17.11691,-0.49228 17.54149,-1.5015 0.40086,-0.95279 0.79037,-0.45152 0.86559,1.11392 0.0752,1.56545 1.30932,3.29622 2.74246,3.84616 2.28765,0.87786 2.60512,-6.12976 2.6011,-57.41518 -0.002,-32.12829 0.38082,-68.15953 0.85183,-80.06941 0.47102,-11.90988 1.3833,-34.90678 2.02729,-51.10422 0.64398,-16.19744 1.23189,-69.79488 1.30643,-119.10539 l 0.13547,-89.655476 -5.90213,-2.8023353 C 146.16082,1.7561887 121.0263,7.7091027 106.15182,20.751024 l -5.58454,4.896514 1.86311,19.921986 c 1.13647,12.152174 1.4628,38.501969 0.83671,67.561516 -1.33213,61.83048 -1.26099,280.5525 0.0951,292.29138 0.68977,5.97104 1.70339,8.66627 2.97763,7.91752 1.06253,-0.62436 4.69555,-2.85307 8.07338,-4.95269 z m 0.89711,-6.13107 c 1.1548,-1.86851 11.44724,-6.77304 14.12698,-6.73176 0.7452,0.0121 -2.03778,1.96036 -6.1844,4.33086 -8.40039,4.80226 -9.66249,5.18377 -7.94258,2.4009 z m -2.43209,-4.9811 c 0.73791,-2.21374 15.31545,-11.56652 15.31545,-9.82622 0,0.52736 -3.60849,3.44157 -8.01888,6.47598 -4.41038,3.03443 -7.69384,4.54204 -7.29657,3.35024 z m 3.18903,-9.80718 c 0,-2.22919 8.35959,-10.1674 9.503,-9.024 0.47022,0.47021 -1.4756,3.08773 -4.32403,5.8167 -2.84844,2.72898 -5.17897,4.17225 -5.17897,3.2073 z m -1.73235,-7.15584 c 0,-1.71637 10.34652,-9.68636 11.31606,-8.71684 0.35729,0.3573 -2.04266,2.79784 -5.33322,5.42344 -3.29056,2.6256 -5.98284,4.10764 -5.98284,3.2934 z m 0,-8.78156 c 0,-2.64744 8.17571,-11.73079 9.43149,-10.47857 0.58549,0.58384 -1.29709,3.58962 -4.18349,6.67952 -2.8864,3.0899 -5.248,4.79946 -5.248,3.79905 z m 0,-13.73832 c 0,-2.30177 6.44327,-7.79658 8.29544,-7.07433 0.86159,0.33597 -0.65241,2.42415 -3.36445,4.6404 -2.71205,2.21624 -4.93099,3.3115 -4.93099,2.43393 z m 0,-11.95623 c 0,-2.21276 6.64932,-8.35736 7.79935,-7.20734 0.4668,0.4668 -1.0971,2.67674 -3.47532,4.91095 -2.37821,2.23422 -4.32403,3.2676 -4.32403,2.29639 z m 1.73235,-13.56306 c 2.23775,-2.38197 4.84819,-4.33086 5.80098,-4.33086 0.95279,0 -0.0985,1.94889 -2.33629,4.33086 -2.23775,2.38198 -4.8482,4.33087 -5.80099,4.33087 -0.95279,0 0.0985,-1.94889 2.3363,-4.33087 z m -1.73235,-7.31495 c 0,-2.17973 4.95168,-6.50046 6.1157,-5.33644 0.45921,0.45921 -0.72896,2.25023 -2.64039,3.98005 -1.91142,1.72981 -3.47531,2.34019 -3.47531,1.35639 z m 0.95399,-14.80973 c 0.46489,-1.21148 2.46754,-3.21584 4.45034,-4.4541 3.5796,-2.23551 3.58242,-2.22032 0.39963,2.14824 -3.38623,4.64782 -6.27585,6.02166 -4.84997,2.30586 z m -2.68634,-7.56529 c 0,-2.22919 8.3596,-10.16741 9.50301,-9.02401 0.47021,0.47022 -1.4756,3.08774 -4.32404,5.8167 -2.84843,2.72899 -5.17897,4.17226 -5.17897,3.20731 z m 0,-11.88634 c 2.23775,-2.38198 4.3405,-4.33087 4.67278,-4.33087 0.33227,0 -0.67283,1.94889 -2.23356,4.33087 -1.56073,2.38197 -3.66348,4.33086 -4.67277,4.33086 -1.0093,0 -0.004,-1.94889 2.23355,-4.33086 z m 0.70158,-12.74053 c 1.81506,-2.04422 4.00484,-3.71677 4.86619,-3.71677 2.43869,0 -0.15412,3.23125 -4.36499,5.4398 -3.7749,1.9799 -3.77838,1.96793 -0.5012,-1.72303 z m -0.66306,-8.38412 c 0.0598,-2.16823 6.5505,-10.10962 7.49119,-9.16554 0.4605,0.46216 -1.04529,3.02754 -3.34622,5.70084 -2.30092,2.67331 -4.16615,4.23242 -4.14497,3.4647 z m -0.0385,-15.51686 c 0,-0.95279 1.94889,-3.56323 4.33086,-5.80099 2.38198,-2.23775 4.33087,-3.28908 4.33087,-2.33629 0,0.95279 -1.94889,3.56323 -4.33087,5.80099 -2.38197,2.23776 -4.33086,3.28908 -4.33086,2.33629 z m 1.73234,-15.32889 c 2.23775,-2.38198 4.8482,-4.33087 5.80099,-4.33087 0.95279,0 -0.0985,1.94889 -2.33629,4.33087 -2.23775,2.38197 -4.8482,4.33086 -5.80099,4.33086 -0.95279,0 0.0985,-1.94889 2.33629,-4.33086 z m -1.73234,-7.20487 c 0,-2.05743 8.33342,-10.15818 9.37671,-9.11489 0.40075,0.40076 -1.54507,3.00234 -4.32404,5.78132 -2.77897,2.77896 -5.05267,4.27907 -5.05267,3.33357 z m 0.93246,-13.13137 c 0.99771,-2.59998 7.75669,-7.20637 7.67483,-5.23055 -0.0299,0.72267 -1.96405,2.7034 -4.29803,4.40165 -2.67481,1.94624 -3.92315,2.25266 -3.3768,0.8289 z m 0.67708,-11.48272 c 1.14499,-2.13942 3.23375,-4.33191 4.6417,-4.87219 4.4848,-1.72097 3.84843,0.18021 -1.51862,4.53696 -5.12433,4.15971 -5.17265,4.16489 -3.12308,0.33523 z m 1.37394,-14.17554 c 2.11731,-2.22809 4.18474,-3.7046 4.59429,-3.28113 0.40954,0.42346 -1.3228,2.24644 -3.84966,4.05108 l -4.59429,3.28115 3.84966,-4.0511 z m -2.98348,-6.64283 c 0,-0.84321 2.14377,-2.90453 4.76395,-4.58069 l 4.76395,-3.04758 -4.19975,4.58069 c -4.54089,4.95276 -5.32815,5.40306 -5.32815,3.04758 z m 1.73234,-13.48755 c 0,-2.21276 6.64932,-8.35736 7.79935,-7.20734 0.4668,0.46679 -1.09709,2.67673 -3.47531,4.91094 -2.37822,2.23422 -4.32404,3.2676 -4.32404,2.2964 z m -1.73234,-12.36589 c 0,-1.69638 8.56141,-8.00719 9.44991,-6.96573 0.26817,0.31432 -1.74836,2.3848 -4.48117,4.60106 -2.73281,2.21624 -4.96874,3.28035 -4.96874,2.36467 z m 1.25113,-10.8124 c 2.11732,-2.22809 4.18475,-3.70461 4.59429,-3.28115 0.40955,0.42347 -1.3228,2.24645 -3.84966,4.05108 l -4.59428,3.28116 3.84965,-4.05109 z m -2.98348,-11.112 c 0,-0.44287 1.754,-1.73983 3.89778,-2.88214 3.53437,-1.88327 3.67611,-1.8082 1.52023,0.80523 -2.21364,2.68343 -5.41801,3.91178 -5.41801,2.07691 z m 1.03296,-10.26498 c 0.532,-1.38638 2.18791,-2.98908 3.6798,-3.56158 4.22072,-1.61964 4.0079,-0.39103 -0.51872,2.99455 -3.1088,2.32515 -3.88948,2.46519 -3.16108,0.56703 z m 3.55054,-13.1565 c 2.04453,-2.14493 4.6071,-3.60327 5.6946,-3.24077 1.0875,0.3625 -0.58529,2.11743 -3.71733,3.89986 l -5.6946,3.24077 3.71733,-3.89986 z m -1.98498,-7.8754 c 2.85837,-2.34298 5.84152,-4.26384 6.62921,-4.26857 0.7877,-0.005 -0.88395,1.94029 -3.71477,4.32226 -2.83081,2.38198 -5.81396,4.30283 -6.62921,4.26857 -0.81525,-0.0343 0.8564,-1.97928 3.71477,-4.32226 z m -1.72473,-7.754186 c 0.59304,-0.95956 3.56238,-2.97206 6.59853,-4.47222 l 5.52028,-2.72755 -5.19704,4.40992 c -5.30015,4.497406 -8.86515,5.934296 -6.92177,2.78985 z m 0.71608,-9.244758 c 2.47918,-3.087312 8.80421,-7.144012 8.80421,-5.646778 0,0.445038 -2.53356,2.585789 -5.63013,4.757222 -3.99465,2.801204 -4.91668,3.059604 -3.17408,0.889556 z m -0.72945,-9.789416 c 0.58568,-0.947666 2.77547,-2.620211 4.86619,-3.716765 3.7749,-1.97989 3.77838,-1.967925 0.5012,1.723032 -3.30621,3.723647 -7.36931,5.232897 -5.36739,1.993733 z m 0.87193,-10.403394 c 2.38197,-1.86321 5.5002,-3.402073 6.92938,-3.419697 1.42919,-0.01762 0.0461,1.524153 -3.07348,3.426172 -7.23322,4.410101 -9.49731,4.406298 -3.8559,-0.0064 z m -1.73235,-8.41201 c 0,-0.96038 2.33867,-3.411422 5.19704,-5.446763 2.85837,-2.035341 5.15391,-3.062868 5.10119,-2.283395 -0.14398,2.128759 -10.29823,9.750847 -10.29823,7.730158 z m -1.73235,-7.007415 c 0,-1.908793 8.33929,-8.062873 9.35368,-6.902654 0.32109,0.367261 -1.65212,2.481039 -4.38493,4.697285 -2.73281,2.216248 -4.96875,3.208663 -4.96875,2.205369 z m 0,-10.423948 c 0,-1.752995 6.7402,-6.127936 7.77426,-5.046134 0.30148,0.315393 -1.3244,1.974058 -3.61306,3.685923 -2.28866,1.711865 -4.1612,2.323958 -4.1612,1.360211 z m 0,-8.50981 c 0,-1.446605 10.34134,-7.888143 11.17182,-6.958836 0.29583,0.331031 -2.09681,2.319984 -5.31697,4.419897 -3.22017,2.09991 -5.85485,3.242435 -5.85485,2.538939 z m -2.60261,-7.146974 c 3.41108,-3.839816 12.78302,-9.529013 13.88388,-8.428152 0.31087,0.310868 -3.46446,3.210878 -8.38963,6.444466 -6.62037,4.346562 -8.05269,4.863698 -5.49425,1.983686 z m 42.44659,382.805441 c 0,-2.23176 -7.23026,-3.98982 -12.38331,-3.01101 -3.21933,0.61151 -2.91432,0.82332 1.45391,1.00976 3.04034,0.12975 6.00968,1.01546 6.59853,1.96825 1.37548,2.22557 4.33087,2.24809 4.33087,0.0329 z m 21.65715,-95.31662 c 3.32464,-5.37938 26.84855,-11.4467 26.84855,-6.92483 0,2.64403 3.68843,2.06685 7.22086,-1.12995 1.73953,-1.57426 5.67575,-2.79085 8.74715,-2.70352 6.34096,0.18028 9.69693,-2.02801 11.90401,-7.83307 1.99563,-5.2489 6.08968,-6.67516 12.36346,-4.30708 3.65058,1.37795 6.22989,1.3916 9.17753,0.0485 2.93383,-1.33675 6.20168,-1.33453 11.48989,0.007 5.55189,1.40923 8.01203,1.35991 9.89081,-0.19827 1.37545,-1.14073 5.68813,-2.07405 9.58371,-2.07405 7.03539,0 7.07953,-0.0407 6.58124,-6.06321 -0.51836,-6.26505 0.42232,-7.32722 11.73372,-13.24897 3.61895,-1.8946 4.94223,-1.80618 8.57317,0.57292 2.98523,1.95599 4.49665,2.20444 4.95969,0.81529 0.36631,-1.09804 2.57737,-1.99715 4.91347,-1.99715 6.29291,0 12.24329,-4.64253 13.40681,-10.46008 0.8146,-4.07299 1.93499,-5.13104 5.43338,-5.13104 3.81513,0 4.2637,-0.57167 3.33913,-4.25547 -0.89739,-3.57546 -0.31961,-4.44333 3.61569,-5.43103 4.33795,-1.08875 4.60489,-1.66853 3.61591,-7.8533 -1.72996,-10.81857 5.83918,-16.21317 16.86623,-12.02068 5.25881,1.99938 7.17049,0.44718 3.95772,-3.21352 -2.45985,-2.8028 -3.61719,-8.45346 -5.5985,-27.33434 -1.10567,-10.5366 -1.04174,-10.75777 3.43412,-11.88114 4.77977,-1.19965 5.52688,-2.44644 3.10793,-5.18656 -1.99916,-2.26461 -5.83043,-24.79069 -4.56475,-26.83861 0.56376,-0.91218 2.87537,-1.65851 5.13691,-1.65851 2.48795,0 4.51597,-1.27313 5.13504,-3.22364 0.56272,-1.77301 4.14017,-6.10764 7.94988,-9.63251 3.80971,-3.52488 6.46569,-7.15486 5.90219,-8.06663 -0.56351,-0.91178 2.15747,-5.27275 6.0466,-9.69105 8.28351,-9.41056 7.87688,-12.41045 -0.57219,-4.22129 -3.19944,3.10102 -6.89065,5.4543 -8.2027,5.22953 -1.31204,-0.22478 -4.58938,0.20766 -7.28297,0.96098 -2.8787,0.80509 -6.44908,0.61377 -8.66174,-0.46413 -5.4485,-2.65426 -32.34802,-4.50495 -32.34802,-2.22555 0,1.00012 -2.14378,2.33051 -4.76395,2.95644 -2.62018,0.62593 -5.76149,1.92472 -6.98068,2.88622 -1.50524,1.18706 -3.62222,1.10779 -6.59558,-0.24696 -2.40836,-1.09732 -6.19801,-1.53855 -8.42144,-0.9805 -4.52373,1.13538 -6.16956,-0.67252 -7.77985,-8.54594 -0.84481,-4.13066 -2.3066,-5.5708 -6.8494,-6.74796 -5.32815,-1.38066 -5.6926,-1.9104 -4.70644,-6.84115 1.50894,-7.544766 -1.03108,-9.775282 -9.98274,-8.766296 -7.52264,0.84791 -14.94613,-1.585847 -14.94613,-4.900027 0,-0.971541 1.61316,-5.307548 3.5848,-9.63557 3.49082,-7.662785 3.13555,-13.287916 -0.43612,-6.905684 -3.07133,5.488157 -16.68,18.429595 -19.37979,18.429595 -1.41528,0 -4.11066,1.954511 -5.98971,4.343356 -4.49189,5.7105 -12.67409,9.960376 -14.89692,7.737536 -0.92776,-0.92775 -4.79378,-1.686816 -8.59117,-1.686816 -4.67746,0 -8.18115,-1.19948 -10.86298,-3.71894 -3.42989,-3.22221 -5.75865,-3.6731 -17.43511,-3.37577 -9.44289,0.24045 -14.25425,1.13602 -16.07502,2.99216 -2.32783,2.37304 -1.51574,2.55579 7.79556,1.75423 5.71674,-0.49212 8.44519,-0.503 6.06321,-0.0242 -15.0732,3.03005 -17.32347,4.164116 -17.32347,8.730556 0,4.27622 0.34964,4.4453 7.27245,3.51676 4.73216,-0.63472 6.39622,-0.4211 4.76395,0.61155 -1.37967,0.87284 -4.26249,1.59892 -6.40627,1.61351 -3.17996,0.0216 -3.89778,0.99459 -3.89778,5.28324 l 0,5.2567 9.09482,-0.89879 9.09482,-0.89879 -9.5279,2.13838 c -7.5697,1.6989 -9.52791,2.83427 -9.52791,5.52428 0,2.91837 1.19597,3.37531 8.66173,3.3093 8.14652,-0.072 8.21904,-0.0357 1.21906,0.61008 -6.03255,0.55657 -7.75572,1.50999 -9.09483,5.03212 -0.90868,2.39 -1.65214,4.66957 -1.65214,5.06571 0,0.39614 3.7029,0.33833 8.22865,-0.12847 9.21908,-0.95089 8.20372,0.056 -1.73234,1.71782 -9.14037,1.52877 -8.0853,4.34867 1.73234,4.63015 4.52576,0.12975 6.27976,0.54288 3.89778,0.91806 -10.97944,1.72936 -11.93899,2.25102 -11.1999,6.08884 0.39856,2.06956 1.71737,4.39283 2.93067,5.16286 1.60788,1.02043 1.38402,1.40725 -0.82559,1.42658 -2.32202,0.0203 -3.03161,1.48908 -3.03161,6.27508 0,4.58379 0.6333,6.00553 2.37705,5.33639 1.30736,-0.50169 6.17959,-1.35468 10.82716,-1.89555 7.97786,-0.92845 7.84502,-0.83272 -2.37704,1.71272 -9.88619,2.46182 -10.83285,3.09976 -10.8926,7.34035 -0.036,2.55431 -0.49131,7.58207 -1.01184,11.17277 l -0.94642,6.52856 10.10667,-0.81984 10.10667,-0.81981 -9.961,1.85039 c -8.88839,1.65113 -9.96099,2.304 -9.96099,6.06311 0,3.87326 0.52343,4.14013 6.4963,3.31188 l 6.4963,-0.90082 -6.4963,1.86059 c -5.21894,1.49474 -6.4963,2.69006 -6.4963,6.07903 0,4.04518 0.37353,4.18249 9.09482,3.34298 8.95965,-0.86245 8.98501,-0.85173 1.70574,0.72072 -10.02811,2.16625 -10.80056,2.84036 -10.80056,9.42534 0,5.23958 0.40067,5.66742 4.76395,5.08683 l 4.76396,-0.6339 -4.76396,1.88467 c -2.62017,1.03656 -4.76395,2.98904 -4.76395,4.33881 0,1.46519 1.91978,2.54924 4.76395,2.69008 4.68209,0.23186 4.68952,0.24975 0.43309,1.04083 -4.64879,0.86399 -6.859,3.22778 -6.90522,7.38499 -0.0227,2.04511 2.09302,2.53673 9.93447,2.30839 9.45129,-0.2752 8.90322,-0.005 -4.32851,2.1351 -4.73851,0.76635 -5.6307,1.65255 -5.63377,5.596 -0.003,4.65119 0.0819,4.6839 11.69335,4.47181 6.43334,-0.11746 8.18897,0.088 3.90141,0.45685 -13.58517,1.16847 -15.59112,2.03296 -15.59112,6.71918 0,3.49183 0.89346,4.33025 4.76395,4.47055 l 4.76396,0.17272 -4.33087,1.19509 c -2.88915,0.79724 -4.50043,2.61399 -4.84023,5.45745 -0.49642,4.15402 -0.23224,4.25571 10.39409,4.00101 5.99689,-0.14379 8.56477,0.062 5.7064,0.45744 -15.97817,2.20987 -16.4573,2.40916 -16.4573,6.84479 0,4.64302 -0.41062,4.63119 16.19907,0.46708 3.66915,-0.91986 7.01916,-1.32448 7.4445,-0.89916 0.42533,0.42535 -4.64679,2.1016 -11.27139,3.72503 -9.10224,2.23062 -12.2636,3.78878 -12.94074,6.37817 -0.78601,3.00575 -0.2212,3.31454 4.60022,2.51499 l 5.49625,-0.91147 -5.63013,1.92001 c -4.21492,1.43738 -5.63013,2.94563 -5.63013,6.00026 0,4.12778 4.00663,5.67556 6.06604,2.34336 z m 22.95077,-53.11313 c 1.19099,-0.48057 3.13988,-0.48057 4.33087,0 1.19099,0.48057 0.21654,0.87377 -2.16543,0.87377 -2.38198,0 -3.35643,-0.3932 -2.16544,-0.87377 z m -18.62272,-76.8083 c 2.38197,-0.76284 6.66953,-1.37245 9.5279,-1.35471 l 5.19704,0.0322 -5.19704,1.32242 c -2.85837,0.72732 -7.14593,1.33695 -9.5279,1.35471 l -4.33087,0.0322 4.33087,-1.38686 z m 3.13988,-27.16858 c 1.25052,-0.50043 2.74467,-0.4389 3.32033,0.13668 0.57564,0.57566 -0.44753,0.98508 -2.2737,0.90986 -2.0181,-0.0831 -2.42858,-0.49361 -1.04663,-1.04661 z M 28.827742,190.90222 c 7.801162,-1.80072 10.390551,-1.52755 25.113919,2.64947 11.479003,3.25659 19.46233,4.49795 26.54555,4.12768 9.208429,-0.48135 10.187192,-0.91099 10.762861,-4.72442 0.34829,-2.30719 1.440748,-5.16787 2.427683,-6.35705 1.323303,-1.59449 -0.846178,-1.46427 -8.26312,0.49595 -11.291187,2.98414 -37.68959,2.09444 -44.362002,-1.49512 -6.251247,-3.363 -25.654005,-2.82847 -31.3037247,0.86238 -6.101262,3.98583 -5.1371938,5.19941 1.9925607,2.50823 6.673976,-2.51914 9.399396,-0.43155 4.615081,3.53504 -1.932523,1.60223 -4.649322,4.43881 -6.037331,6.30353 -1.8115106,2.43368 -0.7833767,2.07987 3.643451,-1.25377 3.391905,-2.55429 10.081189,-5.54767 14.865072,-6.65192 z m 69.095688,-2.9457 c -0.533367,-0.53337 -1.93121,-0.001 -3.106319,1.18281 -1.698162,1.7109 -1.499178,1.90988 0.969759,0.96977 1.708476,-0.65055 2.669929,-1.61921 2.13656,-2.15258 z M 415.13834,90.517901 c -0.50591,-2.529526 -0.0946,-5.424455 0.9142,-6.433175 1.00872,-1.008721 1.28143,-2.728167 0.60604,-3.820993 -0.85036,-1.375899 -1.92876,-1.02863 -3.50662,1.129212 -1.25321,1.713892 -1.91277,3.708062 -1.46567,4.431492 0.44711,0.72343 -0.40157,3.049263 -1.88597,5.168517 -4.2875,6.12127 -3.57125,8.60252 1.77949,6.16456 3.62414,-1.65127 4.3029,-2.91773 3.55853,-6.639613 z M 194.02282,88.012015 c 0,-1.429186 -0.30638,-2.59852 -0.68083,-2.59852 -0.37446,0 -1.12954,1.169334 -1.67799,2.59852 -0.54842,1.429186 -0.24204,2.59852 0.68083,2.59852 0.92289,0 1.67799,-1.169334 1.67799,-2.59852 z m -5.19704,-0.866174 c 0,-0.95279 -0.77956,-1.732346 -1.73235,-1.732346 -0.95279,0 -1.73234,0.779556 -1.73234,1.732346 0,0.952791 0.77955,1.732347 1.73234,1.732347 0.95279,0 1.73235,-0.779556 1.73235,-1.732347 z"
     id="path6548"
     inkscape:connector-curvature="0" />
  <path
     style="fill:#d9cb00;fill-opacity:0.11386138;stroke:none"
     d="m 96.130564,26.33754 6.077886,33.428417 -2.02596,148.908413 1.01298,192.46663 4.05193,23.2986 10.12982,14.18176 24.31158,3.03893 26.33755,-14.18175 17.22068,-3.03894 98.25929,5.06492 145.86946,4.05192 63.81788,-1.01299 -10.12983,-25.32455 0,-93.19437 8.10386,-63.81788 4.05193,-31.40246 -6.07789,-89.14246 -7.09087,-98.259278 -2.02596,-6.077894 -42.54526,5.064912 -63.8179,5.064911 -69.89578,-6.077894 -108.3891,-8.103859 -27.35051,8.103859 0,-20.2596463 L 139.6888,0 z"
     id="path7082"
     inkscape:connector-curvature="0" />
  <path
     style="fill:#ba00d9;fill-opacity:0.37128715;stroke:none"
     d="m 169.54452,89.229345 17.2207,0.506491 18.74016,2.532458 6.07791,5.5714 19.24666,1.51947 16.20772,-12.662276 5.06491,-1.519472 17.2207,-20.259648 3.54544,4.051929 -7.09088,17.727191 3.54544,4.051929 19.24667,-0.506489 3.03893,10.129822 0,6.58438 11.6493,4.05193 0,9.11684 13.67527,2.53246 4.55841,0.50649 16.20773,-7.59737 10.63631,0 19.24667,4.05193 13.67525,0 17.7272,-12.66228 -0.5065,7.59737 -10.12983,13.67526 -14.68823,17.2207 -4.05193,6.07789 -6.0779,1.01299 1.01299,15.19472 5.06491,14.18177 -8.61035,4.55841 -0.50649,14.18175 6.58438,22.79211 1.01299,6.0779 -4.05193,0 -10.12983,-4.55843 -7.59736,5.06492 0,14.68823 -7.09087,4.05195 0,8.10384 -9.11686,1.51948 -3.03893,8.61035 -9.62334,5.5714 -10.12983,3.03895 -7.59736,-3.03895 -13.16876,6.58439 -1.01299,11.1428 -1.01299,3.54544 -12.15578,-2.02596 -8.10386,4.55842 -10.63631,-3.03895 -9.11684,2.02596 -13.16878,-2.02596 -7.59736,9.62333 -9.62334,5.06491 -9.11684,1.01299 -6.58439,4.55841 -3.54544,-4.05193 -8.61033,0 -22.79212,13.16878 0,-83.06456 5.06491,-147.895406 z"
     id="path7086"
     inkscape:connector-curvature="0" />
  <path
     style="fill:#ba00d9;fill-opacity:0.37128715;stroke:none"
     d="m 356.43975,326.26721 6.58439,-8.10386 2.02596,-12.66228 -0.50648,-14.68825 7.59736,3.54543 11.6493,7.59738 4.05193,5.5714 -8.61035,4.05193 -9.11684,10.12982 -7.59736,8.10387 z"
     id="path7088"
     inkscape:connector-curvature="0" />
  <path
     style="fill:#ba00d9;fill-opacity:0.37128715;stroke:none"
     d="m 342.258,331.33213 4.55843,-1.01299 1.01297,6.07788 -5.5714,0.50651 z"
     id="path7090"
     inkscape:connector-curvature="0" />
  <path
     style="fill:#ba00d9;fill-opacity:0.37128715;stroke:none"
     d="m 398.47852,299.42317 3.03895,5.06491 8.10387,-4.55841 -2.53247,-26.84404 c -5.84892,-0.1573 -6.53878,15.16271 -8.61035,26.33754 z"
     id="path7092"
     inkscape:connector-curvature="0"
     sodipodi:nodetypes="ccccc" />
  <path
     style="fill:#ba00d9;fill-opacity:0.37128715;stroke:none"
     d="m 378.72537,248.77407 -1.01299,8.61033 c 5.23281,5.40328 21.81873,4.31767 31.90894,6.0779 l -2.53245,-8.61035 z"
     id="path7094"
     inkscape:connector-curvature="0"
     sodipodi:nodetypes="ccccc" />
  <path
     style="fill:#ba00d9;fill-opacity:0.37128715;stroke:none"
     d="m 405.06291,96.826714 6.58439,-11.142807 0,-6.584386 4.55841,0 1.01299,4.558421 0,5.064912 -0.50649,9.62333 -10.12982,1.01298 z"
     id="path7096"
     inkscape:connector-curvature="0" />
  <path
     style="fill:#00add9;fill-opacity:0.37128715;stroke:none"
     d="m 161.43916,428.25446 7.16287,-315.88242 -1.43258,-84.521822 30.80033,-5.730294 155.43421,11.460587 40.11205,0.716287 85.95441,-5.730294 4.29771,39.395766 9.31173,121.05244 -1.43257,38.67949 -10.02801,56.58665 -0.71629,116.75472 8.59543,31.51661 -99.56385,-0.71629 -126.78273,-4.29771 -83.80554,-1.43258 z"
     id="path7098"
     inkscape:connector-curvature="0" />
</svg>
