<?xml version="1.0" encoding="UTF-8" standalone="no"?>
<!-- Created with Inkscape (http://www.inkscape.org/) -->

<svg
   xmlns:dc="http://purl.org/dc/elements/1.1/"
   xmlns:cc="http://creativecommons.org/ns#"
   xmlns:rdf="http://www.w3.org/1999/02/22-rdf-syntax-ns#"
   xmlns:svg="http://www.w3.org/2000/svg"
   xmlns="http://www.w3.org/2000/svg"
   xmlns:sodipodi="http://sodipodi.sourceforge.net/DTD/sodipodi-0.dtd"
   xmlns:inkscape="http://www.inkscape.org/namespaces/inkscape"
   id="svg11335"
   version="1.1"
   inkscape:version="0.48.4 r9939"
   width="164"
   height="389"
   sodipodi:docname="Motif.png">
  <metadata
     id="metadata11341">
    <rdf:RDF>
      <cc:Work
         rdf:about="">
        <dc:format>image/svg+xml</dc:format>
        <dc:type
           rdf:resource="http://purl.org/dc/dcmitype/StillImage" />
        <dc:title></dc:title>
      </cc:Work>
    </rdf:RDF>
  </metadata>
  <defs
     id="defs11339" />
  <sodipodi:namedview
     pagecolor="#ffffff"
     bordercolor="#666666"
     borderopacity="1"
     objecttolerance="10"
     gridtolerance="10"
     guidetolerance="10"
     inkscape:pageopacity="0"
     inkscape:pageshadow="2"
     inkscape:window-width="1244"
     inkscape:window-height="746"
     id="namedview11337"
     showgrid="false"
     inkscape:zoom="1.2133676"
     inkscape:cx="285.62425"
     inkscape:cy="169.01817"
     inkscape:window-x="3"
     inkscape:window-y="22"
     inkscape:window-maximized="0"
     inkscape:current-layer="svg11335" />
  <path
     style="fill:#ece79d;fill-opacity:1;stroke:none"
     d="m 82.169703,23.315683 c -1.460897,-10.70981 3.772684,-10.708454 7.867312,-12.529423 8.512564,2.52403 5.860299,7.52605 5.827639,11.946659 9.001526,4.558084 12.755716,11.215103 16.026006,18.065679 2.42818,-1.068399 5.05062,-0.777019 7.86731,0.874146 -4.38069,15.663234 -10.50834,30.161824 -12.8208,47.203872 8.08796,2.233928 1.60285,4.467856 0.58276,6.701784 l -0.58276,4.66211 c 8.88984,4.8538 17.12925,9.74013 3.2052,15.73463 9.76575,4.70687 23.76358,9.00228 6.70178,16.31738 -9.61069,7.72181 -14.86448,29.96663 -15.15186,68.76614 3.01523,43.74777 10.04704,70.34018 27.3899,87.41458 -1.92238,12.86766 6.55711,21.27738 12.23804,30.88648 -1.03775,8.598 6.36301,14.17832 -7.57593,27.3899 l 8.45008,11.07251 C 127.38862,368.0246 105.67495,373.6218 71.09719,370.64294 23.296254,368.49372 19.310759,358.70105 9.9069855,354.03417 l 7.5759305,-9.03284 c -2.280138,-6.29247 -4.573166,-12.57553 -1.165528,-23.01917 5.360668,-6.19282 10.357629,-12.84027 17.191534,-17.19154 0.26424,-5.14775 0.75701,-10.29549 0.291381,-15.44324 17.615962,-15.37732 26.241773,-48.28426 30.595103,-81.00417 -1.327488,-26.15603 15.009034,-57.18008 -6.410403,-77.79898 -18.383574,-7.94808 0.570702,-9.77521 3.205201,-14.27771 -1.466859,-5.16402 -5.646262,-10.77871 4.662111,-13.98634 l 2.622438,-6.70178 c -3.690837,-3.205201 -3.690838,-6.021893 0,-8.450075 -0.361914,-14.471969 -4.804467,-28.943939 -9.761295,-43.415908 2.677415,-4.578728 5.847123,-2.757652 8.887149,-2.622437 1.462455,-6.978048 2.186518,-14.185253 14.569096,-17.774297 z"
     id="path11347"
     inkscape:connector-curvature="0"
     sodipodi:nodetypes="cccccccccccccccccccccccccccccc" />
  <path
     style="fill:#000000"
     d="m 52.203388,370.70125 c -13.76481,-2.72057 -19.19728,-4.21443 -28.39302,-7.80775 -9.16377,-3.58082 -15.1069799,-7.04736 -15.1069799,-8.81156 0,-0.49151 1.5780999,-2.81951 3.5068899,-5.17334 l 3.50688,-4.27969 -1.62173,-3.88136 c -4.4212799,-10.58162 2.3669,-25.32962 15.95342,-34.66042 3.19104,-2.1915 4.28194,-7.30436 2.62786,-12.31626 l -1.2248,-3.7112 5.95487,-5.60398 c 4.86787,-4.58104 6.61631,-7.16711 9.57836,-14.16714 13.76054,-32.51933 24.28298,-105.66603 18.21465,-126.61909 -1.95823,-6.76148 -8.20486,-13.60945 -13.35372,-14.63922 -2.65739,-0.53148 -3.14268,-1.07675 -3.14268,-3.5311 0,-3.23611 0.56505,-3.81925 7,-7.22415 2.475,-1.30958 4.66607,-2.48163 4.86905,-2.60456 0.20298,-0.12292 -0.35952,-0.95206 -1.25,-1.84254 -1.92783,-1.92783 -2.11532,-6.41525 -0.36789,-8.805 0.68814,-0.94109 2.58813,-2.06863 4.2222,-2.50564 3.89692,-1.0422 5.26012,-6.093048 2.32319,-8.607726 -1.87695,-1.607098 -1.87239,-1.69904 0.2548,-5.140906 2.04676,-3.31174 2.1022,-3.956009 1.00764,-11.710733 -1.56153,-11.063072 -3.54012,-18.699992 -6.54927,-25.278654 -2.84077,-6.21056 -2.89131,-6.427537 -1.49711,-6.427537 2.76942,0 8.08556,17.148756 10.11886,32.641329 l 1.19974,9.141328 3.70042,1.108672 c 3.90544,1.170098 27.061012,1.366928 30.468372,0.258991 1.35079,-0.439224 2.0536,-1.624129 2.16513,-3.65032 0.27698,-5.032093 5.28603,-24.550887 8.34038,-32.5 3.66967,-9.550517 3.78479,-10.144652 2.08514,-10.76145 -1.0074,-0.365582 -1.21638,-0.0086 -0.73275,1.251748 0.71408,1.860854 -0.86027,4.509702 -2.68034,4.509702 -0.70205,0 -0.65938,-0.418176 0.12244,-1.2 0.66,-0.66 1.2,-1.785 1.2,-2.5 0,-1.830138 -3.53856,-1.618586 -5.48507,0.327922 -1.50389,1.503897 -1.77895,1.465804 -3.61038,-0.5 -2.473,-2.654454 -6.298662,-2.733812 -8.848912,-0.183558 -1.7364,1.736394 -3.21142,1.944117 -8.30564,1.169656 -0.4125,-0.06271 -0.75,-0.612165 -0.75,-1.221009 0,-0.608844 0.69837,-0.838998 1.55194,-0.511454 0.88992,0.341496 1.29132,0.173849 0.94098,-0.393011 -1.02314,-1.65548 -5.41351,-1.104145 -7.12502,0.894746 -1.50943,1.76289 -1.79165,1.780485 -4.41444,0.27521 -2.59937,-1.49183 -3.17416,-1.474229 -7.95093,0.243474 -4.13119,1.485556 -5.38161,1.601934 -6.32576,0.588745 -0.9303,-0.998321 -0.70552,-1.149201 1.07323,-0.720384 1.2375,0.298333 2.25,0.143126 2.25,-0.344905 0,-1.90086 -5.06072,-2.180457 -7.04029,-0.388966 -1.56907,1.419989 -1.95971,1.483481 -1.95971,0.318522 0,-3.642961 5.80403,-5.181207 9.46071,-2.507379 1.54685,1.131085 2.28268,1.128252 4.57965,-0.01763 2.05758,-1.026455 3.42514,-1.103493 5.51101,-0.310449 1.91581,0.72839 3.09526,0.733846 3.81147,0.01763 1.49703,-1.497026 7.92971,-1.274944 10.15265,0.350508 1.62714,1.189793 2.22375,1.174071 4.18387,-0.110253 2.25306,-1.476261 6.920862,-1.397869 10.550642,0.17719 1.39952,0.607289 1.75,0.264269 1.75,-1.712759 0,-4.167209 -6.89951,-11.728292 -12.684112,-13.900366 -3.09219,-1.161089 -3.14281,-1.275494 -1.75339,-3.962344 3.01149,-5.823584 -2.66701,-11.00609 -8.4932,-7.751356 -3.36396,1.879235 -3.9819,6.285343 -1.13117,8.06565 2.41605,1.508852 2.77757,3.295187 0.48916,2.41704 -0.86499,-0.331929 -3.78665,0.348903 -6.49257,1.51296 -5.04427,2.169983 -8.06508,5.774287 -9.32531,11.126569 -0.35613,1.5125 -1.08894,2.75 -1.62846,2.75 -1.3718,0 -1.22679,-1.475859 0.56678,-5.768471 2.02192,-4.839147 4.67902,-7.579092 9.42561,-9.719507 3.56683,-1.608416 3.82278,-1.993547 3.33254,-5.014549 -0.8738,-5.384618 5.04696,-9.6296671 11.25705,-8.071035 3.12261,0.783725 5.62096,5.95969 4.41178,9.140093 -0.69332,1.823547 -0.22532,2.486365 3.05875,4.332116 4.823022,2.710691 10.553672,9.287008 11.286732,12.952306 0.49335,2.466761 0.91295,2.720227 3.92173,2.36897 2.27378,-0.265451 3.8104,0.138194 4.72602,1.241446 1.16339,1.401803 0.91157,2.732448 -1.76697,9.33671 -1.71805,4.236058 -4.25212,12.651922 -5.63126,18.701922 -1.37913,6.05 -2.92412,12.6875 -3.4333,14.75 -0.70883,2.871184 -0.62401,3.75 0.36191,3.75 2.95831,0 3.36392,6.468174 0.50168,8 -2.99313,1.601876 -2.48176,4.55781 1.04093,6.016946 8.29978,3.43789 10.1638,8.11264 4.88284,12.24561 l -3.07622,2.40751 4.56547,1.74357 c 4.78549,1.8276 8.58698,5.63808 8.58698,8.60729 0,1.01292 -1.45191,2.44017 -3.44394,3.38545 -3.96362,1.88086 -8.27047,6.77617 -11.83035,13.44676 -2.6605,4.98531 -6.20496,24.74312 -7.0876,39.50818 -1.3763,23.0235 5.8951,70.92706 13.18137,86.83806 1.58692,3.46535 4.97673,8.52516 7.53291,11.24404 4.48836,4.77403 5.53338,6.55659 3.84378,6.55659 -0.99211,0 -5.99304,-5.28661 -9.51522,-10.05878 -7.56142,-10.24487 -14.38216,-40.4592 -16.765,-74.26506 -1.14553,-16.25189 -0.34787,-28.49662 3.06726,-47.08478 2.03346,-11.0679 2.57943,-12.54858 7.03947,-19.09138 l 2.72669,-4 -22.366632,-0.13525 c -12.30165,-0.0744 -24.50776,-0.45368 -27.12469,-0.84287 l -4.75805,-0.70761 2.13303,2.34286 c 1.17316,1.28858 2.84833,3.75918 3.7226,5.49022 1.70346,3.37286 3.55548,18.27329 3.08901,24.85265 -0.15597,2.2 -0.56711,8.725 -0.91364,14.5 -1.38322,23.05212 -5.68003,48.36236 -12.07344,71.11835 -5.32424,18.95049 -10.16617,29.96074 -15.63247,35.54733 l -4.07599,4.16567 4.20443,2.14494 c 2.31244,1.17972 7.65639,2.77437 11.87545,3.54367 4.21906,0.76931 9.47102,1.92603 11.67102,2.57051 2.31782,0.67899 11.35954,1.21112 21.5,1.26534 l 17.500002,0.0936 10.5,-3.72279 c 5.775,-2.04754 11.71928,-4.62365 13.20951,-5.72469 1.49023,-1.10105 2.89631,-2.0019 3.12462,-2.0019 0.22831,0 0.39445,2.8125 0.3692,6.25 -0.0507,6.90388 0.87711,9.19644 7.83501,19.3595 5.15582,7.53085 6.13642,11.66037 4.65741,19.61338 -1.08095,5.81244 -4.50263,12.77709 -6.27731,12.77709 -1.77058,0 -0.88748,2.20119 2.58156,6.4347 1.925,2.3492 3.5,4.82781 3.5,5.508 0,3.06697 -11.95111,9.6852 -21.5,11.90618 -13.69468,3.18525 -55.839262,4.10185 -69.000002,1.50067 z m 63.000002,-2.92299 c 6.06186,-1.01231 11.70884,-2.78875 17.29762,-5.44153 9.18531,-4.35992 9.13059,-4.18899 3.47943,-10.86794 l -2.86233,-3.38291 -3.28799,1.70028 c -5.29467,2.73799 -14.42642,5.3617 -22.63477,6.50338 -9.868622,1.37259 -35.141492,1.36533 -45.169602,-0.013 -9.79805,-1.34669 -34.53374,-7.34785 -39.70578,-9.63308 l -3.88343,-1.71585 -3.3517,3.96204 c -1.84343,2.17912 -3.35839,4.2689 -3.36657,4.64395 -0.0344,1.57583 6.15162,4.77099 15.98512,8.25654 10.69061,3.78936 20.94696,6.1125 33.5,7.58802 9.94888,1.16942 43.341172,0.18007 54.000002,-1.59991 z M 18.062058,354.84398 c -0.31822,-0.82925 0.22397,-2.73255 1.20486,-4.22957 1.09651,-1.6735 1.9456,-2.23532 2.20449,-1.45866 0.23158,0.69476 -0.12658,1.92306 -0.79592,2.72957 -0.95725,1.15342 -0.9513,1.78652 0.0279,2.96638 1.02122,1.2305 0.94775,1.5 -0.40894,1.5 -0.90961,0 -1.91419,-0.67847 -2.2324,-1.50772 z m 87.230882,-0.47559 c 8.19136,-1.06478 26.41045,-6.64451 26.41045,-8.08839 0,-0.53779 1.06919,-1.38431 2.37599,-1.88115 3.65545,-1.3898 6.96942,-9.20455 7.05361,-16.63329 0.0676,-5.96099 -0.16062,-6.55103 -5.63155,-14.56328 -6.53569,-9.57158 -7.79805,-12.45836 -7.79805,-17.8326 l 0,-3.85182 -3.75,1.85725 c -7.22275,3.57718 -14.6657,6.02295 -21.60606,7.09979 -17.699082,2.7461 -48.631722,-0.85539 -63.643942,-7.41008 l -3.5,-1.52818 -0.0208,6.51076 c -0.0197,6.17559 -0.19269,6.64701 -3.36004,9.15753 -8.7912,6.96812 -12.70647,11.70513 -14.56908,17.62686 -1.79046,5.69233 -2.18182,10.95413 -1.07428,14.44367 0.28972,0.91285 2.88869,2.83837 5.77549,4.27894 6.37215,3.17984 31.42369,9.61557 41.74871,10.72522 10.55441,1.13432 33.17474,1.1826 41.589542,0.0888 z M 20.595108,334.38461 c -1.00928,-3.36866 -0.91331,-4.68858 0.63618,-8.75 1.81149,-4.74816 6.33017,-10.28291 8.39518,-10.28291 1.82254,0 1.19073,1.8291 -0.85622,2.47878 -2.14515,0.68084 -5.9619,7.775 -6.2285,11.57685 -0.0943,1.34441 0.16428,3.90687 0.57457,5.69437 1.08728,4.73694 -1.07107,4.12306 -2.52121,-0.71709 z m 15.18519,-24.03291 c 0.007,-0.825 0.63145,-2.85 1.38698,-4.5 1.36961,-2.99113 1.37391,-2.99244 1.45489,-0.44113 0.0447,1.40738 -0.57947,3.43238 -1.38698,4.5 -1.10492,1.46084 -1.4649,1.56999 -1.45489,0.44113 z M 118.45339,129.155 c 5.74774,-1.22917 6.77108,-3.11677 3.36221,-6.20175 -2.80701,-2.54031 -11.58591,-5.60155 -16.06392,-5.60155 -2.16164,0 -4.20837,-0.45 -4.54829,-1 -0.37363,-0.60454 1.0029,-1 3.48082,-1 5.78726,0 12.23958,-3.43687 11.83188,-6.30231 -0.40443,-2.84242 -7.90155,-6.6977 -13.02459,-6.6977 -3.999512,0 -5.390412,-1.91567 -1.53811,-2.11842 1.2375,-0.0651 2.5875,-0.0651 3,0 0.4125,0.0651 0.7485,-0.669076 0.74667,-1.631576 -0.003,-1.602871 -1.55841,-1.7514 -18.499992,-1.766649 -17.42012,-0.01568 -18.49668,0.0924 -18.49668,1.856989 0,1.326106 0.47951,1.689626 1.64088,1.24397 2.05142,-0.7872 5.35912,0.200146 5.35912,1.599706 0,0.57708 -0.91557,0.80982 -2.03459,0.51718 -1.11903,-0.29263 -4.50174,0.16979 -7.51715,1.0276 -4.2638,1.21294 -5.61386,2.08283 -6.07325,3.91319 -1.32543,5.28094 2.03145,6.92337 16.88986,8.26375 12.94206,1.16751 12.03671,2.44898 -1.28772,1.8227 -11.41073,-0.53633 -11.58588,-0.5107 -18,2.63375 -8.26606,4.05234 -8.66212,6.29073 -1.47715,8.34848 10.02929,2.87236 50.598152,3.58444 62.250002,1.09264 z m -60.750002,-5.56275 c 0,-0.9677 0.9,-2.32152 2,-3.00848 2.18964,-1.36745 2.71186,-0.34393 0.8,1.56793 -0.93333,0.93333 -0.93333,1.2 0,1.2 0.66,0 1.2,0.45 1.2,1 0,0.55 -0.9,1 -2,1 -1.24219,0 -2,-0.66667 -2,-1.75945 z m 5.38,-13.69266 c -0.58139,-1.51508 0.23738,-3.5479 1.42902,-3.5479 0.38004,0 0.69098,1.125 0.69098,2.50001 0,2.73754 -1.23699,3.34896 -2.12,1.04789 z M 107.45339,93.759144 c 1.27071,-0.361848 2.25,-1.430051 2.25,-2.454276 0,-1.580743 -0.41722,-1.687557 -3.25,-0.832033 -4.33391,1.308881 -28.820042,1.20636 -33.826072,-0.141626 -3.87638,-1.043799 -5.92393,-0.707659 -5.92393,0.972513 0,2.565288 10.96578,4.011571 26.5,3.495101 6.6,-0.219432 13.012502,-0.687288 14.250002,-1.039679 z M 46.724078,288.38565 c -1.24146,-0.78503 -0.71891,-2.44686 3.25,-10.33571 2.60112,-5.17015 4.72931,-10.11576 4.72931,-10.99024 0,-0.87448 0.45,-1.86808 1,-2.208 2.28225,-1.41051 0.73117,4.64446 -3.21563,12.5529 -2.3186,4.6459 -4.3811,8.7846 -4.58333,9.1971 -0.20224,0.4125 0.34479,0.75 1.21563,0.75 0.87083,0 1.58333,0.45 1.58333,1 0,1.25075 -2.02768,1.26804 -3.97931,0.034 z m 23.97931,-142.58361 c 0,-1.95231 -0.69339,-4.89053 -1.54087,-6.52937 -1.78837,-3.45833 -1.23045,-4.93331 1.84989,-4.89056 1.96901,0.0273 2.01369,0.13367 0.44099,1.04968 -1.59677,0.93004 -1.61866,1.27324 -0.25,3.91993 1.69044,3.26894 2.02698,9.99998 0.49999,9.99998 -0.55,0 -1,-1.59735 -1,-3.54966 z m 1.66667,-60.117013 c -0.36667,-0.366666 -0.60539,-2.054166 -0.53049,-3.75 0.11224,-2.541237 0.21505,-2.667395 0.58473,-0.717558 0.24669,1.301176 1.30535,2.589837 2.35257,2.86369 1.04721,0.273853 1.65753,0.896755 1.35626,1.384225 -0.64507,1.043743 -2.81247,1.17025 -3.76307,0.219643 z m 4.08333,-40.090726 c -0.9625,-0.214091 -1.75,-0.806259 -1.75,-1.315931 0,-1.171428 1.08434,-1.158923 2.97104,0.03426 1.79636,1.136052 1.15428,1.810013 -1.22104,1.281667 z m 25.250002,-1.242607 c -0.79314,-0.49019 -1.11011,-1.223222 -0.70437,-1.62896 0.40574,-0.405739 1.2627,-0.212707 1.90437,0.42896 1.51091,1.510913 0.66759,2.354235 -1.2,1.2 z m -28.977762,-8.35 c -0.0272,-2.258413 6.16328,-8.65 8.37776,-8.65 2.60441,0 1.82847,1.662725 -1.4,3 -1.65,0.683452 -3.01,1.525547 -3.02223,1.87132 -0.0122,0.345774 -0.90223,1.75368 -1.97777,3.12868 -1.67476,2.141058 -1.95872,2.234383 -1.97776,0.65 z m 15.22776,-15.312281 c -1.40812,-0.56819 -1.73573,-5.337718 -0.36663,-5.337718 0.48585,0 1.16114,0.7875 1.50064,1.75 0.3395,0.9625 0.87949,2.312499 1.19997,2.999999 0.59903,1.285049 -0.14285,1.47186 -2.33398,0.587719 z"
     id="path11345"
     inkscape:connector-curvature="0" />
</svg>
