<?xml version="1.0" encoding="UTF-8" standalone="no"?>
<!-- Created with Inkscape (http://www.inkscape.org/) -->

<svg
   xmlns:dc="http://purl.org/dc/elements/1.1/"
   xmlns:cc="http://creativecommons.org/ns#"
   xmlns:rdf="http://www.w3.org/1999/02/22-rdf-syntax-ns#"
   xmlns:svg="http://www.w3.org/2000/svg"
   xmlns="http://www.w3.org/2000/svg"
   xmlns:sodipodi="http://sodipodi.sourceforge.net/DTD/sodipodi-0.dtd"
   xmlns:inkscape="http://www.inkscape.org/namespaces/inkscape"
   id="svg24079"
   version="1.1"
   inkscape:version="0.48.4 r9939"
   width="371"
   height="246"
   sodipodi:docname="Nunchucks.png">
  <metadata
     id="metadata24085">
    <rdf:RDF>
      <cc:Work
         rdf:about="">
        <dc:format>image/svg+xml</dc:format>
        <dc:type
           rdf:resource="http://purl.org/dc/dcmitype/StillImage" />
        <dc:title></dc:title>
      </cc:Work>
    </rdf:RDF>
  </metadata>
  <defs
     id="defs24083" />
  <sodipodi:namedview
     pagecolor="#ffffff"
     bordercolor="#666666"
     borderopacity="1"
     objecttolerance="10"
     gridtolerance="10"
     guidetolerance="10"
     inkscape:pageopacity="0"
     inkscape:pageshadow="2"
     inkscape:window-width="1226"
     inkscape:window-height="713"
     id="namedview24081"
     showgrid="false"
     inkscape:zoom="0.90296496"
     inkscape:cx="176.32408"
     inkscape:cy="16.250705"
     inkscape:window-x="1"
     inkscape:window-y="22"
     inkscape:window-maximized="0"
     inkscape:current-layer="svg24079" />
  <path
     style="fill:#73150b;fill-opacity:1;stroke:none"
     d="m 178.55868,197.20446 c 7.90693,12.31291 6.21053,27.82282 0.85028,42.15076 48.33744,-0.8676 94.49412,-5.80322 139.27748,-11.20506 17.18778,-2.07322 34.28873,-1.06285 43.45386,-7.06807 0.56569,-12.33257 9.45802,-19.11405 -7.19851,-42.92809 -58.79437,4.5149 -117.58874,10.88113 -176.38311,19.05046 z"
     id="path24091"
     inkscape:connector-curvature="0"
     sodipodi:nodetypes="ccsccc" />
  <path
     style="fill:#73150b;fill-opacity:1;stroke:none"
     d="m 168.61119,70.74403 c 9.0345,12.0898 11.94924,23.902734 14.39702,35.99253 C 233.85953,89.755408 317.57898,66.513658 335.56119,55.793284 344.54494,30.941173 321.33126,17.957632 315.90373,16.755224 263.6171,30.499343 217.7087,52.747761 168.61119,70.74403 z"
     id="path24601"
     inkscape:connector-curvature="0"
     sodipodi:nodetypes="ccccc" />
  <path
     style="fill:#000000"
     d="m 172.4596,239.44253 c -2.72778,-0.31717 -9.921,-1.68241 -15.98494,-3.03387 -9.84755,-2.19471 -12.9785,-3.46559 -18.55309,-7.5309 -1.80403,-1.31561 -13.29105,-0.28461 -12.42588,1.11526 0.98651,1.59622 -2.5224,3.88837 -6.75764,4.41434 -19.030359,2.36336 -26.163118,2.42292 -28.576718,0.23864 -1.002999,-0.9077 -2.023505,-1.45049 -2.267791,-1.20621 -0.244286,0.24429 -7.295733,1.16085 -15.669883,2.03681 -16.331472,1.70832 -17.488297,1.54501 -21.040026,-2.97028 -1.759139,-2.23638 -2.709892,-2.50791 -8.827552,-2.52106 -8.881332,-0.0191 -11.458408,-1.36521 -13.403745,-7.00131 -0.851217,-2.46617 -2.525816,-6.04429 -3.721333,-7.95138 -2.084426,-3.32507 -3.473365,-9.21566 -3.648627,-15.47411 -0.07713,-2.75425 -0.432548,-3.00892 -5.582375,-4 C 10.960444,194.58861 10.400079,194.20699 9.3064422,191 8.6499854,189.075 8.0918814,183.45 8.0662111,178.5 7.996416,165.04143 12.190324,157 19.279271,157 c 1.325915,0 3.226915,-0.90185 4.224446,-2.00411 1.606732,-1.77542 1.668643,-2.4436 0.542561,-5.85567 C 22.06276,143.1301 23.869873,140.62488 36,132.5686 44.739676,126.76411 58.393613,120 61.370814,120 c 1.328365,0 2.672045,0.66931 2.985957,1.48735 0.440049,1.14675 2.092394,0.33561 7.2156,-3.54213 8.922108,-6.75312 19.974771,-12.26494 23.314303,-11.62655 1.96962,0.37652 4.022744,-0.59206 8.600296,-4.05726 12.12897,-9.181604 20.53392,-11.211541 24.07085,-5.813513 l 1.49005,2.274102 5.45898,-2.110999 c 4.6599,-1.801991 5.46149,-2.491583 5.47607,-4.710962 0.0338,-5.151285 7.6163,-12.970816 17.35301,-17.895582 1.55977,-0.788918 3.9754,-2.490415 5.36808,-3.781105 1.39268,-1.29069 3.18301,-2.096946 3.97853,-1.791679 0.79551,0.305267 10.07988,-2.860633 20.63192,-7.035334 C 197.86651,57.221637 210.775,52.47327 216,50.844413 c 5.225,-1.628858 17.375,-6.055538 27,-9.837066 56.96246,-22.379756 68.68327,-26.476949 73.27704,-25.615152 4.91534,0.922123 12.01688,6.670075 16.54798,13.393852 C 337.53518,35.775519 339,39.865429 339,46.027099 c 0,6.840187 -2.12775,11.114386 -6.85569,13.771637 -6.04412,3.396989 -26.53176,10.171507 -56.4504,18.666102 -14.74335,4.185978 -30.71835,8.91339 -35.5,10.50536 -4.78165,1.59197 -12.29391,3.806579 -16.69391,4.921354 -8.76083,2.219625 -37.80309,12.511948 -41,14.530038 -1.1,0.69439 -4.25,1.56201 -7,1.92805 -2.75,0.36604 -8.94004,1.82117 -13.75564,3.23363 -10.5246,3.08697 -14.18015,2.411 -18.46495,-3.41447 -1.48418,-2.01784 -2.73394,-3.76103 -2.77724,-3.87375 -0.0433,-0.11272 -1.8051,0.38855 -3.91511,1.11394 -2.20273,0.75726 -3.35747,1.61487 -2.71172,2.01396 2.25078,1.39106 1.17369,5.7948 -2.19124,8.95897 -3.51162,3.30212 -21.6038,12.61492 -28.55084,14.6963 -3.575796,1.07133 -4.372695,1.01507 -5.959261,-0.42075 C 96.166685,131.74586 94.98971,131 94.558498,131 c -0.431211,0 -3.514787,2.05275 -6.852392,4.56168 C 79.121277,142.01501 68.568865,148 65.775527,148 c -1.30654,0 -2.870742,-0.49521 -3.476005,-1.10048 -1.692679,-1.69268 -10.646822,3.81342 -9.723583,5.97924 0.380101,0.89168 0.658325,2.41741 0.618275,3.39051 -0.118898,2.88884 -6.990488,13.38826 -12.390944,18.9327 -4.661832,4.78613 -4.896111,5.25697 -3.224071,6.4796 0.991683,0.72514 2.155496,1.31843 2.58625,1.31843 1.494771,0 3.632247,5.53265 4.346713,11.25104 L 45.230447,200 l 5.819677,0 c 6.639444,0 9.95662,1.01749 12.613075,3.86886 1.782195,1.91296 2.443301,1.94974 16.787586,0.93385 l 14.932331,-1.05754 2.808442,3.14319 C 99.736201,208.61712 101,210.92445 101,212.01578 c 0,2.4132 3.38992,2.59692 14.08325,0.76321 6.66903,-1.14361 7.2104,-1.09789 8.54063,0.72131 0.78114,1.06827 1.19944,2.51772 0.92957,3.22101 -0.364,0.94856 1.02153,1.27869 5.36664,1.27869 l 5.85733,0 0.63757,-3.39855 c 0.84099,-4.48286 3.87441,-8.19828 8.70574,-10.66304 7.24417,-3.6957 31.27198,-8.65755 52.87927,-10.9198 11.275,-1.18048 28.15,-3.21239 37.5,-4.51537 25.3101,-3.52711 50.57618,-6.28824 73,-7.9776 11,-0.82871 25.76544,-2.05357 32.8121,-2.72191 9.06522,-0.85979 13.30295,-0.90554 14.49051,-0.15644 2.05048,1.29341 6.92304,9.41442 8.91155,14.85271 2.15427,5.89163 1.83355,22.87742 -0.50765,26.88611 -3.1387,5.3742 -6.52886,6.51878 -25.54206,8.62345 -9.6432,1.06746 -21.95015,2.21494 -27.34877,2.54996 -5.39863,0.33501 -17.69068,1.65315 -27.31568,2.92919 -31.1831,4.13411 -66.16861,6.55398 -94.30902,6.52314 -13.74273,0.42145 -7.43931,0.6219 -17.23138,-0.56932 z M 227,236.52005 c 24.80124,-1.24052 59.50678,-4.59587 62.5,-6.04253 0.98524,-0.47617 -3.268,-0.15515 -21,1.58504 -4.95,0.48579 -16.65,0.92863 -26,0.98411 -9.35,0.0555 -23.975,0.4414 -32.5,0.85763 -8.525,0.41622 -16.2875,0.55555 -17.25,0.3096 -3.64843,-0.93226 -1.528,-2.00513 4,-2.02386 13.04282,-0.0442 76.33132,-2.12104 77.0127,-2.52721 0.40551,-0.24173 11.9873,-1.62548 25.7373,-3.07501 22.27104,-2.34781 27.86279,-3.15887 36.25,-5.25788 1.3003,-0.32542 2.25,-0.10359 2.25,0.52555 0,1.64277 -9.41812,3.94452 -19.25,4.70461 -4.8125,0.37205 -8.75,0.96397 -8.75,1.31538 0,1.22534 42.87216,-3.08977 47.1977,-4.75048 5.08706,-1.95308 6.3023,-5.3451 6.3023,-17.59115 0,-10.66645 -0.12317,-11.29612 -3.49715,-17.87752 -1.92343,-3.75192 -4.07508,-7.30131 -4.78145,-7.88755 -0.9143,-0.7588 -6.2451,-0.58511 -18.50286,0.60285 -9.4702,0.91781 -23.96854,2.11109 -32.21854,2.65175 -8.25,0.54065 -19.05,1.46001 -24,2.043 -4.95,0.583 -14.4,1.67966 -21,2.43702 -6.6,0.75735 -19.65,2.485 -29,3.83921 -9.35,1.35421 -24.2,3.22204 -33,4.15073 -8.8,0.92869 -16.07921,1.76432 -16.17603,1.85696 -0.0968,0.0926 0.7424,2.86422 1.86494,6.15907 1.69843,4.98523 1.95083,7.585 1.50387,15.49063 -0.29541,5.225 -1.24713,11.46908 -2.11494,13.87573 -0.86781,2.40665 -1.57784,4.54415 -1.57784,4.75 0,0.73052 17.8838,0.30065 46,-1.10568 z m -46.60531,-4.16499 c 2.63373,-7.72957 3.13036,-19.03384 1.13833,-25.91042 -2.8081,-9.69368 -2.07511,-9.52505 -20.9192,-4.81261 C 143.06067,206.02165 138,210.09949 138,219.85408 c 0,5.8364 1.74447,8.84924 6.40379,11.05983 5.31639,2.52232 21.52923,5.91074 28.75221,6.00908 l 5.656,0.077 z M 162,233.88274 c -7.52826,-0.83057 -14.5298,-3.68888 -17.94757,-7.32693 -3.22587,-3.43378 -1.74525,-4.58318 1.708,-1.32592 3.89133,3.67047 9.68359,5.81428 17.52186,6.48513 6.44738,0.5518 9.17358,1.59813 6.46197,2.48012 -0.68434,0.22259 -4.16926,0.082 -7.74426,-0.3124 z M 85.263993,231.8753 c 4.804928,-0.68662 8.711478,-1.85477 10.25,-3.06497 C 98.275732,226.63795 98.81645,224 96.5,224 c -0.825,0 -1.5,0.68465 -1.5,1.52144 0,1.96231 -2.937634,3.12539 -11,4.35516 -7.77576,1.18605 -25.051621,1.42839 -26.600296,0.37313 C 52.363301,226.81797 53.356875,213 58.640037,213 c 0.839646,0 1.327483,-0.5625 1.084082,-1.25 -0.525142,-1.48329 -5.57743,-1.29757 -7.134317,0.26226 -1.716157,1.7194 -1.075114,15.14857 0.905994,18.97961 l 1.704756,3.29663 11.149724,-0.65186 c 6.132348,-0.35852 14.643521,-1.15113 18.913717,-1.76134 z m 26.656797,0.7807 c 5.85629,-0.64965 10.58331,-1.64896 10.79181,-2.28143 0.41389,-1.25548 -4.49531,-2.53517 -5.22101,-1.36097 -0.25337,0.40997 -5.08013,1.06061 -10.72613,1.44589 -5.646,0.38527 -11.39046,1.32355 -12.76546,2.08507 -2.392327,1.32494 -2.284654,1.38205 2.5,1.326 2.75,-0.0322 9.68936,-0.57876 15.42079,-1.21456 z M 296.25,229.33772 c -0.6875,-0.27741 -1.8125,-0.27741 -2.5,0 -0.6875,0.27741 -0.125,0.50439 1.25,0.50439 1.375,0 1.9375,-0.22698 1.25,-0.50439 z m -181.10448,-2.21307 c 0.35504,-0.34356 0.25704,-1.63715 -0.21778,-2.87465 -0.92279,-2.40508 -3.17775,-2.76533 -10.1224,-1.61713 -2.88234,0.47655 -3.90886,1.22534 -4.66896,3.40575 l -0.974303,2.79489 7.668963,-0.54211 c 4.21793,-0.29816 7.95944,-0.8232 8.31448,-1.16675 z M 307.25,228.29427 c -1.2375,-0.23836 -3.2625,-0.23836 -4.5,0 -1.2375,0.23835 -0.225,0.43337 2.25,0.43337 2.475,0 3.4875,-0.19502 2.25,-0.43337 z M 46.5,227 c 0.368411,-0.5961 -0.839502,-1 -2.990643,-1 -4.819497,0 -9.337659,-2.46772 -10.103278,-5.51819 C 32.558864,217.10624 31,217.34155 31,220.84501 c 0,4.67033 3.191217,6.50406 12.190983,7.00516 C 44.671024,227.93258 46.160081,227.55 46.5,227 z m 17.584667,-5.36262 c 1.086631,-3.98571 0.571732,-10.11584 -1.246263,-14.83737 -0.864547,-2.24532 -1.990948,-2.89749 -6.689009,-3.87286 -6.294442,-1.3068 -20.721876,-0.52685 -22.844757,1.23499 C 31.869741,205.35299 31.499474,210 32.839485,210 c 0.461717,0 1.335843,-1.08939 1.942503,-2.42086 0.905639,-1.98766 2.104906,-2.54604 6.701919,-3.1204 8.166868,-1.02038 16.109799,-0.13641 18.540547,2.06339 1.767678,1.59973 2.014855,2.84843 1.765498,8.91901 -0.255399,6.21768 -0.558078,7.17649 -2.539952,8.04599 -1.2375,0.54292 -2.25,1.48042 -2.25,2.08333 0,4.16765 5.745789,0.97785 7.084667,-3.93308 z m 20.693376,5.725 c 1.683209,-0.45095 2.120704,-1.10604 1.67548,-2.50882 -1.195193,-3.76571 0.457038,-7.53848 3.710852,-8.47349 3.018569,-0.86742 3.035808,-0.90952 1.199112,-2.92883 -1.768901,-1.94477 -2.434511,-2.00267 -13.113487,-1.14063 l -11.25,0.90814 0,3.92274 c 0,2.15751 -0.652038,5.48329 -1.448973,7.39063 L 64.102053,228 l 9.198974,-0.0137 c 5.059435,-0.008 10.224092,-0.2883 11.477016,-0.62397 z M 130.25,226.01365 c 5.46303,-0.013 5.75,-0.13842 5.75,-2.51365 0,-1.375 -0.1125,-2.51622 -0.25,-2.53604 -10.28986,-1.48342 -18.75,-0.32656 -18.75,2.5639 0,1.89374 3.0839,3.56605 5.5,2.9825 1.1,-0.26568 4.5875,-0.4892 7.75,-0.49671 z M 92.5,223.9863 c 0,-1.70826 7.62251,-3.50164 19.5,-4.58786 9.95309,-0.91022 11.42578,-1.45622 9.77118,-3.62265 -1.077,-1.41014 -2.03495,-1.51632 -6.27118,-0.69505 -2.75,0.53313 -9.1001,1.39824 -14.11132,1.92247 -5.011232,0.52422 -9.804389,1.21908 -10.651462,1.54413 -1.765192,0.67737 -2.86426,3.95802 -2.042994,6.0982 C 89.404351,226.4961 92.5,225.95987 92.5,223.9863 z M 49,218.93426 c 0,-6.26408 1.174559,-8.56466 5.29305,-10.36738 3.171825,-1.38836 3.133018,-1.40463 -3.54305,-1.48531 L 44,207 l 0,3.04775 C 44,213.46892 39.928296,218 36.853977,218 c -2.329065,0 -2.369212,1.24118 -0.103977,3.21452 2.373939,2.06804 4.087399,2.61364 8.5,2.70653 L 49,224 z M 59.267975,218.75 c 0.272236,-1.7875 0.31581,-3.445 0.09683,-3.68333 -0.715135,-0.77835 -2.208721,1.37437 -2.902453,4.18333 -0.512835,2.0765 -0.313053,2.75 0.815738,2.75 0.918363,0 1.685806,-1.25343 1.989885,-3.25 z M 41.22467,212.67072 c 0.409588,-0.6439 0.751595,-2.21622 0.760017,-3.49404 0.01111,-1.68503 -0.46547,-2.22593 -1.734687,-1.9688 -1.06334,0.21543 -1.719385,1.22011 -1.671975,2.56052 0.08744,2.47221 -2.461879,3.72063 -5.578025,2.7316 -2.739195,-0.86939 -2.535655,0.34401 0.25,1.49037 2.618689,1.07765 6.900437,0.3691 7.97467,-1.31965 z M 98.996262,213.75 c -0.0021,-0.6875 -0.911449,-2.73882 -2.020875,-4.55849 l -2.017136,-3.3085 -6.729125,0.65121 c -3.70102,0.35817 -10.002952,0.94699 -14.004294,1.3085 -10.199389,0.92147 -9.307926,2.77771 1.054057,2.1948 16.362391,-0.92047 17.031195,-0.8405 18.503789,2.21248 1.339894,2.77786 5.220744,3.89442 5.213584,1.5 z m -72.83025,-14.1647 c -0.308386,-10.54213 -0.171444,-11.57987 1.786475,-13.53779 1.166254,-1.16625 1.8786,-2.5118 1.582992,-2.9901 -0.916285,-1.48258 -4.647269,0.10424 -5.476696,2.32928 -1.616721,4.33707 0.231649,25.60247 2.226401,25.61462 0.118149,7.2e-4 0.06452,-5.13649 -0.119172,-11.41601 z m 6.108132,2.6647 c 1.140966,-1.2375 2.671043,-2.25 3.40017,-2.25 1.434541,0 1.651025,-4.64408 0.419536,-9 -0.703159,-2.48715 -0.709862,-2.48848 -1.304479,-0.25849 -0.328729,1.23282 -2.011007,3.03282 -3.738397,4 -3.034272,1.6989 -3.125487,1.94488 -2.691582,7.25849 0.533628,6.53483 0.71701,7.14321 1.356439,4.5 0.266106,-1.1 1.417347,-3.0125 2.558313,-4.25 z m 10.294943,-7 c -0.857269,-6.18849 -2.37457,-9.96138 -4.303772,-10.70168 -2.274726,-0.8729 -2.871992,0.25059 -1.39258,2.6195 0.713364,1.14228 1.546785,4.49682 1.852048,7.45453 0.464396,4.49956 0.877287,5.37765 2.528664,5.37765 1.780203,0 1.90915,-0.46555 1.31564,-4.75 z m -21.814082,-2.5 c -0.226413,-0.6875 -1.399998,-1.39525 -2.607967,-1.57278 -4.382001,-0.644 -5.50479,-4.26373 -4.800496,-15.47621 L 13.987301,165.5 17.74365,162.26488 c 2.065993,-1.77932 3.223145,-3.24182 2.57145,-3.25 C 14.012203,158.93574 10,166.62606 10,178.78616 c 0,9.49151 1.323828,13.93319 4.327102,14.51821 4.567234,0.88967 6.838943,0.69374 6.427903,-0.55437 z m 12.222077,-2.70718 c 1.117915,-2.08884 1.23384,-22.07657 0.150495,-25.94818 -0.735541,-2.62864 -3.611788,-4.94376 -4.740149,-3.8154 -0.389675,0.38967 0.149469,1.65654 1.198098,2.81526 1.584453,1.75081 1.96734,4.02027 2.2661,13.43174 0.337556,10.63359 0.230961,11.40524 -1.746062,12.63991 C 28.947504,189.88937 28,191.28868 28,192.27573 c 0,1.47783 0.349019,1.60785 1.977082,0.73654 1.087395,-0.58196 2.437395,-1.91821 3,-2.96945 z M 21.618835,186.25 c 0.955987,-4.00184 2.264447,-5.25 5.50361,-5.25 3.762835,0 4.08085,-3.48118 0.402355,-4.40442 -3.387206,-0.85013 -10.728234,-8.61922 -9.986769,-10.5691 0.384819,-1.01199 0.246734,-1.18944 -0.409695,-0.52648 -0.544585,0.55 -1.301485,5.30012 -1.681999,10.55582 -0.59696,8.24525 -0.459491,9.78817 1.002337,11.25 2.473655,2.47365 4.422067,2.07576 5.170161,-1.05582 z m 19.701474,-14.5 C 46.26987,165.66014 51,157.89683 51,155.86324 c 0,-4.86811 -5.467012,-2.53508 -6.315776,2.69523 -0.324414,1.99914 -2.41108,6.047 -4.637034,8.99525 -6.271638,8.30673 -5.128909,12.07323 1.273119,4.19628 z M 27.125475,170.3011 C 25.406464,168.95577 24,166.96531 24,165.87786 c 0,-2.82723 2.656252,-7.63258 7.305599,-13.21633 3.87038,-4.64823 4.189311,-4.81541 8.111592,-4.25184 5.512137,0.792 7.54526,-0.54905 4.17766,-2.75558 C 42.206385,144.74435 40.109407,144 38.9349,144 c -2.806353,0 -9.594451,6.80774 -15.315678,15.35999 l -4.58915,6.86 2.234964,2.82349 c 2.685787,3.39303 8.057165,6.37789 8.610439,4.7848 0.206512,-0.59462 -1.030988,-2.18186 -2.75,-3.52718 z m 14.959216,-9.58316 c 1.60995,-3.78129 0.588399,-4.39536 -3.578714,-2.15123 -3.724032,2.00553 -3.867445,2.37595 -2.863444,7.39596 l 0.642533,3.21266 2.307557,-2.83766 c 1.269155,-1.56072 2.840586,-4.0896 3.492068,-5.61973 z M 29,166 c 0,-1.11111 -0.666667,-2 -1.5,-2 -1.522411,0 -2.051262,2.1154 -0.833333,3.33333 C 27.934458,168.60112 29,167.99224 29,166 z M 40.235966,155.22677 C 44.231185,153.15149 48.625,150.74073 50,149.86954 c 1.375,-0.8712 6.000745,-3.76018 10.279434,-6.41995 7.906925,-4.91521 9.567211,-7.20669 8.243472,-11.37742 -1.033875,-3.25745 -2.372611,-2.42938 -2.712541,1.67783 -0.282553,3.41396 -0.982449,4.22037 -7.810365,8.99906 -8.004012,5.60181 -18.58757,11.08342 -23.493962,12.16839 -1.672985,0.36996 -3.139281,1.41665 -3.323324,2.37231 -0.476988,2.4768 0.931272,2.15589 9.053252,-2.06299 z m -2.817753,-2.83376 C 38.288196,152.05917 39,151.38417 39,150.89301 c 0,-1.43081 -2.641436,-1.02998 -4,0.60699 -1.319754,1.59021 -0.340768,1.95173 2.418213,0.89301 z m -9.000134,-5.86339 c -0.489432,-1.95005 0.314661,-3.06515 4.74633,-6.58209 2.934575,-2.32886 6.910591,-4.87639 8.835591,-5.66119 8.281192,-3.37614 19.610387,-8.75391 20.927541,-9.93393 2.255778,-2.02093 -1.271713,-2.86601 -5.195501,-1.24468 -8.011176,3.31025 -23.19925,12.45014 -27.954121,16.82226 -4.956188,4.55723 -5.159169,4.93784 -3.995433,7.49196 1.449781,3.18193 3.485205,2.4928 2.635593,-0.89233 z M 33.727129,144 c 3.213959,-2.5281 8.04088,-2.5281 11.272871,0 3.18322,2.48995 3.095689,2.49699 8.33936,-0.67031 4.344833,-2.62437 4.398914,-2.72253 3.14413,-5.70679 -0.795503,-1.89194 -0.963042,-3.86158 -0.444484,-5.22549 0.788676,-2.07438 0.403581,-2.00511 -7.353372,1.32257 C 39.687561,137.58011 27.281698,146 30.592271,146 c 0.325749,0 1.736435,-0.9 3.134858,-2 z m 39.522932,-1.26192 c 5.228102,-2.94415 12.905567,-8.14698 23.961418,-16.23808 5.957801,-4.36015 6.545801,-5.68877 4.456561,-10.06993 -0.96457,-2.02273 -2.023599,-3.40784 -2.353401,-3.07804 -0.329802,0.3298 -0.053,1.2583 0.615118,2.06333 0.668113,0.80503 1.069743,2.71174 0.892503,4.23713 -0.2543,2.18855 -2.009365,3.94496 -8.32226,8.32867 -14.512787,10.07774 -24.726899,16.14575 -26.215908,15.57436 -1.807002,-0.69341 -3.520638,0.25272 -2.741387,1.51358 1.021404,1.65266 3.831551,0.97786 9.707356,-2.33102 z M 83.355949,131.26955 C 87.676722,128.3713 91.662367,126 92.212938,126 c 0.559253,0 0.685296,-0.77232 0.2856,-1.75 -0.393492,-0.9625 -1.145005,-3.23864 -1.670029,-5.05808 l -0.954589,-3.30808 -4.68696,2.7183 c -2.577828,1.49507 -6.927566,4.13638 -9.666083,5.86958 l -4.979124,3.15128 -0.02088,6.04754 -0.02088,6.04755 2.5,-1.5895 c 1.375,-0.87422 6.035177,-3.96079 10.355956,-6.85904 z M 61,135.1153 c 0,-4.08075 4.342489,-7.48141 23.861036,-18.68587 13.465102,-7.72953 12.764381,-10.83961 -0.834026,-3.70174 -9.240436,4.85035 -25.459107,17.36726 -26.54265,20.48454 -0.720274,2.07217 1.235438,6.07898 2.565813,5.25676 C 60.572578,138.14613 61,136.63696 61,135.1153 z m 2.683114,-1.3028 c -0.319226,-0.79773 -0.556183,-0.56078 -0.604167,0.60417 -0.04342,1.05416 0.192928,1.64479 0.52522,1.3125 0.332291,-0.3323 0.367818,-1.1948 0.07895,-1.91667 z m 55.047446,-9.8805 c 10.93988,-5.62062 14.48444,-8.47347 14.06103,-11.31706 C 132.40741,110.03486 130,109.27006 130,111.72811 c 0,2.93477 -3.27672,5.78433 -10.69916,9.30439 -8.03966,3.81277 -16.93414,7.00087 -17.61953,6.31547 -0.2676,-0.2676 -1.40749,0.0886 -2.533091,0.79154 -1.456291,0.90947 -1.754807,1.6296 -1.035032,2.49687 1.462305,1.76197 8.753293,-0.60892 20.617373,-6.70438 z m -4.97789,-3.03091 C 117.19164,119.30549 120.29916,118 120.65828,118 121.83689,118 128,112.9205 128,111.94911 128,111.4271 127.07042,111 125.93426,111 123.11418,111 120,109.21558 120,107.59967 c 0,-0.73147 0.93266,-2.51564 2.07258,-3.96481 2.00994,-2.55523 2.0142,-2.63486 0.14083,-2.63486 -2.79012,0 -16.45527,6.50478 -18.56685,8.83805 -1.65823,1.83233 -1.67459,2.20706 -0.21926,5.02136 1.89371,3.66203 2.02227,7.26858 0.3227,9.05298 -1.74743,1.83466 1.9709,0.71526 10.00267,-3.0113 z m -18.48848,-1.96808 c -0.518459,-3.86539 -0.292956,-4.30408 4.54942,-8.85034 6.63773,-6.23183 21.36255,-13.078262 24.24979,-11.27515 2.70718,1.69066 3.13739,1.48685 1.70453,-0.80752 -1.92793,-3.087106 -6.98942,-2.55208 -13.84005,1.462965 -7.15497,4.193415 -18.596791,13.231845 -19.4,15.324975 -0.680791,1.77411 1.243458,8.21206 2.454516,8.21206 0.45501,0 0.581817,-1.83014 0.281794,-4.06699 z m 2.82959,-2.23923 C 97.302073,115.90207 97,116.16155 97,117.63333 c 0,2.64375 1.398454,4.04704 1.84378,1.85016 0.189079,-0.93276 -0.148421,-2.18813 -0.75,-2.78971 z m 65.16314,-6.19592 c 5.0837,-1.37618 11.15558,-2.96853 13.49308,-3.53855 3.8225,-0.93215 4.25,-1.33746 4.25,-4.0294 0,-6.164296 -7.03358,-22.958717 -12.30078,-29.37116 l -2.41595,-2.941251 -5.39163,3.556169 c -2.9654,1.955893 -6.78734,4.268969 -8.4932,5.140168 -2.90284,1.482513 -9.30496,7.881934 -9.47495,9.47096 -0.0421,0.393362 -0.29303,1.615204 -0.55767,2.715204 -0.97978,4.072558 -0.43576,11.46406 1.05608,14.34898 1.87197,3.61999 6.17768,7.15102 8.71988,7.15102 1.02964,0 6.03145,-1.12597 11.11514,-2.50214 z m -15.02365,-2.98918 c -3.06721,-2.22663 -1.84129,-3.87319 1.57348,-2.11336 3.02973,1.56139 10.63173,0.77254 18.16344,-1.8848 4.7188,-1.66489 9.00008,-2.03213 7.47981,-0.64159 -1.75417,1.60447 -13.89654,5.18717 -19.45,5.73887 -4.17379,0.41465 -6.04657,0.14961 -7.76673,-1.09912 z m -14.46806,-1.58677 c 6.07165,-2.05043 6.14553,-2.1203 5.55053,-5.25 -0.33166,-1.744549 -0.72848,-3.324507 -0.88182,-3.511015 -0.15334,-0.186508 -3.5762,1.388492 -7.60636,3.499995 -11.8932,6.23117 -9.99603,9.6288 2.93765,5.26102 z M 231.5,88.971114 c 14.98706,-4.487677 32.73868,-9.638839 46.5,-13.49336 23.7432,-6.650429 46.11762,-13.935859 51.76078,-16.854046 1.68444,-0.871062 4.05041,-2.83024 5.25769,-4.353728 3.31737,-4.18622 2.37068,-13.36584 -2.15437,-20.890041 -4.0943,-6.807953 -12.66736,-14.890591 -16.63597,-15.684312 -3.32337,-0.664674 -11.20128,1.575964 -25.22813,7.175395 -5.225,2.085787 -12.65,4.980005 -16.5,6.431594 -3.85,1.451589 -14.65,5.636798 -24,9.300465 -9.35,3.663666 -23.975,9.036894 -32.5,11.940506 -16.29006,5.548388 -45.96552,17.021936 -47.18813,18.244543 -0.39416,0.394158 0.75696,2.965575 2.55804,5.714261 4.67849,7.139976 8.72145,17.158092 9.35203,23.173524 l 0.54257,5.175915 17.11775,-5.8443 C 209.79702,95.793165 223.8,91.276777 231.5,88.971114 z m -44.96721,9.081942 C 186.01321,97.212355 223.37061,84.606135 247.5,77.479728 c 4.95,-1.46194 18.225,-5.508607 29.5,-8.992593 11.275,-3.483986 23.425,-7.053329 27,-7.931873 9.11798,-2.240715 22.63964,-8.844519 23.47064,-11.462757 C 328.20201,46.788171 330,46.232951 330,48.311439 c 0,4.08158 -11.0156,10.320849 -25.24271,14.297543 -5.09151,1.423155 -18.48229,5.4192 -29.75729,8.8801 -11.275,3.4609 -25.225,7.689711 -31,9.397358 -5.775,1.707647 -20.80895,6.481781 -33.40877,10.609186 C 197.99141,95.623032 187.55547,99 187.40025,99 c -0.15522,0 -0.54558,-0.426125 -0.86746,-0.946944 z"
     id="path24089"
     inkscape:connector-curvature="0"
     sodipodi:nodetypes="cssssscssssssssssssssssssscssssssssssssssssssssssssssssssssssscssscsssscscssssssssssssccssssssssssssssssssssssscssssssssssscssssssssssssssssscsssscsssssssscssscscsssssssssssssssssssssscsssscssccccsscsssssssssssssscsssscsscsssssssssscscsssscssssssssssssssssssssssscsssssssssssssssssssssssssssssssssscsssssscssssssssssssssssssssssssssssssssssssssssssssssssscsscccsssssssssscsssssssssssssssssssssssssssssssssssscsscsssssssssssssssssssssssssssscssssssssssssss" />
  <path
     style="fill:#1c1c1c;fill-opacity:0.7574257;stroke:none"
     d="m 166.7991,69.999539 c 10.15513,9.676147 12.83375,24.264444 15.27034,37.001211 l -31.71532,7.43939 c -4.55671,-5.18833 -11.85988,-4.36879 -8.61404,-26.625204 5.55091,-7.7579 15.77682,-14.701812 25.05902,-17.815397 z"
     id="path24603"
     inkscape:connector-curvature="0"
     sodipodi:nodetypes="ccccc" />
  <path
     style="fill:#1c1c1c;fill-opacity:0.7574257;stroke:none"
     d="m 122.85727,108.18702 c -1.3378,-0.57846 0.36459,-3.74728 3.61761,-5.92146 2.47815,-1.65629 11.7388,-5.635419 12.50705,-5.635235 0.36376,8.6e-5 0.50055,2.077344 0.9831,4.626245 0.52624,2.77964 -0.79314,3.37972 -4.61611,4.76358 -1.98767,0.7195 -5.42485,1.80596 -7.34826,2.27924 -1.43928,0.35416 -4.58966,0.12706 -5.14339,-0.11237 z"
     id="path24605"
     inkscape:connector-curvature="0"
     sodipodi:nodetypes="sssssss" />
  <path
     style="fill:#1c1c1c;fill-opacity:0.7574257;stroke:none"
     d="m 94.463838,123.75313 c -0.967276,-0.96728 -2.800354,-6.25934 -2.678782,-8.1537 0.05541,-0.86348 -0.05174,-1.57885 1.045778,-2.7172 3.817254,-3.95926 14.739686,-11.92428 20.320396,-14.961546 5.5551,-3.023332 10.54474,-2.850256 12.61114,-0.733714 3.8108,7.28056 -1.00521,1.516421 -3.21401,1.505799 -4.32003,0.0606 -13.7164,4.734221 -20.04698,9.659461 -2.15049,1.6731 -5.438749,5.2571 -6.208059,6.41611 -1.232954,2.92991 0.06977,4.6269 0.03798,7.93823 -0.136558,0.5244 -1.525164,1.38886 -1.867459,1.04656 z"
     id="path24607"
     inkscape:connector-curvature="0"
     sodipodi:nodetypes="csssccsccc" />
  <path
     style="fill:#1c1c1c;fill-opacity:0.7574257;stroke:none"
     d="m 99.398138,131.64446 c -1.0998,-0.39781 -3.24941,-1.21586 -2.002117,-2.44223 -4.434502,-0.9072 15.591649,-5.66209 21.922079,-8.67466 4.34649,-2.08509 6.67309,-3.91933 8.31459,-5.6594 1.14277,-1.2114 1.78198,-1.62045 1.9082,-2.98024 0.0837,-0.90211 0.34121,-2.18211 0.69837,-2.3823 0.61955,-0.34725 2.54226,0.73944 2.92459,1.92851 0.29946,0.93131 0.72956,2.14854 0.25125,3.11635 -1.15518,2.33739 -6.00204,5.8025 -15.76108,10.67754 -2.36153,2.08094 -11.453,8.46483 -18.255882,6.41643 z"
     id="path24609"
     inkscape:connector-curvature="0"
     sodipodi:nodetypes="cccsccsscc" />
  <path
     style="fill:#1c1c1c;fill-opacity:0.7574257;stroke:none"
     d="m 62.442539,143.98917 c 0.404394,-0.61719 1.65155,-1.43644 2.6843,-1.16882 0.967923,0.25081 1.507995,-0.48811 4.171108,-1.38716 6.411881,-2.16462 11.411695,-5.85774 20.164681,-11.85805 5.69147,-3.90159 7.263624,-5.25442 8.884966,-6.84792 0.99033,-0.97332 1.240772,-1.37015 1.544032,-2.27118 0.190614,-0.56632 0.404304,-0.77614 0.358814,-1.90879 -0.0617,-1.53597 -0.665678,-2.29867 -1.282941,-3.20017 -1.115737,-1.62949 0.341614,-3.69879 1.486981,-2.1836 0.59152,0.7825 2.34206,4.14849 2.70124,5.23695 0.6949,2.10581 0.18003,3.92799 -1.74305,5.74768 -1.22639,1.16045 -2.263878,2.0567 -6.908872,5.41436 -15.28699,11.05029 -23.806105,16.39021 -27.730943,17.02719 -2.544316,0.73733 -2.707718,-0.0675 -4.330316,-2.60049 z"
     id="path24611"
     inkscape:connector-curvature="0"
     sodipodi:nodetypes="ccsssssssssscc" />
  <path
     style="fill:#1c1c1c;fill-opacity:0.7574257;stroke:none"
     d="m 58.046871,138.61818 c -1.709124,-2.12088 -1.066421,-4.24176 -1.076755,-6.36264 10.192573,-10.10262 22.110818,-18.47958 35.43502,-25.45057 l 4.013359,1.85985 c -8.396514,9.88777 -21.861385,15.27034 -32.792077,22.90551 l -1.957736,5.09012 c -1.086071,2.47057 -2.274979,3.39858 -3.621811,1.95773 z"
     id="path24615"
     inkscape:connector-curvature="0"
     sodipodi:nodetypes="ccccccc" />
  <path
     style="fill:#1c1c1c;fill-opacity:0.7574257;stroke:none"
     d="m 30.540681,148.21109 -1.272529,-3.62181 c 10.338508,-9.63182 21.501194,-12.6702 32.302643,-18.59849 3.43673,-1.63145 5.532011,-3.26289 0.195774,-4.89434 C 45.11457,124.8542 36.49395,134.73109 24.76536,142.24 c 0.153263,7.72498 -0.929716,10.99986 5.775321,5.97109 z"
     id="path24617"
     inkscape:connector-curvature="0"
     sodipodi:nodetypes="cccccc" />
  <path
     style="fill:#1c1c1c;fill-opacity:0.7574257;stroke:none"
     d="m 32.792077,154.18218 c 10.781386,-2.63371 14.310581,-3.49271 32.008983,-18.10905 l 0.489434,-4.30702 c 6.046878,-7.73675 4.569612,0.40856 4.013358,5.97109 -10.440745,8.22632 -22.271659,15.91201 -37.392756,22.31819 -3.674485,-1.6638 -2.467154,-3.68922 0.880981,-5.87321 z"
     id="path24619"
     inkscape:connector-curvature="0"
     sodipodi:nodetypes="cccccc" />
  <path
     style="fill:#1c1c1c;fill-opacity:0.7574257;stroke:none"
     d="m 18.304831,166.41804 c 3.915472,-8.9077 14.291472,-20.36046 14.291472,-20.36046 3.369866,-2.20629 6.435704,-5.03914 13.606265,0.58732 1.018572,1.128 -1.059171,2.13206 -3.230264,3.13238 l -7.34151,-0.48944 c -4.649133,5.29335 -9.132015,10.60181 -10.963321,16.15133 l 5.971095,7.04785 c 1.763238,11.46317 -11.674239,-5.03963 -12.333737,-6.06898 z"
     id="path24621"
     inkscape:connector-curvature="0"
     sodipodi:nodetypes="cccccccc" />
  <path
     style="fill:#1c1c1c;fill-opacity:0.7574257;stroke:none"
     d="m 36.316002,171.21449 c 2.908821,-3.49594 10.076617,-15.23313 8.320377,-15.36823 2.493764,-4.25062 4.814455,-4.34751 7.04785,-2.34928 0.863044,10.59312 -9.391248,16.73871 -14.585133,24.08015 -1.850072,-0.58491 -3.047348,-0.71033 -0.783094,-6.36264 z"
     id="path24623"
     inkscape:connector-curvature="0"
     sodipodi:nodetypes="ccccc" />
  <path
     style="fill:#1c1c1c;fill-opacity:0.7574257;stroke:none"
     d="m 33.379398,161.91524 c 2.587583,10.44189 0.450982,19.1659 0.489434,28.68083 -5.821883,5.16838 -6.754189,7.17382 -6.754189,-0.78309 l 3.719698,-4.40491 -0.978868,-21.33932 c -6.016216,-6.08327 0.39246,-6.00913 3.523925,-2.15351 z"
     id="path24625"
     inkscape:connector-curvature="0"
     sodipodi:nodetypes="cccccc" />
  <path
     style="fill:#1c1c1c;fill-opacity:0.7574257;stroke:none"
     d="m 21.143548,158.39132 c 0.05689,2.07687 -3.560974,4.88869 -5.873208,7.43939 l -0.880981,21.5351 8.222491,3.81758 -0.978868,4.11125 -10.865434,-2.2514 c 0.01546,-9.05156 -4.2043404,0.45135 0.685207,-29.95336 3.556554,-2.32453 6.134239,-6.68648 9.690793,-4.69856 z"
     id="path24627"
     inkscape:connector-curvature="0"
     sodipodi:nodetypes="cccccccc" />
  <path
     style="fill:#1c1c1c;fill-opacity:0.7574257;stroke:none"
     d="m 24.357018,182.28265 6.379436,-0.30062 -0.195773,5.09012 -3.719699,2.74083 c -0.185256,7.38793 1.022729,15.572 -0.555768,22.1638 -3.837958,-2.94485 -2.892381,-13.86226 -4.338571,-20.79339 z"
     id="path24629"
     inkscape:connector-curvature="0"
     sodipodi:nodetypes="ccccccc" />
  <path
     style="fill:#1c1c1c;fill-opacity:0.7574257;stroke:none"
     d="m 35.715672,185.92015 3.045522,14.46623 c 1.661194,-0.0723 3.322388,0.70482 4.983583,-0.69216 -1.27063,-5.35291 -1.007759,-10.0541 -3.945337,-15.5737 -2.412609,-0.26863 -5.710665,-1.26872 -4.083768,1.79963 z"
     id="path24631"
     inkscape:connector-curvature="0"
     sodipodi:nodetypes="ccccc" />
  <path
     style="fill:#1c1c1c;fill-opacity:0.7574257;stroke:none"
     d="m 38.484328,206.89272 4.6375,-0.13843 -1.522761,7.47537 c -3.737686,0.9161 -7.475373,2.9056 -11.213059,-0.55373 l 0.76138,-2.90709 5.744963,0.89982 z"
     id="path24633"
     inkscape:connector-curvature="0"
     sodipodi:nodetypes="ccccccc" />
  <path
     style="fill:#1c1c1c;fill-opacity:0.7574257;stroke:none"
     d="m 31.631903,210.42276 3.114739,0.69217 3.530037,-4.91437 c 5.735367,-1.04955 11.307301,-2.40963 18.826866,-0.0692 l 3.183955,3.25317 -0.06922,12.38974 -3.945336,2.35336 0.899813,4.91437 c 3.769926,0.62738 6.117766,-3.0115 8.444403,-6.71399 -0.660096,-6.00461 2.07306,-11.89611 -3.530037,-18.06549 -8.454454,-4.41331 -18.101925,-4.9067 -29.140112,-0.8306 -1.166639,2.08752 -2.797927,4.02016 -1.315108,6.99084 z"
     id="path24635"
     inkscape:connector-curvature="0"
     sodipodi:nodetypes="cccccccccccc" />
  <path
     style="fill:#1c1c1c;fill-opacity:0.7574257;stroke:none"
     d="m 30.178358,217.06754 3.87612,0.13843 1.245895,4.70672 c 3.504663,2.06075 6.975887,4.1671 12.458955,3.53003 l 0.415299,4.01456 -14.397015,-1.38433 c -5.806869,-3.8001 -3.904721,-7.37995 -3.599254,-11.00541 z"
     id="path24637"
     inkscape:connector-curvature="0"
     sodipodi:nodetypes="ccccccc" />
  <path
     style="fill:#1c1c1c;fill-opacity:0.7574257;stroke:none"
     d="m 53.296642,210.56119 c 2.080238,-0.43076 3.53535,-1.36161 7.33694,-0.41529 l -0.06922,3.87611 c -1.790574,-1.15147 -3.117418,0.17029 -4.360635,1.93806 -2.65434,9.10525 -0.07319,9.9833 0.830597,13.49721 11.901362,-0.67761 24.425724,0.76298 35.508023,-2.69944 l 2.491791,-3.11474 4.706716,0 -4.914365,7.12929 c -13.497202,3.47518 -26.994403,3.01488 -40.491605,4.36063 l -4.568283,-10.45168 c 1.084514,-4.76008 -0.699343,-11.18079 3.530041,-14.12015 z"
     id="path24639"
     inkscape:connector-curvature="0"
     sodipodi:nodetypes="cccccccccccc" />
  <path
     style="fill:#1c1c1c;fill-opacity:0.7574257;stroke:none"
     d="m 88.943097,226.34254 c 1.31085,1.14406 2.726858,0.81591 4.222202,-0.62295 l 1.73041,-2.49179 27.340481,-4.56829 c 2.5323,-1.45354 0.27902,-2.90709 0.4153,-4.36063 -9.19309,-0.70839 -4.04557,-2.70587 -33.431527,4.36063 -2.202262,2.56101 -3.034631,5.12202 -0.276866,7.68303 z"
     id="path24641"
     inkscape:connector-curvature="0"
     sodipodi:nodetypes="ccccccc" />
  <path
     style="fill:#1c1c1c;fill-opacity:0.7574257;stroke:none"
     d="m 91.78097,233.19496 7.336941,-3.3916 21.526309,-2.28414 4.01455,3.3916 c -12.28986,1.4556 -32.001207,6.78329 -32.8778,2.28414 z"
     id="path24643"
     inkscape:connector-curvature="0"
     sodipodi:nodetypes="ccccc" />
  <path
     style="fill:#1c1c1c;stroke:none;stroke-width:1px;stroke-linecap:butt;stroke-linejoin:miter;stroke-opacity:1;fill-opacity:0.75742573"
     d="m 66.447761,207.72332 0.553732,4.29142 24.15653,-1.31511 3.46082,5.12201 6.437127,-1.10746 -6.298694,-9.96717 z"
     id="path24645"
     inkscape:connector-curvature="0" />
  <path
     style="fill:#1c1c1c;stroke:none;stroke-width:1px;stroke-linecap:butt;stroke-linejoin:miter;stroke-opacity:1;fill-opacity:0.75742573000000002"
     d="m 116.00672,221.08209 1.38432,6.78321 19.93433,-0.69217 -0.55373,-8.4444 z"
     id="path24647"
     inkscape:connector-curvature="0" />
  <path
     style="fill:#1c1c1c;fill-opacity:0.7574257;stroke:none"
     d="m 178.85522,238.38619 c -14.30086,-1.70468 -30.6923,-2.55481 -41.39141,-10.38246 -0.64306,-6.36865 -3.57273,-12.16565 4.15298,-20.62649 10.10118,-3.2015 5.97169,-6.86958 36.13097,-9.41343 11.62695,13.33047 4.27516,30.70664 1.10746,40.42238 z"
     id="path24649"
     inkscape:connector-curvature="0"
     sodipodi:nodetypes="ccccc" />
</svg>
