<?xml version="1.0" encoding="UTF-8" standalone="no"?>
<!-- Created with Inkscape (http://www.inkscape.org/) -->

<svg
   xmlns:dc="http://purl.org/dc/elements/1.1/"
   xmlns:cc="http://creativecommons.org/ns#"
   xmlns:rdf="http://www.w3.org/1999/02/22-rdf-syntax-ns#"
   xmlns:svg="http://www.w3.org/2000/svg"
   xmlns="http://www.w3.org/2000/svg"
   xmlns:sodipodi="http://sodipodi.sourceforge.net/DTD/sodipodi-0.dtd"
   xmlns:inkscape="http://www.inkscape.org/namespaces/inkscape"
   id="svg9523"
   version="1.1"
   inkscape:version="0.48.4 r9939"
   width="198"
   height="285"
   sodipodi:docname="PickledVegetables.png">
  <metadata
     id="metadata9529">
    <rdf:RDF>
      <cc:Work
         rdf:about="">
        <dc:format>image/svg+xml</dc:format>
        <dc:type
           rdf:resource="http://purl.org/dc/dcmitype/StillImage" />
        <dc:title></dc:title>
      </cc:Work>
    </rdf:RDF>
  </metadata>
  <defs
     id="defs9527" />
  <sodipodi:namedview
     pagecolor="#ffffff"
     bordercolor="#666666"
     borderopacity="1"
     objecttolerance="10"
     gridtolerance="10"
     guidetolerance="10"
     inkscape:pageopacity="0"
     inkscape:pageshadow="2"
     inkscape:window-width="1252"
     inkscape:window-height="745"
     id="namedview9525"
     showgrid="false"
     inkscape:zoom="0.58553404"
     inkscape:cx="109.18206"
     inkscape:cy="34.221112"
     inkscape:window-x="0"
     inkscape:window-y="22"
     inkscape:window-maximized="0"
     inkscape:current-layer="svg9523" />
  <path
     style="fill:#b3b3b3;fill-opacity:1;stroke:none"
     d="m 24.756356,23.699682 c -3.451772,11.617103 0.805085,18.416313 1.207627,27.62447 24.65572,-5.286784 49.311441,-7.98074 73.967161,-9.661017 24.669366,0.184217 49.383886,-0.354075 73.665256,6.038136 l 4.22669,-22.039195 C 169.48784,17.332686 167.29826,16.820573 126.19703,8.4533895 L 73.665254,7.5476692 C 57.352727,12.908727 39.155617,13.746786 24.756356,23.699682 z"
     id="path9535"
     inkscape:connector-curvature="0"
     sodipodi:nodetypes="cccccccc" />
  <path
     style="fill:#f0922c;fill-opacity:0.34020619;stroke:none"
     d="m 28.819845,50.812076 -4.269607,9.393135 4.483087,6.61789 0,190.424459 c 20.109573,12.43934 45.70509,13.90679 72.583315,12.80882 27.7014,0.55181 49.05722,-4.60741 71.30243,-8.96618 -1.33159,-66.18016 -2.20876,-143.2328 -3.73874,-198.540476 -0.0108,-0.39044 -0.76792,-1.549982 -0.0274,-1.916431 1.37365,-0.679747 1.15486,-3.182119 0.0184,-5.23174 -1.29318,-2.332263 0.17648,-3.05998 -0.52167,-6.510799 -23.13123,-8.38448 -45.49112,-5.970222 -68.10022,-7.044851 -27.901781,0.213731 -24.070126,0.04106 -71.729395,8.966173 z"
     id="path10045"
     inkscape:connector-curvature="0"
     sodipodi:nodetypes="ccccccssscccc" />
  <path
     style="fill:#f0922c;fill-opacity:0.7989691;stroke:none"
     d="m 30.190678,248.16737 16.90678,-1.20762 1.81144,6.64194 10.868644,-1.81144 c -0.812234,-3.50079 -2.650107,-7.00158 -0.817293,-10.50237 4.08728,2.69008 8.185555,2.05693 12.289751,-0.36627 l 2.128519,-15.09534 6.324871,32.00212 c 4.594847,2.64748 8.224293,-0.22458 12.289751,-0.60381 1.80495,-3.42888 6.10806,0.63673 9.447539,1.81144 l 2.342,-15.38207 10.9419,6.32486 4.22669,-4.8305 c 6.66612,6.57787 12.57726,2.58584 18.71822,1.81144 l -0.0733,-29.08666 c 5.90016,9.23694 8.00985,20.36912 18.0108,27.55567 l 0.78067,-6.31859 c 6.96587,6.7841 10.15025,2.98002 14.49153,2.41525 L 168.46398,47.701271 102.04449,40.455508 27.775424,51.927966 z"
     id="path10047"
     inkscape:connector-curvature="0"
     sodipodi:nodetypes="cccccccccccccccccccccc" />
  <path
     style="fill:#000000"
     d="m 66.980929,270.31698 c -11.38966,-0.80168 -23.2138,-4.0345 -33.25,-9.09082 -7.39653,-3.72644 -7.51204,-5.32977 -0.33056,-4.58858 3.6029,0.37185 6.11681,1.25672 7.5,2.6399 1.86878,1.86879 1.90243,2.09044 0.33056,2.17754 -0.9625,0.0533 2.3,1.44127 7.25,3.08429 6.64769,2.20654 12.13642,3.21866 21,3.87241 29.69724,2.19035 67.284661,0.14234 84.500001,-4.60413 14.21013,-3.9179 14.81096,-4.01591 13,-2.12049 -2.5765,2.69666 -23.40276,7.50379 -37.39522,8.63159 -14.23886,1.14766 -46.287931,1.14678 -62.604781,-0.002 z m 34.341661,-9.22381 c -0.46291,-0.77818 -2.895451,-2.60564 -5.405641,-4.06101 -3.65222,-2.1175 -4.8259,-2.39921 -5.875,-1.41012 -1.05093,0.9908 -1.21954,0.93843 -0.84993,-0.26399 0.6429,-2.09147 3.68197,-2.01055 7.66495,0.2041 1.85681,1.03244 3.468951,1.74638 3.582521,1.58654 0.11357,-0.15985 0.97825,-5.24064 1.92152,-11.29064 0.94326,-6.05 2.34979,-14.6 3.12563,-19 1.93339,-10.96481 4.2527,-32.64934 4.97349,-46.5 0.32915,-6.325 1.1307,-18.25 1.78123,-26.5 2.09706,-26.59519 1.07462,-87.41064 -1.72803,-102.784061 -0.8574,-4.703115 -0.90657,-6.673995 -0.16029,-6.425234 1.88898,0.629659 2.62183,6.633318 3.87068,31.709296 1.64094,32.948849 1.48869,60.367099 -0.50533,90.999999 -2.30113,35.35103 -2.59038,38.21999 -5.84759,57.99877 l -2.88173,17.49877 2.24593,1.79765 c 4.3063,3.44679 6.81193,4.97215 7.32487,4.4592 0.2841,-0.28409 0.98545,-3.52847 1.55857,-7.20972 1.07391,-6.89795 0.53167,-12.07628 -1.15537,-11.03363 -0.52758,0.32606 -0.70683,-0.0649 -0.39833,-0.86885 0.30849,-0.80392 -0.14666,-2.82994 -1.01146,-4.50227 -2.0001,-3.86777 -2.02704,-6.32517 -0.0405,-3.69879 2.06445,2.72944 1.82468,1.17795 -0.5318,-3.44113 -2.13911,-4.193 -2.49566,-6 -1.18389,-6 0.44886,0 2.07281,2.88641 3.60878,6.41425 1.53597,3.52784 3.81107,7.29973 5.05578,8.382 l 2.26311,1.96774 0.11632,-23.13199 c 0.064,-12.7226 0.63551,-33.257 1.27007,-45.632 0.93386,-18.21171 0.88911,-26.21652 -0.23484,-42 -1.46677,-20.597838 -1.89666,-67.252662 -0.67033,-72.749999 l 0.72495,-3.25 -15.51018,0 c -15.024591,0 -15.477771,0.06056 -14.475001,1.934259 0.56935,1.063842 1.03518,3.763842 1.03518,6 0,3.850823 0.15859,4.065741 3,4.065741 2.948521,0 3.000521,-0.09009 3.030411,-5.25 0.0385,-6.648071 1.4544,-4.467614 2.36065,3.635369 0.36203,3.236953 0.87957,6.243509 1.1501,6.681237 0.96061,1.554293 0.72692,72.930043 -0.34192,104.433393 -0.73662,21.71164 -1.58322,34.17955 -2.63318,38.77908 -0.85112,3.7285 -2.227261,12.2785 -3.058091,19 -1.91136,15.46327 -3.52595,23.72092 -4.63807,23.72092 -0.47844,0 -0.8699,1.575 -0.8699,3.5 0,5.82197 -1.72004,3.93278 -2.959,-3.25 -0.64037,-3.7125 -2.68689,-12.825 -4.54781,-20.25 -4.43624,-17.70037 -5.93832,-34.95705 -5.17905,-59.5 0.65244,-21.08988 2.57367,-32.63806 7.77195,-46.71585 1.68242,-4.55628 4.54221,-12.33415 6.35509,-17.28415 1.81287,-4.949998 4.08337,-13.387499 5.04556,-18.749999 0.962181,-5.3625 2.146291,-9.75 2.631341,-9.75 0.48506,0 0.88192,-2.426855 0.88192,-5.393011 0,-5.833597 -0.70528,-6.606989 -6.025081,-6.606989 -1.80578,0 -3.47792,0.830116 -4.53227,2.25 -1.56396,2.106167 -1.64093,2.11931 -1.20409,0.2056 0.37645,-1.649134 -0.0204,-2.035816 -2.05275,-2 -3.11052,0.05482 -3.39865,0.865484 -2.32601,6.5444 l 0.84996,4.5 1.60598,-3.5 c 0.88329,-1.925 1.62359,-2.77965 1.64512,-1.899223 0.0483,1.97689 -1.58407,7.106823 -3.9456,12.399223 -0.98166,2.2 -3.65055,10.444157 -5.93086,18.320351 -2.2803,7.876188 -5.04183,16.651188 -6.13671,19.499998 -5.92871,15.42602 -8.43821,34.56899 -7.65118,58.36479 0.61765,18.67442 1.78556,27.12719 5.70842,41.31486 3.21878,11.64121 5.91877,25.43183 6.72123,34.32972 0.31734,3.5187 1.05319,6.03211 1.85624,6.34027 0.73177,0.28081 3.38142,0.0731 5.8881,-0.46148 5.55875,-1.18557 7.07438,0.26855 1.8051,1.73184 -7.70942,2.14093 -11.2756,0.68731 -11.2756,-4.59607 0,-1.53922 -0.66531,-6.18387 -1.47847,-10.32143 -0.81315,-4.13757 -1.77553,-9.32285 -2.1386,-11.52285 l -0.66014,-4 -0.9572,3.5 c -0.52647,1.925 -0.7319,5.1876 -0.45652,7.25023 0.31885,2.3883 0.13336,3.52321 -0.51077,3.12511 -0.5563,-0.34381 -2.76164,-0.0475 -4.90077,0.65848 -3.45814,1.14129 -4.1123,1.08179 -5.90074,-0.53673 -1.97999,-1.79186 -2.0035,-1.7709 -1.50411,1.3413 0.27903,1.73888 0.70308,4.42163 0.94233,5.96165 0.62171,4.00181 -2.21331,5.60602 -7.42643,4.20227 -6.04125,-1.62674 -6.10436,-3.21656 -0.096,-2.41953 5.98395,0.7938 5.8968,1.06178 3.64936,-11.22231 -2.21597,-12.11206 -2.85001,-27.71647 -1.59931,-39.36047 0.6203,-5.775 1.52413,-17.925 2.00851,-27 0.48438,-9.075 1.33687,-19.425 1.89442,-23 1.48683,-9.53353 3.4836,-53.134048 2.61458,-57.090679 -0.40984,-1.865979 -0.8815,-5.196428 -1.04813,-7.401003 -0.16663,-2.204574 -1.06484,-8.733317 -1.99603,-14.508317 -2.15794,-13.383084 -2.88728,-24 -1.6487,-24 0.52324,0 1.00998,2.5875 1.08165,5.75 0.0717,3.1625 0.79767,8.9 1.61335,12.75 0.81567,3.85 1.49086,8.231042 1.50041,9.735649 0.0333,5.252057 4.33264,20.642972 8.69118,31.1132 1.33912,3.21687 2.25308,6.59187 2.03102,7.5 -0.42142,1.72347 -1.5118,-0.41573 -5.27499,-10.34885 l -1.89426,-4.999998 -0.65718,8.499998 c -0.36144,4.675 -0.96034,16.02696 -1.33087,25.22657 -0.37054,9.19961 -1.06931,18.10597 -1.55283,19.7919 -0.48352,1.68593 -1.16142,8.55897 -1.50644,15.27343 -0.34502,6.71445 -1.28535,19.54499 -2.08963,28.5123 -1.45634,16.23756 -1.16468,31.59448 0.71788,37.79875 0.51784,1.70662 2.07772,4.17035 3.4664,5.47494 2.34356,2.20167 2.71334,2.26608 5.14963,0.89705 2.17593,-1.22273 2.90391,-2.78544 4.25722,-9.13876 1.59548,-7.49017 1.58091,-7.84136 -0.643,-15.5 -3.88897,-13.39265 -5.66242,-27.4963 -5.70076,-45.33618 -0.0514,-23.91383 1.67349,-35.10272 8.47289,-54.96178 2.17276,-6.34602 4.61844,-14.11125 5.43484,-17.256068 0.81639,-3.14481 1.72624,-6.348173 2.02187,-7.118575 0.31725,-0.826743 -0.23732,-1.603355 -1.35334,-1.895202 -1.39365,-0.364448 -2.19785,-2.04244 -3.05838,-6.381421 -1.14922,-5.794665 -3.36913,-21.365872 -4.65288,-32.636953 l -0.65492,-5.75 -3.47783,0 c -1.9128,0 -10.31792,1.327868 -18.67804,2.950818 -8.36012,1.62295 -16.10022,3.091612 -17.20022,3.263695 -1.1,0.172082 -2.00689,0.756714 -2.01531,1.299182 -0.008,0.542468 -0.36975,1.544397 -0.80296,2.226508 -0.61019,0.960785 0.57609,1.097665 5.26531,0.607544 3.78264,-0.395364 6.05296,-0.258389 6.05296,0.365192 0,0.548818 -2.94334,1.272705 -6.54077,1.608638 -7.70342,0.719357 -9.01755,1.300759 -7.38534,3.267451 0.7424,0.894537 3.13926,1.410972 6.54856,1.410972 2.95765,0 5.37755,0.45 5.37755,1 0,0.55 -1.125,1 -2.5,1 -1.375,0 -2.5,0.45 -2.5,1 0,0.55 -0.9,1 -2,1 -1.1,0 -2,0.480324 -2,1.067388 0,0.623341 0.85864,0.794866 2.06398,0.412307 1.62709,-0.516419 1.99751,-0.266095 1.75,1.182613 -0.17269,1.01073 -0.98898,2.143564 -1.81398,2.517407 -1.26934,0.575195 -1.24735,0.690522 0.14301,0.75 1.79408,0.07675 3.46974,3.070285 1.71862,3.070285 -0.59158,0 -0.8274,0.646807 -0.52404,1.43735 0.31662,0.825104 -0.17025,1.659295 -1.14301,1.958403 -0.93202,0.286579 -0.21226,0.3898 1.59945,0.229381 1.81172,-0.16042 3.52578,0.0833 3.80902,0.541597 0.28324,0.458298 -0.52407,0.878125 -1.79403,0.932949 -2.26677,0.09786 -2.26328,0.11305 0.19098,0.830486 2.43253,0.711083 2.40892,0.751759 -0.87492,1.507212 -2.43509,0.560197 -3.61434,0.398546 -4.23468,-0.580486 -0.65676,-1.036503 -0.86339,-0.912788 -0.87508,0.52395 -0.0129,1.590888 0.52143,1.793741 3.46636,1.315844 4.21067,-0.683297 5.61681,0.785748 1.76141,1.840208 l -2.74309,0.750241 2.5,0.756753 c 2.17979,0.659824 2.01157,0.769519 -1.31335,0.856432 -3.68295,0.09627 -3.80265,0.210825 -3.5,3.34968 0.28608,2.9671 0.63977,3.27702 4.06335,3.56037 2.0625,0.170701 3.75,0.733201 3.75,1.250001 0,0.51679 -1.6875,1.01165 -3.75,1.09967 l -3.75,0.16003 3.5,0.45936 3.5,0.45935 -3.5,1.382 -3.5,1.382008 3.25,-0.3282 c 4.2095,-0.4251 4.2095,0.94 0,1.93369 l -3.25,0.76719 3,0.69395 c 2.27098,0.52532 2.46758,0.7227 0.80902,0.81227 -1.20504,0.0651 -2.49046,0.60288 -2.8565,1.19514 -0.44237,0.71577 0.37608,0.91267 2.44098,0.58724 1.70858,-0.26928 3.1065,-0.0789 3.1065,0.42317 0,0.50202 -0.87344,0.91276 -1.94098,0.91276 -1.06754,0 -2.17892,0.38499 -2.46974,0.85554 -0.29081,0.47055 0.69513,0.69363 2.19099,0.49574 l 2.71973,-0.3598 -3,1.45915 -3,1.45916 3.80902,0.0451 c 2.27515,0.0269 3.56014,0.44779 3.19098,1.0451 -0.33992,0.55 -1.94147,1 -3.55901,1 -1.8144,1e-5 -2.94099,0.52149 -2.94099,1.36134 0,0.91286 0.82359,1.20389 2.5,0.88342 1.45935,-0.27897 2.5,-0.0131 2.5,0.63867 0,0.61412 -0.7875,1.14821 -1.75,1.18687 -1.49644,0.0601 -1.46021,0.19481 0.25,0.92971 1.77225,0.76156 1.68685,0.86743 -0.75,0.92971 -3.89078,0.0995 -3.43388,2.0555 0.5,2.14058 2.72353,0.0589 2.92602,0.2095 1.25,0.92971 -1.1,0.47269 -1.4375,0.89106 -0.75,0.92971 1.87315,0.10533 1.50532,1.85692 -0.5,2.38096 -1.31691,0.34415 -1.19317,0.48604 0.5,0.57333 3.08943,0.15928 2.85825,2.116 -0.25,2.116 -1.375,0 -2.5,0.3876 -2.5,0.86133 0,0.47373 1.125,0.64627 2.5,0.38342 1.45935,-0.27897 2.5,-0.0131 2.5,0.63867 0,0.61412 -1.2375,1.17582 -2.75,1.24822 -2.42981,0.11632 -2.34249,0.20935 0.75,0.79903 l 3.5,0.6674 -3.25,0.78042 c -4.04543,0.97143 -4.30091,2.42937 -0.3234,1.84559 4.22143,-0.61957 3.55065,2.89555 -0.766,4.01411 -4.1128,1.06573 -4.06011,2.73996 0.0894,2.84076 l 3.25,0.0789 -3,1.10734 -3,1.10733 2.5,0.71404 c 2.30159,0.65737 2.32611,0.72195 0.30902,0.81372 -3.93773,0.17915 -3.61287,2.09237 0.38197,2.24951 3.3837,0.1331 3.47404,0.19753 0.80901,0.57695 -4.7831,0.68098 -5.42124,2.2625 -0.95,2.35444 l 3.95,0.0812 -3,1.37367 c -2.93982,1.34619 -2.94985,1.37555 -0.5,1.46395 2.44985,0.0884 2.43982,0.11776 -0.5,1.46389 -2.95642,1.35372 -2.96368,1.37577 -0.5,1.51828 l 2.5,0.1446 -2.31424,0.92816 c -2.70592,1.08524 -2.03605,2.90102 1.12326,3.04475 2.03959,0.0928 2.01824,0.155 -0.30902,0.90032 -2.3984,0.7681 -2.40856,0.80469 -0.25,0.90032 3.39652,0.15047 2.70027,2.09968 -0.75,2.09968 -1.65,0 -3,0.49878 -3,1.10841 0,0.65132 0.93128,0.87467 2.25831,0.54161 1.24207,-0.31174 2.92957,-0.14242 3.75,0.37628 1.09021,0.68925 0.48239,0.9472 -2.25831,0.95839 -3.32925,0.0136 -3.75,0.29581 -3.75,2.51531 0,2.14583 0.45334,2.5 3.2,2.5 3.61519,0 2.79228,1.56294 -1.2,2.27914 -1.97839,0.35492 -1.78018,0.47691 0.95,0.58468 3.79839,0.14993 3.20021,1.67079 -0.95,2.41532 -2.09619,0.37605 -1.97504,0.47049 0.75,0.58468 1.7875,0.0749 3.25,0.58618 3.25,1.13618 0,0.55 -1.4625,1.05924 -3.25,1.13164 l -3.25,0.13164 3.5,0.68682 3.5,0.68682 -3.5,1.09135 c -3.30788,1.03145 -3.34905,1.0963 -0.75,1.18154 3.43406,0.11262 3.67059,2.09019 0.25,2.09019 -1.375,0 -2.5,0.47656 -2.5,1.05902 0,0.58246 0.44644,0.7831 0.99208,0.44587 0.54565,-0.33722 1.78315,-0.15246 2.75,0.41058 1.50158,0.87444 1.34831,1.02815 -1.05109,1.05412 -1.61204,0.0174 -2.54566,0.45653 -2.19099,1.03041 0.33992,0.55 1.71648,1 3.05902,1 3.97908,0 2.7757,1.98572 -1.30902,2.16004 -3.6921,0.15756 -3.69982,0.16626 -0.5,0.56336 3.95415,0.4907 4.31741,2.23068 0.5,2.39491 l -2.75,0.11832 3,0.71361 3,0.71361 -3.5,1.07789 c -3.05578,0.94108 -3.1827,1.09737 -1,1.23146 l 2.5,0.15357 -2.5,1.11005 c -2.49416,1.10746 -2.49474,1.11098 -0.25,1.50617 1.2375,0.21786 2.25,0.78352 2.25,1.25701 0,0.47349 -1.0125,1.05591 -2.25,1.29427 -2.00548,0.38627 -1.96277,0.44817 0.39301,0.56955 3.70463,0.19088 4.4366,2.76518 1.04042,3.65906 -2.48222,0.65333 -2.53347,0.7674 -0.68343,1.52142 1.9,0.77437 1.88749,0.81864 -0.25,0.88541 -1.30209,0.0407 -2.25,0.70223 -2.25,1.57029 0,1.11111 1.16667,1.5 4.5,1.5 2.475,0 4.5,0.45 4.5,1 0,0.55 -1.8,1 -4,1 -2.2,0 -4,0.3876 -4,0.86133 0,0.47373 1.07226,0.65635 2.38279,0.40583 1.31053,-0.25053 2.68708,0.0369 3.05901,0.63867 0.4227,0.68394 -0.37694,1.14523 -2.13278,1.23035 -2.35835,0.11434 -2.44804,0.20571 -0.55902,0.56955 2.91661,0.56177 2.91661,2.27549 0,2.35766 -2.18768,0.0616 -2.18075,0.0922 0.25,1.10501 2.38186,0.99239 2.40549,1.08059 0.5,1.86632 -1.70275,0.70214 -1.7399,0.83516 -0.25,0.89499 1.94794,0.0782 2.38379,1.69236 0.61607,2.2816 -0.72234,0.24078 -0.48199,1.02991 0.66218,2.17408 1.12165,1.12165 1.40992,2.04367 0.76768,2.45536 -0.6883,0.44122 -0.55937,2.25486 0.38983,5.48382 1.41303,4.80681 1.43187,4.8226 5.11625,4.28777 2.0339,-0.29524 3.73735,-0.5538 3.78545,-0.57457 0.0761,-0.0329 1.49119,-68.20809 1.78581,-86.03777 0.0591,-3.575 -0.21637,-12.8 -0.61209,-20.5 -1.17103,-22.78621 -2.13364,-83.879856 -1.3696,-86.924023 0.38817,-1.546586 0.89211,-2.625623 1.11987,-2.397862 0.22776,0.227762 0.67547,14.793361 0.99491,32.367999 0.31944,17.574638 0.73731,34.653886 0.9286,37.953886 0.87008,15.00992 0.99737,56.23036 0.27949,90.5 -0.43206,20.625 -0.76956,37.8926 -0.75,38.37244 0.0196,0.47985 -0.52695,0.41146 -1.21445,-0.15196 -0.78721,-0.64514 -3.47139,-0.73902 -7.25,-0.25356 -3.3,0.42396 -5.03564,0.82985 -3.85699,0.90196 1.17866,0.0721 2.40204,0.80612 2.71862,1.63112 0.42131,1.09791 -0.15315,1.51988 -2.14301,1.57416 -2.53553,0.0692 -2.44923,0.19923 1.28138,1.93121 l 4,1.85704 -6.5,-0.57117 c -3.575,-0.31414 -6.725,-0.77091 -7,-1.01503 -0.275,-0.24413 -0.31491,-15.14365 -0.0887,-33.11004 0.62749,-49.83551 0.45783,-107.0237 -0.3959,-133.448675 -0.70363,-21.778744 -0.92622,-23.866985 -2.64189,-24.785184 -2.44324,-1.307586 -2.38647,-4.419357 0.12648,-6.93231 2.43253,-2.432525 2.5174,-3.611073 0.34748,-4.82542 -1.21904,-0.68221 -1.88973,-3.252822 -2.5568,-9.79969 -1.98714,-19.50266 -1.26565,-20.610048 16.70932,-25.646569 4.95,-1.386972 15.075,-4.003494 22.5,-5.814493 l 13.5,-3.2927265 27.000001,-0.06055 c 29.40722,-0.06595 32.01828,0.26094 52.97694,6.6323965 11.69069,3.553981 19.38154,6.808388 21.79633,9.223183 2.0133,2.013293 2.25436,6.774963 0.50119,9.899611 -0.67405,1.201343 -1.46155,4.873242 -1.75,8.159778 -0.44674,5.08995 -0.89052,6.15727 -2.99451,7.20192 -2.90778,1.443737 -4.1258,4.153679 -2.91533,6.486237 0.47484,0.915022 1.08443,20.490022 1.35463,43.500004 0.27021,23.009968 0.73434,53.536318 1.03141,67.836318 1.73083,83.31736 1.62467,96.5 -0.77711,96.5 -0.66862,0 -0.78745,-3.56788 -0.34616,-10.39351 0.61359,-9.49064 0.44895,-11.07601 -1.8952,-18.25 -1.41194,-4.32107 -3.01685,-11.23149 -3.56646,-15.35649 -0.54961,-4.125 -1.68727,-9.525 -2.52814,-12 -5.48765,-16.15228 -7.91584,-33.6541 -7.70739,-55.55306 0.13572,-14.25742 1.59701,-25.98836 7.28057,-58.446938 1.58906,-9.075 3.17029,-19.3125 3.51387,-22.75 0.58339,-5.836988 0.48923,-6.250001 -1.42498,-6.250001 -1.12731,0 -2.04966,-0.45 -2.04966,-1 0,-0.55 1.36412,-1 3.03138,-1 3.45811,0 4.86023,-2.220748 2.89624,-4.587212 -0.91098,-1.097662 -2.6266,-1.465322 -5.77347,-1.237265 -2.93747,0.212881 -4.62238,-0.105429 -4.89907,-0.925523 -0.296,-0.877295 0.91999,-1.25 4.07825,-1.25 4.52316,0 5.73355,-0.985195 4.94593,-4.025726 -0.28849,-1.113671 -3.41787,-1.991708 -11.58724,-3.251124 -15.2177,-2.346009 -14.47619,-2.470093 -15.10027,2.52685 -1.22987,9.847298 -1.74231,33.075158 -2.15651,97.749999 -0.37783,58.99668 -0.23388,68.9162 1.03756,71.5 0.81194,1.65 2.91971,6.58357 4.68392,10.9635 3.37594,8.38124 9.77393,16.88732 9.80563,13.0365 0.009,-1.1 -0.87851,-7.79845 -1.97237,-14.88543 -1.78512,-11.56558 -2.00036,-18.32597 -2.10131,-66 -0.10998,-51.93518 0.69819,-104.879988 1.69991,-111.364569 0.82139,-5.317241 2.30419,-3.686931 1.81904,2 -0.98997,11.604375 -2.15183,96.297169 -1.74569,127.249999 0.33838,25.78832 0.8597,35.88811 2.38554,46.21573 1.07389,7.26866 1.95253,13.4446 1.95253,13.72432 0,0.27973 1.32765,1.19515 2.95034,2.03427 3.36361,1.73939 8.62624,2.0198 9.55974,0.50937 0.34546,-0.55897 1.05436,-0.75288 1.57533,-0.4309 1.35072,0.83479 0.12356,2.41726 -2.70991,3.49454 -1.66281,0.6322 -3.71455,0.48148 -6.49742,-0.47729 -4.36851,-1.50508 -4.46061,-1.36294 -2.38454,3.67996 1.42002,3.44934 -1.75745,1.71845 -7.36006,-4.00931 -4.5131,-4.6139 -6.31408,-7.49653 -9.05569,-14.49445 -1.88221,-4.80434 -3.56917,-8.5882 -3.74879,-8.40858 -0.17961,0.17962 0.0175,6.05862 0.43798,13.06445 0.4205,7.00582 0.52329,13.12822 0.22843,13.60531 -1.83678,2.97198 -14.2188,4.04721 -17.55428,1.52438 -2.91323,-2.20346 -4.44113,-1.83356 -4.44113,1.07519 0,1.96639 -0.38868,2.45784 -1.58179,2 -0.86998,-0.33385 -1.97932,-0.60699 -2.4652,-0.60699 -0.48588,0 -2.48919,-1.40989 -4.4518,-3.13308 -1.96261,-1.7232 -3.81694,-2.88452 -4.12074,-2.58072 -0.3038,0.30379 -0.70319,4.00319 -0.88754,8.22087 -0.35395,8.09775 -0.78079,9.5319 -2.15127,7.22805 z M 30.970519,248.74485 c -0.0882,-0.36475 0.44053,-1.04411 1.175,-1.50968 1.0239,-0.64903 0.92719,-0.85007 -0.41459,-0.86181 -1.265,-0.0111 -1.72812,0.74682 -1.67105,2.73469 0.0434,1.5125 0.30217,2.19875 0.575,1.525 0.27283,-0.67375 0.42387,-1.52344 0.33564,-1.8882 z m 105.386341,-2.28383 c 0.87432,-0.72562 1.04135,-2.72685 0.56883,-6.81512 -0.61143,-5.29013 -1.36046,-24.80566 -1.27763,-33.28785 0.0188,-1.925 0.29754,-31.6369 0.61943,-66.02645 0.32188,-34.38955 0.83324,-64.764548 1.13634,-67.5 0.30311,-2.735452 0.77813,-10.486049 1.05562,-17.223549 l 0.50451,-12.25 -6.44451,0 -6.44451,0 -1.04143,3.75 c -1.37099,4.936699 -1.35918,48.900901 0.0158,58.786569 0.5876,4.22471 1.1501,16.74477 1.25,27.82236 0.20636,22.88293 -1.25998,98.91515 -1.9204,99.57609 -0.23908,0.23927 -2.27779,-1.33573 -4.53048,-3.5 l -4.0958,-3.93502 1.73697,3.43785 c 1.32236,2.61724 1.59404,4.80539 1.13816,9.167 -0.58651,5.6114 -0.53251,5.77297 2.62718,7.86148 2.60247,1.72019 4.25406,2.03874 8.54506,1.64813 2.92548,-0.26632 5.87607,-0.94649 6.55686,-1.51149 z M 95.988979,225.04307 c 1.11342,-8.35176 2.78358,-19.01002 3.71145,-23.68502 1.178441,-5.93752 1.701121,-13.7757 1.733771,-26 l 0.0467,-17.5 -6.928151,-14.30735 c -4.46269,-9.21592 -7.19446,-13.83148 -7.67651,-12.97011 -1.14953,2.0541 -3.68211,17.32356 -4.38821,26.45747 -0.60741,7.85719 -0.49679,8.46889 2.80312,15.5 1.88951,4.02599 5.53531,9.73987 8.10176,12.69751 2.56646,2.95763 4.38502,5.65763 4.04126,6 -0.97918,0.97518 -10.1365,-9.83132 -13.03077,-15.37752 l -2.60924,-5 0.65222,15 c 0.81329,18.7044 1.61236,24.19766 6.28489,43.20622 2.65704,10.80921 3.95408,14.62178 4.48557,13.18503 0.41123,-1.11167 1.65868,-8.85447 2.77211,-17.20623 z m -62.00805,16.4086 c 0,-0.49851 -0.9,-0.67103 -2,-0.38337 -1.1,0.28766 -2,0.69553 -2,0.90638 0,0.21085 0.9,0.38337 2,0.38337 1.1,0 2,-0.40787 2,-0.90638 z m -1.27083,-4.69779 c -0.33229,-0.33229 -1.19479,-0.36781 -1.91667,-0.0789 -0.79773,0.31922 -0.56077,0.55618 0.60417,0.60416 1.05417,0.0434 1.64479,-0.19293 1.3125,-0.52522 z M 170.37603,171.10805 c -0.27809,-32.0375 -0.88288,-65.225 -1.34398,-73.749998 -0.46111,-8.525001 -0.6045,-19.100001 -0.31866,-23.500001 0.28584,-4.4 0.21183,-7.711357 -0.16447,-7.358571 -0.3763,0.352786 -0.86979,4.050529 -1.09664,8.217205 -0.22685,4.166677 -1.07232,10.42107 -1.87883,13.898652 -2.3339,10.063605 -7.52437,47.249933 -8.19931,58.742713 -0.45248,7.70474 -0.18757,12.72568 0.99508,18.86047 0.88644,4.59826 1.61171,11.38059 1.61171,15.07186 0,3.69127 0.62667,8.70405 1.39259,11.13953 4.54519,14.45269 5.48333,17.91528 6.07655,22.42814 0.68434,5.20596 2.71638,14.5 3.17027,14.5 0.14372,0 0.0338,-26.2125 -0.24431,-58.25 z M 33.710099,209.75388 c -0.33229,-0.33229 -1.19479,-0.36781 -1.91667,-0.0789 -0.79773,0.31922 -0.56077,0.55618 0.60417,0.60416 1.05417,0.0434 1.64479,-0.19293 1.3125,-0.52522 z M 102.59351,133.0467 c -0.2413,-2.09624 -2.12726,-8.55069 -4.191031,-14.34321 l -3.75231,-10.53187 -1.69569,3.48615 c -0.93263,1.91738 -2.47265,5.67183 -3.42228,8.34322 l -1.7266,4.85706 5.9437,12 c 3.26903,6.6 6.329291,13.125 6.800571,14.5 0.67216,1.9611 1.03206,0.66774 1.66961,-6 0.44701,-4.675 0.61532,-10.21511 0.37403,-12.31135 z m 1.1926,-31.18809 c -0.16785,-12.924685 -0.5649,-23.499685 -0.88233,-23.499995 -0.31743,-3.1e-4 -1.13186,3.009959 -1.80984,6.689486 -0.67798,3.679528 -2.327791,9.82449 -3.666261,13.655481 -1.55865,4.461188 -2.09839,7.369288 -1.50128,8.088758 0.51276,0.61784 2.35235,5.04788 4.087981,9.84453 1.73564,4.79665 3.36297,8.72118 3.6163,8.72118 0.25333,0 0.32328,-10.57475 0.15543,-23.49944 z M 83.908539,83.336458 c 2.04632,-5.612239 2.11015,-6.529984 0.93898,-13.5 -1.13893,-6.778149 -1.47242,-7.478407 -3.56159,-7.478407 -1.26775,0 -2.305,-0.45 -2.305,-1 0,-0.55 0.9,-1 2,-1 1.33334,0 2,-0.666667 2,-2 0,-1.543099 -0.66666,-2 -2.91821,-2 -5.92301,0 -5.89017,-0.110443 -3.9512,13.287316 1.91972,13.264733 3.48179,19.712684 4.77556,19.712684 0.45423,0 1.81388,-2.709717 3.02146,-6.021593 z m 8.82843,-25.728407 c 0.28349,-0.86296 -0.8537,-1.25 -3.6727,-1.25 -3.03318,0 -4.08334,0.401298 -4.08334,1.560365 0,1.186921 0.879,1.486085 3.6727,1.25 2.01999,-0.170701 3.85749,-0.872865 4.08334,-1.560365 z m 9.243961,0.189635 c 0,-1.186921 -0.87899,-1.486085 -3.672701,-1.25 -5.27539,0.445802 -5.62088,2.810365 -0.41063,2.810365 3.033171,0 4.083331,-0.401298 4.083331,-1.560365 z m -21.750001,-3.42598 c 1.377,-0.01075 1.75,-0.87881 1.75,-4.072672 0,-2.451367 0.39607,-3.814233 1,-3.440983 0.55,0.339919 1,2.166476 1,4.059017 0,3.426906 0.019,3.440983 4.63991,3.440983 l 4.6399,0 -0.57852,-5.60528 c -0.31818,-3.082904 -0.71864,-5.742074 -0.8899,-5.909266 -0.17126,-0.167193 -4.24889,0.175163 -9.06139,0.760792 l -8.75,1.064778 0,5.461119 c 0,5.175376 0.11773,5.42957 2.25,4.858143 1.2375,-0.331637 3.0375,-0.609121 4,-0.616631 z m -31.67112,-7.929981 c 8.20662,-1.60398 20.77112,-3.51648 27.92112,-4.25 18.04502,-1.851244 57.875391,-1.518459 71.500001,0.597387 17.98992,2.79376 24.32716,3.57511 24.83967,3.062605 0.27214,-0.272139 0.64908,-3.06408 0.83764,-6.204313 0.18857,-3.140234 0.78832,-6.154979 1.33277,-6.699435 1.53487,-1.534863 1.17808,-3.599353 -0.51008,-2.951544 -0.91983,0.352972 -1.5,-8.34e-4 -1.5,-0.914754 0,-0.819696 0.93367,-1.734517 2.07482,-2.032934 6.22619,-1.628186 -5.75665,-7.516436 -27.57482,-13.549995 -16.18933,-4.4769695 -18.01249,-4.6528735 -47,-4.5346765 l -26.000001,0.106014 -16.69033,4.1114965 c -30.00594,7.391659 -33.80967,9.276365 -33.80967,16.752317 0,4.143062 1.14006,4.863068 5.44866,3.441104 3.25931,-1.075671 3.36313,-1.258395 2.35621,-4.146863 -0.71609,-2.054169 -0.72672,-3.348231 -0.0332,-4.041747 0.69351,-0.693515 1.24154,0.290341 1.71165,3.072878 0.5957,3.525929 0.99113,4.029592 2.8541,3.635263 1.18942,-0.251763 4.69256,-0.945425 7.78475,-1.541472 l 5.62216,-1.083723 -0.3331,-4.705641 -0.33311,-4.705641 1.06912,4.75 c 1.35213,6.007385 2.47832,6.147509 2.00928,0.25 -0.22465,-2.824552 0.0519,-4.5 0.74279,-4.5 0.63267,0 1.10069,1.854454 1.10069,4.361328 0,4.08211 0.15593,4.33152 2.43561,3.895733 2.12956,-0.407091 2.31804,-0.774815 1.5,-2.926428 -1.17436,-3.088807 -1.20881,-6.330633 -0.0673,-6.330633 0.47759,0 1.11475,1.837164 1.41593,4.082587 0.64561,4.813413 0.89955,5.167846 3.09814,4.324169 1.25624,-0.482065 1.39733,-0.967242 0.57087,-1.963067 -0.60378,-0.72751 -0.93316,-2.587458 -0.73195,-4.133217 0.34057,-2.616402 0.4518,-2.516999 1.6108,1.439528 0.73629,2.513488 1.84694,4.25 2.71825,4.25 1.16693,0 1.34026,-0.883697 0.83359,-4.25 -0.44223,-2.938147 -0.31767,-3.941329 0.40351,-3.25 0.57375,0.55 1.19379,2.125 1.37786,3.5 0.33399,2.494868 0.35725,2.5 11.33467,2.5 l 11,0 -0.18548,-4.5 -0.18549,-4.5 1.07757,4.25 c 0.80942,3.192427 1.56652,4.25 3.04247,4.25 1.38668,0 1.78503,-0.46876 1.35366,-1.592901 -1.39538,-3.636285 -1.75818,-6.407099 -0.83894,-6.407099 0.53933,0 1.26843,1.8 1.62022,4 0.41649,2.604611 1.1629,4 2.13963,4 1.200151,0 1.369871,-0.849566 0.849021,-4.25 -0.741421,-4.840486 0.51578,-4.530532 1.51896,0.374489 1.03011,5.036634 3.00498,4.787972 2.54509,-0.320459 l -0.38748,-4.30403 1.03424,4.25 c 0.58664,2.410725 1.62303,4.25 2.39477,4.25 1.07908,0 1.15526,-0.74347 0.36826,-3.593771 -0.54576,-1.976574 -0.74508,-3.840982 -0.44293,-4.143128 0.58371,-0.583719 1.07589,0.612909 2.00197,4.867407 0.31492,1.44678 1.41566,2.850977 2.44608,3.120439 1.66813,0.436225 1.83247,-0.01656 1.49921,-4.130508 l -0.3743,-4.620439 1.542,4.75 c 1.4005,4.314165 1.82656,4.75 4.6434,4.75 3.04106,0 3.09097,-0.07783 2.5649,-4 -0.29509,-2.2 -0.12934,-4 0.36833,-4 0.49766,0 0.90484,1.8 0.90484,4 0,3.750948 0.18132,4 2.9121,4 2.61816,0 2.98032,-0.403762 3.5879,-4 0.37169,-2.2 1.02582,-4 1.45362,-4 0.42781,0 0.44868,1.8 0.0464,4 -0.63979,3.498739 -0.49765,4 1.13427,4 1.46406,0 1.89628,-0.807334 2.00764,-3.75 l 0.1419,-3.75 0.6081,3.921832 c 1.02126,6.586496 4.05104,4.979396 4.09444,-2.171832 0.007,-1.2375 0.46363,-2.25 1.01363,-2.25 1.25929,0 1.28868,3.110525 0.0599,6.342427 -0.91278,2.400783 -0.79654,2.482578 4.00062,2.8151 l 4.94071,0.342473 -6.2e-4,-3.75 c -3.5e-4,-2.117012 0.4905,-3.75 1.12719,-3.75 0.75471,0 0.91733,1.316252 0.49157,3.978832 -0.57115,3.571742 -0.40518,4.026292 1.62219,4.44271 17.92214,3.68118 21.1609,4.57913 20.13563,5.582627 -0.49033,0.479925 -5.28741,-0.21493 -10.8772,-1.575562 -14.47051,-3.522322 -29.40124,-4.683122 -60.5,-4.703615 -20.606151,-0.01358 -30.382881,0.403104 -39.000001,1.662174 -17.88766,2.613612 -30.38866,4.735009 -31.32967,5.316584 -0.47227,0.291876 -0.65369,1.602936 -0.40317,2.913467 0.25054,1.310531 0.0679,2.382783 -0.40582,2.382783 -1.37754,0 -0.99338,2.99664 0.38867,3.031803 0.70412,0.01792 0.4023,0.672977 -0.69113,1.5 -1.69265,1.280259 -1.72465,1.468197 -0.25,1.468197 0.93013,0 1.69113,0.675 1.69113,1.5 0,1.985742 0.29349,1.962095 17.57888,-1.416326 z M 27.980929,28.191384 c 0,-4.912662 0.47445,-4.772722 1.41266,0.416667 0.42922,2.374094 0.29444,3.75 -0.36734,3.75 -0.57493,0 -1.04532,-1.875 -1.04532,-4.166667 z m 8.02798,-0.259744 c -1.27066,-3.342088 -1.29959,-4.573589 -0.10743,-4.573589 1.06356,0 2.55091,5.861881 1.70259,6.710194 -0.31195,0.311951 -1.02977,-0.649522 -1.59516,-2.136605 z m 129.972021,1.317541 c 0,-0.829879 0.6983,-2.382379 1.55178,-3.45 1.49132,-1.865501 1.5259,-1.843727 0.8876,0.55887 -0.81968,3.085336 -2.43938,5.004991 -2.43938,2.89113 z M 41.587919,27.776264 c -1.0742,-2.799319 -0.65007,-5.187704 1.03614,-5.834763 0.90372,-0.34679 1.72606,-0.507435 1.82741,-0.356989 1.12359,1.667792 2.64843,6.987902 2.14668,7.489661 -0.3586,0.358595 -1.19283,-0.780834 -1.85384,-2.532065 -1.52347,-4.036115 -2.90963,-4.180799 -1.76338,-0.184057 0.88093,3.071607 -0.29797,4.271834 -1.39301,1.418213 z M 164.13077,26.358051 c 0.5752,-1.65 1.45179,-3 1.94799,-3 1.1676,0 1.13866,0.386865 -0.25835,3.452947 -1.61988,3.555251 -2.96152,3.195592 -1.68964,-0.452947 z m -5.64864,-0.927083 c 0.55055,-3.630993 1.14863,-4.756418 2.04914,-3.855914 0.30268,0.302684 -0.15147,2.065184 -1.00922,3.916666 l -1.55955,3.366331 0.51963,-3.427083 z m -4.69099,-1.572917 c 0.22473,-1.925 0.80937,-3.5 1.2992,-3.5 1.0201,0 1.18126,3.078945 0.2836,5.418213 -1.07667,2.805767 -2.00321,1.682888 -1.5828,-1.918213 z m -9.73992,0.309017 c -0.0387,-1.480041 0.37971,-2.969098 0.92971,-3.309017 1.19384,-0.737836 1.19384,1.221775 0,4 -0.7674,1.785834 -0.86696,1.711841 -0.92971,-0.690983 z M 73.730929,24.026264 c -0.4125,-1.007484 -0.73631,-3.032484 -0.71959,-4.5 0.0264,-2.319751 0.16539,-2.436337 1.06396,-0.892711 0.56846,0.976526 0.89227,3.001526 0.7196,4.5 -0.26221,2.275403 -0.43759,2.422554 -1.06397,0.892711 z m 4.92662,0.581787 c -1.20561,-2.048404 -1.74806,-7.25 -0.75607,-7.25 0.5937,0 1.07945,0.929584 1.07945,2.065741 0,1.136158 0.46584,2.936158 1.03519,4 0.97781,1.827066 -0.3163,2.95514 -1.35857,1.184259 z m 4.06178,0.06653 c -1.11785,-1.976192 -1.66861,-6.241627 -0.86969,-6.735389 0.48183,-0.297786 1.14461,1.113506 1.47285,3.136204 0.58479,3.603654 0.31386,5.220351 -0.60316,3.599185 z m 5.95196,-0.06653 c -1.0041,-1.76084 -1.80082,-8.702779 -0.88946,-7.75 1.03189,1.078793 2.60644,8.5 1.80343,8.5 -0.26746,0 -0.67875,-0.3375 -0.91397,-0.75 z m 37.922091,-0.356872 c -1.11827,-3.584464 -1.35266,-5.893128 -0.59829,-5.893128 1.00045,0 2.41202,5.907149 1.60454,6.714634 -0.31439,0.314392 -0.7672,-0.05529 -1.00625,-0.821506 z m -8.84484,-2.328482 c -0.25605,-1.339445 -0.13858,-2.964405 0.26105,-3.611023 0.41233,-0.667164 0.90894,0.386184 1.14817,2.435354 0.47019,4.027478 -0.68055,4.987496 -1.40922,1.175669 z M 31.980929,172.3771 c 0,-0.56048 1.425,-1.01905 3.16667,-1.01905 3.64128,0 3.50932,0.43653 -0.41667,1.37838 -1.63254,0.39164 -2.75,0.24563 -2.75,-0.35933 z m -0.76792,-81.019049 c 1.11427,-1.784233 4.76792,-2.878945 4.76792,-1.428571 0,1.176225 -2.91484,3.428571 -4.43704,3.428571 -1.32958,0 -1.382,-0.316888 -0.33088,-2 z"
     id="path9533"
     inkscape:connector-curvature="0" />
</svg>
