<?xml version="1.0" encoding="UTF-8" standalone="no"?>
<!-- Created with Inkscape (http://www.inkscape.org/) -->

<svg
   xmlns:dc="http://purl.org/dc/elements/1.1/"
   xmlns:cc="http://creativecommons.org/ns#"
   xmlns:rdf="http://www.w3.org/1999/02/22-rdf-syntax-ns#"
   xmlns:svg="http://www.w3.org/2000/svg"
   xmlns="http://www.w3.org/2000/svg"
   xmlns:sodipodi="http://sodipodi.sourceforge.net/DTD/sodipodi-0.dtd"
   xmlns:inkscape="http://www.inkscape.org/namespaces/inkscape"
   id="svg9523"
   version="1.1"
   inkscape:version="0.48.4 r9939"
   width="295.32373"
   height="497.33871"
   sodipodi:docname="PickledVegetables.svg">
  <metadata
     id="metadata9529">
    <rdf:RDF>
      <cc:Work
         rdf:about="">
        <dc:format>image/svg+xml</dc:format>
        <dc:type
           rdf:resource="http://purl.org/dc/dcmitype/StillImage" />
        <dc:title />
      </cc:Work>
    </rdf:RDF>
  </metadata>
  <defs
     id="defs9527" />
  <sodipodi:namedview
     pagecolor="#ffffff"
     bordercolor="#666666"
     borderopacity="1"
     objecttolerance="10"
     gridtolerance="10"
     guidetolerance="10"
     inkscape:pageopacity="0"
     inkscape:pageshadow="2"
     inkscape:window-width="1252"
     inkscape:window-height="745"
     id="namedview9525"
     showgrid="false"
     inkscape:zoom="0.82807018"
     inkscape:cx="88.382437"
     inkscape:cy="237.41732"
     inkscape:window-x="0"
     inkscape:window-y="22"
     inkscape:window-maximized="0"
     inkscape:current-layer="svg9523"
     fit-margin-top="0"
     fit-margin-left="0"
     fit-margin-right="0"
     fit-margin-bottom="0" />
  <path
     style="fill:#b3b3b3;fill-opacity:1;stroke:none"
     d="m 5.1737011,31.593424 c -6.496089,21.86289 1.515136,34.658715 2.272703,51.988082 C 53.847423,73.63201 100.24845,68.562091 146.64947,65.399875 193.07616,65.74657 239.58784,64.733531 285.28435,76.763399 L 293.2388,35.286578 C 277.55222,19.611019 273.43152,18.647231 196.08075,2.9005524 L 97.218177,1.1960258 C 66.518689,11.285314 32.2725,12.862507 5.1737011,31.593424 z"
     id="path9535"
     inkscape:connector-curvature="0"
     sodipodi:nodetypes="cccccccc" />
  <path
     style="fill:#f0922c;fill-opacity:0.34020619;stroke:none"
     d="m 12.821015,82.617812 -8.0352189,17.677468 8.4369789,12.45459 0,358.37076 c 37.845364,23.41031 86.015042,26.17199 136.598715,24.10565 52.13286,1.03849 92.32361,-8.67095 134.18815,-16.87397 -2.50599,-124.54825 -4.15679,-269.55805 -7.03615,-373.64476 -0.0203,-0.73479 -1.44519,-2.917 -0.0516,-3.60664 2.58515,-1.279235 2.1734,-5.988613 0.0346,-9.845911 -2.43371,-4.389214 0.33212,-5.758752 -0.98176,-12.253049 C 232.44273,63.222714 190.36237,67.766249 147.813,65.743841 95.303037,66.146072 102.51405,65.821191 12.821321,82.617812 z"
     id="path10045"
     inkscape:connector-curvature="0"
     sodipodi:nodetypes="ccccccssscccc" />
  <path
     style="fill:#f0922c;fill-opacity:0.7989691;stroke:none"
     d="m 15.400864,454.0321 31.817844,-2.27269 3.409053,12.49985 20.454327,-3.40906 c -1.52859,-6.58834 -4.987389,-13.17667 -1.538111,-19.76501 7.692088,5.06261 15.40487,3.87105 23.12879,-0.68931 l 4.00578,-28.40879 11.903143,60.22664 c 8.64731,4.98244 15.47777,-0.42265 23.12879,-1.13635 3.39684,-6.45301 11.49511,1.1983 17.77986,3.40905 l 4.40755,-28.9484 20.59219,11.90312 7.95445,-9.0908 c 12.54536,12.37928 23.66987,4.86644 35.2269,3.40906 l -0.13795,-54.73987 c 11.10385,17.38353 15.0742,38.33383 33.89556,51.85861 l 1.46919,-11.89132 c 13.10947,12.76739 19.10234,5.60827 27.27245,4.5454 L 275.62535,76.763399 150.62669,63.127186 10.855459,84.717869 z"
     id="path10047"
     inkscape:connector-curvature="0"
     sodipodi:nodetypes="cccccccccccccccccccccc" />
  <path
     style="fill:#000000"
     d="M 84.638557,495.71672 C 63.2037,494.20799 40.95117,488.12396 22.063467,478.60818 c -13.9199559,-7.013 -14.1373409,-10.0304 -0.6221,-8.63551 6.780505,0.69981 11.511577,2.3651 14.114682,4.96818 3.516965,3.51699 3.580293,3.93412 0.6221,4.09804 -1.811384,0.10031 4.328502,2.71241 13.644192,5.8045 12.510671,4.15262 22.840228,6.05738 39.521106,7.28771 55.888953,4.12215 126.626883,0.26788 159.025423,-8.66477 26.74286,-7.37333 27.8736,-7.55778 24.46545,-3.99068 -4.84887,5.075 -44.04301,14.12182 -70.37622,16.24429 -26.79693,2.15985 -87.11192,2.15819 -117.819543,-0.004 z M 149.2681,478.3579 c -0.87117,-1.4645 -5.44911,-4.9037 -10.17318,-7.64265 -6.87332,-3.98504 -9.08214,-4.51521 -11.0565,-2.65378 -1.9778,1.86464 -2.29512,1.76608 -1.59953,-0.49682 1.20991,-3.93606 6.92931,-3.78377 14.42511,0.38411 3.49444,1.94301 6.52842,3.28661 6.74215,2.9858 0.21374,-0.30083 1.84102,-9.86266 3.61622,-21.24851 1.77517,-11.38584 4.4222,-27.47658 5.8823,-35.75719 3.63856,-20.63531 8.0034,-61.44468 9.3599,-87.51103 0.61944,-11.90338 2.12793,-34.34573 3.3522,-49.87188 3.94657,-50.05102 2.02239,-164.50312 -3.25208,-193.435235 -1.61359,-8.851072 -1.70613,-12.560185 -0.30166,-12.092029 3.55498,1.184993 4.93417,12.483627 7.28445,59.675554 3.08818,62.00834 2.80166,113.60832 -0.95101,171.25814 -4.33062,66.52914 -4.87498,71.9284 -11.00491,109.15123 l -5.4233,32.93194 4.22675,3.3831 c 8.10427,6.48671 12.81976,9.35738 13.78509,8.39203 0.53467,-0.53465 1.85458,-6.64043 2.93317,-13.56839 2.02105,-12.98165 1.00058,-22.72705 -2.17436,-20.76482 -0.99288,0.61363 -1.33022,-0.12214 -0.74964,-1.63514 0.58056,-1.51295 -0.27601,-5.32583 -1.90353,-8.47308 -3.7641,-7.27898 -3.8148,-11.90371 -0.0762,-6.96097 3.8852,5.13669 3.43397,2.21685 -1.00083,-6.47606 -4.02571,-7.89105 -4.69673,-11.29175 -2.22803,-11.29175 0.84474,0 3.90094,5.4321 6.79157,12.07135 2.89063,6.63925 7.17227,13.73778 9.51476,15.77457 l 4.25908,3.7032 0.21891,-43.53342 c 0.12045,-23.9434 1.196,-62.58827 2.39022,-85.87749 1.75748,-34.27367 1.67327,-49.33838 -0.44196,-79.04222 -2.7604,-38.76426 -3.56943,-126.566651 -1.26153,-136.912412 l 1.36432,-6.116363 -29.1895,0 c -28.27564,0 -29.1285,0.114047 -27.24133,3.640196 1.07149,2.002102 1.94816,7.083387 1.94816,11.291745 0,7.24708 0.29846,7.651551 5.64588,7.651551 5.54899,0 5.64685,-0.169565 5.7031,-9.880278 0.0725,-12.511386 2.73711,-8.407852 4.44264,6.841613 0.68132,6.091802 1.65531,11.750021 2.16444,12.57381 1.80783,2.925098 1.36803,137.251238 -0.64348,196.539208 -1.38629,40.86039 -2.97955,64.32446 -4.95553,72.98058 -1.60177,7.01688 -4.19161,23.10762 -5.7552,35.7572 -3.59709,29.10122 -6.63568,44.64176 -8.72865,44.64176 -0.9004,0 -1.63711,2.96409 -1.63711,6.58686 0,10.9567 -3.23704,7.40132 -5.56871,-6.11637 -1.20515,-6.98676 -5.05662,-24.1361 -8.55879,-38.10964 -8.34882,-33.31134 -11.17567,-65.78768 -9.74675,-111.97648 1.22786,-39.69026 4.84354,-61.42344 14.62648,-87.91724 3.16624,-8.57473 8.54824,-23.21235 11.96001,-32.52804 3.41174,-9.31569 7.68473,-25.19471 9.49553,-35.28671 1.81078,-10.09199 4.03922,-18.34908 4.95206,-18.34908 0.91287,0 1.65974,-4.56723 1.65974,-10.14942 0,-10.97859 -1.32731,-12.43408 -11.33894,-12.43408 -3.3984,0 -6.5453,1.56226 -8.52954,4.23441 -2.94331,3.96372 -3.08816,3.98845 -2.26605,0.38693 0.70847,-3.10359 -0.0384,-3.83131 -3.86319,-3.76392 -5.85386,0.10314 -6.39611,1.62882 -4.37745,12.31629 l 1.59959,8.46881 3.02239,-6.58685 c 1.66231,-3.62277 3.05552,-5.23119 3.09604,-3.57426 0.0909,3.72043 -2.98115,13.37474 -7.42545,23.33481 -1.84744,4.14031 -6.87018,19.65547 -11.16163,34.47812 -4.29142,14.82266 -9.48851,31.33684 -11.549023,36.69818 -11.15759,29.03111 -15.88036,65.05737 -14.3992,109.84006 1.16239,35.14446 3.36035,51.05222 10.743,77.75281 6.057613,21.90827 11.138883,47.86163 12.649073,64.60708 0.59722,6.62204 1.98206,11.35217 3.49337,11.93212 1.37716,0.52847 6.36369,0.13757 11.08115,-0.86849 10.46134,-2.23119 13.31369,0.5054 3.39712,3.25925 -14.5088,4.02914 -21.2202,1.29349 -21.2202,-8.64961 0,-2.89674 -1.25208,-11.63778 -2.78241,-19.42449 -1.53032,-7.78673 -3.341483,-17.54521 -4.024763,-21.68552 l -1.24235,-7.52783 -1.80141,6.58686 c -0.9908,3.62276 -1.37741,9.76284 -0.85916,13.64462 0.60007,4.49468 0.25098,6.63053 -0.96124,5.88133 -1.04694,-0.64704 -5.19729,-0.0894 -9.22304,1.23923 -6.508077,2.14786 -7.739178,2.03588 -11.104947,-1.01011 -3.726257,-3.3722 -3.770502,-3.33275 -2.830671,2.52427 0.525123,3.2725 1.323167,8.32132 1.773425,11.21958 1.170032,7.53123 -4.165355,10.55029 -13.976226,7.90849 -11.369377,-3.06146 -11.488147,-6.05343 -0.180668,-4.55345 11.26154,1.4939 11.097528,1.99822 6.867941,-21.11991 -4.170362,-22.79439 -5.363598,-52.16123 -3.009834,-74.07474 1.167378,-10.86831 2.868348,-33.73409 3.779931,-50.81286 0.911582,-17.07876 2.515932,-36.55702 3.565218,-43.28502 2.798151,-17.9417 6.555987,-99.99603 4.920529,-107.44224 -0.771302,-3.5117 -1.658946,-9.77946 -1.972537,-13.92837 -0.31359,-4.14892 -2.003983,-16.43574 -3.756443,-27.30404 -4.061152,-25.186386 -5.433739,-45.166979 -3.102784,-45.166979 0.984716,0 1.90074,4.869565 2.03562,10.821256 0.134936,5.951691 1.501181,16.749423 3.036256,23.994953 1.535056,7.24554 2.805735,15.49047 2.823708,18.32208 0.06267,9.88416 8.153842,38.8492 16.356432,58.55373 2.52017,6.05401 4.2402,12.40562 3.82229,14.11468 -0.79309,3.2435 -2.84514,-0.78239 -9.9273,-19.4761 l -3.56492,-9.40979 -1.236786,15.99664 c -0.680215,8.79815 -1.807319,30.16206 -2.504641,47.47534 -0.69734,17.31327 -2.012396,34.07467 -2.92236,37.24751 -0.909964,3.17285 -2.185743,16.10762 -2.835056,28.74395 -0.649313,12.63631 -2.418974,36.78284 -3.932595,53.65894 -2.74077,30.5584 -2.191879,59.45947 1.351019,71.13565 0.974553,3.21178 3.910181,7.84842 6.523618,10.3036 4.410481,4.14345 5.106391,4.26467 9.691381,1.68821 4.09501,-2.30112 5.46504,-5.24208 8.01191,-17.19876 3.00263,-14.09618 2.97521,-14.7571 -1.2101,-29.17034 -7.31887,-25.2044 -10.65643,-51.74687 -10.72859,-85.32077 -0.0967,-45.00481 3.14944,-66.06183 15.94562,-103.43574 4.089053,-11.94294 8.691713,-26.55677 10.228143,-32.47519 1.53641,-5.9184 3.24871,-11.94699 3.80508,-13.39685 0.59705,-1.55591 -0.44663,-3.01745 -2.54693,-3.56668 -2.62279,-0.68588 -4.13626,-3.84379 -5.75574,-12.00958 -2.162793,-10.90531 -6.340563,-40.20967 -8.756533,-61.421355 l -1.23253,-10.821257 -6.54513,0 c -3.5998,0 -19.417884,2.498995 -35.151276,5.553318 -15.733391,3.054324 -30.299931,5.818279 -32.370085,6.142127 -2.070153,0.323866 -3.776882,1.424115 -3.792728,2.44502 -0.01505,1.020887 -0.695854,2.906477 -1.511136,4.190179 -1.148352,1.808166 1.084177,2.065768 9.90909,1.143383 7.118768,-0.744069 11.391414,-0.486279 11.391414,0.687272 0,1.032856 -5.539241,2.395186 -12.309452,3.027392 -14.4975099,1.353806 -16.9706469,2.447976 -13.8988969,6.149201 1.397166,1.68348 5.9079549,2.65538 12.3241129,2.65538 5.566171,0 10.120321,0.84688 10.120321,1.88196 0,1.03508 -2.117203,1.88196 -4.704894,1.88196 -2.587692,0 -4.704894,0.84688 -4.704894,1.88196 0,1.03507 -1.693762,1.88195 -3.763916,1.88195 -2.070153,0 -3.763915,0.90396 -3.763915,2.00879 0,1.1731 1.615924,1.49591 3.884323,0.77595 3.062114,-0.97188 3.759229,-0.50079 3.293426,2.22562 -0.324995,1.90215 -1.861219,4.03409 -3.413834,4.73766 -2.388844,1.08248 -2.347459,1.29953 0.269139,1.41146 3.376383,0.14454 6.529904,5.77814 3.23437,5.77814 -1.113328,0 -1.557132,1.21727 -0.986221,2.70503 0.595866,1.55283 -0.320403,3.12274 -2.151096,3.68563 -1.754022,0.53933 -0.399465,0.73359 3.010097,0.4317 3.40958,-0.3019 6.635368,0.15677 7.168414,1.01925 0.533046,0.8625 -0.986278,1.6526 -3.376288,1.75577 -4.265965,0.18425 -4.259397,0.21276 0.359416,1.56295 4.577918,1.33822 4.533485,1.41478 -1.646562,2.83651 -4.582737,1.05427 -6.802035,0.75005 -7.969489,-1.09246 -1.235994,-1.95065 -1.624863,-1.71782 -1.646863,0.98605 -0.02428,2.99399 0.981309,3.37574 6.523542,2.47637 7.924303,-1.28594 10.570599,1.47875 3.314899,3.46318 l -5.162379,1.41194 4.704894,1.42417 c 4.102273,1.24176 3.78569,1.44821 -2.471669,1.61177 -6.931156,0.18123 -7.156426,0.39677 -6.586851,6.30395 0.53839,5.58396 1.20402,6.16722 7.647052,6.70047 3.881538,0.32125 7.057341,1.37985 7.057341,2.35244 0,0.97258 -3.175803,1.90389 -7.057341,2.06954 l -7.057341,0.30117 6.586852,0.86449 6.586851,0.86448 -6.586851,2.60087 -6.586852,2.60088 6.116362,-0.61766 c 7.922101,-0.80002 7.922101,1.76904 0,3.63912 l -6.116362,1.44382 5.645873,1.30599 c 4.273888,0.98863 4.643881,1.36009 1.522541,1.52866 -2.267834,0.12251 -4.68694,1.13459 -5.375812,2.2492 -0.832521,1.34705 0.707767,1.7176 4.593821,1.10516 3.215475,-0.50677 5.846301,-0.14849 5.846301,0.79639 0,0.94478 -1.643777,1.71777 -3.652842,1.71777 -2.009065,0 -4.100635,0.72454 -4.647946,1.61009 -0.547292,0.88556 1.308206,1.30538 4.123351,0.93296 l 5.118416,-0.67712 -5.645873,2.74605 -5.645872,2.74608 7.168414,0.0849 c 4.281736,0.0506 6.700032,0.84272 6.005289,1.96683 -0.639715,1.03508 -3.653764,1.88196 -6.697906,1.88196 -3.414624,2e-5 -5.534819,0.98142 -5.534819,2.56198 0,1.71797 1.549962,2.26567 4.704894,1.66256 2.746435,-0.52501 4.704894,-0.0246 4.704894,1.20195 0,1.15575 -1.482041,2.16088 -3.293425,2.23364 -2.816237,0.11311 -2.748054,0.36663 0.470489,1.74968 3.335299,1.43322 3.17458,1.63246 -1.411468,1.74967 -7.322283,0.18726 -6.462417,3.86836 0.940979,4.02848 5.125568,0.11085 5.506645,0.39427 2.352447,1.74968 -2.070154,0.88958 -2.705314,1.67693 -1.411469,1.74967 3.525189,0.19823 2.832949,3.49465 -0.940978,4.48087 -2.478369,0.64767 -2.245496,0.9147 0.940978,1.07898 5.814177,0.29976 5.379106,3.98222 -0.470489,3.98222 -2.587692,0 -4.704894,0.72945 -4.704894,1.62099 0,0.89154 2.117202,1.21625 4.704894,0.72158 2.746435,-0.52501 4.704894,-0.0246 4.704894,1.20195 0,1.15575 -2.328922,2.21284 -5.175383,2.3491 -4.5728,0.21891 -4.408467,0.39398 1.411468,1.50374 l 6.586851,1.25601 -6.116362,1.46872 c -7.613327,1.82819 -8.09413,4.57197 -0.608625,3.47332 7.944552,-1.166 6.682173,5.44931 -1.441579,7.55439 -7.740116,2.00566 -7.640955,5.15649 0.168247,5.34619 l 6.116362,0.14849 -5.645873,2.08396 -5.645873,2.08395 4.704894,1.34379 c 4.331495,1.23715 4.377641,1.35868 0.581563,1.53139 -7.410641,0.33715 -6.799268,3.93775 0.718851,4.23348 6.36798,0.25049 6.537996,0.37175 1.522523,1.0858 -9.001592,1.28157 -10.202544,4.25793 -1.78786,4.43095 l 7.433732,0.15282 -5.645872,2.58519 c -5.532617,2.53347 -5.551493,2.58872 -0.940979,2.75509 4.610514,0.16636 4.591638,0.22162 -0.940979,2.75498 -5.563857,2.54764 -5.57752,2.58914 -0.940979,2.85734 l 4.704894,0.27213 -4.355301,1.74676 c -5.092427,2.04237 -3.83176,5.45959 2.113927,5.73009 3.838422,0.17464 3.798243,0.2917 -0.581562,1.69436 -4.513687,1.44553 -4.532808,1.51439 -0.47049,1.69436 6.392107,0.28318 5.081794,3.95151 -1.411468,3.95151 -3.10523,0 -5.645873,0.93869 -5.645873,2.08598 0,1.22576 1.75263,1.6461 4.250044,1.01929 2.337523,-0.58668 5.513327,-0.26803 7.057341,0.70814 2.051729,1.29714 0.907838,1.78259 -4.250044,1.80365 -6.265507,0.0256 -7.057341,0.55671 -7.057341,4.73371 0,4.03836 0.853167,4.70489 6.022265,4.70489 6.803634,0 5.254952,2.94139 -2.258349,4.28925 -3.723246,0.66794 -3.350224,0.89752 1.787859,1.10034 7.148409,0.28216 6.02266,3.14436 -1.787859,4.54553 -3.944941,0.70771 -3.716942,0.88544 1.411468,1.10035 3.363999,0.14095 6.116362,1.10316 6.116362,2.13824 0,1.03507 -2.752363,1.99344 -6.116362,2.1297 l -6.116362,0.24774 6.586851,1.29256 6.586852,1.29257 -6.586852,2.05387 c -6.22529,1.94115 -6.30277,2.06319 -1.411468,2.22361 6.462755,0.21195 6.907895,3.93365 0.470489,3.93365 -2.587691,0 -4.704894,0.89687 -4.704894,1.99303 0,1.09617 0.840182,1.47376 1.867053,0.83911 1.02689,-0.63463 3.355813,-0.28692 5.175383,0.77269 2.82591,1.64566 2.537463,1.93494 -1.978106,1.98381 -3.033791,0.0328 -4.790825,0.85917 -4.123351,1.93919 0.639715,1.03508 3.230343,1.88196 5.756946,1.88196 7.48846,0 5.22375,3.73704 -2.46352,4.0651 -6.948376,0.29652 -6.962904,0.3129 -0.940979,1.06022 7.441543,0.92348 8.125183,4.19805 0.940979,4.50712 l -5.175383,0.22267 5.645872,1.34299 5.645873,1.34298 -6.586851,2.02855 c -5.750849,1.77107 -5.989707,2.0652 -1.881958,2.31755 l 4.704894,0.28901 -4.704894,2.08907 c -4.693903,2.08419 -4.694995,2.09082 -0.470489,2.83455 2.328922,0.41 4.234404,1.47455 4.234404,2.36564 0,0.89109 -1.905482,1.98718 -4.234404,2.43576 -3.774229,0.72694 -3.69385,0.84344 0.739628,1.07187 6.971956,0.35923 8.349493,5.20395 1.958026,6.88619 -4.671433,1.22954 -4.767883,1.44422 -1.286186,2.86325 3.575719,1.45733 3.552176,1.54065 -0.47049,1.66631 -2.450478,0.0766 -4.234404,1.32156 -4.234404,2.95521 0,2.09107 2.195623,2.82294 8.468809,2.82294 4.657845,0 8.468809,0.84688 8.468809,1.88196 0,1.03508 -3.387523,1.88196 -7.52783,1.88196 -4.140307,0 -7.527831,0.72944 -7.527831,1.62098 0,0.89154 2.017948,1.23523 4.48431,0.76376 2.466362,-0.47149 5.056971,0.0694 5.756927,1.20195 0.795504,1.28714 -0.709385,2.15527 -4.013801,2.31546 -4.438315,0.21519 -4.607108,0.38714 -1.052052,1.07187 5.488936,1.05723 5.488936,4.28238 0,4.43702 -4.117121,0.11593 -4.104079,0.17352 0.470489,2.07958 4.48256,1.86764 4.52703,2.03363 0.940979,3.51234 -3.204503,1.32139 -3.274418,1.57173 -0.470489,1.68433 3.66594,0.14717 4.486191,3.18495 1.159417,4.29387 -1.359413,0.45314 -0.907084,1.93825 1.246195,4.09153 2.110898,2.1109 2.65341,3.8461 1.444741,4.62088 -1.295351,0.83036 -1.05271,4.24356 0.733644,10.32032 2.659262,9.04621 2.694718,9.07593 9.628565,8.0694 3.827714,-0.55563 7.033535,-1.04223 7.124057,-1.08131 0.143217,-0.0619 2.806356,-128.36474 3.360818,-161.91944 0.111224,-6.728 -0.407199,-24.08906 -1.151927,-38.58013 -2.203829,-42.88268 -4.01542,-157.858336 -2.577529,-163.587316 0.730519,-2.910617 1.678913,-4.941324 2.107548,-4.512671 0.428634,0.428635 1.271206,27.840467 1.872378,60.915177 0.601173,33.07473 1.387586,65.21715 1.747586,71.42761 1.637454,28.24804 1.877008,105.82316 0.525988,170.31717 -0.813118,38.81537 -1.448279,71.31226 -1.411468,72.2153 0.03689,0.90306 -0.991697,0.77435 -2.285543,-0.28598 -1.481496,-1.21412 -6.533009,-1.3908 -13.644193,-0.47719 -6.21046,0.79788 -9.476861,1.56174 -7.258692,1.69745 2.218189,0.13569 4.520538,1.51709 5.116328,3.0697 0.792888,2.06622 -0.288222,2.86035 -4.033054,2.9625 -4.77176,0.13024 -4.609347,0.37495 2.411503,3.63446 l 7.52783,3.49487 -12.232724,-1.07492 c -6.727999,-0.5912 -12.656165,-1.45082 -13.173703,-1.91024 -0.517539,-0.45944 -0.592648,-28.49971 -0.16693,-62.31169 1.18091,-93.78832 0.861617,-201.41407 -0.745067,-251.14474 -1.3242019,-40.98669 -1.7431069,-44.91667 -4.9719249,-46.64468 -4.59807395,-2.46081 -4.49123495,-8.317043 0.23803,-13.046308 4.5779179,-4.5779 4.7376399,-6.795881 0.653943,-9.081236 -2.294192,-1.28391 -3.556402,-6.121689 -4.8118,-18.442621 C -2.3011469,28.828076 -0.94333285,26.744015 32.884798,17.265497 42.200488,14.655279 61.255309,9.7310987 75.228844,6.3228735 L 100.63528,0.12609526 151.44813,0.01204858 c 55.34314,-0.12402101 60.25704,0.49107798 99.70035,12.48189642 22.00138,6.688439 36.47524,12.813101 41.01977,17.357633 3.78895,3.788946 4.24261,12.750207 0.94322,18.630647 -1.26853,2.260889 -2.75058,9.17125 -3.29343,15.35636 -0.84074,9.57907 -1.67592,11.587721 -5.63554,13.553708 -5.47232,2.717057 -7.76458,7.817049 -5.48653,12.206828 0.89363,1.722029 2.04086,38.561349 2.54936,81.865149 0.50852,43.30379 1.382,100.75309 1.94107,127.66508 3.25735,156.79974 3.05756,181.60891 -1.46249,181.60891 -1.25831,0 -1.48194,-6.7146 -0.65146,-19.56015 1.15475,-17.86098 0.84491,-20.84458 -3.56668,-34.34572 -2.65721,-8.13207 -5.67759,-21.13719 -6.71193,-28.90027 -1.03434,-7.76307 -3.17537,-17.92564 -4.75785,-22.58349 -10.32752,-30.3979 -14.89728,-63.33559 -14.50498,-104.5485 0.25542,-26.83186 3.0055,-48.90899 13.70172,-109.99466 2.99055,-17.07877 5.96635,-36.34531 6.61296,-42.81454 1.09791,-10.98497 0.92071,-11.76223 -2.68176,-11.76223 -2.12154,0 -3.85737,-0.84688 -3.85737,-1.88196 0,-1.03508 2.56722,-1.88196 5.70493,-1.88196 6.50802,0 9.14675,-4.179351 5.4506,-8.632929 -1.71442,-2.065749 -4.94315,-2.75767 -10.86542,-2.32849 -5.5282,0.40065 -8.69913,-0.198396 -9.21985,-1.741789 -0.55706,-1.651023 1.73139,-2.352447 7.6751,-2.352447 8.51239,0 10.7903,-1.854086 9.30803,-7.576234 -0.54293,-2.095899 -6.43229,-3.748314 -21.8067,-6.118489 -28.63906,-4.415092 -27.24357,-4.648605 -28.41806,4.755424 -2.31457,18.532202 -3.27896,62.246044 -4.05847,183.961354 -0.71106,111.02925 -0.44015,129.69736 1.95265,134.55997 1.52804,3.10523 5.49477,12.39 8.81494,20.63284 6.35337,15.77314 18.39412,31.78122 18.45378,24.53414 0.0169,-2.07015 -1.65332,-14.67635 -3.71192,-28.01375 -3.35952,-21.76593 -3.76459,-34.4887 -3.95458,-124.2092 -0.20697,-97.73981 1.31397,-197.379691 3.19916,-209.583396 1.54582,-10.00682 4.33639,-6.938646 3.42336,3.763915 -1.86308,21.838951 -4.04965,181.227191 -3.28532,239.479101 0.63682,48.53252 1.61792,67.5399 4.48949,86.97604 2.02102,13.67931 3.67458,25.30217 3.67458,25.82859 0,0.52644 2.49858,2.24922 5.55241,3.82841 6.33017,3.27346 16.23422,3.80118 17.99103,0.95862 0.65014,-1.05196 1.98426,-1.41689 2.9647,-0.81094 2.542,1.57104 0.23254,4.54918 -5.09993,6.57658 -3.12934,1.18977 -6.99063,0.90612 -12.22787,-0.89824 -8.22135,-2.8325 -8.39468,-2.565 -4.4876,6.92552 2.67241,6.49152 -3.30745,3.23405 -13.85133,-7.54535 -8.49346,-8.68316 -11.88283,-14.10815 -17.04242,-27.27794 -3.54224,-9.04156 -6.71703,-16.16263 -7.05506,-15.82459 -0.33802,0.33804 0.0329,11.40207 0.82426,24.58674 0.79136,13.18466 0.98481,24.70676 0.42989,25.60462 -3.45674,5.59314 -26.75918,7.61668 -33.03641,2.86882 -5.48258,-4.14682 -8.35802,-3.45068 -8.35802,2.02346 0,3.70066 -0.73148,4.62555 -2.97686,3.76392 -1.63727,-0.6283 -3.725,-1.14233 -4.6394,-1.14233 -0.91441,0 -4.68455,-2.65336 -8.3781,-5.89633 -3.69355,-3.24299 -7.18332,-5.42854 -7.75506,-4.8568 -0.57174,0.57172 -1.32337,7.53383 -1.67031,15.47133 -0.66612,15.23962 -1.46941,17.93863 -4.0486,13.60288 z M 16.868492,455.11889 c -0.165988,-0.68645 0.829059,-1.96497 2.2113,-2.84116 1.926937,-1.22144 1.744933,-1.59979 -0.78024,-1.62189 -2.380677,-0.0209 -3.252249,1.40549 -3.144846,5.14658 0.08168,2.84646 0.568671,4.13795 1.082126,2.86998 0.513454,-1.26797 0.797705,-2.86705 0.63166,-3.55351 z m 198.332628,-4.29807 c 1.64543,-1.36559 1.95977,-5.13182 1.07051,-12.82577 -1.15069,-9.9558 -2.56033,-46.6832 -2.40445,-62.64632 0.0354,-3.62277 0.55996,-59.53931 1.16574,-124.25898 0.60577,-64.71968 1.56813,-121.88414 2.13855,-127.03214 0.57044,-5.148 1.46441,-19.7343 1.98663,-32.413986 l 0.94947,-23.053981 -12.1283,0 -12.12829,0 -1.95993,7.057341 c -2.58014,9.29066 -2.55792,92.029416 0.0297,110.633826 1.10583,7.95073 2.16444,31.51295 2.35244,52.3605 0.38836,43.06471 -2.37123,186.15412 -3.61411,187.39798 -0.44994,0.4503 -4.2867,-2.51378 -8.52617,-6.58685 l -7.70812,-7.40554 3.2689,6.46989 c 2.48863,4.92553 2.99992,9.04354 2.14197,17.2519 -1.10379,10.56042 -1.00216,10.86449 4.94424,14.79498 4.89774,3.23732 8.00596,3.83682 16.08144,3.10171 5.50563,-0.50121 11.05852,-1.78126 12.33974,-2.84456 z m -75.97064,-40.30768 c 2.09541,-15.71766 5.23858,-35.77605 6.98479,-44.5742 2.21778,-11.17416 3.20143,-25.92528 3.26288,-48.9309 l 0.0879,-32.93426 -13.03848,-26.92582 c -8.3986,-17.34397 -13.53967,-26.03026 -14.44687,-24.4092 -2.16337,3.86573 -6.92957,32.60221 -8.25843,49.79184 -1.14311,14.7869 -0.93493,15.93809 5.27536,29.17034 3.55598,7.57674 10.41722,18.33002 15.24717,23.89618 4.82997,5.56613 8.25242,10.64742 7.60548,11.29174 -1.84278,1.83525 -19.07647,-18.50213 -24.52336,-28.93984 l -4.91048,-9.40979 1.22745,28.22937 c 1.53058,35.20088 3.03439,45.53897 11.8279,81.31227 5.00043,20.34248 7.44141,27.51757 8.44165,24.81367 0.77392,-2.09212 3.12157,-16.66374 5.21699,-32.3814 z M 22.533956,441.39343 c 0,-0.93817 -1.693762,-1.26285 -3.763915,-0.72148 -2.070153,0.54136 -3.763915,1.30895 -3.763915,1.70577 0,0.39681 1.693762,0.72148 3.763915,0.72148 2.070153,0 3.763915,-0.76759 3.763915,-1.70577 z m -2.391648,-8.84104 c -0.625356,-0.62535 -2.248544,-0.6922 -3.607092,-0.14849 -1.501294,0.60076 -1.055345,1.04671 1.137023,1.13701 1.983903,0.0817 3.095425,-0.36309 2.470069,-0.98844 z M 279.22375,309.00972 c -0.52335,-60.29321 -1.66154,-122.75068 -2.52931,-138.79437 -0.86779,-16.04369 -1.13765,-35.94539 -0.59971,-44.226 0.53794,-8.28062 0.39866,-14.51246 -0.30952,-13.84852 -0.70818,0.66393 -1.63691,7.62292 -2.06383,15.46442 -0.42692,7.84152 -2.01806,19.61201 -3.53588,26.15669 -4.3923,18.93927 -14.16055,88.92236 -15.43075,110.55129 -0.85155,14.49999 -0.353,23.94919 1.87269,35.4946 1.66825,8.65373 3.03317,21.41779 3.03317,28.36461 0,6.94681 1.17937,16.38065 2.6208,20.96412 8.55385,27.19935 10.31939,33.7158 11.43581,42.20881 1.2879,9.79739 5.11211,27.28838 5.96631,27.28838 0.27048,0 0.0636,-49.33081 -0.45978,-109.62403 z M 22.024266,381.73954 c -0.625356,-0.62536 -2.248545,-0.69221 -3.607092,-0.14849 -1.501294,0.60076 -1.055345,1.04671 1.137022,1.137 1.983903,0.0817 3.095425,-0.36308 2.47007,-0.98844 z M 151.65992,237.37988 c -0.45411,-3.94504 -4.00341,-16.09204 -7.88733,-26.99332 l -7.06169,-19.82053 -3.19122,6.56079 c -1.75517,3.60842 -4.65342,10.67414 -6.44059,15.70158 l -3.24938,9.14078 11.18579,22.58349 c 6.15217,12.42092 11.91145,24.7007 12.79838,27.28839 1.26497,3.69071 1.94229,1.25666 3.14213,-11.29175 0.84126,-8.79815 1.15801,-19.2244 0.70391,-23.16943 z m 2.24442,-58.69467 c -0.31588,-24.32372 -1.06311,-44.22542 -1.6605,-44.226 -0.59739,-5.9e-4 -2.13012,5.66462 -3.40604,12.58933 -1.27593,6.92472 -4.3808,18.48928 -6.89975,25.69904 -2.93331,8.39577 -3.94908,13.86869 -2.82534,15.2227 0.96499,1.16275 4.42702,9.4999 7.6934,18.52699 3.2664,9.02709 6.32897,16.41289 6.80572,16.41289 0.47676,0 0.6084,-19.90123 0.29251,-44.22495 z m -37.40874,-34.8579 c 3.85109,-10.562 3.97122,-12.28916 1.76713,-25.40643 -2.14342,-12.75619 -2.77104,-14.07405 -6.70277,-14.07405 -2.38585,0 -4.33791,-0.84688 -4.33791,-1.88196 0,-1.03507 1.69376,-1.88195 3.76392,-1.88195 2.50929,0 3.76391,-1.254645 3.76391,-3.763913 0,-2.904049 -1.25462,-3.763915 -5.49195,-3.763915 -11.146853,0 -11.085053,-0.207843 -7.43599,25.006168 3.61284,24.96366 6.55258,37.09843 8.9874,37.09843 0.85485,0 3.41365,-5.09958 5.68626,-11.33238 z m 16.61474,-48.419771 c 0.53351,-1.624054 -1.60663,-2.352447 -6.91187,-2.352447 -5.70832,0 -7.68467,0.75523 -7.68467,2.93655 0,2.233733 1.65424,2.79674 6.91186,2.352447 3.80154,-0.321269 7.25964,-1.642704 7.68468,-2.93655 z m 17.39673,0.356894 c 0,-2.233733 -1.65421,-2.796758 -6.91186,-2.352447 -9.92806,0.838977 -10.57826,5.288979 -0.77279,5.288979 5.7083,0 7.68465,-0.75523 7.68465,-2.936532 z M 109.5745,89.316884 c 2.59145,-0.02033 3.29342,-1.653883 3.29342,-7.664611 0,-4.613355 0.74539,-7.178219 1.88196,-6.475778 1.03508,0.639715 1.88196,4.077223 1.88196,7.638903 0,6.449281 0.0358,6.475779 8.73211,6.475779 l 8.7321,0 -1.08875,-10.5489 c -0.5988,-5.801887 -1.35245,-10.806332 -1.67476,-11.120995 -0.3223,-0.314645 -7.99623,0.329662 -17.05315,1.431793 l -16.467133,2.003852 0,10.277596 c 0,9.739846 0.22157,10.218221 4.234413,9.142833 2.32892,-0.624133 5.71644,-1.146338 7.52783,-1.160472 z M 49.97079,74.392998 c 15.444511,-3.018641 39.090367,-6.617866 52.54637,-7.99832 33.95996,-3.483974 108.91902,-2.857677 134.55996,1.124244 33.85627,5.257738 45.78269,6.728206 46.74721,5.763702 0.51215,-0.512156 1.22154,-5.766468 1.5764,-11.676267 0.35488,-5.90978 1.48359,-11.583411 2.50822,-12.608043 2.88856,-2.888542 2.21709,-6.773824 -0.95995,-5.554692 -1.73108,0.664293 -2.82294,-0.0016 -2.82294,-1.721521 0,-1.54264 1.75713,-3.264293 3.90473,-3.825888 C 299.74821,34.832029 277.19701,23.750592 236.13614,12.395688 205.66851,3.9702195 202.2374,3.6391832 147.68414,3.8616305 L 98.753237,4.0611369 67.342746,11.798806 C 10.872839,25.709578 3.7143801,29.256522 3.7143801,43.325943 c 0,7.797063 2.145545,9.152092 10.2541469,6.476023 6.133883,-2.024365 6.329268,-2.368255 4.434288,-7.804233 -1.347651,-3.865861 -1.367657,-6.301227 -0.06248,-7.606384 1.305156,-1.305175 2.336525,0.546408 3.221252,5.783011 1.121082,6.635651 1.865265,7.583537 5.371296,6.841424 2.238438,-0.47382 8.831198,-1.779259 14.650569,-2.900981 l 10.580667,-2.039534 -0.62688,-8.855815 -0.626899,-8.855815 2.012038,8.939299 c 2.544652,11.305653 4.664093,11.569353 3.78138,0.470489 -0.422782,-5.315683 0.09767,-8.468809 1.397899,-8.468809 1.190658,0 2.071452,3.489996 2.071452,8.207838 0,7.682358 0.293454,8.151737 4.583715,7.331599 4.007742,-0.766126 4.362453,-1.45816 2.822936,-5.507417 -2.210095,-5.812991 -2.274929,-11.913977 -0.126655,-11.913977 0.898804,0 2.097912,3.457457 2.66472,7.683261 1.215011,9.058633 1.692915,9.725656 5.830568,8.137904 2.36419,-0.907235 2.629716,-1.820323 1.074353,-3.694414 -1.136288,-1.369143 -1.756167,-4.86949 -1.377499,-7.778545 0.640939,-4.923954 0.850269,-4.736887 3.031458,2.709135 1.385662,4.730281 3.475862,7.998319 5.115632,7.998319 2.19611,0 2.52231,-1.663086 1.56878,-7.998319 -0.83226,-5.529474 -0.59784,-7.417416 0.75939,-6.116363 1.07977,1.035077 2.24666,3.99916 2.59307,6.586852 0.62856,4.69524 0.67233,4.704894 21.331373,4.704894 l 20.70153,0 -0.34906,-8.468809 -0.34909,-8.468809 2.02795,7.998319 c 1.52329,6.008018 2.94812,7.99832 5.72579,7.99832 2.60968,0 3.35936,-0.882186 2.54754,-2.99777 -2.62605,-6.843344 -3.30882,-12.057891 -1.57885,-12.057891 1.01499,0 2.38713,3.387524 3.04918,7.527831 0.78382,4.901765 2.18853,7.52783 4.02669,7.52783 2.25864,0 2.57804,-1.598855 1.59783,-7.99832 -1.39533,-9.109597 0.97067,-8.526265 2.85861,0.704775 1.93862,9.478724 5.65524,9.010756 4.78975,-0.603092 l -0.72922,-8.100002 1.94639,7.998319 c 1.10404,4.536892 3.05448,7.99832 4.50686,7.99832 2.03078,0 2.17415,-1.399179 0.69305,-6.763323 -1.0271,-3.719821 -1.40221,-7.228561 -0.83358,-7.797195 1.09852,-1.098536 2.02478,1.153471 3.76763,9.16026 0.59266,2.722778 2.66421,5.365423 4.60342,5.872535 3.13935,0.820948 3.44863,-0.03124 2.82145,-7.773444 l -0.70442,-8.695472 2.90198,8.939298 c 2.63568,8.119085 3.43751,8.939299 8.73868,8.939299 5.72315,0 5.81707,-0.146417 4.82703,-7.527831 -0.55534,-4.140306 -0.24341,-7.52783 0.69318,-7.52783 0.93658,0 1.70287,3.387524 1.70287,7.52783 0,7.059129 0.34124,7.527831 5.48045,7.527831 4.92727,0 5.60884,-0.759859 6.75228,-7.527831 0.6995,-4.140306 1.93055,-7.52783 2.73565,-7.52783 0.80512,0 0.8444,3.387524 0.0873,7.52783 -1.20405,6.584481 -0.93655,7.527831 2.13465,7.527831 2.7553,0 3.56872,-1.519361 3.77829,-7.057341 l 0.26705,-7.057341 1.14442,7.380718 c 1.92197,12.395513 7.62389,9.371019 7.70557,-4.087292 0.0132,-2.328923 0.87253,-4.234405 1.9076,-4.234405 2.36993,0 2.42525,5.853886 0.11273,11.936184 -1.71781,4.518167 -1.49905,4.672111 7.529,5.297899 l 9.29821,0.644514 -0.001,-7.057341 c -6.6e-4,-3.984123 0.9231,-7.057341 2.12132,-7.057341 1.42034,0 1.72638,2.477127 0.92512,7.48799 -1.07488,6.721863 -0.76253,7.577307 3.05289,8.360991 33.72871,6.927825 39.82392,8.617729 37.8944,10.506273 -0.92278,0.903208 -9.95068,-0.404489 -20.47043,-2.965137 -27.23288,-6.628857 -55.33188,-8.813433 -113.85843,-8.852013 -38.7799,-0.0256 -57.179293,0.758636 -73.396346,3.128152 -33.663818,4.918703 -57.19017,8.911088 -58.961111,10.005578 -0.888792,0.549306 -1.230217,3.016665 -0.758749,5.483027 0.471506,2.466362 0.127785,4.484291 -0.763736,4.484291 -2.592472,0 -1.869499,5.63955 0.731461,5.705719 1.325123,0.03369 0.757111,1.26652 -1.300678,2.822937 -3.185495,2.409395 -3.245718,2.76309 -0.470489,2.76309 1.750465,0 3.182635,1.270321 3.182635,2.822936 0,3.737079 0.552335,3.692589 33.082707,-2.665454 z M 11.242211,40.046613 c 0,-9.245418 0.892894,-8.982057 2.658566,0.784155 0.807774,4.467937 0.554123,7.057341 -0.691319,7.057341 -1.081993,0 -1.967247,-3.52867 -1.967247,-7.841496 z m 15.108318,-0.48882 C 23.9592,33.268122 23.904755,30.950491 26.14835,30.950491 c 2.001575,0 4.800704,11.03181 3.204202,12.628293 -0.587077,0.587096 -1.937983,-1.222369 -3.002023,-4.020991 z m 244.601831,2.479555 c 0,-1.561799 1.31417,-4.483538 2.92038,-6.492754 2.8066,-3.510792 2.87168,-3.469822 1.67043,1.05177 -1.5426,5.806479 -4.59081,9.419179 -4.59081,5.440984 z M 36.849989,39.265375 c -2.021599,-5.268202 -1.223404,-9.763032 1.949971,-10.980771 1.700763,-0.652644 3.248372,-0.954962 3.439109,-0.67184 2.114548,3.13871 4.984233,13.150931 4.03996,14.095222 -0.67487,0.67487 -2.244855,-1.469488 -3.488848,-4.765229 -2.867106,-7.595807 -5.4758,-7.868088 -3.318606,-0.346393 1.657873,5.78064 -0.560767,8.039403 -2.621586,2.669011 z M 267.47044,36.596364 c 1.0825,-3.10523 2.7322,-5.645873 3.66603,-5.645873 2.19737,0 2.14291,0.728073 -0.4862,6.498305 -3.04855,6.69083 -5.57346,6.013965 -3.17983,-0.852432 z m -10.6305,-1.744725 c 1.03611,-6.833389 2.16167,-8.951381 3.85639,-7.256678 0.56963,0.569649 -0.28506,3.8866 -1.89931,7.371006 l -2.93501,6.335291 0.97793,-6.449619 z m -8.82825,-2.960169 c 0.42293,-3.622769 1.5232,-6.586852 2.44504,-6.586852 1.91979,0 2.22308,5.794454 0.53372,10.196842 -2.02624,5.28034 -3.76995,3.167127 -2.97876,-3.60999 z m -18.33012,0.581562 c -0.0728,-2.785372 0.7146,-5.58772 1.74968,-6.227435 2.24676,-1.388584 2.24676,2.299338 0,7.52783 -1.44421,3.360857 -1.63158,3.221611 -1.74968,-1.300395 z M 97.341767,32.208034 c -0.7763,-1.896035 -1.3857,-5.706999 -1.35423,-8.468809 0.0497,-4.365672 0.31125,-4.58507 2.00232,-1.680043 1.06982,1.837788 1.67922,5.648752 1.35426,8.468809 -0.49347,4.282226 -0.82353,4.559156 -2.00235,1.680043 z m 9.271693,1.094904 c -2.2689,-3.855002 -3.28977,-13.644193 -1.42289,-13.644193 1.11732,0 2.03148,1.74943 2.03148,3.887635 0,2.138205 0.87669,5.525729 1.94819,7.527831 1.84019,3.438468 -0.59527,5.561448 -2.55678,2.228727 z m 7.6441,0.12515 c -2.10374,-3.719106 -3.14025,-11.746483 -1.63672,-12.675718 0.90679,-0.56041 2.15411,2.095578 2.77184,5.902214 1.10055,6.781917 0.59067,9.824477 -1.13512,6.773504 z m 11.20134,-0.12515 c -1.88968,-3.313826 -3.38907,-16.378263 -1.67393,-14.585171 1.94198,2.030237 4.90521,15.996639 3.39398,15.996639 -0.50335,0 -1.27738,-0.635161 -1.72005,-1.411468 z m 71.36776,-0.671614 c -2.10454,-6.745821 -2.54565,-11.090621 -1.12596,-11.090621 1.88281,0 4.53932,11.117006 3.01968,12.636649 -0.59167,0.591687 -1.44384,-0.104072 -1.89372,-1.546028 z m -16.64561,-4.382101 c -0.48188,-2.520788 -0.26081,-5.578894 0.49128,-6.795805 0.77599,-1.255567 1.71059,0.726793 2.16081,4.583244 0.88488,7.579547 -1.28077,9.386245 -2.65209,2.212561 z M 18.770041,311.39802 c 0,-1.0548 2.68179,-1.91781 5.959539,-1.91781 6.852734,0 6.604391,0.82153 -0.784156,2.59405 -3.072371,0.73705 -5.175383,0.46227 -5.175383,-0.67624 z M 17.324848,158.9236 c 2.097009,-3.35784 8.973023,-5.41804 8.973023,-2.68851 0,2.2136 -5.485605,6.45243 -8.350321,6.45243 -2.502213,0 -2.600865,-0.59638 -0.622702,-3.76392 z"
     id="path9533"
     inkscape:connector-curvature="0" />
</svg>
