<?xml version="1.0" encoding="UTF-8" standalone="no"?>
<!-- Created with Inkscape (http://www.inkscape.org/) -->

<svg
   xmlns:dc="http://purl.org/dc/elements/1.1/"
   xmlns:cc="http://creativecommons.org/ns#"
   xmlns:rdf="http://www.w3.org/1999/02/22-rdf-syntax-ns#"
   xmlns:svg="http://www.w3.org/2000/svg"
   xmlns="http://www.w3.org/2000/svg"
   xmlns:sodipodi="http://sodipodi.sourceforge.net/DTD/sodipodi-0.dtd"
   xmlns:inkscape="http://www.inkscape.org/namespaces/inkscape"
   id="svg8914"
   version="1.1"
   inkscape:version="0.48.4 r9939"
   width="494.17871"
   height="212.06641"
   sodipodi:docname="PropertyTitle.svg">
  <metadata
     id="metadata8920">
    <rdf:RDF>
      <cc:Work
         rdf:about="">
        <dc:format>image/svg+xml</dc:format>
        <dc:type
           rdf:resource="http://purl.org/dc/dcmitype/StillImage" />
        <dc:title />
      </cc:Work>
    </rdf:RDF>
  </metadata>
  <defs
     id="defs8918">
    <filter
       inkscape:collect="always"
       id="filter9444"
       x="-0.23673142"
       width="1.4734629"
       y="-0.31939939"
       height="1.6387988"
       color-interpolation-filters="sRGB">
      <feGaussianBlur
         inkscape:collect="always"
         stdDeviation="1.6812302"
         id="feGaussianBlur9446" />
    </filter>
  </defs>
  <sodipodi:namedview
     pagecolor="#ffffff"
     bordercolor="#666666"
     borderopacity="1"
     objecttolerance="10"
     gridtolerance="10"
     guidetolerance="10"
     inkscape:pageopacity="0"
     inkscape:pageshadow="2"
     inkscape:window-width="1273"
     inkscape:window-height="756"
     id="namedview8916"
     showgrid="false"
     inkscape:zoom="0.88157895"
     inkscape:cx="199.36006"
     inkscape:cy="129.71289"
     inkscape:window-x="4"
     inkscape:window-y="22"
     inkscape:window-maximized="0"
     inkscape:current-layer="svg8914"
     fit-margin-top="0"
     fit-margin-left="0"
     fit-margin-right="0"
     fit-margin-bottom="0" />
  <path
     style="fill:#ffed98;fill-opacity:0.48969074;stroke:none"
     d="m 1.6909059,128.40703 c 3.749426,-8.71424 11.2471151,-14.48341 22.9031631,-16.9853 L 204.90928,56.907833 226.47521,76.676608 c -6.94333,7.0475 -18.1402,12.88132 -10.42583,26.957422 7.86764,1.30111 13.55094,14.02021 20.39794,19.91412 l 10.99478,-0.14534 -2.07541,27.09652 C 181.88971,173.85486 117.35807,188.77329 53.348652,207.86939 42.484543,203.32131 42.022294,217.4403 10.186676,169.88087 5.5641248,156.35468 -0.17497007,143.0146 1.6909059,128.40703 z"
     id="path8926"
     inkscape:connector-curvature="0"
     sodipodi:nodetypes="ccccccccccc" />
  <path
     style="fill:#ffed98;fill-opacity:0.48969074;stroke:none"
     d="m 253.76735,146.37437 3.81235,-14.82584 6.93543,6.98038 -1.34788,7.03889 -9.28533,3.44456 z"
     id="path9436"
     inkscape:connector-curvature="0" />
  <path
     style="fill:#ffed98;fill-opacity:0.48969074;stroke:none"
     d="m 225.57663,53.613037 154.85541,-36.841808 58.25798,-15.5754 c 27.14851,10.076127 38.00683,19.747188 51.9679,32.348906 l -13.17917,3.594323 c 2.77803,15.272177 9.02738,30.846203 3.29479,45.37832 -38.21364,14.60209 -90.05776,27.256962 -135.08663,40.885432 l -63.4997,15.57539 c -2.47283,-18.67172 -7.15651,-22.97293 -11.98108,-26.35836 6.166,-3.98499 6.21144,-13.190462 -1.1981,-28.754582 -10.58329,-13.908583 -21.16657,-8.411111 -31.74985,-9.584865 z"
     id="path9438"
     inkscape:connector-curvature="0"
     sodipodi:nodetypes="cccccccccccc" />
  <path
     style="fill:#ff0004;fill-opacity:1;stroke:none"
     d="m 215.0084,97.872738 22.45053,26.051102 33.88761,-11.43707 c 0.41141,-7.41836 7.06682,-5.65441 -1.05898,-25.627502 -7.43845,-14.421769 -23.25307,-12.091171 -37.69996,-12.496051 -7.27822,4.890426 -17.13435,4.426711 -17.5792,23.509521 z"
     id="path9440"
     inkscape:connector-curvature="0"
     sodipodi:nodetypes="cccccc" />
  <path
     style="fill:#5fc189;fill-opacity:0.62371132;stroke:none"
     d="m 246.69327,122.50423 14.22753,-7.33841 13.02943,-0.59906 c 7.24843,8.63637 7.48224,17.27272 6.43982,25.90908 l 13.928,19.46924 c 4.13296,30.76459 -5.929,31.1115 -9.28533,45.82762 l -0.14977,-10.18391 -7.7877,4.4929 c 2.69176,-8.03731 8.6125,-16.07461 6.29006,-24.11192 -1.92074,-7.87358 -1.96155,-15.86465 -9.88438,-23.3631 -3.33629,17.06073 -11.81065,26.41433 -19.76878,36.54229 l 1.94692,-12.58013 -6.58958,3.44456 c 5.87846,-13.36271 13.13571,-26.13452 16.47398,-40.58589 l -9.8844,-7.93747 -2.24645,15.27588 -6.29006,0 z"
     id="path9448"
     inkscape:connector-curvature="0"
     sodipodi:nodetypes="cccccccccccccccccc" />
  <path
     style="fill:#5fc189;fill-opacity:0.62371132;stroke:none"
     d="m 210.00122,57.806413 16.17447,17.971614 8.68627,-4.492903 c -1.95475,-5.491327 -5.18809,-10.982652 -13.47871,-16.473979 -6.02489,-0.595064 -10.90263,-0.370729 -11.38203,2.995268 z"
     id="path9450"
     inkscape:connector-curvature="0"
     sodipodi:nodetypes="ccccc" />
  <path
     style="fill:#000000"
     d="m 281.4388,209.86903 c 0.58495,-1.64311 1.45518,-5.004 1.93384,-7.46865 0.84835,-4.36807 0.79561,-4.41521 -2.08938,-1.86716 -1.62784,1.43771 -3.8189,2.61402 -4.86905,2.61402 -1.2549,0 -1.52041,-0.896 -0.77462,-2.61402 3.70412,-8.53296 6.56242,-18.17188 6.60477,-22.27304 0.0494,-4.79318 -5.58185,-21.41992 -7.25375,-21.41693 -0.50215,9e-4 -3.15462,4.9874 -5.89441,11.0811 -2.73977,6.09371 -6.99903,13.82303 -9.46503,17.17626 -4.78463,6.50609 -9.54474,8.34238 -8.06017,3.10934 0.46615,-1.64311 1.27958,-4.49141 1.80763,-6.32958 0.83565,-2.90898 0.0771,-2.61858 -5.85289,2.2406 -6.26513,5.13381 -10.04451,6.90248 -10.04451,4.70064 0,-0.48513 2.9399,-4.35016 6.53311,-8.58894 7.71621,-9.10254 15.33097,-23.29936 18.07357,-33.69601 1.76248,-6.6813 1.70006,-7.68204 -0.60962,-9.77227 -3.64703,-3.30052 -4.17502,-2.98567 -4.86206,2.89934 -0.42092,3.6054 -0.007,5.22805 1.3303,5.22805 3.59521,0 1.97766,2.92168 -2.16711,3.91432 -2.25926,0.54108 -13.69966,4.59606 -25.42311,9.01108 -11.72345,4.41503 -31.55271,10.62882 -44.06503,13.80845 -29.32326,7.45164 -105.862364,29.18149 -121.390016,34.46328 -10.794558,3.67181 -12.690108,3.909 -18.813568,2.35419 C 24.400858,202.9366 0.08948583,164.4491 2.7722971e-4,135.48179 -0.05500377,117.53097 8.1188402,112.49818 58.980522,99.166548 c 41.534198,-10.88675 46.498668,-12.31483 59.002328,-16.97264 6.98319,-2.601354 20.42675,-6.750034 29.8746,-9.219292 9.44784,-2.469259 26.58873,-7.4637 38.09088,-11.098759 11.50214,-3.635058 26.13544,-7.608415 32.51843,-8.829681 15.84288,-3.031245 34.38697,-7.579845 54.86399,-13.457347 9.44784,-2.711807 21.21096,-5.389016 26.14027,-5.949351 4.92931,-0.560337 15.01198,-2.61252 22.40594,-4.560409 7.39397,-1.947888 18.14882,-4.244427 23.89968,-5.103418 12.38445,-1.849835 24.903,-5.078973 61.7144,-15.919132 C 422.53829,3.625434 436.24238,0 437.94457,0 c 1.70218,0 10.82545,3.773206 20.27391,8.384904 12.44757,6.075538 19.46697,10.600963 25.48618,16.431027 4.56893,4.425367 9.01316,8.091616 9.87606,8.147219 2.66404,0.171664 -4.10919,2.641837 -9.74181,3.552808 l -5.33578,0.862963 3.43005,10.064836 c 3.41672,10.025663 4.42984,25.130923 2.21528,33.02862 -1.52985,5.455811 -19.62205,11.774331 -71.15398,24.849793 -26.71379,6.77823 -58.31732,15.71659 -65.49431,18.52362 -7.81825,3.05784 -29.96395,8.826 -43.41221,11.30732 -7.31929,1.35048 -15.25448,3.25393 -17.63374,4.22989 l -4.3259,1.77446 6.09219,8.15859 c 3.35071,4.48722 6.86363,10.73346 7.80652,13.88051 2.47568,8.26307 -0.32855,24.26019 -6.28829,35.87249 -4.96262,9.6694 -10.43024,16.78396 -8.29994,10.79998 z M 52.830241,204.70764 c 2.064396,-0.78488 4.7169,-2.96946 5.894456,-4.85462 2.815463,-4.5073 4.426576,-11.64307 2.628769,-11.64307 -0.780065,0 -1.709599,1.5124 -2.065634,3.36089 -0.371379,1.92815 -0.734053,0.80778 -0.850755,-2.62814 -0.143458,-4.22373 -1.083997,-6.53899 -3.190879,-7.85475 -2.533736,-1.58234 -2.98746,-1.49178 -2.98746,0.59631 0,1.35411 1.176313,3.43122 2.614027,4.61579 2.489551,2.05122 2.489551,2.11464 0,1.33185 -3.317151,-1.04301 -3.675634,4.33224 -0.373432,5.59941 2.619531,1.00521 3.060669,4.11753 0.505665,3.56758 -0.95421,-0.20539 -2.161469,1.30702 -2.682797,3.36089 -0.829891,3.26952 -1.078749,3.39376 -1.999396,0.99813 -0.578339,-1.5049 -1.051526,-3.95366 -1.051526,-5.44167 0,-1.48801 -1.008268,-3.09238 -2.240595,-3.56528 -1.686146,-0.64703 -2.287305,0.32992 -2.429354,3.94794 l -0.188761,4.80775 -1.552583,-5.53669 c -1.709911,-6.09775 -5.538545,-8.9497 -5.538545,-4.12568 0,1.61732 -0.672178,2.94058 -1.49373,2.94058 -0.821551,0 -1.493729,-1.60853 -1.493729,-3.57451 0,-3.2308 -2.718831,-5.66001 -6.721784,-6.00571 -0.821552,-0.071 -1.71423,-2.4459 -1.98373,-5.27764 -0.2695,-2.83173 -1.613857,-6.07946 -2.98746,-7.21716 -2.319282,-1.92095 -2.310967,-2.00989 0.116571,-1.24661 3.630903,1.14166 3.401069,-3.03918 -0.275233,-5.00668 -4.215426,-2.25603 -4.258184,-2.19206 -3.709575,5.54894 l 0.502842,7.09521 -1.577649,-6.72178 c -2.319767,-9.88368 -2.548739,-10.45611 -4.182434,-10.45611 -0.821552,0 -1.079807,1.17631 -0.573902,2.61403 0.699272,1.98723 0.486396,2.21539 -0.887789,0.95156 -1.77576,-1.63315 -5.1923099,-23.18557 -6.1298001,-38.66824 -0.3647314,-6.02356 -2.7414362,2.50615 -2.8533912,10.24051 -0.3310001,22.86719 19.2681953,57.4493 37.7414533,66.5935 7.176072,3.55213 7.064633,3.53679 12.018143,1.65347 z m 71.874389,-18.91673 c 4.92931,-1.33247 14.03244,-3.98684 20.2292,-5.8986 6.19674,-1.91177 22.32902,-6.25795 35.84952,-9.65819 27.63639,-6.95021 59.44391,-18.19397 62.36626,-22.04609 1.23085,-1.62245 1.83355,-6.36894 1.65768,-13.05453 l -0.27637,-10.50513 -4.8868,0.5705 c -3.93757,0.45969 -5.23734,-0.11113 -6.69153,-2.93842 -0.99261,-1.92992 -3.86273,-5.68344 -6.37803,-8.34118 -2.51531,-2.65773 -4.10364,-5.30189 -3.52963,-5.8759 1.18815,-1.18815 12.94257,10.51945 12.94257,12.89103 0,2.66038 5.22949,1.71121 12.82626,-2.32803 4.01295,-2.13371 9.7077,-3.9822 12.65498,-4.10776 6.97131,-0.29698 10.58143,-4.09172 11.48042,-12.06748 0.62049,-5.504962 -0.0456,-7.643572 -4.5951,-14.755742 -2.92641,-4.57473 -6.86886,-9.187168 -8.76098,-10.249868 -3.26102,-1.831534 -29.55754,-2.938359 -29.58657,-1.245303 -0.007,0.410775 -2.01107,1.883862 -4.45338,3.273526 -5.18808,2.951985 -10.46428,10.934025 -10.47226,15.842855 -0.003,1.88772 1.77302,5.080562 3.94686,7.095212 3.83292,3.55223 3.85391,3.663 0.69431,3.663 -2.79526,0 -3.03098,0.42442 -1.65929,2.98746 1.26532,2.36427 1.13596,2.98746 -0.62009,2.98746 -1.22041,0 -2.81047,-1.05703 -3.53347,-2.34897 -1.04546,-1.86813 -2.36016,-2.07501 -6.42257,-1.01067 -4.17919,1.09494 -5.01802,1.9592 -4.61304,4.75284 0.31281,2.1579 -0.0995,3.04715 -1.1203,2.41625 -0.88841,-0.54906 -1.61529,-1.9669 -1.61529,-3.15074 0,-1.18384 -0.99146,-2.15244 -2.20325,-2.15244 -1.63002,0 -2.02553,1.26306 -1.52018,4.85462 l 0.68308,4.85463 -1.75564,-4.10776 c -2.0264,-4.74126 -4.26341,-5.54827 -3.10547,-1.1203 0.43679,1.67027 0.0459,2.98746 -0.8867,2.98746 -0.91738,0 -1.66795,-1.00827 -1.66795,-2.24059 0,-1.23233 -1.02107,-2.2406 -2.26905,-2.2406 -1.70851,0 -2.0237,0.97757 -1.27588,3.95712 0.69896,2.78489 0.48615,3.64376 -0.71841,2.8993 -0.94136,-0.58179 -1.71158,-2.02641 -1.71158,-3.21025 0,-1.18384 -0.75057,-2.15244 -1.66794,-2.15244 -0.93227,0 -1.32353,1.31703 -0.8871,2.98597 0.42947,1.64229 0.17178,3.3624 -0.57265,3.82248 -0.74443,0.46009 -1.3535,-0.92327 -1.3535,-3.07412 0,-2.42214 -0.61462,-3.53078 -1.61476,-2.91266 -0.88811,0.54889 -1.2114,2.60509 -0.71841,4.56934 0.493,1.96425 0.28977,3.57137 -0.45162,3.57137 -0.74138,0 -1.69952,-1.34436 -2.1292,-2.98746 -1.211,-4.63086 -4.04838,-3.52217 -4.04838,1.58189 0,2.66586 -0.62226,4.18477 -1.49373,3.64616 -0.82156,-0.50775 -1.49373,-2.26752 -1.49373,-3.91062 0,-1.73839 -0.66712,-2.57517 -1.59556,-2.00136 -0.87757,0.54236 -1.23475,1.92639 -0.79375,3.07561 0.441,1.14923 0.15073,2.08951 -0.64503,2.08951 -0.79577,0 -1.44685,-1.04794 -1.44685,-2.32876 0,-1.29654 -0.71977,-1.8839 -1.62387,-1.32514 -0.89311,0.55198 -1.29231,2.27142 -0.88709,3.82099 1.05925,4.05057 -1.43362,4.9367 -2.63431,0.9364 -0.97638,-3.25293 -1.03922,-3.26265 -2.30544,-0.35663 -1.16311,2.6694 -1.31287,2.69978 -1.40668,0.28527 -0.0591,-1.52052 -0.80271,-2.27096 -1.70055,-1.71607 -0.87756,0.54238 -1.23475,1.92639 -0.79375,3.07562 0.91234,2.37751 -1.43333,2.8698 -2.83875,0.59578 -1.58605,-2.56629 -4.11031,-1.64178 -3.05877,1.12029 0.79792,2.09593 0.62237,2.24396 -0.8858,0.74687 -2.58552,-2.56653 -4.77485,-2.3474 -3.73077,0.37343 0.47289,1.23233 0.20871,2.2406 -0.58705,2.2406 -0.79577,0 -1.44685,-0.67218 -1.44685,-1.49373 0,-0.82156 -0.65109,-1.49373 -1.44686,-1.49373 -0.79576,0 -1.01762,1.11853 -0.49302,2.48562 0.64135,1.67132 0.3813,2.13181 -0.79374,1.40559 -0.99025,-0.61201 -1.76816,-0.23271 -1.79507,0.87525 -0.03,1.23581 -0.82813,0.92447 -2.16884,-0.84607 -2.48295,-3.27893 -6.69684,-2.27377 -6.85103,1.63422 -0.0919,2.3292 -0.26502,2.28848 -1.38874,-0.32656 -1.22493,-2.85057 -1.28857,-2.83346 -1.38875,0.37343 -0.11486,3.67697 -3.09244,4.75566 -3.09244,1.1203 0,-1.23233 -0.71748,-2.24059 -1.59439,-2.24059 -0.93165,0 -1.20995,1.39701 -0.66952,3.36089 0.85238,3.0975 0.75957,3.15602 -1.18431,0.74686 -2.82748,-3.50426 -3.99925,-3.29212 -4.12542,0.74687 -0.10017,3.20689 -0.16381,3.224 -1.38874,0.37343 -1.28375,-2.98746 -1.28375,-2.98746 -1.43625,0 -0.14913,2.92178 -0.1998,2.92495 -2.30448,0.14414 -1.93543,-2.55719 -2.24702,-2.59562 -3.09647,-0.382 -0.51947,1.35371 -1.58444,2.06578 -2.36659,1.58238 -0.78216,-0.4834 -3.079162,-0.46301 -5.104446,0.0453 -3.131187,0.78588 -3.44597,1.36585 -2.103143,3.87494 0.868555,1.62291 0.98608,2.95075 0.261168,2.95075 -0.724911,0 -2.047425,-1.5124 -2.938917,-3.36089 -1.562748,-3.24032 -1.627921,-3.20014 -1.816676,1.12029 -0.183567,4.2017 -0.280036,4.27158 -1.546691,1.1203 -1.604157,-3.99093 -4.385634,-4.44724 -4.552568,-0.74686 -0.07044,1.5616 -0.421257,1.86229 -0.871343,0.74686 -1.228663,-3.04495 -3.478469,-2.12806 -3.665194,1.49373 -0.130388,2.52914 -0.342333,2.71397 -0.856393,0.74687 -0.960948,-3.67719 -3.1351,-3.2517 -3.816347,0.74686 -0.487632,2.86215 -0.790313,2.60015 -2.039677,-1.76556 -1.783612,-6.23256 -6.027751,-8.62544 -4.499635,-2.53695 0.581697,2.31767 0.361848,3.92908 -0.536054,3.92908 -0.837204,0 -1.601717,-2.52067 -1.698919,-5.60149 -0.173906,-5.51197 -0.193611,-5.52988 -1.233036,-1.1203 -1.047227,4.44267 -1.070015,4.4234 -2.650762,-2.24059 -1.400235,-5.903 -1.627925,-6.17593 -1.869218,-2.2406 -0.266702,4.34975 -0.329096,4.30592 -2.12698,-1.49372 l -1.852217,-5.97492 -0.838485,5.22805 c -0.484821,3.02292 -0.01573,6.8413 1.112161,9.05281 1.072857,2.10362 3.762115,10.1213 5.976131,17.8171 4.465665,15.52238 4.536334,28.44277 0.20142,36.82556 l -2.357114,4.55817 27.927388,-7.98474 c 15.360067,-4.39156 31.960457,-9.07488 36.889767,-10.40735 z M 98.159808,146.97678 c -0.59905,-0.59905 -1.089177,-2.11985 -1.089177,-3.37957 0,-1.68132 0.441897,-1.84849 1.661777,-0.6286 0.91397,0.91398 1.404102,2.43478 1.08918,3.37956 -0.31493,0.94478 -1.06273,1.22767 -1.66178,0.62861 z M 205.66019,114.42996 c -0.61123,-1.5553 -0.75941,-3.17973 -0.32931,-3.60984 1.36237,-1.36237 2.56109,0.87019 1.99023,3.70673 -0.52316,2.59957 -0.60306,2.59491 -1.66092,-0.0969 z m 4.93391,-3.23525 c 0,-1.28081 0.67218,-1.91332 1.49373,-1.40557 0.82155,0.50774 1.49373,1.55568 1.49373,2.32875 0,0.77306 -0.67218,1.40557 -1.49373,1.40557 -0.82155,0 -1.49373,-1.04794 -1.49373,-2.32875 z m 30.37187,-3.79883 c -4.97041,-1.43131 -12.44711,-9.035062 -12.44711,-12.658652 0,-3.3581 2.29105,-2.48397 4.54939,1.73578 2.3065,4.309722 8.57829,8.088072 13.42566,8.088072 1.79558,0 2.92807,0.77416 2.59484,1.77381 -0.80879,2.42642 -2.57843,2.65757 -8.12278,1.06099 z m 44.30134,82.33985 c 2.4983,-6.03146 5.08972,-5.81241 4.039,0.34138 l -0.8289,4.85462 2.34182,-5.22805 c 2.89011,-6.45211 4.34372,-25.37142 2.24818,-29.26111 -2.20558,-4.09392 -14.55254,-20.50465 -24.80944,-32.97495 l -8.80276,-10.70237 -5.01208,2.39009 c -2.75663,1.31454 -5.01206,2.79964 -5.01206,3.30022 0,0.50056 3.51769,3.56892 7.81708,6.81855 11.02357,8.33201 13.78865,11.74207 20.78877,25.63796 7.256,14.40381 8.71505,23.82888 5.25901,33.9718 -2.55355,7.49424 -1.04923,8.14426 1.97138,0.85186 z m -236.259937,-2.5223 c -0.726776,-3.74742 -4.217283,-4.26198 -4.217283,-0.62169 0,1.8348 0.964485,3.11194 2.350121,3.11194 1.391019,0 2.153021,-1.01629 1.867162,-2.49025 z m -7.763825,-4.28082 c -1.087602,-2.83424 -5.415837,-2.85419 -5.415837,-0.0249 0,2.62592 4.982996,5.80746 5.74239,3.66639 0.282884,-0.79756 0.13593,-2.43622 -0.326553,-3.64145 z M 266.78245,166.07202 c 3.60156,-7.65732 6.5483,-14.08046 6.5483,-14.27366 0,-0.19319 -1.619,-2.54568 -3.59777,-5.22776 l -3.59778,-4.8765 -2.50663,8.69406 c -1.37865,4.78172 -4.51423,12.22299 -6.96797,16.53614 -4.35405,7.65351 -3.85229,11.16398 0.64052,4.48119 3.74567,-5.5715 4.5441,-1.85392 1.21715,5.66722 -7.37249,16.66671 -0.35614,7.32706 8.26418,-11.00069 z M 34.333982,181.54071 c 0,-1.20342 -1.300167,-2.88387 -2.889261,-3.73432 -4.003068,-2.14237 -4.634873,-1.95078 -3.521166,1.06775 1.696021,4.5968 6.410427,6.55787 6.410427,2.66657 z m 14.937297,-1.45812 c 0,-2.37896 -2.710162,-4.59768 -4.018238,-3.28961 -1.2288,1.2288 0.689385,5.44205 2.477628,5.44205 0.847336,0 1.54061,-0.9686 1.54061,-2.15244 z m -7.468649,-3.82248 c 0,-1.6431 -0.281114,-2.98746 -0.624697,-2.98746 -0.343582,0 -1.687938,-0.408 -2.987459,-0.90668 -1.674842,-0.64269 -2.362763,-0.0266 -2.362763,2.11612 0,2.71532 1.667941,4.31212 4.854622,4.64755 0.616164,0.0648 1.120297,-1.22643 1.120297,-2.86953 z m 16.068789,-3.67331 c -0.412919,-3.66341 -0.235518,-6.85626 0.394228,-7.09521 0.629746,-0.23896 -0.192791,-4.80361 -1.827859,-10.1437 C 52.849682,143.62924 39.208773,122.48597 32.471581,118.2005 l -4.859383,-3.091 -0.484242,4.65183 c -0.281865,2.70771 0.342403,5.17593 1.49373,5.90588 2.998296,1.90097 4.220366,1.54884 3.265008,-0.94078 -0.472888,-1.23232 -0.115705,-2.24059 0.793745,-2.24059 0.909449,0 1.653543,1.32886 1.653543,2.95303 0,1.62416 1.84849,4.10943 4.107756,5.52282 2.259267,1.41339 4.411586,2.797 4.782933,3.07468 0.371348,0.27769 0.520606,2.80004 0.331685,5.60525 -0.257988,3.83076 0.418235,5.50803 2.716586,6.73807 1.683044,0.90073 3.718364,1.23086 4.522938,0.73361 0.86594,-0.53519 1.462858,1.65512 1.462858,5.36774 0,4.22141 0.854589,6.92055 2.614027,8.25615 2.489551,1.88984 2.489551,1.9866 0,2.03185 -3.048134,0.0554 -3.495515,4.49055 -0.746864,7.40412 1.493729,1.58335 1.493729,2.11612 0,2.66381 -3.863326,1.41657 -1.615438,5.86232 3.181722,6.29267 0.723008,0.0648 0.976717,-2.87942 0.563796,-6.54284 z m 3.914889,1.05928 c -1.406867,-5.86437 -2.058921,-6.06146 -2.058921,-0.62239 0,2.60158 0.684984,4.73015 1.522188,4.73015 0.903649,0 1.12175,-1.66919 0.536733,-4.10776 z m -29.505138,-2.6633 c -0.987478,-2.57333 -5.415837,-2.97303 -5.415837,-0.48883 0,2.30348 5.086928,5.95211 5.74239,4.11875 0.282884,-0.79123 0.135929,-2.42469 -0.326553,-3.62992 z m 16.990109,1.7259 c 0,-1.13173 -1.008268,-2.89448 -2.240595,-3.91722 -1.861746,-1.54511 -2.240594,-1.36557 -2.240594,1.06188 0,1.60677 0.448119,3.36952 0.99582,3.91721 1.66822,1.66823 3.485369,1.11461 3.485369,-1.06187 z m -9.920246,-8.00111 c -2.413219,-1.77376 -2.846562,-1.70188 -3.312319,0.54941 -0.294723,1.42459 0.713544,3.50849 2.240595,4.63091 2.413219,1.77376 2.846562,1.70188 3.312319,-0.54941 0.294723,-1.42459 -0.713545,-3.50849 -2.240595,-4.63091 z M 32.57071,163.9521 c -0.603339,-4.22889 -5.705377,-5.56495 -5.705377,-1.49404 0,3.38321 1.23,4.83967 4.08717,4.83967 1.316565,0 1.918095,-1.24366 1.618207,-3.34563 z m 16.126914,-3.4634 c -0.454472,-1.18435 -1.519589,-2.15335 -2.366924,-2.15335 -2.151771,0 -1.927332,4.98804 0.326552,7.25744 1.499288,1.5096 1.965627,1.40413 2.366925,-0.53537 0.274869,-1.32846 0.127923,-3.38439 -0.326553,-4.56872 z m -23.326021,0.24706 c 0,-3.23334 -2.438128,-5.38787 -6.097086,-5.38787 -2.432989,0 -1.456273,5.77714 1.242465,7.349 3.960881,2.30701 4.854621,1.94596 4.854621,-1.96113 z m 14.869062,-6.21695 c -2.666788,-3.21328 -4.412954,-2.61906 -4.412954,1.50172 0,4.78803 5.006179,7.97397 5.716152,3.63774 0.268453,-1.63959 -0.317986,-3.95236 -1.303198,-5.13946 z m -26.673457,-2.67682 -3.132902,-3.13289 0,3.2127 c 0,1.76699 1.176312,4.38902 2.614027,5.82675 2.489562,2.4896 2.638733,2.48579 3.132902,-0.0798 0.285382,-1.48163 -0.89093,-4.10366 -2.614027,-5.82677 z m 17.525494,-2.6575 c -3.24668,-2.05821 -4.227369,-1.51192 -4.227369,2.35485 0,2.01306 1.176312,4.32523 2.614027,5.13818 2.164349,1.2238 2.698842,0.81477 3.107071,-2.37773 0.271175,-2.12068 -0.401003,-4.42256 -1.493729,-5.1153 z m 17.619495,2.3798 c -0.462487,-1.20523 -1.534162,-2.19132 -2.381497,-2.19132 -2.199238,0 -1.912455,5.59707 0.326552,6.37325 2.247593,0.77916 3.208388,-1.17611 2.054945,-4.18193 z m -25.738541,-6.22542 c -3.962348,-2.89733 -5.070702,-2.39195 -5.070702,2.31212 0,2.96577 1.017172,4.71138 3.360892,5.76775 2.964107,1.33601 3.420108,1.06303 3.862469,-2.3121 0.313357,-2.39088 -0.494432,-4.55523 -2.152659,-5.76777 z m 17.275691,0.22802 c -2.510752,-3.02527 -4.421636,-2.70356 -4.421636,0.7444 0,3.71635 4.998147,6.90166 5.724833,3.64842 0.273227,-1.22319 -0.313211,-3.19996 -1.303197,-4.39282 z m -24.788521,-0.30167 c -1.419197,-5.79889 -4.167358,-7.15982 -4.772699,-2.36353 -0.445639,3.53094 1.605569,6.3882 4.629259,6.44841 0.631816,0.012 0.696363,-1.82562 0.143443,-4.08488 z m 17.379426,-1.81462 c 0,-1.6142 -1.344357,-3.65438 -2.98746,-4.53374 -2.609889,-1.39677 -2.987459,-1.13596 -2.987459,2.06356 0,3.27627 1.52452,4.93663 4.854622,5.28716 0.616163,0.0648 1.120297,-1.20278 1.120297,-2.81698 z m 6.490211,-8.63703 c -2.438738,-1.79644 -2.812646,-1.6632 -3.249089,1.15779 -0.280947,1.81593 0.683324,4.0566 2.240594,5.20646 2.411261,1.78042 2.794592,1.64382 3.249089,-1.15779 0.297114,-1.83148 -0.651571,-4.03592 -2.240594,-5.20646 z m 60.567975,1.62485 c 10.357202,-2.82088 22.528252,-6.12241 27.046792,-7.33672 4.51853,-1.21431 20.65082,-6.20615 35.84952,-11.09295 15.1987,-4.88681 32.84398,-9.95767 39.21172,-11.26857 l 11.57772,-2.38346 -0.92985,-5.814912 c -1.00836,-6.30591 2.9531,-15.13251 8.55154,-19.053805 2.7627,-1.935067 2.73475,-2.140599 -0.94738,-6.968119 -2.08671,-2.735833 -6.523,-6.780187 -9.85841,-8.987453 -5.78372,-3.827483 -6.42073,-3.929403 -13.76472,-2.202263 -4.2352,0.996022 -13.07778,3.695719 -19.65019,5.999327 -6.57241,2.303607 -17.32727,5.61537 -23.89968,7.359472 -6.57241,1.744102 -21.02425,6.129086 -32.11519,9.744411 -21.760972,7.09344 -31.581813,9.90828 -62.736653,17.981542 -11.090943,2.87403 -22.400691,5.9459 -25.132773,6.82637 l -4.967421,1.60085 7.208015,3.35332 c 8.635575,4.01746 24.268636,14.80258 33.429794,23.06296 4.558886,4.11063 7.526651,5.7243 9.468083,5.14813 1.555292,-0.46158 11.301878,-3.14723 21.659083,-5.96813 z m 151.863752,-7.04074 c -3.03688,-2.76002 -3.08453,-2.74265 -3.56805,1.30079 -0.65322,5.46252 0.96575,11.54977 2.77446,10.43192 0.79746,-0.49285 1.54532,-0.0163 1.66191,1.05921 0.11651,1.07542 0.66145,-0.73339 1.21081,-4.0196 0.82232,-4.91885 0.45483,-6.46936 -2.07913,-8.77232 z m -227.884317,9.01209 c 0,-2.27799 -1.300045,-4.0869 -3.734324,-5.19604 -3.42531,-1.56066 -3.734324,-1.40124 -3.734324,1.92661 0,3.21364 3.190822,6.59055 6.348351,6.71856 0.616164,0.0249 1.120297,-1.52713 1.120297,-3.44913 z m 29.874595,-4.72096 c 0,-2.87543 -0.744094,-5.22805 -1.653542,-5.22805 -0.909449,0 -1.266634,1.00826 -0.793746,2.24059 0.47289,1.23233 0.203019,2.2406 -0.59971,2.2406 -0.814792,0 -0.635362,1.31966 0.406193,2.98746 2.484389,3.97814 2.640805,3.84542 2.640805,-2.2406 z m -38.836973,0 c 0,-2.05388 -0.281114,-3.73432 -0.624697,-3.73432 -0.343582,0 -1.687939,-0.408 -2.98746,-0.90668 -2.8729658,-1.10246 -3.3020978,3.85104 -0.570286,6.58285 2.784493,2.78449 4.182443,2.13545 4.182443,-1.94185 z m 16.371474,-3.05922 c -2.510752,-3.02526 -4.421636,-2.70356 -4.421636,0.7444 0,3.71636 4.998147,6.90166 5.724833,3.64842 0.273227,-1.22318 -0.313212,-3.19995 -1.303197,-4.39282 z m 265.200941,3.35369 c 5.74846,-1.27773 14.48483,-3.10713 19.41414,-4.06535 4.9293,-0.95821 18.03678,-4.65207 29.12773,-8.20857 25.39356,-8.14293 53.36709,-16.01608 71.69902,-20.17969 17.18928,-3.904082 40.50861,-10.790352 54.06577,-15.965772 l 10.00075,-3.81777 0.97603,-7.811906 c 0.55631,-4.452626 0.19596,-11.590947 -0.83798,-16.599956 -1.9141,-9.272859 -5.90872,-20.529327 -6.92475,-19.51329 -0.33092,0.330919 0.0727,2.375341 0.89688,4.543159 0.82421,2.167817 0.91588,3.941487 0.20373,3.941487 -0.71217,0 -1.7166,-1.680446 -2.23208,-3.734324 -1.44399,-5.753304 -3.34251,-4.419897 -2.65848,1.867162 0.73682,6.772546 -2.12571,5.054594 -3.11117,-1.867162 l -0.63801,-4.48119 -0.2238,4.942777 c -0.23471,5.183462 -3.21127,5.366175 -3.21127,0.197122 0,-1.594618 -0.71746,-2.899304 -1.59439,-2.899304 -0.91462,0 -1.19013,1.273687 -0.6462,2.987459 0.54393,1.713773 0.26842,2.98746 -0.6462,2.98746 -0.87693,0 -1.59439,-1.323261 -1.59439,-2.940579 0,-1.993932 -0.71789,-2.665102 -2.22996,-2.084861 -1.50972,0.579328 -1.93988,2.011574 -1.33181,4.434308 1.13611,4.52662 -0.57149,4.683699 -2.36661,0.217699 -0.9203,-2.28958 -1.38109,-2.583181 -1.44559,-0.92108 -0.14175,3.654488 -6.0696,4.782179 -6.0696,1.15467 0,-3.099249 -1.13315,-3.503633 -4.26199,-1.520977 -1.55201,0.983475 -1.63872,1.995875 -0.37343,4.360116 2.04465,3.820456 2.06798,4.769353 0.11726,4.769353 -0.84188,0 -2.16961,-1.680446 -2.95049,-3.734325 -1.76664,-4.646602 -4.41321,-4.857572 -4.68461,-0.373432 l -0.20341,3.360892 -0.64734,-3.360892 c -0.35605,-1.848491 -1.35112,-3.360892 -2.21132,-3.360892 -0.86278,0 -1.24392,1.674245 -0.85011,3.734324 0.39263,2.053879 0.13488,3.734325 -0.57273,3.734325 -0.70762,0 -1.28659,-1.393644 -1.28659,-3.096986 0,-2.160998 -0.79002,-2.93252 -2.61403,-2.552802 -1.68424,0.350621 -2.48746,1.717847 -2.2582,3.84385 0.19571,1.814818 -0.30843,3.299667 -1.1203,3.299667 -0.81187,0 -1.47612,-1.344356 -1.47612,-2.987459 0,-1.643103 -0.67218,-2.98746 -1.49373,-2.98746 -0.82155,0 -1.49373,1.680446 -1.49373,3.734325 0,2.053878 -0.67218,3.734324 -1.49373,3.734324 -0.82155,0 -1.49373,-1.344357 -1.49373,-2.987459 0,-1.716786 -0.99582,-2.98746 -2.34125,-2.98746 -1.66149,0 -2.06595,0.867378 -1.39307,2.98746 1.09071,3.436491 -1.48336,4.127838 -2.78077,0.746864 -1.11725,-2.911528 -5.43474,-2.911528 -5.43474,0 0,1.232327 -0.67218,2.240595 -1.49373,2.240595 -0.82156,0 -1.49373,-0.672178 -1.49373,-1.49373 0,-0.821551 -0.60925,-1.493729 -1.35389,-1.493729 -0.74464,0 -1.03448,1.512401 -0.6441,3.360891 0.62534,2.960931 0.51098,3.049811 -0.96093,0.746865 -2.0409,-3.193196 -4.74728,-3.477394 -3.55618,-0.373432 0.4729,1.232327 0.11576,2.240595 -0.79374,2.240595 -0.90946,0 -1.65354,-0.987172 -1.65354,-2.193714 0,-1.25874 -0.8846,-1.854261 -2.07553,-1.397261 -1.19997,0.460474 -1.75661,2.016004 -1.31951,3.687444 0.98838,3.779581 -0.86447,3.75051 -2.26502,-0.03554 -0.82655,-2.234401 -1.61003,-2.560775 -3.31275,-1.38001 -1.68846,1.170875 -1.77438,1.731297 -0.3537,2.307244 1.03207,0.4184 1.49653,1.375494 1.03214,2.126876 -1.3296,2.151331 -3.65547,1.594945 -3.65547,-0.874449 0,-1.251822 -1.33093,-2.240594 -3.01592,-2.240594 -2.51638,0 -2.85141,0.655439 -2.02274,3.957118 0.69896,2.784889 0.48614,3.643758 -0.71841,2.899304 -0.94137,-0.581799 -1.71158,-2.066082 -1.71158,-3.298409 0,-1.241918 -0.72848,-1.790368 -1.63439,-1.230484 -0.89892,0.555562 -1.32823,2.611766 -0.954,4.569345 0.83236,4.354282 -1.31404,4.748456 -2.66576,0.489549 -1.29473,-4.079343 -4.5644,-2.769535 -4.05379,1.62392 0.37977,3.267544 0.25313,3.318863 -2.35821,0.955641 -3.40669,-3.083018 -5.36315,-3.223457 -4.24306,-0.304578 0.46279,1.206017 0.19387,2.592978 -0.59761,3.082135 -0.79147,0.489158 -1.84229,-0.161494 -2.33516,-1.445893 -1.38055,-3.597651 -5.46362,-2.97992 -4.31083,0.652189 1.14937,3.621321 -0.49136,3.907881 -2.96961,0.518661 -2.53605,-3.468253 -5.74338,-1.251797 -3.70366,2.55945 1.08373,2.024962 1.07083,2.896808 -0.0429,2.896808 -0.87623,0 -1.98007,-1.008267 -2.45296,-2.240594 -0.4729,-1.232327 -2.11114,-2.240595 -3.64056,-2.240595 -1.85811,0 -2.49548,0.743432 -1.92098,2.240595 0.4729,1.232327 0.11576,2.240594 -0.79374,2.240594 -0.90946,0 -1.65354,-0.672178 -1.65354,-1.493729 0,-3.45775 -4.33539,-1.153436 -4.91809,2.614027 -0.61267,3.961238 -0.67571,3.987878 -1.76716,0.746865 -1.85969,-5.522225 -4.67911,-3.895077 -3.88237,2.240594 0.13339,1.026939 -0.45917,1.867169 -1.31673,1.867169 -0.85757,0 -1.55922,-1.38403 -1.55922,-3.075622 0,-1.834353 -0.65536,-2.670579 -1.62386,-2.072013 -0.89312,0.551981 -1.29232,2.271426 -0.8871,3.820995 0.40522,1.54957 0.12771,3.19382 -0.61673,3.6539 -0.74443,0.46008 -1.3535,-0.82068 -1.3535,-2.84613 0,-2.991182 -0.58176,-3.530508 -3.09838,-2.872395 -2.39684,0.626787 -2.89772,1.609771 -2.21214,4.341355 0.48743,1.9421 0.27965,3.5311 -0.46173,3.5311 -0.74138,0 -1.69952,-1.34436 -2.12921,-2.98746 -0.42968,-1.64311 -1.92529,-2.98746 -3.3236,-2.98746 -1.96598,0 -2.32988,0.84663 -1.60512,3.73432 0.5155,2.05388 0.33067,3.73433 -0.41072,3.73433 -0.74138,0 -1.7172,-1.41199 -2.1685,-3.13776 -0.47226,-1.80591 -1.52303,-2.70359 -2.47558,-2.11488 -0.91026,0.56257 -1.24631,2.31065 -0.74674,3.88461 0.50775,1.59976 0.20518,2.86176 -0.6861,2.86176 -0.87693,0 -1.5944,-1.34436 -1.5944,-2.98746 0,-1.64311 -0.56014,-2.98746 -1.24477,-2.98746 -2.43515,0 -3.10972,1.92686 -1.63757,4.67759 1.02504,1.91532 0.99345,2.79106 -0.10068,2.79106 -0.87692,0 -2.13424,-1.45928 -2.79402,-3.24285 -0.87742,-2.37188 -1.51767,-2.72821 -2.38383,-1.32672 -0.69908,1.13113 -0.34602,2.43416 0.86182,3.18064 1.53396,0.94804 1.61898,1.69158 0.33975,2.97082 -1.27924,1.27924 -1.95556,0.92095 -2.7022,-1.43153 -0.54775,-1.7258 -1.66809,-3.13782 -2.48964,-3.13782 -0.82155,0 -1.06705,1.34435 -0.54554,2.98746 0.54392,1.71377 0.26842,2.98746 -0.64621,2.98746 -0.87692,0 -1.59439,-0.61721 -1.59439,-1.37157 0,-0.75435 -0.38822,-2.38325 -0.86272,-3.61976 -1.26415,-3.29436 2.32985,-4.75782 34.20957,-13.929995 15.75362,-4.532504 34.02036,-9.787116 40.59277,-11.67692 6.57242,-1.889803 16.65509,-5.142225 22.40595,-7.227604 5.75086,-2.085379 18.52225,-5.54615 28.38087,-7.690602 9.85861,-2.144453 23.63827,-5.185718 30.62145,-6.758367 19.02019,-4.283442 34.20244,-7.241151 42.75346,-8.328955 10.71759,-1.363421 12.38489,-2.630954 8.74757,-6.650161 -4.57842,-5.05908 -15.65834,-12.467763 -24.61389,-16.45827 -4.51853,-2.013414 -9.07735,-4.476877 -10.1307,-5.474359 -3.83227,-3.629021 -12.25801,-3.912477 -23.26412,-0.782648 -5.86861,1.668868 -22.47663,6.4409 -36.9067,10.604515 -14.43008,4.163616 -32.57889,8.654676 -40.33071,9.980134 -7.75181,1.325457 -18.60609,3.649717 -24.12061,5.165023 -5.51454,1.515306 -15.26112,3.5331 -21.65908,4.483989 -6.39797,0.950887 -19.36273,3.955017 -28.81057,6.675843 -9.44784,2.720825 -24.05959,6.495189 -32.47057,8.387474 -15.2418,3.429069 -15.28353,3.450719 -12.54027,6.505047 1.51382,1.68549 4.36247,6.00226 6.33031,9.59282 l 3.57788,6.528292 9.10367,-0.848925 c 8.02693,-0.748518 9.74988,-0.409826 14.56711,2.863571 9.30722,6.324422 15.8338,23.334698 12.89062,33.59696 -0.77353,2.69712 -0.66066,4.67616 0.30057,5.27023 2.66102,1.6446 7.13602,13.06192 7.17026,18.29386 0.0223,3.39487 0.63725,4.78247 1.90431,4.29626 1.02933,-0.39498 6.5748,-1.76358 12.32327,-3.04131 z m -20.19808,-12.30292 c -3.55553,-7.34475 -3.67046,-7.40509 -8.74564,-4.59147 l -3.54597,1.96583 7.28029,8.07509 c 6.58904,7.30837 7.3257,7.74935 7.7586,4.6444 0.26306,-1.88688 -0.97321,-6.42912 -2.74728,-10.09385 z m -252.411957,7.3185 c 0,-2.33059 -3.960573,-6.36426 -6.348351,-6.46552 -2.254243,-0.0956 -1.043254,5.82384 1.49373,7.3015 3.711873,2.16196 4.854621,1.96518 4.854621,-0.83598 z m 25.356102,-2.66662 c -2.009161,-2.00917 -3.503437,0.0258 -2.307469,3.14253 0.858144,2.23628 1.216895,2.30467 2.362928,0.45033 0.815015,-1.3187 0.793007,-2.7444 -0.05546,-3.59286 z m -35.81221,-3.09954 c 0,-2.32357 -0.846447,-3.73432 -2.240594,-3.73432 -4.1736477,0 -2.6704668,5.91778 1.867162,7.35072 0.205388,0.0648 0.373432,-1.56252 0.373432,-3.6164 z m 10.456108,-4.48118 c 0,-2.98746 -0.746864,-3.73433 -3.734324,-3.73433 -4.362544,0 -5.045423,3.5691 -1.120297,5.85527 3.987695,2.32262 4.854621,1.94387 4.854621,-2.12094 z M 230.65883,72.819325 c 3.57976,-3.318939 -3.03509,-13.213114 -10.10005,-15.107184 -1.91736,-0.514033 -2.4881,-0.09682 -1.91403,1.399171 1.13473,2.957059 -0.60598,2.669813 -2.90923,-0.480072 -1.05033,-1.436422 -2.27079,-2.250599 -2.71209,-1.809281 -0.99478,0.994773 12.52963,17.864528 14.32191,17.864528 0.71478,0 2.20586,-0.840223 3.31349,-1.867162 z M 449.59086,43.141852 c 0,-0.821552 -0.67218,-1.078302 -1.49373,-0.570554 -0.82155,0.507747 -1.49373,1.595354 -1.49373,2.416905 0,0.821551 0.67218,1.078301 1.49373,0.570554 0.82155,-0.507747 1.49373,-1.595354 1.49373,-2.416905 z"
     id="path8924"
     inkscape:connector-curvature="0" />
  <path
     style="fill:#ffffff;fill-opacity:0.62371132;stroke:none;filter:url(#filter9444)"
     d="m 174.65538,79.155321 c 4.68893,-2.18483 9.42327,-3.370664 14.63816,6.015684 2.79463,-0.05866 4.3956,-1.443604 2.40627,-6.817775 -3.47723,-4.542937 -7.91612,-7.643374 -15.64078,-5.815162 -3.49952,2.205751 -1.96285,4.411502 -1.40365,6.617253 z"
     id="path9442"
     inkscape:connector-curvature="0"
     sodipodi:nodetypes="ccccc"
     transform="matrix(1.4241679,0.45052669,-0.45052669,1.4241679,27.639957,-106.30256)" />
</svg>
