<?xml version="1.0" encoding="UTF-8" standalone="no"?>
<!-- Created with Inkscape (http://www.inkscape.org/) -->

<svg
   xmlns:dc="http://purl.org/dc/elements/1.1/"
   xmlns:cc="http://creativecommons.org/ns#"
   xmlns:rdf="http://www.w3.org/1999/02/22-rdf-syntax-ns#"
   xmlns:svg="http://www.w3.org/2000/svg"
   xmlns="http://www.w3.org/2000/svg"
   xmlns:sodipodi="http://sodipodi.sourceforge.net/DTD/sodipodi-0.dtd"
   xmlns:inkscape="http://www.inkscape.org/namespaces/inkscape"
   id="svg8315"
   version="1.1"
   inkscape:version="0.48.4 r9939"
   width="496.05801"
   height="368.41379"
   sodipodi:docname="Rice.svg">
  <metadata
     id="metadata8321">
    <rdf:RDF>
      <cc:Work
         rdf:about="">
        <dc:format>image/svg+xml</dc:format>
        <dc:type
           rdf:resource="http://purl.org/dc/dcmitype/StillImage" />
        <dc:title />
      </cc:Work>
    </rdf:RDF>
  </metadata>
  <defs
     id="defs8319" />
  <sodipodi:namedview
     pagecolor="#ffffff"
     bordercolor="#666666"
     borderopacity="1"
     objecttolerance="10"
     gridtolerance="10"
     guidetolerance="10"
     inkscape:pageopacity="0"
     inkscape:pageshadow="2"
     inkscape:window-width="1279"
     inkscape:window-height="756"
     id="namedview8317"
     showgrid="false"
     inkscape:zoom="0.98743905"
     inkscape:cx="145.69162"
     inkscape:cy="244.20623"
     inkscape:window-x="3"
     inkscape:window-y="22"
     inkscape:window-maximized="0"
     inkscape:current-layer="svg8315"
     fit-margin-top="0"
     fit-margin-left="0"
     fit-margin-right="0"
     fit-margin-bottom="0" />
  <path
     style="fill:#ff0000;fill-opacity:1;stroke:none"
     d="M 0.42285896,110.26966 C 8.4020309,131.48748 13.001593,154.34808 24.545226,176.12794 50.18806,224.50938 82.288383,277.31042 148.08592,322.72712 l -4.4333,23.53062 c 20.04351,19.98555 154.60805,30.57038 226.43941,5.45636 l -15.00501,-31.37414 c 36.11008,0.65179 64.47261,-37.63979 88.26631,-74.7243 21.21199,-33.06064 38.56946,-76.06674 45.41479,-138.07419 C 444.3271,153.42703 376.78087,185.97348 244.59551,181.2025 126.07801,177.41664 40.77301,155.86596 0.42285896,110.26966 z"
     id="path8327"
     inkscape:connector-curvature="0"
     sodipodi:nodetypes="csccccsccc" />
  <path
     style="fill:#ff0000;fill-opacity:1;stroke:none"
     d="M 407.94561,41.041941 C 429.61422,65.764834 462.37627,76.224725 489.79119,93.55952 502.67722,82.646776 479.23553,71.734032 465.91958,60.821288 z"
     id="path8837"
     inkscape:connector-curvature="0"
     sodipodi:nodetypes="cccc" />
  <path
     style="fill:#ff0000;fill-opacity:1;stroke:none"
     d="m 270.51324,21.262594 c 37.05785,2.780502 74.11573,-1.031242 111.17358,8.52558 13.28365,4.360227 20.20861,9.780237 28.30493,15.005023 C 393.98118,36.346373 385.52985,40.858251 375.5484,42.747056 363.11721,46.9311 348.14881,47.240688 331.54876,41.80123 316.60169,36.903413 297.76353,40.71879 281.426,38.313755 272.78674,30.356545 269.14916,24.672827 270.51324,21.262594 z"
     id="path8839"
     inkscape:connector-curvature="0"
     sodipodi:nodetypes="ccccscc" />
  <path
     style="fill:#ff0000;fill-opacity:1;stroke:none"
     d="m 44.755881,70.710963 c 15.909564,1.559372 37.56429,-7.849293 56.609859,-12.276836 l 20.46139,-15.687068 c -6.30093,-0.554077 -12.86869,1.753794 -22.157091,4.835 -19.242124,6.383113 -56.45804,15.355986 -54.914158,23.128904 z"
     id="path8841"
     inkscape:connector-curvature="0"
     sodipodi:nodetypes="cccsc" />
  <path
     style="fill:#000000"
     d="m 209.77569,366.42375 c -25.48046,-2.05408 -58.15213,-9.34282 -65.1322,-14.53037 -3.7373,-2.77756 -4.10729,-5.25874 -2.08472,-13.98032 3.65985,-15.78154 3.89775,-15.33416 -14.63379,-27.51794 C 106.11664,296.05696 77.364193,265.3559 57.344239,235.03102 48.789677,222.07308 38.290889,206.30577 34.013648,199.9925 5.5843184,153.22531 -11.34373,107.51035 8.8338174,82.672506 15.248654,74.244311 19.779877,71.046464 26.732851,70.040493 c 5.12041,-0.740827 14.15888,-3.907099 20.085498,-7.036162 15.111098,-7.978168 54.182571,-20.530314 59.894561,-19.241789 2.61771,0.590506 -4.33252,3.789873 -15.444925,7.109706 -30.355168,9.068596 -43.245482,14.616376 -46.102489,19.841725 -1.750507,3.20165 -5.839578,4.714355 -12.743603,4.714355 -11.795883,0 -16.246693,3.032007 -24.2945554,16.550086 -7.21253162,12.115006 -5.1845237,19.074016 9.2526634,31.750056 20.048996,17.60323 60.156091,32.65151 111.492729,41.83234 59.63751,10.66531 88.57902,12.8623 153.66335,11.66481 57.87895,-1.06492 62.0486,-1.50234 92.43504,-9.69701 49.6603,-13.39247 98.99759,-41.6916 109.89367,-63.03335 9.87025,-19.33244 5.62989,-27.530351 -21.17941,-40.946211 -13.294,-6.652564 -53.88824,-24.317463 -53.88824,-20.701968 0,0.901032 21.57788,16.181562 28.98615,19.368514 7.40827,3.186953 13.46959,6.85744 13.46959,8.156638 0,3.220513 -0.99387,3.045937 -12.70471,-2.231628 C 423.87041,59.908403 411.48391,47.747805 401.68121,40.33749 392.15174,33.133742 378.29989,29.889471 363.80462,28.524037 356.88912,27.8444 333.20767,26.41692 311.17921,25.351863 l -40.05176,-1.936468 3.08815,5.770277 c 1.69849,3.173652 5.78077,6.343526 9.07171,7.04416 3.29097,0.700634 8.40809,1.786587 11.3714,2.413227 2.96331,0.62664 1.11159,1.279972 -4.11493,1.451846 -12.27861,0.403781 -21.47727,-6.044822 -21.47727,-15.05632 l 0,-6.981551 39.73527,2.077859 c 21.8544,1.142822 44.6655,2.455948 50.69133,2.91806 9.59751,0.736015 68.53833,18.567014 83.33106,25.20963 2.96331,1.33066 10.84301,4.432846 17.51046,6.893745 28.25644,10.429223 41.15406,26.485652 33.59533,41.823339 -1.82545,3.704133 -3.41858,12.446793 -3.54024,19.428123 -0.27731,15.91084 -5.7013,37.61152 -19.72069,78.89986 -13.69547,40.3344 -12.13467,37.4678 -39.05918,71.73651 -28.73766,36.57646 -42.09491,48.84577 -58.03587,53.30897 l -12.59493,3.52637 5.44357,13.81042 c 7.19971,18.26581 7.21245,18.51664 0.97186,19.13312 -2.96331,0.29272 -9.63075,1.8762 -14.81654,3.51885 -23.72865,7.51621 -89.99828,10.3386 -142.80225,6.08186 z m 101.04653,-5.46267 c 13.33489,-1.48567 30.69503,-4.12088 38.57811,-5.85603 12.61642,-2.77703 14.14104,-3.8237 12.73123,-8.74034 -0.88085,-3.07206 -2.34335,-8.98572 -3.24997,-13.14147 -1.21986,-5.59168 -2.77872,-7.10167 -5.99644,-5.80851 -2.39144,0.96108 -15.86459,4.76177 -29.94031,8.44594 -23.0536,6.03408 -28.79886,6.52591 -57.91921,4.95829 -17.77985,-0.95715 -41.12313,-3.68676 -52.53137,-4.5413 -9.36026,-0.70112 -56.81566,-9.33879 -58.7097,-8.9406 -2.06401,4.65455 -2.57183,11.23331 -4.78142,18.51427 -4.77251,5.36111 10.56964,3.79104 27.20655,10.51218 9.65463,3.90039 91.62101,9.38733 134.61253,4.59757 z m 2.68203,-28.30817 c 10.36507,-2.19548 31.81045,-8.31192 47.65645,-13.59202 31.00607,-10.33169 33.81974,-12.47847 58.30058,-44.48277 6.14927,-8.03905 16.02506,-20.67778 21.94621,-28.08605 10.90904,-13.64887 25.02426,-50.46749 37.69612,-98.32797 8.31739,-31.41392 7.77203,-32.1627 -11.03138,-15.14659 -19.19674,17.37207 -34.18753,23.79063 -89.90208,38.4931 -36.91459,9.74137 -38.97239,9.97645 -96.98102,11.07898 -50.49429,0.95972 -107.37941,-1.80136 -132.00192,-6.40708 -39.05825,-7.30596 -65.75909,-13.23986 -83.511439,-18.55926 -34.106853,-10.21994 -52.531389,-14.32468 -52.531389,-11.70329 0,1.33278 3.026885,8.39652 6.726415,15.69719 7.099497,14.01018 10.610668,15.88169 37.778312,20.13633 5.956925,0.93289 12.62437,2.83033 14.816546,4.21652 7.301916,4.61726 -3.727736,3.36859 -37.057662,-4.19531 -5.532606,-1.25558 -5.776836,-0.82759 -3.002506,5.26143 3.776495,8.28851 5.28746,8.84349 34.759023,12.76737 13.256902,1.76503 24.103475,4.33805 24.103475,5.71779 0,1.37974 -3.939854,1.83167 -8.755231,1.00429 C 77.697377,205.69819 66.53548,204.1799 57.70851,203.1516 l -16.048986,-1.86963 5.059905,7.78852 c 2.782951,4.28368 7.580467,11.67067 10.66115,16.41557 6.360124,9.79584 7.524058,10.20658 40.430204,14.26777 13.229317,1.6327 25.958077,4.08295 28.286137,5.44497 2.32808,1.36202 2.98879,2.51327 1.46826,2.55831 -4.66279,0.1382 -48.011721,-5.26483 -54.958337,-6.84999 l -6.538515,-1.49202 6.687623,8.67199 c 4.579255,5.93801 9.188467,8.81519 14.620267,9.12626 15.605212,0.89368 52.382282,7.76002 52.382282,9.77984 0,2.24088 -10.56711,1.02428 -37.71485,-4.34217 -9.63075,-1.90379 -18.04873,-2.95148 -18.706584,-2.32824 -0.657882,0.62324 6.606886,9.00617 16.143919,18.62872 9.537005,9.62254 17.699815,16.41617 18.139575,15.09693 0.43975,-1.31924 5.29761,-0.79276 10.79525,1.16994 5.49764,1.96274 14.78417,3.62181 20.6367,3.68685 7.98504,0.0886 9.872,0.88721 7.56008,3.19913 -2.26074,2.26074 -6.88641,2.32574 -17.37577,0.24434 -7.8622,-1.56018 -14.62258,-2.51787 -15.02311,-2.1282 -0.40054,0.38971 4.33957,4.06227 10.53356,8.16125 21.09065,13.95713 86.5982,26.45109 146.44186,27.93019 7.40827,0.18318 21.95009,-1.46339 32.31512,-3.65891 z M 121.57456,282.37046 c -12.22365,-2.91649 -22.224823,-6.5057 -22.224823,-7.97599 0,-1.47028 2.121463,-2.04683 4.714353,-1.2812 2.5929,0.76567 15.62472,3.98258 28.95961,7.14877 13.3349,3.16616 24.75037,6.25821 25.36771,6.87121 2.61089,2.59244 -16.17514,0.16218 -36.81685,-4.76279 z m -46.400091,-61.8502 c -13.824268,-2.29086 -21.554032,-5.97352 -18.644683,-8.88285 0.698749,-0.69877 6.073114,0.44008 11.943025,2.53078 5.869884,2.09069 17.571507,3.85448 26.003576,3.91951 8.432073,0.0649 16.080263,1.3305 16.995983,2.81216 2.0154,3.26098 -15.429443,3.07855 -36.297901,-0.3796 z m -42.499186,-54.8211 c -8.924706,-3.87904 -12.626634,-8.87854 -4.040876,-5.45722 2.592896,1.03323 11.987932,3.49108 20.87786,5.46189 l 16.163504,3.58327 -12.122628,0.10873 c -6.667446,0.0598 -16.062483,-1.6037 -20.87786,-3.69667 z m -7.554338,-28.54159 c -7.32794,-4.57193 -15.00194,-10.33018 -17.0533585,-12.79611 -3.4317264,-4.1252 -3.5931998,-4.08914 -2.020437,0.45119 0.9401761,2.71408 1.7093973,6.10707 1.7093973,7.53998 0,2.89154 20.6694052,12.96536 26.7931102,13.05838 2.142149,0.0325 -2.100771,-3.68151 -9.428712,-8.25344 z m 229.763625,22.86578 c -0.88568,-0.88568 -0.95648,-3.31426 -0.15733,-5.39685 0.99096,-2.58234 -1.20984,-4.31909 -6.92039,-5.4612 -7.58675,-1.51734 -12.01407,-6.38904 -5.80626,-6.38904 6.51591,0 16.29025,6.74408 16.29025,11.23992 0,4.29466 1.58997,4.78961 11.44914,3.56408 8.39694,-1.04377 10.0128,-0.74365 6.06131,1.12578 -6.17718,2.92239 -18.53347,3.70057 -20.91672,1.31731 z m 42.46806,-6.47142 c 0.91572,-1.48165 4.32099,-2.60871 7.56727,-2.50457 5.69052,0.18254 5.709,0.27242 0.51448,2.50457 -7.41495,3.18632 -10.051,3.18632 -8.08175,0 z m -94.15238,-2.39113 c 1.40757,-1.31513 5.58987,-3.19629 9.29401,-4.18037 6.4724,-1.71952 6.53105,-1.62636 1.50555,2.39114 -5.51072,4.40538 -15.34312,6.03437 -10.79956,1.78923 z M 89.921027,123.91884 c 0.915716,-1.48165 4.320962,-2.67535 7.56724,-2.65267 4.798513,0.0335 5.146623,0.52963 1.86147,2.65267 -5.30734,3.42986 -11.5485,3.42986 -9.42871,0 z M 56.24706,113.30713 c 0,-2.68269 13.865592,-11.02038 18.050162,-10.85395 2.365475,0.0941 -5.878801,6.88333 -13.335807,10.98217 -3.087822,1.69726 -4.714355,1.65302 -4.714355,-0.12821 z m 20.444758,-2.01981 c 5.604237,-4.09792 10.929411,-4.55919 13.048608,-1.13028 0.816392,1.32094 -2.872389,2.91034 -8.197267,3.53199 -8.520106,0.99467 -9.102127,0.70653 -4.851341,-2.40171 z M 292.26533,98.514865 c 0.8131,-2.118949 5.19888,-5.149606 9.74616,-6.734793 10.10354,-3.522111 10.15769,-3.523116 10.15769,-0.188251 0,1.481655 -2.2761,2.693918 -5.058,2.693918 -2.78187,0 -6.56709,1.818394 -8.41159,4.040876 -4.259,5.131785 -8.37752,5.252275 -6.43426,0.18825 z m 44.1491,0.85891 c 0,-1.993496 -3.37523,-2.373489 -10.10219,-1.137329 -6.38197,1.172765 -9.11013,0.91833 -7.40827,-0.690914 4.3983,-4.15895 20.25915,-6.31045 19.50684,-2.646076 -0.42887,2.088974 2.8843,2.90043 9.75543,2.389281 6.95877,-0.517668 9.80586,0.195201 8.59624,2.15237 -2.38169,3.853693 -20.34805,3.794243 -20.34805,-0.06732 z m 40.40876,0.614003 c 0,-1.308845 2.42453,-3.01375 5.38784,-3.788671 6.36187,-1.663667 7.31207,2.159641 1.12662,4.533213 -5.6551,2.17007 -6.51446,2.07186 -6.51446,-0.744542 z m 89.18006,-16.724294 c -6.513,-2.889617 -11.14021,-5.955465 -10.28268,-6.812992 2.31364,-2.313644 19.84555,4.037565 23.58584,8.544346 4.22069,5.085625 1.16574,4.688033 -13.30316,-1.731354 z M 178.8203,80.816163 c 0.91572,-1.481655 3.41176,-2.693918 5.5468,-2.693918 2.13507,0 3.88191,1.212263 3.88191,2.693918 0,1.481654 -2.49608,2.693917 -5.54683,2.693917 -3.05075,0 -4.7976,-1.212263 -3.88188,-2.693917 z m 68.69488,-5.228848 c 0,-1.394213 1.19838,-3.275569 2.66306,-4.180793 1.52707,-0.943784 1.97868,0.137552 1.05874,2.534931 -1.79089,4.666988 -3.7218,5.520879 -3.7218,1.645862 z m -76.04534,-6.128452 c 3.95109,-3.95108 6.84416,-5.0431 8.62985,-3.257409 1.78569,1.78569 -0.20689,3.778246 -5.94364,5.943635 l -8.62986,3.25741 z M 56.24706,70.323449 c 0,-1.326027 4.545985,-3.027845 10.10219,-3.781816 17.150528,-2.32731 42.16611,-12.664563 47.36823,-19.574114 2.71649,-3.608063 6.23884,-6.560117 7.82747,-6.560117 1.58863,0 6.63964,-2.846748 11.22448,-6.326107 8.44513,-6.408905 20.03684,-10.781736 35.94868,-13.561188 14.79025,-2.583537 9.68337,3.149125 -5.63907,6.330051 -14.64758,3.040821 -37.45916,15.629737 -51.04292,28.168785 -4.13492,3.816888 -9.70338,6.939798 -12.374373,6.939798 -2.671019,0 -11.903397,2.424526 -20.51639,5.387835 C 61.97748,73.253192 56.24706,73.99817 56.24706,70.323449 z m 292.29,-21.19123 c -5.92662,-0.551714 -11.90197,-2.109027 -13.27859,-3.4607 -1.50989,-1.482554 4.44963,-1.808351 15.02107,-0.821173 11.52205,1.075942 19.60894,0.520572 23.61151,-1.621526 3.34814,-1.791867 6.69363,-2.651811 7.43446,-1.910984 4.17649,4.176488 -17.18321,9.267084 -32.78845,7.814383 z m -45.7966,-8.724817 c -1.02517,-1.658747 3.51093,-2.693917 11.80467,-2.693917 7.40827,0 14.21879,1.212263 15.13451,2.693917 1.02517,1.658748 -3.51093,2.693918 -11.80467,2.693918 -7.40827,0 -14.21879,-1.212263 -15.13451,-2.693918 z M 242.74823,17.3714 c -8.4791,-5.93901 -33.53828,-14.1069568 -38.33572,-12.4953961 -2.22248,0.7465787 -8.58686,4.2127156 -14.14306,7.7025321 -5.55621,3.489814 -10.10217,5.420711 -10.10211,4.290885 C 180.1675,12.756017 198.90313,-0.00131992 204.94206,1.0243101e-7 211.65301,0.00147098 234.26269,7.9136381 251.55604,16.312389 c 9.37298,4.552103 9.88935,5.233621 3.96682,5.235467 -3.74489,0.0012 -9.49346,-1.878237 -12.77463,-4.176456 z"
     id="path8325"
     inkscape:connector-curvature="0"
     sodipodi:nodetypes="sssssccsssssssssssssssscscscssssscssssssssscssssssssssssccsscssssssssssssssssssscsssscscsssscssscsccscccsssscsscscssssscssssssssscssssssssssssssssssssssssssssssssssssscssssssssssssssssssssscsssssssssssssssssssssssssssssss" />
</svg>
