<?xml version="1.0" encoding="UTF-8" standalone="no"?>
<!-- Created with Inkscape (http://www.inkscape.org/) -->

<svg
   xmlns:dc="http://purl.org/dc/elements/1.1/"
   xmlns:cc="http://creativecommons.org/ns#"
   xmlns:rdf="http://www.w3.org/1999/02/22-rdf-syntax-ns#"
   xmlns:svg="http://www.w3.org/2000/svg"
   xmlns="http://www.w3.org/2000/svg"
   xmlns:sodipodi="http://sodipodi.sourceforge.net/DTD/sodipodi-0.dtd"
   xmlns:inkscape="http://www.inkscape.org/namespaces/inkscape"
   id="svg4584"
   version="1.1"
   inkscape:version="0.48.4 r9939"
   width="376"
   height="351"
   sodipodi:docname="RidingEquipment.png">
  <metadata
     id="metadata4590">
    <rdf:RDF>
      <cc:Work
         rdf:about="">
        <dc:format>image/svg+xml</dc:format>
        <dc:type
           rdf:resource="http://purl.org/dc/dcmitype/StillImage" />
        <dc:title></dc:title>
      </cc:Work>
    </rdf:RDF>
  </metadata>
  <defs
     id="defs4588" />
  <sodipodi:namedview
     pagecolor="#ffffff"
     bordercolor="#666666"
     borderopacity="1"
     objecttolerance="10"
     gridtolerance="10"
     guidetolerance="10"
     inkscape:pageopacity="0"
     inkscape:pageshadow="2"
     inkscape:window-width="1257"
     inkscape:window-height="756"
     id="namedview4586"
     showgrid="false"
     inkscape:zoom="1.9017345"
     inkscape:cx="171.50826"
     inkscape:cy="110.85046"
     inkscape:window-x="2"
     inkscape:window-y="22"
     inkscape:window-maximized="0"
     inkscape:current-layer="svg4584" />
  <path
     style="fill:#ffbf00;stroke:none;stroke-width:1px;stroke-linecap:butt;stroke-linejoin:miter;stroke-opacity:1;fill-opacity:1"
     d="m 28.395131,55.480301 11.042551,-4.732522 14.197566,0 -3.68085,-13.145894 -11.568387,-21.559266 -20.507595,3.68085 6.835865,13.145894 z"
     id="path4596"
     inkscape:connector-curvature="0" />
  <path
     style="fill:#ffbf00;stroke:#000000;stroke-width:1px;stroke-linecap:butt;stroke-linejoin:miter;stroke-opacity:1;fill-opacity:1"
     d="m 26.817624,58.635315 8.413372,-5.784193 13.145894,-2.629179 8.939208,3.155015 8.413372,9.465044 3.155015,9.465043 0,25.765953 L 65.72947,102.27968 39.963518,99.650505 32.601817,93.340476 26.817624,81.246253 24.188445,65.47118 z"
     id="path5106"
     inkscape:connector-curvature="0" />
  <path
     style="fill:#ffbf00;stroke:none;stroke-width:1px;stroke-linecap:butt;stroke-linejoin:miter;stroke-opacity:1;fill-opacity:1"
     d="m 66.255306,61.79033 3.155015,15.775073 0,17.35258 8.413372,-4.206686 15.775073,-2.629179 18.930084,1.577508 57.84194,8.939207 16.82674,1.577507 27.8693,0 29.4468,-3.68085 8.41337,-1.051671 9.99088,-8.413372 4.73252,-11.042551 5.25836,-13.67173 8.93921,-17.35258 7.3617,-10.516716 7.3617,-6.835865 -12.62006,-1.577507 -8.41337,2.629179 -5.78419,12.620058 -8.41338,17.878416 -11.56838,12.620059 -13.1459,7.887536 -8.9392,4.206686 -19.98176,4.206686 L 173.5258,89.659626 149.86319,86.504611 114.6322,75.46206 89.39208,64.945345 77.823693,61.264494 z"
     id="path5108"
     inkscape:connector-curvature="0" />
  <path
     style="fill:#ffbf00;stroke:none;stroke-width:1px;stroke-linecap:butt;stroke-linejoin:miter;stroke-opacity:1;fill-opacity:1"
     d="m 243.91525,97.417373 11.15467,8.180087 6.32097,1.11546 10.78284,-2.60275 9.66737,-4.833687 14.50106,-14.129238 12.27013,-18.962923 5.57733,-13.385594 3.71822,-19.706567 -16.73199,-5.205509 -8.18009,2.974576 -10.03919,11.526484 -8.92373,17.847457 -5.94915,15.988348 -6.6928,10.782839 -8.55191,7.43644 z"
     id="path5112"
     inkscape:connector-curvature="0" />
  <path
     style="fill:#ffbf00;stroke:none;stroke-width:1px;stroke-linecap:butt;stroke-linejoin:miter;stroke-opacity:1;fill-opacity:1"
     d="m 43.503178,102.25106 0,10.78284 -1.487288,6.32097 1.85911,2.60276 11.898305,1.11546 13.757415,5.94916 22.681145,14.87288 18.962925,12.64195 12.27013,3.71822 31.97669,4.83368 32.34852,0.74365 19.70657,-2.23094 21.9375,-9.29555 20.07839,-12.27012 10.78283,-11.89831 8.18009,-13.75741 4.83369,-11.89831 -8.92373,1.85911 -4.09005,0 -7.80826,-1.48729 -9.29555,-8.551903 -24.16843,2.974576 -19.33475,1.487287 L 164.34534,97.417373 97.789195,87.75 87.75,88.493644 l -12.641949,3.346398 -6.320975,4.833687 -2.602754,5.577331 z"
     id="path5114"
     inkscape:connector-curvature="0" />
  <path
     style="fill:#ffbf00;stroke:none;stroke-width:1px;stroke-linecap:butt;stroke-linejoin:miter;stroke-opacity:1;fill-opacity:1"
     d="m 260.27542,130.50953 6.6928,-10.78284 5.94915,-14.87288 9.66738,-5.949149 14.50106,-14.872882 11.15466,-17.475635 11.52648,0.743644 22.30932,5.949152 5.57733,5.949153 0,25.655717 -3.3464,15.24471 -2.97457,3.71822 -10.0392,2.60275 -24.16843,4.09004 -30.11758,2.23094 z"
     id="path5116"
     inkscape:connector-curvature="0" />
  <path
     style="fill:#ffbf00;stroke:none;stroke-width:1px;stroke-linecap:butt;stroke-linejoin:miter;stroke-opacity:1;fill-opacity:1"
     d="m 270.80542,132.77816 3.68085,24.18844 1.57751,15.24924 16.82674,-3.15501 41.54103,-7.88754 13.67173,-5.78419 14.7234,-13.67173 2.10334,-6.83587 0.52584,-43.644367 -5.25836,-12.620059 -13.67173,-2.103343 2.10334,19.455924 -4.20668,22.610935 -4.20669,5.7842 -18.93009,4.73252 z"
     id="path5118"
     inkscape:connector-curvature="0" />
  <path
     style="fill:#ffbf00;stroke:none;stroke-width:1px;stroke-linecap:butt;stroke-linejoin:miter;stroke-opacity:1;fill-opacity:1"
     d="m 251.87533,141.71737 4.73252,35.23099 -59.41944,6.31003 0,-6.83586 8.93921,-13.1459 15.77507,-4.20668 17.35258,-9.99088 z"
     id="path5120"
     inkscape:connector-curvature="0" />
  <path
     style="fill:#ffbf00;stroke:none;stroke-width:1px;stroke-linecap:butt;stroke-linejoin:miter;stroke-opacity:1;fill-opacity:1"
     d="m 105.16715,153.28575 16.30091,7.3617 31.55015,4.20669 21.55926,1.05167 31.02431,-2.10334 -8.9392,14.19756 -6.31003,36.80851 -6.83587,36.28266 -5.25836,15.77508 -7.3617,4.20668 -49.95439,-4.73252 -12.62006,3.15502 3.68085,-18.93009 3.68085,-34.17933 -1.57751,-38.91184 -3.68085,-17.87842 z"
     id="path5122"
     inkscape:connector-curvature="0" />
  <path
     style="fill:#ffbf00;stroke:none;stroke-width:1px;stroke-linecap:butt;stroke-linejoin:miter;stroke-opacity:1;fill-opacity:1"
     d="m 64.151963,128.57147 1.577507,16.82675 3.680851,11.04255 4.206686,3.15501 12.094222,-3.15501 8.939208,-7.3617 -6.310029,-7.3617 -17.878416,-12.62006 z"
     id="path5124"
     inkscape:connector-curvature="0" />
  <path
     style="fill:#89511f;stroke:none;stroke-width:1px;stroke-linecap:butt;stroke-linejoin:miter;stroke-opacity:1;fill-opacity:1"
     d="m 73.091171,160.12162 16.826745,-4.73252 7.887536,86.23706 1.577507,5.78419 -19.981759,0 -2.629179,-23.13677 -1.051671,-42.5927 z"
     id="path5126"
     inkscape:connector-curvature="0" />
  <path
     style="fill:#89511f;stroke:#000000;stroke-width:1px;stroke-linecap:butt;stroke-linejoin:miter;stroke-opacity:1;fill-opacity:1"
     d="m 260.2887,131.72649 11.56839,0 3.15501,43.64436 4.73253,44.17021 2.10334,13.14589 -16.30091,1.57751 -1.57751,-16.82674 -5.78419,-21.03343 -4.73252,-42.06687 0,-15.24923 z"
     id="path5128"
     inkscape:connector-curvature="0" />
  <path
     style="fill:#89511f;stroke:#000000;stroke-width:1px;stroke-linecap:butt;stroke-linejoin:miter;stroke-opacity:1;fill-opacity:1"
     d="m 283.95131,235.84197 3.15502,-4.73252 -5.7842,-50.48024 -5.78419,2.62918 4.73252,35.231 -0.52583,11.04255 z"
     id="path5130"
     inkscape:connector-curvature="0" />
  <path
     style="fill:#89511f;stroke:#000000;stroke-width:1px;stroke-linecap:butt;stroke-linejoin:miter;stroke-opacity:1;fill-opacity:1"
     d="m 267.6504,240.57449 13.1459,-2.62918 1.05167,11.04255 -1.05167,12.62006 -3.68085,3.68085 -5.25836,-4.73252 z"
     id="path5132"
     inkscape:connector-curvature="0" />
  <path
     style="fill:#c4c4c4;fill-opacity:1;stroke:none"
     d="m 116.2097,267.91795 0,11.56839 -4.20668,2.10334 4.20668,33.91641 c 1.86896,11.0929 0.66381,9.79695 9.99088,14.46048 l 15.24924,1.57751 -8.15045,-11.83131 -1.84043,-13.40881 -1.05167,-29.18389 23.39969,-2.10334 1.31459,-5.25836 c -28.50692,-4.7753 -26.84545,-2.32608 -38.91185,-1.84042 z"
     id="path5134"
     inkscape:connector-curvature="0"
     sodipodi:nodetypes="cccccccccccc" />
  <path
     style="fill:#c4c4c4;stroke:none;stroke-width:1px;stroke-linecap:butt;stroke-linejoin:miter;stroke-opacity:1;fill-opacity:1"
     d="m 155.38447,271.33588 -1.31459,3.68085 4.4696,34.44224 -26.29179,7.09879 4.73253,10.25379 5.52127,6.04712 15.51216,-4.46961 10.51671,-7.3617 2.36626,-6.57295 0.78876,-14.46048 -2.8921,-29.18388 -13.67173,-0.78876 z"
     id="path5136"
     inkscape:connector-curvature="0" />
  <path
     style="fill:#c4c4c4;stroke:none;stroke-width:1px;stroke-linecap:butt;stroke-linejoin:miter;stroke-opacity:1;fill-opacity:1"
     d="m 77.560775,247.41035 -5.784193,12.35714 6.047111,1.84043 14.986319,-0.52584 12.094218,-2.62917 -8.413367,-12.09423 z"
     id="path5138"
     inkscape:connector-curvature="0" />
  <path
     style="fill:#c4c4c4;stroke:#000000;stroke-width:1px;stroke-linecap:butt;stroke-linejoin:miter;stroke-opacity:1;fill-opacity:1"
     d="m 264.49539,235.84197 1.05167,3.41793 16.03799,-2.10334 0,-4.46961 z"
     id="path5140"
     inkscape:connector-curvature="0" />
  <path
     style="fill:#ff0000;stroke:#000000;stroke-width:1px;stroke-linecap:butt;stroke-linejoin:miter;stroke-opacity:1;fill-opacity:1"
     d="m 266.96822,243.54343 2.97458,14.12924 5.57733,7.43644 5.57733,-2.23093 1.11546,-23.79661 5.20551,-6.32098 3.71822,9.29555 6.32098,60.97882 -1.85911,5.20551 -9.29555,2.60275 -12.64195,-2.23093 -4.09005,-4.09004 -6.32097,-34.57945 0.74364,-20.82204 z"
     id="path5142"
     inkscape:connector-curvature="0" />
  <path
     style="fill:#ff0000;stroke:#000000;stroke-width:1px;stroke-linecap:butt;stroke-linejoin:miter;stroke-opacity:1;fill-opacity:1"
     d="m 73.248941,261.01907 8.180085,0.37182 8.923728,0.37182 13.385596,-2.23093 2.23093,21.56568 -4.46186,22.68114 -5.577335,8.55191 -18.21928,-2.23093 z"
     id="path5144"
     inkscape:connector-curvature="0" />
  <path
     style="fill:#000000"
     d="m 123.54472,330.22664 c -7.39519,-4.0692 -8.16587,-6.11383 -9.50877,-25.22664 -0.63763,-9.075 -1.54544,-18.525 -2.01737,-21 -0.47193,-2.475 -0.55667,-4.61982 -0.18832,-4.76626 2.71806,-1.08057 3.26804,-2.27511 2.98079,-6.47412 l -0.31105,-4.54688 -3.84727,1.64363 -3.84728,1.64363 0.64739,7.53665 c 0.88073,10.25321 -2.04593,23.80417 -6.11642,28.32012 C 97.006586,312.16044 95.812299,313 93.30887,313 c -3.20233,0 -2.898464,-1.62074 0.44113,-2.35288 4.204136,-0.92166 6.0695,-4.56706 7.83703,-15.31553 1.57034,-9.54935 1.49794,-23.94442 -0.1611,-32.03351 -0.60684,-2.95881 -0.8947,-3.15692 -3.791315,-2.60915 -1.724038,0.32602 -3.892531,0.97939 -4.818874,1.45192 -2.332016,1.18957 -13.108439,1.07856 -16.38933,-0.16883 -1.487083,-0.56539 -2.910529,-0.82124 -3.163212,-0.56855 -0.682228,0.68223 2.672559,38.50668 3.789882,42.73004 1.263555,4.77611 2.892916,5.97853 8.388658,6.1906 2.507021,0.0967 4.55823,0.46461 4.558241,0.81748 2.8e-5,0.88704 -4.54628,1.94877 -6.170517,1.44104 -0.731205,-0.22857 -2.596617,-0.69419 -4.145361,-1.0347 -4.484904,-0.98607 -5.534172,-5.1865 -7.387943,-29.57542 l -1.673677,-22.01954 3.887541,-7.97353 3.887541,-7.97353 -1.207072,-12.25296 C 76.526602,225.01383 75.980477,215 75.97688,209.5 c -0.0086,-13.17197 -1.687616,-37.65835 -3.030877,-44.20195 -0.77119,-3.7568 -1.622454,-5.37797 -3.064209,-5.83557 -2.784405,-0.88373 -3.591489,-3.59521 -5.373607,-18.05317 -0.856382,-6.94766 -1.969518,-13.4028 -2.473635,-14.34475 -1.117059,-2.08724 -7.554707,-4.11726 -15.284552,-4.81977 -6.445821,-0.5858 -6.406404,-0.51061 -4.775454,-9.11057 1.207308,-6.36611 0.395307,-10.88206 -2.099023,-11.67373 -3.183722,-1.01047 -7.574811,-5.27098 -9.766751,-9.47631 -5.250105,-10.072547 -7.785159,-29.246897 -4.659062,-35.239678 1.146617,-2.198085 1.234338,-4.018704 0.433637,-9 -1.636472,-10.18076 -5.898563,-21.701871 -9.5869,-25.914917 -1.294716,-1.478905 -1.252229,-1.779277 0.370589,-2.61994 3.871229,-2.005401 20.346276,-4.689896 22.119737,-3.604259 C 41.172508,17.065831 50.45987,36.142564 52.610475,44 c 1.082836,3.956241 2.583379,7.058525 3.834298,7.927184 1.130375,0.784951 3.680495,3.100979 5.666934,5.14673 3.527006,3.632317 3.723456,3.69867 8.376766,2.829338 5.82429,-1.088095 14.788352,1.416176 34.815447,9.726317 21.89674,9.08594 31.50556,12.275631 46.69608,15.500962 13.20952,2.804715 16.19097,3.082894 33.5,3.125656 18.01582,0.04451 19.72519,-0.122189 33,-3.218149 15.1603,-3.535696 18.81873,-5.051201 28.04281,-11.616737 10.6467,-7.578127 17.17825,-17.467607 24.70693,-37.409012 1.13951,-3.018241 3.26383,-6.679704 4.72071,-8.136583 2.34456,-2.344558 3.4446,-2.653462 9.57526,-2.68883 3.80951,-0.02198 7.50144,0.437291 8.20428,1.020596 0.75005,0.622486 3.13346,0.806221 5.77018,0.444818 3.33927,-0.457698 6.54404,0.03241 12.48606,1.909492 4.39657,1.388877 7.99377,2.619044 7.99377,2.733705 0,0.114661 -0.8897,4.932583 -1.97712,10.706494 -1.3388,7.10873 -3.08179,12.63048 -5.39876,17.103126 l -3.42164,6.605107 9.64876,0.593749 c 11.90866,0.732815 22.44054,3.826564 26.0284,7.64587 2.07888,2.212975 3.84662,2.925931 8.5545,3.450154 3.26378,0.363423 6.55595,1.176824 7.31594,1.807558 4.44962,3.692857 6.44241,16.089778 6.11352,38.031495 -0.29981,20.00243 -0.94738,23.23227 -5.62427,28.0521 -6.5197,6.71896 -16.43217,13.26433 -24.23933,16.00563 -8.96631,3.14832 -32.5145,8.0763 -46.75,9.78348 -5.6375,0.67608 -10.25,1.58764 -10.25,2.0257 0,0.43806 0.66228,3.33914 1.47174,6.44686 0.80946,3.10771 1.75062,9.76717 2.09148,14.79879 0.34085,5.03162 1.54722,14.5484 2.68081,21.1484 1.13359,6.6 2.34118,14.5319 2.68354,17.62645 0.34235,3.09454 1.1874,6.30716 1.87789,7.13914 0.69048,0.83199 1.6867,4.15009 2.21382,7.37356 6.18346,37.81375 7.77672,51.69424 6.15829,53.65104 -0.55033,0.6654 -1.15292,2.55981 -1.33908,4.20981 -0.27558,2.44246 -1.21313,3.43395 -5.04476,5.33502 -4.32532,2.14601 -5.24294,2.25146 -11.33638,1.3028 -4.25965,-0.66317 -7.7677,-1.8999 -9.81193,-3.4591 -3.39093,-2.58639 -4.08042,-5.01933 -8.26921,-29.17872 -1.89661,-10.93893 -1.42352,-29.22621 0.89157,-34.46333 1.39482,-3.15532 1.38429,-3.57058 -0.1184,-4.66912 -1.33411,-0.9753 -1.68548,-3.27605 -1.83826,-12.03667 -0.10837,-6.21447 -1.0598,-15.09315 -2.23222,-20.83088 -1.12384,-5.5 -2.61385,-14.275 -3.31113,-19.5 l -1.26777,-9.5 -7,0.25099 c -6.35331,0.22781 -43.39908,4.5696 -49.55226,5.80757 -2.30768,0.46428 -2.71186,1.30064 -4.21765,8.72746 -0.91596,4.51769 -2.38768,13.83898 -3.27049,20.71398 -3.14741,24.51108 -8.01902,45.56095 -11.86956,51.28753 -1.18803,1.76686 -3.76137,3.97035 -5.71854,4.89665 l -3.55849,1.68417 0.89993,6.31583 c 0.49496,3.4737 0.94774,13.29082 1.00617,21.81582 0.14007,20.43466 -0.52051,22.34127 -9.26882,26.75241 -8.76718,4.42064 -16.49057,6.25203 -26.24908,6.22423 -7.02556,-0.02 -8.91155,-0.41423 -13.15649,-2.75 z m 13.56866,-1.80963 C 132.35679,322.36998 129,307.26137 129,291.89938 l 0,-6.65309 -4.93538,-2.12315 C 121.35016,281.95541 117.91399,281 116.42869,281 c -2.65662,0 -2.68877,0.0772 -1.97668,4.75 0.39812,2.6125 1.2691,11.5 1.93552,19.75 1.38751,17.17707 2.53033,20.31181 8.29354,22.74918 5.62111,2.37727 6.44966,2.5853 10.64151,2.67187 l 3.82258,0.079 -2.03178,-2.58299 z m -15.54667,-7.92299 c -1.03845,-1.92828 -1.67131,-3.72275 -1.40636,-3.9877 0.26495,-0.26495 1.43956,1.31274 2.61025,3.50597 1.17068,2.19324 1.80355,3.98771 1.40636,3.98771 -0.39718,0 -1.57179,-1.57769 -2.61025,-3.50598 z m -2.33899,-12.47419 c -0.0623,-2.73489 0.19848,-5.16544 0.57951,-5.40122 0.74709,-0.46231 0.7319,9.1756 -0.0157,9.92314 -0.24783,0.24783 -0.50157,-1.78704 -0.56386,-4.52192 z M 119,296.55902 c 0,-0.79254 0.40803,-1.69316 0.90674,-2.00138 0.49871,-0.30822 0.67122,0.34022 0.38337,1.44098 C 119.6795,298.33361 119,298.62877 119,296.55902 z M 118.0856,293 c -0.0302,-0.825 0.38124,-2.175 0.9144,-3 1.18132,-1.82797 1.18132,-0.24909 0,2.5 -0.56668,1.31874 -0.87815,1.48906 -0.9144,0.5 z M 117,287.55902 c 0,-0.79254 0.40803,-1.69316 0.90674,-2.00138 0.49871,-0.30822 0.67122,0.34022 0.38337,1.44098 C 117.6795,289.33361 117,289.62877 117,287.55902 z M 147.08179,330 C 147.5868,330 148,329.51814 148,328.92919 148,327.41329 156.98632,315 158.08372,315 c 0.49949,0 -1.34001,2.78996 -4.08778,6.1999 -2.74777,3.40995 -4.99594,6.55995 -4.99594,7 0,1.238 3.42792,0.94471 5.25852,-0.4499 1.9327,-1.4724 7.75561,-8.75115 7.70988,-9.6375 -0.0174,-0.33688 -1.17393,-1.91178 -2.57012,-3.49978 -2.44397,-2.77975 -2.69419,-2.84253 -6.7184,-1.68566 -2.29893,0.6609 -5.23235,2.41017 -6.51871,3.88728 -1.97145,2.2638 -2.16227,2.33223 -1.21481,0.43566 0.66578,-1.33273 0.73111,-2.25 0.16025,-2.25 -1.50005,0 -4.24282,3.1054 -5.70259,6.45655 -0.72916,1.6739 -1.34335,2.34196 -1.36488,1.48458 -0.0215,-0.85738 0.62155,-2.43238 1.42906,-3.5 2.00722,-2.65379 1.88835,-3.34713 -0.4682,-2.73088 -1.1,0.28766 -2.03163,1.25803 -2.07029,2.15638 -0.0544,1.26377 -0.26475,1.18081 -0.92971,-0.36663 -0.47269,-1.1 -0.89106,-1.42305 -0.92971,-0.71788 -0.11697,2.13367 2.75467,8.21788 3.87868,8.21788 0.57807,0 1.06104,-0.3375 1.07327,-0.75 0.0122,-0.4125 0.93424,-1.875 2.04892,-3.25 l 2.02669,-2.5 -2.00882,3.91037 C 140.18075,327.12502 140.12879,329 141.93412,329 c 0.44885,0 3.16887,-3.40342 6.04449,-7.56316 2.87562,-4.15973 5.43706,-7.35451 5.69207,-7.09949 0.25502,0.25501 -1.5257,3.09593 -3.95715,6.31316 -2.43145,3.21722 -4.98903,6.93022 -5.68351,8.25112 -1.11848,2.12734 -1.06875,2.32721 0.43543,1.75 0.93397,-0.3584 2.11132,-0.65163 2.61634,-0.65163 z m 15.39146,-5.19927 C 164.96296,323.59114 167,322.01614 167,321.30073 167,320.58533 166.8118,320 166.58179,320 c -0.23002,0 -1.20384,-0.30147 -2.16405,-0.66994 -1.1041,-0.42368 -1.50579,-0.28154 -1.0928,0.38669 0.35917,0.58115 -0.10339,1.67012 -1.02791,2.41994 -1.1561,0.93764 -1.44647,0.97302 -0.92997,0.11331 1.49728,-2.49223 -0.28413,-1.17521 -2.36706,1.75 -2.55338,3.58589 -2.35404,3.63185 3.47325,0.80073 z m 6.89646,-9.05073 c 0.33164,-1.2375 0.59111,-3.6 0.5766,-5.25 l -0.0264,-3 -1.53822,2.83841 c -0.84602,1.56112 -1.73853,2.63809 -1.98336,2.39327 -0.24482,-0.24483 0.68497,-2.42211 2.06622,-4.83841 C 170.93461,303.57225 171.73668,300 170.23683,300 169.01087,300 161,310.70338 161,312.3414 c 0,1.57661 4.71143,5.5732 6.63337,5.62692 0.62335,0.0174 1.40471,-0.98082 1.73634,-2.21832 z M 143.5,313.10168 c 9.39705,-2.50235 12.47961,-3.80504 12.60518,-5.32693 0.29638,-3.59205 -0.3102,-16.29747 -0.81724,-17.11787 -0.32138,-0.52 -0.68534,-3.53078 -0.80879,-6.69062 -0.27674,-7.08297 -0.92007,-8.33584 -3.55597,-6.92515 -1.0755,0.57559 -5.61103,1.05456 -10.07896,1.06438 -7.13734,0.0157 -8.3389,0.28351 -9.89779,2.20618 -0.97585,1.20358 -2.10213,1.8617 -2.50285,1.4625 -0.40072,-0.39921 -0.20297,-1.35916 0.43944,-2.13322 C 130.16357,278.09799 128.54535,277 124.99079,277 c -2.58819,0 -6.23503,-4.942 -5.70251,-7.72772 0.23891,-1.24975 0.0468,-2.27228 -0.42695,-2.27228 -0.47373,0 -0.86628,1.0125 -0.87234,2.25 -0.006,1.2375 -0.27934,3.87226 -0.60731,5.85503 -0.59027,3.56846 -0.55543,3.61157 3.43362,4.24944 2.21646,0.35443 5.41475,1.80967 7.10731,3.23387 2.77226,2.33269 3.07739,3.15337 3.07739,8.27679 0,6.09568 1.77873,21.96782 2.61315,23.31794 0.71702,1.16018 1.99342,1.02057 9.88685,-1.08139 z m 24.03925,-12.25704 c 1.82964,-2.57074 2.50651,-4.63777 2.28117,-6.96624 l -0.32042,-3.31088 -5.25,6.69477 c -4.20054,5.35651 -5.25,7.44113 -5.25,10.42847 l 0,3.73369 2.96883,-3.46222 c 1.63286,-1.90423 4.13954,-5.10714 5.57042,-7.11759 z m 124.27067,8.07178 c 1.7096,-0.59597 3.37279,-1.91672 3.69598,-2.935 0.95179,-2.99885 -1.40477,-24.62664 -3.92054,-35.98142 -3.1622,-14.27238 -6.93403,-28 -7.69334,-28 -0.34355,0 -0.85681,4.3875 -1.14059,9.75 -0.28378,5.3625 -0.80867,10.45042 -1.16643,11.30649 -0.35775,0.85607 -2.21074,2.2637 -4.11773,3.12806 -3.2616,1.47835 -3.46727,1.46367 -3.46727,-0.24747 0,-1.00048 -0.51953,-2.14013 -1.15451,-2.53257 -0.7153,-0.44208 -0.88306,-0.27432 -0.44098,0.44098 0.39244,0.63498 0.18448,1.15451 -0.46212,1.15451 -0.64668,0 -0.96045,-0.82293 -0.69737,-1.82896 0.26306,-1.00593 -0.181,-2.69343 -0.9868,-3.75 -1.39522,-1.82944 -1.43119,-1.80778 -0.75451,0.45419 0.51675,1.72738 0.38111,2.17162 -0.49732,1.62872 -0.73303,-0.45304 -0.98154,-1.87822 -0.63213,-3.62523 0.57411,-2.87056 -0.67557,-4.00133 -1.79999,-1.62872 -0.32582,0.6875 -0.37331,-1 -0.10554,-3.75 0.40611,-4.17077 0.29089,-4.66831 -0.69478,-3 -1.89223,3.20273 -2.11855,19.01265 -0.41513,29 2.82431,16.55933 4.86409,24.98463 6.50928,26.88663 3.65658,4.22735 13.13041,5.90426 19.94182,3.52979 z m -20.20558,-9.00773 c -2.35251,-4.7157 -1.95969,-6.04208 0.45508,-1.53664 1.13268,2.11334 1.85464,4.04723 1.60434,4.29752 -0.2503,0.2503 -1.17704,-0.9921 -2.05942,-2.76088 z m -2.52539,-10.49202 c 0.048,-1.16495 0.28494,-1.4019 0.60416,-0.60417 0.28887,0.72187 0.25335,1.58438 -0.0789,1.91667 -0.33229,0.33229 -0.56864,-0.25834 -0.52522,-1.3125 z m -0.70466,-5.88368 c -0.30962,-0.80686 -0.36997,-2.04436 -0.1341,-2.75 0.23587,-0.70564 0.66592,-0.0455 0.95566,1.46701 0.56574,2.95322 0.099,3.68204 -0.82156,1.28299 z m -0.97488,-6.86678 c 0.48286,-2.01003 0.34727,-2.62768 -0.46646,-2.12477 -0.80201,0.49567 -0.93229,0.0318 -0.43295,-1.54144 0.51677,-1.6282 0.38056,-2.04421 -0.49263,-1.50455 -0.92963,0.57454 -0.94616,0.2587 -0.0719,-1.37477 1.29472,-2.41921 2.57172,-2.88464 1.70295,-0.62068 -0.31658,0.825 -0.2024,1.5 0.25373,1.5 0.98246,0 0.58114,6.88583 -0.45698,7.84087 -0.39406,0.36252 -0.41013,-0.61607 -0.0357,-2.17466 z M 169.4768,284 c -1.34174,-11.38512 -1.40865,-11.56942 -4.27944,-11.78773 -2.27227,-0.1728 -3.13075,0.56611 -5.44736,4.68868 -4.10318,7.30188 -3.32125,8.2985 1.43138,1.82441 2.29976,-3.13276 4.36143,-5.51588 4.58149,-5.29583 0.22005,0.22006 -1.66129,3.02593 -4.18076,6.23528 -2.91495,3.71313 -4.58108,6.83527 -4.58148,8.58519 -3.5e-4,1.5125 0.39651,2.75 0.88191,2.75 0.4854,0 2.79699,-2.93841 5.13687,-6.5298 2.33988,-3.59138 4.42936,-6.35476 4.64329,-6.14084 0.21392,0.21393 -1.91708,3.76808 -4.73556,7.89812 -2.99242,4.38492 -4.9625,8.29205 -4.73512,9.39084 0.28887,1.39595 1.51759,0.13926 4.75997,-4.86832 2.40383,-3.7125 4.7233,-6.75 5.15438,-6.75 0.43108,0 -1.60313,3.4875 -4.52048,7.75 -6.84461,10.00059 -6.12666,12.50626 1.01419,3.53956 5.12312,-6.43304 5.37919,-7.02586 4.87672,-11.28956 z m -10.43156,-7.5732 c 1.68448,-2.72554 1.93117,-3.85039 1.03992,-4.74164 -0.89126,-0.89126 -1.36707,-0.84705 -2.00575,0.18635 -0.61362,0.99286 -0.94412,1.03437 -1.23712,0.15536 -0.2199,-0.65969 -0.48963,0.86439 -0.59942,3.38685 -0.10978,2.52245 -0.021,4.58628 0.19721,4.58628 0.21824,0 1.39056,-1.60794 2.60516,-3.5732 z m -7.662,-2.3299 c 2.35394,-1.9536 2.00449,-2.76935 -1.48531,-3.46731 -2.2849,-0.45698 -3.93132,-0.045 -6.25,1.56406 l -3.14793,2.18447 1.90499,-2.18906 1.90499,-2.18906 -3.1053,0 c -1.90246,0 -3.50012,0.67786 -4.12458,1.75 -0.56061,0.9625 -1.03297,1.2775 -1.04969,0.7 -0.0167,-0.5775 0.50959,-1.59 1.16959,-2.25 0.93333,-0.93333 0.70414,-1.2 -1.03138,-1.2 -1.22727,0 -2.49041,0.675 -2.80699,1.5 -0.31659,0.825 -1.03256,1.5 -1.59106,1.5 -0.58531,0 -0.48812,-0.63541 0.22943,-1.5 1.78742,-2.15371 -0.75762,-2.02933 -3.17126,0.15499 -2.00025,1.8102 -2.57165,0.48792 -0.62874,-1.45499 0.78248,-0.78248 0.82491,-1.2 0.12197,-1.2 -0.59291,0 -1.8204,1.0125 -2.72774,2.25 l -1.64971,2.25 0.59513,-2.25 c 0.68724,-2.59828 -1.26274,-3.1352 -2.23018,-0.61408 -0.95869,2.49831 1.02649,4.79066 4.79409,5.53589 5.81005,1.14923 22.48952,0.41079 24.27968,-1.07491 z M 147,272 c 0,-0.55 0.47656,-1 1.05902,-1 0.58246,0 0.7809,0.45 0.44098,1 -0.33992,0.55 -0.81648,1 -1.05902,1 C 147.19844,273 147,272.55 147,272 z m 24.89939,-3.62988 c 4.39578,-0.87915 6.54929,-4.41736 10.02646,-16.47342 3.12094,-10.82094 4.78558,-19.8017 7.58045,-40.8967 2.7606,-20.83623 6.02201,-33.71289 10.09173,-39.84402 1.95099,-2.93922 3.35096,-5.54032 3.11104,-5.78024 -0.23991,-0.23992 -3.7601,0.0808 -7.82264,0.71266 -8.64671,1.34489 -37.85564,0.7186 -45.38643,-0.97316 -6.23457,-1.40058 -23.37054,-2.92826 -25.83453,-2.30317 -1.42658,0.36191 -1.53777,0.65352 -0.5,1.31135 1.99845,1.26681 -0.27056,1.05025 -5.50654,-0.52555 C 115.09652,162.8267 113,162.37966 113,162.60445 c 0,0.22479 0.70633,5.01825 1.56962,10.65213 2.21741,14.47096 1.3073,57.63815 -1.58242,75.05522 -1.1122,6.70351 -2.27101,13.71101 -2.57515,15.57223 -0.44622,2.73078 -0.26351,3.27295 0.94648,2.80863 4.31289,-1.65501 9.7553,-1.69151 24.70157,-0.16564 9.04195,0.9231 16.6274,1.85715 16.85657,2.07567 0.66989,0.63877 15.53671,0.45663 18.98272,-0.23257 z m -29.08689,-3.05323 c 0.72187,-0.28887 1.58437,-0.25335 1.91667,0.0789 0.33229,0.33229 -0.25834,0.56864 -1.3125,0.52522 -1.16495,-0.048 -1.4019,-0.28494 -0.60417,-0.60416 z m -4.14583,-3.98356 C 138.3,260.96667 138,260.09008 138,259.38535 c 0,-0.99828 0.68397,-1.04288 3.09637,-0.20191 2.27224,0.79211 2.73803,1.30651 1.75,1.93267 -1.62893,1.03234 -3.27884,1.11809 -4.1797,0.21722 z M 126.5,258.10809 c -2.2,-0.33445 -3.55,-0.86842 -3,-1.18659 0.55,-0.31818 3.475,-0.0312 6.5,0.63778 5.70905,1.26251 3.48679,1.61097 -3.5,0.54881 z m -6.04069,-3.17393 C 120.13265,254.40562 121.9339,254 124.60765,254 c 5.44681,0 5.50499,0.46813 0.16067,1.29261 -2.05242,0.31664 -3.99148,0.15533 -4.30901,-0.35845 z M 119.5,251 c -0.36058,-0.58342 0.65628,-1 2.44098,-1 1.68246,0 3.05902,0.45 3.05902,1 0,0.55 -1.09844,1 -2.44098,1 -1.34254,0 -2.7191,-0.45 -3.05902,-1 z m -1.75,-8.66228 c 0.6875,-0.27741 1.8125,-0.27741 2.5,0 0.6875,0.27741 0.125,0.50439 -1.25,0.50439 -1.375,0 -1.9375,-0.22698 -1.25,-0.50439 z M 119.5,239 c -0.731,-1.18278 0.24752,-1.18278 3,0 1.92824,0.82859 1.92138,0.86195 -0.19098,0.92971 C 121.10398,239.96837 119.83992,239.55 119.5,239 z m 1.76903,-8.69299 c 0.97297,-0.25354 2.32297,-0.23687 3,0.0371 0.67703,0.27393 -0.11903,0.48137 -1.76903,0.46099 -1.65,-0.0204 -2.20394,-0.2445 -1.23097,-0.49804 z m 1,-3 c 0.97297,-0.25354 2.32297,-0.23687 3,0.0371 0.67703,0.27393 -0.11903,0.48137 -1.76903,0.46099 -1.65,-0.0204 -2.20394,-0.2445 -1.23097,-0.49804 z m -0.3155,-4.22018 c 0.56315,-1.05225 1.69095,-1.81527 2.50624,-1.69561 2.03444,0.29859 3.20652,1.60518 1.4569,1.62409 -1.16647,0.0126 -1.15175,0.18652 0.0833,0.98469 1.13645,0.73443 0.70378,0.97309 -1.78518,0.98469 -2.92732,0.0136 -3.17365,-0.1931 -2.26129,-1.89786 z M 126,220 c -0.825,-0.53316 -1.05,-0.96937 -0.5,-0.96937 0.55,0 1.675,0.43621 2.5,0.96937 0.825,0.53316 1.05,0.96937 0.5,0.96937 -0.55,0 -1.675,-0.43621 -2.5,-0.96937 z m 0.75,-3.66228 c 0.6875,-0.27741 1.8125,-0.27741 2.5,0 0.6875,0.27741 0.125,0.50439 -1.25,0.50439 -1.375,0 -1.9375,-0.22698 -1.25,-0.50439 z m 1,-7 c 0.6875,-0.27741 1.8125,-0.27741 2.5,0 0.6875,0.27741 0.125,0.50439 -1.25,0.50439 -1.375,0 -1.9375,-0.22698 -1.25,-0.50439 z M 127.5,204 c -2.54822,-1.09501 0.0808,-1.09501 3.5,0 2.00973,0.64363 2.10779,0.8064 0.5,0.83003 -1.1,0.0162 -2.9,-0.35734 -4,-0.83003 z m -0.25,-2.66228 C 125.07789,200.46125 125.89613,199 128.55902,199 c 1.40746,0 2.30195,0.41594 1.98775,0.92432 -0.31419,0.50837 0.22175,1.13117 1.19099,1.384 1.15549,0.30141 0.90147,0.47244 -0.73776,0.49673 -1.375,0.0204 -3.0625,-0.18992 -3.75,-0.46733 z M 126,192 c -1.33333,-0.86167 -1.33333,-0.96327 0,-0.9144 0.825,0.0302 2.4,0.44171 3.5,0.9144 2,0.85943 2,0.85943 0,0.9144 -1.1,0.0302 -2.675,-0.38124 -3.5,-0.9144 z m 2.5,-1.71307 c -1.1,-0.26458 -2.45,-0.93796 -3,-1.49639 -1.24999,-1.26915 3.54826,0.0122 4.95,1.32185 0.5225,0.48819 0.7475,0.83541 0.5,0.77161 -0.2475,-0.0638 -1.35,-0.33248 -2.45,-0.59707 z m 0,-3.01371 c -1.65,-0.23491 -3.43594,-0.85093 -3.96875,-1.36892 -1.23464,-1.20029 5.58555,0.0101 6.91875,1.22794 0.5225,0.47727 0.7475,0.80034 0.5,0.71793 -0.2475,-0.0824 -1.8,-0.34204 -3.45,-0.57695 z m -2.6875,-3.95633 c 0.72187,-0.28887 1.58438,-0.25335 1.91667,0.0789 0.33229,0.33229 -0.25834,0.56864 -1.3125,0.52522 -1.16495,-0.048 -1.4019,-0.28494 -0.60417,-0.60416 z m 1.4375,-1.34805 c -3.34865,-1.34599 -2.72266,-2.02957 0.75,-0.819 1.65,0.5752 3,1.22679 3,1.44799 0,0.59324 -1.21714,0.38909 -3.75,-0.62899 z M 124,178 c -0.825,-0.53316 -1.05,-0.96937 -0.5,-0.96937 0.55,0 1.675,0.43621 2.5,0.96937 0.825,0.53316 1.05,0.96937 0.5,0.96937 -0.55,0 -1.675,-0.43621 -2.5,-0.96937 z m 1,-2.58511 c -3.2755,-1.34103 -3.30757,-1.39576 -0.5,-0.85316 1.65,0.31889 3.4275,0.99795 3.95,1.50903 1.19761,1.17144 0.85339,1.106 -3.45,-0.65587 z m -3.25,-4.61758 c -3.81033,-1.01201 -5.20471,-3.72234 -2,-3.8875 0.9625,-0.0496 0.23815,-0.52526 -1.60966,-1.05701 -4.84476,-1.39419 -3.3814,-1.95515 1.72147,-0.65991 2.96134,0.75167 3.88394,1.35279 2.96773,1.93362 -0.94695,0.60032 -0.97996,0.84727 -0.11472,0.85818 0.66815,0.008 1.69648,0.91531 2.28518,2.01531 0.5887,1.1 0.94203,1.95349 0.78518,1.89665 -0.15685,-0.0568 -1.97268,-0.55155 -4.03518,-1.09934 z M 110.37335,250 c 3.64119,-22.92796 4.49657,-60.72981 1.74796,-77.24727 -2.3565,-14.16112 -4.19173,-17.55741 -11.67861,-21.61247 -5.406097,-2.92807 -5.455293,-2.93473 -5.886503,-0.7965 -0.239165,1.18593 -0.711343,3.50624 -1.049284,5.15624 -1.394684,6.80954 -1.420938,17.70116 -0.06991,29 0.789179,6.6 1.695038,16.725 2.01302,22.5 1.330331,24.16068 2.672256,34.34287 5.008077,38 4.47102,7.00017 5.87754,10.55496 5.66653,14.32141 -0.21061,3.7596 0.90311,9.13289 1.48792,7.17859 0.16458,-0.55 1.40694,-7.975 2.7608,-16.5 z m 170.14104,5.63817 c 0.3467,-2.82599 0.48529,-7.61317 0.30799,-10.63817 -0.35696,-6.09003 -0.17935,-6.00869 -9.67168,-4.42937 -3.24352,0.53965 -3.32909,0.67366 -2.70951,4.24331 1.25857,7.25127 3.87516,14.23536 6.32269,16.87629 2.34678,2.53221 2.56342,2.58265 3.80432,0.88561 0.72371,-0.98973 1.59949,-4.11168 1.94619,-6.93767 z M 273,244.5 c 0,-0.825 0.45,-1.5 1,-1.5 0.55,0 1,0.675 1,1.5 0,0.825 -0.45,1.5 -1,1.5 -0.55,0 -1,-0.675 -1,-1.5 z M 85.269032,260.34406 c -0.677033,-0.27392 -2.027033,-0.29059 -3,-0.0371 C 81.296064,260.5605 81.85,260.78462 83.5,260.805 c 1.65,0.0204 2.446064,-0.18706 1.769032,-0.46099 z m 1.805801,-1.87606 c 2.516157,-0.0734 5.216157,-0.5201 6,-0.99268 1.225652,-0.73895 1.229332,-0.61791 0.02629,0.86458 -1.287215,1.5862 -1.180735,1.64087 1.333916,0.6848 1.503039,-0.57145 3.113941,-0.80345 3.579783,-0.51554 0.465842,0.2879 1.148597,0.0354 1.517234,-0.56102 0.368637,-0.59647 1.299724,-0.84293 2.069094,-0.5477 0.7986,0.30645 1.39885,-0.0799 1.39885,-0.90044 0,-0.79048 -0.57971,-1.21478 -1.28824,-0.94289 -0.78804,0.3024 -2.17682,-1.33465 -3.57677,-4.21617 -1.258699,-2.59078 -2.591494,-4.28986 -2.961765,-3.77573 -0.740752,1.02856 -2.792599,1.31065 -11.485474,1.57906 -5.658304,0.1747 -5.863578,0.28006 -7.75,3.97776 C 74.871986,255.21109 74,257.35526 74,257.88684 c 0,1.36112 3.043339,2.02904 6,1.31682 1.375,-0.33121 4.558675,-0.66226 7.074833,-0.73566 z M 77.8125,258.31689 c 0.721875,-0.28887 1.584375,-0.25335 1.916667,0.0789 0.332291,0.33229 -0.258334,0.56864 -1.3125,0.52522 -1.164943,-0.048 -1.4019,-0.28494 -0.604167,-0.60416 z m 3.1875,-2.2012 3.5,-0.69095 -3.75,-0.75768 C 78.6875,254.25033 77,253.43162 77,252.8477 c 0,-0.63374 0.705386,-0.75559 1.75,-0.30231 0.9625,0.41766 3.232799,0.96741 5.045109,1.22167 4.718186,0.66194 3.393347,2.70368 -1.87283,2.88627 C 77.734581,256.79852 77.685658,256.77 81,256.11569 z M 79,251.025 c 0,-0.56023 1.382554,-0.71183 3.25,-0.35636 C 86.807288,251.53612 86.952464,252 82.666667,252 80.65,252 79,251.56125 79,251.025 z M 290.96937,248.5 c 0,-0.55 -0.43621,-0.325 -0.96937,0.5 -0.53316,0.825 -0.96937,1.95 -0.96937,2.5 0,0.55 0.43621,0.325 0.96937,-0.5 0.53316,-0.825 0.96937,-1.95 0.96937,-2.5 z m -1.10994,-4.5 c 0,-0.94548 -0.31771,-0.76064 -0.85943,0.5 -0.47269,1.1 -0.85943,2.675 -0.85943,3.5 0,0.94548 0.31771,0.76064 0.85943,-0.5 0.47269,-1.1 0.85943,-2.675 0.85943,-3.5 z m -198.029975,2.01365 c 0.92028,-0.009 1.154091,-0.86004 0.759678,-2.76365 -0.313378,-1.5125 -0.810159,-7.025 -1.103956,-12.25 -0.293798,-5.225 -1.198153,-19.36517 -2.009678,-31.4226 -0.811524,-12.05743 -1.478009,-24.43243 -1.481076,-27.5 C 87.986505,164.15887 86.392212,159 83.952996,159 c -1.324292,0 -1.990339,0.72432 -2.068997,2.25 -0.08729,1.69317 -0.22918,1.81691 -0.573325,0.5 -0.251527,-0.9625 -0.860203,-1.75 -1.352613,-1.75 -0.49241,0 -0.629208,0.6934 -0.303995,1.54089 0.616571,1.60676 -1.606341,1.7069 -2.765328,0.12458 -0.336195,-0.459 -0.863764,0.13103 -1.172377,1.31117 -0.35241,1.34761 -0.03207,2.34872 0.861262,2.69152 C 77.35993,165.96836 78,166.64239 78,167.16601 c 0,0.52361 -0.508761,0.63759 -1.130581,0.25329 -0.823888,-0.50919 -0.949392,1.30587 -0.462656,6.69098 0.367358,4.06435 1.132566,18.63972 1.700462,32.38972 0.567896,13.75 1.338592,28.14747 1.712657,31.99437 0.656595,6.75247 0.783877,7.01715 3.680118,7.65287 1.65,0.36218 3.9,0.48336 5,0.26929 1.1,-0.21407 2.598255,-0.39537 3.329455,-0.40288 z M 84.625,237.20225 c -0.271169,-0.43876 -0.09146,-1.44749 0.399342,-2.24164 0.674536,-1.09142 1.174207,-1.16206 2.046885,-0.28938 0.63498,0.63498 0.85216,1.64371 0.482624,2.24164 -0.789659,1.27769 -2.230083,1.42001 -2.928851,0.28938 z m -1.178851,-13.28938 c -0.858127,-1.38848 1.043956,-3.34604 2.423045,-2.49371 1.148453,0.70978 0.413085,3.58084 -0.917166,3.58084 -0.458697,0 -1.136342,-0.48921 -1.505879,-1.08713 z M 80.666667,185.33333 C 80.3,184.96667 80,184.20167 80,183.63333 c 0,-0.6266 0.465771,-0.56756 1.183333,0.15 0.650834,0.65084 0.950834,1.41584 0.666667,1.7 -0.284167,0.28417 -0.816667,0.21667 -1.183333,-0.15 z m -2.207786,-7.39986 c -0.362533,-0.58659 -0.444683,-1.281 -0.182555,-1.54313 0.262128,-0.26213 0.743066,0.21781 1.068751,1.06653 0.676184,1.76211 0.09985,2.07206 -0.886196,0.4766 z M 77,169.94098 c 0,-0.58246 0.45,-0.7809 1,-0.44098 0.55,0.33992 1,0.81648 1,1.05902 C 79,170.80156 78.55,171 78,171 c -0.55,0 -1,-0.47656 -1,-1.05902 z m 6,-9 c 0,-0.58246 0.45,-0.7809 1,-0.44098 0.55,0.33992 1,0.81648 1,1.05902 C 85,161.80156 84.55,162 84,162 c -0.55,0 -1,-0.47656 -1,-1.05902 z m 15,83.61804 c 0,-1.05548 -1.919113,-1.49891 -2.489919,-0.57533 C 95.164618,244.54266 95.583524,245 96.440983,245 97.298442,245 98,244.80156 98,244.55902 z M 288.36163,242.5 c 0.31658,-0.825 0.13972,-1.5 -0.39301,-1.5 -0.53274,0 -0.96862,0.675 -0.96862,1.5 0,0.825 0.17686,1.5 0.39301,1.5 0.21616,0 0.65203,-0.675 0.96862,-1.5 z M 96,240.44098 c 0,-0.85746 -0.45734,-1.27636 -1.016312,-0.9309 -0.558971,0.34546 -0.757414,1.04702 -0.440983,1.55902 C 95.399945,242.45614 96,242.19751 96,240.44098 z M 286.96937,236.5 c 0,-0.55 -0.43621,-0.325 -0.96937,0.5 -0.53316,0.825 -0.96937,1.95 -0.96937,2.5 0,0.55 0.43621,0.325 0.96937,-0.5 0.53316,-0.825 0.96937,-1.95 0.96937,-2.5 z m -9.71937,0.35979 c 5.73396,-1.43254 4.46989,-2.13335 -2.5,-1.38602 -7.7562,0.83165 -9.92945,1.42686 -9.2462,2.53238 0.56003,0.90614 5.43522,0.43035 11.7462,-1.14636 z M 96,234.94098 c 0,-1.13246 -0.430347,-1.79305 -0.956326,-1.46797 -0.525979,0.32507 -0.702834,1.25163 -0.393011,2.05902 C 95.443889,237.59914 96,237.35555 96,234.94098 z m 182.68434,-3.29199 c 1.02557,-1.02556 -1.426,-9.70171 -3.57415,-12.64899 -1.00218,-1.375 -2.55712,-2.64456 -3.45542,-2.82125 -1.32606,-0.26083 -1.51774,0.25642 -1.01902,2.75 0.77086,3.85432 -1.14873,4.14785 -2.10884,0.32246 -0.6249,-2.48982 -0.80833,-2.58683 -1.94695,-1.02967 -0.91828,1.25582 -1.03138,3.36935 -0.41964,7.84245 0.46058,3.36783 1.04134,6.45328 1.29057,6.85655 0.53323,0.86279 10.19247,-0.23056 11.23345,-1.27155 z M 270.5,228 c -0.39915,-0.64585 -0.27574,-1.62426 0.27426,-2.17426 0.66667,-0.66667 1.24192,-0.60858 1.72574,0.17426 0.39915,0.64585 0.27574,1.62426 -0.27426,2.17426 -0.66667,0.66667 -1.24192,0.60858 -1.72574,-0.17426 z m 15.46456,0.19098 c 0.0195,-0.71996 -0.46277,-1.0011 -1.07169,-0.62477 -0.75305,0.46541 -0.89201,-0.0754 -0.4345,-1.69098 0.5392,-1.904 0.44922,-2.07764 -0.45354,-0.87523 -0.87777,1.16913 -0.99291,0.72797 -0.52201,-2 0.76987,-4.4599 -0.94273,-1.95205 -1.98048,2.90013 -0.61086,2.85615 -0.47465,3.30322 0.85135,2.79439 1.29419,-0.49663 1.48368,-0.0283 1.05188,2.59986 L 282.8789,234.5 284.40402,232 c 0.83881,-1.375 1.54106,-3.08906 1.56054,-3.80902 z M 95.361626,230.5 C 95.045044,229.675 94.609167,229 94.393011,229 94.176855,229 94,229.675 94,230.5 c 0,0.825 0.435877,1.5 0.968615,1.5 0.532739,0 0.709594,-0.675 0.393011,-1.5 z M 95,227 c 0,-0.55 -0.198442,-1 -0.440983,-1 -0.242541,0 -0.719098,0.45 -1.059017,1 -0.339919,0.55 -0.141476,1 0.440983,1 C 94.523442,228 95,227.55 95,227 z m -0.5,-3 c 0.339919,-0.55 0.141476,-1 -0.440983,-1 C 93.476558,223 93,223.45 93,224 c 0,0.55 0.198442,1 0.440983,1 0.242541,0 0.719098,-0.45 1.059017,-1 z m 189.38392,-8.5 c 0.0177,-0.55 -0.83003,0.575 -1.88392,2.5 -1.05389,1.925 -1.90166,4.175 -1.88392,5 0.0337,1.56718 3.71152,-5.75366 3.76784,-7.5 z m -0.95479,-4 c 0,-1.76676 -0.16667,-1.70845 -1.42913,0.5 -0.78602,1.375 -1.42913,3.4 -1.42913,4.5 0,1.76676 0.16667,1.70845 1.42913,-0.5 0.78602,-1.375 1.42913,-3.4 1.42913,-4.5 z m -12.3229,2.5 c 1.62182,0 3.94889,0.70052 5.17126,1.5567 1.22238,0.85619 2.22251,1.40159 2.22251,1.212 0,-0.18959 -0.68331,-5.72761 -1.51846,-12.30671 C 275.64639,197.8829 274.52702,183.725 273.99405,173 c -0.85605,-17.22621 -1.44926,-23.30761 -3.5967,-36.87236 -0.52444,-3.31268 -0.60901,-3.36389 -4.77938,-2.89383 -5.00934,0.56463 -9.51863,2.59797 -10.97941,4.95088 -0.73112,1.1776 -0.70108,4.94 0.0998,12.5 3.70608,34.98414 5.48614,48.82204 7.35023,57.13962 1.95946,8.74312 2.19814,9.22618 3.8293,7.75 C 266.87467,214.70844 268.98442,214 270.60623,214 z m -3.41456,-7.075 c 0.19708,-0.59125 0.78583,-1.075 1.30833,-1.075 0.5225,0 1.11125,0.48375 1.30833,1.075 0.19709,0.59125 -0.39166,1.075 -1.30833,1.075 -0.91667,0 -1.50542,-0.48375 -1.30833,-1.075 z m -0.59511,-10.76877 c -0.34605,-0.55992 -0.1419,-1.31919 0.45366,-1.68727 1.53748,-0.95021 2.52947,0.35135 1.24598,1.63484 -0.71818,0.71818 -1.27752,0.73543 -1.69964,0.0524 z M 260.15789,172 c 0,-1.375 0.22698,-1.9375 0.50439,-1.25 0.27741,0.6875 0.27741,1.8125 0,2.5 -0.27741,0.6875 -0.50439,0.125 -0.50439,-1.25 z m -1,-6 c 0,-1.375 0.22698,-1.9375 0.50439,-1.25 0.27741,0.6875 0.27741,1.8125 0,2.5 -0.27741,0.6875 -0.50439,0.125 -0.50439,-1.25 z m -0.71174,-8.08713 c -0.36954,-0.59793 -0.19401,-1.56501 0.39006,-2.14908 0.74927,-0.74927 1.01429,-0.42917 0.90007,1.08713 -0.1843,2.44655 -0.35007,2.583 -1.29013,1.06195 z m -1.06036,-7.79866 c 0.19531,-2.30364 0.61281,-4.44614 0.92777,-4.76111 0.31497,-0.31497 0.39887,1.32614 0.18644,3.6469 -0.21243,2.32076 -0.62993,4.46326 -0.92778,4.76111 -0.29784,0.29785 -0.38174,-1.34326 -0.18643,-3.6469 z m -0.4156,-7.05852 c 0.57231,-1.06937 1.53482,-2.24977 2.13891,-2.62312 0.6041,-0.37335 0.32492,0.50159 -0.62038,1.94431 -2.00162,3.05486 -3.03812,3.51819 -1.51853,0.67881 z M 255.03063,142.5 c 0,-0.55 0.43621,-1.675 0.96937,-2.5 0.53316,-0.825 0.96937,-1.05 0.96937,-0.5 0,0.55 -0.43621,1.675 -0.96937,2.5 -0.53316,0.825 -0.96937,1.05 -0.96937,0.5 z M 258,136.78571 C 258,136.35357 258.9,136 260,136 c 1.1,0 2,0.35357 2,0.78571 0,0.43215 -0.9,0.78572 -2,0.78572 -1.1,0 -2,-0.35357 -2,-0.78572 z M 94,214.44098 c 0,-0.85746 -0.45,-1.2809 -1,-0.94098 -0.55,0.33992 -1,1.04148 -1,1.55902 0,0.51754 0.45,0.94098 1,0.94098 0.55,0 1,-0.70156 1,-1.55902 z m 0,-4.5 C 94,209.42344 93.55,209 93,209 c -0.55,0 -1,0.70156 -1,1.55902 0,0.85746 0.45,1.2809 1,0.94098 0.55,-0.33992 1,-1.04148 1,-1.55902 z m 187.52392,-1.01634 c 0.96385,-3.03684 -0.01,-3.34845 -1.34004,-0.42887 -0.62755,1.37733 -0.73097,2.50423 -0.22983,2.50423 0.50115,0 1.20759,-0.93391 1.56987,-2.07536 z m -0.14236,-5.47658 c 0.34149,-0.88992 0.17385,-1.29132 -0.39301,-0.94098 -1.26314,0.78066 -1.25798,-0.13512 0.0142,-2.51213 0.67935,-1.26938 0.66624,-2.08152 -0.0407,-2.51842 -0.57386,-0.35466 -0.7706,-1.61947 -0.4372,-2.81069 0.47973,-1.71403 0.3871,-1.85293 -0.44401,-0.66584 -0.91122,1.3015 -1.05222,1.27622 -1.06551,-0.19098 -0.008,-0.93004 0.43469,-1.9691 0.98469,-2.30902 1.20521,-0.74486 1.34522,-4.5 0.16778,-4.5 -1.44541,0 -3.26339,7.32288 -2.01026,8.09735 0.60429,0.37348 0.83293,1.10909 0.50809,1.63469 -0.55511,0.89818 1.02654,8.26796 1.77441,8.26796 0.1903,0 0.61399,-0.69837 0.94154,-1.55194 z M 92.5,202 c 0.339919,-0.55 0.141476,-1 -0.440983,-1 C 91.476558,201 91,201.45 91,202 c 0,0.55 0.198442,1 0.440983,1 0.242541,0 0.719098,-0.45 1.059017,-1 z m 0,-6 c 0.339919,-0.55 0.141476,-1 -0.440983,-1 C 91.476558,195 91,195.45 91,196 c 0,0.55 0.198442,1 0.440983,1 0.242541,0 0.719098,-0.45 1.059017,-1 z m 0.5,-4 c 0,-0.55 -0.45,-1 -1,-1 -0.55,0 -1,0.45 -1,1 0,0.55 0.45,1 1,1 0.55,0 1,-0.45 1,-1 z m -1.337719,-5.25 c -0.277413,-0.6875 -0.504386,-0.125 -0.504386,1.25 0,1.375 0.226973,1.9375 0.504386,1.25 0.277412,-0.6875 0.277412,-1.8125 0,-2.5 z M 279.93276,184 c -0.002,-0.86994 -0.60392,-0.4499 -1.43276,1 -1.87878,3.28659 -1.89995,4.91104 -0.0318,2.44113 0.8075,-1.06762 1.46656,-2.61613 1.46456,-3.44113 z M 214,180.06201 c 7.425,-1.06329 19.73364,-2.51083 27.35254,-3.21675 l 13.85255,-1.28348 -0.50937,-6.03089 c -0.28015,-3.31699 -1.06465,-10.41839 -1.74334,-15.78089 -1.31843,-10.41721 -2.22481,-11.56529 -6.51125,-8.24755 -1.88192,1.45663 -1.88274,1.48195 -0.0271,0.83006 1.32306,-0.46478 1.69079,-0.31115 1.19099,0.49755 -0.39769,0.64347 -1.62887,1.16994 -2.73598,1.16994 -1.1071,0 -4.11804,1.2375 -6.69098,2.75 l -4.67807,2.75 4,0.60809 4,0.6081 -4.13517,0.1419 c -2.27434,0.078 -6.54934,0.92933 -9.5,1.89173 l -5.36483,1.74981 3.5,0.53324 c 3.11575,0.47469 2.84128,0.60828 -2.5,1.21679 -9.72531,1.10796 -19.5,5.03577 -19.5,7.83578 0,0.4265 0.7875,0.96981 1.75,1.20736 0.9625,0.23755 0.74716,0.33309 -0.47854,0.21233 -1.39302,-0.13726 -2.79896,0.65099 -3.75,2.10246 -2.10078,3.20619 -1.9707,3.38164 1.72194,2.3226 1.78387,-0.5116 3.92137,-0.91651 4.75,-0.89978 2.52615,0.051 -0.88571,1.60399 -5.2434,2.38668 -3.82101,0.68629 -5.17453,2.50177 -2,2.68259 1.16667,0.0665 0.91667,0.36656 -0.75,0.90032 -2.33407,0.7475 -2.26769,0.81667 1,1.04223 l 3.5,0.24158 -4,0.71619 c -8.59999,1.53981 0.71891,0.89232 13.5,-0.93799 z M 205,177 c 1.375,-0.44035 3.4,-0.80064 4.5,-0.80064 1.58367,0 1.47958,0.16667 -0.5,0.80064 -1.375,0.44035 -3.4,0.80064 -4.5,0.80064 -1.58367,0 -1.47958,-0.16667 0.5,-0.80064 z m 1.76166,-5.70726 c 1.24391,-0.23919 3.04391,-0.23011 4,0.0202 0.95609,0.25029 -0.0617,0.446 -2.26166,0.4349 -2.2,-0.0111 -2.98225,-0.21589 -1.73834,-0.45508 z M 207.5,166.7394 c 2.65767,-1.97825 9.05627,-2.84841 14,-1.9039 3.78021,0.72222 3.58789,0.80248 -3.5,1.46062 -4.125,0.38302 -8.625,0.97441 -10,1.3142 -2.41431,0.59662 -2.43145,0.56677 -0.5,-0.87092 z m 12.58333,-3.10181 C 221.09079,162.76131 229,162.28017 229,163.09516 229,163.59282 226.9,164 224.33333,164 c -2.56666,0 -4.47916,-0.16309 -4.25,-0.36241 z M 231.75,158.29427 c 1.2375,-0.23836 3.2625,-0.23836 4.5,0 1.2375,0.23835 0.225,0.43337 -2.25,0.43337 -2.475,0 -3.4875,-0.19502 -2.25,-0.43337 z m 9.25,-8.28572 c 1.3536,-0.88248 9.91011,-1.50567 8.91667,-0.64943 -0.22917,0.19752 -2.66667,0.64448 -5.41667,0.99324 -3.41342,0.4329 -4.52403,0.3238 -3.5,-0.34381 z m 43.48104,19.13916 c -0.22097,-0.22097 -2.2196,-0.73418 -4.4414,-1.14046 -2.74767,-0.50245 -4.03862,-0.38187 -4.03645,0.37702 0.002,0.64917 1.8591,1.12607 4.4414,1.14046 2.44102,0.0136 4.25742,-0.15605 4.03645,-0.37702 z M 318.5,163.90567 c 11.92601,-2.49871 23.85832,-6.43346 28,-9.23317 4.69838,-3.17603 15.44101,-12.69376 16.44518,-14.57007 1.70668,-3.18895 2.22373,-38.81425 0.69596,-47.952074 -1.72935,-10.343588 -3.18301,-12.017833 -9.89114,-11.39207 -5.11638,0.477279 -6.51167,2.14573 -2,2.391546 l 2.75,0.149832 -2.75,0.41659 c -3.73745,0.566177 -3.47404,1.803161 0.44761,2.10198 C 356.72057,86.162872 357.05284,87 352.66667,87 c -4.83119,0 -4.75619,1.951159 0.0833,2.168103 l 3.75,0.168103 -3.75,0.392262 c -4.48375,0.469016 -5.27854,3.188251 -1,3.421364 l 2.75,0.149832 -2.75,0.41659 c -1.90821,0.28907 -2.75,1.008469 -2.75,2.350168 0,1.539239 0.76478,1.966216 3.75,2.093615 l 3.75,0.160037 -3.49126,0.421316 c -3.2086,0.387203 -4.95475,1.61413 -4.99343,3.50861 -0.008,0.4125 1.67219,0.82565 3.73469,0.9181 l 3.75,0.16811 -3.75,0.39226 c -2.55531,0.26729 -3.75,0.88706 -3.75,1.94539 0,1.15689 0.76539,1.4408 3,1.11283 1.65,-0.24217 3,-0.0682 3,0.3865 0,0.45475 -1.35,0.82681 -3,0.82681 -1.65,0 -3,0.45532 -3,1.01182 0,0.59533 1.74938,0.82386 4.25,0.55519 l 4.25,-0.45662 -4.75,1.1124 c -2.89849,0.6788 -4.75,1.66274 -4.75,2.52426 0,1.04849 0.77211,1.24228 3,0.75295 4.01708,-0.8823 3.83438,0.18245 -0.25,1.45696 l -3.25,1.01415 3.25,-0.31236 c 1.7875,-0.1718 3.25,0.0312 3.25,0.45108 0,0.4199 -1.42784,0.90446 -3.17299,1.07681 -3.78906,0.3742 -4.89764,2.47661 -1.63464,3.10007 1.73898,0.33227 1.50675,0.47448 -0.94237,0.57711 -3.77635,0.15824 -4.21611,1.39946 -1.00369,2.83288 1.98399,0.88528 1.66284,1.08622 -2.75,1.7206 -2.74797,0.39504 -6.77256,1.23558 -8.94353,1.86786 -3.72316,1.08434 -3.8083,1.19308 -1.5,1.91573 1.64265,0.51425 0.96777,0.62706 -2.05278,0.34313 -2.475,-0.23264 -8.1,0.0386 -12.5,0.60284 -4.4,0.5642 -14.525,1.6058 -22.5,2.31466 -13.35733,1.18727 -13.90896,1.31173 -7,1.57928 l 7.5,0.29044 -7.5,0.78441 c -13.0345,1.36324 -16,2.00997 -16,3.48939 0,0.92108 1.27391,1.44122 3.75,1.53114 2.61863,0.0951 2.99575,0.26074 1.25,0.54904 -5.10204,0.84255 -5.46656,1.70112 -1,2.35531 l 4.5,0.65908 -4,0.31319 c -3.83228,0.30006 -3.76938,0.34145 1.5,0.9872 l 5.5,0.67401 -5.25,0.16299 c -5.9772,0.18558 -7.20029,2.07977 -1.5,2.32304 3.6921,0.15756 3.69982,0.16626 0.5,0.56336 -3.39079,0.42079 -4.54371,2.22464 -1.5,2.34689 1.49644,0.0601 1.46022,0.19481 -0.25,0.92971 -1.7481,0.75118 -1.62214,0.88715 1,1.07955 l 3,0.22011 -2.75,0.41659 c -4.12077,0.62425 -3.31559,1.94818 0.88648,1.45761 2.44063,-0.28493 3.41664,-0.0688 2.96798,0.65713 -0.36768,0.59491 -1.30177,0.83866 -2.07575,0.54165 -0.77398,-0.297 -2.22207,-0.066 -3.21797,0.51327 -1.66639,0.9693 -1.63607,1.0557 0.38024,1.08368 1.20504,0.0167 2.44316,0.43844 2.75138,0.93715 0.30822,0.49871 -0.28943,0.68451 -1.32812,0.41288 -1.03869,-0.27162 -2.19087,-0.005 -2.5604,0.59326 -0.42658,0.69023 0.5362,1.14182 2.63714,1.23695 l 3.30902,0.14983 -3,0.51478 -3,0.51477 3,0.71708 3,0.71708 -2.75,0.11832 c -1.5125,0.0651 -2.75,0.51206 -2.75,0.99331 0,0.48125 1.2375,1.12474 2.75,1.42997 1.5125,0.30523 3.61132,0.88795 4.66404,1.29494 1.33842,0.51743 1.6966,0.38812 1.19099,-0.42997 C 284.16676,166.46081 284.51927,166 285.5,166 c 0.88992,0 1.35885,0.41937 1.04206,0.93194 -1.51321,2.44843 11.88228,1.17993 31.95794,-3.02627 z m -37.6875,1.41122 c 0.72187,-0.28887 1.58438,-0.25335 1.91667,0.0789 0.33229,0.33229 -0.25834,0.56864 -1.3125,0.52522 -1.16495,-0.048 -1.4019,-0.28494 -0.60417,-0.60416 z M 276.25,138.28375 c 1.5125,-0.22913 3.9875,-0.22913 5.5,0 1.5125,0.22912 0.275,0.41659 -2.75,0.41659 -3.025,0 -4.2625,-0.18747 -2.75,-0.41659 z m 45,0.0269 c 0.9625,-0.25152 2.5375,-0.25152 3.5,0 0.9625,0.25153 0.175,0.45733 -1.75,0.45733 -1.925,0 -2.7125,-0.2058 -1.75,-0.45733 z m -19.16667,-1.66979 c 0.22917,-0.19752 2.66667,-0.61915 5.41667,-0.93696 3.21675,-0.37175 4.2867,-0.26874 3,0.28884 -1.91052,0.82789 -9.28402,1.39569 -8.41667,0.64812 z m 24.01359,-2.0241 c -1.51198,-1.82182 0.62844,-2.6686 6.23487,-2.46659 l 4.16821,0.1502 -4.5,0.5998 c -2.83124,0.37738 -4.40729,1.06335 -4.25,1.84981 0.3256,1.62799 -0.22846,1.58334 -1.65308,-0.13322 z M 308,132.98497 c 4.5476,-0.84557 14.68596,-1.29567 13.91667,-0.61784 -0.22917,0.20192 -4.46667,0.6118 -9.41667,0.91084 -6.34316,0.38321 -7.67158,0.29671 -4.5,-0.293 z m 16,-2.12364 C 324,130.3876 325.125,130 326.5,130 c 1.375,0 2.5,0.17254 2.5,0.38342 0,0.21089 -1.125,0.59848 -2.5,0.86133 -1.375,0.26285 -2.5,0.0903 -2.5,-0.38342 z m 12.75,-2.52361 c 0.6875,-0.27741 1.8125,-0.27741 2.5,0 0.6875,0.27741 0.125,0.50439 -1.25,0.50439 -1.375,0 -1.9375,-0.22698 -1.25,-0.50439 z M 348.5,123 l -3,-0.76337 3.25,-0.11832 C 350.5375,122.05324 352,122.45 352,123 c 0,0.55 -0.1125,0.94676 -0.25,0.88169 -0.1375,-0.0651 -1.6,-0.46184 -3.25,-0.88169 z m 2.75,-27.689326 c 0.9625,-0.251527 2.5375,-0.251527 3.5,0 0.9625,0.251528 0.175,0.457323 -1.75,0.457323 -1.925,0 -2.7125,-0.205795 -1.75,-0.457323 z M 198.5,163.52822 c 14.37871,-2.06355 24.36133,-5.77238 38.5,-14.30384 12.17302,-7.34536 17.67755,-12.92203 27.01533,-27.36939 4.28226,-6.62549 5.03333,-8.89941 2.23467,-6.76563 -0.9625,0.73384 -0.48467,-0.0522 1.06185,-1.74683 2.56276,-2.80814 2.65135,-3.14336 1,-3.78412 -1.63029,-0.63259 -1.56133,-0.84255 0.68815,-2.09529 1.375,-0.76574 2.0256,-1.4082 1.44578,-1.42768 -0.57982,-0.0195 -3.18295,1.31456 -5.78473,2.96456 -5.23162,3.31779 -7.50813,3.99126 -3.7661,1.11413 l 2.39495,-1.8414 -4.17021,0 c -2.29362,0 -4.4104,0.38863 -4.70397,0.86363 -0.29356,0.475 -1.0432,0.86364 -1.66587,0.86364 -0.62266,0 -0.2586,-0.64286 0.80902,-1.42858 1.77689,-1.3077 1.79711,-1.48443 0.23902,-2.08861 -0.93617,-0.36302 -2.16851,-0.37179 -2.73855,-0.0195 -0.60019,0.37094 -0.80661,0.0417 -0.49041,-0.78234 0.57871,-1.5081 -2.12083,-3.07596 -3.65917,-2.12521 -0.50037,0.30925 -0.90976,0.12321 -0.90976,-0.41342 0,-0.53663 0.5625,-1.24317 1.25,-1.5701 0.6875,-0.32694 0.19299,-0.39493 -1.09891,-0.15109 -1.29191,0.24383 -2.08227,0.17669 -1.75636,-0.14922 0.3259,-0.3259 -0.19847,-1.1466 -1.16528,-1.823778 -1.4072,-0.985643 -5.68346,-0.816537 -21.43887,0.847808 -17.9141,1.89238 -21.05512,1.96677 -34.98582,0.82855 C 166.57778,99.471869 158.18418,98.413516 142,95.475069 98.640377,87.60257 90.923273,87.280105 76.189161,92.72511 c -3.181066,1.175566 -4.799895,2.551703 -6.176912,5.25088 -2.982932,5.84703 -3.942473,6.27491 -11.689513,5.21263 -3.752505,-0.51455 -8.223491,-0.72548 -9.935526,-0.46872 -3.054701,0.45811 -3.123332,0.59104 -3.67768,7.12346 -0.310689,3.66115 -0.870579,7.44414 -1.244199,8.40664 -0.575182,1.48175 -0.08761,1.75 3.180863,1.75 5.419853,0 16.168621,3.25102 23.279177,7.04091 3.312133,1.76535 9.971388,6.38421 14.798344,10.26413 9.039034,7.26561 27.927405,18.60212 35.367935,21.2273 2.31672,0.81738 9.20635,1.96234 15.31029,2.54435 6.10393,0.58201 14.47306,1.65437 18.59806,2.38302 10.13131,1.78962 32.26988,1.8237 44.5,0.0685 z M 74.541119,123.06653 C 74.178585,122.47994 72.783524,122 71.440983,122 70.098442,122 69,121.58141 69,121.06981 c 0,-0.56704 1.224267,-0.57908 3.135811,-0.0309 3.493011,1.00178 4.473947,1.68463 3.630991,2.52758 -0.311592,0.31159 -0.86315,0.0866 -1.225683,-0.5 z M 65,120.03138 c 0,-0.53273 0.675,-0.70959 1.5,-0.39301 0.825,0.31659 1.5,0.75246 1.5,0.96862 C 68,120.82314 67.325,121 66.5,121 65.675,121 65,120.56412 65,120.03138 z m -5.75,-1.72071 c 0.9625,-0.25152 2.5375,-0.25152 3.5,0 0.9625,0.25153 0.175,0.45733 -1.75,0.45733 -1.925,0 -2.7125,-0.2058 -1.75,-0.45733 z M 50.5,117 c 0.339919,-0.55 1.041476,-1 1.559017,-1 C 52.576558,116 53,116.45 53,117 c 0,0.55 -0.701558,1 -1.559017,1 -0.857459,0 -1.280902,-0.45 -0.940983,-1 z m -2.83136,-3.25 c 0.340253,-1.7875 0.792028,-3.45052 1.003945,-3.69561 C 49.436231,109.17122 52,109.19749 52,110.08848 52,110.58982 51.523442,111 50.940983,111 c -0.582459,0 -0.786649,0.4407 -0.453756,0.97933 C 51.218335,113.16229 49.309358,117 47.989816,117 c -0.520539,0 -0.663824,-1.44991 -0.321176,-3.25 z M 265,112.06343 c 0,-0.64981 -0.45,-0.90335 -1,-0.56343 -0.55,0.33992 -1,0.38231 -1,0.0942 0,-0.28811 0.87269,-0.99088 1.93931,-1.56172 2.39605,-1.28233 3.6103,0.26649 1.54968,1.97666 -1.11449,0.92494 -1.48899,0.9386 -1.48899,0.0543 z m -10,-0.95644 c 0,-0.49116 0.73865,-1.17646 1.64144,-1.52289 1.37248,-0.52667 1.43434,-0.38034 0.37756,0.89301 -1.44013,1.73524 -2.019,1.91584 -2.019,0.62988 z M 48,106 c 0.588702,-1.1 1.559635,-2 2.157628,-2 0.705694,0 0.643708,0.53445 -0.176627,1.52289 -1.068423,1.28737 -0.984662,1.41575 0.5416,0.83006 1.242366,-0.47674 1.579969,-0.32793 1.082427,0.47711 C 51.207344,107.47353 49.992691,108 48.905799,108 47.23951,108 47.097474,107.68639 48,106 z m 198,-0.39301 c 0,-0.21616 0.69837,-0.661 1.55194,-0.98855 0.88992,-0.34149 1.29132,-0.17385 0.94098,0.39301 C 247.90566,105.96166 246,106.4169 246,105.60699 z m -125.27083,56.78884 c -0.3323,-0.33229 -1.1948,-0.36781 -1.91667,-0.0789 -0.79773,0.31922 -0.56078,0.55618 0.60417,0.60416 1.05416,0.0434 1.64479,-0.19293 1.3125,-0.52522 z m -5.75666,-2.08787 c -1.35988,-0.93062 -2.80312,-2.16812 -3.2072,-2.75 -0.45115,-0.64966 -0.73468,-0.67203 -0.73468,-0.058 0,1.49926 1.28355,3.12938 2.96937,3.77111 2.96447,1.12847 3.39943,0.69769 0.97251,-0.96315 z m -31.805415,-4.17837 c 5.595948,-2.41564 7.933459,-5.02907 7.156281,-8.001 -0.449536,-1.71903 -0.813892,-1.96158 -1.446801,-0.96312 C 88.250532,148.15309 88.022664,147.9801 88,146.5 c -0.0254,-1.65895 -0.195928,-1.74421 -1,-0.5 -0.737613,1.14137 -0.973035,0.73709 -0.984687,-1.69098 -0.0084,-1.75504 -0.400307,-3.42893 -0.870856,-3.71974 -0.470549,-0.29082 -0.69348,0.69513 -0.495403,2.19098 L 85.009195,145.5 83.921264,142.75 C 83.322902,141.2375 82.420833,140 81.916667,140 81.4125,140 80.993109,139.2125 80.984687,138.25 80.971601,136.75445 80.828426,136.7181 80,138 c -0.783874,1.21296 -0.972305,1.06944 -0.984687,-0.75 -0.0084,-1.2375 -0.434015,-2.25 -0.945762,-2.25 -0.511747,0 -1.125465,1.0125 -1.363818,2.25 -0.313393,1.6271 -0.47107,1.35026 -0.569551,-1 -0.0749,-1.7875 -0.61274,-3.25 -1.195199,-3.25 -0.582459,0 -0.780902,0.45 -0.440983,1 0.339919,0.55 0.141476,1 -0.440983,1 -0.582459,0 -1.065908,-1.0125 -1.07433,-2.25 -0.01098,-1.61379 -0.254394,-1.87284 -0.860836,-0.91615 -0.675842,1.06616 -0.972376,1.00327 -1.477625,-0.31339 -0.357068,-0.9305 -1.136289,-1.33562 -1.790867,-0.93107 -0.640092,0.3956 -1.763362,-0.11067 -2.509488,-1.13106 -1.18144,-1.61572 -1.282782,-1.22755 -0.80863,3.09722 2.433909,22.19986 2.924788,24.00948 6.710566,24.73843 4.593932,0.88455 6.690779,0.66095 10.919288,-1.16439 z M 252,142 c 0,-0.55 -0.19844,-1 -0.44098,-1 -0.24254,0 -0.7191,0.45 -1.05902,1 -0.33992,0.55 -0.14148,1 0.44098,1 0.58246,0 1.05902,-0.45 1.05902,-1 z m 27.5,-7 c 0.3678,-0.59512 -0.82295,-1 -2.94098,-1 -1.95746,0 -3.55902,0.45 -3.55902,1 0,0.55 1.32344,1 2.94098,1 1.61754,0 3.2191,-0.45 3.55902,-1 z m 16,-5.12927 c 33.30709,-2.50819 44.8909,-5.04372 47.31122,-10.35574 1.76463,-3.87295 3.1275,-13.37425 3.51644,-24.51499 0.40153,-11.501422 -0.4681,-16.361235 -3.51915,-19.666257 C 339.26166,71.491649 318,66.995797 318,70.087898 c 0,0.704479 -1.3312,0.862994 -3.77709,0.449763 -2.07739,-0.350974 -4.88989,-0.194052 -6.25,0.348716 -2.10983,0.84196 -1.69343,0.996157 2.83611,1.050237 3.3276,0.03973 5.07459,0.44269 4.6809,1.079698 -0.34546,0.558971 -1.07897,0.737668 -1.63002,0.397103 -1.47562,-0.911984 -9.8599,0.54136 -9.8599,1.709131 0,0.618491 1.71679,0.742551 4.5,0.325183 3.04324,-0.456361 4.5,-0.314335 4.5,0.438727 C 313,76.56954 310.87388,77 307.5,77 c -7.32063,0 -7.09655,1.950969 0.25,2.176587 l 5.75,0.176587 -6.76521,0.573413 C 303.01393,80.241964 299.9688,80.95 299.96785,81.5 c -9.6e-4,0.55 2.81838,1.25983 6.2652,1.577401 l 6.26695,0.577401 -7.64301,0.172599 c -5.94488,0.134251 -7.77818,0.524842 -8.25138,1.757987 -0.52443,1.366624 0.28903,1.539109 5.89511,1.25 3.57691,-0.184463 6.50253,0.0021 6.50138,0.414612 -10e-4,0.4125 -2.5896,0.756145 -5.7521,0.763655 -6.88353,0.01635 -9.93818,0.731366 -10.61061,2.483692 -0.38623,1.006501 0.89721,1.206878 5.68083,0.886917 4.3649,-0.291955 5.59242,-0.136037 4.17978,0.530909 -1.77711,0.839026 -1.67496,0.952089 0.91667,1.014542 4.86119,0.117144 2.26982,1.082026 -4.52362,1.684346 C 291.90365,95.233753 285,96.744226 285,97.653767 c 0,0.577019 8.9604,-0.233951 14.37511,-1.301033 1.79145,-0.353044 2.64211,-0.189609 2.25693,0.433622 -0.34,0.550123 -4.67441,1.321262 -9.63204,1.713644 -4.95763,0.392382 -9.21198,1.033977 -9.45412,1.425767 -0.24214,0.391793 0.77348,0.585833 2.25693,0.431203 C 292.89458,99.513519 298,99.373864 298,99.995969 c 0,0.386311 -4.35842,0.988681 -9.68539,1.338591 -5.32696,0.34992 -10.16446,1.14316 -10.75,1.76277 -1.03149,1.09151 6.41927,0.76205 16.43539,-0.72674 2.41496,-0.35895 3.07216,-0.22131 2.11991,0.444 -0.75905,0.53033 -6.01417,1.2801 -11.67805,1.66615 -7.48428,0.51013 -10.44697,1.09018 -10.84328,2.12295 -0.39708,1.03479 0.059,1.29662 1.67806,0.96327 6.01848,-1.23915 11.88904,-1.64405 11.35708,-0.78332 -0.31892,0.51602 -3.54218,1.176 -7.1628,1.46663 -6.10457,0.49002 -8.41101,1.16224 -7.38759,2.15316 0.22917,0.22189 3.45417,0.086 7.16667,-0.3019 3.7125,-0.38793 6.75,-0.34448 6.75,0.0966 0,0.44104 -2.1375,0.84676 -4.75,0.90158 -5.72321,0.1201 -9.47445,1.07366 -9.96054,2.53195 -0.25103,0.75309 1.34356,0.80951 5.30794,0.18784 7.7695,-1.21838 8.00362,-0.31518 0.27135,1.04683 -8.64141,1.52215 -9.67125,3.05829 -1.73441,2.58712 l 6.36566,-0.37791 -6.92189,1.21225 c -3.80704,0.66673 -7.08802,1.7177 -7.29108,2.33548 -0.26238,0.79829 0.8722,0.88321 3.92189,0.29355 2.36009,-0.45633 5.86608,-0.79709 7.79108,-0.75724 3.86921,0.0801 3.57889,0.16015 -6.54308,1.80418 -5.06441,0.82257 -7.38452,1.69069 -8.25847,3.09011 -1.09438,1.75238 -0.94074,1.94464 1.54308,1.93085 1.91852,-0.0106 2.34714,-0.27597 1.40764,-0.87134 -0.91185,-0.57784 0.18586,-1.08646 3.37785,-1.56513 2.60077,-0.39001 5.34615,-0.94605 6.10083,-1.23565 0.75468,-0.2896 1.37215,-0.0284 1.37215,0.58044 0,0.60885 -1.6875,1.16023 -3.75,1.2253 -3.73221,0.11776 -3.73577,0.12194 -0.75,0.88169 3.72508,0.94787 3.43849,1.06178 -4,1.58985 -3.3,0.23428 -6.5625,0.63328 -7.25,0.88667 -6.1224,2.25653 11.81255,3.00856 33.25,1.39421 z M 269.71249,103.84365 C 282.47864,99.087139 291.81205,90.412978 301.28628,74.5 312.45685,55.737838 314.44721,50.845761 316.38781,37.382292 l 0.59352,-4.117708 -4.54091,-1.734187 c -11.57321,-4.41985 -17.85053,-2.844911 -24.4268,6.128525 -6.92697,9.451978 -12.62163,20.034505 -15.80378,29.368549 -4.43557,13.010651 -8.03288,19.515057 -13.81991,24.988183 -4.12115,3.897615 -5.99185,4.98759 -8.58007,4.999223 l -3.30986,0.01488 4,3.386913 c 2.2,1.8628 4.3375,3.17955 4.75,2.92611 0.4125,-0.25345 0.75,-0.0156 0.75,0.52865 0,0.93283 2.34479,1.68482 6.21249,1.99239 0.94187,0.0749 4.31687,-0.83418 7.5,-2.02017 z M 261.5,94.049976 c 1.1,-0.452789 3.54244,-2.894329 5.42764,-5.425645 1.8852,-2.531316 3.62154,-4.408486 3.85854,-4.171489 0.84323,0.843231 -8.12745,10.546037 -9.69272,10.483772 -1.16969,-0.04653 -1.06157,-0.282325 0.40654,-0.886638 z m 9.86998,-13.197218 c 1.39596,-0.811031 1.55183,-1.283047 0.6149,-1.862104 -0.91576,-0.565969 -0.67784,-1.08461 0.88002,-1.918351 C 274.26746,76.321678 275,76.2848 275,76.964816 275,77.534167 274.52344,78 273.94098,78 c -0.58246,0 -0.7498,0.500312 -0.37188,1.111803 0.69039,1.117076 -1.20299,2.870646 -3.0691,2.842476 -0.55,-0.0083 -0.15851,-0.503987 0.86998,-1.101521 z m 1.36335,-5.976846 c 0.67834,-0.683418 1.48524,-0.990671 1.79313,-0.682784 0.30789,0.307887 -0.24711,0.867048 -1.23333,1.242579 -1.4252,0.542685 -1.54006,0.427821 -0.5598,-0.559795 z m 4.07917,-5.559026 c 0.72187,-0.288871 1.58438,-0.253344 1.91667,0.07895 0.33229,0.332292 -0.25834,0.568641 -1.3125,0.52522 -1.16495,-0.04798 -1.4019,-0.284941 -0.60417,-0.604167 z M 277,67.142173 c 0,-1.027762 3.02888,-2.446629 3.72877,-1.746732 0.24339,0.243385 -0.49602,0.94481 -1.64312,1.558722 C 277.93781,67.568464 277,67.653003 277,67.142173 z m 3,-4.535184 c 0,-0.216156 0.675,-0.652033 1.5,-0.968615 0.825,-0.316583 1.5,-0.139728 1.5,0.393011 C 283,62.564123 282.325,63 281.5,63 280.675,63 280,62.823145 280,62.606989 z m -0.91667,-1.971534 c 0.22917,-0.2005 1.54167,-0.900325 2.91667,-1.555167 2.35727,-1.122645 2.38918,-1.101832 0.55887,0.364546 -1.593,1.276255 -4.84786,2.39128 -3.47554,1.190621 z m 2.3578,-5.167258 c 1.06762,-0.807509 2.64262,-1.452251 3.5,-1.432762 0.99919,0.02271 0.6613,0.548533 -0.94113,1.464565 -3.27204,1.870466 -5.04477,1.848433 -2.55887,-0.0318 z M 285,51.973303 c 0,-0.869341 3.88186,-2.424776 4.50251,-1.804126 0.19348,0.193485 -0.74043,0.867234 -2.07536,1.497222 C 286.09222,52.296386 285,52.434493 285,51.973303 z M 287,48 c 1.95837,-1.265597 3.28218,-1.265597 2.5,0 -0.33992,0.55 -1.37898,0.993109 -2.30902,0.984687 C 285.73371,48.971491 285.70731,48.835399 287,48 z m 2,-6 c 0.5887,-1.1 1.98109,-2 3.0942,-2 1.18069,0 1.7488,0.445009 1.36367,1.068174 -0.3631,0.587495 -1.40215,0.811391 -2.30902,0.497546 -1.21605,-0.420845 -1.13933,-0.176252 0.29228,0.931826 C 293.30658,43.941421 293.27596,44 290.65595,44 288.23951,44 288.05129,43.772677 289,42 z m 3.5,-5 c 1.1,-0.472686 2.9,-0.859429 4,-0.859429 2,0 2,0 0,0.859429 -1.1,0.472686 -2.9,0.859429 -4,0.859429 -2,0 -2,0 0,-0.859429 z m 0.49993,-3.25 c 4e-5,-0.4125 1.65007,-0.75 3.66674,-0.75 2.01666,0 3.3692,0.297459 3.00564,0.661021 -0.9256,0.925607 -6.67247,1.002244 -6.67238,0.08898 z M 67.044314,98.917199 C 67.687023,97.716285 68.167236,91.62672 68.178459,84.535133 68.200844,70.390564 66.642989,65.339314 60.20065,58.667579 52.362453,50.550283 44.704035,49.450078 34,54.903605 c -3.575,1.821403 -6.830609,3.825711 -7.234687,4.454018 -2.587813,4.023831 1.019737,24.00671 5.809484,32.179796 4.297224,7.332658 5.803189,7.789645 30.640019,9.297741 1.838,0.1116 3.07483,-0.50785 3.829498,-1.917961 z M 49.243769,95.335642 C 47.86114,94.778221 48.526754,93 50.118034,93 c 0.55,0 0.674622,0.526472 0.276938,1.169939 -0.490569,0.793758 -0.171307,0.95821 0.992921,0.511454 1.019278,-0.391134 1.467929,-0.257126 1.105028,0.330061 -0.655096,1.059968 -1.271558,1.121476 -3.249152,0.324188 z M 55,95.616631 c 0,-0.210852 0.9,-0.618724 2,-0.90638 1.1,-0.287656 2,-0.115141 2,0.383369 C 59,95.592129 58.1,96 57,96 55.9,96 55,95.827484 55,95.616631 z M 42.5,92 c 0.995486,-1.1 1.969044,-2 2.163461,-2 0.194418,0 -0.208573,0.9 -0.895534,2 -0.686961,1.1 -1.660519,2 -2.163461,2 -0.502943,0 -0.09995,-0.9 0.895534,-2 z m 3,1 c 0.339919,-0.55 1.068034,-1 1.618034,-1 0.55,0 0.721885,0.45 0.381966,1 -0.339919,0.55 -1.068034,1 -1.618034,1 -0.55,0 -0.721885,-0.45 -0.381966,-1 z m -4,-3 c 0.995486,-1.1 2.034975,-2 2.309975,-2 0.275,0 -0.314489,0.9 -1.309975,2 -0.995486,1.1 -2.034975,2 -2.309975,2 -0.275,0 0.314489,-0.9 1.309975,-2 z M 37,89.687091 c 0,-0.1721 1.426724,-1.6346 3.170497,-3.25 L 43.340995,83.5 41.102403,86.75 C 39.264988,89.41757 37,91.039175 37,89.687091 z m -1.373096,-2.157203 c 0.462037,-1.204048 0.338084,-1.626283 -0.35218,-1.199676 -2.200338,1.359883 -2.307337,-2.666595 -0.132384,-4.981726 2.538764,-2.70239 2.984749,-2.510158 3.450162,1.487119 0.228855,1.965551 -0.315295,3.508539 -1.669529,4.734104 -1.944362,1.759623 -1.986088,1.758341 -1.296069,-0.03982 z M 36.5,83 c 0.995486,-1.1 1.584975,-2 1.309975,-2 -0.275,0 -1.314489,0.9 -2.309975,2 -0.995486,1.1 -1.584975,2 -1.309975,2 0.275,0 1.314489,-0.9 2.309975,-2 z m 3,0 c 0.339919,-0.55 0.816476,-1 1.059017,-1 C 40.801558,82 41,82.45 41,83 41,83.55 40.523442,84 39.940983,84 39.358524,84 39.160081,83.55 39.5,83 z m -7.935561,-2.69267 c -0.409867,-1.068098 0.222071,-2.548385 1.73288,-4.059195 l 2.378011,-2.378011 -0.170546,2.314938 C 35.410984,77.458278 34.846534,78.5 34.250452,78.5 c -0.596082,0 -1.458785,0.409646 -1.917119,0.910325 -0.484163,0.528895 -0.309578,0.608918 0.416667,0.190983 1.406156,-0.809206 1.7506,0.97127 0.354785,1.833931 C 32.612416,81.73954 31.919261,81.23198 31.564439,80.30733 z M 31,75.483728 c 0,-0.454436 0.7875,-1.718841 1.75,-2.809789 1.738588,-1.970607 1.730436,-1.971451 -1.25,-0.129468 l -3,1.854073 2.424314,-2.699272 C 32.257687,70.214672 33.624425,69 33.96151,69 c 1.465127,0 0.72966,3.969512 -1.030622,5.562546 C 31.868899,75.523632 31,75.938164 31,75.483728 z M 30,68 c 1.375,-1.075541 2.95,-1.955528 3.5,-1.955528 0.55,0 -0.125,0.879987 -1.5,1.955528 -1.375,1.075541 -2.95,1.955528 -3.5,1.955528 -0.55,0 0.125,-0.879987 1.5,-1.955528 z m 0.5,-3.656777 C 32.473114,62.77147 32.469753,62.757196 30.25,63.281407 29.0125,63.573651 28,63.40489 28,62.90638 28,62.407871 28.413196,62 28.918213,62 c 0.505016,0 1.555016,-0.244365 2.333333,-0.543033 1.696591,-0.651043 2.001935,2.671265 0.3472,3.77772 C 29.458686,66.66566 28.530201,65.912336 30.5,64.343223 z M 29.5,60 c 0.339919,-0.55 1.378976,-0.993109 2.309017,-0.984687 C 33.266292,59.028509 33.292687,59.164601 32,60 c -1.958372,1.265597 -3.282182,1.265597 -2.5,0 z M 221.24133,97.980101 C 231.8336,96.869156 241.85,95.775161 243.5,95.549 c 1.65,-0.22616 4.25678,-0.442205 5.79284,-0.4801 3.60182,-0.08886 11.44188,-7.322082 14.95216,-13.794827 1.42398,-2.62574 4.03551,-9.031579 5.8034,-14.235196 3.77965,-11.125051 12.65681,-27.258795 18.79427,-34.157545 L 293.18534,28 l -7.47023,0 c -4.97554,0 -7.83684,0.441755 -8.56806,1.322817 -0.60381,0.72755 -3.75714,7.449648 -7.00738,14.937997 -7.09933,16.356374 -12.3087,23.394791 -22.93856,30.992478 C 236.60447,82.827233 235.38406,83.34416 219.5,86.986572 196.41509,92.28023 172.41589,92.126451 147.62437,86.526017 136.05572,83.912647 127.20866,80.813202 100.5,70.016648 93.35,67.126374 85.025,64.07046 82,63.225728 76.368131,61.653027 69.130055,61.469945 67.735091,62.864909 c -0.429545,0.429545 -0.02667,2.548163 0.895273,4.708041 1.105021,2.588776 1.792406,7.505276 2.017073,14.42705 0.187445,5.775 0.570602,10.392641 0.85146,10.261425 C 79.649875,88.453309 92.213487,85.68993 98,86.43248 c 16.24455,2.08457 34.87204,4.944872 43,6.602769 11.37837,2.320898 45.1875,6.348332 57.24133,6.818742 2.05774,0.08031 12.40774,-0.762946 23,-1.87389 z M 75,85.746892 c 0,-1.677918 10.882783,-3.264109 12.347251,-1.799641 0.471581,0.471581 -0.198371,0.856498 -1.496783,0.859969 C 82.939173,84.81502 79.061416,85.531658 76.75,86.489093 75.549162,86.986504 75,86.753596 75,85.746892 z m 0.75,-5.409173 c 0.6875,-0.277412 1.8125,-0.277412 2.5,0 0.6875,0.277413 0.125,0.504386 -1.25,0.504386 -1.375,0 -1.9375,-0.226973 -1.25,-0.504386 z M 76,78 c 0.825,-0.533156 1.95,-0.969374 2.5,-0.969374 0.55,0 0.325,0.436218 -0.5,0.969374 -0.825,0.533156 -1.95,0.969374 -2.5,0.969374 -0.55,0 -0.325,-0.436218 0.5,-0.969374 z m -1,-2 c 0.825,-0.533156 2.175,-0.969374 3,-0.969374 1.333333,0 1.333333,0.107708 0,0.969374 -0.825,0.533156 -2.175,0.969374 -3,0.969374 -1.333333,0 -1.333333,-0.107708 0,-0.969374 z m -1.146755,-1.888139 c 1.075554,-0.681548 1.110229,-1.311593 0.16898,-3.070333 -0.651346,-1.217052 -0.939655,-2.457432 -0.640686,-2.7564 0.298969,-0.298969 1.08266,0.639572 1.741535,2.085646 0.658876,1.446074 1.688224,2.636117 2.287441,2.644539 C 78.009732,73.023735 77.825,73.466844 77,74 c -0.825,0.533156 -2.175,0.969374 -3,0.969374 -1.21924,0 -1.246709,-0.160503 -0.146755,-0.857513 z M 74,67.28678 C 70.932232,66.151041 69.790287,64.74952 71.202666,63.853584 71.9162,63.400957 73.1176,63.023735 73.872445,63.015313 74.979122,63.002965 75.003822,63.290468 74,64.5 72.980429,65.728508 73.048765,66 74.377555,66 75.2699,66 76,66.45 76,67 76,67.55 75.8875,67.964474 75.75,67.921053 75.6125,67.877632 74.825,67.592209 74,67.28678 z M 300,93 c 0,-1.130722 -3.05633,-1.130722 -7.5,0 -2.56432,0.652508 -2.23755,0.780553 2.25,0.881685 C 297.66221,93.947315 300,93.554707 300,93 z m 53.26903,-13.655937 c -0.67703,-0.273923 -2.02703,-0.290597 -3,-0.03705 -0.97297,0.253544 -0.41903,0.477663 1.23097,0.498042 1.65,0.02038 2.44606,-0.187065 1.76903,-0.460988 z M 315.5,69 c -0.33992,-0.55 -2.05398,-0.940761 -3.80902,-0.868359 L 308.5,68.263282 312,69 c 1.925,0.405195 3.63906,0.795956 3.80902,0.868359 C 315.97898,69.940761 315.83992,69.55 315.5,69 z M 49.971934,42.414959 C 48.420345,37.713598 40.420054,20.9668 38.669979,18.756877 c -1.311014,-1.655497 -1.82755,-1.647958 -10.275193,0.149972 -4.892132,1.041202 -8.021278,1.938108 -6.953656,1.993123 1.921506,0.09902 1.921506,0.115251 0,1.605859 -1.803282,1.398896 -1.735268,1.432141 0.957751,0.468146 2.568505,-0.919423 2.751827,-0.860495 1.608556,0.517062 -1.102808,1.328803 -1.015451,1.466893 0.601119,0.950218 1.760548,-0.562691 1.753035,-0.490508 -0.108556,1.043049 -1.936995,1.595673 -1.90867,1.625153 0.899153,0.935792 2.065054,-0.507001 2.695409,-0.38212 2.190983,0.434059 C 27.200642,27.484371 27.358524,28 27.940983,28 28.523442,28 29,28.476558 29,29.059017 c 0,0.582459 -0.5625,0.790687 -1.25,0.462729 -0.6875,-0.327959 -0.521934,-0.05681 0.367923,0.602556 1.45125,1.075343 1.348233,1.451489 -1,3.651291 L 24.5,36.228039 27.416694,34.481745 c 2.786783,-1.668514 2.975722,-1.665569 4.241964,0.06612 1.123705,1.536758 1.060328,2.115348 -0.416694,3.80417 -0.95808,1.095465 -1.157915,1.649526 -0.444077,1.231247 0.713838,-0.418278 2.033844,-0.478094 2.933347,-0.132922 1.305388,0.500924 0.892079,1.156508 -2.047887,3.248325 -4.548949,3.236625 -4.883254,5.003517 -0.433347,2.290356 4.061878,-2.476576 4.730467,-2.483906 4.261108,-0.04672 -0.277042,1.438565 0.03975,1.783526 1.221463,1.330062 1.059064,-0.406401 1.352407,-0.218895 0.872457,0.55768 -0.88568,1.43306 -0.0742,1.491402 2.391267,0.171922 1.365119,-0.73059 2.263828,-0.599003 3.353902,0.491071 1.05578,1.05578 1.603448,1.146011 1.88209,0.310084 0.275275,-0.825825 1.123128,-0.664521 2.830357,0.538478 2.344196,1.651837 2.449657,1.639246 2.759181,-0.32942 0.177004,-1.125797 -0.205447,-3.644553 -0.849891,-5.597237 z M 30.44113,37.468197 C 31.508751,36.660688 31.932259,36 31.382259,36 c -0.55,0 -1.873508,0.660688 -2.941129,1.468197 -1.067622,0.807508 -1.49113,1.468196 -0.94113,1.468196 0.55,0 1.873508,-0.660688 2.94113,-1.468196 z M 82.564761,307.10478 c -0.304301,-0.49236 0.183549,-1.17796 1.084111,-1.52353 1.946845,-0.74708 2.808937,-0.13102 1.892247,1.35222 -0.803677,1.30037 -2.227897,1.38235 -2.976358,0.17131 z M 80.8125,304.31689 c 0.721875,-0.28887 1.584375,-0.25335 1.916667,0.0789 0.332291,0.33229 -0.258334,0.56864 -1.3125,0.52522 -1.164943,-0.048 -1.4019,-0.28494 -0.604167,-0.60416 z M 79,302.03138 c 0,-0.53273 0.675,-0.70959 1.5,-0.39301 0.825,0.31659 1.5,0.75246 1.5,0.96862 C 82,302.82314 81.325,303 80.5,303 79.675,303 79,302.56412 79,302.03138 z m 0,-5 c 0,-0.53273 0.675,-0.70959 1.5,-0.39301 0.825,0.31659 1.5,0.75246 1.5,0.96862 C 82,297.82314 81.325,298 80.5,298 79.675,298 79,297.56412 79,297.03138 z M 78.5,291 c -0.339919,-0.55 0.05697,-1 0.881966,-1 0.825,0 1.778115,0.45 2.118034,1 0.339919,0.55 -0.05697,1 -0.881966,1 -0.825,0 -1.778115,-0.45 -2.118034,-1 z m 0.52896,-2.96094 c -0.809071,-0.51167 -1.258364,-1.14299 -0.998427,-1.40293 0.259936,-0.25993 1.345412,0.1656 2.412169,0.94563 2.13344,1.56001 0.940206,1.94598 -1.413742,0.4573 z M 79,284 c -1.292687,-0.8354 -1.266292,-0.97149 0.190983,-0.98469 0.930041,-0.008 1.969098,0.43469 2.309017,0.98469 0.782182,1.2656 -0.541628,1.2656 -2.5,0 z m 1,-4 c -0.793144,-0.49019 -1.217079,-1.11625 -0.942079,-1.39125 0.275,-0.275 1.148935,-0.0989 1.942079,0.39125 0.793144,0.49019 1.217079,1.11625 0.942079,1.39125 -0.275,0.275 -1.148935,0.0989 -1.942079,-0.39125 z m -1.409515,-5.4955 c -0.344482,-1.37253 -0.579831,-2.78472 -0.522998,-3.1382 0.05683,-0.35348 -0.497601,-1.02361 -1.232077,-1.48918 -1.071629,-0.67929 -1.039118,-0.84649 0.16459,-0.84649 1.669434,0 5.08326,1.92088 3.5,1.96937 -0.55,0.0168 -0.325,0.46684 0.5,1 1.247768,0.80637 1.163691,0.98377 -0.5,1.05497 -2,0.0856 -2,0.0856 0,0.94503 1.347314,0.57896 1.510486,0.88736 0.5,0.94503 -1.333333,0.0761 -1.333333,0.1933 0,1.05497 1.302305,0.84161 1.283644,0.97139 -0.141592,0.98469 -0.923306,0.009 -1.915646,-1.07661 -2.267923,-2.48019 z M 76,266.13867 c 0,-1.50481 0.526727,-1.74997 2.75,-1.27994 l 2.75,0.58138 -2.5,0.40455 c -2.323567,0.376 -2.358854,0.46137 -0.5,1.20966 1.897981,0.76404 1.885228,0.80869 -0.25,0.87539 -1.552631,0.0485 -2.25,-0.50661 -2.25,-1.79104 z"
     id="path4594"
     inkscape:connector-curvature="0" />
</svg>
