<?xml version="1.0" encoding="UTF-8" standalone="no"?>
<!-- Created with Inkscape (http://www.inkscape.org/) -->

<svg
   xmlns:dc="http://purl.org/dc/elements/1.1/"
   xmlns:cc="http://creativecommons.org/ns#"
   xmlns:rdf="http://www.w3.org/1999/02/22-rdf-syntax-ns#"
   xmlns:svg="http://www.w3.org/2000/svg"
   xmlns="http://www.w3.org/2000/svg"
   xmlns:sodipodi="http://sodipodi.sourceforge.net/DTD/sodipodi-0.dtd"
   xmlns:inkscape="http://www.inkscape.org/namespaces/inkscape"
   id="svg14352"
   version="1.1"
   inkscape:version="0.48.4 r9939"
   width="280"
   height="201"
   sodipodi:docname="Rope.png">
  <metadata
     id="metadata14358">
    <rdf:RDF>
      <cc:Work
         rdf:about="">
        <dc:format>image/svg+xml</dc:format>
        <dc:type
           rdf:resource="http://purl.org/dc/dcmitype/StillImage" />
        <dc:title></dc:title>
      </cc:Work>
    </rdf:RDF>
  </metadata>
  <defs
     id="defs14356" />
  <sodipodi:namedview
     pagecolor="#ffffff"
     bordercolor="#666666"
     borderopacity="1"
     objecttolerance="10"
     gridtolerance="10"
     guidetolerance="10"
     inkscape:pageopacity="0"
     inkscape:pageshadow="2"
     inkscape:window-width="1242"
     inkscape:window-height="725"
     id="namedview14354"
     showgrid="false"
     inkscape:zoom="1.6604697"
     inkscape:cx="165.95181"
     inkscape:cy="149.53514"
     inkscape:window-x="1"
     inkscape:window-y="22"
     inkscape:window-maximized="0"
     inkscape:current-layer="svg14352" />
  <path
     style="fill:#a58323;fill-opacity:1;stroke:none"
     d="M 156.46875 12.46875 C 139.87698 12.557151 124.07612 14.505195 109.03125 17.46875 L 103.46875 21.71875 C 101.70724 21.328696 99.42366 23.904503 98.375 19.59375 L 79.21875 27.375 L 77.09375 33.65625 L 71.96875 31.9375 L 61.75 43.4375 C 56.771411 47.281518 49.973412 49.557795 50.25 57.90625 C 45.939543 64.719809 45.72865 71.530191 50.25 78.34375 L 57.5 94.125 L 51.96875 100.5 L 43 102.625 L 40.03125 107.75 L 33.71875 112.0625 C 31.580071 116.50499 31.065752 124.2822 26.40625 125.84375 L 8.53125 146.25 C 10.446724 148.90492 16.707106 149.08307 13.625 154.59375 L 2.96875 163.9375 L 4.25 169.90625 L 13.75 180.84375 L 19.15625 182.8125 L 31.09375 178 L 31.09375 188.65625 L 43 181 L 42.59375 157.90625 L 39.1875 151.59375 C 38.3142 146.62994 36.674217 142.5574 30.25 143.9375 L 35.34375 140.53125 L 48.53125 133.28125 L 59.625 126.90625 L 73.25 113.6875 C 73.019875 125.24863 75.705696 136.14814 80.40625 150.09375 C 83.245233 153.03239 86.098517 153.30105 88.9375 153.0625 C 96.217483 160.07078 98.272746 158.4881 100.46875 158.65625 C 104.35038 162.43031 108.99195 169.004 116.75 164.53125 C 125.57166 177.14182 133.31066 178.83757 140.53125 175.4375 C 147.8316 177.4225 150.27922 178.21458 163.28125 181.625 L 181.84375 182.25 C 186.72499 183.53658 191.50072 185.27233 197.15625 182.6875 L 203.5625 183.96875 C 210.94386 182.99422 218.30614 186.58261 225.6875 181 L 239.3125 178.4375 C 241.62808 175.73285 239.56039 172.68256 246.5625 170.34375 C 248.24444 163.13439 246.99298 159.46858 245.5625 157.75 C 250.16989 159.90378 254.08465 157.19052 257.21875 149.03125 L 258.0625 140.09375 C 263.09754 140.09375 264.34807 135.576 267.5 131.84375 L 266.59375 123.90625 L 268.84375 117.40625 L 261.46875 110.28125 L 264.03125 103.0625 C 262.54886 101.33025 260.26629 100.38585 258 99.4375 L 259.34375 93.6875 L 252.96875 82.625 L 252.5 76.9375 C 248.45663 74.063668 249.33272 70.512335 251.25 66.84375 L 245.28125 50.6875 C 239.87337 45.681727 234.14385 36.542214 229.09375 36.1875 C 225.01582 31.702153 218.98894 23.821264 214.1875 29.375 C 209.36073 25.970009 201.6991 13.761454 194.1875 21.28125 C 190.07097 19.010063 186.77035 13.210767 179.59375 13.5625 C 171.73866 12.768416 164.01046 12.428568 156.46875 12.46875 z M 89.84375 41.09375 L 92.625 63.25 C 82.283527 72.900485 86.865332 83.160991 86.875 93.25 L 83.90625 95.1875 L 81.96875 84.09375 L 75.8125 84.53125 L 72.59375 74.53125 L 69.625 72.1875 C 71.011902 64.299726 67.039191 57.757813 78.78125 47.28125 C 82.579504 45.760865 86.573085 45.252078 89.84375 41.09375 z M 127.5625 53.53125 C 129.37144 53.523992 131.22322 54.045838 133.0625 54.28125 L 130.3125 57.0625 C 129.39911 61.68581 125.58449 59.925236 122.4375 56 C 124.00863 54.090231 125.75355 53.538508 127.5625 53.53125 z "
     id="path14364" />
  <path
     style="fill:#000000"
     d="m 30.889829,188.14831 c 0,-0.55 0.42659,-1 0.94798,-1 0.58808,0 0.5732,-1.0751 -0.0392,-2.83181 -0.65565,-1.88082 -0.6465,-3.72786 0.0273,-5.5 1.39711,-3.67467 1.8254,-3.34793 1.70354,1.29959 -0.15112,5.7632 1.34741,6.65141 5.07432,3.00766 2.89098,-2.82647 3.15176,-3.67337 3.80209,-12.34755 0.57763,-7.7044 0.40988,-9.87053 -0.97116,-12.54118 -1.44104,-2.78666 -1.88666,-3.04792 -3.25777,-1.91 -1.42551,1.18307 -1.51823,0.85044 -0.90424,-3.24394 0.57171,-3.81242 0.35946,-4.85602 -1.29148,-6.3501 -1.0866,-0.98335 -2.56416,-1.55226 -3.28349,-1.26424 -0.85047,0.34053 -0.69584,0.55129 0.44214,0.60262 2.13862,0.0965 2.32378,2.64479 0.25,3.44058 -2.30629,0.885 -1.80563,7.30899 1.10188,14.13837 3.66206,8.60174 4.01462,10.56527 1.16709,6.5 -4.03111,-5.75501 -6.08378,-12.37199 -5.55264,-17.89958 l 0.47425,-4.93568 -3.77059,-0.95708 c -6.18529,-1.56999 -7.81607,1.75028 -3.42359,6.97044 1.98419,2.35807 2.28474,3.36231 1.46481,4.89436 -1.16415,2.17523 -2.19657,2.57062 -1.76114,0.67446 0.15827,-0.68919 -0.722,-2.67115 -1.95616,-4.40437 -2.55876,-3.59344 -2.86304,-6.58057 -0.87304,-8.57057 1.16117,-1.16118 0.99958,-1.80255 -1.0564,-4.19276 l -2.42728,-2.82188 -2.68493,2.37133 c -4.94997,4.3718 -5.20097,5.91016 -1.12813,6.91418 1.88569,0.46485 2.38394,1.19468 2.2376,3.27758 -0.10504,1.49504 0.33702,2.69301 1,2.70998 0.65354,0.0167 0.40076,0.48908 -0.56174,1.04969 -2.87669,1.67552 -2.0391,8.9199 1.0313,8.9199 1.24826,0 1.1247,0.47116 -0.60698,2.31445 -2.98575,3.17818 -2.72402,4.02117 0.6989,2.25111 4.06234,-2.10072 4.6835,-0.74142 0.84367,1.84624 -1.76167,1.1872 -3.35592,2.95234 -3.54276,3.92254 -0.44817,2.32718 2.38195,6.54746 5.13417,7.65606 2.08235,0.83878 2.05744,0.88599 -0.49928,0.94621 -1.48004,0.0349 -2.95695,-0.36696 -3.28203,-0.89294 -0.32507,-0.52598 -1.17953,-0.7305 -1.8988,-0.45449 -0.71927,0.27601 -1.88281,-0.19106 -2.58565,-1.03792 -1.25219,-1.5088 -1.09422,-4.06045 0.49843,-8.05126 0.78804,-1.97464 0.77057,-1.97577 -1.37753,-0.0895 -3.54284,3.11105 -3.69574,0.95975 -0.21366,-3.00612 2.25831,-2.57207 3.04644,-4.29428 2.64673,-5.78358 -0.31306,-1.16646 -0.5938,-3.02084 -0.62387,-4.12084 -0.0443,-1.61906 -0.81513,-1.1588 -4.04722,2.41643 -2.74814,3.03991 -3.67041,4.73858 -2.95898,5.45 1.37966,1.37971 1.32422,5.63361 -0.0734,5.63361 -0.60884,0 -0.86059,-0.6421 -0.55944,-1.42689 0.30115,-0.78478 -0.1007,-1.96488 -0.89301,-2.62244 -2.28795,-1.89883 -1.75446,-3.23468 3.39585,-8.50323 4.23523,-4.33246 7.16359,-8.32763 7.16359,-9.77329 0,-0.25153 -1.09501,-0.73216 -2.43335,-1.06807 -4.62023,-1.1596 -4.21103,-4.2315 1.34645,-10.10771 2.79779,-2.95826 5.0869,-5.99085 5.0869,-6.7391 0,-0.74824 2.025,-2.64043 4.5,-4.20487 2.475,-1.56443 4.5,-3.39907 4.5,-4.07697 0,-0.6779 0.62501,-1.75125 1.3889,-2.38522 0.7639,-0.63398 1.90263,-3.19289 2.53052,-5.68648 0.83646,-3.3219 1.92978,-4.98446 4.09017,-6.21977 1.6217,-0.92728 3.46998,-2.94139 4.1073,-4.4758 1.40804,-3.39003 4.52037,-5.71017 7.65985,-5.71017 1.28245,0 3.68345,-1.263288 5.33555,-2.807312 l 3.00383,-2.807316 -2.19107,-5.942684 c -1.20508,-3.268476 -2.61404,-6.478351 -3.13101,-7.133057 -0.51698,-0.654706 -0.79465,-2.048075 -0.61706,-3.096376 0.1776,-1.048301 -0.29487,-2.650379 -1.04994,-3.560173 -2.46484,-2.96995 -2.62312,-10.117513 -0.30641,-13.836716 2.56436,-4.116778 4.94689,-5.604789 11.85521,-7.404176 6.45095,-1.68026 6.61528,-1.692244 5.83228,-0.425324 -0.33545,0.542774 -3.03706,1.692452 -6.00357,2.554842 -9.26822,2.694344 -13.68438,9.893559 -10.07145,16.418474 l 1.36224,2.460177 2.81124,-4.654201 c 1.68372,-2.787524 3.77746,-4.896709 5.22033,-5.258845 3.31132,-0.831088 4.00404,0.222368 1.36276,2.072397 -2.68098,1.877828 -2.86361,6.0861 -0.55783,12.853212 l 1.63185,4.789194 2.86999,-4.611055 c 1.5785,-2.536081 3.20667,-4.611243 3.61816,-4.611472 0.41149,-2.3e-4 0.86548,-2.732084 1.00887,-6.070788 0.24393,-5.679608 0.13128,-6.02929 -1.75,-5.432196 -1.10589,0.350997 -2.01071,0.188175 -2.01071,-0.361825 0,-0.55 0.84361,-1.267751 1.87469,-1.595003 1.03108,-0.327251 2.60608,-2.510121 3.5,-4.85082 2.00827,-5.258584 2.02705,-6.057093 0.12531,-5.327326 -0.825,0.316583 -1.5,0.187873 -1.5,-0.286022 0,-1.084151 2.91175,-2.248181 3.97694,-1.589859 0.43804,0.270729 1.30075,-0.11541 1.91711,-0.858087 1.82631,-2.200565 -7.2866,-5.29542 -11.22039,-3.810581 -1.63171,0.615902 -3.34998,0.88297 -3.81837,0.593484 -0.98122,-0.606424 -5.51525,4.241612 -6.39645,6.839439 -0.32649,0.9625 -1.01329,1.75 -1.52623,1.75 -1.75801,0 -0.93086,-2.702333 2.11354,-6.905002 2.23919,-3.091119 3.62996,-4.124272 5.25,-3.900039 1.6333,0.22607 2.28567,-0.270498 2.51988,-1.918095 0.33881,-2.383376 8.6078,-10.276864 10.76574,-10.276864 0.71511,0 1.57831,0.45 1.91823,1 1.13454,1.835728 2.5,1.029044 2.5,-1.476947 0,-2.8701 2.87713,-5.064094 9.20161,-7.016817 2.36412,-0.729934 6.08926,-2.091675 8.2781,-3.026091 3.51981,-1.502612 4.08948,-1.524899 4.92971,-0.192862 0.743101,1.178061 1.455351,1.275824 3.270291,0.448881 1.27616,-0.581457 2.32029,-1.641899 2.32029,-2.356538 0,-0.714638 1.9125,-1.846194 4.25,-2.514567 2.3375,-0.668374 4.80071,-1.631752 5.4738,-2.140842 0.67309,-0.509089 6.57372,-1.040506 13.11251,-1.180926 6.53879,-0.14042 12.30854,-0.514777 12.82166,-0.831904 0.51312,-0.317127 8.33749,-0.361867 17.38749,-0.09942 9.05,0.262444 18.58755,0.443236 21.19456,0.40176 5.07838,-0.08079 9.13821,1.536757 12.11626,4.82747 1.45905,1.612229 2.21978,1.816001 3.58848,0.96123 3.35907,-2.097771 8.52484,-0.07687 13.55805,5.304031 3.39539,3.629955 5.03771,4.753023 5.81456,3.976178 2.50318,-2.50318 10.47216,0.287061 12.69798,4.446043 0.71768,1.341001 2.1252,2.698546 3.12783,3.016767 2.03436,0.645683 9.60961,7.95282 13.41,12.935388 1.36101,1.784383 3.18179,5.443671 4.04617,8.131751 0.86438,2.68808 2.29416,6.319641 3.1773,8.070137 1.27694,2.531094 1.37329,3.692791 0.47056,5.674062 -0.88329,1.938599 -0.84284,2.73393 0.18231,3.584727 0.7246,0.601361 1.61412,3.329819 1.97672,6.063241 0.43606,3.28715 1.4722,5.782786 3.06025,7.370827 2.82414,2.824148 4.29411,9.003034 2.62133,11.018603 -0.87362,1.052652 -0.78357,1.508596 0.38666,1.957648 0.83903,0.32197 1.52552,1.274515 1.52552,2.116785 0,1.71934 -1.12222,1.99105 -2.55,0.61739 -0.5225,-0.50269 -2.27773,-1.06519 -3.90052,-1.25 -2.45037,-0.27905 -3.05251,0.0878 -3.55219,2.16399 -0.53539,2.22461 -0.11834,2.6857 3.78602,4.18581 2.41322,0.92719 5.02809,1.44006 5.81082,1.1397 1.6884,-0.6479 2.89412,-4.72648 1.88158,-6.36481 -0.46156,-0.74682 -0.0584,-1.02699 1.14438,-0.79535 2.67984,0.51609 2.89921,3.64099 0.48484,6.90659 l -2.08914,2.82571 2.06555,1.44677 c 1.38448,0.96973 1.69083,1.67837 0.92909,2.14914 -0.62505,0.38631 -1.8956,0.0376 -2.82344,-0.775 -2.94563,-2.57963 -7.98556,-4.71856 -11.11828,-4.71856 -2.37986,0 -3.16227,0.52461 -3.6438,2.44316 -0.71573,2.8517 0.0922,4.55685 2.15911,4.55685 0.83552,0 1.72939,-1.31707 2.07848,-3.06251 0.40284,-2.01422 0.95025,-2.72475 1.59924,-2.07576 0.64898,0.64898 0.62046,2.03743 -0.0833,4.05632 -0.94665,2.71556 -0.81682,3.21001 1.12577,4.28728 4.73369,2.62511 12.69582,1.91596 12.69582,-1.13076 0,-1.395 0.52172,-1.7509 2,-1.36432 2.08733,0.54585 2.61302,1.79285 1.13967,2.70343 -1.44585,0.89358 -2.25665,9.74044 -1.02834,11.22046 0.85927,1.03537 0.3377,2.11683 -2.28656,4.74109 -1.86988,1.86988 -3.21015,3.96863 -2.97839,4.66391 0.28471,0.85412 -0.26216,1.08539 -1.68605,0.71304 -1.75855,-0.45987 -2.21097,8.4e-4 -2.73291,2.78299 -0.6917,3.68712 -2.72954,5.89076 -6.23859,6.74618 -1.53252,0.37359 -2.50644,0.0546 -2.89075,-0.94696 -0.46808,-1.2198 -1.03346,-1.02088 -2.93883,1.03398 -2.68844,2.89936 -3.02046,4.09934 -0.91018,3.28955 0.93649,-0.35937 1.26464,-0.0754 0.92768,0.80267 -0.58478,1.5239 2.98112,3.0543 4.67598,2.00682 0.58885,-0.36393 1.5637,-1.85548 2.16634,-3.31455 0.90134,-2.18226 1.17117,-2.3337 1.52111,-0.85369 0.23398,0.98954 -0.32684,2.94725 -1.24626,4.35045 -1.70475,2.60178 -3.19815,2.73557 -9.24134,0.82791 -2.21992,-0.70076 -2.2291,-0.66558 -0.75,2.87439 1.71355,4.10111 1.79788,4.64808 0.71666,4.64808 -0.42942,0 -1.31115,-1.40516 -1.9594,-3.12257 -0.91995,-2.43721 -1.57165,-2.96102 -2.96924,-2.38654 -0.98483,0.40481 -2.6906,0.988 -3.7906,1.29598 -1.83701,0.51433 -1.87776,0.40573 -0.5,-1.33257 1.32383,-1.67026 1.09094,-1.63792 -1.98291,0.27532 -1.9156,1.19232 -3.62292,2.58786 -3.79404,3.10122 -0.17112,0.51336 1.23032,2.56778 3.11431,4.56539 2.45502,2.60307 3.93046,3.43823 5.20808,2.94796 1.22243,-0.46909 1.55542,-0.3164 1.05959,0.48587 -0.90058,1.45717 -0.35552,1.46901 2.73805,0.0595 2.90984,-1.32581 5.15942,-5.13765 4.32118,-7.32208 -0.33085,-0.86212 -0.21379,-1.56748 0.26011,-1.56748 2.98858,0 1.53961,7.06876 -1.88772,9.20916 -1.12017,0.69957 -2.03668,2.03103 -2.03668,2.95881 0,2.33691 -4.18697,5.40125 -10.03323,7.34307 -5.13963,1.70711 -9.68145,1.70179 -9.1657,-0.0107 0.16558,-0.54983 -1.11989,-1.29031 -2.85661,-1.64551 -3.74386,-0.76573 -14.94446,0.10299 -14.94446,1.15906 0,1.28266 5.34185,1.85168 9.75,1.03858 3.15009,-0.58104 4.25,-0.46065 4.25,0.46517 0,2.72769 -10.63508,3.36844 -16.34065,0.98449 -6.04245,-2.52469 -10.12207,-6.93352 -13.14639,-14.20726 -3.54858,-8.53463 -4.25212,-9.33066 -6.06995,-6.86787 -0.78229,1.05985 -1.73169,1.61765 -2.10978,1.23957 -0.37808,-0.37809 0.59696,-2.02804 2.16677,-3.66657 1.56981,-1.63853 2.60696,-3.22638 2.30477,-3.52856 -0.55141,-0.55141 -9.75831,6.01279 -10.92977,7.79254 -0.38471,0.58448 -0.87118,0.55122 -1.26532,-0.0865 -0.35218,-0.56984 1.85148,-2.98038 4.89702,-5.35676 5.05877,-3.94728 5.34098,-4.36954 3.26532,-4.88577 -2.42104,-0.60213 -9.09891,3.86858 -10.24685,6.86007 -0.87103,2.26986 2.4251,10.68898 5.77664,14.75497 4.61885,5.60348 14.31502,9.49707 16.1712,6.4937 0.32507,-0.52598 1.28652,-0.68944 2.13656,-0.36325 1.38831,0.53274 1.38523,0.75335 -0.0303,2.16889 -1.79861,1.79861 -8.34206,1.88319 -11.58111,0.14971 -1.14054,-0.6104 -2.87409,-0.85579 -3.85233,-0.54531 -0.97824,0.31049 -4.80187,0.60987 -8.49696,0.66531 -5.64341,0.0847 -7.34012,-0.31069 -10.60454,-2.47099 -2.13741,-1.41447 -4.69381,-3.93893 -5.68088,-5.6099 -1.45765,-2.46761 -2.45838,-3.0402 -5.32906,-3.04914 -1.94391,-0.006 -5.33439,-0.28626 -7.53439,-0.6227 l -4,-0.61169 2.19058,2.2855 c 1.61425,1.6842 3.66399,2.40769 7.79092,2.74992 6.06101,0.50263 7.18906,2.47984 1.72353,3.02095 -4.27169,0.42292 -11.92888,-3.11078 -13.31023,-6.1425 -0.83462,-1.8318 -3.0227,-3.10256 -8.68596,-5.04449 -4.16366,-1.42772 -7.74992,-2.41623 -7.96947,-2.19668 -0.21955,0.21954 0.34906,1.54112 1.26356,2.93683 2.06109,3.14561 9.06319,6.63587 13.31279,6.63587 3.12636,0 4.37554,1.43625 1.95186,2.24414 -2.52343,0.84114 -10.18556,-1.32557 -13.42487,-3.79631 -1.8425,-1.40535 -4.18018,-4.17336 -5.19485,-6.15115 -1.14422,-2.23032 -2.11469,-3.15937 -2.55537,-2.44633 -0.99447,1.60909 -7.14237,1.43378 -10.49365,-0.29924 -1.54101,-0.79689 -3.55404,-2.59689 -4.47339,-4 -1.15593,-1.76418 -2.566201,-2.55113 -4.571781,-2.55113 -1.61872,0 -4.18659,-1.08241 -5.81147,-2.44965 -1.79283,-1.50857 -3.66916,-2.25146 -4.88411,-1.93374 -3.18085,0.83181 -6.26997,-2.60712 -9.54716,-10.62829 -2.40544,-5.88748 -3.10673,-9.20423 -3.28046,-15.51491 -0.12154,-4.41463 -0.74061,-8.99754 -1.37572,-10.18426 -0.63511,-1.18672 -1.15475,-3.06069 -1.15475,-4.16439 0,-2.79163 -1.19743,-3.25398 -4.85346,-1.87398 -3.42134,1.29142 -3.6798,1.8843 -2.10455,4.82767 0.85476,1.59714 1.4092,1.75045 3.08565,0.85324 1.12401,-0.60155 2.27616,-0.86122 2.56034,-0.57704 0.66594,0.66594 -7.20944,8.64535 -8.53264,8.64535 -0.55082,0 -2.35149,1.35 -4.00149,3 -1.65,1.65 -3.93462,3 -5.07693,3 -1.1423,0 -2.07692,0.64232 -2.07692,1.42738 0,1.66632 -9.66874,6.48233 -14.63065,7.28753 -4.36987,0.70914 -6.72128,-1.32858 -8.38336,-7.26497 -0.68525,-2.44747 -1.55899,-4.44994 -1.94164,-4.44994 -1.8374,0 -5.04435,4.92189 -5.04435,7.74187 0,4.73917 7.41848,9.6261 9.5,6.25813 1.1321,-1.83177 5.55959,-1.03132 8.04546,1.45455 1.51553,1.51553 2.45454,3.60262 2.45454,5.45559 0,1.65057 1.17038,4.70853 2.60084,6.79545 2.4941,3.63869 2.57436,4.18429 1.95556,13.29441 -0.70616,10.39617 -1.80977,12.8458 -7.54623,16.75 -3.50357,2.38451 -6.01017,2.90583 -6.01017,1.25 z M 178.1779,181.30159 c 1.59863,-0.63135 1.47318,-1.00784 -1.18421,-3.55378 -1.63475,-1.56619 -3.94143,-5.37929 -5.12596,-8.47356 -1.18452,-3.09427 -2.55968,-6.64985 -3.05591,-7.90131 l -0.90223,-2.27536 -3.97004,2.02536 c -4.16597,2.12532 -6.07736,2.53102 -6.00873,1.27537 0.0225,-0.4125 2.22258,-1.77215 4.88898,-3.02145 4.71016,-2.20687 7.57779,-6.22855 4.44123,-6.22855 -2.06986,0 -6.45149,3.06108 -5.82729,4.07104 0.2897,0.46875 -1.28916,1.77867 -3.50859,2.91094 -2.21943,1.13227 -4.03532,2.19436 -4.03532,2.36021 0,0.16584 0.7173,2.40669 1.594,4.97967 1.42462,4.18102 1.92937,4.69406 4.75,4.82797 3.02316,0.14353 3.04025,0.16737 0.406,0.56642 -1.5125,0.22913 -2.75,0.74843 -2.75,1.15401 0,1.03025 6.17962,6.76805 8,7.42802 2.15454,0.78113 10.18289,0.68639 12.28807,-0.145 z m 58.01982,-3.2477 c 3.04832,-1.38891 3.30307,-2.15364 1.27744,-3.83476 -1.10246,-0.91496 -2.84998,-0.67314 -7.9184,1.09576 -5.43881,1.89815 -6.35841,2.54138 -5.61617,3.92827 0.72934,1.36278 1.66111,1.51395 5.2263,0.8479 2.38629,-0.44581 5.55016,-1.36254 7.03083,-2.03717 z m -24.43289,0.46942 c 1.71875,-0.34375 3.125,-1.02265 3.125,-1.50866 0,-0.48601 -1.28781,-2.66143 -2.86181,-4.83427 -1.574,-2.17284 -3.43335,-5.33043 -4.13189,-7.01687 -1.02534,-2.47539 -1.67673,-2.93719 -3.38035,-2.39648 -1.86066,0.59055 -1.95011,0.47679 -0.75623,-0.96174 1.44845,-1.74527 0.89587,-4.65698 -0.88379,-4.65698 -0.59226,0 -2.22911,1.15227 -3.63745,2.56061 -3.14443,3.14443 -4.54018,2.3368 -1.51909,-0.879 2.59418,-2.76138 2.66622,-3.27745 0.56977,-4.08193 -0.88046,-0.33787 -3.34475,0.36583 -5.47619,1.56377 -3.34447,1.8797 -3.78997,2.5314 -3.25208,4.75731 1.1841,4.90004 6.4725,15.06626 8.61973,16.57024 2.24225,1.57054 8.20996,1.95888 13.58438,0.884 z m 16.34937,-4.01799 5.85559,-1.643 -1.99113,-2.11946 c -1.09513,-1.1657 -2.91283,-4.2031 -4.03934,-6.74977 -2.02219,-4.57149 -4.26557,-6.4473 -6.24649,-5.22302 -0.66103,0.40853 -0.60587,0.88204 0.15772,1.35397 0.74577,0.46091 0.0432,1.19421 -1.9253,2.0096 -3.80587,1.57644 -4.96171,0.69569 -2.56398,-1.95377 1.73916,-1.92175 1.71223,-2.01123 -0.90456,-3.00613 -3.49478,-1.32872 -3.58524,-1.31879 -5.73814,0.62956 -2.61177,2.36362 -2.30121,4.15624 1.79449,10.35836 5.8078,8.79473 6.23969,8.97035 15.60114,6.34366 z m -74.26826,-3.60701 c -0.0957,-2.72496 -2.93164,-9.1568 -4.3997,-9.97837 -0.85602,-0.47906 -1.55641,-1.97365 -1.55641,-3.32132 0,-1.78364 -0.54415,-2.45031 -2,-2.45031 -2.10908,0 -2.69104,-1.45488 -1,-2.5 0.55,-0.33992 1,-1.50185 1,-2.58207 0,-1.87158 -0.11916,-1.88596 -2.53121,-0.30552 -3.58154,2.34671 -4.54257,0.66689 -1.16349,-2.03371 2.44117,-1.951 2.60944,-2.40457 1.29639,-3.4943 -1.22514,-1.01678 -2.07157,-0.91991 -4.50091,0.51514 -1.64561,0.97209 -2.79407,2.08771 -2.55214,2.47916 0.24193,0.39145 -0.21813,0.96423 -1.02236,1.27284 -2.45975,0.9439 -2.81318,-1.29864 -0.49989,-3.17182 1.7916,-1.45076 1.93799,-1.9644 0.82345,-2.88938 -1.00805,-0.83661 -1.77609,-0.81743 -2.99628,0.0748 -1.48781,1.08791 -1.51189,1.9425 -0.25834,9.16731 0.76034,4.38216 2.33507,10.3186 3.49941,13.1921 1.90394,4.69876 2.48372,5.28412 5.76118,5.81659 2.0043,0.32563 4.31919,0.73488 5.14419,0.90946 3.74024,0.79145 6.99698,0.46345 6.95611,-0.70059 z m -19.50722,-3.5 c -1.47141,-3.36558 -4.3341,-14.77399 -4.39124,-17.5 -0.0317,-1.5125 -0.5434,-2.75 -1.13711,-2.75 -0.67915,0 -0.8351,-1.11251 -0.42054,-3 0.57233,-2.60579 0.37702,-3 -1.48629,-3 -1.17985,0 -3.05415,-0.48646 -4.1651,-1.08102 -3.25709,-1.74314 -3.43288,-0.13826 -0.33862,3.09145 3.25756,3.40015 2.06918,4.10945 -1.42735,0.85194 -4.24249,-3.95249 -5.1885,0.99541 -2.48185,12.98083 l 1.6008,7.08852 5.1492,1.89664 c 2.83207,1.04316 5.82421,2.14799 6.64921,2.45519 2.66254,0.99145 3.22958,0.75213 2.44889,-1.03355 z m -19.79366,-3.01576 c 0.70143,-0.44636 -1.55726,-2.18888 -5.75,-4.43595 -6.94568,-3.7225 -9.260081,-3.27962 -4.65523,0.89083 4.34734,3.93723 7.89149,5.14474 10.40523,3.54512 z m 1.87349,-5.98424 c -0.40313,-2.0625 -1.03799,-6 -1.4108,-8.75 -0.75774,-5.58946 -1.54575,-7.22351 -4.68552,-9.71611 -1.18893,-0.94385 -2.72719,-3.08135 -3.41836,-4.75 -0.88866,-2.14542 -1.93599,-3.03389 -3.57634,-3.03389 -3.543371,0 -3.600631,1.17208 -0.35805,7.32916 3.61033,6.85535 2.14475,7.61035 -1.7875,0.92084 l -2.792151,-4.75 -0.25401,4 c -0.13971,2.2 0.33268,6.25 1.04975,9 1.244401,4.77235 1.642551,5.1935 8.744941,9.25 4.09264,2.3375 7.84163,4.25 8.33109,4.25 0.49198,0 0.56217,-1.67682 0.15695,-3.75 z m 46.02691,-9.19622 c -1.3434,-1.40458 -3.63657,-5.1644 -5.09592,-8.35515 -1.45935,-3.19075 -3.69841,-6.84642 -4.97569,-8.1237 -1.27728,-1.27728 -3.4486,-4.54493 -4.82516,-7.26144 -3.38098,-6.67204 -5.23161,-8.16931 -7.40768,-5.99324 -0.96712,0.96711 -1.60677,3.11858 -1.54762,5.20537 0.0834,2.94368 -0.14093,3.35629 -1.30137,2.39321 -0.7712,-0.64005 -1.40219,-2.61791 -1.40219,-4.39525 0,-3.0348 -3.69416,-8.54681 -5.70225,-8.50827 -3.74036,0.0718 -4.1464,10.54718 -0.68244,17.60648 1.73354,3.53284 9.72887,10.36736 10.83463,9.2616 0.2622,-0.26219 -0.176,-2.64554 -0.97377,-5.29632 -1.39672,-4.64095 -1.20855,-7.15774 0.45815,-6.12767 0.43786,0.27062 1.06026,2.11979 1.38311,4.10928 0.65031,4.00738 5.28213,10.79684 6.74775,9.89104 0.51415,-0.31777 0.93482,-0.11854 0.93482,0.44272 0,0.56126 1.82317,1.5114 4.0515,2.11143 2.22832,0.60002 4.30047,1.73978 4.60478,2.5328 0.30431,0.79301 0.95614,1.19287 1.4485,0.88857 0.49237,-0.3043 0.89522,-0.0996 0.89522,0.45485 0,0.55447 -1.575,2.20944 -3.5,3.67771 -1.925,1.46827 -3.5,3.53167 -3.5,4.58535 0,1.63043 0.89349,1.28566 5.9991,-2.31492 l 5.9991,-4.23067 -2.44257,-2.55378 z m 68.93729,8.95767 c 0.35034,-0.56686 -0.0511,-0.7345 -0.94098,-0.39301 -1.73242,0.66479 -2.04939,1.38156 -0.61096,1.38156 0.51754,0 1.21592,-0.44485 1.55194,-0.98855 z M 98.889829,156.37082 c 0,-0.42763 -0.70052,-1.77763 -1.5567,-3 -0.85619,-1.22238 -1.1126,-2.22251 -0.56981,-2.22251 0.64721,0 0.65055,-1.11864 0.01,-3.25 -0.53746,-1.7875 -0.89164,-6.175 -0.78706,-9.75 0.29219,-9.9882 0.28846,-10 -3.16351,-10 -3.42588,0 -3.42847,-0.14625 0.16703,9.4404 1.0191,2.71721 1.66997,5.12332 1.44639,5.3469 -0.54277,0.54277 -3.97339,-6.35355 -5.48366,-11.02337 -1.72312,-5.32799 -3.52316,-6.08726 -2.76669,-1.16701 0.33005,2.14669 0.91942,4.98595 1.30973,6.30945 0.51374,1.74207 0.37903,2.20205 -0.48797,1.66621 -1.23013,-0.76026 -1.13705,0.0415 0.99699,8.58681 1.11221,4.45488 5.92118,9.84061 8.78647,9.84061 1.15433,0 2.09879,-0.34987 2.09879,-0.77749 z m 76.127561,-0.88623 c 1.24448,-1.5086 1.16266,-1.55194 -0.87756,-0.46482 -2.32696,1.23991 -2.89993,2.12854 -1.37244,2.12854 0.48265,0 1.49515,-0.74867 2.25,-1.66372 z m 59.87244,-1.42532 c -3.9462,-1.12325 -5,-1.01455 -5,0.51572 0,1.85171 2.95256,2.50114 5.5,1.20976 1.91695,-0.97177 1.89619,-1.04342 -0.5,-1.72548 z m -9.91394,0.54453 2.98675,-1.5445 -2.1045,-2.9555 c -2.25902,-3.17249 -2.71054,-3.26933 -10.74444,-2.30441 -5.0647,0.6083 -5.20876,0.70813 -3.59501,2.49131 0.92461,1.02168 2.51137,1.85761 3.52613,1.85761 1.01475,0 1.73251,0.52266 1.59501,1.16147 -0.1375,0.63882 0.875,1.49396 2.25,1.90032 1.375,0.40637 2.63485,0.78371 2.79966,0.83853 0.16481,0.0548 1.64369,-0.59535 3.2864,-1.44483 z m -69.70107,-2.3284 c 1.60528,-1.77382 1.57785,-1.90355 -0.51855,-2.45177 -2.91325,-0.76183 -3.79366,-0.11303 -3.15593,2.32568 0.65092,2.48911 1.50931,2.51857 3.67448,0.12609 z m 49.15832,0.80283 c 0.36374,-0.58854 1.49694,-1.37918 2.51823,-1.75698 1.05156,-0.389 1.5493,-1.17314 1.14767,-1.80804 -0.47776,-0.75526 -2.83045,-0.90647 -7.20921,-0.46337 l -6.5,0.65777 4,2.17615 c 4.65202,2.53088 5.15582,2.63046 6.04331,1.19447 z m 5.65669,-0.12992 c -0.93333,-0.93333 -1.46667,-0.93333 -2.4,0 -0.93333,0.93333 -0.66667,1.2 1.2,1.2 1.86667,0 2.13333,-0.26667 1.2,-1.2 z m -123.595451,-2.55 c -1.38179,-4.56055 -2.55798,-11.08944 -2.5801,-14.32186 -0.0336,-4.90357 -2.90026,-12.92814 -4.61845,-12.92814 -1.75978,0 -1.75298,0.53833 0.0832,6.59107 1.7383,5.73013 1.8393,6.72997 0.60266,5.96569 -0.4995,-0.30871 -1.48457,-2.81027 -2.18905,-5.55902 -0.70449,-2.74876 -1.68804,-4.99774 -2.18568,-4.99774 -2.5448,0 3.30682,21.15898 6.97152,25.20843 2.11366,2.33557 4.61903,2.36216 3.91592,0.0416 z m 106.207291,0.0115 c -0.18414,-0.95618 -1.22964,-1.89986 -2.32332,-2.09706 -1.09369,-0.1972 -2.43852,-0.82609 -2.98852,-1.39753 -0.68464,-0.71133 -0.29592,-0.86935 1.23265,-0.50109 2.00676,0.48347 2.12121,0.32017 1.1312,-1.61396 -3.02573,-5.91116 -10.30499,-17.77306 -11.53132,-18.79083 -1.76323,-1.46335 -6.08788,0.30663 -7.03765,2.88034 -0.35695,0.96726 -0.96503,1.98365 -1.3513,2.25865 -0.38626,0.275 0.54762,2.975 2.0753,6 1.52769,3.025 3.48155,6.97714 4.34193,8.78253 1.85319,3.88869 6.36026,6.12308 12.46251,6.17833 3.5795,0.0324 4.26572,-0.25997 3.98852,-1.69938 z m 51.9649,-0.52159 c 0.98632,-0.79506 0.64513,-1.41432 -1.5,-2.72246 -1.52721,-0.93132 -3.36001,-2.39988 -4.0729,-3.26346 -1.17228,-1.42006 -1.84137,-1.37898 -7,0.4298 -3.13711,1.09997 -5.85538,2.14766 -6.0406,2.32819 -0.65757,0.64092 4.93677,3.7629 8.11181,4.52687 3.6152,0.8699 8.57165,0.25684 10.50169,-1.29894 z m -73.90391,-9.48991 c -7.21942,-15.50819 -7.21693,-15.50451 -10.71991,-15.888 -6.12786,-0.67085 -6.09583,4.17729 0.10992,16.638 3.43411,6.89547 7.44147,9.99528 12.92576,9.99845 l 2.68861,0.002 -5.00438,-10.75 z m 85.85141,6.07869 c 0.24807,-0.74511 -0.35856,-0.97557 -1.66714,-0.63337 -1.1314,0.29587 -2.0571,0.96845 -2.0571,1.49464 0,1.32759 3.24537,0.57706 3.72424,-0.86127 z m -50.72424,-0.36193 c 0,-2.57702 -5.22551,-10.93777 -8.9252,-14.28022 -4.54731,-4.10822 -6.80509,-4.53527 -10.05678,-1.90221 l -2.20355,1.78432 3.27156,5.46568 c 1.79935,3.00612 3.87647,6.47817 4.61581,7.71567 1.15453,1.93243 2.18786,2.25 7.32121,2.25 3.44617,0 5.97695,-0.4375 5.97695,-1.03324 z m 15.21344,-0.85706 c 1.10595,-0.9868 -9.14683,-15.1097 -10.96917,-15.1097 -1.84196,0 -6.24427,3.81305 -6.24427,5.40846 0,0.58291 1.21858,3.3873 2.70796,6.23197 l 2.70796,5.17214 5.54204,-0.53315 c 3.04812,-0.29323 5.86309,-0.8196 6.25548,-1.16972 z m 34.06246,-2.15253 c 3.06949,-1.43948 3.10669,-2.62721 0.14389,-4.59443 -1.63992,-1.08887 -2.44696,-1.06128 -4.8095,0.16442 -4.35558,2.2597 -5.45133,1.74246 -2.11029,-0.99616 3.89134,-3.1897 2.8967,-3.17084 -2.87405,0.0545 -5.2963,2.96017 -5.70362,4.29738 -1.99451,6.54794 2.78196,1.68799 6.29315,1.33331 11.64446,-1.17626 z m -20.96926,-1.13076 c 1.69662,-0.8991 1.6425,-1.24267 -0.88879,-5.64191 -5.26664,-9.15312 -6.75552,-9.80181 -12.91052,-5.62491 -3.55991,2.41582 -3.74151,2.4439 -3.23316,0.5 0.29622,-1.13278 0.15728,-2.05959 -0.30877,-2.05959 -2.32809,0 -1.47596,2.37712 3.14359,8.76941 l 5.07262,7.01923 3.65919,-1.00242 c 2.01256,-0.55133 4.47219,-1.43324 5.46584,-1.95981 z M 115.97524,139.7011 c 0.50302,0.31088 0.91459,0.12549 0.91459,-0.41199 0,-0.53747 0.27247,-1.68727 0.60549,-2.55511 0.50394,-1.31325 0.0427,-1.47059 -2.75,-0.93815 -4.40599,0.84002 -4.5009,0.9818 -2.2916,3.42306 1.053,1.16355 2.04429,1.60487 2.24594,0.9999 0.19855,-0.59563 0.77256,-0.8286 1.27558,-0.51771 z m -80.012371,-2.57653 c -2.18088,-7.54051 -4.74469,-13.8763 -5.51852,-13.63759 -2.85113,0.87949 -2.35649,10.56698 0.7383,14.45959 1.40087,1.762 5.33205,1.086 4.78022,-0.822 z m 94.287281,0.56357 c -1.14658,-0.8031 -2.58554,-2.7156 -3.19769,-4.25 -1.15196,-2.88746 -3.36099,-14.51294 -3.32018,-17.47313 0.0398,-2.88911 -2.50793,-4.20365 -6.11234,-3.15374 -3.14813,0.91701 -3.22136,1.06647 -2.88542,5.88897 0.6557,9.41258 6.37129,18.68842 12.15531,19.72687 4.92778,0.88471 5.49909,0.75908 3.36032,-0.73897 z m 113.61167,-0.52554 c 2.14077,-1.09214 4.10626,-2.33189 4.36776,-2.755 0.73483,-1.18899 -3.15119,-5.49386 -4.31181,-4.77656 -0.56537,0.34942 -1.02794,-0.14332 -1.02794,-1.09497 0,-2.65975 -3.01522,-5.38776 -5.95499,-5.38776 -3.18794,0 -5.04501,1.658 -5.04501,4.50422 0,2.49783 5.49297,11.49578 7.01781,11.49578 0.58403,0 2.81341,-0.89357 4.95418,-1.98571 z m 21.47153,-3.01337 c 1.42981,-1.4298 1.8836,-3.08375 1.69998,-6.19586 -0.29839,-5.05706 -0.38773,-5.17971 -3.13715,-4.30707 -2.04184,0.64805 -2.05748,0.74414 -0.32694,2.00954 2.80294,2.04956 0.88537,2.83589 -2.5648,1.05174 l -3.07125,-1.58821 -2.59387,4.10895 c -3.37402,5.34479 -2.54053,6.06696 1.4353,1.2436 3.48632,-4.22952 4.47335,-2.31992 1.05023,2.03188 -1.13575,1.44386 -1.75617,3.12488 -1.37872,3.7356 0.97359,1.5753 6.52811,0.26894 8.88722,-2.09017 z m -219.222451,0.38476 c 2.90538,-1.50243 2.98858,-1.68801 1.20034,-2.67741 -1.05677,-0.5847 -2.50853,-1.77075 -3.22613,-2.63568 -2.4577,-2.96229 -6.17574,-11.57142 -6.18551,-14.32259 -0.0103,-2.90274 -1.74946,-3.61031 -3.80977,-1.55001 -1.78647,1.78649 -1.45493,7.74594 0.7947,14.28461 3.11682,9.05919 4.91522,10.1647 11.22637,6.90108 z m 68.603021,-1.2558 c 1.08564,-0.68832 1.03922,-1.52127 -0.25782,-4.62552 -2.21979,-5.3127 -3.13512,-14.11402 -1.6535,-15.89926 0.91363,-1.10086 0.90935,-1.59701 -0.0187,-2.17059 -0.76271,-0.47138 -0.9419,-0.32096 -0.48954,0.41097 1.05287,1.70359 -1.29849,1.40338 -3.09732,-0.39544 -4.90531,-4.90531 -7.05119,4.81367 -3.28521,14.87916 1.16339,3.10943 3.0845,6.3324 4.26914,7.16216 2.47929,1.73656 2.74259,1.77365 4.53297,0.63852 z m 89.17042,-2.37143 c 1.81095,-2.23643 1.80561,-2.24438 -2.33971,-3.48482 -6.98705,-2.09078 -8.28108,-1.66449 -4.48153,1.47637 1.8297,1.5125 3.47673,3.0875 3.66006,3.5 0.53961,1.21411 1.23654,0.88528 3.16118,-1.49155 z m 50.04777,-3.30207 c 3.63564,-3.75103 3.64499,-3.70814 -1.43892,-6.60353 -1.43717,-0.8185 -2.08678,-0.74982 -2.68153,0.28349 -0.43169,0.75001 -1.44086,2.2451 -2.24259,3.32241 -1.28624,1.72837 -1.26489,2.22454 0.18153,4.21857 0.90158,1.24291 1.88845,2.27397 2.19306,2.29126 0.30461,0.0173 2.09941,-1.56321 3.98845,-3.5122 z m -198.867121,0.8851 c 1.76099,-1.59367 1.71726,-1.72869 -1.11865,-3.45331 -3.28693,-1.9989 -6.05651,-9.34739 -6.05651,-16.06968 0,-2.10018 -0.3375,-3.76521 -0.75,-3.70008 -2.15479,0.34023 -2.42339,-0.2764 -0.69113,-1.58662 1.79878,-1.36052 1.80946,-1.47053 0.14568,-1.5 -0.9875,-0.0175 -2.9,1.07275 -4.25,2.42275 -1.96374,1.96373 -2.45455,3.47336 -2.45455,7.54966 0,5.27774 1.49769,9.17347 5.66895,14.7458 2.75013,3.67387 6.50971,4.30328 9.50621,1.59148 z m 48.220911,-2.59148 c -0.83337,-2.3375 -1.66891,-7.54039 -1.85675,-11.56198 -0.24298,-5.20213 -0.84762,-7.87121 -2.095411,-9.25001 -4.35073,-4.8075 -5.88078,0.11407 -3.82453,12.30199 1.70568,10.10997 3.23963,12.95182 5.830431,10.80165 1.29192,-1.07219 1.55019,-1.01623 1.55019,0.33591 0,0.89234 0.43004,1.62244 0.95564,1.62244 0.5256,0 0.2738,-1.9125 -0.55957,-4.25 z m 68.64749,-1.47164 c 1.12102,-0.29316 1.89607,-0.95946 1.72233,-1.48068 -0.38375,-1.15125 -0.46619,-1.14672 -4.45893,0.24516 -2.95476,1.03003 -3.10791,1.29993 -2.05228,3.61679 1.1366,2.49455 1.1437,2.49574 1.94571,0.32771 0.44272,-1.19679 1.72214,-2.41583 2.84317,-2.70898 z m 11.95644,2.72164 c -0.5887,-1.1 -1.50453,-2 -2.03518,-2 -0.53065,0 -0.96482,-0.49814 -0.96482,-1.10699 0,-0.60884 0.63776,-0.86226 1.41724,-0.56314 1.63802,0.62857 2.78689,-1.63435 1.94439,-3.82987 -0.77009,-2.00682 -1.69863,-1.89008 -3.84678,0.4836 -1.73362,1.91561 -1.71322,2.10387 0.59501,5.49316 2.54938,3.7434 4.67904,4.86583 2.89014,1.52324 z m -29.81343,-9.25 c -1.69148,-2.58652 -3.18676,-3.75 -4.81946,-3.75 -2.79478,0 -2.9353,0.74379 -0.73418,3.88632 1.1022,1.57361 1.28289,2.54767 0.55593,2.99696 -0.71454,0.44161 -0.38945,1.75154 0.96598,3.89229 l 2.04297,3.22666 2.22055,-3.25112 2.22055,-3.25111 -2.45234,-3.75 z m 67.83987,7.71815 c 1.1135,-1.34169 0.94689,-1.40851 -1.34216,-0.53821 -3.50856,1.33395 -4.29794,-0.29783 -1.14383,-2.36449 1.38781,-0.90932 2.23647,-2.11739 1.88592,-2.68459 -0.39074,-0.63223 -1.49211,-0.22828 -2.84632,1.04393 -1.21492,1.14137 -2.91235,2.07521 -3.77206,2.07521 -0.8597,0 -2.0921,0.6374 -2.73865,1.41645 -0.9332,1.12444 -0.80383,1.51284 0.62756,1.884 3.87978,1.00604 8.11761,0.62797 9.32954,-0.8323 z M 84.073159,123.93164 c -0.71756,-0.71756 -1.18333,-0.7766 -1.18333,-0.15 0,1.33478 1.18261,2.51739 1.85,1.85 0.28417,-0.28416 -0.0158,-1.04916 -0.66667,-1.7 z m 122.711481,0.84342 c 0.62683,-0.75529 0.88079,-2.04795 0.56435,-2.87259 -0.48132,-1.25429 -0.96096,-1.15586 -2.93475,0.60224 -1.29767,1.15587 -2.14497,2.44853 -1.88289,2.87259 0.75325,1.21879 3.00679,0.8997 4.25329,-0.60224 z m 23.10519,0.48988 c 0,-0.92173 -4.1196,-2.33036 -4.80647,-1.6435 -0.21659,0.2166 -0.0972,0.87375 0.26535,1.46034 0.79317,1.28337 4.54112,1.43455 4.54112,0.18316 z M 93.129189,116.16119 c -1.22245,-7.85469 -1.21192,-9.36152 0.0836,-11.9584 1.26955,-2.54487 1.28099,-3.13832 0.0797,-4.13533 -1.1162,-0.926357 -1.4026,-0.791925 -1.4026,0.6584 0,2.5498 -1.74606,0.53449 -2.16532,-2.499227 -0.65668,-4.751622 -5.34932,-2.913981 -6.41424,2.511817 -0.54036,2.75319 -0.26923,3.22984 2.48653,4.37132 1.70117,0.70464 3.09303,1.72472 3.09303,2.26684 0,0.54212 -0.675,0.71252 -1.5,0.37868 -0.825,-0.33385 -2.17288,-0.87932 -2.99528,-1.21217 -1.24894,-0.50548 -1.39869,0.19471 -0.90893,4.25 1.21723,10.079 3.88204,14.35519 8.94575,14.35519 2.07693,0 2.08345,-0.084 0.69782,-8.98712 z m 154.045031,6.08283 c 2.21263,-3.74568 2.24234,-3.63489 -1.37675,-5.13397 -2.58186,-1.06944 -3.23967,-1.04819 -3.98469,0.12868 -1.34068,2.11782 -1.10842,4.04716 0.73204,6.08084 2.19859,2.42942 2.61629,2.33237 4.6294,-1.07555 z m -184.725521,0.43609 c 2.4859,-1.88023 0.71317,-1.90227 -2.55887,-0.0318 -1.60243,0.91603 -1.94032,1.44185 -0.94113,1.46456 0.85738,0.0195 2.43238,-0.62525 3.5,-1.43276 z m -2.41811,-1.69383 c 1.95105,-0.70739 2.50717,-1.46828 2.12929,-2.9133 -0.7873,-3.01064 -1.866,-3.17145 -6.25485,-0.93243 -3.59547,1.83428 -3.92959,2.2992 -2.9576,4.11538 0.73653,1.37623 1.64438,1.82461 2.76909,1.36766 0.92032,-0.37392 2.86165,-1.1107 4.31407,-1.63731 z M 169.88983,117.034 c 0,-1.9649 -3.11977,-0.71693 -4.21458,1.68592 -0.93782,2.05829 -0.89685,2.74149 0.20526,3.42263 0.9646,0.59615 1.77113,0.0913 2.69314,-1.68592 0.7239,-1.39531 1.31618,-2.9355 1.31618,-3.42263 z m 34.70116,-0.14323 c 0.43358,-3.23768 -0.0471,-3.39653 -2.58832,-0.8553 -1.03794,1.03794 -2.6312,2.30355 -3.54058,2.81247 -1.03955,0.58175 -1.40955,1.5608 -0.99658,2.63699 0.617,1.60788 0.84184,1.60364 3.70752,-0.07 1.97312,-1.15236 3.18042,-2.7504 3.41796,-4.52415 z m -10.70116,2.30414 c 0,-2.76274 -1.46166,-4.0466 -4.60699,-4.0466 -2.65289,0 -3.39301,0.40966 -3.39301,1.87803 0,2.61513 4.00167,5.15975 6.25,3.9743 0.9625,-0.50748 1.75,-1.32006 1.75,-1.80573 z m 21.73628,0.3678 c 3.00173,-1.75913 4.22848,-3.06385 3.83786,-4.08179 -0.31578,-0.8229 -0.57414,-1.68438 -0.57414,-1.91441 0,-0.23001 -1.9125,-0.36601 -4.25,-0.30221 -2.3375,0.0638 -3.4625,0.3218 -2.5,0.57334 2.48984,0.65066 2.16475,2.16458 -0.75,3.49262 -2.43474,1.10935 -3.18239,2.80232 -1.83333,4.15138 0.98552,0.98553 1.26347,0.89766 6.06961,-1.91893 z m 17.82983,-3.30743 c -0.44497,-0.71997 -1.86795,-0.15347 -4.11182,1.63695 -2.91509,2.32601 -3.16979,2.83655 -1.69283,3.39328 2.07085,0.7806 6.8411,-3.35323 5.80465,-5.03023 z m -74.36262,1.89935 c -0.93692,-1.64652 -2.52163,-2.99652 -3.52158,-3 -1.68635,-0.006 -1.6633,0.21107 0.31809,2.99368 2.94487,4.13569 5.55615,4.14084 3.20349,0.006 z m 19.77036,-1.82916 c -3.95293,-0.39533 -5.81754,1.10133 -4.04019,3.24291 1.09818,1.32322 1.61213,1.23782 4.25863,-0.70762 l 3.00972,-2.21245 -3.22816,-0.32284 z m 58.49131,3.82284 c 0.71587,0 1.53693,-0.9 1.82459,-2 0.65273,-2.49604 0.77865,-2.5199 -3.34547,0.63395 -1.89435,1.44867 -2.61998,2.34867 -1.61249,2 1.00748,-0.34867 2.4175,-0.63395 3.13337,-0.63395 z M 81.773139,112.8983 c -0.39125,-3.9875 -1.02539,-8.04323 -1.40921,-9.01273 -0.38382,-0.96951 -0.1908,-2.3737 0.42893,-3.12042 0.65708,-0.791735 0.95475,-3.600132 0.7141,-6.737262 -0.22697,-2.958771 -0.45867,-5.973381 -0.5149,-6.699134 -0.0602,-0.776844 -1.02727,-1.188126 -2.35141,-1 -1.62199,0.230444 -2.61328,1.433939 -3.55489,4.315893 -1.22743,3.756744 -1.16753,4.110764 0.99918,5.904837 2.25388,1.86626 2.25733,1.89666 0.15589,1.373688 -1.76214,-0.438529 -2.2572,0.0062 -2.75,2.470158 -0.95839,4.79191 -0.7768,5.25014 2.58306,6.51834 1.75123,0.66102 2.93864,1.44727 2.63869,1.74722 -0.29996,0.29995 -1.73278,0.0939 -3.18406,-0.45786 -2.56768,-0.97623 -2.63869,-0.89988 -2.63869,2.83716 0,4.94599 3.14016,9.11012 6.86992,9.11012 l 2.72475,0 -0.71136,-7.25001 z m 147.068811,2.98076 c 2.18627,-1.86454 3.04048,-3.30767 2.61467,-4.41731 -0.51695,-1.34715 -1.35674,-0.89424 -4.5996,2.48063 -6.40015,6.66064 -5.07275,7.95577 1.98493,1.93668 z m -89.95212,1.26925 c 0,-0.55 -0.70156,-1 -1.55902,-1 -0.85746,0 -1.2809,0.45 -0.94098,1 0.33992,0.55 1.04148,1 1.55902,1 0.51754,0 0.94098,-0.45 0.94098,-1 z m 25.5,0 c 0.33992,-0.55 -0.33508,-1 -1.5,-1 -1.16492,0 -1.83992,0.45 -1.5,1 0.33992,0.55 1.01492,1 1.5,1 0.48508,0 1.16008,-0.45 1.5,-1 z m 35.41667,-1.71703 c 0.22916,-0.15563 -0.76921,-0.28297 -2.21862,-0.28297 -1.95122,0 -2.48333,0.39599 -2.04988,1.52552 0.47723,1.24366 0.88716,1.29594 2.21861,0.28297 0.89827,-0.6834 1.82072,-1.36989 2.04989,-1.52552 z m -139.916671,-4.78622 0,-2.46259 -3.75,2.07715 c -4.98327,2.76027 -5.62723,3.46326 -4.90251,5.35186 0.54673,1.42474 1.048,1.37572 4.63279,-0.45311 3.04959,-1.55579 4.01972,-2.64505 4.01972,-4.51331 z m 84.029811,4.55894 c -1.23043,-2.29908 -1.64761,-2.56801 -5.3636,-3.45752 -3.76357,-0.90091 -2.66123,0.82653 2.14859,3.36699 4.59045,2.42458 4.46222,2.42097 3.21501,0.0905 z m 65.97019,-0.66268 c 0,-0.21615 -0.675,-0.39301 -1.5,-0.39301 -0.825,0 -1.5,0.43588 -1.5,0.96862 0,0.53273 0.675,0.70959 1.5,0.39301 0.825,-0.31659 1.5,-0.75246 1.5,-0.96862 z m -42,-0.88521 c 0,-0.14243 -1.125,-2.80277 -2.5,-5.91189 -1.375,-3.10912 -2.5,-6.48032 -2.5,-7.49155 0,-1.049705 -1.78943,-3.022784 -4.17052,-4.598515 -3.96895,-2.626524 -4.23479,-2.672043 -5.5,-0.941757 -1.85028,2.530406 -1.77897,2.889236 2.30305,11.587852 3.02805,6.45267 4.06808,7.79431 6.25,8.06238 2.44571,0.30048 6.11747,-0.12358 6.11747,-0.70652 z m -14.53296,-6.71689 c -1.90018,-3.965 -3.73524,-8.703612 -4.07792,-10.530261 -0.53009,-2.825634 -0.94132,-3.223525 -2.75609,-2.66669 -1.17317,0.35997 -2.18267,0.711089 -2.24334,0.780264 -0.17142,0.195429 1.71096,17.064987 1.92265,17.230547 0.10321,0.0807 1.23878,0.47025 2.52349,0.86562 2.14322,0.65958 2.24094,0.54157 1.18514,-1.43121 -0.63287,-1.18254 -0.98317,-2.65258 -0.77845,-3.26676 0.20473,-0.61419 0.95339,0.28633 1.66369,2.00114 1.1244,2.71453 2.29134,3.61875 5.30474,4.11044 0.39102,0.0638 -0.84374,-3.1281 -2.74391,-7.09309 z m 25.94506,1.45908 c -1.30055,-3.1625 -2.37531,-6.26143 -2.38836,-6.8865 -0.0131,-0.62508 -1.37374,-1.41258 -3.02374,-1.749995 -1.65,-0.33743 -4.35,-0.889575 -6,-1.226999 -3.66502,-0.749495 -3.76588,0.09348 -0.91095,7.613494 2.86903,7.5572 3.39054,8.00001 9.42176,8.00001 l 5.26592,0 -2.36463,-5.75001 z m 12.0362,3.5871 c -1.80139,-5.67566 -3.51608,-8.53542 -5.87465,-9.79768 -1.41551,-0.75756 -2.57365,-1.75134 -2.57365,-2.208395 0,-0.45706 -1.0862,-0.83102 -2.41378,-0.83102 l -2.41378,0 1.7774,4.749995 c 3.67986,9.83422 4.01567,10.25001 8.27806,10.25001 3.54988,0 3.84415,-0.19764 3.2204,-2.16291 z m 12.5517,0.46216 c 0,-0.93513 -3.50468,-6.8027 -4.5,-7.53395 -2.9066,-2.13544 -8.05524,0.90993 -7.02519,4.15533 1.1444,3.60566 3.00806,4.68154 7.38629,4.264 2.2764,-0.21709 4.1389,-0.61551 4.1389,-0.88538 z m 22.61683,-1.58692 3.58745,-3.28766 -1.55111,-3.71234 c -1.83432,-4.390125 -5.17486,-4.984482 -9.05469,-1.61102 -2.23735,1.94535 -2.31868,2.33452 -1.09569,5.24314 0.74739,1.77752 2.33632,3.42719 3.65912,3.799 1.60175,0.45021 1.78696,0.68857 0.58809,0.75686 -0.9625,0.0548 -1.75,0.54968 -1.75,1.09968 0,1.84167 1.99966,1.02724 5.61683,-2.28766 z m 18.38317,1.72864 c 0,-0.85746 -0.45734,-1.27636 -1.01631,-0.9309 -0.55897,0.34546 -0.75742,1.04702 -0.44098,1.55902 0.85723,1.38705 1.45729,1.12842 1.45729,-0.62812 z m -115.2731,-2.50668 c -0.77436,-1.23995 -1.38844,-1.48193 -1.85304,-0.73021 -0.46508,0.75253 -1.71471,0.26617 -3.77896,-1.47079 -3.02785,-2.54776 -6.85501,-4.30652 -7.64726,-3.51427 -0.8707,0.8707 2.7722,4.78097 4.45408,4.78097 0.98357,0 2.54436,0.83543 3.46843,1.85652 1.07167,1.18418 2.5556,1.68917 4.09752,1.39441 2.07483,-0.39663 2.25327,-0.72491 1.25923,-2.31663 z m 87.05349,1.50048 c 0.96422,-0.29771 0.774,-1.38792 -0.77033,-4.41506 -2.05297,-4.02416 -3.35181,-4.8938 -4.51006,-3.01972 -0.33992,0.55 -1.62648,1 -2.85902,1 -3.44624,0 -4.62939,1.7348 -3.46371,5.07867 0.94778,2.71881 1.22572,2.83202 5.65973,2.30533 2.56465,-0.30464 5.23917,-0.73178 5.94339,-0.94922 z m 24.91716,-0.089 c 0.70302,-1.83206 -1.27605,-10.30248 -2.75603,-11.795795 -0.59374,-0.599086 -1.40325,-0.45255 -2.19152,0.396695 -1.01119,1.08943 -0.98167,1.19364 0.15451,0.5455 1.63474,-0.932545 1.00943,0.31088 -2.53128,5.03353 -1.57854,2.10547 -1.98955,3.47411 -1.35137,4.5 0.75411,1.21224 1.27559,1.2521 2.93406,0.22427 2.96304,-1.83634 3.60326,-1.52537 1.54408,0.75 -1.7673,1.95284 -1.74663,2 0.8764,2 1.57669,0 2.94858,-0.68331 3.32115,-1.6542 z M 65.778229,109.51383 c -0.86812,-1.04602 -1.48954,-1.11151 -2.51007,-0.26455 -1.83452,1.52251 -0.84679,2.83429 1.64374,2.183 1.59615,-0.4174 1.77795,-0.82001 0.86633,-1.91845 z m -10.41515,-0.5648 c 5.15508,-2.50453 6.31285,-5.17336 1.66614,-3.84071 -4.49766,1.28992 -7.13939,2.98282 -7.13939,4.57516 0,1.88585 0.11039,1.87104 5.47325,-0.73445 z m 85.031451,-0.0507 -0.63007,-2.25 1.84209,2.28327 c 1.81566,2.25053 1.83192,2.17164 1.13383,-5.5 -0.38954,-4.280795 -0.74027,-7.895765 -0.7794,-8.033265 -0.0391,-0.13753 -0.97115,-0.25003 -2.07115,-0.25003 -1.1,0 -2,-0.45 -2,-1 0,-0.55 0.975,-1 2.16667,-1 1.19166,0 1.89699,-0.269677 1.56738,-0.599282 -0.3296,-0.329606 -2.4858,-0.280558 -4.79154,0.108994 l -4.19225,0.708277 0.65808,5.599225 c 0.98833,8.409131 1.64439,10.259801 3.97008,11.199121 3.32014,1.34097 3.80178,1.14588 3.12628,-1.26634 z m -2.0047,-3.75003 c -0.33992,-0.55 -0.14148,-1 0.44098,-1 0.58246,0 1.05902,0.45 1.05902,1 0,0.55 -0.19844,1 -0.44098,1 -0.24254,0 -0.7191,-0.45 -1.05902,-1 z m -22.20332,2.53142 c -0.98817,-1.35771 -2.31104,-2.48271 -2.93969,-2.5 -0.62866,-0.0173 -1.39301,-0.68289 -1.69855,-1.47913 -0.62793,-1.63637 -6.65844,-5.054571 -6.65844,-3.774135 0,1.199835 6.98779,7.796485 7.06339,6.668015 0.0349,-0.52039 0.47036,0.0663 0.96777,1.30383 0.53129,1.32178 1.76203,2.25 2.9833,2.25 2.029,0 2.03577,-0.0593 0.28222,-2.46858 z m 131.70332,-2.04774 c 0,-0.72623 -0.93317,-1.02795 -2.34472,-0.75812 -1.87446,0.35833 -2.25058,0.94065 -1.87536,2.90352 0.44606,2.33339 0.56248,2.37103 2.34472,0.75812 1.03145,-0.93345 1.87536,-2.24003 1.87536,-2.90352 z M 67.512599,104.12194 c -1.99252,-1.74945 -3.62277,-3.9095 -3.62277,-4.800085 0,-1.107055 1.0145,-0.520715 3.20712,1.853585 l 3.20713,3.47286 0.80786,-4.701175 c 0.66819,-3.888387 0.46014,-5.27153 -1.20338,-8.000004 -1.10619,-1.814349 -1.99305,-4.198816 -1.97079,-5.298816 0.0284,-1.406087 0.66354,-0.81779 2.1387,1.981085 1.84158,3.494098 2.1876,3.738749 2.8287,2 0.40174,-1.089597 0.45014,-4.901018 0.10755,-8.469826 -0.77139,-8.035682 -2.52895,-8.815682 -6.26154,-2.778841 -4.31099,6.972324 -4.3359,7.992698 -0.32337,13.24939 4.50812,5.905966 3.90923,7.026862 -0.80918,1.514462 l -3.5089,-4.099361 -0.40622,4.259617 c -0.57575,6.037379 0.17428,9.902169 2.06148,10.622389 0.89366,0.34106 2.49986,1.4328 3.56932,2.42611 1.19617,1.11098 2.30173,1.44876 2.87277,0.87772 0.57104,-0.57104 -0.46591,-2.15239 -2.69448,-4.10911 z m 63.966391,-3.03961 c -0.84053,-6.081273 -1.22834,-7.000138 -2.78289,-6.593613 -0.99345,0.259792 -1.80627,0.06448 -1.80627,-0.434032 0,-0.498509 0.9,-0.90638 2,-0.90638 1.31553,0 2,-0.666667 2,-1.94798 0,-1.737014 -0.33013,-1.832897 -3.04828,-0.885345 -2.96987,1.035302 -3.04282,1.214031 -2.8359,6.947981 0.11681,3.236939 0.63668,5.885339 1.15527,5.885339 0.51859,0 0.6749,0.69837 0.34735,1.55194 -0.32754,0.85356 -0.20167,1.30852 0.27971,1.01101 0.48138,-0.29751 1.43132,0.12912 2.11099,0.94806 2.80655,3.38169 3.58552,1.69787 2.58002,-5.57698 z m -27.60922,4.5418 c -0.69572,-0.83829 -1.47088,-1.31823 -1.72258,-1.06653 -0.69349,0.6935 0.71555,2.5907 1.9241,2.5907 0.6631,0 0.58723,-0.57378 -0.20152,-1.52417 z m -45.250901,-4.21209 c 0.909,-2.368829 -0.42581,-2.459077 -4.63213,-0.31318 -5.68989,2.90276 -5.68305,5.5116 0.009,3.27586 2.25802,-0.88697 4.33861,-2.22018 4.62353,-2.96268 z M 234.66262,97.321541 c -1.03558,-0.17972 -2.47607,0.165544 -3.20108,0.767253 -0.72502,0.601709 -2.16275,0.784949 -3.19496,0.407199 -1.75735,-0.643121 -1.77294,-0.564691 -0.24503,1.232742 0.89745,1.055765 1.94924,2.960325 2.33732,4.232355 0.66771,2.18863 0.85272,2.08126 3.44611,-2 2.54006,-3.997322 2.60279,-4.336686 0.85764,-4.639549 z m -111.77279,0.826764 c 0,-4.666667 -0.33333,-6 -1.5,-6 -2.19751,0 -1.8306,-1.680284 0.5,-2.289749 1.1,-0.287656 2,-1.063924 2,-1.725039 0,-1.152765 -2.39548,-0.92189 -6.4071,0.617512 -0.87609,0.33619 -1.5929,0.16319 -1.5929,-0.384444 0,-0.547634 1.575,-1.29117 3.5,-1.652302 2.19373,-0.411547 3.5,-1.229175 3.5,-2.190746 0,-1.20671 -0.69365,-1.385824 -3.25,-0.839215 -1.7875,0.382211 -3.7,1.054756 -4.25,1.494546 -0.55,0.43979 -1.12682,4.228528 -1.28183,8.419418 l -0.28183,7.619794 3.28183,1.42597 c 5.42924,2.35902 5.78183,2.08486 5.78183,-4.495745 z m -21.46344,3.059145 c -0.36504,-0.59065 -2.426981,-1.925815 -4.582091,-2.967052 -3.84838,-1.859339 -3.9002,-1.859208 -2.90123,0.0074 0.55942,1.045267 1.84619,1.900502 2.8595,1.900502 1.0133,0 2.4116,0.68587 3.10732,1.52417 1.374761,1.65649 2.596191,1.28195 1.516501,-0.46502 z m 145.70175,-0.0245 c 0.96859,-1.13123 1.27512,-2.217317 0.72224,-2.559014 -0.5283,-0.32652 -0.96055,-1.434964 -0.96055,-2.463219 0,-4.488202 -7.09285,-6.7767 -10.4862,-3.383356 -1.50541,1.505408 -1.4539,1.723762 0.67857,2.876807 2.02775,1.096419 2.58052,0.952718 4.55763,-1.184819 1.2375,-1.337914 2.25,-2.027222 2.25,-1.531795 0,0.495427 -0.8833,1.700155 -1.9629,2.677173 -1.80797,1.636198 -1.84541,2.003586 -0.47432,4.654983 1.74469,3.37385 3.34782,3.6318 5.67553,0.91323 z m -37.23831,0.11457 c 0,-0.46792 -0.50188,-2.290456 -1.11528,-4.050075 -1.06292,-3.049081 -1.33291,-3.185215 -5.75,-2.899223 -5.68018,0.367773 -6.09899,2.233645 -1.23684,5.510253 3.34729,2.255735 8.10212,3.100255 8.10212,1.439045 z m -15.39301,-1.731005 c -0.33385,-0.869981 -0.60699,-2.3823 -0.60699,-3.360707 0,-1.397816 -1.11212,-1.910635 -5.19114,-2.393735 -2.85513,-0.338148 -5.40323,-0.402731 -5.66244,-0.143517 -0.25922,0.259213 0.0481,1.611347 0.68301,3.004741 1.27899,2.807068 4.19474,4.315483 8.52756,4.411613 2.20743,0.049 2.71898,-0.29624 2.25,-1.518395 z m 19.82825,-0.522995 c -0.87262,-1.411923 -2.43524,-1.043989 -2.43524,0.573405 0,0.892075 0.5866,1.243505 1.49426,0.895205 0.82184,-0.31537 1.24528,-0.976245 0.94098,-1.46861 z M 56.889829,98.148305 c 1.29269,-0.835399 1.26629,-0.971491 -0.19098,-0.984687 -0.93004,-0.0084 -1.9691,0.434687 -2.30902,0.984687 -0.78218,1.2656 0.54163,1.2656 2.5,0 z M 111.6872,92.41151 c 0.25226,-5.29061 0.0626,-6.146711 -1.25,-5.643011 -0.85105,0.326581 -1.54737,0.09564 -1.54737,-0.513205 0,-0.608844 0.675,-1.106989 1.5,-1.106989 0.825,0 1.5,-0.675 1.5,-1.5 0,-1.738066 -1.25126,-1.86192 -5.7566,-0.569806 -1.78387,0.511607 -3.2434,0.565029 -3.2434,0.118715 0,-0.446313 2.0576,-1.32959 4.57245,-1.962836 2.82399,-0.711087 4.40739,-1.616865 4.14079,-2.368715 -0.53908,-1.52026 -4.31849,-1.320465 -8.3455,0.441177 l -3.06651,1.341465 1.2957,7.497323 c 1.39121,8.049903 3.79952,11.374967 7.82235,10.800045 1.8151,-0.259407 2.11868,-1.093533 2.37809,-6.534163 z m 144.56426,5.236795 c -0.31659,-0.825 -0.97746,-1.5 -1.46862,-1.5 -0.49115,0 -0.89301,0.675 -0.89301,1.5 0,0.825 0.66088,1.5 1.46862,1.5 0.89459,0 1.24363,-0.586289 0.89301,-1.5 z m -77.00932,-1.261028 c 1.07569,-1.740501 -2.21978,-4.056613 -6.62124,-4.653525 l -4.71265,-0.639115 1.13012,2.480343 c 0.62157,1.364188 1.85492,2.674063 2.74079,2.910832 2.79698,0.747559 6.97415,0.692407 7.46298,-0.09853 z M 85.302819,87.148305 c -1.17884,-4.437132 -1.23738,-6.466244 -0.30291,-10.5 1.27246,-5.492787 3.29822,-10.050164 5.66921,-12.754107 1.30896,-1.492764 1.35025,-2.323361 0.27715,-5.574897 -0.69354,-2.101434 -1.32746,-6.565618 -1.40871,-9.920409 l -0.14773,-6.099619 -2.06193,1.922148 c -1.13406,1.057181 -3.51464,2.091291 -5.29017,2.298021 -1.77553,0.20673 -3.32418,0.545295 -3.44145,0.752368 -0.11726,0.207072 -1.13498,1.726495 -2.26159,3.376495 -3.52371,5.16072 -5.17384,9.780158 -5.80473,16.25 -0.49628,5.08929 -0.33851,6.25 0.84952,6.25 1.93673,0 4.51035,5.127169 4.51035,8.985524 0,2.831642 0.17374,2.991864 2.11667,1.952039 3.27334,-1.751841 5.36844,0.998246 5.37665,7.057537 0.006,4.643304 0.10706,4.834941 1.69378,3.220971 1.53933,-1.565755 1.55912,-2.197834 0.22589,-7.216071 z m 11.58698,8.25 c -2e-5,-0.4125 -1.57502,-2.006684 -3.5,-3.542632 -4.39998,-3.510749 -4.5458,-2.788943 -0.24997,1.237319 3.5116,3.291241 3.75002,3.437809 3.74997,2.305313 z M 226.51995,93.892863 c -0.90074,-4.967294 -9.42115,-16.744558 -12.11406,-16.744558 -0.60039,0 -2.53862,1.2375 -4.30719,2.75 l -3.21558,2.75 1.37214,4.5 c 1.32382,4.341571 1.50878,4.498033 5.25335,4.444121 2.13467,-0.03073 5.68122,-0.356527 7.88122,-0.723987 l 4,-0.668109 -4,1.397136 c -2.2,0.768424 -5.35,1.44603 -7,1.505791 -2.85788,0.103508 -2.90804,0.178207 -1.05887,1.576851 1.19118,0.900964 4.19292,1.468197 7.76956,1.468197 5.50268,0 5.80557,-0.126054 5.41943,-2.255442 z m 5.89634,0.44857 c -0.30789,-0.307887 -1.11479,-6.34e-4 -1.79313,0.682784 -0.98026,0.987616 -0.8654,1.10248 0.5598,0.559795 0.98622,-0.375531 1.54122,-0.934692 1.23333,-1.242579 z M 60.041099,90.148305 c 0.17962,-1.925 -0.41469,-5.525 -1.32069,-8 -0.906,-2.475 -2.02602,-6.015482 -2.48893,-7.867738 l -0.84165,-3.367737 -2.33759,4.159736 c -1.53157,2.725436 -2.01904,4.576261 -1.41374,5.367737 0.50811,0.664401 2.19674,4.261286 3.75251,7.993077 2.9666,7.115928 4.10689,7.536458 4.65009,1.714925 z m 106.848731,4.428571 c 0,-1.463248 -3.11176,-3.428571 -5.42857,-3.428571 -2.96358,0 -3.36778,1.436787 -0.82143,2.919901 1.87979,1.094879 6.25,1.450558 6.25,0.50867 z m 89.0425,-3.111355 c -1.19727,-0.838599 -1.93574,-2.153036 -1.64106,-2.920971 0.29469,-0.767935 0.13024,-1.396245 -0.36544,-1.396245 -1.2954,0 -2.49663,4.346455 -1.31051,4.741831 0.54499,0.181663 1.8422,0.957618 2.8827,1.724346 1.14302,0.84228 2.03417,0.994628 2.25149,0.384908 0.19782,-0.555029 -0.61991,-1.69527 -1.81718,-2.533869 z M 98.860499,87.47761 c -0.66222,-3.206118 -1.71403,-6.201064 -2.33736,-6.655436 -0.82955,-0.604704 -0.79827,-0.962076 0.11669,-1.333333 2.56917,-1.042472 1.19529,-2.48743 -1.75,-1.840536 -3.63069,0.797433 -4.10274,-1.006413 -0.5,-1.910644 1.56194,-0.392023 2.5,-1.335628 2.5,-2.514788 0,-1.394999 -0.52172,-1.750896 -2,-1.364317 -1.11819,0.292413 -2,0.03068 -2,-0.59362 0,-0.614147 0.675,-1.116631 1.5,-1.116631 0.825,0 1.5,-0.45 1.5,-1 0,-0.55 1.2375,-1.006891 2.75,-1.015313 1.512501,-0.0084 3.425001,-0.496308 4.250001,-1.084192 2.0766,-1.479753 -4.164531,-0.370092 -9.647071,1.715234 -3.5571,1.352971 -4.3143,2.174654 -5.32258,5.775885 -0.64653,2.309184 -1.03035,5.978237 -0.85293,8.153451 0.2628,3.221966 0.73998,4.014211 2.57477,4.274773 1.23871,0.175911 2.71704,1.188411 3.28519,2.25 0.56814,1.061589 1.63706,1.930162 2.37536,1.930162 0.7383,0 1.9116,0.685875 2.60732,1.524166 2.00062,2.410603 2.245321,1.073365 0.95061,-5.194861 z m 94.029331,5.074602 c 0,-0.327851 -0.70684,-3.027552 -1.57077,-5.999337 -2.11672,-7.281262 -3.55004,-8.568794 -8.63403,-7.755831 -3.22702,0.516021 -3.96652,0.362031 -3.60006,-0.749659 0.28429,-0.862399 2.21783,-1.514548 5.04059,-1.700096 5.24663,-0.344875 7.02664,1.320864 8.87046,8.301016 1.89793,7.18498 3.29768,8.5 9.04771,8.5 l 5.10778,0 -0.53657,-3.306493 c -0.29511,-1.818571 -1.23645,-4.981547 -2.09186,-7.028835 -1.40177,-3.354915 -1.83059,-3.656531 -4.34427,-3.05562 -1.53394,0.366698 -3.36235,1.118799 -4.06315,1.671336 -1.68919,1.331842 -2.92509,0.01887 -1.40916,-1.497055 1.57447,-1.574474 1.49806,-2.783333 -0.17594,-2.783333 -0.7476,0 -3.3351,-1.570632 -5.75,-3.490294 -5.08689,-4.043684 -9.5954,-4.598512 -12.37841,-1.523315 -1.73611,1.918374 -1.71147,2.183741 0.71955,7.75 1.38447,3.169985 3.12425,7.205149 3.86617,8.967032 1.14929,2.729292 1.9449,3.258462 5.37545,3.575292 2.21458,0.204529 4.58901,0.450489 5.27651,0.546578 0.6875,0.09609 1.25,-0.09354 1.25,-0.421386 z m 57,-2.403907 c 0,-1.035081 -0.45318,-2.162046 -1.00706,-2.504365 -1.2852,-0.794298 -2.39487,2.014576 -1.60699,4.067747 0.76892,2.00377 2.61405,0.900254 2.61405,-1.563382 z m -109.65116,-0.0042 c 1.04232,-0.974357 -4.89683,-2.393203 -6.32444,-1.51089 -0.56342,0.348212 -1.0244,1.31731 -1.0244,2.153551 0,1.189173 0.70809,1.371236 3.25,0.83563 1.7875,-0.376644 3.63198,-1.041875 4.09884,-1.478291 z m 6.90116,1.341908 c -0.6875,-0.277412 -1.8125,-0.277412 -2.5,0 -0.6875,0.277413 -0.125,0.504386 1.25,0.504386 1.375,0 1.9375,-0.226973 1.25,-0.504386 z m 31.24133,-2.587708 c -1.24641,-4.358444 -6.01085,-13.160357 -7.6532,-14.138657 -1.23822,-0.737574 -2.54904,-0.382023 -5.14207,1.394751 l -3.48021,2.384679 2.14207,4.554613 c 2.77372,5.897639 5.52437,7.727258 11.95947,7.954934 2.46216,0.08711 2.73626,-0.184011 2.17394,-2.15032 z m 58.39122,0.700781 c 0.21266,-0.212658 -0.21816,-1.846812 -0.95739,-3.631453 -1.23693,-2.986231 -12.23842,-14.827544 -13.76241,-14.813005 -0.36451,0.0035 -1.4074,1.315288 -2.31753,2.915136 -1.60188,2.81581 -1.5756,2.983209 0.822,5.235634 1.36223,1.279752 3.4034,3.975507 4.53593,5.990568 1.13252,2.01506 3.01262,4.135598 4.17799,4.712307 1.86225,0.921574 6.41922,0.673001 7.50141,-0.409187 z m -86.39002,-6.002904 c -1.34478,-3.271332 -2.45574,-7.163016 -2.46879,-8.648187 -0.0132,-1.496948 -0.80361,-3.154541 -1.77374,-3.719591 -0.9625,-0.560605 -1.3574,-1.032966 -0.87756,-1.04969 0.47985,-0.01673 0.31225,-0.705409 -0.37244,-1.530409 -1.5116,-1.821369 -4.61079,-1.968859 -5.2532,-0.25 -0.78653,2.104453 2.85642,15.654079 4.78031,17.779955 1.46515,1.618975 7.30953,4.128448 8.19168,3.517361 0.12033,-0.08336 -0.88149,-2.828107 -2.22626,-6.099439 z m 12.42555,5.623911 c 1.1703,-0.740749 0.7434,-2.411766 -2.44322,-9.563322 -4.03967,-9.066024 -6.30566,-11.626979 -9.53955,-10.781298 -2.34707,0.613773 -2.37902,1.400248 -0.33883,8.341331 2.5296,8.606154 5.32343,12.934177 8.33766,12.916188 1.41122,-0.0084 3.204,-0.419226 3.98394,-0.912899 z m -32.83629,-1.071788 c 0.50501,0 0.91821,-0.723145 0.91821,-1.606989 0,-1.054521 -0.5438,-1.398311 -1.58179,-1 -0.86998,0.333844 -1.99498,0.606989 -2.5,0.606989 -0.50501,0 -0.91821,0.723145 -0.91821,1.606989 0,1.054521 0.5438,1.398311 1.58179,1 0.86998,-0.333844 1.99498,-0.606989 2.5,-0.606989 z m 113.78355,-1.551034 c 0.31608,-1.631099 0.14754,-1.704542 -1.25,-0.544689 -1.91126,1.5862 -2.14923,3.440154 -0.36534,2.84619 0.6875,-0.22891 1.4144,-1.264585 1.61534,-2.301501 z m 3.56995,-1.347005 c -0.62769,-0.627692 -2.41268,1.912097 -2.38817,3.398039 0.009,0.55 0.67253,0.13285 1.47435,-0.926999 0.80183,-1.05985 1.21305,-2.171818 0.91382,-2.47104 z m -6.43529,-0.101961 c 0.94133,-1.758885 0.76049,-2 -1.5,-2 -2.26049,0 -2.44133,0.241115 -1.5,2 0.5887,1.1 1.2637,2 1.5,2 0.2363,0 0.9113,-0.9 1.5,-2 z m 9.94579,-5.565324 c -1.75685,-2.116871 -2.69579,-1.752172 -2.69579,1.047087 0,1.364969 0.39375,2.238412 0.875,1.940983 0.48125,-0.297429 0.875,0.310778 0.875,1.35157 0,1.040793 0.3375,2.235357 0.75,2.654586 1.27237,1.293123 1.46165,-5.468949 0.19579,-6.994226 z m -110.41358,4.815324 c -0.37498,-0.9625 -1.37943,-4.9 -2.23211,-8.75 -1.63486,-7.381604 -4.70125,-11.913376 -8.64241,-12.772473 -1.18673,-0.258684 -2.9414,-0.799892 -3.89926,-1.202685 -3.2917,-1.384198 -3.01976,2.329432 0.76046,10.384958 2.89327,6.165463 4.08656,7.798595 5.35226,7.325095 1.40983,-0.527421 1.44563,-0.38408 0.26623,1.066041 -1.17571,1.445572 -1.10712,1.772228 0.5,2.381277 1.02444,0.388234 2.45726,1.293558 3.18405,2.011833 0.72678,0.718275 2.23743,1.305954 3.35699,1.305954 1.53168,0 1.86679,-0.433189 1.35379,-1.75 z m -11.53221,-1.190322 c 0,-1.290025 -1.16116,-1.935066 -2.53462,-1.408018 -0.7365,0.282622 -1.10527,1.123202 -0.81948,1.867956 0.51305,1.336981 3.3541,0.947396 3.3541,-0.459938 z m -9.5,-1.059678 c 1.77225,-0.761562 1.68684,-0.867433 -0.75,-0.929715 -1.5125,-0.03866 -3.07625,-0.104035 -3.475,-0.145285 -0.39875,-0.04125 -0.88625,0.40875 -1.08333,1 -0.42047,1.261399 2.45295,1.301997 5.30833,0.075 z m 124,-2.535188 c 2.44712,-1.178682 2.54072,-1.328078 0.50784,-0.810651 -2.127,0.541386 -2.31067,0.415651 -1.25353,-0.858124 1.00731,-1.213736 0.88433,-1.813092 -0.65856,-3.209388 -1.24222,-1.12419 -2.12446,-1.349211 -2.55549,-0.651792 -0.36206,0.585829 -1.08555,1.065143 -1.60775,1.065143 -0.5222,0 -0.40312,-0.874827 0.26463,-1.944061 1.00596,-1.610804 0.88707,-2.305404 -0.69355,-4.051975 l -1.90764,-2.107915 -3.07741,3.301976 -3.07742,3.301975 2.94681,3.75 c 3.25793,4.14594 5.97741,4.687974 11.11207,2.214812 z m -33.48227,-4.292236 c -0.78598,-0.261991 -0.76795,-0.768619 0.063,-1.769822 1.49975,-1.807096 0.24891,-1.783155 -5.08071,0.09725 -5.20228,1.835473 -8.51105,2.025946 -5.57294,0.320812 1.05989,-0.615103 3.98489,-1.715389 6.5,-2.445078 l 4.57294,-1.326708 -4.5,0.462209 -4.5,0.462209 3,-1.391909 3,-1.391909 -4,-0.619382 c -2.2,-0.340661 -5.88473,-0.989544 -8.1883,-1.441963 -4.90745,-0.963822 -6.76978,-0.146913 -5.90152,2.588706 1.27559,4.019038 5.31177,6.59541 11.08213,7.073933 4.73773,0.392889 5.50769,0.743394 5.50769,2.507224 0,1.975103 0.0941,1.962089 2.55946,-0.354008 1.40771,-1.322471 2.06393,-2.569673 1.45827,-2.77156 z m -92.26726,2.577424 c -0.63003,-1.89219 -3.75047,-2.1612 -3.75047,-0.323324 0,0.927635 0.855,1.573324 2.08333,1.573324 1.22198,0 1.91126,-0.516816 1.66714,-1.25 z m -10.50047,-1.399073 c 1.5125,-0.33051 2.75,-0.968119 2.75,-1.41691 0,-1.773208 -2.17666,-1.992373 -5.1342,-0.516956 -1.7098,0.85296 -3.50407,1.306502 -3.98726,1.007871 -0.4832,-0.298631 -0.878541,0.211076 -0.878541,1.132682 0,1.260882 0.556931,1.517057 2.250001,1.034944 1.2375,-0.352388 3.4875,-0.911122 5,-1.241631 z m 18.75,1.177586 c 0,-0.259317 -1.16034,-3.071817 -2.57854,-6.25 -1.81529,-4.06806 -2.4379,-6.870342 -2.1034,-9.467096 0.348,-2.701473 -6e-4,-4.119129 -1.3026,-5.297426 -1.6339,-1.478663 -1.90874,-1.477852 -3.39661,0.01001 -3.34247,3.342477 -1.58632,14.3165 3.15673,19.725997 1.34684,1.536096 6.22442,2.537963 6.22442,1.278515 z m 124.76176,-2.538382 c -0.70243,-1.124768 -1.4204,-1.514214 -1.63035,-0.884346 -0.20635,0.619038 0.24217,1.516588 0.99671,1.994556 1.96925,1.247442 2.03456,1.133012 0.63364,-1.11021 z M 162.53728,72.986 c -0.17002,-3.646297 -3.9366,-8.047703 -6.15762,-7.19542 -1.63756,0.628391 -2.04377,2.357725 -0.55381,2.357725 0.5148,0 1.94767,1.8 3.18414,4 2.71031,4.822355 3.72431,5.063169 3.52729,0.837695 z m -47.64745,1.162305 c 0,-0.55 -0.19844,-1 -0.44098,-1 -0.24254,0 -0.7191,0.45 -1.05902,1 -0.33992,0.55 -0.14148,1 0.44098,1 0.58246,0 1.05902,-0.45 1.05902,-1 z m 103,-0.666667 c 0,-1.643177 -0.82738,-1.635542 -3.83997,0.03544 -2.32337,1.288692 -2.31805,1.297898 0.75,1.297898 1.90831,0 3.08997,-0.509892 3.08997,-1.333334 z m -112.6134,-3.516816 c -1.44688,-2.341101 -7.017461,0.0971 -6.040221,2.643761 0.59101,1.54014 0.854591,1.534081 3.591341,-0.08256 1.62443,-0.959577 2.72643,-2.112118 2.44888,-2.561202 z m 64.79766,2.120097 c 2.30062,-0.06297 2.30168,-0.06906 0.16297,-0.931808 -2.76327,-1.114696 -6.34723,-0.184714 -6.34723,1.647009 0,1.092604 0.44445,1.180693 1.93426,0.383369 1.06384,-0.569351 2.97634,-1.063708 4.25,-1.09857 z m 62.90552,-4.10437 c 1.51837,-2.837105 0.53359,-2.16999 -2.09287,1.417756 -1.47225,2.011104 -1.71373,2.709553 -0.63346,1.832244 0.96016,-0.779765 2.18701,-2.242265 2.72633,-3.25 z m 13.7328,1.868587 c 0.18865,-0.989543 -0.46131,-3.014543 -1.44437,-4.5 l -1.78738,-2.700831 -1.16383,4 c -0.64011,2.2 -0.95559,4.363234 -0.70106,4.807186 0.83821,1.462026 4.7465,0.230216 5.09664,-1.606355 z m -134.28702,-2.49033 c -0.35212,-2.084225 -0.18653,-5.796725 0.36799,-8.25 1.22832,-5.43422 -1.03568,-11.265647 -4.5692,-11.768998 -2.0124,-0.286667 -2.1893,0.173291 -2.5,6.5 -0.45651,9.296142 0.0296,13.308497 1.61238,13.308497 0.726,0 1.55536,0.9 1.84302,2 0.28766,1.1 1.27969,2 2.20453,2 1.39217,0 1.57135,-0.652082 1.04128,-3.789499 z m 114.91964,3.168318 c 0.89032,-0.34165 2.27358,-1.88745 3.07391,-3.435112 1.35997,-2.629898 1.31669,-2.857873 -0.66183,-3.485831 -2.2277,-0.707043 -3.8242,0.781769 -3.85197,3.592124 -0.008,0.8525 -0.55531,2.09 -1.21531,2.75 -1.34936,1.349355 -0.0761,1.626917 2.6552,0.578819 z m -4.2052,-2.052167 c 1.52752,-0.90569 0.68228,-2.326652 -1.38398,-2.326652 -3.2231,0 -9.86602,2.189699 -9.86602,3.252126 0,0.878585 9.52948,0.09465 11.25,-0.925474 z m 26.03975,-0.326652 c 0.28766,-1.1 0.11514,-2 -0.38337,-2 -0.49851,0 -0.90638,0.9 -0.90638,2 0,1.1 0.17252,2 0.38337,2 0.21085,0 0.61872,-0.9 0.90638,-2 z M 93.416289,66.341433 c -0.30788,-0.307887 -1.11479,-6.34e-4 -1.79313,0.682784 -0.98026,0.987616 -0.8654,1.10248 0.5598,0.559795 0.98622,-0.375531 1.54122,-0.934692 1.23333,-1.242579 z M 147.61935,65.04864 c -0.9836,-1.605531 -1.8961,-1.884111 -4.56221,-1.392813 -2.23605,0.412047 -4.12813,0.09294 -5.75,-0.969748 -2.63584,-1.727069 -2.95014,-1.401898 -1.4159,1.464867 0.76639,1.432006 1.76385,1.751876 4.25,1.362912 2.02283,-0.316475 3.99907,0.0512 5.23756,0.974424 2.5759,1.920196 3.81223,1.125805 2.24055,-1.439642 z m 27.25517,0.849665 c -0.008,-1.2375 -0.35993,-2.792196 -0.78113,-3.45488 -0.90635,-1.425975 -5.51342,-0.993161 -10.29497,0.967168 l -3.40859,1.397446 3,1.630095 c 1.65,0.896553 4.9125,1.648113 7.25,1.670133 3.75702,0.03539 4.24822,-0.220952 4.23469,-2.209962 z m 7.54878,-1.5 c -0.85789,-4.668512 -1.48727,-5.336349 -4.32876,-4.593282 -1.78362,0.466427 -2.1109,1.039946 -1.55062,2.717247 0.39059,1.169319 0.72464,2.913535 0.74233,3.876035 0.0231,1.256552 0.84902,1.75 2.92916,1.75 2.80349,0 2.87476,-0.121048 2.20789,-3.75 z m 58.67834,0.760201 c 0.31874,-2.171699 -0.16402,-3.556127 -1.76427,-5.059485 l -2.20308,-2.069686 -0.50919,3.309485 c -0.33391,2.170216 0.0216,3.911912 1.03276,5.059485 2.17371,2.467002 2.94024,2.191041 3.44378,-1.239799 z M 190.28128,59.73537 c -0.35195,-1.147886 -0.6965,-2.159828 -0.76568,-2.24876 -0.0692,-0.08893 -1.40212,0.08345 -2.9621,0.383079 -2.6562,0.510179 -2.79332,0.773977 -2.15921,4.154079 0.97426,5.193255 1.32893,5.407355 4.06572,2.454308 1.70606,-1.84087 2.26484,-3.295969 1.82127,-4.742706 z m -87.45435,1.163529 c 1.35287,-3.880844 1.38508,-14.433439 0.0466,-15.260675 -0.55897,-0.345464 -0.75742,-1.047021 -0.44098,-1.559017 0.63371,-1.025368 -1.44655,-1.364355 -6.042711,-0.984683 -3.73071,0.308182 -4.46535,1.427969 -4.48469,6.8359 -0.0162,4.525856 2.04497,10.522017 4.57964,13.322805 2.12767,2.351044 5.084481,1.253417 6.342151,-2.35433 z m 52.91991,3.358939 c 2.02148,-1.280866 0.46765,-5.462984 -1.69735,-4.568401 -0.91281,0.377176 -2.44716,0.912205 -3.40966,1.188953 -0.9625,0.276748 -1.75,0.878333 -1.75,1.336856 0,0.946284 2.98965,2.864537 4.5,2.887338 0.55,0.0083 1.61066,-0.371833 2.35701,-0.844746 z m 56.34419,-1.098071 c 7.31523,-2.027156 12.02069,-4.562561 5.67106,-3.055702 -9.05534,2.148968 -9.42087,2.201604 -7.71839,1.111466 0.90963,-0.582458 4.03734,-1.668988 6.95047,-2.41451 2.91312,-0.745523 5.49005,-1.93588 5.7265,-2.645237 0.42129,-1.263881 -1.99366,-1.033439 -6.23794,0.595245 -0.87609,0.33619 -1.5929,0.113109 -1.5929,-0.495735 0,-0.608844 0.7875,-1.11388 1.75,-1.122302 0.9625,-0.0084 2.425,-0.472091 3.25,-1.030377 1.09878,-0.743555 0.72454,-0.834189 -1.39915,-0.338844 -2.05683,0.47975 -2.6934,0.343304 -2.19099,-0.469623 0.3895,-0.630214 1.58162,-1.145843 2.64916,-1.145843 1.8672,0 2.5386,-1.06905 1.39169,-2.21596 -1.36238,-1.362373 -9.21573,1.576933 -12.45071,4.659977 -4.24064,4.041472 -9.0159,6.555983 -12.45034,6.555983 -1.40231,0 -2.54966,0.441427 -2.54966,0.980948 0,1.05515 2.4335,1.766667 8,2.339072 1.925,0.197948 3.6182,0.431923 3.76266,0.519943 0.14446,0.08802 3.4918,-0.734805 7.43854,-1.828501 z m 12.7988,-0.124961 c 0,-1.318008 -2.3628,-1.07292 -4.46324,0.462963 -1.66679,1.218784 -1.54004,1.304632 1.30887,0.886501 1.7349,-0.25463 3.15437,-0.861889 3.15437,-1.349464 z m -80,-2.862668 c 0,-1.653697 -1.93069,-2.131292 -4.0439,-1.000338 -1.65318,0.884752 -1.8429,1.407977 -0.91566,2.52523 0.85998,1.036214 1.67118,1.140793 3.06457,0.395078 1.04224,-0.557794 1.89499,-1.42178 1.89499,-1.91997 z m 22.8095,0.59154 c 2.37023,-0.63188 4.28273,-1.478835 4.25,-1.882123 -0.0327,-0.403287 -0.0595,-1.40825 -0.0595,-2.23325 0,-1.935393 -3.18236,-1.821208 -9.12764,0.327504 -4.23288,1.529829 -4.55222,1.87334 -3.74356,4.027014 0.64954,1.729872 1.34664,2.162868 2.62764,1.632122 0.95896,-0.397317 3.68284,-1.239387 6.05306,-1.871267 z m 66.15987,-2.115373 c 0,-0.55 -0.43621,-0.325 -0.96937,0.5 -0.53316,0.825 -0.96937,1.95 -0.96937,2.5 0,0.55 0.43621,0.325 0.96937,-0.5 0.53316,-0.825 0.96937,-1.95 0.96937,-2.5 z m -100.59437,1.702254 c 0.79065,-1.279293 -1.04345,-3.525198 -2.2632,-2.771352 -1.60541,0.992197 -1.36774,3.569098 0.32918,3.569098 0.79254,0 1.66285,-0.358986 1.93402,-0.797746 z m -4.375,-2.401028 c 0,-0.594408 0.7875,-1.678538 1.75,-2.40918 1.60085,-1.215215 1.53692,-1.322654 -0.75,-1.260563 -1.375,0.03733 -3.53833,0.360521 -4.8074,0.718197 l -2.3074,0.65032 2.11701,2.272174 c 2.05704,2.2078 3.99779,2.221903 3.99779,0.02905 z m 23.679,0.997886 c 3.2677,-1.181616 4.29027,-3.082039 2.31517,-4.302715 -1.39249,-0.860606 -7.99417,1.648066 -7.99417,3.037825 0,2.617372 1.19977,2.884599 5.679,1.26489 z m 78.28223,-0.72667 c 1.0015,-1.871316 0.48149,-5.086387 -0.81822,-5.058787 -2.469,0.05243 -5.14301,1.461426 -5.14301,2.709965 0,0.91392 0.58017,1.267726 1.5,0.914754 0.825,-0.316583 1.5,-0.139728 1.5,0.393011 0,0.532738 -0.64844,0.968615 -1.44098,0.968615 -0.79254,0 -1.7191,0.45 -2.05902,1 -0.35998,0.582454 0.64455,1 2.4058,1 1.9625,0 3.38591,-0.676555 4.05543,-1.927558 z m 14.02346,-0.822442 c -0.0119,-2.142937 -0.22931,-2.418875 -0.98469,-1.25 -1.26441,1.956534 -1.26441,4 0,4 0.55,0 0.99311,-1.2375 0.98469,-2.75 z M 143.62192,55.40408 c 0.83977,-2.188405 -0.14472,-2.325609 -4.47681,-0.623916 -2.49566,0.980324 -3.90953,2.105574 -3.61384,2.876133 0.62177,1.62031 7.32016,-0.244338 8.09065,-2.252217 z m 56.76791,1.844375 c 2.2,-1.02076 5.55078,-3.485877 7.44617,-5.478038 l 3.44616,-3.622112 -2.89616,0 c -2.23484,0 -2.62514,-0.271029 -1.70926,-1.186912 0.6528,-0.652802 3.83262,-1.215302 7.06626,-1.25 3.48045,-0.03735 5.72514,-0.471108 5.50142,-1.063088 -0.43694,-1.156194 -5.96107,-1.194714 -12.13142,-0.08459 -3.56888,0.642086 -4.59214,1.374895 -6.18166,4.427024 -1.04766,2.011663 -3.51059,4.728075 -5.47317,6.036471 -1.96259,1.308396 -3.56834,2.770896 -3.56834,3.25 0,1.453176 4.26274,0.937257 8.5,-1.028752 z m 41.5,-2.10015 c 0,-2.911186 -0.41349,-4 -1.51905,-4 -1.13656,0 -1.36733,0.692441 -0.91648,2.75 1.44872,6.61158 2.43553,7.118047 2.43553,1.25 z m -62,1.908556 c 1.12881,-0.798308 1.19068,-1.18633 0.25,-1.56802 -0.6875,-0.278962 -1.25,-1.144703 -1.25,-1.923869 0,-0.779167 0.5625,-1.432613 1.25,-1.452102 0.6875,-0.01949 0.16904,-0.634459 -1.15213,-1.366599 -2.46512,-1.366078 -6.09787,-1.057088 -6.09787,0.518665 0,0.485853 0.7875,0.89026 1.75,0.898682 1.36349,0.01193 1.45029,0.20522 0.39299,0.875154 -1.82294,1.155064 -0.52162,5.114205 1.6744,5.09422 0.92543,-0.0084 2.35761,-0.492681 3.18261,-1.076131 z m -14.81452,-1.9513 c 2.91776,-0.844281 4.86313,-2.035155 5.15638,-3.15652 0.56921,-2.176682 -2.56269,-2.414072 -8.47584,-0.642448 -3.12014,0.934817 -3.86602,1.630719 -3.86602,3.606988 0,1.532545 0.46767,2.280163 1.25,1.998233 0.6875,-0.247758 3.35846,-1.060571 5.93548,-1.806253 z m 25.15409,-0.514727 c -0.32871,-0.856608 -1.21849,-1.319232 -1.9773,-1.028052 -0.7588,0.29118 -2.45072,0.122195 -3.75981,-0.375522 -2.06192,-0.783941 -2.31259,-0.64648 -1.87469,1.028052 0.38929,1.488627 1.39101,1.932993 4.35748,1.932993 3.07631,0 3.73163,-0.313626 3.25432,-1.557471 z m 48.66043,0.08052 c 0,-1.603093 -4.70804,-5.148346 -5.62251,-4.233872 -0.30806,0.308054 -0.24482,1.553468 0.14053,2.767586 0.54749,1.725007 0.89195,1.905403 1.57599,0.825361 0.68521,-1.081887 0.87869,-1.097769 0.89068,-0.07311 0.008,0.719959 0.46531,1.030902 1.01531,0.690983 0.55,-0.339919 1,-0.141476 1,0.440983 0,0.582458 0.225,1.059016 0.5,1.059016 0.275,0 0.5,-0.664626 0.5,-1.476947 z m -85.56457,-2.065878 3.06457,-1.290346 -2.53903,-0.638873 c -3.26422,-0.821346 -7.96097,0.957231 -7.96097,3.014681 0,1.691683 1.28535,1.504041 7.43543,-1.085462 z m -14.58465,0.445 c 3.90311,-1.360634 4.08861,-2.902175 0.34922,-2.902175 -2.69895,0 -5.2,1.53911 -5.2,3.2 0,1.075766 1.10513,1.007914 4.85078,-0.297825 z m 58.56033,-2.9789 c 2.35611,-2.800085 3.10819,-5.249067 2.66354,-8.673275 -0.22912,-1.76436 1.86926,-1.559738 2.56372,0.25 0.59587,1.552791 4.36163,2.134984 4.36163,0.674314 0,-0.454127 -1.07753,-1.83797 -2.3945,-3.075205 -1.69794,-1.595128 -2.60718,-1.905402 -3.1256,-1.066589 -0.90875,1.470387 -8.04182,0.480288 -11.13819,-1.546026 -3.52432,-2.306372 -4.33991,0.02316 -2.45548,7.013506 1.33094,4.937184 2.02922,6.058379 3.94206,6.32957 1.5284,0.216687 2.13792,0.816089 1.77955,1.75 -0.93742,2.442866 1.10102,1.555142 3.80327,-1.656295 z m -76.91111,1.076725 c 0.33992,-0.55 -0.0835,-1 -0.94098,-1 -0.85746,0 -1.55902,0.45 -1.55902,1 0,0.55 0.42344,1 0.94098,1 0.51754,0 1.2191,-0.45 1.55902,-1 z m 11.08179,-1 c 0.78001,0 1.41821,-0.480324 1.41821,-1.067388 0,-1.226825 -3.95394,-0.272874 -5.5,1.326961 -0.68212,0.705845 -0.41771,0.829058 0.83179,0.387606 1.00748,-0.355949 2.46998,-0.647179 3.25,-0.647179 z m 54.82034,-3.658931 c -0.77117,-2.562412 -1.40213,-5.712412 -1.40213,-7 0,-1.693309 -0.56713,-2.341069 -2.04966,-2.341069 -5.56852,0 -14.33553,-9.216195 -18.00858,-18.931263 -1.43596,-3.798082 -2.20929,-4.618338 -4.58455,-4.86279 -1.57146,-0.16173 -3.71008,0.330034 -4.75248,1.092809 -1.84419,1.349483 -1.82646,1.5326 0.65796,6.794053 4.26142,9.024757 6.73159,11.342194 12.12703,11.377183 3.25724,0.02112 4.74104,0.474101 5.0118,1.530008 2.79003,10.880502 2.97648,11.26128 6.90934,14.110227 2.19407,1.589375 4.77766,2.889773 5.74131,2.889773 1.61938,0 1.64589,-0.352892 0.34996,-4.658931 z m 39.09787,3.658931 c -0.33992,-0.55 -1.29303,-1 -2.11803,-1 -0.825,0 -1.22189,0.45 -0.88197,1 0.33992,0.55 1.29303,1 2.11803,1 0.825,0 1.22189,-0.45 0.88197,-1 z M 117.4487,48.680108 c 1.63076,-1.233441 1.68089,-1.473281 0.31357,-1.5 -0.89515,-0.01749 -2.18775,0.643197 -2.87244,1.468197 -1.59557,1.922549 0.0323,1.942782 2.55887,0.0318 z m 13.44113,-1.636341 c 1.11802,-0.622098 0.84837,-0.842388 -1.05887,-0.865053 -1.40738,-0.01673 -3.43238,0.651493 -4.5,1.48493 -1.82997,1.428563 -1.76934,1.4781 1.05887,0.865053 1.65,-0.357657 3.675,-1.025875 4.5,-1.48493 z m 28.57913,-0.436194 c -0.35072,-1.397403 -1.56024,-5.006486 -2.68781,-8.020184 -1.65709,-4.428985 -2.77859,-5.851087 -5.84996,-7.417985 -3.09399,-1.578433 -4.33311,-1.737887 -6.6706,-0.858393 -2.71371,1.02105 -5.08351,0.420815 -11.62144,-2.943534 -0.41287,-0.212461 -0.46693,0.353155 -0.12012,1.256923 0.43033,1.121421 -0.008,1.810133 -1.37954,2.168868 -1.79411,0.469171 -1.89749,0.89256 -0.9621,3.940345 0.5764,1.87808 1.44906,3.414692 1.93924,3.414692 0.49018,0 0.61099,0.453452 0.26846,1.007671 -1.05622,1.709001 1.76337,3.494641 7.25474,4.594413 2.8875,0.578288 5.25,0.854881 5.25,0.614651 0,-0.240229 -1.41697,-3.095296 -3.14883,-6.344593 -3.86606,-7.253466 -3.08161,-8.933555 1.04476,-2.237607 6.09916,9.89723 9.96984,13.353814 14.96248,13.361727 2.02691,0.0032 2.26877,-0.353388 1.72072,-2.536994 z m 57.92087,1.540732 c 1.78583,-0.767399 1.71184,-0.866956 -0.69098,-0.929715 -1.48004,-0.03866 -2.9691,0.379715 -3.30902,0.929715 -0.73784,1.193844 1.22178,1.193844 4,0 z m 21.26793,-1 c -0.68696,-1.1 -1.63892,-2 -2.11547,-2 -0.47654,0 -0.62724,-0.623334 -0.33489,-1.385187 0.53915,-1.405012 -4.13792,-6.644834 -5.87229,-6.57885 -0.5199,0.01978 0.40472,1.196023 2.05472,2.613875 1.65154,1.419177 2.2134,2.316091 1.25,1.995422 -2.55733,-0.851212 -2.16746,1.424966 0.79047,4.614958 3.09235,3.334963 6.1863,3.876387 4.22746,0.739782 z m -91.76793,0 c 0,-1.187174 -1.7373,-1.187174 -4.5,0 -1.67602,0.720209 -1.47353,0.870815 1.25,0.929715 1.7875,0.03866 3.25,-0.379715 3.25,-0.929715 z m 26.14755,-4.840845 -1.52173,-5.840845 -4.81291,-0.985913 c -4.37803,-0.89683 -4.81291,-0.817952 -4.81291,0.872964 0,2.787386 2.83857,9.123852 4.72372,10.544639 0.91219,0.6875 3.07312,1.25 4.80205,1.25 l 3.14351,0 -1.52173,-5.840845 z m -57.72934,4.233856 c 1.45806,-0.559511 2.30656,-3.393011 1.01605,-3.393011 -1.57159,0 -4.41507,2.222026 -3.90325,3.050173 0.6919,1.119515 0.82273,1.135051 2.8872,0.342838 z m 11.06775,-0.951592 c 2.05162,-0.85722 3.502,-1.786796 3.22307,-2.065725 -0.89606,-0.896057 -8.79145,1.681928 -8.18019,2.670975 0.74787,1.210074 0.55652,1.233437 4.95712,-0.60525 z m 14.0161,0.919418 c 1.32869,-0.509866 1.39581,-0.810206 0.33179,-1.484688 -1.71159,-1.084974 -5.5649,-1.120332 -6.22202,-0.05709 -0.27841,0.450481 0.93253,0.672073 2.69098,0.492428 2.6186,-0.267518 2.83525,-0.157008 1.19719,0.610659 -2.25427,1.056446 -0.5697,1.42557 2.00206,0.438694 z m 89.12909,-1.110837 c -0.277,-0.9625 -1.06926,-3.775 -1.76059,-6.25 -1.69765,-6.077705 -3.41438,-8.568405 -6.90135,-10.012753 -4.24405,-1.757945 -6.06533,-0.773386 -5.0137,2.710349 2.96342,9.816952 6.97271,15.302404 11.18446,15.302404 2.37739,0 2.89098,-0.360785 2.49118,-1.75 z M 78.094019,42.516203 c -0.52801,-1.027344 -1.68268,-3.555398 -2.56593,-5.617898 -0.88324,-2.0625 -1.98218,-3.75 -2.44208,-3.75 -1.14269,0 -9.19618,6.961361 -9.19618,7.949093 0,0.436285 2.17083,1.081216 4.82406,1.433179 2.65323,0.351963 5.69073,1.279643 6.75,2.06151 2.35173,1.735862 3.9435,0.47953 2.63013,-2.075884 z m 8.09127,-0.617898 c 1.91769,-1.957234 2.16091,-3.128299 1.86921,-9 -0.18443,-3.7125 -0.79142,-6.75 -1.34887,-6.75 -0.55745,0 -2.54405,0.726274 -4.41467,1.613941 -3.07905,1.461105 -3.40113,2.01516 -3.40113,5.850777 0,5.400999 1.77552,10.535282 3.64328,10.535282 0.7962,0 2.43968,-1.0125 3.65218,-2.25 z m 26.555321,1.152175 c 2.85188,-0.994171 4.49613,-3.902175 2.20638,-3.902175 -1.0728,0 -8.05716,3.986456 -8.05716,4.598776 0,0.732404 2.66004,0.415697 5.85078,-0.696601 z m 13.42003,-0.601368 c 3.22355,-0.650491 4.69137,-2.303409 2.03821,-2.29523 -3.48253,0.01074 -9.35733,2.107246 -8.73347,3.116669 0.34471,0.557756 1.36873,0.726909 2.2756,0.375897 0.90687,-0.351013 2.89571,-0.889814 4.41966,-1.197336 z M 94.889829,40.148305 c 0,-0.55 -0.675,-1 -1.5,-1 -0.825,0 -1.5,0.45 -1.5,1 0,0.55 0.675,1 1.5,1 0.825,0 1.5,-0.45 1.5,-1 z m 18.750001,-1.759142 c 1.2375,-0.808983 2.25,-1.632986 2.25,-1.831117 0,-0.655679 -5.16187,1.588947 -7.34978,3.196031 -2.144,1.574827 -2.14298,1.577266 0.34978,0.842681 1.375,-0.405195 3.5125,-1.398613 4.75,-2.207595 z m 103.25,2.408365 c 0,-1.513616 -2.37695,-6.649223 -3.0775,-6.649223 -0.48502,0 -1.75841,-1.718196 -2.82976,-3.818214 -4.29474,-8.418392 -15.09274,-14.740636 -15.09274,-8.836822 0,4.944917 9.42182,16.837458 15,18.933504 1.69909,0.638445 6,0.90421 6,0.370755 z m -95.44616,-1.736341 c 0.36953,-0.597915 1.56449,-0.853694 2.65547,-0.568397 2.80296,0.73299 5.42288,-0.328366 3.62454,-1.468336 -2.6636,-1.68845 -10.57809,0.110626 -9.33501,2.121978 0.8121,1.314006 2.2144,1.274877 3.055,-0.08524 z m -10.08059,-2.112148 c 2.48971,-1.209596 4.52675,-2.578565 4.52675,-3.042154 0,-0.647979 -7.57579,3.110163 -9.91667,4.919385 -1.27689,0.986889 1.44838,0.03772 5.38992,-1.877231 z M 95.627459,25.425973 c 2.04845,-3.12632 1.11564,-3.77027 -2.6447,-1.825724 -3.25904,1.685317 -3.68404,3.342483 -2.44546,9.535383 l 0.64746,3.237327 1.45471,-4.30345 c 0.80009,-2.366898 2.14469,-5.356489 2.98799,-6.643536 z M 121.619,35.544138 c -0.3323,-0.332291 -1.1948,-0.367818 -1.91667,-0.07895 -0.79773,0.319226 -0.56078,0.556183 0.60417,0.604167 1.05416,0.04342 1.64479,-0.192928 1.3125,-0.52522 z m 77.31575,-2.645833 c -1.18331,-1.7875 -2.915,-4.824614 -3.8482,-6.749143 -2.47445,-5.103044 -8.30498,-10.646087 -12.06749,-11.472474 -1.79973,-0.395287 -3.53816,-0.452784 -3.86318,-0.12777 -1.52163,1.521637 8.60125,17.410688 12.73395,19.987422 1.375,0.85731 4.00669,1.57072 5.8482,1.585356 l 3.3482,0.02661 -2.15148,-3.25 z m -98.04492,-0.25 c 1.29175,-1.375 2.12363,-2.5 1.84863,-2.5 -0.275,0 -1.55688,1.125 -2.848631,2.5 -1.29175,1.375 -2.12363,2.5 -1.84863,2.5 0.275,0 1.55688,-1.125 2.848631,-2.5 z m 4.12756,0.75 c 1.24387,-1.586056 1.2085,-1.621426 -0.37756,-0.377555 -0.9625,0.754844 -1.75,1.542344 -1.75,1.75 0,0.823034 0.82119,0.293303 2.12756,-1.372445 z m 20.29065,1.143011 c 1.91227,-0.733807 2.08338,-2.986556 0.27942,-3.678799 -1.41666,-0.543626 -7.69763,1.778536 -7.69763,2.845922 0,0.361175 1.125,0.374325 2.5,0.02922 1.44165,-0.36183 2.5,-0.196053 2.5,0.391592 0,1.185363 0.27909,1.23292 2.41821,0.412063 z m 60.79872,-1.085784 c 0.90344,-0.484385 -7.15875,-12.880579 -10.76843,-16.557227 -1.87166,-1.906391 -3.71907,-2.75 -6.02218,-2.75 -3.31226,0 -3.31889,0.0098 -2.19754,3.25 3.21988,9.303987 12.27637,18.562346 16.64564,17.016678 0.89407,-0.316284 1.9482,-0.748037 2.34251,-0.959451 z M 98.889829,31.648305 c 1.291751,-1.375 2.123631,-2.5 1.848631,-2.5 -0.275,0 -1.556881,1.125 -2.848631,2.5 -1.29175,1.375 -2.12363,2.5 -1.84863,2.5 0.275,0 1.55688,-1.125 2.84863,-2.5 z m 60.000001,0.5 c 0,-0.55 -0.19844,-1 -0.44098,-1 -0.24254,0 -0.7191,0.45 -1.05902,1 -0.33992,0.55 -0.14148,1 0.44098,1 0.58246,0 1.05902,-0.45 1.05902,-1 z m -48.5,-2 c 0.33992,-0.55 0.16803,-1 -0.38197,-1 -0.55,0 -1.27811,0.45 -1.61803,1 -0.33992,0.55 -0.16803,1 0.38197,1 0.55,0 1.27811,-0.45 1.61803,-1 z m 44.9724,-5.75 c -1.90699,-3.1625 -3.46842,-6.4475 -3.46983,-7.3 -0.004,-2.561908 -2.18393,-3.95 -6.20257,-3.95 -4.57553,0 -4.67852,0.734924 -1.09548,7.816682 2.78792,5.510237 7.43908,9.048011 12.01531,9.139122 2.14381,0.04268 2.10109,-0.152728 -1.24743,-5.705804 z m -36.15726,2.976365 c 1.04364,-0.544033 -2.24891,-4.226365 -3.779,-4.226365 -2.03289,0 -4.86817,2.65374 -4.12318,3.859171 0.66763,1.080239 6.05416,1.330537 7.90218,0.367194 z m 10.76819,-1.226365 c 2.34577,0 2.36613,-0.351472 0.21933,-3.785183 -0.93354,-1.493149 -1.73556,-2.804338 -1.78227,-2.913753 -0.35806,-0.838706 -8.51672,2.21416 -8.23275,3.080588 0.58602,1.78797 7.1337,5.854341 7.52696,4.674542 0.19364,-0.580907 1.21457,-1.056194 2.26873,-1.056194 z m 15.91667,1.40437 c 0,-0.327596 -0.91206,-1.876493 -2.02679,-3.441993 -1.11473,-1.5655 -2.69577,-4.447467 -3.51342,-6.404371 -1.34585,-3.221062 -1.85857,-3.558006 -5.41419,-3.558006 -2.16016,0 -4.2133,0.462326 -4.56253,1.027392 -1.04702,1.694117 3.51689,9.904907 6.36574,11.452404 2.61612,1.421079 9.15119,2.081339 9.15119,0.924574 z m -41,-2.90437 c 1.35129,-1.628209 1.02807,-1.831737 -1.41821,-0.893011 -0.86999,0.333844 -1.58179,1.008844 -1.58179,1.5 0,1.383233 1.62035,1.055388 3,-0.606989 z m 9.24069,-2.88524 c 1.64852,-1.251648 1.64269,-1.410328 -0.11014,-2.996618 -1.45345,-1.315354 -2.41764,-1.45949 -4.4907,-0.671314 -3.28559,1.24918 -3.37401,1.885639 -0.23581,1.697385 1.32222,-0.07932 2.19567,-0.481713 1.94098,-0.894213 -0.25468,-0.4125 -0.0131,-0.75 0.53695,-0.75 2.07405,0 2.09022,1.944516 0.0254,3.049595 -1.48887,0.79682 -1.93997,0.812227 -1.46899,0.05017 0.37379,-0.604869 0.22965,-1.099765 -0.32035,-1.099765 -1.59128,0 -2.25689,1.778221 -0.87426,2.335642 2.06085,0.830853 3.16249,0.671925 4.99692,-0.720882 z m 9.89329,-2.773048 c 2.12631,-0.637058 3.86602,-1.762058 3.86602,-2.5 0,-2.233322 -4.71001,-1.514967 -7.5945,1.158288 -2.9783,2.760195 -2.08224,3.082646 3.72848,1.341712 z M 21.889829,181.14831 c 0,-0.55 0.66345,-1 1.47432,-1 2.14598,0 4.52568,-5.26315 4.52568,-10.00936 0,-2.48447 0.39531,-3.86436 1,-3.49064 2.36798,1.46349 0.71955,10.6376 -2.48768,13.84482 -1.82892,1.82893 -4.51232,2.21855 -4.51232,0.65518 z m -6,-3 c 0,-0.55 0.64048,-1 1.42328,-1 2.3383,0 7.57672,-5.01955 7.57672,-7.26015 0,-1.1453 -0.74724,-2.90806 -1.66053,-3.91724 -0.9133,-1.00918 -1.32456,-2.16961 -0.91392,-2.57874 1.21808,-1.21361 4.57445,3.74878 4.57445,6.76332 0,1.93679 -1.07713,3.73136 -3.53479,5.88922 -3.42372,3.00606 -7.46521,4.14489 -7.46521,2.10359 z"
     id="path14362"
     inkscape:connector-curvature="0" />
</svg>
