<?xml version="1.0" encoding="UTF-8" standalone="no"?>
<!-- Created with Inkscape (http://www.inkscape.org/) -->

<svg
   xmlns:dc="http://purl.org/dc/elements/1.1/"
   xmlns:cc="http://creativecommons.org/ns#"
   xmlns:rdf="http://www.w3.org/1999/02/22-rdf-syntax-ns#"
   xmlns:svg="http://www.w3.org/2000/svg"
   xmlns="http://www.w3.org/2000/svg"
   xmlns:sodipodi="http://sodipodi.sourceforge.net/DTD/sodipodi-0.dtd"
   xmlns:inkscape="http://www.inkscape.org/namespaces/inkscape"
   id="svg7644"
   version="1.1"
   inkscape:version="0.48.4 r9939"
   width="123"
   height="285"
   sodipodi:docname="Salt.png">
  <metadata
     id="metadata7650">
    <rdf:RDF>
      <cc:Work
         rdf:about="">
        <dc:format>image/svg+xml</dc:format>
        <dc:type
           rdf:resource="http://purl.org/dc/dcmitype/StillImage" />
        <dc:title></dc:title>
      </cc:Work>
    </rdf:RDF>
  </metadata>
  <defs
     id="defs7648">
    <filter
       inkscape:collect="always"
       id="filter8184"
       x="-0.646265"
       width="2.29253"
       y="-0.17695267"
       height="1.3539053">
      <feGaussianBlur
         inkscape:collect="always"
         stdDeviation="2.5264727"
         id="feGaussianBlur8186" />
    </filter>
    <filter
       inkscape:collect="always"
       id="filter8198"
       x="-0.32657308"
       width="1.6531462"
       y="-0.40252037"
       height="1.8050407">
      <feGaussianBlur
         inkscape:collect="always"
         stdDeviation="1.088649"
         id="feGaussianBlur8200" />
    </filter>
    <filter
       inkscape:collect="always"
       id="filter8208"
       x="-0.40834845"
       width="1.8166969"
       y="-0.34229209"
       height="1.6845842">
      <feGaussianBlur
         inkscape:collect="always"
         stdDeviation="1.4639876"
         id="feGaussianBlur8210" />
    </filter>
    <filter
       inkscape:collect="always"
       id="filter8214"
       x="-0.51994003"
       width="2.0398801"
       y="-0.12456897"
       height="1.2491379">
      <feGaussianBlur
         inkscape:collect="always"
         stdDeviation="3.1911629"
         id="feGaussianBlur8216" />
    </filter>
    <filter
       inkscape:collect="always"
       id="filter8240"
       x="-0.3684556"
       width="1.7369112"
       y="-0.40142958"
       height="1.8028592">
      <feGaussianBlur
         inkscape:collect="always"
         stdDeviation="10.946575"
         id="feGaussianBlur8242" />
    </filter>
  </defs>
  <sodipodi:namedview
     pagecolor="#ffffff"
     bordercolor="#666666"
     borderopacity="1"
     objecttolerance="10"
     gridtolerance="10"
     guidetolerance="10"
     inkscape:pageopacity="0"
     inkscape:pageshadow="2"
     inkscape:window-width="1244"
     inkscape:window-height="741"
     id="namedview7646"
     showgrid="false"
     inkscape:zoom="1.6561404"
     inkscape:cx="80.346956"
     inkscape:cy="113.04187"
     inkscape:window-x="0"
     inkscape:window-y="22"
     inkscape:window-maximized="0"
     inkscape:current-layer="svg7644" />
  <path
     style="fill:#888888;fill-opacity:1;stroke:none"
     d="M 43.549988,81.339764 C 70.396913,91.066555 78.718083,85.936179 87.927997,79.985627 83.701008,62.893145 87.612563,46.682695 82.804469,30.031229 78.180717,23.934652 77.737644,16.374838 65.829641,12.827749 52.985984,19.102305 45.919297,39.204793 43.976948,62.553495 z"
     id="path7656"
     inkscape:connector-curvature="0"
     sodipodi:nodetypes="cccccc" />
  <path
     style="fill:#ffffff;fill-opacity:1;stroke:none;filter:url(#filter8184)"
     d="m 59.626589,28.07733 c -4.457384,11.195459 -4.172703,22.669863 -1.811441,34.266419 l 6.340043,10e-7 c -2.864266,-11.120233 -3.398337,-22.240467 1.35858,-33.3607 z"
     id="path8166"
     inkscape:connector-curvature="0"
     sodipodi:nodetypes="ccccc" />
  <path
     style="fill:#ffffff;fill-opacity:1;stroke:none;filter:url(#filter8198)"
     d="m 54.041314,65.815678 7.849576,0.150953 c -5.719521,2.385705 -2.441724,4.342967 0,6.340042 l -8.00053,-0.754767 c -0.927718,-1.803405 -2.396758,-3.546664 0.150954,-5.736228 z"
     id="path8188"
     inkscape:connector-curvature="0"
     sodipodi:nodetypes="ccccc" />
  <path
     style="fill:#ffffff;fill-opacity:1;stroke:none;filter:url(#filter8208)"
     d="m 53.89036,74.420021 c -4.031227,2.864607 -2.140893,6.099311 0.150954,9.35911 l 8.453389,0.90572 c -6.160784,-4.010049 -5.133712,-6.95523 -0.45286,-9.35911 z"
     id="path8202"
     inkscape:connector-curvature="0"
     sodipodi:nodetypes="ccccc" />
  <path
     style="fill:#000000;fill-opacity:0.44845360000000001;stroke:none;filter:url(#filter8214)"
     d="m 78.560762,23.700074 -0.640441,11.954899 c -0.717675,9.393135 1.032696,18.786269 -4.910048,28.179404 3.984967,3.273365 3.984965,6.54673 0,9.820095 8.60588,3.827739 3.167665,7.680214 0.426961,11.527938 L 87.740416,79.631921 84.751692,36.295414 z"
     id="path8212"
     inkscape:connector-curvature="0"
     sodipodi:nodetypes="cccccccc" />
  <path
     style="fill:#11cce4;fill-opacity:0.22680413;stroke:none"
     d="m 42.269106,81.126283 c 18.158569,8.547226 32.625502,5.609361 45.684791,-1.707842 l 5.337008,2.134803 c 3.230892,23.442086 2.210357,48.984336 2.333892,75.733196 0.168626,36.51248 3.658638,72.78387 13.036693,97.61283 l 5.12353,9.39314 c -4.51974,11.6771 -38.579131,9.09368 -64.898024,10.24705 C 33.686805,271.53095 14.853585,273.97199 5.4406063,262.28266 3.2477075,255.08554 9.3806128,253.43894 11.527938,249.1353 24.485439,195.66007 32.139116,140.85888 35.437735,84.968929 z"
     id="path8218"
     inkscape:connector-curvature="0"
     sodipodi:nodetypes="cccsccccccc" />
  <path
     style="fill:#ffffff;fill-opacity:0.7474227;stroke:none"
     d="m 20.227754,251.18644 c 5.976533,6.64507 19.686668,5.74784 29.255577,6.87937 14.297418,1.69068 29.239168,4.19173 41.088703,-2.95458 8.605278,-2.53524 5.313322,-16.06938 3.019068,-28.68115 l -7.245763,-46.79555 c -2.875366,3.46468 -5.376153,7.30393 -10.566737,8.45339 -8.760491,5.34774 -19.419531,9.14211 -32.605932,10.86865 0.06938,1.66508 -3.630671,-7.43047 -7.54767,-6.491 -4.872821,1.16872 -6.072545,24.33085 -11.561709,40.16737 -4.252295,12.26809 -7.313541,20.54411 -3.835537,18.5535 z"
     id="path8220"
     inkscape:connector-curvature="0"
     sodipodi:nodetypes="cscccccssc" />
  <path
     style="fill:#000000"
     d="m 37.422817,274.258 c -13.49179,-1.09275 -28.6378595,-5.4461 -31.5385195,-9.06494 -2.63925,-3.29272 -2.52885,-5.96776 0.41947,-10.16457 5.0399895,-7.17419 7.8517995,-17.19493 10.2843395,-36.65137 0.65325,-5.225 2.93095,-17.375 5.06154,-27 4.43797,-20.04869 8.69808,-52.96585 9.96527,-77 1.36,-25.794636 1.83661,-28.972036 4.75086,-31.672876 1.38106,-1.27992 3.07817,-2.32712 3.77137,-2.32712 0.74197,0 1.05781,-0.77457 0.76789,-1.88319 -0.27085,-1.03576 0.21764,-3.25638 1.08555,-4.93473 1.0627,-2.05503 1.3051,-3.78926 0.74229,-5.31067 -0.51886,-1.40261 -0.32622,-3.952025 0.50808,-6.72421 0.73908,-2.455787 1.34598,-6.981048 1.34866,-10.056136 0.005,-6.176127 5.21386,-21.736688 9.16891,-27.392504 4.35485,-6.227521 9.27198,-11.705268 10.99948,-12.253555 1.03707,-0.329155 3.94761,0.850236 7.14362,2.894698 4.15236,2.656234 6.20267,4.912566 8.90992,9.805231 5.04608,9.119472 5.95824,12.747466 5.81449,23.126287 -0.0703,5.075826 -0.13725,10.353774 -0.14878,11.728774 -0.0115,1.375 0.25692,4.3 0.59655,6.500005 0.33962,2.2 0.85779,5.82866 1.15149,8.0637 0.43112,3.28087 1.06447,4.26394 3.28772,5.10312 4.67326,1.76396 5.17142,7.50303 5.61609,64.700576 0.37514,48.2544 0.53876,52.08951 2.906883,68.1326 1.38016,9.35 3.73515,22.35494 5.23332,28.89986 2.25555,9.85364 3.30185,12.59157 6.0848,15.92254 3.46638,4.149 3.72269,7.1624 0.90025,10.58452 -2.10011,2.54632 -9.50342,5.16331 -18.925983,6.69014 -9.61823,1.55854 -38.36512,1.70448 -55.90556,0.28382 z m 58.05562,-2.83027 c 14.519383,-2.12899 19.333403,-6.25222 14.414843,-12.34639 -3.7484,-4.64433 -7.64412,-19.71922 -11.294243,-43.70422 -0.62776,-4.125 -1.60969,-10.2 -2.18208,-13.5 -0.58802,-3.3901 -1.20713,-27.96664 -1.42331,-56.5 -0.36591,-48.296456 -1.18574,-63.126016 -3.57135,-64.600396 -0.54061,-0.33412 -3.6125,0.57259 -6.82641,2.01491 -8.95808,4.02015 -15.80796,4.94941 -26.86827,3.645 -5.20225,-0.61354 -10.88957,-1.79454 -12.63849,-2.62446 -3.73204,-1.77097 -7.97735,-0.67094 -8.92423,2.31239 -0.90629,2.85548 -1.597,11.41196 -2.11921,26.252556 -0.26128,7.425 -0.71302,14.5427 -1.00389,15.81711 -0.29086,1.27441 -1.61201,11.84941 -2.93587,23.5 -1.32387,11.65059 -3.8335,27.70789 -5.57695,35.68289 -3.46962,15.87093 -5.29573,25.98939 -7.03843,39 -1.52217,11.36413 -5.47615,24.74791 -8.4714595,28.67497 -5.03633,6.60297 -2.85299,9.58406 9.7672995,13.33612 6.50297,1.93336 13.12806,3.08295 20.45793,3.54989 5.96223,0.37982 10.97848,0.80953 11.14722,0.95492 0.82402,0.71002 38.63124,-0.51869 45.0869,-1.46529 z m -7.34722,-11.19702 c 0.59882,-1.88672 0.39525,-2.06254 -1.68262,-1.45327 -1.30012,0.38122 -6.79185,1.21651 -12.20385,1.8562 -8.62872,1.0199 -11.09065,0.93249 -20,-0.71017 -5.588,-1.03028 -14.21,-2.14069 -19.16,-2.46757 -4.95,-0.32688 -10.125,-1.21115 -11.5,-1.96505 -6.77422,-3.71425 -7.43311,-6.4935 -3.52802,-14.88147 2.39768,-5.1501 3.48012,-9.37943 7.6096,-29.73226 1.11592,-5.5 2.23396,-10.9 2.48454,-12 0.25057,-1.1 1.53127,-3.30166 2.84599,-4.89259 l 2.3904,-2.89258 3.47056,2.14492 3.47056,2.14493 0.68222,-4.25234 c 1.23987,-7.72836 2.56974,-19.04343 4.14324,-35.25234 1.36602,-14.07165 1.53577,-21.61886 1.13583,-50.5 -0.0502,-3.62201 0.32732,-6.391026 0.85253,-6.253886 1.66807,0.43555 1.65187,36.546466 -0.0245,54.753886 -1.86408,20.24552 -4.50246,41.63693 -5.29367,42.91994 -0.32703,0.53029 0.24339,0.60151 1.34673,0.16815 1.05272,-0.41348 4.16404,-0.85999 6.91404,-0.99224 6.57238,-0.31608 10.83527,-1.87542 17.92935,-6.55844 1.61114,-1.06357 3.36981,-1.66153 3.90817,-1.32881 0.62515,0.38636 0.74782,-1.89062 0.33951,-6.30183 -0.69088,-7.464 -1.0256,-81.39154 -0.37147,-82.045666 0.92647,-0.92646 1.67606,20.285786 1.75414,49.638896 0.0461,17.325 0.32896,32.7375 0.62862,34.25 0.89093,4.49691 3.17388,3.60052 8.27715,-3.25 1.0243,-1.375 2.19524,-2.16836 2.60208,-1.76303 0.40685,0.40533 0.86963,4.23033 1.02841,8.5 0.15878,4.26967 1.17004,11.58803 2.24725,16.26303 2.32239,10.07904 3.08686,14.92255 3.31449,21 0.0927,2.475 0.70788,5.625 1.36706,7 0.65917,1.375 1.46709,5.85209 1.79538,9.9491 0.51321,6.40487 0.3109,7.91182 -1.44319,10.75 -1.12204,1.81549 -2.44733,3.3009 -2.94509,3.3009 -0.49776,0 -1.5631,1.575 -2.36741,3.5 -1.59018,3.80583 -3.12252,4.83367 -2.01798,1.35359 z m -4.19427,-2.88545 c 4.42187,-1.28401 4.42104,-1.22435 0.17371,-12.41643 -3.91693,-10.32144 -8.52591,-34.60461 -8.52591,-44.92013 0,-2.40987 -0.2836,-5.79956 -0.63021,-7.53264 -0.53039,-2.65193 -0.96599,-3.04572 -2.75,-2.48602 -1.16589,0.36577 -3.1108,1.7275 -4.32204,3.02606 -1.21124,1.29856 -3.24861,2.36102 -4.5275,2.36102 -1.27888,0 -3.34449,0.71391 -4.59025,1.58647 -1.42512,0.9982 -3.82517,1.47622 -6.4725,1.28913 -6.45298,-0.45603 -8.53923,0.65436 -9.26419,4.93076 -0.3444,2.0315 -1.03033,5.26864 -1.52429,7.19364 -0.61546,2.39848 -0.55107,3.61678 0.20459,3.87105 0.71647,0.24109 0.62524,0.67354 -0.26046,1.23469 -0.99822,0.63243 -1.02851,0.86773 -0.11315,0.87895 0.75605,0.009 0.45968,0.80563 -0.75,2.01531 -2.99057,2.99057 -2.45539,3.98199 2.25,4.1681 l 4.25,0.16811 -4,0.39872 c -6.17944,0.61597 -6.73205,2.26507 -0.75902,2.26507 2.82754,0 5.35022,0.3375 5.60596,0.75 0.25574,0.4125 -1.79944,0.59024 -4.56706,0.39498 -3.46427,-0.2444 -5.29955,0.0671 -5.89065,1 -1.50816,2.38012 -0.98273,2.8515 3.36077,3.01506 3.98328,0.14999 4.03035,0.18379 0.75,0.53853 -6.68031,0.72243 -6.46274,1.74224 0.5,2.34364 l 7,0.60462 -6.75,0.17658 c -9.06813,0.23723 -8.66752,2.12809 0.5,2.35997 l 7.25,0.18338 -7.92108,0.56662 c -10.4774,0.74948 -11.06845,2.59836 -1.12843,3.52981 4.14489,0.38841 7.74482,1.04381 7.99984,1.45644 0.25502,0.41264 -1.65448,0.40135 -4.24333,-0.0251 -7.8024,-1.28518 -12.207,-1.08306 -12.207,0.56016 0,1.41726 2.23384,2.06801 10,2.91314 1.925,0.20949 0.22287,0.27907 -3.78252,0.15463 -4.00538,-0.12444 -7.51128,0.1439 -7.79089,0.59632 -0.59085,0.95601 1.30767,1.40084 11.57341,2.71169 l 7.5,0.95769 -9.75,-0.53109 c -6.13784,-0.33433 -9.75,-0.16357 -9.75,0.46091 0,1.06842 11.99263,2.9825 26.5,4.22953 l 9,0.77362 -12.66667,0.13944 c -6.96666,0.0767 -12.81666,-0.26842 -13,-0.76689 -0.18333,-0.49848 -2.8559,-1.21722 -5.93905,-1.5972 -4.63464,-0.57119 -5.71188,-0.41419 -6.21861,0.90632 -0.51611,1.34496 0.29022,1.60517 5.10571,1.64764 3.14524,0.0277 9.99362,0.9134 15.21862,1.96814 10.36999,2.09332 28.05642,2.06809 35.3522,-0.0504 z m -39.5397,-39.65125 c 0.72187,-0.28887 1.58437,-0.25335 1.91667,0.0789 0.33229,0.33229 -0.25834,0.56864 -1.3125,0.52522 -1.16495,-0.048 -1.4019,-0.28494 -0.60417,-0.60416 z m -17.8125,34.68311 c 0,-1.1 0.45,-2 1,-2 2.0806,0 0.89723,-2.0054 -1.25,-2.11831 -1.79646,-0.0945 -1.64528,-0.26438 0.75,-0.84291 3.15961,-0.76315 2.31484,-1.55843 -2.5,-2.35356 -1.50442,-0.24844 -0.80751,-0.46709 1.75,-0.54904 4.64174,-0.14873 6.09517,-2.64168 2,-3.43045 -1.92915,-0.37157 -1.85785,-0.45279 0.5,-0.56955 3.07827,-0.15244 3.82022,-2.70985 1,-3.44685 -1.31691,-0.34415 -1.19317,-0.48604 0.5,-0.57333 3.94929,-0.20361 2.40998,-2.116 -1.70321,-2.116 -3.75083,0 -4.06212,0.24316 -6.08077,4.75 -3.52584,7.87181 -3.61661,10.59309 -0.43675,13.09437 3.40674,2.67974 4.47073,2.71678 4.47073,0.15563 z m 66.91683,-0.62139 c 1.78882,-2.27413 1.98986,-3.56574 1.51756,-9.75 -0.29944,-3.92074 -0.93734,-8.47861 -1.41756,-10.12861 -0.48022,-1.65 -1.37972,-7.05 -1.99888,-12 -0.61916,-4.95 -1.97983,-12.375 -3.02371,-16.5 -1.04387,-4.125 -2.2051,-10.5213 -2.5805,-14.21399 l -0.68255,-6.71399 -1.84978,2.35161 c -1.01738,1.29339 -2.9819,2.63576 -4.3656,2.98304 -2.98639,0.74954 -2.97724,0.59772 -1.09005,18.09333 1.30802,12.12626 4.19505,27.36023 6.7277,35.5 1.84701,5.93615 5.05133,13 5.8971,13 0.44235,0 1.73217,-1.17963 2.86627,-2.62139 z m -59.91683,-19.37861 c 0,-0.55 -1.77344,-1 -3.94098,-1 -2.16755,0 -4.2191,0.45 -4.55902,1 -0.3775,0.61081 1.15628,1 3.94098,1 2.50746,0 4.55902,-0.45 4.55902,-1 z m 1,-2.41821 c 0,-0.23002 0.27314,-1.13002 0.60699,-2 0.48341,-1.25976 -0.17825,-1.61437 -3.25,-1.74183 l -3.85699,-0.16003 3.5,-0.41126 c 5.81418,-0.68319 5.95395,-2.26867 0.2,-2.26867 -3.48605,0 -5.2045,0.41201 -5.21366,1.25 -0.007,0.6875 -0.28499,2.2625 -0.61663,3.5 -0.56157,2.09549 -0.28595,2.25 4.01366,2.25 2.53914,0 4.61663,-0.1882 4.61663,-0.41821 z m 2.15,-8.58179 c 0.44772,-2.98479 0.0939,-3.53512 -2.65,-4.12186 -2.8307,-0.60531 -2.77897,-0.64819 0.91667,-0.75983 2.15416,-0.0651 3.62479,-0.41018 3.26807,-0.76691 -1.10721,-1.1072 -9.68474,-1.61725 -9.68474,-0.57588 0,0.53596 -0.28125,2.38073 -0.625,4.09948 l -0.625,3.125 4.625,0 c 2.54375,0 4.6925,-0.45 4.775,-1 z m 1.85,-7.93963 c 0,-0.5168 -1.6875,-1.11616 -3.75,-1.3319 l -3.75,-0.39226 4.25,-0.16811 c 5.25223,-0.20774 5.465,-1.45437 0.5,-2.92957 l -3.75,-1.11421 4.11208,0.50244 c 3.96539,0.48451 4.13484,0.38865 4.75,-2.68716 1.25142,-6.25711 0.77988,-8.35165 -2.27088,-10.08712 -2.10233,-1.19594 -3.19699,-1.34669 -3.99368,-0.55 -1.86481,1.86481 -1.23141,2.69274 2.15248,2.81352 1.92067,0.0686 2.43195,0.28899 1.25,0.53894 -6.88821,1.45662 -7.17803,1.68745 -3,2.3893 l 4,0.67195 -3.75,0.1419 c -5.113,0.19349 -4.75129,1.93673 0.5,2.4097 l 4.25,0.3828 -4.75,0.1747 c -3.27893,0.1206 -4.75,0.60055 -4.75,1.54971 0,0.75625 -0.27558,2.7529 -0.6124,4.43701 -0.60032,3.00157 -0.5263,3.06967 3.75,3.45029 2.39932,0.21356 4.4749,0.4669 4.6124,0.56299 0.1375,0.0961 0.25,-0.24813 0.25,-0.76492 z M 79.402177,82.757814 c 5.23164,-1.73152 7.18257,-3.65237 7.18257,-7.07182 0,-2.73001 -1.5602,-2.88081 -10.5,-1.01484 -5.0389,1.05176 -7.84211,0.99237 -17.5,-0.37073 -6.325,-0.8927 -11.88284,-1.41106 -12.35075,-1.15192 -1.37846,0.76344 0.20839,6.44734 2.35949,8.45139 4.05318,3.7761 20.97631,4.41214 30.80869,1.15792 z m -1.81743,-10.33523 c 3.575,-0.5667 6.7625,-1.03376 7.08333,-1.03791 0.76101,-0.01 0.91442,-2.89437 0.31105,-5.84848 -0.34379,-1.683203 -0.94136,-2.163158 -2.12686,-1.70824 -3.49425,1.34087 -21.11626,2.34165 -28.26752,1.60536 -4.125,-0.42471 -7.87227,-0.44133 -8.32727,-0.0369 -1.72854,1.53632 4.2404,5.84545 9.05866,6.53969 2.62273,0.37789 6.56861,1.02742 8.76861,1.44338 2.2,0.41597 4.675,0.60267 5.5,0.41489 0.825,-0.18777 4.425,-0.80507 8,-1.37177 z m 2.30997,-9.651539 c 3.84353,-0.792212 4.8701,-4.030137 4.76611,-15.032789 -0.0962,-10.173708 -1.17796,-14.055245 -6.38847,-22.921921 -3.90614,-6.647034 -7.7023,-9.331372 -9.73412,-6.883178 -0.65911,0.794179 -1.8324,1.443962 -2.60732,1.443962 -1.97336,0 -2.92344,-3.025192 -1.27085,-4.046552 0.75172,-0.464586 1.10504,-1.106418 0.78517,-1.426293 -0.31988,-0.319875 -1.75865,0.961615 -3.19728,2.847756 -2.11924,2.778465 -2.33551,3.536863 -1.13945,3.995833 0.81193,0.311567 1.47624,1.432465 1.47624,2.490882 0,2.624469 -3.12,3.694757 -4.65421,1.596589 -1.05881,-1.448002 -1.46352,-1.14778 -3.29671,2.445575 -1.14935,2.252915 -1.74308,4.103101 -1.31941,4.111523 0.42368,0.0084 0.0953,0.451531 -0.72967,0.984687 -1,0.64625 -1.08333,0.974479 -0.25,0.984687 0.6875,0.0084 1.25,0.513458 1.25,1.122302 0,0.608844 -0.675,0.847967 -1.5,0.531385 -0.825,-0.316583 -1.5,-0.177228 -1.5,0.309677 0,0.486905 0.5625,1.112256 1.25,1.389668 0.74674,0.301317 0.54544,0.536171 -0.5,0.583334 -0.9625,0.04342 -1.75,0.492143 -1.75,0.99716 0,0.505016 -0.25804,1.590657 -0.57343,2.412535 -0.35412,0.922824 0.12394,1.674632 1.25,1.965786 1.46238,0.378112 1.37792,0.494432 -0.42657,0.587465 -2.68627,0.138493 -2.93033,1.620366 -0.5,3.035902 1.52949,0.890847 1.43498,1.027578 -0.75,1.085126 l -2.5,0.06584 2.5,1.429129 c 1.375,0.786021 1.91094,1.445075 1.19098,1.464565 -0.71996,0.01949 -1.0309,0.485435 -0.69098,1.035435 0.33992,0.55 -0.19603,1.031628 -1.19098,1.070285 -1.61478,0.06274 -1.59427,0.162568 0.19098,0.929715 2,0.859429 2,0.859429 0,1.029395 -1.69894,0.14438 -1.62367,0.290487 0.5,0.970605 l 2.5,0.80064 -2.5,0.178627 c -1.375,0.09824 -1.9347,0.406536 -1.24377,0.685091 0.69093,0.278554 1.00187,0.918028 0.69098,1.421052 -0.31088,0.503025 0.47381,0.959446 1.74377,1.01427 2.27794,0.09834 2.27537,0.110457 -0.19098,0.90032 -1.375,0.440352 -1.91094,0.845496 -1.19098,0.90032 0.71995,0.05482 1.04641,0.524573 0.72546,1.043887 -1.02945,1.665693 23.161,2.019185 30.77549,0.449719 z m -15.4373,-37.047349 c -0.94955,-1.144137 -0.86883,-1.778987 0.38569,-3.03351 1.95455,-1.954545 4.74164,-1.049983 4.74164,1.538917 0,2.405095 -3.5201,3.431188 -5.12733,1.494593 z m 3.62733,-1.346577 c 0.33992,-0.55 -0.11008,-1 -1,-1 -0.88992,0 -1.33992,0.45 -1,1 0.33992,0.55 0.78992,1 1,1 0.21008,0 0.66008,-0.45 1,-1 z m 3.67031,0.25 c -1.80542,-3.510325 1.24395,-5.86562 3.7245,-2.876748 1.37182,1.652945 0.42917,4.626748 -1.46662,4.626748 -0.7468,0 -1.76285,-0.7875 -2.25788,-1.75 z"
     id="path7654"
     inkscape:connector-curvature="0" />
</svg>
