<?xml version="1.0" encoding="UTF-8" standalone="no"?>
<!-- Created with Inkscape (http://www.inkscape.org/) -->

<svg
   xmlns:dc="http://purl.org/dc/elements/1.1/"
   xmlns:cc="http://creativecommons.org/ns#"
   xmlns:rdf="http://www.w3.org/1999/02/22-rdf-syntax-ns#"
   xmlns:svg="http://www.w3.org/2000/svg"
   xmlns="http://www.w3.org/2000/svg"
   xmlns:sodipodi="http://sodipodi.sourceforge.net/DTD/sodipodi-0.dtd"
   xmlns:inkscape="http://www.inkscape.org/namespaces/inkscape"
   id="svg6354"
   version="1.1"
   inkscape:version="0.48.4 r9939"
   width="376"
   height="246"
   sodipodi:docname="SignatureGear.png">
  <metadata
     id="metadata6360">
    <rdf:RDF>
      <cc:Work
         rdf:about="">
        <dc:format>image/svg+xml</dc:format>
        <dc:type
           rdf:resource="http://purl.org/dc/dcmitype/StillImage" />
        <dc:title></dc:title>
      </cc:Work>
    </rdf:RDF>
  </metadata>
  <defs
     id="defs6358">
    <filter
       inkscape:collect="always"
       id="filter6882"
       x="-0.37023105"
       width="1.7404621"
       y="-0.21486632"
       height="1.4297326">
      <feGaussianBlur
         inkscape:collect="always"
         stdDeviation="2.8135724"
         id="feGaussianBlur6884" />
    </filter>
    <filter
       inkscape:collect="always"
       id="filter6888"
       x="-0.29027605"
       width="1.5805521"
       y="-0.23560471"
       height="1.4712094">
      <feGaussianBlur
         inkscape:collect="always"
         stdDeviation="2.8372206"
         id="feGaussianBlur6890" />
    </filter>
    <filter
       inkscape:collect="always"
       id="filter6894"
       x="-0.43411974"
       width="1.8682395"
       y="-0.23793105"
       height="1.4758621">
      <feGaussianBlur
         inkscape:collect="always"
         stdDeviation="2.8930517"
         id="feGaussianBlur6896" />
    </filter>
  </defs>
  <sodipodi:namedview
     pagecolor="#ffffff"
     bordercolor="#666666"
     borderopacity="1"
     objecttolerance="10"
     gridtolerance="10"
     guidetolerance="10"
     inkscape:pageopacity="0"
     inkscape:pageshadow="2"
     inkscape:window-width="1262"
     inkscape:window-height="747"
     id="namedview6356"
     showgrid="false"
     inkscape:zoom="1.2600041"
     inkscape:cx="275.90663"
     inkscape:cy="128.44162"
     inkscape:window-x="11"
     inkscape:window-y="22"
     inkscape:window-maximized="0"
     inkscape:current-layer="svg6354" />
  <path
     style="fill:#99752f;fill-opacity:1;stroke:none"
     d="m 85.317182,101.95285 1.190473,37.69829 c 21.860355,17.39378 57.136605,13.54571 91.269545,11.5079 34.20887,-7.08815 77.57533,-10.47852 109.21879,-47.89949 -2.90496,-7.280196 -6.32593,-13.062293 -5.25088,-24.322498 45.68207,2.236846 56.60224,13.164169 76.58706,21.825328 13.47293,11.11107 12.43705,22.22215 -7.93649,33.33322 -22.09624,16.03873 -50.25308,21.97644 -75.39658,32.9364 -35.06278,17.01849 -68.9809,39.18799 -105.95203,47.6189 -40.62205,10.13613 -128.670452,15.13871 -142.856679,-40.67447 1.381717,-28.22312 5.821818,-55.74281 59.126791,-72.02358 z"
     id="path6876"
     inkscape:connector-curvature="0"
     sodipodi:nodetypes="ccccccccccc" />
  <path
     style="fill:#99752f;fill-opacity:1;stroke:none"
     d="m 86.423881,111.31343 c 56.188329,22.74467 66.309839,13.0986 91.474629,14.02985 l 2.24477,-3.92835 c 10.5175,-1.57747 20.26072,-3.24365 31.28657,-1.26269 l 2.38508,2.94627 c 11.96413,-2.78969 16.45999,-6.25832 23.00895,-9.5403 8.08308,-5.39438 13.00022,-11.73854 25.81493,-15.713434 12.48965,-6.360199 12.49952,-12.720398 17.39701,-19.080597 -7.18066,-20.396916 -9.37117,-41.729483 -24.13134,-60.705241 -9.5403,-7.248361 -19.0806,-5.196261 -28.6209,-5.515655 L 130.95662,23.109684 C 111.50177,30.659272 101.54829,38.864238 88.113304,49.020895 84.783077,70.70295 86.898506,90.578614 86.423881,111.31343 z"
     id="path6366"
     inkscape:connector-curvature="0"
     sodipodi:nodetypes="ccccccccccccc" />
  <path
     style="fill:#543121;fill-opacity:1;stroke:none"
     d="m 86.110831,110.68298 0.81772,30.22671 c 17.450409,13.93367 35.345699,11.40683 53.150359,12.23347 l 46.42842,-3.66358 c 33.14012,-1.09585 44.59928,-12.59257 65.07915,-19.35222 18.46776,-6.22663 26.72442,-16.34085 35.24513,-27.35679 l -7.46744,-24.230342 c -2.05899,7.870096 -7.81882,13.766411 -15.47614,18.650733 -14.92215,4.403509 -19.68333,11.795539 -28.96816,17.857089 l -21.4285,7.53965 c -1.82968,-1.56527 -2.02367,-3.45769 -9.12696,-3.96824 l -24.62717,2.72963 c -1.12022,1.08204 0.39339,1.82103 -3.54734,4.41321 -26.60628,0.10367 -50.6268,4.08599 -90.079069,-15.07932 z"
     id="path6878"
     inkscape:connector-curvature="0"
     sodipodi:nodetypes="cccccccccccccc" />
  <path
     style="fill:#000000"
     d="m 104.75522,221.92134 c -36.885217,-2.28361 -72.603107,-20.52633 -77.884327,-39.77899 -3.99811,-14.57514 -1.78383,-31.06574 5.97562,-44.50255 4.90732,-8.49788 17.80175,-21.54656 26.37001,-26.68548 5.84746,-3.50708 20.25845,-9.07671 23.4853,-9.07671 1.66585,0 1.85289,-1.78998 2.48173,-23.749998 0.81206,-28.358214 0.9089,-30.131595 1.63377,-29.916667 0.67517,0.200193 19.735337,-13.196564 20.472627,-14.389531 1.15801,-1.873693 19.47899,-10.972791 24.97716,-12.404882 3.24957,-0.846406 9.97626,-1.542612 14.94821,-1.547125 9.0542,-0.0082 21.79305,-1.133386 33.0399,-2.918274 3.3,-0.523713 17.76365,-2.187042 32.14145,-3.696285 30.5364,-3.205417 33.44102,-2.949374 42.83248,3.775706 3.11089,2.227661 5.43122,4.275239 5.15629,4.550174 -0.27494,0.274934 -3.11671,-1.108187 -6.31505,-3.073603 -9.84629,-6.050653 -12.40938,-6.253559 -40.86671,-3.235203 -13.72165,1.455401 -29.89846,3.343495 -35.94846,4.195764 -6.05,0.852268 -18.2,1.932493 -27,2.400499 -8.8,0.468006 -17.49959,1.315808 -19.33242,1.884005 -4.34956,1.348411 -19.57894,9.59749 -24.11634,13.062753 -1.95318,1.491668 -6.70124,5.078228 -10.551237,7.970133 -5.10539,3.834887 -7.21889,6.115257 -7.80872,8.425273 -0.4448,1.741995 -1.03218,15.092263 -1.3053,29.667263 -0.39132,20.882828 -0.21989,26.851458 0.80872,28.158068 1.83007,2.32467 25.645297,9.28251 42.121867,12.3063 14.14501,2.59591 23.05173,2.98445 37.18343,1.6221 4.4,-0.42418 8.39529,-0.55489 8.87842,-0.29047 2.2284,1.21962 -3.35684,2.32422 -14.60076,2.8876 -17.24446,0.86403 -19.12235,0.86137 -29.60356,-0.0419 -7.16374,-0.61737 -9.20656,-1.11471 -8.81115,-2.14513 0.35735,-0.93125 -0.74664,-1.55454 -3.61046,-2.03838 -2.26886,-0.38332 -9.93048,-2.44322 -17.02581,-4.57756 -13.671727,-4.11259 -14.726677,-4.33442 -14.726677,-3.09666 0,0.43118 4.28952,2.07265 9.53227,3.6477 5.242737,1.57505 9.766107,3.24211 10.051927,3.70457 0.28582,0.46247 -0.0662,0.6456 -0.78226,0.40696 -0.71607,-0.23864 -4.45194,-1.37125 -8.301937,-2.5169 -3.85,-1.14566 -7.7875,-2.32558 -8.75,-2.62205 -1.46405,-0.45095 -1.75,0.11204 -1.75,3.4455 0,3.98305 0.002,3.98493 5.10832,5.08006 13.380607,2.86963 19.298347,4.40548 18.304597,4.75065 -0.5979,0.20768 -6.13258,-0.68494 -12.299297,-1.98359 l -11.21221,-2.36119 0.29929,4.02505 c 0.29635,3.98535 0.35354,4.03847 5.7993,5.38715 10.903887,2.70042 13.194447,3.391 12.743417,3.84204 -0.25216,0.25215 -4.4117,-0.46331 -9.243417,-1.58992 -4.83172,-1.12661 -9.00143,-1.8319 -9.26601,-1.56732 -1.51627,1.51627 1.37497,3.41728 6.92476,4.55307 3.48769,0.71376 6.768747,1.68397 7.291247,2.156 1.19905,1.08324 0.16733,1.07001 -4.699997,-0.0603 -2.0625,-0.47895 -3.75,-0.70447 -3.75,-0.50113 0,0.90841 9.827977,4.71401 15.860567,6.14154 8.8472,2.09357 27.96642,2.65498 42.13943,1.23737 6.325,-0.63264 14.12199,-1.0879 17.32663,-1.01168 9.80049,0.23309 10.00051,0.0516 9.44707,-8.57211 -0.26157,-4.07586 -0.78213,-7.7172 -1.15679,-8.09186 -0.37465,-0.37466 -2.75227,-0.12727 -5.28358,0.54975 -2.53131,0.67703 -4.83125,1.00208 -5.11098,0.72235 -0.57853,-0.57853 0.52158,-1.00742 6.52765,-2.54485 2.3375,-0.59836 4.25,-1.52057 4.25,-2.04937 0,-1.27228 -3.7095,-1.24051 -4.5,0.0385 -0.33992,0.55 -1.74303,1 -3.11803,1 -3.62604,0 -1.94994,-1.8076 2.40311,-2.59166 4.88673,-0.88018 6.37961,-2.18988 6.01499,-5.27694 -0.25699,-2.17584 0.20243,-2.65402 3.19993,-3.33067 1.925,-0.43454 8.80767,-1.08719 15.29482,-1.45032 11.21658,-0.62788 11.94476,-0.5494 14.85314,1.60086 l 3.05831,2.2611 6.14686,-2.53327 c 3.38078,-1.3933 7.27187,-2.85681 8.64687,-3.25224 1.375,-0.39544 4.39723,-2.11575 6.71607,-3.82292 8.3965,-6.18165 9.80836,-7.15421 14.86142,-10.23731 2.8245,-1.72336 6.88754,-3.738514 9.02898,-4.478135 2.14144,-0.739621 5.4054,-2.458174 7.25325,-3.819007 4.11902,-3.033423 10.17834,-11.806717 9.45545,-13.69055 -0.29103,-0.758375 -0.0929,-1.378896 0.44032,-1.378896 2.36791,0 -7.92981,-34.565846 -13.71687,-46.042741 -4.42321,-8.772086 -4.48623,-8.957259 -3.04866,-8.957259 2.13603,0 10.03939,18.292974 14.50297,33.568291 6.66552,22.810861 5.52166,21.051255 13.40138,20.615363 7.59312,-0.420037 28.87239,4.039752 43.10569,9.034253 9.12658,3.20254 24.28906,10.648429 28.61787,14.053471 3.97277,3.12497 8.38213,10.6656 8.38213,14.3346 0,2.22858 -1.20095,4.73374 -3.91579,8.16827 -9.86523,12.48045 -24.09478,20.31114 -58.65401,32.27797 -22.4904,7.78775 -30.78655,11.32326 -47.9302,20.42606 -57.84619,30.71472 -68.29746,35.03372 -101.60056,41.98657 -19.37358,4.04472 -31.20129,4.86033 -51.89944,3.57888 z m 45.70773,-4.50006 c 18.45885,-3.49474 28.57978,-5.99125 38.79227,-9.5688 10.13585,-3.55071 35.50774,-15.76607 55,-26.47991 27.74891,-15.25206 35.2392,-18.56092 66.92333,-29.56362 31.33992,-10.88316 47.87715,-20.94279 54.0492,-32.87821 3.20205,-6.19209 -1.95447,-14.42994 -12.84163,-20.51532 -19.39794,-10.842472 -60.24673,-21.377066 -68.70121,-17.717523 -1.41926,0.614328 -1.39997,1.537303 0.20055,9.594552 0.97397,4.90316 2.44408,9.588053 3.26691,10.410881 1.32806,1.32806 1.16035,1.9635 -1.49363,5.65909 -10.17361,14.16651 -26.47824,24.06289 -57.40352,34.84209 -19.99212,6.96838 -36.54495,9.89679 -63.5,11.23398 -6.325,0.31378 -14.65,0.96614 -18.5,1.4497 -14.45996,1.81616 -40.38739,-1.43617 -49.999997,-6.27199 -7.35846,-3.70182 -12.67125,-7.82189 -11.69928,-9.07279 0.49821,-0.64119 0.78832,-6.5658 0.64469,-13.1658 -0.14364,-6.6 -0.27923,-14.16228 -0.30133,-16.80506 l -0.0402,-4.80506 -3.80195,0.6752 c -16.01468,2.84409 -34.05368,15.52649 -44.36625,31.19188 -6.81757,10.35629 -9.32766,18.47071 -9.35531,30.24304 -0.0385,16.37682 3.85432,24.40028 16.33992,33.67848 24.75594,18.39643 66.815647,25.43288 106.787417,17.86519 z m 12.87242,-21.88007 c -2.15592,-0.65049 -4.09961,-1.72197 -4.31931,-2.38108 -0.26847,-0.8054 0.63226,-0.68369 2.74674,0.37115 2.19055,1.09279 5.04342,1.44872 9.39226,1.17181 5.36046,-0.34133 8.43335,-1.48402 21.67311,-8.05939 16.17837,-8.0348 31.0167,-14.1261 36.92705,-15.15898 4.36737,-0.76323 2.6118,0.0464 -9.5,4.38119 -4.95,1.77159 -16.2,6.72517 -25,11.00795 -22.01997,10.71666 -23.65569,11.16081 -31.91985,8.66735 z M 62.812683,182.81834 c -14.99911,-6.80432 -20.83679,-20.28107 -14.5937,-33.69073 1.34433,-2.8875 2.84612,-5.25 3.33733,-5.25 0.4912,0 -0.20053,2.2098 -1.53718,4.91067 -6.99812,14.14064 -1.3314,26.7574 15.02375,33.44982 3.41679,1.39813 5.31234,2.5541 4.21234,2.56882 -1.1,0.0147 -3.99914,-0.88014 -6.44254,-1.98858 z M 309.83855,136.48403 c 0.22917,-0.21646 4.8999,-1.58127 10.3794,-3.03289 9.49627,-2.51575 20.83697,-7.81986 23.4491,-10.96729 0.66947,-0.80667 1.07568,-3.17435 0.9027,-5.26153 -0.26872,-3.24217 -0.8971,-4.12709 -4.31453,-6.07593 -2.2,-1.25459 -6.025,-2.92196 -8.5,-3.70527 -3.24097,-1.02573 -3.80054,-1.43755 -2,-1.4719 3.13717,-0.0598 10.77812,3.35484 13.75,6.14477 1.65348,1.55225 2.25,3.24633 2.25,6.38989 0,3.9092 -0.36606,4.5284 -4.25,7.18884 -7.08139,4.85067 -12.2579,7.08821 -21.24795,9.18441 -8.39156,1.95666 -11.25684,2.39858 -10.41872,1.6069 z m -105.84757,9.33305 c 6.97058,-1.62446 9.46853,-2.59085 8.7949,-3.40252 -0.51746,-0.62351 -0.96417,-2.6869 -0.99268,-4.58531 -0.0285,-1.8984 -0.076,-6.36695 -0.10557,-9.93011 -0.032,-3.86068 -0.53432,-6.78405 -1.24307,-7.23469 -2.91251,-1.85185 -27.34674,-0.46278 -29.48576,1.67625 -0.77536,0.77536 -0.45601,19.89285 0.3995,23.91518 0.60971,2.8667 0.63688,2.87616 6.75455,2.35417 3.3783,-0.28826 10.52346,-1.5451 15.87813,-2.79297 z m 16.32311,-4.40767 c 1.06762,-0.8075 1.5878,-1.4825 1.15595,-1.5 -1.25069,-0.0506 0.86925,-3.40068 8.31871,-13.1456 3.8248,-5.00338 6.72859,-9.46209 6.45285,-9.90824 -0.66302,-1.07278 -8.42733,1.88423 -11.06642,4.21461 -2.6697,2.3574 -10.7243,16.39442 -10.24036,17.84622 0.20239,0.60717 3.01469,-2.64067 6.24955,-7.21742 6.72361,-9.51271 9.52322,-12.82137 10.84876,-12.82137 0.5111,0 -0.45374,1.57517 -2.1441,3.50038 -3.59121,4.09016 -12.52001,17.43063 -12.88381,19.24962 -0.3326,1.66299 0.93196,1.57961 3.30887,-0.2182 z m 15.25844,-9.17249 c 3.89321,-6.31181 3.95943,-7.06344 0.43269,-4.91078 l -2.75,1.67854 2.73901,-2.50612 c 2.15578,-1.97247 2.56498,-2.9766 1.92169,-4.71558 -0.7459,-2.01635 -1.33491,-1.53656 -6.73902,5.48944 -3.25692,4.23439 -5.92846,8.29182 -5.93675,9.01651 -0.008,0.72468 -0.55751,1.97121 -1.2205,2.77006 -1.02358,1.23334 -0.48314,1.21752 3.58238,-0.10486 4.00979,-1.30425 5.305,-2.3958 7.9705,-6.71721 z m 4.61845,2.23198 c 1.85433,-0.77479 3.6702,-2.34979 4.03527,-3.5 0.36506,-1.15021 1.0693,-2.09129 1.56497,-2.09129 0.49568,0 0.64221,0.675 0.32563,1.5 -0.31659,0.825 -0.35742,1.5 -0.0907,1.5 1.37285,0 8.94911,-3.68217 15.97064,-7.76196 l 7.91351,-4.59806 -0.60203,-3.56999 c -0.33112,-1.96349 -1.59017,-6.14351 -2.79788,-9.28893 -3.54157,-9.223828 -6.72362,-8.821811 -23.5557,2.97601 -4.27805,2.99855 -6.0186,4.7896 -5.42219,5.57954 1.29612,1.7167 3.95104,9.61148 4.6789,13.91339 0.67886,4.01229 -0.83866,5.27088 -1.98821,1.64897 -0.62638,-1.97357 -0.78213,-1.91144 -2.56738,1.02417 -2.84833,4.68369 -2.68928,4.85108 2.53521,2.66815 z m -17.43576,-13.13148 c 0,-0.2529 -0.45991,-0.45981 -1.02202,-0.45981 -1.48357,0 -6.97966,9.02738 -6.96848,11.44578 0.006,1.37299 1.33285,-0.0318 4,-4.23597 2.19478,-3.45961 3.9905,-6.49711 3.9905,-6.75 z m -6.5153,2.69156 c -0.88098,-0.88098 -2.48122,1.18207 -2.44926,3.15765 0.0342,2.11292 0.0847,2.10196 1.41817,-0.30751 0.7605,-1.37417 1.2245,-2.65674 1.03109,-2.85014 z m 61.15173,-11.40137 c 4.98908,-5.23178 8.84129,-10.75 7.50447,-10.75 -0.54741,0 -2.37805,1.67753 -4.0681,3.72784 -3.91104,4.74478 -3.99888,3.53326 -0.13095,-1.80626 1.61801,-2.2336 2.6946,-4.705398 2.39242,-5.49287 -0.38422,-1.001256 -1.44129,-0.200592 -3.5155,2.66277 -1.63134,2.252 -3.20702,3.8536 -3.50151,3.55911 -0.2945,-0.29449 0.46274,-1.93726 1.68274,-3.65059 1.22,-1.713328 1.94311,-3.390221 1.60691,-3.726422 -0.3362,-0.3362 0.11089,-1.409252 0.99353,-2.38456 0.88264,-0.975309 1.42569,-2.310613 1.20678,-2.967344 -0.21891,-0.656731 -1.92759,1.329728 -3.79707,4.414353 -1.86948,3.084625 -3.5975,5.409953 -3.84006,5.167393 -0.24256,-0.24256 1.19494,-3.187305 3.19445,-6.543885 3.55319,-5.964772 4.61843,-9.959533 2.65578,-9.959533 -0.53882,0 -1.88239,1.769468 -2.98571,3.932151 -1.10331,2.162684 -2.50736,4.241988 -3.12009,4.620677 -0.75652,0.467555 -0.72645,-0.0723 0.0937,-1.682151 0.77809,-1.527298 -0.48266,-0.713997 -3.54388,2.286129 l -4.75164,4.656806 2.50447,6.343196 c 1.37745,3.48875 2.80066,7.58069 3.1627,9.09319 0.36203,1.5125 1.00597,2.75 1.43097,2.75 0.42501,0 2.59652,-1.9125 4.82559,-4.25 z M 139.25534,148.7698 c -11.45167,-1.205 -12.5426,-1.86716 -2.00012,-1.21401 4.95,0.30668 9.675,0.94086 10.5,1.4093 0.825,0.46844 1.05,0.80553 0.5,0.7491 -0.55,-0.0564 -4.59995,-0.48141 -8.99988,-0.94439 z m 31.49988,-0.89219 c 1.375,-0.44035 3.4,-0.80064 4.5,-0.80064 1.58367,0 1.47958,0.16667 -0.5,0.80064 -1.375,0.44035 -3.4,0.80064 -4.5,0.80064 -1.58367,0 -1.47958,-0.16667 0.5,-0.80064 z m -19.10871,-3.44204 c -0.24312,-0.24313 -4.48062,-0.75006 -9.41667,-1.12652 -8.55491,-0.65247 -10.32808,-0.98957 -9.39129,-1.78542 0.83774,-0.7117 18.42688,1.46419 19.35732,2.39463 0.52764,0.52764 0.71935,0.95935 0.42602,0.95935 -0.29334,0 -0.73226,-0.19892 -0.97538,-0.44204 z m 13.31907,-0.0523 c 0.3907,-0.41782 2.56439,-1.09871 4.83043,-1.51309 2.26604,-0.41437 3.74638,-0.39223 3.28964,0.0492 -1.06781,1.03205 -9.06427,2.47365 -8.12007,1.46388 z m -26.71036,-4.50566 -8,-0.63324 7,-0.0958 c 3.85,-0.0527 9.25,0.25467 12,0.683 4.65592,0.72519 4.72474,0.77536 1,0.72902 -2.2,-0.0274 -7.6,-0.33473 -12,-0.68301 z m 26,-1 c 0.33992,-0.55 1.60398,-0.99311 2.80902,-0.98469 1.78123,0.0125 1.91046,0.1966 0.69098,0.98469 -1.97012,1.27319 -4.28687,1.27319 -3.5,0 z m 8.3125,-1.68311 c 0.72187,-0.28887 1.58437,-0.25335 1.91667,0.0789 0.33229,0.33229 -0.25834,0.56864 -1.3125,0.52522 -1.16495,-0.048 -1.4019,-0.28494 -0.60417,-0.60416 z m -36.19344,-1.41418 c -4.33452,-0.4572 -8.11303,-1.06334 -8.39668,-1.347 -0.66352,-0.66351 15.03472,0.47164 20.27762,1.4663 l 4,0.75886 -4,-0.0234 c -2.2,-0.0129 -7.54642,-0.39752 -11.88094,-0.85471 z m -36.555337,-1.47539 c -8.23965,-1.50283 -10.60353,-2.22085 -9.83658,-2.9878 0.55438,-0.55437 18.752747,3.20704 19.595997,4.05029 0.70858,0.70858 -1.17103,0.50395 -9.759417,-1.06249 z m 37.767187,-2.33466 c -3.66799,-0.32596 -7.00615,-0.93082 -7.41812,-1.34412 -0.99399,-0.9972 14.65982,0.28175 16.58721,1.35522 1.69931,0.94643 1.60455,0.94631 -9.16909,-0.0111 z m -37.679437,-6.08554 c -6.98378,-1.95357 -11.63671,-3.85521 -10.99734,-4.49458 0.41175,-0.41175 15.555307,3.8967 19.345867,5.50403 2,0.84807 2,0.84807 0,0.80725 -1.1,-0.0225 -4.85684,-0.83997 -8.348527,-1.8167 z m 56.912247,-24.51288 c -4.08995,-0.78277 -7.99838,-1.638918 -8.68539,-1.902558 -0.68701,-0.26363 -1.46893,0.0579 -1.73759,0.714498 -0.36976,0.90367 -0.70676,0.88491 -1.38659,-0.0772 -0.88831,-1.257063 -15.25415,-8.539563 -15.25415,-7.732768 0,0.229959 -2.025,-1.746781 -4.5,-4.392756 -2.475,-2.645975 -4.5,-5.384571 -4.5,-6.085768 0,-0.701197 1.72443,0.668289 3.83207,3.043303 l 3.83208,4.318206 1.1975,-9.439598 c 1.80998,-14.267515 2.14595,-15.939597 3.20272,-15.939597 0.53555,0 0.76037,1.0125 0.49958,2.25 -0.26078,1.2375 -0.95983,5.625 -1.55344,9.75 -0.5936,4.125 -1.30409,8.935245 -1.57885,10.689433 -0.48597,3.102641 -0.30273,3.284641 6.73361,6.688187 l 7.23318,3.498754 2.8064,-11.537025 c 1.54351,-6.345363 3.28483,-12.280047 3.86957,-13.188187 1.20204,-1.866808 1.37245,-2.739492 -2.67918,13.719989 -1.40411,5.704133 -2.17996,10.731616 -1.72409,11.172184 0.45587,0.440568 2.51635,1.111131 4.57885,1.49014 3.62095,0.665395 3.75,0.590535 3.75,-2.175366 0,-4.580307 7.5544,-29.137046 8.63195,-28.059493 0.20006,0.200059 -0.69578,3.478858 -1.99074,7.286221 -4.16042,12.23214 -6.18588,22.270431 -4.77779,23.679043 2.06136,2.062138 32.07298,1.662148 40.13658,-0.534926 7.74074,-2.10911 22.58661,-9.011357 25.75,-11.971877 1.8387,-1.720779 2.25,-1.815317 2.25,-0.517165 0,3.051704 -16.42431,11.414261 -28.04364,14.278626 -9.06647,2.23504 -30.5653,2.76086 -39.89264,0.9757 z m 7.07246,-4.579092 c -0.14655,-3.857722 5.88866,-23.80325 8.4467,-27.915146 1.73172,-2.783652 1.61619,-2.340886 -2.0875,8 -2.40602,6.717754 -5.16052,16.62865 -5.83645,21 -0.27542,1.78121 -0.42572,1.4693 -0.52275,-1.084854 z m 18.72537,2.613314 c -1.45403,-1.454589 5.43092,-24.661177 9.58937,-32.32216 2.11769,-3.901359 1.87541,-2.105958 -0.54068,4.00668 -3.00622,7.60567 -6.92237,20.247861 -7.72254,24.930103 -0.37824,2.213239 -0.975,3.736657 -1.32615,3.385377 z m -9.86155,-1.075098 c 0,-2.940895 8.85189,-31.93481 9.53974,-31.246954 0.183,0.183001 -1.434,6.398924 -3.59333,13.813161 -2.15933,7.414237 -3.93064,14.241373 -3.93623,15.171414 -0.006,0.930041 -0.46018,1.969098 -1.01018,2.309017 -0.55,0.339919 -1,0.318931 -1,-0.04664 z m 21.57626,-8.953362 c 0.18554,-2.2 1.40844,-6.7 2.71755,-10 1.30911,-3.3 3.17621,-8.16484 4.1491,-10.810756 0.9729,-2.645916 1.95819,-4.621475 2.18953,-4.390132 0.23135,0.231343 -1.57789,6.054327 -4.02053,12.939966 -2.44263,6.885638 -4.65082,13.361198 -4.90707,14.390132 -0.25626,1.028935 -0.31412,0.07079 -0.12858,-2.12921 z m -57.57937,1.809017 c -0.0119,-3.10105 4.5226,-24.309017 5.19757,-24.309017 0.464,0 0.61788,1.0125 0.34194,2.25 -0.27593,1.2375 -1.1845,5.315424 -2.01905,9.062053 -0.83454,3.746629 -1.51735,8.107572 -1.51735,9.690983 0,1.583412 -0.45,3.157045 -1,3.496964 -0.55,0.339919 -1.0014,0.253976 -1.00311,-0.190983 z m 71.49245,-4.26049 c 0.62289,-2.83599 4.53508,-13.328261 7.98175,-21.406613 0.90534,-2.121947 1.88317,-3.620992 2.17295,-3.331211 0.28978,0.28978 -0.14629,2.025919 -0.96904,3.858085 -2.75344,6.131563 -7.82186,20.13073 -7.96202,21.991399 -0.0762,1.011897 -0.52858,1.839813 -1.00524,1.839813 -0.47666,0 -0.57494,-1.328163 -0.2184,-2.951473 z m 10.56059,-2.772496 c -0.0574,-2.556416 5.56616,-17.278803 7.17193,-18.776031 0.7527,-0.70182 0.84286,-0.403641 0.30236,1 -0.42357,1.1 -2.26733,6.05 -4.09725,11 -1.82991,4.95 -3.34958,7.999214 -3.37704,6.776031 z m 9.52083,-6.026031 c 1.15536,-5.218327 2.57792,-9.223853 3.4721,-9.776486 0.49332,-0.304888 0.23549,1.320421 -0.57296,3.611798 -0.80844,2.291378 -1.4699,5.234564 -1.4699,6.540415 0,1.30585 -0.45857,2.374273 -1.01905,2.374273 -0.59263,0 -0.76428,-1.150737 -0.41019,-2.75 z M 109.3153,72.780394 c 2.62244,-4.243197 38.25753,-22.73103 54.44766,-28.247979 18.35689,-6.255294 31.25042,-7.72195 48.12892,-5.47473 10.31426,1.37325 12.09495,2.783064 2.11334,1.673181 -17.68482,-1.966425 -32.67944,-0.4989 -48.73952,4.770141 -10.97344,3.600198 -36.14072,15.806525 -46.79531,22.696084 -9.01156,5.827128 -10.33253,6.488445 -9.15509,4.583303 z M 98.955223,56.677612 c -1.7914,-1.791396 -1.49413,-3.093893 1.718207,-7.528394 2.99394,-4.133022 13.98667,-13.700057 14.80332,-12.883413 0.25054,0.250541 -3.24058,4.034399 -7.75803,8.408573 -4.66924,4.521144 -8.018187,8.546427 -7.760807,9.32814 0.257907,0.783316 2.158007,1.503015 4.415197,1.672339 l 3.96244,0.297245 1.20945,-5.855594 c 0.6652,-3.220576 1.92136,-6.729337 2.79147,-7.797245 1.5599,-1.914502 1.57232,-1.913686 0.88827,0.05835 -1.55241,4.475417 -3.37052,11.932336 -2.99969,12.303162 0.21789,0.217892 2.00132,-0.13358 3.96317,-0.781049 2.34876,-0.775163 3.567,-1.797815 3.567,-2.99433 0,-2.581928 3.886,-14.839292 4.90403,-15.468468 0.46737,-0.28885 -0.27917,3.082809 -1.65898,7.492577 -1.3798,4.409768 -2.2263,8.300187 -1.88112,8.645375 1.42714,1.427135 5.22315,-1.672899 6.5046,-5.312013 2.31763,-6.581725 5.38309,-13.466966 5.80704,-13.043017 0.2217,0.221704 -0.74546,3.45454 -2.14925,7.184079 -1.4038,3.729539 -2.38679,6.94655 -2.18442,7.148914 0.20236,0.202363 6.39572,-2.566438 13.76302,-6.152893 7.36729,-3.586455 13.84508,-6.539612 14.39508,-6.562572 0.55,-0.02296 2.06007,-2.300731 3.35571,-5.061714 1.29564,-2.760982 2.56632,-4.809355 2.82373,-4.55194 0.25742,0.257416 -0.24015,1.8375 -1.1057,3.511299 -2.48729,4.809872 -1.94684,5.154082 4.18219,2.663636 3.16576,-1.286364 7.45691,-2.65795 9.53589,-3.047969 3.09588,-0.58079 4.04731,-1.348977 5.2572,-4.244642 0.81248,-1.944533 1.73279,-3.279963 2.04513,-2.967622 0.31234,0.312342 0.0814,1.476851 -0.51313,2.587799 -0.59456,1.110947 -1.08102,2.274488 -1.08102,2.585646 0,0.311157 4.68098,0.565741 10.40217,0.565741 l 10.40218,0 1.10233,-3.162158 c 0.60629,-1.739186 1.3379,-2.926596 1.62581,-2.638688 0.28791,0.287908 0.072,1.710879 -0.47976,3.162158 l -1.00323,2.638688 5.29968,0 5.29968,0 1.66539,-4.75 1.66539,-4.75 -0.52328,4.385308 -0.52327,4.385308 9.78346,-0.555871 c 11.61321,-0.659834 17.28345,-2.123614 17.28345,-4.461749 0,-1.231171 0.28907,-1.363924 1.13278,-0.520213 1.87258,1.872574 0.32128,3.814602 -4.1069,5.141316 -4.99691,1.497112 -27.65339,3.067998 -45.02588,3.121867 -6.875,0.02132 -15.425,0.670705 -19,1.443081 -8.4286,1.820993 -27.72021,9.825374 -44.61018,18.509451 -16.22564,8.342503 -27.78816,11.253167 -31.189817,7.851502 z M 228.19461,47.083807 c 0.40303,-0.711593 0.18895,-1.949093 -0.47574,-2.75 -0.88688,-1.068616 -0.90144,-1.456195 -0.0547,-1.456195 1.77036,0 2.51571,2.987375 1.07714,4.317217 -0.99463,0.919453 -1.11634,0.894735 -0.54669,-0.111022 z m -88.77788,-6.944863 c -0.61702,-0.998368 0.82025,-8.08157 1.84459,-9.090556 0.61932,-0.610037 -0.40113,8.908437 -1.0341,9.645755 -0.14945,0.174092 -0.51417,-0.07575 -0.81049,-0.555199 z m 9.38041,-5.011332 c 0.0628,-1.124078 3.86761,-7.876742 3.91616,-6.95034 0.0231,0.439813 -0.61513,2.07026 -1.4182,3.623216 -0.80306,1.552956 -1.17806,3.105609 -0.83333,3.45034 0.34473,0.344731 0.10178,0.626784 -0.53988,0.626784 -0.64167,0 -1.14781,-0.3375 -1.12475,-0.75 z M 187.75522,25.0326 c 0,-0.464757 0.96966,-1.702257 2.1548,-2.75 l 2.1548,-1.904988 -1.76981,2.75 c -1.82487,2.835562 -2.53979,3.371789 -2.53979,1.904988 z m 41.60257,-0.989024 c -0.43455,-0.703121 -0.0681,-2.332749 0.83429,-3.70994 1.53676,-2.345397 3.40041,-3.619773 2.01472,-1.377681 -0.36655,0.593088 -0.98316,2.262561 -1.37025,3.70994 -0.47971,1.793697 -0.95054,2.23235 -1.47876,1.377681 z m -9.60257,-1.05518 c 0,-0.489069 0.88576,-1.951569 1.96836,-3.25 l 1.96837,-2.360784 -1.1876,3.25 c -1.09892,3.007298 -2.74913,4.4244 -2.74913,2.360784 z"
     id="path6364"
     inkscape:connector-curvature="0" />
  <path
     style="fill:#ffffff;fill-opacity:0.19072164;stroke:none;filter:url(#filter6882)"
     d="m 187.15821,121.13433 17.39701,-2.80597 c -3.83897,9.5403 -3.55008,19.08059 0.8418,28.62089 l -16.27463,2.80597 c 3.63598,-9.5403 4.80672,-19.08059 -1.96418,-28.62089 z"
     id="path6880"
     inkscape:connector-curvature="0"
     sodipodi:nodetypes="ccccc" />
  <path
     style="fill:#ffffff;fill-opacity:0.19072164;stroke:none;filter:url(#filter6888)"
     d="m 108.87164,121.13432 c 0,0 19.88301,4.35 17.67761,5.61195 -4.0064,2.29251 -5.94867,23.91738 1.96418,24.41194 -7.85567,-0.42142 -14.06542,-1.6658 -20.48358,-2.80598 3.73699,-8.27853 6.8286,-16.8557 0.84179,-27.21791 z"
     id="path6886"
     inkscape:connector-curvature="0"
     sodipodi:nodetypes="csccc" />
  <path
     style="fill:#ffffff;fill-opacity:0.19072164000000000;stroke:none;filter:url(#filter6894)"
     d="m 249.17015,105.4209 9.8209,-5.611945 c -0.23109,13.111055 3.67387,15.881975 6.17313,22.167165 l -11.50448,7.01492 c 6.15012,-11.2427 -0.87503,-16.6513 -4.48955,-23.57014 z"
     id="path6892"
     inkscape:connector-curvature="0"
     sodipodi:nodetypes="ccccc" />
</svg>
