<?xml version="1.0" encoding="UTF-8" standalone="no"?>
<!-- Created with Inkscape (http://www.inkscape.org/) -->

<svg
   xmlns:dc="http://purl.org/dc/elements/1.1/"
   xmlns:cc="http://creativecommons.org/ns#"
   xmlns:rdf="http://www.w3.org/1999/02/22-rdf-syntax-ns#"
   xmlns:svg="http://www.w3.org/2000/svg"
   xmlns="http://www.w3.org/2000/svg"
   xmlns:sodipodi="http://sodipodi.sourceforge.net/DTD/sodipodi-0.dtd"
   xmlns:inkscape="http://www.inkscape.org/namespaces/inkscape"
   id="svg5759"
   version="1.1"
   inkscape:version="0.48.4 r9939"
   width="379.34436"
   height="484.01715"
   sodipodi:docname="Spade.svg">
  <metadata
     id="metadata5765">
    <rdf:RDF>
      <cc:Work
         rdf:about="">
        <dc:format>image/svg+xml</dc:format>
        <dc:type
           rdf:resource="http://purl.org/dc/dcmitype/StillImage" />
        <dc:title />
      </cc:Work>
    </rdf:RDF>
  </metadata>
  <defs
     id="defs5763" />
  <sodipodi:namedview
     pagecolor="#ffffff"
     bordercolor="#666666"
     borderopacity="1"
     objecttolerance="10"
     gridtolerance="10"
     guidetolerance="10"
     inkscape:pageopacity="0"
     inkscape:pageshadow="2"
     inkscape:window-width="1270"
     inkscape:window-height="738"
     id="namedview5761"
     showgrid="false"
     inkscape:zoom="0.76872964"
     inkscape:cx="327.21135"
     inkscape:cy="216.55871"
     inkscape:window-x="0"
     inkscape:window-y="22"
     inkscape:window-maximized="0"
     inkscape:current-layer="svg5759"
     fit-margin-top="0"
     fit-margin-left="0"
     fit-margin-right="0"
     fit-margin-bottom="0" />
  <path
     style="fill:#a9a9a9;fill-opacity:1;stroke:none"
     d="m 118.17048,297.45274 c 9.98613,3.63566 17.61301,9.6306 23.97438,16.89102 -6.74339,18.95488 -49.781276,35.54286 -0.27244,80.36865 -7.72154,17.25592 -30.17344,33.96869 -59.441287,53.48112 -17.474521,11.65 -40.300145,25.55749 -76.7767328,31.51893 -8.3374437,-23.97627 -4.70526798,-65.3283 7.4851048,-101.89789 8.642516,-25.92645 16.711889,-50.12426 29.566198,-59.38427 53.589571,41.55438 57.951667,-0.93806 75.464777,-20.97756 z"
     id="path6281"
     inkscape:connector-curvature="0"
     sodipodi:nodetypes="cccscscc" />
  <path
     style="fill:#654719;fill-opacity:1;stroke:none"
     d="m 122.25702,298.81492 c 7.90093,2.99652 14.78837,7.00651 19.6154,13.07692 C 220.375,205.30506 303.13165,121.76147 376.16742,16.571165 374.84853,9.0930506 363.2884,6.0040466 355.46228,1.3147491 276.80601,100.19802 189.063,196.28539 122.25702,298.81492 z"
     id="path5771"
     inkscape:connector-curvature="0"
     sodipodi:nodetypes="ccccc" />
  <path
     style="fill:#000000"
     d="m 1.9253322,480.26579 c -1.38395898,-3.11 -2.01698098,-13.50897 -1.91465898,-31.45309 0.137738,-24.15468 0.671513,-28.87913 5.39487798,-47.74996 12.8383198,-51.29181 27.3001908,-83.77187 37.2997428,-83.77187 1.58983,0 7.678468,3.0306 13.530306,6.73466 20.058406,12.69646 25.321096,13.99593 33.395914,8.24615 5.54479,-3.94824 17.255606,-18.79486 24.041116,-30.4786 2.54205,-4.37708 5.62661,-7.95833 6.85456,-7.95833 1.22796,0 5.06401,-4.71217 8.52457,-10.47148 11.5706,-19.25663 55.84346,-77.33812 82.9996,-108.88703 10.89854,-12.66148 28.66311,-34.14896 39.47684,-47.74998 10.81374,-13.601 25.0217,-31.137631 31.57326,-38.970304 6.55157,-7.832669 15.257,-18.865826 19.34542,-24.518098 4.08844,-5.652306 15.81841,-19.977295 26.06662,-31.83331 C 338.76174,19.5485 349.00864,7.6322876 351.28442,4.9240596 L 355.4222,0 l 8.09509,3.0915336 c 8.65449,3.305186 15.82707,9.7159784 15.82707,14.1460864 0,1.491391 -3.95822,7.595176 -8.79604,13.563989 -4.83783,5.968796 -11.81184,14.757168 -15.4978,19.529701 -3.68596,4.772551 -11.22543,14.281562 -16.75437,21.131152 -5.52894,6.84959 -14.77354,18.783847 -20.54354,26.520567 -5.77001,7.736711 -15.19434,19.406201 -20.94297,25.932171 -5.74863,6.52596 -15.27459,17.69896 -21.16883,24.82889 -5.89422,7.1299 -17.43975,20.26218 -25.65671,29.18282 -8.21698,8.92063 -20.7352,23.59938 -27.81829,32.61947 -7.08308,9.02007 -25.19789,31.2615 -40.25513,49.4254 -33.55844,40.48229 -37.89257,46.58043 -37.42911,52.66288 0.1959,2.57093 -0.34743,4.48183 -1.2074,4.24645 -0.85997,-0.23538 -6.52686,7.07266 -12.59309,16.2401 -12.22509,18.47484 -13.32619,23.40266 -7.88106,35.2705 1.69117,3.68596 7.4002,10.76979 12.68673,15.74184 11.08034,10.42119 11.08455,10.33317 -1.21482,25.41967 -8.89351,10.90884 -31.98425,28.7687 -57.613235,44.56177 -22.995994,14.17058 -30.860815,18.0036 -48.870295,23.81748 -23.8120688,7.68711 -23.4934138,7.65836 -25.8630678,2.33332 z m 29.1847818,-8.16474 c 20.440127,-7.11212 19.212833,-6.51037 41.629222,-20.41104 31.341734,-19.43535 48.645264,-32.8385 59.646394,-46.20147 4.0541,-4.92448 7.3711,-9.78419 7.3711,-10.79933 0,-1.01517 -2.98016,-4.24067 -6.62256,-7.16779 -8.69585,-6.98817 -14.78142,-16.40436 -17.10352,-26.46422 -1.83357,-7.94345 -1.7184,-8.41095 4.64003,-18.83485 3.58615,-5.87906 9.35355,-14.78119 12.81645,-19.78251 l 6.29617,-9.0933 -3.78302,-4.05491 c -8.24276,-8.83518 -20.28775,-12.04407 -17.44993,-4.6488 0.48321,1.25921 -1.33851,3.96393 -4.09025,6.07279 -3.53654,2.71032 -4.36191,4.17294 -2.87384,5.09262 1.42079,0.8781 0.51837,1.88688 -2.82513,3.15807 -3.81597,1.45083 -4.37704,2.19893 -2.51315,3.35087 1.88886,1.16738 1.46565,1.83814 -1.98832,3.15133 -5.811086,2.20939 -7.564686,5.22586 -3.03799,5.22586 2.14272,0 3.09976,0.72628 2.41564,1.83321 -0.62314,1.00826 -2.94747,1.48635 -5.165176,1.06241 -4.60746,-0.88077 -7.178,1.64093 -3.22069,3.15949 4.31946,1.65755 2.9932,4.45461 -1.56924,3.30951 -2.54269,-0.63817 -4.18859,-0.33601 -4.18859,0.76899 0,1.0559 -1.402677,1.37507 -3.340337,0.76008 -2.669119,-0.84715 -3.116905,-0.47793 -2.228434,1.83737 1.198383,3.12295 0.210492,2.77525 -7.834732,-2.75752 -6.124295,-4.21173 -10.468769,-4.59287 -14.123997,-1.23908 -3.016943,2.76815 -3.439641,2.78057 -6.307303,0.18537 -1.690506,-1.52988 -5.136014,-6.04622 -7.656688,-10.03633 -4.099277,-6.48893 -7.096196,-9.11719 -7.096196,-6.22327 0,2.32966 12.093613,20.74327 13.623686,20.74327 0.909155,0 1.179443,0.76624 0.600641,1.70276 -1.643823,2.65976 -4.004878,0.36843 -11.03005,-10.7043 -3.582325,-5.64629 -6.520479,-9.00559 -6.529235,-7.4651 -0.0087,1.5405 3.344885,7.81274 7.45253,13.9383 4.107646,6.12559 6.557973,10.8505 5.445171,10.49985 -1.774209,-0.55909 -8.409037,-9.62569 -13.908588,-19.00633 -1.748561,-2.98253 -1.924809,-2.95389 -3.839532,0.6238 -1.727361,3.2276 -1.36871,4.62198 2.575304,10.01243 2.520183,3.44445 6.454849,8.32811 8.743702,10.8526 2.288854,2.52448 3.765291,4.98623 3.280972,5.47055 -1.21845,1.21845 -9.066295,-6.85828 -13.26492,-13.6518 -1.91158,-3.09301 -4.005429,-5.62364 -4.652999,-5.62364 -0.647568,0 -2.457999,3.45524 -4.023177,7.6783 -2.621313,7.07266 -2.634731,8.09685 -0.170121,12.98464 3.422954,6.78837 10.760478,14.66327 12.602125,13.52508 0.780479,-0.48237 1.419054,-0.12307 1.419054,0.79842 0,6.11772 -10.315584,-2.03412 -15.510616,-12.25717 -2.368904,-4.66167 -2.556246,-4.73155 -3.628416,-1.35345 -1.248159,3.9326 5.1616,15.77533 11.373304,21.01342 3.450557,2.90971 3.458564,2.99806 0.22626,2.49692 -1.842981,-0.28573 -5.729205,-4.07088 -8.636054,-8.41143 -3.994917,-5.96528 -5.536368,-7.23732 -6.314108,-5.21056 -1.430564,3.728 6.642871,16.90583 12.563148,20.50616 2.688477,1.63496 4.41474,3.44606 3.836145,4.02465 -1.869111,1.86912 -7.065805,-2.05806 -12.989758,-9.81642 -5.166558,-6.76644 -5.899712,-7.21018 -6.868683,-4.15721 -1.079504,3.4012 2.389028,9.8263 9.754366,18.06894 1.849433,2.06971 2.922269,4.20345 2.38408,4.74165 -0.538189,0.53819 -4.177289,-3.0401 -8.08689,-7.95172 -6.851631,-8.60771 -7.070523,-8.73533 -6.060633,-3.53347 1.199521,6.17865 8.754021,18.89706 11.2245,18.89706 0.90993,0 1.654419,0.75395 1.654419,1.67544 0,5.73306 -9.318484,-3.33665 -12.756324,-12.41578 -1.143359,-3.01954 -1.290167,-2.98962 -2.5915028,0.52823 -1.578857,4.26806 1.5586388,11.51221 7.3044588,16.86527 3.135632,2.92128 3.243002,3.39946 0.763318,3.39946 -1.587071,0 -4.461515,-2.671 -6.387655,-5.93557 -1.9261378,-3.26456 -3.9226608,-5.51497 -4.4367158,-5.00093 -0.514054,0.51406 1.507117,4.39881 4.4914928,8.63278 6.643368,9.42502 5.907526,11.28346 -1.2430388,3.13941 -2.887105,-3.28823 -5.249281,-5.1742 -5.249281,-4.19105 0,4.07716 4.936699,13.15521 8.5179798,15.66364 2.115099,1.48148 3.314367,3.22485 2.66504,3.87419 -0.649326,0.64931 -3.808114,-1.36611 -7.0195248,-4.47873 -4.624093,-4.48185 -5.838932,-5.03473 -5.838932,-2.65728 0,3.25499 5.651927,12.29481 9.7949278,15.66624 2.303095,1.87418 2.290477,2.0943 -0.120062,2.0943 -1.481502,0 -4.2405318,-2.07335 -6.1311768,-4.60745 -2.471483,-3.31261 -3.452457,-3.83327 -3.490618,-1.85263 -0.02919,1.51516 2.135191,5.09738 4.80974,7.9605 5.4304338,5.8133 4.3796148,8.65513 -1.258208,3.40268 -5.28047298,-4.9195 -4.705004,0.12197 0.676776,5.92904 4.6527578,5.02041 4.3309208,7.81796 -0.471163,4.09555 -2.320821,-1.799 -2.237869,-1.42174 0.37837,1.7208 2.93099,3.52059 2.983475,3.89096 0.41886,2.95572 -3.731632,-1.36083 -3.817404,1.77201 -0.159184,5.81429 3.6876008,4.07474 4.2467848,4.00642 24.2908788,-2.96787 z m 7.957814,-103.43906 c -3.754207,-2.76811 -11.880211,-16.08023 -11.151032,-18.26776 0.336399,-1.0092 2.654039,1.65019 5.150306,5.90975 2.496268,4.25957 6.090525,8.83162 7.987235,10.16012 1.896711,1.32851 2.819418,2.8043 2.050459,3.27955 -0.768957,0.47524 -2.585593,-0.0117 -4.036968,-1.08166 z m 17.90369,-34.7453 c -2.385642,-2.83516 -4.33753,-5.77029 -4.33753,-6.5225 0,-0.75218 -1.170078,-1.81662 -2.600174,-2.36541 -2.962113,-1.13667 -2.324162,0.25652 3.936894,8.5976 2.248018,2.99485 4.818787,5.44518 5.712822,5.44518 0.894034,0 -0.326372,-2.3197 -2.712012,-5.15487 z m 88.683422,-33.79905 c 4.83268,-7.37169 19.31591,-25.31821 36.84516,-45.65567 5.55975,-6.45043 17.95586,-21.81248 27.54688,-34.13789 9.59105,-12.3254 24.65294,-30.34979 33.47089,-40.05418 22.2784,-24.51799 59.21742,-68.07432 71.72979,-84.579561 5.7532,-7.589125 16.46977,-21.337881 23.8146,-30.552787 33.61601,-42.174996 36.75328,-46.627119 35.07134,-49.769871 -2.28583,-4.271125 -9.39456,-8.5730124 -12.31483,-7.4523954 -1.35985,0.521831 -2.91806,0.227742 -3.46269,-0.653488 -0.54465,-0.881246 -1.85051,-1.602271 -2.90191,-1.602271 -1.37696,0 -1.34931,0.562327 0.0989,2.010525 3.15274,3.1527374 2.36056,5.0281214 -1.59379,3.7730684 -2.8194,-0.894834 -3.38687,-0.577289 -2.60581,1.458133 0.68961,1.797108 -0.13906,2.765678 -2.67856,3.130789 -2.75205,0.395672 -3.56848,1.522001 -3.24535,4.477171 0.30401,2.780338 -0.25519,3.684923 -1.89015,3.057522 -3.04763,-1.169488 -6.07093,1.95041 -4.88494,5.041039 0.64788,1.688322 -0.0343,2.267755 -2.22521,1.890145 -2.349,-0.404853 -3.12538,0.422512 -3.02648,3.225183 0.0896,2.539896 -0.83465,3.769734 -2.83313,3.769734 -3.53923,0 -5.59435,2.686514 -3.19125,4.171705 2.66029,1.64414 1.99643,4.213005 -0.8104,3.135933 -1.38223,-0.530427 -3.77015,-0.48204 -5.30647,0.107563 -2.129,0.81696 -2.32823,1.536979 -0.83772,3.027482 3.11715,3.117151 2.27449,4.941216 -1.81413,3.926957 -2.07336,-0.514343 -2.8273,-0.502313 -1.67544,0.02681 3.57843,1.643487 2.30255,4.033498 -2.15321,4.033498 -3.7865,0 -4.04455,0.379285 -2.37741,3.494376 2.14662,4.011014 0.79079,6.420577 -2.02718,3.602609 -2.43556,-2.435567 -8.55867,4.843019 -7.15388,8.503866 0.64716,1.686445 -0.0302,2.413401 -2.08976,2.243143 -2.26202,-0.186996 -2.93595,0.766898 -2.61545,3.702029 0.31066,2.845077 -0.24232,3.695261 -1.97181,3.031604 -1.32194,-0.507272 -3.24408,0.09047 -4.27139,1.328303 -1.39343,1.67899 -1.31815,2.45408 0.29635,3.051592 1.28291,0.474768 0.28797,1.547651 -2.44322,2.634608 -2.5341,1.008529 -4.60746,2.273803 -4.60746,2.811752 0,0.537933 0.75395,0.512098 1.67544,-0.05747 0.92149,-0.569515 1.67544,0.220588 1.67544,1.755808 0,1.889455 -0.88058,2.453375 -2.72552,1.745405 -3.08957,-1.18557 -7.77777,1.95363 -6.35517,4.25541 0.51428,0.83212 1.7347,1.01871 2.71207,0.41467 1.02255,-0.63198 1.44409,-0.11008 0.99283,1.22925 -0.43129,1.280141 -2.51567,2.327521 -4.63195,2.327521 -2.11626,0 -4.68849,1.50789 -5.71606,3.35087 -1.02756,1.84298 -2.82658,3.96266 -3.99783,4.71043 -1.17124,0.74775 -1.71559,2.02932 -1.20964,2.84794 0.50593,0.81864 -0.63025,2.31802 -2.52485,3.33198 -1.89461,1.01395 -3.00215,2.55968 -2.46121,3.43493 0.54094,0.87526 0.16638,1.59138 -0.83225,1.59138 -0.9987,0 -2.54967,1.93024 -3.44663,4.2894 -0.89696,2.35919 -2.30718,3.8714 -3.13384,3.36051 -0.82666,-0.51091 -1.98452,0.32587 -2.57303,1.85952 -0.58852,1.53364 -0.10204,3.40264 1.08101,4.15332 1.67461,1.06257 1.68718,1.37056 0.0568,1.39053 -4.01483,0.0493 -4.62538,0.28065 -7.42647,2.81561 -1.55047,1.40316 -2.45026,3.51218 -1.99954,4.68673 0.45765,1.19265 -0.75676,2.54776 -2.75048,3.06914 -1.96349,0.51345 -3.96529,2.44525 -4.44845,4.29287 -0.48318,1.84762 -1.9224,3.7599 -3.19829,4.24951 -1.2759,0.48961 -1.89791,1.98967 -1.38226,3.33347 0.62896,1.63901 -0.34547,2.62501 -2.96026,2.99543 -2.59582,0.36772 -3.89856,1.67146 -3.90003,3.90305 -0.001,1.84298 -1.13213,3.36907 -2.51316,3.39128 -1.38101,0.0223 -2.40623,1.34164 -2.27824,2.93202 0.14358,1.78422 -0.95914,2.8916 -2.87944,2.8916 -2.078,0 -2.79167,0.83511 -2.14775,2.51316 0.58436,1.52282 0.005,2.51315 -1.46833,2.51315 -1.33801,0 -3.83903,1.55392 -5.55781,3.45316 -2.48178,2.74233 -2.67085,3.73388 -0.91851,4.81689 1.54737,0.95632 1.65258,1.70608 0.35223,2.50975 -1.01988,0.63032 -2.52283,0.73285 -3.3399,0.22788 -0.81708,-0.505 -2.41729,0.20447 -3.55604,1.57655 -1.43727,1.73182 -1.49532,2.49471 -0.18982,2.49471 1.03431,0 1.88057,0.75395 1.88057,1.67544 0,0.92149 -1.75921,1.67543 -3.90934,1.67543 -5.0426,0 -6.59417,1.62652 -4.24816,4.4533 1.02632,1.23666 1.20828,2.33543 0.40432,2.44172 -0.80394,0.10622 -2.59264,0.29477 -3.97488,0.41885 -1.48278,0.13303 -2.54095,1.94289 -2.58096,4.4142 -0.0506,3.12594 -0.84831,4.05132 -3.14431,3.64752 -2.56015,-0.45024 -2.88929,0.20493 -1.96103,3.90344 0.96981,3.86401 0.68773,4.3087 -2.15984,3.4049 -1.84451,-0.58541 -3.8325,-0.13805 -4.55071,1.02403 -0.7085,1.14637 -0.39883,2.35573 0.69672,2.72093 3.25442,1.08479 2.22466,3.72899 -1.45225,3.72899 -2.33184,0 -3.26726,0.93541 -2.93202,2.93201 0.34331,2.04467 -0.4395,2.77282 -2.58662,2.40598 -2.42723,-0.4147 -2.84662,0.20591 -1.98139,2.93202 0.87486,2.75653 0.37199,3.45796 -2.4792,3.45796 -2.85119,0 -3.35406,0.70144 -2.47914,3.45806 0.86523,2.7261 0.44583,3.34672 -1.98139,2.93201 -2.06923,-0.35353 -2.93274,0.36908 -2.63312,2.20352 0.26434,1.61846 -1.04133,3.11846 -3.20754,3.68494 -3.00165,0.78494 -3.28788,1.39574 -1.6046,3.42397 1.69467,2.04196 1.38031,2.56337 -1.81877,3.01683 -2.47725,0.35114 -3.70727,1.52941 -3.42171,3.27776 0.26257,1.60766 -1.03197,3.11601 -3.14963,3.66979 -2.44816,0.6402 -3.2677,1.79428 -2.56835,3.61675 0.64219,1.67355 -0.0611,3.07785 -1.87669,3.74747 -4.05574,1.49581 -5.61688,4.33342 -3.23419,5.87864 1.36567,0.88567 0.83972,1.62089 -1.64794,2.30361 -2.24494,0.61611 -3.30637,1.90816 -2.75277,3.35084 0.558,1.4541 -0.19841,2.34806 -1.98678,2.34806 -2.01956,0 -2.63572,0.96403 -2.04933,3.20637 0.58565,2.23954 -0.20296,3.47871 -2.61537,4.10956 -2.993,0.7827 -2.35227,1.68251 4.8021,6.74379 4.54077,3.21233 8.34424,5.8867 8.45216,5.94306 0.10792,0.0563 2.29685,-3.10181 4.86428,-7.01814 z m 65.37943,-115.07055 c -1.14446,-1.85174 1.49851,-3.85124 3.04563,-2.30414 1.59299,1.59299 1.2961,3.86381 -0.50515,3.86381 -0.8671,0 -2.01032,-0.70186 -2.54048,-1.55967 z"
     id="path5769"
     inkscape:connector-curvature="0" />
</svg>
