<?xml version="1.0" encoding="UTF-8" standalone="no"?>
<!-- Created with Inkscape (http://www.inkscape.org/) -->

<svg
   xmlns:dc="http://purl.org/dc/elements/1.1/"
   xmlns:cc="http://creativecommons.org/ns#"
   xmlns:rdf="http://www.w3.org/1999/02/22-rdf-syntax-ns#"
   xmlns:svg="http://www.w3.org/2000/svg"
   xmlns="http://www.w3.org/2000/svg"
   xmlns:xlink="http://www.w3.org/1999/xlink"
   xmlns:sodipodi="http://sodipodi.sourceforge.net/DTD/sodipodi-0.dtd"
   xmlns:inkscape="http://www.inkscape.org/namespaces/inkscape"
   id="svg5112"
   version="1.1"
   inkscape:version="0.48.4 r9939"
   width="285"
   height="228"
   sodipodi:docname="Spices.png">
  <metadata
     id="metadata5118">
    <rdf:RDF>
      <cc:Work
         rdf:about="">
        <dc:format>image/svg+xml</dc:format>
        <dc:type
           rdf:resource="http://purl.org/dc/dcmitype/StillImage" />
        <dc:title></dc:title>
      </cc:Work>
    </rdf:RDF>
  </metadata>
  <defs
     id="defs5116">
    <linearGradient
       inkscape:collect="always"
       id="linearGradient5654">
      <stop
         style="stop-color:#fff9f6;stop-opacity:1;"
         offset="0"
         id="stop5656" />
      <stop
         style="stop-color:#fff9f6;stop-opacity:0;"
         offset="1"
         id="stop5658" />
    </linearGradient>
    <radialGradient
       inkscape:collect="always"
       xlink:href="#linearGradient5654"
       id="radialGradient5660"
       cx="117.92479"
       cy="178.60805"
       fx="117.92479"
       fy="178.60805"
       r="1.871822"
       gradientTransform="matrix(1,0,0,0.83870971,0,28.807743)"
       gradientUnits="userSpaceOnUse" />
    <filter
       inkscape:collect="always"
       id="filter5682"
       x="-0.8392466"
       width="2.6784932"
       y="-1.0006401"
       height="3.0012803">
      <feGaussianBlur
         inkscape:collect="always"
         stdDeviation="1.3091002"
         id="feGaussianBlur5684" />
    </filter>
  </defs>
  <sodipodi:namedview
     pagecolor="#ffffff"
     bordercolor="#666666"
     borderopacity="1"
     objecttolerance="10"
     gridtolerance="10"
     guidetolerance="10"
     inkscape:pageopacity="0"
     inkscape:pageshadow="2"
     inkscape:window-width="1217"
     inkscape:window-height="756"
     id="namedview5114"
     showgrid="false"
     inkscape:zoom="1.0350877"
     inkscape:cx="195.4934"
     inkscape:cy="124.4898"
     inkscape:window-x="2"
     inkscape:window-y="22"
     inkscape:window-maximized="0"
     inkscape:current-layer="svg5112" />
  <path
     style="fill:#4b2c1c;fill-opacity:0.89175259;stroke:none"
     d="m 95.809973,180.86354 c 6.324977,-0.84112 11.097397,-9.96256 16.566077,-15.37058 -6.99934,-6.09601 -9.44994,-11.79648 -9.05157,-17.24921 l 24.9345,-0.51235 4.44039,4.2696 c 0.98739,-5.7053 10.34277,-12.26264 15.45702,-14.77032 l -14.94466,-15.97085 c 5.45977,0.28098 11.12646,-1.50724 16.90764,-4.44039 l 14.17509,0.34157 22.88509,-12.80882 c -3.36337,4.62289 -2.59661,10.5166 -1.87862,16.39529 l 24.76372,4.26961 c -6.35265,4.58901 -12.02639,9.95391 -20.49412,12.12568 4.09369,6.23526 10.87126,9.02144 16.73686,12.97961 -6.58024,4.21375 -13.69835,7.53105 -22.20195,8.53921 l -1.87863,3.41568 c -4.1665,-1.48526 -7.88663,-1.5756 -14.51666,-10.75941 l -13.92498,5.70663 c 4.73495,3.06565 21.62626,3.44063 27.41694,10.3471 -0.87092,7.79989 -10.8021,12.4437 -24.53433,15.4206 -0.45855,4.35113 0.77144,8.94349 -1.68712,13.00891 -4.60023,0.79756 -9.20045,-5.02182 -13.80068,-7.56453 -5.39994,6.83325 -10.32893,15.21389 -17.87374,14.99971 -1.08074,-3.7453 -2.09596,-7.54156 -0.34157,-13.49196 -9.25161,3.24111 -18.2204,-2.28513 -27.154697,-8.88078 z"
     id="path5636"
     inkscape:connector-curvature="0"
     sodipodi:nodetypes="ccccccccccccccccccccccccc" />
  <path
     style="fill:#bf8a4d;fill-opacity:1;stroke:none"
     d="M 36.03548,161.90649 C 32.547875,159.1167 14.696765,154.06891 28.691757,130.3114 91.995791,92.397293 153.71972,53.429784 218.60386,16.56908 c 7.45663,1.99484 9.71308,6.841393 3.07412,16.566074 l 5.12352,5.63588 18.10314,-4.098822 8.88078,5.465096 -5.12353,6.489802 c 4.63101,-5.170887 7.10663,4.486676 10.93019,8.197645 -29.38014,24.315018 -61.93776,41.215937 -92.90664,61.823905 l -18.78627,0.68314 c -5.45627,3.32712 -11.01831,5.41751 -17.76156,2.04941 l 12.46725,12.46725 -25.78842,14.85823 c -4.44039,1.92406 -8.88078,2.56588 -13.32117,0.85392 0.22044,3.19791 -0.89388,6.12886 1.36627,9.73471 l -49.18587,31.08273 -9.22235,10.58862 c -8.338356,-1.33648 -17.870437,6.70064 -23.568229,-15.37058 -1.16407,-7.29796 1.391856,-12.96841 7.514508,-17.07843 z"
     id="path5126"
     inkscape:connector-curvature="0"
     sodipodi:nodetypes="ccccccccccccccccccccc" />
  <path
     style="fill:#4b2c1c;fill-opacity:0.89175259;stroke:none"
     d="m 109.84359,182.58353 c 1.31684,-2.8302 4.67655,-6.72622 9.53461,-9.23449 3.66241,0.52321 7.87186,-0.59471 10.95092,1.67854 -11.00025,7.42658 -14.48923,6.01636 -20.48553,7.55595 z"
     id="path5638"
     inkscape:connector-curvature="0"
     sodipodi:nodetypes="cccc" />
  <path
     style="fill:#4b2c1c;fill-opacity:0.89175259;stroke:none"
     d="m 154.21398,170.27542 c 3.06155,2.69961 8.81427,1.55468 14.00848,1.20763 -1.68288,-1.68258 -0.23245,-3.96198 -8.0911,-4.46822 -2.76373,0.55935 -5.93695,0.84571 -5.91738,3.26059 z"
     id="path5640"
     inkscape:connector-curvature="0"
     sodipodi:nodetypes="cccc" />
  <path
     style="fill:#4b2c1c;fill-opacity:0.89175259;stroke:none"
     d="m 150.95339,126.55932 c 2.35329,2.3015 5.66482,3.40521 9.29873,4.10593 -0.0646,-1.76165 -0.32429,-3.50557 -3.8644,-4.95127 -1.62986,-0.35375 -3.18408,-0.97228 -5.43433,0.84534 z"
     id="path5642"
     inkscape:connector-curvature="0"
     sodipodi:nodetypes="cccc" />
  <path
     style="fill:#4b2c1c;fill-opacity:0.89175259;stroke:none"
     d="m 175.83051,137.91102 c 2.66075,2.5723 4.91999,5.54611 9.41949,6.27966 -0.45869,-2.31288 0.66896,-4.51245 -3.98517,-7.125 -2.31149,-0.53079 -5.52146,-2.52163 -5.43432,0.84534 z"
     id="path5644"
     inkscape:connector-curvature="0"
     sodipodi:nodetypes="cccc" />
  <path
     style="fill:#4b2c1c;fill-opacity:0.89175259;stroke:none"
     d="m 167.01483,127.88771 c 1.06736,3.08609 2.77331,2.65991 4.46822,2.29449 0.84104,-1.28813 0.23401,-2.57627 -0.84534,-3.8644 z"
     id="path5646"
     inkscape:connector-curvature="0"
     sodipodi:nodetypes="cccc" />
  <path
     style="fill:#4b2c1c;fill-opacity:0.89175259;stroke:none"
     d="m 135.25424,168.34322 c 0.53063,-1.94725 -0.17491,-3.61979 3.01907,-6.1589 1.84855,1.22933 4.33279,2.14081 3.74364,4.58898 -2.25424,2.45896 -4.50847,3.29259 -6.76271,1.56992 z"
     id="path5648"
     inkscape:connector-curvature="0"
     sodipodi:nodetypes="cccc" />
  <path
     style="fill:#4b2c1c;fill-opacity:0.98823739;stroke:none"
     d="m 113.57154,155.07512 10.07627,0.17078 4.95274,6.66059 c -6.55108,-0.73571 -11.03036,-3.54322 -15.02901,-6.83137 z"
     id="path5686"
     inkscape:connector-curvature="0"
     sodipodi:nodetypes="cccc" />
  <path
     style="fill:#000000"
     d="m 121.50049,201.65618 c -0.35162,-1.40097 -0.36378,-4.27029 -0.027,-6.37627 l 0.61229,-3.82905 -4.40738,0.49678 c -3.78415,0.42653 -5.76269,-0.17137 -13.99203,-4.22826 -5.271583,-2.59877 -9.584673,-5.29675 -9.584673,-5.99551 0,-0.69876 1.31527,-1.53353 2.92281,-1.85504 1.60755,-0.32151 3.745053,-1.77814 4.750003,-3.23696 1.00496,-1.45882 3.57342,-4.62855 5.7077,-7.04386 l 3.88051,-4.39146 -2.65841,-2.09111 c -3.94912,-3.10638 -6.86801,-9.41722 -6.05909,-13.1002 0.65374,-2.97647 0.76545,-3.02662 5.68772,-2.55365 4.83545,0.46462 5.50342,0.19123 18.08613,-7.40244 7.18589,-4.33669 13.49188,-7.74268 14.01332,-7.56886 0.52144,0.17381 -3.72715,3.09454 -9.44131,6.49051 -5.71416,3.39597 -11.06438,6.59873 -11.88938,7.11724 -1.02868,0.64653 0.29854,0.89132 4.22395,0.77905 4.99282,-0.14279 6.06735,0.17927 8.41234,2.52137 2.13823,2.13558 2.7806,3.87507 3.13895,8.5 0.47209,6.09283 -1.21096,6.75783 -2.06252,0.81493 -0.23643,-1.65 -0.28449,0.15 -0.10679,4 0.22377,4.84842 0.0573,6.23158 -0.54175,4.5 -0.70445,-2.03641 -0.86482,-1.57282 -0.86482,2.5 0,3.91833 0.17321,4.45917 0.80064,2.5 0.44035,-1.375 0.8455,-1.91094 0.90032,-1.19098 0.0548,0.71996 0.52005,1.04921 1.03384,0.73167 0.51378,-0.31753 0.6812,-2.13612 0.37203,-4.04129 -0.40885,-2.51946 -0.15866,-3.61878 0.91759,-4.03178 0.91005,-0.34922 1.31275,-1.44127 1.04602,-2.83658 -0.26937,-1.40914 1.31387,-5.60968 4.17857,-11.08625 2.53674,-4.84962 4.37898,-9.05077 4.09385,-9.3359 -0.28512,-0.28513 -2.77377,1.73694 -5.53032,4.49349 -2.78952,2.78952 -5.0119,4.36204 -5.0119,3.54634 0,-1.67958 8.61518,-9.95226 11.26477,-10.81695 1.45762,-0.47569 0.8459,-1.47711 -3.51479,-5.75385 -2.90375,-2.84785 -6.2542,-6.30292 -7.44543,-7.67792 -4.65912,-5.37785 -3.87286,-5.59692 -20.95626,5.83883 -8.75947,5.86364 -18.158753,12.38006 -20.887303,14.48092 -6.98596,5.37888 -29.69738,20.29453 -36.3705,23.88621 -3.07477,1.65493 -5.70409,3.11171 -5.84293,3.23728 -0.13884,0.12557 1.09051,2.66471 2.73189,5.64253 1.64138,2.97783 2.99247,6.20173 3.00244,7.16423 0.01,0.9625 0.18542,1.75 0.38991,1.75 1.2472,0 21.44161,-12.11137 28.1282,-16.86957 11.61831,-8.26762 18.501943,-12.31525 18.488133,-10.87119 -0.007,0.68242 -2.59402,2.71492 -5.750003,4.51667 -3.15597,1.80176 -9.273,5.7187 -13.5934,8.70432 -4.3204,2.98562 -12.28932,7.96096 -17.70871,11.05632 -5.4194,3.09535 -10.09961,6.37841 -10.40048,7.29568 -0.30088,0.91728 -2.3264,3.58027 -4.50117,5.91777 l -3.95412,4.25 -7.57531,0 c -9.14101,0 -11.63133,-1.3425 -15.06697,-8.12241 -4.61904,-9.11524 -2.64424,-18.77396 5.17482,-25.30988 l 4.54112,-3.7959 -3.03693,-1.84687 c -1.67032,-1.01577 -4.29244,-3.74755 -5.82696,-6.0706 -2.32364,-3.5177 -2.775,-5.23761 -2.70016,-10.28904 0.093,-6.27408 2.3179,-12.20894 4.95668,-13.22153 0.79309,-0.30434 1.23017,-0.89605 0.9713,-1.31491 -0.25887,-0.41886 0.30621,-1.42043 1.25574,-2.22571 2.36481,-2.00555 26.41758,-16.4909 29.90639,-18.01059 1.55102,-0.67561 10.24503,-5.97219 19.32003,-11.770177 9.075,-5.798 18.975,-11.85218 22.000003,-13.45374 3.025,-1.60156 12.25,-7.04235 20.5,-12.090656 8.25,-5.048302 18.6,-11.329821 23,-13.95893 4.4,-2.629109 19.25,-11.56365 33,-19.854535 13.75,-8.290886 28.9935,-17.022192 33.87444,-19.402903 8.45074,-4.1219 8.99003,-4.252825 11.29554,-2.742201 1.3316,0.8725 2.90714,2.653126 3.5012,3.956947 1.51171,3.31784 0.20203,9.253535 -2.34219,10.615156 -2.07619,1.111147 -2.07434,1.125655 0.44195,3.458888 1.38978,1.288683 2.69427,2.845232 2.89886,3.458997 0.2502,0.750586 1.85147,0.481754 4.89097,-0.821129 2.48544,-1.065386 5.92589,-2.246072 7.64543,-2.623747 4.00281,-0.879165 10.45581,0.852025 12.78998,3.431254 1.72402,1.905012 1.72777,2.099274 0.0758,3.924632 -1.65734,1.831342 -1.64222,1.971647 0.32593,3.024971 2.26396,1.211633 7.10205,7.819952 7.10205,9.700645 0,1.922313 -11.48217,10.360692 -27,19.842611 -7.975,4.873 -16.975,10.75779 -20,13.07732 -3.025,2.31953 -6.9816,4.96251 -8.79244,5.87331 -1.81085,0.91079 -6.36152,3.64136 -10.1126,6.06792 -7.36129,4.761997 -8.05738,6.150407 -8.08395,16.124097 -0.0109,4.09516 0.0305,4.14182 4.73899,5.33694 2.6125,0.66311 8.125,1.42836 12.25,1.70054 4.125,0.27218 8.05491,0.66602 8.73314,0.8752 1.44754,0.44645 0.55436,3.45603 -1.02568,3.45603 -0.59321,0 -2.00756,0.86091 -3.14301,1.91314 -5.29764,4.90939 -17.56441,9.16037 -17.56441,6.08686 0,-0.55 1.4625,-1.00231 3.25,-1.00512 1.7875,-0.003 5.05,-1.14954 7.25,-2.54826 2.66436,-1.69396 3.16522,-2.28519 1.5,-1.77063 -1.375,0.42488 -6.325,0.69148 -11,0.59244 l -8.5,-0.18007 5,4.50422 c 2.75,2.47732 6.53859,5.94494 8.41909,7.70582 1.88051,1.76088 5.22861,4.15442 7.44023,5.31897 l 4.02113,2.11737 -4.23884,2.67587 c -5.40488,3.41195 -8.53956,4.61873 -14.14161,5.44421 -3.65304,0.53829 -4.56014,1.08488 -4.81955,2.90413 -0.17575,1.23258 -0.98118,2.24105 -1.78984,2.24105 -2.64947,0 -9.83776,-4.1919 -12.4177,-7.24147 l -2.5271,-2.9871 -6.2229,1.74606 c -3.4226,0.96033 -6.22291,2.04514 -6.22291,2.41067 0,0.36554 3.56808,1.18467 7.92906,1.82029 5.22872,0.76209 9.89316,2.20378 13.6963,4.23324 3.17198,1.69267 5.90981,3.22015 6.08407,3.3944 0.65834,0.65834 -2.62095,7.2318 -4.37688,8.77362 -3.69949,3.24842 -14.80601,7.8081 -19.08636,7.83574 -1.83427,0.0118 -2.21905,0.52644 -2.06711,2.76455 0.30268,4.45845 -0.14698,8.65096 -1.08706,10.13535 -1.32407,2.09072 -5.5279,0.6191 -10.14366,-3.55097 -2.20067,-1.98817 -4.12283,-3.43925 -4.27146,-3.22462 -7.34146,10.60119 -12.24568,14.89024 -17.02588,14.89024 -1.96604,0 -2.77119,-0.63061 -3.25223,-2.54721 z m 4.2712,-0.70483 c -1.48301,-1.0844 -1.57691,-1.96579 -0.70132,-6.58275 0.55602,-2.93188 1.92099,-7.38801 3.03327,-9.90249 1.11227,-2.51449 1.85751,-4.7366 1.65608,-4.93804 -0.93272,-0.93271 -5.66701,11.90047 -6.26397,16.97966 -0.64509,5.48869 -0.58479,5.69566 1.6594,5.69566 2.11013,0 2.16802,-0.11757 0.61654,-1.25204 z m 10.56764,-7.34709 c 2.3377,-3.06525 3.52975,-5.55633 3.18261,-6.65087 -0.9632,-3.03702 1.8056,-1.94466 6.33679,2.5 l 4.33273,4.25 -4.79488,-8.02774 -4.79488,-8.02773 -1.66345,5.34775 c -1.65496,5.32049 -5.16686,11.48022 -9.21461,16.16207 l -2.12194,2.45435 2.5,-1.55348 c 1.375,-0.85441 4.18193,-3.75887 6.23763,-6.45435 z m -88.737633,3.38869 c 0.6542,-0.62588 0.4813,-0.86073 -0.5,-0.67917 -0.825,0.15265 -4.2,-0.1258 -7.5,-0.61878 -3.3,-0.49298 -6.45,-0.91776 -7,-0.94397 -0.55,-0.0262 -2.2375,-1.45705 -3.75,-3.17966 -2.22775,-2.53721 -2.73665,-4.05649 -2.67971,-8 0.0724,-5.01714 0.98579,-8.539 2.2006,-8.48542 1.45504,0.0642 8.26303,-3.15986 8.9638,-4.24495 0.5282,-0.81788 0.73899,-0.7863 0.75,0.11239 0.008,0.6875 1.07057,1.25 2.36032,1.25 2.46181,0 4.83224,2.13366 6.11033,5.5 0.75933,2 0.75933,2 1.66274,0 0.62979,-1.39426 0.72171,-0.78852 0.30348,2 -0.66818,4.45505 0.18419,4.36148 1.48169,-0.16266 0.62454,-2.17764 0.42319,-3.44905 -0.78085,-4.93056 -3.67721,-4.5246 -16.99363,-7.34942 -17.2384,-3.65678 -0.10581,1.59618 -0.15526,1.60105 -0.56265,0.0554 -0.52057,-1.97501 -3.32135,-1.29908 -3.32135,0.80159 0,0.76615 -0.62685,1.39301 -1.39301,1.39301 -1.94672,0 -2.60961,2.25997 -2.59054,8.83179 0.0203,6.98378 3.066,12.94205 7.83972,15.33656 3.53902,1.77518 13.64825,1.53041 15.64383,-0.37879 z m 83.464563,-3.34843 c 0.0195,0.51762 0.66038,0.0865 1.4242,-0.95811 0.76381,-1.04458 1.13734,-2.55441 0.83006,-3.35517 -0.38685,-1.00812 -0.15627,-1.20723 0.74965,-0.64734 1.0245,0.63318 1.18545,-0.0363 0.74184,-3.08595 -0.31159,-2.14201 -0.34088,-3.10706 -0.0651,-2.14456 1.0778,3.76154 2.01176,1.50589 0.97883,-2.364 -0.98136,-3.67667 -1.1686,-3.8627 -1.76139,-1.75 -0.36482,1.3002 -0.72343,1.689 -0.79691,0.864 -0.16044,-1.80119 -3.98325,5.83151 -4.03182,8.05 -0.0187,0.8525 -0.50884,2.02491 -1.08929,2.60536 -0.60336,0.60336 -0.75652,2.24597 -0.35762,3.83535 l 0.69774,2.77999 1.32218,-2.38535 c 0.72721,-1.31194 1.33814,-1.96184 1.35762,-1.44422 z m -2.96456,-0.8231 c 0,-0.825 0.45,-1.77811 1,-2.11803 0.55,-0.33992 1,0.057 1,0.88197 0,0.825 -0.45,1.77811 -1,2.11803 -0.55,0.33992 -1,-0.057 -1,-0.88197 z m 2.07895,-5.20136 c 0.048,-1.16495 0.28494,-1.4019 0.60416,-0.60417 0.28887,0.72187 0.25335,1.58437 -0.0789,1.91667 -0.3323,0.33229 -0.56864,-0.25834 -0.52522,-1.3125 z m 2,-2 c 0.048,-1.16495 0.28494,-1.4019 0.60416,-0.60417 0.28887,0.72187 0.25335,1.58437 -0.0789,1.91667 -0.3323,0.33229 -0.56864,-0.25834 -0.52522,-1.3125 z m 23.36772,6.01589 c 0.88695,-4.72783 -1.65779,-12.24588 -6.12674,-18.10052 -2.50148,-3.27712 -3.17987,-4.8721 -2.40276,-5.64921 0.59556,-0.59556 1.0512,-2.00533 1.01254,-3.13283 -0.0601,-1.75245 -0.16897,-1.80131 -0.75023,-0.33662 -0.45643,1.15011 -1.13293,1.43342 -2.05783,0.8618 -0.75784,-0.46836 -1.06178,-1.36303 -0.67544,-1.98815 0.38635,-0.62512 0.3315,-1.07214 -0.12188,-0.99339 -2.09097,0.36324 -2.15526,-0.32272 -0.31337,-3.34364 2.47826,-4.06464 2.48175,-4.75 0.0242,-4.75 -1.75062,0 -3.13749,1.49069 -4.18657,4.5 -0.19173,0.55 -0.68611,0.8875 -1.09861,0.75 -1.8827,-0.62757 -0.49697,2.38676 1.5,3.26287 3.34205,1.46624 2.85333,4.70681 -0.97836,6.48713 -3.18494,1.47983 -4.70382,3.76356 -1.74896,2.62967 0.83803,-0.32158 2.41176,0.30477 3.5,1.39301 1.96978,1.96976 1.97734,1.96967 1.97734,-0.0227 0,-5.92729 6.701,1.87519 9.3883,10.9315 2.02134,6.812 2.03445,9.0685 0.0527,9.0685 -0.85746,0 -1.2809,0.45 -0.94098,1 1.31845,2.13329 3.30756,0.8393 3.94667,-2.56744 z M 41.101697,192.4215 c 0,-1.19524 -0.85249,-1.85245 -2.58933,-1.99619 -3.72146,-0.308 -4.41067,-0.97693 -4.41067,-4.28094 0,-1.61754 -0.45,-2.94098 -1,-2.94098 -0.55,0 -1,-0.47656 -1,-1.05902 0,-0.58246 0.45,-0.7809 1,-0.44098 0.55,0.33992 1,0.17898 1,-0.35765 0,-0.53663 -1.2375,-1.4091 -2.75,-1.93882 -2.13277,-0.74696 -1.01052,-0.91447 5,-0.74632 6.93282,0.19396 7.75,0.0231 7.75,-1.62019 0,-2.08331 -1.57442,-2.47866 -2.33772,-0.58702 -0.30131,0.74674 -0.53617,0.54544 -0.58333,-0.5 -0.0889,-1.97066 -2.07045,-2.44375 -2.09426,-0.5 -0.01,0.80447 -0.27718,0.88165 -0.75,0.21654 -0.65909,-0.92711 -2.38288,-1.14245 -3.73469,-0.46654 -0.275,0.1375 -0.8375,0.3222 -1.25,0.41044 -4.79009,1.02466 -7.01783,5.73298 -5.24877,11.09327 0.98798,2.99361 4.51161,5.25899 7.24877,4.66033 0.4125,-0.0902 0.75,0.33844 0.75,0.95259 0,0.62456 0.88196,0.88599 2.00138,0.59326 1.10076,-0.28785 1.7492,-0.11534 1.44098,0.38337 -0.30821,0.49871 -0.0838,0.90674 0.49862,0.90674 0.58246,0 1.05902,-0.80185 1.05902,-1.78189 z m -10,-4.77713 c 0,-0.85746 0.45734,-1.27636 1.01631,-0.9309 0.55897,0.34546 0.75742,1.04702 0.44099,1.55902 -0.85724,1.38704 -1.4573,1.12841 -1.4573,-0.62812 z m 17,3.5 c 0,-1.7847 -0.41658,-2.80156 -1,-2.44098 -0.55,0.33992 -1,1.26648 -1,2.05902 0,0.79254 -0.43588,1.44098 -0.96861,1.44098 -0.53274,0 -0.67349,-0.7875 -0.31277,-1.75 0.57433,-1.53249 0.44614,-1.57942 -1.03139,-0.37756 -2.68385,2.18313 -2.06542,4.12756 1.31277,4.12756 2.67953,0 3,-0.32678 3,-3.05902 z m 3.13164,-2.75 0.13164,-3.69098 0.68871,3.5 0.6887,3.5 0.79407,-3.76667 c 0.5334,-2.53017 0.35578,-4.82481 -0.54109,-6.99005 l -1.33517,-3.22338 -1.2024,3.99005 c -1.50361,4.98961 -1.72546,11.83636 -0.3561,10.99005 0.55,-0.33992 1.05924,-2.27898 1.13164,-4.30902 z m 69.642253,0.95934 c 1.47072,-0.42062 3.11434,-2.46607 4.65334,-5.79099 l 2.37945,-5.14067 -5.65334,2.24646 c -3.10934,1.23554 -8.56809,2.84453 -12.13055,3.57553 l -6.47722,1.32907 4.97722,2.30227 c 5.00386,2.3146 8.04421,2.68148 12.2511,1.47833 z m -78.773893,-2.15032 c 0,-0.55 -0.19844,-1 -0.44098,-1 -0.24254,0 -0.7191,0.45 -1.05902,1 -0.33992,0.55 -0.14147,1 0.44098,1 0.58246,0 1.05902,-0.45 1.05902,-1 z m 3.9967,-1.49132 c 0.99425,-2.61507 0.4145,-5.50868 -1.10369,-5.50868 -0.49115,0 -0.89301,0.39375 -0.89301,0.875 0,0.48125 -0.28125,2.28125 -0.625,4 -0.76499,3.82493 1.22547,4.30604 2.6217,0.63368 z M 151.1017,185.58536 c 0,-0.89061 -0.4753,-1.20625 -1.16994,-0.77694 -0.79376,0.49057 -0.95821,0.1713 -0.51145,-0.99292 0.39113,-1.01928 0.25712,-1.46793 -0.33006,-1.10503 -0.55645,0.3439 -0.98855,-0.54793 -0.98855,-2.04033 0,-1.45821 -0.94121,-3.84727 -2.09157,-5.30902 l -2.09157,-2.65773 0.73044,4 c 1.28173,7.01892 6.4527,14.13663 6.4527,8.88197 z m -4.92105,-6.9653 c 0.048,-1.16495 0.28494,-1.4019 0.60416,-0.60417 0.28887,0.72187 0.25335,1.58437 -0.0789,1.91667 -0.3323,0.33229 -0.56864,-0.25834 -0.52522,-1.3125 z m -105.780893,4.55157 c 0.5499,-2.10285 -1.41214,-4.126 -2.07445,-2.13906 -0.21694,0.6508 -0.80599,0.92892 -1.30902,0.61803 -0.50302,-0.31088 -0.91459,-0.11105 -0.91459,0.44408 0,0.55513 0.7875,1.46801 1.75,2.02861 0.97121,0.56568 1.19372,1.03282 0.5,1.04969 -0.6875,0.0167 -1.25,0.53551 -1.25,1.15285 0,1.75282 2.68681,-0.8168 3.29806,-3.1542 z m 65.701943,-0.8395 c 0,-0.25919 -0.78428,-1.40669 -1.74285,-2.55 -1.63936,-1.95531 -1.59482,-1.95038 0.75,0.0831 1.88068,1.63094 2.75512,1.87333 3.56084,0.98705 1.30867,-1.43952 -1.08357,-8.0663 -2.5784,-7.14245 -0.57511,0.35544 -0.30872,1.60307 0.65698,3.07693 0.89339,1.36348 1.33839,2.76501 0.98889,3.11451 -0.3495,0.34951 -0.64235,0.22296 -0.65077,-0.2812 -0.008,-0.50417 -0.42413,-1.56273 -0.92379,-2.35237 -0.73678,-1.16436 -1.19513,-1.19779 -2.42524,-0.17688 -0.83423,0.69234 -1.26332,1.91931 -0.95354,2.72659 0.30978,0.80728 0.17054,1.39609 -0.30944,1.30846 -1.6375,-0.29894 -2.491403,0.0764 -1.99629,0.87753 0.52029,0.84185 5.62361,1.14017 5.62361,0.32874 z m 16.75,-3.87427 c 3.4375,-1.35693 6.25,-2.79229 6.25,-3.18968 0,-0.3974 -2.43485,-0.82104 -5.41079,-0.94144 -4.80128,-0.19425 -5.8151,0.13608 -9,2.93246 -6.43474,5.64979 -4.01539,6.00514 8.16079,1.19866 z m 45.02526,0.72805 c 2.35139,-0.72282 5.95139,-2.79586 8,-4.60675 4.00684,-3.54188 3.67722,-3.97075 -1.78186,-2.31838 -1.92137,0.58157 -7.65654,1.01821 -12.74483,0.97031 l -9.25143,-0.0871 2.12452,4.37292 c 2.06233,4.24489 2.23071,4.35257 5.75143,3.67807 1.9948,-0.38216 5.55077,-1.28624 7.90217,-2.00907 z m -29.79057,1.26748 c -0.008,-0.4125 -0.45153,-1.425 -0.98469,-2.25 -0.78387,-1.21296 -0.9723,-1.06944 -0.98469,0.75 -0.008,1.2375 0.43469,2.25 0.98469,2.25 0.55,0 0.99311,-0.3375 0.98469,-0.75 z m -27.68601,-3.91404 c -0.42936,-1.11889 -0.25527,-1.42717 0.53138,-0.94099 0.64347,0.39769 1.16994,0.21995 1.16994,-0.39497 0,-0.61492 0.4317,-0.85123 0.95932,-0.52514 1.53402,0.94808 5.03409,-1.7675 5.11097,-3.96541 0.0701,-2.00558 0.0719,-2.0056 0.92971,-0.009 0.74059,1.72345 0.87127,1.58517 0.94503,-1 0.0471,-1.65 0.5454,-3.675 1.10738,-4.5 0.74199,-1.08925 0.87177,-0.40467 0.47395,2.5 -0.35828,2.61594 -0.25625,3.3265 0.29489,2.05355 0.79088,-1.82666 0.89167,-1.79589 1.6377,0.5 l 0.79495,2.446 0.45773,-2.5 c 0.77936,-4.25673 2.28837,-4.71832 2.28837,-0.7 0,2.62222 0.43694,3.7 1.5,3.7 1.14272,0 1.4662,-1.13138 1.35809,-4.75 l -0.1419,-4.75 -0.71619,4 -0.71619,4 -0.1419,-3.80902 c -0.084,-2.25511 -0.54986,-3.55688 -1.14191,-3.19098 -0.55,0.33992 -1.00689,0.029 -1.01531,-0.69098 -0.0111,-0.95119 -0.2803,-0.89899 -0.98469,0.19098 -0.64625,1 -0.97448,1.08333 -0.98469,0.25 -0.008,-0.6875 -0.91531,-1.25 -2.01531,-1.25 -1.1,0 -2.03553,0.5625 -2.07895,1.25 -0.049,0.77622 -0.3075,0.68146 -0.68194,-0.25 -0.36563,-0.90953 -1.10782,0.46824 -1.88541,3.5 l -1.28241,5 0.47855,-4.5 c 0.294,-2.76465 0.14073,-3.98502 -0.39745,-3.16459 -0.4818,0.73448 -1.26831,1.40948 -1.74781,1.5 -0.47949,0.0905 -0.79587,1.06459 -0.70305,2.16459 0.13307,1.57705 0.0612,1.62992 -0.33971,0.25 -0.27966,-0.9625 -0.89891,-1.75 -1.37613,-1.75 -1.38918,0 -2.1145,1.80236 -1.002,2.48992 0.55897,0.34546 0.98468,1.38906 0.94602,2.3191 -0.0573,1.37849 -0.2291,1.32139 -0.92971,-0.30902 -0.79219,-1.84352 -0.87043,-1.80441 -1,0.5 -0.12957,2.30441 -0.20781,2.34352 -1,0.5 -0.47269,-1.1 -0.89106,-1.46679 -0.92971,-0.8151 -0.0893,1.50477 1.71874,6.3151 2.37357,6.3151 0.27136,0 0.20602,-0.74882 -0.14518,-1.66404 z m 27.70132,-2.12507 c 0,-1.18064 -0.28349,-1.2205 -1.5,-0.21089 -0.825,0.68469 -1.5,1.33979 -1.5,1.45578 0,0.11599 0.675,0.21089 1.5,0.21089 0.825,0 1.5,-0.6551 1.5,-1.45578 z m 27.9053,-4.73416 c -1.60619,-1.60619 -7.78544,-2.28688 -9.74818,-1.07384 -2.65002,1.63781 -0.78203,2.59711 5.05717,2.59711 5.566,0 6.05537,-0.15891 4.69101,-1.52327 z m 7.21301,-2.33372 c 0.11658,-2.60409 0.12956,-2.59883 0.88169,0.35699 0.71918,2.82632 0.77429,2.85527 0.95197,0.5 0.17441,-2.31184 0.25328,-2.34948 1.04803,-0.5 0.47269,1.1 0.89106,1.45162 0.92971,0.78138 0.0405,-0.70296 0.81079,-0.97602 1.82029,-0.6453 0.9625,0.31532 -0.05,-0.56569 -2.25,-1.95779 l -4,-2.5311 -1.03933,3.6764 c -0.83431,2.95123 -1.1795,3.31509 -1.75,1.84462 -0.39087,-1.00748 -0.67904,-2.80748 -0.64038,-4 0.068,-2.09902 0.0977,-2.10438 0.92971,-0.16821 0.83687,1.94749 0.86127,1.94391 0.92971,-0.1365 0.0535,-1.62496 -0.63882,-2.24058 -2.89134,-2.57118 -1.93879,-0.28455 -3.14757,0.0499 -3.5,0.96829 -0.89766,2.33927 -0.58454,3.85823 0.46163,2.23939 0.80752,-1.24956 0.98857,-1.16607 1.08437,0.5 0.0959,1.66733 0.24816,1.58416 0.91563,-0.5 0.79228,-2.4739 0.80168,-2.47582 0.90032,-0.18426 0.25136,5.83948 4.96663,7.94253 5.21799,2.32727 z M 56.995827,166.26158 c 3.94411,-2.16799 8.84393,-5.23276 10.88849,-6.81058 2.04456,-1.57783 8.89238,-6.35377 15.21738,-10.61319 6.325,-4.25943 19.825003,-13.52049 30.000003,-20.58014 67.09162,-46.549697 99.76029,-67.014758 126.88601,-79.486852 6.19792,-2.84973 11.91272,-8.09113 10.45664,-9.590428 -1.80111,-1.854569 -7.43913,-2.690935 -11.84265,-1.756787 -5.19402,1.101841 -39.54056,18.496787 -50.5,25.575933 -4.675,3.019771 -14.125,9.418886 -21,14.220257 -6.875,4.80137 -15.2,10.20001 -18.5,11.99698 -3.3,1.79697 -9.50853,5.7249 -13.79674,8.72874 -8.15498,5.712447 -16.04071,10.318037 -31.33901,18.303237 -11.726363,6.12077 -38.846883,24.21619 -48.991923,32.6885 -2.12978,1.77862 -8.14733,6.49959 -13.37233,10.49103 l -9.5,7.25717 5.11402,0.63318 c 2.81271,0.34825 5.96271,1.1261 7,1.72856 3.19919,1.8581 5.83971,1.30423 13.28011,-2.78561 z m 93.598233,-1.55819 c 0.43777,-2.07184 0.34239,-2.53592 -0.30828,-1.5 -1.52772,2.43228 -2.57968,6.66398 -1.36724,5.5 0.5729,-0.55 1.32688,-2.35 1.67552,-4 z m 3.50764,2.94098 c 0,-0.85746 0.45,-1.2809 1,-0.94098 0.55,0.33992 1,0.11492 1,-0.5 0,-0.61492 0.51563,-0.79936 1.14584,-0.40986 0.81093,0.50117 0.95469,-0.13923 0.49187,-2.19099 l -0.65397,-2.89915 1.52949,2.5 1.52949,2.5 -0.27136,-2.5 c -0.18918,-1.74288 -0.87706,-2.5 -2.27136,-2.5 -1.44252,0 -1.90869,0.55748 -1.67243,2 0.32744,1.99925 0.327,1.99925 -1.16824,0.002 -1.82019,-2.43181 -2.21174,-2.06763 -2.95492,2.74843 -0.44167,2.86219 -0.23843,3.75 0.85846,3.75 0.79042,0 1.43713,-0.70156 1.43713,-1.55902 z m -13.17125,-1.77219 c 0.27033,-1.41772 -0.17665,-1.75642 -1.97957,-1.5 -1.29371,0.184 -2.48395,1.14511 -2.67793,2.16242 -0.27033,1.41772 0.17665,1.75642 1.97957,1.5 1.29371,-0.184 2.48395,-1.14511 2.67793,-2.16242 z m 22.416,-2.16879 c 0.32047,-1.67641 0.0294,-2.5 -0.88342,-2.5 -0.78542,0 -1.36133,1.05763 -1.36133,2.5 0,1.375 0.39754,2.5 0.88342,2.5 0.48589,0 1.09848,-1.125 1.36133,-2.5 z m -46.3862,-1.87871 c 2.31869,-1.28574 2.25954,-1.36317 -3.5,-4.58127 -3.2222,-1.80038 -6.64605,-3.96565 -7.60855,-4.81171 -1.18022,-1.03744 -1.75,-1.14607 -1.75,-0.33364 0,2.57217 3.24486,7.28387 6.29855,9.14581 3.74287,2.28216 3.52636,2.263 6.56,0.58081 z m 13.97944,-3.28534 c 0.13572,-2.01523 0.45028,-3.99336 0.69902,-4.39584 0.24875,-0.40248 -0.43035,-1.79116 -1.5091,-3.08595 l -1.96137,-2.35416 0.10863,5 0.10864,5 0.71619,-4 0.71619,-4 0.1419,4.17668 c 0.16247,4.78177 -2.05654,6.12487 -5.09661,3.0848 -1.07637,-1.07637 -3.22,-1.74591 -5.51148,-1.72144 l -3.75,0.04 3,1.62531 c 1.65,0.89393 5.025,2.18567 7.5,2.87055 2.475,0.68487 4.52053,1.28546 4.54561,1.33464 0.0251,0.0492 0.15666,-1.5594 0.29238,-3.57463 z m 21.41227,0.27927 c 1.486,-2.20884 2.86838,-8.85952 2.17625,-10.47003 -0.53786,-1.25157 -0.87689,-0.89505 -1.41701,1.49013 -0.3905,1.72442 -1.6036,4.42442 -2.69578,6 -3.70816,5.34936 -3.78126,5.64675 -1.18895,4.83703 1.30638,-0.40805 2.71285,-1.24376 3.12549,-1.85713 z m 27.22031,-0.7752 c -4.0484,-3.55454 -7.85665,-10.46335 -8.88492,-16.11877 -0.66802,-3.67401 -0.61321,-3.76536 1.97736,-3.2956 2.50117,0.45355 2.56555,0.37389 1.05071,-1.29999 -0.88755,-0.98073 -1.61372,-2.80835 -1.61372,-4.06139 0,-1.55648 -0.44956,-2.10574 -1.41901,-1.73372 -0.78046,0.29949 -2.42431,-0.32737 -3.65301,-1.39301 -2.6624,-2.30909 -3.04076,-2.39502 -2.32427,-0.52788 0.71128,1.85358 -2.77575,2.9311 -6.69779,2.06968 -1.67702,-0.36834 -5.82941,-1.91159 -9.22752,-3.42945 -6.81344,-3.0434 -10.69535,-4.21245 -10.6466,-3.20627 0.0645,1.33099 2.58307,3.88992 6.88002,6.99025 4.08984,2.95088 4.54139,3.06596 6.18699,1.57671 0.97634,-0.88358 2.27932,-1.29492 2.89552,-0.91409 0.70745,0.43724 -0.28282,1.93217 -2.68699,4.05634 -2.09404,1.85015 -3.28234,3.38265 -2.64067,3.40554 0.64166,0.0229 1.38586,-0.52087 1.65377,-1.20837 0.2679,-0.6875 0.37168,1.34622 0.23062,4.51938 -0.14107,3.17316 -0.60034,6.09816 -1.02059,6.5 -0.42026,0.40184 -0.43841,-0.78818 -0.0404,-2.64449 0.5193,-2.42169 0.40127,-3.1758 -0.41784,-2.66956 -0.65002,0.40173 -1.01902,2.56729 -0.85694,5.02909 0.15656,2.37796 0.56043,4.15335 0.89749,3.94533 1.10373,-0.68121 3.11923,-9.24525 2.436,-10.35075 -0.36678,-0.59345 -0.15998,-1.079 0.45954,-1.079 0.69339,0 0.86715,-0.81684 0.45201,-2.12485 -0.42312,-1.33313 -0.16878,-2.44522 0.68261,-2.98468 1.99428,-1.2636 2.85706,-1.07953 2.85706,0.60953 0,2.0563 0.41659,1.93517 5.1587,-1.5 2.27776,-1.65 5.25511,-3 6.61634,-3 2.21019,0 2.41151,0.31723 1.8819,2.9653 -0.88185,4.40924 -4.67576,9.6447 -8.86873,12.23853 -3.29344,2.03737 -5.39069,4.52702 -4.53463,5.38308 0.68845,0.68846 9.2607,-1.79419 9.98773,-2.89259 0.54452,-0.82267 1.9525,0.10089 4.5246,2.9679 3.633,4.04954 8.41496,7.2166 11.01889,7.29774 0.70663,0.022 -0.33477,-1.38195 -2.31423,-3.11994 z M 38.101697,159.7658 c 0,-0.24067 -2.1375,-1.60194 -4.75,-3.02504 -2.6125,-1.4231 -5.5375,-3.96266 -6.5,-5.64345 -1.94159,-3.39057 -2.38447,-10.89392 -0.64301,-10.89392 0.60884,0 0.84797,-0.675 0.53139,-1.5 -0.38781,-1.01061 0.0474,-1.5 1.33399,-1.5 1.05028,0 2.18771,-0.45 2.52763,-1 0.33992,-0.55 2.27898,-1.01368 4.30902,-1.03041 4.46851,-0.0368 2.50257,-1.59597 -2.6798,-2.1253 -2.66579,-0.27228 -3.76927,0.18348 -5.2761,2.17916 -2.30358,3.0509 -3.32822,8.6305 -2.44726,13.32641 0.86975,4.63616 7.47891,11.65014 10.97774,11.65014 1.43902,0 2.6164,-0.19691 2.6164,-0.43759 z m 4.55887,-4.13416 c 1.83733,-1.4877 1.76066,-1.54118 -1.43387,-1 -1.85625,0.31446 -4.10625,0.61661 -5,0.67143 -0.92604,0.0568 -0.54968,0.44406 0.875,0.90032 3.56039,1.14024 3.42769,1.15389 5.55887,-0.57175 z m 136.243953,-5.6064 c -4.20749,-9.79556 -8.44077,-13.60459 -5.44001,-4.89485 1.65758,4.81117 6.89748,12.79214 7.40298,11.27562 0.18692,-0.56074 -0.69642,-3.43209 -1.96297,-6.38077 z m 5.58751,0.73643 c -0.347,-2.16794 -1.15958,-4.41794 -1.80574,-5 -0.64617,-0.58205 -2.45814,-2.18328 -4.02661,-3.55828 l -2.85176,-2.5 2.56031,4.5 c 1.40817,2.475 3.12531,6.42853 3.81585,8.78563 1.54394,5.27003 3.24517,3.62821 2.30795,-2.22735 z m -57.39033,1.44172 c 0,-3.2508 -0.35276,-4 -1.88342,-4 -1.26011,0 -2.05724,0.90926 -2.40863,2.74745 -0.65065,3.40365 1.5116,5.14998 2.44237,1.97257 0.59096,-2.01739 0.65942,-1.96902 0.75,0.52998 0.15575,4.29698 1.09968,3.22402 1.09968,-1.25 z m 69.5,1.97799 c 1.78215,-0.67949 1.67323,-0.8442 -1,-1.51217 -1.65,-0.41229 -4.60471,-1.55267 -6.56601,-2.53418 l -3.56602,-1.78456 0.45416,3.17646 c 0.24979,1.74705 0.9545,3.51316 1.56602,3.92469 1.1147,0.75014 5.36794,0.15721 9.11185,-1.27024 z m -82.47033,-2.92255 c -1.34577,-2.51459 -3.00466,-2.67805 -3.09996,-0.30544 -0.0601,1.49644 -0.19481,1.46022 -0.92971,-0.25 -0.71661,-1.66765 -0.87111,-1.7145 -0.92971,-0.28194 -0.0738,1.8029 5.1997,5.25143 5.74456,3.75661 0.17317,-0.47509 -0.18016,-1.78874 -0.78518,-2.91923 z m -1.95072,0.36123 c 0.048,-1.16495 0.28494,-1.4019 0.60416,-0.60417 0.28887,0.72187 0.25335,1.58437 -0.0789,1.91667 -0.3323,0.33229 -0.56864,-0.25834 -0.52522,-1.3125 z m -70.828953,1.94148 c 3.45324,-0.57078 3.75,-0.88178 3.75,-3.92998 0,-1.82057 -0.45,-3.58825 -1,-3.92817 -0.55249,-0.34146 -1,0.38004 -1,1.61224 0,4.71623 -4.70392,7.18695 -9.15139,4.80674 -2.21089,-1.18323 -3.42852,-0.66632 -2.38973,1.01449 0.73967,1.19681 4.2093,1.3473 9.79112,0.42468 z m 74.874093,-1.62482 c -0.98762,-0.98026 -1.10248,-0.8654 -0.5598,0.5598 0.37553,0.98622 0.93469,1.54122 1.24258,1.23333 0.30789,-0.30789 6.4e-4,-1.11479 -0.68278,-1.79313 z m 5.52563,-2.02101 c -0.2705,-0.66677 -0.55898,-0.31232 -0.64106,0.78768 -0.14923,2 -0.14923,2 -1.00866,0 -0.84533,-1.96719 -0.86058,-1.96582 -0.92971,0.0833 -0.0387,1.14584 0.24228,2.39591 0.62432,2.77795 0.93561,0.9356 2.57428,-2.12275 1.95511,-3.64896 z m -69.681143,-2.56119 c 0.0412,-1.76738 -2.93687,-8.0135 -4.18994,-8.78794 -0.538,-0.3325 -0.44159,0.39807 0.21423,1.62349 0.7681,1.4352 0.84819,2.57226 0.22508,3.19538 -0.62312,0.62311 -1.19398,-0.24077 -1.60425,-2.42769 -0.4876,-2.59913 -1.45469,-3.78498 -4.1253,-5.05851 -1.93471,-0.9226 -3.4884,-1.21134 -3.4884,-0.6483 0,0.55837 0.675,1.27423 1.5,1.59081 2.30344,0.88392 1.85404,3.26698 -0.5,2.65138 -1.1,-0.28766 -2,-0.92053 -2,-1.40638 0,-0.48585 -1.35,-0.88337 -3,-0.88337 -1.65,0 -3,0.40122 -3,0.89159 0,0.76066 1.14227,1.24532 6.25,2.65188 0.4125,0.11359 1.35929,0.26278 2.10398,0.33153 2.79272,0.25783 6.64602,4.96801 6.64602,8.12394 l 0,3.09443 2.46858,-1.79669 c 1.35771,-0.98817 2.48271,-2.40367 2.5,-3.14555 z m -20.57356,0.48045 c -0.36552,-1.17237 -1.16643,-2.46219 -1.7798,-2.86627 -0.69668,-0.45896 -0.45845,-0.74043 0.63478,-0.75 0.9625,-0.008 1.75,-0.69031 1.75,-1.51531 0,-0.825 0.5625,-1.52852 1.25,-1.56339 0.6875,-0.0349 0.20345,-0.48295 -1.07566,-0.99576 -4.29249,-1.7209 -6.94913,4.24439 -3.9961,8.97294 1.58059,2.53094 4.09337,1.52934 3.21678,-1.28221 z m 8.17641,1.93985 c 1.55942,-1.55942 1.85813,-2.63926 0.67857,-2.45301 -2.1027,0.33201 -3.25,-0.28047 -3.25,-1.735 0,-1.19781 0.66725,-1.48902 2.57582,-1.12417 2.98677,0.57095 1.99543,-0.71081 -1.32582,-1.71424 -1.66546,-0.50318 -2.25,-0.27259 -2.25,0.8876 0,0.86207 -0.675,1.56739 -1.5,1.56739 -2.24291,0 -1.80869,2.67038 0.72251,4.4433 2.70176,1.89239 2.58801,1.88904 4.34892,0.12813 z m 105.428573,-0.0714 c 0,-0.825 -0.43588,-1.5 -0.96862,-1.5 -0.53273,0 -0.70959,0.675 -0.39301,1.5 0.31659,0.825 0.75246,1.5 0.96862,1.5 0.21615,0 0.39301,-0.675 0.39301,-1.5 z m 54,0.059 c 0,-0.79254 -0.45,-1.7191 -1,-2.05902 -0.55,-0.33992 -1,0.30852 -1,1.44098 0,1.13246 0.45,2.05902 1,2.05902 0.55,0 1,-0.64844 1,-1.44098 z m 3,0.441 c 0,-0.55 -0.45,-1 -1,-1 -0.55,0 -1,0.45 -1,1 0,0.55 0.45,1 1,1 0.55,0 1,-0.45 1,-1 z m -8.14983,-3.75 c -0.12052,-3.01644 -0.23133,-3.21205 -0.56642,-1 -0.6297,4.15673 -2.28375,3.29414 -2.28375,-1.19098 0,-2.16754 -0.52089,-4.26291 -1.15752,-4.65637 -0.81158,-0.50158 -0.96509,0.004 -0.51366,1.69098 0.35413,1.3235 0.65002,3.61087 0.65753,5.08305 0.009,1.70063 0.65178,2.84343 1.76365,3.13399 0.9625,0.25153 1.8625,0.50953 2,0.57333 0.1375,0.0638 0.18258,-1.5715 0.10017,-3.634 z m 1.84282,0.019 c -0.25354,-0.97297 -0.47766,-0.41903 -0.49804,1.23097 -0.0204,1.65 0.18706,2.44606 0.46099,1.76903 0.27392,-0.67703 0.29059,-2.02703 0.0371,-3 z m -47.25954,-5.11917 c -0.83638,-0.9749 -2.26142,1.13486 -1.71984,2.54621 0.39366,1.02585 0.22637,1.38487 -0.45041,0.9666 -0.70076,-0.43309 -0.87436,0.10826 -0.49721,1.55046 0.52174,1.99516 0.69843,1.87078 1.77365,-1.24862 0.65681,-1.90548 1.05902,-3.62207 0.89381,-3.81465 z m 8.94493,4.10014 c -0.94185,-3.92596 -1.37838,-4.05791 -1.37838,-0.41664 0,1.74167 0.45857,3.16667 1.01905,3.16667 0.60496,0 0.75097,-1.11746 0.35933,-2.75 z m 3.97545,-4.25 0.57903,-4.5 -1.36826,4.5 c -0.75254,2.475 -1.41243,3.6375 -1.46642,2.58333 -0.054,-1.05416 -0.37722,-1.63762 -0.71828,-1.29657 -0.34105,0.34106 -0.30584,1.8722 0.0782,3.40254 0.89458,3.56427 2.08085,1.6432 2.89568,-4.6893 z m 26.68697,4.60732 c -0.50033,-1.31597 -0.66592,-3.32485 -0.36798,-4.46417 0.30424,-1.16344 -0.11262,-2.72581 -0.95097,-3.56416 -1.32357,-1.32356 -1.46073,-0.98515 -1.2107,2.98707 0.15508,2.46386 0.83362,5.14443 1.50786,5.95684 1.75229,2.11139 2.06583,1.83045 1.02179,-0.91558 z M 72.377887,133.76005 c 10.98547,-7.93919 22.3936,-14.98943 32.723813,-20.22336 10.58277,-5.36189 18.92631,-10.26577 30.5,-17.926247 4.95,-3.27634 11.6055,-7.42226 14.79001,-9.21315 3.18451,-1.79089 9.03451,-5.57531 13,-8.40982 16.94133,-12.109578 31.8063,-21.397474 45.98875,-28.734594 8.33292,-4.310935 15.3253,-8.361673 15.53862,-9.00164 0.55893,-1.676781 -2.79489,-5.047848 -5.02203,-5.047848 -2.68582,0 -6.97501,2.365188 -17.29535,9.537153 -13.62498,9.468484 -28.64821,18.602915 -65,39.521329 -13.34621,7.67999 -26.95377,16.013787 -39.000003,23.885097 -4.95,3.23445 -11.4104,7.30121 -14.35644,9.03724 -9.2144,5.42983 -26.51936,17.08562 -29.39356,19.79809 -3.08903,2.91523 -3.13335,3.08261 -1.76744,6.67523 l 0.98257,2.58433 5.04362,-3.26924 c 2.774,-1.79807 8.74435,-5.94373 13.26744,-9.21257 z m 91.520873,5.82512 -0.33938,-3.88178 -0.48235,4.70351 c -0.26529,2.58693 -0.11257,4.33373 0.33938,3.88178 0.45195,-0.45195 0.66901,-2.56853 0.48235,-4.70351 z m 20.02626,1.9742 c -0.45759,-2.32677 -5.35494,-5.76349 -6.87461,-4.82428 -0.89006,0.55008 -0.26972,1.58691 2.15016,3.59382 3.90098,3.23522 5.18447,3.5695 4.72445,1.23046 z m -18.13399,-5.10598 c -0.25153,-0.9625 -0.45733,-0.175 -0.45733,1.75 0,1.925 0.2058,2.7125 0.45733,1.75 0.25152,-0.9625 0.25152,-2.5375 0,-3.5 z m -112.561773,0.0791 c 1.47093,-1.79076 26.73406,-18.61524 33.37244,-22.22502 2.2,-1.1963 8.05,-4.84139 13,-8.10021 13.049733,-8.591237 32.305193,-20.424877 37.412643,-22.992297 2.42695,-1.21999 6.98153,-3.97168 10.12131,-6.11487 3.13977,-2.14319 5.9548,-3.8967 6.25563,-3.8967 1.25263,0 34.04,-20.092528 44.076,-27.010351 5.97607,-4.119308 14.28854,-9.529701 18.47217,-12.023095 6.04248,-3.60126 7.79441,-5.188372 8.52005,-7.718524 1.10665,-3.858664 -1.25825,-8.248032 -4.44386,-8.248032 -3.82837,0 -16.85129,6.958525 -43.91394,23.464501 -21.55179,13.144804 -28.45415,17.29627 -39.5,23.757514 -3.3,1.930327 -12.525,7.442959 -20.5,12.250297 -7.975,4.80733 -16.164803,9.59027 -18.199563,10.62874 -2.03476,1.03847 -8.99631,5.32708 -15.4701,9.53025 -6.47379,4.203157 -17.40899,10.881627 -24.30044,14.841037 -6.89144,3.95941 -14.5549,8.54247 -17.0299,10.18459 -2.475,1.64212 -6.05395,3.93456 -7.95323,5.09431 l -3.45323,2.10864 2.95323,0.63941 c 4.01185,0.86862 10.22181,3.2049 14.45323,5.43753 4.48852,2.36828 4.50371,2.36925 6.12756,0.39231 z M 182.13948,133.0329 c -2.21492,-1.79353 -4.03778,-1.66328 -4.03778,0.28852 0,0.55 0.45,0.72189 1,0.38197 0.55,-0.33992 1.00689,-0.029 1.01531,0.69098 0.0111,0.95314 0.28302,0.90122 1.00003,-0.19098 0.8116,-1.23631 1.10341,-1.06505 1.65995,0.97421 0.42529,1.55834 0.84799,1.95596 1.14192,1.07415 0.25668,-0.77003 -0.54406,-2.21851 -1.77943,-3.21885 z m -6.03778,1.60475 c 0,-0.31116 -0.48123,-1.46492 -1.06939,-2.56392 -0.78135,-1.45996 -0.74296,-2.39151 0.1425,-3.45843 0.66654,-0.80313 1.46188,-1.21025 1.76742,-0.90471 0.30554,0.30554 1.16019,-0.47109 1.89922,-1.72584 l 1.34368,-2.28136 -0.59349,2.5 c -0.58194,2.45132 -0.56127,2.46105 1.06171,0.5 1.64005,-1.98169 1.64925,-1.98 1.0052,0.18444 -0.57043,1.91702 -0.28107,2.17395 2.36365,2.09876 2.27008,-0.0645 3.27,-0.7269 4.05256,-2.68444 1.02187,-2.55615 1.03011,-2.54958 0.50255,0.40124 -0.39938,2.23381 -0.27712,2.61691 0.4787,1.5 0.90228,-1.33333 1.01847,-1.33333 1.04569,0 0.0272,1.33333 0.13833,1.33333 1,0 0.53316,-0.825 0.96937,-1.95 0.96937,-2.5 0,-0.55 -0.43621,-0.325 -0.96937,0.5 -0.58246,0.90129 -0.97549,1.02463 -0.98469,0.30902 -0.0253,-1.9666 1.9515,-2.55909 2.63092,-0.78856 0.5104,1.3301 0.81248,1.39044 1.56906,0.31339 0.74257,-1.0571 0.84337,-1.02263 0.48584,0.16615 -0.24812,0.825 -0.95738,1.3875 -1.57613,1.25 -0.61875,-0.1375 -1.125,0.2 -1.125,0.75 0,0.55 1.35,1 3,1 1.65,0 3,-0.4132 3,-0.91821 0,-0.50502 0.25608,-1.74252 0.56907,-2.75 0.33419,-1.07574 -0.0958,-0.79995 -1.04172,0.66821 -1.50811,2.34065 -1.57196,2.35658 -1.00168,0.25 0.33501,-1.2375 0.24128,-2.2696 -0.20828,-2.29355 -0.44957,-0.0239 -2.69803,-0.4077 -4.99658,-0.85278 -4.78114,-0.92578 -5.80019,-0.51719 -7.294,2.92456 l -1.07281,2.47177 0.48931,-2.53986 c 0.42869,-2.22521 0.12183,-2.56786 -2.477,-2.76588 -1.63147,-0.12432 -2.96631,0.217 -2.96631,0.75847 0,0.54148 -0.68073,0.72328 -1.51273,0.40401 -0.83201,-0.31927 -2.11091,-0.084 -2.84201,0.52271 -1.47835,1.22691 -2.64526,0.51884 -2.64526,-1.60513 0,-0.7658 0.45838,-1.10906 1.01862,-0.76281 0.56024,0.34625 1.70661,-0.8647 2.54749,-2.69098 1.40605,-3.05379 1.4967,-3.10311 1.12836,-0.61401 -0.35088,2.37117 -0.1709,2.58364 1.45251,1.71482 2.03825,-1.09084 2.11446,-1.48582 0.85302,-4.42134 -0.47269,-1.1 -0.89106,-1.41094 -0.92971,-0.69098 -0.0387,0.71996 -0.52867,1.02572 -1.08891,0.67947 -0.56024,-0.34625 -1.66763,0.8647 -2.46086,2.69098 -0.79323,1.82629 -1.45985,2.70818 -1.48138,1.95975 -0.0236,-0.82119 -0.79853,-0.42465 -1.95419,1 l -1.91505,2.36078 -2.5286,-2.37138 -2.5286,-2.37137 1.08663,3.54056 c 0.95734,3.1193 1.30799,3.40231 2.9471,2.37867 2.52955,-1.57973 5.32247,0.24749 5.45292,3.56748 0.133,3.38492 1.10899,5.75604 2.36927,5.75604 0.56726,0 1.03138,-0.25458 1.03138,-0.56574 z m 9.03063,-6.93426 c 0,-0.55 0.43621,-1.675 0.96937,-2.5 0.53316,-0.825 0.96937,-1.05 0.96937,-0.5 0,0.55 -0.43621,1.675 -0.96937,2.5 -0.53316,0.825 -0.96937,1.05 -0.96937,0.5 z M 162.6431,122.5724 c -0.34761,-1.85296 -1.02483,-3.36901 -1.50493,-3.36901 -0.48009,0 -1.5847,-0.27314 -2.45468,-0.60699 -2.33337,-0.8954 -2.06217,4.36174 0.41821,8.10699 1.87737,2.83474 1.98718,2.8728 1.99341,0.69098 0.004,-1.26996 -0.39301,-2.06205 -0.88141,-1.7602 -0.4884,0.30185 -1.08546,-0.7966 -1.32681,-2.44098 -0.31431,-2.14153 -0.0293,-2.9898 1.00463,-2.9898 0.95087,0 1.26506,0.68215 0.92069,1.999 -0.28751,1.09946 -0.115,2.25101 0.38337,2.55902 0.49837,0.30801 0.9674,1.77096 1.0423,3.251 0.1286,2.54108 0.16128,2.55835 0.58672,0.30999 0.24779,-1.30955 0.16612,-3.89705 -0.1815,-5.75 z m 8.20846,5.04752 c -0.95295,-0.95296 -2.86349,0.5906 -2.1533,1.7397 0.42212,0.683 0.98146,0.66575 1.69964,-0.0524 0.58876,-0.58876 0.79291,-1.34803 0.45366,-1.68727 z m -11.74986,1.10652 c 0,-0.26232 -1.10521,-1.20111 -2.45602,-2.08619 -3.00452,-1.96864 -5.80785,-0.83419 -3.00434,1.21578 1.75819,1.28562 5.46036,1.87577 5.46036,0.87041 z m 44.75051,-2.27305 c 0.22888,-0.6875 -0.0713,-1.25 -0.66718,-1.25 -0.59583,0 -1.09022,0.5625 -1.09864,1.25 -0.0115,0.93594 -0.22775,0.91487 -0.86084,-0.0839 -0.69324,-1.09361 -0.94527,-1.07392 -1.39934,0.10937 -0.3795,0.98898 0.10143,1.4088 1.52801,1.33385 1.145,-0.0602 2.2691,-0.67187 2.49799,-1.35937 z m -51.64812,-2.25 c 1.58127,0 1.8328,-0.50354 1.37368,-2.75 l -0.56203,-2.75 1.46176,3 1.46176,3 0.0812,-3.25 c 0.0653,-2.61041 -0.31236,-3.25 -1.91876,-3.25 -1.36706,0 -2.0431,0.71206 -2.13618,2.25 l -0.13618,2.25 -0.44103,-2.30845 c -0.6632,-3.47134 -3.8827,-2.47065 -3.46504,1.077 0.20438,1.73607 -0.16004,2.75706 -1,2.80174 -0.72687,0.0386 -0.42157,0.42828 0.67843,0.86584 1.1,0.43756 2.15,0.40593 2.33333,-0.0703 0.18334,-0.4762 1.20441,-0.86583 2.26906,-0.86583 z m -2.9445,-3 c 0,-1.375 0.22698,-1.9375 0.50439,-1.25 0.27741,0.6875 0.27741,1.8125 0,2.5 -0.27741,0.6875 -0.50439,0.125 -0.50439,-1.25 z m -3.75795,-0.23469 c 0.67854,-0.45317 0.42949,-0.74055 -0.64994,-0.75 -1.17572,-0.0103 -1.72409,0.72305 -1.67105,2.23469 0.0528,1.50344 0.2684,1.75229 0.64994,0.75 0.31405,-0.825 1.06602,-1.83061 1.67105,-2.23469 z m 31.5706,-8.14868 c 2.87396,-2.06473 4.96854,-4.01088 4.65463,-4.32479 -0.3139,-0.31391 -2.04548,0.55032 -3.84795,1.9205 -1.80247,1.37018 -4.62722,3.21646 -6.27722,4.10286 -5.68751,3.05537 -5.81887,3.22047 -4.50922,5.66758 l 1.19728,2.23712 1.77856,-2.92461 c 0.97821,-1.60853 4.12997,-4.61393 7.00392,-6.67866 z m -20.19614,3.61929 c 8.58428,0.5509 7.24063,1.17713 30.7256,-14.32008 6.6,-4.355197 14.07335,-9.018007 16.60744,-10.361797 2.5341,-1.34379 5.99022,-3.60678 7.68026,-5.02886 1.69005,-1.42208 10.60219,-7.31622 19.80476,-13.09808 16.11414,-10.124311 26.40754,-17.703197 26.40754,-19.443495 0,-1.218776 -4.93781,-6.879955 -6.93151,-7.946952 -1.2631,-0.675989 -2.88363,-0.14039 -6.14214,2.030024 -2.43449,1.621558 -6.81714,3.849188 -9.73921,4.950289 -2.92208,1.101102 -7.64708,3.490692 -10.5,5.310201 -2.85293,1.81951 -7.91099,4.688351 -11.24013,6.375205 -5.09634,2.582277 -13.47623,7.621696 -33.03348,19.865368 -10.79135,6.75584 -47.22676,31.502287 -48.3176,32.816667 -1.09759,1.32252 -1.09058,1.67024 0.0414,2.05472 3.67351,1.24766 6.82416,0.90093 11.72412,-1.29026 4.58905,-2.05215 6.44944,-2.32775 12.9129,-1.91295 z m 26.85131,3.29707 c 1.05306,-2.74422 -0.19556,-3.77248 -1.39208,-1.14641 -0.74727,1.64009 -0.81461,2.61342 -0.18081,2.61342 0.55547,0 1.26327,-0.66015 1.57289,-1.46701 z m -0.65634,-8.03299 c 0,-0.55 -0.43621,-0.325 -0.96937,0.5 -0.53316,0.825 -0.96937,1.95 -0.96937,2.5 0,0.55 0.43621,0.325 0.96937,-0.5 0.53316,-0.825 0.96937,-1.95 0.96937,-2.5 z"
     id="path5124"
     inkscape:connector-curvature="0" />
</svg>
