<?xml version="1.0" encoding="UTF-8" standalone="no"?>
<!-- Created with Inkscape (http://www.inkscape.org/) -->

<svg
   xmlns:dc="http://purl.org/dc/elements/1.1/"
   xmlns:cc="http://creativecommons.org/ns#"
   xmlns:rdf="http://www.w3.org/1999/02/22-rdf-syntax-ns#"
   xmlns:svg="http://www.w3.org/2000/svg"
   xmlns="http://www.w3.org/2000/svg"
   xmlns:sodipodi="http://sodipodi.sourceforge.net/DTD/sodipodi-0.dtd"
   xmlns:inkscape="http://www.inkscape.org/namespaces/inkscape"
   id="svg7665"
   version="1.1"
   inkscape:version="0.48.2 r9819"
   width="283"
   height="620"
   sodipodi:docname="Sword.png">
  <metadata
     id="metadata7671">
    <rdf:RDF>
      <cc:Work
         rdf:about="">
        <dc:format>image/svg+xml</dc:format>
        <dc:type
           rdf:resource="http://purl.org/dc/dcmitype/StillImage" />
        <dc:title></dc:title>
      </cc:Work>
    </rdf:RDF>
  </metadata>
  <defs
     id="defs7669">
    <filter
       inkscape:collect="always"
       id="filter8229"
       x="-0.10727987"
       width="1.2145597"
       y="-0.047766905"
       height="1.0955338">
      <feGaussianBlur
         inkscape:collect="always"
         stdDeviation="8.6150891"
         id="feGaussianBlur8231" />
    </filter>
  </defs>
  <sodipodi:namedview
     pagecolor="#ffffff"
     bordercolor="#666666"
     borderopacity="1"
     objecttolerance="10"
     gridtolerance="10"
     guidetolerance="10"
     inkscape:pageopacity="0"
     inkscape:pageshadow="2"
     inkscape:window-width="1272"
     inkscape:window-height="751"
     id="namedview7667"
     showgrid="false"
     inkscape:zoom="2.1532542"
     inkscape:cx="109.64619"
     inkscape:cy="425.03311"
     inkscape:window-x="3"
     inkscape:window-y="0"
     inkscape:window-maximized="0"
     inkscape:current-layer="svg7665" />
  <path
     style="fill:#fdfd16;stroke:none;stroke-width:1px;stroke-linecap:butt;stroke-linejoin:miter;stroke-opacity:1;fill-opacity:1"
     d="m 94.576271,61.080508 12.150429,1.313559 13.79237,-0.98517 0.32839,-9.523305 0.98517,-16.419491 10.83686,-8.866526 -13.46398,-13.792373 -7.22458,-1.641949 -13.463981,6.896187 -4.597457,6.239407 -1.641949,17.404661 0.656779,17.404661 z"
     id="path7679"
     inkscape:connector-curvature="0" />
  <path
     style="fill:#fdfd16;stroke:none;stroke-width:1px;stroke-linecap:butt;stroke-linejoin:miter;stroke-opacity:1;fill-opacity:1"
     d="m 41.048729,131.35593 13.135593,-1.31356 34.152543,-1.97034 6.567796,3.94068 9.523309,3.2839 11.16525,-1.64195 4.26907,-2.95551 39.40678,0.65678 6.89618,3.94068 5.91102,7.22458 0,5.91101 -2.29873,4.26907 -6.89618,3.94068 -11.49365,-2.29873 -10.50847,0.98517 -13.46399,5.58263 -15.10593,13.79237 -9.85169,16.41949 -18.389833,-26.27119 -13.135593,-10.50847 -11.493645,-3.2839 -6.896186,0.98517 -5.582627,4.59746 -3.940678,3.61229 -12.150424,-2.62712 -2.955508,-8.20975 1.313559,-10.18008 8.538136,-7.55297 4.925847,0"
     id="path8189"
     inkscape:connector-curvature="0" />
  <path
     style="fill:#6b2300;stroke:none;stroke-width:1px;stroke-linecap:butt;stroke-linejoin:miter;stroke-opacity:1;fill-opacity:1"
     d="m 88.336865,127.41525 6.896186,4.59746 8.538139,2.29873 8.53813,-0.65678 7.22458,-3.61229 1.64195,-66.663134 -1.31356,-2.627118 -6.5678,1.970339 -15.105931,-1.970339 -5.911016,-0.65678 z"
     id="path8191"
     inkscape:connector-curvature="0" />
  <path
     style="fill:#aeaeae;stroke:none;stroke-width:1px;stroke-linecap:butt;stroke-linejoin:miter;stroke-opacity:1;fill-opacity:1"
     d="m 83.411017,165.50847 19.046613,26.27119 11.16525,-17.73305 9.19492,-9.8517 -8.53814,79.47034 -1.31356,59.11017 9.8517,42.69068 26.27118,43.01907 31.19704,38.09322 9.5233,9.5233 13.79238,7.88136 22.65889,3.61229 -3.28389,8.53813 -0.65678,19.70339 10.83686,41.37712 7.88136,21.67373 12.15042,27.58475 8.53814,16.0911 15.10593,14.77754 -18.06144,-3.2839 -36.77966,-21.67373 -16.74789,-12.8072 -33.16737,-32.83898 -20.68856,-25.9428 L 129.71398,465 99.502119,398.33686 88.993644,363.52754 l -6.896186,-52.21398 -0.32839,-23.31568 0.32839,-81.11229 1.641949,-32.51059 z"
     id="path8193"
     inkscape:connector-curvature="0" />
  <path
     style="fill:#000000"
     d="m 121.4384,12.801754 c 3.84419,2.63984 12.98213,12.86633 12.98213,14.52861 0,0.57933 -1.48351,1.67318 -3.29669,2.43078 -1.81318,0.75759 -4.51318,2.82316 -6,4.59014 -2.5236,2.99913 -2.71248,3.88899 -2.84128,13.38598 -0.25529,18.82362 -0.75979,36.04278 -1.71905,58.673266 -0.52455,12.375 -0.75371,22.7051 -0.50924,22.95578 0.24447,0.25068 9.31438,0.47568 20.15537,0.5 19.12817,0.0429 19.84278,0.11813 24.17219,2.54422 8.77782,4.91887 11.64588,13.74809 6.4657,19.90439 -3.68731,4.38211 -9.09188,5.62566 -15.87701,3.65317 -3.02899,-0.88056 -6.78538,-1.29209 -8.69212,-0.95228 -9.60166,1.7112 -22.71322,8.71255 -22.75302,12.14974 -0.0111,0.95974 -0.48035,4.23588 -1.04274,7.28032 -1.00733,5.45305 -1.50972,10.29925 -4.45403,42.96466 -1.99827,22.16974 -4.03176,77.12742 -3.16915,85.65061 0.9979,9.86002 8.047,37.39429 11.15682,43.57934 2.67448,5.31921 11.52879,19.91608 20.51973,33.82801 2.68648,4.15688 4.88452,7.89595 4.88452,8.30904 0,0.41309 2.79891,4.42787 6.2198,8.92174 13.79133,18.11704 30.87238,36.46671 38.53609,41.39818 5.85031,3.76457 21.81863,7.74818 26.94714,6.72247 4.77235,-0.95447 5.93581,1.5604 2.83547,6.12901 -2.29495,3.3818 -2.53342,4.66275 -2.48551,13.35115 0.0671,12.16689 1.61759,21.00735 6.79527,38.74412 7.36865,25.24223 15.34761,45.99847 24.83364,64.60156 6.42614,12.60231 15.05922,22.91115 22.67595,27.07757 6.1719,3.37608 7.07108,4.18416 6.20866,5.57959 -0.41766,0.67578 -1.28353,0.737 -2.36287,0.16707 -0.937,-0.49477 -4.83255,-1.61526 -8.65677,-2.48999 -7.95383,-1.8193 -15.03504,-5.20132 -39.37821,-18.80717 -26.40937,-14.7607 -34.46862,-21.36282 -57.08306,-46.7623 -16.60138,-18.64589 -23.5031,-27.52527 -31.47963,-40.5 -3.04313,-4.95 -8.02504,-13.07067 -11.0709,-18.04594 -3.04587,-4.97527 -9.30297,-17.35027 -13.90468,-27.5 -4.60171,-10.14973 -10.17921,-22.28136 -12.39446,-26.95916 -12.452466,-26.29519 -20.590396,-54.07753 -23.743306,-81.05805 -3.68178,-31.50621 -3.97723,-44.2945 -2.93263,-126.93685 l 0.61303,-48.5 -2.83651,-2.69346 c -3.85359,-3.65926 -13.1131,-7.75587 -19.14523,-8.47029 -4.77849,-0.56594 -5.13479,-0.42951 -9.58065,3.66854 -4.18211,3.85494 -5.07754,4.24599 -9.49459,4.14647 -10.29732,-0.23199 -14.48737,-4.58151 -13.85848,-14.38591 0.43442,-6.77259 4.01546,-12.09609 10.20305,-15.16764 4.32758,-2.14822 25.67667,-4.48789 41.57767,-4.55653 l 9.53828,-0.0412 1.40084,-17.75 c 0.77047,-9.762496 1.53627,-30.799996 1.70178,-46.749996 0.16551,-15.95 0.78154,-31.33474 1.36897,-34.18832 1.4881,-7.22889 4.55705,-11.2892 10.975446,-14.52082 7.08305,-3.56627 13.18558,-3.7018 17.99427,-0.39962 z m -15.69415,2.53224 c -7.186776,3.39993 -8.646956,5.28504 -10.914096,14.09017 -1.32186,5.13388 -1.53519,8.87734 -1.02307,17.95316 0.35587,6.30673 1.05104,11.8708 1.54483,12.36459 1.25821,1.25821 21.737206,1.39961 22.978386,0.15866 0.55558,-0.55547 1.15676,-6.27385 1.33595,-12.7075 0.30139,-10.82124 0.5104,-11.89516 2.79004,-14.33555 1.35533,-1.45091 3.90426,-3.38254 5.66428,-4.2925 l 3.20004,-1.65449 -3.6452,-4.3851 c -4.49224,-5.40408 -10.85261,-10.11516 -13.65492,-10.11411 -1.15498,4.3e-4 -4.87929,1.31564 -8.27624,2.92267 z m 15.92628,3.15664 c 2.65244,1.5449 2.14688,3.23633 -0.75,2.50926 -1.44165,-0.36183 -2.5,-0.19606 -2.5,0.39159 0,0.56048 -0.38115,1.01905 -0.84699,1.01905 -1.03577,0 -5.15301,-3.48945 -5.15301,-4.3673 0,-1.02075 7.33875,-0.6658 9.25,0.4474 z m 0.75,12.38973 c 0,0.39309 -0.9558,1.91069 -2.124,3.37244 l -2.124,2.65773 0.67578,-2.5 c 0.66344,-2.45437 0.645,-2.46349 -1.01053,-0.5 -1.29952,1.54126 -1.55366,1.61342 -1.10796,0.31461 0.3181,-0.92697 0.0527,-1.8606 -0.58968,-2.07474 -0.64241,-0.21414 -0.16713,-0.65108 1.05618,-0.97099 1.23458,-0.32285 2.22421,-0.12388 2.22421,0.44718 0,0.60908 0.61199,0.52092 1.5,-0.21606 0.825,-0.68469 1.5,-0.92327 1.5,-0.53017 z m -28.150796,35.78017 c -0.0829,2.3375 -0.0623,5.42685 0.0459,6.86523 0.1082,1.43837 -0.49894,10.88083 -1.3492,20.98323 -0.85024,10.102396 -1.5459,21.853906 -1.5459,26.114446 l 0,7.74644 3.75,1.87972 c 6.974126,3.49583 18.677116,3.51493 20.828456,0.034 0.39605,-0.64084 -0.27753,-0.5693 -1.67336,0.17773 -2.2295,1.19319 -2.21217,1.10285 0.37932,-1.97696 3.23227,-3.84133 3.91217,-7.4667 0.88684,-4.72882 -2.98606,2.70235 -3.7529,1.88111 -1.02248,-1.09501 1.82371,-1.98782 2.55467,-3.9504 2.63735,-7.08116 0.10369,-3.92655 -0.0429,-4.2068 -1.56862,-3 -1.53313,1.21263 -1.5287,1.08943 0.0497,-1.38366 0.95301,-1.49315 1.73274,-3.68575 1.73274,-4.87244 0,-1.91105 -0.19999,-2.00079 -1.75,-0.78518 -1.53245,1.20183 -1.6018,1.1819 -0.55784,-0.16033 0.65569,-0.84302 1.69726,-2.86127 2.3146,-4.485 l 1.12243,-2.952226 -2.56459,2.409316 c -3.23924,3.0431 -3.2609,2.39302 -0.0646,-1.939316 3.03104,-4.10835 3.50985,-7.17722 0.75,-4.80709 -2.58855,2.22302 -5.09066,3.26581 -2.71924,1.13328 2.83419,-2.54869 5.46924,-6.50118 5.46924,-8.20368 0,-1.13059 -0.41024,-1.06122 -1.94656,0.32913 -1.92875,1.74549 -1.92875,1.72668 0,-2.05645 1.07061,-2.09994 1.94488,-4.73542 1.94282,-5.85663 -0.003,-1.64581 -0.38551,-1.41241 -1.9853,1.21144 -1.08986,1.7875 -2.21882,3.25 -2.50881,3.25 -0.28998,0 0.60341,-1.79106 1.98531,-3.98013 3.06855,-4.8609 3.54996,-9.10622 0.51254,-4.51987 -2.53929,3.8342 -2.53929,2.99187 0,-2.26386 2.61473,-5.41188 2.54139,-7.63413 -0.11505,-3.48614 -3.07483,4.8013 -3.44491,3.94595 -0.54084,-1.25 2.889,-5.16899 2.62095,-5.65987 -0.95561,-1.75 l -2.51557,2.75 1.75751,-2.87052 1.75751,-2.87051 -4.94397,0.61071 c -4.10131,0.50663 -7.84041,0.22779 -16.693976,-1.24492 -0.4125,-0.0686 -0.81786,1.78774 -0.9008,4.12524 z m 21.650796,51.749996 c -0.33992,0.55 -1.06803,1 -1.61803,1 -0.55,0 -0.72189,-0.45 -0.38197,-1 0.33992,-0.55 1.06803,-1 1.61803,-1 0.55,0 0.72189,0.45 0.38197,1 z M 56.920534,130.3982 c -19.27643,1.41025 -19.51638,1.48623 -24.75614,7.83906 -2.0632,2.50147 -2.74386,4.40784 -2.74386,7.6849 0,8.45754 2.1808,11.00315 10.39027,12.12838 3.99833,0.54804 4.74252,0.31975 7.04033,-2.15962 1.67431,-1.80661 2.5694,-3.91597 2.5694,-6.05498 0,-3.25789 -2.10568,-6.42541 -4.27143,-6.42541 -0.82644,0 -0.82106,-0.30751 0.0201,-1.14865 1.74551,-1.74551 5.93901,1.45008 6.75032,5.14397 0.61613,2.80522 0.93914,3.01392 3.8369,2.47907 4.07022,-0.75126 14.68842,2.51752 20.82417,6.41066 2.56302,1.62624 6.51221,5.35488 8.77597,8.28587 2.26377,2.931 5.94179,7.57908 8.17339,10.32908 2.23161,2.75 4.70096,6.4625 5.48745,8.25 0.78648,1.7875 1.648926,3.25 1.916546,3.25 0.26762,0 0.48658,-11.42622 0.48658,-25.39159 l 0,-25.39159 -2.749996,-0.66928 c -1.5125,-0.3681 -4.3665,-1.72628 -6.34222,-3.01818 -5.6364,-3.68557 -5.9293,-3.69833 -35.40778,-1.54169 z m -17.5,12.39036 c 0,0.89208 -0.40186,1.62197 -0.89301,1.62197 -1.29324,0 -2.1455,2.73606 -1.43169,4.59622 0.44289,1.15415 1.4035,1.43802 3.46861,1.025 3.02542,-0.60509 3.63629,0.19858 1.65609,2.17878 -3.37697,3.37697 -8.25572,-0.13934 -7.61165,-5.48602 0.36835,-3.05781 4.81165,-6.69244 4.81165,-3.93595 z m 80.231736,-3.92714 c -12.91565,8.5614 -15.53091,10.78995 -15.09441,12.86243 0.38482,1.82709 -0.233,2.19539 20.37258,-12.14466 4.21341,-2.93224 7.88589,-5.1062 8.16106,-4.83102 0.27518,0.27518 -0.55072,1.0622 -1.83532,1.74895 -1.28461,0.68674 -7.84815,5.24779 -14.58565,10.13566 -8.4231,6.11072 -12.25,9.49476 -12.25,10.83239 0,2.57739 0.18727,2.52592 5.99769,-1.64845 6.77876,-4.87005 6.37558,-3.50781 -0.49769,1.68156 -3.025,2.2839 -5.5,4.77348 -5.5,5.5324 0,1.96414 0.73972,1.74516 4.8561,-1.43757 5.34254,-4.1308 10.1439,-7.3834 10.1439,-6.87184 0,0.24582 -3.375,2.98717 -7.5,6.09189 -4.125,3.10472 -7.5,6.30925 -7.5,7.12116 0,2.05011 0.38269,1.93256 6.54804,-2.01137 7.28379,-4.65939 6.94397,-3.68674 -0.54804,1.5686 -4.47253,3.13731 -6,4.8144 -6,6.58776 l 0,2.379 3.42809,-1.77389 c 1.88544,-0.97564 5.89763,-4.13639 8.91598,-7.02389 3.01834,-2.8875 5.78073,-5.25 6.13863,-5.25 0.35791,0 2.10967,-1.11278 3.8928,-2.47284 1.78314,-1.36006 6.27645,-3.61498 9.98514,-5.01093 8.34911,-3.14259 11.2757,-5.01759 11.96884,-7.66816 0.5718,-2.18656 3.38595,-2.0139 2.87079,0.17613 -0.16486,0.70081 -0.0622,1.8932 0.22811,2.64975 0.39596,1.03186 1.90246,0.46285 6.02954,-2.27737 3.02593,-2.00911 5.25922,-4.04524 4.96287,-4.52475 -0.76135,-1.23189 -4.17144,-1.0843 -4.97464,0.2153 -0.46711,0.7558 -0.9903,0.76872 -1.71664,0.0424 -1.70878,-1.70878 0.92221,-3.88622 5.18717,-4.29295 2.78033,-0.26515 3.70701,-0.0195 3.35794,0.89018 -0.26517,0.69102 0.18983,1.51426 1.01112,1.82941 1.5646,0.6004 1.27383,3.85946 -0.55262,6.19385 -1.16473,1.48864 -4.42735,1.6626 -4.89979,0.26125 -0.18333,-0.54381 -1.68333,0.12055 -3.33333,1.47636 -2.52039,2.07102 -2.7602,2.62631 -1.5,3.47344 3.6171,2.43148 12.97611,0.14956 14.37882,-3.50585 1.0288,-2.68101 0.70543,-6.39159 -0.81288,-9.32769 -3.35561,-6.48903 -8.27278,-8.02763 -25.8342,-8.08362 l -13.76827,-0.0439 -9.73173,6.45089 z m 30.76826,-4.63503 c 0,0.44872 -1.9125,1.86687 -4.25,3.15145 -2.3375,1.28458 -6.95,4.21478 -10.25,6.51156 -3.3,2.29678 -6.675,4.54202 -7.5,4.98941 -4.0377,2.18965 2.2743,-2.78857 11.24147,-8.86603 10.00259,-6.77923 10.75853,-7.1858 10.75853,-5.78639 z m -9,-0.0795 c 0,0.45784 -1.4625,1.68416 -3.25,2.72515 -2.6037,1.51633 -12.3082,8.53367 -20.5,14.8236 -0.6875,0.52788 -1.25,0.69991 -1.25,0.38229 0,-0.64072 12.84744,-10.4945 20.25,-15.53143 2.6125,-1.77762 4.75,-2.85745 4.75,-2.39961 z m 19,0.79919 c 0,0.29454 -1.9125,1.35561 -4.25,2.35793 -2.3375,1.00232 -7.2875,3.94612 -11,6.54178 -3.7125,2.59566 -6.75,4.48233 -6.75,4.19259 0,-0.84789 12.11676,-9.19107 16.71016,-11.50603 4.38764,-2.21126 5.28984,-2.48181 5.28984,-1.58628 z m 9,12.94414 c 0,0.58263 -7.60011,4.5224 -8.71016,4.5152 -0.96914,-0.006 6.91092,-4.92001 7.96016,-4.96367 0.4125,-0.0172 0.75,0.18464 0.75,0.44847 z m -43,1.88413 c 0,0.275 -1.35,1.46129 -3,2.63619 -1.65,1.1749 -3,1.91119 -3,1.63619 0,-0.275 1.35,-1.46129 3,-2.63619 1.65,-1.1749 3,-1.91119 3,-1.63619 z m 7.32688,1.71615 c -1.24069,1.50183 -7.32688,5.33075 -7.32688,4.60945 0,-0.23301 1.9125,-1.68497 4.25,-3.22658 2.3375,-1.54161 3.7221,-2.16391 3.07688,-1.38288 z m -8.75945,5.81094 c -0.71346,1.15438 -4.56743,3.48266 -4.56743,2.75928 0,-0.23109 1.18041,-1.1936 2.62312,-2.13891 1.44272,-0.9453 2.31766,-1.22448 1.94431,-0.62038 z M 114.5232,134.45937 c -6.48459,2.37133 -10.53659,5.14942 -9.97371,6.83806 0.25318,0.75953 1.63457,0.25017 3.88204,-1.43141 4.25947,-3.18697 11.01894,-6.75888 11.63142,-6.14639 0.24674,0.24674 -1.93437,1.82274 -4.8469,3.50222 -6.91964,3.99013 -11.17924,7.55387 -10.68881,8.94267 0.21965,0.62201 4.68045,-1.79749 10.10347,-5.48004 12.09373,-8.21234 12.05126,-10.67143 -0.10751,-6.22511 z m 45.89733,12.55815 c 0,0.21615 0.675,0.39301 1.5,0.39301 0.825,0 1.5,-0.43588 1.5,-0.96862 0,-0.53273 -0.675,-0.70959 -1.5,-0.39301 -0.825,0.31659 -1.5,0.75246 -1.5,0.96862 z m -13.5,4.39301 c -0.33992,0.55 0.0835,1 0.94098,1 0.85746,0 1.55902,-0.45 1.55902,-1 0,-0.55 -0.42344,-1 -0.94098,-1 -0.51754,0 -1.2191,0.45 -1.55902,1 z m -30.06291,20.15427 c -2.26182,2.42907 -2.49016,2.99395 -0.99316,2.45697 1.89581,-0.68004 1.89816,-0.64673 0.095,1.34573 -1.01691,1.12366 -2.34168,2.05264 -2.94394,2.06438 -1.06029,0.0207 -6.59501,7.12139 -6.59501,8.46101 0,0.36454 1.1937,-0.27616 2.65266,-1.42378 1.45897,-1.14763 2.86089,-1.87836 3.11539,-1.62387 0.66439,0.66439 -5.02668,5.49599 -6.51805,5.53369 -0.6875,0.0174 -1.25614,1.0441 -1.26365,2.2816 -0.008,1.2375 -0.29277,3.2922 -0.6339,4.566 -0.56268,2.1011 0.0941,1.87518 7.07783,-2.43469 7.66401,-4.72968 7.69721,-4.76868 7.50466,-8.816 -0.10637,-2.23592 0.14048,-4.85953 0.54855,-5.83025 0.40808,-0.97072 0.50848,-2.65778 0.22311,-3.74901 -0.28536,-1.09123 -0.11109,-2.23606 0.38728,-2.54407 0.82498,-0.50987 1.33032,-3.44198 0.59321,-3.44198 -0.1721,0 -1.6346,1.41942 -3.25,3.15427 z m -33.019486,26.86467 c -0.39115,15.66458 -0.69971,47.60606 -0.68568,70.98106 0.0235,39.22398 0.2248,44.21049 2.6111,64.69029 4.57243,39.24179 8.319,50.8802 35.832146,111.30971 8.84389,19.4246 26.0053,48.72593 37.19113,63.5 7.57685,10.00739 26.90916,31.65148 37.07682,41.5105 10.40529,10.08945 18.93636,16.35081 32.58728,23.91734 6.30828,3.49661 14.8446,8.29061 18.9696,10.65335 7.74742,4.4376 22.26775,11.25262 20.5,9.62154 -0.55,-0.50748 -4.6,-3.65037 -9,-6.98419 -4.4,-3.33382 -8.675,-6.89127 -9.5,-7.90545 -0.825,-1.01417 -3.35036,-4.087 -5.61192,-6.82852 -2.26155,-2.74151 -5.68678,-7.90957 -7.61161,-11.48457 -9.65662,-17.93534 -35.90111,-70.36545 -38.29294,-76.5 -2.44608,-6.27368 -3.4169,-7.52295 -9.3564,-12.04 -3.64492,-2.772 -9.99041,-7.047 -14.10108,-9.5 -9.95761,-5.9421 -28.6188,-24.46599 -37.23393,-36.96 -9.12613,-13.23507 -12.81089,-21.0653 -19.67481,-41.80962 -7.74901,-23.4193 -10.45581,-37.30817 -14.26403,-73.19038 -2.72291,-25.65615 -3.15785,-33.60445 -3.337966,-61 -0.11391,-17.325 0.211186,-37.575 0.722446,-45 l 0.92956,-13.5 -5.218876,-8 c -4.72641,-7.2451 -10.92169,-14.86008 -11.5657,-14.21608 -0.13968,0.13968 -0.57399,13.07044 -0.96514,28.73502 z m 20.582396,-17.95085 c 0,2.71502 0.37337,2.47721 3.47917,-2.21597 l 2.74494,-4.14789 -3.11206,2.21598 c -1.71163,1.21879 -3.11205,3.08534 -3.11205,4.14788 z m 5.8864,14.18191 c -4.48962,3.03112 -6.51371,5.09597 -7.05763,7.19973 -0.41945,1.62236 -0.66502,3.04652 -0.5457,3.16481 0.11931,0.1183 3.44469,-1.88408 7.38974,-4.44973 5.54551,-3.6065 7.26447,-5.2887 7.57681,-7.41481 0.2222,-1.5125 0.0727,-2.75 -0.33212,-2.75 -0.40486,0 -3.56885,1.9125 -7.0311,4.25 z m -1.12471,7.95347 c -5.36049,3.60134 -7.56739,6.87943 -6.59512,9.79624 0.20742,0.62226 2.40155,-0.26551 5.14121,-2.08018 2.62865,-1.74115 4.99154,-2.95354 5.25087,-2.69422 0.25933,0.25933 -2.01028,2.11932 -5.04357,4.13331 -4.66243,3.09568 -5.51508,4.12905 -5.51508,6.68399 l 0,3.02218 5.52651,-4.17255 c 7.34216,-5.54339 7.87072,-4.61633 0.64582,1.13275 -4.48075,3.56547 -5.7379,5.18884 -5.98445,7.72776 l -0.31213,3.21411 5.26595,-3.46804 c 2.89627,-1.90742 5.72385,-3.62067 6.28351,-3.80722 0.55966,-0.18656 1.31181,-3.90598 1.67146,-8.26539 0.35964,-4.35942 1.00355,-9.90762 1.43091,-12.32935 0.87994,-4.98642 1.41739,-5.063 -7.76589,1.10661 z m -2.45322,25.10051 c -3.22354,2.42604 -4.25408,3.88115 -4.27755,6.03983 l -0.0309,2.8438 5.09796,-3.66252 c 2.80387,-2.01438 5.27899,-3.48147 5.50026,-3.2602 0.22127,0.22127 -2.07281,2.10699 -5.09795,4.19049 -4.12376,2.84012 -5.50029,4.39751 -5.50029,6.22293 l 0,2.43476 3.01535,-1.78121 c 7.04272,-4.16024 8.05084,-5.52312 8.69078,-11.74916 0.56549,-5.50167 0.47618,-5.86664 -1.27141,-5.19602 -1.03379,0.3967 -3.79061,2.15949 -6.12625,3.9173 z m -0.21867,13.71927 c -3.22493,2.54917 -5.0898,4.79221 -5.0898,6.12198 0,1.98411 0.12287,2.01129 2.25,0.49786 1.2375,-0.88047 3.9375,-2.59322 6,-3.80612 2.61899,-1.54014 3.75,-2.90372 3.75,-4.52111 0,-3.19161 -1.03648,-2.93552 -6.9102,1.70739 z m -0.31401,6.36029 c -4.04834,2.6706 -4.72791,3.5936 -4.75,6.45153 l -0.0258,3.33506 5.13063,-4.08506 c 2.82184,-2.24679 5.52184,-4.08507 6,-4.08507 0.47815,0 0.86937,-1.37656 0.86937,-3.05902 0,-3.39451 0.15528,-3.42552 -7.22421,1.44256 z m -1.69665,8.85844 c -2.2915,1.95525 -3.12252,3.43832 -2.89634,5.1689 0.31464,2.40732 0.36317,2.39325 6.00745,-1.74198 4.55201,-3.33498 5.7022,-4.73863 5.75,-7.0171 l 0.0598,-2.8482 -2.85366,1.8482 c -1.56952,1.01651 -4.29976,3.08209 -6.0672,4.59018 z m 0.67086,6.57456 c -2.08555,1.93967 -2.75,3.49257 -2.75,6.42709 l 0,3.86944 2.81605,-1.66348 c 5.96866,-3.52577 7.02628,-4.87717 7.7554,-9.90964 l 0.71863,-4.96004 -2.89504,1.8395 c -1.59227,1.01172 -4.13254,2.99043 -5.64504,4.39713 z m 1,9.4353 c -2.35755,1.83336 -3.75,3.75143 -3.75,5.16552 0,3.33874 0.98148,3.74237 3.76877,1.54989 1.37552,-1.08199 2.96272,-1.96725 3.52712,-1.96725 0.56439,0 -0.6049,1.2375 -2.59842,2.75 -2.58937,1.96457 -3.63499,3.53543 -3.66103,5.5 -0.02,1.5125 0.21495,2.75 0.5222,2.75 0.30725,0 2.33225,-1.42531 4.5,-3.16736 3.90082,-3.13479 3.94136,-3.23826 3.94136,-10.05902 0,-7.58151 0.16879,-7.51341 -6.25,-2.52178 z m 0.92031,15.10248 c -3.51696,3.01146 -3.77396,3.57624 -3.14733,6.91649 l 0.68235,3.63725 3.14734,-2.20065 c 1.73103,-1.21036 3.26732,-2.24716 3.41398,-2.30401 0.66524,-0.25788 1.12448,-9.39916 0.47052,-9.36585 -0.40544,0.0206 -2.46053,1.5132 -4.56686,3.31677 z m 0.13025,10.39568 c -1.7284,1.84686 -2.35302,3.34539 -1.90193,4.56292 0.63427,1.71194 0.82289,1.69397 3.38653,-0.32258 1.62102,-1.2751 2.71484,-3.11351 2.71484,-4.56292 0,-3.14349 -1.02969,-3.0644 -4.19944,0.32258 z m 1.00416,5.93709 c -1.5426,1.4779 -2.80472,3.7508 -2.80472,5.05089 l 0,2.3638 3.5,-2.66958 c 2.27278,-1.73353 3.5,-3.50455 3.5,-5.05089 0,-3.05234 -0.74699,-2.99789 -4.19528,0.30578 z m 0.50973,6.48722 c -2.84643,2.67408 -3.30735,7.47381 -0.56445,5.87776 4.27336,-2.4866 5.42416,-3.92799 4.77331,-5.97863 -0.82703,-2.60573 -1.34092,-2.59341 -4.20886,0.10087 z m 0.44778,6.57569 c -2.60335,2.74094 -2.60852,2.77966 -1.56869,11.75 0.57379,4.95 1.22324,9.19576 1.44322,9.43502 0.21997,0.23927 2.19169,-1.31456 4.3816,-3.45294 2.1899,-2.13839 3.98164,-3.36785 3.98164,-2.73215 0,0.6357 -1.8,2.60234 -4,4.37031 -2.86257,2.30043 -4,3.97258 -4,5.88046 0,4.07965 0.9263,4.21659 5.3899,0.7968 l 4.1101,-3.14896 -4.28596,4.50023 c -3.01858,3.16948 -4.08882,5.01397 -3.61928,6.23758 0.60605,1.57934 0.90491,1.52446 3.28596,-0.60332 6.16333,-5.50775 7.26154,-5.83278 2.53492,-0.75024 -3.30492,3.55378 -4.93566,6.11092 -4.65948,7.30649 0.39536,1.71152 0.59224,1.68204 2.83436,-0.42432 1.32521,-1.24497 2.40948,-1.81359 2.40948,-1.26359 0,0.55 -1.09249,2.02635 -2.42777,3.28077 -1.33527,1.25442 -2.19167,2.89602 -1.90311,3.64799 0.36728,0.9571 2.2954,-0.19146 6.42777,-3.82891 5.59703,-4.92671 7.32297,-7.75122 4.73644,-7.75122 -0.64166,0 -0.88594,-0.28072 -0.54284,-0.62382 0.3431,-0.3431 -0.29286,-2.42066 -1.41325,-4.6168 -1.12038,-2.19614 -2.21366,-4.95292 -2.42949,-6.12618 -1.18727,-6.45385 -3.75975,-15.6332 -4.38116,-15.6332 -0.39488,0 -1.77484,1.125 -3.06659,2.5 -1.29175,1.375 -2.83269,2.48127 -3.42431,2.45837 -0.59163,-0.0229 0.63222,-1.55073 2.71967,-3.39518 3.2641,-2.88415 3.69967,-3.75317 3.11174,-6.20838 -1.2774,-5.33447 -1.92702,-5.51915 -5.64487,-1.60481 z m 11.83278,35.10835 c -2.03808,2.29128 -2.59501,2.58792 -2.59501,1.3822 0,-0.4177 1.0125,-1.38145 2.25,-2.14166 2.24201,-1.37729 2.24323,-1.37459 0.34501,0.75946 z m -1.4181,7.34577 c -2.8473,2.86226 -5.17691,6.01226 -5.17691,7 0,2.54754 0.61397,2.30583 5.84655,-2.30169 4.51689,-3.97732 8.15345,-6.44052 8.15345,-5.52268 0,0.24756 -2.33444,2.30883 -5.18765,4.58058 -2.85321,2.27176 -5.82411,5.03914 -6.602,6.14974 -2.59783,3.70892 -0.2234,3.30702 3.98824,-0.67505 l 4.16188,-3.93502 -3.68023,4.43 c -3.12249,3.75862 -4.95975,9.07 -3.1374,9.07 0.29856,0 2.7805,-2.09307 5.51541,-4.65126 2.73491,-2.55819 5.20623,-4.41759 5.49181,-4.13201 0.28559,0.28558 -1.97243,2.7965 -5.01782,5.57981 -5.21491,4.76613 -5.47475,5.22447 -4.46601,7.87767 l 1.07106,2.8171 3.18136,-3.49566 c 1.74974,-1.92261 4.08135,-4.1629 5.18135,-4.97844 1.1,-0.81553 -0.35007,1.05689 -3.22239,4.16095 l -5.22239,5.64373 2.65384,7.33905 c 1.45961,4.03648 2.79569,7.52507 2.96907,7.75241 0.17337,0.22734 3.80422,-3.03148 8.06855,-7.24182 4.26433,-4.21033 7.93332,-7.11884 8.15332,-6.46334 0.22,0.65549 -0.23,1.40021 -1,1.65492 -2.44184,0.80774 -13.9,12.3858 -13.89995,14.0454 8e-5,2.23702 9.09237,18.09149 10.3752,18.09149 0.58083,0 3.32151,-2.1373 6.0904,-4.74955 l 5.03435,-4.74954 -5.19535,5.49954 c -4.19935,4.44524 -5.00495,5.8344 -4.20218,7.24621 0.88585,1.55792 1.66335,1.20275 7.19535,-3.28696 12.68965,-10.29879 13.70218,-11.05412 13.70218,-10.22165 0,0.46804 -2.36074,2.63095 -5.24608,4.80646 -2.88535,2.17552 -7.15315,5.69367 -9.484,7.8181 l -4.23792,3.86261 2.01912,2.63739 c 2.683,3.50456 18.11682,19.14378 18.86296,19.11401 0.32226,-0.0129 4.84087,-3.83786 10.04137,-8.5 5.2005,-4.66214 9.9255,-8.45658 10.5,-8.43208 0.5745,0.0245 -0.0125,0.81199 -1.30442,1.75 -1.29193,0.938 -5.91595,5.04381 -10.2756,9.12402 l -7.92663,7.41856 2.58169,2.69471 c 1.41993,1.48208 5.58369,4.44373 9.2528,6.58144 3.6691,2.1377 9.83136,6.28213 13.69391,9.20985 l 7.0228,5.32312 6.22314,-6.82312 c 3.42273,-3.75272 6.23523,-7.18554 6.25,-7.6285 0.0148,-0.44296 -2.27879,1.69454 -5.09682,4.75 -2.81802,3.05546 -5.61643,5.55538 -6.21869,5.55538 -0.60226,0 1.55576,-2.67874 4.79561,-5.95275 3.23986,-3.27401 6.20435,-5.75887 6.58778,-5.5219 0.38343,0.23697 3.03695,-2.25929 5.89673,-5.54725 2.85978,-3.28795 4.70514,-5.9781 4.10081,-5.9781 -1.45983,0 -12.66308,9.55247 -18.02318,15.36748 -2.34855,2.54789 -4.77529,4.62074 -5.39274,4.60635 -1.2287,-0.0286 12.22859,-13.22334 16.85799,-16.52904 3.85247,-2.75092 2.61699,-5.3881 -1.32323,-2.82448 -2.01205,1.3091 -2.35595,1.36066 -1.41608,0.21233 1.56011,-1.90614 0.67318,-2.83264 -2.71164,-2.83264 -4.85839,0 -13.38175,-5.28043 -22.13087,-13.71059 l -8.60118,-8.28763 -3.89882,2.88585 c -2.14434,1.58723 -6.58472,5.63683 -9.86751,8.99912 -3.28278,3.36229 -6.41741,6.11325 -6.96584,6.11325 -1.41531,0 8.92562,-10.32876 15.22879,-15.21085 3.31849,-2.57033 4.94211,-4.45279 4.35066,-5.04424 -1.6298,-1.6298 -4.39908,0.0725 -12.5969,7.74349 -4.3736,4.09252 -8.1619,7.23104 -8.41845,6.97449 -0.41345,-0.41345 3.53263,-4.1846 14.76765,-14.11302 l 3.39721,-3.00213 -9.47774,-11.92387 c -5.21276,-6.55813 -10.27823,-13.15751 -11.2566,-14.66528 -0.97836,-1.50778 -2.13766,-2.51966 -2.57621,-2.24862 -0.43854,0.27103 -0.60256,-0.29533 -0.36449,-1.25859 0.23808,-0.96326 -1.30415,-4.34411 -3.42718,-7.513 l -3.86005,-5.76161 -4.14651,3.00371 c -2.28058,1.65205 -5.84281,4.80653 -7.91607,7.00998 -2.07327,2.20344 -4.19126,4.00699 -4.70666,4.0079 -1.37787,0.002 4.15898,-5.53537 10.18709,-10.18881 2.8875,-2.22902 5.25,-4.50168 5.25,-5.05035 0,-0.77248 -6.12024,-11.70895 -7.63579,-13.64466 -0.16599,-0.212 -1.55334,0.37721 -3.083,1.30935 l -2.78121,1.69481 2.32409,-2.02964 c 2.2868,-1.99707 2.29537,-2.07824 0.53439,-5.05935 -0.98433,-1.66634 -2.28806,-3.02971 -2.89718,-3.02971 -0.60912,0 -3.43709,2.34185 -6.28439,5.20412 z m 20.27309,24.59303 c -6.14981,5.16034 -12.24217,10.01411 -13.45,10.7156 -1.31992,0.76658 -1.32537,0.65616 -0.0454,-0.91978 1.80135,-2.21789 12.60878,-10.59297 13.66944,-10.59297 0.42678,0 0.34846,0.35872 -0.17404,0.79715 z m -3.978,18.43994 c -2.65714,3.1554 -5.06642,5.50183 -5.35396,5.21428 -0.28754,-0.28754 1.88648,-2.86923 4.83116,-5.73708 l 5.35395,-5.21429 -4.83115,5.73709 z m 14.528,-3.34408 c 0,0.49116 -0.73865,1.17646 -1.64144,1.52289 -1.37248,0.52667 -1.43434,0.38034 -0.37756,-0.89301 1.44013,-1.73524 2.019,-1.91584 2.019,-0.62988 z m 4.66667,2.54487 c 0,0.79083 -3.75,5.1684 -8.33334,9.72792 -4.58333,4.55952 -8.33333,7.83509 -8.33333,7.27904 0,-0.55606 3.375,-4.11634 7.5,-7.91173 6.6783,-6.14469 9.71307,-9.98071 6.25,-7.90017 -0.84936,0.51028 -0.81011,0.20868 0.12244,-0.94098 1.67979,-2.07085 2.79423,-2.17219 2.79423,-0.25408 z m -4.66667,1.77606 c 0,0.86154 -12.89119,13.19123 -14.32563,13.70165 -0.64236,0.22858 0.63062,-1.26678 2.82885,-3.32303 2.19823,-2.05625 5.68428,-5.37209 7.74678,-7.36854 2.0625,-1.99646 3.75,-3.35099 3.75,-3.01008 z m -9,3.18594 c -3.72967,4.01129 -8.84421,7.55683 -6.0962,4.22605 0.7721,-0.93582 3.2471,-3.11649 5.5,-4.84591 l 4.0962,-3.14442 -3.5,3.76428 z m 13.5,1.97004 c -2.2,1.98018 -4.37203,3.60702 -4.82673,3.6152 -0.45469,0.008 0.44531,-1.00829 2,-2.25883 5.2255,-4.2032 6.86201,-4.98845 2.82673,-1.35637 z m 3.47858,11.52072 c -3.56322,3.23985 -6.70358,5.67133 -6.97858,5.40329 -0.62522,-0.6094 11.14189,-11.23652 12.47858,-11.26967 0.53822,-0.0133 -1.93678,2.62653 -5.5,5.86638 z m 9.52142,-2.21062 c -0.55,0.50866 -4.825,4.21997 -9.5,8.24735 l -8.5,7.32251 7.15161,-7.0371 c 3.93339,-3.8704 8.20839,-7.58171 9.5,-8.24735 1.29161,-0.66563 1.89839,-0.79407 1.34839,-0.28541 z m 7.4019,10.91718 c -0.64882,1.62822 -15.9019,15.74845 -15.9019,14.72085 0,-0.51491 3.66835,-4.26468 8.1519,-8.33282 4.48354,-4.06813 7.97104,-6.94275 7.75,-6.38803 z m 5.0981,0.76119 c 0,0.85951 -13.48196,13.49298 -13.92568,13.04927 -0.56645,-0.56646 9.77542,-11.1979 12.17568,-12.51659 0.9625,-0.52879 1.75,-0.76849 1.75,-0.53268 z m 4,9.04774 c 0,0.71215 -14.09806,14.05737 -15.83307,14.98758 -0.91681,0.49154 2.04089,-2.77096 6.57266,-7.25 7.53713,-7.44942 9.26041,-8.88931 9.26041,-7.73758 z m 5,2.81109 c 0,0.21114 -3.15,2.9753 -7,6.14257 -3.85,3.16728 -6.97471,5.39453 -6.94381,4.94945 0.10792,-1.55425 13.94381,-12.56041 13.94381,-11.09202 z m 5.91667,1.09174 c -0.22917,0.16994 -3.07035,2.75744 -6.31373,5.75 -3.24338,2.99257 -5.38629,4.46824 -4.76203,3.27926 1.29775,-2.47171 9.02277,-9.33822 10.50576,-9.33822 0.54266,0 0.79916,0.13903 0.57,0.30896 z m -7.43469,10.50273 c -4.39009,4.29643 -8.18264,7.65826 -8.4279,7.47075 -0.66291,-0.50685 14.22912,-15.28244 15.40287,-15.28244 0.55386,0 -2.58488,3.51526 -6.97497,7.81169 z m 4.45422,1.2997 c -4.97571,4.46126 -9.27556,7.88259 -9.5552,7.60294 -0.5625,-0.5625 16.64784,-15.71433 17.84926,-15.71433 0.41399,0 -3.31834,3.65013 -8.29406,8.11139 z m 4.59365,1.85859 c -4.35778,4.38348 -8.16229,7.73091 -8.45447,7.43874 -0.60548,-0.60549 14.36429,-15.40872 15.58207,-15.40872 0.4376,0 -2.76982,3.58649 -7.1276,7.96998 z m 3.93522,1.28002 c -3.80714,4.2625 -7.56925,7.75 -8.36024,7.75 -0.79099,0 -1.25066,-0.12756 -1.0215,-0.28346 0.22917,-0.15591 3.99128,-3.64341 8.36025,-7.75 l 7.94357,-7.46654 -6.92208,7.75 z m 10.8325,3.38779 c -14.80878,17.59021 -13.76679,15.85272 -12.34762,20.5895 2.12294,7.08574 35.55058,73.62725 41.95607,83.51831 5.20098,8.03112 10.98178,14.26771 18.54943,20.01199 5.83284,4.42746 5.94822,4.46827 3.29428,1.16528 -13.98447,-17.40451 -36.4261,-75.70289 -41.19151,-107.0064 -1.62794,-10.69376 -1.48035,-25.39434 0.27254,-27.14723 0.64308,-0.64308 1.16924,-1.52924 1.16924,-1.96924 0,-2.32206 -2.8298,0.29866 -11.70243,10.83779 z"
     id="path7677"
     inkscape:connector-curvature="0" />
  <path
     style="fill:#f3ffff;stroke:none;stroke-width:1px;stroke-linecap:butt;stroke-linejoin:miter;stroke-opacity:1;fill-opacity:1;filter:url(#filter8229)"
     d="m 82.754237,164.85169 19.703393,24.95763 -1.21552,29.86637 -0.46441,66.87552 9.75268,70.12642 14.86123,47.37016 12.07474,20.43419 21.36302,25.07832 37.15306,27.40039 24.1495,52.01429 20.8986,36.22424 5.10855,9.75268 28.32921,22.75626 -18.11212,-6.03737 -45.51251,-26.00715 -36.22424,-35.29542 -21.36301,-26.47156 -31.58011,-55.7296 -22.291843,-50.62106 -11.14592,-35.29541 -6.037374,-51.54988 0,-49.69223 -0.464413,-43.65486 z"
     id="path8195"
     inkscape:connector-curvature="0" />
</svg>
