<?xml version="1.0" encoding="UTF-8" standalone="no"?>
<!-- Created with Inkscape (http://www.inkscape.org/) -->

<svg
   xmlns:dc="http://purl.org/dc/elements/1.1/"
   xmlns:cc="http://creativecommons.org/ns#"
   xmlns:rdf="http://www.w3.org/1999/02/22-rdf-syntax-ns#"
   xmlns:svg="http://www.w3.org/2000/svg"
   xmlns="http://www.w3.org/2000/svg"
   xmlns:sodipodi="http://sodipodi.sourceforge.net/DTD/sodipodi-0.dtd"
   xmlns:inkscape="http://www.inkscape.org/namespaces/inkscape"
   id="svg24714"
   version="1.1"
   inkscape:version="0.48.4 r9939"
   width="289"
   height="292"
   sodipodi:docname="ThrowingStars.png">
  <metadata
     id="metadata24720">
    <rdf:RDF>
      <cc:Work
         rdf:about="">
        <dc:format>image/svg+xml</dc:format>
        <dc:type
           rdf:resource="http://purl.org/dc/dcmitype/StillImage" />
        <dc:title></dc:title>
      </cc:Work>
    </rdf:RDF>
  </metadata>
  <defs
     id="defs24718" />
  <sodipodi:namedview
     pagecolor="#ffffff"
     bordercolor="#666666"
     borderopacity="1"
     objecttolerance="10"
     gridtolerance="10"
     guidetolerance="10"
     inkscape:pageopacity="0"
     inkscape:pageshadow="2"
     inkscape:window-width="1278"
     inkscape:window-height="750"
     id="namedview24716"
     showgrid="false"
     inkscape:zoom="2.285989"
     inkscape:cx="138.84271"
     inkscape:cy="185.9387"
     inkscape:window-x="-1"
     inkscape:window-y="22"
     inkscape:window-maximized="0"
     inkscape:current-layer="svg24714" />
  <path
     style="fill:#000000"
     d="m 141,272.12568 c -4.9662,-5.01845 -9.22561,-8.85451 -29.69917,-26.74728 -3.40954,-2.97976 -7.8215,-7.39759 -9.80436,-9.8174 l -3.605184,-4.39965 4.385144,-4.38515 c 8.33661,-8.33661 12.53185,-21.08447 11.24859,-34.18052 -1.80094,-18.37928 -9.69409,-31.12121 -23.072541,-37.24607 -6.281911,-2.87595 -20.155634,-4.71816 -29.33947,-3.89581 -3.512844,0.31455 -15.662844,1.01168 -27,1.54918 C 22.775854,153.54049 11.8125,154.26858 9.75,154.62097 7.6875,154.97336 6,154.94278 6,154.55301 c 0,-0.955 10.888855,-13.09839 25.541917,-28.48466 6.623054,-6.95446 13.823054,-15.20952 16,-18.34457 4.33287,-6.23982 6.756147,-7.4641 5.854927,-2.958 -0.739924,3.69962 2.415808,7.61781 8.43563,10.47377 3.9649,1.88105 6.398678,2.21786 16.167526,2.23742 10.451907,0.0209 12.411385,-0.28446 21.5,-3.35089 5.5,-1.85565 13.66638,-5.06776 18.1475,-7.13803 6.86887,-3.1734 8.87007,-4.68407 12.75176,-9.626085 C 143.48536,80.701234 150,55.030673 150,20.126338 c 0,-10.9814705 0.28961,-14.2001552 1.25,-13.8922546 0.6875,0.2204125 6.425,8.0776656 12.75,17.4605626 6.325,9.382897 13.86766,19.92756 16.76147,23.432584 12.55632,15.208387 15.40657,18.404008 16.87504,18.919864 1.86972,0.656812 1.17633,1.287577 -5.78761,5.264906 -2.55811,1.461015 -6.41254,4.657487 -8.5654,7.103272 -7.01844,7.973363 -13.27475,22.887238 -13.24967,31.584728 0.0253,8.76364 6.82386,16.42373 17.9324,20.20476 6.1261,2.08515 8.24961,2.22448 34.03377,2.23309 15.125,0.005 31.46743,-0.44999 36.31651,-1.01122 9.1044,-1.05373 11.4968,-0.38502 7.82461,2.18708 -1.14164,0.79963 -6.02792,6.64134 -10.85841,12.98158 -14.76259,19.37657 -17.56277,22.95266 -23.73342,30.3098 -3.2729,3.9022 -6.2354,7.09491 -6.58334,7.09491 -0.34794,0 -0.63262,-1.31452 -0.63262,-2.92116 0,-4.22089 -2.65836,-7.6677 -9.13703,-11.84696 -4.91095,-3.16797 -6.66139,-3.72422 -12.6963,-4.03461 -13.47194,-0.69291 -28.4947,4.19778 -39.41895,12.8329 -9.11743,7.20691 -12.64775,16.05167 -15.61127,39.11207 -2.01673,15.69308 -2.44633,52.73107 -0.66196,57.07236 1.82944,4.45095 0.0199,3.8001 -5.80782,-2.08892 z m 3.25436,-7.8641 c -0.47542,-6.21542 -3.11321,-14.43127 -3.21432,-10.01158 -0.0888,3.88287 -4.02502,0.0886 -4.07548,-3.92857 l -0.0354,-2.82143 -1.38678,2.5 c -1.38554,2.49778 -1.38714,2.49645 -1.80457,-1.5 -0.35299,-3.37954 -0.53781,-3.65273 -1.19148,-1.76125 -1.02071,2.95357 -2.41246,2.01193 -1.79561,-1.21488 C 131.03354,244.04422 130.77118,243 130.11658,243 129.50246,243 129,243.70156 129,244.55902 c 0,0.85746 -0.38965,1.3182 -0.86589,1.02386 -0.47624,-0.29433 -0.64928,-1.78339 -0.38454,-3.30901 0.46915,-2.70359 0.43964,-2.72319 -1.16472,-0.77387 -1.62073,1.96922 -1.6439,1.96152 -1.50477,-0.5 0.23228,-4.10964 -0.007,-4.47602 -1.59401,-2.44113 -1.44387,1.85131 -1.50171,1.80717 -1.25,-0.95398 0.1484,-1.6278 -0.28324,-3.08693 -0.98607,-3.33333 -0.74023,-0.25951 -1.25,0.41139 -1.25,1.64511 0,1.14583 -0.48575,2.08333 -1.07946,2.08333 -0.6797,0 -0.84742,-1.20355 -0.45288,-3.25 0.59113,-3.06614 0.53905,-3.14018 -0.92054,-1.30887 C 116.05983,235.3072 116,235.27081 116,232.5 c 0,-2.77081 -0.0598,-2.8072 -1.54712,-0.94113 -1.45489,1.82542 -1.5117,1.73249 -0.95288,-1.55887 0.55693,-3.28025 0.49775,-3.37901 -0.94255,-1.573 -2.01219,2.52311 -3.06456,1.40139 -1.49296,-1.59135 1.22276,-2.32847 1.21994,-2.3298 -0.91898,-0.43066 -2.22575,1.97623 -3.06155,0.91105 -0.94551,-1.20499 0.66,-0.66 0.79147,-1.2 0.29216,-1.2 -0.49931,0 -2.605,1.65723 -4.6793,3.68274 l -3.77147,3.68274 2.67112,3.56726 c 3.29995,4.40706 4.61191,5.66507 15.8446,15.1931 4.9446,4.19421 12.35454,10.7839 16.46653,14.64376 4.112,3.85987 7.76246,6.84595 8.11214,6.63575 0.34967,-0.21021 0.40304,-3.42491 0.11858,-7.14377 z m -0.34458,-27.13024 c 0.2661,-19.50199 3.99446,-40.0367 9.10868,-50.1679 3.24663,-6.43155 5.78826,-8.83107 16.28153,-15.37124 13.48645,-8.40574 34.09472,-11.33941 43.67189,-6.21687 l 4.44095,2.37533 5.16996,-6.30726 c 2.84347,-3.46899 6.20445,-8.02539 7.46885,-10.12533 1.2644,-2.09994 4.67697,-6.56666 7.5835,-9.92604 l 5.2846,-6.10798 -25.20987,-0.50461 -25.20987,-0.50461 -7.75303,-3.232 c -9.53686,-3.97561 -14.09062,-8.75086 -15.85243,-16.62347 -2.00349,-8.95255 1.88001,-21.964084 10.13784,-33.96642 l 3.15659,-4.587945 -4.42833,-5.682497 C 175.32505,67.057124 168.6466,57.332297 162.91963,48.571771 l -10.41268,-15.92823 -1.18734,9.92823 c -3.50058,29.270979 -9.52723,45.736146 -21.53233,58.827629 -4.92085,5.36615 -15.29362,10.27596 -32.712004,15.48378 -11.763329,3.51704 -22.758423,4.12354 -31.876544,1.75833 l -5.237125,-1.3585 -14.458905,14.88332 c -7.952398,8.18583 -14.934592,15.77215 -15.515988,16.85849 -0.990338,1.85047 -0.72338,1.97603 4.228102,1.98861 2.906851,0.007 11.648406,-0.52115 19.425678,-1.17451 24.365409,-2.04693 37.653383,0.86017 48.147816,10.5336 2.39414,2.20684 5.48584,5.9455 6.87043,8.30814 7.78523,13.2845 9.52375,36.0283 3.64199,47.64554 -1.84574,3.64556 -1.1213,4.77738 9.86339,15.41002 12.3108,11.91624 20.17337,18.33574 20.93941,17.09627 0.36365,-0.5884 0.72646,-5.85392 0.80625,-11.70115 z M 129.7018,198.98007 c -1.41236,-1.11095 -2.76176,-3.02345 -2.99868,-4.25 -0.26206,-1.35669 -0.48409,-0.76144 -0.56694,1.51993 -0.16938,4.66412 -2.13618,5.00703 -2.13618,0.37244 0,-3.95874 1.18879,-5.12573 6.1266,-6.01421 7.86813,-1.41576 11.40201,2.95406 6.41885,7.93722 -2.9751,2.97511 -3.56623,3.01265 -6.84365,0.43462 z m 7.12152,-4.34955 C 137.07305,193.37114 136.34673,193 133.63234,193 c -4.2951,0 -5.4103,1.48288 -3.06454,4.07492 1.5527,1.71571 2.01311,1.78361 3.84796,0.56751 1.14633,-0.75976 2.22974,-2.11512 2.40756,-3.01191 z m -1.92922,-22.5935 c -8.31825,-1.49898 -16.3987,-8.03615 -21.48524,-17.3818 -2.33954,-4.29852 -2.60025,-5.68211 -2.14331,-11.37459 0.35079,-4.37011 1.45073,-8.29733 3.37733,-12.05837 2.55505,-4.98788 3.5972,-5.95468 9.85712,-9.14446 5.91254,-3.01276 8.00979,-3.56506 13.5,-3.55517 5.50122,0.01 7.49679,0.54688 12.98701,3.49454 13.28434,7.13227 16.15592,12.44714 14.99381,27.7513 -0.52875,6.96312 -1.09428,8.9321 -3.58227,12.47207 -4.69304,6.67739 -10.32197,10.0852 -17.14337,10.37878 -3.16535,0.13624 -7.82784,-0.1258 -10.36108,-0.5823 z M 151.5,168.62258 c 9.35692,-4.41252 12.5,-10.11766 12.5,-22.68933 0,-10.52332 -1.61088,-13.93069 -8.89203,-18.80867 -7.45174,-4.99226 -10.59114,-6.14973 -17.12763,-6.3148 -6.28162,-0.15862 -13.83019,2.71721 -18.25535,6.95488 -2.79585,2.6774 -6.72499,13.12041 -6.72499,17.87392 0,3.56349 4.25098,11.34844 8.70035,15.93322 4.6566,4.7983 9.87251,7.42841 16.7263,8.43419 7.72988,1.13434 7.73564,1.13373 13.07335,-1.38341 z m -40.61066,-7.29585 c -3.19919,-3.74736 -5.75167,-8.93469 -6.06551,-12.32673 -0.44964,-4.85977 1.54912,-4.9777 2.23087,-0.13163 0.30508,2.16865 1.79466,5.8167 3.31017,8.1068 2.86429,4.32823 3.25219,7.54666 0.52447,4.35156 z M 182.2,154.8 c -1.44697,-1.44697 -1.61409,-8.8 -0.2,-8.8 0.55,0 1,1.54844 1,3.44098 0,1.89254 0.45,3.7191 1,4.05902 1.19348,0.73761 1.33447,2.5 0.2,2.5 -0.44,0 -1.34,-0.54 -2,-1.2 z m 3.29648,-2.16502 c -3.5202,-5.37251 3.08664,-10.83653 7.46619,-6.17472 2.5218,2.68434 2.58394,4.73509 0.20859,6.88475 -2.59791,2.35107 -5.86724,2.04861 -7.67478,-0.71003 z m 6.46717,-1.09118 c 1.35881,-1.63726 0.46506,-3.92679 -1.14455,-2.932 -0.57349,0.35444 -1.41819,0.0369 -1.87711,-0.70566 -0.66658,-1.07856 -0.9673,-1.00376 -1.49518,0.37189 -1.482,3.86202 1.95788,6.34913 4.51684,3.26577 z M 87.556704,140.77749 c -2.941136,-4.19906 -1.395463,-8.96526 3.267509,-10.07562 C 95.951548,129.48094 99.000322,136.99968 95,141 c -2.622705,2.6227 -5.510906,2.53637 -7.443296,-0.22251 z M 93.8,139.8 c 1.433118,-1.43312 1.590308,-5.44074 0.245989,-6.27158 C 92.009177,132.2696 88,134.17936 88,136.40841 88,138.75906 89.708188,141 91.5,141 c 0.605,0 1.64,-0.54 2.3,-1.2 z m -11.607498,-4.05 c 0.385369,-5.32627 2.048251,-5.13804 2.19698,0.24869 0.07416,2.68617 -0.319559,4.00258 -1.19698,4.00207 -0.919716,-5.4e-4 -1.216299,-1.26124 -1,-4.25076 z M 144.0037,105.50394 c -3.52035,-3.74724 -1.43429,-4.39607 2.25912,-0.70266 2.19145,2.19145 2.70859,3.19872 1.64226,3.19872 -0.85605,0 -2.61167,-1.12323 -3.90138,-2.49606 z m 2.96983,-1.55339 c -1.49713,-2.79742 -0.8481,-7.014354 1.2851,-8.349688 2.64121,-1.653341 7.1517,1.18783 7.56601,4.765858 0.57448,4.96128 -6.56649,7.85267 -8.85111,3.58383 z m 6.87555,-1.2687 C 155.30927,100.92242 152.61295,97 149.9433,97 c -1.98734,0 -2.5461,2.26556 -1.33631,5.41821 0.73731,1.9214 3.7409,2.07246 5.24209,0.26364 z m 79.86492,68.70236 c 3.1823,-4.18869 8.06581,-10.37619 10.85225,-13.75 8.11951,-9.83108 18.48668,-23.91461 17.97828,-24.42301 -0.82042,-0.82043 -16.55469,1.99622 -17.22687,3.08383 -0.39052,0.63188 -0.0267,0.80729 0.92053,0.44381 2.71236,-1.04083 2.73912,0.37769 0.0541,2.86611 -3.15235,2.9215 -6.31375,3.40762 -4.19497,0.64505 0.73821,-0.9625 0.0765,-0.625 -1.47056,0.75 -2.66789,2.37126 -2.70496,2.51646 -0.71974,2.81955 3.04451,0.46482 2.56458,2.1571 -0.65699,2.31663 -2.35784,0.11676 -2.42915,0.19798 -0.5,0.56955 3.31858,0.63919 2.73496,2.29427 -0.80902,2.29427 -2.11824,0 -2.86429,-0.38443 -2.42584,-1.25 0.34825,-0.6875 -0.0907,-0.3553 -0.97542,0.73823 -1.48294,1.83291 -1.47491,2.08599 0.10277,3.23962 1.52639,1.11612 1.36798,1.32006 -1.46556,1.88676 -3.25011,0.65003 -4.42713,2.38539 -1.61791,2.38539 0.85746,0 1.2809,0.45 0.94098,1 -0.33992,0.55 -1.56033,1 -2.71203,1 -2.07992,0 -2.07904,0.013 0.13145,1.93011 l 2.22544,1.93012 -2.5191,1.31988 c -1.3855,0.72594 -2.51653,1.76989 -2.51341,2.31989 0.003,0.55 -1.03337,1.29264 -2.30333,1.65032 l -2.30902,0.65032 2.30902,0.0997 c 1.307,0.0564 2.0337,0.54515 1.67459,1.1262 -0.34893,0.56459 -1.16299,0.96127 -1.80902,0.88152 -3.43423,-0.42396 -3.6686,0.23325 -1.22548,3.43635 1.40299,1.83942 2.55089,3.86442 2.55089,4.5 0,2.62061 2.24048,0.74429 7.714,-6.46018 z M 223,170.94098 c 0,-0.58246 0.45,-0.7809 1,-0.44098 0.55,0.33992 1,0.81648 1,1.05902 0,0.24254 -0.45,0.44098 -1,0.44098 -0.55,0 -1,-0.47656 -1,-1.05902 z M 20.502268,150.99633 c 0.341167,-0.55202 1.717724,-0.72824 3.059017,-0.39159 2.607563,0.65445 3.189986,-0.45347 1.255382,-2.38807 -1.596584,-1.59659 -0.228682,-2.8035 1.526488,-1.34684 1.067292,0.88577 1.666698,0.82322 2.572725,-0.26847 0.806284,-0.97151 0.848399,-1.62901 0.132678,-2.07135 C 27.058066,143.29982 27.932564,141.89354 30,143 c 2.046867,1.09545 2.951795,-0.29372 0.983688,-1.51008 -0.558971,-0.34546 -0.743909,-1.06887 -0.410972,-1.60758 0.378869,-0.61302 1.149069,-0.5282 2.058693,0.22672 2.334042,1.93708 4.216184,-0.5222 2.501254,-3.26824 -1.230808,-1.97084 -1.145565,-2.07644 1.298908,-1.60915 C 39.539166,135.82572 40.56769,134.71603 38.5,133 c -0.812888,-0.67464 -1.217871,-1.64748 -0.899962,-2.16187 0.341286,-0.55221 1.155891,-0.45565 1.98899,0.23576 0.970307,0.80528 1.410972,0.83025 1.410972,0.0799 0,-0.60008 0.590893,-0.86431 1.313096,-0.58718 0.722203,0.27714 2.10807,-0.37455 3.079704,-1.4482 1.412931,-1.56127 1.543407,-2.36913 0.65172,-4.03526 -1.21066,-2.26214 -0.164745,-2.80342 1.738813,-0.89986 1.681173,1.68118 2.764744,0.18199 1.216667,-1.68333 -0.706751,-0.85158 -0.959084,-1.87425 -0.56074,-2.27259 0.398344,-0.39835 1.319269,0.0895 2.0465,1.084 0.914881,1.25118 1.540628,1.45491 2.031107,0.6613 0.389878,-0.63084 0.208078,-1.64777 -0.403999,-2.25984 -2.054056,-2.05406 -1.138278,-3.04541 1.032641,-1.11786 2.138502,1.89877 2.141517,1.89739 0.922997,-0.42315 -0.672382,-1.28048 -0.966046,-2.99648 -0.652586,-3.81335 C 53.897336,113.10396 51.590355,107 50.634783,107 c -0.172621,0 -2.346075,2.5875 -4.829897,5.75 -2.483822,3.1625 -9.41853,10.93021 -15.410463,17.26159 -5.991933,6.33137 -12.848826,13.86887 -15.237541,16.75 L 10.813763,152 l 4.534102,0 c 2.493755,0 4.813237,-0.45165 5.154403,-1.00367 z M 42.58345,127.35687 c -0.83718,-2.18165 0.274383,-3.1957 1.45561,-1.32791 1.182538,1.86986 1.207715,2.97104 0.06793,2.97104 -0.491156,0 -1.176749,-0.73941 -1.523539,-1.64313 z M 188.57147,71.405245 c 2.43519,-1.427115 4.68128,-3.005186 4.99131,-3.506825 C 194.27589,66.744578 190.96154,61.927301 185.03249,55.5 178.58408,48.509685 169.68943,36.539823 160.6964,22.75 156.48187,16.2875 152.73644,11 152.37322,11 c -1.20814,0 0.63381,14.149887 2.02275,15.538826 0.75126,0.751265 1.64451,1.087364 1.98498,0.746888 0.34048,-0.340476 0.61905,0.265953 0.61905,1.347619 0,1.081667 0.50079,2.467457 1.11287,3.079535 0.61207,0.612077 0.78082,1.65012 0.375,2.306762 -0.55748,0.90202 -0.9704,0.862203 -1.689,-0.162867 -0.76843,-1.096138 -0.86781,-1.068624 -0.51737,0.143237 0.23857,0.825 1.17282,1.4375 2.07613,1.361111 1.19793,-0.101304 1.65098,0.710518 1.67417,3 0.0302,2.976402 0.10781,3.038405 1.5,1.197759 1.38517,-1.83135 1.47384,-1.746519 1.56788,1.5 0.0938,3.23694 0.15134,3.292785 0.97033,0.94113 0.7462,-2.14265 0.83213,-1.963975 0.60112,1.25 -0.26232,3.649661 0.65029,5.018644 1.66659,2.5 0.27741,-0.6875 0.57544,0.1 0.66228,1.75 0.0868,1.65 0.38487,2.4375 0.66228,1.75 1.03534,-2.56584 1.9225,-1.122213 1.53633,2.5 -0.38,3.564437 -0.32216,3.651033 1.169,1.75 1.54988,-1.975899 1.56917,-1.972175 1.60059,0.309017 0.0176,1.27882 0.47796,2.033273 1.0318,1.690983 0.59391,-0.367057 1,0.803277 1,2.881966 0,1.925 0.52647,3.825378 1.16994,4.223062 0.7618,0.470822 0.96851,0.198138 0.59252,-0.781667 -0.31758,-0.827601 -0.17594,-2.138921 0.31475,-2.914045 0.61097,-0.965128 0.90182,-0.148598 0.92279,2.590684 0.0168,2.2 0.46684,4.675 1,5.5 0.78387,1.212959 0.9723,1.069438 0.98469,-0.75 0.0264,-3.879396 2.01199,-2.446585 2.0787,1.5 0.055,3.254301 0.18293,3.452581 0.96777,1.5 1.37461,-3.419848 2.27354,-2.687734 1.53482,1.25 -0.36113,1.925 -0.37885,3.5 -0.0394,3.5 0.33948,0 2.60967,-1.16764 5.04485,-2.594755 z M 185,69 c 0,-1.866667 0.26667,-2.133333 1.2,-1.2 0.93333,0.933333 0.93333,1.466667 0,2.4 -0.93333,0.933333 -1.2,0.666667 -1.2,-1.2 z"
     id="path24724"
     inkscape:connector-curvature="0" />
  <path
     style="fill:#000000;fill-opacity:0.69306928;stroke:none"
     d="m 152.1875,29.0625 c -5.68035,42.37025 -14.89119,76.70729 -37.75,79.8125 C 99.594077,114.13144 89.538586,123.43093 60,116.3125 l -32.78125,35.25 c 26.366832,3.73122 58.109516,-10.69046 78.5625,13 10.37772,18.1626 12.73257,36.70029 4.96875,55.6875 8.36628,11.73628 15.92059,21.37671 33.40625,29.6875 0.65654,-76.9025 19.7186,-71.61006 35.25,-82.75 10.1283,-1.11743 29.65596,-9.09417 38.34375,2.625 l 28.46875,-36.1875 c -24.23538,-2.67859 -52.63247,8.36936 -71.75,-11.125 -9.1158,-9.12598 -5.74946,-21.57692 -0.3125,-32.46875 2.66309,-5.334945 7.47186,-9.133141 8.34375,-14.25 z m -1.09375,66.875 c 2.1915,0.06518 2.80752,2.545422 3.875,4.34375 0.19456,5.44201 -3.24451,4.45146 -6.34375,4.0625 -2.12969,-3.07409 -2.11947,-5.6132 -0.125,-7.65625 0.828,-0.428179 1.53194,-0.652541 2.125,-0.71875 0.16062,-0.01793 0.32265,-0.0356 0.46875,-0.03125 z m -10.8125,23.9375 c 31.21223,10.0617 23.18499,19.38995 25.21875,28.90625 -1.8249,19.69808 -13.11025,23.62874 -27.09375,23.0625 -12.43691,-2.6311 -21.99366,-9.58243 -26.28125,-24.4375 0.62712,-22.76139 13.41819,-26.65622 28.15625,-27.53125 z m -47.4375,12.53125 c 1.766698,0.0202 3.170292,1.29179 3.625,4.3125 -5.378103,10.88688 -8.965119,3.68929 -9.40625,-1.09375 1.884751,-2.00784 4.014552,-3.23897 5.78125,-3.21875 z M 190.71875,146 c 3.73423,2.89975 4.06099,5.1149 1.65625,6.78125 -7.05416,3.49747 -9.75041,-6.91132 -1.65625,-6.78125 z m -62.18114,47.17903 c 9.10692,-5.04752 13.29937,4.14306 3.93114,6.03972 -1.18311,-1.7023 -5.52407,-1.56139 -3.93114,-6.03972 z"
     id="path24726"
     inkscape:connector-curvature="0"
     sodipodi:nodetypes="cccccccccccsccscccssccccccccccccccc" />
  <path
     style="fill:#000000;stroke:#000000;stroke-width:1px;stroke-linecap:butt;stroke-linejoin:miter;stroke-opacity:1;fill-opacity:0.34653464"
     d="m 7.1144068,153.73305 20.7245762,-1.54661 30.313559,-37.11864 -7.73305,-8.66102 z"
     id="path25236"
     inkscape:connector-curvature="0" />
  <path
     style="fill:#000000;fill-opacity:0.34653464;stroke:none"
     d="m 151.87712,9.5889828 0.92796,21.0338982 30.31356,45.161017 13.9195,-8.970339 C 181.98447,52.209336 166.93079,30.561326 151.87712,9.5889828 z"
     id="path25238"
     inkscape:connector-curvature="0"
     sodipodi:nodetypes="ccccc" />
  <path
     style="fill:#000000;stroke:none;stroke-width:1px;stroke-linecap:butt;stroke-linejoin:miter;stroke-opacity:1;fill-opacity:0.34653464"
     d="m 245.29237,133.3178 20.10594,-1.85594 -38.97458,50.72882 -8.04237,-14.22882 z"
     id="path25240"
     inkscape:connector-curvature="0" />
  <path
     style="fill:#000000;fill-opacity:0.34653464;stroke:none"
     d="m 100.06568,230.59958 9.74364,-8.81568 34.02543,30.77754 2.01059,22.73517 c -15.28994,-14.895 -36.36595,-29.01853 -45.77966,-44.69703 z"
     id="path25242"
     inkscape:connector-curvature="0"
     sodipodi:nodetypes="ccccc" />
</svg>
