<?xml version="1.0" encoding="UTF-8" standalone="no"?>
<!-- Created with Inkscape (http://www.inkscape.org/) -->

<svg
   xmlns:dc="http://purl.org/dc/elements/1.1/"
   xmlns:cc="http://creativecommons.org/ns#"
   xmlns:rdf="http://www.w3.org/1999/02/22-rdf-syntax-ns#"
   xmlns:svg="http://www.w3.org/2000/svg"
   xmlns="http://www.w3.org/2000/svg"
   xmlns:sodipodi="http://sodipodi.sourceforge.net/DTD/sodipodi-0.dtd"
   xmlns:inkscape="http://www.inkscape.org/namespaces/inkscape"
   id="svg24714"
   version="1.1"
   inkscape:version="0.48.4 r9939"
   width="496.83267"
   height="514.12225"
   sodipodi:docname="ThrowingStars.svg">
  <metadata
     id="metadata24720">
    <rdf:RDF>
      <cc:Work
         rdf:about="">
        <dc:format>image/svg+xml</dc:format>
        <dc:type
           rdf:resource="http://purl.org/dc/dcmitype/StillImage" />
        <dc:title />
      </cc:Work>
    </rdf:RDF>
  </metadata>
  <defs
     id="defs24718" />
  <sodipodi:namedview
     pagecolor="#ffffff"
     bordercolor="#666666"
     borderopacity="1"
     objecttolerance="10"
     gridtolerance="10"
     guidetolerance="10"
     inkscape:pageopacity="0"
     inkscape:pageshadow="2"
     inkscape:window-width="1278"
     inkscape:window-height="750"
     id="namedview24716"
     showgrid="false"
     inkscape:zoom="1.1429945"
     inkscape:cx="138.09208"
     inkscape:cy="298.3162"
     inkscape:window-x="4"
     inkscape:window-y="22"
     inkscape:window-maximized="0"
     inkscape:current-layer="svg24714"
     fit-margin-top="0"
     fit-margin-left="0"
     fit-margin-right="0"
     fit-margin-bottom="0" />
  <path
     style="fill:#000000"
     d="m 256.20571,504.6521 c -9.42496,-9.52412 -17.50855,-16.80427 -56.36368,-50.76152 -6.4707,-5.65505 -14.8438,-14.0393 -18.60691,-18.63166 l -6.84199,-8.34975 8.32221,-8.32222 c 15.82138,-15.82139 23.78319,-40.01453 21.3478,-64.86848 -3.41786,-34.88056 -18.39764,-59.06246 -43.78753,-70.68634 -11.92194,-5.45803 -38.25177,-8.95422 -55.68104,-7.39354 -6.666742,0.59696 -29.725256,1.91998 -51.241138,2.94006 -21.51588,1.0201 -42.322353,2.40188 -46.2366068,3.07066 C 3.2025713,282.31808 0,282.26004 0,281.52025 c 0,-1.81241 20.665087,-24.85838 48.473962,-54.05876 12.569365,-13.19831 26.233669,-28.86493 30.365121,-34.81469 8.223008,-11.84205 12.821951,-14.16552 11.111598,-5.61375 -1.404243,7.02121 4.584769,14.45723 16.009309,19.87733 7.52467,3.5699 12.14354,4.2091 30.68305,4.24622 19.83584,0.0397 23.55458,-0.53985 40.80314,-6.35939 10.43801,-3.52168 25.93632,-9.61769 34.44068,-13.54669 13.03588,-6.02254 16.8338,-8.88952 24.20055,-18.26858 24.83506,-31.61907 37.19868,-80.337174 37.19868,-146.579321 0,-20.8408549 0.54962,-26.94933937 2.37227,-26.36499947 1.30475,0.4183033 12.1935,15.32995547 24.19721,33.13700547 12.00371,17.80705 26.31832,37.818923 31.81025,44.470828 23.82964,28.862787 29.2389,34.927497 32.02579,35.906497 3.54839,1.24651 2.23246,2.44359 -10.98384,9.99185 -4.85483,2.77274 -12.16985,8.83907 -16.25559,13.48073 -13.31974,15.13201 -25.19309,43.43586 -25.14549,59.94213 0.048,16.63181 12.95046,31.16928 34.03247,38.345 11.62623,3.95724 15.65627,4.22166 64.58997,4.238 28.70453,0.009 59.71952,-0.854 68.9222,-1.91911 17.27851,-1.99979 21.81886,-0.7307 14.8497,4.15068 -2.16662,1.51755 -11.4399,12.60407 -20.60731,24.6367 -28.01673,36.77325 -33.33097,43.56002 -45.04176,57.52255 -6.21137,7.40567 -11.83366,13.46486 -12.49399,13.46486 -0.66033,0 -1.2006,-2.49472 -1.2006,-5.54383 0,-8.01049 -5.04509,-14.55192 -17.34044,-22.4834 -9.3201,-6.01224 -12.64212,-7.0679 -24.09529,-7.65697 -25.56732,-1.31502 -54.07781,7.96663 -74.81007,24.35454 -17.30325,13.67742 -24.00316,30.46318 -29.62739,74.22767 -3.82739,29.78264 -4.64269,100.07408 -1.25628,108.31307 3.47195,8.4471 0.0378,7.2119 -11.02219,-3.9644 z m 6.17619,-14.92465 c -0.90227,-11.79575 -5.90832,-27.38795 -6.10021,-19.00017 -0.16852,7.36898 -7.63876,0.16814 -7.73452,-7.45572 l -0.0672,-5.35457 -2.63185,4.74455 c -2.62951,4.74034 -2.63255,4.73781 -3.42475,-2.84673 -0.66992,-6.41376 -1.02067,-6.93222 -2.26122,-3.34253 -1.93712,5.60534 -4.57841,3.81828 -3.40774,-2.30563 0.53674,-2.80811 0.0389,-4.78985 -1.20349,-4.78985 -1.16549,0 -2.11906,1.33143 -2.11906,2.95874 0,1.6273 -0.73949,2.50171 -1.64331,1.9431 -0.90382,-0.55858 -1.23221,-3.38455 -0.72979,-6.2799 0.89037,-5.13093 0.83436,-5.16813 -2.21042,-1.46867 -3.07586,3.73723 -3.11983,3.72261 -2.85579,-0.94891 0.44083,-7.79936 -0.0133,-8.49468 -3.02514,-4.63283 -2.74021,3.51346 -2.84998,3.42969 -2.37228,-1.81048 0.28164,-3.08927 -0.53754,-5.85844 -1.87138,-6.32606 -1.40482,-0.4925 -2.37227,0.78075 -2.37227,3.12212 0,2.17458 -0.92187,3.95379 -2.04863,3.95379 -1.28994,0 -1.60825,-2.28412 -0.85948,-6.16792 1.12186,-5.81898 1.02302,-5.95949 -1.74702,-2.48399 -2.82261,3.54146 -2.93616,3.4724 -2.93616,-1.7861 0,-5.2585 -0.11348,-5.32756 -2.93615,-1.7861 -2.76112,3.46432 -2.86894,3.28796 -1.8084,-2.95845 1.05696,-6.22532 0.94464,-6.41275 -1.78879,-2.98527 -3.81877,4.78841 -5.81598,2.65958 -2.83337,-3.0201 2.32058,-4.41901 2.31523,-4.42154 -1.74405,-0.81731 -4.22408,3.75053 -5.81027,1.72901 -1.79441,-2.28686 1.25256,-1.25256 1.50207,-2.27738 0.55447,-2.27738 -0.9476,0 -4.94383,3.14512 -8.88047,6.98918 l -7.15757,6.98917 5.0693,6.77002 c 6.26271,8.36381 8.75258,10.75129 30.0702,28.83377 9.38396,7.95986 23.44669,20.4659 31.25051,27.79122 7.80384,7.32534 14.73175,12.99238 15.39538,12.59346 0.66361,-0.39894 0.7649,-6.49986 0.22505,-13.55759 z m -0.65396,-51.48831 c 0.50501,-37.01127 7.58077,-75.98245 17.28664,-95.20965 6.16152,-12.20592 10.98508,-16.75978 30.89941,-29.17184 25.59486,-15.95259 64.70565,-21.52016 82.88139,-11.7985 l 8.42813,4.50794 9.81165,-11.97004 c 5.3964,-6.58352 11.77493,-15.23075 14.17453,-19.21605 2.39961,-3.98531 8.87605,-12.46234 14.39212,-18.83784 l 10.02922,-11.59185 -47.84379,-0.95766 -47.8438,-0.95766 -14.71386,-6.13375 c -18.09924,-7.54499 -26.74146,-16.60756 -30.08506,-31.54836 -3.80226,-16.99033 3.56792,-41.68388 19.2398,-64.46215 l 5.99064,-8.70709 -8.40417,-10.78436 c -4.62232,-5.9314 -17.29681,-24.387371 -28.16557,-41.013272 L 278.04383,50.158094 275.79047,69.000087 C 269.147,124.55114 257.7095,155.79906 234.92598,180.64434 c -9.33889,10.18399 -29.02454,19.50193 -62.08149,29.38543 -22.32469,6.67471 -43.1914,7.82574 -60.49595,3.33699 l -9.93912,-2.57818 -27.4404,28.24586 c -15.09222,15.53523 -28.343168,29.9327 -29.446553,31.99438 -1.879483,3.51186 -1.372845,3.75015 8.024177,3.77402 5.51668,0.0133 22.106578,-0.98905 36.866441,-2.22901 46.241165,-3.8847 71.459345,1.63245 91.375895,19.99088 4.54364,4.18819 10.41113,11.28349 13.03883,15.76736 14.77497,25.21159 18.07437,68.37523 6.91185,90.42266 -3.50289,6.91861 -2.12803,9.06661 18.71894,29.24544 23.36368,22.61488 38.28542,34.79794 39.73923,32.44565 0.69014,-1.11668 1.37869,-11.10969 1.53011,-22.20668 z m -26.96418,-72.40425 c -2.68041,-2.10838 -5.24133,-5.73796 -5.69096,-8.06573 -0.49734,-2.57475 -0.91872,-1.44508 -1.07595,2.88455 -0.32145,8.85166 -4.05408,9.50244 -4.05408,0.70683 0,-7.51298 2.2561,-9.72772 11.62718,-11.41389 14.93229,-2.68686 21.63896,5.60627 12.18182,15.06341 -5.6462,5.64623 -6.76806,5.71747 -12.98801,0.82483 z m 13.51536,-8.25466 c 0.47394,-2.39008 -0.90448,-3.09443 -6.05591,-3.09443 -8.15132,0 -10.26777,2.81424 -5.81594,7.73346 2.94674,3.25611 3.82052,3.38497 7.30273,1.07703 2.17553,-1.44188 4.23165,-4.01411 4.56912,-5.71606 z m -3.66131,-42.8784 c -15.78655,-2.84479 -31.12179,-15.25116 -40.77512,-32.98752 -4.44003,-8.15782 -4.93481,-10.78363 -4.06762,-21.58693 0.66574,-8.29368 2.75323,-15.74684 6.40957,-22.88462 4.84902,-9.46609 6.82683,-11.30091 18.70704,-17.35454 11.22093,-5.71767 15.20114,-6.76584 25.62057,-6.74707 10.44032,0.019 14.22755,1.03788 24.647,6.63201 25.21129,13.53576 30.66103,23.62243 28.45556,52.66697 -1.00348,13.21475 -2.07675,16.95152 -6.79851,23.66975 -8.90654,12.67248 -19.58924,19.13989 -32.53503,19.69705 -6.00726,0.25856 -14.85583,-0.23874 -19.66346,-1.1051 z m 31.51501,-6.47999 c 17.75775,-8.37417 23.72275,-19.2015 23.72275,-43.06026 0,-19.97137 -3.05716,-26.43795 -16.87548,-35.69548 -14.14206,-9.47441 -20.10007,-11.67108 -32.50516,-11.98435 -11.92138,-0.30103 -26.24721,5.15678 -34.64536,13.19911 -5.30602,5.08122 -12.76283,24.90018 -12.76283,33.92149 0,6.76286 8.0676,21.53729 16.5117,30.23838 8.83739,9.10631 18.73625,14.09779 31.74351,16.00657 14.66992,2.15278 14.68085,2.15162 24.81087,-2.62546 z m -77.07173,-13.84621 c -6.07149,-7.11181 -10.91563,-16.95643 -11.51124,-23.39391 -0.85334,-9.22297 2.93995,-9.44678 4.23379,-0.24981 0.57898,4.1157 3.40594,11.03905 6.2821,15.38524 5.43591,8.2142 6.17207,14.32221 0.99535,8.25848 z m 135.3348,-12.38656 c -2.74609,-2.74609 -3.06325,-16.70081 -0.37956,-16.70081 1.0438,0 1.89782,2.93866 1.89782,6.53036 0,3.5917 0.85402,7.05818 1.89782,7.70329 2.26501,1.39985 2.53258,4.74455 0.37956,4.74455 -0.83504,0 -2.54308,-1.02483 -3.79564,-2.27739 z m 6.25613,-4.10882 c -6.68071,-10.19605 5.85789,-20.56578 14.16948,-11.7185 4.78593,5.09439 4.90386,8.98634 0.39587,13.06601 -4.93037,4.46191 -11.13497,3.8879 -14.56535,-1.34751 z m 12.27352,-2.07086 c 2.57878,-3.10722 0.8826,-7.45234 -2.17215,-5.56441 -1.08838,0.67267 -2.69147,0.07 -3.56241,-1.33921 -1.26505,-2.04692 -1.83577,-1.90496 -2.83759,0.70578 -2.81257,7.32942 3.71571,12.0495 8.57215,6.19784 z M 154.77995,255.37687 c -5.58175,-7.96906 -2.64834,-17.01445 6.20114,-19.12171 9.73076,-2.31711 15.51679,11.95211 7.9249,19.544 -4.97743,4.97741 -10.45871,4.81357 -14.12604,-0.42229 z m 11.84865,-1.8551 c 2.7198,-2.7198 3.01812,-10.32554 0.46684,-11.90233 -3.8655,-2.38901 -11.47419,1.23537 -11.47419,5.4657 0,4.46111 3.24183,8.71402 6.64237,8.71402 1.14818,0 3.11242,-1.02483 4.36498,-2.27739 z m -22.02894,-7.68617 c 0.73136,-10.1083 3.88721,-9.75108 4.16947,0.47197 0.14074,5.09787 -0.60646,7.59618 -2.27165,7.59521 -1.74546,-0.001 -2.30832,-2.39361 -1.89782,-8.06718 z m 117.30653,-57.40158 c -6.68099,-7.11159 -2.72203,-8.34295 4.2874,-1.33352 4.15898,4.15898 5.14042,6.07059 3.11672,6.07059 -1.62463,0 -4.95648,-2.13169 -7.40412,-4.73707 z m 5.6362,-2.94805 c -2.84128,-5.309 -1.60954,-13.31199 2.43889,-15.84621 5.01254,-3.13774 13.57264,2.25429 14.35893,9.04474 1.09025,9.41562 -12.46202,14.90296 -16.79782,6.80147 z m 13.04856,-2.40777 c 2.77118,-3.33908 -2.34595,-10.78313 -7.41247,-10.78313 -3.77161,0 -4.83204,4.29963 -2.53608,10.28279 1.39929,3.64647 7.09956,3.93316 9.94855,0.50034 z m 151.56924,130.38472 c 6.03944,-7.94938 15.30746,-19.69214 20.59562,-26.09503 15.40937,-18.65762 35.08439,-45.38562 34.11954,-46.35048 -1.55701,-1.55702 -31.41782,3.78847 -32.6935,5.85256 -0.74113,1.19919 -0.0507,1.53209 1.747,0.84227 5.14757,-1.97531 5.19836,0.71679 0.10268,5.43936 -5.9826,5.54448 -11.98237,6.46705 -7.9613,1.22419 1.40099,-1.82665 0.14518,-1.18614 -2.79086,1.42337 -5.06318,4.50022 -5.13353,4.77578 -1.36594,5.35099 5.77793,0.88215 4.86711,4.09379 -1.24685,4.39655 -4.47475,0.22159 -4.61009,0.37573 -0.94891,1.0809 6.29807,1.21307 5.19046,4.35412 -1.53537,4.35412 -4.02004,0 -5.43591,-0.72958 -4.60381,-2.37228 0.66092,-1.30475 -0.17213,-0.6743 -1.85117,1.40103 -2.81435,3.47853 -2.79911,3.95883 0.19504,6.14821 2.89681,2.1182 2.59618,2.50524 -2.78137,3.58073 -6.16812,1.23364 -8.4019,4.52705 -3.0705,4.52705 1.6273,0 2.43091,0.85401 1.78581,1.89782 -0.64511,1.0438 -2.96123,1.89782 -5.14695,1.89782 -3.94731,0 -3.94564,0.0247 0.24947,3.663 l 4.22349,3.66302 -4.7808,2.50489 c -2.62943,1.37771 -4.77592,3.35894 -4.77,4.40274 0.006,1.0438 -1.96115,2.45319 -4.37131,3.13201 l -4.3821,1.23419 4.3821,0.18921 c 2.48045,0.10704 3.8596,1.0346 3.17807,2.13732 -0.6622,1.07149 -2.20714,1.82432 -3.43319,1.67297 -6.51755,-0.8046 -6.96234,0.44267 -2.32574,6.52157 2.66262,3.49089 4.84113,7.33398 4.84113,8.5402 0,4.97344 4.25203,1.41252 14.63978,-12.26026 z m -20.33324,-0.84117 c 0,-1.10541 0.85402,-1.48201 1.89782,-0.8369 1.0438,0.6451 1.89782,1.54953 1.89782,2.00983 0,0.46029 -0.85402,0.8369 -1.89782,0.8369 -1.0438,0 -1.89782,-0.90443 -1.89782,-2.00983 z M 27.522695,274.77039 c 0.647474,-1.04763 3.259931,-1.38207 5.805464,-0.74317 4.948685,1.24203 6.054019,-0.8606 2.382489,-4.53212 -3.030029,-3.03004 -0.433997,-5.32054 2.897,-2.55606 2.025528,1.68103 3.163092,1.56232 4.882569,-0.50951 1.530182,-1.84375 1.610108,-3.09157 0.251799,-3.93105 -3.777596,-2.33468 -2.117956,-5.00355 1.805665,-2.90368 3.884586,2.07896 5.601976,-0.55743 1.866863,-2.86586 -1.060826,-0.65563 -1.411805,-2.02853 -0.779951,-3.0509 0.719025,-1.1634 2.180726,-1.00243 3.907029,0.43027 4.429592,3.67623 8.001559,-0.99104 4.74693,-6.20253 -2.335852,-3.7403 -2.174076,-3.94071 2.465094,-3.05388 5.897656,1.1274 7.849609,-0.97859 3.925506,-4.23531 -1.542715,-1.28034 -2.3113,-3.12662 -1.707966,-4.10284 0.647699,-1.04799 2.193673,-0.86474 3.774745,0.44743 1.841468,1.52828 2.677771,1.57567 2.677771,0.15164 0,-1.13884 1.121408,-1.6403 2.49202,-1.11436 1.370611,0.52596 4.000737,-0.71083 5.844724,-2.74842 2.681489,-2.96301 2.929109,-4.49619 1.236847,-7.6582 -2.297615,-4.29314 -0.312656,-5.32039 3.299954,-1.70777 3.190564,3.19057 5.246987,0.34538 2.309015,-3.19466 -1.341286,-1.61615 -1.820169,-3.55699 -1.064183,-4.31297 0.755985,-0.756 2.503735,0.16986 3.883888,2.05724 1.73628,2.37451 2.923835,2.76116 3.854676,1.25503 0.739918,-1.19722 0.394895,-3.12717 -0.766717,-4.28877 -3.898229,-3.89824 -2.160247,-5.77964 1.959766,-2.1215 4.058492,3.60352 4.064214,3.6009 1.751683,-0.80306 -1.27606,-2.43012 -1.833382,-5.68678 -1.238491,-7.23705 0.913641,-2.38084 -3.464594,-13.96506 -5.278098,-13.96506 -0.327603,0 -4.452428,4.91061 -9.166275,10.91247 -4.713847,6.00185 -17.874675,20.74357 -29.246286,32.75939 -11.37161,12.0158 -24.384759,26.32062 -28.918111,31.78849 l -8.2424581,9.94156 8.6049101,0 c 4.732698,0 9.134657,-0.85715 9.782129,-1.90479 z m 41.90611,-44.86344 c -1.588817,-4.14038 0.52073,-6.06486 2.762486,-2.52013 2.244244,3.54865 2.292026,5.63849 0.128919,5.63849 -0.932126,0 -2.233258,-1.40326 -2.891403,-3.11836 z M 346.4878,123.72083 c 4.62155,-2.7084 8.88422,-5.7033 9.4726,-6.65532 1.35336,-2.18978 -4.93668,-11.33211 -16.18895,-23.52997 C 327.53353,80.26918 310.65308,57.552536 293.58593,31.381933 285.58751,19.117271 278.47936,9.0825471 277.79003,9.0825471 c -2.29283,0 1.20286,26.8539399 3.83882,29.4898959 1.42575,1.425766 3.12098,2.063621 3.76713,1.417459 0.64617,-0.646162 1.17485,0.504731 1.17485,2.557538 0,2.05281 0.95041,4.68279 2.11202,5.844404 1.1616,1.161612 1.48186,3.13163 0.71169,4.377819 -1.058,1.711871 -1.84165,1.636306 -3.20542,-0.309092 -1.45834,-2.080273 -1.64695,-2.028056 -0.98188,0.271838 0.45277,1.565701 2.2258,2.728116 3.94012,2.583143 2.27346,-0.192256 3.13327,1.348436 3.17728,5.693461 0.0573,5.648675 0.2046,5.766345 2.84673,2.273131 2.6288,-3.475573 2.79708,-3.314579 2.97555,2.84673 0.17802,6.143129 0.28722,6.249113 1.84151,1.786095 1.41616,-4.066364 1.57924,-3.727271 1.14082,2.372275 -0.49783,6.9264 1.23413,9.524483 3.16289,4.74455 0.52647,-1.304751 1.09208,0.189782 1.25689,3.321185 0.16473,3.131403 0.73041,4.625937 1.25689,3.321185 1.96488,-4.869502 3.64855,-2.129758 2.91567,4.744551 -0.72117,6.76466 -0.6114,6.929003 2.21856,3.321185 2.94139,-3.749901 2.978,-3.742834 3.03763,0.586458 0.0334,2.426971 0.90708,3.858791 1.95817,3.209182 1.12713,-0.696608 1.89782,1.524479 1.89782,5.469449 0,3.653311 0.99914,7.259881 2.22033,8.014621 1.44576,0.89353 1.83806,0.37603 1.1245,-1.48347 -0.60271,-1.57064 -0.3339,-4.05929 0.59734,-5.53033 1.15951,-1.831641 1.71149,-0.282011 1.75129,4.91665 0.0319,4.17521 0.88598,8.87231 1.89782,10.43801 1.48764,2.30198 1.84525,2.0296 1.86876,-1.42336 0.0501,-7.3624 3.8184,-4.64318 3.945,2.84673 0.10438,6.17607 0.34717,6.55237 1.83665,2.84673 2.60877,-6.49026 4.31477,-5.10084 2.91282,2.37227 -0.68536,3.65331 -0.71899,6.64237 -0.0748,6.64237 0.64427,0 4.95269,-2.21597 9.57422,-4.92438 z m -6.77801,-4.56472 c 0,-3.5426 0.50609,-4.04868 2.27738,-2.27738 1.77129,1.7713 1.77129,2.78347 0,4.55477 -1.77129,1.77129 -2.27738,1.26521 -2.27738,-2.27739 z"
     id="path24724"
     inkscape:connector-curvature="0" />
  <path
     style="fill:#000000;fill-opacity:0.69306928;stroke:none"
     d="m 277.43757,43.361922 c -10.78028,80.411108 -28.2608,145.576638 -71.64271,151.469768 -28.17014,9.97577 -47.25366,27.62453 -103.31258,14.11503 l -62.212911,66.89816 c 50.039503,7.08118 110.281401,-20.28857 149.097491,24.67166 19.69504,34.46935 24.16412,69.65055 9.42979,105.68485 15.87769,22.27335 30.21441,40.56915 63.39905,56.34154 1.246,-145.94711 37.42236,-135.90301 66.89816,-157.04461 19.22169,-2.12068 56.28167,-17.2591 72.76954,4.98178 l 54.02856,-68.67737 c -45.99439,-5.08348 -99.88696,15.88354 -136.16859,-21.11325 -17.30015,-17.31946 -10.91144,-40.94911 -0.59307,-61.61984 5.05407,-10.12477 14.18025,-17.33306 15.83494,-27.04394 z m -2.07574,126.916718 c 4.15907,0.1237 5.32816,4.83075 7.35405,8.24365 0.36924,10.32796 -6.1575,8.44807 -12.0393,7.7099 -4.04176,-5.83407 -4.02237,-10.65284 -0.23722,-14.53019 1.57139,-0.8126 2.90734,-1.2384 4.03286,-1.36405 0.30483,-0.034 0.61234,-0.0676 0.88961,-0.0593 z m -20.52018,45.42907 c 59.23519,19.09529 44.00094,36.79863 47.86065,54.85886 -3.46333,37.38341 -24.8809,44.84309 -51.41906,43.76847 -23.60302,-4.99335 -41.74001,-18.18573 -49.87709,-46.37798 1.19016,-43.19702 25.46531,-50.5887 53.4355,-52.24935 z m -90.02784,23.78205 c 3.35288,0.0383 6.01664,2.45159 6.8796,8.18435 -10.20667,20.66134 -17.01418,7.00161 -17.85137,-2.07574 3.57692,-3.81052 7.6189,-6.14698 10.97177,-6.10861 z m 185.74914,25.7985 c 7.08689,5.5032 7.70702,9.70716 3.14326,12.86959 -13.38753,6.63757 -18.50452,-13.11644 -3.14326,-12.86959 z m -118.00862,89.5373 c 17.2833,-9.57928 25.23981,7.86279 7.4606,11.46231 -2.24533,-3.23066 -10.48369,-2.96324 -7.4606,-11.46231 z"
     id="path24726"
     inkscape:connector-curvature="0"
     sodipodi:nodetypes="cccccccccccsccscccssccccccccccccccc" />
  <path
     style="fill:#000000;fill-opacity:0.34653464;stroke:#000000;stroke-width:1.89782px;stroke-linecap:butt;stroke-linejoin:miter;stroke-opacity:1"
     d="M 2.1149436,279.96419 41.44646,277.02901 98.97614,206.58451 84.300203,190.14745 z"
     id="path25236"
     inkscape:connector-curvature="0" />
  <path
     style="fill:#000000;fill-opacity:0.34653464;stroke:none"
     d="m 276.84852,6.4046911 1.7611,39.9185529 57.52969,85.707486 26.4167,-17.02409 C 333.98686,87.290452 305.41768,46.206424 276.84852,6.4046911 z"
     id="path25238"
     inkscape:connector-curvature="0"
     sodipodi:nodetypes="ccccc" />
  <path
     style="fill:#000000;fill-opacity:0.34653464;stroke:none"
     d="m 454.13386,241.21972 38.15745,-3.52224 -73.96674,96.27417 -15.26297,-27.00374 z"
     id="path25240"
     inkscape:connector-curvature="0" />
  <path
     style="fill:#000000;fill-opacity:0.34653464;stroke:none"
     d="m 178.51973,425.84303 18.49168,-16.73057 64.57414,58.41023 3.81574,43.14726 c -29.01756,-28.26803 -69.01603,-55.07194 -86.88156,-84.82692 z"
     id="path25242"
     inkscape:connector-curvature="0"
     sodipodi:nodetypes="ccccc" />
</svg>
