<?xml version="1.0" encoding="UTF-8" standalone="no"?>
<!-- Created with Inkscape (http://www.inkscape.org/) -->

<svg
   xmlns:dc="http://purl.org/dc/elements/1.1/"
   xmlns:cc="http://creativecommons.org/ns#"
   xmlns:rdf="http://www.w3.org/1999/02/22-rdf-syntax-ns#"
   xmlns:svg="http://www.w3.org/2000/svg"
   xmlns="http://www.w3.org/2000/svg"
   xmlns:xlink="http://www.w3.org/1999/xlink"
   xmlns:sodipodi="http://sodipodi.sourceforge.net/DTD/sodipodi-0.dtd"
   xmlns:inkscape="http://www.inkscape.org/namespaces/inkscape"
   id="svg27296"
   version="1.1"
   inkscape:version="0.48.4 r9939"
   width="465.36301"
   height="513.52325"
   sodipodi:docname="Tinderbox.svg">
  <metadata
     id="metadata27302">
    <rdf:RDF>
      <cc:Work
         rdf:about="">
        <dc:format>image/svg+xml</dc:format>
        <dc:type
           rdf:resource="http://purl.org/dc/dcmitype/StillImage" />
        <dc:title />
      </cc:Work>
    </rdf:RDF>
  </metadata>
  <defs
     id="defs27300">
    <linearGradient
       inkscape:collect="always"
       id="linearGradient27870">
      <stop
         style="stop-color:#000000;stop-opacity:1;"
         offset="0"
         id="stop27872" />
      <stop
         style="stop-color:#000000;stop-opacity:0;"
         offset="1"
         id="stop27874" />
    </linearGradient>
    <linearGradient
       id="linearGradient27827">
      <stop
         style="stop-color:#000000;stop-opacity:1;"
         offset="0"
         id="stop27829" />
      <stop
         style="stop-color:#000000;stop-opacity:0;"
         offset="1"
         id="stop27831" />
    </linearGradient>
    <linearGradient
       inkscape:collect="always"
       xlink:href="#linearGradient27827"
       id="linearGradient27833"
       x1="201.25203"
       y1="29.666157"
       x2="255.83932"
       y2="29.666157"
       gradientUnits="userSpaceOnUse"
       gradientTransform="matrix(0.02095742,0.99978037,-0.99978037,0.02095742,256.09346,36.87839)" />
    <filter
       inkscape:collect="always"
       id="filter27839"
       color-interpolation-filters="sRGB">
      <feGaussianBlur
         inkscape:collect="always"
         stdDeviation="0.76275038"
         id="feGaussianBlur27841" />
    </filter>
    <filter
       inkscape:collect="always"
       id="filter27854"
       x="-0.24358173"
       width="1.4871635"
       y="-0.15264454"
       height="1.3052891"
       color-interpolation-filters="sRGB">
      <feGaussianBlur
         inkscape:collect="always"
         stdDeviation="1.9652012"
         id="feGaussianBlur27856" />
    </filter>
    <linearGradient
       inkscape:collect="always"
       xlink:href="#linearGradient27870"
       id="linearGradient27876"
       x1="260.58331"
       y1="172.00388"
       x2="337.19211"
       y2="170.256"
       gradientUnits="userSpaceOnUse"
       gradientTransform="translate(0,225)" />
    <filter
       inkscape:collect="always"
       id="filter27878"
       x="-0.83590478"
       width="2.6718097"
       y="-0.17546581"
       height="1.3509316"
       color-interpolation-filters="sRGB">
      <feGaussianBlur
         inkscape:collect="always"
         stdDeviation="12.987223"
         id="feGaussianBlur27880" />
    </filter>
    <filter
       inkscape:collect="always"
       id="filter27882"
       x="-0.87422478"
       width="2.7484496"
       y="-0.1821046"
       height="1.3642092"
       color-interpolation-filters="sRGB">
      <feGaussianBlur
         inkscape:collect="always"
         stdDeviation="13.370357"
         id="feGaussianBlur27884" />
    </filter>
    <filter
       inkscape:collect="always"
       id="filter27896"
       x="-0.20506333"
       width="1.4101267"
       y="-0.27021962"
       height="1.5404392"
       color-interpolation-filters="sRGB">
      <feGaussianBlur
         inkscape:collect="always"
         stdDeviation="7.4672158"
         id="feGaussianBlur27898" />
    </filter>
    <filter
       inkscape:collect="always"
       id="filter27910"
       x="-0.47742304"
       width="1.9548461"
       y="-0.36727262"
       height="1.7345452"
       color-interpolation-filters="sRGB">
      <feGaussianBlur
         inkscape:collect="always"
         stdDeviation="8.648479"
         id="feGaussianBlur27912" />
    </filter>
    <filter
       inkscape:collect="always"
       id="filter27916"
       x="-0.1519933"
       width="1.3039865"
       y="-0.18027113"
       height="1.3605423"
       color-interpolation-filters="sRGB">
      <feGaussianBlur
         inkscape:collect="always"
         stdDeviation="1.3306355"
         id="feGaussianBlur27918" />
    </filter>
    <filter
       inkscape:collect="always"
       id="filter27922"
       x="-0.17365448"
       width="1.347309"
       y="-0.15703826"
       height="1.3140765"
       color-interpolation-filters="sRGB">
      <feGaussianBlur
         inkscape:collect="always"
         stdDeviation="0.97108946"
         id="feGaussianBlur27924" />
    </filter>
    <filter
       inkscape:collect="always"
       id="filter27928"
       x="-0.26924691"
       width="1.5384938"
       y="-0.11887251"
       height="1.237745"
       color-interpolation-filters="sRGB">
      <feGaussianBlur
         inkscape:collect="always"
         stdDeviation="0.40851711"
         id="feGaussianBlur27930" />
    </filter>
    <filter
       inkscape:collect="always"
       id="filter27934"
       x="-0.13348477"
       width="1.2669694"
       y="-0.28587013"
       height="1.5717402"
       color-interpolation-filters="sRGB">
      <feGaussianBlur
         inkscape:collect="always"
         stdDeviation="1.9604992"
         id="feGaussianBlur27936" />
    </filter>
    <filter
       inkscape:collect="always"
       id="filter27940"
       x="-0.24323262"
       width="1.4864653"
       y="-0.094863273"
       height="1.1897265"
       color-interpolation-filters="sRGB">
      <feGaussianBlur
         inkscape:collect="always"
         stdDeviation="2.7654478"
         id="feGaussianBlur27942" />
    </filter>
    <filter
       inkscape:collect="always"
       id="filter28016"
       x="-0.69907731"
       width="2.3981545"
       y="-0.5298987"
       height="2.0597973"
       color-interpolation-filters="sRGB">
      <feGaussianBlur
         inkscape:collect="always"
         stdDeviation="6.7883553"
         id="feGaussianBlur28018" />
    </filter>
    <filter
       inkscape:collect="always"
       id="filter28020"
       x="-0.531973"
       width="2.063946"
       y="-0.43351725"
       height="1.8670346"
       color-interpolation-filters="sRGB">
      <feGaussianBlur
         inkscape:collect="always"
         stdDeviation="5.2463822"
         id="feGaussianBlur28022" />
    </filter>
  </defs>
  <sodipodi:namedview
     pagecolor="#ffffff"
     bordercolor="#666666"
     borderopacity="1"
     objecttolerance="10"
     gridtolerance="10"
     guidetolerance="10"
     inkscape:pageopacity="0"
     inkscape:pageshadow="2"
     inkscape:window-width="1270"
     inkscape:window-height="736"
     id="namedview27298"
     showgrid="false"
     inkscape:zoom="0.85818182"
     inkscape:cx="361.73127"
     inkscape:cy="216.96087"
     inkscape:window-x="4"
     inkscape:window-y="22"
     inkscape:window-maximized="0"
     inkscape:current-layer="svg27296"
     fit-margin-top="0"
     fit-margin-left="0"
     fit-margin-right="0"
     fit-margin-bottom="0" />
  <path
     style="fill:#6b6b6b;fill-opacity:0.72772277;stroke:none"
     d="m 315.68225,123.85378 c -13.63568,0.14518 -27.65392,1.19992 -43.14358,5.67105 -5.85661,8.88158 -2.29406,39.7311 -3.44625,59.58962 l -27.43915,-17.3185 c -22.50903,5.53068 -41.67414,24.45696 -67.52909,22.20433 l 1.22146,7.72135 26.82842,12.99978 c 2.45517,-11.36485 18.11559,-14.0605 39.47921,-12.99978 l 11.77833,15.4427 166.33619,2.00667 c -3.80963,-12.29981 -3.44371,-10.84932 -15.48632,-12.99978 l -5.27844,-8.5502 c 7.08647,-3.88511 12.35103,-9.16286 18.93257,-19.10706 1.61491,-22.3006 2.5917,-28.61183 -15.2682,-45.10664 -16.81468,-3.25134 -24.45973,-4.12128 -36.99268,5.27843 -10.94407,-3.87175 -21.78316,-7.78771 -25.60696,-14.65747 -8.13123,-0.03 -16.20409,-0.2616 -24.38551,-0.1745 z m 51.43204,66.48213 c 5.78115,2.52101 5.10905,4.61183 7.28512,6.8925 -0.53864,5.37398 -5.66533,7.53632 -11.56021,9.16093 -14.07748,-2.09139 -9.67254,-9.46344 -13.65414,-14.43936 z"
     id="path27820"
     inkscape:connector-curvature="0"
     sodipodi:nodetypes="scccccccccccccccsccccc" />
  <path
     style="fill:#ba9b0d;fill-opacity:1;stroke:none"
     d="m 221.27627,222.53483 c -7.3961,-5.90603 1.2025,-5.24844 9.77676,-4.60082 l 22.42901,1.7253 c 55.97669,0.95851 146.24539,-3.46213 167.93007,2.87552 3.79751,4.65115 0.96021,25.97532 1.28005,38.96297 1.59682,64.84294 -1.03307,130.29587 -0.2345,195.13882 1.10421,4.39749 -5.72978,8.79498 -11.97251,13.19248 l -43.13272,5.75103 c -45.80593,-1.42347 -93.80946,0.8157 -135.1492,-8.05143 l -4.02572,-234.06692 -9.20164,-5.17592 c 0.70965,-1.97417 0.62946,-4.73816 2.3004,-5.75103 z"
     id="path27818"
     inkscape:connector-curvature="0"
     sodipodi:nodetypes="ccccsccccccc" />
  <path
     style="fill:#ba9b0d;fill-opacity:1;stroke:none"
     d="m 25.166159,140.2951 c 62.746196,31.9828 129.025561,57.6059 195.535001,82.81483 l -36.23148,62.68622 c -8.83934,9.34062 -22.34648,7.0117 -35.65638,5.17593 C 95.909097,273.21319 47.402046,249.29829 2.1620388,220.80951 4.3582888,186.50985 14.731049,163.35995 25.166159,140.2951 z"
     id="path27308"
     inkscape:connector-curvature="0"
     sodipodi:nodetypes="cccccc" />
  <path
     style="fill:#ffffff;fill-opacity:0.65841585;stroke:none;filter:url(#filter27854)"
     d="m 203.31193,305.13366 17.30314,0.41198 c -5.89384,-10.09351 -3.99612,-20.187 -1.23594,-30.28051 l -18.1271,-0.61796 c 2.34068,10.16216 5.99914,20.32432 2.0599,30.48649 z"
     id="path27848"
     inkscape:connector-curvature="0"
     sodipodi:nodetypes="ccccc"
     transform="matrix(1.3959502,0,0,1.3959502,-10.490221,-209.16758)" />
  <path
     style="fill:url(#linearGradient27833);fill-opacity:1;stroke:none;filter:url(#filter27839)"
     d="m 254.06721,239.44825 c 3.38765,6.94759 2.90773,42.04859 4.15561,58.23213 l -56.08663,1.98176 c 0.85474,-14.09336 -2.63758,-51.86626 0.7103,-56.69935 14.9302,-6.35133 33.07317,-4.93846 51.22072,-3.51454 z"
     id="path27825"
     inkscape:connector-curvature="0"
     sodipodi:nodetypes="ccccc"
     transform="matrix(1.3959502,0,0,1.3959502,-10.490221,-209.16758)" />
  <path
     style="fill:none;stroke:none"
     d="m 249.365,188.28635 2.84663,-2.23664 3.86326,4.67659 z"
     id="path27843"
     inkscape:connector-curvature="0" />
  <path
     style="fill:#ffffff;fill-opacity:0.74752473;stroke:none;filter:url(#filter27934)"
     d="m 142.59798,296.95445 8.30244,3.93273 c 4.44274,-6.82656 13.57914,-9.89289 26.94651,-9.32203 l -1.31091,-7.13718 c -11.31268,5.05071 -22.62536,8.5495 -33.93804,12.52648 z"
     id="path27932"
     inkscape:connector-curvature="0"
     sodipodi:nodetypes="ccccc"
     transform="matrix(1.3959502,0,0,1.3959502,-10.490221,-209.16758)" />
  <path
     style="fill:#ffffff;fill-opacity:0.51485153;stroke:none;filter:url(#filter27878)"
     d="m 201.5183,308.8983 c 8.94072,0.253 19.69705,2.24187 31.92382,1.35661 -10.407,58.0685 -0.38626,114.48909 3.68712,172.55759 -12.42938,5.86888 -24.85876,4.20693 -37.28814,-0.87394 5.88069,-56.34109 18.38632,-110.53831 1.6772,-173.04026 z"
     id="path27858"
     inkscape:connector-curvature="0"
     sodipodi:nodetypes="ccccc"
     transform="matrix(1.3959502,0,0,1.3959502,-10.490221,-209.16758)" />
  <path
     style="fill:url(#linearGradient27876);fill-opacity:1;stroke:none;filter:url(#filter27882)"
     d="m 275,308.8983 33.79237,2.91314 -3.49576,167.21398 c -22.32343,10.42468 -27.51732,5.27705 -33.20974,0.58263 C 305.29334,422.53453 281.5256,331.78481 275,308.8983 z"
     id="path27864"
     inkscape:connector-curvature="0"
     sodipodi:nodetypes="ccccc"
     transform="matrix(1.3959502,0,0,1.3959502,-10.490221,-209.16758)" />
  <path
     style="fill:#000000;fill-opacity:0.51485153;stroke:none;filter:url(#filter27896)"
     d="m 73.411017,331.62076 c 20.83298,9.19386 38.535803,29.86497 63.506353,23.88772 19.80997,-29.03496 17.8802,-29.26215 23.88771,-43.11441 L 109.5339,290.25424 c -2.46749,19.88105 -16.620487,32.32586 -36.122883,41.36652 z"
     id="path27886"
     inkscape:connector-curvature="0"
     sodipodi:nodetypes="ccccc"
     transform="matrix(1.3959502,0,0,1.3959502,-10.490221,-209.16758)" />
  <path
     style="fill:#ffffff;fill-opacity:0.51485153;stroke:none;filter:url(#filter27910)"
     d="m 49.523306,322.88136 -19.809323,-9.32204 c 7.081787,-16.11267 15.198767,-19.02647 20.974576,-47.1928 l 21.557204,9.90467 c 3.670231,22.04206 -3.249651,42.71561 -22.722457,46.61017 z"
     id="path27900"
     inkscape:connector-curvature="0"
     sodipodi:nodetypes="ccccc"
     transform="matrix(1.3959502,0,0,1.3959502,-10.490221,-209.16758)" />
  <path
     style="fill:#ffffff;fill-opacity:0.51485153;stroke:none;filter:url(#filter27916)"
     d="m 284.26591,282.88676 c 10.45035,0.68522 13.1958,-4.93357 15.24325,-11.12345 3.67052,-13.04057 5.32363,-6.44698 5.76771,4.11979 -3.56536,8.56012 -9.41111,11.98936 -16.0672,13.59533 -7.11929,-0.0593 -12.72005,-0.6777 -4.94376,-6.59167 z"
     id="path27914"
     inkscape:connector-curvature="0"
     sodipodi:nodetypes="ccccc"
     transform="matrix(1.3959502,0,0,1.3959502,-10.490221,-209.16758)" />
  <path
     style="fill:#ffffff;fill-opacity:0.51485153;stroke:none;filter:url(#filter27922)"
     d="m 267.86282,280.34958 c -0.0616,3.84418 3.63545,3.0624 8.59375,0.72828 1.76499,-1.48782 5.11416,-3.07203 4.80668,-9.03072 -1.74624,-6.03404 -2.27095,-4.12824 -2.47617,-0.14566 -4.78511,7.5833 -8.33467,7.16414 -10.92426,8.4481 z"
     id="path27920"
     inkscape:connector-curvature="0"
     sodipodi:nodetypes="ccccc"
     transform="matrix(1.3959502,0,0,1.3959502,-10.490221,-209.16758)" />
  <path
     style="fill:#ffffff;fill-opacity:0.51485153;stroke:none;filter:url(#filter27928)"
     d="m 270.92161,267.82309 c 0.38353,-0.78417 0.0534,-2.63881 2.62182,-0.14565 l 1.0196,3.78707 -2.62182,3.20445 c -0.0643,-2.28195 0.81197,-4.56391 -1.0196,-6.84587 z"
     id="path27926"
     inkscape:connector-curvature="0"
     sodipodi:nodetypes="ccccc"
     transform="matrix(1.3959502,0,0,1.3959502,-10.490221,-209.16758)" />
  <path
     style="fill:#000000"
     d="m 320.82982,121.49812 c -11.1327,0.50078 -26.36683,1.95885 -33.85179,3.22813 -19.02816,3.22675 -18.58257,2.32853 -18.27822,35.68398 0.17533,19.21563 -0.19579,26.14839 -1.39595,26.13044 -0.89912,-0.014 -5.00659,-3.15885 -9.16093,-7.02337 -4.15432,-3.86453 -8.79529,-7.70389 -10.29513,-8.50658 -3.86439,-2.06815 -13.29201,-0.30617 -19.84866,3.708 -3.0711,1.8802 -11.56456,6.41393 -18.84533,10.07701 -13.53331,6.80883 -20.26353,8.05325 -32.80483,5.97641 -3.99038,-0.6608 -4.20476,-0.47289 -4.62409,4.62409 -0.35835,4.35584 -0.87682,5.18493 -2.7919,4.44959 -1.2935,-0.49667 -9.89379,-3.63478 -19.10706,-6.97975 -32.33678,-11.74021 -47.20127,-18.02726 -90.954882,-38.47588 -26.320975,-12.30133 -35.088509,-15.54598 -30.405539,-11.25485 1.4531,1.33153 67.032326,32.28135 68.401558,32.28135 0.477456,0 5.991623,2.27826 12.258183,5.06032 11.03043,4.89698 42.30455,16.87994 69.05591,26.43581 7.164,2.55905 13.75987,5.25145 14.65748,5.97641 0.89761,0.72496 6.84015,3.05956 13.17428,5.19119 6.33412,2.13163 11.51659,4.37583 11.51659,5.01669 0,0.64087 -0.51662,1.17784 -1.13421,1.17784 -1.14486,0 -4.66375,6.77001 -19.63055,37.69065 -8.96013,18.51114 -11.35199,22.09477 -16.9259,25.47609 -4.95119,3.00363 -15.99594,4.32421 -19.67417,2.35567 -1.90586,-1.01991 -2.67037,-1.06359 -2.09392,-0.1308 1.72709,2.79448 -13.52238,-0.0235 -27.09016,-5.0167 -17.48438,-6.43473 -23.70307,-9.57867 -27.91901,-14.13399 -1.91943,-2.07395 -2.95365,-2.97127 -2.26841,-1.96306 0.68523,1.00823 0.9018,2.19547 0.47985,2.61741 -1.530623,1.53063 -9.175101,-3.70004 -14.788343,-10.07702 -3.159007,-3.58882 -5.758294,-5.92342 -5.758294,-5.19119 0,0.73222 1.892531,3.16663 4.18785,5.36569 2.295305,2.19904 3.922229,4.23535 3.620746,4.53683 -1.265792,1.26581 -12.160499,-5.5733 -15.006464,-9.42266 -1.698313,-2.29709 -3.735995,-4.18785 -4.493215,-4.18785 -0.757219,0 0.145361,1.63777 2.006679,3.62075 l 3.402628,3.57712 -7.677726,-2.9664 c -9.294948,-3.61725 -43.804482,-22.15643 -54.442052,-29.2277 l -7.6777302,-5.10395 0.34899,-9.03005 c 0.77518,-19.40717 6.3444902,-40.09974 15.8353102,-58.84809 5.943549,-11.74103 6.971526,-16.34977 2.44291,-10.90586 -9.97667,11.99308 -19.0647102,40.20969 -22.85868023,70.84447 -0.8559,6.911 -0.67515,7.57075 3.31538003,11.29847 2.33184,2.17825 6.00163,4.85278 8.1575802,5.93279 2.15595,1.08 10.29636,5.56962 18.103731,9.98977 7.807367,4.42015 18.800475,10.18493 24.429127,12.78166 5.628653,2.59672 17.78964,8.1632 27.002911,12.38906 9.213271,4.22588 20.834552,9.57302 25.825082,11.86558 27.45941,12.61432 45.44049,16.84557 63.42848,14.91922 7.46941,-0.79991 9.95992,-1.76842 14.57023,-5.71467 5.41826,-4.63783 7.35124,-8.0665 20.32852,-36.12022 6.48084,-14.00995 11.02758,-23.03317 11.64746,-23.03317 0.26283,0 1.42213,0.94226 2.57379,2.09392 1.15166,1.15166 3.22291,2.09393 4.58046,2.09393 2.3015,0 2.5591,3.74965 3.5335,55.48902 1.2201,64.79362 1.18591,136.66388 -0.0436,154.60148 -1.01714,14.83911 0.79787,23.44584 5.62743,26.6103 3.50629,2.29739 19.71255,4.36534 47.54955,6.10728 9.21327,0.57654 34.44077,1.14866 56.05612,1.26508 35.25487,0.18982 40.71565,-0.0983 53.04611,-2.74828 7.56001,-1.62472 16.07146,-3.2471 18.93257,-3.62074 3.75042,-0.48977 6.55641,-2.17608 9.98977,-5.97642 l 4.75496,-5.23481 0.34899,-59.85136 c 0.2053,-32.91528 0.45075,-86.05318 0.52348,-118.04504 0.13149,-57.89113 0.0997,-58.18243 -2.92277,-61.4218 -1.67026,-1.79014 -3.2407,-5.42676 -3.48988,-8.11396 -0.42709,-4.60612 -0.75591,-4.9044 -6.02003,-5.32206 -4.02109,-0.31905 -6.42523,-1.49962 -8.5502,-4.14423 l -2.92277,-3.66437 7.54686,-6.8925 c 10.76796,-9.84131 12.11176,-13.07396 11.77833,-28.0935 -0.19064,-8.58702 -0.91939,-13.41743 -2.35567,-15.35545 -1.15251,-1.55512 -3.68206,-4.9701 -5.5838,-7.59048 -4.54265,-6.25912 -7.79238,-8.45577 -15.92263,-10.6005 -8.01793,-2.11509 -19.14847,-0.55864 -26.39218,3.66437 -4.69532,2.73732 -4.78498,2.71311 -10.55687,0 -3.19547,-1.50204 -11.2062,-0.20029 -11.73471,-4.62408 l -0.91609,-7.45961 z m 7.85222,3.22813 c 7.85863,0.0849 13.78612,0.57145 14.74472,1.52682 1.35134,1.3468 2.01119,10.47562 2.53016,35.59673 0.45103,21.8321 1.26729,34.79594 2.31205,36.60007 5.68266,9.81312 14.14907,12.1262 43.05633,11.82195 11.51659,-0.12117 21.72448,-0.15609 22.68419,-0.0872 0.9721,0.0698 1.67549,1.83112 1.61407,3.96973 -0.0606,2.11137 -0.39797,3.05364 -0.78522,2.09392 -0.38725,-0.95971 -1.28335,-1.74493 -1.96306,-1.74493 -0.67968,0 -0.87816,0.94226 -0.43623,2.09392 0.93364,2.43303 0.59405,2.5335 -2.26842,0.69798 -1.15166,-0.73849 -3.24363,-0.99689 -4.62408,-0.56711 -1.38045,0.42979 -3.42202,0.0528 -4.53684,-0.87247 -1.4302,-1.18696 -2.00668,-1.23645 -2.00668,-0.1308 0,0.86179 -0.94227,1.57045 -2.09393,1.57045 -1.15165,0 -2.09392,-0.62818 -2.09392,-1.39595 0,-0.76778 -0.67011,-1.39595 -1.4832,-1.39595 -0.81308,0 -1.08524,0.62817 -0.61073,1.39595 0.47451,0.76777 -0.10623,1.39595 -1.26508,1.39595 -1.15882,0 -2.75093,-1.09931 -3.5335,-2.44292 -1.35517,-2.32659 -1.39909,-2.32659 -1.43957,0 -0.0477,2.74496 -2.84578,3.42311 -2.87915,0.69798 -0.0142,-1.16685 -0.47677,-1.05122 -1.39595,0.34899 -1.22184,1.86126 -1.52643,1.86126 -2.74827,0 -0.91918,-1.40021 -1.38171,-1.51584 -1.39595,-0.34899 -0.0303,2.47936 -2.80089,2.15938 -6.06366,-0.69798 -2.6567,-2.32659 -2.76788,-2.32659 -1.91943,0 0.6956,1.90744 0.16055,2.44292 -2.53016,2.44292 -2.13254,0 -3.44625,-0.79814 -3.44625,-2.09393 0,-1.15166 -0.60865,-2.09392 -1.35233,-2.09392 -0.74367,0 -1.00904,0.94226 -0.56711,2.09392 1.14202,2.97601 -3.54667,2.70587 -6.06365,-0.34899 -1.91695,-2.32659 -1.99663,-2.32659 -1.26508,0 0.48061,1.52854 0.0441,2.44292 -1.17784,2.44292 -1.07417,0 -2.24104,-1.4134 -2.57378,-3.14089 l -0.56711,-3.14096 -0.21811,3.14089 c -0.20501,3.38726 -2.29989,4.23694 -3.44625,1.39595 -0.56328,-1.39595 -0.74063,-1.39595 -0.82885,0 -0.15766,2.49619 -2.87915,2.16618 -2.87915,-0.34899 0,-1.15166 -0.72052,-2.09392 -1.57044,-2.09392 -0.84997,0 -1.18354,0.94226 -0.7416,2.09392 0.53913,1.40495 -0.0228,2.09393 -1.78856,2.09393 -1.44748,0 -2.97176,-0.78523 -3.35901,-1.74494 -0.56328,-1.39595 -0.74062,-1.39595 -0.82884,0 -0.0606,0.95971 -1.65769,1.74494 -3.57712,1.74494 -1.91943,0 -3.52233,-0.78523 -3.5335,-1.74494 -0.0126,-1.08065 -0.41182,-1.21351 -1.04696,-0.34899 -1.77708,2.41882 -4.72228,2.28179 -6.84889,-0.30536 -1.91095,-2.3248 -2.02436,-2.31971 -1.3087,-0.0436 0.887,2.82098 -1.91325,3.27795 -4.44959,0.7416 -1.30288,-1.30288 -1.65769,-1.30288 -1.65769,0 0,2.6329 -5.30825,1.98213 -6.02004,-0.7416 -0.608,-2.32659 -0.63099,-2.32659 -0.78522,0 -0.18545,2.79781 -3.7858,3.316 -4.8422,0.69798 -0.56328,-1.39595 -0.74062,-1.39595 -0.82884,0 -0.0606,0.95971 -0.96262,1.74494 -2.05031,1.74494 -1.08767,0 -2.34402,-0.78523 -2.7919,-1.74494 -0.65143,-1.39595 -1.00625,-1.39595 -1.65769,0 -1.14211,2.44738 -4.75495,2.18195 -4.75495,-0.34899 0,-1.15166 -0.62818,-2.09392 -1.39595,-2.09392 -0.76778,0 -1.23891,0.7067 -1.04697,1.57044 0.57607,2.59231 -2.64432,2.89586 -5.06032,0.47986 -1.24077,-1.24078 -2.26841,-1.56422 -2.26841,-0.7416 0,2.08305 -3.80863,1.86726 -4.66771,-0.26174 -0.56328,-1.39595 -0.74062,-1.39595 -0.82885,0 -0.0606,0.95971 -0.96262,1.74494 -2.0503,1.74494 -1.08767,0 -2.34402,-0.78523 -2.7919,-1.74494 -0.65143,-1.39595 -1.00626,-1.39595 -1.65769,0 -0.44788,0.95971 -2.01832,1.74494 -3.48988,1.74494 -1.47156,0 -2.69348,-0.78523 -2.70465,-1.74494 -0.0142,-1.16685 -0.47677,-1.05122 -1.39595,0.34899 -1.14377,1.74234 -1.55283,1.75787 -2.57378,0.17449 -1.0359,-1.60656 -1.36778,-1.60656 -2.00668,0 -0.51441,1.29351 -0.79751,1.10587 -0.87247,-0.61073 -0.0606,-1.38891 -0.6576,-2.1743 -1.35233,-1.74494 -2.46947,1.52622 -8.56045,-11.35685 -8.68106,-18.36547 -0.11908,-6.92448 1.72447,-13.41343 4.23147,-14.96284 2.01782,-1.24707 8.4445,2.3471 13.30515,7.45961 4.51907,4.75323 7.88184,5.45697 10.6005,2.18117 1.57714,-1.90034 2.22405,-1.73929 5.49655,1.39595 4.71678,4.51896 5.75348,4.44288 10.29513,-0.65435 2.05226,-2.30331 3.08575,-4.18785 2.31205,-4.18785 -0.77369,0 -1.39595,-0.86177 -1.39595,-1.91943 0,-5.00557 -9.0966,-7.22968 -11.60384,-2.83552 -1.57132,2.75387 -3.30765,2.41386 -4.14423,-0.78522 -0.52556,-2.00974 0.24442,-3.05936 2.9664,-4.05698 l 3.70799,-1.35233 -3.83886,-0.1308 c -3.4204,-0.0981 -3.83886,-0.61911 -3.83886,-4.88583 0,-3.85621 0.61163,-4.92215 3.14088,-5.4093 l 3.14089,-0.56711 -3.14089,-0.21812 c -3.53513,-0.21397 -3.96416,-1.5082 -1.39595,-4.27509 1.39595,-1.50394 1.39595,-1.70422 0,-0.9161 -1.19652,0.67553 -1.74493,-0.14247 -1.74493,-2.57378 0,-2.73211 0.88083,-3.70993 3.83886,-4.36234 6.30971,-1.39167 6.98116,-2.06052 1.39595,-1.39595 -4.98084,0.59266 -5.23481,0.42015 -5.23481,-3.40263 0,-4.29132 2.91161,-7.36217 3.96973,-4.18785 0.89778,2.69333 7.2494,8.3757 9.37904,8.3757 5.06335,0 8.30275,-9.88823 4.49321,-13.69776 -2.42011,-2.42012 -10.80333,-2.10459 -11.77833,0.43623 -0.44194,1.15166 -2.24794,2.09393 -4.01335,2.09393 -2.5226,0 -3.01669,-0.59779 -2.44292,-2.7919 0.40156,-1.53555 1.75597,-2.8238 3.01002,-2.83553 1.81167,-0.017 1.85385,-0.26792 0.34899,-1.22145 -2.70083,-1.71133 -0.99339,-2.37799 12.43268,-4.88583 9.75247,-1.82164 28.21369,-2.80251 41.3114,-2.66103 z m -20.37215,7.45961 c -2.79458,0.17215 -5.58677,2.02829 -7.02337,5.49655 -1.47396,3.55848 -1.378,4.7734 0.61073,7.8086 5.26824,8.04035 17.54911,0.15471 13.52326,-8.68106 -1.49788,-3.28751 -4.31604,-4.79624 -7.11062,-4.62409 z m -26.74117,0.1308 c -0.75905,-0.01 -1.5893,0.0847 -2.26842,0.26174 -1.35821,0.35393 -0.55838,0.66953 1.74494,0.69798 2.30332,0.0285 3.38801,-0.27198 2.44291,-0.65436 -0.47255,-0.19118 -1.16038,-0.29598 -1.91943,-0.30536 z m 101.81712,0.0436 c 1.42824,0.007 3.10065,0.12313 5.14756,0.26174 12.33149,0.83533 15.77195,2.41768 22.46608,10.42601 5.09713,6.09779 5.47093,7.14633 6.41264,18.93257 1.12624,14.09587 0.48911,16.07684 -8.15758,25.78146 -4.57855,5.13873 -6.60198,6.25128 -13.74139,7.67772 -9.36577,1.87127 -18.2291,1.13086 -18.01648,-1.52682 0.0768,-0.95971 0.23382,-3.00129 0.34899,-4.53684 0.25807,-3.4409 2.57699,-3.67535 3.44625,-0.34898 0.37657,1.44095 0.71908,0.72528 0.87247,-1.74494 0.22655,-3.64829 0.43805,-3.82814 1.4832,-1.39595 1.03382,2.40585 1.20568,2.21282 1.3087,-1.39595 0.0951,-3.33371 0.40879,-3.76078 1.57044,-2.09393 1.08541,1.55748 1.23176,0.9316 0.56711,-2.44291 -0.56497,-2.86843 -0.34198,-4.53684 0.61073,-4.53684 0.82879,0 1.52682,0.62818 1.52682,1.39595 0,0.76777 0.78522,1.37787 1.74494,1.35233 0.95971,-0.0256 0.33153,-1.21991 -1.39595,-2.66103 -3.77733,-3.15118 -3.95052,-4.23171 -0.69798,-4.36235 2.08896,-0.0839 2.03839,-0.28281 -0.34899,-1.3087 -2.58178,-1.10943 -2.52924,-1.23973 0.69798,-1.4832 3.27127,-0.24679 3.22755,-0.31375 -0.69798,-1.26508 l -4.18785,-1.00333 3.48988,-1.52683 c 3.31743,-1.44807 3.34361,-1.52996 0.43623,-1.61406 -4.10173,-0.11866 -5.27521,-2.3646 -2.22479,-4.2751 2.15594,-1.35029 2.08467,-1.4468 -0.65435,-0.69798 -1.72749,0.4723 -3.14089,0.23973 -3.14089,-0.52348 0,-0.7632 1.09931,-1.65555 2.44291,-2.00667 1.56559,-0.40914 1.09942,-0.68145 -1.26508,-0.78523 -4.21468,-0.18497 -6.48271,-4.03968 -3.14089,-5.32206 1.76478,-0.6772 1.85119,-1.05443 0.34899,-2.00667 -1.0241,-0.64918 -2.50399,-1.17784 -3.27176,-1.17784 -0.76777,0 -0.45368,0.60806 0.69798,1.35233 2.37931,1.53762 1.33479,1.80572 -2.00668,0.52348 -1.75513,-0.6735 -1.88502,-1.3001 -0.61073,-2.83552 1.31264,-1.58164 1.15185,-1.77354 -0.7416,-1.04697 -1.9488,0.74783 -2.23303,0.22894 -1.65769,-3.09726 0.65315,-3.77609 0.56011,-3.85996 -1.35233,-1.3087 -1.7861,2.3827 -2.00667,2.44287 -2.00667,0.34898 0,-1.30968 2.04157,-3.70153 4.53683,-5.27843 2.85105,-1.80176 4.87623,-2.46374 9.16093,-2.44292 z m -49.64348,0.69798 c -0.43002,0.007 -0.84631,0.0505 -1.3087,0.1308 -7.033,1.22296 -9.69735,8.055 -5.10395,13.13066 3.01022,3.32625 6.77399,3.2594 10.25151,-0.21812 5.30171,-5.30172 2.61146,-13.14312 -3.83886,-13.04341 z m 16.05343,0.61073 c 1.04535,-0.15949 3.04939,0.54757 6.80525,2.09392 2.9729,1.224 8.17074,5.12569 11.56022,8.68107 20.66515,21.67652 20.08269,41.17969 -1.26508,42.92547 -2.70121,0.22089 -6.14219,0.74941 -7.67773,1.17783 -1.53555,0.42842 -4.36234,-0.10372 -6.28178,-1.22146 -1.91943,-1.11772 -2.86169,-2.05496 -2.09392,-2.09392 0.76777,-0.0389 0.45368,-0.76413 -0.69798,-1.57045 -1.61194,-1.12857 -1.29062,-1.24521 1.39595,-0.5671 2.40514,0.60707 2.88187,0.47239 1.57045,-0.43624 -1.60656,-1.1131 -1.60656,-1.4601 0,-2.18117 1.04658,-0.46974 0.50603,-0.51579 -1.22146,-0.0873 -1.78214,0.4421 -3.14089,0.14746 -3.14089,-0.69797 0,-0.81951 0.90274,-1.4832 2.00668,-1.4832 1.15477,0 1.91113,-1.2095 1.78856,-2.83552 -0.12647,-1.67891 -0.9408,-2.54656 -2.00668,-2.13755 -0.98685,0.37869 -1.78856,0.0893 -1.78856,-0.65435 0,-0.74368 1.09931,-1.38561 2.44292,-1.43958 2.1088,-0.0847 2.05125,-0.25605 -0.30537,-1.17783 -2.70934,-1.05975 -2.70934,-1.07361 0,-2.7919 2.15652,-1.36767 2.23511,-1.60335 0.30537,-1.00334 -1.34361,0.41777 -2.44292,0.21041 -2.44292,-0.47986 0,-0.69027 1.4134,-1.54308 3.14089,-1.8758 l 3.14089,-0.56711 -3.14089,-0.21812 c -1.72749,-0.10455 -3.14089,-0.70188 -3.14089,-1.35232 0,-0.65045 1.4134,-1.90275 3.14089,-2.7919 l 3.14089,-1.61407 -3.14089,0.78522 c -1.79477,0.4568 -3.14089,0.15346 -3.14089,-0.69797 0,-0.81951 0.90034,-1.4832 2.00668,-1.4832 1.10635,0 2.44106,-0.72042 2.9664,-1.57044 0.6265,-1.0137 0.045,-1.25224 -1.70132,-0.69798 -2.08186,0.66076 -2.74703,0.12033 -2.96639,-2.53016 -0.18202,-2.19928 0.5679,-3.60211 2.13755,-4.01336 2.27461,-0.59595 2.29693,-0.63296 0,-0.78522 -1.34361,-0.0891 -2.44292,-0.77172 -2.44292,-1.48319 0,-0.71148 1.09931,-1.56831 2.44292,-1.91944 2.32658,-0.608 2.32658,-0.63099 0,-0.78522 -1.34361,-0.0891 -2.44292,-0.7972 -2.44292,-1.52682 0,-0.72962 1.09931,-2.01525 2.44292,-2.87915 2.32658,-1.49591 2.32658,-1.55224 0,-0.82884 -1.56245,0.4858 -2.44292,0.0462 -2.44292,-1.26508 0,-1.13752 0.23391,-1.79539 1.04697,-1.91943 z m 3.01001,16.79516 c -0.48495,-0.02 -1.02296,0.0602 -1.52682,0.26174 -1.11359,0.44563 -0.79736,0.76187 0.82885,0.82885 1.47155,0.0606 2.29604,-0.23412 1.83218,-0.69798 -0.23193,-0.23193 -0.64925,-0.37263 -1.13421,-0.39261 z m 30.71091,0 c -0.48496,-0.02 -1.02297,0.0602 -1.52682,0.26174 -1.11359,0.44563 -0.79737,0.76187 0.82884,0.82885 1.47156,0.0606 2.29605,-0.23412 1.83219,-0.69798 -0.23193,-0.23193 -0.64926,-0.37263 -1.13421,-0.39261 z m 17.84199,2.83553 c -0.83721,0.1733 -0.70871,1.74357 1.00333,4.18785 2.99448,4.27521 2.80623,9.19243 -0.5671,15.48632 -1.53555,2.86499 -2.7919,5.54612 -2.7919,5.93279 0,2.33539 2.70631,-0.0572 5.32206,-4.71133 3.76798,-6.70421 3.93481,-14.17074 0.39261,-18.53997 -1.46078,-1.80183 -2.70784,-2.49046 -3.359,-2.35566 z m -79.43829,1.17783 c -6.84259,0 -10.3242,7.73641 -5.7583,12.78167 2.82317,3.11957 4.53047,3.20813 8.5502,0.39261 5.14565,-3.60416 3.11094,-13.17428 -2.7919,-13.17428 z m -27.57002,1.52682 c -1.82754,0.0385 -3.8044,0.838 -5.62742,2.66103 -1.53555,1.53554 -3.89121,2.83048 -5.23482,2.87915 -1.8717,0.0678 -1.7085,0.38504 0.69798,1.35232 5.29868,2.12982 3.77084,5.11443 -3.14089,6.15091 -3.45498,0.51811 -6.28177,1.44826 -6.28177,2.0503 0,0.60205 2.98384,0.29547 6.63076,-0.65435 3.90204,-1.01627 7.15906,-1.21237 7.93947,-0.47986 2.22281,2.08639 8.02478,1.41071 9.98976,-1.17783 4.70463,-6.19756 0.50954,-12.89744 -4.97307,-12.78167 z m 71.06259,1.13421 c -4.12019,-0.0394 -7.69667,3.80272 -9.1173,10.90586 -0.70951,3.54757 -0.1803,5.09814 2.83552,8.11396 4.45321,4.45321 9.50775,3.90001 14.39574,-1.57044 4.08031,-4.56653 3.95789,-7.76944 -0.47986,-13.04341 -2.4937,-2.96359 -5.16199,-4.38237 -7.6341,-4.40597 z m 1.22145,3.5335 c 2.71275,-0.1301 4.42807,1.54978 5.7583,5.36568 1.30291,3.73753 1.10729,4.73825 -1.3087,7.15425 -2.50643,2.50642 -2.7919,2.57437 -2.7919,0.43623 0,-1.32227 -0.62818,-2.39929 -1.39595,-2.39929 -0.76778,0 -1.39595,-1.25635 -1.39595,-2.7919 0,-3.29101 -2.52434,-3.73887 -3.708,-0.65435 -0.4529,1.18025 0.29392,3.37888 1.65769,4.88582 2.20422,2.43564 2.22819,2.74828 0.21812,2.74828 -5.77315,0 -5.84562,-11.85741 -0.0873,-14.04675 1.1457,-0.43559 2.14939,-0.6546 3.05364,-0.69797 z m -127.64219,13.2179 c 1.64129,-0.1826 2.30615,0.32612 1.4832,1.65769 -0.64969,1.05122 0.10037,1.24941 2.35567,0.61073 2.22714,-0.6307 2.69172,-0.52051 1.43957,0.34899 -1.0253,0.71196 -1.65348,1.79062 -1.39595,2.35566 0.25752,0.56504 -1.40468,1.89739 -3.70799,2.9664 -3.52652,1.63671 -3.63675,1.7873 -0.69798,1.13421 1.91946,-0.42658 2.84048,-0.23352 2.0503,0.39261 -0.79017,0.62612 -1.33104,2.54761 -1.22145,4.2751 0.14805,2.33515 -0.59843,3.11315 -2.7919,3.09726 -2.41645,-0.0174 -2.54389,-0.24398 -0.82885,-1.35233 1.86126,-1.20285 1.86126,-1.37698 0,-1.48319 -1.41059,-0.0806 -1.1828,-0.50051 0.69798,-1.30871 1.84089,-0.79105 2.07865,-1.21447 0.69797,-1.26508 -1.15166,-0.0422 -3.03619,0.52082 -4.18785,1.26508 -1.86126,1.20285 -1.86126,1.37698 0,1.4832 1.41059,0.0805 1.1828,0.5005 -0.69797,1.3087 -2.7919,1.19972 -2.7919,1.19972 0,1.39595 2.7919,0.19623 2.7919,0.17466 0,1.43958 -1.99036,0.90175 -1.28901,1.06472 2.44291,0.47985 4.9221,-0.77138 5.23481,-0.63557 5.23481,2.7919 0,3.58208 -0.18137,3.66437 -9.77165,3.66437 -7.91892,0 -11.58188,0.82201 -19.49968,4.36235 -5.36688,2.39973 -9.43954,4.92123 -9.03005,5.5838 0.40949,0.66256 -0.34021,0.76731 -1.65769,0.26174 -1.6252,-0.62366 -2.08076,-0.41007 -1.39595,0.69797 1.2007,1.94278 1.29177,1.98364 -4.01336,-0.61072 -3.43789,-1.68123 -3.58285,-1.9193 -0.82885,-1.35233 1.84513,0.37987 5.14306,-0.26569 7.32874,-1.39595 4.7408,-2.45157 5.25328,-3.77296 0.82885,-2.13755 -3.40041,1.2569 -7.06852,0.56226 -6.02004,-1.13421 0.73369,-1.18713 -5.32309,-0.77617 -9.94614,0.65435 -2.24026,0.69322 -4.01993,-0.007 -6.63076,-2.6174 -5.17442,-5.17441 -4.81383,-8.39359 0.82884,-7.15425 11.4668,2.51853 23.13512,-1.23135 45.10664,-14.48298 5.66763,-3.41831 11.09316,-5.62844 13.82863,-5.93279 z m 96.27694,0.13087 c -6.19237,0 -10.03042,9.51245 -5.0167,12.43268 4.10206,2.38924 7.31735,1.7002 8.98643,-1.96305 1.95891,-4.29933 -0.38753,-10.46963 -3.96973,-10.46963 z m -47.94216,0.1745 c -0.63255,0 -1.26508,0.11167 -1.74494,0.30536 -0.95972,0.38725 -0.17449,0.69797 1.74494,0.69797 1.91943,0 2.70465,-0.31072 1.74493,-0.69797 -0.47985,-0.19363 -1.11239,-0.30536 -1.74493,-0.30536 z m 8.2012,0 c -0.75904,-0.01 -1.5893,0.0847 -2.26842,0.26174 -1.35821,0.35392 -0.55838,0.66952 1.74494,0.69797 2.30332,0.0285 3.38802,-0.27197 2.44292,-0.65435 -0.47256,-0.19119 -1.16039,-0.29598 -1.91944,-0.30536 z m 12.12732,1.35232 c -1.44444,0.15752 -2.94173,0.93819 -4.44959,2.31204 -3.33374,3.03748 -2.75323,8.00408 1.26508,10.81862 3.71641,2.60307 3.86749,2.58154 7.67773,-0.0872 3.67382,-2.57324 4.0023,-7.08929 0.78522,-10.64412 -1.63515,-1.80681 -3.42128,-2.60181 -5.27844,-2.39929 z m -69.4049,2.83553 c -1.13538,0.01 -2.2772,0.35776 -2.83552,0.91609 -0.87406,0.87406 0.0264,1.04286 2.57378,0.52348 2.92167,-0.59569 3.27151,-0.94553 1.35233,-1.35233 -0.35629,-0.0755 -0.71213,-0.0903 -1.09059,-0.0872 z m 13.34878,4.05698 c -4.10922,-0.32487 -7.32757,4.2589 -4.14423,9.1173 2.40328,3.66785 6.17508,4.38178 8.85556,1.70131 2.31849,-2.31849 2.13269,-6.06852 -0.47986,-8.68107 -1.36525,-1.36525 -2.86174,-2.02926 -4.23147,-2.13754 z m 0.62551,3.28469 c 1.84281,1.59202 2.83738,1.40735 2.32794,4.30616 -2.58157,2.06132 -3.087,1.0247 -5.39563,-0.71313 -0.47849,-2.94526 1.16141,-3.1338 3.06769,-3.59303 z m 104.55061,-1.10352 c -0.43557,0.0359 -0.84968,0.0981 -1.30871,0.21812 -2.1151,0.55311 -2.34614,1.01294 -0.91609,1.91943 2.26557,1.43614 1.86499,1.38086 4.66771,0.30536 2.81108,-1.07872 0.606,-2.69417 -2.44291,-2.44291 z m 18.84532,3.5335 c 0.13192,-0.053 0.30951,0.004 0.47986,0.17449 0.45427,0.45427 0.2525,1.82294 -0.43623,3.05364 -0.68874,1.2307 -1.69149,1.79839 -2.2248,1.26508 -1.49066,-1.49066 -1.13926,-3.54749 0.43624,-2.57378 0.76777,0.47451 1.39595,0.0685 1.39595,-0.87247 0,-0.58816 0.12926,-0.95847 0.34898,-1.04696 z m -359.500781,1.78856 c -2.30911,-0.12508 -5.59818,8.58402 -6.2817802,17.10039 l -0.69797,8.68106 6.8488802,6.4999 c 3.82156,3.64994 10.791165,8.27005 15.878929,10.51324 9.993816,4.40629 16.104127,5.49807 12.519927,2.2248 -1.124228,-1.02671 -5.505278,-3.23555 -9.728027,-4.92945 -17.411229,-6.98429 -22.891939,-13.89478 -20.895629,-26.26131 0.64244,-3.97974 1.83685,-8.49338 2.66103,-10.03339 0.94063,-1.7576 0.97217,-3.1008 0.13087,-3.62075 -0.14432,-0.0892 -0.28229,-0.16614 -0.43623,-0.17449 z m 283.639621,1.00334 c -0.48496,-0.02 -1.02298,0.0602 -1.52682,0.26174 -1.11359,0.44563 -0.79737,0.76187 0.82884,0.82884 1.47156,0.0606 2.29605,-0.23411 1.83219,-0.69797 -0.23194,-0.23194 -0.64926,-0.37264 -1.13421,-0.39261 z m 64.91168,0.87247 c 3.49098,-0.15268 4.63954,0.53865 6.67439,2.70465 1.65885,1.76576 2.72223,3.39471 2.39929,3.62074 -0.32294,0.22604 -2.88676,2.10754 -5.71467,4.18786 -2.82792,2.08031 -5.34063,3.75665 -5.58381,3.70799 -3.24832,-0.6501 -6.93695,-3.30604 -9.33541,-6.67439 -2.89988,-4.07249 -3.99992,-7.92848 -1.91943,-6.76163 0.57583,0.32295 4.65129,0.1619 9.07367,-0.34899 1.80826,-0.20889 3.24231,-0.38534 4.40597,-0.43623 z m -92.61257,1.00333 c -0.25029,0.0349 -0.49731,0.10763 -0.78522,0.21812 -1.15166,0.44193 -2.09393,1.34515 -2.09393,2.00668 0,0.66154 0.94227,0.83454 2.09393,0.39261 1.15166,-0.44193 2.09393,-1.34514 2.09393,-2.00668 0,-0.49615 -0.55784,-0.71563 -1.30871,-0.61073 z m -7.15424,0.7416 c -1.58086,0 -2.5041,0.57446 -2.0503,1.30871 0.45378,0.73424 1.75207,0.99959 2.87914,0.5671 2.88559,-1.10731 2.54178,-1.87581 -0.82884,-1.87581 z m -31.4525,1.39595 c -1.47157,0.0112 -3.6033,0.66023 -4.75496,1.43958 -1.52921,1.03483 -0.96449,1.16397 2.09393,0.47986 5.13281,-1.14813 6.23248,-1.94797 2.66103,-1.91944 z m -52.0864,3.48988 c -0.28129,0.0332 -0.5918,0.11042 -0.87246,0.21812 -1.12267,0.4308 -1.71278,1.30926 -1.30871,1.96305 0.40406,0.65379 1.66924,0.82342 2.7919,0.39261 1.12267,-0.4308 1.71278,-1.30926 1.30871,-1.96305 -0.30305,-0.49034 -1.07556,-0.71051 -1.91944,-0.61073 z m 22.29158,1.3087 c -1.47917,0 -2.32927,0.57498 -1.87581,1.30871 0.45348,0.73372 -0.11544,0.96464 -1.26507,0.52348 -1.2175,-0.4672 -2.05031,-0.003 -2.05031,1.09058 0,1.53144 0.69799,1.49484 3.92611,-0.17449 4.67535,-2.41772 4.83615,-2.74828 1.26508,-2.74828 z m 70.93172,0.91609 c -2.02413,-0.001 -4.073,0.0706 -5.71467,0.21812 -3.28333,0.29488 -0.95099,0.56208 5.19119,0.56711 6.14218,0.006 8.83526,-0.22352 5.97641,-0.52348 -1.42942,-0.14999 -3.4288,-0.26007 -5.45293,-0.26175 z m -88.99182,0.47986 c -0.21959,0.0327 -0.47465,0.14257 -0.78522,0.26174 -1.19155,0.45723 -2.18118,1.05058 -2.18118,1.35233 0,1.13059 2.67009,0.49759 3.48988,-0.82885 0.3668,-0.59347 0.13527,-0.88342 -0.52348,-0.78522 z m 197.22158,0.0872 c 1.07546,-0.0158 2.25936,0 3.57712,0 12.97581,0 17.71531,1.69713 14.26487,5.14757 -1.30288,1.30288 -1.65769,1.26133 -1.65769,-0.1745 0,-1.50321 -0.43781,-1.4728 -2.35567,0.0873 -2.08666,1.69736 -2.25546,1.61892 -1.35232,-0.78522 0.96545,-2.56998 0.90413,-2.58844 -1.57045,-0.34899 -2.8657,2.59342 -5.16108,3.16969 -3.79524,0.95971 0.47451,-0.76777 0.20236,-1.39595 -0.61073,-1.39595 -0.81308,0 -1.48319,0.62818 -1.48319,1.39595 0,0.76778 -0.9842,1.39596 -2.18117,1.39596 -1.197,0 -1.78322,-0.62818 -1.30871,-1.39596 0.47451,-0.76777 0.20236,-1.39595 -0.61073,-1.39595 -0.81308,0 -1.48319,0.62818 -1.48319,1.39595 0,0.76778 -0.67011,1.39596 -1.4832,1.39596 -0.81308,0 -1.01282,-0.78523 -0.43623,-1.74494 0.79929,-1.33043 0.57502,-1.35984 -0.95972,-0.1745 -3.05825,2.36204 -6.78387,1.88518 -5.80192,-0.74159 0.73223,-1.95877 0.52078,-2.00604 -1.87581,-0.21812 -2.61665,1.95209 -2.63011,1.92948 -0.21811,-0.69798 1.84784,-2.0129 3.81387,-2.59377 11.34209,-2.70465 z m -152.42031,1.39595 c 10.22679,-0.001 10.99889,0.44506 16.48967,9.64078 l 3.22813,5.45293 -14.87559,-0.82884 c -8.79093,-0.49783 -15.18029,-0.29766 -15.66082,0.47985 -1.01762,1.64653 -1.3252,1.59023 -9.42266,-1.26508 -6.41641,-2.26252 -6.5738,-2.45753 -4.53684,-5.36568 3.21064,-4.58383 14.03269,-8.11261 24.77811,-8.11396 z m -38.73761,0.7416 c 0.8001,-0.0369 0.52461,0.62974 -0.65436,2.0503 -1.92592,2.3206 -4.18785,2.75977 -4.18785,0.82885 0,-0.68564 0.96671,-1.62791 2.18118,-2.09393 1.28057,-0.4914 2.18096,-0.76307 2.66103,-0.78522 z m 82.97179,1.52682 c -0.48496,-0.02 -1.02299,0.0602 -1.52683,0.26174 -1.11359,0.44563 -0.79736,0.76187 0.82885,0.82884 1.47155,0.0606 2.29604,-0.23411 1.83218,-0.69797 -0.23193,-0.23194 -0.64925,-0.37264 -1.1342,-0.39261 z m -50.64682,13.87225 c 1.63347,-0.0487 3.74014,0.88009 4.71133,2.0503 0.97113,1.17022 1.46337,2.46274 1.04696,2.87915 -0.41641,0.41641 -1.20561,0.0438 -1.74493,-0.82884 -0.53934,-0.87265 -2.32081,-2.12659 -3.96974,-2.7919 l -3.01002,-1.22146 z m 33.11019,0.95972 c 42.32446,-0.16524 143.71798,0.57083 152.72567,1.22146 10.64165,0.76865 11.62409,1.09633 12.38906,4.14422 0.45593,1.81655 0.30652,37.06855 -0.30536,78.3477 -0.6119,41.27916 -1.13358,93.16057 -1.17784,115.29676 l -0.0872,40.26444 -4.58046,4.05698 c -2.50737,2.24058 -5.99442,4.1006 -7.76498,4.1006 -1.77054,0 -5.97923,0.85719 -9.37904,1.91944 -3.39981,1.06223 -10.27768,2.62543 -15.2682,3.48987 -16.31496,2.82605 -107.71469,0.68635 -138.89704,-3.27176 -13.60517,-1.72696 -12.52983,4.28824 -12.73805,-72.37129 -0.10051,-37.01151 -0.53999,-89.42158 -0.95971,-116.47459 -0.45954,-29.61993 -0.25629,-49.51054 0.52348,-49.99246 0.7122,-0.44016 1.3087,-2.94191 1.3087,-5.5838 l 0,-4.79858 10.12064,-0.21812 c 3.19258,-0.0635 8.04402,-0.10721 14.09037,-0.1308 z m -36.77456,5.93279 c 0.0251,-0.11978 0.48538,0.179 1.39595,0.87247 1.15166,0.8771 3.35028,1.9346 4.88583,2.31204 2.65178,0.65182 2.64642,0.67504 -0.1745,0.82884 -1.63347,0.0891 -3.83209,-0.92481 -4.88583,-2.26842 -0.83311,-1.06231 -1.24661,-1.62509 -1.22145,-1.74493 z m 22.3352,0.1308 c -1.39159,0 -2.78317,0.10176 -3.83886,0.26174 -2.11138,0.31984 -0.38389,0.5671 3.83886,0.5671 4.22275,0 5.95024,-0.24726 3.83886,-0.5671 -1.05568,-0.15992 -2.44726,-0.26174 -3.83886,-0.26174 z m -38.95573,2.31211 c -0.62729,0.12284 -0.3529,0.73773 1.3087,1.78856 1.12942,0.71427 2.99257,1.30827 4.14423,1.3087 1.15411,4.5e-4 0.52758,-0.81848 -1.39595,-1.83218 -1.90393,-1.00337 -3.4297,-1.38794 -4.05698,-1.26508 z m -9.20455,7.067 3.92611,3.62074 c 2.15419,1.98983 4.6,3.62075 5.45293,3.62075 1.80573,0 1.86869,0.0653 -4.49321,-4.05698 z m 50.95218,3.359 -9.07367,0.1745 10.46962,0.91609 c 15.89298,1.35552 20.07989,1.32308 13.26153,-0.0872 -3.07109,-0.63523 -9.66696,-1.09741 -14.65748,-1.00334 z m 24.95261,1.26508 c -0.75905,-0.01 -1.5893,0.0847 -2.26842,0.26174 -1.35822,0.35393 -0.55838,0.66953 1.74494,0.69798 2.30332,0.0285 3.38801,-0.27197 2.44291,-0.65435 -0.47255,-0.19119 -1.16038,-0.29599 -1.91943,-0.30537 z m -82.88454,4.71133 3.359,3.83887 c 1.86134,2.11137 4.68814,3.75343 6.28178,3.66437 2.80793,-0.15692 2.83639,-0.17434 0.1308,-0.82885 -1.53554,-0.37148 -4.36234,-2.01352 -6.28178,-3.66437 z m 60.02586,5.06032 c -7.67441,-0.0988 -10.51262,0.29153 -9.07368,1.22146 2.40497,1.55421 9.94548,1.55421 16.05343,0 3.03105,-0.77128 1.10306,-1.11732 -6.97975,-1.22146 z m 18.71445,0 c -0.48495,-0.02 -1.02298,0.0602 -1.52682,0.26174 -1.11359,0.44562 -0.79736,0.76184 0.82885,0.82885 1.47155,0.0606 2.29604,-0.2341 1.83218,-0.69798 -0.23193,-0.2319 -0.64925,-0.37264 -1.13421,-0.39261 z m -172.312594,7.19787 c -0.07576,-0.0126 -0.125915,-0.006 -0.174494,0.0436 -0.388618,0.38861 0.356372,2.33267 1.657691,4.31872 3.246831,4.95528 3.979554,4.55123 1.26508,-0.69798 -1.074491,-2.07783 -2.217975,-3.58123 -2.748277,-3.66437 z m 85.720064,0.61073 c -0.0715,0.0772 0.91411,1.12003 2.74828,2.83552 2.66787,2.49526 5.5147,4.53684 6.3254,4.53684 0.81068,0 -0.0648,-1.04051 -1.96306,-2.31204 -1.89832,-1.27153 -4.74517,-3.31311 -6.3254,-4.53684 -0.49383,-0.38242 -0.75272,-0.55857 -0.78522,-0.52348 z m -71.89143,0.39261 c -0.88703,0 0.73942,2.83169 3.40263,5.93279 3.35482,3.90645 3.51446,2.82308 0.26174,-1.74494 -1.64011,-2.30332 -3.28746,-4.18785 -3.66437,-4.18785 z m 54.61655,0.69798 2.66103,3.14088 c 1.46259,1.72749 2.87599,3.14089 3.14088,3.14089 1.11711,0 0.29063,-1.12169 -2.66103,-3.62074 z m -32.45584,1.39595 c -0.1426,0.0497 -0.2394,0.39795 -0.26175,1.00334 -0.0487,1.31689 1.84863,4.61482 4.23148,7.32873 2.38286,2.71393 4.69958,4.92945 5.14756,4.92945 0.44801,0 -0.81646,-1.72749 -2.83552,-3.83886 -2.01905,-2.11138 -4.29719,-5.40931 -5.06032,-7.32874 -0.58471,-1.47063 -0.98379,-2.17669 -1.22145,-2.09392 z m 132.52801,4.97307 c -7.82026,0.0953 -13.87464,0.7132 -13.47964,1.35232 0.67445,1.0913 25.76482,0.2032 27.09016,-0.95971 0.33733,-0.29603 -5.79025,-0.48796 -13.61052,-0.39261 z m -115.384,0.0435 c -0.74154,-0.0828 2.06786,3.32411 6.23815,7.54686 4.17029,4.22275 7.86728,7.67772 8.20121,7.67772 1.18517,0 -13.11374,-15.07652 -14.43936,-15.22458 z m -31.53975,2.6611 c -0.81308,0 -1.08524,0.62818 -0.61073,1.39595 0.47451,0.76777 1.14462,1.39595 1.4832,1.39595 0.33857,0 0.61073,-0.62818 0.61073,-1.39595 0,-0.76777 -0.67012,-1.39595 -1.4832,-1.39595 z m 60.1131,2.7919 c -0.072,0.072 0.35326,0.63791 1.22146,1.74494 1.05373,1.3436 2.15304,2.44291 2.44291,2.44291 1.14892,0 0.40587,-1.14276 -1.91943,-2.96639 -1.10703,-0.86818 -1.67288,-1.29352 -1.74494,-1.22146 z m 76.95176,5.19119 c -3.37946,0.0214 -5.75934,0.30974 -5.7583,0.7416 0.001,0.57583 6.12473,0.95169 13.61052,0.82885 14.00456,-0.22988 12.37537,-0.80625 -4.18785,-1.4832 -1.29602,-0.0529 -2.53788,-0.0944 -3.66437,-0.0873 z m -129.99786,0.39261 c -0.0721,0.072 0.35327,0.63791 1.22145,1.74494 1.05374,1.3436 2.15305,2.44291 2.44292,2.44291 1.14892,0 0.40587,-1.14276 -1.91943,-2.96639 -1.10703,-0.86818 -1.67289,-1.29352 -1.74494,-1.22146 z m 19.5433,0 c -0.072,0.072 0.35326,0.63791 1.22146,1.74494 1.05373,1.3436 2.15304,2.44291 2.44291,2.44291 1.14892,0 0.40587,-1.14276 -1.91943,-2.96639 -1.10703,-0.86818 -1.67288,-1.29352 -1.74494,-1.22146 z m 135.2763,0.1745 c -0.48496,-0.02 -1.02298,0.0602 -1.52683,0.26174 -1.11359,0.44561 -0.79736,0.76184 0.82885,0.82884 1.47156,0.0606 2.29605,-0.2341 1.83218,-0.69797 -0.23193,-0.2319 -0.64925,-0.37265 -1.1342,-0.39261 z m -114.07531,4.79858 c -0.62573,0.0205 0.72948,1.24083 4.2751,3.40262 2.49526,1.52139 5.09812,2.78911 5.80192,2.7919 1.59095,0.007 1.34465,-0.19053 -5.10395,-3.88248 -2.80506,-1.60595 -4.48638,-2.32804 -4.97307,-2.31204 z m 91.9146,7.19786 c -4.13035,0.0247 -7.02442,0.30974 -7.02338,0.7416 0.001,0.57583 7.38109,0.91435 16.40242,0.78522 16.99601,-0.24316 15.05726,-0.83226 -4.88583,-1.48319 -1.58398,-0.0516 -3.11643,-0.0518 -4.49321,-0.0436 z m 30.66728,0.56711 c -0.88555,0 -1.77112,0.0861 -2.44292,0.26174 -1.3436,0.35112 -0.24429,0.61073 2.44292,0.61073 2.6872,0 3.78651,-0.25961 2.44291,-0.61073 -0.6718,-0.17556 -1.55736,-0.26174 -2.44291,-0.26174 z m -25.25798,13.39239 c -2.37775,0.0112 -4.05698,0.30559 -4.05698,0.7416 0,0.58137 4.2402,0.97703 9.42267,0.87247 9.76443,-0.19699 8.67884,-0.80351 -2.7919,-1.52682 -0.91173,-0.0575 -1.78121,-0.0909 -2.57379,-0.0872 z m 16.75141,7.54686 c -0.48496,-0.02 -1.02298,0.0602 -1.52683,0.26174 -1.11359,0.44562 -0.79736,0.76184 0.82885,0.82885 1.47156,0.0606 2.29605,-0.23412 1.83218,-0.69798 -0.23193,-0.23191 -0.64925,-0.37265 -1.1342,-0.39261 z m -18.19098,1.39595 c -1.01206,-0.006 -2.09817,0.0512 -2.96639,0.21812 -1.73644,0.33389 -0.62818,0.63885 2.44291,0.65435 3.07103,0.0155 4.47554,-0.26134 3.14089,-0.61073 -0.66734,-0.17472 -1.60535,-0.25663 -2.61741,-0.26174 z m 37.73428,0 c -0.48496,-0.02 -1.02298,0.0602 -1.52682,0.26174 -1.11359,0.44562 -0.79737,0.76184 0.82884,0.82885 1.47156,0.0606 2.29605,-0.23412 1.83219,-0.69798 -0.23194,-0.23191 -0.64926,-0.37265 -1.13421,-0.39261 z m -35.55311,10.6005 c -4.98499,0.0201 -8.33809,0.30973 -8.07033,0.7416 0.35701,0.57582 8.62168,0.95168 18.36546,0.82884 19.38601,-0.24446 17.327,-0.87512 -4.8422,-1.4832 -1.94937,-0.0535 -3.79126,-0.0939 -5.45293,-0.0872 z m 31.49613,0.5671 c -0.63255,0 -1.26508,0.11168 -1.74494,0.30537 -0.95972,0.38725 -0.17449,0.69797 1.74494,0.69797 1.91943,0 2.70465,-0.31072 1.74494,-0.69797 -0.47986,-0.19364 -1.1124,-0.30537 -1.74494,-0.30537 z m -34.986,10.55687 c -1.36764,-0.0423 -2.1673,0.22634 -1.87581,0.69798 0.69171,1.11922 7.54685,1.67441 7.54685,0.61073 0,-0.29675 -1.83782,-0.84572 -4.1006,-1.17784 -0.56569,-0.0831 -1.11457,-0.1167 -1.57044,-0.1308 z m 34.8115,0.61073 c -1.01206,-0.006 -2.09817,0.0512 -2.96639,0.21812 -1.73644,0.3339 -0.62818,0.63886 2.44291,0.65435 3.07104,0.0155 4.47554,-0.26133 3.14089,-0.61073 -0.66733,-0.17471 -1.60534,-0.25663 -2.61741,-0.26174 z m -34.72426,9.77165 c -1.13856,0 -2.27714,0.0518 -3.14088,0.21812 -1.72749,0.33273 -0.31409,0.61073 3.14088,0.61073 3.45498,0 4.86838,-0.278 3.14089,-0.61073 -0.86374,-0.16637 -2.00232,-0.21812 -3.14089,-0.21812 z m 0.34899,8.28846 c -4.79858,-0.0606 -8.72469,0.43551 -8.72469,1.09058 0,0.65504 3.29793,0.94276 7.32874,0.61073 10.75936,-0.8863 11.30886,-1.5761 1.39595,-1.70131 z m 14.83197,0.0872 c -0.75905,-0.01 -1.5893,0.0847 -2.26842,0.26175 -1.35822,0.35392 -0.55838,0.66949 1.74494,0.69797 2.30332,0.0285 3.38801,-0.27196 2.44291,-0.65435 -0.47255,-0.19123 -1.16038,-0.29598 -1.91943,-0.30537 z m 12.73805,0 c -0.88555,0 -1.77112,0.0861 -2.44292,0.26175 -1.3436,0.35112 -0.24429,0.61072 2.44292,0.61072 2.6872,0 3.78651,-0.2596 2.44291,-0.61072 -0.6718,-0.17556 -1.55736,-0.26175 -2.44291,-0.26175 z m -31.40888,11.21123 c -4.1405,0.16056 -4.1326,0.16104 0.69797,1.17783 7.13623,1.50211 7.90814,1.50211 5.5838,0 -1.15166,-0.74426 -3.97845,-1.26717 -6.28177,-1.17783 z m -2.09393,11.12398 c -0.88555,0 -1.77111,0.0861 -2.44291,0.26174 -1.3436,0.35112 -0.24429,0.61073 2.44291,0.61073 2.68721,0 3.78652,-0.25961 2.44292,-0.61073 -0.67181,-0.17556 -1.55737,-0.26174 -2.44292,-0.26174 z m 18.14735,0 c -0.88554,0 -1.77111,0.0861 -2.44291,0.26174 -1.3436,0.35112 -0.24429,0.61073 2.44291,0.61073 2.68721,0 3.78652,-0.25961 2.44292,-0.61073 -0.6718,-0.17556 -1.55737,-0.26174 -2.44292,-0.26174 z m 23.55666,0 c -0.75904,-0.01 -1.5893,0.0847 -2.26842,0.26174 -1.35821,0.35393 -0.55838,0.6695 1.74494,0.69797 2.30332,0.0285 3.38802,-0.27196 2.44292,-0.65435 -0.47256,-0.19123 -1.16039,-0.29598 -1.91944,-0.30536 z m -37.69065,11.1676 c -1.26508,-0.003 -2.60341,0.0576 -3.66437,0.21812 -2.12193,0.32085 -0.69797,0.59956 3.14089,0.61072 3.83893,0.01 5.5558,-0.27938 3.83886,-0.61072 -0.85847,-0.16565 -2.0503,-0.21467 -3.31538,-0.21812 z m -4.14423,15.35545 c -0.48495,-0.02 -1.02298,0.0602 -1.52682,0.26174 -1.11359,0.44562 -0.79736,0.76184 0.82885,0.82885 1.47155,0.0606 2.29604,-0.23412 1.83218,-0.69798 -0.23194,-0.23191 -0.64925,-0.37265 -1.13421,-0.39261 z m -9.81527,2.61741 c -1.68743,0 -0.88809,40.19346 0.95971,47.89854 1.05846,4.41363 5.4876,7.77965 12.17094,9.33541 2.47603,0.57633 6.69184,0.83756 9.37904,0.56711 17.71419,-1.78277 20.93926,-2.27938 20.93926,-3.31538 0,-0.63798 -7.52494,-1.07712 -16.70778,-0.95972 -21.6298,0.27652 -22.59912,-0.47334 -23.51304,-17.88561 l -0.61073,-11.9092 6.10729,-0.26174 6.10728,-0.21812 -5.93279,-0.5671 c -5.70269,-0.51363 -5.93279,-0.70475 -5.93279,-5.23482 0,-4.06965 0.5239,-4.77625 3.83887,-5.27843 3.57301,-0.54127 3.52467,-0.59055 -0.69798,-0.78522 -4.32749,-0.19951 -4.53684,-0.47579 -4.53684,-5.80192 0,-3.22557 -0.65771,-5.5838 -1.57044,-5.5838 z m 16.92589,11.34209 c -0.63254,0 -1.26508,0.11168 -1.74493,0.30537 -0.95972,0.38725 -0.1745,0.69797 1.74493,0.69797 1.91944,0 2.70466,-0.31072 1.74494,-0.69797 -0.47986,-0.19362 -1.11239,-0.30537 -1.74494,-0.30537 z m 15.22459,9.77165 c -0.48496,-0.02 -1.02299,0.0602 -1.52683,0.26174 -1.11359,0.44562 -0.79736,0.76184 0.82885,0.82885 1.47155,0.0606 2.29604,-0.23412 1.83218,-0.69798 -0.23193,-0.23191 -0.64925,-0.37265 -1.1342,-0.39261 z m -12.56356,1.39595 c -0.48495,-0.02 -1.02298,0.0602 -1.52682,0.26174 -1.11359,0.44562 -0.79736,0.76184 0.82885,0.82885 1.47155,0.0606 2.29604,-0.23412 1.83218,-0.69798 -0.23193,-0.23191 -0.64925,-0.37265 -1.13421,-0.39261 z m -9.81527,11.1676 c -1.01206,-0.006 -2.09817,0.0512 -2.96639,0.21812 -1.73644,0.3339 -0.62818,0.63886 2.44291,0.65435 3.07103,0.0155 4.47554,-0.26133 3.14089,-0.61073 -0.66734,-0.17471 -1.60535,-0.25663 -2.61741,-0.26174 z m 12.56355,0 c -0.75905,-0.01 -1.5893,0.0847 -2.26842,0.26174 -1.35822,0.35393 -0.55838,0.6695 1.74494,0.69798 2.30332,0.0285 3.38801,-0.27196 2.44291,-0.65435 -0.47256,-0.19122 -1.16038,-0.29599 -1.91943,-0.30537 z m 8.5502,6.97975 c -0.88557,0 -1.77112,0.0861 -2.44292,0.26175 -1.3436,0.35112 -0.24429,0.61072 2.44292,0.61072 2.6872,0 3.78651,-0.2596 2.44291,-0.61072 -0.6718,-0.17556 -1.55735,-0.26175 -2.44291,-0.26175 z m -16.88228,1.39596 c -0.48495,-0.02 -1.02298,0.0602 -1.52682,0.26174 -1.11359,0.44561 -0.79736,0.76184 0.82885,0.82884 1.47155,0.0606 2.29604,-0.23411 1.83218,-0.69797 -0.23193,-0.23191 -0.64925,-0.37265 -1.13421,-0.39261 z m 54.57293,0 c -0.63255,0 -1.26508,0.11167 -1.74494,0.30536 -0.95971,0.38725 -0.17449,0.69797 1.74494,0.69797 1.91943,0 2.70465,-0.31072 1.74494,-0.69797 -0.47986,-0.19363 -1.11239,-0.30536 -1.74494,-0.30536 z m -33.6773,6.93612 c -1.51809,-0.003 -3.10784,0.10637 -4.36234,0.26174 -2.50901,0.31069 -0.76777,0.55873 3.83886,0.56711 4.60665,0.008 6.63446,-0.24858 4.53684,-0.56711 -1.04881,-0.15925 -2.49526,-0.25916 -4.01336,-0.26174 z m 18.14735,1.43958 c -1.26508,-0.003 -2.6034,0.0577 -3.66437,0.21811 -2.12192,0.32086 -0.69797,0.59956 3.14089,0.61073 3.83894,0.01 5.5558,-0.27938 3.83887,-0.61073 -0.85847,-0.16564 -2.05031,-0.21467 -3.31539,-0.21811 z m 18.14736,1.39595 c -0.75905,-0.01 -1.58931,0.0847 -2.26842,0.26174 -1.35822,0.35393 -0.55838,0.66949 1.74493,0.69797 2.30332,0.0285 3.38802,-0.27196 2.44292,-0.65435 -0.47256,-0.19122 -1.16039,-0.29598 -1.91943,-0.30536 z m 7.41598,1.39595 c -2.11028,0.14477 -2.11203,0.21154 0.0872,0.78522 1.35301,0.35294 2.03874,1.30926 1.52682,2.13755 -0.55799,0.90284 -0.28186,1.12906 0.69797,0.52348 2.18335,-1.34938 0.64697,-3.64924 -2.31204,-3.44625 z m -51.78102,6.19453 c -0.94624,0.0904 -1.52683,0.33565 -1.52683,0.69797 0,0.7195 2.60287,1.3087 5.80192,1.3087 6.88878,0 6.68141,-0.71365 -0.5671,-1.83218 -1.44988,-0.22374 -2.76176,-0.26494 -3.70799,-0.17449 z m 16.88227,0.82884 c -1.18477,-0.0349 -1.82554,0.0455 -1.57045,0.30536 0.43374,0.44177 4.2028,1.40178 8.3757,2.09393 9.92624,1.64647 14.38071,1.70649 9.1173,0.1308 -3.93316,-1.17741 -12.36824,-2.42535 -15.92255,-2.53016 z m 50.34145,2.66103 c -1.05454,0 -1.74494,0.42618 -1.74494,1.3087 0,0.76778 1.72749,1.3635 3.83886,1.35233 2.99144,-0.0166 3.37663,-0.29785 1.74494,-1.35233 -1.3656,-0.88252 -2.78432,-1.3087 -3.83886,-1.3087 z m -10.29513,1.4832 c -0.75905,-0.01 -1.58931,0.0847 -2.26842,0.26174 -1.35822,0.35393 -0.55838,0.6695 1.74494,0.69797 2.30331,0.0285 3.38801,-0.27196 2.44291,-0.65435 -0.47256,-0.19122 -1.16038,-0.29598 -1.91943,-0.30536 z m 31.32163,1.35232 c -4.71555,0.12341 -4.92717,0.27389 -1.83219,1.26508 4.90092,1.56955 5.31175,1.56955 6.28178,0 0.52238,-0.84523 -1.2301,-1.34939 -4.44959,-1.26508 z"
     id="path27306"
     inkscape:connector-curvature="0"
     sodipodi:nodetypes="csssssssssssssssssssssscsssssssssssccccccsssssssssssssssssssssscccsssscccsssssscccsssssscssssssssssssccssscssssssssscccscssssscscsssssssscscssssssscsccscssscssssssssssscccscccsssssssssssscssssssssssscsssssssssssscssssssssscccssssssssssssssssssssssssssssssssssssscssssssscccscccssssssssssssssssssssssscssssssssssssssssssssssssssssssssssssssssssssssscsssssssssssssssssssssssssssssssssssssssssssssssssssssssssccccssssssssssssscccsssssssssssssssscssssssssssscsssssssscsssscsssssssssssssssssssssssssssssssssssscccssssssssssssssccsscccsssscccssssssssccsssssssssssssssssccscccccscssscsccssccssssscccsccssccsssscscssccscccssssscsscssssssssssssssssssssssssssssssscccscscscsssssssssssssssssscsssscsssscssscssscscsssscsssssssssssssscsscssssssssssssssssssscsssccsssccsssccssscssscccccsssssscscsssccssscssssscssscssssscssscssscscsssccsssccssscssssssscssscscssssscscssccccssccssc" />
  <path
     style="fill:#fffa00;fill-opacity:0.68811879;stroke:none;filter:url(#filter27940)"
     d="m 217.02861,226.16525 c -3.23557,-12.12769 -5.7431,-24.49806 -4.36971,-38.16207 3.66103,-54.48777 17.84898,-27.32298 26.21822,-0.58263 0.65877,12.94378 1.79951,25.96788 -2.0392,38.16208 -8.5168,-12.56104 -11.55438,-20.25652 -19.80931,0.58262 z"
     id="path27938"
     inkscape:connector-curvature="0"
     sodipodi:nodetypes="ccccc"
     transform="matrix(1.3959502,0,0,1.3959502,-10.490221,-209.16758)" />
  <path
     style="fill:#0038ff;fill-opacity:0.38118813;stroke:none;filter:url(#filter28020)"
     d="m 218.76116,237.15702 c 0.0328,-9.44184 -2.35918,-18.88369 -4.43585,-28.32554 l 23.66909,-0.71902 c -1.25044,9.09853 -4.53907,18.19706 -0.69416,27.29559 -5.6763,-3.44412 -10.78708,-11.41247 -18.53908,1.74897 z"
     id="path27988"
     inkscape:connector-curvature="0"
     sodipodi:nodetypes="ccccc"
     transform="matrix(1.3959502,0,0,1.3959502,-10.490221,-209.16758)" />
  <path
     style="fill:#ff0015;fill-opacity:0.38118813;stroke:none;filter:url(#filter28016)"
     d="m 213.92412,215.45734 c 9.99334,-51.67999 15.92397,-28.58406 23.30508,-0.58263 -6.25179,-4.27786 -12.25551,-8.29306 -23.30508,0.58263 z"
     id="path28002"
     inkscape:connector-curvature="0"
     sodipodi:nodetypes="ccc"
     transform="matrix(1.3959502,0,0,1.3959502,-10.490221,-209.16758)" />
</svg>
