<?xml version="1.0" encoding="UTF-8" standalone="no"?>
<!-- Created with Inkscape (http://www.inkscape.org/) -->

<svg
   xmlns:dc="http://purl.org/dc/elements/1.1/"
   xmlns:cc="http://creativecommons.org/ns#"
   xmlns:rdf="http://www.w3.org/1999/02/22-rdf-syntax-ns#"
   xmlns:svg="http://www.w3.org/2000/svg"
   xmlns="http://www.w3.org/2000/svg"
   xmlns:sodipodi="http://sodipodi.sourceforge.net/DTD/sodipodi-0.dtd"
   xmlns:inkscape="http://www.inkscape.org/namespaces/inkscape"
   id="svg4515"
   version="1.1"
   inkscape:version="0.48.4 r9939"
   width="492.46191"
   height="322.19659"
   sodipodi:docname="Towel.svg">
  <metadata
     id="metadata4521">
    <rdf:RDF>
      <cc:Work
         rdf:about="">
        <dc:format>image/svg+xml</dc:format>
        <dc:type
           rdf:resource="http://purl.org/dc/dcmitype/StillImage" />
        <dc:title />
      </cc:Work>
    </rdf:RDF>
  </metadata>
  <defs
     id="defs4519" />
  <sodipodi:namedview
     pagecolor="#ffffff"
     bordercolor="#666666"
     borderopacity="1"
     objecttolerance="10"
     gridtolerance="10"
     guidetolerance="10"
     inkscape:pageopacity="0"
     inkscape:pageshadow="2"
     inkscape:window-width="1180"
     inkscape:window-height="713"
     id="namedview4517"
     showgrid="false"
     inkscape:zoom="0.7715986"
     inkscape:cx="216.88348"
     inkscape:cy="280.81127"
     inkscape:window-x="1"
     inkscape:window-y="22"
     inkscape:window-maximized="0"
     inkscape:current-layer="svg4515"
     fit-margin-top="0"
     fit-margin-left="0"
     fit-margin-right="0"
     fit-margin-bottom="0" />
  <path
     style="fill:#246fb1;fill-opacity:1;stroke:none"
     d="M 250.94833,11.122202 C 275.826,8.1979442 294.97522,-1.2730888 325.58133,2.3494452 351.54086,10.864775 366.7504,25.113432 381.48236,39.6168 l 99.64967,113.4224 c 12.49369,32.50115 6.57322,63.77471 8.91176,95.59886 L 389.58396,272.1327 c 7.7201,-37.58491 -2.81404,-63.4871 -13.77271,-89.11759 C 337.93954,119.71865 292.57549,68.409953 250.94833,11.122202 z"
     id="path5039"
     inkscape:connector-curvature="0"
     sodipodi:nodetypes="cccccccc" />
  <path
     style="fill:#246fb1;fill-opacity:1;stroke:none"
     d="M 17.581565,95.338117 C 12.914605,80.412922 6.1702084,65.671026 26.632324,48.528558 L 159.49856,19.362802 c 7.29697,3.739717 15.66949,5.328346 20.876,13.248993 44.65754,57.319922 93.12301,102.454535 133.96282,171.991205 12.8492,25.48507 19.62996,52.01643 10.43378,81.30243 l -126.38495,34.0267 c -17.7634,1.7251 -32.15971,-5.80934 -46.98925,-12.15239 C 91.075661,245.57864 36.735178,182.62993 0.70720821,117.39215 3.3461102,107.05492 5.3200062,96.052687 17.581565,95.338117 z"
     id="path5037"
     inkscape:connector-curvature="0"
     sodipodi:nodetypes="cccccccccc" />
  <path
     style="fill:#24a1b1;fill-opacity:1;stroke:none"
     d="m 155.44775,19.362802 c 4.20893,-2.50457 12.83403,-0.278834 22.40709,9.590752 22.84355,23.551091 52.89399,69.329973 85.09195,102.609256 22.23575,22.98253 37.95046,50.8753 52.10245,73.32662 10.60887,25.29593 15.58412,33.30679 11.34225,81.42107 l 64.81278,-13.77271 c 0.023,-28.64167 0.87931,-57.16426 -13.77272,-87.90235 C 341.38251,119.49927 291.51445,66.454725 247.80597,8.0205632 z"
     id="path4527"
     inkscape:connector-curvature="0"
     sodipodi:nodetypes="csscccccc" />
  <path
     style="fill:#000000"
     d="m 182.82957,321.08011 c -13.60359,-2.91983 -20.33316,-5.28988 -20.33316,-7.16104 0,-1.07069 1.33787,-1.37219 3.09418,-0.69729 5.1574,1.98185 26.88861,6.26173 31.79406,6.26173 2.52964,0 4.07207,0.5273 3.42759,1.17176 -1.87067,1.87067 -10.3168,2.07022 -17.98267,0.42484 z m 20.33317,-3.13872 c 0,-0.84817 2.98367,-2.04115 6.63038,-2.65105 3.64671,-0.60991 7.56859,-1.71828 8.71529,-2.46306 1.15724,-0.75162 2.99538,-9.99614 4.1311,-20.7763 2.36816,-22.47867 5.26639,-34.33775 4.0984,-16.77 -0.42026,6.32096 -1.61738,16.50121 -2.66028,22.62277 -1.0429,6.12157 -1.48954,11.53677 -0.99253,12.03378 1.09225,1.09225 16.45161,-2.76046 43.5113,-10.91429 21.02313,-6.33485 25.08259,-7.15533 22.23085,-4.49328 -0.92383,0.86237 -14.41002,5.3057 -29.96932,9.87403 -15.55929,4.56834 -33.34621,9.83008 -39.5265,11.69279 -12.38969,3.73418 -16.16869,4.16532 -16.16869,1.84461 z m -18.88893,-17.02294 c 0.2641,-12.97651 -0.1563,-15.91292 -2.27814,-15.91292 -1.8278,0 -3.48041,4.20881 -5.55404,14.14482 -1.62361,7.77964 -3.03841,12.95134 -3.14402,11.49266 -0.10555,-1.45869 1.01306,-8.9496 2.48588,-16.64649 l 2.67786,-13.99432 -5.77233,-4.83901 c -6.74428,-5.65379 -7.97366,-4.35452 -8.47647,8.95829 -0.16532,4.37605 -0.94067,9.94557 -1.72307,12.37671 -1.3407,4.1659 -0.44632,-21.36411 0.9065,-25.8765 0.33097,-1.10391 -1.7809,-4.28649 -4.69302,-7.0724 -2.91211,-2.78589 -7.00198,-7.82385 -9.08855,-11.19546 l -3.79378,-6.13019 -1.2431,6.07805 c -0.68371,3.34293 -1.7933,14.15027 -2.46578,24.01635 -1.19253,17.49614 -1.1198,18.01069 2.95061,20.8756 4.16618,2.93231 4.17421,2.92518 4.71698,-4.18338 0.29902,-3.91636 1.10039,-7.12067 1.78083,-7.12067 0.68044,0 0.94227,3.70781 0.58185,8.2396 -0.55708,7.00421 -0.0327,8.7092 3.49704,11.37173 2.2838,1.72267 3.57239,3.7121 2.86354,4.42095 -0.70885,0.70885 -2.80247,-0.081 -4.65249,-1.75527 -2.61207,-2.3639 -3.57098,-2.52608 -4.2915,-0.72586 -0.64279,1.60602 -0.97072,1.43422 -1.06742,-0.55925 -0.0767,-1.58261 -6.13434,-8.24274 -13.46127,-14.80031 -7.32693,-6.55756 -17.06602,-16.79957 -21.6424,-22.76001 C 108.81113,263.36074 98.783771,251.72103 91.104497,243.45515 83.425225,235.18928 69.38383,218.72336 59.901379,206.8642 50.418927,195.00505 42.173846,185.65622 41.578986,186.08901 c -0.59486,0.4328 -0.744725,0.31743 -0.333005,-0.25637 0.411721,-0.57379 -3.219748,-5.94439 -8.069933,-11.93469 C 23.01873,161.35301 8.6919807,138.29844 3.4409317,126.04824 c -4.07858559,-9.51495 -4.16211069,-9.8964 -2.1671089,-9.8964 0.7935063,0 3.3341619,4.56341 5.6459189,10.14091 4.2843753,10.33685 25.8370013,43.98335 30.8264953,48.12428 2.462647,2.0438 2.751166,0.12819 2.751166,-18.26641 0,-11.30232 0.596734,-20.55133 1.326076,-20.55338 0.729342,-0.002 0.928253,9.73612 0.442025,21.64039 -0.837072,20.49399 -0.675627,21.88001 3.038306,26.08322 l 3.922356,4.43911 0.05587,-14.88153 c 0.07178,-19.13983 1.467966,-17.95262 1.934091,1.64471 0.391139,16.44468 1.898746,20.52962 11.283881,30.5742 3.457859,3.70083 6.287015,7.34146 6.287015,8.09028 0,0.74883 2.098807,3.29039 4.664004,5.64794 l 4.664004,4.28642 -0.959548,-7.51443 c -0.573944,-4.49465 -0.245094,-7.51443 0.81833,-7.51443 1.030697,0 1.503028,3.45595 1.123894,8.22302 -0.637684,8.01793 -0.349023,8.55814 11.573974,21.65924 6.7254,7.38992 16.686229,18.95224 22.135219,25.69403 l 9.90722,12.25779 1.15749,-7.83753 1.1575,-7.83756 -0.27345,8.88528 c -0.25694,8.3494 0.17978,9.29487 7.24099,15.67662 7.17272,6.48252 7.51513,6.60109 7.52957,2.60739 0.009,-2.30119 0.82001,-13.27806 1.80379,-24.39305 1.2144,-13.72107 1.20955,-20.78817 -0.0159,-22.01286 -1.22623,-1.2263 -1.80371,-1.09111 -1.80371,0.42229 0,1.22434 -0.79564,1.73433 -1.76811,1.13332 -0.97245,-0.60101 -1.7681,-2.36623 -1.7681,-3.92271 0,-1.55649 -4.46962,-7.51592 -9.93249,-13.24317 -12.0303,-12.61252 -11.19598,-16.15454 0.98022,-4.16142 8.27839,8.1539 8.68122,8.33793 9.44304,4.31366 0.75067,-3.96536 0.80942,-3.93421 1.03655,0.54988 0.38368,7.57435 30.2277,45.37883 30.33878,38.4312 0.0221,-1.38508 1.28118,-0.002 2.79787,3.07291 1.55091,3.14457 4.6281,6.06068 7.03215,6.66406 2.35099,0.59007 4.40828,2.45006 4.57176,4.13333 0.16355,1.68326 0.82537,-1.71338 1.47087,-7.54812 l 1.17363,-10.60861 0.29723,10.96278 c 0.22651,8.35398 1.03355,11.39674 3.39142,12.78638 2.28191,1.34489 2.53188,2.19655 0.95224,3.24424 -1.17805,0.78134 -2.91508,7.75781 -3.86005,15.50324 l -1.71813,14.08261 0.32384,-15.91291 z m 15.73815,5.3043 c -0.018,-2.91737 0.60409,-7.29342 1.38268,-9.72456 l 1.41561,-4.42025 -0.0329,4.42025 c -0.0182,2.43114 -0.64033,6.80719 -1.38267,9.72456 l -1.34971,5.30431 -0.0329,-5.30431 z m 28.70407,-11.49266 c 3.36756,-11.78232 4.7279,-25.47875 4.16093,-41.8936 -0.55688,-16.12284 -1.06972,-18.50025 -4.86143,-22.53633 -2.33139,-2.48164 -3.84623,-4.90473 -3.36631,-5.38467 0.47992,-0.47991 3.14487,1.49919 5.92211,4.39801 4.54979,4.74895 5.12635,6.73393 5.82558,20.05602 0.98253,18.71947 -2.20754,43.44006 -6.07555,47.08072 -2.61177,2.45828 -2.75555,2.30423 -1.60533,-1.72015 z m 84.84896,-6.06789 c 1.88766,-1.52494 5.19489,-2.77261 7.34943,-2.77261 3.68409,0 3.99312,-1.01113 5.19058,-16.9832 1.64761,-21.97589 0.50388,-30.14758 -6.77924,-48.43656 -8.38893,-21.06583 -11.89882,-27.48204 -26.33694,-48.14474 -15.4731,-22.14391 -26.09281,-35.24993 -42.68464,-52.678 -14.03974,-14.74736 -36.98677,-42.38507 -54.2827,-65.378799 -6.21761,-8.265874 -12.72391,-16.571271 -14.45845,-18.456434 -1.73454,-1.885166 -3.15371,-3.994601 -3.15371,-4.687635 0,-1.638705 -10.37693,-7.747764 -15.38266,-9.056009 -4.68911,-1.225496 -27.03332,2.825387 -36.55501,6.627223 -3.76809,1.504532 -7.27174,2.314841 -7.7859,1.800684 -3.09904,-3.099051 43.60575,-15.082508 58.89048,-15.110043 4.8903,-0.0088 20.00757,-1.594865 33.59392,-3.524565 13.58636,-1.9297008 29.07852,-3.5235338 34.42702,-3.5418518 5.34851,-0.01832 16.48755,-1.169313 24.75342,-2.557771 23.84458,-4.005282 38.30656,-5.201664 36.20526,-2.995112 -0.99491,1.044739 -13.43268,3.27859 -27.63946,4.964114 l -25.83051,3.0645878 4.15859,6.587655 c 4.60446,7.293925 21.86491,30.183432 39.14718,51.914019 24.88518,31.290427 29.58865,37.784997 28.29864,39.075007 -0.47148,0.47146 -3.73216,-2.95585 -7.24596,-7.61624 -3.5138,-4.660403 -10.17675,-13.346361 -14.80654,-19.302122 -18.81543,-24.204159 -29.92363,-38.941023 -32.90858,-43.658667 -1.7332,-2.739276 -4.56685,-6.396075 -6.29699,-8.126219 -1.73014,-1.730146 -5.72023,-6.887639 -8.86685,-11.461097 -5.57136,-8.097692 -5.91405,-8.2894818 -13.09098,-7.326243 -4.05343,0.544022 -15.72416,2.131529 -25.93494,3.527795 -10.21079,1.396266 -25.61632,3.080816 -34.23451,3.743446 l -15.66944,1.204781 5.22316,3.307083 c 5.82131,3.685788 14.78872,13.890719 33.18813,37.768146 16.25479,21.094298 36.1096,44.728677 50.49982,60.112957 18.12757,19.37981 26.45361,30.00658 43.92871,56.06746 27.01833,40.29281 35.10571,65.74853 30.64498,96.45761 -0.88286,6.07785 -1.51605,11.05063 -1.40712,11.05063 1.81727,0 60.27454,-12.72976 60.78043,-13.23567 0.39234,-0.39234 0.78454,-10.10624 0.87153,-21.58643 0.16868,-22.24645 -1.0392,-28.5922 -9.63387,-50.61625 -5.72234,-14.66363 -5.83148,-20.30909 -0.17168,-8.88439 10.38805,20.96934 15.228,45.19882 13.38465,67.00559 l -1.15563,13.67114 6.91091,-1.29588 c 3.80099,-0.71272 12.87824,-3.24064 20.17166,-5.61761 7.29342,-2.37696 22.01287,-5.86712 32.70988,-7.7559 20.3873,-3.59978 30.29873,-6.07636 34.09341,-8.5189 2.53709,-1.63308 3.5344,-41.38675 1.47121,-58.64317 -0.93775,-7.84312 -0.79042,-8.86937 0.76146,-5.30431 2.68959,6.1786 5.58416,43.29073 4.19467,53.78073 -0.63339,4.7818 -2.45105,10.07137 -4.03923,11.75464 -3.74868,3.97312 -17.90716,8.08818 -36.10826,10.49462 -7.98494,1.05572 -20.48541,3.83088 -27.77883,6.16701 -18.6847,5.98487 -24.28739,7.33384 -66.19873,15.93896 -20.47937,4.20476 -39.62214,8.16569 -42.53951,8.80209 -5.04116,1.09965 -5.13404,1.0195 -1.87219,-1.61555 z m -102.08524,-7.19287 c 0.56192,-4.86228 1.3074,-9.17202 1.65664,-9.57722 1.32178,-1.53356 0.31785,11.50353 -1.14594,14.88153 -0.98586,2.27501 -1.16799,0.38323 -0.5107,-5.30431 z M 152.298,278.81718 c 0,-3.4036 0.36387,-4.79598 0.80861,-3.09418 0.44471,1.7018 0.44471,4.48656 0,6.18836 -0.44474,1.70179 -0.80861,0.30941 -0.80861,-3.09418 z m 53.68235,-2.44576 c 1.00529,-2.61974 -3.25219,-14.13691 -6.83364,-18.48605 -1.8192,-2.20912 -2.36546,-1.51261 -3.36042,4.28466 l -1.18811,6.92259 0.45661,-7.95645 c 0.32942,-5.74011 -0.57092,-9.43403 -3.23214,-13.26077 l -3.68877,-5.3043 -1.04831,8.84051 -1.04829,8.8405 -0.27779,-10.20449 c -0.21174,-7.77886 -1.39556,-11.89357 -4.98023,-17.3104 -5.43691,-8.21571 -7.1814,-7.43421 -8.13777,3.64553 -0.554,6.41829 -0.74649,5.70879 -0.99567,-3.67003 -0.2606,-9.80857 -0.9826,-12.25938 -4.61756,-15.67424 l -4.30865,-4.04779 -0.68674,7.7178 c -0.63376,7.12218 -0.7106,6.95173 -0.99566,-2.20873 -0.29341,-9.42889 -0.79046,-10.43576 -9.91516,-20.08517 l -9.60625,-10.15868 -0.70514,6.82443 c -0.66533,6.43932 -0.7219,6.34662 -1.00233,-1.64251 -0.25461,-7.25286 -1.30896,-9.53465 -7.35282,-15.91292 -5.86729,-6.19192 -7.35709,-6.99929 -8.84585,-4.79382 -1.4668,2.17293 -1.70945,1.99971 -1.34291,-0.95871 0.24605,-1.98599 -1.54175,-6.30419 -3.97289,-9.596 -5.77596,-7.82078 -25.150336,-28.53597 -25.945363,-27.74092 -0.339528,0.33951 -1.365699,6.50907 -2.280373,13.71013 l -1.663076,13.09285 0.857582,-14.78597 c 0.816916,-14.08513 0.62437,-15.09079 -4.06269,-21.21721 l -4.920255,-6.43127 -0.991958,15.91291 -0.991958,15.91292 -0.373423,-17.68102 c -0.301585,-14.27859 -1.020619,-18.52327 -3.7366,-22.05786 l -3.363141,-4.37687 -0.988545,4.37687 c -0.543691,2.40727 -1.265766,7.55943 -1.604605,11.44925 -0.338839,3.88982 -0.749835,0.64704 -0.913296,-7.20621 -0.26525,-12.74207 -0.772907,-14.72551 -4.717489,-18.431263 l -4.420253,-4.1526 -0.342411,15.779093 -0.342428,15.77908 -0.983648,-17.39622 -0.983665,-17.396253 -5.74633,-2.409548 c -5.170812,-2.168223 -5.757557,-2.108213 -5.858392,0.599281 -0.08204,2.203407 -0.540119,1.943907 -1.711133,-0.969415 -0.900865,-2.241228 -3.122361,-3.978228 -5.087889,-3.978228 -3.816606,0 -6.589643,-3.057507 -4.516562,-4.979906 0.716736,-0.664643 1.658356,-0.213885 2.092495,1.001685 0.43414,1.215562 2.314321,2.210119 4.178201,2.210119 3.846169,0 4.613648,-5.140366 1.267127,-8.486879 -1.650222,-1.650228 -1.650222,-2.121722 0,-2.121722 1.371428,0 2.221797,-3.595176 2.404689,-10.166583 0.173804,-6.24723 0.557942,-7.950459 0.996237,-4.418086 0.620073,4.997425 1.146614,5.516579 4.02998,3.973447 3.997713,-2.139509 4.772866,-1.06817 6.520263,9.011765 l 1.350052,7.787812 1.115813,-7.072406 c 0.919873,-5.830562 1.159857,-4.879649 1.366707,5.415534 0.228298,11.363017 0.720926,12.938254 5.468773,17.48698 l 5.217862,4.99902 0.624193,-12.18266 0.624175,-12.182671 0.3463,14.399853 c 0.31916,13.271021 0.754803,14.837151 5.557338,19.978271 2.866057,3.06814 5.25043,6.13595 5.298593,6.81738 0.158068,2.23548 7.239739,10.96348 8.895548,10.96348 0.890062,0 1.927673,-3.38149 2.305817,-7.51443 0.518531,-5.66736 0.660934,-5.08847 0.579336,2.3551 -0.107678,9.82578 -0.06135,9.91319 10.459982,19.73349 l 10.56817,9.86398 1.11689,-4.70464 c 0.99679,-4.19876 1.13937,-4.01276 1.32608,1.72988 0.1151,3.53896 1.70268,8.27887 3.52805,10.53312 l 3.31887,4.09863 1.30047,-7.88098 c 0.71527,-4.33453 2.05676,-9.07445 2.98109,-10.53313 1.2379,-1.95351 1.44062,-1.48774 0.76952,1.7681 -3.83226,18.59222 -3.74672,19.26402 3.38271,26.56522 3.69618,3.78524 7.38671,6.47044 8.20113,5.9671 0.81443,-0.50335 1.48077,0.59792 1.48077,2.44726 0,1.84935 4.37605,7.95335 9.72456,13.56445 l 9.72456,10.20204 0.12429,-11.24999 c 0.0684,-6.18749 0.71685,-12.76027 1.44111,-14.60615 0.72425,-1.84588 0.97242,3.84759 0.55147,12.65215 -0.74062,15.4906 -0.6014,16.21473 4.30522,22.39177 l 5.07058,6.38348 1.06053,-7.54297 1.0605,-7.54295 0.26557,8.60708 c 0.20899,6.77386 1.37062,9.86569 5.45382,14.5162 4.25695,4.8484 5.33097,5.36637 5.98325,2.88558 0.49277,-1.87413 0.87297,-1.26577 1.00009,1.60029 0.17452,3.93272 5.32027,12.73118 9.18768,15.70933 0.6314,0.48623 3.6425,5.32445 6.69132,10.75158 5.31389,9.45913 7.4252,21.07425 3.8307,21.07425 -0.94192,0 -1.29027,-1.10059 -0.77407,-2.44576 z M 56.410315,82.368755 c 0,-0.86842 -0.720978,-1.57895 -1.602182,-1.57895 -0.881204,0 -2.14934,-3.978221 -2.818071,-8.8405 -1.640215,-11.925775 -5.259854,-11.770794 -3.846275,0.164681 0.883344,7.458536 0.621983,8.834595 -1.521822,8.01195 -4.209532,-1.615348 -2.948486,1.729133 1.389869,3.686173 4.218672,1.903043 8.398481,1.184699 8.398481,-1.443371 z M 192.69372,274.24959 c 0.0849,-2.05975 0.50381,-2.4787 1.06822,-1.06823 0.51075,1.27634 0.44795,2.80132 -0.1395,3.38886 -0.58754,0.58753 -1.00542,-0.45677 -0.92865,-2.32063 z m 21.48783,-9.57722 c 0,-3.4036 0.36387,-4.79598 0.8086,-3.09418 0.44472,1.7018 0.44472,4.48656 0,6.18836 -0.44473,1.70179 -0.8086,0.30941 -0.8086,-3.09418 z m -88.60608,-10.75595 c 0.1151,-3.32256 0.85716,-8.42795 1.64913,-11.34532 0.94687,-3.48795 1.10216,-1.67162 0.4535,5.3043 -1.08721,11.69211 -2.43213,15.55619 -2.10263,6.04102 z m 44.4749,-1.62076 c 0,-4.37605 0.34482,-6.16626 0.76624,-3.97823 0.42145,2.18803 0.42145,5.76843 0,7.95646 -0.42142,2.18802 -0.76624,0.39782 -0.76624,-3.97823 z m -10.56034,-7.07241 c 0,-5.3485 0.33147,-7.53653 0.73658,-4.86228 0.40512,2.67426 0.40512,7.05031 0,9.72456 -0.40511,2.67425 -0.73658,0.48623 -0.73658,-4.86228 z m 56.18901,0.73672 c 0.0849,-2.05975 0.5038,-2.4787 1.06822,-1.06824 0.51075,1.27634 0.44795,2.80133 -0.13951,3.38887 -0.58754,0.58752 -1.00541,-0.45677 -0.92864,-2.32063 z m -106.08609,-1.7681 c 0.0849,-2.05975 0.5038,-2.47871 1.06823,-1.06824 0.51075,1.27634 0.44793,2.80133 -0.1395,3.38887 -0.58754,0.58752 -1.00541,-0.45677 -0.92864,-2.32063 z m 49.36726,-12.22938 c 0,-1.45868 0.77068,-2.65215 1.71261,-2.65215 0.94192,0 1.25463,1.19347 0.69489,2.65215 -0.55977,1.45869 -1.33043,2.65215 -1.71262,2.65215 -0.38218,0 -0.69488,-1.19346 -0.69488,-2.65215 z m 41.21421,-12.37671 c 0.0106,-5.83473 0.34,-8.00851 0.73351,-4.83061 0.39351,3.1779 0.3854,7.95177 -0.018,10.60861 -0.40345,2.65684 -0.7254,0.0567 -0.71548,-5.778 z M 88.570471,209.30296 c -0.183882,-7.60046 0.433839,-15.25434 1.372684,-17.0086 1.845367,-3.4481 -0.856628,-7.38784 -25.579194,-37.29666 -6.808747,-8.23707 -13.916108,-17.76125 -15.794132,-21.16485 -1.878024,-3.40359 -5.457157,-8.77974 -7.953628,-11.94697 -4.461149,-5.65982 -4.561242,-5.69016 -5.832277,-1.7681 -1.146666,3.53829 -1.22784,3.45676 -0.716328,-0.71943 0.398795,-3.25592 -1.248846,-7.01711 -5.337156,-12.18351 -3.252723,-4.11046 -5.914051,-8.664473 -5.914051,-10.120013 0,-2.8424 3.740064,1.59895 19.948144,23.688583 19.858502,27.06475 25.355529,34.17474 46.859055,60.6088 11.946332,14.6855 20.959042,26.70091 20.028252,26.70091 -0.9308,0 -5.27615,-4.09683 -9.656359,-9.10406 l -7.964004,-9.10406 -1.01802,6.00989 c -0.559905,3.30543 -1.263415,10.78375 -1.563338,16.61849 -0.489887,9.5299 -0.579318,9.20348 -0.879648,-3.21042 z m 49.702359,2.32637 c 0,-5.34851 0.33144,-7.53654 0.73658,-4.86228 0.40511,2.67425 0.40511,7.0503 0,9.72455 -0.40514,2.67426 -0.73658,0.48623 -0.73658,-4.86227 z M 69.292738,198.36856 c 0.01238,-4.86227 0.356643,-6.64153 0.763042,-3.95391 0.406415,2.68762 0.395559,6.66585 -0.02405,8.84051 -0.419676,2.17465 -0.752185,-0.0242 -0.738907,-4.8866 z m 7.072405,0 c 0.01238,-4.86227 0.356644,-6.64153 0.763042,-3.95391 0.406416,2.68762 0.39556,6.66585 -0.02405,8.84051 -0.419676,2.17465 -0.752186,-0.0242 -0.738907,-4.8866 z M 189.98112,182.83415 c -12.15223,-10.6398 -32.42053,-31.59303 -36.38472,-37.61425 -1.49141,-2.26531 -6.46419,-6.98403 -11.05063,-10.48604 -4.58645,-3.50201 -8.33899,-7.26518 -8.33899,-8.36261 0,-2.6565 5.80619,2.54181 30.05773,26.91088 11.18324,11.23746 24.5103,24.22072 29.6157,28.85171 5.10539,4.63098 9.28253,8.78591 9.28253,9.23317 0,2.19525 -3.56232,-0.11069 -13.18162,-8.53286 z m -67.74084,-1.26255 c 0,-3.40359 0.36386,-4.79597 0.80859,-3.09418 0.44473,1.7018 0.44473,4.48656 0,6.18836 -0.44473,1.7018 -0.80859,0.30942 -0.80859,-3.09418 z m -62.014578,-3.5362 c 0,-2.43114 0.401305,-3.4257 0.891795,-2.21013 0.490506,1.21557 0.490506,3.20469 0,4.42026 -0.49049,1.21557 -0.891795,0.22101 -0.891795,-2.21013 z m 53.174078,-7.07241 c 0,-3.40359 0.36385,-4.79597 0.80859,-3.09417 0.44473,1.70179 0.44473,4.48655 0,6.18835 -0.44474,1.7018 -0.80859,0.30942 -0.80859,-3.09418 z m 251.9654,-6.03957 c -3.28541,-6.90256 -12.88629,-20.44557 -25.53637,-36.02164 -4.17707,-5.14324 -7.59467,-9.85689 -7.59467,-10.47479 0,-2.19032 9.48017,7.62703 19.76251,20.46537 11.46255,14.31198 17.87183,25.52917 17.02956,29.80435 -0.33601,1.70549 -1.74402,0.25431 -3.66103,-3.77329 z m 118.09399,0.73527 c -1.92325,-8.73656 -4.89153,-13.99759 -15.01256,-26.60865 -10.87246,-13.54733 -19.18019,-20.21074 -10.83486,-8.69034 3.01762,4.16572 5.09436,7.96627 4.61496,8.44567 -0.81966,0.81966 -2.27171,-0.79701 -13.29787,-14.80514 -23.49241,-29.845863 -41.78303,-51.773833 -53.2114,-63.793192 -7.52766,-7.916931 -14.89269,-16.669033 -16.36674,-19.449116 -2.89464,-5.459349 -9.21437,-11.663148 -18.48672,-18.147627 -3.21646,-2.249391 -5.44633,-4.491584 -4.95526,-4.982651 2.44703,-2.447033 22.47381,14.710915 29.54917,25.31627 1.35929,2.037467 8.9677,10.789569 16.90757,19.449116 7.93986,8.659545 20.38984,23.164867 27.6666,32.234047 7.27678,9.069173 18.46359,20.805923 24.85959,26.081653 18.42077,15.1943 33.87143,39.74905 30.72754,48.83329 -0.43876,1.26777 -1.41077,-0.47974 -2.16002,-3.88333 z m -421.465367,-1.7681 c 0,-2.43114 0.401306,-3.4257 0.891795,-2.21013 0.490507,1.21557 0.490507,3.20468 0,4.42025 -0.490489,1.21557 -0.891795,0.22102 -0.891795,-2.21012 z m -28.158589,-3.53621 c 0,-3.40359 0.363858,-4.79597 0.808588,-3.09417 0.444731,1.70179 0.444731,4.48655 0,6.18835 -0.44473,1.7018 -0.808588,0.30942 -0.808588,-3.09418 z m 44.071502,-5.30431 c 0,-2.43113 0.401306,-3.42569 0.891795,-2.21012 0.490506,1.21557 0.490506,3.20469 0,4.42026 -0.490489,1.21557 -0.891795,0.22101 -0.891795,-2.21014 z M 12.347372,118.65665 c 0.08487,-2.05973 0.503802,-2.4787 1.068233,-1.06823 0.510752,1.27636 0.447931,2.80134 -0.139503,3.38887 -0.58754,0.58752 -1.005413,-0.45676 -0.928642,-2.32064 z M 3.4210406,105.1012 c -0.06206,-3.56898 5.9672711,-10.185273 9.2287644,-10.127263 1.21557,0.0216 0.523588,1.41401 -1.537753,3.09418 -2.0613413,1.68017 -4.6230019,4.646153 -5.6925618,6.591063 -1.691684,3.07616 -1.9516833,3.13366 -1.9984496,0.44202 z m 37.3555454,-3.09417 c 0,-2.431143 0.401306,-3.425703 0.891795,-2.210133 0.490507,1.215573 0.490507,3.204683 0,4.420253 -0.490489,1.21557 -0.891795,0.22101 -0.891795,-2.21012 z m 39.184982,-8.840513 c 0,-6.320964 0.320893,-8.906813 0.71311,-5.746331 0.392201,3.160481 0.392201,8.332181 0,11.492661 -0.392217,3.160483 -0.71311,0.57463 -0.71311,-5.74633 z m 13.718469,7.809123 c 0.08487,-2.059733 0.503803,-2.478703 1.068234,-1.068243 0.510751,1.276363 0.447931,2.801353 -0.139504,3.388873 -0.58754,0.58752 -1.005413,-0.45675 -0.928642,-2.32063 z M 15.21281,89.341707 c -3.993328,-6.390398 -5.048,-19.419436 -2.041132,-25.2152 1.414764,-2.726968 2.572305,-5.911016 2.572305,-7.075663 0,-3.674751 9.495659,-9.323248 19.156159,-11.395055 11.249138,-2.412508 11.370183,-2.416671 10.091032,-0.346959 -0.560577,0.90703 -5.384417,2.555357 -10.719645,3.662947 -7.812551,1.621878 -10.618475,3.217441 -14.417683,8.198464 -5.720533,7.500003 -7.221174,21.446202 -3.179435,29.548061 3.19678,6.408095 2.115834,8.348265 -1.461601,2.623405 z M 28.738503,66.645001 c 0,-8.265874 0.304555,-11.647368 0.676811,-7.514431 0.372239,4.132937 0.372239,10.895925 0,15.028862 -0.372256,4.132937 -0.676811,0.751443 -0.676811,-7.514431 z m 41.50634,0.576088 c 0.754484,-3.700564 1.199108,-4.145174 1.714351,-1.714356 0.382617,1.805092 -0.07585,4.053445 -1.018692,4.99634 -1.107079,1.107073 -1.353499,-0.05552 -0.695659,-3.281984 z m 14.757741,-3.137045 c -2.26469,-3.311636 -7.722731,-7.715761 -12.128981,-9.786943 -4.40625,-2.071185 -7.567633,-4.209516 -7.025304,-4.751851 0.54233,-0.542335 4.602439,0.764596 9.022463,2.904292 7.852386,3.801273 15.988446,12.552403 14.830216,15.951334 -0.319426,0.937378 -2.433704,-1.005196 -4.698394,-4.316832 z M 52.078467,43.942628 C 55.99833,40.476769 105.1463,28.685789 110.46535,29.935163 c 4.31349,1.013179 2.00411,1.923031 -12.504649,4.926583 -5.834737,1.207886 -18.311433,4.07938 -27.72599,6.381098 C 51.359734,45.857491 49.62024,46.11615 52.078467,43.942628 z M 336.6544,8.6850702 c -5.83474,-2.41052 -14.18902,-4.933781 -18.56507,-5.607245 -7.59608,-1.16902 -7.73003,-1.288985 -2.95734,-2.6486 3.74876,-1.067927 7.99484,-0.21814 16.97646,3.397574 13.25685,5.336788 17.23561,7.4591218 15.9874,8.5279088 -0.45806,0.39222 -5.60672,-1.259118 -11.44145,-3.6696378 z"
     id="path4525"
     inkscape:connector-curvature="0" />
</svg>
