<?xml version="1.0" encoding="UTF-8" standalone="no"?>
<!-- Created with Inkscape (http://www.inkscape.org/) -->

<svg
   xmlns:dc="http://purl.org/dc/elements/1.1/"
   xmlns:cc="http://creativecommons.org/ns#"
   xmlns:rdf="http://www.w3.org/1999/02/22-rdf-syntax-ns#"
   xmlns:svg="http://www.w3.org/2000/svg"
   xmlns="http://www.w3.org/2000/svg"
   xmlns:xlink="http://www.w3.org/1999/xlink"
   xmlns:sodipodi="http://sodipodi.sourceforge.net/DTD/sodipodi-0.dtd"
   xmlns:inkscape="http://www.inkscape.org/namespaces/inkscape"
   id="svg3906"
   version="1.1"
   inkscape:version="0.48.4 r9939"
   width="491.41754"
   height="407.27234"
   sodipodi:docname="Toy.svg">
  <metadata
     id="metadata3912">
    <rdf:RDF>
      <cc:Work
         rdf:about="">
        <dc:format>image/svg+xml</dc:format>
        <dc:type
           rdf:resource="http://purl.org/dc/dcmitype/StillImage" />
        <dc:title />
      </cc:Work>
    </rdf:RDF>
  </metadata>
  <defs
     id="defs3910">
    <linearGradient
       inkscape:collect="always"
       id="linearGradient4432">
      <stop
         style="stop-color:#ffffff;stop-opacity:1;"
         offset="0"
         id="stop4434" />
      <stop
         style="stop-color:#ffffff;stop-opacity:0;"
         offset="1"
         id="stop4436" />
    </linearGradient>
    <radialGradient
       inkscape:collect="always"
       xlink:href="#linearGradient4432"
       id="radialGradient4438"
       cx="93.474899"
       cy="116.75101"
       fx="93.474899"
       fy="116.75101"
       r="28.930824"
       gradientTransform="matrix(1,0,0,0.79254656,-7.9819173,17.065287)"
       gradientUnits="userSpaceOnUse" />
    <filter
       inkscape:collect="always"
       id="filter4440"
       x="-0.14834867"
       width="1.2966974"
       y="-0.18717977"
       height="1.3743595"
       color-interpolation-filters="sRGB">
      <feGaussianBlur
         inkscape:collect="always"
         stdDeviation="3.5765414"
         id="feGaussianBlur4442" />
    </filter>
  </defs>
  <sodipodi:namedview
     pagecolor="#ffffff"
     bordercolor="#666666"
     borderopacity="1"
     objecttolerance="10"
     gridtolerance="10"
     guidetolerance="10"
     inkscape:pageopacity="0"
     inkscape:pageshadow="2"
     inkscape:window-width="1270"
     inkscape:window-height="734"
     id="namedview3908"
     showgrid="false"
     inkscape:zoom="1.0022655"
     inkscape:cx="181.61241"
     inkscape:cy="195.14149"
     inkscape:window-x="-3"
     inkscape:window-y="22"
     inkscape:window-maximized="0"
     inkscape:current-layer="svg3906"
     fit-margin-top="0"
     fit-margin-left="0"
     fit-margin-right="0"
     fit-margin-bottom="0" />
  <path
     style="fill:#824475;fill-opacity:1;stroke:none"
     d="M 0.87266378,149.58337 C 15.287628,90.841028 41.968053,55.04696 94.64106,67.884177 159.03381,83.858056 163.5534,138.44795 151.73766,174.65017 137.31762,220.65633 82.649283,224.62863 59.334395,221.23192 29.927151,216.94763 9.7109422,189.8046 0.87266378,149.58337 z"
     id="path4428"
     inkscape:connector-curvature="0"
     sodipodi:nodetypes="cccsc" />
  <path
     style="fill:#826a44;fill-opacity:1;stroke:none"
     d="m 253.35439,118.14283 c 21.59068,-26.332232 38.26749,-59.547735 64.66307,-81.075035 l 20.35083,15.098992 c 1.22227,38.227761 20.56854,51.535023 34.79333,71.884333 l 34.79332,-42.014588 c 30.11983,-17.992401 26.05483,1.175664 26.91559,14.114276 l -34.79332,47.922882 c 14.21066,6.33298 43.54895,25.88271 72.21257,14.44252 l 17.7249,17.72491 c -17.25593,23.41437 -35.72752,46.82876 -57.77006,70.24314 -10.33431,-2.46686 -21.45419,-10.51666 -21.00729,-17.39667 -9.18662,-22.35665 -14.98638,-46.34402 -35.28568,-63.35012 -35.72693,60.09442 -66.46747,117.2377 -59.90361,152.30288 -2.20559,6.1098 -8.76193,7.86884 -17.06843,7.87773 -19.25669,26.36854 -34.95375,55.11014 -57.77006,79.10559 -24.84984,4.89322 -94.30603,-40.74014 -87.6398,-58.75478 2.28247,-7.26443 6.15001,-12.30975 12.80133,-13.45779 16.34253,-22.00937 32.39748,-44.09063 45.29697,-66.96075 -1.70702,-11.39982 -1.63942,-19.87135 13.12956,-17.39666 46.14287,-23.84097 90.23711,-53.00837 127.68495,-99.45641 -27.44295,-16.70578 -54.88069,-19.11565 -79.76206,-16.0837 z"
     id="path3918"
     inkscape:connector-curvature="0"
     sodipodi:nodetypes="cccccccccccccccccccccc" />
  <path
     style="fill:url(#radialGradient4438);fill-opacity:1;stroke:none;filter:url(#filter4440)"
     d="m 55.8666,123.1216 c 0.705508,-46.916297 35.980934,-40.919477 35.980934,-40.919477 9.171606,2.93962 24.688576,9.84612 16.932196,39.508457 -13.843336,16.28019 -28.020433,31.16978 -52.91313,1.41102 z"
     id="path4430"
     inkscape:connector-curvature="0"
     sodipodi:nodetypes="cccc"
     transform="matrix(1.3159303,0,0,1.3159303,-5.626136,-13.81502)" />
  <path
     style="fill:#000000"
     d="m 191.24412,302.00825 c -7.17074,10.98781 -21.79975,28.95047 -23.57761,28.95047 -1.43671,0 1.52512,-4.6268 11.5955,-18.11377 4.34257,-5.81587 12.04076,-16.9109 17.1071,-24.65561 15.57714,-23.8122 14.38026,-21.18861 12.80554,-28.07015 -1.15769,-5.05911 -1.02846,-6.73796 0.7505,-9.74948 2.00288,-3.39061 2.59063,-3.58749 8.64404,-2.89536 3.57227,0.40844 6.84856,0.20401 7.28068,-0.45427 0.90341,-1.3763 32.32073,-20.39433 50.13302,-30.34732 13.76987,-7.69419 32.15239,-22.9601 52.9987,-44.01317 16.5006,-16.66427 21.72904,-22.70933 20.7068,-23.94106 -2.84296,-3.42556 -18.0625,-9.00557 -32.62962,-11.96315 -17.85259,-3.62464 -39.3688,-4.63239 -41.04368,-1.92237 -0.86958,1.407 -2.26027,1.05767 -6.81307,-1.71134 -7.29085,-4.43431 -17.70921,-13.66303 -16.63593,-14.73632 1.23034,-1.23035 5.58967,1.46305 12.95393,8.00356 3.63161,3.22538 7.16124,5.86433 7.84363,5.86433 0.68237,0 4.62503,-4.5893 8.76145,-10.19846 15.75555,-21.36516 17.82862,-23.889142 26.86874,-32.713074 5.10944,-4.987242 13.71673,-14.931739 19.1273,-22.098883 l 9.83741,-13.031173 -4.08473,-4.214376 c -2.24661,-2.317906 -7.03192,-5.59476 -10.63402,-7.281897 l -6.54929,-3.06752 -7.94879,7.811732 c -4.37177,4.296452 -11.26452,12.845164 -15.31716,18.997138 -4.05265,6.151974 -10.71577,15.330588 -14.80694,20.396919 -4.09118,5.066332 -9.84839,12.788382 -12.79379,17.160114 -5.829,8.65167 -9.57984,12.52177 -9.57984,9.88441 0,-1.82514 9.18104,-15.014092 19.97655,-28.697172 4.1433,-5.251526 10.58141,-14.134055 14.30692,-19.738954 7.22186,-10.865024 23.06961,-27.955783 25.92257,-27.955783 3.03792,0 16.67516,7.523738 19.8918,10.974412 2.43182,2.608754 3.19153,5.057735 3.46032,11.154511 0.56481,12.811691 14.68677,41.890786 27.30612,56.227116 l 5.34087,6.06756 3.83903,-3.83904 c 3.55728,-3.55727 3.8938,-4.75682 4.5851,-16.34388 0.84039,-14.086298 -0.50351,-21.856677 -6.21738,-35.948178 C 363.61825,38.577708 361.67533,35.92998 342.0842,21.411449 320.01993,5.060123 319.96978,5.031023 311.07229,3.417024 302.67198,1.893211 300.15778,2.660932 290.55703,9.681437 c -7.87103,5.755644 -19.39599,19.886087 -39.86687,48.879708 -3.32157,4.704451 -8.48661,10.999692 -11.47785,13.989425 -6.00587,6.002825 -17.94634,12.828382 -25.07809,14.335443 -2.73869,0.57873 -7.40191,3.526685 -11.50339,7.272115 -3.79371,3.46436 -8.67289,6.688752 -10.84262,7.165302 -2.3719,0.52096 -8.2796,-0.19284 -14.81522,-1.790042 -14.52521,-3.54972 -27.71761,-5.76161 -31.1539,-5.22337 -2.78717,0.43656 -2.78388,0.46883 0.54598,5.34939 1.84254,2.700602 5.22074,10.398792 7.50712,17.107102 3.82269,11.21584 4.15801,13.57292 4.16892,29.304 0.0105,15.53062 -0.32796,18.0166 -3.67568,26.97657 -7.21306,19.30528 -18.37469,33.08157 -31.98709,39.48015 -11.40121,5.3592 -28.486508,9.44222 -45.249451,10.81365 -10.650719,2.38335 -17.94685,0.83844 -27.634536,-2.89186 C 29.739984,210.62558 7.8408642,190.62304 2.9320748,174.61392 -0.91196192,161.21424 -0.43243362,146.64132 1.2877033,132.79855 2.098623,126.2727 6.8639832,113.87489 6.8639832,113.87489 22.524168,76.851951 53.029174,54.510276 97.311664,66.352996 111.25124,70.33936 125.72907,78.197181 135.1784,86.905115 c 3.86845,3.564943 5.97502,4.378823 13.1593,5.084173 4.70445,0.46188 15.75143,2.38642 24.54883,4.27674 8.7974,1.89033 17.38384,3.07379 19.08099,2.62992 3.2968,-0.86225 12.95519,-9.411311 12.95519,-11.467211 0,-0.678181 -0.90794,-1.233056 -2.01764,-1.233056 -1.10971,0 -4.88813,-1.45458 -8.39648,-3.2324 -4.45753,-2.258802 -6.64058,-4.275241 -7.24781,-6.694694 -1.12702,-4.490376 2.55433,-10.884652 8.14712,-14.151011 10.37238,-6.057798 23.61351,6.778286 18.19552,17.638916 -1.15558,2.316426 -2.10106,4.416787 -2.10106,4.667471 0,1.447535 5.03323,-0.05426 12.04569,-3.594134 9.30249,-4.69588 18.67769,-13.590302 25.79851,-24.475524 8.81566,-13.476002 25.24681,-35.0844 31.94595,-42.011689 3.57135,-3.692983 9.97909,-8.572389 14.23943,-10.843124 7.4533,-3.97256897 8.03845,-4.07471267 15.48239,-2.70258797 8.28575,1.52729097 14.93233,5.49839897 36.63073,21.88559897 14.53137,10.974466 18.32909,15.881955 26.20187,33.85857 8.1802,18.678589 10.43151,28.637488 9.76095,43.178725 l -0.53264,11.550232 3.047,-3.65465 c 1.67584,-2.01005 6.95951,-9.096562 11.74149,-15.747802 9.41536,-13.095829 12.92491,-15.594209 24.57195,-17.492359 10.94531,-1.783788 14.09076,1.829189 14.09076,16.185179 0,3.89317 -1.44024,7.77595 -5.28465,14.247042 -5.70614,9.60486 -26.8661,36.99157 -29.22405,37.82382 -2.76202,0.97487 0.10804,-3.44124 11.18924,-17.21643 6.12956,-7.61979 13.3312,-17.76407 16.00366,-22.54286 4.32711,-7.737602 4.76952,-9.377952 4.04166,-14.985372 -1.64708,-12.68884 -1.01943,-11.972064 -9.34082,-10.667143 -12.57999,1.972737 -15.27077,3.765162 -23.62279,15.736013 -8.05151,11.540132 -19.28092,25.337482 -23.47422,28.842292 -2.06484,1.72581 -2.20373,2.4812 -0.84844,4.61463 5.39687,8.49553 37.15828,25.39871 58.58651,31.17929 11.18649,3.01772 29.24698,3.86653 33.66446,1.58217 3.13858,-1.62303 3.88385,-1.50802 7.49585,1.15684 7.80474,5.75815 16.26735,14.28435 15.67532,15.79312 -1.15796,2.95113 -24.27463,33.19793 -31.60601,41.35464 -4.07505,4.53381 -9.71453,11.36388 -12.53213,15.17794 -6.07941,8.2294 -13.93128,15.39872 -16.86473,15.39872 -5.72261,0 -20.17747,-11.96886 -20.17747,-16.70728 0,-1.66742 -0.52314,-3.03168 -1.16252,-3.03168 -0.6394,0 -1.48576,-1.33238 -1.88083,-2.96084 -1.3427,-5.53462 -8.75194,-24.73983 -12.71067,-32.94683 -3.75459,-7.78379 -14.81315,-21.99326 -17.1163,-21.99326 -1.29661,0 -6.959,9.29875 -6.15312,10.10462 0.30878,0.30879 1.82156,-1.04058 3.36173,-2.9986 1.54016,-1.95801 6.91008,-7.34164 7.3943,-6.85743 1.54112,1.54113 -8.05536,12.23747 -11.34897,12.6382 -4.25499,0.5177 -14.20912,15.50559 -25.0891,37.77653 -15.44278,31.61083 -18.03422,37.99251 -23.90941,58.87932 -5.27555,18.75505 -6.80731,30.97205 -4.51423,36.0048 1.43568,3.15097 1.19987,3.79038 -2.6743,7.25196 -2.98881,2.6705 -5.6313,3.79631 -8.91069,3.79631 -3.81231,0 -5.5855,1.01921 -9.72994,5.5927 -5.73507,6.32878 -14.36764,18.26812 -29.54467,40.86196 -5.73199,8.53314 -10.95286,15.843 -11.60194,16.24416 -4.06553,2.51264 -1.20168,-3.09189 10.01119,-19.59184 27.44253,-40.38218 31.90588,-45.65807 39.13703,-46.26184 2.61451,-0.2183 6.22137,-1.504 8.01525,-2.85712 l 3.26159,-2.46022 -4.44231,-6.18336 c -6.65593,-9.26456 -23.95525,-24.05805 -45.07477,-38.54561 -20.01013,-13.72656 -34.25644,-21.12137 -44.48193,-23.08917 -8.2188,-1.58163 -9.73995,0.22753 -8.71143,10.36075 0.65658,6.46885 0.32959,7.98162 -2.67253,12.36387 -1.71836,3.66756 -2.494,3.53347 -7.69745,11.7455 m 112.16296,15.31984 c 0.0209,-4.98502 3.96065,-19.70658 10.6922,-39.9541 4.80375,-14.44897 25.02566,-55.82007 33.43935,-68.41205 4.85419,-7.26482 5.83804,-9.613 4.68647,-11.18541 -1.45191,-1.98248 -6.6881,-12.8984 -6.6881,-13.9427 0,-0.30187 0.5757,-0.54886 1.27935,-0.54886 0.70364,0 2.55307,2.96084 4.10984,6.57965 1.55676,3.61881 3.55171,6.57965 4.4332,6.57965 0.88149,0 3.16189,-2.86475 5.06757,-6.36611 l 3.46488,-6.36612 -3.58472,-3.3277 c -1.97159,-1.83023 -6.77399,-5.43909 -10.67199,-8.0197 l -7.08728,-4.692 -6.72126,7.47718 c -22.80237,25.3669 -49.73078,49.19819 -66.28468,58.66106 -12.06174,6.89496 -49.56285,29.80237 -50.8296,31.04906 -0.65206,0.64171 4.17371,3.8105 11.10261,7.29039 16.78471,8.42979 45.50245,28.54145 59.79504,41.87579 12.42742,11.59421 13.76087,11.91334 13.79712,3.30197 z m -61.46726,-47.5207 c 0.4796,-1.26659 0.29843,-2.30288 -0.40261,-2.30288 -0.70105,0 -1.27463,-0.59217 -1.27463,-1.31593 0,-1.61733 1.37772,-1.65302 3.83222,-0.0992 1.55309,0.98313 1.4571,1.57424 -0.58434,3.59866 -2.22591,2.20735 -2.36528,2.21795 -1.57064,0.11949 z m -0.36131,-7.5666 c 0,-0.72376 0.8533,-1.31593 1.89622,-1.31593 1.04293,0 2.26222,0.59217 2.70953,1.31593 0.44731,0.72376 -0.40599,1.31593 -1.89623,1.31593 -1.49024,0 -2.70952,-0.59217 -2.70952,-1.31593 z m 0.65796,-5.26372 c -0.49676,-0.80379 1.52158,-1.31593 5.18606,-1.31593 3.29964,0 5.99935,0.59216 5.99935,1.31593 0,0.72376 -2.33373,1.31593 -5.18606,1.31593 -2.85233,0 -5.55204,-0.59217 -5.99935,-1.31593 z m 10.52744,-3.94779 c 0.44731,-0.72377 1.63165,-1.31593 2.63186,-1.31593 1.00022,0 2.18455,0.59216 2.63186,1.31593 0.46309,0.74929 -0.67019,1.31593 -2.63186,1.31593 -1.96167,0 -3.09495,-0.56664 -2.63186,-1.31593 z m 9.86948,-3.9478 c 0,-0.72376 0.88825,-1.31593 1.9739,-1.31593 1.08564,0 1.97389,0.59217 1.97389,1.31593 0,0.72377 -0.88825,1.31593 -1.97389,1.31593 -1.08565,0 -1.9739,-0.59216 -1.9739,-1.31593 z m 7.89558,-3.94779 c 0,-0.72376 0.92321,-1.31593 2.05156,-1.31593 1.12836,0 1.68558,0.59217 1.23827,1.31593 -0.44731,0.72377 -1.37052,1.31593 -2.05156,1.31593 -0.68105,0 -1.23827,-0.59216 -1.23827,-1.31593 z m 5.92169,-6.57965 c -0.4745,-0.76774 0.86362,-1.31593 3.21216,-1.31593 2.214,0 4.02545,0.59217 4.02545,1.31593 0,0.72376 -1.44547,1.31593 -3.21216,1.31593 -1.76668,0 -3.57814,-0.59217 -4.02545,-1.31593 z m 10.52744,-6.57965 c 0.44731,-0.72376 1.63165,-1.31593 2.63186,-1.31593 1.00021,0 2.18455,0.59217 2.63186,1.31593 0.46309,0.74929 -0.67019,1.31593 -2.63186,1.31593 -1.96167,0 -3.09495,-0.56664 -2.63186,-1.31593 z m 7.89558,-6.57965 c -0.44731,-0.72376 0.075,-1.31593 1.16061,-1.31593 1.08565,0 2.33987,0.59217 2.78718,1.31593 0.44731,0.72376 -0.075,1.31593 -1.16061,1.31593 -1.08564,0 -2.33987,-0.59217 -2.78718,-1.31593 z m 6.59292,-5.28518 c 0.4546,-0.73557 1.3778,-0.99672 2.05156,-0.5803 1.82525,1.12805 1.48491,1.91769 -0.82656,1.91769 -1.12836,0 -1.6796,-0.60183 -1.225,-1.33739 z m 9.14649,-7.95786 c -0.41885,-0.6777 0.75383,-1.23219 2.60595,-1.23219 1.85212,0 3.36749,0.46615 3.36749,1.0359 0,1.49324 -5.06894,1.65981 -5.97344,0.19629 z m 4.65751,-6.49591 c 0,-0.72377 1.48042,-1.31593 3.28983,-1.31593 1.8094,0 3.28982,0.59216 3.28982,1.31593 0,0.72376 -1.48042,1.31593 -3.28982,1.31593 -1.80941,0 -3.28983,-0.59217 -3.28983,-1.31593 z m 5.26372,-7.89559 c 0,-0.72376 1.14939,-1.31593 2.5542,-1.31593 1.4048,0 2.92018,0.59217 3.36749,1.31593 0.46126,0.74635 -0.64431,1.31593 -2.5542,1.31593 -1.85211,0 -3.36749,-0.59216 -3.36749,-1.31593 z m 5.26372,-3.94779 c 0,-0.72376 0.88826,-1.31593 1.9739,-1.31593 1.08564,0 1.97389,0.59217 1.97389,1.31593 0,0.72376 -0.88825,1.31593 -1.97389,1.31593 -1.08564,0 -1.9739,-0.59217 -1.9739,-1.31593 z m 100.31945,63.49364 c 2.63486,-2.71411 7.64043,-8.58267 11.12349,-13.04124 3.48306,-4.45858 10.04525,-12.45286 14.58267,-17.76506 4.5374,-5.31221 12.33874,-15.19615 17.3363,-21.96432 l 9.08646,-12.30577 -7.96183,-7.1042 c -4.379,-3.90732 -8.47252,-7.10421 -9.09669,-7.10421 -3.16112,0 -12.2752,11.04246 -27.43745,33.24271 -7.445,10.90083 -24.22375,31.05331 -29.24837,35.12942 l -3.03804,2.46453 3.28983,3.53024 c 2.7726,2.97522 13.48176,9.58953 15.85308,9.79137 0.39594,0.0337 2.87569,-2.15936 5.51055,-4.87347 z m -11.16517,-3.71352 c -4.14173,-2.24692 -4.86349,-7.10359 -1.47376,-9.91681 1.93061,-1.60227 2.05185,-1.35596 1.21282,2.46411 -0.8239,3.7512 -0.538,4.3942 2.46072,5.53431 1.8661,0.7095 3.39292,1.89683 3.39292,2.6385 0,1.79485 -1.25468,1.6333 -5.5927,-0.72011 z m 2.23107,-25.32797 c 6.15779,-7.36406 13.87325,-17.38816 17.14546,-22.27577 3.27222,-4.8876 8.65032,-12.58761 11.95134,-17.11112 3.30102,-4.52351 5.819,-8.26489 5.59553,-8.3142 -0.22349,-0.0494 -5.14368,-0.38195 -10.93378,-0.73921 -5.79009,-0.35726 -14.00277,-1.53571 -18.25041,-2.61877 -18.34445,-4.67746 -53.21614,-23.02096 -58.87708,-30.97101 -1.61664,-2.27036 -6.42708,-8.03853 -10.68988,-12.81817 -5.6777,-6.36609 -10.1923,-13.65121 -16.88057,-27.239837 -5.02151,-10.202279 -9.13909,-19.676977 -9.15017,-21.054885 -0.0559,-6.954149 -2.33436,-6.004813 -10.23369,4.264012 -4.37381,5.685787 -12.40872,14.705287 -17.85537,20.043328 -10.50605,10.296582 -22.65852,26.245722 -18.8986,24.802902 1.20003,-0.4605 2.51804,-0.29336 2.92889,0.37142 0.41086,0.66477 -1.15836,1.7024 -3.48715,2.30586 -2.32879,0.60345 -4.46812,1.79904 -4.75406,2.65685 -0.35742,1.07228 0.99309,0.92752 4.32151,-0.46318 3.6089,-1.5079 4.70023,-1.59934 4.28683,-0.35917 -0.30501,0.91503 -3.4743,2.75272 -7.04287,4.08374 l -6.48831,2.42002 5.26372,-0.80312 c 13.47935,-2.05664 22.85817,-1.0651 12.19974,1.28977 -2.3673,0.52303 -3.53678,1.25008 -2.59887,1.61568 0.93791,0.3656 5.53572,-0.37213 10.21735,-1.63938 9.84246,-2.66423 12.62412,-1.85348 4.27975,1.24741 -4.42705,1.64515 -4.80684,1.9883 -1.72716,1.56051 2.17129,-0.3016 6.55878,-1.21308 9.74998,-2.02551 3.60675,-0.91822 6.2686,-1.01073 7.03483,-0.2445 0.76624,0.76624 -0.93127,1.59949 -4.48625,2.20217 -5.32275,0.90236 -5.49265,1.05347 -2.45261,2.18147 2.15732,0.80047 3.42321,0.7412 3.72847,-0.17457 0.25972,-0.77916 3.7286,-1.31965 7.91911,-1.23387 4.10132,0.084 6.2726,0.4031 4.82508,0.70921 -9.67027,2.04493 -9.5815,1.94879 -3.4962,3.78654 3.14342,0.94929 7.66616,1.40941 10.05053,1.02249 2.38437,-0.38694 5.43808,-0.0626 6.78603,0.72057 2.15888,1.25447 1.98057,1.43384 -1.49699,1.50595 -3.62177,0.0751 -3.75201,0.23034 -1.57709,1.8796 1.30389,0.98875 4.56082,1.63152 7.23762,1.42836 4.30159,-0.32647 4.40835,-0.26851 0.91912,0.49891 -3.79605,0.83489 -3.84174,0.92776 -1.18855,2.41598 1.88077,1.05496 3.18783,1.11915 4.10538,0.2016 0.83419,-0.83419 3.28798,-0.94548 6.45227,-0.29261 l 5.10614,1.05351 -5.86638,0.68319 -5.86638,0.68318 9.5822,6.47376 c 19.98629,13.50279 31.03491,29.37817 42.36642,60.87487 5.19259,14.43314 4.12301,14.67637 20.24512,-4.60398 z m -12.68646,3.01507 c -0.46924,-0.744 0.2717,-2.81659 1.64653,-4.60575 2.02908,-2.64063 2.50517,-2.8195 2.52893,-0.95016 0.0161,1.26659 -0.51948,2.30288 -1.19018,2.30288 -0.6707,0 -1.42479,1.0363 -1.67579,2.30288 -0.25809,1.30245 -0.82697,1.71522 -1.30949,0.95015 z m 6.83658,-4.91038 c 0,-0.91154 1.18434,-2.39699 2.63186,-3.30098 3.12186,-1.94963 3.64371,0.18669 0.75196,3.07843 -2.31888,2.31888 -3.38382,2.38892 -3.38382,0.22255 z m -10.52744,-4.26434 c 0,-1.08564 0.59217,-1.97389 1.31593,-1.97389 0.72376,0 1.31593,0.88825 1.31593,1.97389 0,1.08565 -0.59217,1.9739 -1.31593,1.9739 -0.72376,0 -1.31593,-0.88825 -1.31593,-1.9739 z m -3.09157,-5.22157 c -0.4077,-1.06247 -0.17498,-2.28176 0.51718,-2.70952 0.69215,-0.42779 1.25846,0.4415 1.25846,1.93174 0,3.17741 -0.7318,3.49795 -1.77564,0.77778 z m -5.2377,-10.63065 c -3.39073,-4.24945 -3.4303,-5.76644 -0.0922,-3.5376 1.71453,1.14482 4.89898,6.90191 4.20279,7.5981 -0.2663,0.26632 -2.11604,-1.5609 -4.1105,-4.0605 z m -4.83003,-9.31157 c 0,-1.74861 0.35726,-1.83853 1.97389,-0.49685 1.08564,0.90101 1.9739,1.86177 1.9739,2.13502 0,0.27327 -0.88826,0.49684 -1.9739,0.49684 -1.08564,0 -1.97389,-0.96076 -1.97389,-2.13501 z m -5.99916,-7.69262 c -3.27127,-2.47425 -0.93848,-2.50325 3.3673,-0.0418 2.10868,1.20543 2.55332,1.89737 1.23846,1.92726 -1.12825,0.0257 -3.20084,-0.82279 -4.60576,-1.88542 z m -4.1993,-4.93775 c -1.62847,-0.78539 -2.96085,-1.92964 -2.96085,-2.5428 0,-1.84906 2.16037,-1.26474 5.44693,1.47324 3.38532,2.82026 2.20069,3.32991 -2.48608,1.06956 z m -16.27768,-9.76915 c -1.60726,-1.93661 -1.45152,-2.05921 1.48378,-1.16802 4.62022,1.40274 6.38371,3.33174 3.04585,3.33174 -1.50365,0 -3.54198,-0.97367 -4.52963,-2.16372 z m -4.11924,-4.04254 c -1.99035,-0.30152 -3.61881,-1.03867 -3.61881,-1.63815 0,-1.12714 8.82293,0.43754 10.19305,1.80766 0.79869,0.79869 -0.38429,0.76819 -6.57424,-0.16951 z M 66.245189,216.46899 c -4.7664,-5.27584 -5.907663,-7.89179 -3.44295,-7.89179 0.723761,0 1.31593,0.55001 1.31593,1.22224 0,0.67223 1.99447,3.33698 4.432154,5.92168 4.161686,4.41267 4.933055,4.69945 12.640374,4.69945 9.245826,0 19.774913,-2.34352 34.172243,-7.60594 22.50345,-8.22532 37.84378,-31.83745 40.3709,-62.13961 1.30899,-15.696 -5.4205,-41.74105 -13.53321,-52.377362 l -3.43374,-4.50185 -21.86218,0.5998 c -16.29623,0.44711 -23.537311,1.19076 -28.441831,2.92095 -16.616104,5.861762 -21.934342,9.850952 -23.670377,17.755072 -1.545432,7.0363 5.569143,18.78259 14.064533,23.22079 5.191955,2.71239 6.747615,2.28665 8.947879,-2.44885 3.370143,-7.25335 11.84337,-6.05614 11.84337,1.67339 0,5.4403 -2.59796,6.84429 -10.736116,5.80201 -8.866149,-1.13552 -15.377715,-4.38054 -20.502516,-10.21737 -10.870456,-12.38076 -7.624302,-25.53151 8.266666,-33.489732 9.754569,-4.8851 20.500196,-6.98812 39.640572,-7.75803 14.79488,-0.59512 18.50326,-1.11275 17.96785,-2.508036 C 133.50469,87.313049 112.73999,74.1481 106.8859,71.974775 91.096791,66.113081 67.021623,64.487177 59.308369,68.76165 54.604785,71.368247 37.799563,84.728897 37.799563,85.861789 c 0,0.407988 1.036295,-0.166825 2.302878,-1.277363 2.296904,-2.013923 10.076897,-6.284326 11.449041,-6.284326 2.21161,0 0.09347,2.370187 -4.142548,4.63549 -9.906457,5.297692 -29.034759,24.89601 -29.293167,30.01296 -0.03033,0.60072 3.419753,-2.36013 7.666868,-6.57966 7.736573,-7.686322 15.964719,-13.474332 15.964719,-11.230212 0,0.65791 -3.562909,3.99538 -7.917576,7.416602 -4.354667,3.42122 -10.298419,9.72635 -13.208337,14.01139 -2.909917,4.28505 -5.820957,7.79099 -6.468978,7.79099 -1.254774,0 -1.932178,1.84566 -3.380856,9.21151 l -0.9058368,4.60576 7.5579548,-7.5666 c 6.934753,-6.94268 9.848396,-8.92964 9.848396,-6.71611 0,0.46776 -2.714512,3.7525 -6.032247,7.29942 -6.506803,6.95631 -14.1054088,21.94118 -13.4516658,26.52745 0.309362,2.17028 1.284067,1.08769 4.1975928,-4.66223 3.489181,-6.886 11.338529,-16.26901 11.338529,-13.55395 0,0.63934 -1.488484,3.31031 -3.307743,5.93549 -1.819258,2.62519 -4.504855,8.28263 -5.96799,12.57207 -1.463137,4.28945 -3.297114,9.06685 -4.0755028,10.61645 -0.980751,1.95246 -0.998149,3.56279 -0.05666,5.24513 1.2158558,2.17262 1.4535118,2.01486 2.2621338,-1.50153 1.37639,-5.98543 8.737193,-21.69425 10.165434,-21.69425 0.694051,0 0.842176,1.03629 0.329166,2.30288 -7.892509,19.486 -9.956495,29.47732 -7.165697,34.68763 1.606001,2.99833 1.767442,2.78152 3.453586,-4.63792 1.734338,-7.63153 3.607776,-11.29771 5.773188,-11.29771 0.598211,0 0.220161,2.07621 -0.840109,4.61378 -1.06027,2.53759 -2.242713,8.01515 -2.62765,12.17236 -0.672903,7.26717 -0.519213,7.74882 3.986516,12.49331 5.530442,5.82351 6.344127,6.09822 4.618413,1.55925 -1.679826,-4.41828 -1.656308,-18.60951 0.03257,-19.65329 0.822274,-0.5082 1.315931,2.19364 1.315931,7.20222 0,4.40853 0.843632,10.03461 1.874739,12.50239 1.160878,2.77837 1.37297,4.65414 0.556997,4.92613 -0.724758,0.24158 -0.05943,1.578 1.478512,2.96982 l 2.796252,2.53057 -0.884809,-8.63624 c -0.538811,-5.25911 -0.376607,-8.95031 0.414804,-9.43943 0.774631,-0.47875 1.589396,2.39259 2.016985,7.10812 0.394556,4.35121 1.436199,8.77745 2.314761,9.83605 0.878564,1.0586 1.080754,1.9338 0.449313,1.94488 -1.827346,0.0321 2.610766,2.56922 4.533305,2.59156 1.024224,0.0119 1.468271,-0.92216 1.085191,-2.28273 -1.836875,-6.52391 -2.2575,-10.85642 -1.054003,-10.85642 0.723762,0 1.659066,1.7765 2.078454,3.94779 0.419387,2.17128 1.092432,5.66408 1.495653,7.76176 0.46804,2.43488 1.755773,4.08139 3.561341,4.55356 3.83925,1.00399 3.944287,0.67081 1.575654,-4.99813 -3.169617,-7.58597 -1.517982,-8.60605 2.102881,-1.2988 1.76682,3.56562 3.952612,6.3349 4.857314,6.15396 0.904702,-0.18094 1.644913,0.26319 1.644913,0.98695 0,0.72376 1.549327,1.31593 3.44295,1.31593 l 3.442951,0 z m 12.611399,-0.25939 c -0.868514,-0.86852 -1.579116,-2.39192 -1.579116,-3.38534 0,-1.30097 0.963536,-1.0483 3.444496,0.90321 1.894474,1.4902 3.967064,2.38648 4.605756,1.99176 0.638693,-0.39474 1.16126,-0.0906 1.16126,0.67589 0,1.90348 -5.681494,1.76538 -7.632396,-0.18552 z m 13.225099,0.7076 c -0.904702,-0.36505 -1.644912,-1.57516 -1.644912,-2.68911 0,-1.62137 0.381131,-1.70905 1.910746,-0.43958 1.138551,0.94491 3.128672,1.19923 4.924423,0.62928 2.6833,-0.85165 2.816816,-0.71932 1.21795,1.2072 -1.81326,2.18484 -3.402044,2.50522 -6.408207,1.29221 z m 10.198453,-3.07628 c 0,-0.72376 1.21929,-1.31593 2.70953,-1.31593 1.49023,0 2.34354,0.59217 1.89623,1.31593 -0.44731,0.72376 -1.6666,1.31593 -2.70952,1.31593 -1.04293,0 -1.89624,-0.59217 -1.89624,-1.31593 z m -7.895575,-78.34415 c 0,-2.74712 -2.29516,-2.38371 -3.901491,0.61775 -1.977475,3.69495 -1.693038,4.30395 1.269631,2.71837 1.447523,-0.77468 2.63186,-2.27594 2.63186,-3.33612 z M 210.60067,80.229349 c 3.12316,-6.549339 2.78095,-9.46395 -1.62895,-13.873847 -5.20547,-5.205476 -9.71721,-5.021202 -15.36602,0.627597 -6.90458,6.904578 -5.56916,11.325563 4.7765,15.812909 7.29277,3.163179 9.73027,2.651151 12.21847,-2.566659 z m 3.09641,320.526971 c -20.1094,-9.17768 -38.28778,-21.64858 -49.16782,-33.73056 -9.62785,-10.69147 -11.32675,-13.31993 -7.71301,-11.9332 3.22069,1.2359 9.438,-0.44066 7.10867,-1.91691 -0.97347,-0.61696 -3.14462,-1.13082 -4.82479,-1.1419 -8.2969,-0.0548 -8.76252,-10.04114 -0.79436,-17.03729 3.11311,-2.73334 5.57086,-3.86037 7.52583,-3.45106 1.59666,0.3343 5.86387,1.19098 9.48267,1.90374 8.82508,1.73821 30.94899,12.14318 40.75513,19.16733 9.83992,7.04833 23.40429,21.19709 30.33069,31.63742 2.88098,4.34257 5.68046,8.2255 6.22109,8.62874 0.54061,0.40323 -0.84442,3.21796 -3.07784,6.25496 -4.70038,6.3915 -9.92141,8.4406 -12.50471,4.90771 -0.92882,-1.27024 -3.8723,-4.6695 -6.54106,-7.55391 l -4.85229,-5.24439 -10.69026,0.77488 c -6.99375,0.50694 -9.78022,0.35368 -8.05842,-0.44322 1.44752,-0.66995 5.87533,-1.25972 9.83957,-1.31058 l 7.20772,-0.0925 -3.44924,-3.44924 c -3.37353,-3.37352 -3.63519,-3.41685 -11.92126,-1.9739 -10.14268,1.76628 -14.17813,1.86582 -14.17813,0.34971 0,-0.61909 3.93338,-1.49293 8.74085,-1.94186 8.25771,-0.77113 10.82923,-1.50485 9.57252,-2.73132 -0.30157,-0.29431 -5.58174,0.28601 -11.73372,1.28962 -6.15197,1.0036 -11.48149,1.83969 -11.84337,1.85796 -0.36188,0.0183 1.08921,1.09432 3.22466,2.39118 3.23852,1.96676 5.30433,2.18677 12.45273,1.3262 5.31583,-0.63998 9.06327,-0.53859 9.86885,0.26698 0.85436,0.85437 -1.01601,1.29875 -5.46643,1.29875 -8.2075,0 -9.42385,1.36299 -4.0495,4.53769 3.31508,1.95827 5.67362,2.23727 13.08774,1.5482 5.75029,-0.53443 9.04393,-0.35796 9.04393,0.48457 0,0.72882 -3.05954,1.32512 -6.79898,1.32512 -3.73942,0 -6.37727,0.4217 -5.86186,0.93711 0.51541,0.51541 4.4632,0.81189 8.77287,0.65884 4.52872,-0.16084 7.83576,0.27674 7.83576,1.03678 0,0.72329 -2.22063,1.36096 -4.93474,1.41705 l -4.93474,0.10198 6.15761,2.20088 c 7.74775,2.76924 9.18865,4.17775 4.26018,4.16438 -2.11098,-0.005 -10.25262,-2.93789 -18.09254,-6.51595 z m 33.17717,-2.68516 c 2.32652,-2.89505 3.69731,-5.26372 3.04619,-5.26372 -0.65111,0 -4.97223,-5.11929 -9.6025,-11.37618 -12.5588,-16.97076 -24.54517,-26.74656 -45.14842,-36.82199 -13.16266,-6.43682 -19.08491,-8.6085 -25.11897,-9.21109 -8.88301,-0.88711 -11.53222,0.75237 -13.75834,8.5144 -1.15088,4.0129 -1.05406,4.13607 4.31662,5.49062 21.00543,5.29782 59.36191,29.58293 74.25222,47.01223 3.25131,3.8057 6.3326,6.91945 6.84732,6.91945 0.51471,0 2.83935,-2.36867 5.16588,-5.26372 z M 209.91929,378.9688 c 0.92046,-0.75751 -13.45358,-10.30481 -23.80552,-15.81173 -6.91562,-3.67891 -11.56522,-5.45406 -12.08458,-4.61373 -0.46427,0.75121 -2.55075,1.36584 -4.6366,1.36584 -2.08586,0 -4.21293,0.68032 -4.72682,1.51182 -0.68043,1.10095 0.99726,1.30286 6.173,0.74295 l 7.10736,-0.76889 -5.69322,1.56725 -5.69323,1.56726 3.22465,3.75276 c 2.21862,2.58196 3.99481,3.50928 5.69322,2.97234 5.50175,-1.73932 14.86599,-3.03043 14.20339,-1.95831 -0.3876,0.62714 -2.29824,1.16698 -4.24587,1.19961 -1.94763,0.0326 -5.31765,0.9246 -7.48894,1.98211 l -3.94779,1.92274 5.92169,-0.67628 c 16.37778,-1.87041 19.0154,-2.00971 16.44913,-0.86872 -1.44752,0.64358 -6.10423,1.59792 -10.34824,2.12074 -5.29853,0.65274 -7.29131,1.37567 -6.35977,2.30721 0.93153,0.93153 4.00166,0.89599 9.79807,-0.11344 16.08658,-2.80135 19.49538,-1.39221 4.15368,1.71705 l -9.08711,1.8417 12.50133,-0.71933 c 6.87574,-0.39562 12.67722,-0.86405 12.89217,-1.04095 z m -37.89484,-21.69148 c 1.5519,-1.00292 1.27057,-1.2519 -1.31593,-1.16461 -1.80941,0.0611 -4.77025,0.58514 -6.57965,1.16461 -3.01438,0.96537 -2.9042,1.06288 1.31593,1.16461 2.53316,0.0611 5.49401,-0.46301 6.57965,-1.16461 z m 9.54049,-27.22571 c 1.26659,-0.33099 2.30288,-1.15055 2.30288,-1.82124 0,-0.6707 0.9232,-1.21944 2.05156,-1.21944 1.12836,0 1.71174,0.54983 1.29642,1.22185 -0.41534,0.67201 0.58601,1.47962 2.22521,1.79468 1.6392,0.31507 0.0195,0.5848 -3.59929,0.5994 -3.61881,0.0146 -5.54336,-0.24426 -4.27678,-0.57525 z m 2.96085,-6.74744 c 0.72376,-0.74369 3.6846,-1.72835 6.57965,-2.18814 6.41513,-1.01882 3.64232,1.1664 -3.28983,2.59269 -3.14399,0.64687 -4.1881,0.51847 -3.28982,-0.40455 z m 3.28982,-5.22317 c 0,-0.72377 0.93668,-1.67538 2.08153,-2.11469 3.20827,-1.23113 7.12998,-0.94668 7.12998,0.51717 0,0.72376 -1.13591,1.31593 -2.52423,1.31593 -1.38833,0 -3.46092,0.35944 -4.60575,0.79876 -1.14485,0.43931 -2.08153,0.20659 -2.08153,-0.51717 z m 4.33003,-7.40324 c 0.34742,-3.4623 2.02114,-4.70398 6.19741,-4.59768 3.15358,0.0803 3.12633,0.14509 -0.65796,1.5653 l -3.94779,1.48157 3.69824,0.71743 3.69825,0.71742 -4.63193,1.43189 c -4.30703,1.33145 -4.6126,1.23914 -4.35622,-1.31593 z m 90.27828,-12.30499 c -4.62818,-4.1708 -11.10873,-9.73858 -14.40123,-12.37285 -5.90481,-4.72435 -33.15333,-19.39641 -44.67696,-24.05647 -3.92028,-1.58533 -5.16772,-2.58588 -3.6909,-2.9604 4.82222,-1.22288 38.05985,15.62765 52.65536,26.69477 8.69926,6.59626 21.13038,17.54391 21.87645,19.26584 0.24126,0.55681 -0.41331,1.01238 -1.45459,1.01238 -1.04128,0 -5.67994,-3.41247 -10.30813,-7.58327 z m -82.10697,2.31955 c 3.5943,-1.54452 4.60576,-1.54452 4.60576,0 0,0.72376 -1.62847,1.27431 -3.61881,1.22343 -3.20671,-0.082 -3.31911,-0.22127 -0.98695,-1.22343 z m 0,-5.26372 c 0.44731,-0.72376 2.70289,-1.30687 5.0124,-1.29579 3.19517,0.0154 3.72718,0.32514 2.22522,1.29579 -2.60984,1.6866 -8.28,1.6866 -7.23762,0 z m 5.1083,-5.88545 c 0.44731,-0.72376 2.40681,-1.30686 4.35444,-1.29578 2.76971,0.0158 3.11113,0.29804 1.56724,1.29578 -2.60009,1.68031 -6.96018,1.68031 -5.92168,0 z m 59.51307,-168.58294 c -1.15883,-3.01988 -0.94453,-7.49372 0.46578,-9.72374 1.97451,-3.12217 2.92685,-0.69656 1.20781,3.07632 -1.32952,2.91799 -1.20331,3.86413 0.81264,6.09174 2.01811,2.22997 2.07209,2.6372 0.34959,2.6372 -1.12038,0 -2.39651,-0.93668 -2.83582,-2.08152 z m 113.68718,0.76559 c 1.08565,-0.7016 4.04649,-1.27562 6.57965,-1.27562 3.45372,0 4.11202,0.31907 2.63186,1.27562 -1.08564,0.7016 -4.04648,1.27562 -6.57965,1.27562 -3.45371,0 -4.11202,-0.31907 -2.63186,-1.27562 z m 10.52748,-4.93474 c 6e-5,-1.35305 8.73936,-8.22456 10.46015,-8.22456 0.76411,0 -0.80805,2.07259 -3.49368,4.60575 -4.75127,4.48154 -6.96654,5.63229 -6.96647,3.61881 z m 12.50861,-14.81228 c 1.31401,-1.45196 2.67451,-2.354522 3.02333,-2.005702 0.88422,0.884222 -2.39791,4.645632 -4.05368,4.645632 -0.74732,0 -0.28366,-1.18797 1.03035,-2.63993 z m 5.20292,-7.840022 c 2.14186,-1.41186 4.21352,-2.2478 4.60369,-1.85763 1.00717,1.00717 -3.98998,4.44371 -6.44662,4.43332 -1.2347,-0.005 -0.50102,-1.03062 1.84293,-2.57569 z m 6.59763,-5.368688 c -0.42778,-0.692152 -0.49517,-1.258459 -0.14977,-1.258459 0.34539,0 1.56468,-0.359439 2.70952,-0.798755 1.14484,-0.439315 2.08152,-0.206586 2.08152,0.517175 0,1.841043 -3.69708,3.067787 -4.64127,1.540039 z m 11.22092,-2.652051 c 0,-0.766475 0.59217,-1.027613 1.31593,-0.580303 0.72376,0.44731 1.31593,1.074426 1.31593,1.393593 0,0.319167 -0.59217,0.580302 -1.31593,0.580302 -0.72376,0 -1.31593,-0.627117 -1.31593,-1.393592 z m -4.19453,-0.821268 c 0.94994,-0.380134 2.08494,-0.333383 2.52221,0.103893 0.43727,0.437273 -0.33996,0.748291 -1.72716,0.691152 -1.53299,-0.06314 -1.8448,-0.374962 -0.79505,-0.795045 z"
     id="path3916"
     inkscape:connector-curvature="0"
     sodipodi:nodetypes="cssssssssssssssssssscsscssssssssssscssssssssssssssscsscccaccssssssssssssssssssscssssssssssssssssssssssssssscsssssssssssscsssscccsssssssscsscsssssccsscsccssssssssssssssssssssssssssssssssssssssssscssssssssssssssssssssssssscsssscscsssssssssscssssssssscssscscsscsssssssssssscssssssscccssssscscssssssssssscsscscccssssssscssssssssssssssssssssscsssssssssssssssssssssssscssssssssssssssssssssssssscssssccsssssssssscsssscsssssssssssssssssssssscssssssssssssscssscsssssscsssssssssssscscccsssssssssscssssscccsscsscsssssscscsssssssscssssssssssscsssscccssssssscssssssscssscssssssssssssssssssssssscscssscsssssssss" />
</svg>
