<?xml version="1.0" encoding="UTF-8" standalone="no"?>
<!-- Created with Inkscape (http://www.inkscape.org/) -->

<svg
   xmlns:dc="http://purl.org/dc/elements/1.1/"
   xmlns:cc="http://creativecommons.org/ns#"
   xmlns:rdf="http://www.w3.org/1999/02/22-rdf-syntax-ns#"
   xmlns:svg="http://www.w3.org/2000/svg"
   xmlns="http://www.w3.org/2000/svg"
   xmlns:xlink="http://www.w3.org/1999/xlink"
   xmlns:sodipodi="http://sodipodi.sourceforge.net/DTD/sodipodi-0.dtd"
   xmlns:inkscape="http://www.inkscape.org/namespaces/inkscape"
   id="svg3906"
   version="1.1"
   inkscape:version="0.48.4 r9939"
   width="383"
   height="333"
   sodipodi:docname="Toy.png">
  <metadata
     id="metadata3912">
    <rdf:RDF>
      <cc:Work
         rdf:about="">
        <dc:format>image/svg+xml</dc:format>
        <dc:type
           rdf:resource="http://purl.org/dc/dcmitype/StillImage" />
        <dc:title></dc:title>
      </cc:Work>
    </rdf:RDF>
  </metadata>
  <defs
     id="defs3910">
    <linearGradient
       inkscape:collect="always"
       id="linearGradient4432">
      <stop
         style="stop-color:#ffffff;stop-opacity:1;"
         offset="0"
         id="stop4434" />
      <stop
         style="stop-color:#ffffff;stop-opacity:0;"
         offset="1"
         id="stop4436" />
    </linearGradient>
    <radialGradient
       inkscape:collect="always"
       xlink:href="#linearGradient4432"
       id="radialGradient4438"
       cx="93.474899"
       cy="116.75101"
       fx="93.474899"
       fy="116.75101"
       r="28.930825"
       gradientTransform="matrix(1,0,0,0.79254656,-7.9819173,17.065287)"
       gradientUnits="userSpaceOnUse" />
    <filter
       inkscape:collect="always"
       id="filter4440"
       x="-0.14834868"
       width="1.2966974"
       y="-0.18717977"
       height="1.3743595">
      <feGaussianBlur
         inkscape:collect="always"
         stdDeviation="3.5765414"
         id="feGaussianBlur4442" />
    </filter>
  </defs>
  <sodipodi:namedview
     pagecolor="#ffffff"
     bordercolor="#666666"
     borderopacity="1"
     objecttolerance="10"
     gridtolerance="10"
     guidetolerance="10"
     inkscape:pageopacity="0"
     inkscape:pageshadow="2"
     inkscape:window-width="1270"
     inkscape:window-height="734"
     id="namedview3908"
     showgrid="false"
     inkscape:zoom="1.0022655"
     inkscape:cx="185.88782"
     inkscape:cy="110.37085"
     inkscape:window-x="-3"
     inkscape:window-y="22"
     inkscape:window-maximized="0"
     inkscape:current-layer="svg3906" />
  <path
     style="fill:#824475;fill-opacity:1;stroke:none"
     d="M 4.9385593,124.16949 C 15.89276,79.530084 36.167713,52.329505 76.194915,62.084746 125.12817,74.223595 128.56269,115.70747 119.58369,143.21822 108.62563,178.17916 67.08214,181.19778 49.364721,178.61656 27.017607,175.36085 11.654932,154.73435 4.9385593,124.16949 z"
     id="path4428"
     inkscape:connector-curvature="0"
     sodipodi:nodetypes="cccsc" />
  <path
     style="fill:#826a44;fill-opacity:1;stroke:none"
     d="M 196.80414,100.27723 C 213.2113,80.266882 225.88432,55.025799 245.94282,38.666802 l 15.46497,11.474006 c 0.92883,29.049988 15.63042,39.162424 26.4401,54.626242 l 26.4401,-31.927665 c 22.88862,-13.672762 19.79955,0.893409 20.45366,10.725702 l -26.4401,36.417493 c 10.79895,4.81255 33.09366,19.66875 54.87568,10.97514 l 13.46949,13.46949 c -13.11311,17.79302 -27.15001,35.58605 -43.90055,53.37907 -7.85324,-1.87461 -16.30344,-7.9918 -15.96383,-13.22005 -6.98109,-16.98924 -11.38843,-35.21769 -26.81425,-48.14094 -27.14956,45.66687 -50.50987,89.09112 -45.52187,115.7378 -1.67607,4.64295 -6.65836,5.97968 -12.97062,5.98644 -14.63352,20.03794 -26.56201,41.87922 -43.90055,60.11381 -18.88386,3.71845 -71.66491,-30.95919 -66.59912,-44.64885 1.73449,-5.52038 4.67351,-9.35441 9.72797,-10.22683 12.41899,-16.72533 24.61945,-33.50529 34.42201,-50.88472 -1.29719,-8.66294 -1.24582,-15.10061 9.9774,-13.22005 35.06483,-18.1172 68.57287,-40.28205 97.03018,-75.57878 -20.85441,-12.69504 -41.70486,-14.52634 -60.61268,-12.22231 z"
     id="path3918"
     inkscape:connector-curvature="0"
     sodipodi:nodetypes="cccccccccccccccccccccc" />
  <path
     style="fill:url(#radialGradient4438);fill-opacity:1;stroke:none;filter:url(#filter4440)"
     d="m 55.8666,123.1216 c 0.705508,-46.916297 35.980934,-40.919477 35.980934,-40.919477 9.171606,2.93962 24.688576,9.84612 16.932196,39.508457 -13.843336,16.28019 -28.020433,31.16978 -52.91313,1.41102 z"
     id="path4430"
     inkscape:connector-curvature="0"
     sodipodi:nodetypes="cccc" />
  <path
     style="fill:#000000"
     d="m 149.60539,240 c -5.44918,8.34984 -16.56604,22 -17.91707,22 -1.09178,0 1.15897,-3.51599 8.81164,-13.76499 3.3,-4.41959 9.15,-12.85091 13,-18.73626 11.83736,-18.09533 10.92783,-16.10162 9.73117,-21.33103 -0.87975,-3.84451 -0.78154,-5.1203 0.57032,-7.40881 1.52203,-2.57659 1.96867,-2.7262 6.56877,-2.20024 2.71463,0.31038 5.20435,0.15503 5.53272,-0.34521 0.68652,-1.04587 24.56113,-15.49803 38.09702,-23.06149 10.46398,-5.84696 24.4332,-17.44781 40.2747,-33.44643 12.53912,-12.66349 16.51231,-17.25725 15.73549,-18.19326 -2.16042,-2.60315 -13.72603,-6.8435 -24.79586,-9.09102 -13.56652,-2.75443 -29.91709,-3.52024 -31.18986,-1.46085 -0.66081,1.06921 -1.71762,0.80375 -5.17738,-1.30048 -5.54045,-3.36971 -13.45756,-10.38279 -12.64195,-11.1984 0.93496,-0.934966 4.24769,1.1118 9.84393,6.08205 2.75973,2.45103 5.44196,4.45642 5.96052,4.45642 0.51855,0 3.51465,-3.4875 6.65799,-7.75 11.97294,-16.235783 13.5483,-18.153808 20.41806,-24.859277 3.88276,-3.789898 10.4236,-11.346907 14.53519,-16.793354 l 7.47563,-9.902632 -3.10406,-3.202583 c -1.70724,-1.76142 -5.34369,-4.251562 -8.08099,-5.533649 l -4.97693,-2.331066 -6.04043,5.936281 C 235.57182,49.828674 230.33389,56.325 227.25421,61 c -3.07968,4.675 -8.14311,11.65 -11.25207,15.5 -3.10896,3.85 -7.48397,9.718129 -9.72224,13.040286 -4.42956,6.574571 -7.2799,9.51553 -7.2799,7.511353 0,-1.386958 6.97685,-11.409491 15.18056,-21.807517 3.14857,-3.990733 8.04101,-10.740733 10.87209,-15 C 230.54068,51.987587 242.58368,39 244.7517,39 c 2.30857,0 12.67176,5.717429 15.11615,8.339661 1.84798,1.982441 2.4253,3.843467 2.62956,8.476521 0.42921,9.735843 11.16075,31.833592 20.75043,42.728034 l 4.05863,4.610854 2.91735,-2.91736 c 2.70324,-2.703232 2.95897,-3.614799 3.4843,-12.42002 C 294.34675,77.113251 293.32549,71.208395 288.98342,60.5 280.59571,39.814213 279.11925,37.802155 264.23158,26.769252 247.46453,14.343574 247.42642,14.32146 240.66505,13.094952 234.2815,11.936978 232.37091,12.520384 225.07512,17.855397 219.09378,22.229218 210.33575,32.967206 194.77954,55 c -2.52412,3.575 -6.44913,8.358871 -8.72223,10.630825 -4.56397,4.561659 -13.63776,9.748527 -19.05731,10.893771 -2.08118,0.439788 -5.62485,2.679995 -8.74164,5.526216 -2.88291,2.632633 -6.59069,5.082905 -8.23951,5.445049 -1.80245,0.395882 -6.29182,-0.146544 -11.25836,-1.360285 -11.03798,-2.697501 -21.06313,-4.378355 -23.67443,-3.969341 -2.11802,0.331751 -2.11552,0.356275 0.4149,4.065104 1.40018,2.052236 3.96734,7.902236 5.7048,13 2.90493,8.523131 3.15975,10.314321 3.16804,22.268661 0.008,11.80201 -0.24922,13.69115 -2.79322,20.5 -5.48134,14.67044 -13.96327,25.1393 -24.307581,30.0017 -8.663998,4.07256 -21.647436,7.17532 -34.38591,8.2175 -8.09368,1.81115 -13.638146,0.63714 -21,-2.19758 C 26.875375,170.5566 10.233825,155.3563 6.5035442,143.19067 3.5823889,133.008 3.9467914,121.93377 5.2539556,111.41439 5.8701886,106.45527 9.4914746,97.033948 9.4914746,97.033948 21.391942,68.899525 44.573266,51.921669 78.224356,60.921173 88.817307,63.950485 99.81928,69.92179 107,76.539112 c 2.93971,2.709066 4.54053,3.32755 10,3.86356 3.575,0.350993 11.9698,1.813481 18.65511,3.249973 6.68531,1.436493 13.21031,2.335827 14.5,1.998522 C 152.66041,84.995931 160,78.499339 160,76.937022 160,76.42166 159.31004,76 158.46676,76 c -0.84329,0 -3.71458,-1.105363 -6.38064,-2.456361 -3.38736,-1.716506 -5.0463,-3.248836 -5.50775,-5.087423 -0.85644,-3.412321 1.94109,-8.271451 6.19115,-10.753618 7.88217,-4.603434 17.94435,5.150946 13.82712,13.404142 C 165.71849,72.867035 165,74.463139 165,74.653638 c 0,1.100009 3.82485,-0.04123 9.15375,-2.731249 7.06913,-3.568487 14.19352,-10.327525 19.60477,-18.599408 6.69918,-10.240666 19.18552,-26.661291 24.27632,-31.925467 2.71394,-2.806367 7.5833,-6.514319 10.82081,-8.239893 5.6639,-3.018829 6.10857,-3.09645 11.76536,-2.053747 6.29649,1.160617 11.34735,4.178336 27.83637,16.631276 11.04266,8.339701 13.92862,12.068994 19.91129,25.729759 6.21629,14.194209 7.9271,21.762162 7.41753,32.812322 l -0.40476,8.777232 2.31547,-2.777232 c 1.2735,-1.527477 5.28866,-6.912651 8.92258,-11.967054 C 313.7744,70.358415 316.44137,68.45985 325.29217,67.01741 333.60972,65.661876 336,68.407445 336,79.316833 c 0,2.958489 -1.09446,5.909086 -4.0159,10.826591 -4.3362,7.298912 -20.41605,28.110586 -22.2079,28.743026 -2.09891,0.74082 0.0821,-2.61506 8.50291,-13.08309 4.65797,-5.79042 10.13063,-13.499248 12.16148,-17.130736 3.28825,-5.879951 3.62445,-7.126483 3.07133,-11.387665 -1.25164,-9.642486 -0.77468,-9.097795 -7.09826,-8.106161 -9.55977,1.49912 -11.60454,2.861217 -17.9514,11.958091 -6.11849,8.769562 -14.65193,19.254421 -17.8385,21.917791 -1.56911,1.31148 -1.67465,1.88551 -0.64474,3.50675 4.10118,6.45591 28.23727,19.30095 44.52098,23.69372 8.50082,2.29322 22.22533,2.93825 25.58225,1.20232 2.38507,-1.23337 2.95141,-1.14597 5.69624,0.87911 5.93097,4.37572 12.36186,10.85494 11.91197,12.00148 -0.87996,2.24262 -18.44675,25.22773 -24.018,31.42617 -3.09671,3.44532 -7.38225,8.63562 -9.5234,11.534 C 339.5292,193.5519 333.56242,199 331.33324,199 326.98452,199 316,189.90464 316,186.30383 316,185.03672 315.60246,184 315.11658,184 c -0.48589,0 -1.12906,-1.0125 -1.42928,-2.25 -1.02034,-4.20586 -6.65076,-18.80026 -9.65907,-25.03691 C 301.17504,150.79804 292.77144,140 291.02123,140 c -0.98532,0 -5.28827,7.06629 -4.67587,7.67869 0.23465,0.23465 1.38424,-0.79076 2.55464,-2.27869 1.1704,-1.48793 5.2511,-5.57905 5.61907,-5.21109 1.17112,1.17113 -6.12142,9.29948 -8.6243,9.604 -3.23344,0.39341 -10.79777,11.78299 -19.06567,28.70709 -11.73526,24.02166 -13.70454,28.87122 -18.16921,44.7435 -4.00899,14.25231 -5.173,23.53624 -3.43045,27.36072 1.091,2.39448 0.91181,2.88038 -2.03225,5.5109 -2.27125,2.02936 -4.27933,2.88488 -6.7714,2.88488 -2.89704,0 -4.24452,0.77452 -7.39396,4.25 -4.35819,4.80936 -10.91824,13.88229 -22.45155,31.05177 -4.35584,6.48449 -8.32328,12.03939 -8.81653,12.34424 -3.08947,1.9094 -0.91318,-2.34959 7.60769,-14.88821 20.85409,-30.68717 24.24588,-34.69642 29.74096,-35.15523 1.98682,-0.16589 4.72774,-1.14292 6.09094,-2.17118 l 2.47854,-1.86957 -3.37579,-4.69885 c -5.05797,-7.04031 -18.20404,-18.28216 -34.25316,-29.29153 -15.20607,-10.43107 -26.03211,-16.05052 -33.80265,-17.54589 -6.24562,-1.20191 -7.40157,0.1729 -6.61998,7.87333 0.49895,4.9158 0.25046,6.06538 -2.0309,9.39553 -1.30582,2.78705 -1.89524,2.68515 -5.84944,8.92563 m 85.23473,11.64183 c 0.0159,-3.78821 3.00977,-14.9754 8.1252,-30.36187 3.65046,-10.98004 19.01747,-42.41871 25.41119,-51.98759 3.68879,-5.52067 4.43643,-7.3051 3.56133,-8.5 C 278.97908,146.50588 275,138.21067 275,137.41709 275,137.18769 275.43749,137 275.9722,137 c 0.53471,0 1.94013,2.25 3.12315,5 1.18301,2.75 2.69901,5 3.36887,5 0.66986,0 2.40278,-2.17698 3.85094,-4.83773 l 2.63303,-4.83773 -2.7241,-2.52878 c -1.49825,-1.39083 -5.14768,-4.13327 -8.10984,-6.09432 l -5.38576,-3.56554 -5.10761,5.68205 c -17.32795,19.27678 -37.79135,37.38662 -50.37097,44.57763 -9.16594,5.23961 -37.66373,22.64738 -38.62636,23.59476 -0.49551,0.48765 3.17168,2.89567 8.43708,5.54011 12.75502,6.40595 34.57816,21.68918 45.43937,31.82219 9.44383,8.81066 10.45714,9.05317 10.48469,2.50923 z M 196.27457,202.75 C 196.63903,201.7875 196.50135,201 195.96862,201 195.43588,201 195,200.55 195,200 c 0,-1.22904 1.04696,-1.25616 2.91218,-0.0754 1.18022,0.7471 1.10728,1.1963 -0.44405,2.73469 -1.69151,1.67741 -1.79742,1.68546 -1.19356,0.0908 z M 196,197 c 0,-0.55 0.64844,-1 1.44098,-1 0.79254,0 1.7191,0.45 2.05902,1 0.33992,0.55 -0.30852,1 -1.44098,1 C 196.92656,198 196,197.55 196,197 z m 0.5,-4 c -0.3775,-0.61081 1.15628,-1 3.94098,-1 2.50746,0 4.55902,0.45 4.55902,1 0,0.55 -1.77344,1 -3.94098,1 -2.16754,0 -4.2191,-0.45 -4.55902,-1 z m 8,-3 c 0.33992,-0.55 1.23992,-1 2,-1 0.76008,0 1.66008,0.45 2,1 0.35191,0.5694 -0.50929,1 -2,1 -1.49071,0 -2.35191,-0.4306 -2,-1 z m 7.5,-3 c 0,-0.55 0.675,-1 1.5,-1 0.825,0 1.5,0.45 1.5,1 0,0.55 -0.675,1 -1.5,1 -0.825,0 -1.5,-0.45 -1.5,-1 z m 6,-3 c 0,-0.55 0.70156,-1 1.55902,-1 0.85746,0 1.2809,0.45 0.94098,1 -0.33992,0.55 -1.04148,1 -1.55902,1 C 218.42344,185 218,184.55 218,184 z m 4.5,-5 c -0.36058,-0.58342 0.65628,-1 2.44098,-1 1.68246,0 3.05902,0.45 3.05902,1 0,0.55 -1.09844,1 -2.44098,1 -1.34254,0 -2.7191,-0.45 -3.05902,-1 z m 8,-5 c 0.33992,-0.55 1.23992,-1 2,-1 0.76008,0 1.66008,0.45 2,1 0.35191,0.5694 -0.50929,1 -2,1 -1.49071,0 -2.35191,-0.4306 -2,-1 z m 6,-5 c -0.33992,-0.55 0.057,-1 0.88197,-1 0.825,0 1.77811,0.45 2.11803,1 0.33992,0.55 -0.057,1 -0.88197,1 -0.825,0 -1.77811,-0.45 -2.11803,-1 z m 5.01008,-4.01631 c 0.34546,-0.55897 1.04702,-0.75742 1.55902,-0.44098 1.38704,0.85723 1.12841,1.45729 -0.62812,1.45729 -0.85746,0 -1.27636,-0.45734 -0.9309,-1.01631 z m 6.95059,-6.04732 c -0.31829,-0.515 0.57285,-0.93637 1.98031,-0.93637 1.40746,0 2.55902,0.35424 2.55902,0.7872 0,1.13474 -3.85198,1.26132 -4.53933,0.14917 z M 252,154 c 0,-0.55 1.125,-1 2.5,-1 1.375,0 2.5,0.45 2.5,1 0,0.55 -1.125,1 -2.5,1 -1.375,0 -2.5,-0.45 -2.5,-1 z m 4,-6 c 0,-0.55 0.87344,-1 1.94098,-1 1.06754,0 2.2191,0.45 2.55902,1 0.35052,0.56716 -0.48962,1 -1.94098,1 C 257.15156,149 256,148.55 256,148 z m 4,-3 c 0,-0.55 0.675,-1 1.5,-1 0.825,0 1.5,0.45 1.5,1 0,0.55 -0.675,1 -1.5,1 -0.825,0 -1.5,-0.45 -1.5,-1 z m 76.23462,48.25 c 2.00228,-2.0625 5.80611,-6.52213 8.45295,-9.91028 2.64684,-3.38816 7.63357,-9.46316 11.08164,-13.5 3.44806,-4.03685 9.37644,-11.54784 13.17418,-16.6911 l 6.90497,-9.35138 -6.05034,-5.39862 C 366.47033,135.42938 363.35959,133 362.88527,133 c -2.40219,0 -9.32815,8.39137 -20.85023,25.26176 -5.65759,8.28374 -18.40808,23.59799 -22.22638,26.6955 l -2.30866,1.87284 2.5,2.6827 c 2.10695,2.26092 10.24504,7.28726 12.04705,7.44064 0.30088,0.0256 2.18529,-1.64094 4.18757,-3.70344 z M 327.75,190.42803 c -3.14738,-1.70748 -3.69586,-5.39815 -1.11994,-7.53597 1.46711,-1.2176 1.55924,-1.03042 0.92165,1.87252 -0.6261,2.85061 -0.40884,3.33924 1.86994,4.20563 1.41809,0.53916 2.57835,1.44143 2.57835,2.00504 0,1.36394 -0.95346,1.24118 -4.25,-0.54722 z m 1.69543,-19.2472 c 4.67942,-5.59609 10.54254,-13.21359 13.02916,-16.92777 2.48662,-3.71418 6.57354,-9.56556 9.08204,-13.00306 2.50851,-3.4375 4.42197,-6.28065 4.25215,-6.31812 -0.16983,-0.0375 -3.90878,-0.29025 -8.30878,-0.56174 -4.4,-0.27149 -10.64097,-1.16701 -13.86883,-1.99005 -13.94029,-3.55449 -40.43994,-17.49406 -44.74179,-23.53545 -1.22852,-1.72529 -4.88406,-6.10863 -8.12344,-9.740764 -4.31459,-4.837711 -7.74532,-10.373811 -12.82786,-20.700062 -3.81594,-7.752902 -6.94497,-14.952902 -6.95339,-16 -0.0425,-5.284588 -1.77392,-4.56317 -7.77677,3.240302 -3.32374,4.320736 -9.42962,11.174822 -13.56863,15.231302 -7.98374,7.824564 -17.21863,19.944612 -14.3614,18.848187 0.91193,-0.349942 1.91351,-0.222932 2.22572,0.282245 0.31222,0.50517 -0.88026,1.29369 -2.64995,1.75227 -1.76969,0.45857 -3.39541,1.36712 -3.6127,2.01899 -0.27161,0.81484 0.75467,0.70484 3.284,-0.35198 2.74247,-1.14588 3.57179,-1.21537 3.25764,-0.27294 -0.23178,0.69535 -2.64019,2.09184 -5.35201,3.10331 l -4.93059,1.83902 4,-0.61031 c 10.24321,-1.56288 17.37035,-0.80939 9.27081,0.98012 -1.79895,0.39746 -2.68766,0.94996 -1.97493,1.22779 0.71274,0.27782 4.2067,-0.28279 7.76436,-1.2458 7.47947,-2.0246 9.5933,-1.40849 3.25226,0.94793 -3.3642,1.25018 -3.65281,1.51095 -1.3125,1.18586 1.65,-0.22919 4.98414,-0.92184 7.40919,-1.53922 2.74084,-0.69777 4.76363,-0.76807 5.3459,-0.1858 0.58228,0.58228 -0.70769,1.21548 -3.40919,1.67347 -4.04485,0.68572 -4.17396,0.80055 -1.86378,1.65774 1.63939,0.60829 2.60136,0.56325 2.83333,-0.13266 0.19737,-0.5921 2.83344,-1.00283 6.01788,-0.93764 3.11667,0.0638 4.76667,0.30632 3.66667,0.53894 -7.34862,1.55398 -7.28116,1.48092 -2.65683,2.87746 2.38875,0.72139 5.82566,1.07104 7.63759,0.77701 1.81193,-0.29404 4.1325,-0.0476 5.15683,0.54758 1.64057,0.95329 1.50507,1.0896 -1.13759,1.1444 -2.75225,0.0571 -2.85122,0.17504 -1.19846,1.42834 0.99085,0.75137 3.46585,1.23982 5.5,1.08544 3.26886,-0.24809 3.34999,-0.20405 0.69846,0.37913 -2.88469,0.63445 -2.91941,0.70502 -0.9032,1.83595 1.42923,0.80168 2.42249,0.85046 3.11975,0.1532 0.63392,-0.63392 2.4986,-0.71849 4.9032,-0.22236 l 3.88025,0.80058 -4.45797,0.51917 -4.45797,0.51916 7.28169,4.91953 c 15.18796,10.26102 23.58401,22.32502 32.19504,46.25995 3.94594,10.96801 3.13315,11.15285 15.38464,-3.49865 z m -9.64068,2.29121 c -0.35658,-0.56538 0.20647,-2.14038 1.25123,-3.5 1.54194,-2.00666 1.90373,-2.14259 1.92178,-0.72204 0.0122,0.9625 -0.39476,1.75 -0.90444,1.75 -0.50967,0 -1.08272,0.7875 -1.27346,1.75 -0.19613,0.98976 -0.62843,1.30343 -0.99511,0.72204 z M 325,169.74055 c 0,-0.6927 0.9,-1.82152 2,-2.50848 2.37236,-1.48156 2.76892,0.14187 0.57143,2.33936 C 325.80927,171.33359 325,171.38681 325,169.74055 z M 317,166.5 c 0,-0.825 0.45,-1.5 1,-1.5 0.55,0 1,0.675 1,1.5 0,0.825 -0.45,1.5 -1,1.5 -0.55,0 -1,-0.675 -1,-1.5 z m -2.34934,-3.96797 c -0.30982,-0.80739 -0.13297,-1.73395 0.39301,-2.05902 0.52598,-0.32508 0.95633,0.33551 0.95633,1.46797 0,2.41457 -0.55611,2.65816 -1.34934,0.59105 z m -3.98023,-8.07843 c -2.57668,-3.22924 -2.60675,-4.38203 -0.0701,-2.68829 1.3029,0.86997 3.72283,5.24489 3.19378,5.77394 -0.20237,0.20238 -1.60802,-1.18616 -3.12365,-3.08565 z M 307,147.37756 c 0,-1.3288 0.27149,-1.39713 1.5,-0.37756 0.825,0.68469 1.5,1.41479 1.5,1.62244 0,0.20766 -0.675,0.37756 -1.5,0.37756 -0.825,0 -1.5,-0.7301 -1.5,-1.62244 z m -4.55887,-5.84576 c -2.4859,-1.88023 -0.71317,-1.90227 2.55887,-0.0318 1.60243,0.91603 1.94032,1.44185 0.94113,1.46456 -0.85738,0.0195 -2.43238,-0.62525 -3.5,-1.43276 z M 299.25,137.77951 c -1.2375,-0.59683 -2.25,-1.46637 -2.25,-1.93232 0,-1.40514 1.6417,-0.9611 4.13922,1.11954 2.57257,2.14317 1.67235,2.53046 -1.88922,0.81278 z m -12.36971,-7.42376 c -1.22139,-1.47167 -1.10304,-1.56483 1.12755,-0.8876 3.51099,1.06597 4.8511,2.53185 2.3146,2.53185 -1.14265,0 -2.69162,-0.73991 -3.44215,-1.64425 z m -3.13029,-3.072 c -1.5125,-0.22913 -2.75,-0.78931 -2.75,-1.24486 0,-0.85654 6.70471,0.33249 7.74589,1.37367 0.60694,0.60694 -0.29203,0.58376 -4.99589,-0.12881 z M 54.616362,174.99712 C 50.994286,170.98791 50.127019,169 52,169 c 0.55,0 1,0.41796 1,0.9288 0,0.51084 1.515635,2.53584 3.368077,4.5 3.162543,3.35327 3.74872,3.5712 9.605656,3.5712 7.026076,0 15.027328,-1.78089 25.968127,-5.7799 17.10079,-6.25057 28.7582,-24.19387 30.6786,-47.22105 0.99473,-11.92768 -4.11914,-31.7198 -10.28414,-39.802531 l -2.60936,-3.421043 -16.613478,0.455805 C 80.729671,82.571041 75.227036,83.136157 71.5,84.450964 58.873112,88.905422 54.831684,91.936883 53.512438,97.943369 c -1.174402,5.347021 4.232096,14.273241 10.687902,17.645911 3.945463,2.0612 5.127638,1.73767 6.79966,-1.86092 2.561035,-5.51196 9,-4.60218 9,1.27164 0,4.13418 -1.974244,5.2011 -8.158577,4.40905 -6.737552,-0.8629 -11.685813,-3.32885 -15.580245,-7.76437 -8.260662,-9.40837 -5.793849,-19.40187 6.281994,-25.44947 7.412679,-3.71228 15.578485,-5.310405 30.123617,-5.895473 C 103.90969,79.847499 106.72776,79.454139 106.32089,78.393836 105.72812,76.849109 89.948632,66.844818 85.5,65.193268 73.501559,60.738857 55.206389,59.503302 49.344943,62.751554 45.770602,64.732356 33,74.885363 33,75.746269 33,76.056307 33.7875,75.619496 34.75,74.775577 36.49546,73.245159 42.407622,70 43.45034,70 c 1.680644,0 0.07103,1.80115 -3.148,3.522596 C 32.774239,77.548411 18.238285,92.44154 18.041916,96.33 c -0.02305,0.4565 2.598734,-1.7935 5.826196,-5 C 29.747278,85.489017 36,81.090604 36,82.795947 c 0,0.499961 -2.707521,3.036169 -6.016714,5.636019 -3.309193,2.599849 -7.825961,7.391232 -10.037262,10.647516 C 17.734724,102.33577 15.52257,105 15.030127,105 c -0.953526,0 -1.468298,1.40255 -2.569176,7 l -0.688362,3.5 5.743431,-5.75 C 22.785868,104.47413 25,102.9642 25,104.6463 c 0,0.35546 -2.062808,2.8516 -4.584017,5.54697 -4.944641,5.28623 -10.7189636,16.67351 -10.222172,20.1587 0.23509,1.64924 0.975786,0.82656 3.189829,-3.54291 C 16.035134,121.57626 22,114.44593 22,116.50916 c 0,0.48584 -1.131127,2.51556 -2.513616,4.51049 -1.382488,1.99493 -3.423323,6.29412 -4.535187,9.55375 -1.111865,3.25963 -2.505538,6.89007 -3.097051,8.06764 -0.745291,1.48371 -0.758512,2.70743 -0.04306,3.98587 0.923952,1.65101 1.104551,1.53113 1.719038,-1.14104 C 14.576069,136.93743 20.16968,125 21.255027,125 c 0.527423,0 0.639986,0.7875 0.25014,1.75 -5.997665,14.80778 -7.566127,22.40037 -5.445347,26.35978 1.22043,2.27849 1.343112,2.11373 2.624444,-3.52444 C 20.00222,143.786 21.425881,141 23.071418,141 c 0.454591,0 0.167304,1.57775 -0.638415,3.5061 -0.805719,1.92836 -1.704279,6.09086 -1.9968,9.25 -0.511352,5.52246 -0.39456,5.88847 3.029428,9.4939 4.202686,4.42539 4.82102,4.63415 3.509618,1.1849 C 25.698718,161.07737 25.71659,150.29319 27,149.5 c 0.624861,-0.38619 1,1.66699 1,5.4731 0,3.35013 0.641092,7.62549 1.424649,9.5008 0.882173,2.11134 1.043346,3.53677 0.423273,3.74346 -0.550757,0.18358 -0.04516,1.19915 1.123549,2.25682 l 2.124924,1.92303 -0.672383,-6.56284 c -0.409453,-3.9965 -0.286191,-6.80151 0.315217,-7.1732 0.588657,-0.36381 1.207812,1.81817 1.532745,5.40159 0.29983,3.30657 1.091394,6.67015 1.75903,7.4746 0.667637,0.80445 0.821285,1.46953 0.341441,1.47795 -1.388634,0.0244 1.98397,1.9524 3.444943,1.96938 0.778327,0.009 1.115767,-0.70077 0.824657,-1.73469 -1.395875,-4.95764 -1.715516,-8.25 -0.800956,-8.25 0.55,0 1.260755,1.35 1.579456,3 0.3187,1.65 0.830159,4.30424 1.136574,5.89831 0.355673,1.85031 1.334245,3.10152 2.70633,3.46033 2.917518,0.76295 2.997337,0.50976 1.197369,-3.79817 -2.408651,-5.76472 -1.153543,-6.5399 1.598018,-0.98698 1.34264,2.70958 3.003664,4.81401 3.691164,4.67651 0.6875,-0.1375 1.25,0.2 1.25,0.75 0,0.55 1.177363,1 2.616362,1 l 2.616363,0 z M 64.2,174.8 c -0.66,-0.66 -1.2,-1.81766 -1.2,-2.57258 0,-0.98863 0.732209,-0.79662 2.617537,0.68637 1.439646,1.13243 3.014646,1.81353 3.5,1.51357 C 69.602892,174.12739 70,174.35852 70,174.94098 c 0,1.44649 -4.317473,1.34155 -5.8,-0.14098 z m 10.05,0.53772 c -0.6875,-0.27741 -1.25,-1.19699 -1.25,-2.0435 0,-1.23211 0.289629,-1.29874 1.452012,-0.33405 0.865206,0.71806 2.377536,0.91132 3.742158,0.4782 2.039096,-0.64718 2.140556,-0.54662 0.925543,0.91738 -1.377924,1.6603 -2.585274,1.90376 -4.869713,0.98197 z M 82,173 c 0,-0.55 0.926558,-1 2.059017,-1 1.132459,0 1.780902,0.45 1.440983,1 -0.339919,0.55 -1.266476,1 -2.059017,1 C 82.648442,174 82,173.55 82,173 z m -6,-59.53518 c 0,-2.08759 -1.744135,-1.81143 -2.964816,0.46944 C 71.532464,116.74212 71.748613,117.20491 74,116 c 1.1,-0.5887 2,-1.72953 2,-2.53518 z m 88.31479,-41.998747 c 2.37335,-4.976965 2.1133,-7.191833 -1.23787,-10.542996 C 159.12119,56.967339 155.69263,57.107372 151.4,61.4 c -5.24692,5.246918 -4.23211,8.606507 3.62975,12.016525 5.54191,2.403759 7.39421,2.014659 9.28504,-1.950452 z m 2.35302,243.574427 c -15.28151,-6.97429 -29.0956,-16.45116 -37.36354,-25.63248 -7.31639,-8.12465 -8.60741,-10.12206 -5.86126,-9.06826 2.44746,0.93918 7.17211,-0.33487 5.40201,-1.4567 -0.73976,-0.46884 -2.38966,-0.85933 -3.66645,-0.86775 -6.30497,-0.0416 -6.6588,-7.63045 -0.60365,-12.94695 2.36571,-2.07712 4.2334,-2.93357 5.71902,-2.62253 1.21333,0.25404 4.45606,0.90505 7.20606,1.44669 6.70634,1.3209 23.51871,9.22783 30.97058,14.56561 7.47754,5.35616 17.78536,16.10807 23.04886,24.04187 2.18931,3.3 4.31669,6.25071 4.72752,6.55714 0.41082,0.30642 -0.64169,2.44539 -2.33891,4.75326 -3.5719,4.85702 -7.53946,6.41417 -9.50256,3.72946 -0.70583,-0.96528 -2.94263,-3.54844 -4.97067,-5.74036 l -3.68735,-3.98531 -8.12373,0.58885 c -5.31468,0.38523 -7.43217,0.26877 -6.12374,-0.33681 1.1,-0.50911 4.46477,-0.95729 7.47727,-0.99594 l 5.47728,-0.0703 -2.62114,-2.62114 c -2.56361,-2.5636 -2.76245,-2.59653 -9.05919,-1.5 C 155.06661,304.22108 152,304.29672 152,303.1446 c 0,-0.47046 2.98905,-1.13451 6.64233,-1.47566 6.27519,-0.58599 8.22934,-1.14356 7.27434,-2.07558 -0.22917,-0.22365 -4.24167,0.21735 -8.91667,0.98001 -4.675,0.76265 -8.725,1.39801 -9,1.4119 -0.275,0.0139 0.82771,0.83159 2.45048,1.8171 2.46101,1.49458 4.03086,1.66177 9.46306,1.0078 4.0396,-0.48633 6.88735,-0.40928 7.49952,0.20289 0.64925,0.64925 -0.77208,0.98694 -4.15404,0.98694 -6.23703,0 -7.16136,1.03576 -3.07729,3.44828 2.51919,1.48812 4.31149,1.70014 9.94562,1.1765 C 174.4971,310.21866 177,310.35276 177,310.99302 177,311.54686 174.675,312 171.83333,312 c -2.84166,0 -4.84621,0.32046 -4.45454,0.71213 0.39167,0.39167 3.39167,0.61697 6.66667,0.50066 3.44146,-0.12222 5.95454,0.2103 5.95454,0.78787 0,0.54964 -1.6875,1.03422 -3.75,1.07684 l -3.75,0.0775 4.67928,1.67249 c 5.88766,2.1044 6.98263,3.17475 3.23739,3.16459 -1.60417,-0.004 -7.79116,-2.23256 -13.74886,-4.95159 z M 191.87976,313 c 1.76797,-2.2 2.80966,-4 2.31486,-4 -0.49479,0 -3.77849,-3.89024 -7.29712,-8.64497 -9.54367,-12.8964 -18.65233,-20.32521 -34.30913,-27.98172 -10.00255,-4.89146 -14.50298,-6.54176 -19.08837,-6.99968 -6.75037,-0.67413 -8.76355,0.57174 -10.45522,6.47025 -0.87458,3.04948 -0.801,3.14308 3.28028,4.17243 15.96242,4.02591 45.11022,22.48062 56.42565,35.72547 2.47073,2.89202 4.81226,5.25822 5.2034,5.25822 0.39114,0 2.15768,-1.8 3.92565,-4 z M 163.797,298.48376 c 0.69947,-0.57565 -10.22363,-7.83082 -18.09026,-12.01563 -5.25531,-2.79567 -8.78863,-4.14464 -9.1833,-3.50606 C 136.17063,283.53293 134.58508,284 133,284 c -1.58508,0 -3.20148,0.51699 -3.592,1.14886 -0.51707,0.83663 0.75784,0.99007 4.69098,0.56458 l 5.40102,-0.58429 -4.32639,1.19098 -4.32639,1.19099 2.45047,2.85179 c 1.68597,1.96208 3.03573,2.66677 4.32639,2.25874 4.18088,-1.32174 11.29694,-2.30288 10.79342,-1.48816 -0.29455,0.47658 -1.74648,0.88681 -3.22652,0.91161 -1.48004,0.0248 -4.04098,0.70262 -5.69098,1.50624 l -3,1.46113 4.5,-0.51392 c 12.44578,-1.42136 14.45016,-1.52722 12.5,-0.66016 -1.1,0.48907 -4.63872,1.21429 -7.86382,1.61159 -4.02645,0.49603 -5.5408,1.0454 -4.83291,1.75329 0.70789,0.70789 3.04094,0.68088 7.44574,-0.0862 12.22449,-2.1288 14.8149,-1.05797 3.15646,1.30482 L 144.5,299.82143 154,299.2748 c 5.225,-0.30064 9.63365,-0.65661 9.797,-0.79104 z M 135,282 c 1.17932,-0.76214 0.96553,-0.95134 -1,-0.88501 -1.375,0.0464 -3.625,0.44466 -5,0.88501 -2.29068,0.7336 -2.20695,0.8077 1,0.88501 1.925,0.0464 4.175,-0.35185 5,-0.88501 z m 7.25,-20.68933 c 0.9625,-0.25152 1.75,-0.87432 1.75,-1.38399 C 144,259.417 144.70156,259 145.55902,259 c 0.85746,0 1.30078,0.41783 0.98517,0.92851 -0.31562,0.51067 0.44532,1.12439 1.69098,1.36381 1.24566,0.23943 0.0148,0.4444 -2.73517,0.4555 -2.75,0.0111 -4.2125,-0.18562 -3.25,-0.43715 z m 2.25,-5.1275 c 0.55,-0.56515 2.8,-1.31341 5,-1.66281 4.87498,-0.77422 2.76787,0.88637 -2.5,1.97023 -2.38918,0.49157 -3.18262,0.394 -2.5,-0.30742 z m 2.5,-3.96919 c 0,-0.55 0.7118,-1.27315 1.58179,-1.60699 C 151.01982,249.67143 154,249.88759 154,251 c 0,0.55 -0.8632,1 -1.91821,1 -1.05502,0 -2.63002,0.27314 -3.5,0.60699 C 147.7118,252.94083 147,252.76398 147,252.21398 z m 3.29047,-5.62586 c 0.26401,-2.63106 1.5359,-3.57464 4.70953,-3.49386 2.39646,0.061 2.37575,0.11026 -0.5,1.1895 l -3,1.12587 2.81036,0.54519 2.81037,0.54518 -3.51989,1.08812 c -3.27299,1.0118 -3.5052,0.94165 -3.31037,-1 z m 68.60415,-9.35079 c -3.51704,-3.16947 -8.44173,-7.40053 -10.94376,-9.40236 -4.48718,-3.59012 -25.19384,-14.73969 -33.95086,-18.28096 -2.97909,-1.20472 -3.92705,-1.96506 -2.80478,-2.24966 3.66449,-0.92929 28.92239,11.87574 40.01379,20.28585 6.61073,5.01262 16.05737,13.33195 16.62432,14.64047 0.18334,0.42313 -0.31408,0.76933 -1.10537,0.76933 -0.79129,0 -4.31629,-2.5932 -7.83334,-5.76267 z M 156.5,239 c 2.73138,-1.17371 3.5,-1.17371 3.5,0 0,0.55 -1.2375,0.96837 -2.75,0.92971 -2.43684,-0.0623 -2.52225,-0.16815 -0.75,-0.92971 z m 0,-4 c 0.33992,-0.55 2.05398,-0.99311 3.80902,-0.98469 2.42807,0.0117 2.83235,0.24708 1.69098,0.98469 -1.98326,1.28168 -6.29212,1.28168 -5.5,0 z m 3.88189,-4.47246 c 0.33992,-0.55 1.82898,-0.99311 3.30902,-0.98469 2.10476,0.012 2.36421,0.22649 1.19098,0.98469 -1.97586,1.2769 -5.28917,1.2769 -4.5,0 z m 45.2251,-128.10933 c -0.88062,-2.29486 -0.71777,-5.694612 0.35395,-7.38925 1.50047,-2.37259 2.22417,-0.529327 0.91784,2.337751 -1.01033,2.217435 -0.91442,2.936429 0.61754,4.629229 1.5336,1.6946 1.57462,2.00406 0.26566,2.00406 -0.8514,0 -1.82115,-0.7118 -2.15499,-1.58179 z M 292,103 c 0.825,-0.53316 3.075,-0.96937 5,-0.96937 2.62454,0 3.1248,0.24247 2,0.96937 -0.825,0.53316 -3.075,0.96937 -5,0.96937 -2.62454,0 -3.1248,-0.24247 -2,-0.96937 z m 8.00003,-3.75 c 4e-5,-1.028211 6.6412,-6.25 7.94886,-6.25 0.58066,0 -0.61405,1.575 -2.65491,3.5 -3.61058,3.405606 -5.29401,4.28008 -5.29395,2.75 z m 9.50552,-11.256131 c 0.99854,-1.103372 2.03241,-1.789246 2.29749,-1.524166 C 312.47497,87.141636 309.98082,90 308.72257,90 c -0.5679,0 -0.21556,-0.902759 0.78298,-2.006131 z m 3.9538,-5.957777 c 1.62764,-1.072901 3.20193,-1.708144 3.49843,-1.41165 0.76537,0.765373 -3.03206,3.37686 -4.89891,3.368969 -0.93827,-0.004 -0.38073,-0.783192 1.40048,-1.957319 z m 5.01366,-4.079766 C 318.14793,77.430347 318.09672,77 318.3592,77 c 0.26247,0 1.18903,-0.273145 2.05901,-0.606989 C 321.2882,76.059167 322,76.236022 322,76.786022 c 0,1.399043 -2.80948,2.331266 -3.52699,1.170304 z M 327,75.940983 c 0,-0.582459 0.45,-0.780902 1,-0.440983 0.55,0.339919 1,0.816476 1,1.059017 C 329,76.801558 328.55,77 328,77 c -0.55,0 -1,-0.476558 -1,-1.059017 z m -3.1875,-0.624097 c 0.72187,-0.288871 1.58438,-0.253344 1.91667,0.07895 0.33229,0.332292 -0.25834,0.568641 -1.3125,0.52522 -1.16495,-0.04798 -1.4019,-0.284941 -0.60417,-0.60417 z"
     id="path3916"
     inkscape:connector-curvature="0"
     sodipodi:nodetypes="cssssssssssssssssssscsscssssssssssscssssssssssssssscsscccaccssssssssssssssssssscssssssssssssssssssssssssssscsssssssssssscsssscccsssssssscsscsssssccsscsccssssssssssssssssssssssssssssssssssssssssscssssssssssssssssssssssssscsssscscsssssssssscssssssssscssscscsscsssssssssssscssssssscccssssscscssssssssssscsscscccssssssscssssssssssssssssssssscsssssssssssssssssssssssscssssssssssssssssssssssssscssssccsssssssssscsssscsssssssssssssssssssssscssssssssssssscssscsssssscsssssssssssscscccsssssssssscssssscccsscsscsssssscscsssssssscssssssssssscsssscccssssssscssssssscssscssssssssssssssssssssssscscssscsssssssss" />
</svg>
