<?xml version="1.0" encoding="UTF-8" standalone="no"?>
<!-- Created with Inkscape (http://www.inkscape.org/) -->

<svg
   xmlns:dc="http://purl.org/dc/elements/1.1/"
   xmlns:cc="http://creativecommons.org/ns#"
   xmlns:rdf="http://www.w3.org/1999/02/22-rdf-syntax-ns#"
   xmlns:svg="http://www.w3.org/2000/svg"
   xmlns="http://www.w3.org/2000/svg"
   xmlns:sodipodi="http://sodipodi.sourceforge.net/DTD/sodipodi-0.dtd"
   xmlns:inkscape="http://www.inkscape.org/namespaces/inkscape"
   id="svg3037"
   version="1.1"
   inkscape:version="0.48.4 r9939"
   width="273"
   height="392"
   sodipodi:docname="Uniform.png">
  <metadata
     id="metadata3043">
    <rdf:RDF>
      <cc:Work
         rdf:about="">
        <dc:format>image/svg+xml</dc:format>
        <dc:type
           rdf:resource="http://purl.org/dc/dcmitype/StillImage" />
        <dc:title></dc:title>
      </cc:Work>
    </rdf:RDF>
  </metadata>
  <defs
     id="defs3041" />
  <sodipodi:namedview
     pagecolor="#ffffff"
     bordercolor="#666666"
     borderopacity="1"
     objecttolerance="10"
     gridtolerance="10"
     guidetolerance="10"
     inkscape:pageopacity="0"
     inkscape:pageshadow="2"
     inkscape:window-width="1281"
     inkscape:window-height="743"
     id="namedview3039"
     showgrid="false"
     inkscape:zoom="0.65816327"
     inkscape:cx="200.76919"
     inkscape:cy="336.81258"
     inkscape:window-x="0"
     inkscape:window-y="22"
     inkscape:window-maximized="0"
     inkscape:current-layer="svg3037" />
  <path
     style="fill:#0c23ad;fill-opacity:1;stroke:none"
     d="m 44.821705,42.352713 32.85659,-9.116279 5.697674,0 19.941861,-4.178295 7.5969,-3.988372 5.50775,-8.736434 C 121.52411,10.71109 126.82705,5.2901625 134.74325,2.4824892 l 33.52807,5.4942546 c 7.95396,7.5833932 13.24421,16.0546842 19.18217,24.3100772 5.44451,5.317798 13.90967,9.125268 16.33333,15.953489 l 7.21706,2.848837 4.17829,-8.166667 c 8.56392,-1.469037 14.29503,3.294083 21.27132,5.31783 l 0.30118,3.974874 16.79184,1.732345 c 4.33124,0.03254 5.65756,6.82616 7.21706,13.095106 l -0.37985,108.255815 3.03876,1.89922 -2.27907,29.43799 -1.32946,160.29457 c 2.0992,2.93822 -2.77843,5.35318 -15.00387,7.21706 -10.88432,1.0795 -19.44392,-4.23399 -29.05814,-6.64729 l -0.56977,-33.42636 c -22.34754,1.74012 -44.69509,-0.21801 -67.04263,-1.13953 l -7.78683,3.98837 c -20.25404,-0.3819 -39.11003,-6.35603 -58.663002,-9.5422 L 66.162147,316.7772 c -0.930608,15.96841 -9.704455,32.80588 -15.262922,48.44373 -2.415269,3.21478 -10.624883,2.80809 -24.5,-1.13953 -8.312914,-3.86176 -14.660522,-7.72352 -16.903101,-11.58528 L 25.829457,190.68217 c 2.089147,-9.11629 2.790663,-29.20502 6.267442,-27.34884 1.241068,-36.58232 -1.037321,-71.844852 5.31783,-110.344958 z"
     id="path3049"
     inkscape:connector-curvature="0"
     sodipodi:nodetypes="cccccccccccccccccccccccccccccccccc" />
  <path
     style="fill:#8c7955;fill-opacity:1;stroke:none"
     d="m 67.684919,53.843996 c -0.167958,-4.22574 2.879885,-4.967696 6.983365,-4.566046 l 3.223091,8.057729 c -3.586368,0.55546 -7.610551,5.197184 -10.206456,-3.491683 z"
     id="path3819"
     inkscape:connector-curvature="0"
     sodipodi:nodetypes="cccc" />
  <path
     style="fill:#8c7955;fill-opacity:1;stroke:none"
     d="m 132.54963,94.669821 c 0.30814,-2.689824 1.89305,-4.791382 6.44619,-4.297456 2.3162,2.077429 4.76607,4.103444 2.55161,7.923433 -3.01709,1.61511 -6.68202,2.824052 -8.9978,-3.625977 z"
     id="path3821"
     inkscape:connector-curvature="0"
     sodipodi:nodetypes="cccc" />
  <path
     style="fill:#8c7955;fill-opacity:1;stroke:none"
     d="m 134.69836,139.12162 c 1.05623,-2.09716 -2.04974,-4.59072 5.77471,-6.04329 3.12262,2.41732 4.01794,4.83463 4.29745,7.25195 -2.61563,1.55265 -3.79801,6.88389 -10.07216,-1.20866 z"
     id="path3823"
     inkscape:connector-curvature="0"
     sodipodi:nodetypes="cccc" />
  <path
     style="fill:#8c7955;fill-opacity:1;stroke:none"
     d="m 137.92145,184.64779 c -1.20693,-4.56131 2.1614,-6.45371 5.10323,-8.59491 3.00523,2.59519 3.97097,5.59827 1.61155,9.26639 -3.53111,3.87019 -5.31101,2.19488 -6.71478,-0.67148 z"
     id="path3825"
     inkscape:connector-curvature="0"
     sodipodi:nodetypes="cccc" />
  <path
     style="fill:#8c7955;fill-opacity:1;stroke:none"
     d="m 137.78716,224.26495 c -3.33722,-3.58679 4.01574,-6.099 4.56604,-5.64041 2.41233,1.79914 4.24091,3.84846 4.16316,6.71478 -3.02309,2.47587 -6.05479,5.16687 -8.7292,-1.07437 z"
     id="path3827"
     inkscape:connector-curvature="0"
     sodipodi:nodetypes="cccc" />
  <path
     style="fill:#8c7955;stroke:none;stroke-width:1px;stroke-linecap:butt;stroke-linejoin:miter;stroke-opacity:1;fill-opacity:1"
     d="m 75.474056,213.9242 5.506115,-1.88014 1.074364,6.44619 z"
     id="path3829"
     inkscape:connector-curvature="0" />
  <path
     style="fill:#8c7955;fill-opacity:1;stroke:none"
     d="m 210.17242,218.89314 c -0.9551,-2.06421 -0.74018,-4.32036 2.55161,-4.96894 1.144,1.11747 3.59534,1.36338 2.82021,3.76027 -0.79477,2.31053 -3.151,2.46326 -5.37182,1.20867 z"
     id="path3831"
     inkscape:connector-curvature="0"
     sodipodi:nodetypes="cccc" />
  <path
     style="fill:#8c7955;fill-opacity:1;stroke:none"
     d="m 213.09302,69.511628 c -1.07154,-4.542665 -0.57615,-8.145177 5.8876,-8.166667 4.76092,0.769087 2.45946,5.767071 3.22868,8.926356 -3.88987,3.718627 -6.74085,2.5891 -9.11628,-0.759689 z"
     id="path3833"
     inkscape:connector-curvature="0"
     sodipodi:nodetypes="cccc" />
  <path
     style="fill:#000000"
     d="m 224.74031,371.25325 c -4.95,-1.98681 -9.13775,-3.71555 -9.30612,-3.84164 -0.36402,-0.27264 -0.87432,-11.57887 -1.06043,-23.49481 l -0.13345,-8.54444 -18.46775,0.41588 c -10.15726,0.22874 -24.89476,-0.10047 -32.75,-0.73159 -13.60507,-1.09307 -14.47008,-1.05141 -18.24369,0.87856 -4.40994,2.25541 -13.62714,2.73151 -19.54516,1.00958 -5.43537,-1.5815 -25.444072,-4.98355 -29.310062,-4.98355 -6.46314,0 -16.37806,-3.84911 -23.18355,-9.00016 -5.26467,-3.98481 -6.49979,-4.56409 -6.49979,-3.04842 0,3.25958 -4.88622,22.70064 -7.35183,29.25113 -6.00525,15.95438 -8.55905,19.80494 -13.12041,19.78267 -12.65115,-0.0618 -38.1257897,-12.07675 -37.0432197,-17.47125 0.82819,-4.12692 3.5498997,-29.61918 5.0728797,-47.51397 0.86597,-10.175 2.20214,-21.26423 2.96927,-24.64274 1.98964,-8.76257 5.9699,-51.38014 7.97192,-85.35726 0.51216,-8.69195 1.81644,-17.17232 4.6909,-30.5 0.59661,-2.76624 1.25402,-19.96617 1.47153,-38.5 0.25864,-22.0388 0.87586,-36.579129 1.80407,-42.5 0.776,-4.95 1.71714,-12.375 2.09142,-16.5 1.08919,-12.004207 3.76185,-19.26071 8.6281,-23.426039 4.30918,-3.688502 9.53906,-5.357643 12.55784,-4.007898 1.49397,0.667976 1.38263,0.842773 -0.74247,1.165612 -8.27557,1.257203 -13.90696,5.832365 -15.99008,12.990991 -0.60456,2.077534 -2.03042,10.302334 -3.16859,18.277334 -1.65491,11.595726 -2.20768,22.211351 -2.75979,53 -0.37972,21.175 -0.43906,38.725 -0.13188,39 0.30718,0.275 3.24518,3.8635 6.52887,7.97445 3.2837,4.11094 7.73841,9.24249 9.89936,11.40344 l 3.929,3.929 -1.16843,11.9403 c -0.64264,6.56717 -1.63944,12.82039 -2.21512,13.89605 -0.99829,1.86532 -1.2866,1.78431 -6.23501,-1.75184 -2.85358,-2.03918 -7.90976,-6.08646 -11.23596,-8.99395 l -6.04762,-5.28635 -1.23236,17.69445 c -1.96112,28.1584 -4.10184,49.7939 -6.15381,62.19445 -1.04662,6.325 -2.61454,19.6 -3.48426,29.5 -0.86973,9.9 -2.30497,24.20328 -3.18942,31.78506 -0.88446,7.58179 -1.43638,13.91613 -1.2265,14.07632 0.20988,0.16018 5.1066,1.31431 10.8816,2.56472 5.775,1.25041 14.4351,3.74007 19.24466,5.53258 6.20775,2.31362 9.00343,2.93742 9.63665,2.15022 2.97159,-3.69418 9.41365,-22.79071 11.50638,-34.1089 0.81355,-4.4 1.77654,-8.77252 2.13997,-9.71672 0.44453,-1.1549 -0.57438,-3.22407 -3.11341,-6.32262 l -3.77419,-4.6059 1.74883,-9.12286 c 0.96186,-5.01757 2.14154,-13.87239 2.62151,-19.67738 0.9286,-11.23101 1.92976,-17.0399 5.00749,-29.05452 1.05669,-4.125 2.63266,-11.95328 3.50217,-17.39619 l 1.58093,-9.89618 -3.5505,-2.92662 c -1.95277,-1.60964 -3.55049,-3.51165 -3.55049,-4.2267 0,-1.92764 4.00906,-10.69801 6.14323,-13.43917 1.70742,-2.19303 1.85677,-4.62338 1.85677,-30.21454 0,-30.81634 -1.31286,-41.69955 -6.52374,-54.07977 -3.77713,-8.97384 -5.44263,-16.29747 -5.46064,-24.011809 -0.0243,-10.401437 1.66043,-8.909599 2.21782,1.96391 0.42127,8.218189 1.05302,11.053119 4.07257,18.275479 6.04424,14.45698 7.45291,24.41992 8.05246,56.95159 0.28889,15.675 0.55141,28.5776 0.58339,28.67245 0.032,0.0948 1.74564,0.7216 3.80814,1.39278 7.03381,2.28896 20.264652,8.80936 20.821842,10.26138 0.3057,0.79664 -0.960852,4.53655 -2.814542,8.31091 l -3.37035,6.86248 -5.26352,0.30469 c -2.89493,0.16758 -7.47143,-0.34254 -10.16999,-1.13361 l -4.90648,-1.43829 -0.57734,3.63361 c -0.68667,4.32174 -3.8459,20.0829 -6.54121,32.6336 -1.06303,4.95 -2.38303,14.35649 -2.93333,20.90331 -0.55031,6.54682 -1.43187,13.52182 -1.95903,15.5 -2.13079,7.9958 -1.70075,10.55037 2.74644,16.31476 9.07336,11.76075 15.45009,14.97408 35.333752,17.8052 7.91107,1.12641 17.08376,2.72672 20.38376,3.55624 7.81856,1.96534 21.30205,2.04701 23.20849,0.14057 0.77183,-0.77183 1.6364,-3.83709 1.92128,-6.8117 1.53839,-16.06344 3.0838,-62.41302 3.29784,-98.90838 0.13386,-22.825 0.54242,-46.92341 0.90789,-53.55203 0.36548,-6.62861 0.32624,-22.37861 -0.0872,-35 -0.41343,-12.62138 -0.89794,-28.91095 -1.07669,-36.19904 -0.30429,-12.406747 -0.4794,-13.41792 -2.7483,-15.869649 -6.59154,-7.12268 -18.28307,-10.958539 -30.66338,-10.060305 -8.47163,0.614646 -14.07144,-0.626396 -16.487692,-3.654036 -2.34037,-2.932554 -2.20823,-5.454586 0.72578,-13.852372 1.373902,-3.932428 2.308722,-7.33916 2.077372,-7.570516 -0.23136,-0.231355 -3.492962,1.362603 -7.248022,3.542128 -3.75505,2.179526 -7.72737,4.251053 -8.82737,4.603394 -1.1,0.352341 -4.01431,3.334277 -6.47624,6.626523 -5.20702,6.96313 -7.26851,7.465926 -12.34303,3.010445 -2.69644,-2.367513 -3.81613,-4.56395 -5.48005,-10.75 -2.44552,-9.091819 -3.4258,-16.529415 -2.60803,-19.787655 0.31975,-1.273978 1.85033,-2.841947 3.40129,-3.484378 4.72389,-1.956698 19.47104,-4.850289 20.04375,-3.932856 0.29573,0.473734 2.94337,0.226729 5.88364,-0.5489 2.94027,-0.775629 7.74017,-1.709372 10.66644,-2.074986 3.184192,-0.397838 6.615102,-1.619889 8.544752,-3.043536 1.77334,-1.308332 3.43311,-2.169935 3.68837,-1.914674 0.85258,0.852575 -2.14352,3.638344 -9.83745,9.14687 -7.740772,5.542057 -13.964042,12.681566 -16.643082,19.093399 -2.47688,5.928005 -0.48443,6.078525 9.33872,0.705502 13.454442,-7.35925 16.351392,-8.736188 17.005012,-8.082573 0.86647,0.866472 -1.67403,3.649245 -3.33153,3.649245 -0.77141,0 -1.67443,1.359364 -2.00672,3.020809 -0.33229,1.661446 -0.99769,3.264024 -1.47867,3.561286 -0.48098,0.297262 -0.61146,1.750397 -0.28996,3.22919 0.39888,1.834687 0.2853,2.264821 -0.35759,1.35418 -0.73402,-1.03973 -1.06264,-0.873748 -1.48762,0.75138 -0.30002,1.147253 -0.13745,1.833736 0.36126,1.525518 1.51376,-0.935557 1.01264,1.224858 -0.59326,2.557637 -1.954642,1.622206 -1.917942,5.439206 0.0714,7.428571 1.16557,1.165576 3.68371,1.58044 9.75,1.606317 16.06428,0.06853 27.58558,3.339263 34.4935,9.792229 2.84403,2.656725 3.18507,2.762804 3.18507,0.990706 0,-3.453274 -4.04246,-17.978823 -6.18692,-22.23112 -1.13352,-2.247687 -4.89501,-8.198204 -8.35887,-13.223371 -7.35327,-10.667704 -9.80148,-15.22557 -11.43322,-21.285393 -2.30287,-8.552209 2.65192,-17.789163 10.74023,-20.0224551 2.4026,-0.66339 4.01853,-0.675736 4.65867,-0.03559 1.39499,1.39499 3.49051,1.212566 5.15154,-0.448463 2.15596,-2.155962 1.87522,-2.371711 -4.04937,-3.111939 -4.55489,-0.569097 -6.19778,-0.314106 -9.75,1.513283 -4.64287,2.388465 -10.17479,7.9775081 -14.81996,14.9730081 -2.06082,3.103537 -2.95011,3.858322 -2.94551,2.5 0.0152,-4.483048 10.76345,-16.7286801 17.40196,-19.8262601 l 5.09148,-2.375714 15.07358,2.261185 c 8.29047,1.243651 16.42429,2.959662 18.07515,3.813357 3.6591,1.892195 7.96797,6.7062171 15.8141,17.6680721 4.04605,5.65274 8.00517,9.799909 12.31621,12.901201 2.41783,1.73935 4.64146,3.720294 6.5037,5.77134 1.26731,1.395798 2.36726,2.824063 3.24714,4.230743 l 5.65714,2.119845 -2.25967,3.311728 1.13138,-2.91064 c 0.62225,-1.600852 1.53053,-3.93121 2.01839,-5.178573 1.5731,-4.02211 5.47989,-4.64478 13.92288,-2.219044 4.125,1.185144 8.2875,2.37237 9.25,2.63828 1.05933,0.292661 1.75,1.451065 1.75,2.935137 0,2.07919 0.35969,2.361386 2.36755,1.857446 3.44152,-0.863766 13.32558,1.199843 16.44721,3.433875 1.55626,1.113753 3.5183,4.171181 4.66665,7.271979 1.8093,4.885515 1.99151,8.086478 2.09759,36.850261 0.17033,46.183309 -0.74348,74.226279 -2.43706,74.788149 -1.05674,0.35059 -1.21582,-0.40798 -0.71698,-3.4188 0.3526,-2.12814 0.72118,-25.91935 0.81906,-52.86935 0.16311,-44.907457 0.0274,-49.432458 -1.62452,-54.177813 -2.60741,-7.490031 -4.07367,-8.447068 -13.87884,-9.058791 l -8.36456,-0.521847 -1.30642,5.879226 c -2.12353,9.556407 -7.37092,18.379225 -10.93109,18.379225 -1.09336,0 -0.79943,-0.762432 1.06016,-2.75 3.40268,-3.636858 5.64956,-8.225938 7.92739,-16.191082 2.81984,-9.860473 2.99256,-9.532624 -6.59648,-12.521158 -10.19931,-3.178735 -11.21099,-2.831351 -14.43956,4.958159 -2.01476,4.860956 -2.16556,5.99456 -1.06984,8.04194 1.12779,2.107292 1.76796,2.315843 5.52708,1.800598 3.70663,-0.50805 4.40653,-0.293166 5.46069,1.676554 1.34025,2.504266 0.73897,8.379985 -1.08208,10.574219 -1.65027,1.988453 -6.30611,1.753172 -8.27096,-0.417971 -0.91025,-1.005807 -1.65499,-3.255807 -1.65499,-5 0,-4.182456 -2.5408,-4.217281 -3.375,-0.04626 -1.00472,5.0236 -0.73397,8.562197 0.98358,12.854764 0.88472,2.211131 1.79917,4.020237 2.03212,4.020237 1.32664,0 8.07196,-3.333445 9.68892,-4.788138 1.80889,-1.627356 1.88475,-1.613132 1.5366,0.288138 -0.41645,2.27432 -8.26475,6.584273 -11.34183,6.228452 -3.8679,-0.447269 -7.16259,-14.798929 -4.52764,-19.722375 0.86541,-1.617037 0.28322,-2.189102 -4.41837,-4.341563 -2.97832,-1.363518 -8.18653,-4.361155 -11.57382,-6.661416 -3.38728,-2.300261 -6.41247,-3.928524 -6.72263,-3.618361 -0.31016,0.310163 1.68798,2.712982 4.44031,5.339598 4.35738,4.158338 11.20478,13.98886 10.14925,14.570837 -0.20432,0.112655 -1.49343,0.839486 -2.86468,1.615178 -1.37126,0.775693 -4.74626,1.554038 -7.5,1.729657 -13.73786,0.876122 -28.89843,6.929279 -32.94793,13.155109 -4.18793,6.438655 -4.68758,10.456045 -3.52753,28.362564 0.67364,10.39824 0.84002,38.52943 0.45745,77.34232 -0.54564,55.35684 -1.01669,73.94434 -3.10653,122.58155 l -0.66951,15.58156 13.89362,1.0599 c 27.87664,2.12663 50.93954,1.31657 60.89362,-2.13881 3.92736,-1.36332 4.00568,-1.48565 4.31293,-6.73637 0.33885,-5.79083 -0.23077,-11.54629 -4.83455,-48.84783 -1.66309,-13.475 -3.30599,-30.4625 -3.65087,-37.75 -0.34489,-7.2875 -0.77037,-13.25 -0.94552,-13.25 -0.17514,0 -3.86326,1.73226 -8.19581,3.84947 -5.69507,2.78304 -8.74841,3.72163 -11.02157,3.388 -1.72931,-0.25381 -2.8927,-0.86841 -2.58531,-1.36578 0.30739,-0.49737 0.9778,-0.64542 1.4898,-0.32898 1.35877,0.83976 1.1537,-0.16662 -0.88283,-4.33255 -0.99755,-2.04059 -2.40032,-6.11631 -3.11727,-9.05717 -1.0905,-4.4731 -1.08008,-5.55811 0.0637,-6.63859 1.4286,-1.3495 22.06959,-10.5144 23.68032,-10.5144 1.31533,0 2.07406,-5.35329 3.18894,-22.5 1.16794,-17.96269 3.74297,-34.73232 7.8312,-51 4.14123,-16.4786 7.153,-35.153734 7.2371,-44.875327 0.0473,-5.468738 0.35123,-7.470878 0.92971,-6.124673 2.42323,5.639156 -0.0125,26.55127 -5.9453,51.04451 -4.21887,17.41727 -7.02089,35.80795 -8.06835,52.95549 -0.50395,8.25 -1.182,16.575 -1.50677,18.5 -0.4504,2.66964 0.25303,5.50765 2.96497,11.96227 1.9555,4.65425 3.55545,8.55505 3.55545,8.66844 0,0.1134 -1.64146,1.22065 -3.64769,2.46057 l -3.64769,2.25439 0.62028,13.57717 c 0.34115,7.46744 1.05033,16.95216 1.57594,21.07716 0.52562,4.125 1.46654,12 2.09095,17.5 1.13401,9.98883 3.16237,26.24366 5.0675,40.60987 0.55504,4.18544 0.71868,9.42643 0.36365,11.64667 -0.62513,3.90933 -0.83932,4.10077 -6.78422,6.06359 l -6.13872,2.02681 0.2451,15.2383 c 0.1348,8.38106 0.47346,15.46665 0.75256,15.74576 0.27911,0.2791 7.14382,0.33581 15.25491,0.12601 8.11108,-0.2098 17.37869,-0.39845 20.59467,-0.41923 l 5.84724,-0.0378 -0.65978,-53 c -0.803,-64.5056 -0.78557,-96.64582 0.0548,-101.12566 0.66153,-3.52623 -0.46408,-4.43538 -2.48162,-2.00439 -1.67006,2.0123 -12.93675,6.85388 -14.17237,6.09022 -2.05205,-1.26823 -2.9112,-5.62646 -3.103,-15.74061 -0.20912,-11.02712 0.68751,-14.12883 4.41638,-15.27762 1.23808,-0.38143 5.07806,-2.65697 8.53329,-5.05676 7.11318,-4.94038 10.60244,-6.18983 11.81354,-4.23022 1.4523,2.34986 0.48268,24.63448 -1.26977,29.18305 -2.13174,5.533 -2.72052,49.43915 -1.55103,115.66199 0.72899,41.27941 0.64557,48.75167 -0.56032,50.19044 -2.40539,2.86992 -10.01225,4.81287 -18.64279,4.76175 -6.87906,-0.0407 -9.40182,-0.58162 -17.07186,-3.66018 z m 31.30647,-0.92079 c 3.62573,-1.57889 3.64764,-1.6216 1.19353,-2.3261 -3.40024,-0.97612 -31.35346,0.001 -30.29543,1.05945 0.46406,0.46406 2.63288,1.52899 4.81959,2.3665 4.95277,1.89692 18.84567,1.26765 24.28231,-1.09985 z M 47.844168,364.46234 c -1.04287,-0.78942 -4.64287,-2.34091 -8,-3.44776 -6.16845,-2.03376 -26.60386,-7.05867 -26.60386,-6.54168 0,1.09215 10.67875,6.64794 16,8.32425 3.575,1.1262 7.175,2.26332 8,2.52692 0.825,0.2636 3.975,0.50049 7,0.52642 4.98809,0.0428 5.32352,-0.0865 3.60386,-1.38815 z M 205.47747,226.9122 c 2.76678,-0.76838 16.29855,-7.64035 18.48911,-9.38949 0.32941,-0.26303 -3.58779,-10.39299 -5.29711,-13.69846 l -1.45929,-2.82195 -4.73493,1.88731 c -2.60422,1.03803 -7.74479,3.24756 -11.42349,4.91008 l -6.68856,3.02276 1.03732,3.8194 c 1.3698,5.0436 4.92156,13.32085 5.71293,13.31381 0.34477,-0.003 2.30858,-0.47262 4.36402,-1.04346 z m 3.80852,-7.39592 c -0.65956,-0.79472 -1.05216,-2.48222 -0.87244,-3.75 0.24875,-1.75472 1.06333,-2.37692 3.41193,-2.60611 4.13197,-0.40321 6.13459,1.92596 4.58329,5.33068 -1.27801,2.80493 -5.17975,3.36664 -7.12278,1.02543 z m 5.70461,-2.30451 c 0.54676,-1.64213 -2.58648,-2.81434 -3.93038,-1.47044 -0.5751,0.5751 -0.7279,1.55977 -0.33954,2.18815 0.88355,1.42961 3.71332,0.95397 4.26992,-0.71771 z m -3.75029,-0.25053 c 0,-0.55 0.45,-1 1,-1 0.55,0 1,0.45 1,1 0,0.55 -0.45,1 -1,1 -0.55,0 -1,-0.45 -1,-1 z m -115.494782,0.98909 c 1.77977,-3.72373 2.51562,-6.35924 1.93387,-6.92632 -0.5165,-0.50347 -5.84542,-3.00473 -11.84205,-5.55834 -10.52761,-4.4831 -10.96438,-4.58031 -12.68662,-2.82369 -0.98101,1.00059 -2.66061,4.06926 -3.73244,6.81926 l -1.94879,5 2.32351,1.75 c 1.27794,0.9625 3.02637,1.75 3.88541,1.75 0.85904,0 1.56189,0.43417 1.56189,0.96482 0,1.46399 3.71516,3.14653 8.87168,4.01786 8.65452,1.46241 8.52032,1.52002 11.63354,-4.99359 z m -19.85023,0.18217 c -2.95964,-3.27037 -1.41206,-7.17126 2.84501,-7.17126 2.68046,0 4.5,1.81954 4.5,4.5 0,4.34869 -4.38404,5.94309 -7.34501,2.67126 z m 4.99993,-3.62813 c -0.32568,-0.84872 -1.16877,-1.5076 -1.87353,-1.46418 -1.00365,0.0618 -1.01045,0.18827 -0.0314,0.58333 0.6875,0.27741 1.25,1.21689 1.25,2.08772 0,0.87083 0.28059,1.30274 0.62354,0.95979 0.34294,-0.34294 0.35706,-1.31794 0.0314,-2.16666 z m 170.345082,-4.54691 c 3.025,-1.63365 6.27641,-3.2507 7.22536,-3.59343 0.94895,-0.34274 1.98757,-2.03608 2.30805,-3.76298 1.65905,-8.93973 1.3747,-9.56694 -2.87337,-6.33809 -3.66025,2.78205 -9.09036,5.69828 -10.61038,5.69828 -0.57731,0 -1.04966,-1.8 -1.04966,-4 0,-2.2 0.36591,-4 0.81314,-4 0.69303,0 13.80859,-7.52177 15.1476,-8.68715 0.56662,-0.49314 0.30373,-8.38171 -0.29942,-8.98487 -0.23937,-0.23936 -3.79024,1.75498 -7.89084,4.43188 -4.10059,2.67689 -8.85676,5.44745 -10.56926,6.15679 l -3.11364,1.28971 0.36112,9.64682 c 0.43719,11.67906 1.21994,15.15241 3.40971,15.13007 0.90287,-0.009 4.11659,-1.35338 7.14159,-2.98703 z m -201.084472,-10.89182 1.10762,-10.3956 -5.51532,-7.1044 c -14.74792,-18.99709 -15.50783,-19.59389 -15.50783,-12.17924 0,4.17097 0.41566,4.83348 7.23585,11.53309 6.39304,6.28002 7.19855,7.48262 6.91573,10.32484 -0.3946,3.96548 -1.55758,5.30927 -3.31856,3.83452 -2.50897,-2.10117 -12.033,-8.11761 -12.85017,-8.11761 -1.17988,0 -1.69237,2.06872 -1.17847,4.75702 0.52478,2.74518 20.04458,19.81805 21.22673,18.56582 0.42724,-0.45256 1.27522,-5.50086 1.88442,-11.21844 z M 163.68361,78.395779 c 8.98336,-4.145875 17.83707,-6.434539 24.89203,-6.434539 3.05065,0 5.8408,-0.475974 6.20034,-1.057719 0.97877,-1.583681 -3.90604,-8.375222 -11.64715,-16.193487 -3.78868,-3.82645 -6.88852,-7.829264 -6.88852,-8.895142 0,-1.802552 0.33189,-1.745436 4.75,0.817438 2.6125,1.515468 7.29656,4.387887 10.40903,6.383152 3.11247,1.995266 7.16247,4.176789 9,4.847829 1.83753,0.67104 4.63942,1.881641 6.22641,2.690225 1.587,0.808583 3.07896,1.276636 3.31548,1.040118 0.48884,-0.488845 -4.65734,-10.753298 -7.43748,-14.834608 -1.01238,-1.486206 -4.72929,-4.861206 -8.25979,-7.5 -3.5305,-2.638793 -7.68703,-6.597806 -9.23674,-8.797806 -1.54971,-2.2 -4.58524,-6.531884 -6.74562,-9.626409 C 170.21493,9.3087659 166.07076,7.0494209 152.23406,6.6449629 c -9.10406,-0.26612 -8.98159,1.85955 0.15126,2.625215 9.16903,0.7686981 10.99861,2.3777391 11.65116,10.2467281 0.25882,3.120981 -0.0702,8.090843 -0.73109,11.044138 -0.66092,2.953296 -1.22422,5.714006 -1.25178,6.134912 -0.0276,0.420906 -0.65458,1.628287 -1.39337,2.683068 -1.14474,1.634334 -1.10852,2.089438 0.24501,3.079165 2.18108,1.594841 0.46967,4.636065 -4.1391,7.355305 -3.75416,2.215007 -4.61427,4.147746 -1.84584,4.147746 1.11772,0 0.32518,1.159673 -2.36799,3.464923 -5.15529,4.412736 -5.76121,7.484994 -3.30065,16.735611 1.06786,4.014706 1.95715,8.874466 1.97619,10.799466 l 0.0346,3.5 2.6822,-3.404376 c 1.65814,-2.104584 5.37646,-4.647789 9.73892,-6.661085 z m 56.58317,-8.483992 c 0.60326,-1.1272 0.95659,-3.2647 0.78518,-4.75 -0.24644,-2.13545 -0.90936,-2.768908 -3.16806,-3.027238 -1.86003,-0.212733 -2.62278,0.05135 -2.18662,0.757063 0.36839,0.596064 -0.0337,1.35372 -0.89359,1.68368 -2.11122,0.810152 -1.98603,5.040396 0.18662,6.305849 2.65521,1.54652 4.06902,1.286787 5.27647,-0.969354 z m -3.97061,-2.510012 c 1.32248,-1.407706 2.56846,-2.067576 2.76886,-1.466378 0.50629,1.518878 -1.74887,4.025843 -3.62148,4.025843 -1.18041,0 -0.97632,-0.612642 0.85262,-2.559465 z M 78.006818,65.377074 c 3.13351,-3.99249 4.11645,-6.033984 3.70143,-7.687573 -0.3108,-1.23832 0.12881,-3.912239 0.97692,-5.942044 1.14068,-2.730028 1.28345,-4.370611 0.54858,-6.303485 -0.54639,-1.437112 -0.99344,-4.608636 -0.99344,-7.047832 0,-2.439195 -0.40029,-4.4349 -0.88953,-4.4349 -3.88859,0 -17.98488,3.497781 -19.46773,4.830622 -1.55665,1.399179 -1.75327,2.559586 -1.21478,7.169378 0.77423,6.627838 4.03365,17.944637 5.79745,20.128936 1.38099,1.710223 5.89154,4.917113 6.7471,4.797022 0.29012,-0.04072 2.44742,-2.520279 4.794,-5.510124 z m -9.47726,-7.665834 c -4.37415,-4.779027 -3.80797,-7.461686 2.04439,-9.686749 2.38638,-0.907301 3.10582,-0.7147 5.21723,1.396706 3.04073,3.04073 3.30986,8.009028 0.51487,9.504859 -3.02897,1.621058 -5.53989,1.228812 -7.77649,-1.214816 z m 7.3736,-1.31377 c 0.83597,-2.178505 -1.2894,-6.43623 -3.21284,-6.43623 -1.63633,0 -4.45001,2.276121 -4.45001,3.599831 0,1.532483 3.38007,4.400169 5.18637,4.400169 1.03202,0 2.14643,-0.703696 2.47648,-1.56377 z m -5.20397,-1.502761 c -0.94391,-1.52729 -0.19643,-1.939104 2.32354,-1.280116 1.2073,0.315715 1.94859,0.972867 1.64732,1.460337 -0.75571,1.222753 -3.17154,1.113108 -3.97086,-0.180221 z m 74.086092,4.218317 c -1.57938,-1.546257 -1.60519,-1.468848 -0.40388,1.211635 0.70581,1.574881 1.46504,2.318185 1.68717,1.651786 0.22214,-0.6664 -0.35535,-1.954939 -1.28329,-2.863421 z m 1.30974,-5.826846 c -1.46959,-1.770747 -3.15227,-0.263946 -2.27071,2.033366 0.50742,1.322327 0.95495,1.439297 2.04511,0.534539 1.07846,-0.895041 1.12972,-1.478508 0.2256,-2.567905 z m -3.28918,-4.007723 c -0.66388,-1.723382 -0.75099,-1.726444 -1.6869,-0.0593 -1.20512,2.146685 -0.14,4.403451 1.36702,2.89643 0.56095,-0.560953 0.7049,-1.837663 0.31988,-2.83713 z m 5.93447,1.682783 c -0.33992,-0.55 -1.06803,-1 -1.61803,-1 -0.55,0 -0.72189,0.45 -0.38197,1 0.33992,0.55 1.06803,1 1.61803,1 0.55,0 0.72189,-0.45 0.38197,-1 z m 2.28107,-4.763796 c -0.88231,-1.063112 -1.26167,-1.076608 -1.8856,-0.06708 -0.42958,0.695088 -0.28403,1.862689 0.32346,2.594669 0.88231,1.063112 1.26167,1.076608 1.8856,0.06708 0.42958,-0.695088 0.28403,-1.862689 -0.32346,-2.594669 z m -11.78107,1.763796 c 0,-1.91582 -0.44913,-2.498109 -1.70448,-2.209831 -0.71852,0.165002 -1.03516,-0.305088 -0.73404,-1.089786 0.29125,-0.758975 -0.17682,-1.966177 -1.04014,-2.68267 -2.68461,-2.228031 -2.92491,-0.231474 -0.4156,3.453045 2.36771,3.476598 3.89426,4.468059 3.89426,2.529242 z m 7,-0.377555 c 0,-0.207656 -0.675,-0.937756 -1.5,-1.622445 -1.22851,-1.019571 -1.5,-0.951235 -1.5,0.377555 0,0.892345 0.675,1.622445 1.5,1.622445 0.825,0 1.5,-0.1699 1.5,-0.377555 z m -51.763072,-11.953541 4.26307,-3.831096 -3.5,0.66327 c -10.53569,1.996571 -11,2.269062 -11,6.455679 0,6.63657 0.89451,7.585472 3.60635,3.825651 1.30213,-1.805324 4.28588,-5.006401 6.63058,-7.113504 z m 52.783672,7.343828 c -1.86211,-1.150851 -2.44691,-0.566057 -1.61136,1.611357 0.51315,1.337232 0.92004,1.446632 1.86518,0.501488 0.94515,-0.945145 0.88978,-1.406064 -0.25382,-2.112845 z m 6.34103,1.487268 c -0.31659,-0.825 -1.03256,-1.5 -1.59106,-1.5 -0.58531,0 -0.48812,0.635407 0.22943,1.5 0.68469,0.825 1.40067,1.5 1.59106,1.5 0.19039,0 0.0872,-0.675 -0.22943,-1.5 z M 141.6976,44.030338 c 0.31644,-0.511996 0.11799,-1.213553 -0.44098,-1.559017 -0.55897,-0.345463 -1.01631,0.07344 -1.01631,0.930902 0,1.756526 0.60006,2.015159 1.45729,0.628115 z m 15.35913,-4.396217 c 0.17403,-1.470084 -0.14763,-2.672881 -0.71481,-2.672881 -1.4205,0 -3.33875,3.807276 -2.55621,5.073453 1.0885,1.76124 2.93912,0.403093 3.27102,-2.400572 z M 150.225,41.21124 c -0.008,-0.4125 -0.43396,-1.411968 -0.94563,-2.22104 -1.15213,-1.821787 -2.5038,-0.682429 -1.69398,1.427912 0.59808,1.558571 2.66793,2.180504 2.63961,0.793128 z m -10.98469,-1.127555 c 0,-0.482656 -0.675,-1.437756 -1.5,-2.122445 -1.21651,-1.009611 -1.5,-0.969754 -1.5,0.210889 0,0.800678 0.3,1.755778 0.66667,2.122444 0.94968,0.949686 2.33333,0.824631 2.33333,-0.210888 z m 5,-0.06343 c 0,-0.517541 -0.45,-1.219098 -1,-1.559017 -0.55,-0.339919 -1,0.08352 -1,0.940983 0,0.857461 0.45,1.559019 1,1.559019 0.55,0 1,-0.423442 1,-0.940985 z m -12.25,-1.451061 c -0.9625,-0.730642 -1.75,-1.84133 -1.75,-2.468197 0,-0.626866 -0.47656,-1.139757 -1.05902,-1.139757 -0.58246,0 -0.73739,0.5625 -0.3443,1.25 1.45507,2.544825 2.67805,3.749158 3.77576,3.718197 0.62016,-0.01749 0.34006,-0.629601 -0.62244,-1.360243 z m 22.25,-4.240067 c 0,-2.17556 -2.08153,-2.638643 -3.44976,-0.767476 -1.0029,1.371546 -1.04663,2.233564 -0.18347,3.617053 1.06344,1.704513 1.21021,1.711184 2.38323,0.108322 0.6875,-0.939425 1.25,-2.270479 1.25,-2.957899 z m -13,2.754558 c 0,-0.482656 -0.675,-1.437756 -1.5,-2.122445 -1.21651,-1.009611 -1.5,-0.969754 -1.5,0.210889 0,0.800678 0.3,1.755778 0.66667,2.122444 0.94968,0.949686 2.33333,0.824631 2.33333,-0.210888 z m 4.60417,-1.851612 c -1.01652,-1.016515 -1.85525,0.513892 -1.02122,1.863382 0.63003,1.019417 0.86558,1.020206 1.2043,0.004 0.2316,-0.694785 0.14921,-1.535121 -0.18308,-1.867413 z m -10.60417,0.729167 c 0,-0.55 -0.45,-1 -1,-1 -0.55,0 -1,0.45 -1,1 0,0.55 0.45,1 1,1 0.55,0 1,-0.45 1,-1 z m 24.93466,-2.25 1.13032,-3.25 -2.15385,2.149134 c -1.18461,1.182023 -1.84767,2.644523 -1.47347,3.25 1.00727,1.629788 1.2577,1.414243 2.497,-2.149134 z m -28.82216,-2.0375 c -0.81667,-0.816667 -1.1125,-0.70476 -1.1125,0.420833 0,1.987857 1.3447,3.332559 1.84167,1.841667 0.21083,-0.6325 -0.1173,-1.650625 -0.72917,-2.2625 z m 11.67268,-0.471343 c -0.73361,-0.883947 -1.43375,-0.992587 -2.10042,-0.32592 -0.66666,0.666666 -0.56021,1.529905 0.31935,2.589716 1.02552,1.235674 1.4933,1.308259 2.10042,0.32592 0.42958,-0.695088 0.28588,-1.86046 -0.31935,-2.589716 z m -6.18101,0.02968 c -1.01652,-1.016515 -1.85525,0.513892 -1.02122,1.863382 0.63003,1.019417 0.86558,1.020206 1.2043,0.004 0.2316,-0.694785 0.14921,-1.535121 -0.18308,-1.867413 z m 13.39583,-1.584411 c 0,-0.512224 -0.675,-0.371115 -1.5,0.313574 -0.825,0.684689 -1.48569,1.977289 -1.4682,2.872445 0.0267,1.36732 0.26656,1.317181 1.5,-0.313575 0.80751,-1.067621 1.4682,-2.360221 1.4682,-2.872444 z m 7.33357,0.886687 c 0.81083,-2.112982 -1.77361,-3.952745 -3.1771,-2.261651 -0.81539,0.982489 -0.79757,1.647435 0.0673,2.512332 1.55575,1.555742 2.44407,1.484134 3.10978,-0.250681 z m -22.98423,-2.105138 c -0.30983,-0.807386 -0.96517,-1.467975 -1.45633,-1.467975 -1.0261,0 -1.20654,2.353132 -0.25353,3.306147 1.06676,1.066757 2.31121,-0.271081 1.70986,-1.838172 z m 11.84875,-2.795981 c -1.59273,-1.765351 -1.68067,-1.757598 -2.56587,0.226202 -0.62281,1.395786 -0.50831,2.546176 0.35723,3.589096 1.13745,1.370536 1.41219,1.346315 2.56587,-0.226202 1.07724,-1.468332 1.01785,-2.064972 -0.35723,-3.589096 z m -18.21815,2.80384 c -0.69572,-0.838291 -1.47088,-1.31823 -1.72258,-1.066531 -0.69349,0.693497 0.71555,2.590697 1.9241,2.590697 0.6631,0 0.58723,-0.573782 -0.20152,-1.524166 z m 11.50793,-1.495464 c -0.56061,-0.907076 -0.93223,-0.879419 -1.54689,0.115122 -1.05432,1.705934 -0.0185,3.38199 1.28476,2.078773 0.55,-0.55 0.66795,-1.537253 0.26213,-2.193895 z m 13.87612,-2.20044 c -0.37296,-0.603464 -0.95147,-0.460844 -1.47368,0.363307 -1.36676,2.157036 -1.02722,3.21528 0.59868,1.865901 0.81894,-0.679663 1.21269,-1.682807 0.875,-2.229208 z m -22.01168,1.459042 c 0.64248,-1.03956 -1.88731,-4.37064 -2.70119,-3.556762 -1.22147,1.221475 -0.65506,4.31779 0.78986,4.31779 0.79254,0 1.65264,-0.342463 1.91133,-0.761028 z m 5.21322,-2.921755 c -0.66388,-1.723382 -0.75099,-1.726444 -1.6869,-0.0593 -1.20512,2.146685 -0.14,4.403451 1.36702,2.89643 0.56095,-0.560953 0.7049,-1.837663 0.31988,-2.83713 z m 23.85268,3.075794 c 2.07356,-0.7957 2.14461,-6.059678 0.0818,-6.059678 -1.80535,0 -1.91538,0.851289 -0.31667,2.45 1.66823,1.668226 0.18917,2.7707 -1.65916,1.236723 -1.24686,-1.03479 -1.52418,-1.000068 -1.52418,0.190833 0,1.278135 0.85859,2.789111 1.58488,2.789111 0.13835,0 0.96335,-0.273145 1.83333,-0.606989 z M 143.225,22.21124 c 0.0219,-1.786077 -1.65707,-1.546152 -2.38095,0.340242 -0.83287,2.170426 0.39545,4.019108 1.50595,2.266521 0.47283,-0.74622 0.86658,-1.919263 0.875,-2.606763 z m 7.55425,1.686987 c 0.36134,-0.584658 -0.14721,-1.951636 -1.13011,-3.037731 -1.58965,-1.756541 -1.88541,-1.799037 -2.67695,-0.384628 -1.47679,2.638878 2.23119,5.97217 3.80706,3.422359 z m -23.20537,-2.363874 c 0.30115,-0.784788 -0.1007,-1.964888 -0.89301,-2.622445 -1.1918,-0.989102 -1.44056,-0.7427 -1.44056,1.426887 0,2.810591 1.43225,3.544373 2.33357,1.195558 z m 6.65112,-0.38213 c -0.008,-0.380041 -0.45842,-1.365983 -1,-2.190983 -0.86252,-1.313896 -1.10166,-1.318057 -1.92749,-0.03354 -0.60479,0.94071 -0.56416,1.922684 0.11331,2.738989 1.0209,1.230112 2.84545,0.896562 2.81418,-0.514466 z m 21.51531,0.809017 c 0.33992,-0.55 0.14148,-1 -0.44098,-1 -0.58246,0 -1.05902,0.45 -1.05902,1 0,0.55 0.19844,1 0.44098,1 0.24254,0 0.7191,-0.45 1.05902,-1 z m -15.93447,-3.682783 c -0.66388,-1.723382 -0.75099,-1.726444 -1.6869,-0.0593 -1.20512,2.146685 -0.14,4.403451 1.36702,2.89643 0.56095,-0.560953 0.7049,-1.837663 0.31988,-2.83713 z m 5.85021,-1.453553 c -0.46919,-0.759165 -0.98781,-0.592819 -1.60824,0.51584 -0.50366,0.899984 -0.60412,2.140559 -0.22324,2.756832 0.46919,0.759165 0.98781,0.592819 1.60824,-0.51584 0.50366,-0.899984 0.60412,-2.140559 0.22324,-2.756832 z m 7.58426,2.258781 c 0,-1.278754 -2.94038,-3.515401 -3.66667,-2.789112 -0.72629,0.72629 1.51036,3.666667 2.78911,3.666667 0.48266,0 0.87756,-0.3949 0.87756,-0.877555 z m 5,-0.563428 c 0,-0.242541 -0.45,-0.719098 -1,-1.059017 -0.55,-0.339919 -1,-0.141476 -1,0.440983 0,0.582459 0.45,1.059017 1,1.059017 0.55,0 1,-0.198442 1,-0.440983 z m 2.99082,-3.083168 c -0.79687,-2.095915 -1.35207,-2.514598 -2.20435,-1.662317 -0.85228,0.852281 -0.67656,1.65044 0.69769,3.16897 2.33631,2.581594 2.86138,2.056531 1.50666,-1.506653 z m -30.99082,1.083168 c 0,-1.59263 -1.81436,-3.077992 -2.69007,-2.202281 -0.82264,0.82264 0.46152,3.643264 1.65869,3.643264 0.56726,0 1.03138,-0.648442 1.03138,-1.440983 z m 6.55385,0.353851 c 1.03052,-1.667419 -1.28721,-3.57951 -2.66672,-2.2 -1.15392,1.153924 -0.43172,3.287132 1.11287,3.287132 0.48508,0 1.18431,-0.48921 1.55385,-1.087132 z m 5.76969,-2.51211 c -0.38476,-1.002666 -0.92908,-1.195221 -1.56919,-0.555108 -1.14518,1.145185 -0.0365,3.446751 1.27107,2.638637 0.48798,-0.301585 0.62213,-1.239174 0.29812,-2.083529 z m 11.63383,-1.480419 c -0.91755,-1.714449 -1.35533,-1.894466 -2.01427,-0.828278 -0.5311,0.859339 -0.22397,2.045087 0.83191,3.211826 2.02661,2.239369 2.81061,0.658868 1.18236,-2.383548 z m -5.85357,0.78346 c -1.28349,-1.283486 -2.58505,-0.291503 -1.63484,1.245982 0.36808,0.595563 1.12735,0.799712 1.68727,0.453663 0.683,-0.422119 0.66575,-0.981465 -0.0524,-1.699645 z M 133.14004,12.21124 c 1.22307,-2.3507851 0.57232,-2.8348731 -1.79545,-1.335612 -0.82942,0.525186 -1.12417,1.591391 -0.72646,2.627815 0.74758,1.948148 0.86815,1.886367 2.52191,-1.292203 z m 5.90596,-1.370088 c -1.59173,-0.9837451 -3.2875,0.531483 -2.32953,2.081514 0.51852,0.838978 1.0829,0.819489 2.1602,-0.0746 1.16706,-0.968574 1.20088,-1.369387 0.16933,-2.006914 z m 5.69431,1.120088 c 0.33992,-0.55 0.14148,-1 -0.44098,-1 -0.58246,0 -1.05902,0.45 -1.05902,1 0,0.55 0.19844,1 0.44098,1 0.24254,0 0.7191,-0.45 1.05902,-1 z m 5.22917,-0.604167 c -0.3323,-0.332291 -1.1948,-0.367818 -1.91667,-0.07895 -0.79773,0.319226 -0.56078,0.556183 0.60417,0.604167 1.05416,0.04342 1.64479,-0.192928 1.3125,-0.525217 z m -9.89206,217.863057 c -2.19302,-0.49058 -5.12449,-6.77807 -4.32891,-9.28474 0.90699,-2.85767 6.64445,-2.9909 9.7418,-0.22622 4.35838,3.89027 0.41727,10.81517 -5.41289,9.51096 z m 4.96115,-4.8464 c 0.41186,-2.8826 -2.29387,-5.07599 -4.25446,-3.44884 -0.8009,0.66469 -1.90787,0.92938 -2.45991,0.58819 -0.63904,-0.39494 -0.61243,0.50214 0.0732,2.46904 0.885,2.53869 1.5463,3.03499 3.70992,2.78425 1.78176,-0.20649 2.72938,-0.97999 2.93122,-2.39264 z m -4.33938,0.52098 c -0.36253,-0.58659 -0.41903,-1.30665 -0.12555,-1.60014 0.71632,-0.71631 2.66667,0.54583 2.66667,1.72569 0,1.27797 -1.72641,1.19267 -2.54112,-0.12555 z m -2.70888,-37.01357 c -2.58006,-1.50275 -2.17445,-6.26202 0.83889,-9.84317 3.13725,-3.72841 4.84465,-3.8709 6.99829,-0.58402 1.91202,2.91812 1.36644,6.10658 -1.58744,9.27719 -2.28002,2.44732 -3.60408,2.69096 -6.24974,1.15 z m 1.61163,-3.4199 c -0.77666,-2.02393 1.30469,-1.91867 2.4477,0.12378 0.75211,1.34394 1.09553,1.0879 1.99266,-1.48561 0.8843,-2.53671 0.78673,-3.4066 -0.52979,-4.72312 -1.48498,-1.48497 -1.75791,-1.42628 -3.42073,0.73561 -1.86026,2.41859 -2.35696,5.01052 -1.1848,6.18267 1.06948,1.06949 1.31306,0.77742 0.69496,-0.83333 z m -4.32267,-41.68856 c -4.1447,-4.44881 -0.86291,-11.52359 4.72627,-10.18878 4.06999,0.97199 5.23477,2.27251 5.23477,5.8448 0,5.97856 -6.00034,8.59529 -9.96104,4.34398 z m 6.91536,-1.2564 c 1.86477,-2.24691 0.92322,-6.08901 -1.44021,-5.87692 -1.09171,0.098 -2.29807,-0.32856 -2.68081,-0.94784 -0.42787,-0.69231 -1.18993,-0.0417 -1.97863,1.68935 -1.16249,2.55138 -1.0648,2.9918 1.04207,4.69784 2.79362,2.26214 3.4931,2.32265 5.05758,0.43757 z m -3.95432,-2.13837 c 0,-0.87084 0.53437,-1.40521 1.1875,-1.1875 1.85422,0.61807 2.16176,2.77083 0.39583,2.77083 -0.87083,0 -1.58333,-0.7125 -1.58333,-1.58333 z m -4.82569,-40.731119 c -2.65471,-2.82582 -2.78373,-5.82406 -0.34557,-8.030563 3.9968,-3.617052 10.17126,-0.823211 10.17126,4.602323 0,5.531249 -5.91213,7.594029 -9.82569,3.42824 z m 7.65245,-2.49059 c 0.35292,-2.48953 -1.34382,-5.19496 -3.25808,-5.19496 -0.65253,0 -2.03493,0.62044 -3.072,1.37877 -1.81022,1.32366 -1.81533,1.48596 -0.12793,4.06126 2.19036,3.34291 5.96971,3.19949 6.45801,-0.24507 z m -5.16009,0.13837 c -0.92219,-0.92219 -0.83619,-2.33333 0.1422,-2.33333 0.44488,0 1.68238,0.66069 2.75,1.4682 1.90714,1.44248 1.90465,1.46875 -0.1422,1.5 -1.14584,0.0175 -2.38334,-0.2682 -2.75,-0.63487 z"
     id="path3047"
     inkscape:connector-curvature="0"
     sodipodi:nodetypes="ccscsssssssssssssssssssssssssscsssscsssscsssssscsssscssssssssscssscsscssssssssssssssssscssssssssssssssssssssssssssssssssssssssscssssssccsssssssssssssscsssssssssssssssssssssssssssssscssssssssscsscssssssssssscsssssscscsscscssssssssssccsscsscssssscssscsscscsssssssssssssssssssscsssssssssccsssccsssssssscsscscsscssssssssscssssssssssssssssscssssssscsccsssscssssssssssssssssssssssssssssssssscssssssssssssssscscssssssssssssscsssssssscsssccsscsssscsscsssssssssssssssssssssssssscscccsssssscsssssssssssscscccsscsscscccssssssssssssscsccssssssssssssssssssscsscsssssssscssscssssssssssssssssssssssssssssssssssssssssssscssccssssssssssssssssssssscsccsccscssssssssssssssssssscssssssssssssssssssssss" />
</svg>
