<?xml version="1.0" encoding="UTF-8" standalone="no"?>
<!-- Created with Inkscape (http://www.inkscape.org/) -->

<svg
   xmlns:dc="http://purl.org/dc/elements/1.1/"
   xmlns:cc="http://creativecommons.org/ns#"
   xmlns:rdf="http://www.w3.org/1999/02/22-rdf-syntax-ns#"
   xmlns:svg="http://www.w3.org/2000/svg"
   xmlns="http://www.w3.org/2000/svg"
   xmlns:sodipodi="http://sodipodi.sourceforge.net/DTD/sodipodi-0.dtd"
   xmlns:inkscape="http://www.inkscape.org/namespaces/inkscape"
   id="svg26520"
   version="1.1"
   inkscape:version="0.48.4 r9939"
   width="410.71262"
   height="492.82767"
   sodipodi:docname="WaterCanteen.svg">
  <metadata
     id="metadata26526">
    <rdf:RDF>
      <cc:Work
         rdf:about="">
        <dc:format>image/svg+xml</dc:format>
        <dc:type
           rdf:resource="http://purl.org/dc/dcmitype/StillImage" />
        <dc:title />
      </cc:Work>
    </rdf:RDF>
  </metadata>
  <defs
     id="defs26524">
    <filter
       id="filter27180"
       inkscape:label="Rubber stamp"
       x="0"
       y="0"
       width="1"
       height="1"
       inkscape:menu="Overlays"
       inkscape:menu-tooltip="Random whiteouts inside"
       color-interpolation-filters="sRGB">
      <feTurbulence
         id="feTurbulence27182"
         result="result1"
         baseFrequency="0.044585987261146501"
         numOctaves="4"
         type="fractalNoise"
         seed="289" />
      <feGaussianBlur
         id="feGaussianBlur27184"
         in="SourceAlpha"
         stdDeviation="4.9"
         result="result91" />
      <feComposite
         id="feComposite27186"
         in2="result91"
         operator="out"
         in="SourceAlpha"
         result="result92" />
      <feComposite
         id="feComposite27188"
         in2="result1" />
      <feColorMatrix
         id="feColorMatrix27190"
         result="result1"
         values="1 0 0 0 0 0 1 0 0 0 0 0 1 0 0 0 0 0 20 -9" />
      <feComposite
         id="feComposite27192"
         in2="result1"
         result="result1"
         operator="in"
         in="SourceGraphic" />
      <feTurbulence
         id="feTurbulence27194"
         baseFrequency="0.032"
         numOctaves="1"
         result="result92" />
      <feDisplacementMap
         id="feDisplacementMap27196"
         in2="result92"
         scale="4.1"
         yChannelSelector="G"
         xChannelSelector="R"
         in="result1" />
    </filter>
    <filter
       id="filter27198"
       inkscape:label="filter2"
       color-interpolation-filters="sRGB" />
  </defs>
  <sodipodi:namedview
     pagecolor="#ffffff"
     bordercolor="#666666"
     borderopacity="1"
     objecttolerance="10"
     gridtolerance="10"
     guidetolerance="10"
     inkscape:pageopacity="0"
     inkscape:pageshadow="2"
     inkscape:window-width="1280"
     inkscape:window-height="749"
     id="namedview26522"
     showgrid="false"
     inkscape:zoom="0.85798046"
     inkscape:cx="198.34989"
     inkscape:cy="248.36325"
     inkscape:window-x="3"
     inkscape:window-y="22"
     inkscape:window-maximized="0"
     inkscape:current-layer="svg26520"
     fit-margin-top="0"
     fit-margin-left="0"
     fit-margin-right="0"
     fit-margin-bottom="0" />
  <path
     style="fill:#755416;fill-opacity:1;stroke:none"
     d="M 158.35258,67.653201 156.4325,50.372398 c 25.34148,-3.204744 52.23997,-7.310918 58.75471,0.384028 l 0,26.497221 c 21.21114,28.143113 50.84796,55.584103 49.15427,85.635963 6.80973,37.4686 -16.72841,68.43276 -70.27526,96.77246 -28.04871,0.56431 -51.95591,-16.01502 -58.75471,-22.27302 0,0 -6.67835,-13.66143 -9.98446,-14.59267 -6.80634,-1.91717 -33.004702,-57.44615 -23.8091,-61.44285 1.80491,-72.99378 37.74285,-68.868944 56.83463,-93.700329 z"
     id="path27042"
     inkscape:connector-curvature="0"
     sodipodi:nodetypes="cccccccscc" />
  <path
     style="fill:#ab850e;fill-opacity:1;stroke:none"
     d="m 164.11285,48.068293 -7.29634,-18.432849 c 12.24845,-3.151724 -1.98431,-16.913526 54.53052,-10.368477 3.85728,12.109382 1.31417,19.418481 1.53607,28.801326 -20.4412,-2.988895 -35.45046,-2.097824 -48.77025,0 z"
     id="path26532"
     inkscape:connector-curvature="0"
     sodipodi:nodetypes="ccccc" />
  <path
     style="fill:#755416;fill-opacity:1;stroke:none"
     d="m 132.72012,255.29707 56.48064,20.63716 c 1.13018,4.73253 -0.0867,9.4608 4.20403,14.58793 18.86262,22.53943 43.26642,52.6516 52.36979,83.10114 3.13389,36.48978 -2.11819,68.78655 -25.5249,92.00602 -28.91582,13.46034 -46.78563,31.85613 -121.359792,24.91593 C 62.521992,477.90288 23.33097,468.67799 5.6386572,433.42834 -6.2772766,374.2216 16.878988,343.0726 47.99914,318.29472 l 61.36839,-39.10198 z"
     id="path27044"
     inkscape:connector-curvature="0"
     sodipodi:nodetypes="ccsccccccc" />
  <path
     style="fill:#347516;fill-opacity:1;stroke:none"
     d="m 261.43082,199.90259 7.06008,-11.40474 c 34.20512,-4.60651 67.77273,-2.20033 102.6427,-14.12016 5.11823,-13.08296 21.22269,-28.30062 8.68933,-56.48064 C 344.21418,90.528847 317.71737,98.277562 293.47272,78.251984 l 17.37866,-2.715414 c 50.93499,16.372731 72.80676,29.0549 78.20397,39.64506 10.31324,21.20473 2.20194,41.71888 -8.96088,64.35535 -46.57874,13.81274 -79.10909,13.57708 -118.66365,20.36561 z"
     id="path27216"
     inkscape:connector-curvature="0"
     sodipodi:nodetypes="ccccccccc" />
  <path
     style="fill:#347516;fill-opacity:1;stroke:none"
     d="m 127.24714,232.97284 c 14.77186,12.11576 43.42384,20.76151 67.58713,30.52941 l 3.26415,-5.95227 c 4.29975,5.2097 2.37814,10.75145 -8.6404,17.47281 -59.98726,-16.28885 -53.48983,-18.90795 -61.82686,-24.57713 -3.58994,-8.24762 -1.73846,-12.68625 -0.38402,-17.47282 z"
     id="path27218"
     inkscape:connector-curvature="0"
     sodipodi:nodetypes="cccccc" />
  <path
     style="fill:#347516;fill-opacity:1;stroke:none"
     d="m 364.07562,1.3561596 c -6.36626,0.025436 -14.12008,0.6335236 -23.68136,1.9768784 -20.10772,9.057911 -43.16145,16.271224 -50.1221,33.606932 l -2.51229,23.434246 c -16.54404,0.789526 -38.20375,0.415685 -46.45664,3.047688 -11.91735,3.409232 -17.89084,8.798492 -23.80491,14.208813 l 7.66041,7.289739 c 8.97178,-8.483536 28.20967,-12.318219 48.763,-12.27312 39.37255,-0.309394 62.09031,11.294302 120.58958,-2.677023 6.90418,-6.691456 22.462,-1.908425 9.01951,-51.069358 C 393.21952,11.884789 391.66276,1.2460343 364.07562,1.3561596 z M 336.35814,19.27162 c 15.72923,-6.045598 31.5986,-10.7596875 49.33959,2.306358 7.50067,4.453683 24.10003,36.252035 -5.97182,39.743492 L 304.6602,62.665537 C 303.21429,38.236578 320.34773,28.23928 336.35814,19.27162 z"
     id="path27220"
     inkscape:connector-curvature="0"
     sodipodi:nodetypes="scccccccccsccccc" />
  <path
     style="fill:#000000"
     d="M 96.908728,491.0894 C 78.466525,487.70101 57.783627,479.39939 37.236176,467.13829 5.0293682,447.91981 -5.3316114,423.37496 2.4862492,384.81682 c 3.181674,-15.6922 7.082781,-25.35696 15.3721338,-38.08353 11.031985,-16.93732 26.608034,-29.97372 55.810383,-46.71062 28.274094,-16.20487 35.794304,-21.95047 47.701524,-36.44498 3.21782,-3.91701 6.42811,-7.53541 7.13397,-8.04087 0.74964,-0.53682 -0.0246,-2.31133 -1.8617,-4.26682 -3.64183,-3.87654 -3.98816,-12.28302 -0.81856,-19.86893 1.73259,-4.14668 1.65848,-4.74781 -1.00191,-8.12632 -9.04713,-11.48924 -19.74563,-29.69133 -22.32705,-37.98653 -3.721962,-11.96024 -3.942912,-33.27904 -0.512,-49.40097 5.15745,-24.23502 15.80043,-39.669768 38.68492,-56.101973 7.82606,-5.619514 14.69954,-10.868099 15.27438,-11.663529 0.57483,-0.79543 0.7185,-3.818486 0.31926,-6.717908 -0.39925,-2.899421 -0.86958,-6.423115 -1.04516,-7.830428 -0.18758,-1.503298 0.83736,-3.151144 2.48479,-3.994889 l 2.80406,-1.436136 -2.42457,-7.836215 c -1.33351,-4.309911 -2.08784,-9.177776 -1.67631,-10.817478 2.14536,-8.547825 18.03399,-14.855253 38.00665,-15.0878 12.5141,-0.145696 18.53065,1.862958 20.23639,6.756061 1.82106,5.223915 0.0562,21.137061 -2.34429,21.137061 -0.66727,0 -0.87118,-4.231008 -0.46361,-9.620018 0.94177,-12.452343 -0.0671,-13.531429 -13.73332,-14.688865 -10.52983,-0.891809 -24.39785,0.895737 -25.19749,3.247893 -0.24163,0.710714 -1.42776,1.313227 -2.63584,1.3389 -1.2081,0.0257 -3.6792,0.894274 -5.49134,1.930184 -3.81757,2.182329 -2.45499,2.678157 1.51744,0.552182 1.46415,-0.783582 2.98183,-1.10493 3.37266,-0.714114 0.39082,0.390828 -1.78369,1.708602 -4.83225,2.928402 -3.9422,1.577352 -5.03631,2.538905 -3.78878,3.329762 1.42994,0.906491 1.40906,1.115684 -0.11295,1.132145 -1.02687,0.01054 -1.55778,0.329453 -1.17977,0.707446 0.378,0.378005 2.10777,0.119008 3.84393,-0.575417 2.80571,-1.12234 2.8636,-1.281267 0.52077,-1.429771 -2.34284,-0.148503 -2.28495,-0.30743 0.52081,-1.42977 1.73616,-0.694478 3.46593,-0.953422 3.84393,-0.575417 0.37801,0.377992 -0.0397,0.687269 -0.92807,0.687269 -0.88845,0 -1.26622,0.564899 -0.83952,1.255344 0.42672,0.690431 -0.87267,2.192437 -2.88753,3.337801 l -3.66338,2.082457 4.61271,-0.684989 4.61272,-0.685001 -4.43655,2.026247 c -5.9286,2.707691 -4.52399,3.792312 1.59836,1.234231 3.05483,-1.276391 4.81507,-1.495179 4.81507,-0.59848 0,0.777362 0.6847,0.990219 1.52155,0.473014 0.87367,-0.539964 1.16631,-0.365564 0.68723,0.40957 -0.45886,0.742476 -2.71584,2.129309 -5.01549,3.081848 -3.57865,1.482329 -3.82424,1.857106 -1.7043,2.600742 1.42551,0.500045 3.24753,0.09819 4.29252,-0.946833 1.45518,-1.45518 2.20723,-1.490698 3.78788,-0.178868 1.21825,1.011055 8.59638,1.954171 19.29968,2.467 9.53009,0.456619 18.28499,1.255818 19.4553,1.776001 3.73158,1.658614 5.09645,6.690363 3.86581,14.251725 -1.10075,6.763243 -0.56762,14.225353 1.01632,14.225353 0.42463,0 2.65727,-1.827215 4.96141,-4.060482 2.30413,-2.233253 8.26301,-5.623349 13.24192,-7.533528 8.20435,-3.147625 10.90189,-3.491338 28.78864,-3.668097 l 19.73603,-0.195052 1.54397,-9.733846 c 3.37977,-21.307745 9.9539,-28.963009 34.73651,-40.4490405 14.79024,-6.8548523 25.3397,-9.45370941 38.95541,-9.59662451 22.38861,-0.2350113 38.24051,7.32215951 45.68906,21.78160201 2.74626,5.331153 2.93816,6.224412 4.29795,20.00535 1.09768,11.12458 -2.79035,21.703041 -9.62658,26.191833 -10.86502,7.134159 -37.26,11.72393 -63.30835,11.008577 l -18.61733,-0.511287 6.91997,2.322424 c 3.80598,1.277327 10.86927,3.174102 15.6962,4.21506 4.82694,1.040959 11.64245,3.418458 15.14558,5.283313 3.50314,1.864869 6.91114,3.390663 7.57334,3.390663 0.66221,0 3.03918,1.397086 5.28217,3.104638 2.24298,1.70756 6.45041,4.322028 9.34983,5.809938 12.4007,6.36374 15.81503,13.82855 15.81503,34.57675 0,12.75671 -0.51597,16.61654 -3.25919,24.3815 -3.90693,11.05892 -7.97119,17.0572 -13.49175,19.912 -7.902,4.08627 -21.53859,7.07336 -41.23749,9.03303 -12.83254,1.2766 -37.26364,4.84489 -45.9105,6.70549 -5.19316,1.11744 -12.42616,2.54525 -16.07333,3.17292 -10.43071,1.79508 -15.88553,5.06542 -20.80443,12.4729 -8.22611,12.38787 -17.59366,21.18822 -34.41409,32.33028 -13.55913,8.98173 -16.56643,11.54792 -16.56643,14.13648 0,5.02681 -4.94131,13.36252 -9.23836,15.58461 -2.96524,1.53338 -3.94083,2.95978 -3.94083,5.76186 0,3.93914 1.34105,5.91075 17.29711,25.43015 11.43423,13.98775 21.82874,29.29442 25.79983,37.99205 1.48926,3.26185 5.59736,12.1578 9.12911,19.76878 l 6.42135,13.83815 -0.0326,17.13295 c -0.0281,14.8141 -0.526,18.79749 -3.67876,29.43161 -8.69665,29.33354 -19.64783,43.46333 -40.9147,52.79024 -28.54211,12.51761 -79.07884,19.1482 -106.934692,14.03022 z m 67.213882,-5.30383 c 42.21125,-8.70923 59.43077,-19.00251 70.50845,-42.14765 8.25957,-17.25714 11.19453,-30.2194 11.19883,-49.45955 0.004,-15.7732 -0.17233,-16.83839 -4.13402,-25.04046 -2.27575,-4.71156 -5.90747,-12.48643 -8.07049,-17.27748 -3.40013,-7.53121 -6.78622,-13.09556 -18.35804,-30.1676 -1.22832,-1.81214 -6.43604,-8.33584 -11.57272,-14.49711 -13.23178,-15.87108 -15.64737,-19.60796 -16.4545,-25.45493 l -0.71289,-5.16427 -9.50813,-2.41089 c -5.22948,-1.326 -10.67632,-3.03611 -12.10411,-3.80024 -1.42779,-0.76413 -4.04501,-1.38932 -5.81604,-1.38932 -1.77105,0 -3.95837,-0.8896 -4.86074,-1.97688 -1.71953,-2.0719 -4.06516,-2.68241 -3.79769,-0.98844 0.4831,3.05963 -0.48662,3.20942 -2.13294,0.32948 -1.56106,-2.73081 -1.89147,-2.87238 -1.93017,-0.82707 -0.0362,1.91342 -0.444,2.13802 -1.81537,0.99988 -0.97276,-0.80732 -2.15888,-1.07763 -2.63584,-0.60068 -0.47694,0.47695 -0.86718,-0.38279 -0.86718,-1.91054 0,-4.01412 -2.21621,-4.78461 -3.14282,-1.09264 -0.76369,3.04273 -4.76469,5.92386 -4.76469,3.43105 0,-1.68079 -4.35451,0.0318 -5.68215,2.23469 -0.58819,0.97599 -1.58337,1.4569 -2.21147,1.06869 -0.62812,-0.38819 -1.47676,0.34065 -1.88585,1.61968 -0.40908,1.27903 -3.83197,4.98085 -7.6064,8.22628 -6.46572,5.55954 -7.31566,5.35435 -2.51194,-0.6064 2.01078,-2.49508 1.98684,-2.52752 -0.52994,-0.71807 -1.44971,1.04229 -4.89976,4.29391 -7.66678,7.22585 -2.76703,2.93193 -4.65948,4.58945 -4.20546,3.68338 0.45402,-0.90607 0.49638,-1.6474 0.0941,-1.6474 -1.196002,0 -40.385949,23.69041 -47.528234,28.73093 -7.704871,5.43753 -20.967167,16.63237 -25.292918,21.34999 -6.162303,6.72055 -17.43599,26.36489 -20.1524238,35.11549 -6.570966,21.16743 -7.12955305,43.42446 -1.467096,58.45676 3.042209,8.07624 12.1521408,20.3956 18.8235178,25.45501 14.47394,10.97668 45.541616,25.63293 64.331692,30.34863 13.191122,3.31053 13.788642,3.35807 36.242782,2.88296 16.428,-0.3476 24.87189,-1.22716 38.21965,-3.98113 z M 31.293982,437.99917 c -1.152798,-2.71821 -3.089756,-10.8907 -4.304352,-18.16109 -2.055431,-12.30353 -2.057964,-13.80937 -0.03657,-21.74566 3.047639,-11.96555 8.594525,-23.25359 17.035265,-34.66718 9.116788,-12.32772 23.12468,-24.28981 51.311313,-43.81744 4.913842,-3.4043 12.605632,-10.555 17.092862,-15.89045 7.20759,-8.57003 11.53358,-11.82407 11.53358,-8.67564 0,2.97888 -26.151372,27.23552 -39.389349,36.53551 -32.666281,22.94882 -48.156194,42.07199 -54.778067,67.62662 -1.889512,7.29188 -1.855387,8.95783 0.461676,22.53825 1.376102,8.0654 3.465418,16.13471 4.642925,17.93181 1.707302,2.60568 1.774912,3.26747 0.333818,3.26747 -0.993906,0 -2.7503,-2.22399 -3.903099,-4.9422 z M 122.60816,268.47228 c 0,-0.72485 -0.87074,-0.1667 -1.93497,1.24034 -1.06422,1.40703 -1.93496,3.15131 -1.93496,3.87617 0,0.72485 0.87074,0.1667 1.93496,-1.24034 1.06423,-1.40703 1.93497,-3.15131 1.93497,-3.87617 z m 72.45201,1.85524 c 2.87193,-2.87193 4.62222,-8.20469 3.56105,-10.84981 -0.37597,-0.93717 -0.73041,-0.36956 -0.78763,1.26137 -0.0693,1.97545 -0.92266,2.96531 -2.55636,2.96531 -2.61566,0 -23.88469,-6.83613 -38.9581,-12.52162 -10.52936,-3.97153 -27.12138,-13.32584 -27.12138,-15.29059 0,-0.73566 -0.59306,-0.97103 -1.31792,-0.52304 -0.72485,0.44798 -1.31791,3.08275 -1.31791,5.85505 0,4.20885 0.87045,5.82695 5.27547,9.80662 2.90151,2.62134 5.86683,4.8402 6.58959,4.93081 2.17743,0.27297 3.02373,0.58877 9.8806,3.68692 27.84338,12.58056 41.68857,15.743 46.75259,10.67898 z m -1.06473,-11.74377 c 0.24161,-0.64179 5.77687,-4.40314 12.30057,-8.35856 27.12627,-16.44706 35.1879,-23.57606 46.83369,-41.41562 8.46533,-12.96762 10.81406,-21.16275 10.87233,-37.93568 0.0385,-11.07574 -0.54773,-15.00004 -3.55593,-23.80532 -5.27277,-15.43387 -13.15175,-28.77531 -24.49786,-41.48208 -5.5174,-6.179078 -12.66533,-14.744466 -15.88427,-19.0342 l -5.85263,-7.799523 0.22071,-13.72772 0.22071,-13.727721 -4.54131,-1.897487 c -7.12809,-2.978299 -37.01562,-1.640255 -48.76081,2.183001 -4.01944,1.308391 -4.06594,1.421073 -2.69926,6.541359 0.90241,3.380844 1.75994,4.639813 2.44249,3.585873 0.73002,-1.127203 1.35429,-1.191491 2.0403,-0.210103 0.54364,0.777731 2.0263,1.796983 3.29479,2.265002 2.64372,0.975405 3.16493,6.205342 0.61842,6.205342 -0.92836,0 -2.42325,1.927457 -3.32197,4.283237 -1.15464,3.026667 -1.95015,3.781636 -2.71162,2.573461 -0.85691,-1.359618 -1.43483,-1.27937 -2.82182,0.391856 -1.32616,1.597911 -1.98493,1.712149 -2.74853,0.476613 -0.79127,-1.280279 -1.41562,-1.283706 -2.94293,-0.01608 -1.06624,0.88489 -2.52526,1.439813 -3.2423,1.233164 -2.20893,-0.636595 -18.05962,11.713531 -25.89338,20.174938 -12.16944,13.144438 -17.68365,26.443058 -20.54639,49.551628 -1.63034,13.16041 -0.37727,26.88825 3.57842,39.20285 2.0329,6.3287 10.19384,19.88329 18.19554,30.22118 2.17052,2.80422 5.42905,8.14179 7.24119,11.86127 2.59178,5.31973 4.83757,7.68174 10.52527,11.06997 3.97677,2.369 9.01781,4.86545 11.20231,5.54767 2.18452,0.68224 11.38513,3.87984 20.44583,7.10579 17.77165,6.32738 19.3206,6.70988 19.98844,4.93596 z M 128.0347,191.93932 c -7.2223,-11.91674 -9.264,-20.38583 -8.911,-36.96324 0.22901,-10.75399 0.89758,-15.60302 2.58939,-18.78034 1.25437,-2.35578 2.8585,-4.28324 3.56475,-4.28324 1.74664,0 1.62945,0.78095 -0.8313,5.53949 -1.16345,2.24987 -2.41086,8.59586 -2.77202,14.10218 -0.82933,12.64413 2.04791,25.47534 8.23765,36.73619 2.5065,4.56 4.55726,8.86356 4.55726,9.56345 0,2.9756 -2.36325,0.80342 -6.43473,-5.91449 z M 166.71561,76.490599 c -0.39175,-0.633867 0.35403,-2.21877 1.6573,-3.522033 1.30326,-1.303264 2.17099,-3.400613 1.92831,-4.660781 -0.61327,-3.184461 2.02131,-2.88648 3.04682,0.344609 0.46012,1.449711 1.38968,2.635838 2.06569,2.635838 0.676,0 1.22911,1.186127 1.22911,2.635838 0,3.234661 -2.59919,3.548523 -2.72848,0.32948 -0.0815,-2.028304 -0.21189,-2.002077 -1.082,0.217575 -1.04911,2.676324 -4.92079,3.954574 -6.11675,2.019474 z m 16.07752,-2.127227 c -1.25954,-1.259522 -1.08341,-3.07514 0.2983,-3.07514 0.6473,0 1.51828,0.889596 1.93552,1.976879 0.77087,2.008877 -0.633,2.699084 -2.23382,1.098261 z m -5.38136,-2.604814 c -0.45704,-1.19103 -0.55994,-2.436542 -0.22868,-2.767801 1.04739,-1.047403 3.4135,1.055798 3.4135,3.034218 0,2.585125 -2.15991,2.404451 -3.18482,-0.266417 z m 9.34727,0.317487 c -0.82386,-2.146956 0.28303,-3.668269 1.92889,-2.651086 1.49706,0.925245 1.46305,4.499111 -0.0428,4.499111 -0.64731,0 -1.49604,-0.83162 -1.88608,-1.848025 z M 287.34803,194.64083 c 5.43641,-1.09433 17.00115,-2.88564 25.69941,-3.98068 42.27836,-5.32248 49.34592,-6.47637 58.5857,-9.565 8.51147,-2.84515 11.3321,-6.01255 16.11955,-18.1012 3.85818,-9.74221 4.22562,-11.95041 4.29453,-25.80977 0.0994,-19.98676 -1.41626,-23.16868 -15.54015,-32.62465 -10.00433,-6.697928 -29.3843,-16.138352 -33.12995,-16.138352 -2.31524,0 -22.96891,-6.341008 -26.02856,-7.991175 -3.20434,-1.728213 -3.65309,-1.562379 -2.90108,1.072101 0.3621,1.268497 -0.0436,0.971965 -0.9017,-0.658959 -0.85805,-1.630925 -2.08338,-2.965318 -2.72298,-2.965318 -0.63959,0 -0.52809,1.186127 0.24777,2.635838 0.85931,1.605634 0.91214,2.635838 0.13517,2.635838 -0.70151,0 -1.69589,-1.324654 -2.20975,-2.943678 l -0.93429,-2.943664 -1.15971,3.135013 c -0.63785,1.724246 -0.99872,3.258647 -0.80193,3.409759 6.64536,5.103075 26.8904,12.137941 41.85483,14.543969 9.6482,1.55129 15.09142,3.994678 23.5744,10.582308 12.2227,9.49179 15.76382,18.7066 13.48496,35.09101 -2.38874,17.17438 -9.07046,29.6149 -17.93213,33.38739 -7.28999,3.10341 -37.92637,7.46166 -52.71676,7.49935 -1.44971,0.004 -7.38034,0.5117 -13.17919,1.12889 -5.79884,0.61721 -14.12768,1.41578 -18.50853,1.77459 -4.38086,0.35883 -9.41216,1.18769 -11.18067,1.8419 -3.15479,1.16703 -3.16247,1.20631 -0.40717,2.0808 2.04987,0.65061 2.61479,1.6313 2.09176,3.63137 -0.57839,2.21175 -0.23467,2.59756 1.78276,2.00103 1.37463,-0.40646 6.94729,-1.63438 12.38371,-2.72871 z m 5.93063,-11.2823 c 7.97341,-0.70803 21.02081,-1.64604 28.99422,-2.08444 14.164,-0.7788 37.83384,-4.51816 44.23657,-6.98851 7.1462,-2.7572 13.24322,-14.2941 15.70799,-29.72298 3.89888,-24.406 -6.44363,-35.58043 -41.18459,-44.49735 -20.83411,-5.347464 -36.10636,-12.116229 -44.37254,-19.666231 -4.13641,-3.778025 -5.54384,-4.194185 -18.12804,-5.360134 -15.637,-1.448802 -31.09179,0.700566 -43.01408,5.982165 -11.01231,4.878462 -11.4881,6.279779 -4.68149,13.787831 17.42294,19.218419 26.08895,32.915379 32.26433,50.995039 3.01686,8.83247 3.6017,12.83321 3.70115,25.31836 l 0.11809,14.82827 5.93063,-0.65233 c 3.26185,-0.35878 12.45434,-1.23163 20.42775,-1.93969 z M 224.76848,81.796633 c 0.45986,-0.744084 1.53272,-1.240808 2.38414,-1.103837 0.8514,0.136972 4.42071,-1.0362 7.93177,-2.607054 9.72232,-4.349752 32.86436,-8.067628 41.72028,-6.702554 12.67332,1.953499 52.82461,4.522584 68.53179,4.38502 16.48027,-0.144339 30.12164,-1.986473 43.49132,-5.873095 11.41236,-3.317611 13.83769,-5.258101 16.94204,-13.555205 2.29398,-6.131209 2.47042,-8.336377 1.39637,-17.451039 -2.198,-18.652638 -8.70808,-27.246313 -24.9699,-32.9616131 -9.00104,-3.1634667 -11.08188,-3.4007184 -24.3396,-2.7751287 -16.24992,0.7667784 -27.67395,4.0384863 -42.70539,12.2303138 -16.87852,9.198468 -23.60088,19.225841 -24.52467,36.582108 -0.27633,5.191612 -0.14693,7.956633 0.28757,6.144494 l 0.78997,-3.294797 0.98535,3.294797 c 0.96848,3.238324 0.99029,3.227043 1.27265,-0.658959 l 0.28731,-3.953757 1.00606,3.953757 1.00606,3.953756 0.15593,-4.10048 c 0.13339,-3.507773 0.58455,-4.019429 3.12125,-3.53972 2.60828,0.493231 3.33644,-0.480302 6.04771,-8.085656 2.55806,-7.175581 4.45735,-9.890653 11.16523,-15.960934 22.11024,-20.0086055 51.71374,-23.882312 69.31683,-9.070288 8.45447,7.113969 11.98467,13.36698 11.98467,21.228366 0,9.010322 -2.71716,15.53642 -7.47421,17.951691 -2.05046,1.041076 -8.47261,2.537547 -14.27146,3.325504 -13.97136,1.898449 -77.90626,2.508409 -86.63937,0.82656 -1.44087,-0.277488 -9.81737,-0.892798 -18.61446,-1.367368 -12.96277,-0.699287 -17.74347,-0.426267 -25.22014,1.440248 -11.03308,2.754359 -17.33263,5.781909 -21.64591,10.403007 -2.82893,3.030805 -2.91878,3.423057 -0.78419,3.423057 2.32739,0 2.32828,0.09133 0.0254,2.635838 -1.31198,1.449711 -1.73542,2.635838 -0.941,2.635838 0.79442,0 1.82066,-0.608787 2.28052,-1.35287 z m 78.87117,-1.941928 c -0.82653,-2.153914 -3.11244,-2.718537 -3.11244,-0.768781 0,1.0003 0.92365,1.681282 3.58293,2.64161 0.15845,0.0572 -0.0532,-0.785546 -0.47049,-1.872829 z m -2.2396,-22.075142 c -0.36561,-0.906069 -0.66475,-0.16474 -0.66475,1.647399 0,1.812138 0.29914,2.553468 0.66475,1.647399 0.3656,-0.90607 0.3656,-2.388728 0,-3.294798 z m 77.54334,2.311459 c 10.12888,-1.312806 12.32561,-2.512231 14.60868,-7.976362 4.54447,-10.876455 1.4206,-20.145616 -9.66397,-28.675003 -8.8538,-6.81285 -17.4109,-9.582576 -25.76025,-8.337986 -16.05416,2.393117 -21.54886,4.113225 -29.8219,9.335769 -14.07412,8.884605 -20.16662,17.370923 -21.90536,30.512248 l -0.8898,6.725037 32.76255,-0.279412 c 18.0194,-0.153669 36.32092,-0.740604 40.67005,-1.304291 z m -80.17918,-3.629378 c -0.36561,-0.906069 -0.66475,-0.16474 -0.66475,1.647399 0,1.812139 0.29914,2.553468 0.66475,1.647399 0.3656,-0.90607 0.3656,-2.388728 0,-3.294798 z"
     id="path26530"
     inkscape:connector-curvature="0" />
</svg>
