<?xml version="1.0" encoding="UTF-8" standalone="no"?>
<!-- Created with Inkscape (http://www.inkscape.org/) -->

<svg
   xmlns:dc="http://purl.org/dc/elements/1.1/"
   xmlns:cc="http://creativecommons.org/ns#"
   xmlns:rdf="http://www.w3.org/1999/02/22-rdf-syntax-ns#"
   xmlns:svg="http://www.w3.org/2000/svg"
   xmlns="http://www.w3.org/2000/svg"
   xmlns:sodipodi="http://sodipodi.sourceforge.net/DTD/sodipodi-0.dtd"
   xmlns:inkscape="http://www.inkscape.org/namespaces/inkscape"
   id="svg3084"
   version="1.1"
   inkscape:version="0.48.4 r9939"
   width="494.16986"
   height="198.99899"
   sodipodi:docname="Whetstone.svg">
  <metadata
     id="metadata3090">
    <rdf:RDF>
      <cc:Work
         rdf:about="">
        <dc:format>image/svg+xml</dc:format>
        <dc:type
           rdf:resource="http://purl.org/dc/dcmitype/StillImage" />
        <dc:title />
      </cc:Work>
    </rdf:RDF>
  </metadata>
  <defs
     id="defs3088" />
  <sodipodi:namedview
     pagecolor="#ffffff"
     bordercolor="#666666"
     borderopacity="1"
     objecttolerance="10"
     gridtolerance="10"
     guidetolerance="10"
     inkscape:pageopacity="0"
     inkscape:pageshadow="2"
     inkscape:window-width="1271"
     inkscape:window-height="740"
     id="namedview3086"
     showgrid="false"
     inkscape:zoom="1.5694321"
     inkscape:cx="218.19425"
     inkscape:cy="155.67152"
     inkscape:window-x="0"
     inkscape:window-y="22"
     inkscape:window-maximized="0"
     inkscape:current-layer="svg3084"
     fit-margin-top="0"
     fit-margin-left="0"
     fit-margin-right="0"
     fit-margin-bottom="0" />
  <path
     style="fill:#b3a9a9;fill-opacity:1;stroke:none"
     d="m 64.782261,82.670857 -30.192257,60.384513 1.437728,2.39622 167.734758,-6.70939 161.50461,-5.27167 23.00363,-67.573149 -128.91614,5.271664 -66.61467,4.31318 -51.75815,5.271664 z"
     id="path3098"
     inkscape:connector-curvature="0" />
  <path
     style="fill:#b3a9a9;fill-opacity:1;stroke:none"
     d="m 33.63152,149.76476 -0.479243,14.85651 184.028993,-4.31318 131.31236,-6.70939 21.5659,-1.91697 6.23014,0.95849 17.73197,-53.195883 -6.7094,-23.003628 -19.16968,57.509061 z"
     id="path3868"
     inkscape:connector-curvature="0" />
  <path
     style="fill:#5f3b22;fill-opacity:1;stroke:none"
     d="M 32.149051,104.40021 53.837076,99.655947 31.4713,147.0985 l -0.677752,19.65478 262.289562,-8.13301 86.7521,-5.42201 13.55501,-54.897813 0.67776,-14.23277 16.94376,-2.711 10.16626,6.77751 3.38875,49.475803 -24.39901,40.66506 -44.05381,8.13301 -10.84402,-10.84402 -15.58827,-2.711 -101.6626,1.3555 -119.28415,2.71101 -40.665048,4.06651 -17.62152,6.09974 -6.099757,8.13301 -41.3427972,1.35552 0.6777517,-24.39905 z"
     id="path3870"
     inkscape:connector-curvature="0" />
  <path
     style="fill:#5f3b22;fill-opacity:1;stroke:none"
     d="m 212.43075,52.213392 25.75453,-42.020548 235.17952,-8.8107612 18.29928,42.0205502 -4.74425,38.631794 -62.35308,4.74425 -5.422,-8.133005 -24.39904,1.355503 -2.71099,-0.677751 -3.38876,-15.588268 -175.53745,9.488511 -2.03326,-5.422007 z"
     id="path3872"
     inkscape:connector-curvature="0" />
  <path
     style="fill:#000000"
     d="m 1.3999158,198.98217 c -0.1058791,-0.10042 -0.62232102,-6.31622 -1.14764052,-13.81268 -0.6981382,-9.96262 0.012126,-15.68659 2.63989532,-21.27368 1.9772628,-4.20406 8.2944534,-17.69556 14.0382024,-29.9811 5.743748,-12.28555 11.49878,-24.47893 12.788943,-27.0964 1.765843,-3.58253 4.898499,-5.09767 12.671709,-6.12883 9.64423,-1.279353 10.709977,-2.053513 16.14236,-11.725903 6.510979,-11.592839 5.444083,-11.295981 37.726909,-10.497136 16.653826,0.412103 97.219416,-5.172131 107.119086,-7.424734 4.37348,-0.99516 4.83984,-2.021617 3.69385,-8.130281 -0.9791,-5.219013 -0.2572,-8.207035 2.84767,-11.786985 2.28758,-2.637612 9.12758,-13.187912 15.19998,-23.445111 L 236.1616,9.0298758 266.19724,7.5757588 c 16.51959,-0.799763 48.22462,-1.933069 70.45561,-2.518457 22.231,-0.585388 53.39789,-1.987387 69.25978,-3.115553 15.86189,-1.12816499 37.88014,-2.00055599 48.92946,-1.93864699 l 20.08967,0.112559 9.61906,20.62927019 9.61904,20.629269 -1.44584,19.908056 c -0.79523,10.949432 -2.36606,20.828251 -3.49074,21.952931 -1.12467,1.12468 -16.2904,3.17518 -33.70161,4.55667 l -31.65674,2.51181 0.34274,6.3821 c 0.18849,3.510163 0.95881,14.040633 1.71177,23.401053 l 1.369,17.01894 -12.80758,22.5558 -12.80759,22.55582 -15.49625,2.363 c -33.95586,5.17788 -31.58992,5.47835 -38.79915,-4.92726 -2.80519,-4.04892 -5.34861,-4.25474 -52.57981,-4.25474 -83.43806,0 -195.200741,3.31578 -216.630392,6.42701 -17.917265,2.60128 -20.813336,3.63976 -25.528412,9.15383 -5.14289,6.01441 -6.073188,6.25212 -28.187627,7.20269 -12.57806,0.54065 -22.955832,0.90077 -23.0617132,0.80026 z M 51.26585,185.53763 c 11.546352,-10.13785 39.093594,-12.59624 162.97478,-14.54436 43.82824,-0.68923 89.11056,-1.58595 100.62736,-1.99272 22.69589,-0.8016 32.86671,1.75805 38.40514,9.66528 2.68193,3.82898 4.54359,4.22899 14.50199,3.11606 27.08945,-3.02748 25.25298,-1.93742 25.25298,-14.98938 0,-7.87965 -0.8535,-11.59535 -2.65921,-11.57677 -1.46257,0.0151 -38.55854,2.0463 -82.4355,4.51388 -43.87696,2.46759 -105.14515,4.75356 -136.15154,5.07993 -61.57172,0.64811 -153.538668,4.3785 -161.14811,6.53654 -7.3496806,2.08436 -5.918143,7.18763 2.127368,7.58381 l 6.913944,0.34046 -6.913944,0.85801 c -6.1155608,0.75894 -6.9139449,1.61348 -6.9139449,7.40039 l 0,6.5424 19.0894049,-1.08843 c 17.393806,-0.99175 19.732506,-1.65307 26.329282,-7.4451 z m -36.377374,2.22218 c 2.04759,-0.53507 5.398194,-0.53507 7.445786,0 2.047591,0.5351 0.372289,0.97291 -3.722894,0.97291 -4.095182,0 -5.770484,-0.43781 -3.722892,-0.97291 z m -1.038881,-4.29288 c 2.646259,-0.50884 6.475521,-0.48953 8.50947,0.043 2.03395,0.53245 -0.131174,0.9488 -4.811381,0.92519 -4.680208,-0.0236 -6.344347,-0.45928 -3.698089,-0.96813 z m -2.152171,-8.50621 c 2.632618,-0.50706 6.940536,-0.50706 9.573154,0 2.632617,0.50705 0.478657,0.92193 -4.786578,0.92193 -5.265234,0 -7.4191928,-0.41488 -4.786576,-0.92193 z m 391.839016,-8.38031 c -0.51435,-0.16968 0.61603,-2.0843 2.51196,-4.25473 5.5402,-6.34235 14.4077,-23.54401 14.87083,-28.84724 0.2345,-2.68519 0.27747,-8.49667 0.0955,-12.91441 l -0.33087,-8.03226 -6.3821,3.30031 c -3.51016,1.81517 -6.38211,4.63341 -6.38211,6.26274 0,1.62934 -0.6238,4.58807 -1.38625,6.57496 -1.18639,3.09168 -0.74648,3.27013 3.05119,1.23767 2.44061,-1.30616 5.21837,-2.33254 6.17284,-2.28083 0.95446,0.0517 -1.85456,1.98922 -6.24225,4.30556 -6.7167,3.54587 -9.72118,8.0768 -7.44579,11.22871 0.29251,0.4052 -0.90413,2.47551 -2.65921,4.6007 -2.50978,3.03903 -2.60436,4.06137 -0.44304,4.78857 1.97047,0.663 2.11269,1.69011 0.50265,3.63008 -1.23494,1.48801 -1.82468,4.98485 -1.31056,7.77075 0.51414,2.78591 1.03502,6.50126 1.15756,8.25633 0.16253,2.32865 0.88924,2.04118 2.6888,-1.06368 1.35631,-2.3401 2.04519,-4.39356 1.53083,-4.56323 z m 0.1285,-22.86495 c 0,-0.45984 1.48569,-1.40619 3.30154,-2.103 1.89319,-0.72648 2.74712,-0.36984 2.00182,0.83608 -1.24932,2.02144 -5.30336,2.98991 -5.30336,1.26692 z M 24.461629,164.48437 c 5.93285,-1.58994 6.259912,-4.12952 0.531846,-4.12952 -2.340108,0 -4.254739,0.68859 -4.254739,1.53019 0,0.84161 -2.632618,1.92901 -5.85026,2.41645 -5.5891798,0.84669 -5.6129148,0.89916 -0.531842,1.17593 2.925129,0.15934 7.472378,-0.28754 10.104995,-0.99305 z m 124.982861,-3.69082 c 55.6458,-1.04832 127.52447,-4.3606 197.19753,-9.08715 l 20.626,-1.39925 -1.25343,-6.6007 c -0.68937,-3.63038 -1.46201,-6.86702 -1.71697,-7.19254 -0.25495,-0.32551 -14.7165,0.37767 -32.13679,1.56262 -17.42027,1.18495 -48.42625,2.23057 -68.90216,2.3236 -20.47592,0.093 -48.71672,1.05229 -62.75735,2.13167 -14.04062,1.07938 -49.93996,2.57838 -79.7763,3.33112 -29.83633,0.75273 -61.348602,2.44091 -70.027284,3.75151 -14.455974,2.18305 -15.838869,2.82896 -16.488631,7.70132 l -0.709222,5.31842 26.061786,-0.31915 c 14.333991,-0.17553 54.781251,-0.86019 89.882821,-1.52147 z M 39.353208,157.94176 c 2.632617,-0.50706 6.940537,-0.50706 9.573154,0 2.632618,0.50707 0.478658,0.92194 -4.786577,0.92194 -5.265235,0 -7.419195,-0.41487 -4.786577,-0.92194 z m 1.104167,-4.22762 c 2.069865,-0.53938 4.941812,-0.50391 6.382103,0.0788 1.440292,0.58275 -0.25322,1.02406 -3.763377,0.9807 -3.510157,-0.0434 -4.688591,-0.52013 -2.618726,-1.05951 z m -13.045402,-2.14228 c -2.19238,-0.87187 -2.274411,-1.53984 -0.33623,-2.7377 1.641817,-1.01471 0.580899,-1.96349 -2.950344,-2.63853 -3.032716,-0.57974 -5.514031,-0.77655 -5.514031,-0.43735 0,1.81141 7.044676,7.27871 9.193275,7.13479 1.539151,-0.10312 1.387533,-0.61325 -0.39267,-1.32121 z m 347.572117,-2.7031 c -0.70191,-1.1357 0.0906,-4.72563 1.76112,-7.97763 1.67051,-3.25201 5.68205,-14.75158 8.91456,-25.55461 4.63366,-15.485743 5.45978,-21.097553 3.90425,-26.521383 -1.88044,-6.5567 -2.39448,-5.63502 -10.95445,19.641873 -6.96947,20.58027 -8.68092,28.30847 -7.63993,34.49901 0.73781,4.38769 2.23003,7.97763 3.31605,7.97763 1.08602,0 1.4003,-0.92921 0.6984,-2.06489 z m 18.93016,-3.55802 c 2.02681,-5.28175 -0.2072,-6.00295 -2.916,-0.9414 -1.30684,2.44186 -1.48669,4.43694 -0.39997,4.43694 1.08602,0 2.57822,-1.57299 3.31597,-3.49554 z m -268.93449,-5.02537 c 36.85664,-1.09049 90.46632,-2.95892 119.1326,-4.15205 28.66628,-1.19313 67.62544,-2.75872 86.57593,-3.47908 l 34.45542,-1.30975 7.75781,-22.64778 c 4.2668,-12.456283 9.10381,-26.865203 10.74893,-32.019823 l 2.9911,-9.372042 -36.69486,1.391907 c -84.25144,3.195817 -127.94698,5.634982 -160.08221,8.936082 -18.72084,1.923105 -54.02704,4.124792 -78.45822,4.892643 l -44.420333,1.39608 -15.661575,28.719473 c -8.61386,15.7957 -15.668871,29.50633 -15.677806,30.46806 -0.0085,0.96174 5.009674,1.16595 11.152449,0.45381 6.142774,-0.71215 41.324117,-2.18703 78.180765,-3.27753 z M 60.864371,128.07693 c 9.121387,-0.39974 49.360199,1.04042 57.789599,1.44304 8.42941,0.40282 -9.09763,-0.70784 -26.648412,-0.71082 -17.550783,-0.003 -40.262552,-0.33248 -31.141187,-0.73222 z m 1.889881,-8.42778 c 2.632618,-0.50707 6.940538,-0.50707 9.573155,0 2.632618,0.50706 0.478658,0.92193 -4.786577,0.92193 -5.265235,0 -7.419195,-0.41487 -4.786578,-0.92193 z m 17.018942,0.0924 c 1.462565,-0.59016 3.855854,-0.59016 5.318419,0 1.462566,0.59016 0.265921,1.07301 -2.659209,1.07301 -2.925131,0 -4.121775,-0.48285 -2.65921,-1.07301 z m 10.636839,-2.12737 c 1.462565,-0.59016 3.855854,-0.59016 5.318419,0 1.462565,0.59016 24.707268,-0.36471 21.782138,-0.36471 -2.92513,0 -28.563123,0.95487 -27.100557,0.36471 z m -21.805519,-4.99386 c 4.076993,-1.73213 47.743146,-2.92288 45.911796,-1.34108 -0.48753,0.42109 -32.030722,1.30182 -38.466009,1.95718 -7.281363,0.74152 -10.093552,0.50882 -7.445787,-0.6161 z M 78.176349,102.536 c -7.44e-4,-0.87754 5.025162,-1.31909 11.168681,-0.98122 18.72633,1.02986 36.31312,1.50271 20.07105,1.8078 -8.48288,0.15934 -31.239007,0.051 -31.239731,-0.82658 z m 8.06232,-8.491203 c 7.358671,-0.41661 26.035091,-0.41317 32.717051,0.008 6.68193,0.4208 -6.52743,0.76166 -20.568061,0.75745 -14.040624,-0.004 -19.507683,-0.3485 -12.14899,-0.7651 z M 389.50748,132.75924 c -0.69287,-1.80554 -1.716,-2.82655 -2.27363,-2.2689 -0.55765,0.55764 -0.38288,2.0349 0.38835,3.2828 2.09769,3.39413 3.32376,2.73475 1.88528,-1.0139 z m 11.36025,-8.15849 c -0.61877,-1.6125 -0.004,-4.19895 1.36791,-5.74766 2.05585,-2.3221 1.86237,-2.34028 -1.10346,-0.10369 -3.10817,2.34394 -3.25707,8.78317 -0.20316,8.78317 0.58502,0 0.55741,-1.31932 -0.0615,-2.93182 z m -6.68847,-3.59182 c 2.18281,-3.53186 0.22361,-4.02162 -2.83057,-0.70758 -1.50869,1.63707 -1.80452,2.97649 -0.65738,2.97649 1.14712,0 2.71669,-1.02101 3.48795,-2.26891 z M 42.012417,114.82442 c 0,-0.9938 -1.408275,-1.60023 -3.129485,-1.34761 -4.95815,0.72771 -5.60204,2.4968 -1.033986,2.8409 2.28992,0.17249 4.163471,-0.49949 4.163471,-1.49329 z m 360.085143,-9.00691 c -2.07659,-4.40659 -2.28965,-4.46661 -2.20879,-0.62227 0.0491,2.34011 -0.65288,6.16937 -1.56023,8.50947 -1.56425,4.0342 -1.44976,4.06645 2.20876,0.62227 3.11628,-2.93371 3.41641,-4.57064 1.56026,-8.50947 z m 14.47144,6.74867 c 4.15034,-2.2212 5.76119,-8.43462 2.18668,-8.43462 -1.06052,0 -1.39783,-2.15396 -0.74958,-4.786583 0.64825,-2.63262 0.3986,-4.06812 -0.55476,-3.19001 -0.95338,0.87811 -1.87148,3.2714 -2.04023,5.318423 -0.1687,2.04702 -1.47839,5.87581 -2.9103,8.50843 -2.88777,5.3093 -2.03529,5.85085 4.06819,2.58436 z M 49.438398,106.29096 c 0.809145,-1.30922 -1.338603,-1.59364 -5.724704,-0.75811 -9.405667,1.79174 -10.2173,2.85344 -2.181402,2.85344 3.636118,0 7.193864,-0.9429 7.906106,-2.09533 z m 359.129462,-2.28098 c 0.93511,-3.57582 0.59564,-3.92086 -1.85581,-1.88633 -1.65016,1.3695 -2.47566,3.33884 -1.83445,4.37632 1.73568,2.8084 2.42663,2.34219 3.69026,-2.48999 z m 0.27245,-18.813213 c -0.69767,-0.69768 -2.59356,0.64461 -4.21308,2.98287 -1.6195,2.33827 -3.93452,5.40763 -5.14446,6.82082 -1.20996,1.41318 -2.18464,3.32781 -2.16596,4.25473 0.0191,0.926923 2.90454,-1.57161 6.41301,-5.55229 3.50846,-3.98069 5.80818,-7.80845 5.11049,-8.50613 z m 5.27936,0.85216 c 0.0643,-1.17005 -0.81103,-0.69139 -1.94526,1.06369 -1.13423,1.75507 -2.0096,4.62702 -1.94527,6.3821 0.12339,3.36943 3.66901,-3.41608 3.89053,-7.44579 z m -13.89775,4.14425 c 0.72648,-1.8932 0.36984,-2.74712 -0.83608,-2.00182 -1.15665,0.71485 -2.10301,0.12636 -2.10301,-1.30776 0,-1.43411 -0.50118,-2.10628 -1.11376,-1.49372 -1.04419,1.04421 0.85272,8.10484 2.17745,8.10484 0.33465,0 1.17858,-1.4857 1.8754,-3.30154 z m 68.80571,-8.685115 c 13.01966,-1.136431 15.58265,-2.012877 16.76317,-5.732394 1.41861,-4.469668 1.7846,-26.721672 0.46125,-28.045012 -1.42701,-1.427021 -149.75428,3.478591 -157.47254,5.208075 -4.33034,0.97033 -12.30712,1.264484 -17.72616,0.653678 -11.29996,-1.273668 -86.12344,3.447244 -94.40444,5.956353 -5.20786,1.577956 -5.10149,1.691438 1.93504,2.06464 4.09518,0.2172 9.83907,1.185512 12.7642,2.151805 3.71856,1.228393 1.47876,1.576911 -7.44578,1.158577 -7.02032,-0.329074 -11.45924,-0.141895 -9.86429,0.415937 2.44832,0.856306 2.44832,1.324767 0,3.008183 -1.85368,1.274553 1.32142,1.457311 8.8006,0.50656 6.43529,-0.818053 23.66697,-1.520017 38.29262,-1.55992 15.08517,-0.04116 24.29071,-0.757007 21.27368,-1.654307 -3.21014,-0.954731 1.42808,-1.451852 11.70052,-1.254051 9.36042,0.18023 36.16525,-0.388894 59.5663,-1.264737 28.48728,-1.066209 41.49284,-0.891084 39.3563,0.529946 -2.45058,1.629896 -1.46329,2.188353 4.25473,2.406664 l 7.44579,0.284275 -6.3821,1.433714 -6.3821,1.433714 7.17986,1.505638 c 3.94893,0.828102 11.08093,1.505639 15.84889,1.505639 4.97153,0 7.80704,0.778001 6.64802,1.824079 -1.11154,1.003245 -8.00422,1.207317 -15.31704,0.453497 -12.14576,-1.252011 -13.29605,-1.019192 -13.29605,2.69114 0,3.271289 0.58905,3.572861 3.02686,1.549657 2.86352,-2.376525 9.74288,-2.192569 38.26445,1.023205 4.57442,0.515759 8.88234,1.557316 9.57316,2.31457 0.69082,0.75726 -3.74319,0.8123 -9.85337,0.12233 -7.09975,-0.801729 -11.63285,-0.407587 -12.55966,1.09203 -1.44168,2.33267 1.77163,2.21215 47.54809,-1.783485 z m -51.5348,-11.414391 -8.50947,-1.523598 9.04131,-0.301886 c 4.97272,-0.166041 9.04131,0.655432 9.04131,1.825484 0,1.170052 -0.23933,1.99152 -0.53184,1.825483 -0.29251,-0.166041 -4.3611,-0.987505 -9.04131,-1.825483 z m 11.70052,0 c 0,-1.170052 2.87195,-2.127368 6.3821,-2.127368 3.51016,0 6.38211,0.957316 6.38211,2.127368 0,1.170052 -2.87195,2.127368 -6.38211,2.127368 -3.51015,0 -6.3821,-0.957316 -6.3821,-2.127368 z M 233.47552,61.468282 c -4.27894,-1.277093 -3.44736,-1.622416 4.25474,-1.766817 5.26523,-0.09871 10.75912,0.573749 12.20864,1.494365 3.43219,2.179828 -9.36318,2.391578 -16.46338,0.272452 z m 71.93162,0.790051 c 1.53568,-0.614535 3.37054,-0.538956 4.07746,0.167956 0.70691,0.706907 -0.54958,1.209708 -2.79217,1.117336 -2.47827,-0.102071 -2.98235,-0.606175 -1.28529,-1.285292 z m -49.59426,-2.801501 c -3.15359,-1.355146 -1.50188,-1.858589 6.3821,-1.945269 7.61217,-0.08369 9.72944,0.469459 7.44579,1.945269 -3.82218,2.470083 -8.0797,2.470083 -13.82789,0 z m 18.08263,1.305138 c 0,-1.777433 12.82464,-2.57992 15.37393,-0.962006 1.62474,1.031148 -0.90943,1.73212 -6.33262,1.75166 -4.97272,0.01787 -9.04131,-0.337426 -9.04131,-0.789654 z m 41.48367,-1.305138 c -4.05979,-1.744546 -4.03541,-1.835173 0.53184,-1.977845 2.63262,-0.08224 4.78658,0.807793 4.78658,1.977845 0,1.170052 -0.23933,2.060084 -0.53185,1.977846 -0.29251,-0.08224 -2.44647,-0.972269 -4.78657,-1.977846 z m 9.57315,0 c 0,-1.170052 1.49248,-2.127367 3.31661,-2.127367 1.82413,0 2.72495,0.957315 2.00181,2.127367 -0.72313,1.170052 -2.21561,2.127368 -3.31661,2.127368 -1.101,0 -2.00181,-0.957316 -2.00181,-2.127368 z m 25.52841,1.238635 c 0,-2.817905 11.28988,-5.691277 13.53611,-3.445058 1.52364,1.523653 0.81197,2.206423 -2.2998,2.206423 -2.47842,0 -6.02049,0.58108 -7.87126,1.291289 -1.85078,0.710209 -3.36505,0.686514 -3.36505,-0.05265 z m 42.05362,-7.035139 c 3.82362,-0.473472 9.56752,-0.463701 12.7642,0.0217 3.19669,0.48541 0.0683,0.872795 -6.95204,0.860854 -7.02032,-0.01191 -9.63579,-0.409095 -5.81216,-0.882553 z m 23.38775,-2.090203 c 2.64625,-0.508852 6.47551,-0.489533 8.50947,0.04293 2.03395,0.532463 -0.13126,0.948798 -4.81138,0.925186 -4.68021,-0.02361 -6.34435,-0.459267 -3.69809,-0.968116 z M 262.19498,49.932028 c 15.21068,-0.610301 49.67404,-2.095104 76.58524,-3.299566 26.9112,-1.20446 67.59711,-2.649722 90.41313,-3.211691 22.81602,-0.56197 45.51869,-1.545297 50.45038,-2.185169 l 8.9667,-1.163404 -8.9667,-18.231109 -8.96671,-18.2311142 -26.5921,1.280322 c -94.3372,4.542026 -116.61108,5.5112312 -159.55257,6.9426242 -26.67351,0.889123 -45.04014,2.254697 -41.48367,3.084349 l 6.3821,1.488811 -6.3821,0.268085 c -5.06986,0.212962 -7.36282,1.985663 -11.15182,8.621493 l -4.7697,8.353405 5.83339,0.884615 c 5.50733,0.835167 5.45395,0.90243 -0.955,1.203361 -8.61097,0.404325 -11.49861,4.475977 -3.44216,4.853532 5.51252,0.258339 5.39855,0.401557 -1.46997,1.847319 -4.09519,0.861998 -6.00982,1.753972 -4.25474,1.982164 1.91721,0.249272 1.08843,1.253902 -2.07616,2.516661 -4.33787,1.730935 -4.71323,2.4686 -2.12737,4.18086 1.72691,1.143501 6.01179,1.594218 9.52195,1.001591 3.51016,-0.592628 18.82721,-1.576839 34.03788,-2.187139 z m -35.50044,-0.437901 c 1.53568,-0.614535 3.37053,-0.538956 4.07746,0.167955 0.7069,0.706908 -0.54959,1.209709 -2.79217,1.117336 -2.47828,-0.102071 -2.98236,-0.606174 -1.28529,-1.285291 z m 4.25473,-4.254736 c 1.53568,-0.614535 3.37054,-0.538956 4.07746,0.167956 0.70691,0.706907 -0.54958,1.209709 -2.79217,1.117336 -2.47827,-0.102071 -2.98235,-0.606174 -1.28529,-1.285292 z m 42.94624,-0.674133 c -1.91738,-1.239106 -2.17977,-2.075217 -0.6574,-2.094791 1.39351,-0.01787 3.12531,0.924739 3.84845,2.094791 1.63233,2.64118 0.89588,2.64118 -3.19105,0 z m 20.87479,0.674133 c 1.53569,-0.614535 3.37054,-0.538956 4.07746,0.167956 0.70691,0.706907 -0.54958,1.209709 -2.79217,1.117336 -2.47827,-0.102071 -2.98235,-0.606174 -1.28529,-1.285292 z m -54.91268,-2.8015 c -1.91737,-1.239107 -2.17976,-2.075218 -0.6574,-2.094792 1.39352,-0.01787 3.12532,0.924739 3.84846,2.094792 1.63232,2.64118 0.89587,2.64118 -3.19106,0 z m 20.74184,-3.536283 c 1.46256,-0.590158 3.85585,-0.590158 5.31842,0 1.46256,0.590159 0.26592,1.073014 -2.65921,1.073014 -2.92513,0 -4.12178,-0.482855 -2.65921,-1.073014 z m 14.8486,-2.002381 c -2.60771,-2.607717 6.01009,-13.298001 11.35202,-14.082028 3.06826,-0.450327 29.25894,-1.087133 58.20148,-1.415127 52.29823,-0.592672 52.60859,-0.56973 50.31325,3.719152 -4.17492,7.800881 -1.97007,7.526188 -78.93207,9.833851 -20.07573,0.60196 -37.23597,1.548506 -38.13387,2.103441 -0.8979,0.554932 -2.15826,0.483253 -2.80081,-0.159297 z m 46.8414,-5.731331 c 21.28315,-0.465727 27.02661,-4.163905 10.07522,-6.487356 -11.41229,-1.564228 -35.06813,0.573368 -35.06813,3.168835 0,1.003371 -2.87194,1.824311 -6.3821,1.824311 -3.67007,0 -6.39595,-1.130017 -6.41467,-2.659209 -0.0217,-1.772806 -0.71999,-1.595526 -2.0948,0.531842 -3.75076,5.803893 -2.23955,6.701495 9.04131,5.37018 6.14278,-0.724941 20.02219,-1.511812 30.84317,-1.748603 z m 68.09317,-5.243827 c 0.69463,-2.095225 -3.24428,-2.383641 -17.91018,-1.311416 -26.82904,1.961476 -29.70129,5.136561 -4.08152,4.511868 14.72442,-0.359031 21.37032,-1.326209 21.9917,-3.200452 z M 234.04785,28.19944 c 2.06986,-0.539379 4.94181,-0.503908 6.3821,0.07882 1.44029,0.582735 -0.25322,1.024046 -3.76338,0.980691 -3.51015,-0.04336 -4.68859,-0.520137 -2.61872,-1.05951 z m 7.53826,-6.361091 c 1.53568,-0.614535 3.37054,-0.538956 4.07746,0.167955 0.70691,0.706908 -0.54958,1.209709 -2.79217,1.117336 -2.47828,-0.102071 -2.98235,-0.606174 -1.28529,-1.285291 z M 410.04704,191.35364 c 0,-1.17005 1.01382,-2.12737 2.25293,-2.12737 1.2391,0 1.66126,0.95732 0.93812,2.12737 -0.72313,1.17005 -1.73695,2.12737 -2.25292,2.12737 -0.51597,0 -0.93813,-0.95732 -0.93813,-2.12737 z"
     id="path3096"
     inkscape:connector-curvature="0"
     sodipodi:nodetypes="cssssssssssscsssscccssscsscccsssssscsssssscsssscsscssssssccsccsssscssscssssssssssscscsssssssssssscscsssssscssssssssssssssssssssssssssssssscsscssscscssscsssssssssssssssssscsscssssscssccssccssssssssscssssssscsssssssscscsscsccscccsssscsssssssssssssssssscccsssssssssssscsssssssssssssssssssssssssssscssssssssssssssssssssssscccssscsscsssssssssssssssssscssssssscssssssssssssssssssssssssssssssssssssss" />
</svg>
