<?xml version="1.0" encoding="UTF-8" standalone="no"?>
<!-- Created with Inkscape (http://www.inkscape.org/) -->

<svg
   xmlns:dc="http://purl.org/dc/elements/1.1/"
   xmlns:cc="http://creativecommons.org/ns#"
   xmlns:rdf="http://www.w3.org/1999/02/22-rdf-syntax-ns#"
   xmlns:svg="http://www.w3.org/2000/svg"
   xmlns="http://www.w3.org/2000/svg"
   xmlns:sodipodi="http://sodipodi.sourceforge.net/DTD/sodipodi-0.dtd"
   xmlns:inkscape="http://www.inkscape.org/namespaces/inkscape"
   id="svg25313"
   version="1.1"
   inkscape:version="0.48.4 r9939"
   width="492.79666"
   height="283.43982"
   sodipodi:docname="Whip.svg">
  <metadata
     id="metadata25319">
    <rdf:RDF>
      <cc:Work
         rdf:about="">
        <dc:format>image/svg+xml</dc:format>
        <dc:type
           rdf:resource="http://purl.org/dc/dcmitype/StillImage" />
        <dc:title />
      </cc:Work>
    </rdf:RDF>
  </metadata>
  <defs
     id="defs25317" />
  <sodipodi:namedview
     pagecolor="#ffffff"
     bordercolor="#666666"
     borderopacity="1"
     objecttolerance="10"
     gridtolerance="10"
     guidetolerance="10"
     inkscape:pageopacity="0"
     inkscape:pageshadow="2"
     inkscape:window-width="1247"
     inkscape:window-height="719"
     id="namedview25315"
     showgrid="false"
     inkscape:zoom="1.1394558"
     inkscape:cx="193.20275"
     inkscape:cy="135.05742"
     inkscape:window-x="-2"
     inkscape:window-y="22"
     inkscape:window-maximized="0"
     inkscape:current-layer="svg25313"
     fit-margin-top="0"
     fit-margin-left="0"
     fit-margin-right="0"
     fit-margin-bottom="0" />
  <path
     style="fill:#6b5311;fill-opacity:0.84653476;stroke:none"
     d="m 176.81911,82.21087 18.53973,24.53789 c 56.32461,-59.807269 82.55569,-66.950887 110.69317,-77.430676 32.66762,-2.131534 63.10281,-9.046885 102.51384,3.271719 20.25743,14.722733 36.69609,29.445469 44.61993,44.168202 21.19197,38.464795 13.58378,85.364805 5.00113,123.234735 -6.05207,22.36145 -25.67669,35.14227 -49.07578,45.25879 -49.59761,18.37985 -75.32748,8.55232 -103.05912,1.09056 -31.72583,-13.49917 -48.11968,-32.83908 -58.34566,-54.52865 -4.88937,-28.55146 -23.76099,-53.8991 6.86285,-91.06283 19.74696,-18.960969 41.32733,-33.192837 66.20554,-36.760058 39.06347,-5.290644 74.41405,0.09089 98.15155,35.669488 7.45675,18.1796 19.27032,29.93147 0.54529,91.60812 -52.7151,48.60501 -109.13762,28.10844 -121.05359,19.08502 -47.27975,-37.59536 -26.88927,-88.38627 -19.08504,-95.97041 8.1541,-2.78029 24.02878,-36.006934 76.34012,-22.35674 23.42124,8.85785 46.58726,17.92976 47.98519,45.25877 9.31266,33.97151 -12.23427,42.81331 -27.26431,54.52864 -37.23834,20.33261 -63.27815,-6.13774 -69.79666,-14.17743 -4.09991,-10.69496 -19.33991,-26.29442 -2.45379,-53.43808 14.98114,-8.24949 31.85863,-16.12965 48.25786,-3.81701 10.38872,7.78908 24.16757,10.23494 22.35673,37.07947 l 6.54345,2.72645 c 6.30487,-9.37159 4.62654,-19.358 1.63584,-29.44548 l -36.53419,-27.8096 c -18.77558,-1.75425 -32.83894,2.48885 -43.62291,10.90572 -13.74032,12.03743 -17.65544,26.53115 -19.90296,41.44177 8.51749,55.0572 39.06026,52.24224 45.53143,55.61923 34.45877,10.79237 54.08524,-12.71494 77.70332,-26.99168 7.66369,-27.156 21.74612,-52.30821 -8.99724,-91.33549 -53.12756,-31.508196 -66.47975,-15.48 -92.15341,-14.177445 -15.76858,5.673608 -53.60322,21.169965 -56.70979,83.974115 2.64193,10.11882 4.74229,66.34605 95.42513,81.24768 34.50166,-6.06447 66.8865,-16.36252 89.15434,-46.89463 9.57848,-37.12988 22.02458,-71.21798 5.72551,-112.329013 -18.14791,-11.912902 -18.95061,-30.00759 -89.97228,-46.34935 -33.12876,-1.617046 -58.34054,8.641367 -83.42882,19.085027 -20.88179,17.278382 -40.78407,35.017716 -44.51502,60.367086 -6.87489,71.69443 6.60827,83.67196 13.97897,113.5793 30.89958,33.7732 61.79913,36.41002 92.69871,50.71162 32.69223,-4.54838 32.52556,14.66277 125.96117,-33.80775 19.79335,-23.12256 38.88572,-48.31629 36.5342,-136.8669 C 478.62006,80.950962 473.50515,19.102928 378.02981,3.6896201 350.66859,-1.9014009 298.48395,0.2280571 236.80063,36.406808 z"
     id="path25835"
     inkscape:connector-curvature="0"
     sodipodi:nodetypes="ccccccccccccccccccccccccccccccccccccccccccccc" />
  <path
     style="fill:#6b1a11;fill-opacity:1;stroke:none"
     d="m 2.0548024,224.53063 c 2.2259887,22.30866 14.2304376,25.87529 24.8105336,32.17192 18.804961,-5.548 26.416175,-17.49241 35.44362,-28.62756 l 5.99815,-18.26709 c 30.283056,-26.46235 57.967844,-56.82209 92.153414,-77.43068 13.99583,-6.50177 34.61182,-12.72771 32.44454,-19.90295 C 189.15508,97.5525 180.56592,86.502078 165.91338,80.302368 157.66365,78.691079 154.10748,92.02489 150.64536,105.65819 116.18861,135.59266 87.653252,165.2944 45.132433,193.4493 l -22.084102,7.63402 C 15.293868,207.575 7.0291631,213.17377 2.0548024,224.53063 z"
     id="path25325"
     inkscape:connector-curvature="0"
     sodipodi:nodetypes="ccccccccccc" />
  <path
     style="fill:#000000"
     d="m 315.72773,278.84454 c -29.13357,-8.73175 -53.0462,-20.37961 -67.30614,-32.7849 -6.90261,-6.00486 -13.03149,-10.43664 -13.61974,-9.84841 -0.58824,0.58825 -1.06953,-0.59724 -1.06953,-2.63442 0,-2.03716 -0.78025,-4.18617 -1.73389,-4.77556 -4.55715,-2.81646 -13.08216,-43.19242 -15.7195,-74.45027 -2.72416,-32.28668 5.98449,-59.37512 25.24063,-78.511509 14.9527,-14.859705 28.99487,-23.537593 48.88301,-30.209103 41.56882,-13.944324 78.84548,-11.13474 111.46539,8.401269 34.15515,20.455455 39.06058,25.675911 43.69336,46.499373 2.46388,11.07469 2.6302,17.1705 1.15881,42.47489 -1.92069,33.03133 -4.02428,40.66986 -16.0953,58.44524 -11.94371,17.58787 -22.97972,24.87225 -54.0307,35.66322 -24.14161,8.38979 -37.28133,9.09552 -58.7221,3.15398 -14.92673,-4.13642 -42.27117,-21.24211 -51.88384,-32.45667 -12.73483,-14.85702 -20.95277,-39.08738 -18.21752,-53.71384 0.81339,-4.34954 1.90399,-11.83182 2.42356,-16.62732 1.44736,-13.35905 11.57014,-32.04344 23.55252,-43.47271 9.38669,-8.953387 12.01581,-10.364129 30.38341,-16.30318 22.91749,-7.410247 34.67822,-8.170654 56.13395,-3.629424 18.75402,3.96939 30.02596,10.006996 40.38822,21.633174 17.01587,19.0914 23.89756,48.0455 16.92542,71.21219 -4.37356,14.5322 -21.64399,30.48295 -44.79634,41.37335 -12.05396,5.66992 -14.90985,6.30833 -28.50707,6.37248 -8.3111,0.0392 -17.01016,-0.80766 -19.33124,-1.88188 -2.32111,-1.07424 -6.98806,-3.15462 -10.37102,-4.62309 -8.58928,-3.7284 -22.38009,-16.3484 -26.17488,-23.95271 -7.62718,-15.2839 -8.2495,-27.46937 -2.45797,-48.12761 3.62621,-12.93454 11.37718,-21.95708 25.18487,-29.3165 10.28762,-5.48324 11.65908,-5.75709 25.25765,-5.04335 12.24678,0.64278 15.87594,1.61098 24.47063,6.52837 19.12259,10.94084 26.8826,23.66157 25.39286,41.62575 -0.74033,8.92742 -1.50812,10.49752 -7.69029,15.72645 -11.03527,9.33374 -30.71974,13.59025 -44.53095,9.62926 -6.81208,-1.95368 -15.53241,-9.50593 -17.84386,-15.4537 -2.70116,-6.95058 1.60008,-21.53086 8.33999,-28.27079 5.36031,-5.36031 6.70309,-5.86777 13.21519,-4.99432 10.40584,1.39572 16.37794,7.88104 16.37794,17.78537 0,13.78819 -9.11131,18.64197 -22.76859,12.12927 -8.98106,-4.28277 -9.76268,-8.86753 -2.51951,-14.77911 6.34584,-5.17923 9.6713,-5.14032 6.87723,0.0805 -2.12807,3.97631 0.60759,6.6222 8.4734,8.19535 5.47563,1.09512 5.54401,1.02275 5.54401,-5.86805 0,-8.60588 -4.74837,-13.49671 -13.10358,-13.49671 -7.04721,0 -11.2135,3.10893 -14.40813,10.75148 -3.98545,9.53444 -3.0534,18.51166 2.46896,23.77992 9.30133,8.87337 18.31699,10.23352 35.73444,5.39103 8.08533,-2.24793 10.46253,-3.63115 9.90493,-5.7634 -0.40352,-1.54308 0.33293,-3.80195 1.63654,-5.01971 5.93099,-5.54037 1.10985,-20.85995 -9.54677,-30.33566 -12.81205,-11.39229 -20.87488,-14.37332 -33.4139,-12.35396 -17.25242,2.77841 -22.84641,5.96142 -27.007,15.36711 -3.02084,6.82915 -3.45293,10.23155 -2.49132,19.61747 1.32352,12.91834 4.29579,19.78559 12.19942,28.18609 7.10727,7.55407 13.56398,10.87927 26.6034,13.70079 16.16918,3.49875 23.43328,2.95589 35.24967,-2.63427 10.21976,-4.83481 23.62276,-17.49615 23.62276,-22.31557 0,-1.16537 1.18137,-4.38403 2.62526,-7.15256 3.39187,-6.50365 3.37274,-22.16156 -0.0411,-33.65739 -2.21012,-7.4423 -4.4755,-10.51704 -12.74105,-17.29323 -5.52917,-4.53286 -15.9842,-11.07568 -23.23341,-14.53962 -11.93633,-5.70364 -14.59956,-6.29902 -28.21586,-6.30788 -13.82235,-0.009 -16.09103,0.51516 -28.11817,6.4965 -25.17164,12.51833 -36.80743,29.43504 -36.80743,53.51249 0,16.09979 4.6247,30.64648 14.24878,44.81857 12.32997,18.1567 26.26074,23.93978 59.56143,24.72575 19.28443,0.45517 20.88209,0.21129 34.88714,-5.3253 15.94163,-6.30216 25.46832,-11.88922 31.11304,-18.24669 5.98045,-6.73561 11.7231,-17.18117 12.20237,-22.19547 0.24811,-2.59585 1.41157,-7.0922 2.58547,-9.99188 2.9616,-7.31554 0.98147,-44.12115 -2.90851,-54.06177 -9.83433,-25.131134 -32.42887,-39.975656 -68.98107,-45.320296 -24.29254,-3.552039 -42.6932,0.696227 -69.70416,16.093012 -26.11827,14.887944 -37.47256,28.523714 -40.93799,49.163944 -2.25854,13.45183 -2.57775,33.24638 -0.53616,33.24638 0.77325,0 1.40591,2.61611 1.40591,5.81359 0,7.01072 10.1085,32.64786 16.87795,42.80579 8.39816,12.60192 36.19091,30.20741 59.3926,37.62262 11.20889,3.58234 16.59767,4.19915 36.02642,4.12362 26.8505,-0.10439 38.09823,-2.60651 61.45611,-13.67124 21.27829,-10.07963 33.66921,-23.49143 40.28744,-43.6067 9.20774,-27.98578 7.84685,-83.36387 -2.74425,-111.671103 -2.78721,-7.449471 -7.2848,-13.547917 -18.81926,-25.517706 -17.95046,-18.627928 -25.5063,-23.418134 -45.25201,-28.688561 -13.94503,-3.722138 -16.63684,-3.864239 -47.69955,-2.518064 -22.8481,0.990175 -35.60899,2.328052 -41.70745,4.372692 -15.65297,5.247992 -44.10549,19.593571 -51.13937,25.784148 -3.76991,3.317924 -10.41308,8.737859 -14.76261,12.044304 -4.34953,3.306442 -15.22335,12.68396 -24.16405,20.83892 -11.84073,10.8001 -16.25583,15.96903 -16.25583,19.03131 0,8.91165 -4.59813,14.02359 -16.11131,17.91165 -6.01256,2.03048 -12.25149,3.69177 -13.86424,3.69177 -4.11744,0 -36.16084,25.58136 -68.917258,55.01902 -23.70875,21.30667 -27.995752,25.94742 -29.526928,31.96337 -3.253273,12.78209 -5.400271,16.43819 -14.965548,25.48463 -10.252959,9.69682 -18.645761,14.06479 -27.024714,14.06479 C 14.755101,257.78362 0,238.8821 0,226.19395 c 0,-4.3886 2.1523586,-7.83314 10.10497,-16.17157 11.560454,-12.12129 15.169106,-14.28897 28.479337,-17.10722 11.729533,-2.48358 24.62112,-11.88223 57.674475,-42.04775 12.829988,-11.70905 29.037008,-25.85527 36.015608,-31.43604 15.92209,-12.73289 18.37885,-15.65509 19.73564,-23.47453 1.84214,-10.616702 7.02929,-17.426608 13.27396,-17.426608 2.97743,0 6.99183,0.844688 8.92088,1.877082 3.00841,1.610064 5.12248,0.422563 14.86105,-8.347584 30.83838,-27.771758 68.36343,-51.779785 94.75193,-60.621032 23.4787,-7.8663339 53.49877,-12.4904809 72.93152,-11.2340149 37.78496,2.443064 46.94745,4.331797 66.2601,13.6587069 18.48591,8.927635 40.94428,30.243514 48.69132,46.214294 2.81313,5.799374 6.47946,12.52137 8.1474,14.937776 6.57504,9.525577 12.84765,42.30265 12.94808,67.65936 0.0664,16.79431 -8.23994,57.81109 -14.99226,74.03088 -4.36155,10.47694 -8.04475,15.76098 -18.01582,25.84616 -11.90361,12.0398 -13.6815,13.13732 -35.37945,21.84021 -38.64176,15.49894 -44.58795,16.97324 -75.56761,18.73643 -13.98578,0.79599 -17.8185,0.30014 -33.11337,-4.28395 z m 19.8187,-3.2135 c -0.96748,-0.33282 -3.1169,-0.0503 -4.77651,0.62798 -2.72708,1.11443 -2.67922,1.36098 0.49732,2.56197 2.08486,0.78826 4.02809,0.53279 4.77649,-0.62796 0.69396,-1.07628 0.47016,-2.22918 -0.4973,-2.56199 z m 12.41598,2.36251 c 1.82781,-2.20236 1.57406,-2.63608 -1.54221,-2.63608 -2.05147,0 -3.72995,0.73283 -3.72995,1.62853 0,0.89569 -1.38394,1.99019 -3.07542,2.43221 -1.98279,0.51816 -1.43489,0.87612 1.54221,1.00756 2.53969,0.11212 5.60211,-0.98238 6.80537,-2.43222 z m 6.69014,-3.56128 c -0.54108,-0.54108 -1.52374,0.43427 -2.18369,2.16744 -0.9537,2.50463 -0.75185,2.70648 0.98378,0.98378 1.20104,-1.1921 1.74099,-2.61014 1.19991,-3.15122 z m 11.00776,1.65442 c 2.03018,-2.44621 1.69827,-2.7138 -2.72471,-2.19673 -2.77008,0.32385 -5.36111,1.57734 -5.75782,2.78555 -1.04785,3.19111 5.7363,2.7202 8.48253,-0.58882 z m -38.78653,-0.72922 c 0,-0.96657 -0.34874,-1.75739 -0.77497,-1.75739 -0.42624,0 -1.26374,0.79082 -1.86111,1.75739 -0.59737,0.96656 -0.24864,1.75738 0.77497,1.75738 1.02361,0 1.86111,-0.79082 1.86111,-1.75738 z m 46.57073,0 c 0.59737,-0.96657 0.29529,-1.75739 -0.67127,-1.75739 -0.96656,0 -2.24613,0.79082 -2.8435,1.75739 -0.59737,0.96656 -0.2953,1.75738 0.67127,1.75738 0.96656,0 2.24613,-0.79082 2.8435,-1.75738 z m 12.21383,-1.9549 c 2.96401,-2.76934 -3.45019,-1.70667 -7.04513,1.1672 -3.2784,2.62083 -3.24014,2.6816 0.98215,1.55986 2.41641,-0.64196 5.14475,-1.86914 6.06298,-2.72706 z m 26.96388,-17.4748 c 7.13957,-7.68507 13.6522,-13.55806 14.47249,-13.05109 0.8203,0.50697 2.30682,-0.47881 3.3034,-2.19063 0.99657,-1.71182 1.83601,-2.2949 1.86539,-1.29574 0.0294,0.99916 -2.69906,6.08899 -6.06324,11.31073 -3.36419,5.22174 -5.86978,9.741 -5.56798,10.04279 1.35635,1.35634 23.26682,-8.93207 25.34716,-11.90214 1.27857,-1.82543 6.58444,-8.2708 11.7908,-14.32303 11.05714,-12.85359 10.04674,-16.0724 -1.1583,-3.68993 -16.88002,18.65383 -20.69313,22.48417 -20.71037,20.80402 -0.0105,-0.96656 7.55042,-10.3842 16.80073,-20.92809 15.03193,-17.13402 21.4556,-26.56475 19.4562,-28.56413 -1.3703,-1.37031 -31.28743,35.09718 -39.29886,47.90335 -1.57072,2.51078 -2.11498,2.68808 -2.17984,0.71018 -0.10756,-3.2777 12.73767,-20.42132 31.21182,-41.65641 12.8221,-14.73834 17.71614,-22.35388 15.67633,-24.3937 -1.10368,-1.10367 -17.85821,18.53255 -21.11916,24.75154 -5.9613,11.36883 -20.83332,25.5468 -33.47559,31.91336 -6.83092,3.43999 -14.04065,8.34289 -16.02159,10.8953 -1.98095,2.55243 -6.57402,7.89249 -10.20683,11.86684 -7.85221,8.59043 -8.19385,9.98613 -1.85436,7.57588 2.6129,-0.99344 10.5922,-8.09403 17.7318,-15.7791 z m -108.59446,14.15754 c 0,-0.96656 -0.8375,-1.75739 -1.86111,-1.75739 -1.0236,0 -1.37234,0.79083 -0.77497,1.75739 0.59737,0.96656 1.43487,1.75738 1.86111,1.75738 0.42623,0 0.77497,-0.79082 0.77497,-1.75738 z m 37.86772,-2.89269 c 4.65387,-5.02161 5.64196,-9.41629 2.11281,-9.39701 -2.0687,0.0105 -10.10497,10.22092 -10.10497,12.83779 0,2.64657 3.91105,0.96279 7.99216,-3.44078 z m -14.35068,-2.50113 c 3.54542,-6.00195 6.06335,-5.89422 2.84375,0.12161 -3.24988,6.07245 -0.76936,6.01653 3.57212,-0.0805 3.24907,-4.56291 3.51872,-5.83166 1.50975,-7.10381 -4.7474,-3.00624 -7.99219,-1.5265 -11.90025,5.42695 -4.81643,8.56968 -1.03954,10.12402 3.97463,1.63572 z m 29.27659,0.0206 c 2.10439,-2.95533 3.37858,-5.8209 2.83154,-6.36794 -1.85685,-1.85688 -5.52888,0.78646 -8.71446,6.27316 -2.66569,4.59131 -2.75533,5.46813 -0.559,5.46813 1.43866,0 4.33754,-2.41801 6.44192,-5.37335 z m 8.71488,-5.56195 c 0,-2.27327 0.0659,-2.34606 -5.12371,5.66305 l -3.98549,6.15085 4.5546,-4.9308 c 2.50503,-2.71195 4.5546,-5.80934 4.5546,-6.8831 z m 8.37911,6.1024 c 6.07666,-8.77611 6.1559,-9.22628 1.62376,-9.22628 -3.02735,0 -5.61253,2.03832 -8.91557,7.02954 l -4.65194,7.02955 4.29874,0 c 2.70671,0 5.53801,-1.78981 7.64501,-4.83281 z m -76.03847,1.31804 c 0.59737,-0.96657 -0.14674,-1.75739 -1.65367,-1.75739 -1.50688,0 -2.7398,0.79082 -2.7398,1.75739 0,0.96656 0.74415,1.75738 1.65367,1.75738 0.90952,0 2.14243,-0.79082 2.7398,-1.75738 z m 23.72471,-5.27216 c 4.40457,-8.63369 2.33098,-9.22811 -3.07542,-0.88159 -4.41396,6.81436 -4.72347,7.91113 -2.23245,7.91113 0.94692,0 3.33545,-3.16329 5.30787,-7.02954 z m 68.04362,0.0288 c 4.37424,-3.85036 8.54172,-6.63689 9.26109,-6.19229 0.71935,0.44458 2.67975,-0.70751 4.3564,-2.5602 2.99509,-3.30952 2.88378,-3.32072 -6.35532,-0.6387 -12.72931,3.6952 -13.44982,4.13309 -17.57413,10.68032 -3.22833,5.12491 -3.29195,5.7115 -0.61951,5.7115 1.63808,0 6.55724,-3.15029 10.93147,-7.00063 z m 6.50772,0.12302 c 5.88478,-6.5026 1.88387,-5.61259 -4.37601,0.97345 -3.71652,3.91016 -4.67444,5.64845 -2.4963,4.52991 1.94393,-0.99827 5.03647,-3.47478 6.87231,-5.50336 z m -79.8235,-1.90923 c 4.65933,-9.13301 2.08902,-9.12189 -3.1279,0.0141 -2.20362,3.85882 -3.20823,7.01601 -2.23244,7.01601 0.97577,0 3.38792,-3.16329 5.36034,-7.02954 z m -25.07936,4.2104 c -0.58397,-0.58396 -2.09972,-0.64638 -3.36832,-0.13866 -1.40192,0.56099 -0.98551,0.97743 1.06176,1.06174 1.85256,0.0763 2.89053,-0.33905 2.30656,-0.92301 z m 19.86434,-5.18153 c 2.1222,-3.43381 3.48322,-6.61863 3.02448,-7.07738 -0.83868,-0.83868 -10.11116,10.46376 -10.11116,12.32472 0,2.96034 3.71339,0.21075 7.08668,-5.24734 z m 110.63355,-5.40818 c 3.27652,-4.56249 5.091,-7.76002 4.03216,-7.10562 -1.05884,0.6544 -4.89956,5.34017 -8.53494,10.41279 -3.63538,5.07264 -5.44984,8.27017 -4.03216,7.10562 1.41768,-1.16455 5.2584,-5.85032 8.53494,-10.41279 z m -140.56625,6.27559 c 0,-1.02361 -0.70796,-1.42355 -1.57325,-0.88878 -0.86526,0.53477 -2.04593,-0.2595 -2.62365,-1.76507 -0.57774,-1.50555 -1.84684,-2.24514 -2.82024,-1.64357 -2.72725,1.68554 -2.10144,4.05675 1.30564,4.94711 5.14768,1.34524 5.7115,1.2811 5.7115,-0.64969 z m 24.67546,-3.51224 c 2.10438,-2.95533 3.54217,-5.56309 3.19509,-5.795 -1.09646,-0.73265 -10.43378,-4.64813 -11.08449,-4.64813 -0.71199,0 -7.99913,12.09873 -7.99913,13.28085 0,0.42803 1.0903,0.77824 2.42287,0.77824 1.33258,0 3.40559,-2.37247 4.60668,-5.27216 1.20108,-2.89968 2.87868,-5.27215 3.72797,-5.27215 2.27926,0 1.88239,2.39584 -1.03601,6.2543 -3.28916,4.34866 -3.33847,6.0474 -0.17556,6.0474 1.38401,0 4.23818,-2.41801 6.34256,-5.37335 z m -32.62883,-5.0837 c 3.9282,-7.5963 3.21497,-8.9217 -1.14026,-2.11891 -3.27842,5.12081 -3.97768,5.49165 -5.43724,2.88359 -1.09456,-1.95589 -0.99855,-4.47759 0.2771,-7.27732 2.342,-5.14014 2.40106,-5.87633 0.47142,-5.87633 -0.81436,0 -2.96315,2.75284 -4.77508,6.11741 -3.23908,6.01458 -3.23635,6.16134 0.16256,8.73104 5.11135,3.86432 7.45702,3.31181 10.44147,-2.45948 z M 36.55896,250.05076 c 13.043829,-6.60981 23.779542,-19.28187 26.429892,-31.19689 2.033998,-9.14416 3.275187,-10.88845 15.631105,-21.96733 7.381935,-6.61895 19.550305,-17.68994 27.040843,-24.60221 7.49054,-6.91226 22.5492,-19.5124 33.46365,-28.00033 17.23648,-13.40439 21.66794,-15.96271 33.71915,-19.46634 13.14502,-3.82163 18.52953,-7.43358 18.65557,-12.5142 0.22974,-9.26213 -17.13531,-30.258466 -25.02532,-30.258466 -5.03987,0 -10.06652,5.622196 -10.06652,11.259186 0,6.56278 -7.07004,17.75997 -14.5028,22.96881 -6.78953,4.75809 -34.86952,28.65247 -39.09748,33.2696 -12.408195,13.55038 -51.936676,44.55359 -58.744297,46.07468 -16.070523,3.59076 -18.766933,4.9395 -28.571284,14.29127 -5.6693099,5.4076 -10.7408799,11.55738 -11.2701519,13.66616 -1.942527,7.73963 8.7865789,25.27764 17.7459789,29.00794 5.136541,2.13863 5.498931,2.07575 14.591664,-2.53188 z m -16.056147,-3.98307 c -2.374474,-2.37445 -1.027315,-3.73646 4.771778,-4.82437 7.39248,-1.38684 18.721029,-9.44632 22.032419,-15.67455 2.656149,-4.99583 5.414542,-6.20347 5.414542,-2.37052 0,4.18092 -12.149636,16.62434 -19.890798,20.37178 -8.048214,3.89607 -10.444128,4.38149 -12.327941,2.49766 z m 56.822144,-57.70083 c 0,-1.44985 0.663958,-2.63608 1.475466,-2.63608 0.811526,0 8.968117,-6.91971 18.125789,-15.37713 31.002988,-28.63234 31.362938,-28.91136 31.362938,-24.31174 0,1.36864 -3.35,5.12505 -7.44446,8.34759 -4.09445,3.22256 -14.96827,12.76899 -24.164058,21.21434 -9.195769,8.44533 -17.312714,15.36504 -18.037636,15.37713 -0.724921,0.0123 -1.318039,-1.16427 -1.318039,-2.61411 z m 91.807273,-68.05023 c 0.39385,-1.18155 2.63451,-2.59893 4.97925,-3.14975 2.34474,-0.55082 5.30225,-3.15825 6.57224,-5.79428 1.26998,-2.63602 3.04933,-4.33527 3.95412,-3.77607 2.80161,1.73148 1.84663,4.39281 -3.49193,9.73138 -5.10144,5.10145 -13.40664,7.16759 -12.01368,2.98872 z m 121.85175,127.80135 c -1.01791,3.49411 -1.00814,3.49435 1.66165,0.0417 2.46391,-3.18642 2.35546,-3.7272 -1.31372,-6.55111 -4.82777,-3.71561 -8.39278,-4.02791 -8.39278,-0.73526 0,1.33149 -1.18624,3.40538 -2.63608,4.60864 -1.44985,1.20327 -2.60977,3.47487 -2.57761,5.04799 0.0462,2.2648 0.74915,2.03217 3.37616,-1.11738 1.82473,-2.1877 3.66721,-4.95558 4.0944,-6.15085 0.42718,-1.19527 1.38751,-1.60478 2.13404,-0.91003 0.74654,0.69476 0.064,3.2371 -1.51678,5.64968 -4.38561,6.69329 -3.40912,7.78977 1.66899,1.87406 3.38061,-3.93823 4.2666,-4.38287 3.50173,-1.75739 z m -26.89716,-13.6484 c -1.22166,-2.27933 -3.99371,0.48512 -3.99371,3.98278 0,4.00745 -2.86414,6.15848 -4.10958,3.08637 -0.68527,-1.69034 -1.3085,-1.61365 -2.65956,0.32725 -1.27431,1.83065 -0.95447,3.12728 1.15127,4.66702 2.48782,1.81915 3.46019,1.18913 6.6246,-4.29231 2.03984,-3.53342 3.38397,-7.03043 2.98698,-7.77111 z m 193.0577,6.17951 c 2.18596,-2.78732 2.1238,-2.84948 -0.66352,-0.66352 -2.92736,2.2958 -3.8583,3.73895 -2.41191,3.73895 0.36493,0 1.74887,-1.38394 3.07543,-3.07543 z M 261.85049,219.94051 c 0,-3.05216 -3.56643,0.49119 -7.98436,7.93267 -2.85783,4.81362 -5.83582,8.76774 -6.61779,8.78693 -0.78197,0.0191 -0.86365,-0.95367 -0.18152,-2.16187 0.97257,-1.72266 0.74553,-1.73872 -1.05197,-0.0745 -1.85397,1.71651 -1.86633,2.63541 -0.0647,4.80632 1.91419,2.30647 3.18939,1.19601 9.06392,-7.89305 3.76004,-5.81739 6.83639,-10.94582 6.83639,-11.39649 z m 93.56895,18.0725 c 2.27603,-2.17476 2.7107,-2.83863 0.96591,-1.47525 -5.88376,4.59757 -5.59638,0.15588 0.38951,-6.01996 3.98872,-4.11531 5.04848,-6.12453 3.23039,-6.12453 -1.48814,0 -6.03987,3.95412 -10.11497,8.78693 -7.23055,8.57501 -7.30311,8.78693 -3.00917,8.78693 2.42004,0 6.26229,-1.77935 8.53833,-3.95412 z m -16.71991,1.13498 c -0.58398,-0.58397 -2.09973,-0.64639 -3.36833,-0.13866 -1.40192,0.56099 -0.98551,0.97742 1.06176,1.06174 1.85257,0.0763 2.89053,-0.33905 2.30657,-0.92301 z m -61.37196,-5.1356 c -0.54109,-0.54108 -1.52375,0.43427 -2.1837,2.16744 -0.9537,2.50463 -0.75184,2.70648 0.98379,0.98379 1.20103,-1.19211 1.74099,-2.61015 1.19991,-3.15123 z m 90.72563,-1.71088 c 2.58032,-3.38297 4.41097,-6.15085 4.0681,-6.15085 -0.34286,0 -3.30613,2.76788 -6.58503,6.15085 -3.27889,3.38297 -5.10954,6.15085 -4.0681,6.15085 1.04146,0 4.00471,-2.76788 6.58503,-6.15085 z m -94.98774,-2.97269 c -0.86806,-1.40454 -1.67222,-0.97802 -2.51128,1.33196 -1.61834,4.45532 0.1065,7.31301 2.17893,3.60988 0.88512,-1.58163 1.03468,-3.80546 0.33235,-4.94184 z m 73.23573,-3.12263 c 1.59866,0.035 0.71264,1.6631 -2.39089,4.39347 -3.17059,2.78935 -4.00032,4.33793 -2.32428,4.33793 1.43359,0 4.3245,-2.17477 6.42428,-4.83281 l 3.81775,-4.83282 -3.9407,-0.5944 c -2.67618,-0.40367 -5.69308,1.27525 -9.40171,5.23207 l -5.46101,5.82648 5.36832,-4.79273 c 2.95257,-2.63601 6.51128,-4.76773 7.90824,-4.73719 z m -102.20486,-1.37357 c 2.07159,-4.10789 3.3711,-7.46889 2.88782,-7.46889 -0.99897,0 -7.97967,13.26273 -7.97967,15.16067 0,1.92439 1.01794,0.38667 5.09185,-7.69178 z m 86.29222,5.49633 c 0,-2.33522 -0.47711,-2.4553 -2.63608,-0.66352 -1.44984,1.20326 -2.63608,2.48633 -2.63608,2.85125 0,0.36494 1.18624,0.66352 2.63608,0.66352 1.44985,0 2.63608,-1.28307 2.63608,-2.85125 z m 46.68129,-2.86025 5.1616,-5.71151 -5.7115,5.1616 c -5.32394,4.81134 -6.51929,6.26141 -5.16161,6.26141 0.30245,0 2.87263,-2.57018 5.71151,-5.7115 z m 9.55507,0.32353 c 0,-0.71997 2.76788,-4.62198 6.15085,-8.67112 3.38296,-4.04914 6.15085,-7.72935 6.15085,-8.17822 0,-2.49684 -8.79779,6.28773 -17.95052,17.92353 l -3.44334,4.3775 4.54608,-2.07134 c 2.50034,-1.13923 4.54608,-2.66038 4.54608,-3.38035 z m -117.74487,0.0123 c 0,-0.90973 -0.79082,-1.65387 -1.75739,-1.65387 -0.96656,0 -1.75738,1.23291 -1.75738,2.7398 0,1.50688 0.79082,2.25103 1.75738,1.65366 0.96657,-0.59737 1.75739,-1.83028 1.75739,-2.7398 z m 56.95344,-0.77518 c 2.73778,-4.17836 2.70767,-4.39347 -0.61474,-4.39347 -2.97877,0 -7.13189,4.53794 -7.13189,7.79271 0,2.74523 5.22204,0.45379 7.74663,-3.39924 z m -9.53092,-4.05784 c 0.0141,-1.26525 -0.76392,-1.81169 -1.73048,-1.21432 -0.96657,0.59737 -1.74528,2.81881 -1.73048,4.93653 0.022,3.13031 0.3455,3.35742 1.73048,1.21432 0.93696,-1.44984 1.71568,-3.67128 1.73048,-4.93653 z m -76.17603,-2.90064 c -0.37548,-1.00564 -1.57238,-1.63074 -2.65977,-1.3891 -1.08738,0.24164 -2.0011,-0.9446 -2.0305,-2.63608 -0.0489,-2.81604 -0.21357,-2.79985 -1.95207,0.19183 -1.3812,2.37685 -1.32452,4.52726 0.20795,7.89068 2.04616,4.49085 2.17841,4.52517 4.61184,1.19728 1.37788,-1.8844 2.19803,-4.24896 1.82255,-5.25461 z M 412.17357,208.9969 c 6.62628,-7.48028 10.11286,-11.98133 7.74798,-10.00234 -2.36488,1.97899 -5.83552,4.74688 -7.71255,6.15085 -3.00559,2.24812 -3.23579,2.23817 -1.92941,-0.0833 0.81583,-1.44984 2.74698,-4.21772 4.29144,-6.15085 2.80534,-3.51127 2.80404,-3.51129 -1.30876,-0.0197 -4.70172,3.9916 -9.08802,10.99399 -5.49608,8.77405 1.3974,-0.86364 1.87594,-0.47293 1.35459,1.10595 -0.44335,1.34275 -2.5567,3.3219 -4.6963,4.39813 -3.21113,1.61519 -12.52742,12.20631 -12.52742,14.24164 0,2.2319 10.16451,-6.99914 20.27651,-18.41438 z m -113.92575,6.25842 c -3.32047,-2.11018 -4.05142,-1.73289 -6.32959,3.26716 -3.12166,6.85127 1.24365,9.08285 5.39331,2.75709 2.31212,-3.52465 2.54202,-5.00379 0.93628,-6.02425 z m 12.20305,8.18346 c 1.42316,-3.70868 -0.95224,-5.71098 -2.97698,-2.50939 -2.15141,3.40186 -2.10827,5.22127 0.12372,5.22127 0.99691,0 2.28084,-1.22035 2.85319,-2.71188 z m -5.78759,-3.43897 c 0.55636,-1.44985 0.33016,-2.63608 -0.50266,-2.63608 -0.83281,0 -1.9694,1.18623 -2.52577,2.63608 -0.55635,1.44984 -0.33016,2.63607 0.50267,2.63607 0.8328,0 1.96939,-1.18623 2.52576,-2.63607 z M 290.28915,209.9517 c -1.16474,-1.16474 -2.28777,-0.65784 -3.34946,1.51185 -1.43448,2.93155 -1.5636,4.75617 -0.6351,8.9756 0.15957,0.72492 1.51555,-0.94394 3.01343,-3.70857 1.81026,-3.34127 2.13587,-5.61413 0.97113,-6.77888 z m 186.75529,-3.61376 c 2.46363,-6.54526 4.40717,-13.26635 4.319,-14.93578 -0.0882,-1.66941 -1.5524,1.31423 -3.25387,6.63032 -1.70145,5.31609 -4.43845,12.82892 -6.0822,16.69517 -1.64376,3.86625 -2.19521,6.2378 -1.22547,5.27013 0.96977,-0.96765 3.77889,-7.1146 6.24254,-13.65984 z M 286.4539,204.64296 c 0,-4.027 -5.3763,3.21997 -6.26791,8.44881 l -0.87827,5.15065 3.57308,-5.75398 c 1.96521,-3.16468 3.5731,-6.69515 3.5731,-7.84548 z m 137.07611,-0.27041 c 0,-0.96656 -2.76788,0.92535 -6.15085,4.20425 -3.38297,3.27889 -6.15085,6.75245 -6.15085,7.71902 0,0.96656 2.76788,-0.92536 6.15085,-4.20425 3.38297,-3.2789 6.15085,-6.75246 6.15085,-7.71902 z m -175.76799,5.13049 c 2.74952,-4.44882 3.31357,-6.92253 2.08075,-9.12545 -1.4758,-2.63712 -2.16118,-2.25135 -5.37954,3.02787 -3.84871,6.31329 -4.85597,12.20088 -2.08731,12.20088 0.88772,0 3.31147,-2.74648 5.3861,-6.1033 z m 8.81632,3.47754 c 0,-0.25226 -1.13109,-1.39737 -2.51352,-2.54468 -2.00302,-1.66236 -2.87983,-1.4016 -4.31706,1.28389 -1.58632,2.96408 -1.28361,3.27055 2.51352,2.54468 2.37439,-0.4539 4.31706,-1.03164 4.31706,-1.28389 z m -24.3979,-7.47921 c -1.64432,-2.92898 -1.78296,-2.92898 -2.91143,0 -0.65169,1.69148 -0.65169,4.45937 0,6.15085 1.12847,2.92898 1.26711,2.92898 2.91143,0 1.13044,-2.01363 1.13044,-4.13722 0,-6.15085 z m 47.07032,0.33889 c 4.39726,-7.45279 4.4451,-7.80778 1.05229,-7.80778 -1.44985,0 -2.63608,0.29883 -2.63608,0.66408 0,0.36524 -1.19685,3.52853 -2.65966,7.02954 -3.41731,8.17879 -0.56014,8.25566 4.24345,0.11423 z m 83.70268,-2.18949 c -1.18086,-1.18084 -6.2041,3.20235 -6.2041,5.41358 0,0.99802 1.5865,0.37882 3.52555,-1.376 1.93904,-1.75482 3.1444,-3.57173 2.67855,-4.03758 z m -36.07966,4.15105 c 0,-0.42623 -0.79082,-1.26373 -1.75739,-1.8611 -0.96656,-0.59737 -1.75738,-0.24864 -1.75738,0.77497 0,1.02361 0.79082,1.86111 1.75738,1.86111 0.96657,0 1.75739,-0.34874 1.75739,-0.77498 z m 22.50364,-2.84464 c 2.08771,-3.34292 1.98569,-3.47254 -1.33464,-1.69555 -1.97733,1.05823 -3.59514,2.68705 -3.59514,3.6196 0,2.87609 2.55476,1.87898 4.92978,-1.92405 z m 6.49323,0.10491 c 1.74946,-1.93312 2.78542,-3.51477 2.30214,-3.51477 -0.48328,0 -2.31007,1.58165 -4.05953,3.51477 -1.74946,1.93313 -2.78542,3.51478 -2.30214,3.51478 0.48328,0 2.31007,-1.58165 4.05953,-3.51478 z m -83.47584,-0.64176 c 0,-1.3195 1.64831,-4.6805 3.66289,-7.46889 2.59309,-3.58913 2.07983,-3.29278 -1.75739,1.01466 -5.62153,6.31039 -6.67362,8.85331 -3.66288,8.85331 0.96656,0 1.75738,-1.07958 1.75738,-2.39908 z m 50.69973,-4.62723 c 1.01146,-2.90146 1.18028,-5.27539 0.37516,-5.27539 -2.31417,0 -7.40211,8.69885 -6.21315,10.62262 1.59452,2.57997 3.76879,0.58848 5.83799,-5.34723 z m 24.72143,0.45485 c 0.40272,-0.25194 -0.88898,-0.45808 -2.87046,-0.45808 -2.17758,0 -3.98303,1.45434 -4.56415,3.67654 -0.94086,3.59791 -0.87948,3.6077 2.87047,0.45806 2.10754,-1.77015 4.1614,-3.42459 4.56414,-3.67652 z m 28.33806,-1.54779 c 4.30915,-4.46559 6.25315,-7.29839 4.32002,-6.29509 -4.5469,2.35983 -16.16378,14.41434 -13.89103,14.41434 0.95492,0 5.26188,-3.65366 9.57101,-8.11925 z M 244.65424,192.653 c 0.76531,-0.54231 -0.0494,-5.2251 -1.81056,-10.40619 l -3.20201,-9.42017 -4.75758,8.51225 c -5.7011,10.20036 -5.30409,14.83269 0.47044,5.48929 5.35468,-8.66404 6.66954,-6.94626 1.87569,2.45044 -2.51693,4.93358 -3.39611,8.92014 -2.63555,11.95047 l 1.14128,4.54724 3.76342,-6.06866 c 2.06989,-3.33777 4.38958,-6.51236 5.15487,-7.05467 z m 73.42604,0.35198 c -0.004,-1.71561 -1.42549,-0.5535 -3.51478,2.87324 -4.46221,7.31871 -4.42731,9.54874 0.065,4.15631 1.90096,-2.28186 3.45335,-5.44516 3.44973,-7.02955 z m 12.9222,7.71987 c 1.32083,-3.44207 -2.34798,-5.55733 -4.29827,-2.47818 -2.2064,3.48347 -1.93861,5.05797 0.86024,5.05797 1.34644,0 2.89354,-1.16091 3.43803,-2.57979 z m -58.84384,-7.08023 c 1.99783,-3.38604 3.06597,-6.15644 2.37363,-6.1564 -2.00537,8e-5 -10.85733,11.78292 -9.71225,12.92798 1.59105,1.59107 3.37669,-0.0566 7.33862,-6.77158 z m -44.25538,2.30096 c -0.56099,-1.40192 -0.97742,-0.9855 -1.06174,1.06176 -0.0763,1.85257 0.33903,2.89053 0.92301,2.30657 0.58397,-0.58398 0.64639,-2.09972 0.13866,-3.36833 z m 84.13716,-1.6298 c 4.15081,-8.02679 0.46052,-10.44339 -4.11233,-2.69296 -3.39297,5.75066 -3.43374,8.16705 -0.13778,8.16705 0.78064,0 2.69319,-2.46335 4.25011,-5.47409 z m -40.0141,-14.84281 c -1.84798,-4.05587 -2.15487,-4.13805 -5.19126,-1.39016 -1.77495,1.6063 -3.22718,3.74697 -3.22718,4.75705 0,1.12575 0.81617,1.02032 2.10886,-0.27238 4.45779,-4.45778 4.88761,-1.831 0.61665,3.76852 -6.47067,8.48349 -5.5094,10.61412 1.58706,3.51766 5.38845,-5.38845 5.84945,-6.55395 4.10587,-10.38069 z m 34.25861,9.94078 c 3.62891,-6.14326 3.72763,-7.19775 0.67376,-7.19775 -1.28767,0 -3.19071,2.76789 -4.22897,6.15086 -2.29388,7.47416 -0.54558,7.98897 3.55521,1.04689 z m 98.37654,-17.74206 c 4.70062,-6.90628 4.8384,-7.41427 1.08752,-4.00944 -2.36228,2.14432 -7.6796,8.86633 -11.81628,14.93778 l -7.52124,11.03898 6.43372,-7.02954 c 3.53853,-3.86625 8.85586,-10.58825 11.81628,-14.93778 z m 25.89809,17.57386 c 1.03457,-1.93313 1.48564,-3.51477 1.00236,-3.51477 -0.48328,0 -1.72518,1.58164 -2.75975,3.51477 -1.03457,1.93312 -1.48564,3.51477 -1.00236,3.51477 0.48328,0 1.72517,-1.58165 2.75975,-3.51477 z m 50.24992,-16.95354 c 1.90244,-10.14087 -0.20582,-10.36311 -7.75151,-0.8171 -9.00339,11.39015 -9.80425,15.99756 -0.99098,5.70123 3.49785,-4.08643 6.77206,-7.01758 7.276,-6.51361 0.50395,0.50395 -1.89723,4.03049 -5.33598,7.83678 -10.01331,11.08352 -11.71576,16.33297 -2.37337,7.31812 5.11413,-4.93479 8.50072,-9.92673 9.17584,-13.52542 z M 298.7556,189.24555 c 0,-0.96656 -0.8375,-1.75739 -1.8611,-1.75739 -1.02361,0 -1.37235,0.79083 -0.77498,1.75739 0.59737,0.96656 1.43487,1.75739 1.86111,1.75739 0.42624,0 0.77497,-0.79083 0.77497,-1.75739 z m 134.9779,-11.47093 c -0.56821,-0.56824 -2.81976,1.58257 -5.00344,4.77954 l -3.9703,5.8127 5.00344,-4.77957 c 2.75189,-2.62875 4.53852,-5.24446 3.9703,-5.81267 z m -175.39778,4.08991 c 0,-2.83892 -0.51967,-3.34657 -1.95574,-1.91051 -1.07564,1.07564 -1.4244,2.81546 -0.77497,3.86625 1.81782,2.9413 2.73071,2.28748 2.73071,-1.95574 z m 36.90511,2.10886 c 0,-0.96656 -0.79082,-1.75739 -1.75739,-1.75739 -0.96656,0 -1.75738,0.79083 -1.75738,1.75739 0,0.96656 0.79082,1.75739 1.75738,1.75739 0.96657,0 1.75739,-0.79083 1.75739,-1.75739 z m -60.70389,-7.62329 c 4.49813,-7.67549 5.585,-11.71354 3.1495,-11.70137 -0.72493,0.004 -2.89969,3.73366 -4.83282,8.28896 -1.93312,4.5553 -3.77838,8.90188 -4.10056,9.65904 -0.3222,0.75716 -0.15781,1.37666 0.36526,1.37666 0.52308,0 2.96146,-3.43049 5.41862,-7.62329 z m 70.22873,2.12334 c -1.3864,-2.24325 -4.25268,-0.0981 -4.25268,3.18277 0,2.23397 0.48911,2.34161 2.61673,0.57586 1.43919,-1.19445 2.17538,-2.88582 1.63595,-3.75863 z m -4.27959,-4.70874 c 0.0141,-1.26525 -0.76392,-1.81169 -1.73048,-1.21432 -0.96656,0.59737 -1.74528,2.81881 -1.73048,4.93653 0.022,3.13031 0.3455,3.35742 1.73048,1.21432 0.93697,-1.44984 1.71569,-3.67128 1.73048,-4.93653 z m 132.64949,-3.09333 c 1.59486,-3.36095 3.64626,-5.64945 4.55864,-5.08558 2.29402,1.41779 5.45168,-7.57084 4.81366,-13.70268 -0.52311,-5.02746 -0.55282,-5.01154 -7.1155,3.8096 -3.62461,4.87198 -6.5902,9.4624 -6.5902,10.20096 0,0.73854 2.10336,-1.61339 4.67414,-5.22652 2.57077,-3.61314 5.42962,-6.56932 6.35297,-6.56932 1.71979,0 -0.85886,4.44288 -9.58788,16.5195 -2.7247,3.76963 -4.954,7.62287 -4.954,8.56276 0,3.04794 4.86928,-2.23118 7.84817,-8.50872 z m -164.29462,-2.07511 c 0.0214,-1.2082 -0.59357,-2.19673 -1.36682,-2.19673 -2.83806,0 -5.6226,4.33748 -5.58455,8.69906 l 0.039,4.48134 3.43668,-4.39347 c 1.89014,-2.41641 3.45419,-5.38199 3.47568,-6.5902 z m 215.60407,4.39347 c -0.48752,-1.2082 -0.88641,-0.21968 -0.88641,2.19673 0,2.41641 0.39889,3.40494 0.88641,2.19673 0.48752,-1.2082 0.48752,-3.18526 0,-4.39346 z m -253.3042,-2.57448 c 1.5003,-3.59075 3.54664,-7.03468 4.54742,-7.65319 1.00077,-0.61851 1.55567,-3.80952 1.23312,-7.09113 l -0.58648,-5.96657 -4.81604,10.15706 c -4.35716,9.18922 -6.18737,17.08243 -3.96096,17.08243 0.47031,0 2.08263,-2.93788 3.58294,-6.5286 z m 25.41061,0.71337 c -0.022,-3.13031 -0.3455,-3.35741 -1.73048,-1.21432 -2.23749,3.46226 -2.23749,7.53369 0,6.15085 0.96656,-0.59737 1.74528,-2.81881 1.73048,-4.93653 z m 40.44679,-3.17913 c 0,-0.96656 -0.79083,-1.26864 -1.75739,-0.67127 -0.96656,0.59737 -1.75739,1.87694 -1.75739,2.84351 0,0.96656 0.79083,1.26864 1.75739,0.67127 0.96656,-0.59738 1.75739,-1.87695 1.75739,-2.84351 z m -29.87557,-10.44711 c 0,-1.42132 -1.23565,-1.07366 -3.51477,0.98891 -1.93312,1.74946 -3.51477,4.74656 -3.51477,6.66023 0,3.13797 0.3449,3.04093 3.51477,-0.98891 1.93313,-2.45757 3.51477,-5.45467 3.51477,-6.66023 z m 214.4011,-0.36501 c 0,-3.14191 -3.7792,-0.20556 -7.4358,5.77742 l -3.74082,6.12082 5.58831,-5.1616 c 3.07358,-2.83888 5.58831,-5.87037 5.58831,-6.73664 z m -186.28292,1.68155 c 0,-3.57392 -0.0438,-3.57772 -2.58019,-0.22417 -3.59463,4.75253 -3.63405,9.01699 -0.0559,6.04739 1.44984,-1.20326 2.63608,-3.82372 2.63608,-5.82322 z m 181.92714,-6.03913 c 4.70765,-7.49086 9.24668,-14.09363 10.08671,-14.67283 1.16702,-0.80467 0.9764,-10.1291 -0.34948,-17.09495 -0.19899,-1.0454 -8.33725,9.29112 -10.39251,13.19969 -3.45822,6.57658 -2.24808,6.73906 4.13237,0.55488 9.18434,-8.90181 7.43042,-4.91729 -3.51477,7.98482 -7.68911,9.06384 -9.66563,12.6467 -9.66563,17.52093 0,3.36997 0.25739,6.1272 0.57196,6.1272 0.31459,0 4.42369,-6.12888 9.13135,-13.61974 z m 11.27247,-5.71151 0.0896,-6.15085 -3.39511,5.1503 c -2.43322,3.69114 -2.92784,6.0234 -1.7458,8.23206 0.90712,1.69496 1.74025,5.3085 1.8514,8.03009 0.16678,4.08295 0.45638,3.719 1.65611,-2.0812 0.7997,-3.86625 1.49438,-9.79743 1.54371,-13.1804 z M 236.7873,138.57053 c -0.80003,-3.54773 -11.8821,18.70576 -11.75548,23.60572 0.0476,1.83953 2.86039,-2.06104 6.25079,-8.66794 3.3904,-6.6069 5.86751,-13.3289 5.50469,-14.93778 z m 18.88558,17.55082 c -1.3276,-1.3276 -4.3667,1.85086 -4.3667,4.56694 0,2.39876 0.40796,2.31033 2.49239,-0.54031 1.37082,-1.87469 2.21426,-3.68668 1.87431,-4.02663 z m 39.52068,-5.84245 c 0.026,-0.65058 -2.3252,1.18961 -5.22489,4.0893 -2.89969,2.89969 -5.25087,6.19985 -5.22488,7.3337 0.0474,2.06944 10.36111,-9.20479 10.44977,-11.423 z m 86.79471,4.69762 c 0.61618,-1.60574 0.004,-2.63608 -1.56936,-2.63608 -1.41951,0 -2.58094,1.18624 -2.58094,2.63608 0,1.44984 0.70623,2.63608 1.56937,2.63608 0.86316,0 2.02456,-1.18624 2.58093,-2.63608 z M 224.86764,138.28135 c 0.65146,-0.48328 4.99562,-7.99611 9.65371,-16.69517 4.65807,-8.69906 7.63277,-15.02565 6.61044,-14.05909 -1.02234,0.96656 -5.15121,7.88627 -9.17526,15.37713 -4.02404,7.49086 -8.04995,13.61974 -8.94643,13.61974 -1.61952,0 17.93098,-38.8931 22.08476,-43.93465 1.19453,-1.44984 4.8178,-7.529344 8.05171,-13.510028 3.2339,-5.980666 6.51234,-10.483026 7.28543,-10.005233 0.77308,0.477793 0.20196,3.196311 -1.26916,6.041133 -1.47111,2.844839 -2.29692,5.172426 -1.83512,5.172426 0.90282,0 13.30971,-20.676536 13.30971,-22.181143 0,-0.497312 -2.57018,0.869219 -5.71151,3.03674 -13.4149,9.256295 -25.17745,20.593737 -31.47531,30.337735 -6.73619,10.42218 -9.23018,17.12842 -3.96828,10.67054 2.37329,-2.91273 2.6382,-2.96183 1.81253,-0.33589 -1.33208,4.23649 0.13567,3.86171 2.55095,-0.65141 1.40183,-2.61935 1.42021,-3.3719 0.0619,-2.53238 -2.43004,1.50186 -2.4598,-0.0158 -0.0872,-4.44986 1.01507,-1.89664 2.56856,-3.00161 3.45221,-2.45549 0.88365,0.54613 3.59683,-2.93446 6.02926,-7.734641 2.43243,-4.800195 5.28109,-9.258191 6.33035,-9.906649 3.20509,-1.980855 4.15467,0.719122 1.40503,3.994943 -1.42475,1.697406 -7.12381,10.796727 -12.66457,20.220717 -5.54074,9.42398 -10.87525,17.13451 -11.85444,17.13451 -0.9792,0 -1.22227,-0.98853 -0.54014,-2.19673 0.84852,-1.50294 0.64867,-1.6417 -0.63278,-0.43935 -2.69931,2.53267 -5.70664,20.84476 -5.46442,33.27375 l 0.20775,10.66091 1.79722,-8.78694 c 0.98848,-4.83281 2.33024,-9.18234 2.98169,-9.66562 z m 41.53571,12.754 c -1.21874,-1.21875 -4.55286,1.25748 -4.55286,3.38137 0,1.16533 1.00836,1.03199 2.67856,-0.35415 1.4732,-1.22264 2.31664,-2.58489 1.8743,-3.02722 z m -1.03808,-6.15482 c 0,-0.98031 -1.16561,-0.79002 -2.63608,0.43036 -1.44985,1.20327 -2.63608,2.97858 -2.63608,3.94514 0,0.98032 1.1656,0.79003 2.63608,-0.43037 1.44984,-1.20326 2.63608,-2.97857 2.63608,-3.94513 z m 27.00048,-4.49691 c 5.72494,-8.26112 6.04581,-11.4988 0.55241,-5.57444 -3.37609,3.64098 -7.3551,12.2591 -5.66005,12.2591 0.26135,0 2.55978,-3.0081 5.10764,-6.68466 z m 180.24755,-0.88794 c 0.068,-0.78196 -0.6673,-0.93301 -1.63386,-0.33564 -0.96657,0.59737 -1.7018,2.81881 -1.63386,4.93653 0.11915,3.71225 0.1777,3.72429 1.63386,0.33563 0.83069,-1.93313 1.56593,-4.15457 1.63386,-4.93652 z m -238.03967,-6.6485 c 3.5475,-6.85506 6.04645,-12.86727 5.55322,-13.36051 -0.79931,-0.7993 -13.42408,22.61965 -13.42408,24.90167 0,2.71096 2.05398,-0.30083 7.87086,-11.54116 z m 208.23174,4.77965 c -0.0548,-3.66561 -0.10649,-3.67203 -2.63607,-0.32763 -3.58249,4.73645 -3.54225,9.24049 0.0559,6.25431 1.44984,-1.20327 2.61093,-3.87028 2.58019,-5.92668 z m -174.62496,-5.05699 c 3.54879,-6.73291 0.65436,-6.03302 -4.13318,0.99946 -4.55429,6.68983 -5.53071,13.04933 -1.12823,7.34813 1.49278,-1.93313 3.8604,-5.68954 5.26141,-8.34759 z m 165.86701,3.41107 c -0.0206,-4.26707 -0.43421,-4.97755 -1.73048,-2.97172 -2.2524,3.48535 -2.2524,11.05768 0,9.66562 0.96656,-0.59737 1.74528,-3.60961 1.73048,-6.6939 z m -53.91404,1.17662 c 1.87129,-1.87128 -0.47407,-4.06256 -3.22028,-3.00875 -1.41334,0.54235 -2.13217,1.69405 -1.5974,2.55934 1.13914,1.84316 3.22899,2.03811 4.81768,0.44941 z M 277.0932,111.48121 c 5.36613,-6.5243 10.26064,-11.88348 10.87669,-11.90931 0.61605,-0.0258 6.26044,-4.75145 12.5431,-10.50133 9.96135,-9.116654 10.69218,-10.18569 5.7115,-8.354687 -3.14132,1.154831 -5.7115,3.001422 -5.7115,4.103532 0,1.102127 -4.11341,5.080565 -9.14089,8.840985 -11.13634,8.3297 -36.5764,36.7977 -36.48516,40.82772 0.0705,3.11057 4.49766,-1.47629 22.20626,-23.00691 z m 195.61672,20.10624 c -0.0232,-2.56101 -0.26236,-2.60738 -1.73048,-0.33565 -2.22415,3.44162 -2.22415,5.76806 0,4.39347 0.96656,-0.59737 1.74527,-2.42338 1.73048,-4.05782 z M 374.3232,131.2518 c 0,-0.96656 -1.23291,-1.75738 -2.7398,-1.75738 -1.50689,0 -2.25103,0.79082 -1.65366,1.75738 0.59737,0.96657 1.83028,1.75739 2.7398,1.75739 0.90952,0 1.65366,-0.79082 1.65366,-1.75739 z m 68.48217,-7.68406 c -0.0531,-5.21316 -0.18883,-5.32058 -2.63607,-2.08502 -1.41911,1.87622 -2.5802,5.33406 -2.5802,7.68409 0,3.59874 0.41583,3.92765 2.63608,2.08499 1.44984,-1.20326 2.61093,-4.66109 2.58019,-7.68406 z m -31.63294,-1.8781 c -0.0308,-1.02347 -1.21699,-0.32575 -2.63608,1.55047 -1.41911,1.87622 -2.55505,4.24869 -2.52431,5.27216 0.0308,1.02346 1.21699,0.32575 2.63608,-1.55047 1.4191,-1.87622 2.55504,-4.2487 2.52431,-5.27216 z m -43.00008,4.29001 c 0.59737,-0.96657 -0.19345,-1.75739 -1.75738,-1.75739 -1.56394,0 -2.35476,0.79082 -1.75739,1.75739 0.59737,0.96656 1.38819,1.75738 1.75739,1.75738 0.36919,0 1.16001,-0.79082 1.75738,-1.75738 z m 64.51136,-5.32734 c -0.49652,-3.38295 -1.43095,-4.85575 -2.44036,-3.84634 -1.85004,1.85003 -0.005,11.33682 1.96804,10.1176 0.70231,-0.43404 0.91485,-3.25612 0.47232,-6.27126 z m 38.26882,1.26951 c -0.022,-3.13032 -0.3455,-3.35741 -1.73048,-1.21433 -2.23749,3.46226 -2.23749,7.5337 0,6.15085 0.96656,-0.59737 1.74528,-2.8188 1.73048,-4.93652 z m 15.84338,-9.847 c 0,-4.91196 -0.92426,-4.19894 -7.58433,5.85081 -2.50906,3.78608 -4.0676,7.68363 -3.46339,8.66125 1.68844,2.73196 11.04772,-9.56219 11.04772,-14.51206 z m -181.01076,4.16207 c 3.61012,-3.93871 3.7668,-4.46626 0.87869,-2.95882 -1.93313,1.00898 -5.49183,3.99153 -7.90824,6.62787 -3.61013,3.93871 -3.7668,4.46624 -0.87869,2.95881 1.93312,-1.00899 5.49183,-3.99153 7.90824,-6.62786 z m 101.92839,0.40476 c 0,-3.57392 -0.0438,-3.57772 -2.5802,-0.22417 -3.59462,4.75253 -3.63404,9.01701 -0.0559,6.04739 1.44984,-1.20326 2.63608,-3.82372 2.63608,-5.82322 z m -145.86305,2.30845 c 1.03458,-1.93312 1.48565,-3.51477 1.00237,-3.51477 -0.48329,0 -1.72518,1.58165 -2.75975,3.51477 -1.03457,1.93313 -1.48564,3.51477 -1.00236,3.51477 0.48328,0 1.72517,-1.58164 2.75974,-3.51477 z m 181.01077,-10.52379 c 0,-2.58879 -0.51493,-5.22181 -1.14427,-5.85116 -2.07981,-2.07982 -5.77252,4.84764 -5.82939,10.93582 -0.0548,5.8734 0.009,5.92515 3.45889,2.80305 1.93312,-1.74944 3.51477,-5.29892 3.51477,-7.88771 z m 40.3224,-2.2146 c 1.34528,-2.65659 1.91755,-5.35857 1.27171,-6.00441 -0.64582,-0.64582 -1.40484,-0.84472 -1.68667,-0.44198 -5.57817,7.97076 -9.31028,15.26208 -8.71375,17.02374 0.83189,2.4567 4.93709,-2.29994 9.12871,-10.57735 z m -158.06727,1.03673 c 0,-1.46172 -10.04789,4.59397 -12.42969,7.49116 -1.41854,1.72549 0.73649,0.91094 4.9608,-1.87505 4.10789,-2.7092 7.46889,-5.23646 7.46889,-5.61611 z m 144.10566,6.22208 c 0,-0.96656 -0.79082,-1.26864 -1.75739,-0.67127 -0.96656,0.59737 -1.75738,1.87696 -1.75738,2.84352 0,0.96656 0.79082,1.26862 1.75738,0.67125 0.96657,-0.59737 1.75739,-1.87694 1.75739,-2.8435 z m -113.4527,0.37132 c 0.54166,-0.87643 -0.59789,-1.1796 -2.53235,-0.67373 -4.10348,1.07309 -4.62219,2.26722 -0.98484,2.26722 1.39279,0 2.97553,-0.71707 3.51719,-1.59349 z m -78.10238,-11.58691 c 6.2268,-6.28265 10.92606,-11.42301 10.44277,-11.42301 -0.48328,0 -5.97335,5.14036 -12.20016,11.42301 -6.2268,6.28266 -10.92605,11.42301 -10.44277,11.42301 0.48328,0 5.97335,-5.14035 12.20016,-11.42301 z m 55.54503,7.56485 c 3.59651,-2.12201 5.62026,-4.16448 4.49719,-4.53884 -1.89487,-0.63162 -14.35018,6.01835 -14.35018,7.66164 0,1.67873 3.7055,0.5043 9.85299,-3.1228 z m 19.51391,-0.75106 c -1.06928,-1.06928 -8.27827,1.55988 -8.27827,3.01914 0,0.83311 1.9804,0.6124 4.4009,-0.49045 2.42048,-1.10285 4.1653,-2.24076 3.87737,-2.52869 z m 77.80674,-0.32729 c -0.0232,-2.56101 -0.26236,-2.60738 -1.73048,-0.33564 -2.22415,3.44161 -2.22415,5.76805 0,4.39346 0.96656,-0.59737 1.74528,-2.42338 1.73048,-4.05782 z m -29.17811,-1.30562 c 0.60013,-1.56393 0.30552,-2.26934 -0.69067,-1.65366 -0.95549,0.59053 -1.73726,1.81784 -1.73726,2.72736 0,2.52787 1.25964,1.97083 2.42793,-1.0737 z m 66.78067,-1.75738 c 0.60013,-1.56394 0.30552,-2.26935 -0.69067,-1.65367 -0.95549,0.59054 -1.73726,1.81784 -1.73726,2.72736 0,2.52788 1.25964,1.97084 2.42793,-1.07369 z m 12.54322,-6.51901 c 1.43148,-1.70254 2.57057,-4.47042 2.53129,-6.15085 -0.0527,-2.2535 -1.4363,-1.45854 -5.27216,3.02914 -2.86041,3.34645 -5.17559,7.69598 -5.14485,9.66562 0.0557,3.57368 0.0613,3.57382 2.66945,0.0664 1.43745,-1.93313 3.78478,-4.90777 5.21627,-6.61029 z m -82.83866,3.00424 c 0.60013,-1.56394 0.30552,-2.26935 -0.69067,-1.65367 -0.95549,0.59053 -1.73726,1.81784 -1.73726,2.72736 0,2.52787 1.25964,1.97084 2.42793,-1.07369 z m 41.87898,-4.30219 c 0.8759,0 1.07456,-0.83815 0.44144,-1.86255 -1.40357,-2.27102 -6.00321,3.28083 -5.91104,7.13471 0.038,1.59013 0.81972,1.06717 1.97005,-1.31804 1.04886,-2.17477 2.62366,-3.95412 3.49955,-3.95412 z m -244.64893,0.87869 c 0,-1.44984 -0.79082,-2.63608 -1.75738,-2.63608 -0.96656,0 -1.75739,1.18624 -1.75739,2.63608 0,1.44985 0.79083,2.63608 1.75739,2.63608 0.96656,0 1.75738,-1.18623 1.75738,-2.63608 z m 66.78067,-11.16142 c 0,-3.63489 -6.5793,2.51795 -10.0514,9.39989 l -2.66204,5.2763 6.35673,-6.05623 c 3.4962,-3.33095 6.35671,-7.20992 6.35671,-8.61996 z M 394.325,98.64888 c 0.60013,-1.56393 0.30552,-2.26934 -0.69067,-1.65366 -0.95549,0.59053 -1.73727,1.81784 -1.73727,2.72736 0,2.52787 1.25964,1.97083 2.42794,-1.0737 z m 72.0178,0.0912 c 0.55635,-1.44984 0.24554,-2.63608 -0.69067,-2.63608 -0.93623,0 -1.70224,1.18624 -1.70224,2.63608 0,1.44984 0.31081,2.63608 0.69067,2.63608 0.37988,0 1.14587,-1.18624 1.70224,-2.63608 z m -35.32295,-8.13069 c 2.56294,-3.50531 4.17105,-6.862096 3.57361,-7.459537 -1.22829,-1.22829 -9.87626,10.775427 -10.44775,14.501877 -0.41579,2.71121 0.21625,2.0637 6.87414,-7.04234 z m 6.51078,-0.93343 c -0.0826,-2.08915 -6.97107,6.42597 -6.97107,8.61713 0,0.98983 1.58164,-0.21104 3.51477,-2.66863 1.93312,-2.45756 3.48846,-5.13439 3.4563,-5.9485 z m 43.9217,-2.79823 c 0.0394,-0.724926 -0.5217,-1.312631 -1.24662,-1.306023 -1.58136,0.01406 -9.22627,10.960873 -9.22627,13.210743 0,1.84285 10.36648,-9.94092 10.47289,-11.90472 z m -280.12742,4.12275 c -2.1567,-3.4896 -4.4977,-2.00932 -4.4977,2.84403 0,4.39505 0.22359,4.54647 2.84401,1.92603 1.56422,-1.56422 2.30838,-3.71074 1.65369,-4.77006 z M 311.936,85.414948 c 6.04516,-6.326502 7.14186,-8.058705 3.51477,-5.551442 -6.79546,4.697405 -20.44257,19.009944 -15.81647,16.587684 1.93312,-1.0122 7.46889,-5.9785 12.3017,-11.036242 z m 78.07382,9.966822 c 1.47027,-1.77157 1.50974,-2.81841 0.13813,-3.66607 -2.33106,-1.44067 -7.38694,2.40177 -6.03612,4.58743 1.39271,2.25348 3.54166,1.91777 5.89792,-0.92136 z m -6.34555,-8.58982 c -0.49036,-0.793427 -1.93175,-0.02 -3.2031,1.71862 -1.27133,1.73867 -1.91031,3.81038 -1.41995,4.60378 0.49037,0.79343 1.93176,0.02 3.2031,-1.71861 1.27133,-1.73867 1.91032,-3.81037 1.41995,-4.60379 z m 42.25127,0.38351 c 6.04128,-8.537011 5.20364,-11.174443 -0.94695,-2.98165 -5.93494,7.90558 -7.1595,10.15919 -5.49642,10.11529 0.78197,-0.0206 3.68148,-3.23078 6.44337,-7.13364 z m -239.20748,0.99433 c -0.91871,-4.805835 -3.15073,-7.066185 -4.62391,-4.682554 -0.79856,1.292083 3.43451,9.101994 4.93338,9.101994 0.29445,0 0.15518,-1.98875 -0.30947,-4.41944 z m 5.62804,-5.148543 c -0.8143,-4.340691 -1.80726,-5.925238 -2.97885,-4.753641 -1.0092,1.009196 -1.23736,4.529399 -0.53592,8.268413 0.81432,4.340671 1.80728,5.925221 2.97888,4.753641 1.00919,-1.0092 1.23734,-4.52942 0.53589,-8.268413 z m 176.71494,5.174523 c 2.27011,-2.416411 3.73204,-4.39347 3.24876,-4.39347 -0.48328,0 -2.73604,1.977059 -5.00614,4.39347 -2.27011,2.4164 -3.73204,4.39346 -3.24876,4.39346 0.48328,0 2.73604,-1.97706 5.00614,-4.39346 z m 94.20323,-0.40266 c -1.78642,-1.786415 -3.26039,0.90311 -1.79468,3.27468 1.1072,1.7915 1.52116,1.79289 2.11642,0.007 0.40701,-1.22101 0.26222,-2.6978 -0.32174,-3.28178 z m 12.20295,-2.396404 c 2.54308,-4.917764 2.22452,-8.62388 -0.74123,-8.62388 -1.98804,0 -6.83312,11.088774 -5.95575,13.630694 1.04498,3.02752 3.48597,1.20258 6.69698,-5.006814 z M 207.50333,88.59125 c -0.0726,-0.70076 -0.1318,-2.507019 -0.1318,-4.01389 0,-1.506888 -0.79083,-2.251053 -1.75739,-1.653683 -2.37228,1.466152 -2.25216,8.366073 0.1318,7.571413 1.03906,-0.34636 1.82988,-1.20309 1.75739,-1.90384 z m 155.20884,-0.53913 c 1.49408,-3.893528 1.38057,-4.24975 -1.35419,-4.24975 -3.68817,0 -7.09852,4.69531 -4.24264,5.84122 3.76686,1.51142 4.48444,1.30737 5.59683,-1.59147 z m 14.72424,-3.479716 c -0.58907,-0.589093 -2.01834,0.776027 -3.1761,3.033586 -2.01242,3.92398 -1.96529,3.97111 1.07103,1.07104 1.74686,-1.66847 2.69415,-3.51555 2.10507,-4.104626 z m 44.18243,-1.425187 c 5.09035,-7.398596 5.35985,-9.889163 1.07007,-9.889163 -3.5202,0 -9.99222,10.380036 -8.80475,14.121366 0.60268,1.89888 1.3999,3.45249 1.77162,3.45249 0.37171,0 3.05508,-3.45811 5.96306,-7.684693 z m -222.72231,-6.26183 c -0.90442,-9.483682 -3.82671,-7.313046 -3.82671,2.842413 0,6.323286 0.47657,7.62419 2.25297,6.149903 1.39342,-1.156431 1.99383,-4.5872 1.57374,-8.992316 z m 97.21055,8.694509 c 0.61568,-0.996192 -0.0898,-1.290818 -1.65366,-0.69067 -3.04454,1.168292 -3.60157,2.427914 -1.0737,2.427914 0.90952,0 2.13684,-0.781753 2.72736,-1.737244 z m 36.83478,-5.158367 c 0.56034,-0.906636 0.33608,-2.070377 -0.49833,-2.586082 -0.83442,-0.515705 -3.81291,1.5026 -6.61888,4.485113 l -5.10172,5.42273 5.60007,-2.836649 c 3.08003,-1.560154 6.05851,-3.578459 6.61886,-4.485112 z m 21.15896,5.158367 c 0.61568,-0.996192 -0.0898,-1.290818 -1.65366,-0.69067 -3.04454,1.168292 -3.60157,2.427914 -1.0737,2.427914 0.90952,0 2.13684,-0.781753 2.72736,-1.737244 z M 222.08447,72.894267 c -1.30864,-2.117421 -5.92601,1.903443 -5.92601,5.160477 0,1.597024 -1.02243,2.216573 -2.63608,1.597358 -1.8429,-0.70719 -2.63608,0.13321 -2.63608,2.792785 0,3.49813 0.48961,3.329808 6.08247,-2.09099 3.34536,-3.242448 5.64741,-6.599284 5.1157,-7.45963 z m 126.78226,10.866674 c 0.73274,-1.185603 -1.47856,-1.401779 -6.4865,-0.634135 -10.04218,1.539312 -10.71947,2.43296 -1.84397,2.43296 3.97029,0 7.719,-0.809469 8.33047,-1.798825 z m -74.49036,-3.033986 c 2.18596,-2.787302 2.1238,-2.849461 -0.66352,-0.663501 -2.92737,2.295796 -3.85831,3.738926 -2.41191,3.738926 0.36492,0 1.74887,-1.383941 3.07543,-3.075425 z M 471.71279,69.508148 c -1.3716,-2.219313 -7.69448,10.916396 -6.3727,13.239186 0.49484,0.869572 2.39303,-1.329744 4.2182,-4.887379 1.82517,-3.557635 2.7947,-7.315949 2.1545,-8.351807 z m -264.34126,2.070241 c 0,-7.300464 -1.36625,-9.619616 -4.25479,-7.222333 -1.0958,0.909425 -1.6613,5.142729 -1.29769,9.714465 0.5328,6.699208 1.06949,7.749897 3.09845,6.066005 1.34972,-1.120176 2.45403,-4.971329 2.45403,-8.558137 z m 66.29252,-4.473218 c 3.65144,-6.244499 7.27879,-11.368784 8.06076,-11.3873 0.78197,-0.01851 0.94305,0.954867 0.35796,2.16307 -0.5851,1.208203 0.25551,0.417379 1.86801,-1.757386 1.61251,-2.174765 4.7156,-3.954119 6.89576,-3.954119 2.18016,0 5.04929,-1.334302 6.37585,-2.965116 2.0706,-2.545531 2.03888,-2.830435 -0.22417,-2.01336 -1.44985,0.523466 -6.73914,2.30054 -11.754,3.949052 -8.16647,2.684532 -9.70603,4.040758 -14.75392,12.997023 -3.0998,5.499851 -6.87541,11.89689 -8.39026,14.215656 -2.67729,4.098119 -2.64697,4.158503 1.08537,2.161022 2.11179,-1.130192 6.82718,-7.164037 10.47864,-13.408542 z m 141.13616,8.696533 c 2.12221,-3.433809 3.46316,-6.638692 2.97988,-7.121973 -0.86813,-0.868125 -8.30917,10.106191 -8.30917,12.254666 0,2.414701 1.6423,0.833001 5.32929,-5.132693 z m -73.86734,-0.0956 c 0,-0.379859 -1.18624,-0.690671 -2.63608,-0.690671 -1.44985,0 -2.63608,0.76601 -2.63608,1.70224 0,0.93623 1.18623,1.247023 2.63608,0.69067 1.44984,-0.556353 2.63608,-1.322363 2.63608,-1.702239 z m 6.19735,-0.351267 c -0.54108,-0.541081 -1.95912,-0.0011 -3.15122,1.199908 -1.7227,1.73563 -1.52084,1.937483 0.98378,0.983785 1.73317,-0.659951 2.70852,-1.642611 2.16744,-2.183693 z m 62.35895,-2.122395 c 2.07478,-2.913785 3.48155,-6.170152 3.12614,-7.23638 -0.3554,-1.066227 -2.80115,1.317773 -5.435,5.297773 -5.47141,8.267868 -3.42279,9.987945 2.30886,1.938607 z m 45.89187,-0.443019 c -1.73563,-1.722713 -1.93749,-1.52086 -0.98379,0.983767 0.65995,1.733169 1.64261,2.708518 2.18369,2.167437 0.54109,-0.541064 10e-4,-1.959117 -1.1999,-3.151204 z m 13.76734,-8.757647 c 0.0406,-0.724922 -0.57068,-1.31804 -1.35823,-1.31804 -2.00346,0 -7.37568,11.695259 -6.00283,13.068111 1.04148,1.04148 7.19515,-8.781286 7.36106,-11.750071 z M 211.04826,61.433588 c -1.46092,-2.509431 -1.82283,-1.721414 -1.86591,4.062692 -0.0293,3.946798 0.53968,7.778795 1.2646,8.515527 2.08027,2.114223 2.61712,-9.115621 0.60131,-12.578219 z m 194.4847,7.409261 c 2.92434,-4.514429 3.32481,-6.129096 1.52015,-6.129096 -2.51742,0 -8.1265,7.235223 -8.1265,10.482486 0,3.488113 2.66398,1.732625 6.60635,-4.35339 z m -177.95149,2.657829 c 0.59737,-0.966557 0.24863,-1.757381 -0.77498,-1.757381 -1.0236,0 -1.8611,0.790824 -1.8611,1.757381 0,0.966562 0.34873,1.757386 0.77497,1.757386 0.42624,0 1.26374,-0.790824 1.86111,-1.757386 z m 58.89174,-7.053925 c 3.74805,-4.732291 4.72254,-7.005158 3.00345,-7.005158 -1.39962,0 -4.62936,3.008096 -7.17722,6.684659 -8.20538,11.840346 -5.13675,12.075994 4.17377,0.320499 z m 115.52204,-5.523501 c -1.06705,-0.659464 -4.16381,1.624514 -6.94117,5.119357 -3.61819,4.552913 -4.41907,6.678088 -2.87601,7.631751 1.34972,0.834161 3.91011,-1.05422 6.94116,-5.119358 3.14189,-4.213808 4.13638,-6.852794 2.87602,-7.63175 z m -182.05131,1.099834 c -0.5808,-7.302691 -0.94864,-7.92889 -3.28503,-5.592498 -1.95219,1.952194 -2.31297,4.513308 -1.39835,9.926827 1.73035,10.241904 5.56073,6.69701 4.68338,-4.334329 z M 396.17038,55.85696 c -1.07681,-1.076809 -6.7638,5.531827 -9.68129,11.250258 -0.98626,1.933125 1.01331,0.4174 4.44352,-3.368276 3.43019,-3.785679 5.78718,-7.332569 5.23777,-7.881982 z m 66.97547,7.825084 3.26419,-6.061254 -7.91625,-10.194567 c -4.35393,-5.607012 -9.00135,-10.194568 -10.32758,-10.194568 -3.061,0 -7.69276,10.825958 -5.27189,12.322137 0.95201,0.588366 2.50067,-0.95489 3.4415,-3.429458 0.94084,-2.474568 2.48064,-4.499214 3.42181,-4.499214 0.9515,0 0.58769,2.688984 -0.81949,6.056836 -1.79909,4.305797 -1.97038,6.40314 -0.59254,7.254694 2.04912,1.266427 4.98776,-2.144904 5.03307,-5.842639 0.0141,-1.208203 0.90233,-2.196733 1.97231,-2.196733 1.13443,0 1.44943,1.282047 0.75563,3.075426 -0.65438,1.691484 -1.58692,5.447897 -2.07231,8.347584 l -0.88253,5.272158 3.17003,-4.832812 c 3.01371,-4.594524 5.93548,-6.360593 5.81482,-3.514772 -0.0308,0.724922 -1.21699,2.85313 -2.63608,4.729354 -2.80192,3.704477 -3.48453,9.769081 -1.09954,9.769081 0.81435,0 2.94954,-2.727563 4.74485,-6.061253 z m -229.41353,2.546481 c 0,-0.966562 -0.34874,-1.757386 -0.77497,-1.757386 -0.42624,0 -1.26374,0.790824 -1.86111,1.757386 -0.59737,0.966562 -0.24864,1.757386 0.77497,1.757386 1.02361,0 1.86111,-0.790824 1.86111,-1.757386 z m 58.85261,-2.852456 c 1.66125,-2.535412 2.15188,-4.073014 1.09024,-3.416896 -2.0287,1.253816 -6.12039,8.026738 -4.84913,8.026738 0.40611,0 2.09761,-2.074429 3.75889,-4.609842 z m 94.50284,-2.735759 c 2.61964,-4.04008 4.31262,-7.795948 3.76221,-8.346373 -1.43809,-1.438078 -11.25462,9.973761 -11.25462,13.083621 0,4.493007 2.5548,2.877676 7.49241,-4.737248 z m -160.385,-5.163533 c 0,-5.410445 -0.67529,-8.369574 -1.75738,-7.700806 -0.96656,0.597369 -1.75739,5.040243 -1.75739,9.873055 0,5.410445 0.67529,8.369574 1.75739,7.700806 0.96656,-0.597369 1.75738,-5.040243 1.75738,-9.873055 z m 85.4281,-2.819569 c -1.49126,-1.491257 -5.08673,2.067405 -8.6924,8.60339 l -3.22536,5.84662 6.45319,-6.730692 c 3.54925,-3.701879 6.00831,-7.175574 5.46457,-7.719318 z m 0.92609,9.177852 c 0.0311,-0.966563 0.87703,-2.745916 1.87974,-3.954119 3.38559,-4.079369 0.28206,-2.233312 -4.01241,2.386685 -3.55323,3.822587 -3.73454,4.478955 -1.0922,3.954119 1.74254,-0.346116 3.19373,-1.420123 3.22487,-2.386685 z m 63.03177,1.318039 c 0.005,-0.724921 2.46132,-3.935627 5.45968,-7.134901 6.8956,-7.357648 5.12008,-9.734875 -2.12262,-2.841952 -7.25489,6.904549 -9.60387,11.294893 -6.04311,11.294893 1.48385,0 2.70156,-0.593118 2.70605,-1.31804 z M 233.73232,52.065721 c 0,-4.775769 -0.79083,-8.683215 -1.75739,-8.683215 -0.96656,0 -1.75738,4.396203 -1.75738,9.769339 0,6.065384 0.66629,9.357545 1.75738,8.683215 0.96656,-0.597369 1.75739,-4.993571 1.75739,-9.769339 z m 7.7325,7.426158 c -0.0967,-1.127657 -0.29437,-6.569278 -0.43935,-12.092491 -0.22164,-8.443797 -0.63157,-9.632614 -2.57541,-7.468891 -2.94489,3.278028 -1.90088,23.308792 1.16165,22.287945 1.11587,-0.371954 1.94976,-1.598908 1.85311,-2.726563 z m 61.71003,-5.246376 c -1.12058,-1.120586 -6.06597,5.070695 -6.06228,7.589557 10e-4,0.966562 1.57769,-0.134001 3.50282,-2.445689 1.92515,-2.311691 3.0769,-4.626432 2.55946,-5.143868 z m 70.95964,0.560013 c 5.12512,-7.136612 5.34007,-7.908238 2.20298,-7.908238 -1.9404,0 -5.87092,3.023442 -8.89614,6.843093 -6.30297,7.95815 -6.55222,8.973382 -2.20297,8.973382 1.79962,0 5.71897,-3.484124 8.89613,-7.908237 z m 72.56372,4.012697 c -1.26103,-1.261033 -2.07956,-1.364793 -2.07956,-0.263608 0,2.345726 2.0783,4.424028 3.25116,3.251164 0.4994,-0.499389 -0.0278,-1.843789 -1.1716,-2.987556 z M 327.28907,55.244862 c 4.49432,-4.806802 4.85954,-5.806291 2.30567,-6.309903 -3.55755,-0.701537 -10.9221,5.647818 -10.9221,9.416503 0,4.101321 2.83162,3.080394 8.61643,-3.1066 z m 28.1971,0.190209 c 1.72167,-3.02449 2.71505,-5.914328 2.2075,-6.421863 -1.6137,-1.613713 -7.97387,5.326231 -7.97387,8.70076 0,4.807854 2.23513,3.924516 5.76637,-2.278897 z m 8.14158,-1.453404 c 2.58041,-3.352193 3.47059,-5.547797 2.05966,-5.08002 -1.36672,0.453116 -4.53002,3.48059 -7.02955,6.727717 -2.5804,3.352193 -3.47059,5.547797 -2.05965,5.08002 1.36672,-0.453116 4.53001,-3.480589 7.02954,-6.727717 z m -25.61051,-0.05485 c 2.62564,-4.444858 2.70388,-5.272158 0.49857,-5.272158 -1.43867,0 -4.30512,2.372471 -6.36987,5.272158 -3.52671,4.952792 -3.5569,5.272158 -0.49857,5.272158 1.79054,0 4.65698,-2.372471 6.36987,-5.272158 z m 8.86436,0.940523 c 3.34192,-5.100396 3.50718,-6.212681 0.92316,-6.212681 -2.00827,0 -8.47011,6.956013 -8.57081,9.226277 -0.13426,3.026573 5.02106,0.995098 7.64765,-3.013596 z M 248.78041,43.78845 c 1.08919,-9.756394 0.90187,-10.891179 -1.63692,-9.916949 -2.24975,0.863311 -2.86686,3.594148 -2.86686,12.68658 0,14.364197 2.78196,12.653407 4.50378,-2.769631 z m 194.08085,11.999472 c 0,-0.909519 -0.79082,-2.142426 -1.75739,-2.739795 -0.96656,-0.597368 -1.75738,0.146777 -1.75738,1.653671 0,1.506886 0.79082,2.739795 1.75738,2.739795 0.96657,0 1.75739,-0.744151 1.75739,-1.653671 z m -8.1219,-7.63563 c -1.81561,-0.975354 -3.63092,-2.05246 -4.03403,-2.393566 -0.40311,-0.341107 1.86278,-3.850215 5.03533,-7.798018 4.24286,-5.279676 5.24997,-7.69611 3.80835,-9.137727 -2.38604,-2.386037 -3.87314,-0.975629 -8.77994,8.327098 l -3.66475,6.947969 3.74046,3.981531 c 2.05725,2.18984 4.51789,3.501054 5.46807,2.913807 0.95019,-0.587246 0.24212,-1.865739 -1.57349,-2.841094 z m -179.6228,1.364458 c 2.5531,-0.976636 2.32606,-20.193334 -0.23858,-20.193334 -1.61107,0 -3.5718,8.803019 -3.5718,16.036147 0,5.370737 0.16554,5.551423 3.81038,4.157187 z m 56.16492,-3.802924 c 2.16557,-2.640486 1.96319,-2.82242 -1.98156,-1.781383 -2.41641,0.637701 -5.382,1.170252 -6.5902,1.18345 -1.2082,0.01318 -2.19673,0.814821 -2.19673,1.781383 0,2.886241 8.16685,1.988709 10.76849,-1.18345 z M 261.3644,30.641457 c -0.38984,-3.141327 -0.7088,-0.57115 -0.7088,5.711505 0,6.282655 0.31896,8.852832 0.7088,5.711505 0.38983,-3.141328 0.38983,-8.281682 0,-11.42301 z m 59.37624,14.469769 c 0.60711,-0.982328 1.84002,-1.331069 2.7398,-0.774978 0.89977,0.556092 1.63595,0.173577 1.63595,-0.850026 0,-2.878426 -8.28189,-2.197256 -9.42245,0.774977 -1.14016,2.971236 3.27601,3.715062 5.0467,0.850027 z m 121.35948,-6.132482 c 2.66404,-6.375926 2.66124,-6.689358 -0.0397,-4.447731 -4.06039,3.369821 -6.60426,8.579369 -5.25525,10.76212 1.46613,2.37226 1.86348,1.898427 5.295,-6.314389 z M 338.40025,42.37338 c 3.29246,-2.670122 3.25822,-2.732189 -0.98215,-1.781383 -2.41641,0.541821 -5.382,0.995928 -6.5902,1.009126 -1.20821,0.01318 -2.19673,0.814821 -2.19673,1.781383 0,2.700088 5.95369,2.085084 9.76908,-1.009126 z m 8.4403,0.130433 c 0.55635,-1.449843 0.34237,-2.636079 -0.4755,-2.636079 -0.81787,0 -2.47153,1.186236 -3.6748,2.636079 -1.78098,2.145957 -1.69257,2.636079 0.4755,2.636079 1.46478,0 3.11843,-1.186235 3.6748,-2.636079 z m 7.27271,0.878693 c 0.59737,-0.966562 0.2953,-1.757386 -0.67127,-1.757386 -0.96656,0 -2.24613,0.790824 -2.8435,1.757386 -0.59737,0.966562 -0.29529,1.757386 0.67127,1.757386 0.96656,0 2.24613,-0.790824 2.8435,-1.757386 z M 270.63743,28.772347 c 0,-7.504054 -0.35352,-8.372839 -2.63608,-6.478474 -1.78646,1.482626 -2.61807,5.375289 -2.5802,12.077539 0.0513,9.078416 0.26758,9.609918 2.63608,6.478472 1.45867,-1.928529 2.5802,-7.178231 2.5802,-12.077537 z m 158.89319,4.723188 c 2.49904,-4.471272 4.54371,-8.405082 4.54371,-8.741801 0,-0.933924 -10.79998,-6.31465 -11.37031,-5.664869 -1.00904,1.149617 -7.96094,15.397048 -7.96094,16.315393 0,0.521787 1.06614,0.948704 2.36919,0.948704 1.30303,0 3.79562,-3.163295 5.53905,-7.029544 1.74343,-3.86625 3.82103,-7.029545 4.61686,-7.029545 1.45593,0 -0.40998,6.082918 -3.82092,12.456323 -1.57935,2.951054 -1.05716,6.874924 0.91491,6.874924 0.3436,0 2.6694,-3.658314 5.16845,-8.129585 z m -152.74234,5.027249 c 0.96656,-0.710121 1.90811,-5.795519 2.09234,-11.300884 0.41627,-12.439878 -3.68324,-12.58275 -5.38219,-0.187574 -1.79575,13.101394 -1.29338,14.855694 3.28985,11.488458 z m 7.90823,-5.78831 c 0,-0.909519 -0.79082,-1.65367 -1.75738,-1.65367 -0.96656,0 -1.75739,1.232908 -1.75739,2.739794 0,1.506887 0.79083,2.25104 1.75739,1.653671 0.96656,-0.597369 1.75738,-1.830276 1.75738,-2.739795 z m 7.02955,-2.636079 c 0,-1.506886 -0.79083,-2.251039 -1.75739,-1.65367 -0.96656,0.597369 -1.75738,1.830275 -1.75738,2.739794 0,0.90952 0.79082,1.653671 1.75738,1.653671 0.96656,0 1.75739,-1.232908 1.75739,-2.739795 z m 124.38845,-5.141815 3.82917,-7.881607 -5.1006,-2.637628 -5.1006,-2.637627 -3.02557,7.922337 c -3.82119,10.005633 -2.37891,12.00599 1.86724,2.589735 1.74788,-3.876103 3.81001,-7.047461 4.58252,-7.047461 0.77251,0 -0.0845,3.326003 -1.90453,7.391116 -3.13122,6.993815 -3.219,10.182745 -0.2803,10.182745 0.71692,0 3.02662,-3.546723 5.13267,-7.88161 z m -115.60152,2.609452 c 0,-0.966563 -0.74415,-1.757386 -1.65367,-1.757386 -0.90951,0 -2.14243,0.790823 -2.7398,1.757386 -0.59737,0.966562 0.14674,1.757386 1.65367,1.757386 1.50689,0 2.7398,-0.790824 2.7398,-1.757386 z M 286.1259,20.840494 c 0.36689,-3.715089 -0.21964,-5.573534 -1.75739,-5.568285 -1.41109,0.0047 -2.43317,2.436901 -2.62998,6.258149 -0.40818,7.926113 3.59869,7.296076 4.38737,-0.689864 z m 116.81333,0.135336 c 3.42404,-8.557494 3.62573,-9.902032 1.58738,-10.581487 -0.93124,-0.310412 -3.36303,2.885089 -5.40397,7.101114 -4.3746,9.036725 -4.50453,10.070571 -1.26554,10.070571 1.34489,0 3.63185,-2.965589 5.08213,-6.590198 z M 293.04714,18.919653 c 1.42673,-5.620862 1.30433,-6.718504 -0.66493,-5.962831 -1.32744,0.50939 -2.41354,2.358521 -2.41354,4.109181 0,1.750661 -0.48001,4.433934 -1.06671,5.962832 -0.58669,1.528896 -0.28748,2.779811 0.66492,2.779811 0.95242,0 2.51853,-3.100047 3.48026,-6.888993 z m 23.75511,5.736258 c -1.1898,-0.481388 -3.56227,-0.510691 -5.27216,-0.06511 -1.70988,0.445575 -0.73639,0.839438 2.16329,0.875252 2.89969,0.03581 4.29868,-0.328746 3.10887,-0.810134 z m 76.72187,-14.517292 c 0.0717,-1.3692949 -0.41165,-1.9476469 -1.07408,-1.2852249 -1.50687,1.5068669 -5.8084,13.7068969 -5.66834,16.0765579 0.14305,2.421592 6.58062,-11.700804 6.74242,-14.791333 z m -92.85478,6.299417 c 1.20195,-7.3945509 -1.16963,-8.6318509 -3.71462,-1.937994 -2.34868,6.177505 -2.14941,9.989285 0.4765,9.113989 1.2047,-0.401572 2.66186,-3.630769 3.23812,-7.175995 z m 29.27986,6.401812 c -1.69148,-0.44203 -4.45936,-0.44203 -6.15085,0 -1.69148,0.442031 -0.30754,0.803693 3.07543,0.803693 3.38297,0 4.76691,-0.361662 3.07542,-0.803693 z m 15.37713,-0.545975 c 0.59737,-0.966562 -0.14674,-1.757386 -1.65366,-1.757386 -1.50689,0 -2.7398,0.790824 -2.7398,1.757386 0,0.966563 0.74415,1.757386 1.65366,1.757386 0.90952,0 2.14243,-0.790823 2.7398,-1.757386 z m 14.93778,0.28475 c 0,-0.809951 -2.80043,-1.577917 -6.22316,-1.706591 -3.62995,-0.136461 -5.78367,0.47719 -5.16846,1.472637 1.28834,2.084555 11.39162,2.29205 11.39162,0.233954 z m 28.0721,-13.9044919 c 0.0253,-1.208202 -0.96036,-2.196732 -2.19044,-2.196732 -2.30622,0 -6.70102,15.0791579 -4.91572,16.8665179 1.09949,1.100777 7.03225,-11.146638 7.10616,-14.6697859 z m 7.0218,9.2262769 c 0,-0.966562 -0.76659,-0.57115 -1.70356,0.878693 -0.93697,1.449844 -1.70356,3.426903 -1.70356,4.393465 0,0.966563 0.76659,0.571151 1.70356,-0.878693 0.93697,-1.449843 1.70356,-3.426902 1.70356,-4.393465 z m -90.11883,-5.711504 c -0.44204,-1.691485 -0.80371,-0.307543 -0.80371,3.075425 0,3.382968 0.36167,4.76691 0.80371,3.075426 0.44202,-1.691484 0.44202,-4.459367 0,-6.150851 z m 7.40033,-1.757387 c 0.0963,-1.2082019 -0.61564,-2.1967319 -1.58221,-2.1967319 -0.96656,0 -1.67855,2.9655889 -1.58221,6.5901979 0.15641,5.881482 0.32649,6.117721 1.58221,2.196732 0.77387,-2.416406 1.48587,-5.381995 1.58221,-6.590198 z m 6.40641,4.304438 c 0.0947,-5.4375089 2.46087,-8.6209149 2.76392,-3.718643 0.11458,1.852579 0.0798,4.356854 -0.077,5.565057 -0.15693,1.208203 0.93563,2.196732 2.42785,2.196732 1.83084,0 2.71307,-1.680637 2.71307,-5.168442 0,-2.842644 0.88994,-5.7184589 1.97766,-6.3907009 1.37234,-0.84815 1.7493,0.733802 1.23157,5.1684419 -0.99412,8.5154 3.02072,8.567816 4.61674,0.06028 0.65319,-3.4817349 0.75884,-6.7591919 0.23479,-7.2832369 -0.52404,-0.524046 -5.12227,-0.24553 -10.21829,0.618923 -9.16789,1.555179 -9.27133,1.643091 -9.82197,8.3474269 -0.41039,4.99682 0.051,6.570932 1.75738,5.995757 1.27263,-0.428966 2.35005,-2.85518 2.39426,-5.391589 z m 51.01515,-2.189648 c 1.44763,-7.7166159 -0.27864,-9.9788249 -2.71824,-3.5621529 -2.2607,5.9461029 -2.31131,9.7949469 -0.1288,9.7949469 0.92275,0 2.20392,-2.804758 2.84704,-6.232794 z m 9.18,0.52129 c 1.15072,-4.3710379 0.924,-5.8510779 -0.96598,-6.3061989 -3.24132,-0.780533 -3.70844,-0.183252 -5.03194,6.4343419 -1.57998,7.899872 3.9154,7.782466 5.99792,-0.128149 z m -38.72405,-1.641499 c 1.95295,-5.1739259 1.67809,-8.5541149 -0.51708,-6.3589629 -1.68036,1.680364 -4.12499,11.9545799 -2.84445,11.9545799 0.68717,0 2.19988,-2.518028 3.36153,-5.595617 z m 6.22,4.277578 c 0.4067,-0.724922 1.27869,-3.570204 1.93777,-6.3228499 1.6367,-6.835754 -2.08372,-5.412488 -5.19515,1.9874329 -2.01741,4.798013 -2.00676,5.653456 0.0704,5.653456 1.34614,0 2.78027,-0.593118 3.18695,-1.318039 z m 9.16124,-4.079783 c 1.25612,-5.7191099 0.036,-8.6419349 -2.46609,-5.9080279 -0.82565,0.902125 -2.01379,3.814992 -2.64026,6.4730389 -0.83947,3.561613 -0.47362,4.832811 1.39085,4.832811 1.3952,0 3.06168,-2.421033 3.7155,-5.397822 z m 6.12324,4.946873 c 0,-0.248021 0.73562,-3.015904 1.6347,-6.150851 2.32777,-8.1163989 -2.19416,-7.6816239 -4.69013,0.450949 -1.53722,5.008733 -1.4288,6.150851 0.58384,6.150851 1.35938,0 2.47159,-0.202927 2.47159,-0.450949 z m 36.02641,-3.063823 c 0.59738,-0.966562 0.24864,-1.757386 -0.77497,-1.757386 -1.0236,0 -1.8611,0.790824 -1.8611,1.757386 0,0.966562 0.34873,1.757386 0.77497,1.757386 0.42623,0 1.26373,-0.790824 1.8611,-1.757386 z M 94.898822,240.27157 c 0,-0.93256 1.77935,-2.62926 3.95411,-3.77049 3.932928,-2.0638 3.936178,-2.05472 0.60632,1.69556 -3.71921,4.1888 -4.56043,4.57154 -4.56043,2.07493 z"
     id="path25323"
     inkscape:connector-curvature="0" />
</svg>
