<?xml version="1.0" encoding="UTF-8" standalone="no"?>
<!-- Created with Inkscape (http://www.inkscape.org/) -->

<svg
   xmlns:dc="http://purl.org/dc/elements/1.1/"
   xmlns:cc="http://creativecommons.org/ns#"
   xmlns:rdf="http://www.w3.org/1999/02/22-rdf-syntax-ns#"
   xmlns:svg="http://www.w3.org/2000/svg"
   xmlns="http://www.w3.org/2000/svg"
   xmlns:sodipodi="http://sodipodi.sourceforge.net/DTD/sodipodi-0.dtd"
   xmlns:inkscape="http://www.inkscape.org/namespaces/inkscape"
   id="svg25313"
   version="1.1"
   inkscape:version="0.48.4 r9939"
   width="294"
   height="187"
   sodipodi:docname="Whip.png">
  <metadata
     id="metadata25319">
    <rdf:RDF>
      <cc:Work
         rdf:about="">
        <dc:format>image/svg+xml</dc:format>
        <dc:type
           rdf:resource="http://purl.org/dc/dcmitype/StillImage" />
        <dc:title></dc:title>
      </cc:Work>
    </rdf:RDF>
  </metadata>
  <defs
     id="defs25317" />
  <sodipodi:namedview
     pagecolor="#ffffff"
     bordercolor="#666666"
     borderopacity="1"
     objecttolerance="10"
     gridtolerance="10"
     guidetolerance="10"
     inkscape:pageopacity="0"
     inkscape:pageshadow="2"
     inkscape:window-width="1247"
     inkscape:window-height="719"
     id="namedview25315"
     showgrid="false"
     inkscape:zoom="1.6114338"
     inkscape:cx="199.32517"
     inkscape:cy="86.229625"
     inkscape:window-x="-2"
     inkscape:window-y="22"
     inkscape:window-maximized="0"
     inkscape:current-layer="svg25313" />
  <path
     style="fill:#6b5311;fill-opacity:0.84653476;stroke:none"
     d="m 106.73724,60.094385 10.54961,13.96272 c 32.05022,-34.031947 46.97641,-38.096858 62.98739,-44.06014 18.58876,-1.2129 35.9072,-5.147921 58.33314,1.861696 11.52702,8.377632 20.88106,16.755265 25.38994,25.132897 12.0588,21.887506 7.72954,48.574872 2.84578,70.123882 -3.44379,12.72427 -14.61073,19.9969 -27.92544,25.75347 -28.22238,10.45863 -42.86337,4.8665 -58.64342,0.62056 -18.05285,-7.68139 -27.38139,-18.68632 -33.20025,-31.02827 -2.78218,-16.24655 -13.52064,-30.67004 3.90515,-51.817204 11.23655,-10.789302 23.51636,-18.887618 37.67273,-20.917463 22.22817,-3.010519 42.3436,0.05172 55.85088,20.296898 4.24309,10.344686 10.96533,17.031812 0.31028,52.127489 -29.99631,27.65756 -62.10224,15.99446 -68.88275,10.85989 -26.90345,-21.39277 -15.30072,-50.294165 -10.8599,-54.609747 4.6399,-1.58206 13.67302,-20.488916 43.43958,-12.72159 13.32732,5.040357 26.50941,10.202516 27.30487,25.753463 5.29915,19.330704 -6.96163,24.361924 -15.51413,31.028264 -21.18962,11.5698 -36.00697,-3.49254 -39.71618,-8.06734 -2.33296,-6.08572 -11.00493,-14.962231 -1.39627,-30.407709 8.52467,-4.694179 18.12842,-9.178204 27.46002,-2.171978 5.91146,4.432192 13.752,5.823955 12.72158,21.099217 l 3.7234,1.55142 c 3.58764,-5.332685 2.63263,-11.015219 0.93084,-16.755267 L 203.23515,71.885127 c -10.68381,-0.998215 -18.68624,1.416224 -24.82261,6.205653 -7.81861,6.849618 -10.04642,15.096935 -11.32532,23.58148 4.84668,31.32903 22.22634,29.72724 25.90861,31.64884 19.60797,6.14115 30.77596,-7.23514 44.21528,-15.35899 4.36085,-15.4525 12.37413,-29.764782 -5.11967,-51.972354 -30.23101,-17.929014 -37.82877,-8.808539 -52.43777,-8.06735 -8.97275,3.228436 -30.50168,12.046278 -32.2694,47.783534 1.50333,5.75788 2.69849,37.75269 54.29947,46.23212 19.63237,-3.45085 38.06022,-9.31072 50.73122,-26.68431 5.45041,-21.1279 12.53258,-40.524949 3.25797,-63.918234 -10.32665,-6.778762 -10.78341,-17.075127 -51.19665,-26.374028 -18.85116,-0.920143 -33.19734,4.91717 -47.47325,10.859894 -11.8823,9.831865 -23.20723,19.926026 -25.33024,34.350497 -3.912,40.796061 3.76028,47.611601 7.95441,64.629681 17.58269,19.21786 35.16537,20.71828 52.74806,28.85628 18.60276,-2.58815 18.50792,8.34351 71.6753,-19.23752 11.26295,-13.15736 22.12702,-27.49327 20.78894,-77.880953 -6.36939,-17.161904 -9.27991,-52.355101 -63.60795,-61.125688 -15.56927,-3.181442 -45.26374,-1.969723 -80.36321,18.616961 z"
     id="path25835"
     inkscape:connector-curvature="0"
     sodipodi:nodetypes="ccccccccccccccccccccccccccccccccccccccccccccc" />
  <path
     style="fill:#6b1a11;fill-opacity:1;stroke:none"
     d="M 7.2916429,141.07816 C 8.5582904,153.77239 15.389145,155.8019 21.409505,159.38485 32.110034,156.22789 36.44102,149.4312 41.577879,143.095 l 3.413109,-10.39447 c 17.231873,-15.05779 32.985267,-32.3333 52.437773,-44.060139 7.964009,-3.699686 19.695059,-7.242412 18.461819,-11.325317 -2.13384,-8.490889 -7.0213,-14.778876 -15.35899,-18.306678 -4.694318,-0.916867 -6.717877,6.670432 -8.687918,14.428144 -19.606815,17.033519 -35.844206,33.93461 -60.039697,49.95551 l -12.566449,4.34396 c -4.412498,3.69394 -9.115338,6.87979 -11.9458831,13.34215 z"
     id="path25325"
     inkscape:connector-curvature="0"
     sodipodi:nodetypes="ccccccccccc" />
  <path
     style="fill:#000000"
     d="m 185.77999,171.98424 c -16.57779,-4.9686 -30.18472,-11.59655 -38.29901,-18.65549 -3.92777,-3.41693 -7.41527,-5.93873 -7.75,-5.60401 -0.33472,0.33473 -0.60859,-0.33985 -0.60859,-1.49906 0,-1.1592 -0.44398,-2.38204 -0.98663,-2.71742 -2.59314,-1.60264 -7.4441,-24.57765 -8.94482,-42.36421 -1.55012,-18.371993 3.40534,-33.786043 14.3626,-44.675163 8.50849,-8.455572 16.49886,-13.393524 27.81575,-17.189793 23.65378,-7.934696 44.8652,-6.335967 63.42681,4.780548 19.4352,11.639705 22.22652,14.610285 24.8627,26.459395 1.40201,6.3018 1.49665,9.77048 0.65939,24.16936 -1.09292,18.795713 -2.28992,23.142243 -9.15866,33.256913 -6.79629,10.00797 -13.07608,14.15298 -30.74492,20.29333 -13.73723,4.77402 -21.21408,5.1756 -33.41446,1.7947 -8.49371,-2.35373 -24.05343,-12.08733 -29.5233,-18.46872 -7.24646,-8.45404 -11.92269,-22.24177 -10.36626,-30.56462 0.46284,-2.475003 1.08342,-6.732623 1.37907,-9.461393 0.82359,-7.60166 6.58372,-18.23358 13.40202,-24.73714 5.34128,-5.09472 6.83732,-5.89747 17.28898,-9.27695 13.04067,-4.21663 19.73284,-4.649322 31.94173,-2.06524 10.67154,2.25869 17.08558,5.69425 22.98198,12.30986 9.68249,10.86352 13.59836,27.33918 9.63102,40.521653 -2.48867,8.26921 -12.31601,17.34562 -25.49032,23.54255 -6.85903,3.22634 -8.48411,3.58961 -16.22129,3.62611 -4.72924,0.0223 -9.67924,-0.45958 -11,-1.07084 -1.32077,-0.61127 -3.97639,-1.79506 -5.90139,-2.63066 -4.88753,-2.12156 -12.73487,-9.30268 -14.89421,-13.62974 -4.34007,-8.69695 -4.69419,-15.63081 -1.39865,-27.385903 2.06341,-7.3601 6.47392,-12.49417 14.33087,-16.68188 5.85393,-3.12011 6.63433,-3.27594 14.37228,-2.8698 6.96875,0.36576 9.03384,0.91669 13.92445,3.71482 10.88127,6.22563 15.29692,13.46407 14.44922,23.68617 -0.42127,5.079943 -0.85816,5.973373 -4.37598,8.948773 -6.27937,5.31115 -17.48036,7.73322 -25.33931,5.47931 -3.87626,-1.1117 -8.83836,-5.40913 -10.15364,-8.79357 -1.53703,-3.95507 0.91049,-12.251643 4.74568,-16.086843 3.05016,-3.05016 3.81424,-3.33892 7.5198,-2.8419 5.9212,0.7942 9.31949,4.48452 9.31949,10.12035 0,7.845853 -5.18458,10.607783 -12.95594,6.901883 -5.11047,-2.437013 -5.55523,-5.045863 -1.43367,-8.409713 3.61095,-2.94712 5.50323,-2.92498 3.91333,0.0458 -1.21093,2.26263 0.34573,3.76821 4.82159,4.66338 3.11578,0.62315 3.15469,0.58197 3.15469,-3.33908 0,-4.89698 -2.70195,-7.67999 -7.45629,-7.67999 -4.01005,0 -6.38078,1.76906 -8.19861,6.11788 -2.26783,5.42535 -1.73747,10.533633 1.4049,13.531413 5.29271,5.04919 10.42286,5.82315 20.33386,3.06764 4.60077,-1.27913 5.95346,-2.06622 5.63617,-3.27953 -0.22961,-0.87805 0.18945,-2.16341 0.93124,-2.85635 3.37489,-3.15262 0.63153,-11.869873 -5.43237,-17.261803 -7.2904,-6.48252 -11.87837,-8.17881 -19.01341,-7.02974 -9.81709,1.58099 -13.00022,3.39221 -15.36771,8.7443 -1.71894,3.88597 -1.96481,5.82203 -1.41763,11.16287 0.75312,7.350883 2.44442,11.258533 6.9418,16.038643 4.04423,4.29847 7.71827,6.1906 15.13805,7.79612 9.2007,1.99088 13.33417,1.68198 20.05801,-1.49897 5.81532,-2.75114 13.44199,-9.95578 13.44199,-12.69816 0,-0.66313 0.67223,-2.49463 1.49384,-4.07 1.93007,-3.70075 1.91918,-12.610523 -0.0234,-19.151963 -1.25762,-4.23487 -2.54668,-5.98448 -7.25,-9.84031 -3.14625,-2.57932 -9.09544,-6.30236 -13.22044,-8.27344 -6.79209,-3.24552 -8.30754,-3.58431 -16.05558,-3.58935 -7.86529,-0.005 -9.15623,0.29314 -16,3.69668 -14.32334,7.12327 -20.94442,16.74933 -20.94442,30.45005 0,9.161213 2.63158,17.438673 8.10794,25.502973 7.01609,10.33165 14.94307,13.62238 33.89206,14.06962 10.97336,0.259 11.88247,0.12023 19.85172,-3.03024 9.07122,-3.5861 14.49216,-6.76529 17.70416,-10.38286 3.40304,-3.83274 6.67076,-9.77655 6.94348,-12.62982 0.14118,-1.47711 0.80322,-4.03565 1.4712,-5.68565 1.68523,-4.16274 0.55848,-25.106123 -1.65502,-30.762603 -5.596,-14.30029 -18.4529,-22.747223 -39.25209,-25.788467 -13.82311,-2.021206 -24.29358,0.396172 -39.66354,9.157357 -14.862,8.47164 -21.3229,16.23076 -23.29482,27.97561 C 142.94231,94.736367 142.76067,106 143.92239,106 c 0.44,0 0.8,1.48864 0.8,3.30809 0,3.98929 5.75201,18.57751 9.60401,24.35765 4.77878,7.17083 20.5936,17.18883 33.79599,21.40828 6.37816,2.03845 9.44452,2.38943 20.5,2.34645 15.27866,-0.0594 21.67892,-1.48317 34.97018,-7.7793 12.10792,-5.73558 19.15869,-13.36726 22.92464,-24.81339 5.23945,-15.92466 4.46507,-47.436283 -1.56155,-63.543863 -1.586,-4.23895 -4.14525,-7.70913 -10.70867,-14.520262 -10.21429,-10.599793 -14.51377,-13.325549 -25.74961,-16.324564 -7.9351,-2.117997 -9.46681,-2.198856 -27.14233,-1.432846 -13.00118,0.563436 -20.26247,1.324724 -23.73266,2.488179 -8.90696,2.986249 -25.09721,11.14927 -29.09968,14.671875 -2.14518,1.887988 -5.92532,4.972077 -8.40032,6.853533 -2.475,1.881455 -8.6625,7.217515 -13.75,11.857905 -6.73769,6.14555 -9.25,9.08681 -9.25,10.82933 0,5.07097 -2.61646,7.9798 -9.16777,10.19221 -3.42131,1.1554 -6.97143,2.10072 -7.88913,2.10072 -2.342932,0 -20.576492,14.556483 -39.215772,31.307303 -13.49092,12.12407 -15.93034,14.76478 -16.80162,18.18802 -1.8512,7.27335 -3.0729,9.35377 -8.5158,14.50144 C 29.698088,157.51451 24.922358,160 20.154508,160 14.518438,160 6.1223879,149.24453 6.1223879,142.02463 c 0,-2.49723 1.22475,-4.45727 5.7500001,-9.20206 6.57821,-6.89734 8.63163,-8.13081 16.20551,-9.73447 6.67442,-1.41322 14.01008,-6.76131 32.81833,-23.926303 7.30061,-6.66276 16.52284,-14.71234 20.49385,-17.88795 9.0601,-7.24536 10.45806,-8.90817 11.23011,-13.35764 1.04823,-6.04119 3.99986,-9.91621 7.553242,-9.91621 1.69424,0 3.97854,0.48065 5.07622,1.06811 1.71187,0.91617 2.91483,0.24045 8.45634,-4.75 17.54787,-15.802878 38.90063,-29.464092 53.9164,-34.495 13.36001,-4.476156 30.44224,-7.10742 41.5,-6.392457 21.50066,1.390169 26.71436,2.464909 37.70378,7.772172 10.51898,5.080065 23.2984,17.209374 27.70667,26.297178 1.60075,3.3 3.68699,7.124997 4.63609,8.499997 3.74138,5.42031 7.31066,24.07135 7.36781,38.5 0.0378,9.556413 -4.68875,32.896063 -8.531,42.125563 -2.48184,5.96166 -4.57768,8.96842 -10.25149,14.70716 -6.77347,6.85097 -7.78514,7.47549 -20.13186,12.42767 -21.9882,8.81931 -25.37174,9.65823 -43,10.66153 -7.95829,0.45294 -10.13921,0.17079 -18.8424,-2.43768 z m 11.27737,-1.82857 c -0.55052,-0.18938 -1.7736,-0.0286 -2.71796,0.35734 -1.55178,0.63414 -1.52455,0.77443 0.28299,1.45783 1.18634,0.44854 2.29209,0.30317 2.71795,-0.35733 0.39488,-0.61243 0.26753,-1.26846 -0.28298,-1.45784 z m 7.06503,1.34433 c 1.04007,-1.2532 0.89568,-1.5 -0.87756,-1.5 -1.16734,0 -2.12244,0.417 -2.12244,0.92668 0,0.50967 -0.7875,1.13247 -1.75,1.38399 -1.12826,0.29485 -0.81649,0.49854 0.87756,0.57333 1.44515,0.0638 3.18775,-0.559 3.87244,-1.384 z m 3.80687,-2.02646 c -0.30789,-0.30789 -0.86705,0.24711 -1.24258,1.23333 -0.54268,1.4252 -0.42782,1.54006 0.5598,0.5598 0.68342,-0.67834 0.99067,-1.48524 0.68278,-1.79313 z m 6.26371,0.94141 c 1.15523,-1.39196 0.96636,-1.54423 -1.55043,-1.25 -1.57625,0.18428 -3.05062,0.89755 -3.27636,1.58505 -0.59625,1.81583 3.26411,1.54787 4.82679,-0.33505 z M 192.12239,170 c 0,-0.55 -0.19844,-1 -0.44098,-1 -0.24254,0 -0.7191,0.45 -1.05902,1 -0.33992,0.55 -0.14148,1 0.44098,1 0.58246,0 1.05902,-0.45 1.05902,-1 z m 26.5,0 c 0.33992,-0.55 0.16803,-1 -0.38197,-1 -0.55,0 -1.27811,0.45 -1.61803,1 -0.33992,0.55 -0.16803,1 0.38197,1 0.55,0 1.27811,-0.45 1.61803,-1 z m 6.95,-1.11239 c 1.6866,-1.57583 -1.96325,-0.97114 -4.00887,0.66417 -1.8655,1.49132 -1.84373,1.5259 0.55887,0.8876 1.375,-0.36529 2.9275,-1.06359 3.45,-1.55177 z m 15.34317,-9.94363 c 4.06261,-4.37301 7.76847,-7.7149 8.23524,-7.42642 0.46677,0.28848 1.31264,-0.27246 1.87972,-1.24653 0.56708,-0.97407 1.04474,-1.30586 1.06146,-0.73731 0.0167,0.56855 -1.53584,3.4648 -3.45015,6.43611 -1.91431,2.97131 -3.34006,5.54289 -3.16833,5.71462 0.7718,0.77179 13.23945,-5.08259 14.42322,-6.77264 0.72754,-1.03872 3.74672,-4.70631 6.70928,-8.15019 6.29181,-7.31404 5.71687,-9.14563 -0.6591,-2.09967 -9.60519,10.61453 -11.77495,12.7941 -11.78476,11.83805 -0.006,-0.55 4.29639,-5.90889 9.56007,-11.90865 8.55357,-9.74972 12.20881,-15.11606 11.0711,-16.25376 -0.77974,-0.77974 -17.80339,19.97124 -22.36211,27.2583 -0.89378,1.4287 -1.20348,1.52959 -1.24039,0.40411 -0.0612,-1.8651 7.24808,-11.62028 17.76037,-23.70362 7.29612,-8.38651 10.08096,-12.71996 8.92025,-13.88067 -0.62802,-0.62802 -10.1618,10.54552 -12.01737,14.08429 -3.39214,6.46917 -11.85472,14.53682 -19.04851,18.15956 -3.88698,1.95745 -7.98951,4.74733 -9.11672,6.19972 -1.12721,1.4524 -3.74079,4.49104 -5.80796,6.75255 -4.46812,4.88819 -4.66252,5.68238 -1.05518,4.31088 1.48681,-0.56529 6.02725,-4.60572 10.08987,-8.97873 z M 179.12239,167 c 0,-0.55 -0.47656,-1 -1.05902,-1 -0.58246,0 -0.7809,0.45 -0.44098,1 0.33992,0.55 0.81648,1 1.05902,1 0.24254,0 0.44098,-0.45 0.44098,-1 z m 21.54775,-1.64602 c 2.64818,-2.85743 3.21043,-5.35812 1.20225,-5.34715 -1.17715,0.006 -5.75,5.81598 -5.75,7.30505 0,1.50597 2.22549,0.54785 4.54775,-1.9579 z m -8.16592,-1.42321 c 2.01744,-3.41527 3.45021,-3.35397 1.61817,0.0692 -1.84927,3.45539 -0.43779,3.42357 2.03263,-0.0458 1.84881,-2.59642 2.00225,-3.31837 0.85909,-4.04226 -2.7014,-1.71063 -4.54777,-0.86862 -6.77156,3.08808 -2.74068,4.87638 -0.59153,5.76084 2.26167,0.93077 z m 16.65917,0.0117 c 1.19745,-1.68166 1.9225,-3.31225 1.61122,-3.62353 -1.0566,-1.05661 -3.14608,0.44752 -4.95876,3.5696 -1.51685,2.61258 -1.56786,3.11151 -0.31809,3.11151 0.81864,0 2.46818,-1.37591 3.66563,-3.05758 z m 4.959,-3.1649 c 0,-1.29355 0.0375,-1.33497 -2.91553,3.22243 l -2.26785,3.5 2.59169,-2.80576 c 1.42543,-1.54317 2.59169,-3.30567 2.59169,-3.91667 z m 4.76794,3.47243 c 3.45778,-4.99384 3.50287,-5.25 0.92396,-5.25 -1.72264,0 -3.19368,1.15986 -5.0732,4 l -2.64708,4 2.4461,0 c 1.54019,0 3.15128,-1.01845 4.35022,-2.75 z M 175.62239,165 c 0.33992,-0.55 -0.0835,-1 -0.94098,-1 -0.85746,0 -1.55902,0.45 -1.55902,1 0,0.55 0.42344,1 0.94098,1 0.51754,0 1.2191,-0.45 1.55902,-1 z m 13.5,-3 c 2.50632,-4.9128 1.32639,-5.25104 -1.75,-0.50165 -2.51166,3.87756 -2.68778,4.50165 -1.27032,4.50165 0.53882,0 1.89796,-1.8 3.02032,-4 z m 38.71865,0.0164 c 2.48906,-2.19096 4.86047,-3.77657 5.26981,-3.52358 0.40933,0.25298 1.52485,-0.40259 2.47891,-1.45682 1.70429,-1.88321 1.64095,-1.88958 -3.61635,-0.36344 -7.24332,2.10267 -7.65331,2.35184 -10.00015,6.07739 -1.83701,2.91621 -1.87321,3.25 -0.35252,3.25 0.93211,0 3.73125,-1.7926 6.2203,-3.98355 z m 3.70307,0.07 c 3.3486,-3.70015 1.07197,-3.19371 -2.49007,0.55392 -2.1148,2.22499 -2.65988,3.21412 -1.42046,2.57764 1.10615,-0.56804 2.86589,-1.97724 3.91053,-3.13156 z M 186.12239,161 c 2.65128,-5.19693 1.18871,-5.1906 -1.77986,0.008 -1.25392,2.19577 -1.82557,3.9923 -1.27032,3.9923 0.55524,0 1.92782,-1.8 3.05018,-4 z m -14.27083,2.39583 c -0.3323,-0.33229 -1.1948,-0.36781 -1.91667,-0.0789 -0.79773,0.31922 -0.56078,0.55618 0.60417,0.60416 1.05416,0.0434 1.64479,-0.19293 1.3125,-0.52522 z m 11.30334,-2.94843 c 1.20759,-1.95393 1.98205,-3.76618 1.72101,-4.02722 -0.47723,-0.47723 -5.75352,5.95416 -5.75352,7.0131 0,1.68451 2.11302,0.11992 4.03251,-2.98588 z m 62.95347,-3.0774 c 1.86443,-2.59618 2.89692,-4.41566 2.29441,-4.04329 -0.60251,0.37237 -2.78798,3.0387 -4.85661,5.92516 -2.06863,2.88647 -3.10111,4.70595 -2.29441,4.04329 0.8067,-0.66266 2.99217,-3.32899 4.85661,-5.92516 z m -79.98598,3.57098 c 0,-0.58246 -0.40285,-0.81004 -0.89522,-0.50574 -0.49236,0.3043 -1.16419,-0.14766 -1.49293,-1.00437 -0.32875,-0.8567 -1.0509,-1.27755 -1.60479,-0.93524 -1.55188,0.95912 -1.19578,2.3084 0.74294,2.81504 2.92917,0.76548 3.25,0.72898 3.25,-0.36969 z m 14.041,-1.99856 c 1.19745,-1.68166 2.01559,-3.16555 1.81809,-3.29751 -0.62391,-0.4169 -5.9371,-2.64491 -6.30737,-2.64491 -0.40514,0 -4.55172,6.8845 -4.55172,7.55716 0,0.24356 0.62041,0.44284 1.37868,0.44284 0.75827,0 1.93787,-1.35 2.62132,-3 0.68345,-1.65 1.63805,-3 2.12132,-3 1.29696,0 1.07113,1.3633 -0.58952,3.55887 -1.87162,2.4745 -1.89968,3.44113 -0.0999,3.44113 0.78754,0 2.41164,-1.37591 3.60909,-3.05758 z m -18.56668,-2.89276 c 2.23525,-4.3225 1.8294,-5.07669 -0.64884,-1.20572 -1.86551,2.91388 -2.26341,3.1249 -3.09394,1.64084 -0.62283,-1.11295 -0.5682,-2.54787 0.15768,-4.14099 1.33266,-2.92488 1.36627,-3.34379 0.26825,-3.34379 -0.46339,0 -1.68611,1.56644 -2.71715,3.48097 -1.84312,3.42246 -1.84157,3.50597 0.0925,4.9682 2.9085,2.1989 4.24325,1.88451 5.94148,-1.39951 z M 26.925438,155.5998 c 7.42229,-3.76116 13.5312,-10.9719 15.03932,-17.75187 1.1574,-5.20327 1.86367,-6.19582 8.89452,-12.5 4.20052,-3.76636 11.12465,-10.06605 15.38697,-13.99932 4.26232,-3.93326 12.8311,-11.10308 19.04172,-15.932943 9.80802,-7.62746 12.32964,-9.08321 19.187102,-11.07687 7.47987,-2.17461 10.5438,-4.22991 10.61552,-7.12092 0.13073,-5.2704 -9.75045,-17.21788 -14.24008,-17.21788 -2.867822,0 -5.728122,3.19918 -5.728122,6.40678 0,3.7344 -4.02304,10.1059 -8.25248,13.06987 -3.86343,2.70748 -19.8417,16.30403 -22.24752,18.9313 -7.0606,7.710533 -29.55337,25.352193 -33.42709,26.217733 -9.14456,2.04324 -10.67889,2.81071 -16.25783,8.13212 -3.22599,3.07707 -6.1118501,6.57646 -6.4130201,7.77641 -1.10535,4.40406 4.9998001,14.38366 10.0979401,16.5063 2.92283,1.21694 3.12904,1.18116 8.30305,-1.44071 z m -9.13638,-2.26647 c -1.35114,-1.35113 -0.58457,-2.12615 2.71527,-2.7452 4.20652,-0.78915 10.65277,-5.37521 12.53704,-8.91924 1.51142,-2.84276 3.08102,-3.52994 3.08102,-1.34889 0,2.37906 -6.91347,9.4597 -11.3184,11.59209 -4.57965,2.21697 -5.94299,2.49319 -7.01493,1.42124 z M 50.122388,120.5 c 0,-0.825 0.37781,-1.5 0.83958,-1.5 0.46178,0 5.1031,-3.9375 10.31406,-8.75 17.64154,-16.292573 17.84636,-16.451343 17.84636,-13.834033 0,0.77879 -1.90624,2.91629 -4.2361,4.750003 -2.32985,1.83372 -8.51735,7.2659 -13.75,12.07153 -5.23264,4.80562 -9.8514,8.74312 -10.2639,8.75 -0.4125,0.007 -0.75,-0.6625 -0.75,-1.4875 z M 102.3632,81.777587 c 0.22411,-0.67233 1.49911,-1.47886 2.83333,-1.79229 1.33422,-0.31343 3.01712,-1.79713 3.73978,-3.2971 0.72265,-1.49997 1.73515,-2.46689 2.25,-2.14869 1.59419,0.98526 1.05078,2.49963 -1.987,5.53742 -2.90286,2.90286 -7.62874,4.07855 -6.83611,1.70066 z M 171.70013,154.5 c -0.57922,1.98824 -0.57366,1.98838 0.94552,0.0237 1.40203,-1.81316 1.34032,-2.12088 -0.74754,-3.72776 -2.74713,-2.11428 -4.77572,-2.29199 -4.77572,-0.41838 0,0.75765 -0.675,1.93775 -1.5,2.62244 -0.825,0.68469 -1.48503,1.97729 -1.46673,2.87244 0.0263,1.28873 0.42629,1.15636 1.92113,-0.63582 1.03832,-1.24486 2.08674,-2.81986 2.32982,-3.5 0.24308,-0.68014 0.78953,-0.91316 1.21433,-0.51783 0.4248,0.39534 0.0364,1.842 -0.86309,3.21482 -2.49553,3.80866 -1.93988,4.43259 0.9497,1.06639 1.92366,-2.24096 2.42781,-2.49397 1.99258,-1 z m -15.30521,-7.76631 c -0.69516,-1.297 -2.27253,0.27605 -2.27253,2.26631 0,2.28035 -1.62977,3.50434 -2.33846,1.75623 -0.38994,-0.96185 -0.74457,-0.91821 -1.51336,0.18621 -0.72512,1.04169 -0.54312,1.77951 0.6551,2.65566 1.41564,1.03515 1.96894,0.67665 3.76958,-2.44244 1.16072,-2.01061 1.92557,-4.0005 1.69967,-4.42197 z M 266.24995,150.25 c 1.24387,-1.58606 1.2085,-1.62143 -0.37756,-0.37756 -1.66575,1.30637 -2.19548,2.12756 -1.37244,2.12756 0.20765,0 0.99515,-0.7875 1.75,-1.75 z M 155.12239,138.46626 c 0,-1.73676 -2.0294,0.2795 -4.54332,4.5139 -1.62618,2.73908 -3.32074,4.98908 -3.7657,5 -0.44496,0.0109 -0.49144,-0.54266 -0.10329,-1.23016 0.55342,-0.98024 0.42423,-0.98938 -0.5986,-0.0424 -1.05496,0.97674 -1.06199,1.49962 -0.0368,2.73493 1.08923,1.31244 1.81485,0.68056 5.15762,-4.49136 2.13956,-3.31025 3.89009,-6.22847 3.89009,-6.48491 z M 208.36564,148.75 c 1.29512,-1.2375 1.54246,-1.61526 0.54963,-0.83946 -3.34802,2.61614 -3.18449,0.0887 0.22164,-3.42552 C 211.4066,142.1433 212.00963,141 210.97509,141 c -0.84679,0 -3.43685,2.25 -5.75569,5 -4.11438,4.87941 -4.15567,5 -1.7123,5 1.37707,0 3.56341,-1.0125 4.85854,-2.25 z m -9.51408,0.64583 c -0.3323,-0.33229 -1.1948,-0.36781 -1.91667,-0.0789 -0.79773,0.31922 -0.56078,0.55618 0.60417,0.60416 1.05416,0.0434 1.64479,-0.19293 1.3125,-0.52522 z m -34.9223,-2.92229 c -0.30789,-0.30789 -0.86705,0.24711 -1.24258,1.23333 -0.54268,1.4252 -0.42782,1.54006 0.5598,0.5598 0.68342,-0.67834 0.99067,-1.48524 0.68278,-1.79313 z M 215.55459,145.5 c 1.46827,-1.925 2.50996,-3.5 2.31486,-3.5 -0.1951,0 -1.88128,1.575 -3.74706,3.5 -1.86578,1.925 -2.90747,3.5 -2.31486,3.5 0.59262,0 2.27879,-1.575 3.74706,-3.5 z m -54.05058,-1.69154 c -0.49395,-0.79922 -0.95154,-0.55652 -1.42899,0.75792 -0.92088,2.5352 0.0606,4.1613 1.23987,2.05412 0.50366,-0.89999 0.58876,-2.16541 0.18912,-2.81204 z m 41.6731,-1.77686 c 0.90968,0.0199 0.40551,0.94635 -1.36048,2.5 -1.80415,1.58722 -2.27629,2.4684 -1.32258,2.4684 0.81575,0 2.46076,-1.2375 3.65559,-2.75 l 2.1724,-2.75 -2.24236,-0.33823 c -1.52282,-0.2297 -3.23952,0.72565 -5.34983,2.97719 l -3.10746,3.31542 3.05472,-2.72719 c 1.68009,-1.49996 3.70509,-2.71297 4.5,-2.69559 z M 145.01979,141.25 c 1.17879,-2.3375 1.91825,-4.25 1.64325,-4.25 -0.56844,0 -4.54065,7.54685 -4.54065,8.62683 0,1.09503 0.57924,0.22003 2.8974,-4.37683 z m 49.1026,3.12756 c 0,-1.3288 -0.27149,-1.39713 -1.5,-0.37756 -0.825,0.68469 -1.5,1.41479 -1.5,1.62244 0,0.20766 0.675,0.37756 1.5,0.37756 0.825,0 1.5,-0.7301 1.5,-1.62244 z m 26.56291,-1.62756 2.93709,-3.25 -3.25,2.93709 C 217.34293,145.17487 216.66274,146 217.4353,146 c 0.1721,0 1.6346,-1.4625 3.25,-3.25 z m 5.43709,0.1841 c 0,-0.40968 1.575,-2.63003 3.5,-4.9341 1.925,-2.30407 3.5,-4.39821 3.5,-4.65363 0,-1.42077 -5.00618,3.57789 -10.21433,10.19897 l -1.95935,2.49092 2.58684,-1.17865 c 1.42276,-0.64825 2.58684,-1.51383 2.58684,-1.92351 z m -67,0.007 c 0,-0.51766 -0.45,-0.9411 -1,-0.9411 -0.55,0 -1,0.70156 -1,1.55902 0,0.85746 0.45,1.2809 1,0.94098 0.55,-0.33992 1,-1.04148 1,-1.55902 z M 191.53043,142.5 c 1.55787,-2.3776 1.54074,-2.5 -0.3498,-2.5 -1.695,0 -4.05824,2.58221 -4.05824,4.43426 0,1.56211 2.97148,0.25822 4.40804,-1.93426 z m -5.42335,-2.30902 c 0.008,-0.71996 -0.43469,-1.0309 -0.98469,-0.69098 -0.55,0.33992 -0.99311,1.60398 -0.98469,2.80902 0.0125,1.78123 0.1966,1.91046 0.98469,0.69098 0.53316,-0.825 0.97627,-2.08906 0.98469,-2.80902 z m -43.34621,-1.65054 c -0.21366,-0.57224 -0.89473,-0.92794 -1.51348,-0.79044 -0.61875,0.1375 -1.13868,-0.5375 -1.15541,-1.5 -0.0278,-1.6024 -0.12153,-1.59319 -1.11078,0.10916 -0.78594,1.35249 -0.75369,2.57613 0.11833,4.49001 1.16432,2.55541 1.23957,2.57494 2.62426,0.68128 0.78405,-1.07227 1.25074,-2.41777 1.03708,-2.99001 z m 97.8994,-6.30139 c 3.77053,-4.25648 5.75449,-6.8177 4.40881,-5.6916 -1.34568,1.1261 -3.32057,2.7011 -4.38865,3.5 -1.71026,1.27924 -1.84125,1.27358 -1.09789,-0.0474 0.46423,-0.825 1.56311,-2.4 2.44195,-3.5 1.59631,-1.99801 1.59557,-1.99802 -0.74472,-0.0112 -2.67541,2.27133 -5.17133,6.25588 -3.12742,4.99267 0.79516,-0.49143 1.06746,-0.26911 0.7708,0.62932 -0.25228,0.76406 -1.45483,1.89025 -2.67232,2.50265 -1.82722,0.91909 -7.12844,6.94572 -7.12844,8.10388 0,1.27001 5.78388,-3.9827 11.53788,-10.47828 z m -64.82682,3.56121 c -1.88944,-1.20075 -2.30537,-0.98606 -3.60171,1.8591 -1.77631,3.89856 0.70767,5.16839 3.06894,1.56886 1.31566,-2.00562 1.44648,-2.84729 0.53277,-3.42796 z m 6.94386,4.65661 c 0.80982,-2.11034 -0.54185,-3.2497 -1.69398,-1.42791 -1.22421,1.93575 -1.19966,2.97104 0.0704,2.97104 0.56727,0 1.29786,-0.69441 1.62354,-1.54313 z M 179.48402,138.5 c 0.31658,-0.825 0.18787,-1.5 -0.28603,-1.5 -0.47389,0 -1.12064,0.675 -1.43723,1.5 -0.31658,0.825 -0.18787,1.5 0.28603,1.5 0.47389,0 1.12064,-0.675 1.43723,-1.5 z m -8.17927,-5.71764 c -0.66277,-0.66277 -1.3018,-0.37433 -1.90593,0.86028 -0.81626,1.66813 -0.88973,2.70639 -0.36139,5.10736 0.0908,0.4125 0.86239,-0.53713 1.71472,-2.11028 1.03009,-1.90127 1.21537,-3.19459 0.5526,-3.85736 z m 106.26879,-2.05633 c 1.40187,-3.72443 2.5078,-7.54891 2.45763,-8.49886 -0.0502,-0.94994 -0.88336,0.74783 -1.85154,3.77283 -0.96817,3.025 -2.5256,7.3 -3.46094,9.5 -0.93534,2.2 -1.24913,3.54948 -0.69732,2.99885 0.55182,-0.55062 2.15029,-4.0484 3.55217,-7.77282 z m -108.45115,-0.96449 c 0,-2.29147 -3.05926,1.83225 -3.56661,4.8076 l -0.49976,2.93086 2.03318,-3.27417 c 1.11826,-1.80079 2.03319,-3.80972 2.03319,-4.46429 z m 78,-0.15387 c 0,-0.55 -1.575,0.52655 -3.5,2.39233 -1.925,1.86578 -3.5,3.84233 -3.5,4.39233 0,0.55 1.575,-0.52655 3.5,-2.39233 1.925,-1.86578 3.5,-3.84233 3.5,-4.39233 z m -100.01672,2.91939 c 1.56455,-2.5315 1.88551,-3.93911 1.184,-5.19263 -0.83977,-1.50059 -1.22977,-1.28108 -3.0611,1.72294 -2.19002,3.59243 -2.76318,6.94263 -1.18774,6.94263 0.50514,0 1.88432,-1.56282 3.06484,-3.47294 z m 5.01672,1.97881 c 0,-0.14354 -0.64362,-0.79514 -1.43026,-1.44799 -1.13977,-0.94593 -1.6387,-0.79755 -2.45652,0.73057 -0.90266,1.68664 -0.73041,1.86103 1.43026,1.44799 1.35109,-0.25828 2.45652,-0.58703 2.45652,-0.73057 z M 138.23933,130.25 c -0.93566,-1.66667 -1.01455,-1.66667 -1.65668,0 -0.37083,0.9625 -0.37083,2.5375 0,3.5 0.64213,1.66667 0.72102,1.66667 1.65668,0 0.64325,-1.14581 0.64325,-2.35419 0,-3.5 z m 26.78428,0.19284 C 167.52577,126.202 167.55299,126 165.62239,126 c -0.825,0 -1.5,0.17004 -1.5,0.37788 0,0.20783 -0.68104,2.00783 -1.51342,4 -1.94454,4.65395 -0.31873,4.69769 2.41464,0.065 z m 47.62908,-1.24588 c -0.67194,-0.67193 -3.5303,1.82222 -3.5303,3.08047 0,0.5679 0.90276,0.21556 2.00613,-0.78298 1.10337,-0.99854 1.78925,-2.03241 1.52417,-2.29749 z m -20.5303,2.36206 c 0,-0.24254 -0.45,-0.7191 -1,-1.05902 -0.55,-0.33992 -1,-0.14148 -1,0.44098 0,0.58246 0.45,1.05902 1,1.05902 0.55,0 1,-0.19844 1,-0.44098 z m 12.80518,-1.61868 c 1.18796,-1.90221 1.12991,-1.97597 -0.75945,-0.96481 -1.12515,0.60216 -2.04573,1.529 -2.04573,2.05965 0,1.63657 1.45373,1.06919 2.80518,-1.09484 z m 3.69482,0.0597 c 0.99549,-1.1 1.58498,-2 1.30998,-2 -0.275,0 -1.31449,0.9 -2.30998,2 -0.99549,1.1 -1.58498,2 -1.30998,2 0.275,0 1.31449,-0.9 2.30998,-2 z m -47.5,-0.36518 c 0,-0.75083 0.93793,-2.66333 2.08428,-4.25 1.47554,-2.04231 1.18348,-1.87368 -1,0.57737 -3.1988,3.59078 -3.79747,5.03777 -2.08428,5.03777 0.55,0 1,-0.61431 1,-1.36514 z m 28.84951,-2.63302 C 190.54745,125.35083 190.64351,124 190.18538,124 c -1.31683,0 -4.212,4.94988 -3.53545,6.04456 0.90732,1.46807 2.14454,0.33486 3.32197,-3.04272 z m 14.06716,0.25882 C 204.26822,127.1173 203.53321,127 202.40569,127 c -1.2391,0 -2.26645,0.82756 -2.59712,2.09205 -0.53538,2.04731 -0.50045,2.05288 1.63337,0.26065 1.19925,-1.00726 2.36795,-1.94868 2.59712,-2.09204 z m 16.12512,-0.88073 c 2.45202,-2.54104 3.55821,-4.15298 2.45821,-3.58208 -2.58731,1.34281 -9.19763,8.20215 -7.90437,8.20215 0.54337,0 2.99415,-2.07903 5.44616,-4.62007 z m -74.82692,-3.441 c 0.43548,-0.30859 -0.0281,-2.97322 -1.03026,-5.9214 l -1.82203,-5.36033 -2.70719,4.8437 c -3.24408,5.80428 -3.01817,8.4402 0.26769,3.12355 3.04696,-4.93007 3.79515,-3.95261 1.06732,1.39437 -1.4322,2.80734 -1.93248,5.0758 -1.4997,6.80014 l 0.64942,2.5875 2.14149,-3.45323 c 1.17782,-1.89928 2.49779,-3.70571 2.93326,-4.0143 z m 41.78139,0.20029 c -0.002,-0.97623 -0.81114,-0.31496 -2,1.63495 -2.53912,4.16454 -2.51926,5.43349 0.037,2.36505 1.0817,-1.29844 1.96505,-3.09844 1.96299,-4 z m 7.35308,4.39281 c 0.75159,-1.95863 -1.33606,-3.16227 -2.44583,-1.41015 -1.2555,1.98219 -1.10312,2.87812 0.4895,2.87812 0.76616,0 1.6465,-0.66059 1.95633,-1.46797 z M 160.988,123.50319 c 1.13682,-1.92675 1.74462,-3.50318 1.35066,-3.50316 -1.14111,5e-5 -6.17811,6.7048 -5.52653,7.35637 0.90535,0.90536 1.92143,-0.0322 4.17587,-3.85321 z m -25.1825,1.30931 c -0.31922,-0.79773 -0.55618,-0.56078 -0.60416,0.60417 -0.0434,1.05416 0.19292,1.64479 0.52522,1.3125 0.33229,-0.3323 0.36781,-1.1948 0.0789,-1.91667 z m 47.87631,-0.9274 c 2.36192,-4.56746 0.26205,-5.94257 -2.34003,-1.53237 -1.93069,3.27228 -1.95389,4.64727 -0.0784,4.64727 0.44421,0 1.5325,-1.40171 2.41843,-3.1149 z m -22.7691,-8.44596 c -1.05155,-2.3079 -1.22618,-2.35466 -2.95397,-0.79104 -1.00999,0.91403 -1.83635,2.13213 -1.83635,2.70689 0,0.64058 0.46442,0.58059 1.2,-0.15499 2.5366,-2.5366 2.78118,-1.04189 0.35089,2.14439 -3.68199,4.82733 -3.135,6.03972 0.90308,2.00164 3.06617,-3.06617 3.32849,-3.72937 2.33635,-5.90689 z m 19.49407,5.65657 C 182.47173,117.60003 182.5279,117 180.79017,117 c -0.73272,0 -1.8156,1.575 -2.4064,3.5 -1.30528,4.253 -0.31045,4.54594 2.02301,0.59571 z M 236.38568,111 c 2.67478,-3.92986 2.75318,-4.21892 0.61883,-2.28148 -1.3442,1.22018 -4.3699,5.04518 -6.72378,8.5 l -4.27979,6.28148 3.66096,-4 c 2.01352,-2.2 5.03922,-6.025 6.72378,-8.5 z m 14.73671,10 c 0.5887,-1.1 0.84537,-2 0.57037,-2 -0.275,0 -0.98167,0.9 -1.57037,2 -0.5887,1.1 -0.84537,2 -0.57037,2 0.275,0 0.98167,-0.9 1.57037,-2 z m 28.59356,-9.64702 c 1.08254,-5.77043 -0.11712,-5.89689 -4.41082,-0.46495 -5.12317,6.4813 -5.57888,9.10304 -0.56389,3.24415 1.99037,-2.32529 3.85348,-3.99319 4.14024,-3.70642 0.28676,0.28676 -1.07958,2.29346 -3.03632,4.45934 -5.69784,6.30682 -6.66658,9.2939 -1.35051,4.16421 2.91008,-2.80803 4.83714,-5.64858 5.2213,-7.69633 z M 176.12239,121 c 0,-0.55 -0.47656,-1 -1.05902,-1 -0.58246,0 -0.7809,0.45 -0.44098,1 0.33992,0.55 0.81648,1 1.05902,1 0.24254,0 0.44098,-0.45 0.44098,-1 z m 76.80606,-6.52727 c -0.32333,-0.32334 -1.60452,0.90053 -2.84709,2.71969 l -2.25921,3.30758 2.84709,-2.7197 c 1.5659,-1.49583 2.58254,-2.98424 2.25921,-3.30757 z M 153.12239,116.8 c 0,-1.61542 -0.29571,-1.90429 -1.11287,-1.08713 -0.61207,0.61207 -0.81052,1.60207 -0.44098,2.2 1.03439,1.67368 1.55385,1.30164 1.55385,-1.11287 z m 21,1.2 c 0,-0.55 -0.45,-1 -1,-1 -0.55,0 -1,0.45 -1,1 0,0.55 0.45,1 1,1 0.55,0 1,-0.45 1,-1 z m -34.54215,-4.33786 c 2.55956,-4.36756 3.17802,-6.66532 1.79215,-6.65839 -0.4125,0.002 -1.65,2.12455 -2.75,4.71664 -1.1,2.59209 -2.15,5.06541 -2.33333,5.49625 -0.18334,0.43085 -0.0898,0.78336 0.20784,0.78336 0.29765,0 1.68515,-1.95204 3.08334,-4.33786 z m 39.96204,1.20824 c -0.7889,-1.27647 -2.41989,-0.0558 -2.41989,1.81108 0,1.27119 0.27832,1.33244 1.48899,0.32768 0.81894,-0.67967 1.23785,-1.64211 0.9309,-2.13876 z m -2.4352,-2.6794 c 0.008,-0.71996 -0.43469,-1.0309 -0.98469,-0.69098 -0.55,0.33992 -0.99311,1.60398 -0.98469,2.80902 0.0125,1.78123 0.1966,1.91046 0.98469,0.69098 0.53316,-0.825 0.97627,-2.08906 0.98469,-2.80902 z m 75.48113,-1.76019 c 0.90752,-1.91247 2.07482,-3.21469 2.59399,-2.89383 1.30536,0.80676 3.10215,-4.30801 2.7391,-7.797193 -0.29766,-2.86076 -0.31457,-2.8517 -4.04891,2.167763 -2.0625,2.77229 -3.75,5.38436 -3.75,5.80462 0,0.42025 1.19687,-0.91806 2.65971,-2.97403 1.46284,-2.05597 3.0896,-3.73812 3.61501,-3.73812 0.97861,0 -0.48871,2.52812 -5.45576,9.40004 -1.55043,2.14502 -2.81896,4.33762 -2.81896,4.87244 0,1.73436 2.77075,-1.2696 4.46582,-4.84169 z M 159.10015,109.25 c 0.0122,-0.6875 -0.33776,-1.25 -0.77776,-1.25 -1.61493,0 -3.19941,2.46814 -3.17776,4.95 l 0.0222,2.55 1.95556,-2.5 c 1.07554,-1.375 1.96553,-3.0625 1.97776,-3.75 z m 122.68452,2.5 c -0.27741,-0.6875 -0.50439,-0.125 -0.50439,1.25 0,1.375 0.22698,1.9375 0.50439,1.25 0.27741,-0.6875 0.27741,-1.8125 0,-2.5 z m -144.13691,-1.46495 c 0.85371,-2.04323 2.01813,-4.00292 2.5876,-4.35487 0.56947,-0.35195 0.88522,-2.16772 0.70168,-4.03504 l -0.33372,-3.395143 -2.74046,5.779643 C 135.38352,109.50855 134.34208,114 135.60897,114 c 0.26762,0 1.18507,-1.67173 2.03879,-3.71495 z m 14.45932,0.40593 c -0.0125,-1.78123 -0.1966,-1.91046 -0.98469,-0.69098 -1.27319,1.97012 -1.27319,4.28687 0,3.5 0.55,-0.33992 0.99311,-1.60398 0.98469,-2.80902 z m 23.01531,-1.80901 c 0,-0.55 -0.45,-0.72189 -1,-0.38197 -0.55,0.33992 -1,1.06803 -1,1.61803 0,0.55 0.45,0.72189 1,0.38197 0.55,-0.33992 1,-1.06803 1,-1.61803 z m -17,-5.94469 c 0,-0.80877 -0.70312,-0.61094 -2,0.56272 -1.1,0.99549 -2,2.70092 -2,3.78985 0,1.78559 0.19626,1.73037 2,-0.56272 1.1,-1.39842 2,-3.10385 2,-3.78985 z m 122,-0.2077 c 0,-1.78783 -2.15047,-0.11697 -4.23117,3.28751 l -2.12863,3.48291 3.1799,-2.93709 c 1.74895,-1.6154 3.1799,-3.3404 3.1799,-3.83333 z m -106,0.95685 c 0,-2.03366 -0.0249,-2.03582 -1.4682,-0.12756 -2.04544,2.70432 -2.06787,5.13091 -0.0318,3.44113 0.825,-0.68469 1.5,-2.1758 1.5,-3.31357 z M 277.64383,100.25 c 2.67878,-4.262503 5.26161,-8.019653 5.73961,-8.349233 0.66407,-0.45788 0.5556,-5.76373 -0.19886,-9.72749 -0.11323,-0.59486 -4.74412,5.2869 -5.91362,7.51098 -1.96782,3.74225 -1.27922,3.83471 2.35143,0.31574 5.22614,-5.06537 4.22811,-2.79807 -2,4.54358 -4.37531,5.15757 -5.5,7.196313 -5.5,9.969883 0,1.9176 0.14646,3.48654 0.32546,3.48654 0.17901,0 2.5172,-3.4875 5.19598,-7.75 z m 6.41434,-3.250003 0.051,-3.5 -1.93191,2.93066 c -1.38457,2.10036 -1.66602,3.42748 -0.99341,4.684263 0.51618,0.96448 0.99025,3.02068 1.0535,4.56934 0.0949,2.32331 0.25969,2.11621 0.94237,-1.18426 0.45505,-2.2 0.85034,-5.575003 0.87841,-7.500003 z m -143.19741,-4.83545 c -0.45524,-2.01875 -6.76124,10.644083 -6.68919,13.432293 0.0271,1.04674 1.62764,-1.17279 3.55687,-4.93229 1.92923,-3.759503 3.33877,-7.584503 3.13232,-8.500003 z m 10.7464,9.986893 c -0.75544,-0.75544 -2.48477,1.05319 -2.48477,2.59871 0,1.36496 0.23214,1.31464 1.41824,-0.30745 0.78003,-1.06675 1.25997,-2.09782 1.06653,-2.29126 z m 22.48833,-3.324513 c 0.0148,-0.3702 -1.3231,0.67692 -2.9731,2.326923 -1.65,1.65 -2.98789,3.52788 -2.9731,4.17307 0.027,1.17757 5.89575,-5.23777 5.9462,-6.499993 z M 223.48402,101.5 c 0.35062,-0.91371 0.002,-1.500003 -0.89301,-1.500003 -0.80774,0 -1.46862,0.675003 -1.46862,1.500003 0,0.825 0.40186,1.5 0.89301,1.5 0.49116,0 1.15203,-0.675 1.46862,-1.5 z m -89.40587,-9.500003 c 0.3707,-0.275 2.84264,-4.55 5.49322,-9.5 2.65057,-4.95 4.34325,-8.55 3.76152,-8 -0.58174,0.55 -2.93118,4.4875 -5.22097,8.75 -2.28979,4.2625 -4.58064,7.75 -5.09076,7.75 -0.92155,0 10.20321,-22.13122 12.56682,-25 0.67972,-0.825 2.74146,-4.2844 4.58164,-7.68757 1.84018,-3.40316 3.7057,-5.965124 4.14561,-5.693247 0.4399,0.271877 0.11492,1.818787 -0.72219,3.437567 -0.8371,1.61879 -1.30701,2.94325 -1.04423,2.94325 0.51373,0 7.57358,-11.765506 7.57358,-12.621668 0,-0.282984 -1.4625,0.494609 -3.25,1.727987 -7.63344,5.267081 -14.32665,11.718391 -17.9103,17.262991 -3.83307,5.9305 -5.25222,9.74653 -2.25806,6.07182 1.35047,-1.65742 1.50121,-1.68536 1.03138,-0.19113 -0.75799,2.41068 0.0772,2.19742 1.45156,-0.37067 0.79768,-1.49048 0.80814,-1.9187 0.0352,-1.44099 -1.38276,0.8546 -1.39969,-0.009 -0.0496,-2.53209 0.5776,-1.07924 1.46158,-1.708 1.9644,-1.39724 0.50282,0.31076 2.04669,-1.66979 3.43081,-4.40122 1.38412,-2.73144 3.00508,-5.26816 3.60214,-5.63715 1.82378,-1.12716 2.36412,0.4092 0.7995,2.27323 -0.81072,0.96587 -4.05364,6.14363 -7.20648,11.50613 -3.15283,5.3625 -6.18831,9.75 -6.7455,9.75 -0.55719,0 -0.6955,-0.5625 -0.30735,-1.25 0.48283,-0.85521 0.36911,-0.93417 -0.36007,-0.25 -1.53598,1.44116 -3.24723,11.86123 -3.1094,18.93366 l 0.11821,6.066343 1.02267,-5.000003 c 0.56247,-2.75 1.32597,-5.225 1.69666,-5.5 z m 23.63494,7.25737 c -0.6935,-0.6935 -2.5907,0.71554 -2.5907,1.924093 0,0.6631 0.57378,0.58723 1.52417,-0.20152 0.83829,-0.69572 1.31823,-1.470873 1.06653,-1.722573 z m -0.5907,-3.50226 c 0,-0.55782 -0.66326,-0.44954 -1.5,0.24489 -0.825,0.68469 -1.5,1.69489 -1.5,2.24489 0,0.55783 0.66326,0.44955 1.5,-0.24489 0.825,-0.68469 1.5,-1.69489 1.5,-2.24489 z m 15.364,-2.55886 c 3.25765,-4.7008 3.44023,-6.54313 0.31434,-3.17201 -1.92109,2.07182 -4.18525,6.97576 -3.22072,6.97576 0.14871,0 1.45658,-1.71169 2.90638,-3.80375 z m 102.56571,-0.50526 c 0.0387,-0.44496 -0.37971,-0.53091 -0.92971,-0.19099 -0.55,0.33992 -0.96837,1.60398 -0.92971,2.80902 0.0678,2.11237 0.10112,2.11922 0.92971,0.19098 0.47269,-1.1 0.89106,-2.36406 0.92971,-2.80901 z m -135.45098,-3.78318 c 2.01862,-3.90071 3.44059,-7.32182 3.15993,-7.60249 -0.45483,-0.45482 -7.63866,12.87119 -7.63866,14.16972 0,1.54261 1.16877,-0.17118 4.47873,-6.56723 z m 118.48947,2.71975 c -0.0312,-2.08583 -0.0606,-2.08948 -1.5,-0.18643 -2.03853,2.69517 -2.01563,5.25809 0.0318,3.55887 0.825,-0.68469 1.48569,-2.20229 1.4682,-3.37244 z m -99.36631,-2.87756 c 2.01936,-3.83121 0.37235,-3.43295 -2.35189,0.56872 -2.59151,3.80669 -3.14712,7.42542 -0.64199,4.18128 0.84943,-1.1 2.19667,-3.2375 2.99388,-4.75 z m 94.3828,1.94099 c -0.0117,-2.42808 -0.24708,-2.83236 -0.98469,-1.69099 -1.28168,1.98326 -1.28168,6.29212 0,5.5 0.55,-0.33992 0.99311,-2.05397 0.98469,-3.80901 z m -30.67854,0.66953 c 1.06481,-1.06481 -0.26976,-2.31171 -1.83243,-1.71206 -0.80423,0.30861 -1.21326,0.96396 -0.90896,1.45633 0.6482,1.04881 1.83738,1.15974 2.74139,0.25573 z M 163.7959,76.749997 c 3.05347,-3.7125 5.83858,-6.76202 6.18913,-6.77672 0.35055,-0.0147 3.56236,-2.7037 7.13736,-5.97554 5.66828,-5.18762 6.08414,-5.79593 3.25,-4.75404 -1.7875,0.65713 -3.25,1.70789 -3.25,2.33502 0,0.62714 -2.34064,2.89098 -5.20141,5.03076 -6.33688,4.73982 -20.81296,20.93888 -20.76104,23.23207 0.0401,1.77 2.55929,-0.84005 12.63596,-13.09155 z m 111.31118,11.44099 c -0.0132,-1.45728 -0.14929,-1.48367 -0.98469,-0.19099 -1.2656,1.95837 -1.2656,3.28218 0,2.5 0.55,-0.33992 0.99311,-1.37897 0.98469,-2.30901 z m -55.98469,-0.19099 c 0,-0.55 -0.70156,-1 -1.55902,-1 -0.85746,0 -1.2809,0.45 -0.94098,1 0.33992,0.55 1.04148,1 1.55902,1 0.51754,0 0.94098,-0.45 0.94098,-1 z m 38.9682,-4.37244 c -0.0302,-2.96643 -0.10745,-3.02755 -1.5,-1.18643 -0.80751,1.06762 -1.4682,3.03522 -1.4682,4.37245 0,2.04778 0.23662,2.23494 1.5,1.18642 0.825,-0.68469 1.48569,-2.65229 1.4682,-4.37244 z m -18,-1.06869 c -0.0175,-0.58238 -0.6925,-0.18536 -1.5,0.88226 -0.80751,1.06762 -1.45389,2.41762 -1.4364,3 0.0175,0.58238 0.6925,0.18536 1.5,-0.88226 0.80751,-1.06762 1.45389,-2.41762 1.4364,-3 z m -24.4682,2.44113 c 0.33992,-0.55 -0.11008,-1 -1,-1 -0.88992,0 -1.33992,0.45 -1,1 0.33992,0.55 0.78992,1 1,1 0.21008,0 0.66008,-0.45 1,-1 z m 36.7087,-3.0314 c -0.28253,-1.92499 -0.81425,-2.76305 -1.38863,-2.18867 -1.05272,1.05272 -0.003,6.45096 1.11987,5.75719 0.39963,-0.24698 0.52057,-1.85282 0.26876,-3.56852 z m 21.77599,0.72239 c -0.0125,-1.78124 -0.1966,-1.91046 -0.98469,-0.69099 -1.27319,1.97012 -1.27319,4.28688 0,3.5 0.55,-0.33992 0.99311,-1.60397 0.98469,-2.80901 z m 9.01531,-5.60321 c 0,-2.79504 -0.52593,-2.38931 -4.31569,3.32927 -1.42772,2.15438 -2.31457,4.37219 -1.97076,4.92848 0.96077,1.55456 6.28645,-5.44114 6.28645,-8.25775 z m -103,2.36833 c 2.05426,-2.24123 2.14341,-2.54142 0.5,-1.68365 -1.1,0.57414 -3.125,2.27129 -4.5,3.77144 -2.05426,2.24123 -2.14341,2.54141 -0.5,1.68364 1.1,-0.57414 3.125,-2.27129 4.5,-3.77143 z m 58,0.23032 c 0,-2.03366 -0.0249,-2.03582 -1.4682,-0.12756 -2.04544,2.70432 -2.06787,5.13092 -0.0318,3.44113 0.825,-0.68469 1.5,-2.1758 1.5,-3.31357 z m -83,1.31357 c 0.5887,-1.1 0.84537,-2 0.57037,-2 -0.275,0 -0.98167,0.9 -1.57037,2 -0.5887,1.1 -0.84537,2 -0.57037,2 0.275,0 0.98167,-0.9 1.57037,-2 z m 103,-5.98832 c 0,-1.47309 -0.29301,-2.97135 -0.65112,-3.32947 -1.18347,-1.18347 -3.28472,2.75844 -3.31708,6.22278 -0.0312,3.34212 0.005,3.37157 1.9682,1.59501 1.1,-0.99548 2,-3.01523 2,-4.48832 z m 22.94453,-1.26017 c 0.7655,-1.51167 1.09114,-3.04917 0.72364,-3.41667 -0.36749,-0.36749 -0.79939,-0.48067 -0.95976,-0.2515 -3.17413,4.53558 -5.2978,8.68454 -4.95836,9.68697 0.47337,1.39793 2.80934,-1.30873 5.19448,-6.0188 z m -89.94453,0.58993 c 0,-0.83176 -5.71752,2.61409 -7.07283,4.26267 -0.80719,0.98185 0.41908,0.51835 2.82283,-1.06695 2.3375,-1.54161 4.25,-2.97969 4.25,-3.19572 z m 82,3.54053 c 0,-0.55 -0.45,-0.72189 -1,-0.38197 -0.55,0.33992 -1,1.06804 -1,1.61804 0,0.55 0.45,0.72188 1,0.38196 0.55,-0.33992 1,-1.06803 1,-1.61803 z m -64.55764,0.21129 c 0.30822,-0.49871 -0.34022,-0.67122 -1.44098,-0.38337 -2.33499,0.61062 -2.63015,1.29011 -0.5604,1.29011 0.79254,0 1.69316,-0.40803 2.00138,-0.90674 z m -44.44236,-6.59326 c 3.54322,-3.575 6.21722,-6.5 5.94222,-6.5 -0.275,0 -3.399,2.925 -6.94222,6.5 -3.54322,3.575 -6.21722,6.5 -5.94222,6.5 0.275,0 3.399,-2.925 6.94222,-6.5 z m 31.60662,4.3046 c 2.04651,-1.20748 3.19808,-2.3697 2.55902,-2.58272 -1.07823,-0.35941 -8.16564,3.4246 -8.16564,4.35968 0,0.95524 2.10853,0.28696 5.60662,-1.77696 z m 11.10394,-0.42737 c -0.60845,-0.60845 -4.71056,0.88761 -4.71056,1.71797 0,0.47406 1.1269,0.34847 2.50423,-0.27908 1.37732,-0.62755 2.37017,-1.27505 2.20633,-1.43889 z m 44.27413,-0.18624 c -0.0132,-1.45728 -0.14929,-1.48367 -0.98469,-0.19099 -1.2656,1.95837 -1.2656,3.28218 0,2.5 0.55,-0.33992 0.99311,-1.37897 0.98469,-2.30901 z m -16.60313,-0.74293 c 0.34149,-0.88992 0.17385,-1.29132 -0.39301,-0.94098 -0.5437,0.33603 -0.98855,1.0344 -0.98855,1.55194 0,1.43843 0.71677,1.12146 1.38156,-0.61096 z m 38,-1 c 0.34149,-0.88992 0.17385,-1.29132 -0.39301,-0.94098 -0.5437,0.33603 -0.98855,1.0344 -0.98855,1.55194 0,1.43843 0.71677,1.12146 1.38156,-0.61096 z m 7.13743,-3.70949 c 0.81455,-0.96879 1.46272,-2.54379 1.44037,-3.5 -0.03,-1.2823 -0.81729,-0.82995 -3,1.72366 -1.62765,1.90422 -2.94505,4.37922 -2.92756,5.5 0.0317,2.03352 0.0349,2.0336 1.51899,0.0378 0.81795,-1.1 2.15364,-2.79265 2.9682,-3.76143 z m -47.13743,1.70949 c 0.34149,-0.88992 0.17385,-1.29132 -0.39301,-0.94098 -0.5437,0.33603 -0.98855,1.0344 -0.98855,1.55194 0,1.43843 0.71677,1.12146 1.38156,-0.61096 z m 23.83027,-2.44806 c 0.49841,0 0.61145,-0.47693 0.25119,-1.05984 -0.79867,-1.29227 -3.41599,1.86688 -3.36354,4.05984 0.0216,0.90483 0.46644,0.60725 1.12101,-0.75 0.59683,-1.2375 1.49293,-2.25 1.99134,-2.25 z m -139.21183,0.5 c 0,-0.825 -0.45,-1.5 -1,-1.5 -0.55,0 -1,0.675 -1,1.5 0,0.825 0.45,1.5 1,1.5 0.55,0 1,-0.675 1,-1.5 z m 38,-6.35115 c 0,-2.06835 -3.7438,1.43278 -5.71952,5.34879 l -1.51477,3.00236 3.61715,-3.44616 c 1.98943,-1.8954 3.61714,-4.10264 3.61714,-4.90499 z m 75.38156,6.29921 c 0.34149,-0.88992 0.17385,-1.29132 -0.39301,-0.94098 -0.5437,0.33603 -0.98855,1.0344 -0.98855,1.55194 0,1.43843 0.71677,1.12146 1.38156,-0.61096 z m 40.98007,0.0519 c 0.31658,-0.825 0.13972,-1.5 -0.39301,-1.5 -0.53274,0 -0.96862,0.675 -0.96862,1.5 0,0.825 0.17686,1.5 0.39301,1.5 0.21616,0 0.65203,-0.675 0.96862,-1.5 z m -20.09971,-4.62658 c 1.45838,-1.99462 2.37344,-3.90472 2.03348,-4.24468 -0.69893,-0.69893 -5.61986,6.13151 -5.94505,8.25196 -0.2366,1.54275 0.12305,1.1743 3.91157,-4.00728 z m 3.70481,-0.53115 c -0.047,-1.18878 -3.96673,3.65655 -3.96673,4.90338 0,0.56324 0.9,-0.12009 2,-1.51852 1.1,-1.39842 1.98503,-2.92161 1.96673,-3.38486 z m 24.99263,-1.59227 c 0.0224,-0.4125 -0.29686,-0.74692 -0.70936,-0.74316 -0.89984,0.008 -5.25,6.23703 -5.25,7.51727 0,1.04863 5.89881,-5.65665 5.95936,-6.77411 z m -159.40005,2.34596 c -1.22722,-1.98568 -2.55931,-1.14336 -2.55931,1.61833 0,2.5009 0.12723,2.58706 1.61832,1.09596 0.89008,-0.89008 1.31353,-2.11151 0.94099,-2.71429 z m 62.94069,-3.17832 c 3.43986,-3.59995 4.06391,-4.58562 2,-3.15892 -3.8668,2.67295 -11.63237,10.81717 -9,9.43884 1.1,-0.57597 4.25,-3.40193 7,-6.27992 z m 44.42611,5.67139 c 0.83662,-1.00807 0.85908,-1.60375 0.0786,-2.08609 -1.32644,-0.81978 -4.20337,1.36667 -3.43472,2.61037 0.79249,1.28229 2.0153,1.09126 3.35608,-0.52428 z m -3.61079,-4.88784 c -0.27903,-0.45148 -1.09922,-0.0114 -1.82265,0.97794 -0.72342,0.98935 -1.08702,2.16821 -0.80799,2.61968 0.27903,0.45148 1.09922,0.0114 1.82265,-0.97794 0.72342,-0.98935 1.08702,-2.1682 0.80799,-2.61968 z m 24.04211,0.21823 c 3.43765,-4.85779 2.96101,-6.35856 -0.53884,-1.69664 -3.37714,4.49849 -4.07395,5.78085 -3.12761,5.75587 0.44496,-0.0117 2.09486,-1.8384 3.66645,-4.05923 z m -136.1155,0.5658 c -0.52277,-2.73465 -1.79285,-4.02085 -2.63113,-2.6645 -0.4544,0.73523 1.95433,5.17928 2.80723,5.17928 0.16755,0 0.0883,-1.13165 -0.1761,-2.51478 z m 3.20251,-2.92966 c -0.46336,-2.46997 -1.02838,-3.37162 -1.69505,-2.70495 -0.57426,0.57426 -0.70409,2.57735 -0.30495,4.70495 0.46337,2.46996 1.02839,3.37161 1.69506,2.70495 0.57426,-0.57426 0.70408,-2.57736 0.30494,-4.70495 z m 100.55556,2.94444 c 1.29175,-1.375 2.12363,-2.5 1.84863,-2.5 -0.275,0 -1.55688,1.125 -2.84863,2.5 -1.29175,1.375 -2.12363,2.5 -1.84863,2.5 0.275,0 1.55688,-1.125 2.84863,-2.5 z m 53.60417,-0.22912 c -1.01652,-1.01652 -1.85525,0.51389 -1.02122,1.86338 0.63003,1.01941 0.86558,1.0202 1.2043,0.004 0.2316,-0.69479 0.14921,-1.53512 -0.18308,-1.86742 z m 6.94381,-1.36362 c 1.44708,-2.79834 1.26581,-4.90722 -0.42178,-4.90722 -1.13125,0 -3.88823,6.30981 -3.38898,7.75623 0.59462,1.72274 1.98361,0.6843 3.81076,-2.84901 z m -152.47298,1.81778 c -0.0413,-0.39875 -0.075,-1.42656 -0.075,-2.28401 0,-0.85746 -0.45,-1.28091 -1,-0.94099 -1.34989,0.83428 -1.28154,4.76052 0.075,4.30834 0.59125,-0.19709 1.04125,-0.68459 1,-1.08334 z m 88.31801,-0.30678 c 0.85017,-2.21552 0.78558,-2.41822 -0.77057,-2.41822 -2.09867,0 -4.03925,2.67176 -2.41418,3.32381 2.14345,0.86004 2.55177,0.74393 3.18475,-0.90559 z m 8.37849,-1.98005 c -0.3352,-0.33521 -1.14849,0.44158 -1.80729,1.72619 -1.14512,2.23285 -1.1183,2.25967 0.60945,0.60945 0.99401,-0.9494 1.53304,-2.00044 1.19784,-2.33564 z m 25.14099,-0.81097 c 2.89655,-4.21 3.0499,-5.6272 0.6089,-5.6272 -2.00309,0 -5.68584,5.90652 -5.01014,8.03544 0.34294,1.08051 0.79658,1.96456 1.0081,1.96456 0.21151,0 1.73842,-1.96776 3.39314,-4.3728 z m -126.73499,-3.56315 c -0.51464,-5.39647 -2.1775,-4.16132 -2.1775,1.61741 0,3.59812 0.27118,4.33837 1.282,3.49946 0.79289,-0.65804 1.13454,-2.61024 0.8955,-5.11687 z m 55.31542,4.94741 c 0.35034,-0.56686 -0.0511,-0.73451 -0.94098,-0.39301 -1.73242,0.66479 -2.04939,1.38155 -0.61096,1.38155 0.51754,0 1.21592,-0.44484 1.55194,-0.98854 z m 20.95998,-2.93525 c 0.31885,-0.5159 0.19124,-1.1781 -0.28356,-1.47155 -0.47481,-0.29345 -2.16965,0.85502 -3.76632,2.55215 l -2.90302,3.08568 3.18659,-1.61413 c 1.75262,-0.88777 3.44746,-2.03624 3.76631,-2.55215 z m 12.04002,2.93525 c 0.35034,-0.56686 -0.0511,-0.73451 -0.94098,-0.39301 -1.73242,0.66479 -2.04939,1.38155 -0.61096,1.38155 0.51754,0 1.21592,-0.44484 1.55194,-0.98854 z m -75.12086,-7.21847 c -0.74465,-1.20487 -3.37206,1.08311 -3.37206,2.93645 0,0.90875 -0.58179,1.26129 -1.5,0.90894 -1.04866,-0.40241 -1.5,0.0758 -1.5,1.58917 0,1.99053 0.2786,1.89475 3.46109,-1.18983 1.9036,-1.84504 3.21353,-3.75517 2.91097,-4.24473 z m 72.14252,6.18343 c 0.41695,-0.67464 -0.84134,-0.79765 -3.69099,-0.36084 -5.71427,0.87591 -6.09967,1.38442 -1.04927,1.38442 2.2592,0 4.39232,-0.46061 4.74026,-1.02358 z m -42.38702,-1.72642 c 1.24387,-1.58605 1.2085,-1.62142 -0.37756,-0.37755 -1.66575,1.30637 -2.19548,2.12755 -1.37244,2.12755 0.20765,0 0.99515,-0.7875 1.75,-1.75 z m 112.28974,-6.383803 c -0.78048,-1.262849 -4.37837,6.211723 -3.62624,7.533453 0.28158,0.49481 1.3617,-0.75666 2.40027,-2.78105 1.03857,-2.02439 1.59026,-4.162972 1.22597,-4.752403 z m -150.4173,1.178023 c 0,-4.154161 -0.77743,-5.473821 -2.42109,-4.109702 -0.62354,0.517487 -0.94532,2.926351 -0.73842,5.527792 0.30318,3.81203 0.60857,4.4099 1.7631,3.45172 0.76803,-0.63741 1.39641,-2.82882 1.39641,-4.86981 z m 37.72223,-2.545382 c 2.07777,-3.553288 4.14183,-6.469144 4.58679,-6.47968 0.44496,-0.01053 0.53662,0.543345 0.20369,1.230845 -0.33294,0.6875 0.14539,0.2375 1.06295,-1 0.91756,-1.2375 2.6833,-2.25 3.92387,-2.25 1.24057,0 2.87318,-0.759254 3.62803,-1.687231 1.17823,-1.448476 1.16018,-1.610594 -0.12756,-1.145656 -0.825,0.297866 -3.83475,1.309069 -6.68834,2.247117 -4.64694,1.527571 -5.52299,2.2993 -8.39538,7.395656 -1.76387,3.129563 -3.91229,6.769651 -4.77428,8.089091 -1.52345,2.33194 -1.5062,2.3663 0.6176,1.22968 1.20167,-0.64311 3.88485,-4.07653 5.96263,-7.629822 z m 80.31028,4.948562 c 1.20759,-1.95393 1.97063,-3.777595 1.69563,-4.052595 -0.49399,-0.493986 -4.72814,5.750695 -4.72814,6.973235 0,1.37403 0.93451,0.474 3.03251,-2.92064 z m -42.03251,-0.0544 c 0,-0.21615 -0.675,-0.39301 -1.5,-0.39301 -0.825,0 -1.5,0.43588 -1.5,0.96862 0,0.53274 0.675,0.70959 1.5,0.39301 0.825,-0.31658 1.5,-0.75246 1.5,-0.96862 z m 3.52646,-0.19988 c -0.30789,-0.30789 -1.11479,-6.3e-4 -1.79313,0.68278 -0.98026,0.98762 -0.8654,1.10248 0.5598,0.5598 0.98622,-0.37553 1.54122,-0.93469 1.23333,-1.24258 z m 35.48392,-1.2077 c 1.18061,-1.658022 1.9811,-3.510983 1.77886,-4.117695 -0.20223,-0.606712 -1.59393,0.749848 -3.09266,3.014575 -3.11338,4.70464 -1.94766,5.68341 1.3138,1.10312 z m 26.11371,-0.25209 c -0.98762,-0.98027 -1.10248,-0.86541 -0.5598,0.55979 0.37553,0.98622 0.93469,1.54122 1.24258,1.23333 0.30789,-0.30788 6.4e-4,-1.11479 -0.68278,-1.79312 z m 7.83399,-4.983337 c 0.0231,-0.4125 -0.32473,-0.75 -0.77287,-0.75 -1.14002,0 -4.19696,6.654917 -3.41577,7.436107 0.59263,0.59263 4.09423,-4.996788 4.18864,-6.686107 z M 126.21455,48.271552 c -0.8313,-1.427934 -1.03724,-0.979531 -1.06175,2.311781 -0.0167,2.245834 0.30709,4.426344 0.71959,4.845564 1.18373,1.20305 1.48921,-5.187034 0.34216,-7.157345 z m 110.66703,4.216069 C 238.54561,49.918789 238.77349,49 237.74659,49 c -1.43248,0 -4.6242,4.117037 -4.6242,5.964817 0,1.98483 1.51588,0.98591 3.75919,-2.477196 z M 135.62239,53.999997 C 135.96231,53.45 135.76387,53 135.18141,53 c -0.58246,0 -1.05902,0.45 -1.05902,0.999997 0,0.55 0.19844,1 0.44098,1 0.24254,0 0.7191,-0.45 1.05902,-1 z m 33.51099,-4.013873 C 171.26612,47.293323 171.82063,46 170.84242,46 c -0.79642,0 -2.63423,1.711688 -4.08403,3.803751 -4.66908,6.737476 -2.92295,6.871566 2.37499,0.182373 z m 65.73515,-3.143021 c -0.60718,-0.375253 -2.36932,0.924392 -3.94971,2.913052 -2.05885,2.59073 -2.51457,3.800012 -1.63653,4.342672 0.76803,0.47466 2.22496,-0.59988 3.94971,-2.913053 1.78782,-2.39777 2.35371,-3.899424 1.63653,-4.342671 z m -103.5921,0.625835 c -0.33049,-4.155428 -0.5398,-4.511752 -1.86927,-3.182282 -1.11085,1.110851 -1.31614,2.568194 -0.7957,5.648632 0.98462,5.827919 3.16421,3.810779 2.66497,-2.46635 z M 231.55402,45.0983 c -0.61273,-0.612733 -3.84878,3.147759 -5.50891,6.4017 -0.56121,1.1 0.5766,0.237512 2.52848,-1.91664 1.95187,-2.154153 3.29306,-4.172429 2.98043,-4.48506 z m 38.11085,4.452684 1.85741,-3.449017 -4.50456,-5.800983 C 264.54022,37.110443 261.89571,34.5 261.14105,34.5 c -1.74179,0 -4.37739,6.160262 -2.99985,7.011628 0.54172,0.334796 1.42295,-0.543358 1.95831,-1.951454 C 260.63487,38.152078 261.51106,37 262.04661,37 c 0.54143,0 0.33441,1.530104 -0.46631,3.446503 -1.02373,2.450114 -1.1212,3.643559 -0.33717,4.128116 1.166,0.720631 2.83817,-1.220508 2.86395,-3.324619 0.008,-0.6875 0.51345,-1.25 1.1223,-1.25 0.64552,0 0.82476,0.729519 0.42997,1.75 -0.37236,0.9625 -0.903,3.1 -1.1792,4.75 l -0.50218,3 1.80383,-2.75 c 1.71488,-2.614408 3.37745,-3.619349 3.30879,-2 -0.0175,0.4125 -0.6925,1.623508 -1.5,2.69113 C 265.99622,49.549077 265.6078,53 266.96492,53 c 0.46339,0 1.67837,-1.552057 2.69995,-3.449016 z M 139.12239,51 c 0,-0.55 -0.19844,-1 -0.44098,-1 -0.24254,0 -0.7191,0.45 -1.05902,1 -0.33992,0.55 -0.14148,1 0.44098,1 0.58246,0 1.05902,-0.45 1.05902,-1 z m 33.48872,-1.623124 c 0.9453,-1.442718 1.22448,-2.317655 0.62038,-1.944306 C 172.0771,48.146025 169.74882,52 170.4722,52 c 0.23109,0 1.1936,-1.180406 2.13891,-2.623124 z m 53.77466,-1.556721 c 1.49065,-2.298914 2.454,-4.436104 2.1408,-4.749311 -0.81831,-0.818305 -6.40418,5.675339 -6.40418,7.444933 0,2.556642 1.45375,1.637475 4.26338,-2.695622 z m -91.26338,-2.938189 c 0,-3.078689 -0.38426,-4.762513 -1,-4.381966 -0.55,0.339919 -1,2.868034 -1,5.618034 0,3.078689 0.38426,4.762513 1,4.381966 0.55,-0.339919 1,-2.868034 1,-5.618034 z m 48.61089,-1.604411 c -0.84857,-0.848565 -2.89449,1.176409 -4.94621,4.895561 L 176.95175,51.5 l 3.67204,-3.829945 c 2.01962,-2.106469 3.41889,-4.083095 3.10949,-4.3925 z M 184.26025,48.5 c 0.0177,-0.55 0.49905,-1.5625 1.06962,-2.25 1.92649,-2.321271 0.1605,-1.270815 -2.28317,1.358088 -2.02188,2.175155 -2.12505,2.548646 -0.62149,2.25 C 183.41676,49.661139 184.24253,49.05 184.26025,48.5 z m 35.86677,0.75 c 0.003,-0.4125 1.40056,-2.239478 3.10671,-4.059951 3.92378,-4.1867 2.91346,-5.539406 -1.20783,-1.617147 C 217.89767,47.501776 216.56104,50 218.58721,50 c 0.84435,0 1.53726,-0.3375 1.53981,-0.75 z m -81.00463,-6.309017 c 0,-2.717541 -0.45,-4.940983 -1,-4.940983 -0.55,0 -1,2.501558 -1,5.559017 0,3.451367 0.37914,5.324695 1,4.940983 0.55,-0.339919 1,-2.841476 1,-5.559017 z m 4.4,4.225684 c -0.055,-0.641667 -0.1675,-3.738096 -0.25,-6.880953 -0.12612,-4.804748 -0.35938,-5.481217 -1.46548,-4.25 -1.67572,1.865286 -1.08165,13.26333 0.66101,12.682441 0.63496,-0.211652 1.10947,-0.909822 1.05447,-1.551488 z m 35.11467,-2.985329 c -0.63764,-0.637644 -3.4517,2.885362 -3.4496,4.318662 8.1e-4,0.55 0.89775,-0.07625 1.9932,-1.391663 1.09546,-1.315414 1.75084,-2.632564 1.4564,-2.926999 z M 219.01501,44.5 c 2.91633,-4.060924 3.03864,-4.5 1.25355,-4.5 -1.10414,0 -3.34071,1.72042 -5.06214,3.893904 C 211.61986,48.422306 211.47803,49 213.95287,49 c 1.02403,0 3.25425,-1.98256 5.06214,-4.5 z m 41.29071,2.283333 c -0.71756,-0.717562 -1.18333,-0.776604 -1.18333,-0.15 0,1.334781 1.18261,2.517391 1.85,1.85 0.28417,-0.284166 -0.0158,-1.049166 -0.66667,-1.7 z M 192.3587,44.75 c 2.55739,-2.7352 2.76521,-3.303936 1.31199,-3.590505 -2.02434,-0.399193 -6.21497,3.213761 -6.21497,5.358244 0,2.333762 1.61127,1.752827 4.90298,-1.767739 z m 16.04491,0.108234 c 0.97968,-1.721016 1.54494,-3.365412 1.25613,-3.654213 -0.91824,-0.918246 -4.53735,3.030769 -4.53735,4.950967 0,2.735798 1.27185,2.233155 3.28122,-1.296754 z m 4.63278,-0.827026 c 1.46832,-1.907488 1.97486,-3.156846 1.172,-2.890668 -0.7777,0.257835 -2.5777,1.980549 -4,3.828252 -1.46832,1.907488 -1.97486,3.156846 -1.172,2.890668 0.7777,-0.257835 2.5777,-1.980549 4,-3.828252 z m -14.57307,-0.03121 c 1.49406,-2.529244 1.53858,-3 0.2837,-3 -0.81864,0 -2.44973,1.35 -3.62463,3 -2.00679,2.818272 -2.02397,3 -0.2837,3 1.01887,0 2.64995,-1.35 3.62463,-3 z m 5.04406,0.535183 c 1.90164,-2.902263 1.99568,-3.535183 0.5253,-3.535183 -1.14276,0 -4.81972,3.958159 -4.87702,5.25 -0.0764,1.722202 2.85712,0.566238 4.35172,-1.714817 z m -55.82222,-6.304187 c 0.61978,-5.551651 0.51319,-6.197374 -0.93145,-5.643011 -1.28017,0.491247 -1.63132,2.045167 -1.63132,7.219006 0,8.173615 1.58301,7.200129 2.56277,-1.575995 z m 110.43723,6.828023 c 0,-0.517541 -0.45,-1.219098 -1,-1.559017 -0.55,-0.339919 -1,0.08352 -1,0.940983 0,0.857459 0.45,1.559017 1,1.559017 0.55,0 1,-0.423442 1,-0.940983 z m -4.62158,-4.344879 c -1.03313,-0.555003 -2.06609,-1.167905 -2.29547,-1.362004 -0.22938,-0.194099 1.05997,-2.190876 2.86524,-4.437282 2.4143,-3.004278 2.98737,-4.379294 2.16705,-5.199613 -1.35772,-1.357719 -2.20392,-0.555159 -4.99602,4.738343 l -2.08534,3.953582 2.12842,2.265598 c 1.17063,1.246078 2.5708,1.992194 3.11148,1.658035 0.54068,-0.334159 0.13777,-1.061656 -0.89536,-1.616659 z M 151.2906,41.490551 C 152.74338,40.934819 152.61419,30 151.15484,30 c -0.91674,0 -2.03245,5.009155 -2.03245,9.125 0,3.056094 0.0942,3.158909 2.16821,2.365551 z m 31.95935,-2.163966 c 1.23227,-1.502508 1.11711,-1.606033 -1.12756,-1.013655 -1.375,0.362869 -3.0625,0.665905 -3.75,0.673415 -0.6875,0.0075 -1.25,0.463655 -1.25,1.013655 0,1.642349 4.64716,1.131629 6.12756,-0.673415 z M 154.84579,30.75 c -0.22183,-1.7875 -0.40333,-0.325 -0.40333,3.25 0,3.575 0.1815,5.0375 0.40333,3.25 0.22182,-1.7875 0.22182,-4.7125 0,-6.5 z m 33.78668,8.233688 c 0.34546,-0.558971 1.04702,-0.757414 1.55902,-0.440983 0.51199,0.316431 0.9309,0.09877 0.9309,-0.483688 0,-1.637902 -4.71262,-1.250298 -5.36163,0.440983 -0.64878,1.690713 1.86414,2.11397 2.87171,0.483688 z m 69.05681,-3.489547 c 1.51591,-3.628074 1.51432,-3.806425 -0.0226,-2.530879 -2.31047,1.917519 -3.758,4.881892 -2.99038,6.123936 0.83427,1.34988 1.06037,1.080256 3.013,-3.593057 z m -59.00802,1.931639 c 1.8735,-1.519371 1.85402,-1.554689 -0.55887,-1.013655 -1.375,0.308311 -3.0625,0.56671 -3.75,0.57422 -0.6875,0.0075 -1.25,0.463655 -1.25,1.013655 0,1.536423 3.38781,1.186469 5.55887,-0.57422 z M 203.48402,37.5 c 0.31658,-0.825 0.19482,-1.5 -0.27057,-1.5 -0.46539,0 -1.40637,0.675 -2.09106,1.5 -1.01343,1.221107 -0.96312,1.5 0.27057,1.5 0.8335,0 1.77447,-0.675 2.09106,-1.5 z m 4.13837,0.5 c 0.33992,-0.55 0.16803,-1 -0.38197,-1 -0.55,0 -1.27811,0.45 -1.61803,1 -0.33992,0.55 -0.16803,1 0.38197,1 0.55,0 1.27811,-0.45 1.61803,-1 z m -47.5,-8.313574 c 0,-4.270009 -0.20116,-4.764371 -1.5,-3.686426 -1.01654,0.843654 -1.48975,3.058684 -1.4682,6.872445 0.0292,5.165863 0.15226,5.468302 1.5,3.686425 0.83002,-1.097385 1.4682,-4.084607 1.4682,-6.872444 z m 90.41451,2.687621 c 1.42202,-2.544274 2.58549,-4.782718 2.58549,-4.97432 0,-0.531428 -6.14548,-3.593206 -6.47001,-3.223463 -0.57417,0.654163 -4.52999,8.761335 -4.52999,9.283898 0,0.296911 0.60666,0.539838 1.34813,0.539838 0.74146,0 2.15981,-1.8 3.15187,-4 0.99206,-2.2 2.17427,-4 2.62712,-4 0.82846,0 -0.23329,3.461344 -2.17421,7.087983 C 246.17661,34.767212 246.47375,37 247.59591,37 c 0.19552,0 1.51896,-2.081679 2.94099,-4.625953 z m -86.91451,2.86064 c 0.55,-0.404078 1.08577,-3.297806 1.1906,-6.430507 0.23687,-7.078626 -2.09586,-7.159924 -3.06261,-0.106735 -1.02183,7.455046 -0.73597,8.45329 1.87201,6.537242 z m 4.5,-3.293704 c 0,-0.517541 -0.45,-0.940983 -1,-0.940983 -0.55,0 -1,0.701558 -1,1.559017 0,0.857459 0.45,1.280902 1,0.940983 0.55,-0.339919 1,-1.041476 1,-1.559017 z m 4,-1.5 c 0,-0.857459 -0.45,-1.280902 -1,-0.940983 -0.55,0.339919 -1,1.041476 -1,1.559017 0,0.517541 0.45,0.940983 1,0.940983 0.55,0 1,-0.701558 1,-1.559017 z m 70.78038,-2.925831 2.1789,-4.484847 -2.90238,-1.500881 -2.90238,-1.500881 -1.72163,4.508023 c -2.17436,5.693475 -1.35366,6.831732 1.06251,1.473629 C 239.61238,23.804588 240.78579,22 241.22537,22 c 0.43958,0 -0.0481,1.892585 -1.08373,4.205744 C 238.35989,30.185413 238.30994,32 239.98214,32 c 0.40795,0 1.72223,-2.018181 2.92063,-4.484848 z M 177.12239,29 c 0,-0.55 -0.42344,-1 -0.94098,-1 -0.51754,0 -1.2191,0.45 -1.55902,1 -0.33992,0.55 0.0835,1 0.94098,1 0.85746,0 1.55902,-0.45 1.55902,-1 z m -8.18664,-3.827012 c 0.20877,-2.113986 -0.12498,-3.171491 -1,-3.168504 -0.80295,0.0027 -1.38454,1.386662 -1.49653,3.561055 -0.23227,4.510172 2.04775,4.151664 2.49653,-0.392551 z m 66.46993,0.07701 c 1.94837,-4.869445 2.06314,-5.634523 0.90326,-6.021151 -0.5299,-0.176633 -1.91365,1.641693 -3.075,4.040725 -2.48927,5.14214 -2.5632,5.730426 -0.72013,5.730426 0.76528,0 2.06662,-1.6875 2.89187,-3.75 z m -62.53156,-1.17002 c 0.81185,-3.198422 0.7422,-3.82301 -0.37836,-3.393012 -0.75535,0.289857 -1.37337,1.342062 -1.37337,2.338235 0,0.996173 -0.27314,2.523028 -0.60699,3.393012 C 170.18156,27.288196 170.35182,28 170.89376,28 c 0.54195,0 1.43311,-1.76401 1.98036,-3.920022 z m 13.5173,3.264085 c -0.67703,-0.273923 -2.02703,-0.290597 -3,-0.03705 -0.97297,0.253544 -0.41903,0.477663 1.23097,0.498042 1.65,0.02038 2.44606,-0.187065 1.76903,-0.460988 z m 43.65681,-8.26073 c 0.0408,-0.779166 -0.23424,-1.108264 -0.61118,-0.731328 -0.85745,0.857448 -3.30514,7.799594 -3.22544,9.147995 0.0814,1.377951 3.74455,-6.658073 3.83662,-8.416667 z m -52.83687,3.584538 c 0.68394,-4.207699 -0.66555,-4.911756 -2.11372,-1.102771 -1.33646,3.515167 -1.22307,5.684172 0.27114,5.186105 0.68551,-0.228505 1.51467,-2.066005 1.84258,-4.083334 z m 16.66103,3.642803 c -0.9625,-0.251527 -2.5375,-0.251527 -3.5,0 -0.9625,0.251528 -0.175,0.457323 1.75,0.457323 1.925,0 2.7125,-0.205795 1.75,-0.457323 z M 202.62239,26 c 0.33992,-0.55 -0.0835,-1 -0.94098,-1 -0.85746,0 -1.55902,0.45 -1.55902,1 0,0.55 0.42344,1 0.94098,1 0.51754,0 1.2191,-0.45 1.55902,-1 z m 8.5,0.16203 c 0,-0.460884 -1.59352,-0.897877 -3.54115,-0.971096 -2.06554,-0.07765 -3.29106,0.271534 -2.94099,0.83797 0.7331,1.186168 6.48214,1.304238 6.48214,0.133126 z M 227.09617,18.25 c 0.0144,-0.6875 -0.54647,-1.25 -1.24642,-1.25 -1.3123,0 -3.81306,8.580447 -2.79718,9.597503 0.62564,0.626372 4.00154,-6.342737 4.0436,-8.347503 z m 3.99559,5.25 c 0,-0.55 -0.43621,-0.325 -0.96937,0.5 -0.53316,0.825 -0.96937,1.95 -0.96937,2.5 0,0.55 0.43621,0.325 0.96937,-0.5 0.53316,-0.825 0.96937,-1.95 0.96937,-2.5 z m -51.28004,-3.25 c -0.25153,-0.9625 -0.45733,-0.175 -0.45733,1.75 0,1.925 0.2058,2.7125 0.45733,1.75 0.25152,-0.9625 0.25152,-2.5375 0,-3.5 z m 4.21099,-1 c 0.0548,-0.6875 -0.35032,-1.25 -0.90032,-1.25 -0.55,0 -0.95514,1.6875 -0.90032,3.75 0.089,3.346722 0.18578,3.481148 0.90032,1.25 0.44035,-1.375 0.8455,-3.0625 0.90032,-3.75 z m 3.64542,2.449341 c 0.0539,-3.094089 1.4003,-4.905533 1.57274,-2.116008 0.0652,1.054167 0.0454,2.479167 -0.0438,3.166667 -0.0893,0.6875 0.5324,1.25 1.38151,1.25 1.0418,0 1.54381,-0.956328 1.54381,-2.940983 0,-1.617541 0.5064,-3.253957 1.12534,-3.636481 0.7809,-0.48262 0.9954,0.417553 0.7008,2.940983 -0.56568,4.845492 1.71887,4.875318 2.62705,0.0343 0.37168,-1.981201 0.4318,-3.846162 0.1336,-4.144358 -0.29819,-0.298196 -2.91471,-0.139713 -5.81448,0.352184 -5.21678,0.884939 -5.27564,0.934963 -5.58897,4.749911 -0.23352,2.843325 0.029,3.739037 1,3.411747 0.72416,-0.244093 1.33724,-1.624674 1.3624,-3.067959 z m 29.02899,-1.245969 c 0.82374,-4.390962 -0.15855,-5.67822 -1.54675,-2.026961 C 213.86397,21.809904 213.83517,24 215.07708,24 c 0.52507,0 1.25409,-1.595983 1.62004,-3.546628 z M 221.92079,20.75 c 0.65479,-2.487238 0.52578,-3.329421 -0.54967,-3.588397 -1.8444,-0.444144 -2.1102,-0.104275 -2.86331,3.661314 -0.89905,4.49524 2.22797,4.428433 3.41298,-0.07292 z m -22.03503,-0.934057 c 1.11128,-2.944103 0.95488,-4.867522 -0.29423,-3.618421 C 198.63536,17.153694 197.2443,23 197.97296,23 c 0.39102,0 1.25179,-1.432826 1.9128,-3.184057 z M 203.42511,22.25 c 0.23142,-0.4125 0.72761,-2.031542 1.10264,-3.597872 0.93133,-3.889728 -1.18569,-3.079851 -2.95618,1.130903 C 200.42361,22.51323 200.42967,23 201.61165,23 c 0.76599,0 1.58205,-0.3375 1.81346,-0.75 z m 5.21299,-2.321506 c 0.71477,-3.254328 0.0205,-4.917494 -1.40327,-3.361827 -0.46982,0.513333 -1.1459,2.170833 -1.50238,3.683333 -0.47768,2.026654 -0.2695,2.75 0.79143,2.75 0.79391,0 1.74218,-1.377633 2.11422,-3.071506 z m 3.48429,2.814904 c 0,-0.141131 0.41859,-1.716131 0.93019,-3.5 1.32456,-4.61845 -1.24854,-4.371051 -2.66881,0.256602 -0.87472,2.850104 -0.81303,3.5 0.33222,3.5 0.77352,0 1.4064,-0.115471 1.4064,-0.256602 z M 232.62239,21 c 0.33992,-0.55 0.14148,-1 -0.44098,-1 -0.58246,0 -1.05902,0.45 -1.05902,1 0,0.55 0.19844,1 0.44098,1 0.24254,0 0.7191,-0.45 1.05902,-1 z M 60.122388,150.03518 c 0,-0.53065 1.0125,-1.49612 2.25,-2.14551 2.23794,-1.17436 2.23979,-1.16919 0.34501,0.96482 -2.11633,2.38354 -2.59501,2.60133 -2.59501,1.18069 z"
     id="path25323"
     inkscape:connector-curvature="0" />
</svg>
