<?xml version="1.0" encoding="UTF-8" standalone="no"?>
<!-- Created with Inkscape (http://www.inkscape.org/) -->

<svg
   xmlns:dc="http://purl.org/dc/elements/1.1/"
   xmlns:cc="http://creativecommons.org/ns#"
   xmlns:rdf="http://www.w3.org/1999/02/22-rdf-syntax-ns#"
   xmlns:svg="http://www.w3.org/2000/svg"
   xmlns="http://www.w3.org/2000/svg"
   xmlns:xlink="http://www.w3.org/1999/xlink"
   xmlns:sodipodi="http://sodipodi.sourceforge.net/DTD/sodipodi-0.dtd"
   xmlns:inkscape="http://www.inkscape.org/namespaces/inkscape"
   id="svg29992"
   version="1.1"
   inkscape:version="0.48.4 r9939"
   width="380"
   height="500"
   sodipodi:docname="Beer.svg">
  <metadata
     id="metadata29998">
    <rdf:RDF>
      <cc:Work
         rdf:about="">
        <dc:format>image/svg+xml</dc:format>
        <dc:type
           rdf:resource="http://purl.org/dc/dcmitype/StillImage" />
        <dc:title />
      </cc:Work>
    </rdf:RDF>
  </metadata>
  <defs
     id="defs29996">
    <linearGradient
       id="linearGradient30591">
      <stop
         style="stop-color:#000000;stop-opacity:1;"
         offset="0"
         id="stop30593" />
      <stop
         style="stop-color:#000000;stop-opacity:0;"
         offset="1"
         id="stop30595" />
    </linearGradient>
    <linearGradient
       inkscape:collect="always"
       xlink:href="#linearGradient30591"
       id="linearGradient30597"
       x1="19.276518"
       y1="167.18462"
       x2="43.732388"
       y2="167.18462"
       gradientUnits="userSpaceOnUse"
       gradientTransform="matrix(1.8105186,0,0,1.8105186,-13.191872,-24.0318)" />
    <linearGradient
       inkscape:collect="always"
       xlink:href="#linearGradient30591"
       id="linearGradient30607"
       x1="135.67612"
       y1="166.26479"
       x2="143.77151"
       y2="166.35117"
       gradientUnits="userSpaceOnUse"
       gradientTransform="matrix(-1.8103427,0.02523724,-0.02523724,-1.8103427,515.57465,574.33366)" />
    <filter
       inkscape:collect="always"
       id="filter30631"
       x="-0.80377728"
       width="2.6075544"
       y="-0.28188539"
       height="1.5637708"
       color-interpolation-filters="sRGB">
      <feGaussianBlur
         inkscape:collect="always"
         stdDeviation="18.733516"
         id="feGaussianBlur30633" />
    </filter>
    <filter
       inkscape:collect="always"
       id="filter30667"
       x="-0.26798597"
       width="1.5359719"
       y="-0.3763147"
       height="1.7526294"
       color-interpolation-filters="sRGB">
      <feGaussianBlur
         inkscape:collect="always"
         stdDeviation="14.52537"
         id="feGaussianBlur30669" />
    </filter>
    <filter
       inkscape:collect="always"
       id="filter30675"
       x="-0.38462508"
       width="1.7692502"
       y="-0.072313704"
       height="1.1446275"
       color-interpolation-filters="sRGB">
      <feGaussianBlur
         inkscape:collect="always"
         stdDeviation="7.1923668"
         id="feGaussianBlur30677" />
    </filter>
  </defs>
  <sodipodi:namedview
     pagecolor="#ffffff"
     bordercolor="#666666"
     borderopacity="1"
     objecttolerance="10"
     gridtolerance="10"
     guidetolerance="10"
     inkscape:pageopacity="0"
     inkscape:pageshadow="2"
     inkscape:window-width="1062"
     inkscape:window-height="756"
     id="namedview29994"
     showgrid="false"
     inkscape:zoom="0.54357395"
     inkscape:cx="157.55557"
     inkscape:cy="218.87175"
     inkscape:window-x="2"
     inkscape:window-y="22"
     inkscape:window-maximized="0"
     inkscape:current-layer="svg29992" />
  <path
     style="fill:#ffe30e;fill-opacity:0.99494952;stroke:none"
     d="m 22.613883,141.26487 c -4.091352,26.67729 -0.544116,56.93536 0.110749,89.48112 1.190378,59.15936 -2.11118,125.68779 3.636356,179.47839 l 116.993232,24.14807 c 42.03271,-4.11587 84.19261,-7.5958 124.07111,-22.48268 l -4.16345,-277.28643 c -41.35705,4.68307 -82.71408,15.67989 -124.07112,12.49039 -38.85897,2.63814 -77.717919,-2.07105 -116.576877,-5.82886 z"
     id="path30517"
     inkscape:connector-curvature="0"
     sodipodi:nodetypes="cscccccc" />
  <path
     style="fill:#0effcd;fill-opacity:0.12121211;stroke:none"
     d="M 155.24294,51.500771 C 117.15032,51.359551 74.100496,55.332553 21.773769,66.324392 16.996805,201.22049 25.070034,333.75948 26.752695,468.65558 58.89266,487.87296 92.174574,489.98296 145.0022,489.3068 c 71.28157,3.92046 107.65513,-6.07916 124.07711,-24.10253 l -2.48946,-89.11146 c 5.78936,-11.75638 15.411,-13.97193 24.1591,-18.3315 12.88869,-6.46237 46.77575,-2.40524 74.11811,-1.64078 l -10.01443,-20.02886 c -6.09647,-23.31537 -1.21555,-46.61592 -1.64078,-69.93129 22.52933,-86.22491 15.25113,-81.14443 15.78545,-99.91799 -10.53245,-18.05663 -28.94867,-28.17898 -28.28935,-57.42739 l -27.49725,-5.8276 c -6.42888,16.33136 -12.87728,32.59639 -49.959,18.27492 L 259.12146,61.345466 C 226.50147,55.915015 193.33557,51.642082 155.24294,51.500771 z m 163.62563,95.221969 c 39.49981,38.2768 21.03729,69.59814 25.34726,103.65219 -5.84062,36.40165 -18.52635,52.34359 -31.79723,66.53655 -16.05179,7.64783 -31.461,10.15508 -45.94383,5.25127 -0.8189,-48.86528 -5.96747,-98.93119 0.62428,-147.77302 10.71932,-20.98928 25.43716,-34.78119 51.76952,-27.66699 z"
     id="path30004"
     inkscape:connector-curvature="0"
     sodipodi:nodetypes="sccccccccccccccscccccc" />
  <path
     style="fill:url(#linearGradient30597);fill-opacity:1;stroke:none"
     d="m 22.613883,137.93412 44.965366,6.66153 c 0.483646,156.36413 3.430127,204.54851 -4.163459,274.78834 L 26.777342,411.05708 C 25.389522,320.01609 19.659608,155.15952 22.613883,137.93412 z"
     id="path30589"
     inkscape:connector-curvature="0"
     sodipodi:nodetypes="ccccc" />
  <path
     style="fill:url(#linearGradient30607);fill-opacity:1;fill-rule:nonzero;stroke:none"
     d="M 203.25903,423.50658 C 188.7219,330.28323 184.22148,234.85324 200.59661,143.17551 l 63.14209,-11.28831 2.29278,283.9436 z"
     id="path30599"
     inkscape:connector-curvature="0"
     sodipodi:nodetypes="ccccc" />
  <path
     style="fill:#ffffff;fill-opacity:0.80303034;stroke:none;filter:url(#filter30631)"
     d="M 50.203796,236.22638 50.85422,84.677651 c 16.905227,0.74198 33.920997,1.05515 51.70869,-1.62606 l 3.57733,156.426909 c -20.379947,4.98658 -39.025427,3.90254 -55.936444,-3.25212 z"
     id="path30609"
     inkscape:connector-curvature="0"
     sodipodi:nodetypes="ccccc"
     transform="matrix(1.8105186,0,0,1.8105186,0.13119855,-5.4120502)" />
  <path
     style="fill:#955e14;fill-opacity:0.47474748;stroke:none;filter:url(#filter30667)"
     d="m 15.406127,149.72003 c 68.160481,-37.08724 107.011753,103.11824 130.084753,0 l -1.30085,82.60381 c -35.28462,11.60611 -74.95295,15.75994 -127.483056,-1.95127 z"
     id="path30661"
     inkscape:connector-curvature="0"
     sodipodi:nodetypes="ccccc"
     transform="matrix(1.8105186,0,0,1.8105186,0.13119855,-5.4120502)" />
  <path
     style="fill:#bffff3;fill-opacity:0.34117647;stroke:none"
     d="m 26.846674,411.68178 123.648456,23.55207 116.58283,-23.55207 -1.17761,56.525 -20.01927,12.95365 -129.53648,9.42083 -91.853135,-23.55209 z"
     id="path30671"
     inkscape:connector-curvature="0" />
  <path
     style="fill:#000000"
     d="M 132.01019,492.97544 C 77.122576,490.09313 50.863071,484.97812 31.361403,473.37038 l -6.501808,-3.87 -1.583189,-38.46439 c -0.870751,-21.15543 -1.656625,-78.7937 -1.746409,-128.08507 -0.0994,-54.58706 -1.043439,-99.96407 -2.414943,-116.0805 -1.55357,-18.25592 -1.743367,-32.57041 -0.612118,-46.1682 0.901783,-10.83963 1.250145,-31.15624 0.774142,-45.148037 -0.804993,-23.661667 -0.58306,-26.002596 3.175342,-33.494594 6.526667,-13.010278 12.096256,-17.808677 22.231393,-19.15315 8.973718,-1.190398 15.604132,-5.360312 24.814025,-15.605711 2.473436,-2.751536 6.381656,-4.980194 8.733368,-4.980194 2.341091,0 10.103308,-1.962222 17.249378,-4.360507 21.017646,-7.053708 39.439816,-10.2370337 51.779096,-8.9473108 16.67152,1.7425158 13.16512,4.1115968 -5.74427,3.8810988 -16.59827,-0.202342 -21.0407,0.637339 -49.885456,9.428856 -7.272345,2.216509 -13.744335,3.508151 -14.382199,2.870287 -0.637863,-0.637864 -5.735103,3.367854 -11.327198,8.901596 -8.726482,8.635431 -11.489026,10.270257 -19.49253,11.535448 -10.437544,1.649961 -13.893625,3.889392 -17.870284,11.579407 -3.368398,6.513775 -2.612072,7.413494 4.075459,4.848044 6.212125,-2.383059 33.732024,-7.012284 47.777203,-8.036766 5.476819,-0.399473 17.697819,-1.570824 27.157775,-2.602982 22.43936,-2.448292 85.87615,-2.46895 101.1803,-0.03295 6.58743,1.048544 17.68026,2.747426 24.65076,3.775294 19.4001,2.860764 29.87355,5.375375 29.87355,7.172496 0,2.132085 -0.39472,2.103714 -16.29466,-1.171007 -7.46839,-1.538163 -19.68939,-3.668383 -27.15778,-4.733819 -20.36491,-2.905212 -84.85945,-3.71589 -109.53639,-1.376845 -11.949416,1.132661 -26.614621,2.399499 -32.589332,2.815194 -14.342168,0.997903 -40.004394,5.83273 -48.053851,9.053498 l -6.424988,2.570755 0.08166,34.133089 0.08165,34.13311 16.743837,1.23286 c 22.501765,3.94624 36.147481,4.61999 55.676899,6.20285 26.585335,2.13553 64.916285,0.76672 95.052235,-3.39434 6.4726,-0.89373 19.10097,-2.50502 28.06304,-3.58068 24.06825,-2.88874 39.55199,-5.7057 41.99438,-7.64012 2.22116,-1.75915 1.97929,-27.87865 -0.47646,-51.455353 -0.74586,-7.160637 -0.46613,-11.519298 0.78906,-12.295032 2.85812,-1.766433 3.88773,4.5876 4.494,27.734067 0.52174,19.919128 0.71295,20.788648 5.47141,24.881708 6.6236,5.69737 12.72658,6.97585 21.19231,4.43946 10.72052,-3.21195 16.20836,-8.85738 17.42458,-17.92495 0.84135,-6.272758 1.61259,-7.547037 3.9617,-6.545676 1.60434,0.683866 8.21275,2.533226 14.68536,4.109656 6.4726,1.57644 12.36694,3.70853 13.09854,4.73799 0.73159,1.02946 1.34264,4.95946 1.35789,8.73332 0.0369,9.15245 5.4802,19.33194 15.40432,28.80796 17.68144,16.88309 17.96163,35.59675 1.59391,106.45618 -4.06311,17.59005 -4.83988,25.32651 -5.00577,49.85605 l -0.19637,29.0351 5.7778,11.65708 c 3.17778,6.41141 5.39889,12.03599 4.93581,12.49908 -2.01199,2.01198 -7.06268,-5.99133 -10.97444,-17.38999 -3.8899,-11.33497 -4.17188,-14.59876 -3.49008,-40.39436 0.52248,-19.76784 1.87983,-33.10394 4.59193,-45.11666 2.11762,-9.3795 4.2922,-17.76879 4.83242,-18.64287 1.57142,-2.54262 6.12659,-30.13121 7.28185,-44.10289 0.59179,-7.15704 0.15389,-17.03144 -0.9922,-22.37567 -1.72352,-8.03646 -3.53022,-10.89503 -11.30263,-17.88311 -10.26507,-9.22916 -16.17273,-20.69405 -16.6401,-32.29312 -0.29463,-7.31165 -0.49386,-7.53791 -7.5509,-8.57543 -3.98656,-0.5861 -9.02405,-1.56407 -11.19443,-2.17326 -3.25298,-0.91302 -4.59474,0.16367 -7.63844,6.12986 -7.04208,13.80365 -24.96831,20.14493 -37.89737,13.40593 l -7.07748,-3.68899 -1.22071,13.47109 c -0.67139,7.4091 -0.72949,14.26589 -0.12909,15.23735 2.19956,3.55895 6.30948,1.76111 6.30948,-2.76003 0,-2.48946 0.81473,-4.5263 1.81052,-4.5263 0.99578,0 1.81052,1.15421 1.81052,2.56491 0,1.4107 1.01841,2.97584 2.26314,3.4781 1.81052,0.73056 1.81052,0.94179 0,1.05615 -1.24473,0.0786 -2.26314,1.4749 -2.26314,3.10286 0,4.01211 5.68166,-3.45195 9.14397,-12.01252 l 2.56291,-6.33681 1.17441,5.43155 c 0.91131,4.21467 1.22243,4.51888 1.38865,1.35789 0.25061,-4.76592 3.77727,-5.57257 3.95778,-0.90526 0.0976,2.52256 0.523,2.33805 2.08718,-0.90526 2.31307,-4.79608 5.3675,-5.501 3.92247,-0.90526 -0.85063,2.70534 -0.57772,2.65475 1.86733,-0.34604 2.51083,-3.0815 2.86359,-3.13727 2.86359,-0.45263 0,4.42328 2.96708,3.76271 4.54498,-1.01184 l 1.34627,-4.07367 0.80133,4.07367 c 0.89293,4.53931 4.17053,5.60647 4.17053,1.35788 0,-4.75708 3.18789,-2.92304 5.50729,3.16841 1.62753,4.27442 2.4521,5.03388 3.01403,2.77609 0.6354,-2.553 1.37764,-2.73084 4.15579,-0.99588 2.43566,1.52111 3.11076,3.46957 2.41223,6.96219 -0.53349,2.66747 -0.0731,5.40422 1.02294,6.08164 1.09611,0.67743 1.99291,0.36888 1.99291,-0.68568 0,-1.05455 0.70176,-1.91738 1.55945,-1.91738 0.8577,0 1.17009,2.03684 0.69419,4.5263 -0.50508,2.64219 -0.0237,4.5263 1.15633,4.5263 1.11187,0 2.02159,-0.81473 2.02159,-1.81052 0,-0.99578 0.79456,-1.81052 1.7657,-1.81052 1.14726,0 1.14726,1.62665 0,4.64417 -2.46726,6.48938 -2.20416,7.49071 0.8925,3.39658 2.32532,-3.07437 2.66541,-3.13107 2.71578,-0.4529 0.0317,1.68386 -0.75716,3.56509 -1.75295,4.18053 -0.99578,0.61543 -1.74619,2.0893 -1.66757,3.27526 0.10301,1.55478 0.39768,1.52498 1.05613,-0.10682 1.80997,-4.4856 4.11141,-2.18043 2.37715,2.38101 -2.19741,5.77957 -2.19424,6.21891 0.0449,6.21891 0.99579,0 1.86216,-1.42578 1.92529,-3.16841 0.0855,-2.35986 0.54535,-2.09444 1.80205,1.04011 1.09215,2.72409 1.0113,5.4716 -0.22925,7.78958 -1.05409,1.9696 -1.55216,4.96417 -1.10681,6.65461 0.74036,2.81027 0.8277,2.80214 1.01974,-0.0949 0.11551,-1.74262 0.85107,-3.16841 1.63459,-3.16841 1.63347,0 -0.16204,19.22416 -2.24048,23.98937 -0.76011,1.74263 -0.63739,3.16841 0.2727,3.16841 0.91009,0 2.59603,-2.24052 3.74654,-4.97893 1.84644,-4.39487 1.95654,-4.44795 0.93858,-0.45262 -0.6343,2.48946 -1.17393,8.34364 -1.19917,13.00931 -0.0252,4.66567 -0.64141,8.115 -1.36922,7.66518 -0.72783,-0.44983 -1.83862,0.0163 -2.46842,1.03498 -0.62983,1.01907 0.12854,2.34162 1.68541,2.93902 1.55679,0.59739 2.83053,1.78817 2.83053,2.64616 0,0.858 -1.24906,1.08068 -2.77569,0.49487 -2.36182,-0.90633 -2.46254,-0.37784 -0.67549,3.54434 2.15562,4.73109 0.8567,14.77726 -1.70585,13.1935 -0.78642,-0.48603 -1.11216,1.72117 -0.7239,4.90488 0.53887,4.41855 0.25921,5.14582 -1.18154,3.07279 -1.40629,-2.02339 -1.6347,-1.10023 -0.8959,3.62104 0.54538,3.48525 0.16657,8.37365 -0.8418,10.86311 l -1.83342,4.5263 -0.16983,-5.43156 c -0.12982,-4.15313 -0.5571,-4.76993 -1.81523,-2.62056 -0.93906,1.60427 -0.99727,5.68472 -0.13561,9.50522 0.86762,3.8469 0.8208,6.7905 -0.11007,6.92055 -0.89092,0.12438 -2.63827,0.32816 -3.88301,0.45263 -1.24473,0.12438 -2.52965,3.02433 -2.85536,6.44411 -0.43699,4.58794 -1.03023,5.53712 -2.26315,3.62103 -2.71723,-4.22278 -5.3759,1.47308 -3.27136,7.00843 0.93597,2.46174 1.34596,4.83168 0.91113,5.26651 -0.43483,0.43483 -1.331,-0.9121 -1.99152,-2.99317 -0.66051,-2.08106 -1.99014,-3.29601 -2.95473,-2.69984 -0.96461,0.59614 -1.29046,2.54381 -0.72413,4.32813 1.16633,3.67485 -5.53434,6.59719 -6.98947,3.04828 -0.46703,-1.13902 -0.91345,-0.23779 -0.99206,2.00272 -0.14665,4.17921 -4.7248,5.71749 -5.9628,2.00352 -1.17334,-3.52002 -8.63831,1.70167 -8.87431,6.20751 -0.16041,3.06412 -0.40532,3.26263 -1.03802,0.84157 -0.45539,-1.74263 -2.07752,-3.16841 -3.60471,-3.16841 -1.69745,0 -2.38031,1.03306 -1.75684,2.65779 0.56094,1.46179 0.24075,3.13934 -0.71155,3.72789 -0.95226,0.58855 -1.73142,-0.2001 -1.73142,-1.75255 0,-1.55244 -0.81473,-2.82263 -1.81051,-2.82263 -0.99579,0 -1.81052,1.62947 -1.81052,3.62104 0,1.99157 -0.86963,3.62103 -1.93253,3.62103 -1.1086,0 -1.44253,-1.54381 -0.78325,-3.62103 1.56679,-4.93649 -1.66197,-4.59336 -4.25917,0.45263 l -2.09673,4.07366 1.03681,-4.07366 c 0.57024,-2.24052 0.26901,-4.07367 -0.6694,-4.07367 -0.93843,0 -2.19632,2.45057 -2.79535,5.4457 -0.59903,2.99514 -1.71929,5.34285 -2.48946,5.21715 -4.40853,-0.71952 -5.11483,1.08982 -4.84888,12.42126 0.49608,21.13797 -0.0407,20.15379 7.0245,12.87985 7.94422,-8.17898 18.44729,-10.63022 51.15536,-11.93879 17.00488,-0.68033 25.53865,-0.30128 29.42092,1.30681 6.84699,2.83612 7.22338,6.00659 0.48951,4.12344 -8.25611,-2.30887 -47.62254,-1.55288 -60.19974,1.15607 -9.88141,2.12832 -12.98955,3.78838 -19.38441,10.3533 l -7.61603,7.81858 1.10575,45.875 1.10578,45.87499 -7.06863,4.15175 c -3.88773,2.28347 -7.72014,5.28963 -8.51646,6.68037 -0.79632,1.39073 -2.83316,2.52844 -4.5263,2.52822 -1.69314,-2e-4 -7.96684,1.59382 -13.94155,3.54226 -21.21018,6.91694 -60.10776,9.59925 -105.01009,7.2413 z m 66.39254,-5.4698 c 20.77456,-1.44365 30.90271,-3.01768 40.27305,-6.25889 6.88524,-2.38161 12.99574,-4.9763 13.57889,-5.76601 0.58315,-0.78969 4.08342,-2.8331 7.77838,-4.54091 l 6.71811,-3.10511 -0.6312,-33.10526 c -1.15339,-60.49458 -3.40274,-110.18199 -5.03355,-111.18988 -0.89541,-0.55339 -0.74113,-2.04283 0.34746,-3.3545 2.02099,-2.43514 2.5396,-49.37282 1.19061,-107.76009 -0.37961,-16.43046 -0.79639,-40.59503 -0.9262,-53.69905 l -0.236,-23.82549 -9.08651,2.39698 c -4.99759,1.31833 -14.97807,2.92609 -22.17885,3.5728 -7.2008,0.6467 -14.31445,1.49032 -15.80813,1.87469 -1.49368,0.38435 -6.38208,1.16347 -10.86311,1.73138 -4.48103,0.56789 -10.9989,1.42238 -14.48415,1.89889 -29.11771,3.98093 -98.252406,4.42469 -125.302065,0.80427 -26.186287,-3.50486 -40.343529,-5.06754 -40.90249,-4.5148 -1.120657,1.10818 -0.632831,38.44301 0.615811,47.12885 0.715753,4.97892 1.631748,54.49652 2.035566,110.0391 0.403818,55.54258 1.440467,102.84408 2.30365,105.11444 1.790168,4.70852 5.288833,5.96415 38.134255,13.6861 39.837473,9.36578 71.377243,13.54011 92.336453,12.2209 18.86549,-1.18745 48.76958,-4.50345 50.55312,-5.60573 0.72119,-0.44571 6.54749,-1.6477 12.94733,-2.67108 6.39984,-1.02337 17.1259,-3.654 23.83566,-5.84585 10.5208,-3.43678 16.83904,-3.71092 13.72353,-0.59541 -1.98527,1.98527 -32.17835,9.66938 -48.55459,12.35711 -46.88299,7.69458 -62.64519,8.34798 -95.16735,3.94502 -23.724726,-3.21195 -73.343547,-13.9028 -84.526644,-18.21207 -2.927482,-1.12806 -3.168407,0.76413 -3.168407,24.88484 l 0,26.10574 4.978926,3.64952 c 2.738409,2.00723 7.8305,4.6738 11.315748,5.92572 11.521536,4.13855 29.729746,8.95403 30.966578,8.18962 0.669077,-0.41352 7.622095,0.14086 15.451153,1.23195 39.183086,5.46069 65.161446,6.25419 107.784966,3.29221 z M 66.752438,476.63276 c -0.836185,-1.35299 2.822774,-1.5552 12.114149,-0.66955 7.321707,0.6979 13.651657,1.57021 14.066577,1.93847 0.41491,0.36826 -5.03646,0.66954 -12.114153,0.66954 -7.192306,0 -13.396982,-0.85505 -14.066573,-1.93846 z m 15.015856,-2.88164 c 1.244732,-0.50226 3.28157,-0.50226 4.5263,0 1.24473,0.50225 0.22631,0.9132 -2.263151,0.9132 -2.489463,0 -3.50788,-0.41095 -2.263149,-0.9132 z m -29.71521,-3.18845 c -11.303036,-2.92356 -15.100455,-7.25004 -15.067395,-17.16669 0.01448,-4.57563 0.817503,-9.54145 1.782781,-11.03513 2.049377,-3.17118 2.21347,-2.2535 1.839359,10.2865 -0.24398,8.17811 0.30303,9.76317 4.265265,12.35932 2.499826,1.63796 8.055761,3.31548 12.34652,3.72783 4.290761,0.41234 11.060317,1.49232 15.043458,2.39993 l 7.242074,1.6502 -9.957852,-0.13634 c -5.476819,-0.075 -13.349213,-1.01352 -17.49421,-2.08562 z m 18.873208,-5.94558 c 2.252127,-0.43306 5.511061,-0.41662 7.242074,0.0366 1.731015,0.45315 -0.111637,0.80749 -4.094776,0.78739 -3.983141,-0.0201 -5.399424,-0.39087 -3.147298,-0.82393 z m -15.863147,-2.34053 c 0,-2.12503 1.391601,-2.12503 6.336815,0 3.208692,1.37882 3.054063,1.57049 -1.357889,1.68325 -2.738409,0.0701 -4.978926,-0.68747 -4.978926,-1.68325 z m 11.279527,-6.75394 c -7.23936,-2.55215 -12.765342,-5.03739 -12.279958,-5.52277 1.019622,-1.01962 22.781779,6.6519 25.351906,8.93697 2.236599,1.98853 2.301379,2.00544 -13.071948,-3.4142 z m 4.675668,-8.967 c 1.306968,-0.523 2.868541,-0.45869 3.470161,0.14285 0.60162,0.60162 -0.467718,1.02954 -2.376305,0.95093 -2.109151,-0.0869 -2.538166,-0.51589 -1.093856,-1.09385 z m -15.955195,-2.38425 -4.526297,-1.44957 4.526297,-0.15281 c 2.489463,-0.084 5.748397,0.63703 7.242074,1.60233 2.414025,1.56007 2.414025,1.73809 0,1.60232 -1.493677,-0.084 -4.752611,-0.80506 -7.242074,-1.60232 z m 17.765714,-3.0473 c 1.306968,-0.52301 2.86854,-0.4587 3.470161,0.14285 0.601619,0.60162 -0.467718,1.02953 -2.376306,0.95092 -2.109151,-0.0869 -2.538166,-0.51589 -1.093855,-1.09384 z m -14.010447,-3.97255 c -2.415637,-0.67505 -4.712622,-2.18903 -5.104415,-3.36442 -0.473912,-1.42172 1.14769,-1.20911 4.844696,0.63519 3.056375,1.52473 5.557045,3.1199 5.557045,3.54487 0,0.42496 -0.203683,0.69143 -0.45263,0.59218 -0.248946,-0.0992 -2.429058,-0.73279 -4.844696,-1.40782 z m 10.091749,-6.89442 c -0.68235,-0.68235 -4.688122,-1.80248 -8.901717,-2.48915 -6.588654,-1.07377 -6.866487,-1.28026 -1.984757,-1.47514 3.121977,-0.12457 8.417744,0.96359 11.768371,2.41829 3.350629,1.4547 4.802056,2.6768 3.225397,2.71578 -1.576661,0.0389 -3.424942,-0.48743 -4.107294,-1.16978 z m -3.889164,-16.00057 c -7.171551,-1.84338 -7.923968,-2.34603 -3.621037,-2.41903 2.987356,-0.0507 7.875756,1.02703 10.863112,2.39494 6.677848,3.05773 4.587074,3.06468 -7.242075,0.0241 z m -0.905259,-6.31101 c -1.85402,-1.20872 0.156755,-1.40625 6.336815,-0.62248 4.978926,0.63144 9.392065,1.44067 9.806977,1.79828 1.798656,1.55024 -13.69307,0.42194 -16.143792,-1.1758 z m -27.930027,-6.00019 c -3.509799,-2.56643 -5.897782,-17.52107 -2.797776,-17.52107 0.967722,0 1.759498,3.20404 1.759498,7.12006 0,5.52998 0.808686,7.37674 3.621037,8.26934 1.991578,0.63211 3.621045,1.90911 3.621045,2.83779 0,2.36979 -2.365454,2.10055 -6.203804,-0.70612 z m 31.551064,-0.97534 c 0,-0.8577 2.036834,-1.17009 4.526297,-0.69419 2.489463,0.47589 4.526296,1.17763 4.526296,1.55945 0,0.38181 -2.036833,0.69419 -4.526296,0.69419 -2.489463,0 -4.526297,-0.70175 -4.526297,-1.55945 z m -5.431556,-2.16844 c 0,-1.05456 0.814734,-1.41384 1.810519,-0.7984 0.995785,0.61543 1.810519,1.47825 1.810519,1.91737 0,0.43912 -0.814734,0.7984 -1.810519,0.7984 -0.995785,0 -1.810519,-0.86282 -1.810519,-1.91737 z M 74.52622,394.0883 c 1.244732,-0.50226 3.281565,-0.50226 4.526297,0 1.244731,0.50225 0.226314,0.91321 -2.263149,0.91321 -2.489463,0 -3.50788,-0.41096 -2.263148,-0.91321 z m -12.560473,-3.65875 c 1.306968,-0.52301 2.868541,-0.4587 3.470161,0.14285 0.601619,0.60161 -0.467718,1.02953 -2.376305,0.95092 -2.109151,-0.0869 -2.538166,-0.51589 -1.093856,-1.09384 z m 12.43753,-4.13796 c -3.801814,-0.73551 -8.282848,-2.76722 -9.957853,-4.51489 -2.899558,-3.0254 -2.767864,-3.03809 2.748811,-0.26504 3.186852,1.60193 7.871568,2.9126 10.410482,2.9126 2.538914,0 4.616207,0.81473 4.616207,1.81052 0,0.99578 -0.203683,1.71682 -0.45263,1.6023 -0.248946,-0.11442 -3.563203,-0.80999 -7.365017,-1.54549 z M 64.115738,370.31152 c -2.489463,-0.37292 -5.31557,-1.43906 -6.280236,-2.36919 -1.622457,-1.56438 9.699042,-0.23981 11.560916,1.35258 1.462222,1.25058 -0.804949,1.68704 -5.28068,1.01661 z m -3.621037,-8.74043 c 0,-2.51444 0.456283,-2.58822 3.168407,-0.51232 1.742625,1.33383 3.50788,2.65569 3.922791,2.93746 0.41491,0.28177 -1.010874,0.51232 -3.168407,0.51232 -2.411492,0 -3.922791,-1.1317 -3.922791,-2.93746 z m 0.905259,-7.08843 c -7.189338,-2.48729 -7.19593,-2.49806 -0.905259,-1.48062 3.485248,0.56368 7.110812,1.75379 8.056808,2.64466 2.114765,1.99155 1.840368,1.94688 -7.151549,-1.16404 z m -2.263148,-5.7063 c 1.742624,-0.45538 4.594191,-0.45538 6.336815,0 1.742624,0.4554 0.316841,0.828 -3.168408,0.828 -3.485248,0 -4.911031,-0.3726 -3.168407,-0.828 z m -1.402739,-7.87712 c -0.763346,-1.23511 0.601633,-1.45898 3.966815,-0.65057 6.936845,1.66644 7.593406,2.53366 1.918196,2.53366 -2.596661,0 -5.244915,-0.8474 -5.885011,-1.88309 z m 1.855368,-5.35899 c -1.350219,-2.18469 5.779038,-2.18469 10.863112,0 2.918306,1.25404 2.324152,1.58071 -3.061556,1.68326 -3.675427,0.0701 -7.186126,-0.68747 -7.801556,-1.68326 z m 3.168408,-6.06054 c -7.961741,-2.61191 -7.537786,-4.97115 0.45263,-2.51882 3.485248,1.06966 6.336815,2.62287 6.336815,3.45158 0,0.82871 -0.203684,1.39218 -0.45263,1.25217 -0.248946,-0.13995 -3.100513,-1.12325 -6.336815,-2.18493 z m 2.263148,-9.55299 -9.052593,-2.36944 8.909508,0.85194 c 4.90023,0.46858 9.313369,1.25581 9.806976,1.74941 2.071784,2.0718 -1.158666,1.99427 -9.663891,-0.23191 z m -5.849727,-9.17788 c 1.761574,-0.45904 4.205775,-0.42886 5.431555,0.0672 1.225779,0.49596 -0.215509,0.87153 -3.202865,0.83463 -2.987356,-0.0369 -3.990267,-0.44267 -2.22869,-0.90171 z m 15.35495,-1.75492 c 1.244732,-0.50225 3.281565,-0.50225 4.526297,0 1.244731,0.50226 0.226314,0.91321 -2.263149,0.91321 -2.489463,0 -3.50788,-0.41095 -2.263148,-0.91321 z m -11.768371,-1.92117 c -3.236302,-0.40161 -5.884185,-1.35223 -5.884185,-2.11246 0,-1.84641 10.637057,-0.21884 11.897383,1.82042 0.544471,0.88096 0.738182,1.47137 0.430469,1.31201 -0.307714,-0.15933 -3.207365,-0.61835 -6.443667,-1.01997 z m -9.505223,-9.18983 c 0,-0.79584 3.05525,-1.14414 6.789445,-0.77404 10.510883,1.04176 11.276687,1.92073 1.810519,2.07806 -4.72998,0.0786 -8.599964,-0.50819 -8.599964,-1.30402 z m 9.957853,-4.98434 -9.052593,-2.46267 9.052593,0.97489 c 4.978926,0.5362 9.826589,1.7226 10.772585,2.63648 2.195332,2.12077 0.633613,1.95423 -10.772585,-1.1487 z m -4.526297,-8.13724 c -3.487314,-1.23169 -2.656127,-1.42212 3.621037,-0.82959 7.515056,0.70938 7.760942,0.60705 3.168408,-1.3185 -6.786115,-2.84528 -6.334355,-5.29373 0.534907,-2.89909 3.032609,1.05716 5.209309,2.84793 4.837112,3.97949 -0.865778,2.63211 -6.365127,3.11492 -12.161464,1.06769 z m 13.57889,-10.77872 c -0.61543,-0.99578 -0.256145,-1.81052 0.798408,-1.81052 1.054553,0 1.91737,0.81474 1.91737,1.81052 0,0.99579 -0.359283,1.81052 -0.798408,1.81052 -0.439125,0 -1.301941,-0.81473 -1.91737,-1.81052 z M 54.224167,268.6583 c -0.627671,-1.01559 1.70488,-1.27761 5.777334,-0.64898 9.091686,1.40339 9.820637,2.35226 1.807064,2.35226 -3.592445,0 -7.005423,-0.76646 -7.584398,-1.70328 z m 8.081052,-7.24754 8.147334,-1.16491 -8.147334,-1.99032 c -4.481033,-1.09467 -6.612392,-2.07757 -4.736353,-2.18421 1.876042,-0.10664 6.659253,0.77932 10.62936,1.9688 5.855805,1.75443 6.578979,2.41394 3.831093,3.49377 -1.863007,0.73212 -6.646218,1.26601 -10.629359,1.18644 l -7.242074,-0.14466 8.147333,-1.16489 z M 50.25595,247.40749 c 1.30076,-1.30075 19.552828,-0.92467 20.908318,0.43083 0.438377,0.43838 -4.362928,0.79704 -10.669567,0.79704 -6.306639,0 -10.914078,-0.55253 -10.238751,-1.22787 z m -0.624361,-5.57463 c 0,-0.75401 3.869984,-1.12161 8.599964,-0.8169 13.758092,0.88632 14.945186,1.75084 2.715777,1.97782 -6.223657,0.11552 -11.315741,-0.40689 -11.315741,-1.16092 z m 3.810809,-9.64583 c -7.195782,-2.87838 -3.130612,-3.68006 4.494601,-0.88637 3.974525,1.45616 5.494569,2.60103 3.462961,2.60821 -1.99157,0.007 -5.572474,-0.76778 -7.957562,-1.72184 z m 2.045234,-9.78753 c 0.731363,-0.80802 -0.08337,-2.5276 -1.810519,-3.82126 -2.840363,-2.12749 -2.751222,-2.2541 0.933402,-1.32574 4.519578,1.13873 5.264804,3.32591 1.810519,5.31376 -1.244732,0.71632 -1.664763,0.64127 -0.933402,-0.16674 z m 9.255224,-2.9751 c 2.395789,-1.39258 3.90901,-1.37697 5.34103,0.055 1.457165,1.45716 0.55212,1.98322 -3.342896,1.94307 -4.682206,-0.0483 -4.928679,-0.29474 -1.998134,-1.99813 z m 0.278141,-12.43097 -7.242074,-1.29667 8.599963,-0.25692 c 4.72998,-0.14122 8.599964,0.55781 8.599964,1.55359 0,0.99579 -0.61105,1.6949 -1.357889,1.55359 -0.746839,-0.14122 -4.616823,-0.84042 -8.599964,-1.55359 z m 9.052593,-7.24207 c -0.615429,-0.99579 -0.256145,-1.81052 0.798408,-1.81052 1.054553,0 1.91737,0.81473 1.91737,1.81052 0,0.99578 -0.359283,1.81052 -0.798408,1.81052 -0.439125,0 -1.30194,-0.81474 -1.91737,-1.81052 z m 4.186825,-4.85782 c 1.306968,-0.52301 2.86854,-0.4587 3.470161,0.14285 0.601619,0.60163 -0.467719,1.02953 -2.376306,0.95092 -2.109151,-0.0869 -2.538166,-0.51589 -1.093855,-1.09384 z m -21.722338,-2.13853 c 2.204038,-1.39765 11.198698,-0.69839 11.198698,0.8706 0,0.38181 -3.05525,0.68172 -6.789445,0.66647 -4.327804,-0.0181 -5.926461,-0.57496 -4.409253,-1.53707 z m 4.409253,-6.15195 c -4.232087,-1.01769 -7.694704,-2.52915 -7.694704,-3.3588 0,-0.82965 2.089873,-0.7139 4.644162,0.25724 2.554287,0.97115 7.083404,1.76571 10.064703,1.76571 3.152658,0 4.952384,0.7575 4.301581,1.81052 -1.254956,2.03057 -0.82211,2.04871 -11.315742,-0.47467 z m 11.881529,-11.62522 c 1.306968,-0.52301 2.86854,-0.4587 3.470161,0.14285 0.601619,0.60163 -0.467718,1.02953 -2.376306,0.95091 -2.109151,-0.0869 -2.538166,-0.51588 -1.093855,-1.09383 z m -15.477671,-1.87293 c 2.7521,-0.41616 6.825767,-0.40503 9.052593,0.0246 2.226824,0.42975 -0.0249,0.77023 -5.003821,0.75666 -4.978926,-0.0145 -6.800875,-0.36522 -4.048772,-0.78137 z m 20.909227,-3.55863 c 1.306968,-0.523 2.86854,-0.45869 3.470161,0.14285 0.601619,0.60164 -0.467719,1.02954 -2.376306,0.95092 -2.109151,-0.0869 -2.538166,-0.51589 -1.093855,-1.09384 z M 64.568368,167.7245 c 1.742624,-0.45538 4.594191,-0.45538 6.336815,0 1.742624,0.4554 0.316841,0.82801 -3.168408,0.82801 -3.485248,0 -4.911032,-0.37261 -3.168407,-0.82801 z m -15.724787,-2.18328 c -1.092607,-1.76787 4.332947,-4.49034 5.875194,-2.94811 0.521332,0.52134 -0.20633,1.0291 -1.617025,1.12835 -1.410696,0.0992 -0.528068,0.83279 1.961395,1.63005 l 4.526296,1.44957 -4.872074,0.18051 c -2.679642,0.0992 -5.322845,-0.54889 -5.873786,-1.44034 z m 16.743203,-1.42649 c 1.306968,-0.52301 2.868541,-0.4587 3.470162,0.14285 0.601619,0.60163 -0.467719,1.02953 -2.376306,0.95092 -2.109151,-0.0869 -2.538166,-0.51589 -1.093856,-1.09385 z m -13.708736,-8.83141 c 0.73766,-0.75078 6.033427,-1.71228 11.768371,-2.13668 5.734944,-0.42441 10.019805,-0.39812 9.521912,0.0585 -1.576719,1.44568 -22.694123,3.50708 -21.290283,2.07829 z M 273.52446,329.65607 c -0.50226,-1.24473 -0.91321,-0.22632 -0.91321,2.26315 0,2.48946 0.41095,3.50788 0.91321,2.26315 0.50225,-1.24474 0.50225,-3.28157 0,-4.5263 z m 31.73171,-12.63525 c 15.70453,-7.18977 24.82299,-20.98749 33.26699,-50.33835 4.3749,-15.20686 4.87003,-19.80787 4.75806,-44.21524 -0.13687,-29.82563 -2.70084,-41.99525 -12.57479,-59.68349 -7.02338,-12.58169 -12.26011,-15.94379 -24.60403,-15.79634 -14.83698,0.17725 -22.94124,4.99716 -31.16518,18.53522 -8.61966,14.18948 -10.12257,27.44143 -7.7832,68.62859 0.93322,16.43046 1.16212,42.20496 0.50867,57.2767 -1.10621,25.51412 -0.95525,27.54666 2.18993,29.48542 5.31291,3.27501 24.30987,1.18634 35.40355,-3.89251 z m 42.53726,-110.36686 c -0.57795,-1.4443 -1.00697,-1.0153 -1.09384,1.09386 -0.0786,1.90858 0.34929,2.97792 0.95092,2.37631 0.60162,-0.60164 0.66593,-2.16321 0.14285,-3.47017 z m -74.26897,-50.80767 c -0.50226,-1.24474 -0.91321,-0.22632 -0.91321,2.26315 0,2.48946 0.41095,3.50788 0.91321,2.26314 0.50225,-1.24473 0.50225,-3.28156 0,-4.52629 z m 5.52579,-12.24921 c 1.01961,-3.89905 4.13825,-6.79874 4.13825,-3.84776 0,3.08786 -2.14385,7.497 -3.64524,7.497 -0.79602,0 -1.01788,-1.64216 -0.49301,-3.64924 z M 55.540669,131.46298 c 2.752101,-0.41615 6.825768,-0.40503 9.052593,0.0246 2.226824,0.42977 -0.02489,0.77025 -5.003821,0.75665 -4.978926,-0.0127 -6.800874,-0.3652 -4.048772,-0.78136 z m -11.340636,-4.07553 c 0,-0.96454 1.2221,-1.28473 2.715778,-0.71155 1.493678,0.57317 2.715778,1.36234 2.715778,1.75368 0,0.39136 -1.2221,0.71155 -2.715778,0.71155 -1.493678,0 -2.715778,-0.78915 -2.715778,-1.75368 z m 10.52364,-1.29362 c 1.306968,-0.523 2.86854,-0.45867 3.470161,0.14285 0.601619,0.60162 -0.467719,1.02954 -2.376306,0.95092 -2.109151,-0.0869 -2.538166,-0.51589 -1.093855,-1.09386 z m 9.879152,-0.0181 c 1.761575,-0.45904 4.205775,-0.42886 5.431556,0.0672 1.225779,0.49599 -0.215509,0.87158 -3.202865,0.83468 -2.987356,-0.0369 -3.990267,-0.44267 -2.228691,-0.90173 z m -11.743757,-6.4337 c 2.506448,-1.19496 4.78395,-1.3167 5.787602,-0.30936 1.002455,1.00612 -0.62682,1.78287 -4.132739,1.97028 -5.429021,0.29019 -5.53155,0.18729 -1.654863,-1.66092 z m 2.204077,-3.29038 c -4.948937,-0.95136 -5.345473,-1.27643 -1.810519,-1.48423 3.619629,-0.21275 3.982296,-0.61762 1.810519,-2.02113 -3.20877,-2.07366 -3.687364,-1.92337 9.711175,-3.04946 6.689732,-0.56224 10.210941,-0.23616 9.520119,0.88161 -0.602973,0.97562 -3.872279,1.39977 -7.265124,0.94254 -3.527808,-0.47541 -6.712458,0.0483 -7.438659,1.22335 -0.728239,1.17832 -0.227088,1.91153 1.174985,1.71905 4.426745,-0.60766 7.59667,0.0713 6.315223,1.35286 -1.747482,1.74747 -4.646131,1.8525 -12.017719,0.43541 z m -6.422791,-10.60832 c 0.989035,-1.6003 13.486823,-0.92067 15.236021,0.82853 0.463578,0.46358 -3.007302,0.84287 -7.713068,0.84287 -4.76818,0 -8.098631,-0.73994 -7.522953,-1.6714 z m 8.685939,-3.38695 c -3.236302,-0.33144 -5.884185,-1.37536 -5.884185,-2.31982 0,-1.414163 14.015197,-0.472494 15.920122,1.06965 1.301636,1.05374 -4.679213,1.79877 -10.035937,1.25017 z M 47.174958,93.349895 c -0.472898,-0.765161 2.330586,-1.086963 6.229964,-0.715082 3.899379,0.371862 7.089779,0.997903 7.089779,1.391202 0,1.348565 -12.459294,0.716114 -13.319743,-0.67612 z m 6.077668,-10.862804 c 0,-0.802947 2.605199,-1.658417 5.789329,-1.901044 6.705178,-0.510911 6.34585,0.449696 -0.810402,2.166484 -2.73841,0.656947 -4.978927,0.537489 -4.978927,-0.26544 z m -8.901717,-4.694439 c 0.414911,-0.359569 5.642784,-1.108364 11.617495,-1.663976 6.748435,-0.627561 9.148663,-0.448284 6.336815,0.473306 -4.470987,1.46538 -19.414808,2.456403 -17.95431,1.19067 z m 9.354347,-9.646842 c 1.742624,-0.455399 4.594191,-0.455399 6.336815,0 1.742624,0.4554 0.316841,0.827987 -3.168407,0.827987 -3.485249,0 -4.911032,-0.372587 -3.168408,-0.827987 z M 42.389515,65.7728 c 0,-0.995786 1.174016,-1.810519 2.608926,-1.810519 1.43491,0 3.112459,0.814733 3.727889,1.810519 0.615429,0.995803 -0.558589,1.810518 -2.608927,1.810518 -2.050338,0 -3.727888,-0.814715 -3.727888,-1.810518 z m 10.410482,-1.199071 c 1.244731,-0.502256 3.281565,-0.502256 4.526296,0 1.244732,0.502275 0.226315,0.913208 -2.263148,0.913208 -2.489463,0 -3.50788,-0.410933 -2.263148,-0.913208 z m 9.99231,-1.866119 c 1.761575,-0.459039 4.205775,-0.42884 5.431556,0.06699 1.225779,0.495955 -0.21551,0.871547 -3.202866,0.834649 -2.987355,-0.03693 -3.990267,-0.442672 -2.22869,-0.901729 z M 256.78218,54.377504 c -5.99354,-6.341396 -10.41563,-13.949177 -8.93169,-15.366161 0.74955,-0.71577 2.28571,0.233539 3.41364,2.109562 1.12795,1.876023 3.95314,5.74215 6.27821,8.5914 5.15294,6.314618 4.51265,10.244041 -0.76016,4.665199 z M 207.14672,24.788036 c -10.62208,-4.715134 -16.04292,-6.034296 -24.89463,-6.058104 -7.17776,-0.01937 -11.31575,-0.777564 -11.31575,-2.073569 0,-1.418234 4.29165,-1.770054 14.03152,-1.150259 11.26469,0.716803 16.65373,2.16902 27.32955,7.364574 9.64132,4.692104 14.37099,6.080935 17.19992,5.050641 3.45692,-1.259016 15.67028,0.641612 15.67028,2.43857 0,0.381566 -5.49945,0.640199 -12.221,0.574767 -9.75408,-0.09487 -14.96204,-1.33571 -25.79989,-6.14662 z"
     id="path30002"
     inkscape:connector-curvature="0"
     sodipodi:nodetypes="cscsssssssssssssssssssssssssssscccccsssssssssssssssscscsssssssssssscsssssscsscsscssssscssssssssssssssssscssscssssscssscsccsssssssscsssccssssscssssccsscsssssscssssssssssscccsscsccsssscssssscsssssscssssssssssssscsscsssssssssssscssssscssccsccsscsssssccccccccsscccccccsssscssscscscssccsssssssssssssssssssssssscccccssssscsssssssssssssssssssssssscsssscsscssscccccssssssscsssssscssssssssssssssssssccsssssccccsscsssssscscssscccscccsccscsssssscccccsscssssssscccccccccccccccsssscscsccccccccccscccsssssssssssssscccccsssssssssssssssssssssccsccsssssssssssssssssssssssssssssssssssssssssssssssssssscssssssssssss" />
  <path
     style="fill:#ffffff;fill-opacity:0.66666667;stroke:none;filter:url(#filter30675)"
     d="M 27.113754,38.497571 69.391296,33.294181 71.992991,271.99969 36.219686,270.04842 29.715449,38.497571"
     id="path30673"
     inkscape:connector-curvature="0"
     transform="matrix(1.8105186,0,0,1.8105186,0.13119855,-5.4120502)" />
  <path
     style="fill:#fffb08;fill-opacity:0.07575755;stroke:none"
     d="M 22.613883,136.26873 20.948498,66.3226 37.602339,48.836068 55.088869,42.174536 75.073476,25.520698 153.34653,13.03031 l 44.96536,4.996163 28.31154,14.988451 15.82114,-2.498082 19.98461,29.97692 0.8327,70.778828 -115.7442,19.1519 z"
     id="path30679"
     inkscape:connector-curvature="0" />
</svg>
