<?xml version="1.0" encoding="UTF-8" standalone="no"?>
<!-- Created with Inkscape (http://www.inkscape.org/) -->

<svg
   xmlns:dc="http://purl.org/dc/elements/1.1/"
   xmlns:cc="http://creativecommons.org/ns#"
   xmlns:rdf="http://www.w3.org/1999/02/22-rdf-syntax-ns#"
   xmlns:svg="http://www.w3.org/2000/svg"
   xmlns="http://www.w3.org/2000/svg"
   xmlns:sodipodi="http://sodipodi.sourceforge.net/DTD/sodipodi-0.dtd"
   xmlns:inkscape="http://www.inkscape.org/namespaces/inkscape"
   id="svg3894"
   version="1.1"
   inkscape:version="0.48.4 r9939"
   width="500"
   height="176"
   sodipodi:docname="Book.svg">
  <metadata
     id="metadata3900">
    <rdf:RDF>
      <cc:Work
         rdf:about="">
        <dc:format>image/svg+xml</dc:format>
        <dc:type
           rdf:resource="http://purl.org/dc/dcmitype/StillImage" />
        <dc:title />
      </cc:Work>
    </rdf:RDF>
  </metadata>
  <defs
     id="defs3898" />
  <sodipodi:namedview
     pagecolor="#ffffff"
     bordercolor="#666666"
     borderopacity="1"
     objecttolerance="10"
     gridtolerance="10"
     guidetolerance="10"
     inkscape:pageopacity="0"
     inkscape:pageshadow="2"
     inkscape:window-width="1254"
     inkscape:window-height="751"
     id="namedview3896"
     showgrid="false"
     inkscape:zoom="1.0941375"
     inkscape:cx="213.17353"
     inkscape:cy="71.288873"
     inkscape:window-x="17"
     inkscape:window-y="23"
     inkscape:window-maximized="0"
     inkscape:current-layer="svg3894" />
  <path
     style="fill:#0ab076;fill-opacity:1;stroke:none"
     d="m 7.9286073,160.36229 c 59.2319017,-0.57415 118.2182527,0.78404 177.0952427,3.003 12.20847,0.26117 21.43886,4.86534 30.98498,9.00904 21.04041,-0.0722 44.85999,2.0609 60.36731,-2.4024 l 15.4925,-9.30934 c 66.54251,0.0673 133.44529,-5.94093 200.33399,-11.71174 l -1.60268,-4.80481 c -20.1524,0.10708 -40.31554,0.46093 -60.76259,2.37095 -18.95506,1.77065 -38.30012,0.93047 -57.15702,1.92952 -21.19789,1.12309 -41.77977,5.15722 -62.38097,5.60947 l -25.37564,-0.6006 -15.49249,12.31233 c -18.56795,1.34072 -36.3379,-0.45854 -54.22374,-1.8018 l -14.42404,-8.10813 c -62.12007,-4.24998 -126.283086,-5.15918 -192.3206287,-3.003 -4.9493873,2.72601 -4.1065327,5.18068 -0.534224,7.50751 z"
     id="path3906"
     inkscape:connector-curvature="0"
     sodipodi:nodetypes="cccccccssccccccc" />
  <path
     style="fill:#ccb740;fill-opacity:0.46391751;stroke:none"
     d="M 14.873519,151.35328 35.174028,129.28116 C 37.423337,121.53386 45.137224,119.16218 50.1323,114.11595 62.719914,102.05542 73.255187,89.129619 93.938665,80.482253 160.66111,77.257102 197.0262,106.22179 229.23089,128.98086 219.8625,105.74004 204.28545,99.251434 191.70165,84.686466 L 149.49796,61.262995 109.43116,54.656374 136.67658,36.037718 101.95202,25.226885 c 30.49563,-7.292959 60.13602,-32.5797309 92.95498,9.009027 23.35479,19.921508 36.07842,46.025141 49.4157,71.771908 16.75693,-49.592357 73.69215,-64.309243 93.75631,-71.771908 23.14534,3.620818 44.4152,14.621363 66.24378,23.423472 -1.78164,3.36297 -11.39679,3.203208 -17.09517,4.804813 9.71402,4.41685 19.2765,6.118734 26.44409,14.114145 -14.4809,1.655878 -30.08786,1.412813 -41.93659,7.507522 31.22114,9.670537 66.38635,14.414293 91.88652,31.231286 l -4.80801,4.20422 c 5.56548,3.02215 12.66346,3.97681 14.95827,11.41143 4.41742,3.58095 10.58878,3.21818 13.08848,11.11114 -40.69005,2.11739 -81.38012,5.73045 -122.07017,5.70571 -25.92092,3.67826 -52.02878,8.61741 -76.92825,5.40543 l -16.56094,10.81083 C 257.08858,142.50954 235.9063,150.01182 213.60483,162.16409 187.60332,143.83227 81.796417,154.70833 14.873519,151.35328 z"
     id="path4416"
     inkscape:connector-curvature="0"
     sodipodi:nodetypes="cccccccccccccccccccccccccc" />
  <path
     style="fill:#000000"
     d="m 4.9040984,159.39525 c -2.5550366,-2.83079 -1.0460388,-6.01441 3.4035238,-7.18056 6.8546308,-1.79647 63.9298858,-2.68769 107.9229278,-1.68516 6.1489,0.14012 17.27718,0.33423 24.7295,0.43133 22.93704,0.29887 33.07832,0.70644 45.21139,1.81702 6.41851,0.58751 16.00759,1.42321 21.30909,1.85713 6.36034,0.52058 9.58187,1.25488 9.47087,2.15879 -0.0949,0.77291 -2.82249,0.99862 -6.25923,0.51791 l -6.091,-0.85187 4.07297,2.43875 c 3.99447,2.39175 4.23573,2.35172 12.51791,-2.07684 4.6447,-2.48357 10.75136,-5.19148 13.57033,-6.01755 5.10311,-1.49546 5.12016,-1.5194 3.92328,-5.50569 -1.66205,-5.53563 -8.91176,-13.18589 -21.64774,-22.84389 C 199.97233,109.5134 188.05285,102.06108 173.97414,95.530181 162.12521,90.033629 158.74452,89.070384 137.82094,85.229114 106.08959,79.403699 97.474263,79.807293 82.947356,87.79972 72.704297,93.435269 58.216967,105.55788 53.366535,112.55219 l -2.468272,3.55922 10.559533,-2.17846 c 11.278461,-2.32677 44.695154,-4.96901 61.845034,-4.89003 12.72187,0.0586 46.98674,6.45537 63.249,11.80774 9.83511,3.23702 30.89902,12.4088 46.20899,20.12061 4.84414,2.44005 6.13375,4.70343 2.3448,4.11532 -1.16866,-0.1814 -5.06846,-1.93916 -8.66623,-3.90613 -29.41452,-16.08163 -74.95542,-29.14662 -102.11959,-29.29656 -44.066335,-0.24324 -86.846152,7.28355 -87.849814,15.45654 -0.295319,2.40482 -4.778503,8.06929 -12.285943,15.52319 -7.220853,7.16935 -5.348796,2.67863 2.254843,-5.40896 4.062226,-4.32077 7.863202,-9.18754 8.446613,-10.81504 0.583412,-1.62751 3.937847,-5.00215 7.454303,-7.49918 3.516455,-2.49703 8.929581,-7.52728 12.029167,-11.17829 10.295145,-12.126711 29.804155,-25.699955 40.035825,-27.854611 7.074186,-1.489732 20.006056,-1.058487 36.797856,1.227118 17.24954,2.347909 31.14176,6.286682 46.00974,13.04485 13.62042,6.191083 41.2519,24.209253 49.8985,32.538213 1.74122,1.67728 -0.91063,-2.67496 -5.893,-9.67161 -4.98238,-6.99666 -10.26916,-13.67673 -11.74841,-14.8446 -1.47924,-1.16787 -4.09776,-3.629306 -5.81893,-5.469872 -3.80323,-4.06704 -16.34711,-12.768851 -28.27438,-19.614219 -4.85065,-2.783911 -12.53113,-7.269496 -17.06774,-9.967965 -7.59925,-4.520198 -9.65996,-5.133719 -26.18534,-7.795996 -9.86533,-1.589331 -19.69027,-2.666611 -21.83322,-2.393967 -5.99188,0.762348 -4.50023,-1.3678 4.96464,-7.08979 10.50841,-6.352853 17.03435,-11.08591 17.20537,-12.47849 0.16377,-1.333603 -12.55205,-5.840106 -25.64415,-9.088311 L 96.710133,25.995665 110.67672,20.557854 c 26.51137,-10.322049 41.13316,-12.7583172 55.36736,-9.225249 19.7426,4.900301 52.58372,40.990607 70.65458,77.644853 l 7.39164,14.992922 1.5159,-5.309774 c 4.06175,-14.226992 16.61444,-27.441952 40.12683,-42.243878 16.74637,-10.54245 24.76509,-14.502342 40.4046,-19.952977 8.90488,-3.103507 11.60981,-3.470767 18.00192,-2.44421 8.70893,1.398629 20.93615,5.480294 32.87571,10.974483 8.0027,3.682572 20.33203,8.645662 29.59108,11.911684 4.427,1.561571 5.00194,4.703198 0.7755,4.237456 -3.0156,-0.332311 -9.91353,0.395254 -13.64458,1.439173 -2.68072,0.750044 -1.96448,1.249078 5.8424,4.070661 9.79445,3.539938 16.62061,7.907664 15.68511,10.036125 -0.33196,0.755266 -5.3744,1.646206 -11.20544,1.979869 -9.54217,0.546022 -32.9641,4.921031 -30.06802,5.616438 0.64702,0.155367 5.26361,1.481774 10.2591,2.947584 4.99549,1.465806 14.51101,3.868184 21.14563,5.3386 23.23018,5.148462 47.03474,13.617956 56.22373,20.003986 4.74828,3.29992 5.92699,6.22722 2.28422,5.67289 -6.50394,-0.98973 -41.94964,-3.61281 -49.41093,-3.65654 -26.63868,-0.15616 -53.37193,2.7358 -83.12243,8.99207 -16.65675,3.50275 -34.41727,7.58488 -39.46781,9.07142 -5.05053,1.4865 -12.75171,3.65613 -17.11373,4.82137 -4.36201,1.16524 -8.77605,2.51391 -9.80898,2.99703 -1.03292,0.48313 -4.78727,2.22211 -8.34298,3.86441 -3.5557,1.64231 -6.82471,3.47534 -7.26446,4.07341 -1.64796,2.24131 10.30985,1.3095 14.68653,-1.14445 5.99613,-3.36193 15.84886,-7.17444 17.70545,-6.8511 0.81547,0.14196 -1.86668,1.58575 -5.96032,3.20832 -10.87797,4.31159 -14.96778,6.90871 -13.30821,8.45103 0.81341,0.75594 2.76543,0.44329 4.83895,-0.77502 4.37819,-2.57245 13.56026,-5.67313 15.85488,-5.354 0.95724,0.13318 -1.59065,1.4211 -5.66201,2.86215 -4.07135,1.44108 -8.17907,3.42115 -9.12827,4.40017 -1.46577,1.51185 -1.17633,2.26969 1.92092,5.02974 l 3.6467,3.24967 3.77526,-3.36505 c 7.54458,-6.72482 11.20731,-7.69259 22.0822,-5.83453 5.46638,0.93403 11.86631,1.45287 14.22208,1.1531 2.35575,-0.29978 8.57713,-0.91554 13.82525,-1.36837 5.24813,-0.45284 16.04059,-1.84855 23.98324,-3.10157 7.94265,-1.25302 21.8764,-2.2821 30.96388,-2.28685 19.02735,-0.0105 29.09541,-0.50342 47.49057,-2.32782 7.22775,-0.71683 21.8976,-1.46537 32.5997,-1.66346 10.70208,-0.19808 19.99914,-0.82061 20.66012,-1.38341 1.95125,-1.66146 0.44245,-3.60274 -4.63372,-5.96193 -5.68721,-2.6432 -7.17807,-3.98319 -7.37252,-6.62652 -0.19416,-2.63948 -5.43192,-6.15346 -10.29778,-6.90871 -2.1561,-0.33466 -3.84826,-1.19435 -3.76033,-1.9104 0.42941,-3.49672 15.50964,4.01113 15.92476,7.92833 0.28902,2.72717 4.50954,5.85736 8.79441,6.52243 1.58775,0.24644 3.2989,1.86862 4.18378,3.96626 0.82348,1.95209 2.50914,3.70632 3.74589,3.89829 1.23677,0.19196 2.56643,1.44316 2.95482,2.78044 1.65399,5.69491 0.59252,6.14577 -14.66809,6.23024 -8.11882,0.0449 -20.96954,0.90355 -28.55713,1.90804 -7.5876,1.00446 -18.52418,2.0065 -24.30351,2.22672 -5.77932,0.2202 -15.14986,0.84813 -20.82341,1.39537 -12.10817,1.16792 -35.18117,2.98269 -47.82904,3.7619 -4.90509,0.3022 -14.27394,0.91638 -20.81966,1.36484 -6.54572,0.44847 -18.99596,0.3856 -27.66719,-0.13971 -15.71916,-0.95226 -15.78263,-0.94315 -21.40579,3.07743 -3.10195,2.2179 -6.90167,4.87328 -8.44381,5.90083 -3.22582,2.14943 -18.68306,3.45203 -40.76007,3.43493 -18.7523,-0.0146 -20.96529,-0.36223 -32.99675,-5.18396 -10.44435,-4.18571 -15.32463,-4.66322 -57.72226,-5.64781 -10.3555,-0.24047 -25.68086,-0.85268 -34.05634,-1.36045 -8.37549,-0.50778 -21.877798,-0.82975 -30.005139,-0.71549 -8.127338,0.11422 -19.550387,0.15831 -25.384552,0.098 -5.834165,-0.0604 -16.210371,0.1079 -23.058237,0.37412 -20.112176,0.78175 -27.4134615,0.20951 -29.7038268,-2.32804 z m 28.2004296,0.15561 c 23.919237,-1.00627 74.458922,-0.93535 90.853402,0.12748 18.19177,1.17938 42.05927,1.5985 47.20632,0.82898 2.22425,-0.33253 5.09388,-0.11538 6.37694,0.48257 1.28305,0.59795 3.66707,0.53243 5.29778,-0.14548 2.16729,-0.90103 5.67509,-0.55007 13.03859,1.30453 13.99287,3.52432 14.10308,3.56428 18.98115,6.88099 3.66517,2.49204 5.30378,2.87668 10.32347,2.42332 3.28172,-0.29641 10.83417,-0.36374 16.78322,-0.14963 5.94906,0.21412 15.93,0.061 22.17986,-0.34033 10.16528,-0.6527 12.07712,-1.23146 18.13264,-5.48924 3.7231,-2.6178 7.66451,-5.33315 8.75871,-6.03411 1.09419,-0.70096 8.82281,-0.83921 17.17473,-0.3072 8.35193,0.53202 19.44829,0.75599 24.65861,0.49773 17.58913,-0.87178 57.36029,-3.82073 72.62313,-5.38486 5.2587,-0.5389 13.2885,-1.06013 17.84401,-1.15827 4.55549,-0.0982 15.56059,-1.06317 24.45576,-2.14447 8.89516,-1.08133 22.17798,-2.0628 29.51737,-2.18104 8.49098,-0.13679 13.24843,-0.76349 13.08059,-1.7231 -0.1451,-0.82946 -1.78399,-1.69072 -3.642,-1.91388 -7.50844,-0.90181 -45.84111,0.35913 -62.09469,2.04258 -9.53269,0.98734 -22.36846,1.72434 -28.52395,1.63776 -19.80857,-0.27861 -33.47013,0.39559 -42.74326,2.10937 -22.49802,4.15789 -36.63483,5.264 -51.23737,4.00897 -13.83379,-1.18895 -14.25551,-1.09513 -22.04223,4.90445 -3.82275,2.94537 -8.12324,5.83342 -9.55666,6.41793 -2.8743,1.17207 -37.24337,1.10965 -44.94436,-0.0816 -2.6695,-0.41302 -5.26369,-0.19313 -5.76487,0.48848 -0.9968,1.35569 -1.54193,1.1381 -14.80876,-5.91111 -8.86162,-4.70856 -9.41968,-4.8402 -24.08469,-5.68222 -20.47635,-1.17566 -60.22719,-2.01519 -84.526432,-1.78515 -11.046943,0.10463 -23.514798,0.008 -27.706347,-0.21514 -4.191549,-0.22289 -14.271619,-0.30379 -22.400155,-0.1798 -8.128536,0.12394 -18.503254,0.28022 -23.054925,0.34716 -11.838002,0.17408 -17.263017,1.23214 -17.5315953,3.41922 -0.3474395,2.82926 8.0348883,3.71876 27.3760123,2.9051 z m 193.501642,0.1731 c 1.81285,-2.88866 1.92625,-3.50803 0.5775,-3.15425 -2.04469,0.53634 -5.51394,6.33266 -3.93678,6.57746 0.60691,0.0942 2.11858,-1.44625 3.35928,-3.42321 z m 4.61487,0.74655 c 1.23118,-1.96181 2.32284,-4.25362 2.42592,-5.09291 0.32565,-2.65191 -3.31442,0.66247 -5.14253,4.68238 -2.17057,4.77295 -0.20731,5.06963 2.71656,0.41103 z m 5.87578,-0.85668 c 1.41857,-2.90548 2.63078,-5.70251 2.69379,-6.21562 0.19238,-1.5665 -1.90234,-1.35281 -2.75133,0.28069 -0.43869,0.84404 -1.9034,3.60189 -3.25493,6.12853 -2.01533,3.7676 -2.17038,4.63843 -0.86205,4.84149 0.87741,0.1362 2.75594,-2.12959 4.17452,-5.03509 z m 4.63367,1.42694 c 0.65957,-1.90432 1.6375,-4.58846 2.17317,-5.96473 1.57012,-4.03402 -1.46444,-0.92223 -4.21397,4.32123 -2.02299,3.85793 -2.14983,4.64162 -0.78549,4.85339 0.89489,0.13889 2.16672,-1.30554 2.82629,-3.20989 z m 17.2886,3.6676 c 0.78835,0.008 2.03996,-8.95668 2.79627,-8.92803 1.91668,0.0727 0.27019,5.18269 0.97625,7.51511 0.74453,2.45946 1.25361,-3.73548 3.35202,-4.18555 1.01188,-0.21702 -0.57646,5.64509 3.47407,4.66181 1.84063,-0.44682 -4.41142,-6.90438 -10.1638,-9.67159 -3.20065,-1.53969 -12.28564,-2.54896 -12.51087,-1.38986 -0.0192,0.0983 -1.13638,2.86658 -2.48286,6.15181 l -2.44816,5.97317 c 1.01771,0.27671 1.72931,0.98361 3.69177,-0.0673 l 4.55263,-12.24981 c 1.51477,-0.0427 -2.56861,8.24622 -0.0598,11.79254 0.30798,0.43536 3.80169,-10.65168 4.72964,-11.30212 2.27173,-1.59238 -0.33555,6.67293 -1.32327,10.53436 -0.1608,0.62866 1.7271,0.9948 2.74774,-0.94435 1.52729,-2.90176 1.48828,-11.665 2.85729,-7.97658 z m -15.76177,-24.65859 c 0.29663,-29.83686 -0.0395,-31.87033 -8.0476,-48.680349 C 221.44598,62.47747 193.45094,28.545399 174.13713,17.34492 161.63632,10.09544 144.88419,11.007357 118.64362,20.365756 l -12.3417,4.401525 6.82744,2.062442 c 35.10034,10.603163 60.20388,25.56506 76.32634,45.491056 2.70403,3.341967 13.2384,16.771325 23.40968,29.843021 13.56148,17.4286 19.33724,23.9459 21.65802,24.43861 2.72448,0.57843 2.79143,0.69412 0.48122,0.83162 -2.51736,0.14984 -2.37242,0.69518 2.34084,8.80652 2.76342,4.75575 5.21296,8.67607 5.44343,8.71184 0.23046,0.0358 0.44126,-2.17039 0.46843,-4.90261 z m -4.4756,-11.51661 c -0.2772,-0.7047 0.5013,-0.81274 1.73001,-0.24011 2.60639,1.21468 2.83956,2.15239 0.4427,1.78037 -0.9178,-0.14246 -1.89551,-0.83559 -2.17271,-1.54026 z m 39.37706,-9.93281 c 19.4302,-14.46437 49.78424,-35.045839 59.99991,-40.682751 14.48304,-7.991594 36.2453,-14.957812 55.70901,-17.832749 l 7.63296,-1.127447 -9.37674,-3.892449 c -5.1572,-2.140849 -12.13583,-5.209232 -15.50804,-6.818633 -3.37222,-1.609401 -10.7171,-4.50344 -16.32195,-6.431201 -5.60484,-1.927759 -12.00446,-4.165499 -14.22137,-4.972755 -2.55779,-0.931383 -6.21553,-0.995683 -10.00939,-0.175971 -29.19149,6.307202 -72.22713,33.554504 -83.49085,52.860848 -6.32682,10.844338 -7.16838,17.109828 -6.96856,51.881808 l 0.0268,4.64776 11.47121,-10.16022 c 6.30918,-5.58814 15.78488,-13.37144 21.0571,-17.29624 z m -7.49077,17.33151 c 4.80082,-1.28782 15.31747,-4.10098 23.37033,-6.25149 32.05452,-8.56009 71.55224,-15.59786 91.69534,-16.33845 5.21607,-0.19177 13.75772,-0.55659 18.98144,-0.8107 13.14031,-0.63923 18.58948,-0.395 39.16014,1.75507 20.29447,2.12121 20.70691,1.22976 3.00609,-6.49731 -11.77986,-5.14235 -22.56686,-8.361992 -51.92583,-15.498504 -12.21191,-2.968445 -22.72209,-6.03355 -23.35596,-6.811353 -1.23712,-1.518053 -26.18025,5.573573 -44.39709,12.622619 -30.11826,11.654338 -58.46283,28.601788 -71.72639,42.885808 -1.60992,1.73378 -1.14371,1.67926 2.2116,-0.25865 2.33837,-1.35056 8.17951,-3.50922 12.98033,-4.79704 z m 45.82792,-35.7258 c 26.93353,-11.717781 72.94445,-24.210607 87.91509,-23.870584 3.5756,0.08121 6.55536,-0.294437 6.62171,-0.834779 0.12578,-1.024185 -10.77196,-6.040289 -20.8653,-9.604067 -5.25258,-1.854594 -6.9504,-1.779234 -16.40224,0.728052 -23.05816,6.116626 -38.34225,13.984924 -68.65286,35.342708 -15.15395,10.67794 -16.42604,11.75804 -9.22244,7.83053 3.13038,-1.70672 12.40311,-6.02306 20.60604,-9.59186 z M 196.60894,84.975315 C 193.53968,80.380704 181.62795,66.99395 176.08775,61.912986 169.32586,55.711599 154.26176,45.829731 145.16078,41.625261 l -7.05549,-3.259492 -11.59203,7.215931 -11.59203,7.215933 18.88579,3.713216 c 16.76186,3.295626 19.81301,4.268136 27.13072,8.647567 4.53471,2.713892 12.21122,7.231762 17.05891,10.039712 4.8477,2.807947 11.0103,6.680503 13.69467,8.60568 6.03633,4.32912 7.21442,4.609769 4.91762,1.171507 z M 46.826651,139.10334 c 0.154328,-1.25672 12.046256,-5.21505 20.123795,-6.69837 12.567806,-2.3079 12.322809,-1.31829 -0.43448,1.75497 -6.240526,1.50336 -12.701492,3.4559 -14.357699,4.33899 -2.945338,1.5704 -5.485609,1.85839 -5.331616,0.60441 z m 18.522459,2.92684 c 0.319099,-2.59848 21.872981,-5.82738 39.67374,-5.94333 16.40424,-0.10685 45.13073,2.86667 43.89749,4.54391 -0.5033,0.68452 -2.48856,1.2597 -4.41169,1.27813 -1.92312,0.0183 -3.17387,-0.40532 -2.77944,-0.94179 0.89757,-1.22075 1.35978,-1.15853 -16.60982,-2.23565 -23.94099,-1.43507 -44.373795,-0.17595 -57.736898,3.55787 -1.176223,0.32866 -2.091244,0.21203 -2.033388,-0.2591 z m 40.18476,-0.49478 c 3.63036,-0.49272 10.2831,-0.61143 14.78387,-0.26376 l 8.18319,0.63208 -8.89379,0.34937 c -4.89158,0.19215 -11.54431,0.31085 -14.78386,0.26378 l -5.890072,-0.0856 6.600662,-0.89586 z m 25.13807,-0.31043 c 1.16729,-0.15521 2.72798,0.10919 3.46823,0.58741 0.74023,0.47833 -0.21481,0.60531 -2.12233,0.2822 -1.90751,-0.32313 -2.51316,-0.71448 -1.34589,-0.86968 z m 69.38009,9.03476 c -3.85451,-1.29989 -2.05446,-1.29575 7.37364,0.017 7.65799,1.06632 12.41128,2.23931 12.31311,3.03867 -0.17729,1.44374 -11.60403,-0.32987 -19.68675,-3.05568 z M 78.520199,130.87474 c 0.03456,-0.28141 0.885927,-0.72755 1.89193,-0.99145 1.006002,-0.26386 1.759405,0.0877 1.674232,0.7813 -0.08518,0.69359 -0.936543,1.13975 -1.89193,0.99146 -0.955387,-0.14829 -1.708791,-0.49989 -1.674232,-0.78131 z m 6.74796,-0.94734 c 8.855576,-2.87611 65.164041,-3.14366 67.067161,-0.31866 0.64254,0.95379 -1.19757,1.12737 -5.33362,0.50313 -7.54495,-1.13872 -37.1379,-1.45914 -48.850922,-0.52893 -16.067774,1.27604 -15.722566,1.26682 -12.882619,0.34446 z m 188.804491,26.99016 c 0.82935,-1.6922 0.66978,-1.79904 -0.97377,-0.65207 -1.08111,0.75447 -1.89842,0.82435 -1.81627,0.15526 0.1824,-1.48523 5.64886,-4.92181 11.50963,-7.23574 4.24745,-1.67694 4.19918,-1.5889 -2.24228,4.09003 -7.09394,6.25418 -8.00963,6.76914 -6.47731,3.64252 z M 209.37689,146.4001 c -3.76318,-1.06848 -6.0401,-1.98722 -5.05981,-2.04168 3.16682,-0.1759 15.54996,2.52197 19.56203,4.26194 3.66996,1.59159 3.55935,1.63316 -1.88037,0.70673 -3.17884,-0.54142 -8.85868,-1.85852 -12.62185,-2.92699 z m 18.9942,2.2842 c -0.27473,-0.40781 -4.22656,-2.46264 -8.78184,-4.56624 -4.55527,-2.10362 -7.23226,-3.71293 -5.94885,-3.57626 2.4702,0.26308 17.27097,7.29552 18.17324,8.63485 0.29213,0.43362 -0.25056,0.66707 -1.20595,0.51879 -0.95538,-0.14829 -1.96185,-0.6033 -2.2366,-1.01114 z m 102.54369,-12.45664 c 0.44643,-0.60716 3.38169,-1.66321 6.52281,-2.34677 3.14113,-0.68357 5.14825,-0.81622 4.46028,-0.2948 -1.96233,1.4873 -11.89001,3.87502 -10.98309,2.64157 z m 14.79595,-4.48874 c 1.34942,-0.41767 3.23517,-0.63809 4.19055,-0.4898 1.09492,0.16995 0.83006,0.55037 -0.71642,1.02904 -1.34942,0.4177 -3.23517,0.6381 -4.19056,0.48981 -1.09492,-0.16994 -0.83006,-0.55035 0.71643,-1.02905 z m 30.0742,4.958 c 0.73152,-0.67146 11.90857,-1.42009 24.83789,-1.66363 12.92933,-0.24352 27.33215,-0.76793 32.00628,-1.16534 13.50442,-1.14819 16.95399,-1.11257 15.47079,0.15979 -1.32299,1.13491 -29.43389,3.02735 -40.45848,2.72369 -3.23438,-0.0891 -8.54988,-0.0486 -11.81222,0.0899 -3.26234,0.13854 -8.52003,0.23658 -11.68377,0.21787 -3.16375,-0.0187 -6.63838,0.16681 -7.72139,0.41226 -1.36529,0.3094 -1.56127,0.0719 -0.6391,-0.77456 z m 40.29353,3.42446 c 3.40384,-1.52874 18.93414,-2.47835 34.47915,-2.10823 8.42177,0.20052 16.68058,0.0105 18.35297,-0.42189 1.75012,-0.45267 2.97978,-0.29042 2.89716,0.38227 -0.25029,2.03816 -7.58703,2.74813 -21.49759,2.08035 -7.42049,-0.35624 -17.97175,-0.18492 -23.44725,0.3807 -10.72952,1.10836 -13.75406,1.02052 -10.78444,-0.3132 z m -57.07031,-10.95679 c 2.03509,-0.71578 4.7411,-1.12895 6.01334,-0.91814 2.31316,0.38328 2.31316,0.38328 -0.12889,1.0496 -1.34314,0.36647 -4.04913,0.77963 -6.01335,0.91816 l -3.57128,0.25184 z m 9.97592,-1.35336 c 0.88215,-0.24634 1.8753,-0.0451 2.20697,0.44731 0.33168,0.49236 -0.39008,0.6939 -1.6039,0.44788 -1.34139,-0.27186 -1.57791,-0.62296 -0.60307,-0.89519 z m 8.42608,-1.34563 c 0.88214,-0.24634 1.87529,-0.0451 2.20696,0.44729 0.33168,0.49235 -0.39008,0.69389 -1.60391,0.44789 -1.34139,-0.27186 -1.5779,-0.62296 -0.60305,-0.89518 z m 7.3909,-0.72422 c 0.0797,-0.64902 1.18716,-1.01828 2.46101,-0.82055 1.27385,0.19772 2.2885,0.58411 2.2548,0.85862 -0.0337,0.27451 -1.14116,0.64376 -2.46101,0.82054 -1.31983,0.1768 -2.33449,-0.20957 -2.2548,-0.85861 z m 6.98527,-1.02464 c 0.88215,-0.24634 1.87528,-0.0451 2.20697,0.44731 0.33168,0.49235 -0.39009,0.69389 -1.60391,0.44788 -1.34139,-0.27186 -1.5779,-0.62296 -0.60306,-0.89519 z m 4.71635,-0.56706 c 0.84051,-0.23759 2.14331,-0.0353 2.89511,0.44938 0.75181,0.48473 0.0641,0.67913 -1.5282,0.43199 -1.59231,-0.24716 -2.20742,-0.64376 -1.36691,-0.88137 z m 6.02581,-0.4191 c 0.88215,-0.24632 1.87528,-0.0451 2.20697,0.44731 0.33168,0.49236 -0.39009,0.6939 -1.60391,0.44788 -1.34139,-0.27186 -1.5779,-0.62295 -0.60306,-0.89519 z m 14.21629,-0.4469 c 0.88215,-0.24634 1.8753,-0.045 2.20697,0.4473 0.33168,0.49235 -0.39008,0.69389 -1.6039,0.44788 -1.34139,-0.27186 -1.57791,-0.62295 -0.60307,-0.89518 z m 10.84929,-0.0566 c 2.98613,-0.59199 13.7912,0.35972 12.7451,1.12258 -0.29705,0.21661 -3.96659,0.18753 -8.15455,-0.0647 -4.56903,-0.27511 -6.40503,-0.69824 -4.59055,-1.05796 z m 14.92628,0.81882 c 0.89481,-0.76784 1.87836,-1.02283 2.18569,-0.56664 0.30732,0.4562 -0.42479,1.08442 -1.62692,1.39606 -1.73721,0.45037 -1.85186,0.28019 -0.55877,-0.82942 z m 8.97431,1.55758 c -1.43656,-0.97483 -1.584,-1.41096 -0.43284,-1.28036 0.96023,0.10896 2.45781,0.88729 3.32795,1.72972 1.928,1.86658 0.0996,1.58277 -2.89511,-0.44936 z"
     id="path3904"
     inkscape:connector-curvature="0"
     sodipodi:nodetypes="cssssscccssssssssscssssssssssssssssssssssssssscssscsssssssssssssssssssscssscssscssscssssscsssssssssssssssssssssssssscscccssscssssssssssssscssssssscsssscsssccsscsccsccssssssssssscssssscscccssssccsssscsssssscssssscsscssssssccsccssssssssssssssssssssssscccsssssssssscscccsscccscsscccccscccssccscsssssssssscsssscscsssscssssssssssscsssssccccssccssssssscssccsscsscscscscssscsssscsscsscssccssssscss" />
</svg>
