<?xml version="1.0" encoding="UTF-8" standalone="no"?>
<!-- Created with Inkscape (http://www.inkscape.org/) -->

<svg
   xmlns:dc="http://purl.org/dc/elements/1.1/"
   xmlns:cc="http://creativecommons.org/ns#"
   xmlns:rdf="http://www.w3.org/1999/02/22-rdf-syntax-ns#"
   xmlns:svg="http://www.w3.org/2000/svg"
   xmlns="http://www.w3.org/2000/svg"
   xmlns:sodipodi="http://sodipodi.sourceforge.net/DTD/sodipodi-0.dtd"
   xmlns:inkscape="http://www.inkscape.org/namespaces/inkscape"
   id="svg29391"
   version="1.1"
   inkscape:version="0.48.4 r9939"
   width="503"
   height="500"
   sodipodi:docname="Bow.svg">
  <metadata
     id="metadata29397">
    <rdf:RDF>
      <cc:Work
         rdf:about="">
        <dc:format>image/svg+xml</dc:format>
        <dc:type
           rdf:resource="http://purl.org/dc/dcmitype/StillImage" />
        <dc:title />
      </cc:Work>
    </rdf:RDF>
  </metadata>
  <defs
     id="defs29395" />
  <sodipodi:namedview
     pagecolor="#ffffff"
     bordercolor="#666666"
     borderopacity="1"
     objecttolerance="10"
     gridtolerance="10"
     guidetolerance="10"
     inkscape:pageopacity="0"
     inkscape:pageshadow="2"
     inkscape:window-width="664"
     inkscape:window-height="736"
     id="namedview29393"
     showgrid="false"
     inkscape:zoom="0.64307206"
     inkscape:cx="231.14395"
     inkscape:cy="215.12623"
     inkscape:window-x="17"
     inkscape:window-y="22"
     inkscape:window-maximized="0"
     inkscape:current-layer="svg29391" />
  <path
     style="fill:#562115;fill-opacity:1;stroke:none"
     d="m 294.38277,400.56493 5.30205,1.13615 c -10.10906,42.21215 -32.42879,55.78195 -32.19105,55.29288 -17.29465,13.93019 -38.56573,22.65984 -65.13956,26.95397 -13.38327,-0.29502 -24.81379,-2.87482 -36.08916,-7.06175 -13.50491,-7.48015 -26.40571,-15.56442 -41.92681,-21.02838 -6.39811,2.49059 -18.06565,-1.84728 -19.71239,-3.81016 l -3.45834,2.51319 c -15.677115,2.12159 -35.669156,-9.72898 -44.619847,14.1734 l -9.08924,0.37872 4.165902,10.80298 c -9.982004,2.41556 -21.46997,9.46318 -29.849828,6.95083 -3.591249,-7.90579 -1.222684,-15.18424 1.870619,-22.38638 3.978957,-6.78762 9.523195,-13.57523 18.132533,-20.36284 l 60.973651,-26.13157 2.65103,3.40846 c 13.20712,4.49306 21.4288,10.35762 24.63966,19.1348 4.40266,0.95986 5.37502,3.52678 7.38823,5.81047 9.9842,11.32565 19.92215,22.0057 37.4994,26.36155 16.29973,5.3219 34.51403,3.59365 49.52416,-0.89134 10.35162,-2.55333 20.56936,-8.3033 30.921,-13.30108 11.00398,-10.20424 21.3988,-21.01765 29.91874,-33.70593 4.30622,-7.65383 7.96938,-15.52202 9.08925,-24.23797 z"
     id="path29919"
     inkscape:connector-curvature="0"
     sodipodi:nodetypes="cccccccccccccccccsccccc" />
  <path
     style="fill:#084a0d;fill-opacity:1;stroke:none"
     d="m 290.9743,377.08439 14.77002,3.02975 c 2.01574,-17.45363 2.74193,-35.22963 12.4977,-50.74825 11.55979,-18.89184 30.76844,-27.00574 53.39928,-30.29747 3.07879,-2.87081 1.95439,-8.54375 2.27231,-13.25514 -25.99075,-6.27863 -46.17934,5.52356 -62.1098,16.09553 -11.94536,20.19927 -25.91428,38.43277 -20.82951,75.17558 z"
     id="path29911"
     inkscape:connector-curvature="0"
     sodipodi:nodetypes="ccccccc" />
  <path
     style="fill:#003b32;fill-opacity:1;stroke:none"
     d="m 290.68659,377.29621 c 4.41913,-1.55629 9.27825,1.72724 13.9253,2.67795 5.00964,6.38989 -3.01152,13.74503 -4.5525,20.62016 l -9.6406,-2.41016 c -1.26377,-8.4668 -2.66302,-17.31483 0.2678,-20.88795 z"
     id="path29913"
     inkscape:connector-curvature="0"
     sodipodi:nodetypes="ccccc" />
  <path
     style="fill:#003b32;fill-opacity:1;stroke:none"
     d="m 373.62957,285.81328 -0.75743,15.81148 14.39129,0.18936 5.39674,-3.12442 -0.28404,-8.71052 c -6.57844,-2.51865 -13.80821,-7.2704 -18.74656,-4.1659 z"
     id="path29915"
     inkscape:connector-curvature="0"
     sodipodi:nodetypes="cccccc" />
  <path
     style="fill:#562115;fill-opacity:1;stroke:none"
     d="m 392.18062,290.26306 0.53559,9.90839 c 18.65634,-5.61517 37.31268,-4.9545 55.96901,-24.36928 12.28277,-16.96845 27.51446,-32.59648 28.65399,-54.63003 1.26903,-15.9652 3.09516,-31.89327 -0.80339,-48.20297 -9.74843,-18.6548 -15.1564,-37.67129 -16.33545,-57.04019 l 2.14235,-8.30162 -5.89147,-23.833698 3.48133,-1.338971 c -4.83411,-9.561288 -1.2076,-20.077807 16.06765,-32.135315 l -3.48132,-9.908389 c 5.17269,-0.953308 10.42994,-0.807349 15.26427,-6.159269 L 484.83745,9.6146438 c -7.16308,-1.6727996 -13.09379,-0.6343793 -18.4778,1.6067662 -8.02672,7.067499 -13.56884,13.909126 -17.67443,20.62016 l -16.87104,61.592684 c 3.89191,10.566736 6.59973,21.873536 13.12192,30.796356 10.15465,17.27016 19.80273,34.59661 26.77943,52.21988 5.18137,38.8375 -4.69557,64.40327 -20.48627,84.7569 l -24.23538,21.82523 c -11.09243,5.99399 -23.04678,5.95469 -34.81326,7.23044 z"
     id="path29917"
     inkscape:connector-curvature="0"
     sodipodi:nodetypes="ccccccccccccccccccccc" />
  <path
     style="fill:#000000"
     d="m 20.221682,486.32857 c -1.562446,-4.10955 -1.17854,-12.7316 0.798571,-17.93494 2.777974,-7.31103 8.623494,-15.40007 14.374865,-19.89195 3.829726,-2.99105 5.60658,-5.20615 6.662886,-8.30624 0.792244,-2.32511 3.082947,-6.50168 5.090452,-9.28127 6.596641,-9.1337 16.317698,-21.44098 20.885861,-26.4424 2.468603,-2.70274 11.634275,-13.9008 20.368161,-24.8846 15.719452,-19.76891 18.647812,-23.21525 31.091272,-36.59092 3.51958,-3.78326 14.07086,-15.16294 23.44727,-25.28819 32.5476,-35.14699 145.35846,-148.5799 172.91718,-173.87068 72.60848,-74.436161 130.46862,-111.500938 138.89153,-121.961299 3.40554,-4.311931 8.0517,-8.863717 10.93808,-10.7159 4.50743,-2.8924079 5.74199,-3.2198955 12.13833,-3.2198955 8.3148,0 8.9609,0.5663713 8.98292,7.8744515 0.008,2.723562 0.49286,7.331796 1.07702,10.24052 1.46347,7.287149 0.24984,11.677648 -3.54229,12.81486 -1.58277,0.474652 -4.51421,1.554027 -6.5143,2.398612 l -3.63654,1.535608 2.17528,3.88804 2.17528,3.888039 -2.85915,2.060079 c -5.47422,3.9443 -10.47539,8.794521 -13.29713,12.895782 -3.2417,4.711651 -3.78321,10.713142 -1.38204,15.317025 1.34815,2.584871 1.31477,2.806916 -0.49308,3.27968 -2.36901,0.61951 -2.37213,0.331448 0.0876,8.07324 2.87676,9.054418 3.87355,18.487148 2.21049,20.917938 -3.96933,5.80168 1.63928,31.8631 11.30741,52.54194 4.39702,9.40464 5.23386,14.82283 5.27999,34.18621 0.0433,18.19665 -0.80375,24.38166 -5.35943,39.13124 -1.86085,6.02476 -13.55417,24.69533 -21.71892,34.67835 -4.03847,4.93782 -16.15764,14.03228 -22.33883,16.76348 -9.03895,3.99393 -24.24316,8.40204 -30.76636,8.91998 -3.69735,0.29358 -7.99022,1.35378 -10.17069,2.51185 -3.11987,1.65698 -4.8474,1.90352 -9.97988,1.42424 -3.41381,-0.31879 -7.14451,-1.0814 -8.29046,-1.69469 -2.61655,-1.40033 -7.67,-0.65597 -18.33906,2.70131 -17.31547,5.44873 -31.53586,18.52957 -38.52701,35.43964 -2.89328,6.99824 -6.28597,25.56597 -6.31299,34.55022 -0.0195,6.49313 -1.23874,8.68957 -4.00243,7.21048 -1.49622,-0.80075 -2.28822,0.1695 -5.69579,6.97761 -2.17686,4.34923 -3.95793,8.43303 -3.95793,9.07509 0,0.67545 1.30545,1.14107 3.09778,1.10491 2.78804,-0.0562 3.32464,-0.58016 5.36647,-5.23965 1.24777,-2.84744 1.82647,-4.90386 1.28599,-4.56982 -0.54048,0.33403 -0.98268,0.24853 -0.98268,-0.19 0,-1.36877 3.74998,-3.26567 4.39444,-2.22291 0.70715,1.14419 -4.09324,12.15844 -5.98239,13.7263 -0.73401,0.60918 -1.33457,2.72786 -1.33457,4.70818 0,12.05278 -12.90119,35.65032 -26.41866,48.32231 -2.88307,2.70275 -8.09141,6.61478 -11.57408,8.6934 -3.48266,2.07862 -7.99728,5.07188 -10.03248,6.65169 -5.04673,3.9175 -20.01998,9.91229 -33.68492,13.48633 -10.56323,2.76279 -12.17348,2.92945 -23.9876,2.48278 -11.1317,-0.42088 -13.5484,-0.83135 -19.97054,-3.39199 -9.21205,-3.67305 -21.51066,-10.11678 -27.51531,-14.41636 -2.54223,-1.82036 -6.64199,-3.76237 -9.11055,-4.31558 -2.46857,-0.55323 -5.72652,-1.64616 -7.23988,-2.42875 -1.51336,-0.78259 -5.99523,-1.63793 -9.9597,-1.90076 -7.25515,-0.48098 -13.62434,-2.42771 -14.94754,-4.56869 -0.4768,-0.77147 -0.98567,-0.42144 -1.53118,1.05321 -0.74633,2.01751 -1.25949,2.16123 -5.928153,1.6603 -2.811114,-0.30163 -9.554058,-0.83743 -14.984329,-1.19069 -9.270268,-0.60306 -10.209322,-0.48841 -15.376841,1.87736 -5.794911,2.653 -8.358897,6.30002 -8.358897,11.88972 0,2.03354 -0.434585,2.50124 -2.191889,2.35888 -4.311084,-0.3492 -7.549838,0.053 -7.549838,0.93755 0,0.49469 1.180224,2.30204 2.62272,4.01635 2.548701,3.02896 2.569985,3.15549 0.75414,4.48327 -2.97664,2.17657 -19.896272,7.30267 -25.999955,7.87715 -5.364794,0.50493 -5.612815,0.42545 -6.575666,-2.10703 z m 20.918293,-3.63533 c 4.822155,-1.64346 8.915912,-3.12311 9.097238,-3.28807 0.181325,-0.16497 -0.993438,-3.0741 -2.610586,-6.46475 -2.963163,-6.21279 -6.973738,-19.55212 -6.973738,-23.19491 0,-2.652 -0.454033,-2.52291 -5.410159,1.53826 -4.474831,3.66679 -10.996631,13.14563 -12.937376,18.80328 -1.584652,4.61958 -1.415869,10.36947 0.407914,13.89627 1.450846,2.80563 1.788232,2.94668 5.601493,2.34175 2.231713,-0.35404 8.003059,-1.98836 12.825214,-3.63183 z M 26.67423,481.4196 c -1.196004,-3.11673 0.904582,-3.72571 2.800994,-0.81204 1.360938,2.09097 1.416944,2.4348 0.239549,1.47062 -1.209646,-0.99058 -1.62243,-1.00106 -1.939701,-0.0493 -0.253463,0.76039 -0.662009,0.53425 -1.100842,-0.60933 z m 3.839428,-1.97973 c -0.877667,-1.33949 -1.445517,-2.43543 -1.26189,-2.43543 0.183626,0 1.286777,1.09594 2.451446,2.43543 1.164669,1.33949 1.73252,2.43543 1.261891,2.43543 -0.470631,0 -1.573781,-1.09594 -2.451447,-2.43543 z m 4.294195,0.48708 c -0.878014,-0.56741 -0.99817,-0.95029 -0.301036,-0.95925 0.638123,-0.008 1.431155,0.42346 1.762295,0.95925 0.747487,1.20947 0.410246,1.20947 -1.461259,0 z m 3.317046,-2.19188 -1.855787,-2.19189 2.191888,1.85579 c 2.059835,1.74398 2.635372,2.52798 1.855788,2.52798 -0.184857,0 -1.171206,-0.98635 -2.191889,-2.19188 z m 1.480086,-1.46126 -2.361701,-2.67898 2.678975,2.3617 c 2.503906,2.20737 3.125719,2.99625 2.361701,2.99625 -0.174501,0 -1.38004,-1.20554 -2.678975,-2.67897 z m 2.509163,-1.21772 c -1.711401,-1.89107 -1.701522,-1.94834 0.336101,-1.94834 1.154632,0 2.099331,0.18334 2.099331,0.4074 0,0.22408 0.26609,1.10084 0.591312,1.94835 0.827573,2.15662 -0.919096,1.92152 -3.026744,-0.40741 z m 175.838162,4.37425 c 12.85681,-3.06994 26.0413,-8.42837 33.60896,-13.65933 3.21477,-2.22213 8.57012,-5.66778 11.90079,-7.65698 12.45802,-7.44045 27.02432,-27.62526 32.31313,-44.77698 2.45197,-7.95176 2.63079,-11.34391 0.59803,-11.34391 -0.8037,0 -1.46126,0.63648 -1.46126,1.41438 0,3.3057 -5.91993,18.63907 -9.32787,24.16037 -4.45544,7.21839 -25.38138,28.73048 -32.08006,32.97866 -2.64034,1.67445 -8.63545,4.50789 -13.32248,6.29652 -4.68704,1.78864 -9.52373,3.89639 -10.74823,4.68391 -4.37297,2.81238 -18.92116,5.47808 -29.82366,5.46466 -14.87542,-0.0183 -26.63794,-2.63451 -38.0593,-8.46507 -7.78257,-3.97297 -10.30253,-5.9144 -16.81402,-12.95389 -5.64239,-6.09991 -7.878,-7.93792 -8.48944,-6.97959 -0.4565,0.71551 -1.1919,1.25142 -1.63421,1.19094 -0.44231,-0.0605 -0.90813,0.59807 -1.03515,1.4635 -0.12701,0.86541 -0.93271,2.34893 -1.79043,3.2967 -1.36637,1.50982 -1.3823,1.87028 -0.1286,2.91075 0.78699,0.65315 3.67406,1.77927 6.41573,2.50251 4.0475,1.06771 4.78644,1.07593 3.92978,0.0437 -0.58027,-0.6992 -2.46994,-1.60062 -4.19926,-2.00318 -1.84402,-0.42924 -2.50822,-0.89689 -1.60622,-1.13087 2.45123,-0.63587 6.88567,1.47803 7.42472,3.53936 0.65286,2.49657 10.05443,8.52489 22.71945,14.56782 12.83194,6.12257 15.27712,6.68274 29.69072,6.80183 9.35052,0.0772 13.73718,-0.39221 21.91888,-2.34585 z m -1.85118,-6.49627 c 4.88002,-1.01442 11.08512,-2.96549 13.78912,-4.3357 2.70401,-1.37022 6.80302,-3.05912 9.10895,-3.7531 9.52998,-2.8681 17.10029,-8.24279 29.38466,-20.86218 13.94511,-14.32543 17.63673,-19.85542 21.76186,-32.59887 l 3.02636,-9.34915 -2.53966,-3.01822 c -2.34447,-2.78625 -2.53967,-3.72541 -2.53967,-12.21901 0,-8.89664 0.0814,-9.23789 2.46337,-10.32317 2.29249,-1.04453 6.88368,-0.12918 13.76678,2.7447 0.75764,0.31633 1.12317,-0.91069 1.10832,-3.72034 -0.0395,-7.46393 3.15834,-26.85904 5.62717,-34.12948 3.64464,-10.73312 11.38319,-21.65363 20.01442,-28.24408 8.08439,-6.1729 15.7039,-10.26238 22.21617,-11.92367 3.34526,-0.85338 4.55436,-1.68996 5.05989,-3.50096 0.57951,-2.07598 0.67666,-2.12145 0.76138,-0.35644 0.0806,1.67943 0.59365,1.9503 3.01962,1.59424 1.83603,-0.26948 2.95111,-1.02162 2.99943,-2.02317 0.0487,-1.01024 0.2569,-1.14816 0.56826,-0.37652 0.27025,0.66974 1.71883,1.21771 3.21908,1.21771 3.0294,0 3.89278,-1.75755 3.91583,-7.97127 0.01,-2.59538 -0.46757,-3.74012 -1.72554,-4.13939 -3.70526,-1.176 -27.8587,1.16498 -32.84429,3.18331 -11.58847,4.6914 -21.25474,10.19087 -25.2606,14.37162 -12.24249,12.77697 -21.98677,40.87513 -21.98677,63.40001 0,5.88828 -0.35098,8.98761 -0.97418,8.60245 -0.54393,-0.33617 -0.97417,-4.88664 -0.97417,-10.3033 0,-23.07187 11.15489,-53.53144 23.75203,-64.85736 4.95889,-4.45846 21.36482,-12.99705 28.36621,-14.7634 9.84585,-2.48396 29.67087,-3.21667 32.1165,-1.18697 1.01729,0.84427 1.49246,0.89049 1.49246,0.14516 0,-2.33714 9.96936,0.23951 13.87496,3.5861 2.306,1.97593 15.81796,1.07999 27.32222,-1.81166 7.05635,-1.77365 9.36956,-2.8617 13.15134,-6.18593 2.5239,-2.21855 6.12325,-5.16965 7.99853,-6.55801 5.8944,-4.3639 16.6072,-15.99754 20.1942,-21.93006 10.05804,-16.63492 14.00405,-32.25632 14.23581,-56.35651 0.14377,-14.94983 0.0374,-15.87872 -2.60228,-22.73122 -3.25619,-8.45289 -9.87031,-21.17282 -16.29378,-31.33537 -7.86433,-12.44214 -15.88974,-28.90567 -18.07502,-37.07957 -0.92213,-3.44911 -2.28386,-6.77385 -3.02608,-7.388309 -1.1349,-0.939531 -0.96601,-2.060921 1.06207,-7.052063 1.32635,-3.264181 3.35075,-10.213868 4.49866,-15.443747 1.14791,-5.229878 3.34346,-14.111836 4.87899,-19.737684 2.97959,-10.916564 4.94933,-20.689051 4.30215,-21.344381 -55.86007,41.665106 -90.1033,71.809424 -131.43339,114.369894 -11.2517,10.33727 -31.19788,29.68991 -44.32486,43.00587 -13.12698,13.31596 -41.01104,41.30963 -61.96459,62.20817 -20.95354,20.89853 -42.18337,42.60029 -47.17738,48.22614 -4.99401,5.62585 -12.43665,13.73584 -16.53921,18.0222 -25.12052,26.24602 -36.0983,38.6754 -55.065641,62.34705 -9.015631,11.25169 -18.870101,23.30708 -21.898823,26.78975 -3.028722,3.48266 -9.047504,10.99218 -13.375071,16.68781 -10.974713,14.44411 -13.422969,19.44408 -8.282543,16.91506 8.760283,-4.30996 32.272795,-14.61309 41.645882,-18.24915 2.14318,-0.8314 6.476442,-2.69328 9.629473,-4.13751 4.607433,-2.11041 5.895313,-2.36944 6.560753,-1.31954 0.45537,0.71847 0.83468,1.58631 0.84288,1.92853 0.008,0.34221 1.44327,0.89018 3.18905,1.21768 6.53558,1.22609 22.15435,13.9344 22.15435,18.02604 0,0.5658 1.26358,1.68217 2.80796,2.48079 1.54437,0.79863 6.47612,5.46601 10.95944,10.37195 5.83572,6.38583 10.22714,10.1401 15.45778,13.215 15.62999,9.18828 36.54065,12.12883 56.59918,7.95923 z m 84.5316,-98.94839 c -1.21175,-1.5451 -1.17729,-1.57956 0.36781,-0.36781 1.62272,1.27263 2.13877,2.07261 1.33699,2.07261 -0.20229,0 -0.96945,-0.76716 -1.7048,-1.7048 z m 1.59651,-2.79892 c -0.92089,-1.40546 -1.19286,-2.2578 -0.60436,-1.89409 1.12458,0.69503 3.39272,4.44946 2.68803,4.44946 -0.22512,0 -1.16277,-1.14992 -2.08367,-2.55537 z m 0.67451,-3.33397 c -0.654,-1.04722 -0.7939,-1.90404 -0.31089,-1.90404 0.87458,0 2.38079,2.92727 1.80333,3.50473 -0.16684,0.16685 -0.83844,-0.55346 -1.49244,-1.60069 z m -0.19841,-6.7749 c -0.5735,-1.07159 -0.82354,-1.94835 -0.55564,-1.94835 0.2679,0 0.95631,0.87676 1.52981,1.94835 0.5735,1.07159 0.82354,1.94834 0.55564,1.94834 -0.2679,0 -0.95632,-0.87675 -1.52981,-1.94834 z m 1.55084,-4.38378 c -0.87767,-1.33949 -1.21764,-2.43543 -0.7555,-2.43543 0.46215,0 1.33961,1.09594 1.94992,2.43543 0.61031,1.33949 0.95028,2.43543 0.7555,2.43543 -0.19479,0 -1.07226,-1.09594 -1.94992,-2.43543 z m 0.7038,-6.08858 c -0.33369,-0.93764 -0.78419,-2.03358 -1.00109,-2.43543 -0.2169,-0.40185 0.0188,-0.73063 0.52374,-0.73063 0.50495,0 1.12759,1.09594 1.38365,2.43543 0.53574,2.80251 -0.0119,3.24395 -0.9063,0.73063 z m 1.22455,-5.67108 c -0.35832,-1.42766 -0.46362,-2.78362 -0.23399,-3.01325 0.22962,-0.22962 0.71067,0.75059 1.06899,2.17825 0.35832,1.42766 0.46362,2.78362 0.23399,3.01325 -0.22963,0.22963 -0.71067,-0.75059 -1.06899,-2.17825 z m 2.47885,-4.47805 c -0.0622,-0.89383 -0.3653,-2.42815 -0.67365,-3.40961 -0.53139,-1.69138 -0.50256,-1.69394 0.55263,-0.0491 0.61229,0.95448 0.91543,2.4888 0.67364,3.40961 -0.39604,1.50826 -0.45081,1.51313 -0.55262,0.0491 z m 0.49443,-8.15427 c -0.94006,-2.44974 -0.66274,-3.08184 0.48565,-1.10699 0.56862,0.97783 0.82863,1.98308 0.57781,2.23391 -0.25082,0.25082 -0.72938,-0.2563 -1.06346,-1.12692 z m 3.36617,-5.88855 c 0.0468,-1.13486 0.27758,-1.36569 0.58855,-0.58857 0.28141,0.70323 0.24681,1.54346 -0.0769,1.86717 -0.32371,0.32371 -0.55395,-0.25167 -0.51166,-1.2786 z m 2.92251,-4.87086 c 0.0468,-1.13487 0.27758,-1.3657 0.58856,-0.58857 0.28141,0.70323 0.24681,1.54346 -0.0769,1.86717 -0.32371,0.32371 -0.55396,-0.25167 -0.51166,-1.2786 z m 2.58376,-1.302 c -0.42373,-1.62039 -0.29695,-2.00073 0.42595,-1.27783 0.56609,0.56609 0.83758,1.60429 0.60331,2.3071 -0.2432,0.7296 -0.68478,0.28801 -1.02926,-1.02927 z m 3.18437,-3.97478 c 0,-1.07159 0.16806,-1.94834 0.37347,-1.94834 0.2054,0 0.60274,0.87675 0.88297,1.94834 0.28023,1.07159 0.11216,1.94835 -0.37347,1.94835 -0.48564,0 -0.88297,-0.87676 -0.88297,-1.94835 z m 3.9736,-4.46495 c 0.0468,-1.13486 0.27758,-1.36569 0.58856,-0.58857 0.28141,0.70323 0.2468,1.54346 -0.0769,1.86717 -0.3237,0.32371 -0.55395,-0.25167 -0.51165,-1.2786 z m 7.79986,-3.32843 c -0.0294,-0.80369 0.37139,-2.11882 0.89078,-2.92252 1.15081,-1.78075 1.15081,-0.24265 0,2.43544 -0.55204,1.28468 -0.85547,1.4506 -0.89078,0.48708 z m 3.89669,-2.92252 c -0.0294,-0.80369 0.37139,-2.11882 0.89078,-2.92251 1.15081,-1.78076 1.15081,-0.24266 0,2.43543 -0.55204,1.28468 -0.85547,1.4506 -0.89078,0.48708 z m 2.83913,-1.40376 c 0,-0.77207 0.39749,-1.64943 0.88332,-1.94969 0.48583,-0.30026 0.65388,0.33143 0.37347,1.40376 -0.59484,2.27469 -1.25679,2.56223 -1.25679,0.54593 z m 3.9736,-3.06119 c 0.0468,-1.13486 0.27758,-1.36569 0.58856,-0.58857 0.28141,0.70323 0.2468,1.54346 -0.0769,1.86717 -0.32371,0.32371 -0.55396,-0.25167 -0.51166,-1.2786 z m 2.84561,-0.34841 c 0,-0.50418 0.43336,-1.18452 0.96302,-1.51186 0.55222,-0.34129 0.71553,0.0498 0.38286,0.91668 -0.64762,1.68767 -1.34588,1.99646 -1.34588,0.59518 z m 3.9736,-2.57411 c 0.0468,-1.13486 0.27758,-1.36569 0.58856,-0.58856 0.28141,0.70322 0.2468,1.54346 -0.0769,1.86716 -0.3237,0.32371 -0.55395,-0.25166 -0.51165,-1.2786 z m 3.89669,-0.97417 c 0.0468,-1.13486 0.27758,-1.36569 0.58856,-0.58857 0.28141,0.70323 0.2468,1.54346 -0.0769,1.86717 -0.3237,0.32371 -0.55395,-0.25167 -0.51165,-1.2786 z M 58.002079,463.77882 c 0.862991,-3.22663 2.130465,-5.00021 5.122062,-7.16731 6.010975,-4.35432 12.470754,-5.44678 24.272174,-4.10483 15.510205,1.76369 14.495065,2.10283 13.421585,-4.48388 -1.241584,-7.61813 -0.41979,-22.59979 1.44468,-26.33721 1.49135,-2.9895 1.48788,-2.99826 -0.8375,-2.11416 -1.28428,0.48829 -3.594982,1.53933 -5.134894,2.33565 -1.539912,0.79632 -8.660575,3.84087 -15.823694,6.76567 -12.438403,5.07876 -31.012785,13.41322 -35.673369,16.00689 -2.7455,1.52792 -2.775562,3.87965 -0.173719,13.58988 2.503141,9.34187 3.572486,10.6231 8.47602,10.15547 3.528343,-0.33648 3.830517,-0.62262 4.906655,-4.64617 z m -6.815948,-1.07827 c 0.703231,-0.28141 1.543455,-0.2468 1.867165,0.0769 0.323708,0.32371 -0.251662,0.55396 -1.278602,0.51166 -1.134856,-0.0468 -1.365693,-0.27758 -0.588563,-0.58856 z m 1.15683,-3.20065 c 0,-0.51897 0.657567,-0.69127 1.461259,-0.38286 0.803693,0.30841 1.461259,0.73302 1.461259,0.9436 0,0.21057 -0.657566,0.38286 -1.461259,0.38286 -0.803692,0 -1.461259,-0.42462 -1.461259,-0.9436 z m 2.49125,-1.57148 c -1.039205,-0.75988 -1.476894,-1.3749 -0.972641,-1.36669 1.346557,0.0219 3.858655,1.75175 3.32251,2.2879 -0.253223,0.25321 -1.310664,-0.16132 -2.349869,-0.92121 z m 0.918354,-2.35578 c -0.76198,-1.23292 0.52764,-1.23292 2.435432,0 1.2593,0.81382 1.233587,0.9464 -0.18605,0.95926 -0.906021,0.008 -1.918242,-0.42347 -2.249382,-0.95926 z m 2.252775,-2.61381 c 0.703231,-0.28141 1.543455,-0.24681 1.867164,0.0769 0.323709,0.32371 -0.251662,0.55395 -1.278601,0.51165 -1.134856,-0.0468 -1.365693,-0.27758 -0.588563,-0.58855 z m 1.887459,-1.92806 c 0.669744,-0.27024 1.765688,-0.27024 2.435432,0 0.669744,0.27025 0.121772,0.49136 -1.217716,0.49136 -1.339487,0 -1.887459,-0.22111 -1.217716,-0.49136 z m 4.627321,-1.30317 c -0.33114,-0.53579 -0.163695,-0.97417 0.3721,-0.97417 0.535795,0 1.245105,0.43838 1.576245,0.97417 0.33114,0.5358 0.163694,0.97417 -0.372101,0.97417 -0.535795,0 -1.245105,-0.43837 -1.576244,-0.97417 z m 17.184738,-0.1434 c -4.990497,-1.43612 -3.032257,-1.98928 2.511884,-0.70954 2.688755,0.62065 6.042221,0.83891 7.452145,0.48505 2.240157,-0.56225 2.576199,-1.16328 2.664182,-4.76507 l 0.100684,-4.12168 1.007736,3.8116 c 0.868107,3.28348 0.76087,3.99211 -0.773963,5.1144 -2.03192,1.48578 -8.140045,1.57307 -12.962668,0.18524 z m -12.800961,-0.83077 c -1.259301,-0.81382 -1.233587,-0.9464 0.18605,-0.95926 0.906021,-0.008 1.918242,0.42346 2.249381,0.95926 0.761981,1.23291 -0.527639,1.23291 -2.435431,0 z m 55.839723,3.16606 c 2.11686,-3.38482 4.55898,-9.28652 4.55898,-11.01734 0,-1.91876 -8.08083,-10.63935 -12.46685,-13.45385 -4.92859,-3.16267 -10.67854,-5.03371 -9.47255,-3.08239 0.86662,1.40224 -0.76139,1.26176 -2.43778,-0.21034 -0.76268,-0.66974 -0.56323,-0.23137 0.44324,0.97417 1.13825,1.3634 1.38291,2.19189 0.64729,2.19189 -0.65046,0 -0.93044,0.40809 -0.62219,0.90686 0.30827,0.49877 0.14524,1.16349 -0.36227,1.47715 -0.50752,0.31366 -1.23996,0.057 -1.62767,-0.5703 -0.46994,-0.76038 -0.27985,-0.87786 0.57029,-0.35245 0.85014,0.52541 1.04023,0.40792 0.57029,-0.35246 -1.35666,-2.19513 -2.43941,-0.0291 -2.14214,4.28527 0.16994,2.46635 1.06302,5.19552 2.06102,6.29831 1.63311,1.80456 1.56095,2.30469 -0.24562,1.70249 -0.40185,-0.13394 -0.61018,-0.60491 -0.46295,-1.04658 0.14722,-0.44167 -0.17544,-0.52918 -0.71703,-0.19445 -1.02546,0.63376 -0.9355,3.17295 0.17536,4.94985 0.35411,0.56641 0.52011,1.87279 0.36889,2.90308 -0.5364,3.65474 7.12818,8.04282 14.26192,8.16512 4.31122,0.0739 4.76554,-0.16142 6.89977,-3.57403 z m -10.37253,1.73387 c -2.0507,-0.39657 -4.68096,-1.70232 -5.84504,-2.90165 l -2.11651,-2.18061 3.88227,2.03951 c 2.13525,1.12173 5.33935,2.03951 7.12024,2.03951 1.91059,0 2.99116,0.39936 2.63591,0.97417 -0.33114,0.5358 -0.90499,0.92376 -1.27521,0.86215 -0.37023,-0.0616 -2.35097,-0.4365 -4.40166,-0.83308 z m -10.06854,-17.80772 c -1.14796,-1.83756 -1.25826,-3.74072 -0.1781,-3.07315 0.5244,0.3241 0.70891,0.83383 0.41002,1.13273 -0.2989,0.29889 -0.0552,1.13175 0.54155,1.85079 0.59675,0.71904 0.83801,1.30735 0.53613,1.30735 -0.30188,0 -0.89121,-0.54798 -1.3096,-1.21772 z m 27.50146,16.55069 c 0.12992,-0.88519 -0.48934,-2.17656 -1.37614,-2.86971 -1.4716,-1.15025 -1.48479,-1.09553 -0.1511,0.62692 1.31781,1.70194 1.30334,1.8281 -0.14744,1.28517 -1.48455,-0.55557 -1.61625,-0.11756 -0.90126,2.99739 0.23203,1.0109 2.37755,-0.68804 2.57594,-2.03977 z m 4.0234,-5.98734 c -0.16471,-0.49413 -1.3496,-1.59351 -2.63309,-2.44305 -2.16454,-1.43271 -2.28728,-1.42337 -1.69396,0.12897 0.35182,0.92048 0.19914,1.94586 -0.33926,2.27862 -0.64032,0.39573 -0.59687,1.06537 0.12562,1.93591 0.87655,1.05619 1.4901,1.09013 2.97236,0.16444 1.0273,-0.64155 1.73305,-1.57076 1.56833,-2.06489 z m -4.03795,1.45347 c -0.31367,-0.50751 -0.15506,-1.17938 0.35245,-1.49304 0.50752,-0.31366 1.17939,-0.15506 1.49304,0.35246 0.31366,0.50751 0.15506,1.17938 -0.35246,1.49304 -0.50751,0.31366 -1.17938,0.15506 -1.49303,-0.35246 z m 164.90283,-59.13393 c 2.28957,-4.61656 4.02791,-8.5287 3.86297,-8.69364 -0.16495,-0.16495 -1.61176,-0.44275 -3.21514,-0.61735 -2.60257,-0.28341 -3.14604,0.15274 -5.06698,4.06632 -3.16331,6.44467 -2.61115,7.22369 0.69047,0.97417 3.76522,-7.12706 3.70604,-5.32987 -0.0861,2.61593 -1.65476,3.46723 -2.75574,6.55699 -2.44662,6.86611 0.30912,0.30913 1.94246,-2.56327 3.62964,-6.38309 1.68718,-3.81982 3.47428,-6.69378 3.97133,-6.38659 0.50653,0.31305 0.29219,1.26535 -0.48765,2.16664 -0.76526,0.88444 -2.17398,3.70469 -3.13047,6.26722 -0.9565,2.56253 -2.11244,4.88987 -2.56876,5.1719 -1.0381,0.64158 -1.09085,2.34613 -0.0726,2.34613 0.41639,0 2.63037,-3.77719 4.91995,-8.39375 z m -4.20638,-8.16719 1.71842,-3.4096 -2.08163,1.85579 c -1.14488,1.02068 -2.08161,2.73766 -2.08161,3.8155 0,2.35204 0.22392,2.1449 2.44482,-2.26169 z m 87.52135,-81.09062 c -0.27329,-0.44221 0.43246,-2.37915 1.56834,-4.30432 1.13588,-1.92518 1.87607,-3.68951 1.64485,-3.92073 -0.45036,-0.45036 -3.53679,3.67888 -5.36765,7.18122 -0.96791,1.85158 -0.86698,2.11287 0.76857,1.98967 1.03554,-0.078 1.6592,-0.50363 1.38589,-0.94584 z m 7.46502,-3.68969 c 2.1729,-4.25924 2.38584,-5.23755 0.94633,-4.34789 -0.96768,0.59807 -4.85694,7.62686 -4.85694,8.77764 0,1.45456 2.15265,-0.98385 3.91061,-4.42975 z m 1.89647,2.76612 c 1.09247,-1.17263 1.98102,-3.25492 1.97456,-4.62732 -0.0104,-2.21617 -0.28284,-2.02105 -2.43543,1.74438 -3.30119,5.77463 -3.14475,6.75313 0.46087,2.88294 z M 379.154,294.73796 c 4.92847,-6.86009 4.97324,-7.19672 1.11451,-8.381 -3.4081,-1.04598 -5.51402,-0.23494 -5.44342,2.09635 0.0171,0.56259 0.67462,0.17194 1.46126,-0.86811 1.81926,-2.40527 1.80772,-1.68571 -0.044,2.7462 -1.89084,4.52541 -1.19533,4.48672 1.9263,-0.10717 1.35881,-1.99966 2.47055,-3.29349 2.47055,-2.87518 0,0.41831 -1.73292,3.36954 -3.85093,6.55827 -4.79574,7.22011 -2.74252,7.94101 2.36578,0.83064 z m 6.42343,-1.01013 c 1.61881,-3.17314 1.78808,-4.19403 0.79694,-4.80659 -1.41995,-0.87759 -2.8127,-0.30467 -2.8127,1.15702 0,0.5358 0.48534,0.67422 1.07854,0.30761 0.7409,-0.45791 0.85344,0.0578 0.35948,1.6473 -0.39549,1.27264 -1.32844,2.66962 -2.07321,3.10439 -0.74477,0.43477 -1.09985,1.20194 -0.78907,1.7048 0.90688,1.46735 1.27045,1.13818 3.44002,-3.11453 z m 25.09964,1.03338 c 17.75099,-4.75645 33.48409,-13.57649 40.0927,-22.47613 16.2656,-21.90452 20.2893,-28.9936 23.41843,-41.25925 3.32255,-13.02389 4.2773,-25.61315 3.11814,-41.1156 -0.98022,-13.10916 -1.23492,-14.23098 -5.40968,-23.82628 -2.40958,-5.53817 -5.25362,-12.2613 -6.32009,-14.94028 -2.25029,-5.65274 -6.02943,-23.95738 -6.02943,-29.20419 0,-1.97612 -0.32878,-3.44653 -0.73063,-3.26757 -0.40185,0.17895 -3.24191,1.78636 -6.31126,3.57201 l -5.58063,3.24661 1.30461,3.12239 c 0.71754,1.7173 3.53978,6.68888 6.27167,11.04792 6.25877,9.98666 13.93603,25.16353 16.89635,33.40172 2.03861,5.67318 2.26417,7.90343 2.16756,21.4318 -0.17799,24.92341 -3.76218,39.35313 -14.09513,56.74604 -4.71466,7.93597 -14.09124,18.0445 -22.93311,24.72332 -3.41804,2.58186 -6.21461,4.99116 -6.21461,5.35401 0,2.86822 -16.49239,7.93647 -29.95581,9.20566 l -7.06275,0.66581 0,3.34937 0,3.34937 5.1144,-0.60612 c 2.81293,-0.33337 8.32959,-1.46765 12.25927,-2.52061 z m 43.61988,-176.43433 c 2.37618,-1.70642 4.27602,-3.86308 4.27602,-4.854 0,-0.98075 0.43837,-1.7832 0.97417,-1.7832 0.54158,0 0.97417,-2.60464 0.97417,-5.86558 0,-6.589855 -3.82324,-21.138101 -5.04817,-19.209386 -0.60833,0.957858 -0.77011,0.955791 -0.78195,-0.01 -0.008,-0.669744 -0.50304,-1.217716 -1.09966,-1.217716 -0.63695,0 -0.91751,1.139397 -0.67963,2.760156 0.26788,1.825217 -0.0246,2.760156 -0.8636,2.760156 -0.69779,0 -1.26871,-1.022881 -1.26871,-2.27307 0,-1.371057 -0.57987,-2.273069 -1.46126,-2.273069 -0.8037,0 -1.46126,0.438378 -1.46126,0.974173 0,0.535795 -0.50916,0.864578 -1.13148,0.730629 -0.62232,-0.133949 -1.45537,0.852401 -1.85123,2.191889 -0.44797,1.515754 -0.75644,1.803203 -0.81688,0.761204 -0.14191,-2.446699 -3.00416,-1.024039 -3.0881,1.534911 -0.0666,2.0304 -0.0914,2.034219 -0.90569,0.139316 -0.76863,-1.788687 -0.84407,-1.748772 -0.92063,0.487087 -0.0678,1.981457 -0.27196,2.163043 -1.09501,0.974172 -0.83298,-1.203229 -0.95311,-1.11722 -0.68025,0.487087 0.18226,1.07159 -0.31128,2.438403 -1.09674,3.037363 -1.23995,0.945532 -1.13393,1.972398 0.8046,7.793378 1.22801,3.6874 3.54459,9.19671 5.14798,12.2429 2.724,5.17518 3.0754,5.47766 5.35628,4.61047 1.34256,-0.51045 4.36523,-2.30994 6.71703,-3.99889 z m -9.6904,-2.56471 c -1.86514,-2.06096 -5.627,-12.84005 -4.48113,-12.84005 0.4258,0 1.45268,2.33392 2.28194,5.18649 0.82926,2.85256 2.39469,5.98915 3.47873,6.97019 1.9024,1.72165 2.03877,1.72236 3.91932,0.0205 2.06442,-1.86827 2.76904,-0.72328 0.77934,1.26642 -1.68544,1.68545 -4.13004,1.43864 -5.9782,-0.60354 z m 1.37908,-26.07256 c 0.0468,-1.134856 0.27758,-1.365693 0.58856,-0.588563 0.28141,0.703231 0.24681,1.543454 -0.0769,1.867164 -0.32371,0.323711 -0.55396,-0.251662 -0.51166,-1.278601 z m 2.84561,-5.563476 c 2.41108,-0.839583 5.52765,-1.76898 6.92572,-2.065328 2.49116,-0.528051 2.52287,-0.635181 1.58794,-5.363639 -0.82304,-4.162555 -0.66807,-5.415437 1.12894,-9.127592 2.27843,-4.706587 7.19564,-10.277918 13.23875,-14.999844 l 3.88498,-3.035622 -2.12015,-3.972038 c -1.18927,-2.228062 -1.71879,-4.220097 -1.20601,-4.537012 1.52557,-0.942852 1.02348,-4.221391 -0.79066,-5.162846 -2.63456,-1.367223 -19.26279,-4.171682 -20.9335,-3.530571 -0.90626,0.347767 -1.93872,2.922642 -2.64591,6.598755 -0.63785,3.315647 -2.20613,9.535472 -3.48506,13.821831 -1.27893,4.28636 -3.49195,13.053914 -4.91783,19.483454 -1.42588,6.42954 -3.40941,13.771023 -4.40785,16.314407 l -1.81534,4.624334 5.5861,-3.760888 c 3.07236,-2.068487 7.5588,-4.447818 9.96988,-5.287401 z m -8.33468,-3.966251 c -0.58983,-2.350077 1.23934,-10.960485 2.1376,-10.06223 0.27173,0.271739 0.0262,2.179095 -0.54569,4.238568 -1.40443,5.057837 -1.31942,6.179929 0.46814,6.179929 0.83532,0 1.24782,0.438378 0.91668,0.974173 -1.03288,1.671224 -2.37378,1.071911 -2.97673,-1.33044 z m 15.60092,-19.191999 c -0.35317,-0.571442 -0.4332,-1.247916 -0.17784,-1.503274 0.25535,-0.255359 0.72387,0.212185 1.04115,1.038986 0.65871,1.716596 0.0973,2.018542 -0.86331,0.464288 z M 459.02,59.019538 c -0.35317,-0.571442 -0.4332,-1.247915 -0.17784,-1.503273 0.25535,-0.255359 0.72387,0.212185 1.04115,1.038985 0.65871,1.716597 0.0973,2.018543 -0.86331,0.464288 z m 4.50074,-5.374318 c 0.0468,-1.134855 0.27758,-1.365692 0.58856,-0.588563 0.28141,0.703231 0.2468,1.543455 -0.0769,1.867165 -0.32371,0.323709 -0.55396,-0.251662 -0.51166,-1.278602 z m 1.87144,-3.270931 c 0,-0.504174 0.43336,-1.184509 0.96301,-1.511855 0.55222,-0.341291 0.71553,0.04974 0.38286,0.91668 -0.64762,1.687673 -1.34587,1.996457 -1.34587,0.595175 z m 3.4096,-2.98001 c -0.33114,-0.535795 -0.13783,-0.974173 0.42959,-0.974173 0.56742,0 1.03167,0.438378 1.03167,0.974173 0,0.535795 -0.19332,0.974172 -0.42959,0.974172 -0.23628,0 -0.70053,-0.438377 -1.03167,-0.974172 z m 17.31164,-13.169906 c 0.6757,-1.207399 0.63621,-3.673924 -0.12494,-7.804873 -0.61207,-3.321785 -1.11285,-7.983684 -1.11285,-10.359775 0,-5.457718 -1.23014,-6.6581805 -6.82278,-6.6581805 -7.0369,0 -13.6852,3.8855025 -20.4991,11.9804205 -3.19,3.789711 -5.79999,7.24742 -5.79999,7.683795 0,0.436376 0.97633,0.79341 2.16963,0.79341 3.50127,0 17.6823,3.164491 19.12011,4.266644 0.72556,0.556179 1.68835,1.982176 2.13954,3.168882 0.81903,2.154204 0.82762,2.154885 5.38141,0.426295 2.50859,-0.952245 5.00563,-2.525723 5.54897,-3.496618 z m -7.08283,-16.055274 c -0.87801,-0.567417 -0.99816,-0.950292 -0.30104,-0.959256 0.63813,-0.0082 1.43116,0.423461 1.7623,0.959256 0.74748,1.209459 0.41025,1.209459 -1.46126,0 z m -1.15683,-5.536335 c 0.70323,-0.28141 1.54346,-0.246801 1.86717,0.07691 0.32371,0.32371 -0.25167,0.553955 -1.2786,0.511655 -1.13486,-0.04674 -1.36569,-0.277582 -0.58857,-0.588566 z M 295.88613,397.61794 c 0,-1.16428 6.16899,-14.13485 6.54425,-13.75959 0.23024,0.23024 -0.21573,1.6649 -0.99106,3.18813 -0.77532,1.52322 -1.70042,3.86545 -2.05577,5.20493 -0.60355,2.27512 -0.54253,2.25342 0.92701,-0.32967 0.86519,-1.5208 1.76822,-2.56995 2.00673,-2.33145 0.70707,0.70708 -3.89621,7.99768 -5.21701,8.26262 -0.66779,0.13395 -1.21415,0.0283 -1.21415,-0.23497 z"
     id="path29909"
     inkscape:connector-curvature="0"
     sodipodi:nodetypes="sssssssssccsscssscccssssssssssssssssssssscssssssssssssssssssssssssssssssssssssscsscccsssssscssscsssscsssssssssssssssssssssscsssscssssssssssscssssssssscscsscssssssssssssssssssscsssccssssssssssscsssssssssssssssscssssssssssscssscsssssssssssssscsccccscccssssssssscsccccssccsscsssscscccsscscsccccscccsssssssssssscccccsssssscsssssscccccssssssssssssscsssscssssssssssccssssssssssssscssscsssscsssssssssssssssccccccssssscssssssccscssscsssccsssssssscscsssssccsssssscsssssssssscsssssssscccssssssscssssssssscccssssssscssssscccscccssssscsssssssscsssscsssccscccsccscccssssssssssssssssssssscssssssscssscss" />
</svg>
