<?xml version="1.0" encoding="UTF-8" standalone="no"?>
<!-- Created with Inkscape (http://www.inkscape.org/) -->

<svg
   xmlns:dc="http://purl.org/dc/elements/1.1/"
   xmlns:cc="http://creativecommons.org/ns#"
   xmlns:rdf="http://www.w3.org/1999/02/22-rdf-syntax-ns#"
   xmlns:svg="http://www.w3.org/2000/svg"
   xmlns="http://www.w3.org/2000/svg"
   xmlns:sodipodi="http://sodipodi.sourceforge.net/DTD/sodipodi-0.dtd"
   xmlns:inkscape="http://www.inkscape.org/namespaces/inkscape"
   id="svg4507"
   version="1.1"
   inkscape:version="0.48.4 r9939"
   width="471.73489"
   height="308.00018"
   sodipodi:docname="Bread.svg">
  <metadata
     id="metadata4513">
    <rdf:RDF>
      <cc:Work
         rdf:about="">
        <dc:format>image/svg+xml</dc:format>
        <dc:type
           rdf:resource="http://purl.org/dc/dcmitype/StillImage" />
        <dc:title />
      </cc:Work>
    </rdf:RDF>
  </metadata>
  <defs
     id="defs4511" />
  <sodipodi:namedview
     pagecolor="#ffffff"
     bordercolor="#666666"
     borderopacity="1"
     objecttolerance="10"
     gridtolerance="10"
     guidetolerance="10"
     inkscape:pageopacity="0"
     inkscape:pageshadow="2"
     inkscape:window-width="1270"
     inkscape:window-height="743"
     id="namedview4509"
     showgrid="false"
     inkscape:zoom="1.1472602"
     inkscape:cx="199.78783"
     inkscape:cy="196.62268"
     inkscape:window-x="0"
     inkscape:window-y="22"
     inkscape:window-maximized="0"
     inkscape:current-layer="svg4507"
     fit-margin-top="0"
     fit-margin-left="0"
     fit-margin-right="0"
     fit-margin-bottom="0" />
  <path
     style="fill:#cc8823;fill-opacity:1;stroke:none"
     d="M 1.4711796,46.240472 C 9.6320616,61.820862 18.27226,77.414562 34.620472,89.924701 115.5648,146.35686 253.81992,225.16736 287.57851,249.55397 c 32.25268,23.29875 71.04616,39.75189 111.16559,55.83546 17.52088,-0.63797 35.73376,-0.0303 48.30629,-9.57532 10.98625,-12.27993 21.56966,-24.81161 24.4787,-42.13978 -1.66349,-11.9717 -8.2475,-22.49594 -14.90338,-33.46916 -5.23075,-2.19085 -12.26753,-5.58103 -12.85163,-23.70644 L 416.2178,160.13936 c -38.65868,-2.3517 -43.89856,-23.79986 -63.34214,-37.13161 -12.86665,-16.25618 -32.63464,-25.611009 -50.23687,-37.131598 -28.98561,-5.14223 -44.03783,-14.92893 -54.6053,-26.21054 -19.66628,-10.19076 -27.1487,-23.63054 -75.35531,-26.21054 L 122.44132,13.797162 C 113.08938,1.3112722 81.936966,2.4387522 53.638637,1.7840022 29.400453,13.292882 -0.9554398,23.868142 1.4711796,46.240472 z"
     id="path4519"
     inkscape:connector-curvature="0"
     sodipodi:nodetypes="ccsccccccccccccc" />
  <path
     style="fill:#000000"
     d="m 396.12196,305.55303 c -17.84228,-3.77339 -82.01838,-36.75087 -114.69325,-58.9362 -8.18849,-5.55977 -23.00893,-15.18015 -32.93426,-21.37861 -9.92534,-6.19848 -25.36144,-15.96805 -34.30245,-21.71017 -8.94101,-5.74212 -17.66278,-10.97992 -19.38174,-11.63956 C 188.68498,189.538 158.43555,171.74062 105.65795,139.43536 93.894179,133.39064 83.772312,125.37174 67.965619,115.63242 33.872721,94.739821 15.891695,77.285412 3.7226246,53.270912 -1.8832218,42.208282 -1.4717128,39.124722 7.1104986,27.884922 13.963166,18.910272 26.146483,11.193512 44.17955,4.4058822 54.270383,0.60770224 58.901395,-0.03552776 75.889637,0.00146224 c 24.227843,0.0528 31.338183,1.57875996 44.854993,9.62670996 5.76222,3.4308398 14.46357,8.1567498 19.33632,10.5020298 14.60111,4.4315 13.21603,5.75601 22.2628,7.86928 10.28735,0.36824 18.90072,5.56639 27.89221,5.62496 18.74157,0 54.18287,17.14064 68.01475,32.89429 2.83532,3.22925 8.10537,6.82132 11.7112,7.98238 3.60587,1.16106 7.35347,2.73406 8.32802,3.49556 0.97456,0.76151 3.76531,1.36325 6.20169,1.33722 2.43637,-0.026 7.69941,1.19544 11.69563,2.71437 13.11917,3.38153 16.75715,8.736709 32.92435,17.293149 5.52026,4.648419 14.34712,9.802829 18.19946,13.813859 15.70084,11.35607 20.26111,25.94555 38.86788,35.67668 5.73866,2.88466 15.17208,6.2235 20.96316,7.41962 7.33192,1.51439 11.10905,3.26877 12.43867,5.77748 1.0502,1.98149 7.68311,10.20208 14.73981,18.26801 9.08817,10.38792 12.57081,15.65799 11.94039,18.06867 -1.13794,4.35151 4.59827,19.53737 7.37992,19.53737 3.32515,0 9.31856,7.28983 13.19118,16.04454 8.81774,19.93392 5.96291,34.88453 -10.36521,54.28234 -11.18354,13.28605 -14.64647,15.31886 -30.99084,18.19218 -12.84518,2.2582 -14.84683,2.19892 -29.35406,-0.86913 z m 8.85954,-4.15321 c 0,-0.8552 -1.19603,-2.54756 -2.65786,-3.76076 -1.46182,-1.21321 -2.62919,-3.1049 -2.59415,-4.20376 0.0351,-1.09887 2.03943,0.39414 4.4542,3.3178 3.66902,4.44226 4.67314,4.87899 6.11081,2.65787 1.4705,-2.27182 1.72433,-2.20747 1.74752,0.44297 0.0186,2.11907 1.42968,3.10084 4.45691,3.10084 5.52918,0 5.51393,-0.58695 -0.21032,-8.09182 -5.87678,-7.70487 -4.06716,-7.90989 2.86655,-0.32475 4.41338,4.82805 5.5504,5.32916 7.03552,3.10085 1.51902,-2.27919 1.77527,-2.21608 1.79853,0.44297 0.0579,6.62071 15.14689,1.14005 21.40039,-7.77312 2.62921,-3.74744 3.05958,-5.05974 1.15955,-3.53577 -1.66178,1.33286 -5.01941,2.04145 -7.46139,1.57463 -2.69275,-0.51475 -4.43996,-0.0328 -4.43996,1.22473 0,1.14043 -1.0647,3.52956 -2.36602,5.30921 -2.26155,3.09286 -2.5345,3.05483 -6.18297,-0.86132 -4.61239,-4.95083 -3.51738,-7.0887 1.3668,-2.66859 3.3554,3.0366 3.50982,2.98661 4.63606,-1.5007 0.94787,-3.7766 2.10015,-4.57068 6.18113,-4.25972 2.81709,0.21466 6.56638,-1.02081 8.55249,-2.81819 1.94502,-1.76022 4.21048,-2.7838 5.03436,-2.27461 0.82389,0.5092 3.44582,-1.9169 5.82652,-5.39132 6.32613,-9.23237 7.08022,-26.72137 1.69221,-39.24613 -2.1862,-5.08196 -5.27801,-9.93731 -6.87067,-10.78969 -1.59268,-0.85237 -8.4577,-1.22275 -15.2556,-0.82306 -26.80767,1.5762 -76.24522,6.51938 -80.18606,8.01767 -8.75078,3.32707 -10.1572,0.35241 -2.97879,-6.30032 9.15532,-8.48486 41.53338,-20.67011 61.52593,-23.15485 5.61653,-0.69804 10.64889,-1.97626 11.18302,-2.84047 0.53413,-0.86424 2.80759,-1.1104 5.05216,-0.54707 10.13173,2.54291 4.64577,-9.6759 -11.14448,-24.82197 l -7.27433,-6.97757 -32.81412,3.06186 c -37.29021,3.47952 -85.56741,14.27833 -113.12729,25.30472 -8.60824,3.44406 -16.06327,5.84997 -16.56676,5.34648 -3.66598,-3.66595 13.0936,-29.1893 28.41251,-43.26975 11.37206,-10.45269 32.98625,-24.27723 44.96206,-28.75795 5.49811,-2.05711 10.84622,-4.27132 11.88466,-4.92046 1.03844,-0.64916 3.43438,-1.42071 5.32431,-1.71458 1.88992,-0.29387 3.71022,-0.8083 4.04511,-1.14319 1.01639,-1.01639 -32.6821,-25.489929 -39.65239,-28.797539 -6.19671,-2.94053 -7.41018,-2.93747 -25.26522,0.0638 -35.36277,5.94426 -86.56431,20.590559 -119.39079,34.151969 -5.64712,2.33296 -11.02336,3.7746 -11.9472,3.20364 -2.33552,-1.44343 3.95041,-13.12066 10.09205,-18.74784 20.93153,-19.178119 57.25044,-41.635518 80.96219,-50.062098 2.64484,-0.9399 1.44564,-2.1871 -6.20167,-6.44987 -18.87681,-10.52232 -29.23134,-14.62513 -43.14684,-17.0962 -12.67439,-2.25067 -15.58235,-2.20704 -27.46461,0.41205 -7.30913,1.61109 -19.6682,5.15891 -27.46461,7.88405 -7.7964,2.72514 -17.76339,5.89489 -22.14888,7.0439 -4.38547,1.149 -18.177141,6.02378 -30.648148,10.83283 -12.470987,4.80906 -23.436842,8.27261 -24.368549,7.69678 -2.796853,-1.72855 1.120308,-7.09318 16.109304,-22.06205 16.950232,-16.92747 33.866653,-31.21324 38.824153,-32.78669 5.58053,-1.77119 4.42111,-3.47837 -5.52821,-8.1401098 -8.37411,-3.92366 -11.36005,-4.28968 -34.99524,-4.28968 -25.376057,0 -26.086221,0.10625 -39.557859,5.9180698 -15.111558,6.5193 -29.7071904,18.33885 -33.2711384,26.94299 -1.96877,4.75301 -1.830987,6.36312 1.02753,12.00672 l 3.301192,6.51762 1.130035,-7.9736 c 0.8106674,-5.72004 1.2052724,-6.50408 1.3961774,-2.77411 0.14636,2.85972 1.618764,10.03595 3.271992,15.94719 2.630773,9.40657 4.643361,12.35072 16.128759,23.59406 7.21761,7.065489 13.764163,12.846349 14.547932,12.846349 0.783751,0 -0.871107,-5.38218 -3.677458,-11.960399 -2.806369,-6.57822 -5.070073,-13.55511 -5.030489,-15.50421 0.07194,-3.54382 0.07194,-3.54382 1.591459,0 0.835722,1.9491 3.685662,9.29198 6.333197,16.3175 2.647535,7.025529 6.494636,14.279988 8.549077,16.121018 3.835405,3.43697 33.558596,21.60474 35.346216,21.60474 0.54794,0 -0.54198,-3.38878 -2.42203,-7.53062 -1.88005,-4.14184 -3.407157,-8.72666 -3.393549,-10.18848 0.01418,-1.46183 2.673029,2.98457 5.909849,9.88088 5.044097,10.74685 7.214967,13.357 15.190578,18.26443 5.11797,3.14913 9.59614,5.43497 9.95147,5.07963 0.35534,-0.35533 -1.39709,-3.65284 -3.89431,-7.3278 -2.49718,-3.67496 -4.10056,-7.12152 -3.56307,-7.65902 0.53751,-0.53751 3.98339,3.84767 7.65751,9.74485 5.75202,9.23234 13.27165,16.31478 17.32189,16.31478 0.64572,0 -1.57805,-5.18284 -4.94172,-11.51742 -3.36369,-6.33458 -5.42189,-11.51741 -4.57381,-11.51741 0.84808,0 4.03164,4.98349 7.07456,11.07444 3.04291,6.09094 7.90031,13.27863 10.79421,15.97265 4.77023,4.44076 14.22316,10.28873 16.486,10.19892 3.70868,-0.14725 4.44834,0.25229 4.44834,2.40248 0,1.34111 5.58152,5.37139 12.40337,8.95617 6.82186,3.58479 12.40338,6.04386 12.40338,5.46462 0,-0.57924 -1.59472,-4.17906 -3.54382,-7.99962 -1.94911,-3.82055 -3.50514,-7.97492 -3.45785,-9.23194 0.0473,-1.25701 2.64447,2.6867 5.77152,8.76382 5.71192,11.10056 6.80183,12.20191 19.83521,20.04381 l 7.08763,4.2645 -2.96332,-4.56023 c -3.26624,-5.0264 -8.7612,-17.50805 -7.70776,-17.50805 0.36603,0 3.26591,4.54506 6.4442,10.10014 5.28893,9.24407 17.10471,22.79637 18.58488,21.3162 0.34053,-0.34052 -0.99053,-4.85546 -2.95792,-10.03319 -1.96737,-5.17772 -3.25271,-10.31303 -2.8563,-11.4118 0.39639,-1.09876 1.62732,1.19169 2.73537,5.08988 3.11917,10.97344 9.4138,20.73143 15.76681,24.44177 l 5.78104,3.37632 -1.84482,-4.85225 c -2.57773,-6.77995 -0.9548,-7.46318 1.81928,-0.76591 1.97815,4.77564 8.18085,10.72423 15.49653,14.86167 1.7767,1.00484 1.79629,0.2498 0.0966,-3.72539 -1.17243,-2.7421 -2.64942,-5.783 -3.28221,-6.75755 -0.63277,-0.97455 -1.66383,-3.2087 -2.29123,-4.96478 -2.20821,-6.18084 2.03066,-1.16016 6.79698,8.05057 5.54233,10.71032 8.53457,14.41056 15.89615,19.65741 l 5.26939,3.75566 -5.81082,-10.2962 c -8.75196,-15.50761 -5.90946,-15.58612 3.22636,-0.0891 4.37053,7.41367 10.0084,14.94767 12.52858,16.74221 5.02031,3.57477 41.93601,24.73131 43.15327,24.73131 0.41564,0 -1.6585,-4.83127 -4.6092,-10.73616 -2.95072,-5.90489 -4.97563,-11.12545 -4.49983,-11.60127 0.47582,-0.47581 3.48806,4.3547 6.69391,10.73449 6.2234,12.38487 8.57271,15.01546 16.38789,18.35 l 4.96061,2.11659 -6.49327,-11.61107 c -3.5713,-6.38606 -6.10211,-12.00223 -5.62401,-12.48032 0.47812,-0.4781 4.35723,5.28506 8.62032,12.807 6.04286,10.6623 9.41061,14.59511 15.28164,17.84571 4.14184,2.29321 7.51021,3.54817 7.48525,2.78881 -0.025,-0.75935 -2.8043,-5.71107 -6.17632,-11.00382 -3.37204,-5.29277 -5.74372,-10.01048 -5.27037,-10.48381 0.47333,-0.47333 1.10107,-0.52837 1.39502,-0.12226 0.29392,0.40607 3.9757,6.12047 8.18173,12.6987 4.206,6.57821 8.74967,11.96039 10.09703,11.96039 1.34735,0 2.44973,0.70437 2.44973,1.56525 0,0.86088 1.58275,1.97915 3.51723,2.48501 3.30084,0.86319 3.24633,0.45754 -0.88595,-6.59366 -6.16293,-10.51622 -5.45457,-12.52718 0.86711,-2.46167 2.86164,4.55634 6.63395,9.1169 8.38291,10.13461 3.9091,2.27461 9.38163,2.50978 9.38163,0.40314 z M 315.80157,257.3281 c -6.2605,-9.96925 -8.65367,-14.83034 -7.74739,-15.73664 0.44816,-0.44817 3.31035,3.60694 6.36039,9.01132 3.05005,5.40439 6.33609,9.82616 7.30231,9.82616 0.96622,0 1.75676,0.79736 1.75676,1.77191 0,3.8064 -3.69581,1.45908 -7.67207,-4.87275 z m -15.64187,-5.31574 c -5.49009,-6.54694 -13.42564,-21.70589 -11.36282,-21.70589 0.37055,0 2.85079,3.78746 5.51164,8.41657 2.66083,4.62912 6.46371,10.21064 8.45084,12.40337 1.98711,2.19274 2.80014,3.9868 1.80676,3.9868 -0.99339,0 -2.97628,-1.39538 -4.40642,-3.10085 z M 167.85912,165.3682 c -3.1619,-5.505 -5.50353,-10.74517 -5.20364,-11.64486 0.2999,-0.89969 3.45785,3.60439 7.01765,10.00906 3.55983,6.40465 5.90146,11.64485 5.20365,11.64485 -0.6978,0 -3.85576,-4.50407 -7.01766,-10.00905 z m -18.42423,-9.8449 c -4.53039,-7.8973 -7.06715,-13.81233 -5.92366,-13.81233 1.22284,0 11.87224,19.84037 11.07651,20.6361 -0.4328,0.43279 -2.75157,-2.6379 -5.15285,-6.82377 z M 63.716224,99.850821 c -2.424026,-5.48117 -3.997181,-10.37591 -3.495891,-10.877214 0.501309,-0.50129 1.661716,0.993204 2.578697,3.321104 0.916999,2.3279 2.943391,7.22264 4.503132,10.877209 1.559742,3.65456 2.382618,6.64465 1.828647,6.64465 -0.553988,0 -2.990541,-4.48459 -5.414585,-9.965749 z M 32.087875,85.161062 c -2.341454,-3.78856 -8.06577,-22.09532 -8.029322,-25.67834 0.02073,-2.04017 2.336281,3.06815 5.145627,11.35183 4.714398,13.90103 5.72561,18.924809 2.883695,14.32651 z M 368.01808,225.04969 c 5.50467,-4.58585 2.51576,-4.63913 -3.307,-0.059 -2.47788,1.9491 -3.68868,3.54382 -2.69067,3.54382 0.99801,0 3.69695,-1.5682 5.99767,-3.48487 z m 13.9286,-4.48873 c 3.30599,-3.41093 5.41621,-6.20169 4.68938,-6.20169 -3.19106,0 -11.83731,5.66133 -13.55875,8.87789 -3.14883,5.88365 2.11112,4.29653 8.86937,-2.6762 z m 11.51741,-2.65786 c 8.98438,-9.20085 4.7992,-9.23838 -4.94136,-0.0443 -4.64907,4.38821 -6.42865,7.06004 -4.72077,7.08765 1.50768,0.0245 5.85565,-3.14515 9.66213,-7.04335 z m 8.60782,1.94555 c 4.71303,-4.05367 10.5381,-12.57702 8.59544,-12.57702 -2.2208,0 -18.08921,14.07268 -18.08921,16.04217 0,2.05697 5.33915,0.10826 9.49377,-3.46515 z m 15.31297,-5.91993 c 4.61948,-5.28975 6.60825,-8.61031 4.72782,-7.89382 -1.78515,0.68021 -3.88184,1.23673 -4.6593,1.23673 -0.77745,0 -4.35373,3.58812 -7.9473,7.9736 -9.62985,11.75196 -2.49223,10.55929 7.87878,-1.31651 z m 9.70112,-0.74568 c 5.96452,-7.13547 6.25886,-7.92277 2.76354,-7.39172 -2.17695,0.33075 -6.62028,4.26044 -10.0184,8.86025 -4.85602,6.57334 -5.4219,8.08691 -2.76354,7.39172 1.83857,-0.4808 6.34686,-4.46791 10.0184,-8.86025 z m 9.34691,1.26347 c 10.45146,-12.58909 6.54696,-14.92879 -4.64708,-2.78468 -8.21849,8.916 -8.59958,9.79834 -4.21247,9.75314 1.70547,-0.0177 5.69226,-3.15336 8.85955,-6.96846 z m 8.85956,5.25269 c 1.21818,-0.0142 2.21488,-0.7469 2.21488,-1.63022 0,-0.88331 -1.79406,-1.14372 -3.9868,-0.57869 -3.55139,0.91516 -3.7212,0.70352 -1.55495,-1.93779 3.88354,-4.73518 1.26454,-3.42476 -3.45192,1.72715 l -4.29565,4.6923 4.42977,-1.12428 c 2.43638,-0.61836 5.42648,-1.13518 6.64467,-1.14847 z M 272.47166,181.16294 c 4.06081,-10.0957 4.26107,-11.28833 1.26892,-7.5576 -6.02619,7.51375 -13.4055,18.45739 -14.52356,21.53868 -0.9574,2.63845 -0.58672,2.68574 3.68421,0.46995 3.34022,-1.73291 6.17886,-6.01917 9.57043,-14.45103 z m 4.41667,8.74577 c 1.17823,-0.7488 4.92563,-6.92515 8.32755,-13.7252 7.25203,-14.49591 18.17915,-27.98954 21.60221,-26.67599 1.31081,0.50301 3.52807,-0.71985 4.92724,-2.71745 1.39918,-1.9976 4.4111,-4.91938 6.69316,-6.49284 2.98481,-2.05801 2.44795,-0.90362 -1.91299,4.11351 -5.16187,5.93858 -14.35996,23.41676 -18.52805,35.20692 -0.65224,1.84495 -1.64426,2.89608 -2.20449,2.33584 -0.56024,-0.56022 1.82941,-7.60601 5.31032,-15.65729 3.48089,-8.05127 6.07316,-14.89443 5.76058,-15.20701 -0.31257,-0.31258 -2.56483,1.00214 -5.00501,2.9216 -4.57096,3.59551 -18.40033,29.78354 -16.65157,31.53229 0.85525,0.85525 20.24565,-3.86661 21.45829,-5.22543 0.25063,-0.28085 4.90064,-9.28159 10.33336,-20.00165 5.4327,-10.72005 11.48635,-21.4844 13.45251,-23.92078 5.81945,-7.21115 4.1628,-2.67922 -3.16509,8.65846 -6.93315,10.72693 -15.68107,31.44921 -13.99013,33.14014 0.51109,0.51111 3.50609,0.26155 6.65556,-0.55457 4.99469,-1.29425 6.22911,-2.87247 9.66176,-12.35251 4.05578,-11.20098 20.13005,-38.6504 21.70894,-37.07152 0.48857,0.48858 -0.70087,3.12697 -2.64324,5.86309 -9.18544,12.9392 -21.58447,38.4317 -19.63455,40.36884 1.50663,1.49678 18.39661,-3.77259 18.83867,-5.87732 0.61377,-2.92221 13.03491,-19.83329 16.96036,-23.09114 4.51094,-3.74375 3.46763,-0.98293 -1.7223,4.55754 -6.0476,6.45605 -13.58535,18.32779 -12.3936,19.51954 2.35391,2.35389 9.8304,-1.89708 17.92953,-10.19438 l 8.85955,-9.07634 -7.9736,-6.94012 c -4.38548,-3.81707 -8.55307,-6.94228 -9.26132,-6.94492 -2.03467,-0.007 -14.16758,16.40619 -19.63769,26.56647 -2.73804,5.08563 -5.41286,8.81199 -5.94405,8.2808 -1.29827,-1.29827 15.95661,-29.70256 20.59173,-33.89727 l 3.67487,-3.32571 -3.89566,-4.14673 c -3.96212,-4.2175 -5.44532,-4.22343 -15.65035,-0.0626 -2.43638,0.99338 -5.84895,2.08158 -7.58351,2.41822 -10.37737,2.01402 -41.01136,21.84485 -47.22482,30.57087 -2.00988,2.82264 -6.01539,10.39442 -8.90114,16.82618 -4.97533,11.08908 -4.6445,13.97818 1.17697,10.27842 z m 97.9707,-25.2794 c 0,-2.01318 0.82542,-5.20261 1.83425,-7.08765 2.65842,-4.96728 1.49911,-4.28985 -6.26402,3.66031 l -6.9209,7.08765 5.67534,0 c 4.55427,0 5.67533,-0.72303 5.67533,-3.66031 z m 33.51864,0.12917 c 10.22837,-0.016 8.7873,-1.10046 -6.6874,-5.03029 -10.46369,-2.6573 -13.07244,-2.81716 -14.66461,-0.89872 -1.06518,1.28347 -2.53715,1.96249 -3.27104,1.5089 -0.73389,-0.45355 -2.83628,0.8695 -4.67197,2.94014 l -3.33766,3.76478 12.40337,-1.13612 c 6.82186,-0.62484 15.92505,-1.14177 20.22931,-1.14869 z m -22.88717,-9.94894 c 0,-1.46648 -3.44057,-2.29577 -4.2294,-1.01943 -0.51173,0.82803 0.23051,1.5055 1.64948,1.5055 1.41894,0 2.57992,-0.21874 2.57992,-0.48607 z M 169.35445,115.49045 c 1.83348,-4.09519 2.9598,-7.44578 2.50296,-7.44578 -1.94245,0 -13.1714,12.92109 -13.1714,15.15626 0,5.01155 7.35137,-0.30155 10.66844,-7.71048 z m 13.35032,-7.12914 c 2.82813,-5.53419 5.46928,-10.793409 5.86924,-11.687159 2.28538,-5.10705 -11.07717,7.529229 -13.98092,13.221059 -4.34483,8.51656 -4.40006,10.45546 -0.26704,9.37465 1.78016,-0.46552 5.55059,-5.37437 8.37872,-10.90855 z m 7.63319,-0.20623 c 1.10208,-3.67836 3.99955,-9.628879 6.43882,-13.223369 2.43931,-3.59449 4.43507,-6.926764 4.43507,-7.405044 0,-2.002015 -7.38067,3.277894 -8.40914,6.015654 -0.61673,1.64171 -3.36245,6.807479 -6.10161,11.479479 -5.85125,9.98018 -6.14493,11.85522 -1.67357,10.68593 1.9438,-0.50831 4.13256,-3.62122 5.31043,-7.55265 z m 10.17374,1.02836 c 1.07676,-1.1136 3.33607,-5.61284 5.02071,-9.998319 1.68465,-4.38548 4.84697,-10.365684 7.02738,-13.289329 7.09779,-9.5172 7.0558,-10.1668 -0.41101,-6.35752 -3.93397,2.00696 -7.72863,4.58097 -8.43262,5.72002 -1.3787,4.831339 -7.19028,12.937869 -11.25637,23.349318 -1.76723,4.68599 -1.63786,4.91923 2.10565,3.79662 2.19369,-0.65784 4.86953,-2.1072 5.94626,-3.22079 z m 20.22897,-5.25139 c 7.32992,-2.26168 19.68898,-5.565599 27.46459,-7.342049 12.57067,-2.87195 14.57932,-3.90262 18.12427,-9.299814 2.19274,-3.338445 3.9868,-6.811975 3.9868,-7.718945 0,-3.77721 -7.17235,-1.2369 -11.60329,4.10966 l -4.7725,5.758709 3.90876,-7.001259 c 3.76633,-6.74614 3.79027,-7.08808 0.65729,-9.38371 -2.83447,-2.07689 -3.67306,-1.86288 -6.53838,1.66862 -1.80779,2.22809 -5.21003,7.84614 -7.56048,12.484545 -2.35046,4.638424 -4.66952,8.433494 -5.15345,8.433494 -1.51292,0 4.00566,-11.888319 8.78039,-18.914979 5.12222,-7.53803 5.78536,-11.2075 2.02535,-11.2075 -3.20296,0 -7.86164,6.52544 -15.8593,22.214355 -3.45921,6.785844 -6.31664,11.122544 -6.34984,9.637124 -0.0331,-1.48542 3.52775,-8.997104 7.91323,-16.692619 4.38545,-7.69551 7.97357,-14.23732 7.97357,-14.53736 0,-1.3498 -9.9713,4.04415 -11.91342,6.44453 -1.19235,1.47372 -5.44766,9.32141 -9.45623,17.439329 -4.0086,8.11792 -7.65315,14.395039 -8.09904,13.949159 -0.44587,-0.44588 2.41747,-7.416629 6.363,-15.490563 3.94553,-8.073925 6.86637,-14.987195 6.49074,-15.362815 -2.23355,-2.23355 -22.36705,28.449728 -22.36705,34.087188 0,1.4269 2.2208,0.97189 15.98499,-3.2751 z m 57.72567,-16.805263 c 2.62232,-3.586225 1.61999,-5.660775 -2.73507,-5.660775 -2.83975,0 -8.95875,6.744985 -8.95875,9.875259 0,2.17281 9.53651,-1.26416 11.69382,-4.214484 z m 15.58409,-0.47773 c 0.87189,-0.793675 -0.59603,-1.990515 -3.26205,-2.659645 -3.65279,-0.91679 -5.76387,-0.29998 -8.56693,2.50308 l -3.71967,3.719669 6.98172,-1.060024 c 3.83993,-0.58301 7.69506,-1.7094 8.56693,-2.50308 z M 76.344716,64.855722 c 0.769328,-3.26284 6.569196,-13.68276 7.241686,-13.01026 0.51737,0.51736 -0.34734,3.4314 -1.921578,6.47564 l -2.862255,5.53498 6.627383,-2.76909 c 7.974587,-3.332 8.231737,-3.56508 8.921807,-8.08682 0.73448,-4.81283 6.780691,-16.46245 9.878341,-19.03327 1.37733,-1.14308 0.23957,2.4114 -2.52835,7.89886 -5.978561,11.85253 -6.317511,14.79775 -1.55984,13.55359 2.44644,-0.63975 4.29103,-3.86365 6.24147,-10.90855 1.52281,-5.50022 3.96039,-12.64724 5.41686,-15.88226 3.24947,-7.21753 2.061,-6.62787 -12.897311,6.39895 -6.08055,5.29539 -12.315137,9.76245 -11.848997,10.5167 -4.520738,5.11642 -10.171877,9.61881 -15.630501,17.07754 l -3.636332,5.0765 4.252531,-1.30983 c 2.338904,-0.7204 4.276187,-1.4101 4.305086,-1.53268 z m 38.865104,-15.90961 c -0.38447,-1.11779 2.39631,-8.41122 6.17952,-16.20762 3.78319,-7.79641 6.50116,-14.55273 6.03994,-15.01405 -0.46122,-0.46132 -2.98613,0.36365 -5.61087,1.83326 -4.70356,2.63354 -11.54258,16.46677 -13.85349,28.02132 -0.94078,4.70387 -0.66356,5.04486 3.46061,4.25647 2.46582,-0.47137 4.16874,-1.77159 3.78429,-2.88938 z m 8.87521,-0.48693 c 1.59446,-0.61184 5.23555,-5.99402 8.09134,-11.96039 4.74676,-9.917 4.94105,-11.03545 2.26406,-13.03281 -3.90722,-2.91526 -6.37631,-0.68045 -10.79559,9.77127 -6.8484,16.19663 -6.79627,17.99883 0.44019,15.22194 z m 12.42245,-4.19201 c 4.73556,-1.80046 10.81928,-12.83553 8.84099,-16.03646 -2.90797,-4.70521 -7.05555,-0.81504 -12.16256,11.40772 -2.98771,7.15066 -3.05714,7.05392 3.32157,4.62874 z m 22.89284,-7.21568 10.4598,-2.34051 -6.03002,-2.18038 c -9.99602,-3.61442 -14.9457,-3.02287 -17.26305,2.06317 -2.61182,5.7323 -2.58463,6.70012 0.15858,5.64785 1.2182,-0.46729 6.92182,-1.90285 12.67472,-3.19013 z"
     id="path4517"
     inkscape:connector-curvature="0"
     sodipodi:nodetypes="sssssccssssscccssssccccssssssssscscsscsssssssssssssssssssssssssscssssssscsssssssssssssssssssscsssssssssssscsssscsssssscsssscsscssssscsscsssccssscsssssssscscsscsccsssssssccssssssssssssssssssscsscssssscsscssccsssssscsssssscsssssssssscscsssscscssssscsssssscscsssssscsssssssssscscssscssssscssscsscsscscscssssssssssssssssssssssssccssssssscsssssssscsssscssssssssssscssssscsssssssscccsscscssscsssssssssccssscc" />
</svg>
