<?xml version="1.0" encoding="UTF-8" standalone="no"?>
<!-- Created with Inkscape (http://www.inkscape.org/) -->

<svg
   xmlns:dc="http://purl.org/dc/elements/1.1/"
   xmlns:cc="http://creativecommons.org/ns#"
   xmlns:rdf="http://www.w3.org/1999/02/22-rdf-syntax-ns#"
   xmlns:svg="http://www.w3.org/2000/svg"
   xmlns="http://www.w3.org/2000/svg"
   xmlns:sodipodi="http://sodipodi.sourceforge.net/DTD/sodipodi-0.dtd"
   xmlns:inkscape="http://www.inkscape.org/namespaces/inkscape"
   id="svg22077"
   version="1.1"
   inkscape:version="0.48.4 r9939"
   width="484.71747"
   height="318.15552"
   sodipodi:docname="Caltrops.svg">
  <metadata
     id="metadata22083">
    <rdf:RDF>
      <cc:Work
         rdf:about="">
        <dc:format>image/svg+xml</dc:format>
        <dc:type
           rdf:resource="http://purl.org/dc/dcmitype/StillImage" />
        <dc:title />
      </cc:Work>
    </rdf:RDF>
  </metadata>
  <defs
     id="defs22081" />
  <sodipodi:namedview
     pagecolor="#ffffff"
     bordercolor="#666666"
     borderopacity="1"
     objecttolerance="10"
     gridtolerance="10"
     guidetolerance="10"
     inkscape:pageopacity="0"
     inkscape:pageshadow="2"
     inkscape:window-width="1130"
     inkscape:window-height="711"
     id="namedview22079"
     showgrid="false"
     inkscape:zoom="0.89727565"
     inkscape:cx="119.78617"
     inkscape:cy="209.31353"
     inkscape:window-x="1"
     inkscape:window-y="22"
     inkscape:window-maximized="0"
     inkscape:current-layer="svg22077"
     fit-margin-top="0"
     fit-margin-left="0"
     fit-margin-right="0"
     fit-margin-bottom="0" />
  <path
     style="fill:#000000"
     d="m 181.32587,315.89239 c -0.98361,-1.93438 -1.06432,-6.00377 -0.18323,-9.23862 2.166,-7.95251 17.79578,-26.87872 30.54785,-36.99062 5.81625,-4.61208 13.95309,-11.34004 18.08185,-14.95106 4.12879,-3.61103 8.35067,-6.84675 9.38194,-7.19051 1.03129,-0.34376 -7.41643,-10.32148 -18.77274,-22.1727 -23.96633,-25.01081 -25.64104,-25.58943 -40.41601,-13.96391 -34.5986,27.22353 -81.511547,54.38416 -128.822609,74.58287 -21.14998,9.02966 -40.957051,17.13956 -44.0157423,18.02199 -10.2375509,2.95356 -9.3401957,-0.59664 2.009095,-7.94856 6.1836773,-4.00571 13.5265653,-9.3102 16.3175173,-11.78775 7.445888,-6.60977 26.693466,-33.22399 28.25766,-39.07276 1.133005,-4.23648 5.047385,-6.65529 24.533965,-15.16033 27.991174,-12.2169 44.528564,-21.1649 62.695534,-33.92306 l 13.67084,-9.60067 -22.59675,0 c -25.80147,0 -27.59433,-0.74797 -41.444383,-17.29034 -11.155382,-13.32388 -9.537658,-14.45506 23.109583,-16.15916 44.19799,-2.30702 71.95234,-5.11079 74.35842,-7.51174 1.26773,-1.26505 11.26862,-20.03723 22.22419,-41.71595 17.06263,-33.763306 44.68818,-83.151016 50.01063,-89.406732 0.89974,-1.057499 3.30232,-4.7347113 5.33906,-8.171583 7.53051,-12.7072079 13.42145,-5.41557174 13.30484,16.468336 -0.0581,10.886654 -1.38396,19.062947 -5.95603,36.727068 -0.38776,1.498122 -2.00286,4.104059 -3.58911,5.79097 -7.70817,8.197315 -17.32011,21.445801 -23.11658,31.862406 -3.53076,6.344985 -9.31109,15.862475 -12.84516,21.149975 -3.53406,5.28749 -9.0016,17.62731 -12.15008,27.42182 -6.45211,20.07175 -6.68813,21.60729 -3.32109,21.60864 1.32188,5.2e-4 9.84647,8.00387 18.94356,17.78521 9.09707,9.78134 21.64285,21.233 27.87952,25.44817 6.23665,4.21515 12.03128,8.75757 12.87693,10.09427 1.90938,3.01806 4.6036,1.69921 31.94433,-15.63706 11.01257,-6.98288 21.13781,-12.69613 22.50058,-12.69613 1.92577,0 2.36728,-5.88971 1.98183,-26.43747 -0.53273,-28.40097 -3.40139,-39.85826 -13.82578,-55.21945 -2.59746,-3.82757 -4.72265,-7.5712 -4.72265,-8.31918 0,-0.74798 3.89475,-3.426115 8.65501,-5.951425 4.76027,-2.525309 11.91688,-8.147795 15.90361,-12.494414 7.54964,-8.231147 22.0478,-34.590509 24.32856,-44.232154 0.96042,-4.060094 1.89076,-4.991385 3.43933,-3.442814 1.54858,1.548568 1.26442,5.39454 -1.05048,14.21787 -6.39276,24.366343 -7.21507,31.639811 -7.21889,63.852297 -0.004,28.78848 4.05254,73.42741 7.12317,78.39579 1.57047,2.54108 17.90071,13.27844 34.2855,22.54319 8.57196,4.847 20.31979,12.12086 26.10631,16.16412 27.05086,18.90147 40.93642,26.29631 49.37745,26.29631 6.96844,0 8.25026,0.59745 8.25026,3.84545 0,2.115 -0.64892,3.67846 -1.44204,3.47436 -0.79312,-0.20409 -9.6617,1.46358 -19.70794,3.70596 -32.87835,7.33864 -40.37723,7.41932 -40.37723,0.43444 0,-1.95522 -1.91642,-4.11292 -4.32613,-4.87082 -5.53366,-1.74043 -21.33635,-10.99841 -31.24429,-18.30442 -4.23,-3.11914 -11.68927,-7.77397 -16.57616,-10.34404 l -8.88528,-4.67285 -4.5738,4.90524 c -11.85199,12.71079 -40.7995,25.79386 -45.85614,20.72505 -1.08993,-1.09257 0.77079,-5.87542 4.80753,-12.35745 7.26015,-11.658 7.8287,-13.45908 4.24861,-13.45908 -7.43691,0 -36.03057,24.00631 -36.03057,30.25011 0,4.71537 12.80241,20.46597 18.60627,22.89097 3.51403,1.46827 6.38916,3.52318 6.38916,4.56649 0,5.35621 -16.18264,-0.70266 -31.95008,-11.96228 l -7.91603,-5.65287 -22.84758,11.97214 c -12.56618,6.58466 -27.17372,15.12904 -32.46122,18.98751 -21.32358,15.56052 -30.52874,19.47002 -33.24869,14.12094 z m 11.13735,-12.31515 c 0,-4.11685 -0.33403,-7.48519 -0.74229,-7.48519 -1.69163,0 -7.05971,13.64654 -6.02599,15.31912 2.60993,4.22294 6.76828,-0.59014 6.76828,-7.83393 z m 8.73504,-0.27497 c 3.02971,1.65756 4.4627,-0.86065 6.56478,-11.53636 1.3014,-6.60936 2.67339,-13.05449 3.04888,-14.32251 0.39843,-1.34547 -0.48437,-1.85764 -2.12005,-1.22997 -1.54153,0.59153 -3.33181,3.18344 -3.97845,5.75979 -0.64661,2.57636 -1.65046,4.20948 -2.23076,3.62919 -0.58032,-0.58032 -2.63948,0.37872 -4.57592,2.13118 -2.55507,2.31231 -3.50403,5.87333 -3.45965,12.98259 0.0571,9.16004 0.24988,9.54655 2.96686,5.95086 1.59813,-2.115 3.30107,-3.62915 3.78431,-3.36477 z m -0.55926,-8.17159 c 0.0213,-4.22999 0.41509,-5.73404 0.87499,-3.34235 0.4599,2.3917 0.44244,5.85261 -0.0388,7.6909 -0.48124,1.8383 -0.85754,-0.11863 -0.83619,-4.34855 z m 16.25931,-10.15799 c 1.89692,-7.40335 2.1458,-7.74483 1.35493,-1.85904 -0.53287,3.96562 -0.51924,7.21022 0.0304,7.21022 1.98481,0 6.44074,-10.75209 7.76904,-18.74657 1.6173,-9.73386 -0.0446,-10.5737 -3.80465,-1.92273 -1.70975,3.93371 -2.74391,4.94287 -2.79128,2.72387 -0.15132,-7.08826 -4.92308,-1.65343 -7.08127,8.06526 -1.22071,5.49709 -2.79637,12.34833 -3.50143,15.22494 -1.23389,5.03414 -1.15108,5.10169 2.20934,1.80177 1.92021,-1.88566 4.53698,-7.50963 5.81504,-12.49772 z M 57.304141,279.07354 c 32.432273,-14.01899 80.423539,-41.226 103.203079,-58.50746 28.65337,-21.7376 29.4051,-22.177 35.70372,-20.8706 3.23958,0.67191 9.2763,4.51104 13.41493,8.5314 6.55723,6.3698 7.39955,6.74065 6.55065,2.88409 -0.77874,-3.5378 -0.5609,-3.84705 1.0859,-1.54157 1.13304,1.58625 2.07333,4.1823 2.08952,5.76899 0.0486,4.7629 30.48118,34.83653 50.0203,49.43034 10.04624,7.50356 18.42549,13.49571 18.62057,13.3159 0.19506,-0.17978 -2.18927,-5.62736 -5.29857,-12.10566 -5.74506,-11.97002 -9.47655,-26.96701 -9.47655,-38.08651 0,-5.24735 -1.4781,-7.17021 -10.09431,-13.13178 -5.55187,-3.84135 -15.71828,-13.37653 -22.59202,-21.18931 -16.27672,-18.50034 -22.77411,-22.91837 -35.21368,-23.94432 -13.5491,-1.11744 -25.36957,4.35525 -58.53691,27.10172 -27.163,18.62863 -42.32007,27.01979 -68.239023,37.77804 -13.993677,5.8084 -14.914976,6.55466 -15.12861,12.25449 l -0.227487,6.06942 -1.393189,-5.76817 c -1.252679,-5.18642 -1.551922,-5.38033 -2.966983,-1.92273 -2.857401,6.98182 -22.809676,34.33607 -30.698311,42.08689 -4.261336,4.18688 -6.450032,7.09543 -4.863784,6.46347 1.586249,-0.63198 16.904602,-7.20947 34.040758,-14.61664 z M 261.04043,254.43299 c -0.705,-0.70499 -1.28182,-2.17587 -1.28182,-3.26863 0,-1.20478 0.89555,-1.09127 2.27522,0.28841 1.25139,1.25138 1.8282,2.72227 1.28182,3.26863 -0.54638,0.54638 -1.57023,0.4166 -2.27522,-0.28841 z M 65.56335,247.06255 c 0,-1.58625 0.838072,-2.88409 1.862381,-2.88409 1.024311,0 1.364354,1.29784 0.755652,2.88409 -0.6087,1.58625 -1.446772,2.88409 -1.862381,2.88409 -0.415608,0 -0.755652,-1.29784 -0.755652,-2.88409 z m 185.543,-0.96136 c -1.92579,-2.12796 -3.06881,-4.30164 -2.54006,-4.83039 0.52875,-0.52875 2.537,0.7797 4.46278,2.90766 1.92578,2.12796 3.06881,4.30164 2.54006,4.83039 -0.52875,0.52875 -2.537,-0.77971 -4.46278,-2.90766 z M 73.342384,244.01378 c 1.180384,-2.20556 2.529032,-3.62724 2.996994,-3.15927 1.34571,1.3457 -1.382382,7.1694 -3.358486,7.1694 -0.982186,0 -0.81964,-1.80315 0.361492,-4.01013 z m 7.053497,-3.71073 c 0.557394,-2.13147 1.921268,-4.43649 3.030828,-5.12223 1.26859,-0.78403 1.539277,-8.9e-4 0.729279,2.10994 -0.708461,1.84622 -1.288109,4.15122 -1.288109,5.12223 0,0.971 -0.784224,1.76547 -1.74272,1.76547 -0.958498,0 -1.286672,-1.74393 -0.729278,-3.87541 z m 8.269617,-1.29861 c 0.01615,-0.85553 0.86817,-2.85336 1.893282,-4.43961 1.606243,-2.48548 1.867911,-2.43472 1.893283,0.36721 0.01615,1.78821 -0.835784,3.78603 -1.893283,4.43961 -1.057498,0.65357 -1.909475,0.48833 -1.893282,-0.36721 z m 151.777722,-2.68156 c -1.18038,-2.20556 -1.78398,-4.37228 -1.34133,-4.81493 0.44265,-0.44265 1.79203,1.3619 2.99864,4.01011 2.64965,5.81536 1.35954,6.44186 -1.65731,0.80482 z M 98.308563,235.5262 c 0,-1.0575 0.83873,-3.22057 1.863837,-4.80682 1.02512,-1.58625 1.86384,-2.01886 1.86384,-0.96136 0,1.0575 -0.83872,3.22056 -1.86384,4.80681 -1.025107,1.58625 -1.863837,2.01886 -1.863837,0.96137 z m 8.991977,-8.63064 c 0.54998,-2.10311 1.72903,-3.37325 2.62011,-2.82252 1.89249,1.16963 0.17601,6.64634 -2.08305,6.64634 -0.84536,0 -1.08703,-1.72072 -0.53706,-3.82382 z m 125.00244,1.26316 c -2.14244,-5.44722 -1.79318,-8.22998 0.71779,-5.71902 1.15667,1.15668 1.78002,3.70909 1.38524,5.67204 -0.69233,3.44232 -0.76697,3.44397 -2.10303,0.0469 z M 113.66093,224.584 c -0.0162,-1.78821 0.83578,-3.78603 1.89328,-4.43961 2.43339,-1.50391 2.43339,1.04141 0,4.80682 -1.60625,2.48548 -1.86791,2.43472 -1.89328,-0.36721 z m 111.64042,-4.59983 c 0.0923,-2.23988 0.54786,-2.69547 1.16164,-1.16165 0.55541,1.38796 0.48712,3.04631 -0.15171,3.68523 -0.63892,0.6389 -1.09334,-0.49672 -1.00985,-2.52358 z m -98.7679,-2.72387 c 0.55309,-2.11499 1.33731,-3.84545 1.74272,-3.84545 0.40541,0 0.73712,1.73046 0.73712,3.84545 0,2.115 -0.78423,3.84546 -1.74272,3.84546 -0.9585,0 -1.2902,-1.73046 -0.73712,-3.84546 z m 10.20018,-6.13537 c -0.0162,-1.78822 0.83578,-3.78604 1.89328,-4.43962 2.4334,-1.50391 2.4334,1.04141 0,4.80682 -1.60624,2.48549 -1.86791,2.43473 -1.89328,-0.3672 z m 9.73598,-6.52256 c 0.0923,-2.23988 0.54786,-2.69547 1.16165,-1.16165 0.55541,1.38795 0.48711,3.0463 -0.1518,3.68523 -0.63891,0.6389 -1.09334,-0.49672 -1.00986,-2.52358 z m 7.56855,-4.16591 c -0.0162,-2.37938 0.83578,-4.32614 1.89328,-4.32614 2.40903,0 2.40903,2.04048 0,5.76818 -1.50717,2.33219 -1.86947,2.05624 -1.89328,-1.44204 z m 9.73598,-7.37044 c 0.0923,-2.23988 0.54786,-2.69547 1.16164,-1.16166 0.55542,1.38796 0.48711,3.04631 -0.1518,3.68523 -0.6389,0.63891 -1.09334,-0.49671 -1.00985,-2.52357 z m 7.5391,-3.45829 c 0,-1.58625 0.86523,-3.41882 1.92273,-4.07239 1.0575,-0.65358 1.92273,0.10953 1.92273,1.69578 0,1.58625 -0.86523,3.41882 -1.92273,4.07239 -1.0575,0.65357 -1.92273,-0.10959 -1.92273,-1.69578 z m 7.72948,-6.04158 c 1.33767,-1.61181 2.82809,-2.5346 3.31204,-2.05065 1.33339,1.3334 -1.37581,4.9812 -3.69951,4.9812 -1.27496,0 -1.12908,-1.10323 0.38747,-2.93055 z m 84.53188,82.68814 c -0.94578,-1.13958 -5.65219,-4.89616 -10.4587,-8.34792 l -8.73909,-6.27595 0,4.72422 c 0,2.65934 -4.63358,11.18247 -10.6011,19.49995 l -10.6011,14.77572 21.0598,-11.15201 c 14.08471,-7.45843 20.49025,-11.83826 19.34019,-13.22401 z m -31.3753,-0.13036 c 1.53418,-10.10944 -2.26691,-6.37416 -4.08206,4.0114 -0.98542,5.6381 -0.77243,7.13341 0.79795,5.60223 1.17819,-1.14877 2.65603,-5.47491 3.28411,-9.61363 z m 232.32957,-1.67877 c 5.96533,-1.677 7.83178,-2.75188 4.91825,-2.83241 -4.31527,-0.11921 -20.05362,-9.33112 -45.88319,-26.85603 -12.13587,-8.23399 -43.69295,-27.126 -56.83588,-34.02547 -7.1082,-3.73149 -12.29058,-4.92814 -21.57455,-4.98171 -13.00795,-0.075 -14.83854,0.78682 -53.66992,25.2684 l -11.53635,7.27319 0.0135,11.64163 c 0.008,6.40288 0.67901,12.3079 1.49336,13.12225 0.81435,0.81435 4.57808,-1.70836 8.36389,-5.60603 8.04203,-8.27968 25.65841,-19.37406 37.26675,-23.46971 13.14357,-4.63733 23.02667,-3.69369 41.16174,3.93015 2.97136,1.24913 3.45577,0.92213 2.46374,-1.66305 -0.67985,-1.76985 -0.34307,-3.21789 0.74771,-3.21789 1.09078,0 1.71255,1.62176 1.38171,3.60394 -0.90208,5.40453 37.55585,31.00512 46.57675,31.00512 2.84012,0 4.79819,1.85183 6.34435,6.00021 l 2.23639,6.00021 13.45908,-1.24508 c 7.40249,-0.6848 17.78521,-2.46128 23.07271,-3.94772 z m -27.87952,0.7698 c 0,-1.11991 0.86522,-1.50146 1.92272,-0.84788 1.0575,0.65357 1.92273,1.56986 1.92273,2.0362 0,0.46634 -0.86523,0.84789 -1.92273,0.84789 -1.0575,0 -1.92272,-0.9163 -1.92272,-2.03621 z m 6.65047,-1.93716 c -2.06937,-3.34832 0.28749,-4.05742 2.92459,-0.87992 1.51655,1.82734 1.66242,2.93056 0.38746,2.93056 -1.12456,0 -2.61498,-0.92279 -3.31205,-2.05064 z m -13.98888,-2.21141 c -1.25137,-1.25137 -2.27522,-3.59253 -2.27522,-5.20259 0,-2.00947 0.96579,-1.54848 3.08021,1.47026 3.37369,4.81661 2.82471,7.36203 -0.80499,3.73233 z m 22.72021,-0.78018 c 0,-2.67028 0.48457,-2.74863 3.36477,-0.54408 1.85062,1.4165 3.72528,2.82028 4.16591,3.11951 0.44061,0.29923 -1.07353,0.54407 -3.36477,0.54407 -2.56095,0 -4.16591,-1.20183 -4.16591,-3.1195 z m -30.80217,-7.50196 c -1.33768,-1.6118 -1.94634,-3.41635 -1.35257,-4.01011 0.59376,-0.59378 2.04534,0.72498 3.22572,2.93054 2.51848,4.70581 1.58356,5.24466 -1.87315,1.07957 z m -10.52575,-6.67128 c -1.91992,-2.12148 -2.59737,-3.85724 -1.50546,-3.85724 2.41927,0 7.21484,5.49585 5.9229,6.7878 -0.50968,0.50968 -2.49753,-0.80908 -4.41744,-2.93056 z m -16.35384,-9.73889 c 0,-1.11991 0.86523,-1.50146 1.92272,-0.84788 1.0575,0.65357 1.92273,1.56986 1.92273,2.0362 0,0.46634 -0.86523,0.84788 -1.92273,0.84788 -1.05749,0 -1.92272,-0.91629 -1.92272,-2.0362 z m -6.40908,-3.09107 c -0.705,-0.70499 -1.28182,-2.17587 -1.28182,-3.26863 0,-1.20478 0.89555,-1.09127 2.27522,0.28841 1.25138,1.25138 1.8282,2.72227 1.28182,3.26863 -0.54638,0.54638 -1.57023,0.4166 -2.27522,-0.28841 z m -8.93415,-3.47852 c -1.51655,-1.82734 -1.66243,-2.93056 -0.38747,-2.93056 2.32371,0 5.0329,3.6478 3.69951,4.98121 -0.48395,0.48395 -1.97437,-0.43885 -3.31204,-2.05065 z m -76.94759,-7.62389 c 0,-1.52384 0.78453,-3.25548 1.74341,-3.84811 0.95888,-0.59262 1.29057,0.65415 0.73712,2.77061 -1.17404,4.48955 -2.48053,5.05706 -2.48053,1.0775 z m 9.76543,-6.04188 c 0.0923,-2.23988 0.54786,-2.69547 1.16163,-1.16165 0.55542,1.38796 0.48712,3.04631 -0.1517,3.68523 -0.63893,0.6389 -1.09334,-0.49672 -1.00986,-2.52358 z m 7.5391,-3.68523 c 0,-1.58625 0.83808,-2.88409 1.86239,-2.88409 1.02429,0 1.36435,1.29784 0.75565,2.88409 -0.60872,1.58625 -1.44678,2.88409 -1.86239,2.88409 -0.4156,0 -0.75565,-1.29784 -0.75565,-2.88409 z m 11.53635,-5.76818 c 0,-1.58624 0.83808,-2.88408 1.86239,-2.88408 1.02429,0 1.36435,1.29784 0.75565,2.88408 -0.60871,1.58625 -1.44677,2.88409 -1.86239,2.88409 -0.4156,0 -0.75565,-1.29784 -0.75565,-2.88409 z m 7.8427,-0.16016 c 0.0923,-2.23988 0.54786,-2.69547 1.16164,-1.16165 0.55541,1.38796 0.48712,3.04631 -0.15171,3.68523 -0.63892,0.6389 -1.09334,-0.49672 -1.00985,-2.52358 z m 5.76818,-1.92272 c 0.0923,-2.23988 0.54786,-2.69547 1.16163,-1.16166 0.55542,1.38796 0.48712,3.04631 -0.1517,3.68523 -0.63892,0.63891 -1.09334,-0.49671 -1.00986,-2.52357 z m 5.61637,-2.83741 c 0,-1.11991 0.86523,-1.50145 1.92273,-0.84788 1.0575,0.65357 1.92273,1.56987 1.92273,2.0362 0,0.46634 -0.86523,0.84789 -1.92273,0.84789 -1.0575,0 -1.92273,-0.9163 -1.92273,-2.03621 z M 238.57919,258.9661 c 0.0154,-1.91303 -0.83579,-2.9435 -1.89328,-2.28992 -1.0575,0.65357 -1.90948,3.51662 -1.89329,6.36233 0.0231,4.04688 0.43547,4.54573 1.89329,2.28993 1.02512,-1.58625 1.87709,-4.4493 1.89328,-6.36234 z m 94.49133,-11.90669 c 5.67965,-2.64547 12.48971,-6.59706 15.13346,-8.78131 4.63502,-3.82942 4.6463,-3.89245 0.316,-1.7638 -2.46993,1.21415 -4.91408,1.78425 -5.43143,1.26691 -0.51735,-0.51735 2.15243,-2.05911 5.93284,-3.42613 7.22383,-2.61217 10.07789,-8.75732 3.02804,-6.51979 -2.115,0.67129 -3.84545,0.46846 -3.84545,-0.45072 0,-0.91918 -2.95975,-1.75514 -6.57722,-1.85768 -4.61804,-0.13094 -7.86789,1.18742 -10.91014,4.42575 -2.38312,2.53671 -3.6154,4.61219 -2.73842,4.61219 0.87699,0 -0.0537,1.91733 -2.06824,4.26071 l -3.66277,4.2607 4.80681,-3.29013 c 6.64734,-4.54988 15.3818,-9.33128 15.3818,-8.42025 0,0.41538 -3.54029,3.09811 -7.86733,5.96158 -8.95621,5.92696 -8.95774,8.6804 -0.002,4.04934 3.27077,-1.69138 5.94685,-2.63498 5.94685,-2.09691 0,0.5381 -4.54243,3.19288 -10.0943,5.8995 -5.55187,2.70662 -8.41479,3.58644 -6.36205,1.95513 3.14644,-2.50049 3.23969,-2.96604 0.59416,-2.96604 -3.71213,0 -6.00339,3.05479 -4.32642,5.76818 1.54422,2.4986 0.84106,2.65788 12.74605,-2.88723 z m -0.51603,-16.23147 c 2.49655,-2.1747 5.52484,-3.94076 6.72954,-3.92457 2.29455,0.0308 -0.90081,2.57555 -7.42322,5.91169 -3.02208,1.54575 -2.87355,1.12027 0.69368,-1.98712 z m 28.27562,-44.81192 c -4.67139,-28.98253 -5.58917,-41.60575 -5.34702,-73.54425 0.15228,-20.092476 1.11212,-39.343764 2.13288,-42.780636 1.02076,-3.436872 1.54722,-6.248858 1.16988,-6.248858 -0.37731,0 -3.3574,4.669093 -6.62244,10.375761 -5.63578,9.850328 -13.92882,18.522477 -25.96675,27.153833 -4.90311,3.5156 -5.11811,4.12748 -2.27834,6.48429 2.746,2.27897 3.13568,2.04745 3.13568,-1.86305 0,-3.22935 0.58153,-3.88389 2.10085,-2.36457 1.39624,1.39624 1.48338,3.29858 0.25981,5.67204 -1.01256,1.96415 -1.40956,4.78371 -0.88224,6.26567 0.69397,1.95023 1.72107,1.41915 3.71846,-1.92272 1.5178,-2.53947 2.38598,-3.31937 1.92932,-1.73312 -0.45669,1.58625 -1.41776,5.04715 -2.13575,7.6909 l -1.30541,4.80681 3.0848,-4.80681 3.08478,-4.80682 -1.26842,4.80682 c -1.70644,6.46673 -1.58296,9.22983 0.81631,18.26589 1.12316,4.23 2.06274,13.96379 2.08797,21.63066 0.0421,12.81271 1.9388,17.49328 4.67472,11.53635 0.6071,-1.32187 0.64402,-0.52946 0.0819,1.76092 -0.562,2.29038 -0.12133,4.72081 0.97911,5.40097 3.05234,1.88644 2.38335,6.13696 -0.96589,6.13696 -1.73804,0 -2.54351,-1.10316 -1.94476,-2.66349 0.56215,-1.46493 0.27009,-2.19873 -0.64903,-1.63069 -0.91912,0.56805 -2.079,3.16649 -2.57753,5.77431 -0.84325,4.41123 -0.29004,4.79085 7.94201,5.45002 4.86663,0.3897 10.40175,0.86449 12.30029,1.05509 2.86217,0.28737 3.27982,-0.721 2.44471,-5.90228 z M 342.5876,164.22513 c 0.0923,-2.23987 0.54786,-2.69547 1.16164,-1.16165 0.55541,1.38797 0.48712,3.04632 -0.15171,3.68523 -0.63892,0.6389 -1.09334,-0.49671 -1.00985,-2.52358 z m -0.98955,-9.05564 c 0.72204,-1.89624 1.79715,-2.96335 2.38914,-2.37136 0.59199,0.59198 10e-4,2.14344 -1.3128,3.44769 -1.89892,1.88478 -2.11976,1.66393 -1.07634,-1.07633 z m -0.94982,-6.53315 c 0.0743,-0.85553 0.87872,-3.28597 1.78757,-5.40096 1.59315,-3.70747 1.6573,-3.6943 1.78758,0.3672 0.0744,2.31697 -0.73008,4.7474 -1.78758,5.40097 -1.0575,0.65357 -1.86191,0.48833 -1.78757,-0.36721 z m -2.02844,-11.53635 c -0.0154,-2.31696 0.83579,-4.7474 1.89329,-5.40097 2.44799,-1.51294 2.44799,2.94155 0,6.72954 -1.51528,2.34472 -1.86935,2.09626 -1.89329,-1.32857 z m -1.80036,-9.40664 c 0.0923,-2.23987 0.54786,-2.69547 1.16163,-1.16165 0.55542,1.38797 0.48712,3.04632 -0.1517,3.68522 -0.63892,0.63891 -1.09334,-0.4967 -1.00986,-2.52357 z m -204.92206,45.39204 c 14.62616,-9.05294 30.82239,-17.43146 33.41143,-17.28417 0.6587,0.0375 -0.96543,1.30466 -3.60918,2.81596 -6.31705,3.61115 -4.13246,3.61115 4.51024,0 6.47027,-2.70345 12.50544,-3.87706 10.71134,-2.08295 -0.44063,0.44062 -1.23375,0.7453 -1.7625,0.67706 -1.98993,-0.25683 -18.67902,8.95666 -29.46975,16.26923 -6.16212,4.1759 -11.61063,7.18577 -12.10781,6.68859 -0.49717,-0.49717 4.84105,-4.53224 11.86271,-8.96682 7.02166,-4.43458 12.30756,-8.52196 11.74645,-9.08308 -0.90498,-0.90497 -33.94519,18.01437 -33.94519,19.43754 0,0.31356 3.67721,0.60453 8.17158,0.6466 5.2533,0.0492 12.22953,-1.91717 19.53436,-5.50599 6.24952,-3.07036 12.73872,-5.58249 14.42044,-5.58252 1.68172,-3e-5 5.27474,-2.81202 7.9845,-6.24886 8.74249,-11.08827 8.91669,-10.84962 -7.30123,-10.00148 -33.67572,1.76113 -38.3275,2.17087 -40.60145,3.57625 -1.30716,0.80786 -3.4744,0.5578 -4.81609,-0.55571 -1.79029,-1.4858 -5.09359,-0.23714 -12.41349,4.69237 -5.48573,3.69431 -9.974047,7.55916 -9.974047,8.58857 0,2.99597 1.62175,2.2776 10.966827,-4.8579 7.79423,-5.95134 12.10587,-8.11292 12.10587,-6.0691 0,0.36325 -4.32446,3.60785 -9.60991,7.21023 -5.28545,3.60237 -9.61158,7.19869 -9.61362,7.99182 -0.009,3.4161 5.74842,0.81289 18.07217,-8.17159 12.84783,-9.36655 18.18905,-11.92569 15.36986,-7.36415 -0.94042,1.52163 -0.35501,1.83269 1.80926,0.96136 9.38607,-3.7788 8.68133,-2.86109 -4.65609,6.06317 -25.18436,16.85119 -25.8033,21.63356 -0.79668,6.15557 z m -9.4338,-1.35864 c 6.74289,-4.95097 11.86325,-9.3983 11.37859,-9.88297 -1.00738,-1.00738 -21.2014,12.56092 -24.36114,16.36817 -4.03847,4.86605 0.84589,2.42617 12.98255,-6.4852 z m 36.32497,6.00505 c 3.94469,-1.6482 6.72768,-3.44121 6.18442,-3.98447 -0.54326,-0.54326 -4.31399,0.76703 -8.3794,2.91175 -8.86188,4.67511 -7.73953,5.22362 2.19498,1.07272 z m 31.59823,-16.23053 c 2.07972,0 2.06291,0.61764 -0.0915,3.36477 -2.38795,3.04488 -2.32096,3.11557 0.70478,0.7435 1.83897,-1.44169 2.7818,-3.60476 2.09513,-4.80681 -0.68664,-1.20205 -0.54042,-1.54414 0.32496,-0.76019 0.86536,0.78395 2.95085,0.35134 4.63439,-0.96136 2.71767,-2.11903 2.7607,-2.00413 0.3836,1.02451 -4.76213,6.06737 -0.69318,5.75374 4.76034,-0.36692 5.96064,-6.68979 9.18528,-6.40888 3.54328,0.30867 -2.21971,2.64284 -1.28425,2.19915 2.39396,-1.13546 3.76922,-3.41712 6.85896,-8.73627 8.22431,-14.15859 1.20283,-4.77686 4.67251,-13.60902 7.71037,-19.62702 6.15467,-12.1923 27.78362,-47.483148 32.03315,-52.266815 2.23488,-2.515798 2.34469,-4.907253 0.59908,-13.046754 -1.17557,-5.481472 -1.8428,-14.653678 -1.48273,-20.382677 0.36007,-5.728999 0.14863,-9.808065 -0.46987,-9.064589 -5.49679,6.607432 -27.72069,46.507003 -42.09329,75.571925 -9.72737,19.67111 -21.02946,40.18297 -25.11577,45.58192 -4.08631,5.39894 -8.87034,12.66551 -10.63117,16.14793 l -3.20153,6.33167 6.56562,-6.24885 c 3.61109,-3.43688 7.7119,-6.24886 9.11291,-6.24886 z m -1.769,-3.6078 c 0,-0.86041 1.93186,-3.21263 4.293,-5.22715 2.63039,-2.24424 3.38148,-2.4773 1.9394,-0.60177 -1.29448,1.68355 -1.89116,3.52342 -1.32599,4.0886 0.56519,0.56518 -0.30754,1.53995 -1.93939,2.16615 -1.63186,0.62621 -2.96702,0.43458 -2.96702,-0.42583 z m 8.76123,-14.55454 c 1.65319,-2.52311 4.25462,-5.06669 5.78096,-5.65239 2.29919,-0.88229 2.25962,-0.27818 -0.23071,3.52255 -1.6532,2.52312 -4.25463,5.06669 -5.78096,5.6524 -2.2992,0.88229 -2.25963,0.27817 0.23071,-3.52256 z m 7.58194,-12.60127 c 0.65357,-1.0575 2.05352,-1.92272 3.11102,-1.92272 1.0575,0 1.388,0.86522 0.73443,1.92272 -0.65358,1.0575 -2.05353,1.92273 -3.11103,1.92273 -1.0575,0 -1.388,-0.86523 -0.73442,-1.92273 z m 2.89899,-4.22707 c -0.008,-0.73864 2.17108,-3.7017 4.84284,-6.58458 3.58769,-3.87118 4.23015,-5.62948 2.4573,-6.72517 -1.77575,-1.09747 -1.51722,-1.8225 0.99334,-2.78589 1.8666,-0.71628 3.93332,-0.76283 4.5927,-0.10345 0.6594,0.6594 -0.0269,1.21215 -1.52495,1.22834 -1.66455,0.0181 -1.95955,0.57881 -0.75858,1.44204 1.20034,0.86277 -0.47776,4.032 -4.31121,8.14214 -3.4521,3.70125 -6.28325,6.1252 -6.29144,5.38656 z m 12.48281,-22.69108 c 0.65357,-1.0575 2.05353,-1.92273 3.11103,-1.92273 1.0575,0 1.38799,0.86523 0.73442,1.92273 -0.65357,1.05749 -2.05353,1.92272 -3.11103,1.92272 -1.0575,0 -1.38799,-0.86523 -0.73442,-1.92272 z m 3.95864,-8.591116 c 2.05274,-1.552616 4.59749,-2.822938 5.65499,-2.822938 1.0575,0 0.2432,1.270322 -1.80954,2.822938 -2.05274,1.552618 -4.59748,2.822941 -5.65498,2.822941 -1.0575,0 -0.24321,-1.270323 1.80953,-2.822941 z m 5.65499,-10.636138 c 1.91405,-2.114998 4.34532,-3.845451 5.40282,-3.845451 1.0575,0 0.35668,1.730453 -1.55737,3.845451 -1.91406,2.114998 -4.34532,3.845451 -5.40282,3.845451 -1.0575,0 -0.35669,-1.730453 1.55737,-3.845451 z m 4.4409,-8.810397 c 2.48235,-4.781051 8.05681,-9.722542 8.05681,-7.141992 0,1.002647 -2.28049,3.920575 -5.06776,6.484285 -4.52214,4.159432 -4.84397,4.230244 -2.98905,0.657707 z m 8.23561,-14.262308 c 1.40289,-2.643748 2.34624,-5.823103 2.09632,-7.065233 -0.24989,-1.242131 0.46328,-2.825563 1.58487,-3.518738 3.26704,-2.019148 0.55949,8.933132 -3.05896,12.373761 -2.93233,2.788225 -2.97951,2.652494 -0.62223,-1.78979 z m 8.15301,-18.35047 c 0,-1.53973 0.72102,-2.79951 1.60228,-2.79951 0.88124,0 1.60226,0.814163 1.60226,1.809252 0,0.99509 -0.72102,2.254869 -1.60226,2.79951 -0.88126,0.544642 -1.60228,-0.26952 -1.60228,-1.809252 z M 103.79091,162.94331 c 6.44787,-4.00983 6.63206,-4.37212 2.51919,-4.95511 -5.12465,-0.7264 -14.499012,4.71824 -12.815026,7.44299 1.600849,2.59022 2.466569,2.38103 10.295836,-2.48788 z m 107.89956,0.48068 c 0,-1.0575 -0.38154,-1.92272 -0.84788,-1.92272 -0.46634,0 -1.38263,0.86522 -2.0362,1.92272 -0.65358,1.0575 -0.27203,1.92273 0.84788,1.92273 1.11991,0 2.0362,-0.86523 2.0362,-1.92273 z M 267.5129,60.558188 c 2.60916,-3.557053 2.56836,-3.647546 -0.54407,-1.206616 -1.85062,1.451358 -3.36477,3.542322 -3.36477,4.646585 0,1.104264 0.24484,1.647242 0.54407,1.206618 0.29924,-0.440625 1.81338,-2.531589 3.36477,-4.646587 z m 3.72165,-10.328827 c 0.0886,-3.872421 -8.38272,2.040602 -9.25769,6.461855 -0.61758,3.12057 -0.30835,3.103916 4.2657,-0.229725 2.71235,-1.976814 4.95875,-4.78127 4.99199,-6.23213 z m 1.72376,-9.225038 c 0.57988,-2.801621 -0.40529,-2.537733 -5.66306,1.516934 -8.78533,6.77503 -9.97019,11.299482 -1.57065,5.997596 3.59246,-2.267593 6.84761,-5.649131 7.23371,-7.51453 z m -1.89017,-4.144583 c 2.519,-1.990578 4.20731,-4.737344 3.75177,-6.103925 -0.56049,-1.681486 -3.12873,-0.464824 -7.94475,3.763712 -11.69492,10.268264 -8.26332,12.183515 4.19298,2.340213 z m 3.75024,-13.960058 c 0.48083,-1.538801 -1.19625,-0.841188 -3.86426,1.607405 -2.5926,2.379372 -5.52328,4.302857 -6.51262,4.274409 -0.98933,-0.02846 1.13239,-2.482821 4.71495,-5.454163 3.58258,-2.971343 6.14541,-6.507491 5.69521,-7.858109 -0.56732,-1.701937 -2.67415,-0.894295 -6.86411,2.63132 -4.41108,3.711691 -6.00152,6.635385 -5.8827,10.814243 l 0.16286,5.727256 5.85056,-4.511815 c 3.21782,-2.481498 6.23288,-5.735244 6.70013,-7.230546 z M 272.439,11.248916 c 3.63734,-4.0965793 3.63347,-4.1098593 -0.55628,-1.9123863 -4.67363,2.4512623 -7.55137,6.0376113 -4.84467,6.0376113 0.956,0 3.38644,-1.856351 5.40095,-4.125225 z"
     id="path22087"
     inkscape:connector-curvature="0" />
  <path
     style="fill:#000000;fill-opacity:0.43564357;stroke:none"
     d="m 88.486829,157.85096 99.247061,-9.84895 c 27.66252,-48.592565 50.16404,-98.659708 84.09484,-145.4613443 9.39786,8.9519203 6.73462,31.2345193 -3.03045,61.3665083 l -36.36533,52.275166 -19.69788,51.51757 c 25.85822,16.82909 40.09798,39.25151 66.66978,57.95724 l 54.548,-31.44084 c 0.30824,-28.10244 11.43745,-50.9689 -17.42504,-93.18619 22.54532,-7.65482 39.83093,-28.458961 52.27517,-61.366504 -13.35323,35.181633 -9.71228,66.674474 -10.3109,98.041534 -0.31717,16.61928 4.52957,36.72845 6.52285,58.78397 l 116.67211,68.18502 -56.82085,7.57611 -1.51522,-8.33373 -61.36649,-34.8501 c -14.19948,13.63035 -29.08303,25.50287 -48.48712,25.75877 3.06992,-9.08415 16.68811,-16.25044 9.09132,-27.274 -17.48672,5.5323 -28.96347,18.2766 -41.66861,29.54683 l 12.12178,25.75879 -23.48595,-12.12178 c -32.99322,11.42783 -56.92537,29.32787 -83.33723,45.45667 l -3.03045,-9.84895 c 7.9623,-18.82769 32.1723,-38.51052 59.09368,-58.33607 C 226.00936,231.12433 216.04228,209.19761 190.76434,199.51957 138.04657,249.63864 71.389916,275.5683 5.1495957,301.79708 25.668474,292.26252 42.950613,269.38914 58.939992,241.1882 95.620033,227.70726 129.83588,209.70863 160.45989,185.12496 l -47.72951,0 c -10.78589,-8.27992 -23.14049,-16.08923 -24.243551,-27.274 z"
     id="path22089"
     inkscape:connector-curvature="0"
     sodipodi:nodetypes="ccccccccccsccccccccccccccccccc" />
</svg>
