<?xml version="1.0" encoding="UTF-8" standalone="no"?>
<!-- Created with Inkscape (http://www.inkscape.org/) -->

<svg
   xmlns:dc="http://purl.org/dc/elements/1.1/"
   xmlns:cc="http://creativecommons.org/ns#"
   xmlns:rdf="http://www.w3.org/1999/02/22-rdf-syntax-ns#"
   xmlns:svg="http://www.w3.org/2000/svg"
   xmlns="http://www.w3.org/2000/svg"
   xmlns:sodipodi="http://sodipodi.sourceforge.net/DTD/sodipodi-0.dtd"
   xmlns:inkscape="http://www.inkscape.org/namespaces/inkscape"
   id="svg11258"
   version="1.1"
   inkscape:version="0.48.4 r9939"
   width="475.3576"
   height="461.25735"
   sodipodi:docname="Citrus.svg">
  <metadata
     id="metadata11264">
    <rdf:RDF>
      <cc:Work
         rdf:about="">
        <dc:format>image/svg+xml</dc:format>
        <dc:type
           rdf:resource="http://purl.org/dc/dcmitype/StillImage" />
        <dc:title />
      </cc:Work>
    </rdf:RDF>
  </metadata>
  <defs
     id="defs11262" />
  <sodipodi:namedview
     pagecolor="#ffffff"
     bordercolor="#666666"
     borderopacity="1"
     objecttolerance="10"
     gridtolerance="10"
     guidetolerance="10"
     inkscape:pageopacity="0"
     inkscape:pageshadow="2"
     inkscape:window-width="1254"
     inkscape:window-height="735"
     id="namedview11260"
     showgrid="false"
     inkscape:zoom="0.77257964"
     inkscape:cx="132.07842"
     inkscape:cy="244.73203"
     inkscape:window-x="4"
     inkscape:window-y="22"
     inkscape:window-maximized="0"
     inkscape:current-layer="svg11258"
     fit-margin-top="0"
     fit-margin-left="0"
     fit-margin-right="0"
     fit-margin-bottom="0" />
  <path
     style="fill:#006b22;fill-opacity:1;stroke:none"
     d="m 10.12766,95.16524 c 34.469509,12.02677 67.039074,13.92051 104.24043,40.51716 L 199.76134,72.860911 C 216.8502,66.999375 242.03735,72.007142 248.24192,56.168324 240.43387,43.213899 222.51271,49.422452 194.88814,70.892114 133.30131,91.25542 71.714485,87.083532 10.12766,95.16524 z"
     id="path11270"
     inkscape:connector-curvature="0"
     sodipodi:nodetypes="cccccc" />
  <path
     style="fill:#006b22;fill-opacity:1;stroke:none"
     d="m 361.43921,8.817844 c -12.39381,21.041715 -0.3836,24.10152 5.36025,31.778646 -9.39444,5.016707 -20.30292,12.730085 -4.59451,34.841645 18.30049,8.37316 39.84744,13.499863 53.60254,26.418395 12.86896,17.10936 5.21783,30.5378 4.97735,46.71078 l 28.33278,-26.80127 c 5.07205,6.44549 6.06812,14.52136 15.69788,19.14376 6.81288,-20.03692 3.06472,-43.13728 -11.10337,-64.323039 10.7322,-23.16982 -0.77488,-27.065615 -3.82874,-38.287523 C 436.33293,20.220884 418.21849,8.590334 398.57809,2.69184 383.17192,1.707291 370.71957,3.676563 361.43921,8.817844 z"
     id="path11780"
     inkscape:connector-curvature="0"
     sodipodi:nodetypes="ccccccccccc" />
  <path
     style="fill:#41301d;fill-opacity:1;stroke:none"
     d="m 249.57634,18.911248 15.16108,0.541468 c 45.39682,51.459726 40.52747,72.759764 53.06381,104.503204 l -5.41469,50.35646 -17.8684,16.24402 c 6.45392,-26.69975 15.42664,-51.86631 5.95614,-88.25918 -5.35751,-32.260124 -27.03094,-58.244887 -50.89794,-83.385972 z"
     id="path11782"
     inkscape:connector-curvature="0"
     sodipodi:nodetypes="ccccccc" />
  <path
     style="fill:#ff7700;fill-opacity:1;stroke:none"
     d="m 300.17917,129.80642 c 9.63922,0.60091 1.28777,28.18782 -9.18902,58.96278 8.3465,-2.13999 17.11468,1.38028 20.60805,-15.09934 2.41506,-11.39283 3.47649,-39.07984 12.31923,-45.39494 71.13305,16.38715 135.78331,41.71608 148.5556,138.60084 4.71971,43.42538 -5.88568,79.96232 -25.18273,110.9032 -25.27502,40.5259 -60.74244,74.93303 -131.79614,78.23716 -55.11458,4.09119 -91.94614,-22.96467 -117.14914,-40.67658 -45.213,-31.77433 -47.99577,-73.96576 -55.14471,-114.00502 -8.32233,-113.49261 51.03927,-164.13585 156.97886,-171.5281 z"
     id="path11784"
     inkscape:connector-curvature="0"
     sodipodi:nodetypes="ccsccscscc" />
  <path
     style="fill:#000000"
     d="m 260.30542,453.45693 c -30.7208,-10.51238 -48.02108,-19.88104 -66.79524,-36.17173 -34.25638,-29.72491 -44.29785,-51.16681 -52.70389,-112.54047 -4.04613,-29.5414 -2.83236,-49.14812 4.9035,-79.20892 3.95275,-15.35997 20.4086,-41.38944 35.5728,-56.2682 21.65318,-21.24559 71.68418,-41.48131 102.55879,-41.48131 7.97349,0 14.32664,1.04938 14.32664,2.36641 0,1.31522 -6.32043,2.36641 -14.22843,2.36641 -29.99457,0 -79.24396,19.83316 -99.26608,39.97531 -13.593,13.67448 -29.9637,38.11113 -33.18307,49.53255 -12.08788,42.88449 -6.29874,113.55271 12.34184,150.65704 10.55328,21.00648 38.92655,48.09301 63.11942,60.25694 33.2079,16.69661 52.59478,22.12996 78.31556,21.9487 25.52896,-0.17985 54.85542,-6.13834 78.09163,-15.86628 34.68962,-14.52296 76.6669,-71.93602 85.33282,-116.71118 3.94793,-20.39819 1.64766,-61.63022 -4.39119,-78.71177 -8.7446,-24.73507 -24.5246,-54.802 -34.36388,-65.47637 -20.97014,-22.7499 -52.12124,-32.87265 -85.9264,-41.65293 l -20.83737,-5.41215 -4.34195,13.63832 c -5.55913,17.46155 -2.38532,25.00032 -6.50579,31.6674 -6.30454,10.20096 -14.46098,15.95767 -19.73971,13.93204 -4.99829,-1.91803 -4.88965,-3.94693 0.70389,-13.14474 2.52281,-4.14843 5.89537,-14.86432 7.49462,-23.81309 5.58168,-31.23314 -4.62833,-69.955264 -27.22696,-103.260213 -5.88368,-8.671141 -12.65789,-16.973643 -15.05379,-18.450006 -3.81454,-2.350534 -4.95437,-1.394274 -9.16713,7.690842 -2.646,5.706326 -4.03651,10.375137 -3.08999,10.375137 3.17312,0 4.60083,7.397059 2.26875,11.754584 -2.90846,5.434505 -14.4336,9.527713 -27.01672,9.595103 -15.11427,0.08095 -33.98062,10.274677 -66.75998,36.071283 -5.35018,4.21046 -13.56869,10.68401 -18.26337,14.38567 -4.69468,3.70165 -9.64298,6.36121 -10.99622,5.91013 -2.62229,-0.8741 30.02945,-27.94218 51.83468,-42.970618 17.36221,-11.966257 17.47805,-12.226863 2.42854,-5.463255 -14.18097,6.373264 -16.61792,6.613029 -135.963102,13.376953 -4.630452,0.26243 -4.633195,0.30722 -0.126721,2.07075 4.417054,1.72855 4.396094,1.85744 -0.510703,3.1406 -2.814242,0.73594 -4.886988,0.64862 -4.606099,-0.19405 0.775927,-2.32778 -1.916239,-2.74443 -15.462585,-2.39305 -6.833017,0.17725 -9.761453,0.78292 -6.507635,1.34595 51.522059,8.9152 99.389345,28.15777 99.389345,39.95437 0,4.98646 -4.19666,4.02996 -7.23607,-1.64923 C 104.65094,127.03019 74.627234,114.38909 44.639466,107.65035 6.490025,99.07755 0,97.15141 0,94.40206 c 0,-1.354 2.096663,-1.76544 4.732826,-0.92875 3.09793,0.98324 4.732826,0.42524 4.732826,-1.61534 0,-2.25675 4.410207,-3.157707 15.973286,-3.263154 17.488625,-0.159496 73.297572,-4.025022 117.452102,-8.135171 29.53802,-2.749564 43.26596,-7.618832 62.85914,-22.295988 4.48509,-3.359757 14.49217,-7.417634 22.23799,-9.017505 12.60039,-2.602569 14.42939,-3.737221 17.37041,-10.776057 1.80792,-4.326965 2.98211,-11.801921 2.60935,-16.611016 -0.67014,-8.645178 -0.58436,-8.736804 7.60466,-8.122873 8.06126,0.604351 9.97505,2.152328 19.72526,15.954807 3.51393,4.974323 4.99604,5.607315 7.7594,3.31393 2.38482,-1.979225 9.52192,-2.403961 23.64612,-1.407204 16.69913,1.178476 22.38636,0.620987 32.58254,-3.193903 C 349.4263,24.509835 352.1597,22.240097 354.55048,15.628491 358.3929,5.002443 369.12091,0 388.06658,0 c 21.02201,0 40.31982,9.38677 56.40871,27.43812 14.67869,16.4691 20.93425,34.088615 12.10273,34.088615 -1.22471,0 -2.22675,-3.034884 -2.22675,-6.744187 0,-13.185227 -19.75583,-34.539081 -40.90224,-44.210738 -11.75167,-5.374829 -15.43476,-6.010973 -26.03054,-4.496007 -6.78813,0.970556 -14.71913,1.898433 -17.62445,2.061948 -7.14562,0.402165 -9.90952,3.637067 -10.98271,12.854347 -0.65226,5.601995 0.45627,9.027186 3.98577,12.315409 4.23316,3.943779 4.34994,4.555099 0.87032,4.555099 -2.21044,0 -5.74475,-2.01554 -7.85401,-4.478978 -3.75294,-4.383125 -4.04365,-4.384237 -13.5837,-0.05197 -5.3618,2.434855 -11.87847,4.455684 -14.48153,4.490733 -4.11632,0.05542 -3.8081,0.829458 2.36642,5.942323 3.90458,3.233227 9.48787,6.536191 12.40731,7.339917 2.91945,0.803726 4.72014,2.412612 4.00156,3.575302 -2.16891,3.509378 -8.19707,2.395167 -14.8514,-2.745051 C 315.65286,39.56063 307.16754,35.49619 297.35301,35.49619 c -15.51191,0 -17.04686,3.515089 -7.32074,16.76472 8.81898,12.013878 19.21878,33.621755 25.62312,53.23769 l 6.98906,21.59717 15.87207,2.92454 c 22.3937,4.12621 44.47642,5.64432 65.68926,20.74986 27.29382,19.43579 34.90586,27.9048 48.00895,53.41378 18.36386,35.75067 21.36897,46.12832 22.7913,78.70594 1.98081,45.36949 -3.83309,64.62825 -32.27266,106.90424 -28.29059,42.05454 -51.67763,57.80884 -99.6035,67.0963 -34.52109,6.68978 -55.82113,5.8068 -82.82445,-3.4335 z m 44.26103,-275.38436 c 2.2776,-3.5792 5.15532,-7.22094 6.3949,-8.09275 1.2396,-0.87181 2.32907,-14.18288 2.42107,-29.58016 0.15713,-26.28759 -0.30148,-29.15777 -7.51844,-47.05867 -11.51672,-28.566006 -15.7974,-31.606752 -6.47647,-4.600507 4.49209,13.015267 7.53863,25.661037 6.77007,28.101697 -0.90191,2.86417 -0.48107,3.87126 1.18694,2.84038 1.76123,-1.0885 2.15535,0.88972 1.23749,6.21129 -1.02342,5.93361 -0.73948,6.95619 1.18262,4.25886 1.55975,-2.18889 2.54328,-2.46922 2.56564,-0.73126 0.0189,1.55009 -1.04023,3.48365 -2.35593,4.29678 -1.31568,0.81314 -2.38757,4.33686 -2.38196,7.8305 0.0166,9.94391 -1.3511,19.18213 -3.09681,20.92784 -2.76839,2.76838 -1.72589,5.89476 1.36329,4.08842 1.62691,-0.9513 0.92944,0.58319 -1.54997,3.40997 -2.47939,2.82677 -3.64546,5.13959 -2.59125,5.13959 1.05422,0 -0.0118,2.12977 -2.36641,4.73283 -2.35574,2.60305 -3.07776,4.73282 -1.60452,4.73282 1.47323,0 4.54211,-2.92843 6.81974,-6.50763 z M 223.2095,66.225141 c 16.51783,-1.706141 27.37713,-7.564229 21.15424,-11.411737 -4.27804,-2.645054 -20.9729,-0.385735 -16.85922,2.281565 2.18742,1.418324 0.89668,1.934079 -4.02307,1.607549 -4.14288,-0.274965 -10.9807,1.828762 -15.97328,4.914342 -9.06997,5.605549 -11.79546,9.216607 -4.58827,6.079073 2.27768,-0.991546 11.40798,-2.553402 20.2896,-3.470792 z m 47.2089,-33.686964 c -7.16576,-11.054925 -9.76945,-13.516316 -14.35523,-13.570637 -2.33465,-0.02766 17.32683,22.767306 20.24911,23.476228 0.34384,0.08342 -2.30841,-4.374101 -5.89388,-9.905591 z m 20.65038,376.711583 c 0,-1.37834 1.06489,-1.84793 2.36642,-1.04354 1.30152,0.80439 2.36641,1.93213 2.36641,2.50608 0,0.57395 -1.06489,1.04354 -2.36641,1.04354 -1.30153,0 -2.36642,-1.12774 -2.36642,-2.50608 z M 257.939,392.68487 c 0,-1.37834 1.06489,-1.84793 2.36642,-1.04354 1.30152,0.80439 2.36641,1.93213 2.36641,2.50608 0,0.57395 -1.06489,1.04354 -2.36641,1.04354 -1.30153,0 -2.36642,-1.12774 -2.36642,-2.50608 z m -18.9313,-4.59316 c 0,-1.30153 1.00203,-2.36641 2.22675,-2.36641 1.22471,0 2.88489,1.06488 3.68928,2.36641 0.80439,1.30153 -0.19759,2.36641 -2.22674,2.36641 -2.02911,0 -3.68929,-1.06488 -3.68929,-2.36641 z m -4.73283,-7.2389 c 0,-1.37834 1.06489,-1.84793 2.36642,-1.04354 1.30152,0.80439 2.36641,1.93213 2.36641,2.50608 0,0.57395 -1.06489,1.04354 -2.36641,1.04354 -1.30153,0 -2.36642,-1.12774 -2.36642,-2.50608 z m -26.03054,-17.7481 c 0,-2.0291 1.06489,-3.03114 2.36642,-2.22675 1.30152,0.80439 2.36641,2.46458 2.36641,3.68929 0,1.22471 -1.06489,2.22675 -2.36641,2.22675 -1.30153,0 -2.36642,-1.66018 -2.36642,-3.68929 z m -1.1832,-10.50919 c -0.80439,-1.30153 -0.33479,-2.36641 1.04354,-2.36641 1.37834,0 2.50608,1.06488 2.50608,2.36641 0,1.30153 -0.4696,2.36641 -1.04355,2.36641 -0.57395,0 -1.70168,-1.06488 -2.50607,-2.36641 z m -13.01527,-4.73283 c 0,-1.30152 1.12773,-2.36641 2.50607,-2.36641 1.37834,0 1.84793,1.06489 1.04355,2.36641 -0.80439,1.30153 -1.93212,2.36642 -2.50608,2.36642 -0.57395,0 -1.04354,-1.06489 -1.04354,-2.36642 z m -1.18321,-9.46565 c -0.80439,-1.30153 -0.33479,-2.36641 1.04355,-2.36641 1.37834,0 2.50607,1.06488 2.50607,2.36641 0,1.30153 -0.4696,2.36641 -1.04355,2.36641 -0.57395,0 -1.70168,-1.06488 -2.50607,-2.36641 z m -20.11451,-28.03683 c 0,-1.10346 3.41879,-2.10351 7.59732,-2.2223 5.51189,-0.15666 6.64864,0.38404 4.14123,1.97006 -4.35134,2.75231 -11.73855,2.91104 -11.73855,0.25224 z m 14.26354,-7.02311 c -3.0488,-3.26376 -3.01131,-3.53152 0.3157,-2.25484 2.07644,0.79682 4.96999,0.25411 6.43012,-1.20602 1.96208,-1.96211 2.65477,-1.67118 2.65477,1.11494 0,5.37483 -5.32892,6.70466 -9.40059,2.34592 z m 4.02299,-17.15754 c 0.83405,-3.1894 2.08397,-4.08379 3.59517,-2.5726 2.44948,2.44948 0.52261,7.46182 -2.86851,7.46182 -1.10287,0 -1.42986,-2.20014 -0.72666,-4.88922 z m -14.73691,-2.21001 c -0.80439,-1.30153 -0.33479,-2.36642 1.04355,-2.36642 1.37834,0 2.50607,1.06489 2.50607,2.36642 0,1.30152 -0.4696,2.36641 -1.04355,2.36641 -0.57395,0 -1.70168,-1.06489 -2.50607,-2.36641 z M 164.4657,269.77107 c -0.80439,-1.30153 -0.3348,-2.36641 1.04354,-2.36641 1.37834,0 2.50607,1.06488 2.50607,2.36641 0,1.30153 -0.46959,2.36641 -1.04354,2.36641 -0.57396,0 -1.70169,-1.06488 -2.50607,-2.36641 z m 10.64885,0 c 0,-1.30153 1.06489,-2.36641 2.36642,-2.36641 1.30152,0 2.36641,1.06488 2.36641,2.36641 0,1.30153 -1.06489,2.36641 -2.36641,2.36641 -1.30153,0 -2.36642,-1.06488 -2.36642,-2.36641 z m 16.56489,-4.87249 c 0,-1.37834 1.06489,-1.84794 2.36642,-1.04354 1.30152,0.80439 2.36641,1.93212 2.36641,2.50607 0,0.57395 -1.06489,1.04355 -2.36641,1.04355 -1.30153,0 -2.36642,-1.12774 -2.36642,-2.50608 z m -26.03054,-4.59316 c 0,-1.30153 1.12773,-2.36642 2.50607,-2.36642 1.37834,0 1.84794,1.06489 1.04355,2.36642 -0.80439,1.30152 -1.93212,2.36641 -2.50607,2.36641 -0.57395,0 -1.04355,-1.06489 -1.04355,-2.36641 z m 2.36641,-11.97173 c 0,-1.37834 1.06489,-1.84794 2.36642,-1.04354 1.30152,0.80439 2.36641,1.93212 2.36641,2.50607 0,0.57395 -1.06489,1.04355 -2.36641,1.04355 -1.30153,0 -2.36642,-1.12774 -2.36642,-2.50608 z m 7.09924,-2.22675 c 0,-1.30153 1.06489,-2.36641 2.36642,-2.36641 1.30152,0 2.36641,1.06488 2.36641,2.36641 0,1.30153 -1.06489,2.36641 -2.36641,2.36641 -1.30153,0 -2.36642,-1.06488 -2.36642,-2.36641 z m 40.22902,-26.03054 c 0,-1.30153 1.06489,-2.36642 2.36641,-2.36642 1.30153,0 2.36642,1.06489 2.36642,2.36642 0,1.30152 -1.06489,2.36641 -2.36642,2.36641 -1.30152,0 -2.36641,-1.06489 -2.36641,-2.36641 z m 63.10435,-1.57762 c -2.87438,-2.87439 -1.63507,-5.39514 1.97201,-4.01097 1.95229,0.74918 3.54962,2.31307 3.54962,3.47536 0,2.48094 -3.26007,2.79719 -5.52163,0.53561 z m 17.35369,-0.92846 c 0,-1.37834 1.06489,-1.84793 2.36641,-1.04354 1.30153,0.80439 2.36642,1.93213 2.36642,2.50608 0,0.57395 -1.06489,1.04354 -2.36642,1.04354 -1.30152,0 -2.36641,-1.12774 -2.36641,-2.50608 z m 8.28244,0.13962 c -0.80439,-1.30153 -0.3348,-2.36642 1.04355,-2.36642 1.37834,0 2.50607,1.06489 2.50607,2.36642 0,1.30152 -0.46959,2.36641 -1.04354,2.36641 -0.57395,0 -1.70168,-1.06489 -2.50608,-2.36641 z m -117.13743,-2.29211 c 0,-1.26066 1.59733,-1.67918 3.54962,-0.93002 1.95229,0.74918 3.54962,1.78063 3.54962,2.29215 0,0.5115 -1.59733,0.93002 -3.54962,0.93002 -1.95229,0 -3.54962,-1.03147 -3.54962,-2.29215 z m 39.04581,-2.44067 c 0.80439,-1.30153 1.93213,-2.36641 2.50608,-2.36641 0.57395,0 1.04354,1.06488 1.04354,2.36641 0,1.30153 -1.12774,2.36641 -2.50608,2.36641 -1.37834,0 -1.84793,-1.06488 -1.04354,-2.36641 z m 42.59543,-4.73283 c -0.80439,-1.30152 -0.3348,-2.36641 1.04354,-2.36641 1.37834,0 2.50608,1.06489 2.50608,2.36641 0,1.30153 -0.46959,2.36642 -1.04354,2.36642 -0.57395,0 -1.70169,-1.06489 -2.50608,-2.36642 z m -34.31299,-2.50607 c 0,-1.37834 1.06489,-1.84793 2.36642,-1.04355 1.30152,0.80439 2.36641,1.93212 2.36641,2.50608 0,0.57395 -1.06489,1.04354 -2.36641,1.04354 -1.30153,0 -2.36642,-1.12773 -2.36642,-2.50607 z m 18.93131,0.13966 c 0,-1.30153 1.06488,-2.36641 2.36641,-2.36641 1.30153,0 2.36641,1.06488 2.36641,2.36641 0,1.30153 -1.06488,2.36641 -2.36641,2.36641 -1.30153,0 -2.36641,-1.06488 -2.36641,-2.36641 z m -44.96185,-4.73283 c 0,-1.30152 1.06489,-2.36641 2.36642,-2.36641 1.30152,0 2.36641,1.06489 2.36641,2.36641 0,1.30153 -1.06489,2.36642 -2.36641,2.36642 -1.30153,0 -2.36642,-1.06489 -2.36642,-2.36642 z m 80.84062,-0.64385 c -4.34492,-1.38991 -9.52053,-5.00054 -11.50134,-8.02362 -4.22575,-6.44932 -2.55743,-16.14905 3.1546,-18.34096 5.9985,-2.30184 6.84866,0.40619 1.85858,5.92017 -4.44798,4.91496 -4.42399,5.03578 2.11848,10.66336 8.56481,7.36715 22.77448,7.9368 24.59219,0.98587 0.67689,-2.58842 2.17452,-4.1229 3.32808,-3.40996 3.31316,2.04764 2.47813,5.369 -2.63545,10.48258 -5.19939,5.19938 -9.05399,5.51685 -20.91514,1.72256 z m -25.03362,-6.13778 c -1.01938,-1.64939 -1.21435,-3.63797 -0.43327,-4.41907 2.11787,-2.11784 4.42702,0.99698 3.28314,4.42861 -0.80155,2.40469 -1.35896,2.40283 -2.84987,-0.009 z m -67.63906,-2.68402 c 0,-1.30152 1.12773,-2.36641 2.50607,-2.36641 1.37834,0 1.84794,1.06489 1.04355,2.36641 -0.80439,1.30153 -1.93212,2.36642 -2.50607,2.36642 -0.57396,0 -1.04355,-1.06489 -1.04355,-2.36642 z m 47.32826,-1.04354 c 0,-2.02911 1.06488,-3.68928 2.36641,-3.68928 1.30153,0 2.36641,1.00204 2.36641,2.22675 0,1.22472 -1.06488,2.88489 -2.36641,3.68928 -1.30153,0.80439 -2.36641,-0.19764 -2.36641,-2.22675 z m -40.22902,-6.0557 c 0,-1.30152 1.06488,-2.36641 2.36641,-2.36641 1.30153,0 2.36641,1.06489 2.36641,2.36641 0,1.30153 -1.06488,2.36642 -2.36641,2.36642 -1.30153,0 -2.36641,-1.06489 -2.36641,-2.36642 z m 55.63455,-4.77142 c 0.8175,-1.32276 2.47769,-1.79236 3.68929,-1.04355 3.28231,2.02858 2.67028,3.44856 -1.48639,3.44856 -2.02911,0 -3.0204,-1.08225 -2.2029,-2.40501 z m -16.58874,-2.32781 c 0.80439,-1.30153 1.93213,-2.36642 2.50608,-2.36642 0.57395,0 1.04354,1.06489 1.04354,2.36642 0,1.30152 -1.12774,2.36641 -2.50608,2.36641 -1.37834,0 -1.84793,-1.06489 -1.04354,-2.36641 z m -24.66051,-6.11324 c 0.11359,-2.75673 0.67429,-3.31747 1.4297,-1.42971 0.68358,1.70826 0.59953,3.74929 -0.18671,4.53563 -0.78636,0.78634 -1.34564,-0.61132 -1.24289,-3.10592 z m 9.27883,1.54944 c 0,-1.20856 -1.7241,-3.92148 -3.83134,-6.02872 -2.10722,-2.10723 -3.17888,-4.48379 -2.38142,-5.28125 1.58285,-1.58284 10.94558,8.25673 10.94558,11.50302 0,1.10238 -1.06488,2.00433 -2.36641,2.00433 -1.30153,0 -2.36641,-0.98882 -2.36641,-2.19738 z m 30.76336,-2.53544 c 0,-1.30153 1.06489,-2.36642 2.36642,-2.36642 1.30152,0 2.36641,1.06489 2.36641,2.36642 0,1.30152 -1.06489,2.36641 -2.36641,2.36641 -1.30153,0 -2.36642,-1.06489 -2.36642,-2.36641 z m 11.83207,-4.73283 c 0,-1.30153 1.06488,-2.36641 2.36641,-2.36641 1.30153,0 2.36641,1.06488 2.36641,2.36641 0,1.30153 -1.06488,2.36641 -2.36641,2.36641 -1.30153,0 -2.36641,-1.06488 -2.36641,-2.36641 z m -25.48878,-2.8085 c 1.17914,-3.53741 6.55748,-5.4851 6.55748,-2.3747 0,1.27073 -1.68631,2.95753 -3.74736,3.74842 -2.30467,0.88439 -3.38653,0.35553 -2.81012,-1.37372 z m 16.02313,-9.02356 c 0,-1.30153 1.06488,-2.36642 2.36641,-2.36642 1.30153,0 2.36641,1.06489 2.36641,2.36642 0,1.30152 -1.06488,2.36641 -2.36641,2.36641 -1.30153,0 -2.36641,-1.06489 -2.36641,-2.36641 z m 18.9313,0 c 0,-1.30153 1.06489,-2.36642 2.36641,-2.36642 1.30153,0 2.36642,1.06489 2.36642,2.36642 0,1.30152 -1.06489,2.36641 -2.36642,2.36641 -1.30152,0 -2.36641,-1.06489 -2.36641,-2.36641 z m 139.11621,-1.29096 c -0.66279,-0.66278 -0.39612,-5.62882 0.59257,-11.03563 0.98871,-5.40681 1.42432,-10.9683 0.968,-12.35886 -0.45631,-1.39057 -1.42779,-6.64763 -2.15885,-11.68236 C 415.4651,101.6813 410.53186,96.1932 393.19632,90.1285 367.12884,81.008988 358.3034,74.887003 353.64687,62.69402 c -3.88622,-10.175909 -3.88213,-10.930366 0.0831,-15.311856 6.22442,-6.8779 17.44901,-9.709971 40.68694,-10.265721 23.6931,-0.566635 22.7537,-1.012962 44.93127,21.347683 9.17255,9.248263 17.72678,20.993312 23.07253,31.678854 7.30552,14.60287 8.49549,19.28484 8.49549,33.42563 0,21.25525 -4.93061,20.74154 -5.53094,-0.57625 C 464.84944,103.96729 454.84656,82.535784 437.32955,62.882133 421.46571,45.083289 415.3193,42.221787 392.9519,42.221787 c -30.8474,0 -41.29419,7.600577 -32.42213,23.588733 3.28721,5.923784 15.08863,14.606766 19.88691,14.631926 6.83344,0.03583 47.42537,17.787504 55.89798,24.445334 8.98629,7.06145 22.76944,24.00263 22.76944,27.98639 0,4.29287 -4.96874,1.71627 -7.52981,-3.90467 -3.50196,-7.68594 -4.71153,-7.47022 -9.95145,1.77481 -4.6713,8.24173 -21.25415,23.77732 -23.24991,21.78157 z m 19.32651,-25.05525 c 6.58095,-11.70918 3.82377,-16.86249 -5.68757,-10.63041 -5.98672,3.92263 -8.75961,10.39579 -3.07954,7.18895 2.36642,-1.33602 2.36642,-1.03266 0,1.51683 -1.6269,1.75277 -2.95801,5.60268 -2.95801,8.55534 0,7.77775 5.31709,4.77086 11.72512,-6.63071 z m -6.40069,-12.44414 c 5.12891,-3.8934 5.42029,-7.16868 0.46869,-5.26858 -2.01988,0.77511 -3.15365,0.56973 -2.51947,-0.45638 0.63417,-1.02612 -0.80558,-3.08885 -3.19944,-4.58384 -3.47645,-2.17107 -4.25325,-2.04204 -3.85946,0.64107 0.27117,1.84759 1.16042,4.02662 1.9761,4.8423 0.81568,0.81568 0.91005,2.97627 0.20967,4.80132 -1.58898,4.14083 1.48665,4.15154 6.92386,0.0241 z m -159.14127,29.3247 c 0,-1.30153 1.06489,-2.36642 2.36641,-2.36642 1.30153,0 2.36642,1.06489 2.36642,2.36642 0,1.30152 -1.06489,2.36641 -2.36642,2.36641 -1.30152,0 -2.36641,-1.06489 -2.36641,-2.36641 z M 107.12196,118.76217 c -1.67997,-1.06713 0.97876,-1.80415 6.27168,-1.73857 5.05335,0.0626 8.69881,0.9125 8.10101,1.88865 -1.41823,2.31581 -10.64228,2.2195 -14.37269,-0.15008 z M 83.416054,102.37008 c -24.643433,-1.39989 -16.824005,-5.34511 10.648856,-5.37277 15.68016,-0.0159 29.89524,-1.37748 37.0555,-3.54962 15.23815,-4.62265 19.48336,-4.656928 15.72381,-0.12695 -3.24062,3.9047 -32.14493,11.02342 -42.00599,10.34547 -3.64765,-0.25078 -13.28763,-0.83404 -21.422176,-1.29613 z M 437.96322,98.79774 c -1.13983,-2.92844 -5.44667,-9.942656 -9.57076,-15.587157 -9.18985,-12.57783 -23.89753,-19.631335 -44.84509,-21.506791 -9.42277,-0.843631 -15.58278,-2.538915 -16.21892,-4.463577 -0.81106,-2.453902 2.12071,-2.758956 14.00999,-1.457746 19.66442,2.15215 37.53107,8.893526 45.03267,16.991547 8.15419,8.802483 18.51451,24.665334 18.51451,28.347854 0,4.9599 -4.70164,3.38136 -6.9224,-2.32413 z M 383.35889,34.434526 c 0,-0.650764 3.19465,-2.835228 7.09923,-4.854365 3.90459,-2.019137 7.09924,-3.138715 7.09924,-2.487952 0,0.650764 -3.19465,2.835228 -7.09924,4.854365 -3.90458,2.019137 -7.09923,3.138715 -7.09923,2.487952 z M 366.794,32.236329 c 0,-0.4914 1.86355,-2.35495 4.14122,-4.141222 3.75327,-2.943513 3.83697,-2.859813 0.89346,0.893451 -3.09141,3.941847 -5.03468,5.19541 -5.03468,3.247771 z m 35.04823,-3.160957 5.46809,-4.465109 -9.01771,-0.261652 c -4.95972,-0.143901 -10.55321,0.974321 -12.42996,2.484949 -2.71998,2.189365 -3.00499,2.070843 -1.40478,-0.584182 1.55795,-2.58489 0.83449,-3.024029 -3.2306,-1.960985 -4.47169,1.169377 -4.8019,0.844204 -2.25683,-2.222433 4.53048,-5.458881 37.62422,-3.547421 44.3763,2.56313 5.84689,5.291352 6.38463,8.50069 1.42437,8.50069 -1.95229,0 -3.54962,-1.099201 -3.54962,-2.442668 0,-4.215724 -10.28152,-6.801735 -14.19848,-3.571203 -1.95229,1.610166 -5.14694,3.714399 -7.09923,4.676072 -1.95229,0.961675 -1.08898,-0.2608 1.91845,-2.716609 z m -36.23144,-3.04483 c 2.35574,-2.603055 4.8156,-4.732826 5.46637,-4.732826 0.65076,0 -0.74422,2.129771 -3.09996,4.732826 -2.35574,2.603054 -4.8156,4.732825 -5.46636,4.732825 -0.65077,0 0.74421,-2.129771 3.09995,-4.732825 z"
     id="path11268"
     inkscape:connector-curvature="0"
     sodipodi:nodetypes="sssssssssssssssssscsssssssssssssssssssssssssssssssssssssssssssssssssssssssssssscsssssssssssssssscscsssscssssssssssssssssssssssssssssssssssssssssssssssssssssssssssssssssssssssssssssssssssssssssssssssssssssssssssssssssssssssssssssssssssssssssssssssssssssssssssssssscssccsssssssssssssssssssssssscscccssssssssssssssssssssssssssssssssssssssssssssssssssssssssscssssscccssssssssssssssssssssssssssssssssscssssssssssssssss" />
</svg>
