<?xml version="1.0" encoding="UTF-8" standalone="no"?>
<!-- Created with Inkscape (http://www.inkscape.org/) -->

<svg
   xmlns:dc="http://purl.org/dc/elements/1.1/"
   xmlns:cc="http://creativecommons.org/ns#"
   xmlns:rdf="http://www.w3.org/1999/02/22-rdf-syntax-ns#"
   xmlns:svg="http://www.w3.org/2000/svg"
   xmlns="http://www.w3.org/2000/svg"
   xmlns:sodipodi="http://sodipodi.sourceforge.net/DTD/sodipodi-0.dtd"
   xmlns:inkscape="http://www.inkscape.org/namespaces/inkscape"
   id="svg20089"
   version="1.1"
   inkscape:version="0.48.4 r9939"
   width="499.82281"
   height="439.89679"
   sodipodi:docname="FineCheese.svg">
  <metadata
     id="metadata20095">
    <rdf:RDF>
      <cc:Work
         rdf:about="">
        <dc:format>image/svg+xml</dc:format>
        <dc:type
           rdf:resource="http://purl.org/dc/dcmitype/StillImage" />
        <dc:title />
      </cc:Work>
    </rdf:RDF>
  </metadata>
  <defs
     id="defs20093">
    <filter
       id="filter20635"
       inkscape:label="Blue cheese"
       x="0"
       y="0"
       width="1"
       height="1"
       inkscape:menu="Overlays"
       inkscape:menu-tooltip="Marble-like bluish speckles"
       color-interpolation-filters="sRGB">
      <feTurbulence
         id="feTurbulence20637"
         numOctaves="2"
         baseFrequency="0.063" />
      <feColorMatrix
         id="feColorMatrix20639"
         values="0 0 0 0 0 0 0 0 0 0.5 0 0 0 0 0.5 0 0 0 -10 1" />
      <feGaussianBlur
         id="feGaussianBlur20641"
         stdDeviation="1"
         result="result1" />
      <feTurbulence
         id="feTurbulence20643"
         numOctaves="3"
         baseFrequency="0.031"
         type="fractalNoise"
         result="result0" />
      <feColorMatrix
         id="feColorMatrix20645"
         result="result2"
         values="1 0 0 0 0 0 1 0 0 0 0 0 1 0 0 0 0 0 2 -0.5" />
      <feComposite
         id="feComposite20647"
         in2="result2"
         operator="in"
         in="result1"
         result="result3" />
      <feComposite
         id="feComposite20649"
         in2="SourceGraphic"
         operator="atop" />
    </filter>
    <filter
       id="filter20651"
       inkscape:label="Blue cheese"
       x="0"
       y="0"
       width="1"
       height="1"
       inkscape:menu="Overlays"
       inkscape:menu-tooltip="Marble-like bluish speckles"
       color-interpolation-filters="sRGB">
      <feTurbulence
         id="feTurbulence20653"
         numOctaves="2"
         baseFrequency="0.027309236947791166"
         seed="0" />
      <feColorMatrix
         id="feColorMatrix20655"
         values="0 0 0 0 0 0 0 0 0 0.5 0 0 0 0 0.5 0 0 0 -10 1" />
      <feGaussianBlur
         id="feGaussianBlur20657"
         stdDeviation="1"
         result="result1" />
      <feTurbulence
         id="feTurbulence20659"
         numOctaves="3"
         baseFrequency="0.031"
         type="fractalNoise"
         result="result0" />
      <feColorMatrix
         id="feColorMatrix20661"
         result="result2"
         values="1 0 0 0 0 0 1 0 0 0 0 0 1 0 0 0 0 0 2 -0.5" />
      <feComposite
         id="feComposite20663"
         in2="result2"
         operator="in"
         in="result1"
         result="result3" />
      <feComposite
         id="feComposite20665"
         in2="SourceGraphic"
         operator="atop" />
    </filter>
  </defs>
  <sodipodi:namedview
     pagecolor="#ffffff"
     bordercolor="#666666"
     borderopacity="1"
     objecttolerance="10"
     gridtolerance="10"
     guidetolerance="10"
     inkscape:pageopacity="0"
     inkscape:pageshadow="2"
     inkscape:window-width="1161"
     inkscape:window-height="756"
     id="namedview20091"
     showgrid="false"
     inkscape:zoom="0.76901936"
     inkscape:cx="114.85675"
     inkscape:cy="340.13196"
     inkscape:window-x="40"
     inkscape:window-y="22"
     inkscape:window-maximized="0"
     inkscape:current-layer="svg20089"
     fit-margin-top="0"
     fit-margin-left="0"
     fit-margin-right="0"
     fit-margin-bottom="0" />
  <path
     style="fill:#fffaa5;fill-opacity:0.58910887;stroke:none;filter:url(#filter20651)"
     d="M 37.239407,121.83263 65.743644,81.375 l 5.516949,-12.872881 24.826271,-23.90678 5.516946,-3.21822 8.73517,-17.930085 13.33263,-13.332627 21.60805,6.43644 35.86017,4.597458 8.73517,6.896186 13.79237,2.758475 31.26271,23.447034 3.21823,22.527542 -2.29873,11.493644 -0.45975,51.951274 -8.73517,9.19491 -17.93008,6.43644 -119.074156,35.86017 -48.733051,8.73517 -12.872881,4.13771 -10.114407,0.45975 -4.597458,2.29873 11.493644,-8.73517 2.758475,-4.13771 8.735169,-2.29873 10.574153,-10.11441 5.057203,-1.37924 6.896187,-9.19491 0,-15.17161 -3.218221,-10.57415 -11.033898,-8.73517 -4.597458,-5.9767 z"
     id="path20101"
     inkscape:connector-curvature="0"
     transform="matrix(2.2068694,0,0,2.2068694,-28.081489,-19.277378)" />
  <path
     style="fill:#000000"
     d="m 0,438.06432 c 0,-3.03597 8.6195685,-9.95485 18.296713,-14.68669 5.90053,-2.8852 10.484484,-7.27978 13.236252,-12.6895 3.130996,-6.15523 5.590816,-8.27576 9.599838,-8.27576 5.788133,0 16.479158,-6.74574 23.88283,-15.0694 2.513801,-2.82617 8.007582,-5.84145 12.208423,-6.7006 5.417755,-1.10804 9.737547,-4.31498 14.861456,-11.03287 5.556062,-7.28447 7.223613,-8.44856 7.223613,-5.04261 0,6.69079 -13.773887,20.19052 -20.600573,20.19052 -3.439473,0 -8.777095,2.87065 -13.33609,7.17233 -11.886199,11.21533 -14.091701,12.69528 -20.968747,14.07068 -4.455648,0.89114 -7.700143,3.69259 -10.525995,9.08863 -2.982629,5.69542 -7.285604,9.23148 -15.945383,13.10344 -6.523219,2.91666 -11.2643907,5.89903 -10.5359476,6.62745 0.7284212,0.72844 2.8434406,0.0637 4.7000146,-1.47706 2.167454,-1.79882 6.405173,-2.31706 11.840295,-1.44793 6.566805,1.05007 11.14116,0.0411 20.401604,-4.50063 6.56526,-3.21977 15.909233,-5.98447 20.764347,-6.14374 4.855113,-0.15934 11.310206,-0.94017 14.344651,-1.73535 3.034446,-0.79518 12.522796,-1.89479 21.085259,-2.44362 9.95844,-0.63829 21.5892,-3.33587 32.27819,-7.48641 9.43722,-3.66449 19.47044,-6.12875 23.05214,-5.66181 8.95188,1.16699 52.94942,-11.36494 78.61699,-22.39266 2.12412,-0.91261 5.59994,-0.95146 7.72404,-0.0863 3.54159,1.44243 3.49579,1.71617 -0.55172,3.299 -27.02732,10.5694 -77.59856,24.37028 -87.96225,24.00485 -3.81324,-0.1344 -13.72541,2.37322 -22.02708,5.57259 -9.55369,3.68189 -21.70421,6.30809 -33.103038,7.15484 -9.905007,0.73579 -19.805267,2.27568 -22.000573,3.42195 -2.195283,1.14627 -6.705992,1.48792 -10.023799,0.75922 -4.274045,-0.93875 -9.864751,0.62674 -19.180653,5.37087 -10.705215,5.45163 -14.842632,6.45137 -22.266607,5.38028 -5.613636,-0.80987 -9.692725,-0.38601 -10.61288,1.10284 C 12.73154,440.33231 0,440.81912 0,438.06431 z m 254.22004,-57.39754 c -3.88219,-2.47657 12.96545,-8.85407 28.1368,-10.65088 6.32947,-0.74965 14.65663,-3.48977 18.50479,-6.08915 12.16681,-8.21858 55.53199,-22.95471 58.58025,-19.90647 1.65591,1.65593 0.15912,2.29759 -22.89429,9.81465 -12.13777,3.95778 -25.53542,9.30688 -29.77257,11.88688 -4.23711,2.58004 -15.65767,6.75866 -25.379,9.28588 -9.72129,2.52719 -19.16475,5.24775 -20.98542,6.04569 -1.82067,0.79794 -4.60643,0.62397 -6.19056,-0.3866 z M 97.334265,340.62836 c 0.02205,-9.70563 -0.528988,-18.56526 -1.222915,-19.68807 -0.693947,-1.12284 -1.62119,-5.12895 -2.060554,-8.90249 -0.946264,-8.12711 -5.917477,-14.16415 -14.637856,-17.77627 -3.644269,-1.5095 -6.623433,-4.60366 -7.012769,-7.28351 -0.414494,-2.85291 -2.807182,-5.15849 -6.171974,-5.94729 -4.303307,-1.00878 -5.788773,-3.09509 -6.849284,-9.61951 -0.744841,-4.58225 -2.933503,-9.91062 -4.863742,-11.84087 -3.160082,-3.16008 -3.17606,-4.15433 -0.160219,-9.98612 1.842053,-3.56216 3.895478,-5.93035 4.563167,-5.26268 0.667666,0.66769 5.151142,-0.79463 9.963243,-3.24958 4.8121,-2.45494 12.882137,-4.79627 17.933396,-5.20293 22.497292,-1.81118 38.634822,-5.46933 48.523482,-10.99955 11.99813,-6.70996 27.26516,-11.01651 46.6155,-13.14938 17.32876,-1.91007 14.81205,0.0199 -5.56248,4.26717 -28.30871,5.90025 -31.52403,6.90552 -44.75483,13.99264 -7.10248,3.80449 -15.98052,6.91723 -19.72897,6.91723 -18.532631,0 -54.631826,10.85751 -54.450576,16.37705 0.04303,1.30973 1.497449,4.86407 3.232115,7.89852 1.734643,3.03445 3.18908,7.51613 3.232092,9.95931 0.04303,2.44319 2.312668,5.42246 5.043669,6.62061 2.731,1.19816 5.933742,4.38501 7.117198,7.08189 1.183456,2.69689 4.835758,6.01516 8.116226,7.37397 7.912662,3.27753 12.108846,8.35757 13.556487,16.41191 4.931329,27.43641 6.291589,39.23849 5.079229,44.06889 -2.80352,11.17014 -5.537417,5.17449 -5.499541,-12.06094 z m 282.247285,-1.96961 c 0,-1.07869 3.54608,-2.6265 7.8802,-3.43961 4.33409,-0.81307 15.08071,-4.36153 23.88136,-7.88548 14.23277,-5.69909 47.09805,-11.95369 49.8287,-9.48293 2.28144,2.06431 -5.58791,4.68402 -18.41295,6.12965 -7.43752,0.83837 -23.30149,4.92524 -35.25331,9.08197 -22.54981,7.8426 -27.924,8.91966 -27.924,5.5964 z m 88.27477,-27.69433 c 0,-0.53149 4.42726,-4.14572 9.83832,-8.03166 8.61386,-6.18601 10.15087,-8.57098 12.34973,-19.16284 1.91296,-9.21462 1.87933,-14.3552 -0.14102,-21.57149 -1.98227,-7.07999 -2.03288,-11.35159 -0.20038,-16.90442 2.55442,-7.73993 3.86911,-40.4073 2.46948,-61.36173 -0.80279,-12.01905 1.02377,-22.06869 4.01104,-22.06869 0.851,0 1.67885,7.19992 1.83967,15.9998 0.16088,8.7999 0.52102,19.97218 0.80049,24.82729 0.27946,4.85511 -0.68139,17.26875 -2.13526,27.58587 -3.07802,21.84293 -3.08781,22.15796 -1.10894,35.72322 1.99306,13.6625 -4.08175,30.85165 -13.97223,39.53564 -6.28606,5.51922 -13.7509,8.46643 -13.7509,5.42901 z M 59.65539,234.50127 c -0.06819,-3.41166 23.559478,-32.81514 45.95567,-57.18959 20.47489,-22.28345 11.61447,-8.09088 -12.399734,19.86182 -13.034478,15.17223 -25.901123,30.56514 -28.592555,34.20648 -3.215011,4.34974 -4.917456,5.42034 -4.963381,3.12129 z M 211.2021,204.608 c -2.08154,-2.08156 24.62039,-12.64029 58.03598,-22.94914 15.17222,-4.6807 34.38664,-11.60007 42.6987,-15.37638 8.31207,-3.7763 16.75334,-6.50866 18.75839,-6.07189 5.73733,1.24978 -28.94779,16.49082 -57.03071,25.05995 -13.9654,4.26136 -31.84674,10.13549 -39.73629,13.05362 -7.88957,2.91814 -15.88618,5.8701 -17.77023,6.5599 -1.88407,0.68981 -4.1142,0.56558 -4.95584,-0.27606 z m 284.99811,-48.68305 c -1.40604,-7.26726 -2.25442,-17.61712 -2.74991,-33.54666 l -0.57604,-18.52003 -8.09522,-4.153089 c -4.45238,-2.28421 -8.09524,-5.12247 -8.09524,-6.30725 0,-3.145123 1.37076,-2.737334 10.79347,3.21097 l 8.4989,5.365119 1.30708,18.35873 c 0.7189,10.09729 1.75709,22.07551 2.30711,26.61825 0.55004,4.54274 0.0901,8.82199 -1.02234,9.50944 -1.11232,0.68745 -2.17784,0.44648 -2.36781,-0.53548 z M 360.0551,153.18737 c 2.00512,-1.28442 9.94985,-3.74169 17.65495,-5.46062 29.1637,-6.50612 75.24241,-19.13428 81.35758,-22.29657 7.44663,-3.85079 8.78869,-4.032 8.78869,-1.18664 0,3.83258 -18.54944,10.39505 -55.29057,19.56083 -39.69483,9.90264 -58.59382,13.27965 -52.51065,9.383 z M 125.96578,142.6658 c -0.11124,-3.10082 2.68635,-7.03502 7.74822,-10.89591 4.35736,-3.32351 11.78828,-11.7354 16.51315,-18.6931 4.72488,-6.95768 11.51723,-14.734219 15.09411,-17.281169 3.57684,-2.54696 8.64057,-8.088877 11.25271,-12.315383 2.61211,-4.226506 6.08588,-7.684556 7.71945,-7.684556 4.25244,0 11.69347,-10.208896 14.66147,-20.115136 2.75905,-9.208883 23.67128,-34.049772 23.83875,-28.31719 0.0552,1.886008 -3.33537,6.758968 -7.53437,10.8288 -4.199,4.069829 -9.15068,11.849295 -11.00372,17.287699 -3.9413,11.567066 -13.37674,24.729566 -17.72722,24.729566 -1.67079,0 -5.08817,2.731001 -7.59414,6.068891 -6.57133,8.752789 -23.63087,27.767598 -37.90451,42.248888 -6.79124,6.89005 -12.91965,13.98186 -13.6187,15.75956 -0.84289,2.1435 -1.32965,1.59752 -1.4452,-1.62096 z M 468.34265,87.553537 C 466.78949,86.929336 459.83784,81.003 452.89457,74.383901 445.95131,67.764803 434.43199,59.43129 427.29606,55.864985 c -7.13592,-3.566303 -14.08756,-7.362591 -15.44809,-8.436192 -1.36051,-1.0736 -7.37874,-2.47762 -13.37383,-3.120049 -6.31915,-0.677158 -11.98626,-2.653418 -13.4845,-4.702382 -1.4214,-1.943881 -3.31468,-3.534331 -4.20727,-3.534331 -0.89258,0 -4.25895,-1.843179 -7.48076,-4.095954 -6.48941,-4.537548 -32.31153,-7.707846 -64.8756,-7.965064 -17.37135,-0.137223 -19.63805,-0.643463 -22.74554,-5.080039 -1.89831,-2.710203 -5.31039,-4.92764 -7.58243,-4.92764 -2.27201,0 -5.60898,-1.478017 -7.41544,-3.284486 -3.96949,-3.9694911 -16.57266,-3.1698721 -28.47868,1.806861 -11.89708,4.972991 -10.33386,-0.06705 1.66734,-5.3757351 8.97196,-3.968728 11.26666,-4.137908 23.49461,-1.732204 9.21102,1.812154 15.88757,4.7171651 20.84488,9.0697431 6.54099,5.743071 8.09008,6.18366 15.01691,4.271069 4.66735,-1.288719 11.0413,-1.363637 16.10803,-0.189327 4.61143,1.068785 17.8188,2.612573 29.34968,3.430643 19.7056,1.398027 21.68298,1.998052 32.91058,9.986638 7.98404,5.68072 14.33144,8.499234 19.14067,8.499234 10.15216,0 38.71732,15.844063 57.18879,31.720552 8.49645,7.302815 16.39153,14.077212 17.54462,15.054213 2.3019,1.950375 -2.51105,2.148233 -7.12738,0.293002 z"
     id="path20099"
     inkscape:connector-curvature="0" />
  <path
     style="fill:none;stroke:none;filter:url(#filter20635)"
     d="M 42.29661,118.61441 121.37288,8.7351694 234.93008,51.951271 231.25212,148.95763 18.389831,204.58686 59.307203,175.16314 53.330509,146.6589 z"
     id="path20633"
     inkscape:connector-curvature="0"
     transform="matrix(2.2068694,0,0,2.2068694,-28.081489,-19.277378)" />
</svg>
