<?xml version="1.0" encoding="UTF-8" standalone="no"?>
<!-- Created with Inkscape (http://www.inkscape.org/) -->

<svg
   xmlns:dc="http://purl.org/dc/elements/1.1/"
   xmlns:cc="http://creativecommons.org/ns#"
   xmlns:rdf="http://www.w3.org/1999/02/22-rdf-syntax-ns#"
   xmlns:svg="http://www.w3.org/2000/svg"
   xmlns="http://www.w3.org/2000/svg"
   xmlns:sodipodi="http://sodipodi.sourceforge.net/DTD/sodipodi-0.dtd"
   xmlns:inkscape="http://www.inkscape.org/namespaces/inkscape"
   id="svg13126"
   version="1.1"
   inkscape:version="0.48.4 r9939"
   width="492.5079"
   height="289.14841"
   sodipodi:docname="Gizmo.svg">
  <metadata
     id="metadata13132">
    <rdf:RDF>
      <cc:Work
         rdf:about="">
        <dc:format>image/svg+xml</dc:format>
        <dc:type
           rdf:resource="http://purl.org/dc/dcmitype/StillImage" />
        <dc:title />
      </cc:Work>
    </rdf:RDF>
  </metadata>
  <defs
     id="defs13130" />
  <sodipodi:namedview
     pagecolor="#ffffff"
     bordercolor="#666666"
     borderopacity="1"
     objecttolerance="10"
     gridtolerance="10"
     guidetolerance="10"
     inkscape:pageopacity="0"
     inkscape:pageshadow="2"
     inkscape:window-width="1219"
     inkscape:window-height="707"
     id="namedview13128"
     showgrid="false"
     inkscape:zoom="1.0983607"
     inkscape:cx="267.07218"
     inkscape:cy="142.67891"
     inkscape:window-x="0"
     inkscape:window-y="22"
     inkscape:window-maximized="0"
     inkscape:current-layer="svg13126"
     fit-margin-top="0"
     fit-margin-left="0"
     fit-margin-right="0"
     fit-margin-bottom="0" />
  <path
     style="fill:#000000"
     d="m 250.49035,286.03942 c -9.82321,-3.39668 -21.12319,-10.5382 -21.12319,-13.34974 0,-0.93106 2.40463,-9.36235 5.34363,-18.73618 2.93901,-9.37384 7.96669,-26.15206 11.17265,-37.28494 3.20593,-11.13288 8.60584,-28.93629 11.99976,-39.56312 3.39394,-10.62684 7.94428,-27.18815 10.11189,-36.80291 3.76731,-16.71051 10.1454,-36.16941 16.19567,-49.411317 2.65221,-5.804799 3.23274,-6.101607 9.86105,-5.0417 9.40046,1.503196 26.25004,7.904894 30.98876,11.773632 l 3.81703,3.116255 -6.37847,21.63073 c -3.50816,11.8969 -6.30754,24.12605 -6.22083,27.17589 0.15365,5.40108 0.64041,5.69152 18.73816,11.17917 10.21929,3.09873 31.82954,10.06266 48.02282,15.47543 16.19328,5.41277 40.20717,12.79835 53.36421,16.4124 13.15704,3.61406 26.40609,7.33182 29.44232,8.2617 3.03624,0.92988 8.40653,2.28128 11.93395,3.00311 9.01353,1.84448 14.74816,6.07032 14.74816,10.86787 0,8.07261 -7.22844,32.14908 -11.85011,39.47026 -2.59117,4.10466 -4.71119,8.67462 -4.71119,10.15546 0,1.48085 -1.86315,3.99743 -4.14034,5.59243 -9.32714,9.38162 -19.89517,2.74756 -29.90454,-1.17081 -1.01086,-0.60652 -9.29053,-2.87336 -18.39925,-5.03741 -24.533,-5.82857 -100.65835,-27.57125 -122.36965,-34.95085 -5.56644,-1.89202 -10.61512,-2.91247 -11.21931,-2.26769 -0.60418,0.64478 -5.49856,14.00735 -10.8764,29.69459 -5.37784,15.68724 -10.57434,29.55733 -11.5478,30.82243 -2.33911,3.03996 -5.88494,2.82831 -16.99896,-1.01469 z m 20.93798,-18.34465 c 3.39809,-8.8349 6.48491,-19.78975 6.85964,-24.3441 l 0.68129,-8.28066 -2.69631,5.52043 -2.69632,5.52045 1.09385,-6.21071 c 0.7568,-4.29697 0.46622,-5.82277 -0.94307,-4.95178 -1.1203,0.69239 -2.03691,2.86614 -2.03691,4.83058 0,1.96443 -0.82806,3.57169 -1.84015,3.57169 -2.41272,0 -2.33637,-0.77072 0.82617,-8.33977 1.49913,-3.58789 1.87593,-6.3814 0.86078,-6.3814 -2.08544,0 -5.33165,7.60722 -4.1225,9.66077 0.44693,0.75906 -0.15402,1.3801 -1.33562,1.3801 -1.39179,0 -1.74875,-1.78186 -1.01372,-5.0604 l 1.13452,-5.06039 -2.70996,4.60036 c -3.06099,5.19622 -3.88983,1.71895 -0.91516,-3.8393 1.05889,-1.97854 1.37146,-4.49338 0.69463,-5.58854 -0.69453,-1.12378 -2.74116,1.09721 -4.69819,5.09843 -2.68293,5.48537 -3.25828,5.98323 -2.54263,2.20018 0.50873,-2.68919 1.43112,-6.20847 2.04976,-7.82062 0.61864,-1.61214 0.24566,-2.93117 -0.82884,-2.93117 -1.07449,0 -2.49736,2.89823 -3.16188,6.44051 -1.33307,7.1059 -4.47895,8.7861 -4.47895,2.39219 0,-2.48272 -0.64638,-3.37227 -1.67141,-2.30018 -2.54867,2.66569 -14.97887,43.3589 -13.81814,45.23699 2.7341,4.42387 24.73622,12.96058 29.29064,11.36462 1.01207,-0.35465 4.6204,-7.87337 8.01848,-16.70828 z m 189.84087,-7.91533 c 1.36011,-4.12121 4.23817,-8.88258 6.39569,-10.58083 5.50137,-4.3303 16.63382,-35.36656 13.41761,-37.40702 -1.30662,-0.82895 -3.23633,-1.51987 -4.28824,-1.53536 -1.05192,-0.0148 -6.11388,12.80683 -11.24883,28.49408 -5.13493,15.68723 -8.75414,28.52225 -8.0427,28.52225 0.71143,0 2.40634,-3.3719 3.76647,-7.49312 z m -7.40433,1.97267 c 0,-2.02416 -0.31746,-3.68028 -0.70545,-3.68028 -0.388,0 -1.13854,1.65612 -1.66787,3.68028 -0.52934,2.02416 -0.21188,3.6803 0.70545,3.6803 0.91733,0 1.66787,-1.65614 1.66787,-3.6803 z m -14.74933,-2.30017 c -0.0228,-3.34804 -0.36954,-3.61213 -1.81198,-1.38011 -2.30555,3.5676 -2.30555,5.52043 0,5.52043 1.01208,0 1.82747,-1.86315 1.81198,-4.14032 z m -5.49226,-1.93216 c 0,-2.32778 0.77795,-5.01899 1.72877,-5.98047 0.95085,-0.96147 4.17397,-10.44282 7.16251,-21.06966 7.87711,-28.00987 7.81573,-27.60218 4.15628,-27.60218 -2.3779,0 -4.41268,4.02016 -8.14954,16.10127 -9.53366,30.82199 -11.84737,40.76418 -9.69331,41.65305 3.95292,1.63117 4.79529,1.08627 4.79529,-3.10201 z m -13.67588,-5.9088 c 1.32379,-7.05638 4.39049,-10.4769 4.6161,-5.14866 0.0775,1.83087 3.78132,-7.34445 8.23066,-20.38961 4.44934,-13.04516 7.6493,-24.43105 7.11102,-25.30199 -3.20682,-5.18877 -6.42235,0.72358 -14.65101,26.93871 -4.92407,15.68724 -9.71328,28.52225 -10.64268,28.52225 -0.92943,0 -1.21846,-2.69121 -0.64233,-5.98047 0.90997,-5.19523 0.78842,-5.45018 -0.92593,-1.94174 -2.35293,4.81536 -0.85422,9.76236 2.95753,9.76236 1.66998,0 3.20647,-2.5153 3.94664,-6.46085 z m -8.32505,-7.43763 c 1.19698,-1.44226 2.86293,-2.19798 3.70212,-1.67933 2.01356,1.24445 15.23934,-40.87493 13.91705,-44.3208 -2.51655,-6.558 -6.21989,-1.28882 -13.5799,19.32172 -4.31248,12.07641 -8.24617,25.93952 -8.74154,30.80695 -0.72895,7.16251 -0.57401,7.86259 0.81262,3.67182 0.94234,-2.84793 2.69267,-6.35809 3.88965,-7.80036 z m 45.57204,-8.18327 c 8.12524,-21.40145 9.52563,-27.17071 6.79128,-27.97858 -2.0753,-0.61316 -15.44688,37.51881 -15.56485,44.38655 -0.11023,6.4217 0.63596,5.02608 8.77357,-16.40797 z m 6.71997,-1.87065 c 3.5815,-11.07869 6.41576,-21.60747 6.29836,-23.39732 -0.17629,-2.6883 -0.37181,-2.61422 -1.12391,0.42601 -0.50073,2.02416 -4.13097,12.28025 -8.06719,22.79132 -7.49622,20.01751 -8.30107,23.21665 -5.38791,21.41623 0.97287,-0.60126 4.69916,-10.15757 8.28065,-21.23624 z m -12.75955,-3.64978 c 4.22224,-12.651 7.33847,-23.62287 6.92497,-24.38193 -1.95504,-3.58885 -5.76972,-0.71774 -6.87513,5.17451 -0.67631,3.60505 -3.6667,14.47173 -6.6453,24.14821 -6.25736,20.32803 -6.04453,19.1146 -3.24848,18.52105 1.19193,-0.25301 5.6217,-10.81084 9.84394,-23.46184 z m 32.1143,8.83124 c 4.43066,-12.606 6.87872,-27.13329 4.12398,-24.47247 -2.86623,2.76849 -12.89401,32.75684 -11.89884,35.5838 1.32761,3.77135 3.77167,0.27843 7.77486,-11.11133 z m -68.24895,-29.07284 c 4.80886,-13.8631 5.08601,-15.76355 2.43799,-16.71716 -2.43867,-0.87824 -4.60458,3.68651 -11.78723,24.84195 -4.83977,14.25486 -8.81106,27.5434 -8.82506,29.53015 -0.0368,5.22692 11.82317,-19.34562 18.1743,-37.65494 z m -27.40051,34.96276 c 0,-2.02416 -0.31747,-3.68029 -0.70546,-3.68029 -0.38799,0 -1.13854,1.65613 -1.66787,3.68029 -0.52934,2.02416 -0.21187,3.68029 0.70546,3.68029 0.91732,0 1.66787,-1.65613 1.66787,-3.68029 z m -14.85051,-3.22026 c -0.11298,-4.41772 -0.31735,-4.593 -1.60987,-1.38011 -0.81431,2.02416 -1.12128,4.30134 -0.68214,5.06041 1.55871,2.69436 2.4196,1.31202 2.29201,-3.6803 z m 12.08785,-8.65269 c 2.34856,-1.85314 12.77917,-32.33608 14.08887,-41.17406 0.49675,-3.35208 -0.64359,-4.82368 -5.2457,-6.76965 l -5.88042,-2.48648 -2.74352,8.60978 c -1.50894,4.7354 -5.23624,15.64835 -8.28285,24.25104 -3.22971,9.11966 -4.76492,15.91296 -3.68202,16.29295 1.02152,0.35845 2.08933,0.35845 2.37293,0 1.21815,-1.53967 15.81565,-42.07681 15.81565,-43.91996 0,-1.11789 0.78227,-1.54904 1.73837,-0.95814 2.01636,1.24618 -0.55488,10.30716 -8.63377,30.42529 -3.04817,7.5906 -6.04464,17.52739 -6.65883,22.08174 l -1.11667,8.28065 2.89217,-6.35251 c 1.59069,-3.49388 3.99181,-7.22017 5.33579,-8.28065 z m 15.73274,-10.15092 c 8.39532,-22.90124 9.86997,-31.77922 5.43136,-32.69923 -1.99003,-0.41251 -3.88094,3.16304 -6.77679,12.81434 -2.20911,7.36259 -5.6532,18.56432 -7.65353,24.89275 -2.00035,6.32845 -2.76403,10.96675 -1.69711,10.30735 1.25572,-0.77606 1.60187,0.56926 0.98152,3.81447 -1.80061,9.41923 1.97276,1.9888 9.71455,-19.12968 z m -35.08,9.79976 c 0.0165,-3.42292 1.1548,-6.21593 2.7884,-6.84279 1.51811,-0.58255 2.76021,-2.18278 2.76021,-3.55607 0,-1.37326 3.25789,-11.12901 7.23973,-21.67945 7.13657,-18.90926 7.18455,-19.20305 3.36836,-20.61879 -2.12925,-0.78992 -4.47655,-0.78992 -5.21621,0 -3.51547,3.75432 -13.20004,39.45327 -13.86809,51.12011 -0.50955,8.89871 -0.17537,12.02768 1.08092,10.12081 1.00017,-1.51812 1.83118,-5.36284 1.84668,-8.54382 z m -6.20532,5.16255 c 0.24036,-1.22716 0.0147,-1.37725 -0.50219,-0.33357 -0.51659,1.0437 -1.69658,1.42956 -2.62221,0.85748 -0.92563,-0.57206 -1.68298,-0.0943 -1.68298,1.06197 0,2.72952 4.2358,1.33222 4.80738,-1.58588 z m -7.00291,-3.10793 c -0.56657,-0.56656 -1.5955,0.45472 -2.28652,2.26951 -0.99862,2.62257 -0.78726,2.83393 1.0301,1.03011 1.25759,-1.24825 1.82299,-2.73306 1.25642,-3.29962 z m -5.89792,-35.33487 c 5.48598,-14.75857 9.75828,-27.01613 9.49402,-27.239 -0.26428,-0.22289 -2.34364,-0.97795 -4.62082,-1.67793 -3.52193,-1.08257 -4.14033,-0.59183 -4.14033,3.28576 0,2.50713 -2.58224,12.29271 -5.73831,21.7457 -3.15607,9.45301 -5.90007,19.67149 -6.09777,22.70772 -0.1977,3.03625 -0.96726,7.5906 -1.71013,10.1208 -3.48706,11.87676 3.54117,-3.99877 12.81334,-28.94305 z m 18.82753,2.30933 c 5.52254,-17.6438 6.89766,-24.23893 5.26974,-25.27382 -4.2999,-2.7335 -6.80323,-1.41065 -6.81954,3.60374 -0.009,2.78322 -2.89016,13.34105 -6.40244,23.46184 -6.47247,18.65066 -8.24556,26.76876 -4.62198,21.16167 1.48665,-2.30042 1.78849,-2.16248 1.81197,0.82807 0.0562,7.14039 3.38844,-0.22321 10.76225,-23.7815 z m -51.21727,21.11329 c 0,-2.02416 -0.31746,-3.6803 -0.70546,-3.6803 -0.38799,0 -1.13854,1.65614 -1.66787,3.6803 -0.52934,2.02416 -0.21187,3.68029 0.70546,3.68029 0.91732,0 1.66787,-1.65613 1.66787,-3.68029 z m -26.82365,-2.85144 c 0.64764,-2.58036 5.59919,-16.03642 11.00346,-29.90236 14.1345,-36.26538 13.83621,-32.77788 2.91419,-34.07145 -5.11939,-0.60631 -13.42269,-3.34191 -18.45179,-6.07908 -5.02911,-2.7372 -9.45187,-4.63583 -9.82832,-4.2192 -1.41543,1.56646 -19.25882,56.24599 -20.47451,62.74239 -1.26622,6.76639 -1.25218,6.78476 6.73401,8.80519 4.40159,1.11354 10.90113,3.15725 14.44342,4.54155 9.67713,3.78176 12.34336,3.42708 13.65954,-1.81704 z m 18.46114,-2.07793 c 0.68526,-2.73026 2.41589,-5.84333 3.84587,-6.91791 2.49312,-1.87353 13.71737,-36.54994 13.71737,-42.37873 0,-3.80986 -3.15007,-3.56965 -5.26878,0.40176 -0.9449,1.77114 -4.74854,13.9851 -8.45253,27.14214 -3.70401,13.15704 -7.09089,24.99997 -7.52641,26.31765 -0.43553,1.31766 -0.065,1.94654 0.82334,1.3975 0.88838,-0.54905 2.17587,-3.23212 2.86114,-5.96241 z m 41.04635,2.62919 c 4.92287,-6.1142 17.5756,-50.53547 13.1272,-46.08706 -0.87022,0.87022 -4.83868,10.66423 -8.81883,21.76448 -3.98014,11.10023 -7.80971,21.63137 -8.5102,23.4025 -1.4643,3.70251 1.44808,4.34023 4.20183,0.92008 z m -49.82827,-3.56529 c -0.58742,-1.46794 -1.02346,-1.03191 -1.11174,1.11176 -0.0799,1.93981 0.355,3.02665 0.96647,2.41519 0.61147,-0.61145 0.67683,-2.1986 0.14519,-3.52695 z m 34.4985,-2.87522 c 4.26758,-8.88461 12.08825,-34.86063 12.08825,-40.15057 0,-2.24356 -1.2421,-4.55583 -2.76022,-5.13838 -1.7886,-0.68636 -2.77151,0.0541 -2.79234,2.10328 -0.0184,1.73938 -2.5768,11.44316 -5.68693,21.56396 -6.82619,22.21318 -8.12497,28.52225 -5.87149,28.52225 0.93951,0 3.19974,-3.10525 5.02273,-6.90054 z m -3.352,-18.43184 c 2.55233,-8.36634 5.12239,-18.18033 5.71122,-21.80885 0.92153,-5.67872 0.6057,-6.50715 -2.26833,-5.95009 -2.21423,0.4292 -4.42235,4.05627 -6.55543,10.76798 -10.16788,31.99337 -10.55172,33.63844 -8.40954,36.04144 3.18046,3.56765 6.08898,-1.24124 11.52208,-19.05048 z m -20.31486,-6.88817 c 2.68185,-10.11088 5.64251,-19.83255 6.57926,-21.6037 1.04615,-1.97803 1.04382,-3.22025 -0.005,-3.22025 -1.69318,0 -8.54911,15.68463 -15.16901,34.70295 -2.79586,8.03221 -2.91832,9.43433 -0.66029,7.56034 2.33871,-1.94096 2.57933,-1.75649 1.53907,1.17988 -0.8792,2.48178 -0.64851,2.94732 0.80396,1.62237 1.12034,-1.02198 4.23121,-10.13069 6.91305,-20.24159 z m 5.9362,-46.44566 c 1.07318,-4.80738 3.76406,-15.55044 5.97974,-23.87347 2.21566,-8.32303 3.5745,-16.31584 3.01962,-17.7618 -1.03957,-2.709104 -16.18578,-8.989018 -26.3127,-10.909767 -6.3957,-1.213057 -7.09856,-0.257775 -13.95194,18.962387 -4.03176,11.30701 -7.18814,29.77506 -4.84093,28.32441 0.83603,-0.51668 1.52004,-2.40869 1.52004,-4.20443 0,-1.79575 1.03508,-3.26539 2.30018,-3.26587 1.58567,-6.1e-4 2.09971,2.47637 1.65486,7.97396 -0.67015,8.28149 2.49774,11.35907 3.94704,3.83451 0.68374,-3.54992 0.8332,-3.41869 1.04806,0.92007 0.29988,6.05588 3.82368,6.83124 4.18147,0.92008 0.23261,-3.84329 0.31509,-3.81029 1.14937,0.46003 0.83888,4.29392 0.99745,4.35521 2.38028,0.92007 1.35354,-3.36239 1.50479,-3.28291 1.75084,0.92007 0.24375,4.16326 0.50499,3.98843 2.74957,-1.84014 1.69532,-4.40235 2.53346,-5.27585 2.6484,-2.76022 0.13947,3.0535 0.46739,3.21019 1.92508,0.92008 1.3793,-2.16702 2.01589,-1.47494 2.96204,3.22024 1.68443,8.3588 3.6081,7.45716 5.88898,-2.76021 z M 107.49254,267.72339 C 96.631926,260.8969 80.166014,248.80143 70.901619,240.84455 61.637224,232.88766 46.50928,221.93384 37.28397,216.50275 17.826624,205.04784 2.1045715,193.45993 2.8350726,191.11225 3.1147744,190.21334 2.3849178,188.88533 1.2131508,188.16114 -0.40004938,187.16411 -0.40378508,176.16805 1.198432,142.87185 4.3742654,76.848831 6.9568167,51.432049 10.886925,47.52054 15.681607,42.748546 71.243889,18.152153 99.194638,8.4283492 L 123.42158,0 126.1165,4.058747 c 1.4822,2.232312 7.38756,7.245461 13.123,11.140335 10.78283,7.322468 36.9829,30.998679 46.80577,42.296916 3.0797,3.542281 9.42687,10.166802 14.10484,14.721162 4.67794,4.55436 16.27085,18.631471 25.76203,31.28247 9.49115,12.65099 17.96622,23.51942 18.83346,24.15204 1.70788,1.24585 1.43055,3.03721 -5.37718,34.7326 -2.49988,11.63893 -5.45354,25.71604 -6.56371,31.28248 -2.18793,10.97036 -5.03066,22.35341 -9.85211,39.4505 -1.695,6.01056 -2.73578,12.73846 -2.31285,14.95091 0.71114,3.72014 -0.9036,4.45726 -21.47361,9.80267 -39.76688,10.33394 -55.24239,14.97979 -62.17025,18.66391 -3.74279,1.99035 -7.46909,3.61469 -8.28066,3.60962 -0.81157,-0.005 -10.36153,-5.59449 -21.22214,-12.42097 z m 26.18707,5.42482 c 0,-0.81672 2.27718,-2.38474 5.0604,-3.48454 4.24418,-1.67709 4.44814,-2.03119 1.26445,-2.19537 -5.02327,-0.25905 -21.97858,-8.51694 -29.9129,-14.56874 -6.47269,-4.93696 -18.391354,-19.51958 -25.438445,-31.12423 l -3.942933,-6.49293 -1.258748,5.73106 c -0.692298,3.15207 -3.221804,7.27519 -5.621094,9.16247 -3.228223,2.53932 -3.824798,3.96897 -2.294681,5.49908 1.45033,1.45033 2.761727,1.49162 4.392353,0.13838 2.855174,-2.36959 12.142144,-1.4823 13.035704,1.24543 0.402953,1.23009 -1.390214,1.68909 -4.700582,1.20323 -10.013315,-1.46964 -7.727191,2.99023 7.028062,13.71064 23.925114,17.38272 42.388414,26.60624 42.388414,21.17552 z m 44.64812,-14.90032 c 16.21656,-7.30315 31.68035,-20.49035 37.50387,-31.98255 12.35562,-24.38263 14.13635,-31.75349 13.87712,-57.44056 -0.40212,-39.84732 -7.46606,-60.7749 -25.46232,-75.434553 -14.31048,-11.657235 -19.12551,-13.836261 -34.38197,-15.55945 -11.79201,-1.331884 -14.8334,-0.949377 -28.82424,3.625141 -20.22522,6.612941 -31.32603,12.997428 -40.27439,23.163322 -14.546264,16.5254 -18.442121,30.77116 -19.030216,69.58664 -0.308645,20.37022 0.167086,27.65724 1.842073,28.21555 1.241989,0.414 2.258175,1.56065 2.258175,2.54813 0,0.98748 -0.828063,1.28363 -1.840148,0.65813 -3.540544,-2.18819 -1.766239,5.59583 3.235278,14.19343 13.745548,23.62851 35.632968,40.44021 56.817208,43.64117 13.86512,2.09507 20.18296,1.13403 34.27956,-5.2144 z m -39.21461,-10.03253 c -10.79939,-3.86207 -41.62249,-26.947 -39.206122,-29.36335 0.530862,-0.53085 -0.76186,-1.88949 -2.872694,-3.01918 -2.11084,-1.12969 -3.837892,-3.54296 -3.837892,-5.36284 0,-1.81986 -0.551931,-3.86079 -1.226528,-4.53538 -2.227713,-2.2277 -2.749619,-31.28391 -0.885809,-49.31558 2.257265,-21.8384 7.342253,-32.74145 22.756435,-48.79372 22.97697,-23.928134 51.08631,-28.342147 74.75584,-11.738918 17.71719,12.427908 23.89132,22.083028 30.76146,48.104818 3.66639,13.88705 3.64057,23.53976 -0.0958,35.85647 -3.2205,10.61593 -3.38361,12.37177 -1.01324,10.90681 3.55902,-2.19961 -15.11663,31.43159 -20.76724,37.39774 -6.00288,6.33806 -20.28447,16.10707 -29.38569,20.10057 -6.57099,2.88326 -20.57717,2.76853 -28.98264,-0.23744 z m 30.87103,-13.33704 c -0.61149,-0.61145 -2.19861,-0.67683 -3.52696,-0.14518 -1.46794,0.5874 -1.03192,1.02345 1.11176,1.11174 1.93981,0.0798 3.02666,-0.35502 2.4152,-0.96649 z m -8.70236,-7.99916 c 1.51811,-1.03049 1.93215,-1.86786 0.92007,-1.86085 -1.01208,0.007 -3.91031,1.70604 -6.44051,3.77561 -4.49719,3.67848 -0.86229,2.41771 5.52044,-1.91476 z m 14.76094,-3.42183 c -1.65543,-0.58056 -12.9208,4.65318 -12.9208,6.00285 0,0.40489 3.27402,-0.65146 7.27562,-2.34743 4.00158,-1.696 6.54192,-3.34092 5.64518,-3.65542 z m -36.84269,3.36304 c 0,-0.99505 4.34735,-3.99947 9.66077,-6.67652 5.31341,-2.67704 11.93794,-6.47368 14.72116,-8.43694 5.13626,-3.62313 6.96445,-2.31717 2.76021,1.97172 -1.2651,1.2906 2.58454,-0.40695 8.55476,-3.77229 11.85781,-6.68411 26.88924,-20.21937 30.38342,-27.35921 l 2.21287,-4.52162 -3.99713,4.60036 c -2.19843,2.5302 -5.12437,6.20654 -6.50208,8.16964 -1.37773,1.96308 -3.05588,3.01835 -3.7292,2.34503 -0.67335,-0.67333 2.71187,-6.0058 7.52272,-11.84993 l 8.74696,-10.62568 -9.76737,10.12079 c -5.37203,5.56645 -10.79609,10.13107 -12.05345,10.14364 -2.64005,0.0264 -15.02367,8.62362 -23.42454,16.26236 -3.17218,2.88439 -11.35701,8.51036 -18.18855,12.50215 -12.82206,7.49219 -14.38266,8.93563 -9.66077,8.93563 1.51813,0 2.76022,-0.81412 2.76022,-1.80913 z m -20.54016,-3.25126 c 1.85995,-1.77115 4.96519,-4.26712 6.90055,-5.54661 1.93535,-1.27949 0.97432,-1.12707 -2.13564,0.33871 -3.10996,1.46578 -6.73063,3.96174 -8.04595,5.54659 -3.23714,3.90054 -0.91951,3.6613 3.28104,-0.33869 z m 76.74765,-13.47546 c 2.77449,-4.48918 -2.87714,-0.88042 -9.37036,5.98334 l -7.274,7.68907 7.79507,-5.98333 c 4.2873,-3.29085 8.26949,-6.75092 8.84929,-7.68908 z m -58.04763,0.92498 c 0,-0.50604 -1.65613,-0.0337 -3.68029,1.04956 -2.02416,1.0833 -3.6803,2.38368 -3.6803,2.88972 0,0.50603 1.65614,0.0337 3.6803,-1.04957 2.02416,-1.08329 3.68029,-2.38367 3.68029,-2.88971 z m 7.36058,0 c 0,-0.50604 -1.65613,-0.0337 -3.68029,1.04956 -2.02416,1.0833 -3.68029,2.38368 -3.68029,2.88972 0,0.50603 1.65613,0.0337 3.68029,-1.04957 2.02416,-1.08329 3.68029,-2.38367 3.68029,-2.88971 z m 39.38805,0.12955 c 3.72847,-2.5302 7.40226,-4.60037 8.16399,-4.60037 0.76175,0 4.61932,-3.31226 8.57239,-7.36058 3.95308,-4.04832 6.33563,-7.36058 5.29457,-7.36058 -1.04106,0 -3.90031,2.13868 -6.35392,4.75261 -2.4536,2.61393 -9.31683,7.99636 -15.25161,11.96094 -5.93479,3.96459 -9.98365,7.20834 -8.99747,7.20834 0.98616,0 4.8436,-2.07016 8.57205,-4.60036 z m -74.11608,-0.46003 c 2.2889,-2.91859 2.22381,-2.98367 -0.69477,-0.69477 -1.77113,1.38903 -3.22025,2.83814 -3.22025,3.22026 0,1.51451 1.51111,0.53973 3.91502,-2.52549 z m 98.97078,-10.43649 c -0.49153,-0.49151 -3.25769,2.17314 -6.14705,5.92151 l -5.25338,6.81515 6.14705,-5.92149 c 3.38087,-3.25682 5.7449,-6.32364 5.25338,-6.81517 z m -88.16464,3.4064 c 0,-0.50605 -1.65613,-0.0337 -3.68029,1.04955 -2.02416,1.0833 -3.68029,2.38367 -3.68029,2.88972 0,0.50603 1.65613,0.0337 3.68029,-1.04957 2.02416,-1.08329 3.68029,-2.38367 3.68029,-2.8897 z m 37.72298,-11.10337 c 14.26451,-10.1258 29.34159,-25.51583 27.66099,-28.23511 -0.71286,-1.15343 0.13543,-4.33791 1.88495,-7.07662 1.74958,-2.73871 -3.35685,1.23101 -11.34761,8.82161 -7.99075,7.59059 -19.14711,17.94141 -24.7919,23.00181 -5.64478,5.0604 -8.74763,8.03732 -6.89523,6.61534 4.28008,-3.28552 4.37269,-0.69311 0.14776,4.1369 -4.07332,4.65671 -1.40594,3.20438 13.34105,-7.26393 z m 10.02307,5.77412 c 3.95434,-2.49629 10.13697,-7.12641 13.73916,-10.28918 5.49013,-4.82038 6.23815,-6.33212 4.62482,-9.34666 -1.79338,-3.35098 -2.63179,-2.94989 -12.29548,5.88217 -5.70395,5.21312 -12.27905,10.72869 -14.61132,12.25684 -2.33225,1.52816 -4.24047,3.5113 -4.24047,4.40698 0,2.94916 5.47647,1.70243 12.78329,-2.91015 z m -20.24206,-12.11842 c 21.8375,-17.26156 50.37077,-47.74801 44.68892,-47.74801 -0.87433,0 -3.48189,3.36669 -5.79457,7.48156 -2.31266,4.11486 -4.56631,7.12008 -5.00809,6.67831 -1.07654,-1.07655 3.08115,-10.6248 6.3197,-14.51343 1.4263,-1.71257 2.30125,-3.93523 1.94437,-4.93921 -0.35688,-1.004 -6.44533,5.41513 -13.52989,14.26469 -7.08455,8.84959 -19.50554,22.1019 -27.60217,29.44956 -8.09664,7.34767 -14.99719,14.12969 -15.33454,15.07114 -1.42829,3.98583 5.54748,1.18669 14.31627,-5.74461 z m 0.52062,-14.1446 c 7.35826,-6.71173 19.00372,-19.16762 25.8788,-27.67974 10.24797,-12.68814 12.0994,-15.95946 10.27588,-18.15666 -1.87999,-2.26528 -2.79129,-1.73963 -5.88798,3.39636 -11.63831,19.30253 -15.50445,24.29147 -29.6762,38.29482 -8.57931,8.47735 -17.69937,16.68795 -20.26679,18.24576 -2.56741,1.55781 -4.66803,3.52505 -4.66803,4.37163 0,2.30127 9.33766,-4.78405 24.34432,-18.47217 z m -32.89166,16.8483 c 1.53699,-0.5898 2.33607,-2.26706 1.77575,-3.72726 -0.78233,-2.03871 -1.60956,-2.16461 -3.5641,-0.54247 -1.39993,1.16184 -2.54532,2.83911 -2.54532,3.72726 0,1.90175 0.59678,1.97646 4.33367,0.54247 z m -7.08779,-8.13826 c 0.62214,-1.00664 2.45325,-1.83025 4.06914,-1.83025 4.8078,0 14.29982,-8.33175 26.49562,-23.25694 11.03314,-13.50232 27.39371,-39.79103 27.39371,-44.01715 0,-4.44891 -5.82041,-1.66759 -9.53381,4.5558 -10.32628,17.30608 -32.17617,43.55623 -44.16358,53.05753 -4.14993,3.28926 -6.44581,5.98047 -5.10195,5.98047 1.40028,0 0.13599,2.45856 -2.96129,5.75894 -4.41509,4.70449 -4.66535,5.37654 -1.36682,3.67039 2.22081,-1.14869 4.54685,-2.91216 5.16898,-3.91879 z m 38.08156,-15.83284 c 15.33411,-15.09736 22.16206,-23.85871 28.82582,-36.98813 4.64517,-9.15223 4.92017,-11.00473 1.17189,-7.89393 -2.24701,1.86485 -2.76022,1.77228 -2.76022,-0.49788 0,-5.23319 -5.14883,-5.05573 -6.99533,0.2411 -2.54401,7.29776 -16.8581,28.92968 -27.26925,41.21019 -14.58268,17.201 -19.09963,22.95847 -19.09963,24.34498 0,2.84509 12.12024,-6.62607 26.12672,-20.41633 z m 54.83967,2.50886 c 0,-2.60817 -3.22114,0.14629 -7.58865,6.48898 l -4.07969,5.92483 5.83416,-5.40467 c 3.20881,-2.97258 5.83418,-6.12668 5.83418,-7.00914 z m -73.5318,-18.31408 c 17.09708,-19.63767 33.35842,-43.17662 28.5539,-41.33296 -1.57623,0.60487 -2.86587,0.29767 -2.86587,-0.68265 0,-4.56153 -5.24878,-1.05279 -7.67865,5.1331 -3.46382,8.81804 -17.32519,27.05565 -32.73365,43.06815 -8.11778,8.43602 -11.13393,12.6969 -9.27163,13.09798 3.94233,0.84906 12.35106,-5.90839 23.9959,-19.28362 z m 68.01136,5.88592 c 1.0833,-2.02416 1.55561,-3.6803 1.04957,-3.6803 -0.50604,0 -1.80641,1.65614 -2.88971,3.6803 -1.08329,2.02416 -1.5556,3.68028 -1.04956,3.68028 0.50603,0 1.80641,-1.65612 2.8897,-3.68028 z m -77.90915,-9.88987 c 11.77357,-12.85424 23.48259,-29.25514 25.34728,-35.50406 0.8805,-2.95076 0.33173,-4.15854 -2.10595,-4.63487 -4.51903,-0.88304 -12.03751,7.24126 -15.78695,17.05905 -1.71078,4.47955 -6.91013,12.4882 -11.55411,17.79698 -4.644,5.3088 -7.93626,9.65234 -7.31611,9.65234 0.62014,0 0.24117,1.65612 -0.84212,3.68028 -3.8303,7.15701 1.58979,3.59765 12.25796,-8.04972 z m -2.0857,-14.10629 c 5.06838,-7.31366 12.70034,-27.35043 11.04735,-29.00342 -1.61639,-1.6164 -15.24884,12.43224 -21.48671,22.1427 -5.882432,9.15713 -11.28304,24.21381 -9.370972,26.12587 1.43461,1.43461 13.796282,-10.58685 19.810332,-19.26515 z m 79.05403,15.48894 c 1.73949,-2.65481 2.25321,-4.26482 1.14158,-3.5778 -2.12424,1.31286 -6.40861,8.40472 -5.07748,8.40472 0.42523,0 2.19639,-2.1721 3.9359,-4.82692 z m 6.31351,-20.9351 c 2.06585,-4.33771 2.02753,-4.39643 -0.6708,-1.0284 -1.57397,1.96457 -2.86174,4.37977 -2.86174,5.36709 0,2.33798 0.84997,1.29405 3.53254,-4.33869 z m -13.31639,-16.90634 c -0.58741,-1.46794 -1.02345,-1.0319 -1.11174,1.11176 -0.0798,1.93981 0.355,3.02665 0.96648,2.41519 0.61146,-0.61147 0.67682,-2.19859 0.14518,-3.52695 z M 152.08106,94.298903 c 0,-1.012081 -0.36515,-1.840146 -0.81147,-1.840146 -0.4463,0 -1.32324,0.828065 -1.94874,1.840146 -0.62551,1.012079 -0.26035,1.84014 0.81146,1.84014 1.07182,0 1.94875,-0.828061 1.94875,-1.84014 z m 57.70305,156.511777 c 4.16852,-1.58487 9.80325,-12.68761 8.23015,-16.21676 -0.33444,-0.75022 -5.57643,3.52424 -11.64891,9.49882 -11.40397,11.2201 -10.9207,12.16978 3.41876,6.71794 z M 71.516467,227.24939 c 1.546789,-1.77113 3.304238,-6.11847 3.905432,-9.66076 1.610865,-9.49132 1.895293,-105.26463 0.32381,-109.02861 -0.763107,-1.82775 -0.541499,-3.22025 0.512518,-3.22025 2.420473,0 5.878929,10.02882 5.964523,17.29594 0.06371,5.4126 0.302243,5.22027 4.639906,-3.74187 2.514976,-5.19626 8.177491,-13.3187 12.583362,-18.04986 4.405862,-4.731163 6.665252,-8.053329 5.020862,-7.382591 -4.692202,1.913917 -24.785855,4.103781 -27.691209,3.017861 -1.847354,-0.690478 -2.27125,-0.07124 -1.437848,2.100547 C 77.83072,105.0762 72.521609,101.01381 55.229526,83.193487 36.82064,64.222242 25.282985,56.784886 15.951499,57.874225 c -4.479172,0.522893 -4.68168,1.121174 -5.789043,17.103153 -0.6311138,9.108719 -2.1179878,23.488089 -3.3041446,31.954162 -1.1861762,8.46607 -1.9851308,20.47302 -1.7754642,26.6821 0.2096655,6.20909 0.1260495,20.99497 -0.1857817,32.85752 -0.4040953,15.3723 0.099548,22.37133 1.7531433,24.36382 3.6370462,4.38236 22.1500112,16.54389 39.2984162,25.81585 8.607812,4.65416 16.650848,9.66737 17.873403,11.14047 2.883416,3.47428 4.272413,3.37646 7.694439,-0.54191 z M 39.832203,173.11844 c 0,-9.27738 0.581578,-16.2864 1.292389,-15.57559 1.90387,1.90387 2.200777,32.4436 0.315401,32.4436 -0.884282,0 -1.60779,-7.5906 -1.60779,-16.86801 z m -11.858521,-0.15327 c -1.139915,-10.17351 -0.742665,-15.15434 1.377772,-17.27478 0.70402,-0.704 1.280023,5.06848 1.280023,12.82777 0,7.75927 -0.354449,14.10776 -0.787656,14.10776 -0.433225,0 -1.274779,-4.34734 -1.870139,-9.66075 z m -9.063396,-3.6803 c -1.566883,-5.84674 -1.176755,-30.17334 0.641843,-40.02315 1.084839,-5.8756 1.446059,-0.66581 1.243717,17.93734 -0.156781,14.41989 -0.395613,26.21981 -0.530588,26.22206 -0.135066,0.002 -0.744725,-1.85906 -1.354972,-4.13625 z m -6.514225,-6.90055 c -1.745432,-12.2196 1.292555,-70.378522 3.601735,-68.951366 0.785908,0.485712 1.019551,3.48058 0.519216,6.655266 -0.500354,3.17469 -1.543533,19.1111 -2.318197,35.41423 -0.774664,16.30316 -1.585911,28.39999 -1.802754,26.88187 z m 227.235759,-21.857 c 1.11637,-8.4155 0.69609,-9.74544 -6.36591,-20.14469 -8.24628,-12.14318 -13.21232,-16.79659 -8.78183,-8.229 1.5298,2.95832 4.65528,14.30909 6.94553,25.22393 4.39619,20.95136 5.77073,21.47921 8.20221,3.14976 z M 209.27141,88.31843 C 206.21817,84.017091 196.65563,73.478908 188.02135,64.900242 175.6985,52.65677 172.32265,50.142084 172.32265,53.206194 c 0,5.063407 -6.48387,11.190928 -18.71655,17.687868 -5.39313,2.864367 -7.73553,4.567638 -5.20533,3.78505 7.83427,-2.423131 28.92963,-0.770196 38.54618,3.020302 8.68721,3.424184 10.90325,4.86096 21.96501,14.241157 6.65928,5.646975 6.6936,5.301203 0.35945,-3.622141 z M 108.34957,87.13221 C 129.39446,78.772286 166.36189,59.420596 167.82643,55.9973 171.57207,47.241971 166.28567,40.408488 141.96027,22.561251 135.88778,18.105952 128.70917,12.45996 126.00779,10.0146 L 121.09617,5.5684907 100.24575,12.45101 c -18.143481,5.988978 -50.726894,19.201371 -66.379666,26.916574 -2.775325,1.367949 -5.052505,3.540763 -5.060399,4.828476 -0.0073,1.287713 3.325915,5.965063 7.408479,10.394108 4.082547,4.429048 7.187792,8.807693 6.900545,9.730325 -0.706026,2.267661 21.637899,22.846071 23.156865,21.327116 0.660925,-0.660923 2.881319,0.601208 4.934221,2.804734 5.564509,5.972799 20.083926,5.45676 37.143775,-1.320133 z M 77.555183,59.336144 c -2.775807,-1.192807 -1.645204,-1.581474 4.600364,-1.581474 6.245557,0 7.376167,0.388667 4.600353,1.581474 -2.024159,0.869811 -4.094316,1.581474 -4.600353,1.581474 -0.506047,0 -2.576204,-0.711663 -4.600364,-1.581474 z M 60.0738,52.535066 c 0,-1.720044 28.843206,-11.792553 33.122612,-11.566947 1.518122,0.08003 -3.717108,2.552635 -11.633876,5.494677 C 61.868769,53.781439 60.0738,54.28866 60.0738,52.535066 z m -6.348501,-7.767377 c 2.619466,-2.528502 39.797051,-15.086171 42.0873,-14.216042 1.130034,0.429332 0.795978,1.182448 -0.77604,1.749506 -1.518122,0.547614 -10.853285,3.956282 -20.744822,7.574819 -18.283498,6.688493 -23.782938,7.996533 -20.566438,4.891717 z M 38.382758,40.682665 c 0.673824,-2.021443 48.326297,-21.681326 58.953978,-24.322514 8.218704,-2.042507 5.770604,1.700481 -2.760216,4.220217 -4.301332,1.270478 -16.929331,6.040035 -28.062212,10.599015 -29.778481,12.194462 -28.933449,11.909 -28.13155,9.503282 z M 29.62777,54.819424 c -2.484196,-2.484195 -4.516729,-5.796457 -4.516729,-7.36058 0,-3.389524 0.205728,-3.365609 -7.085994,-0.823704 -7.240363,2.524008 -7.713925,7.170282 -0.734623,7.207695 2.78322,0.01491 7.130563,1.175827 9.660763,2.579796 6.927797,3.844118 7.675834,3.396056 2.676583,-1.603207 z"
     id="path13136"
     inkscape:connector-curvature="0"
     sodipodi:nodetypes="csssssssscscssssssssccsscssccsscccscssssssscsscssssssssssssscsssssssscsscsssssssscssssssssssssssssscsscsssssssssssssssssssssssscsscssscssscsssscssssssssscssssssscsccssssssscsssssssscsssssssssssssssssssssssscsssscscccccssscssssssssscssssssccssssscsssssssssssssscsssscsscsssssssssssscccssssscssscssssssssssssssssssccssssssssssscccccccscsssssssssssscsssscscssssssssssscssscscsscscssssssssssssssscssscscscscssssccsssssssssssssssssssssssssssssssssssssssssssssssssscssssssssssssssssssssssssssssssssssscccccsssssscsssssscssssssssssssssssssssssssssscssssssssssssssssssssssscsscscssssssssssssssssssssssssssss" />
  <path
     style="fill:#000000;fill-opacity:0.56185566;stroke:none"
     d="M 122.03279,3.3189994 C 84.76461,13.199919 48.219005,27.815103 13.176707,47.712502 6.6181182,61.138322 -0.53099998,137.92116 3.9184763,189.28867 39.230978,217.63507 85.463624,247.95187 126.23063,277.27061 l 91.31721,-25.12948 c 9.99022,-43.49733 19.00107,-86.0119 23.46184,-123.97978 C 207.45323,80.904086 170.53132,36.715682 122.03279,3.3189994 z m 5.87405,97.3929406 c -0.7605,22.64092 -13.21829,38.70213 -31.808589,51.31379 -1.82841,-18.35855 15.417309,-43.44473 31.808589,-51.31379 z"
     id="path13138"
     inkscape:connector-curvature="0"
     sodipodi:nodetypes="cccccccccc" />
  <path
     style="fill:#000000;fill-opacity:0.56185566;stroke:none"
     d="M 231.38379,271.32253 287.95111,88.293235 c 12.63633,-2.359651 25.27264,4.071719 37.90898,11.846555 l -13.03122,55.67881 177.10601,56.27114 c -0.64476,19.54682 -7.84542,39.09365 -21.91611,58.64047 -61.31822,-9.34165 -118.46556,-31.19594 -177.69835,-46.79391 l -23.69312,63.37908 c -11.97868,-4.63843 -26.06968,-2.93988 -35.24351,-15.99285 z"
     id="path13654"
     inkscape:connector-curvature="0"
     sodipodi:nodetypes="ccccccccc" />
</svg>
