<?xml version="1.0" encoding="UTF-8" standalone="no"?>
<!-- Created with Inkscape (http://www.inkscape.org/) -->

<svg
   xmlns:dc="http://purl.org/dc/elements/1.1/"
   xmlns:cc="http://creativecommons.org/ns#"
   xmlns:rdf="http://www.w3.org/1999/02/22-rdf-syntax-ns#"
   xmlns:svg="http://www.w3.org/2000/svg"
   xmlns="http://www.w3.org/2000/svg"
   xmlns:sodipodi="http://sodipodi.sourceforge.net/DTD/sodipodi-0.dtd"
   xmlns:inkscape="http://www.inkscape.org/namespaces/inkscape"
   id="svg13727"
   version="1.1"
   inkscape:version="0.48.4 r9939"
   width="498.64621"
   height="158.4817"
   sodipodi:docname="Glasses.svg">
  <metadata
     id="metadata13733">
    <rdf:RDF>
      <cc:Work
         rdf:about="">
        <dc:format>image/svg+xml</dc:format>
        <dc:type
           rdf:resource="http://purl.org/dc/dcmitype/StillImage" />
        <dc:title />
      </cc:Work>
    </rdf:RDF>
  </metadata>
  <defs
     id="defs13731" />
  <sodipodi:namedview
     pagecolor="#ffffff"
     bordercolor="#666666"
     borderopacity="1"
     objecttolerance="10"
     gridtolerance="10"
     guidetolerance="10"
     inkscape:pageopacity="0"
     inkscape:pageshadow="2"
     inkscape:window-width="1278"
     inkscape:window-height="716"
     id="namedview13729"
     showgrid="false"
     inkscape:zoom="1.1591696"
     inkscape:cx="145.28771"
     inkscape:cy="129.57078"
     inkscape:window-x="1"
     inkscape:window-y="22"
     inkscape:window-maximized="0"
     inkscape:current-layer="svg13727"
     fit-margin-top="0"
     fit-margin-left="0"
     fit-margin-right="0"
     fit-margin-bottom="0" />
  <path
     style="fill:#ffaf00;fill-opacity:0.59793815;stroke:none"
     d="M 0.69783557,144.06352 C 1.9777154,150.03327 16.092237,148.95129 27.307566,146.83537 44.800769,132.5109 60.455177,114.84269 80.249841,104.7033 l 79.274819,-14.413606 172.96323,-0.83155 98.12338,7.48399 c 20.20561,9.483466 31.65974,29.906296 46.56704,46.012646 l 4.43495,13.30486 c 8.00195,1.88619 11.86889,-5.87603 15.52233,-14.13641 C 472.62421,102.46154 453.7602,100.449 433.38313,88.349404 l -72.06803,-3.326216 1.66311,-7.483986 82.04669,-8.869911 6.65241,-5.543691 c -60.66146,1.127556 -121.39891,8.408514 -182.11033,13.582049 -30.72166,2.568157 -59.85037,7.047846 -93.96561,5.543693 L 60.846912,72.549877 c -3.904441,2.55725 -9.999811,4.801512 -9.147095,8.038357 l 24.946623,2.771847 1.385923,13.859233 c -16.454693,0.81685 -30.248311,6.290576 -43.79518,12.196126 -10.983679,9.58834 -21.847756,17.98065 -33.53934743,34.64808 z"
     id="path14255"
     inkscape:connector-curvature="0"
     sodipodi:nodetypes="cccccccccccccccccccccc" />
  <path
     style="fill:#00e0ff;fill-opacity:0.29381445;stroke:none"
     d="m 293.68205,84.468819 c -9.84027,-63.76105 31.70288,-74.052524 74.00831,-82.0466661 15.91602,3.774428 64.49266,-1.159667 63.19809,85.3728811 -15.46466,39.947806 -34.65713,50.278766 -56.2495,51.910866 -42.39768,3.2047 -70.09038,-20.13793 -80.9569,-55.237081 z"
     id="path14249"
     inkscape:connector-curvature="0"
     sodipodi:nodetypes="cccsc" />
  <path
     style="fill:#00e0ff;fill-opacity:0.29381445;stroke:none"
     d="M 76.092071,72.272694 C 83.357815,19.966417 112.3827,3.6752729 149.82319,1.3134129 211.73815,7.9537569 203.21164,53.41946 211.62144,81.500974 205.82825,120.42897 179.53561,141.18144 150.76795,141.31396 120.53593,141.45322 74.620242,126.80829 76.092071,72.272694 z"
     id="path13739"
     inkscape:connector-curvature="0"
     sodipodi:nodetypes="cccsc" />
  <path
     sodipodi:type="arc"
     style="fill:#ffaf00;fill-opacity:0.59793815;fill-rule:nonzero;stroke:none"
     id="path14251"
     sodipodi:cx="129.3987"
     sodipodi:cy="55.397568"
     sodipodi:rx="2.3637946"
     sodipodi:ry="2.5162976"
     d="m 131.76249,55.397568 a 2.3637946,2.5162976 0 1 1 -4.72759,0 2.3637946,2.5162976 0 1 1 4.72759,0 z"
     transform="matrix(1.8175701,0,0,1.8175701,-17.041984,-24.674279)" />
  <path
     sodipodi:type="arc"
     style="fill:#ffaf00;fill-opacity:0.59793815;fill-rule:nonzero;stroke:none"
     id="path14253"
     sodipodi:cx="167.44817"
     sodipodi:cy="51.966251"
     sodipodi:rx="2.1350403"
     sodipodi:ry="1.8300346"
     d="m 169.58321,51.966251 a 2.1350403,1.8300346 0 1 1 -4.27008,0 2.1350403,1.8300346 0 1 1 4.27008,0 z"
     transform="matrix(1.8175701,0,0,1.8175701,-17.041984,-24.674279)" />
  <path
     style="fill:#000000"
     d="m 479.35948,157.69656 c -1.24957,-0.5042 -2.27196,-3.85026 -2.27196,-7.43566 0,-5.47513 -1.81887,-8.48486 -11.35981,-18.79721 -6.2479,-6.75307 -13.8033,-15.33224 -16.78978,-19.06483 -4.86945,-6.08599 -14.47022,-13.453726 -17.55457,-13.471576 -0.64554,-0.004 -3.74632,4.002266 -6.8906,8.902226 -7.59902,11.84201 -21.86156,24.95991 -32.43621,29.83301 -7.07364,3.25974 -11.43622,3.88372 -24.93202,3.56607 -8.99697,-0.21176 -20.29363,-1.57379 -25.10366,-3.02671 -17.14705,-5.17945 -38.10805,-23.33102 -45.96257,-39.802126 l -3.21863,-6.74954 -40.1043,0.0619 -40.1043,0.0619 -6.8989,14.266136 c -10.06868,20.82089 -17.33375,27.90046 -33.99643,33.12847 -20.80362,6.52722 -38.46584,5.68119 -56.68602,-2.71533 -14.91021,-6.87117 -27.279076,-16.71295 -31.666004,-25.19634 l -2.690892,-5.2036 -8.880862,4.83357 c -4.884475,2.65846 -15.68036,11.78267 -23.990855,20.27601 -8.310494,8.49334 -17.007914,16.16403 -19.327596,17.04597 -2.319683,0.88194 -9.393246,1.60353 -15.719027,1.60353 -12.98313963,0 -15.0225079,-1.9121 -10.7738475,-10.1014 3.3860242,-6.52654 21.2569205,-24.21899 30.6909815,-30.38449 7.238439,-4.73059 30.826304,-12.223646 38.479567,-12.223646 5.166814,0 6.038097,-1.57761 4.541915,-8.22397 -1.208346,-5.367723 -1.311668,-5.407803 -13.94036,-5.407803 -11.502011,0 -12.722991,-0.34809 -12.722991,-3.627214 0,-4.295117 11.580805,-8.853854 19.581681,-7.70825 3.961051,0.567162 5.204349,-0.08828 5.802975,-3.059214 C 80.262338,40.152856 84.136671,32.121596 98.819234,18.528126 110.09173,8.0917819 118.16792,4.3328419 136.86964,0.81814585 148.78132,-1.4204681 169.05788,1.1319709 178.63409,6.0755119 194.31903,14.172551 208.33088,37.542743 210.8708,59.842708 l 1.24209,10.905421 7.99755,0.370697 c 5.65894,0.262299 11.31529,-1.198868 19.34356,-4.996883 12.99172,-6.146125 16.95932,-6.476232 30.28286,-2.519563 5.27999,1.567987 10.94932,2.260191 12.59849,1.538233 1.64919,-0.721959 4.42985,-1.13554 6.17927,-0.919068 2.27816,0.2819 3.18075,-0.882296 3.18075,-4.102651 0,-6.935279 6.38714,-25.843636 10.49307,-31.063485 14.16439,-18.007105 37.97613,-28.28373015 65.53558,-28.28373015 14.26674,0 17.13504,0.61299105 28.5329,6.09786205 14.97727,7.2073301 28.89163,20.9774071 30.72301,30.4044021 0.6636,3.415849 2.06701,10.095691 3.11871,14.844092 l 1.9122,8.633458 7.84912,0 c 8.66687,0 13.59915,1.372034 13.59915,3.782925 0,2.414977 -10.15138,7.122496 -15.35909,7.122496 -4.26897,0 -4.63418,0.633787 -4.63418,8.042347 l 0,8.042343 9.0276,2.64637 c 11.86759,3.47888 30.91891,17.849076 45.04512,33.977026 11.49589,13.12492 12.99987,17.02672 9.3295,24.20373 -4.04921,7.91784 -11.22983,11.66133 -17.50858,9.12781 z m 11.44243,-6.89271 c 2.45372,-2.45371 4.46131,-5.76898 4.46131,-7.36724 0,-4.24739 -18.12982,-25.9871 -29.3752,-35.22419 -12.81808,-10.528916 -34.23975,-20.014946 -34.23975,-15.162186 0,0.98675 2.24925,2.74457 4.99832,3.90624 6.47474,2.73604 17.76958,13.229226 21.15175,19.650506 1.45806,2.76822 7.21251,9.50368 12.78766,14.96768 8.01167,7.85192 10.13667,11.1224 10.13667,15.60081 0,9.35792 3.19834,10.50928 10.07924,3.62838 z M 25.862208,146.29334 c 1.242145,-0.0638 10.64807,-8.31296 20.902058,-18.33145 10.253989,-10.01848 21.710764,-19.58181 25.459503,-21.25185 3.748738,-1.67003 6.815888,-4.10587 6.815888,-5.41298 0,-2.952986 -1.626331,-2.933396 -16.358131,0.19692 -20.338155,4.32161 -30.419756,10.04541 -45.893647,26.056 -7.7473934,8.01611 -14.0861689,15.43224 -14.0861689,16.48031 0,2.11243 7.0737465,3.38299 15.4493469,2.77493 2.99899,-0.21772 6.46901,-0.44806 7.711151,-0.51188 z m 137.884522,-8.40502 c 14.62644,-3.3921 20.04508,-6.0414 26.39507,-12.90519 5.42039,-5.85897 14.0964,-20.95249 16.19346,-28.171536 l 1.4046,-4.83524 -19.09621,-1.3016 c -14.25555,-0.97167 -21.00733,-0.66907 -26.63552,1.1937 -4.14663,1.37242 -7.94827,2.56487 -8.4481,2.6499 -0.49983,0.0851 -2.95355,0.6595 -5.45271,1.27661 -2.49916,0.61711 -9.92412,1.62285 -16.49992,2.23496 l -11.956,1.11295 -6.84597,11.703016 c -3.76529,6.43666 -7.18936,11.70301 -7.60905,11.70301 -0.41969,0 1.76588,-5.00982 4.85682,-11.13295 l 5.61989,-11.13293 -8.77448,1.27006 c -5.6422,0.81668 -9.970314,2.68218 -12.124408,5.22583 -2.562351,3.02576 -3.109911,3.20797 -2.329005,0.77503 0.715843,-2.23021 0.04218,-3.18074 -2.254234,-3.18074 -5.205293,0 -5.829165,1.94068 -2.469953,7.6833 3.997691,6.83412 16.46306,15.78518 30.3964,21.82686 17.2263,7.46956 26.99364,8.32686 45.62932,4.00496 z m 227.72428,-4.36346 c 9.9035,-5.09283 19.93727,-14.88212 21.30852,-20.7893 0.93916,-4.04579 0.67839,-4.9327 -1.12299,-3.81939 -1.74413,1.07794 -2.10532,0.33133 -1.40758,-2.90966 0.51621,-2.39781 1.51277,-5.71947 2.21455,-7.381446 1.09129,-2.58441 -0.51912,-3.20783 -11.12607,-4.3071 -15.0422,-1.55893 -16.24863,-1.60233 -32.88937,-1.18313 l -13.21703,0.33294 -7.23064,11.187216 c -3.97684,6.15296 -7.23064,10.40263 -7.23064,9.44369 0,-0.95893 2.4956,-5.67866 5.54577,-10.48828 3.05018,-4.809636 5.29942,-8.978046 4.99832,-9.263136 -0.3011,-0.2851 -4.63699,-0.80409 -9.6353,-1.15331 -8.80562,-0.61524 -9.18655,-0.43739 -12.26579,5.72653 -2.54785,5.100246 -3.17847,5.571956 -3.18074,2.379236 -0.002,-2.190246 0.81508,-4.487756 1.81475,-5.105586 4.98463,-3.08067 0.28717,-4.54392 -14.58724,-4.54392 l -16.40481,0 3.04133,5.9071 c 5.30047,10.295046 14.96188,20.691396 26.31015,28.311576 18.64469,12.51959 48.72436,16.05897 65.06481,7.65597 z m 30.52517,-28.0723 c 4.21907,-6.515626 3.86735,-8.349636 -1.60125,-8.349636 -3.76351,0 -7.42314,7.485546 -5.76814,11.798416 1.54912,4.03693 2.94522,3.38357 7.36939,-3.44878 z M 97.215359,97.597674 c 2.407545,-2.36434 1.982445,-2.52847 -3.635136,-1.40354 -3.498827,0.70065 -7.577406,2.43687 -9.063512,3.858266 -2.351675,2.24929 -1.88035,2.43127 3.63514,1.40354 3.485434,-0.64945 7.564009,-2.385666 9.063508,-3.858266 z m 19.790951,-2.63349 c 2.38788,-0.87896 3.86337,-2.07635 3.27885,-2.66086 -1.52126,-1.52127 -19.43467,3.02785 -19.43467,4.93544 0,1.67324 8.79451,0.43506 16.15582,-2.27458 z m -30.760322,-3.19448 c 2.66893,-4.98694 2.415762,-5.572203 -2.41036,-5.572203 -3.597925,0 -4.151432,0.734703 -3.423253,4.543923 1.039832,5.43953 3.263053,5.83141 5.833613,1.02828 z m 50.804442,0.54817 c 0.41653,-0.36721 -2.65062,-0.66766 -6.81588,-0.66766 -4.16527,0 -7.57321,0.85497 -7.57321,1.89993 0,1.70511 12.24693,0.65631 14.38909,-1.23227 z m -37.898016,-0.73162 c 5.184306,-2.77455 4.275616,-5.388753 -1.873106,-5.388753 -3.528565,0 -6.060338,1.254853 -7.33423,3.635143 -1.65852,3.09897 -1.382244,3.63513 1.873111,3.63513 2.100215,0 5.400624,-0.84667 7.334225,-1.88152 z m 328.860716,0.064 c 0,-0.99966 -2.04476,-1.81757 -4.54393,-1.81757 -2.49916,0 -4.54392,0.81791 -4.54392,1.81757 0,0.99966 2.04476,1.81757 4.54392,1.81757 2.49917,0 4.54393,-0.81791 4.54393,-1.81757 z m -311.45737,-1.81757 c 3.47607,0 5.88355,-0.70637 5.34997,-1.56972 -1.69632,-2.74471 -15.30608,-1.82443 -16.43258,1.11115 -0.72451,1.88808 -0.17244,2.35229 1.86688,1.56972 1.5926,-0.61113 5.73967,-1.11115 9.21573,-1.11115 z m 29.47364,-0.19936 c -3.20984,-2.03386 -7.00994,-2.04895 -7.00994,-0.0279 0,0.87471 2.13209,1.59038 4.73798,1.59038 3.34374,0 4.0123,-0.45981 2.27196,-1.56254 z m 269.26074,0.19936 c 0,-1.07993 -5.71673,-1.70168 -14.08617,-1.53202 -13.25076,0.26861 -13.5472,0.35947 -4.99832,1.53202 14.28729,1.95962 19.08449,1.95962 19.08449,0 z m -59.07103,-1.81757 c 0.70274,-1.13708 -2.82965,-1.769743 -9.43497,-1.689823 -7.57954,0.09171 -9.53274,0.568453 -6.92316,1.689823 5.07666,2.18151 15.00988,2.18151 16.35813,0 z m 10.16145,0.14033 c -1.40883,-0.89186 -3.65808,-1.20078 -4.99831,-0.68649 -3.84347,1.47488 -2.86615,2.36613 2.56153,2.3359 3.63767,-0.0203 4.301,-0.46926 2.43678,-1.64941 z M 208.99593,86.197501 c 0.72348,-1.170612 -4.89922,-1.698933 -15.79647,-1.484264 l -16.91979,0.333303 14.54055,1.150961 c 7.99731,0.633023 15.10572,1.300943 15.79647,1.484263 0.69075,0.18332 1.7614,-0.4846 2.37924,-1.484263 z m 82.69944,-0.04971 c 0,-1.229811 -13.34075,-1.760339 -39.07776,-1.554016 -21.49277,0.172288 -39.07776,1.01257 -39.07776,1.867279 0,0.85471 17.58499,1.55401 39.07776,1.55401 25.53372,0 39.07776,-0.64718 39.07776,-1.867273 z m 34.07944,0.531293 c -4.7484,-0.374412 -12.51852,-0.374412 -17.26692,0 -4.7484,0.37442 -0.86334,0.68076 8.63346,0.68076 9.49681,0 13.38186,-0.30634 8.63346,-0.68076 z M 175.37087,84.651989 c 0,-0.850029 -5.11191,-1.602264 -11.35981,-1.671628 -8.26306,-0.09173 -10.12111,0.280187 -6.81589,1.364334 6.15046,2.017416 18.1757,2.220729 18.1757,0.307294 z m 253.72731,-12.24872 -17.6399,1.672878 c -5.39865,0.51198 -17.97899,1.628415 -27.97562,2.292732 -16.39323,1.089399 -20.78699,2.478462 -20.87423,6.599285 -0.0313,1.473183 66.389,2.78376 66.389,2.78376 0,0 -0.96143,-9.051075 0.10074,-13.348655 z M 142.20021,83.127031 c -1.74941,-0.457168 -4.61207,-0.457168 -6.36149,0 -1.74941,0.45717 -0.31807,0.831217 3.18074,0.831217 3.49883,0 4.93017,-0.374047 3.18075,-0.831217 z m -54.527095,-1.71026 c 2.249244,-0.602773 4.089533,-1.872793 4.089533,-2.822265 0,-2.529866 -9.58491,-0.9762 -10.462323,1.695891 -0.8298,2.527092 0.360797,2.737526 6.37279,1.126374 z M 107.21199,80.74479 c 0.6371,-1.030849 -0.88991,-1.81757 -3.52788,-1.81757 -2.55815,0 -5.244156,-0.06135 -5.968925,-0.136318 -0.724754,-0.07498 -1.610815,0.742931 -1.969031,1.81757 -0.825679,2.477047 9.940086,2.605042 11.465836,0.136318 z m 12.72299,-0.03793 c -4.08217,-0.807115 -8.02746,-0.715459 -8.99697,0.209019 -1.04165,0.993257 1.84275,1.56355 7.27028,1.437458 l 8.99697,-0.209019 z m 215.83646,0.651754 c -1.24957,-0.504217 -3.29434,-0.504217 -4.54392,0 -1.24958,0.504218 -0.2272,0.916757 2.27197,0.916757 2.49915,0 3.52153,-0.412539 2.27195,-0.916757 z m 24.47438,-1.762764 c 0.46792,-1.421587 -2.01643,-1.774538 -8.0362,-1.141707 -12.57166,1.321606 -14.6464,4.446683 -2.49487,3.757938 5.41958,-0.307181 10.15855,-1.484484 10.53107,-2.616231 z M 74.786854,78.05949 c -0.923677,-2.661519 -18.906287,-2.152281 -21.633542,0.612625 -1.85031,1.875853 0.05486,2.21544 9.996291,1.781775 7.364992,-0.321274 12.02404,-1.279888 11.637251,-2.3944 z M 209.15823,74.837687 C 208.65707,71.58878 207.73051,64.841051 207.09922,59.842733 205.23083,45.049775 194.4459,22.096083 186.28063,15.534284 176.99973,8.0759569 173.23118,6.6302969 157.85919,4.6314729 122.69164,0.05863185 93.527844,17.434623 82.830029,49.334369 c -3.997682,11.920653 -4.885407,21.431267 -2.157758,23.117046 0.89794,0.554957 4.342497,-3.28183 7.654573,-8.526191 9.316901,-14.752435 20.019786,-28.999683 21.027946,-27.99153 0.50086,0.500858 -4.47934,8.417069 -11.067098,17.591578 -6.587765,9.174509 -11.977754,17.416295 -11.977754,18.31508 0,0.898786 1.963977,1.634158 4.364393,1.634158 3.074598,0 5.491733,-1.910701 8.179063,-6.465388 2.098076,-3.555964 3.814666,-7.597227 3.814666,-8.980584 0,-2.720734 3.30505,-5.483251 4.78706,-4.001246 0.50053,0.500534 -1.18971,5.05373 -3.75607,10.118215 -2.56637,5.064487 -4.666116,9.644299 -4.666116,10.177364 0,0.533064 2.875886,0.969209 6.390896,0.969209 5.51434,0 6.80697,-0.872522 9.42448,-6.361496 1.66847,-3.498822 3.70001,-6.361495 4.51452,-6.361495 2.09607,0 1.74752,2.034676 -1.24542,7.27028 -3.77856,6.609898 -3.42529,7.270281 3.88916,7.270281 4.12806,0 7.56375,-1.195971 9.13739,-3.180749 2.36375,-2.981325 2.49028,-2.952837 2.01794,0.454393 -0.47339,3.414842 0.81786,3.695596 21.30691,4.632738 11.99597,0.548678 29.41355,1.162109 38.70573,1.363177 l 16.8949,0.365581 z m 80.71956,4.038395 c 0,-1.718319 -43.25209,-0.563443 -45.28778,1.209234 -0.41652,0.36271 9.60283,0.659474 22.26523,0.659474 14.55666,0 23.02255,-0.687163 23.02255,-1.868708 z M 314.522,78.076239 c 3.31324,-2.506011 3.12682,-2.67207 -3.06055,-2.726355 -8.85686,-0.0777 -17.94851,1.849447 -17.94851,3.804533 0,2.665432 17.22853,1.781272 21.00906,-1.078178 z m -93.71187,-1.875375 c 0,-1.499495 -0.76963,-2.726354 -1.7103,-2.726354 -2.29192,0 -3.9334,2.838296 -2.48128,4.29041 2.04692,2.046919 4.19158,1.246653 4.19158,-1.564056 z m 38.47969,-0.563432 c 18.02083,-1.165267 25.52599,-2.932864 19.48831,-4.589831 -1.39265,-0.382199 -5.45285,-1.628311 -9.02266,-2.76914 -10.50289,-3.356497 -21.00198,-2.441885 -33.56637,2.924086 -13.48637,5.759737 -15.16577,8.641946 -4.01916,6.897756 4.24858,-0.664803 16.45253,-1.773096 27.11988,-2.462871 z m 69.41424,0.563432 c 1.10039,-2.867583 -1.82562,-3.558871 -6.87012,-1.62311 -4.35081,1.669557 -3.44232,4.349466 1.47444,4.349466 2.39222,0 4.82026,-1.22686 5.39568,-2.726356 z m 13.04923,-1.029709 c 0.65892,-1.066173 0.74529,-2.391262 0.19192,-2.94464 -1.5479,-1.547887 -10.2633,1.08474 -10.2633,3.100192 0,2.410573 8.56719,2.278252 10.07138,-0.155547 z m 30.51116,-1.739209 c 12.168,-1.023074 25.39526,-2.20837 29.39391,-2.633993 3.99866,-0.425622 10.33743,-0.815421 14.08617,-0.86622 3.74874,-0.0508 6.81589,-0.910271 6.81589,-1.909934 0,-4.33253 -72.04214,0.429871 -76.68134,5.069081 -2.75157,2.751558 -2.34628,2.756796 26.38537,0.341066 z M 315.24769,71.65694 c 3.64154,0 5.65634,-1.489421 7.99071,-5.907104 2.91083,-5.508528 3.07227,-4.300504 0.33333,2.494473 -0.96393,2.39141 -0.27565,2.774338 3.64092,2.025639 3.35106,-0.640595 6.71544,-3.871318 10.98979,-10.553223 3.38814,-5.296496 7.08027,-10.198612 8.20477,-10.893589 1.1245,-0.694977 -0.9006,3.340414 -4.50023,8.967534 l -6.54478,10.231129 4.83263,0 c 2.65794,0 6.36356,-1.38548 8.2347,-3.078842 2.75007,-2.488785 3.1989,-2.549366 2.34192,-0.316105 -0.92018,2.397978 0.5693,2.551333 11.28161,1.161516 6.78797,-0.880673 23.38349,-2.169762 36.87894,-2.864645 l 28.65319,-1.851417 -3.22752,-13.268377 C 420.7567,33.000277 419.45892,26.637917 408.94529,18.36006 395.71438,7.9427499 387.07234,5.3121329 366.21574,5.3532739 343.68241,5.3977139 331.07403,9.3376069 315.8004,21.107114 301.547,32.090462 297.34925,40.581933 294.50113,64.192633 l -1.18248,9.802608 8.5299,-1.16915 c 4.69142,-0.643034 10.72105,-1.169151 13.39914,-1.169151 z m 19.25576,-29.270635 c 4.5709,-9.101202 8.7192,-16.139159 9.21846,-15.639904 0.92104,0.921053 -15.36622,32.187547 -16.76708,32.187547 -0.41915,0 2.97772,-7.446439 7.54862,-16.547643 z m -44.62566,26.544279 c 0,-1.499496 -1.22685,-2.726355 -2.72635,-2.726355 -1.49949,0 -2.72636,1.226859 -2.72636,2.726355 0,1.499495 1.22687,2.726356 2.72636,2.726356 1.4995,0 2.72635,-1.226861 2.72635,-2.726356 z m 156.31104,-2.726355 c 1.99662,-1.290319 0.6588,-1.769356 -4.99832,-1.789738 -4.24857,-0.01527 -7.72467,0.790074 -7.72467,1.789738 0,2.319242 9.13422,2.319242 12.72299,0 z"
     id="path13737"
     inkscape:connector-curvature="0"
     sodipodi:nodetypes="cssscssssscccsssscsssssssssssssssscssssssssssscsssscsssccssssssssssssssssssssscssssscssscsssssssssssssscssssssssscssssssssssssssssssssssssssssssssssssssssssssssssssssssssscsssssssssssssssscsscccsssssssssssssssscssssscsscssssssssssssssssssssssssssssscsscssssssssssssssssssssssssssssssssssssscssssscssssscssscsssssssssss" />
</svg>
