<?xml version="1.0" encoding="UTF-8" standalone="no"?>
<!-- Created with Inkscape (http://www.inkscape.org/) -->

<svg
   xmlns:dc="http://purl.org/dc/elements/1.1/"
   xmlns:cc="http://creativecommons.org/ns#"
   xmlns:rdf="http://www.w3.org/1999/02/22-rdf-syntax-ns#"
   xmlns:svg="http://www.w3.org/2000/svg"
   xmlns="http://www.w3.org/2000/svg"
   xmlns:sodipodi="http://sodipodi.sourceforge.net/DTD/sodipodi-0.dtd"
   xmlns:inkscape="http://www.inkscape.org/namespaces/inkscape"
   id="svg6740"
   version="1.1"
   inkscape:version="0.48.4 r9939"
   width="245.0779"
   height="490.97708"
   sodipodi:docname="GlassWhiskey.svg">
  <metadata
     id="metadata6746">
    <rdf:RDF>
      <cc:Work
         rdf:about="">
        <dc:format>image/svg+xml</dc:format>
        <dc:type
           rdf:resource="http://purl.org/dc/dcmitype/StillImage" />
        <dc:title />
      </cc:Work>
    </rdf:RDF>
  </metadata>
  <defs
     id="defs6744">
    <filter
       inkscape:collect="always"
       id="filter7288"
       x="-0.31369886"
       width="1.6273977"
       y="-0.071105085"
       height="1.1422102"
       color-interpolation-filters="sRGB">
      <feGaussianBlur
         inkscape:collect="always"
         stdDeviation="5.592746"
         id="feGaussianBlur7290" />
    </filter>
    <filter
       inkscape:collect="always"
       id="filter7574"
       x="-0.080615379"
       width="1.1612308"
       y="-0.23462687"
       height="1.4692538"
       color-interpolation-filters="sRGB">
      <feGaussianBlur
         inkscape:collect="always"
         stdDeviation="2.7476695"
         id="feGaussianBlur7576" />
    </filter>
  </defs>
  <sodipodi:namedview
     pagecolor="#ffffff"
     bordercolor="#666666"
     borderopacity="1"
     objecttolerance="10"
     gridtolerance="10"
     guidetolerance="10"
     inkscape:pageopacity="0"
     inkscape:pageshadow="2"
     inkscape:window-width="1277"
     inkscape:window-height="743"
     id="namedview6742"
     showgrid="false"
     inkscape:zoom="0.84281415"
     inkscape:cx="152.05975"
     inkscape:cy="203.14127"
     inkscape:window-x="2"
     inkscape:window-y="22"
     inkscape:window-maximized="0"
     inkscape:current-layer="svg6740"
     fit-margin-top="0"
     fit-margin-left="0"
     fit-margin-right="0"
     fit-margin-bottom="0" />
  <path
     style="fill:#1added;fill-opacity:0.08849559;stroke:none"
     d="m 78.900481,202.89056 -3.960378,40.16954 -2.263072,62.2345 1.131536,33.94609 4.526145,65.06335 3.39461,28.85418 10.183827,9.05228 24.328041,13.01266 39.60375,4.52616 20.36767,-0.56576 48.09029,-13.01268 18.67035,-13.01266 -0.56577,-212.72885 -5.09192,-35.07762 -13.01266,-13.01267 -30.55148,-14.14422 -3.3946,-5.09191 2.82882,-27.72262 2.26308,-22.63074 -11.31536,2.82885 -20.36766,4.52614 -25.45956,-2.82883 -17.53881,-3.96038 2.26307,20.93341 4.52615,30.55148 -5.09192,6.22345 -16.97305,9.61806 -16.97304,10.7496 z"
     id="path7268"
     inkscape:connector-curvature="0" />
  <path
     style="fill:#a81313;fill-opacity:1;stroke:none"
     d="m 122.76394,14.344888 -4.40065,19.202817 3.20046,20.803035 5.6008,9.201344 4.00061,0 -5.63278,6.491913 -2.76844,9.910489 -2.80042,20.803044 6.80098,4.40066 36.8054,3.6005 29.60432,-5.60081 0.80011,-10.801585 -2.80041,-23.60345 3.60053,-4.400644 6.40095,-6.000879 1.60023,-21.203102 -8.8013,-30.0043779 -16.40239,-4.4006455 -19.20282,-0.8001163 -28.80419,4.8006978 z"
     id="path6754"
     inkscape:connector-curvature="0"
     sodipodi:nodetypes="ccccccccccccccccccccc" />
  <path
     style="fill:#ffad00;fill-opacity:1;stroke:#000000;stroke-width:1.34869993px;stroke-linecap:butt;stroke-linejoin:miter;stroke-opacity:1"
     d="m 77.95737,225.97585 36.40532,-13.602 46.00672,-4.00059 54.00791,6.00088 26.80392,4.40064 -13.60198,9.60142 -45.20661,8.40122 -46.80685,2.80042 -39.20573,-5.20077 z"
     id="path7264"
     inkscape:connector-curvature="0" />
  <path
     style="fill:#ab6a09;fill-opacity:1;stroke:#000000;stroke-width:1.34869993px;stroke-linecap:butt;stroke-linejoin:miter;stroke-opacity:1"
     d="m 77.557313,228.3762 24.003517,8.00116 34.80509,4.0006 27.20398,-0.80012 32.80478,-3.60053 21.60317,-5.20076 17.60257,-6.40093 6.00088,-4.40066 -0.40006,211.63097 -3.20046,7.20105 -16.80246,8.80128 -43.60638,12.40182 -23.60346,0.80012 -24.80363,-2.80043 -18.80275,-5.60081 -28.004085,-16.00233 -1.600236,-16.00235 -4.000585,-34.8051 -4.400643,-60.40884 1.600233,-34.80508 z"
     id="path7266"
     inkscape:connector-curvature="0" />
  <path
     style="fill:#dfb420;fill-opacity:0.65098039;stroke:none"
     d="m 3.087545,401.4752 19.801886,-3.39462 48.090295,-3.96037 32.814554,2.82884 19.23612,3.96038 -19.80188,6.78922 -33.38033,2.26306 -42.432615,-1.6973 z"
     id="path7292"
     inkscape:connector-curvature="0" />
  <path
     style="fill:#f4f1c1;fill-opacity:0.73451329;stroke:none;filter:url(#filter7288)"
     d="m 101.61362,146.375 8.80932,-4.19492 18.87712,-1.25847 -11.32627,10.48729 -4.61441,7.97033 -2.51695,24.75 -1.67797,15.94068 0.41949,50.33899 2.09746,33.55932 0,15.94068 8.80932,24.3305 3.35594,3.35594 -9.22882,2.09745 -15.521176,-3.35593 -7.55085,-9.22881 -0.41949,-35.65678 -2.09746,-44.04661 -2.51695,-32.72034 4.61441,-31.88136 5.45339,-23.49152 z"
     id="path7270"
     inkscape:connector-curvature="0"
     transform="matrix(1.3486999,0,0,1.3486999,-10.055504,-4.7092123)" />
  <path
     style="fill:#000000"
     d="m 48.425506,489.68896 c -10.437385,-0.53529 -20.451496,-1.39388 -22.253547,-1.90795 -1.802053,-0.51408 -8.283514,-2.48166 -14.403239,-4.37239 -10.7894911,-3.3335 -11.1295928,-3.56576 -11.2197804,-7.66236 -0.051115,-2.32355 -0.084024,-30.84472 -0.073235,-63.38039 0.018477,-55.10695 0.1863769,-59.33989 2.4532314,-61.84652 7.02295,-7.7658 28.423189,-13.66834 57.055751,-15.73689 l 11.463951,-0.82823 0.100613,-8.76655 c 0.05543,-4.8216 0.518237,-24.84979 1.028598,-44.50709 1.835446,-70.69539 3.096466,-81.90022 10.457914,-92.92407 6.816518,-10.2078 7.809189,-11.00099 23.479007,-18.76068 13.76204,-6.81496 17.21344,-9.50179 18.76665,-14.60935 0.48304,-1.58843 -0.41922,-10.08524 -2.00501,-18.8818 -1.5858,-8.79655 -3.1873,-20.85251 -3.55891,-26.79101 -0.8998,-14.379678 1.51561,-33.493912 4.97303,-39.353785 l 2.71937,-4.609019 -3.43749,-2.965711 c -4.14059,-3.572287 -5.92556,-10.542248 -5.94045,-23.196209 -0.0145,-12.228068 2.86072,-24.246333 6.8047,-28.444527 4.74228,-5.0479264 23.31307,-10.26508877 36.10207,-10.14230307 11.87045,0.1139651 20.02449,1.00963667 28.23679,3.10156467 4.90115,1.248478 6.17018,2.320182 8.30714,7.0154774 9.76358,21.452219 8.40021,52.962813 -2.35918,54.526064 -3.65176,0.530579 -3.77459,3.456515 -0.9806,23.360185 1.4403,10.260415 1.65566,16.899813 0.7841,24.174183 -5.42842,45.3079 -5.81583,42.38468 6.15276,46.42596 10.86849,3.66981 25.78377,13.94323 31.85204,21.93922 9.72348,12.81231 9.48105,11.13895 10.59948,73.16181 0.78294,43.41745 0.78905,166.35153 0.009,179.60267 -0.18875,3.20595 -14.19414,12.14339 -23.73463,15.14606 -4.45071,1.40077 -10.82422,3.62597 -14.16339,4.94489 -19.45249,7.6834 -36.44881,9.61124 -65.74708,7.45752 l -13.82417,-1.01623 0,8.08039 c 0,7.30232 -0.38526,8.40459 -4.0011,11.4471 -7.51795,6.32594 -30.410582,11.8853 -47.249492,11.47431 -4.079817,-0.0996 -15.957534,-0.61904 -26.394934,-1.15434 z m 32.350119,-10.2332 c 8.252129,-8.90403 7.769713,-11.91992 -0.794074,-4.96428 -4.365107,3.5454 -4.404152,3.55181 -1.439844,0.23712 5.855663,-6.54785 -0.695013,-7.26818 -7.700335,-0.84675 l -4.781829,4.38327 3.958434,-4.38327 3.958421,-4.38327 -3.354338,0 c -1.844887,0 -4.118592,0.75864 -5.052689,1.68587 -1.361728,1.35173 -1.520241,1.21808 -0.799793,-0.67435 1.618657,-4.25171 -1.733092,-2.48549 -9.054133,4.7711 -5.088172,5.04338 -5.516425,5.32596 -1.462678,0.96518 3.152587,-3.39137 5.731975,-6.60045 5.731975,-7.1313 0,-0.53088 -2.116029,-0.96521 -4.702296,-0.96521 -3.529399,0 -5.800165,1.1089 -9.103725,4.44573 -2.420781,2.44514 -3.027373,2.85823 -1.347971,0.918 1.679401,-1.94023 2.732682,-3.84846 2.340628,-4.24053 -0.392053,-0.39204 -4.981315,0.0193 -10.198342,0.91424 -7.157228,1.22767 -10.540496,2.58426 -13.783498,5.52678 -2.363879,2.14486 -3.245364,2.63812 -1.958839,1.09613 3.201747,-3.83746 2.933544,-5.02726 -0.69543,-3.08509 -1.669016,0.89323 -3.338031,1.56129 -3.708925,1.48459 -0.370892,-0.0768 -0.506531,0.68535 -0.301407,1.69344 0.205124,1.0081 -0.250062,2.21796 -1.011525,2.68855 -0.761463,0.47061 -1.384467,-0.16484 -1.384467,-1.41213 0,-1.96037 -0.309338,-2.01686 -2.281946,-0.41677 -1.550547,1.25773 -1.957316,1.31067 -1.2691,0.16513 1.148957,-1.91245 0.691491,-2.05653 -2.563637,-0.80742 -1.685403,0.64675 -0.558388,1.54946 4.272978,3.42251 8.850494,3.43122 17.829936,5.13843 31.364382,5.96306 l 11.315215,0.68942 4.866352,-4.4652 4.866352,-4.46519 -3.958434,4.38329 -3.958421,4.38326 4.548679,0 c 2.796085,0 5.87758,-1.16921 7.997696,-3.03457 3.220412,-2.83343 3.287767,-2.8427 1.016016,-0.13987 -1.879441,2.23606 -2.030684,3.05573 -0.664706,3.60244 2.70688,1.0834 2.605458,1.15656 11.095254,-8.00391 z m -53.159681,-1.19064 c 1.742183,-1.85446 3.471054,-3.37174 3.841947,-3.37174 0.370892,0 -0.751064,1.51728 -2.493248,3.37174 -1.742169,1.85446 -3.471053,3.37176 -3.841947,3.37176 -0.370891,0 0.751078,-1.5173 2.493248,-3.37176 z m 18.207449,0.67435 c 1.342617,-1.48357 2.744563,-2.69739 3.11547,-2.69739 0.370878,0 -0.424152,1.21382 -1.766771,2.69739 -1.342617,1.48357 -2.744563,2.69741 -3.115455,2.69741 -0.370893,0 0.424139,-1.21384 1.766756,-2.69741 z m 47.099037,1.18426 c 9.22271,-9.12156 6.52936,-10.12661 -2.961875,-1.10524 l -7.721036,7.33883 6.405704,-6.78982 c 7.051807,-7.47468 7.610827,-8.72023 3.913613,-8.72023 -2.187722,0 -17.738394,14.70572 -17.738394,16.77456 0,0.43474 2.579388,0.40268 5.731974,-0.0712 4.445435,-0.66826 7.221883,-2.33521 12.370014,-7.42688 z m 3.81438,6.04229 c 2.78169,-0.45979 5.10145,-1.51522 5.15501,-2.34539 0.0536,-0.83017 2.32948,-3.32931 5.05762,-5.55365 2.72814,-2.22431 4.12729,-2.98296 3.10922,-1.68587 -1.01804,1.2971 -1.29116,2.35836 -0.60692,2.35836 1.37958,0 4.481,-2.78846 4.481,-4.02883 0,-1.44562 -5.91514,-1.26442 -7.72375,0.23659 -1.37854,1.1441 -1.5877,0.97813 -0.92938,-0.73744 1.83825,-4.79042 -4.34475,-1.71905 -10.76919,5.34952 -6.748677,7.42531 -6.595911,7.86494 2.22639,6.40671 z m 9.64848,-2.82607 c 0.54689,-0.54687 1.71014,-1.03445 2.58502,-1.08348 4.02166,-0.22543 8.88712,-2.40398 9.61704,-4.3061 1.34274,-3.49913 -0.20653,-3.4971 -4.9032,0.007 -2.45952,1.83471 -5.13941,3.08963 -5.95531,2.78868 -0.81591,-0.30093 -2.25579,0.38342 -3.19973,1.5208 -1.69791,2.04586 -0.0622,2.99199 1.85618,1.07363 z M 6.711096,475.20991 c 0.741785,-0.545 1.395324,-2.20472 1.45232,-3.68829 0.05706,-1.48357 0.506584,-4.21469 0.999076,-6.06914 0.492505,-1.85447 0.545765,-2.60934 0.118416,-1.67748 -0.427403,0.93185 -1.332165,1.35123 -2.010601,0.93192 -1.618563,-1.00032 -1.601177,-4.74815 0.01997,-4.31207 0.689429,0.18545 2.240205,-0.87666 3.446158,-2.36023 2.135881,-2.62756 2.153375,-2.61661 0.675954,0.42339 -1.097127,2.25745 -1.109682,3.61121 -0.04545,4.89358 1.042167,1.25574 1.05846,2.85857 0.05584,5.49562 -0.778483,2.04758 -1.094996,4.04329 -0.703347,4.43495 0.391635,0.39164 0.712072,-0.0319 0.712072,-0.941 0,-0.90919 0.580373,-1.29439 1.289709,-0.85599 0.709348,0.43839 5.41294,-0.16035 10.452424,-1.33054 17.217503,-3.99796 33.452128,-4.75972 56.537542,-2.65288 11.774878,1.07461 23.916501,2.32511 26.981381,2.77891 3.45106,0.51095 5.92025,0.26241 6.48591,-0.65286 0.50239,-0.81285 0.23487,-1.47793 -0.59447,-1.47793 -0.82935,0 -1.09275,-0.6717 -0.58537,-1.49268 0.66227,-1.07156 1.20253,-1.03967 1.91496,0.11301 0.71615,1.15875 1.21889,1.01562 1.80593,-0.51417 0.44741,-1.16598 0.38016,-2.05537 -0.14949,-1.97641 -2.68738,0.40054 -4.40104,-0.3262 -3.64679,-1.5466 0.46593,-0.75388 1.42242,-1.01516 2.12553,-0.58061 0.70311,0.43456 0.25784,-1.35001 -0.98948,-3.96569 -2.89274,-6.06609 -6.09605,-6.74267 -20.705791,-4.37323 -14.900692,2.41663 -37.92242,1.60137 -58.668446,-2.07758 -21.202546,-3.7599 -22.611763,-3.78725 -22.910594,-0.44479 -0.883372,9.88087 -5.566112,10.98886 -5.60606,1.32647 -0.02279,-5.49915 0.130689,-5.77476 1.848582,-3.32202 1.030366,1.47104 1.445739,3.43222 0.92305,4.35814 -0.720476,1.27631 -0.545886,1.31059 0.721771,0.14181 1.322507,-1.21934 1.190456,-2.27681 -0.631597,-5.05762 -2.970053,-4.53286 -4.663426,-4.46475 -4.798296,0.193 -0.05908,2.03991 -0.261851,7.65388 -0.450641,12.47548 -0.5093098,13.00747 0.446001,16.36302 3.929786,13.80353 z M 123.10694,465.1153 c -0.30016,-5.21362 -0.94111,-7.08068 -2.4307,-7.08068 -1.11268,0 -1.86521,0.77698 -1.6723,1.72662 0.19291,0.94961 -0.62296,3.60954 -1.81307,5.91094 -2.34492,4.5346 -1.19234,6.45993 3.89303,6.50315 2.08697,0.0177 2.37305,-0.98066 2.02304,-7.06003 z m -5.01265,5.05762 c 0.14043,-2.55473 2.38823,-6.85659 2.46651,-4.72044 0.0407,1.11267 -0.5142,2.93342 -1.23326,4.0461 -0.71908,1.11267 -1.27403,1.41613 -1.23325,0.67434 z m -2.81285,-12.81265 c -0.79398,-1.48357 -1.74707,-2.69739 -2.11796,-2.69739 -0.37089,0 -0.0247,1.21382 0.76926,2.69739 0.79398,1.48357 1.74707,2.6974 2.11795,2.6974 0.3709,0 0.0247,-1.21383 -0.76925,-2.6974 z m 74.73623,-2.24811 c 7.35372,-1.81804 15.06174,-4.18017 17.12895,-5.24915 2.0672,-1.069 4.927,-1.94364 6.35511,-1.94364 3.03967,0 15.4197,-5.43926 20.90529,-9.18491 2.09647,-1.43149 4.54856,-4.04718 5.44912,-5.81263 1.23938,-2.42966 1.57695,-23.208 1.38877,-85.48059 -0.13674,-45.24889 -0.27876,-92.19 -0.31561,-104.3136 l -0.067,-22.04287 -4.45917,3.32871 c -9.33879,6.97136 -33.82557,12.61514 -62.50032,14.40525 -12.58446,0.78564 -25.76368,1.80386 -29.28715,2.26275 l -6.40632,0.83432 -0.29162,16.34781 -0.29161,16.34782 -0.42351,-16.42961 -0.42351,-16.42962 -7.71425,-0.80662 c -4.24284,-0.44364 -9.91527,-1.08713 -12.60542,-1.42997 -4.60081,-0.58637 -4.9483,-0.36379 -5.85367,3.74923 -0.52938,2.40493 -1.24221,12.24293 -1.5841,21.86225 -0.62507,17.58711 -1.72916,24.41291 -1.95225,12.06936 -0.20264,-11.21189 0.23914,-19.73818 1.49438,-28.84213 1.31044,-9.5041 0.68176,-10.76002 -5.42064,-10.82888 -3.59461,-0.0406 -18.645342,-4.45479 -22.836009,-6.69758 -2.379902,-1.27369 -2.557364,-0.38303 -3.287307,16.49816 -0.424368,9.81447 -1.103332,33.09728 -1.508805,51.73958 l -0.737212,33.89504 9.127043,0.94131 c 8.557565,0.8826 18.31284,2.62885 23.5562,4.21671 1.9368,0.58654 2.36641,-0.51549 2.77957,-7.13013 l 0.48868,-7.8239 0.25503,8.26575 c 0.23647,7.66531 0.52765,8.37868 4.00827,9.8204 2.06427,0.85506 5.49487,3.39991 7.62352,5.65522 l 3.8703,4.10058 -0.94928,34.46591 c -0.86942,31.56643 -0.76399,34.39482 1.2533,33.62071 1.21147,-0.46487 5.75213,-0.84522 10.09039,-0.84522 l 7.88774,0 -1.25456,-4.37437 c -0.69,-2.40592 -1.19629,-5.59222 -1.12507,-7.08068 0.0712,-1.48847 0.83357,0.32827 1.69416,4.0372 l 1.56472,6.7435 30.33744,0.38606 c 28.16241,0.35838 31.39186,0.65769 45.04448,4.17481 8.08887,2.08382 13.99147,4.231 13.11692,4.77149 -0.87457,0.54052 -3.44573,0.5752 -5.71369,0.0771 -3.23043,-0.70953 -4.90089,-0.21998 -7.71246,2.26028 -3.46244,3.05442 -3.49845,3.05876 -1.02182,0.12314 1.4119,-1.67357 2.22739,-3.38254 1.81219,-3.79773 -1.82461,-1.82464 -23.13618,-4.53329 -36.0061,-4.57631 -12.72057,-0.0425 -14.4032,0.24483 -17.49229,2.98751 -1.93345,1.71663 -2.61991,1.99534 -1.5806,0.64175 2.22181,-2.89365 0.93665,-4.6975 -1.75514,-2.46352 -1.36665,1.13424 -2.06808,1.16638 -2.41989,0.111 -0.30166,-0.90498 -3.26115,-1.32259 -7.56742,-1.06781 l -7.07203,0.41841 2.86301,5.3948 c 4.31015,8.12164 6.661,10.40713 8.8425,8.59665 2.18893,-1.81665 2.45359,0.34387 0.30529,2.49217 -0.83218,0.83217 -2.35719,1.18911 -3.38892,0.79319 -1.03173,-0.3959 -2.77853,0.0292 -3.88175,0.94489 -1.10323,0.91561 -2.00588,1.18117 -2.00588,0.59014 0,-0.59103 -1.66467,0.39676 -3.69929,2.19509 -2.94293,2.60118 -3.20225,2.67832 -1.26834,0.37729 2.42579,-2.88628 2.41723,-2.89355 -4.05575,-3.44569 -3.66932,-0.31298 -6.91702,0.0646 -7.47754,0.86933 -0.57761,0.8293 -0.99949,0.37266 -1.01153,-1.09489 -0.0149,-1.81706 -0.74308,-2.3286 -2.61714,-1.83853 -1.82149,0.47633 -2.38226,0.12071 -1.87875,-1.19138 0.42845,-1.11656 -0.1558,-1.87041 -1.4496,-1.87041 -1.42605,0 -2.16735,1.18048 -2.16735,3.45135 0,2.16618 0.55229,3.10999 1.48325,2.53464 1.03709,-0.64098 1.1001,-0.15781 0.20942,1.60627 -1.84557,3.65538 -0.50067,13.98694 1.82074,13.98694 1.03475,0 2.17103,0.0614 2.52507,0.13646 0.35403,0.0752 3.17354,0.70491 6.26558,1.39964 5.34312,1.20051 5.81763,1.04326 9.56888,-3.17105 2.5006,-2.80929 3.16997,-3.21222 1.82661,-1.09953 -1.1662,1.83405 -2.12035,3.77995 -2.12035,4.32419 0,1.17287 17.24362,2.10328 24.95094,1.34628 2.96714,-0.29144 11.41147,-2.01736 18.76519,-3.83541 z m 39.24412,-21.18808 c 1.27494,-1.94578 2.57307,-3.5378 2.88475,-3.5378 0.97562,0 -2.16453,5.19784 -3.72145,6.16008 -0.81476,0.50355 -0.43823,-0.67648 0.8367,-2.62228 z m -64.88945,-5.22368 c -0.5336,-0.92723 -0.47352,-1.23594 0.13352,-0.68606 0.60701,0.54992 2.06988,0.24645 3.25081,-0.67435 1.89976,-1.48127 1.93386,-1.40222 0.29612,0.68606 -2.20618,2.81308 -2.42641,2.85343 -3.68042,0.67435 z m 43.96938,1.17667 c 0,-0.28007 1.06211,-1.34218 2.36023,-2.36024 2.13912,-1.67761 2.18683,-1.62989 0.50922,0.50922 -1.7619,2.2466 -2.86945,2.96105 -2.86945,1.85102 z m -10.11524,-3.53689 c 1.34261,-1.48357 2.74457,-2.6974 3.11547,-2.6974 0.37089,0 -0.42416,1.21383 -1.76678,2.6974 -1.34261,1.48357 -2.74456,2.6974 -3.11547,2.6974 -0.37089,0 0.42416,-1.21383 1.76678,-2.6974 z m -22.25355,-1.34871 c 0.79397,-1.48355 1.74706,-2.69739 2.11796,-2.69739 0.37089,0 0.0247,1.21384 -0.76926,2.69739 -0.79398,1.48357 -1.74707,2.6974 -2.11796,2.6974 -0.37089,0 -0.0247,-1.21383 0.76926,-2.6974 z m -34.62364,-30.34574 c 0.005,-5.1925 0.24976,-7.15143 0.54172,-4.3532 0.29196,2.79823 0.28706,7.04665 -0.0108,9.4409 -0.29794,2.39427 -0.53682,0.1048 -0.53084,-5.0877 z m -1.37335,-24.2766 c 0.008,-4.45071 0.25937,-6.10886 0.55954,-3.68478 0.30016,2.4241 0.29397,6.06559 -0.0138,8.09222 -0.30774,2.02661 -0.55332,0.0433 -0.54577,-4.40744 z m -1.42649,-14.8357 c 0.015,-2.96714 0.29117,-4.02216 0.61377,-2.3445 0.32259,1.67767 0.31035,4.10532 -0.0272,5.3948 -0.33757,1.28948 -0.60152,-0.0832 -0.58655,-3.0503 z m -1.34871,-10.7896 c 0.0151,-2.96714 0.29118,-4.02216 0.61378,-2.3445 0.32259,1.67767 0.31034,4.10532 -0.0272,5.3948 -0.33756,1.28948 -0.60152,-0.0832 -0.58656,-3.0503 z m -1.3487,-17.53309 c 0.015,-2.96714 0.29118,-4.02217 0.61377,-2.3445 0.3226,1.67766 0.31035,4.10532 -0.0272,5.39479 -0.33757,1.28948 -0.60153,-0.0832 -0.58656,-3.05029 z m -26.85176,-17.53311 c 0.005,-5.93427 0.24201,-8.19417 0.52693,-5.02198 0.28491,3.17221 0.2809,8.02752 -0.009,10.7896 -0.28982,2.76209 -0.52292,0.16666 -0.51803,-5.76762 z m 28.24609,-4.0461 c 0.0107,-3.70891 0.27206,-5.06613 0.58206,-3.01603 0.31001,2.05011 0.30172,5.08468 -0.0183,6.7435 -0.32013,1.65881 -0.57377,-0.0185 -0.56365,-3.72747 z m -29.67139,-13.48699 c 0.009,-3.70893 0.27206,-5.06614 0.58206,-3.01603 0.31,2.0501 0.30171,5.08467 -0.0185,6.7435 -0.32013,1.65882 -0.57376,-0.0185 -0.56365,-3.72747 z M 122.3854,448.9309 c -0.8889,-6.96455 -1.12774,-7.31538 -2.82327,-4.14724 -1.69865,3.17394 -0.46516,9.87922 1.81735,9.87922 1.25972,0 1.53631,-1.57614 1.00592,-5.73198 z m -31.717735,2.79274 c 9.211915,-1.75042 10.572485,-3.03848 4.493775,-4.25421 -4.544054,-0.90881 -13.081338,-7.93738 -14.298216,-11.77143 -0.757336,-2.38618 -2.145943,-2.6092 -15.911746,-2.55559 -13.813965,0.0539 -18.099324,0.51297 -29.917684,3.20556 l -4.046101,0.92183 3.509075,-2.03143 c 4.828305,-2.79513 18.480453,-4.82973 32.489048,-4.84191 6.44684,-0.005 11.970791,-0.46537 12.275449,-1.02171 0.304658,-0.55635 0.274555,-5.03315 -0.06689,-9.94849 l -0.620821,-8.93697 -27.164677,-0.70891 c -15.026352,-0.39215 -29.539482,-1.43069 -32.479312,-2.32418 -4.721567,-1.435 -5.518434,-1.33687 -7.140825,0.87935 -1.031297,1.40878 -1.488642,3.96217 -1.050705,5.86633 0.58953,2.56331 0.447215,2.88669 -0.593549,1.3487 -1.129618,-1.66928 -1.37264,-1.68894 -1.389675,-0.11235 -0.01079,1.05085 -0.313734,1.61758 -0.671934,1.25936 -0.358215,-0.3582 -0.06244,-2.70425 0.657127,-5.21346 0.962527,-3.35612 0.867294,-4.84232 -0.360238,-5.62197 -4.291442,-2.7257 -5.040402,-1.17405 -5.040402,10.44237 0,8.05039 0.448847,11.26613 1.48326,10.62683 1.078541,-0.66658 1.078541,-0.16047 0,1.8548 -1.895167,3.54114 -1.923921,11.95817 -0.04479,13.11953 2.214592,1.36867 2.786765,-0.0109 1.475153,-3.55632 -0.848035,-2.29245 -0.468417,-4.90263 1.319717,-9.07418 3.046619,-7.10748 3.088698,-7.88026 0.429102,-7.88026 -1.180126,0 -1.782334,0.77852 -1.391021,1.79829 0.379536,0.98904 0.102231,1.79825 -0.616302,1.79825 -1.668288,0 -1.646467,-2.78159 0.04236,-5.3948 1.162135,-1.79825 1.311988,-1.79825 1.348699,0 0.03182,1.55544 0.294219,1.62453 1.13543,0.2989 1.862393,-2.93478 4.587454,4.66021 2.84217,7.92132 -0.786292,1.4692 -1.052795,4.0139 -0.592214,5.6549 0.599025,2.13427 0.470292,2.45297 -0.452192,1.11956 -1.026402,-1.48364 -1.482451,-1.25646 -2.23454,1.11316 -0.519708,1.63749 -0.586064,3.33612 -0.147441,3.77475 0.438612,0.43861 0.797488,0.0656 0.797488,-0.82918 0,-1.21868 0.465003,-1.19228 1.854057,0.10534 1.019739,0.95258 1.585046,2.43299 1.256247,3.28982 -0.328786,0.85682 1.41627,2.19964 3.877917,2.98404 5.837065,1.85998 32.617498,6.76298 39.541925,7.2394 15.64813,1.07665 27.858436,0.88868 35.403374,-0.545 z m 26.612525,-2.53213 c -0.73841,-2.3265 -1.20297,-2.56981 -2.12554,-1.11316 -1.59546,2.51909 -1.52774,4.23532 0.12678,3.21277 0.74178,-0.45845 1.34869,-0.0896 1.34869,0.81954 0,0.90921 0.35887,1.29422 0.7975,0.8556 0.43861,-0.43863 0.37227,-2.13726 -0.14745,-3.77475 z m -2.43937,-5.51221 c 0.98413,-0.81676 1.78932,-2.28525 1.78932,-3.26332 0,-0.97806 0.71005,-2.21714 1.5779,-2.75351 1.08575,-0.67102 1.28645,-0.21571 0.64348,1.45988 -0.74644,1.94516 -0.56468,2.12819 0.90346,0.90974 2.10927,-1.75054 2.89022,-18.28055 0.80271,-16.99039 -0.7008,0.43312 -0.90854,1.37902 -0.4617,2.10204 0.44686,0.72303 0.237,2.04667 -0.46637,2.94139 -0.70336,0.89473 -1.68378,3.32063 -2.1787,5.39089 -0.49493,2.07024 -1.43238,3.43496 -2.08324,3.0327 -0.65087,-0.40224 -0.89851,0.63503 -0.55028,2.30506 0.62002,2.97386 0.59335,2.96968 -1.29403,-0.20231 -1.45542,-2.446 -2.13834,-2.77612 -2.79,-1.34869 -1.07978,2.36515 0.16295,-4.42371 1.39975,-7.6468 0.67415,-1.75677 0.44197,-2.08076 -0.89779,-1.25276 -1.32057,0.81617 -1.57522,0.51264 -0.94586,-1.12745 1.08934,-2.83881 0.43831,-2.81214 -8.17059,0.33451 -3.88043,1.41835 -7.34092,2.11674 -7.68996,1.55198 -0.82071,-1.32796 3.76595,-3.7055 11.41162,-5.91534 4.81797,-1.39252 6.04855,-2.34871 5.96926,-4.6382 -0.055,-1.58621 0.30542,-2.63353 0.80079,-2.32737 1.02336,0.63246 4.25549,-8.9966 3.33037,-9.92172 -0.33087,-0.33086 -1.18306,0.85211 -1.89375,2.62882 -1.24115,3.1028 -1.29558,3.11484 -1.37767,0.30452 -0.0768,-2.62657 -0.53387,-2.80985 -4.46877,-1.79178 -2.4108,0.62375 -9.21079,1.50798 -15.1111,1.96495 -5.900288,0.45695 -10.98138,1.08442 -11.291297,1.39435 -0.309932,0.30992 -0.121115,5.87502 0.419714,12.36688 0.919585,11.03961 1.279769,12.09996 5.566139,16.38633 2.756203,2.75621 5.386594,4.27455 6.599174,3.80924 1.10893,-0.42554 2.01624,-0.18584 2.01624,0.53266 0,0.7185 0.83605,1.30638 1.8579,1.30638 1.02186,0 2.59935,0.89336 3.50553,1.98526 1.45004,1.74719 2.22565,1.74373 6.46802,-0.0288 2.65123,-1.10775 5.6256,-2.68235 6.60973,-3.49909 z m 37.34797,-5.992 c 1.72737,-0.66285 1.38369,-2.08482 -2.1188,-8.76655 -4.06937,-7.76324 -4.32755,-7.97498 -9.70649,-7.96052 -3.03926,0.008 -7.80185,0.39102 -10.58354,0.85081 -4.39676,0.72674 -5.05762,1.3143 -5.05762,4.49657 0,3.95868 2.42706,6.73906 8.76956,10.04612 4.00862,2.09017 14.73207,2.85501 18.69689,1.33357 z m -35.55865,-13.12041 c 0,-3.08802 -2.44167,1.25543 -3.27137,5.81939 l -0.85815,4.72045 2.06477,-4.53812 c 1.13561,-2.49597 2.06475,-5.19674 2.06475,-6.00172 z m 5.39479,-13.17479 c 0,-5.95159 -0.4616,-8.05073 -1.681,-7.64427 -0.92454,0.30818 -2.0516,2.6347 -2.50458,5.17002 -0.45297,2.53532 -0.98221,5.21659 -1.1761,5.95838 -0.7255,2.77553 0.0544,3.9747 1.31559,2.02305 1.1173,-1.7289 1.31039,-1.67987 1.32805,0.33718 0.0109,1.29812 0.62756,2.36021 1.36935,2.36021 0.75134,0 1.34869,-3.63398 1.34869,-8.20457 z m -62.714538,-5.28242 c -0.49527,-0.80136 0.977632,-1.31024 3.629324,-1.2539 3.718662,0.079 4.013071,0.28808 1.765476,1.2539 -2.573806,1.106 -2.558349,1.16345 0.337175,1.2539 1.669016,0.0523 3.034575,-0.51212 3.034575,-1.2539 0,-0.74179 1.972473,-1.27689 4.383275,-1.18914 l 4.383274,0.15958 -4.0461,1.02956 -4.0461,1.02955 4.464697,0.15958 c 4.358121,0.15577 4.454687,0.0388 4.0461,-4.89806 l -0.418597,-5.05762 -7.548364,-0.39832 c -4.151594,-0.21906 -13.255319,0.27508 -20.230498,1.09813 -6.975179,0.82305 -14.382698,1.52707 -16.461179,1.5645 -8.754425,0.15769 4.633796,5.02446 16.591693,6.03128 4.821601,0.40596 9.01943,0.98146 9.328511,1.27888 1.09315,1.05195 1.608879,0.52233 0.786738,-0.80792 z m 44.409438,-1.03077 c 0.75829,-0.46863 2.91121,-0.88364 4.78427,-0.92217 4.55333,-0.0938 4.42463,-3.64961 -0.17664,-4.88019 -1.97022,-0.52691 -9.48874,-1.37907 -16.707855,-1.89372 l -13.125628,-0.93569 0.842221,3.14539 c 0.463212,1.72997 0.850504,4.27049 0.860619,5.64558 0.01699,2.30379 0.887364,2.4292 11.081365,1.59653 6.084618,-0.49699 11.683368,-1.28707 12.441648,-1.75573 z m -68.47885,-0.4987 c -1.78468,-1.03737 -2.91191,-1.02573 -3.978664,0.041 -1.085475,1.08547 -0.411286,1.47735 2.490212,1.44744 3.487887,-0.036 3.671499,-0.21955 1.488452,-1.48844 z m -8.299387,-1.16793 c 2.924468,-1.25669 2.783515,-1.29692 -7.080674,-2.02091 -3.152585,-0.23139 -5.731974,0.16448 -5.731974,0.87969 0,0.71523 0.602113,0.92828 1.338018,0.47347 0.735905,-0.45482 2.404921,-0.20563 3.708925,0.55374 2.815721,1.63971 4.168952,1.65958 7.765705,0.11397 z M 114.85404,400.462 c -0.43052,-1.0759 -0.75011,-0.75633 -0.81482,0.81484 -0.0585,1.42175 0.26018,2.21832 0.70836,1.77016 0.44817,-0.44815 0.49607,-1.61141 0.10641,-2.585 z M 6.140298,399.53372 c 0.656183,1.06175 0.936551,-1.35103 0.672192,-5.78464 -0.249442,-4.18336 -0.76277,-8.12065 -1.140744,-8.74953 -0.37796,-0.62887 -0.272814,-3.87454 0.233691,-7.21256 0.568544,-3.74702 0.324658,-7.25142 -0.637411,-9.15914 -1.365113,-2.70687 -1.638158,-1.95444 -2.202386,6.06915 -0.6903044,9.81658 0.267219,27.90015 1.315994,24.85375 0.530322,-1.54044 0.815425,-1.54321 1.758664,-0.017 z m 35.636995,-4.10912 c 8.90142,-0.77579 20.370131,-1.42014 25.486031,-1.43187 l 9.30162,-0.0213 -0.981099,-10.45242 c -1.209527,-12.88621 -1.629066,-16.90447 -1.901005,-18.20745 -0.116123,-0.55635 -4.307774,-1.0176 -9.314824,-1.025 -17.886053,-0.0264 -52.253746,-4.82614 -58.502178,-8.17019 -1.692255,-0.90568 -2.526492,-0.90359 -2.526492,0.007 0,0.74717 3.186303,2.21956 7.080674,3.27199 17.727312,4.79071 17.376097,4.61334 9.440899,4.76766 -5.783428,0.11248 -7.084464,0.5701 -7.101323,2.49791 -0.01781,2.04022 -0.217963,2.08593 -1.475922,0.33717 -1.214276,-1.68801 -1.324114,-1.61802 -0.663251,0.42262 0.435617,1.34512 -0.08159,4.13497 -1.149253,6.19967 -1.0677,2.06472 -1.599532,5.06084 -1.181854,6.65807 0.459422,1.75678 0.132983,2.90404 -0.826173,2.90404 -0.872069,0 -1.162322,0.68486 -0.645001,1.5219 1.337518,2.16417 3.627086,-2.28897 2.703387,-5.25804 -0.399188,-1.28316 -0.09293,-3.24338 0.680447,-4.35605 1.079567,-1.55306 1.195501,-1.27882 0.499072,1.18042 -0.58779,2.07563 -0.412,2.89742 0.499316,2.33419 0.973289,-0.60152 0.982623,0.48885 0.03022,3.54005 -0.756931,2.4251 -1.508858,6.96022 -1.670958,10.07803 l -0.294717,5.66877 8.163976,-0.52795 c 4.490173,-0.29039 15.446944,-1.16269 24.348364,-1.93849 z m 27.648348,-23.99119 c 0,-0.7746 1.062102,-2.2413 2.360226,-3.25938 2.183221,-1.71218 2.21184,-1.64871 0.381641,0.8464 -1.088226,1.48357 -2.150327,2.95027 -2.360224,3.25937 -0.209899,0.30906 -0.381643,-0.0718 -0.381643,-0.84639 z m -9.440899,-1.34871 c 0,-0.77458 1.062101,-2.24129 2.360225,-3.25936 2.183222,-1.71219 2.211841,-1.64871 0.381642,0.84639 -1.088227,1.48357 -2.150328,2.95029 -2.360225,3.25936 -0.209899,0.30907 -0.381642,-0.0718 -0.381642,-0.84639 z m 62.531228,21.67539 c 0.47172,-3.44157 0.85766,-14.02692 0.85766,-23.523 l 0,-17.26563 -5.49357,3.59676 c -3.2557,2.13157 -4.76658,3.82991 -3.70894,4.16909 0.98157,0.31479 2.29711,1.23997 2.92341,2.05596 0.70665,0.92068 0.86691,0.63042 0.42233,-0.76495 -0.68688,-2.15591 2.724,-4.70547 4.25153,-3.17794 0.38837,0.38836 -0.10317,0.7061 -1.09215,0.7061 -0.98905,0 -1.46442,0.33384 -1.0564,0.74186 0.40804,0.40805 0.18491,2.98743 -0.49584,5.73198 -1.3431,5.41505 -1.65665,30.71973 -0.40572,32.74379 1.66558,2.69496 2.97869,0.96131 3.79769,-5.01402 z m -11.4471,-7.97093 c -0.16932,-7.0838 -0.83273,-13.20402 -1.47425,-13.60052 -0.64153,-0.39646 -0.75071,-2.03058 -0.24265,-3.63136 0.85111,-2.68161 0.72901,-2.75223 -1.55273,-0.89803 -1.43637,1.16725 -2.0511,1.30441 -1.46365,0.32661 0.55707,-0.92723 0.37011,-1.68588 -0.41544,-1.68588 -2.81082,0 -1.36351,-2.42126 1.94344,-3.25122 1.85446,-0.46546 3.37174,-1.44976 3.37174,-2.18738 0,-0.78882 -1.80507,-0.58771 -4.38326,0.48839 -2.41081,1.00623 -8.63169,2.63257 -13.82418,3.61411 -5.192494,0.98156 -10.281193,2.74582 -11.308215,3.92058 -1.685969,1.92852 -1.788322,1.90677 -1.05386,-0.22425 0.554787,-1.60969 0.120439,-2.36023 -1.365896,-2.36023 -1.929167,0 -2.072129,1.6585 -1.245323,14.44718 0.51372,7.94594 1.087444,14.6006 1.274954,14.78808 0.187509,0.18752 6.987829,0.7326 15.11184,1.2113 8.12399,0.4787 15.02378,1.10705 15.33285,1.39629 1.41466,1.32399 1.58314,-0.28361 1.29463,-12.35367 z m 4.09711,-3.97913 c 0.0407,-0.74178 -0.51417,-0.43832 -1.23324,0.67434 -0.71907,1.11268 -1.27404,2.93343 -1.23325,4.04611 0.0782,2.13614 2.32606,-2.16572 2.46649,-4.72045 z m 1.42822,-9.9899 c 0.78615,-2.74119 0.59177,-3.72189 -0.7377,-3.72189 -0.99281,0 -1.49253,0.50577 -1.11048,1.12392 0.38203,0.61816 0.20361,1.12513 -0.39651,1.12662 -0.60011,9.9e-4 -1.23088,2.27743 -1.4017,5.05762 -0.25484,4.14778 -0.0513,4.61353 1.1342,2.59527 0.79461,-1.35281 1.9251,-4.13452 2.51219,-6.18154 z M 73.471741,355.04732 c 0,-3.60539 -0.380777,-9.33333 -0.846174,-12.72876 l -0.846174,-6.17348 -6.908851,0.6591 c -26.049235,2.48514 -39.247977,5.01794 -49.743816,9.54573 -6.837827,2.94976 -5.711056,3.45708 2.314073,1.04187 8.542868,-2.57104 10.721949,-2.43084 4.780345,0.30757 -3.298016,1.51999 -4.050942,2.33869 -2.498628,2.71685 1.221989,0.2977 2.546426,1.78261 2.943187,3.29982 0.601777,2.30118 0.233379,2.6277 -2.221807,1.96923 -1.618765,-0.43413 -4.041124,-0.79763 -5.383027,-0.80775 -1.498338,-0.0109 -2.068473,-0.61926 -1.477487,-1.57551 0.636114,-1.02926 0.36516,-1.188 -0.799347,-0.46829 -1.096412,0.67762 -2.399513,0.21651 -3.450663,-1.22104 -1.205008,-1.64792 -1.968819,-1.85699 -2.665597,-0.7296 -1.29165,2.08996 1.299203,3.56543 9.48422,5.40117 8.791108,1.97167 36.625834,4.94781 48.216021,5.15533 l 9.103725,0.16301 z m 27.922799,3.21851 c 3.85989,-1.16891 7.81026,-2.91759 8.7786,-3.88593 0.96835,-0.96835 2.38667,-1.55195 3.15183,-1.29689 0.76514,0.25505 2.58049,-0.41927 4.03405,-1.49851 6.27348,-4.65785 -3.89631,-9.89124 -26.727527,-13.754 -7.886522,-1.3343 -14.697686,-2.06746 -15.13592,-1.62922 -0.438246,0.43824 -0.372834,6.41304 0.14535,13.27731 l 0.942148,12.48051 8.896766,-0.78399 c 4.893218,-0.4312 12.054843,-1.74036 15.914703,-2.90928 z m 2.84979,-5.92264 c 2.29118,-1.45285 2.98785,-5.97677 1.10706,-7.18886 -3.00884,-1.93906 0.29145,-2.42764 5.24802,-0.77693 6.99226,2.32868 7.18416,4.33249 0.66473,6.94105 -5.94512,2.37876 -10.11509,2.98749 -7.01981,1.02474 z m 34.9947,-124.56858 c 0.62584,-10.00255 0.0541,-8.2454 3.01645,-14.66097 0,-1.13006 -2.71868,-1.30497 -9.77807,-0.62904 -15.74128,1.50722 -17.40701,0.96378 -19.20535,10.72378 -0.8746,4.74662 0.27037,9.71568 -0.14491,10.79786 -0.88389,2.30339 2.47973,3.0116 15.73897,3.31388 l 8.8642,0.20207 1.50877,-9.74758 z m 32.6878,7.73851 c 18.28857,-0.68025 23.74118,-1.38272 41.0809,-5.29269 12.9412,-2.91813 18.40445,-4.81541 22.06866,-7.66397 l 3.1324,-2.43515 -7.1785,-2.03674 c -19.66903,-5.58069 -72.45369,-9.69718 -81.09691,-6.32448 -2.32711,0.90807 -3.46577,0.95921 -2.95498,0.13272 0.45707,-0.73955 0.25322,-1.34463 -0.45297,-1.34463 -0.7062,0 -1.63334,0.91037 -2.06033,2.02305 -0.56556,1.47384 0.21908,2.06637 2.89027,2.18261 l 3.66661,0.15958 -3.94969,0.85195 c -5.23156,2.22042 -7.3483,14.412 -7.51425,18.63625 0,3.3857 0.15953,3.44488 7.08067,2.62622 3.89436,-0.46064 15.27402,-1.14226 25.28812,-1.51474 z m -25.96247,-2.93025 c 0.92722,-0.37414 2.44451,-0.37414 3.37174,0 0.92724,0.37415 0.1686,0.68028 -1.68587,0.68028 -1.85447,0 -2.6131,-0.30613 -1.68587,-0.68028 z m -1.26441,-5.42289 c 0.97358,-0.38959 2.13685,-0.3417 2.58501,0.10641 0.44816,0.44816 -0.34842,0.76693 -1.77016,0.70836 -1.57117,-0.0648 -1.89074,-0.3843 -0.81485,-0.81482 z m 8.34508,-3.65485 c 0,-0.29152 0.94189,-0.89148 2.0931,-1.33325 1.20024,-0.46057 1.74161,-0.23447 1.2691,0.53005 -0.79204,1.28155 -3.3622,1.89552 -3.3622,0.8032 z m -40.85037,9.04032 c -1.56346,-4.25743 0.13843,-7.22552 1.09312,-11.54484 0.84253,-4.50845 0.64461,-5.05762 -1.82275,-5.05762 -3.95375,0 -4.8948,2.37575 -1.26121,3.18402 1.68001,0.37371 0.82122,0.54394 -1.90844,0.3783 -2.72966,-0.16567 -4.70896,0.10992 -4.39845,0.61231 0.31051,0.50243 -0.64243,1.22913 -2.11767,1.61492 -4.02525,1.05263 -3.36273,4.09589 0.72172,3.31511 1.87216,-0.3579 3.66522,-0.22793 3.98459,0.28881 0.31936,0.51672 -2.83338,1.07763 -7.00608,1.24644 -6.71186,0.27154 -7.387017,0.0664 -5.85483,-1.77988 0.95255,-1.14776 2.36382,-1.69628 3.13618,-1.21894 0.83573,0.5165 0.99828,0.21097 0.40147,-0.7547 -0.70399,-1.13907 -1.50638,-1.20464 -2.69271,-0.22008 -0.92945,0.77137 -1.937504,1.15796 -2.240151,0.85908 -0.302637,-0.29889 -3.562041,0.22294 -7.243101,1.1596 -6.299777,1.60302 -6.514774,1.79831 -3.661047,3.3256 4.061624,2.17372 21.553789,6.7041 26.243449,6.79695 2.32735,0.0461 4.08326,-0.79094 4.62591,-2.20508 z m -18.7453,-2.68807 c 0.9736,-0.38961 2.13684,-0.34169 2.58501,0.10641 0.44816,0.44816 -0.34842,0.76692 -1.77016,0.70836 -1.57118,-0.0647 -1.890751,-0.38429 -0.81485,-0.81483 z m -8.51367,-1.7761 c -2.408548,-1.03498 -2.308758,-1.16926 0.931925,-1.2539 1.99613,-0.0522 4.004426,0.51213 4.462875,1.2539 0.995125,1.61013 -1.647801,1.61013 -5.3948,0 z m 17.28014,-13.03044 c 12.93712,-3.2139 14.41431,-3.8889 14.41431,-6.58674 0,-4.83221 8.2385,-15.71983 15.08093,-19.93024 5.62827,-3.4633 7.82647,-3.95072 20.2305,-4.48586 l 13.91612,-0.60035 -9.04184,8.49264 c -4.97301,4.67096 -9.64397,10.11533 -10.37991,12.09862 l -1.33806,3.60595 18.47211,0.17101 c 33.42033,0.30942 51.71877,2.52091 74.96946,9.0606 2.38969,0.67216 2.48987,0.11342 1.59966,-8.92078 -1.24682,-12.65323 -2.82325,-16.94808 -9.19677,-25.05585 -6.91814,-8.80056 -18.97194,-17.10223 -31.42847,-21.64538 -9.37042,-3.41759 -10.05044,-3.93849 -10.87427,-8.32986 -0.48334,-2.57635 -0.11356,-10.84492 0.82169,-18.37462 2.92526,-23.55115 3.49684,-29.29869 2.96643,-29.82913 -0.28285,-0.28284 -2.73546,0.26944 -5.45028,1.22728 -16.22593,5.72484 -47.8075,5.69203 -62.81071,-0.0653 -2.69218,-1.03308 -2.67575,-0.80904 2.11988,28.90621 3.0222,18.72656 2.53245,25.7313 -1.96409,28.09144 -1.63456,0.85794 -7.37864,3.73733 -12.76466,6.39865 -15.60153,7.70899 -20.229871,11.15241 -25.344924,18.85622 -4.056606,6.10969 -5.095833,9.29529 -6.705115,20.55352 -1.047442,7.32777 -1.923691,13.76866 -1.947213,14.31308 -0.02346,0.54443 2.271062,-0.21614 5.099071,-1.69021 2.828021,-1.47402 11.628271,-4.29146 19.556151,-6.26096 z m 41.04725,-7.11036 c 0.18332,-0.0493 1.09369,-1.89262 2.02306,-4.0962 0.92935,-2.20358 4.93915,-7.36236 8.91066,-11.46395 3.9715,-4.10158 10.70817,-8.05753 9.83626,-8.05753 -12.02671,0.11733 -32.55719,-1.47667 -36.20104,8.47874 -1.62771,0.86722 -3.39049,2.27418 -3.9173,3.1266 0.27166,1.80502 1.97552,0.26492 -0.8543,3.33347 -2.02673,2.18148 -4.05008,5.79194 -4.49636,8.02326 l -0.8114,4.05697 12.58857,-1.65585 c 6.9237,-0.9107 12.73855,-1.69619 12.92185,-1.74551 z m 41.97235,-104.68568 7.23945,-2.1501 -0.80952,-7.655621 c -0.44523,-4.210601 -1.19146,-12.207488 -1.65829,-17.770875 l -0.84877,-10.115248 4.18719,-2.430737 c 5.63951,-3.273819 6.78479,-5.844927 7.74866,-17.395463 0.89322,-10.703647 -1.71414,-24.417389 -6.41355,-33.732915 -2.98678,-5.9206161 -6.84818,-7.2940781 -24.27237,-8.6334046 -8.06624,-0.6200243 -11.86919,-0.4249887 -12.52895,0.6425612 -0.52104,0.8430452 -3.49092,1.6046157 -6.59972,1.6923756 -5.33902,0.1507308 -5.42807,0.2166552 -1.60629,1.1891359 3.83144,0.974934 3.74785,1.038026 -1.57556,1.189121 -3.09191,0.0878 -6.68124,0.566171 -7.97627,1.063125 -1.60534,0.61602 -2.04428,0.401442 -1.37942,-0.674349 1.33267,-2.1562877 -2.27155,-2.0145932 -7.82986,0.307801 -6.9168,2.8900339 -9.56548,11.1606399 -9.54633,29.8087489 0.017,16.547969 1.27709,20.320282 7.51395,22.494467 l 3.94846,1.376444 -3.22515,3.832883 c -3.55769,4.228079 -5.6441,12.101601 -6.84811,25.842978 -0.72719,8.299672 -0.55388,9.167142 2.11734,10.596732 1.60013,0.85639 6.62113,1.83535 11.15775,2.1755 7.65356,0.57384 8.05961,0.46616 5.63041,-1.49301 -2.50466,-2.02003 -2.42823,-2.11145 1.76547,-2.11145 2.57887,0 4.04032,0.55523 3.54994,1.3487 -0.53142,0.85984 3.96171,1.41306 12.39587,1.52624 10.10545,0.13564 12.11474,0.43855 8.50897,1.28282 -3.78806,0.88697 -3.25528,0.99055 2.6974,0.52445 4.07982,-0.31945 10.67559,-1.54836 14.6573,-2.73091 z m -24.77256,-0.64418 -12.13829,-0.88056 13.48699,-0.12961 c 17.04222,-0.16381 16.5467,-0.10899 14.23145,-1.57376 -1.26343,-0.799308 0.16509,-0.964588 4.04609,-0.468138 7.30461,0.934408 8.62945,1.744978 2.85211,1.744978 -2.349,0 -4.27089,0.60691 -4.27089,1.3487 0,0.74178 -1.36557,1.23402 -3.03458,1.09384 -1.66901,-0.14017 -8.4968,-0.65112 -15.17288,-1.13542 z m -15.22389,-3.990148 c 2.01185,-0.60637 9.29483,-0.64069 16.18441,-0.0764 l 12.52649,1.02623 -16.1844,0.0764 c -10.35074,0.0488 -14.8659,-0.32113 -12.5265,-1.02622 z m 14.21237,-2.25629 c 0.92724,-0.374139 2.44453,-0.374139 3.37175,0 0.92724,0.37415 0.1686,0.68026 -1.68588,0.68026 -1.85445,0 -2.6131,-0.30611 -1.68587,-0.68026 z m 6.82779,-0.02807 c 0.97359,-0.389594 2.13684,-0.341689 2.58502,0.106421 0.44816,0.448159 -0.34843,0.766919 -1.77018,0.708369 -1.57116,-0.0648 -1.89074,-0.3843 -0.81484,-0.81485 z m -19.97844,-2.11326 c 4.6e-4,-0.556339 4.70442,-0.920596 10.45326,-0.809449 10.63838,0.205676 9.3791,0.741718 -3.37259,1.435623 -3.89484,0.211935 -7.08114,-0.06986 -7.08067,-0.626174 z m 28.32353,-2.360226 c 0,-0.741784 0.60692,-1.348699 1.3487,-1.348699 0.74179,0 1.3487,0.606915 1.3487,1.348699 0,0.741786 -0.60691,1.3487 -1.3487,1.3487 -0.74178,0 -1.3487,-0.606914 -1.3487,-1.3487 z m -18.54462,-0.966019 c 2.03991,-0.309014 5.37794,-0.309014 7.41784,0 2.03991,0.309028 0.37089,0.561855 -3.70892,0.561855 -4.07981,0 -5.74883,-0.252827 -3.70892,-0.561855 z m 1.99297,-5.402177 c 2.39425,-0.297955 6.64266,-0.30285 9.4409,-0.01079 2.79823,0.291953 0.83929,0.535732 -4.3532,0.541706 -5.1925,0.0053 -7.48197,-0.232893 -5.0877,-0.530835 z m 1.0416,-4.380146 8.0922,-0.853983 -7.41785,-0.692854 c -7.13733,-0.666649 -7.03533,-0.701972 2.6974,-0.934029 9.73372,-0.23207 9.96954,-0.165175 6.25216,1.773568 -2.2051,1.150036 -6.83587,1.917433 -10.78961,1.788011 l -6.9265,-0.226726 z m -0.31863,-6.403852 c 2.0501,-0.310013 5.08468,-0.301718 6.7435,0.01834 1.65883,0.320128 -0.0185,0.573764 -3.72748,0.563636 -3.70891,-0.0094 -5.06612,-0.272046 -3.01602,-0.582046 z m -6.36178,-2.97623 c -0.42375,-0.685639 0.29906,-1.525609 1.60628,-1.866602 1.80867,-0.471787 1.65145,-0.657355 -0.65784,-0.776419 -1.66902,-0.08604 -3.03458,-0.828304 -3.03458,-1.649446 0,-0.821142 -0.91038,-1.143657 -2.02305,-0.716687 -1.11267,0.426986 -2.02304,0.226907 -2.02304,-0.444597 0,-0.671505 -1.97249,-1.493119 -4.38329,-1.825817 -3.34818,-0.462064 -2.95009,-0.600334 1.68588,-0.585511 3.33803,0.01079 6.97952,-0.311806 8.0922,-0.716605 1.11268,-0.404798 3.71689,-1.107929 5.78713,-1.562536 2.07024,-0.454593 3.46191,-1.315482 3.09256,-1.913077 -0.36932,-0.597595 2.06866,-0.670682 5.41778,-0.162424 3.34909,0.508271 7.51733,0.65114 9.26275,0.317484 1.74541,-0.333655 4.28964,0.04221 5.65385,0.835291 2.03173,1.181137 1.38259,1.453103 -3.58877,1.503611 -3.33803,0.03398 -6.97952,0.70831 -8.09221,1.498661 -1.50549,1.069372 -0.5775,1.235856 3.62753,0.650776 3.21479,-0.44731 6.01067,-0.203572 6.48591,0.565402 0.80221,1.298002 -6.0097,1.952499 -14.4967,1.392883 -2.03992,-0.134465 -3.70894,0.363596 -3.70894,1.106904 0,0.743297 -1.06209,1.656906 -2.36021,2.030239 -1.29813,0.373334 0.37089,0.665017 3.70892,0.648172 9.55411,-0.04814 10.7896,0.131364 10.7896,1.568229 0,1.710015 -19.78809,1.806933 -20.84176,0.102096 z m 2.94339,-7.660414 c -0.44817,-0.448159 -1.61143,-0.496078 -2.58501,-0.106412 -1.07589,0.430545 -0.75632,0.750119 0.81485,0.814844 1.42173,0.05853 2.21832,-0.260205 1.77016,-0.708364 z m -16.83065,-2.848616 c 2.03991,-0.309014 5.37793,-0.309014 7.41785,0 2.03991,0.309029 0.37089,0.561855 -3.70893,0.561855 -4.07982,0 -5.74883,-0.252826 -3.70892,-0.561855 z m 7.41785,-2.707029 c 2.41079,-0.299169 6.35575,-0.299169 8.76654,0 2.41081,0.299182 0.43833,0.543956 -4.38327,0.543956 -4.8216,0 -6.79407,-0.244774 -4.38327,-0.543956 z m 17.54883,-2.675632 c 1.67764,-0.322609 4.10532,-0.31035 5.39479,0.02725 1.28947,0.337567 -0.0832,0.601507 -3.05029,0.586537 -2.96714,-0.01497 -4.02217,-0.291158 -2.3445,-0.613753 z m -16.17598,-1.372262 c 2.42409,-0.300167 6.06558,-0.293976 8.09221,0.01376 2.02661,0.307733 0.0433,0.553331 -4.40744,0.545751 -4.45071,-0.008 -6.10886,-0.259354 -3.68477,-0.559508 z m 7.05652,-2.923199 7.41784,-0.704264 -9.44089,-0.831137 -9.4409,-0.831136 10.45243,-0.238153 c 5.74883,-0.130959 10.45242,0.303808 10.45242,0.966235 0,1.929491 -3.79345,2.860445 -10.56273,2.592215 l -6.29601,-0.249496 z m 15.17287,0.273543 c 1.29813,-0.339225 3.42232,-0.339225 4.72045,0 1.29812,0.339239 0.23602,0.616802 -2.36022,0.616802 -2.59625,0 -3.65835,-0.277563 -2.36023,-0.616802 z m -1.32303,-2.702336 c 1.31225,-0.341962 3.13298,-0.319467 4.04611,0.0499 0.9131,0.369436 -0.16055,0.649224 -2.3859,0.621738 -2.22535,-0.02751 -2.97245,-0.329758 -1.66021,-0.671708 z M 155.4409,45.017532 c 3.1722,-0.2849 8.02752,-0.280895 10.7896,0.0094 2.76209,0.289809 0.16666,0.522919 -5.76763,0.518009 -5.93427,-0.0053 -8.19416,-0.242011 -5.02197,-0.526911 z m 0.63871,-4.039316 c 2.78169,-0.290969 7.33355,-0.290969 10.11525,0 2.78168,0.290968 0.50575,0.529042 -5.05764,0.529042 -5.56338,0 -7.83932,-0.238074 -5.05761,-0.529042 z m -1.68588,-5.086662 c 0,-1.572247 1.57784,-1.968887 7.08067,-1.779947 l 7.08067,0.24309 -6.7435,0.702038 -6.74349,0.702026 8.0922,0.851191 8.0922,0.851192 -8.42938,0.22673 c -6.69439,0.180064 -8.42937,-0.189668 -8.42937,-1.79632 z m 2.36023,-4.347399 c 2.4108,-0.299169 6.35575,-0.299169 8.76655,0 2.41079,0.299182 0.43833,0.543957 -4.38329,0.543957 -4.82159,0 -6.79406,-0.244775 -4.38326,-0.543957 z m -6.72778,-4.024332 c 1.67767,-0.322609 4.10532,-0.31035 5.3948,0.02724 1.28948,0.337566 -0.0832,0.601507 -3.0503,0.586537 -2.96714,-0.01497 -4.02216,-0.291159 -2.3445,-0.613754 z m 14.8357,0 c 1.67766,-0.322609 4.10532,-0.31035 5.3948,0.02724 1.28948,0.337566 -0.0832,0.601507 -3.0503,0.586537 -2.96713,-0.01497 -4.02216,-0.291159 -2.3445,-0.613754 z m -8.78227,-4.074707 c 2.78169,-0.290967 7.33355,-0.290967 10.11525,0 2.78168,0.290969 0.50575,0.529042 -5.05764,0.529042 -5.56338,0 -7.83932,-0.238073 -5.05761,-0.529042 z m -8.79663,-2.688309 c 2.39424,-0.297954 6.64265,-0.30285 9.44089,-0.01079 2.79824,0.291953 0.8393,0.535731 -4.35319,0.541705 -5.19249,0.0053 -7.48197,-0.232893 -5.0877,-0.530835 z m 6.13992,-4.06571 c 3.54587,-0.278749 9.0081,-0.275391 12.13829,0.0067 3.13021,0.282849 0.22905,0.510914 -6.44701,0.5068 -6.67607,-0.0041 -9.23713,-0.235536 -5.69128,-0.514272 z m -9.4816,-2.634092 c 1.29813,-0.339225 3.42233,-0.339225 4.72046,0 1.29812,0.33924 0.23602,0.616801 -2.36022,0.616801 -2.59626,0 -3.65836,-0.277561 -2.36024,-0.616801 z m 11.46395,-1.312217 c 0.92724,-0.374144 2.44452,-0.374144 3.37176,0 0.92723,0.374143 0.16858,0.680258 -1.68588,0.680258 -1.85446,0 -2.6131,-0.306115 -1.68588,-0.680258 z m -9.44089,-2.7560009 c 1.66902,-0.321477 4.40014,-0.321477 6.06914,0 1.66902,0.3214629 0.30346,0.5844729 -3.03457,0.5844729 -3.33803,0 -4.70359,-0.26301 -3.03457,-0.5844729 z m 16.18439,0.05866 c 0.92723,-0.3741569 2.44453,-0.3741569 3.37176,0 0.92722,0.374142 0.16858,0.680258 -1.68588,0.680258 -1.85446,0 -2.6131,-0.306116 -1.68588,-0.680258 z m 0.33718,-3.6024452 c 0,-1.2495301 1.04822,-2.2386665 2.36023,-2.2271892 1.34691,0.012138 1.7812,0.452799 1.01153,1.0272103 -0.7418,0.5536144 -1.8039,1.5558462 -2.36024,2.2271892 -0.55633,0.671342 -1.01152,0.209089 -1.01152,-1.0272103 z"
     id="path6752"
     inkscape:connector-curvature="0"
     sodipodi:nodetypes="csscsssccssssssscsssssssssssscssscsscccsssscccsssssssssccssscsssssssscccccssssssssssssssscscssssccscsssssssscssccsccccscsssscscsssssssscscssssssccsssssccsscscsscsscscscssssssscssscccccsssssssssscssscssscscscssscssscssssssssscsssscssssccscssssscssssssssssccssccssssssssscscsccsccccssccsccccsccccsccccsccccsccccscccsssscsssscscsscssssscccsssssssscsscssssscsccsscccsssccccsssssssssssssssscsccsssssccssssssccsscsssssscssssssscssssscsscccsscsssscssssscscsscscccsscsccccccccsssssscccscscssssscsscsssscsscscsccssscsssscssscssssssssssscsssssssssssscscscsccssscssssscssssssscssscsscsssssscscsssssssccssssccccsscsssssscccsccsssscccccssssccssscsssscsssssscccccccscsscssscsscssssssscssssssscscccssccccscscscsscssssssssssssscsssssssssssccssssssccsccsssssssssssssssssssssssccsccccssssccsssssssssssssscsssssssssssssssssssssssssssssssssccccsssccsssssssssssssssssscccccssssssssssssssssssccsccccsccszssssssssssssssscsss" />
  <path
     style="fill:#6bf3f3;fill-opacity:0.17699118;stroke:none"
     d="m 2.5217761,353.66779 -0.2828844,123.62034 14.7099733,6.50634 19.236118,3.39461 35.077627,1.98018 15.84151,0.84865 31.68302,-8.48652 6.50632,-8.76941 -1.98018,-73.54986 2.26308,-36.49206 -0.84865,-13.01265 -16.69016,-11.59826 -20.650546,-1.98018 -13.578437,-1.41442 -33.097439,3.96038 -29.137063,7.35498 -8.203637,5.94056 -1.1315363,3.6775"
     id="path7296"
     inkscape:connector-curvature="0" />
  <path
     style="fill:#dfb420;fill-opacity:0.65098039;stroke:none"
     d="m 1.9560086,402.88961 0,39.88667 13.0126674,4.24325 27.156872,4.80904 30.2686,2.54595 31.965892,-3.67749 18.95324,-11.59824 0,-37.90649 -9.90094,5.65768 -31.400135,3.11173 -45.544337,-0.56576 -19.236119,-2.26307 z"
     id="path7294"
     inkscape:connector-curvature="0" />
  <path
     style="fill:#6bf3f3;fill-opacity:0.17699118;stroke:#000000;stroke-width:1.34869993px;stroke-linecap:butt;stroke-linejoin:miter;stroke-opacity:1"
     d="m 1.3902397,355.36509 -0.2828843,43.84703 3.3946076,1.69731 9.900945,-2.82885 29.137061,-2.54595 31.683018,-1.69732 21.782083,1.9802 26.87397,3.96038 0.84867,-49.22184 -3.39461,-0.84864 -14.99285,7.63787 -25.742464,6.22345 -31.11725,-2.26308 -42.7155,-6.22345 z"
     id="path7302"
     inkscape:connector-curvature="0" />
  <path
     style="fill:#6bf3f3;fill-opacity:0.17699118;stroke:#000000;stroke-width:1.34869993px;stroke-linecap:butt;stroke-linejoin:miter;stroke-opacity:1"
     d="m 2.80466,476.43948 -0.2828839,-32.81456 13.2955519,4.80904 22.630727,4.52615 22.913612,1.69729 23.762264,-0.56576 21.499189,-3.39461 16.69016,-10.7496 0.84866,35.36051 -11.03249,8.20364 -16.97305,4.80903 -20.367643,1.98019 -19.801888,-1.13154 -28.571294,-2.82884 -26.0253353,-8.76941 z"
     id="path7298"
     inkscape:connector-curvature="0" />
  <path
     style="fill:#6bf3f3;fill-opacity:0.17699118;stroke:none"
     d="m 3.370428,476.43948 17.821697,-5.09192 24.893803,-3.67749 41.58396,0.56577 24.045142,4.80903 11.59825,1.41443 -7.35499,5.65767 -11.59825,5.65769 -18.104572,2.82883 -26.87399,0.84865 -28.005525,-2.54594 z"
     id="path7300"
     inkscape:connector-curvature="0" />
  <path
     style="fill:#ab6a09;fill-opacity:0.5;stroke:none;filter:url(#filter7574)"
     d="m 101.40387,312.49364 -0.62924,5.87288 14.05297,-0.83898 -1.88771,-6.29237 -2.30721,-8.18009 5.45339,0.62924 -0.20974,8.38983 2.3072,5.24364 10.69703,7.34111 40.27119,4.19491 10.0678,-0.83898 3.35593,-7.97034 -4.82415,-13.21398 -32.72034,2.51694 -36.49576,-8.59957 z"
     id="path7572"
     inkscape:connector-curvature="0"
     transform="matrix(1.3486999,0,0,1.3486999,-10.055504,-4.7092123)" />
</svg>
