<?xml version="1.0" encoding="UTF-8" standalone="no"?>
<!-- Created with Inkscape (http://www.inkscape.org/) -->

<svg
   xmlns:dc="http://purl.org/dc/elements/1.1/"
   xmlns:cc="http://creativecommons.org/ns#"
   xmlns:rdf="http://www.w3.org/1999/02/22-rdf-syntax-ns#"
   xmlns:svg="http://www.w3.org/2000/svg"
   xmlns="http://www.w3.org/2000/svg"
   xmlns:sodipodi="http://sodipodi.sourceforge.net/DTD/sodipodi-0.dtd"
   xmlns:inkscape="http://www.inkscape.org/namespaces/inkscape"
   id="svg9650"
   version="1.1"
   inkscape:version="0.48.4 r9939"
   width="325.88309"
   height="491.87567"
   sodipodi:docname="HeavyArmor.svg">
  <metadata
     id="metadata9656">
    <rdf:RDF>
      <cc:Work
         rdf:about="">
        <dc:format>image/svg+xml</dc:format>
        <dc:type
           rdf:resource="http://purl.org/dc/dcmitype/StillImage" />
        <dc:title />
      </cc:Work>
    </rdf:RDF>
  </metadata>
  <defs
     id="defs9654" />
  <sodipodi:namedview
     pagecolor="#ffffff"
     bordercolor="#666666"
     borderopacity="1"
     objecttolerance="10"
     gridtolerance="10"
     guidetolerance="10"
     inkscape:pageopacity="0"
     inkscape:pageshadow="2"
     inkscape:window-width="1267"
     inkscape:window-height="748"
     id="namedview9652"
     showgrid="false"
     inkscape:zoom="1"
     inkscape:cx="91.502004"
     inkscape:cy="237.09434"
     inkscape:window-x="-1"
     inkscape:window-y="22"
     inkscape:window-maximized="0"
     inkscape:current-layer="svg9650"
     fit-margin-top="0"
     fit-margin-left="0"
     fit-margin-right="0"
     fit-margin-bottom="0" />
  <path
     style="fill:#000000"
     d="m 172.19465,6.304165 c 2.26756,3.467304 8.2441,9.174395 13.28122,12.682414 28.08516,19.559568 36.51627,32.69324 36.59652,57.008712 0.0235,7.103179 -0.60081,13.312552 -1.38724,13.79858 -2.38122,1.471699 1.70374,28.063989 4.31106,28.063989 1.26212,0 2.8356,-0.87507 3.49661,-1.94462 1.71204,-2.77014 16.47228,-8.83127 21.50615,-8.83127 6.08906,0 16.0875,6.41243 18.60141,11.92986 1.1843,2.59926 3.72637,11.4725 5.64904,19.7183 1.92267,8.2458 7.41414,23.28869 12.20325,33.42866 11.5707,24.49863 15.51739,40.87261 14.04632,58.27526 -1.17071,13.84948 0.58355,20.45132 6.80673,25.61612 4.61224,3.82781 3.39051,7.2822 -2.57554,7.2822 -2.96337,0 -5.38795,0.69948 -5.38795,1.55439 0,0.8549 6.06144,6.56822 13.46986,12.69626 14.07375,11.64141 14.38246,12.05955 11.85239,16.05372 -1.71554,2.70829 -19.45643,1.68576 -28.15907,-1.62297 -2.51952,-0.95793 -5.35727,-1.74168 -6.30613,-1.74168 -2.43969,0 2.94848,10.06038 11.15068,20.81969 7.74928,10.16516 8.23551,11.50798 4.16698,11.50798 -6.26286,0 -22.41159,-9.58899 -33.24987,-19.74353 -6.33299,-5.93349 -11.68536,-10.78815 -11.8941,-10.78815 -0.20877,0 -0.91861,2.87332 -1.57743,6.38516 -0.65884,3.51184 -4.77661,11.24653 -9.15062,17.18821 -4.37402,5.94166 -9.27454,13.57484 -10.89004,16.9626 -2.721,5.70601 -2.71965,6.61592 0.0183,12.35757 1.6256,3.40892 5.00806,7.54284 7.51656,9.18646 2.50852,1.64365 4.5686,3.90572 4.57799,5.02687 0.009,1.12112 3.36704,7.29166 7.46146,13.7123 4.09443,6.42063 15.48239,27.02952 25.30657,45.79753 9.8242,18.76801 18.58941,34.39305 19.47826,34.7223 0.88885,0.32928 1.6161,1.71998 1.6161,3.09047 0,1.37048 2.56687,6.13346 5.70418,10.58437 5.5445,7.86606 5.61307,8.19325 2.44967,11.68875 -6.51243,7.19616 -21.79857,11.25432 -45.99858,12.21174 l -22.57888,0.89327 -8.99541,-6.46255 c -16.334,-11.73484 -29.14896,-31.66882 -50.97973,-79.30022 -10.25083,-22.36574 -12.2541,-27.48881 -11.17204,-28.57085 0.58455,-0.58458 -0.89031,-1.03146 -3.27745,-0.99309 -3.49695,0.0562 -6.2008,3.10972 -13.9152,15.71484 -11.73893,19.18101 -20.11709,33.30231 -29.52779,49.76873 -7.53245,13.17997 -26.641213,39.59518 -31.622443,43.71365 -4.782983,3.95457 -25.065272,1.14758 -43.694918,-6.04719 -19.557126,-7.55297 -35.958101,-16.08968 -40.383095,-21.01942 -3.1758878,-3.53815 -2.9951038,-3.84178 8.704476,-14.62006 16.068486,-14.80316 36.197974,-38.96926 43.834649,-52.6249 3.433989,-6.14055 8.139119,-13.43191 10.455828,-16.20301 2.316726,-2.77109 5.933366,-8.42981 8.036981,-12.57494 2.103616,-4.14514 4.924743,-8.1861 6.269179,-8.97991 3.609097,-2.13098 6.56191,-8.59594 6.55242,-14.3461 -0.005,-3.57598 -3.479603,-9.26491 -11.861036,-19.42487 -13.295326,-16.1166 -20.458276,-30.09943 -20.458276,-39.93674 l 0,-6.60867 -7.632921,7.31623 c -12.406246,11.8915 -46.2776508,32.94325 -53.0043373,32.94325 -2.25474714,0 -2.20593234,-0.61592 0.3202415,-4.04096 2.89329,-3.9228 13.6214958,-25.46291 13.6214958,-27.34928 0,-0.51559 -2.020479,-0.93743 -4.489954,-0.93743 -5.0599088,0 -5.5444458,-2.42266 -1.7959818,-8.97991 3.6951428,-6.46397 3.2758168,-8.97991 -1.496645,-8.97991 -6.97453214,0 -6.81662944,-2.01879 0.576815,-7.37457 9.4899848,-6.87451 11.0740228,-13.70641 10.4813848,-45.20581 -0.462142,-24.56272 -0.291542,-25.95265 4.43708,-36.15266 2.704731,-5.83432 10.695376,-17.7554 17.756996,-26.49125 7.06162,-8.73587 16.192947,-21.74256 20.291862,-28.90375 6.270203,-10.95461 8.127248,-12.94325 11.705077,-12.53441 6.604794,0.75469 15.388293,8.4671 21.903429,19.23245 3.26648,5.39737 6.453493,9.83637 7.082203,9.86439 0.62874,0.028 1.58668,-2.17159 2.1288,-4.88803 0.5421,-2.71641 1.88054,-8.97991 2.97427,-13.91886 1.09375,-4.93895 2.26926,-20.69867 2.61226,-35.02164 0.34297,-14.322935 0.96482,-27.474585 1.38188,-29.225865 1.68368,-7.070295 14.43947,-20.534068 26.76021,-28.245528 7.10194,-4.445055 16.79891,-11.768529 21.5488,-16.274377 L 168.07182,0 l 4.12283,6.304183 z m -6.02423,3.405756 c 1.23634,0.412106 -1.02256,2.367373 -5.01975,4.345018 -3.99721,1.977663 -6.83392,4.297496 -6.30386,5.155185 0.53009,0.857689 -1.28177,2.12303 -4.02635,2.811879 -7.31239,1.835296 -24.26224,13.678178 -21.77586,15.214838 1.24849,0.771625 0.35409,1.592766 -2.27445,2.08817 -3.84502,0.724678 -3.72629,0.859502 1.05584,1.199087 5.28632,0.375396 5.25516,0.422666 -1.65204,2.506705 -9.57836,2.890004 -10.65324,6.640606 -1.60936,5.615711 l 6.85336,-0.77669 -7.15291,1.827142 c -11.31925,2.891387 -12.46927,5.896585 -1.827,4.774294 l 8.97991,-0.946986 -8.53091,1.936123 c -5.19219,1.178361 -8.53092,2.919996 -8.53092,4.450101 0,1.696681 1.16777,2.14336 3.59197,1.373944 2.06055,-0.653989 3.59196,-0.322738 3.59196,0.776959 0,1.054367 -2.02048,1.917013 -4.48995,1.917013 -3.81727,0 -4.48996,0.828612 -4.48996,5.530653 0,5.237729 0.29174,5.466555 5.50857,4.320755 3.9254,-0.862161 6.454,-0.354293 8.79813,1.767138 2.42772,2.197042 5.337,2.727126 11.10427,2.023263 l 7.81469,-0.953774 -5.9716,2.241313 -5.97162,2.241278 11.35956,5.333544 c 6.24776,2.933467 11.89092,6.068442 12.54037,6.966667 1.72337,2.383465 -0.25726,6.898369 -4.58417,10.449809 -3.77136,3.0955 -3.7678,3.10313 1.45771,3.14297 2.88104,0.0219 4.73384,0.54436 4.11732,1.16089 -0.61652,0.61652 0.66311,2.57612 2.84363,4.35464 3.79195,3.09288 4.12101,3.0955 7.55656,0.06 3.44709,-3.04563 16.30666,-8.50116 29.68207,-12.59222 3.48384,-1.06561 9.20873,-4.306821 12.72196,-7.202715 5.91003,-4.871564 6.4169,-6.074782 6.77836,-16.091097 0.21485,-5.954218 -0.62756,-14.224336 -1.87205,-18.378065 -2.91647,-9.73431 -18.0726,-26.15831 -32.61344,-35.341685 -6.12205,-3.866425 -12.25718,-9.134146 -13.63362,-11.706064 -1.37644,-2.571899 -3.35126,-4.151699 -4.38847,-3.510677 -1.23971,0.766184 -1.11566,1.422238 0.36205,1.914822 z m -28.46653,51.078057 c 0,0.766956 -3.23277,1.394454 -7.18393,1.394454 -3.95116,0 -7.18393,-0.319182 -7.18393,-0.709341 0,-0.390159 3.23277,-1.017657 7.18393,-1.394454 3.95116,-0.376796 7.18393,-0.05765 7.18393,0.709341 z m -8.08192,6.782399 c -5.25197,1.336408 -5.20664,1.379943 1.79598,1.725274 3.95116,0.194864 6.11745,0.780677 4.81397,1.301817 -1.30347,0.52114 -6.96081,0.321732 -12.57187,-0.443104 l -10.20192,-1.390629 7.18393,-1.391167 c 9.31215,-1.803292 16.24404,-1.650597 8.97991,0.197809 z m 15.60259,6.614798 c -1.29647,0.518805 -2.8455,0.45503 -3.44231,-0.141703 -0.59678,-0.596787 0.46398,-1.021267 2.35723,-0.943286 2.09223,0.08621 2.51779,0.511747 1.08508,1.085079 z m -12.90862,0.569128 c 2.30227,1.487846 2.23699,1.744976 -0.44899,1.768486 -1.72864,0.01437 -3.14297,-0.780696 -3.14297,-1.768486 0,-2.190397 0.20257,-2.190397 3.59196,0 z m 74.2466,3.142968 c 0.45284,0.740843 1.10668,3.721975 1.45298,6.624712 0.80069,6.711511 -5.09627,10.45484 -23.79566,15.105177 -14.32997,3.56371 -16.89302,2.69945 -15.65343,-5.2785 0.43166,-2.778204 3.73895,-4.715152 13.84555,-8.108821 7.30312,-2.452287 14.95873,-5.635646 17.01245,-7.074138 4.1872,-2.93282 5.9313,-3.242752 7.13811,-1.26843 z m -16.77519,9.445175 c -5.43284,2.159022 -11.69633,4.637656 -13.91885,5.508078 -7.15963,2.803941 -4.76365,5.685376 3.59196,4.319736 12.58742,-2.057284 24.69475,-7.966818 24.69475,-12.053376 0,-2.149844 -0.8904,-3.193507 -2.24498,-2.631454 -1.23474,0.512321 -6.69003,2.697977 -12.12288,4.857016 z m -44.56279,-5.973345 c -1.29647,0.518805 -2.8455,0.45503 -3.44231,-0.141703 -0.59678,-0.596786 0.46398,-1.021249 2.35723,-0.943285 2.09223,0.08621 2.51779,0.511747 1.08508,1.085078 z m -30.63934,-1.780087 c 1.67484,2.064768 1.74533,2.606436 0.2199,1.689983 -1.26832,-0.761981 -2.24498,-0.46401 -2.24498,0.684933 0,3.233539 6.18037,1.165054 6.846,-2.291295 0.42376,-2.200365 -0.56315,-3.12235 -3.34225,-3.12235 -3.47814,0 -3.65265,0.35864 -1.47867,3.038729 z m 17.59918,12.653642 c 9.20798,5.348884 21.68332,7.900364 21.68332,4.434674 0,-0.78359 -5.64491,-4.12061 -12.54425,-7.415626 -6.89935,-3.294962 -13.55287,-7.206179 -14.7856,-8.691545 -1.93693,-2.333842 -2.38542,-2.11942 -3.30211,1.578686 -0.9208,3.714646 0.26004,5.046618 8.94864,10.093811 z m -16.28233,-1.16992 c 4.51231,3.658199 8.38323,4.630292 6.53597,1.641383 -0.61049,-0.987789 -2.1881,-1.795981 -3.50581,-1.795981 -1.31771,0 -2.90541,-1.327967 -3.52824,-2.951013 -0.62283,-1.623083 -1.71953,-2.36168 -2.43713,-1.641402 -0.71758,0.720314 0.60325,2.856455 2.93521,4.747013 z m 91.6646,8.917394 c -3.97172,2.02622 -12.27447,5.2448 -18.45056,7.15242 -7.01987,2.1682 -13.87971,5.87843 -18.29987,9.89766 l -7.07063,6.42934 7.65989,-0.84257 c 4.21294,-0.46341 10.9776,-2.57188 15.03256,-4.68544 4.05499,-2.11357 7.81441,-3.40114 8.3543,-2.86127 0.53987,0.53991 -0.0959,0.98161 -1.41304,0.98161 -1.31705,0 -1.8319,0.56275 -1.1441,1.25056 1.85279,1.85279 -11.25646,7.72935 -17.24241,7.72935 -3.49245,0 -4.75132,0.68269 -3.87463,2.10119 0.93775,1.5173 0.34335,1.64537 -2.13898,0.46085 -1.89069,-0.9022 -8.28676,-1.56513 -14.21349,-1.47319 -6.12421,0.095 -8.87861,-0.32308 -6.38073,-0.96843 4.04385,-1.04481 3.82853,-1.29807 -2.69397,-3.16836 -3.89902,-1.11804 -9.90595,-2.61197 -13.34872,-3.31991 -3.44279,-0.70791 -8.09393,-2.48904 -10.33589,-3.958 -3.27203,-2.14392 -4.60605,-2.23126 -6.76128,-0.44259 -3.73475,3.0996 -3.35026,5.38049 0.90699,5.38049 1.97558,0 3.59196,0.7703 3.59196,1.71172 0,2.38271 12.42525,8.04362 16.9131,7.70558 2.68537,-0.20229 3.0274,0.13452 1.25137,1.23212 -1.34923,0.83386 -5.23441,0.74005 -8.6733,-0.2095 -3.42609,-0.94598 -9.58981,-1.20967 -13.69714,-0.58594 -5.45169,0.82786 -6.74057,0.62791 -4.77394,-0.7405 1.65124,-1.14898 1.86606,-1.88519 0.555,-1.90205 -1.17644,-0.0144 -2.71425,0.90332 -3.41736,2.04095 -1.52544,2.46822 4.40396,7.28068 6.99641,5.67846 0.99488,-0.61489 1.28455,-0.26957 0.64371,0.76734 -0.64084,1.03689 0.0162,2.33876 1.46098,2.893 1.44438,0.55426 3.11197,0.22168 3.70574,-0.73908 0.59378,-0.96078 2.034,-1.15597 3.20049,-0.43377 1.16647,0.72218 6.97003,2.27258 12.89676,3.44532 l 10.77589,2.13221 -8.08191,0.37173 -8.08192,0.37168 10.77589,2.3594 10.77589,2.35942 -10.77589,-1.00026 c -5.92674,-0.55013 -14.81089,-2.03653 -19.74254,-3.3031 -6.79363,-1.74474 -9.28965,-1.79512 -10.2994,-0.2079 -0.89075,1.40015 -1.34185,1.11629 -1.36024,-0.85591 -0.0366,-3.92361 -4.80005,-5.70028 -4.87131,-1.8169 -0.074,4.03275 3.02947,7.68502 5.32481,6.26643 1.04602,-0.64648 1.3372,-0.29368 0.66083,0.8007 -2.08,3.36553 10.04881,10.56777 21.30794,12.65292 12.99639,2.40689 39.163,4.35298 29.63369,2.20396 -5.84906,-1.31908 -5.5994,-1.43619 3.59197,-1.68521 25.79942,-0.69896 53.77372,-12.01817 55.15203,-22.31611 l 0.67577,-5.04904 -5.29338,3.91357 c -2.91138,2.15246 -6.20384,3.35089 -7.31662,2.66315 -1.26742,-0.7833 0.17834,-2.72897 3.87022,-5.20847 4.03261,-2.70832 6.07884,-5.64096 6.48064,-9.28799 0.47403,-4.30287 0.14529,-4.89734 -1.70619,-3.08496 -1.26135,1.23474 -3.95017,2.21592 -5.97514,2.18039 -3.35365,-0.0589 -3.24162,-0.42496 1.25719,-4.10843 3.27549,-2.68187 4.93895,-5.75862 4.93895,-9.13522 0,-3.88651 -0.53463,-4.64768 -2.25913,-3.21648 -1.24253,1.0312 -5.78998,3.09139 -10.10541,4.57817 -4.31546,1.48681 -7.13776,2.09814 -6.27179,1.35855 0.86597,-0.73958 5.00932,-3.981 9.20743,-7.20316 4.1981,-3.22213 7.63292,-7.00282 7.63292,-8.40149 0,-3.306098 -0.58664,-3.23302 -9.16041,1.14099 z m -65.82183,24.44514 c -1.23473,0.4982 -3.25521,0.4982 -4.48995,0 -1.23474,-0.49824 -0.2245,-0.9059 2.24498,-0.9059 2.46947,0 3.47971,0.40766 2.24497,0.9059 z m 64.54309,1.83337 c -1.29646,0.51881 -2.8455,0.45503 -3.4423,-0.1417 -0.59679,-0.59679 0.46397,-1.02125 2.35723,-0.94329 2.09222,0.0862 2.51778,0.51175 1.08507,1.08506 z m -19.19455,0.50667 c -2.71367,1.35133 -1.39625,1.59691 5.38795,1.00434 6.98028,-0.6097 7.78013,-0.44928 3.59196,0.72037 -7.65311,2.13736 -19.97229,2.31714 -17.87002,0.26081 0.9384,-0.91789 4.13076,-2.14258 7.09413,-2.72157 4.39475,-0.85862 4.7258,-0.72294 1.79598,0.73605 z m -24.72893,1.30707 c -1.74744,0.45534 -4.17201,0.4254 -5.38795,-0.0666 -1.21593,-0.49197 0.21378,-0.86451 3.17715,-0.82791 2.96337,0.0366 3.95824,0.4391 2.2108,0.89447 z m 10.36108,4.14333 c 1.31286,2.12426 -0.44454,2.12426 -5.38795,0 -3.46309,-1.48813 -3.45077,-1.54802 0.343,-1.66974 2.16423,-0.0695 4.43446,0.68195 5.04495,1.66974 z m -32.8098,2.09854 c -1.04365,1.04362 -2.95766,1.54415 -4.25335,1.11225 -1.34511,-0.44835 -0.53099,-1.26245 1.89754,-1.89753 2.98735,-0.7812 3.68855,-0.54748 2.35581,0.78528 z m -8.5105,-0.3231 c 0.62921,1.01805 -0.0918,1.31913 -1.68998,0.70584 -3.11139,-1.19397 -3.68067,-2.48128 -1.09727,-2.48128 0.92949,0 2.18377,0.79896 2.78725,1.77544 z m 36.29211,6.15066 c 0.78992,1.39598 3.8608,2.89128 6.82417,3.32289 3.59257,0.52322 2.34579,0.87438 -3.74162,1.05379 -9.92311,0.29248 -11.79898,-0.51713 -10.29276,-4.44227 0.80566,-2.0995 1.49671,-2.14903 3.81297,-0.27342 2.18699,1.77095 2.52291,1.78135 1.48025,0.0458 -0.74181,-1.23474 -0.9371,-2.24498 -0.434,-2.24498 0.50311,0 1.56105,1.14219 2.35099,2.53817 z m -13.49287,2.28067 c -1.29647,0.51882 -2.8455,0.45503 -3.44231,-0.14171 -0.59678,-0.59677 0.46398,-1.02125 2.35723,-0.94328 2.09222,0.0862 2.51778,0.51174 1.08508,1.08506 z m 7.18392,8.9799 c -1.29647,0.51881 -2.8455,0.45502 -3.44231,-0.1417 -0.59678,-0.59679 0.46398,-1.02127 2.35723,-0.94329 2.09223,0.0862 2.51779,0.51175 1.08508,1.08507 z m -7.07168,-0.0374 c -1.23473,0.49822 -3.25521,0.49822 -4.48995,0 -1.23474,-0.49823 -0.2245,-0.90588 2.24498,-0.90588 2.46947,0 3.47971,0.40765 2.24497,0.90588 z m -28.7357,0 c -1.23474,0.49822 -3.25522,0.49822 -4.48995,0 -1.23474,-0.49823 -0.2245,-0.90588 2.24497,-0.90588 2.46948,0 3.47972,0.40765 2.24498,0.90588 z m 12.27253,1.33448 c 0.41159,0.40033 5.59749,1.20618 11.52423,1.79076 5.92673,0.58457 11.58407,1.19048 12.57186,1.34646 0.98779,0.15607 7.45333,-0.20617 14.36786,-0.80483 9.41382,-0.81503 10.99285,-0.671 6.28594,0.57337 -3.45727,0.91399 -15.58015,1.99206 -26.93973,2.39571 -11.35958,0.40365 -17.42102,0.30771 -13.46986,-0.21322 l 7.18393,-0.94713 -10.77589,-2.20428 c -5.92674,-1.21236 -8.68806,-2.30792 -6.13628,-2.43456 2.5518,-0.12661 4.97638,0.0973 5.38794,0.49767 z M 115.00561,99 c 0.56857,1.48169 0.20325,2.69398 -0.81184,2.69398 -1.01509,0 -1.36795,0.7729 -0.78411,1.71755 0.58382,0.94465 2.2479,1.26227 3.69796,0.70584 1.64392,-0.63084 2.63645,0.0749 2.63645,1.87443 0,1.58736 0.80819,2.8861 1.79598,2.8861 0.98779,0 3.47021,1.67424 5.5165,3.72052 3.3334,3.33342 9.25139,5.06929 28.15815,8.25947 6.03224,1.01784 7.65061,-1.05505 3.50798,-4.49311 -5.51908,-4.58044 -36.2283,-18.46171 -44.10971,-19.9386 -0.35263,-0.0661 -0.17601,1.09214 0.39264,2.57382 z m -39.103125,13.7287 c 0.698458,1.13013 1.204709,4.34887 1.124985,7.15272 -0.07974,2.80385 0.674553,5.60439 1.676172,6.22345 1.037072,0.64091 1.584199,-0.3122 1.270819,-2.2138 -0.302677,-1.83661 0.159124,-4.47212 1.026206,-5.85671 1.065555,-1.70148 0.50318,-3.30229 -1.735062,-4.93895 -4.050406,-2.96174 -5.033167,-3.06889 -3.36312,-0.36671 z m 160.310815,2.9084 c -1.2161,-0.26028 -2.50525,0.86254 -2.86481,2.49516 -0.60528,2.7484 -0.18058,2.75395 5.73028,0.0749 3.51121,-1.59155 6.38401,-3.56194 6.38401,-4.37868 0,-0.81672 -1.58364,-0.63743 -3.51921,0.39844 -1.93556,1.03589 -4.51418,1.67048 -5.73027,1.41019 z m 20.18489,5.98845 c -4.50084,15.02247 -18.47255,34.87609 -30.75173,43.69779 l -8.66584,6.22579 6.0931,12.11043 c 3.35121,6.66072 7.36873,17.71894 8.92784,24.57379 3.18959,14.02358 9.66604,24.60882 21.06981,34.43696 14.25242,12.28322 21.56103,15.52037 37.50877,16.61346 l 14.58885,0.99993 -2.952,-4.50531 c -2.58171,-3.94019 -4.60731,-4.63051 -16.14852,-5.50338 -25.24651,-1.90938 -37.19406,-12.47357 -45.17899,-39.94785 -4.63089,-15.93375 -9.25434,-25.82656 -15.27481,-32.68349 -5.58283,-6.35849 -5.5989,-9.49837 -0.0487,-9.49837 5.0167,0 16.51944,-10.00757 23.72935,-20.64492 6.53671,-9.64413 14.70922,-30.25787 12.76631,-32.20082 -2.22334,-2.22332 -3.54401,-0.74819 -5.66349,6.32599 z M 71.252563,121.44977 c 0,2.84679 0.821375,5.68362 1.825274,6.30406 1.0039,0.62044 1.283121,2.00528 0.620494,3.07747 -0.755587,1.22254 -0.359951,1.42724 1.06112,0.54896 1.619257,-1.00078 1.966402,-0.4393 1.216472,1.96749 -0.577175,1.85234 -0.189548,4.58017 0.861389,6.06184 1.530697,2.15812 1.734702,1.89057 1.025595,-1.34519 -0.486855,-2.22154 -0.126437,-4.50808 0.800774,-5.08114 0.940017,-0.58096 0.06142,-3.67066 -1.985924,-6.98324 -2.215361,-3.58453 -3.186143,-7.20704 -2.447348,-9.13232 0.838956,-2.18627 0.562914,-2.78219 -0.876655,-1.8925 -1.15566,0.71427 -2.101191,3.6278 -2.101191,6.47457 z m 170.618257,-1.79598 c 0,0.98779 0.76049,1.79598 1.68998,1.79598 0.92949,0 2.18948,-0.80819 2.79997,-1.79598 0.61049,-0.98779 -0.14996,-1.79598 -1.68998,-1.79598 -1.53998,0 -2.79997,0.80819 -2.79997,1.79598 z m -159.475646,2.24498 c 0.3391,2.22252 1.607601,3.83891 2.818883,3.59196 1.211282,-0.24695 2.202341,1.11969 2.202341,3.03697 0,1.91728 0.808191,3.98546 1.795981,4.59595 2.866351,1.7715 2.075922,-5.98507 -1.104546,-10.83907 -3.622513,-5.52862 -6.527262,-5.72482 -5.712659,-0.38581 z m -17.44674,4.57564 c 1.329081,7.08461 11.709549,28.63488 17.688192,36.72144 2.10586,2.84831 6.467348,6.80945 9.69223,8.80254 4.142661,2.5603 5.863431,4.96912 5.863431,8.20798 0,5.29536 -12.472176,30.60798 -19.481389,39.53794 -6.486313,8.26381 -26.652888,20.40821 -45.527882,27.41708 -8.590881,3.19007 -17.005467,7.33129 -18.699078,9.2027 -2.97745,3.29006 -2.876678,3.36211 3.047924,2.17922 9.988532,-1.99427 42.693536,-16.14648 49.816866,-21.55688 17.270985,-13.1179 29.168039,-30.50496 36.180212,-52.87596 1.97831,-6.31136 3.60734,-11.57625 3.62009,-11.69972 0.0126,-0.12339 -2.39647,-0.70843 -5.35382,-1.2999 -12.757077,-2.5514 -34.13461,-32.18309 -34.13461,-47.3144 0,-3.98099 -0.690429,-5.72391 -1.957279,-4.94097 -1.207905,0.74655 -1.496914,3.66353 -0.754887,7.61893 z m 180.664006,-2.0874 c -2.46466,2.15636 3.38101,0.15374 6.24201,-2.13833 3.2872,-2.63358 3.22989,-2.67097 -1.00372,-0.65471 -2.46948,1.17608 -4.8267,2.43294 -5.23829,2.79304 z m -20.0213,2.26328 c -0.65014,-1.05196 -0.77697,2.30336 -0.28184,7.45628 0.71611,7.45277 0.29785,9.70605 -2.04501,11.01718 -3.16876,1.77334 -4.06768,6.85771 -1.21245,6.85771 0.95302,0 2.6314,-1.67907 3.7297,-3.73126 1.09829,-2.0522 3.07563,-3.31731 4.3941,-2.81136 1.85789,0.71293 2.05868,-0.2604 0.89257,-4.32643 -0.87819,-3.06209 -0.81199,-5.67442 0.15894,-6.27453 0.91502,-0.56554 1.66367,-1.83641 1.66367,-2.8242 0,-0.98779 -0.80819,-1.2965 -1.79598,-0.68601 -4.50402,2.78363 -1.18224,-2.19904 3.59196,-5.38795 2.9577,-1.97557 5.37994,-4.22723 5.38278,-5.00369 0.004,-0.77646 -2.98769,0.62197 -6.64562,3.10761 -4.26544,2.89842 -7.07477,3.83332 -7.83291,2.60665 z m 1.91183,-3.40454 c 0,0.98779 0.35639,1.79598 0.79199,1.79598 0.4356,0 1.29149,-0.80819 1.90198,-1.79598 0.61049,-0.98779 0.25409,-1.79598 -0.79199,-1.79598 -1.04609,0 -1.90198,0.80819 -1.90198,1.79598 z m 35.91821,2.24498 c -7.7e-4,1.23474 -2.36046,7.23154 -5.24375,13.32622 -5.07995,10.73801 -17.89677,25.63166 -27.0825,31.47093 l -4.48995,2.85423 3.75794,4.23652 c 4.13302,4.65937 9.39741,17.25473 15.28131,36.56153 4.9264,16.16495 14.26541,26.12464 28.44513,30.33555 5.35754,1.59103 12.31722,2.89277 15.46596,2.89277 5.22029,0 5.82311,-0.5937 6.83818,-6.73493 1.87137,-11.32183 1.24391,-27.784 -1.44388,-37.88206 -1.40471,-5.27744 -6.98118,-19.0167 -12.39215,-30.53169 -5.5959,-11.90854 -11.12091,-26.93816 -12.81302,-34.85519 -1.63619,-7.65537 -3.72797,-13.91886 -4.64837,-13.91886 -0.92043,0 -1.67413,1.01024 -1.6749,2.24498 z m -26.34897,5.20258 c 0.55149,2.10897 -0.1083,3.94566 -1.62673,4.52834 -1.40501,0.53915 -2.55457,1.72064 -2.55457,2.6255 0,0.90489 2.02048,0.32138 4.48996,-1.29669 4.14792,-2.71783 6.72508,-7.71416 2.69397,-5.22279 -0.98779,0.61051 -1.79598,0.2541 -1.79598,-0.79199 0,-1.04609 1.21228,-1.90198 2.69397,-1.90198 1.48168,0 2.69397,0.94289 2.69397,2.09532 0,1.1524 0.37204,1.72326 0.82676,1.26855 0.45471,-0.45472 0.3655,-2.59059 -0.19826,-4.74638 -0.85781,-3.28033 -1.60611,-3.60862 -4.58797,-2.01278 -2.35574,1.26076 -3.24859,3.10903 -2.63512,5.4549 z m -156.423807,6.95018 c -0.139189,9.46639 0.46999,11.49426 4.914631,16.36055 l 5.073523,5.55477 1.216957,-5.54083 c 0.669344,-3.04746 0.7053,-6.36875 0.07992,-7.38064 -0.625379,-1.0119 -0.194702,-1.83981 0.957061,-1.83981 1.151762,0 1.678342,-1.08353 1.170152,-2.40783 -0.50819,-1.32433 -0.20293,-3.54685 0.67834,-4.93895 1.15087,-1.81797 1.61007,-1.03837 1.62982,2.76703 0.0198,3.8091 0.57522,4.75042 1.97632,3.34932 1.4011,-1.40109 1.091,-3.60762 -1.10331,-7.85097 -2.61554,-5.05789 -3.29356,-5.47074 -4.739991,-2.8861 -0.928325,1.65882 -1.192334,3.81784 -0.586693,4.7978 0.605659,0.97996 0.380012,1.78176 -0.501456,1.78176 -0.88145,0 -1.687253,1.01024 -1.790665,2.24497 -0.628055,7.49869 -1.353416,9.72824 -3.164915,9.72824 -1.119256,0 -2.073443,-0.87554 -2.120408,-1.94566 -0.04706,-1.07009 -0.641596,-3.56202 -1.321375,-5.5376 -0.824805,-2.39708 -0.319685,-2.09835 1.518412,0.89799 l 2.754389,4.48996 0.06358,-4.93895 c 0.03502,-2.71643 -0.650289,-4.93895 -1.522866,-4.93895 -0.872578,0 -2.009201,-1.61639 -2.525833,-3.59197 -1.298225,-4.96439 1.607098,-4.54706 3.125762,0.449 0.686371,2.25805 1.621125,3.09877 2.118612,1.9055 0.939927,-2.25455 -4.218384,-11.3344 -6.439115,-11.3344 -0.71613,0 -1.373531,4.8626 -1.460905,10.80577 z M 57.55163,132.67466 c -0.754114,2.22252 -1.178972,5.25324 -0.944129,6.73493 0.321732,2.02989 0.04706,2.13535 -1.113976,0.42782 -1.126637,-1.65687 -2.957568,-0.51931 -6.809805,4.23095 -2.897888,3.5734 -7.944794,9.77984 -11.215384,13.7921 -6.354776,7.79587 -13.351794,20.10359 -9.165325,16.12177 1.298207,-1.23473 3.613066,-2.18116 5.14414,-2.10318 1.866366,0.095 2.040253,0.44154 0.527605,1.05138 -1.240897,0.50027 -1.722166,1.77363 -1.069489,2.82968 0.701385,1.13488 0.33874,1.39604 -0.886802,0.6386 -1.140412,-0.70482 -2.073478,-0.37789 -2.073478,0.72649 0,1.10439 -0.933067,1.43131 -2.073479,0.72649 -1.294975,-0.80034 -1.585528,-0.49197 -0.773888,0.82129 0.714764,1.15652 2.051926,1.63781 2.971469,1.06949 0.919525,-0.56831 1.671879,-0.22508 1.671879,0.76271 0,0.98779 -0.808191,2.29547 -1.795981,2.90596 -0.98779,0.61049 -1.746107,4.4971 -1.68517,8.63691 l 0.110812,7.52692 2.86838,-8.60487 c 1.577627,-4.73268 3.521759,-7.95151 4.320324,-7.15295 1.903184,1.90319 -0.158585,9.72576 -2.226586,8.44771 -1.712576,-1.05845 -2.352592,3.82233 -1.717785,13.09998 0.217889,3.18443 -0.16972,6.70553 -0.861424,7.82468 -1.970515,3.18837 -4.397731,-2.03241 -3.400207,-7.31369 0.734521,-3.88889 0.626349,-4.01371 -0.790968,-0.91291 -1.084,2.37157 -1.360671,-1.28963 -0.814352,-10.77589 0.621787,-10.79646 0.341201,-13.60446 -1.128828,-11.29664 -1.16658,1.83142 -2.126604,15.41949 -2.378149,33.66013 -0.484592,35.14087 -2.832137,32.38207 19.679073,23.12665 16.269582,-6.68918 27.823706,-14.31769 34.437642,-22.73712 6.093909,-7.75746 18.242578,-30.80757 18.242578,-34.6123 0,-1.45527 -3.434818,-5.52168 -7.632925,-9.0365 -7.569272,-6.33729 -24.694747,-35.27755 -24.694747,-41.73158 0,-4.30202 -3.134167,-3.5618 -4.721025,1.11499 z M 38.924895,177.0192 c 0,0.92949 -0.798943,2.18377 -1.775418,2.78726 -1.01807,0.6292 -1.319148,-0.0918 -0.705839,-1.68999 1.193951,-3.11139 2.481257,-3.68066 2.481257,-1.09727 z m -8.750705,42.76056 c 0.985329,5.79045 0.84817,9.19676 -0.340752,8.46199 -0.776923,-0.48018 -1.784092,0.55118 -2.23817,2.29192 -0.628252,2.4085 -0.875361,2.19914 -1.033911,-0.87601 -0.114583,-2.22253 0.654312,-4.04096 1.708679,-4.04096 1.099698,0 1.430949,-1.53141 0.77696,-3.59196 -0.627031,-1.97558 -0.681485,-3.59196 -0.121049,-3.59196 0.560472,0 1.122165,0.60614 1.248225,1.34698 z m 208.95514,-77.125 c 0.55296,0.55295 2.00214,10e-4 3.22042,-1.22626 1.76053,-1.77376 1.55425,-1.98003 -1.00539,-1.00539 -1.77123,0.67443 -2.768,1.67869 -2.21503,2.23165 z m -114.89531,-1.44914 c 4.93732,2.12163 7.77296,2.12163 4.48996,0 -1.48169,-0.95754 -3.90626,-1.69655 -5.38795,-1.64224 -1.77633,0.065 -1.47044,0.6245 0.89799,1.64224 z m -24.245753,5.38795 c 0,0.98779 0.855893,1.79598 1.901983,1.79598 1.04609,0 1.40248,-0.80819 0.79199,-1.79598 -0.61049,-0.98779 -1.46638,-1.79598 -1.90198,-1.79598 -0.43559,0 -0.791993,0.80819 -0.791993,1.79598 z m -5.98306,4.93895 c -0.61108,3.21031 -0.4173,5.83694 0.43064,5.83694 1.80965,0 3.84522,-9.17925 2.51342,-11.33414 -1.24944,-2.02164 -1.65806,-1.25868 -2.94406,5.4972 z m 137.987713,-1.34699 c -0.61049,0.98779 -0.25409,1.79598 0.79199,1.79598 1.04609,0 1.90198,-0.80819 1.90198,-1.79598 0,-0.98779 -0.35639,-1.79598 -0.79199,-1.79598 -0.4356,0 -1.29149,0.80819 -1.90198,1.79598 z m -131.97825,8.08192 c -0.0745,-0.98779 -1.013673,-0.28468 -2.086823,1.56247 -1.57547,2.71173 -2.25133,2.88465 -3.50985,0.89799 -1.03163,-1.62851 -1.567947,-1.73722 -1.586158,-0.32148 -0.04346,3.37899 3.804838,4.86166 5.533738,2.13208 1.31048,-2.06899 1.57221,-2.0478 1.5952,0.12913 0.0492,4.66774 3.102163,-0.54497 4.154753,-7.09413 l 1.01027,-6.28593 -2.48775,5.38794 c -1.36827,2.96337 -2.54879,4.57975 -2.62338,3.59196 z m -1.822383,-5.28195 c 0,1.53998 0.80819,2.30047 1.79598,1.68998 0.987793,-0.61049 1.795983,-1.87047 1.795983,-2.79997 0,-0.92949 -0.80819,-1.68998 -1.795983,-1.68998 -0.98779,0 -1.79598,1.25999 -1.79598,2.79997 z m 112.374623,0.58849 c -0.54132,0.87587 0.21919,2.59121 1.68999,3.81188 1.4708,1.22066 2.6742,3.05387 2.6742,4.07381 0,1.01994 -1.61639,0.39163 -3.59197,-1.39625 -2.85135,-2.58043 -3.59196,-2.7119 -3.59196,-0.63756 0,4.93536 3.94697,7.15891 7.30814,4.11711 2.49447,-2.25746 2.67798,-3.55288 1.01232,-7.1454 -2.13519,-4.60515 -3.85429,-5.48759 -5.50072,-2.82359 z m -10.00367,7.02823 c 0,1.88878 3.90079,5.74714 5.81033,5.74714 0.825,0 0.63491,-1.61638 -0.42238,-3.59196 -1.89828,-3.54695 -5.38795,-4.94283 -5.38795,-2.15518 z m -87.61112,2.51829 c 2.3352,3.51702 11.84304,7.75634 13.55535,6.04402 1.03348,-1.03348 -7.16924,-8.16428 -8.46813,-7.36151 -0.63842,0.39456 -2.33445,-0.0251 -3.76897,-0.9326 -3.94615,-2.49636 -4.19161,-2.07741 -1.31825,2.25009 z m 7.68994,1.43287 c 0.61049,0.98779 0.2541,1.79598 -0.79199,1.79598 -1.04609,0 -1.90198,-0.80819 -1.90198,-1.79598 0,-0.98779 0.35639,-1.79598 0.79199,-1.79598 0.4356,0 1.29149,0.80819 1.90198,1.79598 z m -12.87121,-0.97527 c 0,1.43918 1.09631,3.03737 2.43622,3.55154 1.91094,0.7333 2.02638,0.16918 0.53547,-2.61669 -2.2642,-4.23067 -2.97169,-4.45325 -2.97169,-0.93485 z m 84.98136,3.07059 c 1.63889,1.81094 3.66957,3.29263 4.51264,3.29263 0.84307,0 0.60753,-1.48169 -0.52344,-3.29263 -1.13095,-1.81096 -3.16164,-3.29264 -4.51264,-3.29264 -1.88746,0 -1.76625,0.76255 0.52344,3.29264 z m -4.76084,1.49665 c 1.97558,1.97558 4.12131,3.59196 4.76831,3.59196 0.64699,0 -0.28645,-1.61638 -2.07434,-3.59196 -1.78788,-1.97558 -3.93361,-3.59197 -4.76831,-3.59197 -0.83468,0 0.0988,1.61639 2.07434,3.59197 z m -58.34144,0.0309 c 2.5319,2.79772 4.84506,3.43404 10.15624,2.79386 3.7827,-0.45594 6.87762,-0.19375 6.87762,0.58264 0,0.7764 3.69261,1.46746 8.20582,1.53569 7.34411,0.11099 7.86275,-0.13596 4.93895,-2.3524 -3.98661,-3.02204 -7.75682,-3.30143 -7.75682,-0.5748 0,1.44314 -0.65871,1.46922 -2.31842,0.0918 -3.54972,-2.94602 -14.43752,-4.51867 -12.78625,-1.8469 0.73292,1.18591 -0.59767,0.80417 -2.95687,-0.84827 -5.88825,-4.1243 -8.33794,-3.77686 -4.36027,0.61839 z m 44.61501,0.8671 c -2.74978,2.74979 -6.91635,3.78724 -5.40972,1.34698 0.45742,-0.74084 -1.31333,-1.47581 -3.93496,-1.63328 l -4.76661,-0.28628 4.94446,2.59151 c 3.53371,1.85209 5.90371,2.07813 8.30648,0.79221 1.84912,-0.98962 6.08965,-1.4668 9.42341,-1.0604 5.63501,0.68692 5.81614,0.55659 2.57513,-1.85292 -4.45614,-3.31285 -7.7534,-3.2826 -11.13819,0.1022 z m 26.21086,3.41669 c -4.49314,1.36389 -15.91364,3.06042 -25.37888,3.77005 l -17.20955,1.29025 3.82711,6.01239 c 4.59432,7.21766 5.37697,7.41004 7.8716,1.93496 2.86443,-6.28675 14.1722,-7.77488 19.68992,-2.59124 5.5449,5.20913 5.63339,16.03118 0.1726,21.11857 l -3.93051,3.66193 7.41658,0 c 8.23822,0 10.76793,-2.03723 6.71081,-5.40436 -3.50105,-2.90561 -3.42959,-14.2697 0.12159,-19.33976 2.09007,-2.98397 4.59406,-3.99158 9.91933,-3.99158 l 7.12349,0 -2.94194,-4.48996 c -3.43315,-5.23965 -2.88888,-5.15953 -13.39215,-1.97125 z m -88.40142,1.30589 c 1.08282,1.08282 2.99579,1.33404 4.25102,0.55827 1.68589,-1.04194 1.37479,-1.73997 -1.1905,-2.67126 -4.25204,-1.54362 -5.71033,-0.53681 -3.06052,2.11299 z m 11.33155,2.39198 c 2.50793,1.36445 5.68216,4.57782 7.05385,7.14083 2.17215,4.0587 2.10695,5.47162 -0.50525,10.94943 -4.29188,9.00017 -10.5246,11.43168 -18.41321,7.18337 -3.39081,-1.82606 -6.22191,-4.2031 -6.29134,-5.28229 -0.0693,-1.07918 -0.75202,-0.36004 -1.51685,1.5981 -1.15229,2.95003 -0.3536,3.91677 4.65978,5.6403 3.32774,1.14401 11.73257,2.16653 18.67742,2.27224 l 12.62701,0.19221 -2.79272,-3.98715 c -5.35998,-7.65245 -2.80062,-17.35086 5.76286,-21.83772 l 4.87328,-2.55337 -8.0614,-1.04829 c -4.43378,-0.57657 -10.08189,-1.35313 -12.55136,-1.72571 -7.88377,-1.18942 -8.17028,-1.07082 -3.52207,1.45805 z m -13.46039,4.43092 c -0.56685,0.91716 0.79978,2.01939 3.03696,2.44938 3.5281,0.67813 3.41402,0.81426 -0.86009,1.0264 -4.06393,0.20171 -4.80788,0.9529 -4.24423,4.28554 0.37588,2.22253 1.48803,3.87061 2.47141,3.6624 0.98338,-0.20823 1.68101,0.96335 1.55026,2.60347 -0.14098,1.76921 1.84749,3.73457 4.88924,4.83233 4.43688,1.60126 5.58509,1.2845 8.53091,-2.35344 4.13562,-5.10731 4.29883,-8.91292 0.60817,-14.18208 -2.89966,-4.13984 -13.87415,-5.73561 -15.98263,-2.324 z m 92.77288,2.28358 c -2.78821,2.7882 -2.78821,14.45321 0,17.24142 3.05141,3.05141 11.43845,2.67283 14.77836,-0.66708 6.2014,-6.2014 1.0534,-18.72952 -7.69627,-18.72952 -2.70981,0 -5.89674,0.96983 -7.08209,2.15518 z m -63.70913,3.57423 c -6.11061,7.19778 0.47253,16.37264 11.08805,15.45331 8.44399,-0.73129 14.08739,-8.11663 10.86865,-14.22351 -1.23643,-2.34589 -3.13731,-4.88852 -4.22417,-5.65028 -3.30594,-2.31714 -14.34983,0.43595 -17.73253,4.42048 z m 34.21642,-0.87945 c -1.75678,1.58987 -3.19415,5.13226 -3.19415,7.87198 0,9.53233 9.24849,13.65176 17.56755,7.82484 3.10403,-2.17414 3.74236,-3.88228 2.85238,-7.63292 -2.35403,-9.9205 -10.80351,-13.87597 -17.22578,-8.0639 z m -18.40735,19.32253 c -5.3719,2.65153 -5.28402,2.68596 6.96064,2.72634 11.66625,0.0384 12.23766,-0.14548 9.64133,-3.10208 -1.51794,-1.72863 -3.35494,-5.09022 -4.08222,-7.47022 l -1.3223,-4.32726 -2.87842,4.74389 c -1.58314,2.60913 -5.32669,5.95233 -8.31903,7.42933 z m 66.11864,-5.30068 c -2.09713,4.52151 -1.2926,5.31128 3.52663,3.46197 1.57502,-0.6044 2.27522,-2.41809 1.73341,-4.48995 -1.21851,-4.65955 -2.76197,-4.35791 -5.26004,1.02798 z m -6.48389,9.07546 -6.7639,1.19907 1.08118,11.01956 c 0.65135,6.63862 -0.0327,18.15971 -1.72047,28.97939 -1.54092,9.8779 -3.98173,25.63764 -5.42401,35.02164 -4.58019,29.8004 -5.35623,54.90567 -2.16156,69.92602 1.56199,7.34395 3.45847,13.89325 4.2144,14.55403 0.75595,0.66076 5.8195,0.29418 11.25235,-0.81464 6.87584,-1.40335 9.7097,-2.78324 9.32448,-4.54035 -0.30436,-1.38837 -1.74097,-7.03046 -3.19243,-12.53797 -1.63808,-6.21562 -2.53601,-17.16618 -2.36741,-28.87148 0.27021,-18.75802 2.60527,-30.83016 12.49581,-64.60259 3.39606,-11.59616 3.65535,-14.60406 1.91055,-22.16289 -1.11031,-4.81018 -1.64235,-9.35482 -1.18231,-10.0992 0.72522,-1.17343 -1.14679,-10.38482 -3.6079,-17.75298 -0.43518,-1.30284 -2.20954,-1.95208 -3.94304,-1.44274 -1.7335,0.50934 -6.19558,1.46564 -9.91574,2.12513 z m 8.68772,12.91131 c 1.64128,15.16888 -1.59785,47.51706 -6.42922,64.20634 -2.3784,8.2159 -4.00926,20.66155 -4.70683,35.91963 -1.05511,23.0781 -0.6235,26.24386 5.57052,40.85858 0.75615,1.78411 0.55679,3.14297 -0.46106,3.14297 -0.98623,0 -3.09317,-3.24913 -4.68211,-7.22028 -3.85721,-9.64009 -3.90245,-48.02566 -0.0772,-65.51697 6.94893,-31.77487 8.12149,-40.71747 8.06554,-61.51237 -0.0325,-12.10043 0.27109,-22.00078 0.67475,-22.00078 0.40367,0 1.32421,5.4553 2.04564,12.12288 z M 98.784727,208.40631 c 0.5372,1.39993 -0.38657,3.10306 -2.05282,3.78474 -2.70707,1.10746 -2.64719,1.39663 0.56239,2.71637 3.414913,1.40417 3.392773,1.48319 -0.449,1.6032 -4.764591,0.14889 -5.464108,4.87889 -0.89799,6.07214 2.58618,0.67585 2.49074,0.85827 -0.53879,1.02969 -3.651807,0.20665 -7.992119,3.3496 -7.992119,5.78734 0,0.69775 1.414335,1.05621 3.142967,0.79655 1.728633,-0.25964 2.302179,-0.15733 1.274537,0.22732 -3.405792,1.27488 -8.174321,12.30851 -8.045459,18.61594 0.06986,3.41597 0.09357,10.52592 0.0528,15.79991 -0.106681,13.78341 1.524986,25.27141 4.759998,33.51451 5.597936,14.26415 8.719886,20.61297 10.146116,20.63319 0.79914,0.0108 0.988,0.77295 0.4197,1.69248 -1.08235,1.75126 2.247063,4.68494 3.684993,3.24699 0.45582,-0.4558 -0.0684,-3.16335 -1.16498,-6.01677 -1.66988,-4.34536 -3.630053,-18.71959 -7.809913,-57.2715 -0.32129,-2.96337 0.21467,-10.2371 1.19102,-16.16384 0.97635,-5.92674 1.95011,-11.98817 2.16392,-13.46986 0.2138,-1.48168 2.47205,-7.13197 5.018323,-12.55619 3.34187,-7.11906 4.04581,-10.23359 2.53075,-11.19739 -3.51737,-2.23754 -7.038023,-1.55931 -5.996373,1.15518 z m 22.598443,5.9492 c -5.80177,15.25981 -8.81759,35.8032 -9.2361,62.91538 -0.44506,28.83116 0.54578,36.22809 7.80849,58.29309 4.06578,12.35229 4.26999,19.6177 0.74306,26.43801 -2.5263,4.88532 -2.4542,5.13524 1.71153,5.93156 6.09756,1.16562 6.77396,-3.92236 3.92752,-29.54317 -2.93653,-26.43165 -2.32577,-59.86064 1.51897,-83.13992 5.10628,-30.91768 6.4768,-43.18136 4.99167,-44.66651 -0.62208,-0.62205 -3.03681,-1.13102 -5.36611,-1.13102 -2.95992,0 -4.79629,1.47614 -6.09903,4.90258 z m -15.61891,3.62834 c -6.678703,14.82105 -9.886063,30.70415 -8.788803,43.52302 2.61764,30.58135 5.475913,48.79194 9.682283,61.68773 4.53787,13.91214 4.89513,25.20815 1.21658,38.46777 -0.88729,3.19829 -0.38639,4.04096 2.40202,4.04096 6.79939,0 10.56588,-7.46061 9.74704,-19.3068 -0.19628,-2.83973 -1.48053,-4.10288 -4.32027,-4.24929 -3.0409,-0.15679 -3.26314,-0.41161 -0.89799,-1.02969 1.72863,-0.45173 3.14297,-1.97436 3.14297,-3.38361 0,-1.40928 -1.41434,-2.62611 -3.14297,-2.70409 -1.72863,-0.0779 -2.25056,-0.51015 -1.15984,-0.96036 1.38286,-0.57082 0.96286,-5.01273 -1.38758,-14.67506 -6.48665,-26.66578 -3.65653,-79.4747 5.5373,-103.32348 2.6029,-6.75191 2.66599,-6.61802 -3.11872,-6.61802 -4.30894,0 -5.64344,1.27745 -8.91202,8.53092 z m 86.57685,16.17331 c -0.0882,14.39136 -1.40471,29.55708 -3.54614,40.8491 -3.99143,21.04716 -4.93935,75.82785 -1.38652,80.12785 1.1303,1.36801 2.78515,5.31474 3.67745,8.77049 1.97251,7.63943 7.68136,9.8284 7.68136,2.94532 0,-2.47759 -0.86511,-6.77986 -1.92245,-9.56058 -3.15495,-8.29726 -2.10161,-45.99687 2.02306,-72.40518 2.08278,-13.33516 4.51233,-29.0949 5.39899,-35.02164 1.89965,-12.69797 2.19909,-35.70419 0.487,-37.41628 -0.65851,-0.65853 -3.68923,-1.19305 -6.73493,-1.18784 l -5.5376,0.009 -0.14027,22.88928 z m -14.33735,-21.28978 c 1.24265,2.01066 1.45727,85.45241 0.25454,98.9565 -2.49465,28.00923 -2.68923,35.98415 -1.13529,46.52999 1.77421,12.04076 3.62815,14.68148 9.2712,13.2058 4.22784,-1.10561 4.2178,-1.83521 -0.17888,-12.98969 -2.92038,-7.40903 -3.5966,-13.56453 -3.70671,-33.74114 -0.074,-13.57337 0.73978,-30.74027 1.80857,-38.1487 6.94073,-48.11109 8.08793,-67.91614 4.2913,-74.08424 -0.45602,-0.74084 -3.25369,-1.34699 -6.21706,-1.34699 -2.96337,0 -4.93782,0.72831 -4.38767,1.61847 z m -31.7795,17.68834 c -1.72176,10.61874 -3.6144,31.02558 -4.20589,45.34853 -1.24838,30.23027 2.11793,93.61258 5.06875,95.43631 5.64435,3.48839 5.91497,-0.4344 5.40852,-78.4007 -0.33082,-50.92869 0.11423,-78.09898 1.27907,-78.09898 1.15411,0 1.79978,25.44322 1.82428,71.88824 0.0208,39.53851 0.55133,75.09895 1.17884,79.02317 l 1.14094,7.13497 8.49289,0 8.49291,0 -0.067,-23.79676 c -0.0368,-13.08821 0.48628,-47.23431 1.1624,-75.88022 0.67611,-28.64591 0.75787,-54.30599 0.18166,-57.02242 -1.02491,-4.83185 -1.32714,-4.93895 -13.93734,-4.93895 l -12.8897,0 -3.13043,19.30681 z m 18.16419,61.25518 c -0.0984,45.67896 -0.8562,79.28038 -1.78785,79.28038 -1.65846,0 -0.60472,-155.99731 1.065,-157.66705 0.49154,-0.49153 0.81681,34.78248 0.72285,78.38667 z M 135.9079,217.30976 c 0,3.33347 -1.78685,16.06249 -3.97077,28.28671 -4.42221,24.75265 -5.39849,64.76355 -2.49952,102.43726 1.5861,20.61219 1.68569,20.95824 6.28594,21.84219 2.57087,0.49398 4.87742,0.69908 5.12566,0.45575 0.24824,-0.24332 -0.25117,-14.51735 -1.10978,-31.72007 -2.11144,-42.30403 -0.77985,-82.32884 3.48338,-104.70228 4.42216,-23.20759 4.46869,-22.66041 -1.92696,-22.66041 -4.92221,0 -5.38795,0.52389 -5.38795,6.06085 z m 100.46165,20.27491 c 2.23217,8.86475 14.90325,33.86928 23.59584,46.56296 2.76655,4.03995 8.72357,10.98668 13.2378,15.43716 8.29077,8.17366 25.52164,18.84312 27.39907,16.96567 0.55964,-0.55965 -2.335,-4.0746 -6.43253,-7.81101 -19.41066,-17.69998 -33.71131,-32.75436 -36.43353,-38.35382 -18.35786,-37.7611 -21.41489,-43.40999 -22.76287,-42.06201 -0.41111,0.41113 0.21717,4.5786 1.39624,9.26105 z m -163.321005,1.48739 c 0,6.30591 -28.86771,23.53013 -52.388801,31.25831 -6.502765,2.13657 -12.8912328,7.36986 -8.996665,7.36986 4.157967,0 34.340677,-10.97003 42.07245,-15.2914 8.00821,-4.47587 26.501648,-23.77093 28.824588,-30.07401 0.989119,-2.68386 0.360436,-2.56537 -4.17352,0.78674 -2.935927,2.17063 -5.338052,4.84836 -5.338052,5.9505 z M 21.900911,261.5364 c -2.733754,0 -8.765719,5.34064 -7.481934,6.62442 1.723496,1.7235 45.353043,-18.09755 50.394454,-22.89436 0.90354,-0.8597 -7.825218,2.44934 -19.397248,7.35343 -11.57203,4.90407 -22.1539,8.91651 -23.515272,8.91651 z M 250.33546,248.51552 c 2.37418,6.38879 15.30785,22.28593 22.18402,27.26699 9.85322,7.13764 28.3894,14.23526 40.71287,15.58919 9.9577,1.09404 10.23652,1.01263 7.25613,-2.1183 -1.96443,-2.06364 -6.23957,-3.43608 -11.67388,-3.74764 -10.28297,-0.58955 -22.44286,-4.94289 -31.02415,-11.10689 -9.15818,-6.5784 -21.43251,-19.49888 -23.37342,-24.60384 -0.92477,-2.43237 -2.48424,-4.42248 -3.46548,-4.42248 -0.98125,0 -1.25848,1.41434 -0.61609,3.14297 z M 62.170536,264.62226 c -7.398546,9.75111 -19.855475,19.14447 -39.443384,29.74298 -6.318479,3.41876 -12.70366,8.04658 -14.1892778,10.28405 l -2.70112,4.06813 6.2171668,-3.20432 c 15.662702,-8.07251 30.557567,-18.55348 41.836942,-29.43912 11.663087,-11.25599 22.796125,-25.14477 22.709702,-28.33105 -0.0431,-1.59203 -3.349505,2.27552 -14.430029,16.87933 z M 232.27218,263.8275 c -2.54873,8.17465 -5.94346,20.49957 -7.54384,27.38872 -6.31981,27.20471 -1.95392,75.38737 6.62756,73.14326 3.07031,-0.80291 3.0674,-1.11712 -0.0682,-7.3803 -1.80127,-3.59794 -3.80928,-8.7645 -4.46225,-11.48126 -1.87958,-7.82028 1.82032,-25.9026 9.47264,-46.29515 9.58266,-25.53666 10.29378,-31.08727 5.34335,-41.70734 -2.18713,-4.692 -4.14728,-8.53091 -4.3559,-8.53091 -0.20864,0 -2.46464,6.68834 -5.01338,14.86298 z m 39.00267,0.49404 c 12.19083,11.46749 16.18037,13.46067 36.1493,18.06025 5.30369,1.22165 5.24751,1.08754 -3.59197,-8.57556 -7.90163,-8.63788 -10.03925,-9.95787 -17.8022,-10.99311 -4.85227,-0.6471 -12.53009,-3.10484 -17.06182,-5.46169 -4.53175,-2.35685 -8.64363,-4.36497 -9.13752,-4.46248 -0.4939,-0.0975 4.65599,5.04716 11.44421,11.43259 z M 75.837327,257.79103 c -0.558353,0.90342 9e-5,2.05191 1.240988,2.55218 1.361102,0.54875 1.009305,0.96584 -0.886802,1.05139 -3.624561,0.16343 -4.212044,3.00304 -0.897991,4.34029 1.30241,0.52554 0.880893,0.9654 -1.00399,1.04765 -1.78693,0.0779 -2.846631,0.79277 -2.354891,1.58842 0.491722,0.79564 1.308409,4.88423 1.81484,9.08575 0.506431,4.20153 3.43072,11.83451 6.4984,16.9622 3.067698,5.12767 5.09775,7.58281 4.511218,5.45587 -2.255824,-8.18043 -4.506261,-25.27085 -4.516229,-34.29743 -0.009,-8.63388 -1.860206,-11.90477 -4.405543,-7.78632 z m -28.155316,11.70695 c -4.322514,2.40329 -11.714218,5.33198 -16.426012,6.5082 -5.688699,1.42008 -9.663386,3.72323 -11.830615,6.85526 -3.60696,5.2127 -6.037264,11.00262 -4.618331,11.00262 4.33065,0 33.454934,-18.51255 39.213049,-24.92537 4.394875,-4.89459 3.296901,-4.7977 -6.338091,0.55929 z m 18.797695,8.64032 c 0.61349,5.1799 1.852555,9.66371 2.753492,9.96402 0.900918,0.3003 1.277266,1.92566 0.836316,3.61188 -0.440967,1.68623 0.655067,4.67819 2.435621,6.64883 1.780572,1.97062 5.239758,6.56442 7.687088,10.20846 2.447349,3.64403 4.725857,6.34936 5.063393,6.01182 0.770764,-0.77075 -3.607965,-8.66662 -5.625535,-10.14415 -0.825217,-0.60435 -1.347363,-1.65071 -1.160366,-2.32528 0.187016,-0.67455 -1.509953,-5.43335 -3.771058,-10.57508 -4.865943,-11.06515 -5.543351,-13.42308 -5.39459,-18.77753 0.06178,-2.22252 -0.799427,-4.04095 -1.913744,-4.04095 -1.388294,0 -1.674933,2.96455 -0.910617,9.41798 z m 172.088124,23.60694 c -4.53564,10.21373 -9.46513,28.04109 -7.7514,28.03267 1.31291,-0.007 21.83028,-45.37607 21.83028,-48.27283 0,-1.01193 -0.98415,-3.99981 -2.18697,-6.63974 -2.12719,-4.66869 -2.26631,-4.48696 -5.09015,6.65043 -1.59674,6.29766 -4.65754,15.40092 -6.80176,20.22947 z m 32.17463,-19.25747 c 6.52716,7.17705 14.96536,14.85609 16.3902,14.91561 3.67995,0.15374 -4.40098,-11.64572 -10.41809,-15.21209 -9.39036,-5.56567 -11.22079,-5.4748 -5.97211,0.29648 z m -31.46788,37.41802 c -2.68129,5.92674 -4.16155,9.9677 -3.28944,8.97991 5.76154,-6.52584 16.40401,-22.43226 18.02452,-26.93973 6.71749,-18.68488 3.68013,-23.21378 -4.00202,-5.96725 -3.22188,7.23315 -8.05176,18.00033 -10.73306,23.92707 z M 86.799101,309.65733 c 0.569937,2.17938 1.732835,3.96253 2.584238,3.96253 0.851403,0 0.625863,-2.0239 -0.501205,-4.49756 -2.429047,-5.33115 -3.542286,-5.04523 -2.083033,0.53503 z m 15.603129,21.01034 c 2.67505,5.76751 4.51485,5.77507 3.41355,0.0144 -0.47207,-2.46948 -1.90034,-4.48995 -3.17393,-4.48995 -1.82608,0 -1.87674,0.94624 -0.23962,4.47594 z m 2.25969,11.25937 c 0.54555,2.7277 -0.18833,8.38504 -1.63081,12.57187 -2.04077,5.92336 -2.12137,7.61245 -0.36329,7.61245 1.24266,0 2.76452,-2.5256 3.38189,-5.61244 1.69941,-8.49704 1.34429,-19.5313 -0.62859,-19.5313 -0.9631,0 -1.30473,2.23174 -0.7592,4.95942 z m -7.372523,7.50327 c -3.30662,-0.74666 -5.169737,4.91576 -2.54275,7.72796 2.22048,2.37704 2.79618,2.05621 4.78102,-2.66437 1.241123,-2.95173 2.199783,-6.68834 2.130343,-8.30358 -0.10524,-2.44697 -0.34152,-2.39041 -1.4171,0.3391 -0.709983,1.80173 -2.038173,3.10712 -2.951513,2.90089 z m 138.532303,5.03864 c 1.90022,4.83748 3.73572,7.03905 5.35167,6.41895 1.87405,-0.71915 1.28788,-2.57391 -2.46249,-7.79192 -2.70708,-3.76646 -5.11533,-6.65499 -5.35167,-6.41895 -0.23631,0.23607 0.87179,3.74242 2.46249,7.79192 z m -149.303293,5.84643 c -0.61049,0.98779 -0.167565,1.79598 0.984144,1.79598 1.151763,0 1.656685,1.13998 1.122021,2.53328 -1.307402,3.40705 17.869648,11.43497 20.657098,8.64751 1.32964,-1.32964 0.22574,-2.75854 -3.6991,-4.78814 -3.13989,-1.62371 -5.594303,-2.08474 -5.594303,-1.05083 0,1.01315 -0.85589,1.8421 -1.90198,1.8421 -1.04609,0 -1.38853,-0.83076 -0.76097,-1.84616 0.62753,-1.01537 -0.7391,-3.41306 -3.03699,-5.32819 -4.78895,-3.99126 -6.214367,-4.3225 -7.76992,-1.80555 z m 156.782753,4.48995 c -0.23966,2.44686 -5.54982,6.17189 -7.27676,5.10459 -0.76786,-0.47457 -1.00297,-1.49892 -0.52247,-2.27639 1.56767,-2.53655 -29.88945,6.49079 -31.53904,9.05087 -1.36151,2.11296 -1.8446,2.11495 -3.19922,0.0126 -1.23109,-1.91017 -4.26182,-2.19014 -13.26806,-1.22565 l -11.6725,1.25003 1.98792,5.2666 c 2.67608,7.08973 5.34691,7.19199 35.32408,1.35245 24.79712,-4.83047 39.10195,-11.93511 36.68939,-18.22216 -1.25749,-3.27696 -6.20976,-3.51493 -6.52334,-0.31345 z m -16.69618,8.08192 c -0.61049,0.98779 -1.46639,1.79598 -1.90198,1.79598 -0.4356,0 -0.792,-0.80819 -0.792,-1.79598 0,-0.98779 0.8559,-1.79598 1.90198,-1.79598 1.04609,0 1.40249,0.80819 0.792,1.79598 z m -10.77589,3.59196 c -0.61049,0.98779 -1.87048,1.79598 -2.79997,1.79598 -0.9295,0 -1.68999,-0.80819 -1.68999,-1.79598 0,-0.98779 1.25999,-1.79598 2.79997,-1.79598 1.53999,0 2.30048,0.80819 1.68999,1.79598 z m -20.65379,1.79598 c 0,0.98779 -0.80819,1.79598 -1.79598,1.79598 -0.98779,0 -1.79599,-0.80819 -1.79599,-1.79598 0,-0.98779 0.8082,-1.79598 1.79599,-1.79598 0.98779,0 1.79598,0.80819 1.79598,1.79598 z m -10.77589,1.79598 c 0,0.98779 -0.80819,1.79599 -1.79598,1.79599 -0.98779,0 -1.79598,-0.8082 -1.79598,-1.79599 0,-0.98779 0.80819,-1.79598 1.79598,-1.79598 0.98779,0 1.79598,0.80819 1.79598,1.79598 z M 79.924892,372.26762 c -1.806417,1.63477 -3.284384,3.69972 -3.284384,4.58878 0,4.40109 44.857822,19.30716 61.241052,20.35014 9.31014,0.5927 10.57219,0.23368 13.1824,-3.75 2.86096,-4.36638 2.83442,-4.40567 -2.99178,-4.42999 -3.23309,-0.0144 -7.82316,-0.54488 -10.20014,-1.18089 -3.03014,-0.81076 -3.93779,-0.53506 -3.03697,0.92252 0.75893,1.22798 0.16182,2.07888 -1.45878,2.07888 -1.70089,0 -2.35071,-1.02385 -1.70983,-2.69397 0.65492,-1.7067 -0.0251,-2.69397 -1.85572,-2.69397 -1.58921,0 -9.61838,-2.33153 -17.84259,-5.18116 -13.642013,-4.72686 -15.140843,-4.92372 -17.094313,-2.24497 -1.860712,2.55151 -2.010173,2.4293 -1.14088,-0.93296 0.7856,-3.0385 -0.0742,-4.26115 -4.005095,-5.69515 -2.752988,-1.00431 -5.345901,-1.88982 -5.762012,-1.9678 -0.416111,-0.0779 -2.234542,1.19574 -4.040958,2.83054 z m 5.695524,0.61963 c 0,0.98779 -0.855893,1.79598 -1.90198,1.79598 -1.046088,0 -1.402482,-0.80819 -0.791992,-1.79598 0.61049,-0.98779 1.466383,-1.79598 1.90198,-1.79598 0.435598,0 0.791992,0.80819 0.791992,1.79598 z m 23.347764,8.97991 c 0,0.98779 -1.25999,1.79598 -2.79997,1.79598 -1.53998,0 -2.30047,-0.80819 -1.68998,-1.79598 0.61049,-0.98779 1.87047,-1.79599 2.79997,-1.79599 0.92949,0 1.68998,0.8082 1.68998,1.79599 z m 10.77589,5.38794 c 0,0.98779 -0.80819,1.79598 -1.79598,1.79598 -0.98779,0 -1.79598,-0.80819 -1.79598,-1.79598 0,-0.98779 0.80819,-1.79598 1.79598,-1.79598 0.98779,0 1.79598,0.80819 1.79598,1.79598 z m 26.93972,5.38795 c 0,0.98779 -0.80819,1.79598 -1.79598,1.79598 -0.98779,0 -1.79598,-0.80819 -1.79598,-1.79598 0,-0.98779 0.80819,-1.79599 1.79598,-1.79599 0.98779,0 1.79598,0.8082 1.79598,1.79599 z m 99.67402,-17.51083 c -3.43117,2.22253 -6.24851,5.503 -6.26074,7.28993 -0.0126,1.78693 -0.84361,2.74131 -1.84751,2.12087 -1.0039,-0.62045 -1.36031,-1.88042 -0.79201,-2.79997 0.56832,-0.91952 0.37946,-1.64323 -0.41968,-1.60824 -2.05191,0.0898 -10.74633,5.18331 -8.97991,5.26066 0.79914,0.035 0.86177,1.02024 0.13919,2.18941 -0.94806,1.53398 -1.60254,1.36263 -2.35098,-0.6155 -0.9118,-2.4099 -2.33975,-2.45082 -11.81307,-0.33844 -5.92673,1.32156 -15.42299,2.92307 -21.10278,3.55892 -5.74208,0.64282 -10.30153,2.04205 -10.26976,3.15162 0.11602,4.05357 4.9649,8.28147 9.49781,8.28147 9.20829,0 41.86009,-9.51992 53.64057,-15.63939 11.40294,-5.92336 11.91037,-6.45743 10.0386,-10.5655 -1.08427,-2.37973 -2.25712,-4.32679 -2.60631,-4.32679 -0.34919,0 -3.44223,1.81843 -6.87342,4.04095 z m 4.49292,3.14297 c 0,0.98779 -0.80819,1.79598 -1.79598,1.79598 -0.98779,0 -1.79599,-0.80819 -1.79599,-1.79598 0,-0.98779 0.8082,-1.79598 1.79599,-1.79598 0.98779,0 1.79598,0.80819 1.79598,1.79598 z m -33.32047,10.6225 c 0.57827,0.93565 0.28586,2.1743 -0.64979,2.75255 -0.93565,0.57827 -2.1743,0.28587 -2.75256,-0.64978 -0.57827,-0.93565 -0.28586,-2.17431 0.64979,-2.75256 0.93565,-0.57827 2.17431,-0.28587 2.75256,0.64979 z m -13.37505,3.74536 c 0,0.98779 -0.8082,1.79598 -1.79599,1.79598 -0.98779,0 -1.79598,-0.80819 -1.79598,-1.79598 0,-0.98779 0.80819,-1.79599 1.79598,-1.79599 0.98779,0 1.79599,0.8082 1.79599,1.79599 z m -12.57188,2.79997 c 0,1.53998 -0.82137,2.29232 -1.82527,1.67188 -1.0039,-0.62046 -1.36031,-1.88043 -0.79201,-2.79998 1.53961,-2.49109 2.61728,-2.0266 2.61728,1.1281 z m -78.1252,-22.55577 c 0.61049,0.98779 0.0521,1.82834 -1.24098,1.86789 -4.81948,0.14745 7.28516,5.18152 18.98151,7.89408 17.13844,3.97466 23.65079,3.6816 27.08316,-1.21881 l 2.82181,-4.02869 -19.33278,-2.92923 c -23.74505,-3.59775 -29.76482,-3.9348 -28.31272,-1.58524 z m 14.36786,3.59196 c -0.61049,0.98779 -1.87048,1.79598 -2.79997,1.79598 -0.9295,0 -1.68999,-0.80819 -1.68999,-1.79598 0,-0.98779 1.25999,-1.79598 2.79997,-1.79598 1.53999,0 2.30048,0.80819 1.68999,1.79598 z m 9.8779,1.79598 c 0,0.98779 -0.8082,1.79598 -1.79599,1.79598 -0.98779,0 -1.79598,-0.80819 -1.79598,-1.79598 0,-0.98779 0.80819,-1.79598 1.79598,-1.79598 0.98779,0 1.79599,0.80819 1.79599,1.79598 z m 12.57187,1.79598 c 0,0.98779 -0.8082,1.79599 -1.79599,1.79599 -0.98779,0 -1.79598,-0.8082 -1.79598,-1.79599 0,-0.98779 0.80819,-1.79598 1.79598,-1.79598 0.98779,0 1.79599,0.80819 1.79599,1.79598 z m 75.43123,16.90653 c -6.42064,1.69688 -15.78587,4.24444 -20.81164,5.66122 -5.02577,1.4168 -10.48106,2.576 -12.12288,2.576 -3.52856,0 -3.72743,1.79375 -0.8894,8.02256 2.21494,4.86127 2.10453,4.85295 20.35405,1.53026 11.95614,-2.17687 31.58744,-9.62509 40.20894,-15.25551 9.82099,-6.41376 12.54624,-10.89569 9.12892,-15.01333 -1.82953,-2.20443 -3.76321,-1.70448 -13.16925,3.40486 -6.06368,3.29377 -16.27811,7.37704 -22.69874,9.07394 z m 34.12365,-9.7226 c 0,0.98779 -0.8082,1.79598 -1.79599,1.79598 -0.98779,0 -1.79598,-0.80819 -1.79598,-1.79598 0,-0.98779 0.80819,-1.79598 1.79598,-1.79598 0.98779,0 1.79599,0.80819 1.79599,1.79598 z m -11.76869,5.23455 c 0.57827,0.93565 0.28586,2.17431 -0.64979,2.75256 -0.93565,0.57827 -2.17431,0.28586 -2.75256,-0.64979 -0.57827,-0.93565 -0.28586,-2.1743 0.64979,-2.75256 0.93565,-0.57827 2.1743,-0.28586 2.75256,0.64979 z m -11.57908,7.33732 c 0,0.98779 -0.80819,1.79598 -1.79598,1.79598 -0.98779,0 -1.79598,-0.80819 -1.79598,-1.79598 0,-0.98779 0.80819,-1.79598 1.79598,-1.79598 0.98779,0 1.79598,0.80819 1.79598,1.79598 z m -14.36785,4.59595 c 0,1.53999 -0.82137,2.29232 -1.82527,1.67188 -1.0039,-0.62045 -1.36031,-1.88042 -0.79201,-2.79997 1.53959,-2.4911 2.61728,-2.0266 2.61728,1.12809 z m -10.77589,1.79599 c 0,1.53998 -0.80819,2.30047 -1.79598,1.68998 -0.98779,-0.61049 -1.79598,-1.87048 -1.79598,-2.79997 0,-0.92949 0.80819,-1.68999 1.79598,-1.68999 0.98779,0 1.79598,1.25999 1.79598,2.79998 z m -12.57187,2.58797 c 0,0.98779 -0.80819,1.79598 -1.79598,1.79598 -0.98779,0 -1.79598,-0.80819 -1.79598,-1.79598 0,-0.98779 0.80819,-1.79598 1.79598,-1.79598 0.98779,0 1.79598,0.80819 1.79598,1.79598 z M 68.951516,387.50972 c -1.759487,3.0909 -2.971775,5.79006 -2.693973,5.99814 0.277785,0.20807 8.182888,3.62819 17.566891,7.60028 19.528246,8.26595 32.925756,12.37591 45.829916,14.05924 l 9.01227,1.17565 3.20691,-6.72494 c 2.18157,-4.57482 2.62071,-7.31112 1.37349,-8.55834 -1.24724,-1.24724 -2.20078,-0.87608 -2.98244,1.16087 -0.63195,1.64686 -1.84537,2.9943 -2.69647,2.9943 -0.85112,0 -1.08228,-1.21229 -0.51371,-2.69398 0.80306,-2.09273 -0.43565,-2.69397 -5.5503,-2.69397 -3.62123,0 -6.1191,0.75236 -5.5508,1.67188 0.56832,0.91954 0.21191,2.17951 -0.79199,2.79997 -1.0039,0.62044 -1.82528,-0.41142 -1.82528,-2.29305 0,-2.70942 -2.77689,-4.228 -13.34833,-7.29964 -7.34159,-2.1332 -14.648363,-4.3774 -16.237293,-4.98712 -1.588918,-0.60972 -2.653845,-0.28208 -2.366488,0.72812 0.287339,1.01019 -0.285759,1.91754 -1.273549,2.01632 -0.98779,0.0988 -1.795982,-0.83064 -1.795982,-2.06538 0,-2.51145 -9.306148,-8.34548 -13.469861,-8.44428 -1.481685,-0.0352 -4.133542,2.46501 -5.893011,5.55593 z m 10.382965,-0.25462 c 0.61049,0.98779 -0.149965,1.79598 -1.689983,1.79598 -1.539983,0 -2.799971,-0.80819 -2.799971,-1.79598 0,-0.98779 0.76049,-1.79598 1.689982,-1.79598 0.929493,0 2.189481,0.80819 2.799972,1.79598 z m 25.143749,10.77589 c -0.61049,0.98779 -1.87048,1.79598 -2.79998,1.79598 -0.92949,0 -1.689983,-0.80819 -1.689983,-1.79598 0,-0.98779 1.259993,-1.79598 2.799973,-1.79598 1.53999,0 2.30048,0.80819 1.68999,1.79598 z m 9.87789,2.79997 c 0,1.53998 -0.82137,2.29232 -1.82527,1.67188 -1.0039,-0.62046 -1.36031,-1.88043 -0.79199,-2.79997 1.53957,-2.4911 2.61726,-2.0266 2.61726,1.12809 z m 149.06648,-6.47821 c 0,2.97215 -16.18391,12.98719 -27.61545,17.08916 -6.04899,2.17055 -15.98014,4.98593 -22.06921,6.25643 -8.5714,1.7884 -11.35152,3.1743 -12.31325,6.13816 -1.07808,3.32244 -1.35306,3.41297 -2.08149,0.68522 -0.46162,-1.72863 -1.60901,-3.14297 -2.54972,-3.14297 -0.94074,0 -0.42452,2.48668 1.14716,5.52595 2.68729,5.19665 3.30545,5.45616 10.37302,4.35448 22.6414,-3.52926 42.02491,-10.31173 58.14673,-20.34613 l 7.52775,-4.68534 -3.8175,-6.79233 c -3.62535,-6.45045 -6.74804,-8.80245 -6.74804,-5.08263 z m -5.38795,10.75617 c 0,0.92949 -0.80819,2.18948 -1.79598,2.79997 -0.98779,0.61049 -1.79598,-0.14997 -1.79598,-1.68998 0,-1.53999 0.80819,-2.79998 1.79598,-2.79998 0.98779,0 1.79598,0.7605 1.79598,1.68999 z m -13.46986,7.28992 c 0.61049,0.98779 -0.1977,1.79598 -1.79598,1.79598 -1.59828,0 -2.40647,-0.80819 -1.79598,-1.79598 0.61049,-0.98779 1.41868,-1.79598 1.79598,-1.79598 0.3773,0 1.18549,0.80819 1.79598,1.79598 z m -11.67388,5.38795 c 0,0.98779 -0.80819,1.79598 -1.79598,1.79598 -0.98779,0 -1.79598,-0.80819 -1.79598,-1.79598 0,-0.98779 0.80819,-1.79598 1.79598,-1.79598 0.98779,0 1.79598,0.80819 1.79598,1.79598 z m -12.57187,3.59196 c 0,0.98779 -0.80819,1.79598 -1.79598,1.79598 -0.98779,0 -1.79598,-0.80819 -1.79598,-1.79598 0,-0.98779 0.80819,-1.79598 1.79598,-1.79598 0.98779,0 1.79598,0.80819 1.79598,1.79598 z m -8.17673,1.64259 c 0.57827,0.93565 0.28587,2.1743 -0.64978,2.75256 -0.93566,0.57827 -2.17431,0.28586 -2.75256,-0.64979 -0.57827,-0.93565 -0.28587,-2.17431 0.64979,-2.75256 0.93565,-0.57827 2.1743,-0.28586 2.75255,0.64979 z M 60.046357,403.03438 c -2.474791,3.73965 -11.954036,15.11139 -21.064997,25.27054 -9.11096,10.15913 -16.285691,18.69821 -15.943844,18.97573 2.268809,1.84187 13.04337,4.37952 14.575199,3.4328 1.096069,-0.67742 1.327535,-0.28084 0.560472,0.9603 -2.651749,4.29061 41.762301,19.99249 56.55045,19.99249 7.885993,0 16.977633,-7.94907 12.401503,-10.84299 -1.4558,-0.92064 -3.06901,-1.68627 -3.58488,-1.70139 -0.51588,-0.0144 -10.405852,-1.99083 -21.977703,-4.39046 -18.676789,-3.87298 -39.519623,-11.8561 -45.211897,-17.31685 -3.507857,-3.36518 0.482509,-3.34044 7.223384,0.0449 16.995338,8.53499 24.79191,11.14047 45.77474,15.29722 l 22.313366,4.4203 3.98803,-4.84132 c 2.19344,-2.66272 3.40572,-5.32219 2.69398,-5.90994 -0.71173,-0.58783 -7.7596,-2.49636 -15.66192,-4.24128 -16.479998,-3.63897 -40.742901,-10.91659 -46.287078,-13.88375 -3.217663,-1.72204 -4.340295,-1.30654 -7.635454,2.82598 -3.801429,4.76747 -3.858271,4.77851 -3.557157,0.69145 0.168283,-2.28438 1.249249,-4.25445 2.402107,-4.37792 4.462907,-0.47798 4.686057,-0.84329 1.609361,-2.63447 -1.749411,-1.01847 -2.684813,-2.65419 -2.078669,-3.63494 0.690483,-1.11723 2.549091,-0.83727 4.976719,0.74966 7.337429,4.79647 40.955331,15.22708 61.367581,19.04051 7.28353,1.36071 8.20936,1.11177 10.8492,-2.91716 1.58738,-2.42265 2.46127,-4.82972 1.94194,-5.34903 -0.51931,-0.5193 -8.05964,-2.38332 -16.75633,-4.14225 -8.69666,-1.75891 -20.257181,-4.89997 -25.690026,-6.98013 -5.795075,-2.21885 -10.125349,-3.04049 -10.476553,-1.98787 -0.329275,0.98684 -1.425973,1.79424 -2.437129,1.79424 -1.011155,0 -1.411875,-1.11169 -0.890466,-2.47046 0.564082,-1.46998 -0.897541,-3.31132 -3.609204,-4.54685 -3.819532,-1.74029 -4.932915,-1.56261 -6.878143,1.09767 -2.095389,2.86561 -2.293217,2.69673 -2.035583,-1.73781 0.356915,-6.14384 1.491347,-6.12071 17.677254,0.36045 14.888795,5.96176 36.38355,11.93782 47.62548,13.24104 6.35627,0.73685 7.95762,0.24655 10.15676,-3.10976 2.59056,-3.95371 2.47313,-4.0156 -15.17092,-7.99467 -9.77995,-2.20558 -22.230363,-5.97753 -27.667586,-8.38214 -5.437226,-2.40458 -9.885873,-3.574 -9.885873,-2.59866 0,0.97533 -0.808191,1.77334 -1.795981,1.77334 -0.98779,0 -1.795982,-1.18648 -1.795982,-2.63661 0,-2.25592 -7.616381,-7.84875 -10.986217,-8.06737 -0.609592,-0.0395 -3.133162,2.98781 -5.607934,6.72746 z m 9.410225,-1.41143 c 0,0.98779 -0.808192,1.79598 -1.795982,1.79598 -0.98779,0 -1.795981,-0.80819 -1.795981,-1.79598 0,-0.98779 0.808191,-1.79598 1.795981,-1.79598 0.98779,0 1.795982,0.80819 1.795982,1.79598 z m 19.755797,8.97991 c 0,0.98779 -0.808191,1.79598 -1.795981,1.79598 -0.98779,0 -1.795982,-0.80819 -1.795982,-1.79598 0,-0.98779 0.808192,-1.79598 1.795982,-1.79598 0.98779,0 1.795981,0.80819 1.795981,1.79598 z m 9.877898,3.59196 c 0.61049,0.98779 -0.1977,1.79599 -1.79598,1.79599 -1.59828,0 -2.40647,-0.8082 -1.79598,-1.79599 0.61049,-0.98779 1.41868,-1.79598 1.79598,-1.79598 0.3773,0 1.18549,0.80819 1.79598,1.79598 z m 15.265843,5.38795 c 0,0.98779 -0.80819,1.79598 -1.79598,1.79598 -0.98779,0 -1.79598,-0.80819 -1.79598,-1.79598 0,-0.98779 0.80819,-1.79598 1.79598,-1.79598 0.98779,0 1.79598,0.80819 1.79598,1.79598 z m 12.57188,1.79598 c 0,0.98779 -0.8082,1.79598 -1.79599,1.79598 -0.98779,0 -1.79598,-0.80819 -1.79598,-1.79598 0,-0.98779 0.80819,-1.79598 1.79598,-1.79598 0.98779,0 1.79599,0.80819 1.79599,1.79598 z m -43.103566,3.59196 c 0,0.98779 -0.808191,1.79599 -1.795981,1.79599 -0.98779,0 -1.795982,-0.8082 -1.795982,-1.79599 0,-0.98779 0.808192,-1.79598 1.795982,-1.79598 0.98779,0 1.795981,0.80819 1.795981,1.79598 z m 12.571873,3.59197 c 0,0.98779 -0.80819,1.79598 -1.79598,1.79598 -0.98779,0 -1.795985,-0.80819 -1.795985,-1.79598 0,-0.98779 0.808195,-1.79598 1.795985,-1.79598 0.98779,0 1.79598,0.80819 1.79598,1.79598 z m 13.469863,3.59196 c 0.61049,0.98779 -0.14996,1.79598 -1.68998,1.79598 -1.53998,0 -2.79997,-0.80819 -2.79997,-1.79598 0,-0.98779 0.76049,-1.79598 1.68998,-1.79598 0.92949,0 2.18948,0.80819 2.79997,1.79598 z m -50.382297,-0.15338 c 0.57827,0.93566 0.285867,2.17431 -0.649786,2.75256 -0.935653,0.57827 -2.174305,0.28587 -2.752557,-0.64979 -0.57827,-0.93565 -0.285867,-2.1743 0.649786,-2.75255 0.935652,-0.57827 2.174305,-0.28587 2.752557,0.64978 z m 12.666681,5.54133 c 0.61049,0.98779 -0.149964,1.79598 -1.689983,1.79598 -1.539982,0 -2.799971,-0.80819 -2.799971,-1.79598 0,-0.98779 0.760491,-1.79599 1.689983,-1.79599 0.929492,0 2.189481,0.8082 2.799971,1.79599 z m 11.67388,3.59196 c 0,0.98779 -0.808191,1.79598 -1.795981,1.79598 -0.98779,0 -1.795982,-0.80819 -1.795982,-1.79598 0,-0.98779 0.808192,-1.79598 1.795982,-1.79598 0.98779,0 1.795981,0.80819 1.795981,1.79598 z m -45.874236,1.67188 c 1.226799,1.98497 -1.606326,4.12833 -3.264754,2.46992 -1.707601,-1.7076 -1.389353,-4.1418 0.541489,-4.1418 0.929492,0 2.154962,0.75235 2.723265,1.67188 z m 58.446109,2.02608 c 0,1.04609 -0.80819,1.40248 -1.79598,0.79199 -0.98779,-0.61049 -1.795985,-1.46638 -1.795985,-1.90198 0,-0.4356 0.808195,-0.79199 1.795985,-0.79199 0.98779,0 1.79598,0.85589 1.79598,1.90198 z m 15.265843,3.48596 c -0.61049,0.98779 -1.46638,1.79599 -1.90198,1.79599 -0.4356,0 -0.79199,-0.8082 -0.79199,-1.79599 0,-0.98779 0.85589,-1.79598 1.90198,-1.79598 1.04609,0 1.40248,0.80819 0.79199,1.79598 z m -61.961366,0 c 0,0.98779 -0.808191,1.79599 -1.795981,1.79599 -0.98779,0 -1.795982,-0.8082 -1.795982,-1.79599 0,-0.98779 0.808192,-1.79598 1.795982,-1.79598 0.98779,0 1.795981,0.80819 1.795981,1.79598 z m 14.367853,5.38795 c 0,0.98779 -0.808192,1.79598 -1.795982,1.79598 -0.987789,0 -1.795981,-0.80819 -1.795981,-1.79598 0,-0.98779 0.808192,-1.79598 1.795981,-1.79598 0.98779,0 1.795982,0.80819 1.795982,1.79598 z m 15.24774,5.41724 c -0.62044,1.0039 -1.880429,1.36031 -2.799971,0.79199 -2.491099,-1.53959 -2.026604,-2.61727 1.128092,-2.61727 1.539982,0 2.292319,0.82138 1.671879,1.82528 z m 12.589975,1.76669 c 0.61049,0.98779 -0.149965,1.79598 -1.689983,1.79598 -1.539982,0 -2.799971,-0.80819 -2.799971,-1.79598 0,-0.98779 0.76049,-1.79599 1.689982,-1.79599 0.929493,0 2.189482,0.8082 2.799972,1.79599 z m 8.979908,1.79598 c 0.61049,0.98779 -0.1977,1.79598 -1.795983,1.79598 -1.59828,0 -2.40647,-0.80819 -1.79598,-1.79598 0.61049,-0.98779 1.41868,-1.79598 1.79598,-1.79598 0.3773,0 1.185493,0.80819 1.795983,1.79598 z M 259.47354,418.4525 c -10.29884,5.38714 -21.58772,9.4047 -35.98513,12.80666 l -20.97859,4.95702 2.60589,5.03927 c 1.43325,2.7716 3.21781,5.39312 3.96568,5.82559 1.63303,0.94437 18.19221,-2.78571 35.4834,-7.99289 13.30431,-4.00654 23.75396,-8.75007 31.86616,-14.46535 4.74766,-3.34486 4.82745,-3.66223 2.19885,-8.74537 -1.50016,-2.90102 -3.04756,-5.27457 -3.43865,-5.27457 -0.3911,0 -7.46403,3.53234 -15.71761,7.84964 z m 12.92897,-0.66571 c 0,0.98779 -0.8082,1.79598 -1.79599,1.79598 -0.98778,0 -1.79598,-0.80819 -1.79598,-1.79598 0,-0.98779 0.8082,-1.79598 1.79598,-1.79598 0.98779,0 1.79599,0.80819 1.79599,1.79598 z m -10.77589,5.38794 c 0,0.98779 -0.80819,1.79598 -1.79598,1.79598 -0.98779,0 -1.79599,-0.80819 -1.79599,-1.79598 0,-0.98779 0.8082,-1.79598 1.79599,-1.79598 0.98779,0 1.79598,0.80819 1.79598,1.79598 z m -16.16384,7.18393 c 0,0.98779 -0.80819,1.79598 -1.79598,1.79598 -0.98779,0 -1.79598,-0.80819 -1.79598,-1.79598 0,-0.98779 0.80819,-1.79598 1.79598,-1.79598 0.98779,0 1.79598,0.80819 1.79598,1.79598 z m -10.77589,1.68998 c 0,0.92949 -0.80819,2.18948 -1.79598,2.79997 -0.98779,0.61049 -1.79598,-0.14996 -1.79598,-1.68998 0,-1.53998 0.80819,-2.79997 1.79598,-2.79997 0.98779,0 1.79598,0.76049 1.79598,1.68998 z m -14.36785,5.49395 c 0,0.98779 -0.80819,1.79598 -1.79598,1.79598 -0.98779,0 -1.79598,-0.80819 -1.79598,-1.79598 0,-0.98779 0.80819,-1.79599 1.79598,-1.79599 0.98779,0 1.79598,0.8082 1.79598,1.79599 z m -9.8779,1.79598 c -0.61049,0.98779 -1.91816,1.79598 -2.90595,1.79598 -0.98779,0 -1.2965,-0.80819 -0.68601,-1.79598 0.61049,-0.98779 1.91816,-1.79598 2.90595,-1.79598 0.98779,0 1.2965,0.80819 0.68601,1.79598 z m 60.7431,-8.16983 c -5.75059,3.40891 -17.30351,8.35018 -25.67316,10.98061 -8.36964,2.63041 -16.22381,6.10479 -17.45369,7.72083 -1.44026,1.89243 -2.25649,2.1392 -2.29329,0.69327 -0.1004,-3.94974 -7.24104,-2.62145 -7.24104,1.34699 0,1.97558 -0.80819,3.59196 -1.79598,3.59196 -0.98779,0 -1.79598,-1.21229 -1.79598,-2.69397 0,-1.48169 -0.8082,-2.69397 -1.79599,-2.69397 -2.28757,0 -2.25609,0.61713 0.3199,6.27081 1.43277,3.14458 3.02731,4.28537 4.93895,3.53347 2.76441,-1.08731 20.93113,-4.38539 24.26912,-4.40594 0.92964,-0.005 0.12267,-1.15661 -1.79316,-2.55753 -1.91588,-1.40092 -2.88349,-3.14705 -2.15026,-3.88029 0.73323,-0.73323 2.98832,0.16469 5.01129,1.99553 3.58153,3.24123 3.94739,3.24024 13.92987,-0.0379 12.20034,-4.00634 22.54304,-8.9242 27.25715,-12.96054 3.12937,-2.67946 3.19844,-3.37402 0.79718,-8.01753 -1.44595,-2.79617 -2.95441,-5.08393 -3.35215,-5.08393 -0.39774,0 -5.42817,2.78911 -11.17876,6.19803 z m 10.19817,0.9859 c 0,0.98779 -0.80819,1.79598 -1.79598,1.79598 -0.98779,0 -1.79598,-0.80819 -1.79598,-1.79598 0,-0.98779 0.80819,-1.79598 1.79598,-1.79598 0.98779,0 1.79598,0.80819 1.79598,1.79598 z m -12.57187,5.38795 c 0,0.98779 -0.80819,1.79598 -1.79598,1.79598 -0.98779,0 -1.79598,-0.80819 -1.79598,-1.79598 0,-0.98779 0.80819,-1.79599 1.79598,-1.79599 0.98779,0 1.79598,0.8082 1.79598,1.79599 z m -12.57187,5.38794 c 0,0.98779 -0.80819,1.79598 -1.79598,1.79598 -0.98779,0 -1.79598,-0.80819 -1.79598,-1.79598 0,-0.98779 0.80819,-1.79598 1.79598,-1.79598 0.98779,0 1.79598,0.80819 1.79598,1.79598 z m 30.53169,-1.91001 c 0,0.92509 -8.89663,5.09197 -19.77027,9.25976 -14.41689,5.52589 -19.64476,8.33544 -19.30681,10.37582 0.25491,1.5389 -0.8875,3.0764 -2.53871,3.41667 -2.16784,0.44675 -2.75873,-0.31223 -2.12619,-2.73108 0.75798,-2.89849 0.0126,-3.24903 -5.52873,-2.60207 -6.08299,0.71017 -7.20871,1.93072 -6.53879,7.08968 0.16038,1.23473 -0.55208,2.24497 -1.58318,2.24497 -1.03109,0 -1.87471,-1.61638 -1.87471,-3.59196 0,-3.74134 -1.39494,-4.32232 -6.07026,-2.52822 -2.37585,0.91169 -2.21457,1.81784 1.12838,6.3394 3.48094,4.70824 4.68085,5.17252 11.1561,4.31661 3.9906,-0.52748 11.28947,-1.38569 16.21971,-1.90714 4.93025,-0.52144 11.79988,-1.6826 15.26584,-2.58036 3.46597,-0.89776 10.0645,-2.57188 14.6634,-3.72028 4.5989,-1.14841 10.88284,-3.62126 13.96433,-5.49522 l 5.60271,-3.40721 -2.96391,-5.83569 c -1.63016,-3.20961 -3.77005,-6.84592 -4.75535,-8.08066 -2.10744,-2.64101 -4.94356,-2.96401 -4.94356,-0.56302 z m 4.39514,3.5526 c 0.57827,0.93565 0.28587,2.1743 -0.64978,2.75255 -0.93566,0.57827 -2.17431,0.28587 -2.75256,-0.64978 -0.57827,-0.93565 -0.28587,-2.17431 0.64979,-2.75256 0.93565,-0.57827 2.1743,-0.28587 2.75255,0.64979 z m -9.78309,5.54134 c 0,0.98779 -0.80819,1.79598 -1.79598,1.79598 -0.98779,0 -1.79598,-0.80819 -1.79598,-1.79598 0,-0.98779 0.80819,-1.79599 1.79598,-1.79599 0.98779,0 1.79598,0.8082 1.79598,1.79599 z m -12.57187,5.38794 c 0,0.98779 -0.80819,1.79598 -1.79598,1.79598 -0.98779,0 -1.79598,-0.80819 -1.79598,-1.79598 0,-0.98779 0.80819,-1.79598 1.79598,-1.79598 0.98779,0 1.79598,0.80819 1.79598,1.79598 z m -12.55545,4.50973 c 1.80453,2.17434 1.69452,2.6742 -0.58851,2.6742 -3.35292,0 -5.54518,-2.92923 -3.25267,-4.34608 0.89198,-0.55128 2.6205,0.20108 3.84118,1.67188 z M 16.622018,451.2046 c -3.049738,1.1703 -3.966066,6.09378 -1.134126,6.09378 0.938705,0 2.504747,-1.41433 3.480109,-3.14297 1.420388,-2.51735 2.224629,-2.6961 4.040402,-0.89799 1.82267,1.80495 1.689354,2.24498 -0.680138,2.24498 -5.659049,0 -4.899025,3.27029 1.659325,7.1398 11.635267,6.86498 39.795953,17.79419 51.158051,19.85452 12.673182,2.29809 18.592146,1.32095 21.169466,-3.49483 1.6605,-3.10265 0.90672,-3.50364 -8.676942,-4.61595 -13.25605,-1.53852 -55.828572,-16.46611 -59.48916,-20.85923 -0.912412,-1.09499 -5.301163,-3.01232 -7.486028,-3.27046 -0.660059,-0.0779 -2.478491,0.34876 -4.040959,0.94835 z m 17.812923,7.88976 c 0.61049,0.98779 -0.149965,1.79599 -1.689983,1.79599 -1.539982,0 -2.799971,-0.8082 -2.799971,-1.79599 0,-0.98779 0.76049,-1.79598 1.689982,-1.79598 0.929493,0 2.189482,0.80819 2.799972,1.79598 z m 10.681079,5.23455 c 0.578271,0.93566 0.285867,2.17431 -0.649786,2.75256 -0.935652,0.57827 -2.174305,0.28587 -2.752557,-0.64978 -0.57827,-0.93566 -0.285866,-2.17431 0.649786,-2.75256 0.935653,-0.57827 2.174305,-0.28587 2.752557,0.64978 z m 15.360654,7.33733 c 0,0.98779 -0.808192,1.79598 -1.795982,1.79598 -0.98779,0 -1.795981,-0.80819 -1.795981,-1.79598 0,-0.98779 0.808191,-1.79599 1.795981,-1.79599 0.98779,0 1.795982,0.8082 1.795982,1.79599 z m 16.163834,3.59196 c 0,0.98779 -0.808192,1.79598 -1.795981,1.79598 -0.98779,0 -1.795982,-0.80819 -1.795982,-1.79598 0,-0.98779 0.808192,-1.79598 1.795982,-1.79598 0.987789,0 1.795981,0.80819 1.795981,1.79598 z m 11.67388,1.79598 c 0.610491,0.98779 -0.197701,1.79598 -1.795981,1.79598 -1.59828,0 -2.406472,-0.80819 -1.795982,-1.79598 0.61049,-0.98779 1.418682,-1.79598 1.795982,-1.79598 0.3773,0 1.185491,0.80819 1.795981,1.79598 z M 291.14744,463.33532 c -10.05712,4.81018 -30.01357,9.48541 -47.97897,11.24014 -11.72293,1.14499 -12.06068,1.31212 -9.15054,4.52777 1.66191,1.83639 4.04133,3.3389 5.2876,3.3389 1.24628,0 2.59115,0.97555 2.98858,2.16789 1.03864,3.11592 23.32226,3.99229 39.13364,1.53906 14.7375,-2.28658 28.69037,-7.7054 28.69037,-11.14235 0,-1.82625 -8.6629,-15.91237 -9.78603,-15.91237 -0.17475,0 -4.30777,1.90843 -9.18465,4.24096 z m 3.68673,6.56423 c -0.62045,1.0039 -1.88043,1.36031 -2.79997,0.79199 -2.4911,-1.53959 -2.0266,-2.61727 1.12809,-2.61727 1.53999,0 2.29232,0.82138 1.67188,1.82528 z m -10.75778,1.76669 c 0.61049,0.98779 -0.5541,1.79598 -2.58798,1.79598 -2.03387,0 -3.69796,-0.80819 -3.69796,-1.79598 0,-0.98779 1.16459,-1.79599 2.58797,-1.79599 1.42339,0 3.08748,0.8082 3.69797,1.79599 z m -11.67388,3.59196 c 0,0.98779 -1.21229,1.79598 -2.69398,1.79598 -1.48168,0 -2.69397,-0.80819 -2.69397,-1.79598 0,-0.98779 1.21229,-1.79598 2.69397,-1.79598 1.48169,0 2.69398,0.80819 2.69398,1.79598 z m -13.46987,3.59196 c -0.61049,0.98779 -1.46638,1.79598 -1.90198,1.79598 -0.43559,0 -0.79199,-0.80819 -0.79199,-1.79598 0,-0.98779 0.8559,-1.79598 1.90198,-1.79598 1.04609,0 1.40248,0.80819 0.79199,1.79598 z m -12.57187,0 c 0.61049,0.98779 -0.14996,1.79598 -1.68998,1.79598 -1.53998,0 -2.79997,-0.80819 -2.79997,-1.79598 0,-0.98779 0.76049,-1.79598 1.68998,-1.79598 0.92949,0 2.18948,0.80819 2.79997,1.79598 z"
     id="path9660"
     inkscape:connector-curvature="0" />
  <path
     style="fill:#3a3a3a;fill-opacity:0.58823529;stroke:none"
     d="m 113.27168,54.595182 -3.96866,43.655288 -1.13391,21.54418 -5.66952,22.11112 8.50428,11.33904 16.4416,8.50426 23.24503,3.40171 11.90599,1.70087 22.11111,-4.53563 27.78064,-10.20513 11.90599,-9.07123 -3.40171,-36.85187 -1.70085,-16.441602 2.2678,-22.11112 L 210.22043,42.122234 188.67627,23.979785 171.66771,9.239032 167.69906,3.0025579 156.92697,13.77464 l -33.45016,24.378942 -9.63818,10.772082 -1.70086,9.071233"
     id="path9664"
     inkscape:connector-curvature="0" />
  <path
     style="fill:#393939;fill-opacity:0.58849553;stroke:none"
     d="m 171.10076,94.281814 0.56695,5.102566 9.63819,0 18.70941,-6.803433 6.23647,-4.535607 -1.13391,-7.370368 -1.70085,-3.401715 -13.60684,7.370368 z"
     id="path10174"
     inkscape:connector-curvature="0" />
  <path
     style="fill:#393939;fill-opacity:0.58849553;stroke:none"
     d="m 121.209,80.108017 0,6.803412 7.93733,7.370385 15.87465,5.669516 7.37037,0 3.96867,-2.26782 -2.26781,-3.401696 -7.37037,-4.535626 -19.27637,-10.205127 z"
     id="path10176"
     inkscape:connector-curvature="0" />
  <path
     style="fill:#393939;fill-opacity:0.7522124;stroke:#000000;stroke-width:1.79598165px;stroke-linecap:butt;stroke-linejoin:miter;stroke-opacity:1"
     d="m 223.70186,121.08616 2.00448,19.64387 -1.20268,4.00895 -9.22061,5.61253 2.40538,10.42329 -1.60358,8.41881 10.82419,-6.41433 12.82864,-13.22955 12.42776,-22.04924 5.61253,-17.23852 -6.01343,-2.00447 -8.81969,2.00447 -12.02686,6.01343 -6.01343,2.80628"
     id="path10178"
     inkscape:connector-curvature="0" />
  <path
     style="fill:#393939;fill-opacity:0.79646014;stroke:#000000;stroke-width:1.79598165px;stroke-linecap:butt;stroke-linejoin:miter;stroke-opacity:1"
     d="m 68.555313,116.6763 1.603582,9.62149 4.810747,14.03134 7.617013,12.02686 8.819701,10.02241 11.625974,7.21611 4.81074,-18.4412 -4.81074,-6.41433 -2.00448,-4.81075 1.20269,-3.20716 -9.621498,-12.42776 -8.01791,-10.82418 -9.220595,-4.81074 -5.612537,1.60358 -2.405373,9.22061"
     id="path10180"
     inkscape:connector-curvature="0" />
  <path
     style="fill:#393939;fill-opacity:0.86725619;stroke:none"
     d="m 110.24845,157.16674 -4.40985,7.61701 4.81074,4.40986 12.02687,1.60357 24.85551,4.00896 28.06269,-0.80178 28.46358,-4.40985 12.02686,-2.80628 1.20268,-8.01791 -2.80626,-8.01791 -9.2206,4.81076 -13.22954,5.61253 -15.63494,5.21165 -12.02685,0.80178 -18.4412,-0.80178 -14.03134,-2.80628 z"
     id="path10182"
     inkscape:connector-curvature="0" />
  <path
     style="fill:#393939;fill-opacity:0.58849553;stroke:none"
     d="m 225.52814,171.67073 5.10256,6.80341 4.25213,6.80343 5.953,16.72508 2.55128,8.78776 3.40172,9.63817 3.96867,7.37038 5.10256,6.80342 12.18947,7.93732 13.32337,4.8191 13.32336,0.85042 3.11824,-3.96865 0.85043,-21.82765 -1.41739,-16.15814 -4.53561,-10.77208 -4.53562,-12.18945 -6.80341,-16.72508 -6.23648,-14.45728 -4.53561,-16.4416 -4.53562,-13.89032 -2.26781,0.28348 -1.41737,3.96865 -4.25214,10.77209 -6.23648,10.77208 -9.35469,11.33904 -7.37039,7.37038 z"
     id="path10184"
     inkscape:connector-curvature="0" />
  <path
     style="fill:#393939;fill-opacity:0.58849553;stroke:none"
     d="m 62.541882,129.50496 7.216118,19.24298 8.418805,12.62821 12.227312,13.22956 5.41209,5.41208 -1.60358,6.81523 -17.238508,31.67073 -4.810747,4.40986 -15.234028,11.22506 -18.842086,8.41881 -14.432237,4.81075 -2.806268,-4.00895 0,-24.45463 1.603582,-35.2788 2.004477,-8.01791 8.418804,-14.03134 27.661789,-34.47701 z"
     id="path10186"
     inkscape:connector-curvature="0"
     sodipodi:nodetypes="cccccccccccccccccc" />
  <path
     style="fill:#393939;fill-opacity:0.58849553;stroke:none"
     d="m 18.042483,261.80047 -4.810745,5.61253 1.202687,2.80628 13.630446,-5.21165 25.256415,-11.62597 13.630446,-9.62148 -8.819701,2.40535 -11.225072,4.40986 -17.238507,6.41433 z"
     id="path10188"
     inkscape:connector-curvature="0" />
  <path
     style="fill:#393939;fill-opacity:0.58849553;stroke:#000000;stroke-width:1.79598165px;stroke-linecap:butt;stroke-linejoin:miter;stroke-opacity:1"
     d="m 18.443379,280.64254 -6.414327,14.43224 3.608059,1.6036 6.815224,-4.40985 26.058206,-16.03582 13.22955,-14.03136 -10.022387,4.00897 -12.42776,5.21164 z"
     id="path10190"
     inkscape:connector-curvature="0" />
  <path
     style="fill:#393939;fill-opacity:0.58849553;stroke:none"
     d="m 258.57977,251.77808 7.61701,10.02239 8.41881,8.81969 10.82418,7.21613 19.64387,5.21163 9.62151,0.8018 -9.22061,-9.62149 -12.02686,-10.82418 -22.45015,-5.21165 z"
     id="path10192"
     inkscape:connector-curvature="0" />
  <path
     style="fill:#393939;fill-opacity:0.58849553;stroke:none"
     d="m 265.7959,276.63359 6.81521,10.02239 14.43224,12.02688 1.2027,-7.21613 -9.62151,-10.42329 -10.82416,-4.81073 z"
     id="path10194"
     inkscape:connector-curvature="0" />
  <path
     style="fill:#393939;fill-opacity:0.58849553;stroke:#000000;stroke-width:1.79598165px;stroke-linecap:butt;stroke-linejoin:miter;stroke-opacity:1"
     d="m 99.825157,204.07152 9.220603,2.80627 19.64388,2.80626 27.66179,0.4009 36.48148,-0.8018 34.07613,-4.81074 2.80625,3.60806 4.40986,16.43672 -0.4009,5.21163 2.80627,14.83314 11.62597,22.85104 7.21612,13.63044 5.21164,7.61701 -4.00896,11.62598 -3.60805,8.41881 -16.83762,23.25193 -1.20268,11.22508 10.02239,13.63044 0.80178,4.00896 -8.41879,2.80627 -15.63494,4.81074 -20.44567,4.00895 -26.0582,2.40538 -17.2385,0 -24.45463,-3.20716 -24.85552,-3.60807 -19.242981,-12.42775 8.017908,-13.63046 -2.00448,-12.42776 -12.427757,-12.82864 -8.819699,-11.22508 -6.815224,-11.62597 -4.40985,-22.04924 9.220595,-14.43224 9.621492,-13.63044 4.409851,-13.22956 2.806268,-10.82419 z"
     id="path10196"
     inkscape:connector-curvature="0" />
  <path
     style="fill:#393939;fill-opacity:0.58849553;stroke:none"
     d="m 174.50247,378.32467 9.63819,22.67808 19.84332,40.82052 18.14245,29.48149 18.14246,16.44162 13.60685,2.83476 34.58405,-3.40172 23.81198,-9.07123 0.56694,-4.53561 -62.36469,-112.25646 -7.37038,0 -8.50427,3.96865 -26.07979,5.10258 -24.37892,3.4017 -10.20514,1.13391 z"
     id="path10198"
     inkscape:connector-curvature="0" />
  <path
     style="fill:#393939;fill-opacity:0.58849553;stroke:none"
     d="m 90.02665,357.34745 15.3077,11.33903 20.97722,2.83476 32.31625,2.83476 7.37038,1.13391 -11.90599,14.1738 -19.84332,35.71796 -23.81197,38.55272 -18.709414,20.97723 -20.410266,-1.50631 -54.994326,-21.73872 -6.236469,-5.10257 17.575506,-19.27636 27.780638,-30.61539 16.441603,-26.07979 14.173795,-23.81197 z"
     id="path10200"
     inkscape:connector-curvature="0"
     sodipodi:nodetypes="ccccccccccccccccc" />
  <path
     style="fill:#393939;fill-opacity:0.58849553;stroke:#000000;stroke-width:1.79598165px;stroke-linecap:butt;stroke-linejoin:miter;stroke-opacity:1"
     d="m 109.86997,171.95421 5.66951,4.53561 3.40172,-5.10257 z"
     id="path10202"
     inkscape:connector-curvature="0" />
  <path
     style="fill:#393939;fill-opacity:0.58849553;stroke:none"
     d="m 120.0751,175.07245 7.37037,6.80341 1.98434,5.38604 -0.56696,6.80343 -4.81909,6.51995 -5.95299,1.41737 -14.07652,-7.6396 -2.08161,5.93875 2.83476,4.25213 37.13534,2.83476 -5.66951,-8.2208 -1.70086,-8.2208 4.53562,-6.51995 11.05556,-7.08689 -12.75642,-2.55128 -18.14246,-2.55128 z"
     id="path10204"
     inkscape:connector-curvature="0"
     sodipodi:nodetypes="ccccccccccccccccc" />
  <path
     style="fill:#393939;fill-opacity:0.58849553;stroke:none"
     d="m 156.36002,177.05677 7.65385,11.33904 4.53561,1.98433 3.68519,-5.66952 4.53561,-2.83476 9.35471,0 5.10256,4.8191 0,5.95298 0.56696,7.08691 -8.78776,9.35469 5.953,0 16.4416,-1.70085 -1.98433,-3.40171 -4.8191,-4.81909 -0.28346,-8.78775 3.4017,-8.78776 4.25214,-1.41737 9.63817,0 3.6852,0.28348 -9.92165,-11.90599 -7.37039,2.2678 -10.77208,3.11824 -13.60684,1.13391 z"
     id="path10206"
     inkscape:connector-curvature="0" />
  <path
     style="fill:#393939;fill-opacity:0.58849553;stroke:none"
     d="m 223.54382,194.34881 -5.10259,9.07123 1.13391,2.83474 7.65385,-2.83474 0,-5.10258 z"
     id="path10208"
     inkscape:connector-curvature="0" />
  <path
     style="fill:#393939;fill-opacity:0.58849553;stroke:none"
     d="m 166.28167,191.81177 4.25215,11.04132 4.25213,5.10256 -2.83476,1.41737 -23.24502,-1.70085 5.10256,-4.53561 10.77209,-9.92166 z"
     id="path10210"
     inkscape:connector-curvature="0"
     sodipodi:nodetypes="cccccccc" />
  <path
     style="fill:#f8e330;fill-opacity:0.58849553;stroke:none"
     d="m 108.16911,180.17501 -3.11823,8.2208 2.2678,5.38604 3.11824,4.53561 4.25214,1.98434 4.25214,1.1339 5.10256,-1.41737 3.96867,-3.40172 1.70085,-4.25215 0.85043,-5.10256 -5.38604,-7.65384 -10.48861,-2.55129 z"
     id="path10212"
     inkscape:connector-curvature="0" />
  <path
     style="fill:#f8e330;fill-opacity:0.58849553;stroke:none"
     d="m 141.91919,184.02674 7.61701,-2.40537 6.41433,-1.20268 4.40985,4.81073 2.40537,6.41433 -2.00447,5.61254 -4.40985,2.80627 -8.81971,2.80628 -7.61701,-2.80628 -4.00895,-5.21163 0,-4.00896 3.20716,-6.41433 z"
     id="path10214"
     inkscape:connector-curvature="0" />
  <path
     style="fill:#f8e330;fill-opacity:0.58849553;stroke:none"
     d="m 169.68339,194.63229 c 1.70085,5.95299 4.81908,9.07121 4.81908,9.07121 l 7.37037,1.98435 6.80343,-3.6852 3.11824,-3.96867 -0.85044,-5.66952 -4.25213,-8.2208 -9.07123,-2.83476 -4.53561,3.40172 -3.68519,5.66952 z"
     id="path10216"
     inkscape:connector-curvature="0" />
  <path
     style="fill:#f8e330;fill-opacity:0.58849553;stroke:none"
     d="m 201.71616,183.57673 -1.98433,7.93732 1.13391,7.37037 2.55128,3.11823 6.80341,1.13391 7.37039,-1.70086 3.11824,-4.53561 0,-7.37039 -2.5513,-6.23645 -7.65385,-3.68519 -7.08689,2.2678 z"
     id="path10218"
     inkscape:connector-curvature="0" />
  <path
     style="fill:#f8e330;fill-opacity:0.58849553;stroke:none"
     d="m 63.946868,119.51117 1.700853,-2.26782 2.267808,0.85043 0.850428,5.38604 1.133904,8.2208 4.535615,10.20515 5.386042,8.78774 12.189464,13.89032 6.519945,4.25214 9.638183,2.83476 -1.98433,5.66952 -3.68519,13.32336 -6.236473,13.89032 -6.236467,10.48861 -6.803422,9.07123 -8.787752,8.78776 -6.519947,5.38604 -8.504276,5.10256 -14.457271,6.23648 -22.678074,8.78775 -11.05556,1.70085 0,-3.11824 7.653849,-5.66951 14.740747,-5.66952 16.441603,-7.08689 12.756417,-7.65385 12.472939,-9.63819 3.968664,-3.96865 18.14246,-35.4345 -0.28348,-5.66952 -5.669517,-3.68517 -7.086898,-5.66952 L 74.152,151.26046 65.931197,132.83453 63.09644,121.77897 z"
     id="path10220"
     inkscape:connector-curvature="0" />
  <path
     style="fill:#f8e330;fill-opacity:0.58849553;stroke:none"
     d="m 14.83532,271.42196 -6.8152218,6.01343 3.2071628,2.40537 14.432237,-4.81075 30.868951,-11.62596 10.022387,-9.22061 16.436714,-18.04029 2.004477,-5.61253 -0.400895,-1.60358 -4.40985,1.60358 -6.815222,6.01343 -2.80627,5.61253 -10.824176,8.81971 -16.03582,8.8197 z"
     id="path10222"
     inkscape:connector-curvature="0" />
  <path
     style="fill:#f8e330;fill-opacity:0.58849553;stroke:#000000;stroke-width:1.79598165px;stroke-linecap:butt;stroke-linejoin:miter;stroke-opacity:1"
     d="m 12.830843,298.68286 -7.6170138,9.22058 0.400895,3.20716 29.2653698,-18.04029 16.436714,-12.42777 15.234028,-16.03581 12.026865,-15.63492 0,-3.20716 -3.207164,0.80178 -6.414328,8.01791 -10.824178,12.42776 -13.630446,12.02687 z"
     id="path10224"
     inkscape:connector-curvature="0" />
  <path
     style="fill:#f8e330;fill-opacity:0.58849553;stroke:#000000;stroke-width:1.79598165px;stroke-linecap:butt;stroke-linejoin:miter;stroke-opacity:1"
     d="m 216.88665,169.9954 11.22506,-7.617 9.22061,-10.02241 7.21611,-9.22059 7.61701,-13.22954 4.81075,-14.03135 3.20716,-2.40538 3.60807,2.80627 -1.2027,5.21166 -6.01343,15.23401 -6.81523,12.42777 -8.41879,9.22058 -8.01792,6.81523 -9.22059,4.81075 0,3.60806 4.00895,5.61253 4.81076,6.41433 4.81073,11.22509 4.81075,14.43222 4.40986,13.22956 7.61701,11.62596 8.8197,6.81523 16.03582,5.61253 19.64387,2.00448 8.41881,9.2206 0,2.00448 -13.63044,-1.2027 -20.44567,-2.00447 -15.63494,-9.62149 -16.4367,-16.03582 -6.81523,-14.43224 -5.21165,-15.23403 -2.40535,-10.02239 -11.62599,-21.64835 4.00896,-2.80627"
     id="path10226"
     inkscape:connector-curvature="0" />
  <path
     style="fill:#f8e330;fill-opacity:0.58849553;stroke:none"
     d="m 249.35918,245.36375 2.00448,-0.80179 3.60805,2.40537 4.00896,8.41881 11.22506,11.22506 10.42329,8.41881 16.43671,7.21613 20.44567,3.60806 6.81523,4.00895 0,3.20716 -7.61701,0 -8.8197,-0.40089 -21.64837,-8.4188 -18.04029,-9.62151 -11.22507,-12.42776 z"
     id="path10228"
     inkscape:connector-curvature="0" />
  <path
     style="fill:#f8e330;fill-opacity:0.58849553;stroke:none"
     d="m 234.52604,226.92256 3.20716,0.80178 9.22061,17.63941 12.82864,26.86 13.63046,16.03582 26.86,24.45463 4.40983,6.01343 -2.80625,1.60358 L 285.84067,312.3133 265.395,294.273 248.95828,270.21928 238.1341,245.36375 233.32335,230.53062 z"
     id="path10230"
     inkscape:connector-curvature="0" />
</svg>
