<?xml version="1.0" encoding="UTF-8" standalone="no"?>
<!-- Created with Inkscape (http://www.inkscape.org/) -->

<svg
   xmlns:dc="http://purl.org/dc/elements/1.1/"
   xmlns:cc="http://creativecommons.org/ns#"
   xmlns:rdf="http://www.w3.org/1999/02/22-rdf-syntax-ns#"
   xmlns:svg="http://www.w3.org/2000/svg"
   xmlns="http://www.w3.org/2000/svg"
   xmlns:sodipodi="http://sodipodi.sourceforge.net/DTD/sodipodi-0.dtd"
   xmlns:inkscape="http://www.inkscape.org/namespaces/inkscape"
   id="svg11928"
   version="1.1"
   inkscape:version="0.48.4 r9939"
   width="473.72003"
   height="492.54507"
   sodipodi:docname="HygieneKit.svg">
  <metadata
     id="metadata11934">
    <rdf:RDF>
      <cc:Work
         rdf:about="">
        <dc:format>image/svg+xml</dc:format>
        <dc:type
           rdf:resource="http://purl.org/dc/dcmitype/StillImage" />
        <dc:title />
      </cc:Work>
    </rdf:RDF>
  </metadata>
  <defs
     id="defs11932" />
  <sodipodi:namedview
     pagecolor="#ffffff"
     bordercolor="#666666"
     borderopacity="1"
     objecttolerance="10"
     gridtolerance="10"
     guidetolerance="10"
     inkscape:pageopacity="0"
     inkscape:pageshadow="2"
     inkscape:window-width="1252"
     inkscape:window-height="744"
     id="namedview11930"
     showgrid="false"
     inkscape:zoom="0.58706469"
     inkscape:cx="123.30251"
     inkscape:cy="127.36044"
     inkscape:window-x="2"
     inkscape:window-y="22"
     inkscape:window-maximized="0"
     inkscape:current-layer="svg11928"
     fit-margin-top="0"
     fit-margin-left="0"
     fit-margin-right="0"
     fit-margin-bottom="0" />
  <path
     style="fill:#6284e7;fill-opacity:1;stroke:none"
     d="m 233.39483,374.33388 c 14.36852,33.03532 33.17066,66.07062 59.11579,99.10594 48.78245,-3.12478 97.58827,4.76931 144.31215,-11.73624 25.28992,-27.60962 23.79339,-73.8731 35.64335,-110.84216 l -23.47246,-28.68856 c -54.07904,-3.30066 -105.58992,-0.31891 -153.87498,5.65078 -34.14181,8.93588 -46.45671,27.64259 -61.72385,46.51024 z"
     id="path12460"
     inkscape:connector-curvature="0"
     sodipodi:nodetypes="ccccccc" />
  <path
     style="fill:#a5551e;fill-opacity:1;stroke:none"
     d="m 304.24687,173.07927 73.4601,6.52014 28.68854,52.5957 c -18.85556,18.7574 -37.73335,37.42585 -59.98516,42.59816 -26.72947,-1.32441 -54.53173,0.87608 -73.46009,-26.08051 z"
     id="path12458"
     inkscape:connector-curvature="0"
     sodipodi:nodetypes="cccccc" />
  <path
     style="fill:#9b9b9b;fill-opacity:1;stroke:none"
     d="m 32.140228,353.90415 c 3.125089,-11.88111 3.632354,-23.76226 14.34428,-35.64337 19.567831,-13.18255 27.280148,2.42689 39.555437,6.95481 14.187765,-6.49121 26.238095,-16.54482 46.944915,-12.17092 9.99268,10.43222 5.18135,20.8644 6.95481,31.29662 z"
     id="path12454"
     inkscape:connector-curvature="0"
     sodipodi:nodetypes="cccccc" />
  <path
     style="fill:#75311c;fill-opacity:1;stroke:none"
     d="M 35.61763,75.712067 C 28.051317,74.004891 30.032103,67.619726 29.966852,62.237121 60.104329,60.411287 90.241803,52.35411 120.37928,58.759715 119.54323,64.555401 119.70413,70.351057 115.59786,76.146742 100.52961,126.53318 99.296576,187.29608 97.776176,247.8434 c 18.380704,14.57192 13.173174,40.93793 19.125704,61.72389 L 85.170597,323.91156 52.569961,310.87132 65.175539,286.09483 C 53.22386,272.84652 63.509466,262.37787 69.087617,251.32081 68.043994,198.78424 66.250844,146.24137 44.745808,93.53374 z"
     id="path12452"
     inkscape:connector-curvature="0"
     sodipodi:nodetypes="cccccccccccc" />
  <path
     style="fill:#eac90f;fill-opacity:1;stroke:none"
     d="M 175.14835,56.15169 C 162.25856,43.802553 141.65076,32.637688 189.92731,1.3826127 218.84275,6.849231 233.89925,17.432787 221.22391,44.850123 210.64362,55.639757 194.9841,59.245232 175.14835,56.15169 z"
     id="path11940"
     inkscape:connector-curvature="0"
     sodipodi:nodetypes="cccc" />
  <path
     style="fill:#75311c;fill-opacity:1;stroke:none"
     d="m 299.90011,57.021013 1.30403,-18.25635 c 26.5554,-10.081323 53.066,-9.903076 79.54553,-2.608054 -1.48022,11.492316 2.18582,22.24947 -6.52011,34.774025 -18.56494,16.372774 -2.81052,32.745516 6.08543,49.118296 7.47255,19.20293 -0.1634,38.51863 -4.7814,57.81178 l -73.89478,-5.21611 -7.38948,-37.81673 c 10.12055,-17.53735 18.39062,-35.537331 14.77897,-56.507749 -1.65039,-7.008308 -10.60362,-13.921892 -9.12819,-21.299108 z"
     id="path12456"
     inkscape:connector-curvature="0"
     sodipodi:nodetypes="cccccccccc" />
  <path
     style="fill:#eac90f;fill-opacity:1;stroke:#000000;stroke-width:2.88705945px;stroke-linecap:butt;stroke-linejoin:miter;stroke-opacity:1"
     d="m 176.0177,57.021013 c 2.20101,3.767208 5.11627,7.534388 1.7387,11.301567 L 9.9717973,83.101524 10.841148,89.621659 181.66848,83.101524 c 3.45408,99.250846 4.78041,198.501656 1.30403,297.752496 -34.08059,9.2234 -68.88855,17.28303 -80.41491,62.59321 2.9285,51.31387 61.51019,45.76471 116.05825,44.33686 24.29943,-4.98639 63.09853,-3.52822 70.85204,-17.82168 l -60.41982,-95.19385 -14.77896,3.4774 C 204.22238,280.8112 202.33914,182.56009 203.83691,83.970876 L 374.66424,73.538688 370.31748,62.671796 202.09821,68.32258 c -1.80366,-5.071206 2.32649,-10.142413 7.38948,-15.21362 z"
     id="path12450"
     inkscape:connector-curvature="0"
     sodipodi:nodetypes="ccccccccccccccccc" />
  <path
     style="fill:#000000"
     d="m 148.76127,489.34558 c -34.46837,-8.67873 -48.877194,-20.7555 -49.419064,-41.42055 -0.67942,-25.91145 18.954644,-47.25701 57.871974,-62.91668 l 22.55382,-9.07527 2.58274,-22.68238 c 1.60699,-14.11319 1.31384,-61.40242 -0.77599,-125.173 -1.84731,-56.36984 -3.33432,-111.84642 -3.3045,-123.28125 l 0.0543,-20.790641 -25.26177,1.485536 c -13.89397,0.817038 -28.06057,2.046521 -31.48136,2.732169 -11.44904,2.294837 -15.52303,22.367726 -18.95285,93.382176 -2.930924,60.68518 -2.807444,64.91114 1.99952,68.42605 3.38074,2.47207 5.9396,9.93174 7.52321,21.93201 4.4073,33.39765 5.61325,36.95162 12.53853,36.95162 11.80628,0 17.17263,6.80505 17.90294,22.70273 0.37246,8.10788 -0.20498,15.26779 -1.28315,15.91094 -1.0782,0.64312 -16.9009,2.04285 -35.16156,3.11046 -35.991296,2.10426 -67.442691,5.87378 -71.87759,8.61469 -11.084547,6.85062 -3.360219,-32.81429 8.301076,-42.62662 4.179307,-3.51667 8.552134,-8.31453 9.717351,-10.66191 1.165217,-2.34736 3.932291,-7.4336 6.149062,-11.30275 2.728964,-4.7631 3.158558,-8.6641 1.330299,-12.08021 -4.320052,-8.0721 -3.14421,-17.57197 2.982159,-24.09318 5.386272,-5.73344 5.537005,-8.14996 2.893036,-46.37905 C 63.68874,183.84769 60.04478,160.54978 53.465201,134.24827 L 44.076261,96.716489 22.650382,95.272963 C 10.866156,94.479021 0.81866915,92.530256 0.32261465,90.942374 -1.5152008,85.059413 4.5999377,80.355411 16.088788,78.814443 c 11.099879,-1.488799 11.723108,-2.069762 10.22995,-9.53564 -0.874548,-4.372654 -0.362499,-8.708959 1.137877,-9.636225 1.500376,-0.927295 16.896602,-2.404661 34.21382,-3.283077 17.317218,-0.878388 37.423331,-2.315826 44.680285,-3.194272 13.53133,-1.637973 22.82286,3.457831 18.64139,10.223626 -2.72723,4.412726 -7.29583,3.676007 -7.29583,-1.176534 0,-3.450556 -4.45837,-3.940403 -25.261772,-2.775504 -54.164268,3.032943 -61.748371,4.203415 -60.765241,9.378209 1.216348,6.402545 23.333591,7.737521 61.487005,3.711315 15.878828,-1.675649 49.007838,-3.861789 73.620018,-4.858142 24.61219,-0.996324 63.5875,-3.33464 86.6118,-5.196245 36.956,-2.98802 41.76382,-3.967339 41.02153,-8.35567 -1.36971,-8.097711 4.96528,-16.793014 15.41577,-21.159518 11.52404,-4.815038 59.50071,-5.590589 67.89604,-1.097545 5.53914,2.964462 7.24104,12.431245 3.83191,21.315247 -3.21312,8.373281 -6.56774,4.702385 -4.92934,-5.394038 1.45078,-8.940039 0.83644,-10.156531 -5.99523,-11.871155 -4.18638,-1.050717 -19.61119,-1.043701 -34.27734,0.01443 -28.11095,2.030382 -38.89389,7.149139 -35.22129,16.719799 1.45878,3.801477 7.87408,4.793211 36.10554,5.581465 28.52016,0.796309 35.20287,1.845322 39.47904,6.197189 4.9429,5.030383 4.88175,5.456542 -1.53849,10.721413 -9.85053,8.077906 -9.13024,20.479645 1.92044,33.065699 11.79817,13.43738 12.89491,27.41165 4.34786,55.39972 -4.49663,14.72458 -4.46155,15.05668 2.59206,24.54 11.79017,15.85146 23.12791,37.04049 19.81946,37.04049 -1.70215,0 -5.26129,-3.57274 -7.90916,-7.93942 -2.64789,-4.36668 -9.24973,-14.64074 -14.67074,-22.83121 l -9.85639,-14.8918 -27.97996,-1.38489 c -15.38895,-0.76167 -30.48891,-1.85543 -33.5554,-2.43056 -4.43672,-0.83211 -6.35716,1.60775 -9.40292,11.9461 -2.1051,7.14547 -5.65682,16.8893 -7.8927,21.65296 -2.23586,4.76365 -7.44042,16.33114 -11.56565,25.70554 -4.12522,9.37443 -8.32789,16.2169 -9.33925,15.20553 -1.01137,-1.01136 4.34199,-16.31621 11.89635,-34.0108 14.62815,-34.26353 16.0446,-43.8365 10.04312,-67.87627 -3.5182,-14.0927 -3.33475,-15.39017 3.92805,-27.78318 8.04424,-13.72647 12.43148,-33.290516 8.62622,-38.466841 -2.38682,-3.246816 -95.01417,-0.404679 -98.43932,3.020471 -2.71234,2.712305 -0.69258,210.66793 2.19546,226.04642 1.409,7.50284 3.48575,24.35972 4.615,37.45975 1.74061,20.1925 2.83943,23.81824 7.21835,23.81824 7.89097,0 14.29862,-3.1191 14.29862,-6.96018 0,-6.11419 18.24348,-21.05215 37.36392,-30.594 26.06523,-13.00756 55.10891,-17.272 116.92509,-17.16798 43.48019,0.0733 53.68005,0.92149 63.51531,5.28254 6.44429,2.85743 13.16543,7.03044 14.93583,9.27335 6.22496,7.88635 6.55752,29.11648 0.87403,55.79485 -10.54141,49.48128 -18.51102,66.34358 -36.81804,77.90031 -16.76925,10.58595 -34.19843,12.54113 -89.88675,10.08325 -38.96456,-1.71974 -51.79739,-1.37664 -57.59158,1.53976 -24.69722,12.43093 -106.12533,19.44178 -136.62221,11.76301 z m 68.53852,-4.29144 c 27.85547,-2.19333 62.89842,-8.91564 67.17577,-12.88639 1.48583,-1.37935 -6.62397,-14.90831 -16.12381,-26.89815 -5.26695,-6.64746 -14.16862,-22.83249 -19.78147,-35.96673 -11.00801,-25.75904 -15.53521,-31.09808 -26.36948,-31.09808 -6.5007,0 -6.84955,0.75373 -5.0106,10.82648 1.08709,5.95456 4.47961,15.12305 7.53894,20.37444 6.12978,10.52186 7.40837,19.36073 2.34822,16.23338 -6.72797,-4.15811 -14.19686,-27.53229 -15.76107,-49.32495 -0.89412,-12.45714 -3.48301,-38.23947 -5.75307,-57.29407 -2.64628,-22.21283 -4.38903,-70.64458 -4.85659,-134.96783 l -0.72921,-100.323098 -8.13856,-0.0022 -8.1386,-0.0022 2.36448,72.898258 c 3.52663,108.72908 2.45599,247.89771 -2.05166,266.6877 -3.97788,16.58174 -10.66012,22.14964 -7.36812,6.13942 1.06113,-5.16062 2.72434,-17.65033 3.69604,-27.75486 l 1.76673,-18.37195 -9.83104,2.02923 c -5.40706,1.11605 -18.22863,6.13549 -28.49239,11.15427 -22.50547,11.00477 -34.6239,26.2604 -36.89982,46.45235 -1.28365,11.3883 -0.46413,14.56392 5.37024,20.80967 9.68652,10.36953 20.47148,15.38109 42.57613,19.78438 24.11356,4.80343 21.3654,4.7374 62.46894,1.50095 z m 209.3118,-22.19245 c 7.14547,-3.17236 14.4758,-7.60301 16.28963,-9.84591 4.23907,-5.24192 16.728,-45.20229 21.1251,-67.59334 1.87096,-9.52729 4.03854,-19.56165 4.81686,-22.29858 1.5039,-5.28851 2.45559,-5.4922 -23.4657,5.02242 -3.17577,1.28817 -6.7485,2.61677 -7.93942,2.95239 -1.19091,0.33565 -2.49008,0.86032 -2.88705,1.16597 -0.39698,0.30565 -5.26889,1.1112 -10.82648,1.79009 -5.55759,0.67889 -21.7973,3.10879 -36.08824,5.39976 -14.29095,2.29094 -34.10339,5.02331 -44.02766,6.07189 -9.92427,1.0486 -18.04412,3.15483 -18.04412,4.6805 0,1.54019 -1.60512,1.73512 -3.60882,0.43831 -4.54715,-2.94298 -74.32613,-3.10292 -74.33514,-0.17034 -0.003,1.19092 9.66051,2.1653 21.47591,2.1653 12.76071,0 22.29511,1.31474 23.48391,3.23827 1.44954,2.34536 -4.136,2.72212 -20.25704,1.36644 -14.93906,-1.2563 -21.65601,-0.89709 -20.42646,1.09232 1.00755,1.6303 10.77283,2.96415 21.70058,2.96415 10.92774,0 20.67157,1.29917 21.65294,2.88706 1.12517,1.82055 -5.74416,2.88706 -18.59549,2.88706 -12.1859,0 -20.37981,1.20734 -20.37981,3.00288 0,1.85797 7.66947,2.73936 20.11521,2.31167 11.06335,-0.38017 21.02371,0.2174 22.1341,1.3277 1.97275,1.97276 -15.59535,3.15088 -31.42284,2.10727 -9.80275,-0.64639 -9.88942,1.47569 -0.61768,15.12031 7.2889,10.72658 7.41509,10.7758 28.14882,10.97781 11.4549,0.11144 23.42546,1.38108 26.60122,2.82109 3.68242,1.66973 -3.11563,2.00619 -18.76589,0.92885 l -24.53999,-1.6893 7.49283,7.73896 c 6.62863,6.84641 10.29147,7.91863 31.75766,9.29654 29.09292,1.86749 34.74613,4.43036 8.36996,3.79452 -26.20287,-0.63166 -32.56124,0.4899 -17.30634,3.05275 7.14548,1.20041 33.7786,1.86322 59.18472,1.47289 38.89418,-0.59757 48.24574,-1.62109 59.18472,-6.47764 z M 303.1898,456.71116 c -6.7485,-0.48826 -12.27,-1.96262 -12.27,-3.27638 0,-2.01785 37.31409,-0.78898 39.83091,1.31179 1.84284,1.5382 -15.93718,2.80559 -27.56091,1.96459 z m -20.20942,-19.96662 c -16.80605,-2.08561 -9.88993,-5.15467 9.37688,-4.16103 10.32459,0.53246 18.77195,2.15643 18.77195,3.60883 0,2.61258 -9.97,2.80818 -28.14883,0.5522 z m -18.04411,-12.3468 c 0,-3.48468 25.09192,-3.48468 33.20117,0 4.01917,1.7271 -0.14897,2.5429 -13.71353,2.68413 -11.20233,0.11664 -19.48764,-1.02453 -19.48764,-2.68413 z m 7.87928,-45.05016 c -0.95937,-0.95934 -3.44946,-1.06189 -5.53354,-0.22779 -2.3031,0.92161 -1.61901,1.60572 1.74427,1.74424 3.04342,0.1253 4.74861,-0.557 3.78927,-1.51634 z m 9.44307,-2.58632 c -1.97674,-2.38182 -5.05896,-4.28927 -6.84937,-4.23878 -1.79044,0.0505 -0.73346,1.99929 2.34883,4.33059 7.19936,5.44534 9.06437,5.40729 4.50054,-0.0918 z m 23.81824,2.41855 c -1.98486,-0.8009 -5.2328,-0.8009 -7.21765,0 -1.98485,0.8009 -0.36088,1.4562 3.60882,1.4562 3.96971,0 5.59368,-0.6553 3.60883,-1.4562 z m 18.74302,-1.21906 c -2.79138,-1.62553 -6.36412,-2.15894 -7.93941,-1.18537 -1.5753,0.9736 -2.8642,-0.76585 -2.8642,-3.86543 0,-3.0996 -1.94876,-6.38343 -4.33059,-7.29744 -2.38182,-0.91399 -4.33059,-0.18102 -4.33059,1.62908 0,6.15628 9.53117,13.85055 17.04806,13.76247 6.50368,-0.0762 6.82247,-0.47764 2.41673,-3.04331 z m 24.92751,0.82189 c 0.78493,-1.27008 -1.08715,-3.87943 -4.1602,-5.79857 -3.07307,-1.91918 -5.58738,-2.93505 -5.58738,-2.25751 0,0.67753 -0.78857,3.28689 -1.75242,5.79857 -1.24643,3.24812 -0.0453,4.56672 4.1602,4.56672 3.25195,0 6.55486,-1.03914 7.3398,-2.30921 z m -96.35936,-1.71249 c 0,-0.62407 -1.94876,-1.88245 -4.33059,-2.79646 -2.38182,-0.91399 -4.33059,-0.40338 -4.33059,1.13464 0,1.53805 1.94877,2.79646 4.33059,2.79646 2.38183,0 4.33059,-0.5106 4.33059,-1.13464 z m 41.346,-8.36202 c -0.88332,-1.42924 -2.85076,-1.28281 -4.46596,0.33239 -1.58788,1.58788 -1.92841,4.43813 -0.75678,6.33389 1.61851,2.61879 2.6914,2.53893 4.46596,-0.33236 1.28463,-2.07857 1.62518,-4.92882 0.75678,-6.33392 z m 76.19822,7.70403 c 5.91484,-1.58572 6.04002,-2.06618 1.67551,-6.43067 -3.45087,-3.4509 -5.03746,-3.75522 -5.91126,-1.13386 -0.65689,1.97068 -2.47279,3.58304 -4.03535,3.58304 -1.56257,0 -2.07456,-2.41493 -1.13777,-5.36652 0.93867,-2.95745 -0.0733,-6.84092 -2.25427,-8.65099 -3.05315,-2.53388 -5.13726,-1.9809 -9.11985,2.41982 -4.9845,5.50785 -4.92503,5.9019 1.72707,11.442 7.52264,6.26515 9.50957,6.6965 19.05592,4.13718 z m -33.8195,-8.31208 c 0,-4.26597 -7.90708,-8.02449 -11.80877,-5.6131 -3.8386,2.37238 -3.20755,9.25984 0.98229,10.72135 5.23537,1.82621 10.82648,-0.81184 10.82648,-5.10825 z m 50.28261,0.41323 c -1.0012,-2.60909 -2.98054,-4.74381 -4.39855,-4.74381 -3.93945,0 -3.06813,8.005 1.03065,9.46886 4.88006,1.74289 5.51048,0.85841 3.3679,-4.72505 z m -131.12027,1.0303 c 0,-1.58788 -1.37586,-2.88705 -3.05745,-2.88705 -1.6816,0 -2.25451,1.29917 -1.27314,2.88705 0.98137,1.58789 2.35723,2.88706 3.05746,2.88706 0.70022,0 1.27313,-1.29917 1.27313,-2.88706 z m 29.08712,-3.681 c -0.3571,-3.45205 -4.31699,-2.78353 -5.55759,0.9383 -0.63516,1.90546 0.40419,2.9448 2.30964,2.30965 1.90546,-0.63516 3.36704,-2.09673 3.24795,-3.24795 z m 118.15291,-0.64958 c 0,-2.38183 -1.29918,-4.33059 -2.88706,-4.33059 -1.58789,0 -2.88706,1.94876 -2.88706,4.33059 0,2.38182 1.29917,4.33058 2.88706,4.33058 1.58788,0 2.88706,-1.94876 2.88706,-4.33058 z m 22.66875,1.76898 c 3.06606,-1.94293 2.50095,-3.45514 -2.63579,-7.05305 -8.03573,-5.62844 -12.4275,-3.52663 -8.39095,4.01575 3.30828,6.1816 5.22964,6.71083 11.02674,3.0373 z m -123.71584,-6.26997 c 0,-1.49417 -1.29917,-2.71666 -2.88706,-2.71666 -1.58788,0 -2.88705,2.02544 -2.88705,4.50098 0,2.47554 1.29917,3.69803 2.88705,2.71667 1.58789,-0.98137 2.88706,-3.00682 2.88706,-4.50099 z m -41.86235,0.17034 c -0.98137,-1.58788 -3.08347,-2.88706 -4.67135,-2.88706 -1.58788,0 -2.08414,1.29918 -1.10277,2.88706 0.98137,1.58788 3.08347,2.88706 4.67135,2.88706 1.58788,0 2.08414,-1.29918 1.10277,-2.88706 z m 60.38732,-1.85676 c 1.0012,-2.60909 1.17159,-5.39256 0.37863,-6.18552 -2.2983,-2.29833 -10.34696,5.53747 -8.59671,8.36941 2.47736,4.00842 6.22393,3.01282 8.21808,-2.18389 z m 27.66799,-5.61282 c 0,-2.13154 -2.52898,-5.22898 -5.61998,-6.88324 -4.42015,-2.36557 -6.22569,-1.92538 -8.4571,2.06191 -3.89657,6.96278 4.42463,16.70765 10.18471,11.9272 2.14082,-1.7767 3.89237,-4.97435 3.89237,-7.10587 z m 28.87059,4.24176 c 0,-1.58788 -1.29918,-2.08414 -2.88706,-1.10277 -1.58788,0.98137 -2.88706,3.08347 -2.88706,4.67135 0,1.58788 1.29918,2.08414 2.88706,1.10277 1.58788,-0.98137 2.88706,-3.08347 2.88706,-4.67135 z m 67.8459,3.22782 c 0.98137,-1.58788 0.40846,-2.88706 -1.27314,-2.88706 -1.68159,0 -3.05745,1.29918 -3.05745,2.88706 0,1.58788 0.57291,2.88706 1.27313,2.88706 0.70023,0 2.07609,-1.29918 3.05746,-2.88706 z m -167.44944,-2.88706 c 0.98137,-1.58788 0.48511,-2.88706 -1.10277,-2.88706 -1.58789,0 -3.68998,1.29918 -4.67135,2.88706 -0.98137,1.58788 -0.48511,2.88706 1.10277,2.88706 1.58788,0 3.68998,-1.29918 4.67135,-2.88706 z m 116.38457,-2.70662 c 0.72177,-2.16529 -0.36088,-3.24794 -2.52617,-2.52618 -2.08411,0.69469 -4.35767,2.96825 -5.05236,5.05236 -0.72176,2.16529 0.36089,3.24794 2.52618,2.52617 2.08408,-0.69471 4.35764,-2.96827 5.05235,-5.05235 z m 42.58367,2.4154 c 1.08034,-1.74803 -0.77731,-5.91983 -4.12812,-9.27066 -4.70288,-4.70285 -6.87435,-5.31046 -9.52074,-2.66407 -2.6464,2.6464 -2.22243,4.76085 1.85892,9.27067 5.97462,6.60189 8.94186,7.27239 11.78994,2.66406 z m -167.6099,-8.30847 c -1.17492,-3.70181 -0.24685,-5.10492 3.18064,-4.80937 2.66175,0.22952 5.41246,-1.20668 6.11263,-3.19153 1.91214,-5.42034 -3.25701,-4.35334 -11.91917,2.46032 -6.08018,4.78267 -7.01131,6.9178 -4.39281,10.07292 4.35176,5.24354 9.14009,2.1515 7.01871,-4.53234 z m 24.01524,4.19692 c -0.51606,-1.54818 -2.56227,-2.63444 -4.54712,-2.4139 -1.98485,0.22058 -3.60882,-1.40342 -3.60882,-3.60882 0,-2.2054 -1.29918,-4.00981 -2.88706,-4.00981 -4.62983,0 -3.331,6.24462 2.16529,10.41045 5.56957,4.22137 10.34307,4.01818 8.87771,-0.37792 z m 77.18354,1.23867 c 1.07555,-1.74026 -0.19401,-5.313 -2.82109,-7.93942 -4.13923,-4.13811 -5.12588,-4.21037 -7.3941,-0.54155 -1.62802,2.63326 -1.45491,5.63464 0.45791,7.93941 3.76808,4.54025 7.16927,4.72903 9.75728,0.54156 z m 41.14981,-2.42958 c 0.72177,-2.16529 -0.36088,-3.24794 -2.52618,-2.52618 -2.08411,0.69469 -4.35767,2.96828 -5.05235,5.05236 -0.72177,2.16529 0.36088,3.24794 2.52618,2.52618 2.08408,-0.69472 4.35764,-2.96828 5.05235,-5.05236 z m 40.96016,2.70662 c 0,-1.58788 -1.37586,-2.88706 -3.05746,-2.88706 -1.68159,0 -2.2545,1.29918 -1.27313,2.88706 0.98137,1.58788 2.35722,2.88706 3.05745,2.88706 0.70023,0 1.27314,-1.29918 1.27314,-2.88706 z m -140.53019,-4.04832 c 1.80476,-4.70317 -0.62003,-8.03579 -4.22547,-5.80752 -3.2795,2.02686 -3.20499,9.85584 0.0938,9.85584 1.418,0 3.27724,-1.82176 4.13167,-4.04832 z m 74.12782,-0.28236 c 2.94356,-3.54678 2.74629,-4.33059 -1.09004,-4.33059 -2.57624,0 -4.68408,1.94877 -4.68408,4.33059 0,2.38183 0.49051,4.33059 1.09004,4.33059 0.5995,0 2.70734,-1.94876 4.68408,-4.33059 z M 98.930336,344.6226 c 19.858954,-1.10317 35.549984,-3.28079 36.765814,-5.10241 3.59866,-5.39167 2.43592,-15.53082 -2.32732,-20.29404 -6.29232,-6.29232 -24.04381,-5.77986 -31.36536,0.90547 -10.252012,9.3612 -17.442003,9.89078 -26.846512,1.97741 -7.504796,-6.31487 -9.804743,-6.85016 -18.782141,-4.37139 -12.33424,3.40563 -14.922171,6.41716 -18.659729,21.71372 l -2.875916,11.77025 14.723224,-2.33724 c 8.097769,-1.2855 30.313345,-3.20328 49.36794,-4.26177 z m -49.639959,-5.81142 c -0.907662,-2.36531 -0.178709,-5.77224 1.620131,-7.57096 2.435841,-2.43584 3.270404,-2.3863 3.270404,0.19401 0,1.90546 1.948765,3.46447 4.330589,3.46447 6.42798,0 5.244777,4.8616 -1.620131,6.65684 -3.726472,0.97447 -6.567541,-0.0514 -7.600993,-2.74441 z m 354.226873,3.59607 c -2.24815,-2.24816 -3.85529,-1.95549 -5.70598,1.03896 -3.62722,5.86899 -0.39498,9.75139 4.6397,5.57298 3.01409,-2.50146 3.31444,-4.36379 1.06628,-6.61194 z m -98.98601,-3.52057 c -2.76846,-2.76846 -11.00085,4.77728 -8.90747,8.16449 1.04298,1.68757 3.59231,0.99803 6.29226,-1.70192 2.49638,-2.49638 3.67323,-5.40455 2.61521,-6.46257 z m 26.42884,6.57291 c 1.76852,-2.13094 2.37195,-4.71803 1.34089,-5.74906 -2.16671,-2.16674 -9.62352,3.32693 -9.62352,7.08996 0,3.80104 4.63841,3.05012 8.28263,-1.3409 z m 108.43252,-3.2812 c -8.43922,-6.38465 -12.32771,-5.02513 -4.43261,1.54977 3.79769,3.16266 7.60038,5.05478 8.45042,4.20472 0.85007,-0.85004 -0.95796,-3.43956 -4.01781,-5.75449 z m -81.1305,0.20931 c 0.85674,-2.23265 -0.76674,-6.16295 -3.60775,-8.73402 -4.61797,-4.17922 -5.5528,-4.20797 -8.81997,-0.27138 -2.91838,3.51641 -2.93054,5.27575 -0.0603,8.73402 4.52018,5.44649 10.4528,5.57534 12.48818,0.27138 z m 20.47454,1.55812 c 0.85021,-1.37568 -0.86136,-4.67969 -3.8035,-7.34228 -4.46507,-4.04085 -5.60961,-4.1628 -6.92395,-0.73768 -2.56524,6.68487 7.09348,13.95983 10.72745,8.07996 z m 41.55951,-3.09247 c 0.72176,-2.1653 -0.36088,-3.24795 -2.52618,-2.52618 -2.08411,0.69468 -4.35767,2.96827 -5.05235,5.05235 -0.72177,2.1653 0.36088,3.24794 2.52618,2.52618 2.08408,-0.69468 4.35764,-2.96827 5.05235,-5.05235 z m -99.06223,-5.95459 c -1.39682,-2.26011 -3.0576,-2.42782 -4.98231,-0.5031 -1.58789,1.58788 -1.94418,4.41261 -0.79181,6.27722 1.39682,2.2601 3.0576,2.42781 4.98232,0.50309 1.58788,-1.58788 1.94417,-4.41261 0.7918,-6.27721 z m 74.66406,4.33059 c 0.99281,-2.58721 0.0231,-4.33059 -2.4078,-4.33059 -4.74835,0 -7.96658,4.14261 -5.29423,6.81496 3.04238,3.04238 5.93986,2.10775 7.70203,-2.48437 z m 52.76604,0 c -1.01226,-2.63794 -0.006,-4.33059 2.57817,-4.33059 7.08317,0 4.73674,-5.53943 -3.18904,-7.52868 -11.26938,-2.82845 -15.22107,3.14857 -6.74666,10.20443 8.4297,7.01862 9.50897,7.26136 7.35753,1.65484 z m -150.52658,-4.33059 c 5.22117,-5.76933 3.07594,-7.32719 -5.53798,-4.02171 -4.71829,1.81057 -6.45223,9.79583 -2.12713,9.79583 1.34179,0 4.79108,-2.59836 7.66511,-5.77412 z m 114.03885,-1.96742 c 0,-3.67 -0.80352,-3.84683 -4.2988,-0.94603 -2.36433,1.96225 -3.57374,4.74087 -2.68756,6.17473 2.2776,3.68524 6.98636,0.16109 6.98636,-5.2287 z m -99.84635,-2.77152 c 1.52053,-3.96243 1.09806,-4.14102 -2.57817,-1.09004 -5.00974,4.15774 -5.53115,5.82898 -1.8185,5.82898 1.418,0 3.39651,-2.13253 4.39667,-4.73894 z m 30.55693,-1.03518 c 1.69961,-3.17577 1.94668,-5.77412 0.54903,-5.77412 -1.39766,0 -4.89264,2.59835 -7.76668,5.77412 -4.61217,5.09638 -4.67661,5.77412 -0.54903,5.77412 2.57205,0 6.06706,-2.59836 7.76668,-5.77412 z m 20.11463,-5.28563 c -8.23433,-1.27354 -10.23734,1.2371 -5.52087,6.92008 3.53914,4.26442 4.2014,4.20893 7.78216,-0.65199 3.46037,-4.69747 3.19837,-5.42371 -2.26129,-6.26809 z m 23.19126,6.63856 c 0,-4.60968 -7.67271,-9.07787 -10.5859,-6.16471 -0.9216,0.92164 -0.90636,3.68048 0.0341,6.13079 2.21409,5.76984 10.55197,5.79661 10.55197,0.0341 z M 432.356,323.8218 c -4.03484,-1.34496 -11.87361,5.27968 -9.9432,8.40314 0.83144,1.34534 4.09541,0.23385 7.25321,-2.46997 3.15784,-2.70379 4.36833,-5.37374 2.68999,-5.93317 z m -98.90837,0.67534 c -0.50469,-0.50468 -3.89387,-0.13915 -7.53148,0.81196 -4.79341,1.2535 -5.58002,2.36851 -2.85781,4.05095 3.28057,2.02749 12.81629,-2.43587 10.38929,-4.86291 z m 71.38771,4.82699 c 2.13512,-3.45465 -3.29593,-6.87764 -7.14143,-4.50098 -3.22877,1.99548 -1.10912,7.18855 2.93415,7.18855 1.40045,0 3.29373,-1.20942 4.20728,-2.68757 z m 14.5586,-3.08655 c 0.98137,-1.58788 -0.3178,-2.88706 -2.88706,-2.88706 -2.56925,0 -3.86843,1.29918 -2.88706,2.88706 0.98137,1.58788 2.28055,2.88706 2.88706,2.88706 0.60652,0 1.90569,-1.29918 2.88706,-2.88706 z M 102.96408,312.60306 c 15.75587,-13.82555 9.60089,-21.46941 -17.610346,-21.87031 -17.356626,-0.25579 -18.247688,0.0849 -23.430046,8.9584 -5.304828,9.08315 -5.299747,9.22422 0.33282,9.22422 3.146029,0 8.787112,2.55513 12.535756,5.67806 9.403355,7.83378 17.639097,7.25192 28.171816,-1.99037 z m -30.380214,-7.92304 c -3.203106,-8.34715 0.485603,-9.81771 7.161842,-2.85516 6.754709,7.0444 6.758808,7.09051 0.631169,7.09051 -3.392266,0 -6.89912,-1.9059 -7.793011,-4.23535 z m 29.448384,-21.07063 c 5.33618,-3.64886 3.02047,-26.87188 -3.127814,-31.36764 -6.430405,-4.70201 -6.546695,-7.38071 -3.220283,-74.17043 2.200773,-44.1887 5.747507,-68.97067 12.019377,-83.982225 2.17087,-5.195956 1.25097,-5.404402 -15.928138,-3.608824 -10.027624,1.048089 -23.68457,1.905632 -30.348741,1.905632 l -12.116671,0 6.889535,25.261767 c 9.985155,36.61242 15.160036,67.28902 17.21415,102.04535 1.692163,28.63174 1.395431,31.1486 -4.634135,39.30399 -9.322719,12.60967 -7.147233,22.02252 5.610798,24.27653 14.833683,2.62073 24.135208,2.73373 27.641922,0.33585 z M 74.618261,270.66183 c 0.152437,-4.34052 0.774916,-5.05897 1.876416,-2.1653 0.906681,2.38183 3.077692,5.28508 4.824449,6.45169 1.958957,1.30832 1.239935,2.13801 -1.876444,2.16529 -3.394373,0.0297 -4.97755,-2.08749 -4.824421,-6.45168 z M 359.07328,173.22357 c 11.28679,0 13.2143,-0.95339 16.05159,-7.93941 1.77346,-4.36668 3.83771,-15.29189 4.58719,-24.27827 1.24949,-14.98141 0.51554,-17.61981 -8.83449,-31.75765 -7.59986,-11.491511 -9.80379,-17.441048 -8.65266,-23.35822 l 1.54449,-7.939414 -25.59831,0.01732 -25.59835,0.01732 -0.26561,13.846597 c -0.18275,9.536977 -2.73433,18.059397 -8.19777,27.382037 -9.24936,15.78282 -8.49844,29.8695 2.30474,43.23532 6.29223,7.78484 26.81252,14.56677 35.98702,11.8937 2.11483,-0.61639 9.61726,-1.12049 16.67216,-1.12049 z m -46.33684,-23.73888 c -5.05599,-7.21845 -5.99536,-21.18558 -1.60723,-23.8976 1.71815,-1.06186 2.88706,2.3759 2.88706,8.49078 0,6.4257 2.16319,12.43829 5.77412,16.04922 4.28933,4.28934 4.70262,5.77412 1.60723,5.77412 -2.29178,0 -6.18931,-2.88743 -8.66118,-6.41652 z M 97.486806,83.698943 C 135.52223,79.905116 324.84032,71.032028 352.99157,71.723796 c 17.65111,0.433752 21.88663,-0.170914 17.96496,-2.56469 -6.52282,-3.981486 -83.29617,-3.873568 -120.45556,0.16947 -15.08488,1.641207 -56.65855,4.202693 -92.38591,5.692213 C 89.358808,77.887264 33.390417,82.547988 16.649138,86.801176 4.6462461,89.850574 55.303805,87.906631 97.486806,83.699059 z M 319.79039,275.07655 c -16.20325,-2.90681 -11.63996,-6.37131 6.198,-4.70559 12.03329,1.1237 21.03534,0.54692 25.05708,-1.60544 5.07311,-2.71505 6.27669,-2.57387 6.27669,0.73626 0,6.67321 -17.18239,9.22539 -37.53177,5.57477 z m -32.76044,-12.52323 c -4.21211,-3.31325 -7.65839,-7.38807 -7.65839,-9.05512 0,-2.00197 1.33584,-1.92238 3.93466,0.23443 3.17192,2.63245 5.07877,0.0424 9.83658,-13.36004 3.24604,-9.14401 6.75971,-19.54866 7.80811,-23.12139 1.04844,-3.57274 2.94238,-6.49589 4.20882,-6.49589 1.2664,0 -1.40095,11.30258 -5.92748,25.11684 -6.15392,18.78082 -7.35118,25.66004 -4.74604,27.2701 1.9162,1.1843 2.74559,2.89168 1.84307,3.79417 -0.90252,0.90253 -5.0872,-1.06988 -9.29933,-4.38313 z m 40.02145,-9.21385 c 1.09694,-6.7485 3.3291,-13.56918 4.96038,-15.15706 2.02371,-1.9699 2.39799,0.78158 1.17815,8.66118 -0.98325,6.35153 -1.80205,13.17221 -1.81951,15.15706 -0.0173,1.98485 -1.44515,3.60882 -3.17262,3.60882 -2.08322,0 -2.46925,-4.13158 -1.1464,-12.27 z m 44.96053,8.98485 c 0.36091,-2.16287 -0.0904,-5.88126 -1.00277,-8.26308 -6.91052,-18.03887 -15.77772,-49.08002 -14.02022,-49.08002 1.18641,0 5.80056,11.65466 10.25368,25.89924 7.32678,23.4368 8.61253,25.62308 13.52336,22.99491 6.72096,-3.59696 7.0015,-14.38891 0.71824,-27.62986 -2.58969,-5.45738 -3.93751,-10.69355 -2.99515,-11.63588 0.94237,-0.94237 3.28655,1.7393 5.20927,5.95926 2.50761,5.5036 4.14611,6.6293 5.79583,3.98192 1.5252,-2.44756 2.9657,-0.38565 4.27654,6.12132 1.81744,9.0218 2.28707,9.38756 5.83071,4.54134 5.64726,-7.72308 8.06638,-3.09008 2.67939,5.13152 -5.82473,8.88963 -31.15377,27.28196 -30.26888,21.97933 z M 391.052,239.08461 c -0.92161,-2.30309 -1.60573,-1.61897 -1.74425,1.74428 -0.1253,3.04345 0.55697,4.74861 1.51634,3.78926 0.95934,-0.95934 1.06189,-3.44943 0.22779,-5.53354 z m -87.22633,12.98083 c 1.75228,-13.73758 7.45838,-29.77872 9.04634,-25.43127 0.57999,1.58788 -1.56545,10.68212 -4.76763,20.20942 -5.32749,15.85059 -5.69103,16.29427 -4.27871,5.22185 z m 55.34011,-1.81804 c -1.20021,-6.06733 -2.89459,-12.88801 -3.7653,-15.15706 -0.87074,-2.26906 -0.20383,-4.12558 1.48199,-4.12558 3.50396,0 7.31569,16.97773 5.60687,24.97347 -0.70508,3.2991 -1.97556,1.12367 -3.32356,-5.69083 z M 169.03822,55.575895 C 154.70899,39.148555 154.75879,26.867784 169.21635,11.669812 178.98287,1.4030531 181.88197,0 193.32939,0 c 15.40024,0 31.19645,9.306176 35.22107,20.750134 3.15723,8.977542 -1.282,21.631351 -11.43033,32.581563 -5.8738,6.337904 -9.18704,7.296552 -25.21851,7.296552 -13.97383,0 -19.52663,-1.227058 -22.86334,-5.052354 z m 39.69992,-2.93126 c 6.87353,-4.881614 15.7793,-19.251115 15.7793,-25.459996 0,-7.902402 -16.16836,-21.4105201 -25.62703,-21.4105201 -9.9385,0 -25.13762,7.4119481 -30.29331,14.7727081 -6.33291,9.041462 -5.92664,17.543968 1.27574,26.700306 5.09889,6.48217 8.19391,7.600472 20.93118,7.562796 8.22113,-0.0231 16.2915,-0.99872 17.93412,-2.165294 z"
     id="path11938"
     inkscape:connector-curvature="0" />
</svg>
