<?xml version="1.0" encoding="UTF-8" standalone="no"?>
<!-- Created with Inkscape (http://www.inkscape.org/) -->

<svg
   xmlns:osb="http://www.openswatchbook.org/uri/2009/osb"
   xmlns:dc="http://purl.org/dc/elements/1.1/"
   xmlns:cc="http://creativecommons.org/ns#"
   xmlns:rdf="http://www.w3.org/1999/02/22-rdf-syntax-ns#"
   xmlns:svg="http://www.w3.org/2000/svg"
   xmlns="http://www.w3.org/2000/svg"
   xmlns:sodipodi="http://sodipodi.sourceforge.net/DTD/sodipodi-0.dtd"
   xmlns:inkscape="http://www.inkscape.org/namespaces/inkscape"
   id="svg15551"
   version="1.1"
   inkscape:version="0.48.4 r9939"
   width="423.33554"
   height="492.83014"
   sodipodi:docname="Jerky.svg">
  <metadata
     id="metadata15557">
    <rdf:RDF>
      <cc:Work
         rdf:about="">
        <dc:format>image/svg+xml</dc:format>
        <dc:type
           rdf:resource="http://purl.org/dc/dcmitype/StillImage" />
        <dc:title />
      </cc:Work>
    </rdf:RDF>
  </metadata>
  <defs
     id="defs15555">
    <linearGradient
       id="linearGradient17535"
       osb:paint="solid">
      <stop
         style="stop-color:#951e1e;stop-opacity:1;"
         offset="0"
         id="stop17537" />
    </linearGradient>
  </defs>
  <sodipodi:namedview
     pagecolor="#ffffff"
     bordercolor="#666666"
     borderopacity="1"
     objecttolerance="10"
     gridtolerance="10"
     guidetolerance="10"
     inkscape:pageopacity="0"
     inkscape:pageshadow="2"
     inkscape:window-width="1279"
     inkscape:window-height="752"
     id="namedview15553"
     showgrid="false"
     inkscape:zoom="0.47011953"
     inkscape:cx="167.40734"
     inkscape:cy="108.99251"
     inkscape:window-x="1"
     inkscape:window-y="22"
     inkscape:window-maximized="0"
     inkscape:current-layer="svg15551"
     fit-margin-top="0"
     fit-margin-left="0"
     fit-margin-right="0"
     fit-margin-bottom="0" />
  <path
     style="fill:#750d0d;fill-opacity:1;stroke:none"
     d="m 157.88009,452.70344 22.22294,-36.7824 37.93226,-4.98067 10.34517,4.21442 c 7.27419,-6.3848 12.04221,-12.74107 21.83979,-19.15644 l 4.59785,6.51319 9.57887,2.6819 c 4.40463,-2.36806 -2.8098,8.17409 -4.21471,12.26012 l -24.52186,42.14823 -22.98926,13.40951 z"
     id="path17549"
     inkscape:connector-curvature="0"
     sodipodi:nodetypes="ccccccccccc" />
  <path
     style="fill:#650d0d;fill-opacity:1;stroke:none"
     d="m 274.24254,183.99163 7.85699,-7.31409 12.19191,3.25048 0.27092,23.03052 c 8.82335,15.3659 7.53358,20.84383 7.58607,27.63417 l 14.0884,-0.54208 -11.92095,34.67926 -24.92564,42.80648 -13.54656,47.14318 -32.51171,-65.56596 c 6.12452,-38.79586 27.02721,-70.20426 40.91057,-105.12196 z"
     id="path17543"
     inkscape:connector-curvature="0"
     sodipodi:nodetypes="ccccccccccc" />
  <path
     style="fill:#580000;fill-opacity:1;stroke:none"
     d="m 194.31791,214.33624 47.68386,-106.2041 18.96515,3.79257 7.58608,15.71439 19.50702,9.75348 c -1.09013,8.14963 2.46235,16.88008 -3.79304,24.38369 l -11.92095,24.92579 -39.55592,101.32736 z"
     id="path17541"
     inkscape:connector-curvature="0"
     sodipodi:nodetypes="ccccccccc" />
  <path
     style="fill:#580000;fill-opacity:1;stroke:none"
     d="m 78.276984,444.09731 25.195206,-48.09896 13.79356,0 c 6.69345,-23.64597 20.05194,-42.53136 31.41864,-62.83719 l 11.49463,-33.7194 42.14696,71.26806 -34.48388,62.83718 -28.98027,57.82799 c -7.02563,-1.89934 -16.79457,0.81924 -24.56835,-14.9624 L 94.911318,464.87185 c -0.52076,-5.98944 -3.68641,-10.1957 -10.596835,-14.05552 -5.895984,-2.23968 -4.744405,-4.47935 -6.037499,-6.71902 z"
     id="path16081"
     inkscape:connector-curvature="0"
     sodipodi:nodetypes="cccccccccccc" />
  <path
     style="fill:#680000;fill-opacity:1;stroke:#000000;stroke-width:2.03791881;stroke-opacity:1"
     d="m 88.112988,350.88698 c 9.69237,-40.67278 26.912202,-70.80545 40.368712,-106.20613 16.74817,16.96363 22.79386,37.81969 32.24078,57.4367 L 109.2456,411.03208 c -0.64162,-7.2713 -1.74692,-14.2206 -9.482582,-16.52549 l -13.817477,4.06361 -9.211651,-2.16834 -13.275616,5.96091 c -2.698207,-5.11314 -5.147208,-11.555 -8.940721,-10.83765 l 8.66979,-15.17231 9.211651,-16.79652 z"
     id="path16079"
     inkscape:connector-curvature="0"
     sodipodi:nodetypes="cccccccccccc" />
  <path
     style="fill:#680000;fill-opacity:1;stroke:none"
     d="m 197.02722,38.231527 9.75352,-16.796526 -6.50234,-14.3612132 2.70931,-6.22991809 c 8.12398,3.52356149 15.4646,7.43840309 17.88143,13.81708929 l 17.06865,27.634178 17.06865,11.650782 -1.08372,22.215352 -16.25585,41.182259 -43.34896,98.34792 -31.42798,-57.16566 48.22571,-105.121958 z"
     id="path16077"
     inkscape:connector-curvature="0"
     sodipodi:nodetypes="ccccccccccccc" />
  <path
     style="fill:#5b0606;fill-opacity:0.92574259;stroke:none"
     d="m 110.75212,113.22897 57.47314,-89.275101 13.4104,11.11277 8.42938,4.597545 16.09249,13.409505 1.53261,6.898355 -33.33442,76.246686 -12.26093,24.90541 -18.77456,-32.18485 -20.30717,-17.62596 z"
     id="path16075"
     inkscape:connector-curvature="0"
     sodipodi:nodetypes="ccccccccccc" />
  <path
     style="fill:#5b0606;fill-opacity:0.92574259;stroke:none"
     d="M 3.8520987,334.69368 C 3.3788637,322.01171 14.000513,311.18017 19.178267,299.44176 l 32.184953,-61.30467 1.532617,-14.55889 22.989254,-39.84743 9.1957,-24.52227 44.445889,84.29443 -42.913272,101.91835 c 1.210196,5.36381 -6.824821,10.72761 -14.559859,16.09141 -11.309577,17.73601 -24.595032,34.9768 -32.184955,53.6421 l -6.896776,-19.15644 c 2.795114,-9.7759 -3.251956,-10.83969 -6.896775,-18.77534 l -2.298925,-24.90541 -11.494626,-2.29877 -2.6820793,-8.04571 -8.046239,-1.14938 z"
     id="path16073"
     inkscape:connector-curvature="0"
     sodipodi:nodetypes="ccccccccccccccccc" />
  <path
     style="fill:#4f0000;fill-opacity:1;stroke:none"
     d="m 83.548174,154.61095 105.750566,196.17414 31.41864,42.91449 10.72831,-3.06707 22.22296,6.1321 5.36415,4.59754 c 9.89888,1.38171 18.25488,5.33527 32.18495,0 l -127.9735,-244.45243 -28.35341,-43.68075 -34.48388,4.59755 -8.429392,7.66461 -5.36416,0.76626 z"
     id="path15563"
     inkscape:connector-curvature="0"
     sodipodi:nodetypes="ccccccccccccc" />
  <path
     style="fill:#650d0d;fill-opacity:1;stroke:none"
     d="m 183.48069,414.82668 33.05357,-3.25252 9.21164,3.25252 24.92564,-18.96691 c -13.74028,-7.60551 -22.74507,-7.92546 -27.09309,-1.08213 l -22.21633,-24.92579 z"
     id="path17545"
     inkscape:connector-curvature="0"
     sodipodi:nodetypes="ccccccc" />
  <path
     style="fill:#750d0d;fill-opacity:1;stroke:none"
     d="m 301.17977,202.88721 41.38065,-76.62982 c 4.35942,-12.47207 12.05886,-21.3472 18.77455,-33.334237 l 14.94302,-28.736693 12.26094,8.428832 5.36415,11.493862 29.11971,26.054786 c -20.00985,53.6421 -51.00499,107.2842 -76.63084,160.92426 -12.88107,23.46459 -31.23526,42.5497 -49.04373,62.07296 l -13.02724,52.10755 c -11.77163,-8.67338 -13.58814,-22.3254 -19.92401,-33.71737 8.85051,-20.86217 13.303,-43.9253 27.5871,-62.07093 l 19.1577,-44.06184 3.64561,-14.85031 -12.07499,-0.1019 z"
     id="path17547"
     inkscape:connector-curvature="0"
     sodipodi:nodetypes="cccccccccccccccc" />
  <path
     style="fill:#000000"
     d="m 135.98897,490.57612 c 0,-1.23905 2.3415,-5.0357 5.20333,-8.43698 2.86183,-3.40129 4.70647,-7.47713 4.09918,-9.06059 -0.60728,-1.58346 -0.34646,-2.40882 0.57961,-1.83616 0.92606,0.57265 4.81308,-5.0948 8.63781,-12.5923 3.82473,-7.49954 11.4792,-21.90559 17.00994,-32.01367 7.93313,-14.49979 23.56977,-49.91067 23.56977,-53.37513 0,-0.36682 -1.29917,-0.66844 -2.88706,-0.66844 -1.58786,0 -3.36878,-1.14531 -3.95755,-2.54739 -0.76661,-1.82394 -1.71134,-1.53456 -3.32796,1.01895 -1.24161,1.96252 -3.02201,3.56636 -3.95644,3.56636 -2.96061,0 -4.02483,-8.37177 -1.71007,-13.4523 2.49035,-5.4657 7.68741,-6.62323 7.68741,-1.71185 0,1.7465 0.91706,2.61057 2.03792,1.91768 1.12085,-0.69289 2.03792,0.16303 2.03792,1.91768 0,1.7465 1.37559,3.17712 3.05687,3.17712 1.68129,0 3.05688,-0.46872 3.05688,-1.04138 0,-0.57265 -5.2541,-9.513 -11.67578,-19.86971 -6.42168,-10.35466 -14.6209,-24.31848 -18.22049,-31.02731 -4.23641,-7.89693 -6.93471,-11.13111 -7.65047,-9.17063 -7.97681,21.84852 -8.11098,24.42649 -1.27148,24.42649 3.71867,0 7.17872,5.03162 6.49686,9.44779 -0.19664,1.2737 0.98409,2.83067 2.62382,3.46039 2.35048,0.90076 2.57373,2.56574 1.05505,7.86025 -2.58353,9.0076 -2.45733,9.42741 1.24615,4.14105 4.18142,-5.9711 7.01715,-5.74285 7.01715,0.5645 0,3.21992 -1.15023,5.0948 -3.1256,5.0948 -1.71909,0 -5.01939,3.20972 -7.33402,7.13272 -2.31462,3.92299 -4.88745,7.13271 -5.7174,7.13271 -1.93763,0 -1.33254,-10.66443 0.80095,-14.11666 1.04975,-1.69962 -0.33864,-4.32039 -3.91463,-7.39357 -3.55943,-3.05892 -4.96955,-5.71229 -3.94267,-7.42006 1.18276,-1.96659 0.68881,-1.91972 -1.89866,0.18341 -4.49245,3.64584 -6.3983,1.74854 -3.56394,-3.54802 1.21167,-2.26412 2.18798,-4.86451 2.16958,-5.7775 -0.0408,-2.02772 -20.4236,32.66173 -24.07218,40.96625 -2.19122,4.98882 -2.16646,5.57778 0.15356,3.65195 1.52131,-1.26147 4.86404,-1.7465 7.42828,-1.07602 3.72754,0.97412 4.46477,2.2845 3.67719,6.53764 l -0.98506,5.31897 3.08856,-4.58532 c 1.69871,-2.52294 3.78969,-4.58532 4.64661,-4.58532 2.53676,0 3.76267,13.02027 1.4916,15.84278 -1.14932,1.42858 -1.40753,3.26271 -0.5738,4.07584 0.83373,0.81313 3.02781,-0.6827 4.87572,-3.32792 1.84792,-2.64318 5.36643,-6.82295 7.81892,-9.2868 l 4.45907,-4.48138 -7.00647,-5.84067 c -3.85356,-3.21788 -7.00647,-7.12253 -7.00647,-8.68358 0,-4.55882 4.10843,-10.93954 6.20853,-9.64139 1.13803,0.70308 0.68321,3.59897 -1.10985,7.06546 l -3.03804,5.87532 9.66875,1.54678 c 5.31782,0.84982 10.38208,1.35522 11.25391,1.1229 0.87182,-0.23232 2.11425,0.95578 2.76093,2.64114 0.64669,1.68536 2.03694,2.5311 3.08945,1.881 2.71031,-1.67517 7.84886,3.07318 7.84886,7.25295 0,4.61181 -7.27108,11.29211 -9.08859,8.35139 -0.73785,-1.19422 -3.58008,-2.17038 -6.31607,-2.17038 -3.06319,0 -4.97453,-1.17384 -4.97453,-3.05688 0,-1.68128 -0.81895,-3.05688 -1.81988,-3.05688 -3.08627,0 -4.39171,6.19935 -2.17695,10.33633 1.96491,3.67233 3.02199,4.19811 9.5837,4.77077 3.14065,0.27308 3.34051,1.51621 1.67259,10.40765 -0.73171,3.90057 -2.30401,7.09195 -3.494,7.09195 -1.18999,0 -1.72578,-1.14531 -1.19065,-2.54739 0.6265,-1.64053 -1.07311,-2.62281 -4.77298,-2.75935 -3.16026,-0.12227 -6.22239,1.02915 -6.80472,2.5474 -0.58233,1.51825 -2.44569,2.75934 -4.14079,2.75934 -1.69511,0 -3.65744,2.29266 -4.36073,5.0948 -0.70329,2.80214 -2.4426,5.0948 -3.86513,5.0948 -1.42253,0 -3.7627,1.41635 -5.20037,3.15062 -1.43768,1.73223 -3.73088,2.72062 -5.096,2.19688 -1.36513,-0.52375 -3.51086,0.0815 -4.76829,1.3328 -3.44231,3.44204 -2.93093,-1.56105 0.92089,-9.00964 4.06824,-7.86637 2.34507,-9.9695 -2.3268,-2.84086 -1.93664,2.95702 -4.73173,4.90934 -6.21133,4.3428 -1.47959,-0.56858 -3.24722,-0.12227 -3.92806,0.97005 -0.68084,1.10252 -2.31507,1.87081 -3.63162,1.70778 -9.56042,-1.17996 -12.66523,0.37905 -14.887942,7.4812 -1.84003,5.87939 -1.73908,7.50361 0.5203,8.36973 1.541802,0.591 2.803282,2.29877 2.803282,3.7946 0,5.25783 4.74969,5.643 8.99494,0.72958 2.33834,-2.70636 5.62713,-4.86044 7.30841,-4.78707 1.68128,0.0815 4.20321,-0.72142 5.60428,-1.76892 1.40107,-1.04749 2.5474,-1.30223 2.5474,-0.56857 0,0.73365 4.26534,-1.04749 9.47855,-3.95764 7.48605,-4.17977 9.84221,-4.73001 11.20855,-2.61465 1.39978,2.16834 2.11267,2.09702 3.73479,-0.37702 1.10264,-1.68128 2.30309,-3.90669 2.66767,-4.94603 0.36459,-1.03933 1.70903,-1.24313 2.98764,-0.45241 2.50579,1.54881 -3.22117,13.09566 -8.78501,17.71359 -2.45406,2.03791 -2.95093,1.50806 -2.95093,-3.14451 0,-4.94807 -0.38526,-5.27414 -3.33308,-2.82863 -3.35083,2.78175 -4.0087,2.96721 -12.51123,3.53782 -2.78003,0.18342 -5.34637,2.17854 -6.41093,4.97864 -2.32845,6.12394 -7.92494,10.61552 -13.22824,10.61552 -6.79109,0 -4.91879,5.68375 2.50617,7.60755 4.88944,1.26555 7.34323,3.41963 8.86052,7.77058 1.44092,4.13494 3.47265,6.0302 6.48436,6.05058 3.57881,0.0204 3.8234,0.39536 1.32908,2.00735 -4.78811,3.09356 -5.96661,2.52091 -10.45962,-5.09479 -2.31462,-3.923 -5.61443,-7.13272 -7.33292,-7.13272 -6.07718,0 -16.019432,-8.04163 -19.395792,-15.68994 -1.88129,-4.25925 -5.512201,-8.66319 -8.068695,-9.78404 -2.556494,-1.12086 -4.952228,-3.65399 -5.323855,-5.62874 -0.371627,-1.97678 4.437599,-13.68054 10.687168,-26.01199 6.249572,-12.32941 11.362852,-22.9164 11.362852,-23.52573 0,-0.60934 -2.77001,0.52985 -6.15558,2.52905 -5.047917,2.98148 -6.874579,3.18731 -10.151281,1.14124 -3.300781,-2.06238 -5.126438,-1.80764 -10.497269,1.45915 -7.456571,4.53437 -13.954243,2.65337 -13.954243,-4.03916 0,-5.28228 3.301938,-5.14574 4.698336,0.20379 l 1.09787,4.19812 8.013129,-4.08807 c 5.44226,-2.77564 8.679455,-3.42166 10.089995,-2.01142 1.410539,1.41024 2.49913,0.39535 3.393024,-3.16693 0.723889,-2.88366 2.674286,-5.24357 4.334209,-5.24357 1.65993,0 3.01806,-0.81109 3.01806,-1.79948 0,-0.99043 2.29265,-2.23967 5.09479,-2.77564 2.802142,-0.53598 5.094802,-0.0204 5.094802,1.12085 0,1.15346 0.58134,1.51418 1.29186,0.80294 0.71052,-0.70919 3.66905,0.57877 6.57449,2.86532 3.9634,3.11597 5.48591,3.48076 6.09661,1.46118 0.44769,-1.48156 4.47201,-10.03063 8.94293,-18.99747 4.47093,-8.96685 8.35127,-18.31886 8.623,-20.7827 0.51051,-4.62811 -3.98805,-8.03551 -6.09936,-4.61996 -0.65666,1.06379 -3.57123,-0.44427 -6.47681,-3.35034 -5.43009,-5.43105 -4.33144,-8.3575 3.46439,-9.2277 6.26283,-0.699 7.23232,-0.98227 11.59435,-3.38702 2.90378,-1.59976 4.90261,-1.74446 5.72455,-0.41573 2.40053,3.88427 4.46271,2.01142 6.9589,-6.31959 1.37822,-4.59958 3.02235,-9.87371 3.65362,-11.71803 0.8755,-2.55963 0.43238,-2.43735 -1.86795,0.51559 -2.8745,3.6866 -3.07298,3.58266 -4.23845,-2.24578 -1.56653,-7.83173 0.27306,-14.8707 3.88664,-14.8707 1.55056,0 2.8192,1.06991 2.8192,2.37825 0,1.30631 0.52392,1.85247 1.16428,1.21257 0.64035,-0.63991 -5.05811,-12.81036 -12.66325,-27.04522 -10.73783,-20.09796 -14.16515,-25.03584 -15.33846,-22.10123 -14.0065,35.03182 -32.357072,82.92495 -33.465612,87.34316 -1.24594,4.96233 -0.9175,5.58186 2.49172,4.68925 4.506982,-1.17792 9.784462,3.43185 7.731482,6.75366 -0.91954,1.48768 0.0635,1.77299 2.9525,0.85593 3.86362,-1.22683 4.33104,-0.591 4.33104,5.89569 0,3.9984 -0.91706,7.26926 -2.03791,7.26926 -1.12086,0 -2.03792,-0.97209 -2.03792,-2.15815 0,-1.23091 -1.09486,-1.46323 -2.5474,-0.54005 -1.40107,0.88853 -3.00593,1.70981 -3.56636,1.82393 -0.56043,0.12228 -2.716372,0.94967 -4.790992,1.85655 -2.49761,1.09232 -4.38054,0.68881 -5.57307,-1.19422 -0.99057,-1.56512 -1.81508,-2.04403 -1.83224,-1.06787 -0.0171,0.9782 -1.325164,0.70512 -2.906658,-0.6073 -1.965685,-1.63237 -3.293293,-1.70982 -4.196109,-0.25067 -0.726365,1.17588 -3.071886,2.13778 -5.212269,2.13778 -2.290537,0 -3.486604,1.05564 -2.907193,2.56574 0.541426,1.41024 3.928698,2.55759 7.527267,2.5474 9.433852,-0.0204 9.754752,5.68987 0.807187,14.38159 -8.42484,8.18021 -10.237407,8.70599 -8.336107,2.4129 1.130193,-3.74162 0.892749,-4.1166 -1.289211,-2.03792 -1.471005,1.40209 -4.589601,2.5474 -6.930214,2.5474 -5.83525,0 -18.078954,15.13766 -22.647681,28.001 -3.973827,11.19021 -6.926111,12.20102 -6.926111,2.37621 0,-3.33607 -1.488086,-8.33712 -3.306857,-11.11277 -2.105682,-3.21379 -2.87735,-7.19385 -2.124417,-10.95789 0.779068,-3.8965 0.169127,-6.75366 -1.787939,-8.37788 -1.63371,-1.36744 -2.970381,-4.38153 -2.970381,-6.70883 0,-3.26678 0.55272,-3.68252 2.417677,-1.81782 1.864959,1.86469 3.262661,1.65275 6.113756,-0.92725 3.47705,-3.14655 3.69608,-3.03854 3.69608,1.81782 0,5.53091 6.186734,12.50467 7.537619,8.49608 0.418574,-1.24313 2.074402,-3.99432 3.679615,-6.11375 3.893786,-5.14371 3.875427,-0.60934 -0.03544,8.75082 -1.695995,4.05749 -2.767424,7.69518 -2.380956,8.08238 1.175009,1.17385 12.63936,-16.00377 17.484828,-26.19948 2.690264,-5.66134 6.377322,-10.14068 9.004674,-10.93955 7.961694,-2.42308 15.30119,-11.06182 9.398305,-11.06182 -1.200915,0 -3.670948,-1.48768 -5.488961,-3.3055 -3.048692,-3.04873 -3.007125,-3.52357 0.535072,-6.11376 5.372188,-3.92911 7.137374,-3.51337 7.137374,1.67517 0,6.82906 2.864661,2.25394 8.75154,-13.98012 5.00053,-13.78856 5.10147,-14.80752 1.83628,-18.5308 -1.90031,-2.16834 -4.60143,-3.55005 -6.0025,-3.07114 -1.401072,0.47891 -2.547401,-0.12228 -2.547401,-1.33891 0,-1.21257 -1.452017,-2.20707 -3.226704,-2.20707 -1.774689,0 -2.845059,-1.14531 -2.378604,-2.5474 0.975715,-2.93053 9.244589,-3.88427 10.870579,-1.25332 0.59897,0.97005 1.84501,1.7628 2.76899,1.7628 2.23608,0 4.03249,-7.18163 2.41503,-9.65566 -1.62862,-2.49034 -8.70685,-2.58408 -11.796299,-0.16303 -4.217721,3.31365 -4.559757,-1.34503 -0.706385,-9.62102 2.974432,-6.38887 3.795894,-7.11845 3.926344,-3.49299 0.16709,4.64442 4.96632,6.31959 7.29768,2.5474 0.69273,-1.12086 3.10502,-2.03792 5.360642,-2.03792 2.25562,0 5.48515,-1.38375 7.17674,-3.07522 1.69158,-1.69147 3.91874,-2.55555 4.94923,-1.91768 1.03049,0.63583 1.87362,0.26085 1.87362,-0.83351 0,-1.0964 0.56064,-3.45223 1.24587,-5.23949 0.87263,-2.27228 0.35586,-2.90403 -1.72501,-2.10517 -2.20509,0.84574 -3.01909,-0.55635 -3.15797,-5.44124 -0.10292,-3.61935 0.67005,-8.18225 1.71769,-10.14069 4.2186,-7.88266 -4.59679,-13.79263 -10.30809,-6.91058 -2.81159,3.38702 -7.087302,4.24295 -5.094802,1.01896 0.69273,-1.12085 0.21545,-2.03792 -1.06061,-2.03792 -1.51769,0 -1.8557,-2.11536 -0.97731,-6.11375 0.84485,-3.84556 0.52703,-6.11376 -0.85703,-6.11376 -1.20991,0 -2.19984,-1.27777 -2.19984,-2.83882 0,-3.62953 -4.642058,-5.44328 -8.239184,-3.21991 -3.264956,2.01754 -6.609342,0.49929 -4.920264,-2.23356 0.644861,-1.04342 0.230069,-1.8973 -0.921756,-1.8973 -1.151828,0 -1.650651,-1.60385 -1.1085,-3.56636 0.542154,-1.96048 -0.174425,-1.24313 -1.592399,1.59773 -6.037724,12.09504 -11.968813,18.31274 -16.659219,17.46089 -3.933438,-0.71328 -5.081846,0.56246 -7.782111,8.64892 -2.920507,8.74471 -3.918918,18.65511 -1.879338,18.65511 0.471929,0 2.974627,-2.28451 5.561553,-5.07442 2.835968,-3.06095 5.963101,-4.59347 7.875884,-3.85778 4.539456,1.74039 3.92358,6.89428 -0.824065,6.89428 -4.850875,0 -11.302316,6.53357 -16.601622,16.81283 -4.475824,8.68154 -8.669732,10.26907 -6.731731,2.5474 1.80022,-7.17347 -0.101753,-6.33589 -5.51827,2.4292 -4.883269,7.90101 -6.148918,18.30866 -2.12076,17.44051 1.299173,-0.2792 2.362133,0.40758 2.362133,1.52844 0,1.12085 1.14633,1.80763 2.547399,1.52844 1.570012,-0.31384 2.3038,1.24313 1.912501,4.05953 -0.454898,3.27494 0.192746,4.25314 2.284421,3.4502 3.597302,-1.38171 6.433883,5.09276 3.512082,8.01309 -1.447691,1.45508 -2.104728,1.34707 -2.104728,-0.33422 0,-3.50725 -7.176769,-3.01815 -10.261275,0.69697 -1.809819,2.18058 -3.259181,2.49441 -4.732952,1.01896 -2.538434,-2.53721 -9.460798,-2.84086 -9.460798,-0.4137 0,0.94152 -2.292658,2.75731 -5.094797,4.03305 -6.6687933,3.03853 -7.3083963,11.53869 -0.710679,9.44371 3.485777,-1.10659 4.125261,-0.71735 3.120838,1.90138 -1.353722,3.52764 1.633586,4.60366 3.663383,1.31853 0.67061,-1.08621 4.278354,-1.85858 8.017207,-1.71796 5.790965,0.21805 6.797919,0.99858 6.797919,5.2619 0,2.75323 1.165328,5.72655 2.589618,6.60694 1.424291,0.88038 2.003932,3.12616 1.288093,4.99086 -0.71584,1.86673 -2.327597,2.75934 -3.581685,1.98289 -1.254087,-0.77441 -3.080649,-0.14265 -4.059025,1.40005 -1.397395,2.20503 -1.785557,2.02366 -1.810071,-0.84777 -0.01712,-2.00939 -1.177536,-3.50726 -2.578605,-3.32385 -6.05233,0.7846 -8.471706,-0.14265 -6.23065,-2.38028 1.578821,-1.57735 3.398328,-1.59977 6.253389,-0.0611 3.799314,2.03384 6.600496,1.2737 6.600496,-1.7893 0,-2.16223 -9.627486,-5.98332 -11.175057,-4.43654 -0.765659,0.76625 -2.462016,1.39189 -3.769679,1.39189 -1.307666,0 -2.67192,2.07257 -3.031678,4.60774 -0.528597,3.72328 0.546733,4.84617 5.604277,5.85901 5.972606,1.19423 6.242123,1.68129 5.902343,10.67666 l -0.356039,9.42538 -0.780097,-8.66116 c -0.723844,-8.03755 -1.209709,-8.66115 -6.737851,-8.66115 -4.706292,0 -6.235254,-1.10659 -7.27884,-5.26395 -0.9721873,-3.87408 -2.3274423,-5.00105 -5.1315943,-4.2674 -2.095779,0.5482 -4.33749402,0.14265 -4.98159002,-0.89872 -2.19257648,-3.54598 7.25055202,-27.22252 17.78664932,-44.59374 22.095368,-36.42984 35.26424,-64.47975 33.018889,-70.33061 -0.602239,-1.5692 1.133195,-5.08054 3.856521,-7.80523 13.134071,-13.13439 26.091706,-44.77919 27.052279,-66.06933 0.970339,-21.50412 4.330936,-30.1775 11.376275,-29.35622 0.67991,0.0815 2.41626,-2.06237 3.85854,-4.7565 1.44229,-2.69413 5.176722,-5.78973 8.298752,-6.87798 4.08321,-1.4245 10.36858,-9.03001 22.39421,-27.100238 9.19479,-13.817089 18.47587,-27.063561 20.62463,-29.435698 2.14876,-2.372137 7.34937,-11.165757 11.55693,-19.541603 l 7.65009,-15.227329 7.38408,7.701295 c 6.79224,7.083806 7.04137,7.752243 3.10833,8.33305 -5.88059,0.868153 -6.78891,5.078493 -1.46058,6.769966 3.79989,1.206448 4.1938,2.3701 2.98405,8.818074 -0.76654,4.086028 -1.82464,8.12722 -2.35134,8.97907 -1.49461,2.41901 -8.92666,-2.357872 -10.56628,-6.790345 -1.24488,-3.364604 -2.00986,-3.580623 -4.91343,-1.393936 -1.89146,1.424505 -4.87367,6.258448 -6.62715,10.741869 -2.81253,7.191816 -2.82035,7.684992 -0.0664,4.196075 1.71696,-2.176497 3.12174,-5.155934 3.12174,-6.623236 0,-1.467301 0.91706,-2.667635 2.03791,-2.667635 3.31426,0 2.31646,4.522141 -3.08142,13.963819 -2.78864,4.878777 -5.07025,9.790162 -5.07025,10.915093 0,1.124931 -2.29266,4.76873 -5.0948,8.098689 -2.80214,3.329959 -5.09479,7.841912 -5.09479,10.02452 0,3.46854 0.8819,3.16693 6.9911,-2.392518 3.8451,-3.499103 6.87355,-7.923425 6.72987,-9.830917 -0.35144,-4.664796 8.70253,-26.702849 10.97074,-26.702849 2.36376,0 2.32217,0.29346 -1.25565,8.856795 -3.36195,8.045703 -4.00126,12.09301 -1.2156,7.695181 0.97838,-1.544742 2.81342,-2.168345 4.07787,-1.387822 1.26446,0.780522 1.68383,2.416971 0.93193,3.633609 -0.81594,1.318533 -0.41855,1.624221 0.98572,0.756067 1.29404,-0.798864 2.3528,-2.663559 2.3528,-4.14105 0,-5.060153 6.44937,-18.168046 7.83591,-15.924297 0.75656,1.224789 3.6985,2.810289 6.53767,3.521523 3.88061,0.974125 6.58248,-0.02038 10.88363,-4.006548 l 5.72154,-5.302665 -4.28084,-3.713088 c -2.35444,-2.041994 -4.28081,-5.145745 -4.28081,-6.898355 0,-1.750572 -1.99155,-3.478727 -4.42568,-3.835363 -2.43413,-0.358673 -4.80342,-1.799482 -5.26509,-3.20157 -0.53228,-1.61607 0.34133,-2.094981 2.38777,-1.310382 1.8153,0.696968 3.22717,0.183413 3.22717,-1.153462 0,-1.420429 1.56734,-1.897302 3.85323,-1.171803 2.99177,0.94967 4.35862,-0.226209 6.11376,-5.261906 3.11691,-8.94035 2.83323,-14.340835 -1.04419,-19.875822 -3.03817,-4.3387291 -3.04003,-4.9827114 -0.023,-8.0008691 3.01704,-3.01611969 3.90001,-2.93256499 10.94693,1.0413765 4.21584,2.3762133 8.58224,6.0220504 9.7031,8.0986896 1.12085,2.076639 3.91675,6.507074 6.21312,9.847223 2.29635,3.338111 5.2581,8.595941 6.58166,11.679312 1.32357,3.085409 5.40565,7.375228 9.07129,9.535422 11.27719,6.641577 14.24884,10.658315 13.11607,17.731931 -0.5622,3.511334 -0.10231,7.301863 1.02199,8.426794 1.367,1.367444 1.05858,3.978018 -0.931,7.88267 -1.63637,3.21176 -4.53046,11.247274 -6.43135,17.856244 -3.83406,13.332059 -2.84495,15.404629 7.38188,15.463729 4.61611,0.0204 6.23859,1.74242 10.5516,11.16372 5.03754,11.00272 6.11696,11.80362 18.63814,13.81912 3.49776,0.56451 4.03887,2.12759 3.81512,11.02514 -0.14347,5.7021 -1.34241,12.09097 -2.66447,14.19818 -2.01308,3.20769 -2.20411,2.58612 -1.17539,-3.81294 1.32422,-8.23931 0.12166,-9.19102 -6.14504,-4.87063 -3.8866,2.67986 -10.25367,2.88162 -12.73123,0.40555 -1.73581,-1.73631 6.90241,-12.44557 9.54851,-11.83827 3.87107,0.88853 2.42074,-1.10863 -4.26194,-5.86717 -3.56495,-2.53721 -5.84265,-3.58062 -5.06156,-2.31711 2.02657,3.27901 -2.60864,5.55332 -5.44711,2.67374 -1.80507,-1.83208 -1.51717,-3.03649 1.20801,-5.04996 3.29442,-2.43327 3.33261,-3.2301 0.48214,-10.05101 -2.89389,-6.92689 -3.67934,-7.40988 -12.04881,-7.40988 l -8.95311,0 -6.46538,15.53098 c -6.63312,15.93245 -6.39963,19.04028 1.47517,19.63331 4.96127,0.37498 10.49237,7.63201 5.81592,7.63201 -1.59739,0 -3.21001,-0.85593 -3.58364,-1.90138 -0.37362,-1.04545 -4.24366,-0.24659 -8.6001,1.77706 -12.68401,5.89367 -17.82087,23.39124 -9.08969,30.96414 2.41322,2.09294 5.16441,3.8048 6.11376,3.8048 4.17614,0 1.34146,8.41456 -3.59196,10.66239 -4.57704,2.08479 -5.71913,1.87488 -8.19663,-1.51418 -1.58324,-2.16427 -2.45775,-5.03366 -1.94336,-6.37461 0.51439,-1.33891 -0.29407,-2.90811 -1.79657,-3.48484 -1.85624,-0.71123 -4.20755,2.98963 -7.33598,11.54889 -2.53227,6.92892 -5.38766,13.62756 -6.34528,14.88699 -0.95764,1.25944 -1.11931,3.91077 -0.35928,5.89163 1.31099,3.41555 1.52191,3.40944 4.11139,-0.14266 3.60993,-4.93787 8.84249,-5.5737 8.84249,-1.07602 0,3.68864 4.99223,4.39172 9.85153,1.38986 4.3397,-2.68394 4.39165,-0.59915 0.21752,8.7223 -2.17541,4.86043 -3.95529,10.03471 -3.95529,11.49997 0,1.46526 -1.0618,3.01816 -2.35956,3.4502 -1.5302,0.51151 -0.38766,4.15124 3.25052,10.36078 3.08555,5.26394 5.76107,9.5721 5.94563,9.5721 0.18443,0 0.32665,-2.87958 0.31583,-6.39703 -0.0163,-4.99697 0.94735,-6.55191 4.39308,-7.09399 3.7641,-0.59304 4.62968,0.57062 5.88808,7.92546 1.1771,6.88002 1.78306,7.79912 2.99802,4.5466 0.83751,-2.24171 0.70979,-4.94603 -0.2838,-6.01186 -0.99359,-1.06583 -1.80653,-3.65195 -1.80653,-5.74897 0,-2.09905 -1.38403,-5.19873 -3.07561,-6.8902 -1.69159,-1.69147 -2.41485,-4.14717 -1.60726,-5.45959 0.8076,-1.31038 -0.97028,-0.78663 -3.95084,1.16162 -7.1223,4.65664 -8.42809,1.99104 -3.12569,-6.3848 4.13689,-6.53357 4.33465,-6.60693 6.55612,-2.45569 2.1832,4.07787 2.4605,4.11252 5.91631,0.71123 3.45588,-3.39925 3.79766,-3.35645 7.29495,0.90484 l 3.66921,4.47119 1.99512,-4.47119 c 1.37959,-3.09153 1.21091,-6.35831 -0.54671,-10.58495 -1.39801,-3.36257 -2.0303,-6.94319 -1.40508,-7.95808 0.62521,-1.01284 0.16079,-1.23905 -1.03215,-0.50132 -3.82509,2.36398 -8.86329,-0.90688 -7.58784,-4.92362 0.86972,-2.741 -0.49434,-2.16427 -5.13831,2.17446 -3.4773,3.24845 -7.55829,5.43106 -9.06888,4.85229 -1.51057,-0.58081 -3.35191,-0.0815 -4.09187,1.12289 -1.89227,3.06095 -5.18066,2.71043 -5.18066,-0.55228 0,-3.99839 14.82879,-16.97993 15.86051,-13.88434 0.53673,1.60996 2.64783,0.56451 5.86525,-2.90811 4.88239,-5.26802 5.12555,-5.31489 8.47096,-1.61199 1.89437,2.09498 3.15241,5.83864 2.79568,8.31675 -0.60814,4.22664 -0.24559,4.13086 5.81212,-1.52844 3.55342,-3.31773 7.30351,-6.03428 8.33358,-6.03428 2.53081,0 6.19462,-9.68011 6.78715,-17.93165 0.2655,-3.69678 1.65676,-7.82357 3.09168,-9.17063 2.09906,-1.96863 2.32851,-1.26351 1.17407,3.61119 l -1.4349,6.05873 4.33219,-3.92095 c 2.93073,-2.65337 6.75081,-3.75792 11.80863,-3.41759 8.62888,0.58081 11.26921,3.51745 8.2451,9.16859 -1.51864,2.83679 -1.39221,6.37054 0.44139,12.33553 2.41516,7.85821 2.65612,8.05589 4.00783,3.26678 2.04662,-7.25091 13.01191,-28.50437 20.20102,-39.15657 3.36087,-4.98067 8.49268,-13.79671 11.40401,-19.59459 2.91135,-5.79584 5.93289,-10.54623 6.71453,-10.55642 0.78166,0 3.13503,-5.51461 5.22969,-12.23362 2.27951,-7.31206 5.73576,-13.64591 8.60902,-15.77553 3.02097,-2.239678 5.12449,-6.262526 5.6744,-10.851919 0.86897,-7.248877 12.37771,-28.371904 15.45902,-28.371904 0.88748,0 2.68056,1.285926 3.98462,2.857162 1.30409,1.571235 4.65392,3.429817 7.44407,4.130861 3.56636,0.894646 5.43707,3.093561 6.29878,7.401721 0.88519,4.426359 4.12371,8.092575 11.65622,13.1996 16.04576,10.880449 19.60109,14.438649 19.60109,19.623119 0,7.46489 -3.39262,17.49553 -9.36413,27.68512 -4.85424,8.28414 -5.75879,8.95258 -7.98577,5.90793 -1.4219,-1.94621 -3.89285,-2.90607 -5.6957,-2.21318 -6.85814,2.63095 -1.82667,-20.68284 5.3945,-24.99507 1.50047,-0.89669 3.76527,-3.46446 5.03286,-5.70617 1.59153,-2.81437 2.30154,-3.13025 2.29447,-1.01896 -0.006,1.68128 -1.32085,5.34953 -2.9227,8.15167 -1.60184,2.80214 -2.90442,6.01186 -2.8946,7.13272 0.0102,1.12085 1.81742,-1.36949 4.01688,-5.53499 2.69631,-5.10703 4.99054,-7.19385 7.04266,-6.40518 6.87191,2.63707 2.40409,-4.93991 -7.40312,-12.55562 -19.86804,-15.42704 -22.15997,-17.660599 -22.15997,-21.603972 0,-2.235597 -1.99828,-4.715744 -4.58531,-5.695983 -5.92994,-2.24171 -6.92291,-1.198296 -2.79002,2.934603 1.81473,1.813748 3.2995,4.511953 3.2995,5.991482 0,1.481566 1.26224,3.179153 2.80497,3.770149 1.7867,0.686779 2.43818,2.995741 1.79459,6.362383 -1.18719,6.20954 -4.59956,9.117648 -4.59956,3.918917 0,-2.787873 -0.54346,-3.040574 -2.44551,-1.139196 -3.74302,3.743659 -6.12922,2.912189 -4.68721,-1.630335 0.90333,-2.846973 0.36621,-4.075838 -1.78032,-4.075838 -1.69066,0 -3.65575,0.941519 -4.36684,2.092943 -0.71109,1.149386 -2.77772,1.838202 -4.59251,1.528439 -1.83743,-0.31384 -4.44097,1.677207 -5.87524,4.49565 -1.41657,2.783798 -3.97966,6.087258 -5.69571,7.340578 -1.71607,1.25536 -4.60945,5.85698 -6.42976,10.22424 l -3.30964,7.94381 4.30698,-3.88224 c 2.36883,-2.13574 4.30698,-3.24844 4.30698,-2.47607 0,0.77441 1.89275,0.39332 4.2061,-0.8437 3.12207,-1.67109 4.96037,-1.62626 7.13271,0.18342 1.60965,1.33687 2.9545,1.62829 2.98859,0.65009 0.034,-0.97616 0.99334,-0.18341 2.13168,1.77503 1.57607,2.70635 0.78599,5.74489 -3.31249,12.73699 -5.06867,8.64893 -10.93633,12.91022 -8.29317,6.02205 0.83496,-2.1765 0.42609,-2.66152 -1.3104,-1.55493 -3.88617,2.47811 -15.77054,2.46996 -15.77054,0 0,-3.10987 -2.45167,0 -8.80466,11.14945 -5.00201,8.78343 -5.10173,9.405 -1.35434,8.42476 4.97973,-1.30223 5.35027,2.74915 0.7194,7.86636 -3.11031,3.43594 -2.98956,3.80276 1.86354,5.64708 7.35364,2.79602 8.51185,8.68765 3.60078,18.31274 -5.57002,10.91916 -5.25362,12.7268 0.92621,5.29247 3.74647,-4.50584 4.7747,-5.04181 3.91185,-2.03792 -1.17052,4.07584 -1.17052,4.07584 1.39874,0 7.17845,-11.38789 20.02865,-15.71439 23.07735,-7.76854 0.70294,1.83208 -0.92122,6.02816 -3.78671,9.78608 -3.28042,4.30001 -4.61866,8.10277 -3.86533,10.98438 0.88984,3.40333 1.77145,3.89243 3.87097,2.15001 2.92641,-2.4292 6.97307,-0.97209 6.97307,2.50868 0,1.17384 -1.29971,1.63644 -2.88822,1.02711 -1.58852,-0.60934 -3.39387,0.2099 -4.01189,1.81986 -1.47403,3.84147 -7.36533,3.79053 -7.36533,-0.0611 0,-1.8219 -1.19481,-2.53313 -3.05687,-1.81986 -4.92863,1.89119 -3.67604,-5.66949 2.0404,-12.31718 5.86605,-6.82092 6.22535,-8.49201 2.16089,-10.05102 -1.77721,-0.6827 -7.10135,3.04262 -13.522,9.46206 -6.48822,6.48669 -10.94599,9.59452 -11.50807,8.02736 -0.50463,-1.4082 -1.90068,-1.95232 -3.10236,-1.21052 -1.41118,0.87223 -1.77462,-0.21806 -1.02632,-3.0793 0.68438,-2.61669 -0.11086,-5.70006 -1.94291,-7.53215 -2.77666,-2.77768 -3.39103,-2.72062 -5.86666,0.54413 -2.40433,3.171 -2.50782,2.71858 -0.79295,-3.47058 2.56384,-9.25622 2.50081,-9.66788 -0.78994,-5.16816 -1.62194,2.2193 -4.08525,3.27086 -5.96725,2.5474 -5.00464,-1.91972 -11.79258,20.15909 -10.23663,33.29552 l 1.20158,10.14476 6.83063,-1.27982 c 6.65937,-1.24924 6.8122,-1.12289 6.09558,5.03162 -0.40428,3.47058 -1.7308,7.51177 -2.94783,8.97907 -1.21704,1.46527 -2.09834,4.45693 -1.95848,6.6477 0.23878,3.73958 -1.96459,8.76508 -12.41871,28.32707 -3.20395,5.99555 -3.6707,8.42883 -1.83445,9.56395 1.35458,0.83555 3.81168,0.42796 5.46019,-0.90891 2.50444,-2.03181 2.74716,-1.76076 1.47607,1.6446 -1.16736,3.1282 -0.96131,3.51948 0.88572,1.68739 3.33171,-3.3055 8.02408,-1.07194 8.02408,3.8211 0,7.81338 -6.35992,15.61046 -12.58851,15.43316 -3.17286,-0.0815 -6.79458,-1.40005 -8.04825,-2.91015 -3.15117,-3.79664 -7.392,-3.43593 -9.6086,0.81925 -1.02186,1.96047 -3.89253,9.9858 -6.3793,17.83178 -2.48675,7.84599 -5.89242,17.57909 -7.56814,21.62844 -2.84921,6.88612 -2.75147,7.9438 1.50733,16.30335 2.50476,4.91749 5.97518,11.11481 7.71203,13.77225 l 3.15794,4.82987 2.37016,-6.86779 c 1.3036,-3.7783 2.99794,-9.16248 3.76524,-11.96462 l 1.3951,-5.0948 -3.26962,5.0948 c -3.21058,5.00309 -3.2518,5.00921 -2.28326,0.39332 0.85817,-4.0901 0.56685,-4.35503 -2.24161,-2.03792 -2.4344,2.00939 -3.42933,2.06441 -4.04716,0.23029 -0.45057,-1.33688 -2.13556,-1.92788 -3.74444,-1.31039 -4.36334,1.67517 -3.5336,-3.49706 1.40431,-8.75489 3.42752,-3.64788 4.89879,-4.1003 7.06198,-2.16835 8.57954,7.6585 8.41404,7.69111 11.17436,-2.16835 1.45322,-5.19057 2.98639,-8.40437 3.40705,-7.1429 0.42065,1.26351 -2.38438,12.34979 -6.23342,24.64047 -4.39124,14.02089 -6.34638,23.37493 -5.24839,25.10716 2.21519,3.49503 2.34187,8.42476 0.18219,7.08992 -0.89652,-0.55431 -2.80218,0.86816 -4.23482,3.16285 -2.51742,4.03101 -2.44754,4.06157 2.08349,0.8865 5.65883,-3.96375 7.85719,-4.15124 7.85719,-0.67252 0,4.2939 -10.72636,7.01656 -23.5876,5.98741 -9.94231,-0.79683 -12.97616,-1.96659 -17.17077,-6.62527 -6.35814,-7.05936 -19.76824,-9.7005 -23.47972,-4.62608 -3.46713,4.74224 -8.08395,2.21522 -15.70624,-8.60002 l -6.58771,-9.34589 -1.50291,5.62058 c -1.6964,6.342 -0.11962,14.9787 2.73499,14.9787 1.07676,0 0.95646,1.97067 -0.27978,4.58532 l -2.16849,4.58531 3.36432,-4.58531 c 4.83082,-6.58452 6.85619,-5.66745 6.18924,2.80214 -0.52683,6.68844 -0.31884,7.02674 2.20441,3.57451 2.33042,-3.18731 3.08087,-3.332 4.58825,-0.89261 1.47275,2.38232 2.37483,2.43939 4.93542,0.31384 1.7233,-1.42858 3.67,-4.28982 4.32601,-6.35831 0.67718,-2.1337 2.91353,-3.6275 5.17372,-3.45835 5.20542,0.39332 5.11559,0.66436 -2.5271,7.64627 -3.57944,3.26882 -5.85288,6.59878 -5.05208,7.39969 0.80082,0.8009 5.68461,-2.61465 10.85292,-7.58718 5.16828,-4.97456 8.50266,-7.35281 7.40973,-5.28432 -2.48319,4.69944 -0.94804,13.56235 2.34913,13.56235 1.47394,0 2.40134,2.79399 2.30983,6.95745 -0.14876,6.76997 -0.37931,6.95746 -8.57886,6.96154 -7.21759,0 -8.28357,-0.53802 -7.43304,-3.79053 0.54608,-2.08887 2.50364,-4.08807 4.35012,-4.44267 2.30554,-0.44426 3.3572,-2.74507 3.3572,-7.34466 0,-6.35219 -0.16181,-6.49892 -3.14124,-2.81844 -5.36112,6.6212 -10.68978,8.54296 -14.98231,5.40253 -3.27461,-2.39456 -4.90821,-2.21318 -11.81156,1.30834 -5.85188,2.98555 -11.09381,3.92299 -19.44671,3.47465 l -11.4353,-0.61341 -8.78323,16.30335 c -4.83077,8.96684 -8.80038,16.99216 -8.82135,17.83179 -0.021,0.84166 1.796,1.52844 4.03771,1.52844 2.24171,0 4.07584,0.91706 4.07584,2.03791 0,1.12086 3.03444,2.03792 6.74321,2.03792 3.70876,0 8.52335,1.34707 10.69907,2.99167 2.17572,1.64664 5.19286,3.02223 6.70475,3.05688 1.51189,0.0407 5.89523,1.559 9.74074,3.38294 6.25805,2.96925 7.35983,2.9937 10.49759,0.22621 1.92816,-1.69962 6.43842,-3.71309 10.02281,-4.47527 7.3662,-1.56512 16.74374,-14.11463 28.3214,-37.90529 5.72796,-11.76898 11.01469,-19.1279 11.01469,-15.33126 0,0.60322 -4.63131,10.13457 -10.29179,21.17805 -12.79373,24.96247 -20.10735,34.07604 -28.73064,35.80216 -3.60981,0.72142 -8.27964,2.86531 -10.37737,4.76261 -3.11838,2.82252 -4.53476,3.00186 -7.76504,0.98432 -2.17304,-1.35522 -10.14605,-4.39579 -17.71781,-6.7557 -7.57175,-2.35788 -17.22436,-5.56352 -21.45025,-7.12253 -9.38919,-3.48076 -9.63887,-3.48688 -9.63887,-0.26085 0,3.85166 -18.12071,34.09234 -20.42898,34.09234 -1.09347,0 -1.98813,-1.01488 -1.98813,-2.25394 z M 92.005808,448.63983 c -6.235727,-4.55882 -7.30342,-2.97536 -2.4405,3.62138 3.82084,5.18243 4.77621,5.65726 5.37741,2.6819 0.4021,-1.99104 -0.91951,-4.82783 -2.93691,-6.30328 z m -9.002728,-5.1274 c 0,-3.29124 -0.602635,-3.8802 -2.267934,-2.21522 -1.247364,1.2472 -1.651772,3.26474 -0.898688,4.48342 2.108007,3.41148 3.166622,2.65337 3.166622,-2.2682 z m 13.027658,-8.59798 c -1.65212,-4.30613 4.776312,-12.83278 10.498392,-13.92714 2.75265,-0.52578 5.00481,-0.3709 5.00481,0.34848 0,3.63769 14.10804,0.47892 19.28018,-4.31835 5.5513,-5.14778 8.83604,-15.89372 4.85807,-15.89372 -1.09769,0 -1.4154,-2.06238 -0.70601,-4.58532 0.98505,-3.50115 0.80037,-3.87205 -0.78165,-1.5692 -2.45323,3.57044 -14.48999,4.67499 -14.51882,1.33076 -0.011,-1.26962 -2.26142,2.50664 -5.00104,8.39011 -4.88527,10.49325 -9.48841,14.18392 -8.89756,7.13272 1.26915,-15.14377 -2.7804,-13.77226 -12.022572,4.07584 -9.594697,18.52875 -9.648701,18.65714 -7.230234,17.16131 1.101141,-0.68066 3.742034,0.0815 5.868664,1.68944 4.85604,3.6764 4.99773,3.68251 3.64777,0.16303 z m 49.232852,-12.32737 c 3.64234,-8.71618 3.65808,-8.23931 -0.4057,-12.30292 -3.11951,-3.12005 -3.60628,-2.65948 -6.83817,6.47651 -1.91377,5.41067 -3.09948,10.52585 -2.6349,11.36547 2.08517,3.77219 7.18206,0.91503 9.87877,-5.53906 z m 49.82502,-31.02324 c 0,-4.54456 -1.54166,-2.95906 -3.84848,3.9556 -2.02123,6.05873 -1.95147,6.28698 0.81961,2.66764 1.66587,-2.1765 3.02887,-5.15594 3.02887,-6.62324 z m 75.91248,8.21077 c -1.40107,-0.56654 -3.69373,-0.56654 -5.0948,0 -1.40107,0.56451 -0.25474,1.02712 2.5474,1.02712 2.80214,0 3.94847,-0.46261 2.5474,-1.02712 z M 44.220211,387.87724 c 0,-1.12085 -0.888977,-0.66232 -1.975506,1.01896 -1.086528,1.68129 -1.975505,3.97395 -1.975505,5.0948 0,1.12086 0.888977,0.66232 1.975505,-1.01896 1.086529,-1.68128 1.975506,-3.97394 1.975506,-5.0948 z m 191.330199,0.002 c 5.20696,0.78053 11.09372,2.29062 13.08169,3.35442 2.57784,1.37763 4.51912,1.02915 6.7688,-1.22072 3.82937,-3.82925 2.89808,-3.84147 10.87411,0.14266 9.6428,4.81152 11.23761,1.19626 4.17193,-9.45391 -3.65992,-5.51664 -6.05509,-7.71148 -6.06037,-5.55536 -0.004,1.96047 -0.72173,3.56635 -1.59318,3.56635 -2.17898,0 -11.16771,-6.10764 -13.91412,-9.4539 -1.85307,-2.25802 -3.10633,-2.00328 -7.07339,1.43673 -2.6517,2.29877 -6.45282,3.75385 -8.44697,3.23214 -2.20639,-0.57673 -3.62568,0.18341 -3.62568,1.91972 0,3.55209 -4.42668,3.73143 -7.86484,0.31792 -2.05868,-2.04404 -2.29131,-1.74039 -1.17616,1.52843 0.86406,2.53314 -1.40366,1.04342 -5.99303,-3.93725 -10.04313,-10.89879 -9.99542,-4.24295 0.0679,9.46613 6.34492,8.64281 7.7378,9.63732 9.38354,6.6966 1.58146,-2.82659 3.6527,-3.19546 11.39983,-2.03384 z m 29.39669,-27.97043 c -9.44593,-18.73051 -9.48957,-18.77739 -11.86462,-12.96728 -1.49483,3.65603 -2.92563,4.95418 -3.83671,3.48077 -0.7991,-1.29408 -2.30833,-1.8219 -3.35382,-1.17588 -1.04551,0.64602 -2.87668,-1.3919 -4.0693,-4.52826 l -2.16836,-5.70413 -3.89626,5.07238 c -2.14293,2.78787 -3.91663,6.21769 -3.94156,7.61774 -0.097,5.45754 -8.19699,0.27715 -8.19699,-5.24153 0,-2.34564 0.58331,-2.41493 3.05687,-0.36275 2.62154,2.1765 3.05688,1.48564 3.05688,-4.84617 0,-4.05953 0.91707,-7.38134 2.03792,-7.38134 1.12086,0 2.03792,-1.83413 2.03792,-4.07584 0,-5.77139 5.78557,-5.07442 7.27953,0.87834 0.81527,3.24845 2.5829,4.85229 5.13362,4.66072 2.13961,-0.16303 3.90398,-1.24313 3.92083,-2.40678 0.0607,-4.19811 -16.92461,-39.6905 -18.52183,-38.70415 -0.90062,0.55839 -2.61025,-0.61138 -3.79915,-2.59631 -2.04768,-3.41963 -2.32296,-3.40129 -5.22005,0.34645 -1.68211,2.17649 -3.05838,5.61446 -3.05838,7.64219 0,2.02773 -0.83121,3.6866 -1.84713,3.6866 -1.01592,0 -1.36751,1.83412 -0.78128,4.07583 0.82157,3.14247 0.0626,4.07584 -3.31162,4.07584 -2.40761,0 -4.96644,-1.53455 -5.68628,-3.41147 -0.71985,-1.87489 -2.89894,-4.99902 -4.84242,-6.94319 -3.35288,-3.35238 -3.59012,-3.31774 -4.63785,0.68881 -0.89047,3.40537 -1.66987,3.75385 -4.02626,1.79745 -2.32846,-1.93195 -3.2073,-1.68944 -4.32636,1.19218 -1.24621,3.21176 -1.72379,3.04669 -4.24162,-1.47545 -1.56052,-2.80214 -2.8698,-4.26537 -2.9095,-3.25048 -0.0397,1.01488 -1.90635,0.18341 -4.14806,-1.84432 -2.31138,-2.0909 -4.07583,-2.66967 -4.07583,-1.33484 0,1.29408 -0.70181,2.3538 -1.55958,2.3538 -1.85353,0 -9.35099,-20.33843 -7.99672,-21.69161 1.11572,-1.11678 13.63213,13.72335 13.63213,16.16274 0,0.93132 0.78242,1.21052 1.7387,0.61952 0.95629,-0.59099 1.36897,-4.7728 0.91706,-9.29087 -0.97431,-9.74329 2.03341,-10.76836 6.46254,-2.20503 3.89559,7.53419 3.90576,8.99538 0.0524,7.51585 -2.19602,-0.84166 -3.05688,0.2099 -3.05688,3.73754 0,2.70228 0.91706,5.47793 2.03792,6.17082 1.12085,0.69289 2.03792,-0.16304 2.03792,-1.91768 0,-3.79461 2.34275,-4.09418 5.70617,-0.73162 1.90205,1.90138 2.4455,1.19015 2.4455,-3.20564 l 0,-5.64911 5.33434,4.19607 c 6.03016,4.74224 9.70664,3.79053 7.8577,-2.03384 -0.68156,-2.14797 -0.45649,-3.90465 0.50013,-3.90465 2.03804,0 1.75522,-11.64263 -0.40844,-16.81283 -1.78502,-4.26537 2.06023,-4.88897 4.4468,-0.71939 1.30714,2.28247 2.09871,2.33749 3.99941,0.27512 1.82622,-1.98086 0.93121,-5.08664 -3.90261,-13.54401 -4.0396,-7.06954 -6.63194,-9.90021 -7.28254,-7.95603 -1.67287,5.00105 -6.38403,8.65708 -9.5782,7.43229 -1.65247,-0.63583 -3.00451,-0.40555 -3.00451,0.50744 0,0.91502 -1.88574,3.8374 -4.19057,6.49485 -3.5066,4.04323 -4.49936,4.3428 -6.08255,1.84024 -2.33146,-3.6866 -2.53752,-10.12438 -0.32409,-10.12438 0.89668,0 2.68004,1.04952 3.96301,2.33341 3.3233,3.32181 5.45779,-6.37461 3.54452,-16.10363 -2.47506,-12.58415 -2.79951,-20.8744 -0.81703,-20.8744 1.02781,0 1.86875,1.06991 1.86875,2.37825 0,1.30631 0.47423,1.90342 1.05383,1.32261 0.57959,-0.57877 -2.15858,-6.38888 -6.08484,-12.90818 -3.92625,-6.5193 -7.68732,-13.58273 -8.35792,-15.69605 -1.01153,-3.1873 -1.74846,-3.40332 -4.32529,-1.26351 -2.56245,2.12555 -3.60239,1.8973 -5.94237,-1.30223 -1.55999,-2.1337 -2.83635,-4.89508 -2.83635,-6.13821 0,-3.86186 -4.23744,-6.72717 -8.35631,-5.64911 -2.16523,0.5645 -3.72961,2.06441 -3.47642,3.32996 0.77388,3.86797 -4.52981,11.67523 -6.92566,10.19571 -1.29759,-0.80294 -1.67782,-0.46465 -0.89798,0.79682 1.32872,2.15001 -3.6324,8.63059 -6.60688,8.63059 -2.19111,0 -10.41929,-15.2151 -10.41929,-19.26649 0,-3.00593 0.75231,-2.8918 6.11376,0.92522 l 6.11376,4.35299 0,-4.43247 c 0,-3.16896 0.90176,-4.08603 3.16272,-3.21787 1.7395,0.6664 2.64706,0.37905 2.0168,-0.64195 -0.63026,-1.01896 -1.48298,-4.74835 -1.89493,-8.28618 -0.82686,-7.10214 -5.32251,-13.52566 -5.32251,-7.60551 0,2.18465 -1.09231,2.98148 -3.05688,2.22745 -1.68128,-0.64602 -3.05688,-0.0815 -3.05688,1.26962 0,1.34503 -1.81773,4.75446 -4.0394,7.57902 l -4.0394,5.13556 -2.08893,-5.49423 c -2.40673,-6.32978 -0.78002,-10.80097 2.67332,-7.3467 3.70768,3.70697 7.44356,-5.49423 5.03536,-12.40277 -2.94419,-8.44514 -0.79352,-11.9096 2.95632,-4.76262 1.76407,3.36257 3.52018,5.8203 3.90246,5.46162 0.38229,-0.35867 3.27669,0.32811 6.43201,1.52844 6.99555,2.65949 10.16442,2.78991 8.66047,0.35664 -0.62014,-1.0047 0.26377,-2.35787 1.96424,-3.01205 2.72639,-1.04545 2.7455,-2.01346 0.16173,-8.19854 -1.61152,-3.85575 -2.32028,-7.62182 -1.57503,-8.3677 0.74525,-0.74384 1.355,-2.0318 1.355,-2.8592 0,-0.82739 1.72768,-3.23214 3.83929,-5.34342 2.90847,-2.90811 3.18289,-4.0575 1.13187,-4.74224 -1.48908,-0.49521 -5.16706,2.04403 -8.17329,5.64504 l -5.46587,6.54783 -4.32716,-5.50034 c -2.37993,-3.02631 -4.32715,-6.35016 -4.32715,-7.38542 0,-1.03526 -0.9873,-1.2737 -2.194,-0.52782 -1.20671,0.74588 -4.07744,-0.66436 -6.37941,-3.13636 -3.25594,-3.49503 -4.55436,-3.89446 -5.84686,-1.80356 -0.91381,1.47749 -2.28305,2.06645 -3.04276,1.30631 -1.88631,-1.88508 -15.14367,8.45329 -15.14367,11.81178 0,4.6383 -4.56907,5.76527 -7.441882,1.8382 -2.50271,-3.4237 -2.75324,-3.13228 -2.80969,3.25456 -0.0528,5.9711 -0.38567,6.45612 -2.2422,3.2627 -1.19913,-2.06441 -1.76782,-6.56006 -1.26377,-9.99599 0.7766,-5.29044 0.53876,-5.72655 -1.55843,-2.8592 -2.818068,3.85371 -5.629659,21.17194 -3.893366,23.98223 0.632335,1.02303 1.96434,1.35725 2.960006,0.7418 0.99568,-0.61545 3.24852,1.66091 5.00632,5.06015 1.7578,3.39925 3.68511,6.18101 4.2829,6.18101 0.59779,0 0.52012,-0.91706 -0.17261,-2.03792 -0.69273,-1.12085 -0.20247,-2.03792 1.08947,-2.03792 1.291942,0 2.828622,1.83413 3.414842,4.07584 0.58622,2.24171 2.31465,4.07584 3.84096,4.07584 1.99163,0 2.66184,2.60242 2.37392,9.21751 -0.27985,6.42963 -1.17297,8.922 -2.95313,8.2393 -1.40357,-0.54005 0.83203,5.85902 4.96799,14.21856 5.96851,12.0604 8.45052,15.19676 12.03053,15.19676 2.72076,0 5.02389,-1.61811 5.8042,-4.07584 1.84717,-5.82029 4.1974,-5.04792 7.27802,2.38844 1.47274,3.55617 3.0281,5.41272 3.45635,4.12883 0.53738,-1.612 2.34639,-1.30835 5.83809,0.9782 4.94552,3.24233 5.0334,3.20564 3.90332,-1.57939 -0.63586,-2.69413 -0.25584,-6.27271 0.84451,-7.954 1.65368,-2.52701 3.09924,-1.72815 8.33592,4.60366 3.48442,4.21442 7.07463,7.20405 7.97823,6.64566 0.90361,-0.55839 2.28932,-4.46101 3.07935,-8.67135 l 1.43643,-7.65646 3.88939,4.80338 c 2.13918,2.64114 3.8894,6.69252 3.8894,9.00148 0,2.30896 1.5684,5.93238 3.48533,8.04978 2.50868,2.77361 2.82085,4.26333 1.11405,5.31693 -1.30418,0.80702 -2.64331,6.24826 -2.97583,12.09505 -0.33253,5.84475 -1.14518,10.63182 -1.80591,10.63794 -1.00905,0 -3.22949,-3.73755 -7.5855,-12.79202 -0.42125,-0.87631 0.33544,-1.33484 1.68155,-1.01896 2.80496,0.65621 4.90152,-13.07325 3.09525,-20.26914 -1.38078,-5.50238 -5.16061,-6.2075 -5.16061,-0.96394 0,5.63689 -4.16991,8.98111 -7.62545,6.11172 -2.3197,-1.92379 -2.71519,-1.31038 -2.1883,3.40129 0.36689,3.28105 -0.45103,6.13413 -1.90428,6.64361 -1.77842,0.62361 -2.5474,-1.72 -2.5474,-7.7665 0,-4.76466 -0.53496,-8.12722 -1.18879,-7.47305 -0.65383,0.65417 -1.2028,1.95232 -1.21992,2.88773 -0.1,5.45347 -4.0939,8.65096 -9.46313,7.57698 -5.12796,-1.02507 -5.90237,-0.40351 -7.99662,6.41944 -2.24304,7.30798 -1.57378,9.8941 4.93698,19.07085 0.31215,0.43815 2.0352,-0.41981 3.829,-1.90749 2.72493,-2.26209 3.58614,-2.22541 5.23524,0.21805 1.57369,2.33342 1.90774,2.1011 1.64792,-1.14938 -0.17923,-2.24171 -0.19109,-6.3685 -0.0264,-9.17064 0.27384,-4.65868 0.52939,-4.79114 2.98358,-1.56104 1.47625,1.94417 3.26917,2.9509 3.98427,2.23559 0.7151,-0.71531 2.65516,1.94214 4.31124,5.90589 1.96746,4.70963 4.80202,7.65646 8.17843,8.50424 2.84205,0.71327 5.16737,2.19687 5.16737,3.29531 0,2.72878 -2.74617,2.51276 -5.70617,-0.4463 -1.90206,-1.90138 -2.44551,-1.88711 -2.44551,0.0611 0,1.86062 -1.03272,1.96455 -3.95216,0.4035 -4.79796,-2.56981 -6.17609,-0.73976 -5.31999,7.05935 0.35692,3.25048 -0.36163,7.53011 -1.59679,9.50689 -1.7922,2.86939 -0.8196,6.38888 4.81593,17.42625 13.18908,25.83266 39.66678,68.57596 40.33758,65.11762 0.85521,-4.40598 3.68871,-4.33058 6.31058,0.16303 1.64509,2.82455 2.10513,2.93053 2.2114,0.50948 0.0821,-1.87285 1.26201,-1.08417 3.04663,2.03792 1.7866,3.12617 2.96542,3.9128 3.04948,2.03792 0.10455,-2.33342 0.90959,-2.09295 3.40326,1.01896 3.08605,3.85166 3.19108,3.85981 1.90407,0.16303 -2.54202,-7.30186 3.46985,-7.70741 9.59118,-0.64806 l 5.7205,6.59878 -3.1731,-6.52134 c -4.33708,-8.91589 -3.90913,-10.79689 1.06561,-4.68721 l 4.14804,5.0948 -1.26382,-6.46632 c -1.10946,-5.6756 -0.78188,-6.33997 2.68209,-5.43309 2.17026,0.56654 6.02121,3.83944 8.55767,7.26925 l 4.61175,6.23807 3.55223,-4.70963 3.55224,-4.70963 1.3919,4.3856 c 1.14123,3.59693 9.14143,14.46311 10.74627,14.59762 0.24184,0.0204 -3.82666,-8.42272 -9.04111,-18.76108 z m -61.5589,-13.0651 c -6.06505,-7.70945 -5.08279,-11.10258 1.1008,-3.80072 l 5.17797,6.11376 -1.20676,-6.11376 c -2.57483,-13.04472 -3.08907,-25.47398 -1.05399,-25.47398 1.14166,0 2.69254,1.60588 3.44641,3.56636 1.15034,2.9937 1.56532,2.74711 2.5818,-1.52844 l 1.21115,-5.0948 3.01873,6.11376 c 3.5623,7.21423 2.8182,14.04329 -1.35579,12.44149 -2.04118,-0.7846 -2.88673,0.50744 -2.90646,4.43451 -0.0371,7.39561 -2.09522,14.71174 -4.13779,14.71174 -0.90877,0 -3.55301,-2.41698 -5.87607,-5.36992 z m -21.24942,-23.06516 c -6.80734,-7.41191 -11.50519,-14.8116 -11.50519,-18.12118 0,-2.42308 0.50819,-2.43123 3.37009,-0.0611 1.85356,1.53659 3.91695,2.62483 4.58532,2.41493 0.66837,-0.20991 1.01273,1.30427 0.76523,3.36664 -0.24749,2.06034 0.89884,4.86655 2.5474,6.23399 2.42844,2.01551 2.99739,1.86062 2.99739,-0.81924 0,-5.16409 7.28749,-3.90873 11.10258,1.91361 1.88082,2.87142 3.05633,6.30939 2.61225,7.64219 -1.47236,4.41821 -11.4892,2.85105 -16.47507,-2.57593 z m 37.67772,-3.36665 c -1.9153,-4.20422 -1.70968,-5.23133 1.26797,-6.32977 1.95467,-0.72142 4.25919,-2.2947 5.12112,-3.49707 1.03243,-1.44081 2.59701,-0.83758 4.58532,1.76891 3.38696,4.43859 4.13021,12.25605 0.98024,10.30983 -1.12085,-0.69289 -2.03792,-0.48298 -2.03792,0.46465 0,4.08603 -7.78921,1.95233 -9.91673,-2.71655 z m -24.46029,-47.6771 c -0.1129,-2.80214 0.68379,-6.4704 1.77032,-8.15168 1.08654,-1.68128 1.98956,-2.25598 2.00672,-1.27981 0.0163,0.9782 1.39595,0.64602 3.06397,-0.73773 2.45736,-2.03996 3.27392,-1.88915 4.30382,0.79479 1.57924,4.1166 -2.60689,9.4967 -6.28839,8.08442 -1.52444,-0.58488 -3.15384,0.59304 -3.69042,2.66968 -0.69393,2.6819 -1.01782,2.30081 -1.16602,-1.37967 z m -32.8743,-55.79414 c 0,-0.42389 -1.3879,-4.09214 -3.08422,-8.15168 -3.69961,-8.85476 -0.39715,-9.9695 4.05085,-1.36948 3.6045,6.97172 3.95017,10.29149 1.07129,10.29149 -1.12085,0 -2.03792,-0.34645 -2.03792,-0.77033 z M 114.8252,194.34625 c -4.15009,-6.33385 -4.29604,-11.76083 -0.16957,-6.30532 2.9391,3.88631 2.99206,3.8802 2.99206,-0.29142 0,-3.96579 4.50823,-7.64627 6.6919,-5.46366 1.43444,1.43469 -2.84114,17.08387 -4.66748,17.08387 -0.85561,0 -3.03672,-2.26005 -4.84691,-5.02347 z m -8.0464,-28.94252 c -0.74724,-0.74588 -1.35861,-3.84352 -1.35861,-6.88205 0,-9.53746 12.22239,-15.6879 16.24339,-8.17409 2.40038,4.48545 2.88039,12.58414 0.53823,9.08096 -2.64301,-3.95152 -8.67036,-2.38436 -9.91625,2.58001 -1.20249,4.79114 -3.00217,5.89977 -5.50676,3.39517 z m 29.93258,-18.97506 c -1.24926,-6.24622 -6.83617,-13.05083 -6.83617,-8.3249 0,1.32261 -0.91706,1.84024 -2.03792,1.14735 -1.12085,-0.69289 -2.03791,0.16303 -2.03791,1.91768 0,5.17224 -3.73495,3.63361 -7.13272,-2.93664 -1.73885,-3.36257 -2.29735,-6.11376 -1.24112,-6.11376 1.05623,0 2.38298,1.14735 2.94832,2.5474 0.56535,1.40209 1.1003,0.38517 1.18879,-2.25598 0.11386,-3.39924 1.05431,-4.461 3.21777,-3.62953 1.68128,0.64398 3.05687,0.27716 3.05687,-0.81924 0,-1.14735 1.64185,-0.96598 3.87122,0.42592 7.08955,4.4284 13.86971,24.11062 8.30535,24.11062 -1.14888,0 -2.63499,-2.73081 -3.30248,-6.06892 z m 135.72697,182.16752 c 5.12304,-15.85705 5.12443,-15.68179 -0.11005,-14.02088 -4.67156,1.4836 -4.49343,-0.52171 1.3069,-14.7097 4.65151,-11.37974 0.14163,-17.78288 -7.85141,-11.14946 -7.3459,6.09746 -9.41419,-12.23362 -2.19494,-19.45397 5.70864,-5.70821 10.11904,-4.57513 6.74311,1.73223 -1.21468,2.27024 -1.69728,4.63831 -1.07244,5.26395 0.62487,0.6236 1.71434,-0.3709 2.42107,-2.21318 1.69039,-4.40395 4.92473,-4.29797 4.92473,0.16303 0,2.87347 0.57922,2.6819 3.19631,-1.0536 4.51514,-6.44594 7.64736,-3.51949 3.92893,3.67029 -3.385,6.54579 -4.10472,10.88656 -1.01148,6.09949 3.96035,-6.12802 1.96983,1.91972 -2.23923,9.05447 -2.35241,3.98617 -3.73499,7.24888 -3.07236,7.24888 2.61165,0 11.70266,-9.30514 14.42814,-14.7688 1.58533,-3.17915 4.91474,-9.17878 7.39866,-13.33614 2.48394,-4.15735 3.26901,-6.41129 1.74462,-5.01124 -3.68869,3.3911 -8.77913,3.25863 -7.45464,-0.20379 0.5784,-1.50602 -0.63693,-3.95764 -2.70074,-5.44532 -2.69347,-1.9401 -3.51553,-4.55475 -2.91308,-9.2603 0.67692,-5.28637 0.0294,-6.76589 -3.34622,-7.64831 -2.57856,-0.67455 -5.69235,0.41166 -8.11014,2.82863 -2.1585,2.15815 -5.30016,3.92503 -6.98144,3.92503 -1.68129,0 -3.05688,1.17995 -3.05688,2.6228 0,2.27228 -3.29503,3.4074 -11.20855,3.85982 -1.12086,0.0611 -3.50143,-0.49522 -5.29018,-1.24313 -2.49007,-1.03934 -4.12593,0.92929 -6.98021,8.40234 -2.05037,5.36991 -3.87315,12.20306 -4.05063,15.18657 -0.28007,4.70759 0.33811,5.30266 4.6836,4.51603 3.76494,-0.68271 4.72298,-0.16304 3.86382,2.06848 -1.79013,4.6648 5.15821,11.4959 9.32292,9.16452 2.76595,-1.54678 3.72202,-0.81924 4.92158,3.75385 1.73029,6.59471 1.09899,13.00396 -1.55231,15.76126 -1.14202,1.18811 -1.86172,-0.18341 -1.86172,-3.56635 0,-6.9595 -4.67141,-7.23258 -7.76021,-0.45242 -1.96865,4.32039 -1.20706,7.40987 5.27717,21.40222 8.69189,18.75904 9.62173,18.57971 16.6573,-3.19749 z m -14.1572,1.21052 c -1.35081,-0.83351 -2.12598,-3.23214 -1.72261,-5.32508 0.88148,-4.57717 7.81931,-6.51523 7.81931,-2.18465 0,1.64256 1.3756,3.51541 3.05688,4.16143 1.68128,0.64398 3.05688,2.00327 3.05688,3.02019 0,2.22337 -8.76183,2.45977 -12.21046,0.32811 z m -11.41053,-51.72442 c -0.64631,-1.68332 -0.31009,-4.60773 0.74716,-6.49688 1.64055,-2.93257 2.0735,-2.64318 2.95411,1.96251 1.12611,5.89163 -1.80352,9.4804 -3.70127,4.53437 z m -6.17021,11.86884 c 0.69593,-1.81374 0.3543,-2.63095 -0.80092,-1.91768 -1.10801,0.68474 -2.01458,2.10721 -2.01458,3.16285 0,2.93053 1.46072,2.28451 2.8155,-1.24517 z m -130.50504,-9.58229 c -1.88071,-3.04261 -4.77465,0.79886 -4.70297,6.24214 l 0.0722,5.48404 2.80586,-5.0683 c 1.54323,-2.78991 2.36443,-5.78361 1.82489,-6.65788 z m 123.6137,-2.53925 c 0,-1.68128 -0.88829,-3.05688 -1.97397,-3.05688 -1.08566,0 -1.44609,1.3756 -0.80092,3.05688 0.64518,1.68129 1.53345,3.05688 1.97397,3.05688 0.44049,0 0.80092,-1.37559 0.80092,-3.05688 z M 124.62015,243.09738 c 1.59931,-6.37053 -5.38929,-20.53407 -11.01411,-22.31928 -2.26051,-0.71735 -6.08287,-0.67863 -8.49413,0.0815 -3.45733,1.0964 -4.12236,0.7092 -3.14588,-1.83616 0.68103,-1.77299 0.36122,-3.76811 -0.71068,-4.43044 -2.147342,-1.32668 -2.459342,0.0611 -2.877092,12.79202 -0.32231,9.82277 0.91004,10.40357 9.347072,4.39579 8.93028,-6.36034 11.67904,-4.22257 9.85024,7.65442 -0.83478,5.42087 -1.07841,10.58903 -0.5414,11.48571 1.52439,2.53925 6.1926,-2.27635 7.58598,-7.82968 z m 144.33747,-1.92379 c -0.74942,-3.91892 -1.63398,-4.68314 -3.56902,-3.07726 -4.20392,3.48892 -5.76085,-4.03508 -1.75168,-8.46551 1.88824,-2.08683 3.88937,-3.33608 4.44695,-2.77973 0.55757,0.55839 2.39229,-0.12227 4.07718,-1.51621 2.63772,-2.17853 2.90293,-1.68536 1.90855,3.54598 -0.93687,4.92769 -0.71042,5.47181 1.19995,2.87958 2.42861,-3.29735 9.48749,-4.44674 9.48749,-1.54678 0,0.89872 1.35428,1.11474 3.00951,0.48095 1.92427,-0.73976 3.87943,0.75403 5.42191,4.13901 2.7163,5.96091 6.16525,6.74959 9.89122,2.26005 1.38511,-1.66905 3.26815,-2.57185 4.18456,-2.00531 0.91641,0.56654 2.24222,0.1019 2.94624,-1.04137 0.73968,-1.19626 -0.92144,-2.07053 -3.93502,-2.07053 -3.9656,0 -5.21507,-1.04138 -5.21507,-4.34892 0,-10.10196 -4.88469,-20.76639 -10.47902,-22.87767 -3.0559,-1.15347 -6.01331,-3.84556 -6.57204,-5.9813 -1.12218,-4.29185 -5.36605,-2.91422 -5.36605,1.74039 0,1.61607 -0.76422,2.93664 -1.69826,2.93664 -4.36257,0 -3.8782,-3.49911 1.87629,-13.55828 4.3876,-7.66868 5.39588,-10.89675 3.40312,-10.89675 -2.87715,0 -15.27173,23.60929 -14.20963,27.0656 0.31906,1.03934 -2.50393,7.52604 -6.27326,14.4142 -3.76936,6.88817 -7.8638,15.45761 -9.09876,19.04435 -2.17546,6.31551 -2.09749,6.46224 2.50273,4.71371 3.88498,-1.47749 4.94303,-1.06176 5.82036,2.29469 0.87746,3.35442 1.79114,3.71513 5.03017,1.98086 2.84353,-1.52232 3.6774,-3.5847 2.96158,-7.33039 z m 7.8806,-23.84773 c -2.74296,-4.39171 -1.10608,-8.53684 2.78184,-7.04508 1.43131,0.5482 3.40193,0.24862 4.37916,-0.66844 0.97724,-0.91503 3.83487,-0.8763 6.35032,0.0815 4.01097,1.53863 4.29212,2.37213 2.28577,6.77608 -2.80852,6.1647 -12.16363,6.66603 -15.79709,0.84777 z m -66.03778,18.98933 c -0.26039,-3.56432 -1.37539,-5.49015 -2.85309,-4.92361 -1.81634,0.69493 -1.86215,2.16427 -0.18239,5.85086 2.91828,6.40518 3.55684,6.20954 3.03544,-0.92725 z m -3.48431,-9.55376 c 0,-1.7465 -0.91707,-2.61058 -2.03792,-1.91769 -1.12086,0.6929 -2.03792,2.12148 -2.03792,3.17712 0,1.05564 0.91706,1.91768 2.03792,1.91768 1.12085,0 2.03792,-1.43062 2.03792,-3.17711 z M 72.716253,211.96614 c 4.330973,-10.2059 7.403708,-12.88576 13.127044,-11.44903 3.506911,0.88038 5.311461,2.71654 5.311461,5.40456 0,2.56981 -1.00953,3.68659 -2.732208,3.02631 -4.16164,-1.59773 -8.219548,1.79948 -6.743799,5.64503 1.182755,3.08337 1.891641,2.99167 7.429677,-0.9517 3.65215,-2.60039 6.12216,-3.38091 6.12216,-1.93399 0,1.60996 0.85694,1.7791 2.5474,0.49929 1.40107,-1.05972 4.689312,-2.03792 7.307202,-2.17242 3.67647,-0.18341 4.46068,0.53801 3.44561,3.20565 -0.9642,2.53313 -0.70856,2.85104 0.95993,1.19625 2.81467,-2.78991 -5.49537,-21.18009 -9.571432,-21.18009 -1.45793,0 -2.65079,0.91707 -2.65079,2.03792 0,3.70086 -5.81393,2.1174 -7.09971,-1.93398 -0.83561,-2.63299 -2.375298,-3.54394 -4.566964,-2.70228 -2.515065,0.96393 -2.979299,0.41573 -1.939768,-2.29266 2.351028,-6.12802 -9.708283,7.26926 -15.571658,17.29785 -6.51637,11.14538 -6.510472,11.10258 -1.579562,11.47349 2.441296,0.18341 4.749243,-1.73835 6.205407,-5.1702 z M 191.01278,200.52118 c 0,-0.48706 -0.94144,-3.36256 -2.09207,-6.38887 -1.61067,-4.23683 -1.36539,-6.61101 1.06593,-10.32206 4.04409,-6.17285 7.86185,-6.31959 6.04749,-0.23436 -1.34483,4.50991 -1.31497,4.51807 1.83577,0.50948 3.73162,-4.74835 4.15145,-3.43797 1.30071,4.05953 -1.35039,3.5521 -1.35039,4.92362 0,4.08807 1.11747,-0.69086 2.03461,0.40351 2.03812,2.43124 0.004,2.02773 2.61548,-1.81579 5.80444,-8.54092 3.18895,-6.72513 5.02023,-12.5332 4.0695,-12.90614 -0.95075,-0.37498 -1.72863,-1.97882 -1.72863,-3.56636 0,-3.82925 -3.88977,-3.70493 -5.37678,0.16303 -1.1761,3.06503 -8.91308,4.39987 -8.86083,1.52844 0.0842,-4.62403 2.72097,-10.49935 4.27971,-9.53746 0.99343,0.61546 1.80623,0.0408 1.80623,-1.25943 0,-1.30631 1.37559,-1.84839 3.05688,-1.20237 1.68128,0.64398 3.05688,0.26085 3.05688,-0.85185 0,-1.11271 2.29265,-2.89588 5.09479,-3.96172 2.80214,-1.06583 5.0948,-2.95294 5.0948,-4.19607 0,-1.24109 1.14633,-1.87285 2.5474,-1.40413 3.58121,1.20034 13.84965,-23.64393 13.23204,-32.01366 l -0.49505,-6.70883 -6.74669,7.38745 c -6.62167,7.24888 -6.73143,7.28556 -5.92246,1.9666 0.63769,-4.192 0.12431,-5.14982 -2.26824,-4.23072 -2.2891,0.87834 -2.7374,0.26085 -1.72561,-2.37622 0.79792,-2.07867 0.0968,-4.8319 -1.68412,-6.61304 -1.82803,-1.82802 -3.05103,-2.12759 -3.05103,-0.74588 0,1.26555 -0.77176,1.82597 -1.71501,1.24313 -2.90801,-1.79744 -1.17991,-13.19756 2.64047,-17.41809 3.08407,-3.409438 4.03826,-3.582661 6.44221,-1.179955 1.55206,1.552894 2.82193,3.859818 2.82193,5.127404 0,1.265547 0.91078,1.740383 2.02396,1.051566 2.95333,-1.823937 1.12625,-16.50918 -2.50613,-20.140751 -1.70966,-1.709814 -3.75114,-2.465882 -4.53664,-1.681283 -0.78551,0.784599 -2.62035,-0.203792 -4.07742,-2.194838 -2.35967,-3.226026 -2.78539,-3.268822 -3.89483,-0.377015 -0.68507,1.785216 -2.12633,2.70228 -3.2028,2.03588 -1.07644,-0.664361 -2.95881,2.510716 -4.18299,7.057313 -1.83325,6.806649 -1.67557,8.816037 0.89402,11.385852 3.52175,3.521524 3.08577,15.486147 -0.60916,16.717047 -1.27881,0.42796 -2.32512,-0.1019 -2.32512,-1.19422 0,-1.08417 -1.83413,-2.44958 -4.07584,-3.0365 -2.24171,-0.58488 -4.07583,-0.7683 -4.07583,-0.40351 0,0.36275 -0.58305,2.18057 -1.29567,4.03712 -0.96322,2.51071 -0.30962,3.20768 2.5474,2.71451 3.0627,-0.52782 3.91052,0.6827 4.17524,5.96091 0.34655,6.91058 -3.93118,9.38461 -6.16395,3.56636 -0.64516,-1.68129 -1.96873,-3.05688 -2.94124,-3.05688 -2.57585,0 -12.40117,23.7173 -11.58882,27.97247 0.37936,1.98901 0.75992,4.40191 0.84568,5.36177 0.0858,0.95985 1.59966,1.19218 3.36422,0.51559 6.76666,-2.59631 9.60793,7.01655 7.3114,24.74033 -0.43838,3.38295 -4.40594,3.29124 -4.40594,-0.10189 0,-1.46731 -2.27306,-2.6493 -5.0948,-2.6493 -2.80213,0 -5.09479,0.87427 -5.09479,1.94418 0,3.41555 14.38848,27.80944 16.40308,27.80944 1.066,0 1.93819,-0.39944 1.93819,-0.8865 z m 8.75551,-55.09309 c 0.27,-9.52727 -1.29074,-10.47287 -8.63817,-5.24153 -5.78355,4.11864 -6.24844,4.17162 -6.47255,0.73162 -0.43946,-6.74348 0.48702,-9.79017 3.7395,-12.30088 1.76889,-1.36541 3.96081,-2.02162 4.87095,-1.45915 0.91015,0.56246 3.48453,-0.12228 5.72084,-1.51621 5.55244,-3.46854 7.58681,-0.70716 4.84053,6.56821 -1.25601,3.32792 -1.50989,5.57167 -0.56416,4.98679 0.94574,-0.58285 2.31165,0.80294 3.03536,3.08337 1.29771,4.0901 1.37182,4.08195 5.38353,-0.47891 l 4.06773,-4.62608 -1.32665,6.10968 c -0.72963,3.36053 -1.48134,6.11172 -1.67044,6.11376 -0.18912,0 -2.39478,1.15142 -4.9015,2.55147 -6.97139,3.8965 -8.30252,3.15266 -8.08497,-4.52214 z m 13.66159,-15.34757 c 0,-2.24171 0.91707,-4.07583 2.03792,-4.07583 1.12086,0 2.03792,1.83412 2.03792,4.07583 0,2.24171 -0.91706,4.07584 -2.03792,4.07584 -1.12085,0 -2.03792,-1.83413 -2.03792,-4.07584 z M 95.391878,178.84384 c -6.39302,-14.27969 -10.242179,-15.41889 -13.276016,-3.9291 -1.157224,4.38152 -1.022707,4.5792 0.962112,1.40208 2.121928,-3.39721 2.805939,-3.10986 8.508314,3.56636 3.41049,3.99228 6.49788,7.25907 6.86088,7.25907 0.36299,0 -1.01189,-3.73347 -3.05529,-8.29841 z m 70.735662,-30.93153 c 1.93781,-2.3436 1.14108,-13.75595 -0.9603,-13.75595 -2.10323,0 -8.79665,4.33262 -8.76788,5.6756 0.0171,0.80091 0.86434,2.77361 1.8826,4.38357 1.59995,2.52702 2.35685,2.53313 5.57307,0.0408 3.35115,-2.60243 3.33517,-2.43735 -0.16052,1.65886 -2.13523,2.50257 -2.93531,4.55067 -1.77798,4.55067 1.15733,0 3.05228,-1.14531 4.21101,-2.54739 z m 19.29239,-38.21097 c 5.14825,-11.768988 11.22166,-26.747686 13.49647,-33.287367 3.6751,-10.564571 3.74905,-11.587606 0.66358,-9.170634 -1.90981,1.495832 -4.67074,4.324463 -6.13536,6.284941 -1.46463,1.962516 -3.75729,3.596927 -5.09479,3.633609 -2.99962,0.08152 -9.70918,13.868037 -7.43378,15.274201 1.92838,1.192183 -1.11864,12.99173 -4.13314,16.00785 -2.67924,2.67783 -2.74179,-0.79479 -0.13764,-7.64423 1.37237,-3.609158 1.23105,-5.327121 -0.48551,-5.899776 -1.85976,-0.619527 -1.84346,-2.074601 0.0703,-6.274752 2.45258,-5.384181 2.41878,-5.420864 -2.15495,-2.425123 -2.55564,1.675169 -6.30299,7.652385 -8.32745,13.281113 -2.02446,5.630768 -4.64896,10.833578 -5.83223,11.565188 -2.1245,1.31446 -1.55544,-2.51683 1.45642,-9.80239 2.07626,-5.023465 -5.00023,-3.761998 -10.29994,1.83413 -5.28673,5.5839 -11.03574,5.93442 -12.38957,0.75811 -0.55049,-2.10517 -3.14619,-4.805418 -5.76821,-5.999638 -3.78769,-1.726114 -5.32259,-1.487678 -7.46948,1.16162 -1.92063,2.370098 -1.97005,2.893838 -0.1709,1.813738 1.39219,-0.837578 3.89065,-0.76014 5.55213,0.16304 2.5242,1.41228 2.32427,2.12555 -1.21607,4.33669 -2.33032,1.45507 -3.62833,1.6609 -2.88446,0.45853 0.74387,-1.20441 0.6019,-2.18872 -0.31549,-2.18872 -0.91738,0 -2.87334,1.9299 -4.34656,4.28981 -2.21881,3.5521 -2.2155,3.9984 0.0194,2.59835 1.48382,-0.93133 4.22147,-1.44081 6.08367,-1.13512 1.8622,0.30569 3.97972,-0.40555 4.70559,-1.57939 0.72578,-1.17384 2.2949,-2.13574 3.48685,-2.13574 1.35133,0 1.19673,1.16977 -0.41067,3.10579 -3.12612,3.76608 -0.87937,6.7822 2.52034,3.38091 1.32634,-1.32465 3.37445,-2.38233 4.55135,-2.34564 1.1769,0.0408 0.37263,1.40208 -1.78725,3.03446 -5.23087,3.95763 -2.21294,6.67214 3.51026,3.15673 l 4.49264,-2.7573 -4.07584,4.66072 -4.07583,4.66072 5.09479,-2.61058 5.0948,-2.61057 -4.37353,4.86044 c -3.27584,3.64176 -3.78733,5.43716 -2.03792,7.15105 3.04574,2.98352 13.54417,-4.11048 13.54417,-9.15229 0,-3.75385 3.70409,-8.42068 6.68326,-8.42068 0.98574,0 1.18365,2.77157 0.43979,6.15859 -1.06238,4.83598 -0.33221,7.21831 3.40444,11.10258 2.61629,2.72062 5.28992,4.30612 5.9414,3.52153 0.65147,-0.78256 5.3967,-11.05164 10.54496,-22.82062 z m -38.35484,16.51733 c 0.75811,-1.22683 3.27211,-3.24437 5.58666,-4.48139 3.0152,-1.61403 3.81749,-1.62014 2.82988,-0.0204 -0.75811,1.22683 -3.27211,3.24437 -5.58666,4.48139 -3.0152,1.61403 -3.81749,1.62014 -2.82988,0.0204 z m -45.86397,-0.72346 c -0.11665,-5.39437 -0.44267,-5.86717 -1.755912,-2.5474 -0.88696,2.24171 -1.18292,5.22318 -0.65768,6.62323 1.638852,4.37134 2.562542,2.81233 2.413592,-4.07583 z M 238.87721,85.162758 c -1.76203,-5.551291 -3.43155,-5.001053 -7.99899,2.643181 -4.93059,8.251533 -9.39613,20.159091 -7.00631,18.681601 0.98201,-0.60526 1.78548,0.0815 1.78548,1.53863 0,1.45099 3.25953,-2.20096 7.2434,-8.117028 4.8639,-7.222388 6.82719,-12.066521 5.97642,-14.746384 z m -90.9647,-8.255609 c -3.16014,-1.954364 -7.80982,4.028966 -6.26357,8.057931 0.88498,2.306924 1.96214,1.919719 4.9563,-1.777065 2.8915,-3.570434 3.21069,-5.104987 1.30727,-6.280866 z m 103.59191,-6.945227 c -0.49721,-3.362566 -0.12166,-7.611626 0.83441,-9.441677 2.05369,-3.933184 -4.07827,-11.088316 -14.10291,-16.458232 -3.5759,-1.913606 -7.40983,-6.040391 -8.51989,-9.170635 -1.11005,-3.128205 -2.76115,-6.992099 -3.66913,-8.583713 -2.42312,-4.253137 -10.64922,-4.167544 -14.97214,0.163033 -2.06724,2.06645 -3.77268,3.069106 -3.78983,2.229483 -0.0163,-0.84166 -0.92019,-0.142654 -2.00672,1.528439 -3.40143,5.263944 -2.24135,10.209973 3.56635,15.20695 6.89496,5.932381 10.40641,3.774226 9.94152,-6.10968 -0.33962,-7.220347 2.10931,-8.968881 6.46373,-4.613848 2.80693,2.806214 3.36499,10.591063 0.6385,8.905704 -2.4828,-1.534552 -5.51436,2.728774 -7.14453,10.04694 -1.03207,4.632189 -0.83504,5.373992 0.81355,3.056878 1.62691,-2.286545 1.87998,-1.000618 1.00366,5.094797 l -1.17176,8.151675 2.96855,-6.113756 c 1.63272,-3.362566 3.04306,-4.831906 3.13409,-3.264746 0.10109,1.740382 2.55476,0.350522 6.29701,-3.566358 9.70502,-10.154949 10.09852,-8.6367 3.35753,12.94486 l -3.18259,10.189594 4.9007,-5.604277 c 2.69539,-3.081333 5.30118,-5.604276 5.79062,-5.604276 0.48945,0 1.53291,3.427779 2.31877,7.615702 1.36337,7.267218 1.56651,7.43229 4.43168,3.566358 1.7318,-2.335455 2.62017,-6.637502 2.09883,-10.163101 z m -71.87158,5.82641 c 1.0733,-2.798063 0.77509,-2.924414 -1.81988,-0.770333 -3.53629,2.934603 -3.90433,4.114557 -1.28365,4.114557 1.00094,0 2.39753,-1.506021 3.10353,-3.344224 z M 159.10298,48.594344 c -1.2035,-1.218675 -8.7446,8.367694 -8.79314,11.177984 -0.0194,1.120856 2.17071,-0.713271 4.86681,-4.075837 2.6961,-3.362566 4.46295,-6.558023 3.92633,-7.102147 z m 12.82781,-16.022117 c -1.72578,-2.229483 -2.40203,-2.037919 -3.60539,1.018959 -2.73503,6.949303 -1.95421,9.036132 1.98098,5.292475 2.73594,-2.602422 3.17477,-4.30816 1.62441,-6.311434 z M 213.749,13.002093 c 3.63993,1.1555 3.84696,0.817206 1.822,-2.965172 -1.25648,-2.3476822 -3.55285,-4.2694396 -5.10303,-4.2694396 -1.55016,0 -4.17818,-0.5217072 -5.84002,-1.1595757 -2.5913,-0.9945044 -2.54249,0.1834126 0.3428,8.3106333 2.94632,8.294329 3.44555,8.807884 4.01802,4.124747 0.52876,-4.324464 1.43836,-5.096835 4.76023,-4.041193 z M 123.76146,469.33082 c 0,-1.71797 1.60486,-3.69067 3.56635,-4.3856 1.9615,-0.69697 5.19289,-2.66356 7.18087,-4.37134 5.12879,-4.40802 8.93002,-0.39739 5.23323,5.52276 -3.00739,4.8156 -5.75848,5.64707 -5.85283,1.76892 -0.0344,-1.41432 -0.98638,-0.95986 -2.13918,1.01895 -2.55997,4.3958 -7.98844,4.69741 -7.98844,0.44631 z m 74.51823,-6.85148 c -2.95511,-4.783 1.32167,-7.78893 10.93679,-7.69111 8.35189,0.0815 9.41415,0.52578 7.03292,2.90607 -1.54268,1.54271 -4.91036,3.03039 -7.48372,3.30347 -2.57336,0.27512 -5.72301,1.14531 -6.99921,1.93398 -1.27621,0.78868 -2.84527,0.58489 -3.48678,-0.45241 z M 182.8611,450.28239 c 0,-1.25739 -1.42972,-2.28654 -3.17715,-2.28654 -1.74743,0 -2.65793,-0.83962 -2.02334,-1.86674 0.6346,-1.02711 0.23006,-4.29593 -0.89898,-7.26721 -1.43984,-3.78646 -1.3525,-6.70679 0.29254,-9.77998 l 2.34533,-4.38356 2.99834,4.51603 c 1.697,2.55555 5.10167,4.51603 7.84454,4.51603 5.67483,0 5.78054,0.43407 1.92374,7.89082 -3.44812,6.66807 -9.30502,12.1195 -9.30502,8.66115 z m 28.02138,0.26901 c -1.96149,-0.44834 -3.56635,-1.72816 -3.56635,-2.8429 0,-1.1127 -1.83413,-1.44285 -4.07584,-0.73161 -2.24171,0.71123 -4.07584,0.76829 -4.07584,0.12227 0,-2.55758 18.77594,-19.48658 21.61064,-19.48658 3.74592,0 13.28852,9.25623 11.44414,11.10055 -0.73854,0.73772 0.23411,0.73772 2.16143,-0.002 2.76147,-1.05972 3.50425,-0.21806 3.50425,3.96783 0,5.16001 -4.03046,7.86433 -4.12116,2.76545 -0.0249,-1.40005 -1.81844,-0.25474 -3.98558,2.5474 -3.33188,4.30816 -4.54313,4.7239 -7.84483,2.69413 -2.14752,-1.32057 -4.71006,-1.70981 -5.69453,-0.86204 -0.98448,0.84777 -3.39483,1.1718 -5.35633,0.72346 z m -10.69907,-16.82098 c 0.69273,-1.12086 -0.0579,-2.03792 -1.66812,-2.03792 -1.61018,0 -3.90457,-1.17792 -5.09863,-2.61669 -1.71258,-2.06237 -0.0143,-2.69413 8.03947,-2.9937 8.7003,-0.32199 10.09691,0.14265 9.44264,3.12616 -0.4223,1.92584 -1.85969,3.2729 -3.1942,2.99371 -1.33451,-0.2792 -2.42636,0.40758 -2.42636,1.52844 0,1.12085 -1.42973,2.03792 -3.17716,2.03792 -1.74743,0 -2.61037,-0.91707 -1.91764,-2.03792 z m -86.58034,-66.74184 c 0.0171,-4.20219 0.92018,-9.01779 2.00671,-10.69908 1.70862,-2.64318 1.97972,-2.59834 2.00671,0.34034 0.0171,1.86673 0.97714,3.71105 2.13327,4.09621 2.55023,0.84982 -1.52382,13.90472 -4.33934,13.90472 -1.0112,0 -1.82451,-3.43797 -1.80735,-7.64219 z m -82.274966,-1.55493 c 0.650647,-1.69555 0.03265,-4.46916 -1.373323,-6.16267 -4.468905,-5.38418 -0.837986,-5.22115 4.246636,0.18341 4.115008,4.37949 4.408982,5.49015 1.876128,7.09196 -4.394631,2.77972 -6.092309,2.37825 -4.749441,-1.12086 z m 17.030357,-0.9293 c 0,-1.08417 -1.372016,-1.44692 -3.048926,-0.80294 -2.473336,0.94967 -2.807188,-0.12227 -1.76843,-5.66949 1.449588,-7.74001 4.809111,-12.31921 6.222722,-8.47978 0.492736,1.33688 2.21223,1.92788 3.821097,1.31039 1.608866,-0.61749 2.925212,-0.16304 2.925212,1.01284 0,1.30835 2.13064,1.02915 5.511219,-0.7255 3.03117,-1.57123 5.855636,-2.51479 6.276593,-2.09294 1.784782,1.78522 -6.224962,10.97012 -8.728443,10.00822 -1.510732,-0.57877 -3.766445,0.85185 -5.012697,3.17915 -2.331404,4.35707 -6.198347,5.76731 -6.198347,2.26005 z M 287.56333,340.9236 c 0.8348,-2.1765 0.12921,-2.95702 -2.29899,-2.5474 -4.58946,0.77441 -5.23293,-10.14476 -0.89587,-15.20288 3.98525,-4.64645 11.51277,-4.86451 9.75413,-0.28327 -0.90168,2.34972 -0.38403,2.94887 1.81988,2.10314 1.694,-0.6501 3.07999,-0.77645 3.07999,-0.28124 0,2.77972 -9.26018,19.35004 -10.81371,19.35004 -1.01743,0 -1.30787,-1.41228 -0.64543,-3.13839 z m 9.42122,-6.13414 c 0,-3.39517 6.78289,-13.31372 12.6329,-18.46966 6.92309,-6.10153 20.17551,-21.86279 22.9383,-27.28161 0.85725,-1.68129 -0.60538,-0.62157 -3.25032,2.35583 -4.71686,5.30878 -13.62014,10.91102 -15.05679,9.47428 -0.40047,-0.40147 1.18678,-3.75384 3.52723,-7.44859 2.63458,-4.16143 4.79332,-5.85086 5.66784,-4.43655 1.68368,2.7247 3.989,0.24455 9.07348,-9.76367 4.96892,-9.77997 3.19238,-11.30229 -4.91126,-4.21238 -3.89408,3.4074 -7.39231,5.25784 -7.77386,4.11456 -0.38156,-1.14531 -2.01009,-1.57735 -3.61896,-0.95986 -1.60886,0.61749 -2.92521,0.1019 -2.92521,-1.13308 0,-1.24109 -1.48788,-2.25598 -3.3064,-2.25598 -2.57234,0 -2.79077,-0.62156 -0.98381,-2.79806 1.27743,-1.54066 1.75015,-4.29186 1.05045,-6.11375 -0.7266,-1.89323 -0.25315,-3.3157 1.10408,-3.3157 1.30692,0 1.7574,1.14735 1.00105,2.5474 -0.75635,1.40209 2.36015,-1.57939 6.92554,-6.62324 5.60603,-6.19323 8.32895,-8.05996 8.38762,-5.74896 0.11494,4.5201 5.9481,10.2222 8.71203,8.51238 1.20053,-0.7418 3.4227,0.34849 4.93814,2.41901 2.04866,2.80214 3.34614,3.17915 5.05883,1.46527 2.88449,-2.88366 4.14262,-16.83729 1.5182,-16.83729 -1.06615,0 -1.60211,-2.51072 -1.191,-5.58186 0.41111,-3.0691 -0.47457,-6.80257 -1.9682,-8.29637 -3.8996,-3.90057 -3.35963,-7.78077 1.74444,-12.53523 7.15898,-6.67011 9.66571,-5.46978 5.43295,2.60242 -2.24014,4.27148 -2.17652,4.3102 1.57498,0.98839 2.61476,-2.31712 4.88856,-2.8592 6.866,-1.63645 1.89632,1.1718 3.49727,0.95171 4.46442,-0.61341 0.82936,-1.34095 2.6677,-2.43939 4.08524,-2.43939 2.82201,0 13.53812,-20.25691 13.74551,-25.98347 0.13512,-3.73346 -2.90955,-4.85432 -4.8136,-1.77502 -0.60911,0.98635 -2.88213,2.25597 -5.05112,2.82455 -3.15105,0.82332 -3.84209,0.0815 -3.43824,-3.70901 0.79228,-7.43229 4.74293,-10.70315 12.48613,-10.33836 8.22269,0.3872 9.65301,-3.74162 1.96496,-5.67153 -2.80214,-0.70308 -5.0948,-2.63707 -5.0948,-4.29593 0,-1.66091 -0.6878,-2.78788 -1.52844,-2.50868 -0.84064,0.27919 -1.82006,-0.32607 -2.1765,-1.3491 -0.35643,-1.021 2.1655,-3.04058 5.60428,-4.48546 4.37419,-1.84024 6.25234,-1.94825 6.25234,-0.36275 0,1.2472 2.52192,-1.04545 5.60427,-5.0948 3.81319,-5.01124 6.74407,-7.02674 9.17064,-6.30532 2.04228,0.6073 3.56635,0 3.56635,-1.45507 0,-1.38375 0.45501,-2.06034 1.01116,-1.50399 0.55613,0.55635 -1.66737,5.98129 -4.9411,12.05633 -3.27373,6.07707 -8.83008,18.38406 -12.34744,27.35091 -9.43098,24.04336 -30.97673,65.41515 -52.32414,100.47347 -4.30123,7.06546 -13.13228,17.96018 -19.62452,24.21455 -6.49226,6.25233 -13.16453,14.0005 -14.82725,17.2143 -2.78422,5.38418 -4.9564,7.45674 -4.9564,4.72593 z M 44.282624,330.16339 c -4.104034,-1.86062 -5.46946,-9.48855 -1.420167,-7.93566 1.628783,0.62564 3.886591,0.21194 5.017352,-0.9191 1.382624,-1.38375 3.466168,-0.84778 6.362087,1.63033 4.952016,4.24091 5.721284,7.8358 1.314545,6.14637 -1.645387,-0.63176 -3.533637,-0.27105 -4.196109,0.8009 -1.363237,2.20503 -2.705771,2.25801 -7.077708,0.27716 z m 20.379187,0.0204 c 0,-0.90891 2.793188,-4.50787 6.207083,-8.00086 4.760264,-4.86859 7.480941,-6.11784 11.672125,-5.35769 6.994079,1.26962 7.679519,2.05218 4.812765,5.50645 -1.289122,1.55494 -4.566715,2.58205 -7.283536,2.28247 -2.831702,-0.30976 -6.438531,1.11474 -8.451989,3.34015 -3.646517,4.02897 -6.956448,5.08868 -6.956448,2.22948 z m 96.123299,-5.04384 c -1.60469,-1.94825 -2.14719,-5.09073 -1.326,-7.67888 1.92637,-6.06892 5.56626,-1.97678 4.71056,5.29655 -0.59468,5.05404 -0.96977,5.31897 -3.38456,2.38233 z m -28.31177,-3.3789 c 0.59764,-2.28655 -0.47101,-5.32305 -2.52699,-7.18367 -3.18801,-2.88569 -3.83379,-2.89792 -6.14222,-0.12227 -4.52845,5.45551 -6.372,3.33811 -3.05828,-3.51541 l 3.20281,-6.62324 -4.75547,5.60428 c -4.86857,5.73674 -10.25078,7.62589 -8.71065,3.05688 0.47222,-1.40209 1.26877,-5.29859 1.77012,-8.66116 0.50134,-3.36256 1.9848,-8.86494 3.29659,-12.22751 2.18128,-5.59205 2.56728,-5.78769 4.51777,-2.30285 1.72054,3.07522 2.47452,3.27086 3.90133,1.01896 2.64604,-4.17773 2.39625,1.39801 -0.31462,7.02267 -1.48743,3.08541 -0.55279,2.57593 3.04675,-1.66294 4.93402,-5.81011 5.19291,-5.88551 5.20253,-1.52844 0.0104,4.72186 2.87693,6.15247 5.10492,2.5474 2.97416,-4.81153 4.39814,-1.1983 4.21635,10.69907 -0.21112,13.81709 -1.69972,17.83179 -6.61223,17.83179 -2.14002,0 -2.83687,-1.29 -2.13871,-3.95968 z m -69.849447,-5.82234 c 0,-6.30124 -0.288706,-6.52134 -8.559259,-6.52134 -6.070595,0 -7.926296,-0.63379 -6.382311,-2.17649 1.197322,-1.1983 5.736786,-1.88508 10.087698,-1.52844 7.013739,0.57469 7.986585,1.31242 8.57955,6.50096 0.367838,3.21787 -0.319959,6.84129 -1.528439,8.04978 -1.57104,1.57123 -2.197239,0.33829 -2.197239,-4.32447 z m 0.457058,-15.78572 c -3.671612,-3.87204 -8.027664,-7.03897 -9.680114,-7.03897 -4.228237,0 -3.733196,-3.34626 1.228951,-8.30859 2.687517,-2.68802 5.478174,-3.72124 7.642195,-2.83067 1.874832,0.77033 4.784383,1.53048 6.465666,1.68536 7.158112,0.66232 9.722982,14.89515 3.75198,20.81938 -2.278082,2.26005 -3.844253,1.54066 -9.408678,-4.32651 z m 70.042209,-15.50041 c 0.79782,-1.29 -0.0942,-3.47669 -1.98221,-4.85636 -2.88653,-2.11128 -3.04617,-3.35849 -1.00319,-7.84191 2.82658,-6.20546 7.88913,-7.12049 7.88913,-1.42654 0,2.14797 1.12692,4.28167 2.50427,4.7402 1.83498,0.61137 1.5501,2.29062 -1.06594,6.2829 -3.36895,5.14167 -9.43694,8.11092 -6.34206,3.10171 z m -14.34284,-3.58266 c -1.47293,-2.38232 0.78449,-8.33508 3.16125,-8.33508 1.00094,0 1.81989,2.29265 1.81989,5.09479 0,5.0357 -2.76128,6.83314 -4.98114,3.24029 z m -43.928915,-9.01371 c 0,-2.75731 -6.906753,-3.28309 -9.468774,-0.72142 -3.330858,3.32995 -8.869189,1.3063 -8.711607,-3.18527 0.08849,-2.52295 0.606271,-3.49096 1.150625,-2.15204 1.235303,3.03649 6.356982,1.32668 12.770769,-4.26537 3.887043,-3.38906 4.657855,-3.57247 3.695036,-0.88445 -1.245034,3.47668 3.292274,6.79849 8.206146,6.00574 1.40107,-0.22621 2.547399,1.05972 2.547399,2.85513 0,1.79744 -0.853697,2.73896 -1.897103,2.09498 -1.043406,-0.64602 -2.473122,-0.24048 -3.17715,0.89872 -1.834946,2.96925 -5.115341,2.55555 -5.115341,-0.64602 z m 16.368163,-11.47145 c 0.19052,-3.22398 5.79775,-8.24542 7.01308,-6.28086 0.74548,1.20645 2.126352,1.71796 3.068612,1.13512 2.67602,-1.65275 8.19477,1.13104 8.19477,4.13494 0,1.89322 -2.75462,2.61668 -9.17064,2.40882 -5.043852,-0.16304 -9.141472,-0.79275 -9.105822,-1.39802 z M 80.965161,245.22293 c 0,-1.68128 -1.076919,-3.05688 -2.393156,-3.05688 -1.316237,0 -0.265869,-2.26412 2.33415,-5.03162 5.389071,-5.73674 9.321433,-4.92768 6.021347,1.23906 -1.210195,2.26005 -1.699989,5.41475 -1.08843,7.0084 0.65016,1.69555 -0.130997,2.89792 -1.880993,2.89792 -1.646104,0 -2.992918,-1.37559 -2.992918,-3.05688 z M 325.8466,238.36737 c -1.49914,-0.96597 -2.4162,-3.9291 -2.03792,-6.58451 0.50756,-3.56432 2.10835,-4.93584 6.10939,-5.23745 4.87619,-0.36887 5.38875,0.24047 5.0948,6.05262 -0.33809,6.68437 -4.08536,9.04224 -9.16627,5.76934 z m -9.84199,-19.78819 c -0.84727,-2.2091 -2.73385,-2.8327 -6.04981,-1.9992 -5.78848,1.45304 -6.14387,-1.09232 -1.2985,-9.29291 2.04355,-3.46038 4.67792,-5.51664 6.28042,-4.90119 1.51821,0.58285 4.15909,1.05972 5.86861,1.05972 1.72716,0 2.6525,1.1881 2.08253,2.67375 -0.74294,1.93602 0.61115,2.43123 4.91226,1.80152 l 5.93795,-0.87223 -6.52424,7.36911 c -7.20424,8.13741 -9.37418,8.94239 -11.20922,4.16143 z M 246.03658,194.3952 c 0,-1.61607 0.91707,-3.50318 2.03792,-4.19607 2.91539,-1.80152 2.53593,-3.91077 -1.52844,-8.48997 -4.71831,-5.31897 -9.67793,-7.00025 -12.4547,-4.22461 -1.23875,1.23906 -2.95537,1.53455 -3.81468,0.65621 -1.74026,-1.77706 13.06418,-15.45354 16.72889,-15.45354 1.2803,0 4.10773,1.30223 6.28317,2.89181 3.42491,2.5046 3.64417,3.71716 1.63498,9.04021 -3.25598,8.62651 1.87515,10.33225 8.48563,2.82251 3.88236,-4.41005 4.92907,-4.84617 4.97994,-2.07052 0.067,3.66214 -16.90482,21.96061 -20.36843,21.96061 -1.09134,0 -1.98428,-1.32057 -1.98428,-2.93664 z m 98.63154,-32.04423 c -0.57859,-0.93541 -0.42448,-2.71655 0.34245,-3.95764 0.95693,-1.54882 -0.12431,-1.78929 -3.44608,-0.76626 l -4.84052,1.48972 4.94054,-5.3475 c 6.24684,-6.76181 9.0613,-6.81276 7.78624,-0.14265 l -0.99485,5.2028 4.83311,-4.54048 c 2.98377,-2.80214 4.8331,-3.52764 4.8331,-1.8973 0,2.13777 0.59483,2.15 3.10614,0.0611 4.66759,-3.87409 6.36953,-0.46465 2.87638,5.76119 -2.45195,4.3693 -4.6392,5.52276 -10.73205,5.66134 -4.20887,0.1019 -8.12587,-0.591 -8.70446,-1.52844 z m -82.32819,-3.85982 c 0,-1.18607 -0.92527,-1.5855 -2.05616,-0.8865 -4.43752,2.741 -10.04347,-1.57938 -13.37871,-10.31187 -2.76219,-7.23257 -4.03357,-8.62447 -6.22176,-6.80868 -2.07681,1.72408 -3.02593,1.56512 -3.87641,-0.65214 -1.26685,-3.30142 2.16364,-13.74372 4.59394,-13.98419 1.66952,-0.16304 5.68516,-0.97821 10.74951,-2.1765 3.36523,-0.79683 3.88309,6.44186 0.95619,13.36671 -1.09416,2.58815 -0.91943,3.45019 0.51942,2.56166 1.25265,-0.77441 3.51403,2.02162 5.35527,6.62324 1.75285,4.38152 4.1427,8.55722 5.31077,9.27864 2.70569,1.67313 2.76367,5.14778 0.0858,5.14778 -1.12086,0 -2.03792,-0.97208 -2.03792,-2.15815 z m 116.89834,-0.89872 c 0.64517,-1.68129 0.30744,-3.05688 -0.75048,-3.05688 -1.1877,0 -1.21299,-1.86877 -0.0662,-4.88489 1.02154,-2.68802 1.43172,-5.31082 0.9115,-5.83049 -0.52024,-0.52171 -0.0259,-3.36664 1.09862,-6.32366 1.59212,-4.18792 1.42748,-5.37807 -0.74382,-5.37807 -1.53364,0 -3.31627,1.3756 -3.96145,3.05688 -1.34588,3.50726 -5.37678,4.15124 -5.37678,0.85796 0,-3.5256 17.46404,-19.99605 19.6275,-18.51041 3.59542,2.46792 2.63623,10.95789 -2.34938,20.79696 -4.71434,9.3031 -3.91504,11.44087 2.72717,7.29371 4.07616,-2.54536 5.38145,0.16303 2.80484,5.81622 -1.39147,3.05484 -3.44029,4.62811 -5.16286,3.96783 -1.57075,-0.60323 -3.40398,0.33218 -4.07386,2.07867 -0.66988,1.74446 -2.26195,3.17304 -3.53789,3.17304 -1.27596,0 -1.79206,-1.37559 -1.14688,-3.05687 z M 182.8611,58.920478 c 0,-1.029149 0.56563,-3.346262 1.25695,-5.147782 0.9785,-2.549437 1.88699,-2.751191 4.10096,-0.915026 2.15266,1.787255 2.28184,3.038537 0.53145,5.147783 -2.6421,3.183229 -5.88936,3.686595 -5.88936,0.915025 z"
     id="path15561"
     inkscape:connector-curvature="0" />
</svg>
