<?xml version="1.0" encoding="UTF-8" standalone="no"?>
<!-- Created with Inkscape (http://www.inkscape.org/) -->

<svg
   xmlns:dc="http://purl.org/dc/elements/1.1/"
   xmlns:cc="http://creativecommons.org/ns#"
   xmlns:rdf="http://www.w3.org/1999/02/22-rdf-syntax-ns#"
   xmlns:svg="http://www.w3.org/2000/svg"
   xmlns="http://www.w3.org/2000/svg"
   xmlns:sodipodi="http://sodipodi.sourceforge.net/DTD/sodipodi-0.dtd"
   xmlns:inkscape="http://www.inkscape.org/namespaces/inkscape"
   id="svg30788"
   version="1.1"
   inkscape:version="0.48.4 r9939"
   width="463.33316"
   height="492.56241"
   sodipodi:docname="Jewelry.svg">
  <metadata
     id="metadata30794">
    <rdf:RDF>
      <cc:Work
         rdf:about="">
        <dc:format>image/svg+xml</dc:format>
        <dc:type
           rdf:resource="http://purl.org/dc/dcmitype/StillImage" />
        <dc:title />
      </cc:Work>
    </rdf:RDF>
  </metadata>
  <defs
     id="defs30792" />
  <sodipodi:namedview
     pagecolor="#ffffff"
     bordercolor="#666666"
     borderopacity="1"
     objecttolerance="10"
     gridtolerance="10"
     guidetolerance="10"
     inkscape:pageopacity="0"
     inkscape:pageshadow="2"
     inkscape:window-width="660"
     inkscape:window-height="700"
     id="namedview30790"
     showgrid="false"
     inkscape:zoom="0.6273579"
     inkscape:cx="174.69303"
     inkscape:cy="236.22048"
     inkscape:window-x="3"
     inkscape:window-y="22"
     inkscape:window-maximized="0"
     inkscape:current-layer="svg30788"
     fit-margin-top="0"
     fit-margin-left="0"
     fit-margin-right="0"
     fit-margin-bottom="0" />
  <path
     style="fill:#f3f008;fill-opacity:1;stroke:none"
     d="m 334.04551,2.8059516 c -20.25697,1.1571634 -37.835,5.9537689 -58.09197,14.2832674 -4.89426,13.051346 -10.90704,25.895837 -12.89602,39.78974 L 218.66668,119.93339 C 156.336,129.26745 93.978531,137.5524 33.132431,161.73206 14.914625,182.38921 3.2535466,201.86631 2.7392896,223.36079 c 1.850099,10.71282 5.40998,21.43004 19.5708504,32.14286 28.164125,13.34592 57.665878,26.43009 105.30672,35.44786 47.9156,11.22862 94.89811,9.1744 144.83726,48.73271 14.02125,15.35346 28.67155,47.16035 -1.87932,56.3796 -32.42758,-12.58268 -55.96143,-45.48645 -79.96832,-46.39976 -15.86227,5.0214 -33.84213,7.906 -16.58985,44.97407 10.05824,15.85188 52.35183,21.77326 78.54262,32.66128 1.84545,6.3816 22.23593,16.10548 -3.49942,17.56193 -18.75893,-2.68559 -30.25514,-14.28045 -57.8053,-6.2212 -3.49339,9.86671 -17.2378,2.53742 -4.92512,39.07689 7.02832,6.12627 13.13161,13.02929 26.5049,13.86809 0.59637,-12.49959 -16.13764,-21.38622 -12.89602,-35.05904 l 52.62096,9.3966 c 23.91065,-5.00481 32.18437,-19.89593 17.56192,-49.12154 37.62642,-4.13861 28.81248,-17.52894 36.41993,-27.67136 3.8712,-18.85371 -5.06721,-38.91264 -11.92397,-58.77736 L 238.56155,298.79281 65.599304,257.83659 C 49.004055,245.35424 20.42042,249.09851 23.476614,209.94634 35.867839,184.3716 66.837001,176.30515 91.261742,162.05608 l 132.070838,-19.89487 18.7284,11.66474 c 5.84836,7.46347 46.23303,-4.07563 89.94814,-1.74971 34.06284,35.74735 5.96609,58.13585 -3.49942,58.45333 -24.65888,10.55729 -62.66233,-18.48863 -93.44757,-26.31048 -12.4122,1.32956 -23.99764,5.1811 -33.30933,15.81221 2.64627,17.27488 11.76076,23.71195 18.6636,33.89257 32.76688,25.8059 113.42111,38.97024 180.54432,27.47695 27.50367,-17.91074 72.5583,-22.96381 44.45564,-81.84762 C 425.40047,159.38107 396.07713,148.36256 365.90169,133.99589 331.71617,127.397 309.11557,115.10296 250.80954,117.0172 267.18,84.110985 274.85146,86.104547 281.78591,77.8755 c 14.27195,-6.870234 27.56248,-2.113051 43.22436,-25.662439 9.82788,-17.530172 9.58121,-33.44864 9.03524,-49.4071094 z m 30.6897,155.1674684 c 28.32936,11.7362 57.683,21.936 75.36721,49.63997 -3.59407,13.04821 -14.00717,23.49868 -29.16186,32.14285 -55.53233,15.79458 -88.42762,3.77793 -125.65522,-2.91619 -18.50222,-4.28609 -36.55511,-9.06644 -49.63997,-19.31163 -11.19098,-22.16799 31.83841,-4.05854 37.97522,-0.58324 20.82123,6.44054 38.93271,16.4941 64.2209,16.97869 8.97815,-5.63618 18.10908,-9.25575 26.31048,-25.14401 0.88385,-16.93549 6.09895,-33.87095 0.58324,-50.80644 z M 207.39076,371.89188 c 13.97395,7.00227 28.12896,13.71485 36.74395,29.29147 -16.65128,-4.42101 -34.51875,-3.67337 -49.18634,-16.52506 -3.74044,-9.71633 1.89147,-12.94411 12.44239,-12.76641 z"
     id="path30825"
     inkscape:connector-curvature="0"
     sodipodi:nodetypes="ccccccccccccccccccccccccccccccccccccccccccccccccccccc" />
  <path
     style="fill:#f31208;fill-opacity:1;stroke:none"
     d="m 323.8493,36.696317 c -4.52039,-7.799598 1.69745,-11.195521 8.18068,-13.439715 -1.70087,6.137336 -1.74763,14.946676 -8.18068,13.439715 z"
     id="path31353"
     inkscape:connector-curvature="0"
     sodipodi:nodetypes="ccc" />
  <path
     style="fill:#f31208;fill-opacity:1;stroke:none"
     d="m 293.31775,14.783726 c 4.13523,1.559156 8.33473,2.282764 12.85538,-1.168673 1.92652,-11.4913801 -10.11533,-3.8376275 -12.85538,1.168673 z"
     id="path31355"
     inkscape:connector-curvature="0"
     sodipodi:nodetypes="ccc" />
  <path
     style="fill:#000000"
     d="m 194.29572,487.01851 c -10.22286,-7.27368 -17.41058,-24.37888 -14.82976,-35.29165 4.11789,-17.41224 27.2852,-22.37455 56.31074,-12.06151 17.21517,6.11672 23.19816,5.82389 23.19816,-1.13541 0,-6.65405 -16.1112,-15.42919 -39.9359,-21.75157 -32.84291,-8.71554 -34.5869,-9.385 -42.46331,-16.30059 -16.64502,-14.61453 -17.24549,-36.37652 -1.34873,-48.8809 10.58487,-8.32608 31.52105,-3.29643 49.91763,11.99206 6.63086,5.51057 15.78884,12.51798 20.35105,15.57199 4.56221,3.05401 11.46577,7.85866 15.34122,10.67699 8.32394,6.05337 12.90728,6.44924 17.31098,1.4952 12.63784,-14.21718 5.6357,-40.47555 -14.68456,-55.06774 C 229.24801,311.69505 205.2069,304.46716 109.66612,290.02669 88.092888,286.76599 55.034245,275.58465 31.677958,263.64893 -1.3597451,246.76575 -7.9583637,224.96315 9.0956216,189.0343 18.857666,168.46791 32.598233,157.19591 56.785941,149.91185 120.23701,130.80369 217.50021,114.7003 217.50021,123.3032 c 0,1.14056 -0.23329,2.09068 -0.51843,2.11137 -0.28514,0.0207 -9.85023,0.53575 -21.25576,1.14454 -26.65083,1.42254 -55.58796,5.89906 -88.13364,13.63413 -66.786185,15.8729 -80.739657,23.23013 -93.616307,49.36097 -4.1560304,8.43391 -8.1340914,19.68911 -8.8401354,25.01153 -2.311268,17.42319 6.6671184,33.19347 24.3133374,42.7057 5.662923,3.0526 5.772549,3.01797 3.556069,-1.12357 -1.267498,-2.36833 -1.428938,-4.27326 -0.362154,-4.27326 1.881893,0 5.326707,6.02192 4.870971,8.515 -0.126373,0.69132 10.455404,5.60308 23.515062,10.91503 20.818,8.46763 29.688252,10.66435 71.962747,17.82165 73.4291,12.43192 86.98703,16.08827 113.41317,30.58552 18.62176,10.21583 26.34167,16.19442 33.28137,25.7744 4.86039,6.70958 6.11083,7.5015 7.03001,4.45222 0.61495,-2.03995 0.85191,-0.67616 0.52663,3.03064 -0.6267,7.14114 1.79382,9.2245 3.614,3.1106 0.59422,-1.99597 0.66583,0.57027 0.15905,5.70276 -0.66996,6.78608 -0.39726,8.20037 0.99962,5.18433 1.92092,-4.14746 1.92092,-4.14746 2.2903,0 1.78206,20.0093 1.21962,23.77348 -4.48549,30.01979 -5.98442,6.5521 -8.99021,7.68392 -11.14538,4.1968 -0.7049,-1.14056 -3.89855,-2.07374 -7.09699,-2.07374 -5.59311,0 -24.37405,-11.96809 -41.63572,-26.5322 -13.57193,-11.451 -23.00026,-16.76109 -34.21729,-19.27134 -9.71965,-2.17516 -11.88859,-2.05233 -16.44193,0.93113 -12.59402,8.25192 -14.38469,26.28176 -3.85324,38.79766 7.02037,8.34325 13.02047,11.17553 34.8592,16.45482 23.81224,5.75639 41.85056,13.14075 49.12542,20.1105 3.5162,3.36876 5.78129,4.43895 5.78129,2.7315 0,-4.90685 2.37225,-0.64781 3.05082,5.47731 0.7905,7.13563 -4.07752,17.2914 -8.2884,17.2914 -2.33061,0 -2.07147,-0.98587 1.09012,-4.14747 2.2811,-2.2811 4.14746,-5.54723 4.14746,-7.25806 0,-2.41936 -0.92165,-2.18895 -4.14746,1.03687 -5.42269,5.42268 -9.49765,5.23532 -26.39275,-1.21353 -11.39791,-4.35059 -16.48772,-5.1773 -27.00534,-4.3863 -15.51413,1.16675 -22.29852,5.10821 -24.0741,13.98608 -1.49263,7.46318 4.47004,23.19738 11.14896,29.41974 4.26139,3.97009 17.72176,7.69995 16.24641,4.50186 -4.42031,-9.58178 -7.05212,-13.35735 -9.95263,-14.27794 -4.35725,-1.38293 -5.43517,-14.10127 -1.47378,-17.38893 3.01618,-2.5032 26.9789,1.01402 39.3456,5.77512 26.82371,10.32694 44.64021,-12.25794 31.50539,-39.93747 -3.94096,-8.30497 -14.38998,-15.85572 -22.03492,-15.92306 -6.05395,-0.0533 -37.31574,-9.00499 -48.0141,-13.74861 -11.53676,-5.11536 -13.05413,-15.96125 -3.11049,-22.23352 5.3704,-3.38757 19.77191,2.67467 34.59842,14.56405 7.37027,5.9102 17.42798,12.75727 22.35046,15.21565 4.92248,2.45841 9.86798,6.18516 10.98999,8.28164 4.14946,7.75336 22.28203,7.26717 30.13154,-0.80792 12.62691,-12.98976 12.88692,-37.04076 0.70942,-65.62555 -3.53511,-8.29812 -6.21479,-10.7271 -22.0878,-20.02139 -24.10409,-14.1139 -32.182,-18.01604 -48.14775,-23.25842 -20.25889,-6.65203 -68.86084,-18.16469 -92.26708,-21.85589 -20.38353,-3.21454 -64.812302,-14.38155 -72.196782,-18.14641 -2.069988,-1.05536 -5.336116,-2.23731 -7.258064,-2.62657 -13.212375,-2.6759 -33.830082,-20.55168 -36.646412,-31.77283 -1.717635,-6.84361 -5.06448,-11.11384 -7.5207914,-9.59574 -1.011257,0.62502 -1.838702,-0.21859 -1.838702,-1.8747 0,-1.65612 1.370281,-3.53696 3.0450694,-4.17963 1.674788,-0.64267 4.345533,-4.24194 5.934989,-7.99836 1.589456,-3.75642 4.885073,-8.60755 7.323593,-10.7803 4.725319,-4.21028 5.650168,-3.23428 2.504636,2.6432 -1.060969,1.98245 -1.180454,4.81568 -0.265519,6.29608 1.288945,2.08555 2.306982,1.81433 4.521203,-1.20451 8.932957,-12.17905 43.058472,-31.77273 66.300381,-38.06736 19.185809,-5.19613 66.351179,-12.48884 95.614869,-14.78399 28.19502,-2.21134 30.33794,-2.668 28.51382,-6.07637 -2.89012,-5.40024 -2.40993,-16.45614 1.16915,-26.91806 2.06299,-6.03035 8.19595,-14.475794 17.86483,-24.600939 14.42306,-15.103657 22.54207,-28.937878 22.54207,-38.410086 0,-7.855734 6.03456,-22.478098 11.72988,-28.422743 2.94118,-3.069912 9.67048,-7.434641 14.95402,-9.6994055 11.34215,-4.8617412 38.90969,-10.8630813 42.88786,-9.33650323 4.99736,1.91766333 6.73863,11.42947973 3.92642,21.44819873 -1.44068,5.132488 -4.08011,14.529669 -5.86541,20.882631 -4.71096,16.763949 -16.0799,27.440622 -34.17774,32.096608 -10.97936,2.82461 -15.34259,5.215872 -21.62517,11.851567 -7.72942,8.16387 -20.12479,24.982032 -20.12479,27.305502 0,0.64991 6.29897,1.18875 13.9977,1.19739 35.54377,0.04 69.03503,7.03048 109.15524,22.7836 34.9613,13.72749 48.27485,20.73944 60.85737,32.05219 22.81074,20.50882 25.07932,52.54959 5.02921,71.03108 l -5.5142,5.0828 6.93124,-3.78916 c 7.42426,-4.05869 11.39825,-10.11115 13.7211,-20.89746 0.79827,-3.7068 2.2871,-6.73963 3.30852,-6.73963 1.0214,0 1.32733,3.03283 0.67985,6.73963 -3.54822,20.31279 -7.82583,24.37894 -35.00937,33.2788 -28.58599,9.35901 -43.31359,11.82888 -70.11714,11.75887 -45.77145,-0.11944 -96.54745,-7.81768 -119.15878,-18.06565 -10.74472,-4.86972 -28.94746,-20.40123 -32.9253,-28.09349 -6.77525,-13.10191 -7.07176,-17.59316 -1.5914,-24.10617 5.10827,-6.07083 20.28919,-12.61798 29.25744,-12.61798 8.61918,0 32.4148,7.56973 47.30018,15.04686 25.24765,12.68226 46.10782,15.00186 57.80664,6.42797 3.66302,-2.68457 5.95974,-7.18179 7.59587,-14.87343 2.17653,-10.23227 1.95333,-11.82633 -3.10288,-22.16086 -7.29174,-14.90381 -12.05453,-16.45988 -40.75285,-13.31454 -54.72086,5.99742 -60.74107,5.62927 -71.37961,-4.36515 -4.7994,-4.50879 -5.20216,-4.53374 -35.57527,-2.20379 -35.36134,2.7126 -84.64617,10.8441 -102.807435,16.96219 -28.415455,9.57248 -56.008705,28.1345 -63.491441,42.71078 -3.526077,6.86876 -2.775417,21.76826 1.34989,26.79333 4.298866,5.23647 20.594019,16.29537 26.393977,17.91259 2.281106,0.63603 12.199272,3.54567 22.040373,6.46586 20.595487,6.11135 38.229066,10.11164 66.093256,14.99368 34.63195,6.06783 87.32542,20.56104 102.96978,28.32159 23.25444,11.53561 44.33992,24.63038 47.55056,29.53042 1.61411,2.46347 5.26796,11.3389 8.11963,19.72321 6.1029,17.94322 6.88457,37.81889 1.89349,48.14554 -4.58366,9.48371 -16.53513,18.21552 -24.93209,18.21552 l -6.81833,0 3.0048,7.19145 c 5.82521,13.94173 1.773,31.54373 -9.18168,39.88333 -5.05618,3.84918 -22.45496,3.15817 -37.24944,-1.47942 -16.37396,-5.1327 -29.36594,-5.50464 -29.36594,-0.84069 0,1.80402 3.26613,7.26592 7.25806,12.13755 3.99194,4.87161 7.25807,10.86105 7.25807,13.30982 0,6.51268 -11.35539,5.99854 -21.13076,-0.95674 z m 40.38611,-94.64853 c -4.31612,-3.70679 -9.22811,-8.05307 -10.91555,-9.65838 -1.68743,-1.60534 -7.02022,-4.667 -11.85063,-6.80373 -7.33548,-3.24483 -9.47824,-3.45051 -13.00454,-1.24831 -8.83608,5.51823 -3.34695,12.27915 13.92457,17.15083 6.55743,1.8496 14.25554,4.17492 17.10692,5.16737 11.17462,3.88936 12.79674,2.31223 4.73923,-4.60778 z m 53.2431,3.72806 c 3.01212,-3.62939 4.38283,-13.57828 1.87076,-13.57828 -0.98372,0 -1.78858,0.86157 -1.78858,1.91461 0,1.05306 -2.4159,4.78578 -5.36866,8.29493 -4.96993,5.90643 -5.0658,6.38031 -1.2908,6.38031 2.24285,0 5.20262,-1.3552 6.57728,-3.01157 z m 5.0209,-20.94406 c 0.70816,-1.84545 0.36052,-2.67785 -0.815,-1.95134 -1.12749,0.69682 -2.04999,2.14507 -2.04999,3.21831 0,2.98292 1.48639,2.32561 2.86499,-1.26697 z M 398.94307,258.00222 c 20.81114,-5.24308 31.93529,-10.58644 39.61515,-19.02873 11.01017,-12.10326 13.24634,-16.75105 13.24851,-27.53666 0.004,-17.83462 -3.41435,-25.92622 -16.04164,-37.97636 -12.16939,-11.61317 -19.59261,-15.91739 -48.21882,-27.95875 -40.68132,-17.11223 -66.42387,-23.22163 -107.66813,-25.55253 -20.06384,-1.13392 -24.50339,-0.84108 -26.66085,1.75851 -6.15706,7.41881 11.84522,10.80451 30.59873,5.75473 5.73878,-1.54531 15.33209,-1.90336 26.78501,-0.99969 23.30377,1.83872 39.87439,8.88367 48.32064,20.54337 5.12506,7.07493 9.08846,9.53861 25.70142,15.97616 12.92116,5.00696 25.11894,11.70222 35.64891,19.56734 8.80383,6.57585 14.22411,9.9275 12.04503,7.44811 -4.88772,-5.56136 -3.40642,-7.36551 4.60315,-5.60632 5.10534,1.12133 6.32567,2.61782 7.34787,9.0107 2.85176,17.83518 -10.63893,38.89103 -30.80013,48.07192 -11.39223,5.18773 -49.72412,9.15693 -72.58063,7.51564 -17.90334,-1.28563 -23.74221,-2.33826 -63.24884,-11.40242 -20.8198,-4.77676 -40.19447,-13.25291 -44.56889,-19.49829 -3.91336,-5.58711 -3.90058,-6.6191 0.13169,-10.65146 6.27051,-6.27053 19.20699,-4.07401 40.38842,6.85759 14.93801,7.70943 24.328,10.99107 39.46664,13.79291 10.9257,2.02212 22.28524,3.06912 25.2434,2.32669 16.55041,-4.1539 28.22855,-28.8404 25.63203,-54.18379 -2.92676,-28.56689 -16.16538,-40.13703 -50.9099,-44.49363 -12.95295,-1.62415 -19.59273,-1.39073 -31.58894,1.11055 -15.0712,3.14245 -27.23086,2.5067 -32.30835,-1.68916 -5.13353,-4.2422 -2.66678,-13.61797 7.61337,-28.93747 14.77458,-22.017065 21.89739,-28.197431 35.46218,-30.769937 11.65611,-2.210537 22.03651,-8.92746 29.73806,-19.242868 3.87637,-5.191984 3.9165,-5.768481 0.65261,-9.375034 -6.98597,-7.71951 -2.17174,-23.216761 7.2124,-23.216761 2.99015,0 3.82605,-1.585721 3.82605,-7.258063 0,-6.2575705 -0.67889,-7.2580635 -4.92511,-7.2580635 -8.96647,0 -17.88594,2.554341 -17.88594,5.1221395 0,1.391495 -1.90746,4.256211 -4.23877,6.366027 -3.64969,3.302916 -5.40295,3.525303 -12.61524,1.600237 -8.01369,-2.138972 -8.67488,-1.937385 -15.26688,4.654616 -5.25602,5.25602 -7.65738,10.262487 -10.12386,21.106718 -4.93629,21.703207 -8.33943,28.03481 -23.32176,43.390446 -20.63774,21.152013 -26.09437,37.419923 -17.31583,51.623893 9.42918,15.25674 25.63156,18.66119 58.69841,12.33371 8.93961,-1.71064 23.09899,-3.11025 31.4653,-3.11025 13.19404,0 16.0274,0.68655 21.36351,5.17662 9.2717,7.80161 13.4315,20.10591 11.73606,34.71407 -0.77101,6.643 -2.7067,13.38304 -4.30152,14.97787 -3.44615,3.44615 -3.70255,5.26968 -0.74093,5.26968 1.18732,0 4.00278,-3.96601 6.2566,-8.81336 3.34943,-7.20371 3.87249,-7.67712 2.86401,-2.59217 -1.37294,6.92241 -6.58958,13.72129 -10.05831,13.10902 -1.24185,-0.21919 -7.57559,0.84534 -14.07496,2.36563 -15.15444,3.54488 -32.18715,0.28964 -51.43182,-9.82949 -14.44943,-7.59772 -37.73591,-14.97695 -47.26243,-14.97695 -3.21215,0 -10.68941,2.41642 -16.61612,5.36983 -9.67522,4.82136 -10.7586,6.03922 -10.60739,11.92396 l 0.16839,6.55413 2.60403,-5.88983 c 2.59843,-5.87715 6.63231,-9.5713 10.51718,-9.63141 1.1289,-0.0166 -0.5671,2.39734 -3.76892,5.36622 -3.20181,2.96888 -5.3212,6.70159 -4.70978,8.29493 0.61142,1.59333 0.16133,2.89696 -1.00002,2.89696 -6.49449,0 16.5168,23.64187 29.33205,30.13585 32.0491,16.2405 122.71179,24.93147 160.57385,15.39267 z M 239.2744,237.35849 c -0.7049,-1.14056 -0.34845,-2.07374 0.7921,-2.07374 1.14056,0 2.65046,0.93318 3.35537,2.07374 0.7049,1.14055 0.34844,2.07373 -0.79211,2.07373 -1.14055,0 -2.65046,-0.93318 -3.35536,-2.07373 z m -13.5439,-5.85653 c -2.62619,-2.12658 -4.14981,-5.07741 -3.47989,-6.73963 0.88408,-2.1936 1.53434,-1.84206 2.51917,1.36188 0.73012,2.37529 3.82577,5.30884 6.8792,6.51902 3.36964,1.33549 4.21562,2.28702 2.15238,2.42092 -1.86959,0.12131 -5.50148,-1.48166 -8.07086,-3.56219 z m -4.08283,-35.49573 c 0,-1.07324 0.93318,-2.52809 2.07374,-3.23299 1.14055,-0.7049 2.07373,0.17316 2.07373,1.95134 0,1.77814 -0.93318,3.23299 -2.07373,3.23299 -1.14056,0 -2.07374,-0.8781 -2.07374,-1.95134 z m 132.71888,-10.36866 c 0,-1.07324 0.9225,-2.52149 2.04999,-3.21831 1.17551,-0.72651 1.52315,0.10597 0.81499,1.95134 -1.37859,3.59258 -2.86498,4.24989 -2.86498,1.26697 z m 0,-8.17256 c 0,-1.14055 0.93318,-2.65046 2.07373,-3.35536 1.14055,-0.7049 2.07373,-0.34845 2.07373,0.7921 0,1.14055 -0.93318,2.65046 -2.07373,3.35536 -1.14055,0.70491 -2.07373,0.34845 -2.07373,-0.7921 z m -2.07373,-8.53969 c 0,-3.87098 0.553,-4.42396 2.48848,-2.48848 1.93547,1.93548 1.93547,3.04148 0,4.97696 -1.93548,1.93547 -2.48848,1.38249 -2.48848,-2.48848 z m -94.4401,-18.80156 c -2.2319,-3.61128 0.31006,-4.37607 3.15427,-0.94902 1.63566,1.97085 1.79299,3.16072 0.4179,3.16072 -1.21288,0 -2.82036,-0.99527 -3.57217,-2.2117 z m -8.29493,-2.07373 c -0.75179,-1.21643 -0.92215,-2.65645 -0.37856,-3.20004 0.54357,-0.54359 1.54091,0.45168 2.2163,2.2117 1.40222,3.65414 0.20717,4.29689 -1.83774,0.98834 z m 15.63827,0.38063 c 0,-2.16294 11.46962,-1.90667 13.68198,0.30569 0.83897,0.83895 -1.89628,1.52538 -6.07829,1.52538 -4.18204,0 -7.60369,-0.82398 -7.60369,-1.83107 z m 20.73732,-2.3164 c 1.71083,-1.10563 4.97696,-2.01021 7.25806,-2.01021 3.43439,0 3.61265,0.34561 1.03687,2.01021 -1.71083,1.10563 -4.97696,2.01021 -7.25806,2.01021 -3.4344,0 -3.61265,-0.3456 -1.03687,-2.01021 z M 242.385,144.04053 c 0,-1.14055 0.93318,-2.07373 2.07373,-2.07373 1.14055,0 2.07373,0.93318 2.07373,2.07373 0,1.14055 -0.93318,2.07373 -2.07373,2.07373 -1.14055,0 -2.07373,-0.93318 -2.07373,-2.07373 z m -7.1695,-4.00417 c -0.65621,-1.06175 -0.24468,-2.5166 0.91448,-3.23299 1.15915,-0.71639 2.10755,0.15221 2.10755,1.93044 0,3.64257 -1.24436,4.1789 -3.02203,1.30255 z m -1.12543,-10.2672 c 0,-1.14055 0.93318,-2.65045 2.07373,-3.35536 1.14055,-0.7049 2.07373,-0.34845 2.07373,0.79211 0,1.14055 -0.93318,2.65045 -2.07373,3.35536 -1.14055,0.7049 -2.07373,0.34845 -2.07373,-0.79211 z m -2.07373,-8.53969 c 0,-3.87097 0.553,-4.42395 2.48848,-2.48848 1.93547,1.93548 1.93547,3.04148 0,4.97696 -1.93548,1.93548 -2.48848,1.3825 -2.48848,-2.48848 z m 4.14746,-12.44239 c 1.71083,-1.10563 4.04378,-2.01022 5.18433,-2.01022 1.14056,0 0.67397,0.90459 -1.03686,2.01022 -1.71083,1.10563 -4.04378,2.01021 -5.18433,2.01021 -1.14056,0 -0.67397,-0.90458 1.03686,-2.01021 z m 9.3318,-14.516133 c 0.7049,-1.140553 2.85963,-2.059445 4.78829,-2.041984 3.02199,0.02737 3.07673,0.309588 0.39604,2.041984 -4.06114,2.624519 -6.80636,2.624519 -5.18433,0 z m 17.62672,-21.552322 c 0,-0.448258 1.39977,-1.352136 3.1106,-2.008659 1.71083,-0.656502 3.1106,-0.289742 3.1106,0.814998 0,1.10476 -1.39977,2.008659 -3.1106,2.008659 -1.71083,0 -3.1106,-0.366761 -3.1106,-0.814998 z m 10.36866,-15.839956 c 0,-2.246288 1.39903,-4.082371 3.1106,-4.082371 1.71083,0 3.1106,1.29992 3.1106,2.88873 0,1.588811 -1.39977,3.425869 -3.1106,4.082392 -2.1158,0.811907 -3.1106,-0.111982 -3.1106,-2.888751 z m 3.75864,-7.57269 c 1.49697,-0.59906 3.28556,-0.52538 3.97467,0.163825 0.68908,0.68908 -0.53573,1.179207 -2.72178,1.089165 -2.41579,-0.09954 -2.90716,-0.590889 -1.25289,-1.252887 z m 4.14747,-6.221198 c 1.49696,-0.599059 3.28556,-0.52538 3.97466,0.163825 0.68908,0.689081 -0.53573,1.179208 -2.72177,1.089166 -2.4158,-0.09954 -2.90717,-0.590889 -1.25289,-1.252887 z m 2.07373,-4.147464 c 1.49697,-0.59906 3.28556,-0.52538 3.97466,0.163825 0.68908,0.68908 -0.53573,1.179207 -2.72177,1.089165 -2.4158,-0.09954 -2.90717,-0.590889 -1.25289,-1.252887 z m 0.38883,-9.988941 c 0,-1.914594 1.794,-3.01811 4.66589,-2.870046 3.55073,0.183111 3.79247,0.468394 1.01149,1.193806 -2.00995,0.524302 -3.12134,1.815823 -2.4698,2.870046 0.65157,1.054244 0.19639,1.916792 -1.01146,1.916792 -1.20787,0 -2.19612,-1.399769 -2.19612,-3.110598 z m 110.9974,212.488744 c 13.69915,-2.14907 18.08893,-3.84532 25.57957,-9.88417 8.97258,-7.23364 16.85658,-17.8066 16.87147,-22.62577 0.0124,-3.95593 -19.32094,-22.5666 -31.46584,-30.28993 -8.91514,-5.66944 -32.0563,-15.93313 -35.92385,-15.93313 -0.48531,0 -0.74837,7.23214 -0.58454,16.07143 0.16693,9.00713 -0.77829,18.06241 -2.1504,20.60099 -1.34654,2.49126 -2.44825,6.31726 -2.44825,8.50222 0,6.68709 -11.56552,20.39172 -21.06941,24.96635 l -8.99971,4.33195 -22.81106,-4.96838 c -16.78147,-3.6551 -27.47027,-7.45214 -40.43778,-14.36487 -12.93366,-6.8947 -20.01166,-9.4126 -26.58431,-9.45702 -8.0983,-0.0547 -8.89403,0.38355 -8.29493,4.56903 0.86846,6.06735 18.21473,14.63649 39.02671,19.27934 8.55414,1.90832 20.39887,4.82564 26.32159,6.48293 24.11907,6.74898 60.49942,7.81297 92.97074,2.71903 z M 329.16249,29.922035 c 0.62651,-4.297873 0.29752,-4.574032 -2.59217,-2.175823 -3.91319,3.247673 -4.44861,9.180911 -0.71759,7.952163 1.42569,-0.469514 2.91509,-3.068875 3.30976,-5.77634 z M 304.59697,11.515793 c 0,-1.033776 -1.86636,-1.391537 -4.14746,-0.795007 -2.28111,0.59653 -4.14747,1.442343 -4.14747,1.87959 0,0.437246 1.86636,0.795007 4.14747,0.795007 2.2811,0 4.14746,-0.845814 4.14746,-1.87959 z M 192.75662,473.96229 c -4.7401,-6.65687 -5.32448,-9.68205 -2.23868,-11.58915 1.14816,-0.70962 1.53842,0.0662 0.88712,1.76335 -1.31823,3.43524 7.11726,14.21397 9.81776,12.54498 0.9687,-0.59868 1.76126,-0.10036 1.76126,1.10758 0,4.33357 -6.02095,2.0807 -10.22746,-3.82676 z m -4.83189,-19.38033 c 1.88725,-7.7091 8.83816,-13.82506 8.83816,-7.7765 0,1.14055 -1.39977,2.07373 -3.1106,2.07373 -1.93549,0 -3.11061,1.95852 -3.11061,5.18433 0,2.85139 -0.84581,5.18433 -1.87959,5.18433 -1.03378,0 -1.36559,-2.09965 -0.73736,-4.66589 z m 75.71603,-27.93368 c -1.4257,-0.50916 -2.59217,-2.44775 -2.59217,-4.30793 0,-3.07837 0.31488,-3.0673 3.5056,0.12339 3.749,3.74902 3.32362,5.69775 -0.91343,4.1845 z M 186.91265,399.045 c -2.56625,-1.03152 -4.63753,-3.5386 -4.60284,-5.57133 0.0597,-3.50212 0.17378,-3.50563 2.17678,-0.0668 1.16253,1.99597 3.46711,3.62903 5.12127,3.62903 1.65415,0 3.00756,0.93318 3.00756,2.07374 0,1.14055 -0.23329,2.01459 -0.51843,1.94227 -0.28515,-0.0724 -2.6181,-0.9754 -5.18434,-2.00689 z m -9.67004,-12.37778 c -3.39839,-10.20871 -3.27942,-16.09697 0.38113,-18.86369 3.04496,-2.30144 3.19498,-2.27181 0.99398,0.19639 -1.42569,1.59878 -2.59217,4.1751 -2.59217,5.72514 0,1.70265 1.02609,2.20178 2.59217,1.26091 1.61996,-0.97325 1.47552,-0.18208 -0.38509,2.1094 -2.39025,2.94377 -2.45223,3.99119 -0.31438,5.31245 1.46457,0.90516 2.3,3.40027 1.85651,5.54472 -0.68502,3.31239 -1.06598,3.119 -2.53215,-1.28536 z m -3.29079,-24.94016 c 0,-1.80278 8.04994,-5.02832 9.337,-3.74126 0.40123,0.40123 -1.53545,1.7984 -4.30374,3.10483 -2.76829,1.30643 -5.03326,1.59282 -5.03326,0.63643 z M 57.822807,266.6783 c 0,-0.98238 2.332949,-1.34019 5.184331,-0.79511 2.851382,0.54509 5.184331,1.34884 5.184331,1.78617 0,0.43731 -2.332949,0.79511 -5.184331,0.79511 -2.851382,0 -5.184331,-0.80378 -5.184331,-1.78617 z m -7.135983,-5.53784 c -2.21396,-1.67455 -3.028107,-3.04465 -1.809215,-3.04465 1.21889,0 3.377872,1.39977 4.797733,3.1106 3.229225,3.89099 2.213372,3.86857 -2.988518,-0.0659 z m -26.30825,-12.89488 c -2.579456,-3.28906 -2.506108,-3.36241 0.782948,-0.78296 1.995967,1.56536 3.629032,3.19842 3.629032,3.62904 0,1.70676 -1.702921,0.60824 -4.41198,-2.84608 z m -8.811094,-5.78293 c -0.711181,-1.8533 -1.233902,-4.45979 -1.161608,-5.79221 0.07229,-1.33239 1.025523,-0.18746 2.118283,2.54441 1.092759,2.73183 1.615483,5.33833 1.161605,5.7922 -0.453876,0.45388 -1.407102,-0.69111 -2.11828,-2.5444 z"
     id="path30798"
     inkscape:connector-curvature="0" />
</svg>
