<?xml version="1.0" encoding="UTF-8" standalone="no"?>
<!-- Created with Inkscape (http://www.inkscape.org/) -->

<svg
   xmlns:dc="http://purl.org/dc/elements/1.1/"
   xmlns:cc="http://creativecommons.org/ns#"
   xmlns:rdf="http://www.w3.org/1999/02/22-rdf-syntax-ns#"
   xmlns:svg="http://www.w3.org/2000/svg"
   xmlns="http://www.w3.org/2000/svg"
   xmlns:sodipodi="http://sodipodi.sourceforge.net/DTD/sodipodi-0.dtd"
   xmlns:inkscape="http://www.inkscape.org/namespaces/inkscape"
   id="svg3039"
   version="1.1"
   inkscape:version="0.48.4 r9939"
   width="116.8153"
   height="494.04251"
   sodipodi:docname="Knife.svg">
  <metadata
     id="metadata3045">
    <rdf:RDF>
      <cc:Work
         rdf:about="">
        <dc:format>image/svg+xml</dc:format>
        <dc:type
           rdf:resource="http://purl.org/dc/dcmitype/StillImage" />
        <dc:title />
      </cc:Work>
    </rdf:RDF>
  </metadata>
  <defs
     id="defs3043">
    <inkscape:perspective
       sodipodi:type="inkscape:persp3d"
       inkscape:vp_x="0 : 183.5 : 1"
       inkscape:vp_y="0 : 1000 : 0"
       inkscape:vp_z="394 : 183.5 : 1"
       inkscape:persp3d-origin="197 : 122.33333 : 1"
       id="perspective3051" />
  </defs>
  <sodipodi:namedview
     pagecolor="#ffffff"
     bordercolor="#666666"
     borderopacity="1"
     objecttolerance="10"
     gridtolerance="10"
     guidetolerance="10"
     inkscape:pageopacity="0"
     inkscape:pageshadow="2"
     inkscape:window-width="1213"
     inkscape:window-height="737"
     id="namedview3041"
     showgrid="false"
     inkscape:zoom="0.45470625"
     inkscape:cx="502.81724"
     inkscape:cy="323.70805"
     inkscape:window-x="22"
     inkscape:window-y="22"
     inkscape:window-maximized="0"
     inkscape:current-layer="layer1"
     fit-margin-top="0"
     fit-margin-left="0"
     fit-margin-right="0"
     fit-margin-bottom="0" />
  <path
     style="fill:#000000"
     d="m 109.05726,489.52725 c -8.51466,5.15048 -19.033916,5.82042 -37.515776,2.38934 -27.950946,-5.18906 -27.652725,-4.54088 -36.619741,-79.59106 -6.028278,-50.45444 -6.690945,-59.86043 -6.1616,-87.4618 0.426125,-22.22498 0.659486,-21.84723 -15.407708,-24.94979 -10.1082542,-1.95195 -13.55466096,-4.03992 -13.3433504,-8.08403 0.27422391,-5.24561 5.8333993,-7.1659 18.3062904,-6.32343 3.053876,0.20656 6.855437,0.3888 8.447861,0.40551 l 1.249072,-1.38073 0.128165,-9.38615 c 0.105143,-7.70151 0.858475,-13.60254 0.681085,-16.99568 -0.308399,-5.89942 -0.422596,-21.15684 -0.325863,-43.55273 0.03981,-9.23485 0.235423,-21.87386 0.723493,-46.74848 0.08316,-4.24045 0.471975,-12.08759 0.863968,-17.43806 0.391921,-5.35046 0.840401,-15.31533 0.996325,-22.14414 0.196479,-8.60347 0.827962,-13.11269 2.056224,-14.68484 5.471151,-7.00273 20.414493,-65.471631 19.719297,-77.155786 -0.154486,-2.595463 -0.180162,-9.037591 -0.05705,-14.315835 0.123144,-5.27821 -0.230009,-12.3582211 -0.784581,-15.7333235 -1.549833,-9.4322338 -1.326094,-9.3223219 13.440597,6.6007385 10.958879,11.817052 13.069019,16.071521 13.424854,27.067408 0.152622,4.71531 0.683942,13.991946 1.180737,20.614774 0.83703,11.157869 0.77586,34.688912 -0.133795,51.449384 -0.210966,3.89041 -0.379621,10.06979 -0.374374,13.73199 0.0104,7.3504 -1.083786,33.01546 -1.812851,42.5178 -0.456861,5.95392 -0.931791,19.31268 -1.715117,48.23504 -0.216847,8.00546 -0.510798,16.926 -0.653228,19.82345 -0.142796,2.8974 -0.232052,5.97397 -0.198881,6.83677 0.03335,0.86272 -0.19569,2.91551 -0.50723,4.56175 -0.311985,1.64621 -0.49951,5.58858 -0.41664,8.7609 0.08287,3.17227 -0.09492,8.18702 -0.395224,11.14381 -0.419627,4.13383 0.185326,6.89145 2.617786,11.93428 l 3.163451,6.55824 10.375751,-0.24851 c 7.894159,1.01252 10.368676,-0.0251 15.910926,4.70695 2.65374,8.2638 0.62669,9.94561 -13.581991,11.26882 -14.012333,1.30493 -15.219592,2.24196 -12.948443,10.05015 0.87341,3.00283 2.242378,7.72987 3.042135,10.50449 1.586203,5.50313 1.277406,16.05352 -0.97341,33.25659 -1.794939,13.71866 -1.57746,16.82803 1.701016,24.3208 5.677246,12.97491 7.143216,26.7626 4.787759,45.02977 -1.630053,12.64131 -1.175157,14.50253 4.672833,19.11901 24.847001,19.6147 30.977171,36.51147 16.437291,45.30651 z m 5.58528,-13.75932 c -0.47814,-13.17354 -17.845421,-27.24954 -23.999444,-19.45139 -1.58683,2.01072 -2.447514,2.28749 -4.409238,1.41774 -1.373842,-0.60913 -4.094181,-0.42957 -6.233773,0.41153 -2.08791,0.82074 -4.399298,1.02105 -5.136389,0.44521 -2.219277,-1.73392 -6.48927,-1.44435 -8.969323,0.6083 -1.971289,1.6315 -2.894675,1.62892 -5.936677,-0.0179 -3.25851,-1.76261 -9.967657,-1.86879 -11.288149,-0.17859 -0.260848,0.33386 -1.351088,-0.0778 -2.422871,-0.91558 -2.528167,-1.97526 -3.903274,-1.41218 -3.322839,1.36057 4.814941,23.0016 7.534853,26.07254 26.456134,29.87058 27.043451,5.42835 45.748219,-0.17177 45.262569,-13.55169 z M 82.123264,488.6523 c -0.913112,0.32669 -1.697337,0.29154 -1.742733,-0.0778 -0.0454,-0.36965 0.971352,-0.97077 2.259405,-1.33587 2.576066,-0.73019 2.139947,0.46314 -0.516672,1.41387 z m -6.661077,-1.34735 c -0.913122,0.32669 -1.697341,0.29155 -1.742715,-0.0778 -0.0454,-0.36962 0.971352,-0.97078 2.259387,-1.33587 2.576077,-0.73015 2.139965,0.46317 -0.516672,1.41386 z m -4.456065,-1.70849 c -1.250112,0.33171 -2.47107,0.0667 -2.71325,-0.58865 -0.242164,-0.65527 -0.707513,-0.84942 -1.034093,-0.43147 -0.32658,0.41806 -1.399958,0.51349 -2.385271,0.21194 -1.314302,-0.40196 -0.867626,-0.69078 1.676682,-1.08413 1.907493,-0.29478 3.615538,-0.13735 3.795647,0.34999 0.18009,0.48731 1.194941,0.5392 2.25518,0.11512 1.060264,-0.42395 1.646584,-0.41193 1.302906,0.0287 -0.343685,0.43858 -1.647656,1.06868 -2.897762,1.40021 z m -8.072496,-2.89543 c -1.90039,0.1732 -3.188008,-0.0251 -2.861389,-0.44489 0.696928,-0.89199 6.144,-1.27616 6.246553,-0.44086 0.03841,0.31377 -1.484814,0.71204 -3.385193,0.88539 z m -1.610222,-2.88421 c -2.592906,0.15957 -4.520173,0.0412 -4.282799,-0.2625 0.552751,-0.70745 8.853169,-1.20061 8.9354,-0.53091 0.03407,0.27684 -2.059667,0.63386 -4.652623,0.79333 z m -5.196143,-2.79585 c -2.482568,-0.0108 -4.51696,-0.38905 -4.211311,-0.78047 0.151976,-0.19544 1.634811,-0.24134 3.294423,-0.10292 3.105494,0.25891 3.768171,0.89737 0.916888,0.88339 z m -0.716784,-2.77843 c -1.900393,0.17321 -3.493889,4.7e-4 -3.541121,-0.38395 -0.04719,-0.38453 1.607468,-0.6541 3.677025,-0.59905 4.584129,0.12193 4.523819,0.55799 -0.135911,0.98304 z m -2.004495,-2.95109 c -3.455505,-0.59969 -3.923145,-1.39991 -0.720233,-1.23252 1.553774,0.0814 2.866,0.48103 2.916036,0.88848 0.04995,0.40748 -0.938074,0.56229 -2.195803,0.3439 z m -2.142195,-4.32443 c -1.34052,-0.14129 -2.475672,-0.56928 -2.522566,-0.95112 -0.04691,-0.38188 1.020932,-0.50237 2.372913,-0.26788 3.196905,0.55476 3.319648,1.55243 0.149609,1.21886 z m -0.01219,-3.04006 c -1.499048,0.10866 -2.46889,-0.13161 -2.155198,-0.53249 0.31367,-0.40156 1.63939,-0.61737 2.946011,-0.4797 1.306614,0.1377 2.276457,0.37729 2.155213,0.53249 -0.121136,0.15527 -1.446975,0.37108 -2.946026,0.4797 z m 38.365065,-11.66952 c -0.261207,0.1083 -4.335133,0.75364 -9.053129,1.43452 -6.233263,0.89959 -7.997315,1.4887 -6.453327,2.15513 1.168691,0.50438 3.485125,0.29262 5.147656,-0.47045 1.662578,-0.76314 4.217239,-1.10066 5.677009,-0.75012 1.533362,0.36828 3.1826,-0.0391 3.905487,-0.96411 0.688245,-0.88084 1.037586,-1.51309 0.776304,-1.40501 z m 0.772557,-5.92535 c -1.367924,-1.03995 -3.445779,-0.71014 -8.438706,1.33932 -7.771771,3.19006 -22.694153,4.24546 -32.350825,2.28803 -3.495805,-0.70857 -6.586578,-1.31418 -6.868336,-1.34573 -0.281683,-0.0323 -0.421757,0.67937 -0.311232,1.57982 0.519896,4.23414 45.791434,2.62824 49.208615,-1.74557 0.316359,-0.40501 -0.241484,-1.3571 -1.239516,-2.11587 z m -3.948086,-4.40845 c -0.439059,-0.34318 -1.01924,-0.34103 -1.289279,0.004 -0.270064,0.34569 -1.259992,0.11583 -2.199887,-0.51091 -1.042747,-0.69526 -1.232538,-1.31535 -0.486786,-1.59097 0.705297,-0.26071 0.678743,-0.51148 -0.06251,-0.59313 -1.730823,-0.19078 -1.367246,-2.70854 0.422829,-2.92836 1.675377,-0.20584 3.211655,-11.32161 3.420075,-24.74646 0.252779,-16.28159 -0.907854,-21.5102 -5.919148,-26.66423 -1.855216,-1.90809 -2.808416,-3.40709 -2.118245,-3.33106 0.690193,0.076 0.298179,-2.3154 -0.871291,-5.31425 -1.169409,-2.99879 -1.782477,-5.90702 -1.362413,-6.46264 0.420126,-0.55566 0.336944,-1.38948 -0.184824,-1.85294 -0.6824,-0.60618 -0.602478,-0.74475 0.284767,-0.49376 2.447973,0.69239 6.330276,-36.81132 4.494877,-43.42121 -1.624247,-5.84946 -4.727815,-11.36148 -5.000852,-8.88152 -0.07649,0.69508 -0.51825,0.52227 -1.08802,-0.42577 -0.702299,-1.16851 -1.005412,-1.17608 -1.131806,-0.0287 -0.115721,1.05099 -0.331959,1.1367 -0.65596,0.25999 -0.265869,-0.71936 0.113641,-1.52493 0.842592,-1.79019 2.11955,-0.77103 3.216779,-2.14193 2.742131,-3.4262 -0.260346,-0.70447 -0.501628,-0.62906 -0.591236,0.18504 -0.0847,0.76899 -0.863692,1.15718 -1.767677,0.88069 -0.888949,-0.27182 -1.674667,0.0359 -1.745986,0.6835 -0.07204,0.65535 -0.566668,0.18934 -1.114757,-1.05088 -1.169341,-2.64553 -0.839469,-3.57804 0.485724,-1.37313 0.59857,0.99595 0.981322,1.08309 1.073665,0.24456 0.07893,-0.7167 0.693553,-1.24259 1.365866,-1.16858 0.672324,0.0739 1.283373,-0.41906 1.357866,-1.09571 0.07893,-0.71677 -1.379253,-0.87983 -3.493391,-0.39066 l -3.628832,0.83967 0.669373,2.74428 c 0.657624,2.69613 0.631514,2.69286 -1.488989,-0.18683 -1.889936,-2.56663 -2.748927,-2.95446 -6.908409,-3.11917 -6.281915,-0.24851 -27.496735,-2.15664 -28.99555,-2.60765 -0.692968,-0.20871 -0.869121,0.75719 -0.42743,2.34361 0.413176,1.48412 0.575849,10.49374 0.36144,20.0215 -0.615782,27.37213 0.123288,38.59272 5.219451,79.23699 3.2105,25.6056 5.330587,38.55512 6.456099,39.43446 3.464753,2.70691 14.109658,3.71437 25.77263,2.43918 l 11.930547,-1.30449 -0.835237,-4.59848 c -0.600464,-3.30578 -0.553304,-3.62494 0.167754,-1.13523 1.209641,4.17662 2.595216,5.53429 2.539507,2.48846 -0.02725,-1.49947 0.129491,-1.76469 0.489195,-0.82755 0.5902,1.53733 2.580535,2.04497 3.484003,0.88862 0.322707,-0.41319 0.227606,-1.03188 -0.211396,-1.37492 z m -8.310741,2.50628 c -0.289178,-0.22592 -0.64649,-1.22822 -0.793944,-2.22725 -0.218605,-1.48125 -0.424023,-1.41448 -1.113094,0.36172 -0.937091,2.4153 -6.525944,5.48696 -6.303255,3.46422 0.196909,-1.7876 3.001498,-3.24203 3.52427,-1.82744 0.290253,0.7853 0.633924,0.50434 1.010042,-0.82529 0.31367,-1.10834 0.941437,-2.59299 1.394984,-3.2993 0.45358,-0.70623 0.689505,-1.75669 0.5243,-2.33436 -0.165244,-0.57757 0.10629,-1.29553 0.603626,-1.59536 0.497232,-0.29979 1.078417,1.53361 1.291488,4.07438 0.21301,2.54074 0.150757,4.43467 -0.138815,4.20864 z m -31.75699,-0.58747 c -1.097652,-0.85763 -1.405183,-1.38962 -0.683304,-1.18227 0.721854,0.20727 1.619972,0.90902 1.995835,1.55924 0.375813,0.65029 -0.215162,0.48049 -1.312488,-0.37704 z m -0.899839,-4.60751 c -1.304538,-1.04544 -1.606962,-1.56986 -0.672098,-1.16539 0.934861,0.40451 2.002204,1.25978 2.371877,1.90071 0.369634,0.64096 -0.395252,0.31019 -1.699769,-0.73539 z m -0.436374,-3.96676 c -2.256905,-1.80833 -2.226879,-4.25157 0.03084,-2.50779 1.212409,0.93704 1.924229,2.06226 1.581189,2.5013 -0.343075,0.43911 -1.068476,0.44201 -1.612079,0.007 z m -0.8604,-5.79507 c -1.071822,-0.8373 -1.900666,-1.95879 -1.841919,-2.49207 0.05856,-0.53328 1.044073,0.0143 2.18975,1.21394 2.525929,2.64786 2.329422,3.36987 -0.347738,1.27817 z m 33.062972,-43.6499 c -0.783924,-0.58051 -1.645824,-0.77308 -1.915325,-0.42817 -0.503956,0.64502 -1.661079,0.0394 -7.072226,-3.70072 -3.101535,-2.14376 -3.115857,-2.14068 -1.546896,0.33458 1.49539,2.35907 1.409945,4.43743 -0.132827,3.23209 -0.940032,-0.73445 -2.234435,-6.79029 -1.308611,-6.12215 0.394395,0.28474 0.691035,-0.37068 0.65898,-1.45635 -0.03192,-1.08564 0.259485,-1.73457 0.647827,-1.44198 0.388031,0.29297 0.466281,-0.27183 0.173242,-1.25433 -0.407958,-1.36746 -0.09292,-1.25568 1.342069,0.47702 1.219599,1.47214 1.922353,1.83282 2.010512,1.03195 0.19881,-1.806 0.755893,-1.06541 2.460334,3.27064 0.837959,2.13168 2.060721,4.06671 2.717209,4.30005 0.656516,0.23345 0.03263,-2.10228 -1.387286,-5.19028 -1.419563,-3.08797 -2.654722,-6.2606 -2.744846,-7.05029 -0.09015,-0.79176 0.304562,-0.42254 0.879812,0.82264 1.636353,3.54085 2.440923,3.55017 1.676309,0.0179 -0.512864,-2.3685 -0.09492,-1.81453 1.578847,2.09306 2.781894,6.49431 2.93803,7.30357 0.89118,4.6186 -0.875487,-1.14843 -0.671503,0.0663 0.454891,2.70885 1.143852,2.68346 1.415239,4.32665 0.616938,3.7355 z m -6.833181,-7.80626 c -0.343004,-0.29297 -0.688622,0.0574 -0.768028,0.77771 -0.09776,0.88765 -0.626702,0.66664 -1.638996,-0.68468 -1.42704,-1.90498 -1.443027,-1.86851 -0.353009,0.80546 0.633957,1.55519 2.117878,3.22208 3.336721,3.74815 l 2.195042,0.94732 -1.073966,-2.53059 c -0.590688,-1.39177 -1.354685,-2.77035 -1.697753,-3.06344 z m -27.231123,43.72672 c -1.280486,-1.14839 -0.577631,-3.78914 0.735151,-2.76329 0.501568,0.39189 0.447329,0.88421 -0.120598,1.09407 -0.567906,0.20978 -0.697326,0.88761 -0.288102,1.50577 0.492033,0.74296 0.381224,0.79836 -0.326759,0.16352 z m -2.33994,-5.36897 c -1.097684,-0.85763 -1.405172,-1.38966 -0.683322,-1.18231 0.721894,0.20727 1.61999,0.90902 1.995781,1.55931 0.375824,0.65029 -0.215054,0.48049 -1.312498,-0.37693 z m 1.591037,-6.28739 c -0.836571,-0.66392 -1.774566,-1.99333 -2.084952,-2.95356 -0.412153,-1.27509 -0.0312,-1.09679 1.412155,0.66072 2.422393,2.94994 2.702592,3.90469 0.67289,2.29266 z m -0.207739,-6.59041 c -1.202486,-0.94969 -2.45333,-2.49577 -2.780273,-3.43485 -0.425475,-1.22201 0.327728,-0.90206 2.649455,1.12548 3.548637,3.09894 3.661948,5.10006 0.130782,2.3094 z m -0.217852,-5.38335 c -1.205649,-0.89232 -2.133452,-2.15503 -2.061785,-2.80611 0.155633,-1.41325 1.720011,-0.19078 3.193254,2.49488 0.94705,1.72645 0.825878,1.7598 -1.131469,0.31126 z m 1.512004,-4.08934 c -0.86807,-0.69898 -2.251687,-2.26016 -3.074736,-3.46934 l -1.496454,-2.19845 2.01417,1.53582 c 1.107776,0.84466 2.491393,2.40591 3.074758,3.46935 1.060594,1.93351 1.060594,1.93351 -0.517698,0.66266 z m 0.501414,-6.44123 c -1.622662,-0.17858 -5.169112,-4.54436 -4.992772,-6.14613 0.07728,-0.70161 0.324464,-0.77778 0.549323,-0.16926 0.224916,0.60851 1.655943,2.22344 3.180097,3.58875 2.99306,2.6811 3.108247,2.92968 1.263373,2.72657 z M 39.842548,377.2333 c -1.562667,-1.22094 -2.42235,-2.37464 -1.910379,-2.56387 0.880543,-0.32525 5.504868,3.81955 4.992686,4.47512 -0.132863,0.16962 -1.519618,-0.69039 -3.082307,-1.91125 z m 2.446141,-3.02443 c -1.003935,0.12336 -5.036938,-4.25819 -4.523952,-4.9148 0.235208,-0.30122 1.570338,0.58169 2.966932,1.96181 2.626156,2.59507 2.738384,2.80798 1.556977,2.95307 z m -0.873938,-7.42265 c -1.489028,-1.00667 -4.144955,-5.67407 -3.288639,-5.77925 0.408546,-0.0502 1.539907,1.3813 2.514117,3.18099 0.974253,1.79968 1.322801,2.96887 0.774522,2.59826 z m -1.315536,-9.94195 c -1.432046,-1.10848 -2.323437,-2.3741 -1.980376,-2.81318 0.792252,-1.01402 3.214753,0.87862 3.991588,3.11856 0.449889,1.29721 -0.0355,1.22356 -2.011212,-0.30553 z m -0.0061,-7.80867 c -0.896996,-0.66198 -1.897707,-1.97282 -2.223789,-2.91301 -0.785678,-2.26548 1.20873,-0.70727 2.794101,2.183 1.060619,1.93355 1.060619,1.93355 -0.570355,0.72994 z m 1.041771,-5.05215 c -1.875326,-0.20656 -4.519807,-6.50507 -3.091533,-7.36345 0.942876,-0.56667 0.901654,-1.22761 -0.126659,-2.0311 -0.83854,-0.65502 -1.465841,-1.72373 -1.394145,-2.37485 0.180628,-1.64032 1.868014,-0.0502 3.702241,3.48893 1.224706,2.36298 1.198445,2.73194 -0.128666,1.81058 -1.667025,-1.15735 -1.667025,-1.15735 -1.01606,1.30059 0.358066,1.35175 1.407192,2.78573 2.331427,3.18662 1.662599,0.72115 1.460268,2.17388 -0.276232,1.98271 z m -0.849164,-12.77664 c -1.746768,-1.25077 -4.655619,-5.98025 -3.746784,-6.09188 0.372255,-0.0455 1.680167,1.53009 2.90635,3.50172 1.226237,1.97168 1.604398,3.13721 0.840434,2.59016 z m 0.723625,-5.86273 c -1.746799,-1.25081 -4.655631,-5.98029 -3.746805,-6.09185 0.372306,-0.0459 1.680175,1.53002 2.90639,3.50169 1.226197,1.97164 1.604391,3.1372 0.840415,2.59016 z m 0.255935,-4.96013 c -1.470843,-1.15815 -4.643291,-7.12674 -3.313196,-6.23271 0.526325,0.35394 1.75566,2.11243 2.731929,3.90817 0.976276,1.7957 1.237845,2.84175 0.581267,2.32454 z m -0.272897,-7.80138 c -1.130529,-1.5562 -2.087687,-3.2431 -2.127005,-3.74866 -0.107796,-1.38568 3.803992,3.75795 4.00676,5.2686 0.101019,0.75565 -0.693728,0.1126 -1.879755,-1.51994 z m 1.251128,-4.2837 c -0.900277,-0.76468 -0.941438,-1.10188 -0.105502,-0.85917 0.756442,0.21982 1.422877,0.78595 1.480896,1.25851 0.05795,0.47254 -0.560902,0.29298 -1.375394,-0.39934 z m 21.188855,146.73972 c -5.951728,0.20942 -5.985483,0.23488 -2.598049,1.97041 1.654517,0.84763 2.917191,0.79108 3.662777,-0.16316 0.625842,-0.80105 1.670597,-1.3978 2.321713,-1.32612 0.651058,0.0717 1.323421,-0.0484 1.494056,-0.2668 0.170264,-0.21874 -2.025578,-0.31485 -4.880508,-0.21444 z M 103.21138,294.95586 c -14.037223,-0.29621 -39.759135,2.404 -54.641572,1.26909 -3.655476,-0.29871 -13.404674,-0.77899 -21.664852,-1.06684 -8.260218,-0.28796 -16.188351,-1.07879 -18.9695136,-1.59177 -4.1793015,-0.77085 -5.8994963,-0.51567 -4.6474976,0.82393 0.8331502,0.89145 4.4352152,2.20487 8.0045692,2.91878 3.569333,0.71387 9.113224,2.01273 12.3197,2.88629 15.944926,4.34408 47.496694,5.33397 55.184463,1.73137 2.562256,-1.20071 8.460211,-2.21717 14.246888,-2.45529 9.984825,-0.41085 10.547055,-1.42695 10.167815,-4.51556 z m -2.20461,-5.37439 c -6.799304,-0.7625 -31.325325,-1.01521 -42.325476,-0.4361 -7.861329,0.4139 -19.312801,0.24887 -26.766615,-0.38542 -16.208964,-1.37959 -29.4757489,-1.13527 -27.3045388,0.50283 1.4012566,1.05738 47.2208918,4.00585 59.1724498,3.8079 4.000087,-0.0656 11.722511,-0.0556 17.160991,0.0251 12.341331,0.17966 28.211049,-2.5988 20.063189,-3.51263 z m -26.81496,-8.9578 c -3.49238,-6.07116 -4.329905,-6.4431 -15.167465,-6.73543 l -6.762673,-0.18253 0.129707,-12.24935 c 0.07133,-6.73719 0.165172,-17.48969 0.208563,-23.89445 0.04335,-6.40476 0.270387,-16.55241 0.504455,-22.5503 0.678864,-17.39656 0.05461,-67.40644 -0.935349,-74.92875 -0.619279,-4.70613 -0.747849,-17.65799 -0.264577,-26.66477 0.948104,-17.670753 1.081203,-33.611743 0.349172,-41.830428 l -0.796616,-8.943852 -2.424226,9.198891 c -6.168051,23.4046 -9.066774,33.017139 -11.998617,39.789149 -2.723823,6.29144 -3.273519,9.63423 -3.934213,23.92429 -0.422385,9.13606 -0.978679,20.46315 -1.236192,25.17129 -1.184449,21.65605 -1.613844,79.83161 -0.703386,95.30244 0.283548,4.81758 0.552081,13.47086 0.596827,19.22945 2.158243,18.20762 16.087955,8.15385 33.745881,11.47455 10.396317,0.0739 12.446979,0.4229 8.688816,-6.11031 z M 41.038702,252.38872 c -2.776098,0.34103 -6.507359,-8.67784 -6.250158,-15.10692 0.151043,-3.77738 0.23908,-13.11623 0.195259,-20.75305 -0.236463,-41.28588 -0.304992,-39.67852 2.06092,-48.3409 0.890907,-3.26178 1.773799,-6.53332 1.962098,-7.27011 0.600667,-2.35057 1.836841,-0.30409 3.375837,5.58905 1.523655,5.83429 1.196967,8.42151 -0.717182,5.67974 -0.58392,-0.83641 -0.601833,-0.33099 -0.03981,1.12285 0.753297,1.9488 0.636905,2.53027 -0.442928,2.21248 -0.887906,-0.26142 -0.776803,0.14631 0.282149,1.03525 0.960859,0.8065 1.444009,1.8542 1.073704,2.32816 -0.429635,0.54981 -1.421313,-0.042 -2.73999,-1.63541 -1.436898,-1.73611 -2.110689,-2.09779 -2.210994,-1.18672 -0.07932,0.72068 0.711448,1.97895 1.757303,2.79602 1.045867,0.81715 1.834432,2.09565 1.752351,2.84111 -0.103063,0.93563 -0.706334,0.71857 -1.947865,-0.70075 -2.380745,-2.72162 -3.225695,-1.49903 -0.998911,1.44528 0.956463,1.26465 1.160842,2.11375 0.454186,1.88697 -1.793874,-0.57577 -2.679977,0.85459 -1.230834,1.98677 0.658607,0.5146 1.534273,0.50449 1.94595,-0.0215 0.566912,-0.7256 0.797469,-0.55871 0.950607,0.68816 0.1509,1.22882 -0.243349,1.74338 -1.555144,2.02962 -2.188431,0.47755 -2.086372,3.15069 0.188195,4.92775 1.315242,1.02757 1.240903,1.26318 -0.519746,1.64742 -1.793884,0.39141 -1.788006,0.59987 0.04619,1.64315 1.15546,0.65722 1.903147,1.76362 1.661517,2.45866 -0.241627,0.69512 -0.849725,0.9432 -1.35131,0.55128 -0.501557,-0.39188 -0.970607,-0.17966 -1.042281,0.47131 -0.07183,0.65108 0.566952,1.72858 1.419187,2.39443 0.852296,0.66579 1.295135,1.53622 0.984208,1.9342 -0.310909,0.39798 -1.208808,-0.1187 -1.995286,-1.14853 -1.275692,-1.67013 -1.401698,-1.64025 -1.16776,0.27684 0.144195,1.18196 1.103824,3.28588 2.132428,4.67547 1.353368,1.82826 1.409787,2.31442 0.204045,1.75923 -2.128414,-0.9802 -2.402061,1.03436 -0.357528,2.63176 0.852286,0.66578 1.238828,1.6083 0.859074,2.09435 -0.386621,0.49473 -1.138017,0.18934 -1.707378,-0.69437 -0.847717,-1.31542 -0.914994,-1.17697 -0.404372,0.83218 0.336908,1.32558 1.152827,2.87291 1.813184,3.43854 0.851213,0.72907 0.58608,0.85717 -0.910953,0.44008 -1.907238,-0.53142 -1.935941,-0.26537 -0.296565,2.75045 1.486687,2.73481 1.48309,3.18597 -0.02008,2.4938 -1.509505,-0.69494 -1.518287,-0.24601 -0.05024,2.53224 1.468355,2.77806 1.459501,3.22728 -0.05024,2.5322 -1.5085,-0.6945 -1.516777,-0.22735 -0.0468,2.62573 1.145827,2.22417 1.242363,3.06254 0.268845,2.33411 -1.287687,-0.96331 -1.509917,-0.82177 -1.458271,0.92882 0.03335,1.13599 0.848283,2.40523 1.810613,2.8206 1.976087,0.85283 0.884703,3.0932 -1.213269,2.4906 -1.004957,-0.28867 -1.077908,-0.16998 -0.311376,0.50664 0.550672,0.48598 1.94495,1.04748 3.098483,1.24765 2.809947,0.48763 3.487811,9.44084 0.740301,9.77818 z m -3.085694,-8.98169 c -1.309017,0.21516 -1.268907,0.41752 0.178871,0.90315 1.026315,0.34425 2.318248,0.91203 2.870985,1.26185 0.552718,0.35 0.472198,-0.057 -0.178872,-0.90314 -0.651119,-0.84656 -1.943023,-1.41448 -2.870984,-1.26186 z m 33.604363,20.70884 c 0.529854,-9.28176 0.319121,-10.98427 -1.54255,-12.46082 -1.253294,-0.99394 -1.258422,-1.27892 -0.02116,-1.15649 2.131922,0.21085 2.999881,-10.62839 0.979805,-12.23616 -0.855631,-0.68138 -0.853817,-1.0322 0.005,-0.95994 0.905825,0.0764 1.568495,-2.59421 2.000095,-8.05983 l 0.645508,-8.17364 -4.664292,-3.64413 c -7.875594,-6.15313 -11.991994,-6.42333 -5.469775,-0.3591 4.860942,4.51962 4.932932,4.64954 1.06711,1.9252 -2.280247,-1.60655 -5.120396,-3.15474 -6.311851,-3.43983 -2.166254,-0.51836 -2.166254,-0.51836 -0.483989,0.61952 0.925196,0.62583 2.059871,1.76522 2.521411,2.53203 0.46158,0.7668 1.253781,1.97421 1.760534,2.68321 0.506742,0.70892 -0.995232,0.40992 -3.337703,-0.66446 -3.923263,-1.7995 -3.673719,-1.51463 3.165459,3.61282 4.083454,3.06147 7.046335,5.7047 6.584095,5.87392 -0.462239,0.16926 -2.70957,-1.14387 -4.994063,-2.91791 -2.284206,-1.77434 -4.964521,-3.29822 -5.95569,-3.38716 -1.398237,-0.12551 -1.299481,0.23525 0.440724,1.61031 2.512141,1.98466 3.53993,5.94432 1.484255,5.71804 -0.69308,-0.0764 -2.052355,-1.11902 -3.020677,-2.31708 -1.312897,-1.62455 -1.616981,-1.73446 -1.196085,-0.4324 0.310407,0.96026 1.324383,2.34856 2.253298,3.08513 1.923946,1.5255 2.613963,5.9044 0.700191,4.44331 -2.864875,-2.18726 0.383461,2.83024 3.569737,5.51392 l 3.489454,2.93861 -4.028779,-2.24826 c -3.137839,-1.75099 -3.521989,-1.80518 -1.737081,-0.24493 1.78021,1.5562 1.889531,1.96716 0.489622,1.84154 -1.540097,-0.13771 -1.600335,-0.001 -0.414574,0.94205 0.76337,0.60675 1.090273,1.48415 0.727011,1.94915 -0.363312,0.46496 -0.04579,0.91311 0.706137,0.99591 0.846766,0.0932 0.876096,0.33171 0.07688,0.62709 -0.709321,0.26214 -2.085332,-0.12766 -3.057756,-0.8657 -1.662054,-1.26175 -1.719234,-1.22026 -0.952866,0.69135 0.623571,1.55555 0.456494,1.99419 -0.710548,1.8657 -0.955548,-0.10507 -0.231119,1.19763 1.938455,3.48617 2.667091,2.81331 2.987732,3.50814 1.393515,3.01954 -1.768854,-0.54213 -1.735443,-0.22412 0.22904,2.18103 l 2.299859,2.81568 -2.815326,-1.33318 -2.815294,-1.33314 2.121576,1.80972 c 1.166837,0.99538 1.895114,2.09955 1.618276,2.45385 -0.276806,0.3543 -1.796244,0.26286 -3.376462,-0.20368 l -2.87315,-0.84767 2.736272,2.25698 c 4.164936,3.43542 7.789432,4.82275 6.379871,2.44191 -0.719272,-1.21481 0.332712,-0.74945 3.156207,1.39636 5.037909,3.82856 4.778761,4.02862 5.239695,-4.04501 z m -4.039544,-2.12577 c -0.694417,-0.0764 -1.300009,-0.44395 -1.345759,-0.81671 -0.04579,-0.37277 0.637309,-0.45737 1.517949,-0.18827 1.828486,0.55924 1.716276,1.2129 -0.172309,1.00473 z m -1.073493,-9.34957 c -0.900245,-0.76461 -0.941459,-1.10181 -0.105501,-0.85914 0.756426,0.21982 1.422844,0.78598 1.480891,1.25848 0.05806,0.47253 -0.560923,0.29298 -1.37539,-0.39934 z m 0.0251,-11.5509 c -0.900299,-0.76465 -0.941459,-1.10181 -0.105501,-0.85914 0.756459,0.21982 1.422873,0.78595 1.480884,1.25852 0.05806,0.47249 -0.560916,0.29298 -1.375383,-0.39938 z m 0.09998,-5.06441 c -0.900255,-0.76465 -0.941437,-1.10184 -0.105501,-0.8591 0.756478,0.21946 1.422852,0.78591 1.480874,1.25844 0.05806,0.47253 -0.560895,0.29298 -1.375373,-0.39934 z m 1.722383,-2.99961 c -0.694418,-0.0764 -1.299987,-0.44402 -1.345792,-0.81675 -0.04579,-0.37277 0.637371,-0.45737 1.517986,-0.18827 1.82846,0.55924 1.716282,1.21287 -0.172309,1.0047 z m 1.974154,-4.7895 c -0.822747,-0.25174 -2.035597,-1.10579 -2.695166,-1.8983 -0.748943,-0.89956 -0.103134,-0.83512 1.719273,0.17177 3.058384,1.6893 3.519103,2.50441 0.976014,1.72656 z m -12.135353,38.98792 c -0.835915,-0.24278 -0.79454,0.0943 0.105465,0.8591 0.814212,0.69243 1.433391,0.87191 1.375351,0.39938 -0.05806,-0.47253 -0.724414,-1.03884 -1.480856,-1.25845 z M 73.523284,210.2443 c -0.04741,-10.8825 0.717959,-28.7882 1.975115,-46.20714 0.579736,-8.03218 1.293485,-23.44785 1.586213,-34.25705 0.292728,-10.80919 0.789437,-27.75739 1.103817,-37.662662 0.314387,-9.905232 0.147099,-24.14612 -0.371782,-31.646379 C 77.297795,52.970846 76.759829,43.40428 76.621189,39.212064 76.328784,30.371024 74.873762,26.576535 70.555935,23.394792 l -3.100147,-2.284409 2.890113,3.705661 2.890102,3.705663 -5.9564,-3.894754 c -5.730024,-3.746758 -5.812428,-3.766338 -2.168409,-0.515636 3.109018,2.773438 3.296862,3.122932 1.048032,1.949654 -2.408523,-1.256581 -2.305381,-0.990462 0.8525,2.199888 l 3.592502,3.629387 -5.040369,-3.735964 c -5.089606,-3.772506 -9.505084,-4.652985 -4.765977,-0.950406 2.976618,2.325613 1.464636,4.122825 -1.850042,2.198955 -5.315633,-3.085315 -3.399964,-0.515421 3.821581,5.126699 9.011635,7.040637 7.511189,7.526115 -1.737375,0.562147 -4.285847,-3.227107 -5.727238,-3.976587 -4.902347,-2.548952 0.642617,1.112208 4.312032,4.376287 8.154201,7.253504 3.842175,2.877253 6.775069,5.500543 6.517485,5.829634 -0.257621,0.328839 -4.003773,-2.096252 -8.324867,-5.389592 -7.659106,-5.837451 -7.761053,-5.882707 -4.05694,-1.800798 2.089757,2.302914 5.499988,5.19591 7.578327,6.42886 2.381308,1.412717 3.370584,2.392565 2.675083,2.649612 -0.606979,0.224485 -2.77088,-0.894751 -4.808608,-2.486806 -3.630947,-2.836803 -4.793299,-2.059925 -1.993755,1.332605 1.320747,1.600518 1.320747,1.600518 -0.736388,0.942481 -6.257336,-2.001616 -6.117642,-1.506743 1.076491,3.814427 4.102769,3.034644 7.082278,5.656572 6.621071,5.826586 -0.461185,0.169978 -3.082345,-1.403322 -5.824767,-3.496203 -3.531475,-2.695082 -4.676785,-3.241199 -3.925616,-1.871801 0.583322,1.063474 0.634434,1.738509 0.113534,1.500145 -0.520857,-0.238471 1.022148,1.4891 3.4289,3.838812 l 4.375899,4.27222 -6.144437,-4.476911 -6.144376,-4.47691 4.102761,5.269997 4.10278,5.269998 -3.874737,-1.44804 c -3.716209,-1.388835 -3.62252,-1.265977 2.290062,3.002692 3.647038,2.633009 5.309943,4.200894 4.07151,3.839028 -1.151296,-0.33637 -3.999032,-2.059997 -6.328272,-3.830134 -6.412113,-4.872845 -6.145653,-2.472175 0.399782,3.602062 7.808528,7.246368 8.22907,8.408529 0.794288,2.194975 -5.118183,-4.277492 -5.970816,-4.735751 -5.460351,-2.934881 0.423711,1.494909 2.88165,3.774299 8.206374,7.610278 4.180829,3.011873 7.179502,5.632115 6.66373,5.822713 -0.515757,0.190777 -3.170745,-1.379655 -5.899999,-3.489497 -4.537729,-3.507857 -4.90798,-3.632185 -4.328294,-1.453204 0.599258,2.252567 0.492075,2.272003 -1.96075,0.355735 C 56.062752,74.929378 54.8407,74.512 54.774132,75.11682 c -0.113928,1.034105 3.979883,4.0463 11.056337,8.13531 2.325955,1.344009 2.560263,1.660476 0.938286,1.267268 -1.188964,-0.288317 -2.989851,-1.130318 -4.001837,-1.871336 -1.012061,-0.740946 -2.159985,-0.937747 -2.551024,-0.437244 -0.491061,0.628559 0.794621,1.854731 4.156717,3.964394 3.347701,2.100626 4.409149,3.110704 3.399268,3.234673 -0.821083,0.100768 -3.702076,-1.757586 -6.53487,-4.215345 -5.043579,-4.37582 -8.044927,-4.617483 -3.669253,-0.295489 1.165209,1.150973 2.061007,2.615616 1.990656,3.254755 -0.08248,0.748763 1.53171,2.033424 4.538003,3.611708 2.566269,1.347237 4.234512,2.608982 3.707133,2.803919 -0.527309,0.194722 -1.806285,-0.307681 -2.842164,-1.117192 -2.401703,-1.876392 -5.007242,-2.678874 -5.723086,-1.762571 -0.306319,0.392097 0.247006,1.34989 1.229661,2.128489 1.478177,1.171199 1.466132,1.399701 -0.06989,1.323605 -1.369599,-0.06778 -0.674411,0.686295 2.650365,2.875245 2.478802,1.63197 3.968386,3.033321 3.310083,3.114181 -0.65827,0.0807 -3.487162,-1.487811 -6.28644,-3.485909 -2.840066,-2.027184 -5.023451,-3.092523 -4.939921,-2.410352 0.08226,0.672381 3.125532,3.33738 6.76273,5.922151 3.63718,2.58482 5.989255,4.63922 5.226796,4.56538 -0.762455,-0.0739 -2.558092,-1.04092 -3.990347,-2.14911 -1.432003,-1.10851 -2.854736,-1.69404 -3.161084,-1.30194 -1.311362,1.67851 4.186109,7.0676 5.989266,5.87119 0.665654,-0.44169 1.437028,-0.0251 2.107637,1.14187 1.403322,2.43911 -1.687268,1.71591 -6.043178,-1.41412 -1.584969,-1.13892 -3.858883,-2.30116 -5.053086,-2.58273 -1.486719,-0.35071 -0.06706,1.03249 4.502415,4.38679 5.336339,3.91706 6.344659,4.97049 5.031666,5.25702 -1.265594,0.27612 -1.200077,0.50613 0.285878,1.00312 1.357357,0.45396 1.490954,0.71706 0.451489,0.88901 -0.812057,0.13448 -3.538769,-0.81851 -6.059387,-2.11744 -2.801509,-1.44367 -3.775042,-1.67454 -2.504453,-0.59396 1.143173,0.97221 2.019843,2.30041 1.948187,2.95149 -0.07183,0.65108 0.981727,2.12325 2.340941,3.27154 1.605381,1.3562 0.401395,0.98931 -3.436111,-1.04705 -4.20779,-2.23288 -5.609624,-2.62702 -4.872483,-1.36998 0.956987,1.63186 6.976939,5.76466 12.096986,8.30472 1.351454,0.67044 1.726567,1.23374 1.000389,1.50208 -0.63901,0.23632 -2.700656,-0.70441 -4.581412,-2.09016 -6.139545,-4.52363 -9.892691,-5.63892 -4.682723,-1.39148 2.463403,2.00832 5.721801,3.94994 7.240737,4.31471 1.518986,0.36481 2.813834,1.08721 2.877469,1.60532 0.232518,1.89379 -1.86549,1.07635 -8.014722,-3.12279 -3.456455,-2.36029 -6.335455,-3.82805 -6.397798,-3.26171 -0.167109,1.51801 8.237415,7.79622 10.797799,8.06599 2.017089,0.21266 5.106058,3.42201 3.485075,3.62104 -0.386177,0.0473 -3.074048,-1.24626 -5.973032,-2.87485 l -5.270898,-2.9611 5.511664,4.19419 c 9.21331,7.01109 6.474087,9.99187 -2.883475,3.13774 l -3.679567,-2.69515 1.333886,3.05877 c 1.30722,2.99764 6.672344,6.54251 12.594562,8.32154 1.002214,0.30122 1.543349,0.90429 1.202551,1.34049 -0.340781,0.43617 -2.478608,-0.25748 -4.75074,-1.54149 -2.272092,-1.28402 -5.117265,-2.64061 -6.322588,-3.01467 -3.687664,-1.14441 3.669598,5.94281 8.723723,8.40354 2.881503,1.40293 3.887098,2.18558 2.955296,2.29991 -0.776935,0.0954 -4.288966,-1.59253 -7.804526,-3.75092 l -6.391945,-3.92441 6.178895,4.58747 c 8.686289,6.44897 6.617607,8.59016 -2.947625,3.05088 l -6.333468,-3.66772 5.890679,4.394 c 3.239848,2.4167 5.679332,4.66281 5.421066,4.99133 -0.258122,0.32884 -2.76387,-1.0941 -5.568043,-3.16141 -4.025071,-2.96741 -4.434438,-3.13634 -1.944351,-0.80237 1.734733,1.62601 2.867259,3.32349 2.516671,3.77221 -0.586424,0.75063 1.461674,2.06936 7.270437,4.68121 1.5215,0.68414 1.539075,0.83325 0.08732,0.74421 -0.998312,-0.0613 -3.401686,-0.96963 -5.340797,-2.01858 -4.167023,-2.25407 -3.984537,-0.11618 0.29886,3.50169 l 2.710775,2.28968 -2.904779,-1.2186 c -2.292099,-0.96156 -1.91194,-0.49326 1.802444,2.22036 2.589004,1.89142 4.496296,3.708 4.238403,4.03683 -0.257943,0.32884 -3.485681,-1.64975 -7.172875,-4.3969 l -6.703995,-4.99477 6.796894,6.11002 c 3.738285,3.36055 5.217061,4.98509 3.286155,3.6101 -4.331565,-3.08442 -5.871784,-1.81174 -1.813701,1.49871 3.485097,2.8429 2.476945,2.61156 -3.270454,-0.75059 -2.305116,-1.34849 -4.425043,-2.15238 -4.710946,-1.78646 -0.285915,0.36592 0.956119,1.3627 2.760044,2.21502 2.136468,1.00947 2.888642,1.69426 2.157694,1.96443 -0.727122,0.2686 0.515363,1.43391 3.529681,3.31002 4.318426,2.68784 4.382218,2.7757 0.890043,1.22578 -5.550641,-2.46346 -5.963318,-1.83906 -1.004595,1.52001 2.40512,1.62924 3.834681,3.02786 3.176856,3.10794 -0.657865,0.08 -3.458797,-1.81894 -6.224266,-4.22011 -2.765484,-2.40118 -4.960469,-3.82591 -4.877689,-3.16618 0.08309,0.65975 2.81487,3.37287 6.071332,6.02908 4.065399,3.31601 5.2146,4.60824 3.667127,4.12355 -1.239559,-0.38823 -3.870423,-2.15445 -5.846359,-3.92488 -1.975915,-1.77039 -3.802887,-2.9493 -4.059859,-2.61981 -0.664642,0.85208 8.906274,8.155 12.691676,9.68419 1.743203,0.70419 2.943462,1.56964 2.667255,1.92315 -0.675677,0.86481 -5.269994,-1.52005 -10.861745,-5.63814 -3.195262,-2.35323 -3.836179,-2.62845 -2.108852,-0.90569 1.86554,1.86058 2.050285,2.44105 0.744252,2.33842 -2.33625,-0.18361 9.296592,7.43707 12.093511,7.92244 1.330734,0.23094 1.869198,0.64262 1.484489,1.13502 -0.765475,0.97966 -2.762038,0.17248 -9.085648,-3.67296 -8.375914,-5.09349 -5.797356,0.49265 2.943075,6.37589 3.743653,2.51994 5.388889,3.94679 3.935402,3.41315 -1.373723,-0.50434 -4.011038,-1.94183 -5.860736,-3.19447 -2.733449,-1.85111 -2.468072,-1.42061 1.417566,2.2994 l 4.780677,4.57689 -5.050034,-3.72367 c -2.777508,-2.04798 -5.520489,-3.54974 -6.095463,-3.33727 -1.466451,0.54196 4.504681,6.60845 9.468054,9.61932 2.858685,1.7341 3.360081,2.2402 1.617376,1.63229 -1.389178,-0.48454 -4.557542,-2.35305 -7.040862,-4.15227 -3.563943,-2.58201 -4.199876,-2.80811 -3.01869,-1.07283 0.823055,1.20918 0.921061,1.82422 0.217815,1.36675 -4.429725,-2.88149 1.104968,2.91379 6.18747,6.47874 7.147572,5.01341 6.685932,5.32891 6.642935,-4.53974 z M 68.632445,178.397 c -1.097696,-0.8576 -1.405176,-1.38966 -0.683315,-1.18232 0.721882,0.20727 1.61999,0.90903 1.995813,1.55932 0.375813,0.65025 -0.21509,0.48049 -1.312498,-0.377 z m 0.374396,-8.70682 c -1.097706,-0.8576 -1.405166,-1.38966 -0.683294,-1.18231 0.721862,0.20727 1.619958,0.90902 1.995782,1.55931 0.375812,0.65026 -0.215055,0.48049 -1.312488,-0.377 z m 0.135839,-45.48925 c -0.927366,-0.28366 -2.088004,-0.86635 -2.57919,-1.29492 -0.49115,-0.4286 0.236212,-0.45123 1.616638,-0.0502 1.380335,0.40099 2.540955,0.98372 2.579167,1.29495 0.0383,0.31127 -0.689271,0.33386 -1.616626,0.0502 z M 65.749816,97.067965 c -0.521424,0.06419 -1.5083,-0.33888 -2.193063,-0.895432 -1.022471,-0.830991 -0.866303,-0.959801 0.873805,-0.720757 2.14984,0.29549 3.054152,1.403143 1.319258,1.616189 z m -0.04985,-32.709493 c -0.900065,-0.764901 -0.941459,-1.101845 -0.105501,-0.859142 0.756477,0.219465 1.422873,0.785951 1.480913,1.258447 0.05795,0.472531 -0.560895,0.292978 -1.37539,-0.399341 z m 1.833768,-12.90588 c -1.536766,-1.20064 -2.037056,-1.856095 -1.111817,-1.456611 0.92529,0.399556 2.182628,1.381914 2.794143,2.183033 0.611498,0.80112 -0.145557,0.474253 -1.682326,-0.726422 z m 0.143083,-17.737808 c -0.552748,-0.349638 -1.84472,-0.917666 -2.870985,-1.261889 -1.447836,-0.485585 -1.487935,-0.688016 -0.178871,-0.903142 0.927914,-0.152407 2.219847,0.415334 2.870974,1.261889 0.651108,0.846554 0.731618,1.252959 0.178871,0.903142 z M 60.935155,149.57957 c -5.824018,-4.25411 -8.465074,-4.16629 -2.969812,0.0986 3.441461,2.67102 7.519153,4.77423 8.018053,4.13567 0.149968,-0.1915 -2.122071,-2.09701 -5.048241,-4.23443 z m -3.878233,6.22933 c -0.934861,-0.40443 -0.632447,0.11977 0.672101,1.16539 1.304473,1.0454 2.069392,1.37628 1.699751,0.73532 -0.369645,-0.64094 -1.436959,-1.49624 -2.371799,-1.90075 z m 2.906716,-21.44103 -3.777154,-1.74758 3.995464,3.25077 c 2.197489,1.78796 4.479579,3.19509 5.071281,3.12702 1.714439,-0.19723 -1.175318,-2.72667 -5.289591,-4.63021 z m -1.195042,-24.03933 -2.577938,-0.75084 1.96478,1.59897 c 1.080615,0.87948 3.067675,2.03859 4.415633,2.57585 l 2.450881,0.97687 -1.837702,-1.82504 c -1.010734,-1.00376 -2.997773,-2.16291 -4.415654,-2.57581 z m -3.091988,-9.55462 c -0.721872,-0.20728 -0.414392,0.32453 0.683314,1.18231 1.097685,0.8576 1.688312,1.02722 1.312488,0.37696 -0.375812,-0.65025 -1.273931,-1.35193 -1.995802,-1.55927 z M 55.264221,70.448272 c -0.439067,-0.343183 -0.922105,-0.465323 -1.073361,-0.271821 -0.151653,0.193287 -0.08936,0.854731 0.137848,1.469126 0.227067,0.614431 0.710081,0.736678 1.073382,0.271821 0.36329,-0.464965 0.301262,-1.126086 -0.137883,-1.469126 z m 0.02797,-14.119931 c -0.684531,-0.534785 -1.30325,-0.439684 -1.374914,0.211576 -0.07183,0.65108 0.207703,1.447896 0.620857,1.770711 0.413165,0.322743 1.031896,0.227713 1.374936,-0.211576 0.343039,-0.439074 0.06372,-1.23589 -0.620879,-1.770711 z m 9.71671,-38.256619 c -0.721883,-0.207273 -0.414391,0.324895 0.683294,1.182315 1.097695,0.8576 1.688311,1.027255 1.312487,0.376964 -0.375834,-0.650256 -1.27392,-1.351934 -1.995781,-1.559279 z M 59.69437,15.549379 c -0.318297,0.02869 -0.138385,0.399125 0.399774,0.819587 0.543783,0.424838 0.397867,0.979059 -0.328014,1.247581 -0.891047,0.329198 -0.730443,0.659328 0.504637,1.037081 0.996397,0.304812 2.622788,1.121316 3.614273,1.81464 0.991416,0.693323 0.584448,-0.142366 -0.904409,-1.856669 -1.488888,-1.714446 -2.967492,-3.092415 -3.285792,-3.062113 z m -3.507818,9.731917 c -0.934853,-0.404433 -0.632418,0.120132 0.67208,1.165389 1.304523,1.0454 2.069431,1.376319 1.69979,0.735352 -0.369634,-0.640968 -1.436988,-1.496272 -2.37183,-1.900777 z m 2.124262,-3.470131 c -0.835955,-0.242774 -0.794583,0.09431 0.105501,0.859141 0.814506,0.692176 1.433409,0.871872 1.375401,0.39934 -0.05795,-0.472531 -0.724436,-1.038836 -1.480902,-1.258481 z m -0.002,-2.980101 c -1.317222,-1.029119 -2.627035,-1.574124 -2.910668,-1.211074 -0.283619,0.363014 0.685624,1.343865 2.153936,2.179698 1.468251,0.835796 2.778024,1.380766 2.910614,1.211075 0.132611,-0.16962 -0.836664,-1.150579 -2.153882,-2.179699 z m -2.293219,-3.955465 c -0.835947,-0.242775 -0.794571,0.09431 0.105465,0.859142 0.814471,0.692176 1.433391,0.871872 1.375373,0.39934 -0.05795,-0.472531 -0.724404,-1.038838 -1.480884,-1.258446 z"
     id="path3073"
     inkscape:connector-curvature="0"
     sodipodi:nodetypes="sssssssscssssssssssssssssssssssscccssssssssscssssssssssscssscssssssscssssssssscsssssscscsscsscsssssssssssssccssccscsscccssssscscsscssscssssscscscssssssssscsssssssssssccscssscsscscccccsccssscsssssscssssssssssssccsssscscssscssssscssccsscccsccscsscssssssssscssscsscscssccsscsssssssssccssccscccsccssccsscccssssssccssssssscssscsssssssssssscsssssccsccsssssscssscssssssssssssssssssssssssscsssssssssscscccssscccscsscsssssssssscscccsssscscscsssscssssccccsscsssccccsccsccccsccccscccccscscssccccccsssscsccssssscsssssssssssssssscsscscccccsscssssscsssssscssssssscsscsscscsccsssssscssscssssscssssscscscsscsssssscscsscscssssssscsssscsscsscsssscscsssssssssssssssscscssssssccssssssssccsscccsccscccsssssssssscsscccccsccsscscscsscsssssssssssssssssscssscscccccccccscssszscczscsscsssssscccsccccccscscsccccc" />
  <path
     style="fill:none;stroke:#000000;stroke-width:1.01308262px;stroke-linecap:butt;stroke-linejoin:miter;stroke-opacity:1"
     d="m 32.833507,285.93168 44.421571,0.71871 -6.187714,-13.8309 L 78.694619,101.84503 77.609923,29.024612 52.315448,1.2654219 52.624743,49.48906 40.422235,100.93245 32.856669,117.01334 30.391939,170.067 29.206432,270.10286 z"
     id="path3075"
     inkscape:connector-curvature="0" />
  <path
     style="fill:none;stroke:#ffffff;stroke-width:0.78771466;stroke-opacity:1"
     d="m 68.93153,195.62849 c -4.885234,-2.41763 -9.527808,-5.88694 -8.919603,-6.66543 0.235997,-0.30194 2.182463,0.51718 4.325476,1.82056 4.933997,3.00093 6.436448,3.59672 7.059353,2.7994 0.320197,-0.40978 -0.760046,-1.36832 -3.027232,-2.68619 -2.420802,-1.40719 -3.236362,-2.15578 -2.603531,-2.38962 1.005484,-0.37162 -0.796638,-2.58277 -5.56302,-6.82569 -2.045584,-1.82096 -1.448685,-1.508 1.950163,1.02245 5.285852,3.93531 7.820858,3.98189 2.95644,0.0545 l -2.91155,-2.35086 2.826189,0.86076 2.826216,0.86072 -3.34301,-2.75816 c -3.661454,-3.02088 -6.465574,-6.85474 -3.302023,-4.5146 0.929665,0.68766 2.331771,1.44657 3.115807,1.68637 1.099266,0.33601 1.001575,-0.17357 -0.426781,-2.2279 -1.646319,-2.36764 -1.656836,-2.52281 -0.09463,-1.39529 2.606102,1.8807 3.00162,0.42272 0.531514,-1.96012 -1.98399,-1.91401 -1.92254,-1.90623 0.855821,0.10865 4.263011,3.09131 5.517804,2.16066 1.469173,-1.08968 -2.240464,-1.79869 -2.754016,-2.46666 -1.640667,-2.13377 1.198599,0.35825 0.748283,-0.39808 -1.729189,-2.90461 l -3.349842,-3.38916 4.129976,1.48013 c 6.632791,2.37715 7.632279,1.52403 1.713435,-1.46252 -2.406464,-1.21427 -3.896913,-2.36295 -4.294195,-3.30948 -0.503827,-1.20046 -0.142258,-1.20806 2.10545,-0.0445 2.000464,1.03579 2.595871,1.07506 2.264898,0.14918 -0.24697,-0.69078 -1.266138,-1.93739 -2.264787,-2.77032 -1.571238,-1.31051 -1.363334,-1.31826 1.544741,-0.0581 2.101081,0.9106 3.633074,1.10744 4.087897,0.52528 0.501762,-0.64218 -0.0615,-1.70756 -1.815454,-3.43387 l -2.542898,-2.50284 3.030821,1.71337 c 1.666946,0.94237 3.585968,1.6452 4.264489,1.5619 0.907771,-0.11153 -0.450661,-1.28667 -5.142185,-4.44866 -7.302399,-4.92165 -7.935933,-6.85082 -1.114865,-3.39482 3.962154,2.0075 6.152886,2.34473 5.977967,0.92021 -0.0397,-0.32382 -2.360718,-1.58653 -5.157687,-2.80582 -3.631636,-1.5832 -5.680333,-2.91752 -7.166618,-4.66772 l -2.081265,-2.4508 4.328356,2.22183 c 7.115262,3.65245 8.591972,3.12164 5.120008,-1.84042 -1.806733,-2.5822 -1.901272,-2.9592 -0.485825,-1.93711 1.159626,0.83734 2.022296,0.93011 2.535877,0.27254 0.639752,-0.8188 0.254716,-1.29474 -2.161108,-2.67159 -1.616738,-0.92143 -4.992489,-3.07793 -7.501683,-4.7922 -5.208328,-3.55838 -2.24108,-2.51861 4.512441,1.58123 2.71112,1.64581 4.109683,2.09675 4.59127,1.48031 0.380929,-0.48748 0.273542,-1.21376 -0.238579,-1.61386 -0.512093,-0.40009 -0.580392,-1.17632 -0.151761,-1.72495 0.476881,-0.61038 0.33117,-1.13455 -0.375486,-1.35071 -0.635162,-0.19437 -3.733232,-2.13043 -6.884566,-4.30263 l -5.729734,-3.94941 3.974708,1.72696 c 4.957622,2.15406 5.708053,2.08313 3.62247,-0.34246 -0.903719,-1.05103 -1.660279,-2.49265 -1.681261,-3.20362 -0.02905,-0.98552 0.541147,-0.99269 2.399852,-0.0287 2.674811,1.385 6.193186,1.25031 4.378331,-0.16747 -0.553924,-0.43276 -0.788859,-1.06616 -0.522145,-1.40755 0.273579,-0.35 -1.452393,-2.18497 -3.959023,-4.20875 -4.622374,-3.73198 -4.470868,-3.82705 0.980429,-0.61522 2.210516,1.30245 3.479728,1.62361 3.964438,1.00323 0.944446,-1.20874 -0.319731,-3.21972 -1.901892,-3.02546 -1.547373,0.19006 -5.933959,-3.13671 -5.795419,-4.39515 0.05623,-0.51112 0.741677,-0.42624 1.54123,0.19077 2.09681,1.61831 4.752443,2.62907 5.246412,1.99678 0.235638,-0.30159 -1.843343,-2.39059 -4.619932,-4.6423 -2.776594,-2.251711 -4.130873,-3.540992 -3.009532,-2.865169 4.728937,2.850179 6.615603,3.687299 7.051815,3.128959 0.254644,-0.32597 -0.933638,-1.683751 -2.64064,-3.017397 -1.707016,-1.333682 -2.900587,-2.684755 -2.652383,-3.002406 0.248153,-0.317722 -0.09188,-1.177796 -0.7558,-1.911463 -1.1516,-1.272647 -1.100521,-1.304778 1.111957,-0.700209 1.275423,0.348563 2.999092,1.165067 3.830378,1.814533 0.831253,0.649466 1.756675,0.866923 2.056414,0.483254 0.364527,-0.466579 -0.66612,-1.491933 -3.112221,-3.096253 -2.492092,-1.634477 -4.410372,-3.561073 -6.021257,-6.047341 l -2.363956,-3.648681 4.367562,3.36603 c 4.847925,3.736179 7.510357,5.100987 8.208349,4.207527 0.255362,-0.326687 -1.257438,-1.826617 -3.375815,-3.3467 -4.53787,-3.256369 -5.187792,-4.670557 -1.140204,-2.481105 5.365895,2.902607 4.604673,1.052286 -1.2453,-3.027005 -3.137506,-2.187839 -5.080487,-3.738547 -4.317709,-3.445998 1.099782,0.421789 1.378005,0.232016 1.344088,-0.917451 -0.0355,-1.209138 0.368357,-1.128094 2.43857,0.48935 1.364715,1.066235 3.485358,2.443379 4.712527,3.06032 4.403372,2.213694 2.283772,-0.594349 -4.503235,-5.965939 -4.222647,-3.342039 -6.274912,-5.291191 -5.274036,-5.009078 0.901156,0.253892 2.81571,1.611994 4.254591,3.017754 1.476592,1.442554 2.997594,2.414978 3.491785,2.232306 0.532386,-0.196874 -0.513126,-1.674642 -2.667062,-3.770211 -1.948485,-1.895613 -4.352479,-4.425236 -5.342299,-5.621322 -1.631752,-1.971887 -1.344848,-1.89113 3.076092,0.865812 6.145624,3.832465 7.685359,3.45464 2.541582,-0.623683 -3.746529,-2.970454 -3.799584,-3.063189 -1.399582,-2.442411 l 2.494749,0.645271 -3.056095,-3.765155 -3.056096,-3.765119 4.861459,2.733812 4.86148,2.733848 -3.80207,-3.756477 c -2.091133,-2.066092 -3.765262,-4.090515 -3.720311,-4.498713 0.04497,-0.408199 2.04832,0.481317 4.452002,1.976764 2.403671,1.495412 4.412269,2.338129 4.463488,1.872662 0.05124,-0.465431 -2.456318,-2.87485 -5.572368,-5.354233 -5.65905,-4.502838 -5.662202,-4.507105 -2.736997,-3.778172 l 2.928548,0.729721 -1.22667,-2.196911 -1.226682,-2.196947 3.569903,2.07513 c 5.62902,3.272111 5.659756,1.911176 0.05928,-2.629315 -2.796725,-2.267449 -4.169796,-3.566704 -3.05124,-2.887258 1.118555,0.679409 3.628373,2.224774 5.577392,3.434092 5.822863,3.612892 4.198699,0.869111 -2.832112,-4.784377 -3.609916,-2.902786 -5.648339,-4.721873 -4.529798,-4.042427 1.118566,0.67941 3.628388,2.224775 5.577414,3.434092 5.625578,3.490501 4.294751,0.943557 -2.232459,-4.272435 -5.004302,-3.999 -5.600114,-4.658328 -3.703056,-4.097652 2.728878,0.806499 3.860307,-0.840566 2.103563,-3.062328 -1.013466,-1.28172 -0.607463,-1.212904 2.113977,0.358245 1.852623,1.06957 4.260591,2.593562 5.351053,3.386649 1.787038,1.299793 1.766906,1.179159 -0.204476,-1.222156 -1.202895,-1.465289 -1.854154,-2.787208 -1.447269,-2.93757 0.406915,-0.150255 0.49942,-0.689056 0.205695,-1.197018 -0.293803,-0.507997 0.826351,0.103995 2.489205,1.359609 1.84463,1.392958 3.062881,1.924301 3.124722,1.362728 0.05573,-0.50624 0.468235,-0.636342 0.916615,-0.289034 2.015831,1.561071 3.94938,45.452819 3.306591,75.061791 -0.279137,12.8564 -3.73935,90.4472 -4.181246,93.75854 -0.07882,0.59102 -1.72533,0.1707 -4.275512,-1.09123 l 0,0 z m -0.888765,-18.60308 c -0.889892,0.10938 -0.720517,0.53206 0.62563,1.56161 1.618186,1.23765 1.768699,1.21914 1.220255,-0.1499 -0.44838,-1.11916 -0.971342,-1.51915 -1.845864,-1.41182 l 0,0 z m 0.746511,-8.50944 c -1.031967,0.12659 -0.995769,0.42158 0.162914,1.32683 1.15869,0.90526 1.453558,0.86908 1.326842,-0.1628 -0.12673,-1.03199 -0.457771,-1.29065 -1.489759,-1.16392 z m 0.954394,-45.42693 c -2.843114,-1.30997 -4.385524,-1.03729 -2.493601,0.44083 1.300707,1.01621 3.796303,1.41028 4.360213,0.68852 0.08499,-0.10901 -0.754877,-0.61715 -1.866612,-1.12935 z M 66.081689,95.626918 c -0.640985,-0.500789 -1.840517,-0.763215 -2.665631,-0.583196 -1.223084,0.266801 -1.323533,0.465395 -0.543875,1.074519 1.413241,1.104139 3.447317,1.606506 3.941885,0.973536 0.238148,-0.304813 -0.09126,-0.964069 -0.732397,-1.464859 z M 65.736354,63.685876 c -0.649961,-0.188626 -0.617816,0.07315 0.08205,0.668042 0.633308,0.538155 1.114514,0.677903 1.069431,0.31055 -0.04508,-0.367389 -0.563284,-0.807718 -1.151479,-0.978485 l 2.9e-5,-3.6e-5 z m 0.856865,-13.331507 c -0.719441,-0.31055 -0.330418,0.199025 0.864474,1.132541 1.194912,0.933588 1.783552,1.18773 1.308084,0.564836 -0.475472,-0.62293 -1.453118,-1.386719 -2.172558,-1.697377 z m 0.03478,-18.276717 c -1.223751,-0.956108 -2.10636,-1.142366 -2.574384,-0.543284 -0.410733,0.52582 -0.22194,1.096394 0.446092,1.348169 l 2.316738,0.873163 c 1.897564,0.715163 1.803609,-0.121566 -0.188374,-1.678048 z"
     id="path3079"
     inkscape:connector-curvature="0" />
  <g
     inkscape:groupmode="layer"
     id="layer1"
     inkscape:label="Colors"
     transform="translate(0.04476567,131.50041)">
    <path
       style="fill:none;stroke:#000000;stroke-width:1.01308262px;stroke-linecap:butt;stroke-linejoin:miter;stroke-opacity:1"
       d="M 31.293857,154.27305 z"
       id="path3082"
       inkscape:connector-curvature="0" />
    <path
       style="fill:#000000;fill-opacity:0.1442308;stroke:#000000;stroke-width:1.01308262px;stroke-linecap:butt;stroke-linejoin:miter;stroke-opacity:1"
       d="m 29.46271,153.90265 -0.211074,-71.202365 1.448424,-59.303332 2.44921,-36.609304 15.298343,-43.038504 7.362347,-33.733091 -1.431903,-36.347954 22.933496,23.57232 1.328861,73.842863 -3.314473,86.118984 -3.74641,82.600743 7.269404,15.57529 z"
       id="path3084"
       inkscape:connector-curvature="0" />
    <path
       style="fill:#007719;fill-opacity:0.6442308;stroke:#000000;stroke-width:1.01308262px;stroke-linecap:butt;stroke-linejoin:miter;stroke-opacity:1"
       d="m 29.373131,172.56397 31.945706,1.633 17.54346,-2.55089 -0.06878,9.13521 3.716421,15.24544 -4.001686,37.10841 3.190572,17.98693 4.8444,12.03179 0.527957,27.15247 -2.434801,15.59117 5.116128,6.24626 -11.60017,4.93169 -29.8294,0.43585 -8.350776,-4.02525 -6.788117,-55.28468 -3.635825,-59.3194 1.067031,-6.16371 c 0,0 -4.186958,-19.89678 -1.242162,-20.15419 z"
       id="path3854"
       inkscape:connector-curvature="0" />
  </g>
  <path
     style="fill:#000000;fill-opacity:0.14509804;stroke:#000000;stroke-width:1.01308262px;stroke-linecap:butt;stroke-linejoin:miter;stroke-opacity:1"
     d="m 94.670942,450.11579 13.802018,10.60662 6.91288,11.05567 -0.7821,11.40523 -14.748865,9.15199 -21.641229,-0.12049 -15.393271,-3.36772 -9.042521,-3.35387 -6.165441,-6.5841 -4.9856,-15.55804 -0.469595,-8.67228 5.417947,2.11246 6.121042,-1.0492 7.492556,2.84982 5.058009,-0.81948 5.109429,-2.01621 6.481005,1.88277 7.893919,-1.96134 3.32281,-0.40799 c 0,0 0.857292,-1.09729 3.463498,-3.30212"
     id="path3856"
     inkscape:connector-curvature="0" />
  <path
     style="fill:#007819;fill-opacity:0.64313725;stroke:#000000;stroke-width:1.01308262px;stroke-linecap:butt;stroke-linejoin:miter;stroke-opacity:1"
     d="m 43.193216,453.71556 13.297349,0.89252 12.109254,-0.7853 17.172194,-1.82787 7.933896,-2.79801 1.532369,2.19688 -5.101741,3.01141 -2.405414,2.1192 -4.039626,-0.90695 -7.20643,1.86689 -5.83393,-1.80897 -6.275327,2.59431 -4.597387,1.40627 -6.003621,-3.19111 -5.009551,0.33458 -4.194852,-1.02815 c 0,0 -4.36451,-2.41032 -2.274337,-2.52665 2.090119,-0.11619 -4.728252,-1.94474 0.897165,0.45098 z"
     id="path3882"
     inkscape:connector-curvature="0" />
</svg>
