<?xml version="1.0" encoding="UTF-8" standalone="no"?>
<!-- Created with Inkscape (http://www.inkscape.org/) -->

<svg
   xmlns:dc="http://purl.org/dc/elements/1.1/"
   xmlns:cc="http://creativecommons.org/ns#"
   xmlns:rdf="http://www.w3.org/1999/02/22-rdf-syntax-ns#"
   xmlns:svg="http://www.w3.org/2000/svg"
   xmlns="http://www.w3.org/2000/svg"
   xmlns:sodipodi="http://sodipodi.sourceforge.net/DTD/sodipodi-0.dtd"
   xmlns:inkscape="http://www.inkscape.org/namespaces/inkscape"
   id="svg11335"
   version="1.1"
   inkscape:version="0.48.4 r9939"
   width="183.35141"
   height="491.97836"
   sodipodi:docname="Motif.svg">
  <metadata
     id="metadata11341">
    <rdf:RDF>
      <cc:Work
         rdf:about="">
        <dc:format>image/svg+xml</dc:format>
        <dc:type
           rdf:resource="http://purl.org/dc/dcmitype/StillImage" />
        <dc:title />
      </cc:Work>
    </rdf:RDF>
  </metadata>
  <defs
     id="defs11339" />
  <sodipodi:namedview
     pagecolor="#ffffff"
     bordercolor="#666666"
     borderopacity="1"
     objecttolerance="10"
     gridtolerance="10"
     guidetolerance="10"
     inkscape:pageopacity="0"
     inkscape:pageshadow="2"
     inkscape:window-width="1244"
     inkscape:window-height="746"
     id="namedview11337"
     showgrid="false"
     inkscape:zoom="0.6066838"
     inkscape:cx="276.92086"
     inkscape:cy="165.41873"
     inkscape:window-x="3"
     inkscape:window-y="22"
     inkscape:window-maximized="0"
     inkscape:current-layer="svg11335"
     fit-margin-top="0"
     fit-margin-left="0"
     fit-margin-right="0"
     fit-margin-bottom="0" />
  <path
     style="fill:#ece79d;fill-opacity:1;stroke:none"
     d="M 99.910472,17.494127 C 97.923722,2.9293279 105.04113,2.9311774 110.60961,0.45475032 c 11.57666,3.43255308 7.96972,10.23504668 7.9253,16.24685268 12.24162,6.198758 17.34713,15.251969 21.79456,24.568411 3.3022,-1.45297 6.86858,-1.056708 10.69914,1.188786 -5.95752,21.301214 -14.29081,41.018562 -17.43564,64.19489 10.99922,3.03802 2.1798,6.07605 0.79252,9.11408 l -0.79252,6.34023 c 12.08973,6.60093 23.29491,13.24609 4.35891,21.3983 13.28093,6.40111 32.31727,12.24265 9.11408,22.19082 -13.07005,10.50127 -20.21494,40.7531 -20.60576,93.51847 4.10056,59.49475 13.66347,95.65908 37.24888,118.8794 -2.61434,17.49937 8.91733,28.93616 16.64311,42.00405 -1.41129,11.69285 8.65337,19.2818 -10.30288,37.24888 l 11.49168,15.05805 C 161.40591,486.28082 131.87642,493.89272 84.852413,489.84163 19.845559,486.91879 14.425488,473.60126 1.6368319,467.25454 L 11.939714,454.97033 c -3.1008731,-8.55744 -6.2192751,-17.10208 -1.585059,-31.3049 7.290237,-8.42193 14.085851,-17.46212 23.379616,-23.37963 0.359353,-7.00068 1.029495,-14.00134 0.396263,-21.00202 23.956817,-20.91238 35.687484,-65.66415 41.607792,-110.16157 -1.805316,-35.57088 20.411526,-77.76202 -8.717823,-105.80268 -25.000731,-10.80899 0.776125,-13.29379 4.358911,-19.41696 -1.994854,-7.02281 -7.678631,-14.6585 6.340235,-19.02072 l 3.566383,-9.11408 c -5.019352,-4.35891 -5.019353,-8.18947 0,-11.49167 C 80.793847,84.594955 74.7522,64.913808 68.011165,45.232661 71.652313,39.00582 75.962956,41.482397 80.097237,41.666276 82.086102,32.176481 83.070791,22.375054 99.910472,17.494127 z"
     id="path11347"
     inkscape:connector-curvature="0"
     sodipodi:nodetypes="cccccccccccccccccccccccccccccc" />
  <path
     style="fill:#000000"
     d="M 59.157799,489.92092 C 40.438354,486.22109 33.050469,484.18951 20.544728,479.30278 8.0824649,474.43304 0,469.71873 0,467.3195 c 0,-0.66843 2.1461359,-3.83439 4.7691929,-7.03548 l 4.769179,-5.82016 -2.20547,-5.27845 c -6.012717,-14.39047 3.2188641,-34.447 21.6958431,-47.13642 4.339653,-2.98033 5.823222,-9.93356 3.573757,-16.74949 l -1.665666,-5.04704 8.098322,-7.62113 c 6.620057,-6.22999 8.997847,-9.74691 13.026085,-19.2666 18.713638,-44.22464 33.023624,-143.70045 24.771002,-172.19555 -2.663094,-9.19527 -11.158194,-18.50817 -18.160383,-19.9086 -3.613916,-0.72279 -4.273886,-1.46433 -4.273886,-4.80212 0,-4.40094 0.768439,-5.19398 9.519646,-9.82448 3.365874,-1.78096 6.345619,-3.37489 6.621661,-3.54207 0.276043,-0.16716 -0.488929,-1.29475 -1.699937,-2.50576 -2.621751,-2.62175 -2.876728,-8.72441 -0.500311,-11.97435 0.935835,-1.27984 3.519726,-2.81323 5.741978,-3.40755 5.299614,-1.41733 7.153497,-8.28624 3.159421,-11.70607 -2.552557,-2.18556 -2.546356,-2.31061 0.346515,-6.99137 2.78349,-4.5038 2.858886,-5.37997 1.370339,-15.925997 -2.123601,-15.045229 -4.814384,-25.431053 -8.906675,-34.377698 -3.863304,-8.446047 -3.932036,-8.741129 -2.035994,-8.741129 3.766271,0 10.995952,23.321446 13.761137,44.390557 l 1.631586,12.431747 5.032384,1.50773 c 5.311196,1.59128 36.801604,1.85896 41.435444,0.35222 1.837,-0.59732 2.79279,-2.20872 2.94447,-4.96425 0.37667,-6.843391 7.18873,-33.387958 11.34249,-44.198358 4.99057,-12.988211 5.14712,-13.796211 2.83568,-14.635028 -1.37001,-0.49717 -1.65421,-0.01224 -0.9965,1.702317 0.97111,2.530675 -1.16992,6.132964 -3.64512,6.132964 -0.95476,0 -0.89673,-0.568691 0.16651,-1.63194 0.89756,-0.897566 1.63194,-2.427509 1.63194,-3.399873 0,-2.488884 -4.81227,-2.201187 -7.45942,0.445968 -2.04522,2.045214 -2.41928,1.993414 -4.90993,-0.679975 -3.36316,-3.609931 -8.56587,-3.717857 -12.03408,-0.249632 -2.36141,2.361402 -4.36737,2.643905 -11.29525,1.590665 -0.56098,-0.08527 -1.01996,-0.832507 -1.01996,-1.660498 0,-0.828006 0.94975,-1.140998 2.11056,-0.69556 1.21025,0.464423 1.75613,0.236427 1.27969,-0.534474 -1.39142,-2.251369 -7.3621,-1.501574 -9.68967,1.216815 -2.052748,2.397441 -2.436548,2.421363 -6.003418,0.374272 -3.53501,-2.028814 -4.316693,-2.004879 -10.812859,0.331106 -5.618209,2.020287 -7.318717,2.178544 -8.602713,0.800671 -1.265161,-1.357679 -0.959472,-1.562868 1.459538,-0.979694 1.682938,0.405713 3.059886,0.194649 3.059886,-0.469047 0,-2.585073 -6.882323,-2.965315 -9.574438,-0.528979 -2.133856,1.931114 -2.665106,2.017457 -2.665106,0.433171 0,-4.954242 7.893187,-7.04617 12.866087,-3.40991 2.103637,1.538225 3.104329,1.534376 6.228092,-0.02394 2.798205,-1.39592 4.658013,-1.500691 7.494693,-0.422197 2.60541,0.990574 4.2094,0.997999 5.18341,0.02394 2.035878,-2.035871 10.783998,-1.733853 13.807088,0.476676 2.21283,1.618068 3.02419,1.596676 5.68985,-0.149934 3.06405,-2.007639 9.41202,-1.901033 14.34834,0.240969 1.90328,0.825884 2.37991,0.359394 2.37991,-2.329267 0,-5.667194 -9.38298,-15.949881 -17.24975,-18.903799 -4.20522,-1.57901 -4.27406,-1.734602 -2.38452,-5.388582 4.09547,-7.9197737 -3.627,-14.96772538 -11.55032,-10.5414573 -4.57482,2.5556716 -5.415188,8.5477573 -1.53834,10.9688753 3.28571,2.051973 3.77736,4.481292 0.66523,3.287052 -1.17634,-0.451394 -5.149648,0.4745 -8.829558,2.057549 -6.859954,2.951077 -10.968102,7.852743 -12.681951,15.131573 -0.484319,2.056923 -1.480904,3.73986 -2.214624,3.73986 -1.865578,0 -1.668372,-2.007095 0.770792,-7.844827 2.749709,-6.580985 6.363231,-10.307179 12.818353,-13.218028 4.85071,-2.18737 5.19879,-2.711127 4.53209,-6.819534 -1.18833,-7.3228108 6.863608,-13.095864 15.309008,-10.97620598 4.2466,1.06583308 7.64423,8.10487628 5.9998,12.43005998 -0.94288,2.479935 -0.30642,3.381337 4.15975,5.891464 6.55906,3.686401 14.35246,12.629863 15.34938,17.614486 0.67093,3.354668 1.24157,3.699361 5.33336,3.221679 3.09222,-0.360999 5.18195,0.187931 6.42714,1.688296 1.58216,1.90639 1.23969,3.715993 -2.40299,12.697453 -2.33646,5.760827 -5.78266,17.205971 -7.65822,25.433665 -1.87555,8.227693 -3.97666,17.254353 -4.66912,20.059253 -0.96397,3.90467 -0.84862,5.09981 0.49218,5.09981 4.02315,0 4.57476,8.7964 0.68226,10.8796 -4.07051,2.17847 -3.37507,6.19839 1.41561,8.18274 11.28728,4.67536 13.82226,11.03278 6.64042,16.65341 l -4.18351,3.27409 6.20881,2.37117 c 6.50803,2.48545 11.67786,7.66751 11.67786,11.70548 0,1.37752 -1.97452,3.31851 -4.68358,4.60404 -5.39033,2.55788 -11.24742,9.21525 -16.08868,18.28691 -3.61815,6.77977 -8.43843,33.6494 -9.63878,53.72913 -1.8717,31.31079 8.01704,96.45721 17.926,118.09537 2.15813,4.7127 6.7681,11.59378 10.24437,15.29132 6.10395,6.49244 7.52512,8.91663 5.22735,8.91663 -1.34922,0 -8.15023,-7.18952 -12.94022,-13.67943 -10.28315,-13.9325 -19.55901,-55.02246 -22.79955,-100.99672 -1.55786,-22.10175 -0.47308,-38.75396 4.17132,-64.03292 2.7654,-15.05178 3.50789,-17.06543 9.57332,-25.96331 l 3.70816,-5.4398 -30.41749,-0.18393 c -16.729618,-0.10118 -33.329306,-0.61698 -36.888199,-1.14626 l -6.470707,-0.96232 2.900813,3.18618 c 1.595438,1.7524 3.873584,5.11229 5.062547,7.46642 2.31662,4.58692 4.835273,24.85075 4.200898,33.79834 -0.212112,2.99189 -0.771241,11.86556 -1.242504,19.71927 -1.88111,31.34972 -7.724554,65.77036 -16.419268,96.71736 -7.240697,25.7717 -13.825477,40.74509 -21.259368,48.34257 l -5.54314,5.6651 5.717812,2.91701 c 3.144801,1.60436 10.412303,3.773 16.150011,4.81921 5.737708,1.04622 12.880108,2.6193 15.871997,3.49576 3.152117,0.92339 15.448399,1.64706 29.238908,1.7208 l 23.79912,0.12729 14.27947,-5.0628 c 7.85371,-2.78456 15.93763,-6.28793 17.96426,-7.78529 2.02664,-1.49738 3.93884,-2.72249 4.24933,-2.72249 0.31049,0 0.53643,3.82486 0.50209,8.49969 -0.069,9.38893 1.19283,12.50669 10.65522,26.32794 7.01165,10.24157 8.34522,15.85751 6.33384,26.6732 -1.47004,7.90463 -6.12335,17.3762 -8.53682,17.3762 -2.4079,0 -1.20693,2.99351 3.51079,8.75086 2.6179,3.1948 4.75982,6.56558 4.75982,7.49061 0,4.17092 -16.2529,13.17138 -29.23891,16.1918 -18.62407,4.33178 -75.938571,5.57831 -93.836511,2.04083 z m 85.676811,-3.97511 c 8.24382,-1.3767 15.92343,-3.79256 23.52389,-7.40021 12.49156,-5.92927 12.41714,-5.69681 4.73185,-14.77985 l -3.89263,-4.60059 -4.4715,2.3123 c -7.20048,3.72353 -19.6192,7.29164 -30.78214,8.84427 -13.42082,1.86665 -47.790647,1.85678 -61.428369,-0.0177 -13.324852,-1.83143 -46.964139,-9.99271 -53.997851,-13.1005 l -5.281269,-2.33347 -4.5581421,5.38817 c -2.506971,2.96349 -4.56724,5.80549 -4.578365,6.31554 -0.04678,2.14305 8.3658921,6.4883 21.7389551,11.22848 14.538688,5.15333 28.486805,8.31269 45.558304,10.31932 13.529974,1.59035 58.941797,0.24488 73.437267,-2.1758 z M 12.727318,468.35584 c -0.432764,-1.12774 0.304587,-3.71613 1.638548,-5.752 1.491198,-2.27588 2.645918,-3.03992 2.997995,-1.98371 0.314937,0.94484 -0.172142,2.61527 -1.082411,3.71208 -1.301811,1.56859 -1.29372,2.42958 0.03794,4.03413 1.388807,1.67342 1.288892,2.03992 -0.556138,2.03992 -1.237024,0 -2.603202,-0.92268 -3.035951,-2.05042 z M 131.3569,467.70906 c 11.13984,-1.44805 35.91688,-9.0362 35.91688,-10.9998 0,-0.73137 1.45404,-1.88259 3.23122,-2.55827 4.97123,-1.89006 9.47806,-12.51772 9.59256,-22.62043 0.0919,-8.10665 -0.21844,-8.90907 -7.65863,-19.80533 -8.88821,-13.01686 -10.60495,-16.94274 -10.60495,-24.25143 l 0,-5.23828 -5.09981,2.52577 c -9.82258,4.86478 -19.94461,8.1909 -29.38315,9.65535 -24.06986,3.73456 -66.136679,-1.16329 -86.552538,-10.07733 l -4.759823,-2.07825 -0.02829,8.8543 c -0.02679,8.39849 -0.262049,9.0396 -4.569484,12.45378 -11.955587,9.47629 -17.280157,15.91839 -19.813212,23.97164 -2.4349351,7.74128 -2.9671651,14.89706 -1.460966,19.64266 0.394004,1.24143 3.928472,3.86004 7.854374,5.81914 8.665801,4.32442 42.734628,13.07669 56.776133,14.58576 14.353463,1.54262 45.115966,1.60827 56.559676,0.12076 z M 16.172137,440.53213 c -1.372569,-4.58121 -1.242055,-6.37623 0.865173,-11.89956 2.463535,-6.45725 8.608711,-13.98423 11.41702,-13.98423 2.478562,0 1.619333,2.48748 -1.164416,3.37101 -2.917295,0.92591 -8.107882,10.57361 -8.470445,15.74393 -0.128243,1.82833 0.223413,5.31315 0.781386,7.74406 1.478646,6.442 -1.456601,5.60715 -3.428718,-0.97521 z m 20.65109,-32.68354 c 0.0095,-1.12196 0.85874,-3.87586 1.886223,-6.11977 1.8626,-4.06779 1.868448,-4.06957 1.978577,-0.59992 0.06079,1.91397 -0.78805,4.66787 -1.886223,6.11978 -1.502635,1.98666 -1.99219,2.1351 -1.978577,0.59991 z M 149.25445,161.43025 c 7.81663,-1.67161 9.20832,-4.23865 4.57243,-8.43407 -3.81739,-3.45469 -15.75625,-7.61782 -21.84612,-7.61782 -2.93972,0 -5.72317,-0.61198 -6.18544,-1.35995 -0.50812,-0.82215 1.36389,-1.35995 4.73374,-1.35995 7.87038,0 16.64521,-4.67397 16.09076,-8.57083 -0.55001,-3.86554 -10.74571,-9.10853 -17.71279,-9.10853 -5.43913,0 -7.33068,-2.60521 -2.09175,-2.88094 1.68294,-0.0885 3.51887,-0.0885 4.07985,0 0.56098,0.0885 1.01792,-0.90992 1.01543,-2.21887 -0.004,-2.17982 -2.11936,-2.38181 -25.15905,-2.40255 -23.690479,-0.0213 -25.154546,0.12566 -25.154546,2.52541 0,1.80344 0.652109,2.29781 2.231514,1.69174 2.789827,-1.07056 7.288132,0.27219 7.288132,2.17552 0,0.7848 -1.245129,1.10131 -2.76694,0.70334 -1.521824,-0.39796 -6.122138,0.2309 -10.222943,1.39748 -5.798553,1.64954 -7.634566,2.83255 -8.259313,5.32174 -1.802518,7.18181 2.762669,9.41544 22.969358,11.23828 17.600538,1.58776 16.369308,3.33049 -1.751237,2.47878 -15.518016,-0.72938 -15.756211,-0.69452 -24.479089,3.58177 -11.241424,5.51098 -11.780045,8.55508 -2.00885,11.35351 13.639327,3.90627 68.810924,4.87466 84.656854,1.48594 z m -82.61693,-7.56506 c 0,-1.31602 1.223955,-3.15715 2.719899,-4.09138 2.9778,-1.85967 3.687993,-0.46773 1.08796,2.1323 -1.269282,1.26928 -1.269282,1.63194 0,1.63194 0.897566,0 1.631939,0.61198 1.631939,1.35995 0,0.74797 -1.223954,1.35995 -2.719899,1.35995 -1.689315,0 -2.719899,-0.90664 -2.719899,-2.39276 z m 7.316528,-18.62133 c -0.790661,-2.06043 0.322825,-4.82496 1.943395,-4.82496 0.516835,0 0.939698,1.52994 0.939698,3.39989 0,3.72291 -1.682244,4.55441 -2.883093,1.42507 z M 134.295,113.29367 c 1.7281,-0.49209 3.05989,-1.9448 3.05989,-3.33768 0,-2.14973 -0.5674,-2.295 -4.41984,-1.13154 -5.89389,1.78003 -39.193788,1.64059 -46.00174,-0.19259 -5.271681,-1.41952 -8.056245,-0.96238 -8.056245,1.32256 0,3.48867 14.912907,5.45553 36.038655,4.75316 8.97567,-0.29841 17.69635,-0.93468 19.37928,-1.41391 z m -82.588786,264.6822 c -1.688322,-1.0676 -0.977681,-3.3276 4.419836,-14.05604 3.537392,-7.03114 6.431622,-13.75692 6.431622,-14.94617 0,-1.18925 0.611977,-2.54049 1.35995,-3.00277 3.103744,-1.91822 0.994354,6.31623 -4.373094,17.07131 -3.153179,6.31819 -5.958075,11.94661 -6.233097,12.50759 -0.275036,0.56098 0.468897,1.01996 1.653195,1.01996 1.184285,0 2.153249,0.61198 2.153249,1.35995 0,1.70096 -2.757543,1.72447 -5.411661,0.0462 z M 84.316863,184.06938 c 0,-2.65504 -0.942976,-6.65087 -2.095506,-8.87961 -2.432092,-4.70316 -1.673349,-6.70906 2.515757,-6.65092 2.677754,0.0371 2.738517,0.18179 0.599724,1.42751 -2.171526,1.26481 -2.201295,1.73155 -0.339987,5.33091 2.298913,4.44559 2.75659,13.59947 0.679961,13.59947 -0.747972,0 -1.359949,-2.17232 -1.359949,-4.82736 z m 2.266586,-81.75609 c -0.498652,-0.49866 -0.823299,-2.79357 -0.721439,-5.09981 0.152641,-3.455961 0.292457,-3.627532 0.795203,-0.97585 0.335486,1.76953 1.77521,3.52205 3.199376,3.89448 1.424153,0.37242 2.254153,1.21953 1.844443,1.88246 -0.87726,1.41945 -3.824815,1.59149 -5.117583,0.29872 z M 92.136572,47.791923 C 90.82762,47.500771 89.75666,46.69545 89.75666,46.002325 c 0,-1.593086 1.474648,-1.576073 4.040462,0.04665 2.44296,1.544971 1.56976,2.461522 -1.66055,1.743006 z m 34.338718,-1.689887 c -1.07863,-0.666633 -1.50969,-1.663517 -0.9579,-2.215303 0.55178,-0.551772 1.71721,-0.289261 2.58984,0.583364 2.05477,2.054775 0.90789,3.201647 -1.63194,1.631939 z M 87.067007,34.746459 c -0.03699,-3.071323 8.381745,-11.763562 11.393325,-11.763562 3.541868,0 2.486628,2.261228 -1.90392,4.079848 -2.24392,0.929471 -4.09345,2.074671 -4.11008,2.5449 -0.0166,0.470244 -1.226992,2.384916 -2.689672,4.254847 -2.277589,2.911733 -2.66376,3.038657 -2.689653,0.883967 z M 107.77599,13.922533 c -1.91497,-0.77271 -2.36051,-7.2590157 -0.4986,-7.2590157 0.66073,0 1.57909,1.070961 2.04079,2.379898 0.46171,1.3089517 1.19607,3.1448827 1.6319,4.0798477 0.81465,1.747603 -0.19427,2.001656 -3.17409,0.79927 z"
     id="path11345"
     inkscape:connector-curvature="0" />
</svg>
