<?xml version="1.0" encoding="UTF-8" standalone="no"?>
<!-- Created with Inkscape (http://www.inkscape.org/) -->

<svg
   xmlns:dc="http://purl.org/dc/elements/1.1/"
   xmlns:cc="http://creativecommons.org/ns#"
   xmlns:rdf="http://www.w3.org/1999/02/22-rdf-syntax-ns#"
   xmlns:svg="http://www.w3.org/2000/svg"
   xmlns="http://www.w3.org/2000/svg"
   xmlns:sodipodi="http://sodipodi.sourceforge.net/DTD/sodipodi-0.dtd"
   xmlns:inkscape="http://www.inkscape.org/namespaces/inkscape"
   id="svg10120"
   version="1.1"
   inkscape:version="0.48.4 r9939"
   width="397.09766"
   height="493.52383"
   sodipodi:docname="NeedleandThread.svg">
  <metadata
     id="metadata10126">
    <rdf:RDF>
      <cc:Work
         rdf:about="">
        <dc:format>image/svg+xml</dc:format>
        <dc:type
           rdf:resource="http://purl.org/dc/dcmitype/StillImage" />
        <dc:title />
      </cc:Work>
    </rdf:RDF>
  </metadata>
  <defs
     id="defs10124" />
  <sodipodi:namedview
     pagecolor="#ffffff"
     bordercolor="#666666"
     borderopacity="1"
     objecttolerance="10"
     gridtolerance="10"
     guidetolerance="10"
     inkscape:pageopacity="0"
     inkscape:pageshadow="2"
     inkscape:window-width="1259"
     inkscape:window-height="737"
     id="namedview10122"
     showgrid="false"
     inkscape:zoom="0.71929829"
     inkscape:cx="88.233131"
     inkscape:cy="174.69886"
     inkscape:window-x="0"
     inkscape:window-y="22"
     inkscape:window-maximized="0"
     inkscape:current-layer="svg10120"
     fit-margin-top="0"
     fit-margin-left="0"
     fit-margin-right="0"
     fit-margin-bottom="0" />
  <path
     style="fill:#005a15;fill-opacity:1;stroke:#000000;stroke-width:2.30527234px;stroke-linecap:butt;stroke-linejoin:miter;stroke-opacity:1"
     d="m 21.842626,82.357385 192.060444,-2.266198 3.68258,16.713224 -58.07138,88.381819 9.06481,1.13308 47.59019,-64.30343 -1.41636,69.68567 -3.68258,166.28241 -189.51098,3.96585 z"
     id="path10651"
     inkscape:connector-curvature="0" />
  <path
     style="fill:#a2a2a2;fill-opacity:1;stroke:none"
     d="M 276.54836,3.5947339 C 260.08763,3.2726413 258.07896,33.661734 248.16469,47.25083 c -21.0825,46.688866 -58.4251,90.63496 -87.81647,135.93903 l 9.65333,2.88159 c 29.55532,-42.30239 52.45862,-84.63167 90.0497,-126.934059 14.38822,-20.080444 33.7065,-41.525817 22.11621,-54.3900209 -2.03661,-0.7425974 -3.91626,-1.119325 -5.6191,-1.1526362 z m -0.86448,12.7510381 -2.59343,15.056311 -10.15761,-7.131937 12.75104,-7.924374 z"
     id="path10646"
     inkscape:connector-curvature="0" />
  <path
     style="fill:#b48141;fill-opacity:1;stroke:none"
     d="M 6.792833,60.977067 C -0.513705,63.387783 8.357661,75.9097 9.196501,83.411287 78.434631,91.498136 149.67137,81.59736 219.91808,80.607015 228.04965,73.396008 227.36692,66.185 222.72235,58.973993 146.14402,54.119504 78.601941,60.108487 6.792833,60.977067 z"
     id="path10642"
     inkscape:connector-curvature="0"
     sodipodi:nodetypes="ccccc" />
  <path
     style="fill:#b48141;fill-opacity:1;stroke:none"
     d="m 1.985499,365.04106 c 71.575892,-2.49218 143.151781,-7.44656 214.727671,-4.0061 6.52586,3.60289 10.7327,8.4707 5.60857,18.42812 -3.27805,3.96221 -13.3795,3.83039 -21.63302,4.80732 -64.09782,-5.59812 -111.048129,8.72894 -192.293441,-0.40059 z"
     id="path10132"
     inkscape:connector-curvature="0"
     sodipodi:nodetypes="cccccc" />
  <path
     style="fill:#a2a2a2;fill-opacity:1;stroke:none"
     d="m 82.746751,290.28124 58.354649,-84.41594 12.4641,1.13309 -61.753949,86.11559 z"
     id="path10644"
     inkscape:connector-curvature="0" />
  <path
     style="fill:#000000"
     d="m 298.25976,487.28316 c -2.65959,-3.05827 -0.25388,-7.4701 5.43201,-9.96178 5.51437,-2.4165 5.78261,-3.02447 2.653,-6.01295 -3.5176,-3.35899 -30.60314,-8.77449 -43.39447,-8.67633 -51.91188,0.39835 -58.27231,-0.15607 -62.90575,-5.48413 -5.91367,-6.80009 -5.43919,-10.32285 2.49428,-18.51897 8.74971,-9.03939 30.19889,-17.77713 48.60739,-19.80118 29.46089,-3.23933 33.1817,-4.52329 45.2489,-15.61437 16.18303,-14.87401 24.80554,-30.30571 25.9279,-46.40332 0.77764,-11.15323 -0.61158,-16.39638 -10.32635,-38.97332 -20.3218,-47.22759 -26.58498,-84.91356 -23.29383,-140.16045 1.95404,-32.80105 1.3593,-75.94074 -1.37125,-99.462956 -2.09367,-18.036082 -6.89154,-33.988106 -10.29391,-34.225318 -3.25452,-0.226839 -7.65353,6.247703 -6.16663,9.076295 3.00534,5.71726 2.81054,56.655199 -0.29056,75.975649 -6.04698,37.67398 -20.70183,69.22161 -41.39416,89.10963 l -11.90353,11.44086 -0.28504,25.83867 c -0.15676,14.21129 -0.65009,40.71918 -1.09628,58.90646 0.80614,25.44735 -2.94975,41.71686 0.49462,42.9706 3.31771,1.20444 7.6119,4.20053 9.5427,6.65797 4.04075,5.14295 2.83265,14.33214 -2.04736,15.57267 -2.28323,0.58045 -2.78142,-0.30346 -1.60002,-2.83919 0.94357,-2.02514 0.9959,-6.06299 0.11642,-8.97295 -1.59078,-5.26276 -1.78924,-5.296 -37.27443,-6.24602 -19.62135,-0.52531 -52.7957,-0.0553 -73.7208,1.04454 -20.925109,1.09982 -50.168674,2.27397 -64.985711,2.60924 -40.283885,0.9116 -42.008715,1.27609 -40.703671,8.60187 0.596158,3.34652 2.241721,6.9397 3.656803,7.98487 3.526548,2.60468 22.94753,3.81764 43.367234,2.70856 9.341932,-0.50742 27.932436,-1.32763 41.312216,-1.82274 13.379789,-0.49512 36.333559,-1.58757 51.008379,-2.42763 29.97341,-1.71591 64.70227,0.0297 64.47838,3.24079 -0.22015,3.15823 -11.77925,4.27057 -22.11049,2.12766 -8.5178,-1.76674 -35.12353,-1.13729 -101.837329,2.40933 -15.30848,0.8138 -38.739156,1.28897 -52.068174,1.05588 C 5.68684,388.5242 2.029594,386.7568 0.787797,373.18822 L 0,364.58019 l 10.965464,-1.96213 10.965466,-1.96215 1.240845,-25.60003 c 0.682469,-14.08003 0.846678,-39.14613 0.364908,-55.70244 -0.481767,-16.5563 -0.765597,-47.25287 -0.630734,-68.2146 C 23.172711,169.67679 22.363217,134.50841 20.496495,106.46041 19.314536,88.701172 19.229628,88.50527 11.884647,86.590188 4.02933,84.542023 -0.210856,77.494943 0.476899,67.630798 1.05045,59.404641 5.138192,58.01961 28.878274,58.007715 c 12.07471,-0.0069 34.471819,-0.571869 49.771347,-1.257411 15.29953,-0.685542 37.206089,-1.673005 48.681249,-2.194365 11.47515,-0.521384 37.5056,-0.483647 57.84544,0.08391 33.53323,0.935594 37.3343,1.437475 40.765,5.382419 5.27387,6.064434 2.97115,20.108798 -3.75056,22.874779 -3.5196,1.448288 -4.62781,3.35484 -3.76916,6.484524 1.05745,3.854393 1.88442,3.455004 6.33502,-3.05965 2.81536,-4.120997 7.82668,-12.503382 11.13627,-18.627522 3.30956,-6.124141 7.10344,-12.86478 8.43077,-14.979199 1.32733,-2.114419 2.5239,-5.430162 2.65904,-7.368319 0.49554,-7.107132 14.22978,-35.8584205 19.42916,-40.6730741 14.77854,-13.685019 28.76274,5.2511336 17.51811,23.7215071 -3.68558,6.053922 -3.65974,7.265665 0.35549,16.663822 8.3426,19.52681 10.64773,55.837664 8.60757,135.586944 -1.68032,65.68362 3.27616,94.93294 23.12174,136.44622 16.93451,35.42394 14.23093,55.39267 -11.36027,83.90721 -12.77335,14.23245 -23.90811,19.47305 -43.85176,20.63887 -29.92871,1.7495 -60.78803,15.58669 -59.96521,26.88812 0.64543,8.86493 10.16828,12.04035 31.30747,10.43959 10.29627,-0.77969 30.40488,-0.15238 44.68581,1.39418 23.71872,2.56847 26.5321,3.36028 32.51504,9.1515 6.84046,6.62129 33.40176,14.79413 62.59326,19.25979 15.61555,2.38883 18.62444,1.34637 21.49482,-7.44723 2.47667,-7.58735 -1.21997,-8.49973 -6.75267,-1.66662 l -3.93628,4.86145 0.36152,-5.18518 c 0.34812,-4.99281 8.8312,-9.85234 12.63678,-7.23897 2.79259,1.91771 0.97825,13.53992 -2.81296,18.01916 -2.91252,3.44108 -6.0938,3.98826 -16.95714,2.91661 -11.62049,-1.1463 -47.15428,-9.18536 -57.90388,-13.09997 -2.2644,-0.82462 -4.21353,0.29287 -5.10148,2.92477 -1.34602,3.9896 -12.23756,7.26834 -14.70796,4.42762 z m 13.19722,-7.76997 c 0.044,-0.63243 -2.06679,-0.1865 -4.69083,0.99099 -2.62407,1.17744 -4.8071,2.65826 -4.85117,3.29069 -0.044,0.6324 2.06677,0.18626 4.69081,-0.991 2.62407,-1.17746 4.80709,-2.65827 4.85119,-3.29068 z M 64.471555,359.52948 c 15.267836,-0.2309 39.151585,-1.17209 53.075005,-2.09148 13.92342,-0.91941 37.87199,-1.36507 53.21903,-0.99035 35.65214,0.8705 38.31588,0.49126 38.73464,-5.51458 0.28394,-4.07242 -0.66401,-4.67175 -6.08659,-3.84819 -19.31602,2.9336 -48.35902,5.14857 -65.63104,5.00539 -38.344669,-0.31787 -101.40173,2.87786 -106.67691,5.4064 -4.842877,2.32129 -1.03713,2.55318 33.365865,2.03281 z m -22.530089,-8.29857 c 10.567108,-1.6215 66.221794,-3.78698 96.845134,-3.76819 25.03046,0.0161 66.67209,-4.76459 70.22048,-8.06043 2.98512,-2.77267 -5.06966,-2.65077 -39.18446,0.59307 -19.70598,1.87373 -64.00354,4.3874 -95.121959,5.39768 -34.37141,1.11589 -45.222186,2.29831 -45.406931,4.94802 -0.185067,2.65422 0.729849,2.71858 12.64781,0.88877 z m 43.521305,-11.04714 c 22.315109,-1.04687 49.040279,-2.30006 59.389289,-2.7849 18.34862,-0.85966 53.75592,-4.43099 61.98369,-6.252 2.25907,-0.49999 4.21076,-2.3916 4.33711,-4.20361 0.12633,-1.81199 -0.0297,-3.30141 -0.34696,-3.30978 -0.31716,-0.009 -5.73773,1.16573 -12.04572,2.60909 -16.3601,3.74335 -47.15677,6.49948 -79.33281,7.0998 -58.921699,1.09936 -91.529265,3.58493 -91.767033,6.99512 -0.171213,2.45551 1.893262,3.06255 8.491664,2.49693 4.794824,-0.41098 26.975671,-1.60378 49.29077,-2.65065 z m -21.300353,-9.36418 c 12.773323,-0.91138 36.756012,-1.84654 53.294872,-2.07811 34.15389,-0.47827 66.55509,-3.40606 79.61662,-7.19424 10.31229,-2.99082 8.01716,-3.92328 -3.90126,-1.58499 -15.08782,2.9601 -56.63546,5.24765 -92.79097,5.10892 -42.140995,-0.1616 -71.756882,1.72038 -71.955756,4.57269 -0.196432,2.81718 8.650821,3.10827 35.736494,1.17573 z m 12.235343,-9.76727 c 81.900999,-0.82753 123.654049,-4.15005 132.760429,-10.56442 4.29795,-3.02747 4.22801,-3.14183 -1.31043,-2.14183 -15.0481,2.71697 -71.41392,6.09659 -121.657699,7.29441 -41.408748,0.98721 -55.703016,2.09971 -56.656142,4.4095 -1.001141,2.42617 0.665092,2.89782 7.763316,2.19764 4.970928,-0.49033 22.566166,-1.02822 39.100526,-1.1953 z m -23.018808,-9.57504 c 8.595803,-0.23952 15.70148,-1.47891 15.790399,-2.75425 0.09592,-1.37576 -3.382104,-2.03853 -8.552136,-1.62962 -4.792593,0.37901 -13.675593,1.00904 -19.739999,1.40004 -6.064407,0.39099 -11.095016,1.69799 -11.179133,2.90443 -0.08412,1.20647 1.693204,1.81584 3.949602,1.35419 2.256399,-0.46163 11.135469,-1.0353 19.731267,-1.27479 z m 56.093407,-0.78654 c 27.68237,-0.18373 84.75765,-4.27169 93.47928,-6.69532 9.31634,-2.58886 10.43712,-6.49782 1.52669,-5.32462 -15.23815,2.00637 -21.99942,2.33607 -50.43286,2.45915 -55.964879,0.2423 -73.961809,2.0593 -76.605919,7.73423 -1.17612,2.5243 0.13124,3.08639 6.01736,2.58714 4.13597,-0.35079 15.84292,-0.69306 26.015449,-0.76058 z m -57.884318,-7.50193 c 17.197581,-1.22786 29.619369,-5.07024 22.731029,-7.03131 -5.36547,-1.52755 -41.794912,5.00714 -45.040332,8.07928 -2.070324,1.95976 -1.651693,2.28322 1.73708,1.34204 2.455625,-0.68199 11.713126,-1.75751 20.572223,-2.39001 z m 7.118278,-10.11796 c 17.970681,-2.215 29.698121,-5.72835 21.118001,-6.32656 -5.35353,-0.37327 -49.288814,7.67883 -51.039565,9.35412 -0.875877,0.83811 1.040316,1.04925 4.258198,0.46929 3.21789,-0.58008 14.766401,-2.15361 25.663359,-3.49673 z m 83.14704,3.87544 c 23.40749,-0.2681 48.20724,-1.15863 55.11057,-1.97896 6.9033,-0.82033 12.92764,-1.46528 13.3874,-1.43323 0.45979,0.032 0.90054,-0.86759 0.97942,-1.99923 0.0834,-1.19549 -3.52727,-1.4821 -8.61805,-0.68404 -4.81885,0.75539 -26.43364,1.28673 -48.03286,1.18078 -51.81968,-0.25425 -57.527189,0.0982 -62.929989,3.88446 -4.3458,3.04561 -4.27005,3.1664 1.4823,2.36366 3.33417,-0.46527 25.213709,-1.06531 48.621209,-1.33342 z M 63.571959,284.24076 c 12.024672,-2.22085 22.186012,-4.01537 22.580752,-3.98784 1.51624,0.10581 11.6701,-15.99936 10.75248,-17.0545 -0.53241,-0.61224 -11.82059,0.3501 -25.08485,2.13848 -40.658672,5.48192 -43.972609,6.3123 -44.306551,11.10187 -0.16591,2.3795 0.227438,4.36326 0.874088,4.40835 0.646652,0.0452 13.377618,-2.70689 28.291036,-6.11552 14.913417,-3.40862 28.090057,-6.12951 29.281427,-6.04645 4.92304,0.34326 1.36965,4.73713 -4.57246,5.65398 -18.17154,2.80381 -52.230303,11.66726 -52.36701,13.62799 -0.17278,2.47817 2.542229,2.18535 34.551088,-3.72636 z M 110.14786,264.5944 c 10.71067,-13.93802 33.01632,-44.96095 39.15968,-54.4637 0.58967,-0.9121 -0.39705,-1.76083 -2.19272,-1.88603 -1.79567,-0.12518 -7.00769,5.75154 -11.58227,13.05943 -4.57458,7.30786 -11.9657,17.45142 -16.42471,22.54123 -10.74163,12.26119 -37.181699,53.42504 -28.767639,44.78757 3.47809,-3.57043 12.391529,-14.38776 19.807659,-24.0385 z m 34.41898,23.33646 c 1.92618,-0.2827 -5.8083,-1.21069 -17.18773,-2.06219 -11.37943,-0.85163 -22.70796,-0.91441 -25.17449,-0.1397 -4.182149,1.31341 34.65999,3.33241 42.36222,2.20198 z m 31.82105,-0.6686 c -2.17311,-0.73273 -5.79513,-0.98528 -8.0489,-0.5612 -2.25377,0.42413 -0.47576,1.02368 3.95112,1.33233 4.42691,0.30866 6.27092,-0.0383 4.09778,-0.77113 z m 33.38563,-2.0498 c 1.14074,-0.59965 2.17299,-2.50922 2.29393,-4.24355 0.23751,-3.40655 -3.91403,-2.84051 -22.16395,3.02187 l -9.45524,3.03728 13.62559,-0.36266 c 7.49407,-0.19941 14.55893,-0.85332 15.69967,-1.45294 z m -17.24796,-6.587 c 7.74256,-2.16972 15.21976,-5.00882 16.61597,-6.30907 1.56258,-1.45515 0.37785,-1.43438 -3.08146,0.0539 -3.09105,1.32993 -19.8001,2.34538 -37.13123,2.25658 -45.43359,-0.23283 -60.31414,0.49278 -62.13773,3.03003 -1.07967,1.50221 10.45844,2.68055 35.02349,3.57681 29.35725,1.07112 39.4297,0.55304 50.71096,-2.60837 z M 70.687021,261.57302 c 20.43057,-2.78687 32.573779,-5.5109 33.508369,-7.51678 0.80618,-1.73027 1.15579,-3.5024 0.77691,-3.93805 -1.49258,-1.71635 -34.148579,1.95602 -54.676536,6.14869 -14.867886,3.03666 -21.758929,5.49883 -21.921646,7.8326 -0.162776,2.33455 1.412977,3.1588 5.016501,2.62402 2.889599,-0.4288 19.672982,-2.74655 37.296402,-5.15048 z m 99.486809,8.61097 c 31.84987,0.22108 40.45146,-1.67478 40.96418,-9.0285 0.17335,-2.48516 0.0556,-4.5253 -0.2616,-4.53367 -0.31719,-0.009 -5.38279,1.08532 -11.25695,2.4304 -5.87413,1.34508 -26.24244,2.64192 -45.26286,2.88185 -19.02043,0.23993 -35.94825,1.37977 -37.61737,2.53296 -6.53778,4.51688 -3.13969,6.57609 9.97735,6.04618 7.32877,-0.29609 26.88452,-0.4442 43.45725,-0.32922 z M 42.258015,252.52517 c -1.344467,-1.54601 -15.46027,1.03979 -15.58685,2.85526 -0.06891,0.98834 3.573324,0.93811 8.093855,-0.11157 4.520531,-1.04975 7.892379,-2.28439 7.492995,-2.74362 z m 24.149196,-3.61718 c 9.6524,-1.72204 14.967,-3.37347 11.81022,-3.66988 -5.37967,-0.50518 -36.61069,5.93541 -31.65183,6.52729 1.260483,0.15053 10.189214,-1.1354 19.84161,-2.85741 z m 114.517619,7.79615 c 20.05564,-1.18071 30.88745,-5.21906 31.33817,-11.68367 0.29761,-4.26858 -0.1503,-4.39844 -6.229,-1.80551 -6.29635,2.6858 -38.68607,6.2586 -66.20724,7.30315 -7.60143,0.2885 -14.52462,1.92794 -16.38973,3.88111 -2.903,3.0401 -1.01742,3.37757 18.66998,3.34123 12.04452,-0.0231 29.51254,-0.48857 38.81782,-1.03638 z M 44.640915,246.22656 c 9.098006,-2.31103 9.181934,-2.41541 2.530331,-3.14766 -3.783887,-0.41659 -8.273871,-1.78232 -9.977739,-3.03505 -4.361693,-3.20682 -9.373487,-1.14091 -9.732759,4.01198 -0.354417,5.08324 3.698319,5.59533 17.180167,2.17073 z m 51.542686,-10.09107 c 7.743709,-1.69004 16.637399,-3.1878 19.763769,-3.32835 3.12637,-0.14063 6.21649,-1.54525 6.86693,-3.12153 0.83982,-2.03518 -0.75834,-2.67204 -5.5133,-2.19704 -3.68276,0.3679 -21.610819,2.11509 -39.840119,3.88264 -18.229298,1.76754 -33.207969,4.06557 -33.285935,5.10675 -0.237635,3.17293 37.025505,2.92758 52.008655,-0.34247 z m -65.693939,-2.37826 c 0.03889,-0.55776 -0.91956,-1.72584 -2.129885,-2.59574 -1.210326,-0.86991 -2.277006,-0.48572 -2.370397,0.85376 -0.09339,1.33948 0.865056,2.50759 2.129885,2.59576 1.264829,0.0883 2.331509,-0.296 2.370397,-0.85378 z m 86.391378,4.63902 c 1.07897,-1.50124 -0.63497,-1.90646 -4.98096,-1.17765 -8.95864,1.50234 -9.8694,2.54571 -2.66084,3.04833 3.29823,0.23006 6.73704,-0.61187 7.6418,-1.87068 z m 53.07883,0.19963 c 21.9941,-2.34305 43.45821,-10.14237 43.86231,-15.93798 0.14707,-2.10831 -1.29015,-3.01922 -3.87286,-2.45475 -2.25864,0.49363 -17.30603,3.77742 -33.43867,7.29734 -16.13265,3.5199 -31.12345,5.79668 -33.3129,5.05947 -2.34658,-0.79008 -5.03392,0.33568 -6.54608,2.74222 -4.90402,7.80457 -7.04606,7.59274 33.3082,3.2937 z M 67.843163,228.31287 c 37.155257,-3.5657 61.457017,-7.56392 63.666107,-10.47456 3.21428,-4.23508 2.3831,-6.45216 -1.91866,-5.11777 -9.98293,3.09667 -59.192579,10.76958 -71.840217,11.20152 -19.192396,0.65548 -24.370913,1.53165 -24.553781,4.15445 -0.21884,3.13884 4.095496,3.1683 34.646551,0.23636 z m 136.829227,10.63786 c 4.51404,-1.52689 8.28909,-3.94821 8.38898,-5.38073 0.10811,-1.55094 -2.96887,-0.99512 -7.60613,1.37399 -4.28325,2.18825 -9.3794,4.43536 -11.32479,4.99361 -2.28778,0.65652 -2.50016,1.15173 -0.60126,1.40213 1.6147,0.21278 6.62913,-0.86212 11.1432,-2.389 z M 80.250191,217.27292 c 12.22661,-1.53042 28.535979,-4.2707 36.243039,-6.08949 13.93813,-3.28926 13.97371,-3.31886 6.67406,-5.54916 -5.23205,-1.59859 -8.36581,-1.34914 -10.91643,0.86897 -3.64537,3.17019 -44.916051,8.81375 -71.058095,9.71684 -8.985311,0.31043 -13.35202,1.29466 -11.550222,2.60337 3.61043,2.62238 21.697226,2.06824 50.607648,-1.55053 z m 104.575719,4.28317 c 14.08724,-3.00409 26.12111,-6.69292 26.74192,-8.19738 0.83865,-2.0324 -1.78362,-2.06396 -10.20314,-0.12288 -13.88099,3.20028 -41.85092,8.79349 -50.56172,10.11098 -3.53244,0.53427 -6.49913,2.06877 -6.59264,3.41 -0.20637,2.95974 6.18784,2.141 40.61558,-5.20074 z M 67.986371,209.68698 c 15.35327,-1.45624 31.08642,-3.38939 34.962549,-4.29583 6.62622,-1.54955 6.70459,-1.68296 1.31101,-2.23136 -3.15508,-0.32073 -17.780749,0.64296 -32.501489,2.14171 -14.720739,1.49873 -30.06768,2.50157 -34.104313,2.22856 -4.036636,-0.273 -8.051065,0.49388 -8.920962,1.70419 -2.364011,3.28916 8.079145,3.40964 39.253205,0.45273 z m 104.786439,5.13599 15.25579,-3.37243 -15.05073,-1.22592 c -13.91843,-1.13385 -20.73275,0.72404 -21.08305,5.7481 -0.19424,2.78609 4.15758,2.54643 20.87799,-1.14975 z m 71.86883,-23.92947 c 16.07238,-27.51759 19.24596,-39.68699 22.23645,-85.26711 1.53487,-23.392683 1.76261,-42.172423 0.54303,-44.759008 -1.88475,-3.997273 -3.1402,-3.246837 -12.18759,7.285099 -5.54752,6.457806 -15.62739,20.042868 -22.39968,30.18904 l -12.31327,18.447619 -1.67572,45.28136 c -0.9217,24.90476 -1.22032,48.2458 -0.66367,51.869 l 1.01206,6.58761 8.01394,-6.75235 c 4.40765,-3.71377 12.25316,-14.01036 17.43445,-22.88126 z M 62.089256,201.76752 80.204211,200.17073 68.792728,198.1218 c -6.276318,-1.12691 -13.41192,-1.27309 -15.856894,-0.32486 -2.444975,0.94825 -9.291504,2.19946 -15.214512,2.78051 -10.568521,1.03677 -10.610577,1.07255 -2.258065,1.92165 4.681067,0.47588 16.662769,0.14661 26.625999,-0.73158 z m -17.347695,-6.70004 c 0.0341,-0.48886 -3.621115,-1.14563 -8.122662,-1.45947 -4.501549,-0.31386 -7.711816,0.3288 -7.133926,1.42816 0.993902,1.89078 15.12492,1.91976 15.256588,0.0313 z m 154.655069,10.76933 c 10.94631,-0.44967 13.3792,-1.3156 13.62562,-4.84974 0.34728,-4.98089 -1.50104,-5.2974 -18.52803,-3.17272 C 173.97326,200.375 94.347781,193.60951 58.642335,186.2715 29.336034,180.24861 27.29925,180.08473 27.045167,183.72888 c -0.239409,3.43375 5.4908,4.69397 48.364354,10.63657 55.849959,7.74124 104.721029,12.26283 123.987089,11.47138 z m -2.206,-12.67997 c 6.93029,-0.72722 13.15828,-1.80728 13.84,-2.40015 3.47381,-3.02097 -3.54839,-3.87434 -26.16653,-3.17983 -47.08976,1.44592 -125.615241,-7.07638 -152.04662,-16.50151 -4.018136,-1.43282 -5.162045,-1.08935 -4.530928,1.36041 2.530516,9.82254 127.113728,25.10638 168.904078,20.72108 z m -39.58269,-13.10482 c 2.00608,-2.37697 3.46786,-4.52825 3.24839,-4.78061 -0.80698,-0.92794 -43.5067,4.78367 -44.91439,6.00786 -0.80082,0.69643 7.42575,1.6776 18.28126,2.18038 16.69395,0.77318 20.29972,0.24774 23.38474,-3.40763 z m -51.84226,-2.33382 c 4.65852,-0.89834 20.00463,-3.00739 34.10248,-4.68675 14.09785,-1.67937 26.6836,-3.96067 27.96835,-5.06953 3.12122,-2.69392 0.77863,-2.75051 -32.18242,-0.77743 -31.64014,1.89404 -82.93586,-0.91835 -97.262407,-5.33258 -7.513818,-2.31514 -9.659978,-2.31223 -9.82212,0.0138 -0.243951,3.49888 14.38798,8.38041 38.391739,12.80833 24.382839,4.49786 29.277349,4.8819 38.804378,3.04469 z m 82.71551,-22.47458 c 10.64746,-15.99361 21.12333,-31.63325 23.27968,-34.75475 2.15637,-3.1215 8.46427,-12.63792 14.01753,-21.147549 12.04244,-18.453478 23.18671,-33.224372 30.64265,-40.614591 6.03096,-5.977802 17.54462,-21.88545 15.92215,-21.998569 -0.56749,-0.03965 -4.08677,3.911724 -7.82062,8.780621 -7.34167,9.573473 -11.18748,9.43382 -10.74353,-0.390144 0.19226,-4.250969 -1.00261,-2.486559 -3.80184,5.614859 -4.632,13.405805 -14.58011,30.864508 -25.2587,44.328544 -3.99299,5.034509 -7.31051,9.878459 -7.37227,10.764329 -0.0618,0.88589 -3.87954,6.15174 -8.48395,11.70189 -4.60439,5.55017 -15.66596,21.2734 -24.58126,34.94053 -8.91532,13.6671 -17.19945,25.36961 -18.40926,26.00554 -3.21638,1.69071 -2.96762,5.45462 0.37454,5.66639 1.58174,0.10004 11.58743,-12.90349 22.23488,-28.8971 z m 11.75791,21.93808 c 13.12398,-1.94125 17.99343,-7.22341 5.1361,-5.57143 -15.22003,1.95556 -25.28197,4.50692 -25.41711,6.4449 -0.14546,2.08622 0.44301,2.06086 20.28101,-0.87347 z m 8.91983,3.95142 c -0.7109,-0.81745 -2.68868,-1.03744 -4.39507,-0.48888 -1.88574,0.60619 -1.37881,1.18913 1.29252,1.48625 2.41729,0.26889 3.81345,-0.18004 3.10255,-0.99737 z m -67.39906,-18.66171 c 15.94681,-0.85461 29.80369,-1.97813 30.79309,-2.4967 3.45816,-1.81255 2.10181,-5.75274 -1.59147,-4.62323 -3.55644,1.08765 -46.43393,0.9584 -110.284284,-0.33251 -16.261323,-0.32878 -29.150702,-0.1201 -28.643058,0.46359 0.507642,0.58372 9.01509,2.5417 18.905442,4.35106 21.340061,3.90398 51.0778,4.76768 90.82028,2.63779 z m 64.93028,5.04532 c 3.5326,-0.53674 6.51993,-2.36722 6.63849,-4.06768 0.17266,-2.47505 -2.22175,-2.82214 -12.00309,-1.74002 -11.01001,1.21804 -15.71585,3.54851 -16.1275,7.98671 -0.0775,0.84539 3.2801,0.92043 7.46332,0.1669 4.18321,-0.7535 10.49615,-1.80918 14.02878,-2.34594 z m -104.66524,-20.32849 12.15772,-3.48578 -23.092029,-0.23894 c -12.70061,-0.1314 -25.701248,-0.10282 -28.890297,0.0636 -3.18905,0.16644 -10.978648,0.0291 -17.310221,-0.30542 -11.950309,-0.63121 -18.930157,1.44319 -17.02851,5.06083 1.903574,3.62131 60.744328,2.75305 74.163337,-1.09434 z m 46.02206,-2.29896 c 35.92144,-8.13579 44.22047,-10.80629 44.4646,-14.30797 0.08,-1.14743 -18.12449,2.67326 -40.45445,8.49043 -51.20879,13.34038 -48.6951,12.57305 -43.09049,13.15393 2.52372,0.26158 20.10987,-3.0398 39.08034,-7.33639 z m 60.52486,12.21105 c 2.84708,0.1812 5.25809,-0.84089 5.35782,-2.27122 0.23006,-3.30094 -15.74179,-2.09084 -19.5462,1.48088 -2.02198,1.89832 -1.23991,2.26708 3.16288,1.49142 3.21696,-0.56675 8.17844,-0.88223 11.0255,-0.70108 z m -42.21076,-7.88124 c 14.77193,-3.89312 22.43816,-7.55825 16.02623,-7.66197 -1.84086,-0.0297 -12.3466,2.24854 -23.34615,5.06289 -13.25726,3.39202 -17.87597,5.34662 -13.70095,5.79811 3.46401,0.3746 12.92339,-1.06497 21.02087,-3.19903 z M 76.408881,138.60243 c 20.96864,0.036 43.326079,0.039 49.683209,0.007 6.35713,-0.0323 17.39861,-1.79092 24.53662,-3.90836 7.17633,-2.1288 9.85882,-3.56054 6.00048,-3.20267 -26.86289,2.49175 -44.95998,2.78189 -84.709479,1.35815 -40.910635,-1.46534 -45.14601,-1.24217 -44.47072,2.34313 0.469397,2.49218 2.618315,3.84676 5.790741,3.65024 2.7744,-0.17175 22.200517,-0.28314 43.169149,-0.24727 z m 137.888069,8.19665 c 0.5608,-0.44791 0.36819,-1.56348 -0.42802,-2.47904 -0.79622,-0.91556 -4.92206,-0.1563 -9.16856,1.68725 l -7.72086,3.35191 8.14888,-0.87284 c 4.48191,-0.4801 8.60775,-1.23936 9.16856,-1.68728 z M 44.951041,125.77558 c 0.03483,-0.49956 -4.076111,-1.1969 -9.135428,-1.54965 -5.059317,-0.35276 -9.254779,0.16206 -9.32325,1.14417 -0.06847,0.98205 4.042473,1.67939 9.135428,1.54965 5.092958,-0.12979 9.28842,-0.6446 9.32325,-1.14417 z M 212.6585,138.95701 c 1.94265,-1.04696 2.87947,-2.65402 2.08182,-3.57124 -1.95773,-2.25117 -8.69632,-0.0314 -8.90299,2.93286 -0.20355,2.92085 2.17325,3.14331 6.82117,0.63838 z M 81.190941,128.01708 c -4.70852,-0.82685 -12.469967,-1.36799 -17.247669,-1.20254 -4.777703,0.16552 -0.925279,0.84195 8.560939,1.50336 9.48622,0.6614 13.39525,0.52604 8.68673,-0.30082 z m 45.613549,0.37454 9.33142,-1.26133 -8.03972,-0.69312 c -4.42184,-0.38123 -12.23885,-0.12541 -17.37113,0.5682 l -9.33142,1.26133 8.03971,0.69313 c 4.42185,0.38122 12.23886,0.12563 17.37114,-0.56821 z m -15.75809,-5.99504 c 36.01013,-1.37789 78.18428,-3.61919 85.06972,-4.52092 3.43308,-0.44962 8.05404,-3.2029 10.26881,-6.1184 4.00525,-5.27248 3.9919,-5.29032 -2.48684,-3.32501 -3.58251,1.08673 -23.24136,3.25862 -43.68633,4.82639 -33.81323,2.5929 -49.92272,3.28621 -106.619894,4.58862 l -18.516607,0.42537 13.713645,2.17382 c 16.662163,2.64125 31.801937,3.11546 62.257496,1.95013 z m 63.25372,4.2334 c 5.70837,0.15837 13.58382,-0.93557 17.50103,-2.43119 6.08177,-2.32205 6.26997,-2.60071 1.28844,-1.90756 -3.20857,0.44643 -16.2666,1.29803 -29.01782,1.89242 -12.75121,0.59439 -24.04961,1.74638 -25.10754,2.55996 -1.05793,0.81357 4.12462,1.05602 11.51678,0.53876 7.39216,-0.51728 18.11075,-0.81083 23.81911,-0.65239 z M 58.545596,113.08567 C 131.7268,112.24851 207.24205,106.6562 214.06125,101.5689 c 3.56737,-2.661369 -1.69278,-2.490659 -37.0703,1.2031 -27.74267,2.8966 -53.90724,4.17333 -139.576658,6.81074 -6.686987,0.20586 -12.231462,1.42565 -12.321054,2.71063 -0.09721,1.39435 3.350218,2.06242 8.550232,1.65692 4.792223,-0.37369 15.99818,-0.76277 24.902126,-0.86462 z m 43.442134,-9.91158 c 44.73583,-1.62075 108.31148,-6.832349 110.90964,-9.091767 3.36127,-2.923131 -1.29289,-3.239253 -22.35686,-1.518506 -39.82313,3.253204 -88.74693,6.142494 -127.043168,7.502763 -20.704668,0.73543 -37.697485,2.0921 -37.761821,3.01483 -0.144794,2.07673 20.786505,2.10216 76.252209,0.0927 z M 69.023361,95.38282 C 140.91575,92.434445 208.14526,87.4137 211.19015,84.765703 c 1.96163,-1.705901 -33.11606,-1.460252 -58.26371,0.408033 -49.0636,3.645028 -98.082048,5.662556 -112.979062,4.650011 -12.254459,-0.832918 -15.575457,-0.328547 -15.765304,2.394325 -0.303159,4.348069 5.68421,4.770649 44.841287,3.164748 z m 29.72026,-11.967338 c 24.887039,-1.476896 56.735289,-3.364107 70.773889,-4.193821 14.03861,-0.829713 30.75324,-1.1794 37.14364,-0.777061 12.75502,0.803065 17.33209,-1.665651 17.88868,-9.648395 0.50965,-7.309765 -6.18449,-8.982516 -37.05419,-9.259241 -31.05105,-0.278339 -94.072249,1.076078 -114.989879,2.471275 -8.299956,0.553634 -26.769876,0.917936 -41.044268,0.809611 L 5.508052,62.62098 6.399574,68.7427 c 1.565071,10.746673 2.05105,11.602021 7.393986,13.013724 13.37262,3.533314 43.464699,4.121043 84.950061,1.65915 z M 283.74171,15.283687 c 0.74407,-10.6717055 -7.14005,-13.5763487 -15.07572,-5.5541395 -6.99279,7.0690725 -7.95066,12.3181545 -1.29335,7.0875605 7.29974,-5.735333 12.68218,-2.066815 10.31727,7.031934 -1.78159,6.854335 -1.66132,7.061141 1.8119,3.115368 2.04611,-2.324475 3.95404,-7.580796 4.2399,-11.680723 z m -11.24272,8.556572 c 2.55101,-5.475183 2.1348,-6.251138 -1.82626,-3.404634 -4.04416,2.906211 -5.05791,6.579939 -1.87691,6.801729 1.12952,0.07884 2.79595,-1.449947 3.70317,-3.397095 z"
     id="path10130"
     inkscape:connector-curvature="0"
     sodipodi:nodetypes="cssssssssssssssscsccscccsssssssscsssscccssssssssssssssssssssssssssssssscsssssscccccccssssssssccssssccsssccsssssssssssssssssssssssssssssssssssssscssccccsscsscsccsccsscsssssssssssscccccccsccsscsccscsssccsscsssssccssssscscccsscscsssscccsssssscssscsscscssscsscsssssssssssscsscsssssssscssssccsscsssssccssssssscsscssscssssscssccsssssccssssssssssscssssssccsssscscsscssscssssssssssssssssscscssscssssssssssscssssssssccsssssccssscssssssssccsssssscsscsssssssscssssssssssssssssssssssssssssssssssscsssssssssssss" />
</svg>
