<?xml version="1.0" encoding="UTF-8" standalone="no"?>
<!-- Created with Inkscape (http://www.inkscape.org/) -->

<svg
   xmlns:dc="http://purl.org/dc/elements/1.1/"
   xmlns:cc="http://creativecommons.org/ns#"
   xmlns:rdf="http://www.w3.org/1999/02/22-rdf-syntax-ns#"
   xmlns:svg="http://www.w3.org/2000/svg"
   xmlns="http://www.w3.org/2000/svg"
   xmlns:sodipodi="http://sodipodi.sourceforge.net/DTD/sodipodi-0.dtd"
   xmlns:inkscape="http://www.inkscape.org/namespaces/inkscape"
   id="svg24079"
   version="1.1"
   inkscape:version="0.48.4 r9939"
   width="489.88312"
   height="307.87784"
   sodipodi:docname="Nunchucks.svg">
  <metadata
     id="metadata24085">
    <rdf:RDF>
      <cc:Work
         rdf:about="">
        <dc:format>image/svg+xml</dc:format>
        <dc:type
           rdf:resource="http://purl.org/dc/dcmitype/StillImage" />
        <dc:title />
      </cc:Work>
    </rdf:RDF>
  </metadata>
  <defs
     id="defs24083" />
  <sodipodi:namedview
     pagecolor="#ffffff"
     bordercolor="#666666"
     borderopacity="1"
     objecttolerance="10"
     gridtolerance="10"
     guidetolerance="10"
     inkscape:pageopacity="0"
     inkscape:pageshadow="2"
     inkscape:window-width="1226"
     inkscape:window-height="713"
     id="namedview24081"
     showgrid="false"
     inkscape:zoom="0.90296496"
     inkscape:cx="169.36619"
     inkscape:cy="88.986053"
     inkscape:window-x="1"
     inkscape:window-y="22"
     inkscape:window-maximized="0"
     inkscape:current-layer="svg24079"
     fit-margin-top="0"
     fit-margin-left="0"
     fit-margin-right="0"
     fit-margin-bottom="0" />
  <path
     style="fill:#73150b;fill-opacity:1;stroke:none"
     d="m 233.2392,248.86721 c 10.81688,16.84437 8.49616,38.06232 1.1632,57.6633 66.12685,-1.18689 129.27036,-7.93895 190.53513,-15.3288 23.51332,-2.83622 46.90785,-1.45401 59.44598,-9.6693 0.77388,-16.87127 12.93881,-26.14851 -9.84774,-58.72672 -80.43219,6.1765 -160.86438,14.88566 -241.29657,26.06152 z"
     id="path24091"
     inkscape:connector-curvature="0"
     sodipodi:nodetypes="ccsccc" />
  <path
     style="fill:#73150b;fill-opacity:1;stroke:none"
     d="M 219.63078,75.866128 C 231.9902,92.405279 235.97764,108.56568 239.32627,125.10482 308.89216,101.87418 423.42249,70.078872 448.02261,55.413128 460.31261,21.41481 428.55571,3.6529966 421.13071,2.0080716 349.60127,20.810376 286.79742,51.246776 219.63078,75.866128 z"
     id="path24601"
     inkscape:connector-curvature="0"
     sodipodi:nodetypes="ccccc" />
  <path
     style="fill:#000000"
     d="m 224.8955,306.64996 c -3.73167,-0.4339 -13.57218,-2.30158 -21.8678,-4.15041 -13.4717,-3.00242 -17.75492,-4.74102 -25.3811,-10.30247 -2.46796,-1.79978 -18.18249,-0.38935 -16.99892,1.52571 1.34957,2.18367 -3.45071,5.31939 -9.24462,6.03893 -26.03401,3.23313 -35.79181,3.31461 -39.09368,0.32646 -1.37212,-1.24175 -2.7682,-1.98431 -3.10239,-1.65012 -0.33419,0.33419 -9.980751,1.58807 -21.436803,2.7864 -22.341868,2.33703 -23.924434,2.11362 -28.783289,-4.06341 -2.406547,-3.05943 -3.707201,-3.43089 -12.076315,-3.44888 -12.149887,-0.0261 -15.675393,-1.86764 -18.336663,-9.57797 -1.164487,-3.37378 -3.45538,-8.26874 -5.090878,-10.87769 -2.851548,-4.54878 -4.751651,-12.60725 -4.991414,-21.16897 -0.105516,-3.76789 -0.591737,-4.11628 -7.636831,-5.4721 -6.8942397,-1.32678 -7.6608337,-1.84885 -9.1569561,-6.23609 -0.89804954,-2.63345 -1.66154994,-10.32859 -1.69666764,-17.10032 -0.095481,-18.41167 5.64189104,-29.41255 15.33974974,-29.41255 1.813885,0 4.414502,-1.23375 5.779149,-2.74167 2.19805,-2.42882 2.282746,-3.34291 0.742238,-8.0107 -2.713503,-8.222 -0.241327,-11.6492 16.352994,-22.6704 11.956099,-7.94069 30.635031,-17.19416 34.707917,-17.19416 1.817237,0 3.655426,0.91563 4.084865,2.03473 0.601998,1.56878 2.862448,0.45912 9.871124,-4.84572 12.205669,-9.23844 27.326,-16.77875 31.89456,-15.90542 2.69449,0.51509 5.50322,-0.80995 11.76542,-5.55043 16.59274,-12.56067 28.09093,-15.33768 32.92954,-7.95304 l 2.03842,3.11103 7.46803,-2.8879 c 6.37486,-2.46517 7.47145,-3.40855 7.4914,-6.44471 0.0462,-7.047091 10.41929,-17.744412 23.73936,-24.481616 2.1338,-1.07926 5.43845,-3.406951 7.34367,-5.172648 1.90522,-1.765697 4.35444,-2.868675 5.44273,-2.451062 1.08828,0.417613 13.78953,-3.913419 28.22499,-9.624516 14.43547,-5.711096 32.09461,-12.206983 39.24254,-14.435301 7.14794,-2.228319 23.76944,-8.284129 36.93669,-13.457355 77.92609,-30.6160744 93.96045,-36.2211381 100.24485,-35.04217838 6.72431,1.26148798 16.43939,9.12483198 22.63805,18.32312938 6.44362,9.561775 8.44753,15.156876 8.44753,23.586197 0,9.357549 -2.91081,15.204762 -9.37875,18.839948 -8.26851,4.647167 -36.29613,13.91488 -77.22558,25.5357 -20.16928,5.726531 -42.02349,12.193741 -48.5649,14.371602 -6.54142,2.17786 -16.81838,5.2075 -22.8377,6.73254 -11.98503,3.0365 -51.71558,17.11666 -56.08904,19.87746 -1.50482,0.94994 -5.8141,2.13687 -9.57617,2.63762 -3.76207,0.50075 -12.23021,2.49141 -18.81807,4.42369 -14.39792,4.22305 -19.3988,3.29831 -25.26052,-4.67108 -2.03039,-2.76046 -3.7401,-5.14519 -3.79933,-5.29939 -0.0592,-0.15421 -2.46943,0.53154 -5.35597,1.5239 -3.01339,1.03595 -4.59311,2.20918 -3.7097,2.75514 3.07912,1.90301 1.60563,7.92744 -2.99768,12.2561 -4.80398,4.51739 -29.55454,17.25753 -39.05827,20.10491 -4.89178,1.46561 -5.98196,1.38864 -8.15242,-0.57559 -1.37803,-1.24711 -2.98816,-2.26746 -3.57807,-2.26746 -0.58991,0 -4.80832,2.80821 -9.37425,6.24049 -11.744261,8.82832 -26.180232,17.01594 -30.00159,17.01594 -1.787379,0 -3.927247,-0.67746 -4.755263,-1.50549 -2.315627,-2.31563 -14.565122,5.21686 -13.302108,8.17975 0.519988,1.21984 0.900606,3.30708 0.845816,4.63831 -0.162655,3.952 -9.563165,18.31548 -16.951125,25.90041 -6.377505,6.54755 -6.698004,7.19167 -4.410611,8.86426 1.356647,0.99201 2.948773,1.80364 3.538055,1.80364 2.044885,0 4.969006,7.56881 5.946414,15.39171 l 0.982632,7.86473 7.961466,0 c 9.082927,0 13.620908,1.39195 17.255006,5.29269 2.438088,2.61698 3.342498,2.6673 22.965847,1.27753 l 20.427811,-1.44674 3.84202,4.29997 c 2.11311,2.36498 3.84202,5.52147 3.84202,7.01444 0,3.30132 4.63749,3.55265 19.26624,1.04409 9.1234,-1.56449 9.86401,-1.50194 11.6838,0.98677 1.06862,1.46142 1.64086,3.4443 1.27167,4.40642 -0.49796,1.29766 1.39748,1.74928 7.3417,1.74928 l 8.01298,0 0.87221,-4.6493 c 1.1505,-6.13267 5.30029,-11.21546 11.90967,-14.58731 9.91021,-5.05581 42.78087,-11.84375 72.34019,-14.93856 15.42448,-1.61493 38.50991,-4.39463 51.30095,-6.17714 34.62486,-4.82518 69.18949,-8.60248 99.86585,-10.91356 15.04828,-1.1337 35.24777,-2.80934 44.88778,-3.72365 12.40146,-1.17621 18.19878,-1.2388 19.82339,-0.21401 2.80511,1.76942 9.47089,12.87917 12.19123,20.31888 2.94709,8.0599 2.50834,31.2969 -0.69448,36.78089 -4.29382,7.35204 -8.93165,8.91785 -34.94219,11.79709 -13.19214,1.46032 -30.02836,3.0301 -37.41381,3.48841 -7.38546,0.45831 -24.2013,2.26155 -37.36854,4.00721 -42.65927,5.65557 -90.52034,8.96601 -129.01713,8.92382 -18.80041,0.57656 -10.17717,0.85078 -23.57297,-0.77884 z m 74.61265,-3.99803 c 33.92873,-1.69706 81.40679,-6.28727 85.50159,-8.26633 1.34783,-0.65142 -4.47071,-0.21225 -28.72854,2.16837 -6.77172,0.66457 -22.77762,1.27039 -35.56865,1.34629 -12.79104,0.0759 -32.79841,0.60384 -44.46083,1.17326 -11.66241,0.5694 -22.28171,0.76 -23.59844,0.42354 -4.99114,-1.27536 -2.09034,-2.74307 5.47211,-2.76869 17.8429,-0.0605 104.42318,-2.90164 105.35532,-3.45729 0.55475,-0.33069 16.39893,-2.2237 35.20928,-4.20669 30.46735,-3.21187 38.117,-4.32142 49.59092,-7.19292 1.77884,-0.44518 3.07806,-0.14171 3.07806,0.71897 0,2.24735 -12.88423,5.3962 -26.33449,6.43603 -6.58362,0.50897 -11.97022,1.31873 -11.97022,1.79947 0,1.67629 58.6502,-4.22688 64.56765,-6.49878 6.95923,-2.67186 8.6217,-7.31223 8.6217,-24.06514 0,-14.59197 -0.1685,-15.45338 -4.78419,-24.4569 -2.6313,-5.13272 -5.57481,-9.98838 -6.54114,-10.79037 -1.25079,-1.03805 -8.54346,-0.80044 -25.31238,0.82472 -12.95548,1.25558 -32.78957,2.88802 -44.07578,3.62766 -11.28621,0.73962 -26.06089,1.99733 -32.83261,2.79487 -6.77173,0.79756 -19.69957,2.29782 -28.72853,3.33391 -9.02897,1.03607 -26.8817,3.39954 -39.67274,5.25214 -12.79104,1.85259 -33.10621,4.40783 -45.14484,5.6783 -12.03862,1.27047 -21.99676,2.41363 -22.12922,2.54037 -0.13242,0.12668 1.01563,3.91832 2.55129,8.42576 2.3235,6.81992 2.66879,10.37647 2.05733,21.19158 -0.40413,7.14793 -1.7061,15.68999 -2.89329,18.98235 -1.18719,3.29236 -2.15852,6.21651 -2.15852,6.49812 0,0.99937 24.46549,0.41129 62.92916,-1.5126 z m -63.75724,-5.69781 c 3.60301,-10.57425 4.28241,-26.03878 1.55726,-35.44611 -3.84155,-13.2612 -2.8388,-13.03051 -28.618,-6.58378 -24.01315,6.00512 -30.93627,11.5837 -30.93627,24.92823 0,7.98434 2.38647,12.10598 8.76054,15.13013 7.27296,3.4506 29.45254,8.08604 39.33375,8.22057 l 7.73756,0.10534 z m -25.16441,2.0899 c -10.29885,-1.13624 -19.87713,-5.04648 -24.55273,-10.02342 -4.41307,-4.6975 -2.38754,-6.26991 2.33659,-1.8139 5.32344,5.0213 13.2474,7.95409 23.97035,8.87183 8.82018,0.75487 12.54969,2.18628 8.84014,3.39286 -0.9362,0.30451 -5.70366,0.11218 -10.59435,-0.42737 z m -104.9768,-2.74623 c 6.57326,-0.93931 11.91752,-2.53737 14.02226,-4.19295 3.77813,-2.97187 4.51785,-6.58066 1.34888,-6.58066 -1.12862,0 -2.05204,0.93662 -2.05204,2.08137 0,2.68449 -4.01875,4.27562 -15.04827,5.95797 -10.637441,1.62255 -34.271261,1.95408 -36.389888,0.51045 -6.889927,-4.69473 -5.530692,-23.59807 1.696807,-23.59807 1.148657,0 1.816031,-0.76951 1.483052,-1.71003 -0.718408,-2.02918 -7.630066,-1.77511 -9.759927,0.35878 -2.347746,2.35218 -1.470783,20.72363 1.239423,25.96459 l 2.332149,4.50987 15.253106,-0.89176 c 8.389207,-0.49046 20.032707,-1.57477 25.874448,-2.40956 z m 36.46717,1.06802 c 8.01156,-0.88874 14.47824,-2.25582 14.76347,-3.12105 0.56622,-1.71753 -6.14969,-3.46818 -7.14247,-1.86184 -0.34662,0.56085 -6.94975,1.45094 -14.67362,1.97801 -7.72387,0.52706 -15.58244,1.81065 -17.46347,2.85243 -3.27276,1.81255 -3.12547,1.89068 3.42006,1.814 3.76207,-0.0441 13.25529,-0.79176 21.09603,-1.66155 z m 252.16704,-4.53949 c -0.94052,-0.3795 -2.47955,-0.3795 -3.42006,0 -0.94052,0.3795 -0.17101,0.69002 1.71003,0.69002 1.88103,0 2.65055,-0.31052 1.71003,-0.69002 z m -247.75552,-3.02754 c 0.4857,-0.46999 0.35163,-2.23966 -0.29793,-3.93259 -1.2624,-3.29021 -4.34724,-3.78304 -13.8477,-2.21227 -3.94312,0.65193 -5.34742,1.67629 -6.38726,4.65915 l -1.33287,3.82348 10.49134,-0.74162 c 5.77023,-0.40789 10.88871,-1.12616 11.37442,-1.59615 z m 262.8038,1.60007 c -1.69293,-0.32608 -4.46319,-0.32608 -6.15612,0 -1.69293,0.32607 -0.3078,0.59287 3.07806,0.59287 3.38586,0 4.77099,-0.2668 3.07806,-0.59287 z M 52.579571,289.62826 c 0.503995,-0.81548 -1.14846,-1.36803 -4.091276,-1.36803 -6.593194,0 -12.774154,-3.3759 -13.82154,-7.54902 -1.159012,-4.61786 -3.291577,-4.29595 -3.291577,0.49687 0,6.38913 4.365665,8.89772 16.677573,9.58323 2.024734,0.11274 4.061802,-0.41064 4.52682,-1.16305 z m 24.05627,-7.3362 c 1.486539,-5.45255 0.782144,-13.83873 -1.704919,-20.2979 -1.182723,-3.07165 -2.723668,-3.96384 -9.150734,-5.29817 -8.610957,-1.78773 -28.348052,-0.72074 -31.252207,1.6895 -1.962976,1.62911 -2.46951,7.98634 -0.636341,7.98634 0.63164,0 1.827467,-1.49031 2.657393,-3.3118 1.238937,-2.71917 2.879565,-3.48305 9.168395,-4.26879 11.172483,-1.3959 22.038614,-0.18661 25.363939,2.82277 2.418228,2.18848 2.756372,3.89673 2.415246,12.20144 -0.349393,8.50594 -0.763465,9.81762 -3.474719,11.00711 -1.692931,0.74273 -3.078057,2.02526 -3.078057,2.85005 0,5.70145 7.860385,1.33773 9.692004,-5.38055 z m 28.309069,7.83194 c 2.30267,-0.61691 2.90118,-1.51309 2.2921,-3.43212 -1.63506,-5.15159 0.62524,-10.31284 5.07654,-11.59195 4.12948,-1.18666 4.15306,-1.24425 1.64041,-4.00672 -2.4199,-2.66049 -3.33047,-2.7397 -17.939581,-1.56041 l -15.390288,1.24236 0,5.36641 c 0,2.95153 -0.892005,7.50128 -1.982232,10.11057 l -1.982233,4.74415 12.584429,-0.0188 c 6.921434,-0.0109 13.986825,-0.3944 15.700855,-0.8536 z m 62.20679,-1.84509 c 7.47356,-0.0178 7.86614,-0.18936 7.86614,-3.43874 0,-1.88103 -0.1539,-3.44225 -0.342,-3.46937 -14.07679,-2.02935 -25.65048,-0.44674 -25.65048,3.50748 0,2.59069 4.21886,4.87845 7.52414,4.08014 1.50483,-0.36346 6.27582,-0.66924 10.6022,-0.67951 z m -51.64296,-2.77347 c 0,-2.33694 10.42779,-4.79033 26.6765,-6.27631 13.61608,-1.2452 15.63075,-1.99214 13.36722,-4.95587 -1.47337,-1.92911 -2.78387,-2.07437 -8.57914,-0.95085 -3.76207,0.72934 -12.44916,1.91283 -19.30464,2.62999 -6.85549,0.71714 -13.41265,1.66773 -14.57147,2.11241 -2.41483,0.92666 -3.91838,5.41467 -2.79487,8.34249 0.97147,2.53161 5.2064,1.79804 5.2064,-0.90186 z m -59.509106,-6.91132 c 0,-8.56942 1.606827,-11.71667 7.241027,-14.18284 4.339137,-1.89931 4.286048,-1.92157 -4.846983,-2.03194 l -9.234171,-0.11159 0,4.1694 c 0,4.68025 -5.570194,10.87888 -9.77594,10.87888 -3.18622,0 -3.241143,1.69797 -0.142244,4.39755 3.247609,2.82913 5.591666,3.57552 11.628216,3.7026 l 5.130095,0.108 z m 14.04685,-0.25207 c 0.372426,-2.44534 0.432036,-4.71285 0.132466,-5.03889 -0.978323,-1.0648 -3.021586,1.88017 -3.970629,5.7229 -0.701571,2.84071 -0.428265,3.76207 1.11595,3.76207 1.256344,0 2.306226,-1.71472 2.722213,-4.44608 z m -24.683699,-8.31661 c 0.560327,-0.88087 1.028201,-3.03184 1.039723,-4.77993 0.0152,-2.30517 -0.636775,-3.04513 -2.373096,-2.69337 -1.454676,0.29471 -2.352162,1.66914 -2.287304,3.50285 0.11962,3.38205 -3.367913,5.08992 -7.63088,3.7369 -3.747288,-1.18935 -3.46884,0.47062 0.342007,2.03887 3.582433,1.47425 9.439972,0.50493 10.90955,-1.80532 z m 79.033005,1.47648 c -0.003,-0.94051 -1.24688,-3.74677 -2.76461,-6.23613 l -2.75949,-4.52611 -9.20561,0.89087 c -5.06309,0.48999 -13.684291,1.29551 -19.158236,1.79007 -13.953023,1.26059 -12.733479,3.79997 1.441972,3.00254 22.384174,-1.25923 23.299114,-1.14983 25.313664,3.02673 1.83301,3.80018 7.14211,5.32766 7.13231,2.05203 z M 24.762159,252.12426 c -0.421879,-14.42191 -0.234539,-15.84156 2.443944,-18.52004 1.595465,-1.59546 2.569972,-3.43621 2.165573,-4.09054 -1.253501,-2.0282 -6.357582,0.14261 -7.492259,3.18652 -2.211716,5.93322 0.316901,35.02482 3.045773,35.04145 0.161631,9.8e-4 0.08826,-7.02685 -0.163031,-15.61739 z m 8.35608,3.64537 c 1.56087,-1.69293 3.654054,-3.07805 4.651519,-3.07805 1.962488,0 2.258644,-6.35322 0.573936,-12.31223 -0.96194,-3.40249 -0.97111,-3.40431 -1.784561,-0.35362 -0.449709,1.68653 -2.751108,4.14897 -5.114222,5.4721 -4.150961,2.32414 -4.275745,2.66064 -3.682152,9.9298 0.730017,8.93981 0.980888,9.77209 1.855643,6.15611 0.36404,-1.50483 1.938966,-4.12118 3.499837,-5.81411 z m 14.083743,-9.57618 c -1.172766,-8.46601 -3.248472,-13.62742 -5.887669,-14.64016 -3.111883,-1.19415 -3.928958,0.34281 -1.905085,3.58354 0.9759,1.56267 2.116041,6.15176 2.533649,10.19798 0.635305,6.15552 1.20015,7.35677 3.459276,7.35677 2.435363,0 2.611766,-0.63689 1.799829,-6.49813 z M 17.359765,242.77339 C 17.050026,241.83287 15.444532,240.86465 13.792,240.62179 7.7973113,239.74078 6.2613073,234.7889 7.2247993,219.44994 l 0.876575,-13.95524 5.1387807,-4.42573 c 2.82633,-2.43415 4.409344,-4.43489 3.517808,-4.44608 -8.6225227,-0.10826 -14.1113174,10.41229 -14.1113174,27.04761 0,12.98463 1.8110297,19.06096 5.9195847,19.86128 6.2480917,1.21709 9.3558477,0.94906 8.7935347,-0.75839 z m 16.720111,-3.70349 c 1.529336,-2.85759 1.687924,-30.20131 0.205881,-35.49777 -1.006239,-3.59604 -4.941018,-6.76319 -6.484644,-5.21956 -0.533085,0.53308 0.204477,2.26619 1.639028,3.85135 2.167572,2.39515 2.691371,5.49983 3.100083,18.37496 0.461785,14.54702 0.31596,15.60265 -2.388658,17.29171 -1.584255,0.98939 -2.880465,2.90368 -2.880465,4.25399 0,2.02171 0.477467,2.19958 2.704699,1.0076 1.487584,-0.79613 3.334418,-2.62416 4.104076,-4.06228 z m -15.53837,-5.18867 c 1.307814,-5.47462 3.097821,-7.18214 7.529078,-7.18214 5.147654,0 5.582706,-4.76234 0.550432,-6.02535 -4.633784,-1.163 -14.676496,-11.79132 -13.662153,-14.4588 0.526442,-1.38443 0.337538,-1.62719 -0.560474,-0.72024 -0.745006,0.75241 -1.780464,7.2507 -2.301017,14.44063 -0.8166557,11.27971 -0.6285947,13.39046 1.371223,15.39029 3.384022,3.38401 6.049499,2.83969 7.072911,-1.44439 z m 26.952116,-19.83637 c 6.771125,-8.33108 13.242063,-18.95149 13.242063,-21.73349 0,-6.6597 -7.479011,-3.46806 -8.640142,3.68714 -0.443807,2.73488 -3.298419,8.27245 -6.34358,12.30573 -8.57976,11.36382 -7.016478,16.51649 1.741659,5.74062 z M 26.074729,212.06273 C 23.723078,210.22228 21.799,207.49928 21.799,206.01162 c 0,-3.86772 3.63382,-10.44156 9.994245,-18.08027 5.294778,-6.3589 5.731083,-6.58761 11.096863,-5.81663 7.540744,1.08348 10.322107,-0.75111 5.715145,-3.7697 -1.899457,-1.24458 -4.768176,-2.26287 -6.374931,-2.26287 -3.839162,0 -13.125452,9.31317 -20.952236,21.01286 l -6.278073,9.38465 3.057487,3.86261 c 3.674225,4.64175 11.022406,8.72512 11.779299,6.54573 0.282514,-0.81346 -1.410418,-2.98484 -3.76207,-4.82527 z m 20.464587,-13.11001 c 2.202452,-5.1729 0.804945,-6.01296 -4.895772,-2.94294 -5.09457,2.74362 -5.290762,3.25036 -3.917264,10.11786 l 0.879002,4.395 3.156796,-3.88199 c 1.736237,-2.1351 3.885994,-5.59467 4.777238,-7.68793 z m -17.900189,7.22599 c 0,-1.52002 -0.912018,-2.73605 -2.052038,-2.73605 -2.082697,0 -2.806179,2.89392 -1.140021,4.56008 1.73437,1.73437 3.192059,0.90141 3.192059,-1.82403 z m 15.371086,-14.73805 c 5.465561,-2.83903 11.476412,-6.13702 13.357446,-7.32883 1.881035,-1.19182 8.209172,-5.14402 14.062527,-8.78265 10.816874,-6.72413 13.088187,-9.85893 11.277279,-15.5646 -1.414368,-4.45627 -3.245792,-3.32345 -3.710825,2.29532 -0.38654,4.67038 -1.344015,5.77357 -10.684778,12.31094 -10.949691,7.66342 -25.428267,15.1624 -32.140336,16.64666 -2.288685,0.50612 -4.294616,1.93802 -4.546391,3.24538 -0.652532,3.38833 1.274004,2.94932 12.385078,-2.82222 z m -3.854757,-3.87665 c 1.190159,-0.45671 2.163924,-1.38012 2.163924,-2.05204 0,-1.95739 -3.613551,-1.40904 -5.472101,0.83038 -1.805457,2.17544 -0.466179,2.67001 3.308177,1.22166 z m -12.312412,-8.02127 c -0.669555,-2.66772 0.430464,-4.1932 6.4931,-9.00447 4.014573,-3.18594 9.453864,-6.67102 12.087313,-7.74465 11.32888,-4.61864 26.827506,-11.97557 28.629406,-13.58987 3.085962,-2.76468 -1.739735,-3.92077 -7.107577,-1.70275 -10.959492,4.52851 -31.737162,17.03211 -38.241946,23.01328 -6.780191,6.2344 -7.057874,6.75509 -5.465854,10.24919 1.983337,4.35296 4.767849,3.41021 3.605558,-1.22073 z m 7.262915,-3.46059 c 4.396778,-3.4585 11.000128,-3.4585 15.421574,0 4.354725,3.40632 4.234981,3.41595 11.408456,-0.917 5.943841,-3.5902 6.017826,-3.72449 4.301249,-7.80703 -1.088268,-2.58822 -1.317466,-5.28274 -0.608065,-7.1486 1.078929,-2.83781 0.552109,-2.74304 -10.0596,1.80931 -12.309592,5.28075 -29.281127,16.79938 -24.752179,16.79938 0.445633,0 2.375487,-1.23123 4.288565,-2.73606 z m 54.068374,-1.72633 c 7.152176,-4.02768 17.655147,-11.14528 32.779827,-22.21411 8.15043,-5.96479 8.95483,-7.78238 6.09669,-13.77592 -1.31955,-2.76714 -2.76833,-4.66201 -3.21951,-4.21084 -0.45118,0.45118 -0.0725,1.72139 0.8415,2.82269 0.91399,1.1013 1.46343,3.70973 1.22096,5.7965 -0.34788,2.994 -2.74886,5.39681 -11.38506,11.39384 -19.853861,13.7866 -33.827028,22.08779 -35.86403,21.30612 -2.472024,-0.94861 -4.816322,0.34572 -3.750287,2.07061 1.397307,2.26088 5.241659,1.33774 13.27991,-3.18889 z m 13.825117,-15.68924 c 5.91092,-3.96488 11.36339,-7.20888 12.11658,-7.20888 0.76508,0 0.93751,-1.05655 0.39071,-2.39405 -0.53831,-1.31672 -1.56639,-4.43054 -2.28464,-6.91958 l -1.3059,-4.52553 -6.41188,3.7187 c -3.52654,2.04529 -9.477091,5.65867 -13.223454,8.02973 l -6.811567,4.31103 -0.02857,8.27319 -0.02856,8.2732 3.420063,-2.17447 c 1.881035,-1.19596 8.256277,-5.41846 14.167218,-9.38334 z m -30.583512,5.26108 c 0,-5.58257 5.940635,-10.23476 32.642502,-25.56274 18.42061,-10.5742 17.462,-14.82887 -1.14096,-5.06408 -12.641159,6.6354 -34.828712,23.75885 -36.311026,28.02337 -0.985353,2.83478 1.69011,8.3162 3.510097,7.19138 0.714663,-0.44168 1.299387,-2.50626 1.299387,-4.58793 z m 3.670568,-1.78226 c -0.436709,-1.09132 -0.760872,-0.76716 -0.826515,0.82652 -0.0594,1.44211 0.26393,2.25011 0.718514,1.79553 0.454582,-0.4546 0.503184,-1.63452 0.108006,-2.62205 z m 75.306304,-13.51678 c 14.96604,-7.68915 19.81508,-11.59192 19.23585,-15.48202 -0.52557,-3.52962 -3.81897,-4.57588 -3.81897,-1.21321 0,4.01484 -4.48263,7.91311 -14.63672,12.72864 -10.99846,5.21597 -23.16633,9.57737 -24.10396,8.63973 -0.36609,-0.36609 -1.92549,0.1212 -3.46534,1.08284 -1.99224,1.24418 -2.40062,2.22934 -1.41595,3.41578 2.00047,2.41042 11.97473,-0.83301 28.20509,-9.17176 z m -6.80988,-4.14636 c 4.7046,-2.18282 8.95577,-3.96876 9.44705,-3.96876 1.61237,0 10.04366,-6.94889 10.04366,-8.27778 0,-0.71412 -1.27169,-1.2984 -2.82598,-1.2984 -3.85794,0 -8.11822,-2.44113 -8.11822,-4.65174 0,-1.00067 1.2759,-3.44146 2.83534,-5.42396 2.74965,-3.49562 2.75548,-3.60456 0.19266,-3.60456 -3.81696,0 -22.51123,8.89871 -25.39992,12.09068 -2.2685,2.50667 -2.29088,3.01932 -0.29996,6.86935 2.59065,5.00975 2.76652,9.9436 0.44147,12.38471 -2.39053,2.50986 2.69624,0.97849 13.6839,-4.11954 z m -25.29271,-2.69238 c -0.70926,-5.28795 -0.40077,-5.88809 6.22373,-12.10749 9.08058,-8.5253 29.22451,-17.8914 33.17432,-15.42469 3.70349,2.31286 4.29203,2.03404 2.33184,-1.10471 -2.63745,-4.22324 -9.5617,-3.49131 -18.93354,2.00137 -9.78818,5.7367 -25.44088,18.1015 -26.53969,20.96496 -0.93134,2.42702 1.70108,11.2343 3.35784,11.2343 0.62247,0 0.79594,-2.50368 0.3855,-5.56374 z m 3.87095,-3.06333 c -1.08307,-1.08308 -1.49631,-0.7281 -1.49631,1.28533 0,3.61672 1.91312,5.53646 2.52233,2.53107 0.25867,-1.27604 -0.20304,-2.99342 -1.02602,-3.8164 z m 89.14483,-8.47617 c 6.95463,-1.88265 15.26112,-4.06103 18.45888,-4.84083 5.22927,-1.2752 5.81411,-1.82968 5.81411,-5.51232 0,-8.43291 -9.62212,-31.408112 -16.82778,-40.180494 l -3.30508,-4.023705 -7.37589,4.864929 c -4.05674,2.675711 -9.28525,5.840058 -11.61891,7.031878 -3.97116,2.028121 -12.72942,10.782691 -12.96198,12.956522 -0.0576,0.53812 -0.40087,2.20964 -0.7629,3.71446 -1.34037,5.57137 -0.59613,15.68313 1.44474,19.62977 2.5609,4.95224 8.45122,9.78278 11.92902,9.78278 1.40857,0 8.25118,-1.54036 15.20579,-3.42299 z m -20.55273,-4.08928 c -4.19602,-3.04608 -2.51893,-5.29862 2.15256,-2.89113 4.14475,2.13602 14.54447,1.05686 24.84805,-2.57845 6.45543,-2.27761 12.31233,-2.78001 10.23257,-0.87771 -2.39975,2.19495 -19.01082,7.09618 -26.6081,7.85092 -5.70985,0.56725 -8.27186,0.20467 -10.62508,-1.50363 z m -19.79267,-2.17074 c 8.30617,-2.80504 8.40724,-2.90062 7.59326,-7.18213 -0.45372,-2.38659 -0.99658,-4.54801 -1.20635,-4.80316 -0.20977,-0.25515 -4.89233,1.89949 -10.40569,4.78808 -16.2702,8.5244 -13.67483,13.17245 4.01878,7.19721 z m 133.70367,-23.18912 c 20.50267,-6.139251 44.78734,-13.186172 63.61318,-18.459257 32.4813,-9.097956 63.09007,-19.064609 70.81006,-23.056763 2.30435,-1.191635 5.54106,-3.87184 7.19265,-5.95601 4.53825,-5.726855 3.24315,-18.284808 -2.94723,-28.578106 -5.60111,-9.313452 -17.32927,-20.3707064 -22.75843,-21.4565374 -4.54646,-0.90929 -15.32364,2.155959 -34.51272,9.8161234 -7.14794,2.853409 -17.30553,6.812773 -22.57242,8.798584 -5.2669,1.98581 -20.04157,7.711282 -32.83261,12.723271 -12.79104,5.011989 -32.79841,12.362701 -44.46083,16.334916 -22.28521,7.590335 -62.88199,23.28644 -64.55455,24.958997 -0.53923,0.539218 1.03554,4.056982 3.49946,7.817254 6.40029,9.767667 11.93116,23.472708 12.79381,31.701968 l 0.74225,7.08079 23.41752,-7.99516 c 12.87963,-4.39733 32.03606,-10.57586 42.56986,-13.73007 z m -61.51629,12.42433 c -0.7108,-1.1501 50.39507,-18.395731 83.40469,-28.144832 6.77173,-1.999975 24.93226,-7.535918 40.35675,-12.302099 15.42449,-4.766182 32.04599,-9.649133 36.93669,-10.851004 12.47362,-3.065355 30.9716,-12.099526 32.10843,-15.681342 1.00053,-3.152388 3.46022,-3.911943 3.46022,-1.068518 0,5.583705 -15.06962,14.119183 -34.53266,19.559401 -6.96532,1.946912 -25.28424,7.413603 -40.70873,12.148202 -15.42449,4.734599 -34.50844,10.51972 -42.40879,12.855821 -7.90034,2.33611 -28.46717,8.86725 -45.70404,14.513641 -17.23687,5.6464 -31.51351,10.26617 -31.72585,10.26617 -0.21234,0 -0.74637,-0.58295 -1.18671,-1.29544 z"
     id="path24089"
     inkscape:connector-curvature="0"
     sodipodi:nodetypes="cssssscssssssssssssssssssscssssssssssssssssssssssssssssssssssscssscsssscscssssssssssssccssssssssssssssssssssssscssssssssssscssssssssssssssssscsssscsssssssscssscscsssssssssssssssssssssscsssscssccccsscsssssssssssssscsssscsscsssssssssscscsssscssssssssssssssssssssssscsssssssssssssssssssssssssssssssssscsssssscssssssssssssssssssssssssssssssssssssssssssssssssscsscccsssssssssscsssssssssssssssssssssssssssssssssssscsscsssssssssssssssssssssssssssscssssssssssssss" />
  <path
     style="fill:#1c1c1c;fill-opacity:0.7574257;stroke:none"
     d="m 217.15179,74.847646 c 13.89248,13.237212 17.5569,33.194374 20.89022,50.618594 l -43.38737,10.17728 c -6.23369,-7.09777 -16.22461,-5.97662 -11.78422,-36.423961 7.59379,-10.613001 21.58309,-20.11245 34.28137,-24.371913 z"
     id="path24603"
     inkscape:connector-curvature="0"
     sodipodi:nodetypes="ccccc" />
  <path
     style="fill:#1c1c1c;fill-opacity:0.7574257;stroke:none"
     d="m 157.03826,127.08909 c -1.83015,-0.79135 0.49876,-5.12637 4.94898,-8.10071 3.39017,-2.26584 16.05897,-7.70939 17.10996,-7.70914 0.49763,1.2e-4 0.68477,2.84186 1.34491,6.32882 0.71991,3.80262 -1.08504,4.62354 -6.31496,6.5167 -2.71918,0.98429 -7.42133,2.4706 -10.05261,3.11806 -1.96897,0.48449 -6.27877,0.17382 -7.03628,-0.15373 z"
     id="path24605"
     inkscape:connector-curvature="0"
     sodipodi:nodetypes="sssssss" />
  <path
     style="fill:#1c1c1c;fill-opacity:0.7574257;stroke:none"
     d="m 118.19532,148.38392 c -1.32326,-1.32326 -3.83095,-8.56293 -3.66464,-11.15447 0.0758,-1.18126 -0.0708,-2.1599 1.43065,-3.71719 5.2221,-5.41637 20.16426,-16.31272 27.79882,-20.46778 7.59952,-4.13599 14.42547,-3.89922 17.25236,-1.00374 5.21327,9.95999 -1.37516,2.07451 -4.39685,2.05997 -5.90991,0.0829 -18.76438,6.47654 -27.42478,13.21439 -2.94192,2.28884 -7.44034,7.19185 -8.49278,8.7774 -1.68671,4.00819 0.0954,6.32972 0.052,10.8597 -0.18682,0.7174 -2.08646,1.9 -2.55473,1.43172 z"
     id="path24607"
     inkscape:connector-curvature="0"
     sodipodi:nodetypes="csssccsccc" />
  <path
     style="fill:#1c1c1c;fill-opacity:0.7574257;stroke:none"
     d="m 124.94557,159.17946 c -1.50456,-0.54421 -4.44528,-1.66332 -2.73895,-3.34103 -6.06651,-1.24107 21.32977,-7.74588 29.98996,-11.86715 5.94611,-2.85246 9.12896,-5.36175 11.37457,-7.74221 1.56334,-1.65722 2.4378,-2.21681 2.61047,-4.07704 0.1145,-1.23411 0.46678,-2.98518 0.95539,-3.25905 0.84756,-0.47504 3.47787,1.01157 4.00091,2.63825 0.40967,1.27406 0.99806,2.93926 0.34372,4.26325 -1.58032,3.19761 -8.21095,7.93797 -21.56156,14.60714 -3.23063,2.84678 -15.668,11.58011 -24.97451,8.77784 z"
     id="path24609"
     inkscape:connector-curvature="0"
     sodipodi:nodetypes="cccsccsscc" />
  <path
     style="fill:#1c1c1c;fill-opacity:0.7574257;stroke:none"
     d="m 74.389368,176.06734 c 0.553222,-0.84433 2.259363,-1.96509 3.672191,-1.59898 1.324143,0.34312 2.062975,-0.66774 5.706181,-1.89767 8.771616,-2.96125 15.611489,-8.01353 27.5858,-16.22211 7.78607,-5.33747 9.93682,-7.18818 12.15486,-9.36813 1.35479,-1.33152 1.69741,-1.8744 2.11227,-3.10703 0.26077,-0.77474 0.5531,-1.06178 0.49087,-2.61127 -0.0844,-2.10125 -0.91066,-3.14464 -1.7551,-4.37792 -1.52635,-2.22918 0.46734,-5.06003 2.03423,-2.98722 0.80922,1.07048 3.204,5.67524 3.69537,7.16428 0.95064,2.88081 0.24628,5.37359 -2.38454,7.86298 -1.67773,1.58752 -3.09704,2.81361 -9.45151,7.40698 -20.912991,15.11707 -32.567362,22.42222 -37.93664,23.29363 -3.480688,1.00868 -3.704226,-0.0924 -5.923982,-3.55754 z"
     id="path24611"
     inkscape:connector-curvature="0"
     sodipodi:nodetypes="ccsssssssssscc" />
  <path
     style="fill:#1c1c1c;fill-opacity:0.7574257;stroke:none"
     d="m 68.375983,168.71969 c -2.338125,-2.90142 -1.458891,-5.80284 -1.473028,-8.70425 13.943698,-13.82064 30.248164,-25.28054 48.476005,-34.81703 l 5.49038,2.54432 c -11.48664,13.52672 -29.906931,20.89021 -44.860395,31.33532 l -2.678233,6.96341 c -1.485772,3.37981 -3.112229,4.64935 -4.954729,2.67823 z"
     id="path24615"
     inkscape:connector-curvature="0"
     sodipodi:nodetypes="ccccccc" />
  <path
     style="fill:#1c1c1c;fill-opacity:0.7574257;stroke:none"
     d="m 30.746818,181.84303 -1.740852,-4.95473 c 14.143341,-13.17657 29.414178,-17.33315 44.190834,-25.4432 4.701534,-2.23187 7.567932,-4.46372 0.267824,-6.69558 -22.780357,5.1407 -34.573583,18.65253 -50.618592,28.92491 0.209668,10.56797 -1.271875,15.04809 7.900786,8.1686 z"
     id="path24617"
     inkscape:connector-curvature="0"
     sodipodi:nodetypes="cccccc" />
  <path
     style="fill:#1c1c1c;fill-opacity:0.7574257;stroke:none"
     d="m 33.826784,190.01164 c 14.74921,-3.60299 19.577238,-4.77812 43.789101,-24.77364 l 0.669558,-5.89212 c 8.272282,-10.58407 6.251345,0.55892 5.490376,8.16861 -14.283204,11.25381 -30.468195,21.76803 -51.154239,30.53185 -5.026789,-2.27612 -3.375129,-5.04695 1.205204,-8.0347 z"
     id="path24619"
     inkscape:connector-curvature="0"
     sodipodi:nodetypes="cccccc" />
  <path
     style="fill:#1c1c1c;fill-opacity:0.7574257;stroke:none"
     d="m 14.007864,206.7506 c 5.356465,-12.18596 19.551097,-27.85362 19.551097,-27.85362 4.610062,-3.01826 8.804206,-6.89367 18.613715,0.80347 1.393432,1.54313 -1.448973,2.91671 -4.419083,4.28517 l -10.043372,-0.66957 c -6.360132,7.24144 -12.492828,14.50355 -14.998101,22.09543 l 8.168609,9.64164 c 2.412155,15.68191 -15.970655,-6.89434 -16.872865,-8.30252 z"
     id="path24621"
     inkscape:connector-curvature="0"
     sodipodi:nodetypes="cccccccc" />
  <path
     style="fill:#1c1c1c;fill-opacity:0.7574257;stroke:none"
     d="m 38.647603,213.31227 c 3.979341,-4.78254 13.785068,-20.83931 11.382487,-21.02413 3.411532,-5.81496 6.586296,-5.9475 9.641637,-3.21388 1.180667,14.49166 -12.847465,22.89898 -19.952831,32.94226 -2.530946,-0.80017 -4.16885,-0.97175 -1.071293,-8.70425 z"
     id="path24623"
     inkscape:connector-curvature="0"
     sodipodi:nodetypes="ccccc" />
  <path
     style="fill:#1c1c1c;fill-opacity:0.7574257;stroke:none"
     d="m 34.630254,200.59066 c 3.53988,14.28477 0.616955,26.21943 0.669559,39.2361 -7.964484,7.07048 -9.239902,9.81397 -9.239902,-1.07129 l 5.088641,-6.02603 -1.339116,-29.19273 c -8.230336,-8.32206 0.536895,-8.22064 4.820818,-2.94605 z"
     id="path24625"
     inkscape:connector-curvature="0"
     sodipodi:nodetypes="cccccc" />
  <path
     style="fill:#1c1c1c;fill-opacity:0.7574257;stroke:none"
     d="m 17.891301,195.76985 c 0.07783,2.84121 -4.871502,6.68785 -8.0346967,10.17727 l -1.205205,29.46056 11.2485767,5.22255 -1.339117,5.62429 -14.8641887,-3.07997 c 0.02115,-12.38276 -5.7516439,0.61746 0.937381,-40.97696 4.865456,-3.18001 8.3917937,-9.14727 13.2572497,-6.42774 z"
     id="path24627"
     inkscape:connector-curvature="0"
     sodipodi:nodetypes="cccccccc" />
  <path
     style="fill:#1c1c1c;fill-opacity:0.7574257;stroke:none"
     d="m 22.28741,228.45379 8.72723,-0.41125 -0.267822,6.96341 -5.088643,3.74952 c -0.253435,10.10688 1.399119,21.30289 -0.760305,30.32064 -5.250424,-4.02863 -3.95685,-18.96392 -5.935275,-28.44588 z"
     id="path24629"
     inkscape:connector-curvature="0"
     sodipodi:nodetypes="ccccccc" />
  <path
     style="fill:#1c1c1c;fill-opacity:0.7574257;stroke:none"
     d="m 37.826336,233.42998 4.166352,19.79017 c 2.272555,-0.0989 4.545111,0.96421 6.817668,-0.94689 -1.738254,-7.32292 -1.37864,-13.75426 -5.397321,-21.30522 -3.300511,-0.36749 -7.812335,-1.73564 -5.586699,2.46194 z"
     id="path24631"
     inkscape:connector-curvature="0"
     sodipodi:nodetypes="ccccc" />
  <path
     style="fill:#1c1c1c;fill-opacity:0.7574257;stroke:none"
     d="m 41.613928,262.12099 6.344218,-0.18937 -2.083176,10.22649 c -5.113249,1.25325 -10.2265,3.97494 -15.339749,-0.75752 l 1.041587,-3.97697 7.859255,1.23098 z"
     id="path24633"
     inkscape:connector-curvature="0"
     sodipodi:nodetypes="ccccccc" />
  <path
     style="fill:#1c1c1c;fill-opacity:0.7574257;stroke:none"
     d="m 32.239637,266.95018 4.261042,0.9469 4.82918,-6.72298 c 7.846128,-1.43581 15.468675,-3.29644 25.75563,-0.0947 l 4.355731,4.45042 -0.09469,16.94948 -5.39732,3.21945 1.230967,6.72299 c 5.157354,0.85827 8.369259,-4.11981 11.552157,-9.18491 -0.903028,-8.21446 2.835999,-16.27418 -4.82918,-24.71405 -11.565907,-6.03752 -24.763892,-6.71249 -39.864412,-1.13628 -1.595992,2.85578 -3.827635,5.49968 -1.799101,9.56365 z"
     id="path24635"
     inkscape:connector-curvature="0"
     sodipodi:nodetypes="cccccccccccc" />
  <path
     style="fill:#1c1c1c;fill-opacity:0.7574257;stroke:none"
     d="m 30.25115,276.0404 5.302631,0.18938 1.704416,6.43891 c 4.794468,2.81916 9.54319,5.7007 17.044166,4.82917 l 0.56814,5.49202 -19.695482,-1.8938 C 27.231077,285.89745 29.833264,281.00012 30.25115,276.0404 z"
     id="path24637"
     inkscape:connector-curvature="0"
     sodipodi:nodetypes="ccccccc" />
  <path
     style="fill:#1c1c1c;fill-opacity:0.7574257;stroke:none"
     d="m 61.877549,267.13955 c 2.845819,-0.58929 4.836449,-1.86272 10.03712,-0.56813 l -0.09469,5.30262 c -2.449551,-1.57524 -4.264707,0.23296 -5.96546,2.65132 -3.631204,12.45621 -0.100125,13.6574 1.136278,18.46452 16.281365,-0.92699 33.415013,1.04378 48.575873,-3.6929 l 3.40884,-4.26104 6.4389,0 -6.72297,9.75305 c -18.46452,4.75413 -36.929031,4.12443 -55.393545,5.96545 l -6.249527,-14.29817 c 1.483642,-6.51191 -0.956719,-15.2956 4.829185,-19.31672 z"
     id="path24639"
     inkscape:connector-curvature="0"
     sodipodi:nodetypes="cccccccccccc" />
  <path
     style="fill:#1c1c1c;fill-opacity:0.7574257;stroke:none"
     d="m 110.64281,288.72884 c 1.79327,1.5651 3.73041,1.11618 5.77608,-0.85221 l 2.36724,-3.40884 37.40247,-6.24953 c 3.46425,-1.98848 0.38171,-3.97697 0.56814,-5.96545 -12.57638,-0.9691 -5.53444,-3.7017 -45.73517,5.96545 -3.01275,3.50352 -4.15145,7.00705 -0.37876,10.51058 z"
     id="path24641"
     inkscape:connector-curvature="0"
     sodipodi:nodetypes="ccccccc" />
  <path
     style="fill:#1c1c1c;fill-opacity:0.7574257;stroke:none"
     d="m 114.52509,298.10312 10.03712,-4.63979 29.44854,-3.12476 5.492,4.63979 c -16.81284,1.9913 -43.77846,9.27971 -44.97766,3.12476 z"
     id="path24643"
     inkscape:connector-curvature="0"
     sodipodi:nodetypes="ccccc" />
  <path
     style="fill:#1c1c1c;fill-opacity:0.7574257;stroke:none"
     d="m 79.868614,263.25727 0.757519,5.87077 33.046747,-1.7991 4.73449,7.00704 8.80616,-1.51503 -8.61678,-13.63534 z"
     id="path24645"
     inkscape:connector-curvature="0" />
  <path
     style="fill:#1c1c1c;fill-opacity:0.7574257;stroke:none"
     d="m 147.66653,281.53241 1.89379,9.2796 27.27066,-0.9469 -0.75751,-11.55216 z"
     id="path24647"
     inkscape:connector-curvature="0" />
  <path
     style="fill:#1c1c1c;fill-opacity:0.7574257;stroke:none"
     d="m 233.64487,305.20486 c -19.56394,-2.33205 -41.98784,-3.49505 -56.6245,-14.20347 -0.87972,-8.71248 -4.88758,-16.64292 5.68139,-28.21756 13.81867,-4.37974 8.16942,-9.39776 49.42808,-12.87781 15.90596,18.23642 5.84853,42.00746 1.51503,55.29884 z"
     id="path24649"
     inkscape:connector-curvature="0"
     sodipodi:nodetypes="ccccc" />
</svg>
