<?xml version="1.0" encoding="UTF-8" standalone="no"?>
<!-- Created with Inkscape (http://www.inkscape.org/) -->

<svg
   xmlns:dc="http://purl.org/dc/elements/1.1/"
   xmlns:cc="http://creativecommons.org/ns#"
   xmlns:rdf="http://www.w3.org/1999/02/22-rdf-syntax-ns#"
   xmlns:svg="http://www.w3.org/2000/svg"
   xmlns="http://www.w3.org/2000/svg"
   xmlns:sodipodi="http://sodipodi.sourceforge.net/DTD/sodipodi-0.dtd"
   xmlns:inkscape="http://www.inkscape.org/namespaces/inkscape"
   id="svg5289"
   version="1.1"
   inkscape:version="0.48.4 r9939"
   width="136.86723"
   height="492.66562"
   sodipodi:docname="Pepper.svg">
  <metadata
     id="metadata5295">
    <rdf:RDF>
      <cc:Work
         rdf:about="">
        <dc:format>image/svg+xml</dc:format>
        <dc:type
           rdf:resource="http://purl.org/dc/dcmitype/StillImage" />
        <dc:title />
      </cc:Work>
    </rdf:RDF>
  </metadata>
  <defs
     id="defs5293" />
  <sodipodi:namedview
     pagecolor="#ffffff"
     bordercolor="#666666"
     borderopacity="1"
     objecttolerance="10"
     gridtolerance="10"
     guidetolerance="10"
     inkscape:pageopacity="0"
     inkscape:pageshadow="2"
     inkscape:window-width="1280"
     inkscape:window-height="731"
     id="namedview5291"
     showgrid="false"
     inkscape:zoom="0.72392638"
     inkscape:cx="63.877439"
     inkscape:cy="288.08271"
     inkscape:window-x="0"
     inkscape:window-y="22"
     inkscape:window-maximized="0"
     inkscape:current-layer="svg5289"
     fit-margin-top="0"
     fit-margin-left="0"
     fit-margin-right="0"
     fit-margin-bottom="0" />
  <path
     style="fill:#ff0003;fill-opacity:1;stroke:none"
     d="m 20.98505,118.12546 20.617795,-2.37898 -16.652835,22.20379 19.824803,1.58597 10.308897,12.68787 3.96496,3.96497 8.722913,-8.72292 16.652835,5.55094 14.273852,-10.3089 7.13693,3.96497 10.3089,0 -4.75795,-17.44583 7.92992,0 14.27386,19.82481 -1.58599,21.41078 -7.13693,76.92024 1.58599,65.02535 4.75795,77.71322 3.17197,53.13048 -11.10189,32.51266 -12.68787,15.85986 -12.68788,-2.37898 5.55095,-11.1019 -0.79299,-37.27062 L 86.010402,409.94655 48.739772,352.85112 29.707964,317.16647 9.8831611,252.14112 0.36725613,191.87371 4.3322161,145.88019 z"
     id="path5301"
     inkscape:connector-curvature="0" />
  <path
     style="fill:#006007;fill-opacity:0.91089113;stroke:none"
     d="m 45.567805,106.62706 c 15.463346,5.94746 15.463346,5.94746 15.463346,5.94746 l -5.550944,13.48086 5.154448,5.94743 15.066849,2.77547 9.515906,-1.58597 11.10189,-7.53343 -1.98248,-11.1019 18.63531,0 12.68788,6.34395 -13.87737,5.15445 0,5.55094 5.15445,13.08437 -1.58598,3.17196 -19.03181,-2.37897 -7.92992,6.74043 -3.568467,2.77548 -18.635314,-7.13694 -9.515905,9.51591 -3.171968,-13.87735 -15.859843,-7.53343 -11.498384,0 15.859841,-18.23882 z"
     id="path5827"
     inkscape:connector-curvature="0" />
  <path
     style="fill:#2ea437;fill-opacity:1;stroke:#000000;stroke-width:1.6237092px;stroke-linecap:butt;stroke-linejoin:miter;stroke-opacity:1"
     d="m 55.776491,124.87424 5.046571,5.32694 18.223728,4.48584 12.61643,-4.20548 2.80365,-6.16803 L 85.21482,77.772911 83.252265,47.77386 71.476933,15.251517 63.065983,3.7565486 41.477874,1.2332558 23.814877,4.3172804 8.6751641,14.690785 l 5.3269349,14.578977 9.812778,-5.04657 17.102267,-2.803642 10.934237,7.28948 8.130585,20.46666 5.046571,21.868473 -0.56073,24.672111 -2.523284,15.700436 z"
     id="path5829"
     inkscape:connector-curvature="0" />
  <path
     style="fill:#000000"
     d="m 100.03878,490.24419 c -3.11395,-3.11394 -3.11605,-3.18979 -0.21203,-7.65375 3.16134,-4.85952 3.06679,-30.08274 -0.1562,-41.66851 C 96.35717,429.0112 89.83354,416.52169 79.256461,401.83909 74.420026,395.12538 68.375962,385.99201 65.825207,381.54273 63.274453,377.09344 57.239984,367.77827 52.415275,360.84235 30.700017,329.62485 18.039903,294.66426 3.4752071,225.69558 c -4.633463,-21.94099 -4.633619,-49.51536 -4.11e-4,-72.43491 5.825999,-28.82002 11.7640799,-36.45249 29.8090719,-38.31491 8.530798,-0.88045 8.99726,-1.16234 8.99726,-5.43725 0,-5.86863 2.675827,-6.64619 10.083497,-2.93017 3.313323,1.66211 6.358121,3.02203 6.766217,3.02203 1.368627,0 4.25853,-16.315467 4.256286,-24.029628 C 63.384528,76.61329 59.359586,52.528925 57.168121,48.357519 56.332013,46.766008 55.13566,42.371228 54.509561,38.591363 53.254423,31.013837 46.317833,23.673583 40.126913,23.371736 31.303519,22.941534 26.451844,24.046517 21.252977,27.67036 16.052569,31.295274 15.440833,31.386494 12.737616,28.940116 10.289998,26.725052 6.6004061,17.475674 6.5685811,13.475066 6.5635811,12.848996 11.491542,9.5609846 17.519563,6.1683736 28.112872,0.2063896 29.005333,0 44.191698,0 57.59663,0 60.576949,0.4992418 64.488063,3.3998847 69.551344,7.1550366 77.165368,21.198791 78.930638,30.038621 c 0.624174,3.12564 2.497413,8.393878 4.162751,11.707203 2.060314,4.099167 3.031825,9.547215 3.04021,17.048946 0.01646,14.72904 2.519351,35.141598 5.532711,45.12262 l 2.45106,8.11854 10.44282,-0.53683 c 10.38788,-0.53402 15.08757,0.89811 22.80068,6.94798 2.54795,1.99853 2.72463,2.84887 1.01897,4.90406 -1.13491,1.36747 -4.34867,2.49751 -7.1417,2.51118 -8.45641,0.0414 -9.5568,1.71352 -5.87722,8.93081 1.779,3.4894 3.23454,8.01654 3.23454,10.0603 0,3.53397 -0.58255,3.71596 -11.89478,3.71596 -10.58837,0 -12.31363,0.44584 -15.70828,4.05927 -4.656626,4.95676 -6.133973,5.00328 -16.552625,0.52129 l -8.224241,-3.53796 -4.254584,5.17632 c -5.191767,6.31654 -6.035326,6.39152 -7.185881,0.63875 -2.096965,-10.48484 -11.592065,-16.56961 -25.889542,-16.59087 -3.699899,-0.005 -6.088909,-0.78537 -6.088909,-1.98763 0,-1.08822 3.786805,-5.81302 8.415123,-10.49955 l 8.415123,-8.52097 -7.051146,0.8499 c -14.726232,1.77502 -19.309833,7.46695 -25.3785879,31.51516 -4.910239,19.45744 -4.283267,56.30879 1.426643,83.85331 8.9003389,42.93511 23.2628319,87.03314 33.7131899,103.51164 2.648411,4.17612 4.815293,7.95635 4.815293,8.40054 0,0.44419 3.926614,6.44684 8.72581,13.33922 4.799194,6.89237 9.948843,14.93759 11.44366,17.87827 1.494819,2.94067 7.005154,11.34337 12.245187,18.67266 13.236677,18.51426 20.730147,32.27668 23.595857,43.33584 2.89778,11.18289 3.33769,42.32474 0.63604,45.0264 -2.12956,2.12956 -0.5729,5.33734 2.59008,5.33734 3.90109,0 12.24954,-8.30839 16.12002,-16.04267 2.06458,-4.12562 5.41684,-12.55512 7.44946,-18.73226 3.61528,-10.98683 3.6529,-11.81685 1.72939,-38.15717 -1.08145,-14.8093 -3.0131,-34.23271 -4.29255,-43.16311 -3.78634,-26.42822 -6.03838,-95.45515 -3.94658,-120.96633 0.98854,-12.05604 2.04109,-28.86143 2.339,-37.34531 0.29791,-8.48388 1.84166,-26.13783 3.43055,-39.23099 l 2.88891,-23.80576 -4.49585,-9.18917 c -2.60087,-5.31599 -6.13279,-9.93502 -8.37952,-10.9587 -4.24106,-1.93235 -5.19159,-4.49568 -1.66709,-4.49568 3.95733,0 11.10847,6.89162 14.18883,13.6739 3.63244,7.99786 3.79754,17.81995 0.64353,38.28479 -1.30753,8.48388 -2.44483,22.00126 -2.52734,30.03862 -0.0825,8.03736 -1.06963,24.84275 -2.1936,37.34532 -1.12396,12.50256 -1.83257,27.48127 -1.57469,33.28603 0.25789,5.80476 0.8321,22.97549 1.27604,38.15717 0.44394,15.18168 1.59178,34.17908 2.55076,42.21644 8.56473,71.78258 8.84032,81.38639 2.80692,97.81572 -6.25654,17.03696 -9.95941,23.61891 -16.53602,29.39326 -6.38574,5.60675 -12.20001,6.53205 -16.16028,2.57177 z M 66.840698,145.32197 c 1.680391,0 5.781798,1.46134 9.114235,3.24742 8.354801,4.4779 10.403965,4.13812 16.488077,-2.734 3.78941,-4.28021 5.65506,-5.39971 6.55959,-3.93615 0.69522,1.12489 4.29202,2.45139 7.99289,2.9478 5.68693,0.76277 6.72884,0.4591 6.72884,-1.96112 0,-1.575 -1.5427,-5.35977 -3.42823,-8.41062 -3.29477,-5.33106 -3.31571,-5.67131 -0.53799,-8.74067 1.58963,-1.75651 5.14168,-3.78759 7.89343,-4.51349 l 5.00319,-1.31981 -5.29895,-2.76794 c -4.00161,-2.09027 -7.30101,-2.50235 -13.47632,-1.68317 -8.04599,1.06734 -8.16048,1.16162 -7.12659,5.86888 2.77132,12.61773 -20.333103,20.24265 -36.307232,11.9821 -8.119253,-4.19862 -8.956825,-6.37209 -5.024153,-13.03746 1.924622,-3.262 3.226065,-6.18825 2.892096,-6.50278 -0.333968,-0.31454 -3.269816,-1.67505 -6.524106,-3.02336 l -5.916892,-2.45149 -0.905395,4.52698 c -0.497967,2.48983 -3.917013,8.00662 -7.597882,12.25954 -7.100016,8.20342 -6.7476,10.42419 1.664404,10.48828 4.768769,0.0364 14.322383,5.48971 15.642071,8.92876 0.69558,1.81265 1.67128,1.99428 4.004747,0.74543 2.134669,-1.14244 3.085111,-1.11758 3.085111,0.0807 0,0.95248 -1.091807,2.15077 -2.426238,2.66283 -1.33443,0.51207 -1.9392,1.71909 -1.343931,2.68224 0.673211,1.08928 1.972024,0.41124 3.436141,-1.79384 1.294607,-1.94978 3.728697,-3.54506 5.409087,-3.54506 z m -23.747715,-11.36596 -4.871128,-1.2395 5.181229,-0.19211 c 2.849676,-0.10571 5.632806,0.53857 6.184736,1.43161 1.110545,1.79689 0.566872,1.79689 -6.494837,0 z m -0.863896,-9.94003 c 2.787887,-2.78787 5.40869,-4.72907 5.824004,-4.31375 1.097621,1.09761 -6.908468,9.38265 -9.066751,9.38265 -1.004378,0 0.454859,-2.281 3.242747,-5.0689 z m 5.735023,-9.54448 c -0.551929,-0.89304 -0.272838,-1.62371 0.620202,-1.62371 0.89304,0 2.075287,0.73067 2.627217,1.62371 0.551929,0.89304 0.272838,1.6237 -0.620202,1.6237 -0.89304,0 -2.075287,-0.73066 -2.627217,-1.6237 z m 33.807959,15.01931 c -0.816216,-2.31957 -0.598085,-2.46869 1.187555,-0.81186 2.611106,2.42275 5.395796,2.70723 3.973507,0.40593 -0.551929,-0.89304 0.500949,-1.62371 2.339739,-1.62371 4.30172,0 4.23552,-1.95478 -0.67991,-20.0771 C 85.934873,97.584194 84.063649,84.8384 83.078062,69.819496 82.181689,56.160059 80.597166,44.81944 79.107902,41.404585 77.74477,38.278945 75.006231,30.380915 73.022259,23.853425 70.142109,14.377393 68.277568,11.117651 63.771713,7.6808756 53.166838,-0.4078596 27.473475,1.461939 15.721599,11.177647 c -4.030129,3.331868 -4.484019,4.543301 -3.45596,9.224032 l 1.183494,5.388409 2.106303,-4.776498 c 1.158467,-2.62708 2.165647,-3.820035 2.238178,-2.65103 0.07253,1.169006 0.854177,1.679045 1.736987,1.133447 0.93834,-0.579924 1.220526,0.22339 0.679303,1.933805 -0.833648,2.634565 -0.710572,2.667803 1.23638,0.333818 1.189203,-1.425616 3.440859,-2.403609 5.003679,-2.173318 1.562821,0.23029 2.85268,-0.429975 2.866355,-1.467249 0.01413,-1.066614 0.708676,-0.827848 1.598846,0.549593 1.143724,1.769795 1.580778,1.854552 1.598845,0.310096 0.01364,-1.169005 0.837225,-1.623384 1.830109,-1.009752 0.992885,0.613632 2.443036,0.108788 3.222556,-1.121967 1.112479,-1.756382 1.422657,-1.780511 1.442172,-0.112198 0.01364,1.169022 0.755533,1.673898 1.648573,1.121967 0.89304,-0.551932 1.623709,-0.186597 1.623709,0.811854 0,0.998451 0.730669,1.363786 1.623709,0.811855 0.89304,-0.551931 1.634899,-0.04709 1.648573,1.12195 0.02013,1.720629 0.286353,1.712965 1.397748,-0.04027 1.097371,-1.731133 1.578856,-1.629018 2.399233,0.508838 0.564491,1.471048 1.762178,2.219854 2.661524,1.664026 0.899348,-0.55586 1.635178,-0.111711 1.635178,0.986972 0,1.098683 1.239854,3.367638 2.755233,5.04212 1.586218,1.752746 2.686656,5.463798 2.593604,8.746532 -0.146735,5.176694 0.04556,5.431567 2.08722,2.76633 2.011956,-2.626447 2.139649,-2.353226 1.212211,2.593827 -0.662488,3.533775 -0.44773,5.165554 0.595023,4.521104 0.950561,-0.587474 1.691744,1.104821 1.7756,4.054126 0.07917,2.784418 0.737647,5.49926 1.463289,6.033005 0.725642,0.533762 1.41583,3.162466 1.533754,5.841586 0.11793,2.679121 0.781023,6.629394 1.473555,8.778373 0.729657,2.264198 0.639496,3.524602 -0.214406,2.997302 -0.810455,-0.500476 -1.581238,0.88372 -1.712849,3.075971 -0.222301,3.702853 -0.08183,3.778274 1.977997,1.061971 2.920465,-3.851227 2.840054,-0.786573 -0.114991,4.382748 -2.71376,4.747223 -3.192751,8.428431 -0.633823,4.871128 1.47513,-2.050647 1.599505,-1.986495 0.786991,0.405927 -0.530761,1.56282 -1.454525,4.057357 -2.052808,5.543409 -0.735823,1.827698 -0.47314,2.322068 0.811854,1.527898 2.771151,-1.712677 2.3266,1.51305 -0.535923,3.88873 -1.33956,1.111736 -2.435564,3.117346 -2.435564,4.456906 0,1.998 0.444604,2.06657 2.474803,0.38165 1.36114,-1.12965 2.860957,-1.66775 3.332926,-1.19578 0.471968,0.47198 -1.007026,2.32526 -3.286657,4.11842 -2.279633,1.79315 -4.144784,3.7926 -4.144784,4.44319 0,0.6506 1.096004,0.27331 2.435564,-0.83842 1.662615,-1.37985 2.435563,-1.44731 2.435563,-0.21258 0,0.99482 -1.461338,2.72139 -3.247418,3.83681 -1.78608,1.11542 -3.247418,2.62607 -3.247418,3.357 0,0.73093 0.662528,0.91949 1.472283,0.41905 1.810178,-1.11875 0.284344,5.63188 -1.905614,8.43088 -0.873405,1.1163 -1.031089,2.02964 -0.350413,2.02964 0.680677,0 2.097596,-1.17612 3.148707,-2.61361 1.713869,-2.34385 2.402669,-2.18156 6.673839,1.5724 5.646881,4.9631 12.524139,5.87053 10.967628,1.44714 z M 68.388662,64.813065 c 0.07791,-1.89154 0.462662,-2.276278 0.980992,-0.980997 0.469042,1.172107 0.411357,2.572557 -0.128192,3.112115 -0.539546,0.539543 -0.923308,-0.419469 -0.852804,-2.131118 z M 13.182549,16.101789 c 0.07791,-1.89154 0.462662,-2.276278 0.980992,-0.980997 0.469042,1.172107 0.411357,2.572556 -0.128192,3.112115 -0.539545,0.539542 -0.923308,-0.419469 -0.852804,-2.131118 z M 60.94229,124.23234 c 0.568848,-0.92041 -0.08291,-1.19261 -1.527883,-0.63813 -2.812941,1.07942 -3.327609,2.24325 -0.992013,2.24325 0.840336,0 1.974289,-0.72231 2.519896,-1.60512 z M 17.410959,21.615629 c -0.51833,-1.295281 -0.903079,-0.910543 -0.980991,0.980997 -0.0705,1.711649 0.313259,2.67066 0.852804,2.131118 0.539544,-0.539559 0.59723,-1.940008 0.128192,-3.112115 z M 108.47967,481.02385 c 0.90629,-1.1163 2.06551,-3.49098 2.57606,-5.27706 0.52033,-1.82032 0.67947,-1.19834 0.36212,1.41536 l -0.56615,4.66277 3.81349,-4.66277 c 4.36202,-5.33348 5.22435,-4.08797 1.30796,1.88918 -1.44226,2.20119 -4.08907,4.00215 -5.88179,4.00215 -2.40395,0 -2.82698,-0.53273 -1.61169,-2.02963 z m 2.424,-16.09257 c -0.19688,-2.61357 0.19915,-3.00959 1.60437,-1.60437 1.22886,1.22886 1.3181,2.41345 0.2614,3.47014 -1.05669,1.0567 -1.69361,0.41978 -1.86577,-1.86577 z M 98.40349,408.83882 c -0.88116,-2.31411 -0.69466,-2.50061 0.90894,-0.90895 1.10968,1.10142 1.60856,2.41159 1.10865,2.91152 -0.49992,0.49992 -1.40784,-0.40124 -2.01759,-2.00257 z M 92.7443,394.42603 c 0.0779,-1.89154 0.46266,-2.27628 0.98099,-0.981 0.46904,1.17211 0.41136,2.57256 -0.12819,3.11212 -0.53955,0.53954 -0.92331,-0.41947 -0.8528,-2.13112 z M 77.124111,369.28582 c -0.588648,-0.95246 -0.722036,-2.07998 -0.296416,-2.5056 0.425619,-0.42562 1.206523,0.35366 1.73534,1.73174 1.097927,2.86115 0.162128,3.36442 -1.438924,0.77386 z M 65.729324,352.39653 c -1.733508,-1.31115 -2.327961,-2.40715 -1.321009,-2.43557 1.006953,-0.0284 2.740425,1.04437 3.85216,2.38393 2.566747,3.09275 1.517837,3.11415 -2.531151,0.0516 z m -9.42809,-18.04701 c -2.558903,-2.25019 -4.332308,-4.41147 -3.9409,-4.80288 0.391406,-0.39141 2.804423,1.47273 5.362259,4.14253 5.651386,5.89878 4.921445,6.2379 -1.421359,0.66035 z m -7.024619,-12.35899 c -1.957242,-0.94583 -3.946286,-2.72991 -4.420097,-3.96465 -0.51326,-1.33753 1.089249,-0.80274 3.964549,1.32307 6.501538,4.80679 6.643851,5.63201 0.455548,2.64158 z m -8.594938,-15.8464 c -2.219256,-1.70515 -3.680595,-3.45007 -3.247418,-3.87763 0.433178,-0.42755 2.979604,0.98019 5.658724,3.12831 5.733358,4.59699 3.499822,5.29108 -2.411306,0.74932 z m -5.301313,-13.99334 c -2.45586,-1.33233 -4.4652,-2.76441 -4.4652,-3.18242 0,-1.56839 2.566277,-0.58554 6.494837,2.48743 4.825444,3.77452 4.102885,4.02194 -2.029637,0.69499 z m -4.111875,-16.52616 c -3.883673,-3.79542 -3.948406,-3.98172 -0.431544,-1.2421 6.929763,5.39826 7.26069,5.7073 6.11156,5.7073 -0.611039,0 -3.167046,-2.00934 -5.680016,-4.4652 z m -5.257018,-17.49412 c -1.129647,-1.36113 -1.739455,-2.78924 -1.355131,-3.17357 0.384325,-0.38431 1.59064,0.72934 2.680703,2.47481 2.357322,3.77467 1.571146,4.18911 -1.325572,0.69876 z m -3.337745,-14.83126 -3.936381,-4.31641 5.277055,3.80991 c 5.489077,3.96297 6.190938,4.8229 3.936381,4.8229 -0.737371,0 -3.112045,-1.94238 -5.277055,-4.3164 z m -1.391781,-12.61648 c -2.037448,-2.16876 -3.318501,-4.90877 -2.846786,-6.08891 0.665487,-1.66491 0.886388,-1.62342 0.985853,0.18521 0.0705,1.282 1.716891,4.02201 3.658641,6.08891 1.94175,2.0669 3.165119,3.758 2.718599,3.758 -0.44652,0 -2.478858,-1.77444 -4.516307,-3.94321 z m -6.636438,-37.50062 c -1.129647,-1.36114 -1.739456,-2.78924 -1.355132,-3.17358 0.384326,-0.38431 1.590641,0.72934 2.680703,2.47481 2.357323,3.77467 1.571147,4.18911 -1.325571,0.69877 z m 0.988757,-9.01575 c -2.311986,-2.74762 -4.203611,-5.79208 -4.203611,-6.76544 0,-2.22883 0.501509,-1.71163 5.541067,5.71458 4.982837,7.34262 4.365107,7.82798 -1.337456,1.05086 z m 2.409075,-10.64849 c -1.850897,-2.35303 -3.343049,-5.09304 -3.315892,-6.08891 0.02715,-0.99587 0.860106,-0.34933 1.851001,1.43675 0.990894,1.78608 2.908594,4.52609 4.261553,6.08891 1.352959,1.56282 2.034379,2.84149 1.514266,2.84149 -0.520113,0 -2.460031,-1.92521 -4.310928,-4.27824 z m -2.620178,-12.06687 c -0.588648,-0.95245 -0.722036,-2.07997 -0.296416,-2.5056 0.425619,-0.42562 1.206523,0.35366 1.735341,1.73174 1.097926,2.86115 0.162127,3.36442 -1.438925,0.77386 z m 0,-9.74226 c -0.588648,-0.95245 -0.722036,-2.07997 -0.296416,-2.50559 0.425619,-0.42563 1.206523,0.35366 1.735341,1.73173 1.097926,2.86116 0.162127,3.36442 -1.438925,0.77386 z m 2.89507,-8.3893 c 0.180924,-2.58139 0.913502,-3.83559 1.75112,-2.99797 0.83762,0.83763 0.707493,2.69427 -0.31105,4.43804 -1.536554,2.63064 -1.713007,2.45419 -1.44007,-1.44007 z"
     id="path5299"
     inkscape:connector-curvature="0" />
</svg>
