<?xml version="1.0" encoding="UTF-8" standalone="no"?>
<!-- Created with Inkscape (http://www.inkscape.org/) -->

<svg
   xmlns:dc="http://purl.org/dc/elements/1.1/"
   xmlns:cc="http://creativecommons.org/ns#"
   xmlns:rdf="http://www.w3.org/1999/02/22-rdf-syntax-ns#"
   xmlns:svg="http://www.w3.org/2000/svg"
   xmlns="http://www.w3.org/2000/svg"
   xmlns:sodipodi="http://sodipodi.sourceforge.net/DTD/sodipodi-0.dtd"
   xmlns:inkscape="http://www.inkscape.org/namespaces/inkscape"
   id="svg6083"
   version="1.1"
   inkscape:version="0.48.4 r9939"
   width="213.74435"
   height="496.57462"
   sodipodi:docname="Pharmaceuticals.svg">
  <metadata
     id="metadata6089">
    <rdf:RDF>
      <cc:Work
         rdf:about="">
        <dc:format>image/svg+xml</dc:format>
        <dc:type
           rdf:resource="http://purl.org/dc/dcmitype/StillImage" />
        <dc:title />
      </cc:Work>
    </rdf:RDF>
  </metadata>
  <defs
     id="defs6087" />
  <sodipodi:namedview
     pagecolor="#ffffff"
     bordercolor="#666666"
     borderopacity="1"
     objecttolerance="10"
     gridtolerance="10"
     guidetolerance="10"
     inkscape:pageopacity="0"
     inkscape:pageshadow="2"
     inkscape:window-width="1214"
     inkscape:window-height="739"
     id="namedview6085"
     showgrid="false"
     inkscape:zoom="0.73352613"
     inkscape:cx="171.03346"
     inkscape:cy="246.66351"
     inkscape:window-x="1"
     inkscape:window-y="22"
     inkscape:window-maximized="0"
     inkscape:current-layer="svg6083"
     fit-margin-top="0"
     fit-margin-left="0"
     fit-margin-right="0"
     fit-margin-bottom="0" />
  <path
     style="fill:#000000"
     d="m 134.85655,0.46742278 3.73909,0.81072242 -0.43327,12.4362078 c -0.23829,6.839909 -1.21152,15.801391 -2.16272,19.914392 -0.95118,4.113002 -1.73773,9.02056 -1.74786,10.905686 -0.016,2.960289 0.47737,3.427501 3.61873,3.427501 5.5537,0 7.58013,1.218371 7.58013,4.557517 0,4.048664 -3.36935,10.398851 -5.51753,10.398851 -0.94294,0 -2.90954,2.025541 -4.3702,4.501194 -3.05241,5.173433 -4.03568,16.91933 -3.90096,46.599716 0.0767,16.88223 0.40165,19.28452 4.93596,36.48155 3.8794,14.71319 5.9255,20.09325 10.1912,26.79683 10.89484,17.12136 19.10431,23.46047 36.62531,28.28098 11.96752,3.2926 13.79069,4.37172 14.90815,8.82407 0.47404,1.88874 1.66365,3.06479 3.10012,3.06479 1.282,0 3.46579,0.98151 4.85288,2.18113 2.26532,1.95918 2.65923,4.59106 3.87077,25.86206 4.17804,73.35419 4.29303,79.61959 2.49341,135.85368 -0.96526,30.16201 -1.60597,62.61962 -1.42382,72.12803 0.32857,17.15108 0.30583,17.31151 -2.86853,20.25342 -1.75985,1.63096 -3.88732,2.9654 -4.72773,2.9654 -0.8404,0 -2.63432,0.73564 -3.98646,1.63475 -4.86011,3.23175 -21.33573,9.30335 -30.50166,11.24049 -15.89,3.35819 -40.65255,5.82057 -66.68047,6.63065 -23.382005,0.72774 -26.163478,0.56615 -44.869096,-2.60661 C 27.550703,488.51667 17.390106,485.57589 5.11008,478.42341 L 0,475.44706 0.305172,457.07205 c 1.32572,-79.82198 1.68557,-154.21091 0.806373,-166.69233 -1.563863,-22.20127 0.08139,-62.04567 2.712836,-65.69713 8.973073,-12.45148 10.603043,-14.13303 15.214029,-15.69571 14.437943,-4.89306 26.131106,-12.13415 37.628466,-23.30174 10.38893,-10.09093 11.97504,-12.25335 15.796093,-21.53556 6.15163,-14.94367 8.46619,-25.90619 12.42631,-58.85492 0.288209,-2.39801 -2.510352,-29.738939 -3.380748,-33.028629 -1.886584,-7.130337 -3.012636,-8.62646 -6.529514,-8.67533 -3.484547,-0.04848 -3.543201,-0.170577 -3.614518,-7.527403 l -0.07254,-7.478184 5.986585,-0.382596 c 3.607376,-0.23054 6.245466,-1.057204 6.63797,-2.080057 C 84.643008,44.229259 81.130594,14.751216 79.413092,8.3273927 78.425149,4.632223 78.622162,4.0968224 81.351762,3.0590249 86.53348,1.0889471 128.37572,-0.93777918 134.85651,0.46742278 z M 101.2356,4.3891446 c 0.51843,0.8388404 -0.32232,1.0143409 -2.382317,0.4973117 -2.12255,-0.5327209 -3.84851,-0.1339966 -5.17892,1.1964098 -1.09747,1.0974858 -1.39448,1.9954163 -0.66002,1.9954163 0.73447,0 1.33539,0.5608643 1.33539,1.2463643 0,0.6855003 -2.57063,1.2463643 -5.712501,1.2463643 -3.953828,0 -5.555829,0.470041 -5.203582,1.526771 0.319181,0.957531 2.401694,1.390095 5.585693,1.160203 2.79223,-0.2016 5.44737,0.233082 5.90032,0.965969 0.53531,0.866124 -1.2743,1.403618 -5.17024,1.53567 l -5.993787,0.203145 6.855007,0.840062 6.855,0.840062 -6.54341,0.203145 c -3.59888,0.111799 -6.543415,0.737598 -6.543415,1.390805 0,0.668088 2.862512,0.959264 6.543415,0.665608 5.06546,-0.404121 5.69886,-0.283411 2.80432,0.534441 -3.58945,1.014179 -3.61439,1.068271 -0.62319,1.35127 2.2042,0.208542 1.4508,0.643561 -2.57482,1.486738 -5.378151,1.126452 -5.661337,1.392201 -5.155588,4.838111 0.487353,3.320513 0.995633,3.66198 5.690738,3.82306 l 5.15558,0.176859 -4.98545,0.827075 -4.985459,0.827087 7.166589,1.009206 c 3.94163,0.555068 7.166597,1.452949 7.166597,1.995279 0,0.542343 -0.981507,0.793099 -2.181137,0.557237 -8.23455,-1.61899 -11.528867,-1.592255 -11.528867,0.0936 0,1.355695 1.37894,1.637573 5.920227,1.210219 4.73337,-0.445425 5.17063,-0.34528 2.18114,0.499568 l -3.73909,1.05668 4.36227,0.324329 4.36228,0.324329 -4.98546,0.892633 -4.98546,0.892633 4.74743,0.17686 c 2.61108,0.09734 4.44275,0.669833 4.07037,1.27235 -0.37237,0.602518 -3.35001,0.80833 -6.61697,0.457354 -6.01166,-0.645841 -6.896279,0.421395 -1.4347,1.730875 1.63513,0.392031 11.453937,1.001566 21.819547,1.354511 l 18.84661,0.641703 0.70899,-7.313826 c 0.38995,-4.022665 1.27902,-9.837776 1.97573,-12.922527 0.69669,-3.084751 1.29114,-9.955332 1.32099,-15.267959 l 0.0542,-9.6593217 -17.52266,0 c -11.81456,0 -17.26166,0.4222806 -16.72147,1.2963183 z M 92.480183,26.616863 c -4.812472,0.647187 -4.725975,0.697528 2.49273,1.450506 l 7.478177,0.78005 -7.789767,0.209526 c -6.186454,0.166402 -7.789777,-0.175276 -7.789777,-1.66002 0,-1.401424 1.326356,-1.817086 5.297047,-1.660032 l 5.29705,0.209526 -4.98546,0.670444 z M 84.067227,8.9037247 c 0.856875,0.345754 2.259035,0.345754 3.11591,0 0.856875,-0.345754 0.155795,-0.628654 -1.557955,-0.628654 -1.713751,0 -2.41483,0.2829 -1.557955,0.628654 z m -7.62352,42.2827873 c -1.299198,0.498546 -2.035799,2.23068 -2.035799,4.787222 l 0,4.006026 20.876595,0.167998 c 11.482127,0.09236 26.625447,-0.141699 33.651817,-0.52022 l 12.77523,-0.688205 0,-3.411423 c 0,-1.876289 -0.34278,-3.754223 -0.76175,-4.173188 -1.0121,-1.012085 -61.893266,-1.170847 -64.506093,-0.16821 z M 118.33446,65.76512 c -0.86115,-0.311852 -1.24869,-1.079962 -0.86121,-1.706908 1.03953,-1.682005 -1.17258,-1.385159 -3.11527,0.418043 -1.36507,1.267042 -1.4833,1.208849 -0.63322,-0.311591 0.91997,-1.645412 0.7774,-1.651955 -1.18924,-0.05459 -3.23087,2.624157 -6.09089,2.813255 -5.1418,0.33997 0.62436,-1.627053 0.27257,-1.56198 -1.82672,0.33784 -1.80838,1.636563 -2.38459,1.791611 -1.8925,0.509252 0.84678,-2.206675 -3.826097,-2.97117 -5.142407,-0.841321 -0.54505,0.88189 -0.12755,1.100789 1.15834,0.607353 1.411757,-0.541744 1.804127,-0.233643 1.317467,1.034557 -0.4325,1.1271 -2.634267,1.876439 -5.856747,1.99326 l -5.1637,0.187204 5.60864,0.747569 c 4.452057,0.593419 5.532317,1.200797 5.238577,2.945395 -0.20353,1.208786 0.63777,2.610946 1.86955,3.115898 1.61308,0.661258 0.67059,1.127237 -3.369037,1.665678 l -5.60863,0.747569 5.38103,0.187204 c 4.777917,0.166178 5.292367,0.466552 4.589877,2.679882 -0.74281,2.340385 -0.22397,2.492728 8.48934,2.492728 9.15841,0 9.3011,-0.04973 10.84585,-3.77905 1.65474,-3.994921 0.65828,-6.777865 -1.3116,-3.663039 -0.85569,1.35304 -1.16452,1.405961 -1.1786,0.201936 -0.01,-0.897332 -0.57995,-1.284877 -1.26545,-0.861213 -0.6855,0.423664 -1.24636,-0.104071 -1.24636,-1.172803 0,-1.068708 0.84129,-2.027224 1.86954,-2.130049 1.02825,-0.102825 2.57063,-0.243041 3.4275,-0.311591 1.58898,-0.127117 4.54982,-4.152424 4.6297,-6.294138 0.0243,-0.651226 -0.62887,-0.51101 -1.45147,0.311591 -0.8226,0.8226 -2.29343,1.495636 -3.26851,1.495636 -1.50102,0 -1.51387,-0.334474 -0.0838,-2.181137 1.58266,-2.0437 1.53338,-2.053945 -0.78215,-0.162638 -1.35919,1.110174 -3.17583,1.763356 -4.03698,1.451503 z m 10.93254,3.770152 c -0.01,0.554582 0.54178,0.661695 1.22728,0.238031 0.6855,-0.423665 1.23777,-1.718712 1.22728,-2.87788 -0.0164,-1.816289 -0.18607,-1.849193 -1.22728,-0.238031 -0.66451,1.028251 -1.21679,2.323298 -1.22728,2.87788 z M 83.132454,67.903756 c 0,0.685501 0.841296,1.246364 1.869546,1.246364 1.02825,0 1.869546,-0.560863 1.869546,-1.246364 0,-0.6855 -0.841296,-1.246364 -1.869546,-1.246364 -1.02825,0 -1.869546,0.560864 -1.869546,1.246364 z m 42.683916,11.751942 c -3.11138,6.404167 -3.5339,6.518982 -21.80732,5.925962 -11.770887,-0.381998 -12.152047,-0.485184 -12.152047,-3.289428 0,-1.59228 -1.12988,-4.21913 -2.51084,-5.837459 l -2.510836,-2.942391 0.3297,19.318643 c 0.528346,30.958145 -3.71222,54.362995 -13.837031,76.370365 -2.524648,5.48759 -6.629236,10.87902 -14.02015,18.41559 -8.748952,8.92141 -12.479631,11.6849 -22.914041,16.97352 -6.855002,3.47443 -14.143091,6.71645 -16.195765,7.2045 -4.476628,1.06439 -6.86197,2.87264 -6.86197,5.20185 0,2.77519 5.94138,2.10279 6.855002,-0.77579 0.435144,-1.371 1.382904,-2.49273 2.106144,-2.49273 0.788986,0 0.662816,0.78582 -0.31543,1.96455 -2.245175,2.70526 -0.336207,3.7411 11.296109,6.12954 5.141251,1.05565 13.554209,3.08058 18.69546,4.49984 16.305334,4.50117 37.943598,6.27534 59.202285,4.85415 21.00542,-1.40425 36.01909,-3.21414 47.98501,-5.78454 4.45575,-0.95714 10.62525,-2.2501 13.71001,-2.87323 3.08475,-0.62313 7.18751,-1.73414 9.11727,-2.46891 1.92975,-0.73477 5.0145,-1.34453 6.855,-1.35502 4.73999,-0.0271 6.87639,-1.69812 5.94056,-4.64667 -0.58879,-1.85514 -3.38429,-3.20873 -11.03906,-5.34517 -20.1929,-5.6358 -27.57419,-11.15065 -38.60433,-28.84281 -5.03283,-8.07257 -7.4379,-13.59671 -9.49611,-21.81137 -1.51596,-6.05046 -3.67346,-14.63892 -4.79441,-19.08547 -2.1523,-8.53758 -2.76159,-41.197915 -1.06407,-57.037881 0.45915,-4.284376 0.35734,-7.789775 -0.22622,-7.789775 -0.58357,0 -2.26788,2.484066 -3.74292,5.520134 z M 93.103363,90.264736 c 0,0.645043 -0.55444,1.515479 -1.23209,1.934282 -0.70651,0.436652 -0.91545,-0.06369 -0.48983,-1.172803 0.82857,-2.159226 1.72192,-2.554286 1.72192,-0.761479 z m 0,4.985456 c 0,0.645044 -0.55444,1.515479 -1.23209,1.934283 -0.70651,0.436651 -0.91545,-0.06369 -0.48983,-1.172804 0.82857,-2.159226 1.72192,-2.554286 1.72192,-0.761479 z m 1.36401,3.59283 c -0.75758,1.415548 -1.99121,2.953068 -2.74143,3.416718 -0.9773,0.60401 -0.97349,0.1133 0.0135,-1.73071 0.75758,-1.415548 1.99122,-2.953072 2.74143,-3.41672 0.9773,-0.604013 0.9735,-0.113294 -0.0135,1.730712 z m 1.10964,3.647318 c -0.01,0.51413 -0.54176,1.76127 -1.18058,2.77143 -0.63881,1.01015 -0.6986,2.13188 -0.13284,2.49273 0.56575,0.36083 -0.0395,2.6191 -1.34499,5.01835 l -2.37364,4.36227 0.54455,-4.36227 c 0.59443,-4.76189 2.81153,-11.21728 3.85255,-11.21728 0.35971,0 0.64544,0.42065 0.63495,0.93477 z m 0.0191,12.63716 c 0,0.60955 -1.14947,2.43236 -2.55437,4.05069 l -2.55439,2.94239 1.96321,-4.05069 c 1.93181,-3.98593 3.14555,-5.12127 3.14555,-2.94239 z m -1.30335,8.86262 c 0.01,1.02825 -0.50385,2.69604 -1.14268,3.7062 -0.7664,1.21191 -0.65392,2.15048 0.33069,2.75924 1.11205,0.68758 0.99351,1.42139 -0.46537,2.8807 -1.77923,1.77973 -1.92579,1.55501 -1.60904,-2.46705 0.36284,-4.60733 2.84962,-10.53399 2.8864,-6.87909 z m -1.18938,14.37704 c 0,0.36686 -0.96098,2.13369 -2.13552,3.92626 -1.17454,1.79257 -2.259545,4.1042 -2.411116,5.13696 -0.151582,1.03276 -1.49783,3.05177 -2.99166,4.4867 l -2.716064,2.60896 1.655521,-3.11591 c 0.910531,-1.71375 1.678665,-3.39634 1.706958,-3.73909 0.02829,-0.34275 1.355869,-2.72642 2.950141,-5.29705 2.69862,-4.35128 3.94174,-5.61493 3.94174,-4.00683 z m -6.973419,19.40916 c -1.305878,1.4449 -2.243717,3.54814 -2.084095,4.67387 0.159622,1.12571 -1.242537,3.12345 -3.115907,4.43941 l -3.406126,2.39264 2.804319,-3.09615 c 3.055596,-3.37358 3.726239,-5.52102 1.246364,-3.99086 -0.856875,0.52872 -0.155796,-0.80931 1.557952,-2.97339 1.713751,-2.16408 3.62348,-3.96573 4.243857,-4.00365 0.620366,-0.0379 0.05945,1.11322 -1.246364,2.55813 z m -5.819258,13.03887 c -1.894723,2.10403 -3.024826,4.24562 -2.511349,4.75911 0.941703,0.9417 -4.31738,5.66943 -6.363835,5.72085 -0.606568,0.0152 0.38029,-1.13891 2.193015,-2.56481 1.812724,-1.4259 3.030035,-3.02265 2.705133,-3.54837 -0.324914,-0.52571 1.212114,-2.58404 3.415623,-4.57407 l 4.00636,-3.61822 -3.444947,3.82551 z m -5.90278,13.61994 c 0,1.23639 -6.599897,6.78173 -10.594095,8.90133 -3.669719,1.94741 -3.692827,1.94107 -1.245354,-0.34082 3.932515,-3.66648 11.839449,-9.38359 11.839449,-8.56051 z m -4.673866,10.17682 c -0.856875,0.34576 -2.259034,0.34576 -3.11591,0 -0.856875,-0.34575 -0.155795,-0.62865 1.557955,-0.62865 1.713751,0 2.414831,0.2829 1.557955,0.62865 z m -4.673865,2.91365 c 2.378512,1.02208 2.364228,1.07518 -0.311591,1.15876 -1.542375,0.0482 -2.804319,-0.47326 -2.804319,-1.15876 0,-0.6855 0.140216,-1.20694 0.311591,-1.15876 0.171375,0.0482 1.433319,0.56962 2.804319,1.15876 z m -5.24384,2.50675 c 0.35651,1.36329 0.199842,2.47871 -0.348134,2.47871 -1.46439,0 -2.577057,-3.55016 -1.350298,-4.30835 0.577627,-0.35699 1.341922,0.46634 1.698432,1.82964 z m -4.10389,4.42181 c 0,1.06871 -0.560864,1.59647 -1.246364,1.17281 -0.6855,-0.42367 -1.246364,-1.29807 -1.246364,-1.94311 0,-0.64504 0.560864,-1.1728 1.246364,-1.1728 0.6855,0 1.246364,0.8744 1.246364,1.9431 z m -2.594544,1.41506 c 1.573759,3.65803 16.152243,15.90505 17.421739,14.63557 0.402376,-0.40238 -0.245247,-1.27826 -1.439164,-1.94641 -1.193917,-0.66815 -2.170755,-1.85274 -2.170755,-2.63243 0,-0.77969 1.702908,0.21387 3.784248,2.20792 2.92994,2.80706 4.829212,3.578 8.412957,3.41496 l 4.628707,-0.21058 -4.350381,1.08438 c -2.392707,0.5964 -4.916595,0.64321 -5.608638,0.10407 -0.692044,-0.5392 -2.09955,-1.02707 -3.127801,-1.08418 -14.956667,-0.83063 -20.383099,-1.75529 -22.987988,-3.91716 -0.850007,-0.70544 -1.858341,-0.96974 -2.24075,-0.58733 -0.38241,0.38241 -1.11855,0.01 -1.635853,-0.82657 -0.601034,-0.97249 -0.421134,-1.20084 0.498371,-0.63255 2.349334,1.45197 1.642072,-1.15612 -1.342434,-4.9503 -1.52975,-1.94477 -2.125088,-3.13033 -1.322965,-2.63459 0.823547,0.50897 2.017813,-0.0596 2.743471,-1.30602 1.121628,-1.9266 1.289887,-1.79598 1.322966,1.02698 0.02081,1.77884 1.159629,4.24943 2.53063,5.49017 1.371,1.24075 2.492728,1.83868 2.492728,1.32874 0,-0.50993 1.725628,0.52487 3.834726,2.29957 2.109084,1.77468 5.053619,3.19728 6.543411,3.16132 2.655864,-0.0641 2.649296,-0.10669 -0.33698,-2.18113 -1.675113,-1.16367 -3.48947,-2.67663 -4.031888,-3.36213 -0.54243,-0.6855 -2.475179,-3.10301 -4.295008,-5.37226 -2.19542,-2.73759 -2.891365,-4.54328 -2.068266,-5.36638 0.823099,-0.8231 1.746717,-0.0638 2.744917,2.25634 z m -3.858406,4.22909 c 0.902118,1.44452 1.400838,2.86577 1.108279,3.15833 -0.86469,0.86469 -3.654489,-3.06675 -3.182017,-4.48416 0.238442,-0.71531 1.17162,-0.11865 2.073738,1.32583 z m -7.388159,1.6025 c 0.781258,0.94137 1.092126,2.56722 0.690822,3.61302 -0.401317,1.0458 -0.130557,2.27171 0.601682,2.72427 0.732226,0.45254 1.331329,1.38876 1.331329,2.08048 0,0.69172 -1.628961,0.0977 -3.619903,-1.31992 -4.534957,-3.22917 -6.715372,-3.31811 -2.876745,-0.11729 2.644672,2.20521 2.673488,2.36394 0.397939,2.19253 -1.349226,-0.10158 -2.217743,-0.56567 -1.930032,-1.0312 0.287711,-0.46553 -0.250806,-1.48871 -1.196696,-2.27373 -1.355521,-1.12498 -1.418612,-2.07686 -0.297869,-4.49377 1.57184,-3.38972 4.708327,-4.0145 6.899473,-1.37434 z m -3.748203,3.63222 c 1.017868,1.01787 1.800871,0.94024 2.944535,-0.2919 0.941279,-1.0141 0.992978,-1.36228 0.130594,-0.87962 -0.785035,0.43938 -1.831844,-0.17942 -2.326239,-1.3751 -0.66668,-1.61237 -1.058612,-1.74334 -1.517187,-0.50697 -0.340058,0.91686 0.0062,2.29098 0.768297,3.05359 z m -5.506861,-1.85647 c -0.459472,1.66435 -0.09497,3.70769 0.870237,4.87792 1.485653,1.80127 1.372321,1.86002 -1.07398,0.55666 -1.504199,-0.80141 -3.116682,-2.07485 -3.583296,-2.82984 -0.588159,-0.95167 -1.177042,-0.85404 -1.919874,0.31829 -0.787503,1.24285 -1.076535,0.96729 -1.090569,-1.03974 -0.02393,-3.43403 1.952143,-4.78826 3.000522,-2.05623 0.709642,1.84928 0.977186,1.81755 2.687871,-0.31874 1.824303,-2.27821 1.868362,-2.25866 1.109089,0.49168 z m 54.878453,8.97632 c 0.423665,0.6855 0.209427,1.24637 -0.476073,1.24637 -0.6855,0 -1.592991,-0.56087 -2.016655,-1.24637 -0.423664,-0.6855 -0.209426,-1.24636 0.476074,-1.24636 0.6855,0 1.59299,0.56086 2.016654,1.24636 z m 98.683585,-0.0972 c -5.60546,1.31753 -14.11779,3.2723 -18.9163,4.34394 -38.1906,8.52903 -85.829572,10.39437 -108.898574,4.26401 -24.81011,-6.59304 -45.652582,-10.17723 -48.942646,-8.41645 -5.284733,2.82831 -5.230529,1.54139 -5.420089,128.66949 l -0.181782,121.90877 3.302454,2.35154 c 8.481644,6.03947 21.876306,9.92553 51.706982,15.00126 20.95219,3.56505 23.793386,3.76635 42.999555,3.04659 23.07326,-0.86468 51.06745,-3.60665 64.18774,-6.28707 12.90922,-2.63729 20.01982,-5.10612 31.5578,-10.95691 l 10.36962,-5.25834 0.54565,-35.32508 c 0.30011,-19.4288 0.86582,-37.07801 1.25715,-39.22047 1.28591,-7.04039 0.88336,-102.02256 -0.49722,-117.3145 -0.74264,-8.22601 -1.7169,-24.29059 -2.16499,-35.69907 -0.76908,-19.58054 -0.96474,-20.81532 -3.49227,-22.03861 -3.85052,-1.86361 -6.01637,-1.74784 -17.41308,0.9309 z m -163.416103,12.87244 3.660683,4.05069 -4.050683,-3.66069 c -2.227876,-2.01337 -4.050683,-3.83618 -4.050683,-4.05068 0,-0.96289 1.028412,-0.11516 4.440683,3.66068 z m 3.660683,10.11755 c 3.844697,3.9153 4.799549,5.32842 2.492728,3.68906 -4.399665,-3.12666 -9.999142,-8.92613 -9.248781,-9.57911 0.288334,-0.25092 3.328552,2.39961 6.756053,5.89005 z m -4.362274,0.49796 c 0,0.52589 2.567385,3.89107 5.705294,7.47818 3.137908,3.5871 5.188725,6.522 4.557367,6.522 -0.631345,0 -3.375004,-2.6641 -6.097001,-5.92023 -6.135663,-7.33963 -7.165558,-9.03613 -5.485584,-9.03613 0.725957,0 1.319924,0.43028 1.319924,0.95618 z m 3.739092,14.20734 c 3.770251,3.4792 5.733275,5.7416 4.362274,5.02755 -2.349359,-1.22362 -12.993021,-11.53134 -11.781817,-11.40995 0.310495,0.0311 3.649292,2.9032 7.419543,6.3824 z m 143.043792,9.91535 c 3.14456,13.32871 4.43751,34.63176 3.27538,53.96622 -0.73454,12.22052 -1.61833,18.76163 -2.57771,19.07824 -1.09871,0.36259 -1.29245,-5.93462 -0.78301,-25.45144 0.6981,-26.74491 -1.0653,-45.34058 -4.71682,-49.7404 -1.28476,-1.54804 -4.37606,-1.74034 -18.47973,-1.14963 -23.33306,0.9773 -34.40122,1.67735 -51.888507,3.28187 -8.255393,0.75746 -20.131346,1.17684 -26.390997,0.93197 l -11.381198,-0.44524 -0.493511,7.47818 c -0.586526,8.88782 -0.01545,46.02552 0.776211,50.47775 0.304724,1.71375 0.920191,5.79064 1.36771,9.05977 1.047083,7.64888 3.132175,8.98308 18.117746,11.59311 9.042306,1.5749 16.225929,1.89854 30.521116,1.37505 24.44182,-0.89503 49.58993,-2.97186 57.08843,-4.71457 7.32966,-1.70347 9.08669,-0.56745 3.03391,1.96157 -7.00536,2.92702 -31.39712,4.83003 -63.23825,4.93376 -38.758074,0.12625 -46.07468,-1.73975 -48.738596,-12.43012 -1.695541,-6.80427 -2.82132,-58.22133 -1.45862,-66.61859 0.833656,-5.13717 1.562567,-6.69883 2.90869,-6.23182 3.07205,1.0658 37.363689,0.33212 49.158076,-1.05176 6.16949,-0.72389 22.71498,-1.69667 36.76773,-2.16174 l 25.55046,-0.84559 1.5815,6.70341 z m -146.09967,0.4221 c 1.125604,2.37204 4.504572,6.57852 7.508808,9.34773 3.004248,2.76922 4.974338,5.03493 4.377991,5.03493 -1.753547,0 -15.062771,-14.92988 -15.062771,-16.89695 0,-2.8846 0.983493,-2.10601 3.175972,2.51429 z m 125.19951,1.91902 c 0,0.6855 -0.52776,1.24637 -1.1728,1.24637 -0.64504,0 -1.51944,-0.56087 -1.94311,-1.24637 -0.42366,-0.6855 0.10407,-1.24636 1.17281,-1.24636 1.0687,0 1.9431,0.56086 1.9431,1.24636 z m -61.071827,3.62033 c 0,0.84096 -0.563132,2.58122 -1.251399,3.86727 -1.166971,2.1805 -0.767511,2.30941 5.920229,1.91059 3.94439,-0.23522 8.29336,0.18963 9.664357,0.94412 2.70395,1.48802 7.94919,1.26744 10.01271,-0.42109 0.70848,-0.57974 2.02833,-0.59662 2.93299,-0.0375 1.30845,0.80865 1.33887,1.58826 0.14877,3.812 -1.21484,2.26993 -1.18045,2.69246 0.1829,2.24761 0.92344,-0.30131 2.41067,-2.0488 3.30496,-3.8833 1.73239,-3.55381 3.45592,-4.29255 4.27585,-1.83274 0.3881,1.16432 2.57997,1.18092 9.73304,0.0737 5.07769,-0.78594 9.39596,-1.26518 9.59617,-1.06498 0.2002,0.20022 -0.46619,1.96423 -1.48087,3.92005 -1.01469,1.95581 -1.61788,3.78303 -1.34042,4.06049 1.23437,1.23438 8.13541,-5.17793 8.22458,-7.6421 0.0541,-1.4957 0.36187,-2.07662 0.68389,-1.29094 0.89994,2.19569 11.78539,0.77518 13.6552,-1.78194 1.80517,-2.46872 2.3746,-2.09126 3.41528,2.26395 0.7477,3.12911 0.68858,3.15483 -6.716,2.9215 -6.91422,-0.21786 -7.91072,0.11267 -13.38612,4.44077 -3.69942,2.92423 -5.99736,5.75888 -6.13348,7.56607 -0.11978,1.58945 -1.05424,3.72645 -2.07668,4.74889 -1.64776,1.64776 -1.95388,1.48098 -2.69393,-1.4676 -0.51875,-2.06686 -0.20913,-4.08066 0.81762,-5.3178 2.12731,-2.56325 2.79511,-7.53436 1.14883,-8.55182 -0.70217,-0.43389 -1.27665,-0.0331 -1.27665,0.89062 0,0.92377 -1.16219,3.9014 -2.58263,6.61697 -5.60805,10.72131 -5.9402,10.11995 5.50214,9.96218 12.16266,-0.16772 17.20381,-1.42963 16.93198,-4.23848 -0.45489,-4.70035 0.19808,-8.55859 1.82501,-10.78354 1.47385,-2.01561 2.03606,-2.12218 3.73909,-0.70879 2.6901,2.23258 2.51865,6.10823 -0.4884,11.04021 l -2.48348,4.07328 2.97536,-0.74677 c 1.63645,-0.41071 3.35008,-0.14045 3.80806,0.60059 0.46939,0.75947 -0.15107,1.43248 -1.42197,1.54244 -1.24008,0.10731 -3.93729,0.41297 -5.99379,0.67926 -3.61671,0.46835 -24.90637,1.50455 -44.36344,2.15926 -5.20589,0.17517 -10.1512,0.74243 -10.98958,1.26057 -0.969377,0.59911 -1.771067,-10e-4 -2.202097,-1.64971 -0.6205,-2.37283 -0.90011,-2.43609 -3.30933,-0.7486 -1.44737,1.01377 -3.59996,1.84323 -4.78355,1.84323 -3.056479,0 -8.155454,7.19953 -9.575659,13.52044 -1.310115,5.83087 -2.1939,7.31702 -3.546778,5.96414 -0.479987,-0.47997 0.08089,-4.45134 1.246364,-8.82525 2.594082,-9.73529 2.620343,-10.77346 0.24951,-9.86369 -1.028251,0.39458 -1.869546,0.0634 -1.869546,-0.73585 0,-2.75813 -2.446177,0.0751 -6.824654,7.90455 -2.415939,4.32012 -4.392623,9.02971 -4.392623,10.46574 0,2.53951 -2.057535,4.85511 -3.252349,3.6603 -1.093548,-1.09354 4.362511,-13.69223 8.868877,-20.47932 l 4.457883,-6.71405 -3.632416,1.87839 c -1.997834,1.03313 -3.931643,3.0226 -4.297351,4.42104 -0.790083,3.02132 -4.393845,3.38114 -5.481285,0.54732 -0.682322,-1.7781 0.729372,-3.49578 3.748777,-4.56133 0.569426,-0.20095 1.493518,-2.31331 2.053559,-4.69413 0.929189,-3.9502 1.029397,-4.02901 1.14582,-0.90126 0.07017,1.88513 0.563643,3.4275 1.096613,3.4275 1.467058,0 6.651134,-3.66502 11.164343,-7.89294 5.375815,-5.03599 6.674888,-3.33188 1.742489,2.28581 -3.940676,4.48818 -5.646624,9.85054 -2.232322,7.01692 2.456045,-2.03834 3.236007,-0.50231 1.975933,3.89132 l -1.109075,3.86711 4.027299,-3.87471 c 2.215013,-2.1311 5.709891,-4.27717 7.766391,-4.76906 4.19806,-1.00412 12.522657,-7.86909 16.013537,-13.2057 l 2.30352,-3.52148 -5.65746,0 c -3.11161,0 -5.98463,-0.52933 -6.38447,-1.1763 -0.901297,-1.45833 -16.675459,-0.23992 -23.037983,1.77946 -1.652255,0.52441 -3.864214,0.0725 -5.775526,-1.17977 -2.910771,-1.90721 -3.293293,-1.87584 -6.338883,0.51982 -6.150956,4.83834 -9.62552,2.04186 -6.051147,-4.87021 2.434847,-4.70849 7.470544,-7.44987 9.661041,-5.25937 1.118188,1.11819 0.868329,1.46182 -1.062924,1.46182 -2.694203,0 -7.944711,4.78935 -7.944711,7.24692 0,2.50469 2.017864,1.67605 8.612625,-3.53681 3.566882,-2.81946 6.343744,-4.29251 6.343744,-3.36518 0,0.90709 -0.584632,2.23388 -1.299185,2.94844 -1.825363,1.82536 1.374814,4.26577 4.479955,3.41633 1.33533,-0.3653 3.970243,-2.67559 5.855366,-5.134 1.885126,-2.4584 3.427501,-3.78178 3.427501,-2.94083 z m 33.437867,11.18045 c -1.7932,0.68178 -6.96556,4.70562 -11.49412,8.94186 -8.11275,7.58909 -10.560217,11.24199 -5.83944,8.7155 1.36391,-0.72993 5.52085,-0.96077 9.65931,-0.53637 6.54213,0.67088 7.53371,0.45296 9.96537,-2.18996 1.48518,-1.61424 4.0705,-6.05157 5.74514,-9.86075 l 3.04479,-6.92578 -3.91033,0.30795 c -2.15067,0.16938 -5.3775,0.86577 -7.17072,1.54755 z m 35.70454,7.60932 c -0.82737,3.91562 -0.71884,4.17371 1.11505,2.65172 1.11742,-0.92737 2.03165,-3.41221 2.03165,-5.52187 0,-4.79588 -1.89138,-3.07072 -3.1467,2.87015 z M 23.30697,277.8636 c 0,0.99938 2.156609,4.08413 4.792469,6.855 2.635861,2.77087 4.383724,5.03794 3.884132,5.03794 -1.613842,0 -9.922965,-9.91778 -9.922965,-11.84405 0,-1.02628 0.280432,-1.86595 0.623182,-1.86595 0.34275,0 0.623182,0.81767 0.623182,1.81706 z m -1.466509,11.28432 c 0.85533,1.87726 3.615964,6.00713 6.134741,9.1775 4.485115,5.64539 4.497056,5.68879 0.578861,2.10362 -5.295838,-4.84571 -5.086549,-2.48209 0.418641,4.72782 5.497164,7.19943 4.774734,7.68992 -0.855679,0.58096 -2.26817,-2.86381 -4.17861,-6.45569 -4.245427,-7.98198 -0.0668,-1.52628 -1.097822,-4.26514 -2.291129,-6.08636 -1.193306,-1.82122 -1.972894,-3.90159 -1.732408,-4.62303 0.240486,-0.72145 1.137058,0.2242 1.9924,2.10147 z m 7.075147,25.78026 6.23182,6.39654 -6.543411,-5.30606 c -3.598876,-2.91832 -6.543411,-5.81468 -6.543411,-6.43636 0,-1.66769 0.09173,-1.59619 6.855002,5.34588 z m 70.521645,3.5842 c 0.972097,0.6153 3.604157,1.12732 5.848997,1.13782 3.19773,0.0149 4.33805,0.69378 5.2662,3.13499 1.40409,3.69307 1.63711,3.73398 5.78553,1.01585 2.95813,-1.93825 3.29295,-1.94307 4.34531,-0.0626 0.82501,1.47421 2.25254,1.85909 5.16401,1.39225 12.09439,-1.93927 13.83951,-1.27113 8.86375,3.39357 -1.75151,1.64203 -4.58059,5.9328 -6.28682,9.53505 -3.62035,7.64337 -7.90088,10.97255 -7.90088,6.14494 0,-1.63502 1.68259,-5.2955 3.7391,-8.13442 4.94729,-6.82955 4.81991,-8.17753 -0.68832,-7.28367 -3.23862,0.52556 -4.61632,0.22614 -5.13101,-1.11509 -0.46052,-1.2001 -1.19157,-1.43125 -2.116,-0.66909 -0.77682,0.64047 -3.64906,1.07543 -6.38274,0.96658 -3.89594,-0.15512 -5.07211,-0.73672 -5.44122,-2.69062 -0.45909,-2.43023 -2.30505,-4.30473 -4.27706,-4.3432 -0.538247,-0.01 -0.424707,1.01594 0.25231,2.28095 2.67268,4.99396 -4.992297,10.17417 -8.607987,5.81753 -3.363797,-4.05314 3.25213,-13.25184 7.56683,-10.52082 z m 7.376107,6.14235 c 0,0.6855 0.59396,1.24637 1.31992,1.24637 0.72596,0 0.97329,-0.56087 0.54962,-1.24637 -0.42366,-0.6855 -1.01763,-1.24636 -1.31992,-1.24636 -0.3023,0 -0.54962,0.56086 -0.54962,1.24636 z m -13.086827,1.15957 c 0,0.96175 0.56087,1.92646 1.24637,2.14381 2.04482,0.64837 4.75157,-1.66514 3.78256,-3.23304 -1.20205,-1.94497 -5.02893,-1.1161 -5.02893,1.08923 z m -70.915566,-5.83343 c 1.337187,1.54237 3.517376,4.20648 4.844866,5.92023 l 2.413609,3.11591 -3.041726,-3.11591 c -1.672957,-1.71375 -4.347517,-4.37786 -5.943474,-5.92023 -1.595944,-1.54238 -2.407365,-2.80432 -1.803127,-2.80432 0.604237,0 2.192665,1.26194 3.529852,2.80432 z m 1.119185,7.16659 c 1.06346,2.0565 1.653128,3.73909 1.310377,3.73909 -0.34275,0 -1.493281,-1.68259 -2.556741,-3.73909 -1.06346,-2.0565 -1.653127,-3.73909 -1.310377,-3.73909 0.34275,0 1.493281,1.68259 2.556741,3.73909 z m 5.036707,8.80747 c 0.451844,0.73111 0.554233,1.59659 0.227523,1.9233 -0.326696,0.32671 -0.926123,-0.27147 -1.332051,-1.32928 -0.842767,-2.19623 -0.124512,-2.58254 1.104528,-0.59402 z m -4.239508,3.34458 c 3.953156,4.77238 5.37664,6.98712 3.934697,6.12179 -1.592791,-0.95585 -7.128853,-8.30293 -6.256299,-8.30293 0.283187,0 1.327901,0.98152 2.321602,2.18114 z m 0.284458,12.74989 c 1.823792,2.75594 3.094161,5.0108 2.823052,5.0108 -0.955712,0 -7.264844,-8.89578 -6.7057,-9.45493 0.311666,-0.31165 2.058856,1.6882 3.882648,4.44413 z m 4.388685,11.5663 7.963057,9.02405 -7.592688,-7.47819 c -6.305754,-6.21065 -9.907771,-10.63976 -8.605919,-10.582 0.149863,0.006 3.855864,4.07291 8.23555,9.03614 z m 2.725362,-1.88164 3.021572,3.4275 -3.427501,-3.02157 c -3.203517,-2.82412 -3.999071,-3.83343 -3.021572,-3.83343 0.223248,0 1.765624,1.54238 3.427501,3.4275 z m -4.985457,7.47819 3.021573,3.4275 -3.427501,-3.02157 c -3.203517,-2.82413 -3.999071,-3.83343 -3.021573,-3.83343 0.223249,0 1.765625,1.54237 3.427501,3.4275 z m 2.952251,12.69625 4.916133,5.68762 -5.478219,-5.25429 c -3.013022,-2.88984 -5.225281,-5.44928 -4.916133,-5.68762 0.309148,-0.23834 2.774344,2.12609 5.478219,5.25429 z m -3.785345,6.72986 c 3.588332,2.87128 9.463305,3.19993 9.463305,0.5294 0,-2.72308 3.624215,1.92877 4.426076,5.68107 0.465978,2.18051 1.411993,4.66564 2.10228,5.52252 0.690273,0.85687 0.935122,1.55795 0.544087,1.55795 -1.778424,0 2.131233,7.48943 3.955175,7.57659 1.294012,0.0618 1.480281,0.33199 0.50125,0.72704 -1.780917,0.71862 -2.040286,5.20806 -0.446236,7.72393 0.799804,1.2623 2.135907,0.14995 5.239714,-4.36227 7.103926,-10.32749 15.230332,-16.63778 21.436814,-16.64608 4.879602,-0.006 9.605887,5.03057 9.590494,10.22118 -0.01271,4.30604 -4.437689,14.93003 -8.727798,20.95493 l -2.520286,3.5394 11.550365,0.40102 c 6.352688,0.22056 11.780608,0.26404 12.062038,0.0966 0.28142,-0.1674 -0.3722,-1.28931 -1.4525,-2.49314 -1.0803,-1.20383 -2.35144,-4.27579 -2.82476,-6.82658 -0.75722,-4.08077 -0.40716,-5.09121 2.91457,-8.41296 4.21609,-4.21607 5.984077,-4.53005 11.796727,-2.09499 4.15342,1.73999 19.75475,17.01701 23.63211,23.14088 2.00822,3.17176 3.04144,3.54993 11.43282,4.18458 9.96522,0.75367 13.18675,1.95616 18.48868,6.90123 9.60983,8.96302 -1.21889,16.91294 -25.23887,18.52916 -11.3502,0.76372 -28.65242,-1.29586 -30.06322,-3.57858 -0.561,-0.90772 -3.38203,-1.11902 -8.206957,-0.61472 -4.04365,0.42265 -14.024282,0.22463 -22.179167,-0.44005 l -14.827071,-1.20849 -3.421544,3.7461 c -3.625498,3.96941 -5.961172,4.55095 -9.872,2.45795 -1.752401,-0.93787 -3.320364,-0.8096 -5.765718,0.47165 l -3.358739,1.75982 4.067222,0.89332 c 2.236987,0.49132 3.800426,1.16012 3.474327,1.48622 -1.039542,1.03955 -18.163175,-4.58419 -19.176694,-6.298 -0.5355,-0.90548 -2.23559,-2.30883 -3.777966,-3.11852 -1.542375,-0.80969 -2.804319,-2.10022 -2.804319,-2.86785 0,-0.76762 1.121728,-0.38054 2.492728,0.86021 2.448844,2.21617 2.492728,2.17693 2.492728,-2.22831 0,-2.46632 1.17931,-6.48298 2.62068,-8.92593 l 2.62068,-4.44172 -2.932271,-2.62 -2.932271,-2.62002 3.383654,2.00504 c 4.592141,2.72113 4.68163,2.6477 3.090671,-2.53613 -0.83616,-2.72448 -2.908565,-5.51985 -5.180387,-6.9876 -3.412645,-2.20482 -2.715067,-2.27083 2.33439,-0.22087 1.451204,0.58917 1.546438,-0.11915 0.544536,-4.05068 -0.667827,-2.62058 -1.807589,-7.25366 -2.532798,-10.29569 -0.725197,-3.04205 -2.51262,-6.52879 -3.972038,-7.74831 -1.459417,-1.21953 -1.985508,-2.23598 -1.169089,-2.25879 0.816418,-0.0228 1.923974,0.65962 2.46122,1.51649 0.613896,0.97911 1.292255,-0.29438 1.825786,-3.4275 0.466925,-2.742 0.34088,-5.51828 -0.280083,-6.1695 -1.703643,-1.78664 -1.365454,-3.91319 0.34958,-2.19815 1.140573,1.14057 2.015396,0.99284 3.826549,-0.64623 2.279974,-2.06336 2.228163,-2.22422 -1.790214,-5.5581 -5.014696,-4.16049 -4.375137,-4.67485 0.73174,-0.58851 z m 3.882723,7.25973 -3.424024,2.69334 2.944348,2.40027 c 1.619389,1.32015 2.302035,2.0744 1.516987,1.6761 -1.718,-0.87165 -2.934913,1.92171 -2.934913,6.7369 0,4.87201 8.040332,11.39322 12.15205,9.85606 3.060957,-1.14434 3.165029,-1.50632 2.044248,-7.11025 -0.529492,-2.64743 -1.86102,-4.25639 -4.389021,-5.30353 -1.995915,-0.82674 -3.959075,-2.03732 -4.36256,-2.69017 -0.403498,-0.65287 1.092463,-0.24273 3.324327,0.91141 3.802345,1.96628 4.007259,1.96634 3.253097,10e-4 -0.442671,-1.15358 -0.804864,-2.58973 -0.804864,-3.19143 0,-0.60169 -1.262979,-2.37862 -2.806638,-3.94874 -1.543647,-1.57012 -2.27277,-2.43411 -1.620273,-1.91999 1.94793,1.53484 3.151544,1.06308 2.384905,-0.93477 -0.995147,-2.59331 -3.259354,-2.33702 -7.277669,0.82379 z m 33.499187,8.33344 c -5.093616,3.7185 -16.701328,19.62474 -16.701328,22.88611 0,4.26028 9.253106,12.31099 13.959701,12.1457 1.945599,-0.0683 12.109274,-13.42455 15.805379,-20.77006 2.904913,-5.77312 3.480671,-13.97878 1.144748,-16.3147 -2.624207,-2.62421 -9.079313,-1.69152 -14.2085,2.05295 z m -37.870435,-0.0475 c 0.01645,1.81625 0.18607,1.84915 1.227282,0.23799 1.577399,-2.44084 1.577399,-4.09079 0,-3.11591 -0.6855,0.42367 -1.237776,1.71871 -1.227282,2.87788 z m 70.810213,12.27162 c -5.3896,4.87753 -0.21253,15.859 8.314817,17.63723 13.63955,2.84427 15.70931,-8.33326 3.12858,-16.89563 -4.89442,-3.3311 -8.335597,-3.55412 -11.443397,-0.7416 z m 1.45982,6.51394 c 0,0.60416 1.78907,2.84762 3.975697,4.98545 3.06117,2.99286 3.47819,3.88699 1.81288,3.88699 -1.18954,0 -3.53946,-1.37667 -5.222047,-3.05926 -3.09725,-3.09724 -4.09774,-6.91165 -1.8129,-6.91165 0.6855,0 1.24637,0.49431 1.24637,1.09847 z m -70.087675,-3.32412 c 0.388978,1.48746 1.773963,2.22565 4.175744,2.22565 3.870259,0 4.746378,-1.72381 1.733181,-3.41008 -3.36016,-1.88045 -6.543536,-1.24234 -5.908925,1.18443 z m 6.873249,5.05098 c -4.768339,1.2787 -5.190071,1.7065 -4.524376,4.58945 0.40376,1.74862 1.61535,3.88039 2.692396,4.73727 1.181752,0.94017 1.369592,1.55795 0.473693,1.55795 -0.816518,0 -1.461786,0.70108 -1.433929,1.55796 0.02792,0.85687 1.720069,-0.3954 3.760467,-2.78283 l 3.709802,-4.3408 -2.825681,-2.28627 -2.825695,-2.28627 2.908004,1.42936 c 2.375633,1.16768 3.345366,1.03354 5.297048,-0.7327 2.9864,-2.70267 3.105066,-4.81122 0.207906,-3.6942 -1.199626,0.46252 -4.547459,1.47551 -7.439635,2.25108 z m 3.388952,11.92419 c 0,0.30537 0.981511,1.34908 2.181137,2.31933 1.991752,1.61095 1.95127,1.65342 -0.466303,0.4891 -2.10471,-1.01363 -3.103882,-0.77065 -4.873956,1.18526 -2.598345,2.87113 -2.794722,2.57302 4.405486,6.68786 3.084751,1.7629 5.047774,3.20915 4.362274,3.2139 -0.685501,0.005 -3.48982,-1.37316 -6.23182,-3.06199 -2.742001,-1.68885 -5.391697,-3.08813 -5.888223,-3.10953 -1.29223,-0.0557 -4.927899,7.31806 -4.193841,8.50581 0.337653,0.54632 2.948723,2.04617 5.802386,3.33299 4.998393,2.25396 5.24885,2.25713 6.836232,0.0863 0.906256,-1.23939 2.248216,-2.05327 2.982113,-1.80864 0.733909,0.24464 -0.123889,2.01747 -1.906214,3.93963 -2.472674,2.66666 -4.173089,3.40434 -7.175617,3.11291 -2.164261,-0.21006 -3.758025,-0.9428 -3.541693,-1.6283 0.216319,-0.6855 1.338046,-1.07724 2.492728,-0.87055 1.154669,0.2067 0.436414,-0.75296 -1.596131,-2.1326 -2.753007,-1.86866 -3.940181,-2.12346 -4.654784,-0.999 -1.475308,2.32147 -1.184407,4.2603 0.961159,6.40585 4.940724,4.94073 13.304986,0.88028 23.508108,-11.41202 l 6.812364,-8.20727 -5.674147,-3.59843 c -3.247114,-2.05926 -6.255376,-5.13831 -7.03302,-7.19852 l -1.358886,-3.60009 -2.874676,3.89641 c -1.581075,2.14302 -2.874676,4.14626 -2.874676,4.45164 z m 78.770361,-1.95447 c -1.73922,1.99577 -1.695,2.36971 0.47422,4.01105 2.61145,1.97594 3.40108,2.0558 7.89699,0.79868 l 3.01203,-0.8422 -4.20818,-4.79284 c -2.79416,-3.18238 -4.38438,-4.21873 -4.7326,-3.08424 -0.28845,0.93972 -1.38755,2.69903 -2.44246,3.90955 z m -53.358233,6.8855 c -5.490084,6.16989 -6.288442,7.71559 -5.778767,11.18828 0.454375,3.09585 1.208313,4.03142 3.254244,4.03822 1.464565,0.005 6.368958,0.35897 10.898644,0.78687 l 8.235786,0.77801 0.862858,-9.19983 c 0.474578,-5.0599 1.138477,-10.13572 1.475356,-11.27959 0.683606,-2.32127 -1.406494,-3.17488 -8.215692,-3.3553 -3.800725,-0.10071 -5.182295,0.80597 -10.732429,7.04334 z m 22.604879,-3.78941 c -0.471836,1.19963 -1.173664,6.2474 -1.559613,11.21728 l -0.701728,9.03614 8.908968,0 c 9.620747,0 16.208397,-2.50282 20.527197,-7.79879 l 2.27955,-2.79531 -0.73701,3.3943 c -0.57675,2.6563 -0.33749,3.24099 1.10051,2.68918 2.35017,-0.90185 3.60437,-4.84128 2.69492,-8.46478 -1.68257,-6.70391 -30.225542,-13.09327 -32.512794,-7.27802 z m 53.353644,10.12744 c 0.37604,2.48454 -0.0583,6.62058 -0.96523,9.1912 l -1.64893,4.67387 3.90381,-0.12427 c 2.1471,-0.0683 5.30597,-0.57326 7.01972,-1.1221 2.98929,-0.95733 3.00194,-1.00293 0.31159,-1.12212 -3.5998,-0.15949 -3.69196,-2.61697 -0.0981,-2.61697 1.4884,0 3.73529,-0.93133 4.9931,-2.06964 1.25781,-1.13829 2.70412,-1.65088 3.21405,-1.13907 0.50992,0.5118 -0.39694,2.004 -2.01526,3.316 -1.61833,1.312 -2.35068,2.38544 -1.62746,2.38544 0.72321,0 2.82388,-1.29794 4.66815,-2.88431 2.81351,-2.42008 3.13375,-3.29439 1.98966,-5.43213 -1.98237,-3.70408 -7.58896,-7.03665 -13.30523,-7.90864 -6.57386,-1.00282 -7.24907,-0.49402 -6.43983,4.85274 z m -14.8503,-4.83039 c -2.49917,0 -3.01397,0.62123 -3.01397,3.63715 0,2.00044 -0.34961,4.54822 -0.7769,5.66173 -0.93603,2.43925 -9.22019,6.85375 -13.19504,7.03143 -5.02833,0.22478 5.17856,2.21366 14.76701,2.87747 10.21613,0.70724 12.49253,-0.68266 13.74349,-8.39145 1.32946,-8.19252 -1.48274,-12.8276 -6.85073,-11.29137 -0.91293,0.26127 -3.01617,0.47504 -4.67386,0.47504 z m -79.042167,19.15811 c 0,0.43104 1.389234,0.78371 3.087181,0.78371 3.760704,0 7.437378,-5.01669 6.300906,-8.59738 -0.718616,-2.26418 -1.175695,-2.06018 -5.088817,2.27117 -2.364602,2.61733 -4.29927,5.11146 -4.29927,5.5425 z"
     id="path6093"
     inkscape:connector-curvature="0" />
  <path
     style="fill:#f39b1d;fill-opacity:0.68141593;stroke:none"
     d="M 80.61694,4.5385836 86.988717,47.86666 132.8655,49.565803 137.53814,8.3616557 136.68857,1.1402973 98.882703,2.4146547 z"
     id="path6095"
     inkscape:connector-curvature="0" />
  <path
     style="fill:#f39b1d;fill-opacity:0.68141593;stroke:#000000;stroke-width:1.246364px;stroke-linecap:butt;stroke-linejoin:miter;stroke-opacity:1"
     d="m 89.962213,75.902485 3.82306,8.495703 27.186247,-0.424786 9.75236,-21.985762 -43.322879,0.321724 0.394587,4.848581 c -0.520494,5.78445 1.624095,7.150639 2.166625,8.74454 z"
     id="path6605"
     inkscape:connector-curvature="0"
     sodipodi:nodetypes="ccccccc" />
  <path
     style="fill:#0bf7ff;fill-opacity:0.15486725;stroke:none"
     d="m 9.677822,222.02857 8.920488,-0.84957 19.115331,4.24784 36.531522,7.22136 31.858887,0 44.60243,-4.24786 46.30157,-9.77006 10.19485,2.54872 2.9735,40.77937 1.69914,91.7536 -1.69914,70.08954 -0.84957,45.87679 -10.19485,8.4957 -19.54011,6.79656 -34.4076,6.79658 -44.17765,3.39827 L 72.970808,494.31584 21.14702,484.121 0.757334,473.50137 3.306044,315.90608 2.031689,239.44476 6.279541,223.30293 z"
     id="path6629"
     inkscape:connector-curvature="0" />
  <path
     style="fill:#0bf7ff;fill-opacity:0.40265485;stroke:none"
     d="m 72.546022,50.415375 0.424786,11.469203 69.239962,-1.699143 0.84957,-11.044418 -67.965607,0.424786"
     id="path6625"
     inkscape:connector-curvature="0" />
  <path
     style="fill:#0bf7ff;fill-opacity:0.15486725;stroke:none"
     d="m 80.61694,62.309364 59.89469,-2.123929 -7.64613,8.920489 -3.82306,44.602436 6.79656,42.47851 14.0179,29.73496 11.46921,13.16834 21.66404,7.64614 9.77006,3.39827 3.82307,4.67264 0,3.39828 -31.00933,7.22134 -51.82378,7.64614 -31.858874,0 L 44.510204,227.55077 18.59831,221.179 6.704326,220.75421 16.474384,211.83372 43.235847,199.51496 68.722956,176.15177 83.59043,134.94762 85.289573,99.690452 81.46651,64.433281 l 5.522207,0 0.424785,8.495703 -0.849571,-9.345275 1.274357,-1.274357 53.098132,-0.424774"
     id="path6627"
     inkscape:connector-curvature="0" />
  <path
     style="fill:#ff360b;fill-opacity:0.82300882;stroke:none"
     d="m 45.784558,426.13783 3.823066,7.43374 9.132881,6.15938 3.398281,0.63718 10.407236,-12.74355 7.008956,-13.16835 0.424784,-10.19484 -4.247851,-5.09742 -12.31877,3.61068 -13.380731,16.14184 z"
     id="path6631"
     inkscape:connector-curvature="0" />
  <path
     style="fill:#ff360b;fill-opacity:0.82300882;stroke:none"
     d="m 86.563931,436.54506 -2.336322,11.25681 -0.637179,10.40724 6.159393,0.42478 11.044407,-0.42478 16.9914,-4.46025 2.7611,-6.37178 -2.7611,-5.5222 -14.86747,-5.73461 -12.743547,-1.27434 z"
     id="path6633"
     inkscape:connector-curvature="0" />
  <path
     style="fill:#ff360b;fill-opacity:0.82300882;stroke:none"
     d="m 27.943583,424.86347 18.265761,-5.5222 -4.460244,-16.77901 -5.522207,-12.10639 -7.43374,4.46026 -4.885029,7.64613 z"
     id="path6635"
     inkscape:connector-curvature="0" />
  <path
     style="fill:#ff360b;fill-opacity:0.82300882;stroke:none"
     d="m 95.696813,428.26175 5.309807,5.52221 9.77006,1.91154 7.00895,-4.03547 -3.18588,-10.40724 -13.16834,-8.4957 -6.159387,4.24786 -1.48675,8.92049 z"
     id="path6637"
     inkscape:connector-curvature="0" />
  <path
     style="fill:#ff360b;fill-opacity:0.82300882;stroke:none"
     d="m 122.03349,442.27967 12.10637,-1.06197 3.61067,8.28331 -1.91153,9.77006 -4.24785,3.82306 -16.56662,-0.21239 -9.55766,-2.7611 1.48675,-2.12392 9.13286,-2.33633 5.09743,-4.03545 z"
     id="path6639"
     inkscape:connector-curvature="0" />
  <path
     style="fill:#0f0bff;fill-opacity:0.82300882;stroke:none"
     d="m 44.722595,427.83696 2.761104,6.58418 11.469199,8.7081 -9.132881,9.77005 -8.28331,9.34527 -9.13288,3.18589 -6.159385,-2.7611 -1.274355,-7.64613 6.371777,-11.89398 z"
     id="path6641"
     inkscape:connector-curvature="0" />
  <path
     style="fill:#0f0bff;fill-opacity:0.82300882;stroke:none"
     d="m 28.16602,426.87276 4.355343,12.16493 14.567869,-18.0221 -1.80221,-0.30038 -17.121002,5.55682 z"
     id="path6643"
     inkscape:connector-curvature="0" />
  <path
     style="fill:#0f0bff;fill-opacity:0.82300882;stroke:none"
     d="m 44.385916,461.26496 10.813265,-10.66308 1.351658,6.60809 -4.956079,6.7583 -7.058659,-1.65203 0,-1.65202"
     id="path6645"
     inkscape:connector-curvature="0" />
  <path
     style="fill:#0f0bff;fill-opacity:0.82300882;stroke:none"
     d="m 71.569262,433.63106 12.465285,0.75092 -2.853495,24.63021 -23.12837,-1.80222 -0.901107,-7.95975 14.567871,-16.2199"
     id="path6647"
     inkscape:connector-curvature="0" />
  <path
     style="fill:#0f0bff;fill-opacity:0.82300882;stroke:none"
     d="m 114.67212,436.48456 4.50553,4.05497 7.50921,0 3.30406,-1.95239 -10.66308,-9.76197 z"
     id="path6649"
     inkscape:connector-curvature="0" />
  <path
     style="fill:#0f0bff;fill-opacity:0.82300882;stroke:none"
     d="m 138.55142,443.24284 0.9011,9.46161 -3.30405,9.31143 3.75461,0.15017 11.26382,-1.65202 8.71067,-5.40664 0.90111,-2.8535 -8.26013,-9.61178 -14.11731,-0.90111 z"
     id="path6651"
     inkscape:connector-curvature="0" />
  <path
     style="fill:#f1f31d;fill-opacity:0.28761064;stroke:none"
     d="m 55.349365,270.83135 0,49.26043 2.402948,21.02579 3.003685,4.20516 17.42137,4.50553 20.425055,1.20147 44.454517,-1.80221 26.43243,-4.20515 0,-11.41401 -0.90111,-50.76227 -4.50552,-16.52026 -22.22727,0.30036 -45.655997,2.40296 z"
     id="path6607"
     inkscape:connector-curvature="0" />
</svg>
