<?xml version="1.0" encoding="UTF-8" standalone="no"?>
<!-- Created with Inkscape (http://www.inkscape.org/) -->

<svg
   xmlns:dc="http://purl.org/dc/elements/1.1/"
   xmlns:cc="http://creativecommons.org/ns#"
   xmlns:rdf="http://www.w3.org/1999/02/22-rdf-syntax-ns#"
   xmlns:svg="http://www.w3.org/2000/svg"
   xmlns="http://www.w3.org/2000/svg"
   xmlns:sodipodi="http://sodipodi.sourceforge.net/DTD/sodipodi-0.dtd"
   xmlns:inkscape="http://www.inkscape.org/namespaces/inkscape"
   id="svg10319"
   version="1.1"
   inkscape:version="0.48.4 r9939"
   width="196.56102"
   height="493.11069"
   sodipodi:docname="Placebo.svg">
  <metadata
     id="metadata10325">
    <rdf:RDF>
      <cc:Work
         rdf:about="">
        <dc:format>image/svg+xml</dc:format>
        <dc:type
           rdf:resource="http://purl.org/dc/dcmitype/StillImage" />
        <dc:title />
      </cc:Work>
    </rdf:RDF>
  </metadata>
  <defs
     id="defs10323">
    <filter
       id="filter10931"
       y="-0.15000001"
       height="1.3"
       x="-0.15000001"
       width="1.3"
       inkscape:menu-tooltip="Aquarelle paper effect which can be used for pictures as for objects"
       inkscape:menu="Textures"
       inkscape:label="Rough paper"
       color-interpolation-filters="sRGB">
      <feTurbulence
         id="feTurbulence10933"
         type="fractalNoise"
         baseFrequency="0.059515570934256058"
         numOctaves="3"
         seed="76"
         result="result4" />
      <feDisplacementMap
         id="feDisplacementMap10935"
         in2="result4"
         in="SourceGraphic"
         yChannelSelector="G"
         xChannelSelector="R"
         scale="10"
         result="result3" />
      <feDiffuseLighting
         id="feDiffuseLighting10937"
         lighting-color="#e9e6d7"
         diffuseConstant="1"
         surfaceScale="2"
         result="result1"
         in="result4">
        <feDistantLight
           id="feDistantLight10939"
           azimuth="235"
           elevation="40" />
      </feDiffuseLighting>
      <feComposite
         id="feComposite10941"
         in2="result1"
         operator="in"
         in="result3"
         result="result2" />
      <feComposite
         id="feComposite10943"
         in2="result1"
         result="result5"
         operator="arithmetic"
         k1="1.7"
         k2="0"
         k3="0"
         k4="0" />
      <feBlend
         id="feBlend10945"
         in2="result3"
         in="result5"
         mode="normal" />
    </filter>
  </defs>
  <sodipodi:namedview
     pagecolor="#ffffff"
     bordercolor="#666666"
     borderopacity="1"
     objecttolerance="10"
     gridtolerance="10"
     guidetolerance="10"
     inkscape:pageopacity="0"
     inkscape:pageshadow="2"
     inkscape:window-width="1274"
     inkscape:window-height="747"
     id="namedview10321"
     showgrid="false"
     inkscape:zoom="0.80037025"
     inkscape:cx="177.90291"
     inkscape:cy="213.34515"
     inkscape:window-x="3"
     inkscape:window-y="22"
     inkscape:window-maximized="0"
     inkscape:current-layer="svg10319"
     fit-margin-top="0"
     fit-margin-left="0"
     fit-margin-right="0"
     fit-margin-bottom="0" />
  <path
     style="fill:#fedb02;fill-opacity:1;stroke:none"
     d="m 83.855023,82.433628 8.20104,-3.514733 18.745217,0 8.9821,3.514733 -4.68631,4.29577 -11.32525,2.733682 -16.011537,-1.95262 z"
     id="path10849"
     inkscape:connector-curvature="0" />
  <path
     style="fill:#fedb02;fill-opacity:1;stroke:#000000;stroke-width:1.25026047px;stroke-linecap:butt;stroke-linejoin:miter;stroke-opacity:1"
     d="m 82.683443,84.776778 1.17158,13.277864 -3.12421,15.621028 -7.810508,19.91681 -8.98209,16.7926 0,8.59157 5.076833,14.83998 -5.076833,6.2484 -18.354706,12.10629 -24.603116,14.05893 -8.591563,11.71577 -5.8578863,21.47891 -4.295781,25.7747 0,78.88618 2.73368,121.844 1.171576,3.1242 12.4968213,8.20104 31.242051,10.54419 30.851522,4.68631 26.555737,-0.39053 34.75679,-4.6863 26.55575,-5.46737 13.66839,-6.2484 13.6684,-8.98209 -1.17158,-99.97457 -1.17158,-65.21779 -3.1242,-55.45464 -4.68632,-26.94626 -7.02945,-12.1063 -23.04101,-14.05893 -14.44945,-7.02945 -5.46736,-5.85789 -2.34315,-10.15367 5.85788,-16.7926 5.85788,-18.35471 0,-6.63893 -2.34315,-9.76313 -12.10629,-16.01157 -8.20105,-17.573642 -0.39052,-1.171581 -7.02946,4.686313 -12.1063,1.562101 -15.230487,-1.171582 z"
     id="path10859"
     inkscape:connector-curvature="0" />
  <path
     style="fill:#c98800;fill-opacity:0.68141593;stroke:none"
     d="m 80.724903,8.6661722 6.07515,23.7483228 3.31371,33.689493 24.852897,0 6.07516,-35.346351 L 123.80325,3.1433096 108.33923,0.93416188 78.515753,7.5616052"
     id="path10335"
     inkscape:connector-curvature="0" />
  <path
     style="fill:#00f4ff;fill-opacity:0.18584074;stroke:none"
     d="m 77.963463,33.519075 7.17973,-3.313715 61.303817,0.552277 1.65686,3.866006 -11.04574,10.493448 -12.15031,14.359454 -4.97057,15.464034 4.97057,15.464022 8.2843,16.568599 7.73203,8.83659 3.866,8.83658 -1.10458,13.25489 -4.97057,15.46402 -2.76144,11.04574 -1.10458,11.04572 4.97059,9.38888 33.1372,18.22546 8.83658,8.2843 4.97058,12.70259 2.76144,24.8529 4.97057,107.6959 1.10458,62.4084 -0.55229,46.39208 -13.80716,10.49344 -18.77775,7.17973 -34.24177,5.52287 -35.346347,3.31372 -24.30061,-1.65686 -28.718906,-5.52288 -36.4509203,-14.91173 -0.552287,-100.51618 -1.65686,-98.30703 7.179727,-40.86921 8.8365863,-19.88232 29.271194,-18.22546 20.434606,-15.46402 2.761434,-3.866 -7.179727,-17.67318 0,-12.70259 -4.97058,4.41828 8.836587,-3.31371 11.045736,-19.88232 6.07515,-19.33004 -1.10457,-23.748318 -5.52287,-28.718908 z"
     id="path10845"
     inkscape:connector-curvature="0" />
  <path
     style="fill:#fff4a0;fill-opacity:1;stroke:none;filter:url(#filter10931)"
     d="m 55.520322,301.79854 19.43644,-4.85911 22.086861,-1.32521 30.921607,0.44173 15.46081,5.30085 0.88347,121.47775 0,13.69386 -9.27648,4.85911 -22.08686,5.74259 -20.319916,0 -22.086865,-3.5339 -15.902542,-7.50954 -2.208686,-12.36864 -0.441738,-32.24682 0.441738,-30.47988 1.325211,-38.43114 z"
     id="path10861"
     inkscape:connector-curvature="0"
     transform="matrix(1.2502605,0,0,1.2502605,-29.00689,-129.52048)" />
  <path
     style="fill:#000000"
     d="m 121.07349,0.24779388 c 4.61252,0.6761409 5.02052,2.93743702 2.8832,15.98002912 -1.01316,6.1827 -1.85195,11.722954 -1.86395,12.31169 -0.0125,0.588735 4.94913,0.676991 11.02475,0.196115 9.4088,-0.744667 11.35516,-0.565742 13.12774,1.206839 3.83566,3.835649 2.38645,6.852215 -8.33131,17.341951 -12.60509,12.336895 -15.29928,17.351727 -14.95963,27.8451 0.34166,10.555649 5.07259,21.627154 14.07271,32.933472 11.87622,14.91937 12.38809,22.41327 3.20555,46.92986 -2.42483,6.4741 -4.40668,13.90546 -4.4041,16.51416 0.006,6.12112 3.59606,11.92778 8.9121,14.41475 2.31602,1.08349 8.0024,3.74867 12.63639,5.92261 10.09789,4.73724 19.93235,11.91397 24.13864,17.61528 9.51992,12.90353 12.0312,33.81948 13.87611,115.57143 0.92747,41.09847 1.22643,136.7475 0.44081,141.0301 -0.8865,4.83246 -22.76307,16.51887 -35.50035,18.9642 -61.560137,11.8185 -111.486919,9.62808 -139.366227,-6.11437 -3.873395,-2.18717 -9.344885,-5.07311 -12.1588463,-6.4132 l -5.116316,-2.43652 -0.992031,-45.00938 C 2.1531157,400.29676 1.5605927,374.97898 1.3820297,368.79019 -0.22631735,313.04904 -0.44817635,272.74547 0.80736065,264.39344 3.2359787,248.23778 5.9221887,235.37758 9.0633307,224.86816 13.181463,211.09 19.196492,204.84862 37.053199,195.82499 c 14.31522,-7.234 23.213248,-13.64178 27.43449,-19.75658 2.543268,-3.68412 2.597054,-4.21403 0.851615,-8.39143 -1.024688,-2.45244 -2.248118,-7.02663 -2.718729,-10.16486 -1.223792,-8.16088 -3.57812,-9.3929 -17.949264,-9.3929 -14.255045,0 -20.553669,-2.48374 -26.375982,-10.40085 -4.313224,-5.86507 -8.7478603,-18.838 -8.7478603,-25.5907 0,-2.4594 1.1981123,-8.9119 2.6624803,-14.338908 3.441779,-12.755393 9.082592,-20.084532 19.967072,-25.943303 7.647305,-4.116307 8.716216,-4.336178 24.126126,-4.962721 15.774361,-0.641346 16.17947,-0.729665 18.667239,-4.069398 2.426107,-3.256966 2.468937,-3.952861 0.932131,-15.146268 -1.853136,-13.497411 -0.959362,-16.711169 4.977786,-17.898603 2.02554,-0.405097 3.68279,-1.126235 3.68279,-1.602522 0,-1.279241 -4.54823,-17.862208 -5.56048,-20.2736608 -0.7016,-1.671385 0.41921,-2.446922 5.78334,-4.0017709 3.65946,-1.060721 10.59199,-2.2594957 15.405487,-2.6639175 4.8135,-0.40442172 10.72089,-0.90152532 13.12764,-1.10468012 2.40675,-0.2031548 5.89623,-0.1465055 7.75441,0.1258762 z M 96.564583,4.5356872 c -2.73142,0.1384663 -2.03017,0.4494186 2.3766,1.053845 l 6.251297,0.857416 -7.501567,0.384205 -7.50155,0.384205 5.62617,0.874694 c 5.372487,0.835262 5.248967,0.883159 -2.7393,1.062484 -4.6011,0.103272 -8.6413,0.633932 -8.97832,1.1792458 -0.33702,0.545301 3.14613,0.873732 7.74043,0.72984 4.5942,-0.143893 6.66524,-0.01951 4.60231,0.276382 -9.34265,1.340042 -11.87767,1.926339 -11.87926,2.747435 -9.3e-4,0.484576 3.23411,0.785451 7.18909,0.668602 l 7.1907,-0.212445 -5.88619,0.889211 c -8.8262,1.333353 -8.66264,2.632373 0.3642,2.892602 l 8.022507,0.231274 -6.876427,0.465484 c -10.09137,0.68308 -10.91235,2.779479 -1.18775,3.032932 l 8.064177,0.210181 -7.501557,0.829898 -7.50166,0.829898 8.75192,0.430965 8.751817,0.430952 -8.751817,0.745043 -8.75192,0.745042 8.12679,0.931507 c 20.618237,2.363317 23.381307,2.414165 24.137297,0.444105 0.39931,-1.040567 1.35882,-6.513795 2.13227,-12.162734 1.13791,-8.3108438 1.0918,-10.4875095 -0.24165,-11.4064759 C 119.68682,3.45685 114.7814,3.2593213 109.69223,3.6425261 104.60315,4.025731 98.695673,4.4276647 96.564583,4.5356872 z M 121.53733,34.057037 c -0.53445,1.683926 -4.46747,29.109952 -4.46747,31.15294 0,0.215632 0.79374,0.392057 1.76386,0.392057 0.97013,0 2.93977,-2.391123 4.37701,-5.313607 2.7167,-5.524201 11.677,-15.541138 18.73278,-20.941863 2.94412,-2.253519 3.8437,-3.736141 3.22403,-5.313607 -0.72812,-1.853574 -2.54585,-2.187956 -11.8938,-2.187956 -9.45661,0 -11.13472,0.316291 -11.73641,2.212036 z m -19.51449,0.206293 c 1.94786,3.639608 1.82069,3.706635 -5.582187,2.942588 -5.10194,-0.52656 -6.87651,-0.29945 -6.87651,0.880096 0,1.107068 1.42369,1.413057 4.68856,1.007722 2.57866,-0.320141 6.095017,-0.168997 7.814127,0.335883 2.57263,0.755545 2.13022,0.967689 -2.500517,1.199075 l -5.62617,0.281108 5.29038,0.86218 c 6.050957,0.986118 7.886657,2.249956 5.452997,3.754082 -0.92773,0.573369 -1.30019,1.66801 -0.8277,2.432544 0.59098,0.956212 -1.31007,1.39004 -6.091107,1.39004 -3.82262,0 -6.95022,0.426013 -6.95022,0.946709 0,0.520684 2.59934,0.739967 5.7763,0.487289 7.733687,-0.615078 6.967257,2.628535 -0.87234,3.691832 -4.80378,0.651536 -4.98434,0.774549 -1.37644,0.937695 2.28395,0.103272 4.99657,1.031703 6.028037,2.063168 1.66701,1.667009 1.41398,1.896257 -2.277257,2.063167 -3.6648,0.165722 -3.49169,0.290548 1.47352,1.062484 3.094387,0.481088 4.360277,0.9592 2.813077,1.062484 -1.5472,0.103271 -2.813077,0.750393 -2.813077,1.438037 0,0.694594 3.334027,1.25026 7.501467,1.25026 6.30693,0 7.5032,-0.348435 7.51183,-2.187956 0.0166,-3.534598 2.51447,-24.353811 3.29521,-27.464509 0.69591,-2.772715 0.46107,-2.854307 -8.21497,-2.854307 -8.44265,0 -8.86045,0.132303 -7.63701,2.418329 z m -10.910367,-1.5593 c 1.19536,0.312928 3.44583,0.32428 5.00104,0.02526 1.55521,-0.299049 0.5772,-0.55509 -2.17337,-0.568968 -2.75058,-0.01388 -4.02303,0.23081 -2.82767,0.543738 z m -12.03963,2.012632 c -2.07531,1.517504 -2.09795,2.218512 -0.35321,10.939779 1.02531,5.125105 2.5287,14.187531 3.34088,20.138708 l 1.47668,10.820329 3.63861,-1.04353 c 4.78921,-1.373511 4.70023,-0.207818 -0.11215,1.469769 -2.06293,0.71915 -3.75078,2.067718 -3.75078,2.996824 0,1.361896 0.90865,1.299771 4.68848,-0.320529 2.92257,-1.252786 8.5342,-2.052878 14.898247,-2.124155 8.70089,-0.0974 10.76553,0.296649 13.97172,2.666955 l 3.76214,2.781305 -0.70413,-7.157216 c -0.38726,-3.93647 -0.76709,-7.245185 -0.84407,-7.352694 -0.58601,-0.818408 -28.319007,-0.649436 -30.771347,0.187489 -2.82027,0.962525 -2.958,0.862342 -1.40974,-1.025464 0.95774,-1.167743 1.14472,-2.092198 0.4232,-2.092198 -1.39123,0 -1.31106,-3.120188 0.1169,-4.548098 1.33934,-1.339354 1.04915,-2.595391 -1.095,-4.73955 -1.08058,-1.080587 -1.36189,-1.964696 -0.62513,-1.964696 1.50293,0 1.74008,-6.73094 0.5445,-15.453757 -0.84932,-6.196341 -2.84892,-7.357721 -7.19572,-4.179271 z m 5.49025,12.131465 c 1.60271,1.035753 1.55727,1.214753 -0.31256,1.231119 -1.20338,0.01 -2.18796,-0.543476 -2.18796,-1.231119 0,-1.52483 0.14102,-1.52483 2.50052,0 z m 5.33974,-5.495933 c 0.41547,0.415449 1.49381,0.459859 2.39634,0.09865 0.99737,-0.399108 0.70112,-0.69537 -0.75537,-0.755358 -1.31797,-0.05426 -2.05651,0.241213 -1.64097,0.656662 z m 4.96042,2.60418 c 1.19536,0.312928 3.44583,0.32428 5.00104,0.02526 1.555207,-0.29905 0.577197,-0.555091 -2.17338,-0.568969 -2.75056,-0.01388 -4.02302,0.230811 -2.82766,0.543738 z m -5.29911,1.524443 c 0,1.866414 0.61034,2.216412 2.81317,1.613386 2.30699,-0.631544 2.4167,-0.85244 0.60983,-1.227831 -1.2118,-0.251765 -1.88187,-0.977791 -1.48905,-1.613386 0.39283,-0.635607 0.1184,-1.155641 -0.60981,-1.155641 -0.72823,0 -1.32414,1.072561 -1.32414,2.383472 z M 52.801442,71.540771 c -2.454686,2.083771 -2.496732,2.083771 -0.883046,0 1.490185,-1.924301 1.383488,-2.187956 -0.88546,-2.187956 -1.418895,0 -2.957828,0.611627 -3.419837,1.359183 -0.462009,0.747543 -2.031261,1.047668 -3.487214,0.666927 -1.798387,-0.470298 -3.842501,0.396782 -6.375016,2.704163 -2.050302,1.868027 -2.977145,2.41184 -2.059654,1.208464 2.867535,-3.761058 -0.69827,-2.434069 -5.039437,1.875391 -2.251294,2.23484 -3.667914,3.360075 -3.148043,2.500521 2.111002,-3.490352 -1.638842,-1.257675 -4.759654,2.833915 -11.743909,15.397053 -12.549302,39.538531 -1.777483,53.279431 5.538891,7.0656 10.540071,8.80785 25.796336,8.9866 11.801134,0.13827 13.336591,-0.099 14.556658,-2.2491 0.750169,-1.32202 2.489181,-3.397 3.864467,-4.61108 1.375287,-1.21409 1.991365,-2.22614 1.369048,-2.24902 -0.622305,-0.0229 -0.214982,-1.0543 0.905176,-2.29206 1.90531,-2.10534 1.850611,-2.25047 -0.848101,-2.25047 -1.586619,0 -2.884764,0.70666 -2.884764,1.57034 0,0.86369 0.468848,1.28058 1.041892,0.92642 1.869114,-1.15518 1.095341,0.40438 -1.073511,2.16366 -1.205101,0.97752 -1.734336,1.08058 -1.229869,0.23948 0.487039,-0.81205 0.304551,-1.8355 -0.405522,-2.27435 -0.710073,-0.43886 -0.923392,-1.39281 -0.474023,-2.11988 0.559441,-0.9052 0.132415,-0.93885 -1.354508,-0.10677 -2.629222,1.47138 -14.335586,-0.98403 -18.876495,-3.95935 -9.103321,-5.96473 -13.113819,-20.77273 -8.222575,-30.360348 3.37034,-6.606406 7.694703,-9.911419 16.205701,-12.385634 7.59617,-2.208261 16.57049,-1.732874 22.344205,1.183621 4.45349,2.249619 6.55353,1.507777 5.68862,-2.009494 -1.327524,-5.398562 1.17825,-0.977666 2.8086,4.955158 2.05269,7.469719 2.3218,4.819629 0.52884,-5.207773 -0.73773,-4.125859 -1.39087,-8.173577 -1.45141,-8.994924 -0.0605,-0.821358 -0.43825,-1.458003 -0.83938,-1.414769 -2.683001,0.289135 -5.151003,-0.38223 -4.611878,-1.254562 0.835649,-1.352106 -3.898962,-1.004546 -5.156362,0.378517 -0.529735,0.582684 -0.172961,0.600987 0.792841,0.04063 1.155215,-0.670214 1.462329,-0.543588 0.897649,0.370077 -0.472086,0.763859 -1.640292,1.088765 -2.595991,0.722026 -0.955711,-0.366739 -2.95504,-0.01525 -4.442963,0.781037 -1.48791,0.796304 -2.98816,1.164968 -3.333869,0.819246 -0.345722,-0.345722 0.968351,-1.494011 2.920158,-2.551757 4.664384,-2.527776 1.462617,-2.590602 -3.702334,-0.07264 l -4.001258,1.950657 3.125651,-2.547981 3.125651,-2.547981 -3.027206,-0.02776 c -1.664959,-0.01525 -4.187047,0.956775 -5.60463,2.16015 z M 18.259534,105.22401 c 0.02188,0.81897 -0.522859,1.83676 -1.210502,2.26175 -0.687644,0.42499 -1.250261,1.33531 -1.250261,2.02296 0,0.68764 0.585172,0.88861 1.300371,0.44659 0.852915,-0.52714 1.00751,0.41546 0.449256,2.73929 -1.090014,4.53737 -1.749627,5.28317 -1.749627,1.97822 0,-1.43365 -0.293723,-3.37207 -0.652723,-4.3076 -0.358988,-0.93552 0.185738,-2.81005 1.210502,-4.16559 1.024776,-1.35556 1.881104,-1.79459 1.902984,-0.97562 z m 1.040767,9.76331 c 0,1.37529 -0.450457,3.90706 -1.001009,5.62617 -0.792627,2.47499 -1.001008,2.60513 -1.001008,0.62513 0,-1.37528 0.450456,-3.90706 1.001008,-5.62617 0.792628,-2.47499 1.001009,-2.60513 1.001009,-0.62513 z m 2.987059,8.75182 c -0.280971,2.40675 -0.730614,4.37591 -0.999208,4.37591 -0.268581,0 -0.488339,-1.96916 -0.488339,-4.37591 0,-2.40675 0.449644,-4.37591 0.999208,-4.37591 0.549565,0 0.769323,1.96916 0.488339,4.37591 z m 2.574899,4.14622 c 0.50008,2.28041 1.43795,3.81943 2.08416,3.42005 0.646209,-0.39937 1.534657,0.40726 1.974323,1.79253 0.439667,1.38528 1.53652,2.51868 2.437446,2.51868 0.900937,0 2.338449,0.84392 3.19449,1.87539 3.150381,3.79598 -2.958079,0.9009 -8.394824,-3.97868 -2.155649,-1.93474 -2.918483,-3.75322 -2.622384,-6.2513 l 0.417562,-3.52289 z m 17.215737,12.13579 c 1.32125,1.59202 1.243909,1.77497 -0.472048,1.11649 -1.128723,-0.43313 -2.052228,-1.28993 -2.052228,-1.90401 0,-1.60778 0.723738,-1.38198 2.524276,0.78752 z M 88.124263,82.793115 c -3.04466,3.04871 0.92969,4.530881 12.365147,4.611373 7.14994,0.05039 12.00949,-0.522809 13.99269,-1.650306 2.95994,-1.682788 2.97608,-1.773845 0.62513,-3.526047 -3.06147,-2.281776 -24.590087,-1.830994 -26.982967,0.56498 z m 14.802577,7.557587 c -8.038157,0.421888 -11.332987,0.07727 -14.394077,-1.505664 l -3.96967,-2.05279 0,9.309444 c 0,7.223388 -0.87255,11.783138 -3.89396,20.348828 -4.496659,12.74802 -8.108487,20.92704 -11.279447,25.54236 -5.340213,7.77266 -4.916075,17.17806 1.363771,30.24194 2.973382,6.1855 2.762526,8.65504 -0.507306,5.94133 -1.56225,-1.29656 -3.068489,-0.49197 -9.036069,4.82685 -3.938733,3.51053 -14.127869,10.13481 -22.642517,14.72062 -22.596445,12.16993 -25.642055,17.06029 -32.1769663,51.6667 -2.908519,15.40241 -3.187277,19.76002 -3.187439,49.82714 -1e-4,18.12175 0.612227,55.81711 1.360733,83.76745 0.748519,27.95036 1.494887,58.26547 1.658596,67.36691 0.265743,14.77334 0.560567,16.74687 2.749022,18.40159 1.3482443,1.01941 2.8905653,1.87139 3.4273893,1.89325 0.536825,0.0219 4.92015,2.27474 9.740705,5.00638 11.782967,6.67698 22.409768,9.76655 41.121204,11.95534 20.011704,2.3409 40.707891,2.32913 58.857621,-0.0335 42.33174,-5.51045 44.59345,-5.9856 51.17086,-10.75026 2.82786,-2.0485 5.76903,-3.33675 6.5359,-2.8628 0.79426,0.49087 1.04677,0.2994 0.58673,-0.44495 -0.44415,-0.71867 0.73481,-2.29924 2.61992,-3.51237 l 3.42748,-2.20569 -2.50052,2.98248 c -2.41663,2.88243 -2.35372,2.87306 1.87539,-0.27926 2.40675,-1.79396 4.44624,-3.89291 4.53219,-4.66433 0.0859,-0.77142 0.22661,-1.96521 0.31257,-2.65285 0.0859,-0.68765 1.03204,-1.25026 2.10241,-1.25026 1.74387,0 1.867,-5.8796 1.18487,-56.57429 -1.65164,-122.7456 -4.09821,-169.55696 -9.65034,-184.64484 -3.8175,-10.37405 -11.67369,-17.34311 -29.02713,-25.74939 -15.30318,-7.4131 -19.68716,-11.24364 -22.10534,-19.3148 -1.28187,-4.27852 -1.05057,-6.10982 1.9273,-15.25934 1.8612,-5.71853 4.44749,-13.21042 5.74731,-16.64863 2.87425,-7.60281 3.13407,-18.23755 0.57573,-23.566 -1.04035,-2.16685 -4.96589,-7.55551 -8.7234,-11.97481 -4.6985,-5.526 -7.65022,-10.494258 -9.45259,-15.910371 l -2.62074,-7.875303 -3.64297,2.693361 c -2.84243,2.101513 -5.93369,2.813598 -14.06722,3.240525 z m -5.626627,3.611127 c -0.90253,0.361163 -1.98087,0.316754 -2.39633,-0.09864 -0.41545,-0.415449 0.32299,-0.710948 1.64096,-0.656662 1.45649,0.06001 1.75274,0.356249 0.75537,0.755357 z m 2.2661,5.529503 c 0,1.350978 -4.61505,1.504148 -5.43241,0.1803 -0.31843,-0.51573 0.77361,-1.01884 2.42673,-1.118 1.65312,-0.0991 3.00568,0.3228 3.00568,0.9377 z m -1.58662,4.484928 c -1.21647,0.31699 -2.90432,0.29615 -3.75078,-0.0464 -0.84646,-0.34249 0.14882,-0.60184 2.21174,-0.57636 2.06293,0.0255 2.7555,0.30569 1.53904,0.62268 z m -6.93078,8.73947 c -0.90253,0.36117 -1.98097,0.31676 -2.39643,-0.0986 -0.41545,-0.41545 0.323,-0.71095 1.64106,-0.65666 1.45649,0.06 1.75274,0.35625 0.75537,0.75535 z m 4.43026,2.51288 c -1.21647,0.31699 -2.90432,0.29615 -3.75078,-0.0464 -0.84647,-0.34248 0.14882,-0.60183 2.21175,-0.57635 2.06293,0.0255 2.75549,0.30568 1.53903,0.62268 z m -3.41442,4.75975 c 1.26585,1.52526 1.2063,1.87539 -0.31896,1.87539 -1.03146,0 -2.57587,-0.84392 -3.43192,-1.87539 -1.26585,-1.52525 -1.2063,-1.87539 0.31896,-1.87539 1.03146,0 2.57588,0.84393 3.43192,1.87539 z m -0.62513,3.89883 c 3.5518,3.01487 3.58806,3.13639 0.68344,2.2906 -2.99418,-0.87182 -6.30971,-3.42029 -6.30971,-4.84986 0,-1.44181 1.96624,-0.5474 5.62627,2.55926 z m -3.15083,4.82278 c 0.98615,1.18823 1.081,1.90561 0.25196,1.90561 -1.51101,0 -3.27267,-2.372 -2.40563,-3.23905 0.31469,-0.31469 1.28384,0.28536 2.15367,1.33344 z m 1.13544,4.50739 c 3.01753,0.59266 5.83062,1.44702 6.25139,1.8986 1.18512,1.27189 -11.58217,-0.80511 -12.9254,-2.10272 -1.36773,-1.32127 -1.04155,-1.31129 6.67401,0.20412 z m -1.82943,5.62324 c 6.75131,2.47307 7.32603,3.53204 1.34421,2.47686 -2.75058,-0.48522 -5.82488,-1.68508 -6.83179,-2.66639 -2.24964,-2.19245 -0.88649,-2.14537 5.48758,0.18953 z m -6.37987,5.21528 c 2.52418,2.50002 3.23231,2.80149 2.59509,1.10481 -0.76851,-2.04627 -0.55389,-2.16083 1.74413,-0.93098 1.44125,0.77134 2.92538,1.89581 3.29806,2.49881 1.07879,1.74538 -6.22378,0.91624 -8.48917,-0.96388 -2.38204,-1.97691 -2.62388,-1.05153 -0.67625,2.58766 0.99982,1.86817 0.99982,2.33733 0,1.7194 -3.573807,-2.20873 -0.76616,2.8103 4.27313,7.6388 5.76367,5.52257 5.96304,7.39569 0.31408,2.95227 -1.71976,-1.35275 -3.39317,-2.19323 -3.71868,-1.86771 -0.32552,0.3255 -1.61536,-0.53914 -2.86632,-1.92143 -1.809453,-1.99943 -2.006119,-3.10224 -0.961914,-5.39401 0.721904,-1.58442 1.103464,-4.67652 0.847914,-6.87135 -0.25555,-2.19484 -0.32218,-3.99061 -0.14807,-3.99061 0.17411,0 1.87871,1.5472 3.788,3.43822 z m -3.05828,10.64805 c 1.23478,1.22558 1.37838,1.08198 0.69989,-0.69989 -0.46951,-1.23304 -1.1686,-1.92693 -1.55355,-1.54199 -0.38494,0.38494 -8e-4,1.39378 0.85366,2.24188 z m 9.65088,-2.652 c 2.36528,2.66382 2.36277,2.67246 -0.36172,1.24353 -3.03905,-1.59394 -4.91031,-3.92598 -3.15027,-3.92598 0.62164,0 2.20204,1.2071 3.51199,2.68245 z m -7.16417,10.38357 c 3.55925,3.76338 7.41179,7.36879 8.56121,8.01204 1.43665,0.80394 -0.2325,1.05618 -5.33915,0.8069 -9.584556,-0.46787 -9.30441,-0.40902 -9.30441,-1.95458 0,-0.72823 0.703271,-0.90154 1.562825,-0.38513 1.910845,1.148 -1.385701,-3.26546 -4.063346,-5.44006 -3.744455,-3.04098 0.508881,-1.51311 4.883031,1.75407 3.90846,2.91935 4.16815,2.98369 1.9934,0.49386 -1.37529,-1.57453 -2.219211,-3.03813 -1.87539,-3.25245 0.34382,-0.21433 0.11302,-0.85853 -0.513019,-1.43157 -0.678328,-0.62096 -0.707647,-0.28423 -0.07251,0.83351 0.918599,1.61668 0.773769,1.63868 -1.049806,0.15948 -2.290139,-1.85766 -2.900217,-3.29262 -0.86513,-2.03487 0.687643,0.42498 1.25026,0.22377 1.25026,-0.44716 0,-0.67093 -0.703271,-1.47103 -1.562825,-1.77801 -0.859554,-0.30699 -1.228381,-0.92274 -0.819621,-1.36833 0.40876,-0.44561 3.655321,2.26893 7.214541,6.0323 z m -8.583871,24.12923 c -5.63e-4,0.51573 -2.672995,1.02783 -5.938737,1.13798 -5.043776,0.17013 -5.373032,0.0513 -2.186956,-0.78977 5.095574,-1.34503 8.126893,-1.47493 8.125693,-0.34821 z m -5.496333,4.2718 c 0.354124,0.573 -1.358495,1.04181 -3.80583,1.04181 -2.447335,0 -4.449702,-0.21746 -4.449702,-0.48323 0,-1.02669 7.646468,-1.54406 8.255532,-0.55858 z m -9.818358,4.43783 c -1.891019,0.28647 -4.985413,0.28647 -6.876432,0 -1.891019,-0.28646 -0.343822,-0.52085 3.438216,-0.52085 3.782038,0 5.329235,0.23439 3.438216,0.52085 z m 4.991253,2.34412 c -0.406498,0.40651 -4.297933,0.91317 -8.647627,1.12593 -6.863067,0.33568 -7.247422,0.2475 -2.907493,-0.66706 5.902817,-1.24389 12.606364,-1.51011 11.55512,-0.45887 z m -7.179208,5.65617 c 0,0.60846 -0.984581,1.15348 -2.187956,1.21115 -10.311498,0.49419 -16.298921,0.3919 -15.566231,-0.26593 1.427035,-1.28125 17.754187,-2.15048 17.754187,-0.94522 z m -10.627214,4.9146 c -8.587477,1.33755 -15.726627,1.23096 -8.126693,-0.12128 3.094394,-0.5506 7.595332,-0.96762 10.002083,-0.92671 3.578196,0.0608 3.236312,0.25187 -1.87539,1.04805 z m -1.979575,4.14225 c -0.286523,0.24695 -3.334032,0.7741 -6.772249,1.17144 -4.021775,0.46479 -5.359491,0.336 -3.750781,-0.36112 2.388648,-1.03508 11.607443,-1.74498 10.52303,-0.81032 z m -1.155979,4.23948 c -0.005,0.51573 -3.803104,1.01971 -8.439258,1.11995 -7.881467,0.17041 -8.063667,0.11552 -2.803184,-0.84503 7.348806,-1.3418 11.25472,-1.43731 11.242442,-0.27492 z m -3.740879,5.30741 c -3.086605,0.99463 -14.657704,1.67821 -13.648681,0.80632 0.286522,-0.24758 4.177958,-0.7569 8.647639,-1.13184 4.876391,-0.40905 6.87657,-0.27886 5.001042,0.32552 z m -2.500521,6.32131 c -3.094395,0.55061 -7.314024,0.97238 -9.376953,0.93729 -2.766627,-0.0471 -2.274537,-0.3265 1.87539,-1.06491 3.094395,-0.5506 7.314024,-0.97238 9.376954,-0.93728 2.766626,0.0471 2.274536,0.32649 -1.875391,1.0649 z m -3.438216,5.76526 c -0.859554,0.34683 -2.266097,0.34683 -3.125651,0 -0.859554,-0.34684 -0.156283,-0.63062 1.562825,-0.63062 1.719108,0 2.42238,0.28378 1.562826,0.63062 z m -6.329444,1.2763 c -0.902525,0.36116 -1.980875,0.31675 -2.396336,-0.0987 -0.415449,-0.41545 0.322992,-0.71094 1.640966,-0.65666 1.456491,0.06 1.752741,0.35625 0.75537,0.75536 z m 94.160232,2.97742 c 14.82024,1.36998 23.2608,3.02163 28.74771,5.62533 l 4.01801,1.90668 2.03153,20.62093 0.13137,65.39258 c 0.0866,43.11913 -1.40698,73.96168 -0.9971,77.84668 0.68731,6.51431 0.50783,7.21922 -2.30773,9.06406 -5.25264,3.44166 -18.08465,8.20254 -31.1506,10.29435 -9.06091,1.45063 -22.314037,3.58714 -34.502717,3.12185 -15.124735,-0.57735 -16.25715,-1.49343 -27.738117,-5.44851 C 38.485737,420.20348 35.788488,416.5362 34.755988,404.36771 l -0.515177,-6.07161 -5.626895,-0.45112 -7.188998,-0.45112 7.274916,-0.23641 5.908113,-0.43166 -0.766297,-9.10372 c -0.400376,-4.75653 -1.314371,-70.94428 1.099694,-103.10643 0.980667,-13.06522 1.568549,-24.75744 2.537211,-29.47583 l 1.53524,-7.47823 6.599231,-3.50442 c 14.336522,-7.61318 50.591197,-7.94068 73.332224,-5.83848 z m -47.604821,5.27559 c -13.958958,1.92086 -25.871714,3.47598 -25.009547,4.33814 0.264717,0.26471 3.928893,-0.19697 8.142609,-1.02597 4.213727,-0.82899 7.95772,-1.21085 8.319995,-0.84857 0.563593,0.56358 -12.935007,3.70596 -19.667784,4.57853 -0.442168,0.0573 -1.09034,0.85055 -1.4404,1.76278 -0.503455,1.31199 0.578995,1.45821 5.179841,0.69965 5.928935,-0.9775 15.482888,-1.25453 10.817354,-0.31366 -1.375287,0.27734 -5.73557,1.13288 -9.689519,1.90119 -3.953949,0.76833 -7.188998,1.94751 -7.188998,2.62043 0,0.73141 2.891253,0.96166 7.188998,0.57249 l 7.188998,-0.65099 -7.188998,1.33442 c -6.680254,1.23998 -7.188998,1.5771 -7.188998,4.76387 0,3.29222 0.21262,3.40621 5.313607,2.84879 2.922484,-0.31937 6.298187,-0.77577 7.501563,-1.01425 1.203376,-0.23846 2.187956,0.0764 2.187956,0.69963 0,0.62327 -1.617525,1.13322 -3.594499,1.13322 -5.240041,0 -11.408627,1.40278 -11.408627,2.59441 0,0.56737 3.235049,1.23458 7.188998,1.4827 l 7.188998,0.45112 -7.814128,0.23641 c -6.217971,0.18811 -7.814128,0.64344 -7.814128,2.22911 0,1.65385 1.116208,1.88097 6.563867,1.33557 l 6.563868,-0.65714 -6.619879,1.35012 c -4.994991,1.01873 -6.522809,1.84171 -6.224422,3.3529 0.30005,1.51957 1.746464,1.95226 5.994749,1.79332 l 5.599291,-0.20947 -5.892252,1.34802 c -6.543788,1.49709 -5.544924,-0.52352 -7.49508,18.01275 -0.833311,7.92059 -0.150876,9.47497 8.208578,8.34843 2.365556,-0.31879 4.672361,0.0213 5.126231,0.75562 0.550477,0.8907 -1.722275,0.82901 -6.750119,1.33524 l -5.817988,0.58579 c 0.776803,2.60884 -1.349793,4.30611 -1.757365,6.91577 l 8.439258,0.21017 c 5.175678,0.12891 6.505293,0.37864 3.438216,0.64583 -10.870127,0.94688 -10.627213,0.70571 -10.627213,10.55149 l 0,8.85932 5.001041,-0.47692 c 2.750573,-0.2623 5.001042,-0.0724 5.001042,0.42193 0,0.49436 -2.391123,1.07184 -5.313607,1.28329 l -5.313607,0.38445 -0.374953,7.189 -0.374965,7.189 4.469256,0 c 4.603121,0 4.939954,-0.38621 7.501825,-8.60158 0.909414,-2.9163 0.807168,-2.96024 -5.14666,-2.21224 -4.104642,0.5157 -5.263621,0.39411 -3.573982,-0.37493 1.375287,-0.62596 4.264326,-1.17765 6.420075,-1.22598 2.7616,-0.0619 4.536145,-1.02892 6.006664,-3.27322 5.035199,-7.68468 17.307218,-10.3054 28.831854,-6.15713 2.75058,0.99006 8.37684,2.1453 12.5027,2.5672 7.153447,0.73148 7.666047,0.59355 11.046267,-2.97227 2.80857,-2.96287 3.68318,-5.26726 4.21184,-11.0975 0.92603,-10.21243 -0.30058,-11.09211 -12.587747,-9.02749 -16.20814,2.72344 -24.98959,-2.03644 -28.961105,-15.69796 -3.414736,-11.7463 -0.409935,-22.05664 8.309931,-28.51377 3.689734,-2.73228 14.233734,-3.2713 18.572164,-0.94944 2.87805,1.54029 3.07387,1.24706 4.368,-6.54087 0.42805,-2.57594 2.063317,-6.17749 3.633917,-8.00344 4.15534,-4.83095 8.223,-3.41225 12.07457,4.21138 2.54219,5.03191 3.05412,8.00335 3.24311,18.82416 0.20942,11.99091 0.0369,12.99054 -2.58414,14.96755 l -2.80855,2.1185 4.90244,3.5513 c 7.18139,5.20217 8.94535,10.30487 9.02163,26.0973 0.062,12.83718 -0.0728,13.51843 -3.68643,18.64256 -5.91339,8.38498 -11.37227,10.55877 -26.255387,10.45527 -6.87651,-0.0478 -15.59708,-0.28421 -19.37912,-0.52529 -13.057194,-0.83233 -16.256461,1.38406 -16.649293,11.53432 -0.431852,11.1584 5.97282,19.00723 17.182653,21.05709 5.69774,1.04191 7.6725,0.27836 15.37201,-5.94356 2.90294,-2.34587 7.776897,-5.37057 10.831017,-6.72155 6.59943,-2.91929 9.48497,-2.18108 17.6604,4.51806 2.96915,2.43301 6.99408,4.5362 8.94427,4.67377 3.09902,0.21858 3.59259,-0.22745 3.91719,-3.54004 0.26986,-2.75385 -0.49929,-4.6081 -2.81308,-6.7818 -3.81321,-3.58232 -4.11685,-7.02138 -0.69884,-7.91521 5.38162,-1.40732 12.51747,8.11015 12.51747,16.69521 0,8.08541 -6.72842,16.16993 -13.45759,16.16993 -1.3445,0 -5.91193,-1.78826 -10.14984,-3.97391 l -7.70526,-3.97393 -3.41013,2.73532 c -7.56861,6.07098 -13.176447,9.11292 -18.775387,10.18468 -7.19715,1.37767 -26.835895,0.61609 -30.173416,-1.17009 -1.337578,-0.71585 -6.440466,-1.30155 -11.339762,-1.30155 -5.877912,0 -8.633049,-0.44455 -8.100037,-1.30698 0.491827,-0.7958 3.704821,-1.0525 8.214861,-0.65631 l 7.40708,0.65067 -2.75001,-3.7196 c -2.19487,-2.96873 -3.775211,-3.76202 -7.828506,-3.92977 l -5.078483,-0.21018 4.621801,-0.48645 c 3.274669,-0.34467 4.430598,-0.98472 3.965826,-2.19592 -0.44403,-1.15712 -2.139371,-1.54425 -5.246943,-1.19813 l -4.590944,0.51134 4.063346,-1.41176 c 2.234841,-0.77646 4.063347,-2.09291 4.063347,-2.92542 0,-0.83251 -1.828506,-2.10024 -4.063347,-2.81715 l -4.063346,-1.30349 3.584034,-0.12763 c 3.084993,-0.1099 3.479062,-0.51934 2.830164,-2.94073 -0.414636,-1.5472 -0.761571,-3.51636 -0.77096,-4.37591 -0.01,-0.85956 -1.001646,-1.62809 -2.205022,-1.70786 -2.083772,-0.13813 -2.083772,-0.17226 0,-0.71681 1.203376,-0.31446 2.187956,-1.65574 2.187956,-2.98061 0,-1.43045 -0.888685,-2.44104 -2.187956,-2.4881 -1.676362,-0.0608 -1.530194,-0.34364 0.62513,-1.20997 4.229994,-1.70025 3.383043,-3.71182 -1.562825,-3.71182 l -4.375912,0 0,7.30527 c 0,4.0179 0.367764,14.14501 0.81727,22.50469 l 0.817258,15.19942 10.747652,0.2571 10.747639,0.25709 -10.939779,0.41671 c -9.017291,0.34347 -10.939779,0.76797 -10.939779,2.41555 0,1.66609 1.092752,1.88312 6.563867,1.30368 3.610127,-0.38236 7.689102,-0.21806 9.064388,0.36511 1.722909,0.73058 -0.123901,1.08764 -5.938737,1.14818 -6.813169,0.0709 -8.439258,0.46768 -8.439258,2.05906 0,1.43603 1.103155,1.91079 4.063346,1.74872 7.699955,-0.42157 13.854799,0.0331 12.932532,0.9554 -0.508493,0.50849 -4.681238,0.76454 -9.272769,0.569 -6.019254,-0.25633 -7.825043,0.004 -6.472849,0.93173 1.031465,0.70798 6.892061,1.29585 13.023551,1.30639 6.131477,0.01 10.7417,0.4256 10.244922,0.92238 -0.496779,0.49678 -5.23214,0.76241 -10.52303,0.59028 -8.825538,-0.28709 -9.419412,-0.15522 -7.192873,1.59729 1.334803,1.05063 4.991815,1.94978 8.126693,1.9981 3.134878,0.0484 6.825009,0.59769 8.200295,1.22078 1.828269,0.82831 1.156016,0.97962 -2.50052,0.56278 -4.477571,-0.51042 -4.215829,-0.30149 2.50052,1.99605 4.759555,1.62817 12.542022,4.317 22.308035,4.98354 18.114687,1.23633 31.582737,0.65087 47.828307,-5.46921 l 16.84235,-6.34491 -1.21145,-9.5037 0.85609,-75.17853 -0.35536,-84.68224 -6.87644,-2.05907 c -14.37808,-4.30535 -48.842137,-4.55742 -70.734641,-1.54483 z M 50.806064,262.3331 c -4.469681,0.86963 -8.361117,1.40765 -8.647639,1.19561 -1.247572,-0.92328 1.059496,-1.48562 8.655241,-2.10967 l 8.119091,-0.66707 z m 0.290173,32.9727 c -2.247156,0.27826 -5.622859,0.27252 -7.501563,-0.0128 -1.878704,-0.28528 -0.04013,-0.51294 4.085739,-0.50593 4.125859,0.008 5.66298,0.24043 3.415824,0.51869 z m -1.25026,8.75182 c -2.247156,0.27826 -5.622859,0.27252 -7.501563,-0.0127 -1.878704,-0.28529 -0.04013,-0.51295 4.085739,-0.50593 4.125859,0.007 5.662979,0.24042 3.415824,0.51868 z m 0,8.75182 c -2.247156,0.27826 -5.622859,0.27252 -7.501563,-0.0128 -1.878704,-0.28528 -0.04013,-0.51294 4.085739,-0.50593 4.125859,0.007 5.662979,0.24043 3.415824,0.51868 z m 6.586259,9.72906 c -2.833953,0.9875 -16.683725,1.31349 -16.106243,0.3791 0.34406,-0.5567 4.390027,-0.96775 8.991036,-0.91347 4.601008,0.0543 7.80285,0.29475 7.115207,0.53437 z m -6.251302,6.8101 c -2.400138,1.08742 -9.096708,1.79641 -8.022509,0.84938 0.286522,-0.2526 2.771415,-0.80194 5.521988,-1.22077 3.485476,-0.53072 4.243259,-0.41817 2.500521,0.37139 z m -0.937695,4.70467 c -1.891019,0.28647 -4.985414,0.28647 -6.876433,0 -1.891019,-0.28646 -0.343822,-0.52085 3.438216,-0.52085 3.782038,0 5.329235,0.23439 3.438217,0.52085 z m 54.846781,-79.34934 c -2.97753,4.69185 -3.77627,15.09265 -1.49748,19.49935 1.08615,2.10037 1.97481,4.4563 1.97481,5.23539 0,2.77111 -3.05515,0.33617 -5.650837,-4.5037 -1.44989,-2.70344 -3.72532,-5.07941 -5.05653,-5.27993 -11.02285,-1.66034 -12.54127,-1.57336 -16.56112,0.94856 -11.036416,6.92391 -10.437267,28.25985 1.01293,36.07052 3.95022,2.69459 5.2881,2.91704 13.75296,2.28657 5.15732,-0.38413 10.611087,-1.06173 12.119487,-1.50577 1.99631,-0.58769 3.65263,0.10277 6.08751,2.53769 3.0471,3.04709 3.26997,3.91112 2.50207,9.69984 -1.04283,7.86123 -3.22601,12.20826 -8.2575,16.44204 -4.802867,4.04135 -6.521847,4.05508 -20.587147,0.16446 -13.578662,-3.75605 -18.727735,-3.90476 -23.995095,-0.69306 -3.323592,2.02652 -10.378274,13.34848 -10.378274,16.65595 0,0.40371 1.547197,0.96839 3.438216,1.25486 3.200117,0.48478 3.15682,0.53381 -0.62513,0.70817 -3.167398,0.14602 -4.063347,0.73868 -4.063347,2.68785 0,1.93233 0.833511,2.50052 3.668139,2.50052 2.917546,0 4.392578,-1.07864 7.20839,-5.27129 4.57304,-6.8091 8.814486,-7.8585 25.723961,-6.36451 22.425357,1.98135 32.066827,-1.09425 37.346687,-11.91344 2.33476,-4.78428 2.54273,-6.68386 1.77186,-16.18438 -1.13919,-14.03984 -2.8993,-18.01198 -9.764,-22.03497 -6.38118,-3.73962 -11.16294,-4.07045 -17.935087,-1.24087 -5.18577,2.16676 -13.08648,1.77897 -16.18734,-0.79452 -1.0045,-0.83366 -1.82636,-3.37518 -1.82636,-5.64781 0,-4.65066 4.64723,-9.31462 9.28121,-9.31462 2.82105,0 9.19309,2.90562 14.439457,6.58427 3.31923,2.3274 8.35069,2.80115 11.11958,1.047 1.17447,-0.74406 1.53457,-2.78935 1.15229,-6.54473 -0.30584,-3.00435 -0.11478,-7.06035 0.42465,-9.01334 0.78537,-2.84367 0.61814,-3.41176 -0.83973,-2.85232 -1.21991,0.46812 -1.82043,-0.1266 -1.82043,-1.80288 0,-1.37579 -0.81522,-4.45252 -1.81159,-6.83719 -1.98282,-4.74557 -0.65385,-6.06308 1.53592,-1.52267 0.74618,1.5472 1.39267,2.25047 1.43664,1.56282 0.12403,-1.94049 -4.72532,-9.37695 -6.11481,-9.37695 -0.68181,0 -2.04308,1.26589 -3.02496,2.81309 z m 2.25337,9.37695 c 1.44428,8.47165 1.37171,10.68805 -0.3695,11.28658 -1.04826,0.36031 -1.49332,-0.08 -1.14052,-1.12821 0.31821,-0.94551 -0.0937,-2.28173 -0.91518,-2.96937 -1.62179,-1.35741 -1.05166,-11.87748 0.64369,-11.87748 0.54019,0 1.34187,2.10982 1.78151,4.68848 z m -28.685467,19.06647 c -0.62362,1.03147 -1.505129,4.12586 -1.958898,6.87643 l -0.825034,5.00105 -0.156483,-5.16053 c -0.105647,-3.48296 0.531161,-5.71832 1.958896,-6.87643 1.825339,-1.48063 1.959919,-1.45877 0.981519,0.15948 z m 38.014627,37.23541 c 0.15903,4.43786 -3.13748,13.65801 -4.42344,12.37206 -0.43277,-0.43279 -0.10202,-1.61201 0.73489,-2.6205 0.83698,-1.0085 1.97622,-4.53845 2.53163,-7.84435 0.83351,-4.96106 1.03554,-5.29412 1.15692,-1.90721 z M 82.777013,286.36231 c -3.06349,3.06347 -2.37521,6.31373 1.69391,7.9992 3.57772,1.48195 5.9589,1.21579 12.89154,-1.441 3.927747,-1.50524 3.519877,-2.7557 -1.99591,-6.11903 -4.76851,-2.90769 -9.94061,-3.0881 -12.58954,-0.43917 z m -26.745598,83.15812 c 0.460859,4.83262 -0.838012,5.23552 -1.676474,0.52002 -0.293436,-1.65033 -1.604897,-2.63453 -3.857191,-2.89469 -3.235399,-0.3737 -3.37289,-0.17895 -2.647902,3.75078 0.420588,2.27973 1.568915,4.7914 2.551857,5.5815 1.335066,1.07315 1.398116,1.56623 0.249264,1.94919 -2.559033,0.853 0.07139,3.479 3.667102,3.66096 2.946726,0.14913 3.015178,0.23754 0.55134,0.71208 -4.729373,0.91093 -3.131053,2.85782 2.500521,3.04585 l 5.313606,0.17743 -4.776207,0.76027 -4.77622,0.76028 3.952361,4.02805 c 4.813178,4.90535 8.685247,5.71497 24.662091,5.15664 13.23293,-0.46245 14.46026,-0.9589 26.407477,-10.68176 l 4.21092,-3.42691 7.26551,4.02482 c 13.20688,7.3161 20.28715,4.45121 20.48148,-8.28738 0.0989,-6.48597 -4.11107,-13.97742 -7.81053,-13.89832 -1.59777,0.0341 -1.28328,0.71611 1.30938,2.83932 7.78772,6.37758 4.43486,16.96298 -4.89345,15.4492 -2.44198,-0.39628 -6.40353,-2.57938 -9.09799,-5.01367 -8.8023,-7.95235 -11.577,-7.69009 -25.677097,2.42693 -8.55039,6.13495 -10.5726,7.0511 -15.35195,6.95517 -11.212622,-0.22506 -21.330505,-10.59347 -21.676977,-22.21372 -0.07977,-2.67526 -0.414261,-3.81756 -0.743317,-2.53845 -0.329069,1.2791 -0.390982,4.49948 -0.137604,7.15641 z m 55.412275,6.1462 c 0.44017,0.71221 -0.63954,1.25026 -2.50892,1.25026 -1.8049,0 -4.3698,0.58241 -5.69988,1.29424 -1.68391,0.90121 -2.41832,0.89181 -2.41832,-0.031 0,-1.38057 5.15061,-3.76382 8.1342,-3.76382 0.94612,0 2.06793,0.56262 2.49292,1.25026 z m 26.8806,7.2901 c 0,1.62111 -3.42632,4.28665 -4.84328,3.76787 -0.64712,-0.23692 0.17789,-1.44161 1.83336,-2.67708 1.65545,-1.23548 3.00992,-1.72633 3.00992,-1.09079 z M 47.055283,363.02212 c 0,1.66484 1.103267,2.52053 3.750781,2.90912 3.250602,0.47708 3.750782,0.16255 3.750782,-2.35862 0,-2.39885 -0.6579,-2.90912 -3.750782,-2.90912 -2.842054,0 -3.750781,0.57144 -3.750781,2.35862 z M 33.198233,239.83723 c -0.286522,0.24695 -3.334032,0.7741 -6.772248,1.17144 -4.021775,0.46479 -5.359491,0.336 -3.750781,-0.36112 2.388647,-1.03508 11.607443,-1.74498 10.523029,-0.81032 z m -10.835594,22.88372 c -0.859554,0.34683 -2.266097,0.34683 -3.125652,0 -0.859554,-0.34684 -0.156282,-0.63062 1.562826,-0.63062 1.719108,0 2.42238,0.28378 1.562826,0.63062 z m 2.422379,7.5276 c -0.902525,0.36116 -1.980875,0.31676 -2.396336,-0.0986 -0.415449,-0.41545 0.322992,-0.71095 1.640966,-0.65667 1.456491,0.06 1.752741,0.35625 0.75537,0.75536 z m 4.766618,7.34559 c -4.645693,1.01077 -11.020133,1.18793 -10.46573,0.29088 0.33617,-0.54394 3.250452,-0.92371 6.476174,-0.84394 3.225722,0.0798 5.021021,0.32864 3.989556,0.55306 z m -7.267139,5.15702 c -0.902525,0.36116 -1.980875,0.31675 -2.396336,-0.0987 -0.415449,-0.41545 0.322992,-0.71095 1.640966,-0.65666 1.456491,0.06 1.752741,0.35625 0.75537,0.75536 z m -0.570781,27.51808 c -1.216466,0.31699 -2.904318,0.29615 -3.750781,-0.0464 -0.846464,-0.34248 0.148818,-0.60183 2.211748,-0.57635 2.06293,0.0255 2.755499,0.30569 1.539033,0.62268 z m -4.352119,13.71447 c -0.859554,0.34683 -2.266097,0.34683 -3.125651,0 -0.859554,-0.34684 -0.156283,-0.63062 1.562825,-0.63062 1.719108,0 2.42238,0.28378 1.562826,0.63062 z m 0.601338,7.53996 c -1.216466,0.31699 -2.904318,0.29615 -3.750782,-0.0464 -0.846464,-0.34248 0.148819,-0.60184 2.211748,-0.57635 2.06293,0.0255 2.755499,0.30568 1.539034,0.62267 z m -0.288773,5.38488 c -3.441317,1.47878 -4.664722,1.47878 -3.750781,0 0.424988,-0.68764 2.005392,-1.21071 3.512006,-1.16238 2.641,0.0848 2.649577,0.12643 0.238775,1.16238 z m 0.937695,7.13365 c -1.547197,0.29801 -4.078975,0.29801 -5.626172,0 -1.547197,-0.298 -0.281308,-0.54183 2.813086,-0.54183 3.094395,0 4.360284,0.24383 2.813086,0.54183 z m 4.358721,5.01586 c -1.900471,0.28738 -4.713557,0.27969 -6.251303,-0.017 -1.537745,-0.29676 0.01713,-0.53188 3.455408,-0.5225 3.438216,0.01 4.696366,0.2522 2.795895,0.53957 z m 4.378524,28.74309 c -1.555211,0.29905 -3.80568,0.28769 -5.001041,-0.0253 -1.195362,-0.31293 0.07714,-0.55762 2.827664,-0.54374 2.750573,0.0139 3.728589,0.26992 2.173377,0.56897 z m -6.236724,8.69558 c -0.859554,0.34684 -2.266097,0.34684 -3.125651,0 -0.859554,-0.34683 -0.156283,-0.63062 1.562826,-0.63062 1.719108,0 2.422379,0.28379 1.562825,0.63062 z m 10.610023,23.82409 c -1.900471,0.28739 -4.713557,0.2797 -6.251302,-0.017 -1.537746,-0.29677 0.01713,-0.53189 3.455407,-0.52251 3.438216,0.01 4.696366,0.2522 2.795895,0.53957 z m 9.995482,16.22264 c -1.216466,0.31699 -2.904317,0.29615 -3.750781,-0.0464 -0.846464,-0.34247 0.148818,-0.60184 2.211748,-0.57636 2.06293,0.0255 2.755499,0.30569 1.539033,0.62268 z m -6.930781,-0.0125 c -0.902526,0.36116 -1.980875,0.31674 -2.396337,-0.0988 -0.415449,-0.41545 0.322993,-0.71095 1.640967,-0.65666 1.456491,0.06 1.75274,0.35625 0.75537,0.75537 z m 10.080225,3.82243 c -4.29777,0.24414 -11.330485,0.24414 -15.628256,0 -4.29777,-0.24413 -0.781413,-0.44389 7.814128,-0.44389 8.595541,0 12.111898,0.19976 7.814128,0.44389 z m 9.987506,6.20987 c -1.555212,0.29905 -3.805681,0.2877 -5.001042,-0.0252 -1.195362,-0.31293 0.07714,-0.55762 2.827664,-0.54374 2.750573,0.0139 3.728589,0.26992 2.173378,0.56897 z m -9.362376,-0.0222 c -1.203376,0.31448 -3.172536,0.31448 -4.375911,0 -1.203376,-0.31448 -0.218796,-0.57177 2.187955,-0.57177 2.406752,0 3.391332,0.25729 2.187956,0.57177 z m -8.775616,1.25485 c -1.216465,0.31699 -2.904317,0.29613 -3.750781,-0.0464 -0.846464,-0.34248 0.148819,-0.60184 2.211748,-0.57636 2.06293,0.0255 2.755499,0.30569 1.539033,0.62268 z m -6.85264,-0.0384 c -0.859554,0.34684 -2.266097,0.34684 -3.125651,0 -0.859554,-0.34684 -0.156282,-0.63062 1.562826,-0.63062 1.719108,0 2.422379,0.28378 1.562825,0.63062 z m 21.862367,6.32045 c -1.900471,0.28737 -4.713557,0.27969 -6.251302,-0.017 -1.537745,-0.29677 0.01713,-0.5319 3.455407,-0.52251 3.438217,0.01 4.696366,0.25219 2.795895,0.53958 z m -11.258945,-0.0308 c -1.216466,0.31699 -2.904318,0.29614 -3.750782,-0.0464 -0.846463,-0.34248 0.148819,-0.60183 2.211749,-0.57635 2.06293,0.0255 2.755499,0.30569 1.539033,0.62268 z m -7.501563,1.25026 c -1.216466,0.31699 -2.904317,0.29614 -3.750781,-0.0464 -0.846464,-0.34248 0.148818,-0.60183 2.211748,-0.57635 2.06293,0.0255 2.755499,0.30569 1.539033,0.62268 z m 111.60953,1.20945 c 22.80768,3.90927 32.50678,6.51745 32.50678,8.74141 0,1.63271 -3.13852,1.7527 -5.62618,0.21508 -2.98946,-1.84777 -26.82033,-6.15399 -32.58738,-5.88851 -3.48255,0.16032 -6.87841,-0.0463 -7.54634,-0.45907 -0.66794,-0.4128 -7.06523,-0.78479 -14.21621,-0.82665 -10.63434,-0.0623 -13.45398,0.31945 -15.48573,2.09625 -1.36623,1.19477 -2.077567,1.47673 -1.58076,0.62655 1.2399,-2.12181 -5.968507,-1.24991 -8.824857,1.06743 -1.81996,1.47644 -1.97622,1.47217 -1.07115,-0.0294 0.86369,-1.43305 0.27254,-1.59395 -3.19831,-0.8705 -2.34176,0.48812 -8.75868,1.16825 -14.259831,1.51139 -14.91757,0.93051 -25.815953,2.65841 -42.773898,6.78166 -8.3975,2.04182 -15.852178,3.71239 -16.565951,3.71239 -2.493032,0 -1.273953,-2.45799 1.515303,-3.05525 1.547197,-0.3313 10.003496,-2.30484 18.791777,-4.38565 8.788281,-2.0808 22.572403,-4.40444 30.631381,-5.16365 8.058979,-0.75922 19.716249,-2.11765 25.905129,-3.01873 10.522047,-1.53201 47.426167,-2.24772 54.386227,-1.05477 z M 26.946931,446.12682 c -0.286522,0.24505 -2.490106,0.80688 -4.896857,1.24851 -3.078667,0.56493 -3.819946,0.43853 -2.500521,-0.4264 1.694903,-1.11105 8.637336,-1.88261 7.397378,-0.82211 z m 8.856008,13.77937 c 0,0.25961 -0.984581,1.24419 -2.187956,2.18795 -1.982988,1.55516 -2.02721,1.51094 -0.472049,-0.47204 1.633303,-2.08263 2.660005,-2.74493 2.660005,-1.71591 z m 149.837411,1.98485 c -0.26072,0.78214 -2.43357,2.57226 -4.82857,3.97805 -2.395,1.40578 -3.22931,1.64757 -1.85402,0.53729 1.37528,-1.11027 3.54814,-2.90039 4.82857,-3.97804 1.28042,-1.07765 2.11474,-1.31944 1.85402,-0.5373 z m -9.80824,6.85584 c 0,0.34382 -1.68786,1.49795 -3.75079,2.56473 -2.06293,1.06679 -3.75078,1.6583 -3.75078,1.31448 0,-0.34382 1.68785,-1.49795 3.75078,-2.56474 2.06293,-1.06678 3.75079,-1.65829 3.75079,-1.31447 z m -48.86767,6.46332 c -1.65999,2.14422 -3.26962,3.67437 -3.57697,3.40032 -0.30735,-0.27403 1.0508,-2.0284 3.01814,-3.89857 l 3.57697,-3.40034 z m 38.25049,0.49357 c 0.42105,0.68128 -0.75287,1.816 -2.60872,2.5216 -4.47018,1.69955 -5.12141,0.80305 -1.25632,-1.72946 1.90213,-1.24631 3.39522,-1.55233 3.86504,-0.79214 z m -116.364636,0.35024 c -0.46951,1.23304 -1.168606,1.92693 -1.553548,1.54199 -0.384943,-0.38494 -8.01e-4,-1.39378 0.853652,-2.24188 1.234783,-1.22558 1.378388,-1.08198 0.699896,0.69989 z m 91.974516,4.63456 c -2.42395,1.56647 -3.75078,1.56647 -3.75078,0 0,-0.68765 1.26589,-1.24165 2.81309,-1.23112 2.27477,0.0155 2.45421,0.25108 0.93769,1.23112 z M 44.901909,90.178141 c -11.467989,5.802271 -14.249331,16.209179 -7.537283,28.202109 3.699734,6.6106 9.164722,8.85296 20.153861,8.26936 13.160805,-0.69893 18.15247,-3.60246 21.038566,-12.23766 2.11955,-6.34167 2.142,-7.24708 0.31608,-12.74442 C 75.126618,90.387822 70.536649,87.201421 57.700438,86.969222 53.267389,86.889082 49.570944,87.815824 44.901909,90.178141 z M 63.942651,141.8536 c -0.438016,0.70873 0.06389,0.91832 1.17647,0.49137 2.165976,-0.83116 2.562271,-1.72731 0.763859,-1.72731 -0.64706,0 -1.520217,0.55618 -1.940329,1.23594 z"
     id="path10331"
     inkscape:connector-curvature="0"
     sodipodi:nodetypes="sscsssssscsssssssscssssssssssssssssssssssssscccssssssscsscsscccccccsssssssssssssssssssscscsssssssssssscsssccscccsscsssssscscscscsssccscsscccccccsccsssssscsssssssssssssssssssssccsssssssccsscssscsscccsccsssssssssssssssssssscssssscssssscssscsscsssssssssssscssssscscssccsssssssssscsscccccscsscccccccccccccccsssssccscssssssssssssssscssssscsssssssssccscccsssssscccssscccccsscsssssssscsscsssscscccsssscsscssssscscssssscccccssccssssssscccccssscsssssscsssssscsssssssscssscssscsssssccssscssscccssssssssssssssssssscssssssssssssssssscsssssscsscssscsssccscssscsscsscccsssssssssccssscsssssccccssscscssscssscssscsssssssssssssssssssssssssssssssssssssssssssscsssscssscccsssscssssccsssssssssssssssscccssscsscsssssssscssssccssssssssssssssssscccccssssccccccccccsssscccccsscssssscccccccsccsssscccccccccccccccssssccsccsssscccccccsccccccccccccccccsssscsssccsssssssssssssssssssssssssssscscssssssssssscsssssscsscss" />
  <path
     style="fill:#00f4ff;fill-opacity:0.34513275;stroke:#000000;stroke-width:1.25026047px;stroke-linecap:butt;stroke-linejoin:miter;stroke-opacity:1"
     d="m 60.84258,147.29012 -17.120887,-1.10456 -12.702592,-0.55229 -10.493448,-6.07516 -8.284299,-17.12089 0,-16.5686 2.761433,-11.598014 7.179727,-13.807164 11.59802,-7.179733 11.598019,-4.418283 20.986894,0 13.254876,-0.55229 2.20915,12.150306 1.10457,18.77775 -1.65686,4.418278 -7.179723,-14.359449 -14.91174,-4.418283 -16.016313,4.970573 -11.59802,10.493449 2.761433,16.01631 4.418294,7.73201 9.388873,4.41829 20.986894,0 5.522865,-1.65685 -9.941159,22.64375 z"
     id="path10847"
     inkscape:connector-curvature="0" />
  <path
     style="fill:#04c01d;fill-opacity:0.46929824;stroke:none"
     d="m 67.452946,285.89749 1.562102,10.93471 4.295782,8.20104 9.763143,6.24841 12.49682,-0.78105 11.715757,-0.78105 4.29578,5.07683 -1.17157,13.27787 -7.41999,7.41999 -5.857877,1.95262 -26.165216,-5.46735 -12.106296,1.95262 -7.029462,8.20105 -5.467359,12.88734 -0.781051,15.2305 4.295782,14.05892 8.201039,12.88735 29.289423,1.56211 10.54419,-2.73368 14.449437,-11.32525 9.37262,4.68631 10.93473,4.29579 6.63893,-4.68632 2.73368,-8.98208 -2.73368,-11.71578 -7.02946,-5.85788 -2.34316,2.34315 3.90526,5.07683 2.73368,7.02947 -3.1242,4.68631 -7.42,-1.5621 -10.54418,-7.81052 -6.63895,-1.56211 -6.63893,3.90527 -14.839967,7.81051 -7.41999,3.51473 -9.372613,-1.56211 -6.638935,-5.85788 -4.295783,-6.63894 -1.952628,-10.93471 2.73368,-7.81052 5.857884,-3.51473 7.029462,0 30.85152,-0.39052 9.76315,-1.17158 6.2484,-5.46736 4.68631,-7.41999 0,-13.66839 -0.78105,-14.05893 -4.68631,-7.81051 -8.20104,-6.63894 -8.98209,0 -8.591557,3.12421 -8.20104,0 -5.46736,-2.34316 0,-3.51472 2.34316,-6.24841 6.24841,-1.17159 11.715767,6.24842 9.76313,1.5621 6.24842,-2.73368 0.39052,-15.2305 -0.78105,-13.27787 -7.41999,-7.81051 -4.29578,0 -5.076827,8.98208 1.952627,9.76315 3.1242,8.20103 -8.982087,-10.15366 -13.66839,-1.95264 -7.029467,4.29579 -6.638935,8.98209 0,12.1063 3.514731,9.37262"
     id="path10947"
     inkscape:connector-curvature="0" />
</svg>
