<?xml version="1.0" encoding="UTF-8" standalone="no"?>
<!-- Created with Inkscape (http://www.inkscape.org/) -->

<svg
   xmlns:dc="http://purl.org/dc/elements/1.1/"
   xmlns:cc="http://creativecommons.org/ns#"
   xmlns:rdf="http://www.w3.org/1999/02/22-rdf-syntax-ns#"
   xmlns:svg="http://www.w3.org/2000/svg"
   xmlns="http://www.w3.org/2000/svg"
   xmlns:sodipodi="http://sodipodi.sourceforge.net/DTD/sodipodi-0.dtd"
   xmlns:inkscape="http://www.inkscape.org/namespaces/inkscape"
   id="svg4415"
   version="1.1"
   inkscape:version="0.48.4 r9939"
   width="255.12126"
   height="511.92056"
   sodipodi:docname="Poison.svg">
  <metadata
     id="metadata4421">
    <rdf:RDF>
      <cc:Work
         rdf:about="">
        <dc:format>image/svg+xml</dc:format>
        <dc:type
           rdf:resource="http://purl.org/dc/dcmitype/StillImage" />
        <dc:title />
      </cc:Work>
    </rdf:RDF>
  </metadata>
  <defs
     id="defs4419">
    <filter
       id="filter5007"
       inkscape:label="Bubbly Bumps alpha"
       inkscape:menu="Image effects, transparent"
       inkscape:menu-tooltip="Same as Bubbly Bumps but with transparent highlights"
       color-interpolation-filters="sRGB"
       x="0"
       y="5"
       width="0.1"
       height="0.2">
      <feGaussianBlur
         id="feGaussianBlur5009"
         result="result0"
         in="SourceGraphic"
         stdDeviation="0.01" />
      <feTurbulence
         id="feTurbulence5011"
         baseFrequency="0.2"
         seed="300"
         numOctaves="10"
         result="result1"
         type="fractalNoise" />
      <feGaussianBlur
         id="feGaussianBlur5013"
         stdDeviation="4"
         result="result8" />
      <feDisplacementMap
         id="feDisplacementMap5015"
         in2="result8"
         result="result7"
         scale="5"
         in="SourceGraphic"
         xChannelSelector="R"
         yChannelSelector="A" />
      <feComposite
         id="feComposite5017"
         in2="result1"
         result="result2"
         operator="in"
         in="result7" />
      <feComposite
         id="feComposite5019"
         in2="result2"
         k3="3"
         in="result0"
         operator="arithmetic"
         result="result9"
         k1="0"
         k2="0"
         k4="0" />
      <feBlend
         id="feBlend5021"
         in2="result2"
         result="fbSourceGraphic"
         mode="multiply" />
      <feColorMatrix
         id="feColorMatrix5023"
         values="1 0 0 -1 0 1 0 1 -1 0 1 0 0 -1 0 -1.8 -0.5 0 5.7 -3.5 "
         in="fbSourceGraphic"
         result="fbSourceGraphicAlpha" />
      <feGaussianBlur
         id="feGaussianBlur5025"
         stdDeviation="0.5"
         in="fbSourceGraphicAlpha"
         result="result0" />
      <feSpecularLighting
         id="feSpecularLighting5027"
         result="result6"
         surfaceScale="-5"
         specularExponent="5">
        <feDistantLight
           id="feDistantLight5029"
           azimuth="225"
           elevation="25" />
      </feSpecularLighting>
      <feComposite
         id="feComposite5031"
         in2="result6"
         in="SourceGraphic"
         result="result2"
         operator="in" />
      <feComposite
         id="feComposite5033"
         in2="result2"
         in="result2"
         result="result4"
         operator="arithmetic"
         k2="1"
         k3="1"
         k1="0"
         k4="0" />
    </filter>
    <filter
       id="filter5055"
       x="-0.25"
       width="1.5"
       y="-0.25"
       height="1.5"
       inkscape:menu="Non realistic 3D shaders"
       inkscape:menu-tooltip="Fluid brushed cartoon drawing"
       inkscape:label="Comics fluid"
       color-interpolation-filters="sRGB">
      <feGaussianBlur
         id="feGaussianBlur5057"
         result="result8"
         stdDeviation="4" />
      <feComposite
         id="feComposite5059"
         in2="result8"
         in="result8"
         operator="xor"
         result="result6" />
      <feDisplacementMap
         id="feDisplacementMap5061"
         in2="result6"
         result="result4"
         scale="100"
         yChannelSelector="A"
         xChannelSelector="A"
         in="result6" />
      <feComposite
         id="feComposite5063"
         in2="result4"
         k1="5"
         in="result8"
         operator="arithmetic"
         result="result2"
         k2="0"
         k3="0"
         k4="0" />
      <feComposite
         id="feComposite5065"
         in2="result2"
         operator="in"
         in="result6"
         result="fbSourceGraphic" />
    </filter>
    <filter
       id="filter5097"
       y="-0.25"
       height="1.51"
       inkscape:menu-tooltip="Darkens the edge with an inner blur and adds a flexible glow"
       inkscape:menu="Shadows and Glows"
       inkscape:label="Dark and Glow"
       color-interpolation-filters="sRGB"
       width="2"
       x="-0.5">
      <feGaussianBlur
         id="feGaussianBlur5099"
         stdDeviation="14.923762711864407"
         result="result6" />
      <feComposite
         id="feComposite5101"
         in2="result6"
         result="result8"
         in="SourceGraphic"
         operator="atop" />
      <feComposite
         id="feComposite5103"
         in2="SourceAlpha"
         result="result9"
         operator="over"
         in="result8" />
      <feColorMatrix
         id="feColorMatrix5105"
         values="1 0 0 0 0 0 1 0 0 0 0 0 1 0 0 0 0 0 1 0 "
         result="result10" />
      <feBlend
         id="feBlend5107"
         in2="result6"
         in="result10"
         mode="normal" />
    </filter>
    <filter
       id="filter5137"
       inkscape:label="Ripple"
       inkscape:menu="Distort"
       inkscape:menu-tooltip="Horizontal rippling of edges"
       color-interpolation-filters="sRGB">
      <feTurbulence
         id="feTurbulence5139"
         numOctaves="3"
         baseFrequency="0.15457627118644068 0.22915254237288135"
         seed="100"
         type="turbulence" />
      <feColorMatrix
         id="feColorMatrix5141"
         values="2 0 0 0 0 0 0 0 0 0 0 0 0 0 0 0 0 0 0.5 0.5"
         result="result91" />
      <feDisplacementMap
         id="feDisplacementMap5143"
         in2="result91"
         yChannelSelector="A"
         xChannelSelector="R"
         scale="14.3"
         in="SourceGraphic" />
    </filter>
    <filter
       id="filter5179"
       x="-0.2"
       width="1.4"
       y="-0.2"
       height="1.4"
       inkscape:menu-tooltip="Marbled transparency effect which conforms to image detected edges"
       inkscape:menu="Image effects, transparent"
       inkscape:label="Marbled ink"
       color-interpolation-filters="sRGB">
      <feGaussianBlur
         id="feGaussianBlur5181"
         result="result9"
         in="SourceGraphic"
         stdDeviation="7.6818670076726336" />
      <feTurbulence
         id="feTurbulence5183"
         baseFrequency="0.06"
         numOctaves="10"
         type="fractalNoise"
         result="result7"
         seed="0" />
      <feColorMatrix
         id="feColorMatrix5185"
         values="1 0 0 0 0 0 1 0 0 0 0 0 1 0 0 0 0 0 1.5 -0.3 "
         result="result5" />
      <feComposite
         id="feComposite5187"
         in2="result5"
         in="result9"
         operator="out"
         result="result6" />
      <feGaussianBlur
         id="feGaussianBlur5189"
         result="result10"
         stdDeviation="0.5" />
      <feDisplacementMap
         id="feDisplacementMap5191"
         in2="result10"
         result="result4"
         scale="120"
         yChannelSelector="G"
         xChannelSelector="A"
         in="result5" />
      <feComposite
         id="feComposite5193"
         in2="result4"
         in="result9"
         operator="in"
         result="result2" />
      <feComposite
         id="feComposite5195"
         in2="SourceGraphic"
         operator="in"
         in="result2"
         result="fbSourceGraphic" />
      <feBlend
         id="feBlend5197"
         in2="result2"
         mode="multiply" />
    </filter>
  </defs>
  <sodipodi:namedview
     pagecolor="#ffffff"
     bordercolor="#666666"
     borderopacity="1"
     objecttolerance="10"
     gridtolerance="10"
     guidetolerance="10"
     inkscape:pageopacity="0"
     inkscape:pageshadow="2"
     inkscape:window-width="1271"
     inkscape:window-height="747"
     id="namedview4417"
     showgrid="false"
     inkscape:zoom="0.90509668"
     inkscape:cx="92.458668"
     inkscape:cy="264.44875"
     inkscape:window-x="1"
     inkscape:window-y="22"
     inkscape:window-maximized="0"
     inkscape:current-layer="svg4415"
     fit-margin-top="0"
     fit-margin-left="0"
     fit-margin-right="0"
     fit-margin-bottom="0" />
  <path
     style="fill:#2fdc00;fill-opacity:0.80395681;stroke:none"
     d="m 78.428976,271.657 6.578284,-4.37528 13.704758,-4.37529 23.846272,1.25009 18.91256,0.62503 9.86743,2.81269 1.37047,4.37528 -11.78608,5.00034 -16.17161,3.12519 -14.80114,0.31253 -27.135423,-4.06276 -4.385521,-2.50017 z"
     id="path4939"
     inkscape:connector-curvature="0" />
  <path
     style="fill:#38e700;fill-opacity:0.84362135;stroke:none;filter:url(#filter5097)"
     d="m 68.50097,342.268 7.977423,2.12731 11.966134,1.32957 11.966133,-0.26591 11.96613,-2.39323 7.97743,-2.92505 2.65914,7.17968 0.26591,21.80495 -6.91376,33.77109 -9.04108,26.85733 -10.636569,32.70743 -2.92505,4.25463 -3.988714,-1.32957 -17.816244,-50.52368 -10.37065,-30.31421 -2.925055,-17.28442 3.456883,-14.35936 z"
     id="path4429"
     inkscape:connector-curvature="0"
     transform="matrix(1.4104063,0,0,1.4104063,-18.46779,-209.28559)" />
  <path
     style="fill:#000000"
     d="m 110.33074,449.65368 c -4.65833,-0.54349 -4.6986,-0.63201 -16.254312,-35.73017 C 89.990039,401.51194 84.809659,386.91423 82.564475,381.48417 74.217042,361.29554 64.496381,329.86272 62.343988,316.099 c -0.656008,-4.19493 -2.260162,-7.3314 -5.049452,-9.87284 -3.741427,-3.40897 -6.089965,-10.19469 -7.479455,-21.61067 -0.158756,-1.3043 -2.964985,-5.27495 -6.23607,-8.82366 -3.27107,-3.54869 -6.313204,-8.28111 -6.760275,-10.51648 -0.44707,-2.23538 -2.651817,-5.42392 -4.899441,-7.08566 -2.247609,-1.66174 -4.086582,-3.7119 -4.086582,-4.55592 0,-0.84403 -1.904048,-3.70319 -4.231218,-6.35368 -2.327171,-2.65051 -4.231219,-6.02104 -4.231219,-7.49009 0,-3.84382 3.81646,-7.1037 8.316573,-7.1037 l 3.883878,0 -0.219233,-20.09829 c -0.140195,-12.85619 -0.906708,-21.97899 -2.127133,-25.31764 -1.47307,-4.02975 -1.540417,-6.02593 -0.29548,-8.75824 0.886836,-1.9464 2.049292,-6.83215 2.583244,-10.85722 0.533938,-4.02508 2.054031,-8.40155 3.377994,-9.7255 1.323948,-1.32395 2.857567,-4.2017 3.408049,-6.39498 4.292261,-17.1017 44.477939,-59.320585 64.841052,-68.12169 6.41192,-2.771293 23.4952,-6.031898 30.47397,-5.816417 3.49076,0.107755 9.34571,0.139631 13.011,0.07066 l 6.66417,-0.125385 -0.8686,-4.583821 c -1.97723,-10.434341 -6.30979,-12.691245 -17.06818,-8.891103 -19.86082,7.015376 -19.60245,6.960285 -24.03585,5.123922 -9.96616,-4.128118 -5.47879,-19.739863 8.2548,-28.718722 3.81696,-2.495502 6.95135,-5.080325 6.96529,-5.744077 0.0141,-0.663737 -1.56155,-3.092725 -3.50108,-5.397723 -1.93954,-2.305013 -3.9364,-5.824372 -4.43748,-7.820816 C 116.39411,12.731171 129.89318,-0.06153891 141.29396,2.2279362e-4 148.36334,0.03858579 156.79175,3.7743291 163.03664,9.6374448 l 4.74133,4.4514822 4.82799,-4.2390332 c 5.54318,-4.8669735 11.58532,-5.5315851 15.08928,-1.659752 2.84256,3.1409892 2.92116,5.5150272 0.38755,11.7051462 -4.52378,11.052493 -4.9042,10.513577 6.99694,9.912589 l 10.67531,-0.539071 6.60251,6.858918 c 4.44825,4.620985 7.50032,9.504996 9.35415,14.968755 2.49374,7.349698 3.13103,8.109837 6.79929,8.109837 2.59315,0 5.52908,1.481448 8.17035,4.122716 3.57435,3.57435 4.12273,5.17251 4.12273,12.014941 0,4.786834 -1.3874,11.863252 -3.52601,17.984444 -4.0458,11.579943 -4.29049,14.913493 -1.57223,21.419193 2.113,5.05713 9.94123,10.74779 14.78496,10.74779 4.35292,0.55035 4.23522,4.58556 4.55448,7.82599 0.5536,5.58607 -1.96255,8.33292 -6.07961,8.61338 -1.77384,0.12087 -5.7639,1.20368 -8.86679,2.40631 -12.17947,4.72055 -19.5551,1.96954 -21.19976,-7.90726 -1.97501,-11.86058 -4.73224,-16.4512 -12.13367,-20.20178 -3.78432,-1.91765 -9.86613,-3.89588 -13.51515,-4.39602 -6.74366,-0.92432 -13.09369,-5.45321 -13.09369,-9.33853 0,-1.08351 1.78993,-4.438465 3.97763,-7.455458 l 3.97763,-5.485437 -14.8599,-3.822723 c -8.17295,-2.102507 -15.13331,-3.549344 -15.46745,-3.215204 -0.33414,0.334139 0.80444,4.587121 2.53019,9.451076 13.31615,37.531176 20.23894,59.785146 21.95579,70.578976 0.81423,5.11908 7.97179,15.13171 10.81693,15.13171 0.74544,0 2.95751,-1.90405 4.91569,-4.23122 1.95819,-2.32717 4.7373,-4.23122 6.1758,-4.23122 3.48109,0 6.99467,5.24764 7.05662,10.53928 0.0275,2.34849 0.95701,5.85669 2.06562,7.796 2.98573,5.22301 2.58711,9.52828 -1.05781,11.42467 -1.74537,0.90809 -3.33885,1.78345 -3.54107,1.94524 -0.20221,0.16177 0.55176,2.90006 1.6755,6.08508 3.23837,9.17849 5.36182,27.05894 3.97072,33.43525 -1.00693,4.61544 -0.74281,6.31212 1.45207,9.32776 2.64564,3.63497 2.64201,3.77586 -0.26087,10.14807 -1.61906,3.55406 -2.96393,7.2901 -2.98859,8.30232 -0.0247,1.01221 -0.95169,3.03818 -2.06004,4.50216 -1.561,2.06186 -3.13867,2.47945 -7.00005,1.85283 -4.48354,-0.72758 -5.94115,-0.0251 -14.49329,6.98496 -5.22963,4.28664 -9.51696,8.53033 -9.52737,9.43041 -0.01,0.90009 -2.35945,6.49621 -5.22008,12.43581 -4.42605,9.18996 -5.83962,10.9395 -9.48583,11.74035 -2.35659,0.51759 -4.9028,0.55907 -5.65825,0.0922 -0.75546,-0.4669 -1.78539,1.54879 -2.28872,4.47931 -2.81251,16.37471 -20.18606,77.50254 -27.36993,96.29942 -2.22352,5.81793 -5.08316,14.17994 -6.35475,18.58225 -3.21426,14.19441 -9.25634,15.45808 -12.76205,15.03225 z m 4.718,-4.42508 c 1.34674,-1.62273 4.61379,-10.34291 11.99278,-32.01029 6.31745,-18.55031 21.09939,-69.19721 24.18302,-82.85746 3.93494,-17.43154 4.8015,-40.75015 1.91539,-51.54105 l -1.62937,-6.09201 -11.41689,3.38288 c -7.96714,2.36068 -14.9276,3.38792 -23.03551,3.3996 -13.11184,0.0189 -35.439517,-2.84778 -38.080574,-4.88922 -1.84491,-1.42603 -5.031116,4.75862 -9.930981,19.27675 -3.695941,10.95093 -3.109565,28.35847 1.453805,43.15857 5.015405,16.26617 11.501525,34.91173 14.228277,40.90178 4.071364,8.94387 16.170723,42.96152 18.559873,52.18158 3.94381,15.21968 7.6767,20.00915 11.76018,15.08887 z m -7.52807,-29.18948 c -0.5355,-2.43811 -0.67963,-4.72692 -0.32032,-5.08625 0.35933,-0.35933 1.05882,1.37415 1.55443,3.85215 1.17579,5.87892 0.0364,7.01838 -1.23411,1.2341 z m -4.82507,-17.7476 c 0.0677,-1.64306 0.40188,-1.97725 0.85211,-0.85213 0.40743,1.01813 0.35733,2.23462 -0.11128,2.70328 -0.46868,0.46867 -0.80201,-0.36436 -0.74077,-1.85115 z m -2.60495,-16.10215 c 0,-2.71503 0.29026,-3.82572 0.64502,-2.46821 0.35475,1.35752 0.35475,3.57891 0,4.93642 -0.35476,1.35752 -0.64502,0.24682 -0.64502,-2.46821 z m -5.584692,-11.28325 c 0,-3.49075 0.27505,-4.91879 0.61123,-3.17341 0.33617,1.74538 0.33617,4.60145 0,6.34683 -0.33618,1.74537 -0.61123,0.31734 -0.61123,-3.17342 z m -4.615367,-11.90521 c 0,-2.66925 0.487705,-5.1546 1.08377,-5.523 0.596066,-0.36838 0.846738,1.81555 0.557055,4.8532 -0.650381,6.81989 -1.640825,7.22421 -1.640825,0.6698 z m -2.721675,-12.89443 c 0.05458,-2.26253 0.661184,-5.38305 1.348137,-6.9345 0.833987,-1.88354 0.970162,-0.71196 0.409793,3.52602 -0.988342,7.47477 -1.898449,9.23938 -1.75793,3.40848 z m -2.91995,-11.78768 c 0,-2.28139 0.502048,-4.45827 1.115645,-4.8375 0.613612,-0.37923 0.861519,1.48738 0.550905,4.14799 -0.692002,5.92752 -1.66655,6.33071 -1.66655,0.68951 z m -1.297165,-11.36649 c 2.056105,-4.3173 2.707571,-5.11744 2.707571,-3.32546 0,0.75675 -0.98703,2.60791 -2.193407,4.11369 -2.068192,2.58148 -2.097542,2.53648 -0.514164,-0.78823 z m -1.50204,-7.87477 c 0.01128,-1.4868 0.665838,-3.6553 1.45324,-4.81889 1.045548,-1.54504 1.176406,-0.97448 0.485194,2.11561 -1.160017,5.18596 -1.967263,6.31172 -1.938434,2.70328 z m -0.636122,-10.87395 c 0.52965,-1.39097 1.318293,-2.17374 1.752543,-1.73949 0.434236,0.43425 8.88e-4,1.5723 -0.963011,2.52904 -1.392932,1.38256 -1.554945,1.22056 -0.789532,-0.78955 z m -2.206298,-3.41002 c 0,-0.81003 1.110695,-2.34384 2.468211,-3.40849 2.283109,-1.79052 2.313038,-1.72415 0.399102,0.88512 -1.138014,1.55144 -2.248709,3.08526 -2.468211,3.40848 -0.219501,0.32321 -0.399102,-0.075 -0.399102,-0.88511 z m -0.268387,-6.75459 c 0.713694,-1.55145 1.044914,-3.51891 0.736035,-4.37213 -0.308879,-0.85324 0.411571,-2.35899 1.600995,-3.34612 1.473268,-1.22271 2.162576,-1.29019 2.162576,-0.21168 0,0.8707 -0.70258,1.5831 -1.561292,1.5831 -0.858726,0 -1.219663,0.89033 -0.802084,1.97852 0.417579,1.08818 -0.184213,3.1509 -1.337319,4.58382 -2.005979,2.49276 -2.040491,2.48346 -0.798911,-0.21551 z m 91.072936,13.30122 c 3.27265,-5.54018 2.3005,-6.5413 -1.95416,-2.01241 -1.81902,1.93624 -4.78338,3.52045 -6.58746,3.52045 -1.80409,0 -3.28017,0.63469 -3.28017,1.41041 0,0.77572 2.08455,1.41041 4.63232,1.41041 3.67455,0 5.16105,-0.89503 7.18947,-4.32886 z M 63.092871,305.26326 c 0,-0.4203 -1.269365,-2.12668 -2.820812,-3.79196 -1.551447,-1.6653 -2.820813,-3.86014 -2.820813,-4.87746 0,-1.01731 -0.634683,-1.84966 -1.410406,-1.84966 -2.323081,0 -1.601926,3.60733 1.512773,7.56703 2.644625,3.36208 5.539258,4.90473 5.539258,2.95205 z M 164.44744,304.1464 c 1.14714,-1.38221 1.09944,-2.87532 -0.1799,-5.63061 -0.95757,-2.06228 -2.17957,-3.75456 -2.71558,-3.76061 -1.64139,-0.0185 -3.08907,3.22302 -3.28206,7.34897 -0.20146,4.3075 3.32893,5.47463 6.17754,2.04225 z m -99.622872,-7.16148 c 0.561991,-2.93992 0.316608,-3.19261 -1.810468,-1.86423 -1.353313,0.84517 -2.138655,2.37556 -1.745209,3.40088 1.124292,2.92985 2.843916,2.18668 3.555677,-1.53665 z m 104.798272,-5.8971 c -1.69541,-2.58752 -3.3467,-3.44588 -6.01806,-3.12823 -5.39386,0.64137 -5.84667,3.96378 -0.54022,3.96378 3.01337,0 4.80647,0.94797 5.99549,3.16966 1.08561,2.02849 1.9129,2.52 2.29783,1.3652 0.33081,-0.99244 -0.44995,-3.40913 -1.73504,-5.37041 z m 5.72202,-1.62553 c -1.51688,-1.51687 -2.32216,0.60754 -1.25735,3.31701 0.99885,2.54165 1.07429,2.54605 1.56827,0.0915 0.28543,-1.41824 0.14551,-2.95205 -0.31092,-3.40849 z m -114.367598,1.05067 c 1.524452,-2.4666 -0.736148,-4.55091 -2.946367,-2.7166 -1.094532,0.90838 -1.990055,2.20856 -1.990055,2.88929 0,1.70037 3.862327,1.56524 4.936422,-0.17269 z m -4.936422,-4.93642 c 1.438022,-1.7327 1.341635,-2.11561 -0.532499,-2.11561 -1.258576,0 -2.288314,0.95202 -2.288314,2.11561 0,1.16358 0.239628,2.11561 0.532513,2.11561 0.292885,0 1.322623,-0.95203 2.2883,-2.11561 z m 132.3695,-7.85162 8.83634,-7.85162 -2.55082,-4.48405 c -1.40295,-2.46623 -4.77219,-5.48546 -7.48723,-6.70941 -2.71503,-1.22395 -7.79249,-3.70632 -11.28325,-5.51638 -3.49075,-1.81008 -10.31359,-4.89205 -15.16187,-6.84887 l -8.81503,-3.55783 0,3.32647 c 0,1.82955 -0.91475,4.24121 -2.03278,5.35923 -1.77009,1.77009 -1.59107,3.10448 1.38543,10.3262 1.88001,4.56138 4.1617,11.78417 5.07039,16.05065 l 1.6522,7.75723 10.77515,0 10.77515,0 z m -117.4963,2.5626 c 0.527562,-1.74538 3.508089,-8.44037 6.623381,-14.87776 l 5.664163,-11.70434 -3.17481,-3.37945 c -2.18692,-2.32786 -2.919979,-4.39485 -2.355816,-6.64264 1.690245,-6.73445 -0.647645,-7.03599 -13.244773,-1.70833 -6.551253,2.7707 -13.656739,5.6844 -15.789978,6.47488 -2.13324,0.79049 -3.878618,2.24159 -3.878618,3.22468 0,0.98308 -1.332665,3.48165 -2.961486,5.55235 -2.068136,2.62922 -2.691902,4.83902 -2.067811,7.32561 1.150539,4.58413 11.109672,15.41369 14.450586,15.71356 1.411943,0.12679 5.105896,0.82444 8.20879,1.55044 3.102894,0.72601 6.074874,1.39301 6.604397,1.48221 0.529509,0.0893 1.394398,-1.26584 1.921975,-3.01121 z m 71.63198,-7.90707 c 3.74945,-1.28815 6.81082,-2.97143 6.80303,-3.74063 -0.0295,-2.90847 -14.04647,-5.17749 -33.36593,-5.40117 -16.316942,-0.18891 -21.153932,0.2507 -27.855537,2.53168 -7.797064,2.65384 -10.20649,5.30098 -6.217988,6.83152 1.734025,0.66541 22.601045,3.32322 32.663115,4.16027 6.13939,0.51072 20.0962,-1.67543 27.97331,-4.38167 z m 65.15857,-3.16555 c 0.51719,-1.62955 0.24262,-3.66053 -0.61016,-4.5133 -2.23142,-2.23142 -1.908,-5.21758 0.56509,-5.21758 1.16359,0 2.11952,1.1107 2.1243,2.46821 0.006,1.6253 0.74921,1.04812 2.17706,-1.69006 3.88059,-7.44182 2.41575,-9.83016 -6.62528,-10.80214 -6.03039,-0.64831 -12.02669,-3.00368 -24.68211,-9.69524 -9.1941,-4.86137 -18.49848,-10.09873 -20.67639,-11.63856 -2.17789,-1.53982 -4.15929,-2.57177 -4.40309,-2.29322 -0.24382,0.27856 -0.86813,3.67988 -1.38739,7.5585 -0.67045,5.00797 -0.52468,6.43881 0.50288,4.93642 1.23495,-1.80559 1.45017,-1.73999 1.4686,0.44765 0.0159,1.8851 0.74018,2.33518 2.73773,1.70119 1.78836,-0.56762 3.19751,-10e-4 4.12543,1.65621 0.77512,1.38505 1.87016,2.05741 2.43344,1.49414 0.56327,-0.56327 1.73896,-0.0465 2.61263,1.14828 0.87368,1.19481 2.52313,2.32617 3.66548,2.51412 1.14233,0.18794 3.56505,1.15902 5.38384,2.15794 3.10438,1.70501 3.25192,1.61449 2.40937,-1.47823 l -0.8975,-3.29447 1.89514,3.21764 c 1.04233,1.76971 2.36335,2.74946 2.93559,2.1772 0.57225,-0.57224 1.41603,0.39578 1.87507,2.15115 0.52155,1.99442 1.57869,2.90606 2.81827,2.4304 1.09099,-0.41866 2.34346,0.17649 2.78324,1.32254 0.43978,1.14604 1.29812,1.77563 1.90742,1.39905 0.60929,-0.37656 2.19899,1.61482 3.53264,4.42531 1.82379,3.84333 2.73082,4.62685 3.65923,3.16097 0.87667,-1.38417 1.24064,-0.80085 1.25598,2.01288 0.0127,2.2778 0.6211,3.59133 1.432,3.09017 0.77573,-0.47942 1.41041,-0.19954 1.41041,0.62196 0,2.6544 2.60209,1.5839 3.57108,-1.46913 z M 92.134646,261.61489 c 8.538134,-2.59012 31.236794,-2.70243 45.357164,-0.22441 5.624,0.98696 10.22545,1.69117 10.22545,1.56489 0,-0.12623 -0.69677,-2.22836 -1.54839,-4.67129 l -1.54837,-4.44168 -23.48634,-0.1973 c -12.91748,-0.10846 -25.793112,-0.33302 -28.612512,-0.49889 -4.56062,-0.26832 -5.377555,0.22555 -7.404633,4.47636 -3.440884,7.21562 -3.49888,7.18262 7.017631,3.99232 z m -52.03924,-9.1829 c -0.35868,-1.57166 5.078013,-11.28325 6.316533,-11.28325 0.733115,0 0.967793,0.59083 0.521498,1.31295 -0.446295,0.72213 -0.166414,1.71161 0.621961,2.19885 0.788375,0.48724 1.443142,-0.26225 1.455018,-1.66555 0.01834,-2.16329 0.229585,-2.2296 1.388798,-0.43584 1.13408,1.75484 1.374582,1.63459 1.410407,-0.70521 0.03512,-2.2921 0.289288,-2.43169 1.356134,-0.74473 1.125335,1.77944 1.445666,1.73021 2.241798,-0.34449 0.510878,-1.33133 1.497048,-2.06944 2.191489,-1.64025 0.694442,0.42919 1.26261,0.10818 1.26261,-0.7133 0,-0.8215 0.672144,-1.49365 1.493649,-1.49365 0.821505,0 1.105885,0.62742 0.631946,1.39426 -0.494121,0.7995 0.07207,1.03594 1.327179,0.5543 1.203866,-0.46198 2.188852,-1.38681 2.188852,-2.05518 0,-0.6684 0.952024,-0.84993 2.115609,-0.40342 1.163585,0.44652 2.115609,0.0718 2.115609,-0.83271 0,-0.90449 0.621567,-1.26039 1.381268,-0.79087 2.754213,1.70219 7.08117,-2.10315 7.08117,-6.22753 0,-4.50871 2.004512,-5.74291 9.327271,-5.74291 4.605851,0 7.862243,-3.02631 5.643656,-5.24491 -1.210805,-1.2108 -25.141804,6.05452 -33.175915,10.07202 -10.40602,5.20361 -25.424958,9.52143 -29.786696,8.56343 -2.281684,-0.50115 -4.331837,-0.20344 -4.897057,0.71111 -1.704349,2.7577 0.503726,7.70482 4.191417,9.39077 1.962284,0.89713 3.2167,1.06306 2.787598,0.36876 -0.429102,-0.6943 0.247469,-0.86802 1.503479,-0.38604 1.444918,0.55446 1.79075,1.36924 0.941601,2.21839 -0.738136,0.73813 -1.010077,2.61156 -0.604331,4.16316 0.564966,2.16042 1.017171,2.3803 1.930874,0.93887 0.908471,-1.43316 1.198282,-1.28009 1.214727,0.64159 0.01791,2.0898 0.362206,2.21107 2.002199,0.7052 1.089327,-1.00024 1.908167,-2.13596 1.819649,-2.52382 z m 107.795064,-5.64162 c -0.2926,-1.16359 -0.55706,-2.90897 -0.58768,-3.87862 -0.0306,-0.96966 -0.45763,-1.76301 -0.94893,-1.76301 -0.49129,0 -1.74799,0.79335 -2.79265,1.76301 -1.51953,1.41041 -1.70033,1.41041 -0.90405,0 0.54744,-0.96966 0.32322,-1.76301 -0.49829,-1.76301 -0.8215,0 -1.49365,0.63468 -1.49365,1.41041 0,0.77572 -0.67214,1.4104 -1.49364,1.4104 -0.82151,0 -1.02974,-0.79335 -0.46276,-1.763 0.56699,-0.96966 -0.41422,-0.49365 -2.18044,1.0578 -3.41976,3.0039 -4.10915,2.95074 -6.64118,-0.51201 -1.31302,-1.79567 -2.00603,-1.87397 -3.75305,-0.42406 -1.44654,1.20052 -2.43963,1.29777 -3.05668,0.29936 -1.20993,-1.95772 -7.37353,-1.89888 -8.59782,0.0821 -0.67941,1.0993 -1.29795,1.02184 -2.09135,-0.26191 -0.90906,-1.47087 -1.60819,-1.43186 -3.62046,0.20203 -1.5068,1.22347 -2.07934,1.33475 -1.44656,0.28115 0.75893,-1.26364 -0.10578,-1.60952 -3.14042,-1.25618 -2.30324,0.26816 -5.011462,-0.0216 -6.018262,-0.64377 -1.02723,-0.63485 -2.74383,-0.39306 -3.91162,0.55098 -1.697,1.37187 -1.85621,1.29192 -0.86266,-0.43328 0.86812,-1.50741 0.40719,-1.40605 -1.603325,0.3526 -1.551941,1.35752 -3.686394,2.46821 -4.743239,2.46821 -1.251115,0 -0.966326,-0.72246 0.816258,-2.07075 2.073368,-1.56821 2.224366,-2.07404 0.622173,-2.08425 -3.815995,-0.0244 -8.532606,4.62886 -7.070889,6.97582 1.648088,2.64619 22.221234,3.83837 48.677884,2.82081 15.36857,-0.5911 18.2492,-1.04751 17.80329,-2.82081 z m 61.88827,-2.11996 c 2.29467,-2.7649 2.26726,-18.02924 -0.0498,-27.70268 -2.81414,-11.74896 -5.2589,-16.47428 -9.71584,-18.77905 -3.6168,-1.87031 -4.7,-1.87946 -9.01595,-0.0762 -2.69791,1.12727 -13.3482,4.59733 -23.66731,7.71128 -10.31911,3.11394 -19.6342,6.53389 -20.7002,7.59989 -2.09221,2.09221 -0.79723,3.07888 16.60202,12.64927 4.26648,2.34677 10.24796,5.82464 13.29215,7.72862 8.90593,5.57013 25.1582,12.98877 28.45495,12.98877 1.67229,0 3.83224,-0.95398 4.79992,-2.11995 z M 150.53807,231.9811 c 0,-3.49076 -0.47601,-6.42231 -1.05781,-6.51458 -4.20646,-0.66708 -7.59159,0.0496 -13.62016,2.88369 -3.80641,1.78941 -9.20121,3.5402 -11.98846,3.89064 -4.68755,0.58937 -20.13368,-2.07916 -25.871212,-4.46963 -1.81347,-0.75555 -2.51161,-0.33357 -2.63182,1.59077 -0.14763,2.36325 -0.22661,2.37799 -0.80861,0.1509 -0.92076,-3.52335 -3.223613,-3.05278 -3.45107,0.7052 l -0.192069,3.17342 -0.611228,-3.17342 c -0.917328,-4.76263 -3.209746,-3.81766 -3.421518,1.41041 l -0.185666,4.58382 -1.039075,-4.93642 -1.03906,-4.93643 -0.326255,4.23122 c -0.317511,4.11764 -0.352503,4.13695 -1.303709,0.71942 -0.543317,-1.95204 -1.390294,-2.84378 -1.906983,-2.00777 -0.511244,0.82722 -0.571976,2.87135 -0.134976,4.54254 0.778404,2.97662 1.416147,3.04683 31.313501,3.44715 16.78541,0.22476 32.26429,0.55429 34.39753,0.73228 3.70456,0.30909 3.87862,0.0388 3.87862,-6.02321 z m -52.799552,-1.70218 c -0.76542,-2.01011 -0.6034,-2.17211 0.78953,-0.78954 0.9639,0.95673 1.39725,2.09479 0.96301,2.52904 -0.43425,0.43425 -1.22289,-0.34853 -1.75254,-1.7395 z m -52.087634,-0.94276 c 5.417399,-1.84256 12.034066,-4.48732 14.703712,-5.87723 2.669631,-1.3899 10.496525,-4.22064 17.39306,-6.29052 l 12.539175,-3.76343 -9.01316,-4.98432 C 48.424589,190.25492 44.932155,188.68627 39.413193,189.6187 l -5.338049,0.90186 0.33342,12.97303 c 0.183381,7.13517 0.365549,16.62247 0.4048,21.08288 0.03921,4.46041 0.277568,8.10983 0.529551,8.10983 0.251998,0 4.890584,-1.50755 10.307969,-3.35014 z m 89.572996,-4.03827 c 4.87462,-2.10028 5.22425,-2.70586 6.85295,-11.86906 0.94393,-5.31072 1.41625,-11.24256 1.0496,-13.18187 -0.47132,-2.49284 -0.72681,-1.87292 -0.87196,2.11561 -0.12327,3.3852 -1.90375,8.60319 -4.45182,13.04626 -3.90099,6.80213 -7.01027,9.46076 -7.01027,5.99422 0,-0.77572 -2.38006,-1.36029 -5.28902,-1.29905 -2.90897,0.0612 -4.49567,0.43147 -3.52602,0.82273 0.96966,0.39126 1.76301,1.33063 1.76301,2.0875 0,0.75687 -0.59083,1.01097 -1.31295,0.56467 -0.72212,-0.44631 -1.659,-0.25153 -2.08194,0.43281 -0.42295,0.68435 -2.52954,0.88358 -4.68128,0.44276 l -3.91228,-0.80152 4.23122,-0.95808 c 3.15983,-0.71548 1.99916,-1.00039 -4.58382,-1.12495 -2.61404,-0.0495 -9.08285,-3.69458 -11.908272,-7.74009 -2.00697,-2.87363 -2.23832,-7.54467 -3.51349,-9.17266 -0.94018,-1.20031 -1.8738,-0.22575 -1.8738,-9.3e-4 0,0.38927 0.0706,4.41274 1.5053,8.65245 1.73012,5.11281 4.926522,10.54008 5.584652,10.28753 1.2077,-0.46345 5.39682,-0.14939 4.93957,0.59045 -2.50931,4.06014 20.23035,4.92877 29.09062,1.11122 z m -18.68133,-10.57633 c 1.63008,0.42628 3.34594,0.15669 3.81304,-0.5991 0.46711,-0.75579 1.68975,-1.05162 2.717,-0.65743 2.83428,1.08761 12.42461,-1.86013 14.41922,-4.43197 0.96965,-1.25026 1.67658,-4.21462 1.57094,-6.58746 -0.17138,-3.84945 -0.2618,-3.93437 -0.83931,-0.78824 -0.6559,3.57323 -5.01735,8.68979 -7.03502,8.25301 -0.60568,-0.13117 -2.05327,0.13625 -3.21685,0.59426 -1.16359,0.45796 -4.49567,1.06596 -7.40463,1.3511 -3.87466,0.37982 -5.28903,-0.0178 -5.28903,-1.48664 0,-1.61476 -0.40835,-1.66618 -2.09765,-0.2642 -1.1537,0.9575 -3.05775,1.37247 -4.23122,0.92217 -1.17347,-0.4503 -2.13357,-0.20396 -2.13357,0.54741 0,0.75138 0.95202,1.36614 2.11561,1.36614 1.16359,0 2.12533,1.1107 2.13721,2.46822 0.0172,1.97255 0.2715,2.07356 1.26603,0.50295 0.72883,-1.15098 2.47245,-1.64413 4.20823,-1.19022 z m -17.212112,-9.86394 c -0.35761,-1.37228 -0.67371,-0.591 -0.70245,1.73617 -0.0288,2.32717 4.380182,5.41862 4.766522,4.46373 0.38634,-0.95488 3.8998,-0.71128 -4.064012,-6.1999 z m 20.178692,4.64022 c 0,-0.34208 -0.63468,-1.01422 -1.4104,-1.49365 -0.77573,-0.47942 -1.41041,-0.19954 -1.41041,0.62196 0,0.82151 0.63468,1.49365 1.41041,1.49365 0.77572,0 1.4104,-0.27988 1.4104,-0.62196 z M 88.767569,198.33706 c -1.51204,-1.66459 -3.00566,-3.87102 -3.319151,-4.90317 -0.313505,-1.03215 -9.121168,-6.12898 -19.572604,-11.32628 l -19.002615,-9.44965 -0.428327,-5.84134 c -0.23558,-3.21274 -1.31581,-6.5779 -2.400525,-7.47812 -2.615458,-2.17064 -7.385946,-0.5389 -8.47729,2.89963 -0.940191,2.96229 0.468312,9.12022 1.784912,7.80362 1.118706,-1.1187 4.584808,1.9744 4.584808,4.09144 0,1.03059 -1.454792,1.58927 -3.541926,1.36015 -4.277593,-0.46955 -7.121423,3.5791 -4.50189,6.40918 1.171343,1.26549 1.191639,1.55025 0.06558,0.91932 -1.096816,-0.6145 -1.375781,0.0637 -0.851265,2.0695 0.677066,2.58907 0.948668,2.68257 2.054159,0.70715 0.700661,-1.25203 1.914541,-2.27641 2.6975,-2.27641 0.782959,0 1.115364,0.49868 0.738672,1.10817 -0.376691,0.60951 1.417797,1.10819 3.987741,1.10819 3.57208,0 4.504104,-0.51016 3.957135,-2.16599 -0.393532,-1.19129 0.853436,-0.43187 2.771025,1.68759 1.917588,2.11948 3.898391,3.44173 4.401765,2.93836 0.503374,-0.50338 0.915213,-0.13738 0.915213,0.81348 0,0.95079 0.568182,1.37756 1.262624,0.94837 0.694441,-0.42919 1.680612,0.30892 2.191475,1.64024 0.796146,2.07471 1.116478,2.12394 2.241813,0.3445 1.066845,-1.68696 1.321028,-1.54737 1.356119,0.74473 0.03583,2.3398 0.276341,2.46005 1.410407,0.70521 1.173571,-1.81596 1.37028,-1.77229 1.388813,0.30834 0.0141,1.57123 0.765836,2.13834 2.137202,1.61211 1.339675,-0.51408 2.11561,0.0195 2.11561,1.45466 0,2.64195 2.777414,3.12247 2.910218,0.5035 0.04922,-0.96965 0.716444,-0.19157 1.482831,1.72906 1.023207,2.56423 1.696775,3.00125 2.535135,1.64475 0.895763,-1.44936 1.33375,-1.34684 2.033227,0.47595 0.490328,1.27779 1.491674,1.95234 2.225198,1.499 0.733524,-0.45335 1.988081,0.29978 2.787894,1.67361 0.799799,1.37384 1.473494,1.98587 1.49709,1.3601 0.02355,-0.62578 1.470913,-0.13103 3.216291,1.0995 3.041414,2.14422 3.192567,2.08277 3.633883,-1.47732 0.277075,-2.23527 -0.634401,-4.91992 -2.288694,-6.74113 z m 63.886111,7.55152 c -0.71879,1.27779 0.11904,0.99851 2.11561,-0.7052 1.81812,-1.55145 2.8418,-2.02746 2.27481,-1.0578 -1.6169,2.7652 1.18661,2.0693 5.57733,-1.38445 2.20073,-1.73109 3.51823,-2.36577 2.92778,-1.4104 -1.90907,3.08894 1.67729,1.83949 4.12291,-1.43637 1.97896,-2.65079 2.21441,-2.72189 1.42969,-0.43169 -0.93041,2.71539 -0.9094,2.71539 2.1845,0 1.89012,-1.65886 2.64274,-1.90615 1.90558,-0.62612 -1.05053,1.82412 -0.8896,1.84892 1.16795,0.17991 1.3125,-1.06464 2.40654,-1.38198 2.43121,-0.7052 0.0247,0.67677 0.9767,-0.001 2.11561,-1.50729 1.49309,-1.97404 2.08326,-2.17077 2.1156,-0.7052 0.0323,1.46557 0.62253,1.26884 2.11561,-0.7052 1.35356,-1.78956 2.07076,-2.07078 2.07076,-0.81196 0,1.25339 1.31059,0.73192 3.75345,-1.49344 2.06439,-1.88059 3.21193,-2.46724 2.55007,-1.30365 -1.03738,1.8238 -0.87421,1.84861 1.18298,0.17991 1.31249,-1.06464 2.39606,-1.38199 2.40794,-0.7052 0.0113,0.67677 0.55054,0.39639 1.19701,-0.62308 0.94114,-1.48411 2.13159,-1.30589 5.97264,0.89417 2.63847,1.51127 4.62281,3.50324 4.40966,4.42662 -0.21314,0.92338 0.27322,1.27051 1.08082,0.77138 0.80759,-0.49912 1.10321,-1.49832 0.6569,-2.22045 -0.4463,-0.72211 -0.12299,-1.31294 0.71842,-1.31294 0.95329,0 0.70523,-1.59468 -0.65818,-4.23122 -2.23045,-4.31322 -4.91902,-5.65166 -4.95802,-2.46821 -0.0145,1.18275 -0.45734,1.07387 -1.3455,-0.3308 -0.92551,-1.46375 -0.54011,-2.9492 1.28075,-4.93642 1.92449,-2.10032 2.28769,-3.6713 1.39094,-6.01603 -1.59976,-4.18285 -2.41938,-4.02638 -7.55128,1.44163 -3.55736,3.79035 -8.45158,5.9953 -27.38849,12.33907 -24.14079,8.08704 -26.6419,9.73908 -24.95001,16.48011 0.87819,3.49894 0.93731,3.51303 3.88839,0.92644 1.96379,-1.72124 2.58646,-1.89735 1.80656,-0.51092 z m -20.34414,-5.11819 c 1.88059,-2.03928 5.48198,-4.58653 8.00308,-5.66056 3.29309,-1.4029 4.58382,-2.87411 4.58382,-5.22477 0,-4.51057 -0.94797,-5.08209 -5.54889,-3.34545 -5.52163,2.08419 -12.22699,-0.79672 -13.4807,-5.7919 -0.51686,-2.05931 -1.61053,-4.15878 -2.4304,-4.66548 -2.28594,-1.41279 3.89367,-6.05265 9.14215,-6.86421 2.50834,-0.38786 6.842,-0.48929 9.63037,-0.22537 l 5.06976,0.47983 -0.63677,6.62694 c -0.46454,4.83465 -0.0508,7.11321 1.52979,8.42499 1.88124,1.56129 2.29913,0.914 3.17328,-4.91535 1.0718,-7.14725 -1.41857,-27.38836 -3.96421,-32.22022 -6.1943,-11.75736 -23.28661,-15.89878 -39.85603,-9.657 -6.32533,2.38278 -8.438562,4.71839 -5.92389,6.54729 1.11551,0.81131 0.85822,0.96142 -0.75815,0.44235 -1.543462,-0.49568 -2.987342,0.22449 -3.911242,1.95081 -1.2264,2.29156 -1.05789,2.61995 1.0363,2.01947 1.37545,-0.3944 1.07279,0.0343 -0.67258,0.95247 -1.74538,0.91826 -3.17342,2.45058 -3.17342,3.40514 0,0.95458 -1.33321,2.08423 -2.962711,2.51036 -1.631403,0.42662 -2.544656,1.45121 -2.032368,2.2801 0.511682,0.82794 0.297652,1.50534 -0.475645,1.50534 -0.773298,0 -1.422987,1.1107 -1.443749,2.46822 -0.02073,1.35751 -0.346917,5.21789 -0.724779,8.57864 -0.628125,5.58646 -0.481217,5.95136 1.713108,4.25552 2.223562,-1.71844 2.23713,-1.64916 0.184537,0.9416 -1.218577,1.53808 -2.313306,4.70056 -2.432739,7.02773 -0.180687,3.52111 0.02637,3.81512 1.234134,1.75184 0.798191,-1.36367 1.103219,-3.04253 0.677827,-3.73084 -0.425393,-0.68829 0.26005,-1.64803 1.52321,-2.13274 1.931453,-0.74117 2.170686,-0.10508 1.504523,3.99994 -0.651904,4.0172 -0.40466,4.73256 1.396796,4.04128 1.912466,-0.73388 1.895516,-0.39221 -0.134271,2.70556 -2.773761,4.2333 -1.671627,9.20257 1.463877,6.60032 1.5979,-1.32613 1.80629,-1.18492 1.07267,0.72689 -0.50079,1.30503 -0.35665,2.21198 0.32032,2.01545 0.67695,-0.19652 2.81752,0.4548 4.75683,1.44739 l 3.526022,1.80471 -3.526022,-2.83931 c -2.904,-2.33846 -3.20027,-3.16377 -1.67944,-4.67849 1.51998,-1.51387 1.66467,-1.36171 0.81812,0.86042 -0.68,1.78495 -0.51064,2.37956 0.49989,1.75502 0.871012,-0.53831 2.335382,0.87869 3.404792,3.29464 1.87543,4.23692 1.88302,4.23922 13.97997,4.23922 11.26126,0 12.34143,-0.25802 15.52277,-3.70779 z m -20.4046,-9.33847 c 0.99994,-6.72269 4.86706,-11.74156 8.09321,-10.50357 2.29313,0.87996 4.68082,12.42762 3.09888,14.98725 -0.51345,0.8308 -3.44233,1.51055 -6.50861,1.51055 l -5.57507,0 z m -14.094482,-6.82349 c -3.22957,-2.5404 -7.641777,-13.31782 -6.088214,-14.87138 0.333645,-0.33365 3.844694,-0.99013 7.802344,-1.45886 7.542812,-0.89333 15.809822,1.36471 15.685582,4.28435 -0.18368,4.31619 -5.26049,11.44318 -9.32388,13.08918 -3.95297,1.60126 -4.86335,1.48365 -8.075832,-1.04329 z m 45.957662,-18.4933 c -0.93087,-0.93087 -1.62753,-3.62828 -1.54812,-5.99423 l 0.14437,-4.30174 1.04096,4.35433 c 0.57254,2.39489 1.49705,5.09229 2.05449,5.99423 1.31369,2.12561 0.45996,2.09906 -1.6917,-0.0526 z m -50.639182,-4.4623 c 1.70967,-2.60941 3.32683,-4.17578 3.59369,-3.48083 0.63059,1.64218 -3.68266,8.22521 -5.389205,8.22521 -0.722128,0 0.08589,-2.13498 1.795515,-4.74438 z m 77.491622,24.26338 c 9.5113,-3.22756 17.53642,-6.06232 17.83357,-6.29945 0.29718,-0.23713 -1.4169,-2.66029 -3.80904,-5.38479 -2.40099,-2.73458 -4.75225,-7.33645 -5.24874,-10.27282 -2.1787,-12.88529 -13.29335,-48.94685 -19.67972,-63.85104 -1.82817,-4.266475 -3.76116,-10.1443 -4.29554,-13.061825 -0.53436,-2.917538 -1.44218,-5.595448 -2.01736,-5.950927 -0.57518,-0.355479 -10.24371,-0.103806 -21.48562,0.559325 -22.83191,1.346755 -28.01548,2.936409 -40.852241,12.528329 -12.161793,9.087558 -35.206944,32.639338 -42.369424,43.300868 -8.131599,12.10412 -9.60175,16.92669 -5.487961,18.00247 2.925619,0.76506 4.916309,4.24887 6.39811,11.19697 0.678589,3.18189 3.373213,5.10557 16.299093,11.63585 8.517345,4.30305 15.742603,7.82372 16.056122,7.82372 0.313519,0 0.501075,-4.60145 0.416803,-10.22544 -0.448749,-29.94634 21.328888,-49.13427 49.205468,-43.35416 6.7584,1.40134 9.48944,2.86128 14.14188,7.55988 5.15942,5.21062 5.95854,6.96856 7.59708,16.71257 1.76805,10.51401 1.42303,27.39282 -0.66392,32.48057 -0.55684,1.35752 -0.6343,2.46821 -0.17212,2.46821 0.46216,0 8.62228,-2.64073 18.13356,-5.86831 z m 70.93402,-45.53955 c 2.69011,-1.12401 4.89112,-2.76765 4.89112,-3.65254 0,-0.88489 1.42803,-2.77417 3.17341,-4.19841 3.10456,-2.53332 3.1122,-2.60965 0.3526,-3.51785 -5.91922,-1.94806 -12.79697,-6.27171 -15.3588,-9.65521 -4.15177,-5.48335 -4.5091,-15.81371 -0.83644,-24.180957 3.73629,-8.512183 5.25553,-22.907961 2.88501,-27.337314 -1.84943,-3.455692 -7.46473,-6.135563 -10.45325,-4.988762 -1.05968,0.406634 -2.70759,3.345724 -3.66201,6.53131 -4.19168,13.990596 -15.01987,23.054064 -26.31867,22.029404 -4.4658,-0.404984 -5.68384,0.206103 -9.32163,4.676644 -5.76962,7.090345 -3.99097,10.281005 6.99777,12.553105 10.42117,2.15474 19.43972,6.40397 22.88338,10.78187 1.4948,1.90036 3.15388,6.42527 3.68681,10.05536 1.74597,11.89275 2.54091,12.94699 9.76254,12.94699 3.53487,0 8.62803,-0.91964 11.31816,-2.04364 z m -32.8921,-55.283604 c 4.08119,-2.055159 10.14972,-11.288469 11.78627,-17.932879 0.92325,-3.748451 0.75503,-3.964229 -2.37172,-3.042162 -1.85101,0.545856 -4.30875,2.361429 -5.46166,4.034609 -1.1529,1.673193 -5.43482,6.588007 -9.51536,10.921805 -4.08056,4.333812 -7.00982,8.289015 -6.50948,8.789356 1.13003,1.130032 7.00214,-0.217724 12.07195,-2.770729 z m -3.29567,-12.155375 c 1.84191,-2.187695 2.99639,-4.330159 2.56554,-4.761024 -0.43086,-0.430851 -3.92557,-0.109448 -7.76602,0.714131 -8.27935,1.775603 -14.00023,0.469143 -20.86128,-4.764028 -5.76502,-4.397196 -8.36906,-9.204396 -9.41361,-17.377969 -0.4295,-3.360885 -1.02256,-6.352357 -1.31791,-6.647696 -0.29536,-0.295353 -3.623,0.39174 -7.39478,1.526877 -9.5747,2.881559 -14.74252,2.589633 -23.61452,-1.33399 l -7.68321,-3.39788 -6.33768,3.94468 c -11.42389,7.110409 -17.21429,16.417144 -13.97736,22.465403 2.19094,4.093789 9.99397,3.880113 20.95521,-0.573838 15.2132,-6.181669 21.58975,-3.991492 24.63776,8.462438 l 1.72595,7.052032 16.92487,4.353346 16.92488,4.353346 5.64162,-5.019086 c 3.1029,-2.760504 7.14863,-6.809033 8.99054,-8.996742 z m 0.88231,-8.588105 c 4.40904,-1.322341 5.72145,-2.454192 6.00699,-5.180634 0.73235,-6.992781 -1.30436,-7.792763 -11.26992,-4.42656 -10.74807,3.630512 -16.62067,3.843808 -22.47521,0.8163 -4.30875,-2.228131 -4.31772,-2.22493 -2.20741,0.787966 1.1654,1.663857 4.21912,4.574653 6.78601,6.468448 5.25664,3.878237 13.5194,4.4257 23.15954,1.53448 z m 14.80926,-4.965914 c 0,-6.38615 -8.69866,-21.44204 -14.30001,-24.750825 -4.26404,-2.518831 -13.59983,-2.881855 -21.02989,-0.817754 -4.33829,1.205192 -5.356,2.363629 -7.62855,8.683378 l -2.62239,7.292647 3.20098,2.592002 c 4.15402,3.363721 10.89658,3.285866 19.81336,-0.22881 11.85496,-4.672789 16.92488,-3.010597 16.92488,5.548905 0,1.973257 0.91035,2.913533 2.82081,2.913533 1.55145,0 2.82081,-0.554882 2.82081,-1.233076 z M 176.71307,36.957384 c -1.54179,-1.541786 -5.26356,1.241764 -4.46003,3.335709 0.46834,1.220495 0.87637,3.277855 0.90673,4.571931 0.0303,1.294076 0.99214,0.1941 2.13726,-2.444389 1.14514,-2.638475 1.78235,-5.096941 1.41604,-5.463251 z m -14.97073,1.690851 7.48504,-2.222814 -0.87127,-6.356589 c -1.22406,-8.930551 -2.0637,-9.686515 -6.3369,-5.705432 -5.26384,4.903997 -9.13723,6.634805 -14.84808,6.634805 -5.12643,0 -12.14753,2.489241 -12.14753,4.306761 0,1.659992 10.18659,5.414155 14.90588,5.493405 2.3803,0.03991 7.69609,-0.927582 11.81286,-2.150136 z M 147.53249,28.092698 c 6.0787,-0.989344 8.92645,-2.35717 12.641,-6.071715 5.49962,-5.499625 5.19575,-6.865166 -2.96912,-13.3426552 -10.62095,-8.42597881 -25.87011,-6.680065 -33.34525,3.8177872 -3.96256,5.564927 -3.71044,8.435739 1.34448,15.309382 l 4.28407,5.825429 5.09925,-2.130616 c 2.8046,-1.171822 8.6301,-2.705258 12.94557,-3.407612 z m 30.77716,4.615569 c 2.04348,-1.299267 8.86602,-15.662337 8.8852,-18.705458 0.0423,-6.7146062 -7.69096,-7.2371052 -13.80161,-0.932518 l -4.4959,4.638601 1.68957,8.055056 c 1.67668,7.99359 3.49741,9.630818 7.72274,6.944319 z"
     id="path4427"
     inkscape:connector-curvature="0"
     sodipodi:nodetypes="csssssssssssscssssssssscsssscsssscsssscssssssscccsssssscssssssssssssssscssscsscssccsssscssssssssscsscscccssssssssscsscsscsssssssscsscscssssscssssssssssssssssssssssscsssssssssssscssccsssssssssccsssscssssccccsscssssssscscsscsssssssscsssscsscscssssscssscscsscssssssscsssssssscscssssssssssssssssssssssscssscsssssssssssssssscssssscssscsssssssscccssssssscsscccssscssccsscsssscsscssssssscsssssscscsssssssssssssssccsssssscssccsccsssssccscssssssscssssscsssscssscsscssssscssccsssssssssscccssssscsscsssscsssssssscssssssscssssssssscsscscsssscssssssssscssssssccsssscssssssscscssccssssscssssssssssssssssssssssssssssssssssssssssssscsssssscsssscccssssssssssssscssssssscssscssssssssssscssssscss" />
  <path
     style="fill:#d8dc00;fill-opacity:0.80395681;stroke:none"
     d="m 54.845513,294.77232 3.579424,0.35795 1.789712,5.36913 3.579424,4.65325 0,1.43176 -2.147654,0.35795 -4.653252,-2.5056 -3.937366,-8.23267 z"
     id="path5235"
     inkscape:connector-curvature="0" />
  <path
     style="fill:#d8dc00;fill-opacity:0.80395681;stroke:none"
     d="m 55.561399,290.47701 4.295308,2.14765 2.863539,-4.2953 -2.505597,-2.14766 z"
     id="path5237"
     inkscape:connector-curvature="0" />
  <path
     style="fill:#d8dc00;fill-opacity:0.80395681;stroke:none"
     d="m 160.08058,291.90878 6.08502,1.78971 2.86354,3.22148 3.57942,0.71588 -2.14766,-7.51679 -4.2953,-3.22148 -6.8009,0.35795 -1.78972,3.57943 z"
     id="path5239"
     inkscape:connector-curvature="0" />
  <path
     style="fill:#d8dc00;fill-opacity:0.80395681;stroke:none"
     d="m 158.64881,308.37414 5.36913,-0.35795 4.65326,-3.93736 2.5056,-2.86355 1.07383,2.86355 -3.22149,6.44296 -3.93737,2.86353 -6.44296,-0.71588 -1.78971,-1.43177 z"
     id="path5241"
     inkscape:connector-curvature="0" />
  <path
     style="fill:#d8dc00;fill-opacity:0.80395681;stroke:none"
     d="m 80.617366,241.08096 0,5.72708 5.011194,2.86353 31.49893,0.7159 30.78305,-1.78972 1.78971,-2.86354 -2.14766,-5.0112 -10.38032,-0.71588 -54.049308,-0.35795 z"
     id="path5243"
     inkscape:connector-curvature="0" />
  <path
     style="fill:#dcde5c;fill-opacity:0.43722941;stroke:none"
     d="m 153.63762,237.50153 1.78971,-13.6018 7.87473,5.01118 19.32889,10.73827 15.39152,7.51681 11.8121,2.14765 4.65325,2.14765 0.71588,3.57942 -4.2953,8.94856 -2.14766,6.80091 -2.86353,2.86353 -6.08502,-3.57941 -3.57942,-6.80091 -6.44297,-6.08503 -11.45416,-5.36913 -24.69802,-11.09622 z"
     id="path5245"
     inkscape:connector-curvature="0" />
  <path
     style="fill:#dcde5c;fill-opacity:0.43722941;stroke:none"
     d="m 146.83671,209.22408 -1.43177,-9.66444 4.65325,-3.93736 15.39153,-5.72708 27.56156,-8.94857 5.36914,-3.57942 5.01119,-5.36914 3.22148,0 1.43177,5.36914 -1.78971,5.0112 5.36914,5.72708 1.78971,6.44296 -3.57943,3.22148 -8.23267,-4.65325 -4.29531,1.07382 z"
     id="path5247"
     inkscape:connector-curvature="0" />
  <path
     style="fill:#dcde5c;fill-opacity:0.43722941;stroke:none"
     d="m 89.207984,217.09882 -25.771852,7.51679 -11.454158,5.0112 -14.317696,5.36913 -13.601811,0.35794 -1.789712,4.2953 5.011193,7.15886 3.937367,2.86353 1.073827,3.93738 4.653252,4.29531 5.011193,-4.65326 3.937366,-6.08501 25.41391,-9.66446 6.800906,-2.50559 -1.789711,-7.87473 2.147654,-3.22148 4.65325,-1.07383 5.369137,-0.35795 3.937369,-1.78971 1.43177,-2.86354 z"
     id="path5249"
     inkscape:connector-curvature="0" />
  <path
     style="fill:#dcde5c;fill-opacity:0.43722941;stroke:none"
     d="m 89.565926,208.5082 -23.98214,-9.66444 -21.118602,-11.09622 -10.38033,0 -3.579423,-3.22148 1.789711,-10.38034 2.505596,-6.44296 -0.715884,-7.87473 7.158849,-2.86354 4.65325,2.86354 2.86354,11.45416 33.288642,17.53918 6.442964,6.80091 3.937369,6.44296 -1.07383,6.80091 z"
     id="path5251"
     inkscape:connector-curvature="0" />
  <path
     style="fill:#dcde5c;fill-opacity:0.43722941;stroke:none"
     d="m 85.270618,185.24194 0.715884,-25.77185 2.147655,-1.07382 4.653251,-10.02239 7.874732,-7.51679 12.17004,-6.08503 16.8233,0 14.3177,6.08503 5.01119,9.30649 3.22148,20.40273 -0.71588,13.95975 -5.01121,9.3065 -5.5968,5.43426 -2.22443,10.95007 -8.15961,7.15738 -20.2799,-0.25682 -8.82803,-4.88987 -3.887912,-6.34781 -4.71467,-6.32013 -5.369136,-6.80091 z"
     id="path5253"
     inkscape:connector-curvature="0"
     sodipodi:nodetypes="ccccccccccccccccccccc" />
  <path
     style="fill:#dcde5c;fill-opacity:0.43722941;stroke:none"
     d="m 92.839828,207.14575 0.71419,-3.81686 2.36409,0.91326 5.227512,9.54304 12.93936,6.53511 11.99107,-0.71588 5.10068,-1.07383 8.50114,-7.51679 2.50559,-12.52799 2.5056,1.07383 -2.14766,19.68683 -4.65325,7.15886 -9.66444,2.86353 -12.96542,-0.46673 -10.44566,-1.68532 -7.819402,-3.66451 z"
     id="path5255"
     inkscape:connector-curvature="0"
     sodipodi:nodetypes="ccccccccccccccccc" />
  <path
     style="fill:#a9782b;fill-opacity:0.89177491;stroke:none"
     d="m 80.174791,227.00489 0.27547,7.98863 2.7547,1.65281 66.663739,2.3415 1.51508,-0.96414 -0.55094,-13.08483 -4.95846,-0.8264 -6.47354,2.20376 -8.12637,3.44336 -9.0905,2.20376 -13.91124,-2.34148 -12.947092,-3.03018 -8.126362,-1.65282 z"
     id="path5279"
     inkscape:connector-curvature="0" />
</svg>
