<?xml version="1.0" encoding="UTF-8" standalone="no"?>
<!-- Created with Inkscape (http://www.inkscape.org/) -->

<svg
   xmlns:dc="http://purl.org/dc/elements/1.1/"
   xmlns:cc="http://creativecommons.org/ns#"
   xmlns:rdf="http://www.w3.org/1999/02/22-rdf-syntax-ns#"
   xmlns:svg="http://www.w3.org/2000/svg"
   xmlns="http://www.w3.org/2000/svg"
   xmlns:sodipodi="http://sodipodi.sourceforge.net/DTD/sodipodi-0.dtd"
   xmlns:inkscape="http://www.inkscape.org/namespaces/inkscape"
   id="svg4584"
   version="1.1"
   inkscape:version="0.48.4 r9939"
   width="490.02051"
   height="442.77026"
   sodipodi:docname="RidingEquipment.svg">
  <metadata
     id="metadata4590">
    <rdf:RDF>
      <cc:Work
         rdf:about="">
        <dc:format>image/svg+xml</dc:format>
        <dc:type
           rdf:resource="http://purl.org/dc/dcmitype/StillImage" />
        <dc:title />
      </cc:Work>
    </rdf:RDF>
  </metadata>
  <defs
     id="defs4588" />
  <sodipodi:namedview
     pagecolor="#ffffff"
     bordercolor="#666666"
     borderopacity="1"
     objecttolerance="10"
     gridtolerance="10"
     guidetolerance="10"
     inkscape:pageopacity="0"
     inkscape:pageshadow="2"
     inkscape:window-width="1257"
     inkscape:window-height="756"
     id="namedview4586"
     showgrid="false"
     inkscape:zoom="0.95086725"
     inkscape:cx="168.74615"
     inkscape:cy="217.97632"
     inkscape:window-x="2"
     inkscape:window-y="22"
     inkscape:window-maximized="0"
     inkscape:current-layer="svg4584"
     fit-margin-top="0"
     fit-margin-left="0"
     fit-margin-right="0"
     fit-margin-bottom="0" />
  <path
     style="fill:#ffbf00;fill-opacity:1;stroke:none"
     d="m 18.140314,55.934617 15.393528,-6.597227 19.79168,0 L 48.194346,31.011762 32.067793,0.95773054 3.4798113,6.0889065 13.009139,24.414535 z"
     id="path4596"
     inkscape:connector-curvature="0" />
  <path
     style="fill:#ffbf00;fill-opacity:1;stroke:#000000;stroke-width:1.39401913px;stroke-linecap:butt;stroke-linejoin:miter;stroke-opacity:1"
     d="m 15.941239,60.332767 11.728402,-8.063276 18.325629,-3.665126 12.461427,4.398151 11.728402,13.194453 4.398152,13.194452 0,35.918229 -4.398152,5.8642 -35.918231,-3.66512 -10.262353,-8.7963 -8.063276,-16.85958 -3.665126,-21.990756 z"
     id="path5106"
     inkscape:connector-curvature="0" />
  <path
     style="fill:#ffbf00;fill-opacity:1;stroke:none"
     d="m 70.918125,64.730918 4.398151,21.990752 0,24.18983 11.728402,-5.8642 21.990762,-3.66512 26.3889,2.19907 80.63277,12.46143 23.4568,2.19907 38.85034,0 41.0494,-5.13117 11.7284,-1.46605 13.92748,-11.7284 6.59722,-15.393532 7.33026,-19.058654 12.46143,-24.18983 10.26235,-14.660504 10.26235,-9.529327 -17.59261,-2.199075 -11.7284,3.665126 -8.06327,17.592603 -11.72841,24.922855 -16.12655,17.592605 -18.32563,10.995373 -12.46142,5.8642 -27.85496,5.86421 -47.64664,2.19907 L 187.46912,99.1831 138.35644,83.789572 103.17124,69.12907 87.044678,63.997893 z"
     id="path5108"
     inkscape:connector-curvature="0" />
  <path
     style="fill:#ffbf00;fill-opacity:1;stroke:none"
     d="m 318.5795,114.3957 15.54982,11.4032 8.81155,1.55497 15.03149,-3.62828 13.4765,-6.73826 20.21475,-19.69642 17.1048,-26.434683 7.77491,-18.659775 5.18327,-27.471332 -23.32472,-7.256579 -11.4032,4.146616 -13.99482,16.068139 -12.43986,24.879698 -8.29322,22.288066 -9.3299,15.03148 -11.92152,10.36654 z"
     id="path5112"
     inkscape:connector-curvature="0" />
  <path
     style="fill:#ffbf00;fill-opacity:1;stroke:none"
     d="m 39.201222,121.13395 0,15.03149 -2.073308,8.81155 2.591635,3.6283 16.586465,1.55497 19.178101,8.29324 31.617955,20.73308 26.43468,17.62313 17.1048,5.18327 44.57611,6.73824 45.09446,1.03666 27.47134,-3.10997 30.58129,-12.95818 27.98967,-17.10478 15.03147,-16.58647 11.4032,-19.1781 6.73826,-16.58647 -12.43985,2.59164 -5.70161,0 -10.88487,-2.07331 -12.95817,-11.92152 -33.69126,4.14661 -26.95301,2.07331 -49.24106,-4.66494 -92.78054,-13.4765 -13.99484,1.03665 -17.623119,4.66494 -8.81156,6.73826 -3.628289,7.7749 z"
     id="path5114"
     inkscape:connector-curvature="0" />
  <path
     style="fill:#ffbf00;fill-opacity:1;stroke:none"
     d="m 341.38589,160.5268 9.32989,-15.03148 8.29323,-20.73308 13.47651,-8.29323 20.21476,-20.73309 15.54981,-24.361366 16.06813,1.036654 31.09962,8.293232 7.77491,8.29323 0,35.76457 -4.66495,21.25141 -4.14661,5.18327 -13.99483,3.62829 -33.69126,5.70159 -41.98448,3.10997 z"
     id="path5116"
     inkscape:connector-curvature="0" />
  <path
     style="fill:#ffbf00;fill-opacity:1;stroke:none"
     d="m 356.06491,163.68932 5.13117,33.71914 2.19908,21.25774 23.4568,-4.39815 57.909,-10.99538 19.05865,-8.06327 20.5247,-19.05865 2.9321,-9.52934 0.73303,-60.84108 -7.33026,-17.59261 -19.05865,-2.9321 2.9321,27.12193 -5.8642,31.52008 -5.8642,8.06329 -26.38891,6.59722 z"
     id="path5118"
     inkscape:connector-curvature="0" />
  <path
     style="fill:#ffbf00;fill-opacity:1;stroke:none"
     d="m 329.676,176.15075 6.59722,49.11267 -82.83183,8.7963 0,-9.52932 12.46143,-18.32563 21.99075,-5.8642 24.18982,-13.92747 z"
     id="path5120"
     inkscape:connector-curvature="0" />
  <path
     style="fill:#ffbf00;fill-opacity:1;stroke:none"
     d="m 125.16199,192.27729 22.72377,10.26235 43.98152,5.86421 30.05402,1.46604 43.24848,-2.93209 -12.46141,19.79167 -8.7963,51.31177 -9.52934,50.57872 -7.33025,21.99077 -10.26235,5.86419 -69.63738,-6.59722 -17.59261,4.39815 5.13118,-26.3889 5.13117,-47.64665 -2.19908,-54.24385 -5.13117,-24.92286 z"
     id="path5122"
     inkscape:connector-curvature="0" />
  <path
     style="fill:#ffbf00;fill-opacity:1;stroke:none"
     d="m 67.986024,157.82511 2.199075,23.45681 5.131177,15.39353 5.864201,4.39814 16.859579,-4.39814 12.461434,-10.26235 -8.79631,-10.26235 -24.922854,-17.59261 z"
     id="path5124"
     inkscape:connector-curvature="0" />
  <path
     style="fill:#89511f;fill-opacity:1;stroke:none"
     d="m 80.447452,201.80662 23.456808,-6.59722 10.99538,120.21612 2.19907,8.06327 -27.854957,0 -3.665126,-32.2531 -1.466049,-59.37504 z"
     id="path5126"
     inkscape:connector-curvature="0" />
  <path
     style="fill:#89511f;fill-opacity:1;stroke:#000000;stroke-width:1.39401913px;stroke-linecap:butt;stroke-linejoin:miter;stroke-opacity:1"
     d="m 341.4044,162.22327 16.12656,0 4.39814,60.84107 6.59724,61.57412 2.9321,18.32563 -22.72379,2.19907 -2.19907,-23.45679 -8.06328,-29.32101 -6.59722,-58.64202 0,-21.25772 z"
     id="path5128"
     inkscape:connector-curvature="0" />
  <path
     style="fill:#89511f;fill-opacity:1;stroke:#000000;stroke-width:1.39401913px;stroke-linecap:butt;stroke-linejoin:miter;stroke-opacity:1"
     d="m 374.39053,307.36224 4.39816,-6.59722 -8.06329,-70.37042 -8.06327,3.66512 6.59723,49.11269 -0.73302,15.39353 z"
     id="path5130"
     inkscape:connector-curvature="0" />
  <path
     style="fill:#89511f;fill-opacity:1;stroke:#000000;stroke-width:1.39401913px;stroke-linecap:butt;stroke-linejoin:miter;stroke-opacity:1"
     d="m 351.66675,313.95947 18.32564,-3.66513 1.46605,15.39353 -1.46605,17.5926 -5.13118,5.13118 -7.33025,-6.59723 z"
     id="path5132"
     inkscape:connector-curvature="0" />
  <path
     style="fill:#c4c4c4;fill-opacity:1;stroke:none"
     d="m 140.55551,352.07678 0,16.12655 -5.86419,2.9321 5.86419,47.28013 c 2.60537,15.46371 0.92536,13.65713 13.92748,20.15818 l 21.25773,2.19908 -11.36188,-16.49307 -2.5656,-18.69214 -1.46605,-40.6829 32.61962,-2.9321 1.83257,-7.33025 c -39.7392,-6.65686 -37.42308,-3.2426 -54.24387,-2.56558 z"
     id="path5134"
     inkscape:connector-curvature="0"
     sodipodi:nodetypes="cccccccccccc" />
  <path
     style="fill:#c4c4c4;fill-opacity:1;stroke:none"
     d="m 195.16589,356.84144 -1.83256,5.13117 6.23071,48.01314 -36.65126,9.89585 6.59723,14.29398 7.69676,8.4298 21.62425,-6.23072 14.66049,-10.26235 3.29862,-9.16282 1.09954,-20.15818 -4.03164,-40.68289 -19.05865,-1.09955 z"
     id="path5136"
     inkscape:connector-curvature="0" />
  <path
     style="fill:#c4c4c4;fill-opacity:1;stroke:none"
     d="m 86.678165,323.48879 -8.063276,17.22609 8.429789,2.56559 20.891222,-0.73303 16.85957,-3.66511 -11.72839,-16.85959 z"
     id="path5138"
     inkscape:connector-curvature="0" />
  <path
     style="fill:#c4c4c4;fill-opacity:1;stroke:#000000;stroke-width:1.39401913px;stroke-linecap:butt;stroke-linejoin:miter;stroke-opacity:1"
     d="m 347.26861,307.36224 1.46604,4.76466 22.35727,-2.93209 0,-6.23072 z"
     id="path5140"
     inkscape:connector-curvature="0" />
  <path
     style="fill:#ff0000;fill-opacity:1;stroke:#000000;stroke-width:1.39401913px;stroke-linecap:butt;stroke-linejoin:miter;stroke-opacity:1"
     d="m 350.71578,318.09823 4.14662,19.69643 7.77491,10.36654 7.7749,-3.10996 1.55497,-33.17293 7.25658,-8.81157 5.18327,12.95818 8.81157,85.00564 -2.59163,7.25658 -12.95818,3.62829 -17.62312,-3.10996 -5.70161,-5.7016 -8.81155,-48.20442 1.03665,-29.02632 z"
     id="path5142"
     inkscape:connector-curvature="0" />
  <path
     style="fill:#ff0000;fill-opacity:1;stroke:#000000;stroke-width:1.39401913px;stroke-linecap:butt;stroke-linejoin:miter;stroke-opacity:1"
     d="m 80.667386,342.4596 11.403196,0.51833 12.439848,0.51832 18.65978,-3.10996 3.10996,30.06298 -6.21992,31.61794 -7.77491,11.92153 -25.39803,-3.10996 z"
     id="path5144"
     inkscape:connector-curvature="0" />
  <path
     style="fill:#000000"
     d="m 150.78067,438.93628 c -10.30904,-5.67254 -11.38338,-8.52279 -13.25541,-35.16642 -0.88887,-12.65072 -2.15437,-25.8242 -2.81225,-29.2744 -0.65788,-3.4502 -0.77601,-6.44012 -0.26252,-6.64426 3.78902,-1.50633 4.55571,-3.17154 4.15527,-9.02504 l -0.4336,-6.33844 -5.36317,2.29125 -5.36318,2.29125 0.90247,10.50624 c 1.22776,14.29317 -2.85206,33.18347 -8.52641,39.47879 -6.03587,6.69641 -7.70073,7.86677 -11.19055,7.86677 -4.46411,0 -4.04052,-2.25934 0.61494,-3.27996 5.86065,-1.28481 8.461,-6.36657 10.92497,-21.35014 2.18908,-13.31198 2.08816,-33.37899 -0.22458,-44.65533 -0.84594,-4.12464 -1.24723,-4.40081 -5.28516,-3.63721 -2.40334,0.45448 -5.42627,1.36529 -6.71761,2.02401 -3.25087,1.65828 -18.273415,1.50353 -22.84704,-0.23536 -2.073022,-0.78816 -4.057333,-1.14482 -4.409578,-0.79256 -0.951039,0.95104 3.725599,53.67905 5.283168,59.56649 1.76142,6.65799 4.032781,8.33419 11.693946,8.62982 3.494844,0.1348 6.354264,0.64767 6.354284,1.13958 4e-5,1.23655 -6.337604,2.71662 -8.601823,2.00884 -1.019314,-0.31863 -3.619734,-0.96772 -5.778713,-1.4424 -6.252042,-1.3746 -7.714742,-7.23008 -10.298934,-41.2287 l -2.333138,-30.69566 5.419307,-11.11525 5.419306,-11.11526 -1.682681,-17.08086 c -0.925476,-9.39446 -1.686784,-23.35393 -1.691799,-31.02104 -0.01199,-18.36198 -2.352569,-52.49646 -4.2251,-61.61836 -1.075054,-5.23706 -2.261732,-7.497 -4.271566,-8.1349 -3.881514,-1.23194 -5.006605,-5.01179 -7.490912,-25.16647 -1.193813,-9.68517 -2.745546,-18.68376 -3.448294,-19.99685 -1.557202,-2.90966 -10.531407,-5.73954 -21.306959,-6.71885 -8.985598,-0.81662 -8.93065,-0.7118 -6.657075,-12.70031 1.683011,-8.87448 0.551066,-15.1698 -2.926078,-16.27341 C 29.706032,118.62327 23.584769,112.68404 20.529163,106.82172 13.210416,92.7804 9.6765017,66.050989 14.034341,57.696937 15.632747,54.632764 15.755032,52.094787 14.638839,45.150764 12.357566,30.95859 6.4161288,14.89794 1.2745162,9.0248725 -0.53034268,6.9632505 -0.47111498,6.5445265 1.7911244,5.3726255 7.1876919,2.5770585 30.154224,-1.1651795 32.626463,0.34821954 35.952223,2.3841085 48.898984,28.97744 51.896969,39.930857 c 1.509494,5.515076 3.601279,9.839719 5.345085,11.050646 1.575764,1.094237 5.13068,4.322825 7.899814,7.174641 4.916714,5.063519 5.190569,5.156017 11.677373,3.944151 8.119172,-1.516825 20.615245,1.974177 48.533409,13.558673 30.52447,12.665972 43.91935,17.112462 65.09522,21.608642 18.41433,3.90982 22.57053,4.29761 46.69965,4.35722 25.1144,0.062 27.49729,-0.17033 46.00263,-4.48616 21.13375,-4.92883 26.23367,-7.04147 39.09222,-16.193955 14.8417,-10.564055 23.94681,-24.350179 34.44193,-52.148881 1.5885,-4.207485 4.54984,-9.311635 6.58076,-11.342552 3.26836,-3.268359 4.80184,-3.698977 13.3481,-3.748281 5.31053,-0.03064 10.45715,0.609592 11.43692,1.42273 1.04558,0.867758 4.3681,1.123888 8.04374,0.620085 4.65501,-0.63804 9.12252,0.04518 17.40581,2.661869 6.1289,1.936121 11.14347,3.650997 11.14347,3.810837 0,0.15984 -1.24026,6.876115 -2.75615,14.925058 -1.86631,9.909706 -4.29607,17.607131 -7.52597,23.842086 l -4.76983,9.207646 13.45055,0.827697 c 16.6009,1.021558 31.28255,5.334304 36.28409,10.65849 2.898,3.084931 5.36227,4.078801 11.92514,4.809581 4.54977,0.50662 9.13912,1.64051 10.19856,2.51977 6.20286,5.14791 8.98084,22.42946 8.52237,53.01663 -0.41795,27.88377 -1.32067,32.38623 -7.84035,39.10517 -9.08858,9.36636 -22.90676,18.49073 -33.79009,22.31215 -12.4992,4.38882 -45.32583,11.25852 -65.17039,13.63836 -7.85879,0.94247 -14.2887,2.2132 -14.2887,2.82387 0,0.61066 0.92323,4.65482 2.05163,8.98704 1.12841,4.33221 2.4404,13.61563 2.91557,20.6298 0.47515,7.01418 2.15685,20.28075 3.7371,29.48128 1.58024,9.20052 3.26365,20.25774 3.7409,24.57161 0.47725,4.31384 1.65526,8.7923 2.61782,9.95209 0.96254,1.15981 2.35129,5.78531 3.08611,10.27889 8.61986,52.71309 10.84089,72.06276 8.58477,74.79058 -0.76717,0.92758 -1.60719,3.56842 -1.8667,5.86855 -0.38417,3.40484 -1.69113,4.787 -7.03249,7.43712 -6.02958,2.99158 -7.30876,3.13858 -15.80314,1.81613 -5.93803,-0.92447 -10.82832,-2.64849 -13.67801,-4.82205 -4.72703,-3.60548 -5.68819,-6.99704 -11.52744,-40.67569 -2.64391,-15.24908 -1.98442,-40.7419 1.24286,-48.04255 1.94441,-4.39857 1.92973,-4.97746 -0.16505,-6.50884 -1.85977,-1.35959 -2.34959,-4.56688 -2.56257,-16.77935 -0.15107,-8.66309 -1.47738,-21.04014 -3.11176,-29.03865 -1.56665,-7.6671 -3.64375,-19.89962 -4.61577,-27.18337 l -1.7673,-13.24318 -9.75813,0.34988 c -8.85664,0.31757 -60.49915,6.37011 -69.07681,8.09587 -3.21695,0.64721 -3.78038,1.81311 -5.87948,12.16624 -1.27687,6.29775 -3.32847,19.29181 -4.55913,28.87569 -4.38755,34.16891 -11.17866,63.51284 -16.54639,71.4958 -1.65614,2.46304 -5.24342,5.53474 -7.97175,6.82602 l -4.96061,2.34777 1.25452,8.80439 c 0.68999,4.8424 1.32117,18.52765 1.40262,30.41167 0.19526,28.48631 -0.7256,31.14416 -12.92091,37.29337 -12.22162,6.16246 -22.98817,8.71545 -36.59172,8.6767 -9.79377,-0.0279 -12.42287,-0.57745 -18.3404,-3.83356 z m 18.91497,-2.52265 c -6.63078,-8.42968 -11.31021,-29.49137 -11.31021,-50.90628 l 0,-9.27454 -6.88001,-2.95971 c -3.78401,-1.62784 -8.5741,-2.9597 -10.64463,-2.9597 -3.70338,0 -3.7482,0.10762 -2.75553,6.6216 0.55498,3.64187 1.76915,16.03122 2.69815,27.53187 1.93421,23.94517 3.52733,28.31506 11.56135,31.7128 7.83594,3.31396 8.99095,3.60396 14.83447,3.72464 l 5.32875,0.11012 -2.83234,-3.60073 z m -21.67236,-11.0448 c -1.44761,-2.68806 -2.32983,-5.18959 -1.96049,-5.55893 0.36935,-0.36935 2.00678,1.82998 3.63874,4.88738 1.63195,3.05742 2.51418,5.55895 1.96049,5.55895 -0.55367,0 -2.1911,-2.19933 -3.63874,-4.8874 z m -3.26059,-17.38926 c -0.0868,-3.81249 0.27668,-7.20073 0.80785,-7.52941 1.04145,-0.64447 1.02028,12.79096 -0.0219,13.83305 -0.34548,0.34548 -0.6992,-2.49117 -0.78603,-6.30364 z m -0.31745,-15.97659 c 0,-1.10482 0.5688,-2.3603 1.26401,-2.78997 0.69522,-0.42966 0.9357,0.47428 0.53443,2.00876 -0.8512,3.25502 -1.79844,3.66648 -1.79844,0.78121 z m -1.27469,-4.96135 c -0.0421,-1.15006 0.53146,-3.03199 1.27469,-4.18205 1.64678,-2.54823 1.64678,-0.34724 0,3.48504 -0.78996,1.83835 -1.22416,2.07578 -1.27469,0.69701 z m -1.51335,-7.58483 c 0,-1.10481 0.5688,-2.36029 1.26402,-2.78996 0.69521,-0.42966 0.93569,0.47427 0.53442,2.00876 -0.8512,3.25502 -1.79844,3.66647 -1.79844,0.7812 z m 41.9346,59.16354 c 0.70399,0 1.28,-0.67172 1.28,-1.49273 0,-2.11319 12.5271,-19.41755 14.0569,-19.41755 0.6963,0 -1.868,3.88925 -5.69845,8.64278 -3.83044,4.75353 -6.96443,9.14469 -6.96443,9.75813 0,1.7258 4.77858,1.31694 7.33047,-0.62717 2.69423,-2.05255 10.81147,-12.19927 10.74773,-13.43486 -0.0243,-0.46962 -1.63649,-2.66506 -3.5828,-4.87876 -3.40694,-3.87502 -3.75575,-3.96254 -9.36558,-2.34984 -3.20475,0.92131 -7.294,3.35982 -9.08721,5.41894 -2.74824,3.15578 -3.01424,3.25117 -1.69346,0.60732 0.92811,-1.85785 1.01918,-3.13654 0.22339,-3.13654 -2.0911,0 -5.91458,4.32898 -7.94952,9.00055 -1.01647,2.33345 -1.87266,3.26474 -1.90267,2.06953 -0.03,-1.1952 0.86645,-3.39078 1.99213,-4.87906 2.79811,-3.69944 2.6324,-4.66597 -0.65267,-3.8069 -1.53343,0.401 -2.83214,1.75372 -2.88603,3.00603 -0.0758,1.76172 -0.36907,1.64607 -1.29603,-0.51109 -0.65894,-1.53342 -1.24216,-1.98376 -1.29604,-1.00074 -0.16305,2.97438 3.84007,11.45589 5.40696,11.45589 0.80584,0 1.47911,-0.47048 1.49616,-1.04552 0.017,-0.57503 1.30235,-2.61378 2.85623,-4.53056 l 2.82525,-3.48505 -2.80034,5.45113 c -2.66018,5.1783 -2.73261,7.79205 -0.21595,7.79205 0.62571,0 4.41747,-4.74443 8.42614,-10.54319 4.00867,-5.79874 7.57937,-10.25232 7.93485,-9.89682 0.35551,0.35549 -2.12685,4.31579 -5.51634,8.80067 -3.38949,4.48486 -6.9548,9.66086 -7.92292,11.50222 -1.55918,2.96555 -1.48986,3.24417 0.607,2.43953 1.30197,-0.49962 2.94322,-0.90839 3.64723,-0.90839 z m 21.45599,-7.24788 c 3.4707,-1.68619 6.31037,-3.88177 6.31037,-4.87907 0,-0.99728 -0.26235,-1.81324 -0.58299,-1.81324 -0.32065,0 -1.67818,-0.42025 -3.01673,-0.93391 -1.53913,-0.59062 -2.0991,-0.39247 -1.52338,0.53906 0.50069,0.81013 -0.14413,2.32818 -1.43293,3.37344 -1.61162,1.30709 -2.01641,1.35641 -1.29639,0.15796 2.08723,-3.47422 -0.39609,-1.63827 -3.29973,2.43953 -3.55946,4.9988 -3.28158,5.06287 4.84178,1.11623 z m 9.61379,-12.61689 c 0.46232,-1.7251 0.82402,-5.01847 0.80379,-7.3186 l -0.0368,-4.18206 -2.14431,3.9568 c -1.17936,2.17623 -2.42354,3.67755 -2.76484,3.33626 -0.34128,-0.34129 0.95486,-3.37646 2.88035,-6.74483 3.44331,-6.02359 4.56142,-11.00337 2.4706,-11.00337 -1.70902,0 -12.87632,14.92072 -12.87632,17.20415 0,2.19782 6.56782,7.76914 9.24704,7.84403 0.86896,0.0243 1.95819,-1.36728 2.42049,-3.09238 z m -36.06287,-3.69181 c 13.09967,-3.48832 17.39682,-5.3043 17.57186,-7.42584 0.41316,-5.00739 -0.43242,-22.71899 -1.13924,-23.86264 -0.44801,-0.72489 -0.95538,-4.92198 -1.12747,-9.32685 -0.38578,-9.8738 -1.2826,-11.62032 -4.95709,-9.65379 -1.49927,0.80238 -7.82189,1.47007 -14.05027,1.48376 -9.94959,0.0219 -11.62458,0.39522 -13.79771,3.07546 -1.36035,1.67781 -2.93041,2.59524 -3.48902,2.03875 -0.55861,-0.5565 -0.28294,-1.89469 0.61259,-2.97375 1.78511,-2.15091 -0.47072,-3.68153 -5.42584,-3.68153 -3.60799,0 -8.69175,-6.88925 -7.94941,-10.77259 0.33304,-1.74218 0.0652,-3.1676 -0.59518,-3.1676 -0.66039,0 -1.20761,1.41144 -1.21606,3.13654 -0.008,1.7251 -0.3894,5.398 -0.8466,8.16202 -0.82285,4.9745 -0.77428,5.0346 4.78653,5.9238 3.08979,0.49409 7.54827,2.52272 9.90773,4.50808 3.86458,3.25181 4.28994,4.39586 4.28994,11.538 0,8.4975 2.47959,30.62357 3.64278,32.50566 0.99954,1.61731 2.77887,1.42269 13.78246,-1.50748 z m 33.51118,-17.08655 c 2.55055,-3.58366 3.49412,-6.46514 3.17999,-9.71107 l -0.44667,-4.61543 -7.3186,9.33264 c -5.85563,7.46708 -7.3186,10.37308 -7.3186,14.53749 l 0,5.20483 4.1386,-4.8264 c 2.27624,-2.65453 5.7706,-7.11945 7.76528,-9.92206 z m 173.2357,11.25222 c 2.38321,-0.83079 4.70173,-2.67195 5.15226,-4.09145 1.32682,-4.18045 -1.95827,-34.33001 -5.46531,-50.15879 -4.40816,-19.89597 -9.66617,-39.03253 -10.72466,-39.03253 -0.47891,0 -1.19441,6.11625 -1.59,13.59168 -0.3956,7.47543 -1.1273,14.56809 -1.62603,15.76147 -0.49871,1.19337 -3.08181,3.15564 -5.74019,4.36057 -4.54674,2.06085 -4.83344,2.04039 -4.83344,-0.34498 0,-1.39468 -0.72424,-2.98338 -1.60941,-3.53045 -0.99715,-0.61626 -1.23101,-0.3824 -0.61474,0.61474 0.54707,0.88517 0.25717,1.60941 -0.6442,1.60941 -0.90149,0 -1.33889,-1.14718 -0.97215,-2.54961 0.36671,-1.40228 -0.25232,-3.75469 -1.37562,-5.22757 -1.94496,-2.55027 -1.9951,-2.52008 -1.0518,0.63315 0.72036,2.408 0.53128,3.02728 -0.69327,2.27047 -1.02186,-0.63155 -1.36829,-2.61828 -0.8812,-5.05364 0.80032,-4.00162 -0.94176,-5.57793 -2.50922,-2.27047 -0.4542,0.95839 -0.52041,-1.39402 -0.14713,-5.22757 0.56613,-5.81414 0.40551,-6.50772 -0.96854,-4.18206 -2.6378,4.46467 -2.9533,26.504 -0.5787,40.42656 3.93715,23.08402 6.78064,34.82905 9.07407,37.48047 5.09734,5.89301 18.30404,8.23066 27.79928,4.9206 z m -28.16697,-12.55695 c -3.27944,-6.57378 -2.73185,-8.42277 0.63439,-2.14211 1.57898,2.94604 2.5854,5.64192 2.23648,5.99083 -0.34892,0.34892 -1.64082,-1.38301 -2.87087,-3.84872 z m -3.52044,-14.62608 c 0.0669,-1.62396 0.39721,-1.95427 0.84221,-0.84222 0.40269,1.0063 0.35317,2.20865 -0.10999,2.67187 -0.46322,0.46322 -0.7927,-0.36013 -0.73217,-1.82965 z m -0.98231,-8.20196 c -0.43162,-1.12478 -0.51575,-2.84988 -0.18694,-3.83355 0.32881,-0.98368 0.9283,-0.0634 1.33221,2.04504 0.78865,4.11684 0.13801,5.13283 -1.14527,1.78851 z m -1.359,-9.57242 c 0.67311,-2.80202 0.4841,-3.66304 -0.65026,-2.96197 -1.11802,0.69097 -1.29963,0.0443 -0.60354,-2.1488 0.72039,-2.26974 0.53051,-2.84967 -0.68673,-2.09737 -1.29593,0.80092 -1.31897,0.36063 -0.10023,-1.91646 1.80486,-3.37242 3.58502,-4.02124 2.37394,-0.86524 -0.44132,1.15007 -0.28215,2.09103 0.35371,2.09103 1.36956,0 0.81012,9.59898 -0.63704,10.93033 -0.54933,0.50536 -0.57173,-0.85882 -0.0498,-3.03152 z m -136.506,10.22344 c -1.87041,-15.87107 -1.96369,-16.12799 -5.96562,-16.43232 -3.16759,-0.24089 -4.36433,0.78917 -7.59373,6.53611 -5.71991,10.17896 -4.62988,11.56827 1.99537,2.54326 3.20591,-4.36713 6.07992,-7.68924 6.38669,-7.38249 0.30675,0.30677 -2.31587,4.21821 -5.82806,8.6921 -4.0635,5.17618 -6.38611,9.5285 -6.38667,11.96792 -4.9e-4,2.10846 0.55274,3.83356 1.2294,3.83356 0.67666,0 3.89906,-4.0962 7.16089,-9.10267 3.26184,-5.00645 6.17462,-8.85866 6.47284,-8.56045 0.29821,0.29822 -2.67245,5.25278 -6.60146,11.01013 -4.17149,6.11266 -6.91782,11.55928 -6.60085,13.09101 0.40269,1.94598 2.11555,0.19413 6.63549,-6.78653 3.35098,-5.1753 6.58437,-9.40963 7.1853,-9.40963 0.60094,0 -2.23479,4.86164 -6.30163,10.80365 -9.54152,13.94101 -8.54068,17.43397 1.4138,4.93421 7.14173,-8.96778 7.49869,-9.79418 6.79824,-15.73786 z m -14.5418,-10.55718 c 2.3482,-3.79946 2.69209,-5.36752 1.44967,-6.60994 -1.24243,-1.24244 -1.90572,-1.18081 -2.79605,0.25977 -0.8554,1.38407 -1.31612,1.44194 -1.72457,0.21658 -0.30655,-0.91962 -0.68255,1.20497 -0.8356,4.72133 -0.15304,3.51635 -0.0293,6.39336 0.27491,6.39336 0.30423,0 1.93847,-2.24149 3.63164,-4.9811 z m -10.68097,-3.24793 c 3.28144,-2.72336 2.7943,-3.86053 -2.07055,-4.8335 -3.1852,-0.63704 -5.48034,-0.0627 -8.71262,2.18033 l -4.38828,3.0452 2.6556,-3.0516 2.65559,-3.05159 -4.32885,0 c -2.65206,0 -4.87923,0.94495 -5.74974,2.43954 -0.7815,1.34174 -1.43998,1.78086 -1.46329,0.97581 -0.0233,-0.80505 0.71038,-2.21649 1.63043,-3.13654 1.30108,-1.30108 0.98159,-1.67283 -1.43776,-1.67283 -1.71084,0 -3.47168,0.94097 -3.913,2.09103 -0.44133,1.15007 -1.43941,2.09103 -2.21797,2.09103 -0.81593,0 -0.68045,-0.88577 0.31983,-2.09103 2.4917,-3.00231 -1.05614,-2.82892 -4.4208,0.21606 -2.78838,2.52346 -3.58493,0.68017 -0.87647,-2.02828 1.09079,-1.09079 1.14994,-1.67283 0.17003,-1.67283 -0.82653,0 -2.53768,1.41145 -3.80253,3.13655 l -2.29972,3.13654 0.82962,-3.13654 c 0.95803,-3.62205 -1.76028,-4.37053 -3.10891,-0.85604 -1.33644,3.48269 1.43094,6.67827 6.68305,7.71714 8.09932,1.60204 31.35082,0.57264 33.84634,-1.49845 z m -6.11032,-2.92312 c 0,-0.76671 0.66433,-1.39402 1.47629,-1.39402 0.81196,0 1.08859,0.62731 0.61474,1.39402 -0.47386,0.76671 -1.13819,1.39402 -1.4763,1.39402 -0.3381,0 -0.61473,-0.62731 -0.61473,-1.39402 z m 34.71023,-5.06012 c 6.1278,-1.22555 9.12983,-6.15789 13.97707,-22.96426 4.35065,-15.0846 6.67119,-27.60395 10.5673,-57.01079 3.84833,-29.0461 8.39479,-46.99641 14.06806,-55.54333 2.71972,-4.09733 4.6713,-7.72331 4.33685,-8.05776 -0.33444,-0.33446 -5.24165,0.11263 -10.90491,0.99346 -12.05368,1.8748 -52.77149,1.00174 -63.26955,-1.3566 -8.69111,-1.95244 -32.57898,-4.08206 -36.01383,-3.21067 -1.98868,0.50451 -2.14368,0.91102 -0.69701,1.82805 2.78587,1.76596 -0.37717,1.46407 -7.67623,-0.73263 -3.57204,-1.07502 -6.49463,-1.69821 -6.49463,-1.38484 0,0.31336 0.98463,6.99553 2.18808,14.84927 3.09111,20.1728 1.8224,80.34869 -2.20593,104.62842 -1.55042,9.34482 -3.16583,19.11341 -3.5898,21.70798 -0.62204,3.80676 -0.36734,4.56256 1.31941,3.91529 6.01225,-2.30712 13.59907,-2.358 34.43446,-0.23091 12.60465,1.28682 23.17891,2.5889 23.49838,2.89353 0.93384,0.89045 21.65847,0.63655 26.46228,-0.32421 z m -40.54769,-4.25626 c 1.0063,-0.40269 2.20865,-0.35318 2.67188,0.10999 0.46322,0.46321 -0.36013,0.79269 -1.82965,0.73216 -1.62396,-0.0669 -1.95428,-0.39721 -0.84223,-0.84221 z m -5.77936,-5.55316 c -0.51115,-0.51113 -0.92935,-1.73312 -0.92935,-2.71552 0,-1.39162 0.95346,-1.4538 4.3164,-0.28147 3.16754,1.10422 3.81686,1.8213 2.43953,2.69418 -2.27076,1.4391 -4.57077,1.55864 -5.82658,0.30281 z m -16.96057,-4.49605 c -3.06685,-0.46623 -4.94877,-1.21059 -4.18206,-1.65413 0.76671,-0.44355 4.84421,-0.0435 9.06112,0.88908 7.95853,1.75996 4.86065,2.24572 -4.87906,0.76505 z m -8.42084,-4.42452 c -0.45537,-0.73679 2.0556,-1.30223 5.78286,-1.30223 7.59296,0 7.67406,0.65258 0.22398,1.80192 -2.86111,0.4414 -5.5642,0.21653 -6.00684,-0.49969 z m -1.3373,-5.48429 c -0.50265,-0.8133 0.91487,-1.39402 3.40277,-1.39402 2.34539,0 4.26434,0.62731 4.26434,1.39402 0,0.76671 -1.53125,1.39402 -3.40278,1.39402 -1.87152,0 -3.79047,-0.62731 -4.26433,-1.39402 z m -2.43953,-12.07539 c 0.95839,-0.38671 2.52666,-0.38671 3.48505,0 0.95838,0.38672 0.17425,0.70313 -1.74253,0.70313 -1.91678,0 -2.70091,-0.31641 -1.74252,-0.70313 z m 2.43953,-4.65284 c -1.01903,-1.64882 0.34505,-1.64882 4.18206,0 2.688,1.15507 2.67844,1.20157 -0.26623,1.29603 -1.67985,0.0539 -3.44197,-0.52932 -3.91583,-1.29603 z m 2.46606,-12.1182 c 1.35634,-0.35344 3.23827,-0.3302 4.18206,0.0517 0.94379,0.38187 -0.16593,0.67104 -2.46606,0.64263 -2.30013,-0.0284 -3.07234,-0.34084 -1.716,-0.69428 z m 1.39402,-4.18205 c 1.35634,-0.35344 3.23827,-0.33021 4.18206,0.0517 0.94379,0.38187 -0.16593,0.67104 -2.46606,0.64263 -2.30013,-0.0284 -3.07234,-0.34083 -1.716,-0.69427 z m -0.43981,-5.88302 c 0.78504,-1.46685 2.35722,-2.53052 3.49375,-2.36371 2.83604,0.41624 4.46995,2.23765 2.03094,2.26401 -1.62608,0.0176 -1.60556,0.26002 0.11612,1.37268 1.58424,1.02381 0.98109,1.35651 -2.48857,1.37268 -4.08074,0.019 -4.42413,-0.26919 -3.15228,-2.64566 z m 5.64086,-4.3031 c -1.15007,-0.74323 -1.46372,-1.35132 -0.69701,-1.35132 0.76671,0 2.33498,0.60809 3.48504,1.35132 1.15007,0.74324 1.46372,1.35132 0.69701,1.35132 -0.76671,0 -2.33498,-0.60808 -3.48504,-1.35132 z m 1.04551,-5.10528 c 0.95839,-0.38672 2.52666,-0.38672 3.48505,0 0.95839,0.38671 0.17425,0.70312 -1.74253,0.70312 -1.91677,0 -2.70091,-0.31641 -1.74252,-0.70312 z m 1.39402,-9.75814 c 0.95839,-0.38671 2.52666,-0.38671 3.48505,0 0.95839,0.38672 0.17425,0.70313 -1.74253,0.70313 -1.91677,0 -2.70091,-0.31641 -1.74252,-0.70313 z m -0.34851,-7.44088 c -3.55226,-1.52647 0.11264,-1.52647 4.87907,0 2.8016,0.89723 2.9383,1.12413 0.69701,1.15707 -1.53342,0.0226 -4.04265,-0.49813 -5.57608,-1.15707 z m -0.3485,-3.71127 c -3.02796,-1.22182 -1.88732,-3.25883 1.8248,-3.25883 1.96202,0 3.20896,0.57983 2.77096,1.28852 -0.43799,0.70868 0.30912,1.57687 1.66026,1.92932 1.61078,0.42017 1.25667,0.65859 -1.02845,0.69245 -1.91677,0.0284 -4.26918,-0.26475 -5.22757,-0.65146 z m -1.74252,-13.01696 c -1.85869,-1.20119 -1.85869,-1.34282 0,-1.27469 1.15006,0.0421 3.34564,0.61575 4.87906,1.27469 2.78804,1.19806 2.78804,1.19806 0,1.27469 -1.53342,0.0421 -3.729,-0.53146 -4.87906,-1.27469 z m 3.48504,-2.38806 c -1.53342,-0.36883 -3.41534,-1.30753 -4.18205,-2.08599 -1.74251,-1.76922 4.94634,0.017 6.90039,1.84268 0.72838,0.68055 1.04203,1.16458 0.69701,1.07564 -0.34502,-0.0889 -1.88193,-0.46348 -3.41535,-0.83233 z m 0,-4.20117 c -2.30013,-0.32746 -4.78976,-1.18621 -5.53251,-1.9083 -1.72111,-1.67322 7.78636,0.0141 9.64487,1.71178 0.72838,0.66532 1.04203,1.11568 0.69701,1.0008 -0.34502,-0.11486 -2.50923,-0.47681 -4.80937,-0.80428 z m -3.74642,-5.5152 c 1.0063,-0.40269 2.20865,-0.35317 2.67187,0.10999 0.46322,0.46322 -0.36013,0.7927 -1.82965,0.73217 -1.62396,-0.0669 -1.95427,-0.39721 -0.84222,-0.84221 z m 2.0039,-1.8792 c -4.66808,-1.87634 -3.79544,-2.82926 1.04551,-1.1417 2.30014,0.80184 4.18206,1.71016 4.18206,2.01852 0,0.82699 -1.69671,0.5424 -5.22757,-0.87682 z m -4.53056,-5.53264 c -1.15007,-0.74324 -1.46372,-1.35132 -0.69701,-1.35132 0.76671,0 2.33498,0.60808 3.48505,1.35132 1.15006,0.74323 1.46372,1.35132 0.69701,1.35132 -0.76672,0 -2.33499,-0.60809 -3.48505,-1.35132 z m 1.39402,-3.6037 c -4.56611,-1.86942 -4.61082,-1.94571 -0.69701,-1.18932 2.30013,0.44454 4.778,1.39116 5.50637,2.10362 1.66949,1.63301 1.18964,1.54179 -4.80936,-0.9143 z m -4.53057,-6.43699 c -5.31167,-1.41076 -7.25546,-5.18901 -2.78803,-5.41925 1.34174,-0.0691 0.33198,-0.73222 -2.2439,-1.47349 -6.75369,-1.94353 -4.71374,-2.72552 2.39976,-0.91993 4.12817,1.04784 5.41429,1.88582 4.13707,2.6955 -1.32006,0.83686 -1.36608,1.18111 -0.15992,1.19632 0.93142,0.0112 2.36493,1.27596 3.18559,2.80938 0.82066,1.53343 1.3132,2.72321 1.09455,2.64397 -0.21865,-0.0792 -2.74995,-0.76887 -5.62512,-1.5325 z m -15.85926,110.41007 c 5.07588,-31.96202 6.2683,-84.65852 2.43669,-107.68418 -3.28501,-19.74087 -5.84335,-24.47536 -16.28021,-30.1282 -7.5362,-4.08178 -7.60478,-4.09107 -8.2059,-1.11033 -0.3334,1.65321 -0.99162,4.88776 -1.46272,7.1879 -1.94421,9.49263 -1.98081,24.67575 -0.0974,40.42655 1.10013,9.20053 2.36291,23.31497 2.80618,31.36543 1.85451,33.68046 3.72518,47.87462 6.98136,52.97273 6.23269,9.75837 8.1934,14.71382 7.89925,19.96432 -0.29359,5.24096 1.25895,12.73143 2.07419,10.0071 0.22943,-0.76671 1.9613,-11.11731 3.84861,-23.00132 z m 237.17987,7.85972 c 0.48331,-3.93949 0.6765,-10.61291 0.42934,-14.82982 -0.49761,-8.48962 -0.25001,-8.37623 -13.4825,-6.17462 -4.52153,0.75228 -4.64082,0.93909 -3.77711,5.91525 1.75447,10.10841 5.40204,19.84437 8.81395,23.52587 3.27145,3.52995 3.57346,3.60027 5.30329,1.23456 1.00887,-1.3797 2.22972,-5.73176 2.71303,-9.67124 z M 359.1242,319.4317 c 0,-1.15006 0.6273,-2.09103 1.39402,-2.09103 0.76671,0 1.39401,0.94097 1.39401,2.09103 0,1.15007 -0.6273,2.09103 -1.39401,2.09103 -0.76672,0 -1.39402,-0.94096 -1.39402,-2.09103 z M 97.423626,341.51863 c -0.943799,-0.38185 -2.825725,-0.40509 -4.18206,-0.0517 -1.356336,0.35344 -0.584139,0.66587 1.715993,0.69428 2.300127,0.0284 3.409857,-0.26077 2.466067,-0.64263 z m 2.51732,-2.61527 c 3.507574,-0.10232 7.271424,-0.72503 8.364114,-1.38381 1.70859,-1.03011 1.71372,-0.86138 0.0366,1.20524 -1.7944,2.21119 -1.64596,2.2874 1.85951,0.95462 2.09526,-0.79661 4.34089,-1.12002 4.99028,-0.71867 0.6494,0.40134 1.60117,0.0494 2.11506,-0.78207 0.51388,-0.83149 1.81184,-1.17506 2.88435,-0.76351 1.11327,0.4272 1.95003,-0.11138 1.95003,-1.25523 0,-1.10194 -0.80813,-1.69342 -1.79583,-1.3144 -1.09855,0.42155 -3.03453,-1.86053 -4.98609,-5.87742 -1.75465,-3.6116 -3.61259,-5.98015 -4.12876,-5.26344 -1.03262,1.43383 -3.89293,1.82707 -16.010972,2.20124 -7.887785,0.24353 -8.173941,0.3904 -10.803649,5.54507 -1.485697,2.91219 -2.701262,5.9012 -2.701262,6.64224 0,1.89742 4.242473,2.82852 8.364115,1.83567 1.916776,-0.46172 6.35488,-0.92321 9.862454,-1.02553 z m -12.911871,-0.21065 c 1.006308,-0.40269 2.208649,-0.35317 2.67187,0.10999 0.463221,0.46322 -0.360122,0.7927 -1.82965,0.73217 -1.623953,-0.0669 -1.954275,-0.39721 -0.84222,-0.84221 z m 4.443436,-3.06851 4.879067,-0.9632 -5.227572,-1.05622 c -2.875164,-0.58093 -5.227572,-1.72223 -5.227572,-2.53622 0,-0.88345 0.983322,-1.05331 2.439534,-0.42143 1.341743,0.58223 4.506584,1.34859 7.032979,1.70303 6.577243,0.92276 4.730393,3.76898 -2.610761,4.02352 -5.837732,0.2024 -5.905931,0.16264 -1.285675,-0.74948 z m -2.788038,-7.09652 c 0,-0.78097 1.927307,-0.99231 4.530562,-0.49677 6.352951,1.20928 6.555321,1.85594 0.580842,1.85594 -2.811273,0 -5.111404,-0.61163 -5.111404,-1.35917 z m 295.489367,-3.5199 c 0,-0.76671 -0.60808,-0.45306 -1.35132,0.69701 -0.74323,1.15007 -1.35132,2.71834 -1.35132,3.48505 0,0.76671 0.60809,0.45305 1.35132,-0.69701 0.74324,-1.15007 1.35132,-2.71834 1.35132,-3.48505 z m -1.54728,-6.27309 c 0,-1.31801 -0.44289,-1.06034 -1.19806,0.69701 -0.65894,1.53342 -1.19806,3.729 -1.19806,4.87907 0,1.31802 0.44289,1.06035 1.19806,-0.69701 0.65894,-1.53342 1.19806,-3.729 1.19806,-4.87907 z m -276.05758,2.80707 c 1.28289,-0.0126 1.60883,-1.19891 1.05901,-3.85258 -0.43686,-2.10845 -1.12938,-9.79299 -1.53894,-17.07674 -0.40956,-7.28375 -1.67025,-26.99541 -2.80153,-43.8037 -1.13128,-16.80829 -2.06037,-34.05928 -2.06465,-38.33553 -0.011,-11.03858 -2.233514,-18.23015 -5.633826,-18.23015 -1.846088,0 -2.774571,1.00972 -2.884221,3.13655 -0.121684,2.36031 -0.319482,2.5328 -0.799226,0.69701 -0.350634,-1.34175 -1.19914,-2.43954 -1.885569,-2.43954 -0.686429,0 -0.877128,0.96662 -0.423775,2.14803 0.859512,2.23986 -2.23927,2.37945 -3.85492,0.17367 -0.468662,-0.63986 -1.204104,0.18266 -1.634316,1.8278 -0.491266,1.87859 -0.04471,3.27416 1.200616,3.75203 1.090551,0.41848 1.982821,1.35809 1.982821,2.08803 0,0.72992 -0.709223,0.88881 -1.576052,0.35309 -1.148516,-0.70982 -1.323471,1.82041 -0.644951,9.32735 0.512104,5.66579 1.578818,25.98413 2.370476,45.15189 0.791658,19.16777 1.866023,39.23812 2.387477,44.60077 0.915306,9.41307 1.09274,9.78204 5.130155,10.66825 2.300127,0.50488 5.436681,0.67381 6.970101,0.37539 1.53342,-0.29841 3.62202,-0.55115 4.64132,-0.56162 z M 96.525831,309.2585 c -0.378015,-0.61164 -0.127497,-2.01783 0.55669,-3.12489 0.940315,-1.52146 1.636865,-1.61993 2.853395,-0.4034 0.885184,0.88517 1.187934,2.29136 0.672794,3.12489 -1.100804,1.78112 -3.108784,1.97952 -4.082879,0.4034 z M 94.88249,290.73285 c -1.196246,-1.93557 1.455294,-4.66444 3.377766,-3.47628 1.60097,0.98945 0.57585,4.99176 -1.278542,4.99176 -0.639432,0 -1.584083,-0.68197 -2.099224,-1.51548 z m -3.874652,-53.78062 c -0.51114,-0.51113 -0.929346,-1.57756 -0.929346,-2.36983 0,-0.87349 0.649294,-0.79119 1.649589,0.2091 0.907275,0.90728 1.325481,1.97371 0.929346,2.36983 -0.396134,0.39614 -1.138449,0.30205 -1.649589,-0.2091 z m -3.077696,-10.31555 c -0.505378,-0.81771 -0.619896,-1.78573 -0.254485,-2.15115 0.365412,-0.36541 1.035849,0.30363 1.48986,1.48676 0.942613,2.45642 0.139192,2.8885 -1.235375,0.66439 z M 85.896434,215.495 c 0,-0.81196 0.627309,-1.08859 1.39402,-0.61474 0.76671,0.47386 1.394019,1.13819 1.394019,1.4763 0,0.3381 -0.627309,0.61473 -1.394019,0.61473 -0.766711,0 -1.39402,-0.66433 -1.39402,-1.47629 z m 8.364115,-12.54617 c 0,-0.81196 0.627309,-1.08859 1.39402,-0.61474 0.76671,0.47386 1.394019,1.13819 1.394019,1.4763 0,0.3381 -0.627309,0.61473 -1.394019,0.61473 -0.766711,0 -1.39402,-0.66433 -1.39402,-1.47629 z m 20.910291,116.56515 c 0,-1.47136 -2.67528,-2.08951 -3.47099,-0.80202 -0.48159,0.77921 0.10237,1.41675 1.29769,1.41675 1.19532,0 2.1733,-0.27663 2.1733,-0.61473 z m 265.36776,-2.87031 c 0.44132,-1.15007 0.19478,-2.09103 -0.54786,-2.09103 -0.74265,0 -1.35028,0.94096 -1.35028,2.09103 0,1.15006 0.24655,2.09102 0.54787,2.09102 0.30133,0 0.90894,-0.94096 1.35027,-2.09102 z m -268.1558,-2.87032 c 0,-1.19531 -0.63754,-1.77927 -1.41676,-1.29769 -0.77921,0.48158 -1.05585,1.45957 -0.61473,2.1733 1.195,1.93356 2.03149,1.57303 2.03149,-0.87561 z m 266.21497,-5.4938 c 0,-0.76671 -0.60809,-0.45306 -1.35132,0.69701 -0.74324,1.15007 -1.35132,2.71834 -1.35132,3.48505 0,0.76671 0.60808,0.45305 1.35132,-0.69701 0.74323,-1.15007 1.35132,-2.71834 1.35132,-3.48505 z m -13.54899,0.50155 c 7.99325,-1.99698 6.23111,-2.97393 -3.48505,-1.93213 -10.81229,1.15933 -13.84184,1.98907 -12.88938,3.53018 0.78069,1.26318 7.5768,0.59992 16.37443,-1.59805 z M 112.3828,306.10625 c 0,-1.57867 -0.59991,-2.49955 -1.33313,-2.04638 -0.73323,0.45315 -0.97977,1.74479 -0.54787,2.87031 1.10577,2.88159 1.881,2.54202 1.881,-0.82393 z m 254.66548,-4.5891 c 1.42966,-1.42965 -1.98788,-13.52437 -4.98244,-17.63294 -1.39706,-1.91677 -3.56467,-3.68656 -4.81692,-3.93287 -1.84855,-0.3636 -2.11576,0.35745 -1.42053,3.83355 1.07459,5.373 -1.60136,5.78218 -2.93977,0.44952 -0.87112,-3.47086 -1.12682,-3.60609 -2.71408,-1.43538 -1.2801,1.75063 -1.43777,4.69693 -0.58499,10.93252 0.64206,4.69482 1.45165,8.996 1.79908,9.55816 0.74333,1.20275 14.2085,-0.3214 15.65965,-1.77256 z m -11.40913,-5.08676 c -0.55642,-0.90033 -0.38439,-2.26425 0.38232,-3.03096 0.92935,-0.92935 1.73126,-0.84838 2.40572,0.24292 0.55642,0.90033 0.38438,2.26425 -0.38233,3.03096 -0.92935,0.92935 -1.73126,0.84837 -2.40571,-0.24292 z m 21.55789,0.26623 c 0.0272,-1.00364 -0.64511,-1.39556 -1.49396,-0.87094 -1.04976,0.64879 -1.24347,-0.10511 -0.6057,-2.35726 0.75166,-2.65422 0.62622,-2.89627 -0.63224,-1.22009 -1.22363,1.62979 -1.38414,1.0148 -0.72769,-2.78804 1.07321,-6.21719 -1.31419,-2.72119 -2.76083,4.04284 -0.85155,3.98153 -0.66167,4.60475 1.1868,3.89543 1.80413,-0.69231 2.06828,-0.0394 1.46634,3.62426 l -0.73419,4.46869 2.12605,-3.48505 c 1.16932,-1.91677 2.14827,-4.30621 2.17542,-5.30984 z m -265.70414,3.21882 c -0.44132,-1.15007 -1.04895,-2.09103 -1.35027,-2.09103 -0.30133,0 -0.54787,0.94096 -0.54787,2.09103 0,1.15006 0.60763,2.09102 1.35027,2.09102 0.74265,0 0.98919,-0.94096 0.54787,-2.09102 z m -0.50412,-4.87907 c 0,-0.76671 -0.27663,-1.39402 -0.61474,-1.39402 -0.3381,0 -1.00243,0.62731 -1.47629,1.39402 -0.47385,0.76671 -0.19722,1.39402 0.61474,1.39402 0.81196,0 1.47629,-0.62731 1.47629,-1.39402 z m -0.69701,-4.18206 c 0.47386,-0.76671 0.19722,-1.39402 -0.61473,-1.39402 -0.81196,0 -1.47629,0.62731 -1.47629,1.39402 0,0.76671 0.27663,1.39402 0.61473,1.39402 0.33811,0 1.00244,-0.62731 1.47629,-1.39402 z m 264.00482,-11.84916 c 0.0247,-0.76671 -1.15708,0.80156 -2.62622,3.48505 -1.46914,2.68348 -2.65095,5.82003 -2.62622,6.97009 0.047,2.18468 5.17393,-8.02071 5.25244,-10.45514 z m -1.331,-5.57608 c 0,-2.4629 -0.23234,-2.38161 -1.99223,0.69701 -1.09573,1.91678 -1.99224,4.73967 -1.99224,6.27309 0,2.46289 0.23235,2.38161 1.99224,-0.69701 1.09573,-1.91678 1.99223,-4.73967 1.99223,-6.27309 z m -17.17836,3.48505 c 2.26085,0 5.50483,0.97654 7.20884,2.17007 1.70402,1.19354 3.09822,1.95384 3.09822,1.68955 0,-0.26429 -0.95255,-7.9844 -2.11676,-17.15579 -1.16422,-9.17138 -2.72464,-28.90776 -3.46761,-43.85862 -1.19335,-24.01367 -2.0203,-32.49125 -5.01387,-51.40078 -0.73108,-4.61793 -0.84897,-4.68932 -6.66255,-4.03405 -6.98311,0.78711 -13.26915,3.62162 -15.3055,6.90162 -1.0192,1.6416 -0.97732,6.88646 0.13912,17.42524 5.16635,48.76856 7.64778,68.05886 10.24636,79.65373 2.73153,12.18808 3.06425,12.86147 5.33812,10.80365 1.33377,-1.20704 4.2748,-2.19462 6.53563,-2.19462 z m -4.75996,-9.86269 c 0.27474,-0.82421 1.09546,-1.49857 1.82384,-1.49857 0.72837,0 1.5491,0.67436 1.82384,1.49857 0.27474,0.82422 -0.54598,1.49857 -1.82384,1.49857 -1.27786,0 -2.09858,-0.67435 -1.82384,-1.49857 z m -0.82959,-15.01187 c -0.4824,-0.78054 -0.19781,-1.83898 0.63241,-2.35209 2.14328,-1.32461 3.52613,0.48979 1.73692,2.279 -1.00116,1.00116 -1.78089,1.02521 -2.36933,0.073 z m -8.97563,-33.67425 c 0,-1.91677 0.31641,-2.70091 0.70313,-1.74252 0.38671,0.95839 0.38671,2.52666 0,3.48505 -0.38672,0.95838 -0.70313,0.17425 -0.70313,-1.74253 z m -1.39402,-8.36411 c 0,-1.91678 0.31641,-2.70091 0.70313,-1.74253 0.38671,0.95839 0.38671,2.52666 0,3.48505 -0.38672,0.95839 -0.70313,0.17425 -0.70313,-1.74252 z m -0.99218,-11.27362 c -0.51515,-0.83352 -0.27045,-2.18165 0.54375,-2.99586 1.0445,-1.04449 1.41394,-0.59827 1.25472,1.51548 -0.25692,3.41054 -0.48801,3.60076 -1.79847,1.48038 z m -1.47816,-10.87148 c 0.27226,-3.21132 0.85427,-6.198 1.29333,-6.63708 0.43907,-0.43907 0.55603,1.84867 0.2599,5.08385 -0.29613,3.23519 -0.87814,6.22187 -1.29335,6.63708 -0.41519,0.41521 -0.53215,-1.87253 -0.25988,-5.08385 z m -0.57936,-9.83971 c 0.79781,-1.49072 2.13957,-3.13622 2.98168,-3.65668 0.84213,-0.52046 0.45295,0.69923 -0.86482,2.71041 -2.79029,4.25853 -4.23519,4.90442 -2.11686,0.94627 z m -2.70378,-0.77464 c 0,-0.76671 0.60808,-2.33499 1.35132,-3.48505 0.74324,-1.15007 1.35132,-1.46372 1.35132,-0.69701 0,0.76671 -0.60808,2.33498 -1.35132,3.48505 -0.74324,1.15006 -1.35132,1.46372 -1.35132,0.69701 z m 4.13936,-7.96583 c 0,-0.60241 1.25462,-1.0953 2.78804,-1.0953 1.53342,0 2.78803,0.49289 2.78803,1.0953 0,0.60242 -1.25461,1.09531 -2.78803,1.09531 -1.53342,0 -2.78804,-0.49289 -2.78804,-1.09531 z M 109.59476,277.52885 c 0,-1.19531 -0.6273,-1.7856 -1.39401,-1.31174 -0.76672,0.47385 -1.39402,1.45184 -1.39402,2.1733 0,0.72146 0.6273,1.31175 1.39402,1.31175 0.76671,0 1.39401,-0.97799 1.39401,-2.17331 z m 0,-6.27308 c 0,-0.72146 -0.6273,-1.31175 -1.39401,-1.31175 -0.76672,0 -1.39402,0.97799 -1.39402,2.17331 0,1.19531 0.6273,1.7856 1.39402,1.31174 0.76671,-0.47385 1.39401,-1.45184 1.39401,-2.1733 z m 261.41194,-1.4168 c 1.34363,-4.23341 -0.0139,-4.6678 -1.86804,-0.59785 -0.87481,1.92002 -1.01898,3.49094 -0.32038,3.49094 0.69861,0 1.6834,-1.30189 2.18842,-2.89309 z m -0.19845,-7.63446 c 0.47605,-1.24056 0.24235,-1.80012 -0.54786,-1.31174 -1.76084,1.08825 -1.75365,-0.18836 0.0198,-3.50196 0.94703,-1.76954 0.92875,-2.90168 -0.0567,-3.51073 -0.79998,-0.4944 -1.07423,-2.25757 -0.60947,-3.91815 0.66875,-2.38939 0.53963,-2.58302 -0.61896,-0.9282 -1.27026,1.81432 -1.46681,1.77908 -1.48534,-0.26623 -0.0111,-1.29649 0.60597,-2.74496 1.37268,-3.21881 1.68008,-1.03835 1.87526,-6.27309 0.23389,-6.27309 -2.01493,0 -4.54923,10.20824 -2.80234,11.28786 0.84239,0.52064 1.16112,1.54609 0.70828,2.27879 -0.77383,1.25208 1.43102,11.5257 2.47356,11.5257 0.26529,0 0.85592,-0.97355 1.31253,-2.16344 z m -263.30451,-2.01862 c 0.47385,-0.76671 0.19722,-1.39402 -0.61474,-1.39402 -0.81196,0 -1.47629,0.62731 -1.47629,1.39402 0,0.76671 0.27663,1.39402 0.61474,1.39402 0.3381,0 1.00243,-0.62731 1.47629,-1.39402 z m 0,-8.36412 c 0.47385,-0.76671 0.19722,-1.39402 -0.61474,-1.39402 -0.81196,0 -1.47629,0.62731 -1.47629,1.39402 0,0.76671 0.27663,1.39402 0.61474,1.39402 0.3381,0 1.00243,-0.62731 1.47629,-1.39402 z m 0.69701,-5.57607 c 0,-0.76671 -0.62731,-1.39402 -1.39402,-1.39402 -0.76671,0 -1.39402,0.62731 -1.39402,1.39402 0,0.76671 0.62731,1.39402 1.39402,1.39402 0.76671,0 1.39402,-0.62731 1.39402,-1.39402 z m -1.86481,-7.3186 c -0.38672,-0.95839 -0.70312,-0.17426 -0.70312,1.74252 0,1.91678 0.3164,2.70091 0.70312,1.74252 0.38672,-0.95838 0.38672,-2.52666 0,-3.48504 z m 262.45266,-3.83356 c -0.003,-1.21271 -0.84188,-0.62717 -1.9973,1.39402 -2.61905,4.58157 -2.64857,6.84609 -0.0443,3.40298 1.12567,-1.48828 2.04441,-3.64693 2.04163,-4.797 z m -91.91154,-5.48963 c 10.3506,-1.48225 27.50908,-3.50015 38.12997,-4.48421 l 19.31072,-1.7892 -0.71007,-8.40717 c -0.39054,-4.62395 -1.48414,-14.52344 -2.43025,-21.99887 -1.83792,-14.52179 -3.10143,-16.12223 -9.07681,-11.49724 -2.62343,2.03057 -2.62457,2.06587 -0.0378,1.15712 1.84437,-0.64791 2.357,-0.43375 1.66027,0.69359 -0.55439,0.89701 -2.27068,1.63092 -3.81401,1.63092 -1.54332,0 -5.74063,1.7251 -9.32736,3.83355 l -6.52132,3.83356 5.57608,0.84769 5.57608,0.8477 -5.76451,0.19781 c -3.17047,0.10873 -9.1299,1.29551 -13.24318,2.63711 l -7.47868,2.43927 4.87907,0.74334 c 4.34342,0.66173 3.9608,0.84796 -3.48505,1.69623 -13.55727,1.54452 -27.18337,7.01996 -27.18337,10.92323 0,0.59455 1.09779,1.35193 2.43953,1.68308 1.34175,0.33115 1.04156,0.46434 -0.66709,0.296 -1.9419,-0.19135 -3.90181,0.90749 -5.22757,2.93087 -2.92853,4.46949 -2.7472,4.71407 2.40041,3.23774 2.48675,-0.71318 5.46647,-1.27763 6.62159,-1.25431 3.52151,0.0711 -1.23469,2.236 -7.3094,3.32708 -5.32656,0.9567 -7.21339,3.48752 -2.78803,3.73958 1.62636,0.0927 1.27785,0.511 -1.04552,1.25507 -3.25374,1.04203 -3.1612,1.13845 1.39402,1.45289 l 4.87907,0.33676 -5.57608,0.99839 c -11.98855,2.14652 1.00218,1.24391 18.81926,-1.30758 z m -12.54617,-4.2685 c 1.91678,-0.61386 4.73967,-1.11611 6.27309,-1.11611 2.20766,0 2.06256,0.23234 -0.69701,1.11611 -1.91678,0.61385 -4.73967,1.11611 -6.27309,1.11611 -2.20766,0 -2.06256,-0.23235 0.69701,-1.11611 z m 2.45579,-7.95603 c 1.73403,-0.33344 4.24327,-0.32078 5.57608,0.0282 1.3328,0.34891 -0.086,0.62173 -3.1528,0.60626 -3.06684,-0.0155 -4.15732,-0.30096 -2.42328,-0.63439 z m 1.02926,-6.34744 c 3.70484,-2.75772 12.62461,-3.97074 19.51627,-2.65408 5.26968,1.00679 5.00159,1.11867 -4.87907,2.03613 -5.75033,0.53394 -12.02341,1.35835 -13.94019,1.83202 -3.3656,0.8317 -3.38949,0.79009 -0.69701,-1.21407 z m 17.5414,-4.32399 c 1.40442,-1.22155 12.43001,-1.89227 12.43001,-0.75616 0,0.69375 -2.92744,1.26137 -6.50543,1.26137 -3.57797,0 -6.24403,-0.22735 -5.92458,-0.50521 z m 16.26356,-7.44869 c 1.7251,-0.33228 4.54799,-0.33228 6.27309,0 1.7251,0.33227 0.31366,0.60413 -3.13654,0.60413 -3.4502,0 -4.86164,-0.27186 -3.13655,-0.60413 z m 12.89468,-11.55045 c 1.88695,-1.23019 13.81489,-2.09893 12.43001,-0.90532 -0.31947,0.27535 -3.71739,0.89842 -7.55094,1.3846 -4.75837,0.60347 -6.30659,0.45138 -4.87907,-0.47928 z m 60.61341,26.68036 c -0.30804,-0.30804 -3.09417,-1.02347 -6.1914,-1.58983 -3.83031,-0.70042 -5.62991,-0.53233 -5.62689,0.52558 0.003,0.90495 2.59162,1.56976 6.1914,1.58982 3.40283,0.019 5.93492,-0.21754 5.62689,-0.52557 z m 47.42308,-7.30751 c 16.62509,-3.48325 33.25895,-8.96837 39.03254,-12.87121 6.54963,-4.42745 21.52506,-17.69535 22.92489,-20.31096 2.37915,-4.44546 3.09992,-54.10781 0.97018,-66.84611 -2.41074,-14.41916 -4.43717,-16.75309 -13.78843,-15.88077 -7.13234,0.66534 -9.0774,2.99119 -2.78804,3.33386 l 3.83355,0.20887 -3.83355,0.58074 c -5.21008,0.78926 -4.84288,2.51364 0.62397,2.9302 6.3051,0.48043 6.76829,1.6474 0.65388,1.6474 -6.73477,0 -6.63022,2.71995 0.11612,3.02238 l 5.22758,0.23434 -5.22758,0.54682 c -6.25043,0.65382 -7.35838,4.44448 -1.39401,4.76945 l 3.83355,0.20886 -3.83355,0.58074 c -2.66009,0.40297 -3.83356,1.40582 -3.83356,3.27618 0,2.14573 1.06612,2.74094 5.22757,2.91854 l 5.22758,0.22309 -4.86689,0.58732 c -4.47285,0.53977 -6.90701,2.25013 -6.96093,4.89107 -0.0112,0.57504 2.33106,1.15098 5.20623,1.27985 l 5.22757,0.23435 -5.22757,0.54682 c -3.56216,0.37261 -5.22758,1.23658 -5.22758,2.71191 0,1.61273 1.06697,2.0085 4.18206,1.55131 2.30013,-0.33759 4.18206,-0.0951 4.18206,0.53879 0,0.63393 -1.88193,1.15258 -4.18206,1.15258 -2.30013,0 -4.18206,0.63473 -4.18206,1.4105 0,0.8299 2.43867,1.14848 5.92458,0.77395 l 5.92459,-0.63654 -6.62159,1.55071 c -4.04056,0.94626 -6.6216,2.31789 -6.6216,3.51886 0,1.46162 1.07634,1.73177 4.18206,1.04963 5.59989,-1.22994 5.3452,0.25434 -0.3485,2.03103 l -4.53057,1.41375 4.53057,-0.43544 c 2.49181,-0.23949 4.53056,0.0435 4.53056,0.62881 0,0.58535 -1.99044,1.26084 -4.42321,1.5011 -5.28202,0.52164 -6.8274,3.45244 -2.27872,4.32155 2.42417,0.46319 2.10044,0.66144 -1.31368,0.80451 -5.26431,0.22059 -5.87734,1.95087 -1.39916,3.94909 2.76572,1.23409 2.31803,1.51421 -3.83356,2.39855 -3.83072,0.55069 -9.44108,1.72242 -12.46745,2.60383 -5.19016,1.51159 -5.30884,1.66317 -2.09103,2.67056 2.28989,0.71688 1.34909,0.87414 -2.86161,0.47833 -3.4502,-0.3243 -11.29156,0.0538 -17.42524,0.84037 -6.13369,0.78651 -20.24813,2.23852 -31.36543,3.22668 -18.62038,1.65508 -19.38936,1.82858 -9.75814,2.20155 l 10.45515,0.40488 -10.45515,1.09348 c -18.17034,1.90038 -22.30431,2.80194 -22.30431,4.86428 0,1.284 1.77586,2.00909 5.22758,2.13444 3.65042,0.13257 4.17613,0.36347 1.74252,0.76537 -7.11234,1.17453 -7.62049,2.37139 -1.39402,3.28335 l 6.27309,0.91877 -5.57608,0.43659 c -5.34227,0.41829 -5.25459,0.47599 2.09103,1.37617 l 7.6671,0.93959 -7.3186,0.22721 c -8.33233,0.2587 -10.03734,2.89924 -2.09102,3.23836 5.14685,0.21964 5.15762,0.23177 0.697,0.78534 -4.72682,0.58659 -6.33401,3.10119 -2.09102,3.27161 2.08606,0.0838 2.03557,0.27156 -0.34851,1.29603 -2.43688,1.04716 -2.26129,1.2367 1.39402,1.50491 l 4.18206,0.30684 -3.83355,0.58073 c -5.74444,0.87022 -4.622,2.7158 1.23577,2.03194 3.40228,-0.3972 4.76286,-0.0959 4.13742,0.91605 -0.51256,0.82932 -1.8147,1.16911 -2.89364,0.75507 -1.07894,-0.41402 -3.09761,-0.092 -4.48591,0.71551 -2.32298,1.35122 -2.28071,1.47167 0.53006,1.51067 1.67985,0.0233 3.40581,0.6112 3.83548,1.30641 0.42966,0.69521 -0.40347,0.95422 -1.85143,0.57556 -1.44795,-0.37864 -3.05411,-0.007 -3.56924,0.82702 -0.59466,0.96219 0.74747,1.59171 3.67622,1.72433 l 4.61284,0.20886 -4.18206,0.71762 -4.18206,0.7176 4.18206,0.99962 4.18206,0.99962 -3.83356,0.16494 c -2.10845,0.0908 -3.83355,0.71382 -3.83355,1.3847 0,0.67087 1.7251,1.56791 3.83355,1.9934 2.10846,0.4255 5.03425,1.23782 6.50177,1.80517 1.86578,0.72131 2.36509,0.54105 1.66026,-0.59938 -0.61092,-0.98854 -0.11947,-1.63092 1.24765,-1.63092 1.24056,0 1.89426,0.58461 1.45265,1.29914 -2.10945,3.41316 16.56412,1.64484 44.54998,-4.21868 z m -52.5371,1.96727 c 1.0063,-0.40269 2.20866,-0.35318 2.67188,0.10999 0.46321,0.46322 -0.36014,0.79269 -1.82965,0.73216 -1.62397,-0.0669 -1.95428,-0.39721 -0.84223,-0.84221 z m -6.36021,-37.68472 c 2.10845,-0.31941 5.55865,-0.31941 7.6671,0 2.10846,0.3194 0.38336,0.58074 -3.83355,0.58074 -4.21691,0 -5.94201,-0.26134 -3.83355,-0.58074 z m 62.73086,0.0375 c 1.34175,-0.35062 3.53733,-0.35062 4.87907,0 1.34174,0.35064 0.24395,0.63753 -2.43953,0.63753 -2.68349,0 -3.78128,-0.28689 -2.43954,-0.63753 z m -26.7187,-2.32772 c 0.31946,-0.27534 3.71739,-0.8631 7.55094,-1.30614 4.48421,-0.51822 5.97574,-0.37463 4.18206,0.40265 -2.66331,1.1541 -12.94211,1.94562 -11.733,0.90349 z m 33.4754,-2.82163 c -2.10773,-2.53965 0.87606,-3.72008 8.69153,-3.43847 l 5.81056,0.20938 -6.27308,0.83613 c -3.9468,0.52607 -6.14385,1.48233 -5.92458,2.57867 0.45389,2.26945 -0.31848,2.20721 -2.30443,-0.18571 z m -25.22745,-2.27475 c 6.33944,-1.17874 20.47251,-1.80619 19.4001,-0.86128 -0.31946,0.28148 -6.22662,0.85286 -13.12702,1.26973 -8.84248,0.5342 -10.69433,0.41362 -6.27308,-0.40845 z m 22.3043,-2.96039 c 0,-0.66039 1.56828,-1.20071 3.48505,-1.20071 1.91678,0 3.48505,0.24052 3.48505,0.53449 0,0.29399 -1.56827,0.83429 -3.48505,1.20071 -1.91677,0.36642 -3.48505,0.12588 -3.48505,-0.53449 z m 17.77375,-3.51796 c 0.95839,-0.38672 2.52666,-0.38672 3.48505,0 0.95839,0.38671 0.17425,0.70313 -1.74253,0.70313 -1.91677,0 -2.70091,-0.31642 -1.74252,-0.70313 z m 16.37972,-7.44089 -4.18205,-1.06415 4.53056,-0.16494 c 2.49181,-0.0907 4.53056,0.46238 4.53056,1.22909 0,0.76671 -0.15683,1.3198 -0.3485,1.2291 -0.19168,-0.0908 -2.23043,-0.64382 -4.53057,-1.2291 z m 3.83356,-38.59945 c 1.34174,-0.35063 3.53732,-0.35063 4.87906,0 1.34175,0.35064 0.24396,0.63752 -2.43953,0.63752 -2.68349,0 -3.78128,-0.28688 -2.43953,-0.63752 z m -212.93643,95.09657 c 20.04419,-2.87663 33.96016,-8.04681 53.66974,-19.93983 16.96942,-10.23957 24.64284,-18.01356 37.65988,-38.15345 5.96956,-9.23606 7.01656,-12.40595 3.11518,-9.43142 -1.34175,1.02299 -0.67564,-0.0728 1.48024,-2.43512 3.57253,-3.9146 3.69603,-4.3819 1.39401,-5.27513 -2.27265,-0.88184 -2.17652,-1.17453 0.9593,-2.92088 1.91678,-1.06745 2.82372,-1.96305 2.01544,-1.99021 -0.80828,-0.0272 -4.43709,1.83252 -8.06402,4.13265 -7.29298,4.62507 -10.46648,5.5639 -5.25002,1.55312 l 3.33861,-2.56694 -5.81335,0 c -3.19735,0 -6.14818,0.54175 -6.55743,1.20391 -0.40923,0.66216 -1.45424,1.20393 -2.32225,1.20393 -0.868,0 -0.36049,-0.89616 1.12779,-1.99146 2.47702,-1.82296 2.5052,-2.06933 0.3332,-2.91157 -1.30504,-0.50605 -3.02295,-0.51828 -3.81759,-0.0272 -0.83668,0.5171 -1.12443,0.0581 -0.68365,-1.0906 0.80674,-2.10232 -2.95647,-4.28794 -5.10095,-2.96258 -0.69752,0.4311 -1.26822,0.17176 -1.26822,-0.57632 0,-0.74807 0.78413,-1.733 1.74252,-2.18875 0.95839,-0.45576 0.26903,-0.55054 -1.5319,-0.21062 -1.80095,0.33991 -2.90272,0.24631 -2.4484,-0.20801 0.45431,-0.45431 -0.27667,-1.59839 -1.62442,-2.54239 -1.96167,-1.374 -7.92285,-1.13826 -29.8862,1.18187 -24.9726,2.63801 -29.35124,2.74171 -48.7709,1.15501 -28.1968,-2.30381 -39.89764,-3.77918 -62.4587,-7.87543 -60.44414,-10.97441 -71.20193,-11.42394 -91.741571,-3.83349 -4.434467,1.63876 -6.691146,3.55712 -8.610734,7.31982 -4.158264,8.15087 -5.495883,8.74735 -16.295405,7.26651 -5.231064,-0.71729 -11.463704,-1.01133 -13.850314,-0.65341 -4.258312,0.63862 -4.353985,0.82393 -5.126756,9.93024 -0.433107,5.10372 -1.213604,10.37728 -1.734438,11.71902 -0.801814,2.06559 -0.12213,2.43953 4.434184,2.43953 7.555379,0 22.539368,4.53199 32.45162,9.81517 4.617177,2.46093 13.900306,8.89971 20.629175,14.30839 12.600589,10.1284 38.931339,25.93171 49.303579,29.59127 3.22955,1.13944 12.83383,2.73554 21.34284,3.54687 8.509,0.81133 20.17572,2.30622 25.92605,3.32197 14.12324,2.49477 44.98483,2.54228 62.03386,0.0955 z M 82.468707,150.15112 c -0.505379,-0.81772 -2.450121,-1.48677 -4.321649,-1.48677 -1.871528,0 -3.402777,-0.58352 -3.402777,-1.2967 0,-0.79046 1.706652,-0.80725 4.371381,-0.0431 4.869324,1.3965 6.236767,2.3484 5.061671,3.52349 -0.434366,0.43436 -1.203248,0.12072 -1.708626,-0.69701 z m -13.300503,-4.23106 c 0,-0.74264 0.940963,-0.98918 2.091029,-0.54786 1.150066,0.44133 2.091029,1.04894 2.091029,1.35027 0,0.30132 -0.940963,0.54786 -2.091029,0.54786 -1.150066,0 -2.091029,-0.60762 -2.091029,-1.35027 z m -8.01561,-2.3987 c 1.341743,-0.35063 3.537323,-0.35063 4.879067,0 1.341743,0.35063 0.243953,0.63752 -2.439534,0.63752 -2.683487,0 -3.781277,-0.28689 -2.439533,-0.63752 z m -12.197668,-1.8271 c 0.473854,-0.76671 1.451837,-1.39402 2.1733,-1.39402 0.721462,0 1.311748,0.62731 1.311748,1.39402 0,0.76671 -0.977985,1.39402 -2.1733,1.39402 -1.195314,0 -1.785602,-0.62731 -1.311748,-1.39402 z m -3.94697,-4.53056 c 0.474319,-2.49181 1.104102,-4.8101 1.399518,-5.15176 1.064538,-1.23115 4.638481,-1.19453 4.638481,0.0475 0,0.69888 -0.664331,1.27068 -1.47629,1.27068 -0.811959,0 -1.096604,0.61434 -0.632545,1.3652 1.019179,1.64906 -1.641972,6.9989 -3.481439,6.9989 -0.725641,0 -0.925383,-2.0212 -0.447725,-4.53056 z m 302.964084,-2.35112 c 0,-0.90584 -0.62731,-1.25928 -1.39402,-0.78543 -0.76671,0.47386 -1.39402,0.53295 -1.39402,0.13132 0,-0.40163 1.21655,-1.38131 2.70344,-2.17707 3.34014,-1.78759 5.03283,0.37149 2.16028,2.7555 -1.55362,1.28939 -2.07568,1.30843 -2.07568,0.0757 z m -13.94019,-1.33329 c 0,-0.68469 1.02969,-1.64001 2.2882,-2.12294 1.91326,-0.73419 1.9995,-0.5302 0.52633,1.24487 -2.00757,2.41896 -2.81453,2.67072 -2.81453,0.87807 z M 45.469878,126.36005 c 0.820662,-1.53342 2.174161,-2.78804 3.007775,-2.78804 0.983751,0 0.897341,0.74503 -0.246222,2.12294 -1.489402,1.79461 -1.372637,1.97358 0.755001,1.15712 1.731882,-0.66459 2.202507,-0.45715 1.508924,0.6651 -0.554379,0.89701 -2.247629,1.63091 -3.762777,1.63091 -2.322839,0 -2.52084,-0.43717 -1.262701,-2.78803 z m 276.015802,-0.54787 c 0,-0.30133 0.97354,-0.92144 2.16343,-1.37805 1.24057,-0.47605 1.80013,-0.24235 1.31175,0.54786 -0.81866,1.32461 -3.47518,1.95922 -3.47518,0.83019 z m -174.62994,79.16474 c -0.46324,-0.46322 -1.66558,-0.51274 -2.67188,-0.10999 -1.11205,0.445 -0.78174,0.77532 0.84223,0.84221 1.46952,0.0605 2.29287,-0.26895 1.82965,-0.73217 z m -8.0249,-2.91054 c -1.8957,-1.2973 -3.9076,-3.0224 -4.47089,-3.83355 -0.62891,-0.90564 -1.02416,-0.93682 -1.02416,-0.0809 0,2.09 1.78929,4.36241 4.13936,5.257 4.13252,1.57311 4.73887,0.97259 1.35569,-1.34265 z m -44.337357,-5.82472 c 7.800867,-3.36745 11.059397,-7.01062 9.975997,-11.15355 -0.62666,-2.39636 -1.13458,-2.73448 -2.01687,-1.34261 -0.87271,1.37676 -1.19037,1.13561 -1.22196,-0.92768 -0.0354,-2.3126 -0.27313,-2.43146 -1.394024,-0.69701 -1.02825,1.5911 -1.35643,1.02752 -1.37267,-2.35725 -0.0117,-2.44656 -0.55804,-4.78 -1.21399,-5.18539 -0.655957,-0.40541 -0.966727,0.96902 -0.690604,3.05426 l 0.502044,3.79137 -1.516597,-3.83355 c -0.834128,-2.10845 -2.091629,-3.83355 -2.794447,-3.83355 -0.702818,0 -1.287457,-1.09779 -1.299198,-2.43953 -0.01825,-2.08483 -0.21783,-2.1355 -1.372672,-0.34851 -1.092736,1.69089 -1.355412,1.49082 -1.372673,-1.04551 -0.01171,-1.7251 -0.605025,-3.13655 -1.31841,-3.13655 -0.713385,0 -1.56892,1.41145 -1.901189,3.13655 -0.436875,2.2682 -0.65668,1.88228 -0.793965,-1.39402 -0.104412,-2.49181 -0.854171,-4.53057 -1.66613,-4.53057 -0.811959,0 -1.088592,0.62731 -0.614739,1.39402 0.473854,0.76671 0.197221,1.39402 -0.614738,1.39402 -0.811959,0 -1.485897,-1.41144 -1.497637,-3.13654 -0.01531,-2.24965 -0.35463,-2.61078 -1.200022,-1.27713 -0.942137,1.48625 -1.355511,1.39858 -2.059838,-0.43687 -0.497759,-1.29714 -1.584008,-1.86188 -2.496502,-1.29793 -0.892301,0.55147 -2.458161,-0.15428 -3.498275,-1.57672 -1.64695,-2.25235 -1.788223,-1.71123 -1.127246,4.31758 3.392916,30.94703 4.077211,33.46968 9.354658,34.48585 6.404029,1.23308 9.327074,0.92138 15.221697,-1.62318 z M 329.84979,176.54474 c 0,-0.76671 -0.27663,-1.39402 -0.61473,-1.39402 -0.33811,0 -1.00244,0.62731 -1.4763,1.39402 -0.47385,0.76671 -0.19722,1.39402 0.61474,1.39402 0.81196,0 1.47629,-0.62731 1.47629,-1.39402 z m 38.33553,-9.75814 c 0.51272,-0.82961 -1.14721,-1.39402 -4.09978,-1.39402 -2.72874,0 -4.96134,0.62731 -4.96134,1.39402 0,0.76671 1.8449,1.39402 4.09978,1.39402 2.25488,0 4.48749,-0.62731 4.96134,-1.39402 z m 22.30431,-7.1503 c 46.43072,-3.49646 62.57877,-7.03104 65.95275,-14.4361 2.45992,-5.39896 4.35979,-18.64396 4.90198,-34.17436 0.55974,-16.03321 -0.65254,-22.80788 -4.90576,-27.415144 -4.94438,-5.355953 -34.58354,-11.623257 -34.58354,-7.312809 0,0.982057 -1.85572,1.20303 -5.26534,0.626978 -2.89592,-0.489264 -6.8166,-0.270512 -8.71262,0.486117 -2.94114,1.173709 -2.36067,1.388662 3.9536,1.464051 4.63873,0.05538 7.07407,0.617118 6.52526,1.505119 -0.48158,0.779217 -1.50411,1.028324 -2.27228,0.55357 -2.05704,-1.271324 -13.74489,0.754666 -13.74489,2.382561 0,0.862188 2.39324,1.03513 6.27309,0.453311 4.24233,-0.636176 6.27308,-0.438189 6.27308,0.611594 0,0.952232 -2.96385,1.552302 -7.6671,1.552302 -10.2051,0 -9.89273,2.71969 0.3485,3.0342 l 8.01561,0.24617 -9.43083,0.79935 c -5.18695,0.43964 -9.43192,1.42666 -9.43324,2.19337 -10e-4,0.76671 3.92887,1.75622 8.73381,2.19892 l 8.73624,0.80491 -10.6545,0.24061 c -8.28728,0.18715 -10.84293,0.73164 -11.50258,2.45067 -0.73107,1.9051 0.40291,2.14554 8.2179,1.74252 4.98628,-0.25715 9.06465,0.003 9.06304,0.57798 -10e-4,0.57503 -3.60995,1.05408 -8.01853,1.06455 -9.59578,0.0228 -13.85402,1.01953 -14.7914,3.46231 -0.53841,1.40308 1.25073,1.68241 7.91919,1.23638 6.08475,-0.40699 7.79594,-0.18964 5.82669,0.7401 -2.47732,1.16962 -2.33492,1.32723 1.27786,1.41429 6.77659,0.1633 3.16417,1.50836 -6.30602,2.34801 -9.74335,0.86386 -19.36717,2.96949 -19.36717,4.23741 0,0.80437 12.49097,-0.32613 20.03918,-1.81367 2.49731,-0.49215 3.68315,-0.26432 3.1462,0.60448 -0.47397,0.76688 -6.51622,1.84186 -13.42725,2.38885 -6.91103,0.54699 -12.84168,1.44139 -13.17922,1.98755 -0.33755,0.54617 1.07824,0.81666 3.1462,0.6011 11.28008,-1.17578 18.39714,-1.37046 18.39714,-0.50324 0,0.53853 -6.07573,1.37824 -13.50162,1.86602 -7.42589,0.4878 -14.16946,1.59359 -14.98571,2.45734 -1.43792,1.52158 8.94859,1.06231 22.91125,-1.01309 3.3665,-0.50038 4.28265,-0.30851 2.95519,0.61894 -1.05813,0.73929 -8.38386,1.78449 -16.27942,2.32265 -10.43323,0.71113 -14.56328,1.51973 -15.11574,2.95943 -0.55354,1.44252 0.0823,1.80751 2.33925,1.34282 8.38987,-1.7274 16.57355,-2.29184 15.83198,-1.09196 -0.44458,0.71934 -4.93786,1.63936 -9.98508,2.04451 -8.50989,0.68309 -11.72511,1.62018 -10.29844,3.00154 0.31947,0.30932 4.81518,0.11989 9.99048,-0.42085 5.17529,-0.54078 9.40963,-0.48021 9.40963,0.13466 0,0.61482 -2.97972,1.1804 -6.6216,1.25682 -7.97826,0.16742 -13.20756,1.4967 -13.88518,3.52959 -0.34994,1.04982 1.87295,1.12847 7.39937,0.26185 10.83083,-1.69845 11.1572,-0.43937 0.37827,1.4593 -12.04629,2.12191 -13.48191,4.26332 -2.4178,3.6065 l 8.87385,-0.52682 -9.64925,1.6899 c -5.30709,0.92944 -9.88083,2.39451 -10.1639,3.25571 -0.36577,1.11283 1.21586,1.23121 5.46719,0.40921 3.29001,-0.63613 8.17742,-1.11116 10.86091,-1.05561 5.39375,0.11166 4.98904,0.22325 -9.12118,2.51506 -7.05988,1.14668 -10.29416,2.35686 -11.51246,4.30768 -1.52559,2.44285 -1.31141,2.71086 2.15108,2.69164 2.67445,-0.0148 3.27196,-0.38471 1.96228,-1.21467 -1.27114,-0.80552 0.25909,-1.51454 4.70878,-2.18182 3.62553,-0.54368 7.45264,-1.31881 8.50468,-1.72252 1.05204,-0.40371 1.9128,-0.0396 1.9128,0.80915 0,0.84875 -2.35241,1.61738 -5.22757,1.70809 -5.20277,0.16416 -5.20774,0.16999 -1.04551,1.22909 5.19283,1.32135 4.79332,1.48014 -5.57608,2.21628 -4.60026,0.32659 -9.14825,0.88281 -10.10664,1.23604 -8.53474,3.14564 16.46692,4.19399 46.35114,1.94355 z m -35.94829,-36.28225 c 17.79626,-6.63066 30.80721,-18.72261 44.01447,-40.905608 15.57199,-26.154814 18.34659,-32.974463 21.05183,-51.742797 l 0.82737,-5.740164 -6.33011,-2.41749 c -16.13328,-6.161356 -24.88398,-3.96586 -34.05143,8.543281 -9.65633,13.176239 -17.59479,27.928485 -22.03077,40.940321 -6.18327,18.137097 -11.19799,27.204367 -19.26522,34.834007 -5.74496,5.43335 -8.35276,6.9528 -11.96078,6.96901 l -4.61401,0.0207 5.57607,4.72142 c 3.06685,2.59678 6.04656,4.43235 6.6216,4.07905 0.57503,-0.35331 1.04551,-0.0217 1.04551,0.73695 0,1.30038 3.26868,2.34867 8.66033,2.77743 1.31298,0.10441 6.0178,-1.16286 10.45514,-2.81616 z m -11.44836,-13.65257 c 1.53342,-0.63119 4.93822,-4.03475 7.56623,-7.56345 2.628,-3.5287 5.0485,-6.14551 5.37888,-5.81514 1.17548,1.17548 -11.32982,14.70138 -13.51184,14.61458 -1.63057,-0.0649 -1.47985,-0.39356 0.56673,-1.23599 z m 13.75894,-18.39717 c 1.94599,-1.13059 2.16328,-1.78859 0.85718,-2.59581 -1.27659,-0.78897 -0.94492,-1.51197 1.22676,-2.67422 1.9552,-1.04638 2.97637,-1.09779 2.97637,-0.14984 0,0.79369 -0.66433,1.44307 -1.47629,1.44307 -0.81196,0 -1.04524,0.69744 -0.51841,1.54987 0.96242,1.55723 -1.67699,4.00174 -4.27838,3.96247 -0.76671,-0.0116 -0.22097,-0.70257 1.21277,-1.53554 z m 1.90053,-8.331839 c 0.94562,-0.952698 2.07046,-1.381015 2.49966,-0.951814 0.42921,0.4292 -0.34448,1.208681 -1.71929,1.732179 -1.98675,0.756513 -2.14687,0.59639 -0.78037,-0.780365 z m 5.68644,-7.749389 c 1.0063,-0.402692 2.20866,-0.353167 2.67188,0.110057 0.46322,0.463222 -0.36013,0.792697 -1.82965,0.732167 -1.62396,-0.06688 -1.95428,-0.397213 -0.84223,-0.84222 z m 0.26138,-3.031592 c 0,-1.43272 4.22232,-3.410648 5.19798,-2.434978 0.33929,0.339283 -0.69146,1.317083 -2.29054,2.172888 -1.60011,0.856348 -2.90744,0.974197 -2.90744,0.26209 z m 4.18206,-6.322133 c 0,-0.301326 0.94096,-0.908947 2.09103,-1.350268 1.15006,-0.441323 2.09103,-0.194784 2.09103,0.547864 0,0.742647 -0.94097,1.350268 -2.09103,1.350268 -1.15007,0 -2.09103,-0.246539 -2.09103,-0.547864 z M 367.60447,63.121 c 0.31947,-0.279501 2.14912,-1.25507 4.0659,-2.167932 3.28608,-1.564989 3.33056,-1.535975 0.77907,0.508184 -2.22067,1.779124 -6.75801,3.33349 -4.84497,1.659748 z m 3.28682,-7.203257 c 1.48829,-1.125683 3.68387,-2.024465 4.87907,-1.997297 1.39289,0.03166 0.92187,0.764665 -1.31195,2.041631 -4.56129,2.607466 -7.03251,2.576752 -3.56712,-0.04433 z m 4.96114,-4.871949 c 0,-1.211878 5.41138,-3.380184 6.27658,-2.514986 0.26972,0.269722 -1.03217,1.208941 -2.89309,2.087156 -1.86092,0.878214 -3.38349,1.070738 -3.38349,0.42783 z m 2.78803,-5.53886 c 2.73001,-1.764267 4.57543,-1.764267 3.48505,0 -0.47385,0.76671 -1.92232,1.384413 -3.21882,1.372672 -2.03146,-0.0184 -2.06826,-0.20811 -0.26623,-1.372672 z m 2.78804,-8.364116 c 0.82066,-1.533421 2.76168,-2.788038 4.31338,-2.788038 1.6459,0 2.43786,0.620351 1.90098,1.489055 -0.50617,0.818979 -1.95462,1.131095 -3.21882,0.693589 -1.6952,-0.586666 -1.58825,-0.245699 0.40745,1.298983 2.60047,2.01279 2.55778,2.09445 -1.09456,2.09445 -3.36856,0 -3.63095,-0.316893 -2.30843,-2.788039 z m 4.87907,-6.970095 c 1.53342,-0.658934 4.04266,-1.198061 5.57608,-1.198061 2.78804,0 2.78804,0 0,1.198061 -1.53342,0.658933 -4.04266,1.19806 -5.57608,1.19806 -2.78804,0 -2.78804,0 0,-1.19806 z m 0.69691,-4.530563 c 6e-5,-0.575033 2.30023,-1.045514 5.11151,-1.045514 2.81126,0 4.69673,0.414663 4.18992,0.921476 -1.29031,1.290314 -9.30155,1.397147 -9.30143,0.12404 z M 72.018017,116.48649 c 0.895949,-1.6741 1.565375,-10.16307 1.58102,-20.04888 C 73.630235,76.719809 71.458562,69.67827 62.477818,60.377743 51.551221,49.062077 40.875239,47.52837 25.953609,55.130691 c -4.983618,2.539071 -9.522,5.333115 -10.085292,6.208987 -3.607461,5.609298 1.421533,33.465812 8.098532,44.859252 5.990413,10.22187 8.089757,10.85892 42.712774,12.96123 2.562208,0.15557 4.286372,-0.70795 5.338394,-2.67367 z m -24.814301,-4.99276 c -1.927412,-0.77706 -0.999533,-3.25593 1.218742,-3.25593 0.766711,0 0.940436,0.73391 0.386057,1.63091 -0.683863,1.10652 -0.238805,1.33577 1.384151,0.71298 1.420893,-0.54525 2.046321,-0.35844 1.54043,0.46011 -0.913216,1.47762 -1.772576,1.56336 -4.52938,0.45193 z m 8.024296,0.3917 c 0,-0.29393 1.254618,-0.86251 2.788039,-1.26351 1.533421,-0.401 2.788038,-0.16051 2.788038,0.53442 0,0.69493 -1.254617,1.26351 -2.788038,1.26351 -1.533421,0 -2.788039,-0.24049 -2.788039,-0.53442 z m -17.42524,-5.04165 c 1.387727,-1.53342 2.744886,-2.78804 3.015907,-2.78804 0.271022,0 -0.290755,1.25462 -1.248392,2.78804 -0.957637,1.53342 -2.314795,2.78804 -3.015906,2.78804 -0.701112,0 -0.139332,-1.25462 1.248391,-2.78804 z m 4.182058,1.39402 c 0.473854,-0.76671 1.48886,-1.39402 2.25557,-1.39402 0.766711,0 1.006322,0.62731 0.532468,1.39402 -0.473853,0.76671 -1.48886,1.39402 -2.25557,1.39402 -0.766711,0 -1.006322,-0.62731 -0.532468,-1.39402 z m -5.576077,-4.18206 c 1.387727,-1.53342 2.836794,-2.78804 3.22015,-2.78804 0.383355,0 -0.438404,1.25462 -1.826131,2.78804 -1.387726,1.53342 -2.836794,2.78804 -3.220149,2.78804 -0.383355,0 0.438404,-1.25462 1.82613,-2.78804 z m -6.273086,-0.4362 c 0,-0.23991 1.988881,-2.27867 4.419734,-4.53056 l 4.419735,-4.09437 -3.120641,4.53057 c -2.561391,3.71864 -5.718828,5.97919 -5.718828,4.09436 z m -1.914122,-3.00718 c 0.644088,-1.67847 0.471295,-2.26707 -0.490946,-1.67238 -3.067313,1.89571 -3.216472,-3.71728 -0.184546,-6.94462 3.539086,-3.76718 4.160798,-3.49921 4.809592,2.07308 0.319028,2.74001 -0.439527,4.89097 -2.327355,6.59943 -2.710478,2.45295 -2.768645,2.45116 -1.806745,-0.0555 z m 1.217112,-6.31475 c 1.387727,-1.53343 2.209486,-2.78804 1.826131,-2.78804 -0.383356,0 -1.832423,1.25461 -3.22015,2.78804 -1.387726,1.53342 -2.209485,2.78803 -1.82613,2.78803 0.383355,0 1.832423,-1.25461 3.220149,-2.78803 z m 4.182058,0 c 0.473853,-0.76672 1.138183,-1.39402 1.47629,-1.39402 0.338107,0 0.614739,0.6273 0.614739,1.39402 0,0.76671 -0.664331,1.39401 -1.47629,1.39401 -0.811959,0 -1.088593,-0.6273 -0.614739,-1.39401 z M 22.558391,90.54397 c -0.571363,-1.48895 0.309571,-3.5525 2.415668,-5.65859 l 3.314992,-3.314997 -0.237744,3.227067 c -0.130759,1.77489 -0.917613,3.22707 -1.748563,3.22707 -0.83095,0 -2.033574,0.57105 -2.6725,1.26901 -0.674933,0.73729 -0.431558,0.84884 0.580841,0.26623 1.960209,-1.12805 2.44037,1.35397 0.494577,2.55654 -0.686371,0.4242 -1.652643,-0.28335 -2.147271,-1.57233 z m -0.786839,-6.724192 c 0,-0.633493 1.09779,-2.396098 2.439533,-3.9169 2.423625,-2.747064 2.412261,-2.748241 -1.742524,-0.180481 l -4.182057,2.584613 3.37954,-3.762837 c 1.858748,-2.06956 3.764007,-3.762836 4.23391,-3.762836 2.042415,0 1.01716,5.533575 -1.436707,7.754295 -1.480433,1.339773 -2.691695,1.917638 -2.691695,1.284146 z M 20.377533,73.387317 c 1.916776,-1.499324 4.112356,-2.726043 4.879067,-2.726043 0.76671,0 -0.174253,1.226719 -2.091029,2.726043 -1.916776,1.499325 -4.112357,2.726044 -4.879067,2.726044 -0.766711,0 0.174252,-1.226719 2.091029,-2.726044 z M 21.074542,68.2897 c 2.750559,-2.191054 2.745874,-2.210952 -0.348505,-1.480192 -1.725098,0.407394 -3.136543,0.172138 -3.136543,-0.522795 0,-0.694931 0.576003,-1.263511 1.280007,-1.263511 0.704002,0 2.167722,-0.340649 3.252711,-0.756998 2.36508,-0.907567 2.790736,3.723794 0.484003,5.266214 -2.983285,1.994804 -4.27761,0.944656 -1.531673,-1.242718 z m -1.394019,-6.054536 c 0.473854,-0.766711 1.922319,-1.384413 3.218814,-1.372673 2.031469,0.0184 2.068264,0.208111 0.266234,1.372673 -2.730008,1.764266 -4.575425,1.764266 -3.485048,0 z M 286.97162,115.18015 c 14.76582,-1.54868 28.72888,-3.07373 31.02901,-3.389 2.30013,-0.31527 5.93403,-0.61644 8.07533,-0.66927 5.02101,-0.12387 15.9502,-10.20712 20.8436,-19.23025 1.98505,-3.66033 5.62558,-12.590195 8.09005,-19.844137 5.2689,-15.508534 17.64383,-37.999283 26.19957,-47.616273 l 6.05377,-6.80467 -10.41365,0 c -6.93599,0 -10.9247,0.615815 -11.94404,1.844032 -0.84172,1.014219 -5.23752,10.384952 -9.76842,20.823855 -9.8966,22.801099 -17.15856,32.612787 -31.97679,43.204109 -14.77192,10.558214 -16.4732,11.278824 -38.61588,16.356414 -32.18081,7.37946 -65.63615,7.16509 -100.19601,-0.64202 -16.12692,-3.64309 -28.45989,-7.96377 -65.69227,-23.014377 -9.96724,-4.029097 -21.572452,-8.2891 -25.78936,-9.466672 -7.850933,-2.192376 -17.94095,-2.447596 -19.885557,-0.502989 -0.598794,0.598794 -0.03718,3.552188 1.248028,6.563099 1.540421,3.608804 2.498649,10.462499 2.811839,20.111589 0.261302,8.05046 0.79543,14.48754 1.186951,14.30462 11.36262,-5.30859 28.876539,-9.16079 36.943049,-8.12566 22.64521,2.90593 48.61229,6.89324 59.94282,9.20438 15.86167,3.23538 62.99225,8.8497 79.79552,9.50546 2.86852,0.11196 17.29662,-1.06356 32.06244,-2.61224 z M 83.108396,98.12683 c 0,-2.33905 15.17081,-4.55024 17.212304,-2.50874 0.6574,0.65739 -0.27653,1.19398 -2.086544,1.19881 -4.058401,0.0109 -9.464068,1.00988 -12.686226,2.34457 -1.673992,0.6934 -2.439534,0.36872 -2.439534,-1.03464 z m 1.045514,-7.5405 c 0.958389,-0.38671 2.52666,-0.38671 3.485048,0 0.958389,0.38672 0.174253,0.70313 -1.742524,0.70313 -1.916776,0 -2.700912,-0.31641 -1.742524,-0.70313 z m 0.348505,-3.25882 c 1.150066,-0.74323 2.718338,-1.35133 3.485048,-1.35133 0.766711,0 0.453056,0.6081 -0.697009,1.35133 -1.150066,0.74323 -2.718338,1.35133 -3.485048,1.35133 -0.766711,0 -0.453057,-0.6081 0.697009,-1.35133 z m -1.394019,-2.788039 c 1.150066,-0.74323 3.031992,-1.351326 4.182058,-1.351326 1.858691,0 1.858691,0.150147 0,1.351326 -1.150066,0.743229 -3.031992,1.351329 -4.182058,1.351329 -1.858692,0 -1.858692,-0.15015 0,-1.351329 z m -1.598599,-2.632102 c 1.499343,-0.950091 1.547681,-1.828386 0.235562,-4.280103 -0.907989,-1.696594 -1.309897,-3.425708 -0.893129,-3.842475 0.416769,-0.416768 1.509249,0.891576 2.427733,2.907431 0.918486,2.015855 2.353417,3.674797 3.188737,3.686538 0.83532,0.01171 0.5778,0.629443 -0.572266,1.372672 -1.150065,0.74323 -3.031991,1.351326 -4.182057,1.351326 -1.699644,0 -1.737936,-0.223744 -0.20458,-1.195389 z m 0.20458,-9.514294 c -4.276528,-1.583242 -5.868421,-3.536989 -3.899537,-4.785941 0.99468,-0.630971 2.669454,-1.156826 3.721723,-1.168566 1.542729,-0.01722 1.577161,0.383571 0.177814,2.069682 -1.421302,1.712564 -1.32604,2.091029 0.526319,2.091029 1.243946,0 2.261719,0.627309 2.261719,1.394019 0,0.766711 -0.156827,1.344495 -0.348505,1.283966 -0.191677,-0.06053 -1.289467,-0.458415 -2.439533,-0.884189 z M 396.76271,108.2378 c 0,-1.57625 -4.26058,-1.57625 -10.45514,0 -3.57471,0.90961 -3.11919,1.0881 3.13654,1.22908 4.05968,0.0915 7.3186,-0.45581 7.3186,-1.22908 z m 74.25805,-19.03664 c -0.94379,-0.38186 -2.82571,-0.4051 -4.18205,-0.0516 -1.35634,0.35345 -0.58414,0.66587 1.71599,0.69428 2.30013,0.0284 3.40986,-0.26077 2.46606,-0.64263 z M 418.37001,74.781337 c -0.47385,-0.766711 -2.86329,-1.311439 -5.30985,-1.21051 l -4.44828,0.18351 4.87906,1.027 c 2.68349,0.564849 5.07292,1.109577 5.30985,1.210509 0.23693,0.100929 0.0431,-0.443799 -0.43078,-1.210509 z M 48.218792,37.721279 C 46.055847,31.167492 34.903288,7.8221335 32.46365,4.7414585 c -1.827579,-2.307795 -2.54764,-2.297285 -14.323817,0.209064 -6.819725,1.451455 -11.1818155,2.70176 -9.6935303,2.778452 2.6786173,0.138035 2.6786173,0.160662 0,2.238598 -2.5138094,1.9500885 -2.4189966,1.9964325 1.335124,0.6526045 3.5805453,-1.2816935 3.8361003,-1.1995465 2.2423583,0.720795 -1.537336,1.852377 -1.415558,2.044877 0.837971,1.324622 2.454238,-0.784402 2.443765,-0.683778 -0.151329,1.45403 -2.700208,2.224399 -2.660723,2.265495 1.253437,1.304512 2.878724,-0.706769 3.757451,-0.532682 3.054272,0.605087 -0.542962,0.87853 -0.322872,1.597327 0.489087,1.597327 0.811959,0 1.47629,0.664331 1.47629,1.47629 0,0.811959 -0.784135,1.102233 -1.742524,0.645053 -0.958388,-0.457181 -0.727586,-0.07919 0.512892,0.839975 2.02307,1.499048 1.879463,2.023403 -1.394019,5.089969 l -3.649435,3.418757 4.065927,-2.434367 c 3.884829,-2.325941 4.148214,-2.321835 5.91338,0.09217 1.566466,2.14227 1.478117,2.948836 -0.58088,5.303086 -1.335582,1.5271 -1.614155,2.299471 -0.619052,1.716382 0.995104,-0.583087 2.835218,-0.666472 4.089142,-0.185296 1.819736,0.698298 1.243576,1.612195 -2.854793,4.528228 -6.341323,4.511917 -6.80735,6.974998 -0.604094,3.1928 5.662335,-3.452394 6.594361,-3.462613 5.940066,-0.06513 -0.386202,2.005388 0.05541,2.48627 1.702743,1.854132 1.476355,-0.56653 1.885281,-0.305143 1.216222,0.777417 -1.234655,1.997713 -0.103437,2.079043 3.333472,0.239663 1.903002,-1.018457 3.155819,-0.835022 4.675403,0.684562 1.471778,1.471778 2.235238,1.597561 2.62367,0.432263 0.383739,-1.151216 1.565662,-0.926355 3.945572,0.750649 3.267854,2.302692 3.414869,2.28514 3.846351,-0.459218 0.246747,-1.569383 -0.286397,-5.080577 -1.184764,-7.802656 z M 20.992476,30.825398 c 1.488284,-1.125683 2.078663,-2.046695 1.311952,-2.046695 -0.76671,0 -2.611706,0.921012 -4.09999,2.046695 -1.488286,1.125682 -2.078664,2.046694 -1.311953,2.046694 0.76671,0 2.611706,-0.921012 4.099991,-2.046694 z M 93.653818,406.70397 c -0.424202,-0.68636 0.255871,-1.6421 1.511271,-2.12383 2.713937,-1.04145 3.915717,-0.18265 2.637827,1.88502 -1.120339,1.81274 -3.105729,1.92702 -4.149098,0.23881 z m -2.442686,-3.88637 c 1.006308,-0.40269 2.20865,-0.35318 2.671871,0.10998 0.46322,0.46322 -0.360123,0.7927 -1.82965,0.73217 -1.623953,-0.0669 -1.954276,-0.39721 -0.842221,-0.84221 z m -2.526659,-3.18605 c 0,-0.74263 0.940963,-0.98918 2.091028,-0.54786 1.150066,0.44133 2.091029,1.04894 2.091029,1.35027 0,0.30132 -0.940963,0.54787 -2.091029,0.54787 -1.150065,0 -2.091028,-0.60763 -2.091028,-1.35028 z m 0,-6.97009 c 0,-0.74264 0.940963,-0.98919 2.091028,-0.54787 1.150066,0.44133 2.091029,1.04895 2.091029,1.35028 0,0.30131 -0.940963,0.54786 -2.091029,0.54786 -1.150065,0 -2.091028,-0.60762 -2.091028,-1.35027 z m -0.69701,-8.40786 c -0.473853,-0.76671 0.07942,-1.39402 1.229478,-1.39402 1.150065,0 2.478726,0.62731 2.95258,1.39402 0.473853,0.76671 -0.07942,1.39401 -1.229478,1.39401 -1.150066,0 -2.478726,-0.6273 -2.95258,-1.39401 z m 0.73738,-4.12761 c -1.12786,-0.71328 -1.754183,-1.59335 -1.391826,-1.95571 0.362356,-0.36235 1.87553,0.23085 3.36261,1.31822 2.974056,2.17469 1.310665,2.71274 -1.970784,0.63749 z m -0.04037,-5.63053 c -1.802031,-1.16456 -1.765236,-1.35427 0.266234,-1.37268 1.296495,-0.0111 2.74496,0.60597 3.218814,1.37268 1.090376,1.76427 -0.75504,1.76427 -3.485048,0 z m 1.394019,-5.57608 c -1.105658,-0.68333 -1.696632,-1.55607 -1.313276,-1.93942 0.383355,-0.38336 1.601637,-0.13787 2.707295,0.54541 1.105658,0.68333 1.696632,1.55607 1.313276,1.93942 -0.383355,0.38336 -1.601637,0.13787 -2.707295,-0.54541 z m -1.964891,-7.66083 c -0.480215,-1.91333 -0.808296,-3.88195 -0.729069,-4.37471 0.07922,-0.49276 -0.693666,-1.42693 -1.717539,-2.07594 -1.493872,-0.94695 -1.448551,-1.18003 0.229441,-1.18003 2.327223,0 7.086162,2.67775 4.879067,2.74534 -0.76671,0.0234 -0.453056,0.65079 0.69701,1.39402 1.739413,1.1241 1.622208,1.3714 -0.69701,1.47065 -2.788038,0.11933 -2.788038,0.11933 0,1.31739 1.878182,0.80708 2.105647,1.237 0.69701,1.31739 -1.858692,0.10608 -1.858692,0.26946 0,1.47065 1.815438,1.17322 1.789424,1.35413 -0.197382,1.37267 -1.287106,0.0125 -2.670447,-1.50081 -3.161528,-3.45743 z m -3.611186,-11.66213 c 0,-2.09773 0.734268,-2.43949 3.833553,-1.78426 l 3.833553,0.81046 -3.485048,0.56395 c -3.239097,0.52415 -3.288288,0.64316 -0.69701,1.68629 2.645822,1.06508 2.628044,1.12733 -0.348505,1.22031 -2.164397,0.0676 -3.136543,-0.70623 -3.136543,-2.49675 z"
     id="path4594"
     inkscape:connector-curvature="0" />
</svg>
