<?xml version="1.0" encoding="UTF-8" standalone="no"?>
<!-- Created with Inkscape (http://www.inkscape.org/) -->

<svg
   xmlns:dc="http://purl.org/dc/elements/1.1/"
   xmlns:cc="http://creativecommons.org/ns#"
   xmlns:rdf="http://www.w3.org/1999/02/22-rdf-syntax-ns#"
   xmlns:svg="http://www.w3.org/2000/svg"
   xmlns="http://www.w3.org/2000/svg"
   xmlns:sodipodi="http://sodipodi.sourceforge.net/DTD/sodipodi-0.dtd"
   xmlns:inkscape="http://www.inkscape.org/namespaces/inkscape"
   id="svg28738"
   version="1.1"
   inkscape:version="0.48.4 r9939"
   width="542.80219"
   height="361.57285"
   sodipodi:docname="Rock.svg">
  <metadata
     id="metadata28744">
    <rdf:RDF>
      <cc:Work
         rdf:about="">
        <dc:format>image/svg+xml</dc:format>
        <dc:type
           rdf:resource="http://purl.org/dc/dcmitype/StillImage" />
        <dc:title />
      </cc:Work>
    </rdf:RDF>
  </metadata>
  <defs
     id="defs28742">
    <filter
       inkscape:collect="always"
       id="filter29276"
       x="-0.39859721"
       width="1.7971944"
       y="-1.2856674"
       height="3.5713348"
       color-interpolation-filters="sRGB">
      <feGaussianBlur
         inkscape:collect="always"
         stdDeviation="11.803379"
         id="feGaussianBlur29278" />
    </filter>
    <filter
       inkscape:collect="always"
       id="filter29280"
       x="-0.25396314"
       width="1.5079263"
       y="-0.71636778"
       height="2.4327357"
       color-interpolation-filters="sRGB">
      <feGaussianBlur
         inkscape:collect="always"
         stdDeviation="24.55609"
         id="feGaussianBlur29282" />
    </filter>
  </defs>
  <sodipodi:namedview
     pagecolor="#ffffff"
     bordercolor="#666666"
     borderopacity="1"
     objecttolerance="10"
     gridtolerance="10"
     guidetolerance="10"
     inkscape:pageopacity="0"
     inkscape:pageshadow="2"
     inkscape:window-width="691"
     inkscape:window-height="727"
     id="namedview28740"
     showgrid="false"
     inkscape:zoom="0.91107989"
     inkscape:cx="279.70117"
     inkscape:cy="164.06825"
     inkscape:window-x="-4"
     inkscape:window-y="22"
     inkscape:window-maximized="0"
     inkscape:current-layer="svg28738"
     fit-margin-top="0"
     fit-margin-left="0"
     fit-margin-right="0"
     fit-margin-bottom="0" />
  <path
     style="fill:#000000"
     d="m 276.46783,273.92287 c -2.58209,-1.44858 -9.34248,-3.58398 -15.02307,-4.7453 -5.68061,-1.16135 -23.5111,-5.84679 -39.62332,-10.41212 -25.43058,-7.20563 -30.44684,-8.08538 -38.02716,-6.66922 -9.96731,1.86208 -21.59937,0.11754 -34.53455,-5.17954 -4.91618,-2.01321 -13.86008,-4.16763 -19.87533,-4.78763 -6.01526,-0.62 -14.44392,-2.91645 -18.73037,-5.10324 -4.28645,-2.18677 -12.954872,-5.45196 -19.263158,-7.25597 -16.353848,-4.67679 -26.686719,-11.75067 -30.981185,-21.20972 -5.575386,-12.28042 -4.741166,-16.59275 5.7351,-29.64642 5.164182,-6.43469 9.389422,-12.41521 9.389422,-13.29004 0,-5.185 8.972925,-19.20042 15.24593,-23.81364 4.034625,-2.9671 10.602101,-10.3684 14.594391,-16.44734 13.58382,-20.68365 33.04053,-36.761251 64.45601,-53.261731 21.03027,-11.045811 22.21393,-11.418088 42.68796,-13.42598 11.58186,-1.135836 27.11703,-3.521564 34.52262,-5.301618 16.7105,-4.016646 21.84923,-3.007324 46.27978,9.09004 10.07951,4.991109 24.56557,11.431634 32.19122,14.312278 28.30511,10.692455 45.04943,20.464447 60.81194,35.489891 15.99596,15.24797 17.84445,16.12417 43.4457,20.59355 26.08695,4.55418 42.52854,16.4175 47.44852,34.23622 2.37948,8.61783 8.28661,16.86995 20.15417,28.1549 9.61173,9.13989 10.07515,10.02099 10.07515,19.15588 0,14.14519 -3.4118,27.56121 -8.13821,32.00144 -2.29271,2.15388 -13.44146,6.92516 -24.77502,10.60283 -23.05972,7.48274 -39.05344,8.69794 -61.60781,4.68097 -7.05817,-1.25707 -15.93118,-1.70964 -19.71778,-1.00568 -3.78659,0.70395 -15.75772,1.97947 -26.6025,2.83449 -12.44292,0.98102 -25.48534,3.40785 -35.35014,6.57765 -18.92427,6.08088 -47.24316,8.05796 -54.78831,3.82505 z m 54.3092,-7.83508 c 25.33916,-7.49915 57.13035,-9.77126 99.83817,-7.13545 21.14921,1.30528 22.27621,1.17448 40.37452,-4.68574 10.23989,-3.31568 20.58157,-6.97299 22.98152,-8.12738 6.23618,-2.99961 9.72059,-12.94586 9.72059,-27.7474 0,-12.64449 -0.10408,-12.91097 -7.29727,-18.69161 -8.45108,-6.79148 -19.81406,-22.57489 -23.00527,-31.95475 -3.8238,-11.23928 -11.94458,-19.63046 -24.55526,-25.37292 -10.40446,-4.73781 -13.92638,-5.36785 -29.64699,-5.30365 -9.81195,0.0401 -21.78519,0.68129 -26.60722,1.42492 -9.45464,1.45805 -10.15994,0.48689 -5.62989,-7.75224 2.55572,-4.64832 6.9824,-5.87704 5.2907,-1.46855 -0.5818,1.51617 -0.0385,3.34175 1.2075,4.05683 1.24594,0.71509 1.63889,0.60864 0.87325,-0.23654 -0.76567,-0.84519 -0.56275,-2.53604 0.45093,-3.75746 1.30779,-1.57581 -2.19108,-6.13241 -12.04798,-15.69013 C 371.4188,102.68339 365.21811,98.476559 349.41041,91.044118 338.72783,86.021402 326.60734,80.830445 322.476,79.508661 318.34465,78.186878 305.80409,72.6135 294.60808,67.123377 c -25.46944,-12.4893 -29.88679,-13.319052 -49.97739,-9.387736 -8.8269,1.727245 -24.07686,3.955474 -33.88881,4.951625 -15.89677,1.613904 -19.96041,2.870692 -37.30831,11.538559 -30.43907,15.208857 -53.655,34.253085 -66.79273,54.790655 -3.67441,5.74403 -9.69707,12.74435 -13.383693,15.55628 -6.580882,5.01948 -15.262782,18.8316 -13.15923,20.93516 0.588468,0.58847 1.069944,0.0841 1.069944,-1.12093 0,-1.20497 0.633786,-2.0162 1.408413,-1.80272 3.826813,1.05459 21.156806,-6.78717 25.869006,-11.70564 6.98975,-7.29573 12.15334,-7.48868 11.22049,-0.41928 -0.3748,2.8403 -0.73967,5.70756 -0.81084,6.37169 -0.0712,0.66411 -1.3339,1.66971 -2.80608,2.23464 -2.90564,1.115 -3.07809,-5.26102 -0.26539,-9.81206 1.2136,-1.96365 0.72003,-2.02851 -2.46495,-0.32397 -2.19031,1.17223 -3.98239,2.9965 -3.98239,4.05395 0,1.05746 1.05632,1.33121 2.34736,0.60835 1.29105,-0.72287 1.07978,-0.037 -0.46947,1.52421 -1.54925,1.56118 -8.77228,5.06889 -16.051172,7.79492 -9.769275,3.65869 -15.48963,7.28693 -21.848071,13.8575 -10.819983,11.18097 -12.599558,14.78002 -11.365196,22.98524 1.931911,12.84205 11.657865,21.48441 29.546654,26.25478 5.164181,1.37712 12.769615,4.21341 16.900955,6.30284 4.13135,2.08942 13.8494,4.85186 21.59568,6.13876 7.74627,1.28688 19.15441,4.18664 25.35143,6.44387 9.13077,3.32585 13.83527,3.91479 24.80973,3.10576 10.33492,-0.7619 16.33935,-0.12826 25.35143,2.67509 6.49496,2.0204 25.24502,6.98054 41.66678,11.02255 16.42177,4.042 30.7617,8.25302 31.86651,9.35783 3.22649,3.22649 34.05145,0.2669 51.73829,-4.96751 z m -64.13264,-67.79082 c -0.60074,-2.29724 -0.32632,-4.17681 0.60983,-4.17681 0.93613,0 1.70208,-1.40841 1.70208,-3.12981 0,-1.72138 0.55603,-2.57377 1.23562,-1.89418 0.67961,0.6796 2.3697,0.29445 3.75577,-0.85589 1.38609,-1.15033 2.52014,-1.46206 2.52014,-0.69272 0,0.76935 1.31425,0.30809 2.92056,-1.02502 2.59622,-2.15467 2.66999,-1.87393 0.66434,2.52799 -1.24092,2.72353 -2.77576,4.63077 -3.41074,4.23833 -1.67369,-1.0344 -6.92165,3.17962 -7.99087,6.41653 -0.64797,1.96159 -1.23278,1.55113 -2.00673,-1.40842 z m 8.1851,-7.4631 c 2.33584,-2.97843 2.26942,-3.04485 -0.70902,-0.70902 -3.12809,2.45322 -4.12285,3.99531 -2.57728,3.99531 0.38995,0 1.86878,-1.47883 3.2863,-3.28629 z m 9.24517,-2.34736 c -0.0451,-3.35424 3.08028,-8.71768 4.34365,-7.45433 0.48806,0.48807 -0.2811,2.99874 -1.70923,5.57927 -1.50539,2.72012 -2.61252,3.50811 -2.63442,1.87506 z m 122.82891,-2.00282 c -1.99043,-3.22059 -0.20795,-3.53661 3.72538,-0.66047 3.0461,2.22736 3.14059,2.66329 0.57736,2.66329 -1.68572,0 -3.62193,-0.90127 -4.30274,-2.00282 z m 13.14519,0 c -2.02111,-3.27023 0.28078,-3.96279 2.85637,-0.85939 1.48119,1.78472 1.62366,2.86221 0.37844,2.86221 -1.09834,0 -2.55401,-0.90127 -3.23481,-2.00282 z m 11.34452,0.12493 c -0.63832,-1.03283 -0.31554,-1.87789 0.7173,-1.87789 1.03284,0 2.40014,0.84506 3.03847,1.87789 0.63834,1.03284 0.31554,1.87789 -0.7173,1.87789 -1.03283,0 -2.40014,-0.84505 -3.03847,-1.87789 z m -135.90707,-3.15803 c 6.08219,-7.45273 11.39475,-11.85989 13.05754,-10.83223 0.983,0.60753 1.29256,1.90503 0.68793,2.88335 -0.60463,0.97832 -1.88598,1.29257 -2.84746,0.69836 -0.96146,-0.59422 -1.74813,-0.18548 -1.74813,0.9083 0,1.0938 -1.69009,3.67881 -3.75576,5.74449 -4.65331,4.65328 -9.10662,5.14677 -5.39412,0.59773 z m 76.75372,0.34121 c -1.32719,-1.59918 -1.99056,-3.33012 -1.47414,-3.84653 0.51642,-0.51642 2.02483,0.36946 3.35203,1.96864 1.32719,1.59917 1.99055,3.33011 1.47413,3.84653 -0.51642,0.51642 -2.02483,-0.36947 -3.35202,-1.96864 z m 9.35175,-0.0453 c -1.30648,-1.57422 -2.01174,-3.22588 -1.56726,-3.67037 0.44449,-0.44449 1.83965,0.8435 3.10035,2.86221 2.72633,4.36555 1.8171,4.84486 -1.53309,0.80816 z m 12.32217,1.37554 c -2.39867,-2.39867 -0.75583,-4.38994 1.84262,-2.23343 2.42688,2.01413 2.66297,1.83573 1.55946,-1.17847 -1.26972,-3.46822 -1.20435,-3.46763 2.77383,0.0254 2.24082,1.96755 4.07421,3.76327 4.07421,3.99051 0,0.89747 -9.29646,0.34964 -10.25012,-0.60404 z m -43.94358,-4.82946 c 1.32543,-2.95743 2.75117,-4.35328 3.16831,-3.10185 0.41715,1.25142 -0.66731,3.67114 -2.40987,5.37717 -2.96589,2.90369 -3.01436,2.75832 -0.75844,-2.27532 z m 14.82419,0.80592 c -2.37904,-4.44525 -2.48948,-6.3159 -0.29274,-4.95825 1.65694,1.02406 4.24098,8.59057 2.93376,8.59057 -0.38338,0 -1.57185,-1.63454 -2.64102,-3.63231 z m -8.31563,-1.21598 c -1.61063,-4.19718 -1.4836,-4.54111 1.67697,-4.54111 1.56489,0 2.81682,1.66923 2.81682,3.75576 0,4.47735 -2.88365,4.98131 -4.49379,0.78536 z m -14.45365,-2.34821 c 1.01279,-1.89242 3.31255,-4.63882 5.11061,-6.10313 2.89198,-2.3552 2.85709,-1.95821 -0.30236,3.44074 -3.70262,6.32712 -8.06115,8.74049 -4.80825,2.66239 z m -153.78915,0.15446 c 0.0157,-0.77464 0.74326,-2.53558 1.61654,-3.91323 1.29423,-2.04168 1.7858,-1.98883 2.65869,0.28589 0.58899,1.53487 0.56574,3.29581 -0.0517,3.91321 -1.57916,1.57916 -4.25796,1.39784 -4.22359,-0.28587 z m 137.68617,-2.81683 c 0.38551,-2.32388 0.33962,-3.16893 -0.10197,-1.87789 -1.43929,4.20818 -4.56939,2.46796 -3.37772,-1.87788 1.011,-3.68694 0.54983,-3.50751 -3.61991,1.40841 -2.62816,3.09851 -4.78268,4.49386 -4.78781,3.10079 -0.009,-2.69586 10.57317,-13.42915 13.24121,-13.42915 3.7598,0 5.15823,6.53593 2.49875,11.67878 -3.26571,6.31519 -4.8007,6.71241 -3.85255,0.99694 z m 8.84613,0.30863 c 1.15285,-2.15412 2.47004,-3.54265 2.92709,-3.08559 1.31433,1.31431 -1.35014,7.0022 -3.28016,7.0022 -0.95928,0 -0.80052,-1.76112 0.35307,-3.91661 z M 178.91246,174.4759 c -2.53005,-1.36659 -5.69898,-2.06302 -7.04206,-1.54762 -2.85076,1.09393 -3.33128,-2.44926 -0.56409,-4.15947 1.03284,-0.63832 1.87789,-2.04938 1.87789,-3.1357 0,-1.0863 -1.66198,0.0199 -3.69329,2.45819 -2.03132,2.4383 -3.72142,3.52428 -3.75578,2.41327 -0.0344,-1.11101 2.18641,-4.06868 4.93505,-6.57259 2.74864,-2.50393 4.42647,-3.55712 3.7285,-2.34043 -1.16082,2.02353 5.25986,5.61449 8.52997,4.77064 2.05384,-0.52999 3.94434,7.31267 2.17887,9.03891 -0.87723,0.85772 -3.665,0.44139 -6.19506,-0.9252 z m 1.78327,-4.56724 c 0,-0.92233 -1.3871,-2.20924 -3.08243,-2.85981 -2.57735,-0.98901 -2.69353,-0.71422 -0.70902,1.67697 2.7044,3.25859 3.79145,3.59772 3.79145,1.18284 z m 14.02586,5.33844 c -1.72477,-2.79072 -0.35306,-3.77868 2.66051,-1.91621 1.61447,0.9978 1.80653,1.96558 0.54484,2.74535 -1.07174,0.66238 -2.51415,0.28926 -3.20535,-0.82914 z M 158.754,166.64363 c 3.83286,-13.62461 3.93156,-13.34134 -2.20401,-6.3253 -3.16127,3.61493 -5.78211,5.68205 -5.82408,4.59362 -0.0812,-2.10602 11.44396,-13.98304 13.5688,-13.98304 0.69304,0 0.8277,1.12674 0.29926,2.50384 -0.53755,1.40084 0.28022,2.50385 1.85635,2.50385 1.60354,0 3.35044,-2.4279 4.05502,-5.63586 0.94094,-4.28406 1.61425,-4.96324 2.80719,-2.83158 2.03103,3.62925 0.10831,10.97129 -2.87313,10.97129 -2.63761,0 -9.77285,7.31179 -8.85114,9.07015 0.33567,0.64037 -0.38679,1.49669 -1.60547,1.90291 -1.37991,0.45997 -1.84346,-0.58494 -1.22879,-2.76988 z m -22.04101,-6.20654 c -3.40675,-1.25829 -3.35437,-1.5105 0.93812,-4.51708 4.05676,-2.84147 4.77259,-2.87498 6.6473,-0.31115 1.87313,2.56165 2.35635,2.56551 4.45601,0.0356 1.29527,-1.5607 3.22759,-2.83764 4.29404,-2.83764 1.06645,0 0.3825,1.71989 -1.51987,3.82199 -1.90238,2.1021 -4.46551,3.43571 -5.69587,2.96358 -1.23036,-0.47214 -2.97377,-0.17536 -3.87426,0.6595 -0.90048,0.83486 -3.26094,0.91821 -5.24547,0.18521 z m 198.73973,-3.5488 c 1.62722,-3.1467 3.87945,-6.29039 5.00494,-6.98597 1.12547,-0.6956 0.71498,1.30985 -0.91224,4.45654 -1.62722,3.1467 -3.87945,6.29038 -5.00494,6.98597 -1.12547,0.6956 -0.71498,-1.30985 0.91224,-4.45654 z m -213.71621,-3.3139 c -0.49854,-1.29917 1.21703,-3.75347 3.81239,-5.45401 4.56261,-2.98953 4.65211,-2.96722 2.70351,0.67377 -3.21301,6.00355 -2.41862,6.41307 4.0878,2.10735 l 6.10313,-4.03883 -5.27198,4.53692 c -5.80848,4.99863 -10.04226,5.80385 -11.43485,2.1748 z m 54.65381,-2.66669 c -0.53714,-2.05405 -0.16082,-3.73464 0.83628,-3.73464 0.9971,0 1.32672,-0.78666 0.7325,-1.74813 -0.59421,-0.96147 -0.22156,-2.27892 0.82812,-2.92765 1.13077,-0.69886 1.90851,1.11627 1.90851,4.45412 0,6.647 -2.90394,9.31548 -4.30541,3.9563 z m 167.68135,3.11817 c 0,-4.44914 5.01006,-12.23073 9.53893,-14.81583 5.69592,-3.25125 5.71907,-3.24635 4.43275,0.93894 -1.78473,5.80693 -2.64014,6.41073 -4.59687,3.24466 -1.30318,-2.10857 -2.35655,-1.13234 -4.61781,4.27962 -2.4583,5.88355 -4.757,8.95329 -4.757,6.35261 z M 184.48026,143.88676 c -0.0157,-3.35672 0.81628,-6.10313 1.84912,-6.10313 2.3853,0 2.3853,5.69845 0,9.38943 -1.38136,2.13751 -1.8273,1.34498 -1.84912,-3.2863 z m 6.29917,-4.69471 c 0.62279,-2.32389 1.19743,-5.49281 1.277,-7.04207 0.0838,-1.62966 0.86077,-1.03519 1.84378,1.41051 1.86615,4.64289 0.61932,9.85679 -2.35711,9.85679 -1.04979,0 -1.39062,-1.88576 -0.76367,-4.22523 z m 172.62234,1.35053 c -1.63077,-1.74576 -1.00119,-2.80671 2.65382,-4.47204 6.06251,-2.76226 6.67781,-2.11105 2.67262,2.82852 -2.47967,3.05818 -3.66365,3.42351 -5.32644,1.64352 z m 12.99506,-5.00338 c 1.50543,-2.26728 3.84476,-4.49154 5.19856,-4.94281 1.53347,-0.51115 1.1189,1.02074 -1.09964,4.06331 -4.31345,5.91557 -7.96264,6.69857 -4.09892,0.8795 z M 200.1324,134.02786 c 0.64283,-2.58209 1.18032,-5.75102 1.19441,-7.04206 0.0141,-1.29105 0.8868,-2.34736 1.93931,-2.34736 2.25809,0 0.3977,9.41631 -2.41158,12.20625 -1.26753,1.2588 -1.50561,0.33017 -0.72214,-2.81683 z m 6.24609,-1.40841 c -1.16135,-1.97237 2.02053,-9.85889 3.97765,-9.85889 0.88723,0 1.24107,2.53514 0.78631,5.63365 -0.78579,5.35393 -2.96261,7.28458 -4.76396,4.22524 z m 56.94416,-1.51924 c 0,-1.61021 -0.83837,-2.40952 -1.86302,-1.77625 -1.02465,0.63327 -3.34853,0.28632 -5.16418,-0.77101 -3.78479,-2.20404 -3.78834,-2.20211 5.61878,-3.05946 3.88018,-0.35363 7.04207,0.20326 7.04207,1.24029 0,1.03515 -0.76624,1.40852 -1.70276,0.82973 -0.93651,-0.5788 -1.26047,0.6389 -0.71993,2.70599 0.54972,2.10215 0.0587,3.75836 -1.11407,3.75836 -1.1533,0 -2.09689,-1.31744 -2.09689,-2.92765 z m 6.57259,1.04977 c -0.63833,-1.03284 -0.26569,-1.87788 0.82811,-1.87788 1.09378,0 1.98871,0.84504 1.98871,1.87788 0,1.03284 -0.37264,1.87788 -0.82811,1.87788 -0.45546,0 -1.35038,-0.84504 -1.98871,-1.87788 z m -44.47195,-4.72125 c -0.57064,-4.57164 -4.09702,-6.71637 -4.58779,-2.79029 -0.12901,1.03284 -0.34036,2.72294 -0.46947,3.75577 -0.12901,1.03284 -1.55924,1.87789 -3.17811,1.87789 -2.19115,0 -2.60637,-1.07982 -1.62478,-4.22524 1.54339,-4.94552 4.57518,-7.34373 7.79431,-6.16541 1.25798,0.46046 2.78669,0.029 3.39713,-0.95867 2.3569,-3.81355 3.85646,-1.50973 3.12052,4.79413 -0.93727,8.0284 -3.63248,10.27561 -4.45181,3.71182 z m 22.65389,2.48472 c -0.12224,-1.352 -0.12224,-3.09197 0,-3.86659 0.36782,-2.32955 -2.08893,-1.59827 -5.74438,1.70988 -1.89513,1.71506 -3.96452,2.59946 -4.59865,1.96533 -2.01778,-2.01779 1.02366,-10.257 4.24222,-11.49208 2.30699,-0.88527 2.62549,-0.57836 1.24667,1.20128 -1.0186,1.31469 -2.43319,4.08044 -3.14356,6.14612 -0.90413,2.62911 0.0439,2.11304 3.16065,-1.72036 3.51914,-4.32848 4.79236,-4.92573 6.07533,-2.84984 2.18586,3.53679 2.48767,9.19913 0.55402,10.39419 -0.86346,0.53364 -1.66999,-0.13593 -1.7923,-1.48793 z m -16.64983,-4.69471 c 0.015,-0.83558 0.84793,-2.78681 1.84915,-4.33606 1.56877,-2.42752 1.82434,-2.37795 1.84913,0.35864 0.015,1.74651 -0.81631,3.69774 -1.84913,4.33607 -1.03284,0.63832 -1.86496,0.47693 -1.84915,-0.35865 z m 172.73662,8.0892 c 0,-0.39595 -1.69127,-1.16219 -3.75836,-1.70275 -2.0671,-0.54056 -3.2848,-0.2166 -2.706,0.71992 1.01077,1.63546 6.46436,2.46462 6.46436,0.98283 z"
     id="path29256"
     inkscape:connector-curvature="0" />
  <path
     style="fill:#000000;fill-opacity:0.53960416;stroke:none"
     d="M 57.736349,193.83988 78.869554,166.1481 c -0.376109,-12.00579 11.718061,-21.93318 22.590666,-32.06418 7.04217,-9.29048 8.65712,-16.54576 22.59068,-28.42052 18.804,-18.570891 42.47547,-30.651843 67.04326,-41.537677 l 72.14439,-10.930967 c 39.09329,12.974475 67.04327,28.177607 100.56491,42.266411 l 39.3515,32.792903 c 18.84579,4.76206 40.79848,8.74739 52.46865,15.30336 8.42463,5.30772 16.46734,10.77913 18.21827,18.94701 4.14978,20.62933 19.83602,31.00404 32.06418,44.45261 0.6462,19.04843 -1.86157,32.69008 -8.01605,40.08021 l -55.38357,16.76081 c -47.19435,-4.87401 -34.54228,-3.17849 -51.37556,-4.37238 -35.74143,1.71829 -70.13909,12.60964 -103.11547,15.30336 l -92.54885,-25.50559 -29.14925,0.72872 -43.72388,-10.93097 -41.537682,-15.30335 C 66.130814,218.04962 58.925043,207.74987 57.736349,193.83988 z"
     id="path29258"
     inkscape:connector-curvature="0"
     sodipodi:nodetypes="cccccccccccccccccccc" />
  <path
     style="fill:#000000;fill-opacity:0.53960416;stroke:none;filter:url(#filter29280)"
     d="m 20.179104,81.58209 30.268657,-15.910448 20.179105,8.149253 30.656714,-24.83582 26,6.597015 30.26866,18.238805 18.2388,-13.970149 18.62687,-4.268656 36.47761,8.925373 21.34329,31.044776 -3.8806,22.895521 -38.41791,7.7612 -71.79105,5.04477 -53.940295,-12.02985 -62.477612,-15.52239 z"
     id="path29260"
     inkscape:connector-curvature="0"
     transform="matrix(1.5511783,0,0,1.4629175,60.116707,83.342996)" />
  <path
     style="fill:#ffffff;fill-opacity:0.53960416;stroke:none;filter:url(#filter29276)"
     d="M 63.386319,20.324962 C 71.397381,31.924934 127.5216,34.423186 134.45583,13.73937 L 116.89425,7.1537789 76.831901,12.641772 z"
     id="path29266"
     inkscape:connector-curvature="0"
     sodipodi:nodetypes="ccccc"
     transform="matrix(1.8778843,0,0,1.8778843,44.472705,39.762943)" />
</svg>
