<?xml version="1.0" encoding="UTF-8" standalone="no"?>
<!-- Created with Inkscape (http://www.inkscape.org/) -->

<svg
   xmlns:dc="http://purl.org/dc/elements/1.1/"
   xmlns:cc="http://creativecommons.org/ns#"
   xmlns:rdf="http://www.w3.org/1999/02/22-rdf-syntax-ns#"
   xmlns:svg="http://www.w3.org/2000/svg"
   xmlns="http://www.w3.org/2000/svg"
   xmlns:sodipodi="http://sodipodi.sourceforge.net/DTD/sodipodi-0.dtd"
   xmlns:inkscape="http://www.inkscape.org/namespaces/inkscape"
   id="svg14352"
   version="1.1"
   inkscape:version="0.48.4 r9939"
   width="493.17743"
   height="325.67242"
   sodipodi:docname="Rope.svg">
  <metadata
     id="metadata14358">
    <rdf:RDF>
      <cc:Work
         rdf:about="">
        <dc:format>image/svg+xml</dc:format>
        <dc:type
           rdf:resource="http://purl.org/dc/dcmitype/StillImage" />
        <dc:title />
      </cc:Work>
    </rdf:RDF>
  </metadata>
  <defs
     id="defs14356" />
  <sodipodi:namedview
     pagecolor="#ffffff"
     bordercolor="#666666"
     borderopacity="1"
     objecttolerance="10"
     gridtolerance="10"
     guidetolerance="10"
     inkscape:pageopacity="0"
     inkscape:pageshadow="2"
     inkscape:window-width="1242"
     inkscape:window-height="725"
     id="namedview14354"
     showgrid="false"
     inkscape:zoom="0.83023485"
     inkscape:cx="163.91174"
     inkscape:cy="285.79685"
     inkscape:window-x="1"
     inkscape:window-y="22"
     inkscape:window-maximized="0"
     inkscape:current-layer="svg14352"
     fit-margin-top="0"
     fit-margin-left="0"
     fit-margin-right="0"
     fit-margin-bottom="0" />
  <path
     style="fill:#a58323;fill-opacity:1;stroke:none"
     d="m 283.30735,1.6134175 c -30.43846,0.162174 -59.42595,3.735963 -87.02653,9.1727565 l -10.20469,7.796843 c -3.23159,-0.715574 -7.42093,4.009876 -9.34475,-3.898421 l -35.14313,14.275103 -3.89842,11.523276 -9.40207,-3.153136 -18.74683,21.097341 c -9.13347,7.052049 -21.604754,11.227996 -21.097339,26.543666 -7.907755,12.499825 -8.294649,24.993814 0,37.493644 l 13.300499,28.95151 -10.147364,11.69527 -16.453633,3.89842 -5.446324,9.40208 -11.580606,7.9115 c -3.923516,8.14997 -4.867061,22.41767 -13.415157,25.28241 L 11.9084,247.04199 c 3.514036,4.87059 14.999028,5.19742 9.344746,15.30704 l -19.5494382,17.14159 2.3505189,10.94998 17.4282383,20.06541 9.918044,3.61177 21.899957,-8.82878 0,19.54944 21.842627,-14.04578 -0.745286,-42.36668 -6.248941,-11.5806 c -1.602113,-9.10637 -4.610747,-16.57765 -16.396303,-14.04579 l 9.344746,-6.24894 24.193147,-13.30049 20.352054,-11.69527 24.99577,-24.25048 c -0.42218,21.20949 4.5051,41.2052 13.1285,66.78914 5.20826,5.39109 10.44276,5.88396 15.65102,5.44633 13.3555,12.85705 17.12599,9.95354 21.15467,10.26202 7.12105,6.9237 15.63625,18.98348 29.86879,10.77799 16.18379,23.13474 30.38138,26.24568 43.62793,20.00807 13.39286,3.64159 17.88315,5.0947 41.73604,11.35129 l 34.05386,1.14659 c 8.95489,2.3603 17.71621,5.54462 28.09157,0.80262 l 11.75259,2.35052 c 13.54149,-1.78783 27.04797,4.79526 40.58945,-5.44632 l 24.99577,-4.70104 c 4.24805,-4.96182 0.45476,-10.55774 13.30049,-14.8484 3.08561,-13.22594 0.78974,-19.95106 -1.83455,-23.10388 8.4525,3.95122 15.63432,-1.0264 21.38399,-15.995 l 1.5479,-16.3963 c 9.23704,0 11.53121,-8.28805 17.31358,-15.13505 l -1.66256,-14.56175 4.12774,-11.92459 -13.52981,-13.07118 4.70103,-13.24316 c -2.71952,-3.17791 -6.90701,-4.91046 -11.06464,-6.65025 l 2.46518,-10.54867 -11.69526,-20.29473 -0.85995,-10.43401 c -7.41777,-5.27219 -5.81054,-11.78729 -2.29319,-18.5175 L 446.23844,71.727678 C 436.31741,62.54433 425.80631,45.777424 416.54164,45.126683 409.06047,36.898083 398.00385,22.440187 389.19536,32.628801 380.3404,26.38217 366.28475,3.9849495 352.50433,17.780401 344.95235,13.613792 338.89719,2.9746855 325.73135,3.6199575 311.32078,2.1631705 297.143,1.5397015 283.30735,1.6134175 z m -122.22699,52.5140335 5.10235,40.64678 C 147.21074,112.47854 155.6163,131.30197 155.63404,149.81077 l -5.44633,3.55444 -3.55444,-20.35205 -11.29396,0.80262 -5.90496,-18.34552 -5.44632,-4.29973 c 2.54434,-14.470519 -4.7438,-26.472 16.79761,-45.691793 6.96809,-2.789224 14.29452,-3.72262 20.29472,-11.351286 z m 69.19699,22.817232 c 3.31859,-0.01339 6.71578,0.944039 10.09003,1.375914 l -5.04502,5.102346 c -1.67566,8.481698 -8.67377,5.251838 -14.44709,-1.949211 2.88232,-3.503569 6.08347,-4.515733 9.40208,-4.529049 z"
     id="path14364"
     inkscape:connector-curvature="0" />
  <path
     style="fill:#000000"
     d="m 52.926362,323.9066 c 0,-1.00901 0.782602,-1.83455 1.739118,-1.83455 1.078863,0 1.051565,-1.97233 -0.07191,-5.19511 -1.202824,-3.45046 -1.186037,-6.83895 0.05008,-10.09003 2.56307,-6.74137 3.34879,-6.14195 3.125232,2.38417 -0.277237,10.57288 2.471893,12.20235 9.309101,5.5177 5.303651,-5.1853 5.782065,-6.73898 6.975129,-22.65221 1.059692,-14.13412 0.751946,-18.108 -1.781643,-23.00744 -2.643662,-5.11227 -3.461174,-5.59157 -5.976546,-3.50399 -2.615171,2.1704 -2.785271,1.56017 -1.658875,-5.95118 1.048832,-6.99408 0.659448,-8.90862 -2.369286,-11.64958 -1.993424,-1.80401 -4.704084,-2.8477 -6.023731,-2.31932 -1.560231,0.62472 -1.276555,1.01137 0.811128,1.10554 3.923408,0.17704 4.263094,4.852 0.458638,6.31192 -4.231008,1.62358 -3.312521,13.40872 2.021455,25.93757 6.718238,15.78033 7.365027,19.38253 2.141087,11.92458 -7.395278,-10.55786 -11.161007,-22.69705 -10.186603,-32.8377 l 0.870036,-9.05476 -6.917342,-1.75581 c -11.347232,-2.88023 -14.338982,3.21098 -6.280751,12.78763 3.640098,4.326 4.191473,6.16833 2.687269,8.97896 -2.135693,3.99057 -4.029721,4.71593 -3.230902,1.23733 0.290354,-1.26436 -1.324546,-4.90036 -3.588676,-8.08004 -4.694177,-6.59235 -5.252394,-12.0724 -1.601637,-15.72316 2.130226,-2.13024 1.833781,-3.30687 -1.93802,-7.69183 l -4.45297,-5.17688 -4.925642,4.35032 c -9.080974,8.0203 -9.541447,10.8425 -2.069612,12.68442 3.459395,0.85279 4.37346,2.1917 4.104992,6.01289 -0.192701,2.74273 0.61828,4.94047 1.834551,4.9716 1.198953,0.0306 0.735215,0.89724 -1.030541,1.92571 -5.277435,3.07383 -3.740833,16.36401 1.891973,16.36401 2.289997,0 2.06332,0.86437 -1.113536,4.24598 -5.477512,5.83054 -4.997354,7.37704 1.282168,4.12978 7.452572,-3.85388 8.592122,-1.36017 1.547756,3.38702 -3.231874,2.17798 -6.156608,5.41622 -6.499375,7.1961 -0.822191,4.26933 4.36981,12.01165 9.418899,14.04544 3.820178,1.53878 3.774479,1.62539 -0.915955,1.73587 -2.71521,0.064 -5.424677,-0.67321 -6.021053,-1.63815 -0.596358,-0.96493 -2.163908,-1.34014 -3.483446,-0.83378 -1.319538,0.50635 -3.454112,-0.35051 -4.743508,-1.90412 -2.297207,-2.76797 -2.007403,-7.4491 0.914396,-14.77045 1.445699,-3.62258 1.41365,-3.62465 -2.52715,-0.16419 -6.4995223,5.70738 -6.7800253,1.76071 -0.39197,-5.51488 4.142985,-4.7186 5.58885,-7.87808 4.855562,-10.61028 -0.574325,-2.13993 -1.089357,-5.54188 -1.144522,-7.55989 -0.08127,-2.97025 -1.495398,-2.12588 -7.424833,4.43306 -5.0416041,5.57688 -6.7335558,8.69317 -5.4284009,9.99831 2.5310571,2.53115 2.4293496,10.33515 -0.1346561,10.33515 -1.1169483,0 -1.5787966,-1.17797 -1.0263214,-2.61771 0.5524751,-1.43972 -0.1847394,-3.60467 -1.6382728,-4.811 -4.1973619,-3.4835 -3.21864704,-5.93418 6.2298609,-15.59961 7.7697483,-7.94812 13.1419743,-15.27747 13.1419743,-17.9296 0,-0.46145 -2.008852,-1.34319 -4.464105,-1.95943 -8.4760503,-2.12735 -7.7253513,-7.76291 2.470132,-18.54312 5.132689,-5.42708 9.332179,-10.99052 9.332179,-12.36322 0,-1.37269 3.714967,-4.84401 8.255481,-7.71405 4.540515,-2.87003 8.255482,-6.23577 8.255482,-7.47941 0,-1.24364 1.146613,-3.21276 2.548008,-4.37581 1.401414,-1.16307 3.490473,-5.85752 4.642369,-10.43214 1.534529,-6.0942 3.540281,-9.14425 7.503627,-11.41049 2.975092,-1.70114 6.365857,-5.39613 7.535053,-8.21108 2.583122,-6.21919 8.292851,-10.4756 14.052388,-10.4756 2.352721,0 6.757479,-2.31757 9.788341,-5.15016 l 5.510681,-5.15017 -4.019631,-10.90216 c -2.210781,-5.99618 -4.795591,-11.88486 -5.743999,-13.08596 -0.948426,-1.20109 -1.457826,-3.75729 -1.132028,-5.68046 0.325816,-1.92316 -0.540954,-4.86225 -1.926169,-6.53132 -4.521875,-5.44852 -4.812248,-18.561089 -0.562125,-25.384159 4.704451,-7.552445 9.075324,-10.282277 21.748995,-13.583345 11.8346,-3.082524 12.13607,-3.104509 10.69962,-0.780279 -0.6154,0.995747 -5.57165,3.10489 -11.01386,4.686989 -17.003029,4.942912 -25.104701,18.150245 -18.476596,30.120534 l 2.4991,4.51332 5.157364,-8.53837 c 3.088871,-5.11386 6.929942,-8.983259 9.576962,-9.647619 6.07479,-1.52468 7.34562,0.40794 2.50006,3.801919 -4.9184,3.44497 -5.25344,11.16526 -1.02337,23.57987 l 2.99371,8.78603 5.26514,-8.45922 c 2.89584,-4.65257 5.88281,-8.45956 6.63771,-8.45998 0.75489,-4.2e-4 1.58776,-5.01215 1.85082,-11.13717 0.4475,-10.419539 0.24084,-11.061049 -3.21047,-9.965649 -2.02881,0.64392 -3.68875,0.34522 -3.68875,-0.66378 0,-1.00901 1.54765,-2.32576 3.43922,-2.92612 1.89157,-0.60036 4.78099,-4.604945 6.42093,-8.899078 3.68427,-9.647142 3.71873,-11.112048 0.22989,-9.773253 -1.51351,0.580788 -2.75183,0.344663 -2.75183,-0.524722 0,-1.988931 5.34175,-4.124404 7.2959,-2.916678 0.80361,0.496666 2.38629,-0.211726 3.51704,-1.574205 3.35046,-4.03705 -13.36765,-9.71472 -20.58439,-6.990707 -2.99345,1.129904 -6.14571,1.619854 -7.00499,1.088777 -1.8001,-1.112516 -10.118012,7.781455 -11.734619,12.547303 -0.598962,1.765755 -1.858932,3.210465 -2.799947,3.210465 -3.22516,0 -1.707711,-4.957569 3.877398,-12.667581 4.107906,-5.670817 6.659348,-7.566189 9.631398,-7.154822 2.99637,0.414737 4.19318,-0.496243 4.62285,-3.518844 0.62156,-4.372426 15.79145,-18.853435 19.7503,-18.853435 1.31191,0 2.89549,0.825548 3.51909,1.834551 2.08137,3.367737 4.58638,1.887834 4.58638,-2.709535 0,-5.265346 5.27824,-9.290341 16.88083,-12.872712 4.3371,-1.339101 11.17106,-3.837285 15.1866,-5.551519 6.45727,-2.756619 7.50236,-2.797506 9.0438,-0.353815 1.36326,2.161213 2.66992,2.340564 5.99952,0.823495 2.34118,-1.066713 4.25669,-3.012148 4.25669,-4.32319 0,-1.31104 3.50858,-3.3869375 7.79684,-4.6131025 4.28827,-1.226166 8.80715,-2.993532 10.04197,-3.927484 1.23482,-0.93395 12.05983,-1.908862 24.05558,-2.16647 11.99574,-0.257607 22.58064,-0.944385 23.52199,-1.52617003 0.94134,-0.581786 15.29555,-0.663864 31.89824,-0.182391 16.60269,0.481467 34.09982,0.81313903 38.88251,0.73704903 9.31655,-0.14821303 16.76452,2.81926 22.2279,8.856242 2.67671,2.9577165 4.07231,3.3315465 6.58326,1.7634255 6.16238,-3.8484685 15.63925,-0.141022 24.87294,9.730517 6.22901,6.659339 9.24193,8.719665 10.6671,7.294503 4.59222,-4.592212 19.21172,0.526628 23.2951,8.156494 1.31662,2.460136 3.89879,4.950622 5.73817,5.534414 3.73213,1.184539 17.62932,14.589857 24.60133,23.730634 2.49684,3.273543 5.83716,9.986695 7.42291,14.918116 1.58575,4.931421 4.20875,11.593708 5.82892,14.805078 2.34261,4.643419 2.51937,6.774619 0.86326,10.409359 -1.62044,3.55646 -1.54623,5.01554 0.33446,6.57637 1.32932,1.10322 2.96119,6.10872 3.6264,11.12332 0.79997,6.03045 2.70082,10.60882 5.61418,13.52217 5.18103,5.18104 7.87777,16.51652 4.80897,20.21419 -1.6027,1.93114 -1.4375,2.7676 0.70934,3.5914 1.53925,0.59067 2.79865,2.33817 2.79865,3.88336 0,3.15421 -2.05877,3.65268 -4.67811,1.13263 -0.95855,-0.92221 -4.17861,-1.95415 -7.1557,-2.29319 -4.49533,-0.51193 -5.59999,0.16107 -6.51668,3.96995 -0.9822,4.08116 -0.2171,4.92706 6.94565,7.67908 4.42718,1.70098 9.22429,2.64187 10.66025,2.09084 3.09746,-1.1886 5.30941,-8.67097 3.45185,-11.67657 -0.84675,-1.37008 -0.10713,-1.88406 2.09943,-1.45911 4.9163,0.94679 5.31875,6.67958 0.88946,12.6705 l -3.83263,5.18391 3.78935,2.65417 c 2.5399,1.77902 3.10192,3.07906 1.70447,3.94271 -1.14669,0.7087 -3.47758,0.069 -5.17975,-1.42178 -5.40391,-4.73246 -14.64992,-8.65644 -20.39705,-8.65644 -4.36598,0 -5.80135,0.96242 -6.68474,4.4821 -1.31305,5.23159 0.16914,8.35978 3.961,8.35978 1.5328,0 3.17265,-2.41624 3.81307,-5.61833 0.73904,-3.6952 1.74329,-4.9987 2.93389,-3.80809 1.19059,1.19058 1.13827,3.73777 -0.15282,7.44152 -1.73667,4.98184 -1.49849,5.88893 2.06529,7.86524 8.6842,4.8159 23.29113,3.51493 23.29113,-2.07444 0,-2.5592 0.95712,-3.21211 3.6691,-2.50291 3.82932,1.00139 4.79372,3.28907 2.09079,4.95958 -2.65249,1.63932 -4.13994,17.86934 -1.88654,20.58451 1.57637,1.89944 0.61952,3.88343 -4.19482,8.69777 -3.43039,3.43039 -5.88918,7.28066 -5.46401,8.55618 0.52232,1.56693 -0.48094,1.99121 -3.09314,1.30811 -3.22615,-0.84365 -4.05614,0.002 -5.01367,5.10554 -1.26895,6.76421 -5.00748,10.8069 -11.44501,12.37622 -2.81149,0.68537 -4.59819,0.10016 -5.30323,-1.73725 -0.85872,-2.23779 -1.89593,-1.87286 -5.39143,1.89689 -4.93208,5.31902 -5.54119,7.52045 -1.66978,6.03485 1.71804,-0.65929 2.32005,-0.13833 1.70188,1.47254 -1.07281,2.79567 5.46902,5.60327 8.57833,3.68161 1.08027,-0.66765 2.86868,-3.40397 3.97426,-6.08071 1.65355,-4.00347 2.14857,-4.28129 2.79055,-1.56614 0.42925,1.81536 -0.5996,5.40688 -2.28632,7.98112 -3.12746,4.7731 -5.86718,5.01855 -16.95372,1.51885 -4.07256,-1.28558 -4.0894,-1.22104 -1.37591,5.27321 3.14359,7.5237 3.2983,8.52715 1.31475,8.52715 -0.78779,0 -2.40537,-2.57784 -3.59462,-5.72852 -1.6877,-4.47119 -2.88327,-5.43214 -5.44723,-4.37823 -1.80672,0.74264 -4.93604,1.81254 -6.95405,2.37754 -3.37009,0.94357 -3.44484,0.74433 -0.91727,-2.44467 2.42863,-3.06417 2.00138,-3.00484 -3.63775,0.50509 -3.51427,2.18737 -6.64643,4.74756 -6.96036,5.68935 -0.31393,0.94179 2.25708,4.71072 5.71336,8.37544 4.50386,4.77547 7.21063,6.30761 9.55449,5.40819 2.24261,-0.86057 2.8535,-0.58046 1.94387,0.89135 -1.65216,2.67325 -0.65222,2.69497 5.02309,0.10916 5.33826,-2.43227 9.46523,-9.42529 7.92743,-13.43274 -0.60696,-1.5816 -0.39221,-2.87562 0.47719,-2.87562 5.4827,0 2.82449,12.968 -3.46312,16.89468 -2.05501,1.2834 -3.7364,3.72603 -3.7364,5.42809 0,4.28718 -7.68121,9.90887 -18.40647,13.47124 -9.42892,3.13178 -17.76112,3.12202 -16.81495,-0.0196 0.30376,-1.00869 -2.0545,-2.36714 -5.2406,-3.01878 -6.8683,-1.40477 -27.41638,0.18894 -27.41638,2.12636 0,2.35311 9.7999,3.397 17.88688,1.90533 5.779,-1.06595 7.79684,-0.84509 7.79684,0.85338 0,5.00408 -19.5106,6.17957 -29.97776,1.80609 -11.08519,-4.63167 -18.56946,-12.7199 -24.11773,-26.06394 -6.51005,-15.65722 -7.80073,-17.11758 -11.13563,-12.59947 -1.43516,1.94435 -3.17688,2.96767 -3.8705,2.27406 -0.69361,-0.69363 1.09515,-3.72054 3.97505,-6.72651 2.87989,-3.00597 4.7826,-5.91896 4.22822,-6.47333 -1.01159,-1.01159 -17.90213,11.03078 -20.05123,14.29582 -0.70577,1.07226 -1.59822,1.01124 -2.32129,-0.15869 -0.6461,-1.0454 3.39663,-5.46766 8.98383,-9.82725 9.28057,-7.24149 9.7983,-8.01615 5.9904,-8.9632 -4.44152,-1.10464 -16.69242,7.09711 -18.79837,12.58515 -1.59795,4.16418 4.44897,19.60949 10.59754,27.06875 8.47352,10.27988 26.26164,17.42287 29.6669,11.91303 0.59635,-0.96494 2.36018,-1.26481 3.91963,-0.6664 2.54692,0.97734 2.54127,1.38206 -0.0556,3.97894 -3.29964,3.29964 -15.30394,3.45481 -21.24614,0.27465 -2.09238,-1.11981 -5.27267,-1.56999 -7.0673,-1.0004 -1.79463,0.56961 -8.80928,1.11884 -15.58811,1.22055 -10.35313,0.15538 -13.46583,-0.56998 -19.45457,-4.53316 -3.92119,-2.59492 -8.61104,-7.22617 -10.42187,-10.29165 -2.67413,-4.52696 -4.51002,-5.5774 -9.77643,-5.59381 -3.56621,-0.011 -9.78622,-0.52515 -13.82223,-1.14237 l -7.33821,-1.12218 4.01874,4.19287 c 2.96142,3.08975 6.72177,4.41703 14.29284,5.04487 11.11923,0.9221 13.1887,4.54939 3.1619,5.54209 -7.83663,0.77587 -21.88414,-5.70689 -24.4183,-11.26873 -1.53115,-3.36054 -5.5453,-5.69181 -15.93484,-9.25438 -7.63845,-2.61923 -14.21762,-4.4327 -14.6204,-4.02992 -0.40278,0.40275 0.64037,2.82726 2.31807,5.38776 3.78117,5.77079 16.62688,12.17385 24.42299,12.17385 5.73547,0 8.02716,2.63487 3.58079,4.11699 -4.62936,1.54311 -18.68593,-2.43183 -24.62861,-6.96453 -3.38016,-2.57819 -7.66876,-7.65624 -9.53022,-11.2846 -2.09913,-4.09164 -3.87951,-5.79603 -4.68796,-4.48792 -1.82441,2.95196 -13.10305,2.63035 -19.25114,-0.54897 -2.82706,-1.46193 -6.52007,-4.76413 -8.20666,-7.3382 -2.12062,-3.23648 -4.70783,-4.68018 -8.38717,-4.68018 -2.96963,0 -7.68052,-1.98574 -10.66144,-4.49401 -3.28904,-2.76755 -6.73126,-4.13042 -8.96015,-3.54755 -5.83544,1.526 -11.50258,-4.78289 -17.51476,-19.49814 -4.4129,-10.80089 -5.69945,-16.88563 -6.01817,-28.4629 -0.22297,-8.09887 -1.35869,-16.50645 -2.52383,-18.68355 -1.16514,-2.1771 -2.11845,-5.61499 -2.11845,-7.63979 0,-5.12139 -2.19675,-5.96959 -8.90392,-3.43791 -6.27662,2.36918 -6.75078,3.45685 -3.86091,8.85661 1.56811,2.93003 2.58525,3.21129 5.66079,1.56531 2.06205,-1.10357 4.17573,-1.57995 4.69707,-1.05861 1.2217,1.2217 -13.22608,15.86034 -15.65356,15.86034 -1.01051,0 -4.31393,2.47665 -7.34094,5.50366 -3.027013,3.027 -7.218266,5.50365 -9.313892,5.50365 -2.095608,0 -3.810216,1.17837 -3.810216,2.6186 0,3.05695 -17.737801,11.89217 -26.84068,13.36935 -8.016751,1.30095 -12.330533,-2.43735 -15.379704,-13.32796 -1.257127,-4.49001 -2.860048,-8.16364 -3.562039,-8.16364 -3.370805,0 -9.254119,9.02946 -9.254119,14.20285 0,8.69425 13.609583,17.65958 17.428238,11.48086 2.076896,-3.36047 10.199354,-1.892 14.75981,2.66845 2.780318,2.78032 4.50298,6.60919 4.50298,10.00856 0,3.02806 2.147122,8.63804 4.771374,12.4666 4.575555,6.67537 4.722796,7.6763 3.587576,24.38928 -1.295487,19.07231 -3.320116,23.56628 -13.843947,30.72874 -6.427479,4.3745 -11.025966,5.33089 -11.025966,2.29319 z M 323.1339,311.34594 c 2.93277,-1.15825 2.70262,-1.84894 -2.17249,-6.51959 -2.99904,-2.87326 -7.23076,-9.86859 -9.40384,-15.54519 -2.17306,-5.67659 -4.69587,-12.19949 -5.60622,-14.49535 l -1.65519,-4.17427 -7.28324,3.71563 c -7.64269,3.89901 -11.14923,4.64328 -11.02333,2.33973 0.0413,-0.75675 4.07744,-3.2511 8.96909,-5.54301 8.64103,-4.04861 13.90184,-11.42659 8.14766,-11.42659 -3.79726,0 -11.83559,5.61571 -10.69046,7.46853 0.53147,0.85995 -2.36503,3.26306 -6.43669,5.34027 -4.07166,2.07721 -7.403,4.02567 -7.403,4.32993 0,0.30424 1.31592,4.41519 2.92427,9.13546 2.61354,7.67029 3.53953,8.61149 8.71412,8.85716 5.54614,0.26331 5.5775,0.30704 0.74483,1.03912 -2.77476,0.42035 -5.04502,1.37304 -5.04502,2.11709 0,1.89005 11.33683,12.41634 14.67641,13.62709 3.95262,1.43302 18.68104,1.25922 22.5431,-0.26601 z m 106.44034,-5.95807 c 5.5923,-2.54803 6.05965,-3.95097 2.34353,-7.03507 -2.02252,-1.67854 -5.22843,-1.23491 -14.52671,2.01023 -9.97778,3.48225 -11.66483,4.66229 -10.30315,7.20661 1.33801,2.50009 3.04739,2.77742 9.58791,1.55552 4.37777,-0.81786 10.18206,-2.49965 12.89842,-3.73729 z m -44.82339,0.86117 c 3.15313,-0.63063 5.73297,-1.8761 5.73297,-2.76771 0,-0.89161 -2.36255,-4.88253 -5.25013,-8.86872 -2.88759,-3.98619 -6.29866,-9.77895 -7.58017,-12.87281 -1.88104,-4.54123 -3.07605,-5.38843 -6.20143,-4.39647 -3.41347,1.0834 -3.57757,0.8747 -1.38734,-1.76436 2.65726,-3.20178 1.64352,-8.54347 -1.62136,-8.54347 -1.08653,0 -4.08941,2.1139 -6.67309,4.69757 -5.76861,5.76862 -8.32919,4.28698 -2.78684,-1.61257 4.75915,-5.06589 4.89131,-6.01265 1.04527,-7.48851 -1.61525,-0.61984 -6.13612,0.67114 -10.04635,2.86882 -6.13561,3.44841 -6.9529,4.64398 -5.96611,8.72753 2.17229,8.98938 11.87413,27.63983 15.81334,30.39896 4.11352,2.88123 15.06159,3.59366 24.92124,1.62174 z m 29.99376,-7.37121 10.74238,-3.01417 -3.65283,-3.88826 c -2.00907,-2.13853 -5.34374,-7.7108 -7.41038,-12.3828 -3.70981,-8.38663 -7.8254,-11.8279 -11.4595,-9.58189 -1.2127,0.74947 -1.1115,1.61814 0.28934,2.48392 1.36815,0.84557 0.0793,2.19084 -3.53206,3.68672 -6.98206,2.89206 -9.10251,1.27628 -4.70375,-3.58429 3.19057,-3.52555 3.14117,-3.68971 -1.65947,-5.5149 -6.41135,-2.43761 -6.5773,-2.41939 -10.52691,1.15496 -4.79142,4.33618 -4.22169,7.62483 3.29209,19.00294 10.6547,16.13438 11.44703,16.45657 28.62109,11.63777 z m -136.24894,-6.61724 c -0.17557,-4.99908 -5.37825,-16.79862 -8.07148,-18.30584 -1.57041,-0.87886 -2.85531,-3.62076 -2.85531,-6.09313 0,-3.27218 -0.99827,-4.49522 -3.6691,-4.49522 -3.86922,0 -4.93685,-2.66905 -1.83455,-4.58638 1.009,-0.6236 1.83455,-2.75522 1.83455,-4.73694 0,-3.43351 -0.21861,-3.45989 -4.64364,-0.56049 -6.57052,4.30516 -8.33358,1.22344 -2.13448,-3.73094 4.47845,-3.57921 4.78715,-4.41131 2.37829,-6.41048 -2.24758,-1.86533 -3.8004,-1.68762 -8.25715,0.94505 -3.01895,1.78335 -5.12586,3.83001 -4.68203,4.54815 0.44383,0.71813 -0.40017,1.76893 -1.87557,2.33509 -4.51254,1.73163 -5.16092,-2.38242 -0.91708,-5.81887 3.28679,-2.66149 3.55535,-3.60379 1.51067,-5.30071 -1.84932,-1.53481 -3.25833,-1.49962 -5.49683,0.13722 -2.72947,1.99583 -2.77364,3.56362 -0.47394,16.8179 1.39488,8.0393 4.2838,18.93 6.41985,24.20159 3.49287,8.62011 4.55651,9.69399 10.56918,10.67083 3.67699,0.59739 7.92377,1.34818 9.43728,1.66845 6.86166,1.45196 12.83632,0.85023 12.76134,-1.28527 z m -35.787,-6.42093 c -2.69938,-6.17433 -7.95113,-27.10365 -8.05595,-32.10465 -0.0582,-2.77476 -0.9969,-5.04502 -2.08609,-5.04502 -1.24594,0 -1.53203,-2.04096 -0.7715,-5.50365 1.04997,-4.78046 0.69166,-5.50366 -2.72668,-5.50366 -2.16449,0 -5.60299,-0.89243 -7.64109,-1.98318 -5.9753,-3.19788 -6.29779,-0.25365 -0.62121,5.67142 5.97616,6.23775 3.79601,7.539 -2.61855,1.56293 -7.78307,-7.25105 -9.51857,1.82613 -4.55308,23.814 l 2.93675,13.00425 9.44647,3.47948 c 5.19558,1.91373 10.68481,3.9406 12.19832,4.50418 4.88456,1.81886 5.92483,1.37982 4.49261,-1.8961 z m -36.31249,-5.53257 c 1.28681,-0.81887 -2.85687,-4.01561 -10.54867,-8.13798 -12.7422,-6.82912 -16.98809,-6.01663 -8.54025,1.63427 7.97541,7.22306 14.47734,9.43829 19.08892,6.50371 z m 3.43702,-10.9784 c -0.73956,-3.78376 -1.90425,-11.0073 -2.58819,-16.05232 -1.39011,-10.25415 -2.83575,-13.2519 -8.59582,-17.8247 -2.18116,-1.73155 -5.00317,-5.6529 -6.27116,-8.71412 -1.63029,-3.93589 -3.55167,-5.56583 -6.56098,-5.56583 -6.5005,0 -6.60554,2.15024 -0.65686,13.44572 6.62333,12.57649 3.93465,13.96158 -3.27926,1.68933 l -5.12235,-8.71412 -0.46599,7.3382 c -0.25631,4.03602 0.61032,11.46595 1.92582,16.51097 2.28292,8.75512 3.01334,9.52774 16.04304,16.9696 7.50816,4.28826 14.38588,7.79684 15.28382,7.79684 0.90256,0 1.03133,-3.07621 0.28793,-6.87957 z m 84.43873,-16.87093 c -2.46454,-2.57678 -6.67147,-9.47436 -9.34873,-15.32796 -2.67725,-5.85359 -6.78492,-12.56011 -9.12816,-14.90334 -2.34323,-2.34324 -6.32663,-8.33791 -8.852,-13.32149 -6.20258,-12.2402 -9.59766,-14.98702 -13.58977,-10.9949 -1.77423,1.77421 -2.9477,5.72119 -2.83919,9.54952 0.153,5.40033 -0.25854,6.15728 -2.38743,4.39046 -1.4148,-1.1742 -2.57239,-4.80269 -2.57239,-8.06331 0,-5.5675 -6.77712,-15.67956 -10.46107,-15.60886 -6.86188,0.13172 -7.60678,19.34935 -1.25197,32.29999 3.18027,6.48118 17.84811,19.01946 19.87669,16.99088 0.48102,-0.481 -0.32288,-4.85337 -1.78643,-9.71637 -2.56236,-8.51406 -2.21715,-13.13124 0.84049,-11.24152 0.80328,0.49646 1.94511,3.88886 2.53739,7.53868 1.19303,7.35175 9.69034,19.80736 12.3791,18.14562 0.94323,-0.58296 1.71497,-0.21746 1.71497,0.8122 0,1.02966 3.3447,2.77274 7.43269,3.87352 4.08796,1.10077 7.88943,3.19172 8.4477,4.64656 0.55827,1.45481 1.75409,2.18838 2.65735,1.63012 0.90328,-0.55825 1.64233,-0.18272 1.64233,0.83445 0,1.0172 -2.88942,4.05333 -6.42093,6.74695 -3.53152,2.69361 -6.42093,6.47903 -6.42093,8.41206 0,2.9911 1.63915,2.35861 11.00565,-4.24684 l 11.00566,-7.76138 -4.48102,-4.68504 z m 126.469,16.4333 c 0.64272,-1.03993 -0.0937,-1.34748 -1.72627,-0.721 -3.17822,1.2196 -3.75972,2.53455 -1.12084,2.53455 0.94945,0 2.23067,-0.8161 2.84711,-1.81355 z m -243.06507,-3.2819 c 0,-0.78451 -1.28514,-3.26115 -2.85585,-5.50366 -1.57072,-2.24251 -2.04112,-4.0773 -1.04534,-4.0773 1.18734,0 1.19346,-2.05221 0.0183,-5.9623 -0.986,-3.27926 -1.63576,-11.32835 -1.4439,-17.88687 0.53604,-18.32387 0.5292,-18.34552 -5.80362,-18.34552 -6.28495,0 -6.28971,-0.2683 0.30642,17.3189 1.8696,4.98486 3.06365,9.399 2.65348,9.80917 -0.99574,0.99574 -7.28939,-11.65592 -10.06006,-20.22294 -3.16115,-9.77447 -6.46341,-11.16739 -5.07563,-2.14094 0.60549,3.93821 1.68672,9.14698 2.40277,11.57501 0.94248,3.19591 0.69535,4.03977 -0.89521,3.05675 -2.25674,-1.39474 -2.08598,0.0761 1.82903,15.75294 2.04041,8.17271 10.86271,18.0531 16.11923,18.0531 2.11768,0 3.85034,-0.64185 3.85034,-1.42634 z m 139.65992,-1.62584 c 2.28306,-2.7676 2.13296,-2.84711 -1.60993,-0.85273 -4.26892,2.27468 -5.32007,3.90491 -2.51781,3.90491 0.88545,0 2.74293,-1.37347 4.12774,-3.05218 z m 109.83907,-2.61482 c -7.23951,-2.06066 -9.17276,-1.86124 -9.17276,0.94612 0,3.39705 5.41663,4.58847 10.09004,2.21936 3.51674,-1.78276 3.47865,-1.9142 -0.91728,-3.16548 z m -18.18763,0.99897 5.47934,-2.83346 -3.86081,-5.42202 c -4.14429,-5.8201 -4.97262,-5.99776 -19.71123,-4.22756 -9.29145,1.11596 -9.55573,1.2991 -6.59523,4.57044 1.69625,1.87432 4.60724,3.40788 6.46887,3.40788 1.86161,0 3.17838,0.95884 2.92613,2.13077 -0.25225,1.17195 1.60523,2.74075 4.12774,3.48624 2.52251,0.7455 4.83377,1.43775 5.13612,1.53832 0.30235,0.10054 3.01543,-1.0922 6.02907,-2.65061 z m -127.8702,-4.27157 c 2.94497,-3.25416 2.89465,-3.49216 -0.9513,-4.4979 -5.34451,-1.39761 -6.95967,-0.20736 -5.78972,4.26658 1.19415,4.5664 2.76891,4.62045 6.74102,0.23132 z m 90.18347,1.47283 c 0.6673,-1.0797 2.74621,-2.53017 4.61982,-3.22327 1.92914,-0.71364 2.84227,-2.15218 2.10546,-3.31694 -0.87648,-1.38556 -5.19261,-1.66296 -13.22567,-0.85008 l -11.92458,1.20672 7.3382,3.99226 c 8.53437,4.64303 9.45862,4.82571 11.08677,2.19131 z m 10.37749,-0.23834 c -1.71225,-1.71224 -2.69069,-1.71224 -4.40293,0 -1.71224,1.71224 -1.22304,2.20146 2.20146,2.20146 3.42451,0 3.91371,-0.48922 2.20147,-2.20146 z m -226.74221,-4.67811 c -2.53497,-8.36656 -4.69275,-20.34415 -4.73333,-26.27419 -0.0616,-8.99585 -5.32067,-23.71733 -8.47278,-23.71733 -3.22841,0 -3.21593,0.98759 0.15263,12.09165 3.189,10.51222 3.37429,12.34648 1.10561,10.94437 -0.91635,-0.56635 -2.72352,-5.15559 -4.01592,-10.19831 -1.29242,-5.04274 -3.0968,-9.16861 -4.00974,-9.16861 -4.66857,0 6.06653,38.81724 12.78961,46.24616 3.87762,4.28472 8.47385,4.3335 7.18396,0.0763 z m 194.84273,0.0211 c -0.33781,-1.75416 -2.25584,-3.48539 -4.26225,-3.84716 -2.00643,-0.36178 -4.47359,-1.51551 -5.48259,-2.56385 -1.25601,-1.30497 -0.54288,-1.59486 2.26136,-0.91927 3.6815,0.88695 3.89147,0.58737 2.07524,-2.96089 -5.55085,-10.84433 -18.90503,-32.6056 -21.1548,-34.47275 -3.23473,-2.68459 -11.16852,0.56253 -12.91093,5.28414 -0.65484,1.77448 -1.77039,3.6391 -2.47903,4.1436 -0.70861,0.50451 1.00464,5.4578 3.80725,11.00731 2.80262,5.54952 6.38708,12.79992 7.96549,16.11201 3.39977,7.134 11.66823,11.2331 22.86312,11.33446 6.56677,0.0594 7.82568,-0.47693 7.31714,-3.1176 z m 95.33228,-0.95688 c 1.80946,-1.45858 1.18353,-2.59465 -2.75182,-4.9945 -2.80175,-1.70855 -6.16412,-4.4027 -7.47195,-5.98698 -2.15061,-2.60517 -3.37809,-2.52981 -12.84186,0.78849 -5.75519,2.01795 -10.74199,3.93999 -11.08179,4.27118 -1.20635,1.1758 9.05676,6.90324 14.88153,8.30478 6.63227,1.59587 15.72513,0.47118 19.26589,-2.38297 z M 309.53026,236.30677 c -13.2444,-28.45057 -13.23983,-28.44382 -19.66622,-29.14735 -11.24188,-1.23071 -11.18312,7.66345 0.20165,30.52326 6.30005,12.6501 13.65176,18.33686 23.71297,18.34267 l 4.93239,0.004 -9.18079,-19.72143 z m 157.49883,11.15167 c 0.45509,-1.36695 -0.6578,-1.78974 -3.05846,-1.16195 -2.07561,0.54279 -3.77385,1.77667 -3.77385,2.74199 0,2.43553 5.95379,1.05865 6.83231,-1.58004 z m -93.05623,-0.66398 c 0,-4.72768 -9.58647,-20.0659 -16.37374,-26.1978 -8.34227,-7.53674 -12.48429,-8.32019 -18.44968,-3.4897 l -4.04252,3.27343 6.00184,10.02707 c 3.301,5.51488 7.11158,11.88453 8.46794,14.15479 2.11805,3.54514 4.01374,4.12774 13.43114,4.12774 6.32217,0 10.96502,-0.80262 10.96502,-1.89553 z m 27.90984,-1.57232 c 2.02892,-1.81034 -16.78033,-27.71952 -20.12351,-27.71952 -3.37917,0 -11.45543,6.99523 -11.45543,9.92209 0,1.06938 2.23554,6.21418 4.96789,11.43287 l 4.96789,9.48856 10.16716,-0.97809 c 5.59193,-0.53795 10.75614,-1.5036 11.476,-2.14591 z m 62.48933,-3.94893 c 5.63114,-2.6408 5.69938,-4.81975 0.26397,-8.42872 -3.00851,-1.99759 -4.48907,-1.94697 -8.82327,0.30164 -7.99054,4.14554 -10.00075,3.19663 -3.87144,-1.82751 7.13887,-5.85167 5.31415,-5.81707 -5.27259,0.1 -9.71633,5.43058 -10.46358,7.88376 -3.65903,12.01253 5.10365,3.0967 11.54511,2.44602 21.36236,-2.15791 z m -38.46918,-2.07444 c 3.11253,-1.64944 3.01325,-2.27974 -1.63054,-10.35037 -9.66192,-16.79187 -12.39334,-17.98192 -23.68501,-10.31919 -6.53084,4.43195 -6.86399,4.48346 -5.9314,0.91728 0.54344,-2.07814 0.28854,-3.77842 -0.56645,-3.77842 -4.271,0 -2.70772,4.36094 5.76708,16.08793 l 9.30598,12.87714 6.71297,-1.83899 c 3.69215,-1.01145 8.20446,-2.62936 10.02737,-3.59538 z M 209.01992,235.0277 c 0.92282,0.57033 1.67787,0.23022 1.67787,-0.75582 0,-0.98601 0.49986,-3.09538 1.1108,-4.68748 0.9245,-2.40922 0.0783,-2.69787 -5.04502,-1.72108 -8.08301,1.54106 -8.25713,1.80116 -4.20406,6.27978 1.93179,2.13459 3.75036,2.94421 4.1203,1.83437 0.36425,-1.09272 1.4173,-1.52011 2.34011,-0.94977 z M 62.233115,230.30092 c -4.000936,-13.83345 -8.704378,-25.45678 -10.124009,-25.01886 -5.230544,1.61347 -4.323102,19.38567 1.35445,26.52687 2.569968,3.23247 9.78192,1.99232 8.769559,-1.50801 z m 172.974865,1.0339 c -2.10346,-1.47333 -4.74331,-4.98191 -5.86633,-7.79684 -2.11333,-5.29719 -6.16591,-26.62474 -6.09104,-32.05536 0.073,-5.30022 -4.60092,-7.71181 -11.2134,-5.78569 -5.77541,1.6823 -5.90975,1.95649 -5.29345,10.80361 1.20291,17.26787 11.68846,34.28487 22.29954,36.18996 9.04027,1.62305 10.08836,1.39257 6.16468,-1.35568 z m 208.42645,-0.96413 c 3.92735,-2.00358 7.53314,-4.27797 8.01288,-5.05419 1.34808,-2.18126 -5.78102,-10.07877 -7.91024,-8.76284 -1.0372,0.64103 -1.88581,-0.26293 -1.88581,-2.00878 0,-4.87945 -5.53157,-9.88412 -10.92473,-9.88412 -5.84844,0 -9.25533,3.04168 -9.25533,8.26322 0,4.5824 10.07713,21.0896 12.87453,21.0896 1.07143,0 5.16134,-1.6393 9.0887,-3.64289 z m 39.39062,-5.52818 c 2.62306,-2.62304 3.45556,-5.6573 3.1187,-11.36662 -0.54741,-9.27744 -0.71131,-9.50245 -5.75526,-7.90154 -3.74586,1.18888 -3.77455,1.36516 -0.59979,3.6866 5.14214,3.76002 1.62426,5.20259 -4.70526,1.92947 l -5.63436,-2.91365 -4.75859,7.53808 c -6.18981,9.80529 -4.66073,11.13015 2.63313,2.28145 6.39584,-7.75928 8.20659,-4.25602 1.9267,3.72758 -2.08359,2.64884 -3.22178,5.73276 -2.52933,6.85315 1.7861,2.88997 11.97615,0.49339 16.30406,-3.83452 z m -402.174852,0.70586 c 5.330069,-2.75628 5.482703,-3.09674 2.202085,-4.91184 -1.938699,-1.07267 -4.602027,-3.24854 -5.918501,-4.83529 -4.508777,-5.43448 -11.329713,-21.22837 -11.347636,-26.27553 -0.0189,-5.32523 -3.209475,-6.6233 -6.989219,-2.84358 -3.277371,3.27741 -2.669144,14.21033 1.457918,26.20586 5.717966,16.61955 9.017224,18.64766 20.595353,12.66038 z m 125.855772,-2.30383 c 1.99166,-1.26276 1.9065,-2.79085 -0.47299,-8.48575 -4.07232,-9.74642 -5.75154,-25.8929 -3.03343,-29.16801 1.6761,-2.01959 1.66825,-2.9298 -0.0343,-3.98206 -1.39923,-0.86477 -1.72797,-0.58882 -0.89809,0.75395 1.93154,3.12532 -2.38215,2.57457 -5.68219,-0.72546 -8.99905,-8.99904 -12.93577,8.83093 -6.02689,27.29658 2.1343,5.70441 5.65867,11.61712 7.83196,13.13935 4.54838,3.18581 5.03142,3.25386 8.31596,1.1714 z m 163.58772,-4.35051 c 3.32228,-4.10284 3.31248,-4.11743 -4.29232,-6.39308 -12.81811,-3.83564 -15.19207,-3.05359 -8.2216,2.70848 3.35668,2.77476 6.37824,5.66417 6.71457,6.42093 0.98994,2.22734 2.26849,1.62409 5.79935,-2.73633 z m 91.8152,-6.05782 c 6.66977,-6.88145 6.68692,-6.80277 -2.63977,-12.11451 -2.63656,-1.50158 -3.82831,-1.37558 -4.91941,0.52008 -0.79195,1.37593 -2.64333,4.11875 -4.11414,6.09513 -2.35968,3.17078 -2.32051,4.08103 0.33302,7.73918 1.654,2.28018 3.46446,4.17172 4.02329,4.20344 0.55882,0.0317 3.85147,-2.86779 7.31701,-6.44332 z m -364.831954,1.62377 c 3.230624,-2.92367 3.150404,-3.17137 -2.052221,-6.33528 -6.030042,-3.66708 -11.110979,-17.14827 -11.110979,-29.48065 0,-3.85289 -0.619161,-6.90747 -1.375913,-6.78799 -3.953073,0.62417 -4.445834,-0.50707 -1.267914,-2.91073 3.299954,-2.49595 3.319547,-2.69777 0.267257,-2.75183 -1.811619,-0.0321 -5.320199,1.96801 -7.796843,4.44466 -3.602582,3.60256 -4.502998,6.37205 -4.502998,13.85024 0,9.68228 2.747589,16.8292 10.39998,27.05192 5.045255,6.73991 11.942398,7.89459 17.439631,2.91966 z m 88.463744,-4.75421 c -1.52886,-4.28826 -3.0617,-13.83323 -3.40631,-21.21104 -0.44576,-9.54358 -1.555,-14.44014 -3.84414,-16.96962 -7.98163,-8.81961 -10.78859,0.20927 -7.01629,22.56863 3.12916,18.54726 5.94327,23.76078 10.69622,19.81618 2.3701,-1.96698 2.84391,-1.86432 2.84391,0.61625 0,1.63704 0.78893,2.97645 1.75317,2.97645 0.96424,0 0.5023,-3.50858 -1.02656,-7.79685 z m 125.93735,-2.6998 c 2.05656,-0.53781 3.47843,-1.76017 3.1597,-2.71638 -0.70401,-2.11203 -0.85525,-2.10372 -8.18014,0.44976 -5.42066,1.88964 -5.70162,2.38479 -3.76501,6.63519 2.08515,4.57638 2.09818,4.57856 3.5695,0.6012 0.8122,-2.19558 3.15936,-4.43197 5.21595,-4.96977 z m 21.9347,4.99299 c -1.08,-2.018 -2.76014,-3.6691 -3.73364,-3.6691 -0.97351,0 -1.77001,-0.91386 -1.77001,-2.03083 0,-1.11695 1.17,-1.58186 2.59999,-1.03311 3.00504,1.15314 5.1127,-2.9983 3.56709,-7.02609 -1.41277,-3.68162 -3.11623,-3.46745 -7.05712,0.88719 -3.18041,3.51428 -3.14299,3.85965 1.09158,10.07748 4.67697,6.86746 8.58394,8.92662 5.30211,2.79446 z m -54.69427,-16.9696 c -3.10311,-4.7451 -5.84628,-6.87957 -8.84155,-6.87957 -5.12716,0 -5.38496,1.36453 -1.34689,7.12966 2.02204,2.88687 2.35353,4.67383 1.01988,5.49808 -1.31086,0.81015 -0.71446,3.21329 1.77214,7.1406 l 3.74794,5.91947 4.07371,-5.96434 4.07371,-5.96433 -4.49894,-6.87957 z m 124.45573,14.15934 c 2.04277,-2.46139 1.73712,-2.58398 -2.46226,-0.98737 -6.43664,2.4472 -7.8848,-0.54638 -2.09842,-4.33778 2.54601,-1.66819 4.10292,-3.88446 3.45982,-4.92502 -0.71683,-1.15985 -2.73735,-0.41879 -5.22172,1.91515 -2.22883,2.0939 -5.34286,3.80708 -6.92004,3.80708 -1.57716,0 -3.83806,1.16934 -5.02419,2.59855 -1.71201,2.06284 -1.47467,2.77538 1.15129,3.45629 7.11765,1.84563 14.89217,1.15205 17.11552,-1.5269 z m -252.88027,-3.09088 c -1.3164,-1.3164 -2.17088,-1.42472 -2.17088,-0.27519 0,2.44873 2.16956,4.61828 3.39392,3.39392 0.52132,-0.5213 -0.029,-1.92473 -1.22304,-3.11873 z m 225.12051,1.54729 c 1.14996,-1.38562 1.61586,-3.75707 1.03533,-5.26991 -0.883,-2.30106 -1.76293,-2.12049 -5.38395,1.10484 -2.38064,2.1205 -3.93505,4.49195 -3.45425,5.26991 1.38187,2.23594 5.51611,1.65055 7.80287,-1.10484 z m 42.38766,0.89871 c 0,-1.69096 -7.55761,-4.27516 -8.81771,-3.01508 -0.39735,0.39736 -0.17832,1.60294 0.4868,2.67907 1.45511,2.35441 8.33091,2.63175 8.33091,0.33601 z M 167.10767,191.84253 c -2.24265,-14.40984 -2.22333,-17.17419 0.15337,-21.9383 2.32905,-4.6687 2.35004,-5.75741 0.14621,-7.58648 -2.04773,-1.69945 -2.57314,-1.45283 -2.57314,1.20787 0,4.67774 -3.20324,0.98055 -3.97239,-4.58496 -1.20471,-8.7171 -9.8136,-5.34585 -11.76725,4.60806 -0.99132,5.05087 -0.49392,5.9253 4.56166,8.01941 3.12089,1.2927 5.67433,3.16409 5.67433,4.15863 0,0.99455 -1.23833,1.30716 -2.75183,0.69471 -1.51351,-0.61246 -3.98626,-1.61316 -5.495,-2.22379 -2.29124,-0.92733 -2.56597,0.35721 -1.66748,7.79685 2.23308,18.49044 7.12181,26.33533 16.41144,26.33533 3.81024,0 3.8222,-0.1541 1.28019,-16.48733 z m 282.60353,11.15926 c 4.05918,-6.87164 4.11368,-6.66839 -2.52572,-9.41853 -4.73656,-1.96194 -5.94334,-1.92296 -7.31012,0.23607 -2.45955,3.88525 -2.03346,7.42472 1.34296,11.15561 4.03343,4.4569 4.79972,4.27885 8.49288,-1.97315 z m -338.88847,0.80003 c 4.56051,-3.44938 1.30835,-3.48981 -4.69438,-0.0583 -2.93974,1.68051 -3.55961,2.64515 -1.72655,2.68681 1.57291,0.0358 4.46233,-1.14705 6.42093,-2.62847 z m -4.43614,-3.10742 c 3.5793,-1.29774 4.59953,-2.69363 3.90629,-5.3446 -1.44434,-5.52317 -3.42327,-5.81818 -11.474852,-1.71059 -6.59607,3.36508 -7.20903,4.218 -5.425865,7.54988 1.351202,2.52476 3.0167,3.34734 5.080035,2.50904 1.688382,-0.68597 5.249852,-2.03764 7.914392,-3.00373 z m 201.54242,-7.25066 c 0,-3.60471 -5.72338,-1.31524 -7.73186,3.09291 -1.72048,3.77604 -1.64532,5.0294 0.37656,6.27899 1.7696,1.09367 3.24923,0.16749 4.9407,-3.09291 1.32803,-2.55977 2.4146,-5.38532 2.4146,-6.27899 z m 63.66106,-0.26276 c 0.79543,-5.93969 -0.0864,-6.23111 -4.7484,-1.56909 -1.90416,1.90415 -4.82708,4.22598 -6.49538,5.15962 -1.90711,1.06725 -2.58589,2.86336 -1.82828,4.83769 1.13192,2.94974 1.5444,2.94196 6.80164,-0.12842 3.61979,-2.11406 5.83464,-5.04575 6.27042,-8.29978 z m -19.63183,4.22706 c 0,-5.06839 -2.68149,-7.42369 -8.45176,-7.42369 -4.86686,0 -6.22465,0.75154 -6.22465,3.44534 0,4.79759 7.34127,9.46582 11.46595,7.29106 1.76575,-0.931 3.21046,-2.42172 3.21046,-3.31271 z m 39.87633,0.67475 c 5.50682,-3.22722 7.75736,-5.62079 7.04075,-7.48825 -0.57932,-1.50966 -1.05329,-3.09009 -1.05329,-3.51209 0,-0.42196 -3.50858,-0.67146 -7.79685,-0.55442 -4.28826,0.11705 -6.35213,0.59036 -4.58637,1.05182 4.56774,1.19367 3.97134,3.97104 -1.37592,6.4074 -4.46665,2.03515 -5.83826,5.141 -3.36334,7.61592 1.80799,1.808 2.31791,1.6468 11.13502,-3.52038 z m 32.70974,-6.06765 c -0.81632,-1.32082 -3.42685,-0.28155 -7.54335,3.00307 -5.34788,4.26718 -5.81514,5.20379 -3.10558,6.22514 3.79908,1.43206 12.55035,-6.15167 10.64893,-9.22821 z m -136.42205,3.48445 c -1.71883,-3.02062 -4.62606,-5.49727 -6.46052,-5.50365 -3.0937,-0.011 -3.05141,0.38722 0.58355,5.49206 5.40252,7.58714 10.19304,7.59658 5.87697,0.011 z m 36.26974,-3.35568 c -7.25185,-0.72526 -10.67258,2.02044 -7.41194,5.94928 2.01467,2.42752 2.95754,2.27085 7.81268,-1.29816 l 5.52148,-4.05886 -5.92222,-0.59226 z m 107.30531,7.01319 c 1.3133,0 2.81958,-1.65109 3.34731,-3.6691 1.19746,-4.57911 1.42847,-4.62289 -6.13744,1.16301 -3.47528,2.65766 -4.80649,4.30876 -2.9582,3.66911 1.84828,-0.63966 4.43503,-1.16302 5.74833,-1.16302 z m -285.4229,-13.30051 c -0.71777,-7.31528 -1.88113,-14.75572 -2.58527,-16.53432 -0.70413,-1.77862 -0.35003,-4.35467 0.7869,-5.72457 1.20544,-1.45248 1.75154,-6.60463 1.31005,-12.35985 -0.41639,-5.42802 -0.84145,-10.95848 -0.94461,-12.28991 -0.11044,-1.42516 -1.88458,-2.17968 -4.31378,-1.83455 -2.97563,0.42276 -4.7942,2.63063 -6.52163,7.91773 -2.25178,6.89194 -2.14189,7.5414 1.83305,10.83272 4.13486,3.42375 4.14118,3.47952 0.28598,2.5201 -3.23273,-0.8045 -4.14094,0.0114 -5.04501,4.53164 -1.75822,8.791 -1.42508,9.63165 4.73875,11.95823 3.21273,1.21267 5.39109,2.65509 4.84082,3.20536 -0.55029,0.55027 -3.17888,0.17227 -5.84132,-0.83997 -4.71055,-1.79094 -4.84082,-1.65087 -4.84082,5.20492 0,9.07367 5.76079,16.71298 12.60322,16.71298 l 4.9987,0 -1.30503,-13.30051 z m 269.80529,5.46835 c 4.01083,-3.42059 5.57792,-6.06809 4.79675,-8.10378 -0.94837,-2.47141 -2.48901,-1.64053 -8.4382,4.55085 -11.74141,12.21928 -9.30622,14.59526 3.64145,3.55293 z m -165.02178,2.32851 c 0,-1.009 -1.28705,-1.83455 -2.86011,-1.83455 -1.57305,0 -2.34987,0.82555 -1.72627,1.83455 0.6236,1.009 1.91065,1.83455 2.8601,1.83455 0.94945,0 1.72628,-0.82555 1.72628,-1.83455 z m 46.78106,0 c 0.6236,-1.009 -0.61472,-1.83455 -2.75183,-1.83455 -2.13711,0 -3.37543,0.82555 -2.75183,1.83455 0.6236,1.009 1.86193,1.83455 2.75183,1.83455 0.8899,0 2.12823,-0.82555 2.75183,-1.83455 z m 64.9737,-3.14998 c 0.4204,-0.28551 -1.41116,-0.51912 -4.07017,-0.51912 -3.57962,0 -4.5558,0.72646 -3.76061,2.79864 0.8755,2.28156 1.62754,2.37747 4.07015,0.51912 1.64792,-1.25373 3.3402,-2.51313 3.76063,-2.79864 z m -256.68433,-8.78057 0,-4.51775 -6.879562,3.81064 c -9.142068,5.06386 -10.323446,6.35353 -8.993909,9.81826 1.003004,2.61376 1.922609,2.52383 8.499089,-0.83125 5.594632,-2.85418 7.374382,-4.85248 7.374382,-8.2799 z m 154.15701,8.36361 c -2.25729,-4.21778 -3.02262,-4.71114 -9.8398,-6.343 -6.90446,-1.65276 -4.88216,1.51632 3.9417,6.17692 8.42142,4.44802 8.18617,4.44139 5.8981,0.16603 z m 121.02571,-1.21572 c 0,-0.39654 -1.23833,-0.721 -2.75183,-0.721 -1.51351,0 -2.75183,0.79965 -2.75183,1.77699 0,0.97732 1.23832,1.30178 2.75183,0.72099 1.5135,-0.5808 2.75183,-1.38042 2.75183,-1.77698 z m -77.05116,-1.62396 c 0,-0.2613 -2.06387,-5.14183 -4.58638,-10.84567 -2.52251,-5.70384 -4.58638,-11.88848 -4.58638,-13.74363 0,-1.92574 -3.2828,-5.54545 -7.65103,-8.43621 -7.28125,-4.8185 -7.76894,-4.902 -10.09004,-1.72771 -3.39443,4.64216 -3.26361,5.30046 4.22507,21.25851 5.55511,11.83776 7.4631,14.29907 11.46594,14.79086 4.48678,0.55124 11.22282,-0.22672 11.22282,-1.29615 z m -26.66146,-12.32248 c -3.48598,-7.274 -6.85249,-15.96723 -7.48116,-19.31831 -0.97248,-5.18377 -1.7269,-5.91372 -5.05619,-4.89218 -2.15224,0.66039 -4.00422,1.30453 -4.11552,1.43144 -0.31448,0.35852 3.13884,31.30659 3.5272,31.61032 0.18934,0.14805 2.27261,0.8627 4.62947,1.58803 3.93185,1.21003 4.11112,0.99353 2.1742,-2.62563 -1.16103,-2.16943 -1.80367,-4.8663 -1.4281,-5.99304 0.37558,-1.12676 1.74904,0.52529 3.05212,3.67119 2.06277,4.97995 4.20358,6.63879 9.73182,7.54082 0.71735,0.11704 -1.54789,-5.73866 -5.03384,-13.01264 z m 47.59754,2.67676 c -2.38592,-5.80177 -4.35763,-11.48692 -4.38157,-12.63364 -0.024,-1.14674 -2.52019,-2.59145 -5.5472,-3.21046 -3.02701,-0.61903 -7.9803,-1.63197 -11.00731,-2.25099 -6.72367,-1.37499 -6.9087,0.17149 -1.67119,13.96734 5.26339,13.86408 6.22012,14.67643 17.28471,14.67643 l 9.6606,0 -4.33804,-10.54868 z m 22.08103,6.58071 c -3.30474,-10.41229 -6.45043,-15.65866 -10.77735,-17.97434 -2.59682,-1.38979 -4.72149,-3.21293 -4.72149,-4.05142 0,-0.8385 -1.99269,-1.52455 -4.42821,-1.52455 l -4.4282,0 3.26073,8.71411 c 6.75089,18.04139 7.36696,18.80417 15.18653,18.80417 6.51244,0 7.05229,-0.36258 5.90799,-3.96797 z m 23.02674,0.84786 c 0,-1.71554 -6.42952,-12.4799 -8.25548,-13.82142 -5.33231,-3.91757 -14.77776,1.66932 -12.88808,7.62317 2.09946,6.61477 5.51844,8.58852 13.55053,7.82253 4.17618,-0.39827 7.59303,-1.12919 7.59303,-1.62428 z m 41.49173,-2.91129 6.58137,-6.03138 -2.8456,-6.81048 c -3.36515,-8.0539 -9.49354,-9.14428 -16.61129,-2.95549 -4.10453,3.56884 -4.25374,4.28279 -2.0101,9.61881 1.37113,3.26095 4.2861,6.28735 6.71284,6.96946 2.9385,0.82593 3.27827,1.26321 1.07889,1.3885 -1.76576,0.10053 -3.21047,1.00841 -3.21047,2.01741 0,3.37864 3.66848,1.88453 10.30436,-4.19683 z m 33.72487,3.17128 c 0,-1.57305 -0.83901,-2.34154 -1.86447,-1.70778 -1.02546,0.63376 -1.38952,1.92081 -0.809,2.8601 1.57263,2.54462 2.67347,2.07015 2.67347,-1.15232 z m -211.47442,-4.59863 c -1.42061,-2.27475 -2.54717,-2.71868 -3.3995,-1.33961 -0.85321,1.38056 -3.14572,0.48831 -6.9327,-2.69824 -5.55474,-4.67399 -12.57586,-7.90053 -14.02929,-6.44711 -1.59734,1.59735 5.08575,8.77094 8.17124,8.77094 1.80441,0 4.66776,1.53264 6.36301,3.40588 1.96604,2.17244 4.68838,3.09887 7.51712,2.55812 3.80638,-0.72764 4.13374,-1.32989 2.31012,-4.24998 z m 159.7041,2.75271 c 1.76891,-0.54617 1.41994,-2.54621 -1.41321,-8.09966 -3.76628,-7.38252 -6.14907,-8.97792 -8.27394,-5.53983 -0.6236,1.00901 -2.98386,1.83455 -5.24502,1.83455 -6.3223,0 -8.49285,3.18258 -6.35435,9.31708 1.73875,4.9878 2.24865,5.19549 10.38307,4.22925 4.70498,-0.55888 9.61152,-1.34249 10.90345,-1.74139 z m 45.71181,-0.16328 c 1.28973,-3.36101 -2.34098,-18.90043 -5.05608,-21.63999 -1.08925,-1.09905 -2.57433,-0.83023 -4.02045,0.72776 -1.85508,1.99861 -1.80093,2.18979 0.28345,1.00075 2.99902,-1.71081 1.85185,0.57032 -4.64376,9.23427 -2.89591,3.86259 -3.64993,6.37343 -2.47916,8.25548 1.38345,2.22391 2.34014,2.29704 5.38268,0.41143 5.43585,-3.36886 6.61037,-2.79837 2.8327,1.37592 -3.2422,3.58258 -3.20428,3.6691 1.6078,3.6691 2.89252,0 5.40932,-1.25357 6.09282,-3.03472 z M 116.93093,179.6476 c -1.59261,-1.91897 -2.73264,-2.03912 -4.60486,-0.48533 -3.36552,2.79312 -1.55347,5.19965 3.01553,4.00483 2.92822,-0.76574 3.26174,-1.50435 1.58933,-3.5195 z m -19.107133,-1.03615 c 9.457263,-4.59469 11.581253,-9.4908 3.056623,-7.04598 -8.251192,2.36642 -13.097581,5.47213 -13.097581,8.39336 0,3.45969 0.202516,3.43252 10.040958,-1.34738 z m 155.994573,-0.093 -1.1559,-4.12774 3.37941,4.18877 c 3.33092,4.12871 3.36075,3.98399 2.08007,-10.09003 -0.71463,-7.85334 -1.35806,-14.48519 -1.42985,-14.73744 -0.0717,-0.2523 -1.78163,-0.45869 -3.79963,-0.45869 -2.01801,0 -3.6691,-0.82555 -3.6691,-1.83455 0,-1.00901 1.78868,-1.83455 3.97486,-1.83455 2.18616,0 3.48013,-0.49474 2.87544,-1.09942 -0.60467,-0.60468 -4.56033,-0.5147 -8.79032,0.19996 l -7.6909,1.29937 1.20728,10.27206 c 1.81314,15.42699 3.01672,18.82214 7.28331,20.54537 6.09097,2.46008 6.97457,2.10217 5.73533,-2.32317 z m -3.67773,-6.87963 c -0.6236,-1.009 -0.25955,-1.83455 0.809,-1.83455 1.06855,0 1.94283,0.82555 1.94283,1.83455 0,1.00901 -0.36405,1.83455 -0.809,1.83455 -0.44495,0 -1.31923,-0.82554 -1.94283,-1.83455 z m -40.73313,4.64402 c -1.81285,-2.49079 -4.23972,-4.55466 -5.39301,-4.58637 -1.15331,-0.0317 -2.55555,-1.2528 -3.11608,-2.71354 -1.15197,-3.00201 -12.21525,-9.27288 -12.21525,-6.92385 0,2.20116 12.81946,14.30305 12.95815,12.23282 0.064,-0.95469 0.8629,0.12163 1.77543,2.39194 0.97467,2.42487 3.23253,4.12774 5.47301,4.12774 3.72231,0 3.73473,-0.10879 0.51775,-4.52874 z m 241.61651,-3.75668 c 0,-1.33231 -1.71195,-1.88583 -4.30151,-1.39081 -3.43879,0.65737 -4.12881,1.72567 -3.44045,5.32666 0.81832,4.28072 1.0319,4.34977 4.30151,1.39081 1.89225,-1.71247 3.44045,-4.10945 3.44045,-5.32666 z m -330.9113,-2.77025 c -3.65538,-3.20945 -6.64616,-7.17218 -6.64616,-8.806 0,-2.03095 1.86115,-0.95528 5.88363,3.4005 l 5.88364,6.37114 1.48206,-8.62455 c 1.22583,-7.13345 0.84415,-9.67089 -2.20766,-14.67642 -2.02936,-3.32851 -3.65635,-7.70294 -3.61552,-9.72095 0.0521,-2.57954 1.2173,-1.50028 3.92356,3.6344 3.37847,6.41011 4.01326,6.85893 5.18939,3.66911 0.73702,-1.99892 0.82581,-8.99117 0.19731,-15.53833 -1.41515,-14.74188 -4.63949,-16.17283 -11.48712,-5.09793 -7.90873,12.79109 -7.95443,14.66301 -0.59323,24.30669 8.27037,10.83479 7.17168,12.89114 -1.48449,2.77835 l -6.43725,-7.52048 -0.74524,7.81448 c -1.05624,11.07588 0.31973,18.16604 3.78189,19.48732 1.63947,0.62569 4.58613,2.62855 6.54811,4.45082 2.19443,2.03815 4.22264,2.65783 5.27024,1.61023 1.0476,-1.04761 -0.85474,-3.94867 -4.94316,-7.53838 z m 117.34963,-5.57632 c -1.542,-11.15641 -2.25345,-12.84211 -5.10535,-12.09632 -1.82254,0.4766 -3.3137,0.11829 -3.3137,-0.79625 0,-0.91454 1.6511,-1.6628 3.6691,-1.6628 2.41341,0 3.66911,-1.22304 3.66911,-3.57367 0,-3.18664 -0.60564,-3.36255 -5.59223,-1.62421 -5.44838,1.89931 -5.58221,2.2272 -5.20261,12.74642 0.2143,5.93833 1.16803,10.79696 2.11941,10.79696 0.95138,0 1.23814,1.2812 0.63723,2.84711 -0.60089,1.5659 -0.36998,2.40055 0.51314,1.85475 0.88312,-0.54579 2.62583,0.23688 3.87272,1.73927 5.14876,6.20388 6.57782,3.11483 4.73318,-10.23126 z m -50.65053,8.33217 c -1.27634,-1.53789 -2.69841,-2.41836 -3.16016,-1.95661 -1.27225,1.27227 1.31271,4.75278 3.52986,4.75278 1.21649,0 1.0773,-1.05263 -0.3697,-2.79617 z m -83.01511,-7.7273 c 1.66761,-4.34574 -0.78117,-4.5113 -8.497879,-0.57454 -10.438396,5.32526 -10.425847,10.11131 0.01651,6.00973 4.142457,-1.62719 7.959409,-4.07303 8.482109,-5.43519 z m 322.96131,-7.50423 c -1.89982,-0.3297 -4.54248,0.3037 -5.87254,1.40757 -1.33009,1.10386 -3.96768,1.44003 -5.86132,0.74702 -3.22395,-1.17983 -3.25255,-1.03595 -0.44952,2.26153 1.64642,1.93686 3.57598,5.43087 4.28793,7.76448 1.22495,4.01515 1.56436,3.81817 6.32207,-3.66911 4.65987,-7.33329 4.77495,-7.95587 1.57338,-8.51149 z m -205.05293,1.51674 c 0,-8.56124 -0.61151,-11.00731 -2.75182,-11.00731 -4.03145,0 -3.35833,-3.08256 0.91727,-4.20066 2.01801,-0.52772 3.66911,-1.95182 3.66911,-3.16467 0,-2.11481 -4.39464,-1.69126 -11.75416,1.13286 -1.60723,0.61675 -2.92226,0.29938 -2.92226,-0.70529 0,-1.00466 2.88942,-2.36871 6.42093,-3.03123 4.02451,-0.755 6.42093,-2.25498 6.42093,-4.01903 0,-2.21378 -1.27253,-2.54237 -5.96229,-1.53959 -3.27926,0.70119 -6.78784,1.93501 -7.79684,2.74182 -1.009,0.80682 -2.06721,7.75746 -2.35158,15.44586 l -0.51704,13.9789 6.02069,2.61602 c 9.96022,4.32774 10.60706,3.82478 10.60706,-8.24768 z m -39.37578,5.61216 c -0.66968,-1.08358 -4.45242,-3.53301 -8.40608,-5.44321 -7.06005,-3.41105 -7.15512,-3.41081 -5.32246,0.0136 1.02629,1.91759 3.38693,3.48657 5.2459,3.48657 1.85895,0 4.42421,1.25826 5.70054,2.79616 2.52207,3.03892 4.76285,2.35181 2.7821,-0.8531 z m 267.29735,-0.0449 c 1.77693,-2.0753 2.33927,-4.06779 1.32499,-4.69465 -0.9692,-0.59902 -1.76218,-2.63251 -1.76218,-4.5189 0,-8.23384 -13.0122,-12.4322 -19.23748,-6.20694 -2.76175,2.76175 -2.66725,3.16233 1.24488,5.27765 3.72001,2.01144 4.73409,1.74781 8.3612,-2.17361 2.27026,-2.45447 4.12774,-3.71904 4.12774,-2.81016 0,0.90889 -1.62046,3.11902 -3.60104,4.91141 -3.31681,3.00169 -3.3855,3.67569 -0.87016,8.53981 3.20072,6.1895 6.14175,6.66272 10.41205,1.67537 z m -68.31559,0.21018 c 0,-0.85842 -0.92073,-4.20196 -2.04604,-7.43007 -1.94998,-5.5937 -2.44529,-5.84344 -10.54867,-5.31877 -10.42059,0.67469 -11.18891,4.09773 -2.26905,10.10884 6.14078,4.13826 14.86376,5.68757 14.86376,2.64 z m -28.23927,-3.17562 c -0.61247,-1.59602 -1.11356,-4.37045 -1.11356,-6.16539 0,-2.56436 -2.04024,-3.50516 -9.52341,-4.39143 -5.23788,-0.62035 -9.9125,-0.73883 -10.38804,-0.26329 -0.47555,0.47554 0.0882,2.9561 1.25302,5.51235 2.34637,5.14972 7.69547,7.91698 15.64425,8.09334 4.04964,0.0899 4.98811,-0.54347 4.12774,-2.78558 z m 36.37594,-0.95946 c -1.60086,-2.59024 -4.46757,-1.91525 -4.46757,1.05194 0,1.63656 1.07615,2.28128 2.7413,1.6423 1.5077,-0.57856 2.28453,-1.79097 1.72627,-2.69424 z M 100.6247,158.79701 c 2.37151,-1.53258 2.32307,-1.78225 -0.35036,-1.80646 -1.706212,-0.0154 -3.612419,0.79746 -4.23602,1.80646 -1.434949,2.32181 0.993648,2.32181 4.58638,0 z m 100.52859,-10.52444 c 0.46279,-9.7059 0.11485,-11.27646 -2.29319,-10.3524 -1.56129,0.59913 -2.83873,0.17546 -2.83873,-0.9415 0,-1.11695 1.23833,-2.03083 2.75183,-2.03083 1.51351,0 2.75183,-1.23832 2.75183,-2.75182 0,-3.18857 -2.2955,-3.41579 -10.56078,-1.04534 -3.2726,0.93857 -5.95018,1.03657 -5.95018,0.21779 0,-0.81879 3.77477,-2.4392 8.38839,-3.60093 5.18076,-1.30452 8.08558,-2.96622 7.59649,-4.34552 -0.98897,-2.789 -7.92249,-2.42247 -15.31025,0.80936 l -5.62567,2.46098 2.37703,13.75423 c 2.55225,14.76796 6.97042,20.86796 14.35051,19.81324 3.32989,-0.4759 3.88682,-2.00615 4.36272,-11.98726 z m 265.21057,9.60717 c -0.5808,-1.51351 -1.7932,-2.75183 -2.69426,-2.75183 -0.90104,0 -1.63827,1.23832 -1.63827,2.75183 0,1.5135 1.21242,2.75182 2.69426,2.75182 1.64117,0 2.2815,-1.07557 1.63827,-2.75182 z M 325.0863,155.56632 c 1.97341,-3.19304 -4.0723,-7.44207 -12.147,-8.53713 l -8.6456,-1.17249 2.07326,4.55031 c 1.1403,2.50268 3.40295,4.90571 5.02812,5.34007 5.13121,1.37144 12.79444,1.27026 13.69122,-0.18075 z M 152.74979,138.6169 c -2.16264,-8.14015 -2.27004,-11.86266 -0.5557,-19.26279 2.33439,-10.0768 6.05075,-18.43754 10.40045,-23.398069 2.40136,-2.73855 2.47711,-4.26232 0.50845,-10.227432 -1.27233,-3.855189 -2.43529,-12.044964 -2.58435,-18.1995 l -0.27102,-11.190065 -3.78272,3.52628 c -2.08049,1.939453 -6.44778,3.836581 -9.70508,4.215837 -3.25731,0.379257 -6.09838,1.000372 -6.31352,1.380258 -0.21512,0.379884 -2.08218,3.167344 -4.149,6.194354 -6.46443,9.467606 -9.49168,17.942198 -10.64908,29.811457 -0.91045,9.33657 -0.62101,11.46595 1.55849,11.46595 3.55303,0 8.27447,9.40605 8.27447,16.4844 0,5.1948 0.31873,5.48873 3.88314,3.58112 6.00511,-3.21384 9.84868,1.83133 9.86374,12.94741 0.011,8.51838 0.1964,8.86995 3.10732,5.90904 2.82398,-2.87246 2.86029,-4.03204 0.41441,-13.23825 z m 21.25691,15.13505 c -4e-5,-0.75676 -2.88945,-3.68137 -6.42093,-6.49914 -8.07199,-6.44065 -8.3395,-5.11646 -0.45858,2.26992 6.44221,6.03795 6.8796,6.30684 6.87951,4.22922 z m 237.81318,-2.76181 c -1.65246,-9.11276 -17.28359,-30.71876 -22.22387,-30.71876 -1.10145,0 -4.65723,2.27026 -7.90176,5.04502 l -5.89915,5.04502 2.51726,8.25548 c 2.42862,7.96483 2.76794,8.25187 9.63754,8.15297 3.91617,-0.0564 10.42249,-0.65407 14.45851,-1.3282 l 7.3382,-1.22568 -7.3382,2.56312 c -4.03602,1.40972 -9.81485,2.65282 -12.84186,2.76245 -5.24293,0.18989 -5.33495,0.32693 -1.94255,2.89282 2.18528,1.65286 7.69212,2.69348 14.25365,2.69348 10.09495,0 10.65062,-0.23125 9.94223,-4.13772 z m 10.81713,0.82292 c -0.56484,-0.56483 -2.04514,-0.001 -3.28959,1.2526 -1.79833,1.81184 -1.58762,2.02256 1.02699,1.02698 1.80927,-0.68894 2.82744,-1.71474 2.2626,-2.27958 z m -316.23114,-7.69251 c 0.32952,-3.53151 -0.76077,-10.13589 -2.42288,-14.67641 -1.6621,-4.54051 -3.71683,-11.03571 -4.566072,-14.43377 l -1.544046,-6.17829 -4.288429,7.63125 c -2.809744,4.99996 -3.704033,8.39539 -2.593579,9.84739 0.932154,1.21888 4.030032,7.81755 6.884172,14.66371 5.442384,13.05454 7.534304,13.82602 8.530834,3.14612 z m 196.01949,8.12444 c 0,-2.6844 -5.70869,-6.28989 -9.95899,-6.28989 -5.43684,0 -6.17837,2.63586 -1.50696,5.35671 3.44857,2.00861 11.46595,2.66112 11.46595,0.93318 z m 163.35304,-5.70794 c -2.19646,-1.53845 -3.55122,-3.94985 -3.01061,-5.35867 0.54062,-1.40882 0.23893,-2.56148 -0.67042,-2.56148 -2.37648,0 -4.5802,7.97379 -2.4042,8.69913 0.99981,0.33327 3.37961,1.7568 5.28846,3.1634 2.09693,1.54521 3.73179,1.8247 4.13048,0.70614 0.36291,-1.01823 -1.13726,-3.11006 -3.33371,-4.64852 z m -288.15635,-7.31603 c -1.21487,-5.88178 -3.14447,-11.37617 -4.28801,-12.20973 -1.52185,-1.10937 -1.46446,-1.76498 0.21408,-2.44607 4.71327,-1.91247 2.19282,-4.56332 -3.21047,-3.37656 -6.66068,1.46293 -7.52668,-1.84632 -0.91727,-3.50518 2.86546,-0.71918 4.58638,-2.45027 4.58638,-4.6135 0,-2.5592 -0.95713,-3.21211 -3.66911,-2.50291 -2.05137,0.53644 -3.6691,0.0563 -3.6691,-1.08903 0,-1.12668 1.23832,-2.04852 2.75183,-2.04852 1.5135,0 2.75182,-0.82554 2.75182,-1.83455 0,-1.009 2.27026,-1.84719 5.04502,-1.86264 2.77476,-0.0154 6.28334,-0.9105 7.79685,-1.98901 3.80963,-2.714679 -7.64005,-0.67895 -17.69805,3.14669 -6.52568,2.48209 -7.91481,3.98951 -9.76455,10.59616 -1.18609,4.23631 -1.89023,10.96738 -1.56474,14.95792 0.48212,5.91086 1.35753,7.36428 4.72355,7.84229 2.27247,0.32272 4.98455,2.1802 6.02685,4.12774 1.04228,1.94754 3.00327,3.54098 4.35772,3.54098 1.35445,0 3.50692,1.25828 4.78326,2.79616 3.67024,4.42238 4.11916,1.96915 1.74394,-9.53024 z m 172.50164,9.30962 c 0,-0.60146 -1.29673,-5.5542 -2.88166,-11.00609 -3.88323,-13.35785 -6.51273,-15.71989 -15.83957,-14.22847 -5.92013,0.94667 -7.27678,0.66416 -6.60449,-1.37529 0.52154,-1.58211 4.06872,-2.77851 9.24722,-3.11891 9.62521,-0.63269 12.89073,2.42319 16.27331,15.22864 3.48185,13.18121 6.04977,15.59369 16.59849,15.59369 l 9.37049,0 -0.98437,-6.06594 c -0.54139,-3.33626 -2.26833,-9.1389 -3.83762,-12.89475 -2.57162,-6.15477 -3.35831,-6.7081 -7.96979,-5.6057 -2.81409,0.67273 -6.1684,2.0525 -7.45406,3.06616 -3.0989,2.44333 -5.36623,0.0346 -2.58517,-2.74643 2.88844,-2.88845 2.74826,-5.10617 -0.32277,-5.10617 -1.37152,0 -6.11842,-2.8814 -10.54868,-6.40312 -9.33216,-7.41835 -17.60325,-8.43621 -22.70882,-2.7946 -3.18499,3.51936 -3.13978,4.00619 1.32005,14.21777 2.53988,5.8155 5.73159,13.21822 7.09268,16.45048 2.10844,5.00703 3.56802,5.97782 9.86154,6.55906 4.06276,0.37522 8.41878,0.82645 9.68003,1.00273 1.26126,0.17628 2.29319,-0.17161 2.29319,-0.77306 z m 104.56943,-4.41009 c 0,-1.89891 -0.83138,-3.96638 -1.8475,-4.59438 -2.35777,-1.45719 -4.39351,3.69584 -2.94811,7.46249 1.41063,3.67602 4.79561,1.65156 4.79561,-2.86811 z m -201.16069,-0.008 c 1.91219,-1.78751 -8.98348,-4.39046 -11.60251,-2.77181 -1.03362,0.63881 -1.87931,2.41667 -1.87931,3.9508 0,2.1816 1.29903,2.5156 5.96229,1.53301 3.27926,-0.69098 6.66305,-1.91138 7.51953,-2.712 z m 12.66054,2.4618 c -1.26126,-0.50893 -3.32513,-0.50893 -4.58638,0 -1.26126,0.50892 -0.22932,0.92532 2.29319,0.92532 2.5225,0 3.55444,-0.4164 2.29319,-0.92532 z m 57.31382,-4.74729 c -2.2866,-7.99579 -11.02721,-24.14335 -14.04019,-25.93809 -2.27158,-1.35312 -4.67634,-0.70084 -9.43339,2.55874 l -6.38462,4.37482 3.92973,8.35567 c 5.08854,10.81952 10.13474,14.17605 21.94027,14.59374 4.51696,0.1598 5.01981,-0.33758 3.9882,-3.94488 z m 107.1217,1.28562 c 0.39013,-0.39013 -0.40023,-3.38807 -1.75639,-6.66209 -2.26921,-5.47839 -22.45201,-27.20189 -25.24784,-27.17521 -0.66872,0.006 -2.58195,2.41296 -4.25163,5.34796 -2.93873,5.16575 -2.89052,5.47285 1.508,9.60504 2.49908,2.34777 6.24371,7.29327 8.3214,10.99001 2.07766,3.69673 5.5268,7.58696 7.66473,8.64497 3.4164,1.69067 11.77639,1.23465 13.76173,-0.75068 z M 272.14155,132.10035 c -2.46706,-6.00143 -4.50518,-13.14093 -4.52912,-15.86555 -0.0242,-2.74623 -1.47426,-5.78717 -3.25402,-6.82378 -1.76575,-1.02846 -2.49022,-1.89503 -1.60992,-1.92571 0.8803,-0.0307 0.57283,-1.29411 -0.68326,-2.80761 -2.77311,-3.3414 -8.45874,-3.61198 -9.63727,-0.45864 -1.44293,3.86073 5.24025,28.71821 8.76972,32.61824 2.6879,2.97009 13.40971,7.57385 15.02806,6.45278 0.22075,-0.15293 -1.61714,-5.18831 -4.08419,-11.18973 z m 22.79531,10.31735 c 2.14698,-1.35894 1.36381,-4.42451 -4.48221,-17.54441 -7.41098,-16.63208 -11.56806,-21.33029 -17.50079,-19.77884 -4.30582,1.126 -4.36444,2.56883 -0.6216,15.3026 4.64068,15.78843 9.7661,23.72841 15.29586,23.69541 2.58896,-0.0154 5.8779,-0.76909 7.30874,-1.67476 z M 234.697,140.45145 c 0.92647,0 1.68451,-1.32665 1.68451,-2.9481 0,-1.93458 -0.99763,-2.56528 -2.90188,-1.83456 -1.59602,0.61246 -3.65989,1.11356 -4.58638,1.11356 -0.92646,0 -1.6845,1.32664 -1.6845,2.9481 0,1.93457 0.99763,2.56527 2.90187,1.83455 1.59603,-0.61245 3.6599,-1.11355 4.58638,-1.11355 z M 443.43877,137.606 c 0.57987,-2.99234 0.27067,-3.12707 -2.29319,-0.99926 -3.5063,2.90996 -3.94287,6.31114 -0.67023,5.22148 1.26125,-0.41995 2.59479,-2.31995 2.96342,-4.22222 z m 6.54926,-2.47115 c -1.15153,-1.15154 -4.42619,3.50784 -4.38122,6.23387 0.0165,1.00901 1.23379,0.24372 2.70477,-1.70062 1.471,-1.94435 2.2254,-3.98431 1.67645,-4.53325 z m -11.80587,-0.18706 c 1.72692,-3.22676 1.39516,-3.6691 -2.75183,-3.6691 -4.14698,0 -4.47874,0.44234 -2.75183,3.6691 1.08,2.01801 2.31833,3.66911 2.75183,3.66911 0.43351,0 1.67183,-1.6511 2.75183,-3.66911 z m 18.24606,-10.20987 c -3.22303,-3.88351 -4.94556,-3.21445 -4.94556,1.92094 0,2.5041 0.72235,4.10648 1.60523,3.56083 0.88288,-0.54565 1.60523,0.57014 1.60523,2.47952 0,1.90939 0.61916,4.10088 1.37591,4.86998 2.33423,2.3723 2.68148,-10.03307 0.35919,-12.83127 z m -202.55939,8.83396 c -0.68792,-1.76575 -2.53063,-8.9893 -4.09492,-16.05232 -2.99923,-13.54194 -8.62468,-21.855699 -15.85494,-23.431759 -2.17712,-0.47457 -5.39615,-1.46744 -7.15339,-2.20639 -6.0388,-2.53938 -5.53991,4.27346 1.3951,19.051739 5.30785,11.31086 7.497,14.30692 9.81899,13.43826 2.58641,-0.96758 2.65209,-0.70461 0.48842,1.95571 -2.1569,2.65198 -2.03107,3.25124 0.91727,4.36858 1.87939,0.71223 4.50797,2.37309 5.84131,3.69081 1.33331,1.31771 4.10468,2.39584 6.15857,2.39584 2.80994,0 3.42472,-0.79471 2.48359,-3.21047 z m -21.15643,-2.18371 c 0,-2.36661 -2.1302,-3.54997 -4.64989,-2.58308 -1.35115,0.51849 -2.02767,2.06057 -1.50338,3.42686 0.94122,2.45276 6.15327,1.73805 6.15327,-0.84378 z m -17.42824,-1.94403 c 3.25129,-1.39712 3.0946,-1.59135 -1.37591,-1.70561 -2.77476,-0.0709 -5.64354,-0.19086 -6.37507,-0.26653 -0.73152,-0.0757 -1.62587,0.74987 -1.98742,1.83455 -0.77137,2.3141 4.50006,2.38858 9.7384,0.13759 z m 227.48438,-4.65093 c 4.48936,-2.16235 4.66108,-2.43643 0.93166,-1.48718 -3.9021,0.9932 -4.23905,0.76253 -2.29967,-1.57428 1.84796,-2.22666 1.62235,-3.32621 -1.20816,-5.88778 -2.27892,-2.06239 -3.89743,-2.4752 -4.68818,-1.19575 -0.66422,1.07473 -1.9915,1.95406 -2.9495,1.95406 -0.958,0 -0.73954,-1.60491 0.48548,-3.56648 1.84548,-2.9551 1.62737,-4.22938 -1.27236,-7.43356 l -3.49966,-3.86707 -5.64567,6.05764 -5.64568,6.05764 5.40607,6.87957 c 5.97684,7.60594 10.96587,8.60033 20.38567,4.06319 z m -61.42495,-7.87433 c -1.44192,-0.48064 -1.40884,-1.41007 0.11558,-3.24683 2.75137,-3.31521 0.45664,-3.27129 -9.32082,0.17841 -9.54385,3.36727 -15.61396,3.7167 -10.22385,0.58855 1.94442,-1.12844 7.31049,-3.14697 11.92458,-4.48562 l 8.3893,-2.43392 -8.25548,0.84795 -8.25548,0.84794 5.50365,-2.55352 5.50365,-2.55353 -7.3382,-1.13629 c -4.03601,-0.62496 -10.79584,-1.81537 -15.02186,-2.64536 -9.00297,-1.768179 -12.41951,-0.26952 -10.82664,4.74912 2.34013,7.37313 9.74471,12.09962 20.33074,12.97749 8.69161,0.72078 10.10414,1.3638 10.10414,4.59963 0,3.62343 0.17263,3.59956 4.69546,-0.64944 2.58251,-2.42614 3.78638,-4.7142 2.67527,-5.08457 z m -169.26903,4.72842 c -1.15582,-3.47132 -6.88043,-3.96484 -6.88043,-0.59316 0,1.7018 1.56854,2.88635 3.82198,2.88635 2.24178,0 3.5063,-0.94813 3.05845,-2.29319 z m -19.26365,-2.56667 c 2.77476,-0.60634 5.04502,-1.77607 5.04502,-2.5994 0,-3.25304 -3.9932,-3.65511 -9.41896,-0.94838 -3.13671,1.5648 -6.42839,2.39684 -7.31483,1.84899 -0.88646,-0.54785 -1.61173,0.38723 -1.61173,2.07796 0,2.31316 1.02172,2.78312 4.12774,1.89866 2.27026,-0.64647 6.398,-1.6715 9.17276,-2.27783 z m 34.39784,2.16034 c 0,-0.47573 -2.1287,-5.63541 -4.73047,-11.46595 -3.33024,-7.46306 -4.47245,-12.603989 -3.85879,-17.367869 0.63842,-4.955994 -0.001,-7.556756 -2.38969,-9.718403 -2.99747,-2.712683 -3.50168,-2.711195 -6.23125,0.01836 -6.13194,6.131953 -2.91019,26.264362 5.79118,36.188362 2.47085,2.81804 11.41902,4.65602 11.41902,2.3455 z m 228.88186,-4.65679 c -1.28864,-2.06345 -2.6058,-2.77791 -2.99096,-1.62238 -0.37856,1.13565 0.44427,2.78226 1.82851,3.65911 3.61269,2.2885 3.73251,2.07857 1.16245,-2.03673 z m -161.65023,-3.94876 c -0.31191,-6.68932 -7.2219,-14.763919 -11.29647,-13.200369 -3.00419,1.152819 -3.7494,4.325369 -1.01599,4.325369 0.94442,0 3.5731,3.30219 5.84146,7.33821 4.97221,8.84685 6.83244,9.28864 6.471,1.53679 z m -87.4117,2.13231 c 0,-1.009 -0.36405,-1.83455 -0.809,-1.83455 -0.44495,0 -1.31922,0.82555 -1.94282,1.83455 -0.6236,1.009 -0.25956,1.83455 0.809,1.83455 1.06855,0 1.94282,-0.82555 1.94282,-1.83455 z m 188.9588,-1.22304 c 0,-3.01449 -1.51787,-3.00048 -7.04463,0.065 -4.26234,2.36417 -4.25258,2.38106 1.37592,2.38106 3.50089,0 5.66871,-0.93542 5.66871,-2.44607 z m -206.59507,-6.45178 c -2.65438,-4.29487 -12.8739,0.17814 -11.0811,4.85012 1.08424,2.82547 1.56779,2.81435 6.5885,-0.15146 2.9801,-1.76039 5.00178,-3.87479 4.4926,-4.69866 z m 118.87463,3.88943 c 4.22061,-0.11552 4.22255,-0.12669 0.29898,-1.70945 -5.06936,-2.04497 -11.64432,-0.33887 -11.64432,3.02152 0,2.00444 0.81537,2.16605 3.5485,0.70331 1.95167,-1.0445 5.46025,-1.95142 7.79684,-2.01538 z m 115.40341,-7.52968 c 2.78553,-5.204809 0.9789,-3.980949 -3.83947,2.60095 -2.70092,3.68947 -3.14393,4.97081 -1.16212,3.36135 1.76146,-1.43052 4.01218,-4.11355 5.00159,-5.9623 z m 25.19353,3.42802 c 0.34609,-1.81536 -0.8463,-5.53033 -2.64977,-8.255479 l -3.27904,-4.95481 -2.13511,7.338199 c -1.17431,4.03602 -1.75308,8.00458 -1.28613,8.81903 1.53774,2.68217 8.7077,0.42235 9.35005,-2.94694 z m -246.35644,-4.56864 c -0.64598,-3.823609 -0.3422,-10.634389 0.6751,-15.135043 2.25341,-9.969356 -1.90001,-20.667409 -8.38243,-21.590832 -3.69186,-0.525905 -4.01639,0.317911 -4.58638,11.924584 -0.83749,17.054252 0.0543,24.415121 2.95799,24.415121 1.33189,0 2.85339,1.6511 3.38112,3.6691 0.52772,2.01801 2.34765,3.66911 4.04432,3.66911 2.55401,0 2.88272,-1.19628 1.91028,-6.95204 z m 210.82599,5.81245 c 1.63333,-0.62678 4.171,-3.46263 5.63924,-6.30189 2.49494,-4.824689 2.41554,-5.242919 -1.21416,-6.394939 -4.08683,-1.29711 -7.01569,1.4342 -7.06664,6.589939 -0.0147,1.56395 -1.01874,3.83421 -2.22954,5.04501 -2.47547,2.47546 -0.13961,2.98467 4.8711,1.06188 z m -7.71466,-3.76481 c 2.80232,-1.66153 1.25168,-4.26836 -2.53898,-4.26836 -5.91294,0 -18.09972,4.01711 -18.09972,5.96619 0,1.61181 17.48232,0.17364 20.6387,-1.69783 z m 47.77126,-0.59926 c 0.52773,-2.01801 0.21123,-3.6691 -0.70331,-3.6691 -0.91454,0 -1.6628,1.65109 -1.6628,3.6691 0,2.01801 0.3165,3.6691 0.70331,3.6691 0.38682,0 1.13507,-1.65109 1.6628,-3.6691 z m -285.75576,-3.3148 c -0.56482,-0.564829 -2.04514,-0.001 -3.28959,1.2526 -1.79834,1.81184 -1.58762,2.02256 1.02698,1.02698 1.80927,-0.68893 2.82745,-1.71474 2.26261,-2.27958 z m 99.4383,-2.371689 c -1.80446,-2.94543 -3.47849,-3.4565 -8.36961,-2.55519 -4.10215,0.75592 -7.57327,0.1705 -10.54867,-1.77905 -4.83558,-3.1684 -5.41218,-2.57186 -2.59754,2.68737 1.40598,2.62709 3.23587,3.21391 7.79684,2.50033 3.71099,-0.58059 7.3365,0.0939 9.60858,1.787629 4.72562,3.5227 6.99373,2.06535 4.1104,-2.641089 z m 50.00101,1.55875 c -0.0147,-2.27026 -0.66031,-5.12243 -1.43302,-6.33815 -1.66275,-2.61603 -10.11466,-1.82201 -18.88665,1.77431 l -6.25324,2.56369 5.50366,2.990489 c 3.02701,1.64478 9.01223,3.02355 13.30049,3.06395 6.89245,0.0649 7.79358,-0.40535 7.76876,-4.054289 z m 13.84862,-2.75183 c -1.57384,-8.564622 -2.72847,-9.789803 -7.94133,-8.42661 -3.27214,0.85569 -3.87255,1.90784 -2.84469,4.98493 0.71656,2.14518 1.32939,5.34503 1.36184,7.110789 0.0424,2.30521 1.55757,3.21046 5.3737,3.21046 5.14314,0 5.27389,-0.22207 4.05048,-6.879569 z m 107.64844,1.39463 c 0.58474,-3.98409 -0.30091,-6.5239 -3.23665,-9.28188 l -4.04166,-3.796949 -0.93414,6.071419 c -0.61257,3.98137 0.0396,7.1766 1.89465,9.281889 3.98779,4.52584 5.39403,4.01957 6.3178,-2.274479 z M 345.33817,88.32646 c -0.64567,-2.105855 -1.27776,-3.962315 -1.40468,-4.125465 -0.12695,-0.163147 -2.57226,0.153093 -5.43412,0.702778 -4.87294,0.935949 -5.12449,1.4199 -3.96118,7.620868 1.78733,9.527299 2.43799,9.920069 7.45877,4.50256 3.12985,-3.37717 4.15496,-6.04663 3.34121,-8.700741 z m -160.4395,2.134551 c 2.48191,-7.119605 2.541,-26.478882 0.0855,-27.996489 -1.02546,-0.633772 -1.38952,-1.920814 -0.809,-2.860097 1.16258,-1.88109 -2.65377,-2.50298 -11.08566,-1.806452 -6.84418,0.565376 -8.19192,2.619683 -8.2274,12.54081 -0.0297,8.302916 3.75161,19.303178 8.40159,24.441368 3.90332,4.31311 9.32774,2.29946 11.635,-4.31914 z m 97.0843,6.16215 c 3.70851,-2.34982 0.85793,-10.022126 -3.11388,-8.380967 -1.67459,0.691947 -4.48944,1.673487 -6.25519,2.181197 -1.76576,0.50771 -3.21047,1.61135 -3.21047,2.45253 0,1.73601 5.48467,5.25514 8.25548,5.29697 1.00901,0.0152 2.95484,-0.68215 4.32406,-1.54973 z m 103.36631,-2.01447 c 13.42017,-3.71892 22.05257,-8.370251 10.40385,-5.60584 -16.61249,3.94239 -17.28307,4.03896 -14.15978,2.03904 1.66876,-1.06855 7.40671,-3.061843 12.75099,-4.429542 5.34427,-1.3677 10.07178,-3.551471 10.50556,-4.852823 0.77288,-2.318655 -3.65747,-1.895897 -11.44382,1.092007 -1.60723,0.616758 -2.92226,0.207505 -2.92226,-0.909451 0,-1.116955 1.44471,-2.04347 3.21047,-2.058921 1.76575,-0.01541 4.44878,-0.866075 5.96229,-1.890279 2.01577,-1.36409 1.32921,-1.530363 -2.56681,-0.621627 -3.77336,0.880126 -4.94118,0.629809 -4.01949,-0.861547 0.71456,-1.15616 2.90157,-2.102108 4.86002,-2.102108 3.42548,0 4.6572,-1.961227 2.55313,-4.065293 -2.49936,-2.499343 -16.90673,2.892965 -22.84147,8.548968 -7.77967,7.414288 -16.54013,12.027286 -22.84079,12.027286 -2.57261,0 -4.67748,0.80982 -4.67748,1.7996 0,1.93573 4.46438,3.24104 14.67641,4.29115 3.53151,0.36314 6.63778,0.79238 6.9028,0.95386 0.26502,0.16148 6.40588,-1.34804 13.64638,-3.35448 z m 23.48006,-0.22925 c 0,-2.41795 -4.33468,-1.96832 -8.18805,0.84933 -3.05781,2.23593 -2.82528,2.39342 2.40119,1.62634 3.18277,-0.46714 5.78686,-1.58118 5.78686,-2.47567 z m -146.76411,-5.25171 c 0,-3.033789 -3.54195,-3.909962 -7.41875,-1.835169 -3.03284,1.623119 -3.38089,2.583009 -1.67982,4.632669 1.57767,1.90098 3.06586,2.09284 5.62211,0.72479 1.91204,-1.02331 3.47646,-2.60833 3.47646,-3.52229 z m 41.8452,1.08521 c 4.3483,-1.15921 7.85688,-2.712996 7.79684,-3.452848 -0.06,-0.739851 -0.10916,-2.583507 -0.10916,-4.097012 0,-3.550578 -5.8382,-3.3411 -16.74512,0.600823 -7.76544,2.80655 -8.35128,3.436738 -6.86776,7.387767 1.19162,3.17354 2.47049,3.96789 4.82055,2.99421 1.75926,-0.7289 6.75635,-2.27372 11.10465,-3.43294 z m 121.37368,-3.880757 c 0,-1.009003 -0.80025,-0.596229 -1.77836,0.917276 -0.97811,1.513501 -1.77836,3.577371 -1.77836,4.586381 0,1.009 0.80025,0.59623 1.77836,-0.91728 0.97811,-1.5135 1.77836,-3.577374 1.77836,-4.586377 z m -184.54554,3.122877 c 1.45048,-2.346933 -1.91427,-6.467162 -4.15196,-5.084192 -2.94521,1.820236 -2.50919,6.547692 0.6039,6.547692 1.45395,0 3.05058,-0.65858 3.54806,-1.4635 z m -8.02617,-4.404814 c 0,-1.090472 1.44471,-3.079364 3.21047,-4.419765 2.93684,-2.229374 2.81956,-2.426476 -1.37592,-2.312567 -2.5225,0.06848 -6.49124,0.661394 -8.81942,1.317569 l -4.23304,1.193046 3.88376,4.16842 c 3.77375,4.050321 7.33415,4.076191 7.33415,0.05329 z m 43.44035,1.830673 c 5.99476,-2.167735 7.87072,-5.654159 4.24729,-7.893552 -2.55459,-1.578826 -14.66571,3.023462 -14.66571,5.573046 0,4.801707 2.20104,5.291947 10.41842,2.320506 z m 143.61277,-1.333113 c 1.8373,-3.433026 0.88332,-9.331239 -1.50107,-9.280605 -4.5295,0.09618 -9.43511,2.681061 -9.43511,4.97157 0,1.676633 1.06435,2.325709 2.75182,1.678163 1.51351,-0.580788 2.75183,-0.256338 2.75183,0.720999 0,0.977335 -1.1896,1.776974 -2.64355,1.776974 -1.45396,0 -3.15378,0.825548 -3.77738,1.834552 -0.6604,1.068541 1.18246,1.834551 4.41356,1.834551 3.60031,0 6.21163,-1.241175 7.4399,-3.536204 z m 25.72676,-1.508812 c -0.0218,-3.931328 -0.42068,-4.437551 -1.80647,-2.29319 -2.31962,3.589363 -2.31962,7.338206 0,7.338206 1.00901,0 1.82191,-2.270257 1.80647,-5.045016 z m -185.7531,-3.658509 c 1.5406,-4.014741 -0.2655,-4.266449 -8.21294,-1.144606 -4.57842,1.798455 -7.17223,3.862784 -6.62977,5.276414 1.14066,2.972542 13.42921,-0.44825 14.84271,-4.131808 z m 104.14365,3.383601 c 4.03601,-1.872637 10.18319,-6.39502 13.66038,-10.049742 l 6.32216,-6.644951 -5.31316,0 c -4.09993,0 -4.81595,-0.497216 -3.13572,-2.177451 1.19759,-1.197599 7.03114,-2.229534 12.96341,-2.293189 6.38507,-0.06852 10.50307,-0.864272 10.09264,-1.95029 -0.80159,-2.121097 -10.93589,-2.191764 -22.25571,-0.155184 -6.5473,1.177939 -8.42452,2.522315 -11.34057,8.121603 -1.92199,3.690499 -6.44036,8.673896 -10.04082,11.074216 -3.60047,2.40032 -6.5463,5.083351 -6.5463,5.962292 0,2.665926 7.82022,1.719446 15.59369,-1.887298 z m 76.13388,-3.852833 c 0,-5.34072 -0.75857,-7.338206 -2.78678,-7.338206 -2.08507,0 -2.50843,1.270319 -1.68132,5.045017 2.65775,12.129286 4.4681,13.058426 4.4681,2.293189 z m -113.74219,3.501344 c 2.07086,-1.464537 2.18437,-2.176383 0.45864,-2.876613 -1.26125,-0.51177 -2.29319,-2.100017 -2.29319,-3.529437 0,-1.429422 1.03194,-2.628202 2.29319,-2.663956 1.26126,-0.03576 0.31011,-1.163947 -2.11364,-2.507096 -4.52239,-2.50614 -11.18686,-1.939282 -11.18686,0.951518 0,0.891322 1.44471,1.633228 3.21047,1.648678 2.50139,0.02189 2.66063,0.376487 0.72096,1.605515 -3.34428,2.119025 -0.95694,9.382272 3.07177,9.345609 1.69775,-0.01541 4.32516,-0.903849 5.83866,-1.974218 z m -27.17799,-3.57976 c 5.35278,-1.548877 8.92166,-3.733597 9.45964,-5.790798 1.04424,-3.993235 -4.70139,-4.428739 -15.54936,-1.178604 -5.72406,1.71497 -7.09242,2.991638 -7.09242,6.617205 0,2.811532 0.85797,4.183076 2.29319,3.665861 1.26126,-0.454525 6.16127,-1.945672 10.88895,-3.313664 z M 345.243,78.888545 c -0.60304,-1.571492 -2.23539,-2.420199 -3.62746,-1.886014 -1.39206,0.534184 -4.49597,0.224173 -6.89757,-0.688915 -3.7827,-1.43818 -4.24256,-1.186001 -3.43921,1.886014 0.71417,2.730963 2.55188,3.546175 7.99402,3.546175 5.64365,0 6.84587,-0.575363 5.97022,-2.85726 z m 89.27006,0.147718 c 0,-2.940957 -8.63715,-9.444905 -10.31479,-7.767256 -0.56515,0.565141 -0.44913,2.849917 0.25781,5.077279 1.0044,3.164614 1.63633,3.49556 2.89124,1.514167 1.25705,-1.984777 1.612,-2.013914 1.63399,-0.134124 0.0147,1.320802 0.85364,1.891243 1.86264,1.267644 1.00901,-0.623599 1.83455,-0.259545 1.83455,0.809006 0,1.068549 0.41278,1.942819 0.91728,1.942819 0.5045,0 0.91728,-1.219291 0.91728,-2.709535 z m -156.97261,-3.78996 5.62212,-2.367206 -4.65798,-1.172045 c -5.98838,-1.506801 -14.60481,1.75609 -14.60481,5.530587 0,3.10348 2.35804,2.759241 13.64067,-1.991336 z m -26.75629,0.816376 c 7.16046,-2.496153 7.50077,-5.324189 0.64067,-5.324189 -4.95137,0 -9.53967,2.823576 -9.53967,5.870564 0,1.973548 2.02742,1.84907 8.899,-0.546375 z M 358.2161,70.597734 c 4.3224,-5.1369 5.70213,-9.629683 4.8864,-15.911569 -0.42033,-3.236809 3.42925,-2.86142 4.70328,0.458638 1.09315,2.848675 8.00163,3.916738 8.00163,1.237063 0,-0.833119 -1.97678,-3.37185 -4.39283,-5.641621 -3.11496,-2.926344 -4.78301,-3.495558 -5.73408,-1.956712 -1.66714,2.6975 -14.75313,0.881113 -20.43358,-2.836265 -6.46554,-4.231158 -7.96179,0.04249 -4.5047,12.866638 2.44168,9.057517 3.72271,11.114407 7.23191,11.611921 2.80393,0.397523 3.92212,1.497157 3.26468,3.210465 -1.71975,4.481563 2.01987,2.852988 6.97729,-3.038558 z m -141.09738,1.975307 c 0.6236,-1.009003 -0.15319,-1.834551 -1.72628,-1.834551 -1.57305,0 -2.8601,0.825548 -2.8601,1.834551 0,1.009003 0.77682,1.834551 1.72627,1.834551 0.94946,0 2.23651,-0.825548 2.86011,-1.834551 z m 20.33011,-1.834551 c 1.43097,0 2.60178,-0.881179 2.60178,-1.958178 0,-2.250674 -7.25371,-0.500602 -10.09003,2.434378 -1.25139,1.294909 -0.76631,1.520949 1.52596,0.711083 1.84827,-0.653007 4.5313,-1.187283 5.96229,-1.187283 z m 100.57073,-6.712497 c -1.41475,-4.700877 -2.57228,-10.479714 -2.57228,-12.84186 0,-3.106462 -1.04043,-4.294811 -3.76021,-4.294811 -10.21573,0 -26.29926,-16.907584 -33.03766,-34.730375 -2.63434,-6.9677765 -4.05306,-8.4725785 -8.41059,-8.9210385 -2.88293,-0.296702 -6.80634,0.605465 -8.71867,2.004815 -3.38326,2.475696 -3.35074,2.811633 1.20706,12.4640385 7.81779,16.556381 12.34945,20.807838 22.24766,20.872027 5.97557,0.03875 8.69768,0.869763 9.1944,2.806878 5.11846,19.96084 5.46051,20.659397 12.67554,25.885937 4.02514,2.91579 8.76487,5.301437 10.53273,5.301437 2.97084,0 3.01947,-0.647398 0.64202,-8.547048 z m 71.72705,6.712497 c -0.6236,-1.009004 -2.37213,-1.834552 -3.88563,-1.834552 -1.51351,0 -2.24162,0.825548 -1.61802,1.834552 0.6236,1.009003 2.37213,1.834551 3.88563,1.834551 1.51351,0 2.24162,-0.825548 1.61802,-1.834551 z M 211.72306,68.045014 c 2.99171,-2.262811 3.08368,-2.70281 0.57526,-2.751827 -1.6422,-0.03209 -4.01354,1.179978 -5.26964,2.693483 -2.92715,3.527015 0.0593,3.564133 4.69438,0.05834 z m 24.65845,-3.001952 c 2.05106,-1.14127 1.55637,-1.545404 -1.94256,-1.586984 -2.58191,-0.03069 -6.29687,1.195198 -8.25548,2.724181 -3.35717,2.620772 -3.24594,2.71165 1.94255,1.586984 3.02701,-0.65614 6.74198,-1.882021 8.25549,-2.724181 z m 52.42988,-0.80022 c -0.64342,-2.563607 -2.86234,-9.184656 -4.93093,-14.71344 -3.04001,-8.1252 -5.09746,-10.734119 -10.73205,-13.608674 -5.67608,-2.895717 -7.94931,-3.188243 -12.23756,-1.574766 -4.97844,1.873168 -9.32596,0.772006 -21.32013,-5.400065 -0.75743,-0.38977 -0.8566,0.647881 -0.22036,2.30589 0.78946,2.057305 -0.0147,3.320782 -2.53084,3.9789 -3.29139,0.860718 -3.48104,1.637447 -1.76502,7.228765 1.05743,3.445435 2.65837,6.264428 3.55763,6.264428 0.89926,0 1.1209,0.831881 0.49251,1.848625 -1.93769,3.13525 3.23499,6.411098 13.30919,8.428686 5.29727,1.060899 9.6314,1.568323 9.6314,1.127609 0,-0.440712 -2.59951,-5.678479 -5.7767,-11.639482 -7.09248,-13.306856 -5.65337,-16.389066 1.91667,-4.105005 11.18922,18.156977 18.29018,24.498258 27.44944,24.512775 3.71847,0.0059 4.16217,-0.648308 3.15675,-4.654246 z m 106.25881,2.826552 c 3.2762,-1.407833 3.14046,-1.590475 -1.26764,-1.70561 -2.71521,-0.07092 -5.44696,0.696607 -6.07056,1.70561 -1.35361,2.190168 2.24141,2.190168 7.3382,0 z m 39.01711,-1.834551 c -1.26026,-2.018007 -3.00668,-3.669103 -3.88094,-3.669103 -0.87423,0 -1.1507,-1.143538 -0.61437,-2.541197 0.9891,-2.577566 -7.59123,-12.190289 -10.77302,-12.069238 -0.95378,0.03629 0.74248,2.194166 3.76949,4.795288 3.02984,2.603553 4.0606,4.248988 2.29319,3.660704 -4.69155,-1.561592 -3.97632,2.614173 1.45016,8.466378 5.67307,6.118161 11.34908,7.111431 7.75549,1.357168 z m -168.35298,0 c 0,-2.177932 -3.18717,-2.177932 -8.25548,0 -3.07475,1.32126 -2.70327,1.597555 2.29319,1.70561 3.27926,0.07092 5.96229,-0.696607 5.96229,-1.70561 z m 47.96902,-8.880779 -2.79169,-10.71533 -8.82953,-1.808709 c -8.03172,-1.64528 -8.82953,-1.500575 -8.82953,1.601498 0,5.113603 5.2075,16.738175 8.66591,19.344682 1.67346,1.261254 5.63779,2.293189 8.8096,2.293189 l 5.76693,0 -2.79169,-10.71533 z M 207.79591,64.12129 c 2.67489,-1.026451 4.2315,-6.224653 1.864,-6.224653 -2.88317,0 -8.09968,4.076421 -7.16072,5.595699 1.26933,2.053808 1.50934,2.08231 5.29672,0.628954 z m 20.30436,-1.745744 c 3.7638,-1.572614 6.4246,-3.277969 5.91288,-3.789679 -1.64386,-1.643862 -16.12836,3.085584 -15.00697,4.900041 1.372,2.219943 1.02096,2.262804 9.09409,-1.110362 z m 25.71325,1.686719 c 2.43755,-0.935375 2.56069,-1.486364 0.60869,-2.723736 -3.14,-1.990441 -10.2091,-2.055307 -11.41462,-0.104735 -0.51075,0.826431 1.71078,1.232953 4.93674,0.903385 4.80396,-0.490776 5.20142,-0.288039 2.19631,1.120285 -4.13557,1.938105 -1.04514,2.615282 3.67288,0.804807 z m 163.5119,-2.037887 c -0.50817,-1.765756 -1.96161,-6.925432 -3.22989,-11.465946 -3.11443,-11.149863 -6.26386,-15.71918 -12.66088,-18.36891 -7.78593,-3.225041 -11.12716,-1.418817 -9.1979,4.972274 5.43655,18.009703 12.7918,28.073047 20.51847,28.073047 4.36145,0 5.30365,-0.661879 4.5702,-3.210465 z M 139.52488,56.737014 c -0.96866,-1.884716 -3.08697,-6.522561 -4.70733,-10.306323 -1.62035,-3.783762 -3.63641,-6.879568 -4.48012,-6.879568 -2.09633,0 -16.87087,12.770975 -16.87087,14.58302 0,0.800387 3.9825,1.983546 8.84999,2.62924 4.86748,0.645695 10.43993,2.347571 12.38322,3.781947 4.31437,3.184528 7.23455,0.879722 4.82511,-3.808316 z m 14.84385,-1.133566 c 3.5181,-3.590646 3.9643,-5.739025 3.42916,-16.510963 -0.33835,-6.810772 -1.4519,-12.383221 -2.47457,-12.383221 -1.02267,0 -4.66719,1.332387 -8.09894,2.960857 -5.64868,2.680472 -6.23955,3.696915 -6.23955,10.733551 0,9.908411 3.25728,19.327517 6.68379,19.327517 1.46067,0 4.47571,-1.857484 6.70011,-4.127741 z m 48.7171,2.113724 c 5.23192,-1.823858 8.24838,-7.15874 4.04772,-7.15874 -1.96811,0 -14.78128,7.313358 -14.78128,8.436691 0,1.343632 4.87998,0.762617 10.73356,-1.277951 z m 24.61973,-1.10324 c 5.91377,-1.193359 8.60656,-4.225722 3.7392,-4.210718 -6.38888,0.0197 -17.1665,3.865851 -16.022,5.71769 0.63239,1.023232 2.51101,1.333552 4.17471,0.689602 1.6637,-0.643951 5.31233,-1.632409 8.10809,-2.196574 z m -57.36791,-4.220949 c 0,-1.009003 -1.23832,-1.834551 -2.75182,-1.834551 -1.51351,0 -2.75183,0.825548 -2.75183,1.834551 0,1.009003 1.23832,1.834551 2.75183,1.834551 1.5135,0 2.75182,-0.825548 2.75182,-1.834551 z m 34.39784,-3.227236 c 2.27026,-1.484121 4.12774,-2.995797 4.12774,-3.359279 0,-1.202876 -9.46971,2.915005 -13.48354,5.863284 -3.93328,2.889101 -3.93141,2.893575 0.64168,1.545941 2.52251,-0.743351 6.44387,-2.565827 8.71412,-4.049946 z m 189.41744,4.418269 c 0,-2.776806 -4.36064,-12.198341 -5.64584,-12.198341 -0.88979,0 -3.22589,-3.152119 -5.19134,-7.00471 -7.87892,-15.443973 -27.6884,-27.0424535 -27.6884,-16.211604 0,9.071704 17.28481,30.889182 27.51827,34.734486 3.11706,1.17126 11.00731,1.65882 11.00731,0.680169 z M 219.05204,50.398609 c 0.67792,-1.096906 2.87014,-1.566145 4.8716,-1.042753 5.14217,1.344708 9.94855,-0.602405 6.6494,-2.693738 -4.88651,-3.097548 -19.40605,0.202949 -17.12555,3.892878 1.48983,2.410611 4.06243,2.338827 5.60455,-0.156378 z m -18.49336,-3.874844 c 4.5675,-2.219066 8.30455,-4.73051 8.30455,-5.580988 0,-1.18875 -13.89817,5.705754 -18.19264,9.024865 -2.34252,1.810498 2.65713,0.0692 9.88809,-3.443877 z M 171.69087,25.384108 c 3.75799,-5.735394 2.0467,-6.916754 -4.85183,-3.349384 -5.97888,3.091801 -6.75857,6.131957 -4.48633,17.49315 l 1.1878,5.939043 2.66874,-7.8949 c 1.46781,-4.342196 3.93455,-9.826755 5.48162,-12.187909 z m 47.68282,18.562294 c -0.60962,-0.609605 -2.19192,-0.674781 -3.51623,-0.144838 -1.46347,0.585637 -1.02878,1.020347 1.10838,1.108376 1.93391,0.07966 3.01745,-0.353937 2.40785,-0.963543 z m 141.83972,-4.853917 c -2.17084,-3.27926 -5.34772,-8.851002 -7.05972,-12.381649 -4.53951,-9.361797 -15.23592,-19.5307935 -22.13843,-21.0468425 -3.3017,-0.725175 -6.49094,-0.830656 -7.08721,-0.234401 -2.7915,2.791521 15.77944,31.9408015 23.36109,36.6679525 2.52251,1.572779 7.35048,2.881566 10.72882,2.908417 l 6.14245,0.04882 -3.947,-5.962292 z M 181.34496,38.633848 c 2.36979,-2.522509 3.89591,-4.586379 3.39141,-4.586379 -0.5045,0 -2.85618,2.06387 -5.22596,4.586379 -2.36978,2.522508 -3.89591,4.586378 -3.39141,4.586378 0.50451,0 2.85618,-2.06387 5.22596,-4.586378 z m 7.57222,1.375913 c 2.28195,-2.909701 2.21706,-2.974589 -0.69265,-0.692644 -1.76575,1.3848 -3.21046,2.829509 -3.21046,3.210465 0,1.509898 1.50651,0.538079 3.90311,-2.517821 z m 37.22424,2.096913 c 3.50816,-1.346207 3.82207,-5.478991 0.51262,-6.748946 -2.59894,-0.99731 -14.1217,3.262815 -14.1217,5.22099 0,0.662594 2.06387,0.686718 4.58638,0.05361 2.64478,-0.663796 4.58637,-0.35967 4.58637,0.718395 0,2.17461 0.51201,2.261855 4.43633,0.755951 z M 337.6798,40.114747 c 1.65741,-0.888629 -13.13309,-23.630084 -19.75524,-30.3750835 -3.43365,-3.497372 -6.82282,-5.045016 -11.048,-5.045016 -6.07651,0 -6.08867,0.01798 -4.0315,5.9622915 5.90704,17.068642 22.52164,34.053578 30.53729,31.21797 1.64021,-0.580239 3.57407,-1.372312 4.29745,-1.760162 z M 177.67586,36.799296 c 2.36978,-2.522508 3.89591,-4.586378 3.39141,-4.586378 -0.5045,0 -2.85618,2.06387 -5.22596,4.586378 -2.36978,2.522508 -3.89591,4.586379 -3.39141,4.586379 0.5045,0 2.85618,-2.063871 5.22596,-4.586379 z m 110.07308,0.917276 c 0,-1.009003 -0.36404,-1.834551 -0.809,-1.834551 -0.44495,0 -1.31922,0.825548 -1.94282,1.834551 -0.6236,1.009003 -0.25955,1.834551 0.809,1.834551 1.06855,0 1.94282,-0.825548 1.94282,-1.834551 z M 198.7732,34.047469 c 0.6236,-1.009003 0.30826,-1.834551 -0.70074,-1.834551 -1.009,0 -2.34476,0.825548 -2.96836,1.834551 -0.6236,1.009003 -0.30826,1.834552 0.70074,1.834552 1.00901,0 2.34476,-0.825549 2.96836,-1.834552 z m 82.50418,-10.54867 c -3.49847,-5.801769 -6.36299,-11.82827 -6.36558,-13.392226 -0.007,-4.6999505 -4.00653,-7.2464775 -11.37893,-7.2464775 -8.39405,0 -8.58299,1.348256 -2.00972,14.3401045 5.11458,10.108813 13.64738,16.599041 22.04271,16.766189 3.93293,0.0783 3.85455,-0.280187 -2.28848,-10.46759 z m -66.33235,5.460294 c 1.91461,-0.998056 -4.12574,-7.753484 -6.93277,-7.753484 -3.72944,0 -8.93091,4.868423 -7.56419,7.079848 1.22481,1.981754 11.10667,2.440938 14.49696,0.673636 z m 19.7548,-2.249829 c 4.30343,0 4.34078,-0.644794 0.40237,-6.944113 -1.71263,-2.739259 -3.18397,-5.144702 -3.26967,-5.34543 -0.65688,-1.538649 -15.62436,4.061991 -15.1034,5.651497 1.07508,3.280123 13.08714,10.74009 13.8086,8.575688 0.35524,-1.065704 2.22819,-1.937642 4.1621,-1.937642 z m 29.19995,2.576388 c 0,-0.600991 -1.67322,-3.442522 -3.71825,-6.314513 -2.04503,-2.87199 -4.94553,-8.159106 -6.44555,-11.749147 -2.46903,-5.9092035 -3.40965,-6.5273445 -9.93261,-6.5273445 -3.96293,0 -7.72952,0.848161 -8.3702,1.884803 -1.92081,3.107945 6.45192,18.1710605 11.67828,21.0100235 4.7994,2.607042 16.78833,3.818323 16.78833,1.696178 z m -75.21661,-5.328216 c 2.47901,-2.987033 1.88605,-3.360415 -2.60178,-1.638274 -1.59604,0.612454 -2.90187,1.850776 -2.90187,2.751827 0,2.537612 2.97261,1.936164 5.50365,-1.113553 z m 16.95252,-5.293121 c 3.02429,-2.296212 3.0136,-2.587319 -0.20206,-5.497449 -2.66643,-2.413085 -4.43528,-2.67751 -8.23842,-1.23156 -6.02758,2.291685 -6.18979,3.459301 -0.4326,3.11394 2.42568,-0.145517 4.02807,-0.883728 3.56082,-1.64048 -0.46722,-0.756752 -0.024,-1.375914 0.98507,-1.375914 3.80495,0 3.83461,3.567315 0.0466,5.594639 -2.7314,1.461807 -3.55897,1.490072 -2.69493,0.09204 0.68573,-1.109664 0.4213,-2.017576 -0.5877,-2.017576 -2.91929,0 -4.14038,3.262238 -1.60388,4.284855 3.78074,1.524243 5.80175,1.232681 9.16711,-1.322495 z m 18.14975,-5.087299 c 3.90082,-1.168715 7.09241,-3.232586 7.09241,-4.5863775 0,-4.097144 -8.64075,-2.779285 -13.9325,2.1249385 -5.46384,5.063719 -3.81998,5.655272 6.84009,2.461439 z M 36.4154,311.06474 c 0,-1.00901 1.217133,-1.83455 2.704716,-1.83455 3.93691,0 8.302592,-9.65552 8.302592,-18.36269 0,-4.55789 0.725217,-7.08937 1.834552,-6.40376 4.344181,2.68485 1.320051,19.51523 -4.563777,25.39904 -3.355248,3.35526 -8.278083,4.07004 -8.278083,1.20196 z m -11.007308,-5.50366 c 0,-1.009 1.174993,-1.83455 2.61108,-1.83455 4.289731,0 13.899882,-9.20862 13.899882,-13.31912 0,-2.10111 -1.37085,-5.33498 -3.046328,-7.18637 -1.675495,-1.8514 -2.429973,-3.98027 -1.676633,-4.73084 2.234631,-2.22643 8.392064,6.87733 8.392064,12.40766 0,3.55314 -1.97605,6.84537 -6.484754,10.80408 -6.28099,5.51477 -13.695311,7.60401 -13.695311,3.85914 z"
     id="path14362"
     inkscape:connector-curvature="0" />
</svg>
