<?xml version="1.0" encoding="UTF-8" standalone="no"?>
<!-- Created with Inkscape (http://www.inkscape.org/) -->

<svg
   xmlns:dc="http://purl.org/dc/elements/1.1/"
   xmlns:cc="http://creativecommons.org/ns#"
   xmlns:rdf="http://www.w3.org/1999/02/22-rdf-syntax-ns#"
   xmlns:svg="http://www.w3.org/2000/svg"
   xmlns="http://www.w3.org/2000/svg"
   xmlns:sodipodi="http://sodipodi.sourceforge.net/DTD/sodipodi-0.dtd"
   xmlns:inkscape="http://www.inkscape.org/namespaces/inkscape"
   id="svg7644"
   version="1.1"
   inkscape:version="0.48.4 r9939"
   width="205.64314"
   height="491.71323"
   sodipodi:docname="Salt.svg">
  <metadata
     id="metadata7650">
    <rdf:RDF>
      <cc:Work
         rdf:about="">
        <dc:format>image/svg+xml</dc:format>
        <dc:type
           rdf:resource="http://purl.org/dc/dcmitype/StillImage" />
        <dc:title />
      </cc:Work>
    </rdf:RDF>
  </metadata>
  <defs
     id="defs7648">
    <filter
       inkscape:collect="always"
       id="filter8184"
       x="-0.64626497"
       width="2.2925301"
       y="-0.17695267"
       height="1.3539053"
       color-interpolation-filters="sRGB">
      <feGaussianBlur
         inkscape:collect="always"
         stdDeviation="2.5264727"
         id="feGaussianBlur8186" />
    </filter>
    <filter
       inkscape:collect="always"
       id="filter8198"
       x="-0.32657307"
       width="1.6531461"
       y="-0.40252036"
       height="1.8050407"
       color-interpolation-filters="sRGB">
      <feGaussianBlur
         inkscape:collect="always"
         stdDeviation="1.088649"
         id="feGaussianBlur8200" />
    </filter>
    <filter
       inkscape:collect="always"
       id="filter8208"
       x="-0.40834844"
       width="1.8166969"
       y="-0.3422921"
       height="1.6845841"
       color-interpolation-filters="sRGB">
      <feGaussianBlur
         inkscape:collect="always"
         stdDeviation="1.4639876"
         id="feGaussianBlur8210" />
    </filter>
    <filter
       inkscape:collect="always"
       id="filter8214"
       x="-0.51994002"
       width="2.03988"
       y="-0.12456897"
       height="1.2491379"
       color-interpolation-filters="sRGB">
      <feGaussianBlur
         inkscape:collect="always"
         stdDeviation="3.1911629"
         id="feGaussianBlur8216" />
    </filter>
  </defs>
  <sodipodi:namedview
     pagecolor="#ffffff"
     bordercolor="#666666"
     borderopacity="1"
     objecttolerance="10"
     gridtolerance="10"
     guidetolerance="10"
     inkscape:pageopacity="0"
     inkscape:pageshadow="2"
     inkscape:window-width="1244"
     inkscape:window-height="741"
     id="namedview7646"
     showgrid="false"
     inkscape:zoom="0.8280702"
     inkscape:cx="72.730093"
     inkscape:cy="278.3869"
     inkscape:window-x="0"
     inkscape:window-y="22"
     inkscape:window-maximized="0"
     inkscape:current-layer="svg7644"
     fit-margin-top="0"
     fit-margin-left="0"
     fit-margin-right="0"
     fit-margin-bottom="0" />
  <path
     style="fill:#888888;fill-opacity:1;stroke:none"
     d="m 73.822772,129.84184 c 50.104008,18.15298 65.633678,8.57823 82.822008,-2.52719 C 148.75601,95.415213 156.05609,65.161897 147.08281,34.085512 138.45358,22.707558 137.62668,8.5987998 115.40295,1.9789193 91.433027,13.689035 78.244577,51.205988 74.6196,94.781329 z"
     id="path7656"
     inkscape:connector-curvature="0"
     sodipodi:nodetypes="cccccc" />
  <path
     style="fill:#ffffff;fill-opacity:1;stroke:none;filter:url(#filter8184)"
     d="m 63.24947,249.11547 c -4.457384,11.19546 -4.172703,22.66986 -1.811441,34.26642 l 6.340043,0 c -2.864266,-11.12023 -3.398337,-22.24047 1.35858,-33.3607 z"
     id="path8166"
     inkscape:connector-curvature="0"
     sodipodi:nodetypes="ccccc"
     transform="matrix(1.8662848,0,0,1.8662848,-14.215236,-434.48143)" />
  <path
     style="fill:#ffffff;fill-opacity:1;stroke:none;filter:url(#filter8198)"
     d="m 57.664195,286.85382 7.849576,0.15095 c -5.719521,2.38571 -2.441724,4.34297 0,6.34004 l -8.00053,-0.75476 c -0.927718,-1.80341 -2.396758,-3.54667 0.150954,-5.73623 z"
     id="path8188"
     inkscape:connector-curvature="0"
     sodipodi:nodetypes="ccccc"
     transform="matrix(1.8662848,0,0,1.8662848,-14.215236,-434.48143)" />
  <path
     style="fill:#ffffff;fill-opacity:1;stroke:none;filter:url(#filter8208)"
     d="m 57.513241,295.45816 c -4.031227,2.86461 -2.140893,6.09931 0.150954,9.35911 l 8.453389,0.90572 c -6.160784,-4.01005 -5.133712,-6.95523 -0.45286,-9.35911 z"
     id="path8202"
     inkscape:connector-curvature="0"
     sodipodi:nodetypes="ccccc"
     transform="matrix(1.8662848,0,0,1.8662848,-14.215236,-434.48143)" />
  <path
     style="fill:#000000;fill-opacity:0.4484536;stroke:none;filter:url(#filter8214)"
     d="m 82.183643,244.73821 -0.640441,11.9549 c -0.717675,9.39314 1.032696,18.78627 -4.910048,28.17941 3.984967,3.27336 3.984965,6.54673 0,9.82009 8.60588,3.82774 3.167665,7.68022 0.426961,11.52794 l 14.303182,-5.55049 -2.988724,-43.33651 z"
     id="path8212"
     inkscape:connector-curvature="0"
     sodipodi:nodetypes="cccccccc"
     transform="matrix(1.8662848,0,0,1.8662848,-14.215236,-434.48143)" />
  <path
     style="fill:#11cce4;fill-opacity:0.22680413;stroke:none"
     d="m 71.432281,129.44342 c 33.889059,15.95157 60.888479,10.46867 85.260829,-3.18731 l 9.96038,3.98414 c 6.02977,43.74962 4.12516,91.41873 4.35571,141.33972 0.3147,68.14269 6.82807,135.83543 24.33018,182.17334 l 9.56196,17.53027 c -8.43512,21.7928 -71.99964,16.9714 -121.118192,19.12392 -28.367885,-5.61474 -63.516036,-1.05906 -81.083335,-22.87468 -4.0925734,-13.43188 7.353174,-16.5049 11.360694,-24.53672 24.182387,-99.80001 38.466328,-202.07463 44.62249,-306.3812 z"
     id="path8218"
     inkscape:connector-curvature="0"
     sodipodi:nodetypes="cccsccccccc" />
  <path
     style="fill:#ffffff;fill-opacity:0.7474227;stroke:none"
     d="m 30.296841,446.82411 c 11.153913,12.40159 36.740929,10.72711 54.599238,12.83886 26.683061,3.1553 54.568621,7.82297 76.683221,-5.51408 16.0599,-4.73148 9.91617,-29.99004 5.63444,-53.5272 l -13.52265,-87.33382 c -5.36626,6.46608 -10.03344,13.63121 -19.72054,15.77643 -16.34957,9.98041 -36.242383,17.06179 -60.851961,20.284 0.129483,3.10751 -6.775866,-13.86737 -14.086102,-12.11405 -9.094072,2.18116 -11.333098,45.40829 -21.577441,74.96375 -7.935994,22.89575 -13.64915,38.34116 -7.158205,34.62611 z"
     id="path8220"
     inkscape:connector-curvature="0"
     sodipodi:nodetypes="cscccccssc" />
  <path
     style="fill:#000000"
     d="M 62.387726,489.88221 C 37.208203,487.84283 8.941325,479.71824 3.527867,472.96445 c -4.9255917,-6.14515 -4.7195539,-11.13754 0.782851,-18.96998 9.406055,-13.38908 14.653693,-32.09064 19.193506,-68.40189 1.21915,-9.75134 5.469987,-32.4267 9.446275,-50.38969 8.282515,-37.41657 16.233094,-98.84936 18.598031,-143.70393 2.538148,-48.14014 3.427638,-54.07008 8.866458,-59.11061 2.577451,-2.3887 5.744742,-4.34307 7.03845,-4.34307 1.384728,0 1.974175,-1.44557 1.433102,-3.51457 -0.505483,-1.93302 0.406178,-6.07733 2.025945,-9.20961 1.983301,-3.83527 2.435688,-7.07184 1.385325,-9.91122 -0.968341,-2.61767 -0.60882,-7.375599 0.948222,-12.549294 1.379333,-4.583184 2.511982,-13.028608 2.516983,-18.767602 0.0093,-11.526417 9.730548,-40.566853 17.111802,-51.122224 8.127393,-11.622326 17.304153,-21.8453487 20.528163,-22.86861398 1.93547,-0.6143063 7.36736,1.58677128 13.33203,5.40233478 7.74948,4.9572812 11.57595,9.1682362 16.62844,18.2993512 9.41743,17.019528 11.11978,23.790391 10.8515,43.160243 -0.1312,9.472926 -0.25615,19.323083 -0.27767,21.889225 -0.0215,2.566141 0.47949,8.025021 1.11334,12.13085 0.63382,4.10583 1.60088,10.87794 2.149,15.04916 0.8046,6.12304 1.98661,7.95773 6.13583,9.52388 8.72163,3.29205 9.65134,14.00279 10.48122,120.7497 0.70012,90.05645 1.00548,97.21386 5.42507,127.15484 2.57577,17.44976 6.97085,41.72068 9.76686,53.93536 4.2095,18.3897 6.1622,23.49946 11.35597,29.716 6.46926,7.74321 6.9476,13.36708 1.68013,19.75373 -3.91941,4.75216 -17.73609,9.6362 -35.32128,12.4857 -17.95035,2.90868 -71.600243,3.18105 -104.335694,0.52969 z m 108.348324,-5.28209 c 27.0973,-3.9733 36.08163,-11.66842 26.9022,-23.04188 -6.99558,-8.66764 -14.26611,-36.80168 -21.07827,-81.56452 -1.17158,-7.69842 -3.00414,-19.0361 -4.07238,-25.19484 -1.09742,-6.32689 -2.25285,-52.19372 -2.65631,-105.44509 -0.68289,-90.13495 -2.21293,-117.81113 -6.66515,-120.56274 -1.00894,-0.62357 -6.74196,1.06861 -12.74003,3.76039 -16.71833,7.50275 -29.50215,9.23701 -50.14384,6.80261 -9.708885,-1.14504 -20.323044,-3.34912 -23.587027,-4.89799 -6.965049,-3.30513 -14.888007,-1.25216 -16.655154,4.31558 -1.691396,5.32914 -2.980457,21.29797 -3.95505,48.99475 -0.487623,13.85717 -1.330698,27.14082 -1.873544,29.51923 -0.542828,2.37842 -3.00847,22.11438 -5.47917,43.8577 -2.470718,21.74331 -7.154402,51.71081 -10.408177,66.59443 -6.475299,29.61967 -9.88334,48.5036 -13.135714,72.78511 -2.840803,21.2087 -10.220056,46.18664 -15.810155,53.51566 -9.39922683,12.32302 -5.324493,17.88658 18.228561,24.88899 12.136394,3.6082 24.500699,5.75367 38.180323,6.62511 11.127219,0.70885 20.48897,1.51081 20.803887,1.78215 1.537856,1.3251 72.0969,-0.96802 84.145,-2.73465 z m -13.71201,-20.89683 c 1.11757,-3.52115 0.73765,-3.84928 -3.14024,-2.71221 -2.4264,0.71146 -12.67553,2.27035 -22.77586,3.4642 -16.10365,1.90342 -20.69832,1.74029 -37.325703,-1.32538 -10.428799,-1.9228 -26.519906,-3.99514 -35.758016,-4.60519 -9.238109,-0.61005 -18.896133,-2.26035 -21.462275,-3.66734 -12.642623,-6.93185 -13.8723,-12.11872 -6.58429,-27.77306 4.474754,-9.61156 6.494895,-17.50469 14.201681,-55.48887 2.082624,-10.26456 4.169205,-20.3425 4.636859,-22.39542 0.467635,-2.05291 2.857786,-6.16183 5.311428,-9.13096 l 4.461167,-5.39838 6.477053,4.00303 6.477054,4.00305 1.273216,-7.93608 c 2.313951,-14.42332 4.795867,-35.54046 7.732466,-65.7909 2.549382,-26.26171 2.866184,-40.34695 2.119782,-94.24738 -0.09369,-6.7597 0.610873,-11.92748 1.591064,-11.67154 3.113094,0.81286 3.08286,68.20612 -0.04572,102.18635 -3.478904,37.78391 -8.402872,77.70637 -9.879496,80.10083 -0.610331,0.98967 0.454235,1.12259 2.513382,0.31382 1.964675,-0.77168 7.771284,-1.60499 12.903568,-1.85181 12.26593,-0.58989 20.2217,-3.50006 33.46127,-12.23991 3.00685,-1.98493 6.28903,-3.10089 7.29376,-2.47994 1.16671,0.72106 1.39564,-3.52844 0.63362,-11.76101 -1.28938,-13.92995 -1.91406,-151.89979 -0.69327,-153.12058 1.72906,-1.72904 3.12801,37.85906 3.27373,92.64032 0.086,32.33338 0.61393,61.0975 1.17318,63.92025 1.66273,8.39252 5.92337,6.7196 15.44752,-6.06542 1.91164,-2.56615 4.09694,-4.04678 4.85622,-3.29032 0.7593,0.75646 1.62298,7.895 1.91931,15.86342 0.29633,7.96842 2.18363,21.62656 4.19401,30.35145 4.33424,18.81035 5.76096,27.84972 6.18578,39.19198 0.173,4.61905 1.32111,10.49785 2.55132,13.06399 1.2302,2.56614 2.73801,10.92167 3.3507,18.56785 0.95779,11.95331 0.58022,14.76571 -2.69341,20.06256 -2.09405,3.38823 -4.56741,6.16042 -5.49638,6.16042 -0.92896,0 -2.91719,2.9394 -4.41826,6.532 -2.96773,7.10276 -5.82751,9.02101 -3.76612,2.52618 z m -7.8277,-5.38507 c 8.25247,-2.39632 8.25092,-2.28498 0.32419,-23.17259 -7.3101,-19.26275 -15.91177,-64.58206 -15.91177,-83.83376 0,-4.4975 -0.52928,-10.82363 -1.17615,-14.05805 -0.98986,-4.94925 -1.80282,-5.68418 -5.13229,-4.63962 -2.17588,0.68263 -5.80564,3.22401 -8.06615,5.64749 -2.26052,2.42348 -6.06284,4.40634 -8.44961,4.40634 -2.38675,0 -6.24177,1.33236 -8.56671,2.9608 -2.659683,1.86293 -7.138863,2.75505 -12.079534,2.40589 -12.043098,-0.85109 -15.936635,1.22122 -17.289616,9.2022 -0.642749,3.79136 -1.92289,9.83278 -2.84476,13.42538 -1.148623,4.47625 -1.028453,6.74994 0.381824,7.22448 1.337137,0.44994 1.166876,1.25702 -0.486093,2.30428 -1.862963,1.1803 -1.919492,1.61944 -0.21117,1.64037 1.411005,0.0168 0.857894,1.50354 -1.399714,3.76115 -5.581255,5.58125 -4.582457,7.43152 4.199141,7.77886 l 7.93171,0.31374 -7.465139,0.74412 c -11.532594,1.14958 -12.563922,4.22727 -1.416547,4.22727 5.276995,0 9.985034,0.62987 10.462318,1.39971 0.477283,0.76985 -3.358268,1.10156 -8.523435,0.73715 -6.465314,-0.45612 -9.890469,0.12523 -10.99363,1.86628 -2.814656,4.44199 -1.834054,5.32172 6.272154,5.62696 7.433934,0.27993 7.52178,0.34301 1.399713,1.00506 -12.467361,1.34826 -12.061313,3.25151 0.933143,4.37389 l 13.063993,1.1284 -12.597422,0.32955 c -16.923713,0.44274 -16.176061,3.97162 0.933142,4.40437 l 13.530565,0.34224 -14.782991,1.05748 c -19.553812,1.39874 -20.65688,4.84928 -2.105972,6.58763 7.735545,0.72488 14.45404,1.94804 14.92998,2.71813 0.47594,0.7701 -3.087731,0.74903 -7.919263,-0.0469 -14.5615,-2.39851 -22.781738,-2.02129 -22.781738,1.04542 0,2.64501 4.168982,3.8595 18.662848,5.43675 3.592598,0.39097 0.415939,0.52083 -7.05926,0.28859 -7.475179,-0.23225 -14.018187,0.26855 -14.540019,1.1129 -1.102694,1.78419 2.440485,2.61436 21.599279,5.06078 l 13.997136,1.78733 -18.196277,-0.99117 c -11.454957,-0.62395 -18.196276,-0.30527 -18.196276,0.86019 0,1.99398 22.381662,5.56619 49.456547,7.89351 l 16.796563,1.44379 -23.639614,0.26024 c -13.001772,0.14314 -23.919538,-0.50095 -24.261702,-1.43124 -0.342146,-0.9303 -5.329923,-2.27168 -11.083959,-2.98083 -8.649558,-1.066 -10.659994,-0.77299 -11.605697,1.69145 -0.963208,2.51008 0.541633,2.99571 9.528709,3.07497 5.869913,0.0517 18.650941,1.70466 28.402279,3.67311 19.353354,3.90673 52.361274,3.85964 65.977274,-0.0941 z M 75.403998,384.3177 c 1.347215,-0.53911 2.956886,-0.47282 3.577052,0.14725 0.620148,0.62015 -0.482136,1.06124 -2.449499,0.98021 -2.174128,-0.0896 -2.616344,-0.53178 -1.127553,-1.12754 z m -33.243197,64.72856 c 0,-2.05291 0.839828,-3.73257 1.866284,-3.73257 3.882992,0 1.674487,-3.74265 -2.332856,-3.95337 -3.352706,-0.17636 -3.070561,-0.49341 1.399714,-1.57311 5.896732,-1.42426 4.320151,-2.90847 -4.665712,-4.39241 -2.807676,-0.46366 -1.507044,-0.87173 3.265998,-1.02467 8.662809,-0.27757 11.375323,-4.93013 3.73257,-6.40219 -3.600343,-0.69346 -3.467277,-0.84504 0.933142,-1.06295 5.744929,-0.28449 7.129619,-5.05735 1.866285,-6.4328 -2.457729,-0.64228 -2.226795,-0.90709 0.933143,-1.07 7.370499,-0.37999 4.497708,-3.94906 -3.178675,-3.94906 -7.000117,0 -7.581073,0.45381 -11.348449,8.86486 -6.580221,14.69104 -6.749624,19.76972 -0.8151,24.43782 6.357947,5.00116 8.343656,5.07028 8.343656,0.29045 z m 124.885859,-1.15969 c 3.33845,-4.24418 3.71365,-6.65469 2.8322,-18.19628 -0.55884,-7.31722 -1.74934,-15.8235 -2.64557,-18.90287 -0.89622,-3.07937 -2.57495,-13.15731 -3.73048,-22.39542 -1.15553,-9.23811 -3.69492,-23.09527 -5.6431,-30.79369 -1.94816,-7.69843 -4.11534,-19.63575 -4.81595,-26.52736 l -1.27383,-12.53021 -3.45222,4.38877 c -1.89872,2.41383 -5.56507,4.91908 -8.14745,5.5672 -5.57345,1.39886 -5.55638,1.11552 -2.03434,33.76731 2.44113,22.63105 7.82915,51.06198 12.5558,66.25311 3.44705,11.07854 9.42722,24.2617 11.00567,24.2617 0.82555,0 3.23272,-2.20153 5.34927,-4.89226 z M 55.224794,411.72056 c 0,-1.02645 -3.309744,-1.86628 -7.354991,-1.86628 -4.045265,0 -7.874042,0.83983 -8.50843,1.86628 -0.704522,1.13995 2.157948,1.86629 7.354991,1.86629 4.679635,0 8.50843,-0.83983 8.50843,-1.86629 z m 1.866285,-4.51306 c 0,-0.42929 0.509757,-2.10894 1.132816,-3.73257 0.902181,-2.35107 -0.332665,-3.01288 -6.065426,-3.25075 l -7.198241,-0.29867 6.531996,-0.76752 c 10.850916,-1.27503 11.111767,-4.23399 0.373257,-4.23399 -6.505962,0 -9.713079,0.76893 -9.730174,2.33286 -0.01306,1.28307 -0.531872,4.22247 -1.150807,6.53199 -1.04805,3.91078 -0.533664,4.19914 7.490633,4.19914 4.738758,0 8.615946,-0.35123 8.615946,-0.78049 z m 4.012512,-16.01607 c 0.835573,-5.57047 0.175244,-6.59754 -4.945655,-7.69256 -5.282892,-1.12968 -5.186349,-1.20971 1.710768,-1.41806 4.020276,-0.1215 6.76489,-0.76551 6.099149,-1.43127 -2.066369,-2.06636 -18.074483,-3.01825 -18.074483,-1.07476 0,1.00025 -0.524892,4.44312 -1.166428,7.6508 l -1.166428,5.83214 8.631567,0 c 4.747362,0 8.757542,-0.83983 8.91151,-1.86629 z m 3.452627,-14.81761 c 0,-0.96449 -3.149356,-2.08307 -6.998568,-2.4857 l -6.998568,-0.73207 7.93171,-0.31374 c 9.802157,-0.38771 10.199247,-2.71427 0.933143,-5.46742 l -6.998568,-2.07943 7.674312,0.9377 c 7.400547,0.90423 7.716789,0.72533 8.864853,-5.01501 2.335506,-11.67755 1.455478,-15.58656 -4.238109,-18.82544 -3.923546,-2.23196 -5.966494,-2.5133 -7.453344,-1.02645 -3.480267,3.48026 -2.298162,5.02542 4.017141,5.25083 3.584517,0.12802 4.538711,0.53933 2.332855,1.00581 -12.855361,2.71847 -13.396248,3.14926 -5.598854,4.45912 l 7.465139,1.25405 -6.998568,0.26482 c -9.542314,0.36111 -8.86726,3.61449 0.933143,4.49719 l 7.93171,0.71441 -8.864853,0.32604 c -6.119417,0.22508 -8.864852,1.1208 -8.864852,2.8922 0,1.41138 -0.514311,5.1377 -1.142913,8.28073 -1.120368,5.60178 -0.982226,5.72887 6.998568,6.43922 4.477814,0.39856 8.351438,0.87137 8.608052,1.0507 0.256614,0.17935 0.466571,-0.46308 0.466571,-1.42756 z m 76.176952,-243.8855 c 9.76373,-3.2315 13.40472,-6.81636 13.40472,-13.19803 0,-5.09497 -2.91178,-5.37641 -19.59599,-1.89398 -9.40402,1.96289 -14.63561,1.85205 -32.65998,-0.69188 -11.804258,-1.66604 -22.17677,-2.63344 -23.050023,-2.14981 -2.572599,1.42479 0.388915,12.03257 4.40348,15.7727 7.564388,7.04727 39.147773,8.23431 57.497793,2.161 z m -3.39184,-19.28848 c 6.67196,-1.05762 12.62075,-1.92929 13.21951,-1.93703 1.42026,-0.0187 1.70657,-5.40172 0.58051,-10.91493 -0.64161,-3.141329 -1.75685,-4.037059 -3.96933,-3.188059 -6.52127,2.50244 -39.40896,4.370179 -52.755243,2.996049 -7.698427,-0.792629 -14.6919,-0.823639 -15.54106,-0.0689 -3.225948,2.86721 7.913794,10.90927 16.90604,12.20492 4.894763,0.70525 12.258903,1.91746 16.364723,2.69376 4.10583,0.77632 8.72488,1.12475 10.26457,0.7743 1.53968,-0.35043 8.25831,-1.50249 14.93028,-2.56011 z m 4.31106,-18.0125 c 7.17312,-1.478508 9.08899,-7.521389 8.89492,-28.055467 C 150.36777,48.144833 148.3489,40.900774 138.6246,24.353042 131.33463,11.947773 124.24992,6.9380298 120.45796,11.507068 c -1.23008,1.482166 -3.41978,2.694841 -4.866,2.694841 -3.68285,0 -5.45597,-5.6458662 -2.37177,-7.5520152 1.40293,-0.867057 2.06232,-2.0648944 1.46535,-2.6618816 -0.59698,-0.5969685 -3.28214,1.7946566 -5.96703,5.3147306 -3.95511,5.1854172 -4.35873,6.6007882 -2.12654,7.4573572 1.51529,0.581479 2.75509,2.673397 2.75509,4.64871 0,4.89799 -5.82281,6.895456 -8.68609,2.979673 -1.976043,-2.70238 -2.731343,-2.142084 -6.152603,4.564149 -2.14501,4.204572 -3.253079,7.657553 -2.46239,7.673267 0.79071,0.01493 0.177857,0.842684 -1.361772,1.837712 -1.866285,1.206087 -2.021803,1.818657 -0.466572,1.837712 1.283071,0.01493 2.332854,0.958244 2.332854,2.094531 0,1.136269 -1.25974,1.582554 -2.799425,0.991707 -1.539685,-0.590829 -2.799427,-0.330743 -2.799427,0.577951 0,0.908713 1.049785,2.075794 2.332856,2.59352 1.39363,0.562349 1.017946,1.000646 -0.933142,1.08866 -1.796299,0.081 -3.265999,0.918492 -3.265999,1.860984 0,0.942511 -0.481576,2.968625 -1.070183,4.502487 -0.660889,1.722245 0.231307,3.125336 2.332856,3.668705 2.729217,0.70568 2.571591,0.922766 -0.796101,1.096386 -5.013345,0.258462 -5.468831,3.024054 -0.933143,5.665854 2.854464,1.66258 2.678081,1.917757 -1.399713,2.025162 l -4.665712,0.122801 4.665712,2.667164 c 2.566141,1.466937 3.566358,2.696912 2.222707,2.733286 -1.34365,0.03639 -1.923953,0.905969 -1.289565,1.932426 0.634387,1.026457 -0.365848,1.925297 -2.222708,1.997447 -3.013639,0.117016 -2.975362,0.303402 0.356423,1.735123 3.73257,1.603922 3.73257,1.603922 0,1.921134 -3.170706,0.269455 -3.03023,0.542137 0.933143,1.811435 l 4.665711,1.494222 -4.665711,0.333356 c -2.566142,0.183269 -3.610702,0.758719 -2.321229,1.278573 1.289472,0.519872 1.869774,1.713306 1.289565,2.652103 -0.580191,0.938778 0.884264,1.790588 3.254371,1.892916 4.251285,0.183456 4.246489,0.206132 -0.356423,1.680254 -2.566141,0.821818 -3.566358,1.577925 -2.222708,1.680253 1.343632,0.102273 1.9529,0.978997 1.353915,1.948178 -1.921246,3.10867 43.225023,3.76838 57.435833,0.839305 z m -28.8104,-69.140905 c -1.77213,-2.135291 -1.62148,-3.320102 0.71981,-5.661394 3.64775,-3.647747 8.84925,-1.95958 8.84925,2.872044 0,4.488602 -6.56951,6.403578 -9.56906,2.78935 z m 6.76963,-2.513102 c 0.63439,-1.026457 -0.20544,-1.866285 -1.86628,-1.866285 -1.66085,0 -2.50068,0.839828 -1.86629,1.866285 0.63439,1.026456 1.47422,1.866285 1.86629,1.866285 0.39207,0 1.23189,-0.839829 1.86628,-1.866285 z m 6.84985,0.466571 c -3.36943,-6.551275 2.32156,-10.946917 6.95097,-5.368835 2.56021,3.084876 0.80096,8.634833 -2.73713,8.634833 -1.39374,0 -3.28998,-1.469699 -4.21384,-3.265998 z"
     id="path7654"
     inkscape:connector-curvature="0" />
</svg>
