<?xml version="1.0" encoding="UTF-8" standalone="no"?>
<!-- Created with Inkscape (http://www.inkscape.org/) -->

<svg
   xmlns:dc="http://purl.org/dc/elements/1.1/"
   xmlns:cc="http://creativecommons.org/ns#"
   xmlns:rdf="http://www.w3.org/1999/02/22-rdf-syntax-ns#"
   xmlns:svg="http://www.w3.org/2000/svg"
   xmlns="http://www.w3.org/2000/svg"
   xmlns:sodipodi="http://sodipodi.sourceforge.net/DTD/sodipodi-0.dtd"
   xmlns:inkscape="http://www.inkscape.org/namespaces/inkscape"
   id="svg6354"
   version="1.1"
   inkscape:version="0.48.4 r9939"
   width="496.2886"
   height="304.86829"
   sodipodi:docname="SignatureGear.svg">
  <metadata
     id="metadata6360">
    <rdf:RDF>
      <cc:Work
         rdf:about="">
        <dc:format>image/svg+xml</dc:format>
        <dc:type
           rdf:resource="http://purl.org/dc/dcmitype/StillImage" />
        <dc:title />
      </cc:Work>
    </rdf:RDF>
  </metadata>
  <defs
     id="defs6358">
    <filter
       inkscape:collect="always"
       id="filter6882"
       x="-0.37023106"
       width="1.7404621"
       y="-0.21486633"
       height="1.4297326"
       color-interpolation-filters="sRGB">
      <feGaussianBlur
         inkscape:collect="always"
         stdDeviation="2.8135724"
         id="feGaussianBlur6884" />
    </filter>
    <filter
       inkscape:collect="always"
       id="filter6888"
       x="-0.29027605"
       width="1.5805521"
       y="-0.2356047"
       height="1.4712094"
       color-interpolation-filters="sRGB">
      <feGaussianBlur
         inkscape:collect="always"
         stdDeviation="2.8372206"
         id="feGaussianBlur6890" />
    </filter>
    <filter
       inkscape:collect="always"
       id="filter6894"
       x="-0.43411973"
       width="1.8682395"
       y="-0.23793104"
       height="1.4758621"
       color-interpolation-filters="sRGB">
      <feGaussianBlur
         inkscape:collect="always"
         stdDeviation="2.8930517"
         id="feGaussianBlur6896" />
    </filter>
  </defs>
  <sodipodi:namedview
     pagecolor="#ffffff"
     bordercolor="#666666"
     borderopacity="1"
     objecttolerance="10"
     gridtolerance="10"
     guidetolerance="10"
     inkscape:pageopacity="0"
     inkscape:pageshadow="2"
     inkscape:window-width="1262"
     inkscape:window-height="747"
     id="namedview6356"
     showgrid="false"
     inkscape:zoom="1.2600041"
     inkscape:cx="271.62322"
     inkscape:cy="196.98463"
     inkscape:window-x="11"
     inkscape:window-y="22"
     inkscape:window-maximized="0"
     inkscape:current-layer="svg6354"
     fit-margin-top="0"
     fit-margin-left="0"
     fit-margin-right="0"
     fit-margin-bottom="0" />
  <path
     style="fill:#99752f;fill-opacity:1;stroke:none"
     d="m 87.178804,130.90167 1.718309,54.41309 c 31.552877,25.1059 82.470047,19.55165 131.736967,16.61031 49.37652,-10.23092 111.97096,-15.12452 157.64461,-69.13733 -4.19297,-10.50811 -9.13075,-18.8539 -7.57904,-35.106692 65.93675,3.228632 81.69875,19.000942 110.54451,31.502322 19.4466,16.03753 17.95143,32.07508 -11.4554,48.11261 -31.89335,23.15004 -72.53447,31.72044 -108.82619,47.53986 -50.60904,24.56421 -99.56589,56.5633 -152.92942,68.73234 C 149.39996,308.1985 22.312333,315.41915 1.8361646,234.85932 3.8305122,194.12253 10.239282,154.40106 87.178804,130.90167 z"
     id="path6876"
     inkscape:connector-curvature="0"
     sodipodi:nodetypes="ccccccccccc" />
  <path
     style="fill:#99752f;fill-opacity:1;stroke:none"
     d="m 88.776195,144.41257 c 81.101315,32.82929 95.710535,18.90631 132.032985,20.25046 l 3.24006,-5.67012 c 15.18079,-2.27689 29.24399,-4.68183 45.15852,-1.82254 l 3.44259,4.2526 c 17.26883,-4.0266 23.75808,-9.03316 33.21074,-13.77032 11.66698,-7.78616 18.7643,-16.94321 37.26084,-22.6805 18.02736,-9.18021 18.04161,-18.36042 25.11056,-27.540622 C 357.86805,67.990951 354.7063,37.199874 333.40171,9.8105773 319.6314,-0.65158824 305.86109,2.3103793 292.09078,1.8493713 L 153.05403,17.100741 c -28.08082,10.896951 -42.44751,22.739864 -61.839349,37.399816 -4.806795,31.295522 -1.75342,59.983733 -2.438486,89.912013 z"
     id="path6366"
     inkscape:connector-curvature="0"
     sodipodi:nodetypes="ccccccccccccc" />
  <path
     style="fill:#543121;fill-opacity:1;stroke:none"
     d="m 88.324344,143.50259 1.180284,43.62874 c 25.187632,20.11163 51.017412,16.46443 76.716362,17.65759 l 67.01402,-5.28795 c 47.8339,-1.58173 64.37387,-18.17591 93.93417,-27.93268 26.65606,-8.98741 38.57359,-23.58611 50.87224,-39.48634 L 367.26304,97.108278 c -2.97191,11.359572 -11.28555,19.870212 -22.338,26.920162 -21.53839,6.35595 -28.4106,17.02548 -41.81217,25.77462 l -30.92954,10.88261 c -2.64093,-2.25928 -2.92093,-4.99077 -13.17371,-5.72769 l -35.54645,3.9399 c -1.61691,1.5618 0.56781,2.62845 -5.12017,6.36996 -38.40307,0.14963 -73.07389,5.89765 -130.018656,-21.76525 z"
     id="path6878"
     inkscape:connector-curvature="0"
     sodipodi:nodetypes="cccccccccccccc" />
  <path
     style="fill:#000000"
     d="M 115.23535,304.06221 C 61.995833,300.76609 10.441217,274.43485 2.81839,246.64587 -2.9524163,225.60836 0.24363909,201.8061 11.443503,182.41162 c 7.083145,-12.2657 25.694753,-31.09995 38.062039,-38.51738 8.440127,-5.06206 29.240714,-13.10117 33.898296,-13.10117 2.40446,0 2.674431,-2.58362 3.582088,-34.280352 1.172114,-40.931784 1.311892,-43.491453 2.358157,-43.181229 0.974529,0.288955 28.485667,-19.047704 29.549857,-20.769613 1.67145,-2.704458 28.11566,-15.837946 36.05162,-17.905003 4.69038,-1.221688 14.39957,-2.226581 21.57601,-2.233095 13.06868,-0.01184 31.45573,-1.63591 47.68924,-4.2121877 4.76317,-0.755919 25.63976,-3.156741 46.39245,-5.335157 44.07573,-4.6266471 48.26821,-4.2570789 61.82369,5.449792 4.49021,3.2153687 7.83934,6.1708087 7.44251,6.5676457 -0.39685,0.396835 -4.49861,-1.599539 -9.11504,-4.436388 -14.21198,-8.7334127 -17.9115,-9.0262837 -58.98634,-4.6696387 -19.8056,2.100702 -43.15495,4.8259457 -51.88742,6.0560967 -8.73247,1.23015 -26.26958,2.789329 -38.97135,3.464841 -12.70178,0.675512 -25.25862,1.899215 -27.9041,2.719342 -6.27808,1.946274 -28.25992,13.852859 -34.80913,18.854563 -2.81919,2.153049 -9.67246,7.32983 -15.22949,11.503959 -7.369033,5.535212 -10.419624,8.826661 -11.270975,12.1609 -0.642017,2.514367 -1.489832,21.783925 -1.884049,42.821244 -0.564825,30.14192 -0.317386,38.75695 1.167293,40.64288 2.641493,3.3554 37.016001,13.39823 60.798021,17.76272 20.41667,3.74689 33.27248,4.3077 53.66995,2.34131 6.35089,-0.61226 12.11762,-0.80092 12.81496,-0.41926 3.21644,1.76038 -4.8452,3.35474 -21.07449,4.16791 -24.89037,1.24713 -27.60089,1.24329 -42.7293,-0.0605 -10.34002,-0.89111 -13.28859,-1.60896 -12.71786,-3.09625 0.51579,-1.34415 -1.07769,-2.2438 -5.21129,-2.94216 -3.27483,-0.55328 -14.33349,-3.52651 -24.57477,-6.60718 -19.73355,-5.93604 -21.256248,-6.25623 -21.256248,-4.46967 0,0.62236 6.191426,2.99163 13.758728,5.26503 7.56728,2.2734 14.09623,4.67961 14.50878,5.34712 0.41255,0.66752 -0.0956,0.93185 -1.1291,0.5874 -1.03356,-0.34445 -6.42586,-1.97924 -11.98288,-3.63285 -5.55702,-1.65363 -11.24035,-3.35671 -12.629606,-3.78463 -2.113186,-0.65089 -2.525922,0.16172 -2.525922,4.97318 0,5.74907 0.0029,5.75178 7.373266,7.33248 19.313352,4.14197 27.854922,6.35879 26.420552,6.85701 -0.86299,0.29976 -8.85166,-0.98864 -17.7526,-2.86309 l -16.183521,-3.4081 0.431991,5.80969 c 0.427746,5.75239 0.510293,5.82906 8.370618,7.77573 15.738492,3.89774 19.044642,4.89451 18.393632,5.54553 -0.36396,0.36395 -6.36777,-0.66873 -13.34179,-2.29486 -6.974032,-1.62613 -12.99252,-2.64414 -13.37441,-2.26224 -2.188559,2.18855 1.984609,4.93244 9.99509,6.57182 5.03407,1.03023 9.76989,2.43062 10.52406,3.11194 1.73069,1.56353 0.24152,1.54443 -6.7839,-0.087 -2.97697,-0.69131 -5.412682,-1.01682 -5.412682,-0.72332 0,1.31118 14.185542,6.80412 22.892882,8.8646 12.7699,3.02182 40.36627,3.83215 60.82336,1.786 9.1294,-0.91315 20.38345,-1.57026 25.00898,-1.46025 14.14586,0.33644 14.43457,0.0745 13.63574,-12.37284 -0.37754,-5.88303 -1.12891,-11.13888 -1.66969,-11.67966 -0.54076,-0.54078 -3.97258,-0.1837 -7.62623,0.7935 -3.65365,0.97722 -6.97335,1.44639 -7.37711,1.04263 -0.83504,-0.83504 0.75284,-1.45409 9.42191,-3.67319 3.3739,-0.86367 6.13438,-2.19477 6.13438,-2.95803 0,-1.83639 -5.35424,-1.79053 -6.49523,0.0556 -0.49064,0.79386 -2.51586,1.44338 -4.50051,1.44338 -5.23377,0 -2.81452,-2.60906 3.46861,-3.74076 7.05342,-1.27043 9.20822,-3.16083 8.68193,-7.61665 -0.37093,-3.14057 0.29219,-3.83076 4.61873,-4.80743 2.77851,-0.62721 12.71285,-1.56923 22.07629,-2.09337 16.18983,-0.90627 17.24087,-0.79299 21.43878,2.31066 l 4.41431,3.26363 8.87228,-3.65648 c 4.87976,-2.01106 10.4961,-4.12347 12.48075,-4.69423 1.98465,-0.57077 6.34689,-3.05384 9.69387,-5.51794 12.11937,-8.92249 14.15722,-10.32627 21.45073,-14.77636 4.07683,-2.48747 9.94136,-5.39611 13.03228,-6.46366 3.09092,-1.06756 7.80206,-3.54809 10.46922,-5.5123 5.94532,-4.37839 14.69125,-17.04162 13.64784,-19.760712 -0.42007,-1.09463 -0.13409,-1.99028 0.63555,-1.99028 3.4178,0 -11.44576,-49.89177 -19.7987,-66.457332 -6.38439,-12.661485 -6.47536,-12.92876 -4.40039,-12.92876 3.08311,0 14.49069,26.403778 20.93335,48.451919 9.6209,32.924823 7.96987,30.385033 19.34333,29.755873 10.95978,-0.60627 41.67393,5.830922 62.21804,13.039902 13.17316,4.62249 35.05843,15.36976 41.30657,20.28454 5.73423,4.51053 12.09863,15.39455 12.09863,20.69033 0,3.21669 -1.73343,6.8326 -5.65199,11.78994 -14.23931,18.01408 -34.77801,29.31677 -84.66023,46.58949 -32.46228,11.24071 -44.4368,16.34381 -69.18167,29.48264 -83.49424,44.33312 -98.57943,50.5671 -146.64858,60.60273 -27.9635,5.83808 -45.03543,7.01532 -74.9108,5.16569 z m 65.97379,-6.49531 c 26.6432,-5.04425 41.25159,-8.64767 55.99213,-13.81145 14.62992,-5.12503 51.25128,-22.75648 79.38609,-38.22066 40.05232,-22.01458 50.86368,-26.79053 96.59604,-42.67165 45.23552,-15.70857 69.10509,-30.22848 78.01372,-47.45587 4.62179,-8.93756 -2.82105,-20.82793 -18.53539,-29.61147 -27.99867,-15.64984 -86.95914,-30.855302 -99.1622,-25.57318 -2.04854,0.88671 -2.02069,2.21892 0.28947,13.84862 1.40581,7.07714 3.52774,13.83924 4.7154,15.0269 1.9169,1.91689 1.67483,2.83407 -2.15588,8.16823 -14.68442,20.44771 -38.21825,34.73198 -82.85529,50.2905 -28.8563,10.05804 -52.74838,14.28486 -91.65486,16.21494 -9.1294,0.45291 -21.14557,1.39451 -26.7026,2.09247 -20.87127,2.62142 -58.2945,-2.07294 -72.16918,-9.05288 -10.621078,-5.34315 -18.289471,-11.28999 -16.886546,-13.09552 0.719108,-0.92548 1.137848,-9.47697 0.930535,-19.0033 -0.207327,-9.52633 -0.403036,-20.4416 -0.434935,-24.25615 l -0.05802,-6.93554 -5.487672,0.97457 c -23.115326,4.10511 -49.152522,22.41068 -64.037516,45.02185 -9.8403693,14.9481 -13.4633921,26.66032 -13.5033017,43.65231 -0.05557,23.63803 5.5632634,35.21896 23.5847727,48.61096 35.732317,26.5531 96.440603,36.7094 154.135203,25.78632 z m 18.57984,-31.58133 c -3.11182,-0.93891 -5.91731,-2.48546 -6.23442,-3.43681 -0.38751,-1.1625 0.91259,-0.98683 3.9646,0.53571 3.1618,1.57731 7.27959,2.09106 13.55663,1.69137 7.7372,-0.49267 12.17256,-2.14201 31.28261,-11.63279 23.3516,-11.5973 44.769,-20.38938 53.2999,-21.88022 6.30379,-1.10164 3.76983,0.067 -13.71214,6.32373 -7.14475,2.55709 -23.38282,9.707 -36.08459,15.8887 -31.78326,15.46825 -34.14424,16.10933 -46.07259,12.51031 z M 54.69618,247.62159 C 33.046711,237.80034 24.6207,218.34822 33.631873,198.99294 c 1.940384,-4.16777 4.108043,-7.57776 4.817048,-7.57776 0.70899,0 -0.289442,3.18959 -2.218741,7.08798 -10.100971,20.41036 -1.921721,38.62119 21.685034,48.28092 4.931739,2.01804 7.667744,3.68654 6.080022,3.70779 -1.587721,0.0212 -5.772293,-1.27038 -9.299056,-2.87028 z m 356.55308,-66.87818 c 0.33078,-0.31244 7.07244,-2.28238 14.98146,-4.37763 13.70676,-3.63119 30.07574,-11.28706 33.84604,-15.83 0.96631,-1.16434 1.55262,-4.58181 1.30295,-7.59441 -0.38787,-4.6797 -1.29486,-5.95697 -6.22752,-8.7699 -3.17545,-1.81085 -8.69639,-4.21751 -12.26877,-5.34812 -4.67796,-1.48053 -5.48563,-2.07494 -2.88676,-2.12452 4.52814,-0.0863 15.55696,4.84232 19.84652,8.86926 2.38661,2.24049 3.24761,4.6857 3.24761,9.22306 0,5.64248 -0.52836,6.53622 -6.13438,10.37626 -10.22116,7.00137 -17.69285,10.231 -30.66894,13.25662 -12.11224,2.82421 -16.24794,3.46207 -15.03821,2.31938 z m -152.77864,13.47117 c 10.06122,-2.34472 13.66672,-3.73959 12.69441,-4.91115 -0.74689,-0.89996 -1.39166,-3.87822 -1.43281,-6.61836 -0.0411,-2.74012 -0.1097,-9.18995 -0.15238,-14.33295 -0.0462,-5.57245 -0.77123,-9.79199 -1.79423,-10.44244 -4.20387,-2.67293 -39.47183,-0.66797 -42.55926,2.41948 -1.11914,1.11914 -0.6582,28.71301 0.57663,34.51877 0.88005,4.13775 0.91926,4.1514 9.74941,3.39797 4.87618,-0.41607 15.18939,-2.23017 22.91823,-4.03132 z m 23.56051,-6.36196 c 1.54098,-1.16553 2.2918,-2.13982 1.66848,-2.16508 -1.80523,-0.073 1.25466,-4.90848 12.00709,-18.97414 5.52065,-7.2218 9.71193,-13.65743 9.31394,-14.30139 -0.957,-1.54843 -12.16387,2.71967 -15.97309,6.0833 -3.8534,3.40263 -15.47928,23.66343 -14.78077,25.75894 0.29213,0.87638 4.35135,-3.8115 9.0205,-10.41751 9.70475,-13.73049 13.74566,-18.50615 15.65892,-18.50615 0.73771,0 -0.65492,2.27357 -3.09476,5.05239 -5.18349,5.90367 -18.07118,25.15908 -18.59628,27.78458 -0.48007,2.40034 1.34518,2.27999 4.77597,-0.31494 z m 22.02378,-13.23942 c 5.6194,-9.11037 5.71498,-10.19526 0.62454,-7.08814 l -3.96931,2.42277 3.95345,-3.61729 c 3.11161,-2.84703 3.70225,-4.29637 2.77373,-6.80639 -1.07662,-2.91037 -1.92679,-2.21784 -9.72699,7.92337 -4.70098,6.11185 -8.55704,11.96828 -8.56901,13.01428 -0.0115,1.04599 -0.8047,2.84521 -1.76165,3.99826 -1.47742,1.78018 -0.69735,1.75735 5.17075,-0.15135 5.78767,-1.88254 7.65715,-3.45806 11.50449,-9.69551 z m 6.6662,3.2216 c 2.6765,-1.11832 5.2975,-3.39165 5.82444,-5.05184 0.52692,-1.6602 1.54341,-3.01854 2.25885,-3.01854 0.71546,0 0.92696,0.97429 0.47001,2.16508 -0.45696,1.19079 -0.5159,2.16507 -0.13092,2.16507 1.98155,0 12.917,-5.31478 23.05176,-11.20348 l 11.42223,-6.63677 -0.86896,-5.15286 c -0.47793,-2.83407 -2.29522,-8.86744 -4.03841,-13.40749 -5.11184,-13.31352 -9.70476,-12.73325 -33.99991,4.29552 -6.17487,4.32806 -8.68715,6.91323 -7.8263,8.05342 1.8708,2.47786 5.70287,13.87305 6.75345,20.08236 0.97985,5.79127 -1.21051,7.6079 -2.86975,2.3801 -0.90411,-2.84862 -1.12892,-2.75895 -3.70572,1.47827 -4.11123,6.76036 -3.88166,7.00196 3.65928,3.85116 z m -25.16649,-18.95376 c 0,-0.36503 -0.66383,-0.66369 -1.47517,-0.66369 -2.14136,0 -10.07433,13.02998 -10.05819,16.52066 0.009,1.98175 1.92381,-0.0459 5.77353,-6.11413 3.16791,-4.99355 5.75983,-9.37783 5.75983,-9.74284 z m -9.40408,3.88495 c -1.27159,-1.27159 -3.58135,1.70618 -3.53522,4.5577 0.0494,3.04975 0.12225,3.03394 2.04696,-0.44385 1.09769,-1.98346 1.76742,-3.8347 1.48826,-4.11385 z m 88.2654,-16.45655 c 7.20116,-7.55146 12.76137,-15.51637 10.83183,-15.51637 -0.79012,0 -3.43244,2.42132 -5.87183,5.3807 -5.64513,6.84854 -5.77192,5.09985 -0.18901,-2.60713 2.33541,-3.22393 3.88934,-6.79168 3.45318,-7.92831 -0.55458,-1.44519 -2.08033,-0.28953 -5.07422,3.8434 -2.35464,3.25049 -4.62896,5.56222 -5.05402,5.13716 -0.42507,-0.42507 0.66791,-2.79621 2.42884,-5.2692 1.76093,-2.47299 2.80466,-4.89339 2.31939,-5.37866 -0.48527,-0.48526 0.16006,-2.03409 1.43404,-3.44183 1.27399,-1.40775 2.05782,-3.3351 1.74185,-4.28302 -0.31597,-0.94791 -2.78225,1.91931 -5.48063,6.37161 -2.69837,4.45229 -5.19257,7.80863 -5.54268,7.45853 -0.3501,-0.35011 1.72476,-4.60051 4.61082,-9.44534 5.12862,-8.60945 6.66617,-14.37542 3.83331,-14.37542 -0.77773,0 -2.71701,2.55402 -4.30953,5.6756 -1.5925,3.12158 -3.61908,6.12281 -4.50348,6.66941 -1.09195,0.67486 -1.04855,-0.10436 0.13524,-2.42799 1.12308,-2.20448 -0.69666,-1.03057 -5.11518,3.29976 l -6.85843,6.72156 3.61491,9.15565 c 1.98818,5.03561 4.04242,10.94185 4.56499,13.12497 0.52254,2.18311 1.452,3.9693 2.06543,3.9693 0.61346,0 3.74778,-2.76047 6.96518,-6.13438 z m -199.38368,52.16704 c -16.52915,-1.73927 -18.10378,-2.69502 -2.88694,-1.75228 7.14475,0.44266 13.96474,1.35802 15.15553,2.03416 1.19079,0.67614 1.51555,1.16269 0.72169,1.08124 -0.79386,-0.0814 -6.63949,-0.69486 -12.99028,-1.36312 z m 45.46641,-1.28777 c 1.98465,-0.63559 4.9075,-1.15563 6.49523,-1.15563 2.28584,0 2.1356,0.24057 -0.7217,1.15563 -1.98465,0.6356 -4.9075,1.15563 -6.49522,1.15563 -2.28584,0 -2.1356,-0.24057 0.72169,-1.15563 z m -27.5812,-4.96818 c -0.35091,-0.35093 -6.46725,-1.08263 -13.59186,-1.626 -12.34802,-0.94177 -14.90739,-1.42833 -13.55524,-2.57705 1.20918,-1.02726 26.59706,2.11339 27.94004,3.45637 0.76159,0.76159 1.0383,1.38471 0.61491,1.38471 -0.4234,0 -1.05693,-0.28712 -1.40785,-0.63803 z m 19.22453,-0.0755 c 0.56393,-0.60308 3.7014,-1.58586 6.97216,-2.18397 3.27077,-0.5981 5.40747,-0.56614 4.74821,0.071 -1.54125,1.48965 -13.08321,3.57043 -11.72037,2.11294 z m -38.5533,-6.5034 -11.54706,-0.91401 10.10368,-0.13827 c 5.55703,-0.0761 13.3513,0.36758 17.3206,0.98583 6.72028,1.04673 6.81962,1.11914 1.44339,1.05225 -3.17545,-0.0395 -10.96972,-0.48314 -17.32061,-0.98584 z m 37.52798,-1.44338 c 0.49063,-0.79386 2.31516,-1.43344 4.05449,-1.42129 2.571,0.018 2.75753,0.28377 0.99735,1.42129 -2.84364,1.8377 -6.1876,1.8377 -5.05184,0 z m 11.99812,-2.42937 c 1.04194,-0.41695 2.28686,-0.36569 2.76649,0.11388 0.47963,0.47962 -0.37288,0.82076 -1.89444,0.75809 -1.68147,-0.0693 -2.02348,-0.41127 -0.87205,-0.87203 z m -52.24101,-2.04121 c -6.25638,-0.65991 -11.71022,-1.53481 -12.11963,-1.94424 -0.95772,-0.9577 21.70086,0.68076 29.26838,2.11644 l 5.77353,1.09532 -5.77353,-0.0338 c -3.17544,-0.0186 -10.89238,-0.57378 -17.14875,-1.23368 z m -52.76338,-2.12955 c -11.892982,-2.16916 -15.304963,-3.20554 -14.19796,-4.31254 0.800183,-0.80017 27.06741,4.62899 28.28454,5.84612 1.02275,1.02275 -1.69024,0.72739 -14.08658,-1.53358 z m 54.51254,-3.36981 c -5.29432,-0.47049 -10.11256,-1.34353 -10.70719,-1.94008 -1.43471,-1.43934 21.15974,0.40667 23.9417,1.9561 2.45276,1.36606 2.31599,1.36589 -13.23451,-0.016 z m -54.38588,-8.78377 c -10.080282,-2.81975 -16.796241,-5.56455 -15.873385,-6.4874 0.594313,-0.59432 22.452275,5.62443 27.923505,7.94442 2.88677,1.22409 2.88677,1.22409 0,1.16517 -1.58772,-0.0325 -7.01028,-1.21239 -12.05012,-2.62219 z m 82.1462,-35.38148 c -5.90336,-1.12984 -11.54473,-2.36559 -12.53635,-2.74612 -0.99162,-0.38052 -2.12023,0.0836 -2.50801,1.03129 -0.5337,1.30434 -1.02012,1.27727 -2.00138,-0.11143 -1.28217,-1.81442 -22.01759,-12.32586 -22.01759,-11.16135 0,0.33192 -2.92285,-2.52127 -6.49522,-6.34043 -3.57238,-3.81916 -6.49523,-7.772 -6.49523,-8.7841 0,-1.01209 2.48902,0.9646 5.53115,4.39266 l 5.53116,6.23282 1.72845,-13.624962 c 2.6125,-20.593494 3.09743,-23.00695 4.62276,-23.00695 0.773,0 1.0975,1.461426 0.72108,3.247613 -0.3764,1.786188 -1.3854,8.119033 -2.24221,14.072987 -0.85679,5.95396 -1.8823,12.896992 -2.27888,15.428962 -0.70145,4.4783 -0.43696,4.74099 9.71918,9.65361 l 10.44025,5.05005 4.05071,-16.65235 c 2.22788,-9.158802 4.74127,-17.724824 5.58528,-19.035618 1.735,-2.69452 1.98097,-3.954138 -3.86709,19.803208 -2.02667,8.23325 -3.14652,15.48984 -2.48852,16.12575 0.65799,0.63591 3.63206,1.60379 6.60904,2.15084 5.22641,0.96042 5.41268,0.85237 5.41268,-3.13989 0,-6.61114 10.9039,-42.055932 12.45922,-40.50061 0.28876,0.288762 -1.00428,5.021326 -2.8734,10.516808 -6.00509,17.655672 -8.9286,32.144782 -6.89619,34.177952 2.97534,2.97645 46.29362,2.39911 57.93248,-0.77211 11.17286,-3.04425 32.60114,-13.00684 37.16713,-17.28001 2.65395,-2.48374 3.24761,-2.6202 3.24761,-0.74647 0,4.40478 -23.70658,16.47516 -40.47773,20.60954 -13.08639,3.22601 -44.11745,3.98497 -57.58038,1.40831 z m 10.20828,-6.60939 c -0.21153,-5.56817 8.49959,-34.357221 12.19182,-40.292264 2.49954,-4.017877 2.33279,-3.378796 -3.01306,11.547072 -3.47281,9.696292 -7.44861,24.001522 -8.42424,30.311052 -0.39753,2.57097 -0.61447,2.12077 -0.75452,-1.56586 z m 27.02789,3.77202 c -2.09873,-2.09953 7.8389,-35.595542 13.84114,-46.653281 3.05663,-5.631157 2.70693,-3.039705 -0.78041,5.783176 -4.33913,10.977903 -9.99164,29.225435 -11.14659,35.983705 -0.54595,3.19455 -1.4073,5.39343 -1.91414,4.8864 z m -14.234,-1.55178 c 0,-4.24484 12.77667,-46.094185 13.7695,-45.101345 0.26414,0.264141 -2.06981,9.236102 -5.18655,19.937695 -3.11674,10.70158 -5.67342,20.55576 -5.68149,21.89817 -0.009,1.3424 -0.66422,2.84216 -1.45808,3.33279 -0.79386,0.49064 -1.44338,0.46034 -1.44338,-0.0673 z m 31.14282,-12.92314 c 0.2678,-3.17544 2.03292,-9.67067 3.92246,-14.433832 1.88955,-4.76317 4.58449,-11.785 5.98875,-15.604072 1.40426,-3.819072 2.82642,-6.670561 3.16033,-6.336644 0.33392,0.333916 -2.2775,8.738716 -5.80317,18.677336 -3.52565,9.938612 -6.71292,19.285332 -7.08278,20.770482 -0.36988,1.48515 -0.4534,0.10218 -0.18559,-3.07327 z m -83.10912,2.61111 c -0.0172,-4.47601 6.52785,-35.087241 7.50209,-35.087241 0.66973,0 0.89184,1.461426 0.49355,3.247613 -0.39827,1.786187 -1.70969,7.672196 -2.91427,13.080016 -1.20456,5.407832 -2.19011,11.702342 -2.19011,13.987812 0,2.28547 -0.64953,4.55682 -1.44339,5.04746 -0.79386,0.49063 -1.4454,0.36658 -1.44787,-0.27566 z m 103.19103,-6.14952 c 0.89907,-4.09343 6.54586,-19.237799 11.52072,-30.89796 1.30676,-3.062783 2.71814,-5.22648 3.1364,-4.808215 0.41827,0.418263 -0.21115,2.924178 -1.39869,5.568696 -3.97427,8.850198 -11.28995,29.056369 -11.49225,31.742029 -0.10999,1.46055 -0.76294,2.65555 -1.45095,2.65555 -0.688,0 -0.82986,-1.91705 -0.31523,-4.2601 z m 15.24298,-4.00178 c -0.0828,-3.68989 8.0341,-24.939942 10.35185,-27.101016 1.08643,-1.012996 1.21657,-0.582609 0.43642,1.443383 -0.61138,1.587722 -3.27263,8.732471 -5.91391,15.877221 -2.64126,7.144752 -4.83472,11.545932 -4.87436,9.780412 z m 13.74221,-8.697872 c 1.66763,-7.532051 3.72093,-13.313562 5.01157,-14.111223 0.71205,-0.44007 0.3399,1.905874 -0.827,5.21321 -1.16689,3.307333 -2.12163,7.555483 -2.12163,9.440323 0,1.88485 -0.66189,3.426992 -1.47088,3.426992 -0.85539,0 -1.10315,-1.660952 -0.59206,-3.969302 z M 121.8173,88.794628 c 3.78518,-6.124561 55.22029,-32.809596 78.58886,-40.772669 26.49603,-9.028789 45.10634,-11.145736 69.46849,-7.902135 14.88743,1.982126 17.45765,4.017028 3.05036,2.415042 -25.52598,-2.838306 -47.16897,-0.720105 -70.34982,6.885143 -15.83889,5.196466 -52.16492,22.814878 -67.54359,32.759154 -13.00714,8.410785 -14.9138,9.365315 -13.2143,6.615465 z M 106.86373,65.552137 c -2.58568,-2.585672 -2.1566,-4.465675 2.48003,-10.866361 4.32141,-5.965536 20.18813,-19.774437 21.36687,-18.595706 0.36163,0.361627 -4.6774,5.823185 -11.19781,12.136796 -6.73951,6.525745 -11.57332,12.335772 -11.20182,13.464084 0.37226,1.130625 3.11483,2.169427 6.37282,2.413827 l 5.71932,0.429038 1.7457,-8.451868 c 0.96014,-4.648527 2.77326,-9.713014 4.02916,-11.254415 2.25154,-2.763361 2.26946,-2.762183 1.28212,0.08422 -2.24073,6.459743 -4.86496,17.222938 -4.32971,17.758182 0.3145,0.314502 2.88868,-0.192807 5.72038,-1.127353 3.39016,-1.118858 5.14855,-2.594937 5.14855,-4.321967 0,-3.726713 5.60899,-21.41879 7.0784,-22.326933 0.67459,-0.416921 -0.40295,4.449676 -2.39455,10.814663 -1.99158,6.364987 -3.21341,11.980353 -2.71518,12.478592 2.05991,2.059903 7.53901,-2.414635 9.38864,-7.667272 3.34523,-9.499954 7.76986,-19.437998 8.38178,-18.826077 0.32,0.320004 -1.07598,4.986227 -3.10219,10.369382 -2.02622,5.383155 -3.44505,10.026536 -3.15295,10.318625 0.29208,0.292087 9.23147,-3.704354 19.86531,-8.880985 10.63383,-5.17663 19.98376,-9.439168 20.77763,-9.472308 0.79386,-0.03314 2.97347,-3.320838 4.84357,-7.305995 1.87011,-3.985156 3.70419,-6.941744 4.07573,-6.570195 0.37155,0.37155 -0.34663,2.652217 -1.59595,5.068151 -3.59012,6.94249 -2.81004,7.439317 6.0365,3.844648 4.56941,-1.856716 10.76318,-3.836441 13.76395,-4.399388 4.46854,-0.838303 5.84182,-1.947091 7.58816,-6.126647 1.17272,-2.806707 2.50108,-4.734244 2.9519,-4.283416 0.45083,0.450829 0.11749,2.131662 -0.74064,3.735186 -0.85818,1.603523 -1.56033,3.282959 -1.56033,3.732079 0,0.449119 6.75645,0.816581 15.01432,0.816581 l 15.01434,0 1.59108,-4.564207 c 0.87511,-2.510312 1.93111,-4.2242 2.34667,-3.808638 0.41557,0.415561 0.10393,2.469454 -0.69248,4.564206 l -1.44804,3.808639 7.64947,0 7.64947,0 2.4038,-6.856072 2.40379,-6.8560717 -0.75529,6.3296817 -0.75528,6.329681 14.12129,-0.802335 c 16.76231,-0.952393 24.94664,-3.065189 24.94664,-6.440015 0,-1.777052 0.41724,-1.968665 1.63504,-0.750867 2.70285,2.702843 0.46373,5.505934 -5.92783,7.420891 -7.21246,2.160907 -39.91445,4.428298 -64.98962,4.506052 -9.92326,0.03077 -22.26419,0.968084 -27.42429,2.082919 -12.1657,2.628392 -40.01089,14.181784 -64.3896,26.716238 -23.41982,12.041431 -40.10897,16.242636 -45.01887,11.332729 z M 293.40574,51.704596 c 0.58173,-1.027101 0.27273,-2.813289 -0.68667,-3.969305 -1.28011,-1.542422 -1.30113,-2.101848 -0.079,-2.101848 2.55531,0 3.63114,4.311928 1.55473,6.2314 -1.43563,1.327124 -1.61131,1.291446 -0.78908,-0.160247 z M 165.26521,41.680495 c -0.8906,-1.441028 1.18393,-11.664805 2.66245,-13.121159 0.89392,-0.880517 -0.57898,12.858291 -1.4926,13.922524 -0.21572,0.251282 -0.74215,-0.109336 -1.16985,-0.801365 z m 13.53953,-7.233274 c 0.0906,-1.622476 5.58244,-11.36916 5.65252,-10.032007 0.0333,0.634819 -0.88787,2.98818 -2.04701,5.229691 -1.15912,2.241511 -1.70039,4.482585 -1.20281,4.980164 0.49758,0.497579 0.14691,0.904689 -0.77926,0.904689 -0.92617,0 -1.65673,-0.487141 -1.62344,-1.082537 z m 56.23145,-14.570975 c 0,-0.670822 1.39959,-2.457009 3.1102,-3.969304 l 3.11021,-2.749629 -2.55452,3.969305 c -2.63399,4.092804 -3.66589,4.866785 -3.66589,2.749628 z m 60.04847,-1.427541 c -0.62723,-1.014873 -0.0983,-3.367051 1.2042,-5.354866 2.21813,-3.3853077 4.90809,-5.2247207 2.90801,-1.988522 -0.52907,0.856053 -1.41908,3.265743 -1.9778,5.354866 -0.6924,2.588993 -1.37199,3.222138 -2.13441,1.988522 z m -13.86019,-1.523029 c 0,-0.705914 1.27849,-2.816863 2.84109,-4.690997 l 2.84112,-3.4075167 -1.71417,4.6909967 c -1.58616,4.340685 -3.96804,6.386106 -3.96804,3.407517 z"
     id="path6364"
     inkscape:connector-curvature="0" />
  <path
     style="fill:#ffffff;fill-opacity:0.19072164;stroke:none;filter:url(#filter6882)"
     d="m 166.52336,119.54703 17.39701,-2.80597 c -3.83897,9.5403 -3.55008,19.08059 0.8418,28.62089 l -16.27463,2.80597 c 3.63598,-9.5403 4.80672,-19.08059 -1.96418,-28.62089 z"
     id="path6880"
     inkscape:connector-curvature="0"
     sodipodi:nodetypes="ccccc"
     transform="matrix(1.4433836,0,0,1.4433836,-6.1826069,-13.96432)" />
  <path
     style="fill:#ffffff;fill-opacity:0.19072164;stroke:none;filter:url(#filter6888)"
     d="m 88.236787,119.54702 c 0,0 19.883013,4.35 17.677613,5.61195 -4.0064,2.29251 -5.948673,23.91738 1.96418,24.41194 -7.85567,-0.42142 -14.065423,-1.6658 -20.483583,-2.80598 3.73699,-8.27853 6.8286,-16.8557 0.84179,-27.21791 z"
     id="path6886"
     inkscape:connector-curvature="0"
     sodipodi:nodetypes="csccc"
     transform="matrix(1.4433836,0,0,1.4433836,-6.1826069,-13.96432)" />
  <path
     style="fill:#ffffff;fill-opacity:0.19072164;stroke:none;filter:url(#filter6894)"
     d="m 228.5353,103.8336 9.8209,-5.611941 c -0.23109,13.111051 3.67387,15.881971 6.17313,22.167161 l -11.50448,7.01492 c 6.15012,-11.2427 -0.87503,-16.6513 -4.48955,-23.57014 z"
     id="path6892"
     inkscape:connector-curvature="0"
     sodipodi:nodetypes="ccccc"
     transform="matrix(1.4433836,0,0,1.4433836,-6.1826069,-13.96432)" />
</svg>
