<?xml version="1.0" encoding="UTF-8" standalone="no"?>
<!-- Created with Inkscape (http://www.inkscape.org/) -->

<svg
   xmlns:dc="http://purl.org/dc/elements/1.1/"
   xmlns:cc="http://creativecommons.org/ns#"
   xmlns:rdf="http://www.w3.org/1999/02/22-rdf-syntax-ns#"
   xmlns:svg="http://www.w3.org/2000/svg"
   xmlns="http://www.w3.org/2000/svg"
   xmlns:sodipodi="http://sodipodi.sourceforge.net/DTD/sodipodi-0.dtd"
   xmlns:inkscape="http://www.inkscape.org/namespaces/inkscape"
   id="svg6979"
   version="1.1"
   inkscape:version="0.48.4 r9939"
   width="365"
   height="517"
   sodipodi:docname="SomethingLoud.png">
  <metadata
     id="metadata6985">
    <rdf:RDF>
      <cc:Work
         rdf:about="">
        <dc:format>image/svg+xml</dc:format>
        <dc:type
           rdf:resource="http://purl.org/dc/dcmitype/StillImage" />
        <dc:title></dc:title>
      </cc:Work>
    </rdf:RDF>
  </metadata>
  <defs
     id="defs6983">
    <filter
       id="filter7521"
       inkscape:label="Tartan"
       inkscape:menu="Overlays"
       inkscape:menu-tooltip="Checkered tartan pattern"
       color-interpolation-filters="sRGB">
      <feTurbulence
         id="feTurbulence7523"
         type="turbulence"
         result="result0"
         seed="0"
         numOctaves="1"
         baseFrequency="0.0030000000000000001 0.096000000000000002" />
      <feTurbulence
         id="feTurbulence7525"
         result="result3"
         type="turbulence"
         seed="57"
         numOctaves="1"
         baseFrequency="0.285 0" />
      <feComposite
         id="feComposite7527"
         in2="result0"
         result="result1"
         operator="over" />
      <feMerge
         id="feMerge7529"
         result="result2">
        <feMergeNode
           id="feMergeNode7531"
           in="result1" />
        <feMergeNode
           id="feMergeNode7533"
           in="result0" />
      </feMerge>
      <feComposite
         id="feComposite7535"
         in2="result2"
         result="result4"
         in="SourceGraphic"
         operator="in" />
    </filter>
  </defs>
  <sodipodi:namedview
     pagecolor="#ffffff"
     bordercolor="#666666"
     borderopacity="1"
     objecttolerance="10"
     gridtolerance="10"
     guidetolerance="10"
     inkscape:pageopacity="0"
     inkscape:pageshadow="2"
     inkscape:window-width="1269"
     inkscape:window-height="734"
     id="namedview6981"
     showgrid="false"
     inkscape:zoom="0.64555977"
     inkscape:cx="286.60442"
     inkscape:cy="217.66464"
     inkscape:window-x="1"
     inkscape:window-y="24"
     inkscape:window-maximized="0"
     inkscape:current-layer="svg6979" />
  <path
     style="fill:#ffe8ab;fill-opacity:1;stroke:none"
     d="m 218.4151,184.73022 c 6.90615,1.64986 13.8123,3.02393 20.71845,2.12994 1.79003,-3.78467 4.18607,-6.44389 2.5172,-16.65222 -7.23245,3.82959 -12.85361,-2.00861 -19.16941,-3.67897 -1.74537,1.3876 -2.79521,11.12158 -4.06624,18.20125 z"
     id="path7565"
     inkscape:connector-curvature="0"
     sodipodi:nodetypes="ccccc" />
  <path
     style="fill:#ffe8ab;fill-opacity:1;stroke:none"
     d="m 317.55387,126.25384 c 7.52687,-0.81867 11.04316,4.665 15.10317,9.29426 4.06347,-2.23277 1.49773,-5.24545 1.64586,-7.93885 4.64713,-2.12993 10.22445,-1.15924 13.94139,-6.3898 -5.08706,-9.23792 -10.98217,-17.64256 -24.20381,-18.4917 -4.84831,3.80206 -3.47079,6.41571 -1.45222,8.90699 1.27351,3.09809 -0.75777,6.19617 -1.16179,9.29426 -4.36044,0.60559 -4.91231,2.66205 -3.8726,5.32484 z"
     id="path7563"
     inkscape:connector-curvature="0"
     sodipodi:nodetypes="cccccccc" />
  <path
     style="fill:#ffe8ab;fill-opacity:1;stroke:none"
     d="m 118.84428,280.13294 c 0.67002,9.19911 4.90108,16.72244 11.77489,23.00212 7.29533,-3.75041 15.15776,-7.3793 17.52543,-12.18564 l 0.8215,-7.25662 -5.75053,0.54766 -4.10752,-9.44729 3.55985,-3.42294 c -4.57622,-2.9171 -8.20267,-2.60499 -10.95339,0.68459 z"
     id="path7557"
     inkscape:connector-curvature="0"
     sodipodi:nodetypes="ccccccccc" />
  <path
     style="fill:#703f2c;stroke:none;stroke-width:1px;stroke-linecap:butt;stroke-linejoin:miter;stroke-opacity:1;fill-opacity:1"
     d="m 226.73517,255.48782 12.32256,10.67955 24.09746,-32.86017 -12.5964,-12.87023 z"
     id="path7539"
     inkscape:connector-curvature="0" />
  <path
     style="fill:#703f2c;fill-opacity:1;stroke:none"
     d="m 230.56886,295.46769 c 0.9615,2.64281 1.29683,5.22301 5.75053,8.21504 20.47739,-17.10499 46.68826,-34.88627 60.51747,-51.20709 l -1.91684,-3.55986 c -19.55309,13.00798 -34.38109,19.76664 -64.35116,46.55191 z"
     id="path7537"
     inkscape:connector-curvature="0"
     sodipodi:nodetypes="ccccc" />
  <path
     style="fill:#005e26;fill-opacity:0.93814434;stroke:none"
     d="m 138.83422,274.10858 c 2.08189,4.31631 2.43216,13.96908 9.18319,11.08058 -0.0914,-6.80941 8.91861,-7.28027 16.0096,-10.25908 33.23733,16.94518 27.35611,42.79757 23.54979,53.39778 -12.86167,28.84559 -52.31823,85.5445 -51.48093,134.17903 5.83549,28.37041 22.72807,34.38497 33.68167,35.59851 16.12685,-0.0745 29.78597,1.26117 40.80138,4.10752 17.78289,1.16554 33.53133,5.38274 55.31462,0.54767 12.49422,-0.25085 24.21805,0.76263 38.14323,-1.83664 11.20956,-7.23205 19.94691,-16.00923 27.02944,-25.82067 1.53336,-19.35099 -12.50722,-38.70197 -21.35911,-58.05296 -33.63725,-24.55204 -46.89994,-64.00643 -57.08482,-108.98623 l 0.12719,-17.25159 -16.43008,12.5964 -6.2982,-7.94121 18.89459,-16.97775 c -13.20996,-12.64084 -21.30131,-29.16476 -48.46875,-31.21717 -19.64537,2.40225 -40.42663,13.13432 -61.61281,26.83581 z"
     id="path6991"
     inkscape:connector-curvature="0"
     sodipodi:nodetypes="cccccccccccccccccc" />
  <path
     style="fill:#703f2c;stroke:none;stroke-width:1px;stroke-linecap:butt;stroke-linejoin:miter;stroke-opacity:1;fill-opacity:1"
     d="m 202.63771,246.45127 16.70392,3.55985 13.96557,-62.16048 -14.51324,-3.83369 z"
     id="path7541"
     inkscape:connector-curvature="0" />
  <path
     style="fill:#703f2c;stroke:none;stroke-width:1px;stroke-linecap:butt;stroke-linejoin:miter;stroke-opacity:1;fill-opacity:1"
     d="m 36.420021,338.45975 10.405721,12.87023 80.781248,-50.11176 -8.21504,-15.06091 -82.971929,50.93326 z"
     id="path7543"
     inkscape:connector-curvature="0" />
  <path
     style="fill:#703f2c;fill-opacity:1;stroke:none"
     d="m 226.04085,167.31303 c 2.88093,2.87986 8.27775,4.52154 16.3029,3.28602 l 4.65519,-27.10964 -15.33474,-2.73835 z"
     id="path7545"
     inkscape:connector-curvature="0"
     sodipodi:nodetypes="ccccc" />
  <path
     style="fill:#703f2c;fill-opacity:1;stroke:none"
     d="m 266.16737,201.81621 c 1.82858,5.04087 5.81573,8.4628 11.7749,10.40572 l 18.34693,-25.74047 -12.5964,-8.48888 z"
     id="path7547"
     inkscape:connector-curvature="0"
     sodipodi:nodetypes="ccccc" />
  <path
     style="fill:#703f2c;fill-opacity:1;stroke:none"
     d="m 300.94439,156.0858 c 1.83386,3.22642 1.8844,6.77709 9.03654,9.03655 l 21.90678,-29.84799 c -1.93035,-6.78166 -6.81429,-8.07809 -12.32256,-8.21504 -6.39888,9.6563 -14.51472,19.1409 -18.62076,29.02648 z"
     id="path7549"
     inkscape:connector-curvature="0"
     sodipodi:nodetypes="ccccc" />
  <path
     style="fill:#703f2c;stroke:#000000;stroke-width:1px;stroke-linecap:butt;stroke-linejoin:miter;stroke-opacity:1;fill-opacity:1"
     d="m 238.51006,121.85646 12.32257,2.19068 10.67955,-38.6107 -13.14407,-2.464513 z"
     id="path7551"
     inkscape:connector-curvature="0" />
  <path
     style="fill:#703f2c;fill-opacity:1;stroke:none"
     d="m 252.10679,62.743068 10.45604,2.710825 6.58343,-25.171952 -12.93598,-2.937679 z"
     id="path7553"
     inkscape:connector-curvature="0"
     sodipodi:nodetypes="ccccc" />
  <path
     style="fill:#ffe8ab;fill-opacity:1;stroke:none"
     d="m 17.813997,342.73263 18.97578,-12.39234 5.808912,2.51719 -5.615281,4.06624 c 2.167889,9.24039 2.622545,4.37133 11.230563,17.13629 l -16.652215,11.90827 c -7.481655,-2.30946 -12.107845,-9.97292 -13.747759,-23.23565 z"
     id="path7555"
     inkscape:connector-curvature="0"
     sodipodi:nodetypes="ccccccc" />
  <path
     style="fill:#ffe8ab;fill-opacity:1;stroke:none"
     d="m 250.55775,216.67924 c 4.27795,6.42765 8.5403,12.8969 14.32865,15.2968 -0.35447,1.34621 9.9253,-2.46743 13.36049,-18.97578 -5.31341,-2.65851 -10.29881,-6.03864 -14.32865,-11.521 z"
     id="path7559"
     inkscape:connector-curvature="0"
     sodipodi:nodetypes="ccccc" />
  <path
     style="fill:#ffe8ab;fill-opacity:1;stroke:none"
     d="m 283.08765,175.43596 c 0.15024,1.28419 13.01767,12.78491 13.74776,11.81146 5.09893,-7.32568 14.65636,-10.8298 15.2968,-21.97705 -6.40529,1.62805 -9.09015,-6.41705 -13.16686,-10.84331 -6.34927,3.83284 -11.32352,11.79078 -15.8777,21.0089 z"
     id="path7561"
     inkscape:connector-curvature="0"
     sodipodi:nodetypes="ccccc" />
  <path
     style="fill:#ffe8ab;fill-opacity:1;stroke:none"
     d="m 231.00107,138.45256 c 6.12843,4.46372 11.92582,3.2996 17.814,3.67897 2.92778,-6.3898 3.15498,-12.77961 3.87261,-19.16941 -3.19537,3.42026 -15.50923,-3.05236 -18.39489,-2.32356 z"
     id="path7567"
     inkscape:connector-curvature="0"
     sodipodi:nodetypes="ccccc" />
  <path
     style="fill:#ffe8ab;fill-opacity:1;stroke:none"
     d="m 245.32973,78.2335 c 4.72581,4.362089 10.70013,6.352006 18.00762,5.808912 l 5.80891,-21.686605 -3.8726,-1.549043 -5.42166,5.808912 -11.61782,-3.485347 z"
     id="path7569"
     inkscape:connector-curvature="0"
     sodipodi:nodetypes="ccccccc" />
  <path
     style="fill:#ffe8ab;fill-opacity:1;stroke:none"
     d="m 255.88258,35.925256 15.97451,3.969423 c -0.61582,-3.969423 0.58891,-7.938847 2.80764,-11.90827 l 6.48662,-0.09681 c -9.31949,-10.196702 -19.46718,-12.93955 -30.5936,-6.873879 4.93558,2.888585 11.87157,11.636181 5.32483,14.909536 z"
     id="path7571"
     inkscape:connector-curvature="0"
     sodipodi:nodetypes="cccccc" />
  <path
     style="fill:#000000"
     d="m 224.32308,504.89931 c -6.19584,-0.34388 -13.91323,-1.48973 -18.05091,-2.68015 -5.3068,-1.52677 -11.6856,-2.2661 -24,-2.7817 -19.41857,-0.81304 -24.0844,-2.08293 -31.90103,-8.68244 C 145.66901,486.78505 139.3198,477.75305 137.18697,472 c -1.6618,-4.48248 -2.34313,-19.30392 -1.27702,-27.77996 C 138.65726,422.37773 162.07271,369.14316 181.97151,339.5 186.248,333.12934 190,321.70209 190,315.04813 c 0,-15.89596 -10.78506,-32.75899 -23.06673,-36.0661 -2.07812,-0.55958 -3.93155,-1.47686 -4.11872,-2.03839 -0.18888,-0.56663 -3.11573,0.3659 -6.57696,2.0955 -5.64143,2.81906 -6.17713,3.35356 -5.61316,5.6006 1.20288,4.79268 -2.10517,9.44472 -10.81147,15.20392 -6.4753,4.2834 -8.48262,5.16316 -10.11681,4.43396 -1.63308,-0.7287 -4.24294,0.40899 -13.11743,5.71811 C 110.48543,313.64102 98.075,321.05574 89,326.47288 c -22.846577,13.6378 -39,24.44557 -39,26.09371 0,1.37205 -7.058247,7.42435 -14.183107,12.16172 -4.288463,2.85143 -6.33387,2.5127 -11.33332,-1.87688 -3.673421,-3.2253 -7.470251,-11.87704 -7.681802,-17.50432 -0.143241,-3.81023 -0.270868,-3.68859 11.945477,-11.38494 7.732988,-4.87181 8.388214,-5.10343 10.507936,-3.71454 2.584633,1.69352 2.737908,1.63212 15.761234,-6.3133 C 59.132388,321.42321 66.325,317.18935 71,314.52575 75.675,311.86215 83.1,307.33676 87.5,304.46932 103.7835,293.85751 114.95697,287 115.96411,287 c 1.97625,0 1.02207,1.68526 -1.64123,2.89875 -1.47241,0.67087 -11.03491,6.52171 -21.249996,13.00185 C 82.857798,309.38075 72.925,315.58529 71,316.68848 49.890805,328.78582 38,336.4737 38,338.02429 c 0,1.94569 5.439502,9.05723 8.366861,10.93873 1.605438,1.03186 3.215818,0.2997 11.5,-5.22854 9.562764,-6.38146 31.354666,-19.768 54.907759,-33.72925 6.75103,-4.00173 12.53568,-7.69829 12.85476,-8.21458 0.31909,-0.51629 -0.30965,-1.91789 -1.39718,-3.11468 -2.43665,-2.68142 -7.46996,-15.20286 -7.02984,-17.48823 0.17711,-0.91963 3.33919,-3.47559 7.02684,-5.6799 3.68766,-2.20431 6.71968,-4.54995 6.73782,-5.21253 0.0505,-1.8455 6.64361,-2.69923 10.02589,-1.29825 2.76817,1.14662 3.55933,0.87001 12.23333,-4.27716 19.64627,-11.65813 32.42035,-17.12805 42.7213,-18.29347 l 5.91112,-0.66877 1.07067,-4.87883 c 0.58887,-2.68336 1.56425,-7.24133 2.16751,-10.12883 1.3492,-6.45795 3.79324,-15.20933 9.11636,-32.64294 3.15643,-10.33753 3.84306,-13.78733 3.00975,-15.12167 -0.68575,-1.09806 -0.73125,-2.07709 -0.1247,-2.68364 0.52519,-0.52519 1.22822,-3.39544 1.56228,-6.37833 0.66881,-5.97199 2.8073,-9.29585 5.5237,-8.58549 1.38536,0.36228 1.87725,-0.3205 2.29703,-3.18847 0.2938,-2.0072 1.38086,-7.69946 2.4157,-12.64946 1.03485,-4.95 1.50642,-9.23608 1.04795,-9.52462 -0.45848,-0.28854 -0.44783,-2.31354 0.0237,-4.5 0.47148,-2.18646 1.37834,-6.56288 2.01524,-9.72538 0.72659,-3.60793 1.66377,-5.75 2.51566,-5.75 2.70841,0 4.22698,-3.00589 5.89483,-11.66837 0.93523,-4.8574 2.86141,-12.557876 4.2804,-17.112177 2.39255,-7.678952 2.46176,-8.411189 0.95264,-10.078741 -2.09814,-2.318424 -2.05506,-3.507716 0.49545,-13.6769 C 247.84301,60.60508 248.60157,59 250.12279,59 251.44504,59 252,58.280251 252,56.565376 c 0,-2.79645 2.81735,-16.716056 3.52698,-17.425693 1.21905,-1.219045 1.50623,1.026518 0.57671,4.509375 -0.56527,2.118018 -1.40953,7.080087 -1.87612,11.026819 -0.82154,6.949101 -0.77385,7.209822 1.50909,8.25 5.92197,2.69823 6.88589,1.370394 10.24641,-14.114896 l 1.67952,-7.739232 -5.33063,-1.106633 C 256.78359,38.813278 254,36.93232 254,34.334952 c 0,-0.837205 0.89939,-1.757386 1.99863,-2.044846 1.97783,-0.517214 1.97592,-0.563086 -0.18414,-4.40638 C 254.61397,25.747677 252.92283,24 252.05641,24 c -0.86643,0 -2.14796,-0.916947 -2.84786,-2.037659 -1.15639,-1.851681 -0.9531,-2.171128 2.22734,-3.5 7.31134,-3.054874 17.97247,-1.165935 26.0142,4.609197 5.21545,3.745455 5.67235,6.406288 1.1105,6.467254 -3.93263,0.05256 -7.24881,4.306749 -5.66459,7.266884 1.06867,1.996833 -0.0976,4.306774 -2.70381,5.355038 -0.46394,0.186607 -1.60148,4.158954 -2.52786,8.827438 -1.67398,8.435922 -1.67132,8.497974 0.43187,10.084411 l 2.11621,1.59626 -2.20006,8.915588 C 266.80232,76.487985 265.26329,81.4 264.59227,82.5 c -0.67102,1.1 -1.82931,4.7 -2.57399,8 -0.74467,3.3 -1.71968,6.485564 -2.16667,7.07903 -1.61208,2.140335 -5.92845,22.79463 -5.33158,25.51217 0.33234,1.51315 -0.0987,5.11832 -0.95788,8.01149 -0.85918,2.89317 -1.56215,6.51111 -1.56215,8.03986 0,1.52875 -0.85332,3.58457 -1.89627,4.56849 -2.49896,2.35755 -7.51834,22.34662 -6.76974,26.95969 0.62895,3.87573 -1.08306,15.1986 -2.58236,17.07927 -0.54809,0.6875 -2.22643,1.25 -3.72965,1.25 l -2.73313,0 -7.16752,28.75 c -3.94213,15.8125 -7.15712,29.70629 -7.14442,30.8751 0.015,1.38374 1.12708,2.65977 3.18769,3.65775 l 3.1646,1.53267 6.62641,-10.65776 c 3.64452,-5.86177 8.97173,-13.5618 11.83823,-17.11117 3.63699,-4.50343 5.03247,-7.01847 4.61829,-8.32344 -0.33443,-1.05371 0.0264,-2.38363 0.82664,-3.04659 0.78109,-0.64711 3.77817,-3.94742 6.66018,-7.33402 2.882,-3.3866 6.44624,-6.67438 7.92053,-7.30617 4.51992,-1.93697 18.1689,-21.46661 17.56691,-25.13563 -0.59586,-3.63172 11.70285,-19.76859 15.67159,-20.56234 1.61811,-0.32362 2.94202,-0.90252 2.94202,-1.28644 0,-1.04538 9.17074,-15.25053 11.33142,-17.55196 4.04749,-4.31116 4.87914,-6.23806 3.66858,-8.5 -0.90455,-1.69017 -0.81053,-2.64022 0.45198,-4.56706 0.87677,-1.33812 2.21061,-2.43294 2.96408,-2.43294 2.93144,0 3.54772,-7.27756 0.86711,-10.2396 -1.55187,-1.71479 -1.57283,-2.15475 -0.21816,-4.57874 1.89874,-3.39751 8.14738,-4.15371 13.12877,-1.58881 9.03289,4.651 16.52519,13.40641 15.37929,17.97205 -0.66925,2.66649 -2.24868,3.54541 -9.87779,5.49674 -3.36932,0.86179 -4.48962,1.54402 -3.75,2.28364 1.87577,1.87577 1.19852,5.63208 -1.2136,6.73111 -1.24757,0.56844 -3.35827,2.69629 -4.69043,4.72856 -2.72728,4.1606 -8.93911,12.79615 -13.29827,18.48697 -2.4948,3.25693 -2.81026,4.35037 -2.2359,7.75 0.41982,2.48487 0.28478,3.95808 -0.36281,3.95808 -0.56733,0 -3.86939,3.80934 -7.33789,8.4652 -3.46851,4.65586 -7.0613,8.48086 -7.98398,8.5 -0.95661,0.0198 -3.22662,2.58478 -5.2819,5.96813 -1.98237,3.26333 -5.61495,8.66459 -8.0724,12.00281 -2.47354,3.36006 -4.4681,7.18261 -4.4681,8.56305 0,1.39598 -2.23207,5.6217 -5.0709,9.60018 -2.789,3.90863 -5.31215,7.73525 -5.60699,8.50361 -0.29485,0.76836 -1.50894,1.39702 -2.69797,1.39702 -2.15575,0 -2.53547,0.47387 -20.42168,25.48539 l -5.29754,7.40791 2.0604,4.03873 c 1.13322,2.22129 3.19635,4.78302 4.58473,5.69272 2.38365,1.56183 2.64764,1.54245 4.73714,-0.34775 1.21704,-1.10096 6.93781,-5.36617 12.71281,-9.47823 24.28258,-17.29032 30.98987,-20.55677 32.49211,-15.82363 0.822,2.5899 -10.77526,13.99657 -25.99211,25.56494 -6.05,4.59941 -12.35,9.46623 -14,10.81514 l -3,2.45257 0,11.3461 c 0,10.86845 0.26117,12.27602 6.2036,33.43458 3.41198,12.14865 7.11636,24.52365 8.23196,27.5 3.23486,8.6304 10.01689,19.73327 19.55358,32.01122 9.62141,12.38701 11.72703,14.61425 18.81356,19.90031 4.55983,3.40131 6.61047,6.64024 11.34348,17.91679 1.0196,2.42924 3.70331,8.08155 5.96379,12.56069 4.98789,9.8835 6.27028,13.63471 7.44026,21.76404 1.287,8.9424 -1.26329,13.76364 -12.98843,24.55415 -12.4402,11.44858 -14.8297,12.22154 -39.5618,12.7975 -10.45,0.24336 -23.0762,0.90436 -28.05821,1.46889 -4.98202,0.56453 -10.68664,0.89401 -12.67692,0.73218 -1.99029,-0.16183 -8.48909,-0.56455 -14.44179,-0.89493 z M 234.37626,500.75 c -4.00508,-4.31572 -6.7064,-8.76593 -5.81926,-9.58676 0.39425,-0.36478 0.93414,-0.0514 1.19976,0.69633 0.26563,0.74776 2.36545,3.67276 4.66628,6.5 3.95341,4.8579 4.46896,5.15704 9.38015,5.44269 2.85824,0.16624 5.19681,0.0884 5.19681,-0.17308 0,-0.26143 -1.35,-1.82533 -3,-3.47533 -1.65,-1.65 -3,-3.81578 -3,-4.81285 0,-1.31759 0.61467,-0.9185 2.25,1.46089 1.26315,1.83787 3.44903,3.52985 4.98377,3.85767 1.50357,0.32117 2.48951,0.97916 2.19098,1.46219 -0.29853,0.48304 1.54143,0.87825 4.08881,0.87825 l 4.6316,0 -2.07258,-2.63486 c -2.93672,-3.73343 -2.57879,-5.39063 0.45714,-2.11651 1.39135,1.5005 3.65936,3.01171 5.04004,3.35823 1.38068,0.34653 9.5798,0.42428 18.22028,0.17278 21.16137,-0.61596 23.76007,-1.58297 35.92884,-13.36959 11.16358,-10.81299 12.59663,-13.69452 11.21011,-22.54088 -1.36609,-8.71598 -2.6328,-12.44389 -6.41159,-18.86917 -1.77905,-3.025 -5.17969,-10.3833 -7.557,-16.35178 -3.44486,-8.64869 -5.03226,-11.38941 -7.81909,-13.5 -7.68429,-5.81966 -14.29536,-12.73201 -22.40728,-23.42844 -14.85164,-19.58345 -18.48156,-27.32946 -25.87699,-55.21978 -2.18759,-8.25 -5.00694,-18.38348 -6.26524,-22.51885 -1.8657,-6.13155 -2.19853,-9.0613 -1.80388,-15.87864 0.28926,-4.99669 0.10734,-8.20747 -0.4522,-7.98115 -2.35327,0.95182 -12.29827,9.56348 -12.85171,11.12864 -0.34033,0.9625 -1.18502,1.75 -1.87708,1.75 -1.49133,0 -4.84928,-3.51804 -6.61199,-6.92722 -1.16937,-2.2616 -0.91707,-2.73923 3.69763,-7 2.72394,-2.51503 7.08986,-6.23623 9.70203,-8.26934 4.57386,-3.55991 4.67283,-3.74438 2.67741,-4.99054 C 244.9324,277.1012 244,276.13839 244,275.67332 c 0,-0.97232 -4.44796,-6.08781 -11.12059,-12.78951 -6.12647,-6.15318 -17.03894,-12.44591 -24.01011,-13.84556 -6.92582,-1.39054 -19.20172,-0.0605 -26.69215,2.89193 -14.12692,5.56831 -42.1288,21.62899 -42.15844,24.18027 -0.0103,0.88575 1.08404,3.23545 2.43184,5.22155 2.52495,3.72072 1.99063,5.9673 -0.6884,2.89442 -3.94006,-4.51928 -5.02063,-10.52952 -2.09493,-11.65221 2.57264,-0.98722 0.0993,-2.79032 -3.2954,-2.40239 -2.40781,0.27515 -2.82373,0.73212 -2.57417,2.82818 0.37877,3.18131 5.95149,14.46902 8.08357,16.37351 0.89033,0.79529 2.51878,1.5991 3.61878,1.78624 1.67173,0.2844 2.05192,-0.29167 2.31633,-3.50976 0.22924,-2.79009 -0.0129,-3.6465 -0.87973,-3.1108 -0.75678,0.46771 -1.03165,0.22899 -0.7484,-0.64999 1.33397,-4.13959 21.17805,-12.96935 28.81521,-12.82152 2.84664,0.0551 3.12483,0.22504 1.49659,0.91426 -1.1,0.46562 -4.17929,1.40535 -6.84288,2.08828 l -4.84287,1.24171 4.97577,2.36489 c 18.77815,8.92488 27.25123,32.74661 18.81513,52.898 -1.39872,3.34116 -6.33948,12.15192 -10.97945,19.57947 -9.59218,15.35494 -16.86215,29.40802 -22.54745,43.58497 -2.15286,5.36841 -5.03155,12.26015 -6.39709,15.31498 -3.29246,7.36554 -9.97192,26.98833 -9.38607,27.57419 0.25444,0.25443 1.85181,-1.92038 3.54972,-4.83291 3.93674,-6.75295 5.97041,-9.31363 6.76541,-8.51863 0.34699,0.34698 -0.76043,2.38757 -2.46094,4.53462 -1.7005,2.14706 -4.56725,6.78031 -6.37055,10.29612 -2.81456,5.48741 -3.32786,7.62174 -3.62576,15.07631 -0.4181,10.46227 0.93394,17.40674 4.60471,23.6511 L 144.5,481.5 145.10066,470.9289 C 145.68671,460.61473 148.37281,449 150.17207,449 c 0.49407,0 0.38454,0.95996 -0.24338,2.13324 -1.78226,3.33019 -3.85534,16.59446 -3.8938,24.91381 -0.0344,7.4403 0.0182,7.59732 3.71511,11.1007 3.94457,3.73802 8.21482,6.85225 9.39586,6.85225 0.38547,0 -0.0303,-1.4625 -0.92385,-3.25 -1.85475,-3.7102 -2.40468,-20.95979 -0.72201,-22.64719 0.66684,-0.66872 1,2.56198 1,9.69719 0,16.97856 1.77825,18.87416 18.67119,19.90332 l 10.23206,0.62337 -2.273,-3.41335 c -3.51139,-5.27301 -6.30432,-11.81585 -5.85029,-13.70512 0.34274,-1.42617 0.50484,-1.46055 0.98176,-0.20822 0.31418,0.825 0.82111,2.625 1.12651,4 0.30541,1.375 2.03504,4.75 3.84364,7.5 3.27771,4.98383 3.30934,5.00195 9.77824,5.60294 3.56944,0.33162 9.02477,1.36075 12.12295,2.28697 5.54982,1.65913 17.11374,3.21682 25.81311,3.47707 l 4.44616,0.13302 -3.01607,-3.25 z m -12.35633,-0.50155 C 218.53863,498.49938 214,492.89886 214,490.35212 c 0,-2.54284 1.49897,-1.30276 3.39804,2.81116 1.3917,3.01481 2.92292,4.54186 5.73983,5.7242 2.11298,0.88689 3.84637,1.95002 3.85196,2.36252 0.0156,1.14744 -1.16689,0.90915 -4.9699,-1.00155 z M 207,499.29629 c -2.83603,-1.03196 -7.19026,-5.80366 -9.59325,-10.51305 -2.60226,-5.09991 -2.80281,-5.79686 -1.65675,-5.75744 0.4125,0.0142 1.60239,1.87243 2.64419,4.12943 2.28901,4.95897 7.28725,10.84477 9.2094,10.84477 0.76803,0 1.39641,0.45 1.39641,1 0,0.55 -0.1125,0.96447 -0.25,0.92105 -0.1375,-0.0434 -0.925,-0.32456 -1.75,-0.62476 z m 62.66667,0.037 C 269.3,498.96667 269,498.06285 269,497.32486 c 0,-1.09148 0.37312,-1.10879 2,-0.0928 1.1,0.68696 2,1.59078 2,2.00848 0,0.93656 -2.42214,1.00398 -3.33333,0.0928 z M 174.9095,494.75 c -2.97781,-3.08984 -7.92237,-14.09776 -7.85084,-17.47804 0.0414,-1.95677 0.77062,-0.71509 2.47958,4.22217 1.3315,3.84677 3.77083,8.90927 5.42073,11.25 3.30619,4.69053 3.28702,5.46789 -0.0495,2.00587 z M 139.09812,464.79922 C 138.93916,457.18356 143.93733,437 145.98221,437 c 0.45053,0 -0.25178,3.16538 -1.56069,7.03419 -1.30891,3.8688 -3.02006,11.1813 -3.80256,16.25 -1.1429,7.40328 -1.44202,8.29128 -1.52084,4.51503 z m 92.58839,-154.40446 c -2.82868,-1.5334 -5.78074,-6.99434 -7.14929,-13.22528 -0.82068,-3.73654 1.44444,-8.16948 4.17439,-8.16948 1.383,0 1.29427,0.34586 -0.52305,2.03896 -2.74187,2.55444 -2.75081,4.78329 -0.0444,11.07453 2.76903,6.4368 6.74433,8.84481 10.51879,6.37169 3.14692,-2.06194 4.25379,-1.15566 1.84259,1.50869 -2.14611,2.37142 -4.94894,2.49883 -8.81904,0.40089 z m -192.819871,49.65898 5.366639,-3.88175 -3.114701,-1.61067 C 37.474003,352.67664 32,342.75178 32,338.02852 c 0,-1.66569 -0.3375,-3.01713 -0.75,-3.00321 -0.4125,0.0139 -3.225,1.76007 -6.25,3.88034 -5.23636,3.67023 -5.491099,4.05073 -5.31431,7.93803 0.338377,7.44038 7.036075,17.19794 11.754148,17.12406 1.133089,-0.0177 4.47515,-1.77904 7.426801,-3.914 z M 22.2,349.8 c -0.66,-0.66 -1.2,-2.44844 -1.2,-3.97432 0,-2.06079 0.758804,-3.16671 2.95034,-4.3 C 27.328039,339.779 28,339.66514 28,340.83948 c 0,0.46172 -1.172805,1.37386 -2.606232,2.02697 -2.305149,1.05029 -2.530963,1.5887 -1.954687,4.66051 0.711585,3.79308 0.55966,4.07178 -1.239081,2.27304 z m 19.362624,-2.35691 c -6.200583,-7.30889 -7.118008,-10.99064 -3.328396,-13.35729 2.174224,-1.35783 2.180938,-1.41468 0.25,-2.11697 -7.25784,-2.63967 -4.687748,13.79292 3.117486,19.93252 5.435295,4.2754 5.415088,1.97082 -0.03909,-4.45826 z M 139.25,297.62704 c 2.6125,-1.49124 4.75,-2.94643 4.75,-3.23375 0,-0.28733 -1.32389,-1.63639 -2.94197,-2.99792 C 138.18752,288.98 132,278.0128 132,275.34028 c 0,-0.73716 -0.3375,-1.33606 -0.75,-1.3309 -1.15209,0.0144 -11.03133,5.82779 -11.67579,6.87054 -0.96413,1.56001 5.4409,15.43014 8.7084,18.85807 2.63585,2.76527 3.31499,3.04546 4.65192,1.9192 0.86101,-0.72534 3.70297,-2.5389 6.31547,-4.03015 z M 122,283.23002 c 0,-1.47831 4.86667,-4.4027 6.72643,-4.04192 0.88431,0.17154 1.78332,0.83899 1.99781,1.48321 0.24325,0.73062 -0.34559,0.97897 -1.56506,0.66007 -1.07526,-0.28119 -3.12596,0.25597 -4.5571,1.19369 C 123.17094,283.46279 122,283.78002 122,283.23002 z m 120.34632,13.41944 c 3.38452,-2.9428 13.42703,-10.81909 22.31668,-17.50286 8.88965,-6.68378 19.1447,-14.92991 22.789,-18.32475 5.8312,-5.43205 6.44957,-6.34885 5.15524,-7.64318 -2.19806,-2.19806 -11.16903,3.52023 -42.43144,27.04676 -20.45487,15.39331 -18.99434,14.0328 -17.9872,16.75538 0.92158,2.49126 2.69955,5.01919 3.53016,5.01919 0.26063,0 3.24303,-2.40774 6.62756,-5.35054 z m 3.7236,-40.64084 C 254.02799,245.24777 262,234.08174 262,233.69606 c 0,-0.16319 -2.52211,-2.90064 -5.60468,-6.08322 l -5.60468,-5.78651 -2.90133,3.33683 c -3.7506,4.3136 -15.44827,21.84412 -17.63278,26.42509 l -1.68905,3.54198 4.96626,4.77746 c 2.73144,2.62761 5.25655,4.73581 5.61136,4.68489 0.3548,-0.0509 3.47097,-3.9137 6.92482,-8.58396 z M 235,254.12595 C 235,252.65292 240.11804,244 240.98931,244 c 0.45008,0 -0.52219,2.475 -2.1606,5.5 C 235.94958,254.81574 235,255.96305 235,254.12595 z m 60.34508,-2.66908 c -0.32569,-0.84872 -0.80663,-1.32866 -1.06875,-1.06653 -0.26213,0.26213 -0.17998,0.95654 0.18255,1.54313 0.98605,1.59546 1.56238,1.28551 0.8862,-0.4766 z m -70.55951,-32.2258 c 4.00707,-16.35209 7.26957,-30.01748 7.25,-30.36753 -0.0196,-0.35005 -2.1181,-0.94875 -4.66342,-1.33044 -2.54532,-0.3817 -5.1981,-0.91282 -5.89508,-1.18027 -1.31184,-0.5034 -5.61886,11.49537 -11.00097,30.64717 -2.35788,8.39035 -6.66994,28.34034 -6.16523,28.52383 0.23419,0.0851 11.99937,3.16761 12.68913,3.32455 0.275,0.0626 3.77851,-13.26523 7.78557,-29.61731 z m -16.71511,19.53328 C 207.96047,236.05507 210.32214,228 211.22646,228 c 0.88801,0 0.17474,3.54383 -1.81145,9 -0.70075,1.925 -1.30579,2.71896 -1.34455,1.76435 z m 63.68748,-14.01989 C 276.2459,218.12632 276.6963,217 274.85486,217 c -2.10757,0 -9.53135,-5.28672 -11.45403,-8.15679 -1.04546,-1.5606 -2.18361,-2.83875 -2.52922,-2.84033 -0.34562,-0.002 -2.54617,2.48292 -4.89013,5.52112 l -4.26173,5.52401 3.39012,5.0151 c 3.41268,5.04847 8.10465,8.88884 10.89807,8.92004 0.82937,0.009 3.41687,-2.79814 5.75,-6.23869 z m -15.7978,-4.29249 c -1.05542,-1.2717 -0.99092,-2.16422 0.36137,-5 0.90537,-1.89858 2.11497,-3.45197 2.68799,-3.45197 0.60072,0 0.35983,1.31891 -0.56892,3.1149 -1.15807,2.23946 -1.30581,3.41987 -0.52568,4.2 0.59681,0.59681 1.0851,1.4451 1.0851,1.8851 0,1.31692 -1.66643,0.90685 -3.03986,-0.74803 z M 277,214.24828 c 0,-0.41344 -1.93749,-1.77955 -4.30554,-3.0358 -2.36805,-1.25624 -5.09349,-3.61797 -6.05654,-5.24828 -2.2075,-3.73701 -4.18449,-3.92183 -2.26598,-0.21184 1.67231,3.23388 3.99001,5.39601 8.12806,7.58244 3.37394,1.7827 4.5,2.01129 4.5,0.91348 z m 12.62157,-19.68799 c 3.3588,-5.62591 4.35479,-8.06817 3.4177,-8.38053 -0.72736,-0.24246 -2.96362,-1.9235 -4.96945,-3.73564 l -3.64696,-3.29482 -6.46143,8.67535 c -3.55379,4.77144 -7.32028,10.10794 -8.37,11.85887 -1.82204,3.03921 -1.82995,3.3035 -0.17452,5.83001 0.95373,1.45557 3.16258,3.26764 4.90857,4.02682 3.12119,1.35714 3.23652,1.3096 6.86521,-2.83001 2.02989,-2.31569 5.82378,-7.78321 8.43088,-12.15005 z m -50.17282,-9.47736 c 0.31173,-0.50439 0.83281,-2.86689 1.15796,-5.25 l 0.59118,-4.33293 -6.34894,0 c -5.06972,0 -7.01538,-0.47533 -9.65653,-2.35909 -1.81916,-1.2975 -3.45032,-2.1975 -3.6248,-2 -0.17447,0.1975 -0.62816,2.92434 -1.0082,6.05965 l -0.69098,5.70056 4.81578,1.47979 c 5.4584,1.67725 13.91334,2.07927 14.76453,0.70202 z m -16.78208,-3.7496 C 221.6293,180.29596 221.88283,177 223,177 c 0.55,0 1,0.675 1,1.5 0,0.825 0.70156,1.5 1.55902,1.5 0.85746,0 1.2809,0.45 0.94098,1 -0.7043,1.13958 -2.84127,1.3254 -3.83333,0.33333 z m 81.28064,-3.35664 c 2.93667,-3.86282 5.16239,-7.16744 4.94605,-7.34359 -0.21635,-0.17615 -2.34182,-1.39374 -4.72327,-2.70574 -2.45665,-1.35343 -5.32326,-4.05123 -6.62595,-6.23576 l -2.29603,-3.85028 -5.12406,7.27293 c -5.21211,7.39792 -5.61889,8.43264 -4.48094,11.3981 0.80954,2.10963 9.33115,8.42968 11.41085,8.46286 0.85467,0.0136 3.95668,-3.1357 6.89335,-6.99852 z M 287.72214,175.75 c -0.49415,-1.38958 2.67548,-8.25967 4.26357,-9.24117 1.47753,-0.91316 1.25843,0.0429 -0.95716,4.17673 -1.46282,2.72929 -1.68923,4.01837 -0.87756,4.99637 0.82466,0.99366 0.71509,1.31807 -0.44521,1.31807 -0.84651,0 -1.73915,-0.5625 -1.98364,-1.25 z M 232.5,171.90869 c -2.2,-0.48972 -5.2375,-1.59496 -6.75,-2.45608 -3.87603,-2.20677 -3.43845,-0.84297 0.5,1.55835 1.7875,1.08986 4.825,1.93804 6.75,1.88485 l 3.5,-0.0967 -4,-0.89041 z m 7.8996,-3.15869 c 0.18525,-0.6875 1.2783,-5.525 2.429,-10.75 1.15069,-5.225 2.35429,-10.4 2.67466,-11.5 0.51251,-1.75974 -0.20061,-2.18539 -5.93619,-3.5432 l -6.51869,-1.54321 -2.04613,9.54321 c -1.12537,5.24876 -2.42552,11.23737 -2.88921,13.30802 -0.79164,3.53506 -0.6835,3.79978 1.77193,4.33748 1.43827,0.31495 3.06503,0.72275 3.61503,0.90622 2.48147,0.82778 6.59398,0.37566 6.8996,-0.75852 z M 311,167 c 0,-0.55 -0.47656,-1 -1.05902,-1 -0.58246,0 -0.7809,0.45 -0.44098,1 0.33992,0.55 0.81648,1 1.05902,1 0.24254,0 0.44098,-0.45 0.44098,-1 z m -5,-2 c -1.375,-1.07554 -2.78623,-1.96553 -3.13606,-1.97776 -0.34983,-0.0122 -1.40079,-1.63379 -2.33545,-3.60345 -0.93467,-1.96967 -1.91913,-3.36149 -2.18768,-3.09293 -1.0503,1.0503 2.92538,6.86568 5.95774,8.71462 4.09188,2.49497 4.91772,2.47532 1.70145,-0.0405 z m 11.26701,-11.25 c 10.2925,-14.17532 12.92112,-18.58188 12.28331,-20.59144 C 328.94846,131.26225 324.02311,128 321.76193,128 c -0.78622,0 -3.16388,2.5875 -5.28369,5.75 -2.11981,3.1625 -4.38614,6.20686 -5.03629,6.76524 C 309.10665,142.5209 302,154.35037 302,156.23196 c 0,1.9868 5.08713,7.76804 6.83539,7.76804 0.54409,0 4.33832,-4.6125 8.43162,-10.25 z m -69.02614,-14 c 0.89272,-0.6875 1.92673,-3.36688 2.2978,-5.95418 0.65711,-4.58172 0.60032,-4.7188 -2.182,-5.26624 -3.32363,-0.65395 -10.14325,-2.37879 -12.46111,-3.1517 -1.28221,-0.42756 -1.84845,0.70531 -2.81945,5.64077 -0.66825,3.39668 -0.92646,6.46954 -0.57379,6.82857 2.67537,2.72362 13.04481,3.97728 15.73855,1.90278 z M 236.25,136.33772 c -1.48492,-0.59918 -1.68747,-6.94931 -0.25,-7.83772 0.58427,-0.3611 1,0.66674 1,2.47237 0,1.81925 0.61462,3.32625 1.49426,3.6638 0.82184,0.31537 1.24528,0.97625 0.94098,1.46861 -0.59831,0.96809 -1.24597,1.01545 -3.18524,0.23294 z M 333.99626,133.25 c -0.0224,-4.50124 -11.38071,-12.75883 -14.68382,-10.67529 -3.08023,1.94297 -2.43332,3.09269 1.83425,3.25991 4.86945,0.1908 8.47464,2.24018 10.05936,5.71827 1.04578,2.29522 2.79851,3.3613 2.79021,1.69711 z m 3.3034,-7.87498 c 5.54013,-2.81302 5.81875,-3.24536 4.15936,-6.45427 -2.10511,-4.07084 -11.76528,-11.15697 -14.65192,-10.74778 -2.07855,0.29463 -2.33522,0.9214 -2.59097,6.32703 l -0.28387,6 4.78387,3.14407 c 2.63113,1.72924 4.91872,3.19174 5.08353,3.25 0.16481,0.0583 1.73981,-0.62531 3.5,-1.51905 z m -11.69267,-7.95681 C 324.67143,114.98018 324.88759,112 326,112 c 0.55,0 1,0.87344 1,1.94098 0,1.06754 0.45,2.2191 1,2.55902 1.46839,0.90751 1.21804,2.5 -0.39301,2.5 -0.76616,0 -1.66616,-0.7118 -2,-1.58179 z m -86.62705,5.05762 c -0.69572,-0.83829 -1.47088,-1.31823 -1.72258,-1.06653 -0.69349,0.6935 0.71555,2.5907 1.9241,2.5907 0.6631,0 0.58723,-0.57378 -0.20152,-1.52417 z M 253.99951,109.75 c 1.78662,-7.2875 3.56384,-13.7 3.94936,-14.25 0.89298,-1.273931 3.29511,-9.607688 2.87044,-9.958459 -0.17562,-0.14506 -2.80935,-0.543726 -5.85274,-0.885925 l -5.53342,-0.622179 -2.27379,7.233281 c -1.25059,3.978305 -3.32002,12.329902 -4.59873,18.559102 l -2.32494,11.32582 2.13216,0.86079 c 1.17268,0.47344 3.53865,0.88932 5.2577,0.92418 l 3.12556,0.0634 3.2484,-13.25 z m 91.13336,6.97294 C 341.43612,110.75618 330.99472,104 325.47008,104 c -2.45664,0 -5.22362,3.41626 -3.58647,4.42806 0.48895,0.3022 1.12304,-0.34549 1.40908,-1.43931 0.76274,-2.91671 4.03987,-2.47748 10.00535,1.34103 6.34252,4.05986 11.69134,9.96608 11.73237,12.95502 0.0275,2.00728 0.1275,2.0484 1.06483,0.43814 0.7818,-1.34307 0.54677,-2.56417 -0.96237,-5 z M 260.38294,82.044505 c 1.87736,-0.713771 2.90577,-2.277589 4.0651,-6.181501 C 265.30162,72.9887 266,70.156173 266,69.568499 c 0,-0.606285 -2.05477,-1.07389 -4.75,-1.080961 -2.6125,-0.0069 -6.29448,-0.800762 -8.18218,-1.76424 -4.02772,-2.05574 -4.28491,-1.799558 -6.03232,6.008677 -1.39643,6.239911 -1.18896,6.551326 5.95675,8.941173 4.49354,1.50284 4.42387,1.49934 7.39069,0.371357 z M 248.88152,76.25 c -0.16732,-3.883365 0.14487,-5.604174 1.21847,-6.716417 0.58262,-0.603584 0.86412,0.335021 0.7498,2.5 -0.10067,1.906529 0.16508,4.253917 0.59057,5.216417 0.55772,1.261609 0.32514,1.75 -0.83337,1.75 -1.05769,0 -1.64749,-0.940003 -1.72547,-2.75 z m 16.7734,-11.793128 C 266.5852,62.032613 265.28714,61.59496 264.04584,63.914354 263.27186,65.360542 263.25664,66 263.9962,66 c 0.58661,0 1.33304,-0.694408 1.65872,-1.543128 z M 271,38.106989 c 0,-1.171379 -1.74477,-1.79621 -7.37215,-2.640088 -6.21138,-0.931454 -6.10867,1.008117 0.12215,2.306703 6.40769,1.335449 7.25,1.374181 7.25,0.333385 z m 0.46489,-6.693753 c 0.9322,-1.42272 1.54646,-2.680535 1.36501,-2.795145 -1.35584,-0.856411 -13.69256,-4.636268 -15.10558,-4.628213 -1.65092,0.0094 -1.66668,0.220901 -0.22432,3.010122 0.85325,1.65 1.79136,3 2.0847,3 0.29333,0 0.27444,-0.418906 -0.042,-0.930902 -1.23795,-2.003042 1.08625,-1.57915 3.3657,0.613844 L 265.31681,32 262.90841,32.09968 260.5,32.19936 263,33 c 4.594,1.471256 6.72265,1.072235 8.46489,-1.586764 z m 7.20055,-4.722043 c -1.009,-0.655156 -2.76735,-1.980427 -3.90745,-2.945047 -1.14009,-0.964619 -3.91454,-2.278274 -6.16544,-2.919233 -5.06769,-1.443057 -15.42505,-1.394416 -16.89882,0.07936 C 250.90209,21.697908 252.08584,22 255.9795,22 c 4.74486,0 7.95046,0.759645 20.5205,4.862828 3.95756,1.29185 4.36912,1.25923 2.16544,-0.171635 z M 43.47616,337.96143 c -1.007965,-1.63093 1.231018,-3.65425 2.566222,-2.31905 0.723175,0.72318 0.597324,1.41175 -0.410973,2.24856 -1.074219,0.89152 -1.636456,0.90991 -2.155249,0.0705 z m 9.954742,-7.07323 c -0.753846,-1.21975 1.492059,-3.05385 2.771352,-2.2632 0.43876,0.27117 0.797746,1.14148 0.797746,1.93402 0,1.69692 -2.576901,1.93459 -3.569098,0.32918 z m 11.262951,-6.52768 C 63.651265,323.31793 64.971789,322 67.059017,322 68.126558,322 69,322.675 69,323.5 c 0,1.48325 -3.069938,2.09673 -4.306147,0.86052 z M 75.53422,319.05537 C 74.568961,317.49355 75.838994,316 78.132341,316 c 1.375041,0 1.908052,0.55174 1.6795,1.73852 -0.383728,1.99254 -3.304347,2.89164 -4.277621,1.31685 z M 85,312.60699 c 0,-1.40501 2.87577,-3.06455 3.766667,-2.17366 0.264225,0.26423 0.213941,1.17482 -0.111744,2.02354 C 87.917136,314.37952 85,314.49933 85,312.60699 z"
     id="path6989"
     inkscape:connector-curvature="0" />
</svg>
