<?xml version="1.0" encoding="UTF-8" standalone="no"?>
<!-- Created with Inkscape (http://www.inkscape.org/) -->

<svg
   xmlns:dc="http://purl.org/dc/elements/1.1/"
   xmlns:cc="http://creativecommons.org/ns#"
   xmlns:rdf="http://www.w3.org/1999/02/22-rdf-syntax-ns#"
   xmlns:svg="http://www.w3.org/2000/svg"
   xmlns="http://www.w3.org/2000/svg"
   xmlns:xlink="http://www.w3.org/1999/xlink"
   xmlns:sodipodi="http://sodipodi.sourceforge.net/DTD/sodipodi-0.dtd"
   xmlns:inkscape="http://www.inkscape.org/namespaces/inkscape"
   id="svg5112"
   version="1.1"
   inkscape:version="0.48.4 r9939"
   width="493.16714"
   height="390.27963"
   sodipodi:docname="Spices.svg">
  <metadata
     id="metadata5118">
    <rdf:RDF>
      <cc:Work
         rdf:about="">
        <dc:format>image/svg+xml</dc:format>
        <dc:type
           rdf:resource="http://purl.org/dc/dcmitype/StillImage" />
        <dc:title />
      </cc:Work>
    </rdf:RDF>
  </metadata>
  <defs
     id="defs5116">
    <linearGradient
       inkscape:collect="always"
       id="linearGradient5654">
      <stop
         style="stop-color:#fff9f6;stop-opacity:1;"
         offset="0"
         id="stop5656" />
      <stop
         style="stop-color:#fff9f6;stop-opacity:0;"
         offset="1"
         id="stop5658" />
    </linearGradient>
    <radialGradient
       inkscape:collect="always"
       xlink:href="#linearGradient5654"
       id="radialGradient5660"
       cx="117.92479"
       cy="178.60805"
       fx="117.92479"
       fy="178.60805"
       r="1.871822"
       gradientTransform="matrix(1,0,0,0.83870971,0,28.807743)"
       gradientUnits="userSpaceOnUse" />
  </defs>
  <sodipodi:namedview
     pagecolor="#ffffff"
     bordercolor="#666666"
     borderopacity="1"
     objecttolerance="10"
     gridtolerance="10"
     guidetolerance="10"
     inkscape:pageopacity="0"
     inkscape:pageshadow="2"
     inkscape:window-width="1217"
     inkscape:window-height="756"
     id="namedview5114"
     showgrid="false"
     inkscape:zoom="1.0350877"
     inkscape:cx="194.66795"
     inkscape:cy="207.01615"
     inkscape:window-x="2"
     inkscape:window-y="22"
     inkscape:window-maximized="0"
     inkscape:current-layer="svg5112"
     fit-margin-top="0"
     fit-margin-left="0"
     fit-margin-right="0"
     fit-margin-bottom="0" />
  <path
     style="fill:#4b2c1c;fill-opacity:0.89175259;stroke:none"
     d="m 152.76469,341.92087 c 13.10497,-1.74275 22.99314,-20.64182 34.32391,-31.84691 -14.50221,-12.63057 -19.5797,-24.4416 -18.7543,-35.73932 l 51.66277,-1.06156 9.20022,8.84635 c 2.04581,-11.82104 21.42959,-25.40745 32.02601,-30.60321 l -30.96443,-33.09064 c 11.31231,0.58218 23.05335,-3.12291 35.03161,-9.20022 l 29.36993,0.70771 47.41653,-26.5391 c -6.9687,9.57835 -5.38002,21.78976 -3.89239,33.97005 l 51.30893,8.84638 c -13.16231,9.50815 -24.91795,20.6239 -42.46258,25.12368 8.48188,12.91908 22.5246,18.69188 34.67777,26.89296 -13.63386,8.73064 -28.38216,15.60389 -46.0011,17.69273 l -3.89241,7.07709 c -8.63274,-3.07737 -16.34062,-3.26455 -30.07765,-22.29285 l -28.85172,11.82379 c 9.81054,6.35184 44.80831,7.12878 56.80625,21.43857 -1.80449,16.1609 -22.3813,25.78259 -50.83365,31.95055 -0.95009,9.01528 1.59838,18.53037 -3.49561,26.95368 -9.5314,1.65249 -19.06278,-10.40491 -28.59418,-15.67325 -11.18835,14.15808 -21.40092,31.52226 -37.03331,31.07849 -2.23923,-7.76003 -4.3427,-15.62566 -0.70771,-27.95453 -19.16877,6.71539 -37.75156,-4.73465 -56.26289,-18.40044 z"
     id="path5636"
     inkscape:connector-curvature="0"
     sodipodi:nodetypes="ccccccccccccccccccccccccc" />
  <path
     style="fill:#bf8a4d;fill-opacity:1;stroke:none"
     d="M 28.915549,302.64301 C 21.689442,296.86273 -15.296982,286.40402 13.699797,237.17989 144.86194,158.62415 272.75019,77.885822 407.18621,1.5126685 422.6359,5.6458565 427.31113,15.687621 413.5556,35.836574 l 10.61563,11.677203 37.50861,-8.492512 18.40044,11.323349 -10.61565,13.446478 c 9.59518,-10.713766 14.72451,9.296122 22.6467,16.985026 -60.87388,50.379252 -128.3313,85.396932 -192.49695,128.095402 l -38.92402,1.41542 c -11.30506,6.89359 -22.82928,11.22475 -36.80088,4.24625 l 25.83139,25.83139 -53.43205,30.78536 c -9.20022,3.98654 -18.40044,5.31635 -27.60066,1.76927 0.45674,6.62588 -1.85206,12.69863 2.83083,20.16973 L 69.608838,357.49048 50.500685,379.42947 C 33.224114,376.66036 13.474217,393.31279 1.6687356,347.58255 -0.74314717,332.46162 4.5525772,320.71279 17.238343,312.19708 z"
     id="path5126"
     inkscape:connector-curvature="0"
     sodipodi:nodetypes="ccccccccccccccccccccc" />
  <path
     style="fill:#4b2c1c;fill-opacity:0.89175259;stroke:none"
     d="m 181.8415,345.48459 c 2.72841,-5.864 9.68953,-13.93632 19.75514,-19.13331 7.58828,1.08406 16.31001,-1.2322 22.68963,3.47784 -22.79184,15.38742 -30.0208,12.46553 -42.44477,15.65547 z"
     id="path5638"
     inkscape:connector-curvature="0"
     sodipodi:nodetypes="cccc" />
  <path
     style="fill:#4b2c1c;fill-opacity:0.89175259;stroke:none"
     d="m 273.77426,319.98293 c 6.34335,5.59343 18.26264,3.2212 29.02473,2.50213 -3.48683,-3.4862 -0.48162,-8.20898 -16.76427,-9.25788 -5.72628,1.15894 -12.301,1.75226 -12.26046,6.75575 z"
     id="path5640"
     inkscape:connector-curvature="0"
     sodipodi:nodetypes="cccc" />
  <path
     style="fill:#4b2c1c;fill-opacity:0.89175259;stroke:none"
     d="m 267.01852,229.40581 c 4.87587,4.76856 11.73716,7.05539 19.26641,8.50724 -0.13385,-3.65004 -0.67191,-7.26333 -8.00681,-10.25874 -3.37697,-0.73295 -6.59722,-2.0145 -11.2596,1.7515 z"
     id="path5642"
     inkscape:connector-curvature="0"
     sodipodi:nodetypes="cccc" />
  <path
     style="fill:#4b2c1c;fill-opacity:0.89175259;stroke:none"
     d="m 318.56241,252.92584 c 5.51291,5.32965 10.19392,11.49121 19.51661,13.01108 -0.95037,-4.79215 1.38605,-9.34952 -8.25703,-14.76257 -4.78927,-1.09977 -11.44013,-5.22467 -11.25958,1.75149 z"
     id="path5644"
     inkscape:connector-curvature="0"
     sodipodi:nodetypes="cccc" />
  <path
     style="fill:#4b2c1c;fill-opacity:0.89175259;stroke:none"
     d="m 300.29685,232.15815 c 2.21151,6.39419 5.74613,5.51117 9.25788,4.75404 1.74259,-2.66892 0.48486,-5.33787 -1.75149,-8.0068 z"
     id="path5646"
     inkscape:connector-curvature="0"
     sodipodi:nodetypes="cccc" />
  <path
     style="fill:#4b2c1c;fill-opacity:0.89175259;stroke:none"
     d="m 234.49083,315.97953 c 1.09943,-4.03459 -0.36241,-7.49999 6.25533,-12.76087 3.83008,2.54709 8.97728,4.43563 7.75659,9.50809 -4.67065,5.09481 -9.34127,6.82204 -14.01192,3.25278 z"
     id="path5648"
     inkscape:connector-curvature="0"
     sodipodi:nodetypes="cccc" />
  <path
     style="fill:#4b2c1c;fill-opacity:0.98823739;stroke:none"
     d="m 189.56559,288.48882 20.87741,0.35385 10.26178,13.80034 c -13.57344,-1.52435 -22.85423,-7.34134 -31.13919,-14.15419 z"
     id="path5686"
     inkscape:connector-curvature="0"
     sodipodi:nodetypes="cccc" />
  <path
     style="fill:#000000"
     d="m 205.99389,385.00197 c -0.72853,-2.90273 -0.75373,-8.84778 -0.056,-13.21125 l 1.26863,-7.93356 -9.13182,1.0293 c -7.84053,0.88374 -11.93994,-0.35507 -28.99064,-8.7607 -10.9224,-5.38449 -19.85886,-10.97455 -19.85886,-12.42233 0,-1.44779 2.72516,-3.17739 6.05588,-3.84354 3.33075,-0.66615 7.75953,-3.68419 9.84172,-6.70678 2.08222,-3.02259 7.40391,-9.59008 11.82601,-14.59445 l 8.04018,-9.09884 -5.50806,-4.33266 c -8.18234,-6.43623 -14.2301,-19.51191 -12.55407,-27.14282 1.35451,-6.16707 1.58597,-6.27098 11.78461,-5.29101 10.01876,0.96266 11.40276,0.39622 37.47337,-15.33741 14.88873,-8.98536 27.95436,-16.04237 29.03475,-15.68222 1.08039,0.36012 -7.72243,6.4117 -19.56182,13.44794 -11.8394,7.03625 -22.92473,13.67217 -24.63408,14.7465 -2.13136,1.33957 0.61856,1.84676 8.75177,1.61414 10.34482,-0.29585 12.57118,0.37144 17.42986,5.22413 4.43028,4.42479 5.76123,8.02891 6.50371,17.61148 0.97815,12.62398 -2.50903,14.00182 -4.27341,1.68849 -0.48987,-3.4187 -0.58945,0.31079 -0.22127,8.28776 0.46364,10.04563 0.11873,12.91146 -1.12247,9.32373 -1.45958,-4.21932 -1.79185,-3.25879 -1.79185,5.17985 0,8.11854 0.35888,9.23913 1.65887,5.17984 0.91238,-2.84891 1.75183,-3.95935 1.86541,-2.46763 0.11354,1.49171 1.07751,2.1739 2.14206,1.51597 1.06452,-0.6579 1.4114,-4.42591 0.77082,-8.37331 -0.84711,-5.22017 -0.32873,-7.49789 1.90119,-8.3536 1.88557,-0.72356 2.71994,-2.98623 2.16729,-5.87722 -0.55812,-2.91966 2.72226,-11.62292 8.65775,-22.97005 5.25597,-10.04812 9.07298,-18.75264 8.48221,-19.34342 -0.59075,-0.59077 -5.74709,3.59884 -11.45849,9.31024 -5.77972,5.77972 -10.38436,9.03789 -10.38436,7.34781 0,-3.47999 17.85014,-20.62049 23.33993,-22.41207 3.0201,-0.9856 1.75265,-3.06048 -7.28244,-11.92163 -6.01639,-5.90058 -12.95832,-13.05927 -15.42648,-15.90819 -9.65341,-11.14258 -8.02433,-11.59648 -43.4201,12.0977 -18.14909,12.14911 -37.62384,25.65074 -43.27723,30.0036 -14.47449,11.14471 -61.531178,42.04904 -75.35748,49.49078 -6.370738,3.42892 -11.818531,6.44728 -12.106199,6.70745 -0.287668,0.26018 2.259471,5.52112 5.660311,11.69098 3.400841,6.16989 6.200218,12.84961 6.220875,14.84386 0.02072,1.99424 0.384179,3.62589 0.80787,3.62589 2.584123,0 44.425723,-25.09403 58.279933,-34.95273 24.07244,-17.13001 38.33491,-25.51646 38.3063,-22.52445 -0.0145,1.41393 -5.37466,5.62515 -11.91366,9.35827 -6.53898,3.73314 -19.2131,11.8488 -28.16471,18.03482 -8.95161,6.18603 -25.46273,16.49463 -36.691376,22.90803 -11.22867,6.41338 -20.925783,13.21568 -21.549167,15.11621 -0.623405,1.90055 -4.820161,7.4181 -9.326153,12.26126 l -8.192698,8.80575 -15.695585,0 c -18.939622,0 -24.099415,-2.78158 -31.2178538,-16.82915 C -4.473455,346.2765 -0.38178847,326.26422 15.818832,312.72219 l 9.408927,-7.86488 -6.292336,-3.8266 c -3.460802,-2.10462 -8.893677,-7.7647 -12.0731096,-12.57792 -4.8144419,-7.28846 -5.7496326,-10.85201 -5.5945686,-21.31827 0.1926904,-12.99951 4.8025489,-25.29619 10.2699422,-27.39421 1.643234,-0.63057 2.548838,-1.85656 2.012475,-2.72441 -0.536363,-0.86786 0.634448,-2.94305 2.601817,-4.61154 4.899745,-4.15538 54.735633,-34.16815 61.964237,-37.31686 3.213619,-1.39982 21.227085,-12.37401 40.029934,-24.38709 18.80285,-12.01311 39.31506,-24.55701 45.58268,-27.87534 6.26762,-3.31834 25.38126,-14.59133 42.47476,-25.05111 17.0935,-10.45978 38.53807,-23.474707 47.65461,-28.922057 9.11653,-5.447357 39.88484,-23.959187 68.37401,-41.137401 28.48917,-17.178215 60.07278,-35.268955 70.18579,-40.2016435 17.50943,-8.540328 18.6268,-8.811597 23.40368,-5.681675 2.759,1.807767 6.02342,5.497117 7.25428,8.1985545 3.13217,6.874365 0.41859,19.172767 -4.85288,21.993963 -4.30174,2.30223 -4.29791,2.332289 0.91569,7.166607 2.87954,2.670074 5.58237,5.895149 6.00627,7.166833 0.5184,1.555169 3.83613,0.998166 10.13379,-1.701329 5.14968,-2.207416 12.27809,-4.653726 15.84087,-5.436246 8.29358,-1.821577 21.66381,1.765345 26.50007,7.109351 3.57206,3.94707 3.57983,4.34957 0.15705,8.131601 -3.43391,3.79443 -3.40258,4.085134 0.67531,6.267558 4.69079,2.51043 14.71502,16.202468 14.71502,20.099151 0,3.982916 -23.79037,21.466723 -55.94237,41.112693 -16.52372,10.09656 -35.17118,22.28949 -41.4388,27.09541 -6.26761,4.80593 -14.46545,10.28203 -18.2174,12.16915 -3.75197,1.8871 -13.18069,7.54468 -20.9527,12.57236 -15.25215,9.86657 -16.6944,12.74327 -16.74946,33.40816 -0.0226,8.48492 0.0632,8.5816 9.81891,11.05782 5.41294,1.37392 16.83451,2.95947 25.38126,3.52341 8.54675,0.56394 16.68928,1.37996 18.09454,1.81336 2.99921,0.92502 1.1486,7.16069 -2.12515,7.16069 -1.2291,0 -4.15954,1.78375 -6.51213,3.96391 -10.97639,10.17196 -36.3924,18.97973 -36.3924,12.61161 0,-1.13957 3.03022,-2.07673 6.73381,-2.08255 3.70359,-0.006 10.46329,-2.38178 15.02156,-5.27984 5.52039,-3.50978 6.55815,-4.73478 3.10791,-3.66864 -2.84892,0.88033 -13.10502,1.4327 -22.79134,1.2275 l -17.61148,-0.37309 10.35969,9.33247 c 5.69784,5.13286 13.54757,12.31755 17.44385,15.96599 3.8963,3.64844 10.83337,8.60771 15.41571,11.02059 l 8.33154,4.38706 -8.78262,5.54424 c -11.19859,7.06936 -17.69346,9.56973 -29.30057,11.28008 -7.56887,1.1153 -9.44833,2.2478 -9.98581,6.01718 -0.36415,2.55383 -2.03295,4.64332 -3.70844,4.64332 -5.48954,0 -20.38325,-8.68537 -25.72873,-15.00389 l -5.236,-6.18909 -12.89347,3.61773 c -7.09142,1.98974 -12.89349,4.23741 -12.89349,4.99476 0,0.75738 7.39284,2.45457 16.42853,3.77153 10.83359,1.57901 20.49803,4.5661 28.37791,8.77102 6.57215,3.50711 12.24477,6.67196 12.60582,7.03299 1.36404,1.36404 -5.43045,14.98386 -9.06863,18.17841 -7.66512,6.73053 -30.67716,16.17792 -39.54578,16.23518 -3.8005,0.0245 -4.59774,1.09076 -4.28293,5.72799 0.62713,9.23763 -0.30454,17.92426 -2.25232,20.99983 -2.7434,4.33184 -11.45348,1.28274 -21.01706,-7.3574 -4.55965,-4.11936 -8.54225,-7.12592 -8.8502,-6.68121 -15.21107,21.96502 -25.37231,30.85167 -35.2766,30.85167 -4.07352,0 -5.74174,-1.30658 -6.73842,-5.27766 z m 8.84966,-1.46037 c -3.0727,-2.24681 -3.26726,-4.07299 -1.45309,-13.63906 1.15204,-6.07468 3.98018,-15.30751 6.28475,-20.51736 2.30456,-5.20987 3.84865,-9.81395 3.4313,-10.23132 -1.93254,-1.93252 -11.7417,24.65706 -12.97857,35.18083 -1.33658,11.37224 -1.21165,11.80106 3.43818,11.80106 4.37206,0 4.49201,-0.24359 1.27743,-2.59415 z m 21.89552,-15.22272 c 4.84357,-6.35102 7.31343,-11.51238 6.59417,-13.7802 -1.99569,-6.29253 3.7411,-4.02922 13.12945,5.17984 l 8.97715,8.80575 -9.9347,-16.633 -9.9347,-16.63297 -3.44657,11.08022 c -3.42897,11.02373 -10.70542,23.78632 -19.09211,33.48683 l -4.39654,5.08527 5.17985,-3.21872 c 2.84892,-1.77029 8.66471,-7.78815 12.924,-13.37302 z m -183.859017,7.02116 c 1.355463,-1.29679 0.997224,-1.78338 -1.03597,-1.4072 -1.70935,0.31628 -8.702147,-0.26065 -15.539548,-1.28208 -6.837401,-1.02142 -13.364011,-1.90154 -14.503577,-1.95585 -1.139567,-0.0543 -4.635966,-3.01892 -7.769775,-6.58806 -4.6157631,-5.25695 -5.6701735,-8.4048 -5.5521972,-16.57552 0.1500084,-10.39521 2.0424972,-17.69229 4.5595102,-17.58127 3.014755,0.13301 17.120501,-6.54704 18.572454,-8.79528 1.094398,-1.6946 1.531142,-1.62917 1.553954,0.23286 0.01658,1.42446 2.218157,2.58992 4.890441,2.58992 5.100722,0 10.01211,4.42082 12.660235,11.39567 1.573286,4.14388 1.573286,4.14388 3.445097,0 1.304887,-2.88882 1.49534,-1.63376 0.628792,4.14388 -1.384428,9.2306 0.381631,9.03673 3.069973,-0.33702 1.294009,-4.51194 0.876824,-7.14622 -1.617874,-10.21582 -7.618958,-9.3747 -35.209776,-15.22756 -35.716925,-7.57663 -0.219232,3.30719 -0.32169,3.31728 -1.165777,0.11479 -1.07859,-4.09211 -6.881637,-2.69162 -6.881637,1.66084 0,1.58742 -1.298796,2.88623 -2.8862331,2.88623 -4.0334865,0 -5.4069546,4.68253 -5.3674427,18.29894 0.04206,14.46997 6.3525668,26.81515 16.2434278,31.77643 7.332636,3.67806 28.27835,3.17091 32.413072,-0.78483 z m 172.933527,-6.93775 c 0.0404,1.07248 1.36827,0.17923 2.95086,-1.98514 1.58257,-2.16431 2.3565,-5.29259 1.71983,-6.95171 -0.80152,-2.08877 -0.32378,-2.50131 1.55323,-1.34125 2.12271,1.31191 2.45619,-0.0752 1.53705,-6.3939 -0.64559,-4.43812 -0.70628,-6.43765 -0.13488,-4.4434 2.23314,7.79368 4.16824,3.12011 2.02808,-4.89807 -2.03332,-7.61784 -2.42127,-8.00328 -3.6495,-3.62589 -0.75588,2.69393 -1.4989,3.4995 -1.65115,1.79015 -0.33242,-3.73195 -8.25305,12.08254 -8.35369,16.67912 -0.0387,1.76633 -1.05428,4.19549 -2.25694,5.39815 -1.25012,1.25012 -1.56746,4.65351 -0.74097,7.94661 l 1.44568,5.75997 2.73948,-4.9423 c 1.50673,-2.71826 2.77254,-4.06481 2.8129,-2.99234 z m -6.14239,-1.70541 c 0,-1.70935 0.93238,-3.68414 2.07194,-4.38843 1.13957,-0.70429 2.07194,0.1181 2.07194,1.82739 0,1.70935 -0.93237,3.68413 -2.07194,4.38843 -1.13956,0.70429 -2.07194,-0.1181 -2.07194,-1.82739 z m 4.30746,-10.7769 c 0.0995,-2.41371 0.59038,-2.90466 1.25179,-1.25181 0.59852,1.49567 0.52492,3.28272 -0.16348,3.97123 -0.6885,0.68848 -1.17819,-0.53527 -1.08822,-2.71942 z m 4.14388,-4.14388 c 0.0995,-2.41371 0.59038,-2.90466 1.25179,-1.25181 0.59852,1.49567 0.52492,3.28272 -0.16348,3.97123 -0.68851,0.68848 -1.17819,-0.53527 -1.08822,-2.71942 z m 48.41651,12.46456 c 1.83771,-9.79578 -3.43484,-25.37273 -12.69424,-37.50319 -5.18291,-6.78999 -6.5885,-10.0947 -4.97837,-11.70482 1.23396,-1.23397 2.17802,-4.15492 2.09792,-6.49104 -0.12452,-3.63097 -0.35009,-3.7322 -1.55443,-0.69745 -0.9457,2.38296 -2.34736,2.96996 -4.2637,1.7856 -1.5702,-0.97042 -2.19994,-2.82412 -1.39947,-4.11933 0.80049,-1.29521 0.68685,-2.22141 -0.25253,-2.05825 -4.33236,0.75262 -4.46557,-0.66865 -0.64928,-6.92782 5.1348,-8.42168 5.14203,-9.84171 0.0501,-9.84171 -3.62718,0 -6.50069,3.08862 -8.67432,9.32373 -0.39725,1.13957 -1.42158,1.83885 -2.27626,1.55395 -3.90084,-1.30028 -1.02969,4.94523 3.10791,6.76047 6.92453,3.03796 5.91193,9.75223 -2.0271,13.44095 -6.599,3.06611 -9.74603,7.79787 -3.62374,5.44851 1.73635,-0.66629 4.99702,0.63147 7.25179,2.88624 4.08127,4.08122 4.09693,4.08103 4.09693,-0.047 0,-12.28098 13.88407,3.88528 19.45199,22.64941 4.1881,14.11405 4.21526,18.78939 0.10919,18.78939 -1.7766,0 -2.65395,0.93237 -1.94965,2.07194 2.73175,4.42004 6.85306,1.73898 8.17726,-5.31958 z m -237.126595,1.62761 c 0,-2.47647 -1.766308,-3.83817 -5.364936,-4.13599 -7.71064,-0.63815 -9.138642,-2.02414 -9.138642,-8.86985 0,-3.35144 -0.932373,-6.09353 -2.071939,-6.09353 -1.139567,0 -2.07194,-0.9874 -2.07194,-2.19422 0,-1.20683 0.932373,-1.61798 2.07194,-0.91369 1.139566,0.7043 2.071939,0.37084 2.071939,-0.74103 0,-1.11186 -2.564025,-2.91957 -5.697834,-4.01712 -4.418971,-1.54765 -2.093737,-1.89472 10.359698,-1.54633 14.364385,0.40188 16.057533,0.0479 16.057533,-3.35693 0,-4.31649 -3.262103,-5.13564 -4.843615,-1.21627 -0.624296,1.5472 -1.110912,1.13012 -1.208625,-1.03597 -0.184195,-4.08309 -4.289847,-5.0633 -4.33918,-1.03597 -0.02072,1.66681 -0.5743,1.82672 -1.553955,0.44866 -1.365594,-1.92092 -4.937183,-2.36709 -7.738052,-0.96665 -0.569783,0.2849 -1.735249,0.66758 -2.589925,0.85041 -9.924778,2.12303 -14.5405206,11.87839 -10.875135,22.98459 2.047035,6.20258 9.347784,10.89631 15.019015,9.65592 0.854675,-0.18689 1.553954,0.70123 1.553954,1.97371 0,1.29405 1.827368,1.83572 4.146739,1.2292 2.280708,-0.59641 3.624237,-0.23898 2.985624,0.79432 -0.638593,1.03329 -0.173629,1.87871 1.03311,1.87871 1.206822,0 2.194226,-1.66139 2.194226,-3.69197 z m -20.719397,-9.89793 c 0,-1.7766 0.947581,-2.64454 2.105733,-1.92876 1.158152,0.71577 1.569329,2.16936 0.913705,3.23019 -1.77615,2.87386 -3.019438,2.338 -3.019438,-1.30143 z m 35.222974,7.25179 c 0,-3.69779 -0.863128,-5.80466 -2.071939,-5.05756 -1.139567,0.70429 -2.07194,2.62407 -2.07194,4.26616 0,1.6421 -0.903117,2.98563 -2.006901,2.98563 -1.103805,0 -1.395431,-1.63165 -0.648041,-3.6259 1.189977,-3.17522 0.924375,-3.27246 -2.136978,-0.78228 -5.560775,4.52332 -4.279425,8.55206 2.71998,8.55206 5.551825,0 6.215819,-0.67707 6.215819,-6.33811 z m 6.48857,-5.69783 0.27275,-7.64749 1.426965,7.25179 1.426945,7.25179 1.645265,-7.80431 c 1.105173,-5.24236 0.737155,-9.99672 -1.121106,-14.48297 l -2.766391,-6.67865 -2.4913,8.26715 c -3.11539,10.33817 -3.575049,24.52422 -0.737818,22.77072 1.139567,-0.7043 2.194681,-4.72191 2.34469,-8.92803 z m 144.294548,1.98769 c 3.04723,-0.8715 6.45272,-5.10955 9.64143,-11.99858 l 4.93008,-10.65116 -11.71338,4.65453 c -6.44236,2.55997 -17.75256,5.8937 -25.13376,7.40829 l -13.42041,2.75375 10.3125,4.77016 c 10.36769,4.79571 16.66711,5.55587 25.38354,3.06301 z M 41.484384,355.05666 c 0,-1.13957 -0.411155,-2.07194 -0.913683,-2.07194 -0.502529,0 -1.489932,0.93237 -2.194226,2.07194 -0.704294,1.13957 -0.293117,2.07194 0.913684,2.07194 1.206822,0 2.194225,-0.93237 2.194225,-2.07194 z m 8.280922,-3.08993 c 2.060026,-5.41826 0.858819,-11.41365 -2.286779,-11.41365 -1.017634,0 -1.850263,0.81583 -1.850263,1.81295 0,0.99712 -0.582733,4.72661 -1.294962,8.28776 -1.585014,7.92502 2.539099,8.92185 5.432004,1.31294 z M 267.32581,351.7042 c 0,-1.84529 -0.9848,-2.49928 -2.42405,-1.60977 -1.64462,1.01643 -1.98535,0.35492 -1.05969,-2.05727 0.8104,-2.11189 0.53274,-3.04147 -0.68387,-2.28956 -1.15293,0.71254 -2.04821,-1.13528 -2.04821,-4.22744 0,-3.02132 -1.95013,-7.97131 -4.33361,-10.99997 l -4.33361,-5.50666 1.51343,8.28776 c 2.65567,14.54278 13.36961,29.29025 13.36961,18.40291 z m -10.19612,-14.43168 c 0.0995,-2.41371 0.59038,-2.90465 1.25178,-1.25181 0.59852,1.49568 0.52493,3.28272 -0.16347,3.97123 -0.68851,0.68848 -1.17819,-0.53527 -1.08823,-2.71942 z M 37.958067,346.7031 c 1.13936,-4.35698 -2.925868,-8.54883 -4.298135,-4.43201 -0.449486,1.34842 -1.669962,1.92467 -2.71221,1.28052 -1.042227,-0.64412 -1.894976,-0.23008 -1.894976,0.92011 0,1.1502 1.631653,3.04163 3.625895,4.20316 2.012288,1.17205 2.473316,2.13994 1.03597,2.17489 -1.424459,0.0346 -2.589925,1.10955 -2.589925,2.38864 0,3.63174 5.566908,-1.69236 6.833381,-6.53531 z m 136.130463,-1.7394 c 0,-0.53702 -1.62498,-2.91457 -3.61108,-5.28344 -3.39666,-4.05129 -3.30437,-4.04107 1.55395,0.17218 3.89666,3.3792 5.70845,3.88142 7.37785,2.0451 2.71148,-2.9826 -2.24509,-16.71288 -5.34229,-14.79872 -1.19159,0.73645 -0.63965,3.32146 1.36122,6.37521 1.85105,2.82505 2.77307,5.72893 2.04892,6.45308 -0.72414,0.72416 -1.33091,0.46196 -1.34835,-0.58263 -0.0166,-1.04461 -0.87878,-3.23788 -1.91404,-4.87397 -1.52656,-2.41248 -2.47624,-2.48175 -5.02495,-0.36648 -1.72848,1.43448 -2.61752,3.97669 -1.97568,5.64932 0.64185,1.67264 0.35335,2.89262 -0.64114,2.71106 -3.3928,-0.61939 -5.16204,0.15829 -4.13619,1.81818 1.07801,1.74427 11.65178,2.36237 11.65178,0.68113 z m 34.70498,-8.02725 c 7.12229,-2.81148 12.94962,-5.78546 12.94962,-6.60883 0,-0.82338 -5.04486,-1.70114 -11.21083,-1.9506 -9.94795,-0.40248 -12.04853,0.28195 -18.64745,6.07588 -13.33239,11.70602 -8.31964,12.44229 16.90866,2.48355 z m 93.28962,1.50848 c 4.87194,-1.49764 12.33092,-5.79286 16.57552,-9.54491 8.30193,-7.33856 7.61898,-8.22716 -3.69191,-4.80355 -3.98096,1.20498 -15.86388,2.10967 -26.40651,2.01043 l -19.16841,-0.18047 4.40188,9.06043 c 4.27302,8.79515 4.62189,9.01826 11.91661,7.62074 4.13311,-0.79182 11.50086,-2.66501 16.37282,-4.16267 z m -61.72426,2.62614 c -0.0166,-0.85468 -0.93554,-2.95252 -2.04022,-4.66187 -1.62413,-2.51318 -2.01455,-2.21581 -2.04022,1.55396 -0.0166,2.56402 0.90065,4.66186 2.04022,4.66186 1.13957,0 2.05767,-0.69928 2.04022,-1.55395 z m -57.36374,-8.10966 c -0.8896,-2.31827 -0.5289,-2.95701 1.10099,-1.94967 1.33323,0.82399 2.42405,0.45572 2.42405,-0.81836 0,-1.27407 0.89445,-1.76369 1.98765,-1.08805 3.1784,1.96436 10.43033,-3.66216 10.58962,-8.21609 0.14524,-4.15545 0.14897,-4.15549 1.9263,-0.0186 1.53446,3.57088 1.80522,3.28437 1.95805,-2.07194 0.0976,-3.4187 1.13003,-7.61438 2.29442,-9.32373 1.53736,-2.25686 1.80625,-0.83845 0.98199,5.17985 -0.74233,5.42007 -0.53093,6.89231 0.611,4.25483 1.63865,-3.78473 1.84748,-3.72098 3.39321,1.03597 l 1.64709,5.06796 0.94839,-5.17984 c 1.61479,-8.81969 4.74137,-9.77608 4.74137,-1.45036 0,5.43308 0.90531,7.66617 3.1079,7.66617 2.36765,0 3.03788,-2.34415 2.81389,-9.84171 l -0.29401,-9.84171 -1.48391,8.28776 -1.4839,8.28776 -0.29401,-7.89206 c -0.17404,-4.67246 -1.13927,-7.36965 -2.36596,-6.61152 -1.13957,0.70429 -2.08622,0.0601 -2.10367,-1.43167 -0.023,-1.97081 -0.58076,-1.86265 -2.04021,0.3957 -1.339,2.07194 -2.01907,2.24459 -2.04022,0.51798 -0.0166,-1.42446 -1.89647,-2.58992 -4.1756,-2.58992 -2.27913,0 -4.21749,1.16546 -4.30746,2.58992 -0.10152,1.60828 -0.63712,1.41195 -1.41293,-0.51798 -0.75757,-1.88449 -2.29534,0.97016 -3.90646,7.25179 l -2.65708,10.35969 0.99153,-9.32372 c 0.60915,-5.72819 0.29158,-8.25672 -0.82349,-6.55684 -0.99826,1.52179 -2.62786,2.92035 -3.62136,3.10791 -0.99347,0.18751 -1.64899,2.20576 -1.45668,4.4849 0.27572,3.26755 0.12681,3.37709 -0.70385,0.51798 -0.57944,-1.99424 -1.86249,-3.62589 -2.85126,-3.62589 -2.8783,0 -4.38112,3.73438 -2.07609,5.15896 1.15816,0.71577 2.0402,2.87805 1.9601,4.80504 -0.11872,2.85614 -0.47468,2.73784 -1.9263,-0.64027 -1.64137,-3.81967 -1.80348,-3.73863 -2.07194,1.03596 -0.26846,4.7746 -0.43057,4.85564 -2.07194,1.03597 -0.97939,-2.27913 -1.84623,-3.0391 -1.92631,-1.68883 -0.18502,3.11779 3.56113,13.0845 4.9179,13.0845 0.56224,0 0.42686,-1.55151 -0.30081,-3.44779 z m 57.39546,-4.40301 c 0,-2.44622 -0.58737,-2.52881 -3.10791,-0.43696 -1.70935,1.41864 -3.10791,2.77597 -3.10791,3.01629 0,0.24033 1.39856,0.43695 3.10791,0.43695 1.70935,0 3.10791,-1.35732 3.10791,-3.01628 z m 57.8181,-9.8089 c -3.32793,-3.32793 -16.13096,-4.73828 -20.19764,-2.22493 -5.49068,3.39344 -1.62032,5.38106 10.47815,5.38106 11.53242,0 12.54636,-0.32926 9.71949,-3.15613 z m 14.94492,-4.83533 c 0.24155,-5.39551 0.26844,-5.38461 1.82681,0.73967 1.4901,5.85596 1.60428,5.91594 1.97242,1.03597 0.36137,-4.79 0.52478,-4.86798 2.17146,-1.03597 0.97938,2.27913 1.84622,3.00767 1.9263,1.61897 0.0839,-1.45649 1.67991,-2.02226 3.77153,-1.33702 1.99424,0.65332 -0.10359,-1.17208 -4.66186,-4.05643 l -8.28776,-5.24428 -2.15343,7.61728 c -1.72864,6.11477 -2.44385,6.86866 -3.62589,3.82194 -0.80986,-2.08744 -1.40693,-5.81693 -1.32683,-8.28776 0.14089,-4.34904 0.20243,-4.36015 1.9263,-0.34852 1.73394,4.03508 1.7845,4.02766 1.9263,-0.28282 0.11085,-3.36682 -1.32359,-4.64235 -5.99068,-5.32733 -4.01705,-0.58957 -6.52157,0.10339 -7.25179,2.00624 -1.85989,4.84682 -1.21113,7.99402 0.95647,4.63988 1.67314,-2.58902 2.04826,-2.41603 2.24675,1.03597 0.1987,3.4546 0.51417,3.28228 1.89713,-1.03597 1.64156,-5.12577 1.66103,-5.12975 1.86541,-0.38178 0.5208,12.09905 10.29056,16.45644 10.81136,4.82196 z M 72.344123,311.66649 c 8.171958,-4.49194 18.32409,-10.84196 22.560295,-14.11111 4.236205,-3.26917 18.424472,-13.16463 31.529492,-21.98989 13.10502,-8.82528 41.07621,-28.01364 62.1582,-42.64081 C 327.60189,136.47652 395.2894,94.074153 451.49226,68.232726 c 12.84171,-5.904469 24.68243,-16.764333 21.66552,-19.870788 -3.73179,-3.842555 -15.41342,-5.575455 -24.53725,-3.639957 -10.7617,2.282948 -81.92566,38.324227 -104.63296,52.991792 -9.68631,6.256777 -29.26614,19.515357 -43.51073,29.463507 -14.24458,9.94815 -31.49348,21.13381 -38.33088,24.85702 -6.8374,3.72321 -19.7011,11.86165 -28.58601,18.08542 -16.89663,11.83585 -33.23538,21.37835 -64.93254,37.92321 -24.29631,12.68186 -80.488393,50.17448 -101.508304,67.7286 -4.412776,3.68519 -16.880776,13.46675 -27.706661,21.73678 l -19.683427,15.03642 10.595941,1.31191 c 5.827765,0.72155 12.354375,2.33321 14.503578,3.58147 6.628528,3.84987 12.099526,2.70228 27.515586,-5.77162 z m 193.929887,-3.22847 c 0.90703,-4.29273 0.70941,-5.25428 -0.63874,-3.10791 -3.16534,5.03954 -5.34494,13.80736 -2.83284,11.39567 1.18702,-1.13957 2.74922,-4.86906 3.47158,-8.28776 z m 7.26762,6.09353 c 0,-1.7766 0.93237,-2.65395 2.07194,-1.94965 1.13956,0.70429 2.07194,0.2381 2.07194,-1.03597 0,-1.27408 1.06835,-1.65623 2.37411,-0.84921 1.68019,1.0384 1.97806,-0.28847 1.01912,-4.5396 l -1.35498,-6.00686 3.16901,5.17985 3.16901,5.17985 -0.56224,-5.17985 c -0.39197,-3.61114 -1.81722,-5.17985 -4.70613,-5.17985 -2.98881,0 -3.95469,1.15506 -3.46517,4.14388 0.67844,4.14232 0.67753,4.14232 -2.42052,0.004 -3.77133,-5.03856 -4.58259,-4.284 -6.12242,5.69458 -0.91511,5.93029 -0.49401,7.76978 1.77868,7.76978 1.6377,0 2.97765,-1.45359 2.97765,-3.2302 z m -27.29004,-3.67187 c 0.56011,-2.93743 -0.36601,-3.6392 -4.10155,-3.10791 -2.68049,0.38124 -5.14659,2.3726 -5.54851,4.4804 -0.56011,2.93743 0.36601,3.6392 4.10155,3.10791 2.68049,-0.38123 5.1466,-2.3726 5.54851,-4.4804 z m 46.4446,-4.4936 c 0.66399,-3.47342 0.0609,-5.17985 -1.83039,-5.17985 -1.62735,0 -2.8206,2.19134 -2.8206,5.17985 0,2.84891 0.82368,5.17985 1.8304,5.17985 1.00673,0 2.27598,-2.33094 2.82059,-5.17985 z m -96.1094,-3.89258 c 4.80418,-2.66397 4.68163,-2.8244 -7.25179,-9.49211 -6.6762,-3.73028 -13.77021,-8.21659 -15.76446,-9.96957 -2.44534,-2.14952 -3.62589,-2.37459 -3.62589,-0.69129 0,5.32939 6.72315,15.09174 13.05021,18.94957 7.75501,4.7285 7.30641,4.6888 13.59193,1.2034 z m 28.96455,-6.80702 c 0.2812,-4.17544 0.93295,-8.274 1.44833,-9.10792 0.51539,-0.83391 -0.89166,-3.71117 -3.12677,-6.3939 l -4.06384,-4.87768 0.22508,10.3597 0.22509,10.3597 1.4839,-8.28776 1.48391,-8.28776 0.29401,8.65383 c 0.33662,9.90754 -4.26103,12.69036 -10.55987,6.39152 -2.23018,-2.23017 -6.67165,-3.61742 -11.41945,-3.56672 l -7.76977,0.0829 6.21581,3.36754 c 3.4187,1.85217 10.41149,4.52858 15.53955,5.94761 5.12805,1.41901 9.36626,2.66339 9.41823,2.76529 0.052,0.10194 0.32459,-3.23098 0.60579,-7.40642 z m 44.36493,0.57863 c 3.0789,-4.57658 5.94311,-18.35639 4.50906,-21.69327 -1.11441,-2.59318 -1.81686,-1.85449 -2.93596,3.08746 -0.80909,3.57289 -3.32256,9.16713 -5.58549,12.43164 -7.68309,11.08355 -7.83455,11.69972 -2.46344,10.02203 2.70674,-0.84546 5.62087,-2.577 6.47583,-3.84786 z m 56.39884,-1.60617 c -8.38804,-7.36479 -16.2785,-21.67943 -18.40902,-33.39712 -1.3841,-7.61233 -1.27053,-7.8016 4.09697,-6.82828 5.18228,0.93973 5.31567,0.77467 2.17701,-2.6935 -1.83895,-2.03202 -3.34353,-5.81874 -3.34353,-8.41496 0,-3.22493 -0.93146,-4.36296 -2.9401,-3.59216 -1.61707,0.62052 -5.02303,-0.67829 -7.56882,-2.88623 -5.51633,-4.7843 -6.30027,-4.96234 -4.81575,-1.09374 1.47373,3.84051 -5.75118,6.07306 -13.87741,4.28825 -3.47469,-0.76318 -12.07819,-3.9607 -19.11887,-7.10561 -14.11703,-6.30574 -22.16012,-8.72794 -22.05911,-6.6432 0.13364,2.75773 5.35196,8.05968 14.25499,14.48338 8.4739,6.11404 9.40948,6.35248 12.81907,3.26684 2.02291,-1.83072 4.72261,-2.68299 5.99934,-1.89393 1.46579,0.90593 -0.58599,4.00334 -5.56728,8.40449 -4.33873,3.8334 -6.80081,7.00864 -5.47131,7.05607 1.32948,0.0475 2.87142,-1.07921 3.42651,-2.50367 0.55507,-1.42446 0.7701,2.78929 0.47783,9.36388 -0.29229,6.5746 -1.24387,12.63502 -2.1146,13.46761 -0.87075,0.83259 -0.90836,-1.63306 -0.0837,-5.47922 1.07596,-5.0176 0.83141,-6.58007 -0.86574,-5.53117 -1.3468,0.83236 -2.11134,5.31927 -1.77552,10.41997 0.32438,4.92699 1.16117,8.60549 1.85954,8.17449 2.28686,-1.41143 6.46286,-19.1556 5.04725,-21.44613 -0.75995,-1.22959 -0.33147,-2.23563 0.95214,-2.23563 1.43666,0 1.79668,-1.69244 0.93653,-4.40256 -0.87668,-2.76216 -0.3497,-5.06634 1.41433,-6.18407 4.13203,-2.61811 5.91966,-2.23672 5.91966,1.26291 0,4.26053 0.86314,4.00955 10.68851,-3.10791 4.71938,-3.4187 10.88827,-6.21582 13.70866,-6.21582 4.57938,0 4.9965,0.65728 3.89918,6.14392 -1.82714,9.13568 -9.68789,19.98324 -18.37547,25.3575 -6.82381,4.2213 -11.16919,9.37971 -9.39548,11.15341 1.42642,1.42645 19.18761,-3.71745 20.69397,-5.99327 1.12821,-1.70452 4.04546,0.20904 9.3747,6.14931 7.52736,8.3904 17.43529,14.95236 22.83048,15.12048 1.46409,0.0456 -0.69363,-2.86332 -4.79495,-6.46433 z m -293.118484,3.56869 c 0,-0.49865 -4.428771,-3.31912 -9.841714,-6.2677 -5.412943,-2.94858 -11.473366,-8.21039 -13.4676081,-11.69289 -4.0228574,-7.02506 -4.940478,-22.57154 -1.332278,-22.57154 1.26148,0 1.7569431,-1.39856 1.101008,-3.10791 -0.8035189,-2.09393 0.09821,-3.10791 2.7639471,-3.10791 2.176117,0 4.532803,-0.93238 5.237097,-2.07194 0.704293,-1.13957 4.721909,-2.10029 8.92803,-2.13495 9.258483,-0.0762 5.185174,-3.30675 -5.552384,-4.40349 -5.523357,-0.56415 -7.809701,0.38016 -10.931762,4.51508 -4.7728785,6.32129 -6.8958707,17.88188 -5.0705748,27.61152 1.8020695,9.60585 15.4958508,24.13839 22.7452158,24.13839 2.981563,0 5.421023,-0.40799 5.421023,-0.90666 z m 9.445703,-8.56573 c 3.806837,-3.08243 3.647982,-3.19323 -2.970892,-2.07194 -3.846038,0.65154 -8.507902,1.27758 -10.359698,1.39116 -1.918699,0.11769 -1.138904,0.92007 1.812947,1.86541 7.376913,2.36251 7.101967,2.39079 11.517643,-1.18463 z M 324.93157,278.02578 c -8.71766,-20.29581 -17.48876,-28.18789 -11.27137,-10.14184 3.43441,9.96846 14.29116,26.50454 15.33853,23.36241 0.38728,-1.16182 -1.44294,-7.11109 -4.06716,-13.22057 z m 11.57699,1.52583 c -0.71897,-4.49184 -2.40258,-9.1537 -3.74139,-10.35969 -1.33882,-1.20598 -5.09312,-4.52363 -8.34289,-7.37255 l -5.90868,-5.17984 5.30481,9.32372 c 2.91765,5.12805 6.47546,13.31953 7.90621,18.2033 3.19895,10.91918 6.7238,7.51743 4.78194,-4.61494 z m -118.9093,2.98716 c 0,-6.73546 -0.7309,-8.28776 -3.90234,-8.28776 -2.61087,0 -4.26247,1.88393 -4.99053,5.69255 -1.34811,7.05216 3.13194,10.67045 5.06044,4.08705 1.22443,-4.17991 1.36628,-4.07969 1.55395,1.09809 0.32271,8.90308 2.27848,6.67997 2.27848,-2.58993 z m 143.9998,4.09828 c 3.69251,-1.40786 3.46683,-1.74913 -2.07194,-3.13313 -3.4187,-0.85424 -9.54068,-3.21704 -13.60437,-5.25067 l -7.38858,-3.6975 0.94099,6.58144 c 0.51755,3.61978 1.97767,7.27905 3.2447,8.13172 2.30959,1.55424 11.12205,0.32573 18.8792,-2.63186 z M 190.72552,280.5817 c -2.78835,-5.21008 -6.22547,-5.54876 -6.42293,-0.63285 -0.12452,3.10053 -0.40363,3.02548 -1.9263,-0.51799 -1.48478,-3.45527 -1.80489,-3.55234 -1.92631,-0.58416 -0.15291,3.7355 10.77347,10.88065 11.90239,7.78347 0.35879,-0.98436 -0.37328,-3.70616 -1.62685,-6.04847 z m -4.04177,0.74845 c 0.0995,-2.41371 0.59037,-2.90466 1.25178,-1.25181 0.59852,1.49567 0.52492,3.28272 -0.16348,3.97123 -0.6885,0.68848 -1.17818,-0.53527 -1.08822,-2.71942 z m -146.75332,4.02263 c 7.154905,-1.18263 7.769773,-1.827 7.769773,-8.14268 0,-3.77212 -0.932372,-7.43464 -2.071939,-8.13894 -1.144726,-0.70748 -2.07194,0.78742 -2.07194,3.34047 0,9.77174 -9.746238,14.89092 -18.961128,9.95927 -4.58083,-2.45158 -7.103687,-1.38057 -4.951376,2.10197 1.532551,2.47971 8.721415,2.79152 20.28661,0.87991 z m 155.1346,-3.36653 c -2.04629,-2.03104 -2.28427,-1.79306 -1.15987,1.15987 0.77808,2.04339 1.93662,3.19331 2.57455,2.55538 0.63793,-0.63792 10e-4,-2.30977 -1.41468,-3.71525 z m 11.44877,-4.18741 c -0.56046,-1.38151 -1.15817,-0.64711 -1.32823,1.63202 -0.3092,4.14388 -0.3092,4.14388 -2.08989,0 -1.75147,-4.0759 -1.78307,-4.07306 -1.9263,0.17259 -0.0802,2.37412 0.50199,4.96419 1.29355,5.75575 1.93853,1.93851 5.33375,-4.39821 4.05087,-7.56043 z M 62.138681,272.49221 c 0.08536,-3.66191 -6.085018,-16.60349 -8.681303,-18.20809 -1.114704,-0.68892 -0.914948,0.82478 0.443872,3.36378 1.591456,2.97365 1.757398,5.32956 0.466352,6.62063 -1.291067,1.29105 -2.473855,-0.49886 -3.323909,-5.03003 -1.010278,-5.38524 -3.01403,-7.84225 -8.547373,-10.48092 -4.008603,-1.91157 -7.227755,-2.50983 -7.227755,-1.34324 0,1.15691 1.39856,2.64013 3.10791,3.29606 4.772589,1.83143 3.841459,6.76899 -1.03597,5.4935 -2.279133,-0.59601 -4.143879,-1.90728 -4.143879,-2.91393 0,-1.00666 -2.797119,-1.83029 -6.215819,-1.83029 -3.418701,0 -6.215819,0.8313 -6.215819,1.84732 0,1.57604 2.366714,2.58023 12.949623,5.49453 0.854675,0.23535 2.816367,0.54447 4.359319,0.68691 5.786348,0.53421 13.770153,10.29342 13.770153,16.83232 l 0,6.41147 5.114749,-3.72263 c 2.813093,-2.04743 5.144025,-4.98026 5.179849,-6.51739 z m -42.627175,0.99546 c -0.757336,-2.42908 -2.416773,-5.10151 -3.687639,-5.93874 -1.443479,-0.95094 -0.949881,-1.53413 1.315226,-1.55395 1.994242,-0.0166 3.625895,-1.43028 3.625895,-3.13964 0,-1.70935 1.165466,-3.167 2.589924,-3.23924 1.424459,-0.0723 0.421537,-1.00065 -2.228702,-2.06316 -8.893781,-3.5656 -14.398179,8.79412 -8.279679,18.59139 3.274887,5.24396 8.481216,3.1687 6.664975,-2.65666 z m 16.941028,4.01925 c 3.231024,-3.23102 3.849933,-5.46839 1.405956,-5.08249 -4.356667,0.68791 -6.733804,-0.58111 -6.733804,-3.59481 0,-2.48179 1.382502,-3.08516 5.336944,-2.32922 6.188407,1.18298 4.13441,-1.47275 -2.747019,-3.5518 -3.450733,-1.04256 -4.661865,-0.56479 -4.661865,1.83906 0,1.78615 -1.398559,3.24753 -3.107909,3.24753 -4.647174,0 -3.747497,5.53287 1.496997,9.20625 5.597884,3.92092 5.362201,3.91398 9.0107,0.26548 z m 218.441636,-0.14794 c 0,-1.70935 -0.90312,-3.1079 -2.00692,-3.1079 -1.10379,0 -1.47023,1.39855 -0.8143,3.1079 0.65596,1.70935 1.55906,3.10791 2.00693,3.10791 0.44785,0 0.81429,-1.39856 0.81429,-3.10791 z m 111.88474,0.12225 c 0,-1.6421 -0.93237,-3.56187 -2.07194,-4.26617 -1.13957,-0.70429 -2.07194,0.63924 -2.07194,2.98563 0,2.34639 0.93237,4.26616 2.07194,4.26616 1.13957,0 2.07194,-1.34353 2.07194,-2.98562 z m 6.21582,0.91372 c 0,-1.13956 -0.93237,-2.07194 -2.07194,-2.07194 -1.13957,0 -2.07194,0.93238 -2.07194,2.07194 0,1.13957 0.93237,2.07194 2.07194,2.07194 1.13957,0 2.07194,-0.93237 2.07194,-2.07194 z m -16.88596,-7.76977 c -0.24971,-6.24988 -0.4793,-6.65517 -1.17358,-2.07194 -1.3047,8.61249 -4.7318,6.82526 -4.7318,-2.46764 0,-4.49101 -1.07925,-8.83249 -2.39831,-9.64772 -1.68154,-1.03924 -1.99961,0.008 -1.06427,3.50361 0.73374,2.74222 1.3468,7.48151 1.36236,10.53178 0.0186,3.5236 1.35045,5.89141 3.65418,6.49343 1.99424,0.52116 3.85899,1.05572 4.14388,1.18791 0.28489,0.13219 0.37829,-3.25605 0.20754,-7.52943 z m 3.81822,0.0394 c -0.52532,-2.01594 -0.98969,-0.86821 -1.03191,2.55049 -0.0423,3.4187 0.38757,5.06809 0.95514,3.66533 0.56755,-1.40277 0.60209,-4.19989 0.0769,-6.21582 z m -97.91892,-10.60661 c -1.73293,-2.01994 -4.68553,2.35136 -3.5634,5.27559 0.81564,2.1255 0.46902,2.86937 -0.93323,2.00274 -1.45193,-0.89734 -1.81162,0.2243 -1.03019,3.21246 1.08102,4.13385 1.44711,3.87614 3.6749,-2.58707 1.36087,-3.94804 2.19423,-7.50471 1.85192,-7.90372 z m 18.53336,8.49524 c -1.95146,-8.13435 -2.85592,-8.40775 -2.85592,-0.86325 0,3.60863 0.95012,6.56115 2.11141,6.56115 1.25344,0 1.55596,-2.31531 0.74451,-5.69784 z m 8.23689,-8.80574 1.19971,-9.32373 -2.83495,9.32373 c -1.55922,5.12805 -2.92647,7.53668 -3.03833,5.3525 -0.11189,-2.18416 -0.78158,-3.39305 -1.48824,-2.68642 -0.70663,0.70666 -0.63368,3.87909 0.16203,7.04986 1.85352,7.38495 4.3114,3.40461 5.99967,-9.71594 z m 55.29379,9.54608 c -1.03665,-2.72661 -1.37975,-6.88888 -0.76243,-9.24949 0.63036,-2.41057 -0.23334,-5.64771 -1.97036,-7.38472 -2.74235,-2.74234 -3.02654,-2.04117 -2.50849,6.18903 0.32131,5.10497 1.72721,10.65895 3.12419,12.34221 3.63064,4.37467 4.28028,3.79258 2.11709,-1.89703 z M 104.21482,244.32528 c 22.76123,-16.44952 46.39819,-31.05719 67.80177,-41.90158 21.92686,-11.10951 39.21416,-21.27005 63.19415,-37.1421 10.2561,-6.78838 24.0459,-15.37847 30.64401,-19.08909 6.59811,-3.71062 18.71896,-11.55171 26.93522,-17.42464 35.10141,-25.09032 65.90073,-44.334277 95.28591,-59.536343 17.26531,-8.931997 31.7531,-17.324882 32.19508,-18.650855 1.15807,-3.474189 -5.79084,-10.458836 -10.40534,-10.458836 -5.56486,0 -14.4518,4.900527 -35.83492,19.760405 -28.23014,19.618128 -59.35736,38.544122 -134.67608,81.885809 -27.65254,15.91247 -55.84658,33.1796 -80.80565,49.48848 -10.2561,6.70158 -23.64166,15.12766 -29.74567,18.72461 -19.09168,11.25028 -54.946516,35.40038 -60.901685,41.02045 -6.400284,6.04018 -6.492112,6.38698 -3.662029,13.83068 l 2.035826,5.35457 10.450076,-6.77367 c 5.747561,-3.72549 18.117766,-12.31505 27.489332,-19.08789 z m 189.62572,12.0693 -0.70317,-8.04281 -0.9994,9.74539 c -0.54967,5.35996 -0.23324,8.97922 0.70317,8.04281 0.93642,-0.93641 1.38615,-5.32184 0.9994,-9.74539 z m 41.49321,4.09042 c -0.9481,-4.82092 -11.09512,-11.9416 -14.24378,-9.99561 -1.84415,1.13973 -0.55885,3.28798 4.455,7.44618 8.0826,6.70318 10.74191,7.39578 9.78878,2.54943 z m -37.57254,-10.57928 c -0.52115,-1.99424 -0.94756,-0.36259 -0.94756,3.6259 0,3.98848 0.42641,5.62013 0.94756,3.62589 0.52114,-1.99424 0.52114,-5.25755 0,-7.25179 z m -233.221193,0.16389 c 3.047679,-3.71034 55.391363,-38.56965 69.145683,-46.0489 4.55827,-2.47866 16.67911,-10.03107 26.93521,-16.78314 27.03826,-17.80053 66.93441,-42.31912 77.51674,-47.63866 5.02849,-2.52774 14.46531,-8.22908 20.97074,-12.66964 6.50541,-4.44056 12.33799,-8.07373 12.96129,-8.07373 2.59537,0 70.52882,-41.630498 91.32281,-55.96381 12.38206,-8.534958 29.60499,-19.744966 38.27322,-24.911128 12.51966,-7.461593 16.14955,-10.749994 17.65303,-15.992316 2.29291,-7.994919 -2.60702,-17.0894235 -9.20741,-17.0894235 -7.93215,0 -34.91485,14.4176425 -90.98703,48.6170295 -44.65401,27.235241 -58.95528,35.836831 -81.84162,49.224128 -6.8374,3.99953 -25.95104,15.42137 -42.47476,25.38188 -16.52371,9.9605 -33.49249,19.87046 -37.70839,22.02211 -4.2159,2.15165 -18.63981,11.03739 -32.05312,19.7461 -13.4133,8.70869 -36.070371,22.54608 -50.34904,30.74973 -14.278648,8.20366 -30.156875,17.69949 -35.284925,21.10186 -5.128051,3.40237 -12.543419,8.15217 -16.478613,10.5551 l -7.154885,4.36898 6.118915,1.32482 c 8.312311,1.79973 21.178974,6.64036 29.946221,11.26623 9.299942,4.90694 9.331415,4.90894 12.695934,0.81284 z m 267.094193,-7.25094 c -4.58918,-3.71608 -8.36603,-3.44621 -8.36603,0.5978 0,1.13957 0.93237,1.49571 2.07194,0.79142 1.13956,-0.7043 2.08621,-0.0601 2.10366,1.43167 0.023,1.97485 0.5864,1.86727 2.072,-0.3957 1.68159,-2.56156 2.2862,-2.20672 3.43932,2.0185 0.88117,3.22879 1.75698,4.05263 2.36599,2.22558 0.53182,-1.59546 -1.12726,-4.59662 -3.68688,-6.66927 z m -12.50991,3.32495 c 0,-0.64471 -0.99708,-3.03523 -2.21571,-5.31229 -1.61891,-3.02495 -1.53937,-4.95506 0.29525,-7.16566 1.38103,-1.66403 3.02893,-2.50756 3.66199,-1.8745 0.63306,0.63306 2.40384,-0.97607 3.93507,-3.57584 l 2.78402,-4.72684 -1.22968,5.17985 c -1.20574,5.07899 -1.16291,5.09915 2.1998,1.03597 3.39809,-4.10594 3.41715,-4.10244 2.08272,0.38215 -1.1819,3.97195 -0.58236,4.50429 4.89734,4.3485 4.70347,-0.13364 6.77524,-1.50609 8.39666,-5.56199 2.11725,-5.29619 2.13432,-5.28258 1.04125,0.83134 -0.82749,4.62832 -0.57418,5.42208 0.99184,3.10791 1.86947,-2.76258 2.11021,-2.76258 2.1666,0 0.0564,2.76258 0.28662,2.76258 2.07194,0 1.10468,-1.70935 2.00848,-4.04028 2.00848,-5.17985 0,-1.13957 -0.9038,-0.67338 -2.00848,1.03597 -1.20682,1.86742 -2.02115,2.12297 -2.04021,0.64027 -0.0524,-4.07468 4.04339,-5.30228 5.4511,-1.63385 1.05752,2.75589 1.68341,2.88091 3.251,0.64933 1.53856,-2.19025 1.74741,-2.11883 1.00663,0.34425 -0.51409,1.70935 -1.98363,2.87482 -3.26564,2.58992 -1.28202,-0.28489 -2.33094,0.41439 -2.33094,1.55396 0,1.13957 2.79712,2.07194 6.21582,2.07194 3.4187,0 6.21582,-0.85613 6.21582,-1.90248 0,-1.04637 0.53058,-3.61039 1.17908,-5.69783 0.69242,-2.22887 -0.19849,-1.65745 -2.15838,1.38449 -3.12471,4.84969 -3.25701,4.88269 -2.07542,0.51799 0.69412,-2.56403 0.49992,-4.70248 -0.43155,-4.7521 -0.93148,-0.0495 -5.59015,-0.84473 -10.35261,-1.76691 -9.90623,-1.91816 -12.01764,-1.07159 -15.11273,6.05951 l -2.22279,5.12136 1.01382,-5.26244 c 0.88822,-4.6105 0.25242,-5.32045 -5.1322,-5.73073 -3.3803,-0.25759 -6.14601,0.44961 -6.14601,1.5715 0,1.12191 -1.41043,1.49859 -3.13429,0.83708 -1.72387,-0.6615 -4.37368,-0.17404 -5.88847,1.08303 -3.06305,2.54208 -5.48082,1.075 -5.48082,-3.32573 0,-1.5867 0.94974,-2.29791 2.11052,-1.5805 1.16078,0.71741 3.53599,-1.79161 5.27825,-5.57555 2.91325,-6.32727 3.10107,-6.42946 2.33789,-1.27219 -0.727,4.91292 -0.3541,5.35315 3.00951,3.553 4.22313,-2.26015 4.38104,-3.07853 1.76741,-9.16075 -0.97939,-2.27913 -1.84622,-2.92338 -1.92631,-1.43167 -0.0802,1.49172 -1.09537,2.12523 -2.25615,1.40783 -1.16078,-0.71741 -3.45523,1.7916 -5.09875,5.57554 -1.64353,3.78397 -3.02473,5.61119 -3.06933,4.06049 -0.0489,-1.70146 -1.65451,-0.87985 -4.04897,2.07194 l -3.96787,4.89139 -5.2391,-4.91336 -5.23911,-4.91333 2.25143,7.33583 c 1.98355,6.463 2.71008,7.04938 6.10622,4.92846 5.24107,-3.27311 11.02783,0.51278 11.29812,7.3916 0.27557,7.01335 2.29776,11.92617 4.90898,11.92617 1.17533,0 2.13696,-0.52748 2.13696,-1.17218 z m 18.71092,-14.36737 c 0,-1.13957 0.9038,-3.4705 2.00848,-5.17985 1.10467,-1.70935 2.00847,-2.17554 2.00847,-1.03597 0,1.13957 -0.9038,3.4705 -2.00847,5.17985 -1.10468,1.70935 -2.00848,2.17554 -2.00848,1.03597 z m -46.59633,-10.6311 c -0.72023,-3.83922 -2.12338,-6.98039 -3.11812,-6.98039 -0.99472,0 -3.28341,-0.56593 -5.08595,-1.25764 -4.8346,-1.85522 -4.27269,9.03726 0.8665,16.79719 3.8898,5.87341 4.11732,5.95227 4.13023,1.43167 0.008,-2.63128 -0.81429,-4.27244 -1.82623,-3.64703 -1.01193,0.62542 -2.24901,-1.65051 -2.74907,-5.05756 -0.65123,-4.43712 -0.0607,-6.19469 2.08153,-6.19469 1.97015,0 2.62113,1.41338 1.90762,4.14181 -0.59571,2.27801 -0.23828,4.66396 0.79432,5.30213 1.03259,0.63818 2.00439,3.66933 2.15958,6.73588 0.26645,5.26497 0.33416,5.30075 1.21565,0.64228 0.5134,-2.71331 0.34419,-8.07445 -0.37606,-11.91365 z m 17.00744,10.45816 c -1.97446,-1.97448 -5.93298,1.22368 -4.46151,3.60455 0.8746,1.41513 2.03352,1.37939 3.52155,-0.10857 1.21987,-1.21988 1.64286,-2.79304 0.93996,-3.49592 z m -24.34501,2.29264 c 0,-0.54351 -2.28992,-2.48863 -5.08872,-4.32246 -6.22519,-4.07891 -12.03352,-1.72839 -6.22481,2.51902 3.64286,2.66373 11.31353,3.88648 11.31353,1.80344 z m 92.72036,-4.70962 c 0.47423,-1.42446 -0.14773,-2.58993 -1.38236,-2.58993 -1.23452,0 -2.25887,1.16547 -2.27631,2.58993 -0.0238,1.93921 -0.47189,1.89555 -1.78361,-0.17384 -1.43635,-2.26589 -1.95854,-2.2251 -2.89935,0.22661 -0.7863,2.0491 0.21016,2.91895 3.16595,2.76365 2.37237,-0.12473 4.70143,-1.39207 5.17568,-2.81653 z m -107.01179,-4.66187 c 3.2763,0 3.79745,-1.0433 2.84618,-5.69783 l -1.16449,-5.69784 3.02868,6.21582 3.02868,6.21582 0.16824,-6.7338 c 0.1353,-5.40862 -0.64719,-6.73381 -3.97555,-6.73381 -2.83247,0 -4.23318,1.47535 -4.42604,4.66187 l -0.28216,4.66186 -0.91378,-4.78297 c -1.37411,-7.1924 -8.04472,-5.11904 -7.17936,2.23148 0.42346,3.59703 -0.33159,5.71246 -2.07194,5.80504 -1.50603,0.08 -0.87347,0.88737 1.40567,1.79397 2.27913,0.90659 4.45467,0.84106 4.83452,-0.14566 0.37987,-0.98666 2.49546,-1.79395 4.70135,-1.79395 z m -6.10082,-6.21582 c 0,-2.84892 0.47029,-4.01438 1.04506,-2.58992 0.57478,1.42446 0.57478,3.75539 0,5.17985 -0.57477,1.42446 -1.04506,0.25899 -1.04506,-2.58993 z m -7.78625,-0.48626 c 1.40589,-0.93894 0.88988,-1.53438 -1.34664,-1.55396 -2.43602,-0.0213 -3.57221,1.49812 -3.46231,4.63015 0.1094,3.11503 0.55611,3.63064 1.34664,1.55395 0.65069,-1.70935 2.20872,-3.79291 3.46231,-4.63014 z m 65.41238,-16.88357 c 5.95467,-4.278 10.29451,-8.31031 9.64411,-8.96071 -0.65038,-0.6504 -4.23811,1.14023 -7.97272,3.97916 -3.73461,2.83893 -9.58732,6.66431 -13.00602,8.50088 -11.78418,6.33054 -12.05635,6.67262 -9.34283,11.74288 l 2.48069,4.63518 3.68507,-6.05961 c 2.02679,-3.33278 8.55705,-9.55979 14.5117,-13.83778 z m -41.84518,7.49895 c 17.78611,1.14143 15.00214,2.43894 63.66158,-29.67035 13.67481,-9.0237 29.15914,-18.68476 34.40962,-21.46901 5.2505,-2.78426 12.41137,-7.47303 15.91303,-10.4195 3.50169,-2.94646 21.9671,-15.15877 41.03427,-27.13843 33.38753,-20.976957 54.71483,-36.679953 54.71483,-40.285746 0,-2.52523 -10.23084,-14.254851 -14.36167,-16.465605 -2.61707,-1.400608 -5.97471,-0.290879 -12.72614,4.206087 -5.04412,3.359771 -14.12471,7.975286 -20.17906,10.2567 -6.05437,2.281417 -15.84429,7.232507 -21.75536,11.002417 -5.9111,3.76991 -16.3911,9.71398 -23.28888,13.209037 -10.5593,5.35032 -27.92193,15.79169 -68.44337,41.15984 -22.35903,13.9977 -97.851,65.27084 -100.11116,67.99416 -2.27414,2.74018 -2.25961,3.46063 0.0858,4.25725 7.61129,2.58508 14.13925,1.86668 24.29167,-2.67334 9.50824,-4.25193 13.36285,-4.82295 26.75475,-3.96351 z m 55.63429,6.83133 c 2.18188,-5.68586 -0.40519,-7.81636 -2.88431,-2.3753 -1.54829,3.39817 -1.68782,5.41485 -0.37462,5.41485 1.1509,0 2.61742,-1.36779 3.25893,-3.03955 z m -1.3599,-16.64387 c 0,-1.13957 -0.9038,-0.67339 -2.00847,1.03597 -1.10468,1.70935 -2.00848,4.04028 -2.00848,5.17984 0,1.13957 0.9038,0.67338 2.00848,-1.03597 1.10467,-1.70935 2.00847,-4.04028 2.00847,-5.17984 z"
     id="path5124"
     inkscape:connector-curvature="0" />
</svg>
