<?xml version="1.0" encoding="UTF-8" standalone="no"?>
<!-- Created with Inkscape (http://www.inkscape.org/) -->

<svg
   xmlns:dc="http://purl.org/dc/elements/1.1/"
   xmlns:cc="http://creativecommons.org/ns#"
   xmlns:rdf="http://www.w3.org/1999/02/22-rdf-syntax-ns#"
   xmlns:svg="http://www.w3.org/2000/svg"
   xmlns="http://www.w3.org/2000/svg"
   xmlns:sodipodi="http://sodipodi.sourceforge.net/DTD/sodipodi-0.dtd"
   xmlns:inkscape="http://www.inkscape.org/namespaces/inkscape"
   id="svg13657"
   version="1.1"
   inkscape:version="0.48.4 r9939"
   width="440.11887"
   height="490.70151"
   sodipodi:docname="Telescope.svg">
  <metadata
     id="metadata13663">
    <rdf:RDF>
      <cc:Work
         rdf:about="">
        <dc:format>image/svg+xml</dc:format>
        <dc:type
           rdf:resource="http://purl.org/dc/dcmitype/StillImage" />
        <dc:title />
      </cc:Work>
    </rdf:RDF>
  </metadata>
  <defs
     id="defs13661">
    <filter
       inkscape:collect="always"
       id="filter14183"
       x="-0.15924171"
       width="1.3184834"
       y="-0.13800947"
       height="1.276019"
       color-interpolation-filters="sRGB">
      <feGaussianBlur
         inkscape:collect="always"
         stdDeviation="1.7212191"
         id="feGaussianBlur14185" />
    </filter>
    <filter
       inkscape:collect="always"
       id="filter14193"
       x="-0.12238551"
       width="1.244771"
       y="-0.11309041"
       height="1.2261808"
       color-interpolation-filters="sRGB">
      <feGaussianBlur
         inkscape:collect="always"
         stdDeviation="1.8570725"
         id="feGaussianBlur14195" />
    </filter>
    <filter
       inkscape:collect="always"
       id="filter14203"
       x="-0.28364924"
       width="1.5672985"
       y="-0.27386832"
       height="1.5477366"
       color-interpolation-filters="sRGB">
      <feGaussianBlur
         inkscape:collect="always"
         stdDeviation="1.6508811"
         id="feGaussianBlur14205" />
    </filter>
    <filter
       inkscape:collect="always"
       id="filter14221"
       x="-0.1514921"
       width="1.3029842"
       y="-0.12419624"
       height="1.2483925"
       color-interpolation-filters="sRGB">
      <feGaussianBlur
         inkscape:collect="always"
         stdDeviation="2.8655461"
         id="feGaussianBlur14223" />
    </filter>
    <filter
       inkscape:collect="always"
       id="filter14231"
       x="-0.22643487"
       width="1.4528697"
       y="-0.26581508"
       height="1.5316302"
       color-interpolation-filters="sRGB">
      <feGaussianBlur
         inkscape:collect="always"
         stdDeviation="1.2708176"
         id="feGaussianBlur14233" />
    </filter>
    <filter
       inkscape:collect="always"
       id="filter14237"
       x="-0.1712328"
       width="1.3424656"
       y="-0.14882013"
       height="1.2976403"
       color-interpolation-filters="sRGB">
      <feGaussianBlur
         inkscape:collect="always"
         stdDeviation="5.9084157"
         id="feGaussianBlur14239" />
    </filter>
    <filter
       inkscape:collect="always"
       id="filter14255"
       x="-0.28132695"
       width="1.5626539"
       y="-0.32460818"
       height="1.6492164"
       color-interpolation-filters="sRGB">
      <feGaussianBlur
         inkscape:collect="always"
         stdDeviation="2.6314795"
         id="feGaussianBlur14257" />
    </filter>
    <filter
       inkscape:collect="always"
       id="filter14285"
       color-interpolation-filters="sRGB">
      <feGaussianBlur
         inkscape:collect="always"
         stdDeviation="4.5277592"
         id="feGaussianBlur14287" />
    </filter>
  </defs>
  <sodipodi:namedview
     pagecolor="#ffffff"
     bordercolor="#666666"
     borderopacity="1"
     objecttolerance="10"
     gridtolerance="10"
     guidetolerance="10"
     inkscape:pageopacity="0"
     inkscape:pageshadow="2"
     inkscape:window-width="1263"
     inkscape:window-height="736"
     id="namedview13659"
     showgrid="false"
     inkscape:zoom="0.70870871"
     inkscape:cx="339.81314"
     inkscape:cy="285.18594"
     inkscape:window-x="1"
     inkscape:window-y="22"
     inkscape:window-maximized="0"
     inkscape:current-layer="svg13657"
     fit-margin-top="0"
     fit-margin-left="0"
     fit-margin-right="0"
     fit-margin-bottom="0" />
  <path
     style="fill:#c49917;fill-opacity:0.71782179;stroke:none"
     d="M 35.873872,111.32272 3.901857,95.13934 c -2.10516,-6.578595 -2.10516,-16.314932 0,-29.209001 L 35.479155,26.063992 C 64.23696,8.1440087 76.017352,13.992398 89.555283,17.380248 111.20169,23.691152 102.71916,43.560087 105.34393,58.430736 l 36.70861,41.445194 23.68298,12.23622 c 1.98481,5.6314 5.60892,7.43778 4.7366,19.7358 l 48.55009,55.26028 25.26185,7.89433 c 6.49611,8.02589 8.88421,16.0518 9.07847,24.07769 L 364.6725,320.91703 c 20.97582,1.78615 31.0669,14.45706 41.83994,26.44599 21.29968,27.45669 13.78924,46.68191 14.6045,68.28591 -9.67849,19.85684 -17.6426,40.31877 -44.60295,54.07614 -30.35905,23.77375 -51.55533,18.91388 -73.81194,17.3675 -31.27172,-15.89205 -28.60145,-37.95537 -39.07689,-57.62856 -23.53324,-52.94592 -62.4056,-97.37013 -94.3372,-145.65031 -7.89433,-1.09281 -15.78864,-2.71947 -23.68297,-11.05204 -3.04047,-8.29587 -0.41135,-15.16854 0.39471,-22.49884 L 95.476025,178.42447 c 1.45003,6.71359 -6.39135,1.81292 -13.025636,-1.57887 L 79.29266,156.71508 z"
     id="path14179"
     inkscape:connector-curvature="0"
     sodipodi:nodetypes="ccccccccccccccccccccccccc" />
  <path
     style="fill:#000000;fill-opacity:0.85643568;stroke:none"
     d="m 335.0688,355.25735 c 25.34124,-8.75069 44.91606,-3.08535 57.62856,19.73582 10.08729,24.2575 8.90989,48.23339 -22.89354,71.44364 -22.40891,12.83465 -60.65476,39.2274 -75.3908,-16.97282 -3.21136,-35.56441 24.99979,-62.1754 40.65578,-74.20664 z"
     id="path13669"
     inkscape:connector-curvature="0"
     sodipodi:nodetypes="ccccc" />
  <path
     style="fill:#ffffff;fill-opacity:0.73762375;stroke:none;filter:url(#filter14183)"
     d="m 49.388113,210.39872 10.975136,-10.47626 14.966095,22.44914 -10.476266,7.48305 z"
     id="path14181"
     inkscape:connector-curvature="0"
     transform="matrix(1.5824419,0,0,1.5824419,-49.384833,-295.03826)" />
  <path
     style="fill:#ffffff;fill-opacity:0.73762375;stroke:none;filter:url(#filter14193)"
     d="m 67.846296,232.34899 5.986438,-5.48756 24.943492,34.92088 -5.986438,4.48983 -30.43106,-29.43332 z"
     id="path14187"
     inkscape:connector-curvature="0"
     transform="matrix(1.5824419,0,0,1.5824419,-49.384833,-295.03826)" />
  <path
     style="fill:#ffffff;fill-opacity:0.73762375;stroke:none;filter:url(#filter14203)"
     d="m 101.27057,261.78231 9.47853,-5.48756 4.48983,6.98417 -11.47401,7.48305 z"
     id="path14197"
     inkscape:connector-curvature="0"
     transform="matrix(1.5824419,0,0,1.5824419,-49.384833,-295.03826)" />
  <path
     style="fill:#ffffff;fill-opacity:0.73762375;stroke:none;filter:url(#filter14221)"
     d="m 99.773965,277.74615 7.483045,-7.98192 37.91411,45.39716 -6.98418,9.97739 z"
     id="path14207"
     inkscape:connector-curvature="0"
     transform="matrix(1.5824419,0,0,1.5824419,-49.384833,-295.03826)" />
  <path
     style="fill:#ffffff;fill-opacity:0.73762375;stroke:none;filter:url(#filter14231)"
     d="m 142.67677,323.1433 2.49435,3.49209 10.97514,-6.98418 -5.48757,-4.48982 z"
     id="path14225"
     inkscape:connector-curvature="0"
     transform="matrix(1.5824419,0,0,1.5824419,-49.384833,-295.03826)" />
  <path
     style="fill:#ffffff;fill-opacity:0.73762375;stroke:none;filter:url(#filter14237)"
     d="m 139.68355,339.10714 6.98418,-10.47627 75.82821,80.31804 -12.47174,14.9661 z"
     id="path14235"
     inkscape:connector-curvature="0"
     transform="matrix(1.5824419,0,0,1.5824419,-49.384833,-295.03826)" />
  <path
     style="fill:#ffffff;fill-opacity:0.73762375;stroke:none;filter:url(#filter14255)"
     d="m 219.00385,416.93083 9.9774,4.9887 12.47175,-11.97288 -11.97288,-7.48304 z"
     id="path14241"
     inkscape:connector-curvature="0"
     transform="matrix(1.5824419,0,0,1.5824419,-49.384833,-295.03826)" />
  <path
     style="fill:#121212;fill-opacity:0.75247527;stroke:none;filter:url(#filter14285)"
     d="m 84.309001,197.42811 c 3.89192,7.35674 0.820906,14.01718 0.49887,20.95253 4.251715,1.67379 -2.557645,0.64788 1.874433,2.64046 13.929416,9.2579 20.900136,20.50401 28.465846,31.58011 l 2.61539,0.87669 c 5.8779,2.65539 4.9574,5.70434 5.95618,8.80328 l 2.605,0.73577 c 8.55559,7.45868 29.78754,35.17217 36.30684,45.16026 l -7.48304,4.9887 c 1.07999,0.93143 5.00703,1.32474 2.99322,4.98869 l 11.97287,-2.49434 c 26.10752,24.7772 61.43651,47.38464 78.32256,74.3316 l -9.97739,7.48305 c 8.04246,0.72877 11.00934,3.98419 11.64519,10.36041 l 16.79039,1.61246 c 11.96462,7.31676 11.33729,14.63352 15.58081,21.95028 1.79857,7.1 0.14458,19.24678 -3.99615,24.07199 10.40342,-2.02609 11.61311,0.49477 12.36109,5.36133 7.96341,-5.95287 8.83516,-16.4186 6.48531,-28.93445 1.85347,-11.80659 -6.29757,-23.61317 -19.45593,-35.41976 l -15.96383,-7.48305 -71.69114,-64.58592 c 1.67825,-3.6012 -2.73378,-9.81252 -4.13707,-14.73438 l -16.81546,-4.57542 c -9.67353,-12.27551 -21.75898,-19.98766 -30.68784,-36.67428 1.58828,-2.67628 -0.28041,-5.71707 -2.88256,-11.18697 -2.91732,-2.78671 -7.23127,-5.10788 -12.97061,-6.95391 -8.3494,-9.36547 -17.86152,-15.24278 -24.943494,-28.41051 l -0.49887,-17.95932 c -4.323538,-4.42387 -8.647077,-7.2187 -12.970615,-6.4853 z"
     id="path14259"
     inkscape:connector-curvature="0"
     sodipodi:nodetypes="cccccccccccccccccccccccccccccc"
     transform="matrix(1.5824419,0,0,1.5824419,-49.384833,-295.03826)" />
  <path
     style="fill:#000000"
     d="m 304.68604,490.07267 c -11.28976,-3.03199 -22.45366,-12.0263 -29.27733,-23.58761 -4.26526,-7.22661 -9.04886,-24.6357 -9.88761,-30.51134 -0.69997,-4.90331 -3.64294,-8.9595 -5.34793,-12.00257 -2.43995,-4.35483 -7.84837,-12.3177 -10.90446,-18.4101 -3.05611,-6.0924 -9.58968,-16.69335 -14.51907,-23.55768 -7.9409,-11.05795 -15.47813,-22.41441 -26.90042,-40.53121 -12.6227,-20.0208 -16.85337,-26.23421 -27.60975,-40.54935 -11.36829,-15.12947 -12.40495,-16.06487 -18.61939,-16.80058 -7.86374,-0.93095 -15.9772,-6.31679 -18.17961,-12.0679 -0.88168,-2.30228 -1.13023,-7.9244 -0.55565,-12.56823 l 1.03965,-8.40253 -14.14942,-20.87265 c -25.08348,-37.00217 -30.620143,-44.61704 -32.140248,-44.20424 -2.532499,0.68771 -11.565938,-3.75038 -14.624239,-7.18481 -1.596858,-1.79326 -3.288899,-6.34216 -3.76009,-10.10866 -0.659364,-5.2707 -3.38176,-10.23669 -11.81835,-21.55814 -17.758338,-23.83074 -28.301594,-33.40794 -43.835886,-39.81929 -7.29411,-3.01043 -14.89762,-6.76008 -16.8967,-8.33256 -9.14687,-7.194924 -8.89525,-26.326504 0.55639,-42.303597 9.75248,-16.485626 25.221849,-31.846499 39.226227,-38.951094 11.044328,-5.60292 13.357263,-6.196779 23.468142,-6.025495 15.035991,0.254725 24.230228,3.012763 30.309594,9.092125 4.81535,4.815355 5.09564,5.788968 6.22313,21.616805 1.16187,16.310497 1.28269,16.700268 7.5902,24.486531 3.52524,4.351715 12.12366,13.76487 19.10759,20.918109 10.52462,10.779766 14.16702,13.467946 21.28019,15.705306 11.60522,3.6503 18.40698,12.4206 17.11265,22.06537 -0.80153,5.97269 -0.37685,6.94252 5.54324,12.65953 3.52618,3.40524 11.78634,12.60023 18.35589,20.43331 22.18413,26.45083 24.48312,28.55254 31.54055,28.83398 9.38962,0.37443 19.2726,4.87025 21.90765,9.96588 2.65624,5.13661 5.06489,18.7993 2.97396,16.86931 -0.77388,-0.7143 -2.53499,-4.62586 -3.9136,-8.69234 -3.33265,-9.8304 -9.56295,-13.55059 -22.67552,-13.53985 -8.37202,0.006 -11.51105,0.97987 -24.00245,7.44011 -8.49409,4.39293 -18.20082,11.02935 -23.73663,16.22854 -5.15121,4.83797 -7.7636,8.00727 -5.80533,7.04289 3.90108,-1.92114 4.69183,-0.37309 1.58244,3.09798 -1.08793,1.21448 2.11818,-1.44057 7.12469,-5.9001 12.0115,-10.69922 24.61001,-16.65242 37.05434,-17.50934 16.20346,-1.11576 18.04816,0.0913 76.84195,50.28135 10.68141,9.11831 24.43071,21.22399 30.55401,26.90151 6.12329,5.67751 14.66848,13.57822 18.9893,17.55711 4.32081,3.97891 11.15999,10.91254 15.19814,15.4081 6.24316,6.9503 8.6117,8.43952 15.82442,9.94955 11.25591,2.35648 16.84659,5.96918 27.89304,18.02443 15.81968,17.26439 20.8728,32.15896 21.21325,62.52816 0.14795,13.20325 -2.97243,22.07155 -13.62644,38.72645 -7.54371,11.79274 -14.19886,17.94237 -32.76191,30.27341 -21.3834,14.20454 -32.01174,17.91429 -52.80091,18.42981 -9.13093,0.22644 -18.20369,-0.0185 -20.16169,-0.54439 z m 44.33776,-6.19629 c 26.4166,-9.28469 53.57583,-32.48123 65.18057,-55.67036 l 6.88165,-13.75122 -1.05719,-18.70634 c -1.25824,-22.26401 -2.82592,-28.61435 -9.6736,-39.18582 -7.28117,-11.24066 -22.17831,-25.63102 -29.04447,-28.05641 -3.33994,-1.17981 -12.87387,-2.0555 -22.4256,-2.05979 -15.28029,-0.006 -17.3581,0.36871 -25.85415,4.67356 -27.1523,11.72597 -38.83567,28.91803 -55.54525,48.39857 -4.62288,4.8568 -10.96292,22.50123 -10.39188,36.43754 0.62186,15.17606 3.15998,31.66797 9.80417,44.99041 5.80646,11.66302 11.00591,17.36369 20.27188,22.22612 6.22685,3.2676 9.3613,3.74605 24.96299,3.81049 13.95454,0.0576 19.8136,-0.61929 26.89088,-3.10675 z m -31.88363,-19.34319 c -7.29603,-1.93069 -17.64552,-11.71671 -21.09383,-19.9454 -1.33578,-3.1875 -2.80287,-11.7496 -3.26025,-19.02689 -0.61876,-9.84505 -1.23117,-12.51741 -2.39284,-10.44163 -2.93487,5.24434 -6.03485,19.91006 -4.93858,23.36407 0.93616,2.94956 0.74728,3.16073 -1.30429,1.45808 -1.31943,-1.09503 -2.77406,-5.31874 -3.23251,-9.38602 -0.45843,-4.06725 -1.80882,-8.15043 -3.00087,-9.0737 -3.47277,-2.68976 -3.2338,-16.5475 0.37269,-21.61234 1.6807,-2.36034 3.05582,-5.07171 3.05582,-6.02529 0,-0.95358 0.66412,-1.73377 1.4758,-1.73377 0.8117,0 1.87814,-1.24618 2.36987,-2.76928 0.49173,-1.5231 3.56391,-5.61767 6.82708,-9.09904 3.26317,-3.48137 7.76894,-8.58522 10.01279,-11.34188 2.24387,-2.75666 6.51868,-7.00419 9.49959,-9.43895 3.85954,-3.15243 4.55197,-3.41787 2.40528,-0.92204 -1.65799,1.92763 -2.27925,3.50479 -1.38059,3.50479 0.89867,0 2.52042,-1.06815 3.6039,-2.37366 1.08349,-1.30552 2.61502,-2.37366 3.40341,-2.37366 1.44526,0 -1.24038,3.17849 -15.93788,18.86272 -8.35021,8.91079 -10.32323,12.65809 -4.87239,9.25399 1.74069,-1.08707 3.16489,-2.83133 3.16489,-3.87613 0,-1.04479 0.81595,-2.4039 1.81322,-3.02026 1.2761,-0.78866 1.50155,0.12121 0.76108,3.0715 -1.49843,5.97022 -0.30821,5.21265 4.38067,-2.78834 4.66667,-7.96305 19.44131,-21.73465 27.33768,-25.48173 17.74272,-8.41947 42.94057,-3.59062 51.89848,9.94568 10.92334,16.50628 14.38932,43.18498 7.39223,56.9004 -4.62426,9.06429 -20.6354,25.86993 -31.54757,33.11302 -17.09316,11.3458 -32.48614,15.04691 -46.81288,11.25576 z m 36.20645,-9.16467 c 15.48755,-7.65527 37.27867,-29.45693 40.48521,-40.5048 2.98629,-10.28904 2.37165,-23.03304 -1.66969,-34.61973 -4.52298,-12.96757 -9.73717,-20.34685 -16.71764,-23.65929 -7.83769,-3.71923 -22.73532,-4.93287 -31.25861,-2.5465 -20.01548,5.60398 -46.63404,40.47002 -48.2811,63.24047 -1.03207,14.26818 2.13531,26.25371 8.92617,33.77703 7.95992,8.81844 13.09366,10.81568 26.36147,10.25563 8.8503,-0.37358 13.30389,-1.56824 22.15419,-5.94281 z m -58.72489,-49.80747 c 0.7755,-3.467 0.6287,-4.10716 -0.54438,-2.37366 -0.88346,1.30551 -1.61719,3.73852 -1.63052,5.40668 -0.0323,4.04858 0.87339,2.78551 2.1749,-3.03302 z m 15.40959,-41.5391 c 1.96836,-2.50984 1.91238,-2.56582 -0.59746,-0.59746 -1.5231,1.1945 -2.76928,2.44068 -2.76928,2.76927 0,1.30241 1.29949,0.46415 3.36674,-2.17181 z m -46.27707,41.14349 c 0.17773,-1.08793 -0.7151,-1.97805 -1.98406,-1.97805 -1.76678,0 -2.1329,-1.51737 -1.56298,-6.47806 0.44558,-3.87855 0.14004,-6.1047 -0.76124,-5.54764 -2.10248,1.2994 -3.20629,-2.3772 -1.85311,-6.17238 0.62063,-1.74069 0.4195,-4.30103 -0.44695,-5.68964 -2.7231,-4.36417 9.96051,-28.33286 14.993,-28.33286 0.72536,0 -1.4501,4.09457 -4.83434,9.09904 -6.56549,9.70874 -9.2962,16.22003 -6.80239,16.22003 0.83825,0 3.77374,-3.50576 6.52331,-7.79058 5.08638,-7.92646 9.5727,-12.70703 9.5727,-10.2006 0,0.76212 -2.55098,4.94388 -5.66883,9.29281 -6.966,9.71651 -12.26614,19.77483 -11.0572,20.98377 0.49589,0.49589 1.08853,0.6049 1.317,0.24227 5.92843,-9.41039 19.23871,-28.57618 20.30199,-29.23332 0.79024,-0.48839 2.15175,-0.44614 3.02556,0.0938 -2.48991,17.09703 -14.06234,29.26262 -20.0512,39.80631 9.90943,-37.24597 39.86269,-55.91179 60.39715,-68.13764 9.17079,-5.4097 20.59242,-10.08468 30.0664,-10.77345 l 6.32977,-0.46018 -20.57175,-20.36117 c -11.31446,-11.19865 -26.92528,-25.79668 -34.6907,-32.44005 -7.76542,-6.64332 -19.74338,-17.06351 -26.6177,-23.15591 -18.78597,-16.64915 -34.31555,-28.68661 -43.03194,-33.35542 -14.60566,-7.82327 -32.16937,-4.79886 -49.69441,8.5572 -6.0379,4.60156 -19.05714,22.86128 -15.26172,21.40485 1.35669,-0.52061 3.83869,0.29503 5.51554,1.81256 2.99479,2.71025 2.96437,2.88185 -1.71741,9.68657 -2.62141,3.81009 -5.48612,6.92744 -6.36602,6.92744 -0.87988,0 -1.23714,-0.58682 -0.79388,-1.30403 0.44328,-0.71721 -0.76088,-1.25128 -2.67587,-1.18683 -2.25519,0.076 -3.87419,1.45556 -4.59559,3.9162 -1.43383,4.89077 2.96975,12.46363 21.8843,37.63445 7.96804,10.6036 19.70639,27.69397 26.08521,37.97861 11.13632,17.95519 13.94665,22.18075 29.64518,44.57397 3.87507,5.52761 10.02818,15.49699 13.67357,22.15418 3.64537,6.65718 11.20289,20.09228 9.65609,17.21449 l -1.70845,-3.17853 c 3.18041,-26.73478 3.11909,-6.33656 3.76097,-11.82225 z m -13.33297,-31.05178 c -0.58405,-3.11328 -0.27071,-7.93017 0.69632,-10.70417 2.35412,-6.75306 1.06302,-7.68292 -1.45895,-1.05076 -1.40261,3.68851 -2.18208,4.44107 -2.6522,2.56067 -1.30302,-5.21172 9.95363,-22.31015 12.24594,-18.60113 0.58299,0.94331 -0.54155,5.75761 -2.499,10.69844 -5.69173,14.36651 -5.98888,17.66915 -0.66591,7.40085 4.75046,-9.16387 9.38674,-15.60754 10.45859,-14.53571 0.45195,0.45197 -13.12959,27.8738 -14.52909,29.335 -0.29358,0.30651 -1.01164,-1.98991 -1.5957,-5.10319 z m -9.44334,-12.38959 c -0.58101,-1.48143 -0.59518,-3.4397 -0.0315,-4.35171 0.56367,-0.91203 0.18771,-1.65823 -0.83546,-1.65823 -1.12496,0 -1.56499,-1.54486 -1.1132,-3.90822 0.41089,-2.14951 0.13245,-3.5283 -0.6189,-3.06398 -0.75129,0.46432 -2.48589,-0.27568 -3.85467,-1.64446 -2.26328,-2.26329 -2.21739,-3.30254 0.50665,-11.4747 1.64744,-4.9423 3.84662,-9.26977 4.88706,-9.61658 1.41035,-0.47011 1.48585,0.43692 0.29671,3.56461 -2.28296,6.00462 -2.00152,6.41017 1.51723,2.1864 3.74209,-4.49186 4.31695,-1.10788 0.84387,4.96763 -3.26911,5.71871 -2.8765,7.28397 0.73857,2.94458 2.92147,-3.50682 3.11203,-3.54181 3.10882,-0.57092 -0.002,1.74069 -1.02112,4.94514 -2.26495,7.12099 -1.24383,2.17586 -2.27503,5.02426 -2.29155,6.32977 -0.0165,1.30551 1.56046,-0.41938 3.50441,-3.83309 1.94395,-3.4137 4.43827,-6.50402 5.54293,-6.86738 1.19872,-0.39428 0.62804,1.67902 -1.41542,5.14241 -1.88313,3.19169 -4.33296,8.41831 -5.44404,11.61473 -1.55351,4.46921 -2.26416,5.18948 -3.07652,3.11815 z m -10.21488,-29.94071 c 1.62857,-5.67853 5.76278,-12.46539 7.59325,-12.46539 1.5129,0 -6.40887,17.36077 -7.93408,17.38779 -0.59201,0.0111 -0.43864,-2.20459 0.34083,-4.9224 z m -4.06917,-5.51337 c 0.7572,-5.04932 0.56923,-6.96613 -0.61154,-6.23639 -0.93761,0.57947 -1.70475,2.43577 -1.70475,4.12509 0,1.68932 -0.7121,3.07149 -1.58244,3.07149 -0.87034,0 -1.58244,-1.21057 -1.58244,-2.69015 0,-2.09234 -0.42199,-2.26816 -1.89893,-0.79122 -2.90073,2.90073 -4.89568,2.26495 -3.97233,-1.26596 0.45521,-1.74068 0.18221,-3.16488 -0.60666,-3.16488 -0.78886,0 -1.43429,-1.0458 -1.43429,-2.324 0,-1.4477 -0.92369,-1.96954 -2.44968,-1.38396 -3.80497,1.4601 -6.26867,-3.46007 -6.69395,-13.36818 -0.29999,-6.98867 0.42254,-10.43945 3.1911,-15.2409 3.6578,-6.34363 9.27485,-10.50814 6.26772,-4.64692 -1.72331,3.35894 -5.06252,13.60316 -5.06252,15.53115 0,0.70833 1.50538,-0.62591 3.34529,-2.96496 5.20045,-6.6113 5.04273,-3.94425 -0.35623,6.02386 -2.70105,4.98698 -4.53108,9.44715 -4.06671,9.91152 0.46435,0.46437 1.91799,-1.23201 3.2303,-3.76973 2.50939,-4.85263 7.34938,-9.7025 7.33158,-7.34655 -0.006,0.75932 -1.42524,3.51689 -3.15446,6.12792 -3.50153,5.28714 -3.91733,7.12098 -1.61459,7.12098 0.85265,0 3.00341,-2.84839 4.77948,-6.32976 1.77607,-3.48138 3.92683,-6.32977 4.77948,-6.32977 2.2771,0 1.97357,0.9748 -2.52006,8.09316 -5.27116,8.35007 -4.06103,9.40977 2.37487,2.07968 6.46456,-7.36273 8.2942,-5.82296 2.43357,2.04801 l -4.45055,5.97723 4.22988,-3.83633 c 2.32644,-2.11 4.2299,-3.02246 4.2299,-2.02772 0,0.99473 1.06815,1.39873 2.37367,0.89776 1.30551,-0.50098 2.37366,-0.45576 2.37366,0.10049 0,0.55624 -1.06815,3.56779 -2.37366,6.69232 -1.30552,3.12455 -2.37367,7.37426 -2.37367,9.44382 0,2.06958 -0.79295,3.76286 -1.76211,3.76286 -1.19774,0 -1.41198,-2.33491 -0.66893,-7.28996 z m -29.20145,-27.65563 c 0.0252,-3.44374 6.85618,-16.17222 9.0643,-16.88972 1.07782,-0.35022 -0.21981,3.50652 -2.88363,8.57052 -5.53564,10.52342 -6.2033,11.42209 -6.18067,8.3192 z m -3.92523,-8.17595 c 1.23857,-4.19308 8.62823,-15.98428 9.48226,-15.13024 0.93079,0.9308 -7.80057,18.51154 -9.24051,18.60593 -0.71141,0.0467 -0.8202,-1.51742 -0.24175,-3.47569 z m -4.5721,-4.42631 c -0.5425,-2.7125 -0.22272,-6.35871 0.71064,-8.10269 0.93334,-1.74398 1.28325,-3.58461 0.77756,-4.0903 -0.50568,-0.50568 -0.91943,-0.22475 -0.91943,0.62429 0,0.84906 -0.98129,2.88573 -2.18062,4.52593 -1.96221,2.68347 -2.42439,2.73841 -4.61424,0.54857 -2.18983,-2.18985 -1.79242,-3.40928 3.96774,-12.17438 3.52072,-5.35743 7.03143,-9.74078 7.80156,-9.74078 1.36808,0 -4.89568,10.70319 -9.49802,16.22973 -1.27285,1.52843 -1.98166,3.11159 -1.57513,3.5181 0.40651,0.40653 3.38304,-2.80228 6.61449,-7.13069 3.23144,-4.32839 6.68402,-7.86982 7.67238,-7.86982 1.04056,0 0.69314,1.21977 -0.82536,2.89769 -1.44231,1.59373 -2.21227,3.30781 -1.71103,3.80905 0.50126,0.50126 -0.20929,3.07847 -1.57897,5.72716 -3.86854,7.48091 -2.95238,7.66807 2.26689,0.46307 2.61649,-3.61196 5.05608,-6.5672 5.42131,-6.5672 0.57722,0 -9.72428,20.61268 -10.90165,21.81352 -0.24297,0.24781 -0.88562,-1.76876 -1.42812,-4.48125 z m -10.48575,-19.80596 c 1.3161,-5.83544 9.12461,-18.973 10.47454,-17.62307 0.42096,0.42096 -0.34114,3.51272 -1.69357,6.87057 -2.07978,5.16376 -2.0966,5.63498 -0.10904,3.05584 1.29245,-1.67715 2.76665,-2.63262 3.27602,-2.12326 1.37087,1.37089 -7.37353,13.96992 -8.99873,12.96548 -0.76414,-0.47226 -1.38935,-0.10459 -1.38935,0.81718 0,0.92171 -0.63711,1.67584 -1.41579,1.67584 -0.80581,0 -0.86789,-2.42935 -0.14401,-5.63858 z m -4.44543,-4.25634 c -2.12519,-2.56069 0.52883,-7.63628 6.40091,-12.24121 5.35288,-4.19776 5.39068,-3.54559 0.36895,6.36431 -4.39534,8.67382 -4.42631,8.70069 -6.76986,5.8769 z m -12.49431,12.66419 c -5.84491,-9.14734 -5.46179,-15.83425 1.6483,-28.76947 3.14289,-5.71778 5.01571,-10.39597 4.16184,-10.39597 -0.85387,0 -1.58145,-1.95827 -1.61682,-4.35171 l -0.0642,-4.35172 -4.75887,5.53855 c -2.61739,3.0462 -7.29299,10.71918 -10.39021,17.05106 -5.52188,11.28876 -6.24952,18.08265 -2.50149,23.35575 2.70887,3.81112 10.57131,8.64889 14.05634,8.64889 l 3.76256,0 -4.29734,-6.72538 z m -6.86758,-41.98967 c -0.0264,-0.62253 -0.77394,0.11425 -1.66107,1.6374 -0.88712,1.5231 -2.28967,2.76927 -3.11677,2.76927 -2.17305,0 -1.84841,-5.33222 0.47425,-7.78942 1.63241,-1.72697 1.35591,-1.77254 -1.58245,-0.26081 -5.2632,2.70783 -4.63609,-0.6807 1.9305,-10.43155 3.76198,-5.58621 6.37796,-7.98452 8.30782,-7.61654 1.54926,0.29541 3.52893,0.6025 4.39927,0.68241 0.87034,0.0799 0.5143,0.83559 -0.79122,1.67929 -1.9312,1.24804 -1.95922,1.53849 -0.15033,1.55821 1.68297,0.0184 1.49343,0.88954 -0.77991,3.58472 -2.70475,3.20668 -2.57188,3.17926 1.33718,-0.27583 6.37074,-5.63088 5.28908,-2.05398 -1.59375,5.2704 -3.26379,3.47317 -0.23737,1.28516 6.72537,-4.86223 14.5836,-12.87584 28.01616,-21.8413 40.14272,-26.793 l 8.49387,-3.46835 -6.17451,-6.89188 c -3.39599,-3.79052 -11.31321,-13.03246 -17.59381,-20.53763 -6.28062,-7.50517 -13.79469,-15.69431 -16.69795,-18.19808 -2.90324,-2.50377 -7.78086,-8.11282 -10.83915,-12.46453 l -5.56053,-7.91221 -11.85198,0.068 c -10.56687,0.0606 -12.69446,0.61285 -19.62193,5.09241 -9.72329,6.28742 -21.22075,16.78669 -21.22075,19.37835 0,1.49916 0.59332,1.46661 2.5276,-0.13862 2.17533,-1.80538 2.48075,-1.66698 2.19143,0.99306 -0.79306,7.29164 -0.12723,8.82392 3.08691,7.10377 4.37818,-2.34314 5.74628,3.02739 2.48487,9.7543 -2.36525,4.87849 -1.23978,3.96226 3.62214,-2.94872 1.90382,-2.70619 1.99576,-2.66115 1.33498,0.65415 -0.39032,1.95827 0.0177,3.56049 0.90663,3.56049 0.88895,0 0.356,1.95827 -1.18433,4.35172 -2.77295,4.30872 -2.76961,4.32435 0.33821,1.58244 1.72637,-1.5231 3.63362,-2.76928 4.23834,-2.76928 1.23997,0 0.40181,8.63463 -1.30564,13.45076 -0.71432,2.0148 0.56281,1.21511 3.51444,-2.20064 4.01961,-4.65163 4.77929,-4.99339 5.70974,-2.5687 0.59028,1.53825 0.17082,3.9114 -0.93213,5.27368 -1.66102,2.05157 -1.61953,2.24427 0.24163,1.12227 1.73359,-1.04509 1.98919,-0.68283 1.11872,1.58557 -1.08065,2.81613 -0.98779,2.81305 2.20137,-0.0731 2.84437,-2.57414 3.54258,-2.67651 4.79119,-0.70251 0.80388,1.27091 1.47251,3.59895 1.48583,5.17342 0.0127,1.57446 0.73633,2.42256 1.60667,1.88465 0.87034,-0.5379 1.58244,-0.17588 1.58244,0.80447 0,1.06234 1.27863,1.37665 3.16489,0.77798 4.18516,-1.32832 4.06133,1.4024 -0.34773,7.66792 l -3.51259,4.99161 5.69095,-4.28327 c 6.5952,-4.96387 8.61002,-4.26926 4.91769,1.69538 -1.69249,2.73406 -1.82761,3.48909 -0.39237,2.19228 1.20408,-1.08793 3.12099,-1.97805 4.25981,-1.97805 1.65139,0 1.68339,0.62002 0.15809,3.06253 -1.05192,1.68438 -2.37299,2.77798 -2.9357,2.43019 -1.46688,-0.90657 -11.00296,8.73625 -11.00296,11.12613 0,1.10073 -1.49463,2.39218 -3.3214,2.8699 -2.68452,0.702 -3.16799,0.28182 -2.52124,-2.19128 0.44009,-1.68293 0.15444,-2.6608 -0.6347,-2.17306 -2.27834,1.40809 -1.66776,-3.75412 1.0703,-9.04893 1.92344,-3.71953 2.0153,-4.683 0.39561,-4.14917 -1.16027,0.38238 -2.33711,2.2417 -2.61523,4.1318 -0.27811,1.8901 -1.58518,3.43654 -2.90457,3.43654 -1.90684,0 -1.56089,-1.54176 1.68662,-7.5166 3.77759,-6.9501 3.81311,-7.18862 0.47145,-3.16488 -1.98772,2.39344 -4.12137,4.35171 -4.74142,4.35171 -2.84974,0 -0.64616,-7.94308 3.92976,-14.16537 2.7985,-3.80538 4.03532,-6.55284 2.76927,-6.15161 -1.25833,0.39877 -4.06813,4.06303 -6.24398,8.14277 -5.47986,10.27478 -10.01252,10.28435 -6.30358,0.0127 l 1.60865,-4.45474 -3.1559,3.95611 c -2.92839,3.67092 -3.42781,3.41494 -3.85924,-1.97805 -0.20803,-2.60032 -3.0322,-5.77774 -4.40062,-4.95104 -2.12803,1.28561 -2.87058,-2.38067 -1.31228,-6.4793 2.17653,-5.72474 -0.67099,-3.65062 -3.12639,2.27722 -1.08466,2.61866 -2.60351,4.37096 -3.3752,3.89403 -0.79219,-0.48959 -0.68798,-2.2033 0.23933,-3.93599 1.18023,-2.20528 1.13315,-3.06885 -0.16727,-3.06885 -1.15578,0 -1.43888,-1.47737 -0.78348,-4.0887 0.56441,-2.24877 0.45573,-3.73612 -0.24151,-3.30519 -0.69724,0.43091 -2.56232,-0.16317 -4.14462,-1.32017 -2.2998,-1.68166 -2.53437,-2.74367 -1.16937,-5.29419 0.93914,-1.7548 1.67901,-3.77143 1.64417,-4.48141 -0.0349,-0.70998 -1.1777,0.76658 -2.53968,3.28124 -1.83358,3.38541 -2.81265,4.0279 -3.772139,2.47541 -1.068319,-1.72856 -1.733736,-1.73324 -3.790094,-0.0266 -1.371926,1.13909 -2.494347,3.17025 -2.494347,4.51425 0,1.344 0.419206,2.02443 0.931567,1.51207 0.512363,-0.51237 11.016853,14.145 23.343313,32.57194 12.32646,18.42691 23.81519,35.35154 25.53053,37.61027 l 3.11879,4.10679 4.39551,-6.93102 c 2.41753,-3.81205 4.37387,-7.44036 4.3474,-8.06289 z m 1.83242,-11.02213 c 1.96835,-2.50985 1.91238,-2.56582 -0.59747,-0.59747 -1.5231,1.19451 -2.76927,2.44068 -2.76927,2.76927 0,1.30242 1.29949,0.46415 3.36674,-2.1718 z M 90.798582,171.75372 c 0.07553,-4.56845 1.453143,-11.15467 3.061381,-14.63604 1.608235,-3.48137 2.979681,-7.75396 3.047655,-9.49465 0.13639,-3.4928 -1.921905,-7.12099 -4.039793,-7.12099 -2.137318,0 -9.141799,14.89671 -10.243233,21.7847 -1.040488,6.50686 2.065334,15.12394 6.025328,16.71724 1.106241,0.44509 2.011347,0.86477 2.011347,0.93262 0,0.0679 0.06179,-3.61444 0.137308,-8.18288 z m 23.660548,-7.11944 c 4.4795,-8.79887 4.63946,-9.49562 1.18065,-5.14294 -4.35621,5.48198 -7.1579,11.0771 -5.54676,11.0771 0.73978,0 2.70452,-2.67037 4.36611,-5.93416 z M 81.933605,149.00362 c 0.01329,-1.8517 -0.987004,-4.20598 -2.222959,-5.23173 -1.319665,-1.09523 -2.003848,-3.78781 -1.657622,-6.52354 0.324264,-2.56218 -0.0887,-4.65852 -0.917691,-4.65852 -0.828996,0 -1.507264,1.02612 -1.507264,2.28027 0,1.25415 -0.722957,2.72708 -1.606571,3.27319 -1.805161,1.11565 -1.204482,-11.56596 0.720904,-15.21982 0.638169,-1.21107 -0.309852,-0.4217 -2.10671,1.75415 -1.796859,2.17586 -3.28285,3.02395 -3.302203,1.88466 -0.01935,-1.1393 -0.805235,-1.59553 -1.746403,-1.01386 -1.021489,0.63132 -1.585863,-0.12833 -1.400216,-1.88465 0.659728,-6.24145 0.07813,-7.25599 -2.615501,-4.56237 -4.432426,4.43242 -4.251039,1.35156 0.426637,-7.24645 3.18695,-5.8579 5.615351,-8.44766 8.281996,-8.8323 2.953631,-0.42603 3.400634,-0.0956 2.058504,1.52155 -1.284758,1.54804 -0.925279,2.55857 1.434385,4.0322 1.73184,1.08155 3.935179,1.48046 4.89631,0.88644 1.171883,-0.72427 1.483589,0.30058 0.94629,3.11127 -0.901833,4.71764 0.531375,5.40333 3.590214,1.71765 1.830257,-2.20533 2.199128,-2.21245 3.400497,-0.0657 0.741149,1.32437 2.396861,2.00528 3.679358,1.51314 1.282496,-0.49219 2.331812,-0.10657 2.331812,0.85689 0,0.96345 -0.630202,1.75175 -1.400446,1.75175 -0.770245,0 -2.65425,1.91355 -4.186677,4.25232 l -2.786231,4.25233 4.372673,-3.43954 c 4.210049,-3.31163 8.261434,-3.37116 6.234565,-0.0916 -0.851156,1.3772 1.540015,0.42842 8.169144,-3.24139 0.93478,-0.51749 6.03965,-3.85856 11.34417,-7.42461 5.30452,-3.56607 12.90685,-7.39713 16.8941,-8.51348 3.98723,-1.11635 7.24952,-2.49804 7.24952,-3.07039 0,-0.57237 -3.63949,-4.5744 -8.08777,-8.893389 -4.44828,-4.319006 -11.55108,-11.962422 -15.78402,-16.985377 -4.23295,-5.022971 -8.23318,-9.295565 -8.88941,-9.494652 -0.65623,-0.199102 -3.60566,-3.03237 -6.5543,-6.296156 -4.221245,-4.672413 -6.520802,-5.934157 -10.815174,-5.934157 -7.891057,0 -21.914145,7.418662 -32.477598,17.181695 -9.23371,8.534046 -10.961339,11.302259 -7.053703,11.302259 1.165812,0 2.888618,1.68769 3.828458,3.750403 1.463724,3.212531 1.00923,4.599114 -3.168947,9.667974 l -4.87775,5.91756 -2.78155,-3.68758 -2.78155,-3.687581 -1.861771,4.086131 c -2.472094,5.42566 -0.09256,9.91549 13.800019,26.03855 5.92807,6.87984 14.249861,17.02742 18.49287,22.5502 7.797166,10.14895 10.377657,10.74632 10.437611,2.41627 z m -26.87728,-40.24381 c 0,-2.6624 -0.660831,-4.43229 -1.468512,-3.93313 -0.807682,0.49918 -1.920365,-0.51607 -2.472629,-2.2561 -0.672039,-2.1174 0.399076,-5.00337 3.238773,-8.72641 4.393254,-5.759851 6.895745,-7.0024 7.21953,-3.584658 0.260554,2.750284 0.195724,3.148553 -1.094767,6.725378 -1.047668,2.9038 -0.856446,2.87117 2.318061,-0.39561 4.520562,-4.651952 4.772249,-4.541055 4.179061,1.84141 -1.11642,12.01225 -11.919517,21.37391 -11.919517,10.32912 z m 3.366732,-13.75297 c 1.968354,-2.50985 1.912383,-2.565821 -0.597459,-0.59747 -1.5231,1.19451 -2.769273,2.44068 -2.769273,2.76927 0,1.30242 1.299479,0.46415 3.366732,-2.1718 z m 74.054313,26.04533 c 3.87524,-1.7142 11.39914,-3.46617 16.71977,-3.89325 9.22837,-0.74076 9.90692,-0.54347 14.73444,4.28403 4.72777,4.72779 5.06056,4.8322 5.06056,1.58779 0,-5.2209 -10.90836,-15.28805 -18.00887,-16.62011 -8.72041,-1.63595 -24.51356,3.11506 -34.77063,10.46 -7.28471,5.21646 -8.65987,7.02899 -9.54833,12.58513 -0.57088,3.57003 -0.63526,7.14256 -0.14307,7.93892 0.49218,0.79638 4.94833,-1.85364 9.90256,-5.88892 4.95423,-4.03527 12.17833,-8.73938 16.05357,-10.45359 z M 35.036757,92.632083 c -0.421376,-1.523686 0.58944,-4.72813 2.246259,-7.120988 4.096077,-5.915722 5.427693,-8.306728 4.626229,-8.306728 -0.37088,0 -2.670977,3.017147 -5.111329,6.704759 -2.496006,3.771718 -4.730191,5.82519 -5.107215,4.694124 -0.368617,-1.105858 0.127386,-2.971684 1.102223,-4.146299 1.338723,-1.613062 1.213767,-2.350037 -0.510656,-3.011766 -1.255699,-0.481854 -2.675721,0.147167 -3.155611,1.397644 -0.47988,1.250556 -1.64899,2.273747 -2.59801,2.273747 -0.94902,0 -1.32299,-0.651285 -0.83103,-1.447285 0.49196,-0.796 -9e-5,-1.748345 -1.09344,-2.116326 -1.45388,-0.489307 -1.52973,-1.269546 -0.28235,-2.90443 0.93806,-1.229462 3.64379,-5.795883 6.01273,-10.147598 3.957018,-7.268979 3.12003,-6.681038 -4.02158,2.824975 -3.80588,5.065903 -5.2006,2.352347 -1.98642,-3.86475 2.46667,-4.771205 2.47811,-5.076996 0.11669,-3.118186 -3.80212,3.153886 -3.41453,-0.564884 0.65444,-6.27924 1.79995,-2.527793 2.91234,-4.595997 2.47199,-4.595997 -0.44036,0 -3.08571,3.181879 -5.87855,7.070841 -2.79284,3.888962 -5.70331,6.684313 -6.46771,6.211891 -1.4938,-0.923212 5.29915,-10.427896 14.25286,-19.942565 5.554061,-5.902033 9.508691,-6.7046 6.641887,-1.34794 -1.178517,2.202079 -0.643664,3.920231 2.279277,7.321864 2.100525,2.444524 3.401987,5.119563 2.892138,5.944522 -0.509848,0.824942 1.315836,-0.158292 4.057076,-2.184973 3.845095,-2.842809 5.413157,-3.255811 6.861707,-1.807259 1.44855,1.448551 0.813223,3.035123 -2.780138,6.942695 l -4.657771,5.065048 5.264349,-4.263399 c 6.345794,-5.139218 8.186407,-5.343986 8.186407,-0.910696 0,3.299835 0.08108,3.290957 5.142936,-0.562906 7.692723,-5.856886 17.522312,-10.493282 24.669878,-11.636233 5.050923,-0.807662 7.345188,-0.321251 11.101943,2.353803 L 103.8713,55.094284 103.10283,42.8083 C 102.03601,25.752409 101.65692,24.502011 96.660565,21.559049 90.506014,17.933896 73.957093,14.939695 64.962128,15.823853 c -9.130868,0.897513 -23.01722,7.270545 -31.1383,14.290668 -4.938621,4.269096 -5.985501,6.210293 -5.985501,11.098757 0,3.25858 -0.52018,5.924694 -1.15594,5.924694 -0.63577,0 -3.4572,3.204444 -6.26985,7.120988 -2.81265,3.916544 -6.13781,7.120988 -7.38925,7.120988 -1.25143,0 -2.27533,1.144327 -2.27533,2.542969 0,1.570336 -0.87689,2.206477 -2.29266,1.663194 -3.04628,-1.168966 -4.2392,3.010769 -4.42886,15.517709 -0.10077,6.645196 0.62357,11.09257 2.09695,12.875048 1.238,1.497722 7.94769,5.343812 14.91044,8.546882 l 12.659533,5.82375 1.054769,-6.47354 c 0.580121,-3.56043 0.710005,-7.720175 0.288628,-9.243877 z m 1.803632,-19.578651 c 1.49589,-2.28302 1.937667,-3.667562 0.981726,-3.076757 -1.826762,1.128993 -5.511133,7.227692 -4.366428,7.227692 0.365696,0 1.888812,-1.86793 3.384702,-4.150935 z m 7.138843,-9.299821 c 2.044112,-2.175857 3.360518,-3.956104 2.925346,-3.956104 -0.435171,0 -2.463676,1.780247 -4.507788,3.956104 -2.044111,2.175858 -3.360518,3.956105 -2.925346,3.956105 0.435171,0 2.463677,-1.780247 4.507788,-3.956105 z"
     id="path13667"
     inkscape:connector-curvature="0"
     sodipodi:nodetypes="csssssssssscsssssssssssssssssssssscsssssssssssssssscsscssscccscssssssssssssssssssssssssscsssssssssssssssssscssssscsscssssssssscscccscsssssssssccssssssccssssssscssccsscssssssscscscssccsscssssssssssssssssscscssssssscsssssssscsscsscsssssssssscssssssssscssscsssccsssscssccssssccccsssssssssssssscsssscssscssssssssssssssssscsssscssssccscscscssssssssccssssssssscssssscsssscscsssssssssssssssscssssssssssssssssssssssscssssssssssssssscccssscsssssssssssssssssssssssssssssssssssssssssssssssssscssssscssssssssssssscsssssssssss" />
</svg>
