<?xml version="1.0" encoding="UTF-8" standalone="no"?>
<!-- Created with Inkscape (http://www.inkscape.org/) -->

<svg
   xmlns:dc="http://purl.org/dc/elements/1.1/"
   xmlns:cc="http://creativecommons.org/ns#"
   xmlns:rdf="http://www.w3.org/1999/02/22-rdf-syntax-ns#"
   xmlns:svg="http://www.w3.org/2000/svg"
   xmlns="http://www.w3.org/2000/svg"
   xmlns:sodipodi="http://sodipodi.sourceforge.net/DTD/sodipodi-0.dtd"
   xmlns:inkscape="http://www.inkscape.org/namespaces/inkscape"
   id="svg13035"
   version="1.1"
   inkscape:version="0.48.4 r9939"
   width="481.92453"
   height="498.95407"
   sodipodi:docname="TomeofKnowledge.svg">
  <metadata
     id="metadata13041">
    <rdf:RDF>
      <cc:Work
         rdf:about="">
        <dc:format>image/svg+xml</dc:format>
        <dc:type
           rdf:resource="http://purl.org/dc/dcmitype/StillImage" />
        <dc:title />
      </cc:Work>
    </rdf:RDF>
  </metadata>
  <defs
     id="defs13039" />
  <sodipodi:namedview
     pagecolor="#ffffff"
     bordercolor="#666666"
     borderopacity="1"
     objecttolerance="10"
     gridtolerance="10"
     guidetolerance="10"
     inkscape:pageopacity="0"
     inkscape:pageshadow="2"
     inkscape:window-width="1276"
     inkscape:window-height="745"
     id="namedview13037"
     showgrid="false"
     inkscape:zoom="0.99628179"
     inkscape:cx="172.02635"
     inkscape:cy="230.0786"
     inkscape:window-x="0"
     inkscape:window-y="22"
     inkscape:window-maximized="0"
     inkscape:current-layer="svg13035"
     fit-margin-top="0"
     fit-margin-left="0"
     fit-margin-right="0"
     fit-margin-bottom="0" />
  <path
     style="fill:#fffeb8;fill-opacity:0.59405942;stroke:none"
     d="m 250.70573,410.54871 c -14.78366,5.51465 -29.84165,11.92092 -38.7686,-1.5987 -3.73453,-20.9164 -1.72813,-41.8328 2.79773,-62.74919 19.83945,-19.6287 42.33984,-28.61364 63.54854,-42.76536 58.7595,-28.68402 118.93082,-54.82675 181.45304,-76.73786 l -5.19579,20.78318 c 1.13301,17.45253 -1.41372,34.90505 4.39643,52.35758 l 3.99676,7.19419 -12.78963,11.19093 c -51.29179,23.44767 -106.45273,54.63364 -153.87539,70.34302 -11.0521,-7.43742 -7.31393,-17.56398 -10.79126,-26.37863 l -19.98381,6.79451 -14.38835,-8.79289 -18.38511,11.19093 c 7.30673,4.75309 15.50761,7.04719 19.98383,19.58414 0.292,7.77363 4.52446,20.66984 -1.99839,19.58415 z"
     id="path13592"
     inkscape:connector-curvature="0"
     sodipodi:nodetypes="cccccccccccccccc" />
  <path
     style="fill:#ff2500;fill-opacity:1;stroke:none"
     d="m 266.29311,370.18139 19.18445,-8.3932 7.99353,31.97411 c 9.0275,5.74867 17.57476,15.81959 27.57767,12.78964 -1.41202,4.15138 -10.09667,5.3937 -16.38673,7.59386 l 20.38349,5.99513 c -11.49754,1.2137 -12.05991,13.78315 -49.16018,-11.59061 z"
     id="path13590"
     inkscape:connector-curvature="0"
     sodipodi:nodetypes="cccccccc" />
  <path
     style="fill:#0031ff;fill-opacity:1;stroke:none"
     d="m 233.91932,370.58108 19.58414,-8.79289 c 10.83355,0.80573 16.17032,18.10181 19.58414,41.16666 6.30157,58.56568 -19.13891,78.40793 -22.38187,88.32847 l 1.99839,-32.77346 -13.98868,10.79126 c 6.92765,-16.86267 16.41218,-28.97683 16.38672,-58.75241 1.80236,-15.655 -2.79843,-29.62494 -21.18284,-39.96763 z"
     id="path13588"
     inkscape:connector-curvature="0"
     sodipodi:nodetypes="cccccccc" />
  <path
     style="fill:#006901;fill-opacity:0.52475251;stroke:none"
     d="m 295.55518,388.7077 c 4.13448,-5.2086 3.01174,7.83995 137.47647,-63.10887 9.69112,-5.11341 25.68335,-8.42073 30.39614,-20.54483 l -5.65228,-8.47841 23.17434,2.82613 -4.52182,8.47841 c -53.17556,32.99296 -116.16558,60.26081 -178.04671,88.17552 z"
     id="path13586"
     inkscape:connector-curvature="0"
     sodipodi:nodetypes="cscccccc" />
  <path
     style="fill:#006901;fill-opacity:0.52475251;stroke:none"
     d="M 46.289771,77.832477 200.59693,1.526741 c 55.79403,21.027136 104.855,62.253411 154.87238,100.610519 45.4597,32.99511 83.75661,70.08327 118.69781,109.08895 l -2.2609,9.04365 -191.04696,81.39277 C 255.50188,304.17427 195.31161,238.67881 139.55234,181.83437 107.7507,147.06505 68.732078,111.26474 46.289771,77.832477 z"
     id="path13584"
     inkscape:connector-curvature="0"
     sodipodi:nodetypes="cccccccc" />
  <path
     style="fill:#0049ff;fill-opacity:0.27722772;stroke:none"
     d="m 25.093734,199.07381 -0.565228,-15.54375 16.956831,-40.6964 4.239206,-2.82613 5.934892,2.26091 -8.76103,25.71785 -7.913186,26.28308 1.130454,16.95684 -7.347959,-2.26091 z"
     id="path13582"
     inkscape:connector-curvature="0" />
  <path
     style="fill:#0049ff;fill-opacity:0.27722772;stroke:none"
     d="m 55.333413,218.57417 c 0,1.13045 2.543525,18.65251 2.543525,18.65251 l 3.67398,9.32627 6.217505,-1.41309 -3.956594,-10.73931 14.413305,-34.7615 5.934892,-26.84833 -4.239208,-3.95659 -6.217505,4.23921 z"
     id="path13580"
     inkscape:connector-curvature="0" />
  <path
     style="fill:#0049ff;fill-opacity:0.27722772;stroke:none"
     d="m 91.790596,281.87967 c 4.57209,12.91189 6.78722,-17.53355 13.565474,-29.10922 l 14.13069,-31.93537 c 0.12444,-13.97461 2.37486,-12.36975 -10.73933,-9.60887 -7.85341,23.6689 -25.516474,48.92514 -16.956834,70.65346 z"
     id="path13578"
     inkscape:connector-curvature="0"
     sodipodi:nodetypes="ccccc" />
  <path
     style="fill:#0049ff;fill-opacity:0.27722772;stroke:none"
     d="m 159.33531,357.62018 c 4.71088,7.8668 2.98697,16.3916 12.71762,16.3916 -7.76319,-30.20797 20.83187,-58.46618 17.52206,-79.97971 -17.93678,10.65746 -24.9379,46.83691 -30.23968,63.58811 z"
     id="path13574"
     inkscape:connector-curvature="0"
     sodipodi:nodetypes="cccc" />
  <path
     style="fill:#0049ff;fill-opacity:0.63366334;stroke:none"
     d="M 44.610117,75.593501 7.2797834,98.190797 c -3.913785,22.216123 -10.201641,44.184373 -1.144797,67.841663 l 16.9728576,24.83712 c 0.235697,0.27863 0.461312,0.56739 0.696833,0.84615 4.704725,-18.4235 12.494746,-37.01275 19.959286,-51.41631 4.744715,-3.81484 6.318438,1.88331 9.009054,4.23077 -11.320004,16.2801 -14.371756,38.57348 -17.619918,60.72401 7.181189,8.64686 12.589337,18.16762 19.657267,26.87953 1.467019,-20.31861 12.089633,-40.59277 18.917412,-59.92932 2.293642,-2.24629 4.68761,-4.24176 8.461538,-2.78733 4.00608,4.98794 1.19166,9.00152 0.29865,13.2896 l -20.009062,55.9955 c 8.184352,10.12997 14.739532,21.67582 24.206082,31.82484 l 22.929694,-60.44476 9.00905,-0.24887 1.69231,8.46154 c -8.94768,20.78959 -20.386354,40.18885 -23.791874,62.61541 1.54536,1.2248 29.642254,36.30455 24.941734,28.97172 5.50019,-18.46591 11.39656,-37.01107 27.9678,-57.69119 8.11955,-1.2265 7.20483,3.56984 6.52037,8.21268 l -21.50227,42.10861 -2.68779,21.75114 c 9.73415,11.72699 18.74742,20.25932 28.81733,31.78267 L 172.031,315.20448 c 5.26648,-7.14288 7.48948,-19.15533 16.1267,-20.90499 l 4.82806,8.21267 -21.50227,40.71495 -0.99548,26.23079 c 13.35417,14.98101 27.08731,29.70075 41.41179,44.09956 -1.09291,-49.61996 -4.39448,-64.37813 7.91403,-72.3213 l 58.78283,-39.57015 C 261.49342,296.13865 242.45873,284.23797 227.57854,269.6117 198.78937,241.31377 170.627,213.96165 141.17126,183.65238 115.71735,157.46091 87.344806,128.32389 60.207983,98.406377 53.600954,91.122331 50.289329,83.545121 44.610117,75.593501 z"
     id="path13047"
     inkscape:connector-curvature="0"
     sodipodi:nodetypes="ccccccccccccccccccccccccccccccccsssc" />
  <path
     style="fill:#0049ff;fill-opacity:0.63366334;stroke:none"
     d="m 225.46695,415.83862 29.95706,-5.08704 -2.82613,7.91318 -16.95683,1.69569 z"
     id="path13557"
     inkscape:connector-curvature="0" />
  <path
     style="fill:#000000"
     d="m 241.08625,497.62176 c -0.51426,-0.83206 0.50353,-2.28271 2.26174,-3.22368 4.00205,-2.14184 8.41043,-16.67236 7.73828,-25.50632 l -0.49285,-6.47769 -6.0548,5.00531 c -3.33014,2.75293 -6.45716,4.60295 -6.94894,4.11117 -0.49178,-0.49178 1.6447,-6.84584 4.74771,-14.12016 4.34778,-10.19234 10.64517,-32.94232 10.64517,-38.45676 0,-0.37247 -2.83266,0.2987 -6.29481,1.49152 -8.77825,3.02435 -26.12053,0.74959 -34.4634,-4.52049 -5.2966,-3.3458 -14.64938,-12.77417 -34.77156,-35.05255 -2.17589,-2.40905 -5.37507,-4.38009 -7.10929,-4.38009 -3.5997,0 -8.75498,-6.60573 -10.3737,-13.29238 -0.60345,-2.49272 -4.70693,-8.9434 -9.11886,-14.33485 -4.41191,-5.39147 -9.03289,-11.05695 -10.26883,-12.58998 -1.23593,-1.53303 -3.26556,-2.78733 -4.5103,-2.78733 -3.08053,0 -9.8584,-8.32446 -12.31955,-15.13067 -1.10882,-3.06637 -2.8321,-5.57522 -3.82954,-5.57522 -0.99743,0 -2.65403,-1.84476 -3.68135,-4.09947 -3.56527,-7.8249 -12.06293,-16.75699 -18.760594,-19.71969 -6.17112,-2.72976 -11.73812,-9.54323 -11.73812,-14.36632 0,-0.94059 -3.40453,-6.63856 -7.565614,-12.66216 -5.480913,-7.93419 -8.790718,-11.20794 -12.011647,-11.88079 -3.193342,-0.66706 -5.21282,-2.63855 -7.167424,-6.99704 -1.496766,-3.33755 -4.933752,-8.90428 -7.637735,-12.37053 -2.703998,-3.46623 -6.263054,-8.63165 -7.90903,-11.47871 -2.026278,-3.50489 -4.192178,-5.17647 -6.707211,-5.17647 -5.129105,0 -10.819737,-6.65981 -12.962733,-15.17045 -0.987193,-3.92051 -2.376224,-7.12821 -3.086739,-7.12821 -1.600517,0 -15.3468406,-21.52643 -17.8456276,-27.94589 -4.68423,-12.03385 -3.31103101,-49.29251 2.066576,-56.07224 3.200478,-4.03496 4.138709,-1.81746 1.684711,3.9819 -1.390066,3.28507 -3.067865,10.63168 -3.728447,16.3258 -1.40679,12.12651 1.193297,34.96186 3.598191,31.60123 1.133568,-1.58406 1.286521,-1.38968 0.592586,0.75308 -1.069156,3.30139 3.2740636,12.76864 5.2870586,11.52455 0.732049,-0.45244 1.911568,1.49517 2.621159,4.32801 1.167032,4.65914 1.387279,4.16272 2.308149,-5.20233 l 1.018013,-10.35294 0.299296,11.9457 c 0.164612,6.57014 0.99409,13.02082 1.84327,14.33485 1.248534,1.93196 1.548658,1.70336 1.568376,-1.19457 0.01274,-1.97104 0.592475,-3.58371 1.286808,-3.58371 0.694332,0 2.146627,-3.30595 3.227316,-7.34656 1.080704,-4.04061 3.252784,-10.31211 4.826862,-13.93666 1.574077,-3.62455 4.163891,-9.61666 5.755123,-13.31579 l 2.89317,-6.72567 -4.563642,-6.0164 c -2.51,-3.30902 -8.881522,-10.53753 -14.158912,-16.06336 -9.917533,-10.38437 -12.3814696,-14.01331 -8.59981,-12.66601 1.204525,0.42913 3.623531,0.043 5.375568,-0.85806 2.863099,-1.47249 2.961038,-1.36619 0.967602,1.05009 -2.957454,3.58482 -1.326387,4.89601 3.276087,2.63357 l 3.720116,-1.82871 -3.800376,3.06452 c -5.246857,4.2309 -1.904798,5.64855 4.349607,1.84502 6.845145,-4.16279 8.7922,-3.93157 2.2381,0.26579 -10.50859,6.72987 -4.270845,8.5916 6.883802,2.05455 9.213628,-5.39954 9.126711,-4.01059 -0.11452,1.83076 -3.942083,2.49177 -7.167424,5.10429 -7.167424,5.80563 0,2.03017 2.037332,1.48715 7.167424,-1.91039 2.628056,-1.74049 5.482219,-3.16924 6.342597,-3.17502 0.860362,-0.006 -1.18065,1.85475 -4.535578,4.13449 -7.95764,5.40734 -5.525176,8.6208 2.805155,3.70579 3.232237,-1.90707 6.176265,-3.16792 6.542281,-2.8019 0.366033,0.36601 -1.814807,2.00122 -4.846277,3.63379 -3.031486,1.63256 -5.511797,3.58618 -5.511797,4.34138 0,1.77214 7.976307,0.34266 10.13539,-1.81644 0.908081,-0.90807 2.751383,-1.65104 4.096231,-1.65104 1.344864,0 -0.411155,1.51615 -3.902264,3.36923 -7.836352,4.15952 -7.6877,4.01877 -6.416549,6.07554 0.70666,1.14339 2.624806,0.87659 5.909461,-0.82198 2.674756,-1.38317 4.433833,-1.82013 3.90905,-0.97101 -0.524783,0.84912 0.113086,2.42956 1.417446,3.5121 1.304391,1.08254 2.371605,2.93312 2.371605,4.11238 0,1.28331 1.119074,1.82468 2.787331,1.34848 1.533033,-0.43761 1.174662,0.0527 -0.79638,1.08977 -5.302492,2.78967 -4.727474,6.78166 0.79638,5.52876 3.842536,-0.87156 4.052351,-0.73506 1.709511,1.11213 -2.463141,1.94205 -2.361396,2.50065 1.310014,7.19184 2.189329,2.79744 4.634615,5.08626 5.43399,5.08626 0.799359,0 4.94796,-2.15023 9.219092,-4.77829 4.271131,-2.62805 8.380742,-4.77828 9.132462,-4.77828 0.75173,0 -2.861332,2.6447 -8.029013,5.8771 -5.167681,3.23241 -8.549782,6.15911 -7.515777,6.50378 2.528285,0.84276 2.400959,3.54673 -0.167017,3.54673 -1.125875,0 -5.221915,-3.58371 -9.10231,-7.9638 -3.880396,-4.3801 -7.546151,-7.96381 -8.146128,-7.96381 -0.599978,0 -3.019079,5.91313 -5.37576,13.14028 -4.650479,14.26145 -7.24582,42.98854 -4.061572,44.95651 0.983084,0.60757 1.731968,-0.79444 1.843191,-3.45072 0.128536,-3.06904 0.572135,-2.20375 1.412635,2.75536 0.673929,3.9762 3.029941,9.88872 5.235597,13.13894 l 4.010285,5.90948 -0.797256,-5.97151 c -0.438488,-3.28434 -0.07645,-8.48012 0.804471,-11.54618 1.004443,-3.49587 1.683979,-4.38679 1.82231,-2.38914 0.121368,1.75203 3.269779,-5.05702 6.996569,-15.13123 3.726773,-10.07422 7.633466,-19.88088 8.68155,-21.7926 3.802876,-6.93656 14.651045,-6.64212 14.651045,0.39766 0,4.43667 1.12328,4.73072 5.4809,1.43477 1.70046,-1.28617 3.81498,-2.33849 4.69891,-2.33849 0.88394,0 -1.40328,1.95201 -5.08271,4.33779 -6.56684,4.25803 -9.38252,9.33759 -4.03943,7.28727 1.78944,-0.68668 2.27405,-0.40809 1.49181,0.8576 -1.74045,2.81611 3.11433,4.00312 8.57992,2.09781 6.175714,-2.15287 6.159084,-1.03115 -0.0322,2.17046 -2.6567,1.37383 -4.41146,3.17568 -3.89947,4.0041 0.51858,0.83905 5.30388,-0.67659 10.803224,-3.42165 11.14027,-5.56082 10.63431,-3.83876 -0.59875,2.03791 -9.437744,4.93741 -8.846834,9.02361 0.63897,4.41849 6.1828,-3.00159 4.68568,-0.65985 -2.11361,3.30603 -2.090344,1.21925 -2.049484,1.73737 0.3266,4.14258 2.52111,2.55202 3.17749,2.56766 9.15837,0.21831 8.07965,-3.17377 8.30875,-2.2555 0.46979,1.88283 -6.51382,3.43877 -6.27916,4.23993 0.48823,1.66697 2.54716,-0.96842 5.00681,-1.04947 6.07654,-0.20021 0.98847,0.78472 3.57524,1.13776 5.74837,0.78453 3.6938,-0.60041 3.75734,-0.50051 0.97541,1.53369 -1.63666,1.19675 -2.6156,3.18853 -2.17543,4.42617 0.44018,1.23764 0.12615,3.5588 -0.69777,5.15814 -1.33128,2.58406 -1.12181,2.70651 1.88081,1.09956 3.10393,-1.66117 3.22026,-1.5543 1.42944,1.31326 -1.07221,1.7169 -2.89685,2.75809 -4.05474,2.31376 -1.15789,-0.44432 -2.10526,-0.0628 -2.10526,0.84797 0,2.6751 5.94796,3.7883 9.89459,1.85184 3.5902,-1.76155 3.58789,-1.74275 -0.15656,1.27663 -5.14817,4.15132 -1.80393,5.98419 4.94817,2.71193 4.35309,-2.10963 4.72126,-2.13005 2.21005,-0.12249 -1.65725,1.32485 -3.80748,2.6926 -4.77828,3.03947 -2.80309,1.00153 4.60897,9.87356 8.00239,9.57864 1.63604,-0.14223 4.76647,-0.71905 6.95651,-1.28193 2.75607,-0.70837 2.38832,-0.28469 -1.19457,1.37619 -2.84706,1.31979 -5.17647,3.17619 -5.17647,4.12532 0,1.22241 0.96881,1.2072 3.32194,-0.0521 1.82706,-0.97781 3.6803,-1.41947 4.11831,-0.98146 0.43801,0.43801 -0.69849,1.59641 -2.52555,2.57422 -4.5171,2.41748 -7.28264,0.63278 -16.86041,-10.88061 -4.38009,-5.2653 -8.32218,-9.60548 -8.76019,-9.64487 -1.77902,-0.15991 -19.416234,39.71156 -20.221204,45.71291 -0.73098,5.44997 -0.21105,7.17493 3.305864,10.96777 2.29529,2.47536 4.24471,5.22473 4.33202,6.1097 0.0873,0.88484 0.73262,-0.18294 1.434,-2.37299 1.21784,-3.8027 1.28238,-3.75316 1.43399,1.10057 0.2632,8.4257 3.32683,7.89364 3.50305,-0.60837 0.0873,-4.21279 0.77885,-9.45148 1.5367,-11.64153 1.08892,-3.14675 1.23167,-2.64567 0.6806,2.38915 -1.28669,11.75601 -1.2338,17.49923 0.19072,20.70589 1.0791,2.4291 1.65083,0.72716 2.40776,-7.16743 l 0.99263,-10.35294 -0.19625,11.53406 c -0.13459,7.91329 0.42874,11.77259 1.79469,12.2939 1.33308,0.50877 2.0052,-0.93409 2.03406,-4.36662 0.0237,-2.81957 2.14928,-10.06461 4.72352,-16.10011 5.45586,-12.7916 19.84257,-35.33626 23.42746,-36.71191 3.8233,-1.46712 6.84666,2.12234 6.84666,8.12867 l 0,5.44678 7.16743,-4.2004 c 3.94208,-2.3102 7.16183,-3.59471 7.155,-2.85446 -0.006,0.74025 -1.79869,2.24184 -3.98191,3.33686 -2.18321,1.09503 -5.67701,2.86422 -7.76401,3.93154 -3.88186,1.98525 -18.32369,23.5681 -22.26612,33.27603 -2.78393,6.85519 -4.35181,18.93726 -2.45747,18.93726 0.79265,0 1.44119,2.42083 1.44119,5.37964 0,5.76102 3.78602,10.78906 5.29403,7.03074 0.45404,-1.1316 0.88211,-0.41955 0.95126,1.58231 0.0691,2.00186 1.38005,5.56396 2.91308,7.91575 l 2.78734,4.27601 0.90761,-11.89766 0.90762,-11.89765 0.31134,12.74209 c 0.35259,14.43016 3.37704,22.85046 3.43258,9.55656 0.0322,-7.69993 2.77129,-20.87018 4.07034,-19.57111 0.35041,0.35041 -0.11977,3.37812 -1.04474,6.72827 -1.78637,6.4697 -0.41563,25.34184 1.74373,24.00728 0.69086,-0.42697 1.73464,-3.32716 2.31953,-6.44486 1.69878,-9.05531 8.86512,-29.41726 13.84197,-39.32972 7.07855,-14.09838 17.31094,-18.61908 17.31094,-7.648 0,5.5006 0.99067,5.86914 6.11964,2.27666 2.00362,-1.40339 3.94693,-2.2476 4.31849,-1.87604 0.37156,0.37156 -2.05227,2.20868 -5.38629,4.08252 -5.32353,2.99199 -7.20484,5.88798 -15.44578,23.7765 -7.92655,17.20604 -9.48633,22.08223 -10.04332,31.39738 -0.49934,8.35129 -0.10066,11.4439 1.64257,12.74208 1.26607,0.94285 3.12404,3.14774 4.12884,4.89978 1.55133,2.705 1.8342,1.93834 1.87533,-5.08247 0.0266,-4.54739 0.58599,-8.60226 1.243,-9.01082 0.65702,-0.40856 0.95034,3.5186 0.65184,8.72703 -0.56544,9.86638 2.02604,16.51739 4.75785,12.21088 0.96943,-1.52824 1.31712,-1.32589 1.33516,0.77703 0.0127,1.56385 1.2604,4.72977 2.77109,7.03537 l 2.7467,4.19199 1.07643,-3.84984 c 1.00765,-3.60379 1.08815,-3.54445 1.25959,0.92844 0.10082,2.62806 0.92049,5.8534 1.82166,7.16743 1.16638,1.70073 1.35542,-0.13507 0.65606,-6.37105 -0.56805,-5.06499 -0.25838,-10.43981 0.7341,-12.74209 1.60463,-3.72226 1.65698,-3.64949 0.80297,1.11621 -1.3939,7.7786 0.90944,19.4255 4.71713,23.8522 l 3.41346,3.96837 0.14669,-20.44124 c 0.1408,-19.61815 2.21504,-35.33783 5.31831,-40.30463 2.75857,-4.41508 3.11308,-0.6939 0.68552,7.19562 -1.58973,5.16661 -2.53155,15.49105 -2.72891,29.91495 -0.26379,19.27881 0.0432,22.2778 2.4612,24.0489 1.51942,1.1129 2.35396,2.43205 1.85453,2.93148 -0.49942,0.49941 0.76603,1.77058 2.81209,2.82481 3.07453,1.58413 3.37463,1.55124 1.72918,-0.18951 -1.09503,-1.15846 -1.99095,-3.17319 -1.99095,-4.4772 0,-1.73485 0.87127,-1.43573 3.24757,1.11493 3.48515,3.74087 8.52443,4.32936 17.45832,2.03878 3.06606,-0.7861 7.64207,-1.89506 10.1689,-2.46435 4.51589,-1.01739 4.57911,-1.18175 3.70653,-9.63623 -1.06771,-10.34505 -3.72642,-16.19754 -9.19611,-20.24285 -4.07848,-3.0164 -4.08748,-3.01479 -15.50423,2.78522 -6.28286,3.19184 -12.30625,5.50907 -13.3853,5.14939 -1.07904,-0.35969 3.27943,-3.06987 9.68553,-6.02263 9.81006,-4.52175 11.24625,-5.66202 9.10416,-7.22836 -4.29249,-3.13876 -2.96859,-4.67198 8.94495,-10.35919 6.31853,-3.01629 19.98155,-10.00857 30.36227,-15.53839 10.38071,-5.52982 19.59335,-9.81444 20.47252,-9.52139 0.87918,0.29307 -4.36212,3.66384 -11.64731,7.49061 -19.4608,10.22237 -23.98201,13.14158 -22.5208,14.54098 0.72114,0.69064 9.39616,-2.7234 19.27782,-7.58673 9.88167,-4.86335 18.24678,-8.56233 18.58915,-8.21995 0.34236,0.34236 -7.02589,4.52543 -16.3739,9.29571 -20.37154,10.39559 -18.77246,9.28706 -16.5715,11.48802 1.3452,1.34519 4.5655,0.37431 12.6359,-3.80959 5.95684,-3.08817 11.66367,-5.3072 12.68186,-4.93118 1.01817,0.37602 8.43952,-2.62518 16.49186,-6.66931 8.05236,-4.04413 15.04374,-6.94987 15.53641,-6.45719 1.11486,1.11485 2.53391,0.30084 -16.75732,9.61245 l -16.3258,7.88025 0,6.03637 c 0,3.32002 0.49738,6.03639 1.10529,6.03639 0.60791,0 8.43807,-2.86697 17.40034,-6.37104 8.96228,-3.50408 17.60336,-6.34973 19.20241,-6.32369 1.59905,0.0261 -5.33518,3.2947 -15.40939,7.26366 -10.07421,3.96896 -18.92071,7.81279 -19.65887,8.54183 -1.22415,1.209 -0.26416,3.83425 3.37998,9.24324 1.42007,2.10781 16.92721,-3.9321 41.95093,-16.33956 6.46682,-3.20642 15.69993,-7.5047 20.51803,-9.5517 4.8181,-2.04701 17.71946,-7.98672 28.66969,-13.19933 10.95024,-5.21263 23.8516,-11.1489 28.6697,-13.19171 17.09168,-7.24665 45.83103,-23.82992 46.6366,-26.9104 0.43489,-1.66303 -0.40287,-4.32731 -1.86172,-5.92058 -1.45884,-1.59327 -2.81651,-5.01544 -3.01705,-7.60479 -0.20055,-2.58937 -0.94725,-5.29057 -1.65932,-6.00264 -0.7121,-0.71209 -6.62103,1.14309 -13.131,4.12262 -18.77653,8.59381 -21.49426,8.23725 -3.47429,-0.45581 l 16.3258,-7.87578 0,-6.64729 c 0,-5.71325 -0.39167,-6.48341 -2.78733,-5.48098 -1.53303,0.64149 -5.29593,1.67731 -8.36199,2.30181 -3.06607,0.62451 -13.27965,4.78531 -22.69685,9.2462 -9.41719,4.46091 -17.12218,7.5228 -17.12218,6.8042 0,-2.78095 43.72038,-22.29434 47.64923,-21.26691 2.4156,0.63169 3.31912,0.12057 3.31912,-1.87736 0,-1.53346 -0.87885,-2.41502 -1.99095,-1.9971 -1.09502,0.41153 -3.7828,1.21206 -5.97285,1.77897 -3.06799,0.79419 -2.79381,0.41247 1.19457,-1.66316 3.0097,-1.56629 5.17647,-3.9298 5.17647,-5.64649 0,-2.56221 -0.47383,-2.70177 -3.58371,-1.05549 -1.97104,1.0434 -5.73394,3.49907 -8.36199,5.45705 -7.18761,5.35499 -39.02265,21.87753 -39.02265,20.25294 0,-0.77881 7.89584,-5.5997 17.54634,-10.71311 9.65047,-5.11342 17.25355,-9.58989 16.89572,-9.94772 -0.35783,-0.35783 -5.49984,1.54815 -11.42666,4.2355 -5.92682,2.68736 -11.09076,4.57138 -11.47541,4.18675 -1.05108,-1.0511 9.85861,-6.21215 25.4917,-12.05937 12.12751,-4.53604 13.93666,-5.70216 13.93666,-8.98317 0,-2.07376 -0.17918,-3.76271 -0.39819,-3.75323 -4.13355,0.17898 -37.92649,13.31577 -49.52591,19.25288 -3.48604,1.78431 -5.85671,2.33472 -5.50447,1.27798 0.34029,-1.02088 10.49562,-6.08022 22.5674,-11.24299 12.07177,-5.16276 23.65573,-10.50534 25.74212,-11.87241 2.08639,-1.36705 4.65246,-1.95465 5.70234,-1.30579 1.20769,0.7464 1.49143,0.5043 0.77243,-0.65909 -0.62507,-1.01137 -0.37744,-1.83886 0.55028,-1.83886 0.92772,0 1.68676,-0.79916 1.68676,-1.77594 0,-1.06804 -1.64229,-0.69988 -4.12009,0.92364 -2.26605,1.48477 -4.41589,2.4038 -4.77744,2.04226 -0.36154,-0.36155 1.98258,-2.38985 5.20915,-4.50736 3.22656,-2.11751 6.14772,-4.92513 6.49145,-6.23916 0.51413,-1.96542 0.35256,-1.99984 -0.91098,-0.19413 -0.84477,1.20725 -2.31936,1.71082 -3.27686,1.11904 -0.95752,-0.59177 -9.88745,2.18338 -19.84429,6.167 -9.95684,3.98361 -18.93995,7.24294 -19.96247,7.24294 -2.30071,0 -21.10949,7.73209 -50.39222,20.71572 -12.26426,5.43782 -30.89956,13.4442 -41.41178,17.79195 -22.99812,9.51177 -44.11735,20.61905 -64.50682,33.92624 -8.32218,5.43145 -18.35657,11.86939 -22.29865,14.30654 -3.94209,2.43715 -9.09048,6.2247 -11.44087,8.41677 l -4.27344,3.98558 -5.76546,-3.56324 c -6.04276,-3.73463 -17.26531,-17.68772 -19.98966,-24.85333 -1.36694,-3.59529 -1.21964,-4.05003 1.03193,-3.18602 1.50642,0.57806 5.54555,-0.70284 9.47171,-3.00372 3.76487,-2.20636 7.78154,-4.01158 8.92591,-4.01158 1.90658,0 -3.71066,3.66803 -12.60267,8.22951 -4.23514,2.17256 -4.4518,3.40209 -1.09098,6.19132 2.08648,1.73161 3.93442,1.3617 11.33904,-2.26986 11.50187,-5.64105 12.45923,-4.66952 1.20499,1.22284 -4.76615,2.49539 -8.66572,5.37511 -8.66572,6.39935 0,1.02422 3.13684,4.94082 6.97078,8.70354 l 6.97076,6.84129 8.16161,-5.86352 c 4.48888,-3.22495 7.79103,-6.46314 7.33809,-7.196 -0.45293,-0.73285 0.0159,-1.85111 1.04133,-2.48499 1.16466,-0.71981 1.43814,-0.46213 0.72836,0.68632 -2.22912,3.6068 1.85746,1.70979 15.88425,-7.37355 7.82436,-5.06681 16.6214,-10.70002 19.54899,-12.51824 l 5.32287,-3.30584 -12.49029,-7.24891 C 246.05694,287.46652 214.72819,260.01199 185.4119,229.753 155.29245,198.66503 146.865,190.23289 125.73625,170.04411 115.75808,160.50986 105.55156,149.92351 103.05508,146.5189 100.55859,143.11429 92.237456,133.82498 84.563676,125.87597 63.586221,104.1461 50.772428,89.546676 48.002983,84.220388 46.636505,81.592332 45.335586,79.227799 45.112058,78.965869 44.0925,77.771124 16.565195,95.241577 9.6945664,101.44392 c -3.973811,3.58729 -6.802698,2.57516 -3.597346,-1.28707 C 11.743844,93.353104 49.657543,72.05961 104.05936,45.138319 137.34807,28.665062 169.24311,13.432406 174.93723,11.287944 180.63135,9.1434989 188.81419,5.7264374 193.12132,3.6944727 L 200.95248,0 211.43807,3.634983 c 5.76709,1.9992495 12.74492,5.3426936 15.50633,7.429895 2.76138,2.087202 12.07903,7.507208 20.70589,12.044443 8.62684,4.53725 18.91051,10.392494 22.8526,13.011662 36.80165,24.451508 48.38893,32.888538 65.41096,47.627565 4.75884,4.120584 18.68681,15.472287 30.95107,25.226022 28.23008,22.45131 53.5351,45.07192 85.45085,76.38614 22.19447,21.77616 25.04658,25.15742 24.18303,28.6697 -1.29385,5.26245 -4.53243,8.84882 -10.05719,11.13725 -3.45001,1.42906 -5.35569,4.10947 -8.0569,11.33243 -3.2263,8.62706 -3.44603,11.21157 -2.49374,29.33192 1.4343,27.29221 1.84316,28.88811 7.701,30.05967 2.64631,0.52926 7.05128,0.97327 9.78884,0.98668 7.67585,0.0376 9.95675,2.09418 7.73373,6.97314 -3.56044,7.81436 -39.7821,28.46595 -91.15458,51.97134 -21.46246,9.82011 -48.90466,22.43008 -60.98266,28.02215 -12.078,5.59207 -22.64995,10.1674 -23.49323,10.1674 -2.62541,0 -1.67872,-2.76936 1.25413,-3.66873 2.3461,-0.71944 52.82989,-23.61676 76.85071,-34.85625 3.94209,-1.84453 17.05602,-7.88243 29.14208,-13.41756 12.08606,-5.53513 23.91231,-11.42802 26.28056,-13.09529 2.36824,-1.66728 10.75658,-6.66008 18.64075,-11.09512 14.16925,-7.97054 21.50227,-13.48014 21.50227,-16.1555 0,-1.25395 -15.88768,-3.28501 -17.34915,-2.21789 -0.34384,0.25105 0.20913,1.46172 1.2288,2.69036 2.89489,3.48812 -0.41867,9.92571 -7.36647,14.31166 -11.50416,7.26228 -67.19253,33.97507 -135.78927,65.13591 -11.82625,5.37221 -21.79652,9.99005 -22.15617,10.26189 -0.35963,0.27182 0.71549,2.03334 2.38914,3.91447 3.88188,4.36306 14.49503,9.26112 20.16522,9.3064 2.40905,0.0193 4.38009,0.64064 4.38009,1.38088 0,2.48792 -5.79367,6.6179 -9.28379,6.6179 -6.66045,0 -3.38247,2.89703 4.50551,3.98191 4.38009,0.60241 7.9638,1.78136 7.9638,2.61986 0,2.16317 -10.32996,6.20652 -16.44355,6.43635 -7.22137,0.27149 -20.36584,-4.39417 -28.03876,-9.9524 l -6.48604,-4.69845 0,9.39218 c 0,22.0048 -15.70814,64.44712 -27.22951,73.57219 -6.4483,5.10717 -7.17929,5.37576 -8.55822,3.1446 z m 21.16183,-29.91251 c 5.31247,-12.48409 9.82025,-29.30212 9.72075,-36.26698 -0.0376,-2.62805 0.41433,-7.10056 1.00414,-9.9389 1.53988,-7.41036 -3.67059,-36.3577 -8.31841,-46.21377 -5.29587,-11.23032 -8.11284,-12.55906 -17.66377,-8.33183 l -7.54669,3.34018 3.9819,3.06162 c 2.19005,1.68388 3.31941,3.07755 2.5097,3.09703 -0.80973,0.0194 -0.003,1.64809 1.7919,3.61913 5.88737,6.46379 7.35962,11.3155 8.10013,26.69348 0.79303,16.46901 -3.21537,37.49501 -9.51549,49.9134 -3.85053,7.58991 -3.08311,8.63874 2.52083,3.44518 2.3725,-2.19875 4.73609,-3.99772 5.25245,-3.99772 1.2065,0 -0.43406,25.26205 -1.91358,29.46608 -2.36996,6.73424 5.67954,-7.55499 10.07614,-17.8869 z m -5.80927,-38.65612 c 0.0258,-1.31402 0.62067,-4.18099 1.32204,-6.37104 1.02515,-3.20102 1.2844,-3.35721 1.32204,-0.79638 0.0258,1.75204 -0.56916,4.61901 -1.32204,6.37104 -0.83864,1.95163 -1.35073,2.2601 -1.32204,0.79638 z m 4.81807,-3.9819 c 0.0325,-2.62805 0.38943,-3.51035 0.79326,-1.96064 0.40383,1.54971 0.37727,3.69994 -0.0591,4.77828 -0.43631,1.07835 -0.76671,-0.18958 -0.73425,-2.81764 z m 6.53782,-3.9819 c 0,-4.8181 0.29859,-6.78915 0.66353,-4.38009 0.36495,2.40905 0.36495,6.35113 0,8.76018 -0.36494,2.40905 -0.66353,0.43801 -0.66353,-4.38009 z m -4.80002,-8.76019 c 0.0127,-4.38009 0.32129,-5.9829 0.68738,-3.56181 0.36612,2.42109 0.35632,6.00481 -0.0217,7.96381 -0.37806,1.959 -0.67759,-0.022 -0.66564,-4.402 z M 259.83089,409.94 c 0,-4.8181 0.2986,-6.78914 0.66353,-4.38009 0.36495,2.40905 0.36495,6.35113 0,8.76018 -0.36493,2.40906 -0.66353,0.43801 -0.66353,-4.38009 z m -0.50923,-35.87562 c -1.10812,-1.33519 -1.61232,-2.83006 -1.12045,-3.32192 0.49186,-0.49188 1.69434,0.60056 2.67215,2.42762 2.08627,3.89824 1.31179,4.34461 -1.5517,0.8943 z m -14.3029,-2.35064 c -2.05895,-1.33059 -2.0169,-1.54735 0.30419,-1.56838 1.48133,-0.0127 3.1363,0.69236 3.67771,1.56838 1.24583,2.0158 -0.86268,2.0158 -3.9819,0 z m 7.07366,-0.74573 c -1.70047,-1.28616 -2.28359,-2.36127 -1.29582,-2.38914 0.98775,-0.0279 2.68818,1.02446 3.77873,2.33849 2.51782,3.03379 1.48891,3.05479 -2.48291,0.0506 z m 64.60058,50.12132 c 1.93785,-1.25234 1.72241,-1.5486 -1.14053,-1.56838 -4.17767,-0.0288 -14.78708,-4.82911 -14.78708,-6.69042 0,-0.71378 2.32942,-1.36922 5.17648,-1.45653 2.84706,-0.0873 6.9305,-0.64827 9.0743,-1.24653 3.61468,-1.00876 3.43096,-1.22765 -2.5292,-3.01336 -3.53487,-1.05908 -9.2032,-4.61941 -12.59629,-7.91185 -3.39309,-3.29243 -5.54458,-4.91113 -4.78105,-3.59711 0.82955,1.42769 0.80471,1.85501 -0.0618,1.06185 -0.79747,-0.73003 -1.4627,-1.80514 -1.47829,-2.38914 -0.0159,-0.58402 -1.69811,-4.47856 -3.73891,-8.65454 -2.04081,-4.17598 -4.09346,-10.44748 -4.56146,-13.93666 -0.46799,-3.48918 -1.16122,-6.34396 -1.54049,-6.34396 -0.37927,0 -4.26373,1.53755 -8.63213,3.41679 -6.1154,2.63078 -7.6854,4.00479 -6.8248,5.97285 0.61476,1.40583 2.26419,6.85652 3.66537,12.11263 1.4012,5.25611 3.09341,9.79822 3.76046,10.09356 0.66705,0.29536 1.9609,2.08722 2.87521,3.98191 1.60903,3.33438 1.5829,3.34572 -0.81464,0.35314 -2.3533,-2.93743 -2.47693,-2.945 -2.47693,-0.15163 0,1.6171 2.82998,5.63229 6.28887,8.92263 9.90255,9.42013 28.55886,15.28676 35.12291,11.04475 z m -27.94937,-21.73485 c -2.14822,-2.31798 -3.90585,-4.94603 -3.90585,-5.84013 0,-0.89409 0.17919,-1.32342 0.39819,-0.95403 0.21901,0.36938 2.50333,2.99743 5.07628,5.84013 2.57294,2.84268 4.15138,5.16851 3.50765,5.16851 -0.64373,0 -2.92805,-1.89652 -5.07627,-4.21448 z m -42.95135,18.21899 c 7.12312,-1.90515 10.50019,-5.58785 3.60657,-3.93297 -1.97104,0.47316 -6.26522,1.3462 -9.54263,1.94006 -3.2774,0.59387 -5.56451,1.71793 -5.08246,2.49789 1.14482,1.85238 2.42372,1.79377 11.01852,-0.50498 z m -76.38542,-58.2056 c 0.0435,-13.70643 0.2066,-14.28331 9.95476,-35.21775 9.47968,-20.35785 11.62992,-27.29614 8.45933,-27.29614 -4.3214,0 -18.1756,23.98565 -14.55188,25.19356 0.91751,0.30584 1.61162,1.75065 1.54246,3.21067 -0.0784,1.65543 -0.42812,1.90523 -0.9291,0.66365 -1.40541,-3.48297 -4.12325,-2.13984 -3.3936,1.67708 0.38565,2.01743 -0.22299,4.53136 -1.35255,5.58653 -1.12955,1.05516 -1.64322,2.98825 -1.14148,4.29576 0.50174,1.30751 0.17821,2.37729 -0.71894,2.37729 -0.89715,0 -2.40731,3.61899 -3.35593,8.0422 -2.13191,9.94079 -2.15224,11.52313 -0.13204,10.27455 0.87602,-0.54141 1.59276,0.5337 1.59276,2.38914 0,1.85544 -0.68648,2.94925 -1.52551,2.43072 -0.83902,-0.51856 -0.65606,0.69344 0.4066,2.69332 2.29257,4.31457 4.37361,7.61881 4.79663,7.61608 0.1673,-10e-4 0.32409,-6.27258 0.34843,-13.93666 z m 6.26131,-38.72845 c -0.57743,-0.93429 -0.70827,-2.04032 -0.29076,-2.45783 0.41749,-0.41751 1.18351,0.34692 1.70226,1.69872 1.07699,2.80662 0.15912,3.3003 -1.4115,0.75911 z m -44.20318,-7.71597 c 0.18958,-12.30408 4.71787,-23.68762 16.35488,-41.11419 6.91582,-10.3565 8.67587,-16.74745 4.81876,-17.4974 -3.81107,-0.741 -19.47442,23.81972 -17.86519,28.01329 0.54114,1.41016 0.20793,1.89014 -0.85576,1.23274 -1.07255,-0.66287 -3.01271,2.31994 -5.04896,7.76226 -3.84622,10.27993 -4.01905,11.85991 -1.31608,12.03062 1.59276,0.10066 1.59276,0.28641 0,0.9291 -2.7767,1.12043 -2.49387,10.95678 0.39819,13.84884 1.31402,1.31402 2.38914,3.15709 2.38914,4.09567 0,0.9386 0.21498,1.70653 0.4777,1.70653 0.26273,0 0.55401,-4.95336 0.64732,-11.00746 z m 160.97377,-19.06393 c 6.76969,-3.39898 25.2099,-11.55739 40.97823,-18.12979 15.76833,-6.5724 38.42185,-16.27902 50.34115,-21.57028 11.9193,-5.29127 24.79233,-10.46083 28.60674,-11.48795 10.81067,-2.91101 54.52146,-20.7165 57.63136,-23.47601 5.73281,-5.08689 3.43262,-8.5462 -23.09503,-34.73305 -35.77599,-35.31638 -58.17493,-55.0576 -92.05106,-81.12892 C 345.74402,96.325371 335.0461,87.681043 331.07699,84.123898 312.64564,67.605598 273.59944,40.791117 249.03736,27.784233 240.29735,23.155957 230.07584,17.256561 226.3229,14.674457 222.56997,12.092368 216.81952,8.8434546 213.54413,7.4546627 206.11666,4.3053124 197.00898,2.1301744 198.00625,3.7438164 c 0.41134,0.6655351 -6.22358,3.9166947 -14.74426,7.2248116 -25.31463,9.828274 -134.152835,64.207506 -134.152835,67.027266 0,3.744151 3.157426,8.819006 4.839955,7.77914 0.82204,-0.508043 1.117178,0.05989 0.655883,1.26196 -0.467539,1.218399 2.412746,5.660545 6.508308,10.037484 4.040866,4.318502 7.831032,8.637402 8.422583,9.597582 0.591551,0.96017 3.590848,3.92912 6.665099,6.59768 l 5.589543,4.85192 11.93083,-7.18654 c 6.561954,-3.9526 14.260234,-8.59268 17.107294,-10.3113 2.84706,-1.718622 5.17647,-2.482319 5.17647,-1.697104 0,0.785215 -2.64462,2.688804 -5.87696,4.230204 -3.23231,1.54138 -10.836444,6.01079 -16.898034,9.93202 -10.66517,6.89926 -10.9315,7.22848 -8.24714,10.19466 2.72203,3.00782 2.96365,2.95905 12.91613,-2.60669 5.578224,-3.11951 10.142194,-5.30438 10.142194,-4.85527 0,0.44912 -3.94208,3.07199 -8.760184,5.82863 -4.8181,2.75664 -8.76019,5.37382 -8.76019,5.81594 0,2.90615 36.956414,41.56779 59.908514,62.67278 5.23979,4.81811 18.38575,18.25703 29.21327,29.86427 10.82753,11.60725 20.71746,21.10408 21.97765,21.10408 1.26018,0 4.19374,-1.31597 6.51901,-2.92435 2.32528,-1.60841 5.30289,-3.50542 6.61692,-4.21558 4.07384,-2.20169 -0.28555,1.57725 -6.77606,5.87383 l -5.97971,3.95844 17.12903,15.30921 c 19.32137,17.26866 38.68504,32.9668 40.66457,32.9668 0.72669,0 3.95819,1.79186 7.18114,3.98191 7.84456,5.3305 11.01382,5.05693 25.46349,-2.19808 z m -9.19374,-4.51393 c 1.31403,-0.48723 3.82263,-1.5453 5.57467,-2.35127 3.13455,-1.44195 3.13605,-1.42577 0.0938,1.0116 -1.70046,1.36237 -4.20906,2.42042 -5.57466,2.35126 -2.14482,-0.10862 -2.15757,-0.24636 -0.0938,-1.01159 z m -14.33485,-0.99256 c 0,-0.40753 2.3913,-2.15187 5.314,-3.8763 2.9227,-1.72444 7.40234,-4.38889 9.95475,-5.921 l 4.64077,-2.78567 -3.98191,3.29523 c -4.5513,3.76645 -15.92761,10.40022 -15.92761,9.28774 z m 30.26246,-6.62076 c 0,-1.0721 16.12231,-9.10592 16.83786,-8.39038 0.32642,0.32642 -3.32857,2.51704 -8.12219,4.86805 -4.79362,2.35102 -8.71567,3.93607 -8.71567,3.52233 z m -35.04074,-8.94335 c 3.06607,-1.84099 7.90408,-4.76374 10.75114,-6.49499 2.84706,-1.73127 5.17647,-2.78281 5.17647,-2.33677 0,1.07968 -18.34783,12.19258 -20.11786,12.18497 -0.76142,-0.003 1.12419,-1.51222 4.19025,-3.35321 z m -19.11313,-1.32511 c 0,-0.82432 0.82749,-2.01018 1.83886,-2.63524 1.1393,-0.70413 1.4065,-0.43693 0.70237,0.70237 -1.52462,2.46689 -0.12009,2.31597 5.50167,-0.59118 2.58456,-1.33652 4.69919,-2.07167 4.69919,-1.63367 0,1.07313 -8.97003,5.65647 -11.07023,5.65647 -0.91952,0 -1.67186,-0.67444 -1.67186,-1.49875 z m 49.37559,0.81445 c 0,-0.43801 1.43348,-1.56356 3.18552,-2.50122 1.75204,-0.93766 3.18552,-1.34647 3.18552,-0.90846 0,0.43801 -1.43348,1.56356 -3.18552,2.50122 -1.75204,0.93766 -3.18552,1.34647 -3.18552,0.90846 z m 7.9638,-4.77828 c 0,-0.43801 1.43349,-1.56356 3.18553,-2.50122 1.75203,-0.93766 3.18552,-1.34648 3.18552,-0.90847 0,0.43801 -1.43349,1.56357 -3.18552,2.50123 -1.75204,0.93766 -3.18553,1.34647 -3.18553,0.90846 z m 23.89142,0.0583 c 0,-0.34429 1.11233,-1.05282 2.47187,-1.57453 1.41743,-0.54391 2.05676,-0.2769 1.49875,0.62597 -0.93536,1.51349 -3.97062,2.23858 -3.97062,0.94859 z m 9.55656,-4.94866 c 2.19005,-1.25195 4.69865,-2.27627 5.57467,-2.27627 0.87601,0 -0.1991,1.02432 -2.38915,2.27627 -2.19004,1.25194 -4.69864,2.27626 -5.57466,2.27626 -0.87602,0 0.1991,-1.02432 2.38914,-2.27626 z m -22.29865,-1.48068 c 0,-0.43801 1.43348,-1.56357 3.18552,-2.50123 1.75204,-0.93765 3.18552,-1.34647 3.18552,-0.90846 0,0.43801 -1.43348,1.56357 -3.18552,2.50122 -1.75204,0.93766 -3.18552,1.34648 -3.18552,0.90847 z m -44.59731,-1.59276 c 0,-0.43801 1.43349,-1.56357 3.18553,-2.50123 1.75203,-0.93766 3.18552,-1.34647 3.18552,-0.90846 0,0.43801 -1.43349,1.56357 -3.18552,2.50122 -1.75204,0.93766 -3.18553,1.34648 -3.18553,0.90847 z m 76.45253,-0.90847 c 1.31403,-0.84919 3.10588,-1.54397 3.9819,-1.54397 0.87602,0 0.51765,0.69478 -0.79638,1.54397 -1.31403,0.8492 -3.10588,1.54398 -3.9819,1.54398 -0.87602,0 -0.51765,-0.69478 0.79638,-1.54398 z m -103.9542,-1.7904 c 1.08043,-1.08853 2.36563,-1.5779 2.85602,-1.08751 0.4904,0.4904 -0.39358,1.381 -1.9644,1.97913 -2.27,0.86436 -2.45294,0.68142 -0.89162,-0.89162 z m 48.20757,1.07583 c 0,-0.43801 2.15022,-1.90831 4.77828,-3.26733 2.62805,-1.35902 4.77828,-2.11257 4.77828,-1.67456 0,0.43801 -2.15023,1.9083 -4.77828,3.26732 -2.62806,1.35903 -4.77828,2.11258 -4.77828,1.67457 z m -12.74209,-3.07231 c 0,-0.33074 1.2543,-1.58504 2.78733,-2.78733 2.52621,-1.98119 2.58255,-1.92485 0.60136,0.60136 -2.08073,2.65314 -3.38869,3.49687 -3.38869,2.18597 z m 50.96835,-1.78778 c 2.19004,-1.25194 4.69864,-2.27626 5.57466,-2.27626 0.87602,0 -0.19909,1.02432 -2.38914,2.27626 -2.19005,1.25194 -4.69864,2.27626 -5.57466,2.27626 -0.87602,0 0.19909,-1.02432 2.38914,-2.27626 z m -101.80398,0.21431 c 2.20524,-1.93417 14.20213,-8.87619 14.20213,-8.21808 0,0.97457 -12.24709,8.80015 -13.77227,8.80015 -0.60143,0 -0.79485,-0.26193 -0.42986,-0.58207 z m 110.56416,-2.60345 c -0.54141,-0.87602 0.17533,-1.59276 1.59276,-1.59276 1.41743,0 2.13418,0.71674 1.59277,1.59276 -0.54142,0.87602 -1.25816,1.59276 -1.59277,1.59276 -0.3346,0 -1.05135,-0.71674 -1.59276,-1.59276 z m -120.25345,-5.23467 c 0,-0.36312 3.71426,-2.96912 8.25388,-5.79111 4.53964,-2.822 7.44743,-4.15916 6.46174,-2.97148 -1.87741,2.26213 -14.71562,9.90679 -14.71562,8.76259 z m 17.52037,-11.2501 c 0,-0.36808 1.88011,-1.90112 4.17801,-3.40678 2.2979,-1.50563 3.69147,-1.9503 3.09682,-0.98811 -1.13637,1.83866 -7.27483,5.54706 -7.27483,4.39489 z m -15.92761,-1.61506 c 0,-0.43801 2.15023,-2.32749 4.77829,-4.19882 2.62805,-1.87134 4.77828,-3.04407 4.77828,-2.60606 0,0.43801 -2.15023,2.32748 -4.77828,4.19882 -2.62806,1.87133 -4.77829,3.04407 -4.77829,2.60606 z m -21.76922,-7.87621 c 1.60524,-1.04349 6.98081,-4.81518 11.94571,-8.38152 12.04626,-8.6529 17.78732,-12.35423 17.78732,-11.46772 0,1.16388 -29.76278,21.94398 -31.28114,21.84019 -0.75376,-0.0514 -0.0572,-0.94743 1.54811,-1.99095 z m 36.79305,-2.51989 c 1.13637,-1.83866 7.27483,-5.54706 7.27483,-4.39489 0,0.36807 -1.88011,1.90112 -4.17801,3.40678 -2.2979,1.50563 -3.69147,1.9503 -3.09682,0.98811 z m 20.01691,-0.85807 c 0,-0.438 1.43349,-1.56356 3.18553,-2.50122 1.75203,-0.93766 3.18552,-1.34647 3.18552,-0.90846 0,0.43801 -1.43349,1.56356 -3.18552,2.50122 -1.75204,0.93766 -3.18553,1.34647 -3.18553,0.90846 z m -66.89595,-11.02635 c 0,-0.81485 21.59291,-17.17005 25.48417,-19.30259 3.70371,-2.02973 0.37258,0.86932 -11.14933,9.70317 -11.46515,8.79032 -14.33484,10.71203 -14.33484,9.59942 z m -19.82988,-8.75319 c 4.22031,-3.76729 28.27385,-19.71629 26.20092,-17.37283 -1.60992,1.82 -25.71084,18.72354 -26.69588,18.72354 -0.55999,0 -0.33726,-0.60781 0.49496,-1.35071 z m 66.01994,-0.95663 c 0,-0.43801 2.15023,-1.9083 4.77829,-3.26732 2.62805,-1.35903 4.77828,-2.11258 4.77828,-1.67457 0,0.43801 -2.15023,1.90831 -4.77828,3.26733 -2.62806,1.35902 -4.77829,2.11257 -4.77829,1.67456 z m -12.74208,-14.30457 c 0,-0.43801 1.43348,-1.56356 3.18552,-2.50122 1.75203,-0.93766 3.18552,-1.34647 3.18552,-0.90846 0,0.43801 -1.43349,1.56356 -3.18552,2.50122 -1.75204,0.93766 -3.18552,1.34647 -3.18552,0.90846 z m -58.13578,-2.06436 c 0.87602,-0.83589 4.45973,-3.12966 7.96381,-5.09725 3.50407,-1.96758 4.93755,-2.38603 3.18552,-0.9299 -3.5586,2.9576 -13.64888,8.41225 -11.14933,6.02715 z m 32.6516,-1.12116 c 0,-0.43801 1.43348,-1.56356 3.18552,-2.50122 1.75204,-0.93766 3.18552,-1.34647 3.18552,-0.90847 0,0.43801 -1.43348,1.56357 -3.18552,2.50123 -1.75204,0.93766 -3.18552,1.34647 -3.18552,0.90846 z m -43.00454,-1.47115 c 0,-0.30949 5.01719,-3.89892 11.14932,-7.9765 13.93781,-9.26802 14.59372,-8.41448 0.99231,1.29128 -9.31526,6.64725 -12.14163,8.20345 -12.14163,6.68522 z m 27.87331,-8.22634 c 1.75204,-1.42654 4.61901,-3.29748 6.37105,-4.15763 3.18552,-1.56392 3.18552,-1.56392 0,1.0298 -1.75204,1.42654 -4.61901,3.29747 -6.37105,4.15763 -3.18552,1.56391 -3.18552,1.56391 0,-1.0298 z m 17.42661,-11.03261 c 1.70046,-1.36237 4.20906,-2.42042 5.57466,-2.35127 2.14481,0.10863 2.15757,0.24637 0.0938,1.0116 -1.31403,0.48722 -3.82262,1.5453 -5.57466,2.35126 -3.13455,1.44196 -3.13605,1.42578 -0.0938,-1.01159 z m -61.22753,-0.96198 c 5.52465,-3.75003 8.67087,-4.84131 4.77828,-1.65735 -2.19005,1.79135 -4.69865,3.26196 -5.57466,3.26803 -0.87602,0.006 -0.51765,-0.71873 0.79638,-1.61068 z m 9.55656,-5.58554 c 0,-1.0761 17.67648,-12.23191 18.33622,-11.57217 0.30345,0.30345 -3.69804,3.19949 -8.89225,6.43561 -5.19418,3.23614 -9.44397,5.54759 -9.44397,5.13656 z m -23.75868,-1.33515 c 0.365,-0.34506 4.60573,-2.92354 9.42383,-5.72997 4.8181,-2.80643 11.2165,-6.60308 14.21866,-8.437 3.00216,-1.83392 5.00049,-2.59337 4.44073,-1.68766 -1.08284,1.75207 -25.79221,16.482 -27.64844,16.482 -0.60413,0 -0.79979,-0.28231 -0.43478,-0.62737 z m -14.33485,-14.2881 c 0.365,-0.31935 2.4555,-1.43401 4.64555,-2.47701 3.75456,-1.7881 3.80539,-1.75496 0.89014,0.58064 -2.53725,2.03276 -7.72148,3.80873 -5.53569,1.89637 z m 44.46458,-3.28919 c 0,-0.43801 1.43348,-1.56355 3.18552,-2.50123 1.75203,-0.93766 3.18552,-1.34646 3.18552,-0.90845 0,0.43801 -1.43349,1.56355 -3.18552,2.50121 -1.75204,0.93768 -3.18552,1.34647 -3.18552,0.90847 z m -45.3937,-9.65303 c 3.5586,-2.9576 13.64888,-8.41224 11.14933,-6.02715 -0.87602,0.83591 -4.45973,3.12968 -7.96381,5.09727 -3.50407,1.96758 -4.93755,2.38603 -3.18552,0.92988 z m 13.53847,-7.86735 c 0,-0.438 1.43349,-1.56354 3.18552,-2.50122 1.75204,-0.93766 3.18553,-1.34646 3.18553,-0.90845 0,0.43801 -1.43349,1.56355 -3.18553,2.50121 -1.75203,0.93768 -3.18552,1.34647 -3.18552,0.90846 z M 95.299226,282.51913 c 0,-0.87602 -0.75903,-1.59276 -1.68675,-1.59276 -0.92772,0 -1.24381,0.71674 -0.7024,1.59276 0.54142,0.87602 1.30046,1.59276 1.68677,1.59276 0.38631,0 0.70238,-0.71674 0.70238,-1.59276 z m 0.53946,-10.28037 c 0.53485,-3.90215 4.474404,-14.11573 8.754574,-22.69684 15.38823,-30.85122 17.52596,-39.56047 9.42803,-38.41056 -2.33099,0.33101 -4.64727,2.67346 -6.60193,6.67658 -5.13889,10.5243 -10.475354,27.9527 -9.409464,30.73037 0.66684,1.73775 0.39709,2.26554 -0.7846,1.53521 -1.18127,-0.73006 -2.98582,2.78849 -5.24537,10.22756 -2.93613,9.6666 -3.14075,11.9082 -1.38625,15.18652 2.95762,5.52635 4.14287,4.79219 5.24501,-3.24884 z m -5.31775,-2.55572 c 0,-0.92772 0.71675,-1.24379 1.59276,-0.70238 0.87602,0.54141 1.59277,1.30046 1.59277,1.68677 0,0.3863 -0.71675,0.70237 -1.59277,0.70237 -0.87601,0 -1.59276,-0.75905 -1.59276,-1.68676 z m 3.01373,-24.20968 c 3.84758,-11.59951 8.232174,-23.55305 9.743514,-26.56345 l 2.74789,-5.47344 -8.548554,-10.07696 c -4.7017,-5.54233 -9.43788,-11.501 -10.52484,-13.24149 -2.88812,-4.62465 -3.7514,-3.99865 -6.069119,4.40107 -1.148158,4.16108 -4.128404,12.551 -6.622764,18.64427 -2.494359,6.09326 -4.242637,11.84103 -3.885078,12.77281 0.357559,0.93178 0.043,4.5473 -0.698951,8.03447 l -1.349037,6.34032 0.634397,-7.08465 c 0.420552,-4.69643 0.142552,-6.30717 -0.8247,-4.77828 -2.157968,3.41101 -1.815126,12.1209 0.572183,14.53649 1.144033,1.15761 2.685523,3.53821 3.425535,5.29025 1.094387,2.59107 1.728369,1.55081 3.397439,-5.57467 l 2.05197,-8.76018 -0.861222,8.98613 c -0.473687,4.94237 -0.32392,10.67631 0.332824,12.74209 1.142105,3.59254 1.248214,3.61737 2.439186,0.57043 1.03488,-2.64758 1.264046,-2.36515 1.357096,1.6724 0.100662,4.37106 2.505591,8.70352 4.810581,8.66647 0.48181,-0.008 4.02405,-9.50458 7.87165,-21.10408 z m -9.01523,13.15435 c 0,-3.06606 0.32777,-4.32036 0.7284,-2.78733 0.40062,1.53303 0.40062,4.04163 0,5.57467 -0.40063,1.53303 -0.7284,0.27873 -0.7284,-2.78734 z m -3.244553,-10.35294 c 0.03249,-2.62806 0.389433,-3.51035 0.793263,-1.96064 0.40384,1.54971 0.37727,3.69993 -0.0589,4.77828 -0.43629,1.07835 -0.766704,-0.18959 -0.734244,-2.81764 z m 4.593523,1.46003 c 0.0765,-1.85548 0.45384,-2.23289 0.9623,-0.96229 0.4601,1.14976 0.40351,2.52352 -0.12583,3.05279 -0.52926,0.52926 -0.90571,-0.41147 -0.83655,-2.0905 z m -3.18552,-9.55656 c 0.0764,-1.85549 0.45384,-2.23289 0.9623,-0.9623 0.4601,1.14977 0.40351,2.52352 -0.12583,3.0528 -0.52926,0.52926 -0.90571,-0.41148 -0.83655,-2.0905 z m -18.689253,1.65679 c -0.51873,-1.35181 -1.284752,-2.11624 -1.702263,-1.69873 -0.41751,0.41751 -0.286665,1.52354 0.290759,2.45784 1.570542,2.54118 2.488498,2.04751 1.411504,-0.75911 z m 6.33465,-28.11352 c 5.660545,-12.79951 12.486973,-36.98418 11.307123,-40.05885 -1.681002,-4.38062 -5.207614,-2.98365 -8.434197,3.34098 -1.677304,3.28777 -6.062446,14.83067 -9.744782,25.65087 -5.536373,16.26813 -6.512656,20.89013 -5.640715,26.70466 0.57994,3.86735 1.725199,6.617 2.544993,6.11034 0.819794,-0.50667 1.537715,0.017 1.595357,1.16374 0.05766,1.14672 1.085499,-1.5506 2.284083,-5.99406 1.198585,-4.44345 3.938245,-12.05642 6.088138,-16.91768 z m -10.866182,14.64375 c -0.541411,-0.87602 -0.225328,-1.59277 0.702392,-1.59277 0.927719,0 1.68675,0.71675 1.68675,1.59277 0,0.87601 -0.316068,1.59276 -0.702376,1.59276 -0.386308,0 -1.145354,-0.71675 -1.686766,-1.59276 z m 4.107651,-18.44948 c 0.07645,-1.85549 0.453841,-2.23289 0.962298,-0.9623 0.460101,1.14977 0.40351,2.52352 -0.125828,3.0528 -0.529258,0.52926 -0.905707,-0.41147 -0.83655,-2.0905 z m 7.963805,-22.29865 c 0.07645,-1.85549 0.453841,-2.23289 0.962298,-0.9623 0.460101,1.14977 0.40351,2.52354 -0.125828,3.0528 -0.529259,0.52925 -0.905708,-0.41148 -0.83655,-2.0905 z m -37.522915,11.67605 c 0.03138,-9.51984 8.679687,-40.79292 14.486479,-52.38387 1.883806,-3.76025 1.792748,-4.28937 -0.857415,-4.98239 -2.409863,-0.6302 -4.190108,1.80252 -9.507971,12.99274 -6.629357,13.94995 -7.500422,16.89804 -5.348379,18.10157 0.657014,0.36743 0.349069,0.469 -0.68433,0.22571 -1.094959,-0.25779 -2.590212,2.87436 -3.583712,7.50687 -2.456452,11.45399 -2.129235,17.472 1.08252,19.91007 1.724514,1.30909 2.023029,2.13521 0.78289,2.16655 -1.605695,0.0406 -1.608689,0.68436 -0.01593,3.23617 1.094163,1.75204 2.354531,3.18365 2.800822,3.18134 0.446292,-0.002 0.826165,-4.48195 0.844148,-9.95476 z m 5.29139,-9.95057 c -0.05415,-2.57634 -0.310843,-2.42404 -1.342203,0.79638 -0.701373,2.19005 -1.264238,6.4905 -1.250827,9.55657 l 0.02437,5.57466 1.317803,-6.37104 c 0.724801,-3.50408 1.287667,-7.80453 1.250827,-9.55657 z M 225.90563,404.40624 c 0,-1.41037 9.38318,-5.61619 12.2648,-5.49745 1.64918,0.068 0.1609,1.37058 -3.50462,3.06741 -6.70732,3.10494 -8.76018,3.6744 -8.76018,2.43004 z m -0.79638,-8.03952 c 4.38009,-2.06338 9.03892,-3.73592 10.35294,-3.71678 1.31403,0.0191 -1.19457,1.72304 -5.57466,3.78641 -4.38009,2.06338 -9.03892,3.73592 -10.35294,3.71677 -1.31403,-0.0191 1.19457,-1.72303 5.57466,-3.7864 z m -8.76019,-0.53882 c 0,-1.50009 22.12041,-12.08123 23.13513,-11.06652 0.35429,0.35428 -4.70618,3.29157 -11.24549,6.52731 -6.5393,3.23573 -11.88964,5.27838 -11.88964,4.53921 z m -23.43587,-16.94674 c 0.0128,-4.38009 0.3213,-5.9829 0.68739,-3.56181 0.36611,2.42109 0.35632,6.00481 -0.0217,7.96381 -0.37806,1.959 -0.67759,-0.0218 -0.66565,-4.402 z m -6.5751,-2.38914 c 0,-2.19004 0.36152,-3.08597 0.80337,-1.99095 0.44185,1.09502 0.44185,2.88688 0,3.9819 -0.44185,1.09503 -0.80337,0.1991 -0.80337,-1.99095 z m 1.46702,-8.89291 c 0.0765,-1.85548 0.45385,-2.23289 0.96229,-0.9623 0.4601,1.14977 0.40352,2.52353 -0.12567,3.0528 -0.52928,0.52926 -0.90571,-0.41147 -0.83655,-2.0905 z m 38.10052,-2.08737 c 4.26423,-3.43572 50.96835,-27.94157 50.96835,-26.74332 0,0.72781 -39.19254,22.37453 -49.37559,27.271 l -5.57466,2.68055 3.9819,-3.20823 z m -6.37104,-4.92229 c 2.19004,-1.6993 11.86235,-7.23811 21.49403,-12.30847 20.98632,-11.04774 20.65141,-10.8981 19.22456,-8.58943 -0.62512,1.01147 -6.27965,4.42592 -12.56559,7.58764 -6.28596,3.16173 -15.20583,8.16109 -19.82194,11.10967 -8.99918,5.74832 -14.91839,7.31184 -8.33106,2.20059 z m -44.59731,-4.70932 c 0,-1.70033 0.6132,-3.47051 1.36267,-3.9337 0.74947,-0.46321 1.02429,0.92799 0.61071,3.09152 -0.89835,4.69937 -1.97338,5.15817 -1.97338,0.84218 z m 54.15387,-8.46858 c 0,-1.29472 27.21195,-17.50549 28.02334,-16.69412 0.42367,0.42367 -4.51449,4.06418 -10.97369,8.09003 -11.78937,7.34798 -17.04965,10.00258 -17.04965,8.60409 z m -71.67424,-9.84817 c 0,-2.13834 0.58706,-4.25072 1.30457,-4.69416 0.7175,-0.44345 0.99452,1.30611 0.6156,3.88789 -0.83547,5.69236 -1.92017,6.14782 -1.92017,0.80627 z m 62.85574,-5.57432 c 0.54932,-0.8888 -1.35644,-1.12801 -4.68427,-0.58797 -6.73057,1.09222 -7.19761,-0.0701 -1.23027,-3.06167 2.40905,-1.20771 6.53032,-3.48835 9.15838,-5.06807 l 4.77828,-2.87224 -3.58371,3.21578 c -5.01473,4.49989 -4.6489,7.274 0.79638,6.03892 4.16056,-0.94369 4.22513,-0.87251 1.28834,1.42009 -3.39727,2.65208 -7.99527,3.29715 -6.52313,0.91516 z M 389.96,327.98763 c 0,-0.42639 12.543,-7.10929 27.87332,-14.85092 15.33032,-7.74163 27.87332,-13.62542 27.87332,-13.0751 0,0.85881 -11.62773,6.88244 -48.18102,24.95971 -4.16109,2.05784 -7.56562,3.39269 -7.56562,2.96631 z M 208.4228,325.9487 c 0.0382,-1.24186 15.89007,-8.74156 15.89007,-7.51777 0,0.36742 -3.58371,2.48404 -7.96381,4.7036 -4.38009,2.21956 -7.9469,3.48593 -7.92626,2.81417 z m -68.52626,-5.90569 c 0,-3.01436 0.55074,-5.82104 1.22388,-6.23707 0.67314,-0.41602 0.95623,2.05028 0.62909,5.48067 -0.73447,7.70165 -1.85297,8.15825 -1.85297,0.7564 z m 246.87794,3.89553 c 0,-0.76215 1.32899,-1.80753 2.95328,-2.32306 1.62432,-0.51554 15.70536,-7.74615 31.29123,-16.06802 15.58585,-8.32188 28.65391,-14.8147 29.04012,-14.42849 1.05487,1.05487 -4.08803,3.9572 -35.01312,19.75922 -15.54933,7.94534 -28.27151,13.8225 -28.27151,13.06035 z m 27.70603,-1.32972 c 0.63343,-1.02489 2.05732,-1.86343 3.16423,-1.86343 1.1069,0 8.76958,-3.24273 17.02817,-7.20606 8.2586,-3.96335 13.22377,-5.76832 11.03373,-4.01104 -2.19005,1.75728 -9.23209,5.40152 -15.64899,8.09831 -16.88526,7.09631 -16.88333,7.09571 -15.57714,4.98222 z M 206.4328,314.36839 c 6.76215,-4.12288 8.97593,-4.11808 2.74884,0.006 -2.62806,1.74049 -5.49503,3.16657 -6.37104,3.16907 -0.87602,0.003 0.75398,-1.42625 3.6222,-3.17503 z m -69.47029,-4.77233 c 0,-2.19004 0.36151,-3.08597 0.80336,-1.99095 0.44186,1.09503 0.44186,2.88688 0,3.9819 -0.44185,1.09503 -0.80336,0.1991 -0.80336,-1.99095 z m 55.49514,0.87819 c 0,-0.43801 2.15023,-1.9083 4.77828,-3.26733 2.62806,-1.35902 4.77828,-2.11257 4.77828,-1.67456 0,0.43801 -2.15022,1.9083 -4.77828,3.26732 -2.62805,1.35903 -4.77828,2.11258 -4.77828,1.67457 z m 222.98653,-8.84199 c 1.31403,-0.8492 3.10588,-1.54398 3.9819,-1.54398 0.87602,0 0.51765,0.69478 -0.79638,1.54398 -1.31403,0.8492 -3.10588,1.54397 -3.9819,1.54397 -0.87602,0 -0.51765,-0.69477 0.79638,-1.54397 z m -3.50009,-7.99719 c 9.46222,-5.76901 37.2639,-19.29485 38.04795,-18.51078 0.87989,0.87987 -0.67664,1.7614 -23.39853,13.25177 -16.78829,8.48975 -24.47375,11.24876 -14.64942,5.25901 z M 169.09252,283.7137 c -4.4688,-4.5991 -8.93598,-9.95004 -9.92709,-11.89098 -1.60237,-3.138 -1.25325,-3.81275 3.15103,-6.09029 2.72418,-1.40873 5.30818,-2.2062 5.74223,-1.77215 0.43404,0.43406 -1.16837,1.81485 -3.56094,3.06844 -2.70634,1.418 -3.67477,2.69663 -2.56286,3.38382 0.98297,0.60752 3.1884,0.35469 4.90095,-0.56185 1.71256,-0.91652 4.05678,-1.63637 5.2094,-1.59964 1.15262,0.0366 -0.33813,1.36339 -3.31275,2.94817 -3.26145,1.73759 -4.70264,3.31761 -3.63049,3.98023 0.97786,0.60435 4.01581,-0.0585 6.75099,-1.47286 2.7352,-1.41442 5.28783,-2.25693 5.67253,-1.87224 0.38468,0.3847 -1.5008,1.6108 -4.18995,2.72468 -5.16424,2.1391 -5.70032,5.94946 -0.70784,5.03117 2.38293,-0.4383 2.57903,-0.11133 1.04314,1.73931 -2.99252,3.60579 -0.42789,4.4522 5.84881,1.9303 5.13889,-2.06473 5.43212,-2.05782 2.67879,0.0631 -1.70046,1.30994 -3.67151,2.38169 -4.38009,2.38169 -0.70859,0 -1.28834,0.71674 -1.28834,1.59276 0,0.87602 1.11742,1.59276 2.48315,1.59276 1.36572,0 2.04016,0.71674 1.49875,1.59276 -1.66069,2.68705 -3.00582,1.88969 -11.41942,-6.76923 z m -68.88926,-5.3092 c 0.0764,-1.85549 0.45384,-2.23289 0.9623,-0.9623 0.4601,1.14977 0.40351,2.52352 -0.12583,3.0528 -0.52926,0.52926 -0.90571,-0.41147 -0.83655,-2.0905 z m 76.32678,0.24481 c 0,-0.43801 1.43348,-1.56357 3.18552,-2.50123 1.75204,-0.93765 3.18552,-1.34647 3.18552,-0.90846 0,0.43801 -1.43348,1.56357 -3.18552,2.50122 -1.75204,0.93766 -3.18552,1.34648 -3.18552,0.90847 z m -68.36298,-5.02309 c 0.0765,-1.85549 0.45384,-2.23289 0.9623,-0.9623 0.4601,1.14977 0.40351,2.52352 -0.12583,3.0528 -0.52926,0.52925 -0.90571,-0.41148 -0.83655,-2.0905 z m -7.22148,-2.65461 c 0.5955,-1.97104 1.73839,-4.2841 2.53975,-5.14011 0.80137,-0.85603 0.65069,0.75664 -0.33483,3.58371 -2.01701,5.78601 -3.880124,7.10114 -2.20492,1.5564 z m 302.55289,-12.99809 c 1.75204,-1.33247 4.1321,-3.23945 5.28905,-4.23772 1.15694,-0.99828 8.50794,-4.59279 16.33558,-7.98782 7.82762,-3.39503 16.01951,-7.34397 18.20418,-8.77541 4.77555,-3.12906 5.40939,-0.23809 0.67486,3.0781 -2.44484,1.71244 -2.75366,2.55551 -1.19457,3.26113 1.15648,0.52342 0.59101,0.58366 -1.25657,0.13396 -2.8894,-0.7034 -12.29174,3.10849 -38.05253,15.42721 -3.18552,1.5233 -3.18552,1.5233 0,-0.89939 z M 139.19392,238.76885 c 1.70047,-1.28615 3.76631,-2.36127 4.59076,-2.38914 0.82444,-0.0279 0.10767,1.00167 -1.59277,2.28784 -1.70046,1.28616 -3.7663,2.36127 -4.59075,2.38914 -0.82444,0.0279 -0.10767,-1.00167 1.59276,-2.28784 z m -5.66843,-2.11636 c 0,-1.24723 9.75356,-5.43563 10.62611,-4.56309 0.26577,0.26577 -2.01637,1.67519 -5.07145,3.13205 -3.05506,1.45686 -5.55466,2.10082 -5.55466,1.43104 z M 49.234904,219.47235 c 0.07645,-1.85549 0.453841,-2.2329 0.962298,-0.9623 0.460101,1.14976 0.40351,2.52352 -0.125669,3.05279 -0.529258,0.52926 -0.905707,-0.41147 -0.83655,-2.09049 z m -1.438263,-6.23832 c -0.0532,-1.75204 0.496352,-6.05249 1.221137,-9.55657 1.107989,-5.35666 1.316975,-5.61024 1.312531,-1.59276 -0.0064,5.57912 -2.385048,16.04734 -2.533668,11.14933 z m 69.801239,-7.7934 c 0,-0.34429 1.11235,-1.05281 2.47187,-1.57452 1.41745,-0.54391 2.05676,-0.2769 1.49876,0.62597 -0.93535,1.51346 -3.97063,2.23854 -3.97063,0.94855 z m -14.20211,-3.16015 c 1.62906,-1.47429 14.20211,-7.34517 14.20211,-6.63157 0,0.90539 -12.02033,7.23217 -13.74048,7.23217 -0.6189,0 -0.82664,-0.27027 -0.46163,-0.6006 z m -59.064898,-4.88006 c 0,-2.13834 0.58706,-4.25073 1.304567,-4.69417 0.717507,-0.44344 0.994536,1.30612 0.615602,3.8879 -0.835467,5.69235 -1.920169,6.14782 -1.920169,0.80627 z m -22.274252,-21.729 c 0.01274,-2.99307 0.680985,-6.4798 1.483498,-7.7483 0.94395,-1.49207 1.139143,0.19497 0.552847,4.77828 -1.125062,8.79515 -2.06863,10.17131 -2.036345,2.97002 z m 52.53671,-12.47807 c 3.833807,-3.12525 6.371044,-4.14529 6.371044,-2.56134 0,0.41552 -2.329413,1.89214 -5.176473,3.28139 l -5.176473,2.52593 3.981902,-3.24598 z m -9.556566,-5.52019 c 0,-0.33584 1.434473,-0.98573 3.18772,-1.44422 1.753248,-0.45848 2.786058,-0.18371 2.295153,0.61061 -0.857304,1.38716 -5.482873,2.09041 -5.482873,0.83361 z m -4.778282,-2.2632 c 0,-0.76623 1.83752,-2.23038 4.083377,-3.25365 2.332391,-1.0627 3.660324,-1.17601 3.096821,-0.26424 -1.44473,2.33762 -7.180198,5.14766 -7.180198,3.51789 z m 9.556565,-5.77429 c 0,-0.43801 1.433485,-1.56356 3.185522,-2.50122 1.752037,-0.93766 3.185522,-1.34647 3.185522,-0.90846 0,0.438 -1.433485,1.56356 -3.185522,2.50122 -1.752037,0.93766 -3.185522,1.34647 -3.185522,0.90846 z m -8.38853,-9.0699 c 1.080418,-1.08852 2.365632,-1.57791 2.856011,-1.08752 0.490396,0.4904 -0.393587,1.38101 -1.964399,1.97914 -2.270003,0.86437 -2.452948,0.68141 -0.891612,-0.89162 z M 12.475654,102.45942 c 5.52465,-3.750036 8.670895,-4.841317 4.778283,-1.65736 -2.190047,1.79137 -4.698645,3.26198 -5.574664,3.26804 -0.876018,0.006 -0.517647,-0.71874 0.796381,-1.61068 z"
     id="path13045"
     inkscape:connector-curvature="0" />
  <path
     style="fill:#0049ff;fill-opacity:0.27722772;stroke:#000000;stroke-width:1.59276092px;stroke-linecap:butt;stroke-linejoin:miter;stroke-opacity:1"
     d="m 123.44335,313.81503 9.89149,13.84807 0,-24.87001 22.3265,-38.7181 -0.28262,-9.60886 -3.9566,-3.39137 -17.52206,26.56569 -10.1741,25.71787 z"
     id="path13576"
     inkscape:connector-curvature="0" />
</svg>
