<?xml version="1.0" encoding="UTF-8" standalone="no"?>
<!-- Created with Inkscape (http://www.inkscape.org/) -->

<svg
   xmlns:dc="http://purl.org/dc/elements/1.1/"
   xmlns:cc="http://creativecommons.org/ns#"
   xmlns:rdf="http://www.w3.org/1999/02/22-rdf-syntax-ns#"
   xmlns:svg="http://www.w3.org/2000/svg"
   xmlns="http://www.w3.org/2000/svg"
   xmlns:sodipodi="http://sodipodi.sourceforge.net/DTD/sodipodi-0.dtd"
   xmlns:inkscape="http://www.inkscape.org/namespaces/inkscape"
   id="svg3037"
   version="1.1"
   inkscape:version="0.48.4 r9939"
   width="339.06671"
   height="495.25967"
   sodipodi:docname="Uniform.svg">
  <metadata
     id="metadata3043">
    <rdf:RDF>
      <cc:Work
         rdf:about="">
        <dc:format>image/svg+xml</dc:format>
        <dc:type
           rdf:resource="http://purl.org/dc/dcmitype/StillImage" />
        <dc:title />
      </cc:Work>
    </rdf:RDF>
  </metadata>
  <defs
     id="defs3041" />
  <sodipodi:namedview
     pagecolor="#ffffff"
     bordercolor="#666666"
     borderopacity="1"
     objecttolerance="10"
     gridtolerance="10"
     guidetolerance="10"
     inkscape:pageopacity="0"
     inkscape:pageshadow="2"
     inkscape:window-width="1280"
     inkscape:window-height="743"
     id="namedview3039"
     showgrid="false"
     inkscape:zoom="0.65816327"
     inkscape:cx="192.07778"
     inkscape:cy="327.51552"
     inkscape:window-x="0"
     inkscape:window-y="22"
     inkscape:window-maximized="0"
     inkscape:current-layer="svg3037"
     fit-margin-top="0"
     fit-margin-left="0"
     fit-margin-right="0"
     fit-margin-bottom="0" />
  <path
     style="fill:#0c23ad;fill-opacity:1;stroke:none"
     d="m 47.881812,54.531109 43.543318,-12.081385 7.55087,0 26.42803,-5.537295 10.06782,-5.285603 7.29916,-11.578 c 6.76096,-7.450895 13.7887,-14.6350043 24.27968,-18.3558795 l 44.4332,7.2812762 c 10.54101,10.0499303 17.55194,21.2765393 25.42124,32.2170273 7.21536,7.047434 18.43385,12.093299 21.64581,21.142423 l 9.56444,3.775437 5.53729,-10.822911 c 11.34937,-1.946851 18.94455,4.365492 28.1899,7.047474 l 0.39914,5.267712 22.25345,2.295804 c 5.73999,0.04307 7.4977,9.046394 9.56444,17.354331 l -0.5034,143.46644 4.02713,2.51695 -3.02035,39.01281 -1.76187,212.431 c 2.78197,3.89388 -3.68212,7.09432 -19.88394,9.56443 -14.42448,1.43061 -25.76813,-5.61111 -38.50941,-8.80934 l -0.75509,-44.29842 c -29.61616,2.3061 -59.23234,-0.28891 -88.8485,-1.51016 l -10.31953,5.2856 C 147.6429,444.40472 122.65393,436.48748 96.74127,432.26499 L 76.163315,418.21322 c -1.233292,21.1622 -12.860866,43.47612 -20.227246,64.20024 -3.200845,4.2604 -14.080667,3.72143 -32.468719,-1.51017 C 12.450629,475.78548 4.0384371,470.66767 1.0664505,465.54986 L 22.712263,251.1053 c 2.76865,-12.0814 3.698336,-38.70407 8.305951,-36.24416 1.64473,-48.48086 -1.374713,-95.21266 7.047475,-146.235082 z"
     id="path3049"
     inkscape:connector-curvature="0"
     sodipodi:nodetypes="cccccccccccccccccccccccccccccccccc" />
  <path
     style="fill:#8c7955;fill-opacity:1;stroke:none"
     d="m 78.181374,69.759985 c -0.222587,-5.600178 3.816579,-6.583463 9.254732,-6.051175 L 91.70752,74.387347 C 86.954671,75.123473 81.621607,81.27493 78.181374,69.759985 z"
     id="path3819"
     inkscape:connector-curvature="0"
     sodipodi:nodetypes="cccc" />
  <path
     style="fill:#8c7955;fill-opacity:1;stroke:none"
     d="m 164.14358,123.86456 c 0.40837,-3.56469 2.50877,-6.34979 8.54284,-5.69522 3.06955,2.75312 6.31625,5.43811 3.38153,10.50057 -3.99841,2.14043 -8.85537,3.74258 -11.92437,-4.80535 z"
     id="path3821"
     inkscape:connector-curvature="0"
     sodipodi:nodetypes="cccc" />
  <path
     style="fill:#8c7955;fill-opacity:1;stroke:none"
     d="m 166.99119,182.77448 c 1.39978,-2.77927 -2.71642,-6.08387 7.65296,-8.00889 4.13827,3.20356 5.32479,6.40711 5.69521,9.61067 -3.46637,2.05766 -5.03332,9.1229 -13.34817,-1.60178 z"
     id="path3823"
     inkscape:connector-curvature="0"
     sodipodi:nodetypes="cccc" />
  <path
     style="fill:#8c7955;fill-opacity:1;stroke:none"
     d="m 171.26261,243.10821 c -1.59949,-6.04489 2.8644,-8.5528 6.76307,-11.39044 3.98269,3.43929 5.26255,7.41913 2.13571,12.28032 -4.67961,5.12899 -7.03843,2.90878 -8.89878,-0.88988 z"
     id="path3825"
     inkscape:connector-curvature="0"
     sodipodi:nodetypes="cccc" />
  <path
     style="fill:#8c7955;fill-opacity:1;stroke:none"
     d="m 171.08464,295.61101 c -4.42267,-4.75341 5.32187,-8.08273 6.05116,-7.47498 3.19695,2.38432 5.62028,5.10019 5.51724,8.89879 -4.00636,3.28115 -8.02413,6.84741 -11.5684,-1.42381 z"
     id="path3827"
     inkscape:connector-curvature="0"
     sodipodi:nodetypes="cccc" />
  <path
     style="fill:#8c7955;fill-opacity:1;stroke:none"
     d="m 88.503958,281.90689 7.297002,-2.49167 1.4238,8.54284 z"
     id="path3829"
     inkscape:connector-curvature="0" />
  <path
     style="fill:#8c7955;fill-opacity:1;stroke:none"
     d="m 267.01348,288.49199 c -1.26575,-2.7356 -0.98092,-5.72557 3.38153,-6.5851 1.51609,1.48093 4.76474,1.80682 3.7375,4.98331 -1.05327,3.06204 -4.17588,3.26444 -7.11903,1.60179 z"
     id="path3831"
     inkscape:connector-curvature="0"
     sodipodi:nodetypes="cccc" />
  <path
     style="fill:#8c7955;fill-opacity:1;stroke:none"
     d="m 270.88402,90.523572 c -1.42006,-6.020191 -0.76355,-10.794431 7.80256,-10.822911 6.30943,1.01924 3.25941,7.642832 4.27882,11.829693 -5.15506,4.928114 -8.93333,3.431214 -12.08138,-1.006782 z"
     id="path3833"
     inkscape:connector-curvature="0"
     sodipodi:nodetypes="cccc" />
  <path
     style="fill:#000000"
     d="m 286.31963,490.40781 c -6.56,-2.63302 -12.10983,-4.92404 -12.33297,-5.09114 -0.48242,-0.36132 -1.15869,-15.34495 -1.40534,-31.13659 l -0.17685,-11.32355 -24.47446,0.55114 c -13.46095,0.30314 -32.99187,-0.13314 -43.40206,-0.96954 -18.03017,-1.44859 -19.17653,-1.39338 -24.17752,1.16432 -5.84429,2.98899 -18.05942,3.61994 -25.9023,1.33795 -7.20324,-2.09589 -33.71985,-6.60447 -38.84327,-6.60447 -8.5653,0 -21.70509,-5.10105 -30.72409,-11.9275 -6.977024,-5.28088 -8.613872,-6.04858 -8.613872,-4.03993 0,4.31977 -6.475482,30.08411 -9.743041,38.76517 -7.95848,21.14361 -11.342914,26.24658 -17.387874,26.21706 -16.765985,-0.0819 -50.5263487,-16.00476 -49.09166863,-23.15384 1.09756193,-5.46922 4.70451773,-39.25293 6.72285373,-62.96807 1.14763,-13.48446 2.918394,-28.1805 3.9350359,-32.65789 2.636778,-11.61263 7.911633,-68.09172 10.564818,-113.12003 0.678742,-11.51904 2.407244,-22.75769 6.216633,-40.42024 0.79066,-3.66597 1.661895,-26.46025 1.950151,-51.02228 0.342763,-29.207 1.160736,-48.47663 2.39085,-56.32329 1.028397,-6.56 2.275647,-16.400014 2.771663,-21.866686 1.443453,-15.908625 4.985406,-25.52533 11.434422,-31.045449 5.710758,-4.888199 12.641676,-7.100233 16.642326,-5.311485 1.97989,0.885243 1.832336,1.116897 -0.983961,1.544729 -10.967231,1.666122 -18.430252,7.729371 -21.190915,17.216372 -0.801196,2.753255 -2.690822,13.653203 -4.199186,24.222102 -2.193176,15.367287 -2.925737,29.435677 -3.657422,70.238457 -0.503226,28.06225 -0.581866,51.32045 -0.174775,51.6849 0.407092,0.36444 4.300687,5.12012 8.65241,10.56817 4.351736,5.44804 10.255358,12.24864 13.119165,15.11245 l 5.206922,5.20692 -1.548466,15.82393 c -0.851661,8.70317 -2.172674,16.99027 -2.935596,18.4158 -1.322988,2.47202 -1.705072,2.36466 -8.262971,-2.32164 -3.781718,-2.70243 -10.48244,-8.0661 -14.890499,-11.91926 l -8.014632,-7.00576 -1.63319,23.44964 c -2.598982,37.31703 -5.435979,65.98956 -8.15536,82.42343 -1.387037,8.38223 -3.464929,25.97498 -4.6175289,39.09499 -1.152613,13.12001 -3.05467,32.07549 -4.226791,42.12327 -1.172134,10.0478 -1.903568,18.44241 -1.625424,18.6547 0.278144,0.21228 6.7675409,1.7418 14.4208819,3.39891 7.653341,1.65711 19.130172,4.95654 25.50406,7.33207 8.226844,3.06613 11.93183,3.89283 12.771007,2.84959 3.938111,-4.89573 12.475476,-30.20348 15.248874,-45.20295 1.078161,-5.83112 2.354367,-11.62582 2.836004,-12.87713 0.589115,-1.53053 -0.761199,-4.27271 -4.126059,-8.37907 l -5.001759,-6.10399 2.317643,-12.0901 c 1.274709,-6.64956 2.838084,-18.38444 3.474166,-26.07753 1.230631,-14.88394 2.557422,-22.58219 6.636196,-38.50461 1.400382,-5.46667 3.488943,-15.84113 4.641264,-23.05437 l 2.095134,-13.11495 -4.705314,-3.87851 c -2.587916,-2.13319 -4.705301,-4.65383 -4.705301,-5.60145 0,-2.55462 5.313022,-14.17758 8.141339,-17.81032 2.262765,-2.90632 2.460692,-6.12715 2.460692,-40.04193 0,-40.83947 -1.739873,-55.26249 -8.645611,-71.66942 -5.005657,-11.89262 -7.212867,-21.59829 -7.236735,-31.82175 -0.0322,-13.78455 2.200492,-11.80748 2.939175,2.60268 0.55829,10.89119 1.395519,14.64819 5.397189,24.21965 8.010152,19.15917 9.876997,32.36259 10.671553,75.47532 0.382853,20.77335 0.730759,37.87257 0.77314,37.99827 0.04241,0.12563 2.313414,0.9563 5.046754,1.84579 9.32158,3.03345 26.85581,11.67464 27.59422,13.59893 0.40513,1.05575 -1.27337,6.01208 -3.72998,11.01407 l -4.46657,9.09452 -6.9755,0.4038 c -3.83651,0.22208 -9.90154,-0.45396 -13.47782,-1.50233 l -6.502327,-1.9061 -0.765122,4.81546 c -0.910012,5.7274 -5.096794,26.61494 -8.668764,43.2478 -1.408785,6.56001 -3.15812,19.026 -3.887407,27.7022 -0.7293,8.67619 -1.897591,17.91984 -2.596212,20.54143 -2.823837,10.59647 -2.253925,13.98192 3.63973,21.6212 12.024506,15.58598 20.475292,19.84446 46.826192,23.59641 10.48417,1.49278 22.64032,3.61359 27.01366,4.71292 10.36157,2.60457 28.23062,2.71281 30.75714,0.18629 1.02287,-1.02287 2.16864,-5.08512 2.54618,-9.02723 2.03876,-21.28814 4.08682,-82.7131 4.37047,-131.07871 0.1774,-30.24892 0.71885,-62.18543 1.20319,-70.97004 0.48435,-8.78459 0.43235,-29.65733 -0.11556,-46.38388 -0.5479,-16.72653 -1.19,-38.31435 -1.42689,-47.97292 -0.40326,-16.44209 -0.63533,-17.78215 -3.6422,-21.03131 -8.73546,-9.43936 -24.2297,-14.522852 -40.63676,-13.33245 -11.22706,0.81455 -18.64823,-0.830142 -21.85037,-4.842532 -3.10159,-3.886376 -2.92647,-7.228719 0.96184,-18.357909 1.82077,-5.211468 3.05964,-9.72625 2.75304,-10.032861 -0.30661,-0.306598 -4.62906,1.805804 -9.60547,4.694221 -4.97639,2.888431 -10.24072,5.633721 -11.6985,6.100661 -1.45778,0.466953 -5.31998,4.418767 -8.58266,8.781834 -6.900627,9.227914 -9.632625,9.894244 -16.357652,3.989597 -3.573467,-3.137552 -5.057341,-6.048392 -7.262457,-14.246479 -3.240935,-12.048969 -4.540055,-21.905664 -3.456302,-26.223659 0.42375,-1.688347 2.452157,-3.766305 4.507573,-4.617688 6.260353,-2.593124 25.804068,-6.427865 26.563058,-5.212038 0.39192,0.627826 3.90071,0.300475 7.79731,-0.727431 3.89661,-1.027907 10.25769,-2.26535 14.13575,-2.749876 4.21986,-0.527239 8.76668,-2.146765 11.32396,-4.033463 2.35013,-1.733869 4.54974,-2.875708 4.88803,-2.537424 1.12988,1.129872 -2.84071,4.821725 -13.03712,12.121925 -10.25849,7.344623 -18.5059,16.806286 -22.05631,25.303602 -3.28249,7.856105 -0.64199,8.055582 12.37618,0.934966 17.83055,-9.752874 21.66974,-11.577669 22.53595,-10.711457 1.1483,1.148293 -2.21851,4.83617 -4.41512,4.83617 -1.02231,0 -2.21905,1.801497 -2.65941,4.00334 -0.44037,2.201843 -1.3222,4.325655 -1.95962,4.719613 -0.63742,0.393945 -0.81034,2.319711 -0.38427,4.279496 0.52862,2.431417 0.3781,3.001462 -0.47389,1.794633 -0.97277,-1.377906 -1.40827,-1.157941 -1.97148,0.995769 -0.3976,1.520397 -0.18216,2.430158 0.47876,2.021688 2.00612,-1.239841 1.34201,1.62325 -0.78622,3.389522 -2.59039,2.14984 -2.54176,7.208334 0.0946,9.844738 1.54467,1.54469 4.88185,2.09449 12.92122,2.12878 21.28925,0.0908 36.5579,4.425372 45.71264,12.977202 3.76907,3.52082 4.22103,3.66141 4.22103,1.31292 0,-4.57646 -5.35729,-23.826498 -8.19924,-29.461875 -1.5022,-2.978746 -6.48713,-10.864696 -11.07762,-17.524322 -9.74495,-14.13741 -12.98945,-20.177745 -15.15192,-28.208545 -3.05189,-11.333849 3.51446,-23.575152 14.23353,-26.5348423 3.18405,-0.87916 5.32557,-0.895513 6.17392,-0.04718 1.84871,1.8487163 4.62581,1.6069633 6.8271,-0.594323 2.85719,-2.857194 2.48514,-3.143118 -5.36645,-4.12411 -6.03638,-0.7542024 -8.21363,-0.4162627 -12.92122,2.00548 -6.15298,3.165329 -13.48418,10.5722253 -19.64021,19.8430393 -2.73111,4.112978 -3.90965,5.113266 -3.90355,3.313134 0.0201,-5.941166 14.2643,-22.1697473 23.06202,-26.2748272 L 167.04676,0 187.02308,2.9966374 c 10.98698,1.6481523 21.76635,3.9223143 23.95416,5.0536703 4.84924,2.5076453 10.55958,8.8874443 20.9577,23.4146773 5.36204,7.491316 10.60888,12.987369 16.3221,17.097365 3.20424,2.30508 6.15111,4.930342 8.61906,7.648491 1.6795,1.849789 3.13722,3.742609 4.30328,5.606817 l 7.49715,2.809326 -2.99464,4.388883 1.49937,-3.857336 c 0.82464,-2.121533 2.02834,-5.209852 2.67488,-6.86292 2.08475,-5.330317 7.26224,-6.155513 18.45135,-2.940805 5.46667,1.570625 10.98304,3.143993 12.25859,3.496391 1.40388,0.387849 2.3192,1.923036 2.3192,3.889805 0,2.755455 0.47668,3.129442 3.1376,2.461593 4.56089,-1.144714 17.65978,1.590093 21.79673,4.55075 2.06244,1.476001 4.66264,5.527872 6.1845,9.637219 2.39778,6.474554 2.63925,10.716639 2.77984,48.835956 0.22573,61.2046 -0.9853,98.36866 -3.22973,99.11328 -1.40045,0.46462 -1.61127,-0.54068 -0.95018,-4.53078 0.46729,-2.82032 0.95575,-34.34972 1.08546,-70.06531 0.21617,-59.513785 0.0363,-65.510559 -2.1529,-71.799352 -3.45548,-9.926191 -5.39864,-11.194512 -18.39298,-12.005196 l -11.08517,-0.691584 -1.73134,7.791472 c -2.81421,12.664656 -9.76834,24.35714 -14.48647,24.35714 -1.44898,0 -1.05944,-1.010422 1.40499,-3.644452 4.50941,-4.819767 7.4871,-10.901463 10.5058,-21.457295 3.737,-13.067626 3.9659,-12.633155 -8.74201,-16.593715 -13.51668,-4.212625 -14.85741,-3.752258 -19.13608,6.57082 -2.67007,6.442006 -2.86992,7.944314 -1.41781,10.657612 1.49461,2.792694 2.34299,3.069076 7.32478,2.386252 4.91223,-0.673295 5.83977,-0.388525 7.2368,2.221854 1.77617,3.318794 0.97932,11.105614 -1.43403,14.013532 -2.18703,2.6352 -8.3572,2.32339 -10.96112,-0.553922 -1.20631,-1.332954 -2.19328,-4.314775 -2.19328,-6.626269 0,-5.542822 -3.36721,-5.588967 -4.47273,-0.06136 -1.33151,6.657546 -0.9727,11.347091 1.30349,17.035823 1.17248,2.93031 2.38436,5.32784 2.69307,5.32784 1.75814,0 10.6974,-4.41766 12.84028,-6.3455 2.39724,-2.15665 2.49777,-2.13781 2.03639,0.38186 -0.5519,3.01405 -10.95289,8.72583 -15.03081,8.25427 -5.12595,-0.59274 -9.49225,-19.612338 -6.00027,-26.137146 1.14689,-2.142988 0.37534,-2.901113 -5.85546,-5.753682 -3.94703,-1.806997 -10.84923,-5.779631 -15.33825,-8.828059 -4.48901,-3.048429 -8.49815,-5.2063 -8.90919,-4.795246 -0.41104,0.411041 2.237,3.595387 5.88454,7.076326 5.77463,5.510843 14.84917,18.53879 13.45033,19.310048 -0.27078,0.149303 -1.97917,1.112537 -3.79643,2.140527 -1.81727,1.02798 -6.29,2.0595 -9.9394,2.29224 -18.20615,1.16108 -38.29776,9.183052 -43.66437,17.433862 -5.55007,8.53284 -6.21224,13.8569 -4.67488,37.58759 0.89275,13.78031 1.11324,51.06127 0.60624,102.4982 -0.72311,73.36187 -1.34737,97.99502 -4.11694,162.45167 l -0.88727,20.64953 18.41257,1.40463 c 36.94363,2.81833 67.50782,1.74479 80.69951,-2.83446 5.20475,-1.80675 5.30854,-1.96887 5.71572,-8.9274 0.44907,-7.67432 -0.30582,-15.30177 -6.407,-64.73578 -2.20402,-17.85779 -4.38128,-40.37054 -4.83833,-50.02833 -0.45707,-9.65779 -1.02094,-17.55961 -1.25306,-17.55961 -0.2321,0 -5.1198,2.29568 -10.86152,5.10152 -7.54742,3.68824 -11.59387,4.93211 -14.60638,4.48996 -2.29178,-0.33636 -3.83356,-1.15086 -3.42619,-1.81 0.40737,-0.65915 1.29583,-0.85535 1.97436,-0.43599 1.80071,1.1129 1.52894,-0.22081 -1.16997,-5.74172 -1.32201,-2.7043 -3.18104,-8.10567 -4.13118,-12.00305 -1.44519,-5.928 -1.43138,-7.36591 0.0844,-8.79782 1.89326,-1.78843 29.24781,-13.93425 31.38243,-13.93425 1.74315,0 2.74866,-7.09447 4.22616,-29.81821 1.54782,-23.80512 4.96039,-46.02914 10.37833,-67.58795 5.48818,-21.83832 9.47954,-46.58761 9.59099,-59.4712 0.0627,-7.247462 0.46547,-9.900802 1.2321,-8.116742 3.2114,7.473322 -0.0166,35.187172 -7.87903,67.646932 -5.59107,23.0823 -9.30446,47.45462 -10.69261,70.17947 -0.66786,10.93334 -1.56645,21.96608 -1.99685,24.51719 -0.5969,3.53795 0.33533,7.29904 3.92934,15.85305 2.59153,6.16806 4.71187,11.33761 4.71187,11.48788 0,0.15028 -2.17535,1.61767 -4.83412,3.26088 l -4.83411,2.98764 0.82203,17.9932 c 0.45211,9.89625 1.39195,22.46591 2.08852,27.93258 0.69658,5.46668 1.94354,15.90305 2.77104,23.19195 1.50285,13.23773 4.19094,34.77951 6.71572,53.81838 0.73557,5.54677 0.95243,12.49241 0.48193,15.4348 -0.82846,5.18085 -1.11231,5.43456 -8.99081,8.03579 l -8.13537,2.68604 0.32482,20.19462 c 0.17865,11.10703 0.62746,20.49723 0.99734,20.86712 0.36989,0.36988 9.46737,0.44504 20.21662,0.167 10.74924,-0.27804 23.03118,-0.52805 27.29317,-0.55559 l 7.74908,-0.0501 -0.87438,-70.23846 c -1.06418,-85.48629 -1.04108,-128.08024 0.0726,-134.01716 0.87669,-4.67315 -0.61503,-5.87801 -3.28878,-2.65633 -2.21325,2.66681 -17.14448,9.08313 -18.78199,8.07109 -2.71949,-1.68073 -3.85808,-7.45649 -4.11226,-20.86031 -0.27714,-14.61373 0.91112,-18.72428 5.85282,-20.24672 1.64077,-0.50549 6.72972,-3.52116 11.30878,-6.70149 9.42677,-6.54726 14.05092,-8.2031 15.65594,-5.60612 1.92466,3.11416 0.63967,32.64694 -1.68277,38.67495 -2.8251,7.33263 -3.60538,65.51943 -2.05551,153.2815 0.9661,54.7057 0.85555,64.60834 -0.74256,66.51507 -3.18776,3.80337 -13.26878,6.37828 -24.70643,6.31053 -9.1165,-0.0539 -12.4598,-0.77079 -22.62455,-4.85067 z m 41.48902,-1.22028 c 4.80502,-2.09243 4.83405,-2.14903 1.58173,-3.08267 -4.50618,-1.29361 -41.55129,0.001 -40.14913,1.40404 0.615,0.615 3.48923,2.0263 6.38718,3.13621 6.56368,2.51391 24.9753,1.67996 32.18022,-1.45758 z M 51.887343,481.40814 c -1.382068,-1.04619 -6.152981,-3.1023 -10.602031,-4.56916 -8.174762,-2.69525 -35.2568669,-9.35453 -35.2568669,-8.66939 0,1.44738 14.1520539,8.81021 21.2040609,11.03175 4.737783,1.4925 9.508696,2.99947 10.602031,3.34881 1.093334,0.34933 5.267884,0.66327 9.276777,0.69764 6.610485,0.0567 7.055015,-0.11464 4.776029,-1.83965 z M 260.79148,299.11928 c 3.66669,-1.01829 21.59972,-10.1254 24.50277,-12.44345 0.43655,-0.34859 -4.75474,-13.77335 -7.02002,-18.15394 l -1.93393,-3.7398 -6.27498,2.50116 c -3.45126,1.37566 -10.26382,4.30385 -15.13903,6.50711 l -8.86404,4.00592 1.37472,5.06168 c 1.81533,6.68405 6.52231,17.6535 7.57108,17.64417 0.45691,-0.004 3.05945,-0.62634 5.78343,-1.38285 z m 5.04726,-9.80147 c -0.87409,-1.0532 -1.39438,-3.28957 -1.15621,-4.9697 0.32966,-2.32545 1.40919,-3.15002 4.52168,-3.45376 5.47591,-0.53435 8.12989,2.55239 6.07402,7.06451 -1.69369,3.71724 -6.86448,4.46165 -9.43949,1.35895 z m 7.56005,-3.05406 c 0.7246,-2.17624 -3.42774,-3.72971 -5.20875,-1.9487 -0.76215,0.76215 -0.96465,2.06709 -0.44997,2.89985 1.17092,1.8946 4.92109,1.26425 5.65872,-0.95115 z m -4.97008,-0.33201 c 0,-0.72889 0.59636,-1.32526 1.32525,-1.32526 0.72889,0 1.32526,0.59637 1.32526,1.32526 0,0.72889 -0.59637,1.32525 -1.32526,1.32525 -0.72889,0 -1.32525,-0.59636 -1.32525,-1.32525 z m -153.05991,1.31079 c 2.35865,-4.93489 3.33384,-8.42761 2.56287,-9.17913 -0.68449,-0.66723 -7.74666,-3.98203 -15.69372,-7.36621 -13.951755,-5.94125 -14.530586,-6.07008 -16.812991,-3.74211 -1.300088,1.32604 -3.525984,5.3928 -4.946431,9.03725 l -2.582641,6.62627 3.07924,2.3192 c 1.693595,1.27555 4.010709,2.31919 5.149155,2.31919 1.138446,0 2.069901,0.57539 2.069901,1.27863 0,1.94016 4.923527,4.16995 11.757227,5.32469 11.46944,1.93806 11.29159,2.01441 15.41739,-6.61778 z m -26.306589,0.24142 c -3.922275,-4.33407 -1.871338,-9.50374 3.770359,-9.50374 3.55229,0 5.96364,2.41136 5.96364,5.96365 0,5.76311 -5.80996,7.8761 -9.733999,3.54009 z m 6.626179,-4.80819 c -0.43161,-1.12477 -1.54892,-1.99795 -2.48291,-1.94041 -1.33009,0.0819 -1.3391,0.2495 -0.0416,0.77306 0.91111,0.36764 1.65657,1.61269 1.65657,2.76676 0,1.15407 0.37185,1.72646 0.82635,1.27196 0.45448,-0.45448 0.47319,-1.7466 0.0416,-2.87137 z m 225.75047,-6.02581 c 4.00889,-2.165 8.31784,-4.308 9.57544,-4.76221 1.2576,-0.45421 2.63403,-2.69832 3.05875,-4.9869 2.19866,-11.84741 1.82183,-12.67862 -3.80795,-8.39958 -4.85076,3.68692 -12.04703,7.55167 -14.06144,7.55167 -0.76508,0 -1.39107,-2.38546 -1.39107,-5.30102 0,-2.91556 0.48493,-5.30101 1.07762,-5.30101 0.91844,0 18.29989,-9.96826 20.07441,-11.51268 0.75092,-0.65354 0.40252,-11.10789 -0.3968,-11.90723 -0.31723,-0.31722 -5.02303,2.32579 -10.45737,5.87336 -5.43432,3.54756 -11.73745,7.21926 -14.00695,8.15931 l -4.12637,1.70919 0.47858,12.78449 c 0.57939,15.47772 1.61673,20.08079 4.51873,20.05118 1.19653,-0.0119 5.45553,-1.79357 9.46442,-3.95857 z M 54.950892,262.21552 56.41877,248.43871 49.109571,239.02358 C 29.564834,213.84761 28.55776,213.0567 28.55776,222.883 c 0,5.52759 0.550855,6.40558 9.589338,15.28427 8.472401,8.32262 9.539906,9.91637 9.165098,13.68303 -0.522946,5.25527 -2.064189,7.03613 -4.397935,5.08171 -3.325022,-2.78458 -15.946779,-10.75789 -17.029737,-10.75789 -1.56364,0 -2.24282,2.74158 -1.561772,6.30426 0.695467,3.63806 26.564157,26.26395 28.130806,24.60442 0.566201,-0.59975 1.68999,-7.29003 2.497334,-14.86728 z M 205.40401,102.29733 c 11.90523,-5.494352 23.63864,-8.527403 32.98826,-8.527403 4.04288,0 7.74054,-0.630781 8.21702,-1.401747 1.29712,-2.098778 -5.17649,-11.099293 -15.43543,-21.460485 -5.02096,-5.071018 -9.12904,-10.375757 -9.12904,-11.788319 0,-2.388836 0.43984,-2.313138 6.29496,1.083316 3.46222,2.008382 9.66979,5.815068 13.79461,8.459294 4.12481,2.644239 9.49209,5.535307 11.92728,6.424605 2.43519,0.889299 6.14841,2.493651 8.25157,3.565238 2.10318,1.071574 4.08041,1.691859 4.39386,1.37841 0.64783,-0.647837 -6.17216,-14.250839 -9.85655,-19.659611 -1.34166,-1.969606 -6.26751,-6.442337 -10.94632,-9.939404 -4.67881,-3.49708 -10.18727,-8.743773 -12.24103,-11.659331 -2.05375,-2.915559 -6.0766,-8.656399 -8.93965,-12.757437 -10.66388,-15.274955 -16.15596,-18.2691683 -34.4931,-18.8051803 -12.06519,-0.352676 -11.90289,2.464376 0.20046,3.4790833 12.15129,1.018723 14.57595,3.151109 15.44074,13.579518 0.343,4.136091 -0.093,10.722417 -0.96888,14.636276 -0.87589,3.913872 -1.6224,7.572514 -1.65893,8.130326 -0.0366,0.5578 -0.86748,2.157885 -1.84656,3.555736 -1.51708,2.165915 -1.46907,2.769038 0.3247,4.080682 2.89048,2.113568 0.62243,6.143956 -5.48536,9.747639 -4.97522,2.935451 -6.11508,5.496822 -2.44621,5.496822 1.48126,0 0.43095,1.536857 -3.13819,4.591898 -6.83206,5.848001 -7.63506,9.919525 -4.3742,22.178932 1.41519,5.320512 2.59372,11.760932 2.61896,14.312042 l 0.0459,4.63839 3.5546,-4.51167 c 2.19745,-2.7891 7.12517,-6.1595 12.90654,-8.82762 z m 74.98706,-11.243444 c 0.79947,-1.493827 1.26773,-4.326557 1.04056,-6.294956 -0.32659,-2.830013 -1.20513,-3.669509 -4.19848,-4.011862 -2.46501,-0.281921 -3.47585,0.06812 -2.89783,1.003297 0.48821,0.789944 -0.0447,1.794023 -1.18423,2.231303 -2.7979,1.073655 -2.63199,6.67981 0.24732,8.356852 3.51883,2.049528 5.39248,1.705324 6.99266,-1.284634 z m -5.26206,-3.326414 c 1.75262,-1.86556 3.40386,-2.740055 3.66944,-1.943313 0.67096,2.012889 -2.3177,5.33526 -4.79938,5.33526 -1.56435,0 -1.29387,-0.811903 1.12994,-3.391947 z M 91.86051,85.04423 c 4.1527,-5.291062 5.45534,-7.996555 4.90534,-10.187981 -0.41189,-1.641089 0.1707,-5.184711 1.29466,-7.874712 1.51169,-3.617982 1.7009,-5.792167 0.72701,-8.353724 -0.72411,-1.904535 -1.31656,-6.107604 -1.31656,-9.340164 0,-3.232559 -0.53049,-5.877368 -1.17885,-5.877368 -5.153372,0 -23.834535,4.635446 -25.799687,6.401798 -2.062957,1.854268 -2.323528,3.392106 -1.609892,9.501248 1.026051,8.783571 5.34561,23.781203 7.683093,26.675955 1.830162,2.266476 7.807786,6.516419 8.94162,6.357269 0.384482,-0.05394 3.243453,-3.34001 6.353266,-7.302321 z M 79.300735,74.88506 c -5.796859,-6.333428 -5.046526,-9.888633 2.709336,-12.837403 3.162559,-1.202403 4.116,-0.947159 6.914154,1.850995 4.029735,4.02974 4.386405,10.613985 0.682334,12.596353 -4.014154,2.148302 -7.341761,1.628485 -10.305824,-1.609945 z m 9.771892,-1.741079 c 1.107873,-2.887079 -1.708782,-8.529638 -4.257828,-8.529638 -2.168553,0 -5.897393,3.016436 -5.897393,4.770688 0,2.030925 4.479451,5.831342 6.873257,5.831342 1.367688,0 2.844564,-0.932581 3.281964,-2.072392 z m -6.896581,-1.991538 c -1.25092,-2.024047 -0.26032,-2.569813 3.07928,-1.696484 1.599979,0.418409 2.582377,1.289299 2.183117,1.935321 -1.001507,1.620454 -4.203095,1.475153 -5.262397,-0.238837 z m 98.182874,5.590344 c -2.09308,-2.049187 -2.12728,-1.946599 -0.53524,1.605718 0.93538,2.087115 1.94155,3.07219 2.23593,2.189041 0.29439,-0.883149 -0.47093,-2.590792 -1.70069,-3.794759 z m 1.73574,-7.722055 c -1.94758,-2.346693 -4.17756,-0.349801 -3.00927,2.694731 0.67247,1.75241 1.26556,1.907425 2.71029,0.708388 1.42924,-1.186155 1.49717,-1.959387 0.29898,-3.403119 z m -4.359,-5.311246 c -0.87981,-2.283929 -0.99525,-2.287985 -2.23557,-0.07859 -1.59709,2.844896 -0.18553,5.835689 1.81165,3.838505 0.7434,-0.743414 0.93417,-2.435379 0.42392,-3.759917 z m 7.86468,2.23011 c -0.45048,-0.728889 -1.41541,-1.325253 -2.1443,-1.325253 -0.72889,0 -0.95669,0.596364 -0.50621,1.325253 0.45049,0.72889 1.41542,1.325254 2.14431,1.325254 0.72889,0 0.95668,-0.596364 0.5062,-1.325254 z m 3.023,-6.313244 c -1.16929,-1.40889 -1.67203,-1.426768 -2.4989,-0.08892 -0.5693,0.92117 -0.37641,2.468537 0.42867,3.438596 1.16928,1.408891 1.67203,1.426782 2.4989,0.08893 0.5693,-0.921171 0.37641,-2.468538 -0.42867,-3.438597 z m -15.61291,2.337483 c 0,-2.538948 -0.59521,-3.31063 -2.25887,-2.928586 -0.95222,0.218667 -1.37185,-0.404322 -0.97279,-1.444248 0.38598,-1.005828 -0.23433,-2.605675 -1.37845,-3.555219 -3.55779,-2.952705 -3.87624,-0.306756 -0.55077,4.576168 3.13781,4.607377 5.16088,5.921314 5.16088,3.351885 z m 9.27678,-0.500363 c 0,-0.275189 -0.89455,-1.242757 -1.98788,-2.150145 -1.62809,-1.351189 -1.98788,-1.260634 -1.98788,0.50035 0,1.18259 0.89454,2.150158 1.98788,2.150158 1.09333,0 1.98788,-0.225161 1.98788,-0.500363 z M 113.688,45.621997 l 5.64965,-5.077166 -4.63839,0.879001 c -13.96246,2.645962 -14.57779,3.00708 -14.57779,8.555414 0,8.79514 1.18545,10.052674 4.77933,5.069958 1.72565,-2.392521 5.67988,-6.634751 8.7872,-9.427207 z m 69.95176,9.732439 c -2.46777,-1.525168 -3.24277,-0.750173 -2.13546,2.135461 0.68006,1.772169 1.21929,1.917152 2.47184,0.664602 1.25256,-1.252564 1.17918,-1.8634 -0.33638,-2.800063 z m 8.40348,1.97101 c -0.41957,-1.093334 -1.36841,-1.98788 -2.10856,-1.98788 -0.77569,0 -0.64688,0.842079 0.30405,1.98788 0.90739,1.093335 1.85624,1.987881 2.10856,1.987881 0.25231,0 0.11556,-0.894546 -0.30405,-1.987881 z m -15.77628,-0.571051 c 0.41937,-0.67853 0.15637,-1.608275 -0.58441,-2.066098 -0.74077,-0.457822 -1.34687,0.09727 -1.34687,1.233679 0,2.327848 0.79524,2.670599 1.93128,0.832419 z m 20.35475,-5.826108 c 0.23063,-1.948229 -0.19565,-3.542244 -0.9473,-3.542244 -1.88253,0 -4.4247,5.045612 -3.38763,6.723609 1.44254,2.33409 3.89508,0.53421 4.33493,-3.181365 z m -9.05378,2.090084 c -0.0106,-0.546667 -0.5751,-1.871218 -1.2532,-2.943441 -1.52686,-2.414335 -3.31817,-0.904393 -2.24495,1.892343 0.79261,2.065501 3.53568,2.889729 3.49815,1.051098 z m -14.5575,-1.494303 c 0,-0.639634 -0.89455,-1.905383 -1.98788,-2.812772 -1.61218,-1.337989 -1.98788,-1.285164 -1.98788,0.279483 0,1.061105 0.39758,2.326854 0.88351,2.812772 1.25856,1.25858 3.09225,1.092844 3.09225,-0.279483 z m 6.62627,-0.08402 c 0,-0.685872 -0.59636,-1.615604 -1.32525,-2.066084 -0.72889,-0.45048 -1.32526,0.110659 -1.32526,1.247038 0,1.136352 0.59637,2.066097 1.32526,2.066097 0.72889,0 1.32525,-0.561166 1.32525,-1.247038 z m -16.23436,-1.923023 c -1.27556,-0.968283 -2.31919,-2.440229 -2.31919,-3.270978 0,-0.830762 -0.63157,-1.510471 -1.40347,-1.510471 -0.77191,0 -0.97723,0.745455 -0.45629,1.656567 1.92834,3.372532 3.5491,4.968589 5.00384,4.927559 0.82187,-0.02319 0.45067,-0.83438 -0.82489,-1.802677 z m 29.4869,-5.619155 c 0,-2.88317 -2.75856,-3.496882 -4.57181,-1.017106 -1.3291,1.817652 -1.38705,2.960034 -0.24314,4.793509 1.40932,2.258922 1.60383,2.267761 3.15838,0.143565 0.91111,-1.244983 1.65657,-3.008962 1.65657,-3.919968 z m -17.2283,3.650477 c 0,-0.639633 -0.89455,-1.905383 -1.98788,-2.812771 -1.61219,-1.33799 -1.98788,-1.285165 -1.98788,0.279483 0,1.061104 0.39757,2.326854 0.8835,2.812771 1.25857,1.258581 3.09226,1.092844 3.09226,-0.279483 z m 6.10169,-2.453853 c -1.34714,-1.347134 -2.45867,0.681035 -1.35337,2.469465 0.83495,1.350977 1.14711,1.352024 1.596,0.0053 0.30693,-0.92076 0.19774,-2.034424 -0.24263,-2.474792 z m -14.05321,0.966336 c 0,-0.72889 -0.59637,-1.325254 -1.32526,-1.325254 -0.72889,0 -1.32525,0.596364 -1.32525,1.325254 0,0.728889 0.59636,1.325253 1.32525,1.325253 0.72889,0 1.32526,-0.596364 1.32526,-1.325253 z m 33.04475,-2.981822 1.49796,-4.307075 -2.8544,2.848143 c -1.56991,1.56649 -2.44863,3.504674 -1.95272,4.307075 1.33489,2.159886 1.66677,1.87424 3.30916,-2.848143 z m -38.19668,-2.700205 c -1.08229,-1.082295 -1.47434,-0.933986 -1.47434,0.557706 0,2.634419 1.78207,4.416488 2.44068,2.440681 0.2794,-0.838224 -0.15546,-2.187504 -0.96634,-2.998387 z m 15.46927,-0.624645 c -0.97222,-1.171459 -1.90009,-1.315434 -2.78359,-0.431927 -0.8835,0.883494 -0.74242,2.027506 0.42322,3.432023 1.35907,1.63759 1.979,1.733777 2.78359,0.431927 0.5693,-0.921171 0.37886,-2.465582 -0.42322,-3.432023 z m -8.19141,0.03936 c -1.34715,-1.347147 -2.45868,0.681034 -1.35338,2.469451 0.83495,1.35099 1.14712,1.352024 1.59601,0.0053 0.30692,-0.920773 0.19774,-2.034424 -0.24263,-2.474792 z m 17.75287,-2.099746 c 0,-0.678835 -0.89454,-0.491828 -1.98788,0.41556 -1.09333,0.907388 -1.96891,2.620411 -1.94574,3.806712 0.0354,1.812046 0.35326,1.745611 1.98789,-0.41556 1.07015,-1.414867 1.94573,-3.12789 1.94573,-3.806712 z m 9.71885,1.175076 c 1.07455,-2.800235 -2.35049,-5.238384 -4.21047,-2.99726 -1.0806,1.302049 -1.05698,2.183276 0.0892,3.329475 2.06176,2.061764 3.23901,1.966862 4.12125,-0.332215 z m -30.45994,-2.789845 c -0.41061,-1.069983 -1.2791,-1.945433 -1.93001,-1.945433 -1.35984,0 -1.59897,3.118495 -0.33599,4.381488 1.41373,1.413715 3.06294,-0.359249 2.266,-2.436055 z m 15.7026,-3.705383 c -2.11077,-2.339537 -2.22732,-2.329253 -3.40043,0.299786 -0.82538,1.849763 -0.67364,3.374321 0.47342,4.756455 1.50741,1.816314 1.87151,1.784216 3.40043,-0.299772 1.42761,-1.94591 1.34891,-2.73661 -0.47342,-4.756469 z m -24.14368,3.7158 c -0.922,-1.110947 -1.94929,-1.746989 -2.28285,-1.413423 -0.91905,0.919063 0.94828,3.433335 2.54992,3.433335 0.87878,0 0.77823,-0.760404 -0.26707,-2.019912 z m 15.25093,-1.981864 c -0.74295,-1.202111 -1.23544,-1.165455 -2.05002,0.152563 -1.39724,2.260804 -0.0245,4.481995 1.70263,2.754898 0.72889,-0.72889 0.88521,-2.037247 0.34739,-2.907461 z m 18.38938,-2.916142 c -0.49426,-0.799737 -1.26094,-0.61073 -1.953,0.481478 -1.8113,2.858612 -1.36132,4.261062 0.79341,2.472791 1.0853,-0.900735 1.60712,-2.23015 1.15959,-2.954269 z m -29.17106,1.933599 c 0.85145,-1.377681 -2.50116,-5.792208 -3.57976,-4.71361 -1.61876,1.618758 -0.86812,5.722167 1.04676,5.722167 1.05032,0 2.19017,-0.453846 2.533,-1.008557 z m 6.90884,-3.872061 c -0.87981,-2.283929 -0.99525,-2.287984 -2.23557,-0.07859 -1.59709,2.844896 -0.18554,5.835689 1.81165,3.838505 0.7434,-0.743415 0.93417,-2.43538 0.42392,-3.759918 z m 31.61086,4.076203 c 2.74799,-1.054505 2.84215,-8.030615 0.1084,-8.030615 -2.39255,0 -2.53836,1.128176 -0.41967,3.246872 2.21083,2.210829 0.2507,3.671881 -2.1988,1.638982 -1.65241,-1.37136 -2.01993,-1.325347 -2.01993,0.252898 0,1.693846 1.13785,3.696278 2.10037,3.696278 0.18335,0 1.27668,-0.361993 2.42963,-0.804415 z m -23.10384,-5.490607 c 0.029,-2.367009 -2.19604,-2.049041 -3.15537,0.450905 -1.10376,2.876371 0.52408,5.326341 1.99577,3.003714 0.62662,-0.988931 1.14844,-2.543506 1.1596,-3.454619 z m 10.0113,2.23569 c 0.47886,-0.774822 -0.19509,-2.586418 -1.49769,-4.025763 -2.10669,-2.327861 -2.49864,-2.384185 -3.54764,-0.509732 -1.95712,3.497186 2.9569,7.914641 5.04533,4.535495 z m -30.75301,-3.132741 c 0.3991,-1.040046 -0.13345,-2.603964 -1.18346,-3.475398 -1.57944,-1.310809 -1.90911,-0.984266 -1.90911,1.890978 0,3.724758 1.89809,4.697203 3.09257,1.58442 z m 8.81442,-0.506419 c -0.0106,-0.503649 -0.60752,-1.81027 -1.32525,-2.903604 -1.14306,-1.741252 -1.45998,-1.746765 -2.55442,-0.0444 -0.8015,1.246679 -0.74765,2.548039 0.15017,3.629857 1.35295,1.630208 3.77094,1.188169 3.7295,-0.681804 z m 28.51325,1.072157 c 0.45048,-0.72889 0.1875,-1.325254 -0.58441,-1.325254 -0.77191,0 -1.40347,0.596364 -1.40347,1.325254 0,0.72889 0.26298,1.325254 0.58441,1.325254 0.32143,0 0.95299,-0.596364 1.40347,-1.325254 z M 173.7599,22.626617 c -0.87981,-2.283916 -0.99525,-2.287985 -2.23557,-0.07859 -1.59709,2.844896 -0.18553,5.835689 1.81165,3.838505 0.7434,-0.743414 0.93417,-2.435379 0.42392,-3.759917 z m 7.75302,-1.926336 c -0.6218,-1.00608 -1.3091,-0.785637 -2.13133,0.683619 -0.66748,1.192715 -0.80061,2.836785 -0.29585,3.653512 0.6218,1.00608 1.3091,0.785624 2.13133,-0.683618 0.66747,-1.192716 0.80061,-2.836786 0.29585,-3.653513 z m 10.05106,2.99347 c 0,-1.694682 -3.89674,-4.658811 -4.85926,-3.696292 -0.96252,0.962518 2.00161,4.859268 3.69628,4.859268 0.63964,0 1.16298,-0.523342 1.16298,-1.162976 z m 6.62627,-0.746688 c 0,-0.321427 -0.59636,-0.95299 -1.32525,-1.40347 -0.72889,-0.450481 -1.32525,-0.187497 -1.32525,0.58441 0,0.771908 0.59636,1.403471 1.32525,1.403471 0.72889,0 1.32525,-0.262984 1.32525,-0.584411 z m 3.9636,-4.085983 c -1.05606,-2.777626 -1.79184,-3.332483 -2.92132,-2.202996 -1.12949,1.129488 -0.89662,2.187252 0.92461,4.19969 3.09621,3.421275 3.79206,2.725424 1.99671,-1.996694 z m -41.0707,1.435475 c 0,-2.110639 -2.40449,-4.079118 -3.56503,-2.91858 -1.09021,1.090207 0.61163,4.828245 2.19819,4.828245 0.75176,0 1.36684,-0.859348 1.36684,-1.909665 z m 8.68551,0.468941 c 1.3657,-2.209754 -1.70588,-4.743759 -3.53408,-2.915558 -1.52924,1.529237 -0.57214,4.356282 1.47484,4.356282 0.64285,0 1.56951,-0.648328 2.05924,-1.440724 z m 7.64631,-3.329183 c -0.50991,-1.328792 -1.23127,-1.58397 -2.07958,-0.735662 -1.51765,1.517655 -0.0484,4.567819 1.68449,3.496868 0.6467,-0.399683 0.82448,-1.642228 0.39509,-2.761206 z m 15.41777,-1.961932 c -1.21598,-2.272082 -1.79615,-2.510654 -2.66942,-1.097682 -0.70384,1.138844 -0.29681,2.710264 1.1025,4.256491 2.68577,2.967733 3.72477,0.87317 1.56692,-3.158809 z m -7.75746,1.038283 c -1.70095,-1.70095 -3.42585,-0.386311 -2.16658,1.65124 0.4878,0.789268 1.49402,1.059819 2.23606,0.601215 0.90515,-0.559403 0.88229,-1.300684 -0.0694,-2.252455 z M 164.92602,14.58601 c 1.62088,-3.115393 0.75847,-3.756922 -2.37942,-1.770022 -1.09919,0.695997 -1.48981,2.108996 -0.96275,3.482515 0.99074,2.581793 1.15052,2.499919 3.34217,-1.712493 z m 7.8269,-1.815717 c -2.10945,-1.303705 -4.35677,0.704359 -3.08722,2.758542 0.68717,1.111849 1.43512,1.086019 2.86282,-0.09886 1.54665,-1.283614 1.59147,-1.814789 0.2244,-2.659678 z m 7.54641,1.484404 c 0.45048,-0.72889 0.18749,-1.325254 -0.58441,-1.325254 -0.77191,0 -1.40347,0.596364 -1.40347,1.325254 0,0.728889 0.26298,1.325253 0.58441,1.325253 0.32142,0 0.95299,-0.596364 1.40347,-1.325253 z m 6.92997,-0.800679 c -0.44038,-0.440369 -1.58341,-0.487442 -2.54007,-0.104563 -1.05719,0.423061 -0.74318,0.737093 0.80068,0.800679 1.39703,0.05752 2.17976,-0.255681 1.73939,-0.69605 z M 174.11981,302.17788 c -2.9063,-0.65015 -6.79125,-8.98267 -5.7369,-12.30464 1.20199,-3.78714 8.80558,-3.9637 12.91036,-0.2998 5.77596,5.1556 0.55299,14.33285 -7.17346,12.60444 z m 6.57479,-6.42271 c 0.54582,-3.82018 -3.03996,-6.72698 -5.63824,-4.57059 -1.0614,0.88088 -2.52841,1.23166 -3.26001,0.7795 -0.84689,-0.5234 -0.81162,0.66546 0.097,3.2721 1.17285,3.36441 2.04924,4.02214 4.91659,3.68984 2.36128,-0.27365 3.61712,-1.29873 3.88461,-3.17085 z m -5.75078,0.69043 c -0.48045,-0.77738 -0.55532,-1.73165 -0.16639,-2.12059 0.94931,-0.9493 3.53402,0.72336 3.53402,2.28697 0,1.69364 -2.28793,1.58059 -3.36763,-0.16638 z m -3.58996,-49.05238 c -3.41923,-1.99152 -2.88169,-8.29876 1.11175,-13.0447 4.15765,-4.94109 6.42039,-5.12992 9.27451,-0.77397 2.53391,3.86725 1.81088,8.09277 -2.10376,12.29463 -3.02161,3.24332 -4.77633,3.5662 -8.2825,1.52404 z m 2.13582,-4.53223 c -1.02927,-2.68222 1.72905,-2.54273 3.24383,0.16404 0.99673,1.78106 1.45185,1.44174 2.64078,-1.96881 1.17192,-3.36179 1.04261,-4.51461 -0.70211,-6.25934 -1.96797,-1.96796 -2.32968,-1.89018 -4.53333,0.97487 -2.46532,3.20525 -3.12358,6.64021 -1.57017,8.19361 1.41734,1.41735 1.74014,1.03028 0.921,-1.10437 z m -5.72863,-55.24793 c -5.49278,-5.8958 -1.14358,-15.27168 6.26351,-13.50272 5.39377,1.28814 6.93739,3.01165 6.93739,7.74585 0,7.92311 -7.95197,11.39094 -13.2009,5.75687 z m 9.16461,-1.66505 c 2.47129,-2.97772 1.2235,-8.06948 -1.90865,-7.78841 -1.44679,0.12988 -3.04552,-0.43542 -3.55275,-1.25613 -0.56704,-0.91748 -1.57696,-0.0553 -2.62219,2.23882 -1.54059,3.38123 -1.41113,3.9649 1.38101,6.22583 3.70225,2.99791 4.62924,3.0781 6.70258,0.57989 z m -5.24048,-2.83388 c 0,-1.15408 0.70817,-1.86226 1.57374,-1.57374 2.45731,0.8191 2.86488,3.67205 0.52457,3.67205 -1.15407,0 -2.09831,-0.94424 -2.09831,-2.09831 z m -6.39527,-53.97907 c -3.51816,-3.74493 -3.68915,-7.71836 -0.45796,-10.64253 5.29677,-4.79351 13.4795,-1.09097 13.4795,6.09924 0,7.33031 -7.83508,10.06402 -13.02154,4.54329 z m 10.14144,-3.30067 c 0.46771,-3.29926 -1.7809,-6.88464 -4.31778,-6.88464 -0.86477,0 -2.6968,0.82224 -4.07118,1.82722 -2.399,1.75419 -2.40577,1.96928 -0.16954,5.3822 2.90278,4.43021 7.91138,4.24014 8.5585,-0.32478 z m -6.83843,0.18338 c -1.22213,-1.22214 -1.10816,-3.09226 0.18845,-3.09226 0.58958,0 2.22958,0.87559 3.64445,1.94574 2.52745,1.91165 2.52415,1.94647 -0.18845,1.98788 -1.51853,0.0232 -3.15853,-0.35543 -3.64445,-0.84136 z"
     id="path3047"
     inkscape:connector-curvature="0"
     sodipodi:nodetypes="ccscsssssssssssssssssssssssssscsssscsssscsssssscsssscssssssssscssscsscssssssssssssssssscssssssssssssssssssssssssssssssssssssssscssssssccsssssssssssssscsssssssssssssssssssssssssssssscssssssssscsscssssssssssscsssssscscsscscssssssssssccsscsscssssscssscsscscsssssssssssssssssssscsssssssssccsssccsssssssscsscscsscssssssssscssssssssssssssssscssssssscsccsssscssssssssssssssssssssssssssssssssscssssssssssssssscscssssssssssssscsssssssscsssccsscsssscsscsssssssssssssssssssssssssscscccsssssscsssssssssssscscccsscsscscccssssssssssssscsccssssssssssssssssssscsscsssssssscssscssssssssssssssssssssssssssssssssssssssssssscssccssssssssssssssssssssscsccsccscssssssssssssssssssscssssssssssssssssssssss" />
</svg>
